<?xml version="1.0" encoding="UTF-8" standalone="no"?>
<!-- Created with Inkscape (http://www.inkscape.org/) -->

<svg
   xmlns:dc="http://purl.org/dc/elements/1.1/"
   xmlns:cc="http://creativecommons.org/ns#"
   xmlns:rdf="http://www.w3.org/1999/02/22-rdf-syntax-ns#"
   xmlns:svg="http://www.w3.org/2000/svg"
   xmlns="http://www.w3.org/2000/svg"
   xmlns:sodipodi="http://sodipodi.sourceforge.net/DTD/sodipodi-0.dtd"
   xmlns:inkscape="http://www.inkscape.org/namespaces/inkscape"
   id="svg17399"
   version="1.1"
   inkscape:version="0.91 r13725"
   width="441"
   height="344"
   viewBox="0 0 441 344"
   sodipodi:docname="er09mr99.056.svg">
  <title id="title_er09mr99.056"></title>
  <desc id="desc_er09mr99.056"></desc>
  <metadata
     id="metadata17405">
    <rdf:RDF>
      <cc:Work
         rdf:about="">
        <dc:format>image/svg+xml</dc:format>
        <dc:type
           rdf:resource="http://purl.org/dc/dcmitype/StillImage" />
        <dc:title></dc:title>
      </cc:Work>
    </rdf:RDF>
  </metadata>
  <defs
     id="defs17403" />
  <sodipodi:namedview
     pagecolor="#ffffff"
     bordercolor="#666666"
     borderopacity="1"
     objecttolerance="10"
     gridtolerance="10"
     guidetolerance="10"
     inkscape:pageopacity="0"
     inkscape:pageshadow="2"
     inkscape:window-width="1910"
     inkscape:window-height="1156"
     id="namedview17401"
     showgrid="false"
     inkscape:zoom="1.6228866"
     inkscape:cx="203.0226"
     inkscape:cy="175.18993"
     inkscape:window-x="0"
     inkscape:window-y="0"
     inkscape:window-maximized="0"
     inkscape:current-layer="svg17399" />
  <path
     style="color:#000000;display:inline;overflow:visible;visibility:visible;fill:none;fill-rule:evenodd;stroke:#000000;stroke-width:3;stroke-linecap:butt;stroke-linejoin:miter;stroke-miterlimit:4;stroke-dasharray:none;stroke-dashoffset:0;stroke-opacity:1;marker:none;enable-background:accumulate"
     d="m 33.145833,232.15721 c -16.303282,0 -29.5196997,-13.21642 -29.5196997,-29.51971 l 0,-121.833332 c 0,-16.303281 13.2164187,-29.519707 29.5196997,-29.519707 l 333.966667,0 c 16.30329,0 29.51971,13.216422 29.51971,29.519707 l 0,121.833332 c 0,16.30329 -13.21642,29.51971 -29.51971,29.51971 z"
     id="path17949"
     inkscape:connector-curvature="0"
     sodipodi:nodetypes="sssssssss" />
  <path
     style="color:#000000;display:inline;overflow:visible;visibility:visible;fill:#000000;fill-opacity:1;fill-rule:evenodd;stroke:#000000;stroke-width:3;stroke-linecap:butt;stroke-linejoin:miter;stroke-miterlimit:4;stroke-dasharray:none;stroke-dashoffset:0;stroke-opacity:1;marker:none;enable-background:accumulate"
     d="m 123.68893,202.67553 0,29.51222 -90.554302,0 c -16.303282,0 -29.5196998,-13.21642 -29.498547,-29.51597 z"
     id="path17949-6"
     inkscape:connector-curvature="0"
     sodipodi:nodetypes="ccscc" />
  <path
     style="fill:none;stroke:#000000;stroke-width:3;stroke-linecap:butt;stroke-linejoin:miter;stroke-miterlimit:4;stroke-dasharray:none;stroke-opacity:1"
     d="m 123.65909,90.685834 -0.002,141.643746"
     id="path14359-1-7-5-3-0-73-1-9"
     inkscape:connector-curvature="0"
     sodipodi:nodetypes="cc" />
  <path
     style="fill:none;stroke:#000000;stroke-width:3;stroke-linecap:butt;stroke-linejoin:miter;stroke-miterlimit:4;stroke-dasharray:none;stroke-opacity:1"
     d="m 3.662808,91.079549 392.824252,0.002"
     id="path14359-1-7-5-3-0-73-1-9-0"
     inkscape:connector-curvature="0"
     sodipodi:nodetypes="cc" />
  <path
     style="fill:none;stroke:#000000;stroke-width:3;stroke-linecap:butt;stroke-linejoin:miter;stroke-miterlimit:4;stroke-dasharray:none;stroke-opacity:1"
     d="m 276.10634,91.072259 -0.002,140.677671"
     id="path14359-1-7-5-3-0-73-1-9-3"
     inkscape:connector-curvature="0"
     sodipodi:nodetypes="cc" />
  <path
     style="fill:none;stroke:#000000;stroke-width:5;stroke-linecap:butt;stroke-linejoin:miter;stroke-miterlimit:4;stroke-dasharray:none;stroke-opacity:1"
     d="m 360.92807,119.28176 -64.14964,72.08607"
     id="path14359-1-7-5-3-0-73-1-9-1"
     inkscape:connector-curvature="0"
     sodipodi:nodetypes="cc" />
  <path
     style="fill:none;stroke:#000000;stroke-width:5;stroke-linecap:butt;stroke-linejoin:miter;stroke-miterlimit:4;stroke-dasharray:none;stroke-opacity:1"
     d="m 304.8955,181.88367 c 23.39882,-9.9287 41.6465,-8.56737 65.30493,0.40302"
     id="path14359-1-7-5-3-0-73-1-9-32"
     inkscape:connector-curvature="0"
     sodipodi:nodetypes="cc" />
  <path
     style="fill:none;stroke:#000000;stroke-width:3;stroke-linecap:butt;stroke-linejoin:miter;stroke-miterlimit:4;stroke-dasharray:none;stroke-opacity:1"
     d="m 355.96501,137.79125 c 1.51679,1.03945 3.07933,2.53358 3.7071,4.76593 l 6.32108,22.47763 c 1.43695,5.10979 0.44218,7.23162 -0.3622,9.78991 l -14.55784,46.30005 -9.66087,0.004 6.3762,-29.7543 -22.60609,0.001 6.18298,29.75725 -9.73546,0.004 -13.91426,-47.36633 c -1.07783,-3.66911 -0.99258,-6.48682 -0.20201,-9.43214 l 5.91341,-22.03096 c 0.54008,-2.01213 1.75608,-3.44028 3.79536,-4.82219 l 12.98384,-8.79848 c 3.0126,-2.04147 2.63593,-7.8656 -0.90346,-11.40499 -1.73327,-1.73327 -3.02063,-4.23521 -3.02063,-6.87939 0,-5.68838 4.61133,-10.29972 10.29971,-10.29972 5.68838,0 10.29972,4.61134 10.29972,10.29972 0,2.6961 -1.54397,5.21904 -3.31106,6.98613 -3.50729,3.5073 -3.83601,9.4948 -0.0334,11.88619 z"
     id="path14359-1-7-5-3-0-73-1-9-4"
     inkscape:connector-curvature="0"
     sodipodi:nodetypes="ssssccccccssssssssssss" />
  <path
     style="fill:#000000;stroke:#000000;stroke-width:1;stroke-linecap:butt;stroke-linejoin:miter;stroke-miterlimit:4;stroke-dasharray:none;stroke-opacity:1;fill-opacity:1"
     d="m 37.061432,77.364316 -3.080591,0 c -1.164077,0 -1.09555,4.436677 0.04468,4.436677 l 3.099178,0 c 0.960586,0 1.311014,-4.436677 -0.06327,-4.436677 z m -4.014155,-11.622227 -0.0012,5.672344 1.212787,5.718999 2.847212,0 1.167659,-5.672314 0.0012,-5.715201 c 4.72e-4,-2.240978 -5.22717,-2.296319 -5.227663,-0.0038 z m 18.652414,18.129228 -14.667916,-3.53e-4 -17.156937,-4.13e-4 15.805728,-24.78018 4.238607,6.556171 z"
     id="path14359-1-7-5-3-0-73-1-9-45-43"
     inkscape:connector-curvature="0"
     sodipodi:nodetypes="ssssssccccsscccccc" />
  <path
     style="fill:#000000;fill-opacity:1;stroke:#000000;stroke-width:1;stroke-linecap:round;stroke-linejoin:round;stroke-miterlimit:4;stroke-dasharray:none;stroke-opacity:1"
     d="m 82.709706,114.91377 c -1.385428,-1.19691 -3.266431,-1.97343 -5.139942,-2.8571 l -20.83031,-9.82488 c -2.170551,-1.02377 -4.221395,-0.78138 -5.977217,0.80937 l 0.04383,0.96224 c 1.745633,-1.72559 4.35883,-1.65372 6.176383,-0.81316 l 18.707013,8.65135 c 2.005155,0.92731 2.126817,3.06212 0.822811,4.36969 l -47.080888,47.20966 c -1.720065,1.72477 -4.55171,1.29947 -5.462509,-0.71175 l -8.602421,-18.99585 c -0.84809,-1.87275 -0.825014,-3.86151 0.749645,-5.4181 l 34.650984,-34.2533 -0.05791,-0.95271 -1.234751,1.11867 c -1.224832,-0.62211 -4.535097,-0.67201 -6.430075,1.19659 l -24.198896,23.86206 c -2.35241,2.31967 -2.721009,4.92496 -2.153357,7.97605 l -0.708362,0.68547 c -1.396583,1.35144 -2.422617,3.78034 -1.490033,5.79897 l 9.292106,20.11319 c 1.205552,2.60948 2.404696,5.10719 4.143906,7.07574 l 17.406638,19.70197 c 1.72751,1.95531 4.786056,2.42893 6.491802,0.74265 l 1.342295,-1.32697 c 3.427916,5.28848 12.777455,12.9927 14.148811,11.46013 l 4.485815,-5.01319 c 1.966251,-2.19741 -3.619782,-8.62605 -9.93861,-14.52005 11.783498,-9.33273 22.660784,-20.10873 32.431498,-32.23587 4.557024,5.3384 12.007708,13.28626 15.254068,9.67967 l 2.80086,-3.11165 c 2.68042,-2.97784 -5.17941,-10.75477 -9.7983,-15.0795 l 1.92702,-1.89518 c 1.58621,-1.56001 0.61644,-5.06228 -1.23635,-6.66296 z m 11.886031,14.1835 c 1.948792,1.92944 1.753956,5.08286 0.511668,6.41688 l -4.275179,4.59087 c -1.393561,1.49646 -5.100139,1.56437 -6.639367,0.0286 l -3.69176,-3.68358 c -1.758392,-1.75449 -2.026793,-5.19598 -0.360909,-6.85509 l 4.05053,-4.03406 c 1.903045,-1.89531 4.979016,-1.83571 6.635129,-0.19605 z m 4.899238,5.28912 c 1.981735,-2.16153 4.679765,0.73186 2.820515,2.78055 L 79.305121,162.5218 c -1.266768,1.3962 -2.529914,2.62338 -3.756666,3.74802 l -26.066547,23.89679 c -2.592516,2.58655 -5.850428,-0.74745 -3.033787,-3.28107 l 2.459019,-2.21193 -1.343387,-1.63893 c -1.392769,1.49721 -5.100163,1.5644 -6.639367,0.0286 l -3.69176,-3.68358 c -1.758389,-1.75449 -2.026793,-5.19598 -0.360909,-6.85509 l 4.05053,-4.03406 c 1.903046,-1.89531 4.803126,-2.01159 6.360043,-0.2867 l 2.21769,2.25551 0.212975,-0.0874 c -0.857545,-1.00505 -0.906894,-2.12746 0.072,-3.10524 l 28.848981,-28.81597 -0.196968,-0.8898 -29.482476,29.2163 c -1.90307,1.8858 -4.291346,-0.97964 -2.345174,-2.93147 l 28.96489,-29.04902 c 2.029455,-2.03535 5.040555,0.60754 2.872837,2.75558 l 0.185541,0.89988 c 2.033572,-2.03124 5.044927,0.61195 2.872837,2.75558 l 0.410405,0.46904 c 2.029455,-2.03535 5.040555,0.60753 2.872837,2.75558 l -29.492553,29.22491 c -1.90307,1.8858 -4.29282,-0.98111 -2.345174,-2.93147 L 81.931441,141.705 81.533836,141.22081 52.130129,170.19822 c -0.859802,0.84734 -1.816153,0.73208 -2.429949,0.17062 l -0.203212,0.0911 1.595778,1.62561 c 1.815007,1.84894 2.059924,4.94114 0.742145,6.35773 l -4.28111,4.59238 1.361052,1.64408 21.824224,-19.64436 c 2.497214,-2.24779 4.885642,-4.61379 7.15618,-7.08962 l 19.034754,-20.75579 z"
     id="path14359-1-7-5-3-0-73-1-9-45-0-2"
     inkscape:connector-curvature="0"
     sodipodi:nodetypes="sssccssssssscccsscsssssscssccsscssssssssssssssssssccsssscccsccsssccccsssccsccssccsscs" />
  <path
     style="color:#000000;display:inline;overflow:visible;visibility:visible;fill:none;fill-rule:evenodd;stroke:#000000;stroke-width:1;stroke-linecap:butt;stroke-linejoin:miter;stroke-miterlimit:4;stroke-dasharray:none;stroke-dashoffset:0;stroke-opacity:1;marker:none;enable-background:accumulate"
     d="m 63.956005,128.82208 c -1.532824,-1.36037 -2.498757,-3.34539 -2.498758,-5.55602 -2e-6,-4.10131 3.324773,-7.42608 7.426084,-7.42608 2.193215,0 4.164365,0.95078 5.523764,2.46264"
     id="path18204"
     inkscape:connector-curvature="0"
     sodipodi:nodetypes="cssc" />
  <path
     style="fill:none;stroke:#000000;stroke-width:2;stroke-linecap:butt;stroke-linejoin:miter;stroke-miterlimit:4;stroke-dasharray:none;stroke-opacity:1"
     d="m 344.3712,8.2406667 94.21594,0.002 0,60.1990003 -11.825,0 m 0,92.808333 11.825,0 0,117.89266 -94.21594,-0.002"
     id="path14359-1-7-5-3-0-73-1-9-45-43-6"
     inkscape:connector-curvature="0"
     sodipodi:nodetypes="cccccccc" />
  <path
     style="fill:none;stroke:#000000;stroke-width:2;stroke-linecap:butt;stroke-linejoin:miter;stroke-miterlimit:4;stroke-dasharray:none;stroke-opacity:1"
     d="m 389.16286,49.449 37.59928,0.360333 0,38.257056 -20.09951,0 m 0,4.625486 20.09951,0 0,141.300795 -37.59928,-0.36033"
     id="path14359-1-7-5-3-0-73-1-9-45-43-6-5"
     inkscape:connector-curvature="0"
     sodipodi:nodetypes="cccccccc" />
  <text
     xml:space="preserve"
     style="font-style:normal;font-variant:normal;font-weight:bold;font-stretch:normal;font-size:24.99999979px;line-height:120.00000477%;font-family:Arial;-inkscape-font-specification:'Arial Bold';text-align:start;letter-spacing:0px;word-spacing:0px;text-anchor:start;fill:#000000;fill-opacity:1;stroke:none;stroke-width:1px;stroke-linecap:butt;stroke-linejoin:miter;stroke-opacity:1;"
     x="80.23391"
     y="68.383041"
     id="text18292"
     sodipodi:linespacing="120%"
     transform="scale(0.82648557,1.2099425)"><tspan
       sodipodi:role="line"
       id="tspan18294"
       x="80.23391"
       y="68.383041">WARNING:</tspan></text>
  <text
     xml:space="preserve"
     style="font-style:normal;font-variant:normal;font-weight:bold;font-stretch:normal;font-size:17.50000022px;line-height:120.00000477%;font-family:Arial;-inkscape-font-specification:'Arial Bold';text-align:start;letter-spacing:0.80000001px;word-spacing:0px;text-anchor:start;fill:#000000;fill-opacity:1;stroke:none;stroke-width:1px;stroke-linecap:butt;stroke-linejoin:miter;stroke-opacity:1;"
     x="222.75632"
     y="66.568878"
     id="text18296"
     sodipodi:linespacing="120%"
     transform="scale(0.80451317,1.2429877)"><tspan
       sodipodi:role="line"
       id="tspan18298"
       x="222.75632"
       y="66.568878">HIGHER ROLLOVER RISK</tspan></text>
  <text
     xml:space="preserve"
     style="font-style:normal;font-variant:normal;font-weight:normal;font-stretch:normal;font-size:12.5px;line-height:120.00000477%;font-family:Arial;-inkscape-font-specification:Arial;text-align:start;letter-spacing:-1.20000005px;word-spacing:0px;text-anchor:start;fill:#000000;fill-opacity:1;stroke:none;stroke-width:1px;stroke-linecap:butt;stroke-linejoin:miter;stroke-opacity:1"
     x="86.34166"
     y="12.183331"
     id="text18300"
     sodipodi:linespacing="120%"><tspan
       sodipodi:role="line"
       id="tspan18302"
       x="86.34166"
       y="12.183331"
       style="letter-spacing:0px">BLACK TEXT ON YELLOW BACKGROUND</tspan></text>
  <text
     xml:space="preserve"
     style="font-style:normal;font-variant:normal;font-weight:normal;font-stretch:normal;font-size:12.5px;line-height:120.00000477%;font-family:Arial;-inkscape-font-specification:Arial;text-align:start;letter-spacing:-0.89999998px;word-spacing:0px;text-anchor:start;fill:#000000;fill-opacity:1;stroke:none;stroke-width:1px;stroke-linecap:butt;stroke-linejoin:miter;stroke-opacity:1"
     x="18.428581"
     y="283.61859"
     id="text18300-9"
     sodipodi:linespacing="120%"><tspan
       sodipodi:role="line"
       id="tspan18302-0"
       x="18.428581"
       y="283.61859"
       style="letter-spacing:-0.40000001px">ARTWORK AND REMAINING TEXT IN BLACK AND WHITE</tspan></text>
  <text
     xml:space="preserve"
     style="font-style:normal;font-variant:normal;font-weight:normal;font-stretch:normal;font-size:20.00000007px;line-height:120.00000477%;font-family:Arial;-inkscape-font-specification:Arial;text-align:start;letter-spacing:0.44139984px;word-spacing:0px;text-anchor:start;fill:#000000;fill-opacity:1;stroke:none;stroke-width:1px;stroke-linecap:butt;stroke-linejoin:miter;stroke-opacity:1;"
     x="187.09367"
     y="296.35291"
     id="text18322"
     sodipodi:linespacing="120%"
     transform="scale(0.86420653,1.1571308)"><tspan
       sodipodi:role="line"
       id="tspan18324"
       x="187.09367"
       y="296.35291">FIGURE 1</tspan></text>
  <text
     xml:space="preserve"
     style="font-style:normal;font-variant:normal;font-weight:bold;font-stretch:normal;font-size:12.5px;line-height:120.00000477%;font-family:Arial;-inkscape-font-specification:'Arial Bold';text-align:center;letter-spacing:-0.1px;word-spacing:0px;text-anchor:middle;fill:#000000;fill-opacity:1;stroke:none;stroke-width:1px;stroke-linecap:butt;stroke-linejoin:miter;stroke-opacity:1;"
     x="200.5517"
     y="119.325"
     id="text18326"
     sodipodi:linespacing="120%"><tspan
       sodipodi:role="line"
       id="tspan18328"
       x="200.5517"
       y="119.325">Avoid Abrupt Maneuvers</tspan><tspan
       sodipodi:role="line"
       x="200.5517"
       y="134.325"
       id="tspan18330">and Excessive Speed.</tspan></text>
  <text
     xml:space="preserve"
     style="font-style:normal;font-variant:normal;font-weight:bold;font-stretch:normal;font-size:12.5px;line-height:120.00000477%;font-family:Arial;-inkscape-font-specification:'Arial Bold';text-align:center;letter-spacing:-0.1px;word-spacing:0px;text-anchor:middle;fill:#000000;fill-opacity:1;stroke:none;stroke-width:1px;stroke-linecap:butt;stroke-linejoin:miter;stroke-opacity:1;"
     x="201.53851"
     y="193.54097"
     id="text18326-2"
     sodipodi:linespacing="120%"><tspan
       sodipodi:role="line"
       x="201.53851"
       y="193.54097"
       id="tspan18330-7">See Owner's Manual</tspan><tspan
       sodipodi:role="line"
       x="201.53851"
       y="208.54097"
       id="tspan18367">For Further Information.</tspan></text>
  <text
     xml:space="preserve"
     style="font-style:normal;font-variant:normal;font-weight:bold;font-stretch:normal;font-size:12.5px;line-height:120.00000477%;font-family:Arial;-inkscape-font-specification:'Arial Bold';text-align:center;letter-spacing:-0.1px;word-spacing:0px;text-anchor:middle;fill:#000000;fill-opacity:1;stroke:none;stroke-width:1px;stroke-linecap:butt;stroke-linejoin:miter;stroke-opacity:1;"
     x="201.18019"
     y="163.44096"
     id="text18326-3"
     sodipodi:linespacing="120%"><tspan
       sodipodi:role="line"
       x="201.18019"
       y="163.44096"
       id="tspan18330-4">Always Buckle Up.</tspan></text>
</svg>
