<?xml version="1.0" encoding="UTF-8" standalone="no"?>
<!-- Created with Inkscape (http://www.inkscape.org/) -->

<svg
   xmlns:dc="http://purl.org/dc/elements/1.1/"
   xmlns:cc="http://creativecommons.org/ns#"
   xmlns:rdf="http://www.w3.org/1999/02/22-rdf-syntax-ns#"
   xmlns:svg="http://www.w3.org/2000/svg"
   xmlns="http://www.w3.org/2000/svg"
   xmlns:sodipodi="http://sodipodi.sourceforge.net/DTD/sodipodi-0.dtd"
   xmlns:inkscape="http://www.inkscape.org/namespaces/inkscape"
   id="svg17783"
   version="1.1"
   inkscape:version="0.91 r13725"
   width="321"
   height="197"
   viewBox="0 0 321 197"
   sodipodi:docname="er11jn03.009.svg">
  <title id="title_er11jn03.009">Occupant crash protection</title>
  <desc id="desc_er11jn03.009">Sun visor label visible when visor is in the down position</desc>
  <metadata
     id="metadata17789">
    <rdf:RDF>
      <cc:Work
         rdf:about="">
        <dc:format>image/svg+xml</dc:format>
        <dc:type
           rdf:resource="http://purl.org/dc/dcmitype/StillImage" />
        <dc:title></dc:title>
      </cc:Work>
    </rdf:RDF>
  </metadata>
  <defs
     id="defs17787" />
  <sodipodi:namedview
     pagecolor="#ffffff"
     bordercolor="#666666"
     borderopacity="1"
     objecttolerance="10"
     gridtolerance="10"
     guidetolerance="10"
     inkscape:pageopacity="0"
     inkscape:pageshadow="2"
     inkscape:window-width="1897"
     inkscape:window-height="1151"
     id="namedview17785"
     showgrid="false"
     inkscape:zoom="1.6179749"
     inkscape:cx="160.5"
     inkscape:cy="98.5"
     inkscape:window-x="12"
     inkscape:window-y="7"
     inkscape:window-maximized="0"
     inkscape:current-layer="svg17783" />
  <path
     style="fill:#000000;fill-opacity:1;stroke:#000000;stroke-width:1;stroke-linecap:butt;stroke-linejoin:miter;stroke-miterlimit:4;stroke-dasharray:none;stroke-opacity:1"
     d="m 66.570598,50.225745 -3.08059,0 c -1.16408,0 -1.09555,4.43668 0.0447,4.43668 l 3.09918,0 c 0.96058,0 1.31101,-4.43668 -0.0633,-4.43668 z m -4.01535,-5.94988 1.21278,5.719 2.84721,0 1.16766,-5.67231 10e-4,-4.629294 c 5.8e-4,-2.240978 -5.22704,-2.3754 -5.22766,-0.0038 z m 16.87667,12.4569 -12.89098,-3.5e-4 -16.16975,-4.1e-4 14.52239,-25.372508 z"
     id="path14359-1-7-5-3-0-73-1-9-45-43"
     inkscape:connector-curvature="0"
     sodipodi:nodetypes="sssssccccsscccccc" />
  <path
     style="fill:none;stroke:#000000;stroke-width:2;stroke-linecap:butt;stroke-linejoin:miter;stroke-miterlimit:4;stroke-dasharray:none;stroke-opacity:1"
     d="m 302.68608,24.029569 -0.002,127.529521 -284.9274,0 0.002,-127.529521 z"
     id="path14359-1-7-5-3-0-73-1-9-6"
     inkscape:connector-curvature="0"
     sodipodi:nodetypes="ccccc" />
  <path
     style="fill:none;stroke:#000000;stroke-width:2;stroke-linecap:butt;stroke-linejoin:miter;stroke-miterlimit:4;stroke-dasharray:none;stroke-opacity:1"
     d="m 17.88192,64.321346 284.42788,0.002"
     id="path14359-1-7-5-3-0-73-1-9"
     inkscape:connector-curvature="0"
     sodipodi:nodetypes="cc" />
  <path
     style="fill:none;stroke:#000000;stroke-width:1;stroke-linecap:butt;stroke-linejoin:miter;stroke-miterlimit:4;stroke-dasharray:none;stroke-opacity:1"
     d="m 14.665728,151.5991 -4.6913899,0 0.002,-86.073148 4.6913899,0"
     id="path14359-1-7-5-3-0-73-1-9-0"
     inkscape:connector-curvature="0"
     sodipodi:nodetypes="cccc" />
  <text
     xml:space="preserve"
     style="font-style:normal;font-variant:normal;font-weight:bold;font-stretch:normal;font-size:35px;line-height:120.00000477%;font-family:Arial;-inkscape-font-specification:'Arial Bold';text-align:start;letter-spacing:1.13999999px;word-spacing:0px;text-anchor:start;fill:#000000;fill-opacity:1;stroke:none;stroke-width:1px;stroke-linecap:butt;stroke-linejoin:miter;stroke-opacity:1"
     x="81.672844"
     y="57.904064"
     id="text15551"
     sodipodi:linespacing="120%"><tspan
       sodipodi:role="line"
       id="tspan15553"
       x="81.672844"
       y="57.904064">WARNING</tspan></text>
  <text
     xml:space="preserve"
     style="font-style:normal;font-variant:normal;font-weight:normal;font-stretch:normal;font-size:7.5px;line-height:122.00000286%;font-family:Arial;-inkscape-font-specification:Arial;text-align:center;letter-spacing:0.25px;word-spacing:0px;text-anchor:middle;fill:#000000;fill-opacity:1;stroke:none;stroke-width:1px;stroke-linecap:butt;stroke-linejoin:miter;stroke-opacity:1"
     x="92.720604"
     y="7.3060412"
     id="text15555-9"
     sodipodi:linespacing="122%"><tspan
       sodipodi:role="line"
       x="92.845604"
       y="7.3060412"
       id="tspan15608">Bottom Text and Artwork Black with</tspan><tspan
       sodipodi:role="line"
       x="92.845604"
       y="16.456041"
       id="tspan16859">White Background</tspan></text>
  <text
     xml:space="preserve"
     style="font-style:normal;font-variant:normal;font-weight:normal;font-stretch:normal;font-size:7.5px;line-height:122.00000286%;font-family:Arial;-inkscape-font-specification:Arial;text-align:start;letter-spacing:0.25px;word-spacing:0px;text-anchor:start;fill:#000000;fill-opacity:1;stroke:none;stroke-width:1px;stroke-linecap:butt;stroke-linejoin:miter;stroke-opacity:1"
     x="220.34393"
     y="7.4080782"
     id="text15555-5"
     sodipodi:linespacing="122%"><tspan
       sodipodi:role="line"
       x="220.34393"
       y="7.4080782"
       id="tspan15612">Top Text Black With</tspan><tspan
       sodipodi:role="line"
       x="220.34393"
       y="16.558079"
       id="tspan15614">Yellow Background</tspan></text>
  <path
     style="fill:none;stroke:#000000;stroke-width:1;stroke-linecap:butt;stroke-linejoin:miter;stroke-miterlimit:4;stroke-dasharray:none;stroke-opacity:1"
     d="m 9.7704837,110.74394 -8.7183402,0 0.002,-106.3363105 24.6403585,0"
     id="path14359-1-7-5-3-0-73-1-9-0-8-7"
     inkscape:connector-curvature="0"
     sodipodi:nodetypes="cccc" />
  <text
     xml:space="preserve"
     style="font-style:normal;font-variant:normal;font-weight:bold;font-stretch:normal;font-size:10px;line-height:120.00000477%;font-family:Arial;-inkscape-font-specification:'Arial Bold';text-align:start;letter-spacing:0.89999998px;word-spacing:0px;text-anchor:start;fill:#000000;fill-opacity:1;stroke:none;stroke-width:1px;stroke-linecap:butt;stroke-linejoin:miter;stroke-opacity:1"
     x="66.149673"
     y="75.841637"
     id="text7876"
     sodipodi:linespacing="120%"><tspan
       sodipodi:role="line"
       id="tspan7878"
       x="66.149673"
       y="75.841637">EVEN WITH ADVANCED AIR BAGS</tspan></text>
  <text
     xml:space="preserve"
     style="font-style:normal;font-variant:normal;font-weight:normal;font-stretch:normal;font-size:7.5px;line-height:84%;font-family:Arial;-inkscape-font-specification:Arial;text-align:start;letter-spacing:-0.48px;word-spacing:0px;text-anchor:start;fill:#000000;fill-opacity:1;stroke:none;stroke-width:1px;stroke-linecap:butt;stroke-linejoin:miter;stroke-opacity:1;"
     x="146.6898"
     y="91.856827"
     id="text7880"
     sodipodi:linespacing="84%"><tspan
       sodipodi:role="line"
       id="tspan7882"
       x="146.6898"
       y="91.856827">Children can be seriously injured by the air bag</tspan><tspan
       sodipodi:role="line"
       x="146.6898"
       y="100.85683"
       id="tspan7892" /><tspan
       sodipodi:role="line"
       x="146.6898"
       y="109.85683"
       id="tspan7884">The back seat is the safest place for children</tspan><tspan
       sodipodi:role="line"
       x="146.6898"
       y="118.85683"
       id="tspan7894" /><tspan
       sodipodi:role="line"
       x="146.6898"
       y="127.85683"
       id="tspan7886">Always use seat belts and child restraints</tspan><tspan
       sodipodi:role="line"
       x="146.6898"
       y="136.85683"
       id="tspan7896" /><tspan
       sodipodi:role="line"
       x="146.6898"
       y="145.85683"
       id="tspan7888">See owrner's manual for more information about</tspan><tspan
       sodipodi:role="line"
       x="146.6898"
       y="154.85683"
       id="tspan7890">air bags</tspan></text>
  <text
     xml:space="preserve"
     style="font-style:normal;font-variant:normal;font-weight:normal;font-stretch:normal;font-size:10px;line-height:100%;font-family:Arial;-inkscape-font-specification:Arial;text-align:center;letter-spacing:-0.40000001px;word-spacing:0px;text-anchor:middle;fill:#000000;fill-opacity:1;stroke:none;stroke-width:1px;stroke-linecap:butt;stroke-linejoin:miter;stroke-opacity:1"
     x="161.03967"
     y="185.16269"
     id="text7898"
     sodipodi:linespacing="100%"><tspan
       sodipodi:role="line"
       id="tspan7900"
       x="160.83968"
       y="185.16269">Figure 8. Sun Visor Label Visible when Visor is in</tspan><tspan
       sodipodi:role="line"
       x="160.83968"
       y="195.16269"
       id="tspan7902">Down Position.</tspan></text>
  <path
     style="fill:#000000;fill-opacity:1;stroke:#000000;stroke-width:1;stroke-linecap:butt;stroke-linejoin:miter;stroke-miterlimit:4;stroke-dasharray:none;stroke-opacity:1"
     d="m 142.86815,90.785206 -3.35637,0 0.002,-3.597961 3.35637,0 z"
     id="path14359-1-7-5-3-0-73-1-9-0-8"
     inkscape:connector-curvature="0"
     sodipodi:nodetypes="ccccc" />
  <path
     style="fill:#000000;fill-opacity:1;stroke:#000000;stroke-width:1;stroke-linecap:butt;stroke-linejoin:miter;stroke-miterlimit:4;stroke-dasharray:none;stroke-opacity:1"
     d="m 142.86815,128.04244 -3.35637,0 0.002,-3.59796 3.35637,0 z"
     id="path14359-1-7-5-3-0-73-1-9-0-8-2"
     inkscape:connector-curvature="0"
     sodipodi:nodetypes="ccccc" />
  <path
     style="fill:#000000;fill-opacity:1;stroke:#000000;stroke-width:1;stroke-linecap:butt;stroke-linejoin:miter;stroke-miterlimit:4;stroke-dasharray:none;stroke-opacity:1"
     d="m 142.86815,115.05073 -3.35637,0 0.002,-3.59797 3.35637,0 z"
     id="path14359-1-7-5-3-0-73-1-9-0-8-9"
     inkscape:connector-curvature="0"
     sodipodi:nodetypes="ccccc" />
  <path
     style="fill:#000000;fill-opacity:1;stroke:#000000;stroke-width:1;stroke-linecap:butt;stroke-linejoin:miter;stroke-miterlimit:4;stroke-dasharray:none;stroke-opacity:1"
     d="m 142.86815,103.24007 -3.35637,0 0.002,-3.597956 3.35637,0 z"
     id="path14359-1-7-5-3-0-73-1-9-0-8-4"
     inkscape:connector-curvature="0"
     sodipodi:nodetypes="ccccc" />
  <path
     style="fill:#000000;fill-opacity:1;stroke:#000000;stroke-width:1;stroke-linecap:butt;stroke-linejoin:round;stroke-miterlimit:4;stroke-dasharray:none;stroke-opacity:1"
     d="m 128.48063,113.11807 -1.8532,-1.93265 0.002,-5.10114 1.8532,-8.48219 z"
     id="path14359-1-7-5-3-0-73-1-9-0-8-1"
     inkscape:connector-curvature="0"
     sodipodi:nodetypes="ccccc" />
  <path
     style="color:#000000;display:inline;overflow:visible;visibility:visible;fill:#000000;fill-rule:evenodd;stroke:#000000;stroke-width:1;stroke-linecap:butt;stroke-linejoin:round;stroke-miterlimit:4;stroke-dasharray:none;stroke-dashoffset:0;stroke-opacity:1;marker:none;enable-background:accumulate;fill-opacity:1"
     d="m 87.75274,94.469085 c -1.34486,-1.092429 -2.144919,-2.81868 -2.144919,-4.686356 0,-3.290602 2.66756,-5.958162 5.958162,-5.958162 3.290602,0 5.958162,2.66756 5.958162,5.958162 0,2.99879 -2.215418,5.480141 -5.098851,5.896652 z"
     id="path7943"
     inkscape:connector-curvature="0"
     sodipodi:nodetypes="cssscc" />
  <path
     style="color:#000000;display:inline;overflow:visible;visibility:visible;fill:#000000;fill-rule:evenodd;stroke:#000000;stroke-width:1;stroke-linecap:round;stroke-linejoin:round;stroke-miterlimit:4;stroke-dasharray:none;stroke-dashoffset:0;stroke-opacity:1;marker:none;enable-background:accumulate;fill-opacity:1"
     d="m 89.75778,102.35119 c -0.746319,-0.88984 -0.720895,-2.31005 -0.138077,-2.689441 0.934531,-0.608344 3.094872,0.196147 4.021263,1.296241 l 7.588504,9.01135 c 0.80422,0.95501 1.64411,1.30427 2.93461,1.30427 l 12.12383,0 c 1.03138,0 1.86748,0.8361 1.86748,1.86749 0,1.03138 -0.8361,1.86748 -1.86748,1.86748 l -14.93987,0 c -1.03139,0 -1.758141,-0.93447 -2.34177,-1.63034 z"
     id="path7946"
     inkscape:connector-curvature="0"
     sodipodi:nodetypes="sssssssssss" />
  <path
     inkscape:connector-curvature="0"
     style="color:#000000;display:inline;overflow:visible;visibility:visible;fill:#000000;fill-rule:evenodd;stroke:#000000;stroke-width:1;stroke-linecap:round;stroke-linejoin:round;stroke-miterlimit:4;stroke-dasharray:none;stroke-dashoffset:0;stroke-opacity:1;marker:none;enable-background:accumulate;fill-opacity:1"
     d="m 104.58599,117.69077 12.0203,-0.0477 c 1.48004,-0.006 3.2,1.1722 3.63286,2.68081 l 5.81883,20.2797 c 0.53376,1.86027 -0.64093,3.78554 -2.51455,4.27041 -1.8736,0.48486 -3.73664,-0.65428 -4.2704,-2.51455 l -4.33719,-15.11591 c -0.47508,-1.65575 -1.42439,-2.87893 -3.79376,-2.85167 l -12.413364,0.14283 z"
     id="path7946-1"
     sodipodi:nodetypes="cssssssscc" />
  <path
     inkscape:connector-curvature="0"
     style="color:#000000;display:inline;overflow:visible;visibility:visible;fill:#000000;fill-rule:evenodd;stroke:#000000;stroke-width:1;stroke-linecap:round;stroke-linejoin:round;stroke-miterlimit:4;stroke-dasharray:none;stroke-dashoffset:0;stroke-opacity:1;marker:none;enable-background:accumulate;fill-opacity:1"
     d="m 76.844317,124.36819 c 0.233265,0.88603 -0.290823,1.79423 -1.176191,2.03002 -0.885369,0.23577 -1.782643,-0.294 -2.030014,-1.1762 l -2.056568,-7.33434 c -0.249224,-0.88881 -1.014735,-1.94394 -2.263106,-2.81669 -0.806049,-0.56351 -1.813915,-0.55533 -3.600724,-0.53955 0,0 6.37252,6.6e-4 6.823105,-0.006 1.226239,-0.0189 1.886637,0.66284 2.184955,1.79597 z"
     id="path7946-7"
     sodipodi:nodetypes="sssssssss" />
  <path
     inkscape:connector-curvature="0"
     style="color:#000000;display:inline;overflow:visible;visibility:visible;fill:#000000;fill-rule:evenodd;stroke:#000000;stroke-width:1;stroke-linecap:round;stroke-linejoin:round;stroke-miterlimit:4;stroke-dasharray:none;stroke-dashoffset:0;stroke-opacity:1;marker:none;enable-background:accumulate;fill-opacity:1"
     d="m 66.375544,112.5389 c -0.785665,0 -1.286403,-0.54642 -1.656407,-0.9985 l -5.25471,-6.4204 c -0.650186,-0.79442 -0.215945,-1.75892 0.490556,-1.79762 0.775793,-0.0425 0.997731,0.20399 1.375907,0.65695 l 4.864949,5.82696 c 0.155908,0.18674 0.501573,0.61704 1.093116,0.61704 l 3.764348,0 c 0.584196,0 1.057781,0.47358 1.057783,1.05778 3e-6,0.5842 -0.473583,1.05779 -1.057783,1.05779 z"
     id="path7946-76"
     sodipodi:nodetypes="sssssssssss" />
  <path
     inkscape:connector-curvature="0"
     style="color:#000000;display:inline;overflow:visible;visibility:visible;fill:#000000;fill-rule:evenodd;stroke:#000000;stroke-width:1;stroke-linecap:round;stroke-linejoin:round;stroke-miterlimit:4;stroke-dasharray:none;stroke-dashoffset:0;stroke-opacity:1;marker:none;enable-background:accumulate;fill-opacity:1"
     d="m 61.613685,98.645873 c -3e-6,1.547927 -1.254846,2.802767 -2.802772,2.802767 -0.46861,0 -0.910359,-0.115 -1.298564,-0.31833 0.113722,-1.06115 -0.733499,-2.116542 -1.682065,-2.484437 -3e-6,-1.547932 1.432697,-2.802782 2.980629,-2.802782 1.547932,0 2.802777,1.25485 2.802772,2.802782 z"
     id="path7946-9"
     sodipodi:nodetypes="ssccss" />
  <path
     style="fill:#000000;stroke:#000000;stroke-width:1;stroke-linecap:round;stroke-linejoin:round;stroke-miterlimit:4;stroke-dasharray:none;stroke-opacity:1;fill-opacity:1"
     d="m 86.341494,138.16371 7.470736,-8.19461 c 3.837651,-2.1045 8.29499,-3.23161 12.5062,-3.30575 4.23142,-0.0745 7.87287,2.04678 8.08173,6.7757 0.10293,2.33056 -1.0855,3.7678 -2.27356,4.72573 z"
     id="path14359-1-7-5-3-0-73-1-9-2"
     inkscape:connector-curvature="0"
     sodipodi:nodetypes="ccsscc" />
  <path
     style="fill:#000000;fill-opacity:1;stroke:#000000;stroke-width:1;stroke-linecap:round;stroke-linejoin:round;stroke-miterlimit:4;stroke-dasharray:none;stroke-opacity:1"
     d="m 45.846182,138.11863 7.470736,-8.19461 c 3.837651,-2.1045 8.29499,-3.23161 12.5062,-3.30575 4.23142,-0.0745 7.87287,2.04678 8.08173,6.7757 0.10293,2.33056 -1.0855,3.7678 -2.27356,4.72573 z"
     id="path14359-1-7-5-3-0-73-1-9-2-1"
     inkscape:connector-curvature="0"
     sodipodi:nodetypes="ccsscc" />
  <path
     style="fill:#000000;stroke:#000000;stroke-width:1;stroke-linecap:round;stroke-linejoin:round;stroke-miterlimit:4;stroke-dasharray:none;stroke-opacity:1;fill-opacity:1"
     d="m 100.74456,117.64821 -14.970378,14.43607 -0.07153,3.26348 16.104105,-17.84445 z"
     id="path14359-1-7-5-3-0-73-1-9-2-7-5"
     inkscape:connector-curvature="0"
     sodipodi:nodetypes="ccccc" />
  <path
     style="fill:#000000;fill-opacity:1;stroke:#000000;stroke-width:1;stroke-linecap:round;stroke-linejoin:round;stroke-miterlimit:4;stroke-dasharray:none;stroke-opacity:1"
     d="m 45.583874,131.92544 -0.07153,2.41213 16.211524,-17.98484 z"
     id="path14359-1-7-5-3-0-73-1-9-2-7-5-2"
     inkscape:connector-curvature="0"
     sodipodi:nodetypes="cccc" />
  <path
     style="fill:#000000;stroke:#000000;stroke-width:1;stroke-linecap:round;stroke-linejoin:round;stroke-miterlimit:4;stroke-dasharray:none;stroke-opacity:1;fill-opacity:1"
     d="m 93.6649,120.96598 c -0.969362,-7.42037 -7.583872,-16.46865 -5.884399,-19.63205 0.34761,1.54293 0.716675,2.90703 1.824712,4.32086 l 8.619763,10.99868 z"
     id="path14359-1-7-5-3-0-73-1-9-2-7-8"
     inkscape:connector-curvature="0"
     sodipodi:nodetypes="ccscc" />
  <path
     style="fill:#000000;stroke:#000000;stroke-width:1;stroke-linecap:round;stroke-linejoin:round;stroke-miterlimit:4;stroke-dasharray:none;stroke-opacity:1;fill-opacity:1"
     d="m 72.437042,93.52651 c 6.770187,1.16484 13.55179,2.30685 20.138501,3.838644 1.571292,0.365418 3.296572,1.013848 3.746747,2.262937 l 0.983474,2.799769 -1.233946,-2.632044 C 95.585684,98.758879 93.723639,97.81233 91.867105,97.630028 85.64913,97.019457 80.372283,95.735619 73.641127,94.942425 72.985726,94.865193 72.480521,94.356364 72.437042,93.52651 Z"
     id="path14359-1-7-5-3-0-73-1-9-2-7-4"
     inkscape:connector-curvature="0"
     sodipodi:nodetypes="csscsssc" />
  <path
     style="fill:none;stroke:#000000;stroke-width:1;stroke-linecap:round;stroke-linejoin:round;stroke-miterlimit:4;stroke-dasharray:none;stroke-opacity:1"
     d="m 78.538412,92.675156 c -1.97468,-0.823 -3.982932,-1.442688 -6.173085,-0.960763 0.451483,-0.723994 1.061587,-1.213748 2.269046,-1.028738 1.772771,0.271629 2.779726,1.169517 3.904039,1.989501 z"
     id="path14359-1-7-5-3-0-73-1-9-2-7-54"
     inkscape:connector-curvature="0"
     sodipodi:nodetypes="ccsc" />
  <path
     style="fill:#000000;stroke:#000000;stroke-width:1;stroke-linecap:round;stroke-linejoin:round;stroke-miterlimit:4;stroke-dasharray:none;stroke-opacity:1;fill-opacity:1"
     d="m 76.025761,101.06696 c -0.876895,0.93227 0.220459,3.04557 0.762195,5.02 2.03191,7.40558 4.724636,14.48074 7.502525,21.51332 0.592155,1.49912 1.225227,1.46109 1.688267,0.98553 l 3.458242,-3.55172 c 0.65507,-10.247 -0.26023,-16.43388 -9.206562,-24.53495 -0.12361,-0.757958 -0.04513,-1.403628 0.207479,-1.952544 -1.831841,-1.068008 -4.900564,-1.176298 -7.044092,-1.970899 0.725249,1.595877 3.281692,3.800483 2.631946,4.491263 z"
     id="path14359-1-7-5-3-0-73-1-9-2-7-1"
     inkscape:connector-curvature="0"
     sodipodi:nodetypes="ssssccccs" />
  <path
     style="fill:#000000;stroke:#000000;stroke-width:1;stroke-linecap:round;stroke-linejoin:round;stroke-miterlimit:4;stroke-dasharray:none;stroke-opacity:1;fill-opacity:1"
     d="m 63.852555,116.79685 -8.089863,8.79432 c 4.417943,-0.92923 8.874213,-1.59017 13.479772,-1.20609 0.879028,-1.08076 0.9057,-2.30241 0.782408,-3.75713 -0.104957,-1.2384 -0.02775,-2.73884 -1.50935,-3.6964 -1.301869,-0.84141 -3.843645,-1.00515 -4.662967,-0.1347 z"
     id="path14359-1-7-5-3-0-73-1-9-2-7-50"
     inkscape:connector-curvature="0"
     sodipodi:nodetypes="sccsss" />
  <path
     style="fill:none;stroke:#000000;stroke-width:1;stroke-linecap:round;stroke-linejoin:round;stroke-miterlimit:4;stroke-dasharray:none;stroke-opacity:1"
     d="m 105.21417,110.97927 c -1.46288,-3.32651 -3.06062,-6.79977 -2.79834,-10.50961 0.50666,-7.166478 3.52299,-15.782615 10.59838,-16.086139 3.54974,-0.152278 5.37743,2.23267 6.53171,4.112721 2.61101,4.252726 5.21641,8.500882 7.94335,12.547558"
     id="path14359-1-7-5-3-0-73-1-9-2-7-87"
     inkscape:connector-curvature="0"
     sodipodi:nodetypes="csssc" />
  <path
     style="fill:none;stroke:#000000;stroke-width:1;stroke-linecap:round;stroke-linejoin:round;stroke-miterlimit:4;stroke-dasharray:none;stroke-opacity:1"
     d="m 126.49802,105.37452 c -2.62567,1.91455 -6.46049,6.15793 -8.3027,6.80782"
     id="path14359-1-7-5-3-0-73-1-9-2-7-7"
     inkscape:connector-curvature="0"
     sodipodi:nodetypes="cc" />
  <path
     style="fill:none;stroke:#000000;stroke-width:1;stroke-linecap:round;stroke-linejoin:round;stroke-miterlimit:4;stroke-dasharray:none;stroke-opacity:1"
     d="m 110.3223,95.158274 -3.69022,2.304262 2.90781,4.077884"
     id="path14359-1-7-5-3-0-73-1-9-2-7-80"
     inkscape:connector-curvature="0"
     sodipodi:nodetypes="ccc" />
  <path
     style="fill:none;stroke:#000000;stroke-width:1;stroke-linecap:round;stroke-linejoin:round;stroke-miterlimit:4;stroke-dasharray:none;stroke-opacity:1"
     d="M 118.41016,100.76302 106.70204,97.496489"
     id="path14359-1-7-5-3-0-73-1-9-2-7-44"
     inkscape:connector-curvature="0"
     sodipodi:nodetypes="cc" />
  <path
     style="fill:none;stroke:#000000;stroke-width:1;stroke-linecap:round;stroke-linejoin:round;stroke-miterlimit:4;stroke-dasharray:none;stroke-opacity:1"
     d="m 118.61907,90.368402 -4.61252,-1.526831 -0.78139,4.361669"
     id="path14359-1-7-5-3-0-73-1-9-2-7-80-8"
     inkscape:connector-curvature="0"
     sodipodi:nodetypes="ccc" />
  <path
     style="fill:none;stroke:#000000;stroke-width:1;stroke-linecap:round;stroke-linejoin:round;stroke-miterlimit:4;stroke-dasharray:none;stroke-opacity:1"
     d="M 120.60556,98.881941 114.07651,88.875524"
     id="path14359-1-7-5-3-0-73-1-9-2-7-44-4"
     inkscape:connector-curvature="0"
     sodipodi:nodetypes="cc" />
  <path
     style="fill:none;stroke:#000000;stroke-width:1;stroke-linecap:round;stroke-linejoin:round;stroke-miterlimit:4;stroke-dasharray:none;stroke-opacity:1"
     d="m 112.58865,103.56439 -0.072,4.71643 3.97201,0.1049"
     id="path14359-1-7-5-3-0-73-1-9-2-7-80-5"
     inkscape:connector-curvature="0"
     sodipodi:nodetypes="ccc" />
  <path
     style="fill:none;stroke:#000000;stroke-width:1;stroke-linecap:round;stroke-linejoin:round;stroke-miterlimit:4;stroke-dasharray:none;stroke-opacity:1"
     d="m 118.83191,103.42249 -6.24527,4.89228"
     id="path14359-1-7-5-3-0-73-1-9-2-7-44-8"
     inkscape:connector-curvature="0"
     sodipodi:nodetypes="cc" />
  <path
     style="fill:#000000;stroke:#000000;stroke-width:1;stroke-linecap:round;stroke-linejoin:round;stroke-miterlimit:4;stroke-dasharray:none;stroke-opacity:1;fill-opacity:1"
     d="m 62.54278,112.04974 c -1.134646,-1.31007 -2.628831,-3.15945 -4.052344,-4.90281 1.00742,1.96273 2.01484,3.86559 3.02226,5.96908 0.563178,1.17591 1.770829,-0.211 1.030084,-1.06627 z"
     id="path14359-1-7-5-3-0-73-1-9-2-7-57"
     inkscape:connector-curvature="0"
     sodipodi:nodetypes="scss" />
  <path
     style="fill:#000000;stroke:#000000;stroke-width:1;stroke-linecap:round;stroke-linejoin:round;stroke-miterlimit:4;stroke-dasharray:none;stroke-opacity:1;fill-opacity:1"
     d="m 52.724923,122.47864 c -1.10269,-5.76149 -3.346379,-15.52907 -4.159686,-20.7856 -0.122657,-0.79275 0.469535,-1.52781 1.214928,-1.710712 0.734569,-0.180248 1.886927,-0.492479 2.864761,-0.43303 2.008248,0.122095 3.349765,2.305912 3.707478,4.372072 0.345714,1.99685 -0.255212,3.46244 0.510877,5.24971 1.080506,1.98767 2.47651,4.40234 3.479541,6.18191 z"
     id="path14359-1-7-5-3-0-73-1-9-2-7-56"
     inkscape:connector-curvature="0"
     sodipodi:nodetypes="cssssccc" />
  <path
     style="fill:#000000;stroke:#000000;stroke-width:1;stroke-linecap:round;stroke-linejoin:round;stroke-miterlimit:4;stroke-dasharray:none;stroke-opacity:1;fill-opacity:1"
     d="m 35.669967,101.73198 c -0.756637,0.0564 -0.312938,1.00374 -0.0035,0.96976 3.640384,-0.39978 7.505789,-0.79955 11.282697,-1.19932 -3.721208,5.2e-4 -7.412181,-0.0587 -11.279204,0.22956 z"
     id="path14359-1-7-5-3-0-73-1-9-2-7-10"
     inkscape:connector-curvature="0"
     sodipodi:nodetypes="sscs" />
  <path
     style="fill:#000000;stroke:#000000;stroke-width:1;stroke-linecap:round;stroke-linejoin:round;stroke-miterlimit:4;stroke-dasharray:none;stroke-opacity:1;fill-opacity:1"
     d="m 49.291918,124.38675 c 0.0084,-3.91052 -0.487046,-8.66525 -1.635694,-12.931 -0.584634,-2.17117 -1.954368,-4.05355 -3.240377,-6.08709 -0.504491,-0.79775 -1.399533,-1.65675 -2.256259,-1.44016 -2.021331,0.51102 -4.118008,0.60642 -6.282104,0.54637 2.298976,7.73154 4.563669,15.46764 7.845921,22.56195 0.319208,0.68994 0.959601,1.93539 1.454177,1.44333 z"
     id="path14359-1-7-5-3-0-73-1-9-2-7-72"
     inkscape:connector-curvature="0"
     sodipodi:nodetypes="cssscssc" />
  <path
     style="fill:#000000;stroke:#000000;stroke-width:1;stroke-linecap:round;stroke-linejoin:round;stroke-miterlimit:4;stroke-dasharray:none;stroke-opacity:1;fill-opacity:1"
     d="m 31.79759,92.66546 c 0.928783,2.868588 1.883371,5.239649 3.247259,7.039726 1.416842,-0.130411 2.560749,-0.09195 3.67798,-0.10496 1.054068,-0.01228 2.390752,-1.822959 2.386152,-3.058661 -0.01063,-2.854988 -5.661117,-6.07915 -7.182207,-5.891149 -0.916596,0.113288 -1.949661,1.172016 -2.129184,2.015044 z"
     id="path14359-1-7-5-3-0-73-1-9-2-7-505"
     inkscape:connector-curvature="0"
     sodipodi:nodetypes="ccsssc" />
  <path
     style="fill:none;stroke:#000000;stroke-width:1;stroke-linecap:butt;stroke-linejoin:miter;stroke-miterlimit:4;stroke-dasharray:none;stroke-opacity:1"
     d="m 305.69108,65.627731 4.69139,0 -0.002,-41.058854 -4.69139,0"
     id="path14359-1-7-5-3-0-73-1-9-0-80"
     inkscape:connector-curvature="0"
     sodipodi:nodetypes="cccc" />
  <path
     style="fill:none;stroke:#000000;stroke-width:1;stroke-linecap:butt;stroke-linejoin:miter;stroke-miterlimit:4;stroke-dasharray:none;stroke-opacity:1"
     d="m 310.58633,45.313073 8.71834,0 -0.002,-41.0000265 -24.64036,0"
     id="path14359-1-7-5-3-0-73-1-9-0-8-7-1"
     inkscape:connector-curvature="0"
     sodipodi:nodetypes="cccc" />
</svg>
