<?xml version="1.0" encoding="UTF-8" standalone="no"?>
<!-- Created with Inkscape (http://www.inkscape.org/) -->

<svg
   xmlns:dc="http://purl.org/dc/elements/1.1/"
   xmlns:cc="http://creativecommons.org/ns#"
   xmlns:rdf="http://www.w3.org/1999/02/22-rdf-syntax-ns#"
   xmlns:svg="http://www.w3.org/2000/svg"
   xmlns="http://www.w3.org/2000/svg"
   xmlns:sodipodi="http://sodipodi.sourceforge.net/DTD/sodipodi-0.dtd"
   xmlns:inkscape="http://www.inkscape.org/namespaces/inkscape"
   id="svg10246"
   version="1.1"
   inkscape:version="0.92.2 5c3e80d, 2017-08-06"
   width="413.44"
   height="319.35999"
   viewBox="0 0 387.60001 299.39999"
   sodipodi:docname="er18ja07.006.svg">
  <metadata
     id="metadata10252">
    <rdf:RDF>
      <cc:Work
         rdf:about="">
        <dc:format>image/svg+xml</dc:format>
        <dc:type
           rdf:resource="http://purl.org/dc/dcmitype/StillImage" />
        <dc:title></dc:title>
      </cc:Work>
    </rdf:RDF>
  </metadata>
  <defs
     id="defs10250" />
  <sodipodi:namedview
     pagecolor="#ffffff"
     bordercolor="#666666"
     borderopacity="1"
     objecttolerance="10"
     gridtolerance="10"
     guidetolerance="10"
     inkscape:pageopacity="0"
     inkscape:pageshadow="2"
     inkscape:window-width="1280"
     inkscape:window-height="756"
     id="namedview10248"
     showgrid="false"
     inkscape:zoom="1.1206485"
     inkscape:cx="37.638089"
     inkscape:cy="149.7"
     inkscape:window-x="4"
     inkscape:window-y="0"
     inkscape:window-maximized="0"
     inkscape:current-layer="svg10246" />
  <path
     style="fill:none;stroke:#000000;stroke-width:1;stroke-linecap:butt;stroke-linejoin:miter;stroke-miterlimit:4;stroke-dasharray:none;stroke-opacity:1"
     d="m 369.67781,55.178204 -0.002,241.964836 H 13.654145 l 0.0025,-241.964836 z"
     id="path14359-1-7-5-3-0-73-1-9-4"
     inkscape:connector-curvature="0"
     sodipodi:nodetypes="ccccc" />
  <path
     style="fill:none;stroke:#000000;stroke-width:2;stroke-linecap:butt;stroke-linejoin:miter;stroke-miterlimit:4;stroke-dasharray:none;stroke-opacity:1"
     d="m 19.70505,60.651031 -0.0025,230.731119 h 345.07603 l 0.002,-230.731119 z"
     id="path14359-1-7-5-3-0-73-1-9-0"
     inkscape:connector-curvature="0"
     sodipodi:nodetypes="ccccc" />
  <path
     style="fill:none;stroke:#000000;stroke-width:2;stroke-linecap:butt;stroke-linejoin:miter;stroke-miterlimit:4;stroke-dasharray:none;stroke-opacity:1"
     d="m 196.8077,162.90643 -0.003,128.47573"
     id="path14359-1-7-5-3-0-73-1-9"
     inkscape:connector-curvature="0"
     sodipodi:nodetypes="cc" />
  <path
     style="fill:none;stroke:#000000;stroke-width:2;stroke-linecap:butt;stroke-linejoin:miter;stroke-miterlimit:4;stroke-dasharray:none;stroke-opacity:1"
     d="m 364.2078,163.20003 -345.084376,-0.002"
     id="path14359-1-7-5-3-0-73-1-9-8"
     inkscape:connector-curvature="0"
     sodipodi:nodetypes="cc" />
  <path
     style="fill:#000000;fill-opacity:1;stroke:#000000;stroke-width:1;stroke-linecap:butt;stroke-linejoin:miter;stroke-miterlimit:4;stroke-dasharray:none;stroke-opacity:1"
     d="m 148.98933,78.508212 h -1.10477 c -0.41746,0 -0.39288,2.328808 0.016,2.328808 h 1.11142 c 0.34448,0 0.47017,-2.328808 -0.0226,-2.328808 z m -1.44,-3.123086 c -1.3e-4,1.011079 0.43492,3.001899 0.43492,3.001899 h 1.0211 l 0.41873,-2.977395 3.8e-4,-2.429911 c 1.7e-4,-1.176288 -1.87461,-1.246846 -1.87479,-0.0019 z"
     id="path14359-1-7-5-3-0-73-1-9-45-43"
     inkscape:connector-curvature="0"
     sodipodi:nodetypes="csssscsccssss" />
  <path
     style="fill:#000000;fill-opacity:1;stroke:#000000;stroke-width:1;stroke-linecap:butt;stroke-linejoin:miter;stroke-miterlimit:4;stroke-dasharray:none;stroke-opacity:1"
     d="m 364.62187,91.191985 0.002,-30.491217 H 19.704312 l -0.0025,30.491217 z M 147.12377,68.991746 c 0.5553,-1.126381 1.97443,-1.377457 2.59472,-0.151658 l 6.04025,11.936667 c 0.57134,1.129083 0.0225,1.936648 -0.87506,1.941162 l -12.64041,0.06358 c -0.89697,0.0045 -1.53004,-0.786604 -1.0373,-1.786084 z"
     id="path14359-1-7-5-3-0-73-1-9-45-43-8"
     inkscape:connector-curvature="0"
     sodipodi:nodetypes="cccccsssssss" />
  <text
     xml:space="preserve"
     style="font-style:normal;font-variant:normal;font-weight:bold;font-stretch:normal;line-height:0%;font-family:Arial;-inkscape-font-specification:'Arial Bold';text-align:start;letter-spacing:0.1px;word-spacing:0px;text-anchor:start;fill:#ffffff;fill-opacity:1;stroke:none;stroke-width:1px;stroke-linecap:butt;stroke-linejoin:miter;stroke-opacity:1"
     x="160.32321"
     y="82.082687"
     id="text21301"><tspan
       sodipodi:role="line"
       id="tspan21303"
       x="160.32321"
       y="82.082687"
       style="font-size:18.75px;line-height:1.20000005">DANGER</tspan></text>
  <text
     xml:space="preserve"
     style="font-style:normal;font-variant:normal;font-weight:bold;font-stretch:normal;line-height:0%;font-family:Arial;-inkscape-font-specification:'Arial Bold';text-align:start;letter-spacing:0.03px;word-spacing:0px;text-anchor:start;fill:#000000;fill-opacity:1;stroke:none;stroke-width:1px;stroke-linecap:butt;stroke-linejoin:miter;stroke-opacity:1"
     x="27.492897"
     y="112.31796"
     id="text21324"><tspan
       sodipodi:role="line"
       id="tspan21326"
       x="27.492897"
       y="112.31796"
       style="font-size:12.5px;line-height:0.98000002">Using a generator indoors CAN KILL YOU IN MINUTES.</tspan><tspan
       sodipodi:role="line"
       x="27.492897"
       y="124.56796"
       id="tspan21328"
       style="font-size:12.5px;line-height:0.98000002"> </tspan><tspan
       sodipodi:role="line"
       x="27.492897"
       y="136.81796"
       id="tspan21332"
       style="font-size:12.5px;line-height:0.98000002">Generator exhaust contains carbon monoxide.  This is</tspan><tspan
       sodipodi:role="line"
       x="27.492897"
       y="149.06796"
       id="tspan13401"
       style="font-size:12.5px;line-height:0.98000002">a poison you cannot see or smell.</tspan></text>
  <text
     xml:space="preserve"
     style="font-style:normal;font-variant:normal;font-weight:bold;font-stretch:normal;line-height:0%;font-family:Arial;-inkscape-font-specification:'Arial Bold';text-align:start;letter-spacing:0px;word-spacing:0px;text-anchor:start;fill:#000000;fill-opacity:1;stroke:none;stroke-width:1px;stroke-linecap:butt;stroke-linejoin:miter;stroke-opacity:1"
     x="28.287991"
     y="249.77621"
     id="text21334"><tspan
       sodipodi:role="line"
       x="28.287991"
       y="249.77621"
       id="tspan21340"
       style="font-size:12.5px;line-height:1.14999998">NEVER use inside a home</tspan><tspan
       sodipodi:role="line"
       x="28.287991"
       y="264.15121"
       id="tspan13408"
       style="font-size:12.5px;line-height:1.14999998">or garage, EVEN IF doors</tspan><tspan
       sodipodi:role="line"
       x="28.287991"
       y="278.52621"
       id="tspan13410"
       style="font-size:12.5px;line-height:1.14999998">and windows are open.</tspan></text>
  <text
     xml:space="preserve"
     style="font-style:normal;font-variant:normal;font-weight:bold;font-stretch:normal;line-height:0%;font-family:Arial;-inkscape-font-specification:'Arial Bold';text-align:start;letter-spacing:0px;word-spacing:0px;text-anchor:start;fill:#000000;fill-opacity:1;stroke:none;stroke-width:1px;stroke-linecap:butt;stroke-linejoin:miter;stroke-opacity:1"
     x="207.91116"
     y="249.51627"
     id="text21334-9"><tspan
       sodipodi:role="line"
       x="207.91116"
       y="249.51627"
       id="tspan21340-3"
       style="font-size:12.5px;line-height:1.14999998">Only use OUTSIDE and</tspan><tspan
       sodipodi:role="line"
       x="207.91116"
       y="263.89127"
       id="tspan21371"
       style="font-size:12.5px;line-height:1.14999998">far away from windows,</tspan><tspan
       sodipodi:role="line"
       x="207.91116"
       y="278.26627"
       id="tspan21373"
       style="font-size:12.5px;line-height:1.14999998">doors, and vents.</tspan></text>
  <text
     xml:space="preserve"
     style="font-style:normal;font-variant:normal;font-weight:normal;font-stretch:normal;line-height:0%;font-family:Arial;-inkscape-font-specification:Arial;text-align:start;letter-spacing:-0.02px;word-spacing:0px;text-anchor:start;fill:#000000;fill-opacity:1;stroke:none;stroke-width:1px;stroke-linecap:butt;stroke-linejoin:miter;stroke-opacity:1"
     x="5.1550817"
     y="16.650536"
     id="text21394"><tspan
       sodipodi:role="line"
       id="tspan21396"
       x="5.1550817"
       y="16.650536"
       style="font-size:13.75px;line-height:1.20000005">Figure 1  On-product carbon monoxide poisoning hazard label</tspan></text>
  <path
     style="fill:none;stroke:#000000;stroke-width:1;stroke-linecap:butt;stroke-linejoin:round;stroke-miterlimit:4;stroke-dasharray:none;stroke-opacity:1"
     d="m 65.952252,208.22516 -0.03723,-4.8146 8.203598,3.83339 -0.0012,15.38436 -1.519845,-1.64595"
     id="path14359-1-7-5-3-0-73-1-9-5"
     inkscape:connector-curvature="0"
     sodipodi:nodetypes="ccccc" />
  <path
     style="fill:#000000;fill-opacity:1;stroke:#000000;stroke-width:1;stroke-linecap:butt;stroke-linejoin:round;stroke-miterlimit:4;stroke-dasharray:none;stroke-opacity:1"
     d="m 65.382466,225.03402 -4.078105,-0.006 c -0.834962,-0.001 -0.923667,1.98891 -2.107778,1.96077 l -2.838138,-0.0675 c 1.54214,-0.21437 2.425414,-1.02954 2.49722,-2.17757 0.09068,-1.45124 -1.017106,-1.88436 -1.950329,-1.83587 -1.259289,0.0655 -1.338426,0.74658 -1.623438,1.5185 -0.317748,0.86054 0.533402,1.63919 1.007913,2.4402 l -2.20088,-2.52953 -0.02423,-2.37498 c -0.01001,-0.97863 -2.387608,-0.67911 -2.387608,-0.67911 1.379994,-0.72234 2.370758,-0.9806 2.361528,-1.88467 l -0.02523,-2.47069 c -0.01511,-1.47614 -1.789994,-2.42985 -1.773482,-3.70076 l 0.03672,-2.82553 c 0.03597,-2.7692 -3.138199,-3.00656 -3.128332,-0.0242 l 0.0261,7.89211 1.635416,3.24298 -2.58535,-2.9684 0.0632,-11.2836 c 1.315645,-1.73484 2.338047,0.29552 5.244118,-0.0158 1.147728,-0.1229 1.247499,2.07321 1.254955,3.22749 l 0.01001,1.54684 c 0.0075,1.0765 1.085977,1.24768 2.44335,1.29837 -0.816302,0.12054 -2.082986,-0.37835 -2.020748,0.89673 0.117532,2.40824 2.993328,2.62689 3.133716,0.0131 l 5.277429,0.0394 c 2.131785,0.016 1.969713,-2.71012 0.04159,-2.73564 l -4.556701,-0.0604 4.513673,0.0485 c 2.019337,0.0217 2.239225,-3.00969 -0.05183,-3.00977 l -9.401548,-3.8e-4 5.033161,-9.8e-4 -7.5e-5,-1.33052 6.458668,-0.006 0.189037,1.039 c 1.239268,0.20099 2.381025,-0.44384 2.008009,-1.25034 -0.490287,-1.06003 -0.491586,-2.25651 0.362775,-1.98875 2.323732,0.72829 -0.722665,2.44194 1.618879,3.22092 l -4.38e-4,4.17744 3.039053,2.18525 -0.0012,7.88284 c -2.194686,0.0883 -3.150478,0.7459 -4.464673,1.8547 -0.98121,0.82788 -1.962407,0.64434 -2.943617,0.77206 1.037452,-0.39159 1.984627,-0.63472 2.00486,-2.50371 0.01462,-1.33509 -0.679673,-1.73726 -1.706159,-2.05656 -1.289616,1.90311 -2.863281,2.10194 -4.395354,2.55032 0.930688,0.90206 1.839917,1.81697 4.004351,1.97877 z"
     id="path14359-1-7-5-3-0-73-1-9-5-4"
     inkscape:connector-curvature="0"
     sodipodi:nodetypes="csscsssccsssssssccccssscscsscsscccccssccccscscccc" />
  <path
     style="fill:none;stroke:#000000;stroke-width:2;stroke-linecap:butt;stroke-linejoin:miter;stroke-miterlimit:4;stroke-dasharray:none;stroke-opacity:1"
     d="m 274.34079,227.74821 -65.84025,0.002"
     id="path14359-1-7-5-3-0-73-1-9-5-7"
     inkscape:connector-curvature="0"
     sodipodi:nodetypes="cc" />
  <path
     style="fill:none;stroke:#000000;stroke-width:1;stroke-linecap:butt;stroke-linejoin:round;stroke-miterlimit:4;stroke-dasharray:none;stroke-opacity:1"
     d="m 316.76747,208.15134 -0.0372,-4.81459 8.2036,3.8334 -0.001,15.38435 -1.51986,-1.64595"
     id="path14359-1-7-5-3-0-73-1-9-5-5"
     inkscape:connector-curvature="0"
     sodipodi:nodetypes="ccccc" />
  <path
     style="fill:#000000;fill-opacity:1;stroke:#000000;stroke-width:1;stroke-linecap:butt;stroke-linejoin:round;stroke-miterlimit:4;stroke-dasharray:none;stroke-opacity:1"
     d="m 316.19769,224.9602 -4.0781,-0.006 c -0.83498,-10e-4 -0.92366,1.98887 -2.10779,1.96076 l -2.83814,-0.0675 c 1.54214,-0.21437 2.42542,-1.02953 2.49723,-2.17759 0.0907,-1.45122 -1.01711,-1.88433 -1.95033,-1.83586 -1.2593,0.0655 -1.33844,0.74659 -1.62346,1.51851 -0.31774,0.86054 0.53341,1.63918 1.00792,2.44019 l -2.20088,-2.52954 -0.0242,-2.37496 c -0.01,-0.97863 -2.38763,-0.67911 -2.38763,-0.67911 1.37999,-0.72236 2.37077,-0.9806 2.36154,-1.88469 l -0.0252,-2.47067 c -0.0151,-1.47615 -1.79002,-2.42985 -1.77348,-3.70078 l 0.0367,-2.82552 c 0.0361,-2.7692 -3.13819,-3.00655 -3.12833,-0.0242 l 0.0261,7.89211 1.63542,3.24297 -2.58537,-2.96839 0.0632,-11.2836 c 1.31565,-1.73485 2.33805,0.29552 5.24412,-0.0159 1.14773,-0.1229 1.24766,2.07323 1.25495,3.2275 l 0.01,1.54684 c 0.007,1.0765 1.08599,1.24769 2.44337,1.29837 -0.81629,0.12053 -2.083,-0.37833 -2.02076,0.89673 0.11753,2.40824 2.99335,2.6269 3.13373,0.0132 l 5.27743,0.0394 c 2.13178,0.016 1.96971,-2.71011 0.0416,-2.73565 l -4.5567,-0.0604 4.51367,0.0485 c 2.01933,0.0217 2.23924,-3.00966 -0.0519,-3.00976 l -9.40155,-3.9e-4 5.03316,-9.8e-4 -7e-5,-1.33052 6.45867,-0.006 0.18904,1.03901 c 1.23925,0.20098 2.38102,-0.44384 2.00799,-1.25034 -0.49028,-1.06003 -0.49156,-2.25652 0.36278,-1.98875 2.32374,0.72829 -0.72265,2.44194 1.61888,3.22093 l -4.3e-4,4.17742 3.03904,2.18527 -10e-4,7.88282 c -2.19467,0.0883 -3.15048,0.7459 -4.46467,1.85473 -0.98121,0.82786 -1.96241,0.64431 -2.94361,0.77204 1.03744,-0.39158 1.98462,-0.63473 2.00486,-2.50372 0.0146,-1.33509 -0.67968,-1.73725 -1.70617,-2.05655 -1.28962,1.90311 -2.86329,2.10193 -4.39534,2.55031 0.93069,0.90206 1.8399,1.81698 4.00434,1.97877 z"
     id="path14359-1-7-5-3-0-73-1-9-5-4-4"
     inkscape:connector-curvature="0"
     sodipodi:nodetypes="csscsssccsssssssccccssscscsscsscccccssccccscscccc" />
  <path
     style="fill:none;stroke:#000000;stroke-width:1;stroke-linecap:butt;stroke-linejoin:round;stroke-miterlimit:4;stroke-dasharray:none;stroke-opacity:1"
     d="m 165.76278,208.1424 -0.0373,-4.81459 8.2036,3.83338 -0.001,15.38437 -1.51984,-1.64596"
     id="path14359-1-7-5-3-0-73-1-9-5-78"
     inkscape:connector-curvature="0"
     sodipodi:nodetypes="ccccc" />
  <path
     style="fill:#000000;fill-opacity:1;stroke:#000000;stroke-width:2;stroke-linecap:butt;stroke-linejoin:round;stroke-miterlimit:4;stroke-dasharray:none;stroke-opacity:1"
     d="m 165.19301,224.95126 -4.07811,-0.006 c -0.83497,-10e-4 -0.92366,1.98887 -2.10777,1.96075 l -2.83815,-0.0675 c 1.54213,-0.21438 2.42542,-1.02955 2.49721,-2.17759 0.0907,-1.45122 -1.01709,-1.88434 -1.95031,-1.83586 -1.2593,0.0655 -1.33846,0.74658 -1.62346,1.51851 -0.31775,0.86053 0.5334,1.63917 1.00792,2.44019 l -2.20089,-2.52954 -0.0242,-2.37496 c -0.01,-0.97863 -2.38762,-0.67912 -2.38762,-0.67912 1.37999,-0.72235 2.37076,-0.98059 2.36154,-1.88468 l -0.0252,-2.47067 c -0.0151,-1.47615 -1.79002,-2.42986 -1.77348,-3.70078 l 0.0367,-2.82553 c 0.0361,-2.76919 -3.13817,-3.00655 -3.12832,-0.0242 l 0.0261,7.89211 1.63541,3.24297 -2.58534,-2.96839 0.0631,-11.2836 c 1.31565,-1.73485 2.33804,0.29551 5.24413,-0.0159 1.14771,-0.1229 1.24764,2.07323 1.25494,3.22749 l 0.01,1.54685 c 0.007,1.07649 1.08599,1.24769 2.44336,1.29837 -0.81629,0.12053 -2.08299,-0.37834 -2.02076,0.89673 0.11754,2.40824 2.99335,2.62689 3.13373,0.0132 l 5.27743,0.0394 c 2.13178,0.016 1.96971,-2.71011 0.0416,-2.73565 l -4.55668,-0.0603 4.51365,0.0485 c 2.01933,0.0217 2.23924,-3.00966 -0.0519,-3.00977 l -9.40156,-3.8e-4 5.03317,-9.8e-4 -7e-5,-1.33052 6.45866,-0.006 0.18904,1.039 c 1.23926,0.20099 2.38103,-0.44385 2.008,-1.25033 -0.49029,-1.06005 -0.49158,-2.25652 0.36279,-1.98875 2.32373,0.72828 -0.72267,2.44194 1.61886,3.22092 l -4.4e-4,4.17742 3.03907,2.18526 -10e-4,7.88282 c -2.19469,0.0883 -3.15048,0.74592 -4.46468,1.85474 -0.9812,0.82786 -1.96241,0.64432 -2.94361,0.77204 1.03744,-0.39158 1.98463,-0.63473 2.00486,-2.50371 0.0146,-1.3351 -0.67967,-1.73725 -1.70616,-2.05656 -1.28961,1.90311 -2.86328,2.10194 -4.39535,2.55032 0.93069,0.90205 1.8399,1.81698 4.00435,1.97877 z"
     id="path14359-1-7-5-3-0-73-1-9-5-4-5"
     inkscape:connector-curvature="0"
     sodipodi:nodetypes="csscsssccsssssssccccssscscsscsscccccssccccscscccc" />
  <path
     style="fill:none;stroke:#000000;stroke-width:2;stroke-linecap:butt;stroke-linejoin:miter;stroke-miterlimit:4;stroke-dasharray:none;stroke-opacity:1"
     d="m 216.24319,184.54104 0.002,43.46157"
     id="path14359-1-7-5-3-0-73-1-9-5-7-2"
     inkscape:connector-curvature="0"
     sodipodi:nodetypes="cc" />
  <path
     style="fill:none;stroke:#000000;stroke-width:2;stroke-linecap:butt;stroke-linejoin:miter;stroke-miterlimit:4;stroke-dasharray:none;stroke-opacity:1"
     d="m 267.85803,184.54104 0.002,43.46157"
     id="path14359-1-7-5-3-0-73-1-9-5-7-7"
     inkscape:connector-curvature="0"
     sodipodi:nodetypes="cc" />
  <path
     style="fill:none;stroke:#000000;stroke-width:2;stroke-linecap:butt;stroke-linejoin:miter;stroke-miterlimit:4;stroke-dasharray:none;stroke-opacity:1"
     d="m 273.39254,188.01659 -31.45035,-19.05833 -31.45032,19.06126"
     id="path14359-1-7-5-3-0-73-1-9-5-7-9"
     inkscape:connector-curvature="0"
     sodipodi:nodetypes="ccc" />
  <path
     style="fill:none;stroke:#000000;stroke-width:1;stroke-linecap:butt;stroke-linejoin:miter;stroke-miterlimit:4;stroke-dasharray:none;stroke-opacity:1"
     d="m 261.01354,180.87469 0.002,-7.42816 h -5.59468 l -0.002,4.10929"
     id="path14359-1-7-5-3-0-73-1-9-5-7-1"
     inkscape:connector-curvature="0"
     sodipodi:nodetypes="cccc" />
  <path
     style="fill:none;stroke:#000000;stroke-width:1;stroke-linecap:butt;stroke-linejoin:miter;stroke-miterlimit:4;stroke-dasharray:none;stroke-opacity:1"
     d="m 220.04562,210.75306 -0.002,-13.73828 h 10.05144 l 0.002,13.73828 z"
     id="path14359-1-7-5-3-0-73-1-9-5-7-0"
     inkscape:connector-curvature="0"
     sodipodi:nodetypes="ccccc" />
  <path
     style="fill:none;stroke:#000000;stroke-width:1;stroke-linecap:butt;stroke-linejoin:miter;stroke-miterlimit:4;stroke-dasharray:none;stroke-opacity:1"
     d="m 225.243,197.2777 0.002,6.76436"
     id="path14359-1-7-5-3-0-73-1-9-5-7-74"
     inkscape:connector-curvature="0"
     sodipodi:nodetypes="cc" />
  <path
     style="fill:none;stroke:#000000;stroke-width:1;stroke-linecap:butt;stroke-linejoin:miter;stroke-miterlimit:4;stroke-dasharray:none;stroke-opacity:1"
     d="m 230.25375,199.92141 -10.17807,0.002"
     id="path14359-1-7-5-3-0-73-1-9-5-7-07"
     inkscape:connector-curvature="0"
     sodipodi:nodetypes="cc" />
  <path
     style="fill:none;stroke:#000000;stroke-width:1;stroke-linecap:butt;stroke-linejoin:miter;stroke-miterlimit:4;stroke-dasharray:none;stroke-opacity:1"
     d="m 230.1589,203.80922 -10.27287,0.002"
     id="path14359-1-7-5-3-0-73-1-9-5-7-5"
     inkscape:connector-curvature="0"
     sodipodi:nodetypes="cc" />
  <path
     style="fill:none;stroke:#000000;stroke-width:2;stroke-linecap:butt;stroke-linejoin:miter;stroke-miterlimit:4;stroke-dasharray:none;stroke-opacity:1"
     d="m 101.28356,228.02083 82.17449,0.002"
     id="path14359-1-7-5-3-0-73-1-9-5-7-6"
     inkscape:connector-curvature="0"
     sodipodi:nodetypes="cc" />
  <path
     style="fill:none;stroke:#000000;stroke-width:2.4980197;stroke-linecap:butt;stroke-linejoin:miter;stroke-miterlimit:4;stroke-dasharray:none;stroke-opacity:1"
     d="m 177.09443,184.42126 -0.002,43.85534"
     id="path14359-1-7-5-3-0-73-1-9-5-7-2-5"
     inkscape:connector-curvature="0"
     sodipodi:nodetypes="cc" />
  <path
     style="fill:none;stroke:#000000;stroke-width:2;stroke-linecap:butt;stroke-linejoin:miter;stroke-miterlimit:4;stroke-dasharray:none;stroke-opacity:1"
     d="m 107.00964,185.06518 -0.002,43.85536"
     id="path14359-1-7-5-3-0-73-1-9-5-7-7-7"
     inkscape:connector-curvature="0"
     sodipodi:nodetypes="cc" />
  <path
     style="fill:none;stroke:#000000;stroke-width:2;stroke-linecap:butt;stroke-linejoin:miter;stroke-miterlimit:4;stroke-dasharray:none;stroke-opacity:1"
     d="m 102.07946,187.43248 40.33064,-18.19454 41.30087,18.19747"
     id="path14359-1-7-5-3-0-73-1-9-5-7-9-3"
     inkscape:connector-curvature="0"
     sodipodi:nodetypes="ccc" />
  <path
     style="fill:none;stroke:#000000;stroke-width:2;stroke-linecap:butt;stroke-linejoin:miter;stroke-miterlimit:4;stroke-dasharray:none;stroke-opacity:1"
     d="m 106.62849,191.87582 70.80739,0.002"
     id="path14359-1-7-5-3-0-73-1-9-5-7-58-9"
     inkscape:connector-curvature="0"
     sodipodi:nodetypes="cc" />
  <path
     style="fill:none;stroke:#000000;stroke-width:2;stroke-linecap:butt;stroke-linejoin:miter;stroke-miterlimit:4;stroke-dasharray:none;stroke-opacity:1"
     d="m 27.532957,227.93379 66.608987,0.002"
     id="path14359-1-7-5-3-0-73-1-9-5-7-6-6"
     inkscape:connector-curvature="0"
     sodipodi:nodetypes="cc" />
  <path
     style="fill:none;stroke:#000000;stroke-width:2;stroke-linecap:butt;stroke-linejoin:miter;stroke-miterlimit:4;stroke-dasharray:none;stroke-opacity:1"
     d="m 86.704427,184.79827 -0.0025,43.3943"
     id="path14359-1-7-5-3-0-73-1-9-5-7-2-5-7"
     inkscape:connector-curvature="0"
     sodipodi:nodetypes="cc" />
  <path
     style="fill:none;stroke:#000000;stroke-width:2.4980197;stroke-linecap:butt;stroke-linejoin:miter;stroke-miterlimit:4;stroke-dasharray:none;stroke-opacity:1"
     d="m 35.307857,183.98387 -0.0025,43.72005"
     id="path14359-1-7-5-3-0-73-1-9-5-7-7-7-1"
     inkscape:connector-curvature="0"
     sodipodi:nodetypes="cc" />
  <path
     style="fill:none;stroke:#000000;stroke-width:2;stroke-linecap:butt;stroke-linejoin:miter;stroke-miterlimit:4;stroke-dasharray:none;stroke-opacity:1"
     d="m 28.340093,187.84494 32.209204,-18.40871 32.865199,18.41168"
     id="path14359-1-7-5-3-0-73-1-9-5-7-9-3-5"
     inkscape:connector-curvature="0"
     sodipodi:nodetypes="ccc" />
  <path
     style="fill:none;stroke:#000000;stroke-width:1;stroke-linecap:butt;stroke-linejoin:miter;stroke-miterlimit:4;stroke-dasharray:none;stroke-opacity:1"
     d="m 80.877309,180.74225 0.0025,-7.55583 h -5.729671 l -0.0025,4.17991"
     id="path14359-1-7-5-3-0-73-1-9-5-7-1-5"
     inkscape:connector-curvature="0"
     sodipodi:nodetypes="cccc" />
  <path
     style="fill:none;fill-rule:evenodd;stroke:#000000;stroke-width:2;stroke-linecap:butt;stroke-linejoin:miter;stroke-miterlimit:4;stroke-dasharray:none;stroke-opacity:1"
     d="m 328.9893,215.08923 19.66609,0.005"
     id="path8331-0-6-5-0-6"
     inkscape:connector-curvature="0"
     sodipodi:nodetypes="cc" />
  <path
     style="fill:none;fill-rule:evenodd;stroke:#000000;stroke-width:2;stroke-linecap:butt;stroke-linejoin:miter;stroke-miterlimit:4;stroke-dasharray:none;stroke-opacity:1"
     d="m 343.00438,220.07929 5.64879,-4.98429 -5.17486,-4.79491"
     id="path8331-0-6-5-0-6-7"
     inkscape:connector-curvature="0"
     sodipodi:nodetypes="ccc" />
  <path
     style="fill:none;stroke:#000000;stroke-width:1;stroke-linecap:round;stroke-linejoin:round;stroke-miterlimit:4;stroke-dasharray:none;stroke-opacity:1"
     d="m 114.43828,223.65312 v 2.59938 h -4.2373 l 0.002,-11.60447 3.0795,-3.65839 1.54038,-8.3758 h 26.28267 l 1.15529,8.3758 3.17826,3.65839 -0.002,11.60447 h -4.52361 v -2.59938 m 1.92548,0 h -30.61498"
     id="path14359-1-7-5-3-0-73-1-9-2"
     inkscape:connector-curvature="0"
     sodipodi:nodetypes="cccccccccccccc" />
  <path
     style="fill:none;stroke:#000000;stroke-width:1;stroke-linecap:butt;stroke-linejoin:round;stroke-miterlimit:4;stroke-dasharray:none;stroke-opacity:1"
     d="m 140.52966,203.96168 0.86427,6.18733 c 0.0978,0.70033 -0.44389,0.89228 -0.86677,0.89228 h -24.83857 c -0.69819,0 -1.04378,-0.57884 -0.96235,-1.08476 l 0.96484,-5.99485 c 0.11242,-0.6982 0.59438,-1.15528 1.34658,-1.15528 h 21.469 c 0.81305,0 1.91923,0.41247 2.023,1.15528 z"
     id="path14359-1-7-5-3-0-73-1-9-2-4"
     inkscape:connector-curvature="0"
     sodipodi:nodetypes="sssssssss" />
  <path
     style="fill:none;stroke:#000000;stroke-width:1;stroke-linecap:butt;stroke-linejoin:round;stroke-miterlimit:4;stroke-dasharray:none;stroke-opacity:1"
     d="m 114.82462,211.18219 -2.7925,2.6252 -0.001,5.10249 h 4.04349 l -8.4e-4,3.87679 h 5.00748 c 1.57627,0 1.6976,-2.40685 0,-2.40685 h -4.91121"
     id="path14359-1-7-5-3-0-73-1-9-2-88"
     inkscape:connector-curvature="0"
     sodipodi:nodetypes="cccccssc" />
  <path
     style="fill:none;stroke:#000000;stroke-width:1;stroke-linecap:butt;stroke-linejoin:round;stroke-miterlimit:4;stroke-dasharray:none;stroke-opacity:1"
     d="m 117.39693,215.92417 -1.41826,-1.15516 -2.02176,3e-4 c -1.03452,1.5e-4 -1.06293,1.25134 0,1.25155 l 4.42858,8.9e-4 2.02173,1.44451 14.92792,-0.0378 2.02173,-1.4445 4.42858,-8.9e-4 c 1.06294,-2.1e-4 1.03452,-1.25141 0,-1.25156 l -2.02175,-3e-4 -1.41827,1.15516"
     id="path14359-1-7-5-3-0-73-1-9-2-9"
     inkscape:connector-curvature="0"
     sodipodi:nodetypes="ccssccccsscc" />
  <path
     style="fill:none;stroke:#000000;stroke-width:1;stroke-linecap:butt;stroke-linejoin:round;stroke-miterlimit:4;stroke-dasharray:none;stroke-opacity:1"
     d="m 140.85218,211.19371 2.79249,2.62519 0.001,5.10249 h -4.04349 l 8.4e-4,3.87679 h -5.00748 c -1.57626,0 -1.69759,-2.40684 0,-2.40684 h 4.91121"
     id="path14359-1-7-5-3-0-73-1-9-2-88-4"
     inkscape:connector-curvature="0"
     sodipodi:nodetypes="cccccssc" />
  <path
     style="fill:#000000;fill-opacity:1;stroke:#000000;stroke-width:1;stroke-linecap:butt;stroke-linejoin:round;stroke-miterlimit:4;stroke-dasharray:none;stroke-opacity:1"
     d="m 130.32466,220.13561 c 1.14587,0 1.09632,2.4585 -0.002,2.4585 h -5.19879 c -0.97388,0 -1.29331,-2.4585 0.002,-2.4585 z"
     id="path14359-1-7-5-3-0-73-1-9-2-9-3-1"
     inkscape:connector-curvature="0"
     sodipodi:nodetypes="sssss" />
  <path
     style="fill:none;stroke:#000000;stroke-width:1;stroke-linecap:butt;stroke-linejoin:round;stroke-miterlimit:4;stroke-dasharray:none;stroke-opacity:1"
     d="m 117.13269,210.84875 0.002,-2.93987 h 7.12424 l -0.002,2.93987"
     id="path14359-1-7-5-3-0-73-1-9-2-9-3-7"
     inkscape:connector-curvature="0"
     sodipodi:nodetypes="cccc" />
  <path
     style="fill:#000000;fill-opacity:1;stroke:#000000;stroke-width:1;stroke-linecap:butt;stroke-linejoin:round;stroke-miterlimit:4;stroke-dasharray:none;stroke-opacity:1"
     d="m 122.0077,205.6946 1.38277,1.97713 h -5.12122 l 1.2924,-1.97713 v 1.60984 h 2.44605 z"
     id="path14359-1-7-5-3-0-73-1-9-2-9-3-4"
     inkscape:connector-curvature="0"
     sodipodi:nodetypes="ccccccc" />
  <path
     style="fill:none;stroke:#000000;stroke-width:1;stroke-linecap:butt;stroke-linejoin:round;stroke-miterlimit:4;stroke-dasharray:none;stroke-opacity:1"
     d="m 131.28844,210.81014 0.002,-2.93986 h 7.12424 l -0.002,2.93986"
     id="path14359-1-7-5-3-0-73-1-9-2-9-3-7-8"
     inkscape:connector-curvature="0"
     sodipodi:nodetypes="cccc" />
  <path
     style="fill:#000000;fill-opacity:1;stroke:#000000;stroke-width:1;stroke-linecap:butt;stroke-linejoin:round;stroke-miterlimit:4;stroke-dasharray:none;stroke-opacity:1"
     d="m 136.16345,205.65599 1.38277,1.97713 H 132.425 l 1.29238,-1.97713 v 1.60984 h 2.44607 z"
     id="path14359-1-7-5-3-0-73-1-9-2-9-3-4-7"
     inkscape:connector-curvature="0"
     sodipodi:nodetypes="ccccccc" />
  <path
     style="color:#000000;display:inline;overflow:visible;visibility:visible;fill:none;fill-rule:evenodd;stroke:#000000;stroke-width:1;stroke-linecap:butt;stroke-linejoin:miter;stroke-miterlimit:4;stroke-dasharray:none;stroke-dashoffset:0;stroke-opacity:1;marker:none;enable-background:accumulate"
     d="m 132.54743,211.05998 c 0.35635,-1.0027 1.31359,-1.72064 2.43852,-1.72063 1.13859,0 2.10539,0.73548 2.45124,1.75727"
     id="path13619"
     inkscape:connector-curvature="0"
     sodipodi:nodetypes="csc" />
  <path
     style="color:#000000;display:inline;overflow:visible;visibility:visible;fill:none;fill-rule:evenodd;stroke:#000000;stroke-width:3.74702978;stroke-linecap:butt;stroke-linejoin:miter;stroke-miterlimit:4;stroke-dasharray:none;stroke-dashoffset:0;stroke-opacity:1;marker:none;enable-background:accumulate"
     d="M 81.485714,213.55507 A 20.496403,20.154795 0 0 1 60.989311,233.70989 20.496403,20.154795 0 0 1 40.492909,213.55507 20.496403,20.154795 0 0 1 60.989311,193.40028 20.496403,20.154795 0 0 1 81.485714,213.55507 Z"
     id="path13622"
     inkscape:connector-curvature="0" />
  <path
     style="fill:none;fill-rule:evenodd;stroke:#000000;stroke-width:3.74702978;stroke-linecap:butt;stroke-linejoin:miter;stroke-miterlimit:4;stroke-dasharray:none;stroke-opacity:1"
     d="m 46.373772,199.54671 28.889474,28.35833"
     id="path8331-0-6-5-0-6-6"
     inkscape:connector-curvature="0"
     sodipodi:nodetypes="cc" />
  <path
     style="color:#000000;display:inline;overflow:visible;visibility:visible;fill:none;fill-rule:evenodd;stroke:#000000;stroke-width:3.74702978;stroke-linecap:butt;stroke-linejoin:miter;stroke-miterlimit:4;stroke-dasharray:none;stroke-dashoffset:0;stroke-opacity:1;marker:none;enable-background:accumulate"
     d="m 181.74718,213.72587 c 0,11.13119 -9.17655,20.15481 -20.4964,20.15481 -11.31986,0 -20.49642,-9.02362 -20.49641,-20.15481 0,-11.13118 9.17655,-20.15479 20.49641,-20.15479 11.31985,0 20.4964,9.02362 20.4964,20.15479 z"
     id="path13622-3"
     inkscape:connector-curvature="0"
     sodipodi:nodetypes="sssss" />
  <path
     style="fill:none;fill-rule:evenodd;stroke:#000000;stroke-width:3.74702978;stroke-linecap:butt;stroke-linejoin:miter;stroke-miterlimit:4;stroke-dasharray:none;stroke-opacity:1"
     d="m 146.63523,199.71752 28.88948,28.35831"
     id="path8331-0-6-5-0-6-6-8"
     inkscape:connector-curvature="0"
     sodipodi:nodetypes="cc" />
</svg>
