<?xml version="1.0" encoding="UTF-8" standalone="no"?>
<!-- Created with Inkscape (http://www.inkscape.org/) -->

<svg
   xmlns:dc="http://purl.org/dc/elements/1.1/"
   xmlns:cc="http://creativecommons.org/ns#"
   xmlns:rdf="http://www.w3.org/1999/02/22-rdf-syntax-ns#"
   xmlns:svg="http://www.w3.org/2000/svg"
   xmlns="http://www.w3.org/2000/svg"
   xmlns:sodipodi="http://sodipodi.sourceforge.net/DTD/sodipodi-0.dtd"
   xmlns:inkscape="http://www.inkscape.org/namespaces/inkscape"
   id="svg8999"
   version="1.1"
   inkscape:version="0.92.2 5c3e80d, 2017-08-06"
   width="581.12"
   height="459.51999"
   viewBox="0 0 544.79999 430.79999"
   sodipodi:docname="er30mr17.033.svg">
  <metadata
     id="metadata9005">
    <rdf:RDF>
      <cc:Work
         rdf:about="">
        <dc:format>image/svg+xml</dc:format>
        <dc:type
           rdf:resource="http://purl.org/dc/dcmitype/StillImage" />
        <dc:title></dc:title>
      </cc:Work>
    </rdf:RDF>
  </metadata>
  <defs
     id="defs9003" />
  <sodipodi:namedview
     pagecolor="#ffffff"
     bordercolor="#666666"
     borderopacity="1"
     objecttolerance="10"
     gridtolerance="10"
     guidetolerance="10"
     inkscape:pageopacity="0"
     inkscape:pageshadow="2"
     inkscape:window-width="1280"
     inkscape:window-height="756"
     id="namedview9001"
     showgrid="false"
     fit-margin-top="0"
     fit-margin-left="0"
     fit-margin-right="0"
     fit-margin-bottom="0"
     inkscape:zoom="0.54603288"
     inkscape:cx="183.11965"
     inkscape:cy="215.39999"
     inkscape:window-x="0"
     inkscape:window-y="23"
     inkscape:window-maximized="0"
     inkscape:current-layer="svg8999" />
  <path
     style="fill:none;stroke:#000000;stroke-width:2;stroke-linecap:butt;stroke-linejoin:miter;stroke-miterlimit:4;stroke-dasharray:none;stroke-opacity:1"
     d="M 1.119172,1.910811 1.117172,430.3917 H 542.80899 l 0.002,-428.480889 z"
     id="path14359-1-7-5-3-0-73-1-9-7"
     inkscape:connector-curvature="0"
     sodipodi:nodetypes="ccccc"
     inkscape:transform-center-x="0.03366111"
     inkscape:transform-center-y="-0.1641457" />
  <text
     xml:space="preserve"
     style="font-style:normal;font-variant:normal;font-weight:bold;font-stretch:normal;line-height:0%;font-family:Arial;-inkscape-font-specification:'Arial Bold';text-align:center;letter-spacing:0.50999999px;word-spacing:0px;text-anchor:middle;fill:#000000;fill-opacity:1;stroke:none;stroke-width:1px;stroke-linecap:butt;stroke-linejoin:miter;stroke-opacity:1"
     x="267.08527"
     y="235.27649"
     id="text9593"><tspan
       sodipodi:role="line"
       id="tspan9595"
       x="267.34027"
       y="235.27649"
       style="font-size:21.25px;line-height:1.39999998">THIS UNIT IS UNDER FUMIGATION</tspan><tspan
       sodipodi:role="line"
       x="267.34027"
       y="265.02649"
       id="tspan9597"
       style="font-size:21.25px;line-height:1.39999998">WITH *________________ APPLIED ON</tspan></text>
  <text
     xml:space="preserve"
     style="font-style:normal;font-variant:normal;font-weight:bold;font-stretch:normal;line-height:0%;font-family:Arial;-inkscape-font-specification:'Arial Bold';text-align:center;letter-spacing:0.05px;word-spacing:0px;text-anchor:middle;fill:#000000;fill-opacity:1;stroke:none;stroke-width:1px;stroke-linecap:butt;stroke-linejoin:miter;stroke-opacity:1"
     x="267.08295"
     y="295.69165"
     id="text9599"><tspan
       sodipodi:role="line"
       id="tspan9601"
       x="267.10794"
       y="295.69165"
       style="font-size:16.25px;line-height:1.88">Date____________________________</tspan><tspan
       sodipodi:role="line"
       x="267.10794"
       y="326.24164"
       id="tspan9603"
       style="font-size:16.25px;line-height:1.88">Time____________________________</tspan><tspan
       sodipodi:role="line"
       x="267.10794"
       y="356.79166"
       id="tspan9607"
       style="font-size:16.25px;line-height:1.88">Ventilated on _____________________</tspan><tspan
       sodipodi:role="line"
       x="269.38635"
       y="387.34164"
       id="tspan9605"
       style="font-size:16.25px;line-height:1.88"> </tspan></text>
  <text
     xml:space="preserve"
     style="font-style:normal;font-variant:normal;font-weight:bold;font-stretch:normal;line-height:0%;font-family:Arial;-inkscape-font-specification:'Arial Bold';text-align:start;letter-spacing:-1.10000002px;word-spacing:0px;text-anchor:start;fill:#000000;fill-opacity:1;stroke:none;stroke-width:1px;stroke-linecap:butt;stroke-linejoin:miter;stroke-opacity:1"
     x="9.5531149"
     y="419.42722"
     id="text9609"><tspan
       sodipodi:role="line"
       id="tspan9611"
       x="9.5531149"
       y="419.42722"
       style="font-size:70px;line-height:1.29999995">DO NOT ENTER</tspan></text>
  <text
     xml:space="preserve"
     style="font-style:normal;font-variant:normal;font-weight:bold;font-stretch:normal;line-height:0%;font-family:Arial;-inkscape-font-specification:'Arial Bold';text-align:start;letter-spacing:-0.42999995px;word-spacing:0px;text-anchor:start;fill:#000000;fill-opacity:1;stroke:none;stroke-width:1px;stroke-linecap:butt;stroke-linejoin:miter;stroke-opacity:1"
     x="39.733944"
     y="95.109886"
     id="text9609-7"><tspan
       sodipodi:role="line"
       id="tspan9611-0"
       x="39.733944"
       y="95.109886"
       style="font-size:106.25px;line-height:1.29999995">DANGER</tspan></text>
  <path
     style="fill:none;stroke:#000000;stroke-width:1;stroke-linecap:round;stroke-linejoin:round;stroke-miterlimit:4;stroke-dasharray:none;stroke-opacity:1"
     d="m 220.18122,154.38555 c 0.74864,5.46588 -4.88351,4.53842 -4.92428,9.57888 -0.0189,2.33131 1.24114,3.66641 3.53883,3.70098 4.17557,0.0628 5.17506,-1.69566 8.28693,-1.81869 2.35993,-0.0933 5.07967,0.99423 7.92037,2.07746 5.70495,2.17546 10.05692,3.87348 15.51491,6.1111 1.09135,0.44742 2.4448,0.35821 3.1258,-1.01719 0.68815,-1.38984 0.53514,-2.69528 -0.55957,-3.16433 -7.27532,-3.11728 -14.82822,-7.06437 -20.60074,-11.10064 -7.71516,-5.39461 -9.67596,-10.28961 -12.15895,-10.44988 -1.76074,-0.11365 -4.11837,1.71294 -3.99038,3.78561 0.13312,2.15573 2.42861,3.72745 3.71861,4.12623"
     id="path14359-1-7-5-3-0-73-1-9-8-5"
     inkscape:connector-curvature="0"
     sodipodi:nodetypes="cssssssssssc" />
  <path
     style="fill:none;stroke:#000000;stroke-width:1;stroke-linecap:round;stroke-linejoin:round;stroke-miterlimit:4;stroke-dasharray:none;stroke-opacity:1"
     d="m 227.75187,196.54779 c 2.3178,2.70426 -1.06478,8.26976 1.1006,10.26095 1.05299,0.96829 3.6928,-0.16615 5.55365,-1.51442 3.12319,-2.26291 3.73317,-5.05005 5.22602,-7.24963 1.39163,-2.05042 3.21128,-2.75786 5.81478,-4.3278 3.63728,-2.19331 7.74371,-3.53519 12.5969,-6.89088 0.97016,-0.67081 1.47257,-1.82542 0.60897,-3.61285 -0.67468,-1.39642 -2.53923,-1.97461 -4.2953,-1.17301 -5.93396,2.70869 -12.60193,6.48978 -16.78203,8.37537 -6.38015,2.87801 -11.82839,-0.32904 -13.93324,1.90627 -1.20958,1.28454 -1.59612,3.89621 -0.12801,5.36488 1.47926,1.47983 4.288,1.69008 4.91953,3.55496"
     id="path14359-1-7-5-3-0-73-1-9-8-5-8"
     inkscape:connector-curvature="0"
     sodipodi:nodetypes="cssssssssssc" />
  <path
     style="fill:none;stroke:#000000;stroke-width:1;stroke-linecap:round;stroke-linejoin:round;stroke-miterlimit:4;stroke-dasharray:none;stroke-opacity:1"
     d="m 323.03978,194.99756 c -4.69943,3.4407 -0.77109,7.82634 -3.92664,10.69417 -1.81496,1.64947 -2.43395,2.28898 -6.28449,0.49021 -5.25031,-2.45268 -1.74022,-8.25085 -3.4191,-10.05902 -0.38268,-0.41216 -0.97499,-0.0962 -1.68978,-0.5247 -1.2839,-0.76967 -1.13234,-1.52266 -2.72801,-2.46627 -3.98226,-2.35494 -8.59567,-4.47686 -14.53576,-6.36231 -1.77282,-0.56272 -2.80365,-1.6174 -1.63891,-3.11391 1.12831,-1.44971 2.25636,-1.90784 4.06796,-1.24118 6.12161,2.25273 10.2424,4.27154 14.7742,6.00887 9.14575,3.50616 10.83263,-3.01972 18.33721,0.84838 2.76929,1.42738 2.63535,4.41108 1.29167,6.47807 -1.77105,2.72443 -5.98183,1.69298 -6.66039,3.9164"
     id="path14359-1-7-5-3-0-73-1-9-8-5-8-6"
     inkscape:connector-curvature="0"
     sodipodi:nodetypes="csssssssssssc" />
  <path
     style="fill:none;stroke:#000000;stroke-width:1;stroke-linecap:round;stroke-linejoin:round;stroke-miterlimit:4;stroke-dasharray:none;stroke-opacity:1"
     d="m 325.95277,160.13414 c -1.83084,-5.77269 0.14391,-8.10751 -1.73345,-10.99299 -1.02278,-1.57201 -3.09697,-1.52396 -4.28689,-0.47619 -2.04596,1.80154 -2.77259,4.61711 -4.98808,7.08519 -1.57767,1.75754 -3.60837,3.63438 -6.29029,5.06626 -4.88286,2.60697 -9.79693,4.92364 -15.01191,7.68055 -1.04276,0.55126 -1.40395,1.59989 -1.15851,3.1149 0.37327,2.30408 1.97946,2.13775 3.79977,1.40809 7.34677,-2.94494 14.97786,-8.17269 20.2676,-8.57824 2.91942,-0.22383 5.18472,2.07001 8.6051,1.72286 3.43342,-0.34848 4.80128,-3.56396 4.83518,-5.61569 0.0357,-2.15954 -3.02681,-3.93809 -4.41242,-2.19143"
     id="path14359-1-7-5-3-0-73-1-9-8-5-5"
     inkscape:connector-curvature="0"
     sodipodi:nodetypes="cssssssssssc" />
  <path
     style="fill:#000000;fill-opacity:1;stroke:#000000;stroke-width:1;stroke-linecap:round;stroke-linejoin:round;stroke-miterlimit:4;stroke-dasharray:none;stroke-opacity:1"
     d="m 296.98263,123.74403 c 0.67537,0.10866 1.41867,1.89042 1.91899,3.64448 0.45861,1.60782 1.03294,3.41481 0.99369,4.63305 -0.10636,3.30073 0.32938,5.7341 0.21975,7.88011 -0.0339,0.66296 -0.0897,-1.59951 -1.61921,-1.84615 -1.13222,-0.18257 -1.2205,1.60491 -1.05512,4.08145 0.0458,0.68585 0.47026,1.96898 0.95826,2.90307 0.42386,0.81131 0.92313,1.27695 0.9212,1.88714 -0.0253,8.04384 -0.59294,9.63225 -1.84164,11.03828 -4.64715,5.23264 -9.01046,6.50269 -9.30012,8.80472 -0.41587,3.30503 -0.1736,7.67699 -1.31231,9.20698 -1.84338,2.47679 -7.77253,4.64857 -13.41293,5.76397 -5.6404,-0.96655 -11.68135,-2.69114 -13.52473,-5.16793 -1.13871,-1.52999 -2.238,-5.23117 -2.65387,-8.5362 -0.28966,-2.30203 -6.66532,-5.80802 -10.1945,-11.15246 -1.03622,-1.56921 -0.36298,-1.98826 -0.38828,-10.0321 -0.0152,-4.8217 -2.92029,-7.32827 -2.69926,-14.45844 0.0378,-1.21828 0.42328,-2.91343 0.88189,-4.52125 0.50032,-1.75406 1.02184,-3.52511 1.6954,-3.64448 2.32637,-0.41227 -0.33288,2.56862 -0.25762,5.87179 0.0436,1.91146 0.57187,3.17639 1.06271,5.67365 0.75676,3.85017 1.42443,9.85988 0.089,19.69961 2.08327,3.85623 7.06763,6.72065 10.47195,8.94302 3.01315,1.96701 4.78521,3.80751 5.58477,6.77649 0.73475,2.72831 5.96156,3.10468 9.59976,3.26534 3.87009,0.1709 8.37254,-0.2039 9.16093,-2.30709 0.80475,-2.14684 0.34786,-4.79206 1.82773,-6.61934 0.71336,-0.88082 2.55761,-1.42045 4.45706,-2.63307 2.59562,-1.65706 5.58521,-4.08601 8.60629,-5.90405 2.14774,-10.06744 -0.54674,-8.58456 -0.55285,-13.53444 -0.008,-6.26996 1.19937,-11.76825 -0.091,-16.46568 -0.31955,-1.16328 -1.87553,-3.62527 0.45401,-3.25047 z"
     id="path14359-1-7-5-3-0-73-1-9-8-5-9-0"
     inkscape:connector-curvature="0"
     sodipodi:nodetypes="csssssssssscssssssssscsssssscsssc" />
  <path
     style="fill:none;stroke:#000000;stroke-width:1;stroke-linecap:round;stroke-linejoin:round;stroke-miterlimit:4;stroke-dasharray:none;stroke-opacity:1"
     d="m 256.99237,167.29873 c 0.24464,3.45086 -0.77826,7.22775 -0.0686,9.18183 1.57335,4.33263 4.29645,6.26467 6.79408,7.89202 3.84163,2.50305 7.27945,4.02578 10.12208,4.63393 1.71047,-0.0727 3.90947,-1.62143 8.00613,-3.61383 3.72983,-1.81398 7.24897,-3.74847 8.12905,-8.66211 0.47421,-2.64762 0.83475,-8.95038 -1.66383,-10.45738"
     id="path14359-1-7-5-3-0-73-1-9-8-5-9-1-8"
     inkscape:connector-curvature="0"
     sodipodi:nodetypes="csscssc" />
  <path
     style="fill:none;stroke:#000000;stroke-width:1;stroke-linecap:round;stroke-linejoin:round;stroke-miterlimit:4;stroke-dasharray:none;stroke-opacity:1"
     d="m 257.0149,167.5993 c -0.34689,1.69645 -2.12726,2.96926 -3.21307,2.5477"
     id="path14359-1-7-5-3-0-73-1-9-8-5-9-1-2"
     inkscape:connector-curvature="0"
     sodipodi:nodetypes="cc" />
  <path
     style="fill:none;stroke:#000000;stroke-width:1;stroke-linecap:round;stroke-linejoin:round;stroke-miterlimit:4;stroke-dasharray:none;stroke-opacity:1"
     d="m 252.64784,174.21411 c 1.06705,0.45164 3.50737,2.39813 4.36204,3.51943 0.80659,1.05819 1.09565,3.13881 -1.28141,3.90909"
     id="path14359-1-7-5-3-0-73-1-9-8-5-9-1-9"
     inkscape:connector-curvature="0"
     sodipodi:nodetypes="csc" />
  <path
     style="fill:none;stroke:#000000;stroke-width:1;stroke-linecap:round;stroke-linejoin:round;stroke-miterlimit:4;stroke-dasharray:none;stroke-opacity:1"
     d="m 266.13433,185.96661 c -2.37694,-1.42019 -4.57749,-1.39615 -7.13057,-0.0212"
     id="path14359-1-7-5-3-0-73-1-9-8-5-9-1-85"
     inkscape:connector-curvature="0"
     sodipodi:nodetypes="cc" />
  <path
     style="fill:none;stroke:#000000;stroke-width:1;stroke-linecap:round;stroke-linejoin:round;stroke-miterlimit:4;stroke-dasharray:none;stroke-opacity:1"
     d="m 288.61181,185.83817 c -2.05605,-0.58554 -5.5284,-0.8771 -7.5159,-0.0212"
     id="path14359-1-7-5-3-0-73-1-9-8-5-9-1-4"
     inkscape:connector-curvature="0"
     sodipodi:nodetypes="cc" />
  <path
     style="fill:none;stroke:#000000;stroke-width:1;stroke-linecap:round;stroke-linejoin:round;stroke-miterlimit:4;stroke-dasharray:none;stroke-opacity:1"
     d="m 293.1073,173.37923 c -0.50403,1.15174 -2.20943,1.6902 -2.60964,4.12463 -0.42356,2.57653 0.37857,3.90229 1.83699,4.65254"
     id="path14359-1-7-5-3-0-73-1-9-8-5-9-1-1"
     inkscape:connector-curvature="0"
     sodipodi:nodetypes="csc" />
  <path
     style="fill:none;stroke:#000000;stroke-width:1;stroke-linecap:round;stroke-linejoin:round;stroke-miterlimit:4;stroke-dasharray:none;stroke-opacity:1"
     d="m 288.99713,165.48 c 0.69523,2.54965 1.8868,4.93507 3.65862,3.70368"
     id="path14359-1-7-5-3-0-73-1-9-8-5-9-1-49"
     inkscape:connector-curvature="0"
     sodipodi:nodetypes="cc" />
  <path
     style="fill:#000000;fill-opacity:1;stroke:#000000;stroke-width:1;stroke-linecap:round;stroke-linejoin:round;stroke-miterlimit:4;stroke-dasharray:none;stroke-opacity:1"
     d="m 259.00444,140.3276 c -1.90249,-0.10145 -6.88291,1.31782 -6.98583,3.54113 -0.0732,1.58215 0.62156,3.00125 2.31157,4.65287 1.53951,1.50454 1.98869,2.26282 3.50152,2.25943 1.4354,-0.003 2.31419,-1.26849 4.21913,-3.16951 2.14745,-2.14304 4.23201,-3.24674 4.21095,-4.61956 -0.0279,-1.8205 -4.36748,-2.51026 -7.25734,-2.66436 z"
     id="path14359-1-7-5-3-0-73-1-9-8-5-9-1-5"
     inkscape:connector-curvature="0"
     sodipodi:nodetypes="sssssss" />
  <path
     style="fill:#000000;fill-opacity:1;stroke:#000000;stroke-width:1;stroke-linecap:round;stroke-linejoin:round;stroke-miterlimit:4;stroke-dasharray:none;stroke-opacity:1"
     d="m 275.66781,163.56498 c -2.85262,0.30572 -2.63285,-2.5784 -4.78375,-2.58053 -1.60831,-0.002 -1.82321,2.31656 -2.5653,2.27432 -0.77306,-0.044 -1.04449,-1.46286 -0.85523,-2.75982 0.23344,-1.59965 1.10075,-2.8321 1.78628,-5.19315 0.69244,-2.3849 1.24871,-3.14102 2.98455,-3.19441 1.62691,-0.05 4.12976,3.05277 4.60545,6.30074 0.43158,2.94679 0.23253,5.00233 -1.172,5.15285 z"
     id="path14359-1-7-5-3-0-73-1-9-8-5-9-1-58"
     inkscape:connector-curvature="0"
     sodipodi:nodetypes="ssssssss" />
  <path
     style="fill:#000000;fill-opacity:1;stroke:#000000;stroke-width:1;stroke-linecap:round;stroke-linejoin:round;stroke-miterlimit:4;stroke-dasharray:none;stroke-opacity:1"
     d="m 278.85015,143.8374 c 0.017,1.76264 1.57099,2.79664 2.72611,4.15415 1.64919,1.93815 3.87334,2.79541 5.81333,2.7606 1.37532,-0.0247 2.05843,-1.41685 3.14769,-2.92959 1.08019,-1.50016 2.05774,-2.34504 1.99003,-4.39164 -0.043,-1.29822 -4.02946,-2.54371 -6.35592,-2.61192 -1.4137,-0.0414 -2.77905,0.90448 -4.629,1.22972 -1.45216,0.2553 -2.70274,0.69743 -2.69224,1.78868 z"
     id="path14359-1-7-5-3-0-73-1-9-8-5-9-1-5-4"
     inkscape:connector-curvature="0"
     sodipodi:nodetypes="ssssssss" />
  <path
     style="fill:none;stroke:#000000;stroke-width:1;stroke-linecap:round;stroke-linejoin:round;stroke-miterlimit:4;stroke-dasharray:none;stroke-opacity:1"
     d="m 300.1701,140.06294 c -1.31897,2.40755 -0.99537,4.09241 -0.91023,6.47543"
     id="path14359-1-7-5-3-0-73-1-9-8-5-9-1-21"
     inkscape:connector-curvature="0"
     sodipodi:nodetypes="cc" />
  <path
     style="fill:#000000;fill-opacity:1;stroke:#000000;stroke-width:1;stroke-linecap:round;stroke-linejoin:round;stroke-miterlimit:4;stroke-dasharray:none;stroke-opacity:1"
     d="m 274.37806,105.46584 c 4.32188,-0.058 11.41944,4.13847 16.69266,8.29518 4.07948,3.21573 7.07589,5.71763 9.7562,7.12646 2.02605,1.06495 2.79817,4.38027 2.81806,7.25028 0.0457,6.60344 -3.70249,9.25142 -3.68321,5.67283 -0.10389,2.04949 0.43753,4.08945 0.29759,6.08418 0.96204,-1.90436 4.56808,-5.26225 4.47178,-12.07066 -0.0365,-2.58312 -0.84143,-6.75874 -3.47877,-8.03946 -4.00017,-1.94253 -17.90994,-15.78709 -26.98336,-15.64681 -6.39926,0.0989 -21.18732,7.68964 -28.72611,13.54647 -3.50343,2.72179 -6.10709,5.03026 -6.04182,7.19942 0.15373,5.109 0.12788,14.18672 5.26616,15.46519 -0.076,-1.64811 -0.42454,-3.29622 -0.68222,-4.94433 0.77597,6.73518 -3.94516,0.41747 -3.33492,-10.06785 0.21154,-3.63481 3.30096,-5.10755 5.33683,-6.59504 8.49973,-6.21022 21.89075,-13.18989 28.29113,-13.27586 z"
     id="path14359-1-7-5-3-0-73-1-9-8-5-9-1-0"
     inkscape:connector-curvature="0"
     sodipodi:nodetypes="ssssccsssssccsss" />
</svg>
