<?xml version="1.0" encoding="UTF-8" standalone="no"?>
<!-- Created with Inkscape (http://www.inkscape.org/) -->

<svg
   xmlns:dc="http://purl.org/dc/elements/1.1/"
   xmlns:cc="http://creativecommons.org/ns#"
   xmlns:rdf="http://www.w3.org/1999/02/22-rdf-syntax-ns#"
   xmlns:svg="http://www.w3.org/2000/svg"
   xmlns="http://www.w3.org/2000/svg"
   xmlns:sodipodi="http://sodipodi.sourceforge.net/DTD/sodipodi-0.dtd"
   xmlns:inkscape="http://www.inkscape.org/namespaces/inkscape"
   id="svg5103"
   version="1.1"
   inkscape:version="0.91 r13725"
   width="430.79999"
   height="576.59998"
   viewBox="0 0 430.79999 576.59998"
   sodipodi:docname="ec01no91.067.svg">
  <metadata
     id="metadata5109">
    <rdf:RDF>
      <cc:Work
         rdf:about="">
        <dc:format>image/svg+xml</dc:format>
        <dc:type
           rdf:resource="http://purl.org/dc/dcmitype/StillImage" />
        <dc:title></dc:title>
      </cc:Work>
    </rdf:RDF>
  </metadata>
  <defs
     id="defs5107" />
  <sodipodi:namedview
     pagecolor="#ffffff"
     bordercolor="#666666"
     borderopacity="1"
     objecttolerance="10"
     gridtolerance="10"
     guidetolerance="10"
     inkscape:pageopacity="0"
     inkscape:pageshadow="2"
     inkscape:window-width="1862"
     inkscape:window-height="1036"
     id="namedview5105"
     showgrid="false"
     inkscape:zoom="1.6493237"
     inkscape:cx="215.39999"
     inkscape:cy="215.38083"
     inkscape:window-x="0"
     inkscape:window-y="0"
     inkscape:window-maximized="0"
     inkscape:current-layer="svg5103" />
  <path
     style="fill:none;stroke:#000000;stroke-width:1;stroke-linecap:round;stroke-linejoin:round;stroke-miterlimit:4;stroke-dasharray:none;stroke-opacity:1"
     d="m 313.86565,418.84717 -11.71875,0.41548 c -1.3482,0.0478 -1.36379,-1.92448 -0.0621,-1.97063 l 11.71704,-0.4154 m 6.88919,-0.24424 14.42392,-0.51139 c 1.42084,-0.0503 1.53593,1.91837 0.0621,1.97062 l -14.92321,0.52908"
     id="path14359-1-7-5-3-0-73-1-9-8-409-3-5"
     inkscape:connector-curvature="0"
     sodipodi:nodetypes="cssccssc" />
  <path
     style="fill:none;stroke:#000000;stroke-width:1;stroke-linecap:round;stroke-linejoin:round;stroke-miterlimit:4;stroke-dasharray:none;stroke-opacity:1"
     d="m 306.46787,414.95885 -3.48515,0.12356 c -0.56886,0.0202 -0.59441,1.09536 0.0336,1.07309 l 5.90755,-0.20944 m 11.8995,-0.42189 13.33374,-0.47272 c 0.62544,-0.0222 0.63572,-1.09683 -0.0336,-1.07309 l -14.5453,0.51568"
     id="path14359-1-7-5-3-0-73-1-9-8-409-1-4-0"
     inkscape:connector-curvature="0"
     sodipodi:nodetypes="cssccssc" />
  <path
     style="fill:none;stroke:#000000;stroke-width:1;stroke-linecap:round;stroke-linejoin:round;stroke-miterlimit:4;stroke-dasharray:none;stroke-opacity:1"
     d="m 330.00156,421.82579 c 1.05995,-0.0376 1.09013,-1.97159 -0.0608,-1.93077 l -5.3695,0.19035 c -1.04153,0.0369 -0.91168,1.96526 0.0975,1.92948 z"
     id="path14359-1-7-5-3-0-73-1-9-8-409-0-4-8"
     inkscape:connector-curvature="0"
     sodipodi:nodetypes="sssss" />
  <path
     style="fill:none;stroke:#000000;stroke-width:1;stroke-linecap:round;stroke-linejoin:round;stroke-miterlimit:4;stroke-dasharray:none;stroke-opacity:1"
     d="m 312.786,422.98518 -16.08916,0.57043 -0.0631,-1.9974 17.04776,-0.60439"
     id="path14359-1-7-5-3-0-73-1-9-8-409-8-8-84"
     inkscape:connector-curvature="0"
     sodipodi:nodetypes="cccc" />
  <path
     style="fill:none;stroke:#000000;stroke-width:1;stroke-linecap:round;stroke-linejoin:round;stroke-miterlimit:4;stroke-dasharray:none;stroke-opacity:1"
     d="m 271.9489,423.99026 -0.0357,-1.14279 24.59036,-0.87181 0.0356,1.14278 z"
     id="path14359-1-7-5-3-0-73-1-9-8-409-8-8-0-80"
     inkscape:connector-curvature="0"
     sodipodi:nodetypes="ccccc" />
  <path
     style="fill:none;stroke:#000000;stroke-width:1;stroke-linecap:round;stroke-linejoin:round;stroke-miterlimit:4;stroke-dasharray:none;stroke-opacity:1"
     d="m 290.74464,423.18868 -0.14997,-4.71227 1.53897,-0.0546 0.11484,3.6153"
     id="path14359-1-7-5-3-0-73-1-9-8-409-8-8-0-2-29"
     inkscape:connector-curvature="0"
     sodipodi:nodetypes="cccc" />
  <path
     style="fill:none;stroke:#000000;stroke-width:1;stroke-linecap:round;stroke-linejoin:round;stroke-miterlimit:4;stroke-dasharray:none;stroke-opacity:1"
     d="m 292.23681,420.26987 5.08595,-0.18032 c 1.12492,-0.04 1.14339,-1.97268 -0.061,-1.93 l -7.12938,0.25276 c -1.02316,0.0363 -1.06909,1.97006 0.061,1.93001 l 0.47062,-0.0167"
     id="path14359-1-7-5-3-0-73-1-9-8-409-1-4-7-80"
     inkscape:connector-curvature="0"
     sodipodi:nodetypes="cssssc" />
  <path
     style="fill:none;stroke:#000000;stroke-width:1;stroke-linecap:round;stroke-linejoin:round;stroke-miterlimit:4;stroke-dasharray:none;stroke-opacity:1"
     d="m 277.38666,423.85738 0.0393,1.2284 m 0.23004,7.18727 -5.27282,0.18694 -0.0695,-1.08802 m -0.17096,-6.42226 -0.0277,-0.86663"
     id="path14359-1-7-5-3-0-73-1-9-8-409-8-8-07-7"
     inkscape:connector-curvature="0"
     sodipodi:nodetypes="ccccccc" />
  <path
     style="fill:none;stroke:#000000;stroke-width:1;stroke-linecap:round;stroke-linejoin:round;stroke-miterlimit:4;stroke-dasharray:none;stroke-opacity:1"
     d="m 319.90212,420.69017 3.9322,-0.13941 0.0289,0.93082 -4.01398,0.14231"
     id="path14359-1-7-5-3-0-73-1-9-8-409-8-8-2-6"
     inkscape:connector-curvature="0"
     sodipodi:nodetypes="cccc" />
  <path
     style="fill:none;stroke:#000000;stroke-width:1;stroke-linecap:round;stroke-linejoin:round;stroke-miterlimit:4;stroke-dasharray:none;stroke-opacity:1"
     d="m 315.61635,450.00903 -12.47201,0.44217 c -1.34818,0.0478 -1.23753,2.01673 0.0641,1.97057 l 6.87543,-0.24376 m 10.8557,-0.38486 15.29904,-0.54242 c 1.42083,-0.0503 1.40967,-2.02281 -0.0641,-1.97055 l -13.6272,0.48311"
     id="path14359-1-7-5-3-0-73-1-9-8-409-3-3-6"
     inkscape:connector-curvature="0"
     sodipodi:nodetypes="cssccssc" />
  <path
     style="fill:none;stroke:#000000;stroke-width:1;stroke-linecap:round;stroke-linejoin:round;stroke-miterlimit:4;stroke-dasharray:none;stroke-opacity:1"
     d="m 309.90377,454.36217 -5.65794,0.2006 c -0.56886,0.0202 -0.66316,-1.05077 -0.0351,-1.07304 l 6.07625,-0.21542 m 5.3861,-0.19096 19.67845,-0.69766 c 0.62544,-0.0222 0.70447,1.04931 0.0351,1.07302 l -20.1802,0.71547"
     id="path14359-1-7-5-3-0-73-1-9-8-409-1-4-8-8"
     inkscape:connector-curvature="0"
     sodipodi:nodetypes="cssccssc" />
  <path
     style="fill:none;stroke:#000000;stroke-width:1;stroke-linecap:round;stroke-linejoin:round;stroke-miterlimit:4;stroke-dasharray:none;stroke-opacity:1"
     d="m 330.77177,445.92105 c 1.05996,-0.0375 1.21383,1.88988 0.0628,1.93069 l -5.36949,0.19037 c -1.04154,0.0369 -1.03539,-1.89621 -0.0262,-1.93199 z"
     id="path14359-1-7-5-3-0-73-1-9-8-409-0-4-0-6"
     inkscape:connector-curvature="0"
     sodipodi:nodetypes="sssss" />
  <path
     style="fill:none;stroke:#000000;stroke-width:1;stroke-linecap:round;stroke-linejoin:round;stroke-miterlimit:4;stroke-dasharray:none;stroke-opacity:1"
     d="m 297.43191,446.554 0.065,1.99732 18.02619,-0.63909 -0.065,-1.99732 z"
     id="path14359-1-7-5-3-0-73-1-9-8-409-8-8-8-9"
     inkscape:connector-curvature="0"
     sodipodi:nodetypes="ccccc" />
  <path
     style="fill:none;stroke:#000000;stroke-width:1;stroke-linecap:round;stroke-linejoin:round;stroke-miterlimit:4;stroke-dasharray:none;stroke-opacity:1"
     d="m 272.71231,447.87314 0.0376,1.14272 24.59034,-0.87182 -0.0377,-1.14273 z"
     id="path14359-1-7-5-3-0-73-1-9-8-409-8-8-0-9-0"
     inkscape:connector-curvature="0"
     sodipodi:nodetypes="ccccc" />
  <path
     style="fill:none;stroke:#000000;stroke-width:1;stroke-linecap:round;stroke-linejoin:round;stroke-miterlimit:4;stroke-dasharray:none;stroke-opacity:1"
     d="m 291.51672,447.34168 0.15195,4.71221 1.53897,-0.0545 -0.11679,-3.61523"
     id="path14359-1-7-5-3-0-73-1-9-8-409-8-8-0-2-1-06"
     inkscape:connector-curvature="0"
     sodipodi:nodetypes="cccc" />
  <path
     style="fill:none;stroke:#000000;stroke-width:1;stroke-linecap:round;stroke-linejoin:round;stroke-miterlimit:4;stroke-dasharray:none;stroke-opacity:1"
     d="m 293.1923,450.14817 5.08593,-0.18033 c 1.12493,-0.0399 1.26707,1.88727 0.0626,1.92995 l -7.12938,0.25277 c -1.02315,0.0363 -1.19275,-1.88989 -0.0626,-1.92996 l 0.47061,-0.0167"
     id="path14359-1-7-5-3-0-73-1-9-8-409-1-4-7-0-1"
     inkscape:connector-curvature="0"
     sodipodi:nodetypes="cssssc" />
  <path
     style="fill:none;stroke:#000000;stroke-width:1;stroke-linecap:round;stroke-linejoin:round;stroke-miterlimit:4;stroke-dasharray:none;stroke-opacity:1"
     d="m 278.14623,447.62059 -0.0521,-1.24024 m -0.19993,-6.61945 -0.0178,-0.55597 -5.27277,0.18695 0.0758,2.36364 m 0.0787,2.45363 0.0841,2.62255"
     id="path14359-1-7-5-3-0-73-1-9-8-409-8-8-07-4-4"
     inkscape:connector-curvature="0"
     sodipodi:nodetypes="cccccccc" />
  <path
     style="fill:none;stroke:#000000;stroke-width:1;stroke-linecap:round;stroke-linejoin:round;stroke-miterlimit:4;stroke-dasharray:none;stroke-opacity:1"
     d="m 315.50116,447.02428 0.0309,0.93074 0.51886,-0.0183 m 6.97268,-0.24721 1.67587,-0.0594 -0.0309,-0.93074 -1.67415,0.0593"
     id="path14359-1-7-5-3-0-73-1-9-8-409-8-8-2-7-0"
     inkscape:connector-curvature="0"
     sodipodi:nodetypes="ccccccc" />
  <path
     style="fill:none;stroke:#000000;stroke-width:1;stroke-linecap:round;stroke-linejoin:round;stroke-miterlimit:4;stroke-dasharray:none;stroke-opacity:1"
     d="m 322.6128,445.30337 c 2.59998,-6.9498 1.59105,-16.94153 -2.23968,-23.46738"
     id="path14359-1-7-5-3-0-73-1-9-8-5-3-3"
     inkscape:connector-curvature="0"
     sodipodi:nodetypes="cc" />
  <path
     style="fill:none;stroke:#000000;stroke-width:1;stroke-linecap:round;stroke-linejoin:round;stroke-miterlimit:4;stroke-dasharray:none;stroke-opacity:1"
     d="m 297.6763,446.16024 -0.0272,-0.85455 m -0.18666,-7.10881 -0.17593,-4.23601 m -0.23657,-7.40254 -0.0888,-2.77609"
     id="path14359-1-7-5-3-0-73-1-9-8-5-32-4"
     inkscape:connector-curvature="0"
     sodipodi:nodetypes="cccccc" />
  <path
     style="fill:none;fill-rule:evenodd;stroke:#000000;stroke-width:1;stroke-linecap:round;stroke-linejoin:miter;stroke-miterlimit:4;stroke-dasharray:none;stroke-opacity:1"
     d="m 321.6624,439.96838 c 0.21619,0.57281 0.55157,3.21147 0.27515,3.81003 -0.0306,0.0663 -0.29452,0.65381 -0.22783,0.71588 1.0859,1.01085 0.40381,0.93841 0.9838,2.0052 0.0907,0.16676 -0.0541,0.75647 0.0698,0.87186 0.13621,0.12682 0.006,0.48138 0.10477,0.66244 0.64199,1.18079 -0.89857,3.17378 -1.68213,3.59856 -0.62532,0.33899 -1.65739,0.3037 -2.10673,0.7825 -0.10109,0.10763 -0.48215,-0.0453 -0.58323,0.0622 -0.0841,0.0899 -1.25114,0.52991 -1.40893,0.38302 -0.15479,-0.1441 -0.51305,-0.27458 -0.76487,-0.38923 -0.28248,-0.12862 -1.01797,-0.90728 -1.24815,-1.12151 -0.83495,-0.77723 1.28822,-1.75961 1.68568,-2.18314 0.0782,-0.0831 -0.77992,-1.65397 -0.84925,-1.71853 -0.11221,-0.10448 -0.43899,-1.09504 -0.33491,-1.32043 0.0255,-0.0548 0.19527,-0.26205 0.1146,-0.33713 -0.1849,-0.17215 -0.0821,-0.6273 -0.31759,-0.7798 -1.57194,-1.018 -2.16108,-2.49157 -2.51845,-3.14885 -3.90946,-1.49319 -5.36554,-10.10193 -1.94527,-15.07027 0.48299,-0.5146 0.71231,-1.45169 1.01212,-2.10105 0.28809,-0.6239 0.448,-0.86442 0.87726,-1.32176 0.13201,-0.14066 -0.007,-0.50915 0.14568,-0.67134 0.123,-0.13103 0.6574,-0.66774 0.76533,-0.90145 0.15285,-0.33107 -0.24216,-1.16549 -0.0506,-1.58031 0.0653,-0.14091 0.02,-0.62332 0.10262,-0.71143 0.16185,-0.17244 0.15233,-0.6784 0.30738,-0.84358 0.0812,-0.0864 0.27215,-0.23365 0.32335,-0.34452 0.0566,-0.12288 0.0188,-0.90469 -0.0321,-0.99811 -0.0847,-0.15576 -0.2932,-0.1519 -0.38377,-0.23621 -0.28136,-0.26191 0.0292,-1.69987 0.0169,-2.08232 -0.004,-0.13522 0.18623,-0.19844 0.24253,-0.25841 0.19093,-0.20343 0.44218,-0.4301 0.77462,-0.61034 0.85357,-0.46273 4.59302,-0.35815 5.03032,0.44619 0.0771,0.14192 0.2704,0.22336 0.34604,0.36244 0.16078,0.29578 0.12907,0.66779 0.28114,0.94763 0.13127,0.2414 -0.11047,0.4657 -0.10394,0.66984 0.006,0.20554 -0.39069,2.05053 -0.47486,2.14019 -0.19257,0.2052 0.0795,0.9842 -0.0435,1.25057 -0.0626,0.13547 -0.23586,0.46682 -0.23321,0.54953 0.007,0.21135 0.0355,0.77906 -0.0959,0.91934 -0.21706,0.23127 -0.20786,0.39348 -0.39888,0.59704 -0.0579,0.0616 0.12887,0.10831 0.1306,0.1619 0.008,0.27408 0.11844,0.5702 0.23406,0.78275 0.21621,0.39765 -0.0587,1.1155 0.29717,1.44666 0.0934,0.0868 0.63439,4.49287 0.79496,4.92574"
     id="path12025-2"
     inkscape:connector-curvature="0"
     sodipodi:nodetypes="ccccccsscscsccccscccccccsccccscssccsscsscscsc" />
  <path
     style="fill:none;fill-rule:evenodd;stroke:#000000;stroke-width:1;stroke-linecap:round;stroke-linejoin:round;stroke-miterlimit:4;stroke-dasharray:none;stroke-opacity:1"
     d="m 305.40513,435.18391 c 0.30834,0.51834 1.37929,2.24697 1.37929,2.24697"
     id="path12029-2"
     inkscape:connector-curvature="0"
     sodipodi:nodetypes="cc" />
  <path
     style="fill:none;fill-rule:evenodd;stroke:#000000;stroke-width:1;stroke-linecap:round;stroke-linejoin:round;stroke-miterlimit:4;stroke-dasharray:none;stroke-opacity:1"
     d="m 305.6058,434.27938 c 0.0888,-0.39785 0.25362,-0.63515 0.44601,-0.84016"
     id="path12031-35"
     inkscape:connector-curvature="0"
     sodipodi:nodetypes="cc" />
  <path
     style="fill:none;fill-rule:evenodd;stroke:#000000;stroke-width:1;stroke-linecap:round;stroke-linejoin:round;stroke-miterlimit:4;stroke-dasharray:none;stroke-opacity:1"
     d="m 300.46969,430.68353 c -0.3428,-0.18274 -0.19278,0.006 -0.35431,0.0126"
     id="path12033-8"
     inkscape:connector-curvature="0"
     sodipodi:nodetypes="cc" />
  <path
     style="fill:none;fill-rule:evenodd;stroke:#000000;stroke-width:1;stroke-linecap:round;stroke-linejoin:round;stroke-miterlimit:4;stroke-dasharray:none;stroke-opacity:1"
     d="m 289.79342,431.41532 c -0.26752,-0.11709 -0.27859,-0.16677 -0.53707,-0.15761"
     id="path12037-9"
     inkscape:connector-curvature="0"
     sodipodi:nodetypes="cc" />
  <path
     style="fill:none;fill-rule:evenodd;stroke:#000000;stroke-width:1;stroke-linecap:round;stroke-linejoin:round;stroke-miterlimit:4;stroke-dasharray:none;stroke-opacity:1"
     d="m 291.07104,443.61706 c 0.0669,-0.046 0.15619,-0.0449 0.23429,-0.0672"
     id="path12039-1"
     inkscape:connector-curvature="0"
     sodipodi:nodetypes="cc" />
  <path
     style="fill:none;fill-rule:evenodd;stroke:#000000;stroke-width:1;stroke-linecap:round;stroke-linejoin:round;stroke-miterlimit:4;stroke-dasharray:none;stroke-opacity:1"
     d="m 310.15266,454.3044 c -0.59031,0.5597 2.6873,1.15091 2.81103,1.01905 0.0857,-0.0915 0.38472,0.0158 0.47048,-0.0756 0.74821,-0.79718 1.5249,-0.3465 2.07859,-1.54568 0.45386,-0.98293 -0.70094,-1.22305 -1.05466,-1.55237 -0.13594,-0.12652 -0.0669,-0.57575 -0.19978,-0.69946 -0.85395,-0.79492 -1.78976,-0.49568 -2.89331,0.10254 -0.1166,0.0632 -0.88655,0.22194 -0.93533,0.32755 -0.43315,0.93807 0.28008,1.34317 0.22426,1.46405 -0.16345,0.35401 -0.66413,0.52103 -0.50128,0.95986 z"
     id="path12045-4"
     inkscape:connector-curvature="0"
     sodipodi:nodetypes="cscsccccccc" />
  <path
     style="fill:none;fill-rule:evenodd;stroke:#000000;stroke-width:1;stroke-linecap:round;stroke-linejoin:round;stroke-miterlimit:4;stroke-dasharray:none;stroke-opacity:1"
     d="m 313.84773,416.49018 c -2.30657,-0.46419 -1.1898,-1.71251 -0.32098,-2.63822 0.24782,-0.26406 1.38467,0.0686 1.65708,0.059"
     id="path12047-4"
     inkscape:connector-curvature="0"
     sodipodi:nodetypes="csc" />
  <path
     style="fill:none;fill-rule:evenodd;stroke:#000000;stroke-width:1;stroke-linecap:round;stroke-linejoin:round;stroke-miterlimit:4;stroke-dasharray:none;stroke-opacity:1"
     d="m 312.64795,415.94391 c -1.41343,0.6668 -2.69817,0.68367 -3.67225,-0.22311 -0.15599,-0.14519 -0.56467,-0.1262 -0.71798,-0.26894 -0.0779,-0.0725 -1.9754,-0.32808 -1.44729,-0.89077 0.60702,-0.64675 1.79492,-0.63523 1.8688,-0.71391 0.14955,-0.15936 -0.17162,-0.66867 0.0308,-0.88431 1.32129,-1.40781 4.2398,0.01 4.98824,0.70636"
     id="path12049-1"
     inkscape:connector-curvature="0"
     sodipodi:nodetypes="cccscsc" />
  <path
     style="fill:none;fill-rule:evenodd;stroke:#000000;stroke-width:1;stroke-linecap:round;stroke-linejoin:round;stroke-miterlimit:4;stroke-dasharray:none;stroke-opacity:1"
     d="m 311.86145,424.6078 c -2.10762,1.2599 -6.08085,1.15444 -6.01886,2.60727"
     id="path12051-9"
     inkscape:connector-curvature="0"
     sodipodi:nodetypes="cc" />
  <path
     style="fill:none;fill-rule:evenodd;stroke:#000000;stroke-width:1;stroke-linecap:round;stroke-linejoin:round;stroke-miterlimit:4;stroke-dasharray:none;stroke-opacity:1"
     d="m 306.32237,426.00802 c -0.65542,-0.78229 -7.40352,0.12433 -8.141,0.52413 -0.57813,0.31347 -1.4038,-0.22264 -1.60934,-0.41396 -0.258,-0.24016 -1.37706,0.60599 -1.67897,0.76966 -0.58691,0.31816 -1.60414,-0.23732 -2.18472,0.0774"
     id="path12053-5"
     inkscape:connector-curvature="0"
     sodipodi:nodetypes="ccccc" />
  <path
     style="fill:none;fill-rule:evenodd;stroke:#000000;stroke-width:1;stroke-linecap:round;stroke-linejoin:round;stroke-miterlimit:4;stroke-dasharray:none;stroke-opacity:1"
     d="m 292.80812,426.99444 c -0.99229,-0.58396 -6.08986,-1.75036 -7.3289,-1.07867 -3.03966,-0.77542 -2.1051,0.2657 -2.18098,0.1951 -0.12478,-0.11618 -3.19701,0.57894 -3.24656,0.48773 3.24656,-0.48773 2.63688,-1.46708 2.38788,-1.45825 -0.54599,0.0194 -2.3286,-0.55996 -2.83804,-0.0171 -0.52131,0.55548 -2.43609,0.0375 -3.23619,0.47125 -0.71546,0.38788 -1.67853,1.17823 -2.14894,1.19492"
     id="path12055-0"
     inkscape:connector-curvature="0"
     sodipodi:nodetypes="ccccscsc" />
  <path
     style="fill:none;fill-rule:evenodd;stroke:#000000;stroke-width:1;stroke-linecap:round;stroke-linejoin:round;stroke-miterlimit:4;stroke-dasharray:none;stroke-opacity:1"
     d="m 276.01481,425.7246 c -0.65489,0.22987 -1.24387,-0.0147 -1.83234,0.006 -0.26818,0.009 -1.2279,-0.40122 -1.43785,-0.59667 -0.17294,-0.16101 -0.53377,0.24492 -0.70669,0.0839 -0.57323,-0.53359 -5.12924,0.96442 -5.4556,1.31215 -0.31629,0.33701 -1.23795,2.19031 -0.38627,2.98311 0.86484,0.80507 3.81256,1.94052 5.29597,1.88793 0.56312,-0.0201 1.30492,0.13833 1.28583,-0.45776 -0.0293,-0.91662 -0.91393,-2.7291 0.22302,-3.34547 0,0 -0.74354,1.88998 -0.4284,2.46955 0.50285,0.92491 2.44799,0.15307 3.13275,0.79048 0.18532,0.17255 0.38836,0.62703 1.22443,0.89181 1.11465,1.15035 4.2739,1.03906 6.18648,0.77591 1.51583,0.25561 2.96364,0.0223 3.40266,0.007 1.48012,-0.0524 6.03244,0.13776 6.82623,0.87671 0.408,0.37978 1.36486,-0.42845 1.77187,-0.0494 0.42745,0.39795 2.73178,-0.2274 3.3981,0.076 0.72962,0.33219 2.0341,0.0534 2.76457,0.38588 0.53829,0.24508 2.98415,0.87855 3.4216,0.86304 0.29125,-0.0107 0.96624,0.21279 0.52009,0.68814 -0.40643,0.43308 -3.21486,1.01626 -4.13558,1.51538 -0.50233,0.27232 -1.20013,0.42438 -1.62341,0.65383 -1.66279,0.90145 -3.33123,1.19505 -5.0939,2.15062 -0.86004,0.46625 -2.20715,0.44515 -2.20715,0.44515 -0.36166,-0.33666 0.83805,-0.64635 0.56221,-0.90313 -0.26309,-0.24492 1.12903,0.59095 -0.69421,0.30575 -1.91138,0.68405 0.10047,0.34123 -1.74524,0.19917 -1.03639,-0.0798 -5.93457,-0.52382 -6.49736,-0.21866 -0.32917,0.17848 -0.99539,0.40941 -1.1087,0.45148"
     id="path12057-3"
     inkscape:connector-curvature="0"
     sodipodi:nodetypes="csccccsscccccsscscscssscccscc" />
  <path
     style="fill:none;fill-rule:evenodd;stroke:#000000;stroke-width:1;stroke-linecap:round;stroke-linejoin:round;stroke-miterlimit:4;stroke-dasharray:none;stroke-opacity:1"
     d="m 283.26083,439.71596 c 0.30889,-0.91091 -4.63364,-0.53898 -4.97099,-0.17954 -0.29135,0.31044 -1.16549,0.45117 -1.45357,0.75811 -0.54644,0.58222 -1.99381,-0.18273 -2.58664,0.44893 -0.46256,0.49283 -1.25462,0.97186 -1.66905,1.41343 -0.10447,0.11133 -1.59883,0.85109 -1.14136,1.27694 0.41489,0.38622 1.1584,0.45067 1.50255,0.77104 0.29662,0.27615 0.43573,0.97621 0.68907,1.21207 0.78557,0.73127 3.25461,0.99893 4.51092,0.9544 1.09369,-0.0387 5.08214,-0.41196 5.9103,-0.0349 0.34802,0.15848 5.38075,-0.92712 6.78409,-0.82442 1.40336,0.10269 1.20971,0.56831 1.6074,0.35269 0.36631,-0.19856 1.08648,-0.45065 1.34491,-0.45982 1.85743,-0.066 9.17903,0.0511 9.99202,-0.81514 0.49322,-0.52553 2.49151,0.4563 3.00929,-0.0953 0.25981,-0.27683 1.18694,0.88727 1.63607,0.64378 0.15848,-0.0859 2.05228,-0.29249 2.94106,-0.45754 0,0 1.7995,-0.15966 1.03789,-1.87191 0.19052,-0.203 0.32014,-0.46276 0.51069,-0.66575"
     id="path12059-64"
     inkscape:connector-curvature="0"
     sodipodi:nodetypes="cccccccsssscssscccc" />
  <path
     style="fill:none;fill-rule:evenodd;stroke:#000000;stroke-width:1;stroke-linecap:round;stroke-linejoin:round;stroke-miterlimit:4;stroke-dasharray:none;stroke-opacity:1"
     d="m 274.88593,440.30875 c -1.06544,-0.0831 -1.41089,0.1652 -1.87065,0.65511 -0.0103,0.0106 -1.79205,-0.0336 -2.19418,-0.21657 -0.8062,-0.3671 -4.76601,1.76841 -5.01023,2.2973 -0.18815,0.40748 -1.28286,0.73999 -0.89954,1.44499 1.062,1.95327 7.01808,2.98351 8.9557,0.91899"
     id="path12061-4"
     inkscape:connector-curvature="0"
     sodipodi:nodetypes="ccsssc" />
  <path
     style="fill:none;fill-rule:evenodd;stroke:#000000;stroke-width:1;stroke-linecap:round;stroke-linejoin:round;stroke-miterlimit:4;stroke-dasharray:none;stroke-opacity:1"
     d="m 273.28033,443.90102 c 0.40651,-0.22686 7.20854,0.32149 7.62477,0.39757"
     id="path12063-8"
     inkscape:connector-curvature="0"
     sodipodi:nodetypes="cc" />
  <path
     style="fill:none;fill-rule:evenodd;stroke:#000000;stroke-width:1;stroke-linecap:round;stroke-linejoin:round;stroke-miterlimit:4;stroke-dasharray:none;stroke-opacity:1"
     d="m 273.83682,429.51701 7.40881,0.003"
     id="path12065-11"
     inkscape:connector-curvature="0"
     sodipodi:nodetypes="cc" />
  <path
     style="fill:none;fill-rule:evenodd;stroke:#000000;stroke-width:1px;stroke-linecap:round;stroke-linejoin:round;stroke-opacity:1"
     d="m 291.48394,430.80421 c 0.78281,0.2779 1.83019,0.35675 2.66561,0.35942"
     id="path11428"
     inkscape:connector-curvature="0" />
  <path
     style="fill:none;fill-rule:evenodd;stroke:#000000;stroke-width:1px;stroke-linecap:round;stroke-linejoin:round;stroke-opacity:1"
     d="m 296.53693,430.7502 c 0.62526,-0.4844 1.28744,0.0661 1.89524,-0.1343"
     id="path11430"
     inkscape:connector-curvature="0" />
  <path
     style="fill:none;fill-rule:evenodd;stroke:#000000;stroke-width:1px;stroke-linecap:round;stroke-linejoin:round;stroke-opacity:1"
     d="m 290.72029,428.20517 c 0.64652,-0.78039 1.50231,-0.83121 2.03896,-1.18649"
     id="path11432"
     inkscape:connector-curvature="0" />
  <path
     style="fill:none;fill-rule:evenodd;stroke:#000000;stroke-width:1px;stroke-linecap:round;stroke-linejoin:round;stroke-opacity:1"
     d="m 303.92126,425.86135 c 1.86518,1.17176 4.20293,2.42636 4.19584,4.64518"
     id="path11434"
     inkscape:connector-curvature="0" />
  <path
     style="fill:none;fill-rule:evenodd;stroke:#000000;stroke-width:1px;stroke-linecap:round;stroke-linejoin:round;stroke-opacity:1"
     d="m 309.56568,438.37111 c -0.15834,0.35919 -0.0402,0.91657 -0.21458,1.26252 -0.19151,0.38002 -0.44462,0.67297 -0.63496,1.05064 -0.45037,0.89358 0.0464,2.61211 -0.57174,3.22637 -0.36998,0.36762 -1.26379,0.18309 -1.75556,0.34527"
     id="path11436"
     inkscape:connector-curvature="0" />
  <path
     style="fill:none;fill-rule:evenodd;stroke:#000000;stroke-width:1px;stroke-linecap:round;stroke-linejoin:round;stroke-opacity:1"
     d="m 300.78116,442.20281 c -0.33065,0.39987 -0.93601,0.075 -1.33405,0.20627 -1.21205,0.39971 -2.45928,0.97462 -3.79273,0.97036 -0.09,-2.9e-4 -0.63604,-0.0675 -0.70176,-0.002 -0.16591,0.16484 -0.88043,0.41825 -1.19437,0.41725"
     id="path11438"
     inkscape:connector-curvature="0" />
  <path
     style="fill:none;fill-rule:evenodd;stroke:#000000;stroke-width:1px;stroke-linecap:round;stroke-linejoin:round;stroke-opacity:1"
     d="m 292.29171,441.54405 c -0.38612,-0.0545 -0.68129,0.0543 -0.91298,0.20761"
     id="path11440"
     inkscape:connector-curvature="0" />
  <path
     style="fill:none;fill-rule:evenodd;stroke:#000000;stroke-width:1px;stroke-linecap:round;stroke-linejoin:round;stroke-opacity:1"
     d="m 312.98268,423.22357 c 0.33369,-0.2955 1.09131,-0.20703 1.33406,-0.20626"
     id="path11442"
     inkscape:connector-curvature="0" />
  <path
     style="fill:none;fill-rule:evenodd;stroke:#000000;stroke-width:1px;stroke-linecap:round;stroke-linejoin:round;stroke-opacity:1"
     d="m 317.89106,424.50249 c 0.5882,-0.13235 1.9665,-0.47351 1.96407,0.28699"
     id="path11444"
     inkscape:connector-curvature="0" />
  <path
     style="fill:none;fill-rule:evenodd;stroke:#000000;stroke-width:1px;stroke-linecap:round;stroke-linejoin:round;stroke-opacity:1"
     d="m 321.68616,444.72592 c -0.0315,1.23611 -2.66427,1.04415 0.62824,1.05469"
     id="path11446"
     inkscape:connector-curvature="0" />
  <path
     style="fill:none;fill-rule:evenodd;stroke:#000000;stroke-width:1px;stroke-linecap:round;stroke-linejoin:round;stroke-opacity:1"
     d="m 316.7688,446.2541 c -0.27698,0.1324 -0.50696,0.19057 -0.77284,0.27825"
     id="path11448"
     inkscape:connector-curvature="0" />
  <path
     style="fill:none;fill-rule:evenodd;stroke:#000000;stroke-width:1px;stroke-linecap:round;stroke-linejoin:round;stroke-opacity:1"
     d="m 312.43262,441.60848 c 0.33229,0.81889 0.75003,-2.3542 0.35717,-1.96385 -0.0101,0.01 0.47631,0.97219 0.62801,1.12487 0.6803,0.68466 2.85024,-0.10383 3.30013,-0.55088 0.37742,-0.37501 -0.38077,-1.40477 -0.76746,-1.40601 -0.33162,-7.1e-4 -0.85424,-0.25482 -1.19167,-0.42489 -0.77433,-0.39026 -3.94461,-0.92493 -5.04985,-0.92847"
     id="path11450"
     inkscape:connector-curvature="0" />
  <path
     style="fill:none;fill-rule:evenodd;stroke:#000000;stroke-width:1px;stroke-linecap:round;stroke-linejoin:round;stroke-opacity:1"
     d="m 309.36412,435.56334 c 0.69956,-1.79445 3.00812,-1.86967 4.07972,-2.93441 0.35815,-0.35588 1.61465,-0.0653 1.96632,-0.4148 0.38367,-0.38122 2.21855,-1.67196 1.83247,-2.45036 -0.23117,-0.46608 -4.29449,-0.55974 -4.70144,-0.15541 -0.43883,0.43604 0.12988,1.6847 -0.14573,1.68382 -0.002,-10e-6 -0.48835,-1.12509 -0.55761,-1.19481 -0.70319,-0.70772 -1.85911,-0.0412 -2.38649,0.13272"
     id="path11452"
     inkscape:connector-curvature="0" />
  <path
     style="fill:none;fill-rule:evenodd;stroke:#000000;stroke-width:1px;stroke-linecap:round;stroke-linejoin:round;stroke-opacity:1"
     d="m 309.92712,435.07391 c 0.20199,0.0563 0.67904,0.19057 0.841,0.35357 1.48774,1.49729 1.34725,-1.78114 2.95059,-0.97305 0.5266,0.26541 0.42478,2.16624 -0.008,2.59656 -0.90034,0.89458 -2.28283,-0.38346 -2.03155,-1.12935"
     id="path11454"
     inkscape:connector-curvature="0" />
  <path
     style="fill:none;fill-rule:evenodd;stroke:#000000;stroke-width:1px;stroke-linecap:round;stroke-linejoin:round;stroke-opacity:1"
     d="m 312.10756,433.53696 c 1.0879,1.4963 2.80614,0.307 2.81046,-1.04368"
     id="path11456"
     inkscape:connector-curvature="0" />
  <path
     style="fill:none;fill-rule:evenodd;stroke:#000000;stroke-width:1px;stroke-linecap:round;stroke-linejoin:round;stroke-opacity:1"
     d="m 315.19918,432.35382 c -0.6792,2.50307 -2.33542,6.02784 1.45442,6.03997"
     id="path11458"
     inkscape:connector-curvature="0" />
  <path
     style="fill:none;fill-rule:evenodd;stroke:#000000;stroke-width:1px;stroke-linecap:round;stroke-linejoin:round;stroke-opacity:1"
     d="m 320.66066,436.23108 c -0.34584,0.29878 -1.05002,-0.2858 -1.05176,-0.28408 -0.16893,0.16789 -0.0741,0.49332 -0.21255,0.63093 -0.27611,0.27435 -0.71643,0.04 -1.05334,0.20717 -1.48909,0.73861 -2.53029,-2.17278 -1.8154,-2.88311"
     id="path11460"
     inkscape:connector-curvature="0" />
  <path
     style="fill:none;fill-rule:evenodd;stroke:#000000;stroke-width:1px;stroke-linecap:round;stroke-linejoin:round;stroke-opacity:1"
     d="m 316.52289,435.37571 c -0.89629,-0.38582 -1.41734,-1.56228 -1.04412,-2.6701"
     id="path11462"
     inkscape:connector-curvature="0" />
  <path
     style="fill:none;fill-rule:evenodd;stroke:#000000;stroke-width:1px;stroke-linecap:round;stroke-linejoin:round;stroke-opacity:1"
     d="m 317.85155,436.8537 c -1.62984,0.51248 -1.74678,3.2226 0.34056,3.2293 3.19562,0.0102 6.10946,-1.24277 6.1198,-4.47184 0.002,-0.54407 0.0501,-1.56894 -0.27465,-1.89569 -0.17243,-0.17354 -0.59786,-2.00976 -0.83494,-2.24835 -1.40358,-1.41259 -3.06635,-3.17916 -4.76735,-1.489 -0.22241,0.22098 -1.00637,-0.0494 -1.26387,0.20649"
     id="path11464"
     inkscape:connector-curvature="0" />
  <path
     style="fill:none;fill-rule:evenodd;stroke:#000000;stroke-width:1px;stroke-linecap:round;stroke-linejoin:round;stroke-opacity:1"
     d="m 319.4782,432.92893 c -0.36189,-0.12118 -0.67365,0.10972 -0.84302,0.27802"
     id="path11466"
     inkscape:connector-curvature="0" />
  <path
     style="fill:none;fill-rule:evenodd;stroke:#000000;stroke-width:1px;stroke-linecap:round;stroke-linejoin:round;stroke-opacity:1"
     d="m 321.57387,435.9533 c 0.24323,-0.24742 0.41279,-0.41016 0.56321,-0.55962"
     id="path11468"
     inkscape:connector-curvature="0" />
  <path
     style="fill:none;fill-rule:evenodd;stroke:#000000;stroke-width:1px;stroke-linecap:round;stroke-linejoin:round;stroke-opacity:1"
     d="m 275.93556,464.93121 c 1.11957,0.28809 1.15064,1.29881 1.67843,1.83 0.53612,0.53957 1.52133,-0.11122 1.9625,0.77824 0.40966,0.82591 -1.22186,1.07414 -1.47799,1.32865 -0.22591,0.22447 -0.0965,1.49492 -0.91971,2.31294 -0.56829,0.56465 -1.44657,-1.57069 -0.76477,-2.24815"
     id="path11470"
     inkscape:connector-curvature="0" />
  <path
     style="fill:none;fill-rule:evenodd;stroke:#000000;stroke-width:1px;stroke-linecap:round;stroke-linejoin:round;stroke-opacity:1"
     d="m 274.5838,470.68149 c -0.79056,-1.72414 1.09914,-1.06511 1.47956,-1.8199 0.62487,-1.23983 0.44751,-2.24428 -1.18583,-2.2495 -0.22113,-4.3e-4 -0.71852,-0.099 -0.91231,-0.002 -0.46496,0.23062 -0.27035,0.47849 -0.49348,0.7002 -0.17641,0.17527 -0.3378,-0.38112 -0.55985,-0.49303 -0.54246,-0.27341 -0.82632,0.16462 -1.19415,0.34707 -0.14548,0.0721 -0.78615,0.62908 -0.91433,0.62867 -0.0843,-2.8e-4 0.0941,-0.14005 0.14104,-0.21009 0.38252,-0.56981 0.90313,-0.90942 1.54682,-0.90735 0.36599,6.9e-4 0.89954,-0.40412 1.05446,-0.55806 0.13378,-0.13293 -0.11663,-0.56179 0.072,-0.56119 0.2417,3.8e-4 0.52228,0.74022 0.84078,0.42375 0.26215,-0.26047 2.27347,-1.09129 1.75961,-1.60847 -0.16475,-0.1658 -3.45132,-0.35791 -3.85909,-0.22288 -0.91962,0.30455 -1.92555,0.70353 -2.53155,1.60601 -0.61985,0.92309 -1.64589,2.19088 -0.92397,3.6463 0.35774,0.72125 1.51438,0.94368 1.47057,0.9872 -0.1161,0.11536 -0.62565,-0.0722 -0.77173,-0.0726 -0.46939,-0.002 0.45682,1.23418 0.4872,1.26477 0.52604,0.52941 1.25814,0.84379 1.61027,1.19817 0.28404,0.28587 0.67068,0.30288 1.05109,0.49462 0.3009,0.15164 0.49988,-0.27912 0.77284,-0.27824 0.36781,6.9e-4 1.0635,0.24322 1.26275,0.14439 0.39568,-0.19626 0.39196,-0.52936 0.63406,-0.76993 0.58403,-0.5803 1.30986,0.49114 1.75713,-0.83652"
     id="path11472"
     inkscape:connector-curvature="0"
     sodipodi:nodetypes="cssccccscsssscssscssccsssc" />
  <path
     style="fill:none;fill-rule:evenodd;stroke:#000000;stroke-width:1px;stroke-linecap:round;stroke-linejoin:round;stroke-opacity:1"
     d="m 273.45265,473.27446 c 1.81484,0.45319 2.59184,1.48672 2.58557,3.447 -0.002,0.64693 -0.17767,1.50567 -0.56748,1.893 -0.047,0.0466 -0.14103,0.20607 -0.14082,0.13989 4.7e-4,-0.21013 1.1768,0.48032 1.19145,0.49507 0.52285,0.5262 -0.44461,1.98077 -0.70895,2.24342 -0.91276,0.90694 -3.00784,1.30974 -3.30351,1.60353 -0.10363,0.10297 -0.39674,-0.16481 -0.49056,-0.2121 -1.57421,-0.79341 -1.54496,0.0635 -2.65979,-2.18403 -0.65244,-1.31539 -1.42044,-1.85198 -2.23714,-2.67392 -0.1466,-0.14755 0.14453,-1.30714 0.14552,-1.61363 0.004,-1.13921 -0.20371,-2.13206 -0.20043,-3.15866 2.3e-4,-0.0759 0.19544,-0.50734 0.0722,-0.63137 -0.67157,-0.67587 -0.82801,-2.12993 -0.55199,-2.94926"
     id="path11474"
     inkscape:connector-curvature="0" />
  <path
     style="fill:none;fill-rule:evenodd;stroke:#000000;stroke-width:1px;stroke-linecap:round;stroke-linejoin:round;stroke-opacity:1"
     d="m 273.90357,463.94221 c 0.34211,-1.81202 -0.93006,-5.10792 -2.22727,-5.76173 -0.33942,-0.17108 -2.24975,-0.64491 -2.3136,-0.70917 -0.15411,-0.1551 -0.0138,-0.50668 -0.13834,-0.63205 -0.34229,-0.34449 -1.84841,-0.68174 -2.45598,-0.0781 -0.64615,0.64203 -1.00279,1.1363 -1.6901,1.81923 -0.12242,0.12165 -0.157,1.17965 -0.005,1.33337 0.41523,0.41789 1.15551,0.53078 1.12106,0.56501 -0.41184,0.4092 -0.74513,0.88027 -1.19728,1.32956 -0.29211,0.29023 -0.0498,0.93547 -0.21459,1.26252 -0.73752,1.46332 0.7417,5.60428 1.31363,6.17987 0.27461,0.2764 0.68411,0.46466 0.98068,0.56456"
     id="path11476"
     inkscape:connector-curvature="0" />
  <path
     style="fill:none;fill-rule:evenodd;stroke:#000000;stroke-width:1px;stroke-linecap:round;stroke-linejoin:round;stroke-opacity:1"
     d="m 272.2366,458.53316 c 1.53836,0.0223 3.48271,-1.28236 4.63216,-0.12552 0.77092,0.77586 -0.28389,2.03424 -1.12935,2.03155 -0.12803,-4.2e-4 -1.12165,0.34962 -1.05401,0.41769 0.046,0.0464 3.00936,-1.815 3.02347,-1.81495 0.59648,0.001 0.48835,0.90247 0.48674,1.40511 -0.002,0.9099 -2.60478,2.56374 -2.60822,3.64092"
     id="path11478"
     inkscape:connector-curvature="0" />
  <path
     style="fill:none;fill-rule:evenodd;stroke:#000000;stroke-width:1px;stroke-linecap:round;stroke-linejoin:round;stroke-opacity:1"
     d="m 276.02887,457.70316 c 0.94986,-0.26826 1.25444,-1.3579 2.04076,-1.74793 0.2469,-0.12245 1.09238,0.10382 1.26342,-0.0662 0.87668,-0.87108 3.69871,1.18793 4.06535,1.55692 0.45399,0.4569 -0.33352,1.1009 -0.56568,1.33157 -1.24188,1.23396 -2.43366,2.09756 -4.7788,2.09006"
     id="path11480"
     inkscape:connector-curvature="0" />
  <path
     style="fill:none;fill-rule:evenodd;stroke:#000000;stroke-width:1px;stroke-linecap:round;stroke-linejoin:round;stroke-opacity:1"
     d="m 266.16094,471.14579 c -0.18052,0.22969 -0.59842,0.10491 -0.77285,0.27824 -0.83163,0.82632 -1.80364,1.37243 -2.67393,2.23715 -0.25028,0.24868 -0.71547,0.29118 -0.98427,0.55827 -0.19545,0.1942 -0.18889,0.4675 -0.35292,0.63048 -0.0495,0.0491 -0.0717,0.47708 -0.072,0.56119 -0.004,1.14411 1.78285,0.0759 2.38582,0.0779 0.15573,5.1e-4 0.9866,-0.48554 0.98405,-0.4881 -0.18441,-0.1856 -0.81742,0.46244 -0.9141,0.5585 -0.4304,0.42764 -3.22075,1.12358 -2.1125,2.23894 1.04772,1.05445 3.99906,-0.0813 5.12205,0.2971"
     id="path11482"
     inkscape:connector-curvature="0" />
  <path
     style="fill:none;fill-rule:evenodd;stroke:#000000;stroke-width:1px;stroke-linecap:round;stroke-linejoin:round;stroke-opacity:1"
     d="m 260.73393,478.42695 c 1.55688,-0.09 0.22827,-3.86443 -0.34034,-3.29946 -1.47283,1.46344 -1.36195,2.4415 0.34034,3.29946 z"
     id="path11484"
     inkscape:connector-curvature="0" />
  <path
     style="fill:none;fill-rule:evenodd;stroke:#000000;stroke-width:1px;stroke-linecap:round;stroke-linejoin:round;stroke-opacity:1"
     d="m 265.07379,459.98399 c -0.90228,-0.25997 -1.27497,-1.67123 -0.69459,-2.24791"
     id="path11486"
     inkscape:connector-curvature="0" />
  <path
     style="fill:none;fill-rule:evenodd;stroke:#000000;stroke-width:1px;stroke-linecap:round;stroke-linejoin:round;stroke-opacity:1"
     d="m 264.92581,462.36958 c -0.16612,0.25185 -0.36942,0.454 -0.49349,0.7002 -0.13401,0.2659 -0.50121,0.55982 -0.77375,0.55895 -1.35578,-0.005 -0.36813,-2.41219 -0.1334,-2.17595 0.0934,0.0939 -0.18773,0.18654 -0.2816,0.27981 -0.21076,0.20942 -0.1939,0.54245 -0.35313,0.70066 -0.0984,0.0978 -0.44346,1.877 -0.70693,1.61182 -0.30816,-0.31011 1.04461,-2.89126 0.50223,-3.43712 -0.49263,-0.49579 -0.53742,3.68334 -1.13271,3.08422 -0.39971,-0.40228 0.5361,-1.57257 0.42645,-1.68291 -0.1913,-0.19252 -0.91899,1.1168 -1.19571,0.83831 -0.26228,-0.26396 0.32034,-3.32634 0.50246,-3.5073 0.32413,-0.32206 0.91115,-0.69547 1.26656,-1.04861 0.26573,-0.26403 0.30234,-1.48964 0.70784,-1.89254 0.96997,-0.96381 2.88355,-2.37822 4.21402,-1.0392 0.25398,0.25562 0.55951,0.59399 0.55804,1.05445"
     id="path11488"
     inkscape:connector-curvature="0" />
  <path
     style="fill:none;fill-rule:evenodd;stroke:#000000;stroke-width:1px;stroke-linecap:round;stroke-linejoin:round;stroke-opacity:1"
     d="m 277.28928,480.51508 c -2.79759,-3.5571 3.15131,-1.10253 4.00639,-1.95217 0.55884,-0.55527 1.00669,-1.62986 1.55087,-2.17056 0.31215,-0.31015 3.87293,-1.66408 4.42477,-1.10869 0.27448,0.27623 -2.01936,2.07641 -2.25308,2.30866 -0.0381,0.0379 1.97098,-1.87227 1.96653,-0.48494 -0.004,1.27098 -0.9094,2.65245 -1.62485,3.36334 -0.55813,0.55459 -2.12357,0.15131 -2.66898,0.69324 -0.60712,0.60324 -1.4558,1.10745 -2.18021,1.46677 -0.73371,0.36392 -6.09292,1.74403 -6.53145,1.52302 -0.42742,-0.21542 -0.67825,-0.5418 -0.97978,-0.84526"
     id="path11490"
     inkscape:connector-curvature="0" />
  <path
     style="fill:none;stroke:#000000;stroke-width:1;stroke-linecap:butt;stroke-linejoin:miter;stroke-miterlimit:4;stroke-dasharray:none;stroke-opacity:1"
     d="m 214.70684,24.808679 -0.002,537.398941"
     id="path14359-1-7-5-3-0-73-1-9"
     inkscape:connector-curvature="0"
     sodipodi:nodetypes="cc"
     inkscape:transform-center-x="0.03366111"
     inkscape:transform-center-y="-0.1641457" />
  <path
     style="fill:none;stroke:#000000;stroke-width:1;stroke-linecap:butt;stroke-linejoin:miter;stroke-miterlimit:4;stroke-dasharray:none;stroke-opacity:1"
     d="m 6.0747745,23.518189 -0.002,539.074361 417.2404355,0 0.002,-539.074361 z"
     id="path14359-1-7-5-3-0-73-1-9-3"
     inkscape:connector-curvature="0"
     sodipodi:nodetypes="ccccc"
     inkscape:transform-center-x="0.03366111"
     inkscape:transform-center-y="-0.1641457" />
  <path
     style="fill:none;stroke:#000000;stroke-width:1;stroke-linecap:butt;stroke-linejoin:miter;stroke-miterlimit:4;stroke-dasharray:none;stroke-opacity:1"
     d="m 5.5245683,21.021716 418.2636717,0.002"
     id="path14359-1-7-5-3-0-73-1-9-1"
     inkscape:connector-curvature="0"
     sodipodi:nodetypes="cc"
     inkscape:transform-center-x="0.16414571"
     inkscape:transform-center-y="0.033661302" />
  <path
     style="fill:none;stroke:#000000;stroke-width:3;stroke-linecap:butt;stroke-linejoin:miter;stroke-miterlimit:4;stroke-dasharray:none;stroke-opacity:1"
     d="m 5.9890461,25.109121 417.2882739,0.002"
     id="path14359-1-7-5-3-0-73-1-9-14"
     inkscape:connector-curvature="0"
     sodipodi:nodetypes="cc"
     inkscape:transform-center-x="0.16414571"
     inkscape:transform-center-y="0.033661302" />
  <path
     style="fill:none;stroke:#000000;stroke-width:3;stroke-linecap:butt;stroke-linejoin:miter;stroke-miterlimit:4;stroke-dasharray:none;stroke-opacity:1"
     d="m 230.67125,490.66544 149.88055,0.002"
     id="path14359-1-7-5-3-0-73-1-9-9"
     inkscape:connector-curvature="0"
     sodipodi:nodetypes="cc"
     inkscape:transform-center-x="0.16414111"
     inkscape:transform-center-y="0.033664302" />
  <path
     style="fill:none;stroke:#000000;stroke-width:3;stroke-linecap:butt;stroke-linejoin:miter;stroke-miterlimit:4;stroke-dasharray:none;stroke-opacity:1"
     d="m 230.67125,410.35161 149.88055,0.002"
     id="path14359-1-7-5-3-0-73-1-9-2"
     inkscape:connector-curvature="0"
     sodipodi:nodetypes="cc"
     inkscape:transform-center-x="0.16414111"
     inkscape:transform-center-y="0.033664302" />
  <path
     style="fill:none;stroke:#000000;stroke-width:2;stroke-linecap:butt;stroke-linejoin:miter;stroke-miterlimit:4;stroke-dasharray:none;stroke-opacity:1"
     d="m 224.53055,395.64626 189.31028,0.002"
     id="path14359-1-7-5-3-0-73-1-9-10"
     inkscape:connector-curvature="0"
     sodipodi:nodetypes="cc"
     inkscape:transform-center-x="0.16414111"
     inkscape:transform-center-y="0.033664302" />
  <path
     style="fill:none;stroke:#000000;stroke-width:2;stroke-linecap:butt;stroke-linejoin:miter;stroke-miterlimit:4;stroke-dasharray:none;stroke-opacity:1"
     d="m 224.53055,551.91081 189.31028,0.002"
     id="path14359-1-7-5-3-0-73-1-9-0"
     inkscape:connector-curvature="0"
     sodipodi:nodetypes="cc"
     inkscape:transform-center-x="0.16414111"
     inkscape:transform-center-y="0.033664302" />
  <path
     style="fill:none;stroke:#000000;stroke-width:1;stroke-linecap:butt;stroke-linejoin:miter;stroke-miterlimit:4;stroke-dasharray:none;stroke-opacity:1"
     d="m 399.69833,411.31128 -0.002,77.93584"
     id="path14359-1-7-5-3-0-73-1-9-38"
     inkscape:connector-curvature="0"
     sodipodi:nodetypes="cc"
     inkscape:transform-center-x="0.03366111"
     inkscape:transform-center-y="-0.1641457" />
  <path
     style="fill:none;stroke:#000000;stroke-width:1;stroke-linecap:butt;stroke-linejoin:miter;stroke-miterlimit:4;stroke-dasharray:none;stroke-opacity:1"
     d="m 382.74929,489.18607 21.46303,0.002"
     id="path14359-1-7-5-3-0-73-1-9-6"
     inkscape:connector-curvature="0"
     sodipodi:nodetypes="cc"
     inkscape:transform-center-x="0.16414599"
     inkscape:transform-center-y="0.033664596" />
  <path
     style="fill:none;stroke:#000000;stroke-width:1;stroke-linecap:butt;stroke-linejoin:miter;stroke-miterlimit:4;stroke-dasharray:none;stroke-opacity:1"
     d="m 382.74929,411.1998 21.46303,0.002"
     id="path14359-1-7-5-3-0-73-1-9-12"
     inkscape:connector-curvature="0"
     sodipodi:nodetypes="cc"
     inkscape:transform-center-x="0.16414111"
     inkscape:transform-center-y="0.033664302" />
  <text
     xml:space="preserve"
     style="font-style:normal;font-variant:normal;font-weight:bold;font-stretch:normal;font-size:7.5px;line-height:129.99999523%;font-family:Arial;-inkscape-font-specification:'Arial Bold';text-align:start;letter-spacing:1.04000007px;word-spacing:0px;text-anchor:start;fill:#000000;fill-opacity:1;stroke:none;stroke-width:1px;stroke-linecap:butt;stroke-linejoin:miter;stroke-opacity:1;"
     x="-454.51089"
     y="398.92972"
     id="text15278"
     sodipodi:linespacing="130%"
     transform="matrix(0,-1,1,0,0,0)"><tspan
       sodipodi:role="line"
       id="tspan15280"
       x="-454.51089"
       y="398.92972">48</tspan></text>
  <text
     xml:space="preserve"
     style="font-style:normal;font-variant:normal;font-weight:bold;font-stretch:normal;font-size:6.25px;line-height:129.99999523%;font-family:Arial;-inkscape-font-specification:'Arial Bold';text-align:start;letter-spacing:0px;word-spacing:0px;text-anchor:start;fill:#000000;fill-opacity:1;stroke:none;stroke-width:1px;stroke-linecap:butt;stroke-linejoin:miter;stroke-opacity:1"
     x="-443.45071"
     y="399.25345"
     id="text15282"
     sodipodi:linespacing="130%"
     transform="matrix(0,-1,1,0,0,0)"><tspan
       sodipodi:role="line"
       id="tspan15284"
       x="-443.45071"
       y="399.25345">min</tspan></text>
  <text
     xml:space="preserve"
     style="font-style:normal;font-variant:normal;font-weight:bold;font-stretch:normal;font-size:5px;line-height:129.99999523%;font-family:Arial;-inkscape-font-specification:'Arial Bold';text-align:start;letter-spacing:0.2px;word-spacing:0px;text-anchor:start;fill:#000000;fill-opacity:1;stroke:none;stroke-width:1px;stroke-linecap:butt;stroke-linejoin:miter;stroke-opacity:1;"
     x="-455.21402"
     y="404.13107"
     id="text15286"
     sodipodi:linespacing="130%"
     transform="matrix(0,-1,1,0,0,0)"><tspan
       sodipodi:role="line"
       id="tspan15288"
       x="-455.21402"
       y="404.13107">1220</tspan></text>
  <text
     xml:space="preserve"
     style="font-style:normal;font-variant:normal;font-weight:bold;font-stretch:normal;font-size:7.5px;line-height:129.99999523%;font-family:Arial;-inkscape-font-specification:'Arial Bold';text-align:center;letter-spacing:0.09px;word-spacing:0px;text-anchor:middle;fill:#000000;fill-opacity:1;stroke:none;stroke-width:1px;stroke-linecap:butt;stroke-linejoin:miter;stroke-opacity:1;"
     x="319.61203"
     y="516.15106"
     id="text15290"
     sodipodi:linespacing="130%"><tspan
       sodipodi:role="line"
       id="tspan15292"
       x="238.39291"
       y="516.15106">Fig. A1</tspan><tspan
       sodipodi:role="line"
       x="238.39291"
       y="525.90106"
       id="tspan15294">Minimum Passage Width for One Wheelchair</tspan><tspan
       sodipodi:role="line"
       x="238.39291"
       y="535.65106"
       id="tspan15296">and One Ambulatory Person</tspan></text>
  <text
     xml:space="preserve"
     style="font-style:normal;font-variant:normal;font-weight:bold;font-stretch:normal;font-size:7.5px;line-height:129.99999523%;font-family:Arial;-inkscape-font-specification:'Arial Bold';text-align:start;letter-spacing:1.07999993px;word-spacing:0px;text-anchor:start;fill:#000000;fill-opacity:1;stroke:none;stroke-width:1px;stroke-linecap:butt;stroke-linejoin:miter;stroke-opacity:1;"
     x="6.4181652"
     y="9.366991"
     id="text15298"
     sodipodi:linespacing="130%"><tspan
       sodipodi:role="line"
       id="tspan15300"
       x="6.4181652"
       y="9.366991">A4.2 Space Allowances and Reach Ranges</tspan></text>
  <text
     xml:space="preserve"
     style="font-style:normal;font-variant:normal;font-weight:normal;font-stretch:normal;font-size:7.5px;line-height:129.99999523%;font-family:Arial;-inkscape-font-specification:Arial;text-align:start;letter-spacing:0px;word-spacing:0px;text-anchor:start;fill:#000000;fill-opacity:1;stroke:none;stroke-width:1px;stroke-linecap:butt;stroke-linejoin:miter;stroke-opacity:1;"
     x="6.1968489"
     y="572.61627"
     id="text15302"
     sodipodi:linespacing="130%"><tspan
       sodipodi:role="line"
       id="tspan15304"
       x="6.1968489"
       y="572.61627">A2</tspan></text>
</svg>
