<?xml version="1.0" encoding="UTF-8" standalone="no"?>
<!-- Created with Inkscape (http://www.inkscape.org/) -->

<svg
   xmlns:dc="http://purl.org/dc/elements/1.1/"
   xmlns:cc="http://creativecommons.org/ns#"
   xmlns:rdf="http://www.w3.org/1999/02/22-rdf-syntax-ns#"
   xmlns:svg="http://www.w3.org/2000/svg"
   xmlns="http://www.w3.org/2000/svg"
   xmlns:sodipodi="http://sodipodi.sourceforge.net/DTD/sodipodi-0.dtd"
   xmlns:inkscape="http://www.inkscape.org/namespaces/inkscape"
   id="svg10156"
   version="1.1"
   inkscape:version="0.48.2 r9819"
   width="40.535172"
   height="40.8125"
   viewBox="0 0 40.535172 40.8125"
   sodipodi:docname="ec26oc91.002_e.svg">
  <metadata
     id="metadata10162">
    <rdf:RDF>
      <cc:Work
         rdf:about="">
        <dc:format>image/svg+xml</dc:format>
        <dc:type
           rdf:resource="http://purl.org/dc/dcmitype/StillImage" />
        <dc:title></dc:title>
      </cc:Work>
    </rdf:RDF>
  </metadata>
  <defs
     id="defs10160" />
  <sodipodi:namedview
     pagecolor="#ffffff"
     bordercolor="#666666"
     borderopacity="1"
     objecttolerance="10"
     gridtolerance="10"
     guidetolerance="10"
     inkscape:pageopacity="0"
     inkscape:pageshadow="2"
     inkscape:window-width="1280"
     inkscape:window-height="676"
     id="namedview10158"
     showgrid="false"
     inkscape:zoom="8.3463203"
     inkscape:cx="-1.4801301"
     inkscape:cy="17.380252"
     inkscape:window-x="0"
     inkscape:window-y="0"
     inkscape:window-maximized="0"
     inkscape:current-layer="svg10156"
     fit-margin-top="0"
     fit-margin-left="0"
     fit-margin-right="0"
     fit-margin-bottom="0" />
  <path
     style="color:#000000;fill:#000000;fill-opacity:1;fill-rule:evenodd;stroke:#000000;stroke-width:1;stroke-linecap:butt;stroke-linejoin:round;stroke-miterlimit:4;stroke-opacity:1;stroke-dasharray:none;stroke-dashoffset:0;marker:none;visibility:visible;display:inline;overflow:visible;enable-background:accumulate"
     d="m 32.99357,22.09852 c 2.33592,0 4.229557,1.89364 4.229555,4.22956 l 0,-10e-5 c 2e-6,2.33592 -1.893635,4.22956 -4.229555,4.22956 -2.335921,0 -4.229554,-1.89364 -4.229556,-4.22956 -2e-6,-2.29091 1.821368,-4.15643 4.095038,-4.22746 l -0.01761,-0.16962 -2.204167,0 c -0.852756,0 -1.051612,0.55871 -1.281902,1.0255 l -1.779274,3.60654 -11.358571,0 c -0.750348,0 -1.06974,-0.57342 -1.16808,-1.04724 -0.397063,-1.91321 -2.003183,-3.85179 -4.524634,-3.94389 l -0.04467,0.34925 c 2.250758,0.0961 4.045989,1.95123 4.045987,4.22565 -2e-6,2.33592 -1.893635,4.22956 -4.229555,4.22956 -2.3359208,0 -4.2295587,-1.89363 -4.2295564,-4.22956 -2.3e-6,-2.33592 1.8936356,-4.22956 4.2295564,-4.22956 l 0.04028,-0.34878 c -2.3723768,0 -4.2695336,1.92417 -4.2695336,3.78619 0,1.20171 -2.8207875,1.28923 -2.8205038,0 l -2.74921767,0.0503 0,7.07532 c 0,4.33173 3.51155997,7.84329 7.84710027,7.84329 l 23.8349288,0 c 4.331731,0 7.843291,-3.51156 7.843291,-7.84329 l 0,-24.12912 c 0,-4.33173 -3.51156,-7.84337 -7.843291,-7.84329 L 8.3409012,0.5082 c -4.3317403,7e-5 -7.84330027,3.51156 -7.84330027,7.84329 l 0,16.80944 2.74926407,-0.0174 0.00138,-6.28728 c 3.137e-4,-0.67386 0.4873756,-1.22174 1.249206,-1.22174 l 10.713114,0 c 0.584789,0 1.17014,0.25371 1.450031,0.68474 l 2.013931,3.10145 5.034828,0 2.537553,-3.70564 -1.381838,-2.28012 c -0.332234,-0.5515 -0.421972,-1.75385 0.377735,-1.86727 0.667834,-0.0947 0.996618,0.53801 1.165217,0.84455 l 1.77226,3.22229 9.063689,0.36251 c 1.002068,0.0401 1.158107,3.93388 -0.002,3.93388 l -4.208869,0 z"
     id="path11550"
     inkscape:connector-curvature="0"
     sodipodi:nodetypes="cscssccsscssccsssccsccssssssssccsssscccssscsscc" />
  <path
     style="fill:none;stroke:#000000;stroke-width:3;stroke-linecap:round;stroke-linejoin:miter;stroke-miterlimit:4;stroke-opacity:1;stroke-dasharray:none"
     d="m 33.054988,26.3347 -0.002,-0.0134"
     id="path14359-1-7-5-3-0-73-1-9"
     inkscape:connector-curvature="0"
     sodipodi:nodetypes="cc" />
  <path
     style="fill:none;stroke:#000000;stroke-width:3;stroke-linecap:round;stroke-linejoin:miter;stroke-miterlimit:4;stroke-opacity:1;stroke-dasharray:none"
     d="m 10.337845,26.3347 -0.002,-0.0134"
     id="path14359-1-7-5-3-0-73-1-9-9"
     inkscape:connector-curvature="0"
     sodipodi:nodetypes="cc" />
</svg>
