<?xml version="1.0" encoding="UTF-8" standalone="no"?>
<!-- Created with Inkscape (http://www.inkscape.org/) -->

<svg
   xmlns:dc="http://purl.org/dc/elements/1.1/"
   xmlns:cc="http://creativecommons.org/ns#"
   xmlns:rdf="http://www.w3.org/1999/02/22-rdf-syntax-ns#"
   xmlns:svg="http://www.w3.org/2000/svg"
   xmlns="http://www.w3.org/2000/svg"
   xmlns:sodipodi="http://sodipodi.sourceforge.net/DTD/sodipodi-0.dtd"
   xmlns:inkscape="http://www.inkscape.org/namespaces/inkscape"
   id="svg7983"
   version="1.1"
   inkscape:version="0.48.2 r9819"
   width="41.4375"
   height="41.34375"
   viewBox="0 0 41.4375 41.34375"
   sodipodi:docname="ec26oc91.001_o.svg">
  <metadata
     id="metadata7989">
    <rdf:RDF>
      <cc:Work
         rdf:about="">
        <dc:format>image/svg+xml</dc:format>
        <dc:type
           rdf:resource="http://purl.org/dc/dcmitype/StillImage" />
        <dc:title></dc:title>
      </cc:Work>
    </rdf:RDF>
  </metadata>
  <defs
     id="defs7987" />
  <sodipodi:namedview
     pagecolor="#ffffff"
     bordercolor="#666666"
     borderopacity="1"
     objecttolerance="10"
     gridtolerance="10"
     guidetolerance="10"
     inkscape:pageopacity="0"
     inkscape:pageshadow="2"
     inkscape:window-width="1280"
     inkscape:window-height="676"
     id="namedview7985"
     showgrid="false"
     inkscape:zoom="6.209096"
     inkscape:cx="-26.965735"
     inkscape:cy="5.597287"
     inkscape:window-x="0"
     inkscape:window-y="0"
     inkscape:window-maximized="0"
     inkscape:current-layer="svg7983"
     fit-margin-top="0"
     fit-margin-left="0"
     fit-margin-right="0"
     fit-margin-bottom="0" />
  <path
     style="color:#000000;fill:#000000;fill-opacity:1;fill-rule:evenodd;stroke:#000000;stroke-width:1;stroke-linecap:butt;stroke-linejoin:round;stroke-miterlimit:4;stroke-opacity:1;stroke-dasharray:none;stroke-dashoffset:0;marker:none;visibility:visible;display:inline;overflow:visible;enable-background:accumulate"
     d="m 18.50764,18.67982 c -0.72952,-0.51531 -1.66477,-1.32629 -2.5585,-2.25213 -2.78483,0.62308 -5.58304,1.50328 -8.38403,2.4369 -1.84479,0.6149 -2.32102,-2.39813 -0.99929,-2.92349 l 10.00726,-3.97765 c 1.16113,-0.46152 2.07744,-0.12802 2.73158,0.83852 1.99984,2.95489 4.18232,5.72715 6.3423,8.52191 l 0.21474,-0.0689 c -0.12229,-0.3831 -0.18809,-0.79102 -0.18809,-1.21431 0,-2.20789 1.78984,-3.99774 3.99773,-3.99774 2.20789,0 3.99773,1.78985 3.99773,3.99774 0,2.07761 -1.61094,3.92845 -3.92541,4.02815 1.33485,0.0352 2.6468,-0.6327 3.53383,-1.47547 1.16116,1.34499 3.20567,1.58751 4.89612,1.56961 -0.8025,1.95748 -3.82732,1.89519 -4.85841,0.85599 l 0,-4.4e-4 c -0.97252,0.91561 -2.00753,0.78193 -3.01129,0.72093 l -2.18574,4.98141 c -0.66817,1.5228 -2.63588,0.48984 -1.95591,-1.01064 l 2.61324,-5.76665 c 0.33645,0.099 0.67413,0.14923 0.95244,0.12543 -1.76378,-0.0238 -3.23962,-1.11494 -3.80604,-2.63957 l -0.17173,0.15182 c 0.51353,1.19162 1.30824,1.83855 2.08945,2.46857 1.07582,0.86761 -0.5346,2.07545 -2.32794,2.04415 -0.98802,-0.0172 -1.59432,-0.6158 -2.15512,-1.28542 -0.89964,0.77831 -1.6273,1.30248 -2.74564,1.35128 -0.85683,0.0374 -1.59743,-0.53402 -2.30202,-1.3017 -1.02889,0.82814 -2.02303,1.79684 -3.13699,1.80184 -1.17159,0.005 -2.0522,-0.8286 -2.95053,-1.44677 -0.69627,0.6282 -1.19789,1.52335 -2.04706,1.52735 -1.19398,0.005 -1.96994,-0.73447 -2.83462,-1.13456 -0.80847,0.55699 -1.32758,1.00874 -2.18738,1.03298 -1.49445,0.0421 -2.45423,-2.13422 -1.30434,-2.60987 4.8082,-1.98889 9.74343,-3.64551 14.65966,-5.34927 z M 0.49653,32.99424 c 0,4.33173 3.51156,7.84329 7.8471,7.84329 l 24.76352,0 c 4.33173,0 7.84329,-3.51156 7.84329,-7.84329 l 0,-24.65423 c 0,-4.33173 -3.51156,-7.84337 -7.84329,-7.84329 L 8.33983,0.49715 c -4.33174,8e-5 -7.8433,3.51156 -7.8433,7.84329 z"
     id="path9793"
     inkscape:connector-curvature="0"
     sodipodi:nodetypes="ccssssccsssccccccssccccsscscscscsscsssssssss" />
</svg>
