<?xml version="1.0" encoding="UTF-8" standalone="no"?>
<!-- Created with Inkscape (http://www.inkscape.org/) -->

<svg
   xmlns:dc="http://purl.org/dc/elements/1.1/"
   xmlns:cc="http://creativecommons.org/ns#"
   xmlns:rdf="http://www.w3.org/1999/02/22-rdf-syntax-ns#"
   xmlns:svg="http://www.w3.org/2000/svg"
   xmlns="http://www.w3.org/2000/svg"
   xmlns:sodipodi="http://sodipodi.sourceforge.net/DTD/sodipodi-0.dtd"
   xmlns:inkscape="http://www.inkscape.org/namespaces/inkscape"
   id="svg7983"
   version="1.1"
   inkscape:version="0.48.2 r9819"
   width="38.78125"
   height="39.40625"
   viewBox="0 0 38.78125 39.40625"
   sodipodi:docname="ec26oc91.001_g.svg">
  <metadata
     id="metadata7989">
    <rdf:RDF>
      <cc:Work
         rdf:about="">
        <dc:format>image/svg+xml</dc:format>
        <dc:type
           rdf:resource="http://purl.org/dc/dcmitype/StillImage" />
        <dc:title></dc:title>
      </cc:Work>
    </rdf:RDF>
  </metadata>
  <defs
     id="defs7987" />
  <sodipodi:namedview
     pagecolor="#ffffff"
     bordercolor="#666666"
     borderopacity="1"
     objecttolerance="10"
     gridtolerance="10"
     guidetolerance="10"
     inkscape:pageopacity="0"
     inkscape:pageshadow="2"
     inkscape:window-width="1280"
     inkscape:window-height="676"
     id="namedview7985"
     showgrid="false"
     inkscape:zoom="5.4447205"
     inkscape:cx="-31.243744"
     inkscape:cy="12.771048"
     inkscape:window-x="0"
     inkscape:window-y="0"
     inkscape:window-maximized="0"
     inkscape:current-layer="svg7983"
     fit-margin-top="0"
     fit-margin-left="0"
     fit-margin-right="0"
     fit-margin-bottom="0" />
  <path
     style="fill:#000000;fill-opacity:1;stroke:#000000;stroke-width:1;stroke-linecap:butt;stroke-linejoin:round;stroke-miterlimit:4;stroke-opacity:1;stroke-dasharray:none"
     d="m 4.5016811,27.72223 c 6.3364749,-0.09 12.7060099,-0.29432 18.7392919,-0.0812 l 0.02146,-18.51041 0.01781,18.51301 7.03024,0 -0.0014,0.19601 c -6.001561,0.49324 -12.990553,0.38304 -19.292238,0.18381 -1.413922,-0.0447 -0.928672,1.2863 -0.627804,2.21105 0.320121,0.98394 1.118421,2.00248 2.520468,1.98938 0.710448,-0.007 1.306278,-0.29176 1.807272,-0.818 0.609375,0.39471 1.104975,0.7963 2.003698,0.833 0.600064,0.0245 1.175464,-0.27062 1.453391,-0.819 0.344315,0.36901 0.641298,0.7811 1.492991,0.831 0.819781,0.0481 1.324358,-0.33034 1.728544,-0.818 0.319081,0.58209 0.759156,0.8692 1.611005,0.831 0.816641,-0.0366 1.424067,-0.26274 1.924654,-0.817 0.462391,0.94849 1.046665,0.829 1.611004,0.831 l 0.924174,0.004 c 0.660622,0.003 1.070702,-0.51488 1.624226,-1.14251 0.587756,-0.66644 1.040803,-1.39605 1.390681,-2.0779 0.259447,-0.50561 0.565593,-1.2958 -0.18716,-1.2327 l 0.01646,-0.18514 3.419763,0 c 1.533767,0 1.675892,-1.17426 0.774787,-2.70953 L 25.246495,9.15983 c -0.833724,-1.42047 -1.9642,-0.80087 -1.984083,-0.043 L 23.242942,5.42771 C 23.243046,4.27572 22.048956,3.87696 21.395513,4.72057 15.770683,11.98235 9.942234,18.97255 3.9413203,25.89772 3.2469538,26.69904 3.4687302,27.73691 4.5016501,27.72223 z M 0.4878995,8.33601 c 0,-4.33173 3.511559,-7.84321 7.8432975,-7.84329 l 22.098855,-4.3e-4 c 4.331729,-8e-5 7.843288,3.51156 7.843288,7.84329 l 0,22.73563 c 0,4.33173 -3.511559,7.84329 -7.843288,7.84329 l -22.095058,0 c -4.3355355,0 -7.8470945,-3.51156 -7.8470945,-7.84329 z"
     id="path14359-1-7-5-3-0-73-1-9"
     inkscape:connector-curvature="0"
     sodipodi:nodetypes="scccccssscscscscssssccssscsssssssssssss" />
</svg>
