<?xml version="1.0" encoding="UTF-8" standalone="no"?>
<!-- Created with Inkscape (http://www.inkscape.org/) -->

<svg
   xmlns:dc="http://purl.org/dc/elements/1.1/"
   xmlns:cc="http://creativecommons.org/ns#"
   xmlns:rdf="http://www.w3.org/1999/02/22-rdf-syntax-ns#"
   xmlns:svg="http://www.w3.org/2000/svg"
   xmlns="http://www.w3.org/2000/svg"
   xmlns:sodipodi="http://sodipodi.sourceforge.net/DTD/sodipodi-0.dtd"
   xmlns:inkscape="http://www.inkscape.org/namespaces/inkscape"
   id="svg7983"
   version="1.1"
   inkscape:version="0.48.2 r9819"
   width="40.90625"
   height="42"
   viewBox="0 0 40.90625 42"
   sodipodi:docname="ec26oc91.001_l.svg">
  <metadata
     id="metadata7989">
    <rdf:RDF>
      <cc:Work
         rdf:about="">
        <dc:format>image/svg+xml</dc:format>
        <dc:type
           rdf:resource="http://purl.org/dc/dcmitype/StillImage" />
        <dc:title></dc:title>
      </cc:Work>
    </rdf:RDF>
  </metadata>
  <defs
     id="defs7987" />
  <sodipodi:namedview
     pagecolor="#ffffff"
     bordercolor="#666666"
     borderopacity="1"
     objecttolerance="10"
     gridtolerance="10"
     guidetolerance="10"
     inkscape:pageopacity="0"
     inkscape:pageshadow="2"
     inkscape:window-width="1280"
     inkscape:window-height="676"
     id="namedview7985"
     showgrid="false"
     inkscape:zoom="7.2956492"
     inkscape:cx="30.466235"
     inkscape:cy="13.39111"
     inkscape:window-x="0"
     inkscape:window-y="0"
     inkscape:window-maximized="0"
     inkscape:current-layer="svg7983"
     fit-margin-top="0"
     fit-margin-left="0"
     fit-margin-right="0"
     fit-margin-bottom="0" />
  <path
     style="fill:#000000;fill-opacity:1;stroke:#000000;stroke-width:1;stroke-linecap:butt;stroke-linejoin:round;stroke-miterlimit:4;stroke-opacity:1;stroke-dasharray:none"
     d="m 13.44335,6.04331 c 0,1.63685 -1.41896,2.97033 -3.00877,3.02275 0.60622,-0.0278 1.27223,-0.20403 1.78682,-0.56536 1.93674,1.0612 6.74481,1.55367 9.48805,2.29864 1.10163,0.29912 1.56096,-0.43416 2.66057,-0.0433 0.89694,0.31883 1.77203,0.79566 1.79463,1.65242 0.0303,1.14846 -0.62699,1.62112 -1.88169,1.69372 -1.07895,0.0624 -2.08831,-1.01063 -2.94327,-0.94243 -2.02051,0.16124 -4.14657,0.37672 -6.16132,0.31462 -0.0368,0.897 -0.0711,1.79401 0.19348,2.69101 l 0,2.4e-4 c 0.26375,0.89434 -0.24476,1.25039 -0.83167,1.29559 1.1944,-0.0113 2.21487,0.80023 2.48806,1.70085 0.24861,0.81959 0.22288,1.37851 0.0499,2.04848 0.70335,1.42686 1.3479,2.87333 1.74554,4.40209 0.22101,0.84968 0.5254,1.81784 0.4439,2.71941 -0.14867,2.31948 -0.24896,5.23629 0.1324,6.84277 2.54942,-0.50663 5.18779,-1.28009 7.94279,-2.40343 1.56398,-0.63771 2.8245,-1.31425 3.96216,-2.91289 1.0712,1.02616 0.8703,2.63475 -0.25022,3.54401 -0.8716,0.70728 -2.02265,1.40567 -2.96187,1.7681 -1.03454,0.39923 -1.891,0.65764 -2.97146,0.29613 0.40707,0.12201 0.59462,0.30409 1.27736,0.32859 0.88962,0.032 1.32494,-0.20725 1.92851,-0.36977 0.47653,0.22623 0.94977,0.52774 1.61964,0.48864 0.83302,-0.0486 1.44602,-0.40083 2.16093,-0.98071 0.61044,0.52203 1.01088,0.99382 1.69653,0.91022 0.52558,-0.0641 1.34439,-0.1441 1.77289,-0.59325 1.20899,0.97052 0.50114,3.13535 -1.66631,3.12215 -0.7906,-0.005 -1.53012,-0.26362 -2.11288,-0.85118 -0.5441,0.65457 -1.21838,0.84265 -2.005,0.84565 -0.84036,0.003 -1.54127,-0.37249 -2.04382,-0.85108 -0.66401,0.48523 -1.33241,0.84033 -2.23616,0.84533 -0.81552,0.004 -1.54301,-0.32682 -2.04388,-0.85108 -0.57185,0.50068 -1.16887,0.87669 -2.04377,0.84559 -0.69104,-0.0246 -1.401,-0.0725 -1.88947,-0.85087 -0.71071,0.62836 -1.50997,0.85967 -2.42928,0.84507 -0.89887,-0.0143 -1.76422,-0.11636 -2.39087,-0.85155 -0.62274,0.70962 -1.45685,0.82088 -2.3521,0.84518 -0.79417,0.0215 -1.60579,-0.076 -2.19801,-0.85129 -0.66125,0.51749 -1.33308,0.85352 -2.10157,0.84552 -1.71287,-0.0188 -3.14878,-1.69968 -1.87032,-2.71109 0.48844,0.32427 0.98286,0.44067 1.69682,0.39397 0.90091,-0.0589 1.5271,-0.51972 2.23648,-0.91501 0.66843,0.67527 1.33643,1.03047 2.0053,0.97447 0.72,-0.0603 1.39954,-0.27588 2.11984,-1.10821 0.61713,0.6874 1.23026,1.03866 2.15955,1.05216 0.30643,-3.36676 -1.37419,-7.89429 -0.93901,-9.32353 -1.03014,-1.0741 -1.62729,-1.55106 -2.18316,-3.09333 -1.15391,-0.62792 -1.55135,-1.81305 -1.64305,-2.54215 -0.19522,-1.55136 0.64611,-3.13399 2.03286,-3.46896 0.29847,-0.0721 0.58921,-0.10315 0.84929,-0.13495 -0.60661,-3.6e-4 -1.46953,0.2058 -1.9347,0.61184 -0.57616,0.50293 -1.55821,-0.20333 -1.73135,-0.77333 C 10.17574,15.0383 8.03346,12.11874 8.22348,10.16768 8.29458,9.43747 8.81785,8.99982 9.38401,8.91622 c 0.36081,0.098 0.7138,0.15065 1.04503,0.15245 -1.68449,0.002 -3.03973,-1.35345 -3.03973,-3.02523 0,-1.6273 1.24416,-3.01572 3.02043,-3.02559 1.67834,-0.009 3.03361,1.12834 3.03361,3.02546 z M 8.33478,0.50812 c -4.33174,8e-5 -7.8433,3.51156 -7.8433,7.84329 l 0,25.30702 c 0,4.33173 3.51156,7.84329 7.8471,7.84329 l 24.21525,0 c 4.33173,0 7.84329,-3.51156 7.84329,-7.84329 l 0,-25.30745 c 0,-4.33173 -3.51156,-7.84337 -7.84329,-7.84329 z"
     id="path14359-1-7-5-3-0-73-1-9"
     inkscape:connector-curvature="0"
     sodipodi:nodetypes="sccsssssccscscsccscsscscscscscscscscscscscscsccccsscsssccssssssssssss" />
</svg>
