<?xml version="1.0" encoding="UTF-8" standalone="no"?>
<!-- Created with Inkscape (http://www.inkscape.org/) -->

<svg
   xmlns:dc="http://purl.org/dc/elements/1.1/"
   xmlns:cc="http://creativecommons.org/ns#"
   xmlns:rdf="http://www.w3.org/1999/02/22-rdf-syntax-ns#"
   xmlns:svg="http://www.w3.org/2000/svg"
   xmlns="http://www.w3.org/2000/svg"
   xmlns:xlink="http://www.w3.org/1999/xlink"
   xmlns:sodipodi="http://sodipodi.sourceforge.net/DTD/sodipodi-0.dtd"
   xmlns:inkscape="http://www.inkscape.org/namespaces/inkscape"
   id="svg10741"
   version="1.1"
   inkscape:version="0.92.2 5c3e80d, 2017-08-06"
   width="417"
   height="565.79999"
   viewBox="0 0 417 565.79999"
   sodipodi:docname="ec28oc91.040.svg">
  <metadata
     id="metadata10747">
    <rdf:RDF>
      <cc:Work
         rdf:about="">
        <dc:format>image/svg+xml</dc:format>
        <dc:type
           rdf:resource="http://purl.org/dc/dcmitype/StillImage" />
        <dc:title></dc:title>
      </cc:Work>
    </rdf:RDF>
  </metadata>
  <defs
     id="defs10745" />
  <sodipodi:namedview
     pagecolor="#ffffff"
     bordercolor="#666666"
     borderopacity="1"
     objecttolerance="10"
     gridtolerance="10"
     guidetolerance="10"
     inkscape:pageopacity="0"
     inkscape:pageshadow="2"
     inkscape:window-width="1280"
     inkscape:window-height="756"
     id="namedview10743"
     showgrid="false"
     inkscape:zoom="1.439029"
     inkscape:cx="234.09454"
     inkscape:cy="159.22667"
     inkscape:window-x="3"
     inkscape:window-y="0"
     inkscape:window-maximized="0"
     inkscape:current-layer="svg10741"
     showguides="false" />
  <path
     style="fill:none;stroke:#000000;stroke-width:2;stroke-linecap:butt;stroke-linejoin:miter;stroke-miterlimit:4;stroke-dasharray:none;stroke-opacity:1"
     d="m 289.70899,75.356824 -0.002,481.957396"
     id="path14359-1-7-5-3-0-73-1-9"
     inkscape:connector-curvature="0"
     sodipodi:nodetypes="cc"
     inkscape:transform-center-x="0.03366111"
     inkscape:transform-center-y="-0.1641457" />
  <path
     style="fill:none;stroke:#000000;stroke-width:2;stroke-linecap:butt;stroke-linejoin:miter;stroke-miterlimit:4;stroke-dasharray:none;stroke-opacity:1"
     d="m 3.9782056,67.283228 405.6902544,0.002"
     id="path14359-1-7-5-3-0-73-1-9-7"
     inkscape:connector-curvature="0"
     sodipodi:nodetypes="cc"
     inkscape:transform-center-x="0.16414611"
     inkscape:transform-center-y="0.033661301" />
  <path
     style="fill:#000000;stroke:#000000;stroke-width:1;stroke-linecap:round;stroke-linejoin:round;stroke-miterlimit:4;stroke-dasharray:none;stroke-opacity:1;fill-opacity:1"
     d="M 51.547043,493.47178 33.535751,509.2064 c -1.30738,1.14213 -1.760737,3.42423 -1.751279,4.70108 0.01718,2.31896 -1.869354,4.96061 -3.291328,4.9508 l -4.531843,-0.0313 c -1.315895,-0.009 -2.195911,1.26274 -1.826134,2.4818 -1.562083,-0.12553 -3.948032,0.72091 -3.997284,1.84817 l -0.05226,1.1961 c 0.623212,-0.39188 1.378501,-1.01305 2.42973,-1.07176 0.944963,-0.0528 1.77931,0.35791 2.540766,0.79171 l 11.127797,6.33953 c 1.69211,0.964 2.206427,2.58311 0.859579,3.87964 -1.284231,1.23626 -2.723999,2.8117 -2.606761,4.69188 0.152662,2.4483 2.972281,2.72626 3.919123,1.9906 -1.139825,0.16282 -2.407883,-0.25514 -2.454687,-2.13354 -0.05528,-2.21857 1.396279,-4.15895 2.700842,-4.5913 -0.402129,1.66191 -0.557758,4.43475 0.824935,5.50096 1.490439,1.1493 4.67539,0.92752 6.559179,-1.26284 L 43.4073,538.34804 c -2.245956,1.13714 -5.546773,0.73 -5.489805,-1.48368 0.06157,-2.39241 5.049541,-4.54542 5.104688,-5.97989 0.03464,-0.90112 -0.564343,-1.88138 -1.513906,-1.946 -0.677872,-0.0461 -1.59775,-0.0548 -2.371501,-0.0503 l -0.20342,0.41192 c 1.185396,0.0505 1.925769,0.61245 1.892434,1.34215 -0.03279,0.71782 -0.43642,1.25089 -0.894996,1.90222 -0.66663,0.94683 -1.70902,1.0182 -2.452835,0.42036 0.239707,-0.78812 0.151944,-1.89498 -0.875324,-2.36642 0.430821,-0.64542 1.384508,-1.29743 2.102448,-0.9157 l 0.433651,-0.8069 c -0.629337,-0.0517 -2.001574,-0.16969 -1.988149,-0.84619 l 0.04251,-2.14228 c -0.743363,-0.0796 -0.449349,-1.13599 -0.522912,-2.16515 -0.445573,-0.21877 -0.758593,-0.21813 -0.650622,-1.24573 0.163771,-1.55867 1.476747,-1.73846 1.508714,-2.30193 0.03268,-0.57602 -0.88679,-0.58035 -0.867348,-1.68803 0.04046,-2.30499 0.688692,-4.88821 3.106275,-6.88876 3.906624,-3.21241 7.703447,-6.31606 11.396256,-9.31667 1.079668,-0.8773 1.109569,-3.37772 -0.407544,-4.21647 0.624709,1.5092 -0.06808,2.36061 -0.855553,3.06252 -4.021018,3.58409 -7.73648,7.04862 -11.891,10.1861 -1.197585,0.90441 -2.186526,2.99602 -2.154294,4.96096 0.0316,1.92662 -0.768824,1.28622 -0.721026,2.37067 0.0342,0.77598 0.697463,0.72579 0.650251,1.31229 -0.12345,1.53359 -1.862237,1.06373 -1.744241,3.12446 0.02753,0.48072 1.383109,0.83737 1.323456,1.70253 -0.18934,2.74599 0.57221,2.64471 0.383178,3.52326 -0.09831,0.45688 -0.536139,0.79714 -0.965765,0.54976 -3.739943,-2.15356 -7.479885,-4.30936 -11.219827,-6.26526 -1.107334,-0.57911 -1.004413,-2.26002 0.305861,-2.28393 l 6.580839,-0.12007 c 1.701308,-0.031 2.508286,-3.59706 2.537433,-6.07237 0.01441,-1.22401 0.588464,-2.43759 1.967502,-3.65111 l 18.06855,-15.89983 c 0.952391,-0.83808 1.970131,-3.6558 -0.373646,-4.70283 1.403059,1.10891 -0.21512,2.8365 -1.100591,3.61005 z"
     id="path14359-1-7-5-3-0-73-1-9-6"
     inkscape:connector-curvature="0"
     sodipodi:nodetypes="ssssscscssssscscsccsssccssccccsccssscscssssssssssssssscs"
     inkscape:transform-center-x="0.03366111"
     inkscape:transform-center-y="-0.1641457" />
  <path
     style="fill:#000000;stroke:#000000;stroke-width:1;stroke-linecap:round;stroke-linejoin:round;stroke-miterlimit:4;stroke-dasharray:none;stroke-opacity:1;fill-opacity:1"
     d="m 307.61431,98.456354 -8.16967,0 0.002,-21.926697 8.4057,0 10.32335,11.30227 0.034,-11.287144 8.25136,-0.01513 -0.002,21.926697 -8.22413,0 -10.60669,-12.116303"
     id="path14359-1-7-5-3-0-73-1-9-6-3"
     inkscape:connector-curvature="0"
     sodipodi:nodetypes="cccccccccc"
     inkscape:transform-center-x="0.03366111"
     inkscape:transform-center-y="-0.1641457" />
  <path
     style="fill:none;stroke:#000000;stroke-width:1;stroke-linecap:round;stroke-linejoin:round;stroke-miterlimit:4;stroke-dasharray:none;stroke-opacity:1"
     d="m 307.61539,86.340559 -10e-4,12.124882"
     id="path14359-1-7-5-3-0-73-1-9-6-9"
     inkscape:connector-curvature="0"
     sodipodi:nodetypes="cc"
     inkscape:transform-center-x="0.03366111"
     inkscape:transform-center-y="-0.1641457" />
  <path
     style="fill:#000000;stroke:#000000;stroke-width:1;stroke-linecap:round;stroke-linejoin:round;stroke-miterlimit:4;stroke-dasharray:none;stroke-opacity:1;fill-opacity:1"
     d="m 328.51803,76.502396 -0.002,21.957984 8.22178,0 0.002,-21.957984 z"
     id="path14359-1-7-5-3-0-73-1-9-6-8"
     inkscape:connector-curvature="0"
     sodipodi:nodetypes="ccccc"
     inkscape:transform-center-x="0.03366111"
     inkscape:transform-center-y="-0.1641457" />
  <path
     style="fill:#000000;fill-opacity:1;stroke:#000000;stroke-width:1;stroke-linecap:round;stroke-linejoin:round;stroke-miterlimit:4;stroke-dasharray:none;stroke-opacity:1"
     d="m 338.9231,76.502396 -0.002,21.957983 21.32155,0 0.002,-21.957983 z m 13.5325,6.451538 -0.002,9.13358 -5.66476,0 0.002,-9.13358 z"
     id="path14359-1-7-5-3-0-73-1-9-6-8-2"
     inkscape:connector-curvature="0"
     sodipodi:nodetypes="cccccccccc"
     inkscape:transform-center-x="0.03366111"
     inkscape:transform-center-y="-0.1641457" />
  <path
     style="fill:#000000;fill-opacity:1;stroke:#000000;stroke-width:1;stroke-linecap:round;stroke-linejoin:round;stroke-miterlimit:4;stroke-dasharray:none;stroke-opacity:1"
     d="m 362.13156,91.257896 -6.5e-4,7.202484 21.87229,0 0.001,-13.850722 -12.66705,0 c -1.33614,0 -1.32248,-2.360304 2.4e-4,-2.360304 l 12.66705,0 5e-4,-5.746958 -21.87229,0 -0.001,12.355832 12.98192,0 c 1.46811,0 1.47556,2.399668 -2.5e-4,2.399668 z"
     id="path14359-1-7-5-3-0-73-1-9-6-8-3"
     inkscape:connector-curvature="0"
     sodipodi:nodetypes="ccccssccccssc"
     inkscape:transform-center-x="0.03366111"
     inkscape:transform-center-y="-0.1641457" />
  <path
     style="fill:#000000;fill-opacity:1;stroke:#000000;stroke-width:1;stroke-linecap:round;stroke-linejoin:round;stroke-miterlimit:4;stroke-dasharray:none;stroke-opacity:1"
     d="m 401.60724,98.460377 8.20211,0 0.002,-21.957981 -8.20211,0 0,8.575824 -7.42517,0 0,-8.575824 -8.32996,0 -0.002,21.957981 8.32996,0 0,-9.165905 7.42517,0 z"
     id="path14359-1-7-5-3-0-73-1-9-6-8-37"
     inkscape:connector-curvature="0"
     sodipodi:nodetypes="ccccccccccccc"
     inkscape:transform-center-x="0.03366111"
     inkscape:transform-center-y="-0.1641457" />
  <path
     style="fill:#000000;stroke:#000000;stroke-width:1;stroke-linecap:round;stroke-linejoin:round;stroke-miterlimit:4;stroke-dasharray:none;stroke-opacity:1;fill-opacity:1"
     d="m 50.002907,505.16164 c -1.452047,1.63754 -2.817404,3.42848 -4.654877,4.69315 -2.916635,2.00742 -5.421948,4.53517 -5.348462,7.45729 0.02033,0.80828 0.274849,1.35887 0.257207,2.0275 -0.03883,1.47176 -1.523257,1.94991 -1.469604,2.53807 0.05322,0.58344 0.759174,0.67596 0.746515,1.57952 -0.0087,0.61946 -0.33472,0.85092 -0.197021,1.15861 0.27424,0.61277 0.943184,0.40739 1.125427,1.43266 0.182969,1.02936 -0.19176,1.59394 0.662336,1.55442 0.827335,-0.0383 1.68303,-0.097 2.613681,0.0168 2.348531,0.28728 3.281312,2.31236 5.08896,2.14252 1.706149,-0.1603 3.766166,-1.93408 3.362141,-2.9359 -0.298874,-0.74109 -1.025229,0.78275 -2.881863,0.84216 -1.065055,0.0341 -2.005887,-1.25403 -2.77023,-1.2932 -0.936502,-0.048 -1.873003,-0.0504 -2.809505,0.01 -1.642457,0.10595 -1.264703,-1.42715 -1.217399,-2.36149 0.04403,-0.86958 -0.853365,-1.15606 -0.933528,-1.8859 -0.09101,-0.82859 1.312913,-2.30839 1.333121,-3.05472 0.0121,-0.44707 -0.06276,-0.98227 -0.03347,-1.64731 0.115979,-2.63307 1.750611,-5.23587 3.545566,-6.82895 1.894169,-1.68115 3.965689,-2.18526 5.678137,-4.36708 0.772477,-0.98421 0.175476,-2.65813 -0.602371,-3.68626 0.09226,1.24661 -0.853621,1.88504 -1.494763,2.60809 z"
     id="path14359-1-7-5-3-0-73-1-9-79-2"
     inkscape:connector-curvature="0"
     sodipodi:nodetypes="ssssssssssssssssssssscs"
     inkscape:transform-center-x="0.03366111"
     inkscape:transform-center-y="-0.1641457" />
  <path
     style="fill:none;fill-opacity:1;stroke:#000000;stroke-width:3;stroke-linecap:round;stroke-linejoin:round;stroke-miterlimit:4;stroke-dasharray:none;stroke-opacity:1"
     d="m 407.35439,173.21733 a 42.129017,41.320995 0 0 1 -42.12902,41.321 42.129017,41.320995 0 0 1 -42.12901,-41.321 42.129017,41.320995 0 0 1 42.12901,-41.32099 42.129017,41.320995 0 0 1 42.12902,41.32099 z"
     id="path8440" />
  <path
     style="fill:none;stroke:#000000;stroke-width:3;stroke-linecap:round;stroke-linejoin:round;stroke-miterlimit:4;stroke-dasharray:none;stroke-opacity:1"
     d="m 369.14949,156.99781 c -9.18835,-1.33222 -22.52869,-2.08348 -28.58078,-1.96054 -2.14404,4.20589 -4.64673,18.63715 -3.96392,28.53941 0.67794,9.83166 3.13357,18.71095 8.58473,18.21159 6.90627,-0.63266 13.81254,-1.50046 20.7188,-2.39925 3.60918,-0.4697 4.87464,-5.35766 5.49118,-9.71916 1.25495,-8.87762 1.94193,-19.33108 2.22652,-28.47097 0.0846,-2.71621 -1.49722,-3.76911 -4.47653,-4.20108 z"
     id="path14359-1-7-5-3-0-73-1-9-79-4"
     inkscape:connector-curvature="0"
     sodipodi:nodetypes="scssssss"
     inkscape:transform-center-x="0.03366111"
     inkscape:transform-center-y="-0.1641457" />
  <path
     style="fill:none;stroke:#000000;stroke-width:3;stroke-linecap:round;stroke-linejoin:round;stroke-miterlimit:4;stroke-dasharray:none;stroke-opacity:1"
     d="m 391.24045,170.81084 c -0.95919,5.94164 -3.64519,12.14695 -5.75315,14.02173"
     id="path14359-1-7-5-3-0-73-1-9-79-8"
     inkscape:connector-curvature="0"
     sodipodi:nodetypes="cc"
     inkscape:transform-center-x="0.03366111"
     inkscape:transform-center-y="-0.1641457" />
  <path
     style="fill:none;stroke:#000000;stroke-width:3;stroke-linecap:round;stroke-linejoin:round;stroke-miterlimit:4;stroke-dasharray:none;stroke-opacity:1"
     d="m 348.78059,150.96746 c 2.65283,-3.70769 5.57308,-6.31265 8.02814,-7.55004 2.72414,-1.37301 6.57491,-1.51666 12.20623,-1.41767 8.66965,0.15239 12.82924,1.1608 16.74629,3.55316 4.83943,2.95572 6.73182,6.12925 8.37723,11.92268"
     id="path14359-1-7-5-3-0-73-1-9-79-8-3"
     inkscape:connector-curvature="0"
     sodipodi:nodetypes="csssc"
     inkscape:transform-center-x="0.03366111"
     inkscape:transform-center-y="-0.1641457" />
  <path
     style="fill:none;stroke:#000000;stroke-width:3;stroke-linecap:round;stroke-linejoin:round;stroke-miterlimit:4;stroke-dasharray:none;stroke-opacity:1"
     d="m 347.94574,157.9245 c 1.66083,2.47238 9.88773,1.90207 15.018,1.4942 2.18965,-0.17408 3.03154,0.89446 2.71058,2.72987 -0.2205,1.26096 -0.97046,2.79571 -1.07592,4.30655 -0.0914,1.30918 0.38465,2.59754 0.64262,3.88431 0.27463,1.36986 0.86136,2.07352 1.3425,1.75215 1.08141,-0.72231 1.82738,-1.81312 3.2517,-2.46436"
     id="path14359-1-7-5-3-0-73-1-9-79-8-9"
     inkscape:connector-curvature="0"
     sodipodi:nodetypes="csssssc"
     inkscape:transform-center-x="0.03366111"
     inkscape:transform-center-y="-0.1641457" />
  <path
     style="fill:none;stroke:#000000;stroke-width:3;stroke-linecap:round;stroke-linejoin:round;stroke-miterlimit:4;stroke-dasharray:none;stroke-opacity:1"
     d="m 348.87335,158.94487 c -1.04354,2.24694 -2.27647,4.29011 -2.30024,7.23904 l -0.025,3.10659 c -0.01,1.2371 -0.14916,2.52665 -1.27618,3.42095 -1.07878,0.85602 -2.32688,1.69505 -3.30119,2.88867 -0.92735,1.13611 -0.70137,2.44352 0.4048,2.64044 1.24711,0.22202 1.91263,1.04099 2.24411,1.8557 0.55681,1.36854 -0.24831,1.94005 -0.23274,3.15457 0.0136,1.06175 0.88828,1.73141 0.69764,2.49749 -0.5051,2.02973 -2.46433,3.75192 -0.79187,6.24129 1.07889,1.60588 3.56433,1.99137 6.19003,1.71122 2.7441,-0.29278 5.14663,-0.83894 7.62712,-1.74492 1.45957,-0.53311 2.88628,-0.32869 4.05064,1.16935 l 1.92365,2.47491"
     id="path14359-1-7-5-3-0-73-1-9-79-8-0"
     inkscape:connector-curvature="0"
     sodipodi:nodetypes="cssssssssssssc"
     inkscape:transform-center-x="0.03366111"
     inkscape:transform-center-y="-0.1641457" />
  <path
     style="fill:none;stroke:#000000;stroke-width:3;stroke-linecap:round;stroke-linejoin:round;stroke-miterlimit:4;stroke-dasharray:none;stroke-opacity:1"
     d="m 373.73316,168.0354 c 3.60865,1.70007 3.89538,5.47829 3.09374,7.99977 -0.98754,3.10622 -0.61064,4.95649 1.5384,6.09478 1.85001,0.9799 3.59014,1.90161 5.34151,2.82926 2.0014,1.06009 3.00265,2.23077 3.50618,3.92383 0.61945,2.08282 -0.98542,2.4802 -1.9142,2.93943 -3.48842,1.72483 -6.62595,3.41335 -9.71242,4.61254"
     id="path14359-1-7-5-3-0-73-1-9-79-8-5"
     inkscape:connector-curvature="0"
     sodipodi:nodetypes="csssssc"
     inkscape:transform-center-x="0.03366111"
     inkscape:transform-center-y="-0.1641457" />
  <path
     style="fill:#000000;stroke:#000000;stroke-width:3;stroke-linecap:round;stroke-linejoin:round;stroke-miterlimit:4;stroke-dasharray:none;stroke-opacity:1;fill-opacity:1"
     d="m 374.10421,160.15075 c 6.65519,0.17046 13.12486,0.22688 19.78004,0.88615 1.31843,0.1306 2.52257,0.73789 2.50515,2.04818 l -0.0266,2.00206 c -0.0231,1.73533 -1.07042,1.92297 -2.11405,1.90597 l -20.51757,-0.33423 z"
     id="path14359-1-7-5-3-0-73-1-9-79-8-2"
     inkscape:connector-curvature="0"
     sodipodi:nodetypes="csssscc"
     inkscape:transform-center-x="0.03366111"
     inkscape:transform-center-y="-0.1641457" />
  <path
     inkscape:connector-curvature="0"
     style="fill:none;fill-opacity:1;stroke:#000000;stroke-width:3;stroke-linecap:round;stroke-linejoin:round;stroke-miterlimit:4;stroke-dasharray:none;stroke-opacity:1"
     d="m 407.47602,321.60728 a 43.378874,43.072339 0 0 1 -43.37887,43.07234 43.378874,43.072339 0 0 1 -43.37887,-43.07234 43.378874,43.072339 0 0 1 43.37887,-43.07233 43.378874,43.072339 0 0 1 43.37887,43.07233 z"
     id="path8440-7" />
  <path
     style="fill:none;stroke:#000000;stroke-width:3;stroke-linecap:round;stroke-linejoin:round;stroke-miterlimit:4;stroke-dasharray:none;stroke-opacity:1"
     d="m 368.66793,306.88766 c -7.82855,14.06277 -15.84518,26.74915 -23.9664,39.32065 -0.80056,1.23925 -0.69505,2.40177 0.65308,2.89379 8.39826,3.06506 16.52888,5.99631 24.42239,8.809 2.28805,0.8153 2.82847,0.2515 3.29203,-0.52601 0.79663,-1.33614 -0.0188,-1.27806 0.70303,-3.30676 4.09422,-11.50721 9.47421,-23.41506 14.17607,-34.40669 2.1368,-4.99527 -1.5688,-6.49783 -3.43228,-3.66028 l -7.18097,10.93453 c 2.36915,-4.81486 4.73831,-9.62972 7.10747,-14.44459 1.60986,-3.27174 -2.34451,-5.39598 -4.14635,-2.34534 -2.69053,4.55523 -5.38106,8.79104 -8.07159,13.11064 2.1373,-4.53138 4.16606,-8.95422 6.53515,-13.7174 1.92506,-3.87041 -2.05034,-4.80677 -3.68803,-2.15783 -3.10566,5.02335 -5.71538,9.71511 -8.58348,14.40346 l 6.63956,-13.01905 c 1.61083,-3.15857 -3.04278,-4.43335 -4.45968,-1.88812 z"
     id="path14359-1-7-5-3-0-73-1-9-79-9"
     inkscape:connector-curvature="0"
     sodipodi:nodetypes="sssssssscsscsscss"
     inkscape:transform-center-x="0.03366111"
     inkscape:transform-center-y="-0.1641457" />
  <path
     style="fill:none;stroke:#000000;stroke-width:3;stroke-linecap:round;stroke-linejoin:round;stroke-miterlimit:4;stroke-dasharray:none;stroke-opacity:1"
     d="m 374.19138,307.01486 c 0.71959,-2.96311 1.52181,-7.31375 1.62106,-11.1697 0.13007,-5.05356 -3.20358,-6.79019 -4.31442,-3.30323 -1.01776,3.19475 -1.5939,7.31718 -2.35278,11.00349 0.0558,-4.31428 0.89173,-8.63072 0.80626,-13.52374 -0.0767,-4.39368 -4.6833,-5.41621 -5.10549,-1.34284 -0.47836,4.6152 -0.60972,9.62231 -1.44406,13.03655 l -0.15716,-14.81443 c -0.0401,-3.77679 -5.61147,-4.05991 -5.69262,-0.57413 -0.112,4.81086 -0.45498,9.39073 -0.82102,13.94755 0.0383,-3.45028 0.28733,-9.23315 -0.34941,-12.57624 -0.54863,-2.88049 -3.6187,-1.90695 -4.33057,0.5394 -2.27476,7.81733 -0.90723,31.86484 -8.98374,43.99138 -1.7457,2.62111 -1.57619,4.13227 0.77072,4.12835 l 6.4379,-0.0107"
     id="path14359-1-7-5-3-0-73-1-9-79-9-3"
     inkscape:connector-curvature="0"
     sodipodi:nodetypes="csscsscsscssssc"
     inkscape:transform-center-x="0.03366111"
     inkscape:transform-center-y="-0.1641457" />
  <path
     style="fill:none;stroke:#000000;stroke-width:3;stroke-linecap:round;stroke-linejoin:round;stroke-miterlimit:4;stroke-dasharray:none;stroke-opacity:1"
     d="m 365.18757,312.14607 c -2.01262,-0.0186 -2.38587,-2.12682 -2.88502,-3.64001 -0.96377,-2.92165 -2.48856,-7.02024 -5.5714,-7.16671 -2.93967,-0.13968 -4.22575,5.29441 -3.92897,8.45678 0.32929,3.50879 1.17028,8.67205 2.50825,11.44724"
     id="path14359-1-7-5-3-0-73-1-9-79-9-8"
     inkscape:connector-curvature="0"
     sodipodi:nodetypes="csssc"
     inkscape:transform-center-x="0.03366111"
     inkscape:transform-center-y="-0.1641457" />
  <path
     inkscape:connector-curvature="0"
     style="fill:none;fill-opacity:1;stroke:#000000;stroke-width:3;stroke-linecap:round;stroke-linejoin:round;stroke-miterlimit:4;stroke-dasharray:none;stroke-opacity:1"
     d="m 408.41052,468.85357 a 42.855388,42.817346 0 0 1 -42.85539,42.81735 42.855388,42.817346 0 0 1 -42.85539,-42.81735 42.855388,42.817346 0 0 1 42.85539,-42.81733 42.855388,42.817346 0 0 1 42.85539,42.81733 z"
     id="path8440-7-2" />
  <path
     style="fill:none;stroke:#000000;stroke-width:3;stroke-linecap:round;stroke-linejoin:round;stroke-miterlimit:4;stroke-dasharray:none;stroke-opacity:1"
     d="m 371.85267,430.84423 c 0.27357,3.14588 0.54713,6.2545 0.8207,9.29094"
     id="path14359-1-7-5-3-0-73-1-9-79-9-0-4"
     inkscape:connector-curvature="0"
     sodipodi:nodetypes="cc"
     inkscape:transform-center-x="0.03366111"
     inkscape:transform-center-y="-0.1641457" />
  <path
     style="fill:none;stroke:#000000;stroke-width:3;stroke-linecap:round;stroke-linejoin:round;stroke-miterlimit:4;stroke-dasharray:none;stroke-opacity:1"
     d="m 356.52026,431.12598 c 0.28728,3.28689 0.57456,6.48276 0.86184,9.66116"
     id="path14359-1-7-5-3-0-73-1-9-79-9-0-4-8"
     inkscape:connector-curvature="0"
     sodipodi:nodetypes="cc"
     inkscape:transform-center-x="0.03366111"
     inkscape:transform-center-y="-0.1641457" />
  <path
     style="fill:none;stroke:#000000;stroke-width:3;stroke-linecap:round;stroke-linejoin:round;stroke-miterlimit:4;stroke-dasharray:none;stroke-opacity:1"
     d="m 366.26932,450.45956 c -0.71729,0.63719 -0.22915,2.40841 -0.1127,4.27963 0.12284,1.97383 0.0408,3.65344 0.39864,3.98292 0.75451,0.69466 2.05059,-0.0579 3.14164,-0.21308 1.95653,-0.27831 3.16407,-0.39949 3.52227,-0.85644 0.3753,-0.47876 0.36299,-2.28821 0.21429,-4.02557 -0.14552,-1.70016 0.0326,-3.12561 -0.66478,-3.53769 -0.73705,-0.43552 -1.72524,-0.23731 -3.40708,-0.10494 -1.49673,0.11781 -2.3066,-0.22279 -3.09228,0.47517 z"
     id="path14359-1-7-5-3-0-73-1-9-79-9-0-4-9"
     inkscape:connector-curvature="0"
     sodipodi:nodetypes="sssssssss"
     inkscape:transform-center-x="0.03366111"
     inkscape:transform-center-y="-0.1641457" />
  <path
     style="fill:none;stroke:#000000;stroke-width:3;stroke-linecap:round;stroke-linejoin:round;stroke-miterlimit:4;stroke-dasharray:none;stroke-opacity:1"
     d="m 371.32387,491.50329 c 2.67189,0.0388 5.39482,-0.097 7.91167,-0.0582 0.93326,0.0144 1.63527,-0.54017 1.57779,-1.38347 l -0.26877,-3.94373 c -0.0703,-1.03099 -0.46308,-1.6717 -1.1325,-2.044 -2.67914,-1.49 -5.83531,-3.02653 -8.47361,-4.29489 0.0959,2.45479 0.15372,9.67968 0.38542,11.72429 z"
     id="path14359-1-7-5-3-0-73-1-9-79-9-0-4-0"
     inkscape:connector-curvature="0"
     sodipodi:nodetypes="csssscc"
     inkscape:transform-center-x="0.03366111"
     inkscape:transform-center-y="-0.1641457" />
  <path
     style="fill:none;stroke:#000000;stroke-width:3;stroke-linecap:round;stroke-linejoin:round;stroke-miterlimit:4;stroke-dasharray:none;stroke-opacity:1"
     d="m 375.97979,442.36314 c 0.0957,2.80357 0.32194,6.07038 0.56055,8.88088 0.64884,7.64227 1.32117,10.55172 6.14637,13.56889 0.21873,9.54404 3.14473,24.68336 2.82242,35.52422 -0.0496,1.667 -0.77105,1.74225 -1.79353,1.7041 -12.70252,-0.47395 -25.40339,-1.11066 -38.10509,-2.06895 -1.75901,-0.13271 -2.28033,-0.48874 -1.91888,-2.8076 1.48933,-9.5546 2.30122,-20.16888 2.67247,-31.58937 6.22609,-3.97004 7.82979,-8.46321 7.2294,-14.17322 -0.34251,-3.25745 -0.83042,-6.97991 -1.00167,-10.39386 7.02149,-0.45001 14.07554,-0.7886 20.82554,-0.3943 1.39645,0.0816 2.51644,0.40204 2.56242,1.74921 z"
     id="path14359-1-7-5-3-0-73-1-9-79-9-0-4-2"
     inkscape:connector-curvature="0"
     sodipodi:nodetypes="sscsssscscss"
     inkscape:transform-center-x="0.03366111"
     inkscape:transform-center-y="-0.1641457" />
  <path
     style="fill:none;stroke:#000000;stroke-width:3;stroke-linecap:round;stroke-linejoin:round;stroke-miterlimit:4;stroke-dasharray:none;stroke-opacity:1"
     d="m 357.66976,490.85479 c -2.61372,-0.0194 -4.63856,-0.21335 -7.15541,-0.17455 -0.93327,0.0144 -1.76334,-0.82915 -1.75232,-1.67434 0.0172,-1.31802 0.0929,-1.99718 0.26877,-3.76921 0.10205,-1.02833 0.73752,-1.99378 1.42338,-2.33487 2.71664,-1.35103 4.57082,-2.4527 7.19377,-3.77132 -0.0959,2.45479 0.079,9.67968 0.0218,11.72429 z"
     id="path14359-1-7-5-3-0-73-1-9-79-9-0-4-0-2"
     inkscape:connector-curvature="0"
     sodipodi:nodetypes="csssscc"
     inkscape:transform-center-x="-0.033664573"
     inkscape:transform-center-y="-0.1641457" />
  <path
     style="fill:none;stroke:#000000;stroke-width:3;stroke-linecap:round;stroke-linejoin:round;stroke-miterlimit:4;stroke-dasharray:none;stroke-opacity:1"
     d="m 382.68671,464.81291 c 2.45341,1.20559 4.85237,1.90339 7.43661,2.84932 3.53183,1.29279 3.33594,3.60252 0.92105,4.26301 -3.06165,0.83738 -1.67043,2.67393 0.68647,3.34255 2.06614,0.58613 3.79811,1.45974 6.01233,2.43898"
     id="path14359-1-7-5-3-0-73-1-9-79-9-0-3"
     inkscape:connector-curvature="0"
     sodipodi:nodetypes="csssc"
     inkscape:transform-center-x="0.03366111"
     inkscape:transform-center-y="-0.1641457" />
  <path
     style="fill:none;stroke:#000000;stroke-width:3;stroke-linecap:round;stroke-linejoin:round;stroke-miterlimit:4;stroke-dasharray:none;stroke-opacity:1"
     d="m 328.25025,461.71847 c 3.03246,2.46293 5.65743,5.01868 8.78221,6.74173 1.82277,1.00509 3.09239,0.0402 1.98735,-1.10718 -0.46893,-0.48687 -1.24256,-1.15295 -1.64317,-1.8848 -0.78256,-1.42962 -0.56729,-2.63234 2.47925,-2.57086 3.09562,0.0625 4.36836,1.25344 6.50821,2.67795"
     id="path14359-1-7-5-3-0-73-1-9-79-9-0-7"
     inkscape:connector-curvature="0"
     sodipodi:nodetypes="cssssc"
     inkscape:transform-center-x="0.03366111"
     inkscape:transform-center-y="-0.1641457" />
  <path
     style="fill:#000000;fill-opacity:1;stroke:#000000;stroke-width:0.98402083;stroke-linecap:round;stroke-linejoin:round;stroke-miterlimit:4;stroke-dasharray:none;stroke-opacity:1"
     d="M 42.06212,5.8758581 C 38.473533,4.6664423 34.328691,4.3034444 30.084414,4.3034448 c -9.738114,8e-7 -19.01785,8.7019542 -19.01785,20.8054772 0,11.842206 5.617285,19.410257 19.01785,19.410258 3.810728,0 7.960648,-0.527062 11.262852,-1.622942 l 2.085936,-5.671881 c -3.321353,1.728096 -7.621453,2.66148 -11.679387,2.661479 -10.005578,-10e-7 -14.3118,-5.713046 -14.3118,-15.453674 0,-8.745137 7.047865,-15.1465692 14.399001,-15.1465698 3.708413,-3e-7 7.052547,0.7872288 10.110654,2.3364178 z"
     id="path1114"
     inkscape:connector-curvature="0"
     sodipodi:nodetypes="csssccssscc" />
  <path
     style="fill:#000000;fill-opacity:1;stroke:#000000;stroke-width:1.00326765;stroke-linecap:round;stroke-linejoin:round;stroke-miterlimit:4;stroke-dasharray:none;stroke-opacity:1"
     d="M 114.49108,5.2192233 C 110.70456,3.8685655 106.59001,3.25895 102.25373,3.2589504 c -9.949202,9e-7 -19.430094,9.2141966 -19.430094,21.5288786 0,12.048807 5.739051,19.748891 19.430094,19.748892 3.89334,0 8.61378,-0.6564 11.26673,-2.131825 l 1.77071,-5.290265 c -4.1142,1.878387 -7.19536,2.428745 -11.33185,2.707912 -8.9009,0.600711 -14.742175,-5.572431 -14.742175,-15.482995 0,-9.378276 6.960356,-15.6511034 14.831275,-15.651104 3.7888,-3e-7 7.20542,0.8009632 10.32982,2.37718 z"
     id="path1114-2"
     inkscape:connector-curvature="0"
     sodipodi:nodetypes="csssccssscc" />
  <path
     style="fill:#000000;fill-opacity:1;stroke:#000000;stroke-width:1;stroke-linecap:round;stroke-linejoin:round;stroke-miterlimit:4;stroke-dasharray:none;stroke-opacity:1"
     d="M 71.159742,36.744974 C 74.423034,34.42323 75.502251,29.641439 75.458633,24.506997 75.416396,19.535093 73.564096,14.896255 69.398738,11.452865 66.663395,9.1916291 59.805054,8.232527 52.219766,8.3138056 l -0.0016,31.7254104 C 57.807434,40.10794 67.10869,39.62719 71.159742,36.744974 Z M 46.627226,11.436774 C 46.627327,9.0295292 45.590208,6.9476989 43.867671,5.4087152 47.280164,4.8722416 54.104586,4.587809 59.122405,4.6272513 73.236396,4.7381936 81.1297,12.065378 81.052933,24.149199 80.946002,40.979517 69.587855,44.409606 58.829965,44.799397 53.791353,44.981962 48.56747,44.82406 43.720732,44.627392 c 1.717599,-1.299765 2.905222,-3.213314 2.905304,-5.148046 z"
     id="path14359-1-7-5-3-0-73-1-9-79-9-0-39"
     inkscape:connector-curvature="0"
     sodipodi:nodetypes="sssccsscssscss"
     inkscape:transform-center-x="0.03366111"
     inkscape:transform-center-y="-0.1641457" />
  <text
     xml:space="preserve"
     style="font-style:normal;font-variant:normal;font-weight:bold;font-stretch:normal;font-size:8px;line-height:8px;font-family:'DIN Alternate';-inkscape-font-specification:'DIN Alternate Bold';text-align:center;letter-spacing:-0.05px;word-spacing:0px;text-anchor:middle;fill:#000000;fill-opacity:1;stroke:none;stroke-opacity:1;"
     x="62.712612"
     y="52.954075"
     id="text1194"><tspan
       sodipodi:role="line"
       id="tspan1192"
       x="62.687614"
       y="52.954075">CENTERS FOR DISEASE CONTROL</tspan><tspan
       sodipodi:role="line"
       x="62.687611"
       y="60.954075"
       id="tspan1196">AND PREVENTION</tspan></text>
  <path
     style="opacity:1;vector-effect:none;fill:none;fill-opacity:1;fill-rule:evenodd;stroke:#d10000;stroke-width:0;stroke-linecap:butt;stroke-linejoin:miter;stroke-miterlimit:4;stroke-dasharray:none;stroke-dashoffset:0;stroke-opacity:1"
     d="M 31.432004,538.3239 C 16.976414,537.66351 5.4588718,525.70387 5.4588761,511.0471 c 4.7e-6,-15.08044 12.1929769,-27.30553 27.2337749,-27.30553 7.142373,0 13.642567,2.75674 18.499888,7.26688"
     id="path959"
     inkscape:connector-curvature="0"
     sodipodi:nodetypes="cssc" />
  <text
     xml:space="preserve"
     style="font-style:normal;font-variant:normal;font-weight:normal;font-stretch:normal;font-size:4px;line-height:1.25;font-family:sans-serif;-inkscape-font-specification:sans-serif;letter-spacing:-0.16px;word-spacing:0px;fill:#000000;fill-opacity:1;stroke:none;stroke-width:0;stroke-miterlimit:4;stroke-dasharray:none;"
     id="text8417"><textPath
       xlink:href="#path959"
       id="textPath8437"><tspan
   id="tspan8415"
   style="-inkscape-font-specification:sans-serif;font-family:sans-serif;font-weight:normal;font-style:normal;font-stretch:normal;font-variant:normal;letter-spacing:-0.16px;stroke-width:0;stroke-miterlimit:4;stroke-dasharray:none;fill:#000000;fill-opacity:1;">DEPARTMENT OF HEALTH AND HUMAN SERVICES • USA</tspan></textPath></text>
  <text
     xml:space="preserve"
     style="font-style:normal;font-variant:normal;font-weight:normal;font-stretch:normal;font-size:12px;line-height:1.25;font-family:sans-serif;-inkscape-font-specification:sans-serif;letter-spacing:0px;word-spacing:0px;fill:#000000;fill-opacity:1;stroke:none"
     x="29.046698"
     y="134.86839"
     id="text8442"><tspan
       sodipodi:role="line"
       id="tspan8440"
       x="29.046698"
       y="141.94652" /></text>
  <text
     xml:space="preserve"
     style="font-style:normal;font-variant:normal;font-weight:normal;font-stretch:normal;font-size:21.33333397px;line-height:23.20000076px;font-family:Arial;-inkscape-font-specification:Arial;text-align:center;letter-spacing:-0.52999997px;word-spacing:0px;text-anchor:middle;fill:#000000;fill-opacity:1;stroke:none;stroke-width:1px;stroke-linecap:butt;stroke-linejoin:miter;stroke-opacity:1;"
     x="146.18053"
     y="263.95273"
     id="text7832-1"><tspan
       sodipodi:role="line"
       id="tspan7854-5"
       x="145.91553"
       y="263.95273"
       style="font-size:21.33333397px;line-height:23.20000076px;text-align:center;letter-spacing:-0.52999997px;text-anchor:middle;fill:#000000;fill-opacity:1;">—Questions and Answers—</tspan><tspan
       sodipodi:role="line"
       x="145.91553"
       y="287.15274"
       style="font-size:21.33333397px;line-height:23.20000076px;text-align:center;letter-spacing:-0.52999997px;text-anchor:middle;fill:#000000;fill-opacity:1;"
       id="tspan8480">Methylene Chloride Control in</tspan><tspan
       sodipodi:role="line"
       x="145.91553"
       y="310.35272"
       style="font-size:21.33333397px;line-height:23.20000076px;text-align:center;letter-spacing:-0.52999997px;text-anchor:middle;fill:#000000;fill-opacity:1;"
       id="tspan8482">Furniture Stripping</tspan></text>
  <text
     xml:space="preserve"
     style="font-style:normal;font-variant:normal;font-weight:normal;font-stretch:normal;font-size:8px;line-height:1.25;font-family:sans-serif;-inkscape-font-specification:sans-serif;text-align:start;letter-spacing:0.37px;word-spacing:-0.89999998px;text-anchor:start;fill:#000000;fill-opacity:1;stroke:none;"
     x="60.347206"
     y="506.27042"
     id="text8505"><tspan
       sodipodi:role="line"
       x="60.347206"
       y="506.27042"
       id="tspan8507">U.S. DEPARTMENT OF HEALTH AND HUMAN SERVICES</tspan></text>
  <text
     xml:space="preserve"
     style="font-style:normal;font-variant:normal;font-weight:normal;font-stretch:normal;font-size:8px;line-height:10px;font-family:Arial;-inkscape-font-specification:Arial;text-align:start;letter-spacing:0.2px;word-spacing:0px;text-anchor:start;fill:#000000;fill-opacity:1;stroke:none"
     x="60.271763"
     y="517.18591"
     id="text8505-7"><tspan
       sodipodi:role="line"
       x="60.271763"
       y="517.18591"
       id="tspan8507-9">Public Health Service</tspan><tspan
       sodipodi:role="line"
       x="60.271763"
       y="527.18591"
       id="tspan8529">Centers for Disease Control and Prevention</tspan><tspan
       sodipodi:role="line"
       x="60.271763"
       y="537.18591"
       id="tspan8533">National Institute for Occupational Safety and Health</tspan></text>
  <text
     xml:space="preserve"
     style="font-style:normal;font-variant:normal;font-weight:normal;font-stretch:normal;font-size:8px;line-height:10px;font-family:Arial;-inkscape-font-specification:Arial;text-align:start;letter-spacing:0.2px;word-spacing:0px;text-anchor:start;fill:#000000;fill-opacity:1;stroke:none"
     x="60.06591"
     y="551.53448"
     id="text8505-7-8"><tspan
       sodipodi:role="line"
       x="60.06591"
       y="551.53448"
       id="tspan8533-5">September 1993</tspan></text>
</svg>
