<?xml version="1.0" encoding="UTF-8" standalone="no"?>
<!-- Created with Inkscape (http://www.inkscape.org/) -->

<svg
   xmlns:dc="http://purl.org/dc/elements/1.1/"
   xmlns:cc="http://creativecommons.org/ns#"
   xmlns:rdf="http://www.w3.org/1999/02/22-rdf-syntax-ns#"
   xmlns:svg="http://www.w3.org/2000/svg"
   xmlns="http://www.w3.org/2000/svg"
   xmlns:sodipodi="http://sodipodi.sourceforge.net/DTD/sodipodi-0.dtd"
   xmlns:inkscape="http://www.inkscape.org/namespaces/inkscape"
   id="svg14933"
   version="1.1"
   inkscape:version="0.48.2 r9819"
   width="46.59375"
   height="46.46875"
   viewBox="0 0 46.59375 46.46875"
   sodipodi:docname="er04se96.001_g.svg">
  <title id="title_er04se96.001_g">Women's restrooms</title>
  <desc id="desc_er04se96.001_g">Accommodations and services symbols</desc>
  <metadata
     id="metadata14939">
    <rdf:RDF>
      <cc:Work
         rdf:about="">
        <dc:format>image/svg+xml</dc:format>
        <dc:type
           rdf:resource="http://purl.org/dc/dcmitype/StillImage" />
        <dc:title></dc:title>
      </cc:Work>
    </rdf:RDF>
  </metadata>
  <defs
     id="defs14937" />
  <sodipodi:namedview
     pagecolor="#ffffff"
     bordercolor="#666666"
     borderopacity="1"
     objecttolerance="10"
     gridtolerance="10"
     guidetolerance="10"
     inkscape:pageopacity="0"
     inkscape:pageshadow="2"
     inkscape:window-width="1911"
     inkscape:window-height="1156"
     id="namedview14935"
     showgrid="false"
     inkscape:zoom="10.638214"
     inkscape:cx="5.2825888"
     inkscape:cy="29.240835"
     inkscape:window-x="0"
     inkscape:window-y="0"
     inkscape:window-maximized="0"
     inkscape:current-layer="svg14933"
     fit-margin-top="0"
     fit-margin-left="0"
     fit-margin-right="0"
     fit-margin-bottom="0" />
  <path
     style="color:#000000;fill:#000000;fill-opacity:1;fill-rule:evenodd;stroke:#000000;stroke-width:1;stroke-linecap:butt;stroke-linejoin:round;stroke-miterlimit:4;stroke-opacity:1;stroke-dasharray:none;stroke-dashoffset:0;marker:none;visibility:visible;display:inline;overflow:visible;enable-background:accumulate"
     d="m 9.46985,0.49425 c -4.9563749,9e-5 -8.9743019,4.01792 -8.9743019,8.97429 l 0,27.52301 c 0,4.95636 4.017927,8.97429 8.9786469,8.97429 l 27.632822,0 c 4.956363,0 8.974288,-4.01793 8.974288,-8.97429 l 0,-27.5235 c 0,-4.95637 -4.017925,-8.97438 -8.974288,-8.97429 z m 16.477756,7.75931 c 0,1.79168 -1.405002,3.13793 -3.125421,3.12655 l 2.877381,-0.0114 c 0.794589,0 1.276525,0.4766 1.582043,1.33169 l 3.837078,10.71589 c 0.731071,2.04168 -2.219965,3.01359 -2.99895,1.17768 l -2.657379,-6.19697 0.153393,1.78573 3.842188,7.1394 c 0.770388,1.43151 0.664549,3.40155 -0.442962,3.39655 l -3.954902,-0.018 -1.288441,9.72437 c -0.192126,1.45022 -2.514706,1.42929 -2.739142,-10e-4 l -1.529784,-9.74904 -3.11238,0.009 c -1.479112,0.004 -1.495198,-2.41211 -0.759333,-3.75703 l 4.139149,-7.56502 0.03967,-1.31761 -3.462035,6.80779 c -0.781105,1.53597 -3.506406,0.48021 -2.787532,-1.15948 l 4.74495,-10.82279 c 0.348752,-0.79547 0.700626,-1.50409 1.636505,-1.50115 l 2.664244,0.008 c -1.638083,-0.0963 -2.93466,-1.02824 -2.934658,-3.12312 1e-6,-1.67419 1.309453,-3.08877 3.050582,-3.13557 1.820078,-0.0489 3.225736,1.09714 3.225736,3.13553 z"
     id="path16083"
     inkscape:connector-curvature="0"
     sodipodi:nodetypes="sssssssssscssssccsscsscssccsssscsss" />
</svg>
