<?xml version="1.0" encoding="UTF-8" standalone="no"?>
<!-- Created with Inkscape (http://www.inkscape.org/) -->

<svg
   xmlns:dc="http://purl.org/dc/elements/1.1/"
   xmlns:cc="http://creativecommons.org/ns#"
   xmlns:rdf="http://www.w3.org/1999/02/22-rdf-syntax-ns#"
   xmlns:svg="http://www.w3.org/2000/svg"
   xmlns="http://www.w3.org/2000/svg"
   xmlns:sodipodi="http://sodipodi.sourceforge.net/DTD/sodipodi-0.dtd"
   xmlns:inkscape="http://www.inkscape.org/namespaces/inkscape"
   id="svg14933"
   version="1.1"
   inkscape:version="0.48.2 r9819"
   width="47.34375"
   height="46.5"
   viewBox="0 0 47.34375 46.5"
   sodipodi:docname="er04se96.001_h.svg">
  <title id="title_er04se96.001_h">First Aid station</title>
  <desc id="desc_er04se96.001_h">Services and Accommodations Symbols</desc>
  <metadata
     id="metadata14939">
    <rdf:RDF>
      <cc:Work
         rdf:about="">
        <dc:format>image/svg+xml</dc:format>
        <dc:type
           rdf:resource="http://purl.org/dc/dcmitype/StillImage" />
        <dc:title></dc:title>
      </cc:Work>
    </rdf:RDF>
  </metadata>
  <defs
     id="defs14937" />
  <sodipodi:namedview
     pagecolor="#ffffff"
     bordercolor="#666666"
     borderopacity="1"
     objecttolerance="10"
     gridtolerance="10"
     guidetolerance="10"
     inkscape:pageopacity="0"
     inkscape:pageshadow="2"
     inkscape:window-width="1911"
     inkscape:window-height="1156"
     id="namedview14935"
     showgrid="false"
     inkscape:zoom="13.213126"
     inkscape:cx="6.8719198"
     inkscape:cy="31.751484"
     inkscape:window-x="0"
     inkscape:window-y="0"
     inkscape:window-maximized="0"
     inkscape:current-layer="svg14933"
     fit-margin-top="0"
     fit-margin-left="0"
     fit-margin-right="0"
     fit-margin-bottom="0" />
  <path
     style="fill:#000000;fill-opacity:1;stroke:#000000;stroke-width:1;stroke-linecap:butt;stroke-linejoin:round;stroke-miterlimit:4;stroke-opacity:1;stroke-dasharray:none"
     d="m 9.462776,0.51502 c -4.9563753,9e-5 -8.9743023,4.01792 -8.9743023,8.97429 l 0,27.52301 c 0,4.95636 4.017927,8.97429 8.9786473,8.97429 l 28.389645,0 c 4.956363,0 8.974288,-4.01793 8.974288,-8.97429 l 0,-27.5235 c 0,-4.95637 -4.017925,-8.97438 -8.974288,-8.97429 z m 29.37106,7.37901 -0.002,32.50913 -31.302246,0 0.002,-32.50913 z m -18.424145,4.32403 -10e-4,8.6405 -6.580051,0 -5e-4,6.01227 6.580051,0 -5e-4,8.26828 6.110048,0 5e-4,-8.26828 7.70806,0 5e-4,-6.01227 -7.70806,0 0.001,-8.6405 z"
     id="path14359-1-7-5-3-0-73-1-9-0-2"
     inkscape:connector-curvature="0"
     sodipodi:nodetypes="ssssssssscccccccccccccccccc" />
</svg>
