<?xml version="1.0" encoding="UTF-8" standalone="no"?>
<!-- Created with Inkscape (http://www.inkscape.org/) -->

<svg
   xmlns:dc="http://purl.org/dc/elements/1.1/"
   xmlns:cc="http://creativecommons.org/ns#"
   xmlns:rdf="http://www.w3.org/1999/02/22-rdf-syntax-ns#"
   xmlns:svg="http://www.w3.org/2000/svg"
   xmlns="http://www.w3.org/2000/svg"
   xmlns:sodipodi="http://sodipodi.sourceforge.net/DTD/sodipodi-0.dtd"
   xmlns:inkscape="http://www.inkscape.org/namespaces/inkscape"
   id="svg14933"
   version="1.1"
   inkscape:version="0.48.2 r9819"
   width="46.84375"
   height="46.375"
   viewBox="0 0 46.84375 46.375"
   sodipodi:docname="er04se96.001_m.svg">
  <title id="title_er04se96.001_m">Airport or Landing Strip</title>
  <desc id="desc_er04se96.001_m">Accommodations and Services Symbol</desc>
  <metadata
     id="metadata14939">
    <rdf:RDF>
      <cc:Work
         rdf:about="">
        <dc:format>image/svg+xml</dc:format>
        <dc:type
           rdf:resource="http://purl.org/dc/dcmitype/StillImage" />
        <dc:title></dc:title>
      </cc:Work>
    </rdf:RDF>
  </metadata>
  <defs
     id="defs14937" />
  <sodipodi:namedview
     pagecolor="#ffffff"
     bordercolor="#666666"
     borderopacity="1"
     objecttolerance="10"
     gridtolerance="10"
     guidetolerance="10"
     inkscape:pageopacity="0"
     inkscape:pageshadow="2"
     inkscape:window-width="1911"
     inkscape:window-height="1156"
     id="namedview14935"
     showgrid="false"
     inkscape:zoom="6.8446456"
     inkscape:cx="-21.61197"
     inkscape:cy="12.96479"
     inkscape:window-x="0"
     inkscape:window-y="0"
     inkscape:window-maximized="0"
     inkscape:current-layer="svg14933"
     fit-margin-top="0"
     fit-margin-left="0"
     fit-margin-right="0"
     fit-margin-bottom="0" />
  <path
     style="fill:#000000;fill-opacity:1;stroke:#000000;stroke-width:1;stroke-linecap:butt;stroke-linejoin:round;stroke-miterlimit:4;stroke-opacity:1;stroke-dasharray:none"
     d="m 24.77398,7.06246 -0.0811,6.54318 15.42815,13.65393 c 1.36308,1.20633 -0.76023,3.17052 -2.35642,2.25752 L 24.71345,22.052 l -0.26483,11.25908 2.95401,3.14216 c 2.13187,2.26766 1.38236,3.39854 -0.2384,3.30574 L 24.91142,39.62997 C 24.53214,39.036 24.01653,38.67994 22.94606,38.66394 21.87266,38.64784 21.35998,39.00403 20.9807,39.598 l -2.25281,0.12901 c -1.62076,0.0928 -2.37027,-1.03808 -0.2384,-3.30574 L 21.4435,33.27911 21.17867,22.02003 8.12751,29.48512 C 6.53132,30.39811 4.40801,28.43392 5.77109,27.2276 L 21.19924,13.57367 21.11814,7.03049 c -0.0226,-1.82728 0.94939,-3.0932 1.83756,-3.90997 0.92366,0.85827 1.84178,2.04703 1.81828,3.94194 z M 9.46554,0.49667 c -4.95637,9e-5 -8.9743,4.01792 -8.9743,8.97429 l 0,27.44362 c 0,4.95636 4.01793,8.97429 8.97865,8.97429 l 27.88424,0 c 4.95636,0 8.97429,-4.01793 8.97429,-8.97429 l 0,-27.44411 c 0,-4.95637 -4.01793,-8.97438 -8.97429,-8.97429 z"
     id="path14359-1-7-5-3-0-73-1-9-9-1"
     inkscape:connector-curvature="0"
     sodipodi:nodetypes="scssccsscscssccsscscssssssssss" />
</svg>
