<?xml version="1.0" encoding="UTF-8" standalone="no"?>
<!-- Created with Inkscape (http://www.inkscape.org/) -->

<svg
   xmlns:dc="http://purl.org/dc/elements/1.1/"
   xmlns:cc="http://creativecommons.org/ns#"
   xmlns:rdf="http://www.w3.org/1999/02/22-rdf-syntax-ns#"
   xmlns:svg="http://www.w3.org/2000/svg"
   xmlns="http://www.w3.org/2000/svg"
   xmlns:sodipodi="http://sodipodi.sourceforge.net/DTD/sodipodi-0.dtd"
   xmlns:inkscape="http://www.inkscape.org/namespaces/inkscape"
   id="svg15388"
   version="1.1"
   inkscape:version="0.48.2 r9819"
   width="16.250042"
   height="47.912392"
   viewBox="0 0 16.250042 47.912392"
   sodipodi:docname="er11se15.001_c.svg">
  <title id="title_er11se15.001_c">Fuel Level</title>
  <desc id="desc_er11se15.001_c">Controls and displays</desc>
  <metadata
     id="metadata15394">
    <rdf:RDF>
      <cc:Work
         rdf:about="">
        <dc:format>image/svg+xml</dc:format>
        <dc:type
           rdf:resource="http://purl.org/dc/dcmitype/StillImage" />
        <dc:title></dc:title>
      </cc:Work>
    </rdf:RDF>
  </metadata>
  <defs
     id="defs15392" />
  <sodipodi:namedview
     pagecolor="#ffffff"
     bordercolor="#666666"
     borderopacity="1"
     objecttolerance="10"
     gridtolerance="10"
     guidetolerance="10"
     inkscape:pageopacity="0"
     inkscape:pageshadow="2"
     inkscape:window-width="1280"
     inkscape:window-height="676"
     id="namedview15390"
     showgrid="false"
     inkscape:zoom="6.1025479"
     inkscape:cx="-27.975099"
     inkscape:cy="13.15501"
     inkscape:window-x="0"
     inkscape:window-y="0"
     inkscape:window-maximized="0"
     inkscape:current-layer="svg15388"
     fit-margin-top="0"
     fit-margin-left="0"
     fit-margin-right="0"
     fit-margin-bottom="0" />
  <path
     style="fill:#000000;fill-opacity:1;stroke:#000000;stroke-width:1;stroke-linecap:butt;stroke-linejoin:round;stroke-miterlimit:4;stroke-opacity:1;stroke-dasharray:none"
     d="m 9.1848702,6.9425906 -0.001,9.5451004 c 1.2976398,0 1.3512998,1.26727 -10e-4,1.26727 l -7.01598,0 c -1.35215003,0 -1.35448003,-1.20633 10e-4,-1.26727 l 10e-4,-9.5451004 z"
     id="path14359-1-7-5-3-0-73-1-9-9"
     inkscape:connector-curvature="0"
     sodipodi:nodetypes="ccssccc" />
  <path
     style="fill:none;stroke:#000000;stroke-width:1;stroke-linecap:butt;stroke-linejoin:round;stroke-miterlimit:4;stroke-opacity:1;stroke-dasharray:none"
     d="m 9.2087502,0.65075061 -0.002,6.23103999 -7.02167,0.0322 0.002,-6.23103999 z"
     id="path14359-1-7-5-3-0-73-1-9-98-5"
     inkscape:connector-curvature="0"
     sodipodi:nodetypes="ccccc" />
  <path
     style="fill:none;stroke:#000000;stroke-width:1;stroke-linecap:butt;stroke-linejoin:round;stroke-miterlimit:4;stroke-opacity:1;stroke-dasharray:none"
     d="m 14.36857,4.4919906 -0.4968,0.0313 -0.0247,-1.4021 c -0.46448,0.063 -0.68567,-0.21771 -0.7101,-0.65382 -0.072,-1.28562 -0.97129,-1.89102999 -2.39664,-1.96574999 2.28421,0.0749 3.1422,0.67282999 3.13034,2.12092999 l 0.55372,0.32238 0.0161,1.51367 0.0458,4.31621 c 0.01,0.92441 0.85996,1.6420604 0.85464,2.5124404 l -0.0132,2.15837 c -0.0139,2.25968 -3.15492,2.17466 -3.13641,-0.0438 0.0148,-1.76908 0.0295,-3.4916404 0.0443,-5.1748304 0.0169,-1.92274 -2.9605698,-1.60834 -3.0349898,-0.0651"
     id="path14359-1-7-5-3-0-73-1-9-98-5-1"
     inkscape:connector-curvature="0"
     sodipodi:nodetypes="cccsccccsssssc" />
  <path
     style="fill:none;stroke:#000000;stroke-width:1;stroke-linecap:butt;stroke-linejoin:round;stroke-miterlimit:4;stroke-opacity:1;stroke-dasharray:none"
     d="m 9.3409702,36.417191 -10e-4,9.69426 c 1.4305198,0 1.4896798,1.28707 -10e-4,1.28707 l -7.73442,0 c -1.49061003,0 -1.49317003,-1.22518 10e-4,-1.28707 l 0.001,-9.69426 z"
     id="path14359-1-7-5-3-0-73-1-9-9-4"
     inkscape:connector-curvature="0"
     sodipodi:nodetypes="ccssccc" />
  <path
     style="fill:none;stroke:#000000;stroke-width:1;stroke-linecap:butt;stroke-linejoin:round;stroke-miterlimit:4;stroke-opacity:1;stroke-dasharray:none"
     d="m 9.3673002,30.027031 -0.002,16.92737 -7.74069,0.0327 0.002,-16.92737 z"
     id="path14359-1-7-5-3-0-73-1-9-98-5-8"
     inkscape:connector-curvature="0"
     sodipodi:nodetypes="ccccc" />
  <path
     style="fill:none;stroke:#000000;stroke-width:1;stroke-linecap:butt;stroke-linejoin:round;stroke-miterlimit:4;stroke-opacity:1;stroke-dasharray:none"
     d="m 14.66491,33.928301 -0.54768,0.0318 -0.0272,-1.42402 c -0.51204,0.064 -0.75587,-0.22111 -0.7828,-0.66403 -0.0793,-1.30571 -1.07076,-1.92059 -2.64206,-1.99647 2.51811,0.0761 3.46396,0.68335 3.45088,2.15407 l 0.61043,0.32742 0.0178,1.53733 0.0505,4.38365 c 0.011,0.9149 0.94806,1.6614 0.94215,2.5517 l -0.0146,2.1921 c -0.0153,2.29499 -3.47799,2.20865 -3.45758,-0.0445 0.0163,-1.79672 0.0325,-3.54619 0.0488,-5.25569 0.0186,-1.95278 -2.8731498,-1.63347 -2.9551898,-0.0661"
     id="path14359-1-7-5-3-0-73-1-9-98-5-1-4"
     inkscape:connector-curvature="0"
     sodipodi:nodetypes="cccsccccsssssc" />
  <text
     xml:space="preserve"
     style="font-size:7.50000000000000000px;font-style:normal;font-variant:normal;font-weight:normal;font-stretch:normal;text-align:start;line-height:100%;letter-spacing:0.50000000000000000px;word-spacing:0px;text-anchor:start;fill:#000000;fill-opacity:1;stroke:none;font-family:Arial;-inkscape-font-specification:Arial;stroke-opacity:1"
     x="4.3675842"
     y="26.640173"
     id="text8923"
     sodipodi:linespacing="100%"><tspan
       sodipodi:role="line"
       id="tspan8925"
       x="4.3675842"
       y="26.640173">or</tspan></text>
</svg>
