<?xml version="1.0" encoding="UTF-8" standalone="no"?>
<!-- Created with Inkscape (http://www.inkscape.org/) -->

<svg
   xmlns:dc="http://purl.org/dc/elements/1.1/"
   xmlns:cc="http://creativecommons.org/ns#"
   xmlns:rdf="http://www.w3.org/1999/02/22-rdf-syntax-ns#"
   xmlns:svg="http://www.w3.org/2000/svg"
   xmlns="http://www.w3.org/2000/svg"
   xmlns:sodipodi="http://sodipodi.sourceforge.net/DTD/sodipodi-0.dtd"
   xmlns:inkscape="http://www.inkscape.org/namespaces/inkscape"
   id="svg26178"
   version="1.1"
   inkscape:version="0.91 r13725"
   width="526"
   height="288"
   viewBox="0 0 526 288"
   sodipodi:docname="ec02jy92.003.svg">
  <title id="title_ec02jy92.003">Gas Chromatogram of Purgeable Halocarbons</title>
  <desc id="desc_ec02jy92.003">A graph of retention times of purgeable halocarbons.</desc>
  <metadata
     id="metadata26184">
    <rdf:RDF>
      <cc:Work
         rdf:about="">
        <dc:format>image/svg+xml</dc:format>
        <dc:type
           rdf:resource="http://purl.org/dc/dcmitype/StillImage" />
        <dc:title></dc:title>
      </cc:Work>
    </rdf:RDF>
  </metadata>
  <defs
     id="defs26182" />
  <sodipodi:namedview
     pagecolor="#ffffff"
     bordercolor="#666666"
     borderopacity="1"
     objecttolerance="10"
     gridtolerance="10"
     guidetolerance="10"
     inkscape:pageopacity="0"
     inkscape:pageshadow="2"
     inkscape:window-width="1280"
     inkscape:window-height="756"
     id="namedview26180"
     showgrid="false"
     inkscape:zoom="1.8833776"
     inkscape:cx="256.42969"
     inkscape:cy="144"
     inkscape:window-x="0"
     inkscape:window-y="0"
     inkscape:window-maximized="0"
     inkscape:current-layer="svg26178"
     fit-margin-top="0"
     fit-margin-left="0"
     fit-margin-right="0"
     fit-margin-bottom="0" />
  <path
     style="fill:none;stroke:#000000;stroke-width:2;stroke-linecap:butt;stroke-linejoin:miter;stroke-miterlimit:4;stroke-dasharray:none;stroke-opacity:1"
     d="m 5.2138463,86.788771 -0.00186,157.093479 502.1040937,0"
     id="path14359-1-7-5-3-0-73-1-9"
     inkscape:connector-curvature="0"
     sodipodi:nodetypes="ccc" />
  <path
     style="fill:none;stroke:#000000;stroke-width:1;stroke-linecap:round;stroke-linejoin:round;stroke-miterlimit:4;stroke-dasharray:none;stroke-opacity:1"
     d="m 5.5687774,240.94349 7.4351676,2e-5 c 1.904741,-1.0571 3.293955,-2.88749 3.771278,-6.08572 4.589548,4.56002 6.056996,2.56512 6.088392,-2.86202 l 0.700468,-121.0846 0.720052,-2.93021 2.903299,122.48484 c 0.111356,4.69792 4.760557,8.27645 4.844002,3.39902 l 0.604212,-35.3165 1.201462,29.20679 0.678334,1.65781 0.67885,4.42643 c 0.172432,1.12434 1.96355,1.23873 2.12827,-1.73152 l 0.62048,-11.18856 2.183335,11.83268 1.073669,1.45245 c 0.505296,0.71157 1.010592,1.51291 1.515888,2.57991 l 2.489149,0.84068 c 0.953215,-0.30348 1.301454,-1.21193 1.182586,-2.58749 l 1.048195,-73.14035 3.797218,70.12165 c 0.231007,1.78748 0.775806,2.63358 1.359085,3.36424 l 0.873069,-1.15949 c 0.128093,1.67687 1.193515,2.88507 1.98321,4.23114 l 3.921574,1.00486 c 2.79774,-0.12162 5.595479,0.26418 8.393219,0.4663 0.935401,-0.25446 2.007149,0.30916 2.611513,-1.93153 l 0.79526,-28.81551 3.12421,26.6108 c 0.189303,1.61241 0.267295,3.15284 1.302914,3.40776 l 2.985514,0.73488 c 0.899482,0.22141 1.209478,-0.29807 2.078369,-0.74251 0.907292,-0.46408 1.990332,0.82695 3.092394,1.10981 0.777124,0.19946 1.507453,-0.67379 3.016307,-0.52406 2.061467,0.20457 3.265334,0.50404 4.750871,0.65095 1.484332,0.14679 2.850968,0.7033 3.893027,-0.2712 0.774733,-0.72451 1.77313,-0.95792 2.190366,-0.96743 1.911899,-0.0436 2.234485,1.3728 4.766754,1.22904 1.90687,-0.10826 3.54034,-0.66342 4.98698,-2.69142 l 2.0356,-110.87695 1.75377,98.42738 c 0.0483,2.71118 0.93087,4.61959 1.36809,6.52984 0.32477,1.41891 0.4384,2.63273 1.82183,3.48603 0.82373,0.50808 1.67149,0.10734 1.91505,-1.49257 0.75124,1.06126 1.4673,2.14034 1.65246,3.48821 l 1.44246,0.13337 c 1.08888,0.10068 1.86994,1.46203 2.96221,1.40975 0.74933,-0.0359 1.93564,-0.85267 2.0333,-2.10332 l 1.63555,-20.94438 2.33037,21.41005 c 0.30092,2.76463 6.59059,2.15887 6.6704,0.025 l 3.46027,-92.51515 0.83673,79.76497 c 0.022,2.0943 0.82764,3.98904 1.29366,7.06788 0.20266,1.33889 0.48634,1.76167 1.79762,2.30156 0.91071,0.37497 2.10307,-0.87756 3.08757,-2.63134 1.04718,2.66199 2.16546,6.03806 4.87121,6.7372 3.1842,0.82278 5.92346,-0.4494 8.4516,-0.7375 2.59081,-0.29524 4.75642,1.13973 6.38551,1.12683 2.64593,-0.0209 4.22548,-1.7797 3.66436,-7.02695 l 1.55184,-83.58656 1.20097,-0.68122 2.23181,83.20057 c 2.61613,3.96097 6.90857,10.11132 10.61201,5.82974 3.15034,2.00705 5.51088,2.36782 8.61954,2.10774 2.50975,-0.20998 4.84793,2.50721 6.97106,-0.62833 l 2.21255,-107.89334 0.99258,1.32516 0.89313,76.96919 2.07883,-41.27384 1.96018,62.27956 c 0.17569,5.58211 3.22001,7.02304 3.57312,5.08216 l 1.54461,-8.48979 c 0.6021,3.22737 0.36869,5.66075 0.96715,7.66064 0.67093,2.24206 2.18078,3.87042 3.00345,4.10123 2.68349,0.75286 3.58079,-0.80473 3.74954,-5.4971 l 1.76235,-49.00568 0.84298,1.70018 1.47154,42.99156 c 0.0614,1.79472 1.3946,3.65761 1.55243,5.63664 0.11407,1.43042 1.67533,2.17965 2.37406,2.83282 1.33802,1.25079 4.53362,1.75688 4.63981,-1.25373 l 1.11862,-31.71417 1.80933,25.66721 c 0.24378,3.45827 2.22321,6.51999 4.83419,7.77509 2.113,1.01571 3.97852,1.78667 5.87827,1.89552 1.29392,0.0742 2.52755,-1.17318 4.07526,-0.84273 1.91151,0.40813 4.52436,0.73046 6.18326,0.47023 1.37031,-2.43978 1.89696,-5.66438 1.9746,-9.22891 l 2.79873,-128.50041 1.62473,126.55874 c 0.0376,2.93311 1.34634,4.97942 2.63601,6.46428 1.13331,1.30483 3.06847,2.03716 4.42976,2.58206 1.99968,0.80044 4.60966,1.44341 6.91436,1.22714 2.16831,-0.20347 6.20372,0.59867 6.26743,-1.69559 l 1.71912,-61.91036 0.86031,1.29463 1.30033,32.14989 1.28269,3.53475 1.15315,-53.00732 0.72721,-1.10134 1.14236,69.34618 c 0.0559,3.39307 2.19798,8.59366 5.66359,9.58526 1.3762,0.39376 1.70707,0.19376 2.41387,0.39563 1.42241,0.40626 2.66854,0.77132 3.67548,1.04243 1.20013,0.32313 2.6095,0.39504 4.11581,0.0606 1.16185,-0.25796 1.98413,-0.43101 4.13916,-1.42182 0.7651,0.44071 1.56213,0.866 2.68037,0.93706 0.97077,0.0617 2.22087,-0.7444 3.54741,-1.76492 1.81491,0.74894 4.01363,0.83171 4.15201,-2.06232 l 1.94631,-40.70376 0.99909,4.98472 1.02306,34.91278 c 0.0291,0.99358 1.15204,1.57567 1.99861,2.17684 0.94787,0.67311 1.68993,1.32669 2.5349,1.76997 0.80816,-1.17806 2.30581,-2.25478 2.42446,-4.29896 l 1.23085,-21.20621 0.73987,1.54082 1.10608,18.75255 c 0.12558,2.12919 2.63152,4.49033 5.90729,4.52849 1.15952,0.0135 2.44954,-0.24344 4.13718,-0.52843 1.21261,-0.20477 2.42971,0.28539 3.6739,0.36981 1.00733,0.0684 1.39433,-0.41442 3.35695,-0.25216 2.08935,0.17273 3.57433,0.0214 4.94946,0.0313 1.18505,0.009 2.49913,-0.36515 2.68425,-1.55343 l 2.09878,-13.47194 1.08517,4.58511 0.66553,6.58147 c 0.37174,3.67613 4.74672,4.09889 7.25283,4.2968 6.99066,0.55207 13.95393,-1.91318 21.03661,-1.87013 1.87226,0.0114 2.61538,1.55049 3.88317,1.61262 4.89879,0.24007 8.89132,-1.12862 13.1448,-1.00771 4.05453,0.11526 7.59336,1.68498 10.88035,1.36251 2.7483,-0.26962 5.76189,-1.76089 6.2757,-4.18892 l 2.22199,-10.50006 1.44881,1.56082 2.44832,8.97912 c 0.66355,2.43355 2.64718,3.01682 4.47561,3.1997 4.19064,0.41915 8.26451,0.11617 12.11123,0.23902 2.95665,0.0944 5.26786,0.44278 7.46434,0.98117 1.31216,0.32162 2.42201,0.35362 3.73267,-0.005 1.22801,-0.33576 1.98161,-0.67432 2.65232,-0.99226 1.14613,-0.54329 2.46594,5.6e-4 3.66354,-0.23846 0.95935,-0.19148 2.32137,-0.86465 2.66314,-2.25698 l 4.7166,-19.21483 4.07028,16.63669 c 0.99146,4.05245 3.28295,3.49718 5.00274,3.87235 4.48681,0.97878 8.1945,1.51551 11.72074,1.8569 3.58222,0.34681 7.19681,0.12732 10.79526,0.18845"
     id="path14359-1-7-5-3-0-73-1-9-6"
     inkscape:connector-curvature="0"
     sodipodi:nodetypes="cccsccsscccsscccccccccccccccssssssssssccsssccssscsscssscssscccccscccccsscsssccsssscsssscscsssssccccccssssscscsccsscsccsssssssccsssssssccsssssssscsssc" />
  <path
     style="fill:none;stroke:#000000;stroke-width:1;stroke-linecap:butt;stroke-linejoin:miter;stroke-miterlimit:4;stroke-dasharray:none;stroke-opacity:1"
     d="m 31.617572,239.84545 -0.002,3.90646"
     id="path14359-1-7-5-3-0-73-1-9-5"
     inkscape:connector-curvature="0"
     sodipodi:nodetypes="cc" />
  <path
     style="fill:none;stroke:#000000;stroke-width:1;stroke-linecap:butt;stroke-linejoin:miter;stroke-miterlimit:4;stroke-dasharray:none;stroke-opacity:1"
     d="m 482.31965,239.84545 -0.002,3.90646"
     id="path14359-1-7-5-3-0-73-1-9-0"
     inkscape:connector-curvature="0"
     sodipodi:nodetypes="cc" />
  <path
     style="fill:none;stroke:#000000;stroke-width:1;stroke-linecap:butt;stroke-linejoin:miter;stroke-miterlimit:4;stroke-dasharray:none;stroke-opacity:1"
     d="m 429.0174,239.84545 -0.002,3.90646"
     id="path14359-1-7-5-3-0-73-1-9-8"
     inkscape:connector-curvature="0"
     sodipodi:nodetypes="cc" />
  <path
     style="fill:none;stroke:#000000;stroke-width:1;stroke-linecap:butt;stroke-linejoin:miter;stroke-miterlimit:4;stroke-dasharray:none;stroke-opacity:1"
     d="m 58.181028,239.84545 -0.002,3.90646"
     id="path14359-1-7-5-3-0-73-1-9-3"
     inkscape:connector-curvature="0"
     sodipodi:nodetypes="cc" />
  <path
     style="fill:none;stroke:#000000;stroke-width:1;stroke-linecap:butt;stroke-linejoin:miter;stroke-miterlimit:4;stroke-dasharray:none;stroke-opacity:1"
     d="m 375.80282,239.84545 -0.002,3.90646"
     id="path14359-1-7-5-3-0-73-1-9-61"
     inkscape:connector-curvature="0"
     sodipodi:nodetypes="cc" />
  <path
     style="fill:none;stroke:#000000;stroke-width:1;stroke-linecap:butt;stroke-linejoin:miter;stroke-miterlimit:4;stroke-dasharray:none;stroke-opacity:1"
     d="m 349.59004,239.84545 -0.002,3.90646"
     id="path14359-1-7-5-3-0-73-1-9-50"
     inkscape:connector-curvature="0"
     sodipodi:nodetypes="cc" />
  <path
     style="fill:none;stroke:#000000;stroke-width:1;stroke-linecap:butt;stroke-linejoin:miter;stroke-miterlimit:4;stroke-dasharray:none;stroke-opacity:1"
     d="m 297.77815,239.84545 -0.002,3.90646"
     id="path14359-1-7-5-3-0-73-1-9-58"
     inkscape:connector-curvature="0"
     sodipodi:nodetypes="cc" />
  <path
     style="fill:none;stroke:#000000;stroke-width:1;stroke-linecap:butt;stroke-linejoin:miter;stroke-miterlimit:4;stroke-dasharray:none;stroke-opacity:1"
     d="m 84.218476,240.45913 -0.002,3.29278"
     id="path14359-1-7-5-3-0-73-1-9-54"
     inkscape:connector-curvature="0"
     sodipodi:nodetypes="cc" />
  <path
     style="fill:none;stroke:#000000;stroke-width:1;stroke-linecap:butt;stroke-linejoin:miter;stroke-miterlimit:4;stroke-dasharray:none;stroke-opacity:1"
     d="m 244.38823,239.84545 -0.002,3.90646"
     id="path14359-1-7-5-3-0-73-1-9-56"
     inkscape:connector-curvature="0"
     sodipodi:nodetypes="cc" />
  <path
     style="fill:none;stroke:#000000;stroke-width:1;stroke-linecap:butt;stroke-linejoin:miter;stroke-miterlimit:4;stroke-dasharray:none;stroke-opacity:1"
     d="m 111.39561,239.84545 -0.002,3.90646"
     id="path14359-1-7-5-3-0-73-1-9-1"
     inkscape:connector-curvature="0"
     sodipodi:nodetypes="cc" />
  <path
     style="fill:none;stroke:#000000;stroke-width:1;stroke-linecap:butt;stroke-linejoin:miter;stroke-miterlimit:4;stroke-dasharray:none;stroke-opacity:1"
     d="m 137.8714,239.84545 -0.002,3.90646"
     id="path14359-1-7-5-3-0-73-1-9-14"
     inkscape:connector-curvature="0"
     sodipodi:nodetypes="cc" />
  <path
     style="fill:none;stroke:#000000;stroke-width:1;stroke-linecap:butt;stroke-linejoin:miter;stroke-miterlimit:4;stroke-dasharray:none;stroke-opacity:1"
     d="m 217.7371,239.84545 -0.002,3.90646"
     id="path14359-1-7-5-3-0-73-1-9-53"
     inkscape:connector-curvature="0"
     sodipodi:nodetypes="cc" />
  <path
     style="fill:none;stroke:#000000;stroke-width:1;stroke-linecap:butt;stroke-linejoin:miter;stroke-miterlimit:4;stroke-dasharray:none;stroke-opacity:1"
     d="m 403.24296,239.84545 -0.002,3.90646"
     id="path14359-1-7-5-3-0-73-1-9-4"
     inkscape:connector-curvature="0"
     sodipodi:nodetypes="cc" />
  <path
     style="fill:none;stroke:#000000;stroke-width:1;stroke-linecap:butt;stroke-linejoin:miter;stroke-miterlimit:4;stroke-dasharray:none;stroke-opacity:1"
     d="m 455.84386,239.84545 -0.002,3.90646"
     id="path14359-1-7-5-3-0-73-1-9-2"
     inkscape:connector-curvature="0"
     sodipodi:nodetypes="cc" />
  <path
     style="fill:none;stroke:#000000;stroke-width:1;stroke-linecap:butt;stroke-linejoin:miter;stroke-miterlimit:4;stroke-dasharray:none;stroke-opacity:1"
     d="m 323.28958,239.84545 -0.002,3.90646"
     id="path14359-1-7-5-3-0-73-1-9-57"
     inkscape:connector-curvature="0"
     sodipodi:nodetypes="cc" />
  <path
     style="fill:none;stroke:#000000;stroke-width:1;stroke-linecap:butt;stroke-linejoin:miter;stroke-miterlimit:4;stroke-dasharray:none;stroke-opacity:1"
     d="m 164.61019,239.84545 -0.002,3.90646"
     id="path14359-1-7-5-3-0-73-1-9-89"
     inkscape:connector-curvature="0"
     sodipodi:nodetypes="cc" />
  <path
     style="fill:none;stroke:#000000;stroke-width:1;stroke-linecap:butt;stroke-linejoin:miter;stroke-miterlimit:4;stroke-dasharray:none;stroke-opacity:1"
     d="m 190.64764,239.84545 -0.002,3.90646"
     id="path14359-1-7-5-3-0-73-1-9-9"
     inkscape:connector-curvature="0"
     sodipodi:nodetypes="cc" />
  <path
     style="fill:none;stroke:#000000;stroke-width:1;stroke-linecap:butt;stroke-linejoin:miter;stroke-miterlimit:4;stroke-dasharray:none;stroke-opacity:1"
     d="m 270.68868,239.84545 -0.002,3.90646"
     id="path14359-1-7-5-3-0-73-1-9-7"
     inkscape:connector-curvature="0"
     sodipodi:nodetypes="cc" />
  <text
     xml:space="preserve"
     style="font-style:normal;font-variant:normal;font-weight:normal;font-stretch:normal;font-size:10px;line-height:120.00000477%;font-family:Arial;-inkscape-font-specification:Arial;text-align:start;letter-spacing:0.40000001px;word-spacing:0px;text-anchor:start;fill:#000000;fill-opacity:1;stroke:none;stroke-width:1px;stroke-linecap:butt;stroke-linejoin:miter;stroke-opacity:1"
     x="4.5985203"
     y="284.10892"
     id="text26882"
     sodipodi:linespacing="120%"><tspan
       sodipodi:role="line"
       id="tspan26884"
       x="4.5985203"
       y="284.10892">Figure 5.   Gas chromatogram of purgeable halocarbons.</tspan></text>
  <text
     xml:space="preserve"
     style="font-style:normal;font-variant:normal;font-weight:normal;font-stretch:normal;font-size:7.5px;line-height:120.00000477%;font-family:Arial;-inkscape-font-specification:Arial;text-align:start;letter-spacing:0.30000001px;word-spacing:0px;text-anchor:start;fill:#000000;fill-opacity:1;stroke:none;stroke-width:1px;stroke-linecap:butt;stroke-linejoin:miter;stroke-opacity:1"
     x="-102.3836"
     y="27.75054"
     id="text26886"
     sodipodi:linespacing="120%"
     transform="matrix(0,-1,1,0,0,0)"><tspan
       sodipodi:role="line"
       id="tspan26888"
       x="-102.3836"
       y="27.75054">CHLOROMETHANE</tspan></text>
  <text
     xml:space="preserve"
     style="font-style:normal;font-variant:normal;font-weight:normal;font-stretch:normal;font-size:7.5px;line-height:120.00000477%;font-family:Arial;-inkscape-font-specification:Arial;text-align:start;letter-spacing:0.1px;word-spacing:0px;text-anchor:start;fill:#000000;fill-opacity:1;stroke:none;stroke-width:1px;stroke-linecap:butt;stroke-linejoin:miter;stroke-opacity:1"
     x="-126.0958"
     y="256.03922"
     id="text26890"
     sodipodi:linespacing="120%"
     transform="matrix(0,-1,1,0,0,0)"><tspan
       sodipodi:role="line"
       id="tspan26892"
       x="-126.0958"
       y="256.03922">1, 1, 1, 2-TETRACHLOROETHANE</tspan></text>
  <text
     xml:space="preserve"
     style="font-style:normal;font-variant:normal;font-weight:normal;font-stretch:normal;font-size:7.5px;line-height:120.00000477%;font-family:Arial;-inkscape-font-specification:Arial;text-align:start;letter-spacing:0.1px;word-spacing:0px;text-anchor:start;fill:#000000;fill-opacity:1;stroke:none;stroke-width:1px;stroke-linecap:butt;stroke-linejoin:miter;stroke-opacity:1"
     x="-191.8197"
     y="34.390583"
     id="text26890-5"
     sodipodi:linespacing="120%"
     transform="matrix(0,-1,1,0,0,0)"><tspan
       sodipodi:role="line"
       id="tspan26892-0"
       x="-191.8197"
       y="34.390583">BROMOMETHANE</tspan></text>
  <text
     xml:space="preserve"
     style="font-style:normal;font-variant:normal;font-weight:normal;font-stretch:normal;font-size:7.5px;line-height:120.00000477%;font-family:Arial;-inkscape-font-specification:Arial;text-align:start;letter-spacing:0.1px;word-spacing:0px;text-anchor:start;fill:#000000;fill-opacity:1;stroke:none;stroke-width:1px;stroke-linecap:butt;stroke-linejoin:miter;stroke-opacity:1"
     x="-155.23131"
     y="52.916153"
     id="text26890-5-5"
     sodipodi:linespacing="120%"
     transform="matrix(0,-1,1,0,0,0)"><tspan
       sodipodi:role="line"
       id="tspan26892-0-5"
       x="-155.23131"
       y="52.916153">CHLOROETHANT</tspan></text>
  <text
     xml:space="preserve"
     style="font-style:normal;font-variant:normal;font-weight:normal;font-stretch:normal;font-size:7.5px;line-height:120.00000477%;font-family:Arial;-inkscape-font-specification:Arial;text-align:start;letter-spacing:0.1px;word-spacing:0px;text-anchor:start;fill:#000000;fill-opacity:1;stroke:none;stroke-width:1px;stroke-linecap:butt;stroke-linejoin:miter;stroke-opacity:1"
     x="-120.21181"
     y="110.57452"
     id="text26890-5-4"
     sodipodi:linespacing="120%"
     transform="matrix(0,-1,1,0,0,0)"><tspan
       sodipodi:role="line"
       id="tspan26892-0-0"
       x="-120.21181"
       y="110.57452">1, 1-DICHLOROETHENE</tspan></text>
  <flowRoot
     xml:space="preserve"
     id="flowRoot26948"
     style="fill:black;stroke:none;stroke-opacity:1;stroke-width:1px;stroke-linejoin:miter;stroke-linecap:butt;fill-opacity:1;font-family:Arial;font-style:normal;font-weight:normal;font-size:7.5px;line-height:120.00000477%;letter-spacing:1px;word-spacing:0px;-inkscape-font-specification:Arial;font-stretch:normal;font-variant:normal;text-anchor:start;text-align:start"><flowRegion
       id="flowRegion26950"><rect
         id="rect26952"
         width="0.35373235"
         height="27.591124"
         x="74.637527"
         y="28.71419" /></flowRegion><flowPara
       id="flowPara26954" /></flowRoot>  <flowRoot
     xml:space="preserve"
     id="flowRoot26956"
     style="fill:black;stroke:none;stroke-opacity:1;stroke-width:1px;stroke-linejoin:miter;stroke-linecap:butt;fill-opacity:1;font-family:Arial;font-style:normal;font-weight:normal;font-size:7.5px;line-height:120.00000477%;letter-spacing:1px;word-spacing:0px;-inkscape-font-specification:Arial;font-stretch:normal;font-variant:normal;text-anchor:start;text-align:start"><flowRegion
       id="flowRegion26958"><rect
         id="rect26960"
         width="7.0746469"
         height="31.48218"
         x="48.46133"
         y="25.530598" /></flowRegion><flowPara
       id="flowPara26962" /></flowRoot>  <text
     xml:space="preserve"
     style="font-style:normal;font-variant:normal;font-weight:normal;font-stretch:normal;font-size:7.5px;line-height:120.00000477%;font-family:Arial;-inkscape-font-specification:Arial;text-align:start;letter-spacing:0.1px;word-spacing:0px;text-anchor:start;fill:#000000;fill-opacity:1;stroke:none;stroke-width:1px;stroke-linecap:butt;stroke-linejoin:miter;stroke-opacity:1"
     x="-131.04677"
     y="141.21773"
     id="text26890-5-4-4"
     sodipodi:linespacing="120%"
     transform="matrix(0,-1,1,0,0,0)"><tspan
       sodipodi:role="line"
       id="tspan26892-0-0-9"
       x="-131.04677"
       y="141.21773">trans-1, 2-DICHLOROETHENE</tspan></text>
  <text
     xml:space="preserve"
     style="font-style:normal;font-variant:normal;font-weight:normal;font-stretch:normal;font-size:7.5px;line-height:120.00000477%;font-family:Arial;-inkscape-font-specification:Arial;text-align:start;letter-spacing:0.1px;word-spacing:0px;text-anchor:start;fill:#000000;fill-opacity:1;stroke:none;stroke-width:1px;stroke-linecap:butt;stroke-linejoin:miter;stroke-opacity:1"
     x="-145.19608"
     y="176.23726"
     id="text26890-5-4-8"
     sodipodi:linespacing="120%"
     transform="matrix(0,-1,1,0,0,0)"><tspan
       sodipodi:role="line"
       id="tspan26892-0-0-5"
       x="-145.19608"
       y="176.23726">1, 1, 1-TRICHLOROETHANE</tspan></text>
  <text
     xml:space="preserve"
     style="font-style:normal;font-variant:normal;font-weight:normal;font-stretch:normal;font-size:7.5px;line-height:120.00000477%;font-family:Arial;-inkscape-font-specification:Arial;text-align:start;letter-spacing:0.1px;word-spacing:0px;text-anchor:start;fill:#000000;fill-opacity:1;stroke:none;stroke-width:1px;stroke-linecap:butt;stroke-linejoin:miter;stroke-opacity:1"
     x="-133.12286"
     y="199.58357"
     id="text26890-5-4-8-9"
     sodipodi:linespacing="120%"
     transform="matrix(0,-1,1,0,0,0)"><tspan
       sodipodi:role="line"
       id="tspan26892-0-0-5-3"
       x="-133.12286"
       y="199.58357">1, 2-DICHLOROPROPANE</tspan></text>
  <text
     xml:space="preserve"
     style="font-style:normal;font-variant:normal;font-weight:normal;font-stretch:normal;font-size:7.5px;line-height:120.00000477%;font-family:Arial;-inkscape-font-specification:Arial;text-align:start;letter-spacing:0.1px;word-spacing:0px;text-anchor:start;fill:#000000;fill-opacity:1;stroke:none;stroke-width:1px;stroke-linecap:butt;stroke-linejoin:miter;stroke-opacity:1"
     x="-163.313"
     y="217.97765"
     id="text26890-5-4-8-9-2"
     sodipodi:linespacing="120%"
     transform="matrix(0,-1,1,0,0,0)"><tspan
       sodipodi:role="line"
       id="tspan26892-0-0-5-3-7"
       x="-163.313"
       y="217.97765">cis - 1, 3-DICHLOROPROPANE</tspan></text>
  <text
     xml:space="preserve"
     style="font-style:normal;font-variant:normal;font-weight:normal;font-stretch:normal;font-size:7.5px;line-height:120.00000477%;font-family:Arial;-inkscape-font-specification:Arial;text-align:start;letter-spacing:0.1px;word-spacing:0px;text-anchor:start;fill:#000000;fill-opacity:1;stroke:none;stroke-width:1px;stroke-linecap:butt;stroke-linejoin:miter;stroke-opacity:1"
     x="-171.09511"
     y="228.58963"
     id="text26890-5-4-8-9-28"
     sodipodi:linespacing="120%"
     transform="matrix(0,-1,1,0,0,0)"><tspan
       sodipodi:role="line"
       id="tspan26892-0-0-5-3-74"
       x="-171.09511"
       y="228.58963">trans - 1, 3-DICHLOROPROPANE</tspan></text>
  <text
     xml:space="preserve"
     style="font-style:normal;font-variant:normal;font-weight:normal;font-stretch:normal;font-size:7.5px;line-height:120.00000477%;font-family:Arial;-inkscape-font-specification:Arial;text-align:start;letter-spacing:0.1px;word-spacing:0px;text-anchor:start;fill:#000000;fill-opacity:1;stroke:none;stroke-width:1px;stroke-linecap:butt;stroke-linejoin:miter;stroke-opacity:1"
     x="-197.2713"
     y="242.03145"
     id="text26890-5-4-8-9-5"
     sodipodi:linespacing="120%"
     transform="matrix(0,-1,1,0,0,0)"><tspan
       sodipodi:role="line"
       id="tspan26892-0-0-5-3-8"
       x="-197.2713"
       y="242.03145">1, 2-DIBROMOETHANE</tspan></text>
  <text
     xml:space="preserve"
     style="font-style:normal;font-variant:normal;font-weight:normal;font-stretch:normal;font-size:7.5px;line-height:120.00000477%;font-family:Arial;-inkscape-font-specification:Arial;text-align:start;letter-spacing:0.1px;word-spacing:0px;text-anchor:start;fill:#000000;fill-opacity:1;stroke:none;stroke-width:1px;stroke-linecap:butt;stroke-linejoin:miter;stroke-opacity:1"
     x="-167.20407"
     y="283.77188"
     id="text26890-5-4-8-9-4"
     sodipodi:linespacing="120%"
     transform="matrix(0,-1,1,0,0,0)"><tspan
       sodipodi:role="line"
       id="tspan26892-0-0-5-3-6"
       x="-167.20407"
       y="283.77188">1, 2, 3-TRICHLOROPROPANE</tspan></text>
  <text
     xml:space="preserve"
     style="font-style:normal;font-variant:normal;font-weight:normal;font-stretch:normal;font-size:7.5px;line-height:120.00000477%;font-family:Arial;-inkscape-font-specification:Arial;text-align:start;letter-spacing:0.1px;word-spacing:0px;text-anchor:start;fill:#000000;fill-opacity:1;stroke:none;stroke-width:1px;stroke-linecap:butt;stroke-linejoin:miter;stroke-opacity:1"
     x="-166.49658"
     y="303.22717"
     id="text26890-5-4-8-9-0"
     sodipodi:linespacing="120%"
     transform="matrix(0,-1,1,0,0,0)"><tspan
       sodipodi:role="line"
       id="tspan26892-0-0-5-3-72"
       x="-166.49658"
       y="303.22717">1, 1, 2, 2-TETRACHLOROETHANE</tspan></text>
  <text
     xml:space="preserve"
     style="font-style:normal;font-variant:normal;font-weight:normal;font-stretch:normal;font-size:7.5px;line-height:120.00000477%;font-family:Arial;-inkscape-font-specification:Arial;text-align:start;letter-spacing:0.1px;word-spacing:0px;text-anchor:start;fill:#000000;fill-opacity:1;stroke:none;stroke-width:1px;stroke-linecap:butt;stroke-linejoin:miter;stroke-opacity:1"
     x="-186.3056"
     y="324.80484"
     id="text26890-5-4-8-9-8"
     sodipodi:linespacing="120%"
     transform="matrix(0,-1,1,0,0,0)"><tspan
       sodipodi:role="line"
       id="tspan26892-0-0-5-3-3"
       x="-186.3056"
       y="324.80484">CHLOROBENZENE</tspan></text>
  <text
     xml:space="preserve"
     style="font-style:normal;font-variant:normal;font-weight:normal;font-stretch:normal;font-size:7.5px;line-height:120.00000477%;font-family:Arial;-inkscape-font-specification:Arial;text-align:start;letter-spacing:0.1px;word-spacing:0px;text-anchor:start;fill:#000000;fill-opacity:1;stroke:none;stroke-width:1px;stroke-linecap:butt;stroke-linejoin:miter;stroke-opacity:1"
     x="-206.11462"
     y="336.83173"
     id="text26890-5-4-8-9-55"
     sodipodi:linespacing="120%"
     transform="matrix(0,-1,1,0,0,0)"><tspan
       sodipodi:role="line"
       id="tspan26892-0-0-5-3-5"
       x="-206.11462"
       y="336.83173">1-CHLOROHEXANE</tspan></text>
  <text
     xml:space="preserve"
     style="font-style:normal;font-variant:normal;font-weight:normal;font-stretch:normal;font-size:7.5px;line-height:120.00000477%;font-family:Arial;-inkscape-font-specification:Arial;text-align:start;letter-spacing:0.1px;word-spacing:0px;text-anchor:start;fill:#000000;fill-opacity:1;stroke:none;stroke-width:1px;stroke-linecap:butt;stroke-linejoin:miter;stroke-opacity:1"
     x="-214.80438"
     y="366.32303"
     id="text26890-5-4-8-9-8-5"
     sodipodi:linespacing="120%"
     transform="matrix(0,-1,1,0,0,0)"><tspan
       sodipodi:role="line"
       id="tspan26892-0-0-5-3-3-0"
       x="-214.80438"
       y="366.32303">BROMBENZENE</tspan></text>
  <text
     xml:space="preserve"
     style="font-style:normal;font-variant:normal;font-weight:normal;font-stretch:normal;font-size:7.5px;line-height:120.00000477%;font-family:Arial;-inkscape-font-specification:Arial;text-align:start;letter-spacing:0.1px;word-spacing:0px;text-anchor:start;fill:#000000;fill-opacity:1;stroke:none;stroke-width:1px;stroke-linecap:butt;stroke-linejoin:miter;stroke-opacity:1"
     x="-213.74318"
     y="431.40976"
     id="text26890-5-4-8-9-8-2"
     sodipodi:linespacing="120%"
     transform="matrix(0,-1,1,0,0,0)"><tspan
       sodipodi:role="line"
       id="tspan26892-0-0-5-3-3-08"
       x="-213.74318"
       y="431.40976">2-CHLOROTOLUENE</tspan></text>
  <text
     xml:space="preserve"
     style="font-style:normal;font-variant:normal;font-weight:normal;font-stretch:normal;font-size:7.5px;line-height:120.00000477%;font-family:Arial;-inkscape-font-specification:Arial;text-align:start;letter-spacing:0.1px;word-spacing:0px;text-anchor:start;fill:#000000;fill-opacity:1;stroke:none;stroke-width:1px;stroke-linecap:butt;stroke-linejoin:miter;stroke-opacity:1"
     x="-206.3148"
     y="478.45618"
     id="text26890-5-4-8-9-8-9"
     sodipodi:linespacing="120%"
     transform="matrix(0,-1,1,0,0,0)"><tspan
       sodipodi:role="line"
       id="tspan26892-0-0-5-3-3-03"
       x="-206.3148"
       y="478.45618">1, 4-DICHLOROBENZENE</tspan></text>
  <text
     xml:space="preserve"
     style="font-style:normal;font-variant:normal;font-weight:normal;font-stretch:normal;font-size:7.5px;line-height:120.00000477%;font-family:Arial;-inkscape-font-specification:Arial;text-align:start;letter-spacing:0.79999995px;word-spacing:0px;text-anchor:start;fill:#000000;fill-opacity:1;stroke:none;stroke-width:1px;stroke-linecap:butt;stroke-linejoin:miter;stroke-opacity:1"
     x="191.72295"
     y="263.23874"
     id="text27108"
     sodipodi:linespacing="120%"><tspan
       sodipodi:role="line"
       id="tspan27110"
       x="191.72295"
       y="263.23874">RETENTION TIME, MIN.</tspan></text>
  <text
     xml:space="preserve"
     style="font-style:normal;font-variant:normal;font-weight:normal;font-stretch:normal;font-size:7.5px;line-height:140%;font-family:Arial;-inkscape-font-specification:Arial;text-align:start;letter-spacing:0.40000001px;word-spacing:0px;text-anchor:start;fill:#000000;fill-opacity:1;stroke:none;stroke-width:1px;stroke-linecap:butt;stroke-linejoin:miter;stroke-opacity:1;"
     x="303.50235"
     y="10.67384"
     id="text27112"
     sodipodi:linespacing="140%"><tspan
       sodipodi:role="line"
       id="tspan27126"
       x="303.50235"
       y="10.67384">COLUMN: 1% SP-1000 ON CARBOPACK-B</tspan><tspan
       sodipodi:role="line"
       id="tspan27128"
       x="303.50235"
       y="19.67384">PROGRAM: 45ºC FOR 3 MIN. 8ºC/MIN TO 220ºC</tspan><tspan
       sodipodi:role="line"
       x="303.50235"
       y="28.673841"
       id="tspan27130">DETECTOR: HALL 700-A ELECTROLYTIC CONDUCTIVITY</tspan></text>
</svg>
