<?xml version="1.0" encoding="UTF-8" standalone="no"?>
<!-- Created with Inkscape (http://www.inkscape.org/) -->

<svg
   xmlns:dc="http://purl.org/dc/elements/1.1/"
   xmlns:cc="http://creativecommons.org/ns#"
   xmlns:rdf="http://www.w3.org/1999/02/22-rdf-syntax-ns#"
   xmlns:svg="http://www.w3.org/2000/svg"
   xmlns="http://www.w3.org/2000/svg"
   xmlns:sodipodi="http://sodipodi.sourceforge.net/DTD/sodipodi-0.dtd"
   xmlns:inkscape="http://www.inkscape.org/namespaces/inkscape"
   id="svg12443"
   version="1.1"
   inkscape:version="0.91 r13725"
   width="430.79999"
   height="381"
   viewBox="0 0 430.79999 381"
   sodipodi:docname="ec01au91.167.svg">
  <title id="title_ec01au91.167">Test set-up specifications</title>
  <desc id="desc_ec01au91.167">Limbs</desc>
  <metadata
     id="metadata12449">
    <rdf:RDF>
      <cc:Work
         rdf:about="">
        <dc:format>image/svg+xml</dc:format>
        <dc:type
           rdf:resource="http://purl.org/dc/dcmitype/StillImage" />
        <dc:title></dc:title>
      </cc:Work>
    </rdf:RDF>
  </metadata>
  <defs
     id="defs12447" />
  <sodipodi:namedview
     pagecolor="#ffffff"
     bordercolor="#666666"
     borderopacity="1"
     objecttolerance="10"
     gridtolerance="10"
     guidetolerance="10"
     inkscape:pageopacity="0"
     inkscape:pageshadow="2"
     inkscape:window-width="1280"
     inkscape:window-height="756"
     id="namedview12445"
     showgrid="false"
     inkscape:zoom="1.7707743"
     inkscape:cx="294.8398"
     inkscape:cy="141.77673"
     inkscape:window-x="0"
     inkscape:window-y="0"
     inkscape:window-maximized="0"
     inkscape:current-layer="svg12443" />
  <path
     style="fill:#000000;stroke:#000000;stroke-width:1;stroke-linecap:round;stroke-linejoin:round;stroke-miterlimit:4;stroke-dasharray:none;stroke-opacity:1;fill-opacity:1"
     d="m 223.53829,255.02193 -1.2e-4,2.37619 -1.50654,0 1.2e-4,-2.37619 z m -3.7e-4,6.69126 -5e-4,2.0158 -1.50654,0 5e-4,-2.0158 z m -1.50604,-9.2861 0.001,-4.30492 1.50654,0 -0.001,4.30492 z"
     id="path14359-1-7-5-3-0-73-1-9-36-6"
     inkscape:connector-curvature="0"
     sodipodi:nodetypes="ccccccccccccccc"
     inkscape:transform-center-x="0.03366111"
     inkscape:transform-center-y="-0.1641457" />
  <path
     style="fill:#000000;stroke:#000000;stroke-width:1;stroke-linecap:round;stroke-linejoin:round;stroke-miterlimit:4;stroke-dasharray:none;stroke-opacity:1;fill-opacity:1"
     d="m 258.82369,251.94546 -0.006,-1.24339 26.26024,0 c 0.24038,0 0.42242,0.73181 0.54249,1.80517 -0.2991,-0.15402 -0.72399,-0.16944 -1.12197,-0.36843 -0.1821,-0.091 -0.42072,0.005 -0.60317,-0.0862 -0.24359,-0.1218 -0.89949,0.1211 -1.22786,-0.0431 -0.33275,-0.16637 -0.90582,0.1718 -1.24941,0 -0.0348,-0.0174 -0.17262,-2.9e-4 -0.19387,-0.0215 -0.28801,-0.28801 -0.042,-0.38774 -0.64624,-0.38774 -0.44449,0 -0.72996,0.7444 -1.27095,0.47391 -0.10061,-0.0503 -0.0858,-0.31219 -0.19388,-0.36621 -0.11126,-0.0556 -1.65422,-0.01 -1.91719,0.0431 -0.26942,0.0539 -0.69796,0.44805 -0.94782,0.32312 -0.14229,-0.0711 -0.41361,-0.009 -0.49546,-0.17233 -0.0379,-0.0758 0.0146,-0.1577 -0.0431,-0.21542 -0.0958,-0.0958 -2.3608,-0.0259 -2.5419,0.0646 -0.1434,0.0717 -0.21661,0.25909 -0.38774,0.34466 -0.0922,0.0461 -0.0422,-0.34377 -0.10771,-0.40929 -0.0772,-0.0772 -0.42017,-0.0148 -0.53854,0 -0.22783,0.0285 -0.78597,-0.0111 -0.94782,0.15079 -0.0496,0.0496 -0.12664,0.25763 -0.19388,0.28004 -0.44023,0.14675 -0.94348,0.11631 -1.35711,0.32312 -0.3973,0.19865 -1.42004,-0.59154 -1.78794,-0.77549 -0.44436,-0.22218 -1.61042,0.38515 -1.96028,0.56008 -0.30492,0.15246 -1.71377,-0.002 -2.0249,-0.0646 -1.60081,-0.32016 -3.50302,0.1698 -5.03801,-0.21489 z m 26.89153,6.60744 c -0.0981,1.41022 -0.29157,2.442 -0.58661,2.442 l -26.26024,0 -0.0121,-2.4577 c 1.41249,0.11665 1.00467,-1.06985 1.49417,-1.3146 0.49235,-0.24617 0.83026,0.3936 1.12015,0.53854 0.35711,0.17855 0.91238,-0.007 1.27095,0.17233 0.17847,0.0892 1.13016,0.30158 1.33557,0.30158 0.42139,0 1.01021,0.17683 1.22787,-0.25849 0.0212,-0.0423 0.10727,-0.38753 0.15079,-0.40929 0.0588,-0.0294 0.17072,0.27682 0.19387,0.32312 0.14321,0.28642 0.50681,0.47108 0.84012,0.38775 0.1925,-0.0481 0.41102,-0.10858 0.58162,-0.19388 0.20249,-0.10124 1.02436,0.0215 1.29249,0.0215 0.0573,0 0.31501,0.0727 0.36621,0.0215 0.077,-0.077 0.31868,-0.009 0.43083,-0.0646 0.15584,-0.0779 0.18509,-0.25411 0.3662,-0.34466 0.27473,-0.13737 0.8374,0.20014 1.07708,0.28004 0.30989,0.1033 0.65192,-0.13454 0.92628,-0.0431 0.20721,0.0691 0.3951,0.20833 0.53854,0.28004 0.22275,0.11138 0.53285,0.0471 0.77549,0.10771 0.31621,0.079 0.6622,-0.12366 0.84012,-0.30158 0.0377,-0.0377 0.38563,0.042 0.43083,0.0646 0.19324,0.0966 0.76814,0.31812 0.94782,0.25852 0.10148,-0.0338 1.15749,0.2424 1.44329,0.19388 0.29345,-0.0498 3.45142,0.20966 3.16659,-0.71087 0.11647,-0.23294 -0.5018,-0.38016 -0.60316,-0.43083 -0.12703,-0.0635 -2.34471,0 -2.75731,0 -0.13937,0 0.17205,-0.10771 0.2585,-0.10771 0.29079,0 0.64973,0.0476 0.92628,-0.0215 0.43193,-0.10798 1.327,0.0431 1.80949,0.0431 1.3917,0 2.73661,-0.17233 4.13596,-0.17233 0.75395,0 0.35748,0.66546 0.64625,1.09862 0.0747,0.11204 1.43644,0.30963 1.62606,0.29631 z"
     id="path14359-1-7-5-3-0-73-1-9-8-8-8-6"
     inkscape:connector-curvature="0"
     sodipodi:nodetypes="ccsccsccsscscssccssccccccsccsccsscsscc" />
  <path
     style="fill:#000000;stroke:#000000;stroke-width:1;stroke-linecap:round;stroke-linejoin:round;stroke-miterlimit:4;stroke-dasharray:none;stroke-opacity:1;fill-opacity:1"
     d="m 223.61841,253.12995 -0.0142,-2.45425 26.18597,0 0.007,1.44167 c -0.27253,0.17564 -1.05903,-0.0425 -1.27302,0.0645 -0.15858,0.0793 -0.72556,0.305 -0.94783,0.19387 -0.0937,-0.0468 -0.43093,-0.0574 -0.53853,-0.0215 -0.47557,0.15852 -2.31831,0.4026 -2.73577,0.19387 -0.20402,-0.10201 -0.3967,-0.24143 -0.60316,-0.34466 -0.32649,-0.16324 -1.00402,0.0365 -1.37866,-0.15079 -0.23047,-0.11524 -1.18278,0.40829 -1.4002,0.51699 -0.39124,0.19562 -1.25095,0.2625 -1.70177,0.17233 -0.61221,-0.12244 -1.1705,-0.15441 -1.72332,-0.43083 -0.24985,-0.12492 -1.0099,0.007 -1.35712,-0.0431 -0.31301,-0.0447 -1.1029,0.0224 -1.42174,0.0862 -0.48307,0.0966 -1.01953,-0.0698 -1.5079,0 -0.47209,0.0674 -0.97496,0.0145 -1.44328,-0.0215 -0.31032,-0.0239 -0.63984,0.044 -0.94782,0 -1.23179,-0.17597 -3.38239,-0.26274 -4.58834,-0.0216 -0.10577,0.0212 -1.04506,0.0541 -1.09862,0.10771 -0.12005,0.12005 -0.31408,0.24946 -0.43083,0.36621 -0.0705,0.0705 -0.0195,0.18976 -0.0646,0.28004 -0.17134,0.34267 -0.70028,0.10218 -1.01624,0.0649 z m 26.22237,7.83858 -26.18597,0 -0.0179,-3.63808 c 0.17439,0.12764 1.96224,-0.1558 1.9671,-0.15093 0.41192,0.41191 0.66473,1.14017 1.18479,1.4002 0.0704,0.0352 0.19642,0.0228 0.28004,0.0646 0.009,0.004 0.26088,0.0634 0.34466,0.0215 0.21492,-0.10746 0.5438,-0.8698 0.81858,-0.73241 0.39304,0.19652 0.52818,0.68933 1.03399,0.68933 0.0353,0 0.19746,0.061 0.23695,0.0215 0.0871,-0.0871 1.19838,-0.84806 1.24941,-0.79703 0.50084,0.50084 1.86535,0.51918 2.56344,0.34466 0.40666,-0.10166 0.85148,0.0465 1.2494,-0.0862 0.46003,-0.15334 0.20445,-0.76452 0.49546,-1.05553 0.1072,-0.1072 0.48133,0.0215 0.60316,0.0215 0.516,0 1.31962,0.14106 1.80949,0.0431 0.16943,-0.0339 1.07723,-0.16149 1.22786,-0.0862 0.36882,0.18441 0.36977,1.06809 0.81858,1.29249 0.18065,0.0903 0.74463,0.18456 0.79703,0.23696 0.35805,0.35805 0.25838,0.43076 0.90474,0.75395 0.0346,0.0173 0.17097,-0.0215 0.23696,-0.0215 0.73598,0 0.42319,-0.27622 0.73241,-0.43083 0.26651,-0.13326 0.60244,0.0431 0.8832,0.0431 0.43552,0 0.44176,-0.35549 0.79704,-0.47391 0.31679,-0.1056 0.80126,0.1379 1.07707,0 0.21615,-0.10807 0.27672,-0.81193 0.38775,-1.03399 0.0834,-0.16678 2.15552,-0.30022 2.30494,-0.15079 0.25067,0.25067 0.22658,0.89436 0.51699,1.18478 0.1949,0.1949 1.80767,0.0428 1.66512,0.22616 z"
     id="path14359-1-7-5-3-0-73-1-9-8-8-8-8-9"
     inkscape:connector-curvature="0"
     sodipodi:nodetypes="cccccccccccccccccsccscccccccsccsscsscsscccscscscsccccc" />
  <path
     style="color:#000000;display:inline;overflow:visible;visibility:visible;fill:#000000;fill-opacity:1;fill-rule:evenodd;stroke:#000000;stroke-width:1;stroke-linecap:round;stroke-linejoin:round;stroke-miterlimit:4;stroke-dasharray:none;stroke-dashoffset:0;stroke-opacity:1;marker:none;enable-background:accumulate"
     d="m 169.74676,266.4721 -26.59912,0.0224 c -1.48136,0 -2.78668,-1.8908 -3.55337,-4.76284 0.3862,0.42542 0.57813,0.81713 0.9123,1.1513 0.10214,0.10214 0.30643,0.10214 0.40857,0.20429 0.16542,0.16541 0.26362,0.49952 0.49028,0.61285 0.27913,0.13956 0.73093,0.12257 1.06228,0.12257 0.51036,0 1.50816,-0.32862 2.00198,-0.0817 0.41179,0.2059 1.47316,1.10198 2.12455,0.77628 0.24541,-0.1227 0.25409,-0.35175 0.53114,-0.49028 0.17592,-0.0879 0.46258,-0.11564 0.65371,-0.16342 0.2336,-0.0584 0.43564,-0.28049 0.65371,-0.36772 0.72445,-0.28978 1.47691,-0.45144 2.20627,-0.69456 0.81572,-0.27191 1.91528,0.0842 2.65569,-0.286 0.14836,-0.0742 0.52439,0 0.69457,0 1.3941,0 2.45551,0.14505 3.71797,0.77628 0.71547,0.35774 3.38899,-0.56987 3.63625,-0.81714 0.18764,-0.18763 0.85305,-0.0384 1.10314,-0.16342 0.19763,-0.0988 1.69747,0.6853 1.96112,0.81713 0.53246,0.26623 2.64739,0.0785 3.87063,0.0707 0.4061,1.218 0.91102,3.25085 1.46833,3.27323 z"
     id="path13471-1"
     inkscape:connector-curvature="0"
     sodipodi:nodetypes="cscsccsscccsscssccccc" />
  <text
     xml:space="preserve"
     style="font-style:normal;font-variant:normal;font-weight:bold;font-stretch:normal;font-size:8.75px;line-height:129.99999523%;font-family:Arial;-inkscape-font-specification:'Arial Bold';text-align:start;letter-spacing:0.25px;word-spacing:1.3px;text-anchor:start;fill:#000000;fill-opacity:1;stroke:none;stroke-width:1px;stroke-linecap:butt;stroke-linejoin:miter;stroke-opacity:1;"
     x="182.34125"
     y="12.845016"
     id="text12453"
     sodipodi:linespacing="130%"><tspan
       sodipodi:role="line"
       id="tspan12455"
       x="182.34125"
       y="12.845016">FIGURE 24</tspan></text>
  <text
     xml:space="preserve"
     style="font-style:normal;font-variant:normal;font-weight:bold;font-stretch:normal;font-size:8.75px;line-height:129.99999523%;font-family:Arial;-inkscape-font-specification:'Arial Bold';text-align:start;letter-spacing:0.25px;word-spacing:1.29999996px;text-anchor:start;fill:#000000;fill-opacity:1;stroke:none;stroke-width:1px;stroke-linecap:butt;stroke-linejoin:miter;stroke-opacity:1;"
     x="136.43565"
     y="31.742146"
     id="text12453-7"
     sodipodi:linespacing="130%"><tspan
       sodipodi:role="line"
       id="tspan12455-1"
       x="136.43565"
       y="31.742146">TEST SET-UP SPECIFICATIONS</tspan></text>
  <text
     xml:space="preserve"
     style="font-style:normal;font-variant:normal;font-weight:normal;font-stretch:normal;font-size:7.5px;line-height:129.99999523%;font-family:Arial;-inkscape-font-specification:Arial;text-align:start;letter-spacing:0.25px;word-spacing:0.85000002px;text-anchor:start;fill:#000000;fill-opacity:1;stroke:none;stroke-width:1px;stroke-linecap:butt;stroke-linejoin:miter;stroke-opacity:1"
     x="5.5912056"
     y="147.7673"
     id="text12475"
     sodipodi:linespacing="130%"><tspan
       sodipodi:role="line"
       id="tspan12477"
       x="5.5912056"
       y="147.7673">TORQUE TWO FEMUR LOAD CELL SIMULATOR</tspan><tspan
       sodipodi:role="line"
       x="5.5912056"
       y="157.5173"
       id="tspan12479">   MOUNTING BOLTS (P/N 78051-99 AND</tspan><tspan
       sodipodi:role="line"
       x="5.5912056"
       y="167.2673"
       id="tspan12481">     P/N 78051-100) TO 41 NEWTON • METRES</tspan><tspan
       sodipodi:role="line"
       x="5.5912056"
       y="177.0173"
       id="tspan12483">        (30 FT LBS)</tspan></text>
  <text
     xml:space="preserve"
     style="font-style:normal;font-variant:normal;font-weight:normal;font-stretch:normal;font-size:7.5px;line-height:129.99999523%;font-family:Arial;-inkscape-font-specification:Arial;text-align:start;letter-spacing:0.25px;word-spacing:0.85000002px;text-anchor:start;fill:#000000;fill-opacity:1;stroke:none;stroke-width:1px;stroke-linecap:butt;stroke-linejoin:miter;stroke-opacity:1"
     x="239.50618"
     y="127.55939"
     id="text12475-1"
     sodipodi:linespacing="130%"><tspan
       sodipodi:role="line"
       x="239.50618"
       y="127.55939"
       id="tspan12483-5">PENDULUM ACCELEROMETER</tspan><tspan
       sodipodi:role="line"
       x="239.50618"
       y="137.30939"
       id="tspan12539">   (ENDEVCO MODEL 7231C OR EQUIVALENT)</tspan><tspan
       sodipodi:role="line"
       x="239.50618"
       y="147.05939"
       id="tspan12541">     MOUNTED WITH SENSITIVE AXIS</tspan><tspan
       sodipodi:role="line"
       x="239.50618"
       y="156.80939"
       id="tspan12543">        PARALLEL TO PENDULUM</tspan><tspan
       sodipodi:role="line"
       x="239.50618"
       y="166.55939"
       id="tspan12545">          LONGITUDINAL CENTERLINE</tspan></text>
  <text
     xml:space="preserve"
     style="font-style:normal;font-variant:normal;font-weight:normal;font-stretch:normal;font-size:7.5px;line-height:129.99999523%;font-family:Arial;-inkscape-font-specification:Arial;text-align:start;letter-spacing:0.1px;word-spacing:0.85000002px;text-anchor:start;fill:#000000;fill-opacity:1;stroke:none;stroke-width:1px;stroke-linecap:butt;stroke-linejoin:miter;stroke-opacity:1"
     x="143.42928"
     y="198.72557"
     id="text12475-1-9"
     sodipodi:linespacing="130%"><tspan
       sodipodi:role="line"
       x="143.42928"
       y="198.72557"
       id="tspan12545-8">CENTERLINE OF FEMUR LOAD CELL</tspan><tspan
       sodipodi:role="line"
       x="143.42928"
       y="208.47557"
       id="tspan12591">   SIMULATOR (P/N 78051-319)</tspan><tspan
       sodipodi:role="line"
       x="143.42928"
       y="218.22557"
       id="tspan12593">     HORIZONTAL ±0.5°</tspan></text>
  <text
     xml:space="preserve"
     style="font-style:normal;font-variant:normal;font-weight:normal;font-stretch:normal;font-size:7.5px;line-height:129.99999523%;font-family:Arial;-inkscape-font-specification:Arial;text-align:start;letter-spacing:0.25px;word-spacing:0.85000002px;text-anchor:start;fill:#000000;fill-opacity:1;stroke:none;stroke-width:1px;stroke-linecap:butt;stroke-linejoin:miter;stroke-opacity:1"
     x="19.79682"
     y="288.31168"
     id="text12475-6"
     sodipodi:linespacing="130%"><tspan
       sodipodi:role="line"
       x="19.79682"
       y="288.31168"
       id="tspan12483-3">ADJUST KNEE JOINT</tspan><tspan
       sodipodi:role="line"
       x="19.79682"
       y="298.06168"
       id="tspan12670">TORQUE TO 1 - 2 g RANGE</tspan><tspan
       sodipodi:role="line"
       x="19.79682"
       y="307.81168"
       id="tspan12672">BEFORE EACH TEST</tspan></text>
  <text
     xml:space="preserve"
     style="font-style:normal;font-variant:normal;font-weight:normal;font-stretch:normal;font-size:7.5px;line-height:129.99999523%;font-family:Arial;-inkscape-font-specification:Arial;text-align:center;letter-spacing:0.25px;word-spacing:0.85000002px;text-anchor:middle;fill:#000000;fill-opacity:1;stroke:none;stroke-width:1px;stroke-linecap:butt;stroke-linejoin:miter;stroke-opacity:1"
     x="161.19077"
     y="292.78305"
     id="text12475-6-5"
     sodipodi:linespacing="130%"><tspan
       sodipodi:role="line"
       x="161.31577"
       y="292.78305"
       id="tspan12672-3">1.15 RAD</tspan><tspan
       sodipodi:role="line"
       x="161.31577"
       y="302.53302"
       id="tspan12715">(66°)</tspan></text>
  <text
     xml:space="preserve"
     style="font-style:normal;font-variant:normal;font-weight:normal;font-stretch:normal;font-size:7.5px;line-height:129.99999523%;font-family:Arial;-inkscape-font-specification:Arial;text-align:start;letter-spacing:0.25px;word-spacing:0.85000002px;text-anchor:start;fill:#000000;fill-opacity:1;stroke:none;stroke-width:1px;stroke-linecap:butt;stroke-linejoin:miter;stroke-opacity:1"
     x="219.1833"
     y="236.00453"
     id="text12475-6-2"
     sodipodi:linespacing="130%"><tspan
       sodipodi:role="line"
       x="219.1833"
       y="236.00453"
       id="tspan12672-4">KNEE PIVOT</tspan></text>
  <text
     xml:space="preserve"
     style="font-style:normal;font-variant:normal;font-weight:normal;font-stretch:normal;font-size:7.5px;line-height:129.99999523%;font-family:Arial;-inkscape-font-specification:Arial;text-align:start;letter-spacing:0.25px;word-spacing:0.85000002px;text-anchor:start;fill:#000000;fill-opacity:1;stroke:none;stroke-width:1px;stroke-linecap:butt;stroke-linejoin:miter;stroke-opacity:1"
     x="250.45383"
     y="278.15842"
     id="text12475-6-2-7"
     sodipodi:linespacing="130%"><tspan
       sodipodi:role="line"
       x="250.45383"
       y="278.15842"
       id="tspan12672-4-9">PENDULUM CENTERLINE</tspan><tspan
       sodipodi:role="line"
       x="250.45383"
       y="287.90842"
       id="tspan12748">HORIZONTAL  ±0.5°</tspan></text>
  <text
     xml:space="preserve"
     style="font-style:normal;font-variant:normal;font-weight:normal;font-stretch:normal;font-size:7.5px;line-height:129.99999523%;font-family:Arial;-inkscape-font-specification:Arial;text-align:start;letter-spacing:0.25px;word-spacing:0.85000002px;text-anchor:start;fill:#000000;fill-opacity:1;stroke:none;stroke-width:1px;stroke-linecap:butt;stroke-linejoin:miter;stroke-opacity:1"
     x="245.86565"
     y="305.68741"
     id="text12475-6-2-1"
     sodipodi:linespacing="130%"><tspan
       sodipodi:role="line"
       x="245.86565"
       y="305.68741"
       id="tspan12672-4-1">RIGID PENDULUM IMPACTOR</tspan></text>
  <text
     xml:space="preserve"
     style="font-style:normal;font-variant:normal;font-weight:normal;font-stretch:normal;font-size:7.5px;line-height:129.99999523%;font-family:Arial;-inkscape-font-specification:Arial;text-align:start;letter-spacing:0.25px;word-spacing:0.85000002px;text-anchor:start;fill:#000000;fill-opacity:1;stroke:none;stroke-width:1px;stroke-linecap:butt;stroke-linejoin:miter;stroke-opacity:1"
     x="73.522804"
     y="369.0614"
     id="text12475-6-2-2"
     sodipodi:linespacing="130%"><tspan
       sodipodi:role="line"
       x="73.522804"
       y="369.0614"
       id="tspan12672-4-2">ANKLE PIVOT</tspan></text>
  <path
     style="fill:#000000;fill-opacity:1;stroke:#000000;stroke-width:1;stroke-linecap:butt;stroke-linejoin:miter;stroke-miterlimit:4;stroke-dasharray:none;stroke-opacity:1"
     d="m 287.78991,247.58957 0.67489,2.14728 0.57126,-2.18248 z"
     id="path14359-1-7-3-7-3-9"
     inkscape:connector-curvature="0"
     sodipodi:nodetypes="cccc" />
  <path
     style="fill:none;stroke:#000000;stroke-width:1;stroke-linecap:butt;stroke-linejoin:miter;stroke-miterlimit:4;stroke-dasharray:none;stroke-opacity:1"
     d="m 287.34994,169.00632 1.04671,78.60118"
     id="path14359-1-7-5-3-0-73-1-9-7"
     inkscape:connector-curvature="0"
     sodipodi:nodetypes="cc" />
  <path
     style="fill:#000000;fill-opacity:1;stroke:#000000;stroke-width:1;stroke-linecap:butt;stroke-linejoin:miter;stroke-miterlimit:4;stroke-dasharray:none;stroke-opacity:1"
     d="m 292.91609,257.76447 1.97692,-1.07615 -1.10482,1.96697 z"
     id="path14359-1-7-3-7-3-5"
     inkscape:connector-curvature="0"
     sodipodi:nodetypes="cccc" />
  <path
     style="fill:none;stroke:#000000;stroke-width:1;stroke-linecap:butt;stroke-linejoin:miter;stroke-miterlimit:4;stroke-dasharray:none;stroke-opacity:1"
     d="m 293.31565,258.213 -12.06308,12.23955"
     id="path14359-1-7-5-3-0-73-1-9-7-8"
     inkscape:connector-curvature="0"
     sodipodi:nodetypes="cc" />
  <path
     style="fill:#000000;fill-opacity:1;stroke:#000000;stroke-width:1;stroke-linecap:butt;stroke-linejoin:miter;stroke-miterlimit:4;stroke-dasharray:none;stroke-opacity:1"
     d="m 234.70629,265.05889 0.6271,-2.16172 0.61952,2.16928 z"
     id="path14359-1-7-3-7-3-5-0"
     inkscape:connector-curvature="0"
     sodipodi:nodetypes="cccc" />
  <path
     style="fill:none;stroke:#000000;stroke-width:1;stroke-linecap:butt;stroke-linejoin:miter;stroke-miterlimit:4;stroke-dasharray:none;stroke-opacity:1"
     d="m 235.30613,265.09079 3.4e-4,37.60575 8.83903,0"
     id="path14359-1-7-5-3-0-73-1-9-7-7"
     inkscape:connector-curvature="0"
     sodipodi:nodetypes="ccc" />
  <path
     style="fill:#000000;fill-opacity:1;stroke:#000000;stroke-width:1;stroke-linecap:butt;stroke-linejoin:miter;stroke-miterlimit:4;stroke-dasharray:none;stroke-opacity:1"
     d="m 208.38196,250.04763 -0.40798,2.21356 1.52584,-1.66174 z"
     id="path14359-1-7-3-7-3-9-1"
     inkscape:connector-curvature="0"
     sodipodi:nodetypes="cccc" />
  <path
     style="fill:none;stroke:#000000;stroke-width:1;stroke-linecap:butt;stroke-linejoin:miter;stroke-miterlimit:4;stroke-dasharray:none;stroke-opacity:1"
     d="m 217.2755,233.41777 -8.36567,16.92953"
     id="path14359-1-7-5-3-0-73-1-9-7-2"
     inkscape:connector-curvature="0"
     sodipodi:nodetypes="cc" />
  <path
     style="fill:#000000;fill-opacity:1;stroke:#000000;stroke-width:1;stroke-linecap:butt;stroke-linejoin:miter;stroke-miterlimit:4;stroke-dasharray:none;stroke-opacity:1"
     d="m 200.07084,257.3672 2.19233,-0.50991 -1.58941,1.60106 z"
     id="path14359-1-7-3-7-3-5-2"
     inkscape:connector-curvature="0"
     sodipodi:nodetypes="cccc" />
  <path
     style="fill:none;stroke:#000000;stroke-width:1;stroke-linecap:butt;stroke-linejoin:miter;stroke-miterlimit:4;stroke-dasharray:none;stroke-opacity:1"
     d="m 200.3363,257.90605 -50.87332,29.24658 m -6.38517,3.67077 -12.36785,7.11016 -2.91168,0"
     id="path14359-1-7-5-3-0-73-1-9-7-27"
     inkscape:connector-curvature="0"
     sodipodi:nodetypes="ccccc" />
  <path
     style="fill:#000000;fill-opacity:1;stroke:#000000;stroke-width:1;stroke-linecap:butt;stroke-linejoin:miter;stroke-miterlimit:4;stroke-dasharray:none;stroke-opacity:1"
     d="m 185.91473,250.986 2.07552,0.87094 -1.29787,-1.8453 z"
     id="path14359-1-7-3-7-3-9-4"
     inkscape:connector-curvature="0"
     sodipodi:nodetypes="cccc" />
  <path
     style="fill:none;stroke:#000000;stroke-width:1;stroke-linecap:butt;stroke-linejoin:miter;stroke-miterlimit:4;stroke-dasharray:none;stroke-opacity:1"
     d="m 144.17988,216.10489 42.14026,34.42934"
     id="path14359-1-7-5-3-0-73-1-9-7-86"
     inkscape:connector-curvature="0"
     sodipodi:nodetypes="cc" />
  <path
     style="fill:#000000;fill-opacity:1;stroke:#000000;stroke-width:1;stroke-linecap:butt;stroke-linejoin:miter;stroke-miterlimit:4;stroke-dasharray:none;stroke-opacity:1"
     d="m 176.28645,248.40216 1.59021,1.59296 -0.50115,-2.19964 z"
     id="path14359-1-7-3-7-3-9-6"
     inkscape:connector-curvature="0"
     sodipodi:nodetypes="cccc" />
  <path
     style="fill:none;stroke:#000000;stroke-width:1;stroke-linecap:butt;stroke-linejoin:miter;stroke-miterlimit:4;stroke-dasharray:none;stroke-opacity:1"
     d="m 161.22963,221.31277 15.60326,26.82511"
     id="path14359-1-7-5-3-0-73-1-9-7-72"
     inkscape:connector-curvature="0"
     sodipodi:nodetypes="cc" />
  <path
     style="fill:#000000;fill-opacity:1;stroke:#000000;stroke-width:1;stroke-linecap:butt;stroke-linejoin:miter;stroke-miterlimit:4;stroke-dasharray:none;stroke-opacity:1"
     d="m 143.56536,259.07005 0.49394,-2.19597 0.75082,2.1274 z"
     id="path14359-1-7-3-7-3-5-59"
     inkscape:connector-curvature="0"
     sodipodi:nodetypes="cccc" />
  <path
     style="fill:none;stroke:#000000;stroke-width:1;stroke-linecap:butt;stroke-linejoin:miter;stroke-miterlimit:4;stroke-dasharray:none;stroke-opacity:1"
     d="m 144.16603,259.06527 c 0,0 1.8202,14.96112 10.71993,26.30998 m 17.97056,13.34463 c 6.72509,2.81778 12.00898,3.33953 12.00898,3.33953"
     id="path14359-1-7-5-3-0-73-1-9-7-0"
     inkscape:connector-curvature="0"
     sodipodi:nodetypes="cccc" />
  <path
     style="fill:#000000;fill-opacity:1;stroke:#000000;stroke-width:1;stroke-linecap:butt;stroke-linejoin:miter;stroke-miterlimit:4;stroke-dasharray:none;stroke-opacity:1"
     d="m 184.71757,302.64811 2.24216,-0.19747 -2.00866,-1.02708 z"
     id="path14359-1-7-3-7-3-9-0"
     inkscape:connector-curvature="0"
     sodipodi:nodetypes="cccc" />
  <path
     style="fill:#000000;fill-opacity:1;stroke:#000000;stroke-width:1;stroke-linecap:butt;stroke-linejoin:miter;stroke-miterlimit:4;stroke-dasharray:none;stroke-opacity:1"
     d="m 163.0106,249.95282 1.61229,1.5706 -0.53181,-2.19243 z"
     id="path14359-1-7-3-7-3-9-9"
     inkscape:connector-curvature="0"
     sodipodi:nodetypes="cccc" />
  <path
     style="fill:none;stroke:#000000;stroke-width:1;stroke-linecap:butt;stroke-linejoin:miter;stroke-miterlimit:4;stroke-dasharray:none;stroke-opacity:1"
     d="m 117.42066,169.64751 46.13264,80.03342"
     id="path14359-1-7-5-3-0-73-1-9-7-4"
     inkscape:connector-curvature="0"
     sodipodi:nodetypes="cc" />
  <path
     style="fill:#000000;fill-opacity:1;stroke:#000000;stroke-width:1;stroke-linecap:butt;stroke-linejoin:miter;stroke-miterlimit:4;stroke-dasharray:none;stroke-opacity:1"
     d="m 170.77638,342.27607 2.09236,-0.82965 -1.33417,1.81923 z"
     id="path14359-1-7-3-7-3-5-29"
     inkscape:connector-curvature="0"
     sodipodi:nodetypes="cccc" />
  <path
     style="fill:none;stroke:#000000;stroke-width:1;stroke-linecap:butt;stroke-linejoin:miter;stroke-miterlimit:4;stroke-dasharray:none;stroke-opacity:1"
     d="m 171.11887,342.76955 -31.01232,23.92385 -10.91881,0"
     id="path14359-1-7-5-3-0-73-1-9-7-5"
     inkscape:connector-curvature="0"
     sodipodi:nodetypes="ccc" />
  <path
     style="fill:none;stroke:#000000;stroke-width:1;stroke-linecap:butt;stroke-linejoin:miter;stroke-miterlimit:4;stroke-dasharray:none;stroke-opacity:1"
     d="m 129.87995,255.02758 14.60983,-3e-5 m 3.55958,-1e-5 3.63222,-10e-6 m 4.06809,-1e-5 34.36082,-7e-5 m 3.55958,-10e-6 5.15775,-1e-5 m 3.05107,-1e-5 14.60153,-3e-5 m 2.10669,-1e-5 5.15775,-1e-5 m 2.76049,0 12.78542,-3e-5 m 3.05107,-1e-5 5.52098,-1e-5 m 2.03404,-1e-5 13.80244,-3e-5 m 3.12371,0 5.2304,-2e-5 m 3.77751,0 12.64014,-3e-5 m 2.39726,-1e-5 5.52098,-1e-5 m 2.17933,0 11.67937,-3e-5"
     id="path14359-1-7-5-3-0-73-1-9-7-83"
     inkscape:connector-curvature="0"
     sodipodi:nodetypes="cccccccccccccccccccccccccc" />
  <path
     style="fill:none;stroke:#000000;stroke-width:1;stroke-linecap:butt;stroke-linejoin:miter;stroke-miterlimit:4;stroke-dasharray:none;stroke-opacity:1"
     d="m 213.13858,234.17636 -3.65625,10.07165 m -1.2241,3.37195 -1.02716,2.82945 m -1.11398,3.06862 -3.91377,10.78102 m -1.4635,4.0314 -1.30246,3.58781 m -1.23894,3.41284 -4.36065,12.01199 m -1.21564,3.34865 -0.80691,2.22277 m -1.15213,3.17368 -3.82057,10.52428 m -1.042,2.87034 -1.03562,2.85275 m -1.30246,3.58782 -3.39492,9.35179 m -1.34061,3.69288 -1.01232,2.78857 m -1.294,3.56451 -3.11324,8.57585 m -1.51217,4.16548 -1.1076,3.05103 m -1.00178,2.75955 -3.83835,10.57327"
     id="path14359-1-7-5-3-0-73-1-9-7-83-3"
     inkscape:connector-curvature="0"
     sodipodi:nodetypes="cccccccccccccccccccccccccc" />
  <path
     style="fill:none;stroke:#000000;stroke-width:1;stroke-linecap:round;stroke-linejoin:round;stroke-miterlimit:4;stroke-dasharray:none;stroke-opacity:1"
     d="m 141.96369,222.87022 6e-5,22.23371 m 6e-5,24.95816 2.5e-4,97.31396 75.33245,0"
     id="path14359-1-7-5-3-0-73-1-9-7-83-0"
     inkscape:connector-curvature="0"
     sodipodi:nodetypes="ccccc" />
  <path
     style="color:#000000;display:inline;overflow:visible;visibility:visible;fill:none;fill-rule:evenodd;stroke:#000000;stroke-width:1;stroke-linecap:round;stroke-linejoin:round;stroke-miterlimit:4;stroke-dasharray:none;stroke-dashoffset:0;stroke-opacity:1;marker:none;enable-background:accumulate"
     d="m 171.40719,259.16182 c -0.19297,4.19357 -0.87467,7.2927 -1.68602,7.29269 -0.96134,10e-6 -1.74066,-4.35088 -1.74066,-9.71798 0,-5.3671 0.77932,-9.71798 1.74066,-9.71797 0.64241,-1e-5 1.20353,1.94286 1.50515,4.83354"
     id="path13471"
     inkscape:connector-curvature="0"
     sodipodi:nodetypes="ccscc" />
  <path
     style="color:#000000;display:inline;overflow:visible;visibility:visible;fill:none;fill-rule:evenodd;stroke:#000000;stroke-width:1;stroke-linecap:round;stroke-linejoin:round;stroke-miterlimit:4;stroke-dasharray:none;stroke-dashoffset:0;stroke-opacity:1;marker:none;enable-background:accumulate"
     d="m 169.80253,266.4993 -26.6398,0 c -2.3602,0 -4.27351,-4.79979 -4.27351,-10.72063 0,-5.92083 1.91332,-10.72062 4.27351,-10.72062 l 22.0307,0"
     id="path13474"
     inkscape:connector-curvature="0"
     sodipodi:nodetypes="csssc" />
  <path
     style="color:#000000;display:inline;overflow:visible;visibility:visible;fill:none;fill-rule:evenodd;stroke:#000000;stroke-width:1;stroke-linecap:round;stroke-linejoin:round;stroke-miterlimit:4;stroke-dasharray:none;stroke-dashoffset:0;stroke-opacity:1;marker:none;enable-background:accumulate"
     d="m 162.57285,247.6472 c 0.74569,-1.59176 1.71209,-2.55232 2.76794,-2.55232 0.87664,0 1.69163,0.66217 2.36983,1.79801"
     id="path13474-8"
     inkscape:connector-curvature="0"
     sodipodi:nodetypes="csc" />
  <path
     style="fill:none;stroke:#000000;stroke-width:1;stroke-linecap:round;stroke-linejoin:round;stroke-miterlimit:4;stroke-dasharray:none;stroke-opacity:1"
     d="m 163.03088,247.02952 6.79867,0.002"
     id="path14359-1-7-5-3-0-73-1-9-8"
     inkscape:connector-curvature="0"
     sodipodi:nodetypes="cc" />
  <path
     style="fill:#000000;fill-opacity:1;stroke:#000000;stroke-width:1;stroke-linecap:round;stroke-linejoin:round;stroke-miterlimit:4;stroke-dasharray:none;stroke-opacity:1"
     d="m 156.53465,246.41666 3.0807,0.002 c 0.1554,0.39977 0.22184,0.36263 0.89885,0.44943 l -9.86293,-0.002 c 2.93437,-0.1454 5.70999,0.19767 5.88338,-0.44943 z"
     id="path14359-1-7-5-3-0-73-1-9-8-1"
     inkscape:connector-curvature="0"
     sodipodi:nodetypes="ccccc" />
  <path
     style="fill:none;stroke:#000000;stroke-width:1;stroke-linecap:round;stroke-linejoin:round;stroke-miterlimit:4;stroke-dasharray:none;stroke-opacity:1"
     d="m 258.85744,260.98844 -0.0507,-10.29283 26.26024,0 c 0.90149,0 0.98258,10.29283 0.0507,10.29283 z"
     id="path14359-1-7-5-3-0-73-1-9-8-8-8"
     inkscape:connector-curvature="0"
     sodipodi:nodetypes="ccssc" />
  <path
     style="fill:none;stroke:#000000;stroke-width:1;stroke-linecap:round;stroke-linejoin:round;stroke-miterlimit:4;stroke-dasharray:none;stroke-opacity:1"
     d="m 223.64407,260.96207 -0.0507,-10.29283 26.20751,0 0.0507,10.29283 z"
     id="path14359-1-7-5-3-0-73-1-9-8-8-8-8"
     inkscape:connector-curvature="0"
     sodipodi:nodetypes="ccccc" />
  <path
     style="fill:#000000;fill-opacity:1;stroke:#000000;stroke-width:1;stroke-linecap:round;stroke-linejoin:round;stroke-miterlimit:4;stroke-dasharray:none;stroke-opacity:1"
     d="m 249.84243,258.93906 c 0.61642,-0.0199 1.22868,-0.0315 1.83805,-0.0373 0.22791,-0.002 0.34166,0.41355 0.56883,0.41285 0.20719,-6.3e-4 0.52893,-0.23217 0.73755,-0.23892 0.26508,-0.009 0.51187,0.11755 0.77807,0.1126 1.17332,-0.0218 2.35608,0.0377 3.50486,-0.0265 0.49225,-0.0275 0.9473,-0.2171 1.44355,-0.21673 l 0,0.94795 -8.87091,-0.006 z"
     id="path14359-1-7-5-3-0-73-1-9-8-8-8-2-36"
     inkscape:connector-curvature="0"
     sodipodi:nodetypes="cssssscccc" />
  <path
     style="fill:#000000;stroke:#000000;stroke-width:1;stroke-linecap:round;stroke-linejoin:round;stroke-miterlimit:4;stroke-dasharray:none;stroke-opacity:1;fill-opacity:1"
     d="m 249.89931,252.09488 c 0.72014,-0.0106 1.44028,-0.0159 2.16042,-0.0177 0.38553,-9.8e-4 0.67627,-0.28536 1.0618,-0.28468 1.41375,0.003 2.90175,-0.0285 4.34164,0.056 0.44563,0.0262 0.88846,0.63114 1.26913,1.02967 l 0.0379,-1.57359 -8.87091,-0.006 z"
     id="path14359-1-7-5-3-0-73-1-9-8-8-8-2"
     inkscape:connector-curvature="0"
     sodipodi:nodetypes="cssscccc" />
  <path
     style="fill:none;stroke:#000000;stroke-width:1;stroke-linecap:round;stroke-linejoin:round;stroke-miterlimit:4;stroke-dasharray:none;stroke-opacity:1"
     d="m 181.26243,250.39235 -4.1602,0 c -2.40172,0 -2.34342,9.89772 -0.002,9.89772 l 4.1602,0"
     id="path14359-1-7-5-3-0-73-1-9"
     inkscape:connector-curvature="0"
     sodipodi:nodetypes="cssc"
     inkscape:transform-center-x="0.03366111"
     inkscape:transform-center-y="-0.1641457" />
  <path
     style="fill:#000000;stroke:#000000;stroke-width:1;stroke-linecap:round;stroke-linejoin:round;stroke-miterlimit:4;stroke-dasharray:none;stroke-opacity:1;fill-opacity:1"
     d="m 175.72916,259.36626 -5.07955,0 -2.24076,-0.83581 5.6e-4,-2.05422 -0.93336,-1.4193 -1.00861,0 0,1.4193 0,-3.13739 -2.05406,0 3.1e-4,1.7928 -0.67203,-1.86748 1.64264,0 0.63568,-0.2988 2.39038,0 2.24125,-1.17195 5.07955,0 -0.33639,0.91045 c -0.11694,-0.1248 -0.82107,0.11347 -0.9345,5e-5 -0.11069,-0.1107 -0.15978,-0.30918 -0.26145,-0.41085 -0.0421,-0.0421 -1.85208,0.022 -1.86748,0.0374 -0.20539,0.2054 -0.48045,0.33106 -0.70964,0.56025 -0.14435,0.14435 -0.45427,0.0808 -0.5976,0.2241 -0.0663,0.0663 -0.1338,0.27232 -0.26144,0.33614 -0.24861,0.12431 -0.74679,0.14919 -0.93375,0.33615 -0.19795,0.19795 -0.31257,0.46198 -0.44819,0.59759 -0.12603,0.12603 -0.39119,0.16709 -0.5229,0.2988 -0.27253,0.27254 -0.19416,0.99362 -0.0374,1.30724 0.11573,0.23145 -0.14946,0.78428 0.0374,0.97109 0.35177,0.35177 1.16629,-0.16385 1.56869,0.0374 0.54845,0.27423 0.3428,0.8657 0.67229,1.19519 0.26818,0.26818 1.6213,0.045 1.90484,0.18675 0.49954,0.24977 0.69647,0.47238 1.00844,0.78434 0.25752,0.25753 0.80905,-0.51025 0.89639,-0.59759 0.14653,-0.14653 0.44925,0.0747 0.54169,0.0747 z"
     id="path14359-1-7-5-3-0-73-1-9-71"
     inkscape:connector-curvature="0"
     sodipodi:nodetypes="ccccccccccccccccccscsccscccccsccscc"
     inkscape:transform-center-x="0.03366111"
     inkscape:transform-center-y="-0.1641457" />
  <path
     style="fill:none;stroke:#000000;stroke-width:1;stroke-linecap:round;stroke-linejoin:round;stroke-miterlimit:4;stroke-dasharray:none;stroke-opacity:1"
     d="m 164.63831,253.21269 -0.001,5.05627 c 0.59759,0.34301 1.19519,0.45068 1.79278,0 l -9.1e-4,-0.43404"
     id="path14359-1-7-5-3-0-73-1-9-77"
     inkscape:connector-curvature="0"
     sodipodi:nodetypes="cccc"
     inkscape:transform-center-x="0.03366111"
     inkscape:transform-center-y="-0.1641457" />
  <path
     style="fill:none;stroke:#000000;stroke-width:1;stroke-linecap:round;stroke-linejoin:round;stroke-miterlimit:4;stroke-dasharray:none;stroke-opacity:1"
     d="m 190.03416,258.11961 -8e-5,0.35026 -1.97954,0 2.4e-4,-1.09725 m 3.5e-4,-1.60605 1.7e-4,-0.82169 -0.78408,-0.70962 9.8e-4,-1.24667 3.51087,0 -9.9e-4,0.79845 -0.74725,1.1952 -4.5e-4,1.79278"
     id="path14359-1-7-5-3-0-73-1-9-3"
     inkscape:connector-curvature="0"
     sodipodi:nodetypes="cccccccccccc"
     inkscape:transform-center-x="0.03366111"
     inkscape:transform-center-y="-0.1641457" />
  <path
     style="fill:none;stroke:#000000;stroke-width:1;stroke-linecap:round;stroke-linejoin:round;stroke-miterlimit:4;stroke-dasharray:none;stroke-opacity:1"
     d="m 166.1323,339.63982 c -1.60116,-8.71061 4.39152,-10.70969 8.41852,-22.82497 4.70213,-14.14639 5.66563,-29.76903 11.64384,-42.39022 3.11807,-6.58287 5.64248,-7.53499 9.72222,-9.84703 3.25945,-1.84717 5.05285,-5.14675 6.51217,-8.5301 1.01557,-2.35456 2.83887,-6.2044 4.54428,-6.68589"
     id="path14359-1-7-5-3-0-73-1-9-86"
     inkscape:connector-curvature="0"
     sodipodi:nodetypes="cssssc"
     inkscape:transform-center-x="0.03366111"
     inkscape:transform-center-y="-0.1641457" />
  <path
     style="fill:none;stroke:#000000;stroke-width:1;stroke-linecap:round;stroke-linejoin:round;stroke-miterlimit:4;stroke-dasharray:none;stroke-opacity:1"
     d="m 218.53855,264.67187 c 1.9361,-3.11205 3.7334,-6.41014 2.82798,-12.24782 -0.7498,-4.83432 -3.81159,-8.08519 -8.47653,-9.82027 -9.63813,-3.58482 -18.44863,-4.65619 -27.92691,-5.88633 -3.04707,-0.14812 -5.47959,17.49511 -2.75438,31.44489 4.61628,-0.68069 9.71257,-2.04037 13.89015,-3.67118"
     id="path14359-1-7-5-3-0-73-1-9-39"
     inkscape:connector-curvature="0"
     sodipodi:nodetypes="cssccc"
     inkscape:transform-center-x="0.03366111"
     inkscape:transform-center-y="-0.1641457" />
  <path
     style="fill:#000000;stroke:#000000;stroke-width:1;stroke-linecap:round;stroke-linejoin:round;stroke-miterlimit:4;stroke-dasharray:none;stroke-opacity:1;fill-opacity:1"
     d="m 213.29695,242.78593 -0.7048,1.36669 c 2.33896,1.05445 6.75683,3.29749 6.75019,8.82183 -0.004,2.92564 -0.3741,5.83671 -1.25553,8.74072 -0.78065,2.57201 0.95673,2.2222 0.42577,3.65741 l -1.04342,-0.52471 c -0.55517,-0.27917 -0.24928,-2.21225 0.1576,-3.25331 1.07398,-2.74791 1.32257,-5.62972 1.31095,-8.57826 -0.0125,-3.179 -2.99127,-7.24143 -7.31332,-8.69742 l 0.75099,-1.80562 z"
     id="path14359-1-7-5-3-0-73-1-9-1"
     inkscape:connector-curvature="0"
     sodipodi:nodetypes="ccsscsssccc"
     inkscape:transform-center-x="0.03366111"
     inkscape:transform-center-y="-0.1641457" />
  <path
     style="fill:none;stroke:#000000;stroke-width:1;stroke-linecap:round;stroke-linejoin:round;stroke-miterlimit:4;stroke-dasharray:none;stroke-opacity:1"
     d="m 218.49257,265.36155 c 0.58272,1.55323 -3.50517,7.77331 -5.83578,13.06521 -3.6465,8.27977 -8.25606,17.36016 -12.86484,25.56587 -4.37704,7.79311 -10.04593,18.29214 -11.01301,24.90225 -0.35397,2.41945 -0.57345,4.99058 -0.35855,7.55321"
     id="path14359-1-7-5-3-0-73-1-9-5"
     inkscape:connector-curvature="0"
     sodipodi:nodetypes="csssc"
     inkscape:transform-center-x="0.03366111"
     inkscape:transform-center-y="-0.1641457" />
  <path
     style="fill:none;stroke:#000000;stroke-width:1;stroke-linecap:round;stroke-linejoin:round;stroke-miterlimit:4;stroke-dasharray:none;stroke-opacity:1"
     d="m 223.54817,248.12491 -0.002,15.60682 -1.50654,0 0.002,-15.60682 z"
     id="path14359-1-7-5-3-0-73-1-9-36"
     inkscape:connector-curvature="0"
     sodipodi:nodetypes="ccccc"
     inkscape:transform-center-x="0.03366111"
     inkscape:transform-center-y="-0.1641457" />
  <path
     style="fill:none;stroke:#000000;stroke-width:1;stroke-linecap:round;stroke-linejoin:round;stroke-miterlimit:4;stroke-dasharray:none;stroke-opacity:1"
     d="m 218.42403,354.93864 c 0.1568,3.07192 -6.12798,4.52203 -10.2276,4.66586 -10.14241,0.35584 -15.74624,-4.49844 -23.76087,-5.01751 -4.81361,-0.31175 -9.1695,1.17258 -14.03402,0.43241 -3.67685,-0.55946 -7.63238,-4.39731 -7.06418,-7.14692 0.33368,-1.6147 0.99856,-3.38387 1.10692,-5.12456 0.0733,-1.17682 -0.43716,-2.65239 0.50472,-2.70998 1.12892,-0.069 2.10849,-0.14905 3.1357,-0.11787 1.40012,0.0425 1.64678,0.65518 3.68641,0.67201 4.31449,0.0356 8.8055,-0.82995 16.54929,-3.9938 7.00312,4.08585 9.55795,11.02318 20.49805,13.53583 3.73702,0.8583 9.41896,1.14844 9.60558,4.80453 z"
     id="path14359-1-7-5-3-0-73-1-9-36-1"
     inkscape:connector-curvature="0"
     sodipodi:nodetypes="ssssssssscss"
     inkscape:transform-center-x="0.03366111"
     inkscape:transform-center-y="-0.1641457" />
  <path
     style="fill:none;stroke:#d10000;stroke-width:1;stroke-linecap:butt;stroke-linejoin:miter;stroke-miterlimit:4;stroke-dasharray:none;stroke-opacity:1"
     d="m 277.13753,35.631732 -140.75895,-0.002"
     id="path14359-1-7-5-3-0-73-1-9-4"
     inkscape:connector-curvature="0"
     sodipodi:nodetypes="cc"
     inkscape:transform-center-x="-0.16414889"
     inkscape:transform-center-y="-0.033660699" />
  <path
     style="fill:none;stroke:#000000;stroke-width:1;stroke-linecap:round;stroke-linejoin:round;stroke-miterlimit:4;stroke-dasharray:none;stroke-opacity:1"
     d="m 285.64967,253.38036 4.61367,0 -0.002,4.27856 -4.61367,0"
     id="path14359-1-7-5-3-0-73-1-9-13"
     inkscape:connector-curvature="0"
     sodipodi:nodetypes="cccc"
     inkscape:transform-center-x="0.03366111"
     inkscape:transform-center-y="-0.1641457" />
</svg>
