<?xml version="1.0" encoding="UTF-8" standalone="no"?>
<!-- Created with Inkscape (http://www.inkscape.org/) -->

<svg
   xmlns:dc="http://purl.org/dc/elements/1.1/"
   xmlns:cc="http://creativecommons.org/ns#"
   xmlns:rdf="http://www.w3.org/1999/02/22-rdf-syntax-ns#"
   xmlns:svg="http://www.w3.org/2000/svg"
   xmlns="http://www.w3.org/2000/svg"
   xmlns:sodipodi="http://sodipodi.sourceforge.net/DTD/sodipodi-0.dtd"
   xmlns:inkscape="http://www.inkscape.org/namespaces/inkscape"
   id="svg9311"
   version="1.1"
   inkscape:version="0.91 r13725"
   width="573.59998"
   height="351"
   viewBox="0 0 573.59998 351"
   sodipodi:docname="ec01au91.182.svg">
  <metadata
     id="metadata9317">
    <rdf:RDF>
      <cc:Work
         rdf:about="">
        <dc:format>image/svg+xml</dc:format>
        <dc:type
           rdf:resource="http://purl.org/dc/dcmitype/StillImage" />
        <dc:title></dc:title>
      </cc:Work>
    </rdf:RDF>
  </metadata>
  <defs
     id="defs9315" />
  <sodipodi:namedview
     pagecolor="#ffffff"
     bordercolor="#666666"
     borderopacity="1"
     objecttolerance="10"
     gridtolerance="10"
     guidetolerance="10"
     inkscape:pageopacity="0"
     inkscape:pageshadow="2"
     inkscape:window-width="1280"
     inkscape:window-height="756"
     id="namedview9313"
     showgrid="false"
     inkscape:zoom="0.91285318"
     inkscape:cx="225.21836"
     inkscape:cy="175.5"
     inkscape:window-x="0"
     inkscape:window-y="0"
     inkscape:window-maximized="0"
     inkscape:current-layer="svg9311" />
  <path
     style="fill:#d8d8d8;stroke:#000000;stroke-width:1;stroke-linecap:round;stroke-linejoin:round;stroke-miterlimit:4;stroke-dasharray:none;stroke-opacity:1;fill-opacity:1"
     d="m 387.19038,211.64171 -8.2e-4,-42.58302 -41.97495,-0.20835 -1.3499,84.12771 c 1.51449,0.13873 1.81159,-0.61883 2.048,-1.27539 l 7.86964,-21.85504 c 7.58808,-10.62615 19.65945,-17.67403 33.35796,-18.21478"
     id="path14359-1-7-5-3-0-73-1-9-6-60-2"
     inkscape:connector-curvature="0"
     sodipodi:nodetypes="ccccscc"
     inkscape:transform-center-x="0.03366111"
     inkscape:transform-center-y="-0.1641457" />
  <path
     style="fill:none;stroke:#000000;stroke-width:1;stroke-linecap:round;stroke-linejoin:round;stroke-miterlimit:4;stroke-dasharray:none;stroke-opacity:1"
     d="m 122.23224,232.855 221.83785,0.002"
     id="path14359-1-7-5-3-0-73-1-9"
     inkscape:connector-curvature="0"
     sodipodi:nodetypes="cc"
     inkscape:transform-center-x="0.16414111"
     inkscape:transform-center-y="0.033664302" />
  <path
     style="fill:none;stroke:#000000;stroke-width:1;stroke-linecap:round;stroke-linejoin:round;stroke-miterlimit:4;stroke-dasharray:none;stroke-opacity:1"
     d="m 119.68726,227.7829 224.43548,0.002"
     id="path14359-1-7-5-3-0-73-1-9-0"
     inkscape:connector-curvature="0"
     sodipodi:nodetypes="cc"
     inkscape:transform-center-x="0.16414111"
     inkscape:transform-center-y="0.033664302" />
  <path
     style="fill:none;stroke:#000000;stroke-width:1;stroke-linecap:round;stroke-linejoin:round;stroke-miterlimit:4;stroke-dasharray:none;stroke-opacity:1"
     d="m 267.70868,144.66969 0.002,-4.2625 7.87059,0 -0.002,4.2625 z"
     id="path14359-1-7-5-3-0-73-1-9-0-0"
     inkscape:connector-curvature="0"
     sodipodi:nodetypes="ccccc"
     inkscape:transform-center-x="0.03366111"
     inkscape:transform-center-y="-0.1641457" />
  <path
     style="fill:none;stroke:#000000;stroke-width:1;stroke-linecap:round;stroke-linejoin:round;stroke-miterlimit:4;stroke-dasharray:none;stroke-opacity:1"
     d="m 168.56099,170.46777 0.002,-22.84586 -11.69659,0 -0.002,22.84586 z"
     id="path14359-1-7-5-3-0-73-1-9-0-4"
     inkscape:connector-curvature="0"
     sodipodi:nodetypes="ccccc"
     inkscape:transform-center-x="0.03366111"
     inkscape:transform-center-y="-0.1641457" />
  <path
     style="fill:none;stroke:#000000;stroke-width:1;stroke-linecap:round;stroke-linejoin:round;stroke-miterlimit:4;stroke-dasharray:none;stroke-opacity:1"
     d="m 268.6925,157.3501 0.002,-6.12084 8.52648,-0.10931 -0.002,6.12084 z"
     id="path14359-1-7-5-3-0-73-1-9-0-00"
     inkscape:connector-curvature="0"
     sodipodi:nodetypes="ccccc"
     inkscape:transform-center-x="0.03366111"
     inkscape:transform-center-y="-0.1641457" />
  <path
     style="fill:none;stroke:#000000;stroke-width:1;stroke-linecap:round;stroke-linejoin:round;stroke-miterlimit:4;stroke-dasharray:none;stroke-opacity:1"
     d="m 236.33559,183.91337 0.002,-5.13701 -19.78581,0 -0.002,5.13701 z"
     id="path14359-1-7-5-3-0-73-1-9-0-3"
     inkscape:connector-curvature="0"
     sodipodi:nodetypes="ccccc"
     inkscape:transform-center-x="0.03366111"
     inkscape:transform-center-y="-0.1641457" />
  <path
     style="fill:none;stroke:#000000;stroke-width:1;stroke-linecap:round;stroke-linejoin:round;stroke-miterlimit:4;stroke-dasharray:none;stroke-opacity:1"
     d="m 21.081334,204.02143 -0.002,6.56738 13.182016,0 0.002,-6.56738 z"
     id="path14359-1-7-5-3-0-73-1-9-0-36"
     inkscape:connector-curvature="0"
     sodipodi:nodetypes="ccccc"
     inkscape:transform-center-x="0.03366111"
     inkscape:transform-center-y="-0.1641457" />
  <path
     style="fill:none;stroke:#000000;stroke-width:1;stroke-linecap:round;stroke-linejoin:round;stroke-miterlimit:4;stroke-dasharray:none;stroke-opacity:1"
     d="m 242.83471,50.372308 -0.002,30.443436 -68.42107,0 0.002,-30.443436 z"
     id="path14359-1-7-5-3-0-73-1-9-0-7"
     inkscape:connector-curvature="0"
     sodipodi:nodetypes="ccccc"
     inkscape:transform-center-x="0.03366111"
     inkscape:transform-center-y="-0.1641457" />
  <path
     style="fill:none;stroke:#000000;stroke-width:1;stroke-linecap:round;stroke-linejoin:round;stroke-miterlimit:4;stroke-dasharray:none;stroke-opacity:1"
     d="m 209.8058,76.08125 27.75788,0 0.002,-20.363546 -27.75788,0 z m -3.26252,-20.363546 -27.54788,0 -0.002,20.363546 27.54788,0 z"
     id="path14359-1-7-5-3-0-73-1-9-0-44"
     inkscape:connector-curvature="0"
     sodipodi:nodetypes="cccccccccc"
     inkscape:transform-center-x="0.03366111"
     inkscape:transform-center-y="-0.1641457" />
  <path
     style="fill:none;stroke:#000000;stroke-width:1;stroke-linecap:round;stroke-linejoin:round;stroke-miterlimit:4;stroke-dasharray:none;stroke-opacity:1"
     d="m 315.4506,68.546961 0.002,-7.60102 -8.82514,0 -0.002,7.60102 z"
     id="path14359-1-7-5-3-0-73-1-9-0-5"
     inkscape:connector-curvature="0"
     sodipodi:nodetypes="ccccc"
     inkscape:transform-center-x="0.03366111"
     inkscape:transform-center-y="-0.1641457" />
  <path
     style="fill:none;stroke:#000000;stroke-width:1;stroke-linecap:round;stroke-linejoin:round;stroke-miterlimit:4;stroke-dasharray:none;stroke-opacity:1"
     d="m 319.20597,69.955227 0.002,-10.417552 -16.33588,0 -0.002,10.417552 z"
     id="path14359-1-7-5-3-0-73-1-9-0-6"
     inkscape:connector-curvature="0"
     sodipodi:nodetypes="ccccc"
     inkscape:transform-center-x="0.03366111"
     inkscape:transform-center-y="-0.1641457" />
  <path
     style="fill:none;stroke:#000000;stroke-width:1;stroke-linecap:round;stroke-linejoin:round;stroke-miterlimit:4;stroke-dasharray:none;stroke-opacity:1"
     d="m 494.95758,116.89743 0.002,-35.860227 -127.11948,0 -0.002,35.860227 z"
     id="path14359-1-7-5-3-0-73-1-9-0-94"
     inkscape:connector-curvature="0"
     sodipodi:nodetypes="ccccc"
     inkscape:transform-center-x="0.03366111"
     inkscape:transform-center-y="-0.1641457" />
  <path
     style="fill:none;stroke:#000000;stroke-width:1;stroke-linecap:round;stroke-linejoin:round;stroke-miterlimit:4;stroke-dasharray:none;stroke-opacity:1"
     d="m 429.19355,84.604811 -55.62651,0 -0.002,28.537239 55.62651,0 z m 5.34941,28.537239 55.25098,0 0.002,-28.537239 -55.25098,0 z"
     id="path14359-1-7-5-3-0-73-1-9-0-62"
     inkscape:connector-curvature="0"
     sodipodi:nodetypes="cccccccccc"
     inkscape:transform-center-x="0.03366111"
     inkscape:transform-center-y="-0.1641457" />
  <path
     style="fill:none;stroke:#000000;stroke-width:1;stroke-linecap:round;stroke-linejoin:round;stroke-miterlimit:4;stroke-dasharray:none;stroke-opacity:1"
     d="m 260.09627,180.23619 154.82798,0.002"
     id="path14359-1-7-5-3-0-73-1-9-0-45"
     inkscape:connector-curvature="0"
     sodipodi:nodetypes="cc"
     inkscape:transform-center-x="0.16414111"
     inkscape:transform-center-y="0.033664302" />
  <path
     style="color:#000000;display:inline;overflow:visible;visibility:visible;fill:none;fill-rule:evenodd;stroke:#000000;stroke-width:1;stroke-linecap:round;stroke-linejoin:round;stroke-miterlimit:4;stroke-dasharray:none;stroke-dashoffset:0;stroke-opacity:1;marker:none;enable-background:accumulate"
     d="M 119.67108,248.22255 A 35.996994,36.913391 0 0 1 83.674088,285.13594 35.996994,36.913391 0 0 1 47.677094,248.22255 35.996994,36.913391 0 0 1 83.674088,211.30916 35.996994,36.913391 0 0 1 119.67108,248.22255 Z"
     id="path10048" />
  <path
     inkscape:connector-curvature="0"
     style="color:#000000;display:inline;overflow:visible;visibility:visible;fill:none;fill-rule:evenodd;stroke:#000000;stroke-width:1;stroke-linecap:round;stroke-linejoin:round;stroke-miterlimit:4;stroke-dasharray:none;stroke-dashoffset:0;stroke-opacity:1;marker:none;enable-background:accumulate"
     d="m 106.5263,248.28244 a 22.726482,22.941902 0 0 1 -22.726471,22.9419 22.726482,22.941902 0 0 1 -22.726482,-22.9419 22.726482,22.941902 0 0 1 22.726482,-22.94191 22.726482,22.941902 0 0 1 22.726471,22.94191 z"
     id="path10048-5" />
  <path
     inkscape:connector-curvature="0"
     style="color:#000000;display:inline;overflow:visible;visibility:visible;fill:none;fill-rule:evenodd;stroke:#000000;stroke-width:1;stroke-linecap:round;stroke-linejoin:round;stroke-miterlimit:4;stroke-dasharray:none;stroke-dashoffset:0;stroke-opacity:1;marker:none;enable-background:accumulate"
     d="M 97.291957,248.3837 A 13.515643,13.578487 0 0 1 83.776324,261.96217 13.515643,13.578487 0 0 1 70.260682,248.3837 13.515643,13.578487 0 0 1 83.776324,234.8052 13.515643,13.578487 0 0 1 97.291957,248.3837 Z"
     id="path10048-5-8" />
  <path
     inkscape:connector-curvature="0"
     style="color:#000000;display:inline;overflow:visible;visibility:visible;fill:none;fill-rule:evenodd;stroke:#000000;stroke-width:1;stroke-linecap:round;stroke-linejoin:round;stroke-miterlimit:4;stroke-dasharray:none;stroke-dashoffset:0;stroke-opacity:1;marker:none;enable-background:accumulate"
     d="m 426.1001,255.55374 a 35.996994,36.913391 0 0 1 -35.99699,36.91339 35.996994,36.913391 0 0 1 -35.99699,-36.91339 35.996994,36.913391 0 0 1 35.99699,-36.91339 35.996994,36.913391 0 0 1 35.99699,36.91339 z"
     id="path10048-1" />
  <path
     inkscape:connector-curvature="0"
     style="color:#000000;display:inline;overflow:visible;visibility:visible;fill:none;fill-rule:evenodd;stroke:#000000;stroke-width:1;stroke-linecap:round;stroke-linejoin:round;stroke-miterlimit:4;stroke-dasharray:none;stroke-dashoffset:0;stroke-opacity:1;marker:none;enable-background:accumulate"
     d="m 412.95532,255.61363 a 22.726482,22.941902 0 0 1 -22.72647,22.9419 22.726482,22.941902 0 0 1 -22.72648,-22.9419 22.726482,22.941902 0 0 1 22.72648,-22.94191 22.726482,22.941902 0 0 1 22.72647,22.94191 z"
     id="path10048-5-0" />
  <path
     inkscape:connector-curvature="0"
     style="color:#000000;display:inline;overflow:visible;visibility:visible;fill:none;fill-rule:evenodd;stroke:#000000;stroke-width:1;stroke-linecap:round;stroke-linejoin:round;stroke-miterlimit:4;stroke-dasharray:none;stroke-dashoffset:0;stroke-opacity:1;marker:none;enable-background:accumulate"
     d="m 403.72098,255.71489 a 13.515643,13.578487 0 0 1 -13.51563,13.57847 13.515643,13.578487 0 0 1 -13.51565,-13.57847 13.515643,13.578487 0 0 1 13.51565,-13.5785 13.515643,13.578487 0 0 1 13.51563,13.5785 z"
     id="path10048-5-8-5" />
  <path
     inkscape:connector-curvature="0"
     style="color:#000000;display:inline;overflow:visible;visibility:visible;fill:none;fill-rule:evenodd;stroke:#000000;stroke-width:1;stroke-linecap:round;stroke-linejoin:round;stroke-miterlimit:4;stroke-dasharray:none;stroke-dashoffset:0;stroke-opacity:1;marker:none;enable-background:accumulate"
     d="m 235.9909,189.61191 a 2.4199686,2.8120637 0 0 1 -2.41998,2.81207 2.4199686,2.8120637 0 0 1 -2.41996,-2.81207 2.4199686,2.8120637 0 0 1 2.41996,-2.81206 2.4199686,2.8120637 0 0 1 2.41998,2.81206 z"
     id="path10048-1-74" />
  <path
     inkscape:connector-curvature="0"
     style="color:#000000;display:inline;overflow:visible;visibility:visible;fill:none;fill-rule:evenodd;stroke:#000000;stroke-width:1;stroke-linecap:round;stroke-linejoin:round;stroke-miterlimit:4;stroke-dasharray:none;stroke-dashoffset:0;stroke-opacity:1;marker:none;enable-background:accumulate"
     d="m 275.88534,164.57387 a 3.6100703,3.054604 0 0 1 -3.6101,3.05461 3.6100703,3.054604 0 0 1 -3.61005,-3.05461 3.6100703,3.054604 0 0 1 3.61005,-3.0546 3.6100703,3.054604 0 0 1 3.6101,3.0546 z"
     id="path10048-1-74-9" />
  <path
     inkscape:connector-curvature="0"
     style="color:#000000;display:inline;overflow:visible;visibility:visible;fill:none;fill-rule:evenodd;stroke:#000000;stroke-width:1;stroke-linecap:round;stroke-linejoin:round;stroke-miterlimit:4;stroke-dasharray:none;stroke-dashoffset:0;stroke-opacity:1;marker:none;enable-background:accumulate"
     d="m 155.80282,30.735297 a 3.2067118,3.1630377 0 0 1 -3.20673,3.163046 3.2067118,3.1630377 0 0 1 -3.2067,-3.163046 3.2067118,3.1630377 0 0 1 3.2067,-3.163032 3.2067118,3.1630377 0 0 1 3.20673,3.163032 z"
     id="path10048-1-74-4" />
  <path
     inkscape:connector-curvature="0"
     style="color:#000000;display:inline;overflow:visible;visibility:visible;fill:none;fill-rule:evenodd;stroke:#000000;stroke-width:1;stroke-linecap:round;stroke-linejoin:round;stroke-miterlimit:4;stroke-dasharray:none;stroke-dashoffset:0;stroke-opacity:1;marker:none;enable-background:accumulate"
     d="m 556.59561,51.139547 a 3.1944058,3.3045329 0 0 1 -3.19442,3.304541 3.1944058,3.3045329 0 0 1 -3.1944,-3.304541 3.1944058,3.3045329 0 0 1 3.1944,-3.304527 3.1944058,3.3045329 0 0 1 3.19442,3.304527 z"
     id="path10048-1-74-3" />
  <path
     inkscape:connector-curvature="0"
     style="color:#000000;display:inline;overflow:visible;visibility:visible;fill:none;fill-rule:evenodd;stroke:#000000;stroke-width:1;stroke-linecap:round;stroke-linejoin:round;stroke-miterlimit:4;stroke-dasharray:none;stroke-dashoffset:0;stroke-opacity:1;marker:none;enable-background:accumulate"
     d="m 513.61767,220.25723 a 4.552783,4.3240679 0 0 1 -4.55281,4.32408 4.552783,4.3240679 0 0 1 -4.55276,-4.32408 4.552783,4.3240679 0 0 1 4.55276,-4.32406 4.552783,4.3240679 0 0 1 4.55281,4.32406 z"
     id="path10048-1-74-7" />
  <path
     inkscape:connector-curvature="0"
     style="color:#000000;display:inline;overflow:visible;visibility:visible;fill:none;fill-rule:evenodd;stroke:#000000;stroke-width:1;stroke-linecap:round;stroke-linejoin:round;stroke-miterlimit:4;stroke-dasharray:none;stroke-dashoffset:0;stroke-opacity:1;marker:none;enable-background:accumulate"
     d="m 557.33462,167.67456 a 3.2609469,2.9080694 0 0 1 -3.26096,2.90807 3.2609469,2.9080694 0 0 1 -3.26094,-2.90807 3.2609469,2.9080694 0 0 1 3.26094,-2.90807 3.2609469,2.9080694 0 0 1 3.26096,2.90807 z"
     id="path10048-1-74-6" />
  <path
     inkscape:connector-curvature="0"
     style="color:#000000;display:inline;overflow:visible;visibility:visible;fill:none;fill-rule:evenodd;stroke:#000000;stroke-width:1;stroke-linecap:round;stroke-linejoin:round;stroke-miterlimit:4;stroke-dasharray:none;stroke-dashoffset:0;stroke-opacity:1;marker:none;enable-background:accumulate"
     d="m 41.98538,222.18707 c 7.823479,-12.87577 21.642357,-21.40377 38.948278,-21.40377 16.943529,0 31.468232,8.33361 39.783732,21.18049"
     id="path10048-5-2-5"
     sodipodi:nodetypes="csc" />
  <path
     style="fill:none;stroke:#000000;stroke-width:1;stroke-linecap:round;stroke-linejoin:round;stroke-miterlimit:4;stroke-dasharray:none;stroke-opacity:1"
     d="m 44.268644,228.06535 -23.640735,-0.002"
     id="path14359-1-7-5-3-0-73-1-9-6"
     inkscape:connector-curvature="0"
     sodipodi:nodetypes="cc"
     inkscape:transform-center-x="-0.16414589"
     inkscape:transform-center-y="-0.033665699" />
  <path
     style="fill:none;stroke:#000000;stroke-width:1;stroke-linecap:round;stroke-linejoin:round;stroke-miterlimit:4;stroke-dasharray:none;stroke-opacity:1"
     d="m 18.132161,217.44426 c -4.900654,2.05192 -7.126024,6.89739 -6.961128,12.51144 0.126809,4.31731 2.941226,8.96934 7.399279,11.22945 l 18.876543,0.002 c 1.770629,1.5e-4 2.157704,-0.42065 2.637302,-2.85281 3.824382,-19.39437 19.695687,-33.89223 41.360843,-33.89223 24.61919,0 43.68767,19.12385 43.46829,43.52585 -0.008,0.88592 -0.0489,1.76489 -0.0767,2.63915 -0.0456,1.43434 0.3614,2.3569 1.78391,2.35691 l 218.09326,0.002 c 0.58969,1e-5 0.98906,-0.55298 1.22547,-1.20954 l 7.86964,-21.85504 c 7.90047,-11.06362 20.66098,-18.24828 35.0579,-18.24828 21.56356,0 39.45605,16.1179 42.84571,37.24619"
     id="path14359-1-7-5-3-0-73-1-9-6-3"
     inkscape:connector-curvature="0"
     sodipodi:nodetypes="cscsssssssscsc"
     inkscape:transform-center-x="-0.16414589"
     inkscape:transform-center-y="-0.033665699" />
  <path
     style="fill:none;stroke:#000000;stroke-width:1;stroke-linecap:round;stroke-linejoin:round;stroke-miterlimit:4;stroke-dasharray:none;stroke-opacity:1"
     d="m 22.762989,233.23306 18.365075,0.002"
     id="path14359-1-7-5-3-0-73-1-9-6-39"
     inkscape:connector-curvature="0"
     sodipodi:nodetypes="cc"
     inkscape:transform-center-x="0.16414611"
     inkscape:transform-center-y="0.033664302" />
  <path
     style="fill:none;stroke:#000000;stroke-width:1;stroke-linecap:round;stroke-linejoin:round;stroke-miterlimit:4;stroke-dasharray:none;stroke-opacity:1"
     d="m 240.46558,244.74531 -95.09264,0.0707 -1.66381,-8.36139 m -0.51229,-2.57449 0.10497,-45.27651 -0.75879,-1.90181 2.85132,-22.35919 -118.180586,3.05903 -11.913977,19.1032 3.565439,37.44926 6.667978,17.10402"
     id="path14359-1-7-5-3-0-73-1-9-6-4"
     inkscape:connector-curvature="0"
     sodipodi:nodetypes="ccccccccccc"
     inkscape:transform-center-x="0.03366111"
     inkscape:transform-center-y="-0.1641457" />
  <path
     style="fill:none;stroke:#000000;stroke-width:1;stroke-linecap:round;stroke-linejoin:round;stroke-miterlimit:4;stroke-dasharray:none;stroke-opacity:1"
     d="m 135.68619,165.28891 -16.53507,2.67771"
     id="path14359-1-7-5-3-0-73-1-9-6-6"
     inkscape:connector-curvature="0"
     sodipodi:nodetypes="cc"
     inkscape:transform-center-x="0.03366111"
     inkscape:transform-center-y="-0.1641457" />
  <path
     style="fill:none;stroke:#000000;stroke-width:1;stroke-linecap:round;stroke-linejoin:round;stroke-miterlimit:4;stroke-dasharray:none;stroke-opacity:1"
     d="m 117.67085,168.70955 2.50646,8.26474"
     id="path14359-1-7-5-3-0-73-1-9-6-2"
     inkscape:connector-curvature="0"
     sodipodi:nodetypes="cc"
     inkscape:transform-center-x="0.03366111"
     inkscape:transform-center-y="-0.1641457" />
  <path
     style="fill:none;stroke:#000000;stroke-width:1;stroke-linecap:round;stroke-linejoin:round;stroke-miterlimit:4;stroke-dasharray:none;stroke-opacity:1"
     d="M 23.045211,179.59495 142.02452,176.40436"
     id="path14359-1-7-5-3-0-73-1-9-6-42"
     inkscape:connector-curvature="0"
     sodipodi:nodetypes="cc"
     inkscape:transform-center-x="0.16414611"
     inkscape:transform-center-y="0.033664302" />
  <path
     style="fill:none;stroke:#000000;stroke-width:1;stroke-linecap:round;stroke-linejoin:round;stroke-miterlimit:4;stroke-dasharray:none;stroke-opacity:1"
     d="m 15.165815,187.295 -4.125245,2.60931 3.667161,29.71391"
     id="path14359-1-7-5-3-0-73-1-9-6-9"
     inkscape:connector-curvature="0"
     sodipodi:nodetypes="ccc"
     inkscape:transform-center-x="0.03366111"
     inkscape:transform-center-y="-0.1641457" />
  <path
     style="fill:none;stroke:#000000;stroke-width:1;stroke-linecap:round;stroke-linejoin:round;stroke-miterlimit:4;stroke-dasharray:none;stroke-opacity:1"
     d="m 156.66609,186.15479 5.70023,-27.73655 -13.34165,19.24019"
     id="path14359-1-7-5-3-0-73-1-9-6-35"
     inkscape:connector-curvature="0"
     sodipodi:nodetypes="ccc"
     inkscape:transform-center-x="0.03366111"
     inkscape:transform-center-y="-0.1641457" />
  <path
     style="fill:none;stroke:#000000;stroke-width:1;stroke-linecap:round;stroke-linejoin:round;stroke-miterlimit:4;stroke-dasharray:none;stroke-opacity:1"
     d="m 167.38408,170.53389 6.72525,15.67612"
     id="path14359-1-7-5-3-0-73-1-9-6-93"
     inkscape:connector-curvature="0"
     sodipodi:nodetypes="cc"
     inkscape:transform-center-x="0.03366111"
     inkscape:transform-center-y="-0.1641457" />
  <path
     style="fill:none;stroke:#000000;stroke-width:1;stroke-linecap:round;stroke-linejoin:round;stroke-miterlimit:4;stroke-dasharray:none;stroke-opacity:1"
     d="m 180.95259,120.0225 -22.95384,27.5349 m -1.29935,1.55868 -12.57764,15.08784"
     id="path14359-1-7-5-3-0-73-1-9-6-399"
     inkscape:connector-curvature="0"
     sodipodi:nodetypes="cccc"
     inkscape:transform-center-x="0.03366111"
     inkscape:transform-center-y="-0.1641457" />
  <path
     style="fill:none;stroke:#000000;stroke-width:1;stroke-linecap:round;stroke-linejoin:round;stroke-miterlimit:4;stroke-dasharray:none;stroke-opacity:1"
     d="m 187.33778,120.0225 -20.52581,27.30629"
     id="path14359-1-7-5-3-0-73-1-9-6-1"
     inkscape:connector-curvature="0"
     sodipodi:nodetypes="cc"
     inkscape:transform-center-x="0.03366111"
     inkscape:transform-center-y="-0.1641457" />
  <path
     style="fill:none;stroke:#000000;stroke-width:1;stroke-linecap:round;stroke-linejoin:round;stroke-miterlimit:4;stroke-dasharray:none;stroke-opacity:1"
     d="m 174.35131,119.96187 57.68177,0.002 c 5.98833,1.7e-4 10.39499,5.93962 8.96182,9.69215"
     id="path14359-1-7-5-3-0-73-1-9-6-30"
     inkscape:connector-curvature="0"
     sodipodi:nodetypes="csc"
     inkscape:transform-center-x="0.16414111"
     inkscape:transform-center-y="0.033664302" />
  <path
     style="fill:none;stroke:#000000;stroke-width:1;stroke-linecap:round;stroke-linejoin:round;stroke-miterlimit:4;stroke-dasharray:none;stroke-opacity:1"
     d="m 186.19757,121.61881 c 0.59561,0.72912 1.10996,1.83839 0.82876,3.14546 l -8.92626,41.49204"
     id="path14359-1-7-5-3-0-73-1-9-6-7"
     inkscape:connector-curvature="0"
     sodipodi:nodetypes="csc"
     inkscape:transform-center-x="0.03366111"
     inkscape:transform-center-y="-0.1641457" />
  <path
     style="fill:none;stroke:#000000;stroke-width:1;stroke-linecap:round;stroke-linejoin:round;stroke-miterlimit:4;stroke-dasharray:none;stroke-opacity:1"
     d="m 183.57508,125.03944 -8.21152,39.05047"
     id="path14359-1-7-5-3-0-73-1-9-6-33"
     inkscape:connector-curvature="0"
     sodipodi:nodetypes="cc"
     inkscape:transform-center-x="0.03366111"
     inkscape:transform-center-y="-0.1641457" />
  <path
     style="fill:none;stroke:#000000;stroke-width:1;stroke-linecap:round;stroke-linejoin:round;stroke-miterlimit:4;stroke-dasharray:none;stroke-opacity:1"
     d="m 170.0185,166.25447 67.44173,0.002"
     id="path14359-1-7-5-3-0-73-1-9-6-46"
     inkscape:connector-curvature="0"
     sodipodi:nodetypes="cc"
     inkscape:transform-center-x="0.16414111"
     inkscape:transform-center-y="0.033664302" />
  <path
     style="fill:none;stroke:#000000;stroke-width:1;stroke-linecap:round;stroke-linejoin:round;stroke-miterlimit:4;stroke-dasharray:none;stroke-opacity:1"
     d="m 187.00766,122.92642 41.94685,0.002 c 5.07339,2e-4 9.56943,3.80316 8.8478,9.46408"
     id="path14359-1-7-5-3-0-73-1-9-6-66"
     inkscape:connector-curvature="0"
     sodipodi:nodetypes="csc"
     inkscape:transform-center-x="0.16414111"
     inkscape:transform-center-y="0.033664302" />
  <path
     style="fill:none;stroke:#000000;stroke-width:1;stroke-linecap:round;stroke-linejoin:round;stroke-miterlimit:4;stroke-dasharray:none;stroke-opacity:1"
     d="m 241.61186,131.99473 -4.9e-4,28.01981 -2.16693,29.6455 -8.3e-4,46.17858 1.25408,10.00446"
     id="path14359-1-7-5-3-0-73-1-9-6-5"
     inkscape:connector-curvature="0"
     sodipodi:nodetypes="ccccc"
     inkscape:transform-center-x="0.03366111"
     inkscape:transform-center-y="-0.1641457" />
  <path
     style="fill:none;stroke:#000000;stroke-width:1;stroke-linecap:round;stroke-linejoin:round;stroke-miterlimit:4;stroke-dasharray:none;stroke-opacity:1"
     d="m 237.62112,134.73124 -0.002,32.20919"
     id="path14359-1-7-5-3-0-73-1-9-6-94"
     inkscape:connector-curvature="0"
     sodipodi:nodetypes="cc"
     inkscape:transform-center-x="0.03366111"
     inkscape:transform-center-y="-0.1641457" />
  <path
     style="fill:none;stroke:#000000;stroke-width:1;stroke-linecap:round;stroke-linejoin:round;stroke-miterlimit:4;stroke-dasharray:none;stroke-opacity:1"
     d="m 172.28699,120.93468 c -17.38534,12.7466 -34.48289,27.1221 -49.94327,43.95337"
     id="path14359-1-7-5-3-0-73-1-9-6-0"
     inkscape:connector-curvature="0"
     sodipodi:nodetypes="cc"
     inkscape:transform-center-x="0.03366111"
     inkscape:transform-center-y="-0.1641457" />
  <path
     style="fill:none;stroke:#000000;stroke-width:1;stroke-linecap:round;stroke-linejoin:round;stroke-miterlimit:4;stroke-dasharray:none;stroke-opacity:1"
     d="m 171.95687,118.93569 c 4.39882,-3.81403 7.98498,-5.58636 13.78355,-5.58626 l 59.06303,0.001 c 4.73316,8e-5 10.02939,3.03938 10.37593,7.52552 l 3.71684,48.11704"
     id="path14359-1-7-5-3-0-73-1-9-6-48"
     inkscape:connector-curvature="0"
     sodipodi:nodetypes="csssc"
     inkscape:transform-center-x="0.16414111"
     inkscape:transform-center-y="0.033664302" />
  <path
     style="fill:none;stroke:#000000;stroke-width:1;stroke-linecap:round;stroke-linejoin:round;stroke-miterlimit:4;stroke-dasharray:none;stroke-opacity:1"
     d="m 507.50923,169.16563 -119.72316,-0.1031 -0.57011,11.17408 m -42.41585,-0.14992 0,-11.06005 -86.99825,-0.0751 -3.61102,2.14314 0.74966,7.07831 -2.29917,6.47239 -0.99452,0.91165 0.88717,56.89325 2.18831,7.83955"
     id="path14359-1-7-5-3-0-73-1-9-6-67"
     inkscape:connector-curvature="0"
     sodipodi:nodetypes="cccccccccccc"
     inkscape:transform-center-x="0.03366111"
     inkscape:transform-center-y="-0.1641457" />
  <path
     style="fill:none;stroke:#000000;stroke-width:1;stroke-linecap:round;stroke-linejoin:round;stroke-miterlimit:4;stroke-dasharray:none;stroke-opacity:1"
     d="m 387.2169,211.69553 -8.2e-4,-42.58302 -41.97495,-0.20835 -1.35428,81.61379"
     id="path14359-1-7-5-3-0-73-1-9-6-60"
     inkscape:connector-curvature="0"
     sodipodi:nodetypes="cccc"
     inkscape:transform-center-x="0.03366111"
     inkscape:transform-center-y="-0.1641457" />
  <path
     style="fill:none;stroke:#000000;stroke-width:1;stroke-linecap:round;stroke-linejoin:round;stroke-miterlimit:4;stroke-dasharray:none;stroke-opacity:1"
     d="m 518.98557,228.48621 -88.58722,-0.0486 c -8.65415,-14.05351 -23.87348,-23.35941 -41.21236,-23.35941 -17.03812,0 -32.02959,8.98586 -40.71351,22.58822"
     id="path14359-1-7-5-3-0-73-1-9-7"
     inkscape:connector-curvature="0"
     sodipodi:nodetypes="ccsc"
     inkscape:transform-center-x="-0.16414889"
     inkscape:transform-center-y="-0.033665699" />
  <path
     style="fill:none;stroke:#000000;stroke-width:1;stroke-linecap:round;stroke-linejoin:round;stroke-miterlimit:4;stroke-dasharray:none;stroke-opacity:1"
     d="m 510.0212,168.43287 0.69741,15.82181 4.0553,6.10074 1.17329,37.59736 -0.0759,4.61773 -6.16483,15.92665 -76.24868,3.38961"
     id="path14359-1-7-5-3-0-73-1-9-7-4"
     inkscape:connector-curvature="0"
     sodipodi:nodetypes="ccccccc"
     inkscape:transform-center-x="-0.16414889"
     inkscape:transform-center-y="-0.033665699" />
  <path
     style="fill:none;stroke:#000000;stroke-width:1;stroke-linecap:round;stroke-linejoin:round;stroke-miterlimit:4;stroke-dasharray:none;stroke-opacity:1"
     d="m 515.25703,233.96003 -85.44842,0.0773"
     id="path14359-1-7-5-3-0-73-1-9-7-3"
     inkscape:connector-curvature="0"
     sodipodi:nodetypes="cc"
     inkscape:transform-center-x="-0.16414889"
     inkscape:transform-center-y="-0.033665699" />
  <path
     style="fill:none;stroke:#000000;stroke-width:1;stroke-linecap:round;stroke-linejoin:round;stroke-miterlimit:4;stroke-dasharray:none;stroke-opacity:1"
     d="m 515.25392,234.10159 -3.33254,10.7721 c -0.30105,0.97309 0.22427,1.41901 0.79752,1.40792 l 4.63019,-0.0896 c 0.89334,-0.0173 1.20941,-0.83785 1.43405,-1.68535 l 5.04034,-19.01584 c 0.30678,-1.15737 -0.39626,-1.84085 -1.22082,-2.13463 l -3.9531,-1.40845 c -0.67373,-0.24004 -1.40055,0.28498 -1.67849,1.24263 l -1.00518,3.46338"
     id="path14359-1-7-5-3-0-73-1-9-7-0"
     inkscape:connector-curvature="0"
     sodipodi:nodetypes="cssssssssc"
     inkscape:transform-center-x="0.03366111"
     inkscape:transform-center-y="-0.1641457" />
  <path
     style="fill:none;stroke:#000000;stroke-width:1;stroke-linecap:round;stroke-linejoin:round;stroke-miterlimit:4;stroke-dasharray:none;stroke-opacity:1"
     d="m 266.25752,168.88721 -4.28947,-46.31771 c -0.6396,-6.90629 -4.81673,-15.78605 -10.10554,-15.79561 l -94.96261,-0.17168 c -9.1711,-0.0166 -15.60553,-7.889615 -13.64253,-17.18942 l 9.56035,-45.292547 c 0.187,-0.885933 -0.0888,-1.644602 -0.86791,-2.374218 l -7.28247,-6.820037 c -0.19023,-0.178147 -0.48961,-0.832475 -0.31233,-1.794446 l 1.61345,-8.754905 c 0.11658,-0.632608 0.50555,-1.03101 1.66607,-1.030435 l 213.7938,0.105852 77.03254,21.274729 c 1.60878,0.444312 3.21465,0.791428 4.83911,0.790245 l 117.29827,-0.08543 c 0.49052,-3.57e-4 1.09539,0.143509 1.01065,0.941351 l -0.82585,7.776065 -3.51209,8.012992 4.09786,143.508954 c 0.19801,6.93459 -5.33764,10.35985 -10.25844,10.35971 l -35.30729,-10e-4"
     id="path14359-1-7-5-3-0-73-1-9-7-1"
     inkscape:connector-curvature="0"
     sodipodi:nodetypes="csssssssssscssssccssc"
     inkscape:transform-center-x="-0.16414889"
     inkscape:transform-center-y="-0.033665699" />
  <path
     style="fill:none;stroke:#000000;stroke-width:1;stroke-linecap:round;stroke-linejoin:round;stroke-miterlimit:4;stroke-dasharray:none;stroke-opacity:1"
     d="m 148.94642,77.963539 25.32119,4.85e-4 m 68.69813,0.0013 314.61961,2.04e-4"
     id="path14359-1-7-5-3-0-73-1-9-7-7"
     inkscape:connector-curvature="0"
     sodipodi:nodetypes="cccc"
     inkscape:transform-center-x="0.16414111"
     inkscape:transform-center-y="0.033661302" />
  <path
     style="fill:none;stroke:#000000;stroke-width:1;stroke-linecap:round;stroke-linejoin:round;stroke-miterlimit:4;stroke-dasharray:none;stroke-opacity:1"
     d="m 261.67005,119.97121 296.92422,0.002"
     id="path14359-1-7-5-3-0-73-1-9-7-06"
     inkscape:connector-curvature="0"
     sodipodi:nodetypes="cc"
     inkscape:transform-center-x="0.16414111"
     inkscape:transform-center-y="0.033664302" />
  <path
     style="fill:#000000;fill-opacity:1;stroke:#000000;stroke-width:1;stroke-linecap:butt;stroke-linejoin:miter;stroke-miterlimit:4;stroke-dasharray:none;stroke-opacity:1"
     d="m 378.74588,163.42316 -10.44549,2.74694 7.57833,-7.65897 1.41468,2.40329 z"
     id="path14359-1-7-5-3-0-73-4-0"
     inkscape:connector-curvature="0"
     sodipodi:nodetypes="ccccc" />
  <path
     style="fill:none;fill-rule:evenodd;stroke:#000000;stroke-width:1px;stroke-linecap:butt;stroke-linejoin:miter;stroke-opacity:1"
     d="m 406.00133,144.31066 -28.70141,16.60013"
     id="path8331-0-6"
     inkscape:connector-curvature="0"
     sodipodi:nodetypes="cc" />
  <path
     style="fill:#000000;fill-opacity:1;stroke:#000000;stroke-width:1;stroke-linecap:butt;stroke-linejoin:miter;stroke-miterlimit:4;stroke-dasharray:none;stroke-opacity:1"
     d="m 336.05731,262.45048 7.99699,-7.25963 -10.55207,2.17827 1.24364,2.49609 z"
     id="path14359-1-7-5-3-0-73-2-0"
     inkscape:connector-curvature="0"
     sodipodi:nodetypes="ccccc" />
  <path
     style="fill:none;fill-rule:evenodd;stroke:#000000;stroke-width:1px;stroke-linecap:butt;stroke-linejoin:miter;stroke-opacity:1"
     d="m 334.73928,259.86869 -27.02747,13.49075"
     id="path8331-0-6-2"
     inkscape:connector-curvature="0"
     sodipodi:nodetypes="cc" />
  <text
     xml:space="preserve"
     style="font-style:normal;font-variant:normal;font-weight:normal;font-stretch:normal;font-size:8.75px;line-height:140%;font-family:Arial;-inkscape-font-specification:Arial;text-align:start;letter-spacing:0.16px;word-spacing:0.4px;text-anchor:start;fill:#000000;fill-opacity:1;stroke:none;stroke-width:1px;stroke-linecap:butt;stroke-linejoin:miter;stroke-opacity:1;"
     x="171.96379"
     y="279.34842"
     id="text10563"
     sodipodi:linespacing="140%"><tspan
       sodipodi:role="line"
       id="tspan10565"
       x="171.96379"
       y="279.34842">RECOMMENDED CENTER OF </tspan><tspan
       sodipodi:role="line"
       x="171.96379"
       y="290.72342"
       id="tspan10567">GRAVITY LOCATION ZONE</tspan></text>
  <text
     xml:space="preserve"
     style="font-style:normal;font-variant:normal;font-weight:normal;font-stretch:normal;font-size:8.75px;line-height:139.99999762%;font-family:Arial;-inkscape-font-specification:Arial;text-align:start;letter-spacing:0.16px;word-spacing:0.40000001px;text-anchor:start;fill:#000000;fill-opacity:1;stroke:none;stroke-width:1px;stroke-linecap:butt;stroke-linejoin:miter;stroke-opacity:1"
     x="414.29312"
     y="139.76488"
     id="text10563-3"
     sodipodi:linespacing="140%"><tspan
       sodipodi:role="line"
       x="414.29312"
       y="139.76488"
       id="tspan10567-2">CAMPER CENTER OF</tspan><tspan
       sodipodi:role="line"
       x="414.29312"
       y="152.01488"
       id="tspan10592">GRAVITY</tspan></text>
  <text
     xml:space="preserve"
     style="font-style:normal;font-variant:normal;font-weight:bold;font-stretch:normal;font-size:12.5px;line-height:129.99999523%;font-family:Arial;-inkscape-font-specification:'Arial Bold';text-align:start;letter-spacing:0.64999998px;word-spacing:-0.30000001px;text-anchor:start;fill:#000000;fill-opacity:1;stroke:none;stroke-width:1px;stroke-linecap:butt;stroke-linejoin:miter;stroke-opacity:1"
     x="69.715057"
     y="335.12048"
     id="text10594"
     sodipodi:linespacing="130%"><tspan
       sodipodi:role="line"
       id="tspan10596"
       x="69.715057"
       y="335.12048">FIGURE 3. EXAMPLE OF PROPER TRUCK AND CAMPER MATCH</tspan></text>
</svg>
