<?xml version="1.0" encoding="UTF-8" standalone="no"?>
<!-- Created with Inkscape (http://www.inkscape.org/) -->

<svg
   xmlns:dc="http://purl.org/dc/elements/1.1/"
   xmlns:cc="http://creativecommons.org/ns#"
   xmlns:rdf="http://www.w3.org/1999/02/22-rdf-syntax-ns#"
   xmlns:svg="http://www.w3.org/2000/svg"
   xmlns="http://www.w3.org/2000/svg"
   xmlns:sodipodi="http://sodipodi.sourceforge.net/DTD/sodipodi-0.dtd"
   xmlns:inkscape="http://www.inkscape.org/namespaces/inkscape"
   id="svg18023"
   version="1.1"
   inkscape:version="0.91 r13725"
   width="298.20001"
   height="334.79999"
   viewBox="0 0 298.20001 334.79999"
   sodipodi:docname="ec01fe91.050.svg">
  <metadata
     id="metadata18029">
    <rdf:RDF>
      <cc:Work
         rdf:about="">
        <dc:format>image/svg+xml</dc:format>
        <dc:type
           rdf:resource="http://purl.org/dc/dcmitype/StillImage" />
        <dc:title></dc:title>
      </cc:Work>
    </rdf:RDF>
  </metadata>
  <defs
     id="defs18027" />
  <sodipodi:namedview
     pagecolor="#ffffff"
     bordercolor="#666666"
     borderopacity="1"
     objecttolerance="10"
     gridtolerance="10"
     guidetolerance="10"
     inkscape:pageopacity="0"
     inkscape:pageshadow="2"
     inkscape:window-width="1280"
     inkscape:window-height="756"
     id="namedview18025"
     showgrid="false"
     inkscape:zoom="1.4292115"
     inkscape:cx="123.13607"
     inkscape:cy="167.39999"
     inkscape:window-x="0"
     inkscape:window-y="0"
     inkscape:window-maximized="0"
     inkscape:current-layer="svg18023" />
  <path
     style="color:#000000;display:inline;overflow:visible;visibility:visible;fill:none;fill-rule:evenodd;stroke:#000000;stroke-width:1;stroke-linecap:round;stroke-linejoin:round;stroke-miterlimit:4;stroke-dasharray:none;stroke-dashoffset:0;stroke-opacity:1;marker:none;enable-background:accumulate"
     d="m 119.62229,71.935413 c 0,0.126755 -0.3126,0.170215 -0.27666,0.24208 0.044,0.08793 1.24675,0.413221 0.93373,0.726241 -0.0861,0.0861 -0.56155,0.540149 -0.65707,0.587909 -0.11582,0.05791 -0.3909,-0.05868 -0.48416,0.03458 -0.18418,0.184174 -0.62363,0.342878 -0.9683,0.484165 -0.31747,0.130134 -0.72214,-0.07679 -0.96831,-0.138329 -0.41461,-0.10365 -0.90742,-0.38867 -1.17582,-0.657075 -0.16113,-0.16113 -0.38166,-1.954558 0.13833,-1.694562 0.38144,0.190721 0.62782,0.651751 0.65707,0.622493 0.21798,-0.217977 -0.013,-0.682971 0.51875,-1.037487 0.55408,-0.369388 0.90648,-0.124703 1.27957,-0.311246 0.84516,-0.422582 0.73392,0.353517 0.98558,0.760822 -0.0881,0.139936 0.0173,0.346222 0.0173,0.380409 z m -0.65706,3.077875 c 0.12465,0.249297 0.33617,1.229725 0.17292,1.55623 -0.0147,0.02931 -0.0754,0.166676 -0.0346,0.207497 0.009,0.0092 0.46997,-0.532928 0.69165,-0.311246 0.41295,0.41295 0.24862,1.999269 -0.0692,2.317054 -0.028,0.028 -0.23268,0 -0.27667,0 -0.71619,0 -0.65053,-0.505672 -0.89915,-1.002904 -0.0458,-0.09162 -0.10801,0.211755 -0.13833,0.24208 -0.0837,0.08375 -0.7394,0.07744 -0.79541,-0.03458 -0.069,-0.137999 -0.10856,-0.488975 -0.2075,-0.58791 -0.40819,-0.408194 -1.0401,-0.145169 -1.40789,-0.67395 0.0999,-0.127553 0.25308,-1.214439 0.71633,-1.677685 0.2562,-0.256208 1.06755,-0.128501 1.52459,-0.190226 0.309,-0.04173 0.50216,-0.286573 0.72326,0.15564 z m -5.04916,2.074971 c -0.1484,0.0742 -0.50734,-0.04599 -0.72624,0.207504 -0.20593,0.03616 -0.54121,0.04671 -0.69167,-0.103746 -0.55471,-0.554708 -1.09565,-1.372313 -1.55623,-1.832893 -0.32443,-0.324435 -0.0959,-0.875891 0.1384,-1.07207 0.24091,-0.201678 0.71798,-0.284956 0.89919,-0.10375 0.12116,0.121156 0.46296,0.338003 0.55333,0.518744 0.12644,0.252887 0.0174,0.570706 0.17291,0.72624 0.16095,0.160948 0.81503,-0.02993 0.93374,0.207498 0.0644,0.128752 0.0918,0.575937 0.2075,0.691658 0.005,0.0048 0.0817,-0.336426 0.10374,-0.380412 0.0978,-0.195686 0.21331,-0.144144 0.31125,-0.24208 0.24216,-0.242155 0.22076,0.877836 0.22475,1.020191 -0.1904,0.155762 -0.43787,0.296719 -0.57067,0.363116 z m 0.17289,2.144147 c 0.38953,0 1.1105,0.211351 1.38331,0.48416 0.46548,0.465478 0.41941,3.868871 -0.0346,4.322862 -0.52661,0.526604 -2.36205,0.340622 -2.97413,0.03458 -0.17302,-0.08651 -0.69762,0.132373 -0.82999,0 -0.3808,-0.380804 -1.18547,-0.610027 -1.76373,-0.899155 -0.96956,-0.484782 -0.0432,-2.17007 0.44958,-2.662883 0.29049,-0.290491 1.05592,0.05073 1.34873,-0.24208 0.27775,-0.277746 0.0834,-0.899156 0.69166,-0.899156 0.0359,0 0.62765,-0.01031 0.81271,-0.08645 0.18033,0.0074 0.82771,-0.05187 0.91646,-0.05188 z m -5.3603,-6.639914 c -0.11055,-0.110546 -0.36376,-0.190844 -0.46683,-0.363119 0.28061,-0.315167 0.44354,-0.659095 1.02022,-0.466868 0.0653,0.02176 0.26951,-0.0072 0.31125,0.03458 0.29412,0.294123 0.15341,1.222091 0.0691,1.227693 -1.00608,0.06687 -0.46204,0.03945 -0.93377,-0.432286 z m -2.66289,0.03459 c -0.336,0.168 -0.82611,-0.352011 -0.72622,-0.38041 0.2369,-0.06735 0.28354,-0.636356 0.79543,-0.380411 0.0965,0.04828 -0.0402,0.291141 0.10375,0.414994 -0.067,0.17069 0.006,0.256122 -0.17296,0.345827 z m -3.63116,7.05491 c -0.23687,0.23687 -0.72332,0.210418 -0.96832,-0.03458 -0.22481,-0.224813 -0.70404,-0.92136 -0.38041,-1.244984 0.30483,-0.304832 0.63132,-0.512595 1.10664,-0.259373 0.45533,0.242576 0.7384,1.042592 0.24209,1.538937 z m 27.74532,-9.328585 c 0.0942,-0.141346 0.26545,-0.205637 0.37878,-0.31897 0.70597,-0.705965 4.17446,-0.773539 5.04372,-0.338907 0.0654,0.0327 0.062,0.121788 0.0997,0.159486 0.0674,0.06736 0.003,0.58906 -0.0199,0.657876 -0.0384,0.115028 -0.01,0.258817 -0.0399,0.378778 -0.0261,0.104418 -0.13368,0.167681 -0.17943,0.259164 -0.34377,0.687554 -1.26975,0.542865 -1.91382,0.757555 -0.18099,0.06033 -0.32962,-0.05448 -0.47845,0.01994 -0.20052,0.100255 -0.37563,0.163681 -0.59807,0.219292 -0.28495,0.07124 -1.72711,-0.225614 -1.99357,-0.358842 -0.0333,-0.01666 -0.23891,-0.358526 -0.41866,-0.568168 0.14274,-0.23698 -0.0116,-0.670372 0.1196,-0.867204 z m -0.88715,1.186177 c -0.28908,1.3e-5 -0.61273,-0.483768 -0.34891,-0.747587 0.13266,-0.132659 0.5605,-0.115026 0.64795,0.249195 -0.0458,0.265144 -0.21141,0.311117 -0.29904,0.498392 z m 15.87875,4.615095 c -0.10539,0.316166 -0.82291,0.342547 -1.07652,0.378778 -0.49377,0.07054 -1.01945,0.04202 -1.51511,-0.01994 -0.81427,-0.101783 -1.62345,-0.0416 -2.41222,-0.199356 -0.65606,-0.131212 -2.34214,0.05072 -2.59163,-0.697749 -0.13684,-0.410519 0.74202,-1.698934 1.01671,-1.97363 0.0995,-0.0995 0.24333,-0.167692 0.31897,-0.318971 0.0229,-0.04582 0,-0.166909 0,-0.219292 0,-0.65142 -0.92962,-0.738685 -0.43858,-1.475239 0.19751,-0.29627 0.41077,-0.416681 0.73762,-0.498392 1.05846,-0.264615 1.45764,1.022287 2.39228,1.255947 0.19611,0.04903 0.42214,-0.02462 0.59807,-0.05981 0.15311,-0.03062 0.32376,0.0058 0.47845,-0.01994 0.67161,-0.111934 1.06704,-0.06929 1.55499,0.418649 0.13339,0.133392 0.57981,-0.07806 0.71768,0.05981 0.0648,0.06484 0.24215,0.39048 0.2791,0.538263 0.0305,0.121791 0.19574,1.738015 0.17942,1.754338 -0.0249,0.0249 -0.15101,0.586613 -0.0997,0.677817 -0.0699,0.109795 -0.10488,0.294743 -0.13954,0.398717 z m 1.17619,-0.976857 c 0,-0.863404 -0.35817,-2.274019 0.0199,-3.030221 0.18879,-0.377584 0.78339,-0.616039 1.25595,-0.45852 0.24312,0.08104 0.30349,0.211555 0.47845,0.299035 0.26279,0.131393 0.31447,-0.488845 0.31408,-0.553475 l -0.0179,-2.914148 -55.627619,-0.08943 0,17.797764 1.43076,0 -0.0051,2.240694 50.448999,-0.01177 c 0.86973,-0.0028 1.09642,-1.00674 1.77955,-1.01689 l 2.05829,-0.03059 0.001,-1.841486 c -0.003,0.295661 -0.28582,0.467047 -0.40721,0.709829 -0.142,0.284005 -0.24186,0.769847 -0.70979,0.61387 -0.68103,-0.227012 -1.07073,-1.048011 -1.40039,-1.707326 -0.0592,-0.118348 -0.12659,-0.299237 -0.21102,-0.383668 -0.0786,-0.07858 -0.0823,-0.274154 -0.15346,-0.345302 -0.0451,-0.04512 -0.10834,-0.13994 -0.13429,-0.191835 -0.0636,-0.127282 -0.53087,-0.332764 -0.49877,-0.268568 0.0755,0.150905 0.32176,0.225838 0.44122,0.345302 0.13756,0.137559 0.44216,1.030391 0.15259,1.264711 -0.28956,0.23432 -0.46505,0.319278 -0.61299,0.269964 -0.88648,-0.295492 -0.87546,-0.132542 -1.17019,-1.016722 -0.18677,-0.560301 0.81397,-0.885088 0.74815,-1.016722 -0.0459,-0.09172 -0.27415,0.03837 -0.32611,0.03837 -0.21848,0 -0.54562,0.0021 -0.76734,0.05755 -0.20708,0.05177 -0.3984,0.211018 -0.63306,0.211018 -0.48305,0 -0.34298,0.451153 -0.44121,0.844071 -0.0618,0.24723 -0.30271,0.424293 -0.36449,0.67142 -0.0657,0.262699 -0.13597,0.63642 -0.24938,0.863255 -0.0314,0.0627 -1.02148,0.832865 -1.05509,0.844071 -0.28122,0.09374 -0.79114,0.24145 -1.11264,0.134284 -0.5503,-0.183433 -1.06197,-0.41118 -1.22774,-1.074273 -0.0284,-0.11351 0.0206,-0.49733 -0.0575,-0.575503 -0.28601,-0.286004 -1.2088,0.201306 -1.53468,0.03837 -0.48693,-0.243467 -0.90551,-1.354377 -0.9208,-1.362024 -0.15825,-0.07912 -0.48511,0.07673 -0.65224,0.07673 -0.23444,0 -0.33069,-0.285465 -0.47958,-0.211018 -0.84683,0.423415 -1.0974,1.434989 -1.87998,1.956711 -0.10616,0.07077 -0.2455,0.142905 -0.36449,0.172651 -0.19745,0.04936 -0.44873,0.05988 -0.65223,0.01918 -0.93061,-0.186122 -0.57551,-0.879258 -0.57551,-1.630592 0,-0.03134 0.0438,-0.128812 0.0192,-0.153467 -0.21062,-0.210621 -0.44215,0.652699 -0.55632,0.709787 -0.35592,0.177957 -0.92316,-0.164236 -1.24692,-0.326119 -0.13197,-0.06598 -0.69608,-0.302364 -0.59469,-0.268568 -0.26063,0.689664 -0.79856,-0.323892 -0.93306,-0.458384 -0.21332,-0.213327 0.2075,-0.705694 0.2075,-0.691658 0,0.01266 -0.76082,-0.08173 -0.76082,-0.553326 0,-0.633941 -0.17943,-1.335707 0.10375,-1.90206 0.1601,-0.320212 1.30914,-1.244984 1.69456,-1.244984 0.0394,0 1.40257,0.05384 1.07207,-0.276663 -0.73995,-0.739943 -1.58479,0.351855 -2.24789,-0.311246 -0.54509,-0.54509 -0.0404,-1.291263 -0.2075,-1.625396 -0.0601,-0.120306 -0.28022,-0.211059 -0.34583,-0.276663 -0.11385,-0.113851 -0.64011,0.41566 -0.69165,0.518743 -0.24595,0.491881 -0.79541,-0.013 -0.79541,0.760824 0,0.123895 0.38985,1.298452 0.48416,1.487064 0.20137,0.402732 -0.15121,1.565062 -0.0692,1.729145 0.1288,0.257594 0.35964,0.408019 0.48416,0.657075 0.0501,0.100117 0.12031,0.848015 0.10375,0.864572 -0.19762,0.197619 -1.40466,0.09051 -1.59081,0.276664 -0.31992,0.319917 0.66846,0.818602 0.31125,1.175818 -0.10163,0.101624 -0.23442,0.399659 -0.27667,0.48416 -0.18676,0.373521 -0.89029,0.147195 -1.10665,-0.06916 -0.0747,-0.07473 -0.31482,-0.637995 -0.34583,-0.622492 -0.11978,0.05989 -0.31212,0.312994 -0.38041,0.449577 -0.0647,0.12935 -0.27293,0.134599 -0.38041,0.24208 -0.45348,0.453479 -0.92031,0.532174 -1.38332,0.06917 -0.0687,-0.06871 -0.2638,-0.0563 -0.34583,-0.138331 -0.40951,-0.409514 -0.5998,-0.92294 -0.82999,-1.383316 -0.0672,-0.134454 0.0988,-0.350747 0.0346,-0.414995 -0.20163,-0.201629 -1.45249,-1.362547 -1.45249,-1.417898 0,-0.121868 -0.10399,-0.449337 0.0346,-0.58791 0.58755,-0.587549 2.22322,-0.172914 3.04329,-0.172914 0.0982,0 0.4424,-0.629673 0.31125,-0.760824 -0.24691,-0.246909 -0.49968,0.745306 -0.79541,0.449578 -0.12186,-0.121864 -0.4878,-0.0036 -0.62249,-0.138332 -0.0245,-0.02447 -0.0558,-0.739639 -0.31125,-0.48416 -0.1267,0.126706 0.0485,0.573967 -0.0692,0.691658 -0.10048,0.100472 -0.38368,0.0016 -0.51875,0.06916 -0.0463,0.02314 -0.29949,0.150085 -0.38041,0.06917 -0.15188,-0.151877 -0.62997,-1.168339 -0.31124,-1.487064 0.20666,-0.20666 0.46661,-0.328279 0.62249,-0.484161 0.0729,-0.07287 0.42797,0.04756 0.44958,0.06917 0.026,0.02604 0.0871,0.233108 0.13833,0.207497 0.11179,-0.0559 -0.0131,-0.354136 0.0346,-0.449577 0.14388,-0.287766 0.34407,-0.448696 0.62249,-0.587909 0.80682,-0.403409 0.89792,0.482925 1.03749,0.622492 0.12105,0.121053 0.39442,-0.05516 0.51874,0.06917 0.004,0.0044 0.0462,0.368823 0.17292,0.24208 0.10375,-0.103749 -0.10375,-0.518744 0,-0.622492 0.12253,-0.122534 0.40327,-0.09202 0.51874,-0.207498 0.028,-0.028 0,-0.232678 0,-0.276663 0,-0.691766 -0.34554,-0.449288 -0.69166,-0.795406 -0.11002,-0.11002 0.10605,-0.523347 0.13833,-0.58791 0.10243,-0.204846 -0.0465,-0.818101 0.10375,-0.968321 0.2559,-0.2559 1.95276,0.08763 2.24789,-0.207497 0.0536,-0.05357 -0.0414,-0.138332 -0.0692,-0.138332 -0.0826,0 -0.1877,-0.08151 -0.27667,-0.103748 -0.48866,-0.122166 -1.13467,0.103748 -1.59081,0.103748 -0.11943,0 -0.28485,0.06098 -0.34583,0 -0.0473,-0.04732 -0.0346,-0.371385 -0.0346,-0.449577 0,-0.813408 -0.415,-1.820223 -0.415,-2.455386 0,-0.223383 -0.36608,-1.320901 0.0174,-1.435193 0.43379,-0.4683 0.79434,-1.166605 1.33152,-1.435194 0.0947,-0.04737 0.61787,0.153316 0.72624,0.207498 0.13123,0.06562 0.20749,0.414994 0.31124,0.311246 0.14815,-0.14815 1.96837,-0.763679 2.24789,-0.484161 0.4256,0.425605 0.38971,1.030812 0.55333,1.521647 0.0679,0.04601 0.0771,0.152263 0.14977,0.188607 0.15439,0.0772 0.42547,-0.07293 0.5582,0.05981 0.0403,0.04027 0.32923,0.26884 0.52832,0.159486 0.28114,0.191405 0.66338,0.01345 0.50838,0.478455 -0.0288,0.08643 0.0215,0.21617 -0.0199,0.299034 -0.0508,0.101611 -0.12249,0.340344 -0.23923,0.398714 -0.10553,0.05277 -0.62386,0.253301 -0.41864,0.45852 0.15805,0.158051 0.39135,0.07974 0.618,0.07974 0.16393,0 0.45216,0.03266 0.53826,-0.13955 0.0258,-0.05157 0.0637,-0.486482 0.11962,-0.45852 0.63108,0.315541 1.13408,0.888956 1.71446,1.275882 0.89413,0.596087 1.47755,0.08436 2.01351,1.156269 0.15395,0.307906 -0.50665,0.760972 -0.31897,1.136333 0.0442,0.08845 0.0884,0.185338 0.11961,0.279099 0.0848,0.254388 0.5582,0.387737 0.5582,0.618005 0.1357,0.128769 0.0618,0.440643 0.17934,0.5582 0.22676,0.22676 -0.0956,0.649942 0.2791,0.837298 0.34518,0.172593 1.09502,-0.122489 1.29582,0.279099 0.19846,0.396935 0.13859,1.135373 0.43858,1.435368 0.46457,0.464567 1.42023,0.06737 1.87395,-0.159485 0.19285,-0.09642 0.44414,0.184967 0.5582,0.299035 0.0473,0.04726 -0.4735,0.305256 0.29904,0.498391 0.65134,0.162836 0.9193,-0.510806 1.4553,-0.618005 0.47656,-0.09531 1.6122,0.216699 1.89389,0.498391 0.039,0.03904 0.38127,-0.0025 0.39871,-0.01994 0.30269,-0.302685 1.25986,-0.111602 1.51511,-0.239228 0.37221,-0.186106 0.75059,-0.212329 1.07653,-0.538263 0.22578,-0.225784 0.33246,-0.627001 0.618,-0.817363 0.39363,-0.26242 0.71344,-0.290536 0.93698,-0.737619 0.0567,-0.11331 0.0217,-0.244659 0.0598,-0.358842 0.0265,-0.07939 0.0689,-0.231843 0.0399,-0.318971 -0.14612,-0.438361 -0.60503,-0.824324 -0.85723,-1.076525 -0.0379,-0.03791 0.33015,-0.981225 0.13153,-1.280785 -0.19862,-0.299559 -0.23122,-0.506112 -0.23122,-0.573245 z"
     id="path18840-4-8-74-3-5"
     inkscape:connector-curvature="0"
     sodipodi:nodetypes="ccssccccccsscccccccsscscsccccsccccsscssscccccsscssscccsscccccscccccsccccsccccscsccccscccssssscssscccccccccscssscsscccsccsccccscccccsscccscscsscccsscscsscssssccscscccscsccscccscccsssssccccsccsscssscsscsccccsccsccccsssccccccccssccscccccscsccsscsscscccccs" />
  <path
     style="fill:none;stroke:#000000;stroke-width:1;stroke-linecap:butt;stroke-linejoin:miter;stroke-miterlimit:4;stroke-dasharray:8, 2, 1, 2;stroke-dashoffset:1.70000005;stroke-opacity:1"
     d="m 115.05405,14.453998 -0.002,35.715212"
     id="path14359-1-7-5-3-0-73-1-9"
     inkscape:connector-curvature="0"
     sodipodi:nodetypes="cc"
     inkscape:transform-center-x="0.03366111"
     inkscape:transform-center-y="-0.1641457" />
  <path
     style="fill:none;stroke:#000000;stroke-width:1;stroke-linecap:butt;stroke-linejoin:miter;stroke-miterlimit:4;stroke-dasharray:8, 2, 1, 2;stroke-dashoffset:0;stroke-opacity:1"
     d="m 42.383162,28.77867 175.672888,0.002"
     id="path14359-1-7-5-3-0-73-1-9-3"
     inkscape:connector-curvature="0"
     sodipodi:nodetypes="cc"
     inkscape:transform-center-x="0.16414111"
     inkscape:transform-center-y="0.033661301" />
  <path
     style="fill:none;stroke:#000000;stroke-width:1;stroke-linecap:butt;stroke-linejoin:miter;stroke-miterlimit:4;stroke-dasharray:8, 2, 1, 2;stroke-dashoffset:1.70000005;stroke-opacity:1"
     d="m 121.75494,33.482003 -0.002,136.481457"
     id="path14359-1-7-5-3-0-73-1-9-4"
     inkscape:connector-curvature="0"
     sodipodi:nodetypes="cc"
     inkscape:transform-center-x="0.03366111"
     inkscape:transform-center-y="-0.1641457" />
  <path
     style="fill:none;stroke:#000000;stroke-width:1;stroke-linecap:butt;stroke-linejoin:miter;stroke-miterlimit:4;stroke-dasharray:8, 2, 1, 2;stroke-dashoffset:1.70000005;stroke-opacity:1"
     d="m 115.81264,158.01746 -0.002,58.47295"
     id="path14359-1-7-5-3-0-73-1-9-1"
     inkscape:connector-curvature="0"
     sodipodi:nodetypes="cc"
     inkscape:transform-center-x="0.03366111"
     inkscape:transform-center-y="-0.1641457" />
  <path
     style="fill:none;stroke:#000000;stroke-width:1;stroke-linecap:butt;stroke-linejoin:miter;stroke-miterlimit:4;stroke-dasharray:8, 2, 1, 2;stroke-dashoffset:1.70000005;stroke-opacity:1"
     d="m 94.824943,158.01746 -0.002,140.14798"
     id="path14359-1-7-5-3-0-73-1-9-6"
     inkscape:connector-curvature="0"
     sodipodi:nodetypes="cc"
     inkscape:transform-center-x="0.03366111"
     inkscape:transform-center-y="-0.1641457" />
  <path
     style="fill:none;stroke:#000000;stroke-width:1;stroke-linecap:butt;stroke-linejoin:miter;stroke-miterlimit:4;stroke-dasharray:8, 2, 1, 2;stroke-dashoffset:1.70000005;stroke-opacity:1"
     d="m 52.813787,182.64633 241.167093,0.002"
     id="path14359-1-7-5-3-0-73-1-9-5"
     inkscape:connector-curvature="0"
     sodipodi:nodetypes="cc"
     inkscape:transform-center-x="0.16414611"
     inkscape:transform-center-y="0.033659301" />
  <path
     style="fill:none;stroke:#000000;stroke-width:1;stroke-linecap:butt;stroke-linejoin:miter;stroke-miterlimit:4;stroke-dasharray:none;stroke-dashoffset:1.70000005;stroke-opacity:1"
     d="m 106.07649,152.74418 12.83329,7.6e-4 m 2.18423,1.3e-4 1.92212,1.2e-4 m 2.27162,1.3e-4 14.40708,8.6e-4"
     id="path14359-1-7-5-3-0-73-1-9-9"
     inkscape:connector-curvature="0"
     sodipodi:nodetypes="cccccc"
     inkscape:transform-center-x="0.16414611"
     inkscape:transform-center-y="0.033659301" />
  <path
     style="fill:none;fill-rule:evenodd;stroke:#000000;stroke-width:1px;stroke-linecap:butt;stroke-linejoin:miter;stroke-opacity:1"
     d="m 153.1586,52.15991 28.39506,74.61349"
     id="path18633"
     inkscape:connector-curvature="0" />
  <path
     style="fill:none;fill-rule:evenodd;stroke:#000000;stroke-width:1px;stroke-linecap:butt;stroke-linejoin:miter;stroke-opacity:1"
     d="M 69.982906,36.782892 50.936373,127.47235"
     id="path18635"
     inkscape:connector-curvature="0" />
  <path
     style="fill:none;fill-rule:evenodd;stroke:#000000;stroke-width:1px;stroke-linecap:butt;stroke-linejoin:miter;stroke-opacity:1"
     d="m 52.509022,139.70407 12.14435,14.32859"
     id="path18637"
     inkscape:connector-curvature="0" />
  <path
     style="fill:none;fill-rule:evenodd;stroke:#000000;stroke-width:1px;stroke-linecap:butt;stroke-linejoin:miter;stroke-opacity:1"
     d="m 158.83761,161.28432 22.71605,-20.96866"
     id="path18639"
     inkscape:connector-curvature="0" />
  <path
     style="color:#000000;display:inline;overflow:visible;visibility:visible;fill:none;fill-rule:evenodd;stroke:#000000;stroke-width:1;stroke-linecap:butt;stroke-linejoin:miter;stroke-miterlimit:4;stroke-dasharray:none;stroke-dashoffset:0;stroke-opacity:1;marker:none;enable-background:accumulate"
     d="m 170.64917,180.43315 a 55.330723,66.215569 0 0 1 -55.33073,66.21557 55.330723,66.215569 0 0 1 -55.33072,-66.21557 55.330723,66.215569 0 0 1 55.33072,-66.21557 55.330723,66.215569 0 0 1 55.33073,66.21557 z"
     id="path18641" />
  <path
     inkscape:connector-curvature="0"
     style="color:#000000;display:inline;overflow:visible;visibility:visible;fill:none;fill-rule:evenodd;stroke:#000000;stroke-width:1;stroke-linecap:butt;stroke-linejoin:miter;stroke-miterlimit:4;stroke-dasharray:none;stroke-dashoffset:0;stroke-opacity:1;marker:none;enable-background:accumulate"
     d="m 148.60959,153.79192 c 0,17.62658 -12.07521,31.91575 -26.97074,31.91575 -14.89552,0 -26.97073,-14.28917 -26.970727,-31.91575 2e-6,-17.62657 12.075207,-31.91574 26.970727,-31.91574 14.89553,0 26.97074,14.28916 26.97074,31.91574 z"
     id="path18641-6"
     sodipodi:nodetypes="sssss" />
  <path
     inkscape:connector-curvature="0"
     style="color:#000000;display:inline;overflow:visible;visibility:visible;fill:none;fill-rule:evenodd;stroke:#000000;stroke-width:1;stroke-linecap:butt;stroke-linejoin:miter;stroke-miterlimit:4;stroke-dasharray:none;stroke-dashoffset:0;stroke-opacity:1;marker:none;enable-background:accumulate"
     d="m 121.0871,182.55069 a 4.9647528,6.1235229 0 0 1 -4.96475,6.12353 4.9647528,6.1235229 0 0 1 -4.96476,-6.12353 4.9647528,6.1235229 0 0 1 4.96476,-6.12352 4.9647528,6.1235229 0 0 1 4.96475,6.12352 z"
     id="path18641-6-4" />
  <path
     inkscape:connector-curvature="0"
     style="color:#000000;display:inline;overflow:visible;visibility:visible;fill:none;fill-rule:evenodd;stroke:#000000;stroke-width:1;stroke-linecap:butt;stroke-linejoin:miter;stroke-miterlimit:4;stroke-dasharray:none;stroke-dashoffset:0;stroke-opacity:1;marker:none;enable-background:accumulate"
     d="m 121.03972,189.93673 c -1.21846,2.11043 -3.27026,2.08899 -5.26457,2.08899 -4.6274,0 -8.37865,-4.33819 -8.37865,-9.68964 0,-2.03564 0.51591,-3.94096 1.47013,-5.48406 1.60543,-2.5962 1.66677,-4.3919 1.06879,-5.66621 -0.79957,-1.70389 -1.6221,-2.77167 -2.22217,-3.77528 -1.27054,-2.12497 -3.58102,-3.14701 -6.60249,-9.52436 -2.104007,-4.44089 -3.30588,-9.57939 -3.305874,-15.05525 1.9e-5,-16.82844 11.351254,-30.47057 25.353714,-30.47054 14.00243,10e-6 25.27013,13.64234 25.35364,30.47054 0.0219,4.41085 1.79274,8.35894 3.1994,11.3454 2.32681,4.94001 4.7221,7.79704 7.92266,10.43262 4.81975,3.96895 7.95065,10.38681 7.95065,17.62867 0,12.05084 -8.66965,21.81996 -19.36423,21.81998 -4.05244,1e-5 -8.06645,-1.10702 -10.92356,-3.80068 l -11.93162,-11.24904 c -1.58917,-1.49826 -3.55143,-0.41242 -4.32582,0.92886 z"
     id="path18641-6-4-8"
     sodipodi:nodetypes="sssssssssssssssss" />
  <path
     inkscape:connector-curvature="0"
     style="color:#000000;display:inline;overflow:visible;visibility:visible;fill:none;fill-rule:evenodd;stroke:#000000;stroke-width:1;stroke-linecap:round;stroke-linejoin:miter;stroke-miterlimit:4;stroke-dasharray:none;stroke-dashoffset:0;stroke-opacity:1;marker:none;enable-background:accumulate"
     d="m 123.69142,155.82855 c -0.38883,0.21543 -0.82202,0.33564 -1.27868,0.33564 -1.68261,0 -3.04663,-1.63205 -3.04663,-3.6453 0,-2.01325 1.36402,-3.6453 3.04663,-3.6453 1.6826,0 3.04662,1.63206 3.04662,3.6453 0,0.29832 -0.0299,0.58826 -0.0864,0.86577"
     id="path18641-6-4-9"
     sodipodi:nodetypes="cssssc" />
  <path
     style="fill:none;stroke:#000000;stroke-width:1;stroke-linecap:round;stroke-linejoin:round;stroke-miterlimit:4;stroke-dasharray:none;stroke-opacity:1"
     d="m 31.19779,7.2389353 -0.002,50.4476547 203.39648,0 c 1.10931,0 1.63929,-2.038958 1.70548,-3.074973 0.12591,-1.970969 -0.89511,-1.235819 -0.87607,-3.8746 0.0117,-1.628602 0.80062,-2.655619 1.7952,-2.877999 0,0 0.90381,-0.898863 1.00238,-2.629388 0.14387,-2.525854 -1.17359,-2.012953 -1.08409,-3.964784 0.0776,-1.692006 1.47494,-1.550477 1.47386,-3.20484 -0.001,-1.687501 0.34496,-3.525777 -0.89685,-4.871454 -0.84987,-0.92096 -0.6857,-2.589361 -0.70113,-3.84579 -0.0188,-1.53241 1.08794,-3.007384 1.15755,-4.447122 0.0377,-0.778909 -0.34487,-1.382878 -0.32326,-2.144675 0.0328,-1.155558 1.22223,-2.46865 1.25797,-3.618396 0.0189,-0.608723 -0.31991,-1.213786 -0.35002,-1.817689 -0.0218,-0.437774 0.6923,-0.710311 0.66218,-1.147817 -0.0461,-0.669299 0.18745,-1.842539 0.0669,-2.530974 -0.0816,-0.466286 -0.64322,-0.81656 -0.63809,-1.27224 0.0236,-2.09279 1.38284,-1.625726 1.3946,-3.4421996 0.006,-0.997963 -0.71089,-1.6827141 -2.18748,-1.6827141 z"
     id="path14359-1-7-5-3-0-73-1-9-8"
     inkscape:connector-curvature="0"
     sodipodi:nodetypes="ccssssssssssssssssssc"
     inkscape:transform-center-x="0.03366111"
     inkscape:transform-center-y="-0.1641457" />
  <path
     style="color:#000000;display:inline;overflow:visible;visibility:visible;fill:none;fill-rule:evenodd;stroke:#000000;stroke-width:1;stroke-linecap:round;stroke-linejoin:round;stroke-miterlimit:4;stroke-dasharray:none;stroke-dashoffset:0;stroke-opacity:1;marker:none;enable-background:accumulate"
     d="m 188.90932,37.936605 c 0,0.841019 -0.68178,1.522799 -1.5228,1.522798 -0.84102,10e-7 -1.5228,-0.681779 -1.5228,-1.522798 l 0,-17.944327 c 0,-0.84102 0.68178,-1.5228 1.5228,-1.522799 0.84102,-1e-6 1.5228,0.681779 1.5228,1.522799 z"
     id="path18728"
     inkscape:connector-curvature="0"
     sodipodi:nodetypes="sssssss" />
  <path
     style="color:#000000;display:inline;overflow:visible;visibility:visible;fill:none;fill-rule:evenodd;stroke:#000000;stroke-width:1;stroke-linecap:round;stroke-linejoin:round;stroke-miterlimit:4;stroke-dasharray:none;stroke-dashoffset:0;stroke-opacity:1;marker:none;enable-background:accumulate"
     d="m 102.31559,49.655641 c -2.994525,0 -5.422064,-2.427538 -5.422064,-5.422059 0,-2.994521 2.427539,-5.422059 5.422064,-5.422059 l 58.77178,0 c 2.99453,0 5.42206,2.427538 5.42206,5.422059 0,2.994521 -2.42753,5.422059 -5.42206,5.422059 z"
     id="path18731"
     inkscape:connector-curvature="0"
     sodipodi:nodetypes="sssssss" />
  <path
     style="color:#000000;display:inline;overflow:visible;visibility:visible;fill:none;fill-rule:evenodd;stroke:#000000;stroke-width:1;stroke-linecap:round;stroke-linejoin:round;stroke-miterlimit:4;stroke-dasharray:none;stroke-dashoffset:0;stroke-opacity:1;marker:none;enable-background:accumulate"
     d="m 162.71272,19.677024 c 4.66999,0 8.45576,3.785774 8.45576,8.455766 0,4.669992 -3.78577,8.455766 -8.45576,8.455766 m 22.94522,0 -116.246789,0 c -4.66999,0 -8.455768,-3.785774 -8.455768,-8.455766 0,-4.669992 3.785778,-8.455766 8.455768,-8.455766 l 116.246789,0 m 3.22034,0 5.89047,0 c 0.93969,0 1.44554,0.711478 1.44554,1.563955 l 0,13.865935 c 0,1.154771 -0.70315,1.481642 -1.44554,1.481642 l -5.89047,0"
     id="path18731-5"
     inkscape:connector-curvature="0"
     sodipodi:nodetypes="csccsssccssssc" />
  <path
     style="color:#000000;display:inline;overflow:visible;visibility:visible;fill:none;fill-rule:evenodd;stroke:#000000;stroke-width:1;stroke-linecap:round;stroke-linejoin:round;stroke-miterlimit:4;stroke-dasharray:none;stroke-dashoffset:0;stroke-opacity:1;marker:none;enable-background:accumulate"
     d="m 188.43123,192.56079 c 0,0.68207 -0.55293,1.235 -1.235,1.235 -0.68208,0 -1.23501,-0.55293 -1.23501,-1.235 l 0,-18.75821 c 0,-0.68208 0.55293,-1.23501 1.23501,-1.23501 0.68207,0 1.235,0.55293 1.235,1.23501 z"
     id="path18728-5"
     inkscape:connector-curvature="0"
     sodipodi:nodetypes="sssssss" />
  <path
     style="color:#000000;display:inline;overflow:visible;visibility:visible;fill:none;fill-rule:evenodd;stroke:#000000;stroke-width:1;stroke-linecap:butt;stroke-linejoin:round;stroke-miterlimit:4;stroke-dasharray:none;stroke-dashoffset:0;stroke-opacity:1;marker:none;enable-background:accumulate"
     d="m 54.562998,242.56825 9.832161,-18.46989 c 0.266159,-0.49999 0.637618,-1.21332 1.055461,-2.01052 m 1.132499,-2.14011 c 0.699477,-1.30336 1.389919,-2.54405 1.856026,-3.24898 1.483068,-2.24295 4.10597,-3.63924 6.757966,-3.63924 2.720961,0 4.782584,1.06965 6.109958,2.90857 m 1.343924,2.94099 c 0.12098,0.46213 0.215148,0.94637 0.282016,1.45075 m 0.07824,2.84112 c -0.03108,0.32796 -0.07821,0.65029 -0.139695,0.96662 m -0.666867,2.1676 c -0.191806,0.45383 -0.409626,0.89012 -0.64663,1.30734 -1.525976,2.68632 -3.372598,4.52861 -5.236836,6.53117 l -12.221998,13.12884 c -0.197945,0.21264 -0.66526,0.89209 -1.92593,0.89649 l -18.181318,0.0634 c -1.02317,0.004 -0.826763,-2.20463 0.228541,-2.20463 1.229291,0 1.010438,-0.44142 1.997988,-0.47693 l 5.51626,-0.19834 c 0.391044,-0.0141 0.767182,-0.20617 1.114434,-0.49174"
     id="path18789"
     inkscape:connector-curvature="0"
     sodipodi:nodetypes="csccssccccccssssssssc" />
  <path
     inkscape:connector-curvature="0"
     style="color:#000000;display:inline;overflow:visible;visibility:visible;fill:none;fill-rule:evenodd;stroke:#000000;stroke-width:1;stroke-linecap:butt;stroke-linejoin:round;stroke-miterlimit:4;stroke-dasharray:none;stroke-dashoffset:0;stroke-opacity:1;marker:none;enable-background:accumulate"
     d="m 175.86321,236.11018 1.5537,7.59899 c 0.28733,1.40531 0.26207,2.46538 1.90605,2.4638 l 4.167,-0.004 c 0.82552,-7.9e-4 1.26608,0.419 2.44626,0.3904 1.43074,-0.0347 1.84558,1.76098 0.98,1.76406 l -15.80239,0.0563 c -0.83672,0.003 -1.89438,-0.7259 -2.27188,-1.54567 l -2.78032,-6.03776 m -1.10086,-2.39064 -3.38714,-7.35553 m -0.88973,-1.93215 -0.77413,-1.68112 m -1.53409,-3.33144 -1.22444,-2.659 c -0.50292,-1.09213 -1.41732,-2.4772 -1.83028,-3.74379 -0.22349,-0.68546 -0.3957,-1.40764 -0.51017,-2.1579 m -0.14664,-2.91022 c 0.025,-0.5081 0.076,-1.00669 0.15136,-1.4934 m 0.69027,-2.65479 c 0.18164,-0.48423 0.38952,-0.94784 0.62114,-1.3875 m 1.92848,-2.59781 c 1.33494,-1.27737 2.97065,-2.02922 4.73777,-2.02922 2.30669,0 4.28184,1.29953 5.73545,3.36322 m 1.33562,2.44651 c 0.39991,0.95517 0.71635,1.99194 0.93916,3.08169 l 0.52797,2.58225 m 0.3111,1.52156 0.223,1.09066 m 0.25237,1.23429 1.4194,6.94218 m 0.39538,1.93376 1.50154,7.34386"
     id="path18789-7"
     sodipodi:nodetypes="csssssssccccccssccccccsccsccccccc" />
  <path
     style="fill:none;stroke:#000000;stroke-width:1;stroke-linecap:round;stroke-linejoin:round;stroke-miterlimit:4;stroke-dasharray:none;stroke-opacity:1"
     d="m 188.47572,190.04593 6.52954,0 c 0.76952,0 1.39183,-0.52589 1.39193,-1.32669 l 0.002,-12.15108 c 1.1e-4,-0.86683 -0.67643,-1.32666 -1.39158,-1.32666 l -6.47801,0 m -2.56939,-0.80294 -10.08973,-1.07058 c -2.32773,-0.24699 -4.41303,-1.65101 -5.91446,-3.96115 m -0.96552,27.33022 c 1.54118,-2.88014 3.07764,-3.93612 6.39722,-4.49643 l 10.46543,-1.76646"
     id="path14359-1-7-5-3-0-73-1-9-94"
     inkscape:connector-curvature="0"
     sodipodi:nodetypes="cssssccsccsc"
     inkscape:transform-center-x="0.03366111"
     inkscape:transform-center-y="-0.1641457" />
  <path
     style="fill:none;stroke:#000000;stroke-width:1;stroke-linecap:round;stroke-linejoin:round;stroke-miterlimit:4;stroke-dasharray:none;stroke-opacity:1"
     d="m 196.45055,188.65417 0.002,-12.1815 c 1.1e-4,-0.69968 0.6675,-1.07215 1.49696,-1.01167 l 47.64269,3.474 c 0.7054,0.0514 1.01726,0.33034 1.01705,0.90999 l -0.002,5.54391 c -2.2e-4,0.61429 -0.30899,0.96703 -1.01705,1.01705 l -47.69647,3.36963 c -0.90131,0.0637 -1.4433,-0.3892 -1.44318,-1.12141 z"
     id="path14359-1-7-5-3-0-73-1-9-56"
     inkscape:connector-curvature="0"
     sodipodi:nodetypes="sssssssss"
     inkscape:transform-center-x="0.03366111"
     inkscape:transform-center-y="-0.1641457" />
  <path
     style="color:#000000;display:inline;overflow:visible;visibility:visible;fill:none;fill-rule:evenodd;stroke:#000000;stroke-width:1;stroke-linecap:round;stroke-linejoin:miter;stroke-miterlimit:4;stroke-dasharray:none;stroke-dashoffset:0;stroke-opacity:1;marker:none;enable-background:accumulate"
     d="m 260.44552,179.03051 11.18757,0 c 2.11377,0 3.82732,1.71355 3.82732,3.82732 0,2.11377 -1.71355,3.82733 -3.82732,3.82733 l -11.18757,0 c -0.78517,0 -0.80293,-0.38827 -0.80293,-0.74941 l 0,-6.15584 c 0,-0.54066 0.0965,-0.7494 0.80293,-0.7494 z"
     id="path18840"
     inkscape:connector-curvature="0"
     sodipodi:nodetypes="ssssssss" />
  <path
     style="fill:none;stroke:#000000;stroke-width:1;stroke-linecap:round;stroke-linejoin:round;stroke-miterlimit:4;stroke-dasharray:none;stroke-opacity:1"
     d="m 258.75834,186.62007 0.002,-7.63154 -3.3188,-2.19469 -5.56703,0 -2.46233,2.19469 -0.002,7.63154 2.46233,2.51586 5.56703,0 z"
     id="path14359-1-7-5-3-0-73-1-9-564"
     inkscape:connector-curvature="0"
     sodipodi:nodetypes="ccccccccc"
     inkscape:transform-center-x="0.03366111"
     inkscape:transform-center-y="-0.1641457" />
  <path
     style="fill:none;stroke:#000000;stroke-width:1;stroke-linecap:round;stroke-linejoin:round;stroke-miterlimit:4;stroke-dasharray:none;stroke-opacity:1"
     d="m 253.96739,179.48317 -3.57489,-0.001 -2.87901,1.6584"
     id="path14359-1-7-5-3-0-73-1-9-39"
     inkscape:connector-curvature="0"
     sodipodi:nodetypes="ccc"
     inkscape:transform-center-x="-0.16414889"
     inkscape:transform-center-y="-0.033665699" />
  <path
     style="fill:none;stroke:#000000;stroke-width:1;stroke-linecap:round;stroke-linejoin:round;stroke-miterlimit:4;stroke-dasharray:none;stroke-opacity:1"
     d="m 253.96739,185.90665 -3.57489,-0.001 -2.87901,-1.60687"
     id="path14359-1-7-5-3-0-73-1-9-32"
     inkscape:connector-curvature="0"
     sodipodi:nodetypes="ccc"
     inkscape:transform-center-x="-0.16414889"
     inkscape:transform-center-y="-0.033665699" />
  <path
     style="fill:none;stroke:#000000;stroke-width:1;stroke-linecap:round;stroke-linejoin:round;stroke-miterlimit:4;stroke-dasharray:none;stroke-opacity:1"
     d="m 196.45026,35.96998 0.002,-14.771145 c 9e-5,-0.69968 0.66689,-1.063043 1.49696,-1.01167 l 48.66005,3.011564 c 0.70592,0.04369 1.01719,0.33034 1.01705,0.90999 l -0.002,8.226042 c -1.5e-4,0.61429 -0.30931,0.962719 -1.01705,1.01705 l -48.71383,3.739579 c -0.90091,0.06916 -1.44328,-0.3892 -1.44318,-1.12141 z"
     id="path14359-1-7-5-3-0-73-1-9-56-1"
     inkscape:connector-curvature="0"
     sodipodi:nodetypes="sssssssss"
     inkscape:transform-center-x="0.03366111"
     inkscape:transform-center-y="-0.1641457" />
  <path
     style="color:#000000;display:inline;overflow:visible;visibility:visible;fill:none;fill-rule:evenodd;stroke:#000000;stroke-width:1;stroke-linecap:round;stroke-linejoin:round;stroke-miterlimit:4;stroke-dasharray:none;stroke-dashoffset:0;stroke-opacity:1;marker:none;enable-background:accumulate"
     d="m 283.2862,16.983307 c 2.65486,-0.760929 4.72681,0.609997 4.37014,2.63681 l -8.62217,10.681361 c -1.12698,1.396131 -2.76261,2.219695 -4.81003,2.219695 l -13.03901,0 c -0.78517,0 -0.80293,-0.38827 -0.80293,-0.74941 l 0,-7.265688 c 0,-0.54066 0.0965,-0.7494 0.80293,-0.7494 l 14.05637,0 5.67376,-6.688385 c 0.84469,-0.995745 1.7201,-1.699005 2.25309,-0.02788 0.84055,2.635418 3.63718,3.032198 4.46476,2.646825"
     id="path18840-4"
     inkscape:connector-curvature="0"
     sodipodi:nodetypes="ccsssssscssc" />
  <path
     style="fill:none;stroke:#000000;stroke-width:1;stroke-linecap:round;stroke-linejoin:round;stroke-miterlimit:4;stroke-dasharray:none;stroke-opacity:1"
     d="m 259.49795,32.178621 0.002,-8.926362 -3.04134,-2.19469 -5.56703,0 -2.46233,2.934588 -0.002,8.833875 2.46233,2.885809 5.56703,0 z"
     id="path14359-1-7-5-3-0-73-1-9-564-7"
     inkscape:connector-curvature="0"
     sodipodi:nodetypes="ccccccccc"
     inkscape:transform-center-x="0.03366111"
     inkscape:transform-center-y="-0.1641457" />
  <path
     style="fill:none;stroke:#000000;stroke-width:1;stroke-linecap:round;stroke-linejoin:round;stroke-miterlimit:4;stroke-dasharray:none;stroke-opacity:1"
     d="m 254.98446,25.781619 -3.57489,-10e-4 -2.87901,1.6584"
     id="path14359-1-7-5-3-0-73-1-9-39-5"
     inkscape:connector-curvature="0"
     sodipodi:nodetypes="ccc"
     inkscape:transform-center-x="-0.16414889"
     inkscape:transform-center-y="-0.033665699" />
  <path
     style="fill:none;stroke:#000000;stroke-width:1;stroke-linecap:round;stroke-linejoin:round;stroke-miterlimit:4;stroke-dasharray:none;stroke-opacity:1"
     d="m 254.98446,31.927638 -3.57489,-0.001 -2.87901,-1.60687"
     id="path14359-1-7-5-3-0-73-1-9-32-3"
     inkscape:connector-curvature="0"
     sodipodi:nodetypes="ccc"
     inkscape:transform-center-x="-0.16414889"
     inkscape:transform-center-y="-0.033665699" />
  <path
     style="color:#000000;display:inline;overflow:visible;visibility:visible;fill:none;fill-rule:evenodd;stroke:#000000;stroke-width:1;stroke-linecap:butt;stroke-linejoin:miter;stroke-miterlimit:4;stroke-dasharray:none;stroke-dashoffset:0;stroke-opacity:1;marker:none;enable-background:accumulate"
     d="m 275.26865,28.794874 -0.95133,0 m -1.66477,0 -14.70548,0 m -4.25442,0 -14.15056,0 m -3.14456,0 -16.61786,0"
     id="path18840-4-2"
     inkscape:connector-curvature="0"
     sodipodi:nodetypes="cccccccc" />
  <path
     style="color:#000000;display:inline;overflow:visible;visibility:visible;fill:none;fill-rule:evenodd;stroke:#000000;stroke-width:1;stroke-linecap:round;stroke-linejoin:miter;stroke-miterlimit:4;stroke-dasharray:none;stroke-dashoffset:0;stroke-opacity:1;marker:none;enable-background:accumulate"
     d="m 237.67494,255.77551 -204.025769,0.36264 c -0.785168,0.001 -0.802929,-0.38827 -0.802929,-0.74941 l 0,-5.81514 c 0,-0.54066 0.0965,-0.74815 0.802929,-0.7494 l 205.385669,-0.36263 c 1.59206,-0.003 1.91971,0.79452 2.00695,2.36921 0.0895,1.61609 -1.81231,4.94197 -3.36685,4.94473 z"
     id="path18840-4-6"
     inkscape:connector-curvature="0"
     sodipodi:nodetypes="ssssssss" />
  <path
     style="fill:none;fill-rule:evenodd;stroke:#000000;stroke-width:1px;stroke-linecap:butt;stroke-linejoin:miter;stroke-opacity:1"
     d="m 137.71029,126.58586 4.49642,-10.61154"
     id="path18915"
     inkscape:connector-curvature="0" />
  <path
     style="fill:none;fill-rule:evenodd;stroke:#000000;stroke-width:1px;stroke-linecap:butt;stroke-linejoin:miter;stroke-opacity:1"
     d="m 138.66953,91.45385 2.7578,10.73145"
     id="path18917"
     inkscape:connector-curvature="0" />
  <path
     style="fill:none;fill-rule:evenodd;stroke:#000000;stroke-width:1px;stroke-linecap:butt;stroke-linejoin:miter;stroke-opacity:1"
     d="M 96.343248,108.9599 104.3169,93.971844"
     id="path18919"
     inkscape:connector-curvature="0" />
  <path
     style="fill:none;fill-rule:evenodd;stroke:#000000;stroke-width:1px;stroke-linecap:butt;stroke-linejoin:miter;stroke-opacity:1"
     d="M 69.844358,92.053373 82.254472,88.216429"
     id="path18921"
     inkscape:connector-curvature="0" />
  <path
     style="fill:none;fill-rule:evenodd;stroke:#000000;stroke-width:1px;stroke-linecap:butt;stroke-linejoin:miter;stroke-opacity:1"
     d="m 96.254051,280.07968 9.159529,0.15792"
     id="path18925"
     inkscape:connector-curvature="0" />
  <path
     style="fill:none;fill-rule:evenodd;stroke:#000000;stroke-width:1px;stroke-linecap:butt;stroke-linejoin:miter;stroke-opacity:1"
     d="m 102.64993,313.08558 6.5538,0"
     id="path18927"
     inkscape:connector-curvature="0" />
  <path
     style="color:#000000;display:inline;overflow:visible;visibility:visible;fill:none;fill-rule:evenodd;stroke:#000000;stroke-width:1;stroke-linecap:round;stroke-linejoin:miter;stroke-miterlimit:4;stroke-dasharray:none;stroke-dashoffset:0;stroke-opacity:1;marker:none;enable-background:accumulate"
     d="m 97.553446,299.52922 7.975114,28.04695 c 0.21475,0.75523 -0.0724,1.51358 -0.43357,1.51358 l -19.820564,0 c -0.54066,0 -0.438209,-0.82612 -0.275631,-1.51358 l 6.632765,-28.04695 c 0.176189,-0.74503 0.5475,-1.1982 1.240348,-1.1982 l 3.481566,0 c 0.565255,0 1.019829,0.56467 1.199972,1.1982 z"
     id="path18840-4-7"
     inkscape:connector-curvature="0"
     sodipodi:nodetypes="sssssssss" />
  <path
     style="color:#000000;display:inline;overflow:visible;visibility:visible;fill:none;fill-rule:evenodd;stroke:#000000;stroke-width:1;stroke-linecap:round;stroke-linejoin:round;stroke-miterlimit:4;stroke-dasharray:none;stroke-dashoffset:0;stroke-opacity:1;marker:none;enable-background:accumulate"
     d="m 92.720524,74.394264 -9.228624,0 0,25.071503 21.17155,0 0,-10.472883"
     id="path18840-4-8"
     inkscape:connector-curvature="0"
     sodipodi:nodetypes="ccccc" />
  <path
     style="color:#000000;display:inline;overflow:visible;visibility:visible;fill:none;fill-rule:evenodd;stroke:#000000;stroke-width:1;stroke-linecap:round;stroke-linejoin:round;stroke-miterlimit:4;stroke-dasharray:none;stroke-dashoffset:0;stroke-opacity:1;marker:none;enable-background:accumulate"
     d="m 129.4294,50.367087 -1.91836,3.608813 -13.72827,0 -1.61861,-3.608813 z"
     id="path18840-4-8-4"
     inkscape:connector-curvature="0"
     sodipodi:nodetypes="ccccc" />
  <path
     style="color:#000000;display:inline;overflow:visible;visibility:visible;fill:none;fill-rule:evenodd;stroke:#000000;stroke-width:1;stroke-linecap:round;stroke-linejoin:round;stroke-miterlimit:4;stroke-dasharray:none;stroke-dashoffset:0;stroke-opacity:1;marker:none;enable-background:accumulate"
     d="m 107.18841,54.635337 0,-4.74784"
     id="path18840-4-8-1"
     inkscape:connector-curvature="0"
     sodipodi:nodetypes="cc" />
  <path
     style="color:#000000;display:inline;overflow:visible;visibility:visible;fill:#000000;fill-opacity:1;fill-rule:evenodd;stroke:#000000;stroke-width:1;stroke-linecap:round;stroke-linejoin:round;stroke-miterlimit:4;stroke-dasharray:none;stroke-dashoffset:0;stroke-opacity:1;marker:none;enable-background:accumulate"
     d="m 119.47791,59.491187 3.05738,0 0,-3.189171 -2.338,0 0,-2.038258 -6.35457,0 -1.43877,0.95918 -2.51785,0 -1.01913,-0.659437 -1.13902,0 c -0.83719,0 -1.37883,0.535711 -1.37883,1.234894 l 0,1.714483 13.12879,0 z"
     id="path18840-4-8-7"
     inkscape:connector-curvature="0"
     sodipodi:nodetypes="cccccccccssccc" />
  <path
     style="color:#000000;display:inline;overflow:visible;visibility:visible;fill:none;fill-rule:evenodd;stroke:#000000;stroke-width:1;stroke-linecap:round;stroke-linejoin:round;stroke-miterlimit:4;stroke-dasharray:none;stroke-dashoffset:0;stroke-opacity:1;marker:none;enable-background:accumulate"
     d="m 122.59524,59.431239 0,-9.543742"
     id="path18840-4-8-74-7"
     inkscape:connector-curvature="0"
     sodipodi:nodetypes="cc" />
  <path
     style="color:#000000;display:inline;overflow:visible;visibility:visible;fill:none;fill-rule:evenodd;stroke:#000000;stroke-width:1;stroke-linecap:round;stroke-linejoin:round;stroke-miterlimit:4;stroke-dasharray:none;stroke-dashoffset:0;stroke-opacity:1;marker:none;enable-background:accumulate"
     d="m 129.82501,63.41189 -2.61371,-3.836722 -12.4094,0 -2.61371,3.836722"
     id="path18840-4-8-74-1"
     inkscape:connector-curvature="0"
     sodipodi:nodetypes="cccc" />
  <path
     style="color:#000000;display:inline;overflow:visible;visibility:visible;fill:none;fill-rule:evenodd;stroke:#000000;stroke-width:1;stroke-linecap:round;stroke-linejoin:round;stroke-miterlimit:4;stroke-dasharray:none;stroke-dashoffset:0;stroke-opacity:1;marker:none;enable-background:accumulate"
     d="m 148.48584,68.502314 0,20.782658 c 0,1.380166 -0.49779,1.66715 -1.33466,1.66715 l -51.500106,0 c -0.944032,0 -1.461777,-0.629047 -1.461777,-1.652443 l 0,-3.050666 -1.430754,0 0,-17.951234 1.240087,0 0,-2.160888 3.495554,-2.669332 47.178326,0 c 0.6661,0 1.33466,0.238713 1.33466,1.094312 l 0,3.940443 z"
     id="path18840-4-8-74-2"
     inkscape:connector-curvature="0"
     sodipodi:nodetypes="cssssccccccsscc" />
  <path
     style="color:#000000;display:inline;overflow:visible;visibility:visible;fill:none;fill-rule:evenodd;stroke:#000000;stroke-width:1;stroke-linecap:round;stroke-linejoin:round;stroke-miterlimit:4;stroke-dasharray:none;stroke-dashoffset:0;stroke-opacity:1;marker:none;enable-background:accumulate"
     d="m 145.99723,66.341425 -51.754551,0"
     id="path18840-4-8-74"
     inkscape:connector-curvature="0"
     sodipodi:nodetypes="cc" />
  <path
     style="color:#000000;display:inline;overflow:visible;visibility:visible;fill:none;fill-rule:evenodd;stroke:#000000;stroke-width:1;stroke-linecap:round;stroke-linejoin:round;stroke-miterlimit:4;stroke-dasharray:none;stroke-dashoffset:0;stroke-opacity:1;marker:none;enable-background:accumulate"
     d="m 146.06078,68.438758 -53.152773,0"
     id="path18840-4-8-74-5"
     inkscape:connector-curvature="0"
     sodipodi:nodetypes="cc" />
  <path
     style="color:#000000;display:inline;overflow:visible;visibility:visible;fill:none;fill-rule:evenodd;stroke:#000000;stroke-width:1;stroke-linecap:round;stroke-linejoin:round;stroke-miterlimit:4;stroke-dasharray:none;stroke-dashoffset:0;stroke-opacity:1;marker:none;enable-background:accumulate"
     d="m 148.15811,87.441861 -1.72617,0 c -0.6832,0 -0.90981,1.016888 -1.77955,1.016888 l -50.473275,0"
     id="path18840-4-8-74-3"
     inkscape:connector-curvature="0"
     sodipodi:nodetypes="cssc" />
  <path
     style="fill:none;stroke:#000000;stroke-width:1;stroke-linecap:round;stroke-linejoin:round;stroke-miterlimit:4;stroke-dasharray:none;stroke-opacity:1"
     d="m 91.94579,87.071442 0.825637,0 -4.77e-4,1.5387 -0.825637,0 z m -0.826545,2.431334 1.651274,0 0.002,-5.350403 -1.651274,0 z"
     id="path14359-1-7-5-3-0-73-1-9-8-0-0"
     inkscape:connector-curvature="0"
     sodipodi:nodetypes="cccccccccc" />
  <text
     xml:space="preserve"
     style="font-style:normal;font-variant:normal;font-weight:normal;font-stretch:normal;font-size:10px;line-height:129.99999523%;font-family:Arial;-inkscape-font-specification:Arial;text-align:start;letter-spacing:0.5px;word-spacing:0px;text-anchor:start;fill:#000000;fill-opacity:1;stroke:none;stroke-width:1px;stroke-linecap:butt;stroke-linejoin:miter;stroke-opacity:1;"
     x="190.46309"
     y="143.61884"
     id="text8022"
     sodipodi:linespacing="130%"><tspan
       sodipodi:role="line"
       id="tspan8024"
       x="190.46309"
       y="143.61884">Gear Case</tspan></text>
  <text
     xml:space="preserve"
     style="font-style:normal;font-variant:normal;font-weight:normal;font-stretch:normal;font-size:10px;line-height:129.99999523%;font-family:Arial;-inkscape-font-specification:Arial;text-align:start;letter-spacing:0.5px;word-spacing:0px;text-anchor:start;fill:#000000;fill-opacity:1;stroke:none;stroke-width:1px;stroke-linecap:butt;stroke-linejoin:miter;stroke-opacity:1"
     x="7.9008942"
     y="136.78619"
     id="text8022-5"
     sodipodi:linespacing="130%"><tspan
       sodipodi:role="line"
       id="tspan8024-0"
       x="7.9008942"
       y="136.78619">Blower</tspan></text>
  <text
     xml:space="preserve"
     style="font-style:italic;font-variant:normal;font-weight:normal;font-stretch:normal;font-size:10px;line-height:129.99999523%;font-family:Arial;-inkscape-font-specification:'Arial Italic';text-align:start;letter-spacing:0px;word-spacing:0px;text-anchor:start;fill:#000000;fill-opacity:1;stroke:none;stroke-width:1px;stroke-linecap:butt;stroke-linejoin:miter;stroke-opacity:1"
     x="64.265587"
     y="95.688904"
     id="text8044"
     sodipodi:linespacing="130%"><tspan
       sodipodi:role="line"
       id="tspan8046"
       x="64.265587"
       y="95.688904">c</tspan></text>
  <text
     xml:space="preserve"
     style="font-style:italic;font-variant:normal;font-weight:normal;font-stretch:normal;font-size:10px;line-height:129.99999523%;font-family:Arial;-inkscape-font-specification:'Arial Italic';text-align:start;letter-spacing:0px;word-spacing:0px;text-anchor:start;fill:#000000;fill-opacity:1;stroke:none;stroke-width:1px;stroke-linecap:butt;stroke-linejoin:miter;stroke-opacity:1"
     x="87.46048"
     y="112.6427"
     id="text8044-8"
     sodipodi:linespacing="130%"><tspan
       sodipodi:role="line"
       id="tspan8046-5"
       x="87.46048"
       y="112.6427">b</tspan></text>
  <text
     xml:space="preserve"
     style="font-style:italic;font-variant:normal;font-weight:normal;font-stretch:normal;font-size:10px;line-height:129.99999523%;font-family:Arial;-inkscape-font-specification:'Arial Italic';text-align:start;letter-spacing:0px;word-spacing:0px;text-anchor:start;fill:#000000;fill-opacity:1;stroke:none;stroke-width:1px;stroke-linecap:butt;stroke-linejoin:miter;stroke-opacity:1"
     x="138.44212"
     y="112.10416"
     id="text8044-3"
     sodipodi:linespacing="130%"><tspan
       sodipodi:role="line"
       id="tspan8046-9"
       x="138.44212"
       y="112.10416">a</tspan></text>
  <text
     xml:space="preserve"
     style="font-style:italic;font-variant:normal;font-weight:normal;font-stretch:normal;font-size:10px;line-height:129.99999523%;font-family:Arial;-inkscape-font-specification:'Arial Italic';text-align:start;letter-spacing:0px;word-spacing:0px;text-anchor:start;fill:#000000;fill-opacity:1;stroke:none;stroke-width:1px;stroke-linecap:butt;stroke-linejoin:miter;stroke-opacity:1"
     x="111.96078"
     y="315.87848"
     id="text8044-0"
     sodipodi:linespacing="130%"><tspan
       sodipodi:role="line"
       id="tspan8046-7"
       x="111.96078"
       y="315.87848">c</tspan></text>
  <text
     xml:space="preserve"
     style="font-style:italic;font-variant:normal;font-weight:normal;font-stretch:normal;font-size:10px;line-height:129.99999523%;font-family:Arial;-inkscape-font-specification:'Arial Italic';text-align:start;letter-spacing:0px;word-spacing:0px;text-anchor:start;fill:#000000;fill-opacity:1;stroke:none;stroke-width:1px;stroke-linecap:butt;stroke-linejoin:miter;stroke-opacity:1"
     x="108.19186"
     y="284.62781"
     id="text8044-36"
     sodipodi:linespacing="130%"><tspan
       sodipodi:role="line"
       id="tspan8046-6"
       x="108.19186"
       y="284.62781">b</tspan></text>
</svg>
