<?xml version="1.0" encoding="UTF-8" standalone="no"?>
<!-- Created with Inkscape (http://www.inkscape.org/) -->

<svg
   xmlns:dc="http://purl.org/dc/elements/1.1/"
   xmlns:cc="http://creativecommons.org/ns#"
   xmlns:rdf="http://www.w3.org/1999/02/22-rdf-syntax-ns#"
   xmlns:svg="http://www.w3.org/2000/svg"
   xmlns="http://www.w3.org/2000/svg"
   xmlns:sodipodi="http://sodipodi.sourceforge.net/DTD/sodipodi-0.dtd"
   xmlns:inkscape="http://www.inkscape.org/namespaces/inkscape"
   id="svg17840"
   version="1.1"
   inkscape:version="0.92.2 5c3e80d, 2017-08-06"
   width="459.51999"
   height="362.24002"
   viewBox="0 0 430.79999 339.60001"
   sodipodi:docname="ec03mr91.013.svg">
  <title id="title_ec03mr91.013">FIGURE 1  CARD - Leader knots and hitches</title>
  <desc id="desc_ec03mr91.013"></desc>
  <metadata
     id="metadata17846">
    <rdf:RDF>
      <cc:Work
         rdf:about="">
        <dc:format>image/svg+xml</dc:format>
        <dc:type
           rdf:resource="http://purl.org/dc/dcmitype/StillImage" />
        <dc:title></dc:title>
      </cc:Work>
    </rdf:RDF>
  </metadata>
  <defs
     id="defs17844" />
  <sodipodi:namedview
     pagecolor="#ffffff"
     bordercolor="#666666"
     borderopacity="1"
     objecttolerance="10"
     gridtolerance="10"
     guidetolerance="10"
     inkscape:pageopacity="0"
     inkscape:pageshadow="2"
     inkscape:window-width="1280"
     inkscape:window-height="756"
     id="namedview17842"
     showgrid="false"
     inkscape:zoom="0.99423877"
     inkscape:cx="119.91268"
     inkscape:cy="139.29672"
     inkscape:window-x="7"
     inkscape:window-y="23"
     inkscape:window-maximized="0"
     inkscape:current-layer="svg17840" />
  <path
     style="fill:none;stroke:#000000;stroke-width:1;stroke-linecap:butt;stroke-linejoin:miter;stroke-miterlimit:4;stroke-dasharray:none;stroke-opacity:1"
     d="m 8.5118978,11.931706 -0.002,297.668584 H 420.22777 l 0.002,-297.668584 z"
     id="path14359-1-7-5-3-0-73-1-9-8-7"
     inkscape:connector-curvature="0"
     sodipodi:nodetypes="ccccc" />
  <text
     xml:space="preserve"
     style="font-style:normal;font-variant:normal;font-weight:normal;font-stretch:normal;line-height:0%;font-family:Arial;-inkscape-font-specification:Arial;text-align:start;letter-spacing:0.49000001px;word-spacing:2.5px;text-anchor:start;fill:#000000;fill-opacity:1;stroke:none;stroke-width:1px;stroke-linecap:butt;stroke-linejoin:miter;stroke-opacity:1"
     x="135.85016"
     y="262.47015"
     id="text18445"><tspan
       sodipodi:role="line"
       id="tspan18447"
       x="135.85016"
       y="262.47015"
       style="font-size:7.5px;line-height:1.29999995">Pass and of leader through ring and double it back against</tspan><tspan
       sodipodi:role="line"
       x="135.85016"
       y="272.22015"
       id="tspan18449"
       style="font-size:7.5px;line-height:1.29999995">itself, making at least four turns.  then pass the end</tspan><tspan
       sodipodi:role="line"
       x="135.85016"
       y="281.97015"
       id="tspan18451"
       style="font-size:7.5px;line-height:1.29999995">between ring and coils.  Pull tight.</tspan></text>
  <text
     xml:space="preserve"
     style="font-style:normal;font-variant:normal;font-weight:normal;font-stretch:normal;line-height:0%;font-family:Arial;-inkscape-font-specification:Arial;text-align:start;letter-spacing:0.49000001px;word-spacing:2.5px;text-anchor:start;fill:#000000;fill-opacity:1;stroke:none;stroke-width:1px;stroke-linecap:butt;stroke-linejoin:miter;stroke-opacity:1"
     x="80.559761"
     y="211.1763"
     id="text18445-5"><tspan
       sodipodi:role="line"
       x="80.559761"
       y="211.1763"
       id="tspan18451-5"
       style="font-size:7.5px;line-height:1.16999996">Used for tying snap</tspan><tspan
       sodipodi:role="line"
       x="80.559761"
       y="219.95129"
       id="tspan18482"
       style="font-size:7.5px;line-height:1.16999996">to line orfly to</tspan><tspan
       sodipodi:role="line"
       x="80.559761"
       y="228.7263"
       id="tspan18484"
       style="font-size:7.5px;line-height:1.16999996">leader</tspan></text>
  <text
     xml:space="preserve"
     style="font-style:normal;font-variant:normal;font-weight:normal;font-stretch:normal;line-height:0%;font-family:Arial;-inkscape-font-specification:Arial;text-align:start;letter-spacing:0.49000001px;word-spacing:2.5px;text-anchor:start;fill:#000000;fill-opacity:1;stroke:none;stroke-width:1px;stroke-linecap:butt;stroke-linejoin:miter;stroke-opacity:1"
     x="293.23557"
     y="189.09102"
     id="text18445-5-8"><tspan
       sodipodi:role="line"
       x="293.23557"
       y="189.09102"
       id="tspan18484-7"
       style="font-size:7.5px;line-height:1.16999996">Simple Clinch</tspan></text>
  <text
     xml:space="preserve"
     style="font-style:normal;font-variant:normal;font-weight:normal;font-stretch:normal;line-height:0%;font-family:Arial;-inkscape-font-specification:Arial;text-align:start;letter-spacing:0px;word-spacing:1.75999999px;text-anchor:start;fill:#000000;fill-opacity:1;stroke:none;stroke-width:1px;stroke-linecap:butt;stroke-linejoin:miter;stroke-opacity:1"
     x="272.42065"
     y="118.52036"
     id="text18445-5-8-9-9"><tspan
       sodipodi:role="line"
       x="272.42065"
       y="118.52036"
       id="tspan18484-7-9-9"
       style="font-size:6.25px;line-height:1.16999996">JOINING TWO SEPARATE STRANDS</tspan></text>
  <text
     xml:space="preserve"
     style="font-style:normal;font-variant:normal;font-weight:normal;font-stretch:normal;line-height:0%;font-family:Arial;-inkscape-font-specification:Arial;text-align:start;letter-spacing:0.72000003px;word-spacing:1.75999999px;text-anchor:start;fill:#000000;fill-opacity:1;stroke:none;stroke-width:1px;stroke-linecap:butt;stroke-linejoin:miter;stroke-opacity:1"
     x="124.13461"
     y="101.45145"
     id="text18445-5-8-9-94"><tspan
       sodipodi:role="line"
       x="124.13461"
       y="101.45145"
       id="tspan18484-7-9-0"
       style="font-size:6.25px;line-height:1.16999996;letter-spacing:0px;word-spacing:1.75999999px">END LOOP</tspan></text>
  <text
     xml:space="preserve"
     style="font-style:normal;font-variant:normal;font-weight:normal;font-stretch:normal;line-height:0%;font-family:Arial;-inkscape-font-specification:Arial;text-align:start;letter-spacing:0px;word-spacing:1.75999999px;text-anchor:start;fill:#000000;fill-opacity:1;stroke:none;stroke-width:1px;stroke-linecap:butt;stroke-linejoin:miter;stroke-opacity:1"
     x="102.01125"
     y="182.17311"
     id="text18445-5-8-9-9-1"><tspan
       sodipodi:role="line"
       x="102.01125"
       y="182.17311"
       id="tspan18484-7-9-9-3"
       style="font-size:6.25px;line-height:1.16999996">ATTACHING LOOP TO LINE LOOP</tspan></text>
  <text
     xml:space="preserve"
     style="font-style:normal;font-variant:normal;font-weight:normal;font-stretch:normal;line-height:0%;font-family:Arial;-inkscape-font-specification:Arial;text-align:start;letter-spacing:0.49000001px;word-spacing:2.5px;text-anchor:start;fill:#000000;fill-opacity:1;stroke:none;stroke-width:1px;stroke-linecap:butt;stroke-linejoin:miter;stroke-opacity:1"
     x="328.20493"
     y="245.57231"
     id="text18445-5-8-4"><tspan
       sodipodi:role="line"
       x="328.20493"
       y="245.57231"
       id="tspan18484-7-6"
       style="font-size:7.5px;line-height:1.16999996">Improved Clinch</tspan></text>
  <text
     xml:space="preserve"
     style="font-style:normal;font-variant:normal;font-weight:normal;font-stretch:normal;line-height:0%;font-family:Arial;-inkscape-font-specification:Arial;text-align:start;letter-spacing:0.67000002px;word-spacing:0px;text-anchor:start;fill:#000000;fill-opacity:1;stroke:none;stroke-width:1px;stroke-linecap:butt;stroke-linejoin:miter;stroke-opacity:1"
     x="195.44795"
     y="330.02991"
     id="text18614"><tspan
       sodipodi:role="line"
       id="tspan18616"
       x="195.44795"
       y="330.02991"
       style="font-size:7.5px;line-height:1.29999995">F<tspan
   style="font-size:6.25px;letter-spacing:0.67000002px"
   id="tspan18618">IGURE</tspan> 1</tspan></text>
  <text
     xml:space="preserve"
     style="font-style:normal;font-variant:normal;font-weight:normal;font-stretch:normal;line-height:0%;font-family:Arial;-inkscape-font-specification:Arial;text-align:start;letter-spacing:0.72000003px;word-spacing:1.75999999px;text-anchor:start;fill:#000000;fill-opacity:1;stroke:none;stroke-width:1px;stroke-linecap:butt;stroke-linejoin:miter;stroke-opacity:1"
     x="70.396446"
     y="201.90627"
     id="text18445-5-8-9-94-7"><tspan
       sodipodi:role="line"
       x="70.396446"
       y="201.90627"
       id="tspan18484-7-9-0-3"
       style="font-size:6.25px;line-height:1.16999996;letter-spacing:0px;word-spacing:1.75999999px">CLINCH KNOT</tspan></text>
  <path
     style="fill:none;fill-rule:evenodd;stroke:#000000;stroke-width:1px;stroke-linecap:round;stroke-linejoin:round;stroke-opacity:1"
     d="m 163.6698,17.485905 c -3.46817,-1.69217 -7.58134,-1.970821 -11.26879,-0.604766 -2.28501,0.846504 -3.87615,2.646991 -4.63837,4.916367 -0.93552,2.785349 -0.68314,5.665287 -0.71941,8.521585 -0.0352,2.775908 0.89546,4.813979 4.59673,6.114259 1.16106,0.407886 5.19875,-0.265371 4.01147,-0.651512 -0.54873,-0.178463 -1.02833,-1.050729 -2.40036,-1.425278 -2.1259,-0.58035 -4.46024,-1.148596 -4.38371,-4.07098 0.0572,-2.18337 0.83883,-4.918886 1.35475,-7.058981 0.65877,-2.732683 2.4426,-3.907257 5.2856,-4.089652 2.53346,-0.162537 7.42889,-0.675326 8.16916,2.171235 0.18091,0.695675 -0.10413,2.209356 1.16476,2.336264 0.96031,0.09604 1.65231,0.05884 1.99268,-1.242082 0.56377,-2.154774 -1.33101,-4.021865 -3.16451,-4.916459 z"
     id="path9776"
     inkscape:connector-curvature="0"
     sodipodi:nodetypes="ssssssssssssss" />
  <path
     style="fill:none;fill-rule:evenodd;stroke:#000000;stroke-width:1px;stroke-linecap:round;stroke-linejoin:round;stroke-opacity:1"
     d="m 149.76626,28.310133 c 2.83509,0.680804 4.38377,3.663834 6.84119,5.183759 1.38825,0.858636 3.58729,0.582431 4.83179,-0.929653 1.0564,-1.283526 3.40155,-2.19507 3.74225,-0.261302 0.27288,1.548819 -2.53553,2.809756 -4.09987,3.423543 -2.62917,1.031589 -5.84705,0.280151 -7.63127,-1.86649 -1.35213,-1.626778 -2.49852,-2.184411 -4.03361,-3.520542 -0.27819,-0.733725 0.15256,-1.366146 0.34952,-2.029315 z"
     id="path9783"
     inkscape:connector-curvature="0"
     sodipodi:nodetypes="cssssscc" />
  <path
     style="fill:none;fill-rule:evenodd;stroke:#000000;stroke-width:1px;stroke-linecap:round;stroke-linejoin:round;stroke-opacity:1"
     d="m 164.04304,26.443887 c 0,0.32623 -0.55368,1.892322 -0.74649,2.052871"
     id="path9791"
     inkscape:connector-curvature="0"
     sodipodi:nodetypes="cc" />
  <path
     style="fill:none;fill-rule:evenodd;stroke:#000000;stroke-width:1px;stroke-linecap:round;stroke-linejoin:round;stroke-opacity:1"
     d="m 166.93573,26.16395 c 0.1023,0.84381 7.5e-4,1.397399 -0.18663,1.959559"
     id="path9793"
     inkscape:connector-curvature="0"
     sodipodi:nodetypes="cc" />
  <path
     style="fill:none;fill-rule:evenodd;stroke:#000000;stroke-width:1px;stroke-linecap:round;stroke-linejoin:round;stroke-opacity:1"
     d="m 149.85957,25.324139 c 4.49586,1.273327 9.27048,1.665806 13.84496,0.999467 2.29348,-0.334079 4.40906,-0.705989 6.54662,-1.411795 2.57982,-0.851838 5.15031,-1.734717 7.85227,-2.126041 5.4349,-0.787134 10.94303,-0.607211 16.40367,-0.140678 1.96849,0.168179 4.34735,0.805047 5.97264,-0.469284 1.71296,-1.343073 -2.2377,-2.128765 -3.32441,-2.287329 -3.54035,-0.51658 -7.14043,-0.174834 -10.704,-0.53388 -3.79906,-0.382773 -7.72074,-0.139558 -11.31988,1.402894 -2.96992,1.272793 -6.06232,2.265852 -9.19225,3.068101 -2.02399,0.518781 -4.26751,0.231948 -6.39377,0.394606 -2.31955,0.177445 -3.96035,0.780987 -6.23329,0.264135 -0.85574,-0.194589 -1.9332,-0.4491 -3.17262,-1.119748"
     id="path9795"
     inkscape:connector-curvature="0"
     sodipodi:nodetypes="csssssssssssc" />
  <path
     style="fill:none;fill-rule:evenodd;stroke:#000000;stroke-width:1px;stroke-linecap:butt;stroke-linejoin:miter;stroke-opacity:1"
     d="m 168.80197,28.403446 c 3.57874,0.674658 7.20722,1.060158 10.80497,1.375337 4.20304,0.368205 8.38419,0.100005 12.59176,0.336943 5.0635,0.285138 10.19764,-0.879857 15.21224,-0.01229 3.58178,0.619677 9.91278,-0.925451 10.5478,1.156189 0.99495,3.261518 -5.99393,1.843547 -8.59815,1.680955 -3.39159,-0.21175 -6.71976,-0.971122 -10.09357,-0.44769 -3.85145,0.597534 -8.14727,-0.04631 -11.8347,0.186406 -3.15304,0.198988 -5.92732,-0.0224 -9.28783,-0.326801 -2.94249,-0.266541 -5.75088,-0.636383 -8.6819,-0.717581 -3.44142,-0.09534 -7.42116,-1.408225 -10.47553,0.652759 -1.8414,2.66784 -5.71612,-1.265896 -1.85264,-1.979902 3.73096,-1.192135 7.78861,-2.635576 11.66755,-1.904325 z"
     id="path9799"
     inkscape:connector-curvature="0"
     sodipodi:nodetypes="ssssssssssccs" />
  <path
     style="fill:none;fill-rule:evenodd;stroke:#000000;stroke-width:1px;stroke-linecap:round;stroke-linejoin:round;stroke-opacity:1"
     d="m 147.71339,21.684959 c -2.52194,-1.68127 -5.1458,-2.333008 -8.00107,-3.599509 -3.65241,-1.620092 -7.90404,-4.059554 -11.88877,-3.477181 -3.94275,0.57624 -8.37781,1.069901 -11.16536,4.164085 -2.00266,2.222948 -0.35646,6.275496 1.00605,8.705843 1.22219,2.180048 4.58367,2.764103 7.2387,3.253345 3.78838,0.698085 7.48273,0.717655 11.41883,0.478951 3.5512,-0.215362 7.2439,-1.297824 10.64512,-0.194302"
     id="path9803"
     inkscape:connector-curvature="0"
     sodipodi:nodetypes="cssssssc" />
  <path
     style="fill:none;fill-rule:evenodd;stroke:#000000;stroke-width:1px;stroke-linecap:round;stroke-linejoin:round;stroke-opacity:1"
     d="m 146.78027,28.496758 c -4.6645,0.158991 -9.3182,0.380176 -13.98473,0.141747 -4.21692,-0.215457 -10.32622,0.01339 -12.10604,-1.804998 -2.00764,-2.051149 -2.21806,-7.857108 0.89309,-8.386539 4.27075,-0.726763 8.63206,-0.567129 12.96765,0.541146 3.06561,0.783638 5.37216,2.287482 7.93348,3.781066 1.38197,0.80587 2.9739,0.993249 4.48317,1.435212"
     id="path9805"
     inkscape:connector-curvature="0"
     sodipodi:nodetypes="csssssc" />
  <path
     style="fill:none;fill-rule:evenodd;stroke:#000000;stroke-width:1px;stroke-linecap:round;stroke-linejoin:round;stroke-opacity:1"
     d="m 189.34324,50.810961 c 2.0438,1.115669 3.81234,2.053896 6.23256,1.765663 2.45336,-0.292179 5.82481,0.712938 8.22895,0.787367 1.64161,0.05082 3.5543,1.727005 1.13527,2.361287 -2.71752,0.712547 -5.55429,-0.0074 -8.21398,-0.730184 -2.26834,-0.616451 -4.31714,-0.946341 -6.67822,-1.967871 -1.00456,-0.434626 -1.98966,-0.70711 -2.77001,-1.482324"
     id="path9815"
     inkscape:connector-curvature="0"
     sodipodi:nodetypes="csssssc" />
  <path
     style="fill:none;fill-rule:evenodd;stroke:#000000;stroke-width:1px;stroke-linecap:round;stroke-linejoin:round;stroke-opacity:1"
     d="m 178.21287,52.264121 c 1.84317,-0.124921 3.59588,-0.400549 5.41213,-1.297835 2.55334,-1.261435 4.3905,-3.082974 7.35164,-3.024404 2.46162,0.04869 4.27473,1.89052 4.18032,4.389353"
     id="path9817"
     inkscape:connector-curvature="0"
     sodipodi:nodetypes="cssc" />
  <path
     style="fill:none;fill-rule:evenodd;stroke:#000000;stroke-width:1px;stroke-linecap:round;stroke-linejoin:round;stroke-opacity:1"
     d="m 178.28107,54.210041 c 2.69693,0.301371 6.19164,-1.379245 8.10922,-2.299916 2.1061,-1.011184 4.69293,-2.490245 6.40553,-0.404241 0.2428,0.295737 0.4744,0.578496 0.65424,0.919741"
     id="path9819"
     inkscape:connector-curvature="0"
     sodipodi:nodetypes="cssc" />
  <path
     style="fill:none;fill-rule:evenodd;stroke:#000000;stroke-width:1px;stroke-linecap:round;stroke-linejoin:round;stroke-opacity:1"
     d="m 193.80967,54.530893 c 0.72407,1.895275 -1.09758,2.754464 -1.26761,4.507347"
     id="path9821"
     inkscape:connector-curvature="0"
     sodipodi:nodetypes="cc" />
  <path
     style="fill:none;fill-rule:evenodd;stroke:#000000;stroke-width:1px;stroke-linecap:round;stroke-linejoin:round;stroke-opacity:1"
     d="m 195.58261,54.717518 c 0.39641,1.613363 0.2265,3.225249 -0.98768,4.373118"
     id="path9823"
     inkscape:connector-curvature="0"
     sodipodi:nodetypes="cc" />
  <path
     style="fill:none;fill-rule:evenodd;stroke:#000000;stroke-width:1px;stroke-linecap:round;stroke-linejoin:round;stroke-opacity:1"
     d="m 179.83902,58.58316 c 4.48047,0.352595 8.22678,0.12302 12.69539,0.509983 2.6395,0.228571 6.13693,0.215567 9.26425,0.419665 2.80702,0.183195 5.67747,0.428786 8.55773,0.472048 2.65339,0.03985 6.05307,-0.01454 8.8098,0.423121 2.07179,0.328915 3.55506,1.091773 5.33552,1.515999 1.16516,0.277619 2.35739,1.654569 0.0367,1.967135 -4.42857,0.596472 -7.46584,-0.586382 -11.76401,-0.804871 -2.80677,-0.142677 -5.1821,-0.189838 -7.6021,-0.693068 -2.32693,-0.483876 -4.72152,-0.795869 -7.07311,-0.942149 -1.4396,-0.08955 -2.79072,0.537441 -4.25263,0.567378 -1.1675,0.02391 -2.315,-0.882545 -3.54249,-0.826953 -2.30929,0.104586 -4.29963,0.0076 -6.84483,0.02487 -0.98145,0.0067 -2.02659,-0.18321 -2.89993,-0.153564"
     id="path9825"
     inkscape:connector-curvature="0"
     sodipodi:nodetypes="cssssssssssssc" />
  <path
     style="fill:none;fill-rule:evenodd;stroke:#000000;stroke-width:1px;stroke-linecap:round;stroke-linejoin:round;stroke-opacity:1"
     d="m 184.25305,50.265803 c -1.98395,-0.98593 -5.52229,-1.62673 -6.06847,1.305157 -0.50601,2.71626 1.10515,5.193276 1.67829,7.839937 0.63172,2.91719 2.39407,4.743938 5.51958,4.869431 2.44756,0.09827 4.83723,-0.591543 5.88375,-2.553983"
     id="path9827"
     inkscape:connector-curvature="0"
     sodipodi:nodetypes="csssc" />
  <path
     style="fill:none;fill-rule:evenodd;stroke:#000000;stroke-width:1px;stroke-linecap:round;stroke-linejoin:round;stroke-opacity:1"
     d="m 193.95862,62.072317 c -0.82927,2.021405 -1.52789,2.983223 -3.81833,3.630744 -3.02133,0.85415 -5.31593,1.878452 -8.70996,-0.348422 -2.70216,-1.772926 -4.79478,-4.414142 -5.81656,-7.37119 -0.785,-2.271808 -1.06332,-4.761886 -0.20314,-7.186478 0.82058,-2.312977 2.98493,-3.70156 5.3655,-3.607874 2.32689,0.09157 4.31886,0.793951 6.48913,1.530234"
     id="path9829"
     inkscape:connector-curvature="0"
     sodipodi:nodetypes="csssssc" />
  <path
     style="fill:none;fill-rule:evenodd;stroke:#000000;stroke-width:1px;stroke-linecap:round;stroke-linejoin:round;stroke-opacity:1"
     d="m 154.76649,62.454447 c 1.56954,-1.013687 2.70564,-2.554151 4.64665,-3.08264 3.03447,-0.826212 6.09458,-0.125051 9.14507,-0.26511 1.93457,-0.08882 3.86914,-0.14008 5.80386,-0.209406 0.46956,-0.01683 0.93893,-0.240168 1.39849,-0.02817"
     id="path9847"
     inkscape:connector-curvature="0"
     sodipodi:nodetypes="csssc" />
  <path
     style="fill:none;fill-rule:evenodd;stroke:#000000;stroke-width:1px;stroke-linecap:round;stroke-linejoin:round;stroke-opacity:1"
     d="m 157.11687,63.689392 c 2.17188,-1.210347 4.37328,-2.704505 6.96544,-2.586917 1.73632,0.07876 3.41625,0.183712 5.1775,0.08035 2.73579,-0.160559 5.15563,0.153335 7.89504,0.116379"
     id="path9849"
     inkscape:connector-curvature="0"
     sodipodi:nodetypes="cssc" />
  <path
     style="fill:none;fill-rule:evenodd;stroke:#000000;stroke-width:1px;stroke-linecap:round;stroke-linejoin:round;stroke-opacity:1"
     d="m 148.79095,55.482983 c 4.30263,-0.105414 8.60821,-0.04973 12.90345,0.236339 2.32788,0.155039 4.65011,0.0073 6.98524,-0.01318 2.04213,-0.01791 4.13099,-0.138974 6.085,-0.820699"
     id="path9851"
     inkscape:connector-curvature="0"
     sodipodi:nodetypes="cssc" />
  <path
     style="fill:none;fill-rule:evenodd;stroke:#000000;stroke-width:1px;stroke-linecap:round;stroke-linejoin:round;stroke-opacity:1"
     d="m 149.82671,53.57081 c 4.27793,0.126871 8.54824,-0.169214 12.83599,0.160285 2.61342,0.200832 5.2676,0.171858 7.8672,-0.237104 1.45975,-0.229645 2.86204,-0.811028 4.35425,-0.799637"
     id="path9853"
     inkscape:connector-curvature="0"
     sodipodi:nodetypes="cssc" />
  <path
     style="fill:none;fill-rule:evenodd;stroke:#000000;stroke-width:1px;stroke-linecap:round;stroke-linejoin:round;stroke-opacity:1"
     d="m 163.49078,55.881353 c 0.43726,0.950171 0.25594,2.020959 0.23902,3.027607"
     id="path9871"
     inkscape:connector-curvature="0"
     sodipodi:nodetypes="cc" />
  <path
     style="fill:none;fill-rule:evenodd;stroke:#000000;stroke-width:1px;stroke-linecap:round;stroke-linejoin:round;stroke-opacity:1"
     d="m 165.881,55.761842 c 0.48239,0.927061 0.48644,2.04067 0.19918,3.027607"
     id="path9873"
     inkscape:connector-curvature="0"
     sodipodi:nodetypes="cc" />
  <path
     style="fill:none;fill-rule:evenodd;stroke:#000000;stroke-width:1px;stroke-linecap:round;stroke-linejoin:round;stroke-opacity:1"
     d="m 162.09649,53.491136 c -0.97045,-1.915023 -3.02768,-3.38942 -5.24898,-3.163992 -1.02921,0.104449 -2.2732,0.0256 -3.2596,0.332702 -1.80159,0.560896 -3.30263,2.026259 -4.33935,3.762782 -1.03643,1.736041 -1.18024,3.696291 -1.18806,5.796291 -0.005,1.225235 0.53559,2.778869 1.61955,3.598542 1.00263,0.758184 2.07209,-0.29325 3.0749,0.1799 0.89528,0.422412 1.48642,1.805947 0.56294,2.472722 -1.22113,0.881686 -2.83517,1.072118 -4.26121,0.312012 -1.13407,-0.604485 -1.88218,-1.609197 -2.41799,-2.743744 -0.6709,-1.420591 -0.93778,-3.555146 -0.9898,-4.961303 -0.062,-1.675843 0.17377,-3.60358 0.8625,-5.035151 0.75662,-1.572689 1.53627,-3.063042 3.08351,-4.061444 1.19618,-0.771869 2.47694,-1.592229 3.84857,-1.945206 2.5792,-0.663735 5.61295,-0.364571 8.02124,0.888598 1.69276,0.88084 3.1069,2.41705 3.77325,4.217628 0.0833,0.22517 0.1076,0.468683 0.12513,0.708197"
     id="path9875"
     inkscape:connector-curvature="0"
     sodipodi:nodetypes="csssssssssssssssc" />
  <path
     style="fill:none;fill-rule:evenodd;stroke:#000000;stroke-width:1px;stroke-linecap:round;stroke-linejoin:round;stroke-opacity:1"
     d="m 148.51209,58.51059 c 3.02814,0.784333 4.79072,3.638423 7.54328,4.959745 1.13146,0.543138 2.48704,1.302344 3.58783,0.515639 0.88551,-0.632852 2.19426,-1.641905 3.10459,-2.470298 1.10998,-1.010065 2.78956,0.348585 1.54855,1.539594 -0.91006,0.873397 -1.85175,1.94221 -2.97803,2.491639 -1.21375,0.592096 -2.74701,0.653768 -4.04631,0.440603 -1.29035,-0.211694 -2.65442,-0.609221 -3.7341,-1.377877 -1.74732,-1.243973 -3.00437,-3.198168 -5.06564,-3.987684"
     id="path9877"
     inkscape:connector-curvature="0"
     sodipodi:nodetypes="csssssssc" />
  <path
     style="fill:none;fill-rule:evenodd;stroke:#000000;stroke-width:1px;stroke-linecap:round;stroke-linejoin:round;stroke-opacity:1"
     d="m 145.76335,55.204125 c -1.85124,0.3621 -3.54794,-0.514238 -5.20761,-1.315932 -3.53101,-1.705636 -7.90064,-2.698434 -11.11321,-3.351827 -2.26249,-0.460159 -4.40388,-1.013336 -6.96665,-0.07422 -2.51154,0.920342 -3.75493,3.726224 -2.7399,6.037792 0.91111,2.074912 1.6436,3.963014 4.40724,4.597962 1.8286,0.420122 3.9601,0.268673 5.82156,0.190581 2.5929,-0.108777 4.9487,0.09618 7.26468,-0.82875 2.58293,-1.031551 5.38348,-2.766172 8.25503,-2.307676"
     id="path9899"
     inkscape:connector-curvature="0"
     sodipodi:nodetypes="csssssssc" />
  <path
     style="fill:none;fill-rule:evenodd;stroke:#000000;stroke-width:1px;stroke-linecap:round;stroke-linejoin:round;stroke-opacity:1"
     d="m 146.87878,52.813909 c -3.63125,0.07457 -7.32118,-1.022603 -11.09474,-2.757549 -1.79486,-0.825213 -3.59624,-1.560256 -5.53689,-1.936696 -2.4399,-0.473283 -5.2286,-0.383584 -7.75134,-0.124974 -1.80569,0.185104 -3.32678,1.200835 -4.42512,2.465838 -1.74171,2.006001 -1.55849,4.702396 -0.639,6.812421 1.01567,2.330736 2.10433,4.651006 4.67798,5.242582 3.47726,0.79928 7.66743,1.667987 11.49726,1.128905 1.60274,-0.225599 3.46647,-0.658966 4.96565,-1.334738 2.25766,-1.017673 4.33586,-2.067639 6.64904,-2.310273 l 0.38238,0.0648"
     id="path9901"
     inkscape:connector-curvature="0"
     sodipodi:nodetypes="csssssssscc" />
  <path
     style="fill:none;fill-rule:evenodd;stroke:#000000;stroke-width:1px;stroke-linecap:round;stroke-linejoin:round;stroke-opacity:1"
     d="m 146.12659,81.135883 c 4.55563,0.08273 8.7568,0.454398 13.32105,0.279865 2.88563,-0.110344 7.97944,0.148398 8.5739,1.219304 1.47,2.648163 -2.9169,2.284375 -4.6667,2.148848 -3.28194,-0.254194 -6.44185,-0.530346 -9.67353,-0.593239 -2.70033,-0.05255 -5.34436,0.126358 -7.9772,-0.470289 -0.50924,-0.115402 -0.3546,-0.17843 -0.87471,-0.224808"
     id="path9907"
     inkscape:connector-curvature="0"
     sodipodi:nodetypes="csssssc" />
  <path
     style="fill:none;fill-rule:evenodd;stroke:#000000;stroke-width:1px;stroke-linecap:round;stroke-linejoin:round;stroke-opacity:1"
     d="m 146.95979,79.225779 c 3.22538,0.210027 7.06406,-0.933902 10.11299,0.357293 0.62061,0.262823 1.06258,1.5393 0.1048,1.801946"
     id="path9909"
     inkscape:connector-curvature="0"
     sodipodi:nodetypes="csc" />
  <path
     style="fill:none;fill-rule:evenodd;stroke:#000000;stroke-width:1px;stroke-linecap:round;stroke-linejoin:round;stroke-opacity:1"
     d="m 143.64376,79.764234 c -0.98689,-2.931102 -3.88077,0.761192 -4.72005,1.907377 -1.22779,1.676762 -3.04118,3.320622 -2.58033,4.724566 0.80766,2.46053 3.19391,-0.885477 4.24363,-2.189743 1.58699,-1.97182 3.16966,-3.989702 4.1495,-6.289853 0.78737,-1.848342 4.01589,-1.271724 2.48022,0.752338 -1.31041,1.727161 -1.59421,4.101914 -3.12262,5.638632 -0.97122,0.976499 -4.1362,4.541533 -4.56276,1.247028"
     id="path9911"
     inkscape:connector-curvature="0"
     sodipodi:nodetypes="cssssssc" />
  <path
     style="fill:none;fill-rule:evenodd;stroke:#000000;stroke-width:1px;stroke-linecap:round;stroke-linejoin:round;stroke-opacity:1"
     d="m 137.07434,83.320884 c -2.83475,-1.171438 -5.8549,-1.847045 -8.55257,-3.37716 -2.02979,-1.151293 -4.45077,-1.036551 -6.77414,-0.675685 -2.56169,0.397882 -5.4587,0.977096 -5.89681,4.139707 -0.3438,2.481807 0.13222,5.027807 2.7532,5.76729 2.05093,0.578649 4.15092,0.80065 6.30485,0.181177 2.43265,-0.699633 4.63868,-1.335564 7.13385,-2.336789 1.58504,-0.636018 2.92939,-1.656852 4.54469,-2.363993"
     id="path9913"
     inkscape:connector-curvature="0"
     sodipodi:nodetypes="cssssssc" />
  <path
     style="fill:none;fill-rule:evenodd;stroke:#000000;stroke-width:1px;stroke-linecap:round;stroke-linejoin:round;stroke-opacity:1"
     d="m 136.39573,86.522512 c -1.93435,1.111149 -4.45896,3.195984 -6.70109,4.475433 -2.79153,1.592959 -6.23688,1.88781 -9.46024,1.111547 -2.3962,-0.577065 -4.99996,-1.162853 -6.05614,-3.508758 -1.0381,-2.305747 -0.59502,-5.050096 0.4424,-7.264251 0.93644,-1.998645 2.70822,-3.864482 4.80041,-4.391984 5.26324,-1.327016 8.68232,-0.214512 12.14697,2.074566 2.14357,1.416246 3.49944,1.891089 5.45434,1.724925 0.81401,-0.06919 1.64794,0.02439 2.43456,0.268746"
     id="path9915"
     inkscape:connector-curvature="0"
     sodipodi:nodetypes="csssssssc" />
  <path
     style="fill:none;fill-rule:evenodd;stroke:#000000;stroke-width:1px;stroke-linecap:round;stroke-linejoin:round;stroke-opacity:1"
     d="m 287.65459,29.733295 c 1.85552,0.746129 4.07659,1.387635 6.13042,1.179844 1.97116,-0.199426 3.93898,-0.08843 5.89507,-0.704196 1.66763,-0.524958 2.30071,-2.104679 3.54694,-2.874699 0.68652,-0.424184 2.76343,0.979102 2.02559,1.481043 -1.52332,1.036294 -4.09145,2.888385 -5.7701,3.626589 -2.788,1.226048 -5.93941,0.97562 -8.92413,0.979648 -2.13363,0.0029 -2.29659,-2.469655 -2.90379,-3.688229 z"
     id="path9944"
     inkscape:connector-curvature="0"
     sodipodi:nodetypes="cssssssc" />
  <path
     style="fill:none;fill-rule:evenodd;stroke:#000000;stroke-width:1px;stroke-linecap:round;stroke-linejoin:round;stroke-opacity:1"
     d="m 310.28509,38.214977 c -1.98065,-0.1394 -3.59166,-0.173525 -5.5646,-0.03791 -1.73315,0.11913 -3.44129,0.121709 -5.18764,0.01593 -2.1011,-0.127267 -4.20471,0.08226 -6.30636,0.168599 -2.27691,0.09353 -4.54395,0.548593 -6.81989,0.435521 -1.30993,-0.06508 -4.09631,1.219126 -3.78246,-0.46412 0.40238,-2.158058 3.14636,-2.572701 5.10322,-2.600349 2.38306,-0.03367 4.76619,-0.26761 7.14512,0.04586 2.2733,0.299551 4.57181,0.139293 6.83013,-0.136162 1.80556,-0.22023 3.41413,-0.329449 5.20239,-0.271776 1.38151,0.04456 2.4687,-0.09856 4.34575,-0.117472 0.35191,-0.0035 0.66687,0.204576 1.01213,0.261444"
     id="path9946"
     inkscape:connector-curvature="0"
     sodipodi:nodetypes="cssssssssssc" />
  <path
     style="fill:none;fill-rule:evenodd;stroke:#000000;stroke-width:1px;stroke-linecap:round;stroke-linejoin:round;stroke-opacity:1"
     d="m 298.98886,32.738017 c -0.0403,1.001522 0.20815,1.989007 0.53248,2.928653"
     id="path9948"
     inkscape:connector-curvature="0"
     sodipodi:nodetypes="cc" />
  <path
     style="fill:none;fill-rule:evenodd;stroke:#000000;stroke-width:1px;stroke-linecap:round;stroke-linejoin:round;stroke-opacity:1"
     d="m 296.25038,33.422637 c -0.11867,0.780486 0.0178,1.578141 0.26624,2.320102"
     id="path9950"
     inkscape:connector-curvature="0"
     sodipodi:nodetypes="cc" />
  <path
     style="fill:none;fill-rule:evenodd;stroke:#000000;stroke-width:1px;stroke-linecap:round;stroke-linejoin:round;stroke-opacity:1"
     d="m 300.32006,38.367116 c 0.17492,1.838275 1.94722,2.888808 3.73494,2.840255 2.92234,-0.07937 5.50067,-1.807888 7.22813,-3.957974 1.01711,-1.265947 1.30471,-2.975665 1.8722,-4.492428 0.8424,-2.251541 0.84383,-4.855927 -0.12493,-7.056884 -0.75669,-1.719151 -3.24226,-2.122569 -4.60654,-0.793425 -0.28739,0.279984 -0.50973,0.602267 -0.80114,0.871052"
     id="path9952"
     inkscape:connector-curvature="0"
     sodipodi:nodetypes="csssssc" />
  <path
     style="fill:none;fill-rule:evenodd;stroke:#000000;stroke-width:1px;stroke-linecap:round;stroke-linejoin:round;stroke-opacity:1"
     d="m 304.96027,23.875989 c 2.16879,-1.442585 4.90401,-2.775546 6.96437,-2.772088 2.16683,0.0036 3.49024,2.451779 4.45696,4.263067 1.03342,1.93625 0.61627,4.274489 -0.23449,6.260937 -1.03402,2.414333 -1.413,5.112361 -3.02571,7.284519 -1.01243,1.363632 -1.95559,2.797508 -3.44486,3.752586 -1.70137,1.091094 -3.68686,1.365743 -5.59559,1.50683 -2.47373,0.182849 -4.68846,-1.392438 -6.34667,-3.171358 -0.72867,-0.781721 -0.38914,-1.91973 -0.68518,-2.823533"
     id="path9954"
     inkscape:connector-curvature="0"
     sodipodi:nodetypes="csssssssc" />
  <path
     style="fill:none;fill-rule:evenodd;stroke:#000000;stroke-width:1px;stroke-linecap:round;stroke-linejoin:round;stroke-opacity:1"
     d="m 298.79868,30.341846 c 0.0959,-1.616675 0.0763,-4.093016 2.00389,-4.451142 1.76037,-0.327055 3.38144,1.136577 4.71853,2.196605 1.59138,1.261625 3.70183,1.424412 5.64285,1.60346 0.76937,0.07097 1.54364,0.06789 2.31603,0.08056"
     id="path9956"
     inkscape:connector-curvature="0"
     sodipodi:nodetypes="csssc" />
  <path
     style="fill:none;fill-rule:evenodd;stroke:#000000;stroke-width:1px;stroke-linecap:round;stroke-linejoin:round;stroke-opacity:1"
     d="m 295.60379,30.532019 c 0.13216,-2.181716 0.50226,-4.610875 2.02205,-6.238394 1.35139,-1.447177 3.58252,-2.169903 5.50832,-1.232078 1.70793,0.831722 3.26895,1.889962 4.84269,2.945785 1.64372,1.102773 3.69857,1.080727 5.5792,1.405861"
     id="path9958"
     inkscape:connector-curvature="0"
     sodipodi:nodetypes="csssc" />
  <path
     style="fill:none;fill-rule:evenodd;stroke:#000000;stroke-width:1px;stroke-linecap:round;stroke-linejoin:round;stroke-opacity:1"
     d="m 316.90309,29.467054 c 4.04215,-0.48835 8.10837,0.06874 12.11182,0.192437 5.49118,0.169659 11.00782,0.557604 16.48844,0.508055 1.63593,-0.01479 7.43232,0.30656 6.15299,-1.508366 -0.76883,-1.090703 -5.67487,-1.4121 -8.28291,-1.43723 -3.76639,-0.03629 -7.49141,-0.26081 -11.26722,0.01231 -4.88935,0.353667 -9.75163,0.0094 -14.69008,0.09526 l -0.43698,0.0076"
     id="path9976"
     inkscape:connector-curvature="0"
     sodipodi:nodetypes="cssssssc" />
  <path
     style="fill:none;fill-rule:evenodd;stroke:#000000;stroke-width:1px;stroke-linecap:round;stroke-linejoin:round;stroke-opacity:1"
     d="m 315.1535,35.058119 c 3.83093,0.07713 7.65495,0.437954 11.47297,0.867904 2.87068,0.32327 5.7649,0.432983 8.6071,-0.186595 3.47542,-0.757614 7.04165,0.01959 10.53228,0.36095 4.38748,0.429071 8.76975,0.518281 13.1522,1.052881 2.76564,0.337371 9.17366,-0.899491 9.07597,1.963744 -0.0625,1.833227 -6.54286,0.746202 -9.56837,0.876661 -3.93139,0.169519 -7.86415,-0.27097 -11.79986,-0.224987 -5.12935,0.05993 -9.0242,-0.65322 -13.54954,-0.916242 -4.58398,-0.266431 -9.01427,-0.363137 -13.7331,-0.43246 -1.87019,-0.02748 -3.72508,-0.160664 -5.59692,-0.319097"
     id="path9980"
     inkscape:connector-curvature="0"
     sodipodi:nodetypes="csssssssssc" />
  <path
     style="fill:none;fill-rule:evenodd;stroke:#000000;stroke-width:1px;stroke-linecap:round;stroke-linejoin:round;stroke-opacity:1"
     d="m 302.3996,58.688159 c -1.98046,2.090231 -4.53597,3.666993 -7.25649,4.525999 -1.98535,0.626878 -4.22948,0.25918 -6.06834,-0.777791 -1.57722,-0.889427 -5.01929,0.891216 -2.89654,2.488856 1.77535,1.336175 3.95443,0.78954 6.03635,0.827541 3.65238,0.06667 7.19539,-1.508669 9.9734,-3.890098 0.73802,-0.632661 1.56262,-1.159537 2.28945,-1.806184"
     id="path9988"
     inkscape:connector-curvature="0"
     sodipodi:nodetypes="csssssc" />
  <path
     style="fill:none;fill-rule:evenodd;stroke:#000000;stroke-width:1px;stroke-linecap:round;stroke-linejoin:round;stroke-opacity:1"
     d="m 297.12902,62.286345 c 0.53985,-1.799836 1.75607,-4.221317 3.8926,-4.017453 2.30638,0.220071 3.9732,2.229553 6.13477,3.002353 2.47631,0.885324 4.96987,1.805629 7.60881,2.028647"
     id="path9990"
     inkscape:connector-curvature="0"
     sodipodi:nodetypes="cssc" />
  <path
     style="fill:none;fill-rule:evenodd;stroke:#000000;stroke-width:1px;stroke-linecap:round;stroke-linejoin:round;stroke-opacity:1"
     d="m 294.29101,63.451954 c 0.467,-3.831074 2.56445,-6.992894 5.91884,-7.476816 1.93643,-0.27936 3.90507,0.357077 5.70767,1.027823 2.3269,0.86584 3.98969,2.97412 6.41054,3.718553 0.8728,0.268394 1.77524,0.472669 2.69053,0.449896"
     id="path9992"
     inkscape:connector-curvature="0"
     sodipodi:nodetypes="csssc" />
  <path
     style="fill:none;fill-rule:evenodd;stroke:#000000;stroke-width:1px;stroke-linecap:round;stroke-linejoin:round;stroke-opacity:1"
     d="m 296.57155,65.12435 c 0.0205,1.714406 0.006,4.193368 1.26697,5.878725"
     id="path9994"
     inkscape:connector-curvature="0"
     sodipodi:nodetypes="cc" />
  <path
     style="fill:none;fill-rule:evenodd;stroke:#000000;stroke-width:1px;stroke-linecap:round;stroke-linejoin:round;stroke-opacity:1"
     d="m 294.0883,65.783172 c 0.0634,2.129946 0.60627,3.429269 0.96289,5.523975"
     id="path9996"
     inkscape:connector-curvature="0"
     sodipodi:nodetypes="cc" />
  <path
     style="fill:none;fill-rule:evenodd;stroke:#000000;stroke-width:1px;stroke-linecap:round;stroke-linejoin:round;stroke-opacity:1"
     d="m 311.57244,70.293574 c -2.38813,0.17131 -5.7937,0.434789 -8.24728,0.81413 -2.78427,0.430468 -5.44456,-0.280343 -8.20297,0.308233 -2.28882,0.488378 -4.66219,0.375066 -6.99939,0.530535 -3.01527,0.200574 -6.40737,-0.196228 -9.06769,0.951002 -1.97141,0.850147 1.12014,1.555863 2.15311,1.640309 2.53459,0.207205 4.45823,-0.04608 6.98628,0.235646 2.6626,0.296717 5.29381,-0.461406 7.96569,-0.285902 2.8528,0.187388 5.69375,-0.157967 8.4973,-0.690439 1.53009,-0.290606 3.06573,-0.616781 4.63441,-0.513505"
     id="path9998"
     inkscape:connector-curvature="0"
     sodipodi:nodetypes="cssssssssc" />
  <path
     style="fill:none;fill-rule:evenodd;stroke:#000000;stroke-width:1px;stroke-linecap:round;stroke-linejoin:round;stroke-opacity:1"
     d="m 300.82856,74.60126 c 1.36316,2.011473 4.37346,2.505507 6.37982,0.935236 2.09522,-1.639817 3.62323,-3.785889 4.81655,-6.033134 1.4639,-2.756801 3.46356,-5.743164 2.94972,-9.065885 -0.22192,-1.435056 -0.87209,-3.020396 -1.36616,-3.68366 -1.5792,-2.120011 -4.91469,-0.769562 -6.34374,0.87009"
     id="path10000"
     inkscape:connector-curvature="0"
     sodipodi:nodetypes="cssssc" />
  <path
     style="fill:none;fill-rule:evenodd;stroke:#000000;stroke-width:1px;stroke-linecap:round;stroke-linejoin:round;stroke-opacity:1"
     d="m 304.42675,56.356941 c 1.83643,-1.210542 3.86294,-2.6931 6.26653,-2.865366 2.60382,-0.186617 5.06023,1.319107 6.12251,3.800235 1.13271,2.645613 1.10682,5.641408 -0.113,8.266609 -1.24405,2.677348 -2.71318,5.207704 -4.43801,7.584601 -1.43134,1.972465 -2.54964,4.481372 -4.82684,5.54662 -3.0491,1.426337 -7.28738,1.067425 -9.50224,-1.792687 -0.61984,-0.80042 -1.29914,-1.368393 -1.71895,-2.295689"
     id="path10002"
     inkscape:connector-curvature="0"
     sodipodi:nodetypes="cssssssc" />
  <path
     style="fill:none;fill-rule:evenodd;stroke:#000000;stroke-width:1px;stroke-linecap:round;stroke-linejoin:round;stroke-opacity:1"
     d="m 314.35977,70.242895 c 2.02231,0.05312 7.20637,0.04663 12.56824,-0.153918 6.8591,-0.256554 14.00919,-0.637153 15.20367,0.457988 1.03986,0.95338 1.76379,2.168464 2.81259,3.091774 0.23238,0.204573 0.41238,0.471095 0.5322,0.759805"
     id="path10036"
     inkscape:connector-curvature="0"
     sodipodi:nodetypes="csssc" />
  <path
     style="fill:none;fill-rule:evenodd;stroke:#000000;stroke-width:1px;stroke-linecap:round;stroke-linejoin:round;stroke-opacity:1"
     d="m 312.18058,73.334294 c 8.05059,0.292376 22.40922,-1.559332 27.99808,-0.407868 1.25663,0.258901 1.73608,1.714157 2.51048,2.637733"
     id="path10038"
     inkscape:connector-curvature="0"
     sodipodi:nodetypes="csc" />
  <path
     style="fill:none;fill-rule:evenodd;stroke:#000000;stroke-width:1px;stroke-linecap:round;stroke-linejoin:round;stroke-opacity:1"
     d="m 317.70456,61.019378 c 6.31497,0.215883 12.62061,1.024021 18.94627,0.655086 m -1.44469,2.729333 c -1.86052,-0.04319 -3.74092,0.412928 -5.59047,0.103063 -1.63645,-0.274165 -3.27863,-0.321515 -4.92331,-0.303616 -2.43197,0.02647 -4.81605,-0.509767 -7.24119,-0.497897"
     id="path10042"
     inkscape:connector-curvature="0"
     sodipodi:nodetypes="cccssc" />
  <path
     style="fill:none;fill-rule:evenodd;stroke:#000000;stroke-width:1px;stroke-linecap:round;stroke-linejoin:round;stroke-opacity:1"
     d="m 338.98959,64.617563 c 2.16717,-0.0076 4.77805,0.332472 7.01244,0.233247 4.30372,-0.19112 7.99177,0.774403 12.29842,1.048449 4.16566,0.265075 10.87093,1.132106 15.34628,1.315571 2.40691,0.09867 5.20675,-0.242908 7.56631,-0.291082 1.2789,-0.02611 1.67559,-2.582802 0.17778,-2.814815 -2.72074,-0.421443 -6.00198,-0.272012 -9.00528,-0.410049 -4.82094,-0.221579 -9.62799,-0.741183 -14.45059,-0.723429 -4.80858,0.0177 -9.56973,-0.667134 -14.37292,-0.743584 -0.91606,-0.01458 -1.83177,-0.05694 -2.748,-0.04688"
     id="path10052"
     inkscape:connector-curvature="0"
     sodipodi:nodetypes="cssssssssc" />
  <path
     style="fill:none;fill-rule:evenodd;stroke:#000000;stroke-width:1px;stroke-linecap:round;stroke-linejoin:round;stroke-opacity:1"
     d="m 337.62127,69.68543 c 0.083,-2.240157 0.56633,-4.540288 2.00371,-6.398226 1.53083,-1.978727 3.82779,-3.267142 6.23315,-3.565142 1.91737,-0.237544 3.91489,0.742165 5.07401,2.258056 0.11691,0.152895 0.19744,0.331038 0.27102,0.508942"
     id="path10056"
     inkscape:connector-curvature="0"
     sodipodi:nodetypes="csssc" />
  <path
     style="fill:none;fill-rule:evenodd;stroke:#000000;stroke-width:1px;stroke-linecap:round;stroke-linejoin:round;stroke-opacity:1"
     d="m 354.64931,62.691774 c -1.3376,-2.590409 -3.26271,-5.473727 -6.42231,-5.842895 -1.97956,-0.231292 -4.00874,0.04688 -5.89685,0.603106 -3.00367,0.884861 -4.8391,3.702089 -6.38824,6.296847 -1.09831,1.839639 -0.9725,3.980364 -1.05728,5.987279"
     id="path10058"
     inkscape:connector-curvature="0"
     sodipodi:nodetypes="csssc" />
  <path
     style="fill:none;fill-rule:evenodd;stroke:#000000;stroke-width:1px;stroke-linecap:round;stroke-linejoin:round;stroke-opacity:1"
     d="m 337.67195,72.776828 c 0.12215,2.059227 2.30908,3.453926 4.37325,2.94709 2.20109,-0.540456 4.08467,-1.686984 6.01184,-2.742404 1.84485,-1.010334 5.23761,-1.90079 6.42172,-1.635542"
     id="path10060"
     inkscape:connector-curvature="0"
     sodipodi:nodetypes="cssc" />
  <path
     style="fill:none;fill-rule:evenodd;stroke:#000000;stroke-width:1px;stroke-linecap:round;stroke-linejoin:round;stroke-opacity:1"
     d="m 334.83395,73.030222 c 0.58734,3.317561 4.22944,5.039 7.37636,4.874579 2.74066,-0.143194 5.10882,-1.59501 7.32293,-3.051702 1.15431,-0.759434 2.77491,-1.310307 4.05181,-0.454553"
     id="path10062"
     inkscape:connector-curvature="0"
     sodipodi:nodetypes="cssc" />
  <path
     style="fill:none;fill-rule:evenodd;stroke:#000000;stroke-width:1px;stroke-linecap:round;stroke-linejoin:round;stroke-opacity:1"
     d="m 352.87555,65.479101 c 0.65952,1.830481 1.31066,3.652396 1.84533,5.536538 0.68116,2.400374 -1.48031,4.706396 -3.47305,5.896886 -1.1273,0.673467 -2.76047,0.369822 -3.59218,-0.689547"
     id="path10064"
     inkscape:connector-curvature="0"
     sodipodi:nodetypes="cssc" />
  <path
     style="fill:none;fill-rule:evenodd;stroke:#000000;stroke-width:1px;stroke-linecap:round;stroke-linejoin:round;stroke-opacity:1"
     d="m 344.61493,77.64198 c 2.45635,2.274006 6.70325,3.536752 9.47607,1.24958 1.54828,-1.277103 1.9767,-3.407955 2.5042,-5.262849 0.73403,-2.581151 -0.0677,-5.315468 -0.78028,-7.845538"
     id="path10066"
     inkscape:connector-curvature="0"
     sodipodi:nodetypes="cssc" />
  <path
     style="fill:none;fill-rule:evenodd;stroke:#000000;stroke-width:1px;stroke-linecap:round;stroke-linejoin:round;stroke-opacity:1"
     d="m 357.08188,71.915291 c 3.72322,0.515853 8.1711,0.649627 12.09802,0.956304 2.03156,0.158657 3.08513,1.980137 0.42699,2.105558 -2.23914,0.105651 -4.31931,-0.307395 -6.5804,-0.4712 -2.11069,-0.15291 -4.21814,-0.488705 -6.29936,-0.563511"
     id="path10068"
     inkscape:connector-curvature="0"
     sodipodi:nodetypes="csssc" />
  <path
     style="fill:none;fill-rule:evenodd;stroke:#000000;stroke-width:1px;stroke-linecap:round;stroke-linejoin:round;stroke-opacity:1"
     d="m 332.95884,93.301688 c -1.32995,-1.218146 -2.5706,-0.143149 -3.14567,1.043774 -1.10161,2.273677 -2.50218,5.719848 -1.34659,8.072158 0.89192,1.81558 3.97271,0.39511 4.11953,-1.45578 0.14418,-1.817629 -0.18208,-3.66267 0.31746,-5.467196 0.45944,-1.659688 0.37335,-4.012935 2.18869,-4.750018 1.7072,-0.693176 2.00914,1.724638 1.90763,2.996202 -0.18915,2.369377 -0.28429,4.912417 -1.53209,6.971862 -0.5845,0.9647 -1.99092,1.9261 -3.11711,1.20435"
     id="path10098"
     inkscape:connector-curvature="0"
     sodipodi:nodetypes="csssssssc" />
  <path
     style="fill:none;fill-rule:evenodd;stroke:#000000;stroke-width:1px;stroke-linecap:round;stroke-linejoin:round;stroke-opacity:1"
     d="m 337.41856,92.49083 c 2.70233,-0.169441 5.3598,-0.814934 8.05069,-1.011968 1.97058,-0.144291 3.92916,-1.867914 5.83652,-0.75349 1.15175,0.672941 0.5163,2.106017 -1.03495,2.347732 -0.27236,0.04244 -0.57658,0.03517 -0.79074,0.228585"
     id="path10106"
     inkscape:connector-curvature="0"
     sodipodi:nodetypes="csssc" />
  <path
     style="fill:none;fill-rule:evenodd;stroke:#000000;stroke-width:1px;stroke-linecap:round;stroke-linejoin:round;stroke-opacity:1"
     d="m 336.91177,95.12612 c 3.57097,-0.815382 7.23122,-1.139121 10.88351,-1.411084 1.70769,-0.127161 3.32739,-0.774156 5.02098,-1.065392 2.33615,-0.401732 5.00034,-1.166593 7.11527,-0.765885 2.01478,0.381732 -0.30259,2.539402 -1.54703,2.812909 -1.9973,0.438973 -3.99043,0.682513 -6.00463,0.933835 -2.12881,0.265623 -4.18722,0.853549 -6.27839,1.315915 -1.79438,0.396743 -3.66773,0.273256 -5.49521,0.353825 -1.33223,0.05873 -2.6155,0.152623 -3.89721,0.613208"
     id="path10108"
     inkscape:connector-curvature="0"
     sodipodi:nodetypes="csssssssc" />
  <path
     style="fill:none;fill-rule:evenodd;stroke:#000000;stroke-width:1px;stroke-linecap:round;stroke-linejoin:round;stroke-opacity:1"
     d="m 329.56337,94.112547 c -2.15024,-0.156949 -4.26029,0.112387 -6.40961,0.04418 -3.61632,-0.114761 -7.20381,0.652642 -10.81841,0.761135 -3.30214,0.09911 -6.49783,0.342421 -9.80565,0.367362 -3.94479,0.02974 -8.0693,-0.490043 -12.01907,-0.546061 -1.73365,-0.02459 -4.52952,-0.566837 -4.5553,1.756919 -0.0271,2.44702 3.89,2.001347 5.88643,2.035001 4.32433,0.0729 8.23103,-0.340141 12.33221,-0.133993 2.42869,0.122079 4.78606,0.02413 7.19277,0.0018 2.69972,-0.02505 5.37825,-0.07234 8.07448,-0.191474 3.02241,-0.133549 5.98743,-0.950543 9.00726,-0.902087"
     id="path10114"
     inkscape:connector-curvature="0"
     sodipodi:nodetypes="csssssssssc" />
  <path
     style="fill:none;fill-rule:evenodd;stroke:#000000;stroke-width:1px;stroke-linecap:round;stroke-linejoin:round;stroke-opacity:1"
     d="m 311.87651,98.369555 c -2.47297,0.991946 -1.08869,2.577555 0.90062,2.223945 2.07808,-0.3694 4.99099,0.17807 7.08031,-0.0466 2.69753,-0.29006 5.78717,-0.684608 8.08421,-0.3526"
     id="path10116"
     inkscape:connector-curvature="0"
     sodipodi:nodetypes="cssc" />
  <path
     style="fill:none;fill-rule:evenodd;stroke:#000000;stroke-width:1px;stroke-linecap:round;stroke-linejoin:round;stroke-opacity:1"
     d="m 131.04288,124.83399 c -3.07641,-0.22997 -6.18978,0.0363 -9.23457,0.0506 -0.72299,0.003 -1.56565,0.69772 -1.51971,1.47354 0.0478,0.80778 1.08045,0.70515 1.67711,0.64771 0.67692,-0.0652 1.34232,0.0159 2.01442,0.11201 1.86798,0.26725 3.77811,0.29276 5.65721,0.0588"
     id="path10122"
     inkscape:connector-curvature="0"
     sodipodi:nodetypes="cssssc" />
  <path
     style="fill:none;fill-rule:evenodd;stroke:#000000;stroke-width:1px;stroke-linecap:round;stroke-linejoin:round;stroke-opacity:1"
     d="m 123.87464,127.1297 c -0.61316,0.52573 -0.52732,1.51036 0.10832,2.00952 0.63474,0.49845 1.39641,0.29521 2.10919,0.30588 0.79437,0.0119 1.8458,-0.1252 2.60822,-0.39445"
     id="path10124"
     inkscape:connector-curvature="0"
     sodipodi:nodetypes="cssc" />
  <path
     style="fill:none;fill-rule:evenodd;stroke:#000000;stroke-width:1px;stroke-linecap:round;stroke-linejoin:round;stroke-opacity:1"
     d="m 135.21263,122.91309 c 0.14982,-0.91504 -1.00811,-2.01545 -1.78533,-1.03452 -0.48679,0.61438 -0.93455,1.26088 -1.35781,1.93017 -0.44244,0.69961 -0.70686,1.51 -1.18447,2.17599 -0.59317,0.82713 -1.32339,1.56717 -1.67142,2.56289 -0.21923,0.6272 -0.75961,1.54488 -0.29747,2.05343 0.55398,0.60963 1.58041,-0.50304 1.92846,-1.01317 0.48723,-0.71414 0.83773,-1.51112 1.44637,-2.14877 0.95604,-1.0016 1.58899,-2.26175 2.37734,-3.39278 0.80288,-1.15187 1.04372,-2.73071 2.26348,-3.51746 0.81036,-0.52269 1.28498,0.63422 1.00471,1.35645 -0.28103,0.72418 -0.87259,1.21389 -1.18669,1.91452 -0.70574,1.57422 -1.26728,3.25105 -2.36656,4.60841 -0.56251,0.69457 -1.12686,1.43128 -1.93379,1.87076 -0.58103,0.31644 -1.47723,0.20295 -1.57819,-0.54299 -0.01,-0.0702 0.0688,-0.066 0.1248,-0.0763"
     id="path10126"
     inkscape:connector-curvature="0"
     sodipodi:nodetypes="cssssssssssssssc" />
  <path
     style="fill:none;fill-rule:evenodd;stroke:#000000;stroke-width:1px;stroke-linecap:round;stroke-linejoin:round;stroke-opacity:1"
     d="m 134.65042,128.58209 c 2.77072,0.4044 6.18278,0.0457 8.04626,0.35786 2.94451,0.49329 4.91551,2.50655 6.96155,4.63874 0.8425,0.87797 1.8347,1.92206 2.74881,2.73384 m 2.71737,-0.84332 c -3.1908,-2.6806 -6.83016,-7.22611 -8.92376,-7.99733 -2.36687,-0.87189 -5.77446,-0.14031 -8.6321,-0.39824 -0.73627,-0.0665 -1.48316,-0.0622 -2.21536,0.0561"
     id="path10137"
     inkscape:connector-curvature="0"
     sodipodi:nodetypes="cssccssc" />
  <path
     style="fill:none;fill-rule:evenodd;stroke:#000000;stroke-width:1px;stroke-linecap:round;stroke-linejoin:round;stroke-opacity:1"
     d="m 136.29022,125.2088 c 3.65615,0.42886 7.56779,-0.0503 11.23939,-0.77132 2.57128,-0.50495 5.13849,-1.77218 6.65777,-4.2417 m 3.27959,0.32796 c -1.17586,2.97941 -4.5276,3.99664 -7.09476,5.4084 -1.55707,0.85628 -4.07333,1.07362 -5.83618,1.10392"
     id="path10139"
     inkscape:connector-curvature="0"
     sodipodi:nodetypes="csccsc" />
  <path
     style="fill:none;fill-rule:evenodd;stroke:#000000;stroke-width:1px;stroke-linecap:round;stroke-linejoin:round;stroke-opacity:1"
     d="m 141.16274,124.97454 c 1.28074,-1.90189 2.9713,-3.58602 5.16365,-4.42759 1.46214,-0.56127 2.59035,-1.39882 4.14576,-1.17614 2.46333,0.35265 4.26342,0.69563 6.49518,1.03458 2.29343,0.34832 4.28508,1.2661 5.58318,2.9567 1.58895,2.06938 5.95294,3.2156 7.52778,3.32407"
     id="path10149"
     inkscape:connector-curvature="0"
     sodipodi:nodetypes="cssssc" />
  <path
     style="fill:none;fill-rule:evenodd;stroke:#000000;stroke-width:1px;stroke-linecap:round;stroke-linejoin:round;stroke-opacity:1"
     d="m 138.72648,125.2088 c 0.68184,-1.6665 1.59182,-3.26 3.01424,-4.45258 2.23752,-1.87598 4.97903,-3.01212 7.92648,-3.16371 2.35269,-0.121 4.66883,-0.22644 7.15592,0.31623 1.73035,0.37755 3.70888,0.51501 5.10658,1.66687 1.3814,1.13842 3.1091,1.76987 4.57948,2.77996 1.10158,0.75674 2.57348,0.83127 3.46707,1.86935"
     id="path10151"
     inkscape:connector-curvature="0"
     sodipodi:nodetypes="csssssc" />
  <path
     style="fill:none;fill-rule:evenodd;stroke:#000000;stroke-width:1px;stroke-linecap:round;stroke-linejoin:round;stroke-opacity:1"
     d="m 141.4907,129.238 c -0.30007,1.9716 1.30413,3.46696 2.60338,4.6495 2.734,2.48842 6.8747,3.16109 10.4082,2.07361 1.5835,-0.48734 3.22641,-0.0908 4.81629,-0.48352 1.85455,-0.4581 3.25098,-1.79007 4.80339,-2.80481 1.47534,-0.96437 2.71686,-2.14945 4.13388,-3.13782 0.65595,-0.45752 1.24798,-1.02966 2.00151,-1.32765"
     id="path10153"
     inkscape:connector-curvature="0"
     sodipodi:nodetypes="csssssc" />
  <path
     style="fill:none;fill-rule:evenodd;stroke:#000000;stroke-width:1px;stroke-linecap:round;stroke-linejoin:round;stroke-opacity:1"
     d="m 138.44537,129.09745 c 0.28935,3.29752 3.02506,5.75866 5.82158,7.16297 2.79747,1.40479 5.3383,2.34822 7.87941,2.48381 1.91655,0.10227 4.7432,-0.28639 6.55347,-0.82407 1.49575,-0.44426 2.94799,-0.81375 4.31731,-1.54477 1.95494,-1.04365 3.78835,-2.28666 5.39076,-3.81632 0.68245,-0.65147 1.43443,-1.24088 1.99001,-2.00886"
     id="path10155"
     inkscape:connector-curvature="0"
     sodipodi:nodetypes="csssssc" />
  <path
     style="fill:none;fill-rule:evenodd;stroke:#000000;stroke-width:1px;stroke-linecap:round;stroke-linejoin:round;stroke-opacity:1"
     d="m 160.606,118.83703 c 2.52656,-0.97128 8.52872,1.28141 9.36612,5.17758 0.49396,2.29828 0.35538,4.69537 0.35905,7.01448 0.005,2.85525 -2.08044,5.07125 -4.29121,6.56981 -1.95023,1.32196 -5.33563,2.85727 -7.21426,0.40028"
     id="path10169"
     inkscape:connector-curvature="0"
     sodipodi:nodetypes="csssc" />
  <path
     style="fill:none;fill-rule:evenodd;stroke:#000000;stroke-width:1px;stroke-linecap:round;stroke-linejoin:round;stroke-opacity:1"
     d="m 156.20199,117.75945 c 1.48677,-1.47532 5.03332,-2.12263 7.63511,-1.16864 2.8399,1.04129 6.59793,1.74277 7.62787,5.12446 1.11838,3.67206 1.82246,8.42003 0.44334,12.22148 -0.92719,2.55572 -2.40467,4.69356 -4.89746,6.15084 -1.8521,1.08273 -4.51948,2.94747 -7.05248,2.15123 -1.83474,-0.57674 -3.20785,-2.07005 -4.3186,-3.58372"
     id="path10171"
     inkscape:connector-curvature="0"
     sodipodi:nodetypes="csssssc" />
  <path
     style="fill:none;fill-rule:evenodd;stroke:#000000;stroke-width:1px;stroke-linecap:round;stroke-linejoin:round;stroke-opacity:1"
     d="m 172.64677,125.06824 c 0.81046,0.7577 1.99287,0.59524 2.97006,0.97361 0.30394,0.11769 0.64564,-0.0579 0.96544,0.0103"
     id="path10181"
     inkscape:connector-curvature="0"
     sodipodi:nodetypes="csc" />
  <path
     style="fill:none;fill-rule:evenodd;stroke:#000000;stroke-width:1px;stroke-linecap:round;stroke-linejoin:round;stroke-opacity:1"
     d="m 172.83417,128.25413 c 0.91899,0.10019 1.8434,0.01 2.76422,0"
     id="path10183"
     inkscape:connector-curvature="0"
     sodipodi:nodetypes="cc" />
  <path
     style="fill:none;fill-rule:evenodd;stroke:#000000;stroke-width:1px;stroke-linecap:round;stroke-linejoin:round;stroke-opacity:1"
     d="m 172.69362,130.78409 c 0.79783,-0.1997 1.61187,-0.35534 2.43626,-0.37481"
     id="path10185"
     inkscape:connector-curvature="0"
     sodipodi:nodetypes="cc" />
  <path
     style="fill:none;fill-rule:evenodd;stroke:#000000;stroke-width:1px;stroke-linecap:round;stroke-linejoin:round;stroke-opacity:1"
     d="m 181.68905,125.58361 c 0.30274,-0.72906 0.43632,-2.36368 -0.0741,-3.08539 -0.53874,-0.76171 -1.43685,-0.35659 -1.96932,0.13835 -0.86302,0.80219 -1.64296,1.66943 -2.35648,2.60149 -0.46969,0.61354 -0.99409,1.20088 -1.17175,1.97635 -0.21313,0.93029 -0.42088,1.85651 -0.72967,2.7703 -0.22047,0.65243 -0.0474,1.66959 0.67456,1.91759 1.06811,0.3669 2.13189,-0.44572 2.9131,-1.14641 0.6436,-0.57726 0.49668,-1.5176 1.02516,-2.1915 0.71034,-0.9058 0.91217,-2.1325 1.73979,-2.97792 0.53968,-0.55128 0.69189,-1.38601 1.32672,-1.87237 0.61457,-0.47084 1.57523,-0.88958 2.25583,-0.36338 0.64119,0.49574 0.23447,1.41051 0.14529,2.08052 -0.18482,1.38855 -0.7875,2.689 -1.65634,3.7732 -0.87579,1.09288 -1.63302,2.44583 -3.06029,2.92175 -0.71322,0.23782 -1.57702,-0.11954 -1.57673,-0.93896 8e-5,-0.21579 -0.0107,-0.43834 0.078,-0.63734"
     id="path10187"
     inkscape:connector-curvature="0"
     sodipodi:nodetypes="csssssssssssssssc" />
  <path
     style="fill:none;fill-rule:evenodd;stroke:#000000;stroke-width:1px;stroke-linecap:butt;stroke-linejoin:miter;stroke-opacity:1"
     d="m 185.67141,125.44305 c 2.02607,0.393 4.82706,-0.78807 6.27984,1.01022 0.24988,0.30931 0.0517,1.01648 -0.236,1.33234"
     id="path10209"
     inkscape:connector-curvature="0"
     sodipodi:nodetypes="csc" />
  <path
     style="fill:none;fill-rule:evenodd;stroke:#000000;stroke-width:1px;stroke-linecap:butt;stroke-linejoin:miter;stroke-opacity:1"
     d="m 185.3903,127.1297 c 2.22314,0.13228 4.30108,0.48946 6.65422,0.51649 2.49531,0.0287 5.62293,1.06502 8.26375,0.9578 2.50026,-0.10151 5.99296,0.23797 8.5293,0.26789 1.45266,0.0171 2.64931,1.49628 1.06286,2.20993 -2.34398,1.05441 -4.95389,0.75883 -7.46669,1.01513 -2.99062,0.30504 -5.95524,-0.46905 -8.89237,-1.27072 -2.00248,-0.54656 -4.11601,-0.16542 -6.16943,-0.62215 -1.35059,-0.3004 -2.75426,-0.26882 -4.1368,-0.31023"
     id="path10211"
     inkscape:connector-curvature="0"
     sodipodi:nodetypes="csssssssc" />
  <path
     style="fill:none;fill-rule:evenodd;stroke:#000000;stroke-width:1px;stroke-linecap:round;stroke-linejoin:round;stroke-opacity:1"
     d="m 127.38479,158.76859 c -0.46904,-1.88677 -2.09457,-0.025 -2.69647,0.85195 -1.12154,1.63415 -2.97504,3.56115 -2.15942,5.5356 0.72904,1.76486 2.67236,-0.30959 3.28393,-1.36278 0.80991,-1.39474 1.50083,-2.88767 1.59493,-4.52052 0.0921,-1.59844 1.86951,-3.60288 3.43428,-2.56138 1.50792,1.00367 -0.33637,2.73475 -0.71768,3.96268 -0.50468,1.62523 -1.01675,3.33968 -2.15935,4.62948 -0.99347,1.12146 -1.8706,0.0825 -1.69073,-1.14705 0.12245,-0.83699 0.13227,-1.52066 0.56069,-2.38211"
     id="path10219"
     inkscape:connector-curvature="0"
     sodipodi:nodetypes="cssssssssc" />
  <path
     style="fill:none;fill-rule:evenodd;stroke:#000000;stroke-width:1px;stroke-linecap:round;stroke-linejoin:round;stroke-opacity:1"
     d="m 154.10811,155.06618 c -1.75598,0.16775 -4.47623,-0.72248 -5.72698,0.7264 -1.49685,1.73397 -2.48183,3.28768 -3.80912,5.15308 -1.00301,1.40966 -2.1066,2.86544 -3.00758,4.36071 -1.08829,1.80612 1.90992,1.51289 2.82872,0.6206 1.57643,-1.53095 2.18794,-3.66652 3.14228,-5.55118 0.68033,-1.34355 1.8078,-2.59804 3.42713,-2.71689 0.76332,-0.056 1.51925,0.0671 2.26576,0.19324"
     id="path10221"
     inkscape:connector-curvature="0"
     sodipodi:nodetypes="cssssssc" />
  <path
     style="fill:none;fill-rule:evenodd;stroke:#000000;stroke-width:1px;stroke-linecap:round;stroke-linejoin:round;stroke-opacity:1"
     d="m 147.7297,160.85807 c 1.64259,0.4477 3.21688,-0.73876 4.42226,-1.68689 1.31197,-1.03197 2.42926,-2.7029 2.09658,-4.42784 -0.35227,-1.82652 2.15222,-2.92337 2.61892,-0.90731 0.37738,1.63023 -0.62407,3.34241 -1.51205,4.67598 -1.04533,1.56988 -2.48415,2.95008 -4.34812,3.55771 -1.39973,0.45629 -2.86582,1.56521 -4.37732,1.02445"
     id="path10223"
     inkscape:connector-curvature="0"
     sodipodi:nodetypes="csssssc" />
  <path
     style="fill:none;fill-rule:evenodd;stroke:#000000;stroke-width:1px;stroke-linecap:butt;stroke-linejoin:miter;stroke-opacity:1"
     d="m 176.98238,154.11309 c -1.31168,-1.90396 -3.57961,0.45532 -3.98393,1.93042 -0.51727,1.88718 -2.31912,4.05993 -1.47132,5.77516 1.12203,2.27005 2.96179,-1.07601 3.65162,-2.32884 0.98874,-1.79569 1.35126,-3.76255 2.16246,-5.69595 0.89341,-2.12934 3.56478,-1.60819 3.02127,0.61991 -0.55348,2.26899 -2.3272,3.97697 -3.03251,6.20964 -0.36419,1.15284 -2.76972,3.42737 -3.35351,1.11441"
     id="path10231"
     inkscape:connector-curvature="0"
     sodipodi:nodetypes="cssssssc" />
  <path
     style="fill:none;fill-rule:evenodd;stroke:#000000;stroke-width:1px;stroke-linecap:round;stroke-linejoin:round;stroke-opacity:1"
     d="m 180.2449,155.32279 c 1.61567,0.1755 3.47086,-0.0716 4.93504,0.70203 0.93254,0.49272 -0.0246,1.49189 -1.04935,1.49751"
     id="path10239"
     inkscape:connector-curvature="0"
     sodipodi:nodetypes="csc" />
  <path
     style="fill:none;fill-rule:evenodd;stroke:#000000;stroke-width:1px;stroke-linecap:round;stroke-linejoin:round;stroke-opacity:1"
     d="m 179.18183,157.63221 c 3.37123,0.25164 4.69674,-0.19101 7.0218,-0.31479 2.04284,-0.10876 4.72036,-0.14107 5.22596,0.34197 1.44117,1.37686 -1.08165,2.19637 -2.44776,2.25765 -3.74495,0.16798 -7.50179,0.77195 -11.22966,0.098"
     id="path10241"
     inkscape:connector-curvature="0"
     sodipodi:nodetypes="csssc" />
  <path
     style="fill:none;fill-rule:evenodd;stroke:#000000;stroke-width:1px;stroke-linecap:round;stroke-linejoin:round;stroke-opacity:1"
     d="m 157.26065,154.77292 c 5.63209,0.0202 10.59318,0.3837 15.57943,1.39299"
     id="path10253"
     inkscape:connector-curvature="0"
     sodipodi:nodetypes="cc" />
  <path
     style="fill:none;fill-rule:evenodd;stroke:#000000;stroke-width:1px;stroke-linecap:round;stroke-linejoin:round;stroke-opacity:1"
     d="m 156.71078,156.6058 c 4.66536,0.10269 10.25611,0.68817 15.39615,1.17304"
     id="path10255"
     inkscape:connector-curvature="0"
     sodipodi:nodetypes="cc" />
  <path
     style="fill:none;fill-rule:evenodd;stroke:#000000;stroke-width:1px;stroke-linecap:round;stroke-linejoin:round;stroke-opacity:1"
     d="m 155.3178,158.87856 c 5.82453,0.67352 11.03739,0.46863 16.23924,0.65985"
     id="path10257"
     inkscape:connector-curvature="0"
     sodipodi:nodetypes="cc" />
  <path
     style="fill:none;fill-rule:evenodd;stroke:#000000;stroke-width:1px;stroke-linecap:round;stroke-linejoin:round;stroke-opacity:1"
     d="m 129.21766,163.79067 c 1.992,-0.0371 3.98971,0.0799 5.97737,-0.009 0.83947,-0.0376 1.65339,-0.0836 2.46259,0.15396 1.37914,0.40479 2.84547,0.49264 4.2802,0.51436"
     id="path10271"
     inkscape:connector-curvature="0"
     sodipodi:nodetypes="cssc" />
  <path
     style="fill:none;fill-rule:evenodd;stroke:#000000;stroke-width:1px;stroke-linecap:round;stroke-linejoin:round;stroke-opacity:1"
     d="m 130.17076,161.37127 c 2.42151,-0.0218 4.8465,0.22616 7.1856,0.86689 1.16412,0.31888 2.37351,0.22482 3.55831,0.0227 0.86758,-0.148 1.75776,0.0176 2.63607,0.0268"
     id="path10273"
     inkscape:connector-curvature="0"
     sodipodi:nodetypes="cssc" />
  <path
     style="fill:none;fill-rule:evenodd;stroke:#000000;stroke-width:1px;stroke-linecap:round;stroke-linejoin:round;stroke-opacity:1"
     d="m 131.05054,159.13517 c 1.53224,0.0646 3.10239,-0.2667 4.59747,0.25537 1.40378,0.49019 2.85266,0.87986 4.35824,0.90994 0.94793,0.0189 1.8909,-0.0214 2.82769,-0.18009 0.66622,-0.11288 1.3294,0.16928 1.99982,0.18781"
     id="path10275"
     inkscape:connector-curvature="0"
     sodipodi:nodetypes="csssc" />
  <path
     style="fill:none;fill-rule:evenodd;stroke:#000000;stroke-width:1px;stroke-linecap:round;stroke-linejoin:round;stroke-opacity:1"
     d="m 122.83926,161.59122 c -2.12401,-0.008 -4.21134,0 -6.30509,0 -0.79999,0 -1.91413,-0.12433 -2.60268,0.21994 -0.61271,0.30636 -1.28301,0.22105 -1.28301,1.06307 0,0.0584 -0.0372,0.32942 0,0.36657 0.19261,0.19261 0.38515,0.3485 0.58652,0.54987 0.71387,0.71387 6.75015,0.23568 7.66141,-0.21995 0.29627,-0.14813 1.18072,0.0367 1.2097,0.0367"
     id="path10283"
     inkscape:connector-curvature="0" />
  <path
     style="fill:none;fill-rule:evenodd;stroke:#000000;stroke-width:1px;stroke-linecap:round;stroke-linejoin:round;stroke-opacity:1"
     d="m 117.56058,161.2613 c 0.17785,-0.63889 0.52611,-1.10618 1.09973,-1.39298 0.817,-0.40851 4.75981,-0.1974 5.57194,0.0733"
     id="path10285"
     inkscape:connector-curvature="0" />
  <path
     style="fill:none;fill-rule:evenodd;stroke:#000000;stroke-width:1px;stroke-linecap:round;stroke-linejoin:round;stroke-opacity:1"
     d="m 199.19519,214.18439 c -4.55911,-0.13644 -10.09273,-0.48632 -15.29352,-0.71993 -4.99345,-0.2243 -9.70301,-0.27023 -14.69247,0.2164 -3.63646,0.35466 -7.60892,4.34497 -8.33266,8.7049 -0.55978,3.37215 1.17322,7.2038 3.1456,9.52103 2.89866,3.40547 7.10301,4.66954 11.11592,5.68834 6.28274,1.59507 12.46522,-1.27308 18.70953,-1.90436 2.39473,-0.2421 4.4963,-1.62056 6.74972,-2.40873"
     id="path10287"
     inkscape:connector-curvature="0"
     sodipodi:nodetypes="cssssssc" />
  <path
     style="fill:none;fill-rule:evenodd;stroke:#000000;stroke-width:1px;stroke-linecap:round;stroke-linejoin:round;stroke-opacity:1"
     d="m 200.11382,231.00961 c -5.90797,1.12859 -11.8521,2.60608 -17.76479,2.9306 -3.77901,0.20742 -8.46425,1.14613 -12.03952,-1.44323 -3.27442,-2.37147 -6.05021,-3.43381 -4.74813,-9.38045 1.00272,-4.57946 4.07765,-6.3392 8.11859,-6.81624 3.68542,-0.43507 7.25836,0.36872 10.87897,0.29072 3.36641,-0.0725 6.47663,0.10454 9.99298,0.23964 1.72385,0.0662 3.27615,0.10285 4.98171,0.303"
     id="path10289"
     inkscape:connector-curvature="0"
     sodipodi:nodetypes="cssssssc" />
  <path
     style="fill:none;fill-rule:evenodd;stroke:#000000;stroke-width:1px;stroke-linecap:round;stroke-linejoin:round;stroke-opacity:1"
     d="m 199.63033,213.16908 c -0.1264,6.13692 0.25519,15.10903 1.11201,20.25795 1.90656,-0.37439 6.26334,-1.07501 7.97748,-1.4021 2.22179,-2.79095 9.17269,-6.90779 11.74864,-2.56246 0.29471,0.49714 5.82167,-0.68681 6.28529,-0.91862 0.48278,-0.24138 2.8077,0.0897 3.04595,-0.38679 0.13234,-0.26468 -0.11583,-0.83096 -0.19339,-1.06366 -0.23525,-0.70575 -0.12602,-2.47449 0.0967,-3.14264 0.14293,-0.42878 -0.14504,-1.01437 -0.14504,-1.45045 0,-0.69239 -0.171,-6.0091 -0.43514,-6.23694 -2.51182,-2.16661 -28.53947,-2.39038 -28.65415,-2.96375 -0.11468,-0.57337 -0.83324,-0.37854 -0.83835,-0.13054 z"
     id="path10297"
     inkscape:connector-curvature="0"
     sodipodi:nodetypes="sccssssssscs" />
  <path
     style="fill:none;fill-rule:evenodd;stroke:#000000;stroke-width:1px;stroke-linecap:round;stroke-linejoin:round;stroke-opacity:1"
     d="m 200.3072,213.31412 c 0.0535,2.0746 0.60007,17.29863 1.35376,19.72613"
     id="path10299"
     inkscape:connector-curvature="0"
     sodipodi:nodetypes="cc" />
  <path
     style="fill:none;fill-rule:evenodd;stroke:#000000;stroke-width:1px;stroke-linecap:round;stroke-linejoin:round;stroke-opacity:1"
     d="m 209.34835,231.63814 c 1.30753,-0.40327 3.02982,1.35376 3.62612,1.35376 0.2776,0 1.40578,-0.52815 0.91862,-1.01532 -0.6481,-0.6481 -1.98228,-1.30144 -1.98228,-2.36907"
     id="path10301"
     inkscape:connector-curvature="0" />
  <path
     style="fill:none;fill-rule:evenodd;stroke:#000000;stroke-width:1px;stroke-linecap:round;stroke-linejoin:round;stroke-opacity:1"
     d="m 218.24444,228.06037 c -0.75043,0.22104 -2.71689,2.21464 -1.69219,3.23934 0.0528,0.0528 0.95667,0.44543 1.16036,0.24174 0.72739,-0.72739 1.82967,-1.62521 2.75586,-1.93394"
     id="path10303"
     inkscape:connector-curvature="0" />
  <path
     style="fill:none;fill-rule:evenodd;stroke:#000000;stroke-width:1px;stroke-linecap:round;stroke-linejoin:round;stroke-opacity:1"
     d="m 229.60631,220.32463 c 1.90348,-1.47997 4.16435,-2.43708 6.59228,-2.78177 2.59818,-0.36886 5.37815,0.48532 6.82949,2.71252 0.67683,1.03865 0.86326,2.30023 1.12642,3.49588 0.29956,1.36103 2.47598,1.95806 2.41021,0.0906 -0.054,-1.53293 -0.66647,-4.01301 -1.5639,-5.22482 -0.95602,-1.29092 -2.41722,-2.21257 -3.86751,-2.89644 -1.3376,-0.63073 -3.76045,-0.75009 -5.24106,-0.61844 -2.71946,0.24181 -5.2894,1.51995 -6.41622,2.33174"
     id="path10305"
     inkscape:connector-curvature="0"
     sodipodi:nodetypes="csssssssc" />
  <path
     style="fill:none;fill-rule:evenodd;stroke:#000000;stroke-width:1px;stroke-linecap:round;stroke-linejoin:round;stroke-opacity:1"
     d="m 229.65465,224.72433 c 2.45367,1.59888 5.39694,2.24182 8.28995,2.50604 1.27514,0.11646 2.08903,-0.38773 3.16861,-0.81396"
     id="path10310"
     inkscape:connector-curvature="0"
     sodipodi:nodetypes="csc" />
  <path
     style="fill:none;fill-rule:evenodd;stroke:#000000;stroke-width:1px;stroke-linecap:round;stroke-linejoin:round;stroke-opacity:1"
     d="m 229.7997,227.38349 c 1.09769,0.79039 2.33257,1.10661 3.64154,1.55105 2.61838,0.88904 5.73858,1.97429 8.63176,1.08422 0.95599,-0.29411 1.62166,-1.02007 2.37625,-1.61993"
     id="path10312"
     inkscape:connector-curvature="0"
     sodipodi:nodetypes="cssc" />
  <path
     style="fill:none;fill-rule:evenodd;stroke:#000000;stroke-width:1px;stroke-linecap:round;stroke-linejoin:round;stroke-opacity:1"
     d="m 242.51531,219.8895 c -0.87616,2.2592 0.749,4.84632 3.03306,5.33796 1.56544,0.33696 3.16006,0.41084 4.76999,0.53539 1.98402,0.15349 3.8584,0.13428 5.79229,0.17093 1.54367,0.0292 3.08778,-0.11004 4.63199,-0.14582"
     id="path10322"
     inkscape:connector-curvature="0"
     sodipodi:nodetypes="csssc" />
  <path
     style="fill:none;fill-rule:evenodd;stroke:#000000;stroke-width:1px;stroke-linecap:round;stroke-linejoin:round;stroke-opacity:1"
     d="m 240.38799,218.3907 c -1.0452,1.56739 -1.65151,3.31699 -1.65263,5.16576 -10e-4,1.87769 2.17416,2.59833 3.679,3.39208 1.47412,0.77755 2.74453,1.33182 4.56215,1.42679 2.45066,0.12804 5.37335,0.65591 8.20794,0.61914 2.15836,-0.028 4.65831,-0.57842 6.9975,-0.89539"
     id="path10324"
     inkscape:connector-curvature="0"
     sodipodi:nodetypes="cssssc" />
  <path
     style="fill:none;fill-rule:evenodd;stroke:#000000;stroke-width:1px;stroke-linecap:round;stroke-linejoin:round;stroke-opacity:1"
     d="m 242.61201,216.11832 c 4.74615,-2.60412 10.33794,-1.54402 15.46856,-1.37857 4.18475,0.13495 8.28905,1.17396 12.46794,1.51446 2.85774,0.23285 5.71239,0.54908 8.5665,0.73441"
     id="path10332"
     inkscape:connector-curvature="0"
     sodipodi:nodetypes="cssc" />
  <path
     style="fill:none;fill-rule:evenodd;stroke:#000000;stroke-width:1px;stroke-linecap:round;stroke-linejoin:round;stroke-opacity:1"
     d="m 244.64264,217.95556 c 4.00209,-0.59779 8.06616,-0.59825 12.10319,-0.22924 3.4389,0.31434 6.88259,0.40412 10.32054,0.85119 2.83219,0.3683 7.36101,0.68855 9.02795,0.66183"
     id="path10334"
     inkscape:connector-curvature="0"
     sodipodi:nodetypes="cssc" />
  <path
     style="fill:none;fill-rule:evenodd;stroke:#000000;stroke-width:1px;stroke-linecap:round;stroke-linejoin:round;stroke-opacity:1"
     d="m 302.8057,233.57208 c -0.0544,-4.69229 -2.30034,-8.86856 -3.76681,-13.21361 -0.83972,-2.48802 -1.79445,-4.92271 -3.3219,-7.11936 -2.34854,-3.37746 -4.34684,-7.36741 -8.08785,-9.40725 -2.74267,-1.49548 -5.68761,-2.42393 -8.77467,-2.94058 -3.37306,-0.56451 -6.86396,0.75005 -8.69858,3.62005 -1.72202,2.69384 -4.61111,4.58922 -5.80588,7.58649 -0.38497,0.96577 -0.85104,1.90437 -1.1416,2.90845"
     id="path10342"
     inkscape:connector-curvature="0"
     sodipodi:nodetypes="cssssssc" />
  <path
     style="fill:none;fill-rule:evenodd;stroke:#000000;stroke-width:1px;stroke-linecap:round;stroke-linejoin:round;stroke-opacity:1"
     d="m 259.77567,214.47448 c 1.91269,-4.53024 5.4817,-8.02028 8.30928,-11.97094 2.6001,-3.63283 7.30296,-4.98987 11.76837,-4.65274 5.39264,0.40713 10.16287,2.91628 13.75136,6.59242 4.20175,4.30437 5.92866,10.7051 8.43268,16.13659 1.57774,3.42228 2.6877,7.02551 3.19511,10.77747 0.0933,0.68985 0.30694,1.3591 0.52248,2.02141"
     id="path10344"
     inkscape:connector-curvature="0"
     sodipodi:nodetypes="csssssc" />
  <path
     style="fill:none;fill-rule:evenodd;stroke:#000000;stroke-width:1px;stroke-linecap:round;stroke-linejoin:round;stroke-opacity:1"
     d="m 263.78859,225.06277 c 3.77418,-1.33367 7.60474,-2.19122 11.06337,-4.67044 2.89122,-2.07249 5.72571,-4.60312 9.189,-6.0206 2.38193,-0.97489 5.5593,-1.97999 6.85808,1.16774 0.16845,0.40826 0.42543,0.77392 0.6415,1.15903"
     id="path10350"
     inkscape:connector-curvature="0"
     sodipodi:nodetypes="csssc" />
  <path
     style="fill:none;fill-rule:evenodd;stroke:#000000;stroke-width:1px;stroke-linecap:round;stroke-linejoin:round;stroke-opacity:1"
     d="m 265.01981,227.54146 c 4.91272,-2.04136 9.57924,-3.72209 14.13885,-6.79317 2.42077,-1.63049 5.53463,-4.64336 7.90873,-4.63859 0.71959,0.001 1.43898,0.27007 1.95904,0.7822"
     id="path10352"
     inkscape:connector-curvature="0"
     sodipodi:nodetypes="cssc" />
  <path
     style="fill:none;fill-rule:evenodd;stroke:#000000;stroke-width:1px;stroke-linecap:round;stroke-linejoin:round;stroke-opacity:1"
     d="m 281.72582,219.11592 c 1.66721,0.0558 3.28496,-0.46344 4.96549,-0.37958 2.22282,0.11093 4.45939,0.0644 6.67818,0.13128 0.50152,0.0151 0.95675,-0.0446 1.50709,0.15196"
     id="path10362"
     inkscape:connector-curvature="0"
     sodipodi:nodetypes="cssc" />
  <path
     style="fill:none;fill-rule:evenodd;stroke:#000000;stroke-width:1px;stroke-linecap:round;stroke-linejoin:round;stroke-opacity:1"
     d="m 284.48168,217.08529 c 2.24094,-0.0583 4.22679,-0.26638 6.49364,-0.028 1.21068,0.12729 2.40377,0.28837 3.60072,-0.0217 0.56684,-0.14684 1.16764,-0.0802 1.75099,-0.0473"
     id="path10364"
     inkscape:connector-curvature="0"
     sodipodi:nodetypes="cssc" />
  <path
     style="fill:none;fill-rule:evenodd;stroke:#000000;stroke-width:1px;stroke-linecap:round;stroke-linejoin:round;stroke-opacity:1"
     d="m 291.63724,218.92253 c 0.45496,1.12897 2.02147,1.37108 2.95787,0.66707 0.52274,-0.39301 0.72569,-1.00417 1.19105,-1.4506 0.54286,-0.52077 1.05088,-1.07662 1.60453,-1.58554"
     id="path10374"
     inkscape:connector-curvature="0"
     sodipodi:nodetypes="cssc" />
  <path
     style="fill:none;fill-rule:evenodd;stroke:#000000;stroke-width:1px;stroke-linecap:round;stroke-linejoin:round;stroke-opacity:1"
     d="m 289.21982,219.16427 c 0.20977,1.16311 0.74978,2.54195 1.96966,2.88718 0.66034,0.18688 1.37268,0.13359 2.05892,0.12983 1.2539,-0.007 2.45824,-0.45058 3.57853,-0.97162 0.70281,-0.32688 1.20157,-0.95552 1.77248,-1.46536"
     id="path10376"
     inkscape:connector-curvature="0"
     sodipodi:nodetypes="csssc" />
  <path
     style="fill:none;fill-rule:evenodd;stroke:#000000;stroke-width:1px;stroke-linecap:round;stroke-linejoin:round;stroke-opacity:1"
     d="m 262.77327,218.3907 c -0.11996,3.62555 0.14274,7.9223 3.41718,10.31725 4.50953,3.2983 9.87525,5.45689 15.49083,5.31302 5.08311,-0.13022 10.19824,-0.0409 15.24883,-0.24642 4.77768,-0.1944 9.67158,0.50453 14.35262,-0.47962 3.18301,-0.6692 6.33754,-1.78376 9.18557,-3.34733 3.83868,-2.10744 5.54771,-6.06744 6.55992,-10.1548"
     id="path10398"
     inkscape:connector-curvature="0"
     sodipodi:nodetypes="csssssc" />
  <path
     style="fill:none;fill-rule:evenodd;stroke:#000000;stroke-width:1px;stroke-linecap:round;stroke-linejoin:round;stroke-opacity:1"
     d="m 259.53393,218.14896 c 0.67137,3.69467 0.85889,7.60184 3.4063,10.84675 3.24709,4.13616 8.40897,7.36543 14.02865,7.77629 5.17781,0.37855 10.19922,0.15352 15.43304,0.38336 6.00404,0.26366 12.0139,0.0935 17.97322,-0.65075 3.80656,-0.47541 8.02649,-0.5171 11.1069,-3.12624 2.21819,-1.87883 5.20892,-2.97452 6.4709,-5.82838 1.15303,-2.60747 1.58616,-5.45194 2.74976,-8.04724"
     id="path10400"
     inkscape:connector-curvature="0"
     sodipodi:nodetypes="cssssssc" />
  <path
     style="fill:none;fill-rule:evenodd;stroke:#000000;stroke-width:1px;stroke-linecap:round;stroke-linejoin:round;stroke-opacity:1"
     d="m 300.04985,214.76457 c 1.14118,-0.56046 2.98075,-1.20252 3.78657,0.1958 0.29252,0.59126 0.18192,1.29666 -0.0637,1.88319"
     id="path10410"
     inkscape:connector-curvature="0" />
  <path
     style="fill:none;fill-rule:evenodd;stroke:#000000;stroke-width:1px;stroke-linecap:round;stroke-linejoin:round;stroke-opacity:1"
     d="m 302.9024,221.67838 c 2.23661,0.40334 5.04015,-0.12641 6.16904,-2.31927 0.78893,-1.31392 2.01506,-2.291 3.21741,-3.20471 0.73963,-0.41279 1.75869,-0.29084 1.83037,0.59245"
     id="path10412"
     inkscape:connector-curvature="0"
     sodipodi:nodetypes="cccc" />
  <path
     style="fill:none;fill-rule:evenodd;stroke:#000000;stroke-width:1px;stroke-linecap:round;stroke-linejoin:round;stroke-opacity:1"
     d="m 302.17718,219.35766 c 2.39701,0.0718 4.80639,-0.97932 6.28743,-2.8821 0.91587,-1.19762 1.94936,-2.49253 3.51795,-2.79353 1.44848,-0.37865 2.81276,0.67293 3.25785,2.00903 0.1544,0.33046 0.28909,0.66956 0.42596,1.0075"
     id="path10414"
     inkscape:connector-curvature="0" />
  <path
     style="fill:none;fill-rule:evenodd;stroke:#000000;stroke-width:1px;stroke-linecap:round;stroke-linejoin:round;stroke-opacity:1"
     d="m 313.00721,219.40601 c 0.62956,1.41358 1.65555,3.0422 3.34704,3.18965 1.50747,-0.11626 2.96181,-0.85154 4.02704,-1.90458 1.07392,-1.38355 1.60642,-3.2969 3.30277,-4.10101 0.5341,-0.29093 1.32393,-0.38722 1.70032,0.20509"
     id="path10416"
     inkscape:connector-curvature="0" />
  <path
     style="fill:none;fill-rule:evenodd;stroke:#000000;stroke-width:1px;stroke-linecap:round;stroke-linejoin:round;stroke-opacity:1"
     d="m 316.1982,219.26097 c 0.4585,1.50406 2.56162,0.49906 2.69901,-0.7127 0.62377,-1.05005 1.25555,-2.10409 1.967,-3.09836 1.16982,-1.57169 3.15785,-2.22124 5.01708,-2.50793 1.16902,0.0927 2.07767,1.01689 2.91856,1.7608 0.41744,0.40417 0.9848,0.7592 0.98423,1.41554"
     id="path10418"
     inkscape:connector-curvature="0" />
  <path
     style="fill:none;fill-rule:evenodd;stroke:#000000;stroke-width:1px;stroke-linecap:round;stroke-linejoin:round;stroke-opacity:1"
     d="m 300.72673,216.9886 c 2.04699,0.0136 4.09926,0.0233 6.13353,-0.22405 0.43843,-0.0114 0.87904,0.006 1.31211,0.0791"
     id="path10420"
     inkscape:connector-curvature="0" />
  <path
     style="fill:none;fill-rule:evenodd;stroke:#000000;stroke-width:1px;stroke-linecap:round;stroke-linejoin:round;stroke-opacity:1"
     d="m 301.54865,218.72914 c 1.3987,0.37997 2.80827,-0.47267 4.2063,-0.0967"
     id="path10422"
     inkscape:connector-curvature="0" />
  <path
     style="fill:none;fill-rule:evenodd;stroke:#000000;stroke-width:1px;stroke-linecap:round;stroke-linejoin:round;stroke-opacity:1"
     d="m 309.18769,219.26097 c 3.0662,0.1084 6.14151,0.005 9.20416,-0.0141 l 0.12707,-0.0341"
     id="path10424"
     inkscape:connector-curvature="0" />
  <path
     style="fill:none;fill-rule:evenodd;stroke:#000000;stroke-width:1px;stroke-linecap:round;stroke-linejoin:round;stroke-opacity:1"
     d="m 311.7018,216.8919 c 2.89912,-0.14019 5.07413,-0.24127 7.97747,-0.24174"
     id="path10426"
     inkscape:connector-curvature="0"
     sodipodi:nodetypes="cc" />
  <path
     style="fill:none;fill-rule:evenodd;stroke:#000000;stroke-width:1px;stroke-linecap:round;stroke-linejoin:round;stroke-opacity:1"
     d="m 321.32312,219.84115 c 9.63492,-0.052 19.1798,-1.53104 28.84514,-0.98046 7.68959,0.43803 15.38364,0.16526 23.08961,0.19979 7.64597,0.0343 15.28074,-0.0234 22.90849,-0.42816"
     id="path10473"
     inkscape:connector-curvature="0"
     sodipodi:nodetypes="cssc" />
  <path
     style="fill:none;fill-rule:evenodd;stroke:#000000;stroke-width:1px;stroke-linecap:round;stroke-linejoin:round;stroke-opacity:1"
     d="m 323.4021,216.74685 c 6.57688,0.71116 13.07314,-0.99248 19.68162,-0.89279 9.89894,0.14933 19.78248,0.0194 29.67658,-0.66918 5.05518,-0.3518 10.08604,0.98892 15.19867,0.50557 3.03197,-0.28664 6.07934,-0.40857 9.12602,-0.44242"
     id="path10475"
     inkscape:connector-curvature="0"
     sodipodi:nodetypes="csssc" />
  <path
     style="fill:none;fill-rule:evenodd;stroke:#000000;stroke-width:1px;stroke-linecap:round;stroke-linejoin:round;stroke-opacity:1"
     d="m 303.38583,237.34289 c 0.18319,1.9525 0.19398,3.91891 0.38219,5.86977 0.1406,1.45732 -0.0235,2.89528 -0.031,4.35395 -0.007,1.39874 -0.16983,2.80597 0.007,4.20052 0.10431,0.82262 2.35779,1.53237 3.23087,0.47908 0.8279,-0.99879 0.67324,-2.46544 0.56686,-3.67709 -0.15667,-1.78445 -0.4427,-3.55096 -0.51909,-5.34712 -0.0708,-1.66512 0.0742,-3.3225 -0.0291,-4.97362 -0.0717,-0.42359 -0.18343,-0.85569 -0.10238,-1.28696"
     id="path10483"
     inkscape:connector-curvature="0"
     sodipodi:nodetypes="csssssscc" />
  <path
     style="fill:none;fill-rule:evenodd;stroke:#000000;stroke-width:1;stroke-linecap:round;stroke-linejoin:round;stroke-miterlimit:4;stroke-dasharray:none;stroke-opacity:1"
     d="m 261.9069,207.47917 c 0.19049,-0.6036 0.40455,-1.25426 0.63833,-1.93926 m 1.12675,-3.1499 c 0.2384,-0.63882 0.48685,-1.28897 0.74305,-1.94282 m 1.81738,-4.3755 c 0.37409,-0.84644 0.75277,-1.6688 1.13048,-2.44879 m 1.55747,-2.96272 c 0.4456,-0.76631 0.92504,-1.55519 1.42604,-2.34428 m 2.25018,-3.32731 c 0.38491,-0.53254 0.77185,-1.04875 1.15633,-1.54043 m 2.04602,-2.38968 c 1.79062,-1.86359 3.31819,-2.75386 4.03081,-1.66529 0.27033,0.41295 -0.34928,1.34071 -1.40327,2.66858 m -1.77161,2.18094 c -0.33455,0.41283 -0.68199,0.84633 -1.03565,1.29883 m -2.2267,2.95091 c -0.26961,0.40585 -0.60306,0.88951 -0.85994,1.31288 m -1.0146,1.9098 c -0.26372,0.48716 -0.51899,0.97971 -0.7657,1.4742 m -1.39439,3.00405 c -0.24977,0.57667 -0.48727,1.14635 -0.71228,1.7034 m -0.73202,1.87771 c -0.16151,0.42898 -0.31437,0.84492 -0.45849,1.24464 m -1.01904,2.95686 c -0.16489,0.49733 -0.30141,0.91554 -0.40896,1.23707"
     id="path10488"
     inkscape:connector-curvature="0"
     sodipodi:nodetypes="cccccccccccsccccccccccccc" />
  <path
     style="fill:#000000;fill-opacity:1;stroke:#000000;stroke-width:1;stroke-linecap:butt;stroke-linejoin:miter;stroke-miterlimit:4;stroke-dasharray:none;stroke-opacity:1"
     d="m 278.76137,192.78594 -3.43786,-1.51824 3.43792,-1.50498 -3e-5,1.51161 z"
     id="path14359-1-7-5-3-0-73-1-4-3"
     inkscape:connector-curvature="0"
     sodipodi:nodetypes="ccccc" />
  <path
     style="fill:none;stroke:#000000;stroke-width:1;stroke-linecap:butt;stroke-linejoin:miter;stroke-miterlimit:4;stroke-dasharray:none;stroke-opacity:1"
     d="m 278.77641,191.27332 c 3.66074,-0.78756 7.62764,-0.85899 10.41919,-3.08687"
     id="path14359-1-7-5-3-0-73-1-9-8-9"
     inkscape:connector-curvature="0"
     sodipodi:nodetypes="cc" />
  <path
     style="fill:#000000;fill-opacity:1;stroke:#000000;stroke-width:1;stroke-linecap:butt;stroke-linejoin:miter;stroke-miterlimit:4;stroke-dasharray:none;stroke-opacity:1"
     d="m 315.01566,253.18467 -3.43786,-1.51824 3.43792,-1.50498 -3e-5,1.51161 z"
     id="path14359-1-7-5-3-0-73-1-4-3-1"
     inkscape:connector-curvature="0"
     sodipodi:nodetypes="ccccc" />
  <path
     style="fill:none;stroke:#000000;stroke-width:1;stroke-linecap:butt;stroke-linejoin:miter;stroke-miterlimit:4;stroke-dasharray:none;stroke-opacity:1"
     d="m 315.0307,251.67205 c 2.25064,-0.4195 6.73069,-2.52887 9.74224,-5.41858"
     id="path14359-1-7-5-3-0-73-1-9-8-9-6"
     inkscape:connector-curvature="0"
     sodipodi:nodetypes="cc" />
  <text
     xml:space="preserve"
     style="font-style:normal;font-variant:normal;font-weight:normal;font-stretch:normal;line-height:0%;font-family:Arial;-inkscape-font-specification:Arial;text-align:start;letter-spacing:0px;word-spacing:2.28999996px;text-anchor:start;fill:#000000;fill-opacity:1;stroke:none;stroke-width:1px;stroke-linecap:butt;stroke-linejoin:miter;stroke-opacity:1"
     x="41.187286"
     y="293.19351"
     id="text18445-52"><tspan
       sodipodi:role="line"
       x="41.187286"
       y="293.19351"
       id="tspan18451-1"
       style="font-size:7.5px;line-height:1.29999995">MATERIAL: BRISTOL BOARD, TYPE II, GRADE A .010 220M, SPECIFICATION UU-B-561,</tspan><tspan
       sodipodi:role="line"
       x="41.187286"
       y="302.94351"
       id="tspan10550"
       style="font-size:7.5px;line-height:1.29999995">COLOR WHITE.           FIGURE 1  CARD - Leader knots and hitches</tspan></text>
</svg>
