<?xml version="1.0" encoding="UTF-8" standalone="no"?>
<!-- Created with Inkscape (http://www.inkscape.org/) -->

<svg
   xmlns:dc="http://purl.org/dc/elements/1.1/"
   xmlns:cc="http://creativecommons.org/ns#"
   xmlns:rdf="http://www.w3.org/1999/02/22-rdf-syntax-ns#"
   xmlns:svg="http://www.w3.org/2000/svg"
   xmlns="http://www.w3.org/2000/svg"
   xmlns:sodipodi="http://sodipodi.sourceforge.net/DTD/sodipodi-0.dtd"
   xmlns:inkscape="http://www.inkscape.org/namespaces/inkscape"
   id="svg10061"
   version="1.1"
   inkscape:version="0.92.2 5c3e80d, 2017-08-06"
   width="459.51999"
   height="583.67999"
   viewBox="0 0 430.79999 547.20001"
   sodipodi:docname="ec22oc91.006.svg">
  <metadata
     id="metadata10067">
    <rdf:RDF>
      <cc:Work
         rdf:about="">
        <dc:format>image/svg+xml</dc:format>
        <dc:type
           rdf:resource="http://purl.org/dc/dcmitype/StillImage" />
        <dc:title></dc:title>
      </cc:Work>
    </rdf:RDF>
  </metadata>
  <defs
     id="defs10065" />
  <sodipodi:namedview
     pagecolor="#ffffff"
     bordercolor="#666666"
     borderopacity="1"
     objecttolerance="10"
     gridtolerance="10"
     guidetolerance="10"
     inkscape:pageopacity="0"
     inkscape:pageshadow="2"
     inkscape:window-width="1280"
     inkscape:window-height="756"
     id="namedview10063"
     showgrid="false"
     inkscape:zoom="1.7543859"
     inkscape:cx="115.97481"
     inkscape:cy="189.83535"
     inkscape:window-x="0"
     inkscape:window-y="23"
     inkscape:window-maximized="0"
     inkscape:current-layer="svg10061" />
  <path
     style="fill:none;stroke:#000000;stroke-width:1;stroke-linecap:butt;stroke-linejoin:miter;stroke-miterlimit:4;stroke-dasharray:none;stroke-opacity:1"
     d="m 237.78358,2.9771052 -0.002,19.6155008"
     id="path14359-1-7-5-3-0-73-1-9-8"
     inkscape:connector-curvature="0"
     sodipodi:nodetypes="cc" />
  <path
     style="fill:none;stroke:#000000;stroke-width:1;stroke-linecap:butt;stroke-linejoin:miter;stroke-miterlimit:4;stroke-dasharray:none;stroke-opacity:1"
     d="m 242.86644,2.9771052 -0.002,19.6155008"
     id="path14359-1-7-5-3-0-73-1-9-8-4"
     inkscape:connector-curvature="0"
     sodipodi:nodetypes="cc" />
  <path
     style="fill:none;stroke:#000000;stroke-width:1;stroke-linecap:butt;stroke-linejoin:miter;stroke-miterlimit:4;stroke-dasharray:none;stroke-opacity:1"
     d="m 157.60782,122.14678 -20.72738,-0.002"
     id="path14359-1-7-5-3-0-73-1-9-8-0"
     inkscape:connector-curvature="0"
     sodipodi:nodetypes="cc" />
  <path
     style="fill:none;stroke:#000000;stroke-width:1;stroke-linecap:butt;stroke-linejoin:miter;stroke-miterlimit:4;stroke-dasharray:none;stroke-opacity:1"
     d="m 264.34789,122.14678 -17.86826,-0.002"
     id="path14359-1-7-5-3-0-73-1-9-8-8"
     inkscape:connector-curvature="0"
     sodipodi:nodetypes="cc" />
  <path
     style="fill:none;stroke:#000000;stroke-width:1;stroke-linecap:butt;stroke-linejoin:miter;stroke-miterlimit:4;stroke-dasharray:none;stroke-opacity:1"
     d="m 183.65748,126.59428 -46.77704,-0.002"
     id="path14359-1-7-5-3-0-73-1-9-8-7"
     inkscape:connector-curvature="0"
     sodipodi:nodetypes="cc" />
  <path
     style="fill:none;stroke:#000000;stroke-width:1;stroke-linecap:butt;stroke-linejoin:miter;stroke-miterlimit:4;stroke-dasharray:none;stroke-opacity:1"
     d="m 238.41894,128.93675 -0.002,20.72737"
     id="path14359-1-7-5-3-0-73-1-9-8-9"
     inkscape:connector-curvature="0"
     sodipodi:nodetypes="cc" />
  <path
     style="color:#000000;display:inline;overflow:visible;visibility:visible;fill:none;fill-rule:evenodd;stroke:#000000;stroke-width:1;stroke-linecap:round;stroke-linejoin:round;stroke-miterlimit:4;stroke-dasharray:none;stroke-dashoffset:0;stroke-opacity:1;marker:none;enable-background:accumulate"
     d="m 238.80155,59.494864 0.74824,-0.744489 V 26.331624 l -219.974441,0.470926 -4.30323,6.171538 c -1.839727,2.201486 -1.260407,5.385079 -2.224946,8.278697 -0.13155,0.394651 -0.0413,2.441083 0.123087,2.523274 0.263789,0.131894 -0.410051,3.774179 -0.55389,4.061856 -0.207503,0.415007 -0.05123,2.133391 -0.553889,3.138706 -0.212068,0.424137 0.920738,2.651184 0.430803,3.631053 -0.358594,0.717188 -0.202307,1.697022 -0.55389,2.400188 -0.277391,0.554783 -0.541543,1.021543 -0.800062,1.538582 -0.261646,0.523293 0.341524,1.409423 0.06154,1.969384 -0.307303,0.614606 -0.540615,3.49952 -0.369259,4.184943 0.312508,1.250034 0.188502,5.469605 -0.307717,6.462043 -0.12244,0.24488 -0.7654891,2.742477 -0.6769757,2.830991 0.4113997,0.411399 0.3374877,3.414651 0.8616057,3.938769 0.226944,0.226943 -0.06154,1.467519 -0.06154,1.723211 0.25912,0.575087 -0.485187,3.453583 -0.123087,3.815683 0.331088,0.331087 0.07622,1.321772 0.307717,1.784755 0.359436,0.718872 0.381106,1.685363 0.738519,2.400188 0.255259,0.510518 -0.22575,8.39058 -0.492346,8.923774 -0.03916,0.07832 1.039036,6.556335 1.230865,7.323645 0.262858,1.05143 -0.37473,4.78944 -0.36926,4.80038 0.09305,0.18611 0.391722,0.51481 0.55389,0.67698 0.616223,0.61622 1.047274,2.83306 1.538582,3.81568 0.430625,0.86125 -0.0575,2.22364 0.369259,3.07716 0.105391,0.21078 0.180003,1.17858 0.06154,1.4155 -0.225367,0.45073 -0.02368,1.15513 -0.246173,1.60012 -1.116644,2.23329 -1.94055,7.41015 -1.046236,10.0931 0.142499,0.42749 -0.07523,1.01886 0.123086,1.41549 0.280253,0.56051 -0.273641,1.51772 -0.06154,2.15402 0.183619,0.55086 -0.124592,1.28789 0.06154,1.8463 0.447965,1.34389 0.263986,3.00751 0.676976,4.24648 0.147517,3.69406 1.538586,7.36765 1.538586,11.26242 0,0.78693 -0.315297,3.67743 -0.06154,4.18494 0.195049,0.3901 -0.0079,0.96891 0.18463,1.35395 0.512469,1.02494 0.365968,2.39361 0.923149,3.50797 0.475587,0.95117 0.704548,2.11365 1.046235,3.13871 0.06784,0.20353 0.0058,0.68856 0.06154,0.80006 1.408025,2.81605 2.198429,10.49661 0.676976,13.53952 -0.388176,0.77635 -0.161052,1.86068 -0.55389,2.64636 -0.590413,1.18083 0.128849,3.68107 -0.492346,4.92346 -0.459493,0.91899 0.676976,7.30505 0.676976,8.86223 -0.0066,0.33752 -0.224828,1.02738 -0.06154,1.35395 1.39603,2.79207 0.123086,10.09107 0.123086,13.66261 0,0.93479 -0.429866,2.70978 0,3.56951 0.393256,0.78651 -0.192981,3.55281 0.246173,4.43112 0.559917,1.11983 1.233018,8.42712 0.615433,9.66229 -0.108223,0.21644 0.023,0.77706 -0.123086,0.92315 -0.61922,0.61922 -0.628994,2.9812 -1.107779,3.93877 -0.07456,0.14912 -0.475397,6.63598 -0.430803,6.76976 0.385688,1.94639 1.57806,3.52538 2.461729,5.29272 0.306461,0.61292 1.273286,4.16582 1.415495,4.30803 0.432153,0.43215 1.444753,0.76778 1.907841,1.23086 1.740575,1.74058 5.116122,3.28499 7.631366,4.1234 1.408813,0.46961 2.93587,0.52731 4.308029,0.98469 0.682713,0.22758 1.707679,-0.13085 2.338644,0.18463 0.641197,0.3206 7.323101,-0.43052 7.939082,-0.73851 1.106766,-0.55339 9.692892,0.56408 10.770072,0.92314 6.744717,0.16506 13.762674,-1.16932 20.863169,-1.16932 1.516245,0 4.732831,-0.1456 6.092784,0.30772 0.889302,0.29643 2.710796,-0.15241 3.507966,0.24617 0.906836,0.45342 2.901384,0.61838 4.000313,0.98469 1.660404,0.55347 4.23151,0.036 5.785067,0.55389 1.465336,0.48845 9.340855,-0.39108 10.893155,-0.36925 1.83062,0.0257 3.25136,-0.43085 4.30803,-0.43085 2.99327,0 6.01049,0.0615 8.98532,0.0615 1.09427,0.10479 6.00022,-0.20005 6.76976,0.18471 0.47103,0.23552 1.28227,-0.16749 1.78476,0 2.58775,0.86259 5.54522,0.88424 8.06216,1.72322 1.43703,0.479 6.83802,2.82763 8.30835,2.09247 0.28403,-0.14202 0.7093,0.0146 0.98469,-0.12309 1.87281,-0.93641 4.43461,-0.37101 6.27741,-1.29241 0.34668,-0.17334 0.8837,-0.011 1.23087,-0.18463 1.35172,-0.67586 8.05933,-2.13444 9.84692,-1.53858 2.65075,0.88358 5.47545,0.86097 8.06217,1.72321 0.52604,0.17535 1.23931,0.004 1.72321,0.24617 0.88678,0.44339 3.2616,-0.24627 4.24649,0.24618 0.56015,0.28007 1.36746,0.0991 1.90784,0.36926 0.57826,0.28913 1.40224,0.0857 1.96938,0.36926 1.70707,0.85353 9.59398,0.61543 11.69322,0.61543 0.76957,-0.15082 4.85543,0.034 5.41581,-0.24617 1.07555,-0.53778 2.93331,-0.0478 4.1234,-0.24618 1.54435,-0.25739 4.68173,0.18611 6.15433,0.67698 1.71854,0.57285 4.90315,0.0206 6.46204,0.80006 0.47083,0.23542 1.21938,-0.1064 1.72321,0.0615 0.67849,0.22616 2.53592,0.36504 3.2618,0.12308 0.94868,-0.31623 2.12965,-0.0494 3.01562,-0.49234 5.20681,-2.60341 10.77167,-2.15349 16.12433,-0.36926 0.79957,0.26652 1.71669,0.0445 2.52328,0.24617 1.60985,0.40246 3.24192,0.52675 4.80037,1.04623 0.70707,0.2357 6.26031,0.62399 6.89285,0.30772 0.40684,-0.20342 1.71296,-0.14702 2.15401,0 1.84248,0.61416 3.56467,1.59851 5.41581,2.21556 1.61004,0.53668 3.13871,0.96418 4.67729,1.47704 1.13916,0.37972 3.63392,-0.0322 4.5542,-0.49235 0.37722,-0.18861 2.47665,0.12309 3.07716,0.12309 3.25256,0.28022 7.03031,0.13032 9.72384,1.47709 0.58699,0.29349 1.45538,0.15689 2.09247,0.36926 1.4541,0.48469 3.80436,0.0867 5.10809,0.73852 0.24501,0.1225 0.66108,-0.0874 0.92315,0 0.99186,0.33062 2.15808,0.15589 3.07717,0.61543 0.70821,0.35411 1.86835,-0.17361 2.58481,0.18463 0.59997,0.29998 2.70273,-0.36926 3.01562,-0.36926 1.46713,0 2.36151,0.59464 3.19882,-0.48166 L 303.13381,39.520746 C 303.12497,32.17712 297.1806,26.2082 289.83699,26.22392 l -46.69643,0.09997 v 29.426251 l 59.85012,0.0026"
     id="path10668"
     inkscape:connector-curvature="0"
     sodipodi:nodetypes="ccsscsssssssssssscssssscssssssssscsscsccssscssssssscsssscsscsssscsscccsccscsscccccccsscscsccssssscscccscscccccc" />
  <path
     style="fill:none;stroke:#000000;stroke-width:1;stroke-linecap:round;stroke-linejoin:round;stroke-miterlimit:4;stroke-dasharray:none;stroke-opacity:1"
     d="m 238.82507,26.437341 -8.1e-4,39.955788 m -2.7e-4,12.973438 -8.6e-4,42.755943 h -76.71156 c -4.16394,0 -8.91313,-4.53219 -8.91313,-9.47625 l -6e-5,-53.649584 H 11.159297"
     id="path14359-1-7-5-3-0-73-1-9-8-2"
     inkscape:connector-curvature="0"
     sodipodi:nodetypes="ccccsscc" />
  <path
     style="fill:none;stroke:#000000;stroke-width:1;stroke-linecap:round;stroke-linejoin:round;stroke-miterlimit:4;stroke-dasharray:none;stroke-opacity:1"
     d="m 302.92637,88.566101 h -59.27866 l -3e-5,37.559479 h -54.05299 l -4.6e-4,31.1907 h 55.44106 l -0.002,102.05516"
     id="path14359-1-7-5-3-0-73-1-9-8-84"
     inkscape:connector-curvature="0"
     sodipodi:nodetypes="ccccccc" />
  <path
     style="fill:none;stroke:#000000;stroke-width:1;stroke-linecap:round;stroke-linejoin:round;stroke-miterlimit:4;stroke-dasharray:none;stroke-opacity:1"
     d="m 327.20255,46.922224 -0.002,50.407864 h -23.90232 l 0.002,-50.407864 z"
     id="path14359-1-7-5-3-0-73-1-9-8-84-9"
     inkscape:connector-curvature="0"
     sodipodi:nodetypes="ccccc" />
  <path
     style="fill:none;stroke:#000000;stroke-width:1;stroke-linecap:round;stroke-linejoin:round;stroke-miterlimit:4;stroke-dasharray:none;stroke-opacity:1"
     d="m 311.59793,47.293762 -0.002,49.91248"
     id="path14359-1-7-5-3-0-73-1-9-8-84-8"
     inkscape:connector-curvature="0"
     sodipodi:nodetypes="cc" />
  <path
     style="fill:none;stroke:#000000;stroke-width:1;stroke-linecap:round;stroke-linejoin:round;stroke-miterlimit:4;stroke-dasharray:none;stroke-opacity:1"
     d="m 311.78146,63.084386 11.89171,0.002"
     id="path14359-1-7-5-3-0-73-1-9-8-84-7"
     inkscape:connector-curvature="0"
     sodipodi:nodetypes="cc" />
  <path
     style="fill:none;stroke:#000000;stroke-width:1;stroke-linecap:round;stroke-linejoin:round;stroke-miterlimit:4;stroke-dasharray:none;stroke-opacity:1"
     d="m 311.78146,85.005156 11.63868,0.002"
     id="path14359-1-7-5-3-0-73-1-9-8-84-98"
     inkscape:connector-curvature="0"
     sodipodi:nodetypes="cc" />
  <path
     style="fill:#000000;fill-opacity:1;stroke:#000000;stroke-width:1;stroke-linecap:round;stroke-linejoin:round;stroke-miterlimit:4;stroke-dasharray:none;stroke-opacity:1"
     d="m 323.5396,97.319854 3.62694,-3.717694 1.3e-4,-4.80756 -3.62658,-3.795452 3.71129,-3.373725 5.4e-4,-15.51916 -3.71096,-3.036359 -2.42466,-0.141853 6.05162,-3.31621 2.8e-4,-9.109074 -4.30135,-3.633345 h 4.38585 l -0.002,50.450432 z"
     id="path14359-1-7-5-3-0-73-1-9-8-84-4-3"
     inkscape:connector-curvature="0"
     sodipodi:nodetypes="cccccccccccccc" />
  <path
     style="fill:none;stroke:#000000;stroke-width:1;stroke-linecap:round;stroke-linejoin:round;stroke-miterlimit:4;stroke-dasharray:none;stroke-opacity:1"
     d="m 303.29923,68.376944 c 3.20168,2.138648 6.3881,5.119393 8.17929,8.531851"
     id="path14359-1-7-5-3-0-73-1-9-8-84-4-8"
     inkscape:connector-curvature="0"
     sodipodi:nodetypes="cc" />
  <path
     style="fill:none;stroke:#000000;stroke-width:1;stroke-linecap:round;stroke-linejoin:round;stroke-miterlimit:4;stroke-dasharray:none;stroke-opacity:1"
     d="m 311.56487,84.992559 c -1.12471,-5.356441 -4.04211,-9.714559 -8.26764,-13.2287"
     id="path14359-1-7-5-3-0-73-1-9-8-84-4-7"
     inkscape:connector-curvature="0"
     sodipodi:nodetypes="cc" />
  <path
     style="fill:none;stroke:#000000;stroke-width:1;stroke-linecap:round;stroke-linejoin:round;stroke-miterlimit:4;stroke-dasharray:none;stroke-opacity:1"
     d="m 303.23547,77.662167 c 0,0 -2.53036,1.538179 -4.41148,3.672428 -1.83473,2.081622 -2.23845,5.942574 -3.67048,5.942574 -1.43203,0 -4.61,-8.350092 -6.2264,-8.350104 -1.6164,-1.2e-5 -4.67498,8.349854 -6.22641,8.349854 -1.55143,0 -4.49176,-8.350091 -6.3951,-8.350104 -1.90334,-1.3e-5 -4.35162,8.373027 -6.39509,8.349854 -2.04347,-0.02317 -4.17115,-8.35009 -6.09989,-8.350104 -1.92874,-1.4e-5 -4.33382,8.349854 -6.0999,8.349854 -1.76608,0 -4.71107,-8.350089 -6.73246,-8.350104 -2.02139,-1.5e-5 -4.11232,8.343538 -6.05773,8.349854 -1.94541,0.0063 -3.68222,-8.35009 -5.72035,-8.350104 -2.03813,-1.4e-5 -4.36506,8.355945 -6.2264,8.349854 -1.86134,-0.0061 -4.45805,-8.350089 -6.64813,-8.350104 -2.19008,-1.5e-5 -3.78465,8.35083 -5.636,8.349854 -1.85135,-9.76e-4 -4.78453,-8.350035 -6.80323,-8.350041 -2.0187,-6e-6 -3.50959,8.342508 -5.45372,8.349916 -1.94413,0.0074 -4.77925,-8.350006 -6.81751,-8.35001 -2.03826,-4e-6 -4.0316,8.357361 -5.63671,8.349948 -1.60511,-0.0074 -4.2618,-8.349993 -6.10774,-8.349995 -1.84594,-2e-6 -4.34615,8.349964 -6.10774,8.349964 -1.10684,0 -2.93818,-3.222839 -4.91431,-6.436784 -1.97612,-3.213945 -4.09702,-6.418995 -4.09612,-7.058163 0.001,-0.712171 0.002,-1.424343 0.003,-2.136514 0.001,-0.768522 2.18577,-3.650286 4.19288,-6.761636 2.0071,-3.11135 3.83662,-6.452286 4.8142,-6.452286 2.59926,0 4.22827,8.012622 6.10774,8.012622 1.87947,0 4.50703,-8.01259 6.10774,-8.01259 1.60071,0 3.68792,8.012633 5.63671,8.012637 1.94879,4e-6 4.96176,-8.012575 6.81751,-8.012575 1.85575,0 3.27199,8.01266 5.45372,8.012669 2.18173,9e-6 5.12413,-8.012544 6.80323,-8.012544 1.6791,0 3.70455,8.012716 5.636,8.012731 1.93145,1.5e-5 4.79215,-8.006377 6.64813,-8.012481 1.85598,-0.0061 3.94039,8.012713 6.2264,8.012731 2.28601,1.8e-5 3.61036,-8.012481 5.72035,-8.012481 2.10999,0 3.95759,8.012716 6.05773,8.012731 2.10014,1.5e-5 5.21817,-8.012481 6.73246,-8.012481 1.51429,0 4.17698,8.012717 6.0999,8.012731 1.92292,1.4e-5 4.56797,-8.012481 6.09989,-8.012481 1.53192,0 4.66469,8.012717 6.39509,8.012731 1.7304,1.4e-5 5.01891,-8.021456 6.3951,-8.012481 1.37619,0.009 4.02474,8.012715 6.22641,8.012731 2.20167,1.6e-5 4.72099,-8.002506 6.2264,-8.012481 1.50541,-0.01 2.13359,3.943913 3.9731,6.230761 1.90255,2.365208 4.10886,3.890551 4.10886,3.890551"
     id="path14359-1-7-5-3-0-73-1-9-8-84-4-89"
     inkscape:connector-curvature="0"
     sodipodi:nodetypes="cssssssssssssssssssssssssssssssssssssssssssssc" />
  <path
     style="fill:none;stroke:#000000;stroke-width:1;stroke-linecap:round;stroke-linejoin:round;stroke-miterlimit:4;stroke-dasharray:none;stroke-opacity:1"
     d="m 182.04769,60.22117 -0.002,25.767503"
     id="path14359-1-7-5-3-0-73-1-9-8-84-4-32"
     inkscape:connector-curvature="0"
     sodipodi:nodetypes="cc" />
  <path
     style="fill:none;stroke:#000000;stroke-width:1;stroke-linecap:round;stroke-linejoin:round;stroke-miterlimit:4;stroke-dasharray:none;stroke-opacity:1"
     d="m 195.8975,58.481475 c -1.67927,0.806137 -4.86344,8.59398 -6.99345,13.015338 1.58581,5.429558 5.45488,15.016197 6.83253,15.716925"
     id="path14359-1-7-5-3-0-73-1-9-8-84-4-32-0"
     inkscape:connector-curvature="0"
     sodipodi:nodetypes="ccc" />
  <path
     style="fill:#000000;fill-opacity:1;stroke:#000000;stroke-width:1;stroke-linecap:butt;stroke-linejoin:miter;stroke-miterlimit:4;stroke-dasharray:none;stroke-opacity:1"
     d="m 251.70361,33.061467 1.52014,-3.437024 1.50308,3.438764 -1.51161,-8.7e-4 z"
     id="path14359-1-7-5-3-0-73-1-4"
     inkscape:connector-curvature="0"
     sodipodi:nodetypes="ccccc" />
  <path
     style="fill:#000000;fill-opacity:1;stroke:#000000;stroke-width:1;stroke-linecap:butt;stroke-linejoin:miter;stroke-miterlimit:4;stroke-dasharray:none;stroke-opacity:1"
     d="m 251.70361,115.31311 1.52014,3.43702 1.50308,-3.43876 -1.51161,8.7e-4 z"
     id="path14359-1-7-5-3-0-73-1-0-4"
     inkscape:connector-curvature="0"
     sodipodi:nodetypes="ccccc" />
  <path
     style="fill:none;stroke:#000000;stroke-width:1;stroke-linecap:butt;stroke-linejoin:miter;stroke-miterlimit:4;stroke-dasharray:none;stroke-opacity:1"
     d="m 253.21622,33.077347 -7.6e-4,31.314837 m -4.1e-4,16.741974 -8.3e-4,34.176322"
     id="path14359-1-7-5-3-0-73-1-9-8-89"
     inkscape:connector-curvature="0"
     sodipodi:nodetypes="cccc" />
  <path
     style="fill:#000000;fill-opacity:1;stroke:#000000;stroke-width:1;stroke-linecap:butt;stroke-linejoin:miter;stroke-miterlimit:4;stroke-dasharray:none;stroke-opacity:1"
     d="m 139.62914,133.70565 1.52014,-3.43702 1.50308,3.43876 -1.51161,-8.7e-4 z"
     id="path14359-1-7-5-3-0-73-1-4-1"
     inkscape:connector-curvature="0"
     sodipodi:nodetypes="ccccc" />
  <path
     style="fill:#000000;fill-opacity:1;stroke:#000000;stroke-width:1;stroke-linecap:butt;stroke-linejoin:miter;stroke-miterlimit:4;stroke-dasharray:none;stroke-opacity:1"
     d="m 139.62914,117.06229 1.52014,3.43702 1.50308,-3.43876 -1.51161,8.7e-4 z"
     id="path14359-1-7-5-3-0-73-1-0-4-4"
     inkscape:connector-curvature="0"
     sodipodi:nodetypes="ccccc" />
  <path
     style="fill:none;stroke:#000000;stroke-width:1;stroke-linecap:butt;stroke-linejoin:miter;stroke-miterlimit:4;stroke-dasharray:none;stroke-opacity:1"
     d="m 141.14175,133.72153 -8.5e-4,10.82337 m -3.1e-4,-36.88615 -8.4e-4,9.40091"
     id="path14359-1-7-5-3-0-73-1-9-8-29"
     inkscape:connector-curvature="0"
     sodipodi:nodetypes="cccc" />
  <path
     style="fill:#000000;fill-opacity:1;stroke:#000000;stroke-width:1;stroke-linecap:butt;stroke-linejoin:miter;stroke-miterlimit:4;stroke-dasharray:none;stroke-opacity:1"
     d="m 194.70074,143.10567 -3.43786,-1.51824 3.43792,-1.50498 -3e-5,1.51161 z"
     id="path14359-1-7-5-3-0-73-1-4-3"
     inkscape:connector-curvature="0"
     sodipodi:nodetypes="ccccc" />
  <path
     style="fill:#000000;fill-opacity:1;stroke:#000000;stroke-width:1;stroke-linecap:butt;stroke-linejoin:miter;stroke-miterlimit:4;stroke-dasharray:none;stroke-opacity:1"
     d="m 233.07096,143.10052 3.43617,-1.52205 -3.43959,-1.50117 0.002,1.51161 z"
     id="path14359-1-7-5-3-0-73-1-0-4-4-6"
     inkscape:connector-curvature="0"
     sodipodi:nodetypes="ccccc" />
  <path
     style="fill:none;stroke:#000000;stroke-width:1;stroke-linecap:butt;stroke-linejoin:miter;stroke-miterlimit:4;stroke-dasharray:none;stroke-opacity:1"
     d="m 194.71578,141.59305 12.21499,-9.5e-4 m 20.57997,-0.002 5.55675,-4.4e-4"
     id="path14359-1-7-5-3-0-73-1-9-8-9-3"
     inkscape:connector-curvature="0"
     sodipodi:nodetypes="cccc" />
  <path
     style="fill:#000000;fill-opacity:1;stroke:#000000;stroke-width:1;stroke-linecap:butt;stroke-linejoin:miter;stroke-miterlimit:4;stroke-dasharray:none;stroke-opacity:1"
     d="m 247.88844,17.331823 -3.43786,-1.51824 3.43792,-1.50498 -3e-5,1.51161 z"
     id="path14359-1-7-5-3-0-73-1-4-3-2"
     inkscape:connector-curvature="0"
     sodipodi:nodetypes="ccccc" />
  <path
     style="fill:#000000;fill-opacity:1;stroke:#000000;stroke-width:1;stroke-linecap:butt;stroke-linejoin:miter;stroke-miterlimit:4;stroke-dasharray:none;stroke-opacity:1"
     d="m 232.63827,17.326673 3.43617,-1.52205 -3.43959,-1.50117 0.002,1.51161 z"
     id="path14359-1-7-5-3-0-73-1-0-4-4-8"
     inkscape:connector-curvature="0"
     sodipodi:nodetypes="ccccc" />
  <path
     style="fill:none;stroke:#000000;stroke-width:1;stroke-linecap:butt;stroke-linejoin:miter;stroke-miterlimit:4;stroke-dasharray:none;stroke-opacity:1"
     d="m 247.90348,15.819203 9.68312,-0.0012 m -37.21162,-6.14e-4 12.25982,-0.0012"
     id="path14359-1-7-5-3-0-73-1-9-8-9-7"
     inkscape:connector-curvature="0"
     sodipodi:nodetypes="cccc" />
  <path
     style="fill:#000000;fill-opacity:1;stroke:#000000;stroke-width:1;stroke-linecap:butt;stroke-linejoin:miter;stroke-miterlimit:4;stroke-dasharray:none;stroke-opacity:1"
     d="m 309.02425,201.5826 -3.43786,-1.51824 3.43792,-1.50498 -3e-5,1.51161 z"
     id="path14359-1-7-5-3-0-73-1-4-3-9"
     inkscape:connector-curvature="0"
     sodipodi:nodetypes="ccccc" />
  <path
     style="fill:none;stroke:#000000;stroke-width:1;stroke-linecap:butt;stroke-linejoin:miter;stroke-miterlimit:4;stroke-dasharray:none;stroke-opacity:1"
     d="m 309.03929,200.06998 33.65844,-0.003"
     id="path14359-1-7-5-3-0-73-1-9-8-9-0"
     inkscape:connector-curvature="0"
     sodipodi:nodetypes="cc" />
  <path
     style="fill:#000000;fill-opacity:1;stroke:#000000;stroke-width:1;stroke-linecap:butt;stroke-linejoin:miter;stroke-miterlimit:4;stroke-dasharray:none;stroke-opacity:1"
     d="m 53.819252,65.624392 1.894447,-3.245762 -3.667316,0.796924 0.886669,1.224249 z"
     id="path14359-1-7-5-3-0-73-1-0-4-4-0"
     inkscape:connector-curvature="0"
     sodipodi:nodetypes="ccccc" />
  <path
     style="fill:none;stroke:#000000;stroke-width:1;stroke-linecap:butt;stroke-linejoin:miter;stroke-miterlimit:4;stroke-dasharray:none;stroke-opacity:1"
     d="m 44.910283,70.171957 8.021775,-5.770029"
     id="path14359-1-7-5-3-0-73-1-9-8-9-2"
     inkscape:connector-curvature="0"
     sodipodi:nodetypes="cc" />
  <path
     style="fill:none;fill-rule:evenodd;stroke:#000000;stroke-width:1px;stroke-linecap:butt;stroke-linejoin:miter;stroke-opacity:1"
     d="M 13.249906,40.341674 27.389731,26.894009"
     id="path10919"
     inkscape:connector-curvature="0" />
  <path
     style="fill:none;fill-rule:evenodd;stroke:#000000;stroke-width:1px;stroke-linecap:butt;stroke-linejoin:miter;stroke-opacity:1"
     d="M 16.710702,59.029974 49.341067,26.696249"
     id="path10921"
     inkscape:connector-curvature="0" />
  <path
     style="fill:none;fill-rule:evenodd;stroke:#000000;stroke-width:1px;stroke-linecap:butt;stroke-linejoin:miter;stroke-opacity:1"
     d="M 38.760919,59.029974 71.292404,26.795129"
     id="path10923"
     inkscape:connector-curvature="0" />
  <path
     style="fill:none;fill-rule:evenodd;stroke:#000000;stroke-width:1px;stroke-linecap:butt;stroke-linejoin:miter;stroke-opacity:1"
     d="M 61.107775,59.029974 94.232539,26.696249"
     id="path10925"
     inkscape:connector-curvature="0" />
  <path
     style="fill:none;fill-rule:evenodd;stroke:#000000;stroke-width:1px;stroke-linecap:butt;stroke-linejoin:miter;stroke-opacity:1"
     d="M 85.926628,59.029974 119.34803,26.597369"
     id="path10929"
     inkscape:connector-curvature="0" />
  <path
     style="fill:none;fill-rule:evenodd;stroke:#000000;stroke-width:1px;stroke-linecap:butt;stroke-linejoin:miter;stroke-opacity:1"
     d="M 115.88724,59.029974 145.45232,26.498489"
     id="path10931"
     inkscape:connector-curvature="0" />
  <path
     style="fill:none;fill-rule:evenodd;stroke:#000000;stroke-width:1px;stroke-linecap:butt;stroke-linejoin:miter;stroke-opacity:1"
     d="M 140.50833,59.029974 170.76558,26.597369"
     id="path10933"
     inkscape:connector-curvature="0" />
  <path
     style="fill:none;fill-rule:evenodd;stroke:#000000;stroke-width:1px;stroke-linecap:butt;stroke-linejoin:miter;stroke-opacity:1"
     d="M 153.16496,68.423564 196.07883,26.399609"
     id="path10935"
     inkscape:connector-curvature="0" />
  <path
     style="fill:none;fill-rule:evenodd;stroke:#000000;stroke-width:1px;stroke-linecap:butt;stroke-linejoin:miter;stroke-opacity:1"
     d="M 187.17964,62.293011 224.16072,26.498489"
     id="path10937"
     inkscape:connector-curvature="0" />
  <path
     style="fill:none;fill-rule:evenodd;stroke:#000000;stroke-width:1px;stroke-linecap:butt;stroke-linejoin:miter;stroke-opacity:1"
     d="M 221.68872,59.029974 239.09158,41.231593"
     id="path10939"
     inkscape:connector-curvature="0" />
  <path
     style="fill:none;fill-rule:evenodd;stroke:#000000;stroke-width:1px;stroke-linecap:butt;stroke-linejoin:miter;stroke-opacity:1"
     d="M 153.16496,96.505454 175.01741,74.356358"
     id="path10941"
     inkscape:connector-curvature="0" />
  <path
     style="fill:none;fill-rule:evenodd;stroke:#000000;stroke-width:1px;stroke-linecap:butt;stroke-linejoin:miter;stroke-opacity:1"
     d="M 158.80111,121.32431 194.59563,85.925306"
     id="path10943"
     inkscape:connector-curvature="0" />
  <path
     style="fill:none;fill-rule:evenodd;stroke:#000000;stroke-width:1px;stroke-linecap:butt;stroke-linejoin:miter;stroke-opacity:1"
     d="M 183.52108,122.11535 219.41449,86.617465"
     id="path10945"
     inkscape:connector-curvature="0" />
  <path
     style="fill:none;fill-rule:evenodd;stroke:#000000;stroke-width:1px;stroke-linecap:butt;stroke-linejoin:miter;stroke-opacity:1"
     d="m 208.83434,122.11535 29.9606,-31.04829"
     id="path10947"
     inkscape:connector-curvature="0" />
  <path
     style="fill:none;fill-rule:evenodd;stroke:#000000;stroke-width:1px;stroke-linecap:butt;stroke-linejoin:miter;stroke-opacity:1"
     d="m 285.66401,26.300729 17.50175,17.205102"
     id="path10949"
     inkscape:connector-curvature="0" />
  <path
     style="fill:none;fill-rule:evenodd;stroke:#000000;stroke-width:1px;stroke-linecap:butt;stroke-linejoin:miter;stroke-opacity:1"
     d="M 272.21635,26.300729 302.4736,55.766938"
     id="path10951"
     inkscape:connector-curvature="0" />
  <path
     style="fill:none;fill-rule:evenodd;stroke:#000000;stroke-width:1px;stroke-linecap:butt;stroke-linejoin:miter;stroke-opacity:1"
     d="m 259.1642,26.300729 29.66397,29.367329"
     id="path10953"
     inkscape:connector-curvature="0" />
  <path
     style="fill:none;fill-rule:evenodd;stroke:#000000;stroke-width:1px;stroke-linecap:butt;stroke-linejoin:miter;stroke-opacity:1"
     d="m 246.50758,26.399609 30.65276,29.268449"
     id="path10955"
     inkscape:connector-curvature="0" />
  <path
     style="fill:none;fill-rule:evenodd;stroke:#000000;stroke-width:1px;stroke-linecap:butt;stroke-linejoin:miter;stroke-opacity:1"
     d="M 243.24454,36.386479 263.1194,55.766938"
     id="path10957"
     inkscape:connector-curvature="0" />
  <path
     style="fill:none;fill-rule:evenodd;stroke:#000000;stroke-width:1px;stroke-linecap:butt;stroke-linejoin:miter;stroke-opacity:1"
     d="m 243.14566,49.636384 6.32831,6.031674"
     id="path10959"
     inkscape:connector-curvature="0" />
  <path
     style="fill:none;fill-rule:evenodd;stroke:#000000;stroke-width:1px;stroke-linecap:butt;stroke-linejoin:miter;stroke-opacity:1"
     d="m 295.552,88.595063 7.61376,7.613752"
     id="path10961"
     inkscape:connector-curvature="0" />
  <path
     style="fill:none;fill-rule:evenodd;stroke:#000000;stroke-width:1px;stroke-linecap:butt;stroke-linejoin:miter;stroke-opacity:1"
     d="M 283.58754,88.595063 303.06688,108.0744"
     id="path10972"
     inkscape:connector-curvature="0" />
  <path
     style="fill:none;fill-rule:evenodd;stroke:#000000;stroke-width:1px;stroke-linecap:butt;stroke-linejoin:miter;stroke-opacity:1"
     d="m 267.17347,88.496183 35.99229,34.509087"
     id="path10974"
     inkscape:connector-curvature="0" />
  <path
     style="fill:none;fill-rule:evenodd;stroke:#000000;stroke-width:1px;stroke-linecap:butt;stroke-linejoin:miter;stroke-opacity:1"
     d="M 252.04485,88.595063 303.4624,139.81485"
     id="path10976"
     inkscape:connector-curvature="0" />
  <path
     style="fill:none;fill-rule:evenodd;stroke:#000000;stroke-width:1px;stroke-linecap:butt;stroke-linejoin:miter;stroke-opacity:1"
     d="m 243.64006,99.274091 59.62458,59.031299"
     id="path10978"
     inkscape:connector-curvature="0" />
  <path
     style="fill:none;fill-rule:evenodd;stroke:#000000;stroke-width:1px;stroke-linecap:butt;stroke-linejoin:miter;stroke-opacity:1"
     d="m 243.64006,120.33551 59.62458,59.42682"
     id="path10980"
     inkscape:connector-curvature="0" />
  <path
     style="fill:none;fill-rule:evenodd;stroke:#000000;stroke-width:1px;stroke-linecap:butt;stroke-linejoin:miter;stroke-opacity:1"
     d="m 228.80808,126.07054 74.45656,73.56664"
     id="path10982"
     inkscape:connector-curvature="0" />
  <path
     style="fill:none;fill-rule:evenodd;stroke:#000000;stroke-width:1px;stroke-linecap:butt;stroke-linejoin:miter;stroke-opacity:1"
     d="m 244.9255,159.09643 58.43802,58.53689"
     id="path10984"
     inkscape:connector-curvature="0" />
  <path
     style="fill:none;fill-rule:evenodd;stroke:#000000;stroke-width:1px;stroke-linecap:butt;stroke-linejoin:miter;stroke-opacity:1"
     d="m 245.02438,174.91721 58.33914,58.14138"
     id="path10986"
     inkscape:connector-curvature="0" />
  <path
     style="fill:none;fill-rule:evenodd;stroke:#000000;stroke-width:1px;stroke-linecap:butt;stroke-linejoin:miter;stroke-opacity:1"
     d="m 245.12326,193.90215 58.14138,57.84474"
     id="path10988"
     inkscape:connector-curvature="0" />
  <path
     style="fill:none;fill-rule:evenodd;stroke:#000000;stroke-width:1px;stroke-linecap:butt;stroke-linejoin:miter;stroke-opacity:1"
     d="m 245.12326,208.04197 58.14138,57.44922"
     id="path10990"
     inkscape:connector-curvature="0" />
  <path
     style="fill:none;fill-rule:evenodd;stroke:#000000;stroke-width:1px;stroke-linecap:butt;stroke-linejoin:miter;stroke-opacity:1"
     d="m 245.02438,225.54372 41.03515,40.04635"
     id="path10992"
     inkscape:connector-curvature="0" />
  <path
     style="fill:none;fill-rule:evenodd;stroke:#000000;stroke-width:1px;stroke-linecap:butt;stroke-linejoin:miter;stroke-opacity:1"
     d="m 244.9255,241.66114 21.65469,22.44573"
     id="path10994"
     inkscape:connector-curvature="0" />
  <path
     style="fill:none;fill-rule:evenodd;stroke:#000000;stroke-width:1px;stroke-linecap:butt;stroke-linejoin:miter;stroke-opacity:1"
     d="m 244.9255,257.48192 2.57088,2.66976"
     id="path10996"
     inkscape:connector-curvature="0" />
  <path
     style="fill:none;fill-rule:evenodd;stroke:#000000;stroke-width:1;stroke-linecap:butt;stroke-linejoin:miter;stroke-miterlimit:4;stroke-dasharray:none;stroke-opacity:1"
     d="m 211.70185,126.07054 7.92303,7.89803 m 15.59791,15.54871 7.82399,7.79931"
     id="path10998"
     inkscape:connector-curvature="0"
     sodipodi:nodetypes="cccc" />
  <path
     style="fill:none;fill-rule:evenodd;stroke:#000000;stroke-width:1;stroke-linecap:butt;stroke-linejoin:miter;stroke-miterlimit:4;stroke-dasharray:none;stroke-opacity:1"
     d="m 196.86987,126.16942 9.83855,9.83855 m 14.13983,14.13983 7.16879,7.16879"
     id="path11000"
     inkscape:connector-curvature="0"
     sodipodi:nodetypes="cccc" />
  <path
     style="fill:none;fill-rule:evenodd;stroke:#000000;stroke-width:1px;stroke-linecap:butt;stroke-linejoin:miter;stroke-opacity:1"
     d="m 189.65164,136.94733 19.6771,20.56702"
     id="path11002"
     inkscape:connector-curvature="0" />
  <path
     style="fill:none;fill-rule:evenodd;stroke:#000000;stroke-width:1px;stroke-linecap:butt;stroke-linejoin:miter;stroke-opacity:1"
     d="m 189.65164,150.49388 6.82271,7.11935"
     id="path11004"
     inkscape:connector-curvature="0" />
  <path
     style="fill:none;fill-rule:evenodd;stroke:#000000;stroke-width:1px;stroke-linecap:butt;stroke-linejoin:miter;stroke-opacity:1"
     d="M 190.83066,77.097845 196.308,58.620939"
     id="path11025"
     inkscape:connector-curvature="0" />
  <path
     style="fill:none;fill-rule:evenodd;stroke:#000000;stroke-width:1px;stroke-linecap:butt;stroke-linejoin:miter;stroke-opacity:1"
     d="m 193.31372,83.743689 7.44919,-17.965688"
     id="path11027"
     inkscape:connector-curvature="0" />
  <path
     style="fill:none;fill-rule:evenodd;stroke:#000000;stroke-width:1px;stroke-linecap:butt;stroke-linejoin:miter;stroke-opacity:1"
     d="m 195.94285,87.322221 13.07259,-28.55522"
     id="path11029"
     inkscape:connector-curvature="0" />
  <path
     style="fill:none;fill-rule:evenodd;stroke:#000000;stroke-width:1px;stroke-linecap:butt;stroke-linejoin:miter;stroke-opacity:1"
     d="m 205.80207,84.474002 7.9604,-18.038719"
     id="path11031"
     inkscape:connector-curvature="0" />
  <path
     style="fill:none;fill-rule:evenodd;stroke:#000000;stroke-width:1px;stroke-linecap:butt;stroke-linejoin:miter;stroke-opacity:1"
     d="M 214.27369,79.069689 222.015,59.570345"
     id="path11033"
     inkscape:connector-curvature="0" />
  <path
     style="fill:none;fill-rule:evenodd;stroke:#000000;stroke-width:1px;stroke-linecap:butt;stroke-linejoin:miter;stroke-opacity:1"
     d="m 219.38588,86.518877 7.15706,-20.083594"
     id="path11035"
     inkscape:connector-curvature="0" />
  <path
     style="fill:none;fill-rule:evenodd;stroke:#000000;stroke-width:1px;stroke-linecap:butt;stroke-linejoin:miter;stroke-opacity:1"
     d="m 226.61597,79.069689 6.86494,-20.44875"
     id="path11037"
     inkscape:connector-curvature="0" />
  <path
     style="fill:none;fill-rule:evenodd;stroke:#000000;stroke-width:1px;stroke-linecap:butt;stroke-linejoin:miter;stroke-opacity:1"
     d="m 231.87422,86.664939 7.011,-20.156625"
     id="path11039"
     inkscape:connector-curvature="0" />
  <path
     style="fill:none;fill-rule:evenodd;stroke:#000000;stroke-width:1px;stroke-linecap:butt;stroke-linejoin:miter;stroke-opacity:1"
     d="m 238.52007,79.215752 7.74131,-19.791469"
     id="path11041"
     inkscape:connector-curvature="0" />
  <path
     style="fill:none;fill-rule:evenodd;stroke:#000000;stroke-width:1px;stroke-linecap:butt;stroke-linejoin:miter;stroke-opacity:1"
     d="m 243.48619,85.934627 2.04488,-4.454906"
     id="path11043"
     inkscape:connector-curvature="0" />
  <path
     style="fill:none;fill-rule:evenodd;stroke:#000000;stroke-width:1px;stroke-linecap:butt;stroke-linejoin:miter;stroke-opacity:1"
     d="m 252.68813,80.603346 0.87638,-1.533657"
     id="path11045"
     inkscape:connector-curvature="0" />
  <path
     style="fill:none;fill-rule:evenodd;stroke:#000000;stroke-width:1px;stroke-linecap:butt;stroke-linejoin:miter;stroke-opacity:1"
     d="m 256.33969,86.299783 1.89882,-4.162781"
     id="path11047"
     inkscape:connector-curvature="0" />
  <path
     style="fill:none;fill-rule:evenodd;stroke:#000000;stroke-width:1px;stroke-linecap:butt;stroke-linejoin:miter;stroke-opacity:1"
     d="m 267.73257,67.238626 3.21337,-8.033437"
     id="path11049"
     inkscape:connector-curvature="0" />
  <path
     style="fill:none;fill-rule:evenodd;stroke:#000000;stroke-width:1px;stroke-linecap:butt;stroke-linejoin:miter;stroke-opacity:1"
     d="m 268.09772,85.423408 8.10647,-18.988125"
     id="path11051"
     inkscape:connector-curvature="0" />
  <path
     style="fill:none;fill-rule:evenodd;stroke:#000000;stroke-width:1px;stroke-linecap:butt;stroke-linejoin:miter;stroke-opacity:1"
     d="m 276.05813,78.923627 7.37616,-20.010563"
     id="path11053"
     inkscape:connector-curvature="0" />
  <path
     style="fill:none;fill-rule:evenodd;stroke:#000000;stroke-width:1px;stroke-linecap:butt;stroke-linejoin:miter;stroke-opacity:1"
     d="m 280.87819,85.350377 7.66829,-18.988126"
     id="path11055"
     inkscape:connector-curvature="0" />
  <path
     style="fill:none;fill-rule:evenodd;stroke:#000000;stroke-width:1px;stroke-linecap:butt;stroke-linejoin:miter;stroke-opacity:1"
     d="m 288.03526,79.507877 7.08403,-20.886938"
     id="path11057"
     inkscape:connector-curvature="0" />
  <path
     style="fill:none;fill-rule:evenodd;stroke:#000000;stroke-width:1px;stroke-linecap:butt;stroke-linejoin:miter;stroke-opacity:1"
     d="M 294.53504,86.957064 300.59663,66.28922"
     id="path11059"
     inkscape:connector-curvature="0" />
  <text
     xml:space="preserve"
     style="font-style:normal;font-variant:normal;font-weight:normal;font-stretch:condensed;line-height:0%;font-family:'Arial Narrow';-inkscape-font-specification:'Arial Narrow Condensed';text-align:start;letter-spacing:1.10000002px;word-spacing:0px;text-anchor:start;fill:#000000;fill-opacity:1;stroke:none;stroke-width:1px;stroke-linecap:butt;stroke-linejoin:miter;stroke-opacity:1"
     x="31.59231"
     y="80.146164"
     id="text11061"><tspan
       sodipodi:role="line"
       id="tspan11063"
       x="31.59231"
       y="80.146164"
       style="font-size:11.25px;line-height:1.29999995">STATOR  FRAME</tspan></text>
  <text
     xml:space="preserve"
     style="font-style:normal;font-variant:normal;font-weight:normal;font-stretch:condensed;line-height:0%;font-family:'Arial Narrow';-inkscape-font-specification:'Arial Narrow Condensed';text-align:start;letter-spacing:1.10000002px;word-spacing:0px;text-anchor:start;fill:#000000;fill-opacity:1;stroke:none;stroke-width:1px;stroke-linecap:butt;stroke-linejoin:miter;stroke-opacity:1"
     x="250.06226"
     y="77.768806"
     id="text11061-1"><tspan
       sodipodi:role="line"
       id="tspan11063-3"
       x="250.06226"
       y="77.768806"
       style="font-size:11.25px;line-height:1.29999995">B</tspan></text>
  <text
     xml:space="preserve"
     style="font-style:normal;font-variant:normal;font-weight:normal;font-stretch:condensed;line-height:0%;font-family:'Arial Narrow';-inkscape-font-specification:'Arial Narrow Condensed';text-align:start;letter-spacing:1.10000002px;word-spacing:0px;text-anchor:start;fill:#000000;fill-opacity:1;stroke:none;stroke-width:1px;stroke-linecap:butt;stroke-linejoin:miter;stroke-opacity:1"
     x="211.63918"
     y="145.86304"
     id="text11061-6"><tspan
       sodipodi:role="line"
       id="tspan11063-4"
       x="211.63918"
       y="145.86304"
       style="font-size:11.25px;line-height:1.29999995">A</tspan></text>
  <text
     xml:space="preserve"
     style="font-style:normal;font-variant:normal;font-weight:normal;font-stretch:condensed;line-height:0%;font-family:'Arial Narrow';-inkscape-font-specification:'Arial Narrow Condensed';text-align:start;letter-spacing:1.10000002px;word-spacing:0px;text-anchor:start;fill:#000000;fill-opacity:1;stroke:none;stroke-width:1px;stroke-linecap:butt;stroke-linejoin:miter;stroke-opacity:1"
     x="125.61417"
     y="145.22266"
     id="text11061-3"><tspan
       sodipodi:role="line"
       id="tspan11063-0"
       x="125.61417"
       y="145.22266"
       style="font-size:11.25px;line-height:1.29999995">C</tspan></text>
  <text
     xml:space="preserve"
     style="font-style:normal;font-variant:normal;font-weight:normal;font-stretch:condensed;line-height:0%;font-family:'Arial Narrow';-inkscape-font-specification:'Arial Narrow Condensed';text-align:start;letter-spacing:1.10000002px;word-spacing:0px;text-anchor:start;fill:#000000;fill-opacity:1;stroke:none;stroke-width:1px;stroke-linecap:butt;stroke-linejoin:miter;stroke-opacity:1"
     x="263.04092"
     y="21.20149"
     id="text11061-3-3"><tspan
       sodipodi:role="line"
       id="tspan11063-0-2"
       x="263.04092"
       y="21.20149"
       style="font-size:11.25px;line-height:1.29999995">D</tspan></text>
  <text
     xml:space="preserve"
     style="font-style:normal;font-variant:normal;font-weight:normal;font-stretch:condensed;line-height:0%;font-family:'Arial Narrow';-inkscape-font-specification:'Arial Narrow Condensed';text-align:start;letter-spacing:1.10000002px;word-spacing:0px;text-anchor:start;fill:#000000;fill-opacity:1;stroke:none;stroke-width:1px;stroke-linecap:butt;stroke-linejoin:miter;stroke-opacity:1"
     x="348.63901"
     y="203.92458"
     id="text11061-3-4"><tspan
       sodipodi:role="line"
       id="tspan11063-0-0"
       x="348.63901"
       y="203.92458"
       style="font-size:11.25px;line-height:1.29999995">END  BRACKET</tspan></text>
  <text
     xml:space="preserve"
     style="font-style:normal;font-variant:normal;font-weight:normal;font-stretch:condensed;line-height:0%;font-family:'Arial Narrow';-inkscape-font-specification:'Arial Narrow Condensed';text-align:start;letter-spacing:3.06999993px;word-spacing:0px;text-anchor:start;fill:#000000;fill-opacity:1;stroke:none;stroke-width:1px;stroke-linecap:butt;stroke-linejoin:miter;stroke-opacity:1"
     x="54.493622"
     y="311.9592"
     id="text11061-3-6"><tspan
       sodipodi:role="line"
       id="tspan11063-0-07"
       x="54.493622"
       y="311.9592"
       style="font-size:11.25px;line-height:2.54999995">A = Width of Axial Portion</tspan><tspan
       sodipodi:role="line"
       x="54.493622"
       y="340.6467"
       id="tspan11133"
       style="font-size:11.25px;line-height:2.54999995">B = Width of Clamped radial portion</tspan><tspan
       sodipodi:role="line"
       x="54.493622"
       y="369.3342"
       id="tspan11135"
       style="font-size:11.25px;line-height:2.54999995">C = Clearance of Axial Portion</tspan><tspan
       sodipodi:role="line"
       x="54.493622"
       y="398.0217"
       id="tspan11137"
       style="font-size:11.25px;line-height:2.54999995">D = Cleatance of Radial Portion</tspan><tspan
       sodipodi:role="line"
       x="54.493622"
       y="426.7092"
       id="tspan11139"
       style="font-size:11.25px;line-height:2.54999995">Total Width of Flamepath = A + B</tspan></text>
  <text
     xml:space="preserve"
     style="font-style:normal;font-variant:normal;font-weight:normal;font-stretch:condensed;line-height:0%;font-family:'Arial Narrow';-inkscape-font-specification:'Arial Narrow Condensed';text-align:start;letter-spacing:1.27999997px;word-spacing:3.17999983px;text-anchor:start;fill:#000000;fill-opacity:1;stroke:none;stroke-width:1px;stroke-linecap:butt;stroke-linejoin:miter;stroke-opacity:1"
     x="124.6417"
     y="543.98035"
     id="text11061-3-9"><tspan
       sodipodi:role="line"
       id="tspan11063-0-8"
       x="124.6417"
       y="543.98035"
       style="font-size:11.25px;line-height:1.29999995">FIGURE J─6</tspan></text>
  <flowRoot
     xml:space="preserve"
     id="flowRoot11149"
     style="font-style:normal;font-variant:normal;font-weight:normal;font-stretch:normal;line-height:0.01%;font-family:Arial;-inkscape-font-specification:Arial;text-align:start;letter-spacing:0px;word-spacing:0px;text-anchor:start;fill:#000000;fill-opacity:1;stroke:none;stroke-width:1px;stroke-linecap:butt;stroke-linejoin:miter;stroke-opacity:1"><flowRegion
       id="flowRegion11151"><rect
         id="rect11153"
         width="379.62"
         height="430.35001"
         x="-75.239998"
         y="361.95001" /></flowRegion><flowPara
       id="flowPara11155"
       style="font-size:12.5px;line-height:1.29999995"> </flowPara></flowRoot></svg>
