<?xml version="1.0" encoding="UTF-8" standalone="no"?>
<!-- Created with Inkscape (http://www.inkscape.org/) -->

<svg
   xmlns:dc="http://purl.org/dc/elements/1.1/"
   xmlns:cc="http://creativecommons.org/ns#"
   xmlns:rdf="http://www.w3.org/1999/02/22-rdf-syntax-ns#"
   xmlns:svg="http://www.w3.org/2000/svg"
   xmlns="http://www.w3.org/2000/svg"
   xmlns:xlink="http://www.w3.org/1999/xlink"
   xmlns:sodipodi="http://sodipodi.sourceforge.net/DTD/sodipodi-0.dtd"
   xmlns:inkscape="http://www.inkscape.org/namespaces/inkscape"
   id="svg3390"
   version="1.1"
   inkscape:version="0.92.2 5c3e80d, 2017-08-06"
   width="551.42395"
   height="343.29602"
   viewBox="0 0 516.95996 321.84003"
   sodipodi:docname="ec25oc91.005.svg">
  <metadata
     id="metadata3396">
    <rdf:RDF>
      <cc:Work
         rdf:about="">
        <dc:format>image/svg+xml</dc:format>
        <dc:type
           rdf:resource="http://purl.org/dc/dcmitype/StillImage" />
        <dc:title></dc:title>
      </cc:Work>
    </rdf:RDF>
  </metadata>
  <defs
     id="defs3394">
    <path
       style="fill:none;stroke:none;stroke-width:1;stroke-linecap:butt;stroke-linejoin:miter;stroke-miterlimit:4;stroke-dasharray:none;stroke-opacity:1"
       d="m 252.23031,104.33503 c 11.01695,-13.380052 39.36901,-12.548358 51.01844,-0.29178"
       id="path14359-1-7-5-3-0-73-1-9-8-1-9"
       inkscape:connector-curvature="0"
       sodipodi:nodetypes="cc" />
    <path
       style="fill:none;stroke:none;stroke-width:1;stroke-linecap:butt;stroke-linejoin:miter;stroke-miterlimit:4;stroke-dasharray:none;stroke-opacity:1"
       d="m 252.23031,104.33503 c 11.01695,-13.380052 39.36901,-12.548358 51.01844,-0.29178"
       id="path14359-1-7-5-3-0-73-1-9-8-1-5"
       inkscape:connector-curvature="0"
       sodipodi:nodetypes="cc" />
  </defs>
  <sodipodi:namedview
     pagecolor="#ffffff"
     bordercolor="#666666"
     borderopacity="1"
     objecttolerance="10"
     gridtolerance="10"
     guidetolerance="10"
     inkscape:pageopacity="0"
     inkscape:pageshadow="2"
     inkscape:window-width="1280"
     inkscape:window-height="756"
     id="namedview3392"
     showgrid="false"
     inkscape:zoom="1.0319883"
     inkscape:cx="293.05566"
     inkscape:cy="141.83301"
     inkscape:window-x="0"
     inkscape:window-y="0"
     inkscape:window-maximized="0"
     inkscape:current-layer="svg3390"
     fit-margin-top="0"
     fit-margin-left="0"
     fit-margin-right="0"
     fit-margin-bottom="0" />
  <path
     style="fill:#000000;fill-opacity:1;fill-rule:evenodd;stroke:#000000;stroke-width:1px;stroke-linecap:round;stroke-linejoin:round;stroke-opacity:1"
     d="m 273.93522,121.58439 c -0.0866,-0.53356 -0.26013,-1.0653 -0.50287,-1.52478 -0.46118,-0.39872 -1.10314,-0.74966 -1.71978,-0.49301 -0.26921,0.0907 -0.81253,0.11978 -0.88823,0.41937 -0.55082,-0.31946 -0.50447,-0.38965 -0.33252,-0.96436 0,0 0.0921,-0.69601 0.50941,-1.59896 -0.33189,0.73744 -0.31297,1.46503 0.13557,1.72166 0.71924,-0.12259 1.44972,-0.0685 2.17514,-0.0799 0.49371,0.0181 0.80559,0.0179 1.15151,0.39472 0.24434,0.0612 0.90848,0.43626 0.40379,0.53071 -0.65931,0.27641 -0.19071,1.10041 0.32581,1.22698 -0.0889,0.31201 -0.67022,0.34561 -0.7421,0.7628 -0.62208,0.98391 -0.77069,2.1708 -1.28693,3.2032 -0.0834,0.50224 -0.20957,1.00892 -0.57213,1.38357 -0.26693,0.44984 -0.44881,1.10499 -0.0458,1.53356 0.50484,0.29201 1.14511,0.42329 1.71106,0.2832 0.17262,-0.0888 0.38481,-0.29014 0.38481,-0.29014 -0.0417,0.60856 -0.63558,0.7753 -1.12885,0.56522 -0.71871,-0.16616 -0.96702,-0.55828 -2.00759,-0.78669 1.25812,-1.86208 2.35865,-4.31123 2.4297,-6.28713 z"
     id="path4238"
     inkscape:connector-curvature="0"
     sodipodi:nodetypes="cccccccccccccccccccc" />
  <path
     style="fill:#000000;fill-opacity:1;fill-rule:evenodd;stroke:#000000;stroke-width:1px;stroke-linecap:round;stroke-linejoin:round;stroke-opacity:1"
     d="m 274.16328,116.2213 c 0.86925,0.0851 1.51624,-0.96388 2.37649,-0.36478 0.82828,0.54969 1.80667,0.0246 2.64307,0.44352 0.64826,0.48494 1.32705,1.06201 1.5403,1.88196 0.63677,0.96289 0.72573,2.20753 0.61152,3.32502 -0.32763,1.06685 -0.002,2.11102 0.54729,3.02921 0.43556,1.01072 0.9708,1.99256 1.76466,2.76726 0.56413,0.86669 -0.94971,0.0126 -1.40634,0.40915 -0.41932,0.0846 -0.98517,0.3868 -0.41873,0.1227 1.00698,-0.62363 0.6208,-1.7429 -0.0372,-2.263 -0.0815,-0.88016 -0.28249,-1.77594 -1.32367,-1.97072 -0.34062,-0.20148 -1.24176,-0.0998 -0.4037,-0.456 0.79431,-0.87527 -1.81338,-1.26656 -0.4224,-1.82239 0.77901,-0.43002 0.75694,-1.38215 0.80164,-2.15277 -0.10603,-0.89594 -0.60361,-1.70992 -0.95798,-2.53279 -0.43899,-0.66685 -1.93441,-0.7602 -2.19368,0.0776 -0.0963,0.56198 1.1681,1.12673 0.01,1.02493 -0.97975,-0.17373 -2.1596,-0.0147 -2.3714,1.15233 -0.27531,-0.46332 0.10606,-1.84282 -0.90365,-1.99153 -0.57403,-0.52012 -1.71224,-0.50363 -2.32408,-0.18962 0.80465,-0.50512 0.88891,-0.36762 2.46792,-0.49003 z"
     id="path4242"
     inkscape:connector-curvature="0"
     sodipodi:nodetypes="ccccccccccccccccccccc" />
  <path
     style="fill:none;fill-rule:evenodd;stroke:#000000;stroke-width:1px;stroke-linecap:round;stroke-linejoin:round;stroke-opacity:1"
     d="m 278.29506,123.23324 c -0.0157,0.28047 -0.0851,0.42914 -0.0845,0.73067"
     id="path4247"
     inkscape:connector-curvature="0" />
  <path
     style="fill:none;fill-rule:evenodd;stroke:#000000;stroke-width:1px;stroke-linecap:round;stroke-linejoin:round;stroke-opacity:1"
     d="m 278.98512,124.56405 c -0.32859,0.61551 -0.7303,0.10869 -0.73067,-0.0846"
     id="path4249"
     inkscape:connector-curvature="0" />
  <path
     style="fill:none;fill-rule:evenodd;stroke:#000000;stroke-width:1px;stroke-linecap:round;stroke-linejoin:round;stroke-opacity:1"
     d="m 280.27636,125.67884 c 0.43647,0.90731 -0.77282,0.34329 -0.77209,0.73198"
     id="path4251"
     inkscape:connector-curvature="0" />
  <path
     style="fill:none;fill-rule:evenodd;stroke:#000000;stroke-width:1px;stroke-linecap:round;stroke-linejoin:round;stroke-opacity:1"
     d="m 280.71129,128.42817 c -0.36732,0.73386 -1.34144,-0.47014 -0.98924,-0.4708 0.0453,-9e-5 -0.0225,0.0884 -0.0428,0.12899 -0.0856,0.17205 -0.12122,0.38 -0.25685,0.51614"
     id="path4253"
     inkscape:connector-curvature="0" />
  <path
     style="fill:none;fill-rule:evenodd;stroke:#000000;stroke-width:1px;stroke-linecap:round;stroke-linejoin:round;stroke-opacity:1"
     d="m 278.99366,129.076 c -0.099,0.48576 -0.0517,0.0519 -0.17155,0.1722"
     id="path4255"
     inkscape:connector-curvature="0" />
  <path
     style="fill:none;fill-rule:evenodd;stroke:#000000;stroke-width:1px;stroke-linecap:round;stroke-linejoin:round;stroke-opacity:1"
     d="m 277.53103,128.21934 c -0.15475,0.13599 -0.21234,0.17156 -0.34337,0.21551"
     id="path4257"
     inkscape:connector-curvature="0" />
  <path
     style="fill:none;fill-rule:evenodd;stroke:#000000;stroke-width:1px;stroke-linecap:round;stroke-linejoin:round;stroke-opacity:1"
     d="m 276.75901,128.99428 c -0.0568,0.12149 -0.12571,0.23243 -0.17131,0.30113"
     id="path4259"
     inkscape:connector-curvature="0" />
  <path
     style="fill:none;fill-rule:evenodd;stroke:#000000;stroke-width:1px;stroke-linecap:round;stroke-linejoin:round;stroke-opacity:1"
     d="m 276.11591,129.76898 c -0.0237,0.20759 -0.0904,0.17683 -0.17139,0.25816"
     id="path4261"
     inkscape:connector-curvature="0" />
  <path
     style="fill:none;fill-rule:evenodd;stroke:#000000;stroke-width:1px;stroke-linecap:round;stroke-linejoin:round;stroke-opacity:1"
     d="m 278.88705,118.16153 c -0.0127,0.18702 8.2e-4,0.34426 0.0439,0.4726"
     id="path4263"
     inkscape:connector-curvature="0" />
  <path
     style="fill:none;fill-rule:evenodd;stroke:#000000;stroke-width:1px;stroke-linecap:round;stroke-linejoin:round;stroke-opacity:1"
     d="m 274.14845,134.62845 -0.34296,0.43036"
     id="path4265"
     inkscape:connector-curvature="0" />
  <path
     style="fill:none;fill-rule:evenodd;stroke:#000000;stroke-width:1px;stroke-linecap:round;stroke-linejoin:round;stroke-opacity:1"
     d="m 275.26854,136.13032 c 0.0389,0.27596 0.10533,0.57038 0.17335,0.77315"
     id="path4267"
     inkscape:connector-curvature="0" />
  <path
     style="fill:none;fill-rule:evenodd;stroke:#000000;stroke-width:1px;stroke-linecap:round;stroke-linejoin:round;stroke-opacity:1"
     d="m 275.91229,135.69939 c 0.26508,0.0589 0.17052,0.0427 0.34385,0.0423"
     id="path4269"
     inkscape:connector-curvature="0" />
  <path
     style="fill:none;fill-rule:evenodd;stroke:#000000;stroke-width:1px;stroke-linecap:round;stroke-linejoin:round;stroke-opacity:1"
     d="m 275.39314,133.85261 -7.3e-4,-0.38674 c -0.0883,-0.0342 0.0753,-0.14968 0.0426,-0.21493 -0.37992,-0.75627 1.06922,-0.69332 1.20213,-0.56091 0.11779,0.11735 0.17262,0.38795 0.1731,0.64424"
     id="path4271"
     inkscape:connector-curvature="0" />
  <path
     style="fill:none;fill-rule:evenodd;stroke:#000000;stroke-width:1px;stroke-linecap:round;stroke-linejoin:round;stroke-opacity:1"
     d="m 276.29179,131.87423 c -0.14584,0.15001 -0.2133,0.12933 -0.3865,0.12965"
     id="path4273"
     inkscape:connector-curvature="0" />
  <path
     style="fill:none;fill-rule:evenodd;stroke:#000000;stroke-width:1px;stroke-linecap:round;stroke-linejoin:round;stroke-opacity:1"
     d="m 279.77642,133.97321 c -0.25822,0.0566 -0.44323,0.11425 -0.55797,0.34483 -0.35189,0.70712 0.0601,0.65557 -0.0841,0.94553 -0.0908,0.18249 -1.33552,1.53116 -1.54386,1.63583 -0.0773,0.0388 -0.189,-0.0255 -0.25775,0.0435 -0.388,0.38947 -0.61739,1.26553 -0.98524,1.63477"
     id="path4275"
     inkscape:connector-curvature="0" />
  <path
     style="fill:none;fill-rule:evenodd;stroke:#000000;stroke-width:1px;stroke-linecap:round;stroke-linejoin:round;stroke-opacity:1"
     d="m 280.12605,137.06648 c -0.0757,0.34911 -0.55786,0.17205 -0.68673,0.43101 -0.027,0.0542 0.0417,0.21649 4.9e-4,0.25783 -0.16262,0.16324 -0.45948,0.20291 -0.64382,0.38796 -0.28397,0.28504 -0.34385,0.86178 -0.64238,1.16143 -0.23021,0.23108 -0.51079,0.50491 -0.60012,0.77462"
     id="path4279"
     inkscape:connector-curvature="0" />
  <path
     style="fill:none;fill-rule:evenodd;stroke:#000000;stroke-width:1;stroke-linecap:round;stroke-linejoin:round;stroke-miterlimit:4;stroke-dasharray:none;stroke-opacity:1"
     d="m 284.75063,128.46349 2.1381,0.005 c 0.84173,0.002 1.07531,-1.44746 0.61642,-2.26444 l -0.56738,-1.01012 c -0.67081,-1.19427 -0.4105,-2.36925 0.49949,-3.12213 l 3.05526,-2.52778 c 0.51523,-0.42628 1.08951,-0.56517 1.71751,-0.57032 l 30.55159,-0.25049"
     id="path9827"
     inkscape:connector-curvature="0"
     sodipodi:nodetypes="cssssssc" />
  <path
     style="fill:none;fill-rule:evenodd;stroke:#000000;stroke-width:1;stroke-linecap:round;stroke-linejoin:round;stroke-miterlimit:4;stroke-dasharray:none;stroke-opacity:1"
     d="m 270.20476,128.37906 -1.62241,0.0121 c -0.84172,0.007 -1.25288,-1.12534 -0.75326,-1.91808 l 0.69229,-1.09844 c 0.73035,-1.15883 -0.0273,-3.10326 -0.9424,-3.84991 l -2.97871,-2.43041 c -0.51813,-0.42276 -1.09168,-0.55663 -1.71966,-0.56381 l -30.55273,-0.34961"
     id="path9827-9"
     inkscape:connector-curvature="0"
     sodipodi:nodetypes="cssssssc" />
  <path
     style="opacity:1;fill:none;fill-opacity:1;fill-rule:evenodd;stroke:#000000;stroke-width:1;stroke-linecap:round;stroke-linejoin:round;stroke-miterlimit:4;stroke-dasharray:none;stroke-dashoffset:0;stroke-opacity:1"
     inkscape:transform-center-x="0.0046772308"
     inkscape:transform-center-y="-0.37172117"
     d="m 244.85755,153.23244 -2.33394,-1.72114 -2.30864,1.73318 0.92485,-2.75026 -2.37561,-1.67647 2.91,0.0606 0.85575,-2.77551 0.86405,2.75905 2.88454,-0.0337 -2.34932,1.66725 z"
     id="path9854"
     inkscape:connector-curvature="0" />
  <path
     style="opacity:1;fill:none;fill-opacity:1;fill-rule:evenodd;stroke:#000000;stroke-width:1;stroke-linecap:round;stroke-linejoin:round;stroke-miterlimit:4;stroke-dasharray:none;stroke-dashoffset:0;stroke-opacity:1"
     inkscape:transform-center-x="0.0046795469"
     inkscape:transform-center-y="-0.37171938"
     d="m 317.71682,163.72921 -2.33395,-1.72115 -2.30864,1.73319 0.92485,-2.75026 -2.37561,-1.67647 2.91,0.0606 0.85575,-2.77551 0.86406,2.75905 2.88453,-0.0337 -2.34932,1.66725 z"
     id="path9854-3"
     inkscape:connector-curvature="0" />
  <path
     style="opacity:1;fill:none;fill-opacity:1;fill-rule:evenodd;stroke:#000000;stroke-width:1;stroke-linecap:round;stroke-linejoin:round;stroke-miterlimit:4;stroke-dasharray:none;stroke-dashoffset:0;stroke-opacity:1"
     inkscape:transform-center-x="0.0046779268"
     inkscape:transform-center-y="-0.37171693"
     d="m 315.4277,153.5857 -2.33394,-1.72114 -2.30865,1.73319 0.92486,-2.75026 -2.37561,-1.67647 2.91,0.0606 0.85574,-2.77551 0.86406,2.75905 2.88453,-0.0337 -2.34932,1.66726 z"
     id="path9854-5"
     inkscape:connector-curvature="0" />
  <path
     style="opacity:1;fill:none;fill-opacity:1;fill-rule:evenodd;stroke:#000000;stroke-width:1;stroke-linecap:round;stroke-linejoin:round;stroke-miterlimit:4;stroke-dasharray:none;stroke-dashoffset:0;stroke-opacity:1"
     inkscape:transform-center-x="0.0046766085"
     inkscape:transform-center-y="-0.37171844"
     d="m 305.01285,153.60543 -2.33395,-1.72114 -2.30864,1.73318 0.92486,-2.75025 -2.37561,-1.67648 2.91,0.0606 0.85574,-2.7755 0.86406,2.75904 2.88453,-0.0337 -2.34932,1.66725 z"
     id="path9854-6"
     inkscape:connector-curvature="0" />
  <path
     style="opacity:1;fill:none;fill-opacity:1;fill-rule:evenodd;stroke:#000000;stroke-width:1;stroke-linecap:round;stroke-linejoin:round;stroke-miterlimit:4;stroke-dasharray:none;stroke-dashoffset:0;stroke-opacity:1"
     inkscape:transform-center-x="0.0046753647"
     inkscape:transform-center-y="-0.37172042"
     d="m 305.12538,142.52272 -2.33395,-1.72115 -2.30864,1.73319 0.92485,-2.75026 -2.3756,-1.67647 2.91,0.0606 0.85574,-2.77551 0.86406,2.75905 2.88453,-0.0337 -2.34932,1.66725 z"
     id="path9854-8"
     inkscape:connector-curvature="0" />
  <path
     style="opacity:1;fill:none;fill-opacity:1;fill-rule:evenodd;stroke:#000000;stroke-width:1;stroke-linecap:round;stroke-linejoin:round;stroke-miterlimit:4;stroke-dasharray:none;stroke-dashoffset:0;stroke-opacity:1"
     inkscape:transform-center-x="0.0046754418"
     inkscape:transform-center-y="-0.37171667"
     d="m 242.40995,164.13889 -2.33395,-1.72114 -2.30864,1.73319 0.92485,-2.75026 -2.3756,-1.67647 2.91,0.0606 0.85574,-2.77551 0.86406,2.75905 2.88453,-0.0337 -2.34932,1.66726 z"
     id="path9854-1"
     inkscape:connector-curvature="0" />
  <path
     style="opacity:1;fill:none;fill-opacity:1;fill-rule:evenodd;stroke:#000000;stroke-width:1;stroke-linecap:round;stroke-linejoin:round;stroke-miterlimit:4;stroke-dasharray:none;stroke-dashoffset:0;stroke-opacity:1"
     inkscape:transform-center-x="0.004679341"
     inkscape:transform-center-y="-0.37171754"
     d="m 255.20749,153.16567 -2.33395,-1.72114 -2.30864,1.73319 0.92485,-2.75026 -2.37561,-1.67647 2.91,0.0606 0.85575,-2.77551 0.86406,2.75905 2.88453,-0.0337 -2.34932,1.66725 z"
     id="path9854-59"
     inkscape:connector-curvature="0" />
  <path
     style="opacity:1;fill:none;fill-opacity:1;fill-rule:evenodd;stroke:#000000;stroke-width:1;stroke-linecap:round;stroke-linejoin:round;stroke-miterlimit:4;stroke-dasharray:none;stroke-dashoffset:0;stroke-opacity:1"
     inkscape:transform-center-x="0.0046780783"
     inkscape:transform-center-y="-0.37171951"
     d="m 255.32003,142.08295 -2.33395,-1.72114 -2.30864,1.73318 0.92485,-2.75025 -2.37561,-1.67648 2.91,0.0606 0.85575,-2.7755 0.86405,2.75905 2.88454,-0.0337 -2.34932,1.66725 z"
     id="path9854-9"
     inkscape:connector-curvature="0" />
  <path
     style="opacity:1;fill:none;fill-opacity:1;fill-rule:evenodd;stroke:#000000;stroke-width:1;stroke-linecap:round;stroke-linejoin:round;stroke-miterlimit:4;stroke-dasharray:none;stroke-dashoffset:0;stroke-opacity:1"
     inkscape:transform-center-x="0.22979035"
     inkscape:transform-center-y="0.14856602"
     d="m 296.00506,116.52311 -0.34123,-2.87979 -2.8435,-0.49827 2.63872,-1.20683 -0.40231,-2.87962 1.9465,2.164 2.60986,-1.27452 -1.42135,2.51768 1.99782,2.08095 -2.82323,-0.57305 z"
     id="path9854-68"
     inkscape:connector-curvature="0" />
  <path
     style="opacity:1;fill:none;fill-opacity:1;fill-rule:evenodd;stroke:#000000;stroke-width:1;stroke-linecap:round;stroke-linejoin:round;stroke-miterlimit:4;stroke-dasharray:none;stroke-dashoffset:0;stroke-opacity:1"
     inkscape:transform-center-x="-0.17540429"
     inkscape:transform-center-y="0.20285818"
     d="m 262.57637,113.22372 -2.87146,0.40543 -0.43466,2.8539 -1.26544,-2.6111 -2.86992,0.46648 2.12,-1.99433 -1.33246,-2.58075 2.54878,1.3648 2.03583,-2.04379 -0.50988,2.83533 z"
     id="path9854-80"
     inkscape:connector-curvature="0" />
  <path
     style="opacity:1;fill:none;fill-opacity:1;fill-rule:evenodd;stroke:#000000;stroke-width:1;stroke-linecap:round;stroke-linejoin:round;stroke-miterlimit:4;stroke-dasharray:none;stroke-dashoffset:0;stroke-opacity:1"
     inkscape:transform-center-x="0.27876471"
     inkscape:transform-center-y="0.10524824"
     d="m 270.60022,108.58813 -2.81905,-0.68013 -1.45477,2.49347 -0.21532,-2.8936 -2.84011,-0.6228 2.7053,-1.07382 -0.2888,-2.89004 1.86735,2.20726 2.64525,-1.15079 -1.51786,2.4485 z"
     id="path9854-36"
     inkscape:connector-curvature="0" />
  <path
     style="opacity:1;fill:none;fill-opacity:1;fill-rule:evenodd;stroke:#000000;stroke-width:1;stroke-linecap:round;stroke-linejoin:round;stroke-miterlimit:4;stroke-dasharray:none;stroke-dashoffset:0;stroke-opacity:1"
     inkscape:transform-center-x="-0.35407813"
     inkscape:transform-center-y="0.027937058"
     d="m 289.46281,110.29328 -1.63683,-2.39383 -2.75068,0.87609 1.77909,-2.29218 -1.69089,-2.36537 2.72768,1.01565 1.72214,-2.33878 -0.0929,2.88969 2.73466,0.91827 -2.76736,0.80044 z"
     id="path9854-10"
     inkscape:connector-curvature="0" />
  <path
     style="opacity:1;fill:none;fill-opacity:1;fill-rule:evenodd;stroke:#000000;stroke-width:1;stroke-linecap:round;stroke-linejoin:round;stroke-miterlimit:4;stroke-dasharray:none;stroke-dashoffset:0;stroke-opacity:1"
     inkscape:transform-center-x="0.0046798149"
     inkscape:transform-center-y="-0.371722"
     d="m 279.82313,107.5873 -2.33394,-1.72114 -2.30864,1.73318 0.92485,-2.75025 -2.37561,-1.67648 2.91,0.0606 0.85574,-2.77551 0.86406,2.75905 2.88453,-0.0337 -2.34931,1.66725 z"
     id="path9854-7"
     inkscape:connector-curvature="0" />
  <path
     style="fill:none;stroke:#000000;stroke-width:2;stroke-linecap:butt;stroke-linejoin:miter;stroke-miterlimit:4;stroke-dasharray:none;stroke-opacity:1"
     d="M 506.084,70.086924 506.082,314.0188 H 12.720605 l 0.002,-243.931876 z"
     id="path14359-1-7-5-3-0-73-1-9-8"
     inkscape:connector-curvature="0"
     sodipodi:nodetypes="ccccc" />
  <path
     style="fill:none;stroke:#000000;stroke-width:1;stroke-linecap:round;stroke-linejoin:round;stroke-miterlimit:4;stroke-dasharray:none;stroke-opacity:1"
     d="m 241.70906,112.0716 c -0.83024,0.17046 -2.36217,2.91856 -4.05912,6.0382 m -2.43401,4.72777 c -0.97108,1.78275 -1.3467,3.19308 -1.09389,3.59844 -1.33541,-1.04209 -4.16892,-0.32297 -4.86549,1.36587 -6.71918,16.29062 -9.02421,37.25308 -4.53668,54.42043 0.62835,2.4038 2.36116,2.55299 4.49888,2.65766 -0.53108,5.23339 0.74836,9.90105 3.50695,13.21616 0.49811,-1.87857 1.3728,-3.38056 2.35596,-4.77407 1.81673,1.00177 3.73397,1.60153 5.79482,1.62681 0.52741,0.006 1.04158,-0.29863 0.42726,-1.54989 -1.70149,-3.46568 -2.24977,-7.7439 -1.76756,-11.53783 0.19351,-1.52252 -0.46328,-1.22792 -0.84503,-1.7218 0.7032,-0.12468 1.17567,-0.30979 1.34737,-1.13626 0.40388,-1.94415 0.28883,-3.90633 -1.48487,-4.68797 -1.23267,-0.54322 -2.48882,0.9841 -1.74041,2.36214 0.84424,1.55452 2.34621,3.38135 0.86844,4.74816 -0.76416,0.70677 -2.79348,-0.89073 -3.18406,-2.75046 -3.17656,-15.12504 0.1846,-34.56334 4.62747,-47.96625 0.40548,-1.22321 0.90856,-1.39032 1.57926,-1.10168 1.56603,0.67395 -1.68896,6.3075 -0.0769,7.41747 0.80924,0.55721 1.58136,-1.14521 2.06792,-3.19552 0.43473,-1.83195 0.64028,-4.29925 2.18403,-6.11518"
     id="path14359-1-7-5-3-0-73-1-9-8-4"
     inkscape:connector-curvature="0"
     sodipodi:nodetypes="ccccsscccssscsssssssssc" />
  <path
     style="fill:none;stroke:#000000;stroke-width:1;stroke-linecap:round;stroke-linejoin:round;stroke-miterlimit:4;stroke-dasharray:none;stroke-opacity:1"
     d="m 246.54445,214.76164 0.002,-58.13197 h 62.47581 l -0.002,58.13197 c -1.4e-4,3.99257 -4.1671,7.52966 -7.63041,7.52966 h -13.63479 c -4.34084,0 -7.39852,2.08567 -9.86996,4.47709 -2.69764,-2.48384 -4.60907,-4.47709 -9.15769,-4.47709 h -13.22777 c -4.61291,0 -8.95532,-3.66191 -8.95519,-7.52966 z"
     id="path14359-1-7-5-3-0-73-1-9-8-4-0"
     inkscape:connector-curvature="0"
     sodipodi:nodetypes="sccssscsss" />
  <path
     style="fill:#000000;fill-opacity:1;stroke:#000000;stroke-width:1;stroke-linecap:round;stroke-linejoin:round;stroke-miterlimit:4;stroke-dasharray:none;stroke-opacity:1"
     d="m 246.54644,156.62967 -0.002,22.67101 c 0.005,-1.07517 5.43484,-1.17883 5.43484,0 v 42.18684 c 1.16071,0.52367 2.54695,0.78124 3.54562,0.78124 h 0.84133 v -42.96808 c 0,-1.22194 4.92781,-1.22194 4.92781,0 v 42.84789 h 4.32686 v -42.84789 c 0,-1.34213 5.28838,-1.34213 5.28838,0 v 43.08827 c 1.36216,0.24272 2.72431,0.76068 4.08647,1.80286 v -44.89113 c 0,-1.28399 5.64895,-1.34359 5.64895,0 v 45.1916 c 1.15554,-0.94667 2.41033,-1.49634 3.72591,-1.80285 v -43.38875 c 0,-1.28779 5.70904,-1.32978 5.70904,0 v 42.90799 h 3.786 v -42.90799 c 0,-1.23055 5.64895,-1.07209 5.64895,0 v 42.96808 h 1.86296 c 0.92681,0 1.85333,-0.16466 2.4639,-0.72114 v -42.24694 c 0,-1.06614 5.12746,-1.054 5.07705,0 l 0.002,-22.67101 -19.0489,-0.002 c -0.35808,-0.35508 -0.74525,-0.75082 -0.5656,-0.93116 0.2484,-0.24935 0.47492,-0.52202 0.72183,-0.76986 0.22609,-0.22695 -0.0539,-1.03293 0.17843,-1.2661 0.75736,-0.76023 0.90372,-0.21276 0.90112,-1.5839 -0.002,-0.91097 0.35874,-1.53269 0.35684,-2.5322 -5e-4,-0.26311 -0.11499,-1.37793 -0.27414,-1.53648 -0.0557,-0.0555 -0.0566,0.15763 -0.0449,0.18092 0.28386,0.565 0.28014,1.89279 -0.13125,2.30573 -0.19414,0.19488 -0.52342,0.0141 -0.76823,0.13707 -0.1499,0.0753 -0.49606,0.0472 -0.58775,-0.0441 -0.16239,-0.16176 -0.58456,0.004 -0.76885,-0.17937 -0.0934,-0.093 -0.85946,-0.28906 -0.85968,-0.40522 -10e-6,-0.007 0.47409,0.23592 0.81448,0.40531 0.56029,0.27882 1.37524,0.51276 1.71944,0.85565 0.15146,0.1509 0.18183,0.53524 0.18236,0.81336 0.001,0.64293 -0.53543,0.76391 -0.85685,1.08656 -0.15885,0.15946 -0.79574,-0.37882 -1.03998,-0.13365 -0.16897,0.16962 1.24018,0.54814 0.90642,1.21884 -0.11897,0.23906 -1.77286,1.30202 -2.03228,1.04358 -0.75596,-0.75311 -1.49363,-0.97358 -1.49598,-2.21225 -1.9e-4,-0.10304 -0.0187,-0.43413 0.0443,-0.49734 0.44563,-0.44734 1.14633,-0.0619 1.62774,0.17773 0.20055,0.0998 0.63373,0.44884 0.63331,0.22483 -4.1e-4,-0.21281 -1.4975,-1.31455 -1.67578,-1.66943 -0.0968,-0.19257 -0.19026,-0.50538 -0.31764,-0.63228 -0.37654,-0.37512 0.12975,-1.03607 0.31413,-1.22115 0.26299,-0.26399 1.08513,0.31357 0.90402,-0.0469 -0.28317,-0.56367 -1.83608,-1.9372 -1.49674,-2.6191 0.34565,-0.69461 1.19221,-0.0757 1.44692,0.17808 0.0885,0.0882 0.52853,0.54147 0.49829,0.54152 -0.0768,1.5e-4 -0.0112,-0.15728 -0.0456,-0.22594 -0.0613,-0.12199 -0.19517,-0.28008 -0.31713,-0.36104 -0.19488,-0.12939 -2.215,-1.9772 -2.26421,-2.07518 -0.13021,-0.2592 -0.18482,-1.39967 0.0421,-1.62748 0.25633,-0.2573 0.85589,0.15495 1.08544,0.26918 0.94726,0.47139 2.57835,2.2051 2.9893,3.02312 0.14532,0.28927 1.16962,1.40756 1.178,1.39914 0.0693,-0.0695 -0.0667,-0.31281 -0.0911,-0.36147 -0.20141,-0.40091 -0.72648,-0.77056 -0.95163,-1.21875 -0.89016,-1.77191 -3.24896,-3.01107 -4.39281,-4.1506 -0.10637,-0.10596 -0.0462,-0.5203 -0.0465,-0.678 -0.002,-1.12926 1.33902,-1.04227 2.34872,-1.04418 0.28442,-5.4e-4 1.66455,0.079 1.5369,-0.0481 -0.22024,-0.2194 -0.77524,0.0433 -1.0399,-0.0884 -1.38903,-0.69123 -3.70586,0.52935 -3.70976,-1.52997 -5.2e-4,-0.27388 -0.23738,-0.74818 -0.0924,-1.03955 0.36486,-0.73319 0.94534,-1.31574 1.44598,-0.31918 0.0864,0.17198 0.36238,0.38632 0.36276,0.58699 9.1e-4,0.48381 1.02619,1.30902 0.72577,1.30959 -0.10548,2e-4 -4e-4,-0.21096 -6e-4,-0.31644 -3.4e-4,-0.18232 -0.12264,-0.36561 -0.18186,-0.54213 -0.20234,-0.60322 -1.15243,-1.68348 -0.36557,-2.07877 0.92606,-0.46522 2.06274,0.66547 2.2172,1.12595 0.0768,0.22903 0.26376,0.62373 0.40831,0.76772 0.0265,0.0263 0.0812,0.41677 0.18143,0.3161 0.14082,-0.14136 -1.02811,-2.31957 -0.77338,-2.57526 0.92097,-0.92447 2.34868,0.12666 2.80471,1.03442 0.23968,0.4771 0.85997,0.85727 0.72492,0.85753 -0.14915,2.8e-4 -1.82463,-2.38056 -1.36157,-2.84538 0.65881,-0.66131 2.03159,0.0837 2.44204,0.49264 0.27283,0.27179 0.61513,0.62106 0.83312,0.83119 0.52856,0.36078 1.86556,1.12476 1.20605,1.78677 -0.27631,0.27737 -0.8398,0.49885 -1.31001,0.49974 -0.13315,3e-4 -0.69848,-0.114 -0.76858,-0.0437 -0.32771,0.32896 -0.46479,0.95063 -1.21875,0.95163 -0.20748,3.9e-4 -2.45998,0.57238 -2.21353,0.81789 0.12287,0.12241 2.13077,-0.50835 2.3042,-0.68244 0.26813,-0.26916 0.77972,-0.007 1.1298,-0.18296 0.54968,-0.27616 2.24308,-0.89286 2.48415,-1.13485 0.2053,-0.20605 -0.17722,-1.00514 0.0425,-1.44666 0.26536,-0.53325 0.84645,-0.62322 1.12843,-0.90626 0.2353,-0.23618 -0.15778,-0.9286 0.0882,-1.17551 0.10944,-0.10986 0.23832,-0.3751 0.36071,-0.49795 0.13348,-0.13399 0.45895,-0.14366 0.58715,-0.27235 0.24577,-0.24668 -0.098,-0.61981 0.0435,-0.90419 0.17452,-0.35069 0.56819,-0.4683 0.81234,-0.72483 l -3e-5,-5e-5 c -0.27235,0.20505 -0.73665,0.10536 -0.9036,0.27295 -0.0909,0.0912 0.0912,0.6331 -0.0889,0.81387 -0.66678,0.6693 -1.23159,1.03555 -2.30454,0.50162 -0.022,-0.0109 0.30153,0.26296 0.67894,0.45077 0.37686,0.18755 0.62547,1.13853 0.27405,1.49127 l -0.63167,0.63408 c -0.0752,0.0755 -0.49168,0.18238 -1.28885,-0.33979 -0.30673,-0.20092 -2.55814,-2.06208 -2.55906,-2.54598 -6e-4,-0.31558 0.0136,-0.64774 0.17928,-0.81404 0.10567,-0.10607 1.76584,0.36045 1.94486,0.53879 0.29081,0.2897 0.75516,0.48869 1.13142,0.67594 0.0404,0.0201 0.16765,0.0317 0.13562,-2.6e-4 -0.2495,-0.24856 -0.76931,-0.70641 -1.13193,-0.94718 -0.2189,-0.14532 -0.99601,-1.1289 -0.68082,-1.44529 0.11775,-0.11819 0.2609,-0.1713 0.36113,-0.27191 0.32222,-0.32345 2.46965,0.96312 2.57834,0.85402 0.10123,-0.10162 -2.78592,-1.64208 -2.30951,-2.1203 0.92336,-0.92686 1.94855,-0.004 3.07398,-0.006 0.10223,-1.9e-4 0.85913,0.11748 0.85916,0.134 6e-5,0.0348 -0.46178,-0.2132 -0.49769,-0.22509 -0.308,-0.10202 -0.98514,-0.42979 -1.13151,-0.72115 -0.0545,-0.10839 0.0536,-0.29846 -7.7e-4,-0.40685 -0.0194,-0.0385 -0.13583,-0.22599 -0.0909,-0.27106 0.56049,-0.56262 2.08958,-0.24153 2.66704,-0.0503 -0.34399,-0.12005 -0.93573,-0.96305 -0.54508,-1.35518 0.76313,-0.76602 1.60757,0.10497 2.62261,0.35668 0.13653,0.0338 2.03611,0.97982 2.03579,0.80985 -1.3e-4,-0.0662 -1.88224,-1.08965 -2.17304,-1.6685 -0.43556,-0.86701 1.33949,-1.3728 1.53476,-1.17825 0.32761,0.32636 0.79393,0.41767 1.22175,0.63056 0.51801,0.25779 2.4325,0.76389 3.03023,0.76276 0.42993,-8.1e-4 1.08441,0.0888 1.44641,-0.0931 0.007,-0.004 0.27105,-0.0912 0.27114,-0.0457 1.7e-4,0.089 -1.06161,-0.0432 -1.17543,-0.043 -0.23808,4.6e-4 -0.49013,-0.12155 -0.72363,-0.17945 -0.99999,-0.24798 -2.14335,0.0121 -2.62372,-0.94435 -0.24048,-0.47869 -0.33444,-1.06391 0.40437,-1.31174 1.17228,-0.39322 2.42259,1.11327 3.12064,0.7626 0.49588,-0.24912 0.0417,-1.08354 0.44922,-1.49264 0.23569,-0.23658 0.89024,-0.0607 1.0399,0.0884 0.0831,0.0827 -0.0821,0.41454 9.4e-4,0.49726 0.0786,0.0782 0.24743,0.11113 0.31679,0.18022 0.15524,0.15466 1.76536,-0.4522 2.21507,-0.004 0.055,0.0548 -0.0449,0.17206 -0.0448,0.22611 0.002,0.94285 -2.30203,-0.0652 -2.8024,0.18613 -0.14389,0.0723 -0.31641,0.22703 -0.45137,0.36251 -0.0192,0.0192 0.35539,0.0865 0.6333,0.22482 0.33401,0.16621 0.72453,0.22546 0.95017,0.45026 0.55052,0.54843 -1.19165,0.69797 -1.35454,0.86147 -0.1416,0.14214 0.51304,0.15013 0.58811,0.22491 0.31638,0.31519 0.14739,0.47524 -0.0436,0.85899 -0.26731,0.53717 -3.17849,1.30043 -3.34307,1.13648 -0.15426,-0.15368 -1.87904,-0.83131 -2.03554,-0.67423 -0.0765,0.0768 0.53961,0.26349 0.72449,0.63151 0.21227,0.42252 -0.0598,0.6782 -0.45076,0.67894 -1.12773,0.002 -2.59869,0.47931 -3.30044,-0.21978 -0.33994,-0.33866 -0.90877,-0.0389 -0.85908,-0.0888 0.0584,-0.0586 0.30698,0.37124 0.18178,0.49692 -0.19792,0.19867 -0.59452,0.57016 -0.90275,0.725 -0.13495,0.0678 -0.34813,-0.0897 -0.49743,-0.0895 -0.0603,1.2e-4 -0.18071,0.0607 -0.18082,3.5e-4 -2.8e-4,-0.14905 0.75142,0.34249 1.31267,0.90162 0.30665,0.30549 -0.78318,0.70875 -0.67654,0.81499 0.19231,0.19159 1.2856,-0.56582 1.44521,-0.72603 0.98241,-0.98615 3.81478,-0.97589 4.06618,-1.22826 0.22591,-0.22677 0.76491,-0.17903 0.99375,-0.40873 0.12059,-0.12104 0.3323,-0.43842 0.54144,-0.5435 0.95646,-0.48049 2.25379,0.0668 3.20882,-0.41293 0.37851,-0.19014 0.15801,-0.56622 0.36019,-0.76917 0.22734,-0.2282 0.85213,0.0958 1.03955,-0.0924 0.98306,-0.98679 0.90494,-0.83923 2.21225,-1.49598 0.52425,-0.26336 0.97857,-0.66525 1.30908,-0.997 0.50183,-0.50374 1.74353,-0.34611 2.16841,-0.77261 0.16392,-0.16453 0.52656,0.15081 0.63296,0.044 10e-4,-10e-4 0.36129,-0.18773 0.36138,-0.1363 2e-5,0.006 -2.1536,-0.11505 -2.39657,-0.35711 -0.28898,-0.28789 0.6418,-1.05186 0.81139,-1.22208 0.45235,-0.45408 2.09754,-0.74013 2.75676,-0.41208 0.7472,0.37183 -0.32651,1.54411 -0.5845,1.67371 -0.18706,0.094 -0.10608,0.54268 -0.31541,0.54307 -0.0437,8e-5 0.0895,-0.13519 0.0901,-0.13579 0.29763,-0.29874 0.66522,-0.39599 0.90291,-0.63458 0.31919,-0.3204 1.58017,-0.63505 1.67124,-0.72646 0.15673,-0.15733 0.32603,-0.37256 0.49623,-0.54341 0.23044,-0.2313 0.34908,-0.89934 0.72124,-1.08631 1.08301,-0.54406 2.53002,-0.78844 2.52714,-2.31027 -3.8e-4,-0.19695 0.0299,-0.5116 -0.0916,-0.6327 -0.20961,-0.20882 -1.01821,-0.60843 -1.35668,-0.26867 -0.0688,0.069 0.44057,0.24651 0.58869,0.54135 0.18695,0.37212 -0.18226,1.13408 -0.35915,1.31165 -0.40439,0.40592 -1.73033,0.86926 -2.16782,1.08904 -0.33785,0.16973 -3.7023,0.55298 -3.75111,0.50437 -0.0607,-0.0605 -0.69021,-0.53004 -0.49864,-0.72235 0.55294,-0.55503 1.21839,-0.31796 1.67158,-0.54563 1.084,-0.54457 1.55778,-0.56728 2.25788,-1.27004 0.0828,-0.0831 0.99824,-0.67499 0.94795,-0.72508 -0.32352,-0.32231 -1.91334,0.32006 -2.25968,0.32072 -0.072,1.3e-4 -0.40632,-0.045 -0.45206,8.5e-4 -0.11249,0.11293 0.13665,0.5876 0.0467,0.76841 -0.14812,0.29765 -0.24889,0.34042 -0.45103,0.54332 -0.17727,0.17795 -2.00415,0.86271 -2.34906,0.86336 -0.203,3.9e-4 -0.73147,0.25435 -0.94863,0.36344 -0.0571,0.0286 -0.22792,-0.043 -0.27123,5.1e-4 -0.1095,0.10991 -0.40613,0.38194 -0.40642,0.2268 -3.7e-4,-0.19142 0.9498,0.25479 0.95111,0.94752 0.002,0.97204 -0.69744,0.88126 -1.17278,1.3584 -0.38381,0.38527 -3.43612,-0.26229 -3.43758,-1.03322 -0.002,-0.86423 1.2088,-0.99682 1.94195,-0.99821 0.2863,-5.4e-4 0.5726,-0.001 0.8589,-0.002 0.0603,-1.1e-4 0.18072,-0.0606 0.18083,-3.4e-4 7e-5,0.0366 -0.82786,-0.0436 -0.85899,-0.0436 -0.95697,0.002 -2.01601,-0.11334 -2.53271,-0.62809 -0.0221,-0.0221 0.9915,-2.21814 1.1708,-2.39812 0.0204,-0.0204 -0.6359,-0.0863 -0.90376,0.18254 -0.0986,0.0989 -0.1563,0.29276 -0.27046,0.40736 -0.0195,0.0195 -0.0969,-0.12925 -0.18092,-0.0448 -0.16566,0.16629 0.17917,0.86185 -0.0431,1.08501 -0.6659,0.66842 -1.88334,0.45563 -2.93751,0.45763 -0.28677,5.4e-4 -2.30562,-0.069 -2.30582,-0.17646 -2.4e-4,-0.12834 1.73323,0.50843 1.89991,0.67449 0.33242,0.33116 -0.59032,1.67664 -0.85547,1.80985 -0.18108,0.0909 -2.24461,0.14756 -2.35052,0.0948 -0.30919,-0.15386 -0.93052,-0.59127 -1.08665,-0.90205 -0.0904,-0.18006 -0.36679,-0.45566 -0.45307,-0.54162 -0.56461,-0.56247 1.82216,-0.59866 1.89742,-0.63647 0.1365,-0.0686 0.61454,0.0625 0.72321,-0.0466 0.13155,-0.13204 0.54186,-0.32303 0.54221,-0.13664 1e-5,0.004 -0.62481,-0.13443 -1.03999,-0.13365 -0.63647,0.001 -1.19716,0.11585 -1.53741,-0.22312 -0.37685,-0.37542 0.43821,-1.83684 0.22235,-1.94426 -0.0457,-0.0227 -0.17488,0.53787 -0.45052,0.81455 -0.18648,0.18719 -0.43675,0.57429 -0.63142,0.7697 -0.0647,0.065 -0.49016,0.11049 -0.63254,0.18202 -0.34161,0.17162 -2.19644,0.12136 -2.30505,0.2304 -0.10989,0.11029 -1.28081,0.54489 -1.49076,0.54529 -0.46434,8.8e-4 -1.32003,-0.0608 -1.71755,0.13886 -0.0228,0.0114 -0.723,0.15359 -0.72312,0.0918 -3e-5,-0.0178 0.84314,0.0735 0.90428,0.0887 1.15935,0.28751 2.3013,-0.14194 3.30069,0.3554 1.27687,0.63541 -1.52352,1.66518 -1.53382,1.67552 -0.20076,0.20151 -0.43073,0.38707 -0.63176,0.58887 -0.006,0.006 -0.31598,0.2465 -0.31601,0.22662 -3.7e-4,-0.19334 2.50989,0.0872 2.80403,0.67278 0.44326,0.88234 -0.52189,1.43864 -1.08168,1.71986 -0.47387,0.23805 -1.31551,-0.57829 -1.08691,-1.03767 0.26152,-0.52551 0.33422,-0.51664 0.67647,-0.86019 0.0596,-0.0599 0.5673,-0.29211 0.49657,-0.36259 -0.18562,-0.18492 -1.50801,-0.20734 -1.67269,-0.042 -0.0567,0.0569 -0.0369,0.26347 -0.0898,0.31661 -0.20121,0.20197 -0.49968,0.3204 -0.67715,0.49854 -0.008,0.008 -2.09498,-0.17685 -2.35103,-0.17637 -0.18888,3.6e-4 -0.97964,0.19719 -1.13005,0.0474 -0.1086,-0.10819 -0.0909,-0.27424 -0.0913,-0.45188 -0.002,-1.11516 3.66138,-0.15428 3.66046,-0.63982 -1.5e-4,-0.079 -0.39268,-0.0444 -0.45215,-0.0443 -0.29697,5.6e-4 -0.61128,-0.13445 -0.90436,-0.1339 -0.19589,3.7e-4 -1.06697,-0.10657 -0.72415,-0.45069 0.1504,-0.15097 0.70842,0.10414 0.85882,-0.0468 0.0859,-0.0863 -0.34626,-0.22537 -0.40728,-0.22525 -0.19831,3.7e-4 -0.74483,-0.13159 -0.85959,-0.36003 -0.0286,-0.057 0.043,-0.22792 -5.1e-4,-0.27123 -0.0274,-0.0272 -0.22837,4.4e-4 -0.27124,5.2e-4 -0.94161,0.002 -0.59283,1.06704 -1.17277,1.35839 -0.0326,0.0164 -0.32442,0.24352 -0.40608,0.40762 -0.15559,0.31268 -0.26019,0.6688 -0.45043,0.85976 -0.0968,0.0972 -0.16668,0.4205 -0.0895,0.49743 0.0453,0.0451 -0.0448,0.22611 5.2e-4,0.27124 0.50781,0.50589 3.04891,-0.43688 3.39024,-0.0968 0.0551,0.0549 1.14604,0.4801 0.81524,0.81215 -0.36957,0.37097 -0.33136,1.38818 -0.72029,1.58356 -0.34629,0.17397 -2.66312,-0.89336 -2.75942,-0.9893 -0.17478,-0.17411 0.10509,-0.97819 0.0432,-1.03981 -0.10054,-0.10016 -0.58777,-0.17971 -0.72363,-0.17945 -0.0276,5e-5 -0.16324,-0.0173 -0.18083,3.4e-4 -0.0319,0.0321 5e-4,0.26623 6e-4,0.31644 6.3e-4,0.33235 -0.55378,1.47871 -0.26789,1.76353 0.39785,0.39635 1.21073,-0.02 1.62697,-0.22911 0.3016,-0.15152 0.85462,0.26961 1.04024,0.26926 0.1333,-2.5e-4 1.23282,0.52887 0.99597,0.76662 -0.203,0.20377 -0.34357,0.48075 -0.5863,0.7244 -0.15775,0.15835 -0.0685,0.52167 -0.22474,0.67851 -0.086,0.0864 -1.76361,-0.62894 -1.90008,-0.7649 -0.35794,-0.35659 0.0157,-1.26579 -0.68049,-1.26447 -0.0648,1.2e-4 -0.36572,-0.0405 -0.40685,7.7e-4 -0.0824,0.0828 0.10923,0.1621 0.0456,0.22594 -0.086,0.0864 -0.27904,0.28009 -0.36097,0.36233 -0.12279,0.12327 -0.64834,0.30164 -0.4964,0.453 0.60863,0.60632 2.05239,0.16735 2.57903,1.21567 0.12044,0.23975 0.36202,0.19682 0.36259,0.49657 0.001,0.57614 -0.84955,0.99987 -1.40001,0.72594 -1.06536,-0.53016 -0.62691,-0.34721 -1.08732,-1.2637 -0.0169,-0.0336 -0.0958,-0.17556 -0.0456,-0.22593 0.039,-0.0392 0.36272,-0.49594 0.27012,-0.5882 -0.0646,-0.0644 -0.93623,-0.37365 -0.99512,-0.31455 -0.17403,0.17469 -0.28138,0.32774 -0.49623,0.54341 -0.0804,0.0806 -0.25353,0.028 -0.31627,0.091 -0.057,0.0572 0.48456,1.34001 0.6357,1.49059 0.41785,0.41626 1.9442,0.18512 1.94581,1.03604 6.1e-4,0.32146 0.16583,1.11577 -0.13321,1.26601 -1.28889,0.64749 -1.8206,-0.60665 -2.21773,-1.39717 -0.12739,-0.25355 0.18832,-0.68726 0.26977,-0.76902 0.13916,-0.13969 -0.30163,-0.87063 -0.36352,-0.99383 -0.0699,-0.13913 -0.0446,-0.36031 -0.13648,-0.4518 -0.14626,-0.1457 -0.741,0.47207 -0.81267,0.54401 -0.0482,0.0484 -0.44082,0.19253 -0.36113,0.27192 0.27258,0.27155 0.44655,1.57287 0.50034,1.62646 0.19972,0.19896 0.8595,0.30573 0.86028,0.72166 2.6e-4,0.13779 0.461,0.66954 0.31797,0.8131 -0.0743,0.0745 -1.16069,0.4229 -1.31044,0.27371 -0.13857,-0.13805 -0.13186,-0.3976 -0.22714,-0.58724 -0.39595,-0.78815 0.26954,-0.89817 0.26893,-1.22106 -5.2e-4,-0.27093 -0.4133,-1.6751 -0.5006,-1.76208 -0.0688,-0.0686 -0.29668,0.0458 -0.31636,0.0458 -0.60371,10e-4 -1.20747,-0.0429 -1.80831,-0.0418 -0.25223,4.8e-4 -1.42198,-0.15782 -1.58219,0.003 -0.29097,0.29208 0.33439,1.11596 0.5,1.44563 0.14664,0.29188 0.16589,1.26544 0.36404,1.26506 0.24612,-4.6e-4 0.79366,-0.38246 1.08477,-0.0925 0.0568,0.0566 0.35069,0.67743 0.31772,0.67749 -0.26695,5e-4 0.5278,-1.65148 0.99315,-0.72517 0.20907,0.41617 0.7871,1.42919 0.32003,1.89802 -0.16489,0.16553 -0.52731,0.0311 -0.67773,0.18212 -0.10193,0.10231 -0.7045,0.40818 -0.90335,0.40856 -0.73489,0.001 -0.92087,-0.0601 -1.35711,-0.4947 -1.03494,-1.03103 0.27217,-1.57489 -0.0494,-2.21498 -0.0463,-0.0921 -1.07735,-2.03221 -0.81755,-2.03271 0.0864,-1.6e-4 -0.1403,0.898 -0.45094,0.58853 -1.38555,-1.38031 -0.32552,-0.0446 -1.53708,-0.0423 -0.39244,7.4e-4 -1.8409,-0.23551 -2.07945,0.004 -0.85743,0.86069 1.72053,0.63265 2.1274,1.44255 0.18858,0.37537 0.65466,1.10339 0.99726,1.4447 0.46773,0.46595 -0.87354,0.64801 -0.67611,1.04101 0.22266,0.44322 1.79963,1.05753 1.44992,1.76027 -0.26973,0.54204 -1.17462,0.45442 -1.58057,0.86191 -0.0577,0.1342 -0.92712,0.52021 -0.81253,0.63436 0.28204,0.28098 0.9986,-0.0881 1.03964,-0.0472 0.11936,0.1189 -0.0772,0.49741 0.0913,0.49709 0.15144,-2.9e-4 0.60358,0.0441 0.45215,0.0443 -0.28751,5.5e-4 0.68811,-0.80345 1.03886,-0.45403 0.13817,0.13765 0.45422,0.2269 0.63365,0.40565 0.41774,0.41616 0.95489,2.94037 0.95617,3.61465 0.004,2.03609 -2.49558,-1.11826 -2.66893,-0.94427 -0.11801,0.11847 0.65536,0.80915 0.72509,0.94795 0.60345,1.20119 2.71518,1.49875 2.71884,3.43049 1.4e-4,0.072 0.0466,0.40615 8.6e-4,0.45205 -0.14622,0.14677 -0.48089,0.12038 -0.63237,0.27244 -0.5818,0.584 -1.04696,-0.45326 -1.49307,-0.67527 -0.20255,-0.10079 -0.49852,-0.40689 -0.58878,-0.58655 -0.0662,-0.13194 -0.4515,-1.03636 -0.49931,-1.084 -0.26654,-0.26552 -0.75797,0.32779 -0.67732,0.40813 0.0958,0.0954 0.45173,-0.001 0.54264,0.0894 0.45856,0.45682 0.74535,1.10349 1.31412,1.67011 0.25434,0.25338 0.62871,0.49096 0.90558,0.76679 0.24394,0.24301 0.57761,0.17453 0.8595,0.31481 0.2419,0.12038 0.50567,0.50376 0.63407,0.63168 0.18556,0.18486 0.0506,2.83297 0.0518,3.48074 10e-4,0.53723 -0.008,0.91362 -0.26902,1.17585 -0.0225,0.0226 -0.70395,0.15598 -0.63245,0.22723 0.14019,0.13964 0.11903,0.37201 0.22715,0.58724 0.12073,0.24033 0.44929,-0.004 0.58792,0.1345 0.20426,0.20349 0.17145,1.10756 0.0478,1.35609 -0.0841,0.16898 -0.35457,0.91013 -0.63168,0.63407 -0.19247,-0.19174 -0.81011,-1.31551 -0.50034,-1.62646 0.10841,-0.10883 0.36019,-0.0445 0.4518,-0.13647 0.14078,-0.14131 -0.0953,-0.50478 -0.13673,-0.58741 -0.35761,-0.71184 -0.52114,-0.47405 -0.99632,-0.94743 -0.64847,-0.64602 -1.06571,-1.31073 -1.4959,-2.16704 -0.39703,-0.79033 -0.6535,-1.57107 -1.04418,-2.34872 -0.26925,-0.53597 -0.19345,-1.19573 -0.4553,-1.71696 -0.24861,-0.49486 0.59835,-0.56531 0.40505,-0.95008 -0.15497,-0.30849 -0.75999,0.10014 -1.04007,-0.17886 -0.18597,-0.18527 -0.25,-0.70025 -0.45377,-0.90325 -0.0679,-0.0677 0.0672,-0.33917 -7.7e-4,-0.40685 -0.60354,-0.60126 0.40784,-1.99459 0.80916,-2.39743 0.20719,-0.20797 1.13462,0.27304 0.94949,0.0886 -0.95003,-0.94644 -0.6891,-0.8029 -0.0479,-1.44649 0.0402,-0.0404 0.1042,-0.37634 0.22509,-0.49769 0.0556,-0.0557 0.18046,-0.19252 0.18031,-0.27158 -8.8e-4,-0.46727 -0.58856,-0.46445 -0.58845,-0.40573 9.2e-4,0.48465 0.4924,0.7481 -0.0884,1.03989 -0.0978,0.0492 -0.32752,0.17574 -0.49708,0.0914 -0.92206,-0.45885 0.2766,-1.25853 0.0876,-1.44675 -0.13803,-0.13751 -0.46645,-0.0586 -0.58801,-0.17971 -0.0677,-0.0675 -0.58646,0.6378 -0.58604,0.86002 9.6e-4,0.50512 -1.59441,1.78086 -1.98605,1.58596 -0.11434,-0.0569 -0.41682,-0.0543 -0.49751,-0.13467 -0.24687,-0.24594 -0.17922,-1.03582 -0.22809,-1.08451 -0.29791,-0.29679 -0.63025,0.31965 -0.81344,0.13716 -0.14314,-0.1426 -0.30172,-0.87472 -0.54367,-0.63185 -0.37957,0.38102 0.76437,0.92821 -0.26849,1.44709 -0.45981,0.23099 -0.96511,-0.87419 -1.37182,-1.14625 -0.19434,-0.18625 -0.7448,-1.12286 -0.81923,-1.27101 -0.45366,-0.90304 0.98533,-0.65176 0.68461,-1.54825 -0.16499,-0.49187 -1.54964,-1.40997 -1.55021,-1.71592 -5.8e-4,-0.30585 0.13479,-1.6852 0.38307,-1.93442 0.34956,-0.35088 0.81481,-0.86895 0.81376,-1.41959 -3.5e-4,-0.18977 0.5361,-0.75263 0.34198,-0.94601 -0.52997,-0.52797 -1.83893,0.32986 -2.40629,0.0476 -0.79723,-0.39673 -2.22876,-0.46625 -3.13834,-0.76754 -1.89057,-0.62621 -2.11081,-1.11635 -3.22706,-2.22838 -1.36586,-0.43244 -0.44283,-2.72248 -0.65041,-3.13566 -0.15172,-0.30202 -0.43345,-0.39192 -0.60297,-0.72937 -0.41986,-0.83576 -0.42897,-1.39405 -1.42163,-1.88803 -0.63247,-0.31474 -1.78015,0.60497 -2.36225,0.60607 -0.42784,8.1e-4 -0.9019,0.26884 -0.902,0.21657 -5e-5,-0.0278 0.92653,-0.13067 1.03107,-0.13086 1.02739,-0.002 2.43642,-0.28723 2.92332,0.68199 0.31113,0.6193 -0.57143,1.33318 -0.9858,1.33397 -0.34596,6.5e-4 -0.77304,0.23088 -0.77307,0.21632 -4.9e-4,-0.25906 3.1871,-0.0637 2.75168,0.81124 -0.0224,0.0451 0.0346,0.1805 4.1e-4,0.21485 -0.1854,0.18611 -0.29898,0.42928 -0.51443,0.64555 -0.11125,0.11167 -0.42949,5.9e-4 -0.55838,0.12997 -0.039,0.0392 -1.00402,0.28648 -0.9447,0.34556 0.19401,0.19329 1.17307,-0.27485 1.46076,-0.13168 0.26234,0.13054 0.47596,0.30125 0.73132,0.42832 0.0975,0.0485 0.34948,0.20355 0.25855,0.38626 -0.2254,0.45295 -0.4128,0.80184 -0.68549,1.07557 -0.65242,0.6549 -2.13776,0.27216 -2.66469,-0.25278 -0.063,-0.0628 -0.26475,-0.93972 -0.17384,-1.03098 0.0885,-0.0889 0.59226,-0.39644 0.51476,-0.47366 -0.0969,-0.0965 -0.36856,-0.0669 -0.47301,-0.17098 -0.6487,-0.64625 -0.65538,-0.0418 -1.67595,-0.0398 -0.80876,0.002 -1.61842,-0.28272 -2.06399,-0.7266 -0.16991,-0.16927 -0.10798,-0.4078 -0.25888,-0.55814 -0.23751,-0.23661 -1.37289,0.17634 -1.84832,-0.29729 -0.23212,-0.23124 -0.21673,-0.77266 -0.002,-0.98834 0.0682,-0.0684 -0.10598,-0.42951 -0.0438,-0.42962 0.25673,-4.9e-4 0.49339,-0.30133 0.60062,-0.51679 0.13468,-0.27066 -0.0596,-0.75819 0.17001,-0.98866 0.23733,0.15195 1.44845,1.06361 1.14172,1.37034 -0.17814,0.17813 -0.34669,0.41473 -0.51032,0.57836 -0.01,0.01 -0.23815,0.0799 -0.23815,0.10207 0,0.0535 0.55983,-0.20413 0.57836,-0.20413 0.313,0 1.02289,0.0862 1.2588,0.20413 0.32181,0.1609 0.49424,0.42619 0.74847,0.68043 0.0874,0.0874 -0.11243,0.4763 -0.068,0.4763 0.0262,0 -0.0636,-0.31062 0.10206,-0.4763 0.30424,-0.30424 1.29282,0.0188 1.29282,-0.068 0,-0.10559 -0.58357,-0.1701 -0.68043,-0.1701 -0.80209,0 -0.67915,-0.23687 -1.05467,-0.61239 -0.0462,-0.0463 -0.77262,-0.0143 -0.91858,-0.30619 -0.074,-0.148 0.23978,-0.37099 0.13609,-0.57837 -0.2678,-0.5356 -1.02909,-0.54874 -0.7574,-1.29885 l -4e-5,-5e-5 c 0.18632,-0.18702 -0.11757,-0.77967 0.0414,-0.8595 0.32134,-0.16143 0.81886,0.0403 1.15998,-0.13111 0.12101,-0.0608 1.88916,-0.43329 1.88991,-0.43329 0.0154,-3e-5 -0.5191,0.17287 -1.11692,0.174 -0.51744,9.8e-4 -2.43274,0.36431 -2.83617,-0.0376 -0.0582,-0.058 -0.24961,-0.12 -0.30112,-0.17132 -0.0701,-0.0699 -0.01,-0.52435 -0.13013,-0.64431 -0.10334,-0.10295 -0.98034,-0.20462 -1.29011,-0.51321 -0.20483,-0.20406 0.61736,-0.84324 0.25554,-1.20368 -0.0645,-0.0644 -0.27927,0.022 -0.34384,-0.0423 -0.0715,-0.0713 -1.02644,-0.34736 -1.16062,-0.21266 -0.15458,0.15516 -0.60184,10e-4 -0.73027,0.13029 -0.34739,0.34872 2.29912,0.71601 -0.12524,1.93395 -0.18879,0.0948 -3.57848,-0.3688 -3.61022,-0.33694 -0.0508,0.051 0.94218,0.23366 1.0318,0.25588 0.56717,0.14066 1.38535,0.0455 1.89128,0.29722 0.0857,0.0426 1.11728,0.0129 1.11733,0.0409 4e-5,0.0189 -1.20686,0.29884 -1.07346,0.43175 0.35102,0.34968 1.15285,-0.56397 1.58928,-0.34679 0.17254,0.0859 1.00673,0.45325 0.64611,0.81523 -0.3863,0.38775 -1.10593,0.35652 -1.03049,0.43166 0.15959,0.15898 1.61143,-0.36759 2.40719,0.42516 0.41799,0.41641 -0.63927,1.2674 -0.85682,1.37669 -0.80891,0.40637 -1.8825,-0.51208 -2.53626,-0.51085 -0.0995,1.9e-4 -1.00285,0.049 -1.55489,-0.47661 -0.68065,-0.64806 -2.23301,-0.4659 -2.4871,-0.71904 -0.21475,-0.21394 -0.55934,-0.47125 -0.73206,-0.81507 -0.0759,-0.15108 0.0845,-0.55909 -0.0873,-0.73034 -0.41496,-0.4134 -0.79934,-0.8821 -1.20563,-1.28685 -0.23414,-0.23326 0.2993,-0.64541 -0.002,-0.94536 -0.28971,-0.28861 -1.79689,0.003 -2.10562,0.004 1.28328,0.26524 1.7136,1.02088 2.3235,1.62848 l 2.1e-4,3e-5 c 0.0535,0.0533 0.0439,0.48287 0.0441,0.55854 0.002,1.12834 -2.0907,0.77744 -2.87759,0.77893 -0.10909,2.1e-4 -0.30035,0.23857 -0.30056,0.12948 -2.1e-4,-0.11365 1.54139,0.29788 1.5905,0.29779 0.31614,-6e-4 -0.12548,0.38154 -0.17099,0.473 -0.11073,0.22251 0.38611,0.55621 0.47391,0.64367 0.0717,0.0715 0.0148,0.27213 0.0865,0.34361 0.0258,0.0256 0.62973,-0.4669 0.72953,-0.51704 0.85217,-0.42811 3.30507,-0.27045 3.65334,0.4228 0.40234,0.80086 -2.1144,1.08916 -2.44666,1.42268 -0.75473,0.75759 2.61523,-0.64474 2.6629,-0.69259 0.32298,-0.3242 1.31981,0.41039 1.50407,0.0401 0.0342,-0.0686 -0.48068,-0.48592 -0.5514,-0.6411 1.35517,0.23651 1.90103,0.9065 1.58492,1.54173 -0.029,0.0583 -2.21757,1.10217 -2.53301,1.20798 -0.27196,0.0912 -0.99833,0.27023 -1.1594,0.43191 -0.11833,0.11877 -0.47204,0.34043 -0.47236,0.17278 -8e-5,-0.043 0.0859,-1.6e-4 0.12891,-2.4e-4 0.50768,-9.7e-4 1.32252,0.0932 1.67538,-0.26101 0.2977,-0.29881 2.36409,-1.46377 3.04883,-1.12302 0.53568,0.26657 0.87952,0.53308 1.24787,0.90003 0.0562,0.056 -0.0201,0.29916 -0.0423,0.34385 -0.43886,0.86616 -1.76962,0.86089 -2.71732,1.15082 -0.844,0.44512 -2.09613,0.63964 -2.30763,0.5344 -0.30691,-0.15273 -1.59486,-0.25926 -1.67652,-0.34059 -0.0717,-0.0715 0.0282,-0.22924 -0.0436,-0.30072 -0.19507,-0.19433 -0.59659,0.17768 -0.73042,0.0444 -0.29838,-0.29724 -1.30927,-0.66097 -1.76393,-1.1139 -0.14376,-0.14323 -1.05381,-0.70735 -0.68956,-1.07297 0.34059,-0.34189 1.69591,-0.17287 1.88966,-0.5622 0.11395,-0.229 -0.9459,-0.12713 -1.11749,-0.12681 -0.74564,0.001 -1.30506,0.24392 -1.89137,-0.34019 -0.70189,-0.69922 0.71136,-1.11858 1.20107,-1.11951 0.32713,-6.2e-4 0.68729,-0.12789 0.68737,-0.0872 1e-5,0.005 -0.19755,-0.0768 -0.21502,-0.0856 -0.14284,-0.071 -0.47401,0.0439 -0.64448,0.0442 -0.83596,0.002 -0.64159,-0.2978 -0.98923,-0.4708 -0.5023,-0.24996 -0.40403,0.40556 -0.55756,0.55968 -0.41254,0.41412 -1.69912,0.0229 -1.97715,-0.25408 -0.1339,-0.13338 -0.18884,-0.48836 -0.30194,-0.60102 -0.82124,-0.81814 1.00378,-1.01584 0.34059,-1.67653 -0.61154,-0.60923 -3.07405,-0.57481 -3.56863,-1.06751 -0.93918,-0.93565 0.87393,-1.41971 -0.81913,-1.4165 -0.1499,2.8e-4 -0.54376,-0.0569 -0.64448,0.0442 -0.21248,0.21328 0.41967,0.58963 0.60306,0.77233 0.29788,0.29675 0.72186,0.54757 1.03293,0.85747 0.23083,0.22995 0.83907,0.27832 1.07525,0.51362 0.28367,0.2826 0.88372,0.23702 1.20424,0.55634 0.42313,0.42153 -1.49454,0.3466 -1.58927,0.34678 -1.11245,0.002 -4.52541,-1.20578 -5.07391,-1.75221 -0.46343,-0.46167 0.63807,-1.16572 0.47016,-1.333 -0.13579,-0.13527 -0.61128,-0.0895 -0.85983,-0.21322 l 3e-5,-2e-5 3e-5,-2e-5 c -0.46228,-0.0516 -0.40677,0.32221 -0.55772,0.47374 -0.29653,0.29765 0.17455,1.16082 0.26034,1.33161 0.4881,0.97158 1.35652,0.66516 2.02216,1.32828 0.3036,0.30244 0.56492,0.86301 0.81856,1.11569 0.45263,0.45091 1.23732,0.72306 1.84971,1.02781 0.33016,0.16429 0.943,0.16742 1.204,0.42743 0.0194,0.0194 0.28902,0.22651 0.3441,0.17123 0.059,-0.0593 -0.29016,-0.23025 -0.34426,-0.25717 -0.25618,-0.12749 -0.76438,-0.91179 -0.56074,-1.11619 0.56372,-0.56586 1.83293,-0.44716 2.40662,0.12435 0.79747,0.79446 -0.33148,1.41868 -0.94268,1.41984 l 0.12891,-2.5e-4 c 0.27243,-5.1e-4 0.76414,0.16079 0.94601,0.34197 0.65048,0.64802 1.7496,0.62784 2.36577,1.24168 0.36626,0.36488 1.09636,0.3631 1.4624,0.72775 0.63886,0.63644 1.16894,1.67365 2.45252,1.67122 0.34163,-6.4e-4 1.1072,0.15945 1.28978,0.34133 0.026,0.0259 1.66012,0.12577 1.80502,0.12549 0.12787,-2.4e-4 0.56791,-0.0347 0.64465,0.0418 0.4395,0.43784 0.22897,0.52178 0.90402,0.85771 0.49321,0.24544 1.19978,0.0819 1.71948,0.3405 0.11006,0.0548 0.988,-0.1755 0.98817,-0.0878 1.8e-4,0.093 -1.08056,-0.2787 -1.16078,-0.29859 -0.50464,-0.12514 -1.34114,-0.13516 -1.67676,-0.46951 -0.39609,-0.39459 0.12627,-0.8606 0.58636,-1.02008 1.60265,-0.43881 3.78797,-1.43753 4.99573,-1.43982 0.3799,-7.2e-4 0.5814,0.23608 0.77429,0.42824 0.87492,0.87161 -1.20371,1.68002 -1.62931,1.89382 -0.0393,0.0198 -0.94451,0.4496 -0.94471,0.34556 -1.2e-4,-0.0642 0.68215,0.0472 0.94495,-0.21665 0.2416,-0.24251 0.53108,-0.24528 0.81572,-0.38828 1.04279,-0.52387 2.38192,-1.22983 3.43735,-0.17839 0.28081,0.27975 -0.25527,0.79492 -0.38512,0.86015 -0.61277,0.30784 -2.42679,0.28337 -2.79188,0.64986 -0.12318,0.12363 -0.53602,-0.0647 -0.55871,-0.0419 -0.0634,0.0636 0.60385,-0.001 1.07428,-0.002 0.78197,-10e-4 1.43442,-0.26055 2.234,-0.26206 0.43084,-8.2e-4 0.32558,0.20495 0.60225,0.34263 0.58857,0.29289 0.0821,0.99388 -0.21242,1.28953 -0.0362,0.0364 -0.68678,0.39867 -0.68696,0.3021 -5.4e-4,-0.28552 0.91105,-0.31177 1.07337,-0.47472 0.93249,-0.93603 3.23334,-1.16634 4.68165,-1.16908 0.38388,-7.3e-4 1.34321,0.32021 1.1187,0.77136 -0.18446,0.37067 -0.31347,0.48687 -0.60013,0.77461 -0.0161,0.0161 -0.27003,0.117 -0.21453,0.1723 0.018,0.018 1.14237,-0.64674 1.41683,-0.64726 0.90923,-0.002 0.72926,1.20533 0.34678,1.58928 -0.009,0.009 0.007,0.17188 3.2e-4,0.17189 -0.006,10e-6 0.37674,-0.55039 0.38567,-0.55936 0.31193,-0.31311 1.29332,-0.37939 1.54721,0.12598 0.26506,0.52761 -0.95243,1.44322 -0.55439,2.23555 0.028,0.0558 0.2094,-0.54576 0.25653,-0.68803 0.11715,-0.35369 0.30583,-1.03538 0.64228,-1.2044 0.43417,-0.21812 1.46839,0.42036 1.03293,0.85746 -0.32974,0.331 -0.39231,0.9535 -0.94252,1.50578 -0.0694,0.0695 -0.69514,0.29395 -0.77307,0.21632 -0.0904,-0.09 -0.11494,-0.57347 -0.21574,-0.47228 -0.0455,0.0457 -0.66169,0.49885 -0.85885,0.30243 -0.29725,-0.29613 -0.97584,-0.18729 -1.16128,-0.55642 -0.0907,-0.1807 0.24148,-0.58682 0.34247,-0.68819 0.10715,-0.10757 0.11081,-0.77369 0.25635,-0.77397 0.15494,-2.9e-4 -0.18806,0.24852 -0.25708,0.38723 -0.147,0.2954 -0.46086,0.59176 -0.64311,0.7747 -0.44144,0.44312 -1.78335,-0.87593 -2.02175,-1.11343 -0.47709,-0.47528 1.01197,-0.96478 0.94341,-1.03308 -0.0234,-0.0234 -0.63646,0.0871 -0.77331,0.0874 -0.28644,5.4e-4 -1.15621,-0.25789 -1.24657,-0.21249 -0.38967,0.19575 -1.89105,0.94895 -2.14675,0.94943 0.77163,0.19626 1.80511,-0.86077 2.44896,-0.21936 0.10345,0.10306 0.0423,0.34239 0.12973,0.42947 0.27664,0.27559 -0.0301,1.18193 -0.12631,1.37532 -0.17089,0.34341 -0.59381,0.65223 -0.55732,0.68858 0.12773,0.12725 1.30547,-0.9354 1.50203,-1.03414 0.31783,-0.15967 0.61023,0.17487 0.77397,0.25635 0.56309,0.28023 0.16623,1.38303 -0.12575,1.67612 -0.10591,0.10632 -0.006,0.90241 -0.17017,0.90272 -0.0681,1.3e-4 0.35377,-0.51128 0.38569,-0.55936 0.11525,-0.17359 0.12637,-0.47128 0.25668,-0.60208 0.22482,-0.22568 1.15367,-0.56629 1.46052,-0.2606 0.26945,0.26843 0.24004,1.47939 0.0896,1.93354 -0.12112,0.36566 -0.26074,0.6492 -0.2566,0.64505 0.47923,-0.48106 0.8311,-2.1689 0.89815,-2.2362 0.0677,-0.0679 0.23572,-0.10746 0.30048,-0.17245 0.0671,-0.0674 0.64467,0.0588 0.64448,-0.0442 -3.8e-4,-0.19596 0.54191,0.0681 0.60184,0.12777 0.31725,0.31605 -0.12514,1.9977 -0.12436,2.40662 4.9e-4,0.25842 -0.0853,0.33074 -0.0848,0.60175 1.3e-4,0.0716 0.072,0.21472 4e-4,0.21486 -0.0442,8e-5 0.0821,-0.20811 0.0855,-0.21502 0.11497,-0.23104 0.17187,-0.56211 0.25628,-0.81694 0.15819,-0.4776 0.55604,-1.93421 1.32917,-1.54948 0.33219,0.16531 0.0446,-0.89912 -0.0449,-0.98825 -0.091,-0.0906 -0.32585,-0.0673 -0.43003,-0.17106 -0.3885,-0.38704 0.92432,-1.65973 1.02796,-1.76377 0.4796,-0.48141 0.87375,1.26833 0.94806,1.41625 0.24348,0.48468 -1.87274,0.49329 -1.63152,0.7336 0.19007,0.18935 0.23253,0.63411 0.38853,0.94463 0.0518,0.10319 0.26204,-0.0392 0.34385,0.0423 0.17842,0.17774 0.17861,0.31271 0.30185,0.55805 0.0289,0.0575 -0.84038,2.47958 -0.89759,2.537 -0.0698,0.07 -0.33981,0.2155 -0.47227,0.21575 -0.46989,8.9e-4 -1.11906,0.0432 -1.41852,-0.25515 -0.2237,-0.22283 0.15104,-0.84046 0.0416,-0.73058 -0.39818,0.39969 -0.75018,1.38684 -1.6311,0.94846 -0.0635,-0.0316 -0.25254,0.0487 -0.3008,5.7e-4 -0.34028,-0.33899 -0.60281,-0.63601 -0.6038,-1.15908 -3.8e-4,-0.20203 0.28201,-0.82549 0.17075,-0.60192 -0.22871,0.45959 -1.50095,1.80725 -2.14635,1.16428 -0.11549,-0.11504 -0.79683,-0.64176 -0.64636,-0.94414 0.15592,-0.31331 0.92602,-0.99814 0.94341,-1.03309 0.0435,-0.0875 0.17452,-0.60193 0.25669,-0.60208 0.006,-2e-5 -0.0808,0.16723 -0.0856,0.17205 -0.23259,0.23346 -0.67424,0.28932 -0.85852,0.47431 -0.14799,0.14855 -0.1664,0.33923 -0.2999,0.47324 -0.14122,0.14175 -2.15172,0.38693 -2.32003,0.21925 -0.5575,-0.55539 -1.13271,-1.53854 -0.004,-2.10558 0.1667,-0.0837 1.26526,-0.54089 1.159,-0.64675 -0.38772,-0.38625 -2.31306,1.6458 -3.09375,0.0918 -0.19258,-0.38336 -0.5369,-1.30021 -0.13176,-1.50375 0.24222,-0.12168 1.76603,-0.34224 1.67505,-0.43288 -0.0111,-0.0111 -2.11682,-0.066 -2.40677,-0.21029 -0.45299,-0.22542 -0.53106,-0.87217 -0.90476,-1.24445 -0.49201,-0.49015 -1.22399,-0.49024 -1.67766,-0.94219 -0.24516,-0.24424 -0.22712,-0.74095 -0.5176,-1.03033 -0.28342,-0.28234 -1.078,-0.51362 -1.54794,-0.51272 l -4.7e-4,-2.4e-4 c 1.38403,-0.10012 1.38862,1.08314 2.109,1.80079 0.48299,0.48117 1.31118,0.36265 1.72031,0.77023 0.34314,0.34184 0.50172,1.12713 0.73351,1.58854 0.12385,0.24652 0.30291,0.34466 0.47367,0.51475 0.21578,0.21498 0.54563,1.35848 0.64732,1.4598 0.37037,0.36896 0.58705,0.75638 0.94748,1.11545 0.20588,0.2051 0.24609,1.06007 0.56123,1.37402 0.92136,0.91787 2.07898,-0.12455 2.40646,0.0384 0.2036,0.10131 -0.34307,0.85915 -0.16994,1.03162 0.10853,0.10812 0.40761,0.14874 0.51614,0.25686 0.16026,0.15964 1.80021,0.12069 1.97723,0.29705 0.20854,0.20774 0.57146,0.30584 0.90329,0.47097 0.31273,0.15563 0.9067,-0.23568 1.28905,-0.0454 0.1083,0.0539 0.78982,0.3696 0.94577,0.21306 0.2602,-0.26119 1.51655,-0.37633 1.76156,-0.13225 0.50647,0.50455 0.006,1.80314 -0.51174,2.06358 -0.1,0.0502 -0.64399,0.30919 -0.64376,0.43093 3e-4,0.15821 0.33097,-0.11435 0.4726,-0.0439 0.27034,0.13452 0.39112,0.17922 0.51648,0.42873 0.55102,1.09686 -1.90426,3.16001 -2.52813,3.78625 0.42197,-0.26262 0.74938,-0.0884 1.11716,-0.0451 0.0684,-1.3e-4 0.38608,-0.0443 0.42971,-8.1e-4 0.44039,0.43872 -0.79862,1.92812 -0.9845,2.02151 -0.30074,0.15108 -0.3856,0.60232 -0.3856,0.60232 0,0 0.42132,-0.10413 0.47243,-0.12981 0.0907,-0.0456 0.37826,-0.26253 0.47227,-0.21575 0.26537,0.13206 0.43061,0.47588 0.43101,0.68672 0.19558,1.45788 -0.8437,1.79413 -1.54222,2.49531 -0.14552,0.14606 -0.59764,0.16938 -0.77283,0.34523 -0.0482,0.0484 -0.68721,0.17398 -0.68705,0.25913 2.6e-4,0.13541 1.11725,-0.088 1.20302,-0.0882 0.56583,-0.001 1.63912,-1.2407 1.97496,-0.90614 0.0929,0.0925 0.0415,0.59369 0.0873,0.73035 0.65206,1.94391 -2.61045,2.2031 -2.8754,1.93915 -0.19419,-0.19347 -0.35425,-0.43869 -0.55984,-0.64351 -0.21575,-0.21493 0.33392,-0.56804 0.21355,-0.68795 -0.15308,-0.1525 -0.49608,-0.19397 -0.64521,-0.34254 -0.28441,-0.28333 -0.98085,-1.42638 -0.60502,-1.80364 0.36236,-0.36373 1.36292,-0.20567 1.58912,-0.43272 0.19,-0.19072 0.49981,-0.37256 0.64358,-0.51687 0.0429,-0.0431 0.12856,-0.18993 0.12867,-0.12916 1.8e-4,0.0904 -0.80058,0.22555 -0.9019,0.25953 -0.36947,0.12394 -0.61902,0.0784 -0.94553,-0.0841 -0.0907,-0.0451 -0.3607,0.0696 -0.42971,8.2e-4 -0.0861,-0.0857 -0.25798,-0.0854 -0.34409,-0.17123 -0.12445,-0.12399 -0.21645,-0.84413 -0.21689,-1.07387 -0.002,-1.02073 1.85062,-3.53671 2.5702,-4.25901 l 0.8149,-0.818 c 0.0261,-0.0261 0.53119,-0.45729 0.51476,-0.47365 -0.29665,-0.29554 -2.16708,2.04615 -2.31628,2.19591 -0.39612,0.39763 -1.00068,0.97565 -1.28619,1.5494 -0.13705,0.27538 -0.2828,0.80049 -0.47081,0.98922 -0.11855,0.11899 0.0346,0.5343 -0.0417,0.68762 -0.0709,0.14256 -0.12265,0.78327 -0.0412,0.94544 l 0.51761,1.03032 c 0.13548,0.26969 -0.33422,1.21109 -0.0401,1.50407 0.31284,0.31166 0.54561,0.35832 0.7319,0.72913 0.0969,0.19277 -0.14445,0.75678 0.002,0.90239 0.26866,0.26764 0.34293,1.20098 1.03424,1.545 0.44817,0.22302 1.3907,-0.44058 1.7177,-0.60485 0.19434,-0.0977 0.30469,-0.17669 0.47203,-0.34466 0.11081,-0.11124 0.43245,0.12559 0.55862,-0.001 0.17015,-0.1708 0.52161,-0.4556 0.72945,-0.56001 0.14242,-0.0716 0.38031,0.22099 0.51581,0.0849 0.0274,-0.0276 -0.37504,-0.44421 -0.43061,-0.47186 -0.124,-0.0617 -0.0894,-0.43216 -0.17285,-0.51533 -0.24899,-0.24804 -0.32202,-3.19188 -0.13567,-3.56635 0.3476,-0.6985 1.97614,-0.27602 1.97389,-1.46475 -1.2e-4,-0.0644 0.11671,-0.35553 0.0422,-0.42979 -0.0288,-0.0286 -0.33038,0.51914 -0.3856,0.60232 -0.23706,0.35704 -0.60007,0.4305 -0.94423,0.60339 -0.55152,0.27707 -1.28495,-0.56671 -1.03333,-1.07232 0.16314,-0.32783 0.11115,-1.05874 0.34132,-1.28978 0.514,-0.51594 0.73407,-1.5118 1.24234,-2.022 0.14418,-0.14473 0.51649,-0.17402 0.68687,-0.34507 0.56921,-0.57137 0.98768,-0.64755 1.3724,-1.42064 0.073,-0.14673 0.21446,-0.20178 0.21411,-0.38715 -1.4e-4,-0.0763 -0.17921,0.22295 -0.25725,0.30129 -0.14586,0.14641 -0.40103,0.23033 -0.55789,0.3878 -0.44558,0.44726 -1.84538,1.25522 -1.84759,0.0894 -0.001,-0.6707 0.17242,-1.03664 0.42678,-1.54777 0.0799,-0.16058 -0.081,-0.44102 -0.001,-0.60159 0.0896,-0.18003 -0.0844,-0.77635 0.0413,-0.90248 0.4152,-0.41676 0.43966,-0.84455 0.98622,-1.11911 0.13728,-0.069 0.45925,-0.22224 0.64432,-0.13014 0.59227,0.29474 0.98105,1.05502 1.3947,1.45718 0.6528,0.56973 0.88126,1.37594 0.99005,1.59251 0.3785,0.75342 0.30653,2.37896 -0.0394,3.07406 -0.0327,0.0658 -0.74029,0.88683 -0.76687,0.86035 -0.0889,-0.0885 -0.50728,-1.25715 -0.90573,-0.85719 -0.26132,0.26231 -0.1646,0.78453 -0.35943,1.17603 -0.0522,0.1049 -0.88419,0.51788 -0.63141,0.76969 0.23553,-0.14181 1.28141,-1.36731 1.94375,-0.0489 0.1538,0.30616 -0.94644,2.57652 -0.94444,2.57852 0.0142,0.0142 0.99512,0.31455 0.99512,0.31455 -0.17346,3.3e-4 0.49658,-0.36258 0.49658,-0.36258 0.0839,0.26727 0.43545,0.47893 0.58887,0.63177 0.13981,0.13927 0.5415,-0.51149 0.54169,-0.40788 3e-5,0.0153 -0.73203,-0.75982 -0.13818,-1.35591 0.24186,-0.24279 0.94749,-0.36458 1.17508,-0.13785 0.0118,0.0118 0.19091,0.75949 0.31764,0.63228 0.0905,-0.0909 0.35634,-0.086 0.45172,-0.18167 0.0508,-0.051 0.29792,-0.51537 0.45136,-0.36251 0.84223,0.83905 0.54447,2.66305 1.40806,3.52338 0.17202,0.17137 -0.0741,0.82851 0.0923,0.99435 0.0777,0.0774 0.23919,0.16752 0.31661,0.0898 0.14969,-0.15026 -0.12606,-1.42565 0.0869,-1.8536 0.2539,-0.5102 0.64543,-0.60668 0.90394,-0.0921 0.46689,0.92936 1.40199,2.03322 0.0503,2.71225 -0.36358,0.18265 -0.57698,0.29999 -0.90386,0.13732 -0.37885,-0.18852 0.0626,-0.83998 -0.13758,-1.03946 -0.25975,-0.25877 -0.51256,1.88074 -0.44838,1.94469 0.0649,0.0647 0.52426,-0.51224 0.67697,-0.58896 0.44352,-0.22281 0.4449,0.6237 0.58913,0.76738 0.40778,0.40624 -0.92981,0.84703 -1.26447,0.68048 -0.15414,-0.0767 -0.44567,-0.81683 -0.54393,-0.76746 -0.58013,0.29144 0.033,0.82746 -0.3142,1.17593 -0.12904,0.12953 -0.31034,-0.0703 -0.45206,8.6e-4 -0.45442,0.22829 -1.23259,0.0684 -1.53802,-0.53955 -0.0355,-0.0707 -0.33324,-0.43545 -0.18193,-0.58733 0.0465,-0.0467 1.2648,-0.5023 1.26498,-0.40925 2.2e-4,0.11747 -1.14501,-0.27623 -1.22115,-0.31413 -0.59251,-0.29485 -0.59062,-1.58111 -0.13946,-2.03399 0.45729,-0.45903 0.35952,-1.11743 0.35813,-1.85411 -5.3e-4,-0.27847 0.0442,-0.52298 0.0437,-0.81378 -1.5e-4,-0.0753 -0.0758,-0.22589 -4.3e-4,-0.22603 0.12874,-2.5e-4 -0.0944,0.23969 -0.13494,0.3619 -0.0935,0.28234 -0.0693,0.7136 -0.36002,0.85959 -0.31004,0.15576 -0.37849,-0.42219 -0.49829,-0.54152 -0.0323,-0.0321 -0.38772,0.24541 -0.31584,0.31704 0.6709,0.66835 0.57228,3.04886 -0.0834,3.70702 -0.19872,0.19947 0.26838,0.72702 0.002,0.99452 -0.13408,0.13459 -0.5736,1.09802 -0.94795,0.72509 -1.18692,-1.18244 1.41861,-0.93302 0.99196,-1.35805 -0.11323,-0.1128 -0.0234,-0.42941 -0.13665,-0.54221 -0.11148,-0.11105 -0.50858,-0.14018 -0.6785,-0.22474 -0.29965,-0.14911 -0.60822,-1.16565 -0.77133,-1.49033 -0.15351,-0.30557 0.40827,-2.07489 0.40291,-2.08023 -0.14428,-0.14374 -0.54679,-0.13864 -0.72389,-0.31507 -0.13414,-0.13363 -0.85656,1.23145 -0.85607,1.49342 10e-4,0.7263 -1.63492,2.76064 -2.11944,2.76156 -0.2775,5.2e-4 0.22073,0.76134 0.36336,0.90342 0.39607,0.39458 1.94109,-1.4549 1.94315,-0.36532 3.3e-4,0.17328 0.0772,0.52545 10e-4,0.67808 -0.39907,0.80191 -3.43371,1.01914 -3.43494,0.36815 -1.3e-4,-0.0656 -0.62059,-0.50934 -0.76918,-0.36019 -0.18111,0.1818 -1.57436,0.75854 -1.81773,0.72322 -0.24338,-0.0353 -1.15034,0.60635 -0.9054,0.85707 z"
     id="path14359-1-7-5-3-0-73-1-9-8-4-9"
     inkscape:connector-curvature="0"
     sodipodi:nodetypes="ccscscssccssccssccssccsscscscccscccscccccccsccsccscccccssccccccccsscccccsccscccsccsccccscscccccccccccsccccccccccccsscsccccscscccccccsccsccsccccccccccccccccccccccccscccccssccsccscsccccscscccscccccccccccscccccccccccscsccccccccccscccccccccccccscccccsccccscccccccccsccscccccccccccsccccccsscssccccccsscscccccccsccscccscccscccccsccccscccsccsccscscccccccsccsccccccccscscsccsccscccscccccccsccccccccccscccssccscsccccccssscccccccccccccscccccscscccccsssccscssccscccccscccccccccccccccscsscscccsscscsssscscccssccccccccsccccccccccccscccssccsccscccccscccccccscccccsccssscsccscscscssccccscccccscccssccccccscccccccsccccssccccscccccccccscccccccccccsccccscsccsccsccscccccccccscccsscsccsscccsscsccccsscscccccscsscccccccccccsccccccccscccccccccccscccccscscccccssccccccccccsccccscccsccccccccsscccsscccccccccccccscccccccscssccssscccccccccc" />
  <path
     style="fill:none;stroke:#000000;stroke-width:1;stroke-linecap:round;stroke-linejoin:round;stroke-miterlimit:4;stroke-dasharray:none;stroke-opacity:1"
     d="m 238.55913,174.27954 c -1.79681,-1.1937 -3.03963,1.60218 -4.67422,0.31295"
     id="path14359-1-7-5-3-0-73-1-9-8-4-1"
     inkscape:connector-curvature="0"
     sodipodi:nodetypes="cc" />
  <path
     style="fill:none;stroke:#000000;stroke-width:1;stroke-linecap:round;stroke-linejoin:round;stroke-miterlimit:4;stroke-dasharray:none;stroke-opacity:1"
     d="m 236.8185,181.5169 c -0.87265,1.38223 -2.47317,0.68103 -4.0234,1.37241 -1.75949,0.78472 -3.29968,1.83627 -3.58241,2.51342"
     id="path14359-1-7-5-3-0-73-1-9-8-4-4"
     inkscape:connector-curvature="0"
     sodipodi:nodetypes="csc" />
  <path
     style="fill:none;stroke:#000000;stroke-width:1;stroke-linecap:round;stroke-linejoin:round;stroke-miterlimit:4;stroke-dasharray:none;stroke-opacity:1"
     d="m 240.84944,137.17661 c -0.80428,0.0746 -1.91633,-1.04539 -3.20843,-0.96963"
     id="path14359-1-7-5-3-0-73-1-9-8-4-3"
     inkscape:connector-curvature="0"
     sodipodi:nodetypes="cc" />
  <path
     style="fill:none;stroke:#000000;stroke-width:1;stroke-linecap:round;stroke-linejoin:round;stroke-miterlimit:4;stroke-dasharray:none;stroke-opacity:1"
     d="m 240.39137,129.48118 c -0.9693,-0.62352 -2.48114,-1.06386 -3.84609,-1.59093 -1.04588,-0.40386 -2.00552,-0.85865 -2.56876,-1.48577"
     id="path14359-1-7-5-3-0-73-1-9-8-4-47"
     inkscape:connector-curvature="0"
     sodipodi:nodetypes="csc" />
  <path
     style="fill:none;stroke:#000000;stroke-width:1;stroke-linecap:round;stroke-linejoin:round;stroke-miterlimit:4;stroke-dasharray:none;stroke-opacity:1"
     d="m 313.54341,112.30795 c 0.61787,0.28495 2.57894,3.25745 4.38488,6.42546 m 2.3609,4.49223 c 0.76117,1.62254 1.21672,2.89302 1.06365,3.3075 1.51864,-1.40854 4.44376,-0.13975 5.14033,1.54909 6.71918,16.29062 8.56615,36.70341 4.07862,53.87076 -0.62835,2.4038 -2.91083,2.91944 -5.04855,2.29121 0.53108,5.23339 -0.93159,13.19909 -2.86567,13.21616 -0.49811,-1.87857 -1.55602,-3.28895 -2.53918,-4.68246 -1.81673,1.00177 -2.90946,1.78476 -4.97031,1.81004 -0.52741,0.006 -1.49964,-0.20702 -0.88532,-1.45828 1.70149,-3.46568 1.79171,-7.37745 1.46394,-11.58391 -0.33822,-4.34061 -0.48757,-6.80992 1.28615,-7.59156 1.23267,-0.54322 2.03076,1.35055 1.28235,2.72859 -0.84424,1.55452 -1.88815,3.0149 -0.41038,4.38171 0.76416,0.70677 2.51864,-0.98234 2.90922,-2.84207 3.17656,-15.12504 0.27384,-33.464 -4.16941,-46.86691 -0.40548,-1.22321 -1.1834,-1.57354 -1.8541,-1.2849 -1.56603,0.67395 1.50574,5.5746 -0.10632,6.68457 -0.80924,0.55721 -1.58136,-1.14521 -2.06792,-3.19552 -0.43473,-1.83195 -0.73189,-3.65796 -2.27564,-5.47389"
     id="path14359-1-7-5-3-0-73-1-9-8-4-12"
     inkscape:connector-curvature="0"
     sodipodi:nodetypes="ccccsscccsssssssssssc" />
  <path
     style="fill:none;stroke:#000000;stroke-width:1;stroke-linecap:round;stroke-linejoin:round;stroke-miterlimit:4;stroke-dasharray:none;stroke-opacity:1"
     d="m 317.00737,173.91861 c 1.79681,-1.1937 2.58157,1.32734 4.21616,0.0381"
     id="path14359-1-7-5-3-0-73-1-9-8-4-1-8"
     inkscape:connector-curvature="0"
     sodipodi:nodetypes="cc" />
  <path
     style="fill:none;stroke:#000000;stroke-width:1;stroke-linecap:round;stroke-linejoin:round;stroke-miterlimit:4;stroke-dasharray:none;stroke-opacity:1"
     d="m 318.748,181.15597 c 0.87265,1.38223 2.47317,0.68103 4.0234,1.37241 1.75949,0.78472 2.65839,1.28659 2.94112,1.96374"
     id="path14359-1-7-5-3-0-73-1-9-8-4-4-4"
     inkscape:connector-curvature="0"
     sodipodi:nodetypes="csc" />
  <path
     style="fill:none;stroke:#000000;stroke-width:1;stroke-linecap:round;stroke-linejoin:round;stroke-miterlimit:4;stroke-dasharray:none;stroke-opacity:1"
     d="m 314.44222,136.90729 c 0.80428,0.0746 2.09955,-0.86217 3.39165,-0.78641"
     id="path14359-1-7-5-3-0-73-1-9-8-4-3-9"
     inkscape:connector-curvature="0"
     sodipodi:nodetypes="cc" />
  <path
     style="fill:none;stroke:#000000;stroke-width:1;stroke-linecap:round;stroke-linejoin:round;stroke-miterlimit:4;stroke-dasharray:none;stroke-opacity:1"
     d="m 314.71707,130.12798 c 1.42736,-1.81448 3.12242,-1.43031 4.48737,-1.95738 1.04588,-0.40386 1.63907,-1.04187 2.20231,-1.66899"
     id="path14359-1-7-5-3-0-73-1-9-8-4-47-2"
     inkscape:connector-curvature="0"
     sodipodi:nodetypes="csc" />
  <path
     style="fill:none;stroke:#000000;stroke-width:1;stroke-linecap:round;stroke-linejoin:round;stroke-miterlimit:4;stroke-dasharray:none;stroke-opacity:1"
     d="m 249.09453,114.91485 c -1.19464,0.63435 -1.51409,-0.53231 -0.64167,-2.1215 5.41959,-9.8723 17.5906,-16.279893 29.59209,-16.274287 13.82878,0.0065 24.22869,9.143567 28.58176,15.959857 0.90755,1.4211 -0.28015,2.46902 -1.19268,1.37469"
     id="path14359-1-7-5-3-0-73-1-9-8-6-4"
     inkscape:connector-curvature="0"
     sodipodi:nodetypes="csssc" />
  <path
     style="fill:none;stroke:#000000;stroke-width:1;stroke-linecap:round;stroke-linejoin:round;stroke-miterlimit:4;stroke-dasharray:none;stroke-opacity:1"
     d="m 306.21346,118.56991 c -0.79974,-1.54419 -1.38931,-2.74405 -2.5676,-3.88259 -1.05633,-1.0207 -1.47208,-2.31814 -0.72924,-3.1463 0.51601,-0.57528 1.28329,0.13785 2.24889,2.04272 0.43429,0.85675 1.28599,1.42571 2.33302,1.62058 1.63675,0.30464 2.5364,-1.18657 4.24327,-2.21467 0.77905,-0.46924 2.83548,-1.03121 3.7485,-2.23071 0.76461,-1.00452 0.74876,-2.65311 -0.0845,-3.90904 -9.73015,-14.665779 -22.79563,-20.657199 -37.29474,-20.725045 -14.50052,-0.06785 -28.66394,5.648738 -38.57731,20.589355 -0.83331,1.2559 -0.57428,2.99613 0.19033,4.00065 0.91302,1.1995 2.51139,1.57825 3.29044,2.04749 1.70687,1.0281 3.68675,3.51308 5.52584,2.58112 1.40122,-0.71007 1.44067,-1.58834 1.87496,-2.44509 0.9656,-1.90487 2.09933,-2.43478 2.61534,-1.8595 0.74284,0.82816 0.14387,1.85076 -0.91246,2.87146 -1.17829,1.13854 -2.0427,2.61324 -2.84244,4.15743"
     id="path14359-1-7-5-3-0-73-1-9-8-6-7"
     inkscape:connector-curvature="0"
     sodipodi:nodetypes="csssssssssssssssc" />
  <path
     style="fill:none;stroke:#000000;stroke-width:2;stroke-linecap:round;stroke-linejoin:round;stroke-miterlimit:4;stroke-dasharray:none;stroke-opacity:1"
     d="m 408.04665,294.46197 c -2.93311,-0.51603 -3.13143,-5.59454 -0.78793,-7.45712 1.61617,-1.28451 3.09726,-0.7753 3.11652,-3.80112 0.0468,-7.35549 -0.22474,-14.52388 -0.60298,-21.66784 -0.1568,-2.9615 -1.24382,-4.74466 -5.22759,-4.73285 -84.01971,0.24892 -168.03942,0.29526 -252.05913,0.74914 -2.97775,0.0161 -4.47943,1.14677 -4.72964,6.1902 -0.28061,5.65625 -0.29573,12.51412 0.40182,18.01098 0.75065,5.91538 5.02973,4.7783 4.26277,8.9902 -0.41161,2.26041 -1.87446,3.73926 -4.52099,3.55607"
     id="path14359-1-7-5-3-0-73-1-9-8-6-4-69"
     inkscape:connector-curvature="0"
     sodipodi:nodetypes="cssssssssc" />
  <path
     style="fill:none;stroke:#000000;stroke-width:1;stroke-linecap:round;stroke-linejoin:round;stroke-miterlimit:4;stroke-dasharray:none;stroke-opacity:1"
     d="m 304.40712,109.61617 c -0.22855,0.60304 -0.66263,1.16621 -1.31293,1.78702"
     id="path14359-1-7-5-3-0-73-1-9-8-6-4-69-4"
     inkscape:connector-curvature="0"
     sodipodi:nodetypes="cc" />
  <path
     style="fill:none;stroke:#000000;stroke-width:1;stroke-linecap:round;stroke-linejoin:round;stroke-miterlimit:4;stroke-dasharray:none;stroke-opacity:1"
     d="m 251.292,108.8477 c 0.45976,0.76016 1.13736,1.51483 1.76097,2.14865"
     id="path14359-1-7-5-3-0-73-1-9-8-6-4-69-4-5"
     inkscape:connector-curvature="0"
     sodipodi:nodetypes="cc" />
  <path
     style="fill:none;stroke:#000000;stroke-width:2;stroke-linecap:round;stroke-linejoin:round;stroke-miterlimit:4;stroke-dasharray:none;stroke-opacity:1"
     d="m 152.3266,288.73372 c -0.817,-2.52157 0.31581,-4.27644 4.16835,-4.29014 82.25927,-0.29254 165.64142,-0.39064 247.90021,-0.79747 2.77803,-0.0137 3.88341,1.60123 2.87439,3.3149"
     id="path14359-1-7-5-3-0-73-1-9-8-6-4-69-8"
     inkscape:connector-curvature="0"
     sodipodi:nodetypes="cssc" />
  <path
     style="fill:none;stroke:#000000;stroke-width:2;stroke-linecap:round;stroke-linejoin:round;stroke-miterlimit:4;stroke-dasharray:none;stroke-opacity:1"
     d="m 402.0604,283.68293 c 0.33538,2.48374 -0.20841,3.9802 0.12657,6.65105 0.4208,3.35508 3.67143,4.05706 6.52273,4.15558 8.26101,0.28541 19.428,-1.32893 28.19567,-3.65583 -4.09693,-4.18525 -12.1796,-10.01466 -12.29079,-11.59369 -0.0485,-1.92316 5.60682,-6.15958 10.09729,-13.40482 -6.04748,-0.78814 -23.26933,3.15892 -24.7165,-0.27996"
     id="path14359-1-7-5-3-0-73-1-9-8-6-4-69-5"
     inkscape:connector-curvature="0"
     sodipodi:nodetypes="csscccc" />
  <path
     style="fill:none;stroke:#000000;stroke-width:2;stroke-linecap:round;stroke-linejoin:round;stroke-miterlimit:4;stroke-dasharray:none;stroke-opacity:1"
     d="m 147.51631,268.61071 c -7.70855,0.37634 -19.44996,-0.50236 -25.80566,-1.74339 3.85951,4.76529 8.78105,11.21418 10.25993,14.05536 -2.56746,3.70349 -8.11033,8.05389 -12.60072,11.0653 9.77586,0.5343 22.44027,1.6154 28.13563,2.30325 3.76591,0.45482 6.78046,-0.51228 8.59422,-3.75684 0.65038,-1.16345 0.0984,-3.53919 0.87482,-6.13886"
     id="path14359-1-7-5-3-0-73-1-9-8-6-4-69-1"
     inkscape:connector-curvature="0"
     sodipodi:nodetypes="ccccssc" />
  <text
     xml:space="preserve"
     style="font-style:normal;font-variant:normal;font-weight:bold;font-stretch:normal;line-height:0%;font-family:Arial;-inkscape-font-specification:'Arial Bold';text-align:start;letter-spacing:0px;word-spacing:0px;text-anchor:start;fill:#000000;fill-opacity:1;stroke:#000000;stroke-width:1px;stroke-linecap:butt;stroke-linejoin:miter;stroke-opacity:1;"
     x="442.70038"
     y="168.21838"
     id="text10226-7"
     transform="scale(0.84011517,1.190313)"><tspan
       sodipodi:role="line"
       id="tspan10228-3"
       x="442.70038"
       y="168.21838"
       style="font-style:normal;font-variant:normal;font-weight:bold;font-stretch:normal;font-size:105.01439667px;line-height:1.29999995;font-family:Arial;-inkscape-font-specification:'Arial Bold';letter-spacing:0px;stroke:#000000;stroke-opacity:1;fill:#000000;fill-opacity:1;">67</tspan></text>
  <text
     xml:space="preserve"
     style="font-style:normal;font-variant:normal;font-weight:bold;font-stretch:normal;line-height:0%;font-family:Arial;-inkscape-font-specification:'Arial Bold';text-align:start;letter-spacing:0px;word-spacing:0px;text-anchor:start;fill:#000000;fill-opacity:1;stroke:#000000;stroke-width:1px;stroke-linecap:butt;stroke-linejoin:miter;stroke-opacity:1;"
     x="99.982925"
     y="169.18999"
     id="text10226-7-2"
     transform="scale(0.84011517,1.190313)"><tspan
       sodipodi:role="line"
       id="tspan10228-3-8"
       x="99.982925"
       y="169.18999"
       style="font-style:normal;font-variant:normal;font-weight:bold;font-stretch:normal;font-size:105.01439667px;line-height:1.29999995;font-family:Arial;-inkscape-font-specification:'Arial Bold';letter-spacing:0px;stroke:#000000;stroke-opacity:1;fill:#000000;fill-opacity:1;">LL</tspan></text>
  <text
     xml:space="preserve"
     style="font-style:normal;font-variant:normal;font-weight:bold;font-stretch:normal;line-height:0%;font-family:Arial;-inkscape-font-specification:'Arial Bold';text-align:center;letter-spacing:0px;word-spacing:0px;text-anchor:middle;fill:#000000;fill-opacity:1;stroke:#000000;stroke-width:1px;stroke-linecap:butt;stroke-linejoin:miter;stroke-opacity:1;"
     x="64.09243"
     y="118.99058"
     id="text10226-7-3"
     transform="scale(0.84011517,1.190313)"><tspan
       sodipodi:role="line"
       id="tspan10228-3-3"
       x="64.09243"
       y="118.99058"
       style="font-style:normal;font-variant:normal;font-weight:bold;font-stretch:normal;font-size:70px;line-height:94.99999881%;font-family:Arial;-inkscape-font-specification:'Arial Bold';text-align:center;letter-spacing:0px;text-anchor:middle;stroke:#000000;stroke-opacity:1;fill:#000000;fill-opacity:1;">D</tspan><tspan
       sodipodi:role="line"
       x="64.09243"
       y="185.49057"
       style="font-style:normal;font-variant:normal;font-weight:bold;font-stretch:normal;font-size:70px;line-height:94.99999881%;font-family:Arial;-inkscape-font-specification:'Arial Bold';text-align:center;letter-spacing:0px;text-anchor:middle;stroke:#000000;stroke-opacity:1;fill:#000000;fill-opacity:1;"
       id="tspan10274">L</tspan><tspan
       sodipodi:role="line"
       x="64.09243"
       y="251.99057"
       style="font-style:normal;font-variant:normal;font-weight:bold;font-stretch:normal;font-size:70px;line-height:94.99999881%;font-family:Arial;-inkscape-font-specification:'Arial Bold';text-align:center;letter-spacing:0px;text-anchor:middle;stroke:#000000;stroke-opacity:1;fill:#000000;fill-opacity:1;"
       id="tspan10276">A</tspan></text>
  <text
     xml:space="preserve"
     style="font-style:normal;font-variant:normal;font-weight:bold;font-stretch:condensed;line-height:0%;font-family:'Arial Narrow';-inkscape-font-specification:'Arial Narrow Bold Condensed';text-align:start;letter-spacing:0px;word-spacing:0px;text-anchor:start;fill:#000000;fill-opacity:1;stroke:none;stroke-width:1px;stroke-linecap:butt;stroke-linejoin:miter;stroke-opacity:1"
     x="158.52725"
     y="276.58145"
     id="text10278"><tspan
       sodipodi:role="line"
       id="tspan10280"
       x="158.52725"
       y="276.58145"
       style="font-size:13.75px;line-height:1.29999995">DEFENSE CONSTRUCTION SUPPLY CENTER</tspan></text>
  <text
     xml:space="preserve"
     style="font-style:normal;font-variant:normal;font-weight:bold;font-stretch:condensed;line-height:0%;font-family:'Arial Narrow';-inkscape-font-specification:'Arial Narrow Bold Condensed';text-align:start;letter-spacing:0.94999999px;word-spacing:0px;text-anchor:start;fill:#000000;fill-opacity:1;stroke:none;stroke-width:1px;stroke-linecap:butt;stroke-linejoin:miter;stroke-opacity:1"
     x="38.164829"
     y="20.761929"
     id="text10282"><tspan
       sodipodi:role="line"
       id="tspan10284"
       x="38.164829"
       y="20.761929"
       style="font-size:16.25px;line-height:1.29999995">STANDARD DLA PRIVATE VEHICLE IDENTIFICATION DEVICE</tspan></text>
  <text
     xml:space="preserve"
     style="font-style:normal;font-variant:normal;font-weight:bold;font-stretch:normal;font-size:8.75px;line-height:0%;font-family:Arial;-inkscape-font-specification:'Arial Bold';text-align:start;letter-spacing:1.16999996px;word-spacing:0px;text-anchor:start;fill:#000000;fill-opacity:1;stroke:none;stroke-width:1px;stroke-linecap:butt;stroke-linejoin:miter;stroke-opacity:1"
     id="text10286"><textPath
       xlink:href="#path14359-1-7-5-3-0-73-1-9-8-1"
       id="textPath10313"><tspan
   id="tspan10288"
   style="letter-spacing:1.16999996px;fill:#000000;fill-opacity:1;stroke:none">LOGISTICS</tspan></textPath></text>
  <path
     style="fill:none;stroke:none;stroke-width:1;stroke-linecap:butt;stroke-linejoin:miter;stroke-miterlimit:4;stroke-dasharray:none;stroke-opacity:1"
     d="m 252.23031,104.33503 c 11.01695,-13.380052 39.36901,-12.548358 51.01844,-0.29178"
     id="path14359-1-7-5-3-0-73-1-9-8-1"
     inkscape:connector-curvature="0"
     sodipodi:nodetypes="cc" />
  <text
     xml:space="preserve"
     style="font-style:normal;font-variant:normal;font-weight:bold;font-stretch:normal;font-size:8.75px;line-height:0%;font-family:Arial;-inkscape-font-specification:'Arial Bold';text-align:start;letter-spacing:0.87px;word-spacing:0px;text-anchor:start;fill:#000000;fill-opacity:1;stroke:none;stroke-width:1px;stroke-linecap:butt;stroke-linejoin:miter;stroke-opacity:1"
     id="text10286-9"><textPath
       xlink:href="#path10328"
       id="textPath10345">DEFENSE<tspan
   id="tspan10288-2"
   style="letter-spacing:0.87px;fill:#000000;fill-opacity:1;stroke:none" /></textPath></text>
  <path
     style="fill:none;stroke:none;stroke-width:1;stroke-linecap:butt;stroke-linejoin:miter;stroke-miterlimit:4;stroke-dasharray:none;stroke-opacity:1"
     d="m 232.38198,178.38026 c -2.31266,-15.26358 -0.61984,-32.68767 4.21989,-45.64146"
     id="path10328"
     inkscape:connector-curvature="0"
     sodipodi:nodetypes="cc" />
  <text
     xml:space="preserve"
     style="font-style:normal;font-variant:normal;font-weight:bold;font-stretch:normal;font-size:8.75px;line-height:0%;font-family:Arial;-inkscape-font-specification:'Arial Bold';text-align:start;letter-spacing:1.29999995px;word-spacing:0px;text-anchor:start;fill:#000000;fill-opacity:1;stroke:none;stroke-width:1px;stroke-linecap:butt;stroke-linejoin:miter;stroke-opacity:1"
     id="text10286-0"><textPath
       xlink:href="#path10328-9"
       id="textPath10363">AGENCY</textPath></text>
  <path
     style="fill:none;stroke:none;stroke-width:1;stroke-linecap:butt;stroke-linejoin:miter;stroke-miterlimit:4;stroke-dasharray:none;stroke-opacity:1"
     d="m 319.65894,134.3713 c 3.96239,10.58228 5.88356,26.90871 3.47931,41.74566"
     id="path10328-9"
     inkscape:connector-curvature="0"
     sodipodi:nodetypes="cc" />
</svg>
