<?xml version="1.0" encoding="UTF-8" standalone="no"?>
<!-- Created with Inkscape (http://www.inkscape.org/) -->

<svg
   xmlns:dc="http://purl.org/dc/elements/1.1/"
   xmlns:cc="http://creativecommons.org/ns#"
   xmlns:rdf="http://www.w3.org/1999/02/22-rdf-syntax-ns#"
   xmlns:svg="http://www.w3.org/2000/svg"
   xmlns="http://www.w3.org/2000/svg"
   xmlns:sodipodi="http://sodipodi.sourceforge.net/DTD/sodipodi-0.dtd"
   xmlns:inkscape="http://www.inkscape.org/namespaces/inkscape"
   id="svg23151"
   version="1.1"
   inkscape:version="0.92.2 5c3e80d, 2017-08-06"
   width="899.20001"
   height="677.12"
   viewBox="0 0 843 634.79999"
   sodipodi:docname="er01fe08.002.svg">
  <title id="title_er01fe08.002"></title>
  <desc id="desc_er01fe08.002"></desc>
  <metadata
     id="metadata23157">
    <rdf:RDF>
      <cc:Work
         rdf:about="">
        <dc:format>image/svg+xml</dc:format>
        <dc:type
           rdf:resource="http://purl.org/dc/dcmitype/StillImage" />
        <dc:title></dc:title>
      </cc:Work>
    </rdf:RDF>
  </metadata>
  <defs
     id="defs23155" />
  <sodipodi:namedview
     pagecolor="#ffffff"
     bordercolor="#666666"
     borderopacity="1"
     objecttolerance="10"
     gridtolerance="10"
     guidetolerance="10"
     inkscape:pageopacity="0"
     inkscape:pageshadow="2"
     inkscape:window-width="1280"
     inkscape:window-height="756"
     id="namedview23153"
     showgrid="false"
     inkscape:zoom="0.79817144"
     inkscape:cx="465.98981"
     inkscape:cy="384.05145"
     inkscape:window-x="40"
     inkscape:window-y="23"
     inkscape:window-maximized="0"
     inkscape:current-layer="svg23151" />
  <path
     style="fill:none;stroke:#000000;stroke-width:1;stroke-linecap:butt;stroke-linejoin:miter;stroke-miterlimit:4;stroke-dasharray:1, 1;stroke-dashoffset:0;stroke-opacity:1"
     d="M 839.82522,232.38185 5.3330099,232.37985"
     id="path14359-1-7-5-3-0-73-1-9-8"
     inkscape:connector-curvature="0"
     sodipodi:nodetypes="cc" />
  <path
     style="fill:none;stroke:#000000;stroke-width:1;stroke-linecap:butt;stroke-linejoin:miter;stroke-miterlimit:4;stroke-dasharray:1, 1;stroke-dashoffset:0;stroke-opacity:1"
     d="m 421.08222,172.137 -0.002,120.06194"
     id="path14359-1-7-5-3-0-73-1-9-8-2"
     inkscape:connector-curvature="0"
     sodipodi:nodetypes="cc" />
  <path
     style="fill:none;stroke:#000000;stroke-width:1;stroke-linecap:butt;stroke-linejoin:miter;stroke-miterlimit:4;stroke-dasharray:1, 1;stroke-dashoffset:0;stroke-opacity:1"
     d="m 420.43008,405.51448 -0.002,105.45867"
     id="path14359-1-7-5-3-0-73-1-9-8-2-6"
     inkscape:connector-curvature="0"
     sodipodi:nodetypes="cc" />
  <path
     style="fill:none;stroke:#000000;stroke-width:1;stroke-linecap:butt;stroke-linejoin:miter;stroke-miterlimit:4;stroke-dasharray:none;stroke-dashoffset:0;stroke-opacity:1"
     d="m 25.12934,376.51312 -10.82316,6.33988 10.82116,6.33989"
     id="path14359-1-7-5-3-0-73-1-9-8-2-3"
     inkscape:connector-curvature="0"
     sodipodi:nodetypes="ccc" />
  <path
     style="fill:none;stroke:#000000;stroke-width:1;stroke-linecap:butt;stroke-linejoin:miter;stroke-miterlimit:4;stroke-dasharray:none;stroke-dashoffset:0;stroke-opacity:1"
     d="m 14.23987,382.777 122.35549,6.1e-4 m 156.86608,7.7e-4 124.52599,6.2e-4"
     id="path14359-1-7-5-3-0-73-1-9-8-2-3-6"
     inkscape:connector-curvature="0"
     sodipodi:nodetypes="cccc" />
  <path
     style="fill:none;stroke:#000000;stroke-width:1;stroke-linecap:butt;stroke-linejoin:miter;stroke-miterlimit:4;stroke-dasharray:none;stroke-dashoffset:0;stroke-opacity:1"
     d="m 407.16709,376.42984 10.82316,6.33988 -10.82116,6.33989"
     id="path14359-1-7-5-3-0-73-1-9-8-2-3-65"
     inkscape:connector-curvature="0"
     sodipodi:nodetypes="ccc" />
  <path
     style="fill:none;stroke:#000000;stroke-width:1;stroke-linecap:butt;stroke-linejoin:miter;stroke-miterlimit:4;stroke-dasharray:none;stroke-dashoffset:0;stroke-opacity:1"
     d="m 434.23006,376.41626 -10.82316,6.33988 10.82116,6.33989"
     id="path14359-1-7-5-3-0-73-1-9-8-2-3-3"
     inkscape:connector-curvature="0"
     sodipodi:nodetypes="ccc" />
  <path
     style="fill:none;stroke:#000000;stroke-width:1;stroke-linecap:butt;stroke-linejoin:miter;stroke-miterlimit:4;stroke-dasharray:none;stroke-dashoffset:0;stroke-opacity:1"
     d="m 423.34058,382.68014 124.33114,6.2e-4 m 156.75564,7.7e-4 124.48287,6.1e-4"
     id="path14359-1-7-5-3-0-73-1-9-8-2-3-6-4"
     inkscape:connector-curvature="0"
     sodipodi:nodetypes="cccc" />
  <path
     style="fill:none;stroke:#000000;stroke-width:1;stroke-linecap:butt;stroke-linejoin:miter;stroke-miterlimit:4;stroke-dasharray:none;stroke-dashoffset:0;stroke-opacity:1"
     d="m 818.08989,376.33298 10.82316,6.33988 -10.82116,6.33989"
     id="path14359-1-7-5-3-0-73-1-9-8-2-3-65-5"
     inkscape:connector-curvature="0"
     sodipodi:nodetypes="ccc" />
  <path
     style="color:#000000;display:inline;overflow:visible;visibility:visible;fill:none;fill-rule:evenodd;stroke:#000000;stroke-width:1;stroke-linecap:round;stroke-linejoin:round;stroke-miterlimit:4;stroke-dasharray:none;stroke-dashoffset:0;stroke-opacity:1;marker:none;enable-background:accumulate"
     d="m 39.454625,465.89143 c -3.80897,0 -6.89676,-3.08778 -6.89676,-6.89676 v -24.08821 c 0,-3.80898 3.08778,-6.89677 6.89676,-6.89677 h 23.41536 c 3.80898,0 6.89677,3.08779 6.89677,6.89677 v 24.08821 c 0,3.80898 -3.08779,6.89676 -6.89677,6.89676 z"
     id="path22572"
     inkscape:connector-curvature="0"
     sodipodi:nodetypes="sssssssss" />
  <path
     style="color:#000000;display:inline;overflow:visible;visibility:visible;fill:none;fill-rule:evenodd;stroke:#000000;stroke-width:1;stroke-linecap:round;stroke-linejoin:round;stroke-miterlimit:4;stroke-dasharray:none;stroke-dashoffset:0;stroke-opacity:1;marker:none;enable-background:accumulate"
     d="m 25.432315,510.96126 v -84.88359 c 0,-3.09127 2.50597,-5.59724 5.59724,-5.59724 h 40.13094 c 3.09127,0 5.59724,2.50597 5.59724,5.59724 v 84.88359"
     id="path22572-0"
     inkscape:connector-curvature="0"
     sodipodi:nodetypes="cssssc" />
  <path
     style="color:#000000;display:inline;overflow:visible;visibility:visible;fill:none;fill-rule:evenodd;stroke:#000000;stroke-width:1;stroke-linecap:round;stroke-linejoin:round;stroke-miterlimit:4;stroke-dasharray:none;stroke-dashoffset:0;stroke-opacity:1;marker:none;enable-background:accumulate"
     d="m 162.92508,473.32303 c -2.27953,0 -4.12744,-1.8479 -4.12744,-4.12743 v -14.4158 c 0,-2.27953 1.84791,-4.12744 4.12744,-4.12744 h 27.53752 c 2.27952,0 4.12742,1.84791 4.12742,4.12744 v 14.4158 c 0,2.27953 -1.8479,4.12743 -4.12742,4.12743 z"
     id="path22572-9"
     inkscape:connector-curvature="0"
     sodipodi:nodetypes="sssssssss" />
  <path
     style="color:#000000;display:inline;overflow:visible;visibility:visible;fill:none;fill-rule:evenodd;stroke:#000000;stroke-width:1;stroke-linecap:round;stroke-linejoin:round;stroke-miterlimit:4;stroke-dasharray:none;stroke-dashoffset:0;stroke-opacity:1;marker:none;enable-background:accumulate"
     d="m 252.5164,473.18963 c -2.27953,0 -4.12744,-1.8479 -4.12744,-4.12743 v -14.4158 c 0,-2.27953 1.84791,-4.12744 4.12744,-4.12744 h 27.53752 c 2.27952,0 4.12742,1.84791 4.12742,4.12744 v 14.4158 c 0,2.27953 -1.8479,4.12743 -4.12742,4.12743 z"
     id="path22572-9-1"
     inkscape:connector-curvature="0"
     sodipodi:nodetypes="sssssssss" />
  <path
     style="color:#000000;display:inline;overflow:visible;visibility:visible;fill:none;fill-rule:evenodd;stroke:#000000;stroke-width:1;stroke-linecap:round;stroke-linejoin:round;stroke-miterlimit:4;stroke-dasharray:none;stroke-dashoffset:0;stroke-opacity:1;marker:none;enable-background:accumulate"
     d="m 297.5977,473.3242 c -2.27953,0 -4.12744,-1.8479 -4.12744,-4.12743 v -14.4158 c 0,-2.27953 1.84791,-4.12744 4.12744,-4.12744 h 27.53752 c 2.27952,0 4.12742,1.84791 4.12742,4.12744 v 14.4158 c 0,2.27953 -1.8479,4.12743 -4.12742,4.12743 z"
     id="path22572-9-8"
     inkscape:connector-curvature="0"
     sodipodi:nodetypes="sssssssss" />
  <path
     style="color:#000000;display:inline;overflow:visible;visibility:visible;fill:none;fill-rule:evenodd;stroke:#000000;stroke-width:1;stroke-linecap:round;stroke-linejoin:round;stroke-miterlimit:4;stroke-dasharray:none;stroke-dashoffset:0;stroke-opacity:1;marker:none;enable-background:accumulate"
     d="m 342.47713,473.32421 c -2.27953,0 -4.12744,-1.8479 -4.12744,-4.12743 v -14.4158 c 0,-2.27953 1.84791,-4.12744 4.12744,-4.12744 h 27.53752 c 2.27952,0 4.12742,1.84791 4.12742,4.12744 v 14.4158 c 0,2.27953 -1.8479,4.12743 -4.12742,4.12743 z"
     id="path22572-9-5"
     inkscape:connector-curvature="0"
     sodipodi:nodetypes="sssssssss" />
  <path
     style="color:#000000;display:inline;overflow:visible;visibility:visible;fill:none;fill-rule:evenodd;stroke:#000000;stroke-width:1;stroke-linecap:round;stroke-linejoin:round;stroke-miterlimit:4;stroke-dasharray:none;stroke-dashoffset:0;stroke-opacity:1;marker:none;enable-background:accumulate"
     d="m 398.12906,473.26981 h -10.8708 c -2.27953,0 -4.12744,-1.8479 -4.12744,-4.12743 v -14.4158 c 0,-2.27953 1.84791,-4.12744 4.12744,-4.12744 h 27.53752 c 2.27952,0 4.12742,1.84791 4.12742,4.12744 v 14.4158 c 0,2.27953 -1.8479,4.12743 -4.12742,4.12743 h -9.42151"
     id="path22572-9-2"
     inkscape:connector-curvature="0"
     sodipodi:nodetypes="cssssssssc" />
  <path
     style="color:#000000;display:inline;overflow:visible;visibility:visible;fill:none;fill-rule:evenodd;stroke:#000000;stroke-width:1;stroke-linecap:round;stroke-linejoin:round;stroke-miterlimit:4;stroke-dasharray:none;stroke-dashoffset:0;stroke-opacity:1;marker:none;enable-background:accumulate"
     d="m 431.8323,473.39149 c -2.27953,0 -4.12744,-1.8479 -4.12744,-4.12743 v -14.4158 c 0,-2.27953 1.84791,-4.12744 4.12744,-4.12744 h 27.53752 c 2.27952,0 4.12742,1.84791 4.12742,4.12744 v 14.4158 c 0,2.27953 -1.8479,4.12743 -4.12742,4.12743 z"
     id="path22572-9-3"
     inkscape:connector-curvature="0"
     sodipodi:nodetypes="sssssssss" />
  <path
     style="color:#000000;display:inline;overflow:visible;visibility:visible;fill:none;fill-rule:evenodd;stroke:#000000;stroke-width:1;stroke-linecap:round;stroke-linejoin:round;stroke-miterlimit:4;stroke-dasharray:none;stroke-dashoffset:0;stroke-opacity:1;marker:none;enable-background:accumulate"
     d="m 476.64444,473.45878 c -2.27953,0 -4.12744,-1.8479 -4.12744,-4.12743 v -14.4158 c 0,-2.27953 1.84791,-4.12744 4.12744,-4.12744 h 27.53752 c 2.27952,0 4.12742,1.84791 4.12742,4.12744 v 14.4158 c 0,2.27953 -1.8479,4.12743 -4.12742,4.12743 z"
     id="path22572-9-12"
     inkscape:connector-curvature="0"
     sodipodi:nodetypes="sssssssss" />
  <path
     style="color:#000000;display:inline;overflow:visible;visibility:visible;fill:none;fill-rule:evenodd;stroke:#000000;stroke-width:1;stroke-linecap:round;stroke-linejoin:round;stroke-miterlimit:4;stroke-dasharray:none;stroke-dashoffset:0;stroke-opacity:1;marker:none;enable-background:accumulate"
     d="m 566.80704,473.3915 c -2.27953,0 -4.12744,-1.8479 -4.12744,-4.12743 v -14.4158 c 0,-2.27953 1.84791,-4.12744 4.12744,-4.12744 h 27.53752 c 2.27952,0 4.12742,1.84791 4.12742,4.12744 v 14.4158 c 0,2.27953 -1.8479,4.12743 -4.12742,4.12743 z"
     id="path22572-9-80"
     inkscape:connector-curvature="0"
     sodipodi:nodetypes="sssssssss" />
  <path
     style="color:#000000;display:inline;overflow:visible;visibility:visible;fill:none;fill-rule:evenodd;stroke:#000000;stroke-width:1;stroke-linecap:round;stroke-linejoin:round;stroke-miterlimit:4;stroke-dasharray:none;stroke-dashoffset:0;stroke-opacity:1;marker:none;enable-background:accumulate"
     d="m 611.62628,473.47148 c -2.27953,0 -4.12744,-1.8479 -4.12744,-4.12743 v -14.4158 c 0,-2.27953 1.84791,-4.12744 4.12744,-4.12744 h 27.53752 c 2.27952,0 4.12742,1.84791 4.12742,4.12744 v 14.4158 c 0,2.27953 -1.8479,4.12743 -4.12742,4.12743 z"
     id="path22572-9-15"
     inkscape:connector-curvature="0"
     sodipodi:nodetypes="sssssssss" />
  <path
     style="color:#000000;display:inline;overflow:visible;visibility:visible;fill:none;fill-rule:evenodd;stroke:#000000;stroke-width:1;stroke-linecap:round;stroke-linejoin:round;stroke-miterlimit:4;stroke-dasharray:none;stroke-dashoffset:0;stroke-opacity:1;marker:none;enable-background:accumulate"
     d="m 656.16219,473.52606 c -2.27953,0 -4.12744,-1.8479 -4.12744,-4.12743 v -14.4158 c 0,-2.27953 1.84791,-4.12744 4.12744,-4.12744 h 14.14771 c 2.27952,0 4.12742,1.84791 4.12742,4.12744 v 14.4158 c 0,2.27953 -1.8479,4.12743 -4.12742,4.12743 z"
     id="path22572-9-51"
     inkscape:connector-curvature="0"
     sodipodi:nodetypes="sssssssss" />
  <path
     style="color:#000000;display:inline;overflow:visible;visibility:visible;fill:none;fill-rule:evenodd;stroke:#000000;stroke-width:1;stroke-linecap:round;stroke-linejoin:round;stroke-miterlimit:4;stroke-dasharray:none;stroke-dashoffset:0;stroke-opacity:1;marker:none;enable-background:accumulate"
     d="m 778.01502,465.87047 c -3.80897,0 -6.89676,-3.08778 -6.89676,-6.89676 V 434.8855 c 0,-3.80898 3.08778,-6.89677 6.89676,-6.89677 h 24.60407 c 3.80898,0 6.89677,3.08779 6.89677,6.89677 v 24.08821 c 0,3.80898 -3.08779,6.89676 -6.89677,6.89676 z"
     id="path22572-8"
     inkscape:connector-curvature="0"
     sodipodi:nodetypes="sssssssss" />
  <path
     style="color:#000000;display:inline;overflow:visible;visibility:visible;fill:none;fill-rule:evenodd;stroke:#000000;stroke-width:1;stroke-linecap:round;stroke-linejoin:round;stroke-miterlimit:4;stroke-dasharray:none;stroke-dashoffset:0;stroke-opacity:1;marker:none;enable-background:accumulate"
     d="m 763.99271,510.9403 v -84.88359 c 0,-3.09127 2.50597,-5.59724 5.59724,-5.59724 h 41.31965 c 3.09127,0 5.59724,2.50597 5.59724,5.59724 v 84.88359"
     id="path22572-0-1"
     inkscape:connector-curvature="0"
     sodipodi:nodetypes="cssssc" />
  <path
     style="fill:none;stroke:#000000;stroke-width:2;stroke-linecap:round;stroke-linejoin:round;stroke-miterlimit:4;stroke-dasharray:none;stroke-opacity:1"
     d="m 407.6999,511.07124 h 424.07947 l 0.002,-105.61815 H 10.465617 l -0.002,105.61815 H 394.99841"
     id="path14359-1-7-5-3-0-73-1-9-8-8-4"
     inkscape:connector-curvature="0"
     sodipodi:nodetypes="cccccc" />
  <path
     style="fill:none;stroke:#000000;stroke-width:2;stroke-linecap:round;stroke-linejoin:round;stroke-miterlimit:4;stroke-dasharray:none;stroke-opacity:1"
     d="M 442.26409,171.88247 H 11.60224 l -9.5086201,60.14348 9.5066201,60.14349 h 384.94294 m 11.41095,0 h 424.17652 l 10.17194,-59.92239 -10.16994,-60.36458 H 453.42823"
     id="path14359-1-7-5-3-0-73-1-9-8-8-0"
     inkscape:connector-curvature="0"
     sodipodi:nodetypes="cccccccccc" />
  <path
     style="fill:#000000;fill-opacity:1;stroke:#000000;stroke-width:1;stroke-linecap:round;stroke-linejoin:round;stroke-miterlimit:4;stroke-dasharray:none;stroke-opacity:1"
     d="m 765.17082,175.30826 h 51.836 l 0.002,-6.6798 h -51.836 z m -570.50358,-5.70063 h -35.13482 l -0.002,4.47667 h 35.13482 z m 10.00567,4.47667 h 34.89501 l 0.002,-4.47667 h -34.89501 z m 45.03702,0 h 35.01937 l 0.002,-4.47667 h -35.01937 z m 79.98167,0 0.002,-4.47667 h -35.43586 l -0.002,4.47667 z m 9.90305,0 h 35.14651 l 0.002,-4.47667 h -35.14651 z m 44.97554,0 h 34.59047 l 0.002,-4.47667 h -34.59047 z m 66.48989,0 h 12.93734 l 0.002,-4.47667 h -9.79792 z m -9.76258,-4.47667 h -12.35711 l -0.002,4.47667 h 15.35554 z m 32.43561,4.47667 h 34.89335 l 0.002,-4.47667 h -34.89335 z m 44.85857,0 h 35.34214 l 0.002,-4.47667 h -35.34214 z m 45.25661,0 h 35.08773 l 0.002,-4.47667 h -35.08773 z m 55.81491,0 h 23.99243 l 0.002,-4.47667 h -28.64351 c 1.30175,1.68367 2.77616,3.17379 4.64908,4.47667 z m 33.29726,0 h 21.70769 l 0.002,-4.47667 H 652.96246 Z M 78.05502,168.62846 H 26.88924 l -0.002,6.6798 h 51.16578 z"
     id="path14359-1-7-5-3-0-73-1-9-8-8-5"
     inkscape:connector-curvature="0"
     sodipodi:nodetypes="ccccccccccccccccccccccccccccccccccccccccccccccccccccccccccccccccccccccccccc" />
  <path
     style="fill:#000000;fill-opacity:1;stroke:#000000;stroke-width:1;stroke-linecap:round;stroke-linejoin:round;stroke-miterlimit:4;stroke-dasharray:none;stroke-opacity:1"
     d="m 764.93511,288.83767 h 51.836 l 0.002,6.6798 h -51.836 z m -570.50358,5.70063 h -35.13482 l -0.002,-4.47667 h 35.13482 z m 54.65953,-4.47667 h 35.40253 l 0.002,4.47667 h -35.40253 z m -9.87967,4.47667 H 204.4392 l -0.002,-4.47667 h 34.77219 z m 55.10377,0 -0.002,-4.47667 h 35.14273 l 0.002,4.47667 z m 45.04378,-4.47667 h 35.14651 l 0.002,4.47667 h -35.14651 z m 66.47822,0 h 13.08779 l 0.002,4.47667 h -10.14669 z m -10.27501,4.47667 h -11.53547 l -0.002,-4.47667 h 14.58383 z m 33.14053,-4.47667 h 35.05903 l 0.002,4.47667 h -35.05903 z m 44.79472,0 h 34.89335 l 0.002,4.47667 H 473.4994 Z m 89.68766,0 h 35.42097 l 0.002,4.47667 h -35.42097 z m -9.80807,4.47667 h -35.01902 l -0.002,-4.47667 h 35.01902 z m 55.34597,-4.47667 h 34.69696 l 0.002,4.47667 h -34.69696 z m 44.00179,0 h 21.70769 l 0.002,4.47667 H 652.72675 Z M 77.81931,295.51747 H 26.65353 l -0.002,-6.6798 h 51.16578 z"
     id="path14359-1-7-5-3-0-73-1-9-8-8-5-4"
     inkscape:connector-curvature="0"
     sodipodi:nodetypes="ccccccccccccccccccccccccccccccccccccccccccccccccccccccccccccccccccccccccccc" />
  <path
     style="fill:#000000;fill-opacity:1;stroke:#000000;stroke-width:1;stroke-linecap:round;stroke-linejoin:round;stroke-miterlimit:4;stroke-dasharray:none;stroke-opacity:1"
     d="m 1.2508799,217.49378 -0.002,29.78822 h 5.73115 l 0.002,-29.78822 z"
     id="path14359-1-7-5-3-0-73-1-9-8-7"
     inkscape:connector-curvature="0"
     sodipodi:nodetypes="ccccc" />
  <path
     style="fill:#000000;fill-opacity:1;stroke:#000000;stroke-width:1;stroke-linecap:round;stroke-linejoin:round;stroke-miterlimit:4;stroke-dasharray:none;stroke-opacity:1"
     d="m 836.90311,217.46797 -0.002,29.78822 h 5.73115 l 0.002,-29.78822 z"
     id="path14359-1-7-5-3-0-73-1-9-8-7-7"
     inkscape:connector-curvature="0"
     sodipodi:nodetypes="ccccc" />
  <text
     xml:space="preserve"
     style="font-style:normal;font-variant:normal;font-weight:bold;font-stretch:normal;line-height:0%;font-family:Arial;-inkscape-font-specification:'Arial Bold';text-align:center;letter-spacing:-0.02px;word-spacing:0px;text-anchor:middle;fill:#000000;fill-opacity:1;stroke:none;stroke-width:1px;stroke-linecap:butt;stroke-linejoin:miter;stroke-opacity:1"
     x="428.84213"
     y="15.88662"
     id="text22946"><tspan
       sodipodi:role="line"
       id="tspan22948"
       x="428.83212"
       y="15.88662"
       style="font-size:20px;line-height:1.21000004">Figure 1a to Subpart B of Part 238—Example of Location of</tspan><tspan
       sodipodi:role="line"
       x="428.84213"
       y="40.08662"
       id="tspan22972"
       style="font-size:20px;line-height:1.21000004;letter-spacing:0px;fill:#000000;fill-opacity:1">Rescue Access Windows—§ 238.114</tspan></text>
  <text
     xml:space="preserve"
     style="font-style:normal;font-variant:normal;font-weight:bold;font-stretch:normal;line-height:0%;font-family:Arial;-inkscape-font-specification:'Arial Bold';text-align:center;letter-spacing:-0.02px;word-spacing:0px;text-anchor:middle;fill:#000000;fill-opacity:1;stroke:none;stroke-width:1px;stroke-linecap:butt;stroke-linejoin:miter;stroke-opacity:1"
     x="428.15616"
     y="70.387527"
     id="text22946-8"><tspan
       sodipodi:role="line"
       x="428.14615"
       y="70.387527"
       id="tspan22972-5"
       style="font-size:17.5px;line-height:1.21000004">Top and Side View Depictions of a Single-Level Passenger Car</tspan></text>
  <text
     xml:space="preserve"
     style="font-style:normal;font-variant:normal;font-weight:normal;font-stretch:normal;line-height:0%;font-family:Arial;-inkscape-font-specification:Arial;text-align:start;letter-spacing:0px;word-spacing:0px;text-anchor:start;fill:#000000;fill-opacity:1;stroke:none;stroke-width:1px;stroke-linecap:butt;stroke-linejoin:miter;stroke-opacity:1"
     x="549.69159"
     y="388.89398"
     id="text23014"><tspan
       sodipodi:role="line"
       id="tspan23016"
       x="549.69159"
       y="388.89398"
       style="font-size:17.5px;line-height:1.29999995">B-End (Half) of Car</tspan></text>
  <text
     xml:space="preserve"
     style="font-style:normal;font-variant:normal;font-weight:normal;font-stretch:normal;line-height:0%;font-family:Arial;-inkscape-font-specification:Arial;text-align:start;letter-spacing:0px;word-spacing:0px;text-anchor:start;fill:#000000;fill-opacity:1;stroke:none;stroke-width:1px;stroke-linecap:butt;stroke-linejoin:miter;stroke-opacity:1"
     x="137.98209"
     y="389.19153"
     id="text23014-6"><tspan
       sodipodi:role="line"
       id="tspan23016-6"
       x="137.98209"
       y="389.19153"
       style="font-size:17.5px;line-height:1.29999995">A-End (Half) of Car</tspan></text>
  <text
     xml:space="preserve"
     style="font-style:normal;font-variant:normal;font-weight:normal;font-stretch:normal;line-height:0%;font-family:Arial;-inkscape-font-specification:Arial;text-align:start;letter-spacing:0.03px;word-spacing:0px;text-anchor:start;fill:#000000;fill-opacity:1;stroke:none;stroke-width:1px;stroke-linecap:butt;stroke-linejoin:miter;stroke-opacity:1"
     x="347.60275"
     y="607.96887"
     id="text23014-3-0"><tspan
       sodipodi:role="line"
       id="tspan23016-9-3"
       x="347.60275"
       y="607.96887"
       style="font-size:10px;line-height:1.29999995">Rescue Access Window</tspan></text>
  <path
     style="color:#000000;display:inline;overflow:visible;visibility:visible;fill:none;fill-rule:evenodd;stroke:#000000;stroke-width:1;stroke-linecap:round;stroke-linejoin:round;stroke-miterlimit:4;stroke-dasharray:none;stroke-dashoffset:0;stroke-opacity:1;marker:none;enable-background:accumulate"
     d="m 207.63216,473.08045 c -2.27953,0 -4.12744,-1.8479 -4.12744,-4.12743 v -14.4158 c 0,-2.27953 1.84791,-4.12744 4.12744,-4.12744 h 27.53752 c 2.27952,0 4.12742,1.84791 4.12742,4.12744 v 14.4158 c 0,2.27953 -1.8479,4.12743 -4.12742,4.12743 z"
     id="path22572-9-7"
     inkscape:connector-curvature="0"
     sodipodi:nodetypes="sssssssss" />
  <path
     style="color:#000000;display:inline;overflow:visible;visibility:visible;fill:none;fill-rule:evenodd;stroke:#000000;stroke-width:1;stroke-linecap:round;stroke-linejoin:round;stroke-miterlimit:4;stroke-dasharray:none;stroke-dashoffset:0;stroke-opacity:1;marker:none;enable-background:accumulate"
     d="m 521.6251,473.16587 c -2.27953,0 -4.12744,-1.8479 -4.12744,-4.12743 v -14.4158 c 0,-2.27953 1.84791,-4.12744 4.12744,-4.12744 h 27.53752 c 2.27952,0 4.12742,1.84791 4.12742,4.12744 v 14.4158 c 0,2.27953 -1.8479,4.12743 -4.12742,4.12743 z"
     id="path22572-9-80-8"
     inkscape:connector-curvature="0"
     sodipodi:nodetypes="sssssssss" />
  <path
     style="fill:none;stroke:#000000;stroke-width:1;stroke-linecap:round;stroke-linejoin:round;stroke-miterlimit:4;stroke-dasharray:none;stroke-opacity:1"
     d="m 395.72278,551.58447 -6e-5,6.01476 h 11.32165 l 6e-5,-6.01476 z m -1.9e-4,9.07331 -5e-4,2.97385 h 11.32166 l 5e-4,-2.97385 z m 11.32191,-12.48359 2.5e-4,-58.20655 h 5.78771 L 401.819,465.78863 390.22476,489.96764 h 5.49833 l -2.5e-4,58.20655 z"
     id="path14359-1-7-5-3-0-73-1-9-3"
     inkscape:connector-curvature="0"
     sodipodi:nodetypes="cccccccccccccccccc"
     inkscape:transform-center-x="0.03366111"
     inkscape:transform-center-y="-0.1641457" />
  <path
     style="fill:none;stroke:#000000;stroke-width:1;stroke-linecap:round;stroke-linejoin:round;stroke-miterlimit:4;stroke-dasharray:none;stroke-opacity:1"
     d="m 442.11888,119.79022 -6e-5,-4.00071 h 11.32165 l 6e-5,4.00071 z m -1.9e-4,-6.25364 -5e-4,-2.16823 h 11.32166 l 5e-4,2.16823 z m 11.32191,8.65689 2.5e-4,40.08011 h 5.78771 l -11.61767,16.92843 -10.99003,-16.92843 h 5.49833 l -2.5e-4,-40.08011 z"
     id="path14359-1-7-5-3-0-73-1-9-3-7"
     inkscape:connector-curvature="0"
     sodipodi:nodetypes="cccccccccccccccccc"
     inkscape:transform-center-x="0.03366111"
     inkscape:transform-center-y="0.16414666" />
  <path
     style="fill:none;stroke:#000000;stroke-width:1;stroke-linecap:round;stroke-linejoin:round;stroke-miterlimit:4;stroke-dasharray:none;stroke-opacity:1"
     d="m 396.39995,344.08908 -6e-5,4.00071 h 11.32165 l 6e-5,-4.00071 z m -1.9e-4,6.25364 -5e-4,2.16823 h 11.32166 l 5e-4,-2.16823 z m 11.32191,-8.65689 2.5e-4,-40.08011 h 5.78771 l -11.2046,-16.92843 -11.4031,16.92843 h 5.49833 l -2.5e-4,40.08011 z"
     id="path14359-1-7-5-3-0-73-1-9-3-7-9"
     inkscape:connector-curvature="0"
     sodipodi:nodetypes="cccccccccccccccccc"
     inkscape:transform-center-x="0.03366111"
     inkscape:transform-center-y="-0.16414662" />
</svg>
