<?xml version="1.0" encoding="UTF-8" standalone="no"?>
<!-- Created with Inkscape (http://www.inkscape.org/) -->

<svg
   xmlns:dc="http://purl.org/dc/elements/1.1/"
   xmlns:cc="http://creativecommons.org/ns#"
   xmlns:rdf="http://www.w3.org/1999/02/22-rdf-syntax-ns#"
   xmlns:svg="http://www.w3.org/2000/svg"
   xmlns="http://www.w3.org/2000/svg"
   xmlns:sodipodi="http://sodipodi.sourceforge.net/DTD/sodipodi-0.dtd"
   xmlns:inkscape="http://www.inkscape.org/namespaces/inkscape"
   id="svg8580"
   version="1.1"
   inkscape:version="0.92.2 5c3e80d, 2017-08-06"
   width="722.56"
   height="318.08002"
   viewBox="0 0 677.40002 298.20001"
   sodipodi:docname="er01de03.015.svg">
  <title id="title_er01de03.015">FIGURE 3 ─ MOVING DEFORMABLE BARRIER REAR IMPACT - 70% OVERLAP</title>
  <desc id="desc_er01de03.015"></desc>
  <metadata
     id="metadata8586">
    <rdf:RDF>
      <cc:Work
         rdf:about="">
        <dc:format>image/svg+xml</dc:format>
        <dc:type
           rdf:resource="http://purl.org/dc/dcmitype/StillImage" />
        <dc:title></dc:title>
      </cc:Work>
    </rdf:RDF>
  </metadata>
  <defs
     id="defs8584" />
  <sodipodi:namedview
     pagecolor="#ffffff"
     bordercolor="#666666"
     borderopacity="1"
     objecttolerance="10"
     gridtolerance="10"
     guidetolerance="10"
     inkscape:pageopacity="0"
     inkscape:pageshadow="2"
     inkscape:window-width="1280"
     inkscape:window-height="756"
     id="namedview8582"
     showgrid="false"
     inkscape:zoom="0.76671083"
     inkscape:cx="248.77965"
     inkscape:cy="1.1675536"
     inkscape:window-x="0"
     inkscape:window-y="23"
     inkscape:window-maximized="0"
     inkscape:current-layer="svg8580" />
  <path
     style="fill:none;stroke:#000000;stroke-width:1;stroke-linecap:butt;stroke-linejoin:miter;stroke-miterlimit:4;stroke-dasharray:none;stroke-opacity:1"
     d="m 662.3754,58.586611 -50.97546,-0.002"
     id="path14359-1-7-5-3-0-73-1-9"
     inkscape:connector-curvature="0"
     sodipodi:nodetypes="cc"
     inkscape:transform-center-x="-0.16414889"
     inkscape:transform-center-y="-0.033665701" />
  <path
     style="fill:none;stroke:#000000;stroke-width:1;stroke-linecap:butt;stroke-linejoin:miter;stroke-miterlimit:4;stroke-dasharray:none;stroke-opacity:1"
     d="m 662.3754,164.79972 -50.97546,-0.002"
     id="path14359-1-7-5-3-0-73-1-9-2"
     inkscape:connector-curvature="0"
     sodipodi:nodetypes="cc"
     inkscape:transform-center-x="-0.16414889"
     inkscape:transform-center-y="-0.033665701" />
  <path
     style="fill:none;stroke:#000000;stroke-width:1;stroke-linecap:butt;stroke-linejoin:miter;stroke-miterlimit:4;stroke-dasharray:none;stroke-dashoffset:0;stroke-opacity:1"
     d="m 647.30303,112.28193 -9.59059,-5e-5 m -4.44399,-2e-5 -4.77729,-3e-5 m -3.44409,-1e-5 -10.11007,-5e-5 m -4.33289,-3e-5 -4.44399,-2e-5 m -3.99959,-2e-5 -10.22118,-5e-5 m -3.88849,-2e-5 -4.44399,-2e-5 m -4.22179,-2e-5 -9.22127,-5e-5 m -3.99959,-2e-5 -3.99959,-2e-5 m -4.99949,-3e-5 -8.88798,-4e-5 m -3.99959,-2e-5 -5.44389,-3e-5 m -4.22179,-2e-5 -9.77677,-5e-5 m -3.77739,-2e-5 -4.11069,-2e-5 m -4.99949,-3e-5 -9.22128,-4e-5 m -4.11069,-2e-5 -4.22179,-3e-5 m -4.66618,-2e-5 -9.44348,-5e-5 m -4.55509,-2e-5 -3.33299,-2e-5 m -4.99949,-2e-5 -8.99908,-5e-5 m -3.88849,-2e-5 -4.33289,-2e-5 m -2.44419,-1e-5 -11.66548,-9e-5 m -3.55519,-3e-5 -3.99959,-2e-5 m -4.11069,-3e-5 -9.66567,-7e-5 m -4.22179,-3e-5 -3.77739,-3e-5 m -3.2219,-3e-5 -10.33227,-7e-5 m -4.55509,-3e-5 -4.11069,-3e-5 m -4.33289,-3e-5 -9.11018,-7e-5 m -3.77739,-2e-5 -4.66618,-3e-5 m -3.6663,-3e-5 -9.44347,-6e-5 m -4.55509,-2e-5 -4.55509,-3e-5 m -3.99959,-3e-5 -8.32349,-5e-5"
     id="path14359-1-7-5-3-0-73-1-9-9"
     inkscape:connector-curvature="0"
     sodipodi:nodetypes="cccccccccccccccccccccccccccccccccccccccccccccccccccccccccc"
     inkscape:transform-center-x="-0.16414889"
     inkscape:transform-center-y="-0.033665701" />
  <path
     style="fill:none;stroke:#000000;stroke-width:1;stroke-linecap:butt;stroke-linejoin:miter;stroke-miterlimit:4;stroke-dasharray:none;stroke-opacity:1"
     d="m 334.58099,138.51845 25.05989,62.78956 23.77331,0.001"
     id="path14359-1-7-5-3-0-73-1-9-5"
     inkscape:connector-curvature="0"
     sodipodi:nodetypes="ccc"
     inkscape:transform-center-x="0.16414111"
     inkscape:transform-center-y="0.033664299" />
  <path
     style="fill:none;stroke:#000000;stroke-width:1;stroke-linecap:butt;stroke-linejoin:miter;stroke-miterlimit:4;stroke-dasharray:none;stroke-opacity:1"
     d="m 328.65535,138.63241 23.07945,0.002"
     id="path14359-1-7-5-3-0-73-1-9-6"
     inkscape:connector-curvature="0"
     sodipodi:nodetypes="cc"
     inkscape:transform-center-x="0.16414111"
     inkscape:transform-center-y="0.033664299" />
  <path
     style="fill:none;stroke:#000000;stroke-width:1;stroke-linecap:butt;stroke-linejoin:miter;stroke-miterlimit:4;stroke-dasharray:8, 4;stroke-dashoffset:0;stroke-opacity:1"
     d="m 243.83034,7.3411163 -0.002,148.6910637"
     id="path14359-1-7-5-3-0-73-1-9-3"
     inkscape:connector-curvature="0"
     sodipodi:nodetypes="cc"
     inkscape:transform-center-x="0.03366111"
     inkscape:transform-center-y="-0.1641457" />
  <path
     style="fill:none;stroke:#000000;stroke-width:1;stroke-linecap:butt;stroke-linejoin:miter;stroke-miterlimit:4;stroke-dasharray:8, 4;stroke-dashoffset:0;stroke-opacity:1"
     d="M 55.76105,7.0993801 55.75905,155.79044"
     id="path14359-1-7-5-3-0-73-1-9-3-4"
     inkscape:connector-curvature="0"
     sodipodi:nodetypes="cc"
     inkscape:transform-center-x="0.03366111"
     inkscape:transform-center-y="-0.1641457" />
  <path
     style="fill:none;stroke:#000000;stroke-width:1;stroke-linecap:round;stroke-linejoin:round;stroke-miterlimit:4;stroke-dasharray:none;stroke-opacity:1"
     d="m 314.90023,25.068299 -0.002,113.075541"
     id="path14359-1-7-5-3-0-73-1-9-8-5"
     inkscape:connector-curvature="0"
     sodipodi:nodetypes="cc" />
  <path
     style="fill:none;stroke:#000000;stroke-width:1;stroke-linecap:round;stroke-linejoin:round;stroke-miterlimit:4;stroke-dasharray:none;stroke-opacity:1"
     d="m 288.95408,25.068299 -0.002,113.075541"
     id="path14359-1-7-5-3-0-73-1-9-8-5-0"
     inkscape:connector-curvature="0"
     sodipodi:nodetypes="cc" />
  <path
     style="fill:none;stroke:#000000;stroke-width:1;stroke-linecap:round;stroke-linejoin:round;stroke-miterlimit:4;stroke-dasharray:none;stroke-opacity:1"
     d="m 280.57396,25.068299 -0.002,113.075541 h 44.31795 l 0.002,-113.075541 z"
     id="path14359-1-7-5-3-0-73-1-9-8-5-4"
     inkscape:connector-curvature="0"
     sodipodi:nodetypes="ccccc" />
  <path
     style="fill:none;stroke:#000000;stroke-width:1;stroke-linecap:round;stroke-linejoin:round;stroke-miterlimit:4;stroke-dasharray:none;stroke-opacity:1"
     d="m 288.96815,127.21076 35.74655,0.002"
     id="path14359-1-7-5-3-0-73-1-9-8-5-7"
     inkscape:connector-curvature="0"
     sodipodi:nodetypes="cc" />
  <path
     style="fill:none;stroke:#000000;stroke-width:1;stroke-linecap:round;stroke-linejoin:round;stroke-miterlimit:4;stroke-dasharray:none;stroke-opacity:1"
     d="m 288.96815,69.567121 35.74655,0.002"
     id="path14359-1-7-5-3-0-73-1-9-8-5-3"
     inkscape:connector-curvature="0"
     sodipodi:nodetypes="cc" />
  <path
     style="fill:none;stroke:#000000;stroke-width:1;stroke-linecap:round;stroke-linejoin:round;stroke-miterlimit:4;stroke-dasharray:none;stroke-opacity:1"
     d="m 288.96815,56.680024 35.74655,0.002"
     id="path14359-1-7-5-3-0-73-1-9-8-5-2"
     inkscape:connector-curvature="0"
     sodipodi:nodetypes="cc" />
  <path
     style="fill:none;stroke:#000000;stroke-width:1;stroke-linecap:round;stroke-linejoin:round;stroke-miterlimit:4;stroke-dasharray:none;stroke-opacity:1"
     d="m 288.96815,131.2162 35.74655,0.002"
     id="path14359-1-7-5-3-0-73-1-9-8-5-6"
     inkscape:connector-curvature="0"
     sodipodi:nodetypes="cc" />
  <path
     style="fill:none;stroke:#000000;stroke-width:1;stroke-linecap:round;stroke-linejoin:round;stroke-miterlimit:4;stroke-dasharray:none;stroke-opacity:1"
     d="m 288.96815,34.91128 35.74655,0.002"
     id="path14359-1-7-5-3-0-73-1-9-8-5-02"
     inkscape:connector-curvature="0"
     sodipodi:nodetypes="cc" />
  <path
     style="fill:none;stroke:#000000;stroke-width:1;stroke-linecap:round;stroke-linejoin:round;stroke-miterlimit:4;stroke-dasharray:none;stroke-opacity:1"
     d="m 288.96815,30.035081 35.74655,0.002"
     id="path14359-1-7-5-3-0-73-1-9-8-5-41"
     inkscape:connector-curvature="0"
     sodipodi:nodetypes="cc" />
  <path
     style="fill:none;stroke:#000000;stroke-width:1;stroke-linecap:round;stroke-linejoin:round;stroke-miterlimit:4;stroke-dasharray:none;stroke-opacity:1"
     d="m 288.96815,118.76448 35.74655,0.002"
     id="path14359-1-7-5-3-0-73-1-9-8-5-70"
     inkscape:connector-curvature="0"
     sodipodi:nodetypes="cc" />
  <path
     style="fill:none;stroke:#000000;stroke-width:1;stroke-linecap:round;stroke-linejoin:round;stroke-miterlimit:4;stroke-dasharray:none;stroke-opacity:1"
     d="m 288.96815,134.78628 35.74655,0.002"
     id="path14359-1-7-5-3-0-73-1-9-8-5-1"
     inkscape:connector-curvature="0"
     sodipodi:nodetypes="cc" />
  <path
     style="fill:none;stroke:#000000;stroke-width:1;stroke-linecap:round;stroke-linejoin:round;stroke-miterlimit:4;stroke-dasharray:none;stroke-opacity:1"
     d="m 288.96815,92.554915 35.74655,0.002"
     id="path14359-1-7-5-3-0-73-1-9-8-5-9"
     inkscape:connector-curvature="0"
     sodipodi:nodetypes="cc" />
  <path
     style="fill:none;stroke:#000000;stroke-width:1;stroke-linecap:round;stroke-linejoin:round;stroke-miterlimit:4;stroke-dasharray:none;stroke-opacity:1"
     d="m 288.96815,96.908664 35.74655,0.002"
     id="path14359-1-7-5-3-0-73-1-9-8-5-37"
     inkscape:connector-curvature="0"
     sodipodi:nodetypes="cc" />
  <path
     style="fill:none;stroke:#000000;stroke-width:1;stroke-linecap:round;stroke-linejoin:round;stroke-miterlimit:4;stroke-dasharray:none;stroke-opacity:1"
     d="m 288.96815,101.43656 35.74655,0.002"
     id="path14359-1-7-5-3-0-73-1-9-8-5-8"
     inkscape:connector-curvature="0"
     sodipodi:nodetypes="cc" />
  <path
     style="fill:none;stroke:#000000;stroke-width:1;stroke-linecap:round;stroke-linejoin:round;stroke-miterlimit:4;stroke-dasharray:none;stroke-opacity:1"
     d="m 288.96815,105.61616 35.74655,0.002"
     id="path14359-1-7-5-3-0-73-1-9-8-5-97"
     inkscape:connector-curvature="0"
     sodipodi:nodetypes="cc" />
  <path
     style="fill:none;stroke:#000000;stroke-width:1;stroke-linecap:round;stroke-linejoin:round;stroke-miterlimit:4;stroke-dasharray:none;stroke-opacity:1"
     d="m 288.96815,47.624226 35.74655,0.002"
     id="path14359-1-7-5-3-0-73-1-9-8-5-09"
     inkscape:connector-curvature="0"
     sodipodi:nodetypes="cc" />
  <path
     style="fill:none;stroke:#000000;stroke-width:1;stroke-linecap:round;stroke-linejoin:round;stroke-miterlimit:4;stroke-dasharray:none;stroke-opacity:1"
     d="m 288.96815,43.270478 35.74655,0.002"
     id="path14359-1-7-5-3-0-73-1-9-8-5-87"
     inkscape:connector-curvature="0"
     sodipodi:nodetypes="cc" />
  <path
     style="fill:none;stroke:#000000;stroke-width:1;stroke-linecap:round;stroke-linejoin:round;stroke-miterlimit:4;stroke-dasharray:none;stroke-opacity:1"
     d="m 288.96815,122.59578 35.74655,0.002"
     id="path14359-1-7-5-3-0-73-1-9-8-5-72"
     inkscape:connector-curvature="0"
     sodipodi:nodetypes="cc" />
  <path
     style="fill:none;stroke:#000000;stroke-width:1;stroke-linecap:round;stroke-linejoin:round;stroke-miterlimit:4;stroke-dasharray:none;stroke-opacity:1"
     d="m 288.96815,114.06243 35.74655,0.002"
     id="path14359-1-7-5-3-0-73-1-9-8-5-80"
     inkscape:connector-curvature="0"
     sodipodi:nodetypes="cc" />
  <path
     style="fill:none;stroke:#000000;stroke-width:1;stroke-linecap:round;stroke-linejoin:round;stroke-miterlimit:4;stroke-dasharray:none;stroke-opacity:1"
     d="m 288.96815,61.033773 35.74655,0.002"
     id="path14359-1-7-5-3-0-73-1-9-8-5-98"
     inkscape:connector-curvature="0"
     sodipodi:nodetypes="cc" />
  <path
     style="fill:none;stroke:#000000;stroke-width:1;stroke-linecap:round;stroke-linejoin:round;stroke-miterlimit:4;stroke-dasharray:none;stroke-opacity:1"
     d="m 288.96815,39.003804 35.74655,0.002"
     id="path14359-1-7-5-3-0-73-1-9-8-5-67"
     inkscape:connector-curvature="0"
     sodipodi:nodetypes="cc" />
  <path
     style="fill:none;stroke:#000000;stroke-width:1;stroke-linecap:round;stroke-linejoin:round;stroke-miterlimit:4;stroke-dasharray:none;stroke-opacity:1"
     d="m 288.96815,110.40529 35.74655,0.002"
     id="path14359-1-7-5-3-0-73-1-9-8-5-99"
     inkscape:connector-curvature="0"
     sodipodi:nodetypes="cc" />
  <path
     style="fill:none;stroke:#000000;stroke-width:1;stroke-linecap:round;stroke-linejoin:round;stroke-miterlimit:4;stroke-dasharray:none;stroke-opacity:1"
     d="m 288.96815,74.44332 35.74655,0.002"
     id="path14359-1-7-5-3-0-73-1-9-8-5-03"
     inkscape:connector-curvature="0"
     sodipodi:nodetypes="cc" />
  <path
     style="fill:none;stroke:#000000;stroke-width:1;stroke-linecap:round;stroke-linejoin:round;stroke-miterlimit:4;stroke-dasharray:none;stroke-opacity:1"
     d="m 288.96815,78.535844 35.74655,0.002"
     id="path14359-1-7-5-3-0-73-1-9-8-5-27"
     inkscape:connector-curvature="0"
     sodipodi:nodetypes="cc" />
  <path
     style="fill:none;stroke:#000000;stroke-width:1;stroke-linecap:round;stroke-linejoin:round;stroke-miterlimit:4;stroke-dasharray:none;stroke-opacity:1"
     d="m 288.96815,83.673267 35.74655,0.002"
     id="path14359-1-7-5-3-0-73-1-9-8-5-35"
     inkscape:connector-curvature="0"
     sodipodi:nodetypes="cc" />
  <path
     style="fill:none;stroke:#000000;stroke-width:1;stroke-linecap:round;stroke-linejoin:round;stroke-miterlimit:4;stroke-dasharray:none;stroke-opacity:1"
     d="m 288.96815,88.114091 35.74655,0.002"
     id="path14359-1-7-5-3-0-73-1-9-8-5-61"
     inkscape:connector-curvature="0"
     sodipodi:nodetypes="cc" />
  <path
     style="fill:none;stroke:#000000;stroke-width:1;stroke-linecap:round;stroke-linejoin:round;stroke-miterlimit:4;stroke-dasharray:none;stroke-opacity:1"
     d="m 288.96815,52.41335 35.74655,0.002"
     id="path14359-1-7-5-3-0-73-1-9-8-5-5"
     inkscape:connector-curvature="0"
     sodipodi:nodetypes="cc" />
  <path
     style="fill:none;stroke:#000000;stroke-width:1;stroke-linecap:round;stroke-linejoin:round;stroke-miterlimit:4;stroke-dasharray:none;stroke-opacity:1"
     d="m 288.96815,65.909972 35.74655,0.002"
     id="path14359-1-7-5-3-0-73-1-9-8-5-71"
     inkscape:connector-curvature="0"
     sodipodi:nodetypes="cc" />
  <path
     style="fill:none;stroke:#000000;stroke-width:1;stroke-linecap:round;stroke-linejoin:round;stroke-miterlimit:4;stroke-dasharray:none;stroke-opacity:1"
     d="m 280.38042,122.5132 0.002,-79.908743 H 269.6722 l -0.002,79.908743 z"
     id="path14359-1-7-5-3-0-73-1-9-8-5-01"
     inkscape:connector-curvature="0"
     sodipodi:nodetypes="ccccc" />
  <path
     style="fill:none;stroke:#000000;stroke-width:1;stroke-linecap:round;stroke-linejoin:round;stroke-miterlimit:4;stroke-dasharray:none;stroke-opacity:1"
     d="M 221.1044,50.663107 H 33.005355 l -0.002,64.470103 H 221.1024"
     id="path14359-1-7-5-3-0-73-1-9-8-5-73"
     inkscape:connector-curvature="0"
     sodipodi:nodetypes="cccc" />
  <path
     style="fill:none;stroke:#000000;stroke-width:1;stroke-linecap:round;stroke-linejoin:round;stroke-miterlimit:4;stroke-dasharray:none;stroke-opacity:1"
     d="M 269.31971,120.6769 H 27.201808 l 0.002,-76.331033 H 269.32171"
     id="path14359-1-7-5-3-0-73-1-9-8-5-48"
     inkscape:connector-curvature="0"
     sodipodi:nodetypes="cccc" />
  <path
     style="fill:none;stroke:#000000;stroke-width:1;stroke-linecap:round;stroke-linejoin:round;stroke-miterlimit:4;stroke-dasharray:none;stroke-opacity:1"
     d="m 27.3275,46.282949 242.25528,0.002"
     id="path14359-1-7-5-3-0-73-1-9-8-5-95"
     inkscape:connector-curvature="0"
     sodipodi:nodetypes="cc" />
  <path
     style="fill:none;stroke:#000000;stroke-width:1;stroke-linecap:round;stroke-linejoin:round;stroke-miterlimit:4;stroke-dasharray:none;stroke-opacity:1"
     d="m 27.3275,52.729112 242.25528,0.002"
     id="path14359-1-7-5-3-0-73-1-9-8-5-92"
     inkscape:connector-curvature="0"
     sodipodi:nodetypes="cc" />
  <path
     style="fill:none;stroke:#000000;stroke-width:1;stroke-linecap:round;stroke-linejoin:round;stroke-miterlimit:4;stroke-dasharray:none;stroke-opacity:1"
     d="m 27.3275,112.42058 242.25528,0.002"
     id="path14359-1-7-5-3-0-73-1-9-8-5-28"
     inkscape:connector-curvature="0"
     sodipodi:nodetypes="cc" />
  <path
     style="fill:none;stroke:#000000;stroke-width:1;stroke-linecap:round;stroke-linejoin:round;stroke-miterlimit:4;stroke-dasharray:none;stroke-opacity:1"
     d="m 27.3275,118.09321 242.25528,0.002"
     id="path14359-1-7-5-3-0-73-1-9-8-5-24"
     inkscape:connector-curvature="0"
     sodipodi:nodetypes="cc" />
  <path
     style="fill:none;stroke:#000000;stroke-width:1;stroke-linecap:round;stroke-linejoin:round;stroke-miterlimit:4;stroke-dasharray:none;stroke-opacity:1"
     d="m 221.62009,44.345867 -0.002,8.517401"
     id="path14359-1-7-5-3-0-73-1-9-8-5-34"
     inkscape:connector-curvature="0"
     sodipodi:nodetypes="cc" />
  <path
     style="fill:none;stroke:#000000;stroke-width:1;stroke-linecap:round;stroke-linejoin:round;stroke-miterlimit:4;stroke-dasharray:none;stroke-opacity:1"
     d="m 221.62009,112.54628 -0.002,7.87278"
     id="path14359-1-7-5-3-0-73-1-9-8-5-50"
     inkscape:connector-curvature="0"
     sodipodi:nodetypes="cc" />
  <path
     style="fill:none;stroke:#000000;stroke-width:1;stroke-linecap:round;stroke-linejoin:round;stroke-miterlimit:4;stroke-dasharray:none;stroke-opacity:1"
     d="m 226.90595,46.537563 -0.002,71.560877"
     id="path14359-1-7-5-3-0-73-1-9-8-5-098"
     inkscape:connector-curvature="0"
     sodipodi:nodetypes="cc" />
  <path
     style="fill:none;stroke:#000000;stroke-width:1;stroke-linecap:round;stroke-linejoin:round;stroke-miterlimit:4;stroke-dasharray:none;stroke-opacity:1"
     d="m 199.57421,46.408639 -0.002,71.689801"
     id="path14359-1-7-5-3-0-73-1-9-8-5-32"
     inkscape:connector-curvature="0"
     sodipodi:nodetypes="cc" />
  <path
     style="fill:none;stroke:#000000;stroke-width:1;stroke-linecap:round;stroke-linejoin:round;stroke-miterlimit:4;stroke-dasharray:none;stroke-opacity:1"
     d="m 192.48344,46.408639 -0.002,71.689801"
     id="path14359-1-7-5-3-0-73-1-9-8-5-708"
     inkscape:connector-curvature="0"
     sodipodi:nodetypes="cc" />
  <path
     style="fill:none;stroke:#000000;stroke-width:1;stroke-linecap:round;stroke-linejoin:round;stroke-miterlimit:4;stroke-dasharray:none;stroke-opacity:1"
     d="m 238.63796,33.384507 -0.002,97.661293"
     id="path14359-1-7-5-3-0-73-1-9-8-5-23"
     inkscape:connector-curvature="0"
     sodipodi:nodetypes="cc" />
  <path
     style="fill:none;stroke:#000000;stroke-width:1;stroke-linecap:round;stroke-linejoin:round;stroke-miterlimit:4;stroke-dasharray:none;stroke-opacity:1"
     d="m 248.56506,33.384507 -0.002,97.661293"
     id="path14359-1-7-5-3-0-73-1-9-8-5-30"
     inkscape:connector-curvature="0"
     sodipodi:nodetypes="cc" />
  <path
     style="fill:none;stroke:#000000;stroke-width:1;stroke-linecap:round;stroke-linejoin:round;stroke-miterlimit:4;stroke-dasharray:none;stroke-opacity:1"
     d="m 51.31246,33.461285 -0.002,97.946645"
     id="path14359-1-7-5-3-0-73-1-9-8-5-53"
     inkscape:connector-curvature="0"
     sodipodi:nodetypes="cc" />
  <path
     style="fill:none;stroke:#000000;stroke-width:1;stroke-linecap:round;stroke-linejoin:round;stroke-miterlimit:4;stroke-dasharray:none;stroke-opacity:1"
     d="m 61.368475,33.384507 -0.002,98.023423"
     id="path14359-1-7-5-3-0-73-1-9-8-5-54"
     inkscape:connector-curvature="0"
     sodipodi:nodetypes="cc" />
  <path
     style="fill:none;stroke:#000000;stroke-width:1;stroke-linecap:round;stroke-linejoin:round;stroke-miterlimit:4;stroke-dasharray:none;stroke-opacity:1"
     d="m 84.187893,46.666486 -0.002,71.303034"
     id="path14359-1-7-5-3-0-73-1-9-8-5-40"
     inkscape:connector-curvature="0"
     sodipodi:nodetypes="cc" />
  <path
     style="fill:none;stroke:#000000;stroke-width:1;stroke-linecap:round;stroke-linejoin:round;stroke-miterlimit:4;stroke-dasharray:none;stroke-opacity:1"
     d="m 91.665443,46.666486 -0.002,71.303034"
     id="path14359-1-7-5-3-0-73-1-9-8-5-22"
     inkscape:connector-curvature="0"
     sodipodi:nodetypes="cc" />
  <path
     style="fill:none;stroke:#000000;stroke-width:1;stroke-linecap:round;stroke-linejoin:round;stroke-miterlimit:4;stroke-dasharray:none;stroke-opacity:1"
     d="m 32.508974,18.286461 -2.381102,3.263475 -5e-4,8.925599 2.379602,2.7834 h 47.061247 l 2.45738,-2.7834 5e-4,-8.925599 -2.45588,-3.263475 z"
     id="path14359-1-7-5-3-0-73-1-9-8-5-94"
     inkscape:connector-curvature="0"
     sodipodi:nodetypes="ccccccccc" />
  <path
     style="fill:none;stroke:#000000;stroke-width:1;stroke-linecap:round;stroke-linejoin:round;stroke-miterlimit:4;stroke-dasharray:none;stroke-opacity:1"
     d="m 30.134732,30.245579 51.748891,0.002"
     id="path14359-1-7-5-3-0-73-1-9-8-5-092"
     inkscape:connector-curvature="0"
     sodipodi:nodetypes="cc" />
  <path
     style="fill:none;stroke:#000000;stroke-width:1;stroke-linecap:round;stroke-linejoin:round;stroke-miterlimit:4;stroke-dasharray:none;stroke-opacity:1"
     d="m 30.21151,21.723278 51.595335,0.002"
     id="path14359-1-7-5-3-0-73-1-9-8-5-25"
     inkscape:connector-curvature="0"
     sodipodi:nodetypes="cc" />
  <path
     style="fill:none;stroke:#000000;stroke-width:1;stroke-linecap:round;stroke-linejoin:round;stroke-miterlimit:4;stroke-dasharray:none;stroke-opacity:1"
     d="m 31.865584,131.55405 -2.381102,3.26347 -5e-4,8.9256 2.379602,2.7834 h 47.061247 l 2.45738,-2.7834 5e-4,-8.9256 -2.45588,-3.26347 z"
     id="path14359-1-7-5-3-0-73-1-9-8-5-94-6"
     inkscape:connector-curvature="0"
     sodipodi:nodetypes="ccccccccc" />
  <path
     style="fill:none;stroke:#000000;stroke-width:1;stroke-linecap:round;stroke-linejoin:round;stroke-miterlimit:4;stroke-dasharray:none;stroke-opacity:1"
     d="m 29.491342,143.51316 51.748891,0.002"
     id="path14359-1-7-5-3-0-73-1-9-8-5-092-0"
     inkscape:connector-curvature="0"
     sodipodi:nodetypes="cc" />
  <path
     style="fill:none;stroke:#000000;stroke-width:1;stroke-linecap:round;stroke-linejoin:round;stroke-miterlimit:4;stroke-dasharray:none;stroke-opacity:1"
     d="m 29.56812,134.99086 51.595335,0.002"
     id="path14359-1-7-5-3-0-73-1-9-8-5-25-4"
     inkscape:connector-curvature="0"
     sodipodi:nodetypes="cc" />
  <path
     style="fill:none;stroke:#000000;stroke-width:1;stroke-linecap:round;stroke-linejoin:round;stroke-miterlimit:4;stroke-dasharray:none;stroke-opacity:1"
     d="m 219.58654,131.24693 -2.3811,3.26348 -5e-4,8.9256 2.3796,2.7834 h 47.06125 l 2.45738,-2.7834 5e-4,-8.9256 -2.45588,-3.26348 z"
     id="path14359-1-7-5-3-0-73-1-9-8-5-94-1"
     inkscape:connector-curvature="0"
     sodipodi:nodetypes="ccccccccc" />
  <path
     style="fill:none;stroke:#000000;stroke-width:1;stroke-linecap:round;stroke-linejoin:round;stroke-miterlimit:4;stroke-dasharray:none;stroke-opacity:1"
     d="m 217.2123,143.20605 51.74889,0.002"
     id="path14359-1-7-5-3-0-73-1-9-8-5-092-5"
     inkscape:connector-curvature="0"
     sodipodi:nodetypes="cc" />
  <path
     style="fill:none;stroke:#000000;stroke-width:1;stroke-linecap:round;stroke-linejoin:round;stroke-miterlimit:4;stroke-dasharray:none;stroke-opacity:1"
     d="m 217.28908,134.68375 51.59534,0.002"
     id="path14359-1-7-5-3-0-73-1-9-8-5-25-7"
     inkscape:connector-curvature="0"
     sodipodi:nodetypes="cc" />
  <path
     style="fill:none;stroke:#000000;stroke-width:1;stroke-linecap:round;stroke-linejoin:round;stroke-miterlimit:4;stroke-dasharray:none;stroke-opacity:1"
     d="m 220.35431,18.076916 -2.3811,3.263475 -5e-4,8.925599 2.3796,2.7834 h 47.06125 l 2.45738,-2.7834 5e-4,-8.925599 -2.45588,-3.263475 z"
     id="path14359-1-7-5-3-0-73-1-9-8-5-94-13"
     inkscape:connector-curvature="0"
     sodipodi:nodetypes="ccccccccc" />
  <path
     style="fill:none;stroke:#000000;stroke-width:1;stroke-linecap:round;stroke-linejoin:round;stroke-miterlimit:4;stroke-dasharray:none;stroke-opacity:1"
     d="m 217.98007,30.036034 51.74889,0.002"
     id="path14359-1-7-5-3-0-73-1-9-8-5-092-53"
     inkscape:connector-curvature="0"
     sodipodi:nodetypes="cc" />
  <path
     style="fill:none;stroke:#000000;stroke-width:1;stroke-linecap:round;stroke-linejoin:round;stroke-miterlimit:4;stroke-dasharray:none;stroke-opacity:1"
     d="m 218.05685,21.513733 51.59533,0.002"
     id="path14359-1-7-5-3-0-73-1-9-8-5-25-5"
     inkscape:connector-curvature="0"
     sodipodi:nodetypes="cc" />
  <path
     style="fill:none;stroke:#000000;stroke-width:1;stroke-linecap:round;stroke-linejoin:round;stroke-miterlimit:4;stroke-dasharray:none;stroke-opacity:1"
     d="m 538.31244,59.087836 c -14.65545,0.265898 -30.09695,0.557808 -57.50338,0.331248 -13.82511,-0.114287 -9.99438,-1.376896 -47.4855,-1.331216 -7.20729,0.0088 -30.22834,1.526287 -47.76802,3.061203 -20.15925,1.764156 -30.29067,9.598914 -30.39163,23.079926 l -0.20652,27.575593 0.20791,27.57558 c 0.0994,13.48102 10.23238,19.24737 30.39163,21.01152 17.53968,1.53492 39.35416,2.88006 46.56145,2.88884 37.49112,0.0457 33.66039,0.24819 47.4855,0.1339 27.40643,-0.22656 43.36503,0.0654 58.02048,0.33125"
     id="path14359-1-7-5-3-0-73-1-9-8-5-94-9"
     inkscape:connector-curvature="0"
     sodipodi:nodetypes="csssscssssc" />
  <path
     style="fill:none;stroke:#000000;stroke-width:1;stroke-linecap:round;stroke-linejoin:round;stroke-miterlimit:4;stroke-dasharray:none;stroke-opacity:1"
     d="m 547.31417,62.121441 c -1.90418,-4.128516 -3.49319,-8.40932 -5.32427,-12.586218 -0.26948,-0.614705 -0.82803,-1.272514 -1.91791,-1.272558 l -2.57363,-1.04e-4 c -0.72589,-2.9e-5 -1.38325,0.289931 -1.1842,1.052604 1.10641,4.239374 2.10669,8.347169 2.96793,12.718122 1.63491,1.292229 1.94825,2.498279 1.31354,4.29925 4.26114,-0.436491 7.88842,-1.674643 6.71854,-4.211096 z"
     id="path14359-1-7-5-3-0-73-1-9-8-5-94-4"
     inkscape:connector-curvature="0"
     sodipodi:nodetypes="sssssccs" />
  <path
     style="fill:none;stroke:#000000;stroke-width:1;stroke-linecap:round;stroke-linejoin:round;stroke-miterlimit:4;stroke-dasharray:none;stroke-opacity:1"
     d="m 596.22106,59.955256 c 5.57049,0.157408 10.30906,2.087803 15.60742,4.461277 4.71526,2.112269 8.46493,3.668233 10.10268,5.256379 5.95797,5.777506 8.44138,19.127569 8.6579,42.347128 -0.21513,23.21956 -3.90511,36.13871 -9.86308,41.91621 -1.63775,1.58815 -5.9907,2.62701 -10.79215,4.39454 -5.44825,2.00565 -9.34746,4.30387 -14.91795,4.46128"
     id="path14359-1-7-5-3-0-73-1-9-8-5-94-4-8"
     inkscape:connector-curvature="0"
     sodipodi:nodetypes="csscssc" />
  <path
     style="fill:none;stroke:#000000;stroke-width:1;stroke-linecap:round;stroke-linejoin:round;stroke-miterlimit:4;stroke-dasharray:none;stroke-opacity:1"
     d="m 628.56673,86.024325 c -0.26276,1.558318 -2.17089,1.383518 -2.49162,-0.158883 -1.06645,-5.128549 -5.1035,-16.415223 -9.3951,-19.279222"
     id="path14359-1-7-5-3-0-73-1-9-8-5-94-4-5"
     inkscape:connector-curvature="0"
     sodipodi:nodetypes="csc" />
  <path
     style="fill:none;stroke:#000000;stroke-width:1;stroke-linecap:round;stroke-linejoin:round;stroke-miterlimit:4;stroke-dasharray:none;stroke-opacity:1"
     d="m 620.2381,71.114686 c -16.02432,-3.320092 -35.97287,-6.890009 -50.46648,-6.934689 -12.32184,-0.03799 -31.5232,6.133094 -45.46702,11.157963 2.9758,12.259494 4.73494,25.30773 4.35093,36.85445 0.29922,11.54672 -1.97703,24.76732 -4.95283,37.02682 10.3377,3.72534 23.06123,8.47342 34.10729,10.01813 10.19407,-5.13195 13.57718,-26.13908 13.34298,-47.00186 0.23281,-20.862773 -1.77136,-39.97387 -11.40221,-47.023992 m -0.41957,93.114042 c 2.65136,0.0883 6.91853,0.42129 9.23525,0.41415 14.49361,-0.0447 34.44216,-2.92513 50.46648,-6.24522"
     id="path14359-1-7-5-3-0-73-1-9-8-5-94-4-0"
     inkscape:connector-curvature="0"
     sodipodi:nodetypes="cscccccccsc" />
  <path
     style="fill:none;stroke:#000000;stroke-width:1;stroke-linecap:round;stroke-linejoin:round;stroke-miterlimit:4;stroke-dasharray:none;stroke-opacity:1"
     d="m 471.28348,74.460569 c 1.17871,-3.083862 2.71322,-10.766621 2.04117,-11.854598 -0.81117,-1.313217 -2.02032,-2.309747 -3.81971,-3.540235"
     id="path14359-1-7-5-3-0-73-1-9-8-5-94-4-02"
     inkscape:connector-curvature="0"
     sodipodi:nodetypes="csc" />
  <path
     style="fill:none;stroke:#000000;stroke-width:1;stroke-linecap:round;stroke-linejoin:round;stroke-miterlimit:4;stroke-dasharray:none;stroke-opacity:1"
     d="m 539.53659,62.319113 c -15.60773,-0.0063 -30.90337,0.163422 -46.50006,0.142971 -15.41622,-0.02022 -57.78068,0.529266 -68.33078,3.213494 -2.34002,0.595364 -3.11605,0.379228 -5.74171,0.182854 3.94651,2.24537 17.67981,4.166931 28.38326,6.25704 8.64833,1.688794 18.94557,2.630538 27.89883,2.425963 11.98895,-0.273939 23.8016,-0.08049 35.58054,-0.242597 3.53456,-0.04864 6.85586,-0.889386 10.01221,-1.703157 12.41673,-3.201284 22.95042,-7.105171 34.8686,-10.295328 -2.66535,0.09239 -5.46144,0.16517 -8.24964,0.140321"
     id="path14359-1-7-5-3-0-73-1-9-8-5-94-4-02-2"
     inkscape:connector-curvature="0"
     sodipodi:nodetypes="csscsssscc" />
  <path
     style="fill:none;stroke:#000000;stroke-width:1;stroke-linecap:round;stroke-linejoin:round;stroke-miterlimit:4;stroke-dasharray:none;stroke-opacity:1"
     d="m 465.67804,72.382528 c 1.57443,0.07106 3.01842,-0.596736 3.3426,-1.765068 l 0.78567,-2.831553 c 0.29449,-1.061319 -0.67889,-2.091285 -1.93044,-2.096999 -10.7653,-0.04915 -26.49625,0.168964 -33.91154,1.640303 6.63592,1.509063 26.07322,4.798756 31.71371,5.053317 z"
     id="path14359-1-7-5-3-0-73-1-9-8-5-94-4-02-6"
     inkscape:connector-curvature="0"
     sodipodi:nodetypes="sssscs" />
  <path
     style="fill:none;stroke:#000000;stroke-width:1;stroke-linecap:round;stroke-linejoin:round;stroke-miterlimit:4;stroke-dasharray:none;stroke-opacity:1"
     d="m 405.05588,74.193371 c 1.04011,-2.318405 3.01552,-4.400538 5.16413,-4.552908 2.01583,-0.142954 6.77125,-0.123164 9.38416,0.470192 9.21159,2.091826 17.98913,3.941056 27.25904,5.871152 4.91177,1.022684 6.39957,4.37237 6.38799,8.086535 l -0.0865,27.736248 -0.0845,27.21913 c 1.4e-4,3.71419 -1.47622,7.58095 -6.38799,8.60364 -9.26991,1.93009 -18.04745,3.60695 -27.25904,5.69878 -2.61291,0.59336 -7.36833,0.61315 -9.38416,0.47019 -2.14861,-0.15237 -4.12402,-2.2345 -5.16413,-4.55291 -5.14465,-11.46747 -6.98683,-28.30929 -6.94974,-37.52502 0.13389,-9.21573 1.97607,-26.057553 7.12072,-37.525029 z"
     id="path14359-1-7-5-3-0-73-1-9-8-5-018"
     inkscape:connector-curvature="0"
     sodipodi:nodetypes="ssssscssssscs" />
  <path
     style="fill:none;stroke:#000000;stroke-width:1;stroke-linecap:round;stroke-linejoin:round;stroke-miterlimit:4;stroke-dasharray:none;stroke-opacity:1"
     d="m 408.08311,70.322231 -42.73309,-0.0019 c -5.29791,10.738771 -7.31306,27.745219 -7.31334,41.484309 0.002,13.73908 1.67209,28.33238 6.97,39.07115 l 40.49231,-0.17437"
     id="path14359-1-7-5-3-0-73-1-9-8-5-0989"
     inkscape:connector-curvature="0"
     sodipodi:nodetypes="ccccc" />
  <path
     style="fill:none;stroke:#000000;stroke-width:1;stroke-linecap:round;stroke-linejoin:round;stroke-miterlimit:4;stroke-dasharray:none;stroke-opacity:1"
     d="m 545.13255,163.61922 c 6.12909,0.10032 12.14979,0.26605 19.48077,0.28552 11.94964,0.0317 18.16499,-0.87878 31.97637,-1.03747 16.63873,-0.19119 27.10709,-5.01462 32.06591,-12.84069 5.11237,-8.06842 9.0205,-25.00893 8.68887,-38.00654 0.33024,-12.997608 -2.37132,-30.369034 -7.48369,-38.43745 -4.95882,-7.826075 -15.42718,-13.511345 -32.06591,-13.702531 -13.81138,-0.158698 -20.1991,-1.155382 -32.14874,-1.123652 -7.33098,0.01946 -13.43786,0.09902 -19.56695,0.199337"
     id="path14359-1-7-5-3-0-73-1-9-8-5-94-9-5"
     inkscape:connector-curvature="0"
     sodipodi:nodetypes="cssscsssc" />
  <path
     style="fill:none;stroke:#000000;stroke-width:1;stroke-linecap:round;stroke-linejoin:round;stroke-miterlimit:4;stroke-dasharray:none;stroke-opacity:1"
     d="m 546.10899,161.48772 c -1.90418,4.12852 -3.49319,8.40932 -5.32427,12.58622 -0.26948,0.61471 -0.82803,1.27252 -1.91791,1.27256 l -2.57363,1e-4 c -0.72589,3e-5 -1.38325,-0.28993 -1.1842,-1.0526 1.10641,-4.23937 2.10669,-8.34717 2.96793,-12.71812 1.63491,-1.29223 1.94825,-2.49828 1.31354,-4.29925 4.26114,0.43649 7.88842,1.67464 6.71854,4.21109 z"
     id="path14359-1-7-5-3-0-73-1-9-8-5-94-4-7"
     inkscape:connector-curvature="0"
     sodipodi:nodetypes="sssssccs" />
  <path
     style="fill:none;stroke:#000000;stroke-width:1;stroke-linecap:round;stroke-linejoin:round;stroke-miterlimit:4;stroke-dasharray:none;stroke-opacity:1"
     d="m 628.30957,137.15392 c -0.26276,-1.55832 -2.42944,-1.64207 -2.75017,-0.0997 -1.06645,5.12855 -5.53442,16.32905 -9.82602,19.19305"
     id="path14359-1-7-5-3-0-73-1-9-8-5-94-4-5-8"
     inkscape:connector-curvature="0"
     sodipodi:nodetypes="csc" />
  <path
     style="fill:none;stroke:#000000;stroke-width:1;stroke-linecap:round;stroke-linejoin:round;stroke-miterlimit:4;stroke-dasharray:none;stroke-opacity:1"
     d="m 470.0783,149.75188 c 1.17871,3.08386 3.66124,10.16334 2.98919,11.25131 -0.81117,1.31322 -1.41704,1.18936 -3.21643,2.41985"
     id="path14359-1-7-5-3-0-73-1-9-8-5-94-4-02-5"
     inkscape:connector-curvature="0"
     sodipodi:nodetypes="csc" />
  <path
     style="fill:none;stroke:#000000;stroke-width:1;stroke-linecap:round;stroke-linejoin:round;stroke-miterlimit:4;stroke-dasharray:none;stroke-opacity:1"
     d="m 538.33141,161.29005 c -15.60773,0.006 -30.90337,-0.16342 -46.50006,-0.14297 -15.41622,0.0202 -56.31556,-0.61544 -66.86566,-3.29967 -2.34002,-0.59537 -3.63315,-0.72397 -6.25881,-0.5276 3.94651,-2.24537 16.73179,-3.13273 27.43524,-5.22284 8.64833,-1.68879 18.94557,-2.63053 27.89883,-2.42596 11.98895,0.27394 23.8016,-0.52278 35.58054,-0.36068 3.53456,0.0486 6.85586,0.88938 10.01221,1.70315 12.41673,3.20129 22.95042,7.10518 34.8686,10.29533 -2.66535,-0.0924 -5.46144,-0.16517 -8.24964,-0.14032"
     id="path14359-1-7-5-3-0-73-1-9-8-5-94-4-02-2-8"
     inkscape:connector-curvature="0"
     sodipodi:nodetypes="csscsssscc" />
  <path
     style="fill:none;stroke:#000000;stroke-width:1;stroke-linecap:round;stroke-linejoin:round;stroke-miterlimit:4;stroke-dasharray:none;stroke-opacity:1"
     d="m 464.47286,151.82992 c 1.57443,-0.0711 2.93942,0.62159 3.3426,1.76507 l 0.78567,2.22827 c 0.36625,1.03874 -0.67889,2.09128 -1.93044,2.097 -10.7653,0.0491 -26.49625,-0.16897 -33.91154,-1.64031 6.63592,-1.50906 26.07322,-4.19547 31.71371,-4.45003 z"
     id="path14359-1-7-5-3-0-73-1-9-8-5-94-4-02-6-7"
     inkscape:connector-curvature="0"
     sodipodi:nodetypes="sssscs" />
  <path
     style="fill:none;stroke:#000000;stroke-width:1;stroke-linecap:round;stroke-linejoin:round;stroke-miterlimit:4;stroke-dasharray:none;stroke-opacity:1"
     d="m 408.58714,145.73611 c 1.3832,4.09967 5.05459,3.44123 7.92906,2.87274 9.31881,-1.84299 18.70163,-3.64166 28.23525,-5.91428 2.15483,-0.51367 2.84829,-2.0045 2.83006,-4.04326 l -0.23997,-26.84673 0.41095,-26.84672 c 0.0245,-2.038697 -0.67523,-3.529596 -2.83006,-4.043263 -9.53362,-2.272625 -18.91644,-4.243657 -28.23525,-6.086655 -2.87447,-0.568489 -6.54586,-1.22693 -7.92906,2.872746 -3.45909,10.25236 -5.26804,21.41569 -5.08151,34.017712 -0.35751,12.60202 1.45144,23.76535 4.91053,34.01771 z"
     id="path14359-1-7-5-3-0-73-1-9-8-5-85-3"
     inkscape:connector-curvature="0"
     sodipodi:nodetypes="sssscsssscs" />
  <path
     style="fill:none;stroke:#000000;stroke-width:1;stroke-linecap:round;stroke-linejoin:round;stroke-miterlimit:4;stroke-dasharray:none;stroke-opacity:1"
     d="m 543.08181,69.229989 c 0.652,2.232775 2.81962,1.968046 2.53949,5.557052 -0.49207,6.304295 -4.2144,8.367792 -4.40591,18.527485 -0.16554,8.782274 3.57789,10.439044 3.68614,16.151264 0.22914,12.0911 -0.56741,26.35781 -0.23605,38.7383 0.0833,3.11412 -0.23296,6.72163 -2.63637,7.28065"
     id="path14359-1-7-5-3-0-73-1-9-8-5-506"
     inkscape:connector-curvature="0"
     sodipodi:nodetypes="cssssc" />
  <path
     style="fill:#000000;fill-opacity:1;stroke:#000000;stroke-width:1;stroke-linecap:butt;stroke-linejoin:miter;stroke-miterlimit:4;stroke-dasharray:none;stroke-opacity:1"
     d="m 649.93006,68.351957 3.52014,-7.43702 3.50308,7.43876 -3.51161,-8.7e-4 z"
     id="path14359-1-7-5-3-0-73-1-4"
     inkscape:connector-curvature="0"
     sodipodi:nodetypes="ccccc" />
  <path
     style="fill:#000000;fill-opacity:1;stroke:#000000;stroke-width:1;stroke-linecap:butt;stroke-linejoin:miter;stroke-miterlimit:4;stroke-dasharray:none;stroke-opacity:1"
     d="m 649.93006,155.04758 3.52014,7.43702 3.50308,-7.43876 -3.51161,8.7e-4 z"
     id="path14359-1-7-5-3-0-73-1-0-4"
     inkscape:connector-curvature="0"
     sodipodi:nodetypes="ccccc" />
  <path
     style="fill:none;stroke:#000000;stroke-width:1;stroke-linecap:butt;stroke-linejoin:miter;stroke-miterlimit:4;stroke-dasharray:none;stroke-opacity:1"
     d="m 653.44267,68.367837 -4.2e-4,18.451299 m -4.5e-4,19.505554 -10e-4,48.72026"
     id="path14359-1-7-5-3-0-73-1-9-8"
     inkscape:connector-curvature="0"
     sodipodi:nodetypes="cccc" />
  <path
     style="fill:#000000;fill-opacity:1;stroke:#000000;stroke-width:1;stroke-linecap:butt;stroke-linejoin:miter;stroke-miterlimit:4;stroke-dasharray:none;stroke-opacity:1"
     d="m 331.26474,123.82574 3.52014,-7.43702 3.50308,7.43876 -3.51161,-8.7e-4 z"
     id="path14359-1-7-5-3-0-73-1-4-0"
     inkscape:connector-curvature="0"
     sodipodi:nodetypes="ccccc" />
  <path
     style="fill:#000000;fill-opacity:1;stroke:#000000;stroke-width:1;stroke-linecap:butt;stroke-linejoin:miter;stroke-miterlimit:4;stroke-dasharray:none;stroke-opacity:1"
     d="m 331.26474,129.5309 3.52014,7.43702 3.50308,-7.43876 -3.51161,8.7e-4 z"
     id="path14359-1-7-5-3-0-73-1-0-4-4"
     inkscape:connector-curvature="0"
     sodipodi:nodetypes="ccccc" />
  <path
     style="fill:none;stroke:#000000;stroke-width:1;stroke-linecap:butt;stroke-linejoin:miter;stroke-miterlimit:4;stroke-dasharray:none;stroke-opacity:1"
     d="m 334.77735,123.84162 -0.002,5.68665"
     id="path14359-1-7-5-3-0-73-1-9-8-6"
     inkscape:connector-curvature="0"
     sodipodi:nodetypes="cc" />
  <path
     style="fill:#000000;fill-opacity:1;stroke:#000000;stroke-width:1;stroke-linecap:butt;stroke-linejoin:miter;stroke-miterlimit:4;stroke-dasharray:none;stroke-opacity:1"
     d="m 380.12812,100.32382 0.85243,8.18376 5.7733,-5.85454 -3.31287,-1.16461 z"
     id="path14359-1-7-5-3-0-73-1-0-4-4-5"
     inkscape:connector-curvature="0"
     sodipodi:nodetypes="ccccc" />
  <path
     style="fill:none;stroke:#000000;stroke-width:1;stroke-linecap:butt;stroke-linejoin:miter;stroke-miterlimit:4;stroke-dasharray:none;stroke-opacity:1"
     d="M 428.7797,15.641246 H 413.83251 L 383.44063,101.48644"
     id="path14359-1-7-5-3-0-73-1-9-8-6-3"
     inkscape:connector-curvature="0"
     sodipodi:nodetypes="ccc" />
  <text
     xml:space="preserve"
     style="font-style:italic;font-variant:normal;font-weight:normal;font-stretch:normal;line-height:0%;font-family:Arial;-inkscape-font-specification:'Arial Italic';text-align:start;letter-spacing:1.30999994px;word-spacing:0px;text-anchor:start;fill:#000000;fill-opacity:1;stroke:none"
     x="293.5408"
     y="253.45787"
     id="text6030-8-5-70"><tspan
       sodipodi:role="line"
       id="tspan12787-8"
       x="293.5408"
       y="253.45787"
       style="font-size:12px;line-height:1.25"> <tspan
   style="font-style:normal;-inkscape-font-specification:Arial"
   id="tspan12789-1" /></tspan></text>
  <text
     xml:space="preserve"
     style="font-style:normal;font-variant:normal;font-weight:normal;font-stretch:normal;line-height:0%;font-family:Arial;-inkscape-font-specification:Arial;text-align:start;letter-spacing:0.73000002px;word-spacing:0px;text-anchor:start;fill:#000000;fill-opacity:1;stroke:none;stroke-width:1px;stroke-linecap:butt;stroke-linejoin:miter;stroke-opacity:1"
     x="385.72015"
     y="205.55354"
     id="text9990"><tspan
       sodipodi:role="line"
       id="tspan9992"
       x="385.72015"
       y="205.55354"
       style="font-size:11.25px;line-height:1.16999996">20 % of W ± 50 mm</tspan><tspan
       sodipodi:role="line"
       x="385.72015"
       y="218.71605"
       id="tspan9994"
       style="font-size:11.25px;line-height:1.16999996">(W = maximum width of the test vehicle)</tspan></text>
  <text
     xml:space="preserve"
     style="font-style:normal;font-variant:normal;font-weight:normal;font-stretch:normal;line-height:0%;font-family:Arial;-inkscape-font-specification:Arial;text-align:start;letter-spacing:0.73000002px;word-spacing:0px;text-anchor:start;fill:#000000;fill-opacity:1;stroke:none;stroke-width:1px;stroke-linecap:butt;stroke-linejoin:miter;stroke-opacity:1"
     x="437.41006"
     y="18.333963"
     id="text9990-1"><tspan
       sodipodi:role="line"
       x="437.41006"
       y="18.333963"
       id="tspan9994-2"
       style="font-size:11.25px;line-height:1.16999996">Longitudinal centerline of test vehicle</tspan></text>
  <text
     xml:space="preserve"
     style="font-style:normal;font-variant:normal;font-weight:normal;font-stretch:normal;line-height:0%;font-family:Arial;-inkscape-font-specification:Arial;text-align:center;letter-spacing:0.73000002px;word-spacing:0px;text-anchor:middle;fill:#000000;fill-opacity:1;stroke:none;stroke-width:1px;stroke-linecap:butt;stroke-linejoin:miter;stroke-opacity:1"
     x="152.49525"
     y="178.03751"
     id="text9990-7"><tspan
       sodipodi:role="line"
       x="152.86026"
       y="178.03751"
       id="tspan9994-9"
       style="font-size:11.25px;line-height:1.16999996">Moving Deformable Barrier</tspan><tspan
       sodipodi:role="line"
       x="154.78531"
       y="191.20001"
       id="tspan10033"
       style="font-size:11.25px;line-height:1.16999996"> </tspan><tspan
       sodipodi:role="line"
       x="152.86026"
       y="204.3625"
       id="tspan10031"
       style="font-size:11.25px;line-height:1.16999996">  (Impact velocity = 80 km/h ± 1 km/h)</tspan></text>
  <text
     xml:space="preserve"
     style="font-style:normal;font-variant:normal;font-weight:normal;font-stretch:normal;line-height:0%;font-family:Arial;-inkscape-font-specification:Arial;text-align:start;letter-spacing:0.66000003px;word-spacing:0px;text-anchor:start;fill:#000000;fill-opacity:1;stroke:none;stroke-width:1px;stroke-linecap:butt;stroke-linejoin:miter;stroke-opacity:1"
     x="36.154396"
     y="-31.864799"
     id="text7832-1"><tspan
       sodipodi:role="line"
       id="tspan7854-5"
       x="36.154396"
       y="-31.864799"
       style="font-size:12.5px;line-height:1.20000005"> </tspan></text>
  <text
     xml:space="preserve"
     style="font-style:normal;font-variant:normal;font-weight:normal;font-stretch:normal;line-height:0%;font-family:Arial;-inkscape-font-specification:Arial;text-align:start;letter-spacing:1.21000004px;word-spacing:0px;text-anchor:start;fill:#000000;fill-opacity:1;stroke:none;stroke-width:1px;stroke-linecap:butt;stroke-linejoin:miter;stroke-opacity:1"
     x="4.6113"
     y="286.21063"
     id="text10053"><tspan
       sodipodi:role="line"
       id="tspan10055"
       x="4.6113"
       y="286.21063"
       style="font-size:16.25px;line-height:1.29999995">FIGURE 3 ─ MOVING DEFORMABLE BARRIER REAR IMPACT - 70% OVERLAP</tspan></text>
  <text
     xml:space="preserve"
     style="font-style:normal;font-variant:normal;font-weight:normal;font-stretch:normal;line-height:0%;font-family:Arial;-inkscape-font-specification:Arial;text-align:start;letter-spacing:1.21000004px;word-spacing:0px;text-anchor:start;fill:#000000;fill-opacity:1;stroke:#000000;stroke-width:1px;stroke-linecap:butt;stroke-linejoin:miter;stroke-opacity:1;"
     x="646.51385"
     y="104.23567"
     id="text10053-2"><tspan
       sodipodi:role="line"
       id="tspan10055-6"
       x="646.51385"
       y="104.23567"
       style="font-size:16.25px;line-height:1.29999995;stroke:#000000;stroke-opacity:1;">W</tspan></text>
</svg>
