<?xml version="1.0" encoding="UTF-8" standalone="no"?>
<!-- Created with Inkscape (http://www.inkscape.org/) -->

<svg
   xmlns:dc="http://purl.org/dc/elements/1.1/"
   xmlns:cc="http://creativecommons.org/ns#"
   xmlns:rdf="http://www.w3.org/1999/02/22-rdf-syntax-ns#"
   xmlns:svg="http://www.w3.org/2000/svg"
   xmlns="http://www.w3.org/2000/svg"
   xmlns:sodipodi="http://sodipodi.sourceforge.net/DTD/sodipodi-0.dtd"
   xmlns:inkscape="http://www.inkscape.org/namespaces/inkscape"
   id="svg24661"
   version="1.1"
   inkscape:version="0.92.2 5c3e80d, 2017-08-06"
   width="715.51996"
   height="718.08002"
   viewBox="0 0 670.79999 673.20001"
   sodipodi:docname="er02my97.031.svg">
  <title id="title_er02my97.031">FIGURE   9 ONE─PERSON OPEN CIRCUIT MEASUREMENT RETURN LOSS BALANCED TO ARTIFICIAL LINE</title>
  <desc id="desc_er02my97.031"></desc>
  <metadata
     id="metadata24667">
    <rdf:RDF>
      <cc:Work
         rdf:about="">
        <dc:format>image/svg+xml</dc:format>
        <dc:type
           rdf:resource="http://purl.org/dc/dcmitype/StillImage" />
        <dc:title></dc:title>
      </cc:Work>
    </rdf:RDF>
  </metadata>
  <defs
     id="defs24665" />
  <sodipodi:namedview
     pagecolor="#ffffff"
     bordercolor="#666666"
     borderopacity="1"
     objecttolerance="10"
     gridtolerance="10"
     guidetolerance="10"
     inkscape:pageopacity="0"
     inkscape:pageshadow="2"
     inkscape:window-width="1280"
     inkscape:window-height="756"
     id="namedview24663"
     showgrid="false"
     inkscape:zoom="1.0041505"
     inkscape:cx="321.51553"
     inkscape:cy="474.33384"
     inkscape:window-x="0"
     inkscape:window-y="23"
     inkscape:window-maximized="0"
     inkscape:current-layer="svg24661" />
  <path
     style="fill:#000000;fill-opacity:1;stroke:#000000;stroke-width:1;stroke-linecap:butt;stroke-linejoin:miter;stroke-miterlimit:4;stroke-dasharray:none;stroke-opacity:1"
     d="m 35.589938,251.61611 -9.046222,-7.83305 3.091584,11.557 2.977574,-1.86159 z"
     id="path14359-1-7-5-3-0-73-1-0-45"
     inkscape:connector-curvature="0"
     sodipodi:nodetypes="ccccc" />
  <path
     style="fill:none;stroke:#000000;stroke-width:1;stroke-linecap:butt;stroke-linejoin:miter;stroke-miterlimit:4;stroke-dasharray:none;stroke-opacity:1"
     d="m 85.68842,282.69556 -35.104133,0.0242 -17.969901,-29.24073"
     id="path14359-1-7-5-3-0-73-1-9-1"
     inkscape:connector-curvature="0"
     sodipodi:nodetypes="ccc" />
  <path
     style="fill:#000000;fill-opacity:1;stroke:#000000;stroke-width:1;stroke-linecap:butt;stroke-linejoin:miter;stroke-miterlimit:4;stroke-dasharray:none;stroke-opacity:1"
     d="m 217.44238,159.78821 -3.498,11.44405 -3.5252,-11.4317 3.5116,-0.006 z"
     id="path14359-1-7-5-3-0-73-1-8-2"
     inkscape:connector-curvature="0"
     sodipodi:nodetypes="ccccc" />
  <path
     style="fill:none;stroke:#000000;stroke-width:1;stroke-linecap:butt;stroke-linejoin:miter;stroke-miterlimit:4;stroke-dasharray:none;stroke-opacity:1"
     d="m 213.92975,159.77936 -0.004,-36.16923 h 37.5614"
     id="path14359-1-7-5-3-0-73-1-9-1-9"
     inkscape:connector-curvature="0"
     sodipodi:nodetypes="ccc" />
  <path
     style="fill:none;stroke:#000000;stroke-width:0.98819757;stroke-linecap:round;stroke-linejoin:round;stroke-miterlimit:4;stroke-dasharray:none;stroke-opacity:1"
     d="m 543.02296,229.93232 h -6.58997 c -7.08911,0 -12.27296,5.33992 -15.73607,10.17058 -3.81795,5.3256 -6.57315,9.73809 -16.41353,9.73809 -6.21287,0 -11.24915,-4.24049 -15.20283,-9.70706 -3.94836,-5.4592 -7.13226,-10.02246 -15.52931,-10.02246 -8.22392,0 -11.77269,4.70576 -16.05503,10.02956 -4.30134,5.34743 -7.06594,10.27425 -16.36736,10.13494 -8.95002,-0.13405 -12.01218,-4.56151 -15.94663,-10.12738 -4.24514,-6.00536 -8.27748,-10.1306 -15.75996,-10.03791 -7.64828,0.0948 -11.8699,4.57669 -15.8154,10.10697 -3.92952,5.50788 -7.04122,9.74876 -15.72843,9.74638 -6.83854,-0.002 -11.38878,-4.05981 -15.48256,-9.40282 -4.10082,-5.35227 -8.05614,-10.29276 -15.84747,-10.09359 -7.57261,0.19358 -11.67583,4.38657 -15.72469,9.82428 -4.06279,5.45643 -7.16921,10.0436 -16.10153,10.10479 -7.54082,0.0517 -11.54371,-4.49462 -15.44957,-9.96614 -4.21325,-5.90219 -8.64742,-9.89263 -15.28639,-9.81473 -8.61942,0.1011 -12.97673,4.77795 -16.22672,9.98322 -4.19804,6.72368 -8.82124,9.90763 -16.31202,9.90763 h -7.92904"
     id="path14359-1-7-5-3-0-73-1-9-8-5-68"
     inkscape:connector-curvature="0"
     sodipodi:nodetypes="csssssssssssssssssssc" />
  <text
     xml:space="preserve"
     style="font-style:normal;font-variant:normal;font-weight:normal;font-stretch:normal;line-height:0%;font-family:Arial;-inkscape-font-specification:Arial;text-align:start;letter-spacing:-0.89999998px;word-spacing:-0.41px;text-anchor:start;fill:#000000;fill-opacity:1;stroke:none;stroke-width:1px;stroke-linecap:butt;stroke-linejoin:miter;stroke-opacity:1"
     x="285.8725"
     y="23.305737"
     id="text13929-4"><tspan
       sodipodi:role="line"
       x="285.8725"
       y="23.305737"
       id="tspan13933-5"
       style="font-size:25px;line-height:1.22000003">FIGURE   9</tspan></text>
  <text
     xml:space="preserve"
     style="font-style:normal;font-variant:normal;font-weight:normal;font-stretch:normal;line-height:0%;font-family:Arial;-inkscape-font-specification:Arial;text-align:center;letter-spacing:-0.52999997px;word-spacing:7.09000111px;text-anchor:middle;fill:#000000;fill-opacity:1;stroke:none;stroke-width:1px;stroke-linecap:butt;stroke-linejoin:miter;stroke-opacity:1"
     x="340.18405"
     y="49.119602"
     id="text13958"><tspan
       sodipodi:role="line"
       x="339.91904"
       y="49.119602"
       id="tspan22023"
       style="font-size:18.75px;line-height:1.14999998">ONE─PERSON OPEN CIRCUIT MEASUREMENT</tspan><tspan
       sodipodi:role="line"
       x="339.91904"
       y="70.682098"
       id="tspan24445"
       style="font-size:18.75px;line-height:1.14999998">RETURN LOSS BALANCED TO ARTIFICIAL LINE</tspan></text>
  <text
     xml:space="preserve"
     style="font-style:normal;font-variant:normal;font-weight:normal;font-stretch:normal;line-height:0%;font-family:Arial;-inkscape-font-specification:Arial;text-align:start;letter-spacing:0.80000001px;word-spacing:2.36999989px;text-anchor:start;fill:#000000;fill-opacity:1;stroke:none;stroke-width:1px;stroke-linecap:butt;stroke-linejoin:miter;stroke-opacity:1"
     x="352.79178"
     y="126.74355"
     id="text14081"><tspan
       sodipodi:role="line"
       x="352.79178"
       y="126.74355"
       id="tspan14109"
       style="font-size:13.75px;line-height:1.15999997">2</tspan></text>
  <path
     style="fill:#000000;fill-opacity:1;stroke:#000000;stroke-width:1;stroke-linecap:butt;stroke-linejoin:miter;stroke-miterlimit:4;stroke-dasharray:none;stroke-opacity:1"
     d="m 349.42391,216.05267 -3.498,11.44405 -3.5252,-11.4317 3.5116,-0.006 z"
     id="path14359-1-7-5-3-0-73-1-8-2-2"
     inkscape:connector-curvature="0"
     sodipodi:nodetypes="ccccc" />
  <path
     style="fill:none;stroke:#000000;stroke-width:1;stroke-linecap:butt;stroke-linejoin:miter;stroke-miterlimit:4;stroke-dasharray:none;stroke-opacity:1"
     d="m 345.91128,216.04382 -0.004,-33.1155 h 28.44155"
     id="path14359-1-7-5-3-0-73-1-9-1-9-9"
     inkscape:connector-curvature="0"
     sodipodi:nodetypes="ccc" />
  <path
     style="fill:none;stroke:#000000;stroke-width:1;stroke-linecap:round;stroke-linejoin:round;stroke-miterlimit:4;stroke-dasharray:none;stroke-opacity:1"
     d="m 243.51866,230.79745 h 7.92904 c 7.31739,0 12.75059,4.2618 16.22967,9.79987 3.26923,5.20403 7.60718,9.86457 16.30903,9.68358 7.39645,-0.15384 11.69559,-4.1718 15.28688,-9.8266 3.58589,-5.6463 9.18028,-10.20651 15.36233,-10.07367 8.1117,0.17431 12.08033,4.47235 16.14851,9.8881 4.01824,5.34929 8.01077,10.15423 15.76446,10.10161 7.77462,-0.0527 11.85669,-4.44144 15.84748,-9.8323 4.41746,-5.96722 8.51101,-10.26566 15.5693,-10.41658 7.91146,-0.16915 11.65941,4.60212 15.64167,10.07128 4.05803,5.57324 9.38347,10.05085 15.90216,9.90741 9.65292,-0.2124 11.54427,-4.55244 15.67321,-9.94819 4.17474,-5.45559 8.46093,-9.9788 15.94663,-9.9788 8.28976,0 12.31465,4.59111 16.36736,9.98019 4.10226,5.45492 7.03875,9.86084 15.44779,9.86084 9.57607,0 11.90474,-4.61877 16.09705,-9.86414 4.15662,-5.20073 8.22984,-9.76145 15.81185,-9.81404 7.69979,-0.0534 11.73084,3.41357 15.79692,9.78235 4.37978,6.86012 9.58088,9.61287 15.78316,9.61287 h 6.70129"
     id="path14359-1-7-5-3-0-73-1-9-8-5-04-0-5-2"
     inkscape:connector-curvature="0"
     sodipodi:nodetypes="csssssssssssssssssssc" />
  <path
     style="fill:none;stroke:#000000;stroke-width:1;stroke-linecap:round;stroke-linejoin:round;stroke-miterlimit:4;stroke-dasharray:none;stroke-opacity:1"
     d="m 240.72608,181.83415 -0.002,31.94554 h -52.68572 l 0.002,-31.94554 z"
     id="path14359-1-7-5-3-0-73-1-9-8-5-04-0-5-0"
     inkscape:connector-curvature="0"
     sodipodi:nodetypes="ccccc" />
  <path
     style="fill:none;stroke:#000000;stroke-width:1;stroke-linecap:round;stroke-linejoin:round;stroke-miterlimit:4;stroke-dasharray:none;stroke-opacity:1"
     d="m 251.45402,176.47166 -0.002,84.75346 h -74.15839 l 0.002,-84.75346 z"
     id="path14359-1-7-5-3-0-73-1-9-8-5-04-0-5-0-8"
     inkscape:connector-curvature="0"
     sodipodi:nodetypes="ccccc" />
  <path
     style="color:#000000;display:inline;overflow:visible;visibility:visible;fill:none;fill-rule:evenodd;stroke:#000000;stroke-width:1;stroke-linecap:round;stroke-linejoin:round;stroke-miterlimit:4;stroke-dasharray:none;stroke-dashoffset:0;stroke-opacity:1;marker:none;enable-background:accumulate"
     d="m 368.45172,122.05333 c 0,5.98674 -4.8532,10.83994 -10.83994,10.83994 -5.98673,0 -10.83993,-4.8532 -10.83993,-10.83994 0,-5.98673 4.8532,-10.83993 10.83993,-10.83993 5.98674,0 10.83994,4.8532 10.83994,10.83993 z"
     id="path17469-0-0-16"
     inkscape:connector-curvature="0"
     sodipodi:nodetypes="sssss" />
  <text
     xml:space="preserve"
     style="font-style:normal;font-variant:normal;font-weight:normal;font-stretch:normal;line-height:0%;font-family:Arial;-inkscape-font-specification:Arial;text-align:start;letter-spacing:0.80000001px;word-spacing:2.36999989px;text-anchor:start;fill:#000000;fill-opacity:1;stroke:none;stroke-width:1px;stroke-linecap:butt;stroke-linejoin:miter;stroke-opacity:1"
     x="379.40353"
     y="186.03209"
     id="text14081-0"><tspan
       sodipodi:role="line"
       x="379.40353"
       y="186.03209"
       id="tspan14109-3"
       style="font-size:13.75px;line-height:1.15999997">Cable Pair</tspan></text>
  <text
     xml:space="preserve"
     style="font-style:normal;font-variant:normal;font-weight:normal;font-stretch:normal;line-height:0%;font-family:Arial;-inkscape-font-specification:Arial;text-align:start;letter-spacing:0.80000001px;word-spacing:2.36999989px;text-anchor:start;fill:#000000;fill-opacity:1;stroke:none;stroke-width:1px;stroke-linecap:butt;stroke-linejoin:miter;stroke-opacity:1"
     x="88.604202"
     y="286.89816"
     id="text14081-8"><tspan
       sodipodi:role="line"
       x="88.604202"
       y="286.89816"
       id="tspan14109-9"
       style="font-size:13.75px;line-height:1.15999997">Open Circuit</tspan></text>
  <text
     xml:space="preserve"
     style="font-style:normal;font-variant:normal;font-weight:normal;font-stretch:normal;line-height:0%;font-family:Arial;-inkscape-font-specification:Arial;text-align:start;letter-spacing:0.80000001px;word-spacing:2.36999989px;text-anchor:start;fill:#000000;fill-opacity:1;stroke:none;stroke-width:1px;stroke-linecap:butt;stroke-linejoin:miter;stroke-opacity:1"
     x="17.87253"
     y="198.59669"
     id="text14081-8-3"><tspan
       sodipodi:role="line"
       x="17.87253"
       y="198.59669"
       id="tspan14109-9-9"
       style="font-size:13.75px;line-height:1.15999997">Artificial</tspan><tspan
       sodipodi:role="line"
       x="17.87253"
       y="214.54669"
       id="tspan23578"
       style="font-size:13.75px;line-height:1.15999997">Line</tspan></text>
  <text
     xml:space="preserve"
     style="font-style:normal;font-variant:normal;font-weight:normal;font-stretch:normal;line-height:0%;font-family:Arial;-inkscape-font-specification:Arial;text-align:start;letter-spacing:0.80000001px;word-spacing:2.36999989px;text-anchor:start;fill:#000000;fill-opacity:1;stroke:none;stroke-width:1px;stroke-linecap:butt;stroke-linejoin:miter;stroke-opacity:1"
     x="256.61423"
     y="127.39336"
     id="text14081-8-4"><tspan
       sodipodi:role="line"
       x="256.61423"
       y="127.39336"
       id="tspan14109-9-95"
       style="font-size:13.75px;line-height:1.15999997">Level Tracer</tspan></text>
  <text
     xml:space="preserve"
     style="font-style:normal;font-variant:normal;font-weight:normal;font-stretch:normal;line-height:0%;font-family:Arial;-inkscape-font-specification:Arial;text-align:start;letter-spacing:0.80000001px;word-spacing:2.36999989px;text-anchor:start;fill:#000000;fill-opacity:1;stroke:none;stroke-width:1px;stroke-linecap:butt;stroke-linejoin:miter;stroke-opacity:1"
     x="127.52106"
     y="203.38922"
     id="text14081-8-5"><tspan
       sodipodi:role="line"
       x="127.52106"
       y="203.38922"
       id="tspan17811"
       style="font-size:13.75px;line-height:1.15999997">EXT</tspan><tspan
       sodipodi:role="line"
       x="127.52106"
       y="219.33922"
       id="tspan25677"
       style="font-size:13.75px;line-height:1.15999997">BAT</tspan></text>
  <text
     xml:space="preserve"
     style="font-style:normal;font-variant:normal;font-weight:normal;font-stretch:normal;line-height:0%;font-family:Arial;-inkscape-font-specification:Arial;text-align:start;letter-spacing:0.80000001px;word-spacing:2.36999989px;text-anchor:start;fill:#000000;fill-opacity:1;stroke:none;stroke-width:1px;stroke-linecap:butt;stroke-linejoin:miter;stroke-opacity:1"
     x="465.06519"
     y="282.33395"
     id="text14081-8-44"><tspan
       sodipodi:role="line"
       x="465.06519"
       y="282.33395"
       id="tspan14109-9-1"
       style="font-size:13.75px;line-height:1.15999997">Open Circuit</tspan><tspan
       sodipodi:role="line"
       x="465.06519"
       y="298.28397"
       id="tspan23580"
       style="font-size:13.75px;line-height:1.15999997">Telephone set if present,</tspan><tspan
       sodipodi:role="line"
       x="465.06519"
       y="314.23395"
       id="tspan23582"
       style="font-size:13.75px;line-height:1.15999997">shall be on hook</tspan></text>
  <text
     xml:space="preserve"
     style="font-style:normal;font-variant:normal;font-weight:normal;font-stretch:normal;line-height:0%;font-family:Arial;-inkscape-font-specification:Arial;text-align:start;letter-spacing:0.88000005px;word-spacing:2.36999989px;text-anchor:start;fill:#000000;fill-opacity:1;stroke:none;stroke-width:1px;stroke-linecap:butt;stroke-linejoin:miter;stroke-opacity:1"
     x="299.91745"
     y="159.53331"
     id="text14081-8-8"><tspan
       sodipodi:role="line"
       x="299.91745"
       y="159.53331"
       id="tspan14109-9-7"
       style="font-size:13.75px;line-height:1.15999997">Line 1</tspan></text>
  <path
     style="fill:none;stroke:#000000;stroke-width:1;stroke-linecap:butt;stroke-linejoin:round;stroke-miterlimit:4;stroke-dasharray:none;stroke-opacity:1"
     d="m 231.61147,370.09293 201.24336,0.002"
     id="path14359-1-7-5-3-0-73-1-9-8-5-42"
     inkscape:connector-curvature="0"
     sodipodi:nodetypes="cc" />
  <path
     style="fill:none;stroke:#000000;stroke-width:1;stroke-linecap:butt;stroke-linejoin:round;stroke-miterlimit:4;stroke-dasharray:none;stroke-opacity:1"
     d="m 48.397413,546.7801 44.42483,-2e-4"
     id="path14359-1-7-5-3-0-73-1-9-8-5-7"
     inkscape:connector-curvature="0"
     sodipodi:nodetypes="cc" />
  <text
     xml:space="preserve"
     style="font-style:normal;font-variant:normal;font-weight:normal;font-stretch:normal;line-height:0%;font-family:Arial;-inkscape-font-specification:Arial;text-align:start;letter-spacing:0.84000003px;word-spacing:2.36999989px;text-anchor:start;fill:#000000;fill-opacity:1;stroke:none;stroke-width:1px;stroke-linecap:butt;stroke-linejoin:miter;stroke-opacity:1"
     x="249.29849"
     y="366.71796"
     id="text14081-8-44-5-5"><tspan
       sodipodi:role="line"
       x="249.29849"
       y="366.71796"
       id="tspan14109-9-1-2-7"
       style="font-size:13.75px;line-height:1.15999997">Measurement Procedure</tspan></text>
  <text
     xml:space="preserve"
     style="font-style:normal;font-variant:normal;font-weight:normal;font-stretch:normal;line-height:0%;font-family:Arial;-inkscape-font-specification:Arial;text-align:start;letter-spacing:0.84000003px;word-spacing:2.36999989px;text-anchor:start;fill:#000000;fill-opacity:1;stroke:none;stroke-width:1px;stroke-linecap:butt;stroke-linejoin:miter;stroke-opacity:1"
     x="49.070648"
     y="546.02814"
     id="text14081-8-44-5-7"><tspan
       sodipodi:role="line"
       x="49.070648"
       y="546.02814"
       id="tspan14109-9-1-2-74"
       style="font-size:13.75px;line-height:1.15999997">Notes:</tspan></text>
  <text
     xml:space="preserve"
     style="font-style:normal;font-variant:normal;font-weight:normal;font-stretch:normal;line-height:0%;font-family:Arial;-inkscape-font-specification:Arial;text-align:start;letter-spacing:1.07000005px;word-spacing:2.36999989px;text-anchor:start;fill:#000000;fill-opacity:1;stroke:none;stroke-width:1px;stroke-linecap:butt;stroke-linejoin:miter;stroke-opacity:1"
     x="88.302582"
     y="577.19537"
     id="text14081-8-44-9-8-4"><tspan
       sodipodi:role="line"
       x="88.302582"
       y="577.19537"
       id="tspan18098"
       style="font-size:13.75px;line-height:1.14999998">Terminals to which cable pair and Artificial line are attached shall be</tspan><tspan
       sodipodi:role="line"
       x="88.302582"
       y="593.00787"
       id="tspan23644"
       style="font-size:13.75px;line-height:1.14999998">determined from the manufacturer's operating instructions. Proper settings</tspan><tspan
       sodipodi:role="line"
       x="88.302582"
       y="608.82037"
       id="tspan23646"
       style="font-size:13.75px;line-height:1.14999998">for various switches and adjustments on the test set shall also be</tspan><tspan
       sodipodi:role="line"
       x="88.302582"
       y="624.63287"
       id="tspan23648"
       style="font-size:13.75px;line-height:1.14999998">determined from the same source.</tspan></text>
  <text
     xml:space="preserve"
     style="font-style:normal;font-variant:normal;font-weight:normal;font-stretch:normal;line-height:0%;font-family:Arial;-inkscape-font-specification:Arial;text-align:start;letter-spacing:1.08000004px;word-spacing:2.36999989px;text-anchor:start;fill:#000000;fill-opacity:1;stroke:none;stroke-width:1px;stroke-linecap:butt;stroke-linejoin:miter;stroke-opacity:1"
     x="6.5004635"
     y="394.49777"
     id="text14081-8-44-9-8-4-4"><tspan
       sodipodi:role="line"
       x="6.5004635"
       y="394.49777"
       id="tspan18186"
       style="font-size:13.75px;line-height:1.14999998">1. Connect the test equipment and cable pair under test as shown above (See Note 1 ).</tspan><tspan
       sodipodi:role="line"
       x="6.5004635"
       y="410.31027"
       id="tspan25735"
       style="font-size:13.75px;line-height:1.14999998">   Set up Artificial Line to same make─up [Length &amp; Gauge(s)] as the cable pair.</tspan></text>
  <path
     style="fill:none;stroke:#000000;stroke-width:1;stroke-linecap:round;stroke-linejoin:round;stroke-miterlimit:4;stroke-dasharray:none;stroke-opacity:1"
     d="m 81.928196,177.19517 -0.002,84.45661 H 8.239536 l 0.002,-84.45661 z"
     id="path14359-1-7-5-3-0-73-1-9-8-5-04-0-5-0-6"
     inkscape:connector-curvature="0"
     sodipodi:nodetypes="ccccc" />
  <text
     xml:space="preserve"
     style="font-style:normal;font-variant:normal;font-weight:normal;font-stretch:normal;line-height:0%;font-family:Arial;-inkscape-font-specification:Arial;text-align:start;letter-spacing:0.60000002px;word-spacing:2.36999989px;text-anchor:start;fill:#000000;fill-opacity:1;stroke:none;stroke-width:1px;stroke-linecap:butt;stroke-linejoin:miter;stroke-opacity:1"
     x="59.474968"
     y="576.69867"
     id="text14081-8-44-9-8-4-50"><tspan
       sodipodi:role="line"
       x="59.474968"
       y="576.69867"
       id="tspan18098-36"
       style="font-size:13.75px;line-height:1.14999998">1.</tspan></text>
  <text
     xml:space="preserve"
     style="font-style:normal;font-variant:normal;font-weight:normal;font-stretch:normal;line-height:0%;font-family:Arial;-inkscape-font-specification:Arial;text-align:start;letter-spacing:0.60000002px;word-spacing:2.36999989px;text-anchor:start;fill:#000000;fill-opacity:1;stroke:none;stroke-width:1px;stroke-linecap:butt;stroke-linejoin:miter;stroke-opacity:1"
     x="60.849945"
     y="661.63232"
     id="text14081-8-44-9-8-4-50-1"><tspan
       sodipodi:role="line"
       x="60.849945"
       y="661.63232"
       id="tspan18098-36-8"
       style="font-size:13.75px;line-height:1.14999998">2.</tspan></text>
  <text
     xml:space="preserve"
     style="font-style:normal;font-variant:normal;font-weight:normal;font-stretch:normal;line-height:0%;font-family:Arial;-inkscape-font-specification:Arial;text-align:start;letter-spacing:0.75px;word-spacing:2.36999989px;text-anchor:start;fill:#000000;fill-opacity:1;stroke:none;stroke-width:1px;stroke-linecap:butt;stroke-linejoin:miter;stroke-opacity:1"
     x="85.899384"
     y="661.65924"
     id="text14081-8-44-9-8-4-1"><tspan
       sodipodi:role="line"
       x="85.899384"
       y="661.65924"
       id="tspan24230"
       style="font-size:13.75px;line-height:1.14999998">Wilcom─T132, Wilcom─T195, or equivalent.</tspan></text>
  <path
     style="color:#000000;display:inline;overflow:visible;visibility:visible;fill:none;fill-rule:evenodd;stroke:#000000;stroke-width:1;stroke-linecap:round;stroke-linejoin:round;stroke-miterlimit:4;stroke-dasharray:none;stroke-dashoffset:0;stroke-opacity:1;marker:none;enable-background:accumulate"
     d="m 74.293256,231.22684 a 2.6749334,2.6749334 0 0 1 -2.67494,2.67494 2.6749334,2.6749334 0 0 1 -2.67493,-2.67494 2.6749334,2.6749334 0 0 1 2.67493,-2.67493 2.6749334,2.6749334 0 0 1 2.67494,2.67493 z"
     id="path24304"
     inkscape:connector-curvature="0" />
  <path
     style="color:#000000;display:inline;overflow:visible;visibility:visible;fill:none;fill-rule:evenodd;stroke:#000000;stroke-width:1;stroke-linecap:round;stroke-linejoin:round;stroke-miterlimit:4;stroke-dasharray:none;stroke-dashoffset:0;stroke-opacity:1;marker:none;enable-background:accumulate"
     d="m 21.592926,250.99556 a 2.6749334,2.6749334 0 0 1 -2.67493,2.67494 2.6749334,2.6749334 0 0 1 -2.67493,-2.67494 2.6749334,2.6749334 0 0 1 2.67493,-2.67493 2.6749334,2.6749334 0 0 1 2.67493,2.67493 z"
     id="path24304-5"
     inkscape:connector-curvature="0" />
  <path
     style="color:#000000;display:inline;overflow:visible;visibility:visible;fill:none;fill-rule:evenodd;stroke:#000000;stroke-width:1;stroke-linecap:round;stroke-linejoin:round;stroke-miterlimit:4;stroke-dasharray:none;stroke-dashoffset:0;stroke-opacity:1;marker:none;enable-background:accumulate"
     d="m 21.592926,231.40276 a 2.6749334,2.6749334 0 0 1 -2.67493,2.67494 2.6749334,2.6749334 0 0 1 -2.67493,-2.67494 2.6749334,2.6749334 0 0 1 2.67493,-2.67493 2.6749334,2.6749334 0 0 1 2.67493,2.67493 z"
     id="path24304-3"
     inkscape:connector-curvature="0" />
  <path
     style="color:#000000;display:inline;overflow:visible;visibility:visible;fill:none;fill-rule:evenodd;stroke:#000000;stroke-width:1;stroke-linecap:round;stroke-linejoin:round;stroke-miterlimit:4;stroke-dasharray:none;stroke-dashoffset:0;stroke-opacity:1;marker:none;enable-background:accumulate"
     d="m 74.382246,250.91 a 2.6749334,2.6749334 0 0 1 -2.67493,2.67494 2.6749334,2.6749334 0 0 1 -2.67494,-2.67494 2.6749334,2.6749334 0 0 1 2.67494,-2.67493 2.6749334,2.6749334 0 0 1 2.67493,2.67493 z"
     id="path24304-1"
     inkscape:connector-curvature="0" />
  <path
     style="color:#000000;display:inline;overflow:visible;visibility:visible;fill:none;fill-rule:evenodd;stroke:#000000;stroke-width:1;stroke-linecap:round;stroke-linejoin:round;stroke-miterlimit:4;stroke-dasharray:none;stroke-dashoffset:0;stroke-opacity:1;marker:none;enable-background:accumulate"
     d="m 190.82675,250.65333 a 2.6749334,2.6749334 0 0 1 -2.67493,2.67494 2.6749334,2.6749334 0 0 1 -2.67493,-2.67494 2.6749334,2.6749334 0 0 1 2.67493,-2.67493 2.6749334,2.6749334 0 0 1 2.67493,2.67493 z"
     id="path24304-0"
     inkscape:connector-curvature="0" />
  <path
     style="color:#000000;display:inline;overflow:visible;visibility:visible;fill:none;fill-rule:evenodd;stroke:#000000;stroke-width:1;stroke-linecap:round;stroke-linejoin:round;stroke-miterlimit:4;stroke-dasharray:none;stroke-dashoffset:0;stroke-opacity:1;marker:none;enable-background:accumulate"
     d="m 243.27384,250.39666 a 2.6749334,2.6749334 0 0 1 -2.67493,2.67494 2.6749334,2.6749334 0 0 1 -2.67493,-2.67494 2.6749334,2.6749334 0 0 1 2.67493,-2.67493 2.6749334,2.6749334 0 0 1 2.67493,2.67493 z"
     id="path24304-7"
     inkscape:connector-curvature="0" />
  <path
     style="color:#000000;display:inline;overflow:visible;visibility:visible;fill:none;fill-rule:evenodd;stroke:#000000;stroke-width:1;stroke-linecap:round;stroke-linejoin:round;stroke-miterlimit:4;stroke-dasharray:none;stroke-dashoffset:0;stroke-opacity:1;marker:none;enable-background:accumulate"
     d="m 243.3594,230.80386 a 2.6749334,2.6749334 0 0 1 -2.67493,2.67494 2.6749334,2.6749334 0 0 1 -2.67493,-2.67494 2.6749334,2.6749334 0 0 1 2.67493,-2.67493 2.6749334,2.6749334 0 0 1 2.67493,2.67493 z"
     id="path24304-9"
     inkscape:connector-curvature="0" />
  <path
     style="color:#000000;display:inline;overflow:visible;visibility:visible;fill:none;fill-rule:evenodd;stroke:#000000;stroke-width:1;stroke-linecap:round;stroke-linejoin:round;stroke-miterlimit:4;stroke-dasharray:none;stroke-dashoffset:0;stroke-opacity:1;marker:none;enable-background:accumulate"
     d="m 190.7412,231.06054 a 2.6749334,2.6749334 0 0 1 -2.67493,2.67494 2.6749334,2.6749334 0 0 1 -2.67493,-2.67494 2.6749334,2.6749334 0 0 1 2.67493,-2.67493 2.6749334,2.6749334 0 0 1 2.67493,2.67493 z"
     id="path24304-09"
     inkscape:connector-curvature="0" />
  <path
     style="fill:none;stroke:#000000;stroke-width:1;stroke-linecap:round;stroke-linejoin:round;stroke-miterlimit:4;stroke-dasharray:none;stroke-opacity:1"
     d="M 185.39305,250.95148 H 74.223586 m 0.002,-19.74473 H 185.39505"
     id="path14359-1-7-5-3-0-73-1-9-8-5-04-0-5-0-9"
     inkscape:connector-curvature="0"
     sodipodi:nodetypes="cccc" />
  <path
     style="fill:none;stroke:#000000;stroke-width:1;stroke-linecap:round;stroke-linejoin:round;stroke-miterlimit:4;stroke-dasharray:none;stroke-opacity:1"
     d="m 193.18668,187.57344 c 3.24695,5.53853 8.25319,14.14437 11.51495,14.18598 2.03419,0.0259 3.11095,-2.621 4.97351,-2.53855 2.49865,0.11062 2.79969,3.89127 4.74951,3.80782 2.00231,-0.0857 2.49176,-3.78999 4.67486,-3.80782 2.25957,-0.0185 3.48439,2.50171 5.1975,2.38922 2.96513,-0.19469 8.31847,-8.58019 11.06696,-14.03665"
     id="path14359-1-7-5-3-0-73-1-9-8-5-04-0-5-0-9-6"
     inkscape:connector-curvature="0"
     sodipodi:nodetypes="csssssc" />
  <path
     style="color:#000000;display:inline;overflow:visible;visibility:visible;fill:none;fill-rule:evenodd;stroke:#000000;stroke-width:1;stroke-linecap:round;stroke-linejoin:round;stroke-miterlimit:4;stroke-dasharray:none;stroke-dashoffset:0;stroke-opacity:1;marker:none;enable-background:accumulate"
     d="m 548.50733,249.70247 c 0,1.47733 -1.1976,2.67494 -2.67493,2.67494 -1.47733,0 -2.67493,-1.19761 -2.67493,-2.67494 0,-1.47732 1.19761,-2.67493 2.67493,-2.67493 1.47732,0 2.67493,1.19761 2.67493,2.67493 z"
     id="path24304-7-4"
     inkscape:connector-curvature="0"
     sodipodi:nodetypes="sssss" />
  <path
     style="color:#000000;display:inline;overflow:visible;visibility:visible;fill:none;fill-rule:evenodd;stroke:#000000;stroke-width:1;stroke-linecap:round;stroke-linejoin:round;stroke-miterlimit:4;stroke-dasharray:none;stroke-dashoffset:0;stroke-opacity:1;marker:none;enable-background:accumulate"
     d="m 548.59289,230.10967 c 0,1.47733 -1.1976,2.67494 -2.67493,2.67494 -1.47733,0 -2.67493,-1.19761 -2.67493,-2.67494 0,-1.47732 1.19761,-2.67493 2.67493,-2.67493 1.47732,0 2.67493,1.19761 2.67493,2.67493 z"
     id="path24304-9-1"
     inkscape:connector-curvature="0"
     sodipodi:nodetypes="sssss" />
  <path
     style="color:#000000;display:inline;overflow:visible;visibility:visible;fill:none;fill-rule:evenodd;stroke:#000000;stroke-width:1;stroke-linecap:round;stroke-linejoin:round;stroke-miterlimit:4;stroke-dasharray:none;stroke-dashoffset:0;stroke-opacity:1;marker:none;enable-background:accumulate"
     d="m 74.592277,572.78942 c 0,5.9867 -4.8532,10.8399 -10.83994,10.8399 -5.98673,0 -10.83993,-4.8532 -10.83993,-10.8399 0,-5.9867 4.8532,-10.8399 10.83993,-10.8399 5.98674,0 10.83994,4.8532 10.83994,10.8399 z"
     id="path17469-0-0-57-7"
     inkscape:connector-curvature="0"
     sodipodi:nodetypes="sssss" />
  <path
     style="color:#000000;display:inline;overflow:visible;visibility:visible;fill:none;fill-rule:evenodd;stroke:#000000;stroke-width:1;stroke-linecap:round;stroke-linejoin:round;stroke-miterlimit:4;stroke-dasharray:none;stroke-dashoffset:0;stroke-opacity:1;marker:none;enable-background:accumulate"
     d="m 77.412799,657.38402 c 0,5.9867 -4.8532,10.8399 -10.83994,10.8399 -5.98673,0 -10.83993,-4.8532 -10.83993,-10.8399 0,-5.9867 4.8532,-10.8399 10.83993,-10.8399 5.98674,0 10.83994,4.8532 10.83994,10.8399 z"
     id="path17469-0-0-57-4"
     inkscape:connector-curvature="0"
     sodipodi:nodetypes="sssss" />
  <path
     style="fill:#000000;fill-opacity:1;stroke:#000000;stroke-width:1;stroke-linecap:butt;stroke-linejoin:miter;stroke-miterlimit:4;stroke-dasharray:none;stroke-opacity:1"
     d="m 564.87146,244.50847 -11.4668,-3.4227 11.40828,-3.60026 0.0293,3.51148 z"
     id="path14359-1-7-5-3-0-73-1-8-2-2-9"
     inkscape:connector-curvature="0"
     sodipodi:nodetypes="ccccc" />
  <path
     style="fill:none;stroke:#000000;stroke-width:1;stroke-linecap:butt;stroke-linejoin:miter;stroke-miterlimit:4;stroke-dasharray:none;stroke-opacity:1"
     d="m 564.85721,240.99587 36.86341,-0.1392 v 38.22563 l -48.84185,-0.0806"
     id="path14359-1-7-5-3-0-73-1-9-1-9-9-7"
     inkscape:connector-curvature="0"
     sodipodi:nodetypes="cccc" />
  <path
     style="fill:#000000;fill-opacity:1;stroke:#000000;stroke-width:1;stroke-linecap:butt;stroke-linejoin:miter;stroke-miterlimit:4;stroke-dasharray:none;stroke-opacity:1"
     d="m 251.36385,216.62073 -8.75288,8.16024 2.66507,-11.66226 3.04382,1.75117 z"
     id="path14359-1-7-5-3-0-73-1-8-2-2-4"
     inkscape:connector-curvature="0"
     sodipodi:nodetypes="ccccc" />
  <path
     style="fill:none;stroke:#000000;stroke-width:1;stroke-linecap:butt;stroke-linejoin:miter;stroke-miterlimit:4;stroke-dasharray:none;stroke-opacity:1"
     d="m 248.32657,214.8562 34.45563,-60.39745 h 9.97054"
     id="path14359-1-7-5-3-0-73-1-9-1-9-9-5"
     inkscape:connector-curvature="0"
     sodipodi:nodetypes="ccc" />
  <path
     style="fill:#000000;fill-opacity:1;stroke:#000000;stroke-width:1;stroke-linecap:butt;stroke-linejoin:miter;stroke-miterlimit:4;stroke-dasharray:none;stroke-opacity:1"
     d="m 199.96652,232.73568 -5.43458,-1.52881 5.44115,-1.4944 -0.003,1.51161 z"
     id="path14359-1-7-5-3-0-73-1-8"
     inkscape:connector-curvature="0"
     sodipodi:nodetypes="ccccc" />
  <path
     style="fill:none;stroke:#000000;stroke-width:1;stroke-linecap:butt;stroke-linejoin:miter;stroke-miterlimit:4;stroke-dasharray:none;stroke-opacity:1"
     d="m 199.98482,231.2231 15.22003,0.0103 v -9.44166 l -49.8129,0.005 v -7.32543 l -7.71979,0.001"
     id="path14359-1-7-5-3-0-73-1-9-1-2"
     inkscape:connector-curvature="0"
     sodipodi:nodetypes="cccccc" />
  <text
     xml:space="preserve"
     style="font-style:normal;font-variant:normal;font-weight:normal;font-stretch:normal;line-height:0%;font-family:Arial;-inkscape-font-specification:Arial;text-align:start;letter-spacing:1.08000004px;word-spacing:2.36999989px;text-anchor:start;fill:#000000;fill-opacity:1;stroke:none;stroke-width:1px;stroke-linecap:butt;stroke-linejoin:miter;stroke-opacity:1"
     x="7.2651253"
     y="441.604"
     id="text14081-8-44-9-8-4-4-0"><tspan
       sodipodi:role="line"
       x="7.2651253"
       y="441.604"
       id="tspan25735-9"
       style="font-size:13.75px;line-height:1.14999998">2. Observe Return Loss from 200 to 3500 Hz (D66) or 200 to 3000 Hz (H88) noting</tspan><tspan
       sodipodi:role="line"
       x="7.2651253"
       y="457.4165"
       id="tspan25760"
       style="font-size:13.75px;line-height:1.14999998">   maximum and minimum values. Note the value and frequency of the poorest (Lowest</tspan><tspan
       sodipodi:role="line"
       x="7.2651253"
       y="473.229"
       id="tspan25762"
       style="font-size:13.75px;line-height:1.14999998">   Numerical Value) SRL. (SRL becomes better as the readings become more negative).</tspan><tspan
       sodipodi:role="line"
       x="7.2651253"
       y="489.0415"
       id="tspan25764"
       style="font-size:13.75px;line-height:1.14999998">   Record this value and frequency.</tspan></text>
</svg>
