<?xml version="1.0" encoding="UTF-8" standalone="no"?>
<!-- Created with Inkscape (http://www.inkscape.org/) -->

<svg
   xmlns:dc="http://purl.org/dc/elements/1.1/"
   xmlns:cc="http://creativecommons.org/ns#"
   xmlns:rdf="http://www.w3.org/1999/02/22-rdf-syntax-ns#"
   xmlns:svg="http://www.w3.org/2000/svg"
   xmlns="http://www.w3.org/2000/svg"
   xmlns:sodipodi="http://sodipodi.sourceforge.net/DTD/sodipodi-0.dtd"
   xmlns:inkscape="http://www.inkscape.org/namespaces/inkscape"
   id="svg23416"
   version="1.1"
   inkscape:version="0.92.2 5c3e80d, 2017-08-06"
   width="846.71997"
   height="620.16003"
   viewBox="0 0 793.79999 581.40002"
   sodipodi:docname="er04de07.023.svg">
  <metadata
     id="metadata23422">
    <rdf:RDF>
      <cc:Work
         rdf:about="">
        <dc:format>image/svg+xml</dc:format>
        <dc:type
           rdf:resource="http://purl.org/dc/dcmitype/StillImage" />
        <dc:title></dc:title>
      </cc:Work>
    </rdf:RDF>
  </metadata>
  <defs
     id="defs23420" />
  <sodipodi:namedview
     pagecolor="#ffffff"
     bordercolor="#666666"
     borderopacity="1"
     objecttolerance="10"
     gridtolerance="10"
     guidetolerance="10"
     inkscape:pageopacity="0"
     inkscape:pageshadow="2"
     inkscape:window-width="1280"
     inkscape:window-height="756"
     id="namedview23418"
     showgrid="false"
     inkscape:zoom="0.6769388"
     inkscape:cx="440.40893"
     inkscape:cy="369.80223"
     inkscape:window-x="0"
     inkscape:window-y="23"
     inkscape:window-maximized="0"
     inkscape:current-layer="svg23416" />
  <path
     style="fill:#e4e4e4;fill-opacity:1;stroke:none;stroke-width:1;stroke-linecap:butt;stroke-linejoin:round;stroke-miterlimit:4;stroke-dasharray:none;stroke-opacity:1"
     d="m 759.27637,228.03127 -113.287,54.22584 -30.31412,-25.07244 27.40464,-10.64315 36.18431,-37.7694 79.94248,-22.10532 z"
     id="path14359-1-7-5-3-0-73-1-9-8-5-33"
     inkscape:connector-curvature="0"
     sodipodi:nodetypes="ccccccc" />
  <path
     style="fill:#e4e4e4;fill-opacity:1;stroke:none;stroke-width:1;stroke-linecap:round;stroke-linejoin:round;stroke-miterlimit:4;stroke-dasharray:none;stroke-opacity:1"
     d="m 609.17455,259.77193 -135.52032,52.70701 -80.57721,52.43304 -135.35509,51.95136 -50.76075,-36.89513 -42.86362,-19.63312 -29.811,-65.58835 L 112.0157,194.22887 96.50195,183.09025 70.175193,130.15251 70.153449,331.63716 257.73512,468.83141 640.52135,284.92367 Z"
     id="path14359-1-7-5-3-0-73-1-9-8-5-8-5"
     inkscape:connector-curvature="0"
     sodipodi:nodetypes="cccccccccccccc" />
  <path
     style="fill:#bbbbbb;fill-opacity:1;stroke:none;stroke-width:1;stroke-linecap:round;stroke-linejoin:round;stroke-miterlimit:4;stroke-dasharray:none;stroke-opacity:1"
     d="m 517.84234,189.2804 -0.10444,44.3345 74.52119,19.12943 -139.98195,51.69007 -79.96995,50.58924 -3.27784,1.11482 -0.0441,-160.33124 -131.8009,-34.28315 86.4822,-25.36222 38.41112,-23.16636 21.94406,19.07082 14.67329,12.44252 82.93798,-26.15715 9.80716,7.14915 19.86453,15.68518 19.79846,-30.16544 10.50605,-1.90942 -0.0362,61.50781 -10.92493,2.61724 -0.007,12.72215 z m 151.83042,-0.66654 -10.2695,-1.72147 0.025,-20.28712 25.6516,-0.26026 20.8161,19.62763 15.7848,2.01601 -51.9733,15.8233 z m -407.76539,204.59436 -30.0531,-21.62384 -42.12616,-19.80184 -29.99683,-59.43168 -22.38208,-99.9196 -15.39144,-11.13041 -21.03786,-40.87111 52.59841,-10.30082 19.18255,12.17734 33.20652,40.76385 -3.64583,3.17797 18.92564,11.82723 c -4.70272,5.58215 -8.02444,12.50218 -7.93254,20.50396 l 0.45821,39.86978 c 0.12422,10.81543 4.93653,17.73155 10.90644,22.43406 l -0.0206,27.87318 114.10137,57.76248 z m -47.24012,-217.41025 -4.17262,3.72537 -21.23854,-26.14367 23.05299,15.22404 12.25436,-3.48975 0.0752,29.22236 c -0.7067,0.701 -1.32923,1.37507 -2.02442,2.13117 z"
     id="path14359-1-7-5-3-0-73-1-9-8-5-9-9"
     inkscape:connector-curvature="0"
     sodipodi:nodetypes="cccccccccccccccccccccccccccccccccccccccccsscccccccccccc" />
  <path
     style="fill:#bbbbbb;fill-opacity:1;stroke:none;stroke-width:1;stroke-linecap:round;stroke-linejoin:round;stroke-miterlimit:4;stroke-dasharray:none;stroke-opacity:1"
     d="m 618.11543,239.5781 -0.0351,3.55118 6.33561,-2.45722 z"
     id="path14359-1-7-5-3-0-73-1-9-8-5-07-9"
     inkscape:connector-curvature="0"
     sodipodi:nodetypes="cccc" />
  <path
     style="fill:#b6b6b6;fill-opacity:1;stroke:none;stroke-width:1;stroke-linecap:round;stroke-linejoin:round;stroke-miterlimit:4;stroke-dasharray:none;stroke-opacity:1"
     d="m 721.79233,188.23408 -15.7848,-2.01601 -20.8161,-19.62763 -25.47275,0.26665 -0.15295,20.39023 10.1262,1.56595 0.0873,14.89761 z"
     id="path14359-1-7-5-3-0-73-1-9-8-5-7-9"
     inkscape:connector-curvature="0"
     sodipodi:nodetypes="cccccccc" />
  <path
     style="fill:#686868;fill-opacity:1;stroke:none;stroke-width:1;stroke-linecap:round;stroke-linejoin:round;stroke-miterlimit:4;stroke-dasharray:none;stroke-opacity:1"
     d="m 659.33902,192.25015 0.0491,-5.33138 10.12615,1.6622 -0.0445,14.87751 -11.86576,4.04384 -33.43225,33.18287 -6.1224,-1.13197 -0.0421,-38.22459 -82.09633,-16.74226 -5.35745,1.40134 0.0285,-12.73838 10.89622,-2.58756 z"
     id="path14359-1-7-5-3-0-73-1-9-8-5-7-7"
     inkscape:connector-curvature="0"
     sodipodi:nodetypes="ccccccccccccc" />
  <path
     style="fill:#a5a5a5;fill-opacity:1;stroke:none;stroke-width:1;stroke-linecap:round;stroke-linejoin:round;stroke-miterlimit:4;stroke-dasharray:none;stroke-opacity:1"
     d="m 621.42372,96.791324 3.17727,4.250796 -24.95742,6.6991 16.20623,-20.245659 2.57128,4.23836 14.81448,-9.893752 -91.67195,-7.785439 -0.002,96.65069 117.81795,21.59765 0.002,-108.280193 -16.20081,-1.375886 z"
     id="path14359-1-7-5-3-0-73-1-9-8-5-4-0"
     inkscape:connector-curvature="0"
     sodipodi:nodetypes="cccccccccccc" />
  <path
     style="fill:#686868;fill-opacity:1;stroke:none;stroke-width:1;stroke-linecap:round;stroke-linejoin:round;stroke-miterlimit:4;stroke-dasharray:none;stroke-opacity:1"
     d="m 241.04358,183.96781 h -1e-5 l 94.89966,27.02272 0.073,94.03808 c -18.94429,6.44965 -41.07097,4.77745 -60.09937,-2.44627 l -32.98681,-12.52271 c -4.7613,-1.80752 -12.12684,-4.21275 -18.27625,-8.9615 l -0.009,27.87332 -0.0328,-0.008 114.10605,57.74711 30.33559,-10.57924 -0.0385,-160.113 -135.81874,-35.27929 -8.54977,1.63963 -0.006,31.96294 c 5.7518,-5.56751 12.25424,-8.84319 16.40304,-10.37379 z"
     id="path14359-1-7-5-3-0-73-1-9-8-5-16-3"
     inkscape:connector-curvature="0"
     sodipodi:nodetypes="ccccsscccccccccc" />
  <path
     style="fill:#9d9d9d;fill-opacity:1;stroke:none;stroke-width:1;stroke-linecap:round;stroke-linejoin:round;stroke-miterlimit:4;stroke-dasharray:none;stroke-opacity:1"
     d="m 96.431044,182.7736 15.513746,11.13862 22.2709,100.51787 29.811,65.58835 42.8636,19.63312 50.7607,36.89513 135.3551,-51.95136 80.21382,-52.14234 135.83928,-53.01545 -11.00225,-8.86385 -145.7061,53.98387 -79.89722,50.51656 -110.61793,38.25726 -30.0531,-21.98722 -42.1261,-19.80184 -29.9969,-59.43168 -22.382,-99.9196 -15.3915,-11.13041 -21.03782,-40.87111 52.58087,-10.43664 -31.85705,-13.03216 -51.484197,13.1187 z m 519.168246,74.11863 27.4097,-10.66736 35.8936,-37.40602 80.35763,-22.47471 -39.62683,-5.82191 -20.6914,-19.78326 -32.2076,0.88167 -7.3055,-5.1339 0.10665,9.97281 25.47275,-0.35476 20.8161,19.62763 16.0755,2.16136 -64.15605,19.71857 -33.42903,33.24373 -19.86417,7.42213 z"
     id="path14359-1-7-5-3-0-73-1-9-8-5-6-0"
     inkscape:connector-curvature="0"
     sodipodi:nodetypes="ccccccccccccccccccccccccccccccccccccccc" />
  <path
     style="fill:#9d9d9d;fill-opacity:1;stroke:none;stroke-width:1;stroke-linecap:round;stroke-linejoin:round;stroke-miterlimit:4;stroke-dasharray:none;stroke-opacity:1"
     d="m 511.23309,140.94579 19.7984,-30.16544 10.3878,-1.85728 -0.024,-7.17144 -35.3892,5.27391 -14.3321,18.23174 z m -54.4213,-31.59985 -72.774,22.29023 14.5856,12.63244 82.9384,-26.37067 z m -122.4113,-5.754 -37.7078,22.79103 -107.3451,26.81264 22.8898,15.16788 12.40521,-3.61402 0.1254,-2.38722 8.51893,-1.7695 2.83791,0.81159 87.47005,-25.48271 38.5756,-23.33074 z"
     id="path14359-1-7-5-3-0-73-1-9-8-5-956-7-1"
     inkscape:connector-curvature="0"
     sodipodi:nodetypes="ccccccccccccccccccccccc" />
  <path
     style="fill:#575757;fill-opacity:1;stroke:none;stroke-width:1;stroke-linecap:round;stroke-linejoin:round;stroke-miterlimit:4;stroke-dasharray:none;stroke-opacity:1"
     d="m 592.23551,252.89109 -74.49572,-19.12756 0.10444,-44.3345 18.13462,-4.70716 82.09631,16.74226 -0.002,41.51029 -13.98448,5.36734 -10.44523,-8.76584 2.87087,-3.55111 -23.45387,-8.91222 13.68168,21.18547 3.06212,-4.45059 8.48931,6.7185 z"
     id="path14359-1-7-5-3-0-73-1-9-8-5-35-1"
     inkscape:connector-curvature="0"
     sodipodi:nodetypes="cccccccccccccc" />
  <path
     style="fill:#595959;fill-opacity:1;stroke:none;stroke-width:1;stroke-linecap:round;stroke-linejoin:round;stroke-miterlimit:4;stroke-dasharray:none;stroke-opacity:1"
     d="m 222.76029,196.45108 c 6.11987,-6.58742 15.82754,-11.87534 18.12647,-12.72348 l 95.17293,27.04273 0.073,94.03808 c -18.94429,6.44965 -41.07097,4.77745 -60.09937,-2.44627 l -32.98681,-12.52271 c -9.39643,-3.56715 -28.9356,-9.46217 -29.18756,-31.39935 l -0.45791,-39.86978 c -0.0919,-8.00178 3.20033,-14.98078 7.87915,-20.539 l 2.28793,1.35394 z"
     id="path14359-1-7-5-3-0-73-1-9-8-5-16-1"
     inkscape:connector-curvature="0"
     sodipodi:nodetypes="ccccssssccc" />
  <path
     style="fill:none;stroke:#5f5f5f;stroke-width:5;stroke-linecap:butt;stroke-linejoin:round;stroke-miterlimit:4;stroke-dasharray:none;stroke-opacity:1"
     d="m 283.09104,236.81294 -0.002,57.61445"
     id="path14359-1-7-5-3-0-73-1-9-8-5-956-6"
     inkscape:connector-curvature="0"
     sodipodi:nodetypes="cc" />
  <path
     style="fill:none;stroke:#5f5f5f;stroke-width:5;stroke-linecap:butt;stroke-linejoin:round;stroke-miterlimit:4;stroke-dasharray:none;stroke-opacity:1"
     d="m 323.38271,217.48978 c -14.4047,9.59061 -36.20361,19.22524 -58.30461,12.15463 l -37.0463,-11.85195 c -3.87093,-1.2384 -7.54999,-2.75408 -10.56402,-4.61258"
     id="path14359-1-7-5-3-0-73-1-9-8-5-956-4"
     inkscape:connector-curvature="0"
     sodipodi:nodetypes="cssc" />
  <path
     style="color:#000000;display:inline;overflow:visible;visibility:visible;fill:#3f3f3f;fill-opacity:1;fill-rule:evenodd;stroke:none;stroke-width:1;stroke-linecap:butt;stroke-linejoin:miter;stroke-miterlimit:4;stroke-dasharray:none;stroke-dashoffset:0;stroke-opacity:1;marker:none;enable-background:accumulate"
     d="m 232.67436,255.61901 a 11.723923,3.3051205 86.674802 0 1 -2.68436,11.70575 11.723923,3.3051205 86.674802 0 1 -3.93614,-11.70575 11.723923,3.3051205 86.674802 0 1 2.68435,-11.70575 11.723923,3.3051205 86.674802 0 1 3.93615,11.70575 z"
     id="path8219"
     inkscape:connector-curvature="0" />
  <path
     style="color:#000000;display:inline;overflow:visible;visibility:visible;fill:#3f3f3f;fill-opacity:1;fill-rule:evenodd;stroke:none;stroke-width:1;stroke-linecap:round;stroke-linejoin:round;stroke-miterlimit:4;stroke-dasharray:none;stroke-dashoffset:0;stroke-opacity:1;marker:none;enable-background:accumulate"
     d="m 230.63297,241.04907 c 2.36762,-4.13445 5.86607,-8.77267 7.90394,-8.77267 5.30159,-2e-5 10.01264,10.00488 10.37891,21.15654 0.31208,9.50178 -3.74838,20.35118 -7.32413,20.35117 -2.79687,-10e-6 -4.27491,0.024 -9.7269,-5.01208 4.48052,-6.03555 3.98624,-19.23323 -1.23182,-27.72296 z"
     id="path8219-1"
     inkscape:connector-curvature="0"
     sodipodi:nodetypes="cssscc" />
  <path
     style="fill:none;stroke:#000000;stroke-width:2;stroke-linecap:butt;stroke-linejoin:round;stroke-miterlimit:4;stroke-dasharray:none;stroke-opacity:1"
     d="m 171.01035,141.2362 -17.31338,-11.31225 -32.03674,-12.89635 -51.487782,13.09377 -0.0018,201.50602 187.581672,137.19425 382.78443,-183.8562 m 5.5744,-2.65949 113.18242,-54.28445 v -41.3443 l -39.57188,-5.84809 -20.6914,-19.78326 -32.20763,0.88167 -7.21007,-5.10697"
     id="path14359-1-7-5-3-0-73-1-9-8-5"
     inkscape:connector-curvature="0"
     sodipodi:nodetypes="cccccccccccccc" />
  <path
     style="fill:none;stroke:#000000;stroke-width:2;stroke-linecap:butt;stroke-linejoin:round;stroke-miterlimit:4;stroke-dasharray:none;stroke-opacity:1"
     d="m 541.36269,102.14859 -35.26869,5.18383 -14.02678,18.22841 -10.41693,-7.56954 -24.75036,-8.33847 -72.68634,22.10032 -21.7906,-19.01974 -27.93435,-8.83458 -37.70786,22.79103 -107.34124,26.85755"
     id="path14359-1-7-5-3-0-73-1-9-8-5-3"
     inkscape:connector-curvature="0"
     sodipodi:nodetypes="cccccccccc" />
  <path
     style="fill:none;stroke:#000000;stroke-width:1;stroke-linecap:round;stroke-linejoin:round;stroke-miterlimit:4;stroke-dasharray:none;stroke-opacity:1"
     d="m 596.7325,236.05773 -3.21679,3.68284 71.47293,57.66589 -3.81407,4.2212 -71.28291,-57.71032 -3.10345,4.39597 -13.8802,-21.32112 z"
     id="path14359-1-7-5-3-0-73-1-9-8-5-8"
     inkscape:connector-curvature="0"
     sodipodi:nodetypes="cccccccc" />
  <path
     style="fill:none;stroke:#000000;stroke-width:1;stroke-linecap:round;stroke-linejoin:round;stroke-miterlimit:4;stroke-dasharray:none;stroke-opacity:1"
     d="m 112.50179,68.428598 93.42206,114.708172 -3.64583,3.17797 21.45411,13.37432 -9.04841,-23.82443 L 210.5111,179.59 117.21536,64.722979 Z"
     id="path14359-1-7-5-3-0-73-1-9-8-5-2"
     inkscape:connector-curvature="0"
     sodipodi:nodetypes="cccccccc" />
  <path
     style="fill:none;stroke:#d10000;stroke-width:1;stroke-linecap:round;stroke-linejoin:round;stroke-miterlimit:4;stroke-dasharray:none;stroke-opacity:1"
     d="m 170.50338,141.43618 2.75584,1.68185"
     id="path14359-1-7-5-3-0-73-1-9-8-5-1"
     inkscape:connector-curvature="0"
     sodipodi:nodetypes="cc" />
  <path
     style="fill:none;stroke:#000000;stroke-width:1;stroke-linecap:round;stroke-linejoin:round;stroke-miterlimit:4;stroke-dasharray:none;stroke-opacity:1"
     d="m 70.470263,130.67997 26.04889,52.40051 15.513747,11.13862 22.27086,100.51787 29.811,65.58835 42.86362,19.63312 50.76075,36.89513 135.35509,-51.95136 80.57721,-52.43304 135.47584,-52.72475 m 6.54013,-2.54531 27.40969,-10.66736 36.18431,-37.7694 78.71212,-21.99653"
     id="path14359-1-7-5-3-0-73-1-9-8-5-6"
     inkscape:connector-curvature="0"
     sodipodi:nodetypes="cccccccccccccc" />
  <path
     style="fill:none;stroke:#000000;stroke-width:1;stroke-linecap:round;stroke-linejoin:round;stroke-miterlimit:4;stroke-dasharray:none;stroke-opacity:1"
     d="m 643.22269,82.684118 16.19893,1.33938 -0.002,108.280182 -117.81795,-21.59765 0.002,-96.650679 91.65691,7.754757"
     id="path14359-1-7-5-3-0-73-1-9-8-5-7"
     inkscape:connector-curvature="0"
     sodipodi:nodetypes="cccccc" />
  <path
     style="fill:none;stroke:#000000;stroke-width:1;stroke-linecap:round;stroke-linejoin:round;stroke-miterlimit:4;stroke-dasharray:none;stroke-opacity:1"
     d="m 663.98623,69.074185 -42.52245,27.71776 3.17727,4.250795 -24.95742,6.6991 16.20623,-20.245658 2.57128,4.23836 42.3376,-27.839088 z"
     id="path14359-1-7-5-3-0-73-1-9-8-5-4"
     inkscape:connector-curvature="0"
     sodipodi:nodetypes="cccccccc" />
  <path
     style="fill:none;stroke:#000000;stroke-width:1;stroke-linecap:round;stroke-linejoin:round;stroke-miterlimit:4;stroke-dasharray:none;stroke-opacity:1"
     d="m 659.50496,156.10819 4.80322,3.51387"
     id="path14359-1-7-5-3-0-73-1-9-8-5-42"
     inkscape:connector-curvature="0"
     sodipodi:nodetypes="cc" />
  <path
     style="fill:none;stroke:#000000;stroke-width:1;stroke-linecap:round;stroke-linejoin:round;stroke-miterlimit:4;stroke-dasharray:none;stroke-opacity:1"
     d="m 659.82568,166.7457 25.27073,-0.33403 20.81608,19.62763 15.78481,2.01601 -64.01071,19.50054 -33.21099,33.17105 -20.08216,7.64016 m -6.39373,2.36816 -145.7061,53.76584 -79.96995,50.58924 -110.39982,38.18458 -30.0531,-21.62384 -42.12616,-19.80184 -29.99683,-59.43168 -22.38208,-99.9196 -15.39144,-11.13041 -21.03784,-40.87111 52.40115,-10.30082"
     id="path14359-1-7-5-3-0-73-1-9-8-5-9"
     inkscape:connector-curvature="0"
     sodipodi:nodetypes="cccccccccccccccccc" />
  <path
     style="fill:none;stroke:#000000;stroke-width:1;stroke-linecap:round;stroke-linejoin:round;stroke-miterlimit:4;stroke-dasharray:none;stroke-opacity:1"
     d="m 719.48931,181.05218 -13.60781,4.75567"
     id="path14359-1-7-5-3-0-73-1-9-8-5-31"
     inkscape:connector-curvature="0"
     sodipodi:nodetypes="cc" />
  <path
     style="fill:none;stroke:#000000;stroke-width:1;stroke-linecap:round;stroke-linejoin:round;stroke-miterlimit:4;stroke-dasharray:none;stroke-opacity:1"
     d="m 698.21673,161.34535 -13.28386,5.02562"
     id="path14359-1-7-5-3-0-73-1-9-8-5-25"
     inkscape:connector-curvature="0"
     sodipodi:nodetypes="cc" />
  <path
     style="fill:none;stroke:#000000;stroke-width:1;stroke-linecap:round;stroke-linejoin:round;stroke-miterlimit:4;stroke-dasharray:none;stroke-opacity:1"
     d="m 666.57782,162.20921 -7.07487,3.13593"
     id="path14359-1-7-5-3-0-73-1-9-8-5-40"
     inkscape:connector-curvature="0"
     sodipodi:nodetypes="cc" />
  <path
     style="fill:none;stroke:#000000;stroke-width:1;stroke-linecap:round;stroke-linejoin:round;stroke-miterlimit:4;stroke-dasharray:none;stroke-opacity:1"
     d="m 679.10381,208.85771 -21.32857,-1.18337"
     id="path14359-1-7-5-3-0-73-1-9-8-5-19"
     inkscape:connector-curvature="0"
     sodipodi:nodetypes="cc" />
  <path
     style="fill:none;stroke:#000000;stroke-width:1;stroke-linecap:round;stroke-linejoin:round;stroke-miterlimit:4;stroke-dasharray:none;stroke-opacity:1"
     d="m 624.73454,240.49662 18.35505,6.15945"
     id="path14359-1-7-5-3-0-73-1-9-8-5-198"
     inkscape:connector-curvature="0"
     sodipodi:nodetypes="cc" />
  <path
     style="fill:none;stroke:#000000;stroke-width:1;stroke-linecap:round;stroke-linejoin:round;stroke-miterlimit:4;stroke-dasharray:none;stroke-opacity:1"
     d="m 231.73174,371.64154 -24.62204,8.21111"
     id="path14359-1-7-5-3-0-73-1-9-8-5-69"
     inkscape:connector-curvature="0"
     sodipodi:nodetypes="cc" />
  <path
     style="fill:none;stroke:#000000;stroke-width:1;stroke-linecap:round;stroke-linejoin:round;stroke-miterlimit:4;stroke-dasharray:none;stroke-opacity:1"
     d="m 189.61851,351.88071 -25.59389,8.26511"
     id="path14359-1-7-5-3-0-73-1-9-8-5-0"
     inkscape:connector-curvature="0"
     sodipodi:nodetypes="cc" />
  <path
     style="fill:none;stroke:#000000;stroke-width:1;stroke-linecap:round;stroke-linejoin:round;stroke-miterlimit:4;stroke-dasharray:none;stroke-opacity:1"
     d="m 159.59934,292.49026 -25.43191,1.62417"
     id="path14359-1-7-5-3-0-73-1-9-8-5-01"
     inkscape:connector-curvature="0"
     sodipodi:nodetypes="cc" />
  <path
     style="fill:none;stroke:#000000;stroke-width:1;stroke-linecap:round;stroke-linejoin:round;stroke-miterlimit:4;stroke-dasharray:none;stroke-opacity:1"
     d="m 137.24693,192.55233 -25.26994,1.67816"
     id="path14359-1-7-5-3-0-73-1-9-8-5-78"
     inkscape:connector-curvature="0"
     sodipodi:nodetypes="cc" />
  <path
     style="fill:none;stroke:#000000;stroke-width:1;stroke-linecap:round;stroke-linejoin:round;stroke-miterlimit:4;stroke-dasharray:none;stroke-opacity:1"
     d="m 121.8594,181.21415 -25.053968,1.84014"
     id="path14359-1-7-5-3-0-73-1-9-8-5-92"
     inkscape:connector-curvature="0"
     sodipodi:nodetypes="cc" />
  <path
     style="fill:none;stroke:#000000;stroke-width:1;stroke-linecap:round;stroke-linejoin:round;stroke-miterlimit:4;stroke-dasharray:none;stroke-opacity:1"
     d="m 257.58479,416.87034 -0.002,51.90886"
     id="path14359-1-7-5-3-0-73-1-9-8-5-08"
     inkscape:connector-curvature="0"
     sodipodi:nodetypes="cc" />
  <path
     style="fill:none;stroke:#000000;stroke-width:1;stroke-linecap:round;stroke-linejoin:round;stroke-miterlimit:4;stroke-dasharray:none;stroke-opacity:1"
     d="m 473.38259,312.52503 -20.42831,-8.24579"
     id="path14359-1-7-5-3-0-73-1-9-8-5-09"
     inkscape:connector-curvature="0"
     sodipodi:nodetypes="cc" />
  <path
     style="fill:none;stroke:#000000;stroke-width:1;stroke-linecap:round;stroke-linejoin:round;stroke-miterlimit:4;stroke-dasharray:none;stroke-opacity:1"
     d="m 372.34708,355.17118 20.42431,9.88879"
     id="path14359-1-7-5-3-0-73-1-9-8-5-14"
     inkscape:connector-curvature="0"
     sodipodi:nodetypes="cc" />
  <path
     style="fill:none;stroke:#000000;stroke-width:1;stroke-linecap:round;stroke-linejoin:round;stroke-miterlimit:4;stroke-dasharray:none;stroke-opacity:1"
     d="m 659.51979,187.00367 10.07711,1.63083 -0.002,14.80914"
     id="path14359-1-7-5-3-0-73-1-9-8-5-87"
     inkscape:connector-curvature="0"
     sodipodi:nodetypes="ccc" />
  <path
     style="fill:none;stroke:#000000;stroke-width:1;stroke-linecap:round;stroke-linejoin:round;stroke-miterlimit:4;stroke-dasharray:none;stroke-opacity:1"
     d="m 649.01159,195.78922 -0.002,20.31593"
     id="path14359-1-7-5-3-0-73-1-9-8-5-93"
     inkscape:connector-curvature="0"
     sodipodi:nodetypes="cc" />
  <path
     style="fill:none;stroke:#000000;stroke-width:1;stroke-linecap:round;stroke-linejoin:round;stroke-miterlimit:4;stroke-dasharray:none;stroke-opacity:1"
     d="m 669.42506,188.8986 -20.5102,6.72343 -117.9072,-22.15261"
     id="path14359-1-7-5-3-0-73-1-9-8-5-5"
     inkscape:connector-curvature="0"
     sodipodi:nodetypes="ccc" />
  <path
     style="fill:none;stroke:#000000;stroke-width:1;stroke-linecap:round;stroke-linejoin:round;stroke-miterlimit:4;stroke-dasharray:none;stroke-opacity:1"
     d="m 541.51786,170.72458 -10.85334,2.57828 -0.001,12.74195"
     id="path14359-1-7-5-3-0-73-1-9-8-5-77"
     inkscape:connector-curvature="0"
     sodipodi:nodetypes="ccc" />
  <path
     style="fill:none;stroke:#000000;stroke-width:1;stroke-linecap:round;stroke-linejoin:round;stroke-miterlimit:4;stroke-dasharray:none;stroke-opacity:1"
     d="m 592.25009,252.80912 -74.49572,-19.12756 0.10444,-44.3345 18.13462,-4.70716 82.09631,16.74226 -0.002,41.51029"
     id="path14359-1-7-5-3-0-73-1-9-8-5-35"
     inkscape:connector-curvature="0"
     sodipodi:nodetypes="cccccc" />
  <path
     style="fill:none;stroke:#000000;stroke-width:1;stroke-linecap:round;stroke-linejoin:round;stroke-miterlimit:4;stroke-dasharray:none;stroke-opacity:1"
     d="m 624.03308,240.75054 -5.85903,-1.13113"
     id="path14359-1-7-5-3-0-73-1-9-8-5-07"
     inkscape:connector-curvature="0"
     sodipodi:nodetypes="cc" />
  <path
     style="fill:none;stroke:#000000;stroke-width:1;stroke-linecap:round;stroke-linejoin:round;stroke-miterlimit:4;stroke-dasharray:none;stroke-opacity:1"
     d="m 600.94949,207.15874 -0.002,38.48996"
     id="path14359-1-7-5-3-0-73-1-9-8-5-95"
     inkscape:connector-curvature="0"
     sodipodi:nodetypes="cc" />
  <path
     style="fill:none;stroke:#000000;stroke-width:1;stroke-linecap:round;stroke-linejoin:round;stroke-miterlimit:4;stroke-dasharray:none;stroke-opacity:1"
     d="m 617.91765,201.73238 -16.94789,5.33528 -83.14041,-17.74981"
     id="path14359-1-7-5-3-0-73-1-9-8-5-423"
     inkscape:connector-curvature="0"
     sodipodi:nodetypes="ccc" />
  <path
     style="fill:none;stroke:#000000;stroke-width:1;stroke-linecap:round;stroke-linejoin:round;stroke-miterlimit:4;stroke-dasharray:none;stroke-opacity:1"
     d="m 593.97124,234.8878 0.002,-23.76695 -69.50917,-14.9871 -0.002,28.75695 56.41906,14.4718"
     id="path14359-1-7-5-3-0-73-1-9-8-5-18"
     inkscape:connector-curvature="0"
     sodipodi:nodetypes="ccccc" />
  <path
     style="fill:none;stroke:#000000;stroke-width:1;stroke-linecap:round;stroke-linejoin:round;stroke-miterlimit:4;stroke-dasharray:none;stroke-opacity:1"
     d="m 536.00536,198.80387 -0.002,29.12223"
     id="path14359-1-7-5-3-0-73-1-9-8-5-02"
     inkscape:connector-curvature="0"
     sodipodi:nodetypes="cc" />
  <path
     style="fill:none;stroke:#000000;stroke-width:1;stroke-linecap:round;stroke-linejoin:round;stroke-miterlimit:4;stroke-dasharray:none;stroke-opacity:1"
     d="m 539.53681,199.57906 -0.002,29.01535"
     id="path14359-1-7-5-3-0-73-1-9-8-5-51"
     inkscape:connector-curvature="0"
     sodipodi:nodetypes="cc" />
  <path
     style="fill:none;stroke:#000000;stroke-width:1;stroke-linecap:round;stroke-linejoin:round;stroke-miterlimit:4;stroke-dasharray:none;stroke-opacity:1"
     d="m 543.32665,200.35426 -0.002,29.12223"
     id="path14359-1-7-5-3-0-73-1-9-8-5-03"
     inkscape:connector-curvature="0"
     sodipodi:nodetypes="cc" />
  <path
     style="fill:none;stroke:#000000;stroke-width:1;stroke-linecap:round;stroke-linejoin:round;stroke-miterlimit:4;stroke-dasharray:none;stroke-opacity:1"
     d="m 547.28876,201.21558 -0.002,29.59682"
     id="path14359-1-7-5-3-0-73-1-9-8-5-83"
     inkscape:connector-curvature="0"
     sodipodi:nodetypes="cc" />
  <path
     style="fill:none;stroke:#000000;stroke-width:1;stroke-linecap:round;stroke-linejoin:round;stroke-miterlimit:4;stroke-dasharray:none;stroke-opacity:1"
     d="m 528.51181,197.16734 -0.002,28.70594"
     id="path14359-1-7-5-3-0-73-1-9-8-5-76"
     inkscape:connector-curvature="0"
     sodipodi:nodetypes="cc" />
  <path
     style="fill:none;stroke:#000000;stroke-width:1;stroke-linecap:round;stroke-linejoin:round;stroke-miterlimit:4;stroke-dasharray:none;stroke-opacity:1"
     d="m 532.38779,197.94254 -0.002,28.89095"
     id="path14359-1-7-5-3-0-73-1-9-8-5-81"
     inkscape:connector-curvature="0"
     sodipodi:nodetypes="cc" />
  <path
     style="fill:none;stroke:#000000;stroke-width:1;stroke-linecap:round;stroke-linejoin:round;stroke-miterlimit:4;stroke-dasharray:none;stroke-opacity:1"
     d="m 551.25087,201.90465 -0.002,29.87434"
     id="path14359-1-7-5-3-0-73-1-9-8-5-953"
     inkscape:connector-curvature="0"
     sodipodi:nodetypes="cc" />
  <path
     style="fill:none;stroke:#000000;stroke-width:1;stroke-linecap:round;stroke-linejoin:round;stroke-miterlimit:4;stroke-dasharray:none;stroke-opacity:1"
     d="m 554.69618,202.76597 -0.002,29.82809"
     id="path14359-1-7-5-3-0-73-1-9-8-5-64"
     inkscape:connector-curvature="0"
     sodipodi:nodetypes="cc" />
  <path
     style="fill:none;stroke:#000000;stroke-width:1;stroke-linecap:round;stroke-linejoin:round;stroke-miterlimit:4;stroke-dasharray:none;stroke-opacity:1"
     d="m 558.57215,203.6273 -0.002,30.01311"
     id="path14359-1-7-5-3-0-73-1-9-8-5-91"
     inkscape:connector-curvature="0"
     sodipodi:nodetypes="cc" />
  <path
     style="fill:none;stroke:#000000;stroke-width:1;stroke-linecap:round;stroke-linejoin:round;stroke-miterlimit:4;stroke-dasharray:none;stroke-opacity:1"
     d="m 562.6204,204.57476 -0.002,29.9206"
     id="path14359-1-7-5-3-0-73-1-9-8-5-84"
     inkscape:connector-curvature="0"
     sodipodi:nodetypes="cc" />
  <path
     style="fill:none;stroke:#000000;stroke-width:1;stroke-linecap:round;stroke-linejoin:round;stroke-miterlimit:4;stroke-dasharray:none;stroke-opacity:1"
     d="m 569.85555,206.12515 -0.002,30.01311"
     id="path14359-1-7-5-3-0-73-1-9-8-5-80"
     inkscape:connector-curvature="0"
     sodipodi:nodetypes="cc" />
  <path
     style="fill:none;stroke:#000000;stroke-width:1;stroke-linecap:round;stroke-linejoin:round;stroke-miterlimit:4;stroke-dasharray:none;stroke-opacity:1"
     d="m 566.23797,205.34996 -0.002,30.05936"
     id="path14359-1-7-5-3-0-73-1-9-8-5-58"
     inkscape:connector-curvature="0"
     sodipodi:nodetypes="cc" />
  <path
     style="fill:none;stroke:#000000;stroke-width:1;stroke-linecap:round;stroke-linejoin:round;stroke-miterlimit:4;stroke-dasharray:none;stroke-opacity:1"
     d="m 573.90379,206.81422 -10e-4,20.41251 m -10e-5,1.43391 -5.7e-4,8.76799"
     id="path14359-1-7-5-3-0-73-1-9-8-5-17"
     inkscape:connector-curvature="0"
     sodipodi:nodetypes="cccc" />
  <path
     style="fill:none;stroke:#000000;stroke-width:1;stroke-linecap:round;stroke-linejoin:round;stroke-miterlimit:4;stroke-dasharray:none;stroke-opacity:1"
     d="m 577.3491,207.76168 -10e-4,20.71394 m -3.9e-4,5.92062 -2.4e-4,3.65607"
     id="path14359-1-7-5-3-0-73-1-9-8-5-921"
     inkscape:connector-curvature="0"
     sodipodi:nodetypes="cccc" />
  <path
     style="fill:none;stroke:#000000;stroke-width:1;stroke-linecap:round;stroke-linejoin:round;stroke-miterlimit:4;stroke-dasharray:none;stroke-opacity:1"
     d="m 581.22508,208.53687 -0.002,21.54847"
     id="path14359-1-7-5-3-0-73-1-9-8-5-34"
     inkscape:connector-curvature="0"
     sodipodi:nodetypes="cc" />
  <path
     style="fill:none;stroke:#000000;stroke-width:1;stroke-linecap:round;stroke-linejoin:round;stroke-miterlimit:4;stroke-dasharray:none;stroke-opacity:1"
     d="m 585.35945,209.31207 -0.002,22.38106"
     id="path14359-1-7-5-3-0-73-1-9-8-5-877"
     inkscape:connector-curvature="0"
     sodipodi:nodetypes="cc" />
  <path
     style="fill:none;stroke:#000000;stroke-width:1;stroke-linecap:round;stroke-linejoin:round;stroke-miterlimit:4;stroke-dasharray:none;stroke-opacity:1"
     d="m 589.06316,210.25953 -0.002,22.65858"
     id="path14359-1-7-5-3-0-73-1-9-8-5-74"
     inkscape:connector-curvature="0"
     sodipodi:nodetypes="cc" />
  <path
     style="fill:none;stroke:#000000;stroke-width:1;stroke-linecap:round;stroke-linejoin:round;stroke-miterlimit:4;stroke-dasharray:none;stroke-opacity:1"
     d="m 369.04022,355.98688 -0.0385,-160.113 -135.81874,-35.27929 -8.54977,1.63963 -4.4e-4,31.97327 m -0.001,86.78453 -3.8e-4,27.83486"
     id="path14359-1-7-5-3-0-73-1-9-8-5-36"
     inkscape:connector-curvature="0"
     sodipodi:nodetypes="ccccccc" />
  <path
     style="fill:none;stroke:#000000;stroke-width:1;stroke-linecap:round;stroke-linejoin:round;stroke-miterlimit:4;stroke-dasharray:none;stroke-opacity:1"
     d="m 224.86781,162.39062 135.03711,35.68177 -0.002,160.88106"
     id="path14359-1-7-5-3-0-73-1-9-8-5-761"
     inkscape:connector-curvature="0"
     sodipodi:nodetypes="ccc" />
  <path
     style="fill:none;stroke:#d10000;stroke-width:1;stroke-linecap:round;stroke-linejoin:round;stroke-miterlimit:4;stroke-dasharray:none;stroke-opacity:1"
     d="m 368.80599,196.23776 -9.0201,1.9125"
     id="path14359-1-7-5-3-0-73-1-9-8-5-27"
     inkscape:connector-curvature="0"
     sodipodi:nodetypes="cc" />
  <path
     style="fill:none;stroke:#000000;stroke-width:1;stroke-linecap:round;stroke-linejoin:round;stroke-miterlimit:4;stroke-dasharray:none;stroke-opacity:1"
     d="m 175.79531,324.01363 48.80327,-15.19462 114.10605,57.74711"
     id="path14359-1-7-5-3-0-73-1-9-8-5-11"
     inkscape:connector-curvature="0"
     sodipodi:nodetypes="ccc" />
  <path
     style="fill:none;stroke:#000000;stroke-width:1;stroke-linecap:round;stroke-linejoin:round;stroke-miterlimit:4;stroke-dasharray:none;stroke-opacity:1"
     d="m 222.63037,196.52671 c 6.11987,-6.58742 13.80188,-11.0072 18.39975,-12.70347 h -1e-5 l 94.89966,27.02272 0.073,94.03808 c -18.94429,6.44965 -41.07097,4.77745 -60.09937,-2.44627 l -32.98681,-12.52271 c -9.39643,-3.56715 -28.9356,-9.46217 -29.18756,-31.39935 l -0.45791,-39.86978 c -0.0919,-8.00178 3.22982,-14.92181 7.90864,-20.48003"
     id="path14359-1-7-5-3-0-73-1-9-8-5-16"
     inkscape:connector-curvature="0"
     sodipodi:nodetypes="cccccssssc" />
  <path
     style="fill:none;stroke:#000000;stroke-width:1;stroke-linecap:round;stroke-linejoin:round;stroke-miterlimit:4;stroke-dasharray:none;stroke-opacity:1"
     d="M 517.70111,218.21323 369.24737,264.25537"
     id="path14359-1-7-5-3-0-73-1-9-8-5-956-5"
     inkscape:connector-curvature="0"
     sodipodi:nodetypes="cc" />
  <path
     style="fill:none;stroke:#000000;stroke-width:1;stroke-linecap:round;stroke-linejoin:round;stroke-miterlimit:4;stroke-dasharray:none;stroke-opacity:1"
     d="m 190.13684,154.02148 22.18871,14.64889 12.2011,-3.49011 m 12.69543,-3.63151 86.46094,-25.32024 38.41112,-23.16636"
     id="path14359-1-7-5-3-0-73-1-9-8-5-956-9"
     inkscape:connector-curvature="0"
     sodipodi:nodetypes="cccccc" />
  <path
     style="fill:none;stroke:#000000;stroke-width:1;stroke-linecap:round;stroke-linejoin:round;stroke-miterlimit:4;stroke-dasharray:none;stroke-opacity:1"
     d="m 296.86658,127.11324 26.64184,9.18436"
     id="path14359-1-7-5-3-0-73-1-9-8-5-956-95"
     inkscape:connector-curvature="0"
     sodipodi:nodetypes="cc" />
  <path
     style="fill:none;stroke:#000000;stroke-width:1;stroke-linecap:round;stroke-linejoin:round;stroke-miterlimit:4;stroke-dasharray:none;stroke-opacity:1"
     d="m 384.0382,132.13297 14.67329,12.44252 82.93798,-26.15715"
     id="path14359-1-7-5-3-0-73-1-9-8-5-956-43"
     inkscape:connector-curvature="0"
     sodipodi:nodetypes="ccc" />
  <path
     style="fill:none;stroke:#000000;stroke-width:1;stroke-linecap:round;stroke-linejoin:round;stroke-miterlimit:4;stroke-dasharray:none;stroke-opacity:1"
     d="m 541.41096,109.21906 -10.29134,1.86817 -19.79846,30.16544 -19.86453,-15.68518"
     id="path14359-1-7-5-3-0-73-1-9-8-5-956-7"
     inkscape:connector-curvature="0"
     sodipodi:nodetypes="cccc" />
  <path
     style="fill:none;stroke:#000000;stroke-width:1;stroke-linecap:round;stroke-linejoin:round;stroke-miterlimit:4;stroke-dasharray:none;stroke-opacity:1"
     d="m 506.67346,107.38594 24.47006,3.51664"
     id="path14359-1-7-5-3-0-73-1-9-8-5-956-59"
     inkscape:connector-curvature="0"
     sodipodi:nodetypes="cc" />
  <path
     style="fill:none;stroke:#000000;stroke-width:1;stroke-linecap:butt;stroke-linejoin:miter;stroke-miterlimit:4;stroke-dasharray:none;stroke-opacity:1"
     d="m 541.62001,0.94218741 -0.002,71.33844459"
     id="path14359-1-7-5-3-0-73-1-9-8-5-956"
     inkscape:connector-curvature="0"
     sodipodi:nodetypes="cc" />
  <path
     style="fill:none;stroke:#000000;stroke-width:1;stroke-linecap:butt;stroke-linejoin:miter;stroke-miterlimit:4;stroke-dasharray:none;stroke-opacity:1"
     d="M 233.11136,0.94218741 233.10936,159.01267"
     id="path14359-1-7-5-3-0-73-1-9-8-5-956-8"
     inkscape:connector-curvature="0"
     sodipodi:nodetypes="cc" />
  <path
     style="fill:none;stroke:#000000;stroke-width:1;stroke-linecap:round;stroke-linejoin:round;stroke-miterlimit:4;stroke-dasharray:none;stroke-opacity:1"
     d="m 540.57096,27.558437 -24.05084,10.110913 -0.005,-6.248829 -258.56787,10.425331 0.1106,4.941618 -23.9552,-7.513394 23.89609,-8.928179 0.0542,5.215643 258.46049,-9.881998 0.0281,-5.667174 z"
     id="path14359-1-7-5-3-0-73-1-9-8-5-956-596"
     inkscape:connector-curvature="0"
     sodipodi:nodetypes="ccccccccccc" />
  <text
     xml:space="preserve"
     style="font-style:normal;font-variant:normal;font-weight:normal;font-stretch:normal;line-height:0%;font-family:Arial;-inkscape-font-specification:Arial;text-align:start;letter-spacing:0.08px;word-spacing:0px;text-anchor:start;fill:#000000;fill-opacity:1;stroke:none;stroke-width:1px;stroke-linecap:butt;stroke-linejoin:miter;stroke-opacity:1"
     x="1.1227108"
     y="32.503319"
     id="text8612"><tspan
       sodipodi:role="line"
       id="tspan8614"
       x="1.1227108"
       y="32.503319"
       style="font-size:16.25px;line-height:1.24000001">Headlamp With Mounting</tspan><tspan
       sodipodi:role="line"
       x="1.1227108"
       y="52.65332"
       id="tspan8616"
       style="font-size:16.25px;line-height:1.24000001">Hardware (Backside)</tspan></text>
  <text
     xml:space="preserve"
     style="font-style:normal;font-variant:normal;font-weight:normal;font-stretch:normal;line-height:0%;font-family:Arial;-inkscape-font-specification:Arial;text-align:start;letter-spacing:0.08px;word-spacing:0px;text-anchor:start;fill:#000000;fill-opacity:1;stroke:none;stroke-width:1px;stroke-linecap:butt;stroke-linejoin:miter;stroke-opacity:1"
     x="668.80042"
     y="70.007416"
     id="text8612-1"><tspan
       sodipodi:role="line"
       x="668.80042"
       y="70.007416"
       id="tspan8616-5"
       style="font-size:18.75px;line-height:1.24000001">Target</tspan></text>
  <text
     xml:space="preserve"
     style="font-style:normal;font-variant:normal;font-weight:normal;font-stretch:normal;line-height:0%;font-family:Arial;-inkscape-font-specification:Arial;text-align:start;letter-spacing:0.05px;word-spacing:0px;text-anchor:start;fill:#000000;fill-opacity:1;stroke:none;stroke-width:1px;stroke-linecap:butt;stroke-linejoin:miter;stroke-opacity:1"
     x="435.46939"
     y="411.30316"
     id="text8612-2"><tspan
       sodipodi:role="line"
       x="435.46939"
       y="411.30316"
       id="tspan8616-1"
       style="font-size:16.25px;line-height:1.20000005">2&quot; Urethane Insulation Block Box</tspan><tspan
       sodipodi:role="line"
       x="435.46939"
       y="430.80316"
       id="tspan8664"
       style="font-size:16.25px;line-height:1.20000005">(Inside Dimensions 36&quot; (915 mm) L,</tspan><tspan
       sodipodi:role="line"
       x="435.46939"
       y="450.30316"
       id="tspan8666"
       style="font-size:16.25px;line-height:1.20000005">x 24&quot; (610 mm) W,  x 12&quot; (305 mm) H, minimum)</tspan><tspan
       sodipodi:role="line"
       x="435.46939"
       y="469.80316"
       id="tspan8668"
       style="font-size:16.25px;line-height:1.20000005">(Shown Cut Away With Top Cover Removed)</tspan></text>
  <text
     xml:space="preserve"
     style="font-style:normal;font-variant:normal;font-weight:normal;font-stretch:normal;line-height:0%;font-family:Arial;-inkscape-font-specification:Arial;text-align:start;letter-spacing:0.08px;word-spacing:0px;text-anchor:start;fill:#000000;fill-opacity:1;stroke:none;stroke-width:1px;stroke-linecap:butt;stroke-linejoin:miter;stroke-opacity:1"
     x="410.59409"
     y="79.787994"
     id="text8612-8"
     transform="rotate(-3.5036009)"><tspan
       sodipodi:role="line"
       x="410.59409"
       y="79.787994"
       id="tspan8616-7"
       style="font-size:12.5px;line-height:1.24000001">(762 mm)</tspan></text>
  <text
     xml:space="preserve"
     style="font-style:normal;font-variant:normal;font-weight:normal;font-stretch:normal;line-height:0%;font-family:Arial;-inkscape-font-specification:Arial;text-align:start;letter-spacing:0.08px;word-spacing:0px;text-anchor:start;fill:#000000;fill-opacity:1;stroke:none;stroke-width:1px;stroke-linecap:butt;stroke-linejoin:miter;stroke-opacity:1"
     x="380.03546"
     y="71.425842"
     id="text8612-1-3"
     transform="rotate(-1.8183301)"><tspan
       sodipodi:role="line"
       x="380.03546"
       y="71.425842"
       id="tspan8616-5-8"
       style="font-size:18.75px;line-height:1.24000001">30&quot;</tspan></text>
  <text
     xml:space="preserve"
     style="font-style:normal;font-variant:normal;font-weight:normal;font-stretch:normal;line-height:0%;font-family:Arial;-inkscape-font-specification:Arial;text-align:start;letter-spacing:0.08px;word-spacing:0px;text-anchor:start;fill:#000000;fill-opacity:1;stroke:none;stroke-width:1px;stroke-linecap:butt;stroke-linejoin:miter;stroke-opacity:1"
     x="666.74634"
     y="308.66708"
     id="text8612-1-5"><tspan
       sodipodi:role="line"
       x="666.74634"
       y="308.66708"
       id="tspan8616-5-0"
       style="font-size:18.75px;line-height:1.24000001">Circulating Fan</tspan></text>
  <text
     xml:space="preserve"
     style="font-style:normal;font-variant:normal;font-weight:normal;font-stretch:normal;line-height:0%;font-family:Arial;-inkscape-font-specification:Arial;text-align:start;letter-spacing:0.18000001px;word-spacing:0px;text-anchor:start;fill:#000000;fill-opacity:1;stroke:none;stroke-width:1px;stroke-linecap:butt;stroke-linejoin:miter;stroke-opacity:1"
     x="269.47827"
     y="523.08722"
     id="text8612-1-4"><tspan
       sodipodi:role="line"
       x="269.47827"
       y="523.08722"
       id="tspan8616-5-4"
       style="font-size:22.5px;line-height:1.24000001">DIRT / AMBIENT TEST SETUP</tspan></text>
  <text
     xml:space="preserve"
     style="font-style:normal;font-variant:normal;font-weight:normal;font-stretch:normal;line-height:0%;font-family:Arial;-inkscape-font-specification:Arial;text-align:start;letter-spacing:0.53999996px;word-spacing:0px;text-anchor:start;fill:#000000;fill-opacity:1;stroke:none;stroke-width:1px;stroke-linecap:butt;stroke-linejoin:miter;stroke-opacity:1"
     x="369.6384"
     y="579.09039"
     id="text8612-1-4-4"><tspan
       sodipodi:role="line"
       x="369.6384"
       y="579.09039"
       id="tspan8616-5-4-1"
       style="font-size:25px;line-height:1.24000001">FIGURE 7</tspan></text>
</svg>
