<?xml version="1.0" encoding="UTF-8" standalone="no"?>
<!-- Created with Inkscape (http://www.inkscape.org/) -->

<svg
   xmlns:dc="http://purl.org/dc/elements/1.1/"
   xmlns:cc="http://creativecommons.org/ns#"
   xmlns:rdf="http://www.w3.org/1999/02/22-rdf-syntax-ns#"
   xmlns:svg="http://www.w3.org/2000/svg"
   xmlns="http://www.w3.org/2000/svg"
   xmlns:sodipodi="http://sodipodi.sourceforge.net/DTD/sodipodi-0.dtd"
   xmlns:inkscape="http://www.inkscape.org/namespaces/inkscape"
   id="svg21061"
   version="1.1"
   inkscape:version="0.92.2 5c3e80d, 2017-08-06"
   width="587.51996"
   height="723.83997"
   viewBox="0 0 550.79999 678.59998"
   sodipodi:docname="er07oc97.021.svg">
  <title id="title_er07oc97.021">Figure 14A-2.  Conceptual end view of cassette placement ina potroom roof.</title>
  <desc id="desc_er07oc97.021"></desc>
  <metadata
     id="metadata21067">
    <rdf:RDF>
      <cc:Work
         rdf:about="">
        <dc:format>image/svg+xml</dc:format>
        <dc:type
           rdf:resource="http://purl.org/dc/dcmitype/StillImage" />
        <dc:title></dc:title>
      </cc:Work>
    </rdf:RDF>
  </metadata>
  <defs
     id="defs21065" />
  <sodipodi:namedview
     pagecolor="#ffffff"
     bordercolor="#666666"
     borderopacity="1"
     objecttolerance="10"
     gridtolerance="10"
     guidetolerance="10"
     inkscape:pageopacity="0"
     inkscape:pageshadow="2"
     inkscape:window-width="1280"
     inkscape:window-height="756"
     id="namedview21063"
     showgrid="false"
     inkscape:zoom="1.1096647"
     inkscape:cx="267.90562"
     inkscape:cy="599.05188"
     inkscape:window-x="0"
     inkscape:window-y="23"
     inkscape:window-maximized="0"
     inkscape:current-layer="svg21061" />
  <path
     style="fill:none;stroke:#000000;stroke-width:1;stroke-linecap:butt;stroke-linejoin:miter;stroke-miterlimit:4;stroke-dasharray:none;stroke-opacity:1"
     d="M 537.50546,650.91393 6.6260746,650.91193"
     id="path14359-1-7-5-3-0-73-1-9-8-5"
     inkscape:connector-curvature="0"
     sodipodi:nodetypes="cc" />
  <path
     style="fill:none;stroke:#000000;stroke-width:1;stroke-linecap:butt;stroke-linejoin:miter;stroke-miterlimit:4;stroke-dasharray:none;stroke-opacity:1"
     d="m 6.813749,665.98084 126.825361,-0.003"
     id="path14359-1-7-5-3-0-73-1-9-8-9"
     inkscape:connector-curvature="0"
     sodipodi:nodetypes="cc" />
  <path
     style="fill:none;stroke:#000000;stroke-width:1;stroke-linecap:round;stroke-linejoin:round;stroke-miterlimit:4;stroke-dasharray:none;stroke-opacity:1"
     d="m 12.260457,493.43052 404.941513,-0.003 V 279.43706 l -172.95529,-76.24149 12.57169,-13.05773 v -19.4021 L 239.904,160.68254 h -38.80421 l -15.47693,9.41529 v 20.6502 l 10.83102,12.22609 -174.485139,75.4573 v 214.89816"
     id="path14359-1-7-5-3-0-73-1-9-8-9-0"
     inkscape:connector-curvature="0"
     sodipodi:nodetypes="ccccccccccccc" />
  <path
     style="fill:none;stroke:#000000;stroke-width:2;stroke-linecap:round;stroke-linejoin:round;stroke-miterlimit:4;stroke-dasharray:none;stroke-opacity:1"
     d="m 27.459449,465.05687 -0.0028,-178.81055 c -5.1e-5,-3.2709 2.054484,-5.93091 4.651892,-7.03468 L 204.64561,205.892 c 1.41409,-0.60092 2.07578,-1.72722 3.08895,-1.71541 l 6.02858,0.0703 c 2.47611,0.0289 5.90561,1.34568 6.02329,3.31982 0.07,1.17417 1.05639,2.26491 1.35383,3.31132 l -0.003,8.88577"
     id="path14359-1-7-5-3-0-73-1-9-8-9-0-9-5"
     inkscape:connector-curvature="0"
     sodipodi:nodetypes="csssssscc" />
  <path
     style="color:#000000;display:inline;overflow:visible;visibility:visible;fill:none;fill-rule:evenodd;stroke:#000000;stroke-width:1;stroke-linecap:round;stroke-linejoin:round;stroke-miterlimit:4;stroke-dasharray:none;stroke-dashoffset:0;stroke-opacity:1;marker:none;enable-background:accumulate"
     d="m 234.30208,222.87744 a 12.596159,12.766352 0 0 1 -12.59616,12.76635 12.596159,12.766352 0 0 1 -12.59616,-12.76635 12.596159,12.766352 0 0 1 12.59616,-12.76635 12.596159,12.766352 0 0 1 12.59616,12.76635 z"
     id="path21692"
     inkscape:connector-curvature="0" />
  <path
     style="color:#000000;display:inline;overflow:visible;visibility:visible;fill:none;fill-rule:evenodd;stroke:#000000;stroke-width:1;stroke-linecap:butt;stroke-linejoin:miter;stroke-miterlimit:4;stroke-dasharray:none;stroke-dashoffset:0;stroke-opacity:1;marker:none;enable-background:accumulate"
     d="m 425.88189,40.36037 c 6.43996,9.659363 10.17915,21.1756 10.17915,33.540105 0,1.698488 -0.0706,3.38097 -0.20898,5.044831 m -5.67478,20.943385 c -10.10428,21.139729 -32.15424,35.799069 -57.72925,35.799069 -35.1325,0 -63.61301,-27.66311 -63.61301,-61.787285 0,-34.124174 28.48052,-61.787279 63.61301,-61.787281 13.74613,-10e-7 26.47392,4.234908 36.87588,11.434759"
     id="path21695"
     inkscape:connector-curvature="0"
     sodipodi:nodetypes="csccsssc" />
  <path
     style="fill:none;stroke:#000000;stroke-width:1;stroke-linecap:round;stroke-linejoin:round;stroke-miterlimit:4;stroke-dasharray:none;stroke-opacity:1"
     d="m 357.17235,86.384396 h -1.18134 l 0.002,-47.848872 h 33.83655 l -0.002,47.848872 h -1.41541 v -4.013173 c 0,-0.602481 -0.38922,-1.166609 -1.19632,-1.166609 H 374.1279 c 0,-1.498678 -2.55701,-1.534626 -2.61603,0 h -13.09645 c -0.70291,0 -1.24307,0.547179 -1.24307,1.166609 z"
     id="path14359-1-7-5-3-0-73-1-9-8-5-04"
     inkscape:connector-curvature="0"
     sodipodi:nodetypes="ccccccssccssc" />
  <path
     style="fill:none;stroke:#000000;stroke-width:1;stroke-linecap:round;stroke-linejoin:round;stroke-miterlimit:4;stroke-dasharray:none;stroke-opacity:1"
     d="M 371.93609,80.285468 H 358.2893 l 0.002,-34.991685 h 12.33677 c 0.64864,0 1.20196,-0.306809 1.20196,-0.813091 V 43.066621 L 371.123,42.324233 h -1.44943 l -0.74238,0.742388 h -12.97411 m 33.69025,0 h -12.79734 l -0.81309,-0.742388 h -1.48478 l -0.63633,0.742388 v 1.414071 c 0,0.478485 0.41619,0.813091 1.06055,0.813091 h 12.51553 l -0.002,34.991685 h -13.64479"
     id="path14359-1-7-5-3-0-73-1-9-8-5-0"
     inkscape:connector-curvature="0"
     sodipodi:nodetypes="cccssccccccccccssccc" />
  <path
     style="fill:none;stroke:#000000;stroke-width:1;stroke-linecap:round;stroke-linejoin:round;stroke-miterlimit:4;stroke-dasharray:none;stroke-opacity:1"
     d="m 371.88635,43.362822 1.90242,0.002"
     id="path14359-1-7-5-3-0-73-1-9-8-5-4"
     inkscape:connector-curvature="0"
     sodipodi:nodetypes="cc" />
  <path
     style="fill:none;stroke:#000000;stroke-width:2;stroke-linecap:butt;stroke-linejoin:round;stroke-miterlimit:4;stroke-dasharray:none;stroke-opacity:1"
     d="m 388.83524,38.612297 -0.002,4.377042"
     id="path14359-1-7-5-3-0-73-1-9-8-5-6"
     inkscape:connector-curvature="0"
     sodipodi:nodetypes="cc" />
  <path
     style="fill:none;stroke:#000000;stroke-width:2;stroke-linecap:butt;stroke-linejoin:round;stroke-miterlimit:4;stroke-dasharray:none;stroke-opacity:1"
     d="m 356.70047,38.612297 -0.002,4.377042"
     id="path14359-1-7-5-3-0-73-1-9-8-5-8"
     inkscape:connector-curvature="0"
     sodipodi:nodetypes="cc" />
  <path
     style="fill:none;stroke:#000000;stroke-width:2;stroke-linecap:round;stroke-linejoin:round;stroke-miterlimit:4;stroke-dasharray:none;stroke-opacity:1"
     d="m 357.85169,63.407282 31.3858,0.002"
     id="path14359-1-7-5-3-0-73-1-9-8-5-1"
     inkscape:connector-curvature="0"
     sodipodi:nodetypes="cc" />
  <path
     style="fill:none;stroke:#000000;stroke-width:2;stroke-linecap:round;stroke-linejoin:round;stroke-miterlimit:4;stroke-dasharray:none;stroke-opacity:1"
     d="m 357.85169,70.7251 31.3858,0.002"
     id="path14359-1-7-5-3-0-73-1-9-8-5-13"
     inkscape:connector-curvature="0"
     sodipodi:nodetypes="cc" />
  <path
     style="fill:none;stroke:#000000;stroke-width:2;stroke-linecap:round;stroke-linejoin:round;stroke-miterlimit:4;stroke-dasharray:none;stroke-opacity:1"
     d="m 357.85169,54.286522 31.3858,0.002"
     id="path14359-1-7-5-3-0-73-1-9-8-5-46"
     inkscape:connector-curvature="0"
     sodipodi:nodetypes="cc" />
  <path
     style="fill:none;stroke:#000000;stroke-width:1;stroke-linecap:round;stroke-linejoin:round;stroke-miterlimit:4;stroke-dasharray:none;stroke-opacity:1"
     d="m 143.0275,295.99942 91.55896,-0.002 -7.34654,-61.55961"
     id="path14359-1-7-5-3-0-73-1-9-8-9-0-9"
     inkscape:connector-curvature="0"
     sodipodi:nodetypes="ccc" />
  <path
     style="fill:none;stroke:#000000;stroke-width:1;stroke-linecap:round;stroke-linejoin:round;stroke-miterlimit:4;stroke-dasharray:none;stroke-opacity:1"
     d="m 234.35954,221.953 57.32385,-20.7707 16.42875,-25.0461 m 15.98293,-24.36646 16.01953,-24.42223"
     id="path14359-1-7-5-3-0-73-1-9-8-9-0-9-0"
     inkscape:connector-curvature="0"
     sodipodi:nodetypes="ccccc" />
  <path
     style="fill:none;stroke:#000000;stroke-width:1;stroke-linecap:round;stroke-linejoin:round;stroke-miterlimit:4;stroke-dasharray:none;stroke-opacity:1"
     d="m 517.03484,171.38476 -256.78112,0.003"
     id="path14359-1-7-5-3-0-73-1-9-8-9-0-9-2"
     inkscape:connector-curvature="0"
     sodipodi:nodetypes="cc" />
  <path
     style="fill:none;stroke:#000000;stroke-width:1;stroke-linecap:round;stroke-linejoin:round;stroke-miterlimit:4;stroke-dasharray:none;stroke-opacity:1"
     d="m 374.49164,42.254603 -7.5e-4,-0.955635 1.90342,-0.809161 -0.002,-1.715971"
     id="path14359-1-7-5-3-0-73-1-9-8-9-0-9-6"
     inkscape:connector-curvature="0"
     sodipodi:nodetypes="cccc" />
  <path
     style="fill:none;stroke:#000000;stroke-width:1;stroke-linecap:round;stroke-linejoin:round;stroke-miterlimit:4;stroke-dasharray:none;stroke-opacity:1"
     d="m 371.43279,42.254603 -7.5e-4,-0.955635 -1.90493,-0.809161 -0.002,-1.715971"
     id="path14359-1-7-5-3-0-73-1-9-8-9-0-9-59"
     inkscape:connector-curvature="0"
     sodipodi:nodetypes="cccc" />
  <path
     style="fill:none;stroke:#000000;stroke-width:1;stroke-linecap:round;stroke-linejoin:round;stroke-miterlimit:4;stroke-dasharray:none;stroke-opacity:1"
     d="m 371.63476,80.837743 -0.002,29.271257 c -1.4e-4,1.9868 2.2814,1.97888 2.28153,0 l 0.002,-29.501781"
     id="path14359-1-7-5-3-0-73-1-9-8-5-7"
     inkscape:connector-curvature="0"
     sodipodi:nodetypes="cssc" />
  <path
     style="fill:none;stroke:#000000;stroke-width:1;stroke-linecap:round;stroke-linejoin:round;stroke-miterlimit:4;stroke-dasharray:none;stroke-opacity:1"
     d="m 369.45297,81.048646 -10e-4,2.186553 2.18947,0.05592 -2.5e-4,1.795306 c -0.0274,-1.095226 -3.13211,-1.252527 -3.03535,0.01398 l 1.92091,25.141015 c 0.0656,0.8587 0.44391,1.57525 1.38413,1.57525 h 1.99787 c 0.8523,0 1.213,-0.79178 1.26688,-1.57525 l 1.72905,-25.141014 c 0.0867,-1.260579 -2.98339,-1.107047 -2.99668,-0.01398 l 2.5e-4,-1.795306 2.03679,-0.05592 10e-4,-2.186553"
     id="path14359-1-7-5-3-0-73-1-9-8-5-69"
     inkscape:connector-curvature="0"
     sodipodi:nodetypes="ccccsssssscccc" />
  <path
     style="fill:none;stroke:#000000;stroke-width:1;stroke-linecap:round;stroke-linejoin:round;stroke-miterlimit:4;stroke-dasharray:none;stroke-opacity:1"
     d="m 389.79842,71.469895 5.34852,2.792373 -0.53605,1.988408 16.50713,15.235914 h 50.05899"
     id="path14359-1-7-5-3-0-73-1-9-8-5-9"
     inkscape:connector-curvature="0"
     sodipodi:nodetypes="ccccc" />
  <path
     style="fill:none;stroke:#000000;stroke-width:1;stroke-linecap:round;stroke-linejoin:round;stroke-miterlimit:4;stroke-dasharray:none;stroke-opacity:1"
     d="m 351.00925,34.515351 40.87266,0.002"
     id="path14359-1-7-5-3-0-73-1-9-8-5-14"
     inkscape:connector-curvature="0"
     sodipodi:nodetypes="cc" />
  <path
     style="fill:none;stroke:#000000;stroke-width:1;stroke-linecap:round;stroke-linejoin:round;stroke-miterlimit:4;stroke-dasharray:none;stroke-opacity:1"
     d="m 389.79842,54.95829 4.89518,-2.77279 1.88903,0.782022 15.48013,-6.000945"
     id="path14359-1-7-5-3-0-73-1-9-8-5-3"
     inkscape:connector-curvature="0"
     sodipodi:nodetypes="cccc" />
  <path
     style="fill:none;stroke:#000000;stroke-width:1;stroke-linecap:round;stroke-linejoin:round;stroke-miterlimit:4;stroke-dasharray:none;stroke-opacity:1"
     d="m 389.79842,62.427825 4.28292,-3.585363 1.50892,0.52862 16.54256,-12.498302 6.16665,-23.156229 79.33534,0.972464"
     id="path14359-1-7-5-3-0-73-1-9-8-5-67"
     inkscape:connector-curvature="0"
     sodipodi:nodetypes="cccccc" />
  <text
     xml:space="preserve"
     style="font-style:normal;font-variant:normal;font-weight:normal;font-stretch:normal;line-height:0%;font-family:Arial;-inkscape-font-specification:Arial;text-align:start;letter-spacing:2.1400001px;word-spacing:7.17000198px;text-anchor:start;fill:#000000;fill-opacity:1;stroke:none;stroke-width:1px;stroke-linecap:butt;stroke-linejoin:miter;stroke-opacity:1"
     x="261.39355"
     y="167.04155"
     id="text21902"><tspan
       sodipodi:role="line"
       id="tspan21904"
       x="261.39355"
       y="167.04155"
       style="font-size:12.5px;line-height:1.29999995">ENLARGED CASSETTE DETAIL</tspan></text>
  <path
     style="fill:none;stroke:#000000;stroke-width:1;stroke-linecap:round;stroke-linejoin:round;stroke-miterlimit:4;stroke-dasharray:none;stroke-opacity:1"
     d="m 354.02758,126.56501 35.12774,0.002"
     id="path14359-1-7-5-3-0-73-1-9-8-5-14-5"
     inkscape:connector-curvature="0"
     sodipodi:nodetypes="cc" />
  <path
     style="fill:none;stroke:#000000;stroke-width:1;stroke-linecap:round;stroke-linejoin:round;stroke-miterlimit:4;stroke-dasharray:none;stroke-opacity:1"
     d="m 219.14775,226.79135 h -0.17214 l 3e-4,-6.79243 h 4.93046 l -3e-4,6.79243 h -0.20624 v -0.56969 c 0,-0.0855 -0.0567,-0.1656 -0.17432,-0.1656 h -1.9071 c 0,-0.21275 -0.37258,-0.21786 -0.38119,0 h -1.90834 c -0.10242,0 -0.18113,0.0777 -0.18113,0.1656 z"
     id="path14359-1-7-5-3-0-73-1-9-8-5-04-5"
     inkscape:connector-curvature="0"
     sodipodi:nodetypes="ccccccssccssc" />
  <path
     style="fill:none;stroke:#000000;stroke-width:1;stroke-linecap:round;stroke-linejoin:round;stroke-miterlimit:4;stroke-dasharray:none;stroke-opacity:1"
     d="m 221.29904,225.92558 h -1.98854 l 2.9e-4,-4.96729 h 1.79764 c 0.0945,0 0.17515,-0.0435 0.17515,-0.11542 v -0.20074 l -0.10303,-0.10538 h -0.2112 l -0.10817,0.10538 h -1.89051 m 4.90915,0 h -1.86476 l -0.11847,-0.10538 h -0.21636 l -0.0927,0.10538 v 0.20074 c 0,0.0679 0.0606,0.11542 0.15453,0.11542 h 1.8237 l -3e-4,4.96729 h -1.98824"
     id="path14359-1-7-5-3-0-73-1-9-8-5-0-3"
     inkscape:connector-curvature="0"
     sodipodi:nodetypes="cccssccccccccccssccc" />
  <path
     style="fill:none;stroke:#000000;stroke-width:1;stroke-linecap:round;stroke-linejoin:round;stroke-miterlimit:4;stroke-dasharray:none;stroke-opacity:1"
     d="m 221.29179,220.68419 0.2772,2.7e-4"
     id="path14359-1-7-5-3-0-73-1-9-8-5-4-1"
     inkscape:connector-curvature="0"
     sodipodi:nodetypes="cc" />
  <path
     style="fill:none;stroke:#000000;stroke-width:1;stroke-linecap:butt;stroke-linejoin:round;stroke-miterlimit:4;stroke-dasharray:none;stroke-opacity:1"
     d="m 223.76148,220.00981 -2.8e-4,0.62135"
     id="path14359-1-7-5-3-0-73-1-9-8-5-6-2"
     inkscape:connector-curvature="0"
     sodipodi:nodetypes="cc" />
  <path
     style="fill:none;stroke:#000000;stroke-width:1;stroke-linecap:butt;stroke-linejoin:round;stroke-miterlimit:4;stroke-dasharray:none;stroke-opacity:1"
     d="m 219.07899,220.00981 -2.9e-4,0.62135"
     id="path14359-1-7-5-3-0-73-1-9-8-5-8-2"
     inkscape:connector-curvature="0"
     sodipodi:nodetypes="cc" />
  <path
     style="fill:none;stroke:#000000;stroke-width:1;stroke-linecap:round;stroke-linejoin:round;stroke-miterlimit:4;stroke-dasharray:none;stroke-opacity:1"
     d="m 219.24674,223.52962 4.57336,2.8e-4"
     id="path14359-1-7-5-3-0-73-1-9-8-5-1-4"
     inkscape:connector-curvature="0"
     sodipodi:nodetypes="cc" />
  <path
     style="fill:none;stroke:#000000;stroke-width:1;stroke-linecap:round;stroke-linejoin:round;stroke-miterlimit:4;stroke-dasharray:none;stroke-opacity:1"
     d="m 219.24674,224.56842 4.57336,2.8e-4"
     id="path14359-1-7-5-3-0-73-1-9-8-5-13-9"
     inkscape:connector-curvature="0"
     sodipodi:nodetypes="cc" />
  <path
     style="fill:none;stroke:#000000;stroke-width:1;stroke-linecap:round;stroke-linejoin:round;stroke-miterlimit:4;stroke-dasharray:none;stroke-opacity:1"
     d="m 219.24674,222.23487 4.57336,2.9e-4"
     id="path14359-1-7-5-3-0-73-1-9-8-5-46-6"
     inkscape:connector-curvature="0"
     sodipodi:nodetypes="cc" />
  <path
     style="fill:none;stroke:#000000;stroke-width:1;stroke-linecap:round;stroke-linejoin:round;stroke-miterlimit:4;stroke-dasharray:none;stroke-opacity:1"
     d="m 221.67142,220.52686 -1.2e-4,-0.13565 0.27736,-0.11487 -2.9e-4,-0.2436"
     id="path14359-1-7-5-3-0-73-1-9-8-9-0-9-6-7"
     inkscape:connector-curvature="0"
     sodipodi:nodetypes="cccc" />
  <path
     style="fill:none;stroke:#000000;stroke-width:1;stroke-linecap:round;stroke-linejoin:round;stroke-miterlimit:4;stroke-dasharray:none;stroke-opacity:1"
     d="m 221.2257,220.52686 -1.1e-4,-0.13565 -0.27758,-0.11487 -2.9e-4,-0.2436"
     id="path14359-1-7-5-3-0-73-1-9-8-9-0-9-59-7"
     inkscape:connector-curvature="0"
     sodipodi:nodetypes="cccc" />
  <path
     style="fill:none;stroke:#000000;stroke-width:1;stroke-linecap:round;stroke-linejoin:round;stroke-miterlimit:4;stroke-dasharray:none;stroke-opacity:1"
     d="m 221.25513,226.00397 -3e-4,4.15523 c -2e-5,0.28204 0.33244,0.28092 0.33246,0 l 2.8e-4,-4.18795"
     id="path14359-1-7-5-3-0-73-1-9-8-5-7-7"
     inkscape:connector-curvature="0"
     sodipodi:nodetypes="cssc" />
  <path
     style="fill:none;stroke:#000000;stroke-width:1;stroke-linecap:round;stroke-linejoin:round;stroke-miterlimit:4;stroke-dasharray:none;stroke-opacity:1"
     d="m 220.93721,226.03391 -1.5e-4,0.31039 0.31904,0.008 -4e-5,0.25485 c -0.004,-0.15546 -0.45639,-0.1778 -0.44229,0.002 l 0.2799,3.56893 c 0.01,0.12189 0.0647,0.22361 0.20169,0.22361 h 0.29112 c 0.12419,0 0.17675,-0.1124 0.1846,-0.22361 l 0.25195,-3.56893 c 0.0126,-0.17894 -0.43472,-0.15715 -0.43666,-0.002 l 4e-5,-0.25485 0.29679,-0.008 1.4e-4,-0.31039"
     id="path14359-1-7-5-3-0-73-1-9-8-5-69-1"
     inkscape:connector-curvature="0"
     sodipodi:nodetypes="ccccsssssscccc" />
  <text
     xml:space="preserve"
     style="font-style:normal;font-variant:normal;font-weight:normal;font-stretch:normal;line-height:0%;font-family:Arial;-inkscape-font-specification:Arial;text-align:center;letter-spacing:2.1400001px;word-spacing:7.17000198px;text-anchor:middle;fill:#000000;fill-opacity:1;stroke:none;stroke-width:1px;stroke-linecap:butt;stroke-linejoin:miter;stroke-opacity:1"
     x="184.86171"
     y="293.81912"
     id="text21902-5"><tspan
       sodipodi:role="line"
       id="tspan21904-5"
       x="185.93172"
       y="293.81912"
       style="font-size:12.5px;line-height:1.42999995">CENTERED</tspan><tspan
       sodipodi:role="line"
       x="185.93172"
       y="311.69412"
       id="tspan21987"
       style="font-size:12.5px;line-height:1.42999995">CASSETTE</tspan></text>
  <text
     xml:space="preserve"
     style="font-style:normal;font-variant:normal;font-weight:normal;font-stretch:normal;line-height:0%;font-family:Arial;-inkscape-font-specification:Arial;text-align:center;letter-spacing:1.36000001px;word-spacing:0px;text-anchor:middle;fill:#000000;fill-opacity:1;stroke:none;stroke-width:1px;stroke-linecap:butt;stroke-linejoin:miter;stroke-opacity:1"
     x="459.70682"
     y="21.08544"
     id="text21902-4"><tspan
       sodipodi:role="line"
       id="tspan21904-9"
       x="460.38681"
       y="21.08544"
       style="font-size:8.75px;line-height:1.54999995">5.0 MICRON</tspan><tspan
       sodipodi:role="line"
       x="460.38681"
       y="34.647938"
       id="tspan21997"
       style="font-size:8.75px;line-height:1.54999995">IMPREGNATED</tspan><tspan
       sodipodi:role="line"
       x="460.38681"
       y="48.210438"
       id="tspan21999"
       style="font-size:8.75px;line-height:1.54999995">FILTER</tspan></text>
  <text
     xml:space="preserve"
     style="font-style:normal;font-variant:normal;font-weight:normal;font-stretch:normal;line-height:0%;font-family:Arial;-inkscape-font-specification:Arial;text-align:center;letter-spacing:1.36000001px;word-spacing:0px;text-anchor:middle;fill:#000000;fill-opacity:1;stroke:none;stroke-width:1px;stroke-linecap:butt;stroke-linejoin:miter;stroke-opacity:1"
     x="371.46927"
     y="32.481522"
     id="text21902-4-8"><tspan
       sodipodi:role="line"
       x="372.14926"
       y="32.481522"
       id="tspan21999-4"
       style="font-size:8.75px;line-height:1.54999995">OUTLET</tspan></text>
  <text
     xml:space="preserve"
     style="font-style:normal;font-variant:normal;font-weight:normal;font-stretch:normal;line-height:0%;font-family:Arial;-inkscape-font-specification:Arial;text-align:center;letter-spacing:1.36000001px;word-spacing:0px;text-anchor:middle;fill:#000000;fill-opacity:1;stroke:none;stroke-width:1px;stroke-linecap:butt;stroke-linejoin:miter;stroke-opacity:1"
     x="371.7634"
     y="124.25756"
     id="text21902-4-8-6"><tspan
       sodipodi:role="line"
       x="372.44339"
       y="124.25756"
       id="tspan21999-4-0"
       style="font-size:8.75px;line-height:1.54999995">INLET</tspan></text>
  <text
     xml:space="preserve"
     style="font-style:normal;font-variant:normal;font-weight:normal;font-stretch:normal;line-height:0%;font-family:Arial;-inkscape-font-specification:Arial;text-align:center;letter-spacing:1.36000001px;word-spacing:0px;text-anchor:middle;fill:#000000;fill-opacity:1;stroke:none;stroke-width:1px;stroke-linecap:butt;stroke-linejoin:miter;stroke-opacity:1"
     x="453.31104"
     y="89.81073"
     id="text21902-4-8-4"><tspan
       sodipodi:role="line"
       x="453.99103"
       y="89.81073"
       id="tspan21999-4-3"
       style="font-size:8.75px;line-height:1.54999995">8.0 MICRON</tspan><tspan
       sodipodi:role="line"
       x="453.99103"
       y="103.37323"
       id="tspan22064"
       style="font-size:8.75px;line-height:1.54999995">FILTER</tspan></text>
  <text
     xml:space="preserve"
     style="font-style:normal;font-variant:normal;font-weight:normal;font-stretch:normal;line-height:0%;font-family:Arial;-inkscape-font-specification:Arial;text-align:start;letter-spacing:3.28999996px;word-spacing:0px;text-anchor:start;fill:#000000;fill-opacity:1;stroke:none;stroke-width:1px;stroke-linecap:butt;stroke-linejoin:miter;stroke-opacity:1"
     x="8.0911779"
     y="649.99133"
     id="text21902-4-8-61"><tspan
       sodipodi:role="line"
       x="8.0911779"
       y="649.99133"
       id="tspan21999-4-00"
       style="font-size:12.5px;line-height:1.15999997">Figure 14A-2.  Conceptual end view of cassette placement in</tspan><tspan
       sodipodi:role="line"
       x="8.0911779"
       y="664.49133"
       id="tspan22074"
       style="font-size:12.5px;line-height:1.15999997">a potroom roof.</tspan></text>
</svg>
