<?xml version="1.0" encoding="UTF-8" standalone="no"?>
<!-- Created with Inkscape (http://www.inkscape.org/) -->

<svg
   xmlns:dc="http://purl.org/dc/elements/1.1/"
   xmlns:cc="http://creativecommons.org/ns#"
   xmlns:rdf="http://www.w3.org/1999/02/22-rdf-syntax-ns#"
   xmlns:svg="http://www.w3.org/2000/svg"
   xmlns="http://www.w3.org/2000/svg"
   xmlns:sodipodi="http://sodipodi.sourceforge.net/DTD/sodipodi-0.dtd"
   xmlns:inkscape="http://www.inkscape.org/namespaces/inkscape"
   id="svg33212"
   version="1.1"
   inkscape:version="0.48.2 r9819"
   width="412"
   height="252"
   viewBox="0 0 412 252"
   sodipodi:docname="er09mr04.023.svg">
  <metadata
     id="metadata33218">
    <rdf:RDF>
      <cc:Work
         rdf:about="">
        <dc:format>image/svg+xml</dc:format>
        <dc:type
           rdf:resource="http://purl.org/dc/dcmitype/StillImage" />
        <dc:title></dc:title>
      </cc:Work>
    </rdf:RDF>
  </metadata>
  <defs
     id="defs33216" />
  <sodipodi:namedview
     pagecolor="#ffffff"
     bordercolor="#666666"
     borderopacity="1"
     objecttolerance="10"
     gridtolerance="10"
     guidetolerance="10"
     inkscape:pageopacity="0"
     inkscape:pageshadow="2"
     inkscape:window-width="1280"
     inkscape:window-height="676"
     id="namedview33214"
     showgrid="false"
     inkscape:zoom="1.2674718"
     inkscape:cx="177.08433"
     inkscape:cy="126"
     inkscape:window-x="8"
     inkscape:window-y="0"
     inkscape:window-maximized="0"
     inkscape:current-layer="svg33212" />
  <path
     style="fill:#afafaf;fill-opacity:1;stroke:#000000;stroke-opacity:1"
     d="m 80.821875,190.51664 -0.0766,-15.45521 2.10945,-0.84251 -1.390093,-1.56801 -0.749505,-2.06294 0.85438,-2.79293 2.667706,-1.09495 2.683092,0.97558 1.166942,2.68854 -1.031035,2.5381 -1.843154,1.28859 1.432164,0.95173 0.0427,12.25322 5.574495,-0.2302 2.046192,0.41025 1.31375,1.97845 4.496111,10.36359 -0.299022,1.17754 -1.362336,0.7634 -1.701331,-0.92675 -4.210347,-10.43526 z"
     id="path7965-0-6-7-8-8"
     inkscape:connector-curvature="0"
     sodipodi:nodetypes="cccccccccccccccccccccc" />
  <path
     style="fill:#afafaf;fill-opacity:1;stroke:#000000;stroke-opacity:1"
     d="m 55.466318,190.66902 -0.0766,-15.45521 2.10945,-0.84251 -1.390093,-1.56801 -0.749505,-2.06294 0.85438,-2.79293 2.667706,-1.09495 2.683092,0.97558 1.166942,2.68854 -1.031035,2.5381 -1.843154,1.28859 1.432164,0.95173 0.0427,12.25322 5.574495,-0.2302 2.046192,0.41025 1.31375,1.97845 4.496106,10.36359 -0.299017,1.17754 -1.362336,0.7634 -1.701331,-0.92675 -4.210347,-10.43526 z"
     id="path7965-0-6-7-8"
     inkscape:connector-curvature="0"
     sodipodi:nodetypes="cccccccccccccccccccccc" />
  <path
     style="fill:none;stroke:#000000;stroke-width:1;stroke-linecap:butt;stroke-linejoin:miter;stroke-miterlimit:4;stroke-dasharray:none;stroke-opacity:1"
     d="m 109.40049,223.22906 0.002,-70.80267 m -65.981449,0 277.760609,0 -0.002,70.80267 -277.760609,0 z"
     id="path14359-1-7-5-3-0-73-1-9"
     inkscape:connector-curvature="0"
     sodipodi:nodetypes="ccccccc" />
  <path
     style="color:#000000;display:inline;overflow:visible;visibility:visible;fill:none;fill-rule:evenodd;stroke:#000000;stroke-width:1;stroke-linecap:butt;stroke-linejoin:miter;stroke-miterlimit:4;stroke-dasharray:none;stroke-dashoffset:0;stroke-opacity:1;marker:none;enable-background:accumulate"
     d="m 62.695303,170.55758 c 10e-7,2.0368 -1.651155,3.68796 -3.687959,3.68796 -2.036804,0 -3.687959,-1.65116 -3.687959,-3.68796 0,-2.03681 1.651155,-3.68796 3.687959,-3.68796 2.036804,0 3.68796,1.65115 3.687959,3.68796 z"
     id="path33783"
     inkscape:connector-curvature="0"
     sodipodi:nodetypes="sssss" />
  <path
     style="color:#000000;display:inline;overflow:visible;visibility:visible;fill:none;fill-rule:evenodd;stroke:#000000;stroke-width:1;stroke-linecap:butt;stroke-linejoin:round;stroke-miterlimit:4;stroke-dasharray:none;stroke-dashoffset:0;stroke-opacity:1;marker:none;enable-background:accumulate"
     d="m 50.78627,191.14867 -1.69604,0 0,-21.05209 c 0,-1.70051 1.609022,-3.69369 3.079024,-3.69369 1.470001,0 3.079024,1.99318 3.079024,3.69369 l 0,20.51426"
     id="path33783-1"
     inkscape:connector-curvature="0"
     sodipodi:nodetypes="ccsssc" />
  <path
     style="color:#000000;display:inline;overflow:visible;visibility:visible;fill:none;fill-rule:evenodd;stroke:#000000;stroke-width:1;stroke-linecap:butt;stroke-linejoin:miter;stroke-miterlimit:4;stroke-dasharray:none;stroke-dashoffset:0;stroke-opacity:1;marker:none;enable-background:accumulate"
     d="m 68.679238,194.83392 c -0.140047,0.46485 -0.343313,0.77332 -0.605661,0.77332 l -16.595815,0 c -1.204419,0 -1.259428,-5.0755 0,-5.0755 l 15.596993,0"
     id="path33783-6"
     inkscape:connector-curvature="0"
     sodipodi:nodetypes="csssc" />
  <path
     style="color:#000000;display:inline;overflow:visible;visibility:visible;fill:none;fill-rule:evenodd;stroke:#000000;stroke-width:1;stroke-linecap:butt;stroke-linejoin:miter;stroke-miterlimit:4;stroke-dasharray:none;stroke-dashoffset:0;stroke-opacity:1;marker:none;enable-background:accumulate"
     d="m 55.404572,190.46272 0,-15.05917 c 0,-1.20442 5.843825,-1.25943 5.843825,0 l 0,14.98233"
     id="path33783-6-3"
     inkscape:connector-curvature="0"
     sodipodi:nodetypes="cssc" />
  <path
     style="color:#000000;display:inline;overflow:visible;visibility:visible;fill:none;fill-rule:evenodd;stroke:#000000;stroke-width:1;stroke-linecap:butt;stroke-linejoin:round;stroke-miterlimit:4;stroke-dasharray:none;stroke-dashoffset:0;stroke-opacity:1;marker:none;enable-background:accumulate"
     d="m 70.071222,189.53747 c -0.558242,0.85555 -1.648419,1.41555 -2.996467,0.92199 l -9.280564,0 c -2.203241,0 -2.104585,-3.07786 0,-3.07786 l 9.434229,0 c 1.465948,0 2.369692,0.78304 2.919635,2.07448 l 4.318784,10.14189 c 1.178496,2.76749 -2.556607,2.62891 -2.996467,1.5412 l -4.470719,-10.80528 c -0.65058,-0.75208 -0.682712,-2.50298 0.228767,-2.94773"
     id="path33783-6-6"
     inkscape:connector-curvature="0"
     sodipodi:nodetypes="ccsssssscc" />
  <path
     style="color:#000000;display:inline;overflow:visible;visibility:visible;fill:none;fill-rule:evenodd;stroke:#000000;stroke-width:1;stroke-linecap:butt;stroke-linejoin:miter;stroke-miterlimit:4;stroke-dasharray:none;stroke-dashoffset:0;stroke-opacity:1;marker:none;enable-background:accumulate"
     d="m 88.085251,170.42679 c 10e-7,2.0368 -1.651155,3.68796 -3.687959,3.68796 -2.036804,0 -3.687959,-1.65116 -3.687959,-3.68796 0,-2.03681 1.651155,-3.68796 3.687959,-3.68796 2.036804,0 3.68796,1.65115 3.687959,3.68796 z"
     id="path33783-7"
     inkscape:connector-curvature="0"
     sodipodi:nodetypes="sssss" />
  <path
     style="color:#000000;display:inline;overflow:visible;visibility:visible;fill:none;fill-rule:evenodd;stroke:#000000;stroke-width:1;stroke-linecap:butt;stroke-linejoin:round;stroke-miterlimit:4;stroke-dasharray:none;stroke-dashoffset:0;stroke-opacity:1;marker:none;enable-background:accumulate"
     d="m 76.176218,191.01788 -1.69604,0 0,-21.05209 c 0,-1.70051 1.609022,-3.69369 3.079024,-3.69369 1.470001,0 3.079024,1.99318 3.079024,3.69369 l 0,20.51426"
     id="path33783-1-7"
     inkscape:connector-curvature="0"
     sodipodi:nodetypes="ccsssc" />
  <path
     style="color:#000000;display:inline;overflow:visible;visibility:visible;fill:none;fill-rule:evenodd;stroke:#000000;stroke-width:1;stroke-linecap:butt;stroke-linejoin:miter;stroke-miterlimit:4;stroke-dasharray:none;stroke-dashoffset:0;stroke-opacity:1;marker:none;enable-background:accumulate"
     d="m 94.069186,194.70313 c -0.140047,0.46485 -0.343313,0.77332 -0.605661,0.77332 l -16.595815,0 c -1.204419,0 -1.259428,-5.0755 0,-5.0755 l 15.596993,0"
     id="path33783-6-5"
     inkscape:connector-curvature="0"
     sodipodi:nodetypes="csssc" />
  <path
     style="color:#000000;display:inline;overflow:visible;visibility:visible;fill:none;fill-rule:evenodd;stroke:#000000;stroke-width:1;stroke-linecap:butt;stroke-linejoin:miter;stroke-miterlimit:4;stroke-dasharray:none;stroke-dashoffset:0;stroke-opacity:1;marker:none;enable-background:accumulate"
     d="m 80.79452,190.33193 0,-15.05917 c 0,-1.20442 5.843825,-1.25943 5.843825,0 l 0,14.98233"
     id="path33783-6-3-1"
     inkscape:connector-curvature="0"
     sodipodi:nodetypes="cssc" />
  <path
     style="color:#000000;display:inline;overflow:visible;visibility:visible;fill:none;fill-rule:evenodd;stroke:#000000;stroke-width:1;stroke-linecap:butt;stroke-linejoin:round;stroke-miterlimit:4;stroke-dasharray:none;stroke-dashoffset:0;stroke-opacity:1;marker:none;enable-background:accumulate"
     d="m 95.46117,189.40668 c -0.558242,0.85555 -1.648419,1.41555 -2.996467,0.92199 l -9.280564,0 c -2.203241,0 -2.104585,-3.07786 0,-3.07786 l 9.434229,0 c 1.465948,0 2.369692,0.78304 2.919635,2.07448 l 4.318784,10.14189 c 1.178493,2.76749 -2.556607,2.62891 -2.996467,1.5412 L 92.389601,190.2031 c -0.65058,-0.75208 -0.682712,-2.50298 0.228767,-2.94773"
     id="path33783-6-6-2"
     inkscape:connector-curvature="0"
     sodipodi:nodetypes="ccsssssscc" />
  <path
     style="fill:none;stroke:#000000;stroke-width:1;stroke-linecap:butt;stroke-linejoin:round;stroke-miterlimit:4;stroke-dasharray:none;stroke-opacity:1"
     d="m 80.598272,168.83174 c 4.043853,5.423 5.790916,11.47239 7.646048,17.49231 -1.298457,1.00135 -2.326496,2.27312 -2.807602,4.09183"
     id="path14359-1-7-5-3-0-73-1-9-6"
     inkscape:connector-curvature="0"
     sodipodi:nodetypes="ccc" />
  <path
     style="color:#000000;display:inline;overflow:visible;visibility:visible;fill:none;fill-rule:evenodd;stroke:#000000;stroke-width:3;stroke-linecap:butt;stroke-linejoin:miter;stroke-miterlimit:4;stroke-dasharray:none;stroke-dashoffset:0;stroke-opacity:1;marker:none;enable-background:accumulate"
     d="M 101.55099,183.12765 A 28.170632,27.920187 0 0 1 73.38036,211.04783 28.170632,27.920187 0 0 1 45.209728,183.12765 28.170632,27.920187 0 0 1 73.38036,155.20746 28.170632,27.920187 0 0 1 101.55099,183.12765 Z"
     id="path33900"
     inkscape:connector-curvature="0" />
  <path
     style="fill:none;fill-rule:evenodd;stroke:#000000;stroke-width:3;stroke-linecap:butt;stroke-linejoin:miter;stroke-miterlimit:4;stroke-dasharray:none;stroke-opacity:1"
     d="m 59.141698,158.87585 28.91566,48.22188"
     id="path33903"
     inkscape:connector-curvature="0"
     sodipodi:nodetypes="cc" />
  <path
     style="fill:none;stroke:#000000;stroke-width:1;stroke-linecap:butt;stroke-linejoin:miter;stroke-miterlimit:4;stroke-dasharray:none;stroke-opacity:1"
     d="m 194.74004,17.461079 -0.002,126.526791"
     id="path14359-1-7-5-3-0-73-1-9-3"
     inkscape:connector-curvature="0"
     sodipodi:nodetypes="cc" />
  <path
     style="fill:none;stroke:#000000;stroke-width:1;stroke-linecap:butt;stroke-linejoin:miter;stroke-miterlimit:4;stroke-dasharray:none;stroke-opacity:1"
     d="m 369.04265,53.51478 17.32978,0 -0.002,162.00821 -54.70625,0 m -292.333103,0 -35.7348822,0 0.002,-162.00821 17.8804782,0"
     id="path14359-1-7-5-3-0-73-1-9-3-2"
     inkscape:connector-curvature="0"
     sodipodi:nodetypes="cccccccc" />
  <path
     style="fill:none;stroke:#000000;stroke-width:1;stroke-linecap:butt;stroke-linejoin:miter;stroke-miterlimit:4;stroke-dasharray:none;stroke-opacity:1"
     d="M 21.971936,108.25253 3.6978,108.25053"
     id="path14359-1-7-5-3-0-73-1-9-3-28"
     inkscape:connector-curvature="0"
     sodipodi:nodetypes="cc" />
  <path
     style="fill:none;stroke:#000000;stroke-width:1;stroke-linecap:butt;stroke-linejoin:miter;stroke-miterlimit:4;stroke-dasharray:none;stroke-opacity:1"
     d="m 386.53249,152.37402 -55.49442,-2.9e-4 m -291.367599,-0.002 -36.1099822,-1.8e-4"
     id="path14359-1-7-5-3-0-73-1-9-3-28-9"
     inkscape:connector-curvature="0"
     sodipodi:nodetypes="cccc" />
  <text
     xml:space="preserve"
     style="font-style:normal;font-variant:normal;font-weight:normal;font-stretch:normal;font-size:10px;line-height:135.00000238%;font-family:Arial;-inkscape-font-specification:Arial;text-align:start;letter-spacing:0.5px;word-spacing:0px;text-anchor:start;fill:#000000;fill-opacity:1;stroke:none;stroke-width:1px;stroke-linecap:butt;stroke-linejoin:miter;stroke-opacity:1"
     x="115.20379"
     y="163.85374"
     id="text33977"
     sodipodi:linespacing="135%"><tspan
       sodipodi:role="line"
       id="tspan33979"
       x="115.20379"
       y="163.85374"><tspan
   style="font-style:normal;font-variant:normal;font-weight:bold;font-stretch:normal;font-size:12.5px;line-height:135.00000238%;font-family:Arial;-inkscape-font-specification:'Arial Bold'"
   id="tspan33987">WARNING!</tspan> This restraint must only be</tspan><tspan
       sodipodi:role="line"
       x="115.20379"
       y="178.07173"
       id="tspan33981">used on school bus seats.  Entire seat</tspan><tspan
       sodipodi:role="line"
       x="115.20379"
       y="191.57173"
       id="tspan33983">directiy behind must be unoccupied or</tspan><tspan
       sodipodi:role="line"
       x="115.20379"
       y="205.07173"
       id="tspan33985">have restrained occupants.</tspan></text>
  <text
     xml:space="preserve"
     style="font-style:normal;font-variant:normal;font-weight:normal;font-stretch:normal;font-size:10px;line-height:150%;font-family:Arial;-inkscape-font-specification:Arial;text-align:start;letter-spacing:0.5px;word-spacing:0px;text-anchor:start;fill:#000000;fill-opacity:1;stroke:none;stroke-width:1px;stroke-linecap:butt;stroke-linejoin:miter;stroke-opacity:1"
     x="12.273528"
     y="248.09479"
     id="text33991"
     sodipodi:linespacing="150%"><tspan
       sodipodi:role="line"
       id="tspan33993"
       x="12.273528"
       y="248.09479"><tspan
   style="font-style:normal;font-variant:normal;font-weight:bold;font-stretch:normal;font-size:10px;font-family:Arial;-inkscape-font-specification:'Arial Bold'"
   id="tspan33995">Figure 12.</tspan> Label on Harness Component That Attaches to School Bus Seat Back.</tspan></text>
  <text
     xml:space="preserve"
     style="font-style:normal;font-variant:normal;font-weight:normal;font-stretch:normal;font-size:10px;line-height:150%;font-family:Arial;-inkscape-font-specification:Arial;text-align:start;letter-spacing:0.64999998px;word-spacing:0px;text-anchor:start;fill:#000000;fill-opacity:1;stroke:none;stroke-width:1px;stroke-linecap:butt;stroke-linejoin:miter;stroke-opacity:1"
     x="91.21463"
     y="9.8767757"
     id="text33997"
     sodipodi:linespacing="150%"><tspan
       sodipodi:role="line"
       id="tspan33999"
       x="91.21463"
       y="9.8767757">Label Outline, Vertical and Horizontal Line Black</tspan></text>
  <text
     xml:space="preserve"
     style="font-style:normal;font-variant:normal;font-weight:normal;font-stretch:normal;font-size:10px;line-height:130%;font-family:Arial;-inkscape-font-specification:Arial;text-align:start;letter-spacing:0.64999998px;word-spacing:0px;text-anchor:start;fill:#000000;fill-opacity:1;stroke:none;stroke-width:1px;stroke-linecap:butt;stroke-linejoin:miter;stroke-opacity:1;"
     x="26.598804"
     y="52.421368"
     id="text33997-1"
     sodipodi:linespacing="130%"><tspan
       sodipodi:role="line"
       id="tspan33999-9"
       x="26.598804"
       y="52.421368">Artwork Gray and Black</tspan><tspan
       sodipodi:role="line"
       x="26.598804"
       y="67.421371"
       id="tspan34019">With White Background</tspan></text>
  <text
     xml:space="preserve"
     style="font-style:normal;font-variant:normal;font-weight:normal;font-stretch:normal;font-size:10px;line-height:129.99999523%;font-family:Arial;-inkscape-font-specification:Arial;text-align:start;letter-spacing:0.64999998px;word-spacing:0px;text-anchor:start;fill:#000000;fill-opacity:1;stroke:none;stroke-width:1px;stroke-linecap:butt;stroke-linejoin:miter;stroke-opacity:1"
     x="26.366899"
     y="107.50021"
     id="text33997-1-1"
     sodipodi:linespacing="130%"><tspan
       sodipodi:role="line"
       id="tspan33999-9-0"
       x="26.366899"
       y="107.50021"> Circle and Line Red</tspan><tspan
       sodipodi:role="line"
       x="26.366899"
       y="120.50021"
       id="tspan34019-7">With White Background</tspan></text>
  <text
     xml:space="preserve"
     style="font-style:normal;font-variant:normal;font-weight:normal;font-stretch:normal;font-size:10px;line-height:129.99999523%;font-family:Arial;-inkscape-font-specification:Arial;text-align:start;letter-spacing:0.64999998px;word-spacing:0px;text-anchor:start;fill:#000000;fill-opacity:1;stroke:none;stroke-width:1px;stroke-linecap:butt;stroke-linejoin:miter;stroke-opacity:1"
     x="269.11725"
     y="52.269341"
     id="text33997-1-1-2"
     sodipodi:linespacing="130%"><tspan
       sodipodi:role="line"
       x="269.11725"
       y="52.269341"
       id="tspan34019-7-6">Text Black With</tspan><tspan
       sodipodi:role="line"
       x="269.11725"
       y="65.269341"
       id="tspan34065">White Background</tspan></text>
</svg>
