<?xml version="1.0" encoding="UTF-8" standalone="no"?>
<!-- Created with Inkscape (http://www.inkscape.org/) -->

<svg
   xmlns:dc="http://purl.org/dc/elements/1.1/"
   xmlns:cc="http://creativecommons.org/ns#"
   xmlns:rdf="http://www.w3.org/1999/02/22-rdf-syntax-ns#"
   xmlns:svg="http://www.w3.org/2000/svg"
   xmlns="http://www.w3.org/2000/svg"
   xmlns:sodipodi="http://sodipodi.sourceforge.net/DTD/sodipodi-0.dtd"
   xmlns:inkscape="http://www.inkscape.org/namespaces/inkscape"
   id="svg34201"
   version="1.1"
   inkscape:version="0.91 r13725"
   width="500"
   height="709"
   viewBox="0 0 500 709"
   sodipodi:docname="er10mr98.009.svg">
  <metadata
     id="metadata34207">
    <rdf:RDF>
      <cc:Work
         rdf:about="">
        <dc:format>image/svg+xml</dc:format>
        <dc:type
           rdf:resource="http://purl.org/dc/dcmitype/StillImage" />
        <dc:title></dc:title>
      </cc:Work>
    </rdf:RDF>
  </metadata>
  <defs
     id="defs34205" />
  <sodipodi:namedview
     pagecolor="#ffffff"
     bordercolor="#666666"
     borderopacity="1"
     objecttolerance="10"
     gridtolerance="10"
     guidetolerance="10"
     inkscape:pageopacity="0"
     inkscape:pageshadow="2"
     inkscape:window-width="1280"
     inkscape:window-height="676"
     id="namedview34203"
     showgrid="false"
     inkscape:zoom="0.66042587"
     inkscape:cx="-142.25095"
     inkscape:cy="367.05302"
     inkscape:window-x="0"
     inkscape:window-y="0"
     inkscape:window-maximized="0"
     inkscape:current-layer="svg34201" />
  <path
     style="fill:none;stroke:#000000;stroke-width:1;stroke-linecap:butt;stroke-linejoin:miter;stroke-miterlimit:4;stroke-dasharray:none;stroke-opacity:1"
     d="m 27.088277,508.97313 -20.1711208,0 -0.002,26.1971 188.6573638,0 0.002,-26.1971 -19.98101,0 0,-19.98001 -148.505233,0 z"
     id="path14359-1-7-5-3-0-73-1-9-5"
     inkscape:connector-curvature="0"
     sodipodi:nodetypes="ccccccccc" />
  <path
     style="fill:none;stroke:#000000;stroke-width:1;stroke-linecap:butt;stroke-linejoin:miter;stroke-miterlimit:4;stroke-dasharray:none;stroke-opacity:1"
     d="m 121.9923,488.87041 0.002,-20.43364 -47.836748,0 -0.002,20.43364"
     id="path14359-1-7-5-3-0-73-1-9"
     inkscape:connector-curvature="0"
     sodipodi:nodetypes="cccc" />
  <path
     style="fill:none;stroke:#000000;stroke-width:1;stroke-linecap:butt;stroke-linejoin:miter;stroke-miterlimit:4;stroke-dasharray:none;stroke-opacity:1"
     d="m 44.379667,22.344729 -3.35e-4,78.182611 m -9.6e-5,22.4757 -1.38e-4,32.13917 m -9.7e-5,22.69286 -0.0013,311.22746"
     id="path14359-1-7-5-3-0-73-1-9-2"
     inkscape:connector-curvature="0"
     sodipodi:nodetypes="cccccc" />
  <path
     style="fill:none;stroke:#000000;stroke-width:1;stroke-linecap:butt;stroke-linejoin:miter;stroke-miterlimit:4;stroke-dasharray:none;stroke-opacity:1"
     d="m 41.690051,22.344729 -3.35e-4,78.074031 m -9.7e-5,22.69286 -1.37e-4,32.03059 m -9.7e-5,22.58428 -0.0013,311.33604"
     id="path14359-1-7-5-3-0-73-1-9-6"
     inkscape:connector-curvature="0"
     sodipodi:nodetypes="cccccc" />
  <path
     style="fill:none;stroke:#000000;stroke-width:1;stroke-linecap:butt;stroke-linejoin:miter;stroke-miterlimit:4;stroke-dasharray:none;stroke-opacity:1"
     d="m 156.57508,22.344729 -3.4e-4,78.399771 m -9e-5,22.4757 -1.4e-4,32.24775 m -1e-4,22.58428 -0.001,311.0103"
     id="path14359-1-7-5-3-0-73-1-9-1"
     inkscape:connector-curvature="0"
     sodipodi:nodetypes="cccccc" />
  <path
     style="fill:none;stroke:#000000;stroke-width:1;stroke-linecap:butt;stroke-linejoin:miter;stroke-miterlimit:4;stroke-dasharray:none;stroke-opacity:1"
     d="m 159.2647,22.344729 -3.4e-4,78.291191 m -9e-5,22.58428 -1.4e-4,32.24775 m -1e-4,22.58428 -0.001,311.0103"
     id="path14359-1-7-5-3-0-73-1-9-9"
     inkscape:connector-curvature="0"
     sodipodi:nodetypes="cccccc" />
  <path
     style="fill:none;stroke:#000000;stroke-width:1;stroke-linecap:butt;stroke-linejoin:miter;stroke-miterlimit:4;stroke-dasharray:none;stroke-opacity:1"
     d="m 3.4233782,22.18631 185.2686818,0.002"
     id="path14359-1-7-5-3-0-73-1-9-8"
     inkscape:connector-curvature="0"
     sodipodi:nodetypes="cc" />
  <path
     style="fill:none;stroke:#000000;stroke-width:1;stroke-linecap:butt;stroke-linejoin:miter;stroke-miterlimit:4;stroke-dasharray:none;stroke-opacity:1"
     d="m 92.790756,220.10091 -21.132423,-11.75374 0.0017,-104.73761 9.605772,0 -0.0016,98.78203 20.555967,11.1774"
     id="path14359-1-7-5-3-0-73-1-9-0"
     inkscape:connector-curvature="0"
     sodipodi:nodetypes="cccccc" />
  <path
     style="fill:none;stroke:#000000;stroke-width:1;stroke-linecap:butt;stroke-linejoin:miter;stroke-miterlimit:4;stroke-dasharray:none;stroke-opacity:1"
     d="m 49.402615,117.46556 -4.99e-4,5.62266 -12.812237,0 5.09e-4,-5.73125 m 0.0011,-12.59509 3.54e-4,-4.21115 12.812237,0 -3.74e-4,4.21116"
     id="path14359-1-7-5-3-0-73-1-9-7"
     inkscape:connector-curvature="0"
     sodipodi:nodetypes="cccccccc" />
  <path
     style="fill:none;stroke:#000000;stroke-width:1;stroke-linecap:butt;stroke-linejoin:miter;stroke-miterlimit:4;stroke-dasharray:none;stroke-opacity:1"
     d="m 53.095778,104.78528 -0.002,12.65687 -20.086981,0 0.002,-12.65687 z"
     id="path14359-1-7-5-3-0-73-1-9-22"
     inkscape:connector-curvature="0"
     sodipodi:nodetypes="ccccc" />
  <path
     style="fill:none;stroke:#000000;stroke-width:1;stroke-linecap:butt;stroke-linejoin:miter;stroke-miterlimit:4;stroke-dasharray:none;stroke-opacity:1"
     d="m 164.33272,117.57415 -5e-4,5.62266 -12.81223,0 5.1e-4,-5.73125 m 0.001,-12.59509 3.5e-4,-4.21115 12.81224,0 -3.8e-4,4.21116"
     id="path14359-1-7-5-3-0-73-1-9-7-1"
     inkscape:connector-curvature="0"
     sodipodi:nodetypes="cccccccc" />
  <path
     style="fill:none;stroke:#000000;stroke-width:1;stroke-linecap:butt;stroke-linejoin:miter;stroke-miterlimit:4;stroke-dasharray:none;stroke-opacity:1"
     d="m 168.02589,104.89387 -0.002,12.65687 -20.08699,0 0.002,-12.65687 z"
     id="path14359-1-7-5-3-0-73-1-9-22-1"
     inkscape:connector-curvature="0"
     sodipodi:nodetypes="ccccc" />
  <path
     style="fill:none;stroke:#000000;stroke-width:1;stroke-linecap:butt;stroke-linejoin:miter;stroke-miterlimit:4;stroke-dasharray:none;stroke-opacity:1"
     d="m 49.348325,172.08043 -5e-4,5.62266 -12.81224,0 5.1e-4,-5.73125 m 10e-4,-12.59509 3.6e-4,-4.21115 12.81223,0 -3.7e-4,4.21116"
     id="path14359-1-7-5-3-0-73-1-9-7-0"
     inkscape:connector-curvature="0"
     sodipodi:nodetypes="cccccccc" />
  <path
     style="fill:none;stroke:#000000;stroke-width:1;stroke-linecap:butt;stroke-linejoin:miter;stroke-miterlimit:4;stroke-dasharray:none;stroke-opacity:1"
     d="m 53.041485,159.40015 -0.002,12.65687 -20.08698,0 0.002,-12.65687 z"
     id="path14359-1-7-5-3-0-73-1-9-22-9"
     inkscape:connector-curvature="0"
     sodipodi:nodetypes="ccccc" />
  <path
     style="fill:none;stroke:#000000;stroke-width:1;stroke-linecap:butt;stroke-linejoin:miter;stroke-miterlimit:4;stroke-dasharray:none;stroke-opacity:1"
     d="m 164.4413,172.40617 -5e-4,5.62266 -12.81224,0 5.1e-4,-5.73125 m 0.001,-12.59509 3.6e-4,-4.21115 12.81223,0 -3.7e-4,4.21116"
     id="path14359-1-7-5-3-0-73-1-9-7-18"
     inkscape:connector-curvature="0"
     sodipodi:nodetypes="cccccccc" />
  <path
     style="fill:none;stroke:#000000;stroke-width:1;stroke-linecap:butt;stroke-linejoin:miter;stroke-miterlimit:4;stroke-dasharray:none;stroke-opacity:1"
     d="m 168.13446,159.72589 -0.002,12.65687 -20.08698,0 0.002,-12.65687 z"
     id="path14359-1-7-5-3-0-73-1-9-22-7"
     inkscape:connector-curvature="0"
     sodipodi:nodetypes="ccccc" />
  <path
     style="fill:none;stroke:#000000;stroke-width:1;stroke-linecap:butt;stroke-linejoin:miter;stroke-miterlimit:4;stroke-dasharray:none;stroke-opacity:1"
     d="m 147.86022,107.96595 -66.535092,-0.001 m -9.880625,-2.1e-4 -18.43491,-3.9e-4"
     id="path14359-1-7-5-3-0-73-1-9-22-8"
     inkscape:connector-curvature="0"
     sodipodi:nodetypes="cccc" />
  <path
     style="fill:none;stroke:#000000;stroke-width:1;stroke-linecap:butt;stroke-linejoin:miter;stroke-miterlimit:4;stroke-dasharray:none;stroke-opacity:1"
     d="m 147.9145,114.42636 -66.806527,-0.001 m -9.554891,-2e-4 -18.489204,-3.9e-4"
     id="path14359-1-7-5-3-0-73-1-9-22-8-5"
     inkscape:connector-curvature="0"
     sodipodi:nodetypes="cccc" />
  <path
     style="fill:none;stroke:#000000;stroke-width:1;stroke-linecap:butt;stroke-linejoin:miter;stroke-miterlimit:4;stroke-dasharray:none;stroke-opacity:1"
     d="m 147.9145,162.41796 -66.806527,-0.001 m -9.554889,-2e-4 -18.489206,-3.9e-4"
     id="path14359-1-7-5-3-0-73-1-9-22-8-53"
     inkscape:connector-curvature="0"
     sodipodi:nodetypes="cccc" />
  <path
     style="fill:none;stroke:#000000;stroke-width:1;stroke-linecap:butt;stroke-linejoin:miter;stroke-miterlimit:4;stroke-dasharray:none;stroke-opacity:1"
     d="m 147.9145,169.47555 -66.480793,-0.001 m -9.88062,-2.1e-4 -18.489209,-3.9e-4"
     id="path14359-1-7-5-3-0-73-1-9-22-8-3"
     inkscape:connector-curvature="0"
     sodipodi:nodetypes="cccc" />
  <path
     style="fill:none;stroke:#000000;stroke-width:1;stroke-linecap:butt;stroke-linejoin:miter;stroke-miterlimit:4;stroke-dasharray:none;stroke-opacity:1"
     d="m 137.35052,162.44785 0.002,-48.16197"
     id="path14359-1-7-5-3-0-73-1-9-22-8-9"
     inkscape:connector-curvature="0"
     sodipodi:nodetypes="cc" />
  <path
     style="fill:none;stroke:#000000;stroke-width:1;stroke-linecap:butt;stroke-linejoin:miter;stroke-miterlimit:4;stroke-dasharray:none;stroke-opacity:1"
     d="m 64.16876,162.44785 0.002,-48.16197"
     id="path14359-1-7-5-3-0-73-1-9-22-8-6"
     inkscape:connector-curvature="0"
     sodipodi:nodetypes="cc" />
  <path
     style="fill:none;stroke:#000000;stroke-width:1;stroke-linecap:butt;stroke-linejoin:miter;stroke-miterlimit:4;stroke-dasharray:none;stroke-opacity:1"
     d="m 141.47649,162.44785 0.002,-48.16197"
     id="path14359-1-7-5-3-0-73-1-9-22-8-8"
     inkscape:connector-curvature="0"
     sodipodi:nodetypes="cc" />
  <path
     style="fill:none;stroke:#000000;stroke-width:1;stroke-linecap:butt;stroke-linejoin:miter;stroke-miterlimit:4;stroke-dasharray:none;stroke-opacity:1"
     d="m 60.477098,162.44785 0.002,-48.16197"
     id="path14359-1-7-5-3-0-73-1-9-22-8-31"
     inkscape:connector-curvature="0"
     sodipodi:nodetypes="cc" />
  <path
     style="fill:none;stroke:#000000;stroke-width:1;stroke-linecap:butt;stroke-linejoin:miter;stroke-miterlimit:4;stroke-dasharray:none;stroke-opacity:1"
     d="M 81.324128,193.82697 106.08197,169.44365"
     id="path14359-1-7-5-3-0-73-1-9-22-8-67"
     inkscape:connector-curvature="0"
     sodipodi:nodetypes="cc" />
  <path
     style="fill:none;stroke:#000000;stroke-width:1;stroke-linecap:butt;stroke-linejoin:miter;stroke-miterlimit:4;stroke-dasharray:none;stroke-opacity:1"
     d="m 92.181955,208.26788 0.002,-25.14337"
     id="path14359-1-7-5-3-0-73-1-9-22-8-1"
     inkscape:connector-curvature="0"
     sodipodi:nodetypes="cc" />
  <path
     style="color:#000000;display:inline;overflow:visible;visibility:visible;fill:none;fill-rule:evenodd;stroke:#000000;stroke-width:1.05878317000000011;stroke-linecap:butt;stroke-linejoin:miter;stroke-miterlimit:4;stroke-dasharray:none;stroke-dashoffset:0;stroke-opacity:1;marker:none;enable-background:accumulate"
     d="m 110.42383,207.01053 c 3.25995,3.10909 5.29122,7.4952 5.29122,12.35573 0,9.42843 -7.64326,17.07168 -17.071686,17.07168 -6.712558,0 -12.520263,-3.87414 -15.309133,-9.50845 z"
     id="path34955"
     inkscape:connector-curvature="0"
     sodipodi:nodetypes="csscc" />
  <path
     style="color:#000000;display:inline;overflow:visible;visibility:visible;fill:none;fill-rule:evenodd;stroke:#000000;stroke-width:1;stroke-linecap:butt;stroke-linejoin:miter;stroke-miterlimit:4;stroke-dasharray:none;stroke-dashoffset:0;stroke-opacity:1;marker:none;enable-background:accumulate"
     d="m 88.509181,173.92592 c -10e-7,1.51338 -1.22684,2.74022 -2.740222,2.74022 -1.513382,0 -2.740221,-1.22684 -2.740222,-2.74022 -4e-6,-1.51339 1.226836,-2.74023 2.740222,-2.74023 1.513386,0 2.740226,1.22684 2.740222,2.74023 z"
     id="path34958"
     inkscape:connector-curvature="0"
     sodipodi:nodetypes="sssss" />
  <path
     style="color:#000000;display:inline;overflow:visible;visibility:visible;fill:none;fill-rule:evenodd;stroke:#000000;stroke-width:1;stroke-linecap:butt;stroke-linejoin:miter;stroke-miterlimit:4;stroke-dasharray:none;stroke-dashoffset:0;stroke-opacity:1;marker:none;enable-background:accumulate"
     d="m 87.778455,184.24742 c 0,1.51338 -1.22684,2.74022 -2.74022,2.74022 -1.51338,0 -2.74022,-1.22684 -2.74022,-2.74022 -1e-5,-1.51339 1.22683,-2.74023 2.74022,-2.74023 1.51339,0 2.74023,1.22684 2.74022,2.74023 z"
     id="path34958-4"
     inkscape:connector-curvature="0"
     sodipodi:nodetypes="sssss" />
  <path
     style="color:#000000;display:inline;overflow:visible;visibility:visible;fill:none;fill-rule:evenodd;stroke:#000000;stroke-width:1;stroke-linecap:butt;stroke-linejoin:miter;stroke-miterlimit:4;stroke-dasharray:none;stroke-dashoffset:0;stroke-opacity:1;marker:none;enable-background:accumulate"
     d="m 93.35024,179.041 c 0,1.51338 -1.22684,2.74022 -2.74022,2.74022 -1.51338,0 -2.74022,-1.22684 -2.74022,-2.74022 -1e-5,-1.51339 1.22683,-2.74023 2.74022,-2.74023 1.51339,0 2.74023,1.22684 2.74022,2.74023 z"
     id="path34958-7"
     inkscape:connector-curvature="0"
     sodipodi:nodetypes="sssss" />
  <path
     style="color:#000000;display:inline;overflow:visible;visibility:visible;fill:none;fill-rule:evenodd;stroke:#000000;stroke-width:1;stroke-linecap:butt;stroke-linejoin:miter;stroke-miterlimit:4;stroke-dasharray:none;stroke-dashoffset:0;stroke-opacity:1;marker:none;enable-background:accumulate"
     d="m 98.1913,173.37787 c 0,1.51338 -1.22684,2.74022 -2.74022,2.74022 -1.51338,0 -2.74022,-1.22684 -2.74022,-2.74022 -1e-5,-1.51339 1.22683,-2.74023 2.74022,-2.74023 1.51339,0 2.74023,1.22684 2.74022,2.74023 z"
     id="path34958-3"
     inkscape:connector-curvature="0"
     sodipodi:nodetypes="sssss" />
  <path
     style="color:#000000;display:inline;overflow:visible;visibility:visible;fill:none;fill-rule:evenodd;stroke:#000000;stroke-width:1;stroke-linecap:butt;stroke-linejoin:miter;stroke-miterlimit:4;stroke-dasharray:none;stroke-dashoffset:0;stroke-opacity:1;marker:none;enable-background:accumulate"
     d="m 89.148843,193.60984 c 0,1.23609 -1.002042,2.23812 -2.238121,2.23812 -1.23608,0 -2.238122,-1.00203 -2.238122,-2.23812 -8e-6,-1.23608 1.002035,-2.23812 2.238122,-2.23812 1.236079,0 2.238121,1.00204 2.238121,2.23812 z"
     id="path34958-8"
     inkscape:connector-curvature="0"
     sodipodi:nodetypes="sssss" />
  <path
     style="color:#000000;display:inline;overflow:visible;visibility:visible;fill:none;fill-rule:evenodd;stroke:#000000;stroke-width:1;stroke-linecap:butt;stroke-linejoin:miter;stroke-miterlimit:4;stroke-dasharray:none;stroke-dashoffset:0;stroke-opacity:1;marker:none;enable-background:accumulate"
     d="m 89.37719,200.23205 c 0,1.23609 -1.00204,2.23812 -2.23812,2.23812 -1.23608,0 -2.23812,-1.00203 -2.23812,-2.23812 -8e-6,-1.23608 1.00204,-2.23812 2.23812,-2.23812 1.23608,0 2.23812,1.00204 2.23812,2.23812 z"
     id="path34958-8-4"
     inkscape:connector-curvature="0"
     sodipodi:nodetypes="sssss" />
  <path
     style="color:#000000;display:inline;overflow:visible;visibility:visible;fill:#000000;fill-rule:evenodd;stroke:#000000;stroke-width:1;stroke-linecap:butt;stroke-linejoin:round;stroke-miterlimit:4;stroke-dasharray:none;stroke-dashoffset:0;stroke-opacity:1;marker:none;enable-background:accumulate;fill-opacity:1"
     d="m 394.23533,477.17717 c 0,0.80615 -0.6535,1.45964 -1.45964,1.45964 -0.80615,0 -1.45965,-0.65349 -1.45965,-1.45964 -10e-6,-0.80615 0.65349,-1.45965 1.46347,-1.4638 -0.80232,-0.004 -1.45581,-0.65763 -1.45582,-1.46378 -10e-6,-0.77059 0.59711,-1.4017 1.36586,-1.45257 -0.76091,-0.034 -1.37605,-0.67247 -1.37605,-1.4546 0,-0.80615 0.65349,-1.45965 1.4622,-1.45614 -0.80361,0.004 -1.45711,-0.64998 -1.45711,-1.45613 -10e-6,-0.80615 0.65349,-1.45965 1.45455,-1.45368 -0.81125,0.006 -1.46475,-0.64751 -1.46475,-1.45366 -10e-6,-0.80615 0.65349,-1.45965 1.46602,-1.45742 -0.79978,0.002 -1.45328,-0.65127 -1.45328,-1.45742 -10e-6,-0.80615 0.65349,-1.45965 1.45458,-1.4538 -0.81122,0.006 -1.46472,-0.64763 -1.46472,-1.45378 -1e-5,-0.80615 0.65349,-1.45965 1.46217,-1.45638 -0.80362,0.003 -1.45712,-0.65022 -1.45712,-1.45637 -10e-6,-0.80615 0.65349,-1.45965 1.45965,-1.45965 0.80614,0 1.45964,0.6535 1.45868,1.44945 -9.7e-4,-0.78481 0.60239,-1.41848 1.37399,-1.46303 -0.76664,-0.0303 -1.38513,-0.67008 -1.38514,-1.45435 -1e-5,-0.58783 0.34746,-1.09449 0.84821,-1.3258 l -0.59064,-0.98036 c -0.63298,0.4393 -1.50628,0.31095 -1.98431,-0.30493 -0.49429,-0.63683 -0.37872,-1.55376 0.25064,-2.04103 -0.6443,0.50131 -1.56123,0.38573 -2.05551,-0.2511 -0.49428,-0.63682 -0.37874,-1.55375 0.2582,-2.03513 -0.62606,0.49872 -1.52299,0.39534 -2.01978,-0.21444 0.45445,0.62126 0.34506,1.48892 -0.24817,1.9682 0.63383,-0.47502 1.52678,-0.35233 2.01216,0.27305 0.48445,0.62417 0.38308,1.51743 -0.21407,2.01259 0.64166,-0.4684 1.53385,-0.34548 2.01896,0.27954 0.49428,0.63683 0.37873,1.55376 -0.25812,2.04805 -0.63683,0.49428 -1.55376,0.37872 -2.04803,-0.25811 -0.49429,-0.63683 -0.37873,-1.55375 0.2506,-2.04102 -0.64434,0.50131 -1.56127,0.38575 -2.05554,-0.25108 -0.49429,-0.63684 -0.37874,-1.55376 0.2582,-2.03513 -0.62404,0.49708 -1.51721,0.396 -2.00734,-0.20244 0.45516,0.62796 0.34262,1.49201 -0.25183,1.96871 0.63338,-0.47929 1.53002,-0.35768 2.01679,0.26948 0.48326,0.62264 0.38357,1.51304 -0.21063,2.00985 0.64052,-0.46533 1.53103,-0.34193 2.01551,0.28229 0.49427,0.63683 0.37872,1.55375 -0.25812,2.04804 -0.63683,0.49428 -1.55375,0.37871 -2.04803,-0.25812 -0.49428,-0.63683 -0.37874,-1.55375 0.25063,-2.04103 -0.64431,0.5013 -1.56124,0.38573 -2.05552,-0.25109 -0.49428,-0.63684 -0.37873,-1.55377 0.2582,-2.03513 -0.62186,0.49536 -1.51099,0.39669 -2.01442,-0.2055 0.44103,0.61703 0.32988,1.47723 -0.25749,1.95274 0.6353,-0.4724 1.52517,-0.3488 2.00941,0.27509 0.48539,0.62537 0.3827,1.52083 -0.21655,2.01458 0.64271,-0.47056 1.53594,-0.34796 2.02144,0.27756 0.49427,0.63682 0.37873,1.55376 -0.25812,2.04804 -0.63684,0.49429 -1.55376,0.37872 -2.04804,-0.25811 -0.49428,-0.63684 -0.37871,-1.55375 0.25063,-2.04103 -0.6443,0.5013 -1.56124,0.38572 -2.05552,-0.2511 -0.49428,-0.63683 -0.37873,-1.55376 0.25821,-2.03513 -0.62363,0.49677 -1.51605,0.39612 -2.00823,-0.20375 0.45768,0.62737 0.34415,1.49668 -0.25279,1.97157 0.63598,-0.48073 1.53207,-0.35896 2.01863,0.26793 0.48691,0.62733 0.38204,1.52646 -0.22086,2.01798 0.64435,-0.47433 1.53954,-0.3523 2.02576,0.27416 0.49428,0.63683 0.37873,1.55376 -0.25813,2.04803 -0.63684,0.49427 -1.55376,0.37873 -2.04803,-0.2581 -0.49429,-0.63684 -0.37873,-1.55376 0.25065,-2.04104 -0.64429,0.50129 -1.56122,0.38574 -2.05549,-0.2511 -0.49429,-0.63683 -0.37874,-1.55375 0.2582,-2.03513 -0.62002,0.49388 -1.5057,0.39729 -2.00673,-0.19762 0.43847,0.618 0.32736,1.47244 -0.25866,1.94929 0.63234,-0.47277 1.52449,-0.34984 2.00957,0.27515 0.48497,0.62484 0.38285,1.51933 -0.21307,2.01194 0.64436,-0.46723 1.53385,-0.34353 2.01795,0.28019 0.49428,0.63683 0.37871,1.55375 -0.25812,2.04804 -0.63683,0.49429 -1.55377,0.37872 -2.04805,-0.25811 -0.49428,-0.63683 -0.37872,-1.55376 0.25064,-2.04103 -0.64431,0.50129 -1.56123,0.38574 -2.05552,-0.25109 -0.49428,-0.63685 -0.37872,-1.55376 0.25821,-2.03514 -0.62317,0.49639 -1.5147,0.39629 -2.00526,-0.19973 0.46105,0.63944 0.33528,1.52179 -0.28508,1.9903 0.63673,-0.5072 1.55367,-0.39166 2.04796,0.24518 0.48447,0.62419 0.38307,1.51746 -0.2154,2.01356 0.64053,-0.46969 1.53451,-0.34729 2.02029,0.27857 0.49428,0.63681 0.37872,1.55377 -0.25812,2.04805 -0.63684,0.49429 -1.55378,0.37872 -2.04806,-0.25811 -0.49427,-0.63684 -0.37872,-1.55376 0.25064,-2.04103 -0.6443,0.50131 -1.56123,0.38574 -2.05552,-0.2511 -0.48237,-0.62149 -0.38394,-1.50976 0.21871,-2.00413 -0.61581,0.46181 -1.48446,0.35445 -1.97922,-0.23138 0.4379,0.62547 0.32657,1.48375 -0.26124,1.96021 0.63357,-0.47354 1.5255,-0.35054 2.01051,0.27434 0.48205,0.62107 0.38406,1.50857 -0.20944,2.00873 0.63734,-0.46448 1.52931,-0.34151 2.01433,0.2834 0.49428,0.63683 0.37872,1.55376 -0.25812,2.04805 -0.63684,0.49428 -1.55376,0.37872 -2.04803,-0.25811 -0.49428,-0.63684 -0.37873,-1.55376 0.25062,-2.04101 -0.64432,0.50131 -1.56123,0.38576 -2.05551,-0.25107 -0.49428,-0.63684 -0.37872,-1.55375 0.2582,-2.03513 -0.62309,0.49631 -1.51445,0.39631 -2.01061,-0.20234 0.44623,0.62744 0.3295,1.49182 -0.26845,1.96471 0.63468,-0.48508 1.53511,-0.36458 2.02329,0.26439 0.48504,0.62492 0.38282,1.51959 -0.23307,2.02696 0.62672,-0.48724 1.54365,-0.37168 2.03794,0.26517 0.49428,0.63682 0.37873,1.55375 -0.25811,2.04805 -0.63684,0.49428 -1.55377,0.37871 -2.04805,-0.25812 -0.48579,-0.62589 -0.38252,-1.52234 0.23446,-2.02811 -0.62812,0.48839 -1.54507,0.37282 -2.03934,-0.26401 -0.49429,-0.63684 -0.37873,-1.55377 0.25821,-2.03513 -0.6233,0.49651 -1.51511,0.39624 -2.00722,-0.20244 0.45566,0.62649 0.34299,1.49272 -0.25174,1.96861 0.63479,-0.47898 1.53024,-0.35701 2.01657,0.26957 0.48476,0.62456 0.38295,1.51852 -0.23252,2.02651 0.6262,-0.48678 1.54312,-0.37122 2.03741,0.26561 0.49427,0.63683 0.37872,1.55378 -0.25811,2.04806 -0.63685,0.49429 -1.55378,0.37871 -2.04805,-0.25811 -0.4862,-0.62642 -0.38236,-1.52383 0.2352,-2.02872 -0.62887,0.489 -1.54581,0.37341 -2.04009,-0.26341 l 5e-5,-3e-5 c -0.49429,-0.63683 -0.37872,-1.55376 0.25821,-2.03513 -0.63673,0.50722 -1.55367,0.39163 -2.04795,-0.24519 -0.49429,-0.63683 -0.37872,-1.55376 0.2581,-2.04805 0.63684,-0.4943 1.55377,-0.37873 2.04015,0.2578 -0.50219,-0.63715 -0.38664,-1.55407 0.25019,-2.04836 0.63683,-0.49429 1.55377,-0.37873 2.04685,0.26228 -0.49549,-0.63268 -0.37995,-1.54961 0.2569,-2.04389 0.63682,-0.49429 1.55375,-0.37873 2.05366,0.25859 -0.48866,-0.63635 -0.37311,-1.55329 0.26373,-2.04757 0.63682,-0.49429 1.55377,-0.37873 2.04015,0.2578 -0.50222,-0.63714 -0.38665,-1.55407 0.25019,-2.04836 0.63682,-0.49429 1.55377,-0.37873 2.04684,0.26228 -0.4955,-0.63268 -0.37995,-1.54961 0.25689,-2.04389 0.63684,-0.49429 1.55376,-0.37873 2.04014,0.2578 -0.50219,-0.63714 -0.38664,-1.55407 0.2502,-2.04836 0.63683,-0.49429 1.55376,-0.37873 2.0502,0.26451 -0.49214,-0.63043 -0.37658,-1.54737 0.26026,-2.04166 0.63683,-0.49429 1.55376,-0.37873 2.04014,0.25781 -0.50219,-0.63716 -0.38665,-1.55407 0.25019,-2.04836 0.63684,-0.49429 1.55376,-0.37873 2.04684,0.26227 -0.49548,-0.63266 -0.37994,-1.54959 0.2569,-2.04389 0.62135,-0.48227 1.50935,-0.38399 2.00615,0.2142 -0.46295,-0.63299 -0.33888,-1.52116 0.28418,-2.00476 0.44139,-0.3426 1.01734,-0.39222 1.49386,-0.17836 l 0.0311,-1.01734 c -0.79071,-0.0178 -1.42624,-0.66429 -1.42624,-1.45927 0,-0.80615 0.65349,-1.45965 1.45847,-1.46336 -0.80734,-0.004 -1.46084,-0.65719 -1.46084,-1.46334 l 2e-5,-3e-5 c -1e-5,-0.80615 0.65349,-1.45965 1.4602,-1.46002 -0.80561,-3.6e-4 -1.45911,-0.65385 -1.45911,-1.46 -10e-6,-0.80615 0.65349,-1.45965 1.45957,-1.45989 -0.80623,-2.4e-4 -1.45973,-0.65373 -1.45973,-1.45988 l 9e-5,-6e-5 c -10e-6,-0.80615 0.65349,-1.45965 1.46038,-1.45923 -0.80543,4.3e-4 -1.45893,-0.65306 -1.45893,-1.45921 -1e-5,-0.80615 0.65349,-1.45965 1.45829,-1.46005 -0.80751,-3.9e-4 -1.46101,-0.65388 -1.46101,-1.46003 l 8e-5,-4.5e-4 c -10e-6,-0.80615 0.65348,-1.45965 1.46041,-1.4614 -0.80539,-0.002 -1.45889,-0.65524 -1.45889,-1.46139 -1e-5,-0.80615 0.65349,-1.45965 1.46016,-1.45938 -0.80563,2.7e-4 -1.45914,-0.65322 -1.45914,-1.45937 0,-0.80615 0.65349,-1.45965 1.45859,-1.45947 -0.80721,1.8e-4 -1.46071,-0.65331 -1.46071,-1.45946 -10e-6,-0.80615 0.65349,-1.45965 1.4601,-1.46018 -0.8057,-5.3e-4 -1.4592,-0.65402 -1.4592,-1.46017 -10e-6,-0.80615 0.65349,-1.45965 1.46042,-1.45945 -0.80539,2e-4 -1.45889,-0.65329 -1.45889,-1.45944 l 3e-5,3.1e-4 c -10e-6,-0.77078 0.59741,-1.40202 1.35448,-1.45592 l -0.0175,-0.81208 c -3.61437,-0.0847 -6.49352,-1.36226 -6.49473,-2.97603 l 0.005,36.263 -25.53895,21.12669 c 1.37781,-1.3888 4.76976,-1.22587 7.72658,1.76119 2.87003,2.89938 3.37661,6.55019 1.93729,8.00109 l 13.66912,-11.14661 c 0.90834,-0.74068 2.20923,-0.14883 2.20944,1.32401 l 0.002,14.0062 c 2.5e-4,1.66905 3.07379,3.02207 6.86552,3.02207 3.79172,0 6.8655,-1.35302 6.86552,-3.02207 l 7e-4,-71.37812 c 7.9e-4,1.66955 -3.07301,3.02258 -6.86473,3.02258 -0.0881,0 -0.1758,-7.1e-4 -0.2631,-0.002 l 0.003,0.80635 c 0.80614,0 1.45964,0.6535 1.45964,1.45965 l 0.0572,0.003 c 0,-0.80615 0.65349,-1.45965 1.45965,-1.45965 0.80614,0 1.45964,0.6535 1.45964,1.45965 0,0.80615 -0.6535,1.45964 -1.45964,1.45964 -0.79407,0 -1.44002,-0.63405 -1.45921,-1.42349 l -0.0582,0.001 c -0.0211,0.77419 -0.64507,1.39785 -1.41735,1.41916 0.7872,0.0245 1.41638,0.66857 1.41638,1.45958 l 0.0572,0.003 c 0,-0.80615 0.65349,-1.45965 1.45965,-1.45965 0.80614,0 1.45964,0.6535 1.45964,1.45965 0,0.80615 -0.6535,1.45964 -1.45964,1.45964 -0.78816,0 -1.43041,-0.62465 -1.45868,-1.40591 l -0.0595,0.006 c -0.0323,0.76052 -0.64655,1.3704 -1.40469,1.3973 0.78308,0.0323 1.40509,0.67352 1.40509,1.46001 l 0.0609,-8.4e-4 c 0,-0.80615 0.65349,-1.45965 1.45965,-1.45965 0.80614,0 1.45964,0.6535 1.45964,1.45965 0,0.80615 -0.6535,1.45964 -1.45964,1.45964 -0.7881,0 -1.4303,-0.62455 -1.45867,-1.40571 l -0.0631,0.008 c -0.0314,0.76392 -0.64997,1.37633 -1.41218,1.39849 0.78796,0.026 1.41552,0.66936 1.41552,1.45935 l 0.0572,-8.5e-4 c 0,-0.80615 0.65349,-1.45965 1.45965,-1.45965 0.80614,0 1.45964,0.6535 1.45964,1.45965 l 0,-3e-5 c 0,0.80615 -0.6535,1.45964 -1.45964,1.45964 -0.79105,0 -1.43512,-0.62924 -1.45897,-1.41451 l -0.0591,0.0156 c -0.0309,0.76655 -0.65304,1.38084 -1.41849,1.39962 0.77274,0.0237 1.3918,0.64107 1.41784,1.4089 l 0.0589,2e-4 c 0.026,-0.78335 0.66916,-1.4104 1.45884,-1.4104 0.80614,0 1.45964,0.6535 1.45964,1.45965 l 0,5e-5 c 0,0.80615 -0.6535,1.45964 -1.45964,1.45964 -0.80615,0 -1.45964,-0.65349 -1.45965,-1.45964 l -0.0572,8.8e-4 c 0,0.79241 -0.63141,1.43732 -1.41231,1.46162 0.76858,0.0308 1.38148,0.64379 1.40973,1.40616 l 0.0629,0.004 c 0.0244,-0.78477 0.66823,-1.41345 1.45893,-1.41345 0.80614,0 1.45964,0.6535 1.45964,1.45965 0,0.80615 -0.6535,1.45964 -1.45964,1.45964 -0.80615,0 -1.45964,-0.65349 -1.45965,-1.45964 l -0.0612,0.005 c 0,0.79192 -0.63063,1.43651 -1.4151,1.46005 0.7636,0.0235 1.37878,0.62936 1.41603,1.38719 l 0.06,0.004 c 0.0335,-0.77642 0.67358,-1.39558 1.45827,-1.39558 0.80614,0 1.45964,0.6535 1.45964,1.45965 l 3.8e-4,3e-5 c 0,0.80615 -0.6535,1.45964 -1.45964,1.45964 -0.80615,0 -1.45964,-0.65349 -1.45965,-1.45964 l -0.0572,0.005 c 0,0.79007 -0.62769,1.43351 -1.40735,1.45939 0.76546,0.0303 1.37699,0.64301 1.40486,1.40473 l 0.0592,-0.008 c 0.03,-0.77968 0.67151,-1.40255 1.45855,-1.40255 0.80614,0 1.45964,0.6535 1.45964,1.45965 l 10e-5,0 c 0,0.80615 -0.6535,1.45964 -1.45964,1.45964 -0.80615,0 -1.45964,-0.65349 -1.45965,-1.45964 l -0.0572,0.005 c 0,0.79233 -0.63129,1.43719 -1.41623,1.46005 0.76869,0.0244 1.38655,0.63887 1.41533,1.4041 l 0.0554,-0.008 c 0.0309,-0.77885 0.67204,-1.40077 1.45848,-1.40077 0.80614,0 1.45964,0.6535 1.45964,1.45965 l 1.7e-4,2e-5 c 0,0.80615 -0.6535,1.45964 -1.45964,1.45964 -0.80615,0 -1.45964,-0.65349 -1.45965,-1.45964 l -0.0534,0.005 c 0,0.79383 -0.63367,1.43962 -1.42274,1.46002 0.76528,0.0204 1.38406,0.62899 1.41996,1.39007 l 0.0598,0.0118 c 0.028,-0.78148 0.67037,-1.4064 1.4587,-1.4064 0.80614,0 1.45964,0.6535 1.45964,1.45965 l 0,5e-5 c 0,0.80615 -0.6535,1.45964 -1.45964,1.45964 -0.80615,0 -1.45964,-0.65349 -1.45965,-1.45964 l -0.0572,0.005 c 0,0.792 -0.63076,1.43665 -1.41942,1.46317 0.76655,0.0226 1.38798,0.63528 1.42046,1.40039 l 0.0596,-0.004 c 0.0285,-0.78103 0.67065,-1.40543 1.45866,-1.40543 0.80614,0 1.45964,0.6535 1.45964,1.45965 l 0,-2e-5 c 0,0.80615 -0.6535,1.45964 -1.45964,1.45964 -0.80615,0 -1.45964,-0.65349 -1.45965,-1.45964 l -0.0573,0.0128 c 0,0.80615 -0.6535,1.45964 -1.45963,1.45964 l -0.0299,1.03305 c 0.19731,0.0949 0.37621,0.2357 0.51957,0.4204 0.48643,0.62672 0.38224,1.52472 -0.22832,2.01191 0.63522,-0.48029 1.53146,-0.35855 2.01808,0.26841 0.48486,0.62469 0.3829,1.5189 -0.21889,2.01619 0.63885,-0.47303 1.5366,-0.35174 2.02378,0.27594 0.49428,0.63683 0.37871,1.55376 -0.25812,2.04805 -0.63684,0.49429 -1.55376,0.37871 -2.04804,-0.25811 -0.49429,-0.63684 -0.37874,-1.55379 0.25062,-2.04104 -0.6443,0.50131 -1.56123,0.38574 -2.05551,-0.25108 -0.49427,-0.63684 -0.37873,-1.55378 0.2582,-2.03515 -0.63673,0.50722 -1.55368,0.39166 -2.04003,-0.24487 0.4931,0.6256 0.39061,1.52096 -0.21845,2.0106 0.63303,-0.4787 1.52944,-0.35701 2.01611,0.27003 0.48586,0.626 0.38246,1.52265 -0.21916,2.01655 0.6422,-0.47298 1.53771,-0.35103 2.02404,0.27557 0.49428,0.63683 0.37871,1.55377 -0.25811,2.04805 l 0.60355,0.9944 c 0.16561,-0.0652 0.34601,-0.10107 0.53478,-0.10107 0.80614,0 1.45964,0.6535 1.45964,1.45965 0,0.80615 -0.6535,1.45964 -1.45455,1.45358 0.81124,-0.006 1.46474,0.64744 1.46474,1.45359 0,0.78867 -0.62546,1.43123 -1.39501,1.45705 0.78036,0.0409 1.38996,0.6771 1.38996,1.4557 0,0.78283 -0.61624,1.42171 -1.37769,1.45416 0.77935,0.0398 1.38783,0.67553 1.38783,1.45342 0,0.80615 -0.6535,1.45964 -1.46601,1.45741 0.79977,-0.002 1.45327,0.65128 1.45327,1.45743 0,0.78595 -0.62116,1.42679 -1.39378,1.45369 0.78331,0.0273 1.40398,0.66801 1.40398,1.45365 0,0.7895 -0.62678,1.43258 -1.40383,1.45647 0.78111,0.0326 1.39874,0.67209 1.39874,1.4558 0,0.7857 -0.62077,1.42639 -1.39281,1.45361 0.78298,0.0279 1.403,0.66833 1.403,1.45356 0,0.78705 -0.6229,1.42858 -1.39373,1.46438 0.77666,0.0486 1.38608,0.68472 1.38608,1.4632 0,0.80615 -0.6535,1.45964 -1.45964,1.45964 -0.80615,0 -1.45965,-0.65349 -1.45965,-1.45964 -10e-6,-0.80615 0.65349,-1.45965 1.46349,-1.46384 -0.8023,-0.004 -1.4558,-0.65768 -1.4558,-1.46383 -1e-5,-0.80615 0.65349,-1.45965 1.45455,-1.45359 -0.81124,0.006 -1.46474,-0.64743 -1.46474,-1.45358 -10e-6,-0.80615 0.65349,-1.45965 1.46217,-1.45614 -0.80362,0.004 -1.45712,-0.64998 -1.45712,-1.45613 -10e-6,-0.80615 0.65349,-1.45965 1.45455,-1.45359 -0.81124,0.006 -1.46473,-0.64743 -1.46474,-1.45358 -1e-5,-0.78107 0.61347,-1.41885 1.38808,-1.45759 -0.76522,-0.0419 -1.37534,-0.67831 -1.37534,-1.45725 0,-0.80615 0.65349,-1.45965 1.45456,-1.45359 -0.81125,0.006 -1.46475,-0.64743 -1.46475,-1.45358 -10e-6,-0.80615 0.65349,-1.45965 1.46219,-1.45614 -0.78112,0.004 -1.42053,-0.61405 -1.45597,-1.38281 -0.0306,0.76281 -0.63681,1.37148 -1.38668,1.40365 0.77335,0.0415 1.38238,0.67747 1.38238,1.45571 0,0.78442 -0.61874,1.4243 -1.39163,1.4535 0.78101,0.0272 1.40182,0.66794 1.40182,1.45367 0,0.7795 -0.61101,1.41627 -1.37727,1.45797 0.76336,0.0509 1.36453,0.68367 1.36453,1.45687 0,0.77921 -0.61055,1.41579 -1.36735,1.45399 0.77429,0.045 1.37754,0.67865 1.37754,1.45318 l 4e-5,0 c 0,0.77473 -0.60355,1.40847 -1.36931,1.45609 0.75997,0.047 1.36422,0.681 1.36422,1.45618 0,0.80615 -0.6535,1.45964 -1.45455,1.45358 0.81124,-0.006 1.46474,0.64744 1.46474,1.45359 0,0.78462 -0.61906,1.42462 -1.39246,1.46415 0.7729,0.0464 1.38477,0.68347 1.38477,1.46352 z"
     id="path34958-8-0-5-4-3-0-5"
     inkscape:connector-curvature="0"
     sodipodi:nodetypes="ssscscscscscscscssccsccscscccscssscscccscssscscccscssscscccscssscscccscssscscccscssscscccscssscscccscssscscccscssscsccsscscscscscscscscscscsccscsccscsccscsccscscscscsccccccscssssscsccccssscccccssscccccssscccccsscscccccsssscccccssscccccsscscccccsscscccccsscscccccsssscccccsscsccccscscssscscccscsccsscscscscscscscscssscscscscscscscccscscscsccscscs" />
  <path
     style="color:#000000;display:inline;overflow:visible;visibility:visible;fill:none;fill-rule:evenodd;stroke:#000000;stroke-width:1;stroke-linecap:butt;stroke-linejoin:round;stroke-miterlimit:4;stroke-dasharray:none;stroke-dashoffset:0;stroke-opacity:1;marker:none;enable-background:accumulate"
     d="m 395.70686,402.90784 c 2.58449,0.42205 4.42052,1.4976 4.42052,2.78755 0,1.66904 -3.0738,3.02207 -6.86552,3.02207 -3.79172,0 -6.86552,-1.31014 -6.86552,-2.97918 0,-1.39547 2.14869,-2.57002 5.06918,-2.91758"
     id="path35309-9"
     inkscape:connector-curvature="0"
     sodipodi:nodetypes="csssc" />
  <path
     style="color:#000000;display:inline;overflow:visible;visibility:visible;fill:none;fill-rule:evenodd;stroke:#000000;stroke-width:1;stroke-linecap:butt;stroke-linejoin:miter;stroke-miterlimit:4;stroke-dasharray:none;stroke-dashoffset:0;stroke-opacity:1;marker:none;enable-background:accumulate"
     d="m 360.95467,467.89923 c -1.07486,-2.08454 -1.03716,-3.82508 -0.0897,-4.77257 1.3835,-1.3835 4.77544,-1.22057 7.73226,1.76649 2.87003,2.89938 3.36913,6.55052 1.92757,7.99207 -0.86393,0.86392 -2.81599,0.83104 -4.76873,-0.0963"
     id="path35309-4"
     inkscape:connector-curvature="0"
     sodipodi:nodetypes="csssc" />
  <path
     style="color:#000000;display:inline;overflow:visible;visibility:visible;fill:none;fill-rule:evenodd;stroke:#000000;stroke-width:1;stroke-linecap:butt;stroke-linejoin:miter;stroke-miterlimit:4;stroke-dasharray:none;stroke-dashoffset:0;stroke-opacity:1;marker:none;enable-background:accumulate"
     d="m 396.06282,40.225369 0,363.093831 c 0,1.28114 -1.03858,2.31971 -2.31972,2.31971 -1.28114,-1e-5 -2.31971,-1.03857 -2.31971,-2.31971 l 0,-363.093831"
     id="path35373"
     inkscape:connector-curvature="0"
     sodipodi:nodetypes="csssc" />
  <path
     style="color:#000000;display:inline;overflow:visible;visibility:visible;fill:none;fill-rule:evenodd;stroke:#000000;stroke-width:1;stroke-linecap:butt;stroke-linejoin:round;stroke-miterlimit:4;stroke-dasharray:none;stroke-dashoffset:0;stroke-opacity:1;marker:none;enable-background:accumulate"
     d="m 396.4617,39.907527 c -1.16614,1.043974 -4.07649,1.442371 -4.98718,0.641153 -0.54106,-0.476022 0.62275,-2.022241 1.76957,-2.587425 z"
     id="path35376"
     inkscape:connector-curvature="0"
     sodipodi:nodetypes="cscc" />
  <path
     style="fill:none;stroke:#000000;stroke-width:1;stroke-linecap:butt;stroke-linejoin:miter;stroke-miterlimit:4;stroke-dasharray:none;stroke-opacity:1"
     d="m 396.5421,479.83952 -0.002,98.30294 c -1.47031,1.30372 -3.58743,1.6917 -5.20583,1.37932 l -6e-5,-99.55713"
     id="path14359-1-7-5-3-0-73-1-9-25"
     inkscape:connector-curvature="0"
     sodipodi:nodetypes="cccc" />
  <path
     style="fill:none;stroke:#000000;stroke-width:1;stroke-linecap:butt;stroke-linejoin:miter;stroke-miterlimit:4;stroke-dasharray:none;stroke-opacity:1"
     d="m 379.15288,465.88344 -0.22682,102.69259 12.44108,7.00308 m 4.9825,2.80465 12.18695,6.86003 4.09324,-2.00238 0.18476,-538.584817 -10.59931,-5.984607 35.83133,-20.343198 11.50365,6.464187 2.91853,-2.340314 M 420.0824,8.0606655 l 13.98232,8.0630795 -35.94643,20.196239 -14.33344,-8.193014 -3.66994,2.202426 -0.92262,417.711944"
     id="path14359-1-7-5-3-0-73-1-9-25-3"
     inkscape:connector-curvature="0"
     sodipodi:nodetypes="ccccccccccccccccc" />
  <path
     style="fill:none;stroke:#000000;stroke-width:1;stroke-linecap:butt;stroke-linejoin:miter;stroke-miterlimit:4;stroke-dasharray:none;stroke-opacity:1"
     d="m 412.77402,44.816486 -3.20429,2.732218 -29.2785,-17.290188"
     id="path14359-1-7-5-3-0-73-1-9-25-5"
     inkscape:connector-curvature="0"
     sodipodi:nodetypes="ccc" />
  <path
     style="fill:none;stroke:#000000;stroke-width:1;stroke-linecap:butt;stroke-linejoin:miter;stroke-miterlimit:4;stroke-dasharray:none;stroke-opacity:1"
     d="M 449.48177,24.838575 449.29789,562.1366"
     id="path14359-1-7-5-3-0-73-1-9-25-5-2"
     inkscape:connector-curvature="0"
     sodipodi:nodetypes="cc" />
  <path
     style="fill:none;stroke:#000000;stroke-width:1;stroke-linecap:butt;stroke-linejoin:miter;stroke-miterlimit:4;stroke-dasharray:none;stroke-opacity:1"
     d="m 412.55155,570.73834 25.92073,-14.00442 10.84692,5.55921 3.05525,-1.59242 0.0439,-538.647199 -28.83236,-16.4183847 -3.87136,2.4471746 -0.001,16.0360101"
     id="path14359-1-7-5-3-0-73-1-9-25-5-6"
     inkscape:connector-curvature="0"
     sodipodi:nodetypes="cccccccc" />
  <path
     style="fill:none;stroke:#000000;stroke-width:1;stroke-linecap:butt;stroke-linejoin:miter;stroke-miterlimit:4;stroke-dasharray:none;stroke-opacity:1"
     d="m 409.52594,47.486137 -0.7584,537.526493"
     id="path14359-1-7-5-3-0-73-1-9-25-5-9"
     inkscape:connector-curvature="0"
     sodipodi:nodetypes="cc" />
  <path
     style="fill:none;stroke:#000000;stroke-width:1;stroke-linecap:butt;stroke-linejoin:miter;stroke-miterlimit:4;stroke-dasharray:none;stroke-opacity:1"
     d="m 438.41079,18.510779 0.0487,538.251881"
     id="path14359-1-7-5-3-0-73-1-9-25-5-26"
     inkscape:connector-curvature="0"
     sodipodi:nodetypes="cc" />
  <path
     style="fill:none;stroke:#000000;stroke-width:1;stroke-linecap:butt;stroke-linejoin:miter;stroke-miterlimit:4;stroke-dasharray:none;stroke-opacity:1"
     d="m 348.51426,590.3232 -48.98881,27.60332 -4.04354,-2.38208 -9e-5,-11.1633 38.33058,-22.52417 0,-3.55645 26.77314,-14.78443 40.99856,23.87313 -9.9e-4,15.41128 -66.18983,36.25598 -4.40678,-2.59606 0,-12.0524 38.68534,-21.46763"
     id="path14359-1-7-5-3-0-73-1-9-25-5-7"
     inkscape:connector-curvature="0"
     sodipodi:nodetypes="ccccccccccccc" />
  <path
     style="fill:none;stroke:#000000;stroke-width:1;stroke-linecap:butt;stroke-linejoin:miter;stroke-miterlimit:4;stroke-dasharray:none;stroke-opacity:1"
     d="m 401.38573,590.84455 -65.99244,35.96195 -0.001,12.35114"
     id="path14359-1-7-5-3-0-73-1-9-25-5-0"
     inkscape:connector-curvature="0"
     sodipodi:nodetypes="ccc" />
  <path
     style="fill:none;stroke:#000000;stroke-width:1;stroke-linecap:butt;stroke-linejoin:miter;stroke-miterlimit:4;stroke-dasharray:none;stroke-opacity:1"
     d="m 335.39386,626.90299 -4.24998,-2.36631"
     id="path14359-1-7-5-3-0-73-1-9-25-5-64"
     inkscape:connector-curvature="0"
     sodipodi:nodetypes="cc" />
  <path
     style="fill:none;stroke:#000000;stroke-width:1;stroke-linecap:butt;stroke-linejoin:miter;stroke-miterlimit:4;stroke-dasharray:none;stroke-opacity:1"
     d="m 337.9624,584.12681 -38.43003,22.32894 -0.001,11.46198"
     id="path14359-1-7-5-3-0-73-1-9-25-5-1"
     inkscape:connector-curvature="0"
     sodipodi:nodetypes="ccc" />
  <path
     style="fill:none;stroke:#000000;stroke-width:1;stroke-linecap:butt;stroke-linejoin:miter;stroke-miterlimit:4;stroke-dasharray:none;stroke-opacity:1"
     d="m 295.4826,604.4776 4.0484,2.07925"
     id="path14359-1-7-5-3-0-73-1-9-25-5-3"
     inkscape:connector-curvature="0"
     sodipodi:nodetypes="cc" />
  <path
     style="fill:none;stroke:#000000;stroke-width:1;stroke-linecap:butt;stroke-linejoin:miter;stroke-miterlimit:4;stroke-dasharray:none;stroke-opacity:1"
     d="m 333.81438,581.52981 40.40321,23.81311"
     id="path14359-1-7-5-3-0-73-1-9-25-5-8"
     inkscape:connector-curvature="0"
     sodipodi:nodetypes="cc" />
  <path
     style="fill:none;stroke:#000000;stroke-width:1;stroke-linecap:butt;stroke-linejoin:miter;stroke-miterlimit:4;stroke-dasharray:none;stroke-opacity:1"
     d="m 374.51478,601.4151 -0.002,3.75869"
     id="path14359-1-7-5-3-0-73-1-9-25-5-38"
     inkscape:connector-curvature="0"
     sodipodi:nodetypes="cc" />
  <path
     style="fill:none;stroke:#000000;stroke-width:1;stroke-linecap:butt;stroke-linejoin:miter;stroke-miterlimit:4;stroke-dasharray:none;stroke-opacity:1"
     d="m 400.99057,587.18931 -26.60974,14.24697 -40.17446,-23.42981"
     id="path14359-1-7-5-3-0-73-1-9-25-5-09"
     inkscape:connector-curvature="0"
     sodipodi:nodetypes="ccc" />
  <path
     style="fill:none;stroke:#000000;stroke-width:1;stroke-linecap:butt;stroke-linejoin:miter;stroke-miterlimit:4;stroke-dasharray:none;stroke-opacity:1"
     d="m 452.46028,549.64902 42.08414,24.10714 -10e-4,13.63306 -146.302,82.4774 -107.37089,-61.79155 0,-12.34878 137.98929,-60.59477"
     id="path14359-1-7-5-3-0-73-1-9-25-5-71"
     inkscape:connector-curvature="0"
     sodipodi:nodetypes="ccccccc" />
  <path
     style="fill:none;stroke:#000000;stroke-width:1;stroke-linecap:butt;stroke-linejoin:miter;stroke-miterlimit:4;stroke-dasharray:none;stroke-opacity:1"
     d="M 494.34734,574.93932 348.10858,657.50298 240.94838,595.78871"
     id="path14359-1-7-5-3-0-73-1-9-25-5-22"
     inkscape:connector-curvature="0"
     sodipodi:nodetypes="ccc" />
  <path
     style="fill:none;stroke:#000000;stroke-width:1;stroke-linecap:butt;stroke-linejoin:miter;stroke-miterlimit:4;stroke-dasharray:none;stroke-opacity:1"
     d="m 348.23659,657.42917 -0.002,12.35344"
     id="path14359-1-7-5-3-0-73-1-9-25-5-67"
     inkscape:connector-curvature="0"
     sodipodi:nodetypes="cc" />
  <path
     style="color:#000000;display:inline;overflow:visible;visibility:visible;fill:none;fill-rule:evenodd;stroke:#000000;stroke-width:1;stroke-linecap:butt;stroke-linejoin:round;stroke-miterlimit:4;stroke-dasharray:none;stroke-dashoffset:0;stroke-opacity:1;marker:none;enable-background:accumulate"
     d="m 368.6433,506.74077 c -5.14559,4.50606 -11.88486,7.23701 -19.26197,7.23701 -16.15467,0 -29.25062,-13.09595 -29.25062,-29.25062 0,-10.80868 5.86254,-20.24809 14.58129,-25.3119 z"
     id="path35520"
     inkscape:connector-curvature="0"
     sodipodi:nodetypes="csscc" />
  <path
     style="fill:none;stroke:#000000;stroke-width:1;stroke-linecap:butt;stroke-linejoin:round;stroke-miterlimit:4;stroke-dasharray:none;stroke-opacity:1"
     d="m 352.43345,483.9292 14.12836,-11.82644 c 2.35385,-1.97034 -1.81662,-7.35179 -4.34657,-5.28832 l -14.05592,11.46422"
     id="path14359-1-7-5-3-0-73-1-9-63"
     inkscape:connector-curvature="0"
     sodipodi:nodetypes="cssc" />
  <path
     style="color:#000000;display:inline;overflow:visible;visibility:visible;fill:none;fill-rule:evenodd;stroke:#000000;stroke-width:1;stroke-linecap:butt;stroke-linejoin:miter;stroke-miterlimit:4;stroke-dasharray:none;stroke-dashoffset:0;stroke-opacity:1;marker:none;enable-background:accumulate"
     d="m 304.58108,187.03633 -22.25175,18.4813 c -16.6853,13.85805 -41.53227,11.25092 -55.26316,-5.5392 -13.7309,-16.7901 -11.26158,-41.54532 5.5392,-55.26315 l 21.54397,-17.3017 2.87062,3.4452 -21.54669,17.98345 c -14.65356,12.12581 -16.67164,33.85013 -4.53235,48.49255 12.13925,14.64244 33.8031,16.61469 48.49255,4.53238 l 22.24335,-18.29551 z"
     id="path35544"
     inkscape:connector-curvature="0"
     sodipodi:nodetypes="csssccssscc" />
  <path
     style="color:#000000;display:inline;overflow:visible;visibility:visible;fill:none;fill-rule:evenodd;stroke:#000000;stroke-width:1;stroke-linecap:butt;stroke-linejoin:miter;stroke-miterlimit:4;stroke-dasharray:none;stroke-dashoffset:0;stroke-opacity:1;marker:none;enable-background:accumulate"
     d="m 277.14402,166.70146 14.82622,17.52824 -16.50808,13.71085 c -12.37845,10.28098 -30.81185,8.34681 -40.99849,-4.1094 -10.18666,-12.4562 -8.35472,-30.82154 4.1094,-40.99849 l 15.98299,-12.83574 14.42034,17.0484"
     id="path35544-7"
     inkscape:connector-curvature="0"
     sodipodi:nodetypes="ccssscc" />
  <path
     style="color:#000000;display:inline;overflow:visible;visibility:visible;fill:none;fill-rule:evenodd;stroke:#000000;stroke-width:1;stroke-linecap:butt;stroke-linejoin:miter;stroke-miterlimit:4;stroke-dasharray:none;stroke-dashoffset:0;stroke-opacity:1;marker:none;enable-background:accumulate"
     d="m 270.57147,172.15011 c 0.26925,1.07086 0.41225,2.19187 0.41225,3.34627 0,7.55481 -6.12438,13.67919 -13.67919,13.67919 -7.5548,0 -13.67918,-6.12439 -13.67918,-13.67919 0,-7.5548 6.12438,-13.67919 13.67918,-13.67919 1.92108,0 3.74967,0.39601 5.40859,1.11085"
     id="path35577"
     inkscape:connector-curvature="0"
     sodipodi:nodetypes="cssssc" />
  <path
     style="fill:none;stroke:#000000;stroke-width:1;stroke-linecap:butt;stroke-linejoin:miter;stroke-miterlimit:4;stroke-dasharray:none;stroke-opacity:1"
     d="m 277.6201,149.90523 -14.14141,12.21107 c -2.78092,2.40132 4.90794,11.86486 7.77488,9.51992 l 14.72703,-12.04559"
     id="path14359-1-7-5-3-0-73-1-9-62"
     inkscape:connector-curvature="0"
     sodipodi:nodetypes="cssc" />
  <path
     style="fill:none;stroke:#000000;stroke-width:1;stroke-linecap:butt;stroke-linejoin:miter;stroke-miterlimit:4;stroke-dasharray:none;stroke-opacity:1"
     d="m 258.29169,144.30394 -17.39592,14.93539 c -1.01879,0.87469 -0.33226,2.60929 0.39916,3.93723 l 3.674,6.67046 m 16.05744,18.8067 6.76421,5.92536 c 0.72701,0.63684 2.09007,0.6689 3.2452,-0.31504 l 16.996,-14.47719"
     id="path14359-1-7-5-3-0-73-1-9-76"
     inkscape:connector-curvature="0"
     sodipodi:nodetypes="cssccssc" />
  <path
     style="fill:none;stroke:#000000;stroke-width:1;stroke-linecap:butt;stroke-linejoin:miter;stroke-miterlimit:4;stroke-dasharray:none;stroke-opacity:1"
     d="m 269.80985,181.06736 1.94402,6.0133 c 0.37869,1.17139 0.22226,2.35138 -0.29868,2.8161 l -4.40854,3.93277"
     id="path14359-1-7-5-3-0-73-1-9-4"
     inkscape:connector-curvature="0"
     sodipodi:nodetypes="cssc" />
  <path
     style="fill:none;stroke:#000000;stroke-width:1;stroke-linecap:butt;stroke-linejoin:miter;stroke-miterlimit:4;stroke-dasharray:none;stroke-opacity:1"
     d="m 253.08485,162.37009 -5.73801,-2.73236 c -0.53724,-0.25582 -1.34305,-0.67246 -2.12025,-0.001 l -4.05635,3.50408"
     id="path14359-1-7-5-3-0-73-1-9-91"
     inkscape:connector-curvature="0"
     sodipodi:nodetypes="cssc" />
  <path
     style="fill:none;stroke:#000000;stroke-width:1;stroke-linecap:butt;stroke-linejoin:round;stroke-miterlimit:4;stroke-dasharray:none;stroke-opacity:1"
     d="m 257.50078,176.15784 0.002,-4.55745 1.97229,0 -0.002,4.55745"
     id="path14359-1-7-5-3-0-73-1-9-3"
     inkscape:connector-curvature="0"
     sodipodi:nodetypes="cccc" />
  <path
     style="fill:none;stroke:#000000;stroke-width:1;stroke-linecap:butt;stroke-linejoin:round;stroke-miterlimit:4;stroke-dasharray:none;stroke-opacity:1"
     d="m 261.28758,178.91904 0.002,-2.50627 -5.83797,0 -0.002,2.50627"
     id="path14359-1-7-5-3-0-73-1-9-11"
     inkscape:connector-curvature="0"
     sodipodi:nodetypes="cccc" />
  <path
     style="fill:none;stroke:#000000;stroke-width:1;stroke-linecap:butt;stroke-linejoin:round;stroke-miterlimit:4;stroke-dasharray:none;stroke-opacity:1"
     d="m 252.29595,178.70062 c -1.03255,0 -1.03362,2.66406 -0.002,2.66406 l 11.83372,0 c 0.96287,0 0.92568,-2.66406 0.002,-2.66406 z"
     id="path14359-1-7-5-3-0-73-1-9-05"
     inkscape:connector-curvature="0"
     sodipodi:nodetypes="sssss" />
  <path
     style="fill:none;stroke:#000000;stroke-width:1;stroke-linecap:butt;stroke-linejoin:miter;stroke-miterlimit:4;stroke-dasharray:none;stroke-opacity:1"
     d="m 264.67178,179.95476 -13.15662,-0.002"
     id="path14359-1-7-5-3-0-73-1-9-39"
     inkscape:connector-curvature="0"
     sodipodi:nodetypes="cc" />
  <path
     style="fill:none;fill-rule:evenodd;stroke:#000000;stroke-width:1px;stroke-linecap:butt;stroke-linejoin:miter;stroke-opacity:1"
     d="m 231.30981,161.49315 -1.65672,24.29858"
     id="path35646"
     inkscape:connector-curvature="0" />
  <path
     style="fill:none;fill-rule:evenodd;stroke:#000000;stroke-width:1px;stroke-linecap:butt;stroke-linejoin:miter;stroke-opacity:1"
     d="m 234.46547,156.83855 -1.81451,34.47558"
     id="path35648"
     inkscape:connector-curvature="0" />
  <path
     style="fill:none;fill-rule:evenodd;stroke:#000000;stroke-width:1px;stroke-linecap:butt;stroke-linejoin:miter;stroke-opacity:1"
     d="m 235.01771,194.46979 3.07677,-41.26024"
     id="path35650"
     inkscape:connector-curvature="0" />
  <path
     style="fill:none;fill-rule:evenodd;stroke:#000000;stroke-width:1px;stroke-linecap:butt;stroke-linejoin:miter;stroke-opacity:1"
     d="m 237.93669,197.38877 2.44564,-36.0534"
     id="path35652"
     inkscape:connector-curvature="0" />
  <path
     style="fill:none;fill-rule:evenodd;stroke:#000000;stroke-width:1px;stroke-linecap:butt;stroke-linejoin:miter;stroke-opacity:1"
     d="m 241.09235,159.04752 0.39446,-8.52028"
     id="path35654"
     inkscape:connector-curvature="0" />
  <path
     style="fill:none;fill-rule:evenodd;stroke:#000000;stroke-width:1px;stroke-linecap:butt;stroke-linejoin:miter;stroke-opacity:1"
     d="m 244.24801,156.20742 0.15778,-8.04693"
     id="path35656"
     inkscape:connector-curvature="0" />
  <path
     style="fill:none;fill-rule:evenodd;stroke:#000000;stroke-width:1px;stroke-linecap:butt;stroke-linejoin:miter;stroke-opacity:1"
     d="m 247.32478,153.84068 0.0789,-8.20472"
     id="path35658"
     inkscape:connector-curvature="0" />
  <path
     style="fill:none;fill-rule:evenodd;stroke:#000000;stroke-width:1px;stroke-linecap:butt;stroke-linejoin:miter;stroke-opacity:1"
     d="m 250.40155,151.00059 0,-7.57359"
     id="path35660"
     inkscape:connector-curvature="0" />
  <path
     style="fill:none;fill-rule:evenodd;stroke:#000000;stroke-width:1px;stroke-linecap:butt;stroke-linejoin:miter;stroke-opacity:1"
     d="m 253.47831,148.39717 -0.0789,-7.49469"
     id="path35662"
     inkscape:connector-curvature="0" />
  <path
     style="fill:none;fill-rule:evenodd;stroke:#000000;stroke-width:1px;stroke-linecap:butt;stroke-linejoin:miter;stroke-opacity:1"
     d="m 256.94954,145.3204 -0.0789,-2.68231"
     id="path35664"
     inkscape:connector-curvature="0" />
  <path
     style="fill:none;fill-rule:evenodd;stroke:#000000;stroke-width:1px;stroke-linecap:butt;stroke-linejoin:miter;stroke-opacity:1"
     d="m 243.53799,167.41001 -2.05118,32.58218"
     id="path35666"
     inkscape:connector-curvature="0" />
  <path
     style="fill:none;fill-rule:evenodd;stroke:#000000;stroke-width:1px;stroke-linecap:butt;stroke-linejoin:miter;stroke-opacity:1"
     d="m 245.74695,183.03052 -1.26226,18.46061"
     id="path35668"
     inkscape:connector-curvature="0" />
  <path
     style="fill:none;fill-rule:evenodd;stroke:#000000;stroke-width:1px;stroke-linecap:butt;stroke-linejoin:miter;stroke-opacity:1"
     d="m 247.00921,202.6745 1.02559,-17.04056"
     id="path35670"
     inkscape:connector-curvature="0" />
  <path
     style="fill:none;fill-rule:evenodd;stroke:#000000;stroke-width:1px;stroke-linecap:butt;stroke-linejoin:miter;stroke-opacity:1"
     d="m 249.84931,203.70009 0.8678,-16.01497"
     id="path35672"
     inkscape:connector-curvature="0" />
  <path
     style="fill:none;fill-rule:evenodd;stroke:#000000;stroke-width:1px;stroke-linecap:butt;stroke-linejoin:miter;stroke-opacity:1"
     d="m 252.76829,204.33122 0.86781,-15.6994"
     id="path35674"
     inkscape:connector-curvature="0" />
  <path
     style="fill:none;fill-rule:evenodd;stroke:#000000;stroke-width:1px;stroke-linecap:butt;stroke-linejoin:miter;stroke-opacity:1"
     d="m 256.08173,204.5679 0.63114,-15.38384"
     id="path35676"
     inkscape:connector-curvature="0" />
  <path
     style="fill:none;fill-rule:evenodd;stroke:#000000;stroke-width:1px;stroke-linecap:butt;stroke-linejoin:miter;stroke-opacity:1"
     d="m 258.60626,204.64679 0.86781,-15.6994"
     id="path35678"
     inkscape:connector-curvature="0" />
  <path
     style="fill:none;fill-rule:evenodd;stroke:#000000;stroke-width:1px;stroke-linecap:butt;stroke-linejoin:miter;stroke-opacity:1"
     d="m 261.52525,204.48901 1.18337,-14.20047"
     id="path35680"
     inkscape:connector-curvature="0" />
  <path
     style="fill:none;fill-rule:evenodd;stroke:#000000;stroke-width:1px;stroke-linecap:butt;stroke-linejoin:miter;stroke-opacity:1"
     d="m 264.60201,203.6212 0.63113,-11.20259"
     id="path35682"
     inkscape:connector-curvature="0" />
  <path
     style="fill:none;fill-rule:evenodd;stroke:#000000;stroke-width:1px;stroke-linecap:butt;stroke-linejoin:miter;stroke-opacity:1"
     d="m 267.521,202.59561 0.31556,-7.88915"
     id="path35684"
     inkscape:connector-curvature="0" />
  <path
     style="fill:none;fill-rule:evenodd;stroke:#000000;stroke-width:1px;stroke-linecap:butt;stroke-linejoin:miter;stroke-opacity:1"
     d="m 270.36109,201.33335 0.23668,-6.62689"
     id="path35686"
     inkscape:connector-curvature="0" />
  <path
     style="fill:none;fill-rule:evenodd;stroke:#000000;stroke-width:1px;stroke-linecap:butt;stroke-linejoin:miter;stroke-opacity:1"
     d="m 274.06899,198.88771 0.0789,-7.25801"
     id="path35688"
     inkscape:connector-curvature="0" />
  <path
     style="fill:none;fill-rule:evenodd;stroke:#000000;stroke-width:1px;stroke-linecap:butt;stroke-linejoin:miter;stroke-opacity:1"
     d="m 277.38243,196.44208 0.0789,-7.65248"
     id="path35690"
     inkscape:connector-curvature="0" />
  <path
     style="fill:none;fill-rule:evenodd;stroke:#000000;stroke-width:1px;stroke-linecap:butt;stroke-linejoin:miter;stroke-opacity:1"
     d="m 280.4592,193.75977 0,-7.49469"
     id="path35692"
     inkscape:connector-curvature="0" />
  <path
     style="fill:none;fill-rule:evenodd;stroke:#000000;stroke-width:1px;stroke-linecap:butt;stroke-linejoin:miter;stroke-opacity:1"
     d="m 283.45708,191.31413 -0.0789,-7.49469"
     id="path35694"
     inkscape:connector-curvature="0" />
  <path
     style="fill:none;fill-rule:evenodd;stroke:#000000;stroke-width:1px;stroke-linecap:butt;stroke-linejoin:miter;stroke-opacity:1"
     d="m 286.53384,188.7896 0,-7.81025"
     id="path35696"
     inkscape:connector-curvature="0" />
  <path
     style="fill:none;fill-rule:evenodd;stroke:#000000;stroke-width:1px;stroke-linecap:butt;stroke-linejoin:miter;stroke-opacity:1"
     d="m 289.37394,186.34397 0.0789,-4.97017"
     id="path35698"
     inkscape:connector-curvature="0" />
  <path
     style="fill:none;stroke:#000000;stroke-width:1;stroke-linecap:butt;stroke-linejoin:round;stroke-miterlimit:4;stroke-dasharray:none;stroke-opacity:1"
     d="m 317.06584,136.49368 -29.50741,25.14813 -11.28148,-13.49045 30.45411,-26.17371"
     id="path14359-1-7-5-3-0-73-1-9-50"
     inkscape:connector-curvature="0"
     sodipodi:nodetypes="cccc" />
  <path
     style="fill:#000000;fill-opacity:1;stroke:#000000;stroke-width:1;stroke-linecap:butt;stroke-linejoin:miter;stroke-miterlimit:4;stroke-dasharray:none;stroke-opacity:1"
     d="m 248.86456,188.46326 4.31189,-3.64411 -1.81175,5.34386 -1.25007,-0.84988 z"
     id="path14359-1-7-5-3-0-73-1"
     inkscape:connector-curvature="0"
     sodipodi:nodetypes="ccccc" />
  <path
     style="fill:none;stroke:#000000;stroke-width:1;stroke-linecap:butt;stroke-linejoin:miter;stroke-miterlimit:4;stroke-dasharray:none;stroke-opacity:1"
     d="m 250.10702,189.32612 -32.35273,46.19664 10.41898,0"
     id="path14359-1-7-5-3-0-73-1-9-49"
     inkscape:connector-curvature="0"
     sodipodi:nodetypes="ccc" />
  <path
     style="fill:#000000;fill-opacity:1;stroke:#000000;stroke-width:1;stroke-linecap:butt;stroke-linejoin:miter;stroke-miterlimit:4;stroke-dasharray:none;stroke-opacity:1"
     d="m 284.12855,203.05166 -3.50623,-4.42475 5.28403,1.97949 -0.8889,1.22263 z"
     id="path14359-1-7-5-3-0-73-1-4"
     inkscape:connector-curvature="0"
     sodipodi:nodetypes="ccccc" />
  <path
     style="fill:none;stroke:#000000;stroke-width:1;stroke-linecap:butt;stroke-linejoin:miter;stroke-miterlimit:4;stroke-dasharray:none;stroke-opacity:1"
     d="m 285.03018,201.83704 14.59376,10.37542"
     id="path14359-1-7-5-3-0-73-1-9-73"
     inkscape:connector-curvature="0"
     sodipodi:nodetypes="cc" />
  <path
     style="fill:#000000;fill-opacity:1;stroke:#000000;stroke-width:1;stroke-linecap:butt;stroke-linejoin:miter;stroke-miterlimit:4;stroke-dasharray:none;stroke-opacity:1"
     d="m 279.96115,170.94913 -4.57236,3.31143 5.62249,-0.47646 -0.52507,-1.41749 z"
     id="path14359-1-7-5-3-0-73-1-0"
     inkscape:connector-curvature="0"
     sodipodi:nodetypes="ccccc" />
  <path
     style="fill:none;stroke:#000000;stroke-width:1;stroke-linecap:butt;stroke-linejoin:miter;stroke-miterlimit:4;stroke-dasharray:none;stroke-opacity:1"
     d="m 306.8951,162.06766 -26.40758,10.29741"
     id="path14359-1-7-5-3-0-73-1-9-97"
     inkscape:connector-curvature="0"
     sodipodi:nodetypes="cc" />
  <path
     style="fill:#000000;fill-opacity:1;stroke:#000000;stroke-width:1;stroke-linecap:butt;stroke-linejoin:miter;stroke-miterlimit:4;stroke-dasharray:none;stroke-opacity:1"
     d="m 223.26594,141.80825 5.1991,2.20032 -3.31601,-4.56546 -0.94155,1.18257 z"
     id="path14359-1-7-5-3-0-73-1-0-6"
     inkscape:connector-curvature="0"
     sodipodi:nodetypes="ccccc" />
  <path
     style="fill:none;stroke:#000000;stroke-width:1;stroke-linecap:butt;stroke-linejoin:miter;stroke-miterlimit:4;stroke-dasharray:none;stroke-opacity:1"
     d="m 211.2406,130.50769 12.96488,10.11768"
     id="path14359-1-7-5-3-0-73-1-9-38"
     inkscape:connector-curvature="0"
     sodipodi:nodetypes="cc" />
  <path
     style="fill:#000000;fill-opacity:1;stroke:#000000;stroke-width:1;stroke-linecap:butt;stroke-linejoin:miter;stroke-miterlimit:4;stroke-dasharray:none;stroke-opacity:1"
     d="m 292.80612,120.08916 4.08073,3.90124 -1.48122,-5.44475 -1.29976,0.77176 z"
     id="path14359-1-7-5-3-0-73-1-0-1"
     inkscape:connector-curvature="0"
     sodipodi:nodetypes="ccccc" />
  <path
     style="fill:none;stroke:#000000;stroke-width:1;stroke-linecap:butt;stroke-linejoin:miter;stroke-miterlimit:4;stroke-dasharray:none;stroke-opacity:1"
     d="m 269.38616,89.721785 7.86338,0 16.85458,29.594615"
     id="path14359-1-7-5-3-0-73-1-9-92"
     inkscape:connector-curvature="0"
     sodipodi:nodetypes="ccc" />
  <text
     xml:space="preserve"
     style="font-style:normal;font-variant:normal;font-weight:normal;font-stretch:normal;font-size:12.5px;line-height:150%;font-family:Arial;-inkscape-font-specification:Arial;text-align:start;letter-spacing:-0.1px;word-spacing:0px;text-anchor:start;fill:#000000;fill-opacity:1;stroke:none;stroke-width:1px;stroke-linecap:butt;stroke-linejoin:miter;stroke-opacity:1"
     x="175.15274"
     y="93.589272"
     id="text35792"
     sodipodi:linespacing="150%"><tspan
       sodipodi:role="line"
       id="tspan35794"
       x="175.15274"
       y="93.589272">SUPPORT ARM</tspan></text>
  <text
     xml:space="preserve"
     style="font-style:normal;font-variant:normal;font-weight:normal;font-stretch:normal;font-size:12.5px;line-height:150%;font-family:Arial;-inkscape-font-specification:Arial;text-align:start;letter-spacing:1.4px;word-spacing:0px;text-anchor:start;fill:#000000;fill-opacity:1;stroke:none;stroke-width:1px;stroke-linecap:butt;stroke-linejoin:miter;stroke-opacity:1;"
     x="56.237152"
     y="561.40631"
     id="text35792-4"
     sodipodi:linespacing="150%"><tspan
       sodipodi:role="line"
       id="tspan35794-1"
       x="56.237152"
       y="561.40631">GUIDE WIRE</tspan></text>
  <text
     xml:space="preserve"
     style="font-style:normal;font-variant:normal;font-weight:normal;font-stretch:normal;font-size:12.5px;line-height:100%;font-family:Arial;-inkscape-font-specification:Arial;text-align:start;letter-spacing:-0.1px;word-spacing:0px;text-anchor:start;fill:#000000;fill-opacity:1;stroke:none;stroke-width:1px;stroke-linecap:butt;stroke-linejoin:miter;stroke-opacity:1"
     x="312.51685"
     y="153.39546"
     id="text35792-42"
     sodipodi:linespacing="100%"><tspan
       sodipodi:role="line"
       id="tspan35794-2"
       x="312.51685"
       y="153.39546">  BALL</tspan><tspan
       sodipodi:role="line"
       x="312.51685"
       y="165.89546"
       id="tspan35830">SOCKET</tspan></text>
  <text
     xml:space="preserve"
     style="font-style:normal;font-variant:normal;font-weight:normal;font-stretch:normal;font-size:12.5px;line-height:150%;font-family:Arial;-inkscape-font-specification:Arial;text-align:start;letter-spacing:-0.1px;word-spacing:0px;text-anchor:start;fill:#000000;fill-opacity:1;stroke:none;stroke-width:1px;stroke-linecap:butt;stroke-linejoin:miter;stroke-opacity:1"
     x="231.72935"
     y="239.61406"
     id="text35792-2"
     sodipodi:linespacing="150%"><tspan
       sodipodi:role="line"
       id="tspan35794-22"
       x="231.72935"
       y="239.61406">ACCELEROMETER</tspan></text>
  <text
     xml:space="preserve"
     style="font-style:normal;font-variant:normal;font-weight:normal;font-stretch:normal;font-size:12.5px;line-height:100%;font-family:Arial;-inkscape-font-specification:Arial;text-align:start;letter-spacing:-0.1px;word-spacing:0px;text-anchor:start;fill:#000000;fill-opacity:1;stroke:none;stroke-width:1px;stroke-linecap:butt;stroke-linejoin:miter;stroke-opacity:1"
     x="301.22684"
     y="204.43204"
     id="text35792-42-7"
     sodipodi:linespacing="100%"><tspan
       sodipodi:role="line"
       x="301.22684"
       y="204.43204"
       id="tspan35830-7">   TEST</tspan><tspan
       sodipodi:role="line"
       x="301.22684"
       y="216.93204"
       id="tspan35855">HEADFORM</tspan></text>
  <text
     xml:space="preserve"
     style="font-style:normal;font-variant:normal;font-weight:normal;font-stretch:normal;font-size:12.5px;line-height:150%;font-family:Arial;-inkscape-font-specification:Arial;text-align:start;letter-spacing:1.39999998px;word-spacing:0px;text-anchor:start;fill:#000000;fill-opacity:1;stroke:none;stroke-width:1px;stroke-linecap:butt;stroke-linejoin:miter;stroke-opacity:1"
     x="207.7343"
     y="646.60358"
     id="text35792-4-9"
     sodipodi:linespacing="150%"><tspan
       sodipodi:role="line"
       id="tspan35794-1-7"
       x="207.7343"
       y="646.60358">MONORAIL</tspan></text>
  <text
     xml:space="preserve"
     style="font-style:normal;font-variant:normal;font-weight:normal;font-stretch:normal;font-size:17.5px;line-height:150%;font-family:Arial;-inkscape-font-specification:Arial;text-align:start;letter-spacing:1px;word-spacing:0px;text-anchor:start;fill:#000000;fill-opacity:1;stroke:none;stroke-width:1px;stroke-linecap:butt;stroke-linejoin:miter;stroke-opacity:1"
     x="69.091461"
     y="700.91748"
     id="text35792-4-9-8"
     sodipodi:linespacing="150%"><tspan
       sodipodi:role="line"
       id="tspan35794-1-7-1"
       x="69.091461"
       y="700.91748">Figure 9.  Impact Test Apparatus</tspan></text>
  <text
     sodipodi:linespacing="150%"
     id="text13227"
     y="127.58927"
     x="177.15274"
     style="font-size:12.5px;font-style:normal;font-variant:normal;font-weight:normal;font-stretch:normal;text-align:start;line-height:150%;letter-spacing:-0.1px;word-spacing:0px;text-anchor:start;fill:#000000;fill-opacity:1;stroke:none;font-family:Arial;-inkscape-font-specification:Arial"
     xml:space="preserve"><tspan
       y="127.58927"
       x="177.15274"
       id="tspan13229"
       sodipodi:role="line">HELMET</tspan></text>
</svg>
