<?xml version="1.0" encoding="UTF-8" standalone="no"?>
<!-- Created with Inkscape (http://www.inkscape.org/) -->

<svg
   xmlns:dc="http://purl.org/dc/elements/1.1/"
   xmlns:cc="http://creativecommons.org/ns#"
   xmlns:rdf="http://www.w3.org/1999/02/22-rdf-syntax-ns#"
   xmlns:svg="http://www.w3.org/2000/svg"
   xmlns="http://www.w3.org/2000/svg"
   xmlns:sodipodi="http://sodipodi.sourceforge.net/DTD/sodipodi-0.dtd"
   xmlns:inkscape="http://www.inkscape.org/namespaces/inkscape"
   id="svg8990"
   version="1.1"
   inkscape:version="0.92.2 5c3e80d, 2017-08-06"
   width="636.79999"
   height="387.84"
   viewBox="0 0 597 363.60001"
   sodipodi:docname="er16jy04.005.svg">
  <title id="title_er16jy04.005">FIGURE S1 THORAX IMPACT TEST SET-UP SPECIFICATIONS</title>
  <desc id="desc_er16jy04.005"></desc>
  <metadata
     id="metadata8996">
    <rdf:RDF>
      <cc:Work
         rdf:about="">
        <dc:format>image/svg+xml</dc:format>
        <dc:type
           rdf:resource="http://purl.org/dc/dcmitype/StillImage" />
        <dc:title></dc:title>
      </cc:Work>
    </rdf:RDF>
  </metadata>
  <defs
     id="defs8994" />
  <sodipodi:namedview
     pagecolor="#ffffff"
     bordercolor="#666666"
     borderopacity="1"
     objecttolerance="10"
     gridtolerance="10"
     guidetolerance="10"
     inkscape:pageopacity="0"
     inkscape:pageshadow="2"
     inkscape:window-width="1280"
     inkscape:window-height="756"
     id="namedview8992"
     showgrid="false"
     inkscape:zoom="1.2328308"
     inkscape:cx="214.45065"
     inkscape:cy="181.8"
     inkscape:window-x="0"
     inkscape:window-y="23"
     inkscape:window-maximized="0"
     inkscape:current-layer="svg8990" />
  <path
     style="fill:none;stroke:#000000;stroke-width:1;stroke-linecap:butt;stroke-linejoin:miter;stroke-miterlimit:4;stroke-dasharray:none;stroke-opacity:1"
     d="m 127.27916,41.175274 340.99821,0.002"
     id="path14359-1-7-5-3-0-73-1-9"
     inkscape:connector-curvature="0"
     sodipodi:nodetypes="cc"
     inkscape:transform-center-x="0.16414611"
     inkscape:transform-center-y="0.033660802" />
  <text
     xml:space="preserve"
     style="font-style:normal;font-variant:normal;font-weight:normal;font-stretch:normal;line-height:0%;font-family:Arial;-inkscape-font-specification:Arial;text-align:start;letter-spacing:0.2px;word-spacing:0px;text-anchor:start;fill:#000000;fill-opacity:1;stroke:none;stroke-width:1px;stroke-linecap:butt;stroke-linejoin:miter;stroke-opacity:1"
     x="3.907203"
     y="341.49435"
     id="text9015"><tspan
       sodipodi:role="line"
       id="tspan9017"
       x="3.907203"
       y="341.49435"
       style="font-size:10px;line-height:1.22000003">* 1/3 CABLE WEIGHT NOT TO EXCEED 5% OF THE TOTAL IMPACT PROBE WEIGHT</tspan><tspan
       sodipodi:role="line"
       x="3.907203"
       y="353.69437"
       id="tspan9019"
       style="font-size:10px;line-height:1.22000003">**  PELVIS LUMBAR JOINING SURFACE</tspan></text>
  <text
     xml:space="preserve"
     style="font-style:normal;font-variant:normal;font-weight:normal;font-stretch:normal;line-height:0%;font-family:Arial;-inkscape-font-specification:Arial;text-align:start;letter-spacing:0.2px;word-spacing:0px;text-anchor:start;fill:#000000;fill-opacity:1;stroke:none;stroke-width:1px;stroke-linecap:butt;stroke-linejoin:miter;stroke-opacity:1"
     x="4.5374932"
     y="245.97966"
     id="text9015-5"><tspan
       sodipodi:role="line"
       x="4.5374932"
       y="245.97966"
       id="tspan9019-6"
       style="font-size:10px;line-height:1.22000003">IMPACT PROBE WEIGHT</tspan><tspan
       sodipodi:role="line"
       x="4.5374932"
       y="258.17966"
       id="tspan9062"
       style="font-size:10px;line-height:1.22000003">INCLUDING ALL</tspan><tspan
       sodipodi:role="line"
       x="4.5374932"
       y="270.37967"
       id="tspan9064"
       style="font-size:10px;line-height:1.22000003">INSTRUMENTATION</tspan><tspan
       sodipodi:role="line"
       x="4.5374932"
       y="282.57965"
       id="tspan9066"
       style="font-size:10px;line-height:1.22000003">AND 1/3 OF SUPPORT</tspan><tspan
       sodipodi:role="line"
       x="4.5374932"
       y="294.77966"
       id="tspan9068"
       style="font-size:10px;line-height:1.22000003">CABLE WEIGHT*</tspan><tspan
       sodipodi:role="line"
       x="4.5374932"
       y="306.97968"
       id="tspan9070"
       style="font-size:10px;line-height:1.22000003;letter-spacing:-0.13px">2.86±0.02 kg (6.3±0.05 lb)</tspan></text>
  <text
     xml:space="preserve"
     style="font-style:normal;font-variant:normal;font-weight:normal;font-stretch:normal;line-height:0%;font-family:Arial;-inkscape-font-specification:Arial;text-align:start;letter-spacing:0.2px;word-spacing:0px;text-anchor:start;fill:#000000;fill-opacity:1;stroke:none;stroke-width:1px;stroke-linecap:butt;stroke-linejoin:miter;stroke-opacity:1"
     x="5.3219509"
     y="136.41339"
     id="text9015-5-9"><tspan
       sodipodi:role="line"
       x="5.3219509"
       y="136.41339"
       id="tspan9070-9"
       style="font-size:10px;line-height:1.22000003;letter-spacing:0.2px">PENDULUM ACCELEROMETER</tspan><tspan
       sodipodi:role="line"
       x="5.3219509"
       y="148.61339"
       style="font-size:10px;line-height:1.22000003;letter-spacing:0.2px"
       id="tspan9140">MOUNTED WITH SENSITIVE</tspan><tspan
       sodipodi:role="line"
       x="5.3219509"
       y="160.81339"
       style="font-size:10px;line-height:1.22000003;letter-spacing:0.2px"
       id="tspan9142">AXIS PARALLEL TO PENDULUM</tspan><tspan
       sodipodi:role="line"
       x="5.3219509"
       y="173.0134"
       style="font-size:10px;line-height:1.22000003;letter-spacing:0.2px"
       id="tspan9144">LONGITUDINAL</tspan><tspan
       sodipodi:role="line"
       x="5.3219509"
       y="185.21339"
       style="font-size:10px;line-height:1.22000003;letter-spacing:0.2px"
       id="tspan9146">CENTERLINE</tspan></text>
  <text
     xml:space="preserve"
     style="font-style:normal;font-variant:normal;font-weight:normal;font-stretch:normal;line-height:0%;font-family:Arial;-inkscape-font-specification:Arial;text-align:start;letter-spacing:0.06px;word-spacing:0px;text-anchor:start;fill:#000000;fill-opacity:1;stroke:none;stroke-width:1px;stroke-linecap:butt;stroke-linejoin:miter;stroke-opacity:1"
     x="5.6986818"
     y="69.523422"
     id="text9015-5-9-8"><tspan
       sodipodi:role="line"
       x="5.6986818"
       y="69.523422"
       style="font-size:10px;line-height:1.22000003;letter-spacing:0.06px"
       id="tspan9146-7">IMPACT PROBE SUPPORT CABLES</tspan></text>
  <text
     xml:space="preserve"
     style="font-style:normal;font-variant:normal;font-weight:normal;font-stretch:normal;line-height:0%;font-family:Arial;-inkscape-font-specification:Arial;text-align:start;letter-spacing:0.2px;word-spacing:0px;text-anchor:start;fill:#000000;fill-opacity:1;stroke:none;stroke-width:1px;stroke-linecap:butt;stroke-linejoin:miter;stroke-opacity:1"
     x="439.19687"
     y="190.4118"
     id="text9015-5-9-3"><tspan
       sodipodi:role="line"
       x="439.19687"
       y="190.4118"
       style="font-size:10px;line-height:1.22000003;letter-spacing:0.2px"
       id="tspan9146-4">CENTERLINE OF IMPACT</tspan><tspan
       sodipodi:role="line"
       x="439.19687"
       y="202.6118"
       style="font-size:10px;line-height:1.22000003;letter-spacing:0.2px"
       id="tspan9222">PROBE IS <tspan
   style="letter-spacing:-0.22999997px"
   id="tspan9228">12.7±1mm (0.5±0.04in)</tspan></tspan><tspan
       sodipodi:role="line"
       x="439.19687"
       y="214.8118"
       style="font-size:10px;line-height:1.22000003;letter-spacing:0.2px"
       id="tspan9224">BELOW HORIZONTAL</tspan><tspan
       sodipodi:role="line"
       x="439.19687"
       y="227.01181"
       style="font-size:10px;line-height:1.22000003;letter-spacing:0.2px"
       id="tspan9226">CENTERLINE OF THIRD RIB</tspan></text>
  <text
     xml:space="preserve"
     style="font-style:normal;font-variant:normal;font-weight:normal;font-stretch:normal;line-height:0%;font-family:Arial;-inkscape-font-specification:Arial;text-align:start;letter-spacing:0.2px;word-spacing:0px;text-anchor:start;fill:#000000;fill-opacity:1;stroke:none;stroke-width:1px;stroke-linecap:butt;stroke-linejoin:miter;stroke-opacity:1"
     x="383.67447"
     y="269.54855"
     id="text9015-5-9-3-0"><tspan
       sodipodi:role="line"
       x="383.67447"
       y="269.54855"
       style="font-size:10px;line-height:1.22000003;letter-spacing:0.2px"
       id="tspan9226-5">PELVIC ANGLE ** 8° ±1°</tspan><tspan
       sodipodi:role="line"
       x="383.67447"
       y="281.74857"
       style="font-size:10px;line-height:1.22000003;letter-spacing:0.2px"
       id="tspan9292">FROM HORIZONTAL</tspan><tspan
       sodipodi:role="line"
       x="383.67447"
       y="293.94855"
       style="font-size:10px;line-height:1.22000003;letter-spacing:-0.23px"
       id="tspan9294">(127-3012)</tspan></text>
  <text
     xml:space="preserve"
     style="font-style:italic;font-variant:normal;font-weight:normal;font-stretch:normal;line-height:0%;font-family:Arial;-inkscape-font-specification:'Arial Italic';text-align:start;letter-spacing:1.30999994px;word-spacing:0px;text-anchor:start;fill:#000000;fill-opacity:1;stroke:none"
     x="615.91772"
     y="262.72934"
     id="text6030-8-5-70"><tspan
       sodipodi:role="line"
       id="tspan12787-8"
       x="615.91772"
       y="262.72934"
       style="font-size:12px;line-height:1.25"><tspan
         style="font-style:normal;-inkscape-font-specification:Arial"
         id="tspan12789-1">°</tspan></tspan></text>
  <text
     xml:space="preserve"
     style="font-style:normal;font-variant:normal;font-weight:normal;font-stretch:normal;line-height:0%;font-family:Arial;-inkscape-font-specification:Arial;text-align:start;letter-spacing:0.2px;word-spacing:0px;text-anchor:start;fill:#000000;fill-opacity:1;stroke:none;stroke-width:1px;stroke-linecap:butt;stroke-linejoin:miter;stroke-opacity:1"
     x="384.42441"
     y="145.58136"
     id="text9015-5-9-3-0-0"><tspan
       sodipodi:role="line"
       x="384.42441"
       y="145.58136"
       style="font-size:10px;line-height:1.22000003;letter-spacing:0.2px"
       id="tspan9294-5">ALL RIBS HORIZONTAL</tspan></text>
  <text
     xml:space="preserve"
     style="font-style:normal;font-variant:normal;font-weight:normal;font-stretch:normal;line-height:0%;font-family:Arial;-inkscape-font-specification:Arial;text-align:start;letter-spacing:0.2px;word-spacing:0px;text-anchor:start;fill:#000000;fill-opacity:1;stroke:none;stroke-width:1px;stroke-linecap:butt;stroke-linejoin:miter;stroke-opacity:1"
     x="152.69991"
     y="292.25592"
     id="text9015-5-9-3-0-0-7"><tspan
       sodipodi:role="line"
       x="152.69991"
       y="292.25592"
       style="font-size:10px;line-height:1.22000003;letter-spacing:0.2px"
       id="tspan9294-5-9">COMPLETE ASSEMBLY <tspan
   style="letter-spacing:-0.23px"
   id="tspan9343">(167-0000)</tspan></tspan></text>
  <path
     style="fill:none;stroke:#000000;stroke-width:1;stroke-linecap:butt;stroke-linejoin:miter;stroke-miterlimit:4;stroke-dasharray:none;stroke-opacity:1"
     d="m 188.97759,195.96719 10.05901,1.8e-4 m 2.70297,5e-5 2.70296,5e-5 m 2.70297,5e-5 12.65479,2.3e-4 m 2.9487,5e-5 2.5801,5e-5 m 2.5801,5e-5 12.53194,2.2e-4 m 3.19442,6e-5 2.08865,4e-5 m 3.31728,6e-5 11.3033,2e-4 m 3.31729,6e-5 2.33438,5e-5 m 2.94869,5e-5 12.53193,2.3e-4 m 2.58011,4e-5 2.21151,4e-5 m 2.33438,5e-5 10.65811,1.9e-4"
     id="path14359-1-7-5-3-0-73-1-9-2"
     inkscape:connector-curvature="0"
     sodipodi:nodetypes="cccccccccccccccccccccc"
     inkscape:transform-center-x="0.16414111"
     inkscape:transform-center-y="0.033664302" />
  <path
     style="fill:none;stroke:#000000;stroke-width:1;stroke-linecap:butt;stroke-linejoin:miter;stroke-miterlimit:4;stroke-dasharray:none;stroke-opacity:1"
     d="m 281.0013,193.87853 8.70754,1.2e-4 m 2.82582,4e-5 2.58011,3e-5 2.94869,4e-5 11.54903,1.6e-4 m 3.44015,4e-5 2.33438,4e-5 m 3.44013,4e-5 11.30332,1.5e-4 m 3.07155,5e-5 2.58011,3e-5 m 2.70296,4e-5 11.54904,1.5e-4 m 3.563,5e-5 2.33438,3e-5 m 3.31727,5e-5 11.6719,1.6e-4 m 3.19442,4e-5 2.70297,4e-5 m 2.82582,3e-5 11.6719,1.6e-4 m 3.19442,5e-5 2.45724,3e-5 m 3.19442,4e-5 11.42617,1.6e-4 m 2.94869,4e-5 2.21152,3e-5 m 3.80872,5e-5 8.32372,1.1e-4"
     id="path14359-1-7-5-3-0-73-1-9-0"
     inkscape:connector-curvature="0"
     sodipodi:nodetypes="cccccccccccccccccccccccccccccc"
     inkscape:transform-center-x="0.16414111"
     inkscape:transform-center-y="0.033664302" />
  <path
     style="fill:none;stroke:#000000;stroke-width:1;stroke-linecap:butt;stroke-linejoin:miter;stroke-miterlimit:4;stroke-dasharray:none;stroke-opacity:1"
     d="m 218.20409,104.62999 v 10.79296 m -1e-5,2.9298 -2e-5,2.17372 m -3e-5,3.36454 -3e-5,12.21061 m -3e-5,2.38165 -3e-5,2.5045 m -3e-5,3.11882 -3e-5,12.45634 m -4e-5,2.50451 -2.5e-4,2.34391 m -2.5e-4,3.32681 -2.5e-4,12.91006 m -2.5e-4,2.34391 -2.5e-4,2.46678 m -2.5e-4,2.22105 -2.5e-4,11.43571"
     id="path14359-1-7-5-3-0-73-1-9-5"
     inkscape:connector-curvature="0"
     sodipodi:nodetypes="cccccccccccccccccc"
     inkscape:transform-center-x="0.03366111"
     inkscape:transform-center-y="-0.1641457" />
  <path
     style="fill:none;stroke:#000000;stroke-width:1;stroke-linecap:butt;stroke-linejoin:miter;stroke-miterlimit:4;stroke-dasharray:none;stroke-opacity:1"
     d="m 263.41735,104.62999 -10e-6,10.79296 m -1e-5,2.9298 -10e-6,2.17372 m -3e-5,3.36454 -4e-5,12.21061 m -3e-5,2.38165 -3e-5,2.5045 m -3e-5,3.11882 -3e-5,12.45634 m -3e-5,2.50451 -2.5e-4,2.34391 m -2.5e-4,3.32681 -2.5e-4,12.91006 m -2.5e-4,2.34391 -2.5e-4,2.46678 m -2.5e-4,2.22105 -2.5e-4,11.43571"
     id="path14359-1-7-5-3-0-73-1-9-9"
     inkscape:connector-curvature="0"
     sodipodi:nodetypes="cccccccccccccccccc"
     inkscape:transform-center-x="0.03366111"
     inkscape:transform-center-y="-0.1641457" />
  <path
     style="fill:none;stroke:#000000;stroke-width:1;stroke-linecap:butt;stroke-linejoin:miter;stroke-miterlimit:4;stroke-dasharray:6, 2;stroke-dashoffset:1.29999995;stroke-opacity:1"
     d="m 292.78139,229.33502 58.72609,8.30804"
     id="path14359-1-7-5-3-0-73-1-9-02"
     inkscape:connector-curvature="0"
     sodipodi:nodetypes="cc"
     inkscape:transform-center-x="0.03366111"
     inkscape:transform-center-y="-0.1641457" />
  <path
     style="fill:none;stroke:#000000;stroke-width:1;stroke-linecap:butt;stroke-linejoin:miter;stroke-miterlimit:4;stroke-dasharray:none;stroke-opacity:1"
     d="m 157.27916,268.2101 201.69299,0.002"
     id="path14359-1-7-5-3-0-73-1-9-1"
     inkscape:connector-curvature="0"
     sodipodi:nodetypes="cc"
     inkscape:transform-center-x="0.16414111"
     inkscape:transform-center-y="0.033664302" />
  <path
     style="fill:none;stroke:#000000;stroke-width:1;stroke-linecap:butt;stroke-linejoin:round;stroke-miterlimit:4;stroke-dasharray:none;stroke-opacity:1"
     d="m 306.1485,212.48871 -2.13454,0.04 c -1.79376,0.0336 -1.7559,-3.3262 -0.0127,-3.34188 l 2.21974,-0.02 m 1.57823,-0.0142 2.15367,-0.0194 m 1.32705,-0.0119 2.54838,-0.0229 m 1.47091,-0.0132 2.11778,-0.019 m 1.68621,-0.0152 2.26164,-0.0203 m 1.50679,-0.0136 2.44042,-0.0219 m 1.36325,-0.0123 2.51251,-0.0226 m 1.64935,-0.0148 2.29785,-0.0207 m 1.40043,-0.0126 2.55435,-0.023 0.0486,3.0189 -2.53109,0.0474 m -1.40245,0.0263 -2.36835,0.0444 m -1.61299,0.0302 -2.62014,0.0491 m -1.18519,0.0222 -2.47463,0.0464 m -1.43496,0.0269 -2.4049,0.0451 m -1.58316,0.0297 -2.29123,0.0429 m -1.43698,0.0269 -2.36902,0.0444 m -1.43429,0.0269 -2.26342,0.0424"
     id="path14359-1-7-5-3-0-73-1-9-58"
     inkscape:connector-curvature="0"
     sodipodi:nodetypes="cssccccccccccccccccccccccccccccccccc"
     inkscape:transform-center-x="0.024757909"
     inkscape:transform-center-y="-0.17455894" />
  <path
     style="fill:none;stroke:#000000;stroke-width:1;stroke-linecap:butt;stroke-linejoin:round;stroke-miterlimit:4;stroke-dasharray:none;stroke-opacity:1"
     d="m 336.078,184.68362 -2.40485,0.0113 m -1.29104,0.006 -2.72834,0.0129 m -1.47115,0.007 -2.3319,0.011 m -1.50804,0.007 -2.47578,0.0117 m -1.14835,0.005 -2.90709,0.0137 m -0.96925,0.005 -2.72647,0.0129 m -1.18525,0.006 -2.76253,0.013 m -1.07724,0.005 -2.5115,0.0118 m -1.32794,0.006 -0.78815,0.004 c -1.79404,0.008 -1.82126,-3.23738 -0.0778,-3.23461 l 1.15311,0.002 m 1.25585,0.002 2.51217,0.004 m 0.96888,0.002 3.01455,0.005 m 1.18436,0.002 2.87081,0.005 m 1.11225,0.002 2.44057,0.004 m 1.43523,0.002 2.29668,0.004 m 1.11253,0.002 2.61995,0.004 m 1.47094,0.002 2.36845,0.004 m 1.47158,0.002 2.51211,0.004 m 1.11237,0.002 1.28337,0.002 0.006,3.01928 -1.289,0.006"
     id="path14359-1-7-5-3-0-73-1-9-58-8"
     inkscape:connector-curvature="0"
     sodipodi:nodetypes="cccccccccccccccccssccccccccccccccccccccc"
     inkscape:transform-center-x="0.033264097"
     inkscape:transform-center-y="-0.1658726" />
  <path
     style="fill:none;stroke:#000000;stroke-width:1;stroke-linecap:butt;stroke-linejoin:round;stroke-miterlimit:4;stroke-dasharray:none;stroke-opacity:1"
     d="m 335.61126,190.09035 -2.72713,0.0261 m -1.14792,0.011 -2.83376,0.0271 m -1.18689,0.0113 -2.43835,0.0233 m -1.50847,0.0144 -2.51217,0.024 m -1.04062,0.01 -2.47594,0.0237 m -1.14827,0.011 -2.76301,0.0264 m -1.32906,0.0127 -2.69022,0.0257 m -1.14826,0.011 -2.58497,0.0247 m -1.18381,0.0113 -0.87614,0.008 c -1.794,0.0171 -1.78381,-3.45531 -0.0409,-3.44993 l 1.06078,0.003 m 1.29136,0.004 2.54803,0.008 m 1.36368,0.004 2.61991,0.008 m 1.14836,0.004 2.5837,0.008 m 1.18436,0.004 2.61991,0.008 m 1.29168,0.004 2.54793,0.008 m 1.14836,0.004 2.58381,0.008 m 1.65065,0.005 2.36871,0.007 m 1.11237,0.003 2.58392,0.008 m 1.07647,0.003 1.30616,0.004 0.005,3.01928 -1.27444,0.0122"
     id="path14359-1-7-5-3-0-73-1-9-58-81"
     inkscape:connector-curvature="0"
     sodipodi:nodetypes="cccccccccccccccccssccccccccccccccccccccc"
     inkscape:transform-center-x="0.033031826"
     inkscape:transform-center-y="-0.16554372" />
  <path
     style="fill:none;stroke:#000000;stroke-width:1;stroke-linecap:butt;stroke-linejoin:round;stroke-miterlimit:4;stroke-dasharray:none;stroke-opacity:1"
     d="m 335.46795,195.60005 -2.513,0.0305 m -1.18408,0.0144 -2.83332,0.0344 m -1.43699,0.0174 -2.15288,0.0261 m -1.50832,0.0183 -2.6189,0.0318 m -1.11275,0.0135 -2.65565,0.0322 m -1.00425,0.0122 -2.61933,0.0318 m -1.29303,0.0157 -2.65348,0.0322 m -1.40111,0.017 -2.22551,0.027 m -1.36305,0.0165 -1.04259,0.0126 c -1.79393,0.0217 -1.7792,-2.99793 -0.0361,-3.01907 l 1.0783,-0.006 m 1.1139,-0.006 2.61942,-0.0151 m 1.18401,-0.007 2.65573,-0.0154 m 1.11245,-0.006 2.83494,-0.0164 m 1.21927,-0.007 2.54828,-0.0147 m 1.07718,-0.006 2.61964,-0.0152 m 1.36343,-0.008 2.51177,-0.0145 m 1.22073,-0.007 2.69182,-0.0156 m 0.96724,-0.006 2.83619,-0.0164 m 1.04109,-0.006 1.24267,-0.007 0.0361,2.80376 -1.24295,0.0151"
     id="path14359-1-7-5-3-0-73-1-9-58-3"
     inkscape:connector-curvature="0"
     sodipodi:nodetypes="cccccccccccccccccssccccccccccccccccccccc"
     inkscape:transform-center-x="0.027169189"
     inkscape:transform-center-y="-0.17201204" />
  <path
     style="fill:none;stroke:#000000;stroke-width:1;stroke-linecap:butt;stroke-linejoin:round;stroke-miterlimit:4;stroke-dasharray:none;stroke-opacity:1"
     d="m 335.39614,201.27021 -2.72895,0.0285 m -1.25403,0.0131 -2.47627,0.0258 m -1.32841,0.0139 -2.58393,0.027 m -1.25776,0.0131 -2.43778,0.0254 m -1.18562,0.0124 -2.58281,0.0269 m -1.50782,0.0157 -2.18959,0.0228 m -1.47119,0.0154 -2.44002,0.0255 m -1.47007,0.0153 -2.51291,0.0262 m -1.14862,0.012 -0.83745,0.009 c -1.79398,0.0187 -1.79001,-3.64275 -0.0468,-3.62934 l 0.84888,0.007 m 1.25568,0.01 2.65435,0.0204 m 1.32938,0.0102 2.47603,0.019 m 1.50769,0.0116 2.11664,0.0163 m 1.40004,0.0108 2.4752,0.019 m 1.1483,0.009 2.656,0.0204 m 1.50798,0.0116 2.51164,0.0193 m 1.11241,0.009 2.8346,0.0218 m 1.47237,0.0113 2.22456,0.0171 m 1.18418,0.009 0.96718,0.007 0.0109,3.01927 -1.04912,0.0109"
     id="path14359-1-7-5-3-0-73-1-9-58-4"
     inkscape:connector-curvature="0"
     sodipodi:nodetypes="cccccccccccccccccssccccccccccccccccccccc"
     inkscape:transform-center-x="0.032137405"
     inkscape:transform-center-y="-0.16683277" />
  <path
     style="fill:none;stroke:#000000;stroke-width:1;stroke-linecap:butt;stroke-linejoin:round;stroke-miterlimit:4;stroke-dasharray:none;stroke-opacity:1"
     d="m 333.24547,206.52167 -2.26588,0.0593 m -1.32783,0.0348 -2.83216,0.0741 m -1.32971,0.0348 -2.51409,0.0658 m -1.36182,0.0356 -2.33197,0.061 m -1.65059,0.0432 -2.33197,0.061 m -1.50996,0.0395 -2.29611,0.0601 m -1.29385,0.0339 -2.43861,0.0638 m -1.39862,0.0366 -2.30783,0.0604 c -1.79345,0.0469 -1.81814,-3.23717 -0.0752,-3.26955 l 2.20295,-0.0409 m 1.15198,-0.0214 2.72577,-0.0506 m 1.39843,-0.026 2.29661,-0.0427 m 1.33068,-0.0247 2.47532,-0.046 m 1.39976,-0.026 2.40424,-0.0447 m 1.54259,-0.0287 2.33115,-0.0433 m 1.25693,-0.0233 2.87194,-0.0534 m 1.39842,-0.026 1.90267,-0.0353 m 1.5798,-0.0293 2.81324,-0.0523 0.0752,3.01835 -2.52872,0.0662"
     id="path14359-1-7-5-3-0-73-1-9-58-5"
     inkscape:connector-curvature="0"
     sodipodi:nodetypes="cccccccccccccccssccccccccccccccccccc"
     inkscape:transform-center-x="0.019643361"
     inkscape:transform-center-y="-0.17992171" />
  <path
     style="fill:none;stroke:#000000;stroke-width:1;stroke-linecap:round;stroke-linejoin:round;stroke-miterlimit:4;stroke-dasharray:none;stroke-opacity:1"
     d="m 311.20937,149.37694 2.33062,10.00867"
     id="path14359-1-7-5-3-0-73-1-9-55"
     inkscape:connector-curvature="0"
     sodipodi:nodetypes="cc"
     inkscape:transform-center-x="0.03366111"
     inkscape:transform-center-y="-0.1641457" />
  <path
     style="fill:none;stroke:#000000;stroke-width:1;stroke-linecap:round;stroke-linejoin:round;stroke-miterlimit:4;stroke-dasharray:none;stroke-opacity:1"
     d="m 329.26032,132.40259 -0.0639,1.23671 -1.00232,0.28722 m -4.42179,5.27467 2.92292,-0.84514 1.56156,-0.11303 0.67663,0.48515 0.0181,1.62462 -3.16833,2.37066 3.95233,0.88594 -0.001,1.68492 -2.97546,2.46913 3.99762,0.81831 0.34941,1.86154 -2.89671,2.02524 -0.27875,0.92403"
     id="path14359-1-7-5-3-0-73-1-9-55-2"
     inkscape:connector-curvature="0"
     sodipodi:nodetypes="cccccccccccccccc"
     inkscape:transform-center-x="0.03366111"
     inkscape:transform-center-y="-0.1641457" />
  <path
     style="fill:none;stroke:#000000;stroke-width:1;stroke-linecap:round;stroke-linejoin:round;stroke-miterlimit:4;stroke-dasharray:none;stroke-opacity:1"
     d="m 329.36797,132.1155 -12.61625,15.33781 c -0.43602,0.53008 -0.95003,0.65682 -1.45578,0.78782 l -15.74911,4.07907 c -0.73639,0.19073 -1.65855,-0.39451 -1.89699,-1.21692 l -1.57231,-5.86841 -1.10288,-11.35211 -2.13554,-13.06281 c -0.71224,-4.35669 3.12491,-13.7317 9.22967,-17.71363 5.19153,-3.386248 14.74045,-5.280514 20.9455,-3.722954 0.72068,0.180902 1.62492,0.564727 1.81183,1.582394 l 5.11405,27.8445 c 0.2119,1.15375 0.16144,2.41336 -0.57219,3.30524 z"
     id="path14359-1-7-5-3-0-73-1-9-55-9"
     inkscape:connector-curvature="0"
     sodipodi:nodetypes="sssssccssssss"
     inkscape:transform-center-x="0.03366111"
     inkscape:transform-center-y="-0.1641457" />
  <path
     style="fill:none;stroke:#000000;stroke-width:1;stroke-linecap:round;stroke-linejoin:round;stroke-miterlimit:4;stroke-dasharray:none;stroke-opacity:1"
     d="m 332.31067,130.21352 3.79271,-2.356 c 2.22285,-1.38082 3.28476,-5.39414 3.0476,-9.31986 -0.47335,-7.83531 -4.14957,-15.79685 -12.91495,-18.35726 -0.70615,-0.206272 -1.23696,0.20649 -1.1225,0.79727 l 5.58025,28.80153 c 0.12416,0.64084 0.96072,0.84193 1.61689,0.43432 z"
     id="path14359-1-7-5-3-0-73-1-9-55-6"
     inkscape:connector-curvature="0"
     sodipodi:nodetypes="sssssss"
     inkscape:transform-center-x="0.03366111"
     inkscape:transform-center-y="-0.1641457" />
  <path
     style="fill:none;stroke:#000000;stroke-width:1;stroke-linecap:round;stroke-linejoin:round;stroke-miterlimit:4;stroke-dasharray:none;stroke-opacity:1"
     d="m 303.17078,212.14257 -0.0327,-20.94118 c -0.008,-4.86517 0.76383,-10.62824 1.86021,-15.7042 0.23062,-1.0677 0.36374,-2.17806 1.03455,-3.23656 l 5.71359,-9.01576 c 0.69981,-1.10426 1.34317,-1.60622 2.45357,-2.00935 l 19.14186,-6.94943 c 0.23821,-0.0865 0.34919,-0.34841 0.14004,-0.84212 l -0.50384,-1.18941 c -0.14878,-0.35122 -0.4381,-0.55524 -0.68218,-0.45424 l -24.02336,9.94012 c -0.74789,0.30946 -1.25822,0.98786 -1.62135,1.72067 l -5.37787,10.85867 c -0.33595,0.67834 -0.57547,1.39451 -0.74975,2.26213 l -2.19613,11.46849 0.0617,36.5968 c 0.002,0.96102 0.62352,1.54343 1.43825,1.54343 h 39.73145 c 0.66284,0 1.61938,-0.14335 1.39156,-1.15499 -1.53544,-6.81808 -0.40302,-25.49391 0.11066,-38.89474 0.0408,-1.06322 0.017,-2.07127 -0.10756,-2.94712 L 338.264,164.29092 c -0.17512,-1.23081 -0.42285,-2.30594 -0.91867,-3.36781 l -2.69586,-4.99966 c -0.26774,-0.49654 -0.73854,-0.55554 -1.1068,-0.41818 l -17.88191,6.66997 c -0.91755,0.34224 -1.7814,0.81111 -2.32768,1.65462 l -5.73834,8.86064 c -0.59546,0.91947 -0.84858,2.00825 -1.06142,3.13194 -0.97334,5.13896 -1.892,11.34032 -1.89282,15.71036 l -0.004,20.66206 z"
     id="path14359-1-7-5-3-0-73-1-9-55-99"
     inkscape:connector-curvature="0"
     sodipodi:nodetypes="cssssssssssssscssssssssssssssscc"
     inkscape:transform-center-x="0.03366111"
     inkscape:transform-center-y="-0.1641457" />
  <path
     style="fill:none;stroke:#000000;stroke-width:1;stroke-linecap:round;stroke-linejoin:round;stroke-miterlimit:4;stroke-dasharray:none;stroke-opacity:1"
     d="m 332.63366,165.23881 c 1.0904,0.62498 0.27695,2.12615 -0.82739,1.61122 -5.25557,-2.45057 -10.99515,-2.19985 -15.75421,0.35887 -1.14476,0.61547 -2.35486,-0.91821 -1.03871,-1.68299 5.40488,-3.14064 11.87052,-3.58263 17.62031,-0.2871 z"
     id="path14359-1-7-5-3-0-73-1-9-55-3"
     inkscape:connector-curvature="0"
     sodipodi:nodetypes="sssss"
     inkscape:transform-center-x="0.03366111"
     inkscape:transform-center-y="-0.1641457" />
  <path
     style="fill:none;stroke:#000000;stroke-width:1;stroke-linecap:round;stroke-linejoin:round;stroke-miterlimit:4;stroke-dasharray:none;stroke-opacity:1"
     d="m 299.69901,180.43031 h -29.72558 l -3.82368,-3.10792 0.0801,-13.0493 4.61287,-3.10795 38.55651,0.11827"
     id="path14359-1-7-5-3-0-73-1-9-55-8"
     inkscape:connector-curvature="0"
     sodipodi:nodetypes="cccccc"
     inkscape:transform-center-x="0.03366111"
     inkscape:transform-center-y="-0.1641457" />
  <path
     style="fill:none;stroke:#000000;stroke-width:1;stroke-linecap:round;stroke-linejoin:round;stroke-miterlimit:4;stroke-dasharray:none;stroke-opacity:1"
     d="m 265.95421,176.54044 -2.9914,1.21232 -33.91085,-2.67746 c -0.80344,-0.0634 -1.38044,-0.6824 -1.38101,-1.45868 l -0.005,-6.75412 c -4.8e-4,-0.64297 0.51528,-1.00534 1.23294,-1.09929 l 28.51275,-3.73259 c 1.23782,-0.16205 2.36287,-0.27295 3.35539,0.0447 l 5.73713,1.83636"
     id="path14359-1-7-5-3-0-73-1-9-55-4"
     inkscape:connector-curvature="0"
     sodipodi:nodetypes="ccssssssc"
     inkscape:transform-center-x="0.03366111"
     inkscape:transform-center-y="-0.1641457" />
  <path
     style="fill:none;stroke:#000000;stroke-width:1;stroke-linecap:round;stroke-linejoin:round;stroke-miterlimit:4;stroke-dasharray:none;stroke-opacity:1"
     d="m 227.94963,166.13255 c -0.98973,-0.37125 -1.85191,-1.04583 -2.82216,-1.84887 -0.86622,-0.71693 -2.13884,-0.96186 -3.92065,-0.88536 -3.41823,0.14677 -8.493,0.64353 -9.47874,1.48534 l -4.27272,3.64881 c -0.37541,0.32059 -0.48851,0.59302 -0.47994,0.94453 l 0.0404,1.65818 c 0.0135,0.55195 0.32027,0.97495 0.89227,1.17934 l 5.38872,1.9255 c 0.83442,0.29815 1.66519,0.43064 2.42859,0.4508 3.2056,0.0847 6.48111,0.0171 9.89746,0.0198 0.85817,6.7e-4 1.60881,-0.14094 2.04879,-0.66694"
     id="path14359-1-7-5-3-0-73-1-9-55-7"
     inkscape:connector-curvature="0"
     sodipodi:nodetypes="cssssssssssc"
     inkscape:transform-center-x="0.03366111"
     inkscape:transform-center-y="-0.1641457" />
  <path
     style="fill:none;stroke:#000000;stroke-width:1;stroke-linecap:round;stroke-linejoin:round;stroke-miterlimit:4;stroke-dasharray:none;stroke-opacity:1"
     d="m 224.48033,170.58744 c -3.66328,-0.65891 -3.29248,-3.28308 -5.73938,-3.82298 -2.75655,-0.60823 -5.67612,-0.40205 -5.89391,-1.56917 -0.0938,-0.50287 0.11313,-0.84485 0.71089,-0.92875"
     id="path14359-1-7-5-3-0-73-1-9-55-67"
     inkscape:connector-curvature="0"
     sodipodi:nodetypes="cssc"
     inkscape:transform-center-x="0.03366111"
     inkscape:transform-center-y="-0.1641457" />
  <path
     style="fill:none;stroke:#000000;stroke-width:1;stroke-linecap:round;stroke-linejoin:round;stroke-miterlimit:4;stroke-dasharray:none;stroke-opacity:1"
     d="m 288.54407,183.24249 -0.002,25.45472 h 2.42456 c 1.39383,0 2.9763,-1.16481 2.9765,-3.15391 l 0.002,-19.42287 c 1.7e-4,-1.62823 -1.52331,-2.87794 -2.9765,-2.87794 z"
     id="path14359-1-7-5-3-0-73-1-9-55-25"
     inkscape:connector-curvature="0"
     sodipodi:nodetypes="ccssssc"
     inkscape:transform-center-x="0.03366111"
     inkscape:transform-center-y="-0.1641457" />
  <path
     style="fill:none;stroke:#000000;stroke-width:1;stroke-linecap:round;stroke-linejoin:round;stroke-miterlimit:4;stroke-dasharray:none;stroke-opacity:1"
     d="m 207.79738,203.81488 80.49039,0.002"
     id="path14359-1-7-5-3-0-73-1-9-55-1"
     inkscape:connector-curvature="0"
     sodipodi:nodetypes="cc"
     inkscape:transform-center-x="0.16414111"
     inkscape:transform-center-y="0.033664302" />
  <path
     style="fill:none;stroke:#000000;stroke-width:1;stroke-linecap:round;stroke-linejoin:round;stroke-miterlimit:4;stroke-dasharray:none;stroke-opacity:1"
     d="m 207.79738,189.34633 80.49039,0.002"
     id="path14359-1-7-5-3-0-73-1-9-55-5"
     inkscape:connector-curvature="0"
     sodipodi:nodetypes="cc"
     inkscape:transform-center-x="0.16414111"
     inkscape:transform-center-y="0.033664302" />
  <path
     style="fill:none;stroke:#000000;stroke-width:1;stroke-linecap:round;stroke-linejoin:round;stroke-miterlimit:4;stroke-dasharray:none;stroke-opacity:1"
     d="m 202.16644,182.9271 -0.002,25.49413 h 5.36164 l 0.002,-25.49413 z"
     id="path14359-1-7-5-3-0-73-1-9-55-0"
     inkscape:connector-curvature="0"
     sodipodi:nodetypes="ccccc"
     inkscape:transform-center-x="0.03366111"
     inkscape:transform-center-y="-0.1641457" />
  <path
     style="fill:none;stroke:#000000;stroke-width:1;stroke-linecap:round;stroke-linejoin:round;stroke-miterlimit:4;stroke-dasharray:none;stroke-opacity:1"
     d="m 202.12502,201.12783 h -3.19333 l 0.002,-10.59193 h 3.19333"
     id="path14359-1-7-5-3-0-73-1-9-55-89"
     inkscape:connector-curvature="0"
     sodipodi:nodetypes="cccc"
     inkscape:transform-center-x="0.03366111"
     inkscape:transform-center-y="-0.1641457" />
  <path
     style="fill:none;stroke:#000000;stroke-width:1;stroke-linecap:round;stroke-linejoin:round;stroke-miterlimit:4;stroke-dasharray:none;stroke-opacity:1"
     d="m 302.71929,226.25296 c -1.41465,-0.0243 -2.41607,4.66618 -2.41625,7.52028 l -3e-4,4.9447 c 0.70175,9.6106 0.97497,19.14327 -3e-4,28.44895"
     id="path14359-1-7-5-3-0-73-1-9-55-66"
     inkscape:connector-curvature="0"
     sodipodi:nodetypes="cscc"
     inkscape:transform-center-x="0.03366111"
     inkscape:transform-center-y="-0.1641457" />
  <path
     style="fill:none;stroke:#000000;stroke-width:1;stroke-linecap:round;stroke-linejoin:round;stroke-miterlimit:4;stroke-dasharray:none;stroke-opacity:1"
     d="m 335.66469,226.25296 c 2.38674,1.91123 4.26873,6.68111 4.36896,9.87768 l 0.62032,19.78268 c 0.20279,6.46706 -4.85857,11.48258 -10.86864,11.57216 -19.08582,0.28447 -37.34657,-0.20238 -56.10234,-1.29605 -0.52874,-0.0308 -0.94792,-0.26017 -1.32461,-0.5848 -0.54371,0.42191 -1.12022,0.46184 -1.84161,0.42386 l -13.10561,-0.68997 c -0.5748,-0.0303 -0.97856,-0.31705 -1.09488,-0.78315 l -4.57688,-18.3393 c -0.19764,-0.79192 0.12924,-1.60387 0.88345,-1.75893 l 15.95179,-3.27964 c 0.84655,-0.17405 1.64812,0.32598 1.72305,1.16959 l 2.06152,23.2099"
     id="path14359-1-7-5-3-0-73-1-9-55-14"
     inkscape:connector-curvature="0"
     sodipodi:nodetypes="csssscsssssssc"
     inkscape:transform-center-x="0.03366111"
     inkscape:transform-center-y="-0.1641457" />
  <path
     style="fill:none;stroke:#000000;stroke-width:1;stroke-linecap:round;stroke-linejoin:round;stroke-miterlimit:4;stroke-dasharray:none;stroke-opacity:1"
     d="m 300.24694,238.67217 c -9.57899,0.47224 -19.13454,1.13318 -28.47861,2.03262 -0.99758,0.096 -1.44491,0.71595 -1.51797,1.26636"
     id="path14359-1-7-5-3-0-73-1-9-55-36"
     inkscape:connector-curvature="0"
     sodipodi:nodetypes="csc"
     inkscape:transform-center-x="0.03366111"
     inkscape:transform-center-y="-0.1641457" />
  <path
     style="fill:none;stroke:#000000;stroke-width:1;stroke-linecap:round;stroke-linejoin:round;stroke-miterlimit:4;stroke-dasharray:none;stroke-opacity:1"
     d="m 251.66727,245.52748 c -20.2341,1.00999 -42.4188,2.26831 -61.13933,3.4667 -0.83241,0.0533 -4.21984,-3.34132 -6.03394,-4.79951 -1.84134,-5.19636 -3.43889,-10.39273 -6.80167,-15.58909 -0.37892,-2.20623 -1.34743,-4.60898 -2.39709,-7.03879 -0.55152,-1.27669 -1.74666,-3.09934 -2.86713,-0.57542 -1.13297,2.55209 -1.94216,5.81051 -2.62376,8.81397 -0.20831,0.91792 -0.32565,2.25223 -0.13542,3.36666 0.41708,2.44345 1.34032,6.31632 1.73425,8.05486 0.49521,2.18553 1.68905,5.45292 1.76448,6.48688 0.16304,2.23474 -1.05791,12.32996 -0.96734,15.31704 0.0647,2.13354 3.33248,4.86278 7.0026,4.93357 7.55816,0.14578 11.26051,-5.21209 18.91486,-4.96529 6.56873,0.2118 26.89669,4.9264 40.51346,4.85447 5.27847,-0.0279 15.38508,-0.0307 15.93585,-0.87708 l 1.61877,-2.48745"
     id="path14359-1-7-5-3-0-73-1-9-55-676"
     inkscape:connector-curvature="0"
     sodipodi:nodetypes="csccsssssssssssc"
     inkscape:transform-center-x="0.03366111"
     inkscape:transform-center-y="-0.1641457" />
  <path
     style="fill:none;stroke:#000000;stroke-width:1;stroke-linecap:round;stroke-linejoin:round;stroke-miterlimit:4;stroke-dasharray:none;stroke-opacity:1"
     d="m 188.1725,247.54783 c -2.51804,5.35335 -1.0332,13.13164 0.89061,17.622"
     id="path14359-1-7-5-3-0-73-1-9-55-41"
     inkscape:connector-curvature="0"
     sodipodi:nodetypes="cc"
     inkscape:transform-center-x="0.03366111"
     inkscape:transform-center-y="-0.1641457" />
  <path
     style="fill:none;stroke:#000000;stroke-width:1;stroke-linecap:round;stroke-linejoin:round;stroke-miterlimit:4;stroke-dasharray:none;stroke-opacity:1"
     d="m 225.92792,103.3255 c -2.46241,3.5193 -5.72506,3.42094 -7.76011,1.38241 -1.93695,-1.94026 -5.46455,-1.92002 -6.97367,0.63211"
     id="path14359-1-7-5-3-0-73-1-9-55-68"
     inkscape:connector-curvature="0"
     sodipodi:nodetypes="csc"
     inkscape:transform-center-x="0.03366111"
     inkscape:transform-center-y="-0.1641457" />
  <path
     style="fill:none;stroke:#000000;stroke-width:1;stroke-linecap:round;stroke-linejoin:round;stroke-miterlimit:4;stroke-dasharray:none;stroke-opacity:1"
     d="m 256.46503,105.29372 c 1.9443,-2.67683 5.04014,-2.31486 7.25322,-0.39497 1.86812,1.62062 5.7065,2.28068 7.41691,-2.00409"
     id="path14359-1-7-5-3-0-73-1-9-55-6769"
     inkscape:connector-curvature="0"
     sodipodi:nodetypes="csc"
     inkscape:transform-center-x="0.03366111"
     inkscape:transform-center-y="-0.1641457" />
  <path
     style="fill:none;fill-rule:evenodd;stroke:#000000;stroke-width:1px;stroke-linecap:butt;stroke-linejoin:miter;stroke-opacity:1"
     d="m 157.25414,271.55935 3.09069,-3.33794"
     id="path10170"
     inkscape:connector-curvature="0" />
  <path
     style="fill:none;fill-rule:evenodd;stroke:#000000;stroke-width:1px;stroke-linecap:butt;stroke-linejoin:miter;stroke-opacity:1"
     d="m 157.62502,277.67891 8.83937,-9.39568"
     id="path10172"
     inkscape:connector-curvature="0" />
  <path
     style="fill:none;fill-rule:evenodd;stroke:#000000;stroke-width:1px;stroke-linecap:butt;stroke-linejoin:miter;stroke-opacity:1"
     d="m 163.55914,277.80254 8.90118,-9.58113"
     id="path10174"
     inkscape:connector-curvature="0" />
  <path
     style="fill:none;fill-rule:evenodd;stroke:#000000;stroke-width:1px;stroke-linecap:butt;stroke-linejoin:miter;stroke-opacity:1"
     d="m 169.6787,277.80254 8.71574,-9.51931"
     id="path10176"
     inkscape:connector-curvature="0" />
  <path
     style="fill:none;fill-rule:evenodd;stroke:#000000;stroke-width:1px;stroke-linecap:butt;stroke-linejoin:miter;stroke-opacity:1"
     d="m 175.55101,277.86436 8.90118,-9.64295"
     id="path10178"
     inkscape:connector-curvature="0" />
  <path
     style="fill:none;fill-rule:evenodd;stroke:#000000;stroke-width:1px;stroke-linecap:butt;stroke-linejoin:miter;stroke-opacity:1"
     d="m 181.73238,277.80254 8.65392,-9.58113"
     id="path10180"
     inkscape:connector-curvature="0" />
  <path
     style="fill:none;fill-rule:evenodd;stroke:#000000;stroke-width:1px;stroke-linecap:butt;stroke-linejoin:miter;stroke-opacity:1"
     d="m 187.72831,277.86436 8.71574,-9.64295"
     id="path10182"
     inkscape:connector-curvature="0" />
  <path
     style="fill:none;fill-rule:evenodd;stroke:#000000;stroke-width:1px;stroke-linecap:butt;stroke-linejoin:miter;stroke-opacity:1"
     d="m 193.72425,277.92617 8.71573,-9.76657"
     id="path10184"
     inkscape:connector-curvature="0" />
  <path
     style="fill:none;fill-rule:evenodd;stroke:#000000;stroke-width:1px;stroke-linecap:butt;stroke-linejoin:miter;stroke-opacity:1"
     d="m 199.78199,277.86436 8.71574,-9.64295"
     id="path10186"
     inkscape:connector-curvature="0" />
  <path
     style="fill:none;fill-rule:evenodd;stroke:#000000;stroke-width:1px;stroke-linecap:butt;stroke-linejoin:miter;stroke-opacity:1"
     d="m 205.77792,277.92617 8.71574,-9.70476"
     id="path10188"
     inkscape:connector-curvature="0" />
  <path
     style="fill:none;fill-rule:evenodd;stroke:#000000;stroke-width:1px;stroke-linecap:butt;stroke-linejoin:miter;stroke-opacity:1"
     d="m 211.83567,277.86436 8.59211,-9.64295"
     id="path10190"
     inkscape:connector-curvature="0" />
  <path
     style="fill:none;fill-rule:evenodd;stroke:#000000;stroke-width:1px;stroke-linecap:butt;stroke-linejoin:miter;stroke-opacity:1"
     d="m 217.8316,277.98798 8.65393,-9.76657"
     id="path10192"
     inkscape:connector-curvature="0" />
  <path
     style="fill:none;fill-rule:evenodd;stroke:#000000;stroke-width:1px;stroke-linecap:butt;stroke-linejoin:miter;stroke-opacity:1"
     d="m 223.64209,277.92617 8.77755,-9.64294"
     id="path10194"
     inkscape:connector-curvature="0" />
  <path
     style="fill:none;fill-rule:evenodd;stroke:#000000;stroke-width:1px;stroke-linecap:butt;stroke-linejoin:miter;stroke-opacity:1"
     d="m 229.63803,277.98798 8.90117,-9.89019"
     id="path10196"
     inkscape:connector-curvature="0" />
  <path
     style="fill:none;fill-rule:evenodd;stroke:#000000;stroke-width:1px;stroke-linecap:butt;stroke-linejoin:miter;stroke-opacity:1"
     d="m 235.8194,278.0498 8.71574,-9.8902"
     id="path10198"
     inkscape:connector-curvature="0" />
  <path
     style="fill:none;fill-rule:evenodd;stroke:#000000;stroke-width:1px;stroke-linecap:butt;stroke-linejoin:miter;stroke-opacity:1"
     d="m 241.75352,278.11161 8.77755,-9.82838"
     id="path10200"
     inkscape:connector-curvature="0" />
  <path
     style="fill:none;fill-rule:evenodd;stroke:#000000;stroke-width:1px;stroke-linecap:butt;stroke-linejoin:miter;stroke-opacity:1"
     d="M 247.62582,278.11161 256.527,268.09779"
     id="path10202"
     inkscape:connector-curvature="0" />
  <path
     style="fill:none;fill-rule:evenodd;stroke:#000000;stroke-width:1px;stroke-linecap:butt;stroke-linejoin:miter;stroke-opacity:1"
     d="m 253.55994,278.29705 8.90118,-10.07564"
     id="path10204"
     inkscape:connector-curvature="0" />
  <path
     style="fill:none;fill-rule:evenodd;stroke:#000000;stroke-width:1px;stroke-linecap:butt;stroke-linejoin:miter;stroke-opacity:1"
     d="m 259.6795,278.17342 8.83937,-10.01382"
     id="path10206"
     inkscape:connector-curvature="0" />
  <path
     style="fill:none;fill-rule:evenodd;stroke:#000000;stroke-width:1px;stroke-linecap:butt;stroke-linejoin:miter;stroke-opacity:1"
     d="m 265.79906,278.17342 8.71574,-9.95201"
     id="path10208"
     inkscape:connector-curvature="0" />
  <path
     style="fill:none;fill-rule:evenodd;stroke:#000000;stroke-width:1px;stroke-linecap:butt;stroke-linejoin:miter;stroke-opacity:1"
     d="m 271.42411,278.11161 9.02481,-10.01382"
     id="path10210"
     inkscape:connector-curvature="0" />
  <path
     style="fill:none;fill-rule:evenodd;stroke:#000000;stroke-width:1px;stroke-linecap:butt;stroke-linejoin:miter;stroke-opacity:1"
     d="m 277.54367,278.17342 9.08662,-9.89019"
     id="path10212"
     inkscape:connector-curvature="0" />
  <path
     style="fill:none;fill-rule:evenodd;stroke:#000000;stroke-width:1px;stroke-linecap:butt;stroke-linejoin:miter;stroke-opacity:1"
     d="m 283.72504,278.17342 8.71574,-10.01382"
     id="path10214"
     inkscape:connector-curvature="0" />
  <path
     style="fill:none;fill-rule:evenodd;stroke:#000000;stroke-width:1px;stroke-linecap:butt;stroke-linejoin:miter;stroke-opacity:1"
     d="m 289.59735,278.11161 8.90118,-9.95201"
     id="path10216"
     inkscape:connector-curvature="0" />
  <path
     style="fill:none;fill-rule:evenodd;stroke:#000000;stroke-width:1px;stroke-linecap:butt;stroke-linejoin:miter;stroke-opacity:1"
     d="m 295.6551,278.23524 9.08661,-10.01383"
     id="path10218"
     inkscape:connector-curvature="0" />
  <path
     style="fill:none;fill-rule:evenodd;stroke:#000000;stroke-width:1px;stroke-linecap:butt;stroke-linejoin:miter;stroke-opacity:1"
     d="m 301.71284,278.23524 8.96299,-10.13745"
     id="path10220"
     inkscape:connector-curvature="0" />
  <path
     style="fill:none;fill-rule:evenodd;stroke:#000000;stroke-width:1px;stroke-linecap:butt;stroke-linejoin:miter;stroke-opacity:1"
     d="m 307.8324,278.29705 8.90118,-10.13745"
     id="path10222"
     inkscape:connector-curvature="0" />
  <path
     style="fill:none;fill-rule:evenodd;stroke:#000000;stroke-width:1px;stroke-linecap:butt;stroke-linejoin:miter;stroke-opacity:1"
     d="m 313.95196,278.11161 8.83937,-9.95201"
     id="path10224"
     inkscape:connector-curvature="0" />
  <path
     style="fill:none;fill-rule:evenodd;stroke:#000000;stroke-width:1px;stroke-linecap:butt;stroke-linejoin:miter;stroke-opacity:1"
     d="m 319.88608,278.11161 8.90118,-10.07564"
     id="path10226"
     inkscape:connector-curvature="0" />
  <path
     style="fill:none;fill-rule:evenodd;stroke:#000000;stroke-width:1px;stroke-linecap:butt;stroke-linejoin:miter;stroke-opacity:1"
     d="m 325.75838,278.11161 8.963,-9.8902"
     id="path10228"
     inkscape:connector-curvature="0" />
  <path
     style="fill:none;fill-rule:evenodd;stroke:#000000;stroke-width:1px;stroke-linecap:butt;stroke-linejoin:miter;stroke-opacity:1"
     d="m 331.6925,278.23524 9.02481,-10.07564"
     id="path10230"
     inkscape:connector-curvature="0" />
  <path
     style="fill:none;fill-rule:evenodd;stroke:#000000;stroke-width:1px;stroke-linecap:butt;stroke-linejoin:miter;stroke-opacity:1"
     d="m 337.81206,278.17342 8.90118,-9.95201"
     id="path10232"
     inkscape:connector-curvature="0" />
  <path
     style="fill:none;fill-rule:evenodd;stroke:#000000;stroke-width:1px;stroke-linecap:butt;stroke-linejoin:miter;stroke-opacity:1"
     d="m 343.62255,278.29705 8.963,-10.07564"
     id="path10234"
     inkscape:connector-curvature="0" />
  <path
     style="fill:none;fill-rule:evenodd;stroke:#000000;stroke-width:1px;stroke-linecap:butt;stroke-linejoin:miter;stroke-opacity:1"
     d="m 349.61849,278.23524 9.08662,-9.95201"
     id="path10236"
     inkscape:connector-curvature="0" />
  <path
     style="fill:#000000;fill-opacity:1;stroke:#000000;stroke-width:1;stroke-linecap:butt;stroke-linejoin:miter;stroke-miterlimit:4;stroke-dasharray:none;stroke-opacity:1"
     d="m 193.1217,209.54808 5.46145,-1.4299 -3.93801,4.04122 -0.76172,-1.30566 z"
     id="path14359-1-7-5-3-0-73-1"
     inkscape:connector-curvature="0"
     sodipodi:nodetypes="ccccc" />
  <path
     style="fill:none;stroke:#000000;stroke-width:1;stroke-linecap:butt;stroke-linejoin:miter;stroke-miterlimit:4;stroke-dasharray:none;stroke-opacity:1"
     d="m 193.87096,210.86217 -53.80211,30.82594 h -9.7524"
     id="path14359-1-7-5-3-0-73-1-9-54"
     inkscape:connector-curvature="0"
     sodipodi:nodetypes="ccc"
     inkscape:transform-center-x="-0.12475389"
     inkscape:transform-center-y="-0.1118657" />
  <path
     style="fill:#000000;fill-opacity:1;stroke:#000000;stroke-width:1;stroke-linecap:butt;stroke-linejoin:miter;stroke-miterlimit:4;stroke-dasharray:none;stroke-opacity:1"
     d="m 193.4421,182.17821 3.59301,4.35457 -0.82985,-5.58128 -1.38158,0.61335 z"
     id="path14359-1-7-5-3-0-73-1-0"
     inkscape:connector-curvature="0"
     sodipodi:nodetypes="ccccc" />
  <path
     style="fill:none;stroke:#000000;stroke-width:1;stroke-linecap:butt;stroke-linejoin:miter;stroke-miterlimit:4;stroke-dasharray:none;stroke-opacity:1"
     d="m 163.41959,133.13042 h 9.83105 l 21.57141,48.43323"
     id="path14359-1-7-5-3-0-73-1-9-7"
     inkscape:connector-curvature="0"
     sodipodi:nodetypes="ccc"
     inkscape:transform-center-x="0.097291111"
     inkscape:transform-center-y="-0.1364257" />
  <path
     style="fill:#000000;fill-opacity:1;stroke:#000000;stroke-width:1;stroke-linecap:butt;stroke-linejoin:miter;stroke-miterlimit:4;stroke-dasharray:none;stroke-opacity:1"
     d="m 213.1124,130.51171 3.52774,4.40762 -0.74661,-5.59303 -1.39056,0.59271 z"
     id="path14359-1-7-5-3-0-73-1-0-7"
     inkscape:connector-curvature="0"
     sodipodi:nodetypes="ccccc" />
  <path
     style="fill:none;stroke:#000000;stroke-width:1;stroke-linecap:butt;stroke-linejoin:miter;stroke-miterlimit:4;stroke-dasharray:none;stroke-opacity:1"
     d="m 187.82115,66.156785 26.68021,63.760995"
     id="path14359-1-7-5-3-0-73-1-9-12"
     inkscape:connector-curvature="0"
     sodipodi:nodetypes="cc"
     inkscape:transform-center-x="0.095246111"
     inkscape:transform-center-y="-0.1378557" />
  <path
     style="fill:#000000;fill-opacity:1;stroke:#000000;stroke-width:1;stroke-linecap:butt;stroke-linejoin:miter;stroke-miterlimit:4;stroke-dasharray:none;stroke-opacity:1"
     d="m 255.66003,136.42181 4.90972,2.78687 -2.76574,-4.91834 -1.07199,1.06573 z"
     id="path14359-1-7-5-3-0-73-1-0-4"
     inkscape:connector-curvature="0"
     sodipodi:nodetypes="ccccc" />
  <path
     style="fill:none;stroke:#000000;stroke-width:1;stroke-linecap:butt;stroke-linejoin:miter;stroke-miterlimit:4;stroke-dasharray:none;stroke-opacity:1"
     d="m 177.47229,66.110313 h 10.22429 l 69.03349,69.245217"
     id="path14359-1-7-5-3-0-73-1-9-8"
     inkscape:connector-curvature="0"
     sodipodi:nodetypes="ccc"
     inkscape:transform-center-x="0.13954611"
     inkscape:transform-center-y="-0.092756199" />
  <path
     style="fill:#000000;fill-opacity:1;stroke:#000000;stroke-width:1;stroke-linecap:butt;stroke-linejoin:miter;stroke-miterlimit:4;stroke-dasharray:none;stroke-opacity:1"
     d="m 339.47203,174.01895 -2.39997,5.11001 4.69043,-3.13677 -1.14523,-0.98662 z"
     id="path14359-1-7-5-3-0-73-1-0-9"
     inkscape:connector-curvature="0"
     sodipodi:nodetypes="ccccc" />
  <path
     style="fill:none;stroke:#000000;stroke-width:1;stroke-linecap:butt;stroke-linejoin:miter;stroke-miterlimit:4;stroke-dasharray:none;stroke-opacity:1"
     d="m 378.78303,142.05821 h -9.51646 l -28.64892,32.94537"
     id="path14359-1-7-5-3-0-73-1-9-6"
     inkscape:connector-curvature="0"
     sodipodi:nodetypes="ccc"
     inkscape:transform-center-x="-0.081723891"
     inkscape:transform-center-y="-0.1462807" />
  <path
     style="fill:#000000;fill-opacity:1;stroke:#000000;stroke-width:1;stroke-linecap:butt;stroke-linejoin:miter;stroke-miterlimit:4;stroke-dasharray:none;stroke-opacity:1"
     d="m 338.92901,246.78608 -3.69767,-4.26606 5.36607,1.74489 -0.83421,1.26058 z"
     id="path14359-1-7-5-3-0-73-1-99"
     inkscape:connector-curvature="0"
     sodipodi:nodetypes="ccccc" />
  <path
     style="fill:none;stroke:#000000;stroke-width:1;stroke-linecap:butt;stroke-linejoin:miter;stroke-miterlimit:4;stroke-dasharray:none;stroke-opacity:1"
     d="m 339.77628,245.53293 30.2124,20.42179 h 9.9097"
     id="path14359-1-7-5-3-0-73-1-9-3"
     inkscape:connector-curvature="0"
     sodipodi:nodetypes="ccc"
     inkscape:transform-center-x="0.15549611"
     inkscape:transform-center-y="-0.062425699" />
  <text
     xml:space="preserve"
     style="font-style:normal;font-variant:normal;font-weight:normal;font-stretch:normal;line-height:0%;font-family:Arial;-inkscape-font-specification:Arial;text-align:start;letter-spacing:0.44999999px;word-spacing:-1.38px;text-anchor:start;fill:#000000;fill-opacity:1;stroke:none;stroke-width:1px;stroke-linecap:butt;stroke-linejoin:miter;stroke-opacity:1"
     x="264.33121"
     y="18.583918"
     id="text10309"><tspan
       sodipodi:role="line"
       id="tspan10311"
       x="264.33121"
       y="18.583918"
       style="font-size:12.5px;line-height:1.29999995">FIGURE S1</tspan></text>
  <text
     xml:space="preserve"
     style="font-style:normal;font-variant:normal;font-weight:normal;font-stretch:normal;line-height:0%;font-family:Arial;-inkscape-font-specification:Arial;text-align:start;letter-spacing:0.34999999px;word-spacing:1.05999994px;text-anchor:start;fill:#000000;fill-opacity:1;stroke:none;stroke-width:1px;stroke-linecap:butt;stroke-linejoin:miter;stroke-opacity:1"
     x="128.22577"
     y="37.727772"
     id="text10309-5"><tspan
       sodipodi:role="line"
       id="tspan10311-5"
       x="128.22577"
       y="37.727772"
       style="font-size:13.75px;line-height:1.29999995">THORAX IMPACT TEST SET-UP SPECIFICATIONS</tspan></text>
</svg>
