<?xml version="1.0" encoding="UTF-8" standalone="no"?>
<!-- Created with Inkscape (http://www.inkscape.org/) -->

<svg
   xmlns:dc="http://purl.org/dc/elements/1.1/"
   xmlns:cc="http://creativecommons.org/ns#"
   xmlns:rdf="http://www.w3.org/1999/02/22-rdf-syntax-ns#"
   xmlns:svg="http://www.w3.org/2000/svg"
   xmlns="http://www.w3.org/2000/svg"
   xmlns:sodipodi="http://sodipodi.sourceforge.net/DTD/sodipodi-0.dtd"
   xmlns:inkscape="http://www.inkscape.org/namespaces/inkscape"
   id="svg29368"
   version="1.1"
   inkscape:version="0.92.2 5c3e80d, 2017-08-06"
   width="693.12"
   height="853.12"
   viewBox="0 0 649.79999 799.79999"
   sodipodi:docname="er17oc00.382.svg">
  <metadata
     id="metadata29374">
    <rdf:RDF>
      <cc:Work
         rdf:about="">
        <dc:format>image/svg+xml</dc:format>
        <dc:type
           rdf:resource="http://purl.org/dc/dcmitype/StillImage" />
        <dc:title></dc:title>
      </cc:Work>
    </rdf:RDF>
  </metadata>
  <defs
     id="defs29372" />
  <sodipodi:namedview
     pagecolor="#ffffff"
     bordercolor="#666666"
     borderopacity="1"
     objecttolerance="10"
     gridtolerance="10"
     guidetolerance="10"
     inkscape:pageopacity="0"
     inkscape:pageshadow="2"
     inkscape:window-width="1280"
     inkscape:window-height="756"
     id="namedview29370"
     showgrid="false"
     inkscape:zoom="0.80731687"
     inkscape:cx="412.06904"
     inkscape:cy="527.9201"
     inkscape:window-x="0"
     inkscape:window-y="23"
     inkscape:window-maximized="0"
     inkscape:current-layer="svg29368" />
  <path
     style="fill:none;stroke:#000000;stroke-width:1;stroke-linecap:butt;stroke-linejoin:miter;stroke-miterlimit:4;stroke-dasharray:none;stroke-opacity:1"
     d="M 592.69249,2.6749018 592.74959,744.6486 54.529359,744.6372 54.709379,3.0587268 Z"
     id="path14359-1-7-5-3-0-73-1-9-8"
     inkscape:connector-curvature="0"
     sodipodi:nodetypes="ccccc" />
  <path
     inkscape:connector-curvature="0"
     style="color:#000000;display:inline;overflow:visible;visibility:visible;fill:none;fill-rule:evenodd;stroke:#000000;stroke-width:1;stroke-linecap:butt;stroke-linejoin:miter;stroke-miterlimit:4;stroke-dasharray:none;stroke-dashoffset:0;stroke-opacity:1;marker:none;enable-background:accumulate"
     d="m 299.48113,232.20923 a 35.206359,35.385487 9.7286264 0 1 35.22529,35.30662 35.206359,35.385487 9.7286264 0 1 -35.19769,35.45397 35.206359,35.385487 9.7286264 0 1 -35.22529,-35.30662 35.206359,35.385487 9.7286264 0 1 35.19769,-35.45397 z"
     id="path13036" />
  <path
     inkscape:connector-curvature="0"
     style="color:#000000;display:inline;overflow:visible;visibility:visible;fill:none;fill-rule:evenodd;stroke:#000000;stroke-width:1;stroke-linecap:butt;stroke-linejoin:miter;stroke-miterlimit:4;stroke-dasharray:none;stroke-dashoffset:0;stroke-opacity:1;marker:none;enable-background:accumulate"
     d="m 299.34636,235.9051 a 31.528916,31.689335 9.728532 0 1 31.54585,31.61873 31.528916,31.689335 9.728532 0 1 -31.52114,31.75066 31.528916,31.689335 9.728532 0 1 -31.54586,-31.61868 31.528916,31.689335 9.728532 0 1 31.52115,-31.75071 z"
     id="path13036-6" />
  <path
     inkscape:connector-curvature="0"
     style="color:#000000;display:inline;overflow:visible;visibility:visible;fill:none;fill-rule:evenodd;stroke:#000000;stroke-width:1;stroke-linecap:butt;stroke-linejoin:miter;stroke-miterlimit:4;stroke-dasharray:none;stroke-dashoffset:0;stroke-opacity:1;marker:none;enable-background:accumulate"
     d="m 299.42339,258.77114 a 8.8432532,8.8882474 9.728568 0 1 8.848,8.86846 8.8432532,8.8882474 9.728568 0 1 -8.84107,8.90544 8.8432532,8.8882474 9.728568 0 1 -8.84801,-8.86843 8.8432532,8.8882474 9.728568 0 1 8.84108,-8.90547 z"
     id="path13036-6-6" />
  <path
     style="fill:none;stroke:#000000;stroke-width:1;stroke-linecap:round;stroke-linejoin:round;stroke-miterlimit:4;stroke-dasharray:none;stroke-opacity:1"
     d="m 333.92081,275.64075 9.21669,9.07841 0.01,26.70925 -8.41298,0.0163 -0.007,-17.85999 -11.1532,0.0235"
     id="path14359-1-7-5-3-0-73-1-9-8-7-2-217-5"
     inkscape:connector-curvature="0"
     sodipodi:nodetypes="cccccc" />
  <path
     style="fill:none;stroke:#000000;stroke-width:1;stroke-linecap:round;stroke-linejoin:round;stroke-miterlimit:4;stroke-dasharray:none;stroke-opacity:1"
     d="m 333.77273,258.96934 9.27432,-9.44064 -0.01,-26.70927 -8.41297,0.0216 0.007,17.86003 -12.09419,0.025"
     id="path14359-1-7-5-3-0-73-1-9-8-7-2-217-5-3"
     inkscape:connector-curvature="0"
     sodipodi:nodetypes="cccccc" />
  <text
     xml:space="preserve"
     style="font-style:normal;font-variant:normal;font-weight:normal;font-stretch:normal;line-height:0%;font-family:Arial;-inkscape-font-specification:Arial;text-align:start;letter-spacing:2.8599999px;word-spacing:0px;text-anchor:start;fill:#000000;fill-opacity:1;stroke:none;stroke-width:1px;stroke-linecap:butt;stroke-linejoin:miter;stroke-opacity:1"
     x="55.829868"
     y="760.59973"
     id="text13328"><tspan
       sodipodi:role="line"
       x="55.829868"
       y="760.59973"
       id="tspan16493"
       style="font-size:12.5px;line-height:1.29999995">Figure 25A-1.   Organic Concentration Measurement System.</tspan></text>
  <text
     xml:space="preserve"
     style="font-style:normal;font-variant:normal;font-weight:normal;font-stretch:normal;line-height:0%;font-family:Arial;-inkscape-font-specification:Arial;text-align:center;letter-spacing:0.30000001px;word-spacing:0px;text-anchor:middle;fill:#000000;fill-opacity:1;stroke:none;stroke-width:1px;stroke-linecap:butt;stroke-linejoin:miter;stroke-opacity:1"
     x="-470.25739"
     y="327.23193"
     id="text13205-4-0"
     transform="rotate(-90)"><tspan
       sodipodi:role="line"
       x="-470.10739"
       y="327.23193"
       id="tspan16485"
       style="font-size:15px;line-height:0.93000001">Calibration</tspan><tspan
       sodipodi:role="line"
       x="-467.87732"
       y="341.18195"
       id="tspan30385"
       style="font-size:15px;line-height:0.93000001">Valve  </tspan></text>
  <path
     style="fill:none;stroke:#000000;stroke-width:1;stroke-linecap:round;stroke-linejoin:round;stroke-miterlimit:4;stroke-dasharray:none;stroke-opacity:1"
     d="m 272.10794,501.63063 25.09452,0.0633 -25.03293,-43.84174 25.27517,0.0638 z"
     id="path14359-1-7-5-3-0-73-1-9-19-09-7-4-6"
     inkscape:connector-curvature="0"
     sodipodi:nodetypes="ccccc"
     inkscape:transform-center-x="0.1892947"
     inkscape:transform-center-y="0.0395181" />
  <path
     style="fill:none;stroke:#000000;stroke-width:1;stroke-linecap:round;stroke-linejoin:round;stroke-miterlimit:4;stroke-dasharray:none;stroke-opacity:1"
     d="m 263.75886,479.71744 20.33854,0.0517"
     id="path14359-1-7-5-3-0-73-1-9-19-09-6-8-9"
     inkscape:connector-curvature="0"
     sodipodi:nodetypes="cc"
     inkscape:transform-center-x="0.2344493"
     inkscape:transform-center-y="0.039594657" />
  <path
     style="fill:none;stroke:#000000;stroke-width:1;stroke-linecap:round;stroke-linejoin:round;stroke-miterlimit:4;stroke-dasharray:none;stroke-opacity:1"
     d="m 263.24284,463.70348 -0.11256,31.64982 c -7.54806,-2.54099 -12.6648,-9.0273 -12.81298,-16.13009 -0.16517,-7.91635 6.41022,-13.4098 12.92516,-15.51973 z"
     id="path14359-1-7-5-3-0-73-1-9-19-09-8-8-1"
     inkscape:connector-curvature="0"
     sodipodi:nodetypes="ccscc"
     inkscape:transform-center-x="0.018828938"
     inkscape:transform-center-y="-0.18046831" />
  <text
     xml:space="preserve"
     style="font-style:normal;font-variant:normal;font-weight:normal;font-stretch:normal;line-height:0%;font-family:Arial;-inkscape-font-specification:Arial;text-align:center;letter-spacing:0.30000001px;word-spacing:0px;text-anchor:middle;fill:#000000;fill-opacity:1;stroke:none;stroke-width:1px;stroke-linecap:butt;stroke-linejoin:miter;stroke-opacity:1"
     x="-361.32129"
     y="174.33572"
     id="text13205-4-0-3"
     transform="rotate(-90)"><tspan
       sodipodi:role="line"
       x="-361.1713"
       y="174.33572"
       id="tspan30385-5"
       style="font-size:15px;line-height:0.93000001">Heated</tspan><tspan
       sodipodi:role="line"
       x="-361.1713"
       y="188.28572"
       id="tspan30410"
       style="font-size:15px;line-height:0.93000001">Sample</tspan><tspan
       sodipodi:role="line"
       x="-361.1713"
       y="202.23572"
       id="tspan30412"
       style="font-size:15px;line-height:0.93000001">Line</tspan></text>
  <text
     xml:space="preserve"
     style="font-style:normal;font-variant:normal;font-weight:normal;font-stretch:normal;line-height:0%;font-family:Arial;-inkscape-font-specification:Arial;text-align:center;letter-spacing:0.30000001px;word-spacing:0px;text-anchor:middle;fill:#000000;fill-opacity:1;stroke:none;stroke-width:1px;stroke-linecap:butt;stroke-linejoin:miter;stroke-opacity:1"
     x="-356.61166"
     y="327.39877"
     id="text13205-4-0-6"
     transform="rotate(-90)"><tspan
       sodipodi:role="line"
       x="-356.46167"
       y="327.39877"
       id="tspan30385-1"
       style="font-size:15px;line-height:0.93000001">Particulate</tspan><tspan
       sodipodi:role="line"
       x="-354.2316"
       y="341.34879"
       id="tspan30437"
       style="font-size:15px;line-height:0.93000001">Filter  </tspan></text>
  <text
     xml:space="preserve"
     style="font-style:normal;font-variant:normal;font-weight:normal;font-stretch:normal;line-height:0%;font-family:Arial;-inkscape-font-specification:Arial;text-align:center;letter-spacing:0px;word-spacing:0px;text-anchor:middle;fill:#000000;fill-opacity:1;stroke:none;stroke-width:1px;stroke-linecap:butt;stroke-linejoin:miter;stroke-opacity:1"
     x="-108.01038"
     y="272.22879"
     id="text13205-4-0-65"
     transform="rotate(-90)"><tspan
       sodipodi:role="line"
       x="-108.01038"
       y="272.22879"
       id="tspan30385-6"
       style="font-size:15px;line-height:1.00999999">Organic</tspan><tspan
       sodipodi:role="line"
       x="-108.01038"
       y="287.37878"
       id="tspan30463"
       style="font-size:15px;line-height:1.00999999">Analyzer</tspan><tspan
       sodipodi:role="line"
       x="-108.01038"
       y="302.52878"
       id="tspan30465"
       style="font-size:15px;line-height:1.00999999">and</tspan><tspan
       sodipodi:role="line"
       x="-108.01038"
       y="317.6788"
       id="tspan30467"
       style="font-size:15px;line-height:1.00999999">Recorder</tspan></text>
  <text
     xml:space="preserve"
     style="font-style:normal;font-variant:normal;font-weight:normal;font-stretch:normal;line-height:0%;font-family:Arial;-inkscape-font-specification:Arial;text-align:center;letter-spacing:0.30000001px;word-spacing:0px;text-anchor:middle;fill:#000000;fill-opacity:1;stroke:none;stroke-width:1px;stroke-linecap:butt;stroke-linejoin:miter;stroke-opacity:1"
     x="-263.76462"
     y="365.74863"
     id="text13205-4-0-8"
     transform="rotate(-90)"><tspan
       sodipodi:role="line"
       x="-263.61462"
       y="365.74863"
       id="tspan30385-2"
       style="font-size:15px;line-height:0.93000001">Pump</tspan></text>
  <text
     xml:space="preserve"
     style="font-style:normal;font-variant:normal;font-weight:normal;font-stretch:normal;line-height:0%;font-family:Arial;-inkscape-font-specification:Arial;text-align:center;letter-spacing:0.30000001px;word-spacing:0px;text-anchor:middle;fill:#000000;fill-opacity:1;stroke:none;stroke-width:1px;stroke-linecap:butt;stroke-linejoin:miter;stroke-opacity:1"
     x="-648.00616"
     y="268.62677"
     id="text13205-4-0-8-7"
     transform="rotate(-90)"><tspan
       sodipodi:role="line"
       x="-647.85614"
       y="268.62677"
       id="tspan30385-2-6"
       style="font-size:15px;line-height:0.93000001">Probe</tspan></text>
  <text
     xml:space="preserve"
     style="font-style:normal;font-variant:normal;font-weight:normal;font-stretch:normal;line-height:0%;font-family:Arial;-inkscape-font-specification:Arial;text-align:center;letter-spacing:0.30000001px;word-spacing:0px;text-anchor:middle;fill:#000000;fill-opacity:1;stroke:none;stroke-width:1px;stroke-linecap:butt;stroke-linejoin:miter;stroke-opacity:1"
     x="-632.19525"
     y="496.70755"
     id="text13205-4-0-8-3"
     transform="rotate(-90)"><tspan
       sodipodi:role="line"
       x="-632.04523"
       y="496.70755"
       id="tspan30385-2-65"
       style="font-size:15px;line-height:0.93000001">Stack</tspan></text>
  <path
     style="fill:#000000;fill-opacity:1;stroke:#000000;stroke-width:1;stroke-linecap:butt;stroke-linejoin:miter;stroke-miterlimit:4;stroke-dasharray:none;stroke-opacity:1"
     d="m 265.25716,220.6277 1.76977,-5.36097 -4.28036,3.67668 1.25504,0.84253 z"
     id="path14359-1-7-5-3-0-73-1-0-45"
     inkscape:connector-curvature="0"
     sodipodi:nodetypes="ccccc" />
  <path
     style="fill:none;stroke:#000000;stroke-width:1;stroke-linecap:butt;stroke-linejoin:miter;stroke-miterlimit:4;stroke-dasharray:none;stroke-opacity:1"
     d="M 186.07771,333.14161 264.0017,219.78756"
     id="path14359-1-7-5-3-0-73-1-9-1"
     inkscape:connector-curvature="0"
     sodipodi:nodetypes="cc" />
  <path
     style="fill:#000000;fill-opacity:1;stroke:#000000;stroke-width:1;stroke-linecap:butt;stroke-linejoin:miter;stroke-miterlimit:4;stroke-dasharray:none;stroke-opacity:1"
     d="m 263.92391,321.56219 4.13642,-3.84215 -5.52303,1.15566 0.6929,1.34346 z"
     id="path14359-1-7-5-3-0-73-1-0-45-0"
     inkscape:connector-curvature="0"
     sodipodi:nodetypes="ccccc" />
  <path
     style="fill:none;stroke:#000000;stroke-width:1;stroke-linecap:butt;stroke-linejoin:miter;stroke-miterlimit:4;stroke-dasharray:none;stroke-opacity:1"
     d="m 206.38988,348.89402 56.83961,-28.6734"
     id="path14359-1-7-5-3-0-73-1-9-1-5"
     inkscape:connector-curvature="0"
     sodipodi:nodetypes="cc" />
  <path
     style="fill:#000000;fill-opacity:1;stroke:#000000;stroke-width:1;stroke-linecap:butt;stroke-linejoin:miter;stroke-miterlimit:4;stroke-dasharray:none;stroke-opacity:1"
     d="m 262.26853,428.08635 4.95188,2.71125 -2.84083,-4.87535 -1.05585,1.08173 z"
     id="path14359-1-7-5-3-0-73-1-0-45-4"
     inkscape:connector-curvature="0"
     sodipodi:nodetypes="ccccc" />
  <path
     style="fill:none;stroke:#000000;stroke-width:1;stroke-linecap:butt;stroke-linejoin:miter;stroke-miterlimit:4;stroke-dasharray:none;stroke-opacity:1"
     d="m 207.45377,374.37254 55.86834,52.63123"
     id="path14359-1-7-5-3-0-73-1-9-1-8"
     inkscape:connector-curvature="0"
     sodipodi:nodetypes="cc" />
  <path
     style="color:#000000;display:inline;overflow:visible;visibility:visible;fill:none;fill-rule:evenodd;stroke:#000000;stroke-width:1;stroke-linecap:round;stroke-linejoin:round;stroke-miterlimit:4;stroke-dasharray:none;stroke-dashoffset:0;stroke-opacity:1;marker:none;enable-background:accumulate"
     d="m 258.87086,368.65949 c -2.06013,0 -3.7302,-1.67007 -3.7302,-3.7302 0,-2.06013 1.67007,-3.7302 3.7302,-3.7302 h 45.78118 c 2.06013,0 3.7302,1.67007 3.7302,3.7302 0,2.06013 -1.67007,3.7302 -3.7302,3.7302 z"
     id="path30536"
     inkscape:connector-curvature="0"
     sodipodi:nodetypes="sssssss" />
  <path
     style="color:#000000;display:inline;overflow:visible;visibility:visible;fill:none;fill-rule:evenodd;stroke:#000000;stroke-width:1;stroke-linecap:round;stroke-linejoin:round;stroke-miterlimit:4;stroke-dasharray:none;stroke-dashoffset:0;stroke-opacity:1;marker:none;enable-background:accumulate"
     d="m 262.61426,361.20055 c 3.71255,-6.72488 10.8737,-11.2797 19.09869,-11.2797 8.23597,0 15.40526,4.56699 19.11355,11.30664 m 0.1227,7.58812 c -3.67131,6.86344 -10.90848,11.53281 -19.23625,11.53281 -8.31702,-10e-6 -15.54627,-4.65733 -19.22202,-11.50627"
     id="path30549"
     inkscape:connector-curvature="0"
     sodipodi:nodetypes="csccsc" />
  <path
     style="fill:none;stroke:#000000;stroke-width:1;stroke-linecap:round;stroke-linejoin:round;stroke-miterlimit:4;stroke-dasharray:none;stroke-opacity:1"
     d="m 342.25576,169.02907 0.002,-113.533381 H 233.92389 l -0.002,113.533381 z"
     id="path14359-1-7-5-3-0-73-1-9-8-5-7"
     inkscape:connector-curvature="0"
     sodipodi:nodetypes="ccccc" />
  <path
     style="fill:none;stroke:#000000;stroke-width:1;stroke-linecap:round;stroke-linejoin:round;stroke-miterlimit:4;stroke-dasharray:none;stroke-opacity:1"
     d="m 277.80789,169.22055 -2.8e-4,70.17748 m -2.2e-4,56.33124 -2.2e-4,54.45354 m -1.2e-4,29.85555 -3.1e-4,77.54934 m -1.7e-4,44.22003 -6.8e-4,168.66326 h 14.64613 l 6.7e-4,-168.75715 m 1.8e-4,-44.12614 3.1e-4,-79.89647 m 1e-4,-25.16129 2e-4,-50.04092 m 2.8e-4,-69.66296 2.6e-4,-63.60551"
     id="path14359-1-7-5-3-0-73-1-9-8-5-72"
     inkscape:connector-curvature="0"
     sodipodi:nodetypes="cccccccccccccccc" />
  <path
     style="fill:none;stroke:#000000;stroke-width:1;stroke-linecap:round;stroke-linejoin:round;stroke-miterlimit:4;stroke-dasharray:none;stroke-dashoffset:0;stroke-opacity:1"
     d="m 281.18778,169.22055 -2.5e-4,1.24352 m -2.5e-4,4.99893 -2.5e-4,9.22378 m -2.5e-4,6.40721 -2.5e-4,8.4727 m -2.5e-4,6.21944 -2.5e-4,9.31766 m -6e-5,6.22566 -7e-5,9.04222 m -4e-5,5.45872 -2e-5,1.3772 m -3e-5,60.82887 -1e-5,8.02499 m 0,6.0534 -10e-6,8.86995 m -10e-6,6.64128 v 9.04766 m 0,5.36879 v 7.75421 m 0,30.63444 v 1.70384 m 0,5.92173 v 8.87391 m 0,6.15123 v 8.87391 m 0,5.90348 v 9.47112 m 0,6.18514 v 8.91346 m 0,6.24055 v 9.03506 m 0,44.09023 v 8.67991 m 0,5.86335 v 9.24322 m 0,6.05112 v 8.86768 m 0,6.61443 v 8.30437 m 0,6.51218 v 8.85931 m 0,6.65091 v 8.99805 m 0,5.61817 v 9.46748 m 0,6.11959 v 9.17943 m 0,5.70567 v 9.27331 m 0,6.08121 v 9.64886 m 0,5.79955 v 8.89777 m 0,5.48163 v 2.85283"
     id="path14359-1-7-5-3-0-73-1-9-8-5"
     inkscape:connector-curvature="0"
     sodipodi:nodetypes="cccccccccccccccccccccccccccccccccccccccccccccccccccccccc" />
  <path
     style="fill:none;stroke:#000000;stroke-width:1;stroke-linecap:round;stroke-linejoin:round;stroke-miterlimit:4;stroke-dasharray:none;stroke-dashoffset:0;stroke-opacity:1"
     d="m 286.63313,169.22055 -2.5e-4,1.24352 m -2.5e-4,4.99893 -2.5e-4,9.22378 m -2.5e-4,6.40721 -2.5e-4,8.4727 m -2.5e-4,6.21944 -2.5e-4,9.31766 m -6e-5,6.22566 -7e-5,9.04222 m -9e-5,70.48136 -1e-5,5.20842 m 0,6.05339 -10e-6,8.86995 m 0,6.64129 -1e-5,9.04765 m 0,5.3688 v 8.50529 m 0,29.13228 v 2.45492 m 0,5.92173 v 8.87391 m 0,6.15123 v 8.87391 m 0,5.90348 v 9.47112 m 0,6.18514 v 8.91346 m 0,6.24055 v 9.03506 m 0,44.09022 v 8.67992 m 0,5.86334 v 9.24323 m 0,6.05112 v 8.86768 m 0,6.61443 v 8.30437 m 0,6.51217 v 8.85932 m 0,6.65091 v 8.99805 m 0,5.61817 v 9.46748 m 0,6.11959 v 9.17943 m 0,5.70567 v 9.27331 m 0,6.08121 v 9.64886 m 0,5.79955 v 8.89777 m 0,5.48163 v 2.85283"
     id="path14359-1-7-5-3-0-73-1-9-8-5-8"
     inkscape:connector-curvature="0"
     sodipodi:nodetypes="cccccccccccccccccccccccccccccccccccccccccccccccccccccc" />
  <path
     style="fill:none;stroke:#000000;stroke-width:1;stroke-linecap:round;stroke-linejoin:round;stroke-miterlimit:4;stroke-dasharray:none;stroke-opacity:1"
     d="m 175.21615,647.73283 c -18.99186,-5.14768 -25.27345,-21.73234 -24.99732,-32.20068 0.24469,-9.27628 4.14852,-20.10557 14.2744,-26.77176 l 104.49035,1.8e-4 m 31.61917,5e-5 156.04339,2.7e-4 c 6.79611,10e-6 14.61876,8.06852 14.61876,17.50304 0,10.46273 -5.24141,15.27445 -14.93633,19.85147 -11.13576,5.25724 -21.35023,20.70375 -21.83298,37.79291 -0.40383,14.29543 10.39558,26.82523 22.08347,29.26989"
     id="path14359-1-7-5-3-0-73-1-9-8-5-6"
     inkscape:connector-curvature="0"
     sodipodi:nodetypes="cscccssssc" />
  <path
     style="fill:none;stroke:#000000;stroke-width:1;stroke-linecap:round;stroke-linejoin:round;stroke-miterlimit:4;stroke-dasharray:none;stroke-opacity:1"
     d="m 164.48034,588.75939 c 14.59628,5.13768 21.57517,16.31822 21.95753,29.85552 0.34503,12.21553 -7.36277,30.84999 -23.12763,38.38498 -8.76718,4.19037 -13.25799,8.97332 -13.68602,17.64986 -0.40386,8.18672 5.71826,18.52743 14.86901,18.52745 l 292.15291,5e-4 c 9.61372,-6.59775 14.21287,-18.00216 14.06139,-26.47147 -0.20455,-11.43666 -7.03884,-27.08038 -24.71722,-32.20733"
     id="path14359-1-7-5-3-0-73-1-9-8-5-9"
     inkscape:connector-curvature="0"
     sodipodi:nodetypes="csssscsc" />
</svg>
