<?xml version="1.0" encoding="UTF-8" standalone="no"?>
<!-- Created with Inkscape (http://www.inkscape.org/) -->

<svg
   xmlns:dc="http://purl.org/dc/elements/1.1/"
   xmlns:cc="http://creativecommons.org/ns#"
   xmlns:rdf="http://www.w3.org/1999/02/22-rdf-syntax-ns#"
   xmlns:svg="http://www.w3.org/2000/svg"
   xmlns="http://www.w3.org/2000/svg"
   xmlns:sodipodi="http://sodipodi.sourceforge.net/DTD/sodipodi-0.dtd"
   xmlns:inkscape="http://www.inkscape.org/namespaces/inkscape"
   id="svg36379"
   version="1.1"
   inkscape:version="0.92.2 5c3e80d, 2017-08-06"
   width="693.12"
   height="853.12"
   viewBox="0 0 649.79999 799.79999"
   sodipodi:docname="er17oc00.233.svg">
  <metadata
     id="metadata36385">
    <rdf:RDF>
      <cc:Work
         rdf:about="">
        <dc:format>image/svg+xml</dc:format>
        <dc:type
           rdf:resource="http://purl.org/dc/dcmitype/StillImage" />
        <dc:title></dc:title>
      </cc:Work>
    </rdf:RDF>
  </metadata>
  <defs
     id="defs36383" />
  <sodipodi:namedview
     pagecolor="#ffffff"
     bordercolor="#666666"
     borderopacity="1"
     objecttolerance="10"
     gridtolerance="10"
     guidetolerance="10"
     inkscape:pageopacity="0"
     inkscape:pageshadow="2"
     inkscape:window-width="1280"
     inkscape:window-height="756"
     id="namedview36381"
     showgrid="false"
     inkscape:zoom="0.83194238"
     inkscape:cx="227.14273"
     inkscape:cy="544.37349"
     inkscape:window-x="0"
     inkscape:window-y="23"
     inkscape:window-maximized="0"
     inkscape:current-layer="svg36379" />
  <path
     style="fill:none;stroke:#000000;stroke-width:1;stroke-linecap:butt;stroke-linejoin:miter;stroke-miterlimit:4;stroke-dasharray:none;stroke-opacity:1"
     d="M 595.74329,3.0589436 595.56327,750.18825 H 55.304706 L 55.484726,3.0589436 Z"
     id="path14359-1-7-5-3-0-73-1-9-8"
     inkscape:connector-curvature="0"
     sodipodi:nodetypes="ccccc" />
  <path
     inkscape:connector-curvature="0"
     style="color:#000000;display:inline;overflow:visible;visibility:visible;fill:none;fill-rule:evenodd;stroke:#000000;stroke-width:1;stroke-linecap:butt;stroke-linejoin:miter;stroke-miterlimit:4;stroke-dasharray:none;stroke-dashoffset:0;stroke-opacity:1;marker:none;enable-background:accumulate"
     d="m 317.07505,52.135234 a 34.551553,34.708082 12.452034 0 1 34.3322,34.861227 34.551553,34.708082 12.452034 0 1 -34.78403,34.539659 34.551553,34.708082 12.452034 0 1 -34.3322,-34.86123 34.551553,34.708082 12.452034 0 1 34.78403,-34.539656 z"
     id="path13036" />
  <path
     inkscape:connector-curvature="0"
     style="color:#000000;display:inline;overflow:visible;visibility:visible;fill:none;fill-rule:evenodd;stroke:#000000;stroke-width:1;stroke-linecap:butt;stroke-linejoin:miter;stroke-miterlimit:4;stroke-dasharray:none;stroke-dashoffset:0;stroke-opacity:1;marker:none;enable-background:accumulate"
     d="M 316.91776,55.759184 A 30.942508,31.082687 12.451933 0 1 347.66382,86.979041 30.942508,31.082687 12.451933 0 1 316.51314,117.91089 30.942508,31.082687 12.451933 0 1 285.76707,86.691076 30.942508,31.082687 12.451933 0 1 316.91776,55.759184 Z"
     id="path13036-6" />
  <path
     inkscape:connector-curvature="0"
     style="color:#000000;display:inline;overflow:visible;visibility:visible;fill:none;fill-rule:evenodd;stroke:#000000;stroke-width:1;stroke-linecap:butt;stroke-linejoin:miter;stroke-miterlimit:4;stroke-dasharray:none;stroke-dashoffset:0;stroke-opacity:1;marker:none;enable-background:accumulate"
     d="m 316.83861,78.18628 a 8.6787771,8.7180946 12.45198 0 1 8.62368,8.756589 8.6787771,8.7180946 12.45198 0 1 -8.73719,8.67578 8.6787771,8.7180946 12.45198 0 1 -8.62367,-8.756567 8.6787771,8.7180946 12.45198 0 1 8.73718,-8.675802 z"
     id="path13036-6-6" />
  <path
     style="fill:none;stroke:#000000;stroke-width:1;stroke-linecap:round;stroke-linejoin:round;stroke-miterlimit:4;stroke-dasharray:none;stroke-opacity:1"
     d="m 350.57487,95.075014 9.04342,8.926926 -0.17022,26.08307 -8.31077,-0.0402 0.11354,-17.44128 -11.01772,-0.0513"
     id="path14359-1-7-5-3-0-73-1-9-8-7-2-217-5"
     inkscape:connector-curvature="0"
     sodipodi:nodetypes="cccccc" />
  <path
     style="fill:none;stroke:#000000;stroke-width:1;stroke-linecap:round;stroke-linejoin:round;stroke-miterlimit:4;stroke-dasharray:none;stroke-opacity:1"
     d="m 350.60698,78.478256 9.15911,-8.842264 0.17018,-26.083075 -8.31079,-0.03499 -0.11353,17.441311 -11.50023,-0.0531"
     id="path14359-1-7-5-3-0-73-1-9-8-7-2-217-5-3"
     inkscape:connector-curvature="0"
     sodipodi:nodetypes="cccccc" />
  <text
     xml:space="preserve"
     style="font-style:normal;font-variant:normal;font-weight:normal;font-stretch:normal;line-height:0%;font-family:Arial;-inkscape-font-specification:Arial;text-align:start;letter-spacing:0.64999998px;word-spacing:0px;text-anchor:start;fill:#000000;fill-opacity:1;stroke:none;stroke-width:1px;stroke-linecap:butt;stroke-linejoin:miter;stroke-opacity:1"
     x="-483.27478"
     y="135.85251"
     id="text13205"
     transform="rotate(-90)"><tspan
       sodipodi:role="line"
       x="-483.27478"
       y="135.85251"
       id="tspan15164"
       style="font-size:13.75px;line-height:1.26999998">Manometer</tspan></text>
  <text
     xml:space="preserve"
     style="font-style:normal;font-variant:normal;font-weight:normal;font-stretch:normal;line-height:0%;font-family:Arial;-inkscape-font-specification:Arial;text-align:center;letter-spacing:0.64999998px;word-spacing:0px;text-anchor:middle;fill:#000000;fill-opacity:1;stroke:none;stroke-width:1px;stroke-linecap:butt;stroke-linejoin:miter;stroke-opacity:1"
     x="-89.996346"
     y="214.41914"
     id="text13205-4-3"
     transform="rotate(-90)"><tspan
       sodipodi:role="line"
       x="-89.671349"
       y="214.41914"
       id="tspan15123"
       style="font-size:13.75px;line-height:1.02999997">Coarse Adjust</tspan><tspan
       sodipodi:role="line"
       x="-87.439606"
       y="228.58165"
       id="tspan36080"
       style="font-size:13.75px;line-height:1.02999997">Valve   </tspan></text>
  <text
     xml:space="preserve"
     style="font-style:normal;font-variant:normal;font-weight:normal;font-stretch:normal;line-height:0%;font-family:Arial;-inkscape-font-specification:Arial;text-align:center;letter-spacing:0.64999998px;word-spacing:0px;text-anchor:middle;fill:#000000;fill-opacity:1;stroke:none;stroke-width:1px;stroke-linecap:butt;stroke-linejoin:miter;stroke-opacity:1"
     x="-352.95636"
     y="514.0141"
     id="text13205-4-8"
     transform="rotate(-90)"><tspan
       sodipodi:role="line"
       x="-352.63135"
       y="514.0141"
       id="tspan16481"
       style="font-size:13.75px;line-height:1.01999998">Tedlar</tspan><tspan
       sodipodi:role="line"
       x="-352.63135"
       y="528.03912"
       id="tspan37485"
       style="font-size:13.75px;line-height:1.01999998">Bag</tspan></text>
  <text
     xml:space="preserve"
     style="font-style:normal;font-variant:normal;font-weight:normal;font-stretch:normal;line-height:0%;font-family:Arial;-inkscape-font-specification:Arial;text-align:center;letter-spacing:0.64999998px;word-spacing:0px;text-anchor:middle;fill:#000000;fill-opacity:1;stroke:none;stroke-width:1px;stroke-linecap:butt;stroke-linejoin:miter;stroke-opacity:1"
     x="-310.77875"
     y="214.09991"
     id="text13205-4-81"
     transform="rotate(-90)"><tspan
       sodipodi:role="line"
       x="-310.45374"
       y="214.09991"
       id="tspan16491"
       style="font-size:13.75px;line-height:1">Fine Adjust</tspan><tspan
       sodipodi:role="line"
       x="-310.45374"
       y="227.84991"
       id="tspan37483"
       style="font-size:13.75px;line-height:1">Valve</tspan></text>
  <text
     xml:space="preserve"
     style="font-style:normal;font-variant:normal;font-weight:normal;font-stretch:normal;line-height:0%;font-family:Arial;-inkscape-font-specification:Arial;text-align:center;letter-spacing:0.64999998px;word-spacing:0px;text-anchor:middle;fill:#000000;fill-opacity:1;stroke:none;stroke-width:1px;stroke-linecap:butt;stroke-linejoin:miter;stroke-opacity:1"
     x="-562.22614"
     y="283.12582"
     id="text13205-4-4"
     transform="rotate(-90)"><tspan
       sodipodi:role="line"
       x="-561.90112"
       y="283.12582"
       id="tspan16475"
       style="font-size:13.75px;line-height:1.26999998">Manifold</tspan></text>
  <text
     xml:space="preserve"
     style="font-style:normal;font-variant:normal;font-weight:normal;font-stretch:normal;line-height:0%;font-family:Arial;-inkscape-font-specification:Arial;text-align:start;letter-spacing:3.20000005px;word-spacing:0px;text-anchor:start;fill:#000000;fill-opacity:1;stroke:none;stroke-width:1px;stroke-linecap:butt;stroke-linejoin:miter;stroke-opacity:1"
     x="131.3891"
     y="767.38898"
     id="text13328"><tspan
       sodipodi:role="line"
       x="131.3891"
       y="767.38898"
       id="tspan16493"
       style="font-size:12.5px;line-height:1.29999995">Figure 10A-3.   Sample Bulb Filling System.</tspan></text>
  <text
     xml:space="preserve"
     style="font-style:normal;font-variant:normal;font-weight:normal;font-stretch:normal;line-height:0%;font-family:Arial;-inkscape-font-specification:Arial;text-align:start;letter-spacing:0.34999999px;word-spacing:0px;text-anchor:start;fill:#000000;fill-opacity:1;stroke:none;stroke-width:1px;stroke-linecap:butt;stroke-linejoin:miter;stroke-opacity:1"
     x="-102.76774"
     y="381.73807"
     id="text13205-4-9"
     transform="rotate(-90)"><tspan
       sodipodi:role="line"
       x="-102.76774"
       y="381.73807"
       id="tspan15195"
       style="font-size:13.75px;line-height:1.26999998">Pump</tspan></text>
  <text
     xml:space="preserve"
     style="font-style:normal;font-variant:normal;font-weight:normal;font-stretch:normal;line-height:0%;font-family:Arial;-inkscape-font-specification:Arial;text-align:center;letter-spacing:0.64999998px;word-spacing:0px;text-anchor:middle;fill:#000000;fill-opacity:1;stroke:none;stroke-width:1px;stroke-linecap:butt;stroke-linejoin:miter;stroke-opacity:1"
     x="-550.20007"
     y="438.09354"
     id="text13205-4-4-2"
     transform="rotate(-90)"><tspan
       sodipodi:role="line"
       x="-549.87506"
       y="438.09354"
       id="tspan16473"
       style="font-size:13.75px;line-height:1.26999998">Reaction Bulbs</tspan></text>
  <path
     style="fill:none;fill-rule:evenodd;stroke:#000000;stroke-width:1;stroke-linecap:round;stroke-linejoin:round;stroke-miterlimit:4;stroke-dasharray:none;stroke-opacity:1"
     d="m 491.61894,368.80255 c -0.28984,0.28549 -0.76947,0.34857 -1.12795,0.70164 -0.72417,0.71327 -1.44833,1.82423 -2.37466,2.2804 -0.46291,0.22797 -1.12188,0.57875 -1.48415,0.93555 -2.0413,2.01052 -4.09399,3.59487 -6.41158,4.7362 -0.41076,0.20232 -7.19345,0.0585 -8.07384,0.0585 -1.30318,0 -9.17168,0.33636 -9.97355,-0.0585 -1.21383,-0.59777 -2.41505,-1.07239 -3.562,-1.6372 -0.60867,-0.29977 -4.31581,-0.15061 -4.92741,0 -1.82588,0.44957 -4.57474,-0.48843 -5.93665,-0.93555 -1.63445,-0.5366 -3.19314,-0.1083 -4.86803,-0.70163 -2.08465,0 -4.44377,-0.69738 -6.23349,-1.57874 -0.59167,-0.29139 -1.44346,-0.3308 -1.9591,-0.58472 -1.67602,-0.82538 -3.4835,-1.45237 -5.16486,-2.28039 -0.8682,-0.42756 -5.03344,0.94179 -6.23349,0.35084 -2.03827,-1.00379 -3.80578,-2.16657 -5.81792,-3.15749 -0.95425,-0.46993 -3.99745,-0.0683 -4.21501,-0.17539 -0.15396,-0.0759 -2.34465,-2.77707 -2.73087,-3.15748 -0.43723,-0.43057 -2.69204,0.5645 -3.20576,0.0585 -0.44993,-0.44313 -1.09025,-0.60603 -1.60292,-1.11095 -0.4198,-0.41348 -0.63571,-0.97697 -0.94984,-1.28637 -0.3593,-0.35396 -1.70235,0.24331 -2.07783,0.0584 -0.14189,-0.0698 -0.48793,-0.0128 -0.59366,-0.11696 -0.89297,-0.87951 -1.82745,-2.08109 -2.25593,-3.50829 0.0297,-0.50063 -0.0751,-1.13861 0.11876,-1.52027 1.15251,-2.27025 3.79219,-3.9689 5.75854,-5.90562 0.49218,-0.48474 1.5681,-0.83472 2.25592,-1.28636 0.90998,-0.5975 2.06933,-1.33647 2.79024,-2.04651 0.23898,-0.23539 0.76754,-0.17127 1.00922,-0.40931 0.30782,-0.30318 0.61475,-1.09837 1.18734,-1.28635 1.65379,-0.54296 3.27094,-1.15187 4.92741,-1.69568 0.35317,-0.11586 0.84708,0.10907 1.18732,-0.0584 1.64795,-0.81154 4.12909,-0.50932 5.99601,-0.87708 1.04912,-0.20665 2.03508,-0.72833 3.08704,-0.93553 0.72743,-0.14329 4.91872,-0.66815 5.22427,-0.81862 0.71727,-0.35323 1.55334,-0.72436 2.37465,-0.99401 0.38643,-0.12684 0.946,0.1188 1.30607,-0.0584 1.47888,-0.72831 5.42797,0.0584 7.12396,0.0584 3.36931,0.19865 6.57374,0.0584 9.97357,0.0584 1.22402,0 2.75367,0.1874 3.85882,-0.17544 0.945,-0.31024 3.25307,0.0353 4.03693,-0.35083 0.66152,-0.32578 6.12475,-0.2582 6.76775,0.0585 0.37176,0.18307 1.07835,0.12655 1.36545,0.4093 1.43713,1.41545 4.07944,1.92403 6.05536,2.57274 0.50046,0.16429 6.94871,0.42787 7.36145,0.29236 0.44656,-0.1466 2.21279,-0.34282 2.67148,-0.11697 0.4466,0.21993 1.71284,0.22523 2.01847,0.52623 0.75873,0.74732 1.71296,1.5702 2.61211,2.45582 1.72688,2.41974 2.19444,4.4417 4.51185,6.72419 0.34119,0.33604 0.43556,0.89677 0.77177,1.22789 0.43161,0.42511 1.06543,0.40618 1.48416,0.8186 0.23004,0.22656 0.42653,0.77094 0.65302,0.99402 0.19011,0.18722 -0.11876,0.96327 -0.11876,1.16941 0,0.26523 0.0885,0.90674 -0.0593,1.05249 -0.18589,0.18311 0.0188,1.19093 -0.11877,1.46181 -0.91027,1.7931 -4.23592,1.32755 -5.10551,3.0405 -0.6804,1.34031 -0.71238,3.05885 -0.71238,4.67773 0,0.10232 0.0662,0.57799 0,0.64318 -0.21697,0.21369 -0.42461,0.9038 -0.59369,1.4033 z"
     id="path12703-8"
     inkscape:connector-curvature="0" />
  <path
     style="fill:none;fill-rule:evenodd;stroke:#000000;stroke-width:1;stroke-linecap:round;stroke-linejoin:round;stroke-miterlimit:4;stroke-dasharray:none;stroke-opacity:1"
     d="m 408.9215,353.3661 c 0.60326,-0.29711 1.67858,-0.36692 2.07783,-0.76016 0.54968,-0.54138 1.82781,-0.91193 2.61212,-1.16941 0.47913,-0.1573 0.96906,-0.59419 1.42481,-0.81862 1.0362,-0.51031 2.35897,-1.04734 3.44325,-1.40331 2.54942,-0.83699 5.38459,-0.87271 8.01446,-1.52026 0.52721,-0.1298 1.1073,-0.0127 1.6029,-0.1754 0.97695,-0.32076 2.18752,0.0752 3.20577,-0.17542 1.73961,-0.42835 3.60876,-0.58058 5.22427,-1.11097 0.67776,-0.22253 1.51491,-0.01 2.19655,-0.23389 0.79952,-0.26249 3.5677,-0.0583 4.51185,-0.0583 1.26873,0 4.50401,-0.11966 5.58044,0.23388 1.27603,0.41891 3.56173,-0.11698 4.68995,-0.11698 0.87916,0.18328 1.78974,0.0271 2.61212,-0.17548 1.10721,-0.27262 4.65658,-0.0813 5.69918,0.17541 0.68937,0.16976 1.54632,-0.0584 2.25592,-0.0584 2.55426,0 4.04906,0.29832 6.17411,1.34485 1.0309,0.50768 2.59656,-0.18053 3.68072,0.17542 0.86067,0.28255 3.78605,0.0584 4.86806,0.0584 3.11401,0 5.38153,0.73964 7.0646,2.39732 0.93317,1.30165 2.17645,2.66989 3.38388,3.85911 0.46903,0.46197 1.53646,0.22694 1.95911,0.6432 0.2211,0.21777 0.45678,0.50837 0.65302,0.70166 0.41941,0.41308 -0.2387,2.57395 -0.53429,2.8651 -1.21,1.19175 -2.84187,0.69405 -3.50261,1.34483 -0.88317,0.86984 -0.70065,3.25123 -1.36546,4.56079 -0.43676,0.86037 -1.88229,0.85991 -2.55275,1.52025 -0.54412,0.53593 -1.85423,0.7085 -2.55275,1.0525 -0.62695,0.30875 -1.11535,0.7477 -1.54352,1.16942 -0.48537,0.47804 -1.51531,0.83394 -2.07783,1.11096 -1.15772,0.57012 -10.45174,0.876 -11.87329,0.4093 -1.54604,-0.50758 -4.32179,0.43271 -5.99602,-0.11697 -0.99078,-0.32528 -1.59275,-1.12711 -2.61211,-1.46177 -1.22205,-0.40121 -2.95205,0.23387 -4.21501,0.23387 -1.70268,0 -5.14554,-0.39977 -6.47095,-1.05247 -0.74807,-0.36842 -2.32267,0.11453 -2.84961,-0.0584 -3.25073,0.31557 -6.37227,-0.44851 -9.02369,-1.75424 -0.45513,-0.22412 -1.06768,-0.11673 -1.60289,-0.29235 -0.80261,-0.26351 -4.06633,-0.55557 -4.86805,-0.29236 -0.39917,0.13106 -1.53152,0.19885 -1.95909,0.0584 -0.44381,-0.14569 -0.96229,-0.0939 -1.36543,-0.29234 -0.45019,-0.22171 -0.56571,-0.6879 -0.94985,-0.87707 -0.43998,-0.21668 -0.78518,-0.35744 -1.24671,-0.58472 -1.17213,-0.57724 -4.33945,0.0265 -4.98678,-0.29235 -0.73553,-0.36224 -1.35192,-1.19203 -2.13717,-1.57874 -0.54085,-0.26635 -3.19754,-0.16726 -3.38391,-0.35081 -0.20893,-0.2058 -0.75216,-0.66278 -1.0686,-0.81862 -0.36553,-0.18002 -0.75702,-0.45326 -1.00922,-0.70167 -0.33698,-0.3319 -2.75045,0.0977 -3.38389,-0.52622 -0.32051,-0.3157 -0.46804,-0.81182 -0.83111,-1.16942 -0.39654,-0.39056 -0.51949,-0.27767 -0.44525,-0.497 0.59347,-1.56539 2.00418,-2.69724 3.47292,-3.42053 z"
     id="path12705-8"
     inkscape:connector-curvature="0"
     sodipodi:nodetypes="sssssscsscsccccsssscsscssssccsssssscccccccccsscscscs" />
  <path
     style="fill:none;fill-rule:evenodd;stroke:#000000;stroke-width:1;stroke-linecap:round;stroke-linejoin:round;stroke-miterlimit:4;stroke-dasharray:none;stroke-opacity:1"
     d="m 410.58376,356.58202 c 0.2925,-0.44247 0.647,-1.10504 1.00922,-1.4618 1.19947,-1.18135 8.77252,-3.05549 10.86408,-3.74217 0.74355,-0.24413 1.621,-0.16189 2.37464,-0.4093 0.50139,-0.16461 1.16327,0.10542 1.66227,-0.0584 1.5861,-0.52072 3.57157,0.11392 5.16488,-0.40931 2.38531,-0.7831 5.30417,-0.10409 7.65826,-0.87705 1.23479,-0.40541 2.87393,0.25247 4.15567,0 2.06928,-0.40762 4.58152,-0.0584 6.70841,-0.0584 3.81299,0 7.93493,-0.11697 11.51708,-0.11697 0.53315,-0.10974 1.45329,-0.36618 1.95911,-0.1171 0.79358,0.3908 1.79459,0.6499 2.73084,1.11095 0.85362,0.42037 2.27302,-0.17122 3.20579,0.0584 0.71848,0.17692 1.52144,0 2.25593,0 2.38293,0 5.15678,-0.17807 7.30205,0.52624 1.37547,0.45158 1.78038,2.0462 2.96833,2.63121 0.7842,0.3862 1.87484,1.14493 2.43404,1.69569 0.19526,0.19233 1.17767,0.16592 1.48414,0.46777 0.13503,0.13294 0.49454,0.60457 0.29684,0.99402 -0.7877,1.55164 -3.59033,0.61262 -4.45249,1.46179 -0.34721,0.34197 -0.3562,1.80213 -0.3562,2.33883 0,0.0896 -3.12529,1.20712 -3.56198,1.63724 -0.36396,0.35847 -3.98697,2.14703 -4.57121,2.33884 -0.66632,0.21877 -6.0424,-0.0543 -6.58968,-0.23388 -1.23125,-0.40424 -3.60085,0.33807 -4.63057,0 -0.577,-0.18943 -1.41721,0.0915 -1.95911,-0.17542 -1.18083,-0.58152 -2.58342,-0.63376 -3.8588,-1.05248 -0.36556,-0.11992 -1.26369,-0.0528 -1.60291,0.0585 -0.71483,0.23467 -6.0101,0.17079 -6.35221,0.0584 -3.68594,-0.0419 -7.44081,-0.23872 -10.98278,-1.11088 -0.43559,-0.1073 -2.92498,-0.48355 -3.08705,-0.64319 -0.2043,-0.20121 -2.84266,0.14961 -3.26516,-0.0583 -0.44714,-0.2202 -1.11843,-0.0164 -1.6029,-0.17542 -1.20845,-0.39674 -2.55077,-0.61297 -3.6807,-1.16944 -1.31148,-0.64584 -3.47691,0.50967 -5.10553,-0.29235 -0.99343,-0.48924 -2.14076,-0.73266 -3.14642,-1.22791 -0.52677,-0.25942 -1.45507,0.12651 -2.01846,-0.0583 -0.52276,-0.17162 -0.882,-0.37588 -1.30607,-0.58471 -0.64734,-0.31881 -1.88713,0.30476 -2.43402,-0.23389 -0.097,-0.0955 -0.37799,-0.1384 -0.47491,-0.23388 -0.23233,-0.22881 -0.34847,-0.87707 -0.71242,-0.87707 z"
     id="path12707-9"
     inkscape:connector-curvature="0" />
  <path
     style="fill:none;stroke:#000000;stroke-width:1;stroke-linecap:round;stroke-linejoin:round;stroke-miterlimit:4;stroke-dasharray:none;stroke-opacity:1"
     d="m 284.02572,192.31575 24.44194,0.0614 -24.38194,-42.52045 24.61789,0.0619 z"
     id="path14359-1-7-5-3-0-73-1-9-19-09-7-4-6-5"
     inkscape:connector-curvature="0"
     sodipodi:nodetypes="ccccc"
     inkscape:transform-center-x="0.18437554"
     inkscape:transform-center-y="0.038330104" />
  <path
     style="fill:none;stroke:#000000;stroke-width:1;stroke-linecap:round;stroke-linejoin:round;stroke-miterlimit:4;stroke-dasharray:none;stroke-opacity:1"
     d="m 275.89378,171.06299 19.8096,0.0503"
     id="path14359-1-7-5-3-0-73-1-9-19-09-6-8-9-0"
     inkscape:connector-curvature="0"
     sodipodi:nodetypes="cc"
     inkscape:transform-center-x="0.22836608"
     inkscape:transform-center-y="0.038492143" />
  <path
     style="fill:none;stroke:#000000;stroke-width:1;stroke-linecap:round;stroke-linejoin:round;stroke-miterlimit:4;stroke-dasharray:none;stroke-opacity:1"
     d="m 275.39118,155.53165 -0.10964,30.69594 c -7.35179,-2.46439 -12.33546,-8.75523 -12.4798,-15.64393 -0.16091,-7.67779 6.24354,-13.00567 12.58905,-15.05201 z"
     id="path14359-1-7-5-3-0-73-1-9-19-09-8-8-1-0"
     inkscape:connector-curvature="0"
     sodipodi:nodetypes="ccscc"
     inkscape:transform-center-x="0.018355801"
     inkscape:transform-center-y="-0.17503522" />
  <path
     style="fill:none;stroke:#000000;stroke-width:1;stroke-linecap:round;stroke-linejoin:round;stroke-miterlimit:4;stroke-dasharray:none;stroke-opacity:1"
     d="m 283.99939,254.05265 24.44194,0.0614 -24.38194,-42.52045 24.61789,0.0619 z"
     id="path14359-1-7-5-3-0-73-1-9-19-09-7-4-6-5-1"
     inkscape:connector-curvature="0"
     sodipodi:nodetypes="ccccc"
     inkscape:transform-center-x="0.18437554"
     inkscape:transform-center-y="0.038330104" />
  <path
     style="fill:none;stroke:#000000;stroke-width:1;stroke-linecap:round;stroke-linejoin:round;stroke-miterlimit:4;stroke-dasharray:none;stroke-opacity:1"
     d="m 275.86745,232.79989 19.8096,0.0503"
     id="path14359-1-7-5-3-0-73-1-9-19-09-6-8-9-0-4"
     inkscape:connector-curvature="0"
     sodipodi:nodetypes="cc"
     inkscape:transform-center-x="0.22836608"
     inkscape:transform-center-y="0.038492143" />
  <path
     style="fill:none;stroke:#000000;stroke-width:1;stroke-linecap:round;stroke-linejoin:round;stroke-miterlimit:4;stroke-dasharray:none;stroke-opacity:1"
     d="m 275.36485,217.26855 -0.10964,30.69594 c -7.35179,-2.46439 -12.33546,-8.75523 -12.4798,-15.64393 -0.16091,-7.67779 6.24354,-13.00567 12.58905,-15.05201 z"
     id="path14359-1-7-5-3-0-73-1-9-19-09-8-8-1-0-8"
     inkscape:connector-curvature="0"
     sodipodi:nodetypes="ccscc"
     inkscape:transform-center-x="0.018355801"
     inkscape:transform-center-y="-0.17503522" />
  <path
     style="fill:none;stroke:#000000;stroke-width:1;stroke-linecap:round;stroke-linejoin:round;stroke-miterlimit:4;stroke-dasharray:none;stroke-opacity:1"
     d="m 353.15881,345.53092 -0.0614,24.44194 42.52045,-24.38194 -0.0619,24.61789 z"
     id="path14359-1-7-5-3-0-73-1-9-19-09-7-4-6-5-6"
     inkscape:connector-curvature="0"
     sodipodi:nodetypes="ccccc"
     inkscape:transform-center-x="0.038326072"
     inkscape:transform-center-y="-0.18438001" />
  <path
     style="fill:none;stroke:#000000;stroke-width:1;stroke-linecap:round;stroke-linejoin:round;stroke-miterlimit:4;stroke-dasharray:none;stroke-opacity:1"
     d="m 374.41157,337.39898 -0.0503,19.8096"
     id="path14359-1-7-5-3-0-73-1-9-19-09-6-8-9-0-8"
     inkscape:connector-curvature="0"
     sodipodi:nodetypes="cc"
     inkscape:transform-center-x="0.038488111"
     inkscape:transform-center-y="-0.22837055" />
  <path
     style="fill:none;stroke:#000000;stroke-width:1;stroke-linecap:round;stroke-linejoin:round;stroke-miterlimit:4;stroke-dasharray:none;stroke-opacity:1"
     d="m 389.94291,336.89638 -30.69594,-0.10964 c 2.46439,-7.35179 8.75523,-12.33546 15.64393,-12.4798 7.67779,-0.16091 13.00567,6.24354 15.05201,12.58905 z"
     id="path14359-1-7-5-3-0-73-1-9-19-09-8-8-1-0-9"
     inkscape:connector-curvature="0"
     sodipodi:nodetypes="ccscc"
     inkscape:transform-center-x="-0.17503925"
     inkscape:transform-center-y="-0.018360272" />
  <path
     style="fill:none;stroke:#000000;stroke-width:1;stroke-linecap:round;stroke-linejoin:round;stroke-miterlimit:4;stroke-dasharray:none;stroke-opacity:1"
     d="m 284.24959,687.64387 24.44194,0.0614 -24.38194,-42.52045 24.61789,0.0619 z"
     id="path14359-1-7-5-3-0-73-1-9-19-09-7-4-6-5-18"
     inkscape:connector-curvature="0"
     sodipodi:nodetypes="ccccc"
     inkscape:transform-center-x="0.18437554"
     inkscape:transform-center-y="0.038330104" />
  <path
     style="fill:none;stroke:#000000;stroke-width:1;stroke-linecap:round;stroke-linejoin:round;stroke-miterlimit:4;stroke-dasharray:none;stroke-opacity:1"
     d="m 276.11765,666.39111 19.8096,0.0503"
     id="path14359-1-7-5-3-0-73-1-9-19-09-6-8-9-0-6"
     inkscape:connector-curvature="0"
     sodipodi:nodetypes="cc"
     inkscape:transform-center-x="0.22836608"
     inkscape:transform-center-y="0.038492143" />
  <path
     style="fill:none;stroke:#000000;stroke-width:1;stroke-linecap:round;stroke-linejoin:round;stroke-miterlimit:4;stroke-dasharray:none;stroke-opacity:1"
     d="m 275.61505,650.85977 -0.10964,30.69594 c -7.35179,-2.46439 -12.33546,-8.75523 -12.4798,-15.64393 -0.16091,-7.67779 6.24354,-13.00567 12.58905,-15.05201 z"
     id="path14359-1-7-5-3-0-73-1-9-19-09-8-8-1-0-1"
     inkscape:connector-curvature="0"
     sodipodi:nodetypes="ccscc"
     inkscape:transform-center-x="0.018355801"
     inkscape:transform-center-y="-0.17503522" />
  <path
     style="fill:none;stroke:#000000;stroke-width:1;stroke-linecap:round;stroke-linejoin:round;stroke-miterlimit:4;stroke-dasharray:none;stroke-opacity:1"
     d="m 377.94857,490.61804 -0.002,4.59759 h -7.79274 l 0.002,-4.59759 z"
     id="path14359-1-7-5-3-0-73-1-9-8-5-0"
     inkscape:connector-curvature="0"
     sodipodi:nodetypes="ccccc" />
  <path
     style="fill:none;stroke:#000000;stroke-width:1;stroke-linecap:round;stroke-linejoin:round;stroke-miterlimit:4;stroke-dasharray:none;stroke-opacity:1"
     d="m 339.36866,520.508 -0.002,3.65569 h -4.95901 l 0.002,-3.65569 z"
     id="path14359-1-7-5-3-0-73-1-9-8-5-8"
     inkscape:connector-curvature="0"
     sodipodi:nodetypes="ccccc" />
  <path
     style="fill:none;stroke:#000000;stroke-width:1;stroke-linecap:round;stroke-linejoin:round;stroke-miterlimit:4;stroke-dasharray:none;stroke-opacity:1"
     d="m 332.32871,522.24469 1.93482,7.6e-4 m 5.27864,3.3e-4 1.86348,9.1e-4"
     id="path14359-1-7-5-3-0-73-1-9-8-5-1"
     inkscape:connector-curvature="0"
     sodipodi:nodetypes="cccc" />
  <path
     style="fill:none;stroke:#000000;stroke-width:1;stroke-linecap:round;stroke-linejoin:round;stroke-miterlimit:4;stroke-dasharray:none;stroke-opacity:1"
     d="m 372.02609,541.09321 -0.001,6.51685 -17.08688,0.0682 c -4.04437,1.75149 -6.98646,5.56342 -7.49697,10.08979 l -6.84804,-0.0332 -0.004,-4.68665 h -6.73009 l 0.0105,4.68639 -36.20328,0.0146 0.047,-42.00053 36.05715,0.0112 -0.0123,4.51645 h 6.73009 l 0.0446,-4.42493 6.86228,-0.1068 c 0.64774,4.4164 3.60703,8.09175 7.60057,9.74411 l 48.15689,-0.0228 c 4.45055,-1.92405 7.61687,-6.3597 7.65067,-11.54573 v 5e-5 c 0.0341,-5.23905 -3.13848,-9.74207 -7.6647,-11.61184 l -26.8735,-0.0407 10e-4,-6.51352"
     id="path14359-1-7-5-3-0-73-1-9-8-5-9-2"
     inkscape:connector-curvature="0"
     sodipodi:nodetypes="cccccccccccccccccscccc" />
  <path
     style="fill:none;stroke:#000000;stroke-width:1;stroke-linecap:round;stroke-linejoin:round;stroke-miterlimit:4;stroke-dasharray:none;stroke-opacity:1"
     d="m 378.04775,535.95709 -0.002,4.59759 h -7.79274 l 0.002,-4.59759 z"
     id="path14359-1-7-5-3-0-73-1-9-8-5-0-3"
     inkscape:connector-curvature="0"
     sodipodi:nodetypes="ccccc" />
  <path
     style="fill:none;stroke:#000000;stroke-width:1;stroke-linecap:round;stroke-linejoin:round;stroke-miterlimit:4;stroke-dasharray:none;stroke-opacity:1"
     d="m 339.46784,565.84705 -0.002,3.65569 h -4.95901 l 0.002,-3.65569 z"
     id="path14359-1-7-5-3-0-73-1-9-8-5-8-2"
     inkscape:connector-curvature="0"
     sodipodi:nodetypes="ccccc" />
  <path
     style="fill:none;stroke:#000000;stroke-width:1;stroke-linecap:round;stroke-linejoin:round;stroke-miterlimit:4;stroke-dasharray:none;stroke-opacity:1"
     d="m 332.42789,567.58374 1.93482,7.6e-4 m 5.27864,3.3e-4 1.86348,9.1e-4"
     id="path14359-1-7-5-3-0-73-1-9-8-5-1-2"
     inkscape:connector-curvature="0"
     sodipodi:nodetypes="cccc" />
  <path
     style="fill:none;stroke:#000000;stroke-width:1;stroke-linecap:round;stroke-linejoin:round;stroke-miterlimit:4;stroke-dasharray:none;stroke-opacity:1"
     d="m 372.02609,586.57921 -0.001,6.51685 -17.08688,0.0682 c -4.04437,1.75149 -6.98646,5.56342 -7.49697,10.08979 l -6.84804,-0.0332 -0.004,-4.68665 h -6.73009 l 0.0105,4.68639 -36.37359,0.0421 0.0533,-42.15068 36.32033,-0.0131 -0.0123,4.51645 h 6.73009 l 0.0446,-4.42493 6.86228,-0.1068 c 0.64774,4.4164 3.60703,8.09175 7.60057,9.74411 l 48.15689,-0.0228 c 4.45055,-1.92405 7.61687,-6.3597 7.65067,-11.54573 v 5e-5 c 0.0341,-5.23905 -3.13848,-9.74207 -7.6647,-11.61184 l -26.8735,-0.0407 10e-4,-6.51352 m 0,45.486 -10e-4,6.51352 26.8735,0.0407 c 4.52622,1.86977 7.6988,6.37279 7.6647,11.61184 v -5e-5 c -0.0338,5.18603 -3.20012,9.62168 -7.65067,11.54573 l -48.15689,0.0228 c -3.99354,-1.65236 -6.95283,-5.32771 -7.60057,-9.74411 l -6.86228,0.1068 -0.0446,4.42493 h -6.73009 l 0.0123,-4.51645 -36.33516,0.0406 0.005,38.53419 m 0.002,19.55045 4.9e-4,3.91009 m 0.002,19.16711 0.005,37.91957"
     id="path14359-1-7-5-3-0-73-1-9-8-5-9-21"
     inkscape:connector-curvature="0"
     sodipodi:nodetypes="cccccccccccccccccsccccccccsccccccccccccc" />
  <path
     style="fill:none;stroke:#000000;stroke-width:1;stroke-linecap:round;stroke-linejoin:round;stroke-miterlimit:4;stroke-dasharray:none;stroke-opacity:1"
     d="m 378.04775,581.44309 -0.002,4.59759 h -7.79274 l 0.002,-4.59759 z"
     id="path14359-1-7-5-3-0-73-1-9-8-5-0-0"
     inkscape:connector-curvature="0"
     sodipodi:nodetypes="ccccc" />
  <path
     style="fill:none;stroke:#000000;stroke-width:1;stroke-linecap:round;stroke-linejoin:round;stroke-miterlimit:4;stroke-dasharray:none;stroke-opacity:1"
     d="m 339.46784,611.33305 -0.002,3.65569 h -4.95901 l 0.002,-3.65569 z"
     id="path14359-1-7-5-3-0-73-1-9-8-5-8-0"
     inkscape:connector-curvature="0"
     sodipodi:nodetypes="ccccc" />
  <path
     style="fill:none;stroke:#000000;stroke-width:1;stroke-linecap:round;stroke-linejoin:round;stroke-miterlimit:4;stroke-dasharray:none;stroke-opacity:1"
     d="m 332.42789,613.06974 1.93482,7.6e-4 m 5.27864,3.3e-4 1.86348,9.1e-4"
     id="path14359-1-7-5-3-0-73-1-9-8-5-1-0"
     inkscape:connector-curvature="0"
     sodipodi:nodetypes="cccc" />
  <path
     style="fill:none;stroke:#000000;stroke-width:1;stroke-linecap:round;stroke-linejoin:round;stroke-miterlimit:4;stroke-dasharray:none;stroke-opacity:1"
     d="m 292.10575,725.70697 -0.008,-37.91959 m 0.68048,-42.7043 -0.0509,-228.24193 -133.79315,-0.38334 v 20.85381 m -5.51341,0 -0.002,-25.68395 139.30656,0.38335 -0.0476,-157.93696 m 0.4971,-42.39775 0.017,-19.39703 m 0.0372,-42.55088 0.0328,-37.49091 m 0.0446,-50.984541 0.0281,-32.169482 h 5.29013 l 0.0403,28.259618 m 0.0845,59.187695 0.0474,33.19754 m 0.0791,42.70406 -0.0335,19.16745 m -1.07087,42.47432 -0.0578,101.5089 h 55.43128 m -0.002,4.21672 h -55.43128 l 0.002,152.62429 36.0563,-0.0285 -0.0105,-4.68639 h 6.73009 l 0.004,4.68665 6.84804,0.0332 c 0.51051,-4.52637 3.4526,-8.3383 7.49697,-10.08979 l 17.08688,-0.0682 0.001,-6.51685"
     id="path14359-1-7-5-3-0-73-1-9-8-5-4"
     inkscape:connector-curvature="0"
     sodipodi:nodetypes="cccccccccccccccccccccccccccccccccccc" />
  <path
     style="fill:none;stroke:#000000;stroke-width:1;stroke-linecap:round;stroke-linejoin:round;stroke-miterlimit:4;stroke-dasharray:none;stroke-opacity:1"
     d="m 395.64046,356.34873 4.30749,0.002"
     id="path14359-1-7-5-3-0-73-1-9-8-5-02"
     inkscape:connector-curvature="0"
     sodipodi:nodetypes="cc" />
  <path
     style="fill:none;stroke:#000000;stroke-width:1;stroke-linecap:round;stroke-linejoin:round;stroke-miterlimit:4;stroke-dasharray:none;stroke-opacity:1"
     d="m 395.64046,358.80212 4.30749,0.002"
     id="path14359-1-7-5-3-0-73-1-9-8-5-89"
     inkscape:connector-curvature="0"
     sodipodi:nodetypes="cc" />
  <path
     style="fill:none;stroke:#000000;stroke-width:1;stroke-linecap:round;stroke-linejoin:round;stroke-miterlimit:4;stroke-dasharray:none;stroke-opacity:1"
     d="m 153.51766,471.14194 -0.002,9.69281 h 5.52579 l 0.002,-9.69281"
     id="path14359-1-7-5-3-0-73-1-9-8-5-7"
     inkscape:connector-curvature="0"
     sodipodi:nodetypes="cccc" />
  <path
     style="fill:none;stroke:#000000;stroke-width:1;stroke-linecap:round;stroke-linejoin:round;stroke-miterlimit:4;stroke-dasharray:none;stroke-opacity:1"
     d="m 253.5848,437.48482 -0.002,33.60444 H 142.46407 l 0.002,-33.60444 z"
     id="path14359-1-7-5-3-0-73-1-9-8-5-5"
     inkscape:connector-curvature="0"
     sodipodi:nodetypes="ccccc" />
  <path
     style="color:#000000;display:inline;overflow:visible;visibility:visible;fill:none;fill-rule:evenodd;stroke:#000000;stroke-width:1;stroke-linecap:round;stroke-linejoin:round;stroke-miterlimit:4;stroke-dasharray:none;stroke-dashoffset:0;stroke-opacity:1;marker:none;enable-background:accumulate"
     d="m 155.92792,437.30776 v 6.53049 h 85.75031 c 2.87433,1.50703 6.88213,4.91201 6.88213,10.59948 0,5.68747 -4.10826,9.09245 -6.27932,9.99667 h -86.35312 v 6.53049"
     id="path37715"
     inkscape:connector-curvature="0"
     sodipodi:nodetypes="cccsccc" />
  <path
     style="fill:none;stroke:#000000;stroke-width:1;stroke-linecap:round;stroke-linejoin:round;stroke-miterlimit:4;stroke-dasharray:none;stroke-opacity:1"
     d="m 157.20745,443.93631 -0.002,5.041"
     id="path14359-1-7-5-3-0-73-1-9-8-5-46"
     inkscape:connector-curvature="0"
     sodipodi:nodetypes="cc" />
  <path
     style="fill:none;stroke:#000000;stroke-width:1;stroke-linecap:round;stroke-linejoin:round;stroke-miterlimit:4;stroke-dasharray:none;stroke-opacity:1"
     d="m 159.47684,443.89505 -0.002,3.4318"
     id="path14359-1-7-5-3-0-73-1-9-8-5-3"
     inkscape:connector-curvature="0"
     sodipodi:nodetypes="cc" />
  <path
     style="fill:none;stroke:#000000;stroke-width:1;stroke-linecap:round;stroke-linejoin:round;stroke-miterlimit:4;stroke-dasharray:none;stroke-opacity:1"
     d="m 161.45739,443.93631 -0.002,3.4318"
     id="path14359-1-7-5-3-0-73-1-9-8-5-3-2"
     inkscape:connector-curvature="0"
     sodipodi:nodetypes="cc" />
  <path
     style="fill:none;stroke:#000000;stroke-width:1;stroke-linecap:round;stroke-linejoin:round;stroke-miterlimit:4;stroke-dasharray:none;stroke-opacity:1"
     d="m 163.52047,443.93631 -0.002,3.4318"
     id="path14359-1-7-5-3-0-73-1-9-8-5-3-1"
     inkscape:connector-curvature="0"
     sodipodi:nodetypes="cc" />
  <path
     style="fill:none;stroke:#000000;stroke-width:1;stroke-linecap:round;stroke-linejoin:round;stroke-miterlimit:4;stroke-dasharray:none;stroke-opacity:1"
     d="m 165.58354,443.93631 -0.002,3.4318"
     id="path14359-1-7-5-3-0-73-1-9-8-5-3-10"
     inkscape:connector-curvature="0"
     sodipodi:nodetypes="cc" />
  <path
     style="fill:none;stroke:#000000;stroke-width:1;stroke-linecap:round;stroke-linejoin:round;stroke-miterlimit:4;stroke-dasharray:none;stroke-opacity:1"
     d="m 168.05924,443.93631 -0.002,3.4318"
     id="path14359-1-7-5-3-0-73-1-9-8-5-3-6"
     inkscape:connector-curvature="0"
     sodipodi:nodetypes="cc" />
  <path
     style="fill:none;stroke:#000000;stroke-width:1;stroke-linecap:round;stroke-linejoin:round;stroke-miterlimit:4;stroke-dasharray:none;stroke-opacity:1"
     d="m 170.32862,443.93631 -0.002,3.4318"
     id="path14359-1-7-5-3-0-73-1-9-8-5-3-0"
     inkscape:connector-curvature="0"
     sodipodi:nodetypes="cc" />
  <path
     style="fill:none;stroke:#000000;stroke-width:1;stroke-linecap:round;stroke-linejoin:round;stroke-miterlimit:4;stroke-dasharray:none;stroke-opacity:1"
     d="m 172.84557,443.93631 -0.002,3.4318"
     id="path14359-1-7-5-3-0-73-1-9-8-5-3-8"
     inkscape:connector-curvature="0"
     sodipodi:nodetypes="cc" />
  <path
     style="fill:none;stroke:#000000;stroke-width:1;stroke-linecap:round;stroke-linejoin:round;stroke-miterlimit:4;stroke-dasharray:none;stroke-opacity:1"
     d="m 175.11496,443.93631 -0.002,3.4318"
     id="path14359-1-7-5-3-0-73-1-9-8-5-3-3"
     inkscape:connector-curvature="0"
     sodipodi:nodetypes="cc" />
  <path
     style="fill:none;stroke:#000000;stroke-width:1;stroke-linecap:round;stroke-linejoin:round;stroke-miterlimit:4;stroke-dasharray:none;stroke-opacity:1"
     d="m 177.54939,443.93631 -0.002,3.4318"
     id="path14359-1-7-5-3-0-73-1-9-8-5-3-01"
     inkscape:connector-curvature="0"
     sodipodi:nodetypes="cc" />
  <path
     style="fill:none;stroke:#000000;stroke-width:1;stroke-linecap:round;stroke-linejoin:round;stroke-miterlimit:4;stroke-dasharray:none;stroke-opacity:1"
     d="m 179.44742,443.93631 -0.002,3.4318"
     id="path14359-1-7-5-3-0-73-1-9-8-5-3-5"
     inkscape:connector-curvature="0"
     sodipodi:nodetypes="cc" />
  <path
     style="fill:none;stroke:#000000;stroke-width:1;stroke-linecap:round;stroke-linejoin:round;stroke-miterlimit:4;stroke-dasharray:none;stroke-opacity:1"
     d="m 181.30419,443.93631 -0.002,3.4318"
     id="path14359-1-7-5-3-0-73-1-9-8-5-3-59"
     inkscape:connector-curvature="0"
     sodipodi:nodetypes="cc" />
  <path
     style="fill:none;stroke:#000000;stroke-width:1;stroke-linecap:round;stroke-linejoin:round;stroke-miterlimit:4;stroke-dasharray:none;stroke-opacity:1"
     d="m 183.6561,443.93631 -0.002,3.4318"
     id="path14359-1-7-5-3-0-73-1-9-8-5-3-11"
     inkscape:connector-curvature="0"
     sodipodi:nodetypes="cc" />
  <path
     style="fill:none;stroke:#000000;stroke-width:1;stroke-linecap:round;stroke-linejoin:round;stroke-miterlimit:4;stroke-dasharray:none;stroke-opacity:1"
     d="m 186.04927,443.93631 -0.002,3.4318"
     id="path14359-1-7-5-3-0-73-1-9-8-5-3-07"
     inkscape:connector-curvature="0"
     sodipodi:nodetypes="cc" />
  <path
     style="fill:none;stroke:#000000;stroke-width:1;stroke-linecap:round;stroke-linejoin:round;stroke-miterlimit:4;stroke-dasharray:none;stroke-opacity:1"
     d="m 187.86477,443.93631 -0.002,3.4318"
     id="path14359-1-7-5-3-0-73-1-9-8-5-3-21"
     inkscape:connector-curvature="0"
     sodipodi:nodetypes="cc" />
  <path
     style="fill:none;stroke:#000000;stroke-width:1;stroke-linecap:round;stroke-linejoin:round;stroke-miterlimit:4;stroke-dasharray:none;stroke-opacity:1"
     d="m 190.50551,443.93631 -0.002,3.4318"
     id="path14359-1-7-5-3-0-73-1-9-8-5-3-4"
     inkscape:connector-curvature="0"
     sodipodi:nodetypes="cc" />
  <path
     style="fill:none;stroke:#000000;stroke-width:1;stroke-linecap:round;stroke-linejoin:round;stroke-miterlimit:4;stroke-dasharray:none;stroke-opacity:1"
     d="m 192.93994,443.93631 -0.002,3.4318"
     id="path14359-1-7-5-3-0-73-1-9-8-5-3-110"
     inkscape:connector-curvature="0"
     sodipodi:nodetypes="cc" />
  <path
     style="fill:none;stroke:#000000;stroke-width:1;stroke-linecap:round;stroke-linejoin:round;stroke-miterlimit:4;stroke-dasharray:none;stroke-opacity:1"
     d="m 195.49816,443.93631 -0.002,3.4318"
     id="path14359-1-7-5-3-0-73-1-9-8-5-3-7"
     inkscape:connector-curvature="0"
     sodipodi:nodetypes="cc" />
  <path
     style="fill:none;stroke:#000000;stroke-width:1;stroke-linecap:round;stroke-linejoin:round;stroke-miterlimit:4;stroke-dasharray:none;stroke-opacity:1"
     d="m 197.47871,443.93631 -0.002,3.4318"
     id="path14359-1-7-5-3-0-73-1-9-8-5-3-45"
     inkscape:connector-curvature="0"
     sodipodi:nodetypes="cc" />
  <path
     style="fill:none;stroke:#000000;stroke-width:1;stroke-linecap:round;stroke-linejoin:round;stroke-miterlimit:4;stroke-dasharray:none;stroke-opacity:1"
     d="m 199.78936,443.93631 -0.002,3.4318"
     id="path14359-1-7-5-3-0-73-1-9-8-5-3-459"
     inkscape:connector-curvature="0"
     sodipodi:nodetypes="cc" />
  <path
     style="fill:none;stroke:#000000;stroke-width:1;stroke-linecap:round;stroke-linejoin:round;stroke-miterlimit:4;stroke-dasharray:none;stroke-opacity:1"
     d="m 201.8937,443.93631 -0.002,3.4318"
     id="path14359-1-7-5-3-0-73-1-9-8-5-3-69"
     inkscape:connector-curvature="0"
     sodipodi:nodetypes="cc" />
  <path
     style="fill:none;stroke:#000000;stroke-width:1;stroke-linecap:round;stroke-linejoin:round;stroke-miterlimit:4;stroke-dasharray:none;stroke-opacity:1"
     d="m 204.08056,443.93631 -0.002,3.4318"
     id="path14359-1-7-5-3-0-73-1-9-8-5-3-64"
     inkscape:connector-curvature="0"
     sodipodi:nodetypes="cc" />
  <path
     style="fill:none;stroke:#000000;stroke-width:1;stroke-linecap:round;stroke-linejoin:round;stroke-miterlimit:4;stroke-dasharray:none;stroke-opacity:1"
     d="m 206.34995,443.93631 -0.002,3.4318"
     id="path14359-1-7-5-3-0-73-1-9-8-5-3-85"
     inkscape:connector-curvature="0"
     sodipodi:nodetypes="cc" />
  <path
     style="fill:none;stroke:#000000;stroke-width:1;stroke-linecap:round;stroke-linejoin:round;stroke-miterlimit:4;stroke-dasharray:none;stroke-opacity:1"
     d="m 208.78438,443.93631 -0.002,3.4318"
     id="path14359-1-7-5-3-0-73-1-9-8-5-3-86"
     inkscape:connector-curvature="0"
     sodipodi:nodetypes="cc" />
  <path
     style="fill:none;stroke:#000000;stroke-width:1;stroke-linecap:round;stroke-linejoin:round;stroke-miterlimit:4;stroke-dasharray:none;stroke-opacity:1"
     d="m 211.13629,443.93631 -0.002,3.4318"
     id="path14359-1-7-5-3-0-73-1-9-8-5-3-19"
     inkscape:connector-curvature="0"
     sodipodi:nodetypes="cc" />
  <path
     style="fill:none;stroke:#000000;stroke-width:1;stroke-linecap:round;stroke-linejoin:round;stroke-miterlimit:4;stroke-dasharray:none;stroke-opacity:1"
     d="m 213.40567,443.93631 -0.002,3.4318"
     id="path14359-1-7-5-3-0-73-1-9-8-5-3-63"
     inkscape:connector-curvature="0"
     sodipodi:nodetypes="cc" />
  <path
     style="fill:none;stroke:#000000;stroke-width:1;stroke-linecap:round;stroke-linejoin:round;stroke-miterlimit:4;stroke-dasharray:none;stroke-opacity:1"
     d="m 215.38623,443.93631 -0.002,3.4318"
     id="path14359-1-7-5-3-0-73-1-9-8-5-3-14"
     inkscape:connector-curvature="0"
     sodipodi:nodetypes="cc" />
  <path
     style="fill:none;stroke:#000000;stroke-width:1;stroke-linecap:round;stroke-linejoin:round;stroke-miterlimit:4;stroke-dasharray:none;stroke-opacity:1"
     d="m 217.49057,443.93631 -0.002,3.4318"
     id="path14359-1-7-5-3-0-73-1-9-8-5-3-9"
     inkscape:connector-curvature="0"
     sodipodi:nodetypes="cc" />
  <path
     style="fill:none;stroke:#000000;stroke-width:1;stroke-linecap:round;stroke-linejoin:round;stroke-miterlimit:4;stroke-dasharray:none;stroke-opacity:1"
     d="m 219.5949,443.93631 -0.002,3.4318"
     id="path14359-1-7-5-3-0-73-1-9-8-5-3-75"
     inkscape:connector-curvature="0"
     sodipodi:nodetypes="cc" />
  <path
     style="fill:none;stroke:#000000;stroke-width:1;stroke-linecap:round;stroke-linejoin:round;stroke-miterlimit:4;stroke-dasharray:none;stroke-opacity:1"
     d="m 222.02933,443.93631 -0.002,3.4318"
     id="path14359-1-7-5-3-0-73-1-9-8-5-3-89"
     inkscape:connector-curvature="0"
     sodipodi:nodetypes="cc" />
  <path
     style="fill:none;stroke:#000000;stroke-width:1;stroke-linecap:round;stroke-linejoin:round;stroke-miterlimit:4;stroke-dasharray:none;stroke-opacity:1"
     d="m 224.17493,443.93631 -0.002,3.4318"
     id="path14359-1-7-5-3-0-73-1-9-8-5-3-66"
     inkscape:connector-curvature="0"
     sodipodi:nodetypes="cc" />
  <path
     style="fill:none;stroke:#000000;stroke-width:1;stroke-linecap:round;stroke-linejoin:round;stroke-miterlimit:4;stroke-dasharray:none;stroke-opacity:1"
     d="m 226.52684,443.93631 -0.002,3.4318"
     id="path14359-1-7-5-3-0-73-1-9-8-5-3-67"
     inkscape:connector-curvature="0"
     sodipodi:nodetypes="cc" />
  <path
     style="fill:none;stroke:#000000;stroke-width:1;stroke-linecap:round;stroke-linejoin:round;stroke-miterlimit:4;stroke-dasharray:none;stroke-opacity:1"
     d="m 229.12632,443.93631 -0.002,3.4318"
     id="path14359-1-7-5-3-0-73-1-9-8-5-3-30"
     inkscape:connector-curvature="0"
     sodipodi:nodetypes="cc" />
  <path
     style="fill:#000000;fill-opacity:1;stroke:#000000;stroke-width:1;stroke-linecap:butt;stroke-linejoin:miter;stroke-miterlimit:4;stroke-dasharray:none;stroke-opacity:1"
     d="m 249.77986,166.14177 5.40043,1.64542 -3.77461,-4.19426 -0.8133,1.27418 z"
     id="path14359-1-7-5-3-0-73-1-0-45"
     inkscape:connector-curvature="0"
     sodipodi:nodetypes="ccccc" />
  <path
     style="fill:none;stroke:#000000;stroke-width:1;stroke-linecap:butt;stroke-linejoin:miter;stroke-miterlimit:4;stroke-dasharray:none;stroke-opacity:1"
     d="m 210.73766,138.31939 39.8531,26.54784"
     id="path14359-1-7-5-3-0-73-1-9-1"
     inkscape:connector-curvature="0"
     sodipodi:nodetypes="cc" />
  <path
     style="fill:#000000;fill-opacity:1;stroke:#000000;stroke-width:1;stroke-linecap:butt;stroke-linejoin:miter;stroke-miterlimit:4;stroke-dasharray:none;stroke-opacity:1"
     d="m 251.40692,241.93632 3.69221,-4.27079 -5.36384,1.75176 0.83543,1.25977 z"
     id="path14359-1-7-5-3-0-73-1-0-45-2"
     inkscape:connector-curvature="0"
     sodipodi:nodetypes="ccccc" />
  <path
     style="fill:none;stroke:#000000;stroke-width:1;stroke-linecap:butt;stroke-linejoin:miter;stroke-miterlimit:4;stroke-dasharray:none;stroke-opacity:1"
     d="m 210.60481,266.96317 39.96537,-26.28458"
     id="path14359-1-7-5-3-0-73-1-9-1-9"
     inkscape:connector-curvature="0"
     sodipodi:nodetypes="cc" />
</svg>
