<?xml version="1.0" encoding="UTF-8" standalone="no"?>
<!-- Created with Inkscape (http://www.inkscape.org/) -->

<svg
   xmlns:dc="http://purl.org/dc/elements/1.1/"
   xmlns:cc="http://creativecommons.org/ns#"
   xmlns:rdf="http://www.w3.org/1999/02/22-rdf-syntax-ns#"
   xmlns:svg="http://www.w3.org/2000/svg"
   xmlns="http://www.w3.org/2000/svg"
   xmlns:sodipodi="http://sodipodi.sourceforge.net/DTD/sodipodi-0.dtd"
   xmlns:inkscape="http://www.inkscape.org/namespaces/inkscape"
   id="svg9099"
   version="1.1"
   inkscape:version="0.92.2 5c3e80d, 2017-08-06"
   width="693.12"
   height="853.12"
   viewBox="0 0 649.79999 799.79999"
   sodipodi:docname="er17oc00.275.svg">
  <metadata
     id="metadata9105">
    <rdf:RDF>
      <cc:Work
         rdf:about="">
        <dc:format>image/svg+xml</dc:format>
        <dc:type
           rdf:resource="http://purl.org/dc/dcmitype/StillImage" />
        <dc:title></dc:title>
      </cc:Work>
    </rdf:RDF>
  </metadata>
  <defs
     id="defs9103" />
  <sodipodi:namedview
     pagecolor="#ffffff"
     bordercolor="#666666"
     borderopacity="1"
     objecttolerance="10"
     gridtolerance="10"
     guidetolerance="10"
     inkscape:pageopacity="0"
     inkscape:pageshadow="2"
     inkscape:window-width="1280"
     inkscape:window-height="756"
     id="namedview9101"
     showgrid="false"
     inkscape:zoom="1.4155065"
     inkscape:cx="338.82144"
     inkscape:cy="68.906606"
     inkscape:window-x="0"
     inkscape:window-y="23"
     inkscape:window-maximized="0"
     inkscape:current-layer="svg9099" />
  <path
     style="fill:#000000;fill-opacity:1;stroke:#000000;stroke-width:1;stroke-linecap:round;stroke-linejoin:round;stroke-miterlimit:4;stroke-dasharray:none;stroke-opacity:1"
     d="m 413.25583,149.13212 2.24193,9.7898 3.6316,1.94448 -2.98541,-10.04716 z"
     id="path14359-1-7-5-3-0-73-1-9-8-5-7-7-8"
     inkscape:connector-curvature="0"
     sodipodi:nodetypes="ccccc" />
  <path
     style="fill:#000000;fill-opacity:1;stroke:#000000;stroke-width:1;stroke-linecap:round;stroke-linejoin:round;stroke-miterlimit:4;stroke-dasharray:none;stroke-opacity:1"
     d="m 421.37016,152.56981 c 0.29411,-0.17133 0.57011,-0.13209 0.94629,0.0855 l 1.59755,0.92411 c 0.61107,0.27885 0.75267,0.95323 0.39532,1.1491 l -6.24953,3.42529 -1.83845,-1.02536 -0.35848,-1.27793 5.50906,-3.29801 c 0.59158,-0.35416 1.0329,0.62264 0.66641,0.91543 l 2.19523,1.28325"
     id="path14359-1-7-5-3-0-73-1-9-8-5-94-8"
     inkscape:connector-curvature="0"
     sodipodi:nodetypes="cscscccscc" />
  <path
     style="fill:none;stroke:#000000;stroke-width:1;stroke-linecap:round;stroke-linejoin:round;stroke-miterlimit:4;stroke-dasharray:none;stroke-opacity:1"
     d="m 422.06158,153.46515 -5.74752,3.40086"
     id="path14359-1-7-5-3-0-73-1-9-8-5-05"
     inkscape:connector-curvature="0"
     sodipodi:nodetypes="cc" />
  <path
     style="fill:none;stroke:#000000;stroke-width:1;stroke-linecap:round;stroke-linejoin:round;stroke-miterlimit:4;stroke-dasharray:none;stroke-opacity:1"
     d="m 408.62628,153.36267 0.92655,5.58631"
     id="path14359-1-7-5-3-0-73-1-9-8-5-0-8"
     inkscape:connector-curvature="0"
     sodipodi:nodetypes="cc" />
  <path
     style="fill:none;stroke:#000000;stroke-width:1;stroke-linecap:round;stroke-linejoin:round;stroke-miterlimit:4;stroke-dasharray:none;stroke-opacity:1"
     d="m 409.76523,152.82365 0.92655,5.5863"
     id="path14359-1-7-5-3-0-73-1-9-8-5-7-7"
     inkscape:connector-curvature="0"
     sodipodi:nodetypes="cc" />
  <path
     style="fill:none;stroke:#000000;stroke-width:1;stroke-linecap:round;stroke-linejoin:round;stroke-miterlimit:4;stroke-dasharray:none;stroke-opacity:1"
     d="m 407.56358,153.98227 0.92655,5.5863"
     id="path14359-1-7-5-3-0-73-1-9-8-5-2-6"
     inkscape:connector-curvature="0"
     sodipodi:nodetypes="cc" />
  <path
     style="fill:none;stroke:#000000;stroke-width:1;stroke-linecap:round;stroke-linejoin:round;stroke-miterlimit:4;stroke-dasharray:none;stroke-opacity:1"
     d="m 405.37696,155.08211 0.92655,5.5863"
     id="path14359-1-7-5-3-0-73-1-9-8-5-3-4"
     inkscape:connector-curvature="0"
     sodipodi:nodetypes="cc" />
  <path
     style="fill:none;stroke:#000000;stroke-width:1;stroke-linecap:round;stroke-linejoin:round;stroke-miterlimit:4;stroke-dasharray:none;stroke-opacity:1"
     d="m 404.40521,155.59866 0.92655,5.5863"
     id="path14359-1-7-5-3-0-73-1-9-8-5-9-8"
     inkscape:connector-curvature="0"
     sodipodi:nodetypes="cc" />
  <path
     style="fill:none;stroke:#000000;stroke-width:1;stroke-linecap:round;stroke-linejoin:round;stroke-miterlimit:4;stroke-dasharray:none;stroke-opacity:1"
     d="m 406.49336,154.63126 0.92654,5.5863"
     id="path14359-1-7-5-3-0-73-1-9-8-5-4-5"
     inkscape:connector-curvature="0"
     sodipodi:nodetypes="cc" />
  <path
     style="fill:none;stroke:#000000;stroke-width:1;stroke-linecap:round;stroke-linejoin:round;stroke-miterlimit:4;stroke-dasharray:none;stroke-opacity:1"
     d="m 415.36303,150.30546 -2.38183,-1.42193 -8.22004,4.64465 -2.69687,4.462 c -0.77924,1.28923 -1.40025,3.63062 -0.22803,4.23905 l 4.56603,2.37003 2.85395,1.35319 9.92879,-4.92392 -0.85515,-2.86373 m -0.98525,-3.32835 -0.56509,-1.86338"
     id="path14359-1-7-5-3-0-73-1-9-8-5-8-1"
     inkscape:connector-curvature="0"
     sodipodi:nodetypes="cccsscccccc" />
  <path
     style="fill:none;stroke:#000000;stroke-width:1;stroke-linecap:round;stroke-linejoin:round;stroke-miterlimit:4;stroke-dasharray:none;stroke-opacity:1"
     d="m 412.58663,149.16361 2.05492,9.47807 -8.72047,5.4611"
     id="path14359-1-7-5-3-0-73-1-9-8-5-77-4"
     inkscape:connector-curvature="0"
     sodipodi:nodetypes="ccc" />
  <path
     style="fill:none;stroke:#000000;stroke-width:1;stroke-linecap:round;stroke-linejoin:round;stroke-miterlimit:4;stroke-dasharray:none;stroke-opacity:1"
     d="m 413.37751,149.22761 2.13909,9.83263 -8.93283,5.48138"
     id="path14359-1-7-5-3-0-73-1-9-8-5-49-9"
     inkscape:connector-curvature="0"
     sodipodi:nodetypes="ccc" />
  <path
     style="fill:none;stroke:#000000;stroke-width:1;stroke-linecap:round;stroke-linejoin:round;stroke-miterlimit:4;stroke-dasharray:none;stroke-opacity:1"
     d="m 415.53374,158.97354 3.48604,1.8934"
     id="path14359-1-7-5-3-0-73-1-9-8-5-1-6"
     inkscape:connector-curvature="0"
     sodipodi:nodetypes="cc" />
  <path
     style="fill:#000000;fill-opacity:1;stroke:#000000;stroke-width:1;stroke-linecap:round;stroke-linejoin:round;stroke-miterlimit:4;stroke-dasharray:none;stroke-opacity:1"
     d="m 419.47834,147.77672 c 0.29408,-0.17131 0.5701,-0.13209 0.94627,0.0855 l 1.59756,0.92414 c 0.61107,0.27885 0.75266,0.95323 0.39531,1.14909 l -5.58928,2.99031 -1.92905,-0.79748 -0.35846,-1.2779 4.93939,-3.09094 c 0.58412,-0.36553 1.0329,0.62264 0.6664,0.91543 l 2.19524,1.28326"
     id="path14359-1-7-5-3-0-73-1-9-8-5-94-9-5"
     inkscape:connector-curvature="0"
     sodipodi:nodetypes="cscscccscc" />
  <path
     style="fill:none;stroke:#000000;stroke-width:1;stroke-linecap:round;stroke-linejoin:round;stroke-miterlimit:4;stroke-dasharray:none;stroke-opacity:1"
     d="m 420.16974,148.67207 -5.2384,3.30405"
     id="path14359-1-7-5-3-0-73-1-9-8-5-72-4"
     inkscape:connector-curvature="0"
     sodipodi:nodetypes="cc" />
  <path
     style="fill:#000000;fill-opacity:1;stroke:#000000;stroke-width:1;stroke-linecap:round;stroke-linejoin:round;stroke-miterlimit:4;stroke-dasharray:none;stroke-opacity:1"
     d="m 269.62168,116.93177 -2.24193,9.7898 -3.6316,1.94448 2.98541,-10.04716 z"
     id="path14359-1-7-5-3-0-73-1-9-8-5-7-7-8-6"
     inkscape:connector-curvature="0"
     sodipodi:nodetypes="ccccc" />
  <path
     style="fill:#000000;fill-opacity:1;stroke:#000000;stroke-width:1;stroke-linecap:round;stroke-linejoin:round;stroke-miterlimit:4;stroke-dasharray:none;stroke-opacity:1"
     d="m 261.50735,120.36946 c -0.29411,-0.17133 -0.57011,-0.13209 -0.94629,0.0855 l -1.59755,0.92411 c -0.61107,0.27885 -0.75267,0.95323 -0.39532,1.1491 l 6.24953,3.42529 1.83845,-1.02536 0.35848,-1.27793 -5.50906,-3.29801 c -0.59158,-0.35416 -1.0329,0.62264 -0.66641,0.91543 l -2.19523,1.28325"
     id="path14359-1-7-5-3-0-73-1-9-8-5-94-8-2"
     inkscape:connector-curvature="0"
     sodipodi:nodetypes="cscscccscc" />
  <path
     style="fill:none;stroke:#000000;stroke-width:1;stroke-linecap:round;stroke-linejoin:round;stroke-miterlimit:4;stroke-dasharray:none;stroke-opacity:1"
     d="m 260.81593,121.2648 5.74752,3.40086"
     id="path14359-1-7-5-3-0-73-1-9-8-5-05-6"
     inkscape:connector-curvature="0"
     sodipodi:nodetypes="cc" />
  <path
     style="fill:none;stroke:#000000;stroke-width:1;stroke-linecap:round;stroke-linejoin:round;stroke-miterlimit:4;stroke-dasharray:none;stroke-opacity:1"
     d="m 274.25123,121.16232 -0.92655,5.58631"
     id="path14359-1-7-5-3-0-73-1-9-8-5-0-8-9"
     inkscape:connector-curvature="0"
     sodipodi:nodetypes="cc" />
  <path
     style="fill:none;stroke:#000000;stroke-width:1;stroke-linecap:round;stroke-linejoin:round;stroke-miterlimit:4;stroke-dasharray:none;stroke-opacity:1"
     d="m 273.11228,120.6233 -0.92655,5.5863"
     id="path14359-1-7-5-3-0-73-1-9-8-5-7-7-3"
     inkscape:connector-curvature="0"
     sodipodi:nodetypes="cc" />
  <path
     style="fill:none;stroke:#000000;stroke-width:1;stroke-linecap:round;stroke-linejoin:round;stroke-miterlimit:4;stroke-dasharray:none;stroke-opacity:1"
     d="m 275.31393,121.78192 -0.92655,5.5863"
     id="path14359-1-7-5-3-0-73-1-9-8-5-2-6-2"
     inkscape:connector-curvature="0"
     sodipodi:nodetypes="cc" />
  <path
     style="fill:none;stroke:#000000;stroke-width:1;stroke-linecap:round;stroke-linejoin:round;stroke-miterlimit:4;stroke-dasharray:none;stroke-opacity:1"
     d="m 277.50055,122.88176 -0.92655,5.5863"
     id="path14359-1-7-5-3-0-73-1-9-8-5-3-4-9"
     inkscape:connector-curvature="0"
     sodipodi:nodetypes="cc" />
  <path
     style="fill:none;stroke:#000000;stroke-width:1;stroke-linecap:round;stroke-linejoin:round;stroke-miterlimit:4;stroke-dasharray:none;stroke-opacity:1"
     d="m 278.4723,123.39831 -0.92655,5.5863"
     id="path14359-1-7-5-3-0-73-1-9-8-5-9-8-7"
     inkscape:connector-curvature="0"
     sodipodi:nodetypes="cc" />
  <path
     style="fill:none;stroke:#000000;stroke-width:1;stroke-linecap:round;stroke-linejoin:round;stroke-miterlimit:4;stroke-dasharray:none;stroke-opacity:1"
     d="m 276.38415,122.43091 -0.92654,5.5863"
     id="path14359-1-7-5-3-0-73-1-9-8-5-4-5-8"
     inkscape:connector-curvature="0"
     sodipodi:nodetypes="cc" />
  <path
     style="fill:none;stroke:#000000;stroke-width:1;stroke-linecap:round;stroke-linejoin:round;stroke-miterlimit:4;stroke-dasharray:none;stroke-opacity:1"
     d="m 267.51448,118.10511 2.38183,-1.42193 8.22004,4.64465 2.69687,4.462 c 0.77924,1.28923 1.40025,3.63062 0.22803,4.23905 l -4.56603,2.37003 -2.85395,1.35319 -9.92879,-4.92392 0.85515,-2.86373 m 0.98525,-3.32835 0.56509,-1.86338"
     id="path14359-1-7-5-3-0-73-1-9-8-5-8-1-6"
     inkscape:connector-curvature="0"
     sodipodi:nodetypes="cccsscccccc" />
  <path
     style="fill:none;stroke:#000000;stroke-width:1;stroke-linecap:round;stroke-linejoin:round;stroke-miterlimit:4;stroke-dasharray:none;stroke-opacity:1"
     d="m 270.29088,116.96326 -2.05492,9.47807 8.72047,5.4611"
     id="path14359-1-7-5-3-0-73-1-9-8-5-77-4-2"
     inkscape:connector-curvature="0"
     sodipodi:nodetypes="ccc" />
  <path
     style="fill:none;stroke:#000000;stroke-width:1;stroke-linecap:round;stroke-linejoin:round;stroke-miterlimit:4;stroke-dasharray:none;stroke-opacity:1"
     d="m 269.5,117.02726 -2.13909,9.83263 8.93283,5.48138"
     id="path14359-1-7-5-3-0-73-1-9-8-5-49-9-7"
     inkscape:connector-curvature="0"
     sodipodi:nodetypes="ccc" />
  <path
     style="fill:none;stroke:#000000;stroke-width:1;stroke-linecap:round;stroke-linejoin:round;stroke-miterlimit:4;stroke-dasharray:none;stroke-opacity:1"
     d="m 267.34377,126.77319 -3.48604,1.8934"
     id="path14359-1-7-5-3-0-73-1-9-8-5-1-6-3"
     inkscape:connector-curvature="0"
     sodipodi:nodetypes="cc" />
  <path
     style="fill:#000000;fill-opacity:1;stroke:#000000;stroke-width:1;stroke-linecap:round;stroke-linejoin:round;stroke-miterlimit:4;stroke-dasharray:none;stroke-opacity:1"
     d="m 263.39917,115.57637 c -0.29408,-0.17131 -0.5701,-0.13209 -0.94627,0.0855 l -1.59756,0.92414 c -0.61107,0.27885 -0.75266,0.95323 -0.39531,1.14909 l 5.58928,2.99031 1.92905,-0.79748 0.35846,-1.2779 -4.93939,-3.09094 c -0.58412,-0.36553 -1.0329,0.62264 -0.6664,0.91543 l -2.19524,1.28326"
     id="path14359-1-7-5-3-0-73-1-9-8-5-94-9-5-3"
     inkscape:connector-curvature="0"
     sodipodi:nodetypes="cscscccscc" />
  <path
     style="fill:none;stroke:#000000;stroke-width:1;stroke-linecap:round;stroke-linejoin:round;stroke-miterlimit:4;stroke-dasharray:none;stroke-opacity:1"
     d="m 262.70777,116.47172 5.2384,3.30405"
     id="path14359-1-7-5-3-0-73-1-9-8-5-72-4-0"
     inkscape:connector-curvature="0"
     sodipodi:nodetypes="cc" />
  <path
     style="fill:none;stroke:#000000;stroke-width:1;stroke-linecap:butt;stroke-linejoin:miter;stroke-miterlimit:4;stroke-dasharray:none;stroke-opacity:1"
     d="M 598.48354,4.0996912 598.48154,748.2214 H 59.161594 l 0.002,-744.1217088 z"
     id="path14359-1-7-5-3-0-73-1-9"
     inkscape:connector-curvature="0"
     sodipodi:nodetypes="ccccc"
     inkscape:transform-center-x="0.03366111"
     inkscape:transform-center-y="-0.1641457" />
  <path
     style="fill:#000000;fill-opacity:1;stroke:#000000;stroke-width:1;stroke-linecap:butt;stroke-linejoin:miter;stroke-miterlimit:4;stroke-dasharray:none;stroke-opacity:1"
     d="m 277.39452,700.08003 -5.43458,-1.52881 5.44115,-1.4944 -0.003,1.51161 z"
     id="path14359-1-7-5-3-0-73-1-8"
     inkscape:connector-curvature="0"
     sodipodi:nodetypes="ccccc" />
  <path
     style="fill:none;stroke:#000000;stroke-width:1;stroke-linecap:butt;stroke-linejoin:miter;stroke-miterlimit:4;stroke-dasharray:none;stroke-opacity:1"
     d="m 277.41282,698.56745 86.09849,0.0168"
     id="path14359-1-7-5-3-0-73-1-9-1"
     inkscape:connector-curvature="0"
     sodipodi:nodetypes="cc" />
  <path
     style="fill:#000000;fill-opacity:1;stroke:#000000;stroke-width:1;stroke-linecap:butt;stroke-linejoin:miter;stroke-miterlimit:4;stroke-dasharray:none;stroke-opacity:1"
     d="m 306.93745,172.54547 5.43944,-1.51147 -5.43636,-1.51175 -0.002,1.51161 z"
     id="path14359-1-7-5-3-0-73-1-0-45"
     inkscape:connector-curvature="0"
     sodipodi:nodetypes="ccccc" />
  <path
     style="fill:none;stroke:#000000;stroke-width:1;stroke-linecap:butt;stroke-linejoin:miter;stroke-miterlimit:4;stroke-dasharray:none;stroke-opacity:1"
     d="m 270.3578,171.01804 36.57943,0.0168"
     id="path14359-1-7-5-3-0-73-1-9-1-0"
     inkscape:connector-curvature="0"
     sodipodi:nodetypes="cc" />
  <path
     style="fill:#000000;fill-opacity:1;stroke:#000000;stroke-width:1;stroke-linecap:butt;stroke-linejoin:miter;stroke-miterlimit:4;stroke-dasharray:none;stroke-opacity:1"
     d="m 328.90396,72.356182 1.52014,-5.43702 1.50308,5.43876 -1.51161,-8.7e-4 z"
     id="path14359-1-7-5-3-0-73-1"
     inkscape:connector-curvature="0"
     sodipodi:nodetypes="ccccc" />
  <path
     style="fill:none;stroke:#000000;stroke-width:1;stroke-linecap:butt;stroke-linejoin:miter;stroke-miterlimit:4;stroke-dasharray:none;stroke-opacity:1"
     d="m 330.41657,72.372062 -0.002,34.187508"
     id="path14359-1-7-5-3-0-73-1-9-6"
     inkscape:connector-curvature="0"
     sodipodi:nodetypes="cc"
     inkscape:transform-center-x="0.03366111"
     inkscape:transform-center-y="-0.1641457" />
  <path
     style="color:#000000;display:inline;overflow:visible;visibility:visible;fill:none;fill-rule:evenodd;stroke:#000000;stroke-width:1;stroke-linecap:butt;stroke-linejoin:miter;stroke-miterlimit:4;stroke-dasharray:none;stroke-dashoffset:0;stroke-opacity:1;marker:none;enable-background:accumulate"
     d="m 362.69872,89.979024 a 2.9853351,2.9853351 0 0 1 -2.98533,2.985335 2.9853351,2.9853351 0 0 1 -2.98534,-2.985335 2.9853351,2.9853351 0 0 1 2.98534,-2.985335 2.9853351,2.9853351 0 0 1 2.98533,2.985335 z"
     id="path11034"
     inkscape:connector-curvature="0" />
  <text
     xml:space="preserve"
     style="font-style:normal;font-variant:normal;font-weight:normal;font-stretch:normal;line-height:0%;font-family:Arial;-inkscape-font-specification:Arial;text-align:start;letter-spacing:0px;word-spacing:0px;text-anchor:start;fill:#000000;fill-opacity:1;stroke:#000000;stroke-width:1px;stroke-linecap:butt;stroke-linejoin:miter;stroke-opacity:1;"
     x="-91.783424"
     y="361.39175"
     id="text11037"
     transform="rotate(-90)"><tspan
       sodipodi:role="line"
       id="tspan11039"
       x="-91.783424"
       y="361.39175"
       style="font-size:5px;line-height:1.29999995;stroke:#000000;stroke-opacity:1;">R</tspan></text>
  <path
     style="color:#000000;display:inline;overflow:visible;visibility:visible;fill:none;fill-rule:evenodd;stroke:#000000;stroke-width:1;stroke-linecap:round;stroke-linejoin:round;stroke-miterlimit:4;stroke-dasharray:none;stroke-dashoffset:0;stroke-opacity:1;marker:none;enable-background:accumulate"
     d="m 358.94098,603.06382 v 42.61558 c 0,3.92266 -3.17995,7.10259 -7.1026,7.10259 h -48.62103 c -3.92265,0 -7.10259,-3.17994 -7.10259,-7.10259 v -42.61558 z m -62.82622,2.14498 h 62.82622"
     id="path11041"
     inkscape:connector-curvature="0"
     sodipodi:nodetypes="csssscccc" />
  <path
     style="color:#000000;display:inline;overflow:visible;visibility:visible;fill:none;fill-rule:evenodd;stroke:#000000;stroke-width:1;stroke-linecap:round;stroke-linejoin:round;stroke-miterlimit:4;stroke-dasharray:none;stroke-dashoffset:0;stroke-opacity:1;marker:none;enable-background:accumulate"
     d="m 358.95493,645.20342 c -1.32484,2.9428 -4.20211,6.38524 -9.38568,6.38523 -5.18358,10e-6 -7.93467,-3.00082 -9.32259,-5.94361 -2.58757,3.17265 -6.52566,5.98208 -12.50497,5.98208 -5.79422,0 -9.77987,-2.99376 -12.3932,-6.25368 -1.19866,1.91295 -4.12339,6.15897 -9.44333,6.15897 -5.31994,0 -8.68628,-4.24602 -9.75877,-7.10529"
     id="path11044-5"
     inkscape:connector-curvature="0"
     sodipodi:nodetypes="cscscsc" />
  <path
     style="fill:none;stroke:#000000;stroke-width:1;stroke-linecap:round;stroke-linejoin:round;stroke-miterlimit:4;stroke-dasharray:none;stroke-opacity:1"
     d="m 315.3136,608.35167 -0.002,37.04956"
     id="path14359-1-7-5-3-0-73-1-9-4"
     inkscape:connector-curvature="0"
     sodipodi:nodetypes="cc"
     inkscape:transform-center-x="0.03366111"
     inkscape:transform-center-y="-0.1641457" />
  <path
     style="fill:none;stroke:#000000;stroke-width:1;stroke-linecap:round;stroke-linejoin:round;stroke-miterlimit:4;stroke-dasharray:none;stroke-opacity:1"
     d="m 340.23326,608.35167 -0.002,37.36499"
     id="path14359-1-7-5-3-0-73-1-9-5"
     inkscape:connector-curvature="0"
     sodipodi:nodetypes="cc"
     inkscape:transform-center-x="0.03366111"
     inkscape:transform-center-y="-0.1641457" />
  <path
     style="color:#000000;display:inline;overflow:visible;visibility:visible;fill:none;fill-rule:evenodd;stroke:#000000;stroke-width:1;stroke-linecap:round;stroke-linejoin:round;stroke-miterlimit:4;stroke-dasharray:none;stroke-dashoffset:0;stroke-opacity:1;marker:none;enable-background:accumulate"
     d="m 371.54749,542.92016 v 52.15472 c 0,4.72283 -3.4623,7.70535 -8.77694,7.70535 h -67.75476 c -5.31464,0 -8.58892,-3.07654 -8.58892,-7.79936 v -52.06071 z m -85.12062,2.86456 h 85.12062"
     id="path11041-7"
     inkscape:connector-curvature="0"
     sodipodi:nodetypes="csssscccc" />
  <path
     style="color:#000000;display:inline;overflow:visible;visibility:visible;fill:none;fill-rule:evenodd;stroke:#000000;stroke-width:1;stroke-linecap:round;stroke-linejoin:round;stroke-miterlimit:4;stroke-dasharray:none;stroke-dashoffset:0;stroke-opacity:1;marker:none;enable-background:accumulate"
     d="m 371.5664,594.50181 c -1.60696,3.35507 -5.69327,7.12369 -12.71627,7.12368 -7.02302,10e-6 -10.09229,-3.42494 -12.63079,-6.87401 -3.50579,3.81983 -8.65333,7.10834 -16.75445,7.10834 -7.85033,0 -13.43835,-4.07449 -16.97905,-7.99939 -1.62401,2.30316 -5.5866,7.88536 -12.79437,7.88536 -7.20776,0 -12.42673,-5.39418 -13.22174,-9.02472"
     id="path11044-5-4"
     inkscape:connector-curvature="0"
     sodipodi:nodetypes="cscscsc" />
  <path
     style="fill:none;stroke:#000000;stroke-width:1;stroke-linecap:round;stroke-linejoin:round;stroke-miterlimit:4;stroke-dasharray:none;stroke-opacity:1"
     d="m 312.43858,549.28667 -0.003,44.60722"
     id="path14359-1-7-5-3-0-73-1-9-4-9"
     inkscape:connector-curvature="0"
     sodipodi:nodetypes="cc"
     inkscape:transform-center-x="0.045748908"
     inkscape:transform-center-y="-0.19762834" />
  <path
     style="fill:none;stroke:#000000;stroke-width:1;stroke-linecap:round;stroke-linejoin:round;stroke-miterlimit:4;stroke-dasharray:none;stroke-opacity:1"
     d="m 346.20119,549.28667 -0.003,45.55104"
     id="path14359-1-7-5-3-0-73-1-9-5-1"
     inkscape:connector-curvature="0"
     sodipodi:nodetypes="cc"
     inkscape:transform-center-x="0.045746201"
     inkscape:transform-center-y="-0.19763026" />
  <path
     style="color:#000000;display:inline;overflow:visible;visibility:visible;fill:none;fill-rule:evenodd;stroke:#000000;stroke-width:1;stroke-linecap:round;stroke-linejoin:round;stroke-miterlimit:4;stroke-dasharray:none;stroke-dashoffset:0;stroke-opacity:1;marker:none;enable-background:accumulate"
     d="m 380.67183,466.90495 v 66.00884 c 0,5.84118 -4.28215,9.52994 -10.85527,9.52994 H 286.0178 c -6.57312,0 -10.62274,-3.241 -10.62274,-9.08216 v -66.45662 z m -105.27677,3.54287 h 105.27677"
     id="path11041-7-5"
     inkscape:connector-curvature="0"
     sodipodi:nodetypes="csssscccc" />
  <path
     style="color:#000000;display:inline;overflow:visible;visibility:visible;fill:none;fill-rule:evenodd;stroke:#000000;stroke-width:1;stroke-linecap:round;stroke-linejoin:round;stroke-miterlimit:4;stroke-dasharray:none;stroke-dashoffset:0;stroke-opacity:1;marker:none;enable-background:accumulate"
     d="m 380.69522,532.20502 c -1.98748,4.14954 -7.04141,8.81055 -15.72742,8.81054 -8.68604,10e-6 -12.20006,-4.23595 -15.33967,-8.50175 -4.33594,4.72435 -10.98443,8.79156 -21.00385,8.79156 -9.70925,0 -16.15045,-4.75729 -20.52957,-9.61158 -2.00857,2.84853 -7.37952,9.47055 -16.29405,9.47055 -8.91453,0 -15.36932,-6.10744 -16.35259,-10.59768"
     id="path11044-5-4-1"
     inkscape:connector-curvature="0"
     sodipodi:nodetypes="cscscsc" />
  <path
     style="fill:none;stroke:#000000;stroke-width:1;stroke-linecap:round;stroke-linejoin:round;stroke-miterlimit:4;stroke-dasharray:none;stroke-opacity:1"
     d="m 308.03626,475.90712 -0.004,55.82805"
     id="path14359-1-7-5-3-0-73-1-9-4-9-5"
     inkscape:connector-curvature="0"
     sodipodi:nodetypes="cc"
     inkscape:transform-center-x="0.056727535"
     inkscape:transform-center-y="-0.2444238" />
  <path
     style="fill:none;stroke:#000000;stroke-width:1;stroke-linecap:round;stroke-linejoin:round;stroke-miterlimit:4;stroke-dasharray:none;stroke-opacity:1"
     d="m 349.60568,475.90712 -0.004,56.71334"
     id="path14359-1-7-5-3-0-73-1-9-5-1-3"
     inkscape:connector-curvature="0"
     sodipodi:nodetypes="cc"
     inkscape:transform-center-x="0.056726586"
     inkscape:transform-center-y="-0.24442717" />
  <path
     style="fill:none;stroke:#000000;stroke-width:1;stroke-linecap:round;stroke-linejoin:round;stroke-miterlimit:4;stroke-dasharray:none;stroke-opacity:1"
     d="m 320.94601,653.01367 -0.002,13.70934 h 15.04137 l 0.002,-13.70934"
     id="path14359-1-7-5-3-0-73-1-9-44-6"
     inkscape:connector-curvature="0"
     sodipodi:nodetypes="cccc"
     inkscape:transform-center-x="0.03366111"
     inkscape:transform-center-y="-0.1641457" />
  <path
     style="fill:none;stroke:#000000;stroke-width:1;stroke-linecap:butt;stroke-linejoin:round;stroke-miterlimit:4;stroke-dasharray:none;stroke-opacity:1"
     d="m 323.10819,359.42046 -3e-5,9.39619 m -7e-5,5.53719 -6e-5,9.39154 m -6e-5,6.10125 -6e-5,9.39154 m -1e-5,5.47483 -10e-6,8.85914 m -10e-6,5.49717 -4e-5,9.30218 m -6e-5,5.44318 -6e-5,9.39154 m -6e-5,6.10125 -7e-5,8.82749 m -6e-5,5.81921 -6e-5,9.39154 m -6e-5,5.6312 -7e-5,9.10952 m -6e-5,5.06714 -6e-5,9.29754 m -10e-6,6.07413 -1e-5,9.08241 m -10e-6,5.37966 -2e-5,9.61004 m -10e-6,5.28565 -7e-5,9.39154 m -6e-5,5.25517 -6e-5,9.39154 m -6e-5,5.34917 -7e-5,9.39154 m -6e-5,5.72521 -6e-5,9.39154 m -6e-5,5.25516 -7e-5,8.45146 m -6e-5,6.00723 -6e-5,9.10952 m -6e-5,5.81921 -7e-5,8.63948 m -6e-5,6.28926 -6e-5,11.45972"
     id="path14359-1-7-5-3-0-73-1-9-44"
     inkscape:connector-curvature="0"
     sodipodi:nodetypes="cccccccccccccccccccccccccccccccccccccccc"
     inkscape:transform-center-x="0.03366111"
     inkscape:transform-center-y="-0.1641457" />
  <path
     style="fill:none;stroke:#000000;stroke-width:1;stroke-linecap:butt;stroke-linejoin:round;stroke-miterlimit:4;stroke-dasharray:none;stroke-opacity:1"
     d="m 335.79937,352.28047 -2e-5,2.44189 m -1e-5,4.6981 -3e-5,9.39619 m -6e-5,5.53719 -7e-5,9.39154 m -6e-5,6.10125 -6e-5,9.39154 m -10e-6,5.47483 -1e-5,8.85914 m -10e-6,5.49717 -4e-5,9.30218 m -6e-5,5.44318 -6e-5,9.39154 m -6e-5,6.10125 -7e-5,8.82749 m -6e-5,5.81921 -6e-5,9.39154 m -6e-5,5.6312 -7e-5,9.10952 m -6e-5,5.06714 -6e-5,9.29754 m -10e-6,6.07413 -10e-6,9.08241 m -1e-5,5.37966 -2e-5,9.61004 m -10e-6,5.28565 -7e-5,9.39154 m -6e-5,5.25517 -6e-5,9.39154 m -6e-5,5.34917 -6e-5,9.39154 m -7e-5,5.72521 -6e-5,9.39154 m -6e-5,5.25516 -7e-5,8.45146 m -6e-5,6.00723 -6e-5,9.10952 m -6e-5,5.81921 -6e-5,8.63948 m -7e-5,6.28926 -6e-5,11.45972"
     id="path14359-1-7-5-3-0-73-1-9-44-3"
     inkscape:connector-curvature="0"
     sodipodi:nodetypes="cccccccccccccccccccccccccccccccccccccccccc"
     inkscape:transform-center-x="0.03366111"
     inkscape:transform-center-y="-0.1641457" />
  <path
     style="fill:none;stroke:#000000;stroke-width:1;stroke-linecap:round;stroke-linejoin:round;stroke-miterlimit:4;stroke-dasharray:none;stroke-opacity:1"
     d="m 383.70108,365.13106 c -7.20826,12.76426 -24.74705,25.13011 -33.6987,28.62268 -17.3645,6.77493 -47.57432,4.07457 -64.39425,13.33533 -3.63113,1.99923 -9.77355,11.1098 -13.68053,17.64451 l -0.002,42.64938 h 111.77448 l 0.002,-102.2519 c -7.11776,-4.90512 -14.63642,-8.21763 -23.57951,-9.23762 m -11.12279,-0.11016 c -3.25884,0.27659 -6.4577,1.06022 -9.55831,2.23216 m -16.52795,10.22668 c -2.4675,2.12845 -4.77788,4.40306 -6.89767,6.72006 -6.35951,6.95115 -10.78655,15.78764 -11.99559,26.21497"
     id="path14359-1-7-5-3-0-73-1-9-14"
     inkscape:connector-curvature="0"
     sodipodi:nodetypes="cssccccccccsc"
     inkscape:transform-center-x="0.03366111"
     inkscape:transform-center-y="-0.1641457" />
  <path
     style="fill:none;stroke:#000000;stroke-width:1;stroke-linecap:round;stroke-linejoin:round;stroke-miterlimit:4;stroke-dasharray:none;stroke-opacity:1"
     d="m 272.9836,289.30157 0.002,-102.32231 h 111.35995 l -0.002,44.4207 c -4.42363,7.40228 -10.63026,18.53725 -14.59563,21.14705 -2.45869,1.61818 -8.40378,3.5411 -14.44676,5.07778 m -5.827,1.35646 c -1.17568,0.24781 -2.30918,0.47001 -3.3715,0.6607 -8.50031,1.52581 -18.46852,1.64324 -26.967,2.87501 -6.2364,0.9039 -23.2797,6.34068 -31.2368,10.18586 -7.48904,3.619 -16.18758,11.62456 -15.88821,15.0013 0.2176,2.45432 7.97103,4.52591 11.75718,3.68972 4.2813,-0.94554 9.58521,-3.29562 13.52389,-6.8816 3.71047,-3.37823 9.03899,-13.93807 9.15641,-18.67679"
     id="path14359-1-7-5-3-0-73-1-9-2"
     inkscape:connector-curvature="0"
     sodipodi:nodetypes="ccccsccssssssc"
     inkscape:transform-center-x="0.03366111"
     inkscape:transform-center-y="-0.1641457" />
  <path
     style="fill:none;stroke:#000000;stroke-width:1;stroke-linecap:round;stroke-linejoin:round;stroke-miterlimit:4;stroke-dasharray:none;stroke-opacity:1"
     d="m 329.46348,113.09263 c 1.48441,-2.56945 3.64187,-5.63194 4.87056,-5.57287 1.23374,0.0593 2.58569,1.95102 3.35668,4.05732 l -3.2e-4,33.60256 m -3e-4,31.62566 -8e-4,83.79086 m -0.3103,32.85679 -1.7e-4,18.41004 c -0.89887,1.14193 -2.00515,1.93022 -3.55398,1.93808 -2.82641,0.0143 -4.45452,-2.3108 -9.59004,-2.416 -1.11051,-0.0227 -1.95485,0.88374 -1.89835,2.54834"
     id="path14359-1-7-5-3-0-73-1-9-10"
     inkscape:connector-curvature="0"
     sodipodi:nodetypes="csccccccssc"
     inkscape:transform-center-x="0.03366111"
     inkscape:transform-center-y="-0.1641457" />
  <path
     style="fill:none;stroke:#000000;stroke-width:1;stroke-linecap:round;stroke-linejoin:round;stroke-miterlimit:4;stroke-dasharray:none;stroke-opacity:1"
     d="m 337.6635,112.42187 c 0.007,2.88227 -9.58375,0.5832 -14.39446,-0.9903 -0.67622,-0.22118 -0.99097,0.073 -0.99098,0.46938 l -10e-4,202.14476 c -1e-5,1.37621 0.7101,2.19319 2.32737,2.13509 2.24599,-0.0807 3.46612,-2.15781 4.96483,-3.53067 m 0.88105,42.05496 c 1.35236,-1.49883 2.84362,-3.84011 4.73624,-4.46516 1.22625,-0.40497 3.89987,-0.11798 3.94626,0.99506 0.2449,5.87584 -9.5066,2.74897 -13.05375,3.56254 -0.90049,0.20653 -3.80226,2.54265 -3.80227,3.51957 l -2.4e-4,39.99223"
     id="path14359-1-7-5-3-0-73-1-9-0"
     inkscape:connector-curvature="0"
     sodipodi:nodetypes="cssssccssssc"
     inkscape:transform-center-x="0.03366111"
     inkscape:transform-center-y="-0.1641457" />
  <path
     style="fill:none;stroke:#000000;stroke-width:1;stroke-linecap:butt;stroke-linejoin:round;stroke-miterlimit:4;stroke-dasharray:none;stroke-opacity:1"
     d="m 402.07306,157.62555 -35.08223,13.09487 c -5.65748,2.11172 -11.67339,8.92573 -11.67347,16.1554 m -3e-5,2.58318 -1e-4,8.76577 m -6e-5,5.6419 -9e-5,8.86584 m -7e-5,5.95189 -9e-5,8.86584 m -7e-5,6.13789 -1.2e-4,8.67985 m -9e-5,6.01389 -0.002,125.05991 c -3e-5,3.47171 4.90801,3.54306 4.90804,0 l 0.002,-125.6179 m 8e-5,-5.39391 1.3e-4,-9.11383 m 6e-5,-5.5179 1e-4,-9.23784 m 6e-5,-5.5799 1e-4,-9.36183 m 6e-5,-5.20791 10e-5,-9.21008 m 2e-5,-2.1957 c 2.00803,-4.62086 6.10548,-8.46009 10.40588,-10.26443 l 32.47505,-13.62574"
     id="path14359-1-7-5-3-0-73-1-9-0-89"
     inkscape:connector-curvature="0"
     sodipodi:nodetypes="csccccccccccssccccccccccsc"
     inkscape:transform-center-x="0.03366111"
     inkscape:transform-center-y="-0.1641457" />
  <path
     style="fill:none;stroke:#000000;stroke-width:1;stroke-linecap:round;stroke-linejoin:round;stroke-miterlimit:4;stroke-dasharray:none;stroke-opacity:1"
     d="m 323.7592,285.95764 c -1.93885,-1.9386 -1.38261,-12.88859 0.17136,-14.65922 1.7847,-2.03356 10.75902,-9.47334 14.16945,-9.76246 0.48507,-0.0411 1.73007,-0.3309 1.74034,0.26817 0.0312,1.82267 0.8389,3.13102 0.84795,4.51668 0.0219,3.34757 0.35386,8.11661 -1.51418,9.9114 -8.21725,7.895 -10.4913,6.75283 -13.51597,8.09926 -2.33714,1.04038 -2.9057,3.70227 -3.68925,5.96495 -1.1302,3.26374 -2.33104,3.71863 -2.67992,6.67733 -0.2265,1.92091 -0.11555,4.08136 -0.28617,5.95755 -0.12285,1.35087 -0.75217,2.32348 -0.80856,3.50273 -0.17193,3.59515 -0.2382,6.17086 -0.24482,6.43098 -0.12853,5.05395 6.92863,4.93044 9.40298,4.90594 1.42966,-0.0142 3.17992,-0.89307 4.89906,-0.75246 2.77311,0.22682 6.61868,2.72965 8.25754,0.67346 0.70137,-0.87997 -0.11694,-3.90007 -0.0431,-6.76045 2.95624,-2.4253 -0.46849,-5.31481 -2.75892,-4.83312"
     id="path14359-1-7-5-3-0-73-1-9-0-0"
     inkscape:connector-curvature="0"
     sodipodi:nodetypes="csssssssssssssscc"
     inkscape:transform-center-x="0.03366111"
     inkscape:transform-center-y="-0.1641457" />
  <path
     style="fill:none;stroke:#000000;stroke-width:1;stroke-linecap:round;stroke-linejoin:round;stroke-miterlimit:4;stroke-dasharray:none;stroke-opacity:1"
     d="m 341.05689,307.53325 c -2.29006,-0.82571 -2.16229,3.23547 -0.62199,3.33905"
     id="path14359-1-7-5-3-0-73-1-9-0-6"
     inkscape:connector-curvature="0"
     sodipodi:nodetypes="cc"
     inkscape:transform-center-x="0.03366111"
     inkscape:transform-center-y="-0.1641457" />
  <path
     style="fill:none;stroke:#000000;stroke-width:1;stroke-linecap:round;stroke-linejoin:round;stroke-miterlimit:4;stroke-dasharray:none;stroke-opacity:1"
     d="m 340.12691,311.06719 c 0.25,2.94487 -1.60691,3.8158 -1.53341,4.78797 0.13926,1.84173 -0.48193,2.43678 -1.44454,2.33301"
     id="path14359-1-7-5-3-0-73-1-9-0-1"
     inkscape:connector-curvature="0"
     sodipodi:nodetypes="csc"
     inkscape:transform-center-x="0.03366111"
     inkscape:transform-center-y="-0.1641457" />
  <path
     style="fill:none;stroke:#000000;stroke-width:1;stroke-linecap:round;stroke-linejoin:round;stroke-miterlimit:4;stroke-dasharray:none;stroke-opacity:1"
     d="m 340.1889,274.73584 c -0.29206,2.15573 -0.14993,6.01756 -0.25148,9.29723 -0.11913,3.84747 -1.11565,3.95708 -0.40287,8.69964 0.21093,1.4035 -1.35338,1.00452 -2.1996,0.7799"
     id="path14359-1-7-5-3-0-73-1-9-0-8"
     inkscape:connector-curvature="0"
     sodipodi:nodetypes="cssc"
     inkscape:transform-center-x="0.03366111"
     inkscape:transform-center-y="-0.1641457" />
  <path
     style="fill:none;stroke:#000000;stroke-width:1;stroke-linecap:round;stroke-linejoin:round;stroke-miterlimit:4;stroke-dasharray:none;stroke-opacity:1"
     d="m 339.38291,292.59152 c -2.90165,-0.0904 -7.84068,2.55272 -12.18229,5.67848 -5.34969,3.85154 -7.44542,6.79432 -7.48072,11.90233 -0.0213,3.07784 2.2225,8.40327 5.95926,5.72188"
     id="path14359-1-7-5-3-0-73-1-9-0-3"
     inkscape:connector-curvature="0"
     sodipodi:nodetypes="cssc"
     inkscape:transform-center-x="0.03366111"
     inkscape:transform-center-y="-0.1641457" />
  <path
     style="fill:#000000;fill-opacity:1;stroke:#000000;stroke-width:1;stroke-linecap:round;stroke-linejoin:round;stroke-miterlimit:4;stroke-dasharray:none;stroke-opacity:1"
     d="m 355.25463,256.88016 -0.002,115.49504 c -3e-5,1.88325 -2.05543,3.36232 -3.85015,3.4045 -0.73336,0.0172 -1.92656,-0.51953 -2.10199,-1.37998 -0.23879,-1.17123 0.43422,-1.74833 0.43424,-2.76851 l 0.002,-114.75105 z"
     id="path14359-1-7-5-3-0-73-1-9-0-5"
     inkscape:connector-curvature="0"
     sodipodi:nodetypes="csssscc"
     inkscape:transform-center-x="0.03366111"
     inkscape:transform-center-y="-0.1641457" />
  <path
     style="fill:none;stroke:#000000;stroke-width:1;stroke-linecap:round;stroke-linejoin:round;stroke-miterlimit:4;stroke-dasharray:none;stroke-opacity:1"
     d="m 339.44491,373.31408 c 1.75573,1.21343 -0.74408,11.28199 -0.18614,17.04698 -4.55407,-2.29749 -11.09465,5.15508 -16.43156,7.86768"
     id="path14359-1-7-5-3-0-73-1-9-0-12"
     inkscape:connector-curvature="0"
     sodipodi:nodetypes="ccc"
     inkscape:transform-center-x="0.03366111"
     inkscape:transform-center-y="-0.1641457" />
  <path
     style="fill:none;stroke:#000000;stroke-width:1;stroke-linecap:round;stroke-linejoin:round;stroke-miterlimit:4;stroke-dasharray:none;stroke-opacity:1"
     d="m 338.82493,358.37234 c 2.26805,2.17488 2.50447,12.25552 0.86323,14.26872 -1.98043,2.42926 -6.16575,6.20877 -9.60954,7.35762 -4.10468,1.36933 -7.63447,2.38847 -7.7474,7.38025"
     id="path14359-1-7-5-3-0-73-1-9-0-68"
     inkscape:connector-curvature="0"
     sodipodi:nodetypes="cssc"
     inkscape:transform-center-x="0.03366111"
     inkscape:transform-center-y="-0.1641457" />
  <path
     style="fill:none;stroke:#000000;stroke-width:1;stroke-linecap:round;stroke-linejoin:round;stroke-miterlimit:4;stroke-dasharray:none;stroke-opacity:1"
     d="m 339.01092,352.60645 c 0.0366,1.7021 0.47785,5.40359 -0.16421,5.61984 -4.77784,1.60922 -8.3911,4.12134 -11.22359,6.48935 -3.95583,3.30713 -5.28146,4.8277 -5.1679,9.45753"
     id="path14359-1-7-5-3-0-73-1-9-0-2"
     inkscape:connector-curvature="0"
     sodipodi:nodetypes="cssc"
     inkscape:transform-center-x="0.03366111"
     inkscape:transform-center-y="-0.1641457" />
  <path
     style="fill:none;stroke:#000000;stroke-width:1;stroke-linecap:round;stroke-linejoin:round;stroke-miterlimit:4;stroke-dasharray:none;stroke-opacity:1"
     d="m 339.94369,159.62319 c 1.32511,3.0399 -1.68226,14.01539 -0.39628,17.47791 -3.21748,-2.71404 -12.99872,5.04624 -17.2528,8.98742"
     id="path14359-1-7-5-3-0-73-1-9-0-4"
     inkscape:connector-curvature="0"
     sodipodi:nodetypes="ccc"
     inkscape:transform-center-x="0.03366111"
     inkscape:transform-center-y="-0.1641457" />
  <path
     style="fill:none;stroke:#000000;stroke-width:1;stroke-linecap:round;stroke-linejoin:round;stroke-miterlimit:4;stroke-dasharray:none;stroke-opacity:1"
     d="m 323.24199,185.22722 c -0.83184,-3.39142 -0.61395,-8.64822 -0.61395,-11.89612 0,-5.33058 4.12392,-5.57443 8.51132,-7.28349 3.34639,-1.30355 6.42234,-4.06679 8.76448,-6.45811 1.31781,-1.3455 1.10369,-5.90193 0.70054,-12.06864 -0.0645,-0.98727 -0.67833,-1.87217 -1.17895,-2.87992 -5.84573,1.60052 -16.01524,9.70668 -16.37887,12.40869 -0.62972,4.67923 -0.5013,11.27102 0.50855,12.3372"
     id="path14359-1-7-5-3-0-73-1-9-0-22"
     inkscape:connector-curvature="0"
     sodipodi:nodetypes="csssscsc"
     inkscape:transform-center-x="0.03366111"
     inkscape:transform-center-y="-0.1641457" />
  <path
     style="fill:none;stroke:#000000;stroke-width:1;stroke-linecap:round;stroke-linejoin:round;stroke-miterlimit:4;stroke-dasharray:none;stroke-opacity:1"
     d="m 281.56651,129.60739 c 9.4708,2.21054 17.55396,6.82561 23.25745,12.38235 3.85686,7.63733 9.34856,12.35173 17.31308,15.10715"
     id="path14359-1-7-5-3-0-73-1-9-0-52"
     inkscape:connector-curvature="0"
     sodipodi:nodetypes="ccc"
     inkscape:transform-center-x="0.03366111"
     inkscape:transform-center-y="-0.1641457" />
  <path
     style="fill:none;stroke:#000000;stroke-width:1;stroke-linecap:round;stroke-linejoin:round;stroke-miterlimit:4;stroke-dasharray:none;stroke-opacity:1"
     d="m 281.01504,125.98344 c 9.66246,0.69849 20.65439,4.12912 27.40331,8.71155 3.09604,4.74908 7.93416,7.92617 13.79748,9.00903"
     id="path14359-1-7-5-3-0-73-1-9-0-53"
     inkscape:connector-curvature="0"
     sodipodi:nodetypes="ccc"
     inkscape:transform-center-x="0.03366111"
     inkscape:transform-center-y="-0.1641457" />
  <path
     style="fill:none;stroke:#000000;stroke-width:1;stroke-linecap:round;stroke-linejoin:round;stroke-miterlimit:4;stroke-dasharray:none;stroke-opacity:1"
     d="m 308.1947,134.49186 c -0.19444,1.53166 -0.21099,3.69432 -2.10621,3.49607 -0.27602,1.59789 0.40336,4.56487 -0.65315,5.08583"
     id="path14359-1-7-5-3-0-73-1-9-0-88"
     inkscape:connector-curvature="0"
     sodipodi:nodetypes="ccc"
     inkscape:transform-center-x="0.03366111"
     inkscape:transform-center-y="-0.1641457" />
  <path
     style="fill:none;stroke:#000000;stroke-width:1;stroke-linecap:round;stroke-linejoin:round;stroke-miterlimit:4;stroke-dasharray:none;stroke-opacity:1"
     d="m 287.55391,129.6074 c 6.26187,0.99734 13.19511,4.6698 18.35411,10.47266"
     id="path14359-1-7-5-3-0-73-1-9-0-55"
     inkscape:connector-curvature="0"
     sodipodi:nodetypes="cc"
     inkscape:transform-center-x="0.03366111"
     inkscape:transform-center-y="-0.1641457" />
  <path
     style="fill:none;stroke:#000000;stroke-width:1;stroke-linecap:round;stroke-linejoin:round;stroke-miterlimit:4;stroke-dasharray:none;stroke-opacity:1"
     d="m 307.48566,137.40677 c -3.30481,-3.41319 -7.63422,-6.05406 -13.71,-7.72589"
     id="path14359-1-7-5-3-0-73-1-9-0-9"
     inkscape:connector-curvature="0"
     sodipodi:nodetypes="cc"
     inkscape:transform-center-x="0.03366111"
     inkscape:transform-center-y="-0.1641457" />
  <text
     xml:space="preserve"
     style="font-style:normal;font-variant:normal;font-weight:normal;font-stretch:normal;line-height:0%;font-family:Arial;-inkscape-font-specification:Arial;text-align:start;letter-spacing:3px;word-spacing:0px;text-anchor:start;fill:#000000;fill-opacity:1;stroke:none;stroke-width:1px;stroke-linecap:butt;stroke-linejoin:miter;stroke-opacity:1"
     x="132.07758"
     y="763.62683"
     id="text11419"><tspan
       sodipodi:role="line"
       id="tspan11421"
       x="132.07758"
       y="763.62683"
       style="font-size:12.5px;line-height:1.29999995">Figure 15A-2.  Method 15A Sampling Probe.</tspan></text>
  <text
     xml:space="preserve"
     style="font-style:normal;font-variant:normal;font-weight:normal;font-stretch:normal;line-height:0%;font-family:Arial;-inkscape-font-specification:Arial;text-align:start;letter-spacing:0.64999998px;word-spacing:0px;text-anchor:start;fill:#000000;fill-opacity:1;stroke:none;stroke-width:1px;stroke-linecap:butt;stroke-linejoin:miter;stroke-opacity:1"
     x="-665.78723"
     y="242.22742"
     id="text11423"
     transform="rotate(-90)"><tspan
       sodipodi:role="line"
       id="tspan11425"
       x="-665.78723"
       y="242.22742"
       style="font-size:15px;line-height:1.20000005">Series of Fittings Bored</tspan><tspan
       sodipodi:role="line"
       x="-665.78723"
       y="260.22742"
       id="tspan11427"
       style="font-size:15px;line-height:1.20000005">To Pass Tube Through</tspan></text>
  <text
     xml:space="preserve"
     style="font-style:normal;font-variant:normal;font-weight:normal;font-stretch:normal;line-height:0%;font-family:Arial;-inkscape-font-specification:Arial;text-align:center;letter-spacing:0.64999998px;word-spacing:0px;text-anchor:middle;fill:#000000;fill-opacity:1;stroke:none;stroke-width:1px;stroke-linecap:butt;stroke-linejoin:miter;stroke-opacity:1"
     x="-691.57965"
     y="380.49597"
     id="text11423-4"
     transform="rotate(-90)"><tspan
       sodipodi:role="line"
       x="-691.25464"
       y="380.49597"
       id="tspan11427-4"
       style="font-size:15px;line-height:1.20000005">Flue Gas</tspan><tspan
       sodipodi:role="line"
       x="-688.84955"
       y="398.49597"
       id="tspan11452"
       style="font-size:15px;line-height:1.20000005">Flow   </tspan></text>
  <text
     xml:space="preserve"
     style="font-style:normal;font-variant:normal;font-weight:normal;font-stretch:normal;line-height:0%;font-family:Arial;-inkscape-font-specification:Arial;text-align:center;letter-spacing:0.64999998px;word-spacing:0px;text-anchor:middle;fill:#000000;fill-opacity:1;stroke:none;stroke-width:1px;stroke-linecap:butt;stroke-linejoin:miter;stroke-opacity:1"
     x="-426.24908"
     y="405.46109"
     id="text11423-4-2"
     transform="rotate(-90)"><tspan
       sodipodi:role="line"
       x="-425.92407"
       y="405.46109"
       id="tspan11452-2"
       style="font-size:15px;line-height:1.20000005">SS Sheath</tspan></text>
  <text
     xml:space="preserve"
     style="font-style:normal;font-variant:normal;font-weight:normal;font-stretch:normal;line-height:0%;font-family:Arial;-inkscape-font-specification:Arial;text-align:center;letter-spacing:0.64999998px;word-spacing:0px;text-anchor:middle;fill:#000000;fill-opacity:1;stroke:none;stroke-width:1px;stroke-linecap:butt;stroke-linejoin:miter;stroke-opacity:1"
     x="-166.02397"
     y="233.98163"
     id="text11423-4-8"
     transform="rotate(-90)"><tspan
       sodipodi:role="line"
       x="-165.69897"
       y="233.98163"
       id="tspan11452-9"
       style="font-size:15px;line-height:1.08000004">Rubberized</tspan><tspan
       sodipodi:role="line"
       x="-165.69897"
       y="250.18163"
       id="tspan11489"
       style="font-size:15px;line-height:1.08000004"> Heating Tape</tspan></text>
  <text
     xml:space="preserve"
     style="font-style:normal;font-variant:normal;font-weight:normal;font-stretch:normal;line-height:0%;font-family:Arial;-inkscape-font-specification:Arial;text-align:center;letter-spacing:1.09000003px;word-spacing:0px;text-anchor:middle;fill:#000000;fill-opacity:1;stroke:none;stroke-width:1px;stroke-linecap:butt;stroke-linejoin:miter;stroke-opacity:1"
     x="-151.5574"
     y="376.15143"
     id="text11423-4-8-0"
     transform="rotate(-90)"><tspan
       sodipodi:role="line"
       x="-151.5574"
       y="376.15143"
       id="tspan11489-0"
       style="font-size:15px;line-height:126.99999809%;text-align:start;letter-spacing:1.09000003px;text-anchor:start">0.25-in. Teflon</tspan><tspan
       sodipodi:role="line"
       x="-151.5574"
       y="395.20142"
       style="font-size:15px;line-height:126.99999809%;text-align:start;letter-spacing:1.09000003px;text-anchor:start"
       id="tspan11514">Tubing</tspan></text>
  <text
     xml:space="preserve"
     style="font-style:normal;font-variant:normal;font-weight:normal;font-stretch:normal;line-height:0%;font-family:Arial;-inkscape-font-specification:Arial;text-align:center;letter-spacing:1.09000003px;word-spacing:0px;text-anchor:middle;fill:#000000;fill-opacity:1;stroke:none;stroke-width:1px;stroke-linecap:butt;stroke-linejoin:miter;stroke-opacity:1"
     x="-216.32344"
     y="440.73654"
     id="text11423-4-8-0-0"
     transform="rotate(-90)"><tspan
       sodipodi:role="line"
       x="-216.32344"
       y="440.73654"
       style="font-size:15px;line-height:112.99999952%;text-align:start;letter-spacing:1.09000003px;text-anchor:start"
       id="tspan11514-7">Flexible Themocouple</tspan><tspan
       sodipodi:role="line"
       x="-216.32344"
       y="457.68655"
       style="font-size:15px;line-height:112.99999952%;text-align:start;letter-spacing:1.09000003px;text-anchor:start"
       id="tspan11539">Temperature Monitor</tspan></text>
</svg>
