<?xml version="1.0" encoding="UTF-8" standalone="no"?>
<!-- Created with Inkscape (http://www.inkscape.org/) -->

<svg
   xmlns:dc="http://purl.org/dc/elements/1.1/"
   xmlns:cc="http://creativecommons.org/ns#"
   xmlns:rdf="http://www.w3.org/1999/02/22-rdf-syntax-ns#"
   xmlns:svg="http://www.w3.org/2000/svg"
   xmlns="http://www.w3.org/2000/svg"
   xmlns:sodipodi="http://sodipodi.sourceforge.net/DTD/sodipodi-0.dtd"
   xmlns:inkscape="http://www.inkscape.org/namespaces/inkscape"
   id="svg12475"
   version="1.1"
   inkscape:version="0.92.2 5c3e80d, 2017-08-06"
   width="565.12"
   height="414.08002"
   viewBox="0 0 529.79999 388.20001"
   sodipodi:docname="er20de04.006.svg">
  <metadata
     id="metadata12481">
    <rdf:RDF>
      <cc:Work
         rdf:about="">
        <dc:format>image/svg+xml</dc:format>
        <dc:type
           rdf:resource="http://purl.org/dc/dcmitype/StillImage" />
        <dc:title></dc:title>
      </cc:Work>
    </rdf:RDF>
  </metadata>
  <defs
     id="defs12479" />
  <sodipodi:namedview
     pagecolor="#ffffff"
     bordercolor="#666666"
     borderopacity="1"
     objecttolerance="10"
     gridtolerance="10"
     guidetolerance="10"
     inkscape:pageopacity="0"
     inkscape:pageshadow="2"
     inkscape:window-width="1280"
     inkscape:window-height="756"
     id="namedview12477"
     showgrid="false"
     inkscape:zoom="0.87523132"
     inkscape:cx="186.12892"
     inkscape:cy="298.23904"
     inkscape:window-x="0"
     inkscape:window-y="0"
     inkscape:window-maximized="0"
     inkscape:current-layer="svg12475" />
  <path
     style="fill:none;stroke:#000000;stroke-width:1;stroke-linecap:butt;stroke-linejoin:miter;stroke-miterlimit:4;stroke-dasharray:none;stroke-opacity:1"
     d="m 63.331694,166.75737 -0.002,79.83839"
     id="path14359-1-7-5-3-0-73-1-9-8"
     inkscape:connector-curvature="0"
     sodipodi:nodetypes="cc" />
  <path
     style="fill:none;stroke:#000000;stroke-width:1;stroke-linecap:butt;stroke-linejoin:miter;stroke-miterlimit:4;stroke-dasharray:none;stroke-opacity:1"
     d="m 134.32098,168.0829 -5.8e-4,21.87731 m -8e-5,3.53474 -8e-5,3.09289 m -8e-5,2.94561 -4.8e-4,19.14649"
     id="path14359-1-7-5-3-0-73-1-9-8-5"
     inkscape:connector-curvature="0"
     sodipodi:nodetypes="cccccc" />
  <path
     style="fill:none;stroke:#000000;stroke-width:1;stroke-linecap:butt;stroke-linejoin:miter;stroke-miterlimit:4;stroke-dasharray:none;stroke-opacity:1"
     d="m 114.81142,261.39235 -27.179402,-0.001 m -3.092905,-1.2e-4 -3.682012,-1.4e-4 m -3.829298,-1.5e-4 -14.807844,-5.6e-4"
     id="path14359-1-7-5-3-0-73-1-9-8-2"
     inkscape:connector-curvature="0"
     sodipodi:nodetypes="cccccc" />
  <path
     style="fill:none;stroke:#000000;stroke-width:1;stroke-linecap:butt;stroke-linejoin:miter;stroke-miterlimit:4;stroke-dasharray:none;stroke-opacity:1"
     d="m 121.88089,213.82069 -16.36041,-0.002"
     id="path14359-1-7-5-3-0-73-1-9-8-9"
     inkscape:connector-curvature="0"
     sodipodi:nodetypes="cc" />
  <path
     style="fill:none;stroke:#000000;stroke-width:1;stroke-linecap:butt;stroke-linejoin:miter;stroke-miterlimit:4;stroke-dasharray:none;stroke-opacity:1"
     d="m 219.5965,167.78834 -8.8e-4,24.08651 m -1.2e-4,3.38747 -1.6e-4,4.27114 m -1.6e-4,4.27114 -6.8e-4,18.48985"
     id="path14359-1-7-5-3-0-73-1-9-8-94"
     inkscape:connector-curvature="0"
     sodipodi:nodetypes="cccccc" />
  <path
     style="fill:none;stroke:#000000;stroke-width:1;stroke-linecap:butt;stroke-linejoin:miter;stroke-miterlimit:4;stroke-dasharray:none;stroke-opacity:1"
     d="m 290.29123,167.78834 -0.002,76.59822"
     id="path14359-1-7-5-3-0-73-1-9-8-7"
     inkscape:connector-curvature="0"
     sodipodi:nodetypes="cc" />
  <path
     style="fill:none;stroke:#000000;stroke-width:1;stroke-linecap:butt;stroke-linejoin:miter;stroke-miterlimit:4;stroke-dasharray:none;stroke-opacity:1"
     d="m 335.2906,212.49516 -101.78321,-0.002"
     id="path14359-1-7-5-3-0-73-1-9-8-3"
     inkscape:connector-curvature="0"
     sodipodi:nodetypes="cc" />
  <path
     style="fill:none;stroke:#000000;stroke-width:1;stroke-linecap:butt;stroke-linejoin:miter;stroke-miterlimit:4;stroke-dasharray:none;stroke-opacity:1"
     d="m 335.2906,259.62498 -20.55178,-7.6e-4 m -3.8293,-1.5e-4 -3.9766,-1.4e-4 m -3.09287,-1.2e-4 -22.46644,-8.3e-4"
     id="path14359-1-7-5-3-0-73-1-9-8-0"
     inkscape:connector-curvature="0"
     sodipodi:nodetypes="cccccc" />
  <path
     style="fill:none;fill-rule:evenodd;stroke:#000000;stroke-width:1px;stroke-linecap:butt;stroke-linejoin:miter;stroke-opacity:1"
     d="m 203.68919,280.39055 31.51806,29.16158"
     id="path12548"
     inkscape:connector-curvature="0" />
  <path
     style="fill:none;stroke:#000000;stroke-width:1;stroke-linecap:butt;stroke-linejoin:miter;stroke-miterlimit:4;stroke-dasharray:none;stroke-opacity:1"
     d="m 412.23963,167.19922 -0.002,86.38624 m -6e-5,3.38746 -8e-5,4.86027 m -8e-5,4.41841 -2.3e-4,12.45135"
     id="path14359-1-7-5-3-0-73-1-9-8-8"
     inkscape:connector-curvature="0"
     sodipodi:nodetypes="cccccc" />
  <path
     style="fill:none;stroke:#000000;stroke-width:1;stroke-linecap:butt;stroke-linejoin:miter;stroke-miterlimit:4;stroke-dasharray:none;stroke-opacity:1"
     d="m 362.60604,167.19922 -8.3e-4,23.64468 m -1.1e-4,3.24018 -1.7e-4,4.86025 m -1.4e-4,3.82931 -7.5e-4,21.28818"
     id="path14359-1-7-5-3-0-73-1-9-8-52"
     inkscape:connector-curvature="0"
     sodipodi:nodetypes="cccccc" />
  <path
     style="fill:none;stroke:#000000;stroke-width:1;stroke-linecap:butt;stroke-linejoin:miter;stroke-miterlimit:4;stroke-dasharray:none;stroke-opacity:1"
     d="m 430.13937,259.77226 -11.42039,-6.7e-4 m -4.12387,-2.4e-4 -4.71298,-2.8e-4 m -3.24017,-1.9e-4 -10.68397,-6.2e-4"
     id="path14359-1-7-5-3-0-73-1-9-8-4"
     inkscape:connector-curvature="0"
     sodipodi:nodetypes="cccccc" />
  <path
     style="fill:none;stroke:#000000;stroke-width:1;stroke-linecap:round;stroke-linejoin:round;stroke-miterlimit:4;stroke-dasharray:none;stroke-opacity:1"
     d="m 424.98523,252.5107 -0.002,13.68441 -12.25103,7.18165 -12.75798,-7.18165 0.002,-13.68441 12.50451,-6.59021 z"
     id="path14359-1-7-5-3-0-73-1-9-8-21"
     inkscape:connector-curvature="0"
     sodipodi:nodetypes="ccccccc" />
  <path
     style="color:#000000;display:inline;overflow:visible;visibility:visible;fill:none;fill-rule:evenodd;stroke:#000000;stroke-width:1;stroke-linecap:round;stroke-linejoin:round;stroke-miterlimit:4;stroke-dasharray:none;stroke-dashoffset:0;stroke-opacity:1;marker:none;enable-background:accumulate"
     d="m 422.27923,259.56412 a 10.179708,9.5037889 0 0 1 -10.17971,9.50379 10.179708,9.5037889 0 0 1 -10.17971,-9.50379 10.179708,9.5037889 0 0 1 10.17971,-9.50379 10.179708,9.5037889 0 0 1 10.17971,9.50379 z"
     id="path13135"
     inkscape:connector-curvature="0" />
  <path
     style="color:#000000;display:inline;overflow:visible;visibility:visible;fill:none;fill-rule:evenodd;stroke:#000000;stroke-width:1;stroke-linecap:round;stroke-linejoin:round;stroke-miterlimit:4;stroke-dasharray:none;stroke-dashoffset:0;stroke-opacity:1;marker:none;enable-background:accumulate"
     d="m 372.55149,213.16247 0.79563,98.72383 c 0.0434,5.38262 -4.36362,9.74641 -9.74641,9.74641 -5.38279,0 -9.70303,-4.36379 -9.74641,-9.74641 l -0.79563,-98.72383"
     id="path13138"
     inkscape:connector-curvature="0"
     sodipodi:nodetypes="csssc" />
  <path
     style="fill:none;stroke:#000000;stroke-width:1;stroke-linecap:round;stroke-linejoin:round;stroke-miterlimit:4;stroke-dasharray:none;stroke-opacity:1"
     d="m 399.86329,259.87996 -26.65949,26.2548"
     id="path14359-1-7-5-3-0-73-1-9-8-21-3"
     inkscape:connector-curvature="0"
     sodipodi:nodetypes="cc" />
  <path
     style="fill:none;stroke:#000000;stroke-width:1;stroke-linecap:round;stroke-linejoin:round;stroke-miterlimit:4;stroke-dasharray:none;stroke-opacity:1"
     d="m 415.45388,271.83544 -43.94647,45.80362"
     id="path14359-1-7-5-3-0-73-1-9-8-21-5"
     inkscape:connector-curvature="0"
     sodipodi:nodetypes="cc" />
  <path
     style="fill:none;stroke:#000000;stroke-width:1;stroke-linecap:round;stroke-linejoin:round;stroke-miterlimit:4;stroke-dasharray:none;stroke-opacity:1"
     d="m 229.74006,213.75443 0.92205,67.41458 c 0.23715,17.33908 -10.49175,27.19439 -28.31494,27.38641 -13.55436,0.14603 -27.21919,-10.89114 -27.2622,-25.47936 -0.07,-23.73323 24.8254,-34.41453 35.33727,-34.78961 m 19.80162,0.79203 60.66486,-0.26421"
     id="path14359-1-7-5-3-0-73-1-9-8-21-9"
     inkscape:connector-curvature="0"
     sodipodi:nodetypes="csssccc" />
  <path
     style="fill:none;stroke:#000000;stroke-width:1;stroke-linecap:round;stroke-linejoin:round;stroke-miterlimit:4;stroke-dasharray:none;stroke-opacity:1"
     d="m 210.3528,213.67365 0.70257,68.62451 c -2.35335,2.43453 -5.54637,4.87492 -9.10522,5.5118 -3.45113,0.61761 -5.31612,-2.34962 -5.33092,-5.56015 -0.027,-5.86494 6.69392,-11.9259 14.13498,-12.2377 m 19.87269,-0.25385 60.18104,-0.34502"
     id="path14359-1-7-5-3-0-73-1-9-8-21-97"
     inkscape:connector-curvature="0"
     sodipodi:nodetypes="ccssccc" />
  <path
     style="fill:none;stroke:#000000;stroke-width:1;stroke-linecap:round;stroke-linejoin:round;stroke-miterlimit:4;stroke-dasharray:none;stroke-opacity:1"
     d="m 124.72572,214.23912 0.37854,37.1202 c 0.1525,14.95558 -5.92598,30.2674 -13.68125,39.80527 -8.15162,10.02531 -19.742793,15.95858 -32.709679,16.44423 -8.997077,0.33697 -17.570912,-1.55921 -23.64258,-5.64837 -5.027283,-3.38578 -8.686834,-7.69374 -8.775618,-12.91581 -0.120006,-7.0585 7.742222,-15.84274 18.166515,-18.74281"
     id="path14359-1-7-5-3-0-73-1-9-8-21-4"
     inkscape:connector-curvature="0"
     sodipodi:nodetypes="csssssc" />
  <path
     style="fill:none;stroke:#000000;stroke-width:1;stroke-linecap:round;stroke-linejoin:round;stroke-miterlimit:4;stroke-dasharray:none;stroke-opacity:1"
     d="m 145.08235,213.91599 0.60684,39.70726 c -3.17401,37.7853 -31.00891,72.14802 -68.999706,74.33651 -24.210727,1.39467 -48.613023,-17.76109 -49.139035,-40.62693 -0.398885,-17.33965 18.418699,-35.49601 36.911203,-36.25671"
     id="path14359-1-7-5-3-0-73-1-9-8-21-0"
     inkscape:connector-curvature="0"
     sodipodi:nodetypes="ccssc" />
  <path
     style="fill:none;stroke:#000000;stroke-width:1;stroke-linecap:round;stroke-linejoin:round;stroke-miterlimit:4;stroke-dasharray:none;stroke-opacity:1"
     d="m 145.70226,213.47373 c 1.10793,-7.88562 2.89105,-15.3107 2.39546,-24.23705 -0.17502,-3.1524 -2.3274,-4.99968 -4.35344,-6.89336 l 8.3e-4,-3.84726 h -17.70498 l -9.4e-4,4.35521 c -2.73833,2.40159 -4.21077,2.94079 -4.28133,6.53053 -0.15436,7.85372 1.49205,16.36712 2.39367,24.09193 z"
     id="path14359-1-7-5-3-0-73-1-9-8-21-8"
     inkscape:connector-curvature="0"
     sodipodi:nodetypes="csccccscc" />
  <path
     style="fill:none;stroke:#000000;stroke-width:1;stroke-linecap:round;stroke-linejoin:round;stroke-miterlimit:4;stroke-dasharray:none;stroke-opacity:1"
     d="m 127.12856,187.42111 -10e-4,10.2327 c -4.8e-4,4.88611 0.30343,11.55627 -3.12114,13.64308"
     id="path14359-1-7-5-3-0-73-1-9-8-21-57"
     inkscape:connector-curvature="0"
     sodipodi:nodetypes="csc" />
  <path
     style="fill:none;stroke:#000000;stroke-width:1;stroke-linecap:round;stroke-linejoin:round;stroke-miterlimit:4;stroke-dasharray:none;stroke-opacity:1"
     d="m 129.3054,187.42111 -0.001,10.2327 c -2.9e-4,2.90327 3.59517,12.74936 6.3844,12.69978 2.38948,-0.0425 5.22516,-10.07103 5.22542,-12.69978 l 0.001,-10.2327"
     id="path14359-1-7-5-3-0-73-1-9-8-21-07"
     inkscape:connector-curvature="0"
     sodipodi:nodetypes="csssc" />
  <path
     style="fill:none;stroke:#000000;stroke-width:1;stroke-linecap:round;stroke-linejoin:round;stroke-miterlimit:4;stroke-dasharray:none;stroke-opacity:1"
     d="m 142.65669,187.42111 -0.001,10.2327 c -4.2e-4,4.35425 1.25163,9.61251 3.48195,11.90161"
     id="path14359-1-7-5-3-0-73-1-9-8-21-89"
     inkscape:connector-curvature="0"
     sodipodi:nodetypes="csc" />
  <path
     style="fill:none;stroke:#000000;stroke-width:1;stroke-linecap:round;stroke-linejoin:round;stroke-miterlimit:4;stroke-dasharray:none;stroke-opacity:1"
     d="m 122.70231,186.18756 c 2.48958,-0.1663 3.74644,0.90095 5.4412,0.87977 2.31605,-0.0289 4.4201,-1.61005 7.11174,-1.68316 3.16009,-0.0858 4.22278,1.61566 6.3853,1.58903 1.5414,-0.019 3.16096,-1.41663 4.71478,-1.43561"
     id="path14359-1-7-5-3-0-73-1-9-8-21-6"
     inkscape:connector-curvature="0"
     sodipodi:nodetypes="csssc" />
  <path
     style="fill:none;stroke:#000000;stroke-width:1;stroke-linecap:round;stroke-linejoin:round;stroke-miterlimit:4;stroke-dasharray:none;stroke-opacity:1"
     d="m 230.25726,213.19058 c 2.37318,-0.20376 2.89878,-14.222 2.39546,-24.23705 -0.19019,-3.78429 -3.14077,-5.09005 -4.71494,-6.98373 l 8.3e-4,-3.84726 h -17.79535 l -9.4e-4,4.35521 c -1.20196,2.22084 -3.7589,2.39854 -3.82946,6.6209 -0.13125,7.85414 1.49205,16.36712 2.39367,24.09193 z"
     id="path14359-1-7-5-3-0-73-1-9-8-21-8-2"
     inkscape:connector-curvature="0"
     sodipodi:nodetypes="csccccscc" />
  <path
     style="fill:none;stroke:#000000;stroke-width:1;stroke-linecap:round;stroke-linejoin:round;stroke-miterlimit:4;stroke-dasharray:none;stroke-opacity:1"
     d="m 211.68356,187.13796 -0.001,10.2327 c -4.8e-4,4.88611 0.12268,10.65252 -3.30189,12.73933"
     id="path14359-1-7-5-3-0-73-1-9-8-21-57-2"
     inkscape:connector-curvature="0"
     sodipodi:nodetypes="csc" />
  <path
     style="fill:none;stroke:#000000;stroke-width:1;stroke-linecap:round;stroke-linejoin:round;stroke-miterlimit:4;stroke-dasharray:none;stroke-opacity:1"
     d="m 213.8604,187.13796 -0.001,10.2327 c -2.9e-4,2.90327 3.86629,13.38198 6.65552,13.3324 2.38948,-0.0425 4.95404,-10.70365 4.9543,-13.3324 l 0.001,-10.2327"
     id="path14359-1-7-5-3-0-73-1-9-8-21-07-0"
     inkscape:connector-curvature="0"
     sodipodi:nodetypes="csssc" />
  <path
     style="fill:none;stroke:#000000;stroke-width:1;stroke-linecap:round;stroke-linejoin:round;stroke-miterlimit:4;stroke-dasharray:none;stroke-opacity:1"
     d="m 227.21169,187.13796 -0.001,10.2327 c -4.2e-4,4.35425 0.34788,9.52214 4.11457,13.43798"
     id="path14359-1-7-5-3-0-73-1-9-8-21-89-3"
     inkscape:connector-curvature="0"
     sodipodi:nodetypes="csc" />
  <path
     style="fill:none;stroke:#000000;stroke-width:1;stroke-linecap:round;stroke-linejoin:round;stroke-miterlimit:4;stroke-dasharray:none;stroke-opacity:1"
     d="m 207.25731,185.90441 c 2.48958,-0.1663 3.74644,0.90095 5.4412,0.87977 2.31605,-0.0289 4.0586,-1.0678 6.75024,-1.14091 3.16009,-0.0858 4.58428,1.07341 6.7468,1.04678 1.5414,-0.019 3.16096,-1.41663 4.71478,-1.43561"
     id="path14359-1-7-5-3-0-73-1-9-8-21-6-6"
     inkscape:connector-curvature="0"
     sodipodi:nodetypes="csssc" />
  <path
     style="fill:none;stroke:#000000;stroke-width:1;stroke-linecap:round;stroke-linejoin:round;stroke-miterlimit:4;stroke-dasharray:none;stroke-opacity:1"
     d="m 372.95902,213.00982 c 1.10793,-7.88562 3.70443,-14.04545 3.20884,-25.41192 -0.13753,-3.15426 -3.14078,-3.82481 -5.16682,-5.71849 l 0.18158,-4.57026 h -17.70498 l -0.0913,4.08409 c -2.73833,2.40159 -4.57227,2.85042 -4.64283,6.44016 -0.15436,7.85372 1.76317,17.45161 2.66479,25.17642 z"
     id="path14359-1-7-5-3-0-73-1-9-8-21-8-9"
     inkscape:connector-curvature="0"
     sodipodi:nodetypes="csccccscc" />
  <path
     style="fill:none;stroke:#000000;stroke-width:1;stroke-linecap:round;stroke-linejoin:round;stroke-miterlimit:4;stroke-dasharray:none;stroke-opacity:1"
     d="m 354.38532,186.32458 -10e-4,10.86532 c -4.5e-4,4.88611 0.0323,9.92953 -3.39226,12.01634"
     id="path14359-1-7-5-3-0-73-1-9-8-21-57-5"
     inkscape:connector-curvature="0"
     sodipodi:nodetypes="csc" />
  <path
     style="fill:none;stroke:#000000;stroke-width:1;stroke-linecap:round;stroke-linejoin:round;stroke-miterlimit:4;stroke-dasharray:none;stroke-opacity:1"
     d="m 356.56216,186.32458 -0.001,10.86532 c -2.6e-4,2.90327 3.59517,12.74936 6.3844,12.69978 2.38948,-0.0425 5.22519,-10.07103 5.22542,-12.69978 l 0.001,-11.04607"
     id="path14359-1-7-5-3-0-73-1-9-8-21-07-8"
     inkscape:connector-curvature="0"
     sodipodi:nodetypes="csssc" />
  <path
     style="fill:none;stroke:#000000;stroke-width:1;stroke-linecap:round;stroke-linejoin:round;stroke-miterlimit:4;stroke-dasharray:none;stroke-opacity:1"
     d="m 369.91345,186.05345 -0.001,11.13645 c -3.9e-4,4.35425 1.25163,9.61251 3.48195,11.90161"
     id="path14359-1-7-5-3-0-73-1-9-8-21-89-9"
     inkscape:connector-curvature="0"
     sodipodi:nodetypes="csc" />
  <path
     style="fill:none;stroke:#000000;stroke-width:1;stroke-linecap:round;stroke-linejoin:round;stroke-miterlimit:4;stroke-dasharray:none;stroke-opacity:1"
     d="m 349.32645,185.45253 c 2.48958,-0.1663 4.19831,0.7202 5.89307,0.69902 2.31605,-0.0289 4.60085,-1.15818 7.29249,-1.23129 3.16009,-0.0858 4.22278,1.16379 6.3853,1.13716 1.5414,-0.019 4.51659,-0.69363 6.07041,-0.71261"
     id="path14359-1-7-5-3-0-73-1-9-8-21-6-9"
     inkscape:connector-curvature="0"
     sodipodi:nodetypes="csssc" />
  <path
     style="fill:none;stroke:#000000;stroke-width:1;stroke-linecap:round;stroke-linejoin:round;stroke-miterlimit:4;stroke-dasharray:none;stroke-opacity:1"
     d="m 64.780493,270.93358 c 6.153407,2.04468 16.747428,3.78326 25.674641,3.30346 3.152705,-0.16944 3.215874,-2.54925 5.113136,-4.57193 l 4.077954,-0.45339 -0.141724,-16.43611 -4.124498,-0.2397 c -2.396741,-2.74257 -1.664492,-4.61968 -6.522944,-4.69659 -7.854254,-0.12434 -16.42741,1.23238 -24.153803,2.12033 z"
     id="path14359-1-7-5-3-0-73-1-9-8-21-8-6"
     inkscape:connector-curvature="0"
     sodipodi:nodetypes="csccccscc" />
  <path
     style="fill:none;stroke:#000000;stroke-width:1;stroke-linecap:round;stroke-linejoin:round;stroke-miterlimit:4;stroke-dasharray:none;stroke-opacity:1"
     d="m 91.096635,253.32881 -10.117333,0.2116 c -4.885041,0.10217 -12.075861,-0.75517 -14.098934,-3.72202"
     id="path14359-1-7-5-3-0-73-1-9-8-21-57-1"
     inkscape:connector-curvature="0"
     sodipodi:nodetypes="csc" />
  <path
     style="fill:none;stroke:#000000;stroke-width:1;stroke-linecap:round;stroke-linejoin:round;stroke-miterlimit:4;stroke-dasharray:none;stroke-opacity:1"
     d="m 90.746735,255.15959 -8.502441,0.0962 c -2.903084,0.0329 -15.235713,2.93818 -15.191069,5.7275 0.03827,2.38955 10.81154,5.76204 13.440286,5.76695 l 10.232682,0.0191"
     id="path14359-1-7-5-3-0-73-1-9-8-21-07-3"
     inkscape:connector-curvature="0"
     sodipodi:nodetypes="csssc" />
  <path
     style="fill:none;stroke:#000000;stroke-width:1;stroke-linecap:round;stroke-linejoin:round;stroke-miterlimit:4;stroke-dasharray:none;stroke-opacity:1"
     d="m 91.126835,267.99179 -9.771286,-0.0191 c -3.682764,-0.007 -13.649299,0.85657 -14.183156,2.68086 -0.09734,0.33262 0.28426,1.1509 1.12191,1.24142"
     id="path14359-1-7-5-3-0-73-1-9-8-21-89-2"
     inkscape:connector-curvature="0"
     sodipodi:nodetypes="cssc" />
  <path
     style="fill:none;stroke:#000000;stroke-width:1;stroke-linecap:round;stroke-linejoin:round;stroke-miterlimit:4;stroke-dasharray:none;stroke-opacity:1"
     d="m 91.991966,248.5587 c 0.161895,2.48987 -0.907577,3.74484 -0.889396,5.43963 0.0248,2.3161 0.737107,4.48061 0.805454,7.17238 0.08021,3.16024 -0.758009,4.16224 -0.735205,6.32481 0.01627,1.54143 1.46871,3.22113 1.36959,5.75545"
     id="path14359-1-7-5-3-0-73-1-9-8-21-6-8"
     inkscape:connector-curvature="0"
     sodipodi:nodetypes="csssc" />
  <path
     style="fill:none;stroke:#000000;stroke-width:1;stroke-linecap:round;stroke-linejoin:round;stroke-miterlimit:4;stroke-dasharray:none;stroke-opacity:1"
     d="m 291.16535,269.67505 c 6.15341,2.04468 16.86278,3.26419 25.78999,2.78439 3.15271,-0.16944 4.13215,-4.32165 5.51686,-4.51425 l 2.63609,-0.16502 c 0.72137,-0.0452 1.03246,-1.00535 1.02618,-1.73303 l -0.24511,-14.29936 c -0.0105,-0.61052 -0.14305,-1.04515 -1.00774,-1.04574 l -2.07861,-0.001 c -1.18851,-8.1e-4 -2.06822,-4.50433 -7.44575,-4.63892 -7.85277,-0.19653 -16.42741,1.23238 -24.1538,2.12033 z"
     id="path14359-1-7-5-3-0-73-1-9-8-21-8-6-1"
     inkscape:connector-curvature="0"
     sodipodi:nodetypes="csssssssscc" />
  <path
     style="fill:none;stroke:#000000;stroke-width:1;stroke-linecap:round;stroke-linejoin:round;stroke-miterlimit:4;stroke-dasharray:none;stroke-opacity:1"
     d="m 317.59684,251.55121 -8.04104,0.2116 c -4.88442,0.12854 -13.86377,-0.75517 -15.88685,-3.72202"
     id="path14359-1-7-5-3-0-73-1-9-8-21-57-1-2"
     inkscape:connector-curvature="0"
     sodipodi:nodetypes="csc" />
  <path
     style="fill:none;stroke:#000000;stroke-width:1;stroke-linecap:round;stroke-linejoin:round;stroke-miterlimit:4;stroke-dasharray:none;stroke-opacity:1"
     d="m 317.53532,253.03594 -8.21407,0.15388 c -2.90276,0.0544 -16.33153,3.1112 -16.28689,5.90052 0.0383,2.38955 11.33061,5.8774 13.95936,5.8823 l 10.23268,0.0191"
     id="path14359-1-7-5-3-0-73-1-9-8-21-07-3-1"
     inkscape:connector-curvature="0"
     sodipodi:nodetypes="csssc" />
  <path
     style="fill:none;stroke:#000000;stroke-width:1;stroke-linecap:round;stroke-linejoin:round;stroke-miterlimit:4;stroke-dasharray:none;stroke-opacity:1"
     d="m 317.62704,266.21419 -9.77128,-0.0191 c -3.68277,-0.007 -13.13023,1.49099 -13.66409,3.31528 -0.0973,0.33262 0.28426,1.1509 1.12191,1.24142"
     id="path14359-1-7-5-3-0-73-1-9-8-21-89-2-9"
     inkscape:connector-curvature="0"
     sodipodi:nodetypes="cssc" />
  <path
     style="fill:none;stroke:#000000;stroke-width:1;stroke-linecap:round;stroke-linejoin:round;stroke-miterlimit:4;stroke-dasharray:none;stroke-opacity:1"
     d="m 318.49217,246.7811 c 0.1619,2.48987 -0.90757,3.74484 -0.88939,5.43963 0.0248,2.3161 0.7371,4.48061 0.80545,7.17238 0.0802,3.16024 -0.75801,4.16224 -0.7352,6.32481 0.0163,1.54143 0.54592,3.62486 0.4468,6.15918"
     id="path14359-1-7-5-3-0-73-1-9-8-21-6-8-3"
     inkscape:connector-curvature="0"
     sodipodi:nodetypes="csssc" />
  <path
     style="fill:none;stroke:#000000;stroke-width:1;stroke-linecap:butt;stroke-linejoin:round;stroke-miterlimit:4;stroke-dasharray:none;stroke-opacity:1"
     d="m 62.970732,251.2723 c -1.167387,0.32376 -2.328681,0.73721 -3.476866,1.23144 m -3.075486,1.53121 c -1.040082,0.58844 -2.063355,1.23973 -3.064181,1.94673 m -3.814417,3.05762 c -0.917781,0.828 -1.806626,1.70087 -2.661153,2.6118 m -2.493501,2.88817 c -0.628702,0.79168 -1.231504,1.6036 -1.80558,2.43218 m -2.246547,3.58968 c -0.647087,1.1525 -1.236565,2.32545 -1.761828,3.51044 m -1.691341,4.60513 c -0.384969,1.32403 -0.681748,2.64961 -0.881508,3.96554 m -0.299435,3.81408 c -0.0013,0.81244 0.03242,1.60932 0.09924,2.39067 m 0.673502,4.07366 c 0.229689,0.92414 0.507778,1.82312 0.83047,2.697 m 1.585453,3.48303 c 0.430423,0.78903 0.8987,1.55396 1.401247,2.29484 m 3.362653,4.12051 c 0.594772,0.61519 1.214208,1.20861 1.85521,1.7803 m 4.559293,3.49008 c 0.960231,0.6325 1.946459,1.22666 2.951383,1.78257 m 3.56206,1.78062 c 1.24207,0.55884 2.498764,1.06308 3.757589,1.51289 m 3.047871,0.98343 c 1.548625,0.44694 3.085111,0.81103 4.585933,1.09254 m 3.241095,0.4869 c 1.373455,0.15335 2.698454,0.23132 3.954401,0.23414 0.346526,7.8e-4 0.693063,-0.002 1.039578,-0.009 m 2.499383,-0.1154 c 1.618688,-0.11676 3.235198,-0.31421 4.846208,-0.58695 m 4.131924,-0.86478 c 1.278209,-0.3181 2.551081,-0.68135 3.816919,-1.08699 m 3.117704,-1.08903 c 1.336498,-0.50526 2.663401,-1.05617 3.978649,-1.64939 m 3.360486,-1.61932 c 1.05405,-0.5405 2.0992,-1.10718 3.13432,-1.69823 m 2.54845,-1.51631 c 0.96602,-0.59811 1.92218,-1.21682 2.86753,-1.85461 m 2.52526,-1.76705 c 1.00254,-0.72699 1.99138,-1.47474 2.9653,-2.24127 m 2.42594,-1.97362 c 1.22908,-1.03304 2.43136,-2.09489 3.60421,-3.18126 m 2.53978,-2.43586 c 0.75457,-0.74924 1.4951,-1.50803 2.22079,-2.2751 m 2.91282,-3.21407 c 0.93685,-1.07956 1.84376,-2.17136 2.71872,-3.27208 m 2.04814,-2.67161 c 0.69366,-0.93893 1.36341,-1.88231 2.00802,-2.82818 m 1.96296,-3.01271 c 0.71942,-1.1571 1.39953,-2.31475 2.03811,-3.46935 m 1.4542,-2.76835 c 0.12305,-0.24746 0.2441,-0.49463 0.3631,-0.7415"
     id="path14359-1-7-5-3-0-73-1-9-8-9-7"
     inkscape:connector-curvature="0"
     sodipodi:nodetypes="cccccccccccccccccccccccccccsccccccccccccccccccccccccc" />
  <path
     style="fill:none;stroke:#000000;stroke-width:1;stroke-linecap:butt;stroke-linejoin:round;stroke-miterlimit:4;stroke-dasharray:none;stroke-opacity:1"
     d="m 230.10935,242.836 c 0.002,1.00755 -0.002,2.02861 -0.0153,3.05947 m -0.0364,2.06449 c -0.02,0.87413 -0.046,1.75343 -0.0784,2.63573 m -0.1507,3.27844 c -0.0709,1.27849 -0.15638,2.55766 -0.25794,3.83096 m -0.2937,3.22163 c -0.0988,0.95852 -0.2076,1.91043 -0.327,2.85287 m -0.5146,3.58299 c -0.19944,1.23333 -0.41967,2.44259 -0.66219,3.62071 m -0.51958,2.33075 c -0.305,1.26512 -0.63907,2.48546 -1.00432,3.65115 m -1.17248,3.27716 c -0.50806,1.2424 -1.05482,2.42667 -1.63705,3.55324 m -1.88279,3.25815 c -0.72983,1.13186 -1.50011,2.19171 -2.30626,3.18011 m -2.55184,2.78078 c -0.96109,0.92852 -1.95998,1.77137 -2.9906,2.52929 m -2.02905,1.35887 c -1.20425,0.73096 -2.44382,1.35478 -3.71004,1.87252 m -3.58251,1.1671 c -1.143,0.28139 -2.30021,0.48257 -3.46584,0.60427 m -2.69855,0.14006 c -1.23169,0 -2.40269,-0.13765 -3.51203,-0.39473 m -2.02477,-0.62419 c -1.31504,-0.51065 -2.52885,-1.19681 -3.63942,-2.02069 m -2.77117,-2.5597 c -0.86412,-0.97829 -1.63582,-2.0475 -2.31347,-3.17643 m -1.29868,-2.47954 c -0.48308,-1.06473 -0.89095,-2.15916 -1.22245,-3.2614 m -0.74482,-3.19007 c -0.21471,-1.28566 -0.323,-2.55301 -0.323,-3.7668 m 0.0507,-2.62096 c 0.047,-1.16001 0.12715,-2.2614 0.24244,-3.31694 m 0.32006,-2.30582 c 0.1971,-1.15764 0.44393,-2.26611 0.74368,-3.3456 m 0.93106,-2.83486 c 0.54492,-1.43385 1.19503,-2.84702 1.95856,-4.29185"
     id="path14359-1-7-5-3-0-73-1-9-8-9-2"
     inkscape:connector-curvature="0"
     sodipodi:nodetypes="cccccccccccccccccccccccccccccccccccccc" />
  <path
     style="fill:#000000;fill-opacity:1;stroke:#000000;stroke-width:1;stroke-linecap:butt;stroke-linejoin:miter;stroke-miterlimit:4;stroke-dasharray:none;stroke-opacity:1"
     d="m 108.03953,220.00351 1.52014,-3.43702 1.50308,3.43876 -1.51161,-8.7e-4 z"
     id="path14359-1-7-5-3-0-73-1-4"
     inkscape:connector-curvature="0"
     sodipodi:nodetypes="ccccc" />
  <path
     style="fill:#000000;fill-opacity:1;stroke:#000000;stroke-width:1;stroke-linecap:butt;stroke-linejoin:miter;stroke-miterlimit:4;stroke-dasharray:none;stroke-opacity:1"
     d="m 108.03953,255.42878 1.52014,3.43702 1.50308,-3.43876 -1.51161,8.7e-4 z"
     id="path14359-1-7-5-3-0-73-1-0-4"
     inkscape:connector-curvature="0"
     sodipodi:nodetypes="ccccc" />
  <path
     style="fill:none;stroke:#000000;stroke-width:1;stroke-linecap:butt;stroke-linejoin:miter;stroke-miterlimit:4;stroke-dasharray:none;stroke-opacity:1"
     d="m 109.55214,220.01939 -5.7e-4,10.11631 m -7.1e-4,12.61776 -7.2e-4,12.67269"
     id="path14359-1-7-5-3-0-73-1-9-8-77"
     inkscape:connector-curvature="0"
     sodipodi:nodetypes="cccc" />
  <path
     style="fill:#000000;fill-opacity:1;stroke:#000000;stroke-width:1;stroke-linecap:butt;stroke-linejoin:miter;stroke-miterlimit:4;stroke-dasharray:none;stroke-opacity:1"
     d="m 70.028799,300.51018 -0.501976,3.7245 3.079641,-2.14479 -1.288832,-0.78986 z"
     id="path14359-1-7-5-3-0-73-1-0-4-7"
     inkscape:connector-curvature="0"
     sodipodi:nodetypes="ccccc" />
  <path
     style="fill:none;stroke:#000000;stroke-width:1;stroke-linecap:butt;stroke-linejoin:miter;stroke-miterlimit:4;stroke-dasharray:none;stroke-opacity:1"
     d="m 76.86342,292.59769 -5.54572,8.70032"
     id="path14359-1-7-5-3-0-73-1-9-8-1"
     inkscape:connector-curvature="0"
     sodipodi:nodetypes="cc" />
  <path
     style="fill:#000000;fill-opacity:1;stroke:#000000;stroke-width:1;stroke-linecap:butt;stroke-linejoin:miter;stroke-miterlimit:4;stroke-dasharray:none;stroke-opacity:1"
     d="m 117.15103,308.61975 -2.32746,-2.95074 3.74251,0.27913 -0.70752,1.3358 z"
     id="path14359-1-7-5-3-0-73-1-4-5"
     inkscape:connector-curvature="0"
     sodipodi:nodetypes="ccccc" />
  <path
     style="fill:none;stroke:#000000;stroke-width:1;stroke-linecap:butt;stroke-linejoin:miter;stroke-miterlimit:4;stroke-dasharray:none;stroke-opacity:1"
     d="m 117.87229,307.29008 24.54656,13.14885"
     id="path14359-1-7-5-3-0-73-1-9-8-81"
     inkscape:connector-curvature="0"
     sodipodi:nodetypes="cc" />
  <path
     style="fill:#000000;fill-opacity:1;stroke:#000000;stroke-width:1;stroke-linecap:butt;stroke-linejoin:miter;stroke-miterlimit:4;stroke-dasharray:none;stroke-opacity:1"
     d="m 148.99271,181.39117 -0.58288,3.71271 3.12557,-2.07729 -1.27135,-0.81771 z"
     id="path14359-1-7-5-3-0-73-1-0-4-2"
     inkscape:connector-curvature="0"
     sodipodi:nodetypes="ccccc" />
  <path
     style="fill:none;stroke:#000000;stroke-width:1;stroke-linecap:butt;stroke-linejoin:miter;stroke-miterlimit:4;stroke-dasharray:none;stroke-opacity:1"
     d="m 165.02576,149.74522 h 6.5534 l -21.31499,32.46164"
     id="path14359-1-7-5-3-0-73-1-9-8-01"
     inkscape:connector-curvature="0"
     sodipodi:nodetypes="ccc" />
  <path
     style="fill:#000000;fill-opacity:1;stroke:#000000;stroke-width:1;stroke-linecap:butt;stroke-linejoin:miter;stroke-miterlimit:4;stroke-dasharray:none;stroke-opacity:1"
     d="m 328.26547,219.09262 1.52014,-3.43702 1.50308,3.43876 -1.51161,-8.7e-4 z"
     id="path14359-1-7-5-3-0-73-1-4-3"
     inkscape:connector-curvature="0"
     sodipodi:nodetypes="ccccc" />
  <path
     style="fill:#000000;fill-opacity:1;stroke:#000000;stroke-width:1;stroke-linecap:butt;stroke-linejoin:miter;stroke-miterlimit:4;stroke-dasharray:none;stroke-opacity:1"
     d="m 328.26547,252.76542 1.52014,3.43702 1.50308,-3.43876 -1.51161,8.7e-4 z"
     id="path14359-1-7-5-3-0-73-1-0-4-3"
     inkscape:connector-curvature="0"
     sodipodi:nodetypes="ccccc" />
  <path
     style="fill:none;stroke:#000000;stroke-width:1;stroke-linecap:butt;stroke-linejoin:miter;stroke-miterlimit:4;stroke-dasharray:none;stroke-opacity:1"
     d="m 329.77808,219.1085 -4.1e-4,6.81412 m -9.4e-4,15.8362 -6.5e-4,11.00397"
     id="path14359-1-7-5-3-0-73-1-9-8-97"
     inkscape:connector-curvature="0"
     sodipodi:nodetypes="cccc" />
  <path
     style="fill:#000000;fill-opacity:1;stroke:#000000;stroke-width:1;stroke-linecap:butt;stroke-linejoin:miter;stroke-miterlimit:4;stroke-dasharray:none;stroke-opacity:1"
     d="m 312.91907,278.04185 0.94806,-3.63664 2.03615,3.15253 -1.4921,0.24205 z"
     id="path14359-1-7-5-3-0-73-1-4-1"
     inkscape:connector-curvature="0"
     sodipodi:nodetypes="ccccc" />
  <path
     style="fill:none;stroke:#000000;stroke-width:1;stroke-linecap:butt;stroke-linejoin:miter;stroke-miterlimit:4;stroke-dasharray:none;stroke-opacity:1"
     d="m 314.41457,277.81445 5.4706,32.41791 h -17.57642"
     id="path14359-1-7-5-3-0-73-1-9-8-84"
     inkscape:connector-curvature="0"
     sodipodi:nodetypes="ccc" />
  <path
     style="fill:#000000;fill-opacity:1;stroke:#000000;stroke-width:1;stroke-linecap:butt;stroke-linejoin:miter;stroke-miterlimit:4;stroke-dasharray:none;stroke-opacity:1"
     d="m 200.44773,282.19784 -0.44334,3.73194 3.04553,-2.19296 -1.3011,-0.76949 z"
     id="path14359-1-7-5-3-0-73-1-0-4-1"
     inkscape:connector-curvature="0"
     sodipodi:nodetypes="ccccc" />
  <path
     style="fill:none;stroke:#000000;stroke-width:1;stroke-linecap:butt;stroke-linejoin:miter;stroke-miterlimit:4;stroke-dasharray:none;stroke-opacity:1"
     d="m 204.2866,278.98382 -2.53774,3.98148"
     id="path14359-1-7-5-3-0-73-1-9-8-22"
     inkscape:connector-curvature="0"
     sodipodi:nodetypes="cc" />
  <path
     style="fill:#000000;fill-opacity:1;stroke:#000000;stroke-width:1;stroke-linecap:butt;stroke-linejoin:miter;stroke-miterlimit:4;stroke-dasharray:none;stroke-opacity:1"
     d="m 419.51544,243.92875 -0.0884,3.75715 2.82445,-2.47119 -1.36805,-0.64298 z"
     id="path14359-1-7-5-3-0-73-1-0-4-20"
     inkscape:connector-curvature="0"
     sodipodi:nodetypes="ccccc" />
  <path
     style="fill:none;stroke:#000000;stroke-width:1;stroke-linecap:butt;stroke-linejoin:miter;stroke-miterlimit:4;stroke-dasharray:none;stroke-opacity:1"
     d="m 427.43214,231.2496 -6.54881,13.32011"
     id="path14359-1-7-5-3-0-73-1-9-8-6"
     inkscape:connector-curvature="0"
     sodipodi:nodetypes="cc" />
  <path
     style="fill:#000000;fill-opacity:1;stroke:#000000;stroke-width:1;stroke-linecap:butt;stroke-linejoin:miter;stroke-miterlimit:4;stroke-dasharray:none;stroke-opacity:1"
     d="m 69.638289,172.60178 -3.43786,-1.51824 3.43792,-1.50498 -3e-5,1.51161 z"
     id="path14359-1-7-5-3-0-73-1-4-3-4"
     inkscape:connector-curvature="0"
     sodipodi:nodetypes="ccccc" />
  <path
     style="fill:#000000;fill-opacity:1;stroke:#000000;stroke-width:1;stroke-linecap:butt;stroke-linejoin:miter;stroke-miterlimit:4;stroke-dasharray:none;stroke-opacity:1"
     d="m 127.90873,172.59663 3.43617,-1.52205 -3.43959,-1.50117 0.002,1.51161 z"
     id="path14359-1-7-5-3-0-73-1-0-4-4"
     inkscape:connector-curvature="0"
     sodipodi:nodetypes="ccccc" />
  <path
     style="fill:none;stroke:#000000;stroke-width:1;stroke-linecap:butt;stroke-linejoin:miter;stroke-miterlimit:4;stroke-dasharray:none;stroke-opacity:1"
     d="m 69.653329,171.08916 21.085205,-0.001 m 13.138156,-6.7e-4 24.02857,-0.001"
     id="path14359-1-7-5-3-0-73-1-9-8-9-6"
     inkscape:connector-curvature="0"
     sodipodi:nodetypes="cccc" />
  <path
     style="fill:#000000;fill-opacity:1;stroke:#000000;stroke-width:1;stroke-linecap:butt;stroke-linejoin:miter;stroke-miterlimit:4;stroke-dasharray:none;stroke-opacity:1"
     d="m 226.63484,171.37303 -3.43786,-1.51824 3.43792,-1.50498 -3e-5,1.51161 z"
     id="path14359-1-7-5-3-0-73-1-4-3-9"
     inkscape:connector-curvature="0"
     sodipodi:nodetypes="ccccc" />
  <path
     style="fill:#000000;fill-opacity:1;stroke:#000000;stroke-width:1;stroke-linecap:butt;stroke-linejoin:miter;stroke-miterlimit:4;stroke-dasharray:none;stroke-opacity:1"
     d="m 283.29846,171.36788 3.43617,-1.52205 -3.43959,-1.50117 0.002,1.51161 z"
     id="path14359-1-7-5-3-0-73-1-0-4-4-7"
     inkscape:connector-curvature="0"
     sodipodi:nodetypes="ccccc" />
  <path
     style="fill:none;stroke:#000000;stroke-width:1;stroke-linecap:butt;stroke-linejoin:miter;stroke-miterlimit:4;stroke-dasharray:none;stroke-opacity:1"
     d="m 226.64988,169.86041 19.38385,-0.001 m 14.17789,-7.5e-4 23.08337,-10e-4"
     id="path14359-1-7-5-3-0-73-1-9-8-9-72"
     inkscape:connector-curvature="0"
     sodipodi:nodetypes="cccc" />
  <path
     style="fill:#000000;fill-opacity:1;stroke:#000000;stroke-width:1;stroke-linecap:butt;stroke-linejoin:miter;stroke-miterlimit:4;stroke-dasharray:none;stroke-opacity:1"
     d="m 368.69735,171.08947 -3.43786,-1.51824 3.43792,-1.50498 -3e-5,1.51161 z"
     id="path14359-1-7-5-3-0-73-1-4-3-8"
     inkscape:connector-curvature="0"
     sodipodi:nodetypes="ccccc" />
  <path
     style="fill:#000000;fill-opacity:1;stroke:#000000;stroke-width:1;stroke-linecap:butt;stroke-linejoin:miter;stroke-miterlimit:4;stroke-dasharray:none;stroke-opacity:1"
     d="m 404.66124,171.08432 3.43617,-1.52205 -3.43959,-1.50117 0.002,1.51161 z"
     id="path14359-1-7-5-3-0-73-1-0-4-4-8"
     inkscape:connector-curvature="0"
     sodipodi:nodetypes="ccccc" />
  <path
     style="fill:none;stroke:#000000;stroke-width:1;stroke-linecap:butt;stroke-linejoin:miter;stroke-miterlimit:4;stroke-dasharray:none;stroke-opacity:1"
     d="m 368.71239,169.57685 11.06617,-9.2e-4 m 12.94913,-0.001 11.93008,-0.001"
     id="path14359-1-7-5-3-0-73-1-9-8-9-1"
     inkscape:connector-curvature="0"
     sodipodi:nodetypes="cccc" />
  <text
     xml:space="preserve"
     style="font-style:normal;font-variant:normal;font-weight:normal;font-stretch:normal;line-height:0%;font-family:Arial;-inkscape-font-specification:Arial;text-align:start;letter-spacing:0.1px;word-spacing:0px;text-anchor:start;fill:#000000;fill-opacity:1;stroke:none;stroke-width:1px;stroke-linecap:butt;stroke-linejoin:miter;stroke-opacity:1"
     x="427.94766"
     y="213.77249"
     id="text13517"><tspan
       sodipodi:role="line"
       id="tspan13519"
       x="427.94766"
       y="213.77249"
       style="font-size:12.5px;line-height:1.19000006">Connected to</tspan><tspan
       sodipodi:role="line"
       x="427.94766"
       y="228.64749"
       id="tspan13521"
       style="font-size:12.5px;line-height:1.19000006">Movable Manifold</tspan></text>
  <text
     xml:space="preserve"
     style="font-style:normal;font-variant:normal;font-weight:normal;font-stretch:normal;line-height:0%;font-family:Arial;-inkscape-font-specification:Arial;text-align:start;letter-spacing:0.1px;word-spacing:0px;text-anchor:start;fill:#000000;fill-opacity:1;stroke:none;stroke-width:1px;stroke-linecap:butt;stroke-linejoin:miter;stroke-opacity:1"
     x="120.79799"
     y="139.66385"
     id="text13517-1"><tspan
       sodipodi:role="line"
       x="120.79799"
       y="139.66385"
       id="tspan13521-1"
       style="font-size:12.5px;line-height:1.19000006">Stationary</tspan><tspan
       sodipodi:role="line"
       x="120.79799"
       y="154.53885"
       id="tspan13546"
       style="font-size:12.5px;line-height:1.19000006">End &quot;A&quot;</tspan></text>
  <text
     xml:space="preserve"
     style="font-style:normal;font-variant:normal;font-weight:normal;font-stretch:normal;line-height:0%;font-family:Arial;-inkscape-font-specification:Arial;text-align:start;letter-spacing:0.1px;word-spacing:0px;text-anchor:start;fill:#000000;fill-opacity:1;stroke:none;stroke-width:1px;stroke-linecap:butt;stroke-linejoin:miter;stroke-opacity:1"
     x="256.20883"
     y="299.08496"
     id="text13517-3"><tspan
       sodipodi:role="line"
       x="256.20883"
       y="299.08496"
       id="tspan13521-3"
       style="font-size:12.5px;line-height:1.19000006">Movable</tspan><tspan
       sodipodi:role="line"
       x="256.20883"
       y="313.95996"
       id="tspan13560"
       style="font-size:12.5px;line-height:1.19000006">End &quot;B&quot;</tspan></text>
  <text
     xml:space="preserve"
     style="font-style:normal;font-variant:normal;font-weight:normal;font-stretch:normal;line-height:0%;font-family:Arial;-inkscape-font-specification:Arial;text-align:start;letter-spacing:0.1px;word-spacing:0px;text-anchor:start;fill:#000000;fill-opacity:1;stroke:none;stroke-width:1px;stroke-linecap:butt;stroke-linejoin:miter;stroke-opacity:1"
     x="144.80826"
     y="330.33362"
     id="text13517-7"><tspan
       sodipodi:role="line"
       x="144.80826"
       y="330.33362"
       id="tspan13521-7"
       style="font-size:12.5px;line-height:1.19000006">Lay Line</tspan></text>
  <text
     xml:space="preserve"
     style="font-style:normal;font-variant:normal;font-weight:normal;font-stretch:normal;line-height:0%;font-family:Arial;-inkscape-font-specification:Arial;text-align:start;letter-spacing:0.1px;word-spacing:0px;text-anchor:start;fill:#000000;fill-opacity:1;stroke:none;stroke-width:1px;stroke-linecap:butt;stroke-linejoin:miter;stroke-opacity:1"
     x="93.609894"
     y="175.50272"
     id="text13517-14"><tspan
       sodipodi:role="line"
       x="93.609894"
       y="175.50272"
       id="tspan13521-32"
       style="font-size:12.5px;line-height:1.19000006">A</tspan></text>
  <text
     xml:space="preserve"
     style="font-style:normal;font-variant:normal;font-weight:normal;font-stretch:normal;line-height:0%;font-family:Arial;-inkscape-font-specification:Arial;text-align:start;letter-spacing:0.1px;word-spacing:0px;text-anchor:start;fill:#000000;fill-opacity:1;stroke:none;stroke-width:1px;stroke-linecap:butt;stroke-linejoin:miter;stroke-opacity:1"
     x="105.46641"
     y="240.49118"
     id="text13517-14-3"><tspan
       sodipodi:role="line"
       x="105.46641"
       y="240.49118"
       id="tspan13521-32-3"
       style="font-size:12.5px;line-height:1.19000006">B</tspan></text>
  <text
     xml:space="preserve"
     style="font-style:normal;font-variant:normal;font-weight:normal;font-stretch:normal;line-height:0%;font-family:Arial;-inkscape-font-specification:Arial;text-align:start;letter-spacing:0.1px;word-spacing:0px;text-anchor:start;fill:#000000;fill-opacity:1;stroke:none;stroke-width:1px;stroke-linecap:butt;stroke-linejoin:miter;stroke-opacity:1"
     x="77.042488"
     y="290.80682"
     id="text13517-14-31"><tspan
       sodipodi:role="line"
       x="77.042488"
       y="290.80682"
       id="tspan13521-32-7"
       style="font-size:12.5px;line-height:1.19000006">R</tspan></text>
  <text
     xml:space="preserve"
     style="font-style:normal;font-variant:normal;font-weight:normal;font-stretch:normal;line-height:0%;font-family:Arial;-inkscape-font-specification:Arial;text-align:start;letter-spacing:0.1px;word-spacing:0px;text-anchor:start;fill:#000000;fill-opacity:1;stroke:none;stroke-width:1px;stroke-linecap:butt;stroke-linejoin:miter;stroke-opacity:1"
     x="249.60619"
     y="173.65872"
     id="text13517-14-2"><tspan
       sodipodi:role="line"
       x="249.60619"
       y="173.65872"
       id="tspan13521-32-2"
       style="font-size:12.5px;line-height:1.19000006">A</tspan></text>
  <text
     xml:space="preserve"
     style="font-style:normal;font-variant:normal;font-weight:normal;font-stretch:normal;line-height:0%;font-family:Arial;-inkscape-font-specification:Arial;text-align:start;letter-spacing:0.1px;word-spacing:0px;text-anchor:start;fill:#000000;fill-opacity:1;stroke:none;stroke-width:1px;stroke-linecap:butt;stroke-linejoin:miter;stroke-opacity:1"
     x="325.90204"
     y="238.64719"
     id="text13517-14-3-1"><tspan
       sodipodi:role="line"
       x="325.90204"
       y="238.64719"
       id="tspan13521-32-3-7"
       style="font-size:12.5px;line-height:1.19000006">B</tspan></text>
  <text
     xml:space="preserve"
     style="font-style:normal;font-variant:normal;font-weight:normal;font-stretch:normal;line-height:0%;font-family:Arial;-inkscape-font-specification:Arial;text-align:start;letter-spacing:0.1px;word-spacing:0px;text-anchor:start;fill:#000000;fill-opacity:1;stroke:none;stroke-width:1px;stroke-linecap:butt;stroke-linejoin:miter;stroke-opacity:1;"
     x="236.04007"
     y="319.15222"
     id="text13517-14-31-8"><tspan
       sodipodi:role="line"
       x="236.04007"
       y="319.15222"
       id="tspan13521-32-7-8"
       style="font-size:12.5px;line-height:1.19000006;stroke:none;stroke-opacity:1;">R</tspan></text>
  <text
     xml:space="preserve"
     style="font-style:normal;font-variant:normal;font-weight:normal;font-stretch:normal;line-height:0%;font-family:Arial;-inkscape-font-specification:Arial;text-align:start;letter-spacing:0.1px;word-spacing:0px;text-anchor:start;fill:#000000;fill-opacity:1;stroke:none;stroke-width:1px;stroke-linecap:butt;stroke-linejoin:miter;stroke-opacity:1"
     x="380.5766"
     y="173.9333"
     id="text13517-14-3-1-1"><tspan
       sodipodi:role="line"
       x="380.5766"
       y="173.9333"
       id="tspan13521-32-3-7-7"
       style="font-size:12.5px;line-height:1.19000006">C</tspan></text>
  <text
     xml:space="preserve"
     style="font-style:normal;font-variant:normal;font-weight:normal;font-stretch:normal;line-height:0%;font-family:Arial;-inkscape-font-specification:Arial;text-align:start;letter-spacing:-0.41999999px;word-spacing:0px;text-anchor:start;fill:#000000;fill-opacity:1;stroke:none;stroke-width:1px;stroke-linecap:butt;stroke-linejoin:miter;stroke-opacity:1"
     x="4.9971247"
     y="362.78128"
     id="text13517-14-3-1-12"><tspan
       sodipodi:role="line"
       x="4.9971247"
       y="362.78128"
       id="tspan13521-32-3-7-72"
       style="font-size:17.5px;line-height:1.12">Position &quot;1&quot;, Left</tspan><tspan
       sodipodi:role="line"
       x="4.9971247"
       y="382.38129"
       id="tspan13668"
       style="font-size:17.5px;line-height:1.12">Extreme of Travel</tspan></text>
  <text
     xml:space="preserve"
     style="font-style:normal;font-variant:normal;font-weight:normal;font-stretch:normal;line-height:0%;font-family:Arial;-inkscape-font-specification:Arial;text-align:start;letter-spacing:-0.41999999px;word-spacing:0px;text-anchor:start;fill:#000000;fill-opacity:1;stroke:none;stroke-width:1px;stroke-linecap:butt;stroke-linejoin:miter;stroke-opacity:1"
     x="188.03639"
     y="362.04626"
     id="text13517-14-3-1-12-6"><tspan
       sodipodi:role="line"
       x="188.03639"
       y="362.04626"
       id="tspan13521-32-3-7-72-7"
       style="font-size:17.5px;line-height:1.12">Position &quot;2&quot;, Right</tspan><tspan
       sodipodi:role="line"
       x="188.03639"
       y="381.64627"
       id="tspan13668-7"
       style="font-size:17.5px;line-height:1.12">Extreme of Travel</tspan></text>
  <text
     xml:space="preserve"
     style="font-style:normal;font-variant:normal;font-weight:normal;font-stretch:normal;line-height:0%;font-family:Arial;-inkscape-font-specification:Arial;text-align:start;letter-spacing:-0.41999999px;word-spacing:0px;text-anchor:start;fill:#000000;fill-opacity:1;stroke:none;stroke-width:1px;stroke-linecap:butt;stroke-linejoin:miter;stroke-opacity:1"
     x="353.65762"
     y="357.19882"
     id="text13517-14-3-1-12-3"><tspan
       sodipodi:role="line"
       x="353.65762"
       y="357.19882"
       id="tspan13668-6"
       style="font-size:17.5px;line-height:1.12">End View</tspan></text>
  <text
     xml:space="preserve"
     style="font-style:normal;font-variant:normal;font-weight:bold;font-stretch:normal;line-height:0%;font-family:Arial;-inkscape-font-specification:'Arial Bold';text-align:start;letter-spacing:0.31999996px;word-spacing:-0.30000001px;text-anchor:start;fill:#000000;fill-opacity:1;stroke:none;stroke-width:1px;stroke-linecap:butt;stroke-linejoin:miter;stroke-opacity:1"
     x="94.319008"
     y="18.685184"
     id="text13517-14-3-1-12-0"><tspan
       sodipodi:role="line"
       x="94.319008"
       y="18.685184"
       id="tspan13668-3"
       style="font-size:20px;line-height:1.12">FIGURE 5.  FLEX TEST APPARATUS</tspan></text>
</svg>
