<?xml version="1.0" encoding="UTF-8" standalone="no"?>
<!-- Created with Inkscape (http://www.inkscape.org/) -->

<svg
   xmlns:dc="http://purl.org/dc/elements/1.1/"
   xmlns:cc="http://creativecommons.org/ns#"
   xmlns:rdf="http://www.w3.org/1999/02/22-rdf-syntax-ns#"
   xmlns:svg="http://www.w3.org/2000/svg"
   xmlns="http://www.w3.org/2000/svg"
   xmlns:sodipodi="http://sodipodi.sourceforge.net/DTD/sodipodi-0.dtd"
   xmlns:inkscape="http://www.inkscape.org/namespaces/inkscape"
   id="svg13353"
   version="1.1"
   inkscape:version="0.91 r13725"
   width="506"
   height="349"
   viewBox="0 0 506 349"
   sodipodi:docname="er20jy06.032.svg">
  <title id="title_er20jy06.032">Side Impact Application</title>
  <desc id="desc_er20jy06.032">Figures C1 through C16</desc>
  <metadata
     id="metadata13359">
    <rdf:RDF>
      <cc:Work
         rdf:about="">
        <dc:format>image/svg+xml</dc:format>
        <dc:type
           rdf:resource="http://purl.org/dc/dcmitype/StillImage" />
        <dc:title></dc:title>
      </cc:Work>
    </rdf:RDF>
  </metadata>
  <defs
     id="defs13357" />
  <sodipodi:namedview
     pagecolor="#ffffff"
     bordercolor="#666666"
     borderopacity="1"
     objecttolerance="10"
     gridtolerance="10"
     guidetolerance="10"
     inkscape:pageopacity="0"
     inkscape:pageshadow="2"
     inkscape:window-width="1280"
     inkscape:window-height="756"
     id="namedview13355"
     showgrid="false"
     fit-margin-top="0"
     fit-margin-left="0"
     fit-margin-right="0"
     fit-margin-bottom="0"
     inkscape:zoom="0.99886431"
     inkscape:cx="196.7211"
     inkscape:cy="174.5"
     inkscape:window-x="0"
     inkscape:window-y="0"
     inkscape:window-maximized="0"
     inkscape:current-layer="svg13353" />
  <path
     style="color:#000000;display:inline;overflow:visible;visibility:visible;fill:none;fill-rule:evenodd;stroke:#000000;stroke-width:1;stroke-linecap:butt;stroke-linejoin:round;stroke-miterlimit:4;stroke-dasharray:none;stroke-dashoffset:0;stroke-opacity:1;marker:none;enable-background:accumulate"
     d="m 229.24476,225.06166 c 0,3.12117 -2.55201,5.65135 -5.70007,5.65135 l -13.98828,0 c -3.14806,0 -5.70007,-2.53018 -5.70007,-5.65135 l 0,-80.89072 c 0,-3.12116 2.55201,-5.65136 5.70007,-5.65136 l 13.98828,0 c 3.14806,0 5.70007,2.5302 5.70007,5.65136 z"
     id="path11587"
     inkscape:connector-curvature="0"
     sodipodi:nodetypes="sssssssss" />
  <path
     style="color:#000000;display:inline;overflow:visible;visibility:visible;fill:none;fill-rule:evenodd;stroke:#000000;stroke-width:1;stroke-linecap:butt;stroke-linejoin:round;stroke-miterlimit:4;stroke-dasharray:none;stroke-dashoffset:0;stroke-opacity:1;marker:none;enable-background:accumulate"
     d="m 329.3196,225.09221 c 0,3.12116 -2.55201,5.65136 -5.70007,5.65136 l -13.9883,0 c -3.14805,0 -5.70008,-2.5302 -5.70008,-5.65136 l 0,-80.89073 c 0,-3.12115 2.55203,-5.65136 5.70008,-5.65136 l 13.9883,0 c 3.14806,0 5.70007,2.53021 5.70007,5.65136 z"
     id="path11587-0"
     inkscape:connector-curvature="0"
     sodipodi:nodetypes="sssssssss" />
  <path
     style="color:#000000;display:inline;overflow:visible;visibility:visible;fill:none;fill-rule:evenodd;stroke:#000000;stroke-width:1;stroke-linecap:butt;stroke-linejoin:round;stroke-miterlimit:4;stroke-dasharray:none;stroke-dashoffset:0;stroke-opacity:1;marker:none;enable-background:accumulate"
     d="m 278.71233,128.04166 0.6623,0 c 3.14806,0 5.70008,2.5302 5.70008,5.65135 l 0,76.12528 -37.83619,0 0,-76.12528 c 0,-3.12115 2.55202,-5.65135 5.70007,-5.65135 l 1.20388,0 m 30.93224,31.43376 -37.83619,0"
     id="path11587-7"
     inkscape:connector-curvature="0"
     sodipodi:nodetypes="cssccssccc" />
  <path
     style="color:#000000;display:inline;overflow:visible;visibility:visible;fill:none;fill-rule:evenodd;stroke:#000000;stroke-width:1;stroke-linecap:butt;stroke-linejoin:round;stroke-miterlimit:4;stroke-dasharray:none;stroke-dashoffset:0;stroke-opacity:1;marker:none;enable-background:accumulate"
     d="m 278.52813,150.07393 c 2.88867,-6.88321 4.18315,-18.12492 -2.88167,-27.14903 l -18.60997,0 c -6.93025,9.4798 -5.43082,20.26152 -2.93334,27.13132"
     id="path11587-7-0"
     inkscape:connector-curvature="0"
     sodipodi:nodetypes="cccc" />
  <path
     style="fill:none;stroke:#000000;stroke-width:1;stroke-linecap:butt;stroke-linejoin:round;stroke-miterlimit:4;stroke-dasharray:none;stroke-opacity:1"
     d="m 232.3435,184.58615 0.002,-102.610135 68.65919,0 -0.002,102.610135 -3.22503,0 0.002,-99.328524 -62.29401,0 -0.002,99.328524 z"
     id="path14359-1-7-5-3-0-73-1-9-79"
     inkscape:connector-curvature="0"
     sodipodi:nodetypes="ccccccccc" />
  <path
     style="fill:none;stroke:#000000;stroke-width:1;stroke-linecap:butt;stroke-linejoin:round;stroke-miterlimit:4;stroke-dasharray:none;stroke-opacity:1"
     d="m 232.23988,84.434761 68.78325,0.0016"
     id="path14359-1-7-5-3-0-73-1-9-640"
     inkscape:connector-curvature="0"
     sodipodi:nodetypes="cc" />
  <path
     style="fill:none;stroke:#000000;stroke-width:1;stroke-linecap:butt;stroke-linejoin:round;stroke-miterlimit:4;stroke-dasharray:none;stroke-opacity:1"
     d="m 258.82269,158.41743 0.002,-25.02956 14.5975,0 -0.002,25.02956"
     id="path14359-1-7-5-3-0-73-1-9-36"
     inkscape:connector-curvature="0"
     sodipodi:nodetypes="cccc" />
  <path
     style="fill:none;stroke:#000000;stroke-width:1;stroke-linecap:butt;stroke-linejoin:round;stroke-miterlimit:4;stroke-dasharray:none;stroke-opacity:1"
     d="m 276.73178,154.1714 -0.002,4.4143 -21.04756,0 0.002,-4.4143"
     id="path14359-1-7-5-3-0-73-1-9-50"
     inkscape:connector-curvature="0"
     sodipodi:nodetypes="cccc" />
  <path
     style="fill:none;stroke:#000000;stroke-width:1;stroke-linecap:butt;stroke-linejoin:round;stroke-miterlimit:4;stroke-dasharray:none;stroke-opacity:1"
     d="m 258.88275,150.04835 -5.32025,0 -0.002,4.41431 5.25417,0 m 14.64054,0 5.31145,0 0.002,-4.41431 -5.34704,0"
     id="path14359-1-7-5-3-0-73-1-9-28"
     inkscape:connector-curvature="0"
     sodipodi:nodetypes="cccccccc" />
  <path
     style="fill:none;stroke:#000000;stroke-width:1;stroke-linecap:butt;stroke-linejoin:round;stroke-miterlimit:4;stroke-dasharray:none;stroke-opacity:1"
     d="m 279.3026,148.032 c 2.22468,0.76228 2.21073,6.26239 -0.53564,6.26239 l -5.24367,0 m -14.70832,0 -5.25418,0 c -2.73318,0 -2.7426,-5.97162 -0.23962,-6.3326"
     id="path14359-1-7-5-3-0-73-1-9-07"
     inkscape:connector-curvature="0"
     sodipodi:nodetypes="csccsc" />
  <path
     style="fill:none;stroke:#000000;stroke-width:1;stroke-linecap:butt;stroke-linejoin:round;stroke-miterlimit:4;stroke-dasharray:none;stroke-opacity:1"
     d="m 244.48711,151.14398 15.78514,6e-4 m 3.89736,1.5e-4 4.06682,1.6e-4 m 3.79568,1.4e-4 15.78514,6.2e-4"
     id="path14359-1-7-5-3-0-73-1-9-54"
     inkscape:connector-curvature="0"
     sodipodi:nodetypes="cccccc" />
  <path
     style="fill:none;stroke:#000000;stroke-width:1;stroke-linecap:butt;stroke-linejoin:round;stroke-miterlimit:4;stroke-dasharray:none;stroke-opacity:1"
     d="m 229.2958,191.99536 8.33698,0 0.002,-13.49214 -2.2376,0 m -3.05012,0 -3.04926,0"
     id="path14359-1-7-5-3-0-73-1-9-71"
     inkscape:connector-curvature="0"
     sodipodi:nodetypes="cccccc" />
  <path
     style="fill:none;stroke:#000000;stroke-width:1;stroke-linecap:butt;stroke-linejoin:round;stroke-miterlimit:4;stroke-dasharray:none;stroke-opacity:1"
     d="m 237.63447,191.80901 9.62311,8.65367"
     id="path14359-1-7-5-3-0-73-1-9-51"
     inkscape:connector-curvature="0"
     sodipodi:nodetypes="cc" />
  <path
     style="fill:none;stroke:#000000;stroke-width:1;stroke-linecap:butt;stroke-linejoin:round;stroke-miterlimit:4;stroke-dasharray:none;stroke-opacity:1"
     d="m 237.56669,178.36881 9.55533,-8.61695"
     id="path14359-1-7-5-3-0-73-1-9-825"
     inkscape:connector-curvature="0"
     sodipodi:nodetypes="cc" />
  <path
     style="fill:none;stroke:#000000;stroke-width:1;stroke-linecap:butt;stroke-linejoin:round;stroke-miterlimit:4;stroke-dasharray:none;stroke-opacity:1"
     d="m 304.02526,178.53682 -3.15262,0 m -3.11789,0 -0.68468,0 m 0.05,13.49214 6.90321,0"
     id="path14359-1-7-5-3-0-73-1-9-71-5"
     inkscape:connector-curvature="0"
     sodipodi:nodetypes="cccccc" />
  <path
     style="fill:none;stroke:#000000;stroke-width:1;stroke-linecap:butt;stroke-linejoin:round;stroke-miterlimit:4;stroke-dasharray:none;stroke-opacity:1"
     d="m 293.91741,193.38904 -8.77063,7.67845"
     id="path14359-1-7-5-3-0-73-1-9-51-1"
     inkscape:connector-curvature="0"
     sodipodi:nodetypes="cc" />
  <path
     style="fill:none;stroke:#000000;stroke-width:1;stroke-linecap:butt;stroke-linejoin:round;stroke-miterlimit:4;stroke-dasharray:none;stroke-opacity:1"
     d="m 285.08069,169.02788 8.84606,7.87098"
     id="path14359-1-7-5-3-0-73-1-9-51-7"
     inkscape:connector-curvature="0"
     sodipodi:nodetypes="cc" />
  <path
     style="fill:none;stroke:#000000;stroke-width:1;stroke-linecap:butt;stroke-linejoin:round;stroke-miterlimit:4;stroke-dasharray:none;stroke-opacity:1"
     d="m 297.63463,141.69756 3.38536,0.002"
     id="path14359-1-7-5-3-0-73-1-9-4"
     inkscape:connector-curvature="0"
     sodipodi:nodetypes="cc" />
  <path
     style="fill:none;stroke:#000000;stroke-width:1;stroke-linecap:butt;stroke-linejoin:round;stroke-miterlimit:4;stroke-dasharray:none;stroke-opacity:1"
     d="m 232.12981,141.69756 3.38536,0.002"
     id="path14359-1-7-5-3-0-73-1-9-92"
     inkscape:connector-curvature="0"
     sodipodi:nodetypes="cc" />
  <path
     style="fill:none;stroke:#000000;stroke-width:1;stroke-linecap:butt;stroke-linejoin:miter;stroke-miterlimit:4;stroke-dasharray:none;stroke-opacity:1"
     d="m 506.20023,231.13387 -3.34568,-1e-5 m -5.14702,-2e-5 -3.69032,-2e-5 m -3.88455,-10e-6 -19.61696,-8e-5 m -3.69032,-2e-5 -3.49609,-1e-5 m -3.98166,-2e-5 -4.273,-1e-5 m -3.59321,-2e-5 -19.51984,-7e-5 m -3.98167,-2e-5 -4.17588,-2e-5 m -3.88455,-1e-5 -4.56434,-2e-5 m -3.49609,-1e-5 -18.74294,-8e-5 m -4.37012,-1e-5 -4.17588,-2e-5 m -3.88455,-2e-5 -3.88454,-1e-5 m -3.78744,-2e-5 -19.03428,-7e-5 m -4.07877,-2e-5 -4.46723,-2e-5 m -3.10764,-1e-5 -4.56434,-2e-5 m -3.69032,-10e-6 -19.2285,-8e-5 m -3.98166,-10e-6 -3.98166,-2e-5 m -4.07878,-2e-5 -3.5932,-1e-5 m -3.69032,-1e-5 -19.51985,-8e-5 m -4.56434,-2e-5 -3.88455,-1e-5 m -3.88454,-2e-5 -3.98166,-2e-5 m -3.78744,-1e-5 -18.64582,-7e-5 m -4.37011,-2e-5 -4.07878,-2e-5 m -3.5932,-1e-5 -4.85569,-2e-5 m -3.20475,-1e-5 -37.0003,-1.5e-4 m -3.30187,-1e-5 -17.96603,-7e-5 m -3.88454,-2e-5 -4.75857,-2e-5 m -3.59321,-1e-5 -4.07877,-2e-5 m -3.59321,-1e-5 -19.2285,-8e-5 m -4.56434,-2e-5 -33.601332,-1.3e-4 m -5.049912,-2e-5 -4.273001,-2e-5 m -3.010522,-1e-5 -4.370116,-2e-5 m -4.661457,-10e-6 -18.257369,-8e-5 m -4.467228,-10e-6 -4.078773,-2e-5 m -3.98166,-2e-5 -3.690319,-1e-5 m -4.273002,-2e-5 -20.92987532,-8e-5"
     id="path14359-1-7-5-3-0-73-1-9"
     inkscape:connector-curvature="0"
     sodipodi:nodetypes="cccccccccccccccccccccccccccccccccccccccccccccccccccccccccccccccccccccc" />
  <path
     style="fill:none;stroke:#000000;stroke-width:1;stroke-linecap:butt;stroke-linejoin:miter;stroke-miterlimit:4;stroke-dasharray:none;stroke-opacity:1"
     d="m 266.57929,45.616194 -2.1e-4,18.397677 m -5e-5,4.442391 -4e-5,3.500068 m -5e-5,4.442389 -2.2e-4,19.788837 m -6e-5,4.711624 -4e-5,3.63468 m -5e-5,4.30778 -2.1e-4,18.71189 m -4e-5,3.7693 -6e-5,4.84625 m -4e-5,4.17315 -2.2e-4,18.84651 m -5e-5,4.57701 -5e-5,4.44239 m -4e-5,3.23083 -2.2e-4,19.78883 m -6e-5,4.71163 -5e-5,4.17315 m -4e-5,3.90392 -2e-4,17.24966"
     id="path14359-1-7-5-3-0-73-1-9-9"
     inkscape:connector-curvature="0"
     sodipodi:nodetypes="cccccccccccccccccccccc" />
  <path
     style="fill:none;stroke:#000000;stroke-width:1;stroke-linecap:butt;stroke-linejoin:miter;stroke-miterlimit:4;stroke-dasharray:none;stroke-opacity:1"
     d="m 202.66612,184.63053 24.03045,3.8e-4 m 4.84624,7e-5 3.90393,6e-5 m 3.63468,6e-5 19.38498,3e-4 m 3.63468,6e-5 4.57702,7e-5 m 3.63468,6e-5 37.01992,5.8e-4 m 4.03854,6e-5 4.03854,7e-5 m 4.17316,6e-5 10.83789,1.7e-4"
     id="path14359-1-7-5-3-0-73-1-9-2"
     inkscape:connector-curvature="0"
     sodipodi:nodetypes="cccccccccccccc" />
  <path
     style="fill:none;stroke:#000000;stroke-width:1;stroke-linecap:butt;stroke-linejoin:miter;stroke-miterlimit:4;stroke-dasharray:none;stroke-opacity:1"
     d="m 297.13214,226.71497 0.002,-50.21615 c 10e-5,-2.59035 -3.22253,-2.48728 -3.22263,0 l -0.002,50.31609"
     id="path14359-1-7-5-3-0-73-1-9-8"
     inkscape:connector-curvature="0"
     sodipodi:nodetypes="cssc" />
  <path
     style="fill:#000000;stroke:#000000;stroke-width:1;stroke-linecap:butt;stroke-linejoin:miter;stroke-miterlimit:4;stroke-dasharray:none;stroke-opacity:1;fill-opacity:1"
     d="m 299.71747,230.57002 -8.29498,0 4.14949,-6.29276 z"
     id="path14359-1-7-5-3-0-73-1-9-1"
     inkscape:connector-curvature="0"
     sodipodi:nodetypes="cccc" />
  <path
     style="fill:none;fill-rule:evenodd;stroke:#000000;stroke-width:1px;stroke-linecap:butt;stroke-linejoin:miter;stroke-opacity:1"
     d="m 293.92197,178.20345 2.99819,-2.59843"
     id="path28653"
     inkscape:connector-curvature="0" />
  <path
     style="fill:none;fill-rule:evenodd;stroke:#000000;stroke-width:1px;stroke-linecap:butt;stroke-linejoin:miter;stroke-opacity:1"
     d="m 293.92197,180.95179 3.19807,-2.69837"
     id="path28655"
     inkscape:connector-curvature="0" />
  <path
     style="fill:none;fill-rule:evenodd;stroke:#000000;stroke-width:1px;stroke-linecap:butt;stroke-linejoin:miter;stroke-opacity:1"
     d="m 293.872,183.99994 3.39795,-2.94822"
     id="path28657"
     inkscape:connector-curvature="0" />
  <path
     style="fill:none;fill-rule:evenodd;stroke:#000000;stroke-width:1px;stroke-linecap:butt;stroke-linejoin:miter;stroke-opacity:1"
     d="m 293.92197,186.89818 3.24804,-2.84827"
     id="path28659"
     inkscape:connector-curvature="0" />
  <path
     style="fill:none;fill-rule:evenodd;stroke:#000000;stroke-width:1px;stroke-linecap:butt;stroke-linejoin:miter;stroke-opacity:1"
     d="m 293.872,189.3467 3.19807,-2.44852"
     id="path28661"
     inkscape:connector-curvature="0" />
  <path
     style="fill:none;fill-rule:evenodd;stroke:#000000;stroke-width:1px;stroke-linecap:butt;stroke-linejoin:miter;stroke-opacity:1"
     d="m 293.92197,192.49479 3.1481,-2.74833"
     id="path28663"
     inkscape:connector-curvature="0" />
  <path
     style="fill:none;fill-rule:evenodd;stroke:#000000;stroke-width:1px;stroke-linecap:butt;stroke-linejoin:miter;stroke-opacity:1"
     d="m 293.92197,195.34307 3.19807,-2.79831"
     id="path28665"
     inkscape:connector-curvature="0" />
  <path
     style="fill:none;fill-rule:evenodd;stroke:#000000;stroke-width:1px;stroke-linecap:butt;stroke-linejoin:miter;stroke-opacity:1"
     d="m 293.872,198.14137 3.24804,-2.74833"
     id="path28667"
     inkscape:connector-curvature="0" />
  <path
     style="fill:none;fill-rule:evenodd;stroke:#000000;stroke-width:1px;stroke-linecap:butt;stroke-linejoin:miter;stroke-opacity:1"
     d="m 293.97194,200.68983 3.09813,-2.44852"
     id="path28669"
     inkscape:connector-curvature="0" />
  <path
     style="fill:none;fill-rule:evenodd;stroke:#000000;stroke-width:1px;stroke-linecap:butt;stroke-linejoin:miter;stroke-opacity:1"
     d="m 293.872,203.78795 3.24804,-2.59842"
     id="path28671"
     inkscape:connector-curvature="0" />
  <path
     style="fill:none;fill-rule:evenodd;stroke:#000000;stroke-width:1px;stroke-linecap:butt;stroke-linejoin:miter;stroke-opacity:1"
     d="m 293.872,206.53629 3.24804,-2.34858"
     id="path28673"
     inkscape:connector-curvature="0" />
  <path
     style="fill:none;fill-rule:evenodd;stroke:#000000;stroke-width:1px;stroke-linecap:butt;stroke-linejoin:miter;stroke-opacity:1"
     d="m 293.872,209.38456 3.1481,-2.44851"
     id="path28675"
     inkscape:connector-curvature="0" />
  <path
     style="fill:none;fill-rule:evenodd;stroke:#000000;stroke-width:1px;stroke-linecap:butt;stroke-linejoin:miter;stroke-opacity:1"
     d="m 293.872,212.1329 3.24804,-2.44852"
     id="path28677"
     inkscape:connector-curvature="0" />
  <path
     style="fill:none;fill-rule:evenodd;stroke:#000000;stroke-width:1px;stroke-linecap:butt;stroke-linejoin:miter;stroke-opacity:1"
     d="m 293.872,214.98117 3.19807,-2.54845"
     id="path28679"
     inkscape:connector-curvature="0" />
  <path
     style="fill:none;fill-rule:evenodd;stroke:#000000;stroke-width:1px;stroke-linecap:butt;stroke-linejoin:miter;stroke-opacity:1"
     d="m 293.97194,217.5796 3.1481,-2.59843"
     id="path28681"
     inkscape:connector-curvature="0" />
  <path
     style="fill:none;fill-rule:evenodd;stroke:#000000;stroke-width:1px;stroke-linecap:butt;stroke-linejoin:miter;stroke-opacity:1"
     d="m 293.872,220.32794 3.24804,-2.44852"
     id="path28683"
     inkscape:connector-curvature="0" />
  <path
     style="fill:none;fill-rule:evenodd;stroke:#000000;stroke-width:1px;stroke-linecap:butt;stroke-linejoin:miter;stroke-opacity:1"
     d="m 293.872,223.526 3.24804,-3.09812"
     id="path28685"
     inkscape:connector-curvature="0" />
  <path
     style="fill:none;fill-rule:evenodd;stroke:#000000;stroke-width:1px;stroke-linecap:butt;stroke-linejoin:miter;stroke-opacity:1"
     d="m 294.07188,225.92455 3.1481,-2.79831"
     id="path28687"
     inkscape:connector-curvature="0" />
  <path
     style="fill:none;stroke:#000000;stroke-width:1;stroke-linecap:butt;stroke-linejoin:miter;stroke-miterlimit:4;stroke-dasharray:none;stroke-opacity:1"
     d="m 103.2866,219.54671 0.002,11.30576 10.90058,0 -0.002,-11.30576 z"
     id="path14359-1-7-5-3-0-73-1-9-08"
     inkscape:connector-curvature="0"
     sodipodi:nodetypes="ccccc" />
  <path
     style="fill:none;stroke:#000000;stroke-width:3;stroke-linecap:butt;stroke-linejoin:miter;stroke-miterlimit:4;stroke-dasharray:none;stroke-opacity:1"
     d="m 114.23831,222.69502 -10.89397,0.002"
     id="path14359-1-7-5-3-0-73-1-9-08-1"
     inkscape:connector-curvature="0"
     sodipodi:nodetypes="cc" />
  <path
     style="fill:none;stroke:#000000;stroke-width:2;stroke-linecap:butt;stroke-linejoin:miter;stroke-miterlimit:4;stroke-dasharray:none;stroke-opacity:1"
     d="m 114.23831,230.17581 -10.89397,0.002"
     id="path14359-1-7-5-3-0-73-1-9-08-6"
     inkscape:connector-curvature="0"
     sodipodi:nodetypes="cc" />
  <path
     style="fill:none;stroke:#000000;stroke-width:3;stroke-linecap:butt;stroke-linejoin:miter;stroke-miterlimit:4;stroke-dasharray:none;stroke-opacity:1"
     d="m 114.23831,226.64915 -10.89397,0.002"
     id="path14359-1-7-5-3-0-73-1-9-08-63"
     inkscape:connector-curvature="0"
     sodipodi:nodetypes="cc" />
  <path
     style="fill:none;stroke:#000000;stroke-width:1;stroke-linecap:butt;stroke-linejoin:round;stroke-miterlimit:4;stroke-dasharray:none;stroke-opacity:1"
     d="m 103.287,219.59686 -0.10527,11.37816 -11.969261,0 -0.002,-2.3445 9.726021,0 0,-10.36623 c 0,-0.78486 0.47879,-0.94222 1.60303,-0.94222 l 6.41111,0 c 1.42731,0 1.64678,0.95603 1.57991,2.27479 z"
     id="path14359-1-7-5-3-0-73-1-9-08-98"
     inkscape:connector-curvature="0"
     sodipodi:nodetypes="cccccssscc" />
  <path
     style="fill:none;stroke:#000000;stroke-width:1;stroke-linecap:butt;stroke-linejoin:round;stroke-miterlimit:4;stroke-dasharray:none;stroke-opacity:1"
     d="m 99.227589,228.51705 -0.002,-0.95521 -1.06868,0 0.002,0.95521"
     id="path14359-1-7-5-3-0-73-1-9-08-4"
     inkscape:connector-curvature="0"
     sodipodi:nodetypes="cccc" />
  <path
     style="fill:none;stroke:#000000;stroke-width:1;stroke-linecap:butt;stroke-linejoin:round;stroke-miterlimit:4;stroke-dasharray:none;stroke-opacity:1"
     d="m 93.670439,228.51705 -0.002,-0.95521 -1.06868,0 0.002,0.95521"
     id="path14359-1-7-5-3-0-73-1-9-08-2"
     inkscape:connector-curvature="0"
     sodipodi:nodetypes="cccc" />
  <path
     style="fill:none;stroke:#000000;stroke-width:1;stroke-linecap:butt;stroke-linejoin:miter;stroke-miterlimit:4;stroke-dasharray:none;stroke-opacity:1"
     d="m 192.13806,219.54082 0.002,11.30576 10.90058,0 -0.002,-11.30576 z"
     id="path14359-1-7-5-3-0-73-1-9-08-7"
     inkscape:connector-curvature="0"
     sodipodi:nodetypes="ccccc" />
  <path
     style="fill:none;stroke:#000000;stroke-width:3;stroke-linecap:butt;stroke-linejoin:miter;stroke-miterlimit:4;stroke-dasharray:none;stroke-opacity:1"
     d="m 203.08977,222.68913 -10.89397,0.002"
     id="path14359-1-7-5-3-0-73-1-9-08-1-6"
     inkscape:connector-curvature="0"
     sodipodi:nodetypes="cc" />
  <path
     style="fill:none;stroke:#000000;stroke-width:2;stroke-linecap:butt;stroke-linejoin:miter;stroke-miterlimit:4;stroke-dasharray:none;stroke-opacity:1"
     d="m 203.08977,230.16992 -10.89397,0.002"
     id="path14359-1-7-5-3-0-73-1-9-08-6-5"
     inkscape:connector-curvature="0"
     sodipodi:nodetypes="cc" />
  <path
     style="fill:none;stroke:#000000;stroke-width:3;stroke-linecap:butt;stroke-linejoin:miter;stroke-miterlimit:4;stroke-dasharray:none;stroke-opacity:1"
     d="m 203.08977,226.64326 -10.89397,0.002"
     id="path14359-1-7-5-3-0-73-1-9-08-63-0"
     inkscape:connector-curvature="0"
     sodipodi:nodetypes="cc" />
  <path
     style="fill:none;stroke:#000000;stroke-width:1;stroke-linecap:butt;stroke-linejoin:round;stroke-miterlimit:4;stroke-dasharray:none;stroke-opacity:1"
     d="m 192.13846,219.59097 -0.10527,11.37816 -11.96927,0 -0.002,-2.3445 9.72603,0 0,-10.36623 c 0,-0.78486 0.47879,-0.94222 1.60303,-0.94222 l 6.41111,0 c 1.42731,0 1.64678,0.95603 1.57991,2.27479 z"
     id="path14359-1-7-5-3-0-73-1-9-08-98-5"
     inkscape:connector-curvature="0"
     sodipodi:nodetypes="cccccssscc" />
  <path
     style="fill:none;stroke:#000000;stroke-width:1;stroke-linecap:butt;stroke-linejoin:round;stroke-miterlimit:4;stroke-dasharray:none;stroke-opacity:1"
     d="m 188.07904,228.51116 -0.002,-0.95521 -1.06868,0 0.002,0.95521"
     id="path14359-1-7-5-3-0-73-1-9-08-4-6"
     inkscape:connector-curvature="0"
     sodipodi:nodetypes="cccc" />
  <path
     style="fill:none;stroke:#000000;stroke-width:1;stroke-linecap:butt;stroke-linejoin:round;stroke-miterlimit:4;stroke-dasharray:none;stroke-opacity:1"
     d="m 182.52189,228.51116 -0.002,-0.95521 -1.06868,0 0.002,0.95521"
     id="path14359-1-7-5-3-0-73-1-9-08-2-4"
     inkscape:connector-curvature="0"
     sodipodi:nodetypes="cccc" />
  <path
     style="fill:none;stroke:#000000;stroke-width:1;stroke-linecap:butt;stroke-linejoin:miter;stroke-miterlimit:4;stroke-dasharray:none;stroke-opacity:1"
     d="m 203.73893,155.01895 -88.98087,76.25414"
     id="path14359-1-7-5-3-0-73-1-9-83"
     inkscape:connector-curvature="0"
     sodipodi:nodetypes="cc" />
  <path
     style="fill:none;stroke:#000000;stroke-width:1;stroke-linecap:butt;stroke-linejoin:miter;stroke-miterlimit:4;stroke-dasharray:none;stroke-opacity:1"
     d="m 203.73893,145.60203 -89.51818,76.31728"
     id="path14359-1-7-5-3-0-73-1-9-6"
     inkscape:connector-curvature="0"
     sodipodi:nodetypes="cc" />
  <path
     style="fill:none;stroke:#000000;stroke-width:1;stroke-linecap:butt;stroke-linejoin:round;stroke-miterlimit:4;stroke-dasharray:none;stroke-opacity:1"
     d="m 302.19093,66.403713 -0.002,32.198243 31.43095,0 0.002,-32.198243 z"
     id="path14359-1-7-5-3-0-73-1-9-87"
     inkscape:connector-curvature="0"
     sodipodi:nodetypes="ccccc" />
  <path
     style="fill:none;stroke:#000000;stroke-width:1;stroke-linecap:butt;stroke-linejoin:round;stroke-miterlimit:4;stroke-dasharray:none;stroke-opacity:1"
     d="m 317.77323,16.327283 -0.002,50.177813"
     id="path14359-1-7-5-3-0-73-1-9-86"
     inkscape:connector-curvature="0"
     sodipodi:nodetypes="cc" />
  <path
     style="fill:none;stroke:#000000;stroke-width:3;stroke-linecap:round;stroke-linejoin:round;stroke-miterlimit:4;stroke-dasharray:none;stroke-opacity:1"
     d="m 317.77324,82.651915 -0.002,0.101384"
     id="path14359-1-7-5-3-0-73-1-9-86-7"
     inkscape:connector-curvature="0"
     sodipodi:nodetypes="cc" />
  <path
     style="fill:none;stroke:#000000;stroke-width:1;stroke-linecap:butt;stroke-linejoin:round;stroke-miterlimit:4;stroke-dasharray:none;stroke-opacity:1"
     d="m 321.51723,82.768199 101.18651,0.002"
     id="path14359-1-7-5-3-0-73-1-9-86-6"
     inkscape:connector-curvature="0"
     sodipodi:nodetypes="cc" />
  <path
     style="fill:none;stroke:#000000;stroke-width:1;stroke-linecap:butt;stroke-linejoin:round;stroke-miterlimit:4;stroke-dasharray:none;stroke-opacity:1"
     d="m 385.3114,68.118182 37.52552,0.002"
     id="path14359-1-7-5-3-0-73-1-9-86-0"
     inkscape:connector-curvature="0"
     sodipodi:nodetypes="cc" />
  <path
     style="fill:none;stroke:#000000;stroke-width:1;stroke-linecap:butt;stroke-linejoin:round;stroke-miterlimit:4;stroke-dasharray:none;stroke-opacity:1"
     d="m 367.61056,56.724934 -7.25805,3.453417 3.44366,7.238692 m 1.97032,4.141682 3.09442,6.504592 m 1.94574,4.090016 3.37804,7.100757 6.53474,-3.109261 m 4.03296,-1.918906 6.29773,-2.996492 m 4.62237,-2.199345 6.89421,-3.280301 -3.05014,-6.411509 m -2.09823,-4.410554 -3.35526,-7.05288 m -1.9974,-4.19862 -3.33114,-7.002173 -6.3881,3.039487 m -4.19849,1.997661 -6.65942,3.168588"
     id="path14359-1-7-5-3-0-73-1-9-87-0"
     inkscape:connector-curvature="0"
     sodipodi:nodetypes="cccccccccccccccccccc" />
  <path
     style="fill:none;stroke:#000000;stroke-width:1;stroke-linecap:butt;stroke-linejoin:round;stroke-miterlimit:4;stroke-dasharray:none;stroke-opacity:1"
     d="m 353.84021,8.3978045 2.15243,4.6569615 m 1.6235,3.512585 3.35229,7.252947 m 1.29956,2.811727 0.74931,1.621194 m 1.25269,2.710286 1.77183,3.833505 m 1.58045,3.419441 3.44605,7.45583 m 1.4479,3.132648 2.08198,4.504534"
     id="path14359-1-7-5-3-0-73-1-9-86-2"
     inkscape:connector-curvature="0"
     sodipodi:nodetypes="cccccccccccc" />
  <path
     style="fill:none;stroke:#000000;stroke-width:3;stroke-linecap:round;stroke-linejoin:round;stroke-miterlimit:4;stroke-dasharray:none;stroke-opacity:1"
     d="m 381.4043,68.155469 0.0417,0.09241"
     id="path14359-1-7-5-3-0-73-1-9-86-7-8"
     inkscape:connector-curvature="0"
     sodipodi:nodetypes="cc" />
  <path
     style="fill:none;stroke:#000000;stroke-width:1;stroke-linecap:butt;stroke-linejoin:round;stroke-miterlimit:4;stroke-dasharray:none;stroke-opacity:1"
     d="m 107.45295,199.20809 16.88327,0.001 44.88038,12.35475"
     id="path14359-1-7-5-3-0-73-1-9-86-0-7"
     inkscape:connector-curvature="0"
     sodipodi:nodetypes="ccc" />
  <path
     style="fill:#000000;fill-opacity:1;stroke:#000000;stroke-width:1;stroke-linecap:butt;stroke-linejoin:miter;stroke-miterlimit:4;stroke-dasharray:none;stroke-opacity:1"
     d="m 421.94531,55.392917 -2.89424,10.40564 -2.79335,-10.40616 2.78873,-0.01 z"
     id="path14359-1-7-5-3-0-73-4-0"
     inkscape:connector-curvature="0"
     sodipodi:nodetypes="ccccc" />
  <path
     style="fill:#000000;fill-opacity:1;stroke:#000000;stroke-width:1;stroke-linecap:butt;stroke-linejoin:miter;stroke-miterlimit:4;stroke-dasharray:none;stroke-opacity:1"
     d="m 421.94531,96.023574 -2.89424,-10.405637 -2.79335,10.406157 2.78873,0.01 z"
     id="path14359-1-7-5-3-0-73-2-0"
     inkscape:connector-curvature="0"
     sodipodi:nodetypes="ccccc" />
  <path
     style="fill:none;fill-rule:evenodd;stroke:#000000;stroke-width:1px;stroke-linecap:butt;stroke-linejoin:miter;stroke-opacity:1"
     d="m 419.0466,96.041544 0,18.128836 m 15.29123,-78.172523 -15.29123,0 0,19.37708"
     id="path8331-0-6"
     inkscape:connector-curvature="0"
     sodipodi:nodetypes="ccccc" />
  <path
     style="fill:#000000;fill-opacity:1;stroke:#000000;stroke-width:1;stroke-linecap:butt;stroke-linejoin:miter;stroke-miterlimit:4;stroke-dasharray:none;stroke-opacity:1"
     d="m 347.98821,80.625564 -10.79057,-0.466284 9.50497,-5.074104 0.64034,2.714235 z"
     id="path14359-1-7-5-3-0-73-4-0-7"
     inkscape:connector-curvature="0"
     sodipodi:nodetypes="ccccc" />
  <path
     style="fill:none;fill-rule:evenodd;stroke:#000000;stroke-width:1px;stroke-linecap:butt;stroke-linejoin:miter;stroke-opacity:1"
     d="m 366.31835,73.506074 -18.9681,4.291797"
     id="path8331-0-6-0"
     inkscape:connector-curvature="0"
     sodipodi:nodetypes="cc" />
  <path
     style="fill:#000000;fill-opacity:1;stroke:#000000;stroke-width:1;stroke-linecap:butt;stroke-linejoin:miter;stroke-miterlimit:4;stroke-dasharray:none;stroke-opacity:1"
     d="m 171.7535,155.4008 2.11297,10.59195 -7.18874,-8.02577 2.48412,-1.2674 z"
     id="path14359-1-7-5-3-0-73-4-0-0"
     inkscape:connector-curvature="0"
     sodipodi:nodetypes="ccccc" />
  <path
     style="fill:none;fill-rule:evenodd;stroke:#000000;stroke-width:1px;stroke-linecap:butt;stroke-linejoin:miter;stroke-opacity:1"
     d="m 127.87831,117.17016 21.06445,0 20.21585,39.5227"
     id="path8331-0-6-3"
     inkscape:connector-curvature="0"
     sodipodi:nodetypes="ccc" />
  <path
     style="fill:#000000;fill-opacity:1;stroke:#000000;stroke-width:1;stroke-linecap:butt;stroke-linejoin:miter;stroke-miterlimit:4;stroke-dasharray:none;stroke-opacity:1"
     d="m 119.37965,239.82364 -8.78412,-6.28437 4.3566,9.85449 2.17733,-1.74251 z"
     id="path14359-1-7-5-3-0-73-2-0-8"
     inkscape:connector-curvature="0"
     sodipodi:nodetypes="ccccc" />
  <path
     style="fill:none;fill-rule:evenodd;stroke:#000000;stroke-width:1px;stroke-linecap:butt;stroke-linejoin:miter;stroke-opacity:1"
     d="m 117.13426,241.65696 38.63199,47.51594 39.38724,1.84796"
     id="path8331-0-6-8"
     inkscape:connector-curvature="0"
     sodipodi:nodetypes="ccc" />
  <path
     style="fill:#000000;fill-opacity:1;stroke:#000000;stroke-width:1;stroke-linecap:butt;stroke-linejoin:miter;stroke-miterlimit:4;stroke-dasharray:none;stroke-opacity:1"
     d="m 192.36173,244.77407 3.83006,-10.09874 -8.41338,6.73097 2.24121,1.65955 z"
     id="path14359-1-7-5-3-0-73-2-0-5"
     inkscape:connector-curvature="0"
     sodipodi:nodetypes="ccccc" />
  <path
     style="fill:none;fill-rule:evenodd;stroke:#000000;stroke-width:1px;stroke-linecap:butt;stroke-linejoin:miter;stroke-opacity:1"
     d="M 190.01533,243.07194 155.97241,289.3084"
     id="path8331-0-6-6"
     inkscape:connector-curvature="0"
     sodipodi:nodetypes="cc" />
  <path
     style="fill:#000000;fill-opacity:1;stroke:#000000;stroke-width:1;stroke-linecap:butt;stroke-linejoin:miter;stroke-miterlimit:4;stroke-dasharray:none;stroke-opacity:1"
     d="m 168.04752,203.14365 -7.92442,-7.33878 3.08322,10.32399 2.3791,-1.45498 z"
     id="path14359-1-7-5-3-0-73-2-0-2"
     inkscape:connector-curvature="0"
     sodipodi:nodetypes="ccccc" />
  <path
     style="fill:none;fill-rule:evenodd;stroke:#000000;stroke-width:1px;stroke-linecap:butt;stroke-linejoin:miter;stroke-opacity:1"
     d="m 165.58947,204.68014 c 0,0 2.50223,3.16177 3.65801,6.98307 1.15578,3.8213 1.40594,7.34364 1.40594,7.34364"
     id="path8331-0-6-02"
     inkscape:connector-curvature="0"
     sodipodi:nodetypes="csc" />
  <path
     style="fill:#000000;fill-opacity:1;stroke:#000000;stroke-width:1;stroke-linecap:butt;stroke-linejoin:miter;stroke-miterlimit:4;stroke-dasharray:none;stroke-opacity:1"
     d="m 173.53591,218.70018 -1.71098,10.66425 -3.9409,-10.02797 2.77007,-0.32217 z"
     id="path14359-1-7-5-3-0-73-4-0-5"
     inkscape:connector-curvature="0"
     sodipodi:nodetypes="ccccc" />
  <path
     style="fill:#000000;fill-opacity:1;stroke:#000000;stroke-width:1;stroke-linecap:butt;stroke-linejoin:miter;stroke-miterlimit:4;stroke-dasharray:none;stroke-opacity:1"
     d="m 257.63789,47.689852 6.12556,8.895585 -9.77464,-4.532914 1.78134,-2.145677 z"
     id="path14359-1-7-5-3-0-73-4-0-9"
     inkscape:connector-curvature="0"
     sodipodi:nodetypes="ccccc" />
  <path
     style="fill:none;fill-rule:evenodd;stroke:#000000;stroke-width:1px;stroke-linecap:butt;stroke-linejoin:miter;stroke-opacity:1"
     d="m 202.57675,25.523474 24.14655,0.01756 29.04123,24.36091"
     id="path8331-0-6-83"
     inkscape:connector-curvature="0"
     sodipodi:nodetypes="ccc" />
  <path
     style="fill:#000000;fill-opacity:1;stroke:#000000;stroke-width:1;stroke-linecap:butt;stroke-linejoin:miter;stroke-miterlimit:4;stroke-dasharray:none;stroke-opacity:1"
     d="m 310.13784,203.4903 -10.40757,-2.88724 10.40427,-2.80035 0.0112,2.78873 z"
     id="path14359-1-7-5-3-0-73-4-0-68"
     inkscape:connector-curvature="0"
     sodipodi:nodetypes="ccccc" />
  <path
     style="fill:none;fill-rule:evenodd;stroke:#000000;stroke-width:1px;stroke-linecap:butt;stroke-linejoin:miter;stroke-opacity:1"
     d="m 356.09998,200.58022 -45.94611,0.0114"
     id="path8331-0-6-2"
     inkscape:connector-curvature="0"
     sodipodi:nodetypes="cc" />
  <text
     xml:space="preserve"
     style="font-style:normal;font-variant:normal;font-weight:normal;font-stretch:normal;font-size:12.5px;line-height:139.99999762%;font-family:Arial;-inkscape-font-specification:Arial;text-align:start;letter-spacing:0.69999999px;word-spacing:0px;text-anchor:start;fill:#000000;fill-opacity:1;stroke:none;stroke-width:1px;stroke-linecap:butt;stroke-linejoin:miter;stroke-opacity:1"
     x="358.49146"
     y="196.27824"
     id="text12223"
     sodipodi:linespacing="140%"><tspan
       sodipodi:role="line"
       id="tspan12225"
       x="358.49146"
       y="196.27824">RESTRAINING</tspan><tspan
       sodipodi:role="line"
       x="358.49146"
       y="213.77824"
       id="tspan12227">CABLE</tspan></text>
  <text
     xml:space="preserve"
     style="font-style:normal;font-variant:normal;font-weight:normal;font-stretch:normal;font-size:12.5px;line-height:139.99999762%;font-family:Arial;-inkscape-font-specification:Arial;text-align:start;letter-spacing:0.69999999px;word-spacing:0px;text-anchor:start;fill:#000000;fill-opacity:1;stroke:none;stroke-width:1px;stroke-linecap:butt;stroke-linejoin:miter;stroke-opacity:1"
     x="53.252686"
     y="203.58076"
     id="text12223-3-8-5-0"
     sodipodi:linespacing="140%"><tspan
       sodipodi:role="line"
       id="tspan12290-9"
       x="53.252686"
       y="203.58076">25ยบ-40ยบ</tspan></text>
  <text
     xml:space="preserve"
     style="font-style:normal;font-variant:normal;font-weight:normal;font-stretch:normal;font-size:12.5px;line-height:139.99999762%;font-family:Arial;-inkscape-font-specification:Arial;text-align:start;letter-spacing:0.69999999px;word-spacing:0px;text-anchor:start;fill:#000000;fill-opacity:1;stroke:none;stroke-width:1px;stroke-linecap:butt;stroke-linejoin:miter;stroke-opacity:1"
     x="437.06619"
     y="40.834335"
     id="text12223-05"
     sodipodi:linespacing="140%"><tspan
       sodipodi:role="line"
       x="437.06619"
       y="40.834335"
       id="tspan12227-9">H</tspan></text>
  <text
     xml:space="preserve"
     style="font-style:normal;font-variant:normal;font-weight:normal;font-stretch:normal;font-size:12.5px;line-height:133.00000429%;font-family:Arial;-inkscape-font-specification:Arial;text-align:start;letter-spacing:0.69999999px;word-spacing:0px;text-anchor:start;fill:#000000;fill-opacity:1;stroke:none;stroke-width:1px;stroke-linecap:butt;stroke-linejoin:miter;stroke-opacity:1"
     x="199.45718"
     y="287.0632"
     id="text12223-2"
     sodipodi:linespacing="133%"><tspan
       sodipodi:role="line"
       x="199.45718"
       y="287.0632"
       id="tspan12357">BEAM CLAMPED AGAINST SIDES OF FRONT</tspan><tspan
       sodipodi:role="line"
       x="199.45718"
       y="303.6882"
       id="tspan30405">AND REAR WHEELS AND AGAINST PROP</tspan></text>
  <text
     xml:space="preserve"
     style="font-style:normal;font-variant:normal;font-weight:normal;font-stretch:normal;font-size:20px;line-height:139.99999762%;font-family:Arial;-inkscape-font-specification:Arial;text-align:start;letter-spacing:-1.29999995px;word-spacing:0px;text-anchor:start;fill:#000000;fill-opacity:1;stroke:none;stroke-width:1px;stroke-linecap:butt;stroke-linejoin:miter;stroke-opacity:1"
     x="68.837799"
     y="347.82889"
     id="text12223-5"
     sodipodi:linespacing="140%"><tspan
       sodipodi:role="line"
       x="68.837799"
       y="347.82889"
       id="tspan12227-5">FIGURE C-9 - SIDE IMPACT APPLICATION.</tspan></text>
  <text
     xml:space="preserve"
     style="font-style:normal;font-variant:normal;font-weight:normal;font-stretch:normal;font-size:12.5px;line-height:139.99999762%;font-family:Arial;-inkscape-font-specification:Arial;text-align:end;letter-spacing:0.69999999px;word-spacing:0px;text-anchor:end;fill:#000000;fill-opacity:1;stroke:none;stroke-width:1px;stroke-linecap:butt;stroke-linejoin:miter;stroke-opacity:1;"
     x="198.40916"
     y="12.35978"
     id="text12223-6"
     sodipodi:linespacing="140%"><tspan
       sodipodi:role="line"
       x="199.10916"
       y="12.35978"
       id="tspan12227-51">SRP</tspan><tspan
       sodipodi:role="line"
       x="199.10916"
       y="29.859781"
       id="tspan30430">LONGITUDINAL</tspan><tspan
       sodipodi:role="line"
       x="199.10916"
       y="47.359779"
       id="tspan30432">CENTERLINE</tspan></text>
  <text
     xml:space="preserve"
     style="font-style:normal;font-variant:normal;font-weight:normal;font-stretch:normal;font-size:12.5px;line-height:132%;font-family:Arial;-inkscape-font-specification:Arial;text-align:end;letter-spacing:0.69999999px;word-spacing:0px;text-anchor:end;fill:#000000;fill-opacity:1;stroke:none;stroke-width:1px;stroke-linecap:butt;stroke-linejoin:miter;stroke-opacity:1;"
     x="123.77394"
     y="97.407959"
     id="text12223-6-5"
     sodipodi:linespacing="132%"><tspan
       sodipodi:role="line"
       x="124.47394"
       y="97.407959"
       id="tspan30432-4">PROP WEDGED</tspan><tspan
       sodipodi:role="line"
       x="124.47394"
       y="114.90796"
       id="tspan30463">AGAINST WHEEL</tspan><tspan
       sodipodi:role="line"
       x="124.47394"
       y="132.40796"
       id="tspan30465">RIM AFTER</tspan><tspan
       sodipodi:role="line"
       x="124.47394"
       y="149.90796"
       id="tspan30467">ANCHORING</tspan></text>
</svg>
