<?xml version="1.0" encoding="UTF-8" standalone="no"?>
<!-- Created with Inkscape (http://www.inkscape.org/) -->

<svg
   xmlns:dc="http://purl.org/dc/elements/1.1/"
   xmlns:cc="http://creativecommons.org/ns#"
   xmlns:rdf="http://www.w3.org/1999/02/22-rdf-syntax-ns#"
   xmlns:svg="http://www.w3.org/2000/svg"
   xmlns="http://www.w3.org/2000/svg"
   xmlns:sodipodi="http://sodipodi.sourceforge.net/DTD/sodipodi-0.dtd"
   xmlns:inkscape="http://www.inkscape.org/namespaces/inkscape"
   id="svg14465"
   version="1.1"
   inkscape:version="0.92.2 5c3e80d, 2017-08-06"
   width="646.40002"
   height="584.96002"
   viewBox="0 0 606 548.40002"
   sodipodi:docname="er26ja95.003.svg">
  <metadata
     id="metadata14471">
    <rdf:RDF>
      <cc:Work
         rdf:about="">
        <dc:format>image/svg+xml</dc:format>
        <dc:type
           rdf:resource="http://purl.org/dc/dcmitype/StillImage" />
        <dc:title></dc:title>
      </cc:Work>
    </rdf:RDF>
  </metadata>
  <defs
     id="defs14469" />
  <sodipodi:namedview
     pagecolor="#ffffff"
     bordercolor="#666666"
     borderopacity="1"
     objecttolerance="10"
     gridtolerance="10"
     guidetolerance="10"
     inkscape:pageopacity="0"
     inkscape:pageshadow="2"
     inkscape:window-width="1280"
     inkscape:window-height="756"
     id="namedview14467"
     showgrid="false"
     inkscape:zoom="0.8561269"
     inkscape:cx="189.11501"
     inkscape:cy="274.20001"
     inkscape:window-x="6"
     inkscape:window-y="23"
     inkscape:window-maximized="0"
     inkscape:current-layer="svg14465" />
  <path
     style="color:#000000;display:inline;overflow:visible;visibility:visible;fill:none;fill-rule:evenodd;stroke:#000000;stroke-width:2;stroke-linecap:round;stroke-linejoin:round;stroke-miterlimit:4;stroke-dasharray:none;stroke-dashoffset:0;stroke-opacity:1;marker:none;enable-background:accumulate"
     d="M 199.09878,460.78635 V 109.73329 c 0,-5.07516 4.11423,-9.18938 9.18939,-9.18938 h 89.45869 c 5.07515,0 9.18938,4.11423 9.18938,9.18938 v 351.05306 m 0,-71.10819 H 199.09878"
     id="path15030"
     inkscape:connector-curvature="0"
     sodipodi:nodetypes="cssssccc" />
  <path
     style="fill:none;stroke:#000000;stroke-width:2;stroke-linecap:round;stroke-linejoin:round;stroke-miterlimit:4;stroke-dasharray:none;stroke-opacity:1"
     d="m 270.87035,389.57045 -1.1e-4,-72.14738 h 17.85185 l -0.002,71.66468"
     id="path14359-1-7-5-3-0-73-1-9"
     inkscape:connector-curvature="0"
     sodipodi:nodetypes="cccc"
     inkscape:transform-center-x="0.03366111"
     inkscape:transform-center-y="-0.1641457" />
  <path
     style="fill:none;stroke:#000000;stroke-width:6;stroke-linecap:butt;stroke-linejoin:round;stroke-miterlimit:4;stroke-dasharray:none;stroke-opacity:1"
     d="m 263.78945,148.91959 c -3.88954,-1.2796 -6.28693,-1.90797 -9.57426,-1.73732 -17.04475,0.88483 -16.50828,29.52269 -16.55574,47.97061 l -0.0349,13.56333 m -0.0223,8.67705 -0.31967,124.26475 m -0.0223,8.67654 -0.10097,39.25186"
     id="path14359-1-7-5-3-0-73-1-9-6"
     inkscape:connector-curvature="0"
     sodipodi:nodetypes="cssccccc"
     inkscape:transform-center-x="0.03366111"
     inkscape:transform-center-y="-0.1641457" />
  <path
     style="fill:none;stroke:#000000;stroke-width:2;stroke-linecap:round;stroke-linejoin:round;stroke-miterlimit:4;stroke-dasharray:none;stroke-opacity:1"
     d="m 254.01582,342.19824 -0.002,8.09416 h -35.90316 l 0.002,-8.09416 z"
     id="path14359-1-7-5-3-0-73-1-9-9"
     inkscape:connector-curvature="0"
     sodipodi:nodetypes="ccccc"
     inkscape:transform-center-x="0.03366111"
     inkscape:transform-center-y="-0.1641457" />
  <path
     style="fill:none;stroke:#000000;stroke-width:2;stroke-linecap:round;stroke-linejoin:round;stroke-miterlimit:4;stroke-dasharray:none;stroke-opacity:1"
     d="m 238.45779,340.40308 -0.002,13.37991 3.09165,-1.2965 0.002,-12.08341 z"
     id="path14359-1-7-5-3-0-73-1-9-0"
     inkscape:connector-curvature="0"
     sodipodi:nodetypes="ccccc"
     inkscape:transform-center-x="0.03366111"
     inkscape:transform-center-y="-0.1641457" />
  <path
     style="fill:none;stroke:#000000;stroke-width:2;stroke-linecap:round;stroke-linejoin:round;stroke-miterlimit:4;stroke-dasharray:none;stroke-opacity:1"
     d="m 235.66481,317.32333 h -18.94888 l -0.002,72.26308"
     id="path14359-1-7-5-3-0-73-1-9-4"
     inkscape:connector-curvature="0"
     sodipodi:nodetypes="ccc"
     inkscape:transform-center-x="0.03366111"
     inkscape:transform-center-y="-0.1641457" />
  <path
     style="fill:none;stroke:#000000;stroke-width:2;stroke-linecap:round;stroke-linejoin:round;stroke-miterlimit:4;stroke-dasharray:none;stroke-opacity:1"
     d="m 218.01293,209.25684 -0.002,8.59282 h 35.80342 l 0.002,-8.59282 z"
     id="path14359-1-7-5-3-0-73-1-9-65"
     inkscape:connector-curvature="0"
     sodipodi:nodetypes="ccccc"
     inkscape:transform-center-x="0.03366111"
     inkscape:transform-center-y="-0.1641457" />
  <path
     style="fill:none;stroke:#000000;stroke-width:2;stroke-linecap:round;stroke-linejoin:round;stroke-miterlimit:4;stroke-dasharray:none;stroke-opacity:1"
     d="m 242.74421,220.2432 0.002,-13.28018 -2.99193,-0.69811 -0.002,13.97829 z"
     id="path14359-1-7-5-3-0-73-1-9-2"
     inkscape:connector-curvature="0"
     sodipodi:nodetypes="ccccc"
     inkscape:transform-center-x="0.03366111"
     inkscape:transform-center-y="-0.1641457" />
  <path
     style="fill:none;stroke:#000000;stroke-width:2;stroke-linecap:round;stroke-linejoin:round;stroke-miterlimit:4;stroke-dasharray:none;stroke-opacity:1"
     d="m 288.7222,317.2655 c 0.15328,-28.31738 0.0918,-57.16991 0.0498,-86.30913 -0.0299,-20.76776 -0.1144,-47.01141 -0.47304,-62.52575 -0.31859,-13.78167 -10.31769,-30.7515 -16.11201,-36.72393 -3.99754,-4.1204 -16.18491,-9.00983 -22.32876,-8.69167 -12.08804,0.62596 -20.47185,7.16991 -25.34392,16.79445 -5.45917,10.78432 -7.15525,27.0114 -7.19959,41.97946 l -0.4008,135.29306"
     id="path14359-1-7-5-3-0-73-1-9-3"
     inkscape:connector-curvature="0"
     sodipodi:nodetypes="cssssssc"
     inkscape:transform-center-x="0.03366111"
     inkscape:transform-center-y="-0.1641457" />
  <path
     style="fill:none;stroke:#000000;stroke-width:2;stroke-linecap:butt;stroke-linejoin:round;stroke-miterlimit:4;stroke-dasharray:none;stroke-opacity:1"
     d="m 262.49295,148.91959 c 3.21122,1.05121 5.96139,1.17901 6.77709,2.2545 1.09327,1.44146 2.04788,3.91036 2.38855,7.27375 m 1.04991,9.07666 c 0.86181,49.36632 1.51973,100.72282 1.8499,149.55749"
     id="path14359-1-7-5-3-0-73-1-9-40"
     inkscape:connector-curvature="0"
     sodipodi:nodetypes="csccc"
     inkscape:transform-center-x="0.03366111"
     inkscape:transform-center-y="-0.1641457" />
  <path
     style="color:#000000;display:inline;overflow:visible;visibility:visible;fill:none;fill-rule:evenodd;stroke:#000000;stroke-width:3;stroke-linecap:round;stroke-linejoin:round;stroke-miterlimit:4;stroke-dasharray:none;stroke-dashoffset:0;stroke-opacity:1;marker:none;enable-background:accumulate"
     d="m 275.44313,163.1891 a 4.4241736,4.4241736 0 0 1 -4.42417,4.42418 4.4241736,4.4241736 0 0 1 -4.42418,-4.42418 4.4241736,4.4241736 0 0 1 4.42418,-4.42417 4.4241736,4.4241736 0 0 1 4.42417,4.42417 z"
     id="path15139"
     inkscape:connector-curvature="0" />
  <path
     style="fill:none;stroke:#000000;stroke-width:2;stroke-linecap:butt;stroke-linejoin:round;stroke-miterlimit:4;stroke-dasharray:none;stroke-opacity:1"
     d="m 261.6951,150.21609 c 2.35638,0.76767 5.10034,2.39276 6.25106,3.67596 1.24282,1.38591 1.90683,3.07102 2.26073,5.05212 m 0.39865,8.3844 c -0.0659,50.17102 0.0754,100.13492 0.26281,150.05261"
     id="path14359-1-7-5-3-0-73-1-9-7"
     inkscape:connector-curvature="0"
     sodipodi:nodetypes="csccc"
     inkscape:transform-center-x="0.03366111"
     inkscape:transform-center-y="-0.1641457" />
  <path
     style="color:#000000;display:inline;overflow:visible;visibility:visible;fill:none;fill-rule:evenodd;stroke:#000000;stroke-width:3;stroke-linecap:round;stroke-linejoin:round;stroke-miterlimit:4;stroke-dasharray:none;stroke-dashoffset:0;stroke-opacity:1;marker:none;enable-background:accumulate"
     d="m 290.25317,186.07736 a 4.4241736,4.4241736 0 0 1 -4.42417,4.42418 4.4241736,4.4241736 0 0 1 -4.42418,-4.42418 4.4241736,4.4241736 0 0 1 4.42418,-4.42417 4.4241736,4.4241736 0 0 1 4.42417,4.42417 z"
     id="path15139-4"
     inkscape:connector-curvature="0" />
  <path
     style="fill:none;stroke:#000000;stroke-width:2;stroke-linecap:butt;stroke-linejoin:round;stroke-miterlimit:4;stroke-dasharray:none;stroke-opacity:1"
     d="m 222.40109,317.36522 c -0.15062,-33.72017 -0.12622,-66.51293 -0.35913,-99.47396 m -0.0663,-8.57636 c -0.0367,-4.33945 -0.15542,-8.67871 -0.12623,-13.01827 0.12069,-17.94298 0.0993,-32.649 7.01255,-49.38091 3.52686,-8.53594 8.54442,-11.94044 15.07936,-13.89719 9.88837,-2.96087 18.35973,-0.73173 21.65529,2.91759 8.92228,9.88003 10.30954,25.83072 10.4469,39.67158 l 1.40703,141.77348"
     id="path14359-1-7-5-3-0-73-1-9-40-5"
     inkscape:connector-curvature="0"
     sodipodi:nodetypes="cccsssssc"
     inkscape:transform-center-x="0.03366111"
     inkscape:transform-center-y="-0.1641457" />
  <path
     style="fill:none;stroke:#000000;stroke-width:2;stroke-linecap:butt;stroke-linejoin:round;stroke-miterlimit:4;stroke-dasharray:none;stroke-opacity:1"
     d="m 224.09652,317.36522 c 0.49695,-17.24609 0.63267,-35.06114 0.627,-53.09884 -0.005,-15.33479 0.18739,-30.93024 0.11332,-46.37409 m -0.0875,-8.67952 c -0.11565,-8.21647 -0.3817,-16.38117 -0.26973,-24.54021 0.0736,-5.36428 0.48268,-10.63618 1.11645,-15.66476 0.6324,-5.01775 3.1305,-13.76254 3.90875,-15.06537 1.08787,-1.82118 6.2789,-12.15634 7.42107,-13.09978 1.27903,-1.05648 6.48189,-5.10929 8.31241,-5.58534 1.82757,-0.47528 10.57957,-0.64849 12.06607,-0.22653 2.113,0.5998 9.02025,3.15163 13.66994,4.86702 1.81628,0.67007 7.48571,4.19445 8.33279,5.74156 3.81131,6.96096 6.90636,21.67933 7.36366,35.64801 m -0.3444,9.77586 c 0.17858,25.89121 0.96362,50.88541 1.01057,77.09253 0.0285,15.91084 -1.26478,31.72278 -0.41188,48.92623"
     id="path14359-1-7-5-3-0-73-1-9-40-51"
     inkscape:connector-curvature="0"
     sodipodi:nodetypes="csccssssssssccsc"
     inkscape:transform-center-x="0.03366111"
     inkscape:transform-center-y="-0.1641457" />
  <path
     style="fill:none;stroke:#000000;stroke-width:2;stroke-linecap:butt;stroke-linejoin:round;stroke-miterlimit:4;stroke-dasharray:none;stroke-opacity:1"
     d="m 271.96739,158.89269 c -1.18563,-10.10155 -7.68346,-15.56112 -17.95952,-16.20365 -6.98063,-0.43647 -12.06659,1.6831 -15.04098,9.95099 -2.54388,7.0712 -4.10883,15.45104 -4.48361,24.53756 -0.51735,12.54308 -1.11311,24.91586 -1.19194,31.93786 m -0.0985,8.7741 c -0.37316,33.23037 -1.11979,99.6911 -1.11979,99.6911"
     id="path14359-1-7-5-3-0-73-1-9-40-9"
     inkscape:connector-curvature="0"
     sodipodi:nodetypes="csssccc"
     inkscape:transform-center-x="0.03366111"
     inkscape:transform-center-y="-0.1641457" />
  <path
     style="fill:none;stroke:#000000;stroke-width:2;stroke-linecap:butt;stroke-linejoin:round;stroke-miterlimit:4;stroke-dasharray:none;stroke-opacity:1"
     d="m 229.28253,317.16576 c -0.14029,-6.39663 -0.20484,-12.79325 -0.21551,-19.18988 -0.008,-4.62088 0.87799,-9.24166 0.85084,-13.86263 -0.12934,-22.00953 0.14208,-44.63889 0.24449,-66.51251 m 0.15697,-8.68079 c 0.28053,-4.48318 0.33207,-18.34267 0.88091,-20.44304 4.28015,-16.3798 5.09981,-35.11067 10.99659,-41.90104 3.58387,-4.12696 8.97189,-6.99382 12.95198,-6.8064 11.96019,0.56321 17.02158,10.09883 17.51471,18.44106"
     id="path14359-1-7-5-3-0-73-1-9-40-6"
     inkscape:connector-curvature="0"
     sodipodi:nodetypes="cssccsssc"
     inkscape:transform-center-x="0.03366111"
     inkscape:transform-center-y="-0.1641457" />
  <path
     style="fill:none;stroke:#000000;stroke-width:2;stroke-linecap:butt;stroke-linejoin:round;stroke-miterlimit:4;stroke-dasharray:none;stroke-opacity:1"
     d="m 225.69222,316.9663 c -0.0921,-1.96122 1.12129,-5.13281 1.07945,-8.7166 -0.33689,-28.85676 0.13225,-61.69458 0.27592,-90.36998 m -0.34514,-8.86527 c -0.24192,-6.21367 -1.64516,-13.97691 -1.5516,-16.6443 0.19282,-5.49735 2.81752,-20.28075 5.39494,-29.95912 1.78125,-6.6887 4.53187,-14.01239 8.40499,-18.51003 3.63845,-4.22512 8.75228,-6.52076 14.84545,-6.40417 4.90992,0.0939 9.21131,0.23532 12.21434,1.94753 4.33829,2.47351 7.19111,6.51736 8.94951,10.72911 3.66098,8.7688 3.59385,16.08165 3.68829,26.62891 0.13158,14.69454 0.66805,29.68798 0.80401,44.38208 0.29762,32.16556 0.1887,64.0312 0.39176,96.19672"
     id="path14359-1-7-5-3-0-73-1-9-40-55"
     inkscape:connector-curvature="0"
     sodipodi:nodetypes="csccssssssssc"
     inkscape:transform-center-x="0.03366111"
     inkscape:transform-center-y="-0.1641457" />
  <path
     style="fill:none;stroke:#000000;stroke-width:2;stroke-linecap:butt;stroke-linejoin:round;stroke-miterlimit:4;stroke-dasharray:none;stroke-opacity:1"
     d="m 284.83269,317.46495 c -0.10696,-33.23046 -1.78705,-64.81826 -2.37882,-98.27723 -0.17091,-9.66344 -1.47903,-17.9018 -1.56555,-28.22246 -0.0374,-4.45932 0.44024,-9.09107 0.70679,-13.51127 0.31001,-5.14094 -3.40724,-28.08656 -6.61737,-32.94859 -3.75975,-5.69447 -9.39515,-5.54118 -15.70902,-5.38311 -15.37149,0.38484 -19.57037,10.009 -24.39095,20.90738 -4.1877,9.46756 -6.74433,21.11583 -6.64651,32.83041 l -0.41026,16.25777 m 0.1074,8.77439 c -0.1555,19.83306 -0.28016,39.63926 -0.31564,59.23974 -0.0244,13.46635 -0.007,26.83559 0.0721,40.04974"
     id="path14359-1-7-5-3-0-73-1-9-40-90"
     inkscape:connector-curvature="0"
     sodipodi:nodetypes="csssssscccsc"
     inkscape:transform-center-x="0.03366111"
     inkscape:transform-center-y="-0.1641457" />
  <path
     style="fill:none;stroke:#000000;stroke-width:2;stroke-linecap:butt;stroke-linejoin:round;stroke-miterlimit:4;stroke-dasharray:none;stroke-opacity:1"
     d="m 282.13996,317.06603 -0.19293,-31.15122 c -0.10914,-17.62122 2.52446,-22.18101 2.61978,-26.33666 0.51342,-22.38364 1.51836,-45.07361 0.27689,-68.71348 m -0.98467,-9.27803 c 0.11479,-13.90549 -2.37509,-27.82834 -7.9277,-38.13506 -5.04794,-9.36994 -12.57347,-16.53887 -23.67669,-16.41377 -4.69527,0.0529 -9.00544,1.5776 -12.32133,3.05034 -4.81923,2.14043 -8.3494,5.72744 -10.89583,8.55691 -9.29169,10.32449 -9.63345,49.99608 -9.91056,70.51866 m -0.1196,8.85708 c -0.76617,14.94923 -0.27724,29.89845 -0.50943,44.84767 -0.27963,18.00469 -0.30329,36.00937 -0.38725,54.01405"
     id="path14359-1-7-5-3-0-73-1-9-40-2"
     inkscape:connector-curvature="0"
     sodipodi:nodetypes="cssccssssccsc"
     inkscape:transform-center-x="0.03366111"
     inkscape:transform-center-y="-0.1641457" />
  <path
     style="fill:none;stroke:#000000;stroke-width:2;stroke-linecap:butt;stroke-linejoin:round;stroke-miterlimit:4;stroke-dasharray:none;stroke-opacity:1"
     d="m 220.60594,171.45879 c -3.36574,16.96395 -0.3505,27.61245 -0.15217,37.55649 m 0.004,8.97602 c -1.25618,24.7962 -0.88063,43.66153 0.51382,57.2491 0.49819,4.85437 0.32063,32.1826 -0.16833,41.94132"
     id="path14359-1-7-5-3-0-73-1-9-40-3"
     inkscape:connector-curvature="0"
     sodipodi:nodetypes="cccsc"
     inkscape:transform-center-x="0.03366111"
     inkscape:transform-center-y="-0.1641457" />
  <path
     style="fill:#000000;fill-opacity:1;stroke:#000000;stroke-width:2;stroke-linecap:butt;stroke-linejoin:miter;stroke-miterlimit:4;stroke-dasharray:none;stroke-opacity:1"
     d="m 205.30746,366.86791 11.56882,-3.05835 -11.28923,-3.9593 -0.14026,3.50881 z"
     id="path14359-1-7-5-3-0-73-1-0-45"
     inkscape:connector-curvature="0"
     sodipodi:nodetypes="ccccc" />
  <path
     style="fill:none;stroke:#000000;stroke-width:2;stroke-linecap:butt;stroke-linejoin:miter;stroke-miterlimit:4;stroke-dasharray:none;stroke-opacity:1"
     d="M 111.45104,360.32264 205.44546,363.36"
     id="path14359-1-7-5-3-0-73-1-9-1"
     inkscape:connector-curvature="0"
     sodipodi:nodetypes="cc" />
  <path
     style="fill:#000000;fill-opacity:1;stroke:#000000;stroke-width:2;stroke-linecap:butt;stroke-linejoin:miter;stroke-miterlimit:4;stroke-dasharray:none;stroke-opacity:1"
     d="m 221.74023,301.88693 11.43944,-3.51147 -11.43636,-3.51175 -0.002,3.51161 z"
     id="path14359-1-7-5-3-0-73-1-0-45-8"
     inkscape:connector-curvature="0"
     sodipodi:nodetypes="ccccc" />
  <path
     style="fill:none;stroke:#000000;stroke-width:2;stroke-linecap:butt;stroke-linejoin:miter;stroke-miterlimit:4;stroke-dasharray:none;stroke-opacity:1"
     d="m 137.27078,298.3595 84.46923,0.0168"
     id="path14359-1-7-5-3-0-73-1-9-1-0"
     inkscape:connector-curvature="0"
     sodipodi:nodetypes="cc" />
  <path
     style="fill:#000000;fill-opacity:1;stroke:#000000;stroke-width:2;stroke-linecap:butt;stroke-linejoin:miter;stroke-miterlimit:4;stroke-dasharray:none;stroke-opacity:1"
     d="m 205.99456,217.03857 11.5986,-2.94342 -11.24939,-4.07111 -0.17507,3.50724 z"
     id="path14359-1-7-5-3-0-73-1-0-45-2"
     inkscape:connector-curvature="0"
     sodipodi:nodetypes="ccccc" />
  <path
     style="fill:none;stroke:#000000;stroke-width:2;stroke-linecap:butt;stroke-linejoin:miter;stroke-miterlimit:4;stroke-dasharray:none;stroke-opacity:1"
     d="m 130.15724,209.67872 76.01012,3.85348"
     id="path14359-1-7-5-3-0-73-1-9-1-7"
     inkscape:connector-curvature="0"
     sodipodi:nodetypes="cc" />
  <path
     style="fill:#000000;fill-opacity:1;stroke:#000000;stroke-width:2;stroke-linecap:butt;stroke-linejoin:miter;stroke-miterlimit:4;stroke-dasharray:none;stroke-opacity:1"
     d="m 303.6976,184.41044 -11.95123,-0.6084 10.23042,-6.20074 0.86068,3.4045 z"
     id="path14359-1-7-5-3-0-73-1-8"
     inkscape:connector-curvature="0"
     sodipodi:nodetypes="ccccc" />
  <path
     style="fill:none;stroke:#000000;stroke-width:2;stroke-linecap:butt;stroke-linejoin:miter;stroke-miterlimit:4;stroke-dasharray:none;stroke-opacity:1"
     d="m 302.85151,181.00123 36.60952,-9.65306 13.06648,-0.0971"
     id="path14359-1-7-5-3-0-73-1-9-1-6"
     inkscape:connector-curvature="0"
     sodipodi:nodetypes="ccc" />
  <path
     style="fill:#000000;fill-opacity:1;stroke:#000000;stroke-width:2;stroke-linecap:butt;stroke-linejoin:miter;stroke-miterlimit:4;stroke-dasharray:none;stroke-opacity:1"
     d="m 299.05867,265.24214 -8.43342,-8.48996 11.74083,2.29427 -1.65345,3.09798 z"
     id="path14359-1-7-5-3-0-73-1-8-2"
     inkscape:connector-curvature="0"
     sodipodi:nodetypes="ccccc" />
  <path
     style="fill:none;stroke:#000000;stroke-width:2;stroke-linecap:butt;stroke-linejoin:miter;stroke-miterlimit:4;stroke-dasharray:none;stroke-opacity:1"
     d="m 300.72609,262.15049 38.11034,20.78884 h 13.27386"
     id="path14359-1-7-5-3-0-73-1-9-1-2"
     inkscape:connector-curvature="0"
     sodipodi:nodetypes="ccc" />
  <path
     style="fill:#000000;fill-opacity:1;stroke:#000000;stroke-width:2;stroke-linecap:butt;stroke-linejoin:miter;stroke-miterlimit:4;stroke-dasharray:none;stroke-opacity:1"
     d="m 321.39376,353.46889 -11.29904,-3.94129 11.56038,-3.07706 -0.13039,3.50919 z"
     id="path14359-1-7-5-3-0-73-1-8-0"
     inkscape:connector-curvature="0"
     sodipodi:nodetypes="ccccc" />
  <path
     style="fill:none;stroke:#000000;stroke-width:2;stroke-linecap:butt;stroke-linejoin:miter;stroke-miterlimit:4;stroke-dasharray:none;stroke-opacity:1"
     d="m 321.53947,349.95929 23.16142,0.83651"
     id="path14359-1-7-5-3-0-73-1-9-1-5"
     inkscape:connector-curvature="0"
     sodipodi:nodetypes="cc" />
  <text
     xml:space="preserve"
     style="font-style:normal;font-variant:normal;font-weight:normal;font-stretch:normal;line-height:0%;font-family:Arial;-inkscape-font-specification:Arial;text-align:start;letter-spacing:0.89999998px;word-spacing:4.96000004px;text-anchor:start;fill:#000000;fill-opacity:1;stroke:none;stroke-width:1px;stroke-linecap:butt;stroke-linejoin:miter;stroke-opacity:1"
     x="365.9881"
     y="287.71906"
     id="text15330"><tspan
       sodipodi:role="line"
       id="tspan15332"
       x="365.9881"
       y="287.71906"
       style="font-size:18.75px;line-height:1.29999995">Cable Sheath Removed</tspan></text>
  <text
     xml:space="preserve"
     style="font-style:normal;font-variant:normal;font-weight:normal;font-stretch:normal;line-height:0%;font-family:Arial;-inkscape-font-specification:Arial;text-align:start;letter-spacing:0.89999998px;word-spacing:4.96000004px;text-anchor:start;fill:#000000;fill-opacity:1;stroke:none;stroke-width:1px;stroke-linecap:butt;stroke-linejoin:miter;stroke-opacity:1"
     x="366.68774"
     y="357.6326"
     id="text15330-3"><tspan
       sodipodi:role="line"
       id="tspan15332-0"
       x="366.68774"
       y="357.6326"
       style="font-size:18.75px;line-height:1.29999995">Pedestal</tspan></text>
  <text
     xml:space="preserve"
     style="font-style:normal;font-variant:normal;font-weight:normal;font-stretch:normal;line-height:0%;font-family:Arial;-inkscape-font-specification:Arial;text-align:start;letter-spacing:0.89999998px;word-spacing:4.96000004px;text-anchor:start;fill:#000000;fill-opacity:1;stroke:none;stroke-width:1px;stroke-linecap:butt;stroke-linejoin:miter;stroke-opacity:1"
     x="366.80878"
     y="177.34276"
     id="text15330-3-7"><tspan
       sodipodi:role="line"
       id="tspan15332-0-7"
       x="366.80878"
       y="177.34276"
       style="font-size:18.75px;line-height:1.17999995">Wire Connectors for</tspan><tspan
       sodipodi:role="line"
       x="366.80878"
       y="199.46776"
       id="tspan15380"
       style="font-size:18.75px;line-height:1.17999995">Splicing Drop</tspan></text>
  <text
     xml:space="preserve"
     style="font-style:normal;font-variant:normal;font-weight:normal;font-stretch:normal;line-height:0%;font-family:Arial;-inkscape-font-specification:Arial;text-align:start;letter-spacing:0.89999998px;word-spacing:4.96000004px;text-anchor:start;fill:#000000;fill-opacity:1;stroke:none;stroke-width:1px;stroke-linecap:butt;stroke-linejoin:miter;stroke-opacity:1"
     x="14.299505"
     y="208.10139"
     id="text15330-3-7-5"><tspan
       sodipodi:role="line"
       x="14.299505"
       y="208.10139"
       id="tspan15380-9"
       style="font-size:18.75px;line-height:1.17999995">Plastic Tie</tspan><tspan
       sodipodi:role="line"
       x="14.299505"
       y="230.22639"
       id="tspan15436"
       style="font-size:18.75px;line-height:1.17999995">Wraps</tspan></text>
  <text
     xml:space="preserve"
     style="font-style:normal;font-variant:normal;font-weight:normal;font-stretch:normal;line-height:0%;font-family:Arial;-inkscape-font-specification:Arial;text-align:start;letter-spacing:0.89999998px;word-spacing:4.96000004px;text-anchor:start;fill:#000000;fill-opacity:1;stroke:none;stroke-width:1px;stroke-linecap:butt;stroke-linejoin:miter;stroke-opacity:1"
     x="4.8441744"
     y="304.23059"
     id="text15330-3-7-2"><tspan
       sodipodi:role="line"
       x="4.8441744"
       y="304.23059"
       id="tspan15380-0"
       style="font-size:18.75px;line-height:1.17999995">Service Wire</tspan></text>
  <text
     xml:space="preserve"
     style="font-style:normal;font-variant:normal;font-weight:normal;font-stretch:normal;line-height:0%;font-family:Arial;-inkscape-font-specification:Arial;text-align:start;letter-spacing:0.89999998px;word-spacing:4.96000004px;text-anchor:start;fill:#000000;fill-opacity:1;stroke:none;stroke-width:1px;stroke-linecap:butt;stroke-linejoin:miter;stroke-opacity:1"
     x="47.393169"
     y="362.22333"
     id="text15330-3-7-6"><tspan
       sodipodi:role="line"
       x="47.393169"
       y="362.22333"
       id="tspan15380-09"
       style="font-size:18.75px;line-height:1.17999995">Cable</tspan></text>
  <text
     xml:space="preserve"
     style="font-style:normal;font-variant:normal;font-weight:normal;font-stretch:normal;line-height:0%;font-family:Arial;-inkscape-font-specification:Arial;text-align:start;letter-spacing:1.15999997px;word-spacing:4.96000004px;text-anchor:start;fill:#000000;fill-opacity:1;stroke:none;stroke-width:1px;stroke-linecap:butt;stroke-linejoin:miter;stroke-opacity:1"
     x="68.261162"
     y="516.57507"
     id="text15330-3-7-1"><tspan
       sodipodi:role="line"
       x="68.261162"
       y="516.57507"
       id="tspan15380-97"
       style="font-size:18.75px;line-height:1.17999995">See Figures 13 through 16 for cable tags, tie wraps,</tspan><tspan
       sodipodi:role="line"
       x="68.261162"
       y="538.70007"
       id="tspan15454"
       style="font-size:18.75px;line-height:1.17999995">and bonding and grounding details.</tspan></text>
  <text
     xml:space="preserve"
     style="font-style:normal;font-variant:normal;font-weight:normal;font-stretch:normal;line-height:0%;font-family:Arial;-inkscape-font-specification:Arial;text-align:center;letter-spacing:-0.51999998px;word-spacing:5.97000122px;text-anchor:middle;fill:#000000;fill-opacity:1;stroke:none;stroke-width:1px;stroke-linecap:butt;stroke-linejoin:miter;stroke-opacity:1"
     x="304.08514"
     y="20.479666"
     id="text15456"><tspan
       sodipodi:role="line"
       id="tspan15458"
       x="303.82513"
       y="20.479666"
       style="font-size:18.75px;line-height:1.53999996">FIGURE 2</tspan><tspan
       sodipodi:role="line"
       x="303.82513"
       y="49.354664"
       id="tspan15460"
       style="font-size:18.75px;line-height:1.53999996">SERVICE WIRE CONNECTION TO BURIED CABLE</tspan></text>
  <text
     xml:space="preserve"
     style="font-style:normal;font-variant:normal;font-weight:normal;font-stretch:normal;line-height:0%;font-family:Arial;-inkscape-font-specification:Arial;text-align:start;letter-spacing:1.15999997px;word-spacing:4.96000004px;text-anchor:start;fill:#000000;fill-opacity:1;stroke:none;stroke-width:1px;stroke-linecap:butt;stroke-linejoin:miter;stroke-opacity:1"
     x="3.5989223"
     y="516.49274"
     id="text15330-3-7-1-0"><tspan
       sodipodi:role="line"
       x="3.5989223"
       y="516.49274"
       id="tspan15454-9"
       style="font-size:18.75px;line-height:1.17999995">Note:</tspan></text>
</svg>
