<?xml version="1.0" encoding="UTF-8" standalone="no"?>
<!-- Created with Inkscape (http://www.inkscape.org/) -->

<svg
   xmlns:dc="http://purl.org/dc/elements/1.1/"
   xmlns:cc="http://creativecommons.org/ns#"
   xmlns:rdf="http://www.w3.org/1999/02/22-rdf-syntax-ns#"
   xmlns:svg="http://www.w3.org/2000/svg"
   xmlns="http://www.w3.org/2000/svg"
   xmlns:sodipodi="http://sodipodi.sourceforge.net/DTD/sodipodi-0.dtd"
   xmlns:inkscape="http://www.inkscape.org/namespaces/inkscape"
   id="svg11183"
   version="1.1"
   inkscape:version="0.91 r13725"
   width="428"
   height="592"
   viewBox="0 0 428 592"
   sodipodi:docname="er27fe12.004.svg">
  <title id="title_er27fe12.004"></title>
  <desc id="desc_er27fe12.004"></desc>
  <metadata
     id="metadata11189">
    <rdf:RDF>
      <cc:Work
         rdf:about="">
        <dc:format>image/svg+xml</dc:format>
        <dc:type
           rdf:resource="http://purl.org/dc/dcmitype/StillImage" />
        <dc:title></dc:title>
      </cc:Work>
    </rdf:RDF>
  </metadata>
  <defs
     id="defs11187" />
  <sodipodi:namedview
     pagecolor="#ffffff"
     bordercolor="#666666"
     borderopacity="1"
     objecttolerance="10"
     gridtolerance="10"
     guidetolerance="10"
     inkscape:pageopacity="0"
     inkscape:pageshadow="2"
     inkscape:window-width="1280"
     inkscape:window-height="756"
     id="namedview11185"
     showgrid="false"
     inkscape:zoom="1.7621665"
     inkscape:cx="210.94954"
     inkscape:cy="430.526"
     inkscape:window-x="0"
     inkscape:window-y="0"
     inkscape:window-maximized="0"
     inkscape:current-layer="svg11183" />
  <path
     style="fill:none;stroke:#000000;stroke-width:1;stroke-linecap:butt;stroke-linejoin:miter;stroke-miterlimit:4;stroke-dasharray:none;stroke-opacity:1"
     d="m 236.64315,65.94266 -3e-4,35.31962 m -8e-5,8.51948 -8e-5,8.50749 m -9e-5,8.78868 -3.4e-4,42.16128 m -8e-5,8.01381 -7e-5,8.94447 m -8e-5,8.83661 -3.5e-4,41.4551 m -1e-4,8.72875 -5e-5,8.40607 m -9e-5,8.01381 -2.9e-4,36.59805"
     id="path14359-1-7-5-3-0-73-1-9"
     inkscape:connector-curvature="0"
     sodipodi:nodetypes="cccccccccccccc" />
  <path
     style="fill:none;stroke:#000000;stroke-width:1;stroke-linecap:round;stroke-linejoin:round;stroke-miterlimit:4;stroke-dasharray:none;stroke-opacity:1"
     d="m 258.4491,279.74007 0,9.6597 -6.63867,0 m -31.33699,0 -16.67367,0 0.002,-185.40719 c 13.4624,9.57009 23.0891,6.07247 32.67917,1.03666 8.71642,-4.57704 18.48435,-8.574295 31.90278,-3.27551 l -0.002,177.87968 -16.76797,0 m -30.6814,0 -17.07965,0"
     id="path14359-1-7-5-3-0-73-1-9-9"
     inkscape:connector-curvature="0"
     sodipodi:nodetypes="ccccccsccccc" />
  <path
     style="fill:none;stroke:#000000;stroke-width:1;stroke-linecap:round;stroke-linejoin:round;stroke-miterlimit:4;stroke-dasharray:none;stroke-opacity:1"
     d="m 268.5535,196.02593 7.74985,0 0.002,-10.00312 -7.74985,0"
     id="path14359-1-7-5-3-0-73-1-9-7"
     inkscape:connector-curvature="0"
     sodipodi:nodetypes="cccc" />
  <path
     style="fill:none;stroke:#000000;stroke-width:1;stroke-linecap:round;stroke-linejoin:round;stroke-miterlimit:4;stroke-dasharray:none;stroke-opacity:1"
     d="m 203.62712,214.24795 -8.95538,0 0.002,-43.52532 8.95537,0"
     id="path14359-1-7-5-3-0-73-1-9-7-73"
     inkscape:connector-curvature="0"
     sodipodi:nodetypes="cccc" />
  <path
     style="color:#000000;display:inline;overflow:visible;visibility:visible;fill:none;fill-rule:evenodd;stroke:#000000;stroke-width:1;stroke-linecap:butt;stroke-linejoin:miter;stroke-miterlimit:4;stroke-dasharray:none;stroke-dashoffset:0;stroke-opacity:1;marker:none;enable-background:accumulate"
     d="m 221.48184,352.9234 c 0,1.08292 -0.84801,1.9608 -1.89408,1.9608 -1.04607,0 -1.89408,-0.87788 -1.89407,-1.9608 1e-5,-1.0829 0.84801,-1.96076 1.89407,-1.96076 1.04606,0 1.89406,0.87785 1.89408,1.96076 z"
     id="path12452"
     inkscape:connector-curvature="0"
     sodipodi:nodetypes="sssss" />
  <path
     style="color:#000000;display:inline;overflow:visible;visibility:visible;fill:none;fill-rule:evenodd;stroke:#000000;stroke-width:1;stroke-linecap:butt;stroke-linejoin:miter;stroke-miterlimit:4;stroke-dasharray:none;stroke-dashoffset:0;stroke-opacity:1;marker:none;enable-background:accumulate"
     d="m 222.36786,369.59811 c 1e-5,1.08292 -0.848,1.9608 -1.89407,1.9608 -1.04607,0 -1.89409,-0.87788 -1.89408,-1.9608 1e-5,-1.08291 0.84801,-1.96078 1.89408,-1.96078 1.04606,0 1.89406,0.87787 1.89407,1.96078 z"
     id="path12452-2"
     inkscape:connector-curvature="0"
     sodipodi:nodetypes="sssss" />
  <path
     style="fill:none;stroke:#000000;stroke-width:1;stroke-linecap:round;stroke-linejoin:round;stroke-miterlimit:4;stroke-dasharray:none;stroke-opacity:1"
     d="m 236.86308,345.53751 19.63801,0 0.002,-2.85156 -19.57445,0 m -5.76916,0 -24.71736,0 -0.002,2.85156 24.58825,0"
     id="path14359-1-7-5-3-0-73-1-9-7-73-1-2"
     inkscape:connector-curvature="0"
     sodipodi:nodetypes="cccccccc" />
  <path
     style="fill:none;stroke:#000000;stroke-width:1;stroke-linecap:round;stroke-linejoin:round;stroke-miterlimit:4;stroke-dasharray:none;stroke-opacity:1"
     d="m 236.20749,362.60488 20.42889,0 0.002,-3.16267 -20.36533,0 m -5.76915,0 -23.92649,0 -0.002,3.16267 23.92849,0"
     id="path14359-1-7-5-3-0-73-1-9-7-73-1-2-7"
     inkscape:connector-curvature="0"
     sodipodi:nodetypes="cccccccc" />
  <path
     style="fill:none;stroke:#000000;stroke-width:1;stroke-linecap:round;stroke-linejoin:round;stroke-miterlimit:4;stroke-dasharray:none;stroke-opacity:1"
     d="m 235.55191,379.76179 21.01684,0 0.002,-3.16267 -20.88773,0 m -5.76915,0 -23.40409,0 -0.002,3.16267 23.27497,0"
     id="path14359-1-7-5-3-0-73-1-9-7-73-1-2-74"
     inkscape:connector-curvature="0"
     sodipodi:nodetypes="cccccccc" />
  <path
     style="fill:none;stroke:#000000;stroke-width:1;stroke-linecap:round;stroke-linejoin:round;stroke-miterlimit:4;stroke-dasharray:none;stroke-opacity:1"
     d="m 237.51866,328.35308 19.25984,0 0.002,-4.78108 -19.13072,0 m -5.76915,0 -25.50615,0 -0.002,4.78108 25.24591,0"
     id="path14359-1-7-5-3-0-73-1-9-7-73-1-2-3"
     inkscape:connector-curvature="0"
     sodipodi:nodetypes="cccccccc" />
  <path
     style="fill:none;stroke:#000000;stroke-width:1;stroke-linecap:round;stroke-linejoin:round;stroke-miterlimit:4;stroke-dasharray:none;stroke-opacity:1"
     d="m 207.65858,379.89227 -9.8e-4,2.73268 m 47.28849,-2.73268 -9.9e-4,1.7993 -2.25084,0.0668 -0.0196,0.78087 -6.08135,2.3003 -1.8e-4,3.57922 8.8036,2.29774 -2e-5,1.27787 m -0.45005,-15.60056 5.8e-4,-2.36225 -2.25296,-0.11402 -0.0193,-0.82809 -6.0812,-1.87438 1.4e-4,-3.72588 6.08135,-1.69842 0.0582,-0.83527 2.17777,-0.0319 9.8e-4,-2.18822"
     id="path14359-1-7-5-3-0-73-1-9-7-73-1-2-6"
     inkscape:connector-curvature="0"
     sodipodi:nodetypes="cccccccccccccccccccc" />
  <path
     style="fill:none;stroke:#000000;stroke-width:1;stroke-linecap:round;stroke-linejoin:round;stroke-miterlimit:4;stroke-dasharray:none;stroke-opacity:1"
     d="m 207.62475,362.73535 -9.8e-4,3.66607 0.8556,0 0.036,6.93012 -0.8556,0 -5.8e-4,3.06228 m 47.25368,-17.08687 5.8e-4,-1.96559 -2.21877,-0.015 -0.019,-0.72906 -6.08119,-1.47656 1.6e-4,-4.24738 6.08135,-2.03251 0.0189,-0.52301 2.21641,-0.0767 9.8e-4,-2.60814"
     id="path14359-1-7-5-3-0-73-1-9-7-73-1-2-6-4"
     inkscape:connector-curvature="0"
     sodipodi:nodetypes="cccccccccccccccc" />
  <path
     style="fill:none;stroke:#000000;stroke-width:1;stroke-linecap:round;stroke-linejoin:round;stroke-miterlimit:4;stroke-dasharray:none;stroke-opacity:1"
     d="m 207.62475,345.63297 -9.8e-4,3.2304 0.8556,0 0.002,7.62238 -0.8556,0 -5.8e-4,2.8212 m 47.28751,-16.79128 5.8e-4,-1.85678 -2.2573,-0.0149 0.0202,-1.04004 -6.08122,-1.58878 1.4e-4,-3.99108 6.08135,-1.664 -0.0457,-1.33486 2.47632,-0.0111 0.002,-2.47015 m -47.48329,-0.0969 -1.8e-4,4.38329 0.77782,0 -2.8e-4,6.68925 -0.77782,0 -1.2e-4,2.99601"
     id="path14359-1-7-5-3-0-73-1-9-7-73-1-2-6-1"
     inkscape:connector-curvature="0"
     sodipodi:nodetypes="cccccccccccccccccccccc" />
  <path
     style="fill:none;stroke:#000000;stroke-width:1;stroke-linecap:round;stroke-linejoin:round;stroke-miterlimit:4;stroke-dasharray:none;stroke-opacity:1"
     d="m 247.81136,415.5356 30.503,0 c 11.64113,11.4585 18.54593,31.03156 18.66659,48.63059 0.21143,30.83635 -21.67082,58.13523 -41.67651,58.87102 -31.344,1.15285 -69.25919,1.48324 -89.52976,-22.64215 -8.33644,-9.92177 -13.53831,-23.35088 -13.66778,-41.91786 -0.0554,-7.9343 -0.12264,-10.25393 -0.29065,-14.39547 -0.1781,-4.39028 -9.49417,-13.12502 -9.22502,-17.22234 0.27935,-4.25248 11.21473,-5.51805 11.10833,-10.50784 -0.0585,-2.74227 -4.40978,-9.72964 -5.22104,-14.17741 -0.33795,-1.85271 5.46988,-2.23476 5.09168,-4.25514 -0.38151,-2.03817 -4.23822,-1.54855 -4.22934,-2.85262 0.0122,-1.75254 2.69809,-4.11509 2.89178,-4.99878 0.24405,-1.11346 -1.78704,-3.62434 -1.84551,-7.61759 -0.1517,-10.35891 7.99277,-16.79233 13.93368,-16.86343 2.63953,-0.0316 5.07632,0.7133 6.56389,1.36661 l 37.74813,16.57827 c 3.0551,1.34174 4.10478,5.31101 5.33833,8.70499 l -4e-5,21.70232 c 0,0.84837 0.15453,1.59683 1.22776,1.59683"
     id="path14359-1-7-5-3-0-73-1-9-7-73-1-2-6-49"
     inkscape:connector-curvature="0"
     sodipodi:nodetypes="ccssssssssssssssscsc" />
  <path
     style="fill:none;stroke:#000000;stroke-width:1;stroke-linecap:round;stroke-linejoin:round;stroke-miterlimit:4;stroke-dasharray:none;stroke-opacity:1"
     d="m 208.4862,369.54091 10.03816,0.002"
     id="path14359-1-7-5-3-0-73-1-9-7-73-1-2-6-49-6"
     inkscape:connector-curvature="0"
     sodipodi:nodetypes="cc" />
  <path
     style="fill:none;stroke:#000000;stroke-width:1;stroke-linecap:round;stroke-linejoin:round;stroke-miterlimit:4;stroke-dasharray:none;stroke-opacity:1"
     d="m 208.57242,352.76693 9.03543,0.002"
     id="path14359-1-7-5-3-0-73-1-9-7-73-1-2-6-49-3"
     inkscape:connector-curvature="0"
     sodipodi:nodetypes="cc" />
  <path
     style="fill:none;stroke:#000000;stroke-width:1;stroke-linecap:round;stroke-linejoin:round;stroke-miterlimit:4;stroke-dasharray:none;stroke-opacity:1"
     d="m 214.49814,398.35061 14.4979,7e-4 m 5.96583,2.6e-4 21.43482,0.001"
     id="path14359-1-7-5-3-0-73-1-9-7-73-1-2-6-49-4"
     inkscape:connector-curvature="0"
     sodipodi:nodetypes="cccc" />
  <path
     style="fill:none;stroke:#000000;stroke-width:1;stroke-linecap:round;stroke-linejoin:round;stroke-miterlimit:4;stroke-dasharray:none;stroke-opacity:1"
     d="m 213.94323,392.17755 15.44617,0 m 5.63804,0 21.53282,0 -0.0328,13.20542 -2.49925,1.511 -8.31473,0 m -28.51797,0 -2.57112,0"
     id="path14359-1-7-5-3-0-73-1-9-7-73-1-2-6-49-8"
     inkscape:connector-curvature="0"
     sodipodi:nodetypes="ccccccccc" />
  <path
     style="fill:none;stroke:#000000;stroke-width:1;stroke-linecap:round;stroke-linejoin:round;stroke-miterlimit:4;stroke-dasharray:none;stroke-opacity:1"
     d="m 257.36584,415.02276 0.002,-1.58157 -9.75316,0 m -32.51704,0 -1.14783,0"
     id="path14359-1-7-5-3-0-73-1-9-7-73-1-2-6-49-38"
     inkscape:connector-curvature="0"
     sodipodi:nodetypes="ccccc" />
  <path
     style="fill:none;stroke:#000000;stroke-width:1;stroke-linecap:round;stroke-linejoin:round;stroke-miterlimit:4;stroke-dasharray:none;stroke-opacity:1"
     d="m 268.3495,518.96942 -0.62844,-103.05527 -0.27278,103.42533"
     id="path14359-1-7-5-3-0-73-1-9-7-73-1-2-6-49-69"
     inkscape:connector-curvature="0"
     sodipodi:nodetypes="ccc" />
  <path
     style="fill:none;stroke:#000000;stroke-width:1;stroke-linecap:round;stroke-linejoin:round;stroke-miterlimit:4;stroke-dasharray:none;stroke-opacity:1"
     d="m 185.7314,431.69916 5.23603,1.3e-4 m 5.87071,1.6e-4 7.49643,2e-4 m 5.59973,1.4e-4 6.41261,1.8e-4 m 5.23848,1.6e-4 8.30929,1.8e-4 m 4.06433,10e-5 7.94803,1.6e-4 m 5.69005,1.2e-4 6.68358,1.6e-4 m 5.41909,10e-5 7.85772,1.8e-4 m 4.87719,1.2e-4 5.75792,1.2e-4"
     id="path14359-1-7-5-3-0-73-1-9-7-73-1-2-6-49-70"
     inkscape:connector-curvature="0"
     sodipodi:nodetypes="cccccccccccccccc" />
  <text
     xml:space="preserve"
     style="font-style:normal;font-variant:normal;font-weight:normal;font-stretch:normal;font-size:10px;line-height:135.00000238%;font-family:Arial;-inkscape-font-specification:Arial;text-align:center;letter-spacing:1px;word-spacing:0px;text-anchor:middle;fill:#000000;fill-opacity:1;stroke:none;stroke-width:1px;stroke-linecap:butt;stroke-linejoin:miter;stroke-opacity:1"
     x="212.24437"
     y="16.561977"
     id="text12884"
     sodipodi:linespacing="135%"><tspan
       sodipodi:role="line"
       id="tspan12886"
       x="212.74437"
       y="16.561977">FIGURE T2</tspan><tspan
       sodipodi:role="line"
       x="212.74437"
       y="30.061977"
       id="tspan12888">NECK FLEXION TEST SETUP SPECIFICATIONS</tspan></text>
  <text
     xml:space="preserve"
     style="font-style:normal;font-variant:normal;font-weight:normal;font-stretch:normal;font-size:10px;line-height:129.99999523%;font-family:Arial;-inkscape-font-specification:Arial;text-align:start;letter-spacing:0.2px;word-spacing:0px;text-anchor:start;fill:#000000;fill-opacity:1;stroke:none;stroke-width:1px;stroke-linecap:butt;stroke-linejoin:miter;stroke-opacity:1"
     x="12.653169"
     y="492.43164"
     id="text12890"
     sodipodi:linespacing="130%"><tspan
       sodipodi:role="line"
       id="tspan12908"
       x="12.653169"
       y="492.43164">D-PLANE *</tspan><tspan
       sodipodi:role="line"
       id="tspan12910"
       x="12.653169"
       y="505.43164">PERPENDICULAR</tspan><tspan
       sodipodi:role="line"
       id="tspan12912"
       x="12.653169"
       y="518.43164">TO PENDULUM</tspan><tspan
       sodipodi:role="line"
       id="tspan12914"
       x="12.653169"
       y="531.43164">CENTERLINE ±1º</tspan></text>
  <text
     xml:space="preserve"
     style="font-style:normal;font-variant:normal;font-weight:normal;font-stretch:normal;font-size:10px;line-height:129.99999523%;font-family:Arial;-inkscape-font-specification:Arial;text-align:start;letter-spacing:0.2px;word-spacing:0px;text-anchor:start;fill:#000000;fill-opacity:1;stroke:none;stroke-width:1px;stroke-linecap:butt;stroke-linejoin:miter;stroke-opacity:1"
     x="13.797135"
     y="561.29767"
     id="text12890-2"
     sodipodi:linespacing="130%"><tspan
       sodipodi:role="line"
       id="tspan12914-7"
       x="13.797135"
       y="561.29767">* D-PLANE IS DEFINED AS AN IMAGINARY PLANE</tspan><tspan
       sodipodi:role="line"
       x="13.797135"
       y="574.29767"
       id="tspan12973">  PERPENDICLAR TO THE SKULL CAP/SKULL</tspan><tspan
       sodipodi:role="line"
       x="13.797135"
       y="587.29767"
       id="tspan12975">  INTERFACE.</tspan></text>
  <text
     xml:space="preserve"
     style="font-style:normal;font-variant:normal;font-weight:normal;font-stretch:normal;font-size:10px;line-height:129.99999523%;font-family:Arial;-inkscape-font-specification:Arial;text-align:start;letter-spacing:0.2px;word-spacing:0px;text-anchor:start;fill:#000000;fill-opacity:1;stroke:none;stroke-width:1px;stroke-linecap:butt;stroke-linejoin:miter;stroke-opacity:1"
     x="290.86215"
     y="560.59454"
     id="text12890-0"
     sodipodi:linespacing="130%"><tspan
       sodipodi:role="line"
       id="tspan12914-8"
       x="290.86215"
       y="560.59454">HEAD ASSY</tspan><tspan
       sodipodi:role="line"
       x="290.86215"
       y="573.59454"
       id="tspan13013">(P/N 420-1000)</tspan></text>
  <text
     xml:space="preserve"
     style="font-style:normal;font-variant:normal;font-weight:normal;font-stretch:normal;font-size:10px;line-height:129.99999523%;font-family:Arial;-inkscape-font-specification:Arial;text-align:start;letter-spacing:0.2px;word-spacing:0px;text-anchor:start;fill:#000000;fill-opacity:1;stroke:none;stroke-width:1px;stroke-linecap:butt;stroke-linejoin:miter;stroke-opacity:1"
     x="292.47263"
     y="505.24118"
     id="text13015"
     sodipodi:linespacing="130%"><tspan
       sodipodi:role="line"
       id="tspan13017"
       x="292.47263"
       y="505.24118">OCCIPITAL CONDYLES</tspan></text>
  <text
     xml:space="preserve"
     style="font-style:normal;font-variant:normal;font-weight:normal;font-stretch:normal;font-size:10px;line-height:129.99999523%;font-family:Arial;-inkscape-font-specification:Arial;text-align:start;letter-spacing:0.2px;word-spacing:0px;text-anchor:start;fill:#000000;fill-opacity:1;stroke:none;stroke-width:1px;stroke-linecap:butt;stroke-linejoin:miter;stroke-opacity:1"
     x="319.13849"
     y="464.39011"
     id="text13019"
     sodipodi:linespacing="130%"><tspan
       sodipodi:role="line"
       x="319.13849"
       y="464.39011"
       id="tspan13025">THETA</tspan><tspan
       sodipodi:role="line"
       x="319.13849"
       y="477.39011"
       id="tspan15416">POTENTIOMETER</tspan></text>
  <text
     xml:space="preserve"
     style="font-style:normal;font-variant:normal;font-weight:normal;font-stretch:normal;font-size:10px;line-height:129.99999523%;font-family:Arial;-inkscape-font-specification:Arial;text-align:start;letter-spacing:0.2px;word-spacing:0px;text-anchor:start;fill:#000000;fill-opacity:1;stroke:none;stroke-width:1px;stroke-linecap:butt;stroke-linejoin:miter;stroke-opacity:1"
     x="11.245803"
     y="253.31508"
     id="text13027"
     sodipodi:linespacing="130%"><tspan
       sodipodi:role="line"
       x="11.245803"
       y="253.31508"
       id="tspan13031">LEADING EDGE OF</tspan><tspan
       sodipodi:role="line"
       x="11.245803"
       y="266.31506"
       id="tspan15405">LOWER NECK BRACKET</tspan><tspan
       sodipodi:role="line"
       x="11.245803"
       y="279.31506"
       id="tspan15407">AND PENDULUM</tspan><tspan
       sodipodi:role="line"
       x="11.245803"
       y="292.31506"
       id="tspan15409">COINCIDE</tspan></text>
  <text
     xml:space="preserve"
     style="font-style:normal;font-variant:normal;font-weight:normal;font-stretch:normal;font-size:10px;line-height:129.99999523%;font-family:Arial;-inkscape-font-specification:Arial;text-align:start;letter-spacing:0.2px;word-spacing:0px;text-anchor:start;fill:#000000;fill-opacity:1;stroke:none;stroke-width:1px;stroke-linecap:butt;stroke-linejoin:miter;stroke-opacity:1"
     x="300.81729"
     y="387.55499"
     id="text13033"
     sodipodi:linespacing="130%"><tspan
       sodipodi:role="line"
       x="300.81729"
       y="387.55499"
       id="tspan13039">6-AXIS UPPER NECK</tspan><tspan
       sodipodi:role="line"
       x="300.81729"
       y="400.55499"
       id="tspan15399">LOAD CELL</tspan><tspan
       sodipodi:role="line"
       x="300.81729"
       y="413.55499"
       id="tspan15401">(SA572-T11)</tspan></text>
  <text
     xml:space="preserve"
     style="font-style:normal;font-variant:normal;font-weight:normal;font-stretch:normal;font-size:10px;line-height:129.99999523%;font-family:Arial;-inkscape-font-specification:Arial;text-align:start;letter-spacing:0.2px;word-spacing:0px;text-anchor:start;fill:#000000;fill-opacity:1;stroke:none;stroke-width:1px;stroke-linecap:butt;stroke-linejoin:miter;stroke-opacity:1"
     x="309.71399"
     y="167.0685"
     id="text13059"
     sodipodi:linespacing="130%"><tspan
       sodipodi:role="line"
       id="tspan13061"
       x="309.71399"
       y="167.0685">ACCELEROMETER</tspan></text>
  <text
     xml:space="preserve"
     style="font-style:normal;font-variant:normal;font-weight:normal;font-stretch:normal;font-size:10px;line-height:129.99999523%;font-family:Arial;-inkscape-font-specification:Arial;text-align:start;letter-spacing:0.2px;word-spacing:0px;text-anchor:start;fill:#000000;fill-opacity:1;stroke:none;stroke-width:1px;stroke-linecap:butt;stroke-linejoin:miter;stroke-opacity:1"
     x="314.52478"
     y="107.08677"
     id="text13063"
     sodipodi:linespacing="130%"><tspan
       sodipodi:role="line"
       id="tspan13065"
       x="314.52478"
       y="107.08677">PENDULUM</tspan><tspan
       sodipodi:role="line"
       x="314.52478"
       y="120.08677"
       id="tspan13067">(REF.FIG.22 CFR</tspan><tspan
       sodipodi:role="line"
       x="314.52478"
       y="133.08676"
       id="tspan13069">49 §572.33)</tspan></text>
  <text
     xml:space="preserve"
     style="font-style:normal;font-variant:normal;font-weight:normal;font-stretch:normal;font-size:10px;line-height:129.99999523%;font-family:Arial;-inkscape-font-specification:Arial;text-align:start;letter-spacing:0.2px;word-spacing:0px;text-anchor:start;fill:#000000;fill-opacity:1;stroke:none;stroke-width:1px;stroke-linecap:butt;stroke-linejoin:miter;stroke-opacity:1;"
     x="270.19498"
     y="72.022469"
     id="text13071"
     sodipodi:linespacing="130%"><tspan
       sodipodi:role="line"
       id="tspan13073"
       x="270.19498"
       y="72.022469">PENDULUM CENTERLINE</tspan></text>
  <text
     xml:space="preserve"
     style="font-style:normal;font-variant:normal;font-weight:normal;font-stretch:normal;font-size:10px;line-height:129.99999523%;font-family:Arial;-inkscape-font-specification:Arial;text-align:start;letter-spacing:0.2px;word-spacing:0px;text-anchor:start;fill:#000000;fill-opacity:1;stroke:none;stroke-width:1px;stroke-linecap:butt;stroke-linejoin:miter;stroke-opacity:1"
     x="303.22015"
     y="222.39955"
     id="text13075"
     sodipodi:linespacing="130%"><tspan
       sodipodi:role="line"
       id="tspan13085"
       x="303.22015"
       y="222.39955">BATA</tspan><tspan
       sodipodi:role="line"
       x="303.22015"
       y="235.39955"
       id="tspan15380">POTENTIOMETER</tspan></text>
  <text
     xml:space="preserve"
     style="font-style:normal;font-variant:normal;font-weight:normal;font-stretch:normal;font-size:10px;line-height:129.99999523%;font-family:Arial;-inkscape-font-specification:Arial;text-align:start;letter-spacing:0.2px;word-spacing:0px;text-anchor:start;fill:#000000;fill-opacity:1;stroke:none;stroke-width:1px;stroke-linecap:butt;stroke-linejoin:miter;stroke-opacity:1"
     x="10.997676"
     y="147.39354"
     id="text13087"
     sodipodi:linespacing="130%"><tspan
       sodipodi:role="line"
       id="tspan13089"
       x="10.997676"
       y="147.39354">PENDULUM</tspan><tspan
       sodipodi:role="line"
       x="10.997676"
       y="160.39354"
       id="tspan13091">STRIKER PLATE</tspan></text>
  <text
     xml:space="preserve"
     style="font-style:normal;font-variant:normal;font-weight:normal;font-stretch:normal;font-size:10px;line-height:129.99999523%;font-family:Arial;-inkscape-font-specification:Arial;text-align:start;letter-spacing:0.2px;word-spacing:0px;text-anchor:start;fill:#000000;fill-opacity:1;stroke:none;stroke-width:1px;stroke-linecap:butt;stroke-linejoin:miter;stroke-opacity:1"
     x="12.301587"
     y="185.52415"
     id="text13093"
     sodipodi:linespacing="130%"><tspan
       sodipodi:role="line"
       id="tspan13095"
       x="12.301587"
       y="185.52415">DIRECTION OF</tspan><tspan
       sodipodi:role="line"
       x="12.301587"
       y="198.52415"
       id="tspan13097">PENDULUM</tspan><tspan
       sodipodi:role="line"
       x="12.301587"
       y="211.52415"
       id="tspan13099">FLIGHT</tspan></text>
  <path
     style="fill:#000000;fill-opacity:1;stroke:#000000;stroke-width:4;stroke-linecap:butt;stroke-linejoin:miter;stroke-miterlimit:4;stroke-dasharray:none;stroke-opacity:1"
     d="m 104.95658,202.05763 -18.407562,-6.88724 18.404262,-6.80035 0.0112,6.78873 z"
     id="path14359-1-7-5-3-0-73-4-0-68"
     inkscape:connector-curvature="0"
     sodipodi:nodetypes="ccccc" />
  <path
     style="fill:none;fill-rule:evenodd;stroke:#000000;stroke-width:4;stroke-linecap:butt;stroke-linejoin:miter;stroke-miterlimit:4;stroke-dasharray:none;stroke-opacity:1;fill-opacity:1"
     d="m 128.92316,195.14755 -23.95055,0.0114"
     id="path8331-0-6-2"
     inkscape:connector-curvature="0"
     sodipodi:nodetypes="cc" />
  <text
     xml:space="preserve"
     style="font-style:normal;font-variant:normal;font-weight:normal;font-stretch:normal;font-size:10px;line-height:129.99999523%;font-family:Arial;-inkscape-font-specification:Arial;text-align:start;letter-spacing:0.2px;word-spacing:0px;text-anchor:start;fill:#000000;fill-opacity:1;stroke:none;stroke-width:1px;stroke-linecap:butt;stroke-linejoin:miter;stroke-opacity:1"
     x="298.67352"
     y="293.0957"
     id="text13130"
     sodipodi:linespacing="130%"><tspan
       sodipodi:role="line"
       x="298.67352"
       y="293.0957"
       id="tspan13134">POTENTIOMETER</tspan><tspan
       sodipodi:role="line"
       x="298.67352"
       y="306.0957"
       id="tspan15384">EXTENSION</tspan><tspan
       sodipodi:role="line"
       x="298.67352"
       y="319.0957"
       id="tspan15386">BRACKET AND NECK</tspan><tspan
       sodipodi:role="line"
       x="298.67352"
       y="332.0957"
       id="tspan15388">MOUNTING BRACKET</tspan></text>
  <text
     xml:space="preserve"
     style="font-style:normal;font-variant:normal;font-weight:normal;font-stretch:normal;font-size:10px;line-height:129.99999523%;font-family:Arial;-inkscape-font-specification:Arial;text-align:start;letter-spacing:0.2px;word-spacing:0px;text-anchor:start;fill:#000000;fill-opacity:1;stroke:none;stroke-width:1px;stroke-linecap:butt;stroke-linejoin:miter;stroke-opacity:1"
     x="285.09146"
     y="355.32648"
     id="text13136"
     sodipodi:linespacing="130%"><tspan
       sodipodi:role="line"
       x="285.09146"
       y="355.32648"
       id="tspan13140">LOWER NECK BRACKET</tspan><tspan
       sodipodi:role="line"
       x="285.09146"
       y="368.32648"
       id="tspan15392">(P/N 420-2070)</tspan></text>
  <path
     style="color:#000000;display:inline;overflow:visible;visibility:visible;fill:none;fill-rule:evenodd;stroke:#000000;stroke-width:1;stroke-linecap:butt;stroke-linejoin:miter;stroke-miterlimit:4;stroke-dasharray:none;stroke-dashoffset:0;stroke-opacity:1;marker:none;enable-background:accumulate"
     d="m 223.80061,386.49995 c 1e-5,1.08292 -0.848,1.9608 -1.89407,1.9608 -1.04607,0 -1.89409,-0.87788 -1.89408,-1.9608 1e-5,-1.08291 0.84801,-1.96078 1.89408,-1.96078 1.04606,0 1.89406,0.87787 1.89407,1.96078 z"
     id="path12452-2-5"
     inkscape:connector-curvature="0"
     sodipodi:nodetypes="sssss" />
  <path
     style="fill:none;stroke:#000000;stroke-width:1;stroke-linecap:round;stroke-linejoin:round;stroke-miterlimit:4;stroke-dasharray:none;stroke-opacity:1"
     d="m 211.3968,386.44275 8.56031,0.002"
     id="path14359-1-7-5-3-0-73-1-9-7-73-1-2-6-49-6-0"
     inkscape:connector-curvature="0"
     sodipodi:nodetypes="cc" />
  <path
     style="color:#000000;display:inline;overflow:visible;visibility:visible;fill:none;fill-rule:evenodd;stroke:#000000;stroke-width:1;stroke-linecap:butt;stroke-linejoin:miter;stroke-miterlimit:4;stroke-dasharray:none;stroke-dashoffset:0;stroke-opacity:1;marker:none;enable-background:accumulate"
     d="m 220.53376,336.25277 c 1e-5,1.08292 -0.848,1.9608 -1.89407,1.9608 -1.04607,0 -1.89409,-0.87788 -1.89408,-1.9608 1e-5,-1.08291 0.84801,-1.96078 1.89408,-1.96078 1.04606,0 1.89406,0.87787 1.89407,1.96078 z"
     id="path12452-2-4"
     inkscape:connector-curvature="0"
     sodipodi:nodetypes="sssss" />
  <path
     style="fill:none;stroke:#000000;stroke-width:1;stroke-linecap:round;stroke-linejoin:round;stroke-miterlimit:4;stroke-dasharray:none;stroke-opacity:1"
     d="m 208.44108,336.19557 8.24918,0.002"
     id="path14359-1-7-5-3-0-73-1-9-7-73-1-2-6-49-6-1"
     inkscape:connector-curvature="0"
     sodipodi:nodetypes="cc" />
  <path
     style="fill:none;stroke:#000000;stroke-width:1;stroke-linecap:round;stroke-linejoin:round;stroke-miterlimit:4;stroke-dasharray:none;stroke-opacity:1"
     d="m 253.39011,323.16845 0.002,-16.71941"
     id="path14359-1-7-5-3-0-73-1-9-7-73-1-2-6-49-6-1-6"
     inkscape:connector-curvature="0"
     sodipodi:nodetypes="cc" />
  <path
     style="fill:none;stroke:#000000;stroke-width:1;stroke-linecap:round;stroke-linejoin:round;stroke-miterlimit:4;stroke-dasharray:none;stroke-opacity:1"
     d="m 209.48807,323.16845 0.002,-16.71941"
     id="path14359-1-7-5-3-0-73-1-9-7-73-1-2-6-49-6-1-7"
     inkscape:connector-curvature="0"
     sodipodi:nodetypes="cc" />
  <path
     style="fill:none;stroke:#000000;stroke-width:1;stroke-linecap:round;stroke-linejoin:round;stroke-miterlimit:4;stroke-dasharray:none;stroke-opacity:1"
     d="m 251.67931,289.97228 1.5734,0 c 2.45167,0 5.26967,3.16986 5.26925,5.44136 l -0.002,10.8847 -53.19055,0 c -1.11563,0 -1.5442,-0.80476 -1.54406,-1.44229 l 0.002,-9.44241 c 5.1e-4,-2.41671 3.06768,-5.44136 5.41002,-5.44136 l 11.60386,0"
     id="path14359-1-7-5-3-0-73-1-9-7-73-1-2-6-49-6-1-7-1"
     inkscape:connector-curvature="0"
     sodipodi:nodetypes="csscssssc" />
  <path
     style="fill:none;stroke:#000000;stroke-width:1;stroke-linecap:round;stroke-linejoin:round;stroke-miterlimit:4;stroke-dasharray:none;stroke-opacity:1"
     d="m 239.63073,268.59064 1.10131,-34.11524 -5.70359,-0.19667 -1.16501,34.319 m -1.15412,32.19025 -3.47753,97.74543 m -0.10948,5.24779 -0.85632,21.89875 m -0.17479,4.913 -2.1774,61.20178 5.50692,0 2.25627,-60.87115 m 0.17183,-4.9178 0.82744,-22.1573 m 0.1789,-5.10938 3.60546,-97.68949"
     id="path14359-1-7-5-3-0-73-1-9-7-73-1-2-6-49-6-1-7-6"
     inkscape:connector-curvature="0"
     sodipodi:nodetypes="cccccccccccccccc" />
  <path
     style="color:#000000;display:inline;overflow:visible;visibility:visible;fill:none;fill-rule:evenodd;stroke:#000000;stroke-width:1;stroke-linecap:butt;stroke-linejoin:miter;stroke-miterlimit:4;stroke-dasharray:none;stroke-dashoffset:0;stroke-opacity:1;marker:none;enable-background:accumulate"
     d="m 252.5216,284.7926 c 0,8.97382 -7.27472,16.24855 -16.24854,16.24855 -8.97383,0 -16.24855,-7.27472 -16.24855,-16.24855 0,-8.97383 7.27472,-16.24855 16.24855,-16.24855 8.97382,0 16.24854,7.27473 16.24854,16.24855 z"
     id="path14980"
     inkscape:connector-curvature="0"
     sodipodi:nodetypes="sssss" />
  <path
     inkscape:connector-curvature="0"
     style="color:#000000;display:inline;overflow:visible;visibility:visible;fill:none;fill-rule:evenodd;stroke:#000000;stroke-width:1;stroke-linecap:butt;stroke-linejoin:miter;stroke-miterlimit:4;stroke-dasharray:none;stroke-dashoffset:0;stroke-opacity:1;marker:none;enable-background:accumulate"
     d="m 247.88066,284.92371 c -1e-5,6.37449 -5.16755,11.54203 -11.54203,11.54204 -6.3745,0 -11.54205,-5.16754 -11.54205,-11.54204 -1e-5,-6.3745 5.16755,-11.54205 11.54205,-11.54205 6.37449,10e-6 11.54203,5.16756 11.54203,11.54205 z"
     id="path14980-5"
     sodipodi:nodetypes="sssss" />
  <path
     style="fill:none;stroke:#000000;stroke-width:1;stroke-linecap:round;stroke-linejoin:round;stroke-miterlimit:4;stroke-dasharray:none;stroke-opacity:1"
     d="m 239.30034,274.00368 -0.55129,22.08172"
     id="path14359-1-7-5-3-0-73-1-9-78-5"
     inkscape:connector-curvature="0"
     sodipodi:nodetypes="cc" />
  <path
     inkscape:connector-curvature="0"
     style="color:#000000;display:inline;overflow:visible;visibility:visible;fill:none;fill-rule:evenodd;stroke:#000000;stroke-width:1;stroke-linecap:butt;stroke-linejoin:miter;stroke-miterlimit:4;stroke-dasharray:none;stroke-dashoffset:0;stroke-opacity:1;marker:none;enable-background:accumulate"
     d="m 239.00762,284.92371 c -1e-5,1.54647 -1.25366,2.80013 -2.80013,2.80013 -1.54647,0 -2.80013,-1.25366 -2.80013,-2.80013 0,-1.54647 1.25366,-2.80013 2.80013,-2.80013 1.54647,0 2.80013,1.25366 2.80013,2.80013 z"
     id="path14980-5-1"
     sodipodi:nodetypes="sssss" />
  <path
     inkscape:connector-curvature="0"
     style="color:#000000;display:inline;overflow:visible;visibility:visible;fill:none;fill-rule:evenodd;stroke:#000000;stroke-width:1;stroke-linecap:butt;stroke-linejoin:miter;stroke-miterlimit:4;stroke-dasharray:none;stroke-dashoffset:0;stroke-opacity:1;marker:none;enable-background:accumulate"
     d="m 234.22185,413.8774 c -1e-5,1.54647 -1.25366,2.80013 -2.80013,2.80013 -1.54647,0 -2.80013,-1.25366 -2.80013,-2.80013 0,-1.54647 1.25366,-2.80013 2.80013,-2.80013 1.54647,0 2.80013,1.25366 2.80013,2.80013 z"
     id="path14980-5-1-6"
     sodipodi:nodetypes="sssss" />
  <path
     style="color:#000000;display:inline;overflow:visible;visibility:visible;fill:none;fill-rule:evenodd;stroke:#000000;stroke-width:1;stroke-linecap:butt;stroke-linejoin:miter;stroke-miterlimit:4;stroke-dasharray:none;stroke-dashoffset:0;stroke-opacity:1;marker:none;enable-background:accumulate"
     d="m 247.67027,414.66409 c 0,8.97382 -7.27472,16.24855 -16.24854,16.24855 -8.97383,0 -16.24855,-7.27472 -16.24855,-16.24855 0,-8.97383 7.27472,-16.24855 16.24855,-16.24855 8.97382,0 16.24854,7.27473 16.24854,16.24855 z"
     id="path14980-9"
     inkscape:connector-curvature="0"
     sodipodi:nodetypes="sssss" />
  <path
     inkscape:connector-curvature="0"
     style="color:#000000;display:inline;overflow:visible;visibility:visible;fill:none;fill-rule:evenodd;stroke:#000000;stroke-width:1;stroke-linecap:butt;stroke-linejoin:miter;stroke-miterlimit:4;stroke-dasharray:none;stroke-dashoffset:0;stroke-opacity:1;marker:none;enable-background:accumulate"
     d="m 243.02933,414.7952 c -10e-6,6.37449 -5.16755,11.54203 -11.54203,11.54204 -6.3745,0 -11.54205,-5.16754 -11.54205,-11.54204 -10e-6,-6.3745 5.16755,-11.54205 11.54205,-11.54205 6.37449,10e-6 11.54203,5.16756 11.54203,11.54205 z"
     id="path14980-5-0"
     sodipodi:nodetypes="sssss" />
  <path
     inkscape:connector-curvature="0"
     style="color:#000000;display:inline;overflow:visible;visibility:visible;fill:none;fill-rule:evenodd;stroke:#000000;stroke-width:1;stroke-linecap:butt;stroke-linejoin:miter;stroke-miterlimit:4;stroke-dasharray:none;stroke-dashoffset:0;stroke-opacity:1;marker:none;enable-background:accumulate"
     d="m 212.25774,295.79123 c -1e-5,1.72919 -1.40178,3.13097 -3.13097,3.13097 -1.72919,0 -3.13097,-1.40178 -3.13097,-3.13097 0,-1.72919 1.40178,-3.13097 3.13097,-3.13097 1.72919,0 3.13097,1.40178 3.13097,3.13097 z"
     id="path14980-5-1-2"
     sodipodi:nodetypes="sssss" />
  <path
     inkscape:connector-curvature="0"
     style="color:#000000;display:inline;overflow:visible;visibility:visible;fill:none;fill-rule:evenodd;stroke:#000000;stroke-width:1;stroke-linecap:butt;stroke-linejoin:miter;stroke-miterlimit:4;stroke-dasharray:none;stroke-dashoffset:0;stroke-opacity:1;marker:none;enable-background:accumulate"
     d="m 250.2597,293.17131 c 0.44501,-0.24298 0.95551,-0.38108 1.49826,-0.38108 1.72919,0 3.13097,1.40178 3.13097,3.13097 -10e-6,1.72919 -1.40178,3.13097 -3.13097,3.13097 -1.72919,0 -3.13097,-1.40178 -3.13097,-3.13097 0,-0.1957 0.0179,-0.38721 0.0523,-0.57296"
     id="path14980-5-1-2-7"
     sodipodi:nodetypes="cssssc" />
  <path
     inkscape:connector-curvature="0"
     style="color:#000000;display:inline;overflow:visible;visibility:visible;fill:none;fill-rule:evenodd;stroke:#000000;stroke-width:1;stroke-linecap:butt;stroke-linejoin:miter;stroke-miterlimit:4;stroke-dasharray:none;stroke-dashoffset:0;stroke-opacity:1;marker:none;enable-background:accumulate"
     d="m 227.50799,298.45639 c -0.54309,0.45312 -1.242,0.72576 -2.0046,0.72576 -1.72919,0 -3.13097,-1.40178 -3.13097,-3.13097 0,-0.73096 0.25049,-1.40342 0.6703,-1.93621"
     id="path14980-5-1-2-9"
     sodipodi:nodetypes="cssc" />
  <path
     inkscape:connector-curvature="0"
     style="color:#000000;display:inline;overflow:visible;visibility:visible;fill:none;fill-rule:evenodd;stroke:#000000;stroke-width:1;stroke-linecap:butt;stroke-linejoin:miter;stroke-miterlimit:4;stroke-dasharray:none;stroke-dashoffset:0;stroke-opacity:1;marker:none;enable-background:accumulate"
     d="m 220.1861,295.66126 c -1e-5,1.72919 -1.40178,3.13097 -3.13097,3.13097 -1.72919,0 -3.13097,-1.40178 -3.13097,-3.13097 0,-1.72919 1.40178,-3.13097 3.13097,-3.13097 1.72919,0 3.13097,1.40178 3.13097,3.13097 z"
     id="path14980-5-1-2-79"
     sodipodi:nodetypes="sssss" />
  <path
     style="fill:none;stroke:#000000;stroke-width:1;stroke-linecap:round;stroke-linejoin:round;stroke-miterlimit:4;stroke-dasharray:none;stroke-opacity:1"
     d="m 233.53088,273.78416 -0.62977,21.92478"
     id="path14359-1-7-5-3-0-73-1-9-78-5-6"
     inkscape:connector-curvature="0"
     sodipodi:nodetypes="cc" />
  <path
     style="fill:#000000;fill-opacity:1;stroke:#000000;stroke-width:1;stroke-linecap:butt;stroke-linejoin:miter;stroke-miterlimit:4;stroke-dasharray:none;stroke-opacity:1"
     d="m 242.81137,90.464699 -4.31562,3.639684 1.81724,-5.342004 1.24935,0.850927 z"
     id="path14359-1-7-5-3-0-73-1-8"
     inkscape:connector-curvature="0"
     sodipodi:nodetypes="ccccc" />
  <path
     style="fill:none;stroke:#000000;stroke-width:1;stroke-linecap:butt;stroke-linejoin:miter;stroke-miterlimit:4;stroke-dasharray:none;stroke-opacity:1"
     d="m 241.5698,89.600565 14.61556,-21.211973 9.15931,0.03397"
     id="path14359-1-7-5-3-0-73-1-9-1"
     inkscape:connector-curvature="0"
     sodipodi:nodetypes="ccc" />
  <path
     style="fill:#000000;fill-opacity:1;stroke:#000000;stroke-width:1;stroke-linecap:butt;stroke-linejoin:miter;stroke-miterlimit:4;stroke-dasharray:none;stroke-opacity:1"
     d="m 275.63217,134.91686 -4.62471,3.23789 2.28909,-5.15745 1.168,0.95956 z"
     id="path14359-1-7-5-3-0-73-1-8-5"
     inkscape:connector-curvature="0"
     sodipodi:nodetypes="ccccc" />
  <path
     style="fill:none;stroke:#000000;stroke-width:1;stroke-linecap:butt;stroke-linejoin:miter;stroke-miterlimit:4;stroke-dasharray:none;stroke-opacity:1"
     d="m 274.47312,133.94484 24.49072,-30.55012 10.04809,-0.005"
     id="path14359-1-7-5-3-0-73-1-9-1-5"
     inkscape:connector-curvature="0"
     sodipodi:nodetypes="ccc" />
  <path
     style="fill:#000000;fill-opacity:1;stroke:#000000;stroke-width:1;stroke-linecap:butt;stroke-linejoin:miter;stroke-miterlimit:4;stroke-dasharray:none;stroke-opacity:1"
     d="m 283.09619,181.83304 -4.28989,3.66997 1.77959,-5.35467 1.25531,0.84213 z"
     id="path14359-1-7-5-3-0-73-1-8-8"
     inkscape:connector-curvature="0"
     sodipodi:nodetypes="ccccc" />
  <path
     style="fill:none;stroke:#000000;stroke-width:1;stroke-linecap:butt;stroke-linejoin:miter;stroke-miterlimit:4;stroke-dasharray:none;stroke-opacity:1"
     d="m 281.84857,180.97766 11.98413,-18.024 9.1028,0.10161"
     id="path14359-1-7-5-3-0-73-1-9-1-7"
     inkscape:connector-curvature="0"
     sodipodi:nodetypes="ccc" />
  <path
     style="fill:#000000;fill-opacity:1;stroke:#000000;stroke-width:1;stroke-linecap:butt;stroke-linejoin:miter;stroke-miterlimit:4;stroke-dasharray:none;stroke-opacity:1"
     d="m 185.08424,178.55801 5.64491,0.0835 -4.78957,-2.98319 -0.42811,1.44973 z"
     id="path14359-1-7-5-3-0-73-1-0-45-7"
     inkscape:connector-curvature="0"
     sodipodi:nodetypes="ccccc" />
  <path
     style="fill:none;stroke:#000000;stroke-width:1;stroke-linecap:butt;stroke-linejoin:miter;stroke-miterlimit:4;stroke-dasharray:none;stroke-opacity:1"
     d="m 75.74931,145.06252 8.52663,-0.0783 101.234,32.12442"
     id="path14359-1-7-5-3-0-73-1-9-1-4"
     inkscape:connector-curvature="0"
     sodipodi:nodetypes="ccc" />
  <path
     style="fill:#000000;fill-opacity:1;stroke:#000000;stroke-width:1;stroke-linecap:butt;stroke-linejoin:miter;stroke-miterlimit:4;stroke-dasharray:none;stroke-opacity:1"
     d="m 252.76788,265.69917 -4.61243,3.25537 2.26956,-5.16609 1.17162,0.95514 z"
     id="path14359-1-7-5-3-0-73-1-8-99"
     inkscape:connector-curvature="0"
     sodipodi:nodetypes="ccccc" />
  <path
     style="fill:none;stroke:#000000;stroke-width:1;stroke-linecap:butt;stroke-linejoin:miter;stroke-miterlimit:4;stroke-dasharray:none;stroke-opacity:1"
     d="m 251.60515,264.73154 36.30658,-45.33761 9.50827,0.0555"
     id="path14359-1-7-5-3-0-73-1-9-1-3"
     inkscape:connector-curvature="0"
     sodipodi:nodetypes="ccc" />
  <path
     style="fill:#000000;fill-opacity:1;stroke:#000000;stroke-width:1;stroke-linecap:butt;stroke-linejoin:miter;stroke-miterlimit:4;stroke-dasharray:none;stroke-opacity:1"
     d="m 265.21284,291.47084 -3.61281,-4.33815 5.33062,1.85039 -0.85867,1.24405 z"
     id="path14359-1-7-5-3-0-73-1-8-4"
     inkscape:connector-curvature="0"
     sodipodi:nodetypes="ccccc" />
  <path
     style="fill:none;stroke:#000000;stroke-width:1;stroke-linecap:butt;stroke-linejoin:miter;stroke-miterlimit:4;stroke-dasharray:none;stroke-opacity:1"
     d="m 266.08467,290.23466 17.92685,12.70433 10.90036,-0.0754"
     id="path14359-1-7-5-3-0-73-1-9-1-57"
     inkscape:connector-curvature="0"
     sodipodi:nodetypes="ccc" />
  <path
     style="fill:#000000;fill-opacity:1;stroke:#000000;stroke-width:1;stroke-linecap:butt;stroke-linejoin:miter;stroke-miterlimit:4;stroke-dasharray:none;stroke-opacity:1"
     d="m 255.85475,322.22914 -0.69753,-5.60227 3.48687,4.43634 -1.39456,0.58323 z"
     id="path14359-1-7-5-3-0-73-1-8-3"
     inkscape:connector-curvature="0"
     sodipodi:nodetypes="ccccc" />
  <path
     style="fill:none;stroke:#000000;stroke-width:1;stroke-linecap:butt;stroke-linejoin:miter;stroke-miterlimit:4;stroke-dasharray:none;stroke-opacity:1"
     d="m 257.25614,321.65964 12.3783,29.89826 9.75408,-0.0377"
     id="path14359-1-7-5-3-0-73-1-9-1-9"
     inkscape:connector-curvature="0"
     sodipodi:nodetypes="ccc" />
  <path
     style="fill:#000000;fill-opacity:1;stroke:#000000;stroke-width:1;stroke-linecap:butt;stroke-linejoin:miter;stroke-miterlimit:4;stroke-dasharray:none;stroke-opacity:1"
     d="m 194.6601,294.6603 5.39172,1.67374 -3.75253,-4.21401 -0.81998,1.26989 z"
     id="path14359-1-7-5-3-0-73-1-0-45-67"
     inkscape:connector-curvature="0"
     sodipodi:nodetypes="ccccc" />
  <path
     style="fill:none;stroke:#000000;stroke-width:1;stroke-linecap:butt;stroke-linejoin:miter;stroke-miterlimit:4;stroke-dasharray:none;stroke-opacity:1"
     d="m 108.44242,251.58333 24.61754,0.0302 62.41773,41.77653"
     id="path14359-1-7-5-3-0-73-1-9-1-1"
     inkscape:connector-curvature="0"
     sodipodi:nodetypes="ccc" />
  <path
     style="fill:#000000;fill-opacity:1;stroke:#000000;stroke-width:1;stroke-linecap:butt;stroke-linejoin:miter;stroke-miterlimit:4;stroke-dasharray:none;stroke-opacity:1"
     d="m 197.71808,374.10461 5.62175,0.51768 -4.54578,-3.34294 -0.53842,1.41248 z"
     id="path14359-1-7-5-3-0-73-1-0-45-70"
     inkscape:connector-curvature="0"
     sodipodi:nodetypes="ccccc" />
  <path
     style="fill:none;stroke:#000000;stroke-width:1;stroke-linecap:butt;stroke-linejoin:miter;stroke-miterlimit:4;stroke-dasharray:none;stroke-opacity:1"
     d="m 80.382434,331.73784 11.108076,-0.17592 106.76355,41.13034"
     id="path14359-1-7-5-3-0-73-1-9-1-0"
     inkscape:connector-curvature="0"
     sodipodi:nodetypes="ccc" />
  <path
     style="fill:#000000;fill-opacity:1;stroke:#000000;stroke-width:1;stroke-linecap:butt;stroke-linejoin:miter;stroke-miterlimit:4;stroke-dasharray:none;stroke-opacity:1"
     d="m 262.59603,408.42306 -4.96808,2.68145 2.87007,-4.85819 1.04922,1.08817 z"
     id="path14359-1-7-5-3-0-73-1-8-991"
     inkscape:connector-curvature="0"
     sodipodi:nodetypes="ccccc" />
  <path
     style="fill:none;stroke:#000000;stroke-width:1;stroke-linecap:butt;stroke-linejoin:miter;stroke-miterlimit:4;stroke-dasharray:none;stroke-opacity:1"
     d="m 261.55714,407.32355 24.00613,-22.93252 9.8967,-0.0883"
     id="path14359-1-7-5-3-0-73-1-9-1-02"
     inkscape:connector-curvature="0"
     sodipodi:nodetypes="ccc" />
  <path
     style="fill:#000000;fill-opacity:1;stroke:#000000;stroke-width:1;stroke-linecap:butt;stroke-linejoin:miter;stroke-miterlimit:4;stroke-dasharray:none;stroke-opacity:1"
     d="m 253.04873,426.85005 -3.58008,-4.36519 5.31654,1.8904 -0.86799,1.23756 z"
     id="path14359-1-7-5-3-0-73-1-8-95"
     inkscape:connector-curvature="0"
     sodipodi:nodetypes="ccccc" />
  <path
     style="fill:none;stroke:#000000;stroke-width:1;stroke-linecap:butt;stroke-linejoin:miter;stroke-miterlimit:4;stroke-dasharray:none;stroke-opacity:1"
     d="m 253.92983,425.62045 51.02278,36.03041 9.58925,-0.18888"
     id="path14359-1-7-5-3-0-73-1-9-1-15"
     inkscape:connector-curvature="0"
     sodipodi:nodetypes="ccc" />
  <path
     style="fill:none;stroke:#000000;stroke-width:1;stroke-linecap:round;stroke-linejoin:round;stroke-miterlimit:4;stroke-dasharray:none;stroke-opacity:1"
     d="m 255.76832,405.99468 -9.9e-4,0.86651 -1.09856,0.0668 -0.0196,3.08542 -5.69726,3.28796"
     id="path14359-1-7-5-3-0-73-1-9-7-73-1-2-6-7"
     inkscape:connector-curvature="0"
     sodipodi:nodetypes="ccccc" />
  <path
     style="fill:#000000;fill-opacity:1;stroke:#000000;stroke-width:1;stroke-linecap:butt;stroke-linejoin:miter;stroke-miterlimit:4;stroke-dasharray:none;stroke-opacity:1"
     d="m 237.48517,423.4258 -1.01173,-5.55413 3.73104,4.23305 -1.35953,0.6608 z"
     id="path14359-1-7-5-3-0-73-1-8-95-8"
     inkscape:connector-curvature="0"
     sodipodi:nodetypes="ccccc" />
  <path
     style="fill:none;stroke:#000000;stroke-width:1;stroke-linecap:butt;stroke-linejoin:miter;stroke-miterlimit:4;stroke-dasharray:none;stroke-opacity:1"
     d="m 238.85229,422.77832 39.17669,78.65766 10.20905,-0.0684"
     id="path14359-1-7-5-3-0-73-1-9-1-15-3"
     inkscape:connector-curvature="0"
     sodipodi:nodetypes="ccc" />
  <path
     style="fill:#000000;fill-opacity:1;stroke:#000000;stroke-width:1;stroke-linecap:butt;stroke-linejoin:miter;stroke-miterlimit:4;stroke-dasharray:none;stroke-opacity:1"
     d="m 189.31596,437.21932 4.20281,-3.7694 -5.54235,1.05914 0.66936,1.35534 z"
     id="path14359-1-7-5-3-0-73-1-0-45-2-7"
     inkscape:connector-curvature="0"
     sodipodi:nodetypes="ccccc" />
  <path
     style="fill:none;stroke:#000000;stroke-width:1;stroke-linecap:butt;stroke-linejoin:miter;stroke-miterlimit:4;stroke-dasharray:none;stroke-opacity:1"
     d="m 67.280102,490.34675 9.148011,0.12801 112.216937,-54.6089"
     id="path14359-1-7-5-3-0-73-1-9-1-15-6"
     inkscape:connector-curvature="0"
     sodipodi:nodetypes="ccc" />
  <path
     style="fill:#000000;fill-opacity:1;stroke:#000000;stroke-width:1;stroke-linecap:butt;stroke-linejoin:miter;stroke-miterlimit:4;stroke-dasharray:none;stroke-opacity:1"
     d="m 248.06808,530.7097 -2.48303,-5.07016 4.74098,3.05982 -1.12879,1.00539 z"
     id="path14359-1-7-5-3-0-73-1-8-95-7"
     inkscape:connector-curvature="0"
     sodipodi:nodetypes="ccccc" />
  <path
     style="fill:none;stroke:#000000;stroke-width:1;stroke-linecap:butt;stroke-linejoin:miter;stroke-miterlimit:4;stroke-dasharray:none;stroke-opacity:1"
     d="m 249.20779,529.71507 25.68988,27.94681 10.01098,-0.0495"
     id="path14359-1-7-5-3-0-73-1-9-1-15-7"
     inkscape:connector-curvature="0"
     sodipodi:nodetypes="ccc" />
  <text
     xml:space="preserve"
     style="font-style:normal;font-variant:normal;font-weight:normal;font-stretch:normal;font-size:10px;line-height:129.99999523%;font-family:Arial;-inkscape-font-specification:Arial;text-align:start;letter-spacing:0.2px;word-spacing:0px;text-anchor:start;fill:#000000;fill-opacity:1;stroke:none;stroke-width:1px;stroke-linecap:butt;stroke-linejoin:miter;stroke-opacity:1"
     x="12.271254"
     y="333.85104"
     id="text12890-0-5"
     sodipodi:linespacing="130%"><tspan
       sodipodi:role="line"
       id="tspan12914-8-8"
       x="12.271254"
       y="333.85104">NECK ASSY.</tspan><tspan
       sodipodi:role="line"
       x="12.271254"
       y="346.85104"
       id="tspan13013-5">(P/N 420-2000)</tspan></text>
  <flowRoot
     xml:space="preserve"
     id="flowRoot15370"
     style="fill:black;stroke:none;stroke-opacity:1;stroke-width:1px;stroke-linejoin:miter;stroke-linecap:butt;fill-opacity:1;font-family:Arial;font-style:normal;font-weight:normal;font-size:7.5px;line-height:129.99999523%;letter-spacing:-0.2px;word-spacing:0px;-inkscape-font-specification:Arial;font-stretch:normal;font-variant:normal;text-anchor:start;text-align:start"><flowRegion
       id="flowRegion15372"><rect
         id="rect15374"
         width="16.46138"
         height="14.632338"
         x="615.16785"
         y="98.1586" /></flowRegion><flowPara
       id="flowPara15376" /></flowRoot></svg>
