<?xml version="1.0" encoding="UTF-8" standalone="no"?>
<!-- Created with Inkscape (http://www.inkscape.org/) -->

<svg
   xmlns:dc="http://purl.org/dc/elements/1.1/"
   xmlns:cc="http://creativecommons.org/ns#"
   xmlns:rdf="http://www.w3.org/1999/02/22-rdf-syntax-ns#"
   xmlns:svg="http://www.w3.org/2000/svg"
   xmlns="http://www.w3.org/2000/svg"
   xmlns:sodipodi="http://sodipodi.sourceforge.net/DTD/sodipodi-0.dtd"
   xmlns:inkscape="http://www.inkscape.org/namespaces/inkscape"
   id="svg14039"
   version="1.1"
   inkscape:version="0.92.2 5c3e80d, 2017-08-06"
   width="583.67999"
   height="471.68002"
   viewBox="0 0 547.20001 442.20001"
   sodipodi:docname="er28jn06.005.svg">
  <title id="title_er28jn06.005">Schematic of Front End Structure (Short Hood) Offset Impact</title>
  <desc id="desc_er28jn06.005">Preformance Criteria for Locomotive Crashworthiness</desc>
  <metadata
     id="metadata14045">
    <rdf:RDF>
      <cc:Work
         rdf:about="">
        <dc:format>image/svg+xml</dc:format>
        <dc:type
           rdf:resource="http://purl.org/dc/dcmitype/StillImage" />
        <dc:title></dc:title>
      </cc:Work>
    </rdf:RDF>
  </metadata>
  <defs
     id="defs14043" />
  <sodipodi:namedview
     pagecolor="#ffffff"
     bordercolor="#666666"
     borderopacity="1"
     objecttolerance="10"
     gridtolerance="10"
     guidetolerance="10"
     inkscape:pageopacity="0"
     inkscape:pageshadow="2"
     inkscape:window-width="1280"
     inkscape:window-height="756"
     id="namedview14041"
     showgrid="false"
     inkscape:zoom="0.6539817"
     inkscape:cx="161.94274"
     inkscape:cy="364.92497"
     inkscape:window-x="9"
     inkscape:window-y="23"
     inkscape:window-maximized="0"
     inkscape:current-layer="svg14039" />
  <path
     style="fill:#666666;fill-opacity:1;stroke:none;stroke-width:1;stroke-linecap:round;stroke-linejoin:round;stroke-miterlimit:4;stroke-dasharray:none;stroke-opacity:1"
     d="m 441.4503,54.802603 -0.002,64.825237 -137.62494,0.72001 -5.44567,-25.310584 14.24477,-2.723263 -8.7971,-37.31509 z"
     id="path14359-1-7-5-3-0-73-1-9-8-1-0-9"
     inkscape:connector-curvature="0"
     sodipodi:nodetypes="ccccccc" />
  <path
     style="fill:#666666;fill-opacity:1;stroke:none;stroke-width:1;stroke-linecap:round;stroke-linejoin:round;stroke-miterlimit:4;stroke-dasharray:none;stroke-opacity:1"
     d="m 172.57773,129.82469 -0.002,31.36731 H 34.974651 l -4.927508,-12.4157 13.672401,-1.12891 -8.742893,-17.8227 z"
     id="path14359-1-7-5-3-0-73-1-9-8-4-8"
     inkscape:connector-curvature="0"
     sodipodi:nodetypes="ccccccc" />
  <path
     style="fill:#999999;fill-opacity:1;stroke:none;stroke-width:1;stroke-linecap:round;stroke-linejoin:round;stroke-miterlimit:4;stroke-dasharray:none;stroke-opacity:1"
     d="m 455.69335,164.61816 0.002,-3.70345 h -19.03239 l -0.002,3.70345 z m -19.08858,7.64615 -0.002,2.8886 h 18.79955 l 0.002,-2.8886 z m 19.78017,15.86683 -23.81163,-10e-4 -0.163,-26.83764 5.0337,-7.0842 4.95598,-6.45919 -0.13341,-34.87056 c -0.004,-1.13824 0.38048,-2.1823 1.14209,-2.78786 l 1.57201,-1.24992 c 0.90773,-0.72174 1.38748,-1.66151 1.38348,-2.73852 L 446.293,87.408367 c -0.002,-0.538779 -0.0205,-1.276981 -0.4868,-1.777997 l -0.58125,-0.624508 c -0.37776,-0.405873 -0.51828,-0.686523 -0.48298,-1.102697 l 0.81041,-9.566352 c 0.0687,-0.811157 0.86576,-1.252659 1.68059,-1.279599 l 32.26678,-1.066863 6.86475,-17.760867 c 1.10113,-0.187317 1.28185,-1.046283 1.28385,-1.976235 l 5.22562,1.963701 7.35608,-0.19232 1.28819,-1.35364 -0.0829,-3.951053 -1.43149,-1.576297 -6.65881,0.223459 -4.50682,1.728932 -0.0107,-3.59144 1.37763,-7.459125 4.24462,-0.226971 c 0.18698,1.567495 3.04027,1.603836 3.16714,-0.979688 l 48.19857,-0.608594 v 28.123825 l -2.43125,-0.192064 c 7e-5,-0.649809 -0.25668,-1.039647 -0.845,-1.039647 h -15.15667 c -0.91603,0 -1.29477,0.479004 -1.29485,1.183157 l -9e-5,0.810115 -4.45065,-0.02134 c 1.3e-4,-1.015956 -0.72556,-1.996378 -1.74757,-1.971928 l -11.77423,0.281704 c -0.80995,0.01938 -1.76524,0.173722 -2.08476,1.208687 l -3.12916,-0.32194 0.93199,-2.915018 c 0.46187,-1.444605 -0.39247,-2.300789 -1.57754,-2.309973 l -12.23572,-0.09482 c -0.89546,-0.0069 -1.29124,0.689353 -1.62965,1.470767 l -4.78359,11.045435 c -0.36389,0.840229 -0.28624,1.672544 0.73059,2.278276 l 11.83138,7.048028 c 0.7613,0.453511 1.4252,0.07725 1.57772,-0.399813 l 4.82179,-15.081257 3.19516,0.145666 -3.35707,10.874094 c -0.22679,0.734583 -0.26467,1.552454 -0.26479,2.402095 l -5e-4,3.462308 c -1.2e-4,0.808622 0.80454,1.295838 1.52219,1.295838 h 16.2825 c 1.09816,0 1.6891,-0.685851 1.68923,-1.690224 l 0.002,-15.886481 4.45066,1.5e-5 -0.002,15.635566 c -8e-5,0.689862 0.48128,1.152353 1.07035,1.152353 h 15.044 c 0.56269,0 1.18207,-0.250437 1.18215,-0.957794 l 0.002,-16.474531 2.43138,0.0586 V 158.264 l -76.26327,0.65039 -11.72532,17.20326 z m -0.74781,-5.04109 -18.916,3e-5 -0.002,2.8886 h 18.916 z"
     id="path14359-1-7-5-3-0-73-1-9-8-1-76-4-7"
     inkscape:connector-curvature="0"
     sodipodi:nodetypes="cccccccccccccccsssssssssscccccccccccccccccsssccssccssssssssccssssssccssssccccccccccc" />
  <path
     style="fill:none;stroke:#000000;stroke-width:1;stroke-linecap:round;stroke-linejoin:round;stroke-miterlimit:4;stroke-dasharray:none;stroke-opacity:1"
     d="m 432.56291,188.13467 23.81163,0.001 1.44165,-12.01349 11.72532,-17.20326 76.26327,-0.65039 V 36.234739 l -48.19857,0.608594 c -0.12687,2.583524 -2.98016,2.547183 -3.16714,0.979688 l -4.24462,0.226971 -1.37763,7.459125 0.0107,3.59144 -1.18991,3.157218 c -0.002,0.929952 -0.18272,1.788918 -1.28385,1.976235 l -6.86475,17.760867 -32.26678,1.066863 c -0.81483,0.02694 -1.61187,0.468442 -1.68059,1.279599 l -0.81041,9.566352 c -0.0353,0.416174 0.10522,0.696824 0.48298,1.102697 l 0.58125,0.624508 c 0.46631,0.501016 0.48473,1.239218 0.4868,1.777997 l 0.0715,18.693887 c 0.004,1.07701 -0.47575,2.01678 -1.38348,2.73852 l -1.57201,1.24992 c -0.76161,0.60556 -1.14645,1.64962 -1.14209,2.78786 l 0.13341,34.87056 -4.95598,6.45919 -5.0337,7.0842 z"
     id="path14359-1-7-5-3-0-73-1-9-8-1-76-32"
     inkscape:connector-curvature="0"
     sodipodi:nodetypes="ccccccccccccccsssssssssscccc" />
  <path
     style="fill:#000000;fill-opacity:1;stroke:#000000;stroke-width:1;stroke-linecap:round;stroke-linejoin:round;stroke-miterlimit:4;stroke-dasharray:none;stroke-opacity:1"
     d="m 453.40286,119.88223 c -1.61974,0.0634 -2.79382,0.94108 -2.79393,2.43373 l -0.002,23.50328 h -8.20663 l 0.002,-25.93701 z"
     id="path14359-1-7-5-3-0-73-1-9-8-1-76-38"
     inkscape:connector-curvature="0"
     sodipodi:nodetypes="cscccc" />
  <path
     style="fill:#999999;fill-opacity:1;stroke:none;stroke-width:1;stroke-linecap:round;stroke-linejoin:round;stroke-miterlimit:4;stroke-dasharray:none;stroke-opacity:1"
     d="m 163.99501,108.38538 -7.11082,-17.311842 10.01466,-28.182999 0.82932,-2.199164 8.7248,-24.687773 h 93.82227 l -10e-4,103.115568 h -93.82288 l -11.68208,-28.81951 z m 3.50068,1.94509 h 18.592 l 0.79591,0.69187 c 1.02736,0.0406 0.97273,-2.63696 -0.3683,-2.63696 H 167.52649 Z M 187.41476,60.691375 H 168.8825 l 1.5399,2.199164 h 18.73099 l -0.002,-6.394321 c -3.6e-4,-1.13834 -1.73663,-1.195808 -1.73663,0 z"
     id="path14359-1-7-5-3-0-73-1-9-8-1-2"
     inkscape:connector-curvature="0"
     sodipodi:nodetypes="cccccccccccccsccccccssc" />
  <path
     style="fill:#000000;fill-opacity:1;stroke:#000000;stroke-width:1;stroke-linecap:round;stroke-linejoin:round;stroke-miterlimit:4;stroke-dasharray:none;stroke-opacity:1"
     d="m 40.131737,151.92138 -4e-4,6.27047 h 2.850216 l -1.88e-4,2.95284 h -7.884594 l -4.927508,-12.4157 13.672401,-1.12891 -8.742893,-17.82271 h 7.061198 l 8.739573,17.07694 -7.181442,0.7881 -6.119747,0.542 -1.41e-4,3.73697 z"
     id="path14359-1-7-5-3-0-73-1-9-8-4-4"
     inkscape:connector-curvature="0"
     sodipodi:nodetypes="cccccccccccccc" />
  <path
     style="fill:#000000;fill-opacity:1;stroke:#000000;stroke-width:1;stroke-linecap:round;stroke-linejoin:round;stroke-miterlimit:4;stroke-dasharray:none;stroke-opacity:1"
     d="m 168.68911,60.50603 1.79399,2.511617 h 4.59267 l -2e-5,1.578729 h -2.51161 l -7e-5,6.601965 h -2.51162 l -6e-5,6.889006 h -2.43986 l -7e-5,6.386682 h -2.58337 l -1.2e-4,11.553437 h 2.58338 l -6e-5,5.597314 h 2.43986 l -6e-5,5.66908 h 2.51162 l -10e-6,1.14817 h -5.095 l -2e-5,1.93753 h 5.095 l -5e-5,4.37739 h 2.51162 l -6e-5,5.74084 h 2.43986 l -4e-5,4.01859 h 2.22457 l -5e-5,5.16675 h 2.58338 l -8e-5,7.17605 h 2.58304 l -3e-5,2.29121 h -8.48235 L 156.85671,91.104756 176.42549,36.03482 h 8.48174 l -2e-5,1.507857 h -2.58338 l -6e-5,6.458442 h -2.58338 l -7e-5,6.817246 h -2.22457 l -7e-5,6.314922 h -2.43985 l -4e-5,3.372743 z"
     id="path14359-1-7-5-3-0-73-1-9-8-1-3"
     inkscape:connector-curvature="0"
     sodipodi:nodetypes="cccccccccccccccccccccccccccccccccccccccccccccc" />
  <path
     style="fill:#000000;fill-opacity:1;stroke:#000000;stroke-width:1;stroke-linecap:round;stroke-linejoin:round;stroke-miterlimit:4;stroke-dasharray:none;stroke-opacity:1"
     d="m 310.7982,117.21488 1.62711,3.13034 -8.67184,-0.0438 -5.44568,-25.208873 14.24477,-2.72326 -8.79709,-37.315089 8.26503,0.01943 -2.7e-4,9.002551 h 2.23742 l -3e-4,9.864991 h 2.38997 l -3.4e-4,10.983692 h 2.33912 l -2e-4,6.763106 -12.05161,2.237415 -3.8e-4,12.661757 h 2.28827 l -3.5e-4,10.62774 z"
     id="path14359-1-7-5-3-0-73-1-9-8-1-0-6"
     inkscape:connector-curvature="0"
     sodipodi:nodetypes="ccccccccccccccccccc" />
  <path
     style="fill:#000000;fill-opacity:1;stroke:#000000;stroke-width:1;stroke-linecap:round;stroke-linejoin:round;stroke-miterlimit:4;stroke-dasharray:none;stroke-opacity:1"
     d="m 483.62155,71.163008 4.81594,-11.122579 c 0.34533,-0.797552 0.76678,-1.213198 1.68305,-1.213198 h 1.77962 l 0.11268,-3.410009 c 0.0205,-0.61927 0.66679,-1.182235 1.31429,-1.137373 -0.60595,-0.05695 -0.83407,-0.679487 -0.83407,-1.238474 v -4.347294 c 0,-0.753512 0.58429,-1.516498 1.32921,-1.516498 h 0.94554 v -2.805521 h 2.09782 V 39.01377 l 0.73297,-1.465948 h 6.62204 v -0.789104 l -6.62442,0.08364 c -0.12687,2.583524 -2.98016,2.547183 -3.16714,0.979688 l -4.24462,0.226971 -1.37763,7.459125 0.0107,3.59144 -1.18991,3.157218 c -0.002,0.929952 -0.18272,1.788918 -1.28385,1.976235 l -6.46279,16.754995 z m -30.19219,9.559665 v -7.86747 l -6.21712,0.205562 c -0.81483,0.02694 -1.61187,0.468442 -1.68059,1.279599 l -0.81041,9.566352 c -0.0353,0.416174 0.10522,0.696824 0.48298,1.102697 l 0.58125,0.624508 c 0.46631,0.501016 0.48473,1.239218 0.4868,1.777997 l 0.0715,18.693892 c 0.004,1.07701 -0.49609,1.99191 -1.38348,2.73852 l -1.30268,1.09602 7.27537,-0.082 v -1.61597 l 2.49638,-0.0281 v -0.63561 h -2.42396 v -1.46207 h 2.42396 v -4.50164 h -2.42396 v -1.731398 h 2.42396 V 97.76741 h -2.42396 v -2.116153 h 2.42396 v -3.886025 h -2.42396 v -2.154629 h 2.42396 v -3.347368 h -2.42396 v -5.540472 z"
     id="path14359-1-7-5-3-0-73-1-9-8-1-76-32-3"
     inkscape:connector-curvature="0"
     sodipodi:nodetypes="csscscsssccccccccccccccccccsssssssscccccccccccccccccccccccc" />
  <path
     style="fill:none;stroke:#000000;stroke-width:1;stroke-linecap:butt;stroke-linejoin:miter;stroke-miterlimit:4;stroke-dasharray:none;stroke-opacity:1"
     d="m 173.12994,164.14868 -0.002,10.77764"
     id="path14359-1-7-5-3-0-73-1-9-8"
     inkscape:connector-curvature="0"
     sodipodi:nodetypes="cc" />
  <path
     style="fill:none;stroke:#000000;stroke-width:1;stroke-linecap:butt;stroke-linejoin:miter;stroke-miterlimit:4;stroke-dasharray:none;stroke-opacity:1"
     d="m 14.199939,162.01001 14.411814,0.002"
     id="path14359-1-7-5-3-0-73-1-9-8-7"
     inkscape:connector-curvature="0"
     sodipodi:nodetypes="cc" />
  <path
     style="fill:none;stroke:#000000;stroke-width:1;stroke-linecap:butt;stroke-linejoin:miter;stroke-miterlimit:4;stroke-dasharray:none;stroke-opacity:1"
     d="m 14.199939,128.31135 14.411814,0.002"
     id="path14359-1-7-5-3-0-73-1-9-8-8"
     inkscape:connector-curvature="0"
     sodipodi:nodetypes="cc" />
  <path
     style="fill:none;stroke:#000000;stroke-width:1;stroke-linecap:butt;stroke-linejoin:miter;stroke-miterlimit:4;stroke-dasharray:none;stroke-opacity:1"
     d="m 281.76859,54.871444 14.60497,0.002"
     id="path14359-1-7-5-3-0-73-1-9-8-9"
     inkscape:connector-curvature="0"
     sodipodi:nodetypes="cc" />
  <path
     style="fill:none;stroke:#000000;stroke-width:1;stroke-linecap:butt;stroke-linejoin:miter;stroke-miterlimit:4;stroke-dasharray:none;stroke-opacity:1"
     d="m 281.76859,121.23199 14.60497,0.002"
     id="path14359-1-7-5-3-0-73-1-9-8-91"
     inkscape:connector-curvature="0"
     sodipodi:nodetypes="cc" />
  <path
     style="fill:none;stroke:#000000;stroke-width:1;stroke-linecap:butt;stroke-linejoin:miter;stroke-miterlimit:4;stroke-dasharray:none;stroke-opacity:1"
     d="m 441.16993,40.895021 -0.002,11.364707"
     id="path14359-1-7-5-3-0-73-1-9-8-80"
     inkscape:connector-curvature="0"
     sodipodi:nodetypes="cc" />
  <path
     style="fill:none;stroke:#000000;stroke-width:1;stroke-linecap:round;stroke-linejoin:round;stroke-miterlimit:4;stroke-dasharray:none;stroke-opacity:1"
     d="m 172.68458,129.77438 -0.002,31.36732 H 35.081497 L 30.153989,148.726 43.82639,147.59709 35.083497,129.77438 Z"
     id="path14359-1-7-5-3-0-73-1-9-8-4"
     inkscape:connector-curvature="0"
     sodipodi:nodetypes="ccccccc" />
  <path
     style="fill:none;stroke:#000000;stroke-width:1;stroke-linecap:round;stroke-linejoin:round;stroke-miterlimit:4;stroke-dasharray:none;stroke-opacity:1"
     d="m 222.86302,36.040342 -19.43076,53.86267 19.25946,49.252898 m 47.53774,0 H 176.40658 L 156.8398,91.110278 176.40858,36.040342 h 93.82227 z M 229.60195,36.040342 210.06842,90.426123 229.59059,139.15591"
     id="path14359-1-7-5-3-0-73-1-9-8-1"
     inkscape:connector-curvature="0"
     sodipodi:nodetypes="cccccccccccc" />
  <path
     style="fill:none;stroke:#000000;stroke-width:2;stroke-linecap:butt;stroke-linejoin:round;stroke-miterlimit:4;stroke-dasharray:none;stroke-opacity:1"
     d="m 269.73146,36.021754 -0.002,103.134156"
     id="path14359-1-7-5-3-0-73-1-9-8-1-7"
     inkscape:connector-curvature="0"
     sodipodi:nodetypes="cc" />
  <path
     style="fill:none;stroke:#000000;stroke-width:1;stroke-linecap:round;stroke-linejoin:round;stroke-miterlimit:4;stroke-dasharray:none;stroke-opacity:1"
     d="m 441.35093,54.855444 -0.002,64.825226 -137.62494,0.72001 -5.44567,-25.31058 14.24477,-2.723262 -8.7971,-37.315085 z"
     id="path14359-1-7-5-3-0-73-1-9-8-1-0"
     inkscape:connector-curvature="0"
     sodipodi:nodetypes="ccccccc" />
  <path
     style="fill:none;stroke:#000000;stroke-width:1;stroke-linecap:round;stroke-linejoin:round;stroke-miterlimit:4;stroke-dasharray:none;stroke-opacity:1"
     d="m 419.43296,120.04732 -0.002,27.83086"
     id="path14359-1-7-5-3-0-73-1-9-8-1-76"
     inkscape:connector-curvature="0"
     sodipodi:nodetypes="cc" />
  <path
     style="fill:none;stroke:#000000;stroke-width:1;stroke-linecap:round;stroke-linejoin:round;stroke-miterlimit:4;stroke-dasharray:none;stroke-opacity:1"
     d="m 434.56942,119.95776 -0.002,27.83085"
     id="path14359-1-7-5-3-0-73-1-9-8-1-76-8"
     inkscape:connector-curvature="0"
     sodipodi:nodetypes="cc" />
  <path
     style="fill:none;stroke:#000000;stroke-width:1;stroke-linecap:round;stroke-linejoin:round;stroke-miterlimit:4;stroke-dasharray:none;stroke-opacity:1"
     d="m 422.83643,119.95776 -0.002,27.83085"
     id="path14359-1-7-5-3-0-73-1-9-8-1-76-5"
     inkscape:connector-curvature="0"
     sodipodi:nodetypes="cc" />
  <path
     style="fill:none;stroke:#000000;stroke-width:1;stroke-linecap:round;stroke-linejoin:round;stroke-miterlimit:4;stroke-dasharray:none;stroke-opacity:1"
     d="m 431.07639,119.95776 -0.002,27.83085"
     id="path14359-1-7-5-3-0-73-1-9-8-1-76-1"
     inkscape:connector-curvature="0"
     sodipodi:nodetypes="cc" />
  <path
     style="fill:#000000;fill-opacity:1;stroke:#000000;stroke-width:1;stroke-linecap:round;stroke-linejoin:round;stroke-miterlimit:4;stroke-dasharray:none;stroke-opacity:1"
     d="m 437.39647,154.22851 -4.93902,-0.1342 -0.048,6.96791 z m -7.43623,5.23469 v -5.47822 l -12.4997,-1.539 0.002,-4.45444 127.9881,-1.07478 -0.002,7.32052 -101.95327,0.86817 v 1.82607 l -2.54633,0.0191 v 1.34553 l -4.99757,0.0122 5.5e-4,2.96444 h 0.62471 l 6.9e-4,3.70019 h 1.82608 l 10e-4,7.16015 h -1.82607 l 1.5e-4,3.02741 h 1.92218 l 5e-5,0.91304 h -5.14185 l 1.1e-4,2.16246 h -0.72082 l 4e-4,9.46675 h -2.93133 l -0.004,-7.91958 c 3.6508,-2.44842 3.1444,-13.59473 0.25731,-20.32001 z"
     id="path14359-1-7-5-3-0-73-1-9-8-1-76-3"
     inkscape:connector-curvature="0"
     sodipodi:nodetypes="ccccccccccccccccccccccccccccccc" />
  <path
     style="fill:none;stroke:#000000;stroke-width:1;stroke-linecap:round;stroke-linejoin:round;stroke-miterlimit:4;stroke-dasharray:none;stroke-opacity:1"
     d="m 436.75678,183.09075 -0.002,2.8886 h 18.916 l 0.002,-2.8886 z"
     id="path14359-1-7-5-3-0-73-1-9-8-1-76-4"
     inkscape:connector-curvature="0"
     sodipodi:nodetypes="ccccc" />
  <path
     style="fill:none;stroke:#000000;stroke-width:1;stroke-linecap:round;stroke-linejoin:round;stroke-miterlimit:4;stroke-dasharray:none;stroke-opacity:1"
     d="m 436.64038,172.26498 -0.002,2.8886 h 18.79959 l 0.002,-2.8886 z"
     id="path14359-1-7-5-3-0-73-1-9-8-1-76-40"
     inkscape:connector-curvature="0"
     sodipodi:nodetypes="ccccc" />
  <path
     style="fill:none;stroke:#000000;stroke-width:1;stroke-linecap:round;stroke-linejoin:round;stroke-miterlimit:4;stroke-dasharray:none;stroke-opacity:1"
     d="m 455.73098,160.91538 -0.002,3.70345 h -19.03239 l 0.002,-3.70345 z"
     id="path14359-1-7-5-3-0-73-1-9-8-1-76-30"
     inkscape:connector-curvature="0"
     sodipodi:nodetypes="ccccc" />
  <path
     style="fill:none;stroke:#000000;stroke-width:1;stroke-linecap:round;stroke-linejoin:round;stroke-miterlimit:4;stroke-dasharray:none;stroke-opacity:1"
     d="m 433.90485,176.3392 -0.002,2.01555 h 3.9578 c 1.02602,0 0.97079,-2.01555 0.002,-2.01555 z"
     id="path14359-1-7-5-3-0-73-1-9-8-1-76-44"
     inkscape:connector-curvature="0"
     sodipodi:nodetypes="ccssc" />
  <path
     style="fill:none;stroke:#000000;stroke-width:2;stroke-linecap:round;stroke-linejoin:round;stroke-miterlimit:4;stroke-dasharray:none;stroke-opacity:1"
     d="m 462.35436,163.00092 -6.08977,-0.002"
     id="path14359-1-7-5-3-0-73-1-9-8-1-76-6"
     inkscape:connector-curvature="0"
     sodipodi:nodetypes="cc" />
  <path
     style="fill:none;stroke:#000000;stroke-width:2;stroke-linecap:round;stroke-linejoin:round;stroke-miterlimit:4;stroke-dasharray:none;stroke-opacity:1"
     d="m 457.29069,173.71028 -1.31712,-0.002"
     id="path14359-1-7-5-3-0-73-1-9-8-1-76-14"
     inkscape:connector-curvature="0"
     sodipodi:nodetypes="cc" />
  <path
     style="fill:none;stroke:#000000;stroke-width:1;stroke-linecap:round;stroke-linejoin:round;stroke-miterlimit:4;stroke-dasharray:none;stroke-opacity:1"
     d="m 526.05506,64.240389 -0.002,17.265797 c -8e-5,0.689862 0.48128,1.152353 1.07035,1.152353 h 15.044 c 0.56269,0 1.18207,-0.250437 1.18215,-0.957794 l 0.002,-17.603866 c 7e-5,-0.649809 -0.25668,-1.039647 -0.845,-1.039647 h -15.15667 c -0.91603,0 -1.29479,0.615122 -1.29485,1.183157 z"
     id="path14359-1-7-5-3-0-73-1-9-8-3-2"
     inkscape:connector-curvature="0"
     sodipodi:nodetypes="sssssssss" />
  <path
     style="fill:none;stroke:#000000;stroke-width:1;stroke-linecap:round;stroke-linejoin:round;stroke-miterlimit:4;stroke-dasharray:none;stroke-opacity:1"
     d="m 521.60215,81.757086 c -1.3e-4,1.004373 -0.59107,1.690224 -1.68923,1.690224 h -16.2825 c -0.71765,0 -1.52231,-0.487216 -1.52219,-1.295838 l 5e-4,-3.462308 c 1.2e-4,-0.849641 0.038,-1.667512 0.26479,-2.402095 l 3.62422,-11.739446 c 0.31952,-1.034965 1.27481,-1.189308 2.08476,-1.208687 l 11.77423,-0.281704 c 1.02201,-0.02445 1.7477,0.955972 1.74757,1.971928 z"
     id="path14359-1-7-5-3-0-73-1-9-8-3-7"
     inkscape:connector-curvature="0"
     sodipodi:nodetypes="sssssssssss" />
  <path
     style="fill:none;stroke:#000000;stroke-width:1;stroke-linecap:round;stroke-linejoin:round;stroke-miterlimit:4;stroke-dasharray:none;stroke-opacity:1"
     d="m 502.22291,59.000694 -12.23572,-0.09482 c -0.89546,-0.0069 -1.29124,0.689353 -1.62965,1.470767 l -4.78359,11.045434 c -0.36389,0.840229 -0.28624,1.672544 0.73059,2.278276 l 11.83138,7.048028 c 0.7613,0.453511 1.4252,0.07725 1.57772,-0.399813 l 6.08681,-19.037899 c 0.46187,-1.444605 -0.39247,-2.300789 -1.57754,-2.309973 z"
     id="path14359-1-7-5-3-0-73-1-9-8-3"
     inkscape:connector-curvature="0"
     sodipodi:nodetypes="sssssssss" />
  <path
     style="fill:#000000;fill-opacity:1;stroke:#000000;stroke-width:1;stroke-linecap:round;stroke-linejoin:round;stroke-miterlimit:4;stroke-dasharray:none;stroke-opacity:1"
     d="m 507.96766,63.277303 3.26911,-0.08188 6.6e-4,-2.955234 h -7.21162 c -0.0705,0.515563 -0.11119,1.017597 -0.28202,1.54669 l -6.01963,18.644475 c 1.44454,-0.54866 2.94542,-0.935403 4.33362,-1.11 l 0.002,-1.115286 c 0.001,-0.674061 0.0328,-1.02111 0.274,-1.801361 l 3.659,-11.838277 c 0.24183,-0.782387 0.98849,-1.26442 1.97507,-1.28913 z"
     id="path14359-1-7-5-3-0-73-1-9-8-3-3"
     inkscape:connector-curvature="0"
     sodipodi:nodetypes="scccsccssss" />
  <path
     style="fill:#000000;fill-opacity:1;stroke:#000000;stroke-width:1;stroke-linecap:round;stroke-linejoin:round;stroke-miterlimit:4;stroke-dasharray:none;stroke-opacity:1"
     d="m 525.99672,82.03879 0.002,-17.516697 h -4.39458 l -0.002,17.516697 z"
     id="path14359-1-7-5-3-0-73-1-9-8-3-0"
     inkscape:connector-curvature="0"
     sodipodi:nodetypes="ccccc" />
  <path
     style="fill:#000000;fill-opacity:1;stroke:#000000;stroke-width:1;stroke-linecap:round;stroke-linejoin:round;stroke-miterlimit:4;stroke-dasharray:none;stroke-opacity:1"
     d="m 543.40603,81.813427 0.002,-17.516697 h 2.30997 l -0.002,17.516697 z"
     id="path14359-1-7-5-3-0-73-1-9-8-3-1"
     inkscape:connector-curvature="0"
     sodipodi:nodetypes="ccccc" />
  <path
     style="fill:none;stroke:#000000;stroke-width:1;stroke-linecap:round;stroke-linejoin:round;stroke-miterlimit:4;stroke-dasharray:none;stroke-opacity:1"
     d="m 493.31906,54.319116 6.64822,-0.281704 c 0.84433,-0.03578 1.57775,-0.596144 1.57805,-1.65944 l 9.5e-4,-3.26775 c 3.8e-4,-1.30727 -0.92631,-2.009953 -2.02773,-1.997437 l -4.95799,0.05634"
     id="path14359-1-7-5-3-0-73-1-9-8-3-03"
     inkscape:connector-curvature="0"
     sodipodi:nodetypes="cssssc" />
  <path
     style="fill:#000000;fill-opacity:1;stroke:#000000;stroke-width:1;stroke-linecap:round;stroke-linejoin:round;stroke-miterlimit:4;stroke-dasharray:none;stroke-opacity:1"
     d="m 501.54682,48.352283 -0.002,4.840016 h 5.97312 c 0.62329,0 1.40716,-0.319511 1.40753,-1.014134 l 0.002,-2.898905 c 2.5e-4,-0.477703 -0.26835,-0.926977 -0.84463,-0.926977 z"
     id="path14359-1-7-5-3-0-73-1-9-8-3-04"
     inkscape:connector-curvature="0"
     sodipodi:nodetypes="ccssssc" />
  <path
     style="fill:none;stroke:#000000;stroke-width:2;stroke-linecap:round;stroke-linejoin:round;stroke-miterlimit:4;stroke-dasharray:none;stroke-opacity:1"
     d="m 188.30049,57.367529 -2.1e-4,6.080677 h -17.43779 m 0.78779,47.433674 h 14.49562 l -2.2e-4,7.08533"
     id="path14359-1-7-5-3-0-73-1-9-8-86"
     inkscape:connector-curvature="0"
     sodipodi:nodetypes="cccccc" />
  <text
     xml:space="preserve"
     style="font-style:normal;font-variant:normal;font-weight:normal;font-stretch:normal;line-height:0%;font-family:Arial;-inkscape-font-specification:Arial;text-align:start;letter-spacing:-0.1px;word-spacing:0.70999992px;text-anchor:start;fill:#000000;fill-opacity:1;stroke:none;stroke-width:1px;stroke-linecap:butt;stroke-linejoin:miter;stroke-opacity:1"
     x="185.52603"
     y="137.50081"
     id="text8328"><tspan
       sodipodi:role="line"
       id="tspan8330"
       x="185.52603"
       y="137.50081"
       style="font-size:10px;line-height:1.29999995">12 inches</tspan></text>
  <text
     xml:space="preserve"
     style="font-style:normal;font-variant:normal;font-weight:normal;font-stretch:normal;line-height:0%;font-family:Arial;-inkscape-font-specification:Arial;text-align:start;letter-spacing:-0.1px;word-spacing:0.70999992px;text-anchor:start;fill:#000000;fill-opacity:1;stroke:none;stroke-width:1px;stroke-linecap:butt;stroke-linejoin:miter;stroke-opacity:1"
     x="453.62732"
     y="137.98022"
     id="text8328-7"><tspan
       sodipodi:role="line"
       id="tspan8330-0"
       x="453.62732"
       y="137.98022"
       style="font-size:10px;line-height:1.29999995">80 inches</tspan></text>
  <path
     style="fill:none;stroke:#000000;stroke-width:1;stroke-linecap:round;stroke-linejoin:round;stroke-miterlimit:4;stroke-dasharray:none;stroke-opacity:1"
     d="m 421.87277,166.53092 -4.294,0.14571 -4.79704,-4.81669 -5.35747,0.44065 c -0.83892,0.069 -1.21319,0.47301 -1.60398,0.82489 l -3.31361,2.98373 0.64083,11.06851 3.22344,5.18985 6.80523,-0.092 3.99074,-4.20119 c 0.43671,-0.45975 0.81894,-0.98089 1.68711,-0.98348 l 3.01675,-0.009"
     id="path14359-1-7-5-3-0-73-1-9-8-6"
     inkscape:connector-curvature="0"
     sodipodi:nodetypes="cccssccccssc" />
  <path
     style="fill:none;stroke:#000000;stroke-width:1;stroke-linecap:round;stroke-linejoin:round;stroke-miterlimit:4;stroke-dasharray:none;stroke-opacity:1"
     d="m 430.94939,162.12692 c -0.75665,-2.23289 -2.08015,-3.4226 -3.56092,-4.09312 l -4.60231,2.29884 c -1.78517,0.89169 -1.93808,2.98728 -1.2576,4.4764 1.01945,2.23094 1.61775,4.79596 1.59326,7.0851 -0.0228,2.12883 -0.72984,5.97419 -2.59066,8.24359 l -5.53732,6.75313 7.92872,0.082 4.1677,-6.3246 c 0.36043,-0.54696 0.73244,-0.90845 1.40639,-0.89686 l 1.3233,0.0228"
     id="path14359-1-7-5-3-0-73-1-9-8-5"
     inkscape:connector-curvature="0"
     sodipodi:nodetypes="ccssssccssc" />
  <path
     style="fill:#000000;fill-opacity:1;stroke:#000000;stroke-width:1;stroke-linecap:butt;stroke-linejoin:miter;stroke-miterlimit:4;stroke-dasharray:none;stroke-opacity:1"
     d="m 288.69683,116.5779 0.6271,2.16172 0.61952,-2.16928 z"
     id="path14359-1-7-3-7-3-9"
     inkscape:connector-curvature="0"
     sodipodi:nodetypes="cccc" />
  <path
     style="fill:#000000;fill-opacity:1;stroke:#000000;stroke-width:1;stroke-linecap:butt;stroke-linejoin:miter;stroke-miterlimit:4;stroke-dasharray:none;stroke-opacity:1"
     d="m 288.70278,59.224763 0.6271,-2.16172 0.61952,2.16928 z"
     id="path14359-1-7-3-7-3-5"
     inkscape:connector-curvature="0"
     sodipodi:nodetypes="cccc" />
  <path
     style="fill:none;stroke:#000000;stroke-width:1;stroke-linecap:butt;stroke-linejoin:miter;stroke-miterlimit:4;stroke-dasharray:none;stroke-opacity:1"
     d="m 289.30262,59.256663 4e-4,57.352617"
     id="path14359-1-7-5-3-0-73-1-9-7"
     inkscape:connector-curvature="0"
     sodipodi:nodetypes="cc" />
  <path
     style="fill:#000000;fill-opacity:1;stroke:#000000;stroke-width:1;stroke-linecap:butt;stroke-linejoin:miter;stroke-miterlimit:4;stroke-dasharray:none;stroke-opacity:1"
     d="m 20.923298,157.52158 0.6271,2.16172 0.61952,-2.16928 z"
     id="path14359-1-7-3-7-3-9-9"
     inkscape:connector-curvature="0"
     sodipodi:nodetypes="cccc" />
  <path
     style="fill:#000000;fill-opacity:1;stroke:#000000;stroke-width:1;stroke-linecap:butt;stroke-linejoin:miter;stroke-miterlimit:4;stroke-dasharray:none;stroke-opacity:1"
     d="m 20.929248,132.86717 0.6271,-2.16172 0.61952,2.16928 z"
     id="path14359-1-7-3-7-3-5-9"
     inkscape:connector-curvature="0"
     sodipodi:nodetypes="cccc" />
  <path
     style="fill:none;stroke:#000000;stroke-width:1;stroke-linecap:butt;stroke-linejoin:miter;stroke-miterlimit:4;stroke-dasharray:none;stroke-opacity:1"
     d="m 21.529088,132.89907 4e-4,24.65389"
     id="path14359-1-7-5-3-0-73-1-9-7-4"
     inkscape:connector-curvature="0"
     sodipodi:nodetypes="cc" />
  <path
     style="fill:#000000;fill-opacity:1;stroke:#000000;stroke-width:1;stroke-linecap:butt;stroke-linejoin:miter;stroke-miterlimit:4;stroke-dasharray:none;stroke-opacity:1"
     d="m 168.73506,170.57562 2.16691,-0.60892 -2.164,-0.63772 z"
     id="path14359-1-7-3-7-3-9-3"
     inkscape:connector-curvature="0"
     sodipodi:nodetypes="cccc" />
  <path
     style="fill:#000000;fill-opacity:1;stroke:#000000;stroke-width:1;stroke-linecap:butt;stroke-linejoin:miter;stroke-miterlimit:4;stroke-dasharray:none;stroke-opacity:1"
     d="m 16.760404,170.52786 -2.15638,-0.64523 2.17441,-0.60128 z"
     id="path14359-1-7-3-7-3-5-7"
     inkscape:connector-curvature="0"
     sodipodi:nodetypes="cccc" />
  <path
     style="fill:none;stroke:#000000;stroke-width:1;stroke-linecap:butt;stroke-linejoin:miter;stroke-miterlimit:4;stroke-dasharray:none;stroke-opacity:1"
     d="m 16.797334,169.92831 151.974196,0.0414"
     id="path14359-1-7-5-3-0-73-1-9-7-6"
     inkscape:connector-curvature="0"
     sodipodi:nodetypes="cc" />
  <path
     style="fill:#000000;fill-opacity:1;stroke:#000000;stroke-width:1;stroke-linecap:butt;stroke-linejoin:miter;stroke-miterlimit:4;stroke-dasharray:none;stroke-opacity:1"
     d="m 436.77956,49.409647 2.16691,-0.60892 -2.164,-0.63772 z"
     id="path14359-1-7-3-7-3-9-3-8"
     inkscape:connector-curvature="0"
     sodipodi:nodetypes="cccc" />
  <path
     style="fill:#000000;fill-opacity:1;stroke:#000000;stroke-width:1;stroke-linecap:butt;stroke-linejoin:miter;stroke-miterlimit:4;stroke-dasharray:none;stroke-opacity:1"
     d="m 285.03972,49.361887 -2.15638,-0.64523 2.17441,-0.60128 z"
     id="path14359-1-7-3-7-3-5-7-3"
     inkscape:connector-curvature="0"
     sodipodi:nodetypes="cccc" />
  <path
     style="fill:none;stroke:#000000;stroke-width:1;stroke-linecap:butt;stroke-linejoin:miter;stroke-miterlimit:4;stroke-dasharray:none;stroke-opacity:1"
     d="m 285.07665,48.762337 151.73938,0.0414"
     id="path14359-1-7-5-3-0-73-1-9-7-6-6"
     inkscape:connector-curvature="0"
     sodipodi:nodetypes="cc" />
  <path
     style="fill:#000000;fill-opacity:1;stroke:#000000;stroke-width:1;stroke-linecap:butt;stroke-linejoin:miter;stroke-miterlimit:4;stroke-dasharray:none;stroke-opacity:1"
     d="m 343.55966,11.091791 10.4037,-2.9012299 -10.40803,-2.78636 -0.008,2.78874 z"
     id="path14359-1-7-5-3-0-73-2-0-8"
     inkscape:connector-curvature="0"
     sodipodi:nodetypes="ccccc" />
  <path
     style="fill:none;fill-rule:evenodd;stroke:#000000;stroke-width:1px;stroke-linecap:butt;stroke-linejoin:miter;stroke-opacity:1"
     d="m 343.53975,8.1931011 -27.70982,0.00841 V 38.493005"
     id="path8331-0-6-2"
     inkscape:connector-curvature="0"
     sodipodi:nodetypes="ccc" />
  <path
     style="fill:#000000;fill-opacity:1;stroke:#000000;stroke-width:1;stroke-linecap:butt;stroke-linejoin:miter;stroke-miterlimit:4;stroke-dasharray:none;stroke-opacity:1"
     d="m 85.46185,101.09517 10.4037,-2.901228 -10.40803,-2.78636 -0.008,2.78874 z"
     id="path14359-1-7-5-3-0-73-2-0-8-1"
     inkscape:connector-curvature="0"
     sodipodi:nodetypes="ccccc" />
  <path
     style="fill:none;fill-rule:evenodd;stroke:#000000;stroke-width:1px;stroke-linecap:butt;stroke-linejoin:miter;stroke-opacity:1"
     d="m 85.44194,98.196482 -27.195728,0.0082 v 30.028188"
     id="path8331-0-6-2-3"
     inkscape:connector-curvature="0"
     sodipodi:nodetypes="ccc" />
  <path
     style="fill:none;fill-rule:evenodd;stroke:#000000;stroke-width:1px;stroke-linecap:round;stroke-linejoin:round;stroke-opacity:1"
     d="m 487.76409,51.978738 h -0.5191 c -0.83028,0 -0.81341,-6.643575 -0.0114,-6.643575 h 1.55728"
     id="path8331-0-6-2-7-4"
     inkscape:connector-curvature="0"
     sodipodi:nodetypes="cssc" />
  <path
     style="fill:#000000;fill-opacity:1;fill-rule:evenodd;stroke:#000000;stroke-width:1px;stroke-linecap:round;stroke-linejoin:round;stroke-opacity:1"
     d="m 486.66731,46.65649 c -0.24788,1.506512 -0.24408,3.013184 0.0114,4.520014 -0.0157,-0.84748 -1.2584,-0.866584 -1.22694,0 -1.35505,0 -1.13892,-4.520014 0.17736,-4.520014 z"
     id="path8331-0-6-2-7-3"
     inkscape:connector-curvature="0"
     sodipodi:nodetypes="cccsc" />
  <path
     style="fill:none;fill-rule:evenodd;stroke:#000000;stroke-width:1px;stroke-linecap:round;stroke-linejoin:round;stroke-opacity:1"
     d="m 482.71167,34.09866 c 1.05711,0.640683 2.57318,1.604469 3.77281,1.604469 h 8.06953 c 0.29988,0 0.66535,0.0057 0.66307,-0.424713 l -0.002,-0.377707 c -0.002,-0.307581 -0.20842,-0.424712 -0.66137,-0.424712 h -6.18192 c -1.35881,0 -2.08092,0.533369 -3.06666,0.943805 -0.29113,-1.294762 -0.34128,-2.63772 -0.004,-4.058164 1.0175,0.691801 1.80205,1.557278 3.071,1.557278 h 6.08754 c 0.30215,0 0.75216,-0.131017 0.75141,-0.519093 l -0.002,-1.032973 h 2.3595 l 0.0114,5.463819 c 0.004,1.878783 -0.65355,1.986519 -1.74603,2.076371 -0.40117,0.03299 -0.80662,-0.01323 -1.08637,-0.514062 -0.21228,-0.380037 -0.28112,-1.04435 -0.61811,-1.038185 l -7.7392,0.141571 c -1.03522,0.01894 -2.58254,0.517853 -3.48023,1.078774 -0.35556,-0.990995 -0.75,-2.871555 -0.19837,-4.476478 z"
     id="path8331-0-6-2-7"
     inkscape:connector-curvature="0"
     sodipodi:nodetypes="cssssssccsssccssssscc" />
  <path
     style="fill:none;fill-rule:evenodd;stroke:#000000;stroke-width:1px;stroke-linecap:round;stroke-linejoin:round;stroke-opacity:1"
     d="m 446.1528,107.01065 c -2.41321,-0.14843 -2.95722,-2.41196 -3.03767,-3.67179 -0.11119,-1.74097 1.07956,-2.95415 3.11204,-2.80319"
     id="path8331-0-6-2-7-6"
     inkscape:connector-curvature="0"
     sodipodi:nodetypes="csc" />
  <path
     style="fill:none;fill-rule:evenodd;stroke:#000000;stroke-width:1px;stroke-linecap:round;stroke-linejoin:round;stroke-opacity:1"
     d="m 446.23857,96.890431 c -1.58121,-0.0077 -3.07543,-1.882102 -3.16195,-4.015623 -0.0637,-1.571403 1.96265,-2.928451 3.15055,-2.973937"
     id="path8331-0-6-2-7-34"
     inkscape:connector-curvature="0"
     sodipodi:nodetypes="csc" />
  <text
     xml:space="preserve"
     style="font-style:normal;font-variant:normal;font-weight:normal;font-stretch:normal;line-height:0%;font-family:Arial;-inkscape-font-specification:Arial;text-align:start;letter-spacing:-0.1px;word-spacing:0.70999992px;text-anchor:start;fill:#000000;fill-opacity:1;stroke:none;stroke-width:1px;stroke-linecap:butt;stroke-linejoin:miter;stroke-opacity:1"
     x="349.30319"
     y="42.345638"
     id="text8328-7-8"><tspan
       sodipodi:role="line"
       id="tspan8330-0-4"
       x="349.30319"
       y="42.345638"
       style="font-size:10px;line-height:1.29999995">108 inches</tspan></text>
  <text
     xml:space="preserve"
     style="font-style:normal;font-variant:normal;font-weight:normal;font-stretch:normal;line-height:0%;font-family:Arial;-inkscape-font-specification:Arial;text-align:start;letter-spacing:-0.1px;word-spacing:0.70999992px;text-anchor:start;fill:#000000;fill-opacity:1;stroke:none;stroke-width:1px;stroke-linecap:butt;stroke-linejoin:miter;stroke-opacity:1"
     x="357.77097"
     y="11.24848"
     id="text8328-7-2"><tspan
       sodipodi:role="line"
       id="tspan8330-0-3"
       x="357.77097"
       y="11.24848"
       style="font-size:10px;line-height:1.29999995">30 mph</tspan></text>
  <text
     xml:space="preserve"
     style="font-style:normal;font-variant:normal;font-weight:normal;font-stretch:normal;line-height:0%;font-family:Arial;-inkscape-font-specification:Arial;text-align:start;letter-spacing:-0.1px;word-spacing:0.70999992px;text-anchor:start;fill:#000000;fill-opacity:1;stroke:none;stroke-width:1px;stroke-linecap:butt;stroke-linejoin:miter;stroke-opacity:1"
     x="-111.13168"
     y="283.82138"
     id="text8328-7-8-1"
     transform="rotate(-90)"><tspan
       sodipodi:role="line"
       id="tspan8330-0-4-4"
       x="-111.13168"
       y="283.82138"
       style="font-size:10px;line-height:1.29999995">60 inches</tspan></text>
  <text
     xml:space="preserve"
     style="font-style:normal;font-variant:normal;font-weight:normal;font-stretch:normal;line-height:0%;font-family:Arial;-inkscape-font-specification:Arial;text-align:start;letter-spacing:-0.1px;word-spacing:0.70999992px;text-anchor:start;fill:#000000;fill-opacity:1;stroke:none;stroke-width:1px;stroke-linecap:butt;stroke-linejoin:miter;stroke-opacity:1"
     x="62.995853"
     y="180.74989"
     id="text8328-7-8-2"><tspan
       sodipodi:role="line"
       id="tspan8330-0-4-7"
       x="62.995853"
       y="180.74989"
       style="font-size:10px;line-height:1.29999995">108 inches</tspan></text>
  <text
     xml:space="preserve"
     style="font-style:normal;font-variant:normal;font-weight:normal;font-stretch:normal;line-height:0%;font-family:Arial;-inkscape-font-specification:Arial;text-align:start;letter-spacing:-0.1px;word-spacing:0.70999992px;text-anchor:start;fill:#000000;fill-opacity:1;stroke:none;stroke-width:1px;stroke-linecap:butt;stroke-linejoin:miter;stroke-opacity:1"
     x="100.66283"
     y="101.32804"
     id="text8328-7-8-5"><tspan
       sodipodi:role="line"
       id="tspan8330-0-4-48"
       x="100.66283"
       y="101.32804"
       style="font-size:10px;line-height:1.29999995">30 mph</tspan></text>
  <text
     xml:space="preserve"
     style="font-style:normal;font-variant:normal;font-weight:normal;font-stretch:normal;line-height:0%;font-family:Arial;-inkscape-font-specification:Arial;text-align:start;letter-spacing:-0.1px;word-spacing:0.70999992px;text-anchor:start;fill:#000000;fill-opacity:1;stroke:none;stroke-width:1px;stroke-linecap:butt;stroke-linejoin:miter;stroke-opacity:1"
     x="-167.36458"
     y="8.346385"
     id="text8328-7-8-8"
     transform="rotate(-90)"><tspan
       sodipodi:role="line"
       id="tspan8330-0-4-77"
       x="-167.36458"
       y="8.346385"
       style="font-size:10px;line-height:1.29999995">36 inches</tspan></text>
  <text
     xml:space="preserve"
     style="font-style:normal;font-variant:normal;font-weight:normal;font-stretch:normal;line-height:0%;font-family:Arial;-inkscape-font-specification:Arial;text-align:start;letter-spacing:0.56999999px;word-spacing:0px;text-anchor:start;fill:#000000;fill-opacity:1;stroke:none;stroke-width:1px;stroke-linecap:butt;stroke-linejoin:miter;stroke-opacity:1"
     x="88.049591"
     y="435.97992"
     id="text8328-7-8-0"><tspan
       sodipodi:role="line"
       id="tspan8330-0-4-0"
       x="88.049591"
       y="435.97992"
       style="font-size:12.5px;line-height:1.29999995">Figure 2. Schematic of Front End Structure (Short Hood) Offset Impact</tspan></text>
  <path
     style="fill:none;stroke:#000000;stroke-width:1;stroke-linecap:round;stroke-linejoin:round;stroke-miterlimit:4;stroke-dasharray:none;stroke-opacity:1"
     d="m 513.65335,174.22036 -0.002,8.94842 c -2.7e-4,1.23242 1.41041,2.99264 3.01523,3.01423 l 15.27667,0.20551 c 1.43564,0.0193 3.76635,-1.61465 3.76679,-3.49376 l 0.002,-8.6744 z"
     id="path14359-1-7-5-3-0-73-1-9-8-95"
     inkscape:connector-curvature="0"
     sodipodi:nodetypes="csssscc" />
  <path
     style="fill:none;stroke:#000000;stroke-width:1;stroke-linecap:round;stroke-linejoin:round;stroke-miterlimit:4;stroke-dasharray:none;stroke-opacity:1"
     d="m 516.11854,177.11896 10e-4,-1.59699 h 17.26333 l -10e-4,1.59699 z m -7.5e-4,3.28715 2.5e-4,-1.80361 h 17.26333 l -2.5e-4,1.80361 z"
     id="path14359-1-7-5-3-0-73-1-9-8-95-6"
     inkscape:connector-curvature="0"
     sodipodi:nodetypes="cccccccccc" />
  <path
     style="fill:none;stroke:#000000;stroke-width:1;stroke-linecap:round;stroke-linejoin:round;stroke-miterlimit:4;stroke-dasharray:none;stroke-opacity:1"
     d="m 533.38087,183.71683 1.2e-4,-1.65536 h -17.26333 l -1.2e-4,1.65536 z"
     id="path14359-1-7-5-3-0-73-1-9-8-95-0"
     inkscape:connector-curvature="0"
     sodipodi:nodetypes="ccccc" />
  <path
     style="fill:none;stroke:#000000;stroke-width:1;stroke-linecap:round;stroke-linejoin:round;stroke-miterlimit:4;stroke-dasharray:none;stroke-opacity:1"
     d="m 545.43978,166.8903 h -5.61842 l -3.9048,-2.32917 h -22.60673 l -4.24733,2.94572 h -6.09697 l -4.72686,-3.63078 h -14.45461 l -5.49395,3.67087 c -0.93612,0.62549 -1.77177,0.71347 -2.65817,0.71347 h -4.58885 l -0.002,9.42795 h 1.98765 v -3.83629 h 3.76779 c 1.37464,0 1.76767,1.4251 1.98665,2.50044 l 1.91815,9.41947 h 17.05781 l 3.28825,-9.41947 c 0.43408,-1.24344 1.19599,-2.50044 2.6032,-2.50044 h 7.74109 v 8.73442 c 0,2.46025 2.61229,5.37765 5.2064,5.37765 h 17.12632 c 1.0439,0 3.83629,-2.35315 3.83629,-4.14456 v -9.96751 h 7.67158"
     id="path14359-1-7-5-3-0-73-1-9-8-95-06"
     inkscape:connector-curvature="0"
     sodipodi:nodetypes="ccccccccssccccssccsscsssscc" />
  <path
     style="fill:none;stroke:#000000;stroke-width:1;stroke-linecap:round;stroke-linejoin:round;stroke-miterlimit:4;stroke-dasharray:none;stroke-opacity:1"
     d="m 493.44431,175.38495 -0.002,7.78383 h -9.52223 l 0.002,-7.78383 z"
     id="path14359-1-7-5-3-0-73-1-9-8-95-5"
     inkscape:connector-curvature="0"
     sodipodi:nodetypes="ccccc" />
  <path
     style="fill:none;stroke:#000000;stroke-width:1;stroke-linecap:round;stroke-linejoin:round;stroke-miterlimit:4;stroke-dasharray:none;stroke-opacity:1"
     d="m 537.83571,182.57801 h 4.24732 c 1.51376,0 1.5063,2.64593 -0.002,2.64593 h -4.79536"
     id="path14359-1-7-5-3-0-73-1-9-8-95-3"
     inkscape:connector-curvature="0"
     sodipodi:nodetypes="cssc" />
  <path
     style="fill:none;stroke:#000000;stroke-width:1;stroke-linecap:round;stroke-linejoin:round;stroke-miterlimit:4;stroke-dasharray:none;stroke-opacity:1"
     d="m 537.71058,175.37107 3.26248,0.002"
     id="path14359-1-7-5-3-0-73-1-9-8-95-09"
     inkscape:connector-curvature="0"
     sodipodi:nodetypes="cc" />
  <path
     style="fill:none;stroke:#000000;stroke-width:1;stroke-linecap:round;stroke-linejoin:round;stroke-miterlimit:4;stroke-dasharray:none;stroke-opacity:1"
     d="m 504.33664,175.933 c 0.52444,1.00051 0.87132,2.12676 0.85845,3.2849 -0.0269,2.42123 -0.96842,4.37427 -1.40849,5.66351 1.6087,-0.57355 4.62037,-2.9482 4.52335,-7.23578 -0.0605,-2.6737 -4.67399,-3.04939 -3.97331,-1.71263 z"
     id="path14359-1-7-5-3-0-73-1-9-8-95-7"
     inkscape:connector-curvature="0"
     sodipodi:nodetypes="sscss" />
  <path
     style="fill:none;stroke:#000000;stroke-width:1;stroke-linecap:round;stroke-linejoin:round;stroke-miterlimit:4;stroke-dasharray:none;stroke-opacity:1"
     d="m 544.34286,174.97516 c -0.25041,1.27453 -0.39258,2.74453 -0.44741,3.90145 -0.0777,1.63878 0.47916,3.26861 0.99745,4.77294 -1.33467,-0.0255 -4.27784,-2.33166 -4.31783,-6.41372 -0.0262,-2.67426 4.05877,-3.74162 3.76779,-2.26067 z"
     id="path14359-1-7-5-3-0-73-1-9-8-95-7-1"
     inkscape:connector-curvature="0"
     sodipodi:nodetypes="sscss" />
  <path
     style="color:#000000;display:inline;overflow:visible;visibility:visible;fill:none;fill-rule:evenodd;stroke:#000000;stroke-width:1;stroke-linecap:butt;stroke-linejoin:round;stroke-miterlimit:4;stroke-dasharray:none;stroke-dashoffset:0;stroke-opacity:1;marker:none;enable-background:accumulate"
     d="m 492.0047,179.48239 a 3.4252625,2.8087151 0 0 1 -3.42526,2.80872 3.4252625,2.8087151 0 0 1 -3.42527,-2.80872 3.4252625,2.8087151 0 0 1 3.42527,-2.80872 3.4252625,2.8087151 0 0 1 3.42526,2.80872 z"
     id="path8902"
     inkscape:connector-curvature="0" />
  <path
     style="color:#000000;display:inline;overflow:visible;visibility:visible;fill:none;fill-rule:evenodd;stroke:#000000;stroke-width:1;stroke-linecap:round;stroke-linejoin:round;stroke-miterlimit:4;stroke-dasharray:none;stroke-dashoffset:0;stroke-opacity:1;marker:none;enable-background:accumulate"
     d="m 503.41682,179.23823 a 14.35364,12.092958 0 0 1 -14.35363,12.09299 14.35364,12.092958 0 0 1 -14.35367,-12.09299 14.35364,12.092958 0 0 1 14.35367,-12.09297 14.35364,12.092958 0 0 1 14.35363,12.09297 z"
     id="path8902-5"
     inkscape:connector-curvature="0" />
  <path
     style="color:#000000;display:inline;overflow:visible;visibility:visible;fill:none;fill-rule:evenodd;stroke:#000000;stroke-width:1;stroke-linecap:round;stroke-linejoin:round;stroke-miterlimit:4;stroke-dasharray:none;stroke-dashoffset:0;stroke-opacity:1;marker:none;enable-background:accumulate"
     d="m 545.73212,182.14776 c -0.34849,-1.04363 -0.5349,-2.14444 -0.5349,-3.28193 0,-1.07832 0.16752,-2.12368 0.48183,-3.11862"
     id="path8902-5-1"
     inkscape:connector-curvature="0"
     sodipodi:nodetypes="csc" />
</svg>
