<?xml version="1.0" encoding="UTF-8" standalone="no"?>
<!-- Created with Inkscape (http://www.inkscape.org/) -->

<svg
   xmlns:dc="http://purl.org/dc/elements/1.1/"
   xmlns:cc="http://creativecommons.org/ns#"
   xmlns:rdf="http://www.w3.org/1999/02/22-rdf-syntax-ns#"
   xmlns:svg="http://www.w3.org/2000/svg"
   xmlns="http://www.w3.org/2000/svg"
   xmlns:sodipodi="http://sodipodi.sourceforge.net/DTD/sodipodi-0.dtd"
   xmlns:inkscape="http://www.inkscape.org/namespaces/inkscape"
   id="svg11965"
   version="1.1"
   inkscape:version="0.91 r13725"
   width="489"
   height="321"
   viewBox="0 0 489 321"
   sodipodi:docname="er31mr00.012.svg">
  <metadata
     id="metadata11971">
    <rdf:RDF>
      <cc:Work
         rdf:about="">
        <dc:format>image/svg+xml</dc:format>
        <dc:type
           rdf:resource="http://purl.org/dc/dcmitype/StillImage" />
        <dc:title></dc:title>
      </cc:Work>
    </rdf:RDF>
  </metadata>
  <defs
     id="defs11969" />
  <sodipodi:namedview
     pagecolor="#ffffff"
     bordercolor="#666666"
     borderopacity="1"
     objecttolerance="10"
     gridtolerance="10"
     guidetolerance="10"
     inkscape:pageopacity="0"
     inkscape:pageshadow="2"
     inkscape:window-width="1904"
     inkscape:window-height="1156"
     id="namedview11967"
     showgrid="false"
     fit-margin-top="0"
     fit-margin-left="0"
     fit-margin-right="0"
     fit-margin-bottom="0"
     inkscape:zoom="2.2732753"
     inkscape:cx="289.28812"
     inkscape:cy="160.57368"
     inkscape:window-x="0"
     inkscape:window-y="0"
     inkscape:window-maximized="0"
     inkscape:current-layer="svg11965" />
  <path
     style="fill:none;stroke:#000000;stroke-width:1;stroke-linecap:butt;stroke-linejoin:miter;stroke-miterlimit:4;stroke-dasharray:none;stroke-opacity:1"
     d="m 20.624998,175.28357 29.55868,2.5e-4 m 6.322352,5e-5 7.112643,6e-5 m 6.915074,6e-5 33.587503,2.8e-4 m 6.51993,6e-5 7.31022,6e-5 m 6.71749,5e-5 32.99479,2.8e-4 m 6.91507,6e-5 6.12478,5e-5 m 7.11265,6e-5 31.80934,2.7e-4 m 7.90294,6e-5 6.91507,6e-5 m 7.70537,7e-5 26.51402,2.2e-4"
     id="path14359-1-7-5-3-0-73-1-9"
     inkscape:connector-curvature="0"
     sodipodi:nodetypes="cccccccccccccccccc" />
  <path
     style="fill:#000000;fill-opacity:1;stroke:#000000;stroke-width:1;stroke-linecap:butt;stroke-linejoin:miter;stroke-miterlimit:4;stroke-dasharray:none;stroke-opacity:1"
     d="m 42.362609,268.97494 0.6271,2.16172 0.61952,-2.16928 z"
     id="path14359-1-7-3-7-3-9"
     inkscape:connector-curvature="0"
     sodipodi:nodetypes="cccc" />
  <path
     style="fill:#000000;fill-opacity:1;stroke:#000000;stroke-width:1;stroke-linecap:butt;stroke-linejoin:miter;stroke-miterlimit:4;stroke-dasharray:none;stroke-opacity:1"
     d="m 42.368559,182.37991 0.6271,-2.16172 0.61952,2.16928 z"
     id="path14359-1-7-3-7-3-5"
     inkscape:connector-curvature="0"
     sodipodi:nodetypes="cccc" />
  <path
     style="fill:none;stroke:#000000;stroke-width:1;stroke-linecap:butt;stroke-linejoin:miter;stroke-miterlimit:4;stroke-dasharray:none;stroke-opacity:1"
     d="m 42.968399,182.41181 1.56e-4,33.92026 m 8.1e-5,17.44465 1.63e-4,35.2296"
     id="path14359-1-7-5-3-0-73-1-9-7"
     inkscape:connector-curvature="0"
     sodipodi:nodetypes="cccc" />
  <path
     style="fill:#000000;fill-opacity:1;stroke:#000000;stroke-width:1;stroke-linecap:butt;stroke-linejoin:miter;stroke-miterlimit:4;stroke-dasharray:none;stroke-opacity:1"
     d="m 53.708331,190.11851 0.01581,-2.25079 1.18592,1.91916 z"
     id="path14359-1-7-3-7-3-5-5"
     inkscape:connector-curvature="0"
     sodipodi:nodetypes="cccc" />
  <path
     style="fill:none;stroke:#000000;stroke-width:1;stroke-linecap:butt;stroke-linejoin:miter;stroke-miterlimit:4;stroke-dasharray:none;stroke-opacity:1"
     d="m 54.294252,189.98613 3.344728,12.40813 7.632036,0"
     id="path14359-1-7-5-3-0-73-1-9-7-8"
     inkscape:connector-curvature="0"
     sodipodi:nodetypes="ccc" />
  <path
     style="fill:#000000;fill-opacity:1;stroke:#000000;stroke-width:1;stroke-linecap:butt;stroke-linejoin:miter;stroke-miterlimit:4;stroke-dasharray:none;stroke-opacity:1"
     d="m 132.10082,153.00814 1.26569,1.86128 -0.0827,-2.2545 z"
     id="path14359-1-7-3-7-3-9-7"
     inkscape:connector-curvature="0"
     sodipodi:nodetypes="cccc" />
  <path
     style="fill:none;stroke:#000000;stroke-width:1;stroke-linecap:butt;stroke-linejoin:miter;stroke-miterlimit:4;stroke-dasharray:none;stroke-opacity:1"
     d="m 104.73996,89.729093 7.94355,0 20.00343,63.121167"
     id="path14359-1-7-5-3-0-73-1-9-7-4"
     inkscape:connector-curvature="0"
     sodipodi:nodetypes="ccc" />
  <path
     style="fill:#000000;fill-opacity:1;stroke:#000000;stroke-width:1;stroke-linecap:butt;stroke-linejoin:miter;stroke-miterlimit:4;stroke-dasharray:none;stroke-opacity:1"
     d="m 161.44634,95.274187 2.17117,0.593572 -1.52686,-1.660807 z"
     id="path14359-1-7-3-7-3-9-4"
     inkscape:connector-curvature="0"
     sodipodi:nodetypes="cccc" />
  <path
     style="fill:none;stroke:#000000;stroke-width:1;stroke-linecap:butt;stroke-linejoin:miter;stroke-miterlimit:4;stroke-dasharray:none;stroke-opacity:1"
     d="m 70.382875,45.65531 8.566572,0 82.840103,49.118216"
     id="path14359-1-7-5-3-0-73-1-9-7-82"
     inkscape:connector-curvature="0"
     sodipodi:nodetypes="ccc" />
  <path
     style="fill:#000000;fill-opacity:1;stroke:#000000;stroke-width:1;stroke-linecap:butt;stroke-linejoin:miter;stroke-miterlimit:4;stroke-dasharray:none;stroke-opacity:1"
     d="m 111.74574,76.853975 2.04399,0.942544 -1.23295,-1.889291 z"
     id="path14359-1-7-3-7-3-9-3"
     inkscape:connector-curvature="0"
     sodipodi:nodetypes="cccc" />
  <path
     style="fill:none;stroke:#000000;stroke-width:1;stroke-linecap:butt;stroke-linejoin:miter;stroke-miterlimit:4;stroke-dasharray:none;stroke-opacity:1"
     d="M 78.344361,45.430585 112.16661,76.416571"
     id="path14359-1-7-5-3-0-73-1-9-7-7"
     inkscape:connector-curvature="0"
     sodipodi:nodetypes="cc" />
  <path
     style="fill:#000000;fill-opacity:1;stroke:#000000;stroke-width:1;stroke-linecap:butt;stroke-linejoin:miter;stroke-miterlimit:4;stroke-dasharray:none;stroke-opacity:1"
     d="m 225.81637,267.92456 1.45008,1.7215 -0.3137,-2.2341 z"
     id="path14359-1-7-3-7-3-9-2"
     inkscape:connector-curvature="0"
     sodipodi:nodetypes="cccc" />
  <path
     style="fill:none;stroke:#000000;stroke-width:1;stroke-linecap:butt;stroke-linejoin:miter;stroke-miterlimit:4;stroke-dasharray:none;stroke-opacity:1"
     d="m 193.08552,212.70144 7.7878,0 25.50986,55.0059"
     id="path14359-1-7-5-3-0-73-1-9-7-828"
     inkscape:connector-curvature="0"
     sodipodi:nodetypes="ccc" />
  <path
     style="fill:#000000;fill-opacity:1;stroke:#000000;stroke-width:1;stroke-linecap:butt;stroke-linejoin:miter;stroke-miterlimit:4;stroke-dasharray:none;stroke-opacity:1"
     d="m 245.22743,149.37558 1.51545,1.66423 -0.39971,-2.22032 z"
     id="path14359-1-7-3-7-3-9-5"
     inkscape:connector-curvature="0"
     sodipodi:nodetypes="cccc" />
  <path
     style="fill:none;stroke:#000000;stroke-width:1;stroke-linecap:butt;stroke-linejoin:miter;stroke-miterlimit:4;stroke-dasharray:none;stroke-opacity:1"
     d="m 219.32242,111.41961 8.0993,0 18.3637,37.71703"
     id="path14359-1-7-5-3-0-73-1-9-7-73"
     inkscape:connector-curvature="0"
     sodipodi:nodetypes="ccc" />
  <path
     style="fill:#000000;fill-opacity:1;stroke:#000000;stroke-width:1;stroke-linecap:butt;stroke-linejoin:miter;stroke-miterlimit:4;stroke-dasharray:none;stroke-opacity:1"
     d="m 291.25361,215.31653 -0.93383,2.04799 1.88402,-1.24099 z"
     id="path14359-1-7-3-7-3-9-29"
     inkscape:connector-curvature="0"
     sodipodi:nodetypes="cccc" />
  <path
     style="fill:none;stroke:#000000;stroke-width:1;stroke-linecap:butt;stroke-linejoin:miter;stroke-miterlimit:4;stroke-dasharray:none;stroke-opacity:1"
     d="m 321.69691,189.38387 -7.42358,0 -22.58053,26.35166"
     id="path14359-1-7-5-3-0-73-1-9-7-0"
     inkscape:connector-curvature="0"
     sodipodi:nodetypes="ccc" />
  <path
     style="fill:#000000;fill-opacity:1;stroke:#000000;stroke-width:1;stroke-linecap:butt;stroke-linejoin:miter;stroke-miterlimit:4;stroke-dasharray:none;stroke-opacity:1"
     d="m 303.99005,223.22973 -2.10263,-0.80326 2.21298,-0.43849 z"
     id="path14359-1-7-3-7-3-5-6"
     inkscape:connector-curvature="0"
     sodipodi:nodetypes="cccc" />
  <path
     style="fill:none;stroke:#000000;stroke-width:1;stroke-linecap:butt;stroke-linejoin:miter;stroke-miterlimit:4;stroke-dasharray:none;stroke-opacity:1"
     d="m 304.07131,222.63457 c 0,0 9.40091,-0.52862 21.26474,7.77213 m 14.70833,14.59754 c 9.08563,12.61129 9.56266,23.55815 9.56266,23.55815"
     id="path14359-1-7-5-3-0-73-1-9-7-3"
     inkscape:connector-curvature="0"
     sodipodi:nodetypes="cccc" />
  <path
     style="fill:#000000;fill-opacity:1;stroke:#000000;stroke-width:1;stroke-linecap:butt;stroke-linejoin:miter;stroke-miterlimit:4;stroke-dasharray:none;stroke-opacity:1"
     d="m 349.00085,268.53101 0.6271,2.16172 0.61952,-2.16928 z"
     id="path14359-1-7-3-7-3-9-40"
     inkscape:connector-curvature="0"
     sodipodi:nodetypes="cccc" />
  <path
     style="fill:none;stroke:#000000;stroke-width:1;stroke-linecap:butt;stroke-linejoin:miter;stroke-miterlimit:4;stroke-dasharray:none;stroke-dashoffset:2.4000001;stroke-opacity:1"
     d="m 296.94437,183.56816 -2.7e-4,12.1888 m -1.5e-4,6.94463 -2.9e-4,13.17088 m -1.4e-4,6.70518 -3e-4,13.53007 m -1.5e-4,6.82491 -2.8e-4,13.29062 m -1.7e-4,7.66305 -2.5e-4,11.59011"
     id="path14359-1-7-5-3-0-73-1-9-1"
     inkscape:connector-curvature="0"
     sodipodi:nodetypes="cccccccccc" />
  <path
     style="fill:none;stroke:#000000;stroke-width:1;stroke-linecap:butt;stroke-linejoin:miter;stroke-miterlimit:4;stroke-dasharray:none;stroke-opacity:1"
     d="m 42.267535,276.24323 -0.002,20.06711 443.738755,0 0.002,-20.06711 z"
     id="path14359-1-7-5-3-0-73-1-9-5"
     inkscape:connector-curvature="0"
     sodipodi:nodetypes="ccccc" />
  <path
     style="fill:none;fill-rule:evenodd;stroke:#000000;stroke-width:1px;stroke-linecap:butt;stroke-linejoin:miter;stroke-opacity:1"
     d="m 42.241735,279.16952 3.055035,-2.93753"
     id="path20921"
     inkscape:connector-curvature="0" />
  <path
     style="fill:none;fill-rule:evenodd;stroke:#000000;stroke-width:1px;stroke-linecap:butt;stroke-linejoin:miter;stroke-opacity:1"
     d="M 42.241735,291.74216 57.575661,276.23199"
     id="path20923"
     inkscape:connector-curvature="0" />
  <path
     style="fill:none;fill-rule:evenodd;stroke:#000000;stroke-width:1px;stroke-linecap:butt;stroke-linejoin:miter;stroke-opacity:1"
     d="M 50.819333,296.20722 70.61831,276.17324"
     id="path20925"
     inkscape:connector-curvature="0" />
  <path
     style="fill:none;fill-rule:evenodd;stroke:#000000;stroke-width:1px;stroke-linecap:butt;stroke-linejoin:miter;stroke-opacity:1"
     d="M 63.391977,296.26597 83.249705,276.23199"
     id="path20927"
     inkscape:connector-curvature="0" />
  <path
     style="fill:none;fill-rule:evenodd;stroke:#000000;stroke-width:1px;stroke-linecap:butt;stroke-linejoin:miter;stroke-opacity:1"
     d="M 76.082123,296.32472 95.646098,276.23199"
     id="path20929"
     inkscape:connector-curvature="0" />
  <path
     style="fill:none;fill-rule:evenodd;stroke:#000000;stroke-width:1px;stroke-linecap:butt;stroke-linejoin:miter;stroke-opacity:1"
     d="M 88.713518,296.38347 108.33624,276.29074"
     id="path20931"
     inkscape:connector-curvature="0" />
  <path
     style="fill:none;fill-rule:evenodd;stroke:#000000;stroke-width:1px;stroke-linecap:butt;stroke-linejoin:miter;stroke-opacity:1"
     d="m 101.40366,296.32472 19.79898,-20.03398"
     id="path20933"
     inkscape:connector-curvature="0" />
  <path
     style="fill:none;fill-rule:evenodd;stroke:#000000;stroke-width:1px;stroke-linecap:butt;stroke-linejoin:miter;stroke-opacity:1"
     d="m 113.80006,296.32472 19.79897,-20.15148"
     id="path20935"
     inkscape:connector-curvature="0" />
  <path
     style="fill:none;fill-rule:evenodd;stroke:#000000;stroke-width:1px;stroke-linecap:butt;stroke-linejoin:miter;stroke-opacity:1"
     d="m 126.84271,296.32472 19.50522,-20.09273"
     id="path20937"
     inkscape:connector-curvature="0" />
  <path
     style="fill:none;fill-rule:evenodd;stroke:#000000;stroke-width:1px;stroke-linecap:butt;stroke-linejoin:miter;stroke-opacity:1"
     d="m 139.1216,296.32472 19.68147,-20.09273"
     id="path20939"
     inkscape:connector-curvature="0" />
  <path
     style="fill:none;fill-rule:evenodd;stroke:#000000;stroke-width:1px;stroke-linecap:butt;stroke-linejoin:miter;stroke-opacity:1"
     d="m 151.87049,296.32472 19.44648,-20.09273"
     id="path20941"
     inkscape:connector-curvature="0" />
  <path
     style="fill:none;fill-rule:evenodd;stroke:#000000;stroke-width:1px;stroke-linecap:butt;stroke-linejoin:miter;stroke-opacity:1"
     d="m 164.44314,296.32472 19.38772,-20.21024"
     id="path20943"
     inkscape:connector-curvature="0" />
  <path
     style="fill:none;fill-rule:evenodd;stroke:#000000;stroke-width:1px;stroke-linecap:butt;stroke-linejoin:miter;stroke-opacity:1"
     d="m 176.66328,296.26597 19.97523,-20.03398"
     id="path20945"
     inkscape:connector-curvature="0" />
  <path
     style="fill:none;fill-rule:evenodd;stroke:#000000;stroke-width:1px;stroke-linecap:butt;stroke-linejoin:miter;stroke-opacity:1"
     d="M 189.70593,296.26597 208.9174,276.17324"
     id="path20947"
     inkscape:connector-curvature="0" />
  <path
     style="fill:none;fill-rule:evenodd;stroke:#000000;stroke-width:1px;stroke-linecap:butt;stroke-linejoin:miter;stroke-opacity:1"
     d="m 202.10232,296.32472 19.56397,-20.15148"
     id="path20949"
     inkscape:connector-curvature="0" />
  <path
     style="fill:none;fill-rule:evenodd;stroke:#000000;stroke-width:1px;stroke-linecap:butt;stroke-linejoin:miter;stroke-opacity:1"
     d="m 214.67496,296.32472 19.62273,-20.09273"
     id="path20951"
     inkscape:connector-curvature="0" />
  <path
     style="fill:none;fill-rule:evenodd;stroke:#000000;stroke-width:1px;stroke-linecap:butt;stroke-linejoin:miter;stroke-opacity:1"
     d="m 227.13011,296.32472 5.74894,-5.88623 m 8.47589,-8.6783 5.45664,-5.58695"
     id="path20953"
     inkscape:connector-curvature="0"
     sodipodi:nodetypes="cccc" />
  <path
     style="fill:none;fill-rule:evenodd;stroke:#000000;stroke-width:1px;stroke-linecap:butt;stroke-linejoin:miter;stroke-opacity:1"
     d="m 239.644,296.32472 5.53244,-5.63036 m 8.96857,-9.12731 5.41547,-5.51132"
     id="path20955"
     inkscape:connector-curvature="0"
     sodipodi:nodetypes="cccc" />
  <path
     style="fill:none;fill-rule:evenodd;stroke:#000000;stroke-width:1px;stroke-linecap:butt;stroke-linejoin:miter;stroke-opacity:1"
     d="m 252.21664,296.26597 5.16777,-5.29118 m 8.97102,-9.18526 5.54269,-5.67505"
     id="path20957"
     inkscape:connector-curvature="0"
     sodipodi:nodetypes="cccc" />
  <path
     style="fill:none;fill-rule:evenodd;stroke:#000000;stroke-width:1px;stroke-linecap:butt;stroke-linejoin:miter;stroke-opacity:1"
     d="m 264.73054,296.32472 5.19728,-5.2586 m 9.40443,-9.5154 5.31477,-5.37748"
     id="path20959"
     inkscape:connector-curvature="0"
     sodipodi:nodetypes="cccc" />
  <path
     style="fill:none;fill-rule:evenodd;stroke:#000000;stroke-width:1px;stroke-linecap:butt;stroke-linejoin:miter;stroke-opacity:1"
     d="m 277.47943,296.32472 5.41937,-5.56584 m 8.72524,-8.96105 5.41937,-5.56584"
     id="path20961"
     inkscape:connector-curvature="0"
     sodipodi:nodetypes="cccc" />
  <path
     style="fill:none;fill-rule:evenodd;stroke:#000000;stroke-width:1px;stroke-linecap:butt;stroke-linejoin:miter;stroke-opacity:1"
     d="M 289.69957,296.26597 309.4398,276.29074"
     id="path20963"
     inkscape:connector-curvature="0" />
  <path
     style="fill:none;fill-rule:evenodd;stroke:#000000;stroke-width:1px;stroke-linecap:butt;stroke-linejoin:miter;stroke-opacity:1"
     d="M 302.80098,296.32472 322.3062,276.23199"
     id="path20965"
     inkscape:connector-curvature="0" />
  <path
     style="fill:none;fill-rule:evenodd;stroke:#000000;stroke-width:1px;stroke-linecap:butt;stroke-linejoin:miter;stroke-opacity:1"
     d="m 315.43237,296.38347 19.38772,-20.09273"
     id="path20967"
     inkscape:connector-curvature="0" />
  <path
     style="fill:none;fill-rule:evenodd;stroke:#000000;stroke-width:1px;stroke-linecap:butt;stroke-linejoin:miter;stroke-opacity:1"
     d="m 327.71126,296.38347 20.21023,-20.26899"
     id="path20969"
     inkscape:connector-curvature="0" />
  <path
     style="fill:none;fill-rule:evenodd;stroke:#000000;stroke-width:1px;stroke-linecap:butt;stroke-linejoin:miter;stroke-opacity:1"
     d="m 340.63641,296.38347 19.79898,-20.15148"
     id="path20971"
     inkscape:connector-curvature="0" />
  <path
     style="fill:none;fill-rule:evenodd;stroke:#000000;stroke-width:1px;stroke-linecap:butt;stroke-linejoin:miter;stroke-opacity:1"
     d="m 353.44406,296.32472 19.38772,-20.21024"
     id="path20973"
     inkscape:connector-curvature="0" />
  <path
     style="fill:none;fill-rule:evenodd;stroke:#000000;stroke-width:1px;stroke-linecap:butt;stroke-linejoin:miter;stroke-opacity:1"
     d="m 365.84045,296.38347 19.79898,-20.15148"
     id="path20975"
     inkscape:connector-curvature="0" />
  <path
     style="fill:none;fill-rule:evenodd;stroke:#000000;stroke-width:1px;stroke-linecap:butt;stroke-linejoin:miter;stroke-opacity:1"
     d="m 378.70685,296.32472 19.56397,-20.21024"
     id="path20977"
     inkscape:connector-curvature="0" />
  <path
     style="fill:none;fill-rule:evenodd;stroke:#000000;stroke-width:1px;stroke-linecap:butt;stroke-linejoin:miter;stroke-opacity:1"
     d="m 391.16199,296.38347 20.21023,-20.21023"
     id="path20979"
     inkscape:connector-curvature="0" />
  <path
     style="fill:none;fill-rule:evenodd;stroke:#000000;stroke-width:1px;stroke-linecap:butt;stroke-linejoin:miter;stroke-opacity:1"
     d="m 404.02839,296.32472 19.85772,-20.15148"
     id="path20981"
     inkscape:connector-curvature="0" />
  <path
     style="fill:none;fill-rule:evenodd;stroke:#000000;stroke-width:1px;stroke-linecap:butt;stroke-linejoin:miter;stroke-opacity:1"
     d="m 416.65978,296.26597 19.91648,-20.09273"
     id="path20983"
     inkscape:connector-curvature="0" />
  <path
     style="fill:none;fill-rule:evenodd;stroke:#000000;stroke-width:1px;stroke-linecap:butt;stroke-linejoin:miter;stroke-opacity:1"
     d="m 429.70243,296.26597 20.03398,-20.15149"
     id="path20985"
     inkscape:connector-curvature="0" />
  <path
     style="fill:none;fill-rule:evenodd;stroke:#000000;stroke-width:1px;stroke-linecap:butt;stroke-linejoin:miter;stroke-opacity:1"
     d="m 442.45133,296.26597 19.97523,-20.03398"
     id="path20987"
     inkscape:connector-curvature="0" />
  <path
     style="fill:none;fill-rule:evenodd;stroke:#000000;stroke-width:1px;stroke-linecap:butt;stroke-linejoin:miter;stroke-opacity:1"
     d="m 455.14147,296.32472 20.21024,-20.21024"
     id="path20989"
     inkscape:connector-curvature="0" />
  <path
     style="fill:none;fill-rule:evenodd;stroke:#000000;stroke-width:1px;stroke-linecap:butt;stroke-linejoin:miter;stroke-opacity:1"
     d="m 467.59662,296.32472 18.33021,-18.09521"
     id="path20991"
     inkscape:connector-curvature="0" />
  <path
     style="fill:none;fill-rule:evenodd;stroke:#000000;stroke-width:1px;stroke-linecap:butt;stroke-linejoin:miter;stroke-opacity:1"
     d="m 480.69802,296.32472 5.28756,-5.28756"
     id="path20993"
     inkscape:connector-curvature="0" />
  <path
     style="fill:none;stroke:#000000;stroke-width:1;stroke-linecap:butt;stroke-linejoin:miter;stroke-miterlimit:4;stroke-dasharray:none;stroke-opacity:1"
     d="m 168.20784,56.387179 -9e-5,4.396462 -7.71942,4.233182 16.31018,1.743078 -8.59097,4.357701 -7.1e-4,35.335388 m -4.5e-4,22.2906 -5.4e-4,26.70295"
     id="path14359-1-7-5-3-0-73-1-9-0"
     inkscape:connector-curvature="0"
     sodipodi:nodetypes="cccccccc" />
  <path
     style="fill:none;stroke:#000000;stroke-width:1;stroke-linecap:butt;stroke-linejoin:miter;stroke-miterlimit:4;stroke-dasharray:none;stroke-opacity:1"
     d="m 117.28511,46.053228 7.47027,3.773937 -16.80826,1.618571 9.33782,4.233184 -0.002,99.76762"
     id="path14359-1-7-5-3-0-73-1-9-2"
     inkscape:connector-curvature="0"
     sodipodi:nodetypes="ccccc" />
  <path
     style="color:#000000;display:inline;overflow:visible;visibility:visible;fill:none;fill-rule:evenodd;stroke:#000000;stroke-width:1;stroke-linecap:round;stroke-linejoin:round;stroke-miterlimit:4;stroke-dasharray:none;stroke-dashoffset:0;stroke-opacity:1;marker:none;enable-background:accumulate"
     d="m 57.397007,159.76546 162.853103,0 c 2.40669,0 4.35769,1.951 4.35769,4.35769 l 0,22.03746 c 0,2.40669 -1.951,4.35769 -4.35769,4.35769 l -162.853103,0 z"
     id="path21007"
     inkscape:connector-curvature="0"
     sodipodi:nodetypes="csssscc" />
  <path
     style="color:#000000;display:inline;overflow:visible;visibility:visible;fill:none;fill-rule:evenodd;stroke:#000000;stroke-width:1;stroke-linecap:butt;stroke-linejoin:miter;stroke-miterlimit:4;stroke-dasharray:none;stroke-dashoffset:0;stroke-opacity:1;marker:none;enable-background:accumulate"
     d="m 121.67512,155.53217 c 0,2.34321 -1.89955,4.24276 -4.24276,4.24276 -2.34321,0 -4.24277,-1.89955 -4.24277,-4.24276 0,-2.34322 1.89955,-4.24277 4.24277,-4.24277 2.34321,0 4.24276,1.89956 4.24276,4.24277 z"
     id="path21010"
     inkscape:connector-curvature="0"
     sodipodi:nodetypes="sssss" />
  <path
     style="color:#000000;display:inline;overflow:visible;visibility:visible;fill:none;fill-rule:evenodd;stroke:#000000;stroke-width:1;stroke-linecap:butt;stroke-linejoin:miter;stroke-miterlimit:4;stroke-dasharray:none;stroke-dashoffset:0;stroke-opacity:1;marker:none;enable-background:accumulate"
     d="m 172.40383,155.42149 c 0,2.34321 -1.89955,4.24276 -4.24276,4.24276 -2.34321,0 -4.24277,-1.89955 -4.24277,-4.24276 0,-2.34322 1.89955,-4.24277 4.24277,-4.24277 2.34321,0 4.24276,1.89956 4.24276,4.24277 z"
     id="path21010-8"
     inkscape:connector-curvature="0"
     sodipodi:nodetypes="sssss" />
  <path
     style="color:#000000;display:inline;overflow:visible;visibility:visible;fill:none;fill-rule:evenodd;stroke:#000000;stroke-width:1;stroke-linecap:butt;stroke-linejoin:miter;stroke-miterlimit:4;stroke-dasharray:none;stroke-dashoffset:0;stroke-opacity:1;marker:none;enable-background:accumulate"
     d="m 205.19315,258.28086 c 0,0.48399 -0.39235,0.87634 -0.87634,0.87634 -0.48399,0 -0.87635,-0.39235 -0.87635,-0.87634 0,-0.484 0.39235,-0.87635 0.87635,-0.87635 0.48399,0 0.87634,0.39236 0.87634,0.87635 z"
     id="path21010-5"
     inkscape:connector-curvature="0"
     sodipodi:nodetypes="sssss" />
  <path
     style="color:#000000;display:inline;overflow:visible;visibility:visible;fill:none;fill-rule:evenodd;stroke:#000000;stroke-width:1;stroke-linecap:butt;stroke-linejoin:miter;stroke-miterlimit:4;stroke-dasharray:none;stroke-dashoffset:0;stroke-opacity:1;marker:none;enable-background:accumulate"
     d="m 266.95305,258.42844 c 0,0.48399 -0.39235,0.87634 -0.87634,0.87634 -0.48399,0 -0.87635,-0.39235 -0.87635,-0.87634 0,-0.484 0.39235,-0.87635 0.87635,-0.87635 0.48399,0 0.87634,0.39236 0.87634,0.87635 z"
     id="path21010-5-8"
     inkscape:connector-curvature="0"
     sodipodi:nodetypes="sssss" />
  <path
     style="color:#000000;display:inline;overflow:visible;visibility:visible;fill:none;fill-rule:evenodd;stroke:#000000;stroke-width:1;stroke-linecap:butt;stroke-linejoin:miter;stroke-miterlimit:4;stroke-dasharray:none;stroke-dashoffset:0;stroke-opacity:1;marker:none;enable-background:accumulate"
     d="m 278.24249,186.78105 c 0,0.48399 -0.39235,0.87634 -0.87634,0.87634 -0.48399,0 -0.87635,-0.39235 -0.87635,-0.87634 0,-0.484 0.39235,-0.87635 0.87635,-0.87635 0.48399,0 0.87634,0.39236 0.87634,0.87635 z"
     id="path21010-5-7"
     inkscape:connector-curvature="0"
     sodipodi:nodetypes="sssss" />
  <path
     style="color:#000000;display:inline;overflow:visible;visibility:visible;fill:none;fill-rule:evenodd;stroke:#000000;stroke-width:1;stroke-linecap:butt;stroke-linejoin:miter;stroke-miterlimit:4;stroke-dasharray:none;stroke-dashoffset:0;stroke-opacity:1;marker:none;enable-background:accumulate"
     d="m 281.63671,144.64856 c 0,0.48399 -0.39235,0.87634 -0.87634,0.87634 -0.48399,0 -0.87635,-0.39235 -0.87635,-0.87634 0,-0.484 0.39235,-0.87635 0.87635,-0.87635 0.48399,0 0.87634,0.39236 0.87634,0.87635 z"
     id="path21010-5-2"
     inkscape:connector-curvature="0"
     sodipodi:nodetypes="sssss" />
  <path
     style="color:#000000;display:inline;overflow:visible;visibility:visible;fill:none;fill-rule:evenodd;stroke:#000000;stroke-width:1;stroke-linecap:butt;stroke-linejoin:miter;stroke-miterlimit:4;stroke-dasharray:none;stroke-dashoffset:0;stroke-opacity:1;marker:none;enable-background:accumulate"
     d="m 281.48913,106.94329 c 0,0.48399 -0.39235,0.87634 -0.87634,0.87634 -0.48399,0 -0.87635,-0.39235 -0.87635,-0.87634 0,-0.484 0.39235,-0.87635 0.87635,-0.87635 0.48399,0 0.87634,0.39236 0.87634,0.87635 z"
     id="path21010-5-1"
     inkscape:connector-curvature="0"
     sodipodi:nodetypes="sssss" />
  <path
     style="color:#000000;display:inline;overflow:visible;visibility:visible;fill:none;fill-rule:evenodd;stroke:#000000;stroke-width:1;stroke-linecap:butt;stroke-linejoin:miter;stroke-miterlimit:4;stroke-dasharray:none;stroke-dashoffset:0;stroke-opacity:1;marker:none;enable-background:accumulate"
     d="m 272.22219,62.338917 c 0,0.561824 -0.95098,1.01727 -2.12408,1.01727 -1.17309,0 -2.12409,-0.455446 -2.12409,-1.01727 0,-0.561834 0.95097,-1.01728 2.12409,-1.01728 1.1731,0 2.12408,0.455457 2.12408,1.01728 z"
     id="path21010-5-27"
     inkscape:connector-curvature="0"
     sodipodi:nodetypes="sssss" />
  <path
     style="color:#000000;display:inline;overflow:visible;visibility:visible;fill:none;fill-rule:evenodd;stroke:#000000;stroke-width:1;stroke-linecap:butt;stroke-linejoin:miter;stroke-miterlimit:4;stroke-dasharray:none;stroke-dashoffset:0;stroke-opacity:1;marker:none;enable-background:accumulate"
     d="m 295.05934,62.449597 c 0,0.561824 -0.95098,1.01727 -2.12408,1.01727 -1.17309,0 -2.12409,-0.455446 -2.12409,-1.01727 0,-0.561834 0.95097,-1.01728 2.12409,-1.01728 1.1731,0 2.12408,0.455457 2.12408,1.01728 z"
     id="path21010-5-27-5"
     inkscape:connector-curvature="0"
     sodipodi:nodetypes="sssss" />
  <path
     style="color:#000000;display:inline;overflow:visible;visibility:visible;fill:none;fill-rule:evenodd;stroke:#000000;stroke-width:1;stroke-linecap:round;stroke-linejoin:miter;stroke-miterlimit:4;stroke-dasharray:none;stroke-dashoffset:0;stroke-opacity:1;marker:none;enable-background:accumulate"
     d="m 196.84522,253.59274 c 0.76669,0.25217 1.04096,3.9785 0.50145,6.38599 -0.76626,3.4194 -0.1032,4.82899 -1.58954,6.18922 -4.18722,3.83195 -11.26428,8.11198 -21.34778,8.34506 -11.07515,0.25599 -11.44859,-1.57199 -28.79697,-1.51882 -4.31906,0.0132 -4.30081,3.08116 -9.7885,3.0081 -4.42703,-0.059 -6.0427,-1.64058 -6.20925,-3.49404 -0.94708,-10.54001 -2.94463,-29.78167 -3.20626,-32.08358 -0.2914,-2.56382 2.67218,-3.99962 4.77182,-3.93301 1.02932,0.0327 1.21137,1.11305 1.25697,2.54301 0.0357,1.12106 0.0236,2.49765 0.0317,3.17142 0.007,0.58813 1.94667,2.87248 3.46419,5.81758 1.1824,2.29472 1.63498,5.13629 3.79508,6.94229 2.07742,1.73687 5.00063,2.4776 7.79685,2.47088 14.94443,-0.0359 38.55711,-4.52434 47.22445,-7.04085 1.7213,-0.49977 2.95475,-0.74859 3.29663,-0.98052 1.71979,-1.16672 3.79535,-1.84836 6.03012,-1.84836 5.93943,0 10.75431,4.81491 10.75431,10.75434 0,5.93943 -4.81488,10.75431 -10.75431,10.75431 -2.99316,0 -5.70074,-1.2228 -7.65041,-3.1961"
     id="path21010-8-2"
     inkscape:connector-curvature="0"
     sodipodi:nodetypes="cssssssssssssssssssc" />
  <path
     style="color:#000000;display:inline;overflow:visible;visibility:visible;fill:none;fill-rule:evenodd;stroke:#000000;stroke-width:1;stroke-linecap:round;stroke-linejoin:round;stroke-miterlimit:4;stroke-dasharray:none;stroke-dashoffset:0;stroke-opacity:1;marker:none;enable-background:accumulate"
     d="m 212.93517,252.16122 c -0.98532,-2.25805 -2.027,-4.51611 -3.15736,-6.77417 -0.83448,-1.67292 -0.55962,-5.00753 2.41137,-5.00753 l 20.76954,0 m 21.65086,0 10.1517,0 c 9.83223,0 17.80284,7.97065 17.80284,17.80286 0,5.24658 -2.26956,9.96308 -5.88046,13.2213 l -47.19436,0 c -4.25091,0 -10.58192,-4.31957 -13.40589,-11.64443 -0.47423,-1.1905 -0.95405,-2.38099 -1.44421,-3.57149"
     id="path21010-8-0"
     inkscape:connector-curvature="0"
     sodipodi:nodetypes="ccsccsscscc" />
  <path
     style="fill:none;stroke:#000000;stroke-width:1;stroke-linecap:round;stroke-linejoin:round;stroke-miterlimit:4;stroke-dasharray:none;stroke-opacity:1"
     d="m 245.33425,228.48665 -12.19367,18.31688 c -0.64463,0.96834 -0.42545,2.42566 0.60732,3.15598 l 4.24315,3.00051 c 1.30186,0.9206 3.06765,0.57707 4.47436,-0.36369 6.50919,-4.35313 12.7094,-10.95133 16.71089,-20.81981 0.60918,-1.50238 0.51779,-2.75318 -0.83918,-4.207 -2.05264,-2.19914 -4.07661,-4.59727 -6.84475,-6.50644 -2.45331,-1.69203 -5.29155,-1.50216 -7.48823,1.94033 l -11.04454,17.30826 c -1.75967,2.75764 0.83136,5.52537 1.91466,3.85377"
     id="path14359-1-7-5-3-0-73-1-9-6"
     inkscape:connector-curvature="0"
     sodipodi:nodetypes="csssssssssc" />
  <path
     style="color:#000000;display:inline;overflow:visible;visibility:visible;fill:none;fill-rule:evenodd;stroke:#000000;stroke-width:1;stroke-linecap:round;stroke-linejoin:round;stroke-miterlimit:4;stroke-dasharray:none;stroke-dashoffset:0;stroke-opacity:1;marker:none;enable-background:accumulate"
     d="m 269.45729,144.71256 c 0.0658,-6.25758 5.07305,-11.33099 11.33098,-11.33099 6.25793,0 11.17006,5.07513 11.33099,11.33099 0.22379,8.69923 -0.2005,17.343 -0.85249,25.71673 -0.41847,5.37464 -1.29169,10.95011 -3.97773,10.97814 l -13.39172,0.13971 c -1.49826,0.0156 -2.86131,-2.82707 -3.44546,-9.05768 -0.8406,-8.96591 -1.08848,-18.84925 -0.99457,-27.7769 z"
     id="path21142"
     inkscape:connector-curvature="0"
     sodipodi:nodetypes="ssssssss" />
  <path
     style="fill:none;stroke:#000000;stroke-width:1;stroke-linecap:round;stroke-linejoin:round;stroke-miterlimit:4;stroke-dasharray:none;stroke-opacity:1"
     d="m 274.57207,181.65101 c -1.14534,0.38763 -2.12167,2.16911 -2.12455,3.79272 -0.0103,5.79135 -5.16181,7.42846 -8.21321,7.09651 -5.18919,8.88051 -14.54494,24.72489 -13.52352,27.80851"
     id="path14359-1-7-5-3-0-73-1-9-6-8"
     inkscape:connector-curvature="0"
     sodipodi:nodetypes="cscc" />
  <path
     style="fill:none;stroke:#000000;stroke-width:1;stroke-linecap:round;stroke-linejoin:round;stroke-miterlimit:4;stroke-dasharray:none;stroke-opacity:1"
     d="m 286.85228,181.49565 c 2.19171,3.54198 1.43398,8.50909 0.21179,10.79919 -6.82268,12.78408 -15.62647,24.52964 -25.59989,35.29834 -0.64522,0.69666 -1.39677,0.89857 -2.35153,0.74967"
     id="path14359-1-7-5-3-0-73-1-9-6-7"
     inkscape:connector-curvature="0"
     sodipodi:nodetypes="cssc" />
  <path
     style="fill:none;stroke:#000000;stroke-width:1;stroke-linecap:round;stroke-linejoin:round;stroke-miterlimit:4;stroke-dasharray:none;stroke-opacity:1"
     d="m 57.388526,168.54389 -9.627512,0 -0.002,13.91592 9.627512,0"
     id="path14359-1-7-5-3-0-73-1-9-6-0"
     inkscape:connector-curvature="0"
     sodipodi:nodetypes="cccc" />
  <path
     style="fill:none;stroke:#000000;stroke-width:1;stroke-linecap:round;stroke-linejoin:round;stroke-miterlimit:4;stroke-dasharray:none;stroke-opacity:1"
     d="m 233.35748,239.63175 c -1.80231,-4.50953 -2.69336,-11.58551 -2.73011,-17.60013 -0.0195,-3.1934 0.76818,-6.9454 1.2187,-11.30637 0.38287,-3.70619 0.35696,-7.89353 1.14027,-12.1128 2.65101,-14.27946 7.83424,-30.57471 16.39977,-43.16663 1.02988,-1.514 1.46787,-2.62754 1.93722,-4.27077 1.98264,-6.94139 5.67126,-14.2876 9.81052,-20.65269 l 38.52674,0.002 0,22.2384 c 0,29.11305 -13.75611,56.93106 -13.31477,86.4829 0.0543,3.63327 0.84533,7.94219 0.89027,12.2132 0.12721,12.08824 -3.71333,24.06621 -12.49041,24.06621 l -19.33774,0 c -1.22972,0 -4.58096,-2.5764 -5.61943,-3.9836"
     id="path14359-1-7-5-3-0-73-1-9-6-6"
     inkscape:connector-curvature="0"
     sodipodi:nodetypes="csssssccsssssc" />
  <path
     style="fill:none;stroke:#000000;stroke-width:1;stroke-linecap:round;stroke-linejoin:round;stroke-miterlimit:4;stroke-dasharray:none;stroke-opacity:1"
     d="m 296.31367,164.17534 -2.90166,0 0.002,-28.77743 3.04941,0 -0.002,44.322"
     id="path14359-1-7-5-3-0-73-1-9-6-1"
     inkscape:connector-curvature="0"
     sodipodi:nodetypes="ccccc" />
  <path
     style="fill:none;stroke:#000000;stroke-width:1;stroke-linecap:round;stroke-linejoin:round;stroke-miterlimit:4;stroke-dasharray:none;stroke-opacity:1"
     d="m 243.3334,104.92964 c 0.007,-28.490824 13.80736,-48.845893 37.96948,-48.877803 18.61638,-0.02459 35.30456,13.337634 35.51783,35.474468 0.07,7.264331 -1.7986,19.902595 -9.06281,19.820295 -18.64578,-0.21126 -37.85828,2.75182 -57.00965,8.94058 -3.50002,1.13103 -5.74991,-1.05382 -6.67433,-4.46883 -0.41802,-1.54425 -0.74138,-7.54978 -0.74052,-10.88871 z"
     id="path14359-1-7-5-3-0-73-1-9-6-2"
     inkscape:connector-curvature="0"
     sodipodi:nodetypes="sssssss" />
  <path
     style="color:#000000;display:inline;overflow:visible;visibility:visible;fill:none;fill-rule:evenodd;stroke:#000000;stroke-width:1;stroke-linecap:butt;stroke-linejoin:miter;stroke-miterlimit:4;stroke-dasharray:none;stroke-dashoffset:0;stroke-opacity:1;marker:none;enable-background:accumulate"
     d="m 277.92632,116.70492 c 0,0.21831 -0.17697,0.39528 -0.39528,0.39528 -0.21831,0 -0.39529,-0.17697 -0.39529,-0.39528 0,-0.21832 0.17697,-0.39529 0.39529,-0.39529 0.21831,0 0.39528,0.17698 0.39528,0.39529 z"
     id="path21010-5-1-8"
     inkscape:connector-curvature="0"
     sodipodi:nodetypes="sssss" />
  <path
     style="color:#000000;display:inline;overflow:visible;visibility:visible;fill:none;fill-rule:evenodd;stroke:#000000;stroke-width:1;stroke-linecap:butt;stroke-linejoin:miter;stroke-miterlimit:4;stroke-dasharray:none;stroke-dashoffset:0;stroke-opacity:1;marker:none;enable-background:accumulate"
     d="m 276.61674,125.26758 c 0,0.21831 -0.17697,0.39528 -0.39528,0.39528 -0.21831,0 -0.39529,-0.17697 -0.39529,-0.39528 0,-0.21832 0.17697,-0.39529 0.39529,-0.39529 0.21831,0 0.39528,0.17698 0.39528,0.39529 z"
     id="path21010-5-1-8-6"
     inkscape:connector-curvature="0"
     sodipodi:nodetypes="sssss" />
  <path
     style="fill:none;stroke:#000000;stroke-width:1;stroke-linecap:round;stroke-linejoin:round;stroke-miterlimit:4;stroke-dasharray:none;stroke-opacity:1"
     d="m 276.78707,116.60518 -4.0526,-0.002"
     id="path14359-1-7-5-3-0-73-1-9-12"
     inkscape:connector-curvature="0"
     sodipodi:nodetypes="cc" />
  <path
     style="fill:none;stroke:#000000;stroke-width:1;stroke-linecap:round;stroke-linejoin:round;stroke-miterlimit:4;stroke-dasharray:none;stroke-opacity:1"
     d="m 275.6286,125.41969 -2.74302,-0.002"
     id="path14359-1-7-5-3-0-73-1-9-12-8"
     inkscape:connector-curvature="0"
     sodipodi:nodetypes="cc" />
  <path
     style="fill:none;stroke:#000000;stroke-width:1;stroke-linecap:round;stroke-linejoin:round;stroke-miterlimit:4;stroke-dasharray:none;stroke-opacity:1"
     d="m 266.19911,120.42064 -0.002,1.08085 29.56637,0 0.002,-1.08085 z"
     id="path14359-1-7-5-3-0-73-1-9-12-2"
     inkscape:connector-curvature="0"
     sodipodi:nodetypes="ccccc" />
  <path
     style="fill:none;stroke:#000000;stroke-width:1;stroke-linecap:round;stroke-linejoin:round;stroke-miterlimit:4;stroke-dasharray:none;stroke-opacity:1"
     d="m 295.7383,130.44192 0.002,-0.92974 -29.56637,0 -0.002,0.92974"
     id="path14359-1-7-5-3-0-73-1-9-12-2-4"
     inkscape:connector-curvature="0"
     sodipodi:nodetypes="cccc" />
  <path
     style="fill:none;stroke:#000000;stroke-width:1;stroke-linecap:round;stroke-linejoin:round;stroke-miterlimit:4;stroke-dasharray:none;stroke-opacity:1"
     d="m 286.9238,112.46032 8.86487,0 0.002,-0.77864"
     id="path14359-1-7-5-3-0-73-1-9-12-2-45"
     inkscape:connector-curvature="0"
     sodipodi:nodetypes="ccc" />
  <path
     style="fill:none;stroke:#000000;stroke-width:1;stroke-linecap:round;stroke-linejoin:round;stroke-miterlimit:4;stroke-dasharray:none;stroke-opacity:1"
     d="m 270.17454,115.12331 c 1.3236,0.11774 2.34564,0.28524 2.34561,0.62461 l -1.2e-4,1.25921 c -7e-5,0.72251 -3.45869,1.37124 -5.94356,1.71251 l -2.4e-4,1.61181 m -1.7e-4,1.15846 -3e-4,2.01475 c 2.23558,0.32531 5.9436,0.28888 5.94336,1.15847 l -3.5e-4,1.25921 c -2.6e-4,0.91755 -3.71058,1.10412 -5.94364,1.8133 l -2.5e-4,1.69891"
     id="path14359-1-7-5-3-0-73-1-9-12-2-2"
     inkscape:connector-curvature="0"
     sodipodi:nodetypes="cssccccsscc" />
  <path
     style="fill:none;stroke:#000000;stroke-width:1;stroke-linecap:round;stroke-linejoin:round;stroke-miterlimit:4;stroke-dasharray:none;stroke-opacity:1"
     d="m 295.23461,129.33381 1.1e-4,-0.54044 c 8e-5,-0.41061 -1.66404,-1.02182 -4.98634,-1.55465 -3.50359,-0.56191 -4.98651,-0.53098 -4.9864,-1.5682 l 7e-5,-0.65479 c 1.2e-4,-1.15024 1.66924,-1.03078 4.98665,-1.61282 3.29998,-0.57898 4.98655,-0.72587 4.98665,-1.66114 l 1.7e-4,-1.66216 c 10e-5,-0.96809 -1.48057,-1.20407 -4.98632,-1.77152 -3.42303,-0.55405 -4.98643,-0.62979 -4.98634,-1.55281 l 9e-5,-0.90663 c 8e-5,-0.84225 1.57554,-1.00144 4.98664,-1.5412 3.50148,-0.55405 4.9865,-0.57812 4.98664,-1.48093 l 1.6e-4,-1.04616"
     id="path14359-1-7-5-3-0-73-1-9-12-2-8"
     inkscape:connector-curvature="0"
     sodipodi:nodetypes="cssssssssssssc" />
  <path
     style="fill:none;stroke:#000000;stroke-width:1;stroke-linecap:butt;stroke-linejoin:miter;stroke-miterlimit:4;stroke-dasharray:none;stroke-opacity:1"
     d="m 101.84556,27.395479 282.1988,0.002"
     id="path14359-1-7-5-3-0-73-1-9-66"
     inkscape:connector-curvature="0"
     sodipodi:nodetypes="cc" />
  <text
     xml:space="preserve"
     style="font-style:normal;font-variant:normal;font-weight:normal;font-stretch:normal;font-size:12.5px;line-height:129.99999523%;font-family:Arial;-inkscape-font-specification:Arial;text-align:start;letter-spacing:-0.2px;word-spacing:0px;text-anchor:start;fill:#000000;fill-opacity:1;stroke:none;stroke-width:1px;stroke-linecap:butt;stroke-linejoin:miter;stroke-opacity:1"
     x="26.965775"
     y="173.20903"
     id="text21338"
     sodipodi:linespacing="130%"><tspan
       sodipodi:role="line"
       id="tspan21340"
       x="26.965775"
       y="173.20903">C</tspan></text>
  <text
     xml:space="preserve"
     style="font-style:normal;font-variant:normal;font-weight:normal;font-stretch:normal;font-size:12.5px;line-height:129.99999523%;font-family:Arial;-inkscape-font-specification:Arial;text-align:start;letter-spacing:-0.2px;word-spacing:0px;text-anchor:start;fill:#000000;fill-opacity:1;stroke:none;stroke-width:1px;stroke-linecap:butt;stroke-linejoin:miter;stroke-opacity:1"
     x="30.784962"
     y="177.72264"
     id="text21342"
     sodipodi:linespacing="130%"><tspan
       sodipodi:role="line"
       id="tspan21344"
       x="30.784962"
       y="177.72264">L</tspan></text>
  <text
     xml:space="preserve"
     style="font-style:normal;font-variant:normal;font-weight:normal;font-stretch:normal;font-size:7.5px;line-height:129.99999523%;font-family:Arial;-inkscape-font-specification:Arial;text-align:start;letter-spacing:0.60000002px;word-spacing:0px;text-anchor:start;fill:#000000;fill-opacity:1;stroke:none;stroke-width:1px;stroke-linecap:butt;stroke-linejoin:miter;stroke-opacity:1"
     x="4.8760686"
     y="316.12393"
     id="text21346"
     sodipodi:linespacing="130%"><tspan
       sodipodi:role="line"
       id="tspan21348"
       x="4.8760686"
       y="316.12393"><tspan
   style="font-size:12.5px"
   id="tspan21350">*</tspan> 1/3 OF CABLE WEIGHT NOT TO EXCEED 5% OF THE TOTAL IMPACT PROBE WEIGHT.</tspan></text>
  <text
     xml:space="preserve"
     style="font-style:normal;font-variant:normal;font-weight:normal;font-stretch:normal;font-size:7.5px;line-height:129.99999523%;font-family:Arial;-inkscape-font-specification:Arial;text-align:start;letter-spacing:0.60000002px;word-spacing:0px;text-anchor:start;fill:#000000;fill-opacity:1;stroke:none;stroke-width:1px;stroke-linecap:butt;stroke-linejoin:miter;stroke-opacity:1"
     x="2.7863195"
     y="91.824791"
     id="text21352"
     sodipodi:linespacing="130%"><tspan
       sodipodi:role="line"
       id="tspan21378"
       x="2.7863195"
       y="91.824791">IMPACT PROBE WEIGHT</tspan><tspan
       sodipodi:role="line"
       id="tspan21380"
       x="2.7863195"
       y="101.57479">INCLUDING ALL</tspan><tspan
       sodipodi:role="line"
       id="tspan21382"
       x="2.7863195"
       y="111.32479">INSTRUMENTATION</tspan><tspan
       sodipodi:role="line"
       id="tspan21384"
       x="2.7863195"
       y="121.07479">AND 1/3 OF CABLE</tspan><tspan
       sodipodi:role="line"
       id="tspan21386"
       x="2.7863195"
       y="135.94199">WEIGHT <tspan
   style="font-size:12.5px"
   id="tspan21390">*</tspan></tspan><tspan
       sodipodi:role="line"
       id="tspan21388"
       x="2.7863195"
       y="147.07478">2.86±0.02 kg.(6.3± 0.05lb.)</tspan></text>
  <text
     xml:space="preserve"
     style="font-style:normal;font-variant:normal;font-weight:normal;font-stretch:normal;font-size:7.5px;line-height:129.99999523%;font-family:Arial;-inkscape-font-specification:Arial;text-align:start;letter-spacing:0.60000002px;word-spacing:0px;text-anchor:start;fill:#000000;fill-opacity:1;stroke:none;stroke-width:1px;stroke-linecap:butt;stroke-linejoin:miter;stroke-opacity:1"
     x="3.1346197"
     y="47.243587"
     id="text21392"
     sodipodi:linespacing="130%"><tspan
       sodipodi:role="line"
       id="tspan21394"
       x="3.1346197"
       y="47.243587">IMPACT PROBE</tspan><tspan
       sodipodi:role="line"
       x="3.1346197"
       y="56.993587"
       id="tspan21396">SUPPORT CABLES</tspan></text>
  <text
     xml:space="preserve"
     style="font-style:normal;font-variant:normal;font-weight:normal;font-stretch:normal;font-size:7.5px;line-height:129.99999523%;font-family:Arial;-inkscape-font-specification:Arial;text-align:start;letter-spacing:0.60000002px;word-spacing:0px;text-anchor:start;fill:#000000;fill-opacity:1;stroke:none;stroke-width:1px;stroke-linecap:butt;stroke-linejoin:miter;stroke-opacity:1"
     x="14.97649"
     y="226.96153"
     id="text21398"
     sodipodi:linespacing="130%"><tspan
       sodipodi:role="line"
       id="tspan21400"
       x="14.97649"
       y="226.96153">196mm (7.7 in)</tspan></text>
  <text
     xml:space="preserve"
     style="font-style:normal;font-variant:normal;font-weight:normal;font-stretch:normal;font-size:7.5px;line-height:129.99999523%;font-family:Arial;-inkscape-font-specification:Arial;text-align:end;letter-spacing:0.60000002px;word-spacing:0px;text-anchor:end;fill:#000000;fill-opacity:1;stroke:none;stroke-width:1px;stroke-linecap:butt;stroke-linejoin:miter;stroke-opacity:1;"
     x="215.29411"
     y="114.81197"
     id="text21402"
     sodipodi:linespacing="130%"><tspan
       sodipodi:role="line"
       id="tspan21404"
       x="215.89412"
       y="114.81197">TORSO ASSEMBLY</tspan><tspan
       sodipodi:role="line"
       x="215.89412"
       y="124.56197"
       id="tspan21406">(921022-060 REF)</tspan></text>
  <text
     xml:space="preserve"
     style="font-style:normal;font-variant:normal;font-weight:normal;font-stretch:normal;font-size:7.5px;line-height:129.99999523%;font-family:Arial;-inkscape-font-specification:Arial;text-align:start;letter-spacing:0.60000002px;word-spacing:0px;text-anchor:start;fill:#000000;fill-opacity:1;stroke:none;stroke-width:1px;stroke-linecap:butt;stroke-linejoin:miter;stroke-opacity:1"
     x="71.051285"
     y="205.01924"
     id="text21408"
     sodipodi:linespacing="130%"><tspan
       sodipodi:role="line"
       id="tspan21410"
       x="71.051285"
       y="205.01924">ACCELEROMETER</tspan></text>
  <text
     xml:space="preserve"
     style="font-style:normal;font-variant:normal;font-weight:normal;font-stretch:normal;font-size:7.5px;line-height:129.99999523%;font-family:Arial;-inkscape-font-specification:Arial;text-align:end;letter-spacing:0.60000002px;word-spacing:0px;text-anchor:end;fill:#000000;fill-opacity:1;stroke:none;stroke-width:1px;stroke-linecap:butt;stroke-linejoin:miter;stroke-opacity:1"
     x="187.58653"
     y="215.81622"
     id="text21412"
     sodipodi:linespacing="130%"><tspan
       sodipodi:role="line"
       id="tspan21414"
       x="188.18654"
       y="215.81622">SHIM TO MAINTAIN</tspan><tspan
       sodipodi:role="line"
       x="188.18654"
       y="225.56622"
       id="tspan21416">UPRIGHT POSITION</tspan></text>
  <text
     xml:space="preserve"
     style="font-style:normal;font-variant:normal;font-weight:normal;font-stretch:normal;font-size:7.5px;line-height:129.99999523%;font-family:Arial;-inkscape-font-specification:Arial;text-align:start;letter-spacing:0.60000002px;word-spacing:0px;text-anchor:start;fill:#000000;fill-opacity:1;stroke:none;stroke-width:1px;stroke-linecap:butt;stroke-linejoin:miter;stroke-opacity:1"
     x="328.78632"
     y="239.8483"
     id="text21418"
     sodipodi:linespacing="130%"><tspan
       sodipodi:role="line"
       id="tspan21422"
       x="328.78632"
       y="239.8483">90º</tspan></text>
  <text
     xml:space="preserve"
     style="font-style:normal;font-variant:normal;font-weight:normal;font-stretch:normal;font-size:7.5px;line-height:129.99999523%;font-family:Arial;-inkscape-font-specification:Arial;text-align:start;letter-spacing:0.60000002px;word-spacing:0px;text-anchor:start;fill:#000000;fill-opacity:1;stroke:none;stroke-width:1px;stroke-linecap:butt;stroke-linejoin:miter;stroke-opacity:1;"
     x="236.48932"
     y="288.95724"
     id="text21424"
     sodipodi:linespacing="130%"><tspan
       sodipodi:role="line"
       id="tspan21426"
       x="236.48932"
       y="288.95724">METAL TABLE</tspan></text>
  <text
     xml:space="preserve"
     style="font-style:normal;font-variant:normal;font-weight:normal;font-stretch:normal;font-size:7.5px;line-height:129.99999523%;font-family:Arial;-inkscape-font-specification:Arial;text-align:start;letter-spacing:0.60000002px;word-spacing:0px;text-anchor:start;fill:#000000;fill-opacity:1;stroke:none;stroke-width:1px;stroke-linecap:butt;stroke-linejoin:miter;stroke-opacity:1"
     x="327.04489"
     y="192.48076"
     id="text21428"
     sodipodi:linespacing="130%"><tspan
       sodipodi:role="line"
       id="tspan21430"
       x="327.04489"
       y="192.48076">DUMMY ASSEMBLY</tspan><tspan
       sodipodi:role="line"
       x="327.04489"
       y="202.23076"
       id="tspan21432">(901022-000 REF.)</tspan></text>
  <text
     xml:space="preserve"
     style="font-style:normal;font-variant:normal;font-weight:normal;font-stretch:normal;font-size:7.5px;line-height:134%;font-family:Arial;-inkscape-font-specification:Arial;text-align:start;letter-spacing:0.7px;word-spacing:0px;text-anchor:start;fill:#000000;fill-opacity:1;stroke:none;stroke-width:1px;stroke-linecap:butt;stroke-linejoin:miter;stroke-opacity:1;"
     x="324.60684"
     y="49.681622"
     id="text21434"
     sodipodi:linespacing="134%"><tspan
       sodipodi:role="line"
       id="tspan21533"
       x="324.60684"
       y="49.681622">NOTES:</tspan><tspan
       sodipodi:role="line"
       id="tspan21535"
       x="324.60684"
       y="59.431622">1) MIDSAGITTAL PLANE VERTICAL</tspan><tspan
       sodipodi:role="line"
       id="tspan21537"
       x="324.60684"
       y="69.181625">    WITHIN ±1º</tspan><tspan
       sodipodi:role="line"
       id="tspan21539"
       x="324.60684"
       y="78.931625">2) IMPACT POINT OF LONGITUDINAL</tspan><tspan
       sodipodi:role="line"
       id="tspan21541"
       x="324.60684"
       y="88.681625">    CENTERLINE OF PROBE</tspan><tspan
       sodipodi:role="line"
       id="tspan21543"
       x="324.60684"
       y="98.431625">    COINCIDES WITH MIDSAGITTAL</tspan><tspan
       sodipodi:role="line"
       id="tspan21545"
       x="324.60684"
       y="108.18163">    PLANE OF DUMMY</tspan><tspan
       sodipodi:role="line"
       id="tspan21547"
       x="324.60684"
       y="117.93163">3) ALIGN PROBE TO 196mm (7.7 in)</tspan><tspan
       sodipodi:role="line"
       id="tspan21549"
       x="324.60684"
       y="127.68163">    ABOVE TABLE WITHIN 0.5º OF</tspan><tspan
       sodipodi:role="line"
       id="tspan21551"
       x="324.60684"
       y="137.43163">    HORIZONTAL PLANE.</tspan><tspan
       sodipodi:role="line"
       id="tspan21553"
       x="324.60684"
       y="147.18161">4) BACK PLANE OF SPINE BOX AT</tspan><tspan
       sodipodi:role="line"
       id="tspan21555"
       x="324.60684"
       y="156.93161">    90±1º FROM HORIZONTAL</tspan></text>
  <text
     xml:space="preserve"
     style="font-style:normal;font-variant:normal;font-weight:normal;font-stretch:normal;font-size:12.5px;line-height:110%;font-family:Arial;-inkscape-font-specification:Arial;text-align:center;letter-spacing:-0.22px;word-spacing:0px;text-anchor:middle;fill:#000000;fill-opacity:1;stroke:none;stroke-width:1px;stroke-linecap:butt;stroke-linejoin:miter;stroke-opacity:1;"
     x="242.80576"
     y="10.673078"
     id="text21557"
     sodipodi:linespacing="110%"><tspan
       sodipodi:role="line"
       id="tspan21559"
       x="242.69576"
       y="10.673078">Figure R 5</tspan><tspan
       sodipodi:role="line"
       x="242.69576"
       y="26.923077"
       id="tspan21561">THORAX IMPACT TEST SET-UP SPECIFICATIONS</tspan></text>
</svg>
