<?xml version="1.0" encoding="UTF-8" standalone="no"?>
<!-- Created with Inkscape (http://www.inkscape.org/) -->

<svg
   xmlns:dc="http://purl.org/dc/elements/1.1/"
   xmlns:cc="http://creativecommons.org/ns#"
   xmlns:rdf="http://www.w3.org/1999/02/22-rdf-syntax-ns#"
   xmlns:svg="http://www.w3.org/2000/svg"
   xmlns="http://www.w3.org/2000/svg"
   xmlns:sodipodi="http://sodipodi.sourceforge.net/DTD/sodipodi-0.dtd"
   xmlns:inkscape="http://www.inkscape.org/namespaces/inkscape"
   id="svg13668"
   version="1.1"
   inkscape:version="0.91 r13725"
   width="656"
   height="616"
   sodipodi:docname="ec02mr91.027 copy.svg">
  <title id="title_ec02mr91.027 copy"></title>
  <desc id="desc_ec02mr91.027 copy"></desc>
  <metadata
     id="metadata13674">
    <rdf:RDF>
      <cc:Work
         rdf:about="">
        <dc:format>image/svg+xml</dc:format>
        <dc:type
           rdf:resource="http://purl.org/dc/dcmitype/StillImage" />
        <dc:title />
      </cc:Work>
    </rdf:RDF>
  </metadata>
  <defs
     id="defs13672" />
  <sodipodi:namedview
     pagecolor="#ffffff"
     bordercolor="#666666"
     borderopacity="1"
     objecttolerance="10"
     gridtolerance="10"
     guidetolerance="10"
     inkscape:pageopacity="0"
     inkscape:pageshadow="2"
     inkscape:window-width="1164"
     inkscape:window-height="756"
     id="namedview13670"
     showgrid="false"
     inkscape:zoom="0.56674875"
     inkscape:cx="161.30132"
     inkscape:cy="307.22729"
     inkscape:window-x="166"
     inkscape:window-y="0"
     inkscape:window-maximized="0"
     inkscape:current-layer="svg13668" />
  <path
     inkscape:connector-curvature="0"
     d="M 321.41655,7.7744876 624.62796,310.98543 321.41655,614.19683 18.205605,310.98543 321.41655,7.7744876 z"
     style="fill:none;fill-opacity:1;fill-rule:evenodd;stroke:#000000;stroke-opacity:1;stroke-width:2;stroke-miterlimit:4;stroke-dasharray:6,6;stroke-dashoffset:0"
     id="path4251" />
  <path
     inkscape:connector-curvature="0"
     d="m 271.55253,240.17712 36.21791,0 c -16.57881,-4.63072 -28.80075,-19.8874 -28.80075,-37.90916 0,-21.67382 17.67714,-39.35131 39.3513,-39.35131 21.67393,0 39.35107,17.67749 39.35107,39.35131 0,18.02176 -12.22311,33.27844 -28.80213,37.90916 l 35.80717,0 0,8.24083 -93.12457,0 0,-8.24083 z m 4.73877,-33.78852 c -3.02185,-1.03024 -6.00872,-8.93935 -4.94455,-15.4521 2.05214,-12.56053 2.26627,-21.39255 -1.23649,-28.22609 3.81206,0.0689 7.10822,0.82413 9.27145,3.09075 0.18868,-8.68747 5.94447,-12.46419 5.97479,-18.95475 0.0319,-6.81102 0.30859,-10.9879 -2.67828,-15.45202 4.66988,2.07758 8.0346,5.13394 10.50734,8.85932 5.54698,-9.91233 9.10701,-20.29813 3.0904,-32.96451 6.21067,2.21922 11.50703,7.12101 16.07025,13.18574 3.63962,-13.80397 -9.82114,-29.667989 3.70852,-41.205341 -1.44225,17.237831 8.94296,19.303551 14.83375,28.843611 1.87146,3.03081 3.15895,7.14239 5.97491,8.85932 0.54901,-2.74706 -6.9e-4,-6.04335 -1.64814,-9.88922 8.58406,5.90602 13.18516,14.97121 14.62763,26.37147 1.44587,-3.4335 1.85659,-7.27936 1.6485,-10.71357 8.48576,12.02511 6.22053,25.18215 4.12054,38.32119 3.36204,-0.7628 4.5302,-3.16315 9.4772,-2.26629 -5.98932,6.81263 -4.34095,16.83036 -2.67828,26.9896 1.10949,6.78079 0.51507,14.07899 -1.44226,19.77854 0.29478,-26.26841 -15.60559,-27.39324 -11.5377,-41.82359 -4.19989,-0.95774 -5.9712,9.3896 -11.94936,0.61824 1.7167,-1.44225 3.43362,-8.03494 -1.44225,-14.21597 -1.54567,8.41372 -5.52887,12.32871 -9.06509,12.3617 1.37336,-10.36976 -5.28848,-15.17732 -6.38692,-22.86915 7.94176,5.70778 1.10043,-5.42942 2.06015,-14.42177 -10.74855,11.67492 -14.93786,26.85238 -5.76868,35.23044 -13.39183,2.19782 -11.74346,-6.73004 -13.18571,-11.33147 -6.04371,3.77741 3.15882,13.73541 -10.50746,19.16063 -2.12894,-2.19748 -2.81596,-5.83723 -3.70852,-8.44706 -3.36531,6.31836 1.88621,10.92934 -3.29653,16.89436 -3.15326,3.62918 -5.90625,3.57143 -7.62294,2.06004 -0.12084,11.22876 -3.24505,12.60247 -2.26627,27.60795 z m 42.02969,-36.26103 c 17.70084,0 32.14013,14.4392 32.14013,32.14039 0,17.70096 -14.43929,32.14013 -32.14013,32.14013 -17.70117,0 -32.14048,-14.43917 -32.14048,-32.14013 0,-17.70119 14.43931,-32.14039 32.14048,-32.14039"
     style="fill:#000000;fill-opacity:1;fill-rule:evenodd;stroke:none"
     id="path4275" />
  <path
     inkscape:connector-curvature="0"
     d="M 51.48432,310.98543 321.41655,41.053191 591.34879,310.98543 321.41655,580.91766 51.48432,310.98543 z m 4.09934,0 L 321.41655,45.152546 587.24944,310.98543 321.41655,576.81832 55.58366,310.98543 z"
     style="fill:#000000;fill-opacity:1;fill-rule:evenodd;stroke:none"
     id="path4277" />
  <text
     xml:space="preserve"
     style="font-style:normal;font-variant:normal;font-weight:bold;font-stretch:condensed;font-size:117.39651489px;line-height:110.00000238%;font-family:'Arial Narrow';-inkscape-font-specification:'Arial Narrow Bold Condensed';text-align:start;letter-spacing:0px;word-spacing:0px;writing-mode:lr-tb;text-anchor:start;fill:#000000;fill-opacity:1;stroke:none"
     x="316.36526"
     y="352.7774"
     id="text6910"
     sodipodi:linespacing="110%"
     transform="scale(1.0160475,0.98420592)"><tspan
       sodipodi:role="line"
       x="316.36526"
       y="352.7774"
       id="tspan6914"
       style="font-style:normal;font-variant:normal;font-weight:bold;font-stretch:condensed;font-size:101.10798645px;line-height:110.00000238%;font-family:'Arial Narrow';-inkscape-font-specification:'Arial Narrow Bold Condensed';text-align:center;text-anchor:middle;fill:#000000;fill-opacity:1">OXIDIZER</tspan></text>
  <text
     sodipodi:linespacing="110%"
     id="text14259"
     y="487.99356"
     x="328.26694"
     style="font-style:normal;font-variant:normal;font-weight:bold;font-stretch:normal;font-size:108.44274139px;line-height:110.00000238%;font-family:Arial;-inkscape-font-specification:'Helvetica CY Bold';text-align:start;letter-spacing:0px;word-spacing:0px;writing-mode:lr-tb;text-anchor:start;fill:#000000;fill-opacity:1;stroke:none"
     xml:space="preserve"
     transform="scale(0.9798327,1.0205824)"><tspan
       style="font-style:normal;font-variant:normal;font-weight:bold;font-stretch:normal;font-size:99.23381042px;line-height:110.00000238%;font-family:Arial;-inkscape-font-specification:'Arial Bold';text-align:center;text-anchor:middle;fill:#000000;fill-opacity:1;letter-spacing:-5px"
       id="tspan14261"
       y="487.99356"
       x="328.26694"
       sodipodi:role="line">5.1</tspan></text>
</svg>
