<?xml version="1.0" encoding="UTF-8" standalone="no"?>
<!-- Created with Inkscape (http://www.inkscape.org/) -->

<svg
   xmlns:dc="http://purl.org/dc/elements/1.1/"
   xmlns:cc="http://creativecommons.org/ns#"
   xmlns:rdf="http://www.w3.org/1999/02/22-rdf-syntax-ns#"
   xmlns:svg="http://www.w3.org/2000/svg"
   xmlns="http://www.w3.org/2000/svg"
   xmlns:sodipodi="http://sodipodi.sourceforge.net/DTD/sodipodi-0.dtd"
   xmlns:inkscape="http://www.inkscape.org/namespaces/inkscape"
   version="1.1"
   id="svg11569"
   width="229.12"
   height="161.28"
   viewBox="0 0 229.12 161.28"
   sodipodi:docname="ec02se91.045.svg"
   inkscape:version="0.92.2 5c3e80d, 2017-08-06">
  <metadata
     id="metadata11575">
    <rdf:RDF>
      <cc:Work
         rdf:about="">
        <dc:format>image/svg+xml</dc:format>
        <dc:type
           rdf:resource="http://purl.org/dc/dcmitype/StillImage" />
        <dc:title></dc:title>
      </cc:Work>
    </rdf:RDF>
  </metadata>
  <defs
     id="defs11573" />
  <sodipodi:namedview
     pagecolor="#ffffff"
     bordercolor="#666666"
     borderopacity="1"
     objecttolerance="10"
     gridtolerance="10"
     guidetolerance="10"
     inkscape:pageopacity="0"
     inkscape:pageshadow="2"
     inkscape:window-width="1280"
     inkscape:window-height="756"
     id="namedview11571"
     showgrid="false"
     inkscape:zoom="2.027322"
     inkscape:cx="22.690033"
     inkscape:cy="80.639999"
     inkscape:window-x="15"
     inkscape:window-y="0"
     inkscape:window-maximized="0"
     inkscape:current-layer="svg11569" />
  <text
     xml:space="preserve"
     style="font-style:normal;font-variant:normal;font-weight:normal;font-stretch:normal;line-height:0%;font-family:Courier;-inkscape-font-specification:Courier;text-align:start;letter-spacing:-0.2px;word-spacing:0px;text-anchor:start;fill:#0b0000;fill-opacity:1;stroke:none;stroke-width:1px;stroke-linecap:butt;stroke-linejoin:miter;stroke-opacity:1;"
     x="81.605377"
     y="160.07362"
     id="text17544-5"><tspan
       sodipodi:role="line"
       id="tspan17546-5"
       x="81.605377"
       y="160.07362"
       style="font-size:13.75px;line-height:1.29999995;letter-spacing:-0.2px;fill:#0b0000;fill-opacity:1;">FIGURE 7</tspan></text>
  <path
     style="fill:none;stroke:#000000;stroke-width:3;stroke-linecap:butt;stroke-linejoin:miter;stroke-miterlimit:4;stroke-dasharray:none;stroke-opacity:1"
     d="m 225.98724,30.206686 -0.002,110.829184 H 3.110199 l 0.002,-110.829184"
     id="path14359-1-7-5-3-0-73-1-9-8"
     inkscape:connector-curvature="0"
     sodipodi:nodetypes="cccc" />
  <text
     xml:space="preserve"
     style="font-style:normal;font-variant:normal;font-weight:bold;font-stretch:condensed;font-size:17.33333397px;line-height:4.25;font-family:'Arial Narrow';-inkscape-font-specification:'Arial Narrow Bold Condensed';text-align:start;letter-spacing:0.1px;word-spacing:6.05999994px;text-anchor:start;fill:#000000;fill-opacity:1;stroke:none;"
     x="2.0977008"
     y="15.619281"
     id="text12171"><tspan
       sodipodi:role="line"
       id="tspan12169"
       x="2.0977008"
       y="15.619281">U S DEPT OF AGRICULTURE</tspan></text>
  <text
     xml:space="preserve"
     style="font-style:normal;font-variant:normal;font-weight:normal;font-stretch:condensed;font-size:21.33333397px;line-height:4.25;font-family:'Arial Narrow';-inkscape-font-specification:'Arial Narrow Condensed';text-align:start;letter-spacing:-0.81px;word-spacing:0px;text-anchor:start;fill:#010000;fill-opacity:1;stroke:none;"
     x="66.343323"
     y="48.688278"
     id="text12171-9"><tspan
       sodipodi:role="line"
       id="tspan12169-0"
       x="66.343323"
       y="48.688278">INSPECTED</tspan></text>
  <text
     xml:space="preserve"
     style="font-style:normal;font-variant:normal;font-weight:bold;font-stretch:condensed;font-size:21.33333397px;line-height:4.25;font-family:'Arial Narrow';-inkscape-font-specification:'Arial Narrow Bold Condensed';text-align:start;letter-spacing:0px;word-spacing:0px;text-anchor:start;fill:#000000;fill-opacity:1;stroke:none;"
     x="50.967545"
     y="94.524246"
     id="text12171-9-6"><tspan
       sodipodi:role="line"
       id="tspan12169-0-0"
       x="50.967545"
       y="94.524246">DEC</tspan></text>
  <text
     xml:space="preserve"
     style="font-style:normal;font-variant:normal;font-weight:bold;font-stretch:normal;font-size:21.33333397px;line-height:4.25;font-family:'Bitstream Charter';-inkscape-font-specification:'Bitstream Charter Bold';letter-spacing:0px;word-spacing:0px;fill:#000000;fill-opacity:1;stroke:none;"
     x="100.10744"
     y="93.931671"
     id="text12211"><tspan
       sodipodi:role="line"
       id="tspan12209"
       x="100.10744"
       y="93.931671">18</tspan></text>
  <text
     xml:space="preserve"
     style="font-style:normal;font-variant:normal;font-weight:bold;font-stretch:condensed;font-size:22.66666603px;line-height:4.25;font-family:'Arial Narrow';-inkscape-font-specification:'Arial Narrow Bold Condensed';letter-spacing:-0.04px;word-spacing:0px;fill:#000000;fill-opacity:1;stroke:none;"
     x="136.16077"
     y="95.212753"
     id="text12215"><tspan
       sodipodi:role="line"
       id="tspan12213"
       x="136.16077"
       y="95.212753">1972</tspan></text>
  <g
     aria-label="545"
     style="font-style:normal;font-variant:normal;font-weight:normal;font-stretch:normal;font-size:26.66666603px;line-height:4.25;font-family:'DIN Alternate';-inkscape-font-specification:'DIN Alternate';letter-spacing:0px;word-spacing:0px;fill:#000000;fill-opacity:1;stroke:none"
     id="text12219"
     transform="matrix(0.88808281,0,0,1.0519755,11.760382,-6.3610437)">
    <path
       d="m 98.30838,110.90112 h 10.11719 v 2.72136 h -7.55209 v 4.29687 0 q 1.32813,-1.04166 3.03386,-1.04166 1.09375,0.026 2.00521,0.39062 0.85937,0.40365 1.39323,0.98958 0.79427,0.78125 1.14583,1.8099 0.18229,0.5599 0.26042,1.36719 0.0781,0.82031 0.0781,2.01823 0,1.84895 -0.26042,2.83854 -0.27343,0.97656 -0.91145,1.73177 -0.5599,0.74219 -1.62761,1.35417 -1.04167,0.63802 -2.47396,0.66406 -1.92708,0 -3.528642,-1.14584 -1.627605,-1.17187 -2.01823,-3.78906 h 2.721352 q 0.44271,2.1875 2.72136,2.21354 0.97656,0 1.5625,-0.39062 0.55989,-0.37761 0.78125,-0.98958 0.23437,-0.61198 0.28645,-1.32813 0.026,-0.70312 0.026,-1.36719 0.026,-1.6276 -0.50782,-2.64323 -0.28645,-0.48177 -0.84635,-0.76823 -0.5599,-0.23437 -1.39323,-0.23437 -0.74219,0 -1.35417,0.33854 -0.61197,0.35156 -1.09375,1.22396 h -2.5651 z"
       id="path12221"
       inkscape:connector-curvature="0"
       style="fill:#000000;fill-opacity:1;stroke:none;stroke-opacity:1" />
    <path
       d="m 113.07401,123.54307 h 4.96093 v -9.69802 z m 7.68229,-12.63748 v 12.63748 h 1.51041 v 2.56511 h -1.51041 v 3.77732 h -2.72136 v -3.77732 h -7.91666 v -2.56511 l 6.34114,-12.64195 z"
       id="path12223"
       inkscape:connector-curvature="0"
       sodipodi:nodetypes="cccccccccccccccc"
       style="fill:#000000;stroke:none;stroke-opacity:1;fill-opacity:1" />
    <path
       d="m 123.93338,110.90112 h 10.11719 v 2.72136 h -7.55209 v 4.29687 0 q 1.32813,-1.04166 3.03386,-1.04166 1.09375,0.026 2.00521,0.39062 0.85937,0.40365 1.39323,0.98958 0.79427,0.78125 1.14583,1.8099 0.18229,0.5599 0.26042,1.36719 0.0781,0.82031 0.0781,2.01823 0,1.84895 -0.26042,2.83854 -0.27343,0.97656 -0.91145,1.73177 -0.5599,0.74219 -1.62761,1.35417 -1.04167,0.63802 -2.47396,0.66406 -1.92708,0 -3.52864,-1.14584 -1.62761,-1.17187 -2.01823,-3.78906 h 2.72135 q 0.44271,2.1875 2.72136,2.21354 0.97656,0 1.5625,-0.39062 0.55989,-0.37761 0.78125,-0.98958 0.23437,-0.61198 0.28645,-1.32813 0.026,-0.70312 0.026,-1.36719 0.026,-1.6276 -0.50782,-2.64323 -0.28645,-0.48177 -0.84635,-0.76823 -0.5599,-0.23437 -1.39323,-0.23437 -0.74219,0 -1.35417,0.33854 -0.61197,0.35156 -1.09375,1.22396 h -2.5651 z"
       id="path12225"
       inkscape:connector-curvature="0"
       style="fill:#000000;fill-opacity:1" />
  </g>
</svg>
