<?xml version="1.0" encoding="UTF-8" standalone="no"?>
<!-- Created with Inkscape (http://www.inkscape.org/) -->

<svg
   xmlns:dc="http://purl.org/dc/elements/1.1/"
   xmlns:cc="http://creativecommons.org/ns#"
   xmlns:rdf="http://www.w3.org/1999/02/22-rdf-syntax-ns#"
   xmlns:svg="http://www.w3.org/2000/svg"
   xmlns="http://www.w3.org/2000/svg"
   xmlns:sodipodi="http://sodipodi.sourceforge.net/DTD/sodipodi-0.dtd"
   xmlns:inkscape="http://www.inkscape.org/namespaces/inkscape"
   version="1.1"
   id="svg15503"
   width="227.84"
   height="96"
   viewBox="0 0 227.84 96"
   sodipodi:docname="ec11se91.045.svg"
   inkscape:version="0.92.2 5c3e80d, 2017-08-06">
  <metadata
     id="metadata15509">
    <rdf:RDF>
      <cc:Work
         rdf:about="">
        <dc:format>image/svg+xml</dc:format>
        <dc:type
           rdf:resource="http://purl.org/dc/dcmitype/StillImage" />
        <dc:title></dc:title>
      </cc:Work>
    </rdf:RDF>
  </metadata>
  <defs
     id="defs15507" />
  <sodipodi:namedview
     pagecolor="#ffffff"
     bordercolor="#666666"
     borderopacity="1"
     objecttolerance="10"
     gridtolerance="10"
     guidetolerance="10"
     inkscape:pageopacity="0"
     inkscape:pageshadow="2"
     inkscape:window-width="1280"
     inkscape:window-height="756"
     id="namedview15505"
     showgrid="false"
     inkscape:zoom="1.4307243"
     inkscape:cx="65.732582"
     inkscape:cy="48"
     inkscape:window-x="0"
     inkscape:window-y="0"
     inkscape:window-maximized="0"
     inkscape:current-layer="svg15503" />
  <path
     style="fill:none;fill-opacity:1;stroke:#000000;stroke-width:4;stroke-linecap:round;stroke-linejoin:round;stroke-miterlimit:4;stroke-dasharray:none;stroke-opacity:1"
     d="m 94.421529,6.5334138 h 7.165611 c 2.73564,0 5.08886,2.2739583 4.9533,5.0714632 l -1.07967,22.278749 c -0.13557,2.797503 -2.21765,5.071456 -4.95329,5.071456 h -7.165611 z"
     id="path1954-9-4"
     inkscape:connector-curvature="0"
     sodipodi:nodetypes="csssscc" />
  <path
     style="fill:none;fill-opacity:1;stroke:#000000;stroke-width:4;stroke-linecap:round;stroke-linejoin:round;stroke-miterlimit:4;stroke-dasharray:none;stroke-opacity:1"
     d="M 84.066672,6.0723046 H 74.675138 L 72.660658,38.980361 H 83.01564"
     id="path1954-9-0-7-00"
     inkscape:connector-curvature="0"
     sodipodi:nodetypes="cccc" />
  <path
     style="fill:none;fill-opacity:1;stroke:#000000;stroke-width:4;stroke-linecap:round;stroke-linejoin:round;stroke-miterlimit:4;stroke-dasharray:none;stroke-opacity:1"
     d="M 83.197471,21.83001 H 73.666229"
     id="path1954-9-0-7-0-7"
     inkscape:connector-curvature="0"
     sodipodi:nodetypes="cc" />
  <path
     style="fill:none;fill-opacity:1;stroke:#000000;stroke-width:4;stroke-linecap:round;stroke-linejoin:round;stroke-miterlimit:4;stroke-dasharray:none;stroke-opacity:1"
     d="m 111.86185,57.201496 h 7.16563 c 2.73564,0 5.08886,2.273952 4.95329,5.071458 l -1.07966,22.278752 c -0.13558,2.797503 -2.21765,5.071456 -4.95329,5.071456 h -7.16563 z"
     id="path1954-9-4-0"
     inkscape:connector-curvature="0"
     sodipodi:nodetypes="csssscc" />
  <path
     style="fill:none;fill-opacity:1;stroke:#000000;stroke-width:4;stroke-linecap:round;stroke-linejoin:round;stroke-miterlimit:4;stroke-dasharray:none;stroke-opacity:1"
     d="M 34.863368,57.324876 H 25.27563 l -1.280057,32.90806 h 9.522457"
     id="path1954-9-0-7-00-1"
     inkscape:connector-curvature="0"
     sodipodi:nodetypes="cccc" />
  <path
     style="fill:none;fill-opacity:1;stroke:#000000;stroke-width:4;stroke-linecap:round;stroke-linejoin:round;stroke-miterlimit:4;stroke-dasharray:none;stroke-opacity:1"
     d="M 33.503658,73.082586 H 24.75723"
     id="path1954-9-0-7-0-7-0"
     inkscape:connector-curvature="0"
     sodipodi:nodetypes="cc" />
  <path
     style="fill:none;fill-opacity:1;stroke:#000000;stroke-width:4;stroke-linecap:round;stroke-linejoin:round;stroke-miterlimit:4;stroke-dasharray:none;stroke-opacity:1"
     d="M 51.61921,57.138469 H 42.718184 L 41.340025,90.317025"
     id="path1954-9-0-7-00-5"
     inkscape:connector-curvature="0"
     sodipodi:nodetypes="ccc" />
  <path
     style="fill:none;fill-opacity:1;stroke:#000000;stroke-width:4;stroke-linecap:round;stroke-linejoin:round;stroke-miterlimit:4;stroke-dasharray:none;stroke-opacity:1"
     d="M 50.651906,72.896179 H 42.4311"
     id="path1954-9-0-7-0-7-3"
     inkscape:connector-curvature="0"
     sodipodi:nodetypes="cc" />
  <path
     style="fill:none;fill-opacity:1;stroke:#000000;stroke-width:4;stroke-linecap:round;stroke-linejoin:round;stroke-miterlimit:4;stroke-dasharray:none;stroke-opacity:1"
     d="m 148.86998,57.324876 h -9.39154 l -1.28005,31.976028 h 9.62056"
     id="path1954-9-0-7-00-1-9"
     inkscape:connector-curvature="0"
     sodipodi:nodetypes="cccc" />
  <path
     style="fill:none;fill-opacity:1;stroke:#000000;stroke-width:4;stroke-linecap:round;stroke-linejoin:round;stroke-miterlimit:4;stroke-dasharray:none;stroke-opacity:1"
     d="m 148.00077,73.082588 h -8.83461"
     id="path1954-9-0-7-0-7-0-9"
     inkscape:connector-curvature="0"
     sodipodi:nodetypes="cc" />
  <path
     style="fill:none;fill-opacity:1;stroke:#000000;stroke-width:4;stroke-linecap:round;stroke-linejoin:round;stroke-miterlimit:4;stroke-dasharray:none;stroke-opacity:1"
     d="m 205.43317,5.8764478 h -9.58774 L 194.56538,38.78451 h 9.52245"
     id="path1954-9-0-7-00-1-1"
     inkscape:connector-curvature="0"
     sodipodi:nodetypes="cccc" />
  <path
     style="fill:none;fill-opacity:1;stroke:#000000;stroke-width:4;stroke-linecap:round;stroke-linejoin:round;stroke-miterlimit:4;stroke-dasharray:none;stroke-opacity:1"
     d="m 204.36776,21.634163 h -9.04072"
     id="path1954-9-0-7-0-7-0-1"
     inkscape:connector-curvature="0"
     sodipodi:nodetypes="cc" />
  <path
     style="fill:none;fill-opacity:1;stroke:#000000;stroke-width:4;stroke-linecap:round;stroke-linejoin:round;stroke-miterlimit:4;stroke-dasharray:none;stroke-opacity:1"
     d="M 4.4519423,83.613485 5.1182319,57.114137 h 7.5804371"
     id="path1954-9-4-0-3"
     inkscape:connector-curvature="0"
     sodipodi:nodetypes="ccc" />
  <path
     style="fill:#000000;fill-opacity:1;stroke:#000000;stroke-width:1;stroke-linecap:round;stroke-linejoin:round;stroke-miterlimit:4;stroke-dasharray:none;stroke-opacity:1"
     d="m 17.420239,88.845215 0.228147,-10.80968 c 0.0404,-1.91442 -0.03724,-3.293736 -1.879311,-3.246373 -0.734637,0.01889 -1.482404,-0.453812 -1.45611,-1.202159 l 0.03164,-0.900591 c 0.04234,-1.204908 1.333928,-2.092829 2.099308,-2.092829 1.064742,0 1.37053,-0.760804 1.395608,-1.913627 l 0.212168,-9.753194 c 0.04521,-2.078182 -0.866301,-3.306755 -2.388688,-3.306755 h -3.48665 l -5.99e-4,2.992856 c 2.191236,-0.0816 3.384819,0.969994 3.278839,2.885856 l -0.409538,7.403531 c -0.09426,1.704076 -1.539488,3.378148 -3.16382,3.379237 l -2.9722534,0.002 c -1.7786817,0.0012 -2.6726613,-1.167949 -2.6770973,-2.729945 l -2.8622159,0.0017 -0.3757955,12.709676 c -0.108997,3.686356 -1.1829577,3.644549 -1.2667079,6.093991 -0.046046,1.346722 0.3755796,2.818354 1.658682,2.956483 1.1070756,0.119179 3.1279863,0.07603 3.1543742,-1.341838 l 0.025637,-1.377461 c 0.020174,-1.083969 -0.715206,-0.721621 -0.6902885,-2.105764 l 0.1742861,-9.681444 c 0.038899,-2.160805 0.9011488,-2.835057 3.0138215,-2.76532 l 1.9395427,0.06402 c 2.851426,0.09413 3.596638,1.885 3.376931,4.482557 l -0.757843,8.959879 c -0.138404,1.636321 -0.174086,3.596876 1.713161,3.618385 l 1.563921,0.01782 c 0.619653,0.0071 0.968611,-0.213845 0.968611,-0.730433 0,-0.565968 -0.462082,-0.932116 -0.447763,-1.610572 z"
     id="path14359-1-7-5-3-0-73-1-9-8"
     inkscape:connector-curvature="0"
     sodipodi:nodetypes="sssssssssccssssccsssssssssssssss" />
  <path
     style="fill:none;fill-opacity:1;stroke:#000000;stroke-width:4;stroke-linecap:round;stroke-linejoin:round;stroke-miterlimit:4;stroke-dasharray:none;stroke-opacity:1"
     d="m 192.85888,83.783275 0.66628,-26.499348 h 7.58045"
     id="path1954-9-4-0-3-3"
     inkscape:connector-curvature="0"
     sodipodi:nodetypes="ccc" />
  <path
     style="fill:#000000;fill-opacity:1;stroke:#000000;stroke-width:1;stroke-linecap:round;stroke-linejoin:round;stroke-miterlimit:4;stroke-dasharray:none;stroke-opacity:1"
     d="m 205.82718,89.015005 0.22815,-10.80968 c 0.0404,-1.91442 -0.0372,-3.293736 -1.87932,-3.246373 -0.73464,0.01889 -1.48241,-0.453812 -1.45611,-1.202159 l 0.0316,-0.900591 c 0.0423,-1.204908 1.33393,-2.092829 2.09931,-2.092829 1.06475,0 1.37054,-0.760804 1.39561,-1.913627 l 0.21217,-9.753194 c 0.0452,-2.078182 -0.8663,-3.306755 -2.38869,-3.306755 h -3.48665 l -6e-4,2.992856 c 2.19124,-0.0816 3.38482,0.969995 3.27884,2.885856 l -0.40954,7.403531 c -0.0943,1.704076 -1.53948,3.378148 -3.16382,3.379237 l -2.97225,0.002 c -1.77868,0.0012 -2.67267,-1.167949 -2.67709,-2.729945 l -2.86223,0.0017 -0.37579,12.709676 c -0.109,3.686356 -1.18296,3.644549 -1.2667,6.093991 -0.0461,1.346722 0.37557,2.818354 1.65867,2.956483 1.10708,0.119179 3.12799,0.07603 3.15438,-1.341838 l 0.0256,-1.377461 c 0.0201,-1.083969 -0.7152,-0.721621 -0.69029,-2.105764 l 0.17429,-9.681444 c 0.0389,-2.160805 0.90115,-2.835057 3.01382,-2.76532 l 1.93955,0.06402 c 2.85142,0.09413 3.59664,1.885 3.37693,4.482557 l -0.75785,8.959879 c -0.1384,1.636321 -0.17408,3.596877 1.71317,3.618385 l 1.56391,0.01782 c 0.61966,0.0071 0.96861,-0.213845 0.96861,-0.730433 0,-0.565968 -0.46208,-0.932116 -0.44775,-1.610572 z"
     id="path14359-1-7-5-3-0-73-1-9-8-1"
     inkscape:connector-curvature="0"
     sodipodi:nodetypes="cssssssssccssssccsssssssssssssssc" />
  <path
     style="fill:none;fill-opacity:1;stroke:#000000;stroke-width:4;stroke-linecap:round;stroke-linejoin:round;stroke-miterlimit:4;stroke-dasharray:none;stroke-opacity:1"
     d="M 60.029768,6.3766506 58.749711,39.317904"
     id="path1954-9-0-7-00-5-0"
     inkscape:connector-curvature="0"
     sodipodi:nodetypes="cc" />
  <path
     style="fill:none;stroke:#000000;stroke-width:4;stroke-linecap:round;stroke-linejoin:round;stroke-miterlimit:4;stroke-dasharray:none;stroke-opacity:1"
     d="M 66.825842,6.1354604 52.986289,6.1334668"
     id="path14359-1-7-5-3-0-73-1-9"
     inkscape:connector-curvature="0"
     sodipodi:nodetypes="cc"
     inkscape:transform-center-x="-0.16115768"
     inkscape:transform-center-y="-0.033552236" />
  <path
     style="fill:none;fill-opacity:1;stroke:#000000;stroke-width:4;stroke-linecap:round;stroke-linejoin:round;stroke-miterlimit:4;stroke-dasharray:none;stroke-opacity:1"
     d="M 144.77478,7.0729993 143.6222,39.176219"
     id="path1954-9-0-7-00-5-0-6"
     inkscape:connector-curvature="0"
     sodipodi:nodetypes="cc" />
  <path
     style="fill:none;stroke:#000000;stroke-width:4;stroke-linecap:round;stroke-linejoin:round;stroke-miterlimit:4;stroke-dasharray:none;stroke-opacity:1"
     d="m 151.84908,6.3893695 -13.06137,-0.00199"
     id="path14359-1-7-5-3-0-73-1-9-2"
     inkscape:connector-curvature="0"
     sodipodi:nodetypes="cc"
     inkscape:transform-center-x="-0.16115494"
     inkscape:transform-center-y="-0.033550452" />
  <path
     style="fill:none;fill-opacity:1;stroke:#000000;stroke-width:4;stroke-linecap:round;stroke-linejoin:round;stroke-miterlimit:4;stroke-dasharray:none;stroke-opacity:1"
     d="M 181.75958,5.9160796 180.47953,38.875738"
     id="path1954-9-0-7-00-5-0-7"
     inkscape:connector-curvature="0"
     sodipodi:nodetypes="cc" />
  <path
     style="fill:none;stroke:#000000;stroke-width:4;stroke-linecap:round;stroke-linejoin:round;stroke-miterlimit:4;stroke-dasharray:none;stroke-opacity:1"
     d="m 188.70642,5.491293 -13.65,-0.00199"
     id="path14359-1-7-5-3-0-73-1-9-6"
     inkscape:connector-curvature="0"
     sodipodi:nodetypes="cc"
     inkscape:transform-center-x="-0.16116211"
     inkscape:transform-center-y="-0.033550418" />
  <path
     style="fill:none;fill-opacity:1;stroke:#000000;stroke-width:4;stroke-linecap:round;stroke-linejoin:round;stroke-miterlimit:4;stroke-dasharray:none;stroke-opacity:1"
     d="m 180.87502,57.555279 -1.37816,32.262465"
     id="path1954-9-0-7-00-5-0-2"
     inkscape:connector-curvature="0"
     sodipodi:nodetypes="cc" />
  <path
     style="fill:none;stroke:#000000;stroke-width:4;stroke-linecap:round;stroke-linejoin:round;stroke-miterlimit:4;stroke-dasharray:none;stroke-opacity:1"
     d="m 187.52753,57.130488 -13.25758,-0.002"
     id="path14359-1-7-5-3-0-73-1-9-22"
     inkscape:connector-curvature="0"
     sodipodi:nodetypes="cc"
     inkscape:transform-center-x="-0.16115766"
     inkscape:transform-center-y="-0.033555365" />
  <path
     style="fill:none;fill-opacity:1;stroke:#000000;stroke-width:4;stroke-linecap:round;stroke-linejoin:round;stroke-miterlimit:4;stroke-dasharray:none;stroke-opacity:1"
     d="M 104.23489,57.197269 H 94.843369 L 93.025092,89.706934 H 103.38006"
     id="path1954-9-0-7-00-3"
     inkscape:connector-curvature="0"
     sodipodi:nodetypes="cccc" />
  <path
     style="fill:none;fill-opacity:1;stroke:#000000;stroke-width:4;stroke-linecap:round;stroke-linejoin:round;stroke-miterlimit:4;stroke-dasharray:none;stroke-opacity:1"
     d="M 103.36569,72.954975 H 94.619274"
     id="path1954-9-0-7-0-7-9"
     inkscape:connector-curvature="0"
     sodipodi:nodetypes="cc" />
  <path
     style="fill:none;fill-opacity:1;stroke:#000000;stroke-width:4;stroke-linecap:round;stroke-linejoin:round;stroke-miterlimit:4;stroke-dasharray:none;stroke-opacity:1"
     d="m 154.65609,89.300904 1.05103,-31.976028 h 3.15586 l 6.57418,31.976028 h 2.10432 l 1.05103,-31.976028"
     id="path1954-9-0-7-00-5-0-6-8"
     inkscape:connector-curvature="0"
     sodipodi:nodetypes="cccccc" />
  <path
     style="fill:none;fill-opacity:1;stroke:#000000;stroke-width:4;stroke-linecap:round;stroke-linejoin:round;stroke-miterlimit:4;stroke-dasharray:none;stroke-opacity:1"
     d="M 23.758215,39.333016 24.809248,6.1319816 h 3.155858 l 6.574181,33.2010344 h 2.104314 L 37.694635,6.1319816"
     id="path1954-9-0-7-00-5-0-6-8-7"
     inkscape:connector-curvature="0"
     sodipodi:nodetypes="cccccc" />
  <path
     style="fill:none;fill-opacity:1;stroke:#000000;stroke-width:4;stroke-linecap:round;stroke-linejoin:round;stroke-miterlimit:4;stroke-dasharray:none;stroke-opacity:1"
     d="M 46.075781,6.1334668 44.795724,39.408817"
     id="path1954-9-0-7-00-5-0-4"
     inkscape:connector-curvature="0"
     sodipodi:nodetypes="cc" />
  <path
     style="fill:none;fill-opacity:1;stroke:#000000;stroke-width:4;stroke-linecap:round;stroke-linejoin:round;stroke-miterlimit:4;stroke-dasharray:none;stroke-opacity:1"
     d="m 17.450304,5.97783 -1.025099,27.246592 c -0.16785,4.461355 -2.123292,5.879763 -6.243004,5.879763 -3.9198046,0 -5.8997181,-1.635234 -5.7400261,-5.879763 L 5.4672737,5.97783"
     id="path1954-9-0-7-00-5-0-8"
     inkscape:connector-curvature="0"
     sodipodi:nodetypes="csssc" />
  <path
     style="fill:none;fill-opacity:1;stroke:#000000;stroke-width:4;stroke-linecap:round;stroke-linejoin:round;stroke-miterlimit:4;stroke-dasharray:none;stroke-opacity:1"
     d="m 68.957643,57.138469 -1.025099,27.246588 c -0.16785,4.461356 -2.123292,5.879763 -6.243004,5.879763 -3.919805,0 -5.899718,-1.635233 -5.740026,-5.879763 l 1.025099,-27.246588"
     id="path1954-9-0-7-00-5-0-8-3"
     inkscape:connector-curvature="0"
     sodipodi:nodetypes="csssc" />
  <path
     style="fill:none;fill-opacity:1;stroke:#000000;stroke-width:4;stroke-linecap:round;stroke-linejoin:round;stroke-miterlimit:4;stroke-dasharray:none;stroke-opacity:1"
     d="m 210.58104,57.359223 5.86206,19.57517 7.26301,-19.507653"
     id="path1954-9-0-7-00-5-0-67"
     inkscape:connector-curvature="0"
     sodipodi:nodetypes="ccc" />
  <path
     style="fill:none;fill-opacity:1;stroke:#000000;stroke-width:4;stroke-linecap:round;stroke-linejoin:round;stroke-miterlimit:4;stroke-dasharray:none;stroke-opacity:1"
     d="m 216.54018,74.336143 -0.61029,15.705485"
     id="path1954-9-0-7-00-5-0-73"
     inkscape:connector-curvature="0"
     sodipodi:nodetypes="cc" />
  <path
     style="fill:none;fill-opacity:1;stroke:#000000;stroke-width:4;stroke-linecap:round;stroke-linejoin:round;stroke-miterlimit:4;stroke-dasharray:none;stroke-opacity:1"
     d="M 170.03743,39.057711 164.94354,6.0980513 h -1.40228 l -9.69367,32.9596597"
     id="path1954-9-0-7-00-5-0-7-7"
     inkscape:connector-curvature="0"
     sodipodi:nodetypes="cccc" />
  <path
     style="fill:none;stroke:#000000;stroke-width:4;stroke-linecap:round;stroke-linejoin:round;stroke-miterlimit:4;stroke-dasharray:none;stroke-opacity:1"
     d="m 167.90218,28.661813 -10.63927,-0.002"
     id="path14359-1-7-5-3-0-73-1-9-2-1"
     inkscape:connector-curvature="0"
     sodipodi:nodetypes="cc"
     inkscape:transform-center-x="-0.16115846"
     inkscape:transform-center-y="-0.033555116" />
  <path
     style="fill:#000000;fill-opacity:1;stroke:#000000;stroke-width:1;stroke-linecap:round;stroke-linejoin:round;stroke-miterlimit:4;stroke-dasharray:none;stroke-opacity:1"
     d="m 125.85746,40.743817 c 4.12467,-0.105256 6.53162,-2.409173 6.72393,-8.360269 0.0967,-2.990948 -0.50909,-4.921965 -1.85926,-6.776978 -2.05282,-2.820401 -4.28119,-5.848472 -6.9939,-8.602568 -1.07549,-1.0919 -1.4998,-2.263661 -1.54673,-4.437693 -0.0363,-1.684165 0.95163,-5.0361767 4.5057,-5.0361767 3.64834,0 3.32974,2.7189787 3.22795,3.9446957 -0.11132,1.340725 0.68518,1.77556 1.4795,1.775609 l 1.34495,8e-5 c 0.81634,5e-5 0.93064,-0.328598 0.80699,-1.638513 -0.53949,-5.7148332 -2.42965,-7.0619879 -5.65992,-7.0619879 -5.14972,0 -8.87399,3.7037558 -8.89454,7.3862799 -0.0167,2.994549 1.52882,5.847954 3.13155,7.625896 2.07749,2.304589 4.33385,5.319183 6.29035,7.937897 0.996,1.33312 1.13731,3.565637 1.08171,5.09149 -0.12482,3.425989 -1.44772,5.623295 -4.30305,5.544281 -2.21147,-0.06119 -3.99711,-1.69938 -4.11939,-3.586583 -0.0882,-1.360041 0.94572,-1.661883 0.9035,-2.659474 -0.0322,-0.759943 -0.47584,-1.136651 -1.19359,-1.137818 l -1.22555,-0.002 c -1.44228,-0.0024 -1.98128,1.937495 -1.89986,4.07365 0.12477,3.273471 3.70973,6.034757 8.19966,5.920182 z"
     id="path14359-1-7-5-3-0-73-1-9-2-8"
     inkscape:connector-curvature="0"
     sodipodi:nodetypes="ssssssssssssssssssssss"
     inkscape:transform-center-x="0.16115647"
     inkscape:transform-center-y="0.033555922" />
  <path
     style="fill:#000000;fill-opacity:1;stroke:#000000;stroke-width:1;stroke-linecap:round;stroke-linejoin:round;stroke-miterlimit:4;stroke-dasharray:none;stroke-opacity:1"
     d="m 79.748486,90.68469 c 4.124677,-0.105255 6.672131,-1.776874 6.864446,-7.727969 0.09671,-2.990952 -0.579346,-5.694776 -1.929513,-7.549788 -2.05282,-2.820402 -2.970393,-4.184128 -5.615849,-7.347873 -0.984337,-1.177186 -2.037794,-2.741584 -2.084724,-4.915616 -0.03633,-1.684171 0.252109,-5.54598 4.438452,-5.461669 3.647602,0.07346 3.329735,3.281022 3.227952,4.506731 -0.111325,1.340732 0.685177,1.775569 1.4795,1.775616 l 1.344943,7.9e-5 c 0.816345,4.7e-5 0.930646,-0.3286 0.806988,-1.638516 C 87.741194,56.610858 85.851039,55.2637 82.62077,55.2637 c -5.149722,0 -9.149131,2.36854 -9.175563,7.105253 -0.01671,2.994548 1.809837,6.128979 3.412571,7.906923 2.077483,2.304588 3.561038,4.405864 5.517534,7.024572 0.996004,1.333125 1.204428,4.338336 1.15197,5.864303 -0.124816,3.630815 -1.722728,4.51307 -5.116052,4.365782 -2.210269,-0.09594 -3.32462,-1.153179 -3.446903,-3.040383 -0.08817,-1.360041 0.743978,-1.525332 0.701751,-2.522923 -0.0322,-0.759943 0.06216,-1.478023 -0.655597,-1.479194 l -1.225548,-0.002 c -1.442279,-0.0024 -2.317523,2.142321 -2.2361,4.278476 0.124774,3.273469 3.709729,6.034757 8.199653,5.920181 z"
     id="path14359-1-7-5-3-0-73-1-9-2-8-9"
     inkscape:connector-curvature="0"
     sodipodi:nodetypes="ssssssssssssssssssssss"
     inkscape:transform-center-x="0.16115607"
     inkscape:transform-center-y="0.033555592" />
  <path
     style="fill:#000000;fill-opacity:1;stroke:#000000;stroke-width:1;stroke-linecap:round;stroke-linejoin:round;stroke-miterlimit:4;stroke-dasharray:none;stroke-opacity:1"
     d="m 218.2473,40.99578 c 4.12467,-0.105256 6.53162,-2.409173 6.72393,-8.360268 0.0967,-2.990957 -0.50909,-4.921964 -1.85926,-6.776976 -2.05281,-2.820402 -4.28119,-5.848472 -6.99389,-8.602568 -1.07549,-1.0919 -1.49981,-2.263662 -1.54674,-4.437693 -0.0363,-1.684176 0.31936,-5.6825285 4.5057,-5.5982211 3.64761,0.073462 3.32974,3.2810221 3.22796,4.5067291 -0.11133,1.340736 0.68517,1.77557 1.4795,1.77562 l 1.34494,8e-5 c 0.81634,4.9e-5 0.93064,-0.328598 0.80699,-1.638513 -0.53949,-5.7148338 -2.42965,-7.0619885 -5.65991,-7.0619885 -5.14973,0 -8.87399,3.7037558 -8.89454,7.3862695 -0.0167,2.994549 1.52881,5.847964 3.13155,7.625906 2.07748,2.304589 4.33384,5.319183 6.29034,7.937897 0.996,1.33312 1.13731,3.565635 1.08171,5.091488 -0.12481,3.425989 -1.44772,5.623295 -4.30305,5.544282 -2.21146,-0.06119 -3.99711,-1.69938 -4.11939,-3.586584 -0.0882,-1.360041 0.94573,-1.661882 0.9035,-2.659474 -0.0322,-0.759943 -0.47584,-1.13665 -1.19359,-1.137817 l -1.22555,-0.002 c -1.44228,-0.0024 -1.98127,1.937494 -1.89985,4.07365 0.12477,3.273469 3.70972,6.034757 8.19965,5.920181 z"
     id="path14359-1-7-5-3-0-73-1-9-2-8-4"
     inkscape:connector-curvature="0"
     sodipodi:nodetypes="ssssssssssssssssssssss"
     inkscape:transform-center-x="0.16115488"
     inkscape:transform-center-y="0.033555748" />
</svg>
