<?xml version="1.0" encoding="UTF-8" standalone="no"?>
<!-- Created with Inkscape (http://www.inkscape.org/) -->

<svg
   xmlns:dc="http://purl.org/dc/elements/1.1/"
   xmlns:cc="http://creativecommons.org/ns#"
   xmlns:rdf="http://www.w3.org/1999/02/22-rdf-syntax-ns#"
   xmlns:svg="http://www.w3.org/2000/svg"
   xmlns="http://www.w3.org/2000/svg"
   xmlns:sodipodi="http://sodipodi.sourceforge.net/DTD/sodipodi-0.dtd"
   xmlns:inkscape="http://www.inkscape.org/namespaces/inkscape"
   version="1.1"
   id="svg8731"
   width="218.24001"
   height="215.67999"
   viewBox="0 0 218.24001 215.67999"
   sodipodi:docname="ec01jn91.137.svg"
   inkscape:version="0.92.2 5c3e80d, 2017-08-06">
  <metadata
     id="metadata8737">
    <rdf:RDF>
      <cc:Work
         rdf:about="">
        <dc:format>image/svg+xml</dc:format>
        <dc:type
           rdf:resource="http://purl.org/dc/dcmitype/StillImage" />
        <dc:title></dc:title>
      </cc:Work>
    </rdf:RDF>
  </metadata>
  <defs
     id="defs8735" />
  <sodipodi:namedview
     pagecolor="#ffffff"
     bordercolor="#666666"
     borderopacity="1"
     objecttolerance="10"
     gridtolerance="10"
     guidetolerance="10"
     inkscape:pageopacity="0"
     inkscape:pageshadow="2"
     inkscape:window-width="1280"
     inkscape:window-height="756"
     id="namedview8733"
     showgrid="false"
     inkscape:zoom="2.9496282"
     inkscape:cx="108.25586"
     inkscape:cy="68.532508"
     inkscape:window-x="0"
     inkscape:window-y="0"
     inkscape:window-maximized="0"
     inkscape:current-layer="svg8731" />
  <path
     style="fill:#c4c4c4;fill-opacity:1;stroke:none;stroke-width:0.5;stroke-linecap:round;stroke-linejoin:round;stroke-miterlimit:4;stroke-dasharray:none;stroke-opacity:1"
     d="m 100.10126,114.70065 c 0.55216,1.35432 -0.402793,3.54551 -0.997815,4.86936 -0.20417,0.45425 0.05528,2.21975 0.03991,2.23511 -0.404014,0.40402 -0.615069,1.23014 -0.878081,1.75617 -0.248411,0.49682 -0.845723,0.77345 -1.117558,1.31712 -0.223304,0.4466 -0.296524,0.99217 -0.518867,1.43686 -0.30052,0.60104 -0.68366,1.16775 -0.997819,1.79607 -0.152249,0.3045 -0.08536,0.72951 -0.239477,1.03773 -0.598076,1.19616 -1.993993,2.17278 -2.753982,3.31277 -0.344695,0.51704 -1.039982,1.01262 -1.556599,1.35703 -0.546413,0.36428 -1.107843,0.94819 -1.556598,1.39695 -0.518537,0.51854 -3.079434,1.87897 -3.791715,2.23511 -0.655927,0.32797 -1.700701,0.46341 -2.235116,0.99782 -0.133976,0.13398 -0.176292,0.29603 -0.279389,0.39913 -0.127779,0.12778 0.119738,0.54671 0.119738,0.67852 0,0.70321 -0.05215,3.39419 0.159651,3.71189 0.117243,0.35152 0.155095,2.11082 0.359218,2.31494 0.311105,0.3111 0.619342,0.81891 0.957907,1.15747 0.4337,0.4337 0.375848,1.46513 1.037732,1.79608 0.614909,0.30745 1.373425,0.55164 1.71625,1.23729 0.102485,0.20497 0.338135,1.07989 0.199564,1.35704 -0.08052,0.16103 -0.462796,0.3117 -0.319302,0.59869 0.209325,0.41865 0.637871,0.79605 0.798255,1.27721 0.292097,0.87629 0.598309,1.7151 0.917995,2.67415 0.119612,0.35884 0.390644,0.70147 0.558779,1.03774 0.243162,0.48632 0.775552,3.06157 0.598691,3.59215 -0.05703,0.1711 -0.03067,0.58944 -0.159651,0.71843 -0.445148,0.44515 -1.317756,0.79889 -1.875901,1.35703 -0.464801,0.4648 0.682824,1.15317 0.598692,1.2373 -0.121784,0.12178 -0.169278,0.37847 -0.279389,0.59869 -0.117751,0.2355 -0.604896,0.64481 -0.758343,0.79826 -0.254386,0.25438 -0.720165,0.56398 -0.758343,0.67851 -0.308689,0.20435 -0.436765,0.51659 -0.638605,0.71843 -0.542089,0.54209 -0.418895,1.83561 -0.758343,2.51451 -0.698134,1.39627 -1.016371,3.07047 -1.71625,4.47023 -0.386626,0.77325 0.05759,3.45928 -0.199563,4.23076 -0.239275,0.71782 0.170626,1.81403 -0.159652,2.47459 -0.146071,0.29214 -0.532179,0.38584 -0.678517,0.67852 -0.237655,0.47531 -0.239802,1.03838 -0.478953,1.51668 -0.08797,0.17595 0.04675,0.46528 -0.03991,0.63861 -0.42833,0.85666 -0.249883,1.97653 -0.638605,2.75398 -0.221395,0.44279 -0.628988,0.50925 -0.957907,0.83817 -0.416809,0.41681 -0.679403,1.27809 -1.077645,1.67633 -0.27211,0.27211 -0.491863,0.30521 -0.638604,0.5987 -0.284673,0.56934 -0.393614,6.25667 -0.07983,6.46587 0.725328,1.37714 2.375665,2.21601 3.352675,3.19302 0.2608,0.2608 0.774245,0.17555 0.99782,0.39913 0.09578,0.0958 0.488941,-0.28938 0.518866,-0.3193 0.194191,-0.1942 1.258881,-0.14133 1.556599,-0.43905 0.403673,-0.40367 -0.359202,-1.59648 -0.558779,-1.99563 -0.142831,-0.28567 -0.252859,-0.46581 -0.399128,-0.75835 -0.236656,-0.47331 0.199564,-1.23933 0.199564,-1.67633 0,-0.91651 -0.449257,-2.5739 0,-3.47242 0.206254,-0.41251 0.802516,-0.68704 1.037732,-1.15747 0.290721,-0.58144 0.121691,-2.43663 0.478953,-2.79389 0.09974,-0.0997 0.191447,-0.31119 0.319303,-0.43904 0.248266,-0.24827 0.567807,-0.0979 0.758343,-0.47896 0.228673,-0.45734 -0.115133,-1.12677 0.219392,-2.03326 0.334525,-0.9065 0.06145,-1.64161 0.299474,-2.11767 0.518381,-1.03676 1.062005,-1.31011 1.476773,-2.55441 0.356418,-1.06926 -0.275888,-2.44169 0.239477,-3.47242 0.288638,-0.57727 0.747595,-0.66777 1.077645,-0.99782 0.08752,-0.0875 0.03991,-0.50983 0.03991,-0.6386 0,-1.25658 0.349474,-2.15624 0.638604,-3.31276 0.292475,-1.1699 1.277209,-1.8723 1.317124,-3.21118 -0.595838,-1.75906 0.600273,-2.61767 1.516687,-3.53408 0.327872,-0.32788 0.41601,-0.89497 0.71843,-1.19739 0.393043,-0.39304 0.177329,-1.21506 0.518866,-1.55659 0.53362,-0.53362 0.999494,-0.44239 1.317122,-1.07765 0.266138,-0.53228 -0.504971,-1.50279 -0.798256,-1.79608 -0.345612,-0.34561 -0.06945,-2.73324 -0.319302,-3.23293 -0.350875,-0.70175 -0.965834,-1.18932 -1.237296,-1.59651 -0.997822,-0.33003 -0.933552,-3.28841 -1.157471,-3.51233 -0.173076,-0.17307 -0.535372,-0.44729 -0.838168,-0.59869 -0.379234,-0.18962 -1.841562,-2.48574 -1.99564,-2.79389 -0.195179,-0.39036 -0.08462,-0.96751 -0.279389,-1.35704 -0.199204,-0.39841 -0.56698,-0.61509 -0.758343,-0.99782 -0.248894,-0.49779 0.285591,-3.00586 0.518866,-3.47241 0.226022,-0.45204 0.06013,-1.45707 0.399128,-1.79608 0.547823,-0.54782 0.99838,0.22599 1.676337,0 0.227962,-0.076 2.664933,-2.30571 2.87372,-2.5145 0.336671,-0.33667 0.423278,-1.54084 0.798256,-1.91582 0.440613,-0.44061 0.689547,-1.1685 1.197384,-1.67633 0.337112,-0.33711 0.764626,-0.48524 1.15747,-0.87808 0.292251,-0.29225 0.487394,-0.65473 0.678518,-0.71843 0.285125,-0.50218 0.609158,-0.89902 0.878081,-1.43686 0.0778,-0.1556 0.356227,-0.31632 0.478953,-0.43904 0.402437,-0.40244 1.075467,-1.3926 1.317127,-1.87591 0.44876,-0.89752 -0.12551,-4.06533 0.35921,-4.55005 0.49139,-0.49139 1.34919,-0.39129 1.91581,-0.95791 0.2844,-0.28439 0.43788,-0.71727 0.75835,-1.03773 0.55925,-0.55926 1.36741,-0.89883 1.71625,-1.59651 0.1828,-0.36562 -0.10024,-1.53619 0,-1.63643 0.62606,-0.62606 0.87808,-1.86849 0.87808,-2.71407 z"
     id="path11026"
     inkscape:connector-curvature="0"
     sodipodi:nodetypes="csccccccccccccscsccscccccccccsccsccccccccscccscccccsssccccccccssccccscccccccccccccccccccscccscc" />
  <path
     style="fill:none;stroke:#000000;stroke-width:2;stroke-linecap:butt;stroke-linejoin:round;stroke-miterlimit:4;stroke-dasharray:none;stroke-opacity:1"
     d="m 215.63428,37.480842 h -28.93333 l 0.002,-35.3869456"
     id="path14359-1-7-5-3-0-73-1-9-4"
     inkscape:connector-curvature="0"
     sodipodi:nodetypes="ccc"
     inkscape:transform-center-x="-0.033661115"
     inkscape:transform-center-y="0.16414828" />
  <path
     style="fill:none;stroke:#000000;stroke-width:0.5;stroke-linecap:round;stroke-linejoin:round;stroke-miterlimit:4;stroke-dasharray:none;stroke-opacity:1"
     d="m 192.47941,6.4641474 c -0.62688,0.00711 -0.88215,0.4127377 -0.87715,1.05799 l 0.0945,12.1905756 15.8406,14.154271 c 0.52489,0.469016 0.72287,-0.09184 0.59806,-0.667176 -0.13082,-0.603043 -0.059,-1.149769 -0.0585,-1.878479 4.3e-4,-0.68822 0.33828,-1.030495 0.71864,-1.085757 0.30812,-0.04477 0.63868,0.06467 0.6315,-0.637128 L 209.20175,7.5617894 c -0.009,-0.8357252 -0.2335,-1.2845257 -0.9582,-1.276312 z"
     id="path14359-1-7-5-3-0-73-1-9-8-5-9"
     inkscape:connector-curvature="0"
     sodipodi:nodetypes="sscssssssss" />
  <path
     style="fill:#000000;fill-opacity:1;stroke:#000000;stroke-width:1;stroke-linecap:round;stroke-linejoin:round;stroke-miterlimit:4;stroke-dasharray:none;stroke-opacity:1"
     d="m 203.07587,23.239963 -0.002,2.846554 h 2.66068 l 0.002,-2.846554 z"
     id="path14359-1-7-5-3-0-73-1-9-8-5-5"
     inkscape:connector-curvature="0"
     sodipodi:nodetypes="ccccc" />
  <path
     style="fill:#000000;fill-opacity:1;stroke:#000000;stroke-width:1;stroke-linecap:butt;stroke-linejoin:miter;stroke-miterlimit:4;stroke-dasharray:none;stroke-opacity:1"
     d="m 114.36702,85.786293 -0.002,1.854511 h 82.9947 l 0.002,-1.854511 v 1.372991 h -82.9947 z"
     id="path14359-1-7-5-3-0-73-1-9-8-5-56"
     inkscape:connector-curvature="0"
     sodipodi:nodetypes="ccccccc" />
  <path
     style="fill:#000000;fill-opacity:1;stroke:#000000;stroke-width:1;stroke-linecap:round;stroke-linejoin:round;stroke-miterlimit:4;stroke-dasharray:none;stroke-opacity:1"
     d="m 155.00794,73.62879 0,-19.987356 c 0,-0.724601 0.42417,-1.26945 1.23304,-1.27773 0.86878,-0.009 1.79543,1.150393 2.46263,2.22511 l -3.69367,-19.275903 z"
     id="path14359-1-7-5-3-0-73-1-9-8-5-3"
     inkscape:connector-curvature="0"
     sodipodi:nodetypes="cssccc" />
  <path
     style="fill:none;stroke:#000000;stroke-width:2;stroke-linecap:butt;stroke-linejoin:round;stroke-miterlimit:4;stroke-dasharray:none;stroke-opacity:1"
     d="m 4.8088278,2.4644885 -0.002,209.9875715 209.9138222,0 0.002,-209.9875715 z"
     id="path14359-1-7-5-3-0-73-1-9-8"
     inkscape:connector-curvature="0"
     sodipodi:nodetypes="ccccc" />
  <path
     style="fill:none;stroke:#000000;stroke-width:1;stroke-linecap:butt;stroke-linejoin:miter;stroke-miterlimit:4;stroke-dasharray:none;stroke-opacity:1"
     d="m 155.32847,85.786293 -0.002,1.854511"
     id="path14359-1-7-5-3-0-73-1-9"
     inkscape:connector-curvature="0"
     sodipodi:nodetypes="cc"
     inkscape:transform-center-x="0.03366111"
     inkscape:transform-center-y="-0.1641457" />
  <path
     style="fill:none;stroke:#000000;stroke-width:0.66529155;stroke-linecap:round;stroke-linejoin:round;stroke-miterlimit:4;stroke-dasharray:none;stroke-opacity:1"
     d="m 73.999046,48.522207 c -1.09466,-0.098 -1.89909,-0.25877 -2.7403,-0.85058 -1.00728,-0.70864 -2.17842,-2.54658 -2.10867,-4.19566 0.11881,-2.80902 1.87773,-2.8382 1.84138,-4.10117 -0.0271,-0.94268 -0.50038,-1.48111 -0.9181,-1.89406 -0.45289,-0.44773 1.26638,-2.78782 1.7289,-2.43532 0.73483,0.56004 2.00173,0.46731 2.69695,0.46731 1.62721,0 1.90524,-0.62342 2.58455,-0.62342 0.67932,0 0.95735,0.62342 2.58456,0.62342 0.69522,0 1.96211,0.0927 2.69695,-0.46731 0.46252,-0.3525 2.18179,1.98759 1.72889,2.43532 -0.41771,0.41295 -0.89097,0.95138 -0.9181,1.89406 -0.0363,1.26297 1.72258,1.29215 1.84139,4.10117 0.0698,1.64908 -1.10139,3.48702 -2.10867,4.19566 -0.84122,0.59181 -1.64565,0.75258 -2.7403,0.85058 -1.07261,0.096 -2.0199,0.1581 -3.08472,1.15319 -1.06481,-0.99509 -2.01211,-1.05718 -3.08471,-1.15319 z"
     id="path14359-1-7-5-3-0-73-1-9-8-2-1-8-1-3-8-83-9-9-3-2-8-2-8-9-2-7"
     inkscape:connector-curvature="0"
     sodipodi:nodetypes="ssssssssssssssscs" />
  <g
     id="g902"
     sodipodi:insensitive="true">
    <text
       id="text9243"
       y="82.74202"
       x="112.31129"
       style="font-style:normal;font-variant:normal;font-weight:normal;font-stretch:normal;font-size:5.33333349px;line-height:6.66666651px;font-family:Arial;-inkscape-font-specification:Arial;text-align:start;letter-spacing:0px;word-spacing:0px;text-anchor:start;fill:#000000;fill-opacity:1;stroke:none"
       xml:space="preserve"><tspan
         y="82.74202"
         x="112.31129"
         id="tspan9241"
         sodipodi:role="line">0</tspan></text>
    <text
       id="text9251"
       y="82.383713"
       x="195.52576"
       style="font-style:normal;font-variant:normal;font-weight:normal;font-stretch:normal;font-size:5.33333349px;line-height:6.66666651px;font-family:Arial;-inkscape-font-specification:Arial;text-align:start;letter-spacing:0.25px;word-spacing:0px;text-anchor:start;fill:#000000;fill-opacity:1;stroke:none"
       xml:space="preserve"><tspan
         y="82.383713"
         x="195.52576"
         id="tspan9249"
         sodipodi:role="line">1 MILE</tspan></text>
    <text
       id="text9117-55"
       y="30.32412"
       x="151.65527"
       style="font-style:normal;font-variant:normal;font-weight:normal;font-stretch:normal;font-size:6.66666651px;line-height:6.66666651px;font-family:Arial;-inkscape-font-specification:Arial;text-align:start;letter-spacing:0.64999998px;word-spacing:0px;text-anchor:start;fill:#000000;fill-opacity:1;stroke:none"
       xml:space="preserve"><tspan
         y="30.32412"
         x="151.65527"
         id="tspan9115-8"
         sodipodi:role="line">N</tspan></text>
    <text
       id="text9251-7"
       y="82.338379"
       x="151.02669"
       style="font-style:normal;font-variant:normal;font-weight:normal;font-stretch:normal;font-size:5.33333349px;line-height:6.66666651px;font-family:Arial;-inkscape-font-specification:Arial;text-align:start;letter-spacing:0.5px;word-spacing:0px;text-anchor:start;fill:#000000;fill-opacity:1;stroke:none"
       xml:space="preserve"><tspan
         y="82.338379"
         x="151.02669"
         id="tspan9249-4"
         sodipodi:role="line">1/2</tspan></text>
    <text
       id="text8373-2-2"
       y="122.59408"
       x="108.45673"
       style="font-style:italic;font-variant:normal;font-weight:normal;font-stretch:normal;font-size:6.66666651px;line-height:6.66666651px;font-family:Arial;-inkscape-font-specification:'Arial Italic';text-align:start;letter-spacing:0.57999992px;word-spacing:2.70000005px;text-anchor:start;fill:#000000;fill-opacity:1;stroke:none"
       xml:space="preserve"><tspan
         id="tspan8400-5"
         y="122.59408"
         x="108.45673"
         sodipodi:role="line">Ash Springs</tspan></text>
    <text
       transform="rotate(-90)"
       id="text8432-6"
       y="108.92117"
       x="-28.93096"
       style="font-style:normal;font-variant:normal;font-weight:normal;font-stretch:normal;font-size:6.66666651px;line-height:6.66666651px;font-family:Arial;-inkscape-font-specification:Arial;text-align:start;letter-spacing:0.14px;word-spacing:0px;text-anchor:start;fill:#000000;fill-opacity:1;stroke:none"
       xml:space="preserve"><tspan
         y="108.92117"
         x="-28.93096"
         id="tspan8430-2"
         sodipodi:role="line">R 61 E</tspan></text>
    <text
       id="text8454-12"
       y="159.58585"
       x="140.82532"
       style="font-style:normal;font-variant:normal;font-weight:normal;font-stretch:normal;font-size:6.66666651px;line-height:6.66666651px;font-family:Arial;-inkscape-font-specification:Arial;text-align:start;letter-spacing:0px;word-spacing:0px;text-anchor:start;fill:#000000;fill-opacity:1;stroke:none"
       xml:space="preserve"><tspan
         y="159.58585"
         x="140.82532"
         id="tspan8452-04"
         sodipodi:role="line">6</tspan></text>
    <text
       id="text8454-55"
       y="162.01338"
       x="54.524887"
       style="font-style:normal;font-variant:normal;font-weight:normal;font-stretch:normal;font-size:6.66666651px;line-height:6.66666651px;font-family:Arial;-inkscape-font-specification:Arial;text-align:start;letter-spacing:0px;word-spacing:0px;text-anchor:start;fill:#000000;fill-opacity:1;stroke:none"
       xml:space="preserve"><tspan
         y="162.01338"
         x="54.524887"
         id="tspan8452-63"
         sodipodi:role="line">1</tspan></text>
    <text
       id="text8373-2-2-1"
       y="138.49387"
       x="102.55131"
       style="font-style:normal;font-variant:normal;font-weight:normal;font-stretch:normal;font-size:6.66666651px;line-height:6.66666651px;font-family:Arial;-inkscape-font-specification:Arial;text-align:start;letter-spacing:0.24999999px;word-spacing:2.70000005px;text-anchor:start;fill:#000000;fill-opacity:1;stroke:none"
       xml:space="preserve"><tspan
         id="tspan8400-5-9"
         y="138.49387"
         x="102.55131"
         sodipodi:role="line">Ash Springs</tspan></text>
    <text
       id="text8454-12-3"
       y="159.54564"
       x="206.78635"
       style="font-style:normal;font-variant:normal;font-weight:normal;font-stretch:normal;font-size:6.66666651px;line-height:6.66666651px;font-family:Arial;-inkscape-font-specification:Arial;text-align:start;letter-spacing:0px;word-spacing:0px;text-anchor:start;fill:#000000;fill-opacity:1;stroke:none"
       xml:space="preserve"><tspan
         y="159.54564"
         x="206.78635"
         id="tspan8452-04-1"
         sodipodi:role="line">5</tspan></text>
    <text
       id="text8454-12-1"
       y="74.459961"
       x="53.581055"
       style="font-style:normal;font-variant:normal;font-weight:normal;font-stretch:normal;font-size:6.66666651px;line-height:6.66666651px;font-family:Arial;-inkscape-font-specification:Arial;text-align:start;letter-spacing:1.05999994px;word-spacing:0px;text-anchor:start;fill:#000000;fill-opacity:1;stroke:none"
       xml:space="preserve"><tspan
         y="74.459961"
         x="53.581055"
         id="tspan8452-04-4"
         sodipodi:role="line">36</tspan></text>
    <text
       id="text8454-12-1-9"
       y="44.386642"
       x="72.807175"
       style="font-style:normal;font-variant:normal;font-weight:normal;font-stretch:normal;font-size:6.66666651px;line-height:6.66666651px;font-family:Arial;-inkscape-font-specification:Arial;text-align:start;letter-spacing:0px;word-spacing:0px;text-anchor:start;fill:#000000;fill-opacity:1;stroke:none"
       xml:space="preserve"><tspan
         y="44.386642"
         x="72.807175"
         id="tspan8452-04-4-5"
         sodipodi:role="line">93</tspan></text>
    <text
       transform="rotate(-90)"
       id="text8432-6-9"
       y="98.99044"
       x="-29.422661"
       style="font-style:normal;font-variant:normal;font-weight:normal;font-stretch:normal;font-size:6.66666651px;line-height:6.66666651px;font-family:Arial;-inkscape-font-specification:Arial;text-align:start;letter-spacing:0.41px;word-spacing:0px;text-anchor:start;fill:#000000;fill-opacity:1;stroke:none"
       xml:space="preserve"><tspan
         y="98.99044"
         x="-29.422661"
         id="tspan8430-2-0"
         sodipodi:role="line">R 60 E</tspan></text>
    <text
       id="text8432-6-93"
       y="121.72726"
       x="19.78039"
       style="font-style:normal;font-variant:normal;font-weight:normal;font-stretch:normal;font-size:6.66666651px;line-height:6.66666651px;font-family:Arial;-inkscape-font-specification:Arial;text-align:start;letter-spacing:0.23999999px;word-spacing:0px;text-anchor:start;fill:#000000;fill-opacity:1;stroke:none"
       xml:space="preserve"><tspan
         y="121.72726"
         x="19.78039"
         id="tspan8430-2-4"
         sodipodi:role="line">T 6 S</tspan></text>
    <text
       id="text8432-6-0"
       y="112.73055"
       x="19.225037"
       style="font-style:normal;font-variant:normal;font-weight:normal;font-stretch:normal;font-size:6.66666651px;line-height:6.66666651px;font-family:Arial;-inkscape-font-specification:Arial;text-align:start;letter-spacing:0.23999999px;word-spacing:0px;text-anchor:start;fill:#000000;fill-opacity:1;stroke:none"
       xml:space="preserve"><tspan
         y="112.73055"
         x="19.225037"
         id="tspan8430-2-7"
         sodipodi:role="line">T 5 S</tspan></text>
    <text
       transform="rotate(80.835336)"
       id="text8373-2-2-1-5"
       y="-56.082653"
       x="97.354729"
       style="font-style:normal;font-variant:normal;font-weight:normal;font-stretch:normal;font-size:6.66666651px;line-height:6.66666651px;font-family:Arial;-inkscape-font-specification:Arial;text-align:start;letter-spacing:0.24999999px;word-spacing:2.70000005px;text-anchor:start;fill:#000000;fill-opacity:1;stroke:none"
       xml:space="preserve"><tspan
         id="tspan8400-5-9-7"
         y="-56.082653"
         x="97.354729"
         sodipodi:role="line">Valley</tspan></text>
    <text
       transform="rotate(78.390557)"
       id="text8373-2-2-1-50"
       y="-51.805809"
       x="44.111526"
       style="font-style:normal;font-variant:normal;font-weight:normal;font-stretch:normal;font-size:6.66666651px;line-height:6.66666651px;font-family:Arial;-inkscape-font-specification:Arial;text-align:start;letter-spacing:0.24999999px;word-spacing:2.70000005px;text-anchor:start;fill:#000000;fill-opacity:1;stroke:none"
       xml:space="preserve"><tspan
         id="tspan8400-5-9-6"
         y="-51.805809"
         x="44.111526"
         sodipodi:role="line">Pahranagat</tspan></text>
  </g>
  <path
     style="fill:none;stroke:#000000;stroke-width:1;stroke-linecap:butt;stroke-linejoin:miter;stroke-miterlimit:4;stroke-dasharray:none;stroke-opacity:1"
     d="m 17.844112,2.4811605 -0.002,209.9779795"
     id="path14359-1-7-5-3-0-73-1-9-47"
     inkscape:connector-curvature="0"
     sodipodi:nodetypes="cc"
     inkscape:transform-center-x="0.03366111"
     inkscape:transform-center-y="-0.1641457" />
  <path
     style="fill:none;stroke:#000000;stroke-width:1;stroke-linecap:butt;stroke-linejoin:miter;stroke-miterlimit:4;stroke-dasharray:none;stroke-opacity:1"
     d="M 101.11197,2.4811605 101.87741,212.45914"
     id="path14359-1-7-5-3-0-73-1-9-84"
     inkscape:connector-curvature="0"
     sodipodi:nodetypes="cc"
     inkscape:transform-center-x="0.03366111"
     inkscape:transform-center-y="-0.1641457" />
  <path
     style="fill:none;stroke:#000000;stroke-width:1;stroke-linecap:butt;stroke-linejoin:miter;stroke-miterlimit:4;stroke-dasharray:none;stroke-opacity:1"
     d="m 183.50764,113.8321 2.88282,98.23957"
     id="path14359-1-7-5-3-0-73-1-9-0"
     inkscape:connector-curvature="0"
     sodipodi:nodetypes="cc"
     inkscape:transform-center-x="0.03366111"
     inkscape:transform-center-y="-0.1641457" />
  <path
     style="fill:none;stroke:#000000;stroke-width:1;stroke-linecap:butt;stroke-linejoin:miter;stroke-miterlimit:4;stroke-dasharray:none;stroke-opacity:1"
     d="m 4.354353,31.072593 96.755357,9.2e-4"
     id="path14359-1-7-5-3-0-73-1-9-06"
     inkscape:connector-curvature="0"
     sodipodi:nodetypes="cc"
     inkscape:transform-center-x="0.16414611"
     inkscape:transform-center-y="0.033661304" />
  <path
     style="fill:none;stroke:#000000;stroke-width:1;stroke-linecap:butt;stroke-linejoin:miter;stroke-miterlimit:4;stroke-dasharray:none;stroke-opacity:1"
     d="m 4.354353,198.12342 97.431677,9.3e-4 84.20173,-1.52094 28.6934,0.33845"
     id="path14359-1-7-5-3-0-73-1-9-2"
     inkscape:connector-curvature="0"
     sodipodi:nodetypes="cccc"
     inkscape:transform-center-x="0.16414611"
     inkscape:transform-center-y="0.033661304" />
  <path
     style="fill:none;stroke:#000000;stroke-width:1;stroke-linecap:butt;stroke-linejoin:miter;stroke-miterlimit:4;stroke-dasharray:none;stroke-opacity:1"
     d="M 4.354353,115.44341 214.68116,113.41645"
     id="path14359-1-7-5-3-0-73-1-9-474"
     inkscape:connector-curvature="0"
     sodipodi:nodetypes="cc"
     inkscape:transform-center-x="0.16414611"
     inkscape:transform-center-y="0.033661304" />
  <path
     style="fill:none;stroke:#000000;stroke-width:1;stroke-linecap:butt;stroke-linejoin:round;stroke-miterlimit:4;stroke-dasharray:none;stroke-opacity:1"
     d="m 64.220368,2.8080853 c 2.183896,5.028363 6.408203,11.8082447 9.407328,19.1753297 1.7116,4.204396 2.606637,8.719336 3.546689,12.908808 m 2.944846,13.790095 c 1.176043,3.895799 1.857508,7.751293 3.368373,11.620231 0.634025,1.623576 1.712868,2.531615 2.351176,4.137777 2.610786,6.569477 5.092732,13.058596 7.757979,19.171985 2.013758,4.619042 4.177285,9.020384 4.143203,14.904983 -0.01899,3.277966 -0.658637,6.671826 -0.810976,10.386786 -0.277301,6.76233 -1.103901,13.73753 -1.643971,21.53915 -0.131585,1.90082 -0.533186,4.32304 -0.17194,5.59808 3.755741,13.25605 7.578325,26.01765 11.801395,39.03496 1.14495,3.52925 3.8311,10.08815 5.58948,13.14599 4.56244,7.93411 9.38496,16.33933 13.72238,23.61139"
     id="path14359-1-7-5-3-0-73-1-9-1"
     inkscape:connector-curvature="0"
     sodipodi:nodetypes="csccsssssssssc"
     inkscape:transform-center-x="0.03366111"
     inkscape:transform-center-y="-0.1641457" />
  <path
     style="fill:#000000;stroke:#000000;stroke-width:1;stroke-linecap:round;stroke-linejoin:round;stroke-miterlimit:4;stroke-dasharray:none;stroke-opacity:1;fill-opacity:1"
     d="m 98.926748,137.68679 0.002,-2.72758 -3.759016,0 0.654336,2.72758 z"
     id="path14359-1-7-5-3-0-73-1-9-85"
     inkscape:connector-curvature="0"
     sodipodi:nodetypes="ccccc"
     inkscape:transform-center-x="0.03366111"
     inkscape:transform-center-y="-0.1641457" />
  <path
     style="fill:#000000;fill-opacity:1;stroke:#000000;stroke-width:0.5;stroke-linecap:round;stroke-linejoin:round;stroke-miterlimit:4;stroke-dasharray:none;stroke-opacity:1"
     d="m 103.04477,118.30358 c 1.59342,1.03699 1.96942,-3.07263 1.074,-3.52034 -1.08951,-0.54476 -1.25401,0.77667 -1.67067,1.19334 -0.18223,0.18222 -0.68965,0.45097 -0.89501,0.65633 -0.30655,0.30655 -2.172879,3.23194 -1.909339,3.75902 0.192134,0.38427 0.796389,1.21156 0.536999,1.73034 -0.352861,0.70573 -0.962896,1.20156 -1.49167,1.73034 -0.232173,0.23217 -0.323656,0.74132 -0.537002,0.95467 -0.327795,0.32779 0.08073,1.44955 -0.119334,1.84967 -0.282189,0.56438 -0.980909,3.06925 -1.014337,3.10268 -0.759225,1.57744 -1.56097,2.57268 -2.168371,3.18009 -0.276183,0.27618 -0.493186,1.19084 -0.77567,1.47332 -0.298334,0.29834 -0.347931,0.24874 -0.298334,0.29834 0.350061,0.35006 2.772864,-2.69223 2.94404,-2.86341 0.639094,-0.63909 1.09628,-3.80356 1.611007,-4.83302 0.121302,-0.2426 -0.06861,-0.88606 0.119334,-1.074 0.271263,-0.27126 0.372254,-0.73026 0.656336,-1.01434 0.279733,-0.27973 0.678557,-0.32055 1.014341,-0.65633 0.15149,-0.1515 0.4022,-1.69942 0.59667,-2.08835 0.74417,-1.48835 -0.32423,-3.31546 0.77567,-4.41535 0.35039,-0.35039 1.18213,0.4447 1.55134,0.537 z"
     id="path11022"
     inkscape:connector-curvature="0"
     sodipodi:nodetypes="cccsccccccccccccccccc" />
  <path
     style="fill:none;stroke:#000000;stroke-width:0.5;stroke-linecap:round;stroke-linejoin:round;stroke-opacity:1;stroke-miterlimit:4;stroke-dasharray:none"
     d="m 93.795045,134.61713 c -0.559416,0.57734 -0.87745,1.01746 -1.556599,1.35703 -0.456627,0.22831 -1.28738,1.24747 -1.596511,1.5566 -0.359323,0.35932 -1.278261,0.33978 -1.796076,0.59869 -0.546055,0.27303 -1.190139,0.67127 -1.596511,1.07765 -0.288761,0.28876 -0.688446,0.76827 -0.99782,1.07764 -0.137086,0.13709 -0.123532,0.52266 -0.279389,0.67852 -0.20266,0.20266 1.073091,2.15074 1.237296,2.31494 0.178654,0.17865 0.634443,0.1954 0.838169,0.39913 0.403482,0.40348 -0.382419,1.19089 -0.119739,1.71625 0.15648,0.31296 0.492363,0.49907 0.71843,0.83817 0.343121,0.51468 0.440956,1.1993 0.838169,1.59651 1.387136,1.38713 1.475392,1.35289 2.075465,3.15311 0.175208,1.04197 -0.379784,2.47337 0.07982,3.39259 0.361418,0.72283 1.175444,1.1535 1.516686,1.83598 0.21013,0.42026 0.781391,2.46841 0.518866,2.99346 -0.166346,0.33269 -0.157306,0.75366 -0.319302,1.07765 -0.479812,0.95962 -1.167806,1.61718 -1.676337,2.63424 -0.19982,0.39964 -0.845342,0.57313 -1.037732,0.95791 -0.332669,0.66534 -0.956863,1.63538 -1.476773,2.15529 -0.623514,0.62351 0.789954,1.48507 0.319302,1.95572 -0.657072,0.65708 -1.429958,1.66254 -1.915814,2.63425 -0.286053,0.57211 0.162529,1.51093 -0.119738,2.07546 -0.138923,0.27785 -0.133204,0.99758 0,1.19739 -0.03467,0.33537 0.511883,1.36402 0.239481,1.63642 -0.386952,0.38695 -0.781345,2.89672 -0.878081,2.99346 -0.410646,0.41065 -0.289613,1.29766 -0.558779,1.83599 -0.239796,0.47959 -0.488683,0.89754 -0.71843,1.35703 -0.194896,0.3898 -0.121432,0.92138 -0.319302,1.31712 -0.224131,0.44827 -0.545848,0.85222 -0.758343,1.27721 -0.61446,1.22892 -0.701386,2.37773 -1.596511,3.27285 -0.166622,0.16662 0.833516,0.39448 0.878081,0.43904 0.203685,0.20369 -0.480126,0.75952 -0.598692,0.87808 -0.300398,0.3004 -0.409393,0.81879 -0.598692,1.19739 -0.23974,0.47948 -1.890331,1.12861 -1.556598,1.79607 0.07303,0.14607 0.07694,0.59581 0.199564,0.71843 0.274487,0.27449 0.628799,0.50906 0.917994,0.79826 0.32881,0.32881 0.449126,0.92808 0.758343,1.2373 0.621998,0.62199 1.584846,1.2023 1.835988,1.95572 0.483977,1.72667 0.708888,3.2234 1.835988,4.3505 0.409947,0.40994 1.325996,-0.031 1.756162,0.39912 0.65139,0.65139 0.712978,1.7108 1.317122,2.31494 0.290368,0.29037 -0.256421,0.94097 -0.03991,1.15748 0.561924,0.56192 1.177393,1.17739 1.796076,1.79607 0.01412,0.0141 1.561891,2.60492 1.636424,2.75398 0.109873,0.21975 0.176387,0.69526 0.319302,0.83817 0.46969,0.46969 1.167718,1.30795 1.357035,1.8759"
     id="path11024"
     inkscape:connector-curvature="0" />
</svg>
