<?xml version="1.0" encoding="UTF-8" standalone="no"?>
<!-- Created with Inkscape (http://www.inkscape.org/) -->

<svg
   xmlns:dc="http://purl.org/dc/elements/1.1/"
   xmlns:cc="http://creativecommons.org/ns#"
   xmlns:rdf="http://www.w3.org/1999/02/22-rdf-syntax-ns#"
   xmlns:svg="http://www.w3.org/2000/svg"
   xmlns="http://www.w3.org/2000/svg"
   xmlns:sodipodi="http://sodipodi.sourceforge.net/DTD/sodipodi-0.dtd"
   xmlns:inkscape="http://www.inkscape.org/namespaces/inkscape"
   version="1.1"
   id="svg18004"
   width="218.24001"
   height="176"
   viewBox="0 0 218.24001 176"
   sodipodi:docname="ec01jn91.076.svg"
   inkscape:version="0.92.2 5c3e80d, 2017-08-06">
  <metadata
     id="metadata18010">
    <rdf:RDF>
      <cc:Work
         rdf:about="">
        <dc:format>image/svg+xml</dc:format>
        <dc:type
           rdf:resource="http://purl.org/dc/dcmitype/StillImage" />
        <dc:title></dc:title>
      </cc:Work>
    </rdf:RDF>
  </metadata>
  <defs
     id="defs18008" />
  <sodipodi:namedview
     pagecolor="#ffffff"
     bordercolor="#666666"
     borderopacity="1"
     objecttolerance="10"
     gridtolerance="10"
     guidetolerance="10"
     inkscape:pageopacity="0"
     inkscape:pageshadow="2"
     inkscape:window-width="1280"
     inkscape:window-height="756"
     id="namedview18006"
     showgrid="false"
     inkscape:zoom="3.0908471"
     inkscape:cx="101.29605"
     inkscape:cy="86.478479"
     inkscape:window-x="0"
     inkscape:window-y="0"
     inkscape:window-maximized="0"
     inkscape:current-layer="svg18004" />
  <path
     style="fill:#c4c4c4;stroke:none;stroke-width:1;stroke-linecap:round;stroke-linejoin:round;stroke-miterlimit:4;stroke-dasharray:none;stroke-opacity:1;fill-opacity:1"
     d="m 40.765613,53.412885 -2.25847,1.329965 c 0.517779,1.426203 1.290928,2.924002 -0.185763,4.1022 -0.739687,1.550169 -2.071599,2.8003 -2.535804,4.766101 -0.768105,3.252739 -0.716107,7.931082 -1.531414,10.97504 -0.891503,3.328439 -2.94324,6.27207 -3.93312,9.217176 -3.276789,2.681008 -5.74485,7.139353 -6.939733,8.546584 -0.736101,0.866917 -2.007265,1.065768 -2.315714,1.965281 -0.360671,1.051808 -0.78689,1.438945 -0.666911,2.375174 v -2e-5 c 0.134089,1.04632 0.950412,1.33024 2.020564,1.65795 0.59229,1.986444 1.616186,3.124514 2.909253,3.393174 1.269833,0.26384 0.600837,-1.0596 3.69027,-1.10172 3.027257,-0.0413 6.28364,1.71941 8.715582,3.21577 1.096665,0.67478 1.331906,2.51261 5.912404,6.52825 0.374341,1.134 1.108578,4.02846 1.846944,5.04688 0.534591,0.73736 1.338721,1.33503 2.102168,1.98617 0.552937,0.47159 1.126828,0.70904 1.695713,1.16606 0.75372,0.60551 1.498653,1.42448 2.174422,1.99779 1.779331,1.50957 2.571431,0.95083 3.359465,1.5429 0.696818,0.52354 1.128879,1.37681 1.850162,2.15162 1.062946,1.14183 2.420545,2.24668 3.454989,2.96441 2.236427,1.55174 4.376907,2.44835 6.85267,3.34291 3.003327,1.08519 5.484984,1.53873 7.995733,2.2408 1.614201,0.45138 3.5094,0.57398 5.07477,1.08626 3.079289,1.00772 4.970184,2.94087 6.731135,3.19068 1.838075,0.26075 3.546203,-0.14631 5.235553,0.53643 1.02302,0.41345 1.11463,1.6834 2.4929,2.5579 1.24903,0.7925 2.14516,1.11725 3.47224,2.25529 1.14193,0.97926 2.474879,5.55682 5.653939,6.06861 0.72889,0.11734 1.40977,0.99141 2.1413,1.02608 0.74496,0.0353 1.03802,-0.30929 1.93355,-0.77026 0.88855,-0.45738 3.25399,-0.45082 4.52873,-0.40783 0.99463,0.0335 1.88444,-0.4038 3.87098,-0.50827 0.65532,-0.0345 1.2068,-0.4824 1.87692,-0.4885 1.74573,-0.0159 3.5286,-0.008 5.29234,-0.0549 0.74875,-0.0198 1.1708,-0.67001 1.91543,-0.8604 1.5719,-0.4019 1.88259,0.15437 2.61971,0.10606 1.6539,-0.10838 2.61612,-0.002 3.87298,-0.0996 1.58803,-1.03268 3.66544,-2.68123 5.37281,-3.55162 1.05986,-0.5403 2.64536,-0.33584 3.82955,-0.76927 1.52672,-0.5588 2.95403,-1.45498 4.24703,-2.26754 0.51197,-0.32174 1.20436,-0.37722 1.49829,-0.0575 0.39985,0.4349 0.97545,0.67691 2.20703,-0.14034 2.03564,-1.35083 3.48928,-3.13512 4.68647,-5.30906 0.53828,-0.97745 0.18591,-1.97925 1.09966,-3.08054 2.42225,-2.91937 5.5612,-7.15322 9.03032,-10.76481 0.57625,-0.59991 0.44937,-1.19664 1.29819,-1.99414 1.67196,-1.57086 3.17971,-2.86045 4.38833,-4.23867 0.79532,-0.90695 1.30471,-0.42452 2.154,-0.54348 3.37148,-0.47224 6.3114,-5.73457 8.19373,-11.00797 0.67499,-1.89102 7.57308,-4.979376 8.98799,-5.162544 l -0.49231,-1.560686 c -0.84825,-0.139183 -2.04026,0.01587 -3.48391,0.456288 -0.54482,0.16621 -1.27513,0.409838 -1.61811,0.888142 -0.70118,-0.169349 -2.02963,0.610312 -2.99814,1.277421 -1.38066,0.950996 -2.26625,2.565469 -3.13099,4.038589 -1.35932,2.31563 -2.17588,5.47491 -4.43515,7.55172 -0.72985,0.67091 -1.71047,0.95694 -2.58028,1.04538 -0.65972,0.0671 -1.27152,-0.0587 -1.57056,0.2399 -1.94663,1.94378 -2.68663,1.73007 -3.84818,2.9853 -1.39091,1.50309 -1.66053,2.74235 -2.62229,3.99964 -1.13933,1.48944 -2.86132,2.41488 -3.74265,3.45902 -1.91535,2.26918 -3.59384,4.42869 -5.06491,7.10523 -0.29861,0.54332 -0.2208,1.30882 -0.8063,2.04569 -0.68189,0.85818 -0.8058,2.26326 -1.83242,3.2376 -0.81407,0.77261 -1.53226,1.22295 -2.39908,2.13019 -0.34114,0.35705 -0.79964,0.79001 -1.35813,0.46805 -0.47323,-0.27281 -1.69205,0.0998 -2.33654,0.25869 -0.69784,0.17201 -1.17572,0.68281 -1.82396,1.19367 -0.52696,0.41528 -1.30546,0.56288 -1.91565,0.78788 -1.1032,0.40679 -2.61899,0.30163 -3.99227,0.90296 -0.66897,0.29294 -2.76351,1.44065 -4.61919,3.01623 -0.62981,0.53474 -1.03916,0.83863 -1.81188,0.81328 -1.26841,-0.0416 -1.95914,0.0121 -3.31752,-0.0165 -0.44149,-0.009 -0.90793,-0.26965 -1.34843,-0.25817 -1.87183,0.0488 -2.21849,0.96502 -3.63177,1.04405 -1.24606,0.0697 -0.87505,0.46408 -1.92455,0.45613 -0.92544,-0.007 -0.6174,-0.5003 -2.81791,-0.40907 -0.89359,0.037 -2.84333,0.50607 -4.53879,0.73322 -1.08832,0.14581 -2.15155,0.15509 -3.19797,0.16911 -1.10631,0.0148 -0.80228,0.9483 -3.01955,0.90886 -1.0429,-0.0185 -1.43505,-1.02537 -2.93458,-1.30156 -0.89663,-0.16514 -2.85951,-3.98053 -3.850669,-4.56095 -1.217641,-0.71305 -2.481204,-1.49823 -3.544667,-2.53607 -0.799592,-0.78033 -1.456873,-1.71735 -2.226008,-2.49442 -0.959708,-0.96961 -2.16992,-1.10252 -4.014314,-1.04413 -0.758685,0.024 -1.648534,-0.18557 -2.390739,-0.22984 -1.317783,-0.0786 -3.675994,-1.77935 -6.804403,-3.00832 -0.774834,-0.30438 -3.064333,-0.34518 -5.463706,-1.11326 -2.533142,-0.8109 -5.497897,-1.5717 -7.526901,-2.19684 -1.974974,-0.60849 -3.884933,-1.69837 -5.658196,-2.79863 -1.980706,-1.22897 -3.287439,-3.05058 -5.345918,-4.84325 -0.441817,-0.38477 -1.7291,-0.8514 -3.600704,-1.86821 -0.897751,-0.48774 -1.480961,-0.9779 -1.924614,-1.8689 -0.220737,-0.44331 -0.548798,-0.57641 -0.780852,-0.73524 -2.417277,-1.65453 -4.3155,-5.35828 -5.592289,-7.9365 -0.264397,-0.5339 -0.805266,-0.99108 -1.541617,-1.55816 -1.007911,-0.77621 -1.807195,-1.73192 -2.759618,-2.58843 -0.415814,-0.37394 -0.102186,-0.82292 -0.826803,-1.36481 -1.110726,-0.83063 -2.613452,-1.76813 -3.493017,-2.11731 -1.120982,-0.445024 -3.733279,-1.769614 -6.867812,-1.916893 -0.581635,-0.02733 -1.3542,-0.220912 -1.93319,-0.0495 -0.76002,0.22501 -1.319295,0.362695 -2.11176,0.621102 -0.425469,-1.006011 -1.074421,-2.090378 -1.58024,-2.826694 0.324726,-0.499142 0.617013,-0.7982 1.117652,-1.352732 0.266479,-0.295166 0.456237,-0.847761 0.742261,-1.244089 0.784548,-1.087102 1.66793,-2.457858 2.788987,-3.580663 0.993023,-0.99457 1.407154,-2.038561 2.212451,-2.975709 1.126688,-1.311163 2.288582,-2.385475 2.48522,-2.8504 0.148109,-0.350182 0.109698,-0.871225 0.33136,-1.343545 0.593361,-1.264344 1.429156,-2.912425 2.093953,-4.571063 0.404926,-1.010275 0.694124,-2.059326 0.977995,-2.926936 0.531894,-1.625654 0.990425,-3.595162 1.361709,-6.097203 0.07109,-0.479053 -0.225447,-1.053047 -0.167751,-1.545406 0.146711,-1.251979 0.317158,-2.528693 0.555606,-3.775516 0.346174,-1.810114 2.77233,-3.184265 2.930167,-3.84115 0.329162,-1.369896 0.913376,-4.911327 -0.29689,-6.68712 z"
     id="path14359-1-7-5-3-0-73-1-9-8-5-5-8"
     inkscape:connector-curvature="0"
     sodipodi:nodetypes="cccsscsssccssscssssssssssssssssssssssscssssssssssssccscssssssssssssssssssssssssssssssssssssssssssssssssccsssssssssssscc" />
  <path
     style="fill:none;stroke:#000000;stroke-width:1;stroke-linecap:butt;stroke-linejoin:miter;stroke-miterlimit:4;stroke-dasharray:none;stroke-opacity:1"
     d="m 215.5397,1.8593482 -0.002,172.2245718 -213.1877858,0 0.002,-172.2245718 z"
     id="path14359-1-7-5-3-0-73-1-9"
     inkscape:connector-curvature="0"
     sodipodi:nodetypes="ccccc"
     inkscape:transform-center-x="0.03366111"
     inkscape:transform-center-y="-0.1641457" />
  <path
     style="fill:none;stroke:#000000;stroke-width:0.5;stroke-linecap:round;stroke-linejoin:round;stroke-miterlimit:4;stroke-dasharray:none;stroke-opacity:1"
     d="m 20.398685,96.690355 c 0.134089,1.046322 0.950412,1.330239 2.020564,1.657947 0.59229,1.986458 1.616186,3.124528 2.909253,3.393188 1.269833,0.26384 0.600837,-1.0596 3.69027,-1.10172 3.027256,-0.0413 6.283639,1.71941 8.715581,3.21577 1.096665,0.67478 1.331906,2.51261 5.912404,6.52825 0.374341,1.134 1.108578,4.02846 1.846944,5.04688 0.534591,0.73736 1.338721,1.33503 2.102168,1.98617 0.552937,0.47159 1.126828,0.70904 1.695713,1.16606 0.75372,0.60551 1.498653,1.42448 2.174422,1.99779 1.779331,1.50957 2.571431,0.95083 3.359465,1.5429 0.696818,0.52354 1.128879,1.37681 1.850162,2.15162 1.062946,1.14183 2.420545,2.24667 3.454989,2.96441 2.236427,1.55174 4.376907,2.44835 6.85267,3.34291 3.003327,1.08519 5.484984,1.53873 7.995733,2.2408 1.614201,0.45138 3.5094,0.57398 5.07477,1.08626 3.079289,1.00772 4.970184,2.94087 6.731135,3.19068 1.838075,0.26075 3.546205,-0.14631 5.235555,0.53643 1.023016,0.41345 1.114626,1.6834 2.4929,2.5579 1.249024,0.7925 2.145157,1.11725 3.472242,2.25529 1.141923,0.97926 2.474875,5.55682 5.653935,6.06861 0.72889,0.11734 1.40977,0.99141 2.1413,1.02608 0.74496,0.0353 1.03802,-0.30929 1.93355,-0.77026 0.88856,-0.45738 3.254,-0.45082 4.52874,-0.40783 0.99463,0.0335 1.88444,-0.4038 3.87098,-0.50827 0.65532,-0.0345 1.2068,-0.4824 1.87692,-0.4885 1.74573,-0.0159 3.5286,-0.008 5.29234,-0.0549 0.74875,-0.0198 1.1708,-0.67001 1.91543,-0.8604 1.5719,-0.4019 1.88259,0.15437 2.61971,0.10606 1.6539,-0.10838 2.61612,-0.002 3.87298,-0.0996 1.58803,-1.03268 3.66544,-2.68123 5.37281,-3.55162 1.05986,-0.5403 2.64536,-0.33584 3.82955,-0.76927 1.52672,-0.5588 2.95403,-1.45498 4.24703,-2.26754 0.51197,-0.32174 1.20436,-0.37722 1.49829,-0.0575 0.39985,0.4349 0.97545,0.67691 2.20703,-0.14034 2.03564,-1.35083 3.48928,-3.13512 4.68647,-5.30906 0.53828,-0.97745 0.18591,-1.97925 1.09966,-3.08054 2.42225,-2.91937 5.5612,-7.15322 9.03032,-10.76481 0.57625,-0.59991 0.44937,-1.19664 1.29819,-1.99414 1.67196,-1.57086 3.17971,-2.86045 4.38833,-4.23867 0.79532,-0.90695 1.30471,-0.42452 2.154,-0.54348 3.37148,-0.47224 6.3114,-5.73457 8.19373,-11.00797 0.67499,-1.89102 7.88956,-5.216741 9.34403,-5.20211 l 2.15818,0.02171 c 0.79663,0.008 1.7164,-0.614636 2.15338,-1.42139 0.60725,-1.12109 1.44427,-2.111688 1.97766,-3.863084 0.36706,-1.205266 0.21391,-2.414402 0.45063,-3.756009 0.17098,-0.969066 0.60654,-1.567199 0.79495,-2.539871 0.28851,-1.489385 0.30368,-3.321193 0.29845,-4.514138 -0.007,-1.636849 -0.13776,-3.202119 -0.31654,-4.714265 -0.14307,-1.210179 -0.362,-2.258904 -0.49012,-3.423447 -0.29642,-2.694243 -1.45912,-3.262773 -1.9348,-5.633381 -0.41326,-2.059558 -0.61663,-4.164887 -1.1946,-6.130732 -0.3599,-1.224129 -0.88676,-2.281243 -1.75198,-3.207837 -1.1238,-1.203508 -1.5742,-3.047103 -2.21101,-4.618706 -0.64301,-1.586894 -1.13891,-3.000587 -1.19515,-4.386744 -0.0673,-1.659868 -0.56505,-2.97992 -1.55579,-4.131586 -0.87775,-1.020328 -2.477,-1.741389 -3.70393,-1.967224 -1.03994,-0.191416 -4.15711,-1.733639 -5.0223,-2.835098 -0.55865,-0.711209 -1.50006,-0.999549 -2.16694,-1.6064 -1.02526,-0.932966 -0.69118,-1.449775 -1.15867,-2.197246 -0.41324,-0.660727 -0.98155,-0.564142 -1.68676,-1.738471 -0.52025,-0.866343 -1.07438,-1.826733 -1.64843,-2.726396 -0.53289,-0.835136 -1.28067,-1.502143 -1.91168,-3.213928 -0.15176,-0.411707 -0.86773,-0.403459 -1.09189,-0.731095 -1.64273,-2.401039 -1.96983,-2.300626 -2.65652,-2.329667 -0.80321,-0.03397 -1.47166,0.458435 -2.445,0.904126 -0.44902,0.205606 -1.19199,0.26164 -1.72112,0.496417 -0.58483,0.259493 -0.95888,0.699499 -1.50668,0.960702 -0.57686,0.27506 -1.27735,0.118788 -1.86804,0.351071 -0.80338,0.315922 -1.51077,0.988261 -2.30422,1.349401 -1.44809,0.659099 -1.85997,-0.147978 -3.73091,1.024733 -1.01456,0.635929 -1.32193,2.144089 -2.1963,2.826846 -2.51286,1.962185 -4.30708,3.727631 -4.89562,3.723217 -1.62895,-0.01222 -3.84463,2.375377 -5.10369,2.332753 -1.21896,-0.04127 -2.81944,0.140328 -3.84889,0.137631 -1.93539,-0.0051 -4.4037,0.596454 -6.9335,0.617491 -2.36936,0.0197 -5.61633,1.966401 -8.07117,1.938587 -3.72147,-0.04216 -6.48694,-3.250541 -9.12028,-3.208315 -1.11195,0.01783 -2.35673,-1.340716 -3.69878,-1.28977 -3.56228,0.13523 -3.05692,-0.450215 -4.99801,-0.475542 -0.6855,-0.0089 -1.34945,0.443421 -2.1043,0.455197 -0.54495,0.0085 -1.134254,-0.486964 -1.683852,-0.493909 -1.198824,-0.01515 -2.614973,-0.872993 -4.248633,-1.945462 -1.707188,-1.120739 -3.63619,-2.481095 -5.055995,-3.608065 -1.218482,-0.967169 -2.324425,-1.622419 -3.515632,-1.640049 -1.946009,-0.0288 -3.093298,-0.741009 -4.388016,-0.726107 -1.913456,0.02202 -4.090846,0.786219 -5.896236,1.243131 -2.795659,0.707531 -4.767751,1.536201 -7.09569,2.444571 -1.482334,0.578413 -2.407359,1.374426 -3.840029,1.879725 -1.243289,0.438505 -2.991048,2.015841 -5.304547,2.266535 -1.407485,0.152517 -2.65823,1.193178 -4.136843,1.157635 -0.940609,-0.02261 -1.573415,0.539484 -2.411769,0.633987 -0.530314,0.05978 -1.039447,0.08302 -1.518689,0.0603 -0.917977,-0.04353 -2.050366,1.209301 -4.179906,1.242009 -0.779751,0.01198 -1.534368,0.07052 -2.261902,0.0314 -0.566542,-0.03046 -1.344615,0.700897 -1.788904,1.097161 -0.597548,0.532959 -1.190906,1.079093 -1.768366,1.650581 -0.86286,0.853937 -0.984502,1.518636 -1.260796,2.217324 -0.196956,0.498057 -0.528488,1.041379 -1.00897,1.555758 -1.719209,1.840495 -1.477646,5.796387 -0.829761,7.571967 0.490069,1.343073 1.445157,2.904132 -0.114664,4.193169 -0.739687,1.550169 -2.071599,2.8003 -2.535804,4.766101 -0.768105,3.252739 -0.716107,7.931082 -1.531414,10.97504 -0.891503,3.328439 -2.94324,6.27207 -3.93312,9.217176 -3.276788,2.681008 -5.744849,7.139353 -6.939732,8.546584 -0.736101,0.866917 -2.007265,1.065768 -2.315714,1.965281 -0.360671,1.051808 -0.78689,1.438945 -0.666911,2.375171 z"
     id="path14359-1-7-5-3-0-73-1-9-8-5"
     inkscape:connector-curvature="0"
     sodipodi:nodetypes="scssscssssssssssssssssssssssscssssssssssssssssssssssssssssssssssssssssssssssssssssssssssssssssssssssscsscsss" />
  <path
     style="fill:none;stroke:#000000;stroke-width:0.5;stroke-linecap:butt;stroke-linejoin:round;stroke-miterlimit:4;stroke-dasharray:1, 1;stroke-dashoffset:0;stroke-opacity:1"
     d="m 47.549286,40.586818 c 0.401922,1.667207 0.183486,2.714249 -1.304624,3.963613 -1.309391,1.099319 -3.763416,2.855474 -5.121892,4.777759 -0.652153,0.922817 -0.532284,3.071148 -0.357157,4.084691 m 0.29689,6.68712 c 0.01911,0.675542 0.358845,1.16582 0.842083,1.701747"
     id="path14359-1-7-5-3-0-73-1-9-8-5-6"
     inkscape:connector-curvature="0"
     sodipodi:nodetypes="cssccc" />
  <path
     style="fill:none;stroke:#000000;stroke-width:0.5;stroke-linecap:butt;stroke-linejoin:round;stroke-miterlimit:4;stroke-dasharray:1, 1;stroke-dashoffset:0;stroke-opacity:1"
     d="m 111.75797,39.353157 c -0.67686,1.356322 -1.67562,1.718417 -2.90601,1.753434 -1.50134,0.04273 -2.34337,-0.951991 -4.82297,-1.091491 -4.057332,-0.228262 -7.939681,0.344944 -10.497427,-0.483839 -0.707505,-0.06232 -1.39819,-0.114224 -2.073712,-0.155585 -1.918197,-0.117445 -3.666451,-0.531356 -5.378118,-0.475586 -3.282024,0.106934 -6.301894,0.919546 -9.23198,1.696867 -3.152651,0.836366 -6.285961,1.752732 -9.323813,2.850232 -3.430822,1.239469 -4.993715,2.083989 -7.096367,2.927085 -4.005241,1.605973 -7.375183,1.477236 -11.384876,4.926424 l -0.88679,0.163005 c -0.3058,2.569732 -1.581078,4.323196 -2.286171,7.534036 -1.224109,1.101945 -2.514581,2.09016 -3.96515,2.804009 -1.898951,2.678596 -3.049501,5.515074 -3.846447,9.062267 -0.767213,3.414847 -1.716631,6.656369 -3.324315,9.419964 l -0.128394,6.719949 -4.374034,4.33372 m -0.567599,4.963643 0.749642,1.618361 c 3.703971,0.730251 7.542455,2.792128 9.600849,4.879228 2.42274,-0.28417 4.362719,0.31543 5.842996,2.0636 m -0.344501,4.07659 c 0.06752,-1.43802 -0.0045,-3.31275 0.65469,-4.7305 1.283442,0.003 4.242394,0.77641 5.973941,1.84606 2.014416,1.24439 3.301237,2.94555 6.325492,5.26779 0.982039,0.75407 1.254405,1.78956 1.97574,2.28222 1.313446,0.89706 2.456563,1.75147 4.713441,3.38848 1.443059,1.04671 2.727031,2.39854 4.087805,3.51189 2.290762,1.87425 3.556955,3.84446 6.047547,5.35848 1.743088,1.05961 2.862382,0.8261 3.832722,1.41984 0.88277,0.54015 0.910468,1.47528 1.867983,2.01314 1.219017,0.68476 2.203277,0.87399 3.307637,1.48404 1.663477,0.9189 3.109236,2.18318 4.047103,3.63654 1.929992,-0.23748 3.76981,0.31996 5.760358,0.35993 1.138211,0.0228 2.287062,-0.23942 3.627895,-0.62328 2.872673,-0.82239 5.544763,-2.14282 8.184813,-2.98553 1.80213,-0.57524 2.30426,-2.09661 3.64504,-2.15399 2.57899,-0.11039 3.97234,1.77928 10.31965,1.5773 5.1636,-0.16431 10.12486,-1.56819 15.96327,-2.09039 4.98583,-0.44593 10.03941,0.73469 17.48604,-0.0604"
     id="path14359-1-7-5-3-0-73-1-9-8-5-6-7"
     inkscape:connector-curvature="0"
     sodipodi:nodetypes="csscsssssccccscccccccccssssssssscssssssc" />
  <path
     style="fill:none;stroke:#000000;stroke-width:0.5;stroke-linecap:butt;stroke-linejoin:round;stroke-miterlimit:4;stroke-dasharray:1, 1;stroke-dashoffset:0;stroke-opacity:1"
     d="m 47.117388,43.596631 c 1.508278,0.859074 1.855553,4.988803 1.925309,7.704067"
     id="path14359-1-7-5-3-0-73-1-9-8-5-6-7-9"
     inkscape:connector-curvature="0"
     sodipodi:nodetypes="cc" />
  <path
     style="fill:none;stroke:#000000;stroke-width:0.5;stroke-linecap:butt;stroke-linejoin:round;stroke-miterlimit:4;stroke-dasharray:1, 1;stroke-dashoffset:0;stroke-opacity:1"
     d="m 93.531563,39.531261 c -0.03638,-1.15436 0.0694,-2.07589 0.549691,-2.65749 0.401542,-0.48624 0.304802,-0.934701 0.253547,-1.435386"
     id="path14359-1-7-5-3-0-73-1-9-8-5-6-7-4"
     inkscape:connector-curvature="0"
     sodipodi:nodetypes="csc" />
  <path
     style="fill:none;stroke:#000000;stroke-width:0.5;stroke-linecap:butt;stroke-linejoin:round;stroke-miterlimit:4;stroke-dasharray:1, 1;stroke-dashoffset:0;stroke-opacity:1"
     d="m 45.869736,58.997739 c 1.265748,0.886195 2.291059,3.147138 3.790911,5.323563 1.868826,2.71184 3.40679,4.248917 4.581732,5.809065 0.737757,0.979633 0.501257,2.138032 1.132753,3.14472 0.530501,0.845688 1.510102,1.46722 2.058612,2.218628 0.714522,0.978828 1.019066,2.040236 1.807988,2.749654 0.592848,0.533103 1.390022,0.589741 2.152447,0.821854 0.808421,0.246117 1.585613,0.658157 2.323113,0.907132 1.145432,-0.348939 2.883157,-0.993977 3.77429,-0.916971 2.234698,0.193107 3.673416,1.171638 5.429513,1.25223 1.107832,0.05084 2.347526,-0.113557 3.381637,0.02803 0.745606,0.102088 1.293481,0.514676 2.03746,0.565937 1.695175,0.116798 3.431634,-0.03292 5.15536,0.244578 2.288075,0.368356 3.943396,0.933002 5.93663,1.683866 1.699969,0.640388 3.506631,0.969622 5.315102,1.616697 0.932365,0.333603 1.296255,1.331063 2.425127,1.63727 1.897949,0.51482 2.944209,1.313237 4.154759,1.995609"
     id="path14359-1-7-5-3-0-73-1-9-8-5-6-7-1"
     inkscape:connector-curvature="0"
     sodipodi:nodetypes="csssssscssssssssc" />
  <path
     style="fill:none;stroke:#000000;stroke-width:0.5;stroke-linecap:butt;stroke-linejoin:round;stroke-miterlimit:4;stroke-dasharray:1, 1;stroke-dashoffset:0;stroke-opacity:1"
     d="m 69.385751,79.45127 c 0.06254,1.295982 0.10253,2.569407 -9.98e-4,3.699317 -0.108816,1.187612 1.4961,1.39449 2.02461,2.044657 1.307591,1.608587 1.118787,3.025704 2.062077,4.207494 1.242521,1.556676 2.372913,2.986902 3.481611,4.534702 1.363479,1.903487 2.661825,3.920152 3.702444,5.782281 0.804116,1.438919 0.964571,3.296369 1.132821,4.890159 0.869707,0.0591 2.170998,-0.14524 3.26599,0.14526 1.935852,3.00972 2.521476,4.83844 2.073295,7.92866 0.240879,0.82178 1.343181,1.81683 1.626291,2.69563 0.641069,1.98993 1.762937,1.50546 2.364971,3.13369 0.441813,1.1949 -0.263108,3.04868 -0.323552,4.38594 -0.115847,2.563 0.718733,2.2639 1.033499,3.43598 0.79523,2.96116 0.154529,4.04035 0.671935,4.87298 0.664704,1.06966 1.076241,2.10078 1.483054,3.51736"
     id="path14359-1-7-5-3-0-73-1-9-8-5-6-7-6"
     inkscape:connector-curvature="0"
     sodipodi:nodetypes="cssssccccsssssc" />
  <path
     style="fill:none;stroke:#000000;stroke-width:0.5;stroke-linecap:butt;stroke-linejoin:round;stroke-miterlimit:4;stroke-dasharray:1, 1;stroke-dashoffset:0;stroke-opacity:1"
     d="m 39.793588,65.521389 c 5.997911,-0.283298 15.668024,-0.813754 24.83087,-0.603612 3.335913,0.07651 4.203764,-1.542988 7.387898,-1.494098 7.020488,0.107796 14.039037,-0.04868 21.123191,-0.302612 4.57864,-0.164119 9.245043,0.14762 13.456483,0.542766 3.77884,0.354557 9.48223,0.64685 14.89042,1.024314 4.55007,0.317571 8.49149,0.893755 12.44782,0.947045 2.27284,0.03061 1.82839,0.665751 3.542,0.730181 2.658,0.09994 3.54942,-0.912008 5.81002,-0.989284 2.90367,-0.09926 6.433,-0.237198 9.06277,-0.143149 2.21049,0.07905 3.17558,0.358235 5.07358,0.506111 1.94571,0.151593 4.20731,-0.515164 6.01434,0.284469 1.2643,0.559473 1.04237,1.597389 2.69492,2.445176 2.85379,1.464046 5.75331,2.711858 7.73961,5.148092 0.92594,1.135685 1.99096,2.50847 3.25019,3.414086 1.18467,0.85199 1.1007,1.602363 1.72868,2.304724 2.03267,2.273423 0.66222,2.955477 0.99137,5.605573 0.23091,1.859197 2.66347,3.8108 3.85168,4.20911 2.77744,0.931052 4.53358,-1.763435 6.19131,-1.079655 1.43081,1.47845 3.44542,3.165636 5.21131,4.408603"
     id="path14359-1-7-5-3-0-73-1-9-8-5-6-7-12"
     inkscape:connector-curvature="0"
     sodipodi:nodetypes="cssssssssssssssssscc" />
  <path
     style="fill:none;stroke:#000000;stroke-width:0.5;stroke-linecap:butt;stroke-linejoin:round;stroke-miterlimit:4;stroke-dasharray:1, 1;stroke-dashoffset:0;stroke-opacity:1"
     d="m 196.81654,82.496097 c -1.29716,3.145144 -5.00915,5.996321 -8.69756,8.915055 -3.94792,3.124088 -10.81576,6.603292 -16.33252,12.047198 -3.01132,2.97155 -5.2049,6.99493 -7.52648,11.14788"
     id="path14359-1-7-5-3-0-73-1-9-8-5-6-7-0"
     inkscape:connector-curvature="0"
     sodipodi:nodetypes="cssc" />
  <path
     style="fill:none;stroke:#000000;stroke-width:0.5;stroke-linecap:butt;stroke-linejoin:round;stroke-miterlimit:4;stroke-dasharray:1, 1;stroke-dashoffset:0;stroke-opacity:1"
     d="m 44.148119,107.18493 c 3.831643,0.87672 6.426374,2.61009 7.310033,2.48986 1.464122,-0.1992 3.177925,1.30808 4.457276,2.11289"
     id="path14359-1-7-5-3-0-73-1-9-8-5-6-7-44"
     inkscape:connector-curvature="0"
     sodipodi:nodetypes="csc" />
  <path
     style="fill:none;stroke:#000000;stroke-width:0.5;stroke-linecap:butt;stroke-linejoin:round;stroke-miterlimit:4;stroke-dasharray:1, 1;stroke-dashoffset:0;stroke-opacity:1"
     d="m 55.966263,109.33369 0.04684,8.70491"
     id="path14359-1-7-5-3-0-73-1-9-8-5-6-7-5"
     inkscape:connector-curvature="0"
     sodipodi:nodetypes="cc" />
  <path
     style="fill:none;stroke:#000000;stroke-width:0.5;stroke-linecap:butt;stroke-linejoin:round;stroke-miterlimit:4;stroke-dasharray:1, 1;stroke-dashoffset:0;stroke-opacity:1"
     d="m 64.635876,116.66591 c -0.640129,0.73628 -1.326937,1.33252 -2.126386,1.59084 -0.05816,0.64666 -0.27063,1.21616 -0.485113,1.78466 -0.29984,0.79474 -1.387519,0.74829 -2.225579,0.22886 l -3.872523,-2.40017 c -0.879091,-0.54486 -1.817003,-0.78401 -2.843295,0.11967"
     id="path14359-1-7-5-3-0-73-1-9-8-5-6-7-97"
     inkscape:connector-curvature="0"
     sodipodi:nodetypes="ccsssc" />
  <path
     style="fill:none;stroke:#000000;stroke-width:0.5;stroke-linecap:butt;stroke-linejoin:round;stroke-miterlimit:4;stroke-dasharray:1, 1;stroke-dashoffset:0;stroke-opacity:1"
     d="m 59.807718,112.86751 c 0.316636,1.25657 0.118031,2.44154 -0.251893,3.33095 -0.465262,1.11863 -0.875669,2.10279 -1.339754,3.08063"
     id="path14359-1-7-5-3-0-73-1-9-8-5-6-7-53"
     inkscape:connector-curvature="0"
     sodipodi:nodetypes="csc" />
  <path
     style="fill:none;stroke:#000000;stroke-width:0.5;stroke-linecap:butt;stroke-linejoin:round;stroke-miterlimit:4;stroke-dasharray:1, 1;stroke-dashoffset:0;stroke-opacity:1"
     d="m 55.966263,109.33369 c -1.698077,2.66587 -4.289078,3.5277 -5.338507,6.49617"
     id="path14359-1-7-5-3-0-73-1-9-8-5-6-7-90"
     inkscape:connector-curvature="0"
     sodipodi:nodetypes="cc" />
  <path
     style="fill:none;stroke:#000000;stroke-width:0.5;stroke-linecap:butt;stroke-linejoin:round;stroke-miterlimit:4;stroke-dasharray:1, 1;stroke-dashoffset:0;stroke-opacity:1"
     d="m 53.44913,112.26765 c -0.05314,0.93863 0.362194,2.02056 1.44771,2.27491 0.705908,0.1654 1.231844,0.0303 1.931383,-0.36969 1.879163,1.5878 4.492894,2.87938 5.681267,4.08388"
     id="path14359-1-7-5-3-0-73-1-9-8-5-6-7-55"
     inkscape:connector-curvature="0"
     sodipodi:nodetypes="cscc" />
  <text
     xml:space="preserve"
     style="font-style:normal;font-variant:normal;font-weight:normal;font-stretch:normal;font-size:5.33333349px;line-height:6.66666651px;font-family:Arial;-inkscape-font-specification:Arial;text-align:start;letter-spacing:0.2px;word-spacing:0px;text-anchor:start;fill:#000000;fill-opacity:1;stroke:none"
     x="152.28308"
     y="142.05295"
     id="text18780"><tspan
       sodipodi:role="line"
       id="tspan18778"
       x="152.28308"
       y="142.05295">Punta Los Ingleses</tspan></text>
  <text
     xml:space="preserve"
     style="font-style:normal;font-variant:normal;font-weight:normal;font-stretch:normal;font-size:5.33333349px;line-height:6.66666651px;font-family:Arial;-inkscape-font-specification:Arial;text-align:start;letter-spacing:0.2px;word-spacing:0px;text-anchor:start;fill:#000000;fill-opacity:1;stroke:none;"
     x="193.77942"
     y="99.501938"
     id="text18780-1"><tspan
       sodipodi:role="line"
       id="tspan18778-6"
       x="193.77942"
       y="99.501938">Punta</tspan><tspan
       sodipodi:role="line"
       x="193.77942"
       y="106.16861"
       id="tspan18800">Este</tspan></text>
  <text
     xml:space="preserve"
     style="font-style:normal;font-variant:normal;font-weight:normal;font-stretch:normal;font-size:5.33333349px;line-height:6.66666651px;font-family:Arial;-inkscape-font-specification:Arial;text-align:start;letter-spacing:0.2px;word-spacing:0px;text-anchor:start;fill:#000000;fill-opacity:1;stroke:none"
     x="84.105423"
     y="29.232264"
     id="text18780-1-5"><tspan
       sodipodi:role="line"
       x="84.105423"
       y="29.232264"
       id="tspan18800-5">Cabo Noroeste</tspan></text>
  <text
     xml:space="preserve"
     style="font-style:normal;font-variant:normal;font-weight:normal;font-stretch:normal;font-size:5.33333349px;line-height:6.66666651px;font-family:Arial;-inkscape-font-specification:Arial;text-align:start;letter-spacing:0.2px;word-spacing:0px;text-anchor:start;fill:#000000;fill-opacity:1;stroke:none"
     x="164.20117"
     y="25.158255"
     id="text18780-1-5-8"><tspan
       sodipodi:role="line"
       x="164.20117"
       y="25.158255"
       id="tspan18800-5-5">Cabo Norte</tspan></text>
  <text
     xml:space="preserve"
     style="font-style:normal;font-variant:normal;font-weight:normal;font-stretch:normal;font-size:5.33333349px;line-height:6.66666651px;font-family:Arial;-inkscape-font-specification:Arial;text-align:start;letter-spacing:0.2px;word-spacing:0px;text-anchor:start;fill:#000000;fill-opacity:1;stroke:none"
     x="8.5097275"
     y="34.672729"
     id="text18780-1-5-9"><tspan
       sodipodi:role="line"
       x="8.5097275"
       y="34.672729"
       id="tspan18800-5-1">Cabo</tspan><tspan
       sodipodi:role="line"
       x="8.5097275"
       y="41.339397"
       id="tspan18861">Barrio Nueve</tspan></text>
  <text
     xml:space="preserve"
     style="font-style:normal;font-variant:normal;font-weight:normal;font-stretch:normal;font-size:5.33333349px;line-height:6.66666651px;font-family:Arial;-inkscape-font-specification:Arial;text-align:start;letter-spacing:0.2px;word-spacing:0px;text-anchor:start;fill:#000000;fill-opacity:1;stroke:none"
     x="5.4438233"
     y="87.04364"
     id="text18780-1-5-9-4"><tspan
       sodipodi:role="line"
       x="5.4438233"
       y="87.04364"
       id="tspan18861-6">Punta</tspan><tspan
       sodipodi:role="line"
       x="5.4438233"
       y="93.710304"
       id="tspan18886">Oeste</tspan></text>
  <text
     xml:space="preserve"
     style="font-style:normal;font-variant:normal;font-weight:normal;font-stretch:normal;font-size:4px;line-height:6.66666651px;font-family:Arial;-inkscape-font-specification:Arial;text-align:start;letter-spacing:0.4px;word-spacing:0px;text-anchor:start;fill:#000000;fill-opacity:1;stroke:none;"
     x="27.837111"
     y="95.311104"
     id="text18780-1-5-9-2"><tspan
       sodipodi:role="line"
       x="27.837111"
       y="95.311104"
       id="tspan18861-3">Emergency Airfield</tspan></text>
  <path
     style="fill:#7f7f7f;fill-opacity:1;stroke:none;stroke-width:1;stroke-linecap:round;stroke-linejoin:round;stroke-miterlimit:4;stroke-dasharray:none;stroke-opacity:1"
     d="m 24.360351,95.498653 2.818557,3.179734 1.153864,-0.940185 -2.946764,-3.136999 z"
     id="path14359-1-7-5-3-0-73-1-9-8-5-52"
     inkscape:connector-curvature="0"
     sodipodi:nodetypes="ccccc" />
  <path
     style="fill:none;stroke:#000000;stroke-width:1;stroke-linecap:round;stroke-linejoin:round;stroke-miterlimit:4;stroke-dasharray:none;stroke-opacity:1"
     d="m 40.765613,53.412883 -2.25847,1.329965 c 0.517779,1.426203 1.290928,2.924002 -0.185763,4.1022 -0.739687,1.550169 -2.071599,2.8003 -2.535804,4.766101 -0.768105,3.252739 -0.716107,7.931082 -1.531414,10.97504 -0.891503,3.328439 -2.94324,6.27207 -3.93312,9.217176 -3.276788,2.681008 -5.744849,7.139353 -6.939732,8.546584 -0.736101,0.866917 -2.007265,1.065768 -2.315714,1.965281 -0.360671,1.051808 -0.78689,1.438945 -0.666911,2.375174 v -2e-5 c 0.134089,1.04632 0.950412,1.33024 2.020564,1.65795 0.59229,1.986446 1.616186,3.124516 2.909253,3.393176 1.269833,0.26384 0.600837,-1.0596 3.69027,-1.10172 3.027256,-0.0413 6.283639,1.71941 8.715581,3.21577 1.096665,0.67478 1.331906,2.51261 5.912404,6.52825 0.374341,1.134 1.108578,4.02846 1.846944,5.04688 0.534591,0.73736 1.338721,1.33503 2.102168,1.98617 0.552937,0.47159 1.126828,0.70904 1.695713,1.16606 0.75372,0.60551 1.498653,1.42448 2.174422,1.99779 1.779331,1.50957 2.571431,0.95083 3.359465,1.5429 0.696818,0.52354 1.128879,1.37681 1.850162,2.15162 1.062946,1.14183 2.420545,2.24668 3.454989,2.96442 2.236427,1.55174 4.376907,2.44835 6.85267,3.34291 3.003327,1.08519 5.484984,1.53873 7.995733,2.2408 1.614201,0.45138 3.5094,0.57398 5.07477,1.08626 3.079289,1.00772 4.970184,2.94087 6.731135,3.19068 1.838075,0.26075 3.546203,-0.14631 5.235553,0.53643 1.02302,0.41345 1.11463,1.6834 2.4929,2.5579 1.24903,0.7925 2.14516,1.11725 3.47224,2.25529 1.14193,0.97926 2.474879,5.55682 5.653939,6.06861 0.72889,0.11734 1.40977,0.99141 2.1413,1.02608 0.74496,0.0353 1.03802,-0.30929 1.93355,-0.77026 0.88856,-0.45738 3.254,-0.45082 4.52874,-0.40783 0.99463,0.0335 1.88444,-0.4038 3.87098,-0.50827 0.65532,-0.0345 1.2068,-0.4824 1.87692,-0.4885 1.74573,-0.0159 3.5286,-0.008 5.29234,-0.0549 0.74875,-0.0198 1.1708,-0.67001 1.91543,-0.8604 1.5719,-0.4019 1.88259,0.15437 2.61971,0.10606 1.6539,-0.10838 2.61612,-0.002 3.87298,-0.0996 1.58803,-1.03268 3.66544,-2.68123 5.37281,-3.55162 1.05986,-0.5403 2.64536,-0.33584 3.82955,-0.76927 1.52672,-0.5588 2.95403,-1.45498 4.24703,-2.26754 0.51197,-0.32174 1.20436,-0.37722 1.49829,-0.0575 0.39985,0.4349 0.97545,0.67691 2.20703,-0.14034 2.03564,-1.35083 3.48928,-3.13512 4.68647,-5.30906 0.53828,-0.97745 0.18591,-1.97925 1.09966,-3.08054 2.42225,-2.91937 5.5612,-7.15323 9.03032,-10.76482 0.57625,-0.59991 0.44937,-1.19664 1.29819,-1.99414 1.67196,-1.57086 3.17971,-2.86045 4.38833,-4.23867 0.79532,-0.90695 1.30471,-0.42452 2.154,-0.54348 3.37148,-0.47224 6.3114,-5.73457 8.19373,-11.00797 0.67499,-1.89102 7.57308,-4.979378 8.98799,-5.162546 l -0.49231,-1.560686 c -0.84825,-0.139183 -2.04026,0.01587 -3.48391,0.456288 -0.54482,0.16621 -1.27513,0.409838 -1.61811,0.888142 -0.70118,-0.169349 -2.02963,0.610312 -2.99814,1.277421 -1.38066,0.950996 -2.26625,2.565471 -3.13099,4.038591 -1.35932,2.31563 -2.17588,5.47491 -4.43515,7.55172 -0.72985,0.67091 -1.71047,0.95694 -2.58028,1.04538 -0.65972,0.0671 -1.27152,-0.0587 -1.57056,0.2399 -1.94663,1.94378 -2.68663,1.73007 -3.84818,2.9853 -1.39091,1.50309 -1.66053,2.74235 -2.62229,3.99964 -1.13933,1.48944 -2.86132,2.41488 -3.74265,3.45902 -1.91535,2.26918 -3.59384,4.42869 -5.06491,7.10524 -0.29861,0.54332 -0.2208,1.30882 -0.8063,2.04569 -0.68189,0.85818 -0.8058,2.26326 -1.83242,3.2376 -0.81407,0.77261 -1.53226,1.22295 -2.39908,2.13019 -0.34114,0.35705 -0.79964,0.79001 -1.35813,0.46805 -0.47323,-0.27281 -1.69205,0.0998 -2.33654,0.25869 -0.69784,0.17201 -1.17572,0.68281 -1.82396,1.19367 -0.52696,0.41528 -1.30546,0.56288 -1.91565,0.78788 -1.1032,0.40679 -2.61899,0.30163 -3.99227,0.90296 -0.66897,0.29294 -2.76351,1.44065 -4.61919,3.01623 -0.62981,0.53474 -1.03916,0.83863 -1.81188,0.81328 -1.26841,-0.0416 -1.95914,0.0121 -3.31752,-0.0165 -0.44149,-0.009 -0.90793,-0.26965 -1.34843,-0.25817 -1.87183,0.0488 -2.21849,0.96502 -3.63177,1.04405 -1.24606,0.0697 -0.87505,0.46408 -1.92455,0.45613 -0.92544,-0.007 -0.6174,-0.5003 -2.81791,-0.40907 -0.89359,0.037 -2.84333,0.50607 -4.53879,0.73322 -1.08832,0.14581 -2.15155,0.15509 -3.19797,0.16911 -1.10631,0.0148 -0.80228,0.9483 -3.01956,0.90886 -1.0429,-0.0185 -1.43505,-1.02537 -2.93458,-1.30156 -0.89663,-0.16514 -2.85951,-3.98053 -3.850669,-4.56095 -1.217641,-0.71305 -2.481204,-1.49823 -3.544667,-2.53607 -0.799592,-0.78033 -1.456873,-1.71735 -2.226008,-2.49442 -0.959708,-0.96961 -2.16992,-1.10252 -4.014314,-1.04413 -0.758685,0.024 -1.648534,-0.18557 -2.390739,-0.22984 -1.317783,-0.0786 -3.675994,-1.77935 -6.804403,-3.00832 -0.774834,-0.30438 -3.064333,-0.34518 -5.463706,-1.11326 -2.533142,-0.8109 -5.497897,-1.5717 -7.526901,-2.19684 -1.974974,-0.60849 -3.884933,-1.69838 -5.658196,-2.79864 -1.980706,-1.22897 -3.287439,-3.05058 -5.345918,-4.84325 -0.441817,-0.38477 -1.7291,-0.8514 -3.600704,-1.86821 -0.897751,-0.48774 -1.480961,-0.9779 -1.924614,-1.8689 -0.220737,-0.44331 -0.548798,-0.57641 -0.780852,-0.73524 -2.417277,-1.65453 -4.3155,-5.35828 -5.592289,-7.9365 -0.264397,-0.5339 -0.805266,-0.99108 -1.541617,-1.55816 -1.007911,-0.77621 -1.807195,-1.73192 -2.759618,-2.58843 -0.415814,-0.37394 -0.102186,-0.82292 -0.826803,-1.36481 -1.110726,-0.83063 -2.613452,-1.76813 -3.493017,-2.11731 -1.120982,-0.445026 -3.733279,-1.769616 -6.867811,-1.916895 -0.581635,-0.02733 -1.3542,-0.220912 -1.93319,-0.0495 -0.76002,0.22501 -1.319295,0.362695 -2.11176,0.621102 -0.425469,-1.006011 -1.074421,-2.090378 -1.58024,-2.826694 0.324726,-0.499142 0.617013,-0.7982 1.117652,-1.352732 0.266479,-0.295166 0.456237,-0.847761 0.742261,-1.244089 0.784548,-1.087102 1.66793,-2.457858 2.788987,-3.580663 0.993023,-0.99457 1.407154,-2.038561 2.21245,-2.975709 1.126688,-1.311163 2.288582,-2.385475 2.48522,-2.8504 0.148109,-0.350182 0.109698,-0.871225 0.33136,-1.343545 0.593361,-1.264344 1.429156,-2.912425 2.093953,-4.571063 0.404926,-1.010275 0.694124,-2.059326 0.977995,-2.926936 0.531894,-1.625654 0.990425,-3.595162 1.361709,-6.097203 0.07109,-0.479053 -0.225447,-1.053047 -0.167751,-1.545406 0.146711,-1.251979 0.317158,-2.528693 0.555606,-3.775516 0.346174,-1.810114 2.77233,-3.184265 2.930167,-3.84115 0.329162,-1.369896 0.913376,-4.911327 -0.29689,-6.68712 z"
     id="path14359-1-7-5-3-0-73-1-9-8-5-5"
     inkscape:connector-curvature="0"
     sodipodi:nodetypes="cccsscsssccssscssssssssssssssssssssssscssssssssssssccscssssssssssssssssssssssssssssssssssssssssssssssssccsssssssssssscc" />
  <text
     xml:space="preserve"
     style="font-style:normal;font-variant:normal;font-weight:normal;font-stretch:normal;font-size:5.33333349px;line-height:6.66666651px;font-family:Arial;-inkscape-font-specification:Arial;text-align:start;letter-spacing:0.2px;word-spacing:0px;text-anchor:start;fill:#000000;fill-opacity:1;stroke:none"
     x="105.35213"
     y="154.9641"
     id="text18780-8"><tspan
       sodipodi:role="line"
       id="tspan18778-5"
       x="105.35213"
       y="154.9641">Punta</tspan><tspan
       sodipodi:role="line"
       x="105.35213"
       y="161.63077"
       id="tspan18939">Caigo o no Caigo</tspan></text>
  <text
     xml:space="preserve"
     style="font-style:normal;font-variant:normal;font-weight:normal;font-stretch:normal;font-size:5.33333349px;line-height:6.66666651px;font-family:Arial;-inkscape-font-specification:Arial;text-align:start;letter-spacing:0.2px;word-spacing:0px;text-anchor:start;fill:#000000;fill-opacity:1;stroke:none"
     x="81.366875"
     y="79.246307"
     id="text18780-2"><tspan
       sodipodi:role="line"
       id="tspan18778-0"
       x="81.366875"
       y="79.246307">ISLA</tspan></text>
  <text
     xml:space="preserve"
     style="font-style:normal;font-variant:normal;font-weight:normal;font-stretch:normal;font-size:5.33333349px;line-height:6.66666651px;font-family:Arial;-inkscape-font-specification:Arial;text-align:start;letter-spacing:0.2px;word-spacing:0px;text-anchor:start;fill:#000000;fill-opacity:1;stroke:none"
     x="131.49332"
     y="79.371887"
     id="text18780-2-1"><tspan
       sodipodi:role="line"
       id="tspan18778-0-0"
       x="131.49332"
       y="79.371887">MONA</tspan></text>
  <text
     xml:space="preserve"
     style="font-style:normal;font-variant:normal;font-weight:normal;font-stretch:normal;font-size:5.33333349px;line-height:6.66666651px;font-family:Arial;-inkscape-font-specification:Arial;text-align:start;letter-spacing:3.1400001px;word-spacing:0px;text-anchor:start;fill:#000000;fill-opacity:1;stroke:none;"
     x="38.693932"
     y="10.739474"
     id="text18969"><tspan
       sodipodi:role="line"
       id="tspan18967"
       x="38.693932"
       y="10.739474">ATLANTIC</tspan></text>
  <text
     xml:space="preserve"
     style="font-style:normal;font-variant:normal;font-weight:normal;font-stretch:normal;font-size:5.33333349px;line-height:6.66666651px;font-family:Arial;-inkscape-font-specification:Arial;text-align:start;letter-spacing:2.71000006px;word-spacing:0px;text-anchor:start;fill:#000000;fill-opacity:1;stroke:none;"
     x="141.55325"
     y="11.02568"
     id="text18969-3"><tspan
       sodipodi:role="line"
       id="tspan18967-7"
       x="141.55325"
       y="11.02568">OCEAN</tspan></text>
  <text
     xml:space="preserve"
     style="font-style:normal;font-variant:normal;font-weight:normal;font-stretch:normal;font-size:5.33333349px;line-height:6.66666651px;font-family:Arial;-inkscape-font-specification:Arial;text-align:start;letter-spacing:2.85px;word-spacing:0px;text-anchor:start;fill:#000000;fill-opacity:1;stroke:none;"
     x="21.416344"
     y="168.41711"
     id="text18969-9"><tspan
       sodipodi:role="line"
       id="tspan18967-0"
       x="21.416344"
       y="168.41711">CARIBBEAN</tspan></text>
  <text
     xml:space="preserve"
     style="font-style:normal;font-variant:normal;font-weight:normal;font-stretch:normal;font-size:5.33333349px;line-height:6.66666651px;font-family:Arial;-inkscape-font-specification:Arial;text-align:start;letter-spacing:2.8499999px;word-spacing:0px;text-anchor:start;fill:#000000;fill-opacity:1;stroke:none"
     x="167.92557"
     y="168.80579"
     id="text18969-9-1"><tspan
       sodipodi:role="line"
       id="tspan18967-0-9"
       x="167.92557"
       y="168.80579">SEA</tspan></text>
</svg>
