<?xml version="1.0" encoding="UTF-8" standalone="no"?>
<!-- Created with Inkscape (http://www.inkscape.org/) -->

<svg
   xmlns:dc="http://purl.org/dc/elements/1.1/"
   xmlns:cc="http://creativecommons.org/ns#"
   xmlns:rdf="http://www.w3.org/1999/02/22-rdf-syntax-ns#"
   xmlns:svg="http://www.w3.org/2000/svg"
   xmlns="http://www.w3.org/2000/svg"
   xmlns:sodipodi="http://sodipodi.sourceforge.net/DTD/sodipodi-0.dtd"
   xmlns:inkscape="http://www.inkscape.org/namespaces/inkscape"
   version="1.1"
   id="svg5060"
   width="220.8"
   height="246.39999"
   viewBox="0 0 220.8 246.39999"
   sodipodi:docname="ec01jn91.145.svg"
   inkscape:version="0.92.2 5c3e80d, 2017-08-06">
  <metadata
     id="metadata5066">
    <rdf:RDF>
      <cc:Work
         rdf:about="">
        <dc:format>image/svg+xml</dc:format>
        <dc:type
           rdf:resource="http://purl.org/dc/dcmitype/StillImage" />
        <dc:title></dc:title>
      </cc:Work>
    </rdf:RDF>
  </metadata>
  <defs
     id="defs5064" />
  <sodipodi:namedview
     pagecolor="#ffffff"
     bordercolor="#666666"
     borderopacity="1"
     objecttolerance="10"
     gridtolerance="10"
     guidetolerance="10"
     inkscape:pageopacity="0"
     inkscape:pageshadow="2"
     inkscape:window-width="1280"
     inkscape:window-height="756"
     id="namedview5062"
     showgrid="false"
     inkscape:snap-bbox="true"
     inkscape:zoom="1.7978897"
     inkscape:cx="36.470035"
     inkscape:cy="123.2"
     inkscape:window-x="5"
     inkscape:window-y="0"
     inkscape:window-maximized="0"
     inkscape:current-layer="svg5060" />
  <path
     style="fill:none;stroke:#000000;stroke-width:1;stroke-linecap:butt;stroke-linejoin:miter;stroke-miterlimit:4;stroke-dasharray:none;stroke-opacity:1"
     d="M 215.73307,4.4126177 215.73107,243.7201 H 7.599068 l 0.002,-239.3074823 z"
     id="path14359-1-7-5-3-0-73-1-9-8"
     inkscape:connector-curvature="0"
     sodipodi:nodetypes="ccccc" />
  <path
     style="fill:none;stroke:#000000;stroke-width:0.5;stroke-linecap:butt;stroke-linejoin:round;stroke-miterlimit:4;stroke-dasharray:2, 1, 0.50000000000000000, 1;stroke-dashoffset:0;stroke-opacity:1"
     d="m 32.352447,154.32366 h 3.128384 l -2.2e-4,4.64251 h -2.563049 l -3.8e-4,4.35235 h -3.385159 l -3.56e-4,4.27973 4.561719,0 v 1.74094 l 5.391035,0 3.32e-4,-4.27972 3.626956,0 1.73e-4,-2.22454 h 2.659768 l 2.93e-4,-3.77204 H 47.6096 l 3.57e-4,-4.59415 h -2.321252 l 3.35e-4,-4.30397 4.93266,0 3.34e-4,-4.304 h 5.149494 v 1.74094 l 9.116533,0 1.76e-4,-2.09529 h -2.007876 v -0.75791 H 61.80333 v -1.90186 h -6.576881 v -2.12782 h -2.46633 v -2.6114 H 50.24543 l 0,-4.06219 h -3.28844 l 0,-1.93438 h -1.837658 v -2.56305 h -2.756486 v 4.46491 l 4.594144,0.0325 v 3.96547 l -4.594144,-0.0325 v 2.49885 h -3.578597 v 1.41826 h -0.531953 l 0,1.67674 h -8.718629 l -0.001,12.87944 h 2.819824 z"
     id="path14359-1-7-5-3-0-73-1-9-8-4"
     inkscape:connector-curvature="0"
     sodipodi:nodetypes="ccccccccccccccccccccccccccccccccccccccccccccccccccccc" />
  <path
     style="fill:none;stroke:#000000;stroke-width:0.5;stroke-linecap:butt;stroke-linejoin:round;stroke-miterlimit:4;stroke-dasharray:2, 1, 0.50000000000000000, 1;stroke-dashoffset:0;stroke-opacity:1"
     d="m 7.5061812,104.91905 14.3575438,-2.63067 23.759133,3.73033 0.918312,1.73591 18.477343,1.30626 3.034995,-3.22875 c 0.526914,-0.56055 0.886665,-1.20615 1.396529,-1.17328 l 1.779212,0.11468 c 0.178384,2.35434 1.770274,5.66569 2.832172,5.62739 l 4.720287,-0.16851 6.391337,3.1618 c 1.291674,0.639 3.093585,0.41024 4.094697,-0.39173 l 4.370229,-3.62458 c 0.704737,-0.58449 1.057784,-1.30487 0.733729,-2.18107 l -3.241443,-8.764456 c -0.696528,-1.883321 1.147749,-1.331195 0.631928,-2.482848 -0.601277,-1.34245 -1.953627,-1.740858 -4.031064,-1.861294 -2.566394,-0.148783 -4.208105,-1.45262 -5.643743,-3.173793 m 2.499317,-33.234107 -5.107729,-2.459698 c -0.90195,-0.434347 -1.563048,-2.635924 -0.753495,-4.675081 0.251235,-0.632826 -1.993135,-2.120327 -2.997235,-2.511971 -2.686327,-1.047787 -4.264797,-0.9747 -5.712958,-0.999973 -0.63974,-0.01116 -1.254049,0.379305 -1.927203,-0.06959 -1.293795,-0.862773 -1.763958,-1.84206 -2.081985,-3.38072 -0.249055,-1.204958 -2.294443,-3.843197 -4.944734,-5.479438 -1.032007,-0.637142 -3.301055,-0.622571 -4.848566,-0.06015 -1.047425,0.380671 -1.403696,1.398682 -2.20513,1.153655 L 48.518127,38.998009 51.723627,8.7862394 50.233688,6.2063351 50.14711,4.4866219"
     id="path14359-1-7-5-3-0-73-1-9-8-8"
     inkscape:connector-curvature="0"
     sodipodi:nodetypes="cccccsscscsssssssccssssssssccccc" />
  <path
     style="fill:none;stroke:#000000;stroke-width:0.5;stroke-linecap:butt;stroke-linejoin:round;stroke-miterlimit:4;stroke-dasharray:2, 1, 0.50000000000000000, 1;stroke-dashoffset:0;stroke-opacity:1"
     d="m 61.377197,4.4290013 c 3.249966,3.2288991 4.10245,2.3895018 5.698659,3.8353128 1.244057,1.1268403 1.325146,2.7103759 2.855773,3.3753219 1.167161,0.507047 2.946809,0.980773 4.188956,0.922824 3.294813,-0.153711 5.197012,-1.114255 6.791638,-1.648235 1.355874,-0.45403 2.040241,-1.0533722 3.168724,-1.0344597 1.028853,0.017243 1.988845,1.1956447 2.865445,1.7084317 1.414744,0.827589 0.808687,1.667214 3.233315,2.094908 0.56096,0.09895 1.402806,0.420112 2.290847,0.698382 0.702354,0.220085 1.433605,0.34211 2.077644,0.803563 1.535689,1.10032 4.385609,3.807609 4.409624,6.49547 0.02543,2.8467 -0.245018,6.065864 -0.06007,9.26876 0.06815,1.180218 2.748521,1.970485 2.753741,5.647778 0.002,1.697488 1.68805,2.947997 1.73994,4.103777 0.0532,1.185302 1.24219,1.759236 1.19533,2.618864 -0.0665,1.219784 -1.52763,2.151446 -2.52783,4.121163 l -0.23124,0.961703"
     id="path14359-1-7-5-3-0-73-1-9-8-8-3"
     inkscape:connector-curvature="0"
     sodipodi:nodetypes="csssssssssssssscc" />
  <path
     style="fill:none;stroke:#000000;stroke-width:0.5;stroke-linecap:butt;stroke-linejoin:miter;stroke-miterlimit:4;stroke-dasharray:2, 1, 0.50000000000000000, 1;stroke-dashoffset:0;stroke-opacity:1"
     d="m 215.64269,21.872966 c -1.54444,-0.193901 -3.52948,-0.353843 -4.8084,0.266546 -1.15688,0.561186 -1.90838,2.502856 -3.25807,3.568449 -2.21544,1.74911 -4.27139,0.760836 -6.39065,1.4035 -3.80063,1.152542 -8.92939,6.942983 -9.49432,8.79668 -0.73475,2.41092 -0.71715,6.106118 -1.22902,7.380663 -1.12988,2.813344 -2.02027,5.746426 -2.8918,8.688942 -0.38226,1.290599 -0.48666,2.74938 -0.43833,4.269899 0.0142,0.445263 0.74847,0.591515 0.76333,1.112269 0.076,2.66427 -0.67044,9.659247 -1.63062,11.848278 -0.80141,1.827066 -1.6945,3.027889 -3.07835,4.033273 -3.24893,2.360369 -5.63665,5.392064 -7.9935,8.378979 -0.95246,1.20708 -2.48222,6.191685 -5.29315,8.309892 -4.43248,3.340135 -6.68101,2.520226 -7.86487,3.57327 -1.54477,1.374081 -2.43089,2.305714 -3.7401,3.655773 -1.25378,1.620819 -2.52486,3.363021 -3.75226,5.061741 -1.87053,2.58882 -3.85095,4.52272 -6.19748,4.5702"
     id="path14359-1-7-5-3-0-73-1-9-8-8-9"
     inkscape:connector-curvature="0"
     sodipodi:nodetypes="cssssssssssssscsc" />
  <path
     style="fill:none;stroke:#000000;stroke-width:0.5;stroke-linecap:butt;stroke-linejoin:miter;stroke-miterlimit:4;stroke-dasharray:2, 1, 0.50000000000000000, 1;stroke-dashoffset:0;stroke-opacity:1"
     d="m 8.2622261,236.39932 c 0.7788139,-0.0739 1.2286994,-0.93345 2.5986229,-1.6479 1.017791,-0.53081 2.007441,-1.18161 3.009655,-1.22186 0.659376,-0.0265 1.236876,0.97432 2.092401,0.96082 0.849168,-0.0134 0.675185,-0.66985 1.038246,-0.65646 0.603477,0.0223 1.739248,0.13045 1.739248,0.13045 3.733268,0 7.032364,-2.81949 10.435489,-4.82642 l 1.826211,-0.86962 h 2.391466 l 2.174061,-1.65228 h 1.827007 c 0.947405,0 1.602836,0.82416 2.278032,1.34732 0.608676,0.47163 0.592671,1.30503 1.026314,1.30503 h 4.435083 l -1.32e-4,1.43488 h -3.174128 c -0.545569,0 -0.867684,0.45168 -0.869837,1.04355 -0.0041,1.13933 1.37548,0.71974 1.391172,1.47836 0.01167,0.56399 0.782662,0.51842 1.173993,0 h 1.478588 l -3.27e-4,3.86983 h 2.39161 v 2.52191 h 2.739316 v 2.04361 h 6.435218 v -1.86969 h 1.869692 v -2.69583 h 5.652413 l -8.57e-4,6.47167"
     id="path14359-1-7-5-3-0-73-1-9-8-8-0"
     inkscape:connector-curvature="0"
     sodipodi:nodetypes="csssssccccsssccsssccccccccccccc" />
  <path
     style="fill:none;stroke:#000000;stroke-width:0.5;stroke-linecap:butt;stroke-linejoin:miter;stroke-opacity:1;stroke-miterlimit:4;stroke-dasharray:none"
     d="m 30.958618,239.26908 17.218557,-7.6527"
     id="path5688"
     inkscape:connector-curvature="0" />
  <path
     style="fill:none;stroke:#000000;stroke-width:0.5;stroke-linecap:butt;stroke-linejoin:miter;stroke-opacity:1;stroke-miterlimit:4;stroke-dasharray:none"
     d="m 35.656732,128.94252 12.060366,15.60991"
     id="path5690"
     inkscape:connector-curvature="0" />
  <path
     style="fill:none;stroke:#000000;stroke-width:0.5;stroke-linecap:butt;stroke-linejoin:miter;stroke-miterlimit:4;stroke-dasharray:2, 1, 0.50000000000000000, 1;stroke-dashoffset:0;stroke-opacity:1"
     d="m 171.87921,88.54317 c 1.20382,1.096243 1.63506,2.846695 1.65134,4.297281 0.009,0.761046 0.11811,1.412868 -0.45384,2.090377 -0.70328,0.833072 -0.2821,2.604422 -0.42932,3.924598 -0.24794,2.223414 2.11552,2.598844 2.1104,4.705354 -0.004,1.77518 -0.25181,3.69842 -0.28688,5.47519 -0.0317,1.60654 -1.38796,2.61766 -1.44627,4.02361 -0.0785,1.89388 -0.39634,4.76302 -0.52344,7.27198 -0.0983,1.93941 0.0317,3.54421 -0.0668,5.07083 -0.0755,1.16989 0.69773,2.08912 0.65742,3.21441 -0.0187,0.52135 -0.0327,1.03572 -0.0415,1.5411 -0.0281,1.63146 0.10841,3.27646 1.56135,4.18612 1.24099,0.77697 0.93024,2.59692 0.86792,3.44762 -0.0823,1.12361 -0.54096,2.01552 -0.59278,3.17398 -0.0737,1.64877 0.43191,3.53163 1.92228,4.76933 1.03197,0.857 2.72283,0.76222 4.54617,1.24522 1.37691,0.36473 2.43975,0.12259 3.77216,0.286 0.83721,0.10267 1.00043,1.21977 2.17351,2.18092 0.48883,0.40051 1.06514,0.76313 1.89132,0.94994 0.69978,0.15823 1.26924,0.86877 1.71397,1.12834 1.72949,1.00944 2.74391,1.81943 4.19083,3.19265 1.35457,1.28558 0.94036,2.66888 2.00135,3.64 1.75454,1.60592 4.30639,1.336 6.07909,1.43057 1.18117,0.063 1.44898,1.33474 2.52167,1.84752 3.89232,1.86064 8.21911,2.88197 9.77375,3.17206"
     id="path14359-1-7-5-3-0-73-1-9-8-8-5"
     inkscape:connector-curvature="0"
     sodipodi:nodetypes="csssssssssssssssssssssssc" />
  <path
     style="fill:none;stroke:#000000;stroke-width:0.5;stroke-linecap:round;stroke-linejoin:miter;stroke-miterlimit:4;stroke-dasharray:none;stroke-dashoffset:0;stroke-opacity:1"
     d="m 171.86198,5.6520307 c -0.12459,0.9756899 0.13942,1.9692295 0.0776,3.1164689 -0.0863,1.6006694 -1.26704,1.9613854 -1.28434,2.7734484 -0.0329,1.545223 -0.10677,3.048085 -0.0969,4.320157 0.0169,2.185921 -1.59437,3.884762 -1.7644,5.122442 -0.25676,1.868961 -0.0499,3.879277 -0.0629,5.838556 -0.004,0.584882 0.57704,0.763846 0.59249,1.359136 0.0313,1.204634 -1.10053,2.390764 -1.07028,3.576502 0.031,1.212783 0.40337,1.661534 0.43012,3.560092 0.009,0.634762 0.46121,0.98847 0.4224,1.635136 -0.0551,0.9188 0.3853,2.080138 0.38793,2.986574 0.002,0.801694 0.009,1.610525 0.0207,2.426318 0.01,0.700636 -0.89754,0.96257 -0.81229,2.673039 0.0464,0.932063 1.02088,0.602542 1.05152,2.302359 0.0155,0.861879 -0.39155,1.478596 -0.40137,2.056794 -0.0123,0.722632 -0.0236,1.448725 -0.034,2.178071 -0.007,0.491928 0.72611,0.532968 0.67787,1.562223 -0.0249,0.532157 -0.0154,1.066945 -0.0233,1.602691 -0.0146,0.989271 -1.29012,1.889094 -1.27917,3.166348 0.01,1.143422 1.08885,1.877589 0.99907,2.834026 -0.054,0.575299 -0.37421,1.193673 -0.36837,1.773027 0.0102,1.015013 0.83079,1.248739 0.80343,3.081732 -0.0279,1.871551 -0.10922,3.749856 -0.1775,5.63258 -0.0845,2.330415 1.5097,5.711111 1.94534,10.854936 0.11603,1.369992 -0.45724,2.043542 -0.39488,3.167334 0.0328,0.590764 0.39496,1.140215 0.42864,1.73049 0.0555,0.973225 -0.6292,1.370432 -0.61504,2.013872 0.0314,1.425724 1.03681,2.296616 1.10221,3.744744 0.0462,1.023493 -0.57332,1.856222 -0.60492,3.005894 -0.0415,1.511163 -0.0941,3.325802 -0.0724,4.639059 0.0248,1.50893 1.93058,2.54821 1.93945,3.69983 0.0112,1.45876 0.24701,3.53791 -0.22276,4.95392 -0.48708,1.46814 -1.59795,2.6017 -1.61859,3.64225 -0.0327,1.64765 -0.12237,3.48488 -0.10653,5.09733 0.007,0.73044 -0.60298,1.37477 -0.59691,2.09722 0.0192,2.29185 0.0327,4.54222 0.039,6.74318 0.002,0.53793 0.57821,0.99068 0.57866,1.52262 0.002,1.78486 -0.2802,3.40673 0.391,4.90253 0.63229,1.40906 1.43062,2.65604 2.15042,3.98413 0.53698,0.99079 -0.38896,2.76044 -0.5311,4.57039 -0.13018,1.65765 0.67426,3.45122 1.33827,4.21262 1.51516,1.73738 3.94276,1.94751 5.85899,2.85689 1.15466,0.54796 3.44488,-0.3694 4.04012,0.144 0.69323,0.59791 0.97196,1.76896 1.75056,2.27119 0.75234,0.4853 1.93384,0.17004 2.65426,0.69403 0.90674,0.65952 3.41457,2.60929 5.22385,3.90253 0.67299,0.48105 0.80332,1.34307 0.84728,1.73489 0.0516,0.46 0.89839,0.6496 1.03051,1.07249 0.49583,1.58706 1.3878,1.9332 1.52071,2.91296 0.1526,1.12488 0.0939,2.45082 0.0918,3.60601 -0.006,3.49463 -3.23954,6.85101 -5.34751,8.97877 -0.76474,0.77192 -1.2769,1.33521 -1.20016,1.90047 0.12492,0.92014 -2.02258,0.43304 -1.89513,2.63048 0.0168,0.29006 -0.62904,0.33112 -0.61596,0.98634 0.032,1.60335 0.10008,3.16611 0.0499,4.60141 -0.0338,0.96813 -0.71035,0.89328 -0.70583,2.1441 0.004,1.08363 0.91516,1.62199 0.79356,2.40825 -0.15664,1.01286 -0.45181,2.01825 -1.01523,2.8561 -0.50649,0.75318 -0.39866,1.35486 -0.76262,1.84168 -0.67936,0.90871 -1.67327,1.4159 -2.33132,2.06801 -0.98081,0.97197 -1.00352,2.26272 -2.13239,2.92617 -0.923,0.54246 -1.89735,1.03473 -4.20747,0.97051 -1.90799,-0.053 -3.1533,2.0149 -3.1638,4.01256 -0.0132,2.51915 -1.38122,3.97973 -4.45714,3.85089 -0.56996,-0.0239 -0.57178,0.4568 -1.27615,0.45231 -1.22525,-0.008 -2.07705,0.0473 -3.3376,0.0898 -1.28144,0.0433 -2.97744,1.27146 -3.03641,2.08324 -0.0733,1.00834 -1.01304,1.817 -1.83634,1.78686 -0.95505,-0.035 -1.70334,0.10237 -2.60131,0.0985 -0.38945,-0.002 -1.03853,0.21142 -1.48276,0.70405 -0.4273,0.47386 -0.65148,1.2172 -0.94615,1.73804 -0.55955,0.98904 -1.52992,1.26946 -2.24047,1.29107 -1.10325,0.0335 -2.24289,0.0232 -3.41991,-0.0323 -0.99018,-0.0466 -2.81053,0.55915 -2.80745,1.92638 0.004,1.74972 1.81144,1.92804 1.78602,3.18564 -0.0106,0.52552 -0.28325,1.37867 -0.60913,2.03055 -0.13859,0.27722 -0.46546,0.33939 -0.49482,0.61556 -0.1002,0.94243 -0.16481,1.67174 -0.16392,2.45608 7.4e-4,0.64882 -0.58222,1.04755 -0.58767,1.70798 -0.0134,1.62683 0.12533,3.83221 0.12566,5.45288 4e-4,1.96473 -1.30854,4.02976 -3.17084,4.64904 -1.85535,0.61697 -3.41934,3.02164 -3.40846,5.06528"
     id="path14359-1-7-5-3-0-73-1-9-8-8-2"
     inkscape:connector-curvature="0"
     sodipodi:nodetypes="cssssssssssssssssssssssssssssssssssssssssssssssssssssssssssssssssssssssssssssssssc" />
  <path
     style="fill:none;stroke:#000000;stroke-width:0.5;stroke-linecap:round;stroke-linejoin:round;stroke-miterlimit:4;stroke-dasharray:none;stroke-dashoffset:0;stroke-opacity:1"
     d="m 168.18147,151.08628 c -0.26231,1.39134 -0.49442,2.90058 -0.95907,4.34565 -0.33133,1.03044 -0.92087,1.91627 -1.08785,3.2123 -0.13428,1.0421 -0.23003,2.91014 -0.11127,4.00121 0.10917,1.00289 -0.94929,2.0655 -1.05353,3.00628 -0.13287,1.19913 -0.19592,2.38538 -0.15894,3.53659 0.0298,0.927 -0.61182,1.78384 -1.05336,2.81571 -0.45152,1.05519 -0.71207,2.28299 -1.49975,3.00275 -1.32027,1.20644 -3.91752,2.00659 -5.46764,1.91201 -1.5064,-0.0919 -2.7563,0.22734 -2.92661,1.27978 -0.29536,1.82527 2.8501,1.48986 2.57611,5.8208 -0.0395,0.62506 -0.48617,1.06146 -0.55586,1.67638 -0.0933,0.82333 -0.14827,1.7584 -0.15971,2.57695 -0.0268,1.92163 2.15673,2.52858 2.13542,4.72323 -0.017,1.75567 -0.13933,2.66052 -0.16775,4.42467 -0.0465,2.88433 1.93386,2.69842 1.95852,3.71443 0.0179,0.7384 -0.77338,1.44787 -0.93169,2.15022 -0.13157,0.58372 0.36473,1.16258 0.33681,1.74926 -0.0228,0.47986 -0.38698,0.90737 -0.52307,1.56275 -0.1564,0.75322 -0.0847,1.73434 -0.0678,2.22147 0.0269,0.77638 -0.68313,1.12522 -0.69325,1.79198 -0.03,1.97895 -1.16284,2.32909 -1.3809,3.75741"
     id="path14359-1-7-5-3-0-73-1-9-8-8-27"
     inkscape:connector-curvature="0"
     sodipodi:nodetypes="cssssssssssssssssssssc" />
  <path
     style="fill:none;stroke:#000000;stroke-width:0.5;stroke-linecap:round;stroke-linejoin:round;stroke-miterlimit:4;stroke-dasharray:none;stroke-dashoffset:0;stroke-opacity:1"
     d="m 94.200292,61.04452 c -0.04614,1.029355 -0.02524,2.144526 0.825588,3.376888 1.610377,2.332498 3.252071,4.748841 4.734101,6.550929 1.729609,2.103132 1.407269,4.666825 1.104599,7.032563 -0.18907,1.477917 -0.57196,2.685078 -0.942148,3.830057 -0.338336,1.046474 -0.786871,2.118316 -0.480024,2.624634 0.46467,0.766734 1.507842,1.1607 2.399782,1.709191 0.98339,0.604725 1.81603,0.815921 2.14582,1.345797 0.34986,0.562123 0.59384,1.201985 1.09485,1.690963 0.43138,0.421034 1.09751,0.715475 1.67018,0.923995 0.98203,0.357573 2.19378,1.627514 2.84526,2.735744 1.05095,1.787799 0.33196,4.436987 0.98048,5.437954 0.47297,0.730023 1.19054,0.463418 1.89731,1.758195 0.56156,1.02876 0.24772,2.10086 0.69491,2.81438 0.84293,1.34493 1.73673,2.41149 2.51085,4.05348 0.53385,1.13237 1.01202,2.14903 1.05452,3.21911 0.0434,1.09282 -0.56337,1.38357 -0.55118,2.06951 0.0523,2.94524 -0.41103,2.59407 -0.44138,4.16005 -0.0104,0.53562 0.43222,1.46766 0.41805,1.9909 -0.0351,1.29738 -0.0773,2.53248 -0.10362,3.58522 -0.0211,0.84181 0.71625,1.49595 0.66346,2.35423 -0.0516,0.83919 0.6785,1.50059 0.70682,2.26676 0.0392,1.05979 -0.77262,1.47275 -0.59688,5.0662 0.0528,1.07942 0.57878,1.37077 0.58992,2.052 0.0163,0.99922 0.0429,1.9823 0.0838,2.90444 0.0336,0.75848 0.61822,0.89994 0.54689,2.219 -0.0674,1.24712 -0.73282,1.52441 -0.68592,2.07568 0.1149,1.35032 1.39494,1.92526 1.31526,2.79489 -0.0434,0.47324 -0.0776,0.94071 -0.0258,1.39621 0.16715,1.46954 1.9617,1.8228 2.0021,3.17562 0.13489,4.51711 -0.65197,3.72253 -0.55593,5.50774 0.0638,1.18534 1.72422,1.87097 1.90457,3.1269 0.22822,1.58922 1.63405,3.16682 2.71747,4.36129 1.26157,1.39089 3.98671,2.90711 5.40131,2.81284 0.84303,-0.0562 1.93246,0.0384 2.81714,0.0586 1.95446,0.0447 3.1371,1.88442 4.25557,1.82934 1.18752,-0.0585 2.56476,0.0499 3.71719,0.25046 2.01564,0.35086 1.82378,2.28794 2.82925,2.40316 1.05175,0.12053 1.69176,0.43808 2.37341,1.17678 1.09377,1.18532 2.08433,2.37829 3.20744,3.54546 1.71619,1.7835 3.28598,3.14599 4.67305,4.3021"
     id="path14359-1-7-5-3-0-73-1-9-8-8-37"
     inkscape:connector-curvature="0"
     sodipodi:nodetypes="csssssssssssssssssssssssssssssssssssssssc" />
  <path
     style="fill:none;stroke:#000000;stroke-width:0.5;stroke-linecap:round;stroke-linejoin:round;stroke-miterlimit:4;stroke-dasharray:none;stroke-dashoffset:0;stroke-opacity:1"
     d="m 76.374185,123.12265 c 2.327001,2.26767 3.489922,2.75504 5.336969,2.75014 0.859103,-0.002 1.318159,0.27716 2.862909,0.33433 1.582535,0.0586 2.570306,-0.39751 3.891843,-0.51458 1.070425,-0.0948 2.155914,0.32405 3.026936,0.76708 0.835825,0.42513 1.465145,0.85897 2.114246,1.51259 1.841732,1.85455 3.305659,3.56199 4.852799,5.12213 0.386446,0.3897 0.2156,0.97477 0.599651,1.34139 0.612543,0.58474 1.557232,0.22341 2.474652,0.92185 0.97513,0.74239 0.22157,1.40603 1.05268,2.07459 0.75758,0.6094 2.19945,-0.17303 3.01238,1.11869 0.41668,0.6621 0.32721,1.89711 0.32658,2.71679 -7.6e-4,0.99332 -1.05312,1.39195 -1.06033,2.73689 -0.01,1.86117 1.73998,1.22458 2.42174,1.55405 0.90033,0.43508 0.73819,2.21672 2.05585,3.45489 1.10296,1.03642 1.11098,1.94316 2.05814,1.98963 0.71318,0.035 1.43817,-0.78977 2.17501,-0.86333 0.90682,-0.0905 2.23887,1.83654 3.1821,1.76651 1.19355,-0.0886 1.62978,1.60145 3.23939,1.40883"
     id="path14359-1-7-5-3-0-73-1-9-8-8-37-9"
     inkscape:connector-curvature="0"
     sodipodi:nodetypes="csssssssssssssssssc" />
  <path
     style="fill:none;stroke:#000000;stroke-width:0.5;stroke-linecap:round;stroke-linejoin:round;stroke-miterlimit:4;stroke-dasharray:none;stroke-dashoffset:0;stroke-opacity:1"
     d="m 80.531706,148.75124 c 0.954165,-0.0113 1.284661,0.66044 3.244883,0.6104 0.661659,-0.0169 1.03112,-0.40413 1.586553,-0.41116 1.045831,-0.0132 1.646317,0.97823 2.677981,1.02059 0.910537,0.0374 0.818404,0.58729 1.762679,0.77716 0.968784,0.19481 1.225481,-0.39545 1.824158,-0.17603 0.594577,0.21791 0.922043,0.58578 1.421206,0.88511 0.651015,0.39038 0.948858,1.07128 1.320092,1.7121 0.455681,0.78659 0.935368,1.57052 1.254269,2.38948 0.374566,0.96192 0.871751,1.12973 1.664768,1.03846 1.153387,-0.13275 1.339871,1.80398 3.293905,1.81563 0.47446,0.003 0.97839,-0.29496 1.45583,-0.60577 0.36728,-0.23908 0.78862,-0.43807 0.74125,-0.79454 -0.0994,-0.74757 0.2174,-1.29256 0.81785,-1.56414 0.63656,-0.28791 1.41663,-0.50903 2.10307,-0.77449 1.01893,-0.39405 2.15089,-1.31362 3.25145,-1.49981 0.64007,-0.10828 1.47402,0.34838 2.21994,0.2254 0.52888,-0.0872 0.95687,-0.74898 1.49249,-0.84831 0.43176,-0.0801 0.97401,0.80415 1.39673,0.72308 0.51227,-0.0982 0.64082,-0.90327 1.44058,-0.84336 0.73316,0.0549 0.7696,0.0644 1.07919,-0.53972"
     id="path14359-1-7-5-3-0-73-1-9-8-8-37-0"
     inkscape:connector-curvature="0"
     sodipodi:nodetypes="csssssssssssssssssssc" />
  <path
     style="fill:none;stroke:#000000;stroke-width:0.5;stroke-linecap:round;stroke-linejoin:round;stroke-miterlimit:4;stroke-dasharray:none;stroke-dashoffset:0;stroke-opacity:1"
     d="m 146.08393,169.88058 c -2.36542,1.31454 -5.41838,1.01685 -7.74963,2.24699 -2.61583,1.38031 -3.97533,3.25899 -5.58268,3.98289 -0.55807,0.25133 -1.23662,-0.0228 -1.79751,0.22715 -0.44824,0.1997 -0.85898,0.86254 -1.26926,1.12991 -0.45222,0.29469 -0.90387,0.19461 -1.40457,0.41504 -1.49376,0.65762 -3.25283,1.47307 -4.76933,2.06717 -0.72741,0.28497 -1.56669,0.1865 -2.28216,0.4329 -0.98996,0.34093 -1.84706,0.9775 -2.77825,0.92949 -0.69831,-0.036 -1.55828,-0.95987 -2.53173,-0.98064 -1.00726,-0.0215 -1.67743,-1.46355 -2.47295,-1.50105 -0.78168,-0.0369 -1.96932,1.34216 -2.8112,1.4089 -0.6351,0.0504 -2.15882,0.47721 -2.16141,1.15092 -0.001,0.35959 0.54386,0.347 0.53618,1.0555 -0.003,0.32298 -0.6064,0.69859 -0.60949,1.02202 -0.005,0.50832 0.4538,1.05307 0.46057,1.48109 0.008,0.48695 -0.43537,0.83957 -0.42412,1.1139"
     id="path14359-1-7-5-3-0-73-1-9-8-8-37-2"
     inkscape:connector-curvature="0"
     sodipodi:nodetypes="csssssssssssssssc" />
  <path
     style="fill:none;stroke:#000000;stroke-width:0.5;stroke-linecap:round;stroke-linejoin:round;stroke-miterlimit:4;stroke-dasharray:none;stroke-dashoffset:0;stroke-opacity:1"
     d="m 124.21421,160.82515 c -1.59395,0.92657 -1.95215,2.449 -3.43031,3.88964 -1.05197,1.02527 -2.40937,1.63781 -3.71738,1.87548 -1.10905,0.20152 -2.73807,1.76289 -4.20533,1.91658 -1.60705,0.16834 -2.82921,0.7608 -4.17939,0.67516 -0.66132,-0.0419 -1.25164,0.10158 -1.98674,-0.0588 -0.71616,-0.15626 -1.57553,-0.61838 -2.33917,-0.52351 -1.06424,0.13222 -1.17071,-0.75726 -2.38714,-0.75681 -0.50302,1.8e-4 -0.64719,-0.63805 -2.805047,-0.56526 -0.365616,0.0123 -0.607218,0.43726 -0.975061,0.44812 -0.369154,0.0109 -0.513728,-0.38969 -0.884345,-0.46078 -0.512817,-0.0984 -1.250062,0.12157 -1.742881,0.12884 -1.473122,0.0217 -1.684283,2.3776 -4.200967,2.44456 -0.741894,0.0197 -1.436355,0.40163 -2.084257,0.71067 -1.269613,0.60559 -2.360441,1.41666 -3.279053,2.07297"
     id="path14359-1-7-5-3-0-73-1-9-8-8-37-3"
     inkscape:connector-curvature="0"
     sodipodi:nodetypes="csssssssssssssc" />
  <path
     style="fill:none;stroke:#000000;stroke-width:0.5;stroke-linecap:round;stroke-linejoin:round;stroke-miterlimit:4;stroke-dasharray:none;stroke-dashoffset:0;stroke-opacity:1"
     d="m 94.598953,153.7061 c -1.787537,0.61238 -1.985956,2.12371 -2.512432,2.93811 -0.854939,1.32249 -2.012553,2.6119 -3.238801,3.87345 -0.26346,0.27104 0.167618,0.88676 -0.483914,1.40636 -0.774511,0.61769 -1.110884,0.0451 -1.426323,0.33568 -0.485848,0.44759 -1.253815,1.06332 -1.733553,1.50573 -0.750917,0.69248 -1.327032,1.11967 -1.99795,1.76509 -0.402017,0.38673 0.01122,0.96504 -0.901215,1.82233 -0.805491,0.7568 -1.380919,0.50781 -1.888963,0.99771"
     id="path14359-1-7-5-3-0-73-1-9-8-8-37-99"
     inkscape:connector-curvature="0"
     sodipodi:nodetypes="csssssssc" />
  <path
     style="fill:none;stroke:#000000;stroke-width:0.5;stroke-linecap:round;stroke-linejoin:round;stroke-miterlimit:4;stroke-dasharray:none;stroke-dashoffset:0;stroke-opacity:1"
     d="m 107.29935,169.2541 c -0.19845,0.86328 -1.40688,1.74152 -1.45128,2.47525 -0.0713,1.1788 0.8037,1.31468 0.74026,2.43854 -0.0283,0.50216 0.0158,1.0939 -0.83403,1.68441 -0.39025,0.27117 -0.86962,0.26288 -1.33104,0.59424 -0.46486,0.33385 -0.60339,0.9277 -1.03284,1.30219 -0.55047,0.48002 -1.35921,0.7461 -1.60342,1.20382 -0.69402,1.3008 -0.36741,2.55696 -0.84999,3.77871 -0.49426,1.25134 -1.168242,2.22427 -2.752048,3.73017"
     id="path14359-1-7-5-3-0-73-1-9-8-8-37-7"
     inkscape:connector-curvature="0"
     sodipodi:nodetypes="csssssssc" />
  <path
     style="fill:none;stroke:#000000;stroke-width:0.5;stroke-linecap:round;stroke-linejoin:round;stroke-miterlimit:4;stroke-dasharray:none;stroke-dashoffset:0;stroke-opacity:1"
     d="m 142.3525,139.21143 c 1.85847,2.75435 1.9669,5.5802 1.93172,8.67583 -0.0182,1.59995 2.37266,4.28475 2.60096,7.46659 0.0958,1.33444 2.52823,4.9574 2.51257,7.51942 -0.004,0.7057 -0.23557,1.31886 -0.58097,1.86158 -0.24141,0.37931 0.15267,1.04879 -0.59247,1.61542 -0.61073,0.46441 -1.08631,0.19077 -1.46217,0.52325 -0.90748,0.80276 -1.45258,1.41041 -1.18112,2.36673"
     id="path14359-1-7-5-3-0-73-1-9-8-8-37-03"
     inkscape:connector-curvature="0"
     sodipodi:nodetypes="cssssssc" />
  <path
     style="fill:none;stroke:#000000;stroke-width:0.5;stroke-linecap:round;stroke-linejoin:round;stroke-miterlimit:4;stroke-dasharray:none;stroke-dashoffset:0;stroke-opacity:1"
     d="m 99.521992,102.32092 c 0.291952,-0.24192 1.029168,-0.58189 1.802868,-0.55744 1.43603,0.0454 1.08257,0.67483 1.57366,1.02691 0.728,0.52193 1.6859,1.33222 1.9919,2.14292 0.21673,0.57423 -0.1013,1.14866 -0.13752,1.62099 -0.0672,0.87664 1.20463,1.8976 1.98358,2.51498 0.50917,0.40357 0.40844,1.58755 0.36322,2.39743 -0.053,0.95024 0.76078,1.52343 1.5127,1.86404 0.55228,0.25019 1.09515,0.20694 1.11507,0.94605 0.057,2.11693 -0.003,5.4609 -0.0502,8.63295 -0.0106,0.70867 0.45871,0.72878 0.38829,2.18888 -0.0471,0.97725 -0.42959,1.10438 -0.43234,1.667 -0.005,1.11532 -10e-6,2.10613 0.0248,2.88123 0.0188,0.58865 1.85752,2.88767 1.9534,3.62195 0.1691,1.29513 1.10749,2.84346 1.92775,4.12555 0.58278,0.91091 1.60211,2.1237 2.56255,2.27672 0.71326,0.11364 1.02455,0.54044 1.2383,1.17182"
     id="path14359-1-7-5-3-0-73-1-9-8-8-37-98"
     inkscape:connector-curvature="0"
     sodipodi:nodetypes="csssssssssssssssc" />
  <path
     style="fill:none;stroke:#000000;stroke-width:0.5;stroke-linecap:round;stroke-linejoin:round;stroke-miterlimit:4;stroke-dasharray:none;stroke-dashoffset:0;stroke-opacity:1"
     d="m 10.007886,200.69888 c 1.434788,-0.52867 4.450849,-2.14339 5.422854,-2.16736 0.48777,-0.012 1.007265,0.12799 1.421343,-0.0777 2.091139,-1.03871 4.524767,-2.99521 6.858268,-3.14145 4.630706,-0.29022 4.198123,1.31984 6.608947,1.52543 1.245158,0.10618 1.541785,-0.54951 2.242925,-0.59921 0.717876,-0.0509 1.291617,0.43517 1.976319,0.43195 1.884101,-0.009 4.157425,0.22213 6.027237,0.20633 0.597046,-0.005 1.880346,0.2226 2.424002,0.7132 0.690994,0.62356 0.651146,1.54536 1.556689,1.57192 0.387288,0.0114 0.911166,-0.45201 1.297492,-0.43071 0.920012,0.0507 1.357292,1.84362 2.957079,2.08646 0.938109,0.14241 1.510668,1.15031 2.4282,2.02818 0.888071,0.84968 2.10107,1.69414 3.284459,1.77765 1.585417,0.11188 1.100699,1.64821 1.735373,1.65631 1.385247,0.0177 2.263817,0.34585 2.663337,0.74196 0.615541,0.6103 -0.03484,1.45043 1.29889,1.42774 0.562158,-0.01 1.122159,-0.21429 1.680157,-0.20352 0.631183,0.0122 0.75961,1.23604 1.915672,1.29747 0.516596,0.0275 0.942904,-0.8098 1.461119,-0.76254 0.56467,0.0515 0.373745,1.07128 1.826293,1.07119 1.464947,-9e-5 2.373324,-1.73354 2.384014,-3.08223 0.01011,-1.27554 0.448471,-2.10584 0.943154,-2.91466 0.353143,-0.57739 0.634157,-1.34551 1.268587,-1.33681 0.238706,0.003 0.539329,0.65555 1.035183,0.61254 0.718963,-0.0624 0.669154,-0.83093 2.231369,-0.85406 m 10.932399,0.21846 c 0.422542,-0.0189 0.493528,0.6174 1.927075,0.60302 1.007195,-0.0101 1.540181,3.09656 3.119039,3.16277 0.387159,0.0162 0.03212,-2.40106 0.370601,-2.24487 1.085225,0.5008 1.90999,2.16826 2.532706,2.14227 0.494196,-0.0206 1.096057,-0.85809 1.220671,-0.37315 0.382997,1.49044 1.423604,0.82295 1.896056,1.19187 0.734655,0.57365 -0.76007,1.03259 -0.800479,2.11989 -0.02202,0.59242 0.797803,1.16143 0.771159,1.79767 -0.06578,1.57071 0.626596,2.6874 1.194813,3.65951 0.394347,0.67466 -0.132885,2.72031 0.184988,3.6679 0.235043,0.70068 0.811861,0.97387 1.602708,0.92535 1.968866,-0.1208 5.690916,0.1237 6.602056,0.30072"
     id="path14359-1-7-5-3-0-73-1-9-8-8-37-6"
     inkscape:connector-curvature="0"
     sodipodi:nodetypes="cssssssssssssssssssssssssccsssssssssssc" />
  <path
     style="opacity:1;vector-effect:none;fill:none;fill-opacity:1;fill-rule:evenodd;stroke:#000000;stroke-width:0.5;stroke-linecap:round;stroke-linejoin:round;stroke-miterlimit:4;stroke-dasharray:none;stroke-dashoffset:0;stroke-opacity:1"
     d="m 85.812468,202.12296 a 5.3461442,5.3461442 0 0 1 -5.346144,5.34614 5.3461442,5.3461442 0 0 1 -5.346144,-5.34614 5.3461442,5.3461442 0 0 1 5.346144,-5.34615 5.3461442,5.3461442 0 0 1 5.346144,5.34615 z"
     id="path5779" />
  <path
     style="fill:none;stroke:#000000;stroke-width:1;stroke-linecap:round;stroke-linejoin:round;stroke-miterlimit:4;stroke-dasharray:none;stroke-dashoffset:0;stroke-opacity:1"
     d="m 71.210333,102.16366 c -2.34012,0.76031 -5.333755,2.67416 -8.020463,3.95974 -1.865888,0.89282 -3.255656,2.32981 -4.337925,2.82772 -1.621563,0.74602 -2.439409,1.72375 -3.679043,2.52415 -1.023524,0.66086 -1.541413,1.67293 -1.587943,2.95259 -0.141207,3.88342 3.314412,7.51638 8.013198,11.4381 1.863907,1.55566 4.81567,3.44627 7.246581,4.85916 1.901318,1.10508 3.451986,1.78984 4.126145,2.6409 1.153466,1.45613 2.827053,7.07265 2.747399,14.4797 -0.03721,3.46007 -0.238652,7.26895 -0.244912,10.81377 -0.0048,2.69042 0.794227,5.77483 1.588453,8.295 1.633563,5.18349 7.647987,8.44779 9.735216,8.69361 1.655839,0.19502 2.719243,1.58137 3.783392,2.58095 2.34424,2.202 3.247454,6.76417 4.82318,10.23941 2.351266,5.18569 4.615659,6.63062 7.017259,6.65033 1.16519,0.01 2.21999,0.0292 3.00506,-0.27721 1.16617,-0.45513 1.93622,-1.43066 3.19908,-2.61706 1.48019,-1.39059 2.83563,-2.89414 4.15386,-4.25584 0.47296,-0.48855 0.77617,-0.95884 1.24359,-1.3991 0.45432,-0.42793 1.07288,-0.82749 1.5295,-1.18787 1.85673,-1.46541 3.62559,-2.48424 5.36736,-2.39793 1.76583,0.0875 2.65881,-0.28727 3.90879,-0.39083 1.54829,-0.12827 2.22377,-1.63261 3.52931,-1.71235 1.61377,-0.0986 1.81694,0.63002 3.18054,0.54216 0.91282,-0.0588 2.12118,-0.47222 2.74695,-0.86734 2.3597,-1.48997 3.02579,-7.51657 7.249,-7.67826 1.8746,-0.0718 2.72733,1.60786 3.26528,3.82557 0.88169,3.63486 2.15552,8.26272 2.02129,9.34322 -0.1853,1.49159 3.27167,3.94188 5.51481,4.79098 2.53367,0.95908 6.10282,1.66676 9.90483,-0.31923 2.08951,-1.09146 3.85149,-3.21538 5.98996,-5.32205 0.42664,-0.42029 0.50201,-1.2396 0.86176,-1.6511 1.17073,-1.33918 0.85387,-1.99619 1.72685,-3.51806 1.80554,-3.14763 3.7631,-6.07189 5.48894,-8.6598 2.74194,-4.11158 4.98144,-6.71439 4.93215,-9.33465 -0.0426,-2.26402 -0.76956,-4.48978 -2.71367,-6.83908 -1.34797,-1.62892 -2.9382,-3.37711 -4.92119,-4.95725 -1.39999,-1.11558 -3.11984,-2.10603 -4.54354,-3.09322 -2.52942,-1.75389 -4.99141,-3.58918 -7.39015,-5.27197 -4.12403,-2.89315 -7.73852,-5.49685 -8.8584,-7.62573 -0.8081,-1.53617 -1.24785,-4.71319 -1.03476,-8.10397 0.22254,-3.54114 1.37984,-3.84858 1.45209,-5.92284 0.0339,-0.97488 0.0286,-1.93925 -0.0373,-2.87286 -0.1129,-1.59819 -2.19786,-1.70764 -3.97383,-6.06295 -0.67134,-1.64637 0.86218,-2.49698 -0.61247,-4.21605 -1.44752,-1.68743 -3.11961,-3.16913 -4.96987,-4.46765 -1.03597,-0.72705 -2.95251,-1.3142 -3.67969,-2.34272 -0.54972,-0.77752 -0.56938,-1.66573 -1.20912,-2.337784 -0.6005,-0.630825 -1.98175,-0.474049 -2.90292,-1.594002 -0.51558,-0.626842 0.0562,-1.490377 -0.54953,-2.221675 -0.5807,-0.701075 -1.52018,-0.890291 -1.80193,-1.799293 -0.29949,-0.966255 0.98338,-2.11863 0.35832,-4.001519 -0.92913,-2.798801 -3.94894,-4.664892 -3.93587,-6.491705 0.0111,-1.554279 1.505,-1.668536 1.5285,-2.891019 0.032,-1.664599 -2.73376,-5.399627 -5.40257,-7.065204 -2.06764,-1.290394 -6.34119,-2.787163 -8.17382,-4.365668 -0.80937,-0.697138 -0.37697,-2.947911 -2.70382,-5.689023 -1.71862,-2.024599 -3.84748,-2.594482 -6.31005,-2.135255 -0.87357,0.162905 -1.33669,-1.247553 -2.32658,-1.427178 -0.80991,-0.146967 -1.80795,0.889039 -2.46754,0.3886 -2.17833,-1.652724 -1.90382,-6.833392 -2.30287,-10.049759 -2.935214,1.119206 -9.739998,4.059501 -12.625276,5.662089 -1.853297,1.029389 -6.872655,5.586784 -6.553435,7.520181 0.228152,1.381833 3.912787,3.397072 3.731746,4.727538 -0.170881,1.255792 -1.759605,1.379232 -2.33689,2.353057 -0.72354,1.220543 -1.078867,2.730436 -1.462974,4.156159 -0.20576,0.763739 -1.634359,0.381309 -1.977547,1.734185 -0.625372,2.465274 -1.417251,4.841076 -1.055353,7.191196 0.246683,1.601923 2.189679,2.266602 2.28205,3.745396 0.112116,1.794881 0.468735,4.257592 0.131223,5.851988 -0.649589,3.068631 -2.30924,4.705009 -2.28464,4.684524"
     id="path14359-1-7-5-3-0-73-1-9-8-8-37-5"
     inkscape:connector-curvature="0"
     sodipodi:nodetypes="cssssssssssssssssssssssssssssssssssssssssssssssssssssssssssscsssssssssc" />
  <path
     style="fill:#000000;stroke:#000000;stroke-width:0.5;stroke-linecap:round;stroke-linejoin:round;stroke-miterlimit:4;stroke-dasharray:none;stroke-dashoffset:0;stroke-opacity:1;fill-opacity:1"
     d="m 48.213449,64.338592 -0.002,2.088471 h -1.690375 l 0.002,-2.088471 z"
     id="path14359-1-7-5-3-0-73-1-9-8-8-37-039"
     inkscape:connector-curvature="0"
     sodipodi:nodetypes="ccccc" />
  <path
     style="fill:#000000;fill-opacity:1;stroke:#000000;stroke-width:0.5;stroke-linecap:round;stroke-linejoin:round;stroke-miterlimit:4;stroke-dasharray:none;stroke-dashoffset:0;stroke-opacity:1"
     d="m 107.32551,221.20785 h -1.69038 l 0.002,-2.08847 h 1.69038 z"
     id="path14359-1-7-5-3-0-73-1-9-8-8-37-039-9"
     inkscape:connector-curvature="0"
     sodipodi:nodetypes="ccccc" />
  <path
     style="fill:none;stroke:#000000;stroke-width:2;stroke-linecap:round;stroke-linejoin:round;stroke-miterlimit:4;stroke-dasharray:none;stroke-opacity:1"
     d="m 71.479144,207.8392 -0.002,-0.0518"
     id="path14359-1-7-5-3-0-73-1-9-8-5"
     inkscape:connector-curvature="0"
     sodipodi:nodetypes="cc" />
  <path
     style="fill:#000000;fill-opacity:1;stroke:#000000;stroke-width:0.5;stroke-linecap:round;stroke-linejoin:round;stroke-miterlimit:4;stroke-dasharray:none;stroke-dashoffset:0;stroke-opacity:1"
     d="m 170.15481,85.31566 h -1.69038 l 0.002,-2.08847 h 1.69038 z"
     id="path14359-1-7-5-3-0-73-1-9-8-8-37-039-9-1"
     inkscape:connector-curvature="0"
     sodipodi:nodetypes="ccccc" />
  <text
     xml:space="preserve"
     style="font-style:italic;font-variant:normal;font-weight:normal;font-stretch:normal;font-size:6.66666651px;line-height:6.66666651px;font-family:Arial;-inkscape-font-specification:'Arial Italic';text-align:start;letter-spacing:0.75px;word-spacing:0px;text-anchor:start;fill:#000000;fill-opacity:1;stroke:none"
     x="180.65189"
     y="85.136879"
     id="text5907-5-0"
     transform="rotate(26.435293)"><tspan
       sodipodi:role="line"
       id="tspan5905-5-4"
       x="180.65189"
       y="85.136879">RIVER</tspan></text>
  <text
     xml:space="preserve"
     style="font-style:italic;font-variant:normal;font-weight:normal;font-stretch:normal;font-size:6.66666651px;line-height:6.66666651px;font-family:Arial;-inkscape-font-specification:'Arial Italic';text-align:start;letter-spacing:0.75px;word-spacing:0px;text-anchor:start;fill:#000000;fill-opacity:1;stroke:none"
     x="112.05146"
     y="-115.14201"
     id="text5907-5-0-6"
     transform="rotate(88.668692)"><tspan
       sodipodi:role="line"
       id="tspan5905-5-4-0"
       x="112.05146"
       y="-115.14201">KERN</tspan></text>
  <path
     style="fill:#000000;fill-opacity:1;stroke:#000000;stroke-width:0.5;stroke-linecap:round;stroke-linejoin:round;stroke-miterlimit:4;stroke-dasharray:none;stroke-dashoffset:0;stroke-opacity:1"
     d="m 90.639198,98.697738 -0.002,2.088472 h -1.690375 l 0.002,-2.088472 z"
     id="path14359-1-7-5-3-0-73-1-9-8-8-37-039-7"
     inkscape:connector-curvature="0"
     sodipodi:nodetypes="ccccc" />
  <g
     id="g950"
     sodipodi:insensitive="true">
    <text
       id="text5868"
       y="127.43331"
       x="9.4558334"
       style="font-style:normal;font-variant:normal;font-weight:normal;font-stretch:normal;font-size:5.33333349px;line-height:6.66666651px;font-family:Arial;-inkscape-font-specification:Arial;text-align:start;letter-spacing:1.07999992px;word-spacing:2.18999982px;text-anchor:start;fill:#000000;fill-opacity:1;stroke:none"
       xml:space="preserve"><tspan
         y="127.43331"
         x="9.4558334"
         id="tspan5866"
         sodipodi:role="line">MT. HOME</tspan><tspan
         id="tspan5870"
         y="134.09998"
         x="9.4558334"
         sodipodi:role="line">STATE</tspan><tspan
         id="tspan5872"
         y="140.76665"
         x="9.4558334"
         sodipodi:role="line">FOREST</tspan></text>
    <text
       id="text5868-7"
       y="233.799"
       x="49.738422"
       style="font-style:normal;font-variant:normal;font-weight:normal;font-stretch:normal;font-size:5.33333349px;line-height:7.33333349px;font-family:Arial;-inkscape-font-specification:Arial;text-align:start;letter-spacing:1.07999992px;word-spacing:2.18999982px;text-anchor:start;fill:#000000;fill-opacity:1;stroke:none"
       xml:space="preserve"><tspan
         id="tspan5872-6"
         y="233.799"
         x="49.738422"
         sodipodi:role="line">TULE RIVER INDIAN</tspan><tspan
         id="tspan5903"
         y="241.13232"
         x="49.738422"
         sodipodi:role="line">     RESERVATION</tspan></text>
    <text
       id="text5907"
       y="176.89267"
       x="9.267643"
       style="font-style:normal;font-variant:normal;font-weight:normal;font-stretch:normal;font-size:6.66666651px;line-height:6.66666651px;font-family:Arial;-inkscape-font-specification:Arial;text-align:start;letter-spacing:3.1500001px;word-spacing:0px;text-anchor:start;fill:#000000;fill-opacity:1;stroke:none"
       xml:space="preserve"><tspan
         y="176.89267"
         x="9.267643"
         id="tspan5905"
         sodipodi:role="line">SEQUOIA</tspan></text>
    <text
       id="text5907-5"
       y="195.11421"
       x="36.241932"
       style="font-style:normal;font-variant:normal;font-weight:normal;font-stretch:normal;font-size:6.66666651px;line-height:6.66666651px;font-family:Arial;-inkscape-font-specification:Arial;text-align:start;letter-spacing:3.8499999px;word-spacing:0px;text-anchor:start;fill:#000000;fill-opacity:1;stroke:none"
       xml:space="preserve"><tspan
         y="195.11421"
         x="36.241932"
         id="tspan5905-5"
         sodipodi:role="line">NATIONAL</tspan></text>
    <text
       id="text5907-5-8"
       y="208.2018"
       x="105.93793"
       style="font-style:normal;font-variant:normal;font-weight:normal;font-stretch:normal;font-size:6.66666651px;line-height:6.66666651px;font-family:Arial;-inkscape-font-specification:Arial;text-align:start;letter-spacing:3px;word-spacing:0px;text-anchor:start;fill:#000000;fill-opacity:1;stroke:none"
       xml:space="preserve"><tspan
         y="208.2018"
         x="105.93793"
         id="tspan5905-5-1"
         sodipodi:role="line">FOREST</tspan></text>
    <text
       transform="rotate(45.953534)"
       id="text5907-4"
       y="-30.816467"
       x="47.207661"
       style="font-style:normal;font-variant:normal;font-weight:normal;font-stretch:normal;font-size:6.66666651px;line-height:6.66666651px;font-family:Arial;-inkscape-font-specification:Arial;text-align:start;letter-spacing:3.1500001px;word-spacing:0px;text-anchor:start;fill:#000000;fill-opacity:1;stroke:none"
       xml:space="preserve"><tspan
         y="-30.816467"
         x="47.207661"
         id="tspan5905-7"
         sodipodi:role="line">SEQUOIA</tspan></text>
    <text
       transform="rotate(60.780258)"
       id="text5907-5-1"
       y="-59.787262"
       x="134.73492"
       style="font-style:normal;font-variant:normal;font-weight:normal;font-stretch:normal;font-size:6.66666651px;line-height:6.66666651px;font-family:Arial;-inkscape-font-specification:Arial;text-align:start;letter-spacing:3.8499999px;word-spacing:0px;text-anchor:start;fill:#000000;fill-opacity:1;stroke:none"
       xml:space="preserve"><tspan
         y="-59.787262"
         x="134.73492"
         id="tspan5905-5-3"
         sodipodi:role="line">NATIONAL</tspan></text>
    <text
       transform="rotate(-90.664533)"
       id="text5907-5-84"
       y="175.5728"
       x="-77.02034"
       style="font-style:normal;font-variant:normal;font-weight:normal;font-stretch:normal;font-size:6.66666651px;line-height:6.66666651px;font-family:Arial;-inkscape-font-specification:Arial;text-align:start;letter-spacing:3.55999994px;word-spacing:0px;text-anchor:start;fill:#000000;fill-opacity:1;stroke:none"
       xml:space="preserve"><tspan
         y="175.5728"
         x="-77.02034"
         id="tspan5905-5-8"
         sodipodi:role="line">RIVER</tspan></text>
    <text
       transform="rotate(60.290976)"
       id="text5907-5-0-3"
       y="-52.760029"
       x="99.770378"
       style="font-style:italic;font-variant:normal;font-weight:normal;font-stretch:normal;font-size:6.66666651px;line-height:6.66666651px;font-family:Arial;-inkscape-font-specification:'Arial Italic';text-align:start;letter-spacing:0.75px;word-spacing:0px;text-anchor:start;fill:#000000;fill-opacity:1;stroke:none"
       xml:space="preserve"><tspan
         y="-52.760029"
         x="99.770378"
         id="tspan5905-5-4-2"
         sodipodi:role="line">LITTLE</tspan></text>
    <text
       transform="rotate(57.444858)"
       id="text5907-5-1-6"
       y="-47.298367"
       x="268.71637"
       style="font-style:normal;font-variant:normal;font-weight:normal;font-stretch:normal;font-size:6.66666651px;line-height:6.66666651px;font-family:Arial;-inkscape-font-specification:Arial;text-align:start;letter-spacing:2.8900001px;word-spacing:0px;text-anchor:start;fill:#000000;fill-opacity:1;stroke:none"
       xml:space="preserve"><tspan
         y="-47.298367"
         x="268.71637"
         id="tspan5905-5-3-9"
         sodipodi:role="line">FOREST</tspan></text>
    <text
       transform="rotate(-69.288564)"
       id="text5907-5-1-6-4"
       y="249.86641"
       x="-115.28699"
       style="font-style:italic;font-variant:normal;font-weight:normal;font-stretch:normal;font-size:6.66666651px;line-height:6.66666651px;font-family:Arial;-inkscape-font-specification:'Arial Italic';text-align:start;letter-spacing:3.72000003px;word-spacing:0px;text-anchor:start;fill:#000000;fill-opacity:1;stroke:none"
       xml:space="preserve"><tspan
         y="249.86641"
         x="-115.28699"
         id="tspan5905-5-3-9-1"
         sodipodi:role="line">KERN</tspan></text>
    <text
       id="text6061"
       y="203.95369"
       x="75.300224"
       style="font-style:normal;font-variant:normal;font-weight:normal;font-stretch:normal;font-size:5.33333349px;line-height:6.66666651px;font-family:Arial;-inkscape-font-specification:Arial;text-align:start;letter-spacing:0.60000002px;word-spacing:0px;text-anchor:start;fill:#000000;fill-opacity:1;stroke:none"
       xml:space="preserve"><tspan
         y="203.95369"
         x="75.300224"
         id="tspan6059"
         sodipodi:role="line">190</tspan></text>
    <text
       id="text6061-8"
       y="213.87143"
       x="69.845825"
       style="font-style:normal;font-variant:normal;font-weight:normal;font-stretch:normal;font-size:5.33333349px;line-height:7.33333349px;font-family:Arial;-inkscape-font-specification:Arial;text-align:start;letter-spacing:0.60000002px;word-spacing:0px;text-anchor:start;fill:#000000;fill-opacity:1;stroke:none"
       xml:space="preserve"><tspan
         y="213.87143"
         x="69.845825"
         id="tspan6059-8"
         sodipodi:role="line">Camp</tspan><tspan
         id="tspan6089"
         y="221.20476"
         x="69.845825"
         sodipodi:role="line">Nelson</tspan></text>
    <text
       id="text6061-8-3"
       y="218.26443"
       x="104.87379"
       style="font-style:normal;font-variant:normal;font-weight:normal;font-stretch:normal;font-size:5.33333349px;line-height:7.33333349px;font-family:Arial;-inkscape-font-specification:Arial;text-align:start;letter-spacing:0.60000002px;word-spacing:0px;text-anchor:start;fill:#000000;fill-opacity:1;stroke:none"
       xml:space="preserve"><tspan
         id="tspan6089-1"
         y="218.26443"
         x="104.87379"
         sodipodi:role="line">Guard Station</tspan></text>
    <text
       id="text6061-8-3-5"
       y="68.722832"
       x="147.42178"
       style="font-style:normal;font-variant:normal;font-weight:normal;font-stretch:normal;font-size:5.33333349px;line-height:7.0666666px;font-family:Arial;-inkscape-font-specification:Arial;text-align:start;letter-spacing:0.60000002px;word-spacing:0px;text-anchor:start;fill:#000000;fill-opacity:1;stroke:none"
       xml:space="preserve"><tspan
         id="tspan6089-1-3"
         y="68.722832"
         x="147.42178"
         sodipodi:role="line">Kern</tspan><tspan
         id="tspan6132"
         y="75.789497"
         x="147.42178"
         sodipodi:role="line">Canyon</tspan><tspan
         id="tspan6134"
         y="82.856163"
         x="147.42178"
         sodipodi:role="line">Ranger</tspan><tspan
         id="tspan6136"
         y="89.922829"
         x="147.42178"
         sodipodi:role="line">Station</tspan></text>
    <text
       id="text6061-8-3-5-5"
       y="66.847725"
       x="21.711353"
       style="font-style:normal;font-variant:normal;font-weight:normal;font-stretch:normal;font-size:5.33333349px;line-height:7.0666666px;font-family:Arial;-inkscape-font-specification:Arial;text-align:start;letter-spacing:0.60000002px;word-spacing:0px;text-anchor:start;fill:#000000;fill-opacity:1;stroke:none"
       xml:space="preserve"><tspan
         id="tspan6136-5"
         y="66.847725"
         x="21.711353"
         sodipodi:role="line">Hockett</tspan><tspan
         id="tspan6187"
         y="73.914391"
         x="21.711353"
         sodipodi:role="line">Ranger Station</tspan></text>
    <text
       id="text6061-8-3-5-9"
       y="94.404488"
       x="44.013645"
       style="font-style:normal;font-variant:normal;font-weight:normal;font-stretch:normal;font-size:5.33333349px;line-height:7.0666666px;font-family:Arial;-inkscape-font-specification:Arial;text-align:start;letter-spacing:0.60000002px;word-spacing:0px;text-anchor:start;fill:#000000;fill-opacity:1;stroke:none"
       xml:space="preserve"><tspan
         id="tspan6136-1"
         y="94.404488"
         x="44.013645"
         sodipodi:role="line">Quinn</tspan><tspan
         id="tspan6212"
         y="101.47115"
         x="44.013645"
         sodipodi:role="line">Ranger Station</tspan></text>
    <text
       transform="rotate(-90)"
       id="text6231"
       y="204.83469"
       x="-137.80128"
       style="font-style:normal;font-variant:normal;font-weight:normal;font-stretch:normal;font-size:5.33333349px;line-height:6.66666651px;font-family:Arial;-inkscape-font-specification:Arial;text-align:start;letter-spacing:1.35000002px;word-spacing:0px;text-anchor:start;fill:#000000;fill-opacity:1;stroke:none"
       xml:space="preserve"><tspan
         y="204.83469"
         x="-137.80128"
         id="tspan6229"
         sodipodi:role="line">INYO NATIONAL FOREST</tspan></text>
    <text
       transform="rotate(44.325271)"
       id="text6061-8-3-55"
       y="-37.678879"
       x="123.03638"
       style="font-style:normal;font-variant:normal;font-weight:normal;font-stretch:normal;font-size:5.33333349px;line-height:7.33333349px;font-family:Arial;-inkscape-font-specification:Arial;text-align:start;letter-spacing:0.25px;word-spacing:0px;text-anchor:start;fill:#000000;fill-opacity:1;stroke:none"
       xml:space="preserve"><tspan
         id="tspan6089-1-4"
         y="-37.678879"
         x="123.03638"
         sodipodi:role="line">Forest</tspan></text>
    <text
       transform="rotate(52.278239)"
       id="text6061-8-3-55-1"
       y="-53.879719"
       x="145.92288"
       style="font-style:normal;font-variant:normal;font-weight:normal;font-stretch:normal;font-size:5.33333349px;line-height:7.33333349px;font-family:Arial;-inkscape-font-specification:Arial;text-align:start;letter-spacing:0.5px;word-spacing:0px;text-anchor:start;fill:#000000;fill-opacity:1;stroke:none"
       xml:space="preserve"><tspan
         id="tspan6089-1-4-8"
         y="-53.879719"
         x="145.92288"
         sodipodi:role="line">Boundary</tspan></text>
    <text
       transform="rotate(-97.170783)"
       id="text6061-8-3-55-8"
       y="67.924843"
       x="-98.849777"
       style="font-style:normal;font-variant:normal;font-weight:normal;font-stretch:normal;font-size:5.33333349px;line-height:7.33333349px;font-family:Arial;-inkscape-font-specification:Arial;text-align:start;letter-spacing:0.25px;word-spacing:0px;text-anchor:start;fill:#000000;fill-opacity:1;stroke:none"
       xml:space="preserve"><tspan
         id="tspan6089-1-4-3"
         y="67.924843"
         x="-98.849777"
         sodipodi:role="line">Forest</tspan></text>
    <text
       transform="rotate(-77.657687)"
       id="text6061-8-3-55-1-5"
       y="91.720978"
       x="-52.514629"
       style="font-style:normal;font-variant:normal;font-weight:normal;font-stretch:normal;font-size:5.33333349px;line-height:7.33333349px;font-family:Arial;-inkscape-font-specification:Arial;text-align:start;letter-spacing:0.5px;word-spacing:0px;text-anchor:start;fill:#000000;fill-opacity:1;stroke:none"
       xml:space="preserve"><tspan
         id="tspan6089-1-4-8-2"
         y="91.720978"
         x="-52.514629"
         sodipodi:role="line">Bdy.</tspan></text>
  </g>
</svg>
