<?xml version="1.0" encoding="UTF-8" standalone="no"?>
<!-- Created with Inkscape (http://www.inkscape.org/) -->

<svg
   xmlns:dc="http://purl.org/dc/elements/1.1/"
   xmlns:cc="http://creativecommons.org/ns#"
   xmlns:rdf="http://www.w3.org/1999/02/22-rdf-syntax-ns#"
   xmlns:svg="http://www.w3.org/2000/svg"
   xmlns="http://www.w3.org/2000/svg"
   xmlns:sodipodi="http://sodipodi.sourceforge.net/DTD/sodipodi-0.dtd"
   xmlns:inkscape="http://www.inkscape.org/namespaces/inkscape"
   version="1.1"
   id="svg20264"
   width="220.8"
   height="193.28"
   viewBox="0 0 220.8 193.28"
   sodipodi:docname="ec01jn91.159.svg"
   inkscape:version="0.92.2 5c3e80d, 2017-08-06">
  <metadata
     id="metadata20270">
    <rdf:RDF>
      <cc:Work
         rdf:about="">
        <dc:format>image/svg+xml</dc:format>
        <dc:type
           rdf:resource="http://purl.org/dc/dcmitype/StillImage" />
        <dc:title></dc:title>
      </cc:Work>
    </rdf:RDF>
  </metadata>
  <defs
     id="defs20268" />
  <sodipodi:namedview
     pagecolor="#ffffff"
     bordercolor="#666666"
     borderopacity="1"
     objecttolerance="10"
     gridtolerance="10"
     guidetolerance="10"
     inkscape:pageopacity="0"
     inkscape:pageshadow="2"
     inkscape:window-width="1280"
     inkscape:window-height="756"
     id="namedview20266"
     showgrid="false"
     inkscape:zoom="2.7407379"
     inkscape:cx="60.215069"
     inkscape:cy="93.194805"
     inkscape:window-x="0"
     inkscape:window-y="0"
     inkscape:window-maximized="0"
     inkscape:current-layer="svg20264" />
  <path
     style="fill:#c4c4c4;stroke:none;stroke-width:1;stroke-linecap:butt;stroke-linejoin:miter;stroke-miterlimit:4;stroke-dasharray:none;stroke-opacity:1;fill-opacity:1"
     d="M 104.35663,37.478739 103.9186,159.84584 73.251417,159.33714 74.416154,37.478739 Z"
     id="path14359-1-7-5-3-0-73-1-9-03-9"
     inkscape:connector-curvature="0"
     sodipodi:nodetypes="ccccc"
     inkscape:transform-center-x="0.03366111"
     inkscape:transform-center-y="-0.1641457" />
  <path
     style="fill:none;stroke:#000000;stroke-width:1;stroke-linecap:butt;stroke-linejoin:miter;stroke-miterlimit:4;stroke-dasharray:none;stroke-opacity:1"
     d="m 217.70282,4.1638544 -0.002,185.4823356 H 3.5322378 l 0.002,-185.4823356 z"
     id="path14359-1-7-5-3-0-73-1-9"
     inkscape:connector-curvature="0"
     sodipodi:nodetypes="ccccc"
     inkscape:transform-center-x="0.03366111"
     inkscape:transform-center-y="-0.1641457" />
  <path
     style="fill:none;stroke:#000000;stroke-width:1;stroke-linecap:butt;stroke-linejoin:miter;stroke-miterlimit:4;stroke-dasharray:none;stroke-opacity:1"
     d="m 22.065015,4.1720549 -2.98e-4,27.5882671 m -2.5e-5,2.348266 -5.1e-5,4.696524 m -2e-5,1.88882 -2.71e-4,25.116209 m -2.4e-5,2.246165 -3.9e-5,3.624492 m -1.8e-5,1.684624 -2.96e-4,27.464468 m -3.1e-5,2.85876 -4.4e-5,4.03288 m -2e-5,1.88883 -2.6e-4,24.14627 m -1.9e-5,1.73567 -5.2e-5,4.79863 m -2.1e-5,1.99092 -2.77e-4,25.67774 m -1.9e-5,1.78672 -4.4e-5,4.08394 m -1.9e-5,1.68462 -1.52e-4,14.16997"
     id="path14359-1-7-5-3-0-73-1-9-7"
     inkscape:connector-curvature="0"
     sodipodi:nodetypes="cccccccccccccccccccccc"
     inkscape:transform-center-x="0.03366111"
     inkscape:transform-center-y="-0.1641457" />
  <path
     style="fill:none;stroke:#000000;stroke-width:0.5;stroke-linecap:round;stroke-linejoin:round;stroke-miterlimit:4;stroke-dasharray:none;stroke-opacity:1"
     d="m 190.61212,25.765748 c 0.44885,0.07345 0.38088,0.589508 0.59454,0.94409 0.19926,0.330641 -0.25884,1.087279 0.67984,1.932794 0.9437,0.850032 1.17194,1.270558 1.23021,2.472326 0.0341,0.702864 1.14392,0.465433 1.17999,1.038641 0.0482,0.765507 0.35037,1.115074 0.52065,1.753847 0.20481,0.768347 0.6804,0.994963 1.41849,1.056259 2.1038,0.174716 2.27164,1.062972 3.06865,1.323777 1.22681,0.401451 1.33131,0.513198 2.05633,1.098692 0.48481,0.391514 0.89301,0.367539 1.26775,0.622333 0.35773,0.243222 0.69971,0.583716 1.11745,1.120303 0.24162,0.310365 0.6988,0.38775 0.93704,0.949814 0.29032,0.684909 0.46387,1.439726 0.95876,1.348398 l 6.3967,-1.18047 c 0.26301,-0.04854 0.36553,-0.704186 0.37776,-0.982199 0.0156,-0.354939 -0.025,-0.502669 -0.40444,-0.708076 -0.2567,-0.138963 0.18595,-0.452065 0.16741,-0.577918 -0.0446,-0.302762 -0.0401,-0.470512 0.0466,-0.639715 0.10641,-0.207716 0.13799,-0.493442 0.0995,-0.848511 0.0383,-0.348543 0.15871,-0.986984 0.37228,-1.104049 0.23015,-0.484483 0.18757,-0.856191 0.0102,-1.229166 -0.11597,-0.121213 -0.14349,-0.376999 -0.19517,-0.432242 -0.11493,-0.122801 -0.39427,-0.507243 -0.50984,-0.630715 -0.13844,-0.147878 -0.15278,-0.597249 -0.33953,-0.779423 L 196.92005,19.705197 196.94925,8.7172773 186.49173,8.5775861 c -0.32316,-0.00432 -0.24059,0.6378746 -0.23271,1.2550432 0.009,0.6992707 -0.13717,0.4139897 -0.14097,0.9676347 -0.004,0.512516 -0.0433,0.604284 -0.0249,1.09699 0.0335,0.902211 -0.61547,1.079709 -0.72266,1.490137 -0.0544,0.208489 0.0321,1.028639 0.0321,1.252858 0,0.427733 0.69161,0.844899 0.68936,1.489963 -0.004,1.15313 0.009,1.757676 0.0784,2.408078 0.0667,0.621655 1.70948,1.87179 2.10053,2.339026 0.41853,0.500056 0.0723,1.133007 0.57981,1.606479 0.41307,0.38541 0.18571,0.47259 0.3162,0.851875 0.18972,0.551445 -0.0973,1.149453 0.39097,1.478832 0.52051,0.351148 0.43328,0.849777 1.05426,0.951246 z"
     id="path14359-1-7-5-3-0-73-1-9-4"
     inkscape:connector-curvature="0"
     sodipodi:nodetypes="sssssssssssssssssscccccccssssssssssssss"
     inkscape:transform-center-x="0.049110623"
     inkscape:transform-center-y="-0.041211926" />
  <path
     style="fill:none;stroke:#000000;stroke-width:1;stroke-linecap:butt;stroke-linejoin:miter;stroke-miterlimit:4;stroke-dasharray:none;stroke-opacity:1"
     d="m 215.87002,43.390886 0.002,-36.9382258 -32.46742,0 -0.002,36.9382258 z"
     id="path14359-1-7-5-3-0-73-1-9-8"
     inkscape:connector-curvature="0"
     sodipodi:nodetypes="ccccc" />
  <path
     style="fill:#000000;stroke:#000000;stroke-width:0.5;stroke-linecap:round;stroke-linejoin:round;stroke-miterlimit:4;stroke-dasharray:none;stroke-opacity:1;fill-opacity:1"
     d="m 194.45268,24.91458 0.002,-1.97326 h -1.80973 l -0.002,1.97326 z"
     id="path14359-1-7-5-3-0-73-1-9-8-9"
     inkscape:connector-curvature="0"
     sodipodi:nodetypes="ccccc" />
  <path
     style="fill:none;stroke:#000000;stroke-width:0.5;stroke-linecap:butt;stroke-linejoin:miter;stroke-miterlimit:4;stroke-dasharray:none;stroke-opacity:1"
     d="M 74.120036,4.1863243 72.669794,189.61304"
     id="path14359-1-7-5-3-0-73-1-9-3"
     inkscape:connector-curvature="0"
     sodipodi:nodetypes="cc"
     inkscape:transform-center-x="0.03366111"
     inkscape:transform-center-y="-0.1641457" />
  <path
     style="fill:none;stroke:#000000;stroke-width:0.5;stroke-linecap:butt;stroke-linejoin:miter;stroke-miterlimit:4;stroke-dasharray:none;stroke-opacity:1"
     d="m 197.62307,4.1802657 -0.0268,2.1758282 m -0.45775,37.1465951 -1.79739,145.858451"
     id="path14359-1-7-5-3-0-73-1-9-80"
     inkscape:connector-curvature="0"
     sodipodi:nodetypes="cccc"
     inkscape:transform-center-x="0.03366111"
     inkscape:transform-center-y="-0.1641457" />
  <path
     style="fill:none;stroke:#000000;stroke-width:0.5;stroke-linecap:butt;stroke-linejoin:miter;stroke-miterlimit:4;stroke-dasharray:none;stroke-opacity:1"
     d="M 3.4168083,35.659108 183.52608,38.418372 m 32.36421,0.495817 1.89027,0.02896"
     id="path14359-1-7-5-3-0-73-1-9-2"
     inkscape:connector-curvature="0"
     sodipodi:nodetypes="cccc"
     inkscape:transform-center-x="0.16414611"
     inkscape:transform-center-y="0.033661301" />
  <path
     style="fill:none;stroke:#000000;stroke-width:0.5;stroke-linecap:butt;stroke-linejoin:miter;stroke-miterlimit:4;stroke-dasharray:none;stroke-opacity:1"
     d="M 3.5809103,158.62621 217.67116,161.47265"
     id="path14359-1-7-5-3-0-73-1-9-48"
     inkscape:connector-curvature="0"
     sodipodi:nodetypes="cc"
     inkscape:transform-center-x="0.16414611"
     inkscape:transform-center-y="0.033661301" />
  <path
     style="fill:none;stroke:#000000;stroke-width:0.5;stroke-linecap:butt;stroke-linejoin:round;stroke-miterlimit:4;stroke-dasharray:none;stroke-opacity:1"
     d="m 136.08023,4.254792 c 0.0931,0.612503 0.13201,1.2709267 0.14264,1.9581917 m -0.066,4.7253143 c 0.0283,2.054982 1.40174,4.748566 2.58142,7.039901 m 0.38382,0.785094 c 0.0968,0.209273 0.18978,0.42006 0.27867,0.632426 m 0.30465,0.779592 c 0.0762,0.21006 0.14815,0.421681 0.21557,0.634923 m 0.24198,0.850768 c 0.0645,0.255412 0.12222,0.513162 0.17267,0.773345 m 0.16382,1.070534 c 0.18361,1.638745 -0.03,3.324679 0.28221,5.069374 0.2195,1.226653 1.94306,1.379259 2.47107,5.635169 m 0.32434,1.297801 c 0.11106,0.3054 0.23934,0.601109 0.37249,0.893072 m 0.36178,0.782401 c 0.0914,0.200922 0.36549,0.731223 0.46105,1.06424 m 0.19267,0.9782 c 0.0218,0.170698 0.0415,0.345364 0.059,0.523104 m 0.0624,0.800518 c 0.11588,1.995243 -0.0477,4.195558 -0.65917,5.476166 -1.07767,2.256881 -1.02276,6.802965 1.27858,9.392809 m 0.72577,0.874383 c 0.1332,0.173872 0.25957,0.348152 0.37874,0.523573 m 0.43108,0.697873 c 0.11771,0.212127 0.22475,0.427179 0.32054,0.646358 m 0.30032,0.826536 c 0.051,0.174989 0.0951,0.353189 0.13206,0.535122 m 0.13129,1.067117 c 0.12193,2.575857 1.4959,3.217114 1.51253,4.519579 0.0221,1.730774 -2.49925,3.156331 -2.49958,4.786404 -3.3e-4,1.58934 1.31389,2.319889 1.13438,4.56935 m -0.059,1.02815 c -0.009,0.244314 -0.0145,0.487356 -0.0176,0.729429 m -0.003,0.643065 c 7.3e-4,0.219515 0.003,0.438448 0.006,0.657028 m 0.0138,0.771323 c 0.004,0.224217 0.009,0.44835 0.0133,0.672648 m 0.0114,0.780383 c 0.0125,1.332873 -1.00883,2.806868 -2.21919,4.608871 -0.88344,1.315268 0.0316,1.966281 -0.49311,3.020769 -0.80152,1.610652 -1.42307,3.205779 -2.17084,4.658078 m -0.37715,0.711205 c -0.0994,0.182063 -0.20062,0.363387 -0.30368,0.543961 m -0.36786,0.628273 c -0.12552,0.209035 -0.2536,0.41703 -0.38425,0.623971 m -0.45108,0.694781 c -0.11479,0.171992 -0.23143,0.343226 -0.34994,0.513692 m -0.58339,0.812376 c -0.49745,0.670881 -1.22018,1.506057 -1.86156,2.441745 m -1.42742,3.768942 c 0.0218,1.42666 0.16005,2.92798 0.0136,3.94038 -0.18384,1.27089 -0.61787,1.95097 -0.62703,2.80391 -0.007,0.61349 0.12756,1.74264 -0.14823,2.31167 -0.37621,0.77624 -1.12392,0.68457 -1.13652,1.98871 m 0.19933,1.03288 c 0.0758,0.2092 0.16771,0.41704 0.26584,0.62556 m 0.40791,0.85509 c 0.0827,0.18279 0.1601,0.36809 0.22615,0.55718 m 0.17821,0.89553 c 0.0188,0.20904 0.0267,0.41972 0.0317,0.62753 m 0.0268,0.8488 c 0.043,0.63329 -0.89143,0.95686 -0.9476,1.92177 -0.0705,1.21035 0.78667,1.15225 0.79066,1.71023 0.003,0.35224 -0.79084,0.54908 -0.61734,1.65758 0.1173,0.74937 0.99434,0.89307 1.15447,1.83056 0.13598,0.79609 -0.53019,1.33216 -0.48644,1.90248 0.061,0.79497 0.84296,1.59664 1.26306,2.73129 m 0.50732,1.45245 c 0.0884,0.26123 0.18201,0.54086 0.27794,0.83096 m 0.25844,0.79011 c 0.0897,0.27737 0.17927,0.55765 0.26646,0.83473 m 0.25475,0.82355 c 0.0763,0.25147 0.14841,0.49446 0.21451,0.7237 m 0.31753,1.20681 c 0.17844,0.81333 0.0524,1.75077 0.44947,2.73565 0.36876,0.91457 1.69834,1.27849 2.21068,2.57857 0.4395,1.11523 0.0257,1.90132 0.46239,2.72006 0.62048,1.16332 1.64644,1.20532 2.13438,3.11395 m 0.22905,0.94057 c 0.0531,0.22897 0.10551,0.463 0.15651,0.69988 m 0.14245,0.68836 c 0.0369,0.18594 0.0725,0.37231 0.10662,0.55808 m 0.11029,0.63317 c 0.045,0.27358 0.0856,0.54321 0.12092,0.80544 m 0.10186,0.90606 c 0.15241,1.75513 -0.14714,3.4163 -0.0226,5.21061 0.044,0.63402 0.46632,1.39575 0.50193,2.03014 0.0918,1.63519 0.14455,3.26768 0.10094,4.87724 m 0.41563,0.87578 c 0.014,0.24418 0.0234,0.49271 0.0293,0.74297 m 0.009,0.69851 c 4e-4,0.20542 -8.3e-4,0.41035 -0.003,0.61335 m -0.0119,0.74259 c -0.004,0.20474 -0.008,0.40541 -0.0123,0.60037 m -0.0125,0.80293 c -0.0151,1.92135 -1.96547,2.99419 -1.75063,5.22222"
     id="path14359-1-7-5-3-0-73-1-9-39"
     inkscape:connector-curvature="0"
     sodipodi:nodetypes="cccccccccccsccccccccsccccccccssccccccccssccccccccccsssccccccccsssssccccccccsssccccccccssccccccccc"
     inkscape:transform-center-x="0.03366111"
     inkscape:transform-center-y="-0.1641457" />
  <path
     style="fill:none;stroke:#000000;stroke-width:0.5;stroke-linecap:butt;stroke-linejoin:round;stroke-miterlimit:4;stroke-dasharray:none;stroke-opacity:1"
     d="m 200.45766,50.914882 c 0.53926,2.305861 4.23547,3.394135 6.86284,5.267048 m 0.5485,0.451909 c 0.19161,0.179754 0.37508,0.375572 0.54958,0.58334 m 0.40436,0.524033 c 0.17318,0.243685 0.33498,0.497554 0.48431,0.756337 m 0.37576,0.714468 c 0.11139,0.233302 0.21223,0.466699 0.30176,0.696529 m 0.25123,0.733257 c 0.30417,1.034539 1.63627,2.791759 2.21948,5.094952 0.47534,1.877234 0.002,4.498652 -0.47673,6.035248 m -0.4867,1.477192 c -0.0923,0.280865 -0.19032,0.582757 -0.28913,0.895027 m -0.26264,0.852407 c -0.0741,0.24808 -0.14607,0.496682 -0.21363,0.740952 m -0.23891,0.931438 c -0.0622,0.268272 -0.11396,0.521217 -0.15131,0.750541 m 0.0747,1.169284 c 0.44589,0.322435 0.42353,0.70555 0.4414,1.166301 0.0475,1.225472 -1.27881,1.90289 -1.30432,5.51198 -0.0196,2.779162 2.22387,3.669435 1.84869,8.586807 m 0.46792,1.438983 c 0.12352,0.252141 0.25444,0.524637 0.3701,0.825747 m 0.25732,0.881583 c 0.0384,0.195892 0.0662,0.402509 0.0797,0.621195 m 0.0837,0.918108 c 0.0446,0.326074 0.10856,0.630511 0.2079,0.916891 m 0.58749,1.017151 c 0.38526,0.4394 1.37714,1.69236 1.33745,3.74767 -0.0196,1.01758 -0.40883,2.14324 -0.36059,3.26795 0.0441,1.02834 0.46773,1.72054 0.4779,3.09051 0.008,1.05843 -0.34804,2.19273 -0.49886,3.09923 m -0.17993,1.34512 c -0.0272,0.28267 -0.0468,0.56504 -0.0567,0.8459 m 0.003,0.90066 c 0.0118,0.25423 0.0334,0.50607 0.0663,0.75458 m 0.13759,0.74861 c 0.0611,0.25549 0.13665,0.50614 0.22844,0.75082 m 0.5774,1.13115 c 0.34703,0.5192 0.62882,0.80841 0.61702,1.8441 -0.015,1.31891 1.24359,2.16094 1.95007,2.85814"
     id="path14359-1-7-5-3-0-73-1-9-0"
     inkscape:connector-curvature="0"
     sodipodi:nodetypes="cccccccccsccccccccssccccccccsssccccccccsc"
     inkscape:transform-center-x="0.03366111"
     inkscape:transform-center-y="-0.1641457" />
  <path
     style="fill:none;stroke:#000000;stroke-width:0.5;stroke-linecap:butt;stroke-linejoin:round;stroke-miterlimit:4;stroke-dasharray:none;stroke-opacity:1"
     d="m 188.69831,75.853596 c 0.22715,1.33727 1.14621,3.293871 1.14784,5.382258 0.001,1.900638 0.77932,2.575491 0.66602,5.732501 m -0.28847,1.210394 c -0.0909,0.212801 -0.20018,0.422945 -0.32385,0.629982 m -0.48765,0.714928 c -0.15312,0.201095 -0.31592,0.398483 -0.48414,0.591702 m -0.58102,0.634306 c -0.17404,0.182235 -0.3487,0.359834 -0.51982,0.532341 m -0.53854,0.542392 c -3.0734,3.120717 -6.46436,5.719745 -9.66076,9.15347 m -0.73092,0.95855 c -0.12638,0.2024 -0.24279,0.41236 -0.34972,0.62877 m -0.32922,0.76305 c -0.0897,0.2396 -0.16963,0.48485 -0.24044,0.7345 m -0.27228,1.2298 c -0.0388,0.23611 -0.0709,0.47417 -0.0966,0.71325 m -0.0756,1.13623 c -0.0537,1.95993 0.4759,3.84839 0.48103,5.79776 0.003,1.21915 -0.23444,1.90719 -0.30976,2.8776 -0.0928,1.19594 0.19416,2.38186 0.19844,3.36872 0.001,0.28987 0.0242,0.57695 0.0636,0.86036 m 0.18171,0.91672 c 0.0567,0.22509 0.12058,0.44707 0.18873,0.66546 m 0.24794,0.73933 c 0.0862,0.2436 0.17363,0.48161 0.25773,0.71328 m 0.20956,0.59399 c 0.095,0.2718 0.18843,0.53489 0.29338,0.79216 m 0.77866,1.38133 c 1.14063,1.46391 2.83441,3.39058 4.40673,4.97175 1.69622,1.70578 2.40768,2.1429 4.50148,4.26398 m 0.63636,0.68326 c 0.18763,0.20571 0.38956,0.42618 0.60593,0.652 m 0.57347,0.57245 c 0.13406,0.12711 0.27265,0.25342 0.41579,0.37733 m 0.6308,0.50378 c 0.16157,0.11797 0.32806,0.23089 0.4995,0.33696 m 0.99008,0.50192 c 3.52233,1.39212 6.34562,6.31861 9.8947,9.63116 m 0.9254,0.90649 c 0.19245,0.19775 0.38725,0.40405 0.58068,0.61656 m 0.50667,0.57579 c 0.16088,0.18952 0.31837,0.38204 0.47015,0.5761 m 0.50991,0.69142 c 0.10509,0.15222 0.20505,0.30433 0.29881,0.45561 m 0.39759,0.71654 c 0.54713,1.13042 2.02545,2.72104 3.56308,4.29549 1.64701,1.68644 3.66291,2.62747 3.33631,5.33994 m -0.13208,0.80037 c -0.0552,0.26822 -0.11982,0.53419 -0.19009,0.79887 m -0.30624,1.06769 c -0.0749,0.25063 -0.15032,0.50127 -0.22293,0.75275 m -0.22742,0.84347 c -0.0497,0.20286 -0.0953,0.40686 -0.13521,0.6124 m -0.11053,0.70181 c -0.078,0.66006 -0.19982,1.37572 -0.33822,2.12786 m -0.95655,7.55772 c 0.0272,0.91296 0.0989,1.93861 0.0946,2.70828 -0.009,1.55485 -1.17457,0.91856 -1.42711,3.90408 -0.0592,0.6998 -0.42415,1.47303 -0.14646,2.14532 0.35933,0.86992 0.37579,1.85827 0.24767,3.04863"
     id="path14359-1-7-5-3-0-73-1-9-0-5"
     inkscape:connector-curvature="0"
     sodipodi:nodetypes="csccccccccccccccccsssccccccccsccccccccccccccccsccccccccccsssc"
     inkscape:transform-center-x="0.03366111"
     inkscape:transform-center-y="-0.1641457" />
  <path
     style="fill:none;stroke:#000000;stroke-width:0.5;stroke-linecap:butt;stroke-linejoin:round;stroke-miterlimit:4;stroke-dasharray:none;stroke-opacity:1"
     d="m 92.338693,4.2792043 c 0.43392,0.6043764 0.693682,1.2072698 0.846244,1.8475951 m 0.195745,4.7801346 c 0.01109,0.177456 0.02624,0.370925 0.04588,0.573606 m 0.07185,0.621612 c 0.03459,0.256038 0.07619,0.515628 0.125522,0.767165 m 0.182481,0.774637 c 0.05409,0.200351 0.109722,0.38974 0.162364,0.56515 m 0.247228,0.877185 c 0.201626,0.995837 0.887515,2.147512 0.944263,3.160984 0.05248,0.937272 -0.510336,1.735287 -0.658165,2.682636 m -0.437007,1.952625 c -0.0089,0.1648 -0.01427,0.329924 -0.01652,0.495262 m 0.02435,1.099804 c 0.012,0.228821 0.02757,0.457585 0.04527,0.686002 m 0.104932,1.195504 c 0.01629,0.177446 0.03234,0.354367 0.04748,0.530621 m 0.08867,1.404851 c 0.01715,0.568212 0.124938,1.454276 -0.121001,1.936352 -0.347582,0.68131 -0.346568,1.290046 -0.361972,1.981324 -0.02828,1.269283 0.909561,2.077124 0.754732,3.635999 -0.155901,1.569658 -0.620077,3.107747 -0.950471,4.712081 m -0.276947,1.099338 c -0.05878,0.198482 -0.121759,0.39573 -0.188436,0.591806 m -0.41264,1.095282 c -0.08043,0.195659 -0.163745,0.390216 -0.249427,0.583735 m -0.377411,0.817417 c -0.103849,0.2168 -0.2098,0.432375 -0.31709,0.646818 m -0.496745,0.97213 c -0.572933,1.104246 -1.294577,1.537053 -1.389569,2.773466 -0.147534,1.920312 -0.02489,4.268672 -0.09928,5.916666 m 0.03418,1.515736 c 0.0147,0.209327 0.03266,0.423392 0.05308,0.640516 m 0.20543,1.807448 c 0.03868,0.306697 0.07792,0.610494 0.115592,0.906926 m 0.178214,1.526876 c 0.02499,0.256042 0.04447,0.496352 0.05627,0.716382 m -0.116156,1.251597 c -0.709009,1.1908 -1.320912,2.427138 -2.104558,3.48649 -0.517723,0.699871 -1.21992,1.196411 -1.721408,1.878324 -0.611097,0.830955 -1.096777,1.152646 -2.043898,1.25084 -0.762657,0.07907 -1.420758,0.643384 -1.488658,1.692978 -0.05874,0.907999 -0.11134,1.81621 -0.157382,2.724655 m 0.05557,1.340292 c 0.01931,0.164753 0.04224,0.329515 0.06767,0.494286 m 0.142287,0.819936 c 0.04115,0.220528 0.08353,0.441071 0.124512,0.66163 m 0.151053,0.887702 c 0.0309,0.209737 0.05735,0.419488 0.07709,0.629254 m 0.0361,0.933861 c -0.05405,2.191427 -2.506259,4.210671 -4.665796,5.840211 -1.487153,1.122174 -2.886772,1.830008 -3.061951,3.210658 m -0.0858,1.531937 c -7.38e-4,0.223605 0.0023,0.447929 0.0076,0.670527 m 0.04919,1.306355 c 0.01069,0.245061 0.02061,0.480675 0.02736,0.702712 m 0.06534,1.547483 c 0.0045,0.213657 0.0063,0.426481 0.0045,0.638186 m -0.05688,1.193474 c -0.157146,1.682157 1.302109,3.464166 1.178383,5.152346 -0.127385,1.73809 0.102347,3.47955 0.01185,5.22473 -0.0377,0.72695 -0.508355,1.40606 -0.538857,2.13437 -0.04951,1.18213 1.072332,1.63794 1.086359,2.87096 0.0046,0.40774 -0.04243,0.81752 -0.118508,1.24425 m -0.187419,0.89478 c -0.03924,0.17062 -0.08038,0.34503 -0.122246,0.52399 m -0.220134,0.98573 c -0.0415,0.20081 -0.0816,0.40774 -0.119051,0.62163 m -0.121949,0.807 c -0.01909,0.15136 -0.03641,0.30611 -0.05161,0.46447 m -0.05672,0.82207 c -0.01148,0.27295 -0.01609,0.55608 -0.01242,0.85031 0.02836,2.27805 1.475721,6.42324 1.309917,8.67463 -0.119766,1.62626 0.009,3.05361 -0.09846,4.66969 m -0.0363,1.16592 c -1e-5,0.18613 0.0024,0.37239 0.0066,0.55873 m 0.07641,1.70675 c 0.01175,0.20268 0.02383,0.40531 0.03556,0.6078 m 0.07259,1.57794 c 0.0063,0.23943 0.0097,0.47847 0.009,0.71703 m -0.02646,0.9342 c -0.09793,1.73322 -0.290445,3.70568 -0.331561,5.58602 -0.03933,1.79867 1.312945,2.29207 1.293979,3.4395 m 0.03569,1.19295 c 0.01166,0.17573 0.02538,0.35165 0.04019,0.52765 m 0.0807,0.90511 c 0.01711,0.19283 0.03347,0.38552 0.04779,0.57794 m 0.04517,0.82732 c 0.0053,0.17569 0.0072,0.35098 0.0049,0.52574 m -0.05861,0.92176 c -0.173058,1.43628 -3.891822,3.92649 -4.803205,5.8207"
     id="path14359-1-7-5-3-0-73-1-9-0-2"
     inkscape:connector-curvature="0"
     sodipodi:nodetypes="cccccccccsccccccccsssccccccccsccccccccssssccccccccsccccccccssssccccccccssccccccccsccccccccc"
     inkscape:transform-center-x="0.03366111"
     inkscape:transform-center-y="-0.1641457" />
  <path
     style="fill:none;stroke:#000000;stroke-width:0.5;stroke-linecap:butt;stroke-linejoin:round;stroke-miterlimit:4;stroke-dasharray:none;stroke-opacity:1"
     d="m 3.6532974,78.23079 c 2.6290189,1.562377 4.7456479,3.018324 5.8332778,6.186342 m 0.5823558,1.198279 c 0.06376,0.176576 0.124777,0.354856 0.182928,0.534391 m 0.288958,0.992336 c 0.06247,0.241077 0.119589,0.482917 0.171092,0.724489 m 0.170368,0.929037 c 0.04047,0.264351 0.07367,0.526755 0.09924,0.78582 m 0.06203,1.344623 c -0.01947,1.733749 0.424101,4.100682 0.353002,6.171541 -0.07917,2.305928 -2.7419743,3.375502 -2.7927674,5.929792 m -0.043964,1.46797 c -0.00753,0.21686 -0.01507,0.43467 -0.021987,0.65298 m -0.022161,0.83893 c -0.00385,0.19634 -0.00655,0.39262 -0.00764,0.58851 m 0.011778,1.0328 c 0.00746,0.24015 0.018643,0.47881 0.034414,0.71535 m 0.071632,0.78702 c 0.1496716,1.27244 -0.5023925,2.78192 0.1523022,4.00238 1.2710372,2.36942 3.2457882,4.5644 4.9284322,6.06039 m 0.883448,0.89435 c 0.151882,0.17774 0.286356,0.35105 0.406904,0.52026 m 0.539642,0.88296 c 0.127151,0.2426 0.235769,0.4767 0.339095,0.70356 m 0.418555,0.87576 c 0.114367,0.21248 0.241501,0.41928 0.395163,0.62173 m 0.7412,0.75233 c 2.082612,1.65764 0.595491,3.9197 1.859683,6.04392 1.138436,1.91291 2.429842,0.19195 3.985621,4.59643 m 0.28617,0.98837 c 0.05093,0.21411 0.09649,0.42924 0.139314,0.64472 m 0.174727,0.92546 c 0.05523,0.29441 0.112355,0.58769 0.178111,0.87812 m 0.222413,0.83739 c 0.07307,0.23289 0.156397,0.46273 0.253709,0.68858 m 0.351151,0.6872 c 1.306442,2.17201 1.066527,4.73584 1.570579,7.06973"
     id="path14359-1-7-5-3-0-73-1-9-0-27"
     inkscape:connector-curvature="0"
     sodipodi:nodetypes="cccccccccsccccccccsccccccccsccccccccc"
     inkscape:transform-center-x="0.03366111"
     inkscape:transform-center-y="-0.1641457" />
  <path
     style="fill:none;stroke:#000000;stroke-width:0.5;stroke-linecap:butt;stroke-linejoin:round;stroke-miterlimit:4;stroke-dasharray:none;stroke-opacity:1"
     d="m 3.6399185,157.6788 c 0.8558015,1.09352 2.2457455,2.69006 4.0141775,2.91482 0.1858592,0.0236 0.3742097,0.0426 0.5638962,0.0569 m 0.8282292,0.0319 c 0.2746848,4.7e-4 0.5486701,-0.009 0.8185466,-0.0292 m 0.779194,-0.0898 c 0.165022,-0.0262 0.326992,-0.0568 0.485018,-0.0919 m 0.700539,-0.19516 c 0.254666,-0.0872 0.49265,-0.18909 0.708945,-0.30604 m 0.748161,-0.5606 c 0.672126,-0.71983 1.192283,-1.92105 2.337801,-2.47346 0.690763,-0.3331 1.862695,-0.23995 2.713776,-0.20207 2.186277,0.0973 6.880017,2.39523 8.81263,4.58623 m 0.765845,0.70134 c 0.171194,0.12171 0.341855,0.22105 0.51197,0.30152 m 1.14369,0.29691 c 0.251414,0.0197 0.501536,0.0148 0.750324,-0.003 m 0.887882,-0.0986 c 0.166599,-0.0214 0.33256,-0.0421 0.49787,-0.0586 m 0.915064,-0.0232 c 0.989671,0.0752 2.447274,2.649 4.858831,3.92964 1.861876,0.98874 3.615018,2.09382 5.058473,2.03889 0.570435,-0.0217 0.928083,-0.32915 1.370918,-0.62583 m 1.017892,-0.61265 c 0.187714,-0.10362 0.379664,-0.20595 0.57479,-0.30804 m 0.695176,-0.35861 c 0.17747,-0.0909 0.356451,-0.18264 0.536215,-0.27589 m 0.801458,-0.42675 c 0.162373,-0.0894 0.324506,-0.18095 0.485871,-0.27513 m 0.770768,-0.4775 c 0.180821,-0.1195 0.359504,-0.24364 0.535249,-0.37321 1.028105,-0.75799 3.264682,-0.84196 5.267619,-0.24779 1.050952,0.31177 1.913604,1.09227 2.899869,1.59651 1.124518,0.57491 2.364869,0.8804 3.440977,1.29698 m 1.331223,0.47497 c 0.223477,0.0739 0.445837,0.14499 0.667772,0.21443 m 0.738607,0.22677 c 0.195204,0.0591 0.390674,0.11794 0.586884,0.17725 m 0.889423,0.27275 c 0.220192,0.069 0.442146,0.14002 0.666498,0.2141 m 0.732177,0.25067 c 1.32431,0.47092 4.392875,-3.94653 5.832949,-3.90195 1.379075,0.0427 2.094115,1.97861 4.190659,2.03496 1.465936,0.0394 2.749449,-0.5692 4.247663,-1.25197 m 0.980982,-0.36736 c 0.174151,-0.0497 0.343879,-0.0891 0.509866,-0.11847 m 1.095455,-0.0485 c 0.208907,0.0203 0.413734,0.0579 0.616237,0.11204 m 0.869897,0.33611 c 0.189807,0.0953 0.379813,0.20441 0.571532,0.32665 m 0.865982,0.62551 c 1.204048,0.95945 2.393262,2.31192 3.715088,3.01683 0.973255,0.51903 2.041228,0.52722 3.12328,0.58566 2.963088,0.16003 2.765598,-0.73975 3.826416,-0.62763 0.882864,0.0933 1.362584,0.8256 2.056313,1.38664 0.698646,0.56502 0.398079,1.29603 1.022394,1.79088 m 1.11792,0.87304 c 0.21696,0.16176 0.43323,0.31547 0.65063,0.45728 m 0.71381,0.41456 c 0.20355,0.10219 0.40729,0.19977 0.61144,0.2941 m 0.92793,0.37009 c 0.23068,0.0814 0.46309,0.15824 0.69651,0.23612 m 1.38881,0.51566 c 2.6323,1.16037 4.94151,2.3464 7.1736,3.61828 1.07635,0.61332 2.53133,0.45306 3.72337,0.40707 0.94787,-0.0366 1.23564,0.38475 1.64674,0.68957 m 0.63908,0.46764 c 0.16247,0.11727 0.32485,0.2332 0.48747,0.34797 m 0.68752,0.47725 c 0.17565,0.11986 0.3521,0.23869 0.52975,0.35669 m 0.58895,0.38527 c 0.17031,0.10972 0.34209,0.21892 0.51567,0.32779 m 0.9082,0.55659 c 1.33446,0.79931 3.62373,0.2138 5.76153,2.03026 1.65026,1.4022 2.79533,3.52197 5.19701,3.72767"
     id="path14359-1-7-5-3-0-73-1-9-0-3"
     inkscape:connector-curvature="0"
     sodipodi:nodetypes="csccccccccssccccccccssccccccccsssccccccccssccccccccssssccccccccssccccccccsc"
     inkscape:transform-center-x="0.03366111"
     inkscape:transform-center-y="-0.1641457" />
  <path
     style="fill:none;stroke:#000000;stroke-width:0.5;stroke-linecap:butt;stroke-linejoin:round;stroke-miterlimit:4;stroke-dasharray:none;stroke-opacity:1"
     d="m 3.4840378,153.52174 c 0.7410025,0.0776 1.5388597,0.17914 2.3880683,0.30067 m 1.6685801,0.25313 c 0.6533606,0.10406 1.3313007,0.21711 2.0317957,0.33771 m 4.0341571,0.72436 c 0.759506,0.14028 1.537097,0.28527 2.330876,0.43363 m 1.60978,0.30103 c 0.934092,0.17459 1.887805,0.35241 2.858275,0.53143 m 1.379935,0.19849 c 0.418474,0.0757 0.983931,0.18733 1.57365,0.30441 m 4.044406,0.74676 c 0.744288,0.12899 1.494202,0.25802 2.248558,0.38715 m 1.010403,0.1726 c 0.733119,0.12498 1.4699,0.25008 2.209275,0.37535 m 1.513453,0.25613 c 0.713388,0.12062 2.976041,0.59088 3.691926,0.71193 m 5.294816,0.81744 c 0.766152,0.13253 1.52969,0.26551 2.289428,0.39899 m 1.395884,0.20898 c 0.356978,0.0636 0.782751,0.15236 1.233026,0.25037 m 1.262722,0.28014 c 0.571961,0.12717 1.118972,0.24637 1.554789,0.32688 m 1.516366,0.19908 c 0.857251,0.16229 1.704001,0.32553 2.538285,0.48982 m 4.62876,0.95314 c 0.918894,0.19878 1.897747,0.26365 2.867694,0.35972 m 2.854128,0.5617 c 0.670273,0.25075 1.341012,0.50154 2.012194,0.75239 m 1.691113,0.63185 c 1.009906,0.37722 2.020772,0.75459 3.032521,1.13218 m 1.466978,0.54741 c 1.128521,0.42105 2.258093,0.8424 3.388613,1.2641 m 4.691423,1.7502 c 0.827971,0.30898 1.656371,0.61819 2.485158,0.92766 m 1.734943,0.64802 c 1.048445,0.39171 2.097463,0.78387 3.146972,1.17651 m 1.707165,0.63898 c 1.146593,0.42935 2.293718,0.85932 3.441265,1.28997 m 1.613597,0.60591 c 0.956797,0.35949 1.913852,0.71948 2.871105,1.07999 m 5.438759,2.05365 c 0.90343,0.34209 1.80693,0.68471 2.71045,1.02789 m 1.59481,0.60635 c 1.10427,0.42027 2.20851,0.84141 3.31264,1.26347 m 1.40252,0.53667 c 1.01286,0.38795 2.02559,0.77671 3.03811,1.16631 m 1.41809,0.54627 c 1.0209,0.39372 2.04156,0.78832 3.06189,1.18385 m 4.43936,1.72778 c 0.99027,0.387 1.98014,0.77493 2.96953,1.16385 m 1.56104,0.61461 c 0.68236,0.26908 1.36447,0.53865 2.04632,0.8087"
     id="path14359-1-7-5-3-0-73-1-9-0-7"
     inkscape:connector-curvature="0"
     sodipodi:nodetypes="cccccccccccccccccccccccccccccccccccccccccccccccccccc"
     inkscape:transform-center-x="0.03366111"
     inkscape:transform-center-y="-0.1641457" />
  <path
     style="fill:none;stroke:#000000;stroke-width:1;stroke-linecap:butt;stroke-linejoin:miter;stroke-miterlimit:4;stroke-dasharray:none;stroke-opacity:1"
     d="m 122.65615,186.03865 1.09625,0.45498"
     id="path14359-1-7-5-3-0-73-1-9-9"
     inkscape:connector-curvature="0"
     sodipodi:nodetypes="cc"
     inkscape:transform-center-x="0.03366111"
     inkscape:transform-center-y="-0.1641457" />
  <path
     style="fill:none;stroke:#000000;stroke-width:1;stroke-linecap:butt;stroke-linejoin:miter;stroke-miterlimit:4;stroke-dasharray:none;stroke-opacity:1"
     d="m 78.875699,169.2653 1.196096,0.5049"
     id="path14359-1-7-5-3-0-73-1-9-02"
     inkscape:connector-curvature="0"
     sodipodi:nodetypes="cc"
     inkscape:transform-center-x="0.03366111"
     inkscape:transform-center-y="-0.1641457" />
  <path
     style="fill:none;stroke:#000000;stroke-width:1;stroke-linecap:butt;stroke-linejoin:miter;stroke-miterlimit:4;stroke-dasharray:none;stroke-opacity:1"
     d="m 100.89073,177.60206 1.14617,0.40505"
     id="path14359-1-7-5-3-0-73-1-9-399"
     inkscape:connector-curvature="0"
     sodipodi:nodetypes="cc"
     inkscape:transform-center-x="0.03366111"
     inkscape:transform-center-y="-0.1641457" />
  <path
     style="fill:none;stroke:#000000;stroke-width:1;stroke-linecap:butt;stroke-linejoin:miter;stroke-miterlimit:4;stroke-dasharray:none;stroke-opacity:1"
     d="m 40.137239,159.83028 1.146175,0.30522"
     id="path14359-1-7-5-3-0-73-1-9-70"
     inkscape:connector-curvature="0"
     sodipodi:nodetypes="cc"
     inkscape:transform-center-x="0.03366111"
     inkscape:transform-center-y="-0.1641457" />
  <path
     style="fill:none;stroke:#000000;stroke-width:1;stroke-linecap:butt;stroke-linejoin:miter;stroke-miterlimit:4;stroke-dasharray:none;stroke-opacity:1"
     d="m 56.76083,162.82553 1.046335,0.15545"
     id="path14359-1-7-5-3-0-73-1-9-398"
     inkscape:connector-curvature="0"
     sodipodi:nodetypes="cc"
     inkscape:transform-center-x="0.03366111"
     inkscape:transform-center-y="-0.1641457" />
  <path
     style="fill:none;stroke:#000000;stroke-width:1;stroke-linecap:butt;stroke-linejoin:miter;stroke-miterlimit:4;stroke-dasharray:none;stroke-opacity:1"
     d="m 10.783871,154.43885 1.146176,0.20537"
     id="path14359-1-7-5-3-0-73-1-9-6"
     inkscape:connector-curvature="0"
     sodipodi:nodetypes="cc"
     inkscape:transform-center-x="0.03366111"
     inkscape:transform-center-y="-0.1641457" />
  <path
     style="fill:none;stroke:#000000;stroke-width:1;stroke-linecap:butt;stroke-linejoin:miter;stroke-miterlimit:4;stroke-dasharray:none;stroke-opacity:1"
     d="m 24.611903,157.03473 1.39578,0.35513"
     id="path14359-1-7-5-3-0-73-1-9-5"
     inkscape:connector-curvature="0"
     sodipodi:nodetypes="cc"
     inkscape:transform-center-x="0.03366111"
     inkscape:transform-center-y="-0.1641457" />
  <path
     style="fill:none;stroke:#000000;stroke-width:1;stroke-linecap:butt;stroke-linejoin:miter;stroke-miterlimit:4;stroke-dasharray:none;stroke-opacity:1"
     d="m 3.5365372,149.23854 c 2.0823342,0.47944 4.1627994,0.96541 6.2415119,1.45752 3.2652929,0.77303 6.3326039,0.81846 9.9998179,1.64136 7.476473,1.67767 13.723243,7.40201 18.813522,8.43971 2.536864,0.51716 5.020505,-0.73654 7.72976,-0.62496 3.755221,0.15466 9.880999,0.65477 16.911171,0.83761 6.035581,0.15697 8.700192,-0.58661 12.841003,-0.54516 7.191318,0.072 12.311077,2.90862 16.275069,3.83746 5.063934,1.18656 10.251138,2.7052 15.177468,4.4769 5.6058,2.01606 12.10134,5.50682 18.38625,8.41088 2.43757,1.12633 5.06717,1.80399 7.40171,2.87885 3.78044,1.74058 7.38941,3.35285 10.41048,4.93842 3.4626,1.81729 6.19815,3.55424 8.3028,4.64064"
     id="path14359-1-7-5-3-0-73-1-9-76"
     inkscape:connector-curvature="0"
     sodipodi:nodetypes="csssssssssssc"
     inkscape:transform-center-x="0.03366111"
     inkscape:transform-center-y="-0.1641457" />
  <path
     style="fill:none;stroke:#000000;stroke-width:1;stroke-linecap:butt;stroke-linejoin:miter;stroke-miterlimit:4;stroke-dasharray:3, 1;stroke-opacity:1;stroke-dashoffset:0"
     d="m 88.678046,4.2093633 c 0.401025,0.8135886 0.86741,1.5036978 1.361318,2.1269041 m 4.281987,5.6088566 c 2.792145,7.134917 5.398689,7.408947 7.354479,11.038126 1.19131,2.210615 0.78136,3.961408 1.1798,5.016971 1.41559,3.750237 6.46132,4.600133 6.40008,6.237591 -0.0295,0.789632 -1.35845,1.710639 -1.37894,2.682487 -0.0299,1.418123 1.68429,2.502642 0.87297,7.50242 -0.81959,5.050799 -3.73315,5.111756 -6.0939,8.574852 -1.23011,1.804502 -2.13522,2.829684 -2.862248,4.727581 -0.537729,1.403738 -2.207495,2.511152 -4.171325,3.210375 -0.74921,0.266757 -0.782671,-1.196674 -0.708234,-3.010692 0.106146,-2.586768 -1.251481,-5.477334 -3.627548,-5.546164 -2.089157,-0.06052 -4.152588,-2.829152 -6.681172,-3.002466 -2.630135,-0.180274 -3.156615,3.589534 -2.946891,5.678153 0.152278,1.51652 0.154456,3.228215 -0.354503,4.675311 -1.309515,3.723272 -4.278756,6.027232 -4.081282,13.782851 0.08234,3.233979 1.863803,2.679493 1.950967,4.025838 0.170633,2.635656 -1.807344,0.594049 -1.784906,1.523336 0.04029,1.668492 0.954699,1.767941 1.010775,2.893727 0.110657,2.221584 -5.059549,3.42822 -5.230927,7.278469 -0.127632,2.86744 4.987421,1.065001 5.021494,3.462674 0.01895,1.333209 -1.19789,2.537376 -1.124585,3.894555 0.113994,2.110539 1.90074,3.219411 1.7511,6.210661 -0.293492,5.86683 -0.526287,12.15176 -0.703351,17.74958 -0.1568,4.95717 1.514322,4.16613 1.427014,6.92217 -0.05556,1.75377 -0.526515,3.63069 -0.425397,5.33526 0.07969,1.34337 0.568472,2.52308 0.443541,3.89697 -0.102217,1.1241 -0.773859,2.23167 -0.733161,3.32078 0.05245,1.4037 1.120305,2.55847 1.057861,4.62012 -0.216571,7.15031 1.634672,5.14791 1.720757,7.38666 0.08558,2.22549 -1.319145,1.98162 -1.178772,3.39715 0.225522,2.27416 3.348468,2.86055 3.416693,6.05732"
     id="path14359-1-7-5-3-0-73-1-9-27"
     inkscape:connector-curvature="0"
     sodipodi:nodetypes="cccsssssssssssssssssssssssssssssc"
     inkscape:transform-center-x="0.03366111"
     inkscape:transform-center-y="-0.1641457" />
  <path
     style="fill:none;stroke:#000000;stroke-width:1;stroke-linecap:butt;stroke-linejoin:miter;stroke-miterlimit:4;stroke-dasharray:none;stroke-opacity:1"
     d="M 104.35663,37.478739 103.9186,159.84584 73.251417,159.33714 74.416154,37.478739 Z"
     id="path14359-1-7-5-3-0-73-1-9-03"
     inkscape:connector-curvature="0"
     sodipodi:nodetypes="ccccc"
     inkscape:transform-center-x="0.03366111"
     inkscape:transform-center-y="-0.1641457" />
  <path
     style="fill:#000000;fill-opacity:1;stroke:#000000;stroke-width:0.5;stroke-linecap:butt;stroke-linejoin:miter;stroke-miterlimit:4;stroke-dasharray:none;stroke-opacity:1"
     d="m 152.51138,182.27704 2.1578,0.64046 -1.49053,-1.69349 z"
     id="path14359-1-7-3-7-3-9"
     inkscape:connector-curvature="0"
     sodipodi:nodetypes="cccc" />
  <path
     style="fill:none;stroke:#000000;stroke-width:0.5;stroke-linecap:butt;stroke-linejoin:miter;stroke-miterlimit:4;stroke-dasharray:none;stroke-opacity:1"
     d="m 145.19463,177.51757 c 2.65011,1.23573 5.19563,2.6806 7.67072,4.26636"
     id="path14359-1-7-5-3-0-73-1-9-7-1"
     inkscape:connector-curvature="0"
     sodipodi:nodetypes="cc" />
  <path
     style="fill:#000000;fill-opacity:1;stroke:#000000;stroke-width:0.5;stroke-linecap:butt;stroke-linejoin:miter;stroke-miterlimit:4;stroke-dasharray:none;stroke-opacity:1"
     d="m 11.103829,148.33092 -2.0201587,-0.99259 2.2438617,-0.23381 z"
     id="path14359-1-7-3-7-3-5"
     inkscape:connector-curvature="0"
     sodipodi:nodetypes="cccc" />
  <path
     style="fill:none;stroke:#000000;stroke-width:0.5;stroke-linecap:butt;stroke-linejoin:miter;stroke-miterlimit:4;stroke-dasharray:none;stroke-opacity:1"
     d="m 11.239303,147.74571 c 2.855245,0.38753 5.689579,0.8975 8.515891,1.45444"
     id="path14359-1-7-5-3-0-73-1-9-7-2"
     inkscape:connector-curvature="0"
     sodipodi:nodetypes="cc" />
  <g
     id="g903"
     sodipodi:insensitive="true">
    <text
       id="text6046"
       y="10.105442"
       x="79.915642"
       style="font-style:normal;font-variant:normal;font-weight:normal;font-stretch:normal;font-size:4px;line-height:6.66666651px;font-family:Arial;-inkscape-font-specification:Arial;text-align:start;letter-spacing:0.49999997px;word-spacing:0.21000001px;text-anchor:start;fill:#000000;fill-opacity:1;stroke:none"
       xml:space="preserve"><tspan
         y="10.105442"
         x="79.915642"
         id="tspan6044"
         sodipodi:role="line">MT. DIABLO MER.  T35  R4E</tspan></text>
    <text
       transform="rotate(26.616176)"
       id="text6046-3"
       y="124.45147"
       x="89.610916"
       style="font-style:normal;font-variant:normal;font-weight:normal;font-stretch:normal;font-size:4px;line-height:6.66666651px;font-family:Arial;-inkscape-font-specification:Arial;text-align:start;letter-spacing:0.44999999px;word-spacing:0px;text-anchor:start;fill:#000000;fill-opacity:1;stroke:none"
       xml:space="preserve"><tspan
         y="124.45147"
         x="89.610916"
         id="tspan6044-6"
         sodipodi:role="line">To</tspan></text>
    <text
       transform="rotate(6.6811481)"
       id="text6046-3-5"
       y="150.20255"
       x="49.830578"
       style="font-style:normal;font-variant:normal;font-weight:normal;font-stretch:normal;font-size:4px;line-height:6.66666651px;font-family:Arial;-inkscape-font-specification:Arial;text-align:start;letter-spacing:0.44999999px;word-spacing:0px;text-anchor:start;fill:#000000;fill-opacity:1;stroke:none"
       xml:space="preserve"><tspan
         y="150.20255"
         x="49.830578"
         id="tspan6044-6-5"
         sodipodi:role="line">Livermore</tspan></text>
    <text
       transform="rotate(33.313581)"
       id="text6046-3-8"
       y="73.938164"
       x="212.48274"
       style="font-style:normal;font-variant:normal;font-weight:normal;font-stretch:normal;font-size:4px;line-height:6.66666651px;font-family:Arial;-inkscape-font-specification:Arial;text-align:start;letter-spacing:0.44999999px;word-spacing:0px;text-anchor:start;fill:#000000;fill-opacity:1;stroke:none"
       xml:space="preserve"><tspan
         y="73.938164"
         x="212.48274"
         id="tspan6044-6-1"
         sodipodi:role="line">To</tspan></text>
    <text
       transform="rotate(27.441129)"
       id="text6046-3-4"
       y="95.618866"
       x="211.12526"
       style="font-style:normal;font-variant:normal;font-weight:normal;font-stretch:normal;font-size:4px;line-height:6.66666651px;font-family:Arial;-inkscape-font-specification:Arial;text-align:start;letter-spacing:0.44999999px;word-spacing:0px;text-anchor:start;fill:#000000;fill-opacity:1;stroke:none"
       xml:space="preserve"><tspan
         y="95.618866"
         x="211.12526"
         id="tspan6044-6-7"
         sodipodi:role="line">Tracy</tspan></text>
    <text
       id="text6102"
       y="22.085161"
       x="35.78611"
       style="font-style:normal;font-variant:normal;font-weight:normal;font-stretch:normal;font-size:5.33333349px;line-height:6.66666651px;font-family:Arial;-inkscape-font-specification:Arial;text-align:start;letter-spacing:0.5px;word-spacing:0px;text-anchor:start;fill:#000000;fill-opacity:1;stroke:none"
       xml:space="preserve"><tspan
         y="22.085161"
         x="35.78611"
         id="tspan6100"
         sodipodi:role="line">20</tspan></text>
    <text
       id="text6102-1"
       y="22.201836"
       x="132.01331"
       style="font-style:normal;font-variant:normal;font-weight:normal;font-stretch:normal;font-size:5.33333349px;line-height:6.66666651px;font-family:Arial;-inkscape-font-specification:Arial;text-align:start;letter-spacing:0.5px;word-spacing:0px;text-anchor:start;fill:#000000;fill-opacity:1;stroke:none"
       xml:space="preserve"><tspan
         y="22.201836"
         x="132.01331"
         id="tspan6100-3"
         sodipodi:role="line">21</tspan></text>
    <text
       id="text6102-8"
       y="101.13139"
       x="34.846165"
       style="font-style:normal;font-variant:normal;font-weight:normal;font-stretch:normal;font-size:5.33333349px;line-height:6.66666651px;font-family:Arial;-inkscape-font-specification:Arial;text-align:start;letter-spacing:0.5px;word-spacing:0px;text-anchor:start;fill:#000000;fill-opacity:1;stroke:none"
       xml:space="preserve"><tspan
         y="101.13139"
         x="34.846165"
         id="tspan6100-4"
         sodipodi:role="line">29</tspan></text>
    <text
       id="text6102-80"
       y="101.44173"
       x="131.05125"
       style="font-style:normal;font-variant:normal;font-weight:normal;font-stretch:normal;font-size:5.33333349px;line-height:6.66666651px;font-family:Arial;-inkscape-font-specification:Arial;text-align:start;letter-spacing:0.5px;word-spacing:0px;text-anchor:start;fill:#000000;fill-opacity:1;stroke:none"
       xml:space="preserve"><tspan
         y="101.44173"
         x="131.05125"
         id="tspan6100-46"
         sodipodi:role="line">28</tspan></text>
    <text
       id="text6102-80-0"
       y="102.68308"
       x="202.57399"
       style="font-style:normal;font-variant:normal;font-weight:normal;font-stretch:normal;font-size:5.33333349px;line-height:6.66666651px;font-family:Arial;-inkscape-font-specification:Arial;text-align:start;letter-spacing:0.5px;word-spacing:0px;text-anchor:start;fill:#000000;fill-opacity:1;stroke:none"
       xml:space="preserve"><tspan
         y="102.68308"
         x="202.57399"
         id="tspan6100-46-3"
         sodipodi:role="line">27</tspan></text>
    <text
       id="text6102-80-2"
       y="176.38861"
       x="203.34984"
       style="font-style:normal;font-variant:normal;font-weight:normal;font-stretch:normal;font-size:5.33333349px;line-height:6.66666651px;font-family:Arial;-inkscape-font-specification:Arial;text-align:start;letter-spacing:0.5px;word-spacing:0px;text-anchor:start;fill:#000000;fill-opacity:1;stroke:none"
       xml:space="preserve"><tspan
         y="176.38861"
         x="203.34984"
         id="tspan6100-46-6"
         sodipodi:role="line">34</tspan></text>
    <text
       id="text6102-80-9"
       y="176.54376"
       x="130.73051"
       style="font-style:normal;font-variant:normal;font-weight:normal;font-stretch:normal;font-size:5.33333349px;line-height:6.66666651px;font-family:Arial;-inkscape-font-specification:Arial;text-align:start;letter-spacing:0.5px;word-spacing:0px;text-anchor:start;fill:#000000;fill-opacity:1;stroke:none"
       xml:space="preserve"><tspan
         y="176.54376"
         x="130.73051"
         id="tspan6100-46-4"
         sodipodi:role="line">33</tspan></text>
    <text
       id="text6102-80-1"
       y="176.54378"
       x="35.301258"
       style="font-style:normal;font-variant:normal;font-weight:normal;font-stretch:normal;font-size:5.33333349px;line-height:6.66666651px;font-family:Arial;-inkscape-font-specification:Arial;text-align:start;letter-spacing:0.5px;word-spacing:0px;text-anchor:start;fill:#000000;fill-opacity:1;stroke:none"
       xml:space="preserve"><tspan
         y="176.54378"
         x="35.301258"
         id="tspan6100-46-37"
         sodipodi:role="line">32</tspan></text>
    <text
       transform="rotate(-90)"
       id="text6182"
       y="20.109156"
       x="-108.39832"
       style="font-style:normal;font-variant:normal;font-weight:normal;font-stretch:normal;font-size:5.33333349px;line-height:6.66666651px;font-family:Arial;-inkscape-font-specification:Arial;text-align:start;letter-spacing:0.25px;word-spacing:0px;text-anchor:start;fill:#000000;fill-opacity:1;stroke:none"
       xml:space="preserve"><tspan
         y="20.109156"
         x="-108.39832"
         id="tspan6180"
         sodipodi:role="line">AL AMEDA  CO.</tspan></text>
    <text
       transform="rotate(-90)"
       id="text6182-8"
       y="28.288975"
       x="-116.58247"
       style="font-style:normal;font-variant:normal;font-weight:normal;font-stretch:normal;font-size:5.33333349px;line-height:6.66666651px;font-family:Arial;-inkscape-font-specification:Arial;text-align:start;letter-spacing:0.2px;word-spacing:0px;text-anchor:start;fill:#000000;fill-opacity:1;stroke:none"
       xml:space="preserve"><tspan
         y="28.288975"
         x="-116.58247"
         id="tspan6180-8"
         sodipodi:role="line">SAN  JOAQUIN   CO.</tspan></text>
  </g>
</svg>
