<?xml version="1.0" encoding="UTF-8" standalone="no"?>
<!-- Created with Inkscape (http://www.inkscape.org/) -->

<svg
   xmlns:dc="http://purl.org/dc/elements/1.1/"
   xmlns:cc="http://creativecommons.org/ns#"
   xmlns:rdf="http://www.w3.org/1999/02/22-rdf-syntax-ns#"
   xmlns:svg="http://www.w3.org/2000/svg"
   xmlns="http://www.w3.org/2000/svg"
   xmlns:sodipodi="http://sodipodi.sourceforge.net/DTD/sodipodi-0.dtd"
   xmlns:inkscape="http://www.inkscape.org/namespaces/inkscape"
   version="1.1"
   id="svg12820"
   width="225.94322"
   height="290.12418"
   viewBox="0 0 225.94322 290.12418"
   sodipodi:docname="ec01jn91.110.svg"
   inkscape:version="0.92.2 5c3e80d, 2017-08-06">
  <metadata
     id="metadata12826">
    <rdf:RDF>
      <cc:Work
         rdf:about="">
        <dc:format>image/svg+xml</dc:format>
        <dc:type
           rdf:resource="http://purl.org/dc/dcmitype/StillImage" />
        <dc:title></dc:title>
      </cc:Work>
    </rdf:RDF>
  </metadata>
  <defs
     id="defs12824" />
  <sodipodi:namedview
     pagecolor="#ffffff"
     bordercolor="#666666"
     borderopacity="1"
     objecttolerance="10"
     gridtolerance="10"
     guidetolerance="10"
     inkscape:pageopacity="0"
     inkscape:pageshadow="2"
     inkscape:window-width="1280"
     inkscape:window-height="756"
     id="namedview12822"
     showgrid="false"
     fit-margin-top="0"
     fit-margin-left="0"
     fit-margin-right="0"
     fit-margin-bottom="0"
     inkscape:zoom="3.2662305"
     inkscape:cx="109.8227"
     inkscape:cy="178.17346"
     inkscape:window-x="0"
     inkscape:window-y="0"
     inkscape:window-maximized="0"
     inkscape:current-layer="svg12820"
     inkscape:snap-bbox="true" />
  <path
     style="fill:#c4c4c4;fill-opacity:1;stroke:none;stroke-width:0.5;stroke-linecap:round;stroke-linejoin:round;stroke-miterlimit:4;stroke-dasharray:none;stroke-opacity:1"
     d="m 67.406041,183.53408 c 0.329438,-1.00956 1.527792,-1.4193 2.307603,-2.16658 1.949027,-1.86772 3.686391,-3.71569 5.9081,-4.48994 3.059633,-1.06626 6.287667,-1.41793 8.347076,-3.45753 2.334999,-2.31255 -0.440217,-6.41004 2.033104,-8.45431 2.241443,-1.85261 6.473868,0.25307 8.276602,-1.85527 2.718764,-3.17966 1.329767,-5.85015 1.533052,-8.59587 0.116351,-1.57153 0.680116,-3.11173 0.729466,-4.70424 0.04527,-1.46084 -0.284239,-2.96269 0.357687,-4.21113 0.663133,-1.28968 1.993284,-2.55695 3.287819,-3.72687 0.53835,-0.48652 1.33439,-0.29587 1.87289,-0.68034 0.74811,-0.5341 1.24501,-1.5636 2.05543,-1.58081 2.16955,-0.0461 2.62377,1.68265 4.70888,1.35476 0.74812,-0.11765 1.0051,-2.34926 2.41776,-3.16839 1.47307,-0.85416 2.37321,-2.82732 3.73914,-3.68953 2.52497,-1.59383 4.89041,-3.37105 7.55745,-4.05833 3.01517,-0.77698 6.51319,-1.17236 8.85764,-0.68425 2.41626,0.50306 2.66397,3.27369 5.48308,4.28172 1.56704,0.56032 3.61747,-0.24224 5.29748,-0.41806 1.86015,-0.19466 3.96582,-1.34196 5.72097,-0.18529 2.13979,1.41015 3.27442,3.3314 4.5394,5.06627 0.77906,1.06845 0.15693,4.51484 -1.33383,5.45298 -0.57047,0.359 -1.47376,-1.475 -3.55235,-2.25129 -0.7488,-0.27965 -0.47043,-1.67679 -1.91858,-2.48777 -0.89659,-0.5021 -1.68676,0.57309 -2.78093,0.0277 -1.20567,-0.60099 -2.22009,-0.94573 -4.01813,-0.97623 -1.06165,-0.018 -0.88559,1.78793 -1.52607,2.5526 -0.64584,0.77106 -1.57677,1.25717 -2.82573,0.89754 -1.23171,-0.35467 -2.69941,-0.99063 -3.30904,-2.75457 -0.62883,-1.81948 -0.87033,-3.75191 -4.3731,-3.74845 -2.33282,0.002 -4.90766,1.62133 -6.91998,2.75963 -2.2594,1.27808 -4.06456,2.50781 -4.35406,3.85045 -0.33808,1.56798 -2.27642,2.20245 -3.80918,3.13193 -3.39338,2.05777 -7.16937,1.60112 -9.07027,3.81915 -1.82908,2.13422 0.39968,4.95807 -0.14769,7.24601 -0.42702,1.78487 -1.58056,3.10598 -1.97374,4.78935 -0.622663,2.66586 0.75926,6.29488 -1.07688,8.2676 -1.896868,2.03796 -5.943742,0.82692 -7.940063,2.28441 -1.864623,1.36133 -1.192476,4.76326 -2.457513,6.43145 -2.305775,3.04059 -5.077627,4.21438 -8.203318,5.45659 -1.574504,0.62573 -3.761366,0.6522 -5.007293,1.29932 -1.9033,0.98856 -4.251164,1.30181 -6.672659,1.61765 -0.410814,0.0536 -0.771618,-0.39189 -1.222744,-0.9527 -0.321148,-0.39924 -0.685681,-0.8352 -0.537479,-1.28936 z"
     id="path14359-1-7-5-3-0-73-1-9-8-5-8-30-9"
     inkscape:connector-curvature="0"
     sodipodi:nodetypes="ssssssssssssssssssssssssssssssssssssssssssss" />
  <path
     style="fill:none;stroke:#000000;stroke-width:0.57995582;stroke-linecap:round;stroke-linejoin:round;stroke-miterlimit:4;stroke-dasharray:none;stroke-opacity:1"
     d="m 64.613677,275.94642 c 0.82853,-0.13633 1.20685,-0.30337 1.89948,-0.75557 1.16306,-0.75941 1.82467,-2.23046 1.79777,-3.48797 -0.0307,-1.44271 -1.04008,-1.25622 -1.00178,-3.09835 0.0195,-0.94035 1.70888,-2.21778 1.05989,-2.88423 l -2.42593,-2.49118 c -0.53707,-0.0382 -1.46815,0.47318 -2.31967,0.47218 -0.66671,-10e-4 -1.58221,-0.24682 -2.09663,-0.65017 -0.51442,0.40335 -1.42992,0.64917 -2.09663,0.65017 -0.85152,10e-4 -1.7826,-0.5104 -2.31967,-0.47218 l -2.42593,2.49118 c -0.64899,0.66645 1.04044,1.94388 1.05989,2.88423 0.0383,1.84213 -0.97105,1.65564 -1.00178,3.09835 -0.0269,1.25751 0.63471,2.72856 1.79777,3.48797 0.69263,0.4522 1.07095,0.61924 1.89948,0.75557 1.02342,0.16867 1.90216,-0.12703 3.08687,0.42869 1.18471,-0.55572 2.06345,-0.26002 3.08687,-0.42869 z"
     id="path14359-1-7-5-3-0-73-1-9-8-2-1-8-1-3-8-83-9-9-3-2-8-2-8-9-2-9-4"
     inkscape:connector-curvature="0"
     sodipodi:nodetypes="ssssscscscssssscs" />
  <path
     style="fill:none;stroke:#000000;stroke-width:1;stroke-linecap:butt;stroke-linejoin:miter;stroke-miterlimit:4;stroke-dasharray:none;stroke-opacity:1"
     d="m 11.337396,278.67257 0.002,-270.4883544 208.555854,0 -0.002,270.4883544 z"
     id="path14359-1-7-5-3-0-73-1-9-8-5-7"
     inkscape:connector-curvature="0"
     sodipodi:nodetypes="ccccc" />
  <path
     style="fill:none;stroke:#000000;stroke-width:1;stroke-linecap:butt;stroke-linejoin:miter;stroke-miterlimit:4;stroke-dasharray:none;stroke-opacity:1"
     d="m 14.048844,145.32998 17.895201,1e-4 m 2.757837,1e-5 4.623362,3e-5 m 2.537746,2e-5 4.732942,3e-5 m 3.414306,2e-5 21.855829,1.5e-4 m 2.504377,2e-5 4.640988,3e-5 m 2.539639,1e-5 5.1498,3e-5 m 3.17754,2e-5 25.162089,1.4e-4 m 2.57679,2e-5 6.00968,4e-5 m 2.35576,1e-5 6.55657,4e-5 m 2.79404,2e-5 22.75323,1.9e-4 m 2.46533,1e-5 5.1498,3e-5 m 2.35576,2e-5 5.53329,5e-5 m 3.57677,2e-5 22.01829,2.1e-4 m 3.99647,3e-5 5.11454,4e-5 m 2.82835,2e-5 4.93634,6e-5"
     id="path14359-1-7-5-3-0-73-1-9-8-5"
     inkscape:connector-curvature="0"
     sodipodi:nodetypes="cccccccccccccccccccccccccccccc" />
  <path
     style="fill:none;stroke:#000000;stroke-width:1;stroke-linecap:butt;stroke-linejoin:miter;stroke-miterlimit:4;stroke-dasharray:none;stroke-opacity:1"
     d="m 11.386849,42.807191 208.549051,0.002"
     id="path14359-1-7-5-3-0-73-1-9-8-5-5"
     inkscape:connector-curvature="0"
     sodipodi:nodetypes="cc" />
  <path
     style="opacity:1;vector-effect:none;fill:none;fill-opacity:1;fill-rule:evenodd;stroke:#000000;stroke-width:0.5;stroke-linecap:round;stroke-linejoin:round;stroke-miterlimit:4;stroke-dasharray:none;stroke-dashoffset:0;stroke-opacity:1"
     d="m 91.597753,98.748987 c 0,3.627793 -2.94091,6.568703 -6.5687,6.568703 -3.62779,0 -6.5687,-2.94091 -6.5687,-6.568703 0,-3.627793 2.9409,-6.568701 6.5687,-6.568702 3.62779,10e-7 6.5687,2.940909 6.5687,6.568702 z"
     id="path10445"
     inkscape:connector-curvature="0"
     sodipodi:nodetypes="sssss" />
  <path
     style="opacity:1;vector-effect:none;fill:none;fill-opacity:1;fill-rule:evenodd;stroke:#000000;stroke-width:0.5;stroke-linecap:round;stroke-linejoin:round;stroke-miterlimit:4;stroke-dasharray:none;stroke-dashoffset:0;stroke-opacity:1"
     d="m 98.400107,207.11755 c 0,3.62779 -2.94091,6.5687 -6.5687,6.5687 -3.62779,0 -6.5687,-2.94091 -6.5687,-6.5687 0,-3.62779 2.9409,-6.5687 6.5687,-6.5687 3.62779,0 6.5687,2.94091 6.5687,6.5687 z"
     id="path10445-8"
     inkscape:connector-curvature="0"
     sodipodi:nodetypes="sssss" />
  <path
     style="fill:none;stroke:#000000;stroke-width:1;stroke-linecap:butt;stroke-linejoin:miter;stroke-miterlimit:4;stroke-dasharray:none;stroke-opacity:1"
     d="m 188.8576,255.88021 -0.002,1.74794 h -43.87489 l 0.002,-1.74794"
     id="path14359-1-7-5-3-0-73-1-9-8"
     inkscape:connector-curvature="0"
     sodipodi:nodetypes="cccc" />
  <path
     style="fill:none;stroke:#000000;stroke-width:0.57995582;stroke-linecap:round;stroke-linejoin:round;stroke-miterlimit:4;stroke-dasharray:none;stroke-opacity:1"
     d="m 120.08908,197.89401 c 0.82853,-0.13633 1.20685,-0.30337 1.89948,-0.75557 1.16306,-0.75941 1.82467,-2.23046 1.79777,-3.48797 -0.0307,-1.44271 -1.04008,-1.25622 -1.00178,-3.09835 0.0195,-0.94035 1.70888,-2.21778 1.05989,-2.88423 l -2.42593,-2.49118 c -0.53707,-0.0382 -1.46815,0.47318 -2.31967,0.47218 -0.66671,-0.001 -1.58221,-0.24682 -2.09663,-0.65017 -0.51442,0.40335 -1.42992,0.64917 -2.09663,0.65017 -0.85152,0.001 -1.7826,-0.5104 -2.31967,-0.47218 l -2.42593,2.49118 c -0.64899,0.66645 1.04044,1.94388 1.05989,2.88423 0.0383,1.84213 -0.97105,1.65564 -1.00178,3.09835 -0.0269,1.25751 0.63471,2.72856 1.79777,3.48797 0.69263,0.4522 1.07095,0.61924 1.89948,0.75557 1.02342,0.16867 1.90216,-0.12703 3.08687,0.42869 1.18471,-0.55572 2.06345,-0.26002 3.08687,-0.42869 z"
     id="path14359-1-7-5-3-0-73-1-9-8-2-1-8-1-3-8-83-9-9-3-2-8-2-8-9-2-9-4-1"
     inkscape:connector-curvature="0"
     sodipodi:nodetypes="ssssscscscssssscs" />
  <path
     style="opacity:1;vector-effect:none;fill:none;fill-opacity:1;fill-rule:evenodd;stroke:#000000;stroke-width:0.5;stroke-linecap:round;stroke-linejoin:round;stroke-miterlimit:4;stroke-dasharray:none;stroke-dashoffset:0;stroke-opacity:1"
     d="m 78.97786,243.75691 c 0,3.62779 -2.94091,6.5687 -6.568704,6.5687 -3.62779,0 -6.5687,-2.94091 -6.5687,-6.5687 0,-3.62779 2.9409,-6.5687 6.5687,-6.5687 3.627794,0 6.568704,2.94091 6.568704,6.5687 z"
     id="path10445-8-1"
     inkscape:connector-curvature="0"
     sodipodi:nodetypes="sssss" />
  <path
     style="opacity:1;vector-effect:none;fill:none;fill-opacity:1;fill-rule:evenodd;stroke:#000000;stroke-width:0.5;stroke-linecap:round;stroke-linejoin:round;stroke-miterlimit:4;stroke-dasharray:none;stroke-dashoffset:0;stroke-opacity:1"
     d="m 89.01351,157.62813 c 0,3.62779 -2.94091,6.5687 -6.5687,6.5687 -3.62779,0 -6.5687,-2.94091 -6.5687,-6.5687 0,-3.62779 2.9409,-6.5687 6.5687,-6.5687 3.62779,0 6.5687,2.94091 6.5687,6.5687 z"
     id="path10445-8-0"
     inkscape:connector-curvature="0"
     sodipodi:nodetypes="sssss" />
  <path
     style="opacity:1;vector-effect:none;fill:none;fill-opacity:1;fill-rule:evenodd;stroke:#000000;stroke-width:0.5;stroke-linecap:round;stroke-linejoin:round;stroke-miterlimit:4;stroke-dasharray:none;stroke-dashoffset:0;stroke-opacity:1"
     d="m 57.636209,193.70567 c 0,3.62779 -2.94091,6.5687 -6.5687,6.5687 -3.62779,0 -6.5687,-2.94091 -6.5687,-6.5687 0,-3.62779 2.9409,-6.5687 6.5687,-6.5687 3.62779,0 6.5687,2.94091 6.5687,6.5687 z"
     id="path10445-8-5"
     inkscape:connector-curvature="0"
     sodipodi:nodetypes="sssss" />
  <path
     style="fill:none;stroke:#000000;stroke-width:0.5;stroke-linecap:butt;stroke-linejoin:round;stroke-miterlimit:4;stroke-dasharray:none;stroke-opacity:1"
     d="m 136.68308,44.355734 -4.87144,10.80586 m -1.14573,2.541463 -1.74164,3.86333 m -0.82155,1.822354 -5.32082,11.802684 m -0.75495,1.674629 -1.21098,2.686223 m -0.97445,2.161528 -2.25034,4.991716 1.40066,0.890241 m 1.29801,0.824994 2.03733,1.294898 -1.07369,3.146884 m -0.75544,2.214118 -4.17695,12.242224 m -0.83275,2.44073 -1.18544,3.47442 m -0.54435,1.59543 -3.72652,10.92206 -0.21928,0.48773 m -0.65971,1.46734 -1.25634,2.79438 m -0.95125,2.11578 -2.17684,4.84178 -1.27196,5.70891"
     id="path14359-1-7-5-3-0-73-1-9-8-5-8"
     inkscape:connector-curvature="0"
     sodipodi:nodetypes="cccccccccccccccccccccccccc" />
  <path
     style="fill:none;stroke:#000000;stroke-width:0.5;stroke-linecap:butt;stroke-linejoin:round;stroke-miterlimit:4;stroke-dasharray:none;stroke-opacity:1"
     d="m 179.69268,145.24404 -5.7e-4,18.39564 m -7e-5,2.47674 -1.2e-4,3.92862 m -7e-5,2.22052 -4.6e-4,14.77504 m -5e-5,1.8789 -1.1e-4,3.33078 m -5e-5,1.87891 -5e-4,16.08971"
     id="path14359-1-7-5-3-0-73-1-9-8-5-8-5"
     inkscape:connector-curvature="0"
     sodipodi:nodetypes="cccccccccc" />
  <path
     style="fill:none;stroke:#000000;stroke-width:0.5;stroke-linecap:round;stroke-linejoin:round;stroke-miterlimit:4;stroke-dasharray:none;stroke-opacity:1"
     d="m 167.07163,128.32482 c -0.36894,0.51322 -0.85465,0.82329 -1.74904,1.84265 -0.69533,0.79248 -1.45922,1.32363 -2.52805,2.13191 -0.36957,0.27948 -1.086,0.0674 -1.46891,0.37582 -0.5823,0.46907 -1.0114,1.15676 -1.60896,1.67232 -0.76688,0.66164 -1.55629,1.26514 -2.28591,1.99467 -1.1666,1.16646 -1.42889,2.47333 -2.32261,3.39235 -0.68576,0.70518 -1.69094,1.49835 -2.5432,1.6983 -0.49727,0.11666 -0.10797,0.96013 -0.45739,1.23163 -1.18057,0.9173 -1.93273,1.90333 -1.92895,2.31634 0.005,0.49555 0.46462,0.82916 1.06852,0.82333 0.87417,-0.008 1.65039,-1.80141 2.65263,-1.83367 1.01487,-0.0327 1.55845,2.51621 2.55869,2.50844 0.90912,-0.007 1.6798,-2.67748 2.83322,-2.74851 0.6937,-0.0427 1.43295,0.0318 2.0617,-0.0575 0.86612,-0.12311 1.19128,-1.98205 2.10904,-1.9981 0.5672,-0.01 1.32008,0.82922 2.10221,0.83255 1.53284,0.007 1.42075,-1.39294 3.35191,-1.4682 0.61199,-0.0239 1.63427,0.58232 1.68717,1.24283 0.0702,0.87605 0.73344,1.33914 1.20821,1.83426 0.41257,0.43027 0.64735,0.90243 0.67066,1.46889 0.0227,0.55056 -0.31697,0.71566 -0.61874,1.06716 -0.28766,0.33506 -0.53651,0.8439 -0.57996,1.84186 -0.0351,0.80724 -0.68523,1.90517 -1.34124,2.16337 -0.81804,0.32198 -1.41464,1.22359 -2.09218,1.93172 -1.36345,1.42502 -3.06201,2.39377 -4.34442,2.97369 -0.56175,0.25402 -0.65249,1.16944 -1.33842,1.23928 -0.36695,0.0374 -0.80044,0.36371 -1.24949,0.84329 -0.4114,0.43939 -0.85523,1.00739 -0.86566,1.59958 -0.008,0.47846 -0.45088,0.8687 -0.82696,0.81001 -0.58747,-0.0917 -1.31638,0.13959 -1.75145,0.58953 -0.55943,0.57854 -0.67783,1.48448 -0.68159,2.2026 -0.005,0.9363 0.6283,1.19142 0.63418,1.6238 0.008,0.62424 0.47498,0.82117 1.13148,1.1578 0.6244,0.32018 1.46715,0.73616 1.98983,1.17998 0.63146,0.53618 0.88441,1.10191 0.87553,1.44403 -0.0112,0.43063 -0.006,0.83521 0.016,1.21131 0.0372,0.62324 0.85364,1.04332 1.56964,1.10286 0.71279,0.0593 1.02608,0.65469 1.01343,1.37455 -0.007,0.40942 0.0281,0.80394 0.0557,1.1826 0.0536,0.73618 1.86421,1.14439 1.92991,2.68276 0.0381,0.89298 0.65364,1.03961 1.20861,1.54897 0.39722,0.36457 0.38415,0.8611 1.15652,0.91943 0.46169,0.0349 0.93616,0.19011 1.47875,0.17643 0.77475,-0.0195 0.80035,1.34901 1.79237,1.37656 0.27968,0.008 0.56966,0.012 0.8708,-0.002 0.5849,-0.0281 1.21552,0.27777 1.24075,0.8934 0.0193,0.46994 -0.26536,1.08201 -1.06757,1.04089 -0.6044,-0.031 -0.84463,0.61386 -1.09578,1.24401 -0.14198,0.35624 -0.43512,0.7242 -0.43472,0.92217 0.001,0.52851 0.33982,1.17167 0.34119,1.688 0.001,0.45505 -0.33501,0.78467 -0.33336,1.22976 0.001,0.35693 -0.52743,0.68648 -0.52519,1.03676 0.003,0.54094 0.008,1.07381 0.0141,1.59816 0.004,0.3665 0.0899,0.72194 0.37794,0.70432 0.62954,-0.0385 1.25006,-0.0176 1.91192,0.0367 0.39105,0.0321 0.75778,0.16074 0.76257,0.45831 0.006,0.35353 0.0111,0.70724 0.0162,1.06112 0.002,0.16091 -0.40533,0.29774 -0.40309,0.45873 0.005,0.36164 0.92624,0.79582 0.93094,1.15785 0.006,0.49484 -0.9038,0.91771 -0.89795,1.41331 0.006,0.53295 0.83908,1.21194 1.83616,1.47485 1.21216,0.31961 2.10909,0.65273 2.40134,0.66925 0.62071,0.0351 2.17861,1.85469 2.28635,2.83041 0.0363,0.32908 0.96636,0.35161 1.36097,0.40885 0.43779,0.0635 1.0716,1.04424 1.13266,1.6758 0.0441,0.45596 0.0143,0.93635 0.0552,1.39296 0.0597,0.66658 1.87523,1.38184 1.90149,2.38692 0.015,0.57268 0.0827,1.14285 0.11874,1.71479 0.049,0.77863 1.61792,1.21833 2.00599,3.5375"
     id="path14359-1-7-5-3-0-73-1-9-8-5-8-4"
     inkscape:connector-curvature="0"
     sodipodi:nodetypes="cssssssssssssssssssssssssssssssssssssssssssssssssssssssssssssssssssssc" />
  <path
     style="fill:none;stroke:#000000;stroke-width:0.5;stroke-linecap:round;stroke-linejoin:round;stroke-miterlimit:4;stroke-dasharray:none;stroke-opacity:1"
     d="m 69.803495,185.35127 c -0.09881,1.22634 0.304895,1.97519 0.837174,3.0937 0.803613,1.68869 1.724949,3.52761 1.727034,4.27318 4.81e-4,0.17225 0.343312,1.55719 1.11107,1.94991 1.763829,0.90225 3.042207,2.10209 3.698629,2.12483 0.899126,0.0312 1.693234,-0.10265 1.778736,0.84122 0.05249,0.57942 -0.287828,1.15919 -1.318283,1.1001 -0.720316,-0.0413 -1.256856,0.43925 -1.759701,1.09332 -0.25919,0.33715 -0.02774,1.22544 -0.391268,1.40886 -0.489293,0.24687 -0.664313,0.53145 -0.649936,0.80448 0.0459,0.87163 0.625181,1.12806 0.680795,1.79077 0.05518,0.65756 0.237395,1.15943 0.546368,1.78068 0.818954,1.64667 1.847628,3.16149 2.577239,4.58059 0.7013,1.36404 2.601134,1.33958 2.86202,3.11148 0.119922,0.81449 0.09736,1.55621 0.09681,2.29663 -7.16e-4,0.96775 -0.761026,1.73774 -1.537734,2.67406 -0.560811,0.67605 -0.801688,1.6435 -1.253097,2.10682 -0.473385,0.48587 -1.039088,0.72533 -1.488488,1.10043 -0.792965,0.66186 -1.5256,0.86274 -1.913351,0.8722 -0.901006,0.022 -2.000999,-0.11252 -2.847336,-0.53999 -0.616718,-0.31149 -1.292524,-1.08989 -1.824317,-0.61999 -0.292523,0.25848 -0.123853,1.34311 0.590485,1.87388 0.595319,0.44233 0.836717,1.00536 0.434266,1.62244 -0.540288,0.82844 -0.992727,1.39615 -1.751444,2.30588 -0.479203,0.57458 -1.313602,0.8998 -1.867568,1.50222 -0.670137,0.72874 -0.827308,1.63658 -1.624696,2.64484 -0.671215,0.84872 -1.328788,1.81058 -1.462544,2.86689 -0.06326,0.4996 -0.166336,0.98901 -0.614648,1.33959"
     id="path14359-1-7-5-3-0-73-1-9-8-5-8-3"
     inkscape:connector-curvature="0"
     sodipodi:nodetypes="cssssssssssssssssssssssssssc" />
  <path
     style="fill:none;stroke:#000000;stroke-width:1;stroke-linecap:round;stroke-linejoin:round;stroke-miterlimit:4;stroke-dasharray:none;stroke-opacity:1"
     d="m 152.29886,141.38125 c -0.73449,-1.06714 -2.68372,-0.22562 -3.15925,-2.72307 -0.24645,-1.29433 -1.91824,-3.24073 -3.86315,-3.17314 -1.33741,0.0465 -4.74124,0.31856 -5.95199,0.95696 -0.69711,0.36757 -1.34344,-0.1968 -1.7432,-0.12294 -1.43666,0.26543 -1.04162,2.54883 -2.43295,2.53593 -0.73572,-0.007 -1.14709,-0.69722 -1.13842,-1.82106 0.007,-0.93633 -0.1321,-2.07894 -0.15893,-2.71166 -0.0208,-0.48988 -0.48887,-1.62115 -1.26369,-1.7093 -0.54444,-0.0619 -1.10733,0.0119 -1.81517,0.0373 -0.75148,0.027 -1.11614,-0.58973 -1.81858,-0.63434 -1.24107,-0.0788 -3.40728,-0.1368 -4.27652,0.15733 -1.11426,0.37703 -2.21808,1.23264 -3.4338,1.95073 -0.74224,0.43842 -1.66589,0.0493 -2.67053,0.72941 -0.38994,0.26398 -0.81572,0.67356 -1.24466,0.86618 -0.43195,0.19397 -0.89491,0.13863 -1.27206,0.48943 -1.65855,1.54269 -4.31024,7.09102 -6.23353,6.86732 -1.21406,-0.14121 -1.55194,0.50619 -2.1797,0.50878 -0.60347,0.002 -1.29564,-1.71315 -1.8693,-1.7091 -1.03066,0.007 -0.41212,3.36483 -1.39203,3.28055 -0.49926,-0.0429 -0.33544,-1.66097 -1.47685,-1.67405 -0.87643,-0.01 -2.09134,1.17118 -2.07136,1.76141 0.0351,1.03813 -1.848634,1.90678 -1.800411,3.28745 0.04081,1.16835 0.16932,2.64971 0.121525,3.92303 -0.01284,0.34217 -0.25145,0.69974 -0.252807,0.99574 -0.0026,0.57045 0.844275,0.8457 0.903078,1.64511 0.0838,1.1393 -1.387775,2.20956 -1.437226,3.10699 -0.09332,1.69358 -1.714642,2.21554 -1.756894,4.46864 -0.01601,0.85374 0.885581,2.72302 0.625035,3.7286 -0.225446,0.87012 -1.568438,0.96955 -2.132726,0.95367 -1.078241,-0.0303 -2.448488,0.0686 -3.925743,0.19601 -0.954925,0.0824 -1.400389,-0.64648 -2.418243,-0.56619 -0.743251,0.0586 -1.456818,0.5868 -1.386686,1.48183 0.04062,0.51844 0.568392,0.82259 0.517188,1.56313 -0.05191,0.75071 0.579241,1.44178 0.61579,2.38544 0.07743,1.99909 -3.157173,5.26657 -4.900283,5.38911 -2.983045,0.20969 -2.954343,2.7168 -4.088335,2.82015 -0.707674,0.0645 -0.641142,-1.52777 -1.406107,-1.51054 -1.179278,0.0266 -1.649166,1.27157 -3.340114,1.7719 -0.466457,0.13801 -1.06344,-0.0782 -1.448228,0.17493 -0.453315,0.29815 -0.481354,1.19789 -0.864529,1.51416 -0.492673,0.40666 -1.315345,0.23438 -1.666265,0.6551 -0.588999,0.70615 -0.896629,1.45016 -0.987714,2.12307"
     id="path14359-1-7-5-3-0-73-1-9-8-5-8-9"
     inkscape:connector-curvature="0"
     sodipodi:nodetypes="csssssssssssssssssssssssssssssssssssssssssc" />
  <path
     style="fill:none;stroke:#000000;stroke-width:1;stroke-linecap:round;stroke-linejoin:round;stroke-miterlimit:4;stroke-dasharray:none;stroke-opacity:1"
     d="m 100.83319,145.24392 c -0.5291,1.48168 -1.740364,1.81811 -1.788285,3.36348 -0.03014,0.97201 -1.830654,1.56574 -1.844139,2.62125 -0.0075,0.58393 -0.280823,1.29816 -0.36161,1.88407 -0.09008,0.65329 -0.375852,1.82693 -1.572747,2.08849 -1.096649,0.23965 -1.413947,1.41971 -1.359491,2.70852 0.118791,2.81145 2.486365,3.98363 2.703537,4.76115"
     id="path14359-1-7-5-3-0-73-1-9-8-5-8-0"
     inkscape:connector-curvature="0"
     sodipodi:nodetypes="csssssc" />
  <path
     style="fill:none;stroke:#000000;stroke-width:1;stroke-linecap:butt;stroke-linejoin:round;stroke-miterlimit:4;stroke-dasharray:none;stroke-opacity:1"
     d="m 94.054127,157.96605 c -2.106746,-0.20536 -3.301235,0.5467 -4.931501,0.21717"
     id="path14359-1-7-5-3-0-73-1-9-8-5-8-56"
     inkscape:connector-curvature="0"
     sodipodi:nodetypes="cc" />
  <path
     style="fill:none;stroke:#000000;stroke-width:5;stroke-linecap:round;stroke-linejoin:round;stroke-miterlimit:4;stroke-dasharray:none;stroke-opacity:1"
     d="m 97.500413,164.9895 -0.002,0.0427"
     id="path14359-1-7-5-3-0-73-1-9-8-5-8-36"
     inkscape:connector-curvature="0"
     sodipodi:nodetypes="cc" />
  <path
     style="fill:none;stroke:#000000;stroke-width:0.5;stroke-linecap:round;stroke-linejoin:round;stroke-miterlimit:4;stroke-dasharray:none;stroke-opacity:1"
     d="m 50.028677,42.953228 0.02109,5.186234 1.203387,0.823214 0.842437,-1.538072 c 0.284824,-0.520014 0.837927,-0.963134 1.229429,-0.716613 0.417836,0.263103 -0.0411,1.421531 -0.34573,2.038547 -0.434914,0.880891 -0.872628,2.229127 -0.07689,2.616116 l 3.520515,1.712119 1.739874,-3.866038 c 0.200156,-0.44475 1.25759,0.09102 1.510749,-0.444192 l 1.030522,-2.17867 c 0.312729,-0.661156 1.81139,0.322109 2.239951,-0.415257 l 1.814095,-3.12126"
     id="path14359-1-7-5-3-0-73-1-9-8-5-8-30"
     inkscape:connector-curvature="0"
     sodipodi:nodetypes="cccsssscssssc" />
  <path
     style="fill:none;stroke:#000000;stroke-width:1;stroke-linecap:butt;stroke-linejoin:round;stroke-miterlimit:4;stroke-dasharray:none;stroke-opacity:1"
     d="m 56.627347,52.648286 c 0.250967,0.144312 0.786558,0.758569 1.532288,1.603728 8.898537,10.084999 10.458443,10.196764 14.984914,14.533295 1.694768,1.623652 3.283816,1.919333 4.352802,3.60701 1.200057,1.894604 0.775467,3.488799 1.365079,5.447579 1.056492,3.509829 1.608006,7.508656 4.132865,14.669679 m 3.888338,12.624973 c 2.484062,12.12874 5.128134,20.94803 10.962516,28.15134 0.688378,0.84989 1.454713,1.10392 2.126943,1.93768 0.841968,1.04428 1.528498,2.41883 2.357418,3.42268 1.53546,1.85949 1.07436,3.58715 0.93527,5.8351 -0.17396,2.81142 1.00532,6.79734 1.12221,10.11344 0.28249,8.01421 -1.58962,14.25651 -5.559032,20.52043 -5.140679,8.11223 -7.622915,16.62354 -7.898395,25.45178 m 0.96579,13.15768 c 0.07186,10.70832 -4.815742,23.40459 -6.238551,29.87325 -0.605056,2.75083 -1.210205,7.11912 -3.125964,9.65528 -2.018738,2.67249 -3.081008,4.18334 -3.091848,7.33779 l -0.03831,11.14778 c -0.0057,1.64912 -0.861686,2.88537 -0.842208,4.54017"
     id="path14359-1-7-5-3-0-73-1-9-8-5-8-30-8"
     inkscape:connector-curvature="0"
     sodipodi:nodetypes="cssssccssssssccssssc" />
  <path
     style="fill:none;stroke:#000000;stroke-width:1;stroke-linecap:butt;stroke-linejoin:miter;stroke-miterlimit:4;stroke-dasharray:none;stroke-opacity:1"
     d="m 100.6956,171.95409 c -3.710906,-0.36473 -9.075715,3.25186 -14.187898,6.30992 -2.137954,1.2789 -4.543402,2.20303 -6.386789,3.08981 -7.514291,3.61483 -13.119627,5.12256 -22.910197,9.65678 m -12.600401,4.04989 c -1.961938,0.40096 -5.291539,6.60707 -18.244182,6.65637 -3.852218,0.0147 -6.69064,-0.41869 -7.700511,0.24549"
     id="path14359-1-7-5-3-0-73-1-9-8-5-8-30-4"
     inkscape:connector-curvature="0"
     sodipodi:nodetypes="cssccsc" />
  <path
     style="fill:none;stroke:#000000;stroke-width:1;stroke-linecap:butt;stroke-linejoin:miter;stroke-miterlimit:4;stroke-dasharray:none;stroke-opacity:1"
     d="m 98.96039,166.3804 c 1.21121,-0.50742 3.04997,-0.60305 4.25714,-1.69871"
     id="path14359-1-7-5-3-0-73-1-9-8-5-8-30-0"
     inkscape:connector-curvature="0"
     sodipodi:nodetypes="cc" />
  <path
     style="fill:none;stroke:#000000;stroke-width:1;stroke-linecap:butt;stroke-linejoin:round;stroke-miterlimit:4;stroke-dasharray:none;stroke-opacity:1"
     d="m 46.683404,270.85033 c -0.214389,-6.13654 0.168171,-12.26899 0.165901,-16.5156 -7.55e-4,-1.41381 -0.0187,-2.64976 0.555122,-3.72473 1.211911,-2.27037 5.14964,-4.53711 7.373617,-6.55517 1.130111,-1.02547 1.730535,-3.23872 3.013381,-3.44769 1.548185,-0.2522 4.812703,1.89166 8.00364,2.38011 m 13.127239,0.57011 c 5.713598,-0.17143 12.099703,-0.57696 17.743805,-0.55628 5.389421,0.0197 10.106341,0.45639 12.747641,0.68389"
     id="path14359-1-7-5-3-0-73-1-9-8-5-8-30-46"
     inkscape:connector-curvature="0"
     sodipodi:nodetypes="cssssccsc" />
  <path
     style="fill:none;stroke:#000000;stroke-width:1;stroke-linecap:butt;stroke-linejoin:round;stroke-miterlimit:4;stroke-dasharray:none;stroke-opacity:1"
     d="m 72.380659,277.23795 c -1.725544,-0.63782 -3.390427,-2.53986 -4.78734,-3.35627 m -12.06172,-3.94944 c -1.861233,-0.54646 -4.527767,0.94787 -8.787934,0.76077 -0.58276,-0.0256 -1.229946,0.40929 -1.989477,0.36291 -1.875853,-0.11457 -3.940694,0.0907 -5.721279,0.14505 -1.005678,0.0307 -2.069468,0.3637 -3.084462,0.54406 -1.190823,0.21161 -2.29579,0.30655 -2.882624,0.84816 -1.158647,1.06937 -2.883005,2.57078 -4.174532,3.85815"
     id="path14359-1-7-5-3-0-73-1-9-8-5-8-30-464"
     inkscape:connector-curvature="0"
     sodipodi:nodetypes="cccsssssc" />
  <path
     style="fill:none;stroke:#000000;stroke-width:1;stroke-linecap:butt;stroke-linejoin:round;stroke-miterlimit:4;stroke-dasharray:none;stroke-opacity:1"
     d="m 135.23147,54.965582 c -0.61608,4.912686 -4.57556,9.324443 -6.26957,14.605861 -1.6889,5.265522 -1.60281,11.155847 -3.27519,16.219442 -0.68125,2.062658 -1.30859,4.133686 -1.84419,6.216258 -0.68636,2.668808 -0.0247,5.391355 -0.0243,7.915818 7.5e-4,4.905359 0.2074,8.600599 0.57823,12.499079 0.2574,2.70599 0.72648,5.68037 0.71048,8.51789 -0.0183,3.24439 -0.45323,7 -0.51154,10.49616 -0.0785,4.70384 -2.89193,8.63799 -2.94627,13.11339 -0.0291,2.39922 3.32813,4.13612 3.2397,7.51217 -0.0766,2.92555 -1.30546,5.76657 -1.68073,8.62922 -0.37733,2.87837 -0.76531,5.74196 -1.16568,8.5882 -0.6949,4.94013 -5.36494,6.6342 -5.6943,11.48005 -0.1187,1.74633 0.97452,2.90842 0.86774,4.32692 m -0.38997,13.24815 c -0.16501,3.42621 -1.44121,7.29325 -1.59697,9.26226 -0.41802,5.28429 -0.34553,10.62406 -0.52984,15.92984 -0.14444,4.15797 -3.44086,13.33658 -5.24002,19.96608 -1.21453,4.47526 -4.9116,11.45225 -5.04331,17.27851 -0.0825,3.64946 2.18327,6.72213 2.41534,11.70401"
     id="path14359-1-7-5-3-0-73-1-9-8-5-8-30-3"
     inkscape:connector-curvature="0"
     sodipodi:nodetypes="cssssssssssssccssssc" />
  <path
     style="fill:none;stroke:#000000;stroke-width:0.5;stroke-linecap:round;stroke-linejoin:round;stroke-miterlimit:4;stroke-dasharray:none;stroke-opacity:1"
     d="m 11.561125,267.23042 h 0.744047 l -5.2e-5,-0.40065 h 1.488094 l -1.21e-4,0.68683 h 3.205126 l -1.25e-4,0.71542 h 0.486492 l -9.8e-5,1.40224 h 3.090657 l -1.41e-4,1.0302 h -0.628818 v -0.54372 h -1.202683 l -9.2e-5,0.60099 h -0.51511 l -3.71e-4,2.40382 h 0.343406 l -4.64e-4,3.00483 h 3.348212 l -1.01e-4,0.65819 h 1.345008 l -2.97e-4,1.92212"
     id="path14359-1-7-5-3-0-73-1-9-8-5-8-30-84"
     inkscape:connector-curvature="0"
     sodipodi:nodetypes="ccccccccccccccccccccccc" />
  <path
     style="fill:none;stroke:#000000;stroke-width:0.5;stroke-linecap:round;stroke-linejoin:round;stroke-miterlimit:4;stroke-dasharray:none;stroke-opacity:1"
     d="m 108.83156,278.6424 -1e-5,-1.45005 h -0.63495 l -4e-5,-2.62446 -0.40217,-0.67729 -7e-5,-1.24874 h -1.24874 l -2e-5,-0.52912 h -1.52388 l -5e-5,-0.88894 -0.57223,-0.57145 h -1.90408 l -8e-5,0.46563 h 0.44447 l -4.5e-4,2.87843 h -0.50796 l -4.2e-4,0.88893 h -0.80427 l -8.2e-4,3.84121"
     id="path14359-1-7-5-3-0-73-1-9-8-5-8-30-00"
     inkscape:connector-curvature="0"
     sodipodi:nodetypes="ccccccccccccccccccc" />
  <g
     id="g979"
     sodipodi:insensitive="true">
    <text
       id="text9106-8"
       y="209.34625"
       x="87.24456"
       style="font-style:normal;font-variant:normal;font-weight:normal;font-stretch:normal;font-size:5.33333349px;line-height:6.66666651px;font-family:Arial;-inkscape-font-specification:Arial;text-align:start;letter-spacing:0.55000001px;word-spacing:0px;text-anchor:start;fill:#000000;fill-opacity:1;stroke:none"
       xml:space="preserve"><tspan
         y="209.34625"
         x="87.24456"
         id="tspan9104-3"
         sodipodi:role="line">225</tspan></text>
    <text
       id="text9106-8-54"
       y="271.55551"
       x="58.438213"
       style="font-style:normal;font-variant:normal;font-weight:normal;font-stretch:normal;font-size:5.33333349px;line-height:6.66666651px;font-family:Arial;-inkscape-font-specification:Arial;text-align:start;letter-spacing:0.55000001px;word-spacing:0px;text-anchor:start;fill:#000000;fill-opacity:1;stroke:none"
       xml:space="preserve"><tspan
         y="271.55551"
         x="58.438213"
         id="tspan9104-3-36"
         sodipodi:role="line">76</tspan></text>
    <text
       id="text9106-8-59"
       y="100.68534"
       x="81.419991"
       style="font-style:normal;font-variant:normal;font-weight:normal;font-stretch:normal;font-size:5.33333349px;line-height:6.66666651px;font-family:Arial;-inkscape-font-specification:Arial;text-align:start;letter-spacing:0.55000001px;word-spacing:0px;text-anchor:start;fill:#000000;fill-opacity:1;stroke:none"
       xml:space="preserve"><tspan
         y="100.68534"
         x="81.419991"
         id="tspan9104-3-5"
         sodipodi:role="line">74</tspan></text>
    <text
       id="text10647"
       y="143.24232"
       x="26.485689"
       style="font-style:normal;font-variant:normal;font-weight:normal;font-stretch:normal;font-size:5.33333349px;line-height:6.66666651px;font-family:Arial;-inkscape-font-specification:Arial;text-align:start;letter-spacing:0.34999999px;word-spacing:0px;text-anchor:start;fill:#000000;fill-opacity:1;stroke:none"
       xml:space="preserve"><tspan
         y="143.24232"
         x="26.485689"
         id="tspan10645"
         sodipodi:role="line">TENNESSEE</tspan></text>
    <text
       id="text10647-1"
       y="152.58357"
       x="29.893126"
       style="font-style:normal;font-variant:normal;font-weight:normal;font-stretch:normal;font-size:5.33333349px;line-height:6.66666651px;font-family:Arial;-inkscape-font-specification:Arial;text-align:start;letter-spacing:0.34999999px;word-spacing:0px;text-anchor:start;fill:#000000;fill-opacity:1;stroke:none"
       xml:space="preserve"><tspan
         y="152.58357"
         x="29.893126"
         id="tspan10645-5"
         sodipodi:role="line">GEORGIA</tspan></text>
    <text
       id="text10647-5"
       y="276.32016"
       x="110.17467"
       style="font-style:normal;font-variant:normal;font-weight:normal;font-stretch:normal;font-size:5.33333349px;line-height:6.66666651px;font-family:Arial;-inkscape-font-specification:Arial;text-align:start;letter-spacing:0.2px;word-spacing:0px;text-anchor:start;fill:#000000;fill-opacity:1;stroke:none"
       xml:space="preserve"><tspan
         y="276.32016"
         x="110.17467"
         id="tspan10645-58"
         sodipodi:role="line">CHATSWORTH</tspan></text>
    <text
       id="text10647-2"
       y="265.19608"
       x="14.006931"
       style="font-style:normal;font-variant:normal;font-weight:normal;font-stretch:normal;font-size:5.33333349px;line-height:6.66666651px;font-family:Arial;-inkscape-font-specification:Arial;text-align:start;letter-spacing:0.95999998px;word-spacing:0px;text-anchor:start;fill:#000000;fill-opacity:1;stroke:none"
       xml:space="preserve"><tspan
         y="265.19608"
         x="14.006931"
         id="tspan10645-9"
         sodipodi:role="line">DALTON</tspan></text>
    <text
       id="text10706"
       y="253.83638"
       x="143.58333"
       style="font-style:normal;font-variant:normal;font-weight:normal;font-stretch:normal;font-size:4px;line-height:6.66666651px;font-family:Arial;-inkscape-font-specification:Arial;text-align:start;letter-spacing:0px;word-spacing:0px;text-anchor:start;fill:#000000;fill-opacity:1;stroke:none"
       xml:space="preserve"><tspan
         y="253.83638"
         x="143.58333"
         id="tspan10704"
         sodipodi:role="line">0</tspan></text>
    <text
       id="text10710"
       y="253.67525"
       x="187.68663"
       style="font-style:normal;font-variant:normal;font-weight:normal;font-stretch:normal;font-size:4px;line-height:6.66666651px;font-family:Arial;-inkscape-font-specification:Arial;text-align:start;letter-spacing:0px;word-spacing:0px;text-anchor:start;fill:#000000;fill-opacity:1;stroke:none"
       xml:space="preserve"><tspan
         y="253.67525"
         x="187.68663"
         id="tspan10708"
         sodipodi:role="line">5</tspan></text>
    <text
       id="text10710-2"
       y="257.51767"
       x="193.69762"
       style="font-style:normal;font-variant:normal;font-weight:normal;font-stretch:normal;font-size:4px;line-height:6.66666651px;font-family:Arial;-inkscape-font-specification:Arial;text-align:start;letter-spacing:0.60000002px;word-spacing:0px;text-anchor:start;fill:#000000;fill-opacity:1;stroke:none"
       xml:space="preserve"><tspan
         y="257.51767"
         x="193.69762"
         id="tspan10708-0"
         sodipodi:role="line">Miles</tspan></text>
    <text
       id="text10710-2-7"
       y="257.63403"
       x="128.35091"
       style="font-style:normal;font-variant:normal;font-weight:normal;font-stretch:normal;font-size:4px;line-height:6.66666651px;font-family:Arial;-inkscape-font-specification:Arial;text-align:start;letter-spacing:0.60000002px;word-spacing:0px;text-anchor:start;fill:#000000;fill-opacity:1;stroke:none"
       xml:space="preserve"><tspan
         y="257.63403"
         x="128.35091"
         id="tspan10708-0-4"
         sodipodi:role="line">Scale</tspan></text>
    <text
       id="text10802"
       y="17.295929"
       x="67.701569"
       style="font-style:normal;font-variant:normal;font-weight:normal;font-stretch:normal;font-size:6.66666651px;line-height:6.66666651px;font-family:Arial;-inkscape-font-specification:Arial;text-align:start;letter-spacing:0.58999997px;word-spacing:1.16999996px;text-anchor:start;fill:#000000;fill-opacity:1;stroke:none"
       xml:space="preserve"><tspan
         y="17.295929"
         x="67.701569"
         id="tspan10800"
         sodipodi:role="line">CONASAUGA LOGPERCH</tspan></text>
    <text
       id="text10802-2"
       y="28.098032"
       x="81.264641"
       style="font-style:normal;font-variant:normal;font-weight:normal;font-stretch:normal;font-size:5.33333349px;line-height:6.66666651px;font-family:Arial;-inkscape-font-specification:Arial;text-align:start;letter-spacing:1.07000005px;word-spacing:0.2px;text-anchor:start;fill:#000000;fill-opacity:1;stroke:none"
       xml:space="preserve"><tspan
         y="28.098032"
         x="81.264641"
         id="tspan10800-2"
         sodipodi:role="line">CRITICAL HABITAT</tspan></text>
    <text
       id="text10802-2-7"
       y="38.771935"
       x="68.739471"
       style="font-style:normal;font-variant:normal;font-weight:normal;font-stretch:normal;font-size:5.33333349px;line-height:6.66666651px;font-family:Arial;-inkscape-font-specification:Arial;text-align:start;letter-spacing:0.94999999px;word-spacing:0.42999998px;text-anchor:start;fill:#000000;fill-opacity:1;stroke:none"
       xml:space="preserve"><tspan
         y="38.771935"
         x="68.739471"
         id="tspan10800-2-1"
         sodipodi:role="line">GEORGIA AND TENNESSEE</tspan></text>
    <text
       id="text9106-8-54-5"
       y="193.97859"
       x="112.20185"
       style="font-style:normal;font-variant:normal;font-weight:normal;font-stretch:normal;font-size:5.33333349px;line-height:6.66666651px;font-family:Arial;-inkscape-font-specification:Arial;text-align:start;letter-spacing:0.55000001px;word-spacing:0px;text-anchor:start;fill:#000000;fill-opacity:1;stroke:none"
       xml:space="preserve"><tspan
         y="193.97859"
         x="112.20185"
         id="tspan9104-3-36-2"
         sodipodi:role="line">411</tspan></text>
    <text
       id="text9106-8-1"
       y="245.65869"
       x="67.19133"
       style="font-style:normal;font-variant:normal;font-weight:normal;font-stretch:normal;font-size:5.33333349px;line-height:6.66666651px;font-family:Arial;-inkscape-font-specification:Arial;text-align:start;letter-spacing:0.55000001px;word-spacing:0px;text-anchor:start;fill:#000000;fill-opacity:1;stroke:none"
       xml:space="preserve"><tspan
         y="245.65869"
         x="67.19133"
         id="tspan9104-3-0"
         sodipodi:role="line">286</tspan></text>
    <text
       id="text9106-8-87"
       y="159.65692"
       x="76.845886"
       style="font-style:normal;font-variant:normal;font-weight:normal;font-stretch:normal;font-size:5.33333349px;line-height:6.66666651px;font-family:Arial;-inkscape-font-specification:Arial;text-align:start;letter-spacing:0.55000001px;word-spacing:0px;text-anchor:start;fill:#000000;fill-opacity:1;stroke:none"
       xml:space="preserve"><tspan
         y="159.65692"
         x="76.845886"
         id="tspan9104-3-6"
         sodipodi:role="line">173</tspan></text>
    <text
       id="text9106-8-0"
       y="195.48039"
       x="49.660698"
       style="font-style:normal;font-variant:normal;font-weight:normal;font-stretch:normal;font-size:5.33333349px;line-height:6.66666651px;font-family:Arial;-inkscape-font-specification:Arial;text-align:start;letter-spacing:0.55000001px;word-spacing:0px;text-anchor:start;fill:#000000;fill-opacity:1;stroke:none"
       xml:space="preserve"><tspan
         y="195.48039"
         x="49.660698"
         id="tspan9104-3-9"
         sodipodi:role="line">2</tspan></text>
    <text
       id="text10647-1-6"
       y="49.858601"
       x="64.287582"
       style="font-style:normal;font-variant:normal;font-weight:normal;font-stretch:normal;font-size:5.33333349px;line-height:6.66666651px;font-family:Arial;-inkscape-font-specification:Arial;text-align:start;letter-spacing:0.34999999px;word-spacing:0px;text-anchor:start;fill:#000000;fill-opacity:1;stroke:none"
       xml:space="preserve"><tspan
         y="49.858601"
         x="64.287582"
         id="tspan10645-5-2"
         sodipodi:role="line">CLEVELAND</tspan></text>
    <text
       id="text14081"
       y="106.89239"
       x="33.298416"
       style="font-style:normal;font-variant:normal;font-weight:normal;font-stretch:normal;font-size:5.33333349px;line-height:6.66666651px;font-family:Arial;-inkscape-font-specification:Arial;text-align:start;letter-spacing:0.44999999px;word-spacing:2px;text-anchor:start;fill:#000000;fill-opacity:1;stroke:none"
       xml:space="preserve"><tspan
         y="106.89239"
         x="33.298416"
         id="tspan14079"
         sodipodi:role="line">Bradley Co.</tspan></text>
    <text
       id="text14081-3"
       y="219.207"
       x="21.66044"
       style="font-style:normal;font-variant:normal;font-weight:normal;font-stretch:normal;font-size:5.33333349px;line-height:6.66666651px;font-family:Arial;-inkscape-font-specification:Arial;text-align:start;letter-spacing:0.44999999px;word-spacing:2px;text-anchor:start;fill:#000000;fill-opacity:1;stroke:none"
       xml:space="preserve"><tspan
         y="219.207"
         x="21.66044"
         id="tspan14079-7"
         sodipodi:role="line">Whitfield Co.</tspan></text>
    <text
       id="text14081-5"
       y="214.68277"
       x="127.16576"
       style="font-style:normal;font-variant:normal;font-weight:normal;font-stretch:normal;font-size:5.33333349px;line-height:6.66666651px;font-family:Arial;-inkscape-font-specification:Arial;text-align:start;letter-spacing:0.44999999px;word-spacing:2px;text-anchor:start;fill:#000000;fill-opacity:1;stroke:none"
       xml:space="preserve"><tspan
         y="214.68277"
         x="127.16576"
         id="tspan14079-72"
         sodipodi:role="line">Murray Co.</tspan></text>
    <text
       id="text14081-9"
       y="102.66254"
       x="164.35503"
       style="font-style:normal;font-variant:normal;font-weight:normal;font-stretch:normal;font-size:5.33333349px;line-height:6.66666651px;font-family:Arial;-inkscape-font-specification:Arial;text-align:start;letter-spacing:0.44999999px;word-spacing:2px;text-anchor:start;fill:#000000;fill-opacity:1;stroke:none"
       xml:space="preserve"><tspan
         y="102.66254"
         x="164.35503"
         id="tspan14079-75"
         sodipodi:role="line">Polk Co.</tspan></text>
    <text
       id="text14081-6"
       y="183.56168"
       x="184.10275"
       style="font-style:normal;font-variant:normal;font-weight:normal;font-stretch:normal;font-size:5.33333349px;line-height:6.66666651px;font-family:Arial;-inkscape-font-specification:Arial;text-align:start;letter-spacing:0.44999999px;word-spacing:2px;text-anchor:start;fill:#000000;fill-opacity:1;stroke:none"
       xml:space="preserve"><tspan
         y="183.56168"
         x="184.10275"
         id="tspan14079-5"
         sodipodi:role="line">Fannin Co.</tspan></text>
    <text
       transform="rotate(-43.392384)"
       id="text14081-6-3"
       y="205.63701"
       x="16.691793"
       style="font-style:italic;font-variant:normal;font-weight:normal;font-stretch:normal;font-size:4px;line-height:6.66666651px;font-family:Arial;-inkscape-font-specification:'Arial Italic';text-align:start;letter-spacing:0.5px;word-spacing:0px;text-anchor:start;fill:#000000;fill-opacity:1;stroke:none"
       xml:space="preserve"><tspan
         y="205.63701"
         x="16.691793"
         id="tspan14079-5-0"
         sodipodi:role="line">HALFWAY</tspan></text>
    <text
       transform="rotate(-43.392384)"
       id="text14081-6-3-4"
       y="212.15797"
       x="23.751463"
       style="font-style:italic;font-variant:normal;font-weight:normal;font-stretch:normal;font-size:4px;line-height:6.66666651px;font-family:Arial;-inkscape-font-specification:'Arial Italic';text-align:start;letter-spacing:0.5px;word-spacing:0px;text-anchor:start;fill:#000000;fill-opacity:1;stroke:none"
       xml:space="preserve"><tspan
         y="212.15797"
         x="23.751463"
         id="tspan14079-5-0-8"
         sodipodi:role="line">BR.</tspan></text>
    <text
       transform="rotate(62.186294)"
       id="text14081-6-3-5"
       y="-58.048286"
       x="215.8848"
       style="font-style:italic;font-variant:normal;font-weight:normal;font-stretch:normal;font-size:4px;line-height:6.66666651px;font-family:Arial;-inkscape-font-specification:'Arial Italic';text-align:start;letter-spacing:0.5px;word-spacing:0px;text-anchor:start;fill:#000000;fill-opacity:1;stroke:none"
       xml:space="preserve"><tspan
         y="-58.048286"
         x="215.8848"
         id="tspan14079-5-0-5"
         sodipodi:role="line">COHASAUGA</tspan></text>
    <text
       transform="rotate(58.589751)"
       id="text14081-6-3-54"
       y="-42.180038"
       x="257.31174"
       style="font-style:italic;font-variant:normal;font-weight:normal;font-stretch:normal;font-size:4px;line-height:6.66666651px;font-family:Arial;-inkscape-font-specification:'Arial Italic';text-align:start;letter-spacing:0.5px;word-spacing:0px;text-anchor:start;fill:#000000;fill-opacity:1;stroke:none"
       xml:space="preserve"><tspan
         y="-42.180038"
         x="257.31174"
         id="tspan14079-5-0-2"
         sodipodi:role="line">R.</tspan></text>
  </g>
  <flowRoot
     xml:space="preserve"
     id="flowRoot14216"
     style="fill:black;fill-opacity:1;stroke:none;font-family:Arial;font-style:normal;font-weight:normal;font-size:5.33333333px;line-height:6.66666651px;letter-spacing:0px;word-spacing:0px;-inkscape-font-specification:Arial;font-stretch:normal;font-variant:normal;text-anchor:start;text-align:start"><flowRegion
       id="flowRegion14218"><rect
         id="rect14220"
         width="10.771358"
         height="19.328043"
         x="137.71231"
         y="174.55859" /></flowRegion><flowPara
       id="flowPara14222" /></flowRoot></svg>
