<?xml version="1.0" encoding="UTF-8" standalone="no"?>
<!-- Created with Inkscape (http://www.inkscape.org/) -->

<svg
   xmlns:dc="http://purl.org/dc/elements/1.1/"
   xmlns:cc="http://creativecommons.org/ns#"
   xmlns:rdf="http://www.w3.org/1999/02/22-rdf-syntax-ns#"
   xmlns:svg="http://www.w3.org/2000/svg"
   xmlns="http://www.w3.org/2000/svg"
   xmlns:sodipodi="http://sodipodi.sourceforge.net/DTD/sodipodi-0.dtd"
   xmlns:inkscape="http://www.inkscape.org/namespaces/inkscape"
   version="1.1"
   id="svg22038"
   width="218.24001"
   height="243.84"
   viewBox="0 0 218.24001 243.84"
   sodipodi:docname="ec01jn91.053*.svg"
   inkscape:version="0.92.2 5c3e80d, 2017-08-06">
  <metadata
     id="metadata22044">
    <rdf:RDF>
      <cc:Work
         rdf:about="">
        <dc:format>image/svg+xml</dc:format>
        <dc:type
           rdf:resource="http://purl.org/dc/dcmitype/StillImage" />
        <dc:title></dc:title>
      </cc:Work>
    </rdf:RDF>
  </metadata>
  <defs
     id="defs22042" />
  <sodipodi:namedview
     pagecolor="#ffffff"
     bordercolor="#666666"
     borderopacity="1"
     objecttolerance="10"
     gridtolerance="10"
     guidetolerance="10"
     inkscape:pageopacity="0"
     inkscape:pageshadow="2"
     inkscape:window-width="1280"
     inkscape:window-height="756"
     id="namedview22040"
     showgrid="false"
     inkscape:zoom="2.2260319"
     inkscape:cx="105.19198"
     inkscape:cy="121.49834"
     inkscape:window-x="0"
     inkscape:window-y="0"
     inkscape:window-maximized="0"
     inkscape:current-layer="svg22038" />
  <path
     style="fill:none;stroke:#000000;stroke-width:1;stroke-linecap:butt;stroke-linejoin:miter;stroke-miterlimit:4;stroke-dasharray:none;stroke-opacity:1"
     d="m 2.1462565,8.8825371 -0.002,227.2709529 212.1583335,0 0.002,-227.2709529 z"
     id="path14359-1-7-5-3-0-73-1-9-8-5"
     inkscape:connector-curvature="0"
     sodipodi:nodetypes="ccccc" />
  <path
     style="fill:none;stroke:#000000;stroke-width:1;stroke-linecap:butt;stroke-linejoin:miter;stroke-miterlimit:4;stroke-dasharray:none;stroke-opacity:1"
     d="m 211.24237,12.436036 -0.002,48.409714 -65.45875,0 0.002,-48.409714 z"
     id="path14359-1-7-5-3-0-73-1-9-8-9"
     inkscape:connector-curvature="0"
     sodipodi:nodetypes="ccccc" />
  <path
     style="fill:none;stroke:#000000;stroke-width:1;stroke-linecap:butt;stroke-linejoin:miter;stroke-miterlimit:4;stroke-dasharray:none;stroke-opacity:1"
     d="m 10.246377,224.75419 -0.002,5.98337 57.196638,0 0.002,-5.98337 m 0,1.4521 -57.196638,0 m 57.196638,2.25882 -57.196638,0"
     id="path14359-1-7-5-3-0-73-1-9-8-7"
     inkscape:connector-curvature="0"
     sodipodi:nodetypes="cccccccc" />
  <path
     style="fill:none;stroke:#000000;stroke-width:1;stroke-linecap:butt;stroke-linejoin:miter;stroke-miterlimit:4;stroke-dasharray:none;stroke-opacity:1"
     d="m 38.715945,224.75419 -0.002,1.39929"
     id="path14359-1-7-5-3-0-73-1-9-8"
     inkscape:connector-curvature="0"
     sodipodi:nodetypes="cc" />
  <path
     style="fill:none;stroke:#000000;stroke-width:1;stroke-linecap:butt;stroke-linejoin:miter;stroke-miterlimit:4;stroke-dasharray:none;stroke-opacity:1"
     d="m 24.515628,224.75419 -0.002,1.43375"
     id="path14359-1-7-5-3-0-73-1-9-8-53"
     inkscape:connector-curvature="0"
     sodipodi:nodetypes="cc" />
  <path
     style="fill:#000000;fill-opacity:1;stroke:#000000;stroke-width:1;stroke-linecap:butt;stroke-linejoin:miter;stroke-miterlimit:4;stroke-dasharray:none;stroke-opacity:1"
     d="m 67.441015,230.73756 0.002,-2.27245 H 39.111314 l -0.002,2.27245 z"
     id="path14359-1-7-5-3-0-73-1-9-8-55"
     inkscape:connector-curvature="0"
     sodipodi:nodetypes="ccccc" />
  <path
     style="fill:#000000;fill-opacity:1;stroke:#000000;stroke-width:1;stroke-linecap:butt;stroke-linejoin:miter;stroke-miterlimit:4;stroke-dasharray:none;stroke-opacity:1"
     d="m 38.146244,228.46511 0.002,-2.25971 H 24.878531 l -0.002,2.25971 z"
     id="path14359-1-7-5-3-0-73-1-9-8-55-6"
     inkscape:connector-curvature="0"
     sodipodi:nodetypes="ccccc" />
  <path
     style="fill:#000000;stroke:#000000;stroke-width:1;stroke-linecap:butt;stroke-linejoin:miter;stroke-miterlimit:4;stroke-dasharray:none;stroke-opacity:1;fill-opacity:1"
     d="m 23.901719,230.63167 0.002,-2.19078 h -1.861207 l -0.002,2.19078 z"
     id="path14359-1-7-5-3-0-73-1-9-8-55-3"
     inkscape:connector-curvature="0"
     sodipodi:nodetypes="ccccc" />
  <path
     style="fill:#000000;fill-opacity:1;stroke:#000000;stroke-width:1;stroke-linecap:butt;stroke-linejoin:miter;stroke-miterlimit:4;stroke-dasharray:none;stroke-opacity:1"
     d="m 12.303644,230.66613 0.002,-2.19078 h -1.861208 l -0.002,2.19078 z"
     id="path14359-1-7-5-3-0-73-1-9-8-55-3-2"
     inkscape:connector-curvature="0"
     sodipodi:nodetypes="ccccc" />
  <path
     style="fill:#000000;fill-opacity:1;stroke:#000000;stroke-width:1;stroke-linecap:butt;stroke-linejoin:miter;stroke-miterlimit:4;stroke-dasharray:none;stroke-opacity:1"
     d="m 15.336722,228.39133 0.002,-2.19078 H 13.30518 l -0.002,2.19078 z"
     id="path14359-1-7-5-3-0-73-1-9-8-55-3-6"
     inkscape:connector-curvature="0"
     sodipodi:nodetypes="ccccc" />
  <path
     style="fill:#000000;fill-opacity:1;stroke:#000000;stroke-width:1;stroke-linecap:butt;stroke-linejoin:miter;stroke-miterlimit:4;stroke-dasharray:none;stroke-opacity:1"
     d="m 18.369799,230.66613 0.002,-2.19078 h -2.033542 l -0.002,2.19078 z"
     id="path14359-1-7-5-3-0-73-1-9-8-55-3-8"
     inkscape:connector-curvature="0"
     sodipodi:nodetypes="ccccc" />
  <path
     style="fill:#000000;fill-opacity:1;stroke:#000000;stroke-width:1;stroke-linecap:butt;stroke-linejoin:miter;stroke-miterlimit:4;stroke-dasharray:none;stroke-opacity:1"
     d="m 21.058209,228.42579 0.002,-2.19078 h -1.688874 l -0.002,2.19078 z"
     id="path14359-1-7-5-3-0-73-1-9-8-55-3-9"
     inkscape:connector-curvature="0"
     sodipodi:nodetypes="ccccc" />
  <path
     style="fill:none;fill-opacity:1;stroke:#000000;stroke-width:1;stroke-linecap:butt;stroke-linejoin:miter;stroke-miterlimit:4;stroke-dasharray:none;stroke-opacity:1"
     d="m 175.66847,19.780618 -19.27831,0 m 0,-1.06892 -0.002,2.945312 19.27831,0 0.002,-2.945312"
     id="path14359-1-7-5-3-0-73-1-9-8-55-3-1"
     inkscape:connector-curvature="0"
     sodipodi:nodetypes="cccccc" />
  <path
     style="fill:#000000;fill-opacity:1;stroke:#000000;stroke-width:1;stroke-linecap:butt;stroke-linejoin:miter;stroke-miterlimit:4;stroke-dasharray:none;stroke-opacity:1"
     d="m 165.37454,21.555625 0.002,-1.745318 -3.98572,0 -0.002,1.745318 z"
     id="path14359-1-7-5-3-0-73-1-9-8-55-3-4"
     inkscape:connector-curvature="0"
     sodipodi:nodetypes="ccccc" />
  <path
     style="fill:#000000;fill-opacity:1;stroke:#000000;stroke-width:1;stroke-linecap:butt;stroke-linejoin:miter;stroke-miterlimit:4;stroke-dasharray:none;stroke-opacity:1"
     d="m 158.24937,21.594469 0.002,-1.813851 h -1.86121 l -0.002,1.813851 z"
     id="path14359-1-7-5-3-0-73-1-9-8-55-3-88"
     inkscape:connector-curvature="0"
     sodipodi:nodetypes="ccccc" />
  <path
     style="fill:#000000;fill-opacity:1;stroke:#000000;stroke-width:1;stroke-linecap:butt;stroke-linejoin:miter;stroke-miterlimit:4;stroke-dasharray:none;stroke-opacity:1"
     d="m 175.66647,21.628735 0.002,-1.848117 h -4.84237 l -0.002,1.848117 z"
     id="path14359-1-7-5-3-0-73-1-9-8-55-3-7"
     inkscape:connector-curvature="0"
     sodipodi:nodetypes="ccccc" />
  <path
     style="fill:none;fill-opacity:1;stroke:#000000;stroke-width:1;stroke-linecap:butt;stroke-linejoin:miter;stroke-miterlimit:4;stroke-dasharray:none;stroke-opacity:1"
     d="m 162.2464,18.745965 -0.002,1.162792 m 3.57452,0 0.002,-1.162792"
     id="path14359-1-7-5-3-0-73-1-9-8-55-3-19"
     inkscape:connector-curvature="0"
     sodipodi:nodetypes="cccc" />
  <path
     style="fill:none;stroke:#000000;stroke-width:2;stroke-linecap:round;stroke-linejoin:round;stroke-miterlimit:4;stroke-dasharray:none;stroke-opacity:1"
     d="m 59.197319,57.344702 -0.002,1.175302 c 0.264576,1.171426 -1.39553,2.768751 -0.292872,3.87141 0.511111,0.51111 1.365929,-4.58e-4 1.879411,0.256283 0.317491,0.158745 2.2473,-0.144677 2.30655,-0.08543 0.09065,0.09065 0.826096,0.66889 1.067847,0.427139 0.148247,-0.148247 0.555649,-0.341711 0.896992,-0.341711 0.57467,0 1.394958,0.818864 2.09298,0.469853 0.148606,-0.0743 0.956647,-0.538339 1.195989,-0.298998 1.006339,1.00634 2.593961,0.566867 3.374397,-0.213569 1.110239,-1.110239 0.953711,-2.363965 0.298997,-3.673394 -0.468376,-0.936752 0.393124,-2.810417 -0.298997,-3.502539 -0.611387,-0.611387 -1.610247,-0.414257 -2.050267,-0.854277 -0.296891,-0.296892 -0.477363,-0.494965 -0.854278,-0.683423 -0.213464,-0.106732 -0.674242,0.180036 -0.811563,0.04271 -0.313519,-0.313518 -0.97892,-0.380925 -1.281417,-0.683422 -0.41489,-0.41489 -1.386748,0.780255 -1.836697,0.555281 -0.460604,-0.230303 -2.013155,-1.318528 -2.648261,-0.683422 -0.952008,0.952007 0.02202,1.900104 -0.76885,2.690974 -0.445458,0.445458 -1.502453,0.434606 -1.708555,0.640709 -0.165348,0.165348 -0.215675,0.38653 -0.384425,0.55528 -0.1091,0.1091 -0.215882,0.161006 -0.174981,0.335238 z"
     id="path14359-1-7-5-3-0-73-1-9-8-1"
     inkscape:connector-curvature="0"
     sodipodi:nodetypes="cc" />
  <path
     style="fill:none;stroke:#000000;stroke-width:1;stroke-linecap:round;stroke-linejoin:round;stroke-opacity:1;stroke-miterlimit:4;stroke-dasharray:none"
     d="m 163.41702,47.442324 c 0.48482,-0.516252 0.61539,-1.203157 1.3447,-1.203157 0.5166,0 0.86556,0.07077 1.41548,0.07077 0.28478,0 0.57059,-0.141548 0.99084,-0.141548 0.37976,0 2.11684,0.643342 1.41548,1.344705 -0.34222,0.342212 -0.92502,0.358828 -1.20316,0.636966 -0.85026,0.850255 -2.35634,1.253135 -3.32638,0.283095 -0.28914,-0.289147 -0.86863,-0.295841 -0.63696,-0.990835 z"
     id="path22765"
     inkscape:connector-curvature="0" />
  <path
     style="fill:none;stroke:#000000;stroke-width:1px;stroke-linecap:round;stroke-linejoin:round;stroke-opacity:1"
     d="m 209.01426,25.118012 c -1.89563,-0.290763 -4.87293,-0.666885 -5.7487,1.084662 -0.43186,0.86371 0.60286,2.976522 -0.10847,3.687848 -0.46445,0.464455 -0.68052,0.897458 -1.13889,1.355827 -0.32569,0.325692 -3.27084,0.721884 -3.57939,1.030429 -0.18347,0.183478 -0.27353,0.381997 -0.43386,0.54233 -0.25315,0.253152 0.37366,1.024454 0.4881,1.138895 0.53448,0.534481 0.75529,1.62302 1.30159,2.169323 0.6612,0.661199 1.46189,-0.275979 2.16932,1.138894 0.193,0.385988 0.009,0.93965 0.21694,1.355827 0.24433,0.488662 2.01291,2.271502 1.24736,3.037052 -0.17643,0.176429 -0.45497,0.238037 -0.59657,0.379632 -0.17753,0.177539 -0.18449,0.564124 -0.32539,0.70503 -0.0782,0.07822 0.0542,0.303007 0.0542,0.325398 0,0.563554 -0.18042,1.445495 -0.43387,1.952391 -0.34891,0.697826 -0.10712,2.059514 -0.65079,2.603187 -0.11928,0.119279 -0.0514,1.738293 0.0542,1.843925 0.28338,0.283384 1.5355,0.128742 1.03043,1.138894 -0.0677,0.135442 -1.4579,1.186729 -1.84393,1.57276 -0.11378,0.113785 0.86785,2.006858 0.9762,2.223556 0.59969,1.199376 0.26351,-0.592736 1.03043,-0.976196 0.1084,-0.0542 0.34058,-0.182224 0.4881,-0.108466 0.27273,0.13637 2.68912,1.39421 2.87435,1.301594 1.0564,-0.5282 0.16756,-1.735458 1.84392,-1.735458 0.40796,0 1.96716,-0.04431 1.84393,0.325398"
     id="path22767"
     inkscape:connector-curvature="0" />
  <path
     style="fill:none;stroke:#000000;stroke-width:1px;stroke-linecap:round;stroke-linejoin:round;stroke-opacity:1"
     d="m 108.99849,230.7582 c 1.03011,-0.93491 0.831,-2.50942 1.62905,-3.30747 0.96186,-0.96186 1.85279,-1.60596 2.71509,-2.46826 0.3587,-0.3587 0.34703,-1.08751 0.69111,-1.43159 0.43453,-0.43453 0.87105,-0.92042 1.38223,-1.4316 0.20159,-0.20158 0.17521,-0.61949 0.34556,-0.78984 0.39606,-0.39606 -0.49365,-1.2892 -0.49365,-1.62905 0,-3.06183 0.16735,-4.1768 -1.62906,-5.9732 -0.33242,-0.33243 -0.0757,-2.39591 -0.24682,-2.56699 -0.35217,-0.35217 -0.84517,-0.99923 -1.08604,-1.48096 -0.22011,-0.44022 0.65171,-1.39219 0.88857,-1.62906 0.41688,-0.41687 -0.33501,-1.88642 0.0494,-2.2708 0.78571,-0.78571 1.55518,-1.85137 2.36953,-2.66572 0.39713,-0.39713 0.35729,-1.14713 0.74048,-1.53032 0.4487,-0.4487 -0.0108,-1.86513 0.44429,-2.32017 0.72763,-0.72763 3.45105,-4.07936 4.09731,-4.29478 0.99382,-0.97352 2.07785,-1.78168 3.10999,-2.81382 0.32605,-0.32605 1.42402,-0.29241 1.82651,-0.49365 0.75183,-0.37591 2.43433,0.70808 3.5543,0.1481 1.11552,-0.55776 3.45823,-1.58236 4.39351,-2.51763 0.50487,-0.50488 1.94289,-0.21512 2.41889,-0.69112 0.52184,-0.52183 1.97429,0.61723 2.51763,0.34556 0.27738,-0.13869 0.77874,0.0111 0.98731,-0.19746 0.56942,-0.56942 2.75374,-0.43357 3.06064,-0.74048 0.45743,-0.45743 1.15702,-0.66336 1.62906,-1.1354 0.46027,-0.46027 2.41298,0.42256 3.15937,0.0494 0.62009,-0.31004 0.89595,-0.89594 1.2835,-1.28349 0.38852,-0.38853 1.87962,-0.10247 2.81382,-1.03667 0.23252,-0.23252 0.70612,0.72547 1.08604,0.34555 0.68383,-0.68383 1.10229,-1.61279 2.02397,-0.69111 0.071,0.071 0.57756,0.0559 0.64175,0.0987 0.1116,-0.0112 0.37093,0.024 0.44429,-0.0494 0.21929,-0.2193 0.34771,-0.59455 0.54301,-0.78985 0.47899,-0.47898 2.32147,-1.6297 2.91255,-1.92524 0.531,-0.2655 1.42598,0.4499 1.67842,0.19746 0.49586,-0.49586 1.05032,-0.85285 1.57969,-1.38223 0.61249,-0.61249 1.99063,-0.65777 2.81382,-1.48096 0.0962,-0.0962 0.84718,-0.24882 1.03667,-0.29619 0.62237,-0.15559 1.50121,-0.85946 1.87588,-1.23413 0.36922,-0.36922 1.13987,-0.25129 1.48096,-0.59238 0.1056,-0.10561 0.48678,0.007 0.59238,-0.0987 0.61187,-0.61187 4.10587,-0.6503 5.52891,-2.07334 0.3768,-0.3768 3.6715,-0.1172 4.49224,-0.93794 0.0674,-0.0674 0.37688,0.018 0.44429,-0.0494 0.52972,-0.52972 1.80993,-0.46068 2.56699,-0.83921 2.50188,-1.25094 7.26544,-1.88942 9.97178,-0.9873 1.22709,0.86175 3.43957,0.45543 4.88716,0.93797"
     id="path22769"
     inkscape:connector-curvature="0" />
  <text
     xml:space="preserve"
     style="font-style:normal;font-variant:normal;font-weight:normal;font-stretch:normal;font-size:4px;line-height:6.66666651px;font-family:Arial;-inkscape-font-specification:Arial;text-align:start;letter-spacing:0px;word-spacing:0px;text-anchor:start;fill:#000000;fill-opacity:1;stroke:none"
     x="139.05727"
     y="-13.855605"
     id="text22779-9"><tspan
       sodipodi:role="line"
       id="tspan22777-5"
       x="139.05727"
       y="-9.4192543" /></text>
  <g
     id="g899"
     sodipodi:insensitive="true">
    <text
       id="text22775"
       y="222.78328"
       x="8.9491358"
       style="font-style:normal;font-variant:normal;font-weight:normal;font-stretch:normal;font-size:4px;line-height:6.66666651px;font-family:Arial;-inkscape-font-specification:Arial;text-align:start;letter-spacing:0px;word-spacing:0px;text-anchor:start;fill:#000000;fill-opacity:1;stroke:none"
       xml:space="preserve"><tspan
         y="222.78328"
         x="8.9491358"
         id="tspan22773"
         sodipodi:role="line">0</tspan></text>
    <text
       id="text22779"
       y="222.75478"
       x="21.078171"
       style="font-style:normal;font-variant:normal;font-weight:normal;font-stretch:normal;font-size:4px;line-height:6.66666651px;font-family:Arial;-inkscape-font-specification:Arial;text-align:start;letter-spacing:0px;word-spacing:0px;text-anchor:start;fill:#000000;fill-opacity:1;stroke:none"
       xml:space="preserve"><tspan
         y="222.75478"
         x="21.078171"
         id="tspan22777"
         sodipodi:role="line">0.5</tspan></text>
    <text
       id="text22783"
       y="222.38512"
       x="37.410542"
       style="font-style:normal;font-variant:normal;font-weight:normal;font-stretch:normal;font-size:4px;line-height:6.66666651px;font-family:Arial;-inkscape-font-specification:Arial;text-align:start;letter-spacing:0px;word-spacing:0px;text-anchor:start;fill:#000000;fill-opacity:1;stroke:none"
       xml:space="preserve"><tspan
         y="222.38512"
         x="37.410542"
         id="tspan22781"
         sodipodi:role="line">1</tspan></text>
    <text
       id="text22787"
       y="222.94182"
       x="66.101776"
       style="font-style:normal;font-variant:normal;font-weight:normal;font-stretch:normal;font-size:4px;line-height:6.66666651px;font-family:Arial;-inkscape-font-specification:Arial;text-align:start;letter-spacing:0.40000001px;word-spacing:0px;text-anchor:start;fill:#000000;fill-opacity:1;stroke:none"
       xml:space="preserve"><tspan
         y="222.94182"
         x="66.101776"
         id="tspan22785"
         sodipodi:role="line">2 KILOMETERS</tspan></text>
    <text
       id="text22775-1"
       y="17.536806"
       x="155.41815"
       style="font-style:normal;font-variant:normal;font-weight:normal;font-stretch:normal;font-size:4px;line-height:6.66666651px;font-family:Arial;-inkscape-font-specification:Arial;text-align:start;letter-spacing:0px;word-spacing:0px;text-anchor:start;fill:#000000;fill-opacity:1;stroke:none"
       xml:space="preserve"><tspan
         y="17.536806"
         x="155.41815"
         id="tspan22773-4"
         sodipodi:role="line">0</tspan></text>
    <text
       id="text22783-9"
       y="17.263599"
       x="164.01158"
       style="font-style:normal;font-variant:normal;font-weight:normal;font-stretch:normal;font-size:4px;line-height:6.66666651px;font-family:Arial;-inkscape-font-specification:Arial;text-align:start;letter-spacing:0px;word-spacing:0px;text-anchor:start;fill:#000000;fill-opacity:1;stroke:none"
       xml:space="preserve"><tspan
         y="17.263599"
         x="164.01158"
         id="tspan22781-0"
         sodipodi:role="line">20</tspan></text>
    <text
       id="text22787-9"
       y="17.320477"
       x="173.33467"
       style="font-style:normal;font-variant:normal;font-weight:normal;font-stretch:normal;font-size:4px;line-height:6.66666651px;font-family:Arial;-inkscape-font-specification:Arial;text-align:start;letter-spacing:0px;word-spacing:0px;text-anchor:start;fill:#000000;fill-opacity:1;stroke:none"
       xml:space="preserve"><tspan
         y="17.320477"
         x="173.33467"
         id="tspan22785-3"
         sodipodi:role="line">43 KILOMETERS</tspan></text>
    <text
       id="text22846"
       y="59.308559"
       x="74.709084"
       style="font-style:normal;font-variant:normal;font-weight:normal;font-stretch:normal;font-size:5.33333349px;line-height:6.66666651px;font-family:Arial;-inkscape-font-specification:Arial;text-align:start;letter-spacing:0.49000001px;word-spacing:0px;text-anchor:start;fill:#000000;fill-opacity:1;stroke:none"
       xml:space="preserve"><tspan
         y="59.308559"
         x="74.709084"
         id="tspan22844"
         sodipodi:role="line">ISLA MONITO</tspan></text>
    <text
       id="text22787-4"
       y="50.28656"
       x="200.45766"
       style="font-style:normal;font-variant:normal;font-weight:normal;font-stretch:normal;font-size:4px;line-height:4.80000019px;font-family:Arial;-inkscape-font-specification:Arial;text-align:end;letter-spacing:0.40000001px;word-spacing:0px;text-anchor:end;fill:#000000;fill-opacity:1;stroke:none"
       xml:space="preserve"><tspan
         y="50.28656"
         x="200.85765"
         id="tspan22785-7"
         sodipodi:role="line">PUERTO</tspan><tspan
         id="tspan22868"
         y="55.086559"
         x="200.85765"
         sodipodi:role="line">RICO</tspan></text>
    <text
       id="text22872"
       y="209.84883"
       x="131.88092"
       style="font-style:normal;font-variant:normal;font-weight:normal;font-stretch:normal;font-size:6.66666651px;line-height:6.66666651px;font-family:Arial;-inkscape-font-specification:Arial;text-align:start;letter-spacing:3.79999995px;word-spacing:0px;text-anchor:start;fill:#000000;fill-opacity:1;stroke:none"
       xml:space="preserve"><tspan
         y="209.84883"
         x="131.88092"
         id="tspan22870"
         sodipodi:role="line">ISLA MONA</tspan></text>
    <text
       transform="rotate(-25.539274)"
       id="text22876"
       y="167.98242"
       x="-54.06958"
       style="font-style:italic;font-variant:normal;font-weight:normal;font-stretch:normal;font-size:12px;line-height:6.66666651px;font-family:Arial;-inkscape-font-specification:'Arial Italic';text-align:start;letter-spacing:6.5999999px;word-spacing:0px;text-anchor:start;fill:#0c0000;fill-opacity:1;stroke:none"
       xml:space="preserve"><tspan
         y="167.98242"
         x="-54.06958"
         id="tspan22874"
         sodipodi:role="line">ATLANTIC OCEAN</tspan></text>
    <text
       id="text22872-8"
       y="52.462166"
       x="146.61571"
       style="font-style:normal;font-variant:normal;font-weight:normal;font-stretch:normal;font-size:4px;line-height:6.66666651px;font-family:Arial;-inkscape-font-specification:Arial;text-align:start;letter-spacing:0px;word-spacing:0px;text-anchor:start;fill:#000000;fill-opacity:1;stroke:none"
       xml:space="preserve"><tspan
         y="52.462166"
         x="146.61571"
         id="tspan22870-4"
         sodipodi:role="line">ISLA MONA</tspan></text>
    <text
       id="text22872-8-0"
       y="43.06472"
       x="161.96439"
       style="font-style:normal;font-variant:normal;font-weight:normal;font-stretch:normal;font-size:4px;line-height:6.66666651px;font-family:Arial;-inkscape-font-specification:Arial;text-align:start;letter-spacing:0px;word-spacing:0px;text-anchor:start;fill:#000000;fill-opacity:1;stroke:none"
       xml:space="preserve"><tspan
         y="43.06472"
         x="161.96439"
         id="tspan22870-4-0"
         sodipodi:role="line">ISLA MONITO</tspan></text>
    <text
       id="text22872-8-6"
       y="32.289169"
       x="155.57887"
       style="font-style:normal;font-variant:normal;font-weight:normal;font-stretch:normal;font-size:4px;line-height:6.66666651px;font-family:Arial;-inkscape-font-specification:Arial;text-align:start;letter-spacing:0px;word-spacing:0px;text-anchor:start;fill:#000000;fill-opacity:1;stroke:none"
       xml:space="preserve"><tspan
         y="32.289169"
         x="155.57887"
         id="tspan22870-4-2"
         sodipodi:role="line">ISLA DESECHIO</tspan></text>
  </g>
  <path
     style="fill:#000000;fill-rule:evenodd;stroke:none;stroke-width:1px;stroke-linecap:butt;stroke-linejoin:miter;stroke-opacity:1"
     d="m 187.0435,31.457699 c 0,0 -0.31973,-1.27893 0,-1.198997 0.31973,0.07993 1.03913,0.639465 1.03913,0.639465 l -0.55953,0.959197 z"
     id="path866"
     inkscape:connector-curvature="0" />
  <path
     style="fill:#000000;fill-rule:evenodd;stroke:none;stroke-width:1px;stroke-linecap:butt;stroke-linejoin:miter;stroke-opacity:1;fill-opacity:1"
     d="m 161.62477,44.966396 -0.0799,-1.039131 0.87927,-0.07993 0.55953,0.799331 -0.4796,0.719399 z"
     id="path868"
     inkscape:connector-curvature="0" />
</svg>
