<?xml version="1.0" encoding="UTF-8" standalone="no"?>
<!-- Created with Inkscape (http://www.inkscape.org/) -->

<svg
   xmlns:dc="http://purl.org/dc/elements/1.1/"
   xmlns:cc="http://creativecommons.org/ns#"
   xmlns:rdf="http://www.w3.org/1999/02/22-rdf-syntax-ns#"
   xmlns:svg="http://www.w3.org/2000/svg"
   xmlns="http://www.w3.org/2000/svg"
   xmlns:sodipodi="http://sodipodi.sourceforge.net/DTD/sodipodi-0.dtd"
   xmlns:inkscape="http://www.inkscape.org/namespaces/inkscape"
   version="1.1"
   id="svg10404"
   width="218.24001"
   height="227.84"
   viewBox="0 0 218.24001 227.84"
   sodipodi:docname="ec01jn91.084.svg"
   inkscape:version="0.92.2 5c3e80d, 2017-08-06">
  <metadata
     id="metadata10410">
    <rdf:RDF>
      <cc:Work
         rdf:about="">
        <dc:format>image/svg+xml</dc:format>
        <dc:type
           rdf:resource="http://purl.org/dc/dcmitype/StillImage" />
        <dc:title></dc:title>
      </cc:Work>
    </rdf:RDF>
  </metadata>
  <defs
     id="defs10408" />
  <sodipodi:namedview
     pagecolor="#ffffff"
     bordercolor="#666666"
     borderopacity="1"
     objecttolerance="10"
     gridtolerance="10"
     guidetolerance="10"
     inkscape:pageopacity="0"
     inkscape:pageshadow="2"
     inkscape:window-width="1280"
     inkscape:window-height="756"
     id="namedview10406"
     showgrid="false"
     inkscape:zoom="2.0125357"
     inkscape:cx="87.551539"
     inkscape:cy="120.37761"
     inkscape:window-x="-9"
     inkscape:window-y="0"
     inkscape:window-maximized="0"
     inkscape:current-layer="svg10404" />
  <path
     inkscape:connector-curvature="0"
     style="opacity:1;vector-effect:none;fill:#c4c4c4;fill-opacity:1;fill-rule:evenodd;stroke:none;stroke-width:2;stroke-linecap:round;stroke-linejoin:round;stroke-miterlimit:4;stroke-dasharray:none;stroke-dashoffset:0;stroke-opacity:1"
     d="m 52.080824,116.39349 4.163648,3.02234 11.176715,-1.02909 -0.350086,6.77948 18.390607,0.45874 2.764734,-8.28879 0.07053,-4.82109 -33.520097,-0.39641 z m 91.752956,3.96202 19.39907,-15.68921 -3.49568,-4.01745 c -0.84873,-0.15159 -1.69051,-1.467738 -2.65653,-0.44474 -1.08443,1.14839 -2.17048,2.30906 -3.38413,3.3911 -0.78983,0.70418 -1.08526,0.0697 -1.79686,0.7034 -1.2603,1.12235 -2.57291,2.36547 -3.91665,3.12519 -1.26814,0.71698 -2.93213,1.11607 -3.95909,1.82406 -0.957,0.65976 -1.67828,1.63005 -2.64744,2.27261 -0.92496,0.61327 -2.33562,1.16951 -2.94277,1.41466 -0.59778,0.24137 -1.13037,1.18873 -1.94584,1.62645 -0.63458,0.34062 0.0428,1.66836 0.05,2.4778 l 3.62635,4.7213 z m 49.27852,-5.58706 c -1.11291,44.11622 -37.70809,79.54161 -82.68928,79.54162 -45.682443,1e-5 -82.715379,-36.53855 -82.715378,-81.61115 l 0.05047,-2.87744 c 1.536179,-43.740021 37.958653,-78.733708 82.664928,-78.733704 45.68243,4e-6 82.71536,36.538557 82.71536,81.611144 z"
     id="path10997-2"
     sodipodi:nodetypes="ccccccccccccssssscssccccsccscc" />
  <path
     style="fill:none;stroke:#000000;stroke-width:2;stroke-linecap:butt;stroke-linejoin:miter;stroke-miterlimit:4;stroke-dasharray:none;stroke-opacity:1"
     d="m 7.2564653,3.5957917 -0.002,218.5474783 H 212.42455 l 0.002,-218.5474783 z"
     id="path14359-1-7-5-3-0-73-1-9-8"
     inkscape:connector-curvature="0"
     sodipodi:nodetypes="ccccc" />
  <path
     style="opacity:1;vector-effect:none;fill:none;fill-opacity:1;fill-rule:evenodd;stroke:#000000;stroke-width:2;stroke-linecap:round;stroke-linejoin:round;stroke-miterlimit:4;stroke-dasharray:none;stroke-dashoffset:0;stroke-opacity:1"
     d="M 193.1384,112.69892 A 82.71537,81.611145 0 0 1 110.42303,194.31007 82.71537,81.611145 0 0 1 27.707657,112.69892 82.71537,81.611145 0 0 1 110.42303,31.087776 82.71537,81.611145 0 0 1 193.1384,112.69892 Z"
     id="path10997" />
  <path
     style="fill:none;stroke:#000000;stroke-width:0.5;stroke-linecap:round;stroke-linejoin:round;stroke-miterlimit:4;stroke-dasharray:none;stroke-opacity:1"
     d="m 63.582275,180.21733 -3.093768,1.82908 -4.436354,-7.41342 -4.153161,-4.48957 -43.8861107,25.75037 6.2510617,14.66882 8.212234,9.85178"
     id="path14359-1-7-5-3-0-73-1-9-8-5"
     inkscape:connector-curvature="0"
     sodipodi:nodetypes="ccccccc" />
  <path
     style="fill:none;stroke:#000000;stroke-width:0.5;stroke-linecap:round;stroke-linejoin:round;stroke-miterlimit:4;stroke-dasharray:none;stroke-opacity:1"
     d="m 113.73968,7.3719976 c 0.0443,2.1805211 -0.4967,4.5519944 -0.52732,7.1428634 -0.0714,6.039406 0.36867,12.705513 -0.61935,16.404435"
     id="path14359-1-7-5-3-0-73-1-9-8-5-7"
     inkscape:connector-curvature="0"
     sodipodi:nodetypes="csc" />
  <path
     style="fill:none;stroke:#000000;stroke-width:0.5;stroke-linecap:butt;stroke-linejoin:round;stroke-miterlimit:4;stroke-dasharray:1.5, 1.50000000000000000;stroke-opacity:1;stroke-dashoffset:0"
     d="m 113.2475,12.996581 c -4.17395,3.519169 -11.32225,7.177969 -16.277222,8.510752 -4.125917,1.109783 -8.314878,-0.195981 -11.263405,1.077643 -1.912534,0.826123 -2.027655,4.073563 -3.591744,4.925373 -3.707373,2.019052 -4.876322,1.724866 -8.747465,6.241025"
     id="path14359-1-7-5-3-0-73-1-9-8-5-9"
     inkscape:connector-curvature="0"
     sodipodi:nodetypes="csssc" />
  <path
     style="fill:none;stroke:#000000;stroke-width:0.5;stroke-linecap:butt;stroke-linejoin:round;stroke-miterlimit:4;stroke-dasharray:1.5, 1.50000000000000000;stroke-dashoffset:0;stroke-opacity:1"
     d="m 209.18972,41.752314 c -3.60076,1.144514 -6.98236,5.212737 -8.3344,7.691905 -0.96642,1.77207 -1.44618,4.791205 -3.15216,6.632837 -1.90514,2.056628 -3.73852,1.445572 -5.49095,4.107197 -3.66615,5.568234 -3.62131,8.113045 -5.72074,10.493532 -1.68125,1.906327 -2.58356,1.561097 -4.16193,1.573599"
     id="path14359-1-7-5-3-0-73-1-9-8-5-9-3"
     inkscape:connector-curvature="0"
     sodipodi:nodetypes="cssssc" />
  <path
     style="fill:none;stroke:#000000;stroke-width:1;stroke-linecap:butt;stroke-linejoin:round;stroke-miterlimit:4;stroke-dasharray:1, 1;stroke-dashoffset:0;stroke-opacity:1"
     d="m 182.32954,72.251384 c -3.66139,2.999351 -6.36875,-4.313537 -9.58311,-7.679958 -1.10963,-1.162126 -1.31246,-3.159932 -2.47065,-3.278155 -0.73867,-0.0754 -1.43169,1.564437 -2.82272,2.308704 -1.60532,0.858919 -3.56553,1.823039 -5.78262,2.992797 -2.94974,1.556306 -2.56316,2.947427 -2.44764,4.829329 0.15475,2.520884 -1.62416,5.033714 -2.68988,5.668307 -1.36807,0.81463 -3.3019,1.244514 -4.43227,2.488483 -1.62318,1.7863 -3.19416,3.08358 -5.20946,3.601583 -3.44759,0.886156 -6.13564,0.578203 -6.8406,0.882711 -1.91254,0.826128 -4.51173,5.067194 -4.58538,7.989068 -0.0307,1.217892 3.97408,5.601515 6.72988,7.958667 -1.00725,1.15804 -2.77169,3.02041 -4.73244,4.41654 -2.29646,1.63516 -4.56178,2.23583 -7.32015,4.25026 -8.27539,6.04348 -18.07873,9.34783 -19.90246,11.47543"
     id="path14359-1-7-5-3-0-73-1-9-8-5-9-8"
     inkscape:connector-curvature="0"
     sodipodi:nodetypes="csssssssssscssc" />
  <path
     style="fill:none;stroke:#000000;stroke-width:0.5;stroke-linecap:butt;stroke-linejoin:round;stroke-miterlimit:4;stroke-dasharray:1.5, 1.50000000000000000;stroke-dashoffset:0;stroke-opacity:1"
     d="m 36.929822,178.90555 c 0.119969,0.24369 0.391637,0.7775 0.742236,1.45402 m 2.27685,4.25359 c 0.248611,0.44284 0.475655,0.83521 0.663036,1.14046 0.842417,1.37232 1.206563,3.14421 -0.84816,3.77517 -4.084332,1.2542 -8.500892,10.22081 -8.380185,13.35457 0.08019,2.08179 -1.376605,5.46867 -2.75468,6.32048 -3.061829,1.89257 -3.032298,4.42393 -4.04312,8.57899 -0.400295,1.64545 -1.62279,1.27497 -2.844203,1.84736"
     id="path14359-1-7-5-3-0-73-1-9-8-5-9-0"
     inkscape:connector-curvature="0"
     sodipodi:nodetypes="cccsssssc" />
  <path
     style="fill:none;stroke:#000000;stroke-width:0.5;stroke-linecap:round;stroke-linejoin:round;stroke-miterlimit:4;stroke-dasharray:none;stroke-opacity:1"
     d="m 127.68517,9.9837601 c 1.06884,0.5909329 1.59779,2.5625389 2.82104,3.7589549 1.73782,1.699682 2.99526,1.566154 3.60411,2.886263 0.78698,1.706334 -0.10633,3.70829 1.49483,5.910887 1.06617,1.466658 2.92791,2.385146 4.56451,3.369396 1.14671,0.689635 1.97095,1.608243 2.89011,2.166432 0.76514,0.464658 1.75183,0.839765 2.79151,0.727913 1.12571,-0.121109 2.31356,-0.75743 3.34957,-0.947194 0.99568,-0.182378 1.86172,-0.168089 2.77929,-0.366733 1.19396,-0.258481 2.4192,-0.709549 3.55749,-0.703462 1.11625,0.006 1.11894,1.323804 2.39829,1.997768 1.88545,0.993251 4.48915,2.385461 9.80382,2.421168 6.64802,0.04467 8.22231,-2.656002 10.58395,-2.719408 1.40095,-0.03761 3.81901,-0.373805 5.0368,-1.548042 1.22721,-1.183321 0.28643,-3.124398 3.04503,-3.349359 1.54675,-0.126135 3.7513,-0.746346 4.64523,-2.216282 0.80529,-1.32417 2.03033,-1.85374 3.72617,-1.887872 1.46238,-0.02943 1.82245,1.357632 3.23327,1.42646 1.09045,0.0532 1.46948,1.497148 3.16242,1.753915 1.16594,0.176836 1.94058,1.998107 3.10353,2.220217 1.08159,0.206569 0.9432,1.768295 1.61508,2.391957 0.66229,0.61475 1.89249,-0.272486 3.1997,0.316411"
     id="path14359-1-7-5-3-0-73-1-9-8-5-2"
     inkscape:connector-curvature="0"
     sodipodi:nodetypes="cssssssssssssssssssssc" />
  <path
     style="fill:none;stroke:#000000;stroke-width:0.5;stroke-linecap:round;stroke-linejoin:round;stroke-miterlimit:4;stroke-dasharray:none;stroke-opacity:1"
     d="m 208.93635,37.236882 c -0.91353,1.334836 -2.50679,2.609216 -3.34102,3.706642 -0.65107,0.856467 -1.84284,0.808406 -2.74798,1.516544 -0.98522,0.770783 -2.16543,1.870793 -3.11623,2.69859 -0.81953,0.713511 -2.09596,0.982148 -2.75259,1.888857 -0.89949,1.242052 0.089,2.14227 -0.80648,3.271777 -2.27691,2.871858 -0.31388,7.23972 -1.39853,9.562645 -1.32302,2.833431 -2.69126,5.756447 -4.07201,8.141159 -1.17218,2.024495 -2.49008,1.037164 -3.36031,2.047273 -0.94964,1.10227 -0.42662,2.325725 -1.04786,3.5063 -0.52711,1.001674 -1.28451,1.471777 -1.8254,2.336732"
     id="path14359-1-7-5-3-0-73-1-9-8-5-4"
     inkscape:connector-curvature="0"
     sodipodi:nodetypes="csssssssssc" />
  <path
     style="fill:none;stroke:#000000;stroke-width:0.5;stroke-linecap:round;stroke-linejoin:round;stroke-miterlimit:4;stroke-dasharray:none;stroke-opacity:1"
     d="m 123.82635,193.4688 c 0.38736,2.13509 0.47834,14.92747 3.71331,24.18335 0.1796,0.51387 1.40805,-0.28083 1.73217,0.72573 0.38867,1.20701 0.62753,2.4595 0.95646,3.68925"
     id="path14359-1-7-5-3-0-73-1-9-8-5-8"
     inkscape:connector-curvature="0"
     sodipodi:nodetypes="cssc" />
  <path
     style="fill:none;stroke:#000000;stroke-width:0.5;stroke-linecap:round;stroke-linejoin:round;stroke-miterlimit:4;stroke-dasharray:none;stroke-opacity:1"
     d="m 127.60181,208.95294 c 0.75851,4.30052 1.97889,8.33774 2.43531,12.34953"
     id="path14359-1-7-5-3-0-73-1-9-8-5-3"
     inkscape:connector-curvature="0"
     sodipodi:nodetypes="cc" />
  <path
     style="fill:#000000;fill-opacity:1;stroke:#000000;stroke-width:0.5;stroke-linecap:round;stroke-linejoin:round;stroke-miterlimit:4;stroke-dasharray:none;stroke-opacity:1"
     d="m 127.02675,215.95845 c 0.66927,0.31212 1.33853,0.31031 2.0078,-0.0148 l 0.47823,-0.004 c 0.3716,-0.003 0.7168,0.11873 0.71666,0.76464 l -0.001,5.36235 c -0.19117,-0.76466 -0.66987,-2.54248 -0.91564,-3.42725 -0.3989,-1.43604 -1.58581,-0.30888 -1.86604,-1.14972 -0.15246,-0.45745 -0.33451,-1.06034 -0.41986,-1.53171 z"
     id="path14359-1-7-5-3-0-73-1-9-8-5-90"
     inkscape:connector-curvature="0"
     sodipodi:nodetypes="ccsscsscc" />
  <path
     style="fill:none;stroke:#000000;stroke-width:1;stroke-linecap:round;stroke-linejoin:round;stroke-miterlimit:4;stroke-dasharray:none;stroke-opacity:1"
     d="m 112.59301,30.919296 c -0.49543,2.101564 -2.83537,5.680818 -4.05596,9.843548 -1.06274,3.624431 -1.66538,7.831519 -2.56021,12.341364 -1.55918,7.858034 -3.13257,16.417017 -3.30649,22.84791 -0.1787,6.60755 1.84866,14.299195 3.65457,22.069852 1.3115,5.64329 3.48485,11.21694 4.14452,16.51293 0.93681,7.52092 -4.08495,12.50379 -4.03218,20.39564 0.0493,7.36604 2.56615,12.81398 5.35277,20.34715 1.72952,4.67546 3.64312,9.68641 5.22158,14.33249 3.3272,9.79333 6.14155,17.9732 6.81474,23.85862"
     id="path14359-1-7-5-3-0-73-1-9-8-5-5"
     inkscape:connector-curvature="0"
     sodipodi:nodetypes="cssssssssc" />
  <path
     style="fill:none;stroke:#000000;stroke-width:1;stroke-linecap:round;stroke-linejoin:round;stroke-miterlimit:4;stroke-dasharray:none;stroke-opacity:1"
     d="m 184.46794,75.913401 c -1.79117,2.589957 -3.32844,1.288482 -4.33593,3.228728 -0.91058,1.753593 1.79646,2.013986 0.84849,3.005169 -1.57428,1.646048 -3.80303,4.195742 -5.30135,5.393165 -0.74213,0.593085 0.71195,1.81106 0.0636,2.449037 -2.30059,2.263914 -2.58015,0.651221 -3.94587,1.594001 -1.03385,0.71369 -1.86164,2.383555 -2.91161,3.080681 -1.01427,0.673428 -1.28574,-0.269356 -2.31451,0.387559 -1.20654,0.770425 -1.86509,2.676401 -3.27812,3.052314 -1.81441,0.482692 -1.69702,1.567384 -2.67356,2.319765 -1.35108,1.04094 -2.28064,-1.569095 -3.53844,-0.21971 -1.09109,1.17053 -2.22014,2.29996 -3.38413,3.3911 -0.76287,0.71511 -1.00482,0.0204 -1.79686,0.7034 -1.33651,1.15253 -2.25361,2.18586 -3.91665,3.12519 -1.50604,0.85065 -2.463,0.85395 -3.95909,1.82406 -0.90631,0.58767 -1.71765,1.70232 -2.64744,2.27261 -0.89908,0.55146 -1.84199,0.98353 -2.94277,1.41466 -0.54174,0.21218 -1.11144,1.16172 -1.94584,1.62645 -0.92942,0.51765 0.81196,2.52779 -0.34855,3.78009 -0.65037,0.7018 -0.98664,1.74518 -2.1303,2.13245 -2.47071,0.83665 -3.89443,-0.33768 -5.68674,0.25419 -3.38942,1.11928 -2.76695,3.64632 -9.56247,3.81489 -3.4903,0.0866 -7.25022,-1.92534 -8.58977,-4.25193 -1.1745,-2.03993 -3.32541,-6.62769 -5.45195,-6.49438 -1.71332,0.1074 -2.82021,-0.43934 -3.58985,-1.36798 -0.5446,-0.65712 -1.369028,0.99719 -2.891566,-1.02485 -0.766353,-1.01778 0.371785,-3.08811 -1.511864,-3.21072 -1.117941,-0.0728 -1.255184,1.18736 -2.177934,2.07192 -1.008913,0.96716 -1.382687,2.37643 -1.654664,3.53855 -0.590657,2.5238 -2.26692,2.9713 -2.963118,4.64731 -0.705934,1.69944 -0.541571,3.34259 -1.629273,4.78993 -0.683799,0.90989 -1.472252,2.90752 -1.630626,4.68105 -0.140368,1.57188 0.208137,2.85203 -0.19263,3.86351 -1.336604,3.37338 -2.755104,5.65265 -6.46467,8.60117 -0.682239,0.54227 -2.047831,-0.53793 -4.262959,0.41542 -1.114346,0.4796 -1.268821,1.68083 -2.69983,1.62185 -2.676925,-0.11033 -1.676834,-2.3743 -5.680715,-1.96071 -3.393725,0.35057 -3.179437,6.04335 -4.774276,6.91846"
     id="path14359-1-7-5-3-0-73-1-9-8-5-22"
     inkscape:connector-curvature="0"
     sodipodi:nodetypes="cssssssssssssssscccssssssssssssssssssc" />
  <path
     style="fill:none;stroke:#000000;stroke-width:1;stroke-linecap:round;stroke-linejoin:round;stroke-miterlimit:4;stroke-dasharray:none;stroke-opacity:1"
     d="m 89.499191,119.44094 c 0,0 -1.746387,-1.23107 -0.352043,-3.80831 0.436067,-0.80601 -0.274204,-2.46207 0.557344,-2.94889 1.414082,-0.82786 1.419056,-2.17865 2.089893,-3.10426 1.432789,-1.97693 2.083768,-0.14244 2.625944,-0.66274 0.695967,-0.66789 -0.290233,-2.64555 0.853487,-2.60845 1.661648,0.0539 1.424182,-2.27523 2.157525,-1.61526 1.831961,1.64869 1.109689,1.03428 1.831961,1.64869 1.112638,0.94647 0.957038,-1.00686 1.563518,-0.44131 0.56961,0.53116 1.37149,0.53399 1.96897,1.22996 1.18952,1.3856 1.75392,3.94277 3.42388,2.69994 1.02152,-0.76025 0.98882,2.39968 4.07111,4.53899"
     id="path14359-1-7-5-3-0-73-1-9-8-5-73"
     inkscape:connector-curvature="0"
     sodipodi:nodetypes="cssssssssssc" />
  <path
     style="fill:none;stroke:#000000;stroke-width:1;stroke-linecap:round;stroke-linejoin:round;stroke-miterlimit:4;stroke-dasharray:none;stroke-opacity:1"
     d="m 107.6132,127.4797 c -0.72106,-1.71341 -1.48238,-3.22843 -3.68486,-3.15016 -1.98204,0.0704 -4.510617,3.29644 -4.767103,6.62857 -0.185359,2.40808 0.0013,5.12677 -0.22938,7.59793 -0.234594,2.51299 0.751097,4.24086 -0.168392,4.86193 -0.996321,0.67298 -0.554163,-1.5021 -2.624265,-2.81978 -0.774999,-0.49331 -1.984194,-0.50488 -3.326453,-1.40675 -0.502028,-0.33731 -1.072305,1.07054 -1.449369,0.64241 -0.949095,-1.07762 -0.363717,-2.33584 -2.029163,-2.9372 -0.800373,-0.289 -2.140881,0.83084 -2.866379,0.42563 -0.80457,-0.44936 -0.225667,-2.08321 -1.47235,-2.26658"
     id="path14359-1-7-5-3-0-73-1-9-8-5-79"
     inkscape:connector-curvature="0"
     sodipodi:nodetypes="csssssssssc" />
  <path
     style="fill:none;stroke:#000000;stroke-width:1;stroke-linecap:round;stroke-linejoin:round;stroke-miterlimit:4;stroke-dasharray:none;stroke-opacity:1"
     d="m 109.00658,148.27329 c -0.66085,3.57576 -4.11486,6.80924 -7.03295,10.09309 -1.79253,2.01721 -4.448351,2.75284 -5.998032,3.65919 -8.7101,5.09419 -17.470764,9.97909 -26.786311,15.45998 -1.83751,1.08112 -3.843816,1.57613 -5.607012,2.73178"
     id="path14359-1-7-5-3-0-73-1-9-8-5-0"
     inkscape:connector-curvature="0"
     sodipodi:nodetypes="csssc" />
  <g
     id="g860"
     sodipodi:insensitive="true">
    <text
       transform="rotate(58.165308)"
       id="text4787"
       y="-98.425941"
       x="73.973076"
       style="font-style:italic;font-variant:normal;font-weight:bold;font-stretch:normal;font-size:5.33333349px;line-height:6.66666651px;font-family:Arial;-inkscape-font-specification:'Arial Bold Italic';text-align:start;letter-spacing:0px;word-spacing:0px;text-anchor:start;fill:#000000;fill-opacity:1;stroke:none"
       xml:space="preserve"><tspan
         y="-98.425941"
         x="73.973076"
         id="tspan4785"
         sodipodi:role="line">CEDAR</tspan></text>
    <text
       transform="rotate(-17.576076)"
       id="text4787-9"
       y="86.094086"
       x="151.36967"
       style="font-style:italic;font-variant:normal;font-weight:bold;font-stretch:normal;font-size:5.33333349px;line-height:6.66666651px;font-family:Arial;-inkscape-font-specification:'Arial Bold Italic';text-align:start;letter-spacing:0px;word-spacing:0px;text-anchor:start;fill:#000000;fill-opacity:1;stroke:none"
       xml:space="preserve"><tspan
         y="86.094086"
         x="151.36967"
         id="tspan4785-9"
         sodipodi:role="line">CREEK</tspan></text>
    <text
       id="text4815"
       y="117.14726"
       x="86.637878"
       style="font-style:italic;font-variant:normal;font-weight:bold;font-stretch:normal;font-size:5.33333349px;line-height:6.66666651px;font-family:Arial;-inkscape-font-specification:'Arial Bold Italic';text-align:end;letter-spacing:0.42999998px;word-spacing:0px;text-anchor:end;fill:#000000;fill-opacity:1;stroke:none"
       xml:space="preserve"><tspan
         y="117.14726"
         x="87.067879"
         id="tspan4813"
         sodipodi:role="line">WOODROW</tspan><tspan
         id="tspan4817"
         y="123.81393"
         x="88.977043"
         sodipodi:role="line">LAKE  </tspan></text>
    <text
       id="text4821"
       y="211.59009"
       x="130.75499"
       style="font-style:normal;font-variant:normal;font-weight:normal;font-stretch:normal;font-size:5.33333349px;line-height:6.66666651px;font-family:Arial;-inkscape-font-specification:Arial;text-align:start;letter-spacing:0.38px;word-spacing:0px;text-anchor:start;fill:#000000;fill-opacity:1;stroke:none"
       xml:space="preserve"><tspan
         y="211.59009"
         x="130.75499"
         id="tspan4819"
         sodipodi:role="line">1.5 Miles to Caldwell </tspan></text>
    <text
       transform="rotate(-30.133336)"
       id="text4821-7"
       y="178.32587"
       x="-89.719223"
       style="font-style:normal;font-variant:normal;font-weight:normal;font-stretch:normal;font-size:5.33333349px;line-height:6.66666651px;font-family:Arial;-inkscape-font-specification:Arial;text-align:start;letter-spacing:0.38px;word-spacing:0px;text-anchor:start;fill:#000000;fill-opacity:1;stroke:none"
       xml:space="preserve"><tspan
         y="178.32587"
         x="-89.719223"
         id="tspan4819-0"
         sodipodi:role="line">Denton Valley Rd. </tspan></text>
    <text
       xml:space="preserve"
       style="font-style:italic;font-variant:normal;font-weight:bold;font-stretch:normal;font-size:5.33333349px;line-height:6.66666651px;font-family:Arial;-inkscape-font-specification:'Arial Bold Italic';text-align:start;letter-spacing:0px;word-spacing:0px;text-anchor:start;fill:#000000;fill-opacity:1;stroke:none"
       x="47.566654"
       y="177.39455"
       id="text844"
       transform="rotate(-34.427462)"><tspan
         sodipodi:role="line"
         id="tspan842"
         x="47.566654"
         y="177.39455">Sweetgum</tspan></text>
    <text
       inkscape:transform-center-y="11.418913"
       inkscape:transform-center-x="0.70270235"
       transform="rotate(-61.658462)"
       id="text848"
       y="204.99118"
       x="24.820721"
       style="font-style:italic;font-variant:normal;font-weight:bold;font-stretch:normal;font-size:5.33333349px;line-height:6.66666651px;font-family:Arial;-inkscape-font-specification:'Arial Bold Italic';text-align:start;letter-spacing:0px;word-spacing:0px;text-anchor:start;fill:#000000;fill-opacity:1;stroke:none"
       xml:space="preserve"><tspan
         y="204.99118"
         x="24.820721"
         id="tspan846"
         sodipodi:role="line">Branch</tspan></text>
  </g>
</svg>
