<?xml version="1.0" encoding="UTF-8" standalone="no"?>
<!-- Created with Inkscape (http://www.inkscape.org/) -->

<svg
   xmlns:dc="http://purl.org/dc/elements/1.1/"
   xmlns:cc="http://creativecommons.org/ns#"
   xmlns:rdf="http://www.w3.org/1999/02/22-rdf-syntax-ns#"
   xmlns:svg="http://www.w3.org/2000/svg"
   xmlns="http://www.w3.org/2000/svg"
   xmlns:sodipodi="http://sodipodi.sourceforge.net/DTD/sodipodi-0.dtd"
   xmlns:inkscape="http://www.inkscape.org/namespaces/inkscape"
   version="1.1"
   id="svg24014"
   width="220.8"
   height="226.56"
   viewBox="0 0 220.8 226.56"
   sodipodi:docname="ec01jn91.116.svg"
   inkscape:version="0.92.2 5c3e80d, 2017-08-06">
  <metadata
     id="metadata24020">
    <rdf:RDF>
      <cc:Work
         rdf:about="">
        <dc:format>image/svg+xml</dc:format>
        <dc:type
           rdf:resource="http://purl.org/dc/dcmitype/StillImage" />
        <dc:title></dc:title>
      </cc:Work>
    </rdf:RDF>
  </metadata>
  <defs
     id="defs24018" />
  <sodipodi:namedview
     pagecolor="#ffffff"
     bordercolor="#666666"
     borderopacity="1"
     objecttolerance="10"
     gridtolerance="10"
     guidetolerance="10"
     inkscape:pageopacity="0"
     inkscape:pageshadow="2"
     inkscape:window-width="1280"
     inkscape:window-height="756"
     id="namedview24016"
     showgrid="false"
     inkscape:zoom="2.1940071"
     inkscape:cx="15.941491"
     inkscape:cy="129.66533"
     inkscape:window-x="0"
     inkscape:window-y="0"
     inkscape:window-maximized="0"
     inkscape:current-layer="svg24014" />
  <path
     style="fill:#c4c4c4;stroke:none;stroke-width:1px;stroke-linecap:butt;stroke-linejoin:miter;stroke-opacity:1;fill-opacity:1"
     d="m 158.36929,119.94016 c 0.27766,-0.5438 1.44757,-1.74192 1.95966,-1.74192 3.2585,0 2.11718,-3.39889 5.87897,0.3629 0.22581,0.22581 -0.7378,0.26633 -0.50806,0.7258 0.95348,1.90696 0.6237,2.13434 -0.79838,3.55641 -0.34752,0.34752 -0.86177,0.28114 -1.23386,0.65322 -0.5561,0.55611 -0.40627,1.77112 -0.65322,1.52418 -0.6613,-0.66131 -1.17384,-1.3853 -2.03223,-1.8145 -0.77132,-0.38566 -1.72322,-0.21774 -2.68546,-0.21774 -0.032,0 -0.26388,0.1716 -0.3629,0.0726 -0.45139,-0.45139 0.98588,-1.42136 1.23386,-1.66933 0.45474,-0.45474 -0.61273,-1.0803 -0.79838,-1.4516 z"
     id="path4679"
     inkscape:connector-curvature="0" />
  <path
     style="fill:none;stroke:#000000;stroke-width:2;stroke-linecap:butt;stroke-linejoin:miter;stroke-miterlimit:4;stroke-dasharray:none;stroke-opacity:1"
     d="m 213.76553,6.8908126 -0.002,209.4672674 H 5.0432676 l 0.002,-209.4672674 z"
     id="path14359-1-7-5-3-0-73-1-9-8-1"
     inkscape:connector-curvature="0"
     sodipodi:nodetypes="ccccc" />
  <path
     style="fill:none;stroke:#000000;stroke-width:2;stroke-linecap:butt;stroke-linejoin:miter;stroke-miterlimit:4;stroke-dasharray:none;stroke-opacity:1"
     d="M 5.4695782,183.10095 H 33.145922 l -0.20207,33.36603"
     id="path14359-1-7-5-3-0-73-1-9-8-7"
     inkscape:connector-curvature="0"
     sodipodi:nodetypes="ccc" />
  <path
     style="fill:none;stroke:#000000;stroke-width:0.5;stroke-linecap:round;stroke-linejoin:round;stroke-miterlimit:4;stroke-dasharray:none;stroke-opacity:1"
     d="m 10.409159,206.07547 c -0.4155707,-0.15955 -0.5689342,-0.61366 -0.5495901,-1.03138 0.050297,-1.0861 0.5982511,-0.99068 0.5881441,-1.51397 -0.0048,-0.25073 -0.417375,-0.63908 -0.419962,-0.9001 -0.0071,-0.72098 0.407559,-1.6221 0.613932,-2.2512 0.309411,-0.94322 1.216898,-1.11377 1.198317,-1.6885 -0.021,-0.64962 -0.977281,-1.01938 -0.981697,-1.73237 -0.0031,-0.49855 -0.0088,-0.98221 -0.01675,-1.44336 -0.0037,-0.21439 -0.211167,-0.4581 -0.214612,-0.66246 -0.0062,-0.37009 -0.0118,-0.72253 -0.01588,-1.053 -0.0026,-0.21341 0.114026,-0.38362 0.112404,-0.5774 -0.0014,-0.17273 -0.121298,-0.37116 -0.121652,-0.52654 -5.9e-4,-0.25893 5.26e-4,-0.49261 0.004,-0.69721 0.0037,-0.21757 0.285636,-0.69396 0.775281,-0.74369 0.638351,-0.0648 0.645179,0.31487 0.774218,0.30879 0.421359,-0.0198 0.256226,-0.92135 0.279136,-1.34443 0.01639,-0.3027 0.343008,-0.60613 0.354598,-0.91014 0.01085,-0.28466 -0.26423,-0.68209 -0.263304,-1.0605 3.73e-4,-0.15229 0.11028,-0.41207 0.279764,-0.41207 h 15.272006 l -0.002,22.40164 h -6.825064 z"
     id="path14359-1-7-5-3-0-73-1-9-8-4"
     inkscape:connector-curvature="0"
     sodipodi:nodetypes="ssssssssssssssssssscccs" />
  <path
     style="fill:#000000;stroke:#000000;stroke-width:0.5;stroke-linecap:round;stroke-linejoin:round;stroke-miterlimit:4;stroke-dasharray:none;stroke-opacity:1;fill-opacity:1"
     d="m 18.522499,209.16676 0.002,-4.47522 h -2.460427 l -0.002,3.57831 z"
     id="path14359-1-7-5-3-0-73-1-9-8-5"
     inkscape:connector-curvature="0"
     sodipodi:nodetypes="ccccc" />
  <path
     style="fill:none;stroke:#000000;stroke-width:1;stroke-linecap:butt;stroke-linejoin:miter;stroke-miterlimit:4;stroke-dasharray:none;stroke-opacity:1"
     d="m 94.473024,198.71507 -0.002,2.35502 95.309116,0 0.002,-2.35502"
     id="path14359-1-7-5-3-0-73-1-9-8"
     inkscape:connector-curvature="0"
     sodipodi:nodetypes="cccc" />
  <path
     style="fill:none;stroke:#000000;stroke-width:1;stroke-linecap:butt;stroke-linejoin:miter;stroke-miterlimit:4;stroke-dasharray:none;stroke-opacity:1"
     d="m 119.10751,198.71507 -0.002,2.35502"
     id="path14359-1-7-5-3-0-73-1-9-8-17"
     inkscape:connector-curvature="0"
     sodipodi:nodetypes="cc" />
  <path
     style="fill:none;stroke:#000000;stroke-width:1;stroke-linecap:butt;stroke-linejoin:miter;stroke-miterlimit:4;stroke-dasharray:none;stroke-opacity:1"
     d="m 142.66572,198.71507 -0.002,2.35502"
     id="path14359-1-7-5-3-0-73-1-9-8-8"
     inkscape:connector-curvature="0"
     sodipodi:nodetypes="cc" />
  <path
     style="fill:#000000;stroke:#000000;stroke-width:1;stroke-linecap:round;stroke-linejoin:round;stroke-miterlimit:4;stroke-dasharray:none;stroke-opacity:1;fill-opacity:1"
     d="m 146.92358,170.00251 c -1.22313,-2.61268 -2.41029,-4.4874 -3.52524,-4.57143 -0.87896,-0.0662 -1.26851,0.84321 -1.26851,2.42644 v 17.9801 l 0.002,-37.93293 z"
     id="path14359-1-7-5-3-0-73-1-9-8-53"
     inkscape:connector-curvature="0"
     sodipodi:nodetypes="cssccc" />
  <path
     style="fill:none;stroke:#000000;stroke-width:1;stroke-linecap:butt;stroke-linejoin:miter;stroke-miterlimit:4;stroke-dasharray:none;stroke-opacity:1"
     d="m 5.1239299,74.836863 12.3880391,4.329682 m 3.997633,1.397192 2.587883,0.904478 m 1.925183,0.672861 2.764458,0.966192 m 4.167062,1.456409 14.13541,4.940396 m 4.218533,1.474399 2.860253,0.999673 m 2.492087,0.870996 2.911724,1.017662 m 3.132624,1.094868 19.660752,6.871529 m 4.465168,1.5606 3.231992,1.1296 m 2.366983,0.82727 2.639354,0.92247 m 3.382831,1.18231 17.908571,6.25914 m 3.79532,1.32648 3.77674,1.31999 m 2.73872,0.9572 2.95962,1.0344 m 3.77316,1.31874 17.1465,5.99279 m 3.65163,1.27626 3.52653,1.23254 m 2.12035,0.74107 3.13262,1.09487 m 3.55226,1.24153 19.11958,6.68239 m 4.4137,1.54261 3.08473,1.07813 m 2.56572,0.89673 3.751,1.31099 m 3.75099,1.31099 10.28986,3.59636"
     id="path14359-1-7-5-3-0-73-1-9-8-79"
     inkscape:connector-curvature="0"
     sodipodi:nodetypes="cccccccccccccccccccccccccccccccccccccc" />
  <path
     style="fill:none;stroke:#000000;stroke-width:2;stroke-linecap:butt;stroke-linejoin:round;stroke-miterlimit:4;stroke-dasharray:none;stroke-opacity:1"
     d="m 114.74894,52.71787 6.11154,-3.737271 15.52838,5.311206 m 3.52784,1.206637 4.04331,1.382943 m 3.47456,1.188409 3.19167,1.091656 14.11528,11.194541 c 0.50725,0.402289 0.49615,1.167364 0.29916,1.701904 l -1.09507,2.971479 m -1.28175,3.478034 -1.23165,3.342111 m -1.07822,2.925768 -0.6226,1.689419 4.62384,7.882682 6.70947,7.042702 m 2.83335,2.97407 2.50481,2.62921 m 2.00034,2.09969 10.18665,10.69259 c 0.75193,0.78928 0.6764,1.76062 0.46715,2.32164 l -2.41878,6.48485 m -1.37993,3.69963 -1.0817,2.90008 -2.13929,-0.74251 m -3.26973,-1.13488 -22.73667,-7.89153 m -6.58952,-2.28712 -4.27279,-1.48302 m -4.43868,-1.5406 -28.32313,-9.8305 m -5.8592,-2.03364 -4.07353,-1.41386 m -6.828891,-2.3702 -22.04197,-7.650414 m -5.98723,-2.078073 -3.905383,-1.355497 m -4.860643,-1.687052 -3.044649,-1.056749 c -0.896481,-0.311154 -0.943918,-1.296453 0.02387,-1.888265 L 73.845182,77.730949 m 3.450625,-2.110093 3.579279,-2.188767 m 4.585151,-2.803868 19.280223,-11.790063 m 3.97229,-2.429093 2.28889,-1.399683"
     id="path14359-1-7-5-3-0-73-1-9-8-79-3"
     inkscape:connector-curvature="0"
     sodipodi:nodetypes="cccccccssccccccccccsscccccccccccccccccssccccccc" />
  <path
     style="fill:none;stroke:#000000;stroke-width:3;stroke-linecap:round;stroke-linejoin:round;stroke-miterlimit:4;stroke-dasharray:none;stroke-opacity:1"
     d="m 162.36219,120.08496 -0.002,0.14588"
     id="path14359-1-7-5-3-0-73-1-9-8-79-8"
     inkscape:connector-curvature="0"
     sodipodi:nodetypes="cc" />
  <path
     style="fill:none;stroke:#000000;stroke-width:1px;stroke-linecap:round;stroke-linejoin:round;stroke-opacity:1"
     d="m 161.27249,120.1579 c -1.8491,0.34906 -1.11771,1.79997 -2.9032,2.39513"
     id="path4681"
     inkscape:connector-curvature="0" />
  <path
     style="fill:#000000;fill-opacity:1;stroke:#000000;stroke-width:1;stroke-linecap:butt;stroke-linejoin:miter;stroke-miterlimit:4;stroke-dasharray:none;stroke-opacity:1"
     d="m 67.436124,91.02589 5.497643,-1.283715 -4.044399,3.934742 -0.726622,-1.325514 z"
     id="path14359-1-7-5-3-0-73-1"
     inkscape:connector-curvature="0"
     sodipodi:nodetypes="ccccc" />
  <path
     style="fill:none;stroke:#000000;stroke-width:1;stroke-linecap:butt;stroke-linejoin:miter;stroke-miterlimit:4;stroke-dasharray:none;stroke-opacity:1"
     d="M 68.150069,92.359503 C 55.385737,99.453958 42.186574,109.79125 33.70172,127.50091"
     id="path14359-1-7-5-3-0-73-1-9"
     inkscape:connector-curvature="0"
     sodipodi:nodetypes="cc"
     inkscape:transform-center-x="-0.12769439"
     inkscape:transform-center-y="-0.1084932" />
  <text
     xml:space="preserve"
     style="font-style:normal;font-variant:normal;font-weight:normal;font-stretch:normal;font-size:6.66666651px;line-height:6.66666651px;font-family:Arial;-inkscape-font-specification:Arial;text-align:start;letter-spacing:0px;word-spacing:0px;text-anchor:start;fill:#000000;fill-opacity:1;stroke:none"
     x="138.75827"
     y="143.92043"
     id="text4794"><tspan
       sodipodi:role="line"
       id="tspan4792"
       x="138.75827"
       y="143.92043">N</tspan></text>
  <g
     id="g892"
     sodipodi:insensitive="true">
    <text
       id="text4706"
       y="136.35893"
       x="14.325172"
       style="font-style:normal;font-variant:normal;font-weight:normal;font-stretch:normal;font-size:6.66666651px;line-height:10px;font-family:Arial;-inkscape-font-specification:Arial;text-align:start;letter-spacing:0.95999998px;word-spacing:-0.93000001px;text-anchor:start;fill:#000000;fill-opacity:1;stroke:none"
       xml:space="preserve"><tspan
         y="136.35893"
         x="14.325172"
         id="tspan4704"
         sodipodi:role="line">QUITOBAQUITO</tspan><tspan
         id="tspan4708"
         y="146.35893"
         x="14.325172"
         sodipodi:role="line"> MANAGEMENT    AREA </tspan></text>
    <text
       id="text4712"
       y="40.780396"
       x="80.444992"
       style="font-style:normal;font-variant:normal;font-weight:normal;font-stretch:normal;font-size:6.66666651px;line-height:6.66666651px;font-family:Arial;-inkscape-font-specification:Arial;text-align:start;letter-spacing:0.25px;word-spacing:0px;text-anchor:start;fill:#000000;fill-opacity:1;stroke:none"
       xml:space="preserve"><tspan
         y="40.780396"
         x="80.444992"
         id="tspan4710"
         sodipodi:role="line">MONUMENT</tspan></text>
    <text
       id="text4712-0"
       y="19.627872"
       x="15.678016"
       style="font-style:normal;font-variant:normal;font-weight:normal;font-stretch:normal;font-size:6.66666651px;line-height:6.66666651px;font-family:Arial;-inkscape-font-specification:Arial;text-align:start;letter-spacing:0.25px;word-spacing:0px;text-anchor:start;fill:#000000;fill-opacity:1;stroke:none"
       xml:space="preserve"><tspan
         y="19.627872"
         x="15.678016"
         id="tspan4710-2"
         sodipodi:role="line">ORGAN</tspan></text>
    <text
       id="text4712-0-4"
       y="19.401947"
       x="68.607529"
       style="font-style:normal;font-variant:normal;font-weight:normal;font-stretch:normal;font-size:6.66666651px;line-height:6.66666651px;font-family:Arial;-inkscape-font-specification:Arial;text-align:start;letter-spacing:0.25px;word-spacing:0px;text-anchor:start;fill:#000000;fill-opacity:1;stroke:none"
       xml:space="preserve"><tspan
         y="19.401947"
         x="68.607529"
         id="tspan4710-2-8"
         sodipodi:role="line">PIPE</tspan></text>
    <text
       id="text4712-0-3"
       y="19.289555"
       x="108.55147"
       style="font-style:normal;font-variant:normal;font-weight:normal;font-stretch:normal;font-size:6.66666651px;line-height:6.66666651px;font-family:Arial;-inkscape-font-specification:Arial;text-align:start;letter-spacing:0.25px;word-spacing:0px;text-anchor:start;fill:#000000;fill-opacity:1;stroke:none"
       xml:space="preserve"><tspan
         y="19.289555"
         x="108.55147"
         id="tspan4710-2-9"
         sodipodi:role="line">CACTUS</tspan></text>
    <text
       id="text4712-0-0"
       y="19.031517"
       x="158.61801"
       style="font-style:normal;font-variant:normal;font-weight:normal;font-stretch:normal;font-size:6.66666651px;line-height:6.66666651px;font-family:Arial;-inkscape-font-specification:Arial;text-align:start;letter-spacing:0.25px;word-spacing:0px;text-anchor:start;fill:#000000;fill-opacity:1;stroke:none"
       xml:space="preserve"><tspan
         y="19.031517"
         x="158.61801"
         id="tspan4710-2-5"
         sodipodi:role="line">NATIONAL</tspan></text>
    <text
       transform="rotate(19.4989)"
       id="text4712-0-2"
       y="64.34314"
       x="115.71225"
       style="font-style:normal;font-variant:normal;font-weight:normal;font-stretch:normal;font-size:6.66666651px;line-height:6.66666651px;font-family:Arial;-inkscape-font-specification:Arial;text-align:start;letter-spacing:0.25px;word-spacing:0px;text-anchor:start;fill:#000000;fill-opacity:1;stroke:none"
       xml:space="preserve"><tspan
         y="64.34314"
         x="115.71225"
         id="tspan4710-2-2"
         sodipodi:role="line">ARIZONA</tspan></text>
    <text
       transform="rotate(19.143597)"
       id="text4712-0-7"
       y="75.828835"
       x="99.576874"
       style="font-style:normal;font-variant:normal;font-weight:normal;font-stretch:normal;font-size:6.66666651px;line-height:6.66666651px;font-family:Arial;-inkscape-font-specification:Arial;text-align:start;letter-spacing:0.25px;word-spacing:0px;text-anchor:start;fill:#000000;fill-opacity:1;stroke:none"
       xml:space="preserve"><tspan
         y="75.828835"
         x="99.576874"
         id="tspan4710-2-3"
         sodipodi:role="line">SONORA, MEXICO</tspan></text>
    <text
       id="text4712-0-79"
       y="108.72104"
       x="144.80629"
       style="font-style:italic;font-variant:normal;font-weight:normal;font-stretch:normal;font-size:6.66666651px;line-height:8px;font-family:Arial;-inkscape-font-specification:'Arial Italic';text-align:center;letter-spacing:0.12px;word-spacing:0px;text-anchor:middle;fill:#000000;fill-opacity:1;stroke:none"
       xml:space="preserve"><tspan
         y="108.72104"
         x="144.86629"
         id="tspan4710-2-0"
         sodipodi:role="line">Quitobaquito</tspan><tspan
         id="tspan4790"
         y="116.72104"
         x="144.86629"
         sodipodi:role="line">   Spring</tspan></text>
    <text
       id="text4794-2"
       y="197.58992"
       x="92.999451"
       style="font-style:normal;font-variant:normal;font-weight:normal;font-stretch:normal;font-size:5.33333349px;line-height:6.66666651px;font-family:Arial;-inkscape-font-specification:Arial;text-align:start;letter-spacing:0px;word-spacing:0.55000001px;text-anchor:start;fill:#000000;fill-opacity:1;stroke:none"
       xml:space="preserve"><tspan
         y="197.58992"
         x="92.999451"
         id="tspan4792-3"
         sodipodi:role="line">0</tspan></text>
    <text
       id="text4794-9"
       y="197.44339"
       x="115.27111"
       style="font-style:normal;font-variant:normal;font-weight:normal;font-stretch:normal;font-size:5.33333349px;line-height:6.66666651px;font-family:Arial;-inkscape-font-specification:Arial;text-align:start;letter-spacing:0px;word-spacing:0px;text-anchor:start;fill:#000000;fill-opacity:1;stroke:none"
       xml:space="preserve"><tspan
         style="letter-spacing:0.55000001px"
         y="197.44339"
         x="115.27111"
         id="tspan4792-9"
         sodipodi:role="line">1/2</tspan></text>
    <text
       id="text4794-7"
       y="197.15034"
       x="187.65399"
       style="font-style:normal;font-variant:normal;font-weight:normal;font-stretch:normal;font-size:5.33333349px;line-height:6.66666651px;font-family:Arial;-inkscape-font-specification:Arial;text-align:start;letter-spacing:0.55000001px;word-spacing:0px;text-anchor:start;fill:#000000;fill-opacity:1;stroke:none"
       xml:space="preserve"><tspan
         y="197.15034"
         x="187.65399"
         id="tspan4792-0"
         sodipodi:role="line">2 MILES</tspan></text>
    <text
       id="text4794-7-3"
       y="209.60489"
       x="121.35329"
       style="font-style:normal;font-variant:normal;font-weight:normal;font-stretch:normal;font-size:5.33333349px;line-height:6.66666651px;font-family:Arial;-inkscape-font-specification:Arial;text-align:start;letter-spacing:1.30999994px;word-spacing:0px;text-anchor:start;fill:#000000;fill-opacity:1;stroke:none"
       xml:space="preserve"><tspan
         y="209.60489"
         x="121.35329"
         id="tspan4792-0-9"
         sodipodi:role="line">TI7S, R8W</tspan></text>
    <text
       id="text4794-2-8"
       y="197.67406"
       x="140.95523"
       style="font-style:normal;font-variant:normal;font-weight:normal;font-stretch:normal;font-size:5.33333349px;line-height:6.66666651px;font-family:Arial;-inkscape-font-specification:Arial;text-align:start;letter-spacing:0px;word-spacing:0.55000001px;text-anchor:start;fill:#000000;fill-opacity:1;stroke:none"
       xml:space="preserve"><tspan
         y="197.67406"
         x="140.95523"
         id="tspan4792-3-6"
         sodipodi:role="line">1</tspan></text>
  </g>
</svg>
