<?xml version="1.0" encoding="UTF-8" standalone="no"?>
<!-- Created with Inkscape (http://www.inkscape.org/) -->

<svg
   xmlns:dc="http://purl.org/dc/elements/1.1/"
   xmlns:cc="http://creativecommons.org/ns#"
   xmlns:rdf="http://www.w3.org/1999/02/22-rdf-syntax-ns#"
   xmlns:svg="http://www.w3.org/2000/svg"
   xmlns="http://www.w3.org/2000/svg"
   xmlns:xlink="http://www.w3.org/1999/xlink"
   xmlns:sodipodi="http://sodipodi.sourceforge.net/DTD/sodipodi-0.dtd"
   xmlns:inkscape="http://www.inkscape.org/namespaces/inkscape"
   version="1.1"
   id="svg11073"
   width="218.24001"
   height="230.39999"
   viewBox="0 0 218.24001 230.39999"
   sodipodi:docname="ec01jn91.096.svg"
   inkscape:version="0.92.2 5c3e80d, 2017-08-06">
  <metadata
     id="metadata11079">
    <rdf:RDF>
      <cc:Work
         rdf:about="">
        <dc:format>image/svg+xml</dc:format>
        <dc:type
           rdf:resource="http://purl.org/dc/dcmitype/StillImage" />
        <dc:title></dc:title>
      </cc:Work>
    </rdf:RDF>
  </metadata>
  <defs
     id="defs11077" />
  <sodipodi:namedview
     pagecolor="#ffffff"
     bordercolor="#666666"
     borderopacity="1"
     objecttolerance="10"
     gridtolerance="10"
     guidetolerance="10"
     inkscape:pageopacity="0"
     inkscape:pageshadow="2"
     inkscape:window-width="1280"
     inkscape:window-height="756"
     id="namedview11075"
     showgrid="false"
     showguides="false"
     inkscape:zoom="2.1604947"
     inkscape:cx="21.135857"
     inkscape:cy="109.17452"
     inkscape:window-x="0"
     inkscape:window-y="0"
     inkscape:window-maximized="0"
     inkscape:current-layer="svg11073" />
  <path
     style="fill:none;stroke:#000000;stroke-width:1;stroke-linecap:butt;stroke-linejoin:miter;stroke-miterlimit:4;stroke-dasharray:none;stroke-opacity:1"
     d="M 4.463619,1.9969706 4.461619,226.53688 H 215.09728 L 211.58013,1.9969706 Z"
     id="path14359-1-7-5-3-0-73-1-9-6"
     inkscape:connector-curvature="0"
     sodipodi:nodetypes="ccccc"
     inkscape:transform-center-x="0.03366111"
     inkscape:transform-center-y="-0.1641457" />
  <path
     style="fill:none;stroke:#000000;stroke-width:1;stroke-linecap:butt;stroke-linejoin:miter;stroke-miterlimit:4;stroke-dasharray:none;stroke-opacity:1"
     d="m 160.37367,5.5563023 -0.002,64.4242847 48.76537,0 -1.50621,-64.4242847 z"
     id="path14359-1-7-5-3-0-73-1-9-63"
     inkscape:connector-curvature="0"
     sodipodi:nodetypes="ccccc"
     inkscape:transform-center-x="0.03366111"
     inkscape:transform-center-y="-0.1641457" />
  <path
     style="fill:none;stroke:#000000;stroke-width:1;stroke-linecap:round;stroke-linejoin:round;stroke-miterlimit:4;stroke-dasharray:none;stroke-opacity:1"
     d="m 165.24275,51.406562 24.40628,9.009408 14.72964,-0.631719 -2.32421,-44.26683 -31.98244,-0.02077 c -1.02418,0.86869 0.0999,6.006433 -0.49858,6.604907 -0.26886,0.268859 -0.24885,1.127413 -0.64676,1.131838 -0.67549,0.0075 -0.70587,-0.757166 -0.8893,-0.848878 -0.48615,-0.243073 -1.90404,-0.480905 -2.34452,-0.04042 -0.89526,0.895258 -0.21216,4.466874 0.20211,5.29538 0.30141,0.602801 0.0276,3.529609 -0.20211,3.759316 -0.16807,0.168064 0.38684,1.235726 0.56591,1.414796 0.36204,0.362041 0.28156,1.211282 0.64677,1.576488 0.12127,0.121268 0.28296,0.202113 0.40423,0.323382 0.13617,0.13617 0.13786,0.801229 0.20211,0.929723 0.30942,0.618837 1.29353,0.285099 1.29353,1.253105 0,0.0449 0.0286,0.254368 0,0.282959 -0.51671,0.516688 -1.15869,0.714038 -1.81903,1.374374 -0.35665,0.356651 -0.25482,2.801459 -0.48507,3.031706 -0.34366,0.343662 -0.12607,0.939334 -0.3638,1.414797 -0.15419,0.308375 -0.35519,0.557299 -0.56592,0.768032 -0.36751,0.367509 -0.0125,2.212881 0.0404,2.667901 0.075,0.645506 1.59293,0.61232 1.13186,1.495642 -0.49947,0.956887 -3.53986,2.722272 -1.5011,3.474866 z"
     id="path14359-1-7-5-3-0-73-1-9-8-5"
     inkscape:connector-curvature="0"
     sodipodi:nodetypes="sccccsssssssssssssssssss" />
  <text
     xml:space="preserve"
     style="font-style:italic;font-variant:normal;font-weight:normal;font-stretch:normal;font-size:5.33333349px;line-height:6.66666651px;font-family:Arial;-inkscape-font-specification:'Arial Italic';text-align:start;letter-spacing:0.17px;word-spacing:0.36999998px;text-anchor:start;fill:#000000;fill-opacity:1;stroke:none;"
     x="90.505745"
     y="124.23296"
     id="text11676"><tspan
       sodipodi:role="line"
       id="tspan11674"
       x="90.505745"
       y="124.23296">Cottonwood Spring</tspan></text>
  <text
     xml:space="preserve"
     style="font-style:italic;font-variant:normal;font-weight:normal;font-stretch:normal;font-size:5.33333349px;line-height:6.66666651px;font-family:Arial;-inkscape-font-specification:'Arial Italic';text-align:start;letter-spacing:0.17px;word-spacing:0.36999997px;text-anchor:start;fill:#000000;fill-opacity:1;stroke:none;"
     x="96.00354"
     y="141.77684"
     id="text11676-7"><tspan
       sodipodi:role="line"
       id="tspan11674-3"
       x="96.00354"
       y="141.77684">Pipe Spring</tspan></text>
  <text
     xml:space="preserve"
     style="font-style:italic;font-variant:normal;font-weight:normal;font-stretch:normal;font-size:5.33333349px;line-height:5.5999999px;font-family:Arial;-inkscape-font-specification:'Arial Italic';text-align:start;letter-spacing:0.17px;word-spacing:0.36999997px;text-anchor:start;fill:#000000;fill-opacity:1;stroke:none"
     x="96.964478"
     y="90.17701"
     id="text11676-7-3"><tspan
       sodipodi:role="line"
       id="tspan11674-3-8"
       x="96.964478"
       y="90.17701">North</tspan><tspan
       sodipodi:role="line"
       x="96.964478"
       y="95.777008"
       id="tspan11714">Pond and</tspan><tspan
       sodipodi:role="line"
       x="96.964478"
       y="101.37701"
       id="tspan11716">Springs</tspan></text>
  <text
     xml:space="preserve"
     style="font-style:italic;font-variant:normal;font-weight:normal;font-stretch:normal;font-size:5.33333349px;line-height:5.5999999px;font-family:Arial;-inkscape-font-specification:'Arial Italic';text-align:start;letter-spacing:0.17px;word-spacing:0.36999997px;text-anchor:start;fill:#000000;fill-opacity:1;stroke:none"
     x="28.616707"
     y="160.21321"
     id="text11676-7-3-4"><tspan
       sodipodi:role="line"
       x="28.616707"
       y="160.21321"
       id="tspan11716-0">Tule Tank</tspan><tspan
       sodipodi:role="line"
       x="28.616707"
       y="165.81322"
       id="tspan11746">and Spring</tspan></text>
  <text
     xml:space="preserve"
     style="font-style:italic;font-variant:normal;font-weight:normal;font-stretch:normal;font-size:5.33333349px;line-height:5.5999999px;font-family:Arial;-inkscape-font-specification:'Arial Italic';text-align:start;letter-spacing:0.17px;word-spacing:0.36999997px;text-anchor:start;fill:#000000;fill-opacity:1;stroke:none"
     x="27.957293"
     y="175.8745"
     id="text11676-7-3-1"><tspan
       sodipodi:role="line"
       x="27.957293"
       y="175.8745"
       id="tspan11716-9">House Pond</tspan></text>
  <text
     xml:space="preserve"
     style="font-style:italic;font-variant:normal;font-weight:normal;font-stretch:normal;font-size:5.33333349px;line-height:5.5999999px;font-family:Arial;-inkscape-font-specification:'Arial Italic';text-align:start;letter-spacing:0.17px;word-spacing:0.36999997px;text-anchor:start;fill:#000000;fill-opacity:1;stroke:none"
     x="69.171204"
     y="162.19148"
     id="text11676-7-3-5"><tspan
       sodipodi:role="line"
       id="tspan11674-3-8-8"
       x="69.171204"
       y="162.19148">Twin</tspan><tspan
       sodipodi:role="line"
       x="69.171204"
       y="167.79149"
       id="tspan11716-91">Pond</tspan></text>
  <text
     xml:space="preserve"
     style="font-style:italic;font-variant:normal;font-weight:normal;font-stretch:normal;font-size:5.33333349px;line-height:5.5999999px;font-family:Arial;-inkscape-font-specification:'Arial Italic';text-align:start;letter-spacing:0.17px;word-spacing:0.36999997px;text-anchor:start;fill:#000000;fill-opacity:1;stroke:none"
     x="146.98306"
     y="188.89809"
     id="text11676-7-3-40"><tspan
       sodipodi:role="line"
       x="146.98306"
       y="188.89809"
       id="tspan11716-3">Hay</tspan></text>
  <text
     xml:space="preserve"
     style="font-style:italic;font-variant:normal;font-weight:normal;font-stretch:normal;font-size:5.33333349px;line-height:5.5999999px;font-family:Arial;-inkscape-font-specification:'Arial Italic';text-align:start;letter-spacing:0.47999999px;word-spacing:0.36999997px;text-anchor:start;fill:#000000;fill-opacity:1;stroke:none"
     x="-86.053665"
     y="232.20052"
     id="text11676-7-3-40-3"
     transform="rotate(-64.221391)"><tspan
       sodipodi:role="line"
       x="-86.053665"
       y="232.20052"
       id="tspan11716-3-5">Hollow</tspan></text>
  <text
     xml:space="preserve"
     style="font-style:italic;font-variant:normal;font-weight:normal;font-stretch:normal;font-size:5.33333349px;line-height:5.5999999px;font-family:Arial;-inkscape-font-specification:'Arial Italic';text-align:start;letter-spacing:0.17px;word-spacing:0.36999997px;text-anchor:start;fill:#000000;fill-opacity:1;stroke:none"
     x="10.288162"
     y="246.92574"
     id="text11676-7-3-40-1"
     transform="rotate(-48.487282)"><tspan
       sodipodi:role="line"
       x="10.288162"
       y="246.92574"
       id="tspan11716-3-52">Wash</tspan></text>
  <text
     xml:space="preserve"
     style="font-style:normal;font-variant:normal;font-weight:normal;font-stretch:normal;font-size:5.33333349px;line-height:6.66666651px;font-family:Arial;-inkscape-font-specification:Arial;text-align:start;letter-spacing:0px;word-spacing:0px;text-anchor:start;fill:#000000;fill-opacity:1;stroke:none"
     x="41.272602"
     y="148.08395"
     id="text11824"><tspan
       sodipodi:role="line"
       id="tspan11822"
       x="41.272602"
       y="148.08395">15</tspan></text>
  <text
     xml:space="preserve"
     style="font-style:normal;font-variant:normal;font-weight:normal;font-stretch:normal;font-size:5.33333349px;line-height:6.66666651px;font-family:Arial;-inkscape-font-specification:Arial;text-align:start;letter-spacing:0px;word-spacing:0px;text-anchor:start;fill:#000000;fill-opacity:1;stroke:none"
     x="48.376255"
     y="104.63948"
     id="text11824-8"><tspan
       sodipodi:role="line"
       id="tspan11822-5"
       x="48.376255"
       y="104.63948">10</tspan></text>
  <text
     xml:space="preserve"
     style="font-style:normal;font-variant:normal;font-weight:normal;font-stretch:normal;font-size:5.33333349px;line-height:6.66666651px;font-family:Arial;-inkscape-font-specification:Arial;text-align:start;letter-spacing:0px;word-spacing:0px;text-anchor:start;fill:#000000;fill-opacity:1;stroke:none"
     x="100.1271"
     y="113.58131"
     id="text11824-2"><tspan
       sodipodi:role="line"
       id="tspan11822-0"
       x="100.1271"
       y="113.58131">11</tspan></text>
  <text
     xml:space="preserve"
     style="font-style:normal;font-variant:normal;font-weight:normal;font-stretch:normal;font-size:5.33333349px;line-height:6.66666651px;font-family:Arial;-inkscape-font-specification:Arial;text-align:start;letter-spacing:0px;word-spacing:0px;text-anchor:start;fill:#000000;fill-opacity:1;stroke:none"
     x="100.01532"
     y="158.1787"
     id="text11824-1"><tspan
       sodipodi:role="line"
       id="tspan11822-03"
       x="100.01532"
       y="158.1787">14</tspan></text>
  <text
     xml:space="preserve"
     style="font-style:normal;font-variant:normal;font-weight:normal;font-stretch:normal;font-size:5.33333349px;line-height:6.66666651px;font-family:Arial;-inkscape-font-specification:Arial;text-align:start;letter-spacing:0px;word-spacing:0px;text-anchor:start;fill:#000000;fill-opacity:1;stroke:none"
     x="154.8181"
     y="115.22445"
     id="text11824-7"><tspan
       sodipodi:role="line"
       id="tspan11822-9"
       x="154.8181"
       y="115.22445">12</tspan></text>
  <text
     xml:space="preserve"
     style="font-style:normal;font-variant:normal;font-weight:normal;font-stretch:normal;font-size:5.33333349px;line-height:6.66666651px;font-family:Arial;-inkscape-font-specification:Arial;text-align:start;letter-spacing:0px;word-spacing:0px;text-anchor:start;fill:#000000;fill-opacity:1;stroke:none"
     x="170.12372"
     y="157.92902"
     id="text11824-0"><tspan
       sodipodi:role="line"
       id="tspan11822-1"
       x="170.12372"
       y="157.92902">13</tspan></text>
  <text
     xml:space="preserve"
     style="font-style:normal;font-variant:normal;font-weight:normal;font-stretch:normal;font-size:5.33333349px;line-height:6.66666651px;font-family:Arial;-inkscape-font-specification:Arial;text-align:start;letter-spacing:1.32px;word-spacing:-0.74000007px;text-anchor:start;fill:#040000;fill-opacity:1;stroke:none;"
     id="text11878"><textPath
       xlink:href="#path11880"
       id="textPath11882"><tspan
   id="tspan11876"
   style="letter-spacing:1.32px;word-spacing:-0.74000007px;fill:#040000;fill-opacity:1;">San      Bernardino  Creek</tspan></textPath></text>
  <path
     style="fill:none;stroke:none;stroke-width:0.2;stroke-linecap:butt;stroke-linejoin:miter;stroke-miterlimit:4;stroke-dasharray:none;stroke-opacity:1"
     d="m 72.027607,104.83872 c -0.562623,2.66299 -0.404333,5.16683 0.883642,7.96792 1.750397,3.80678 5.032475,6.18039 6.368039,9.50465 0.912839,2.27208 1.053635,4.27285 0.930818,6.95951 -0.165229,3.61442 1.049694,8.48184 1.79419,11.82067 0.995209,4.46319 2.866323,7.81158 4.862444,11.72139 2.845038,5.57258 5.702663,12.75307 6.622575,18.86336 0.584593,3.88301 6.304166,6.53339 9.928855,14.07807"
     id="path11880"
     inkscape:connector-curvature="0"
     sodipodi:nodetypes="cssssssc" />
  <path
     style="fill:none;stroke:#000000;stroke-width:1;stroke-linecap:butt;stroke-linejoin:miter;stroke-miterlimit:4;stroke-dasharray:none;stroke-opacity:1"
     d="M 212.39443,143.43102 134.1169,92.266333 97.489321,82.268365 54.671884,78.631754 9.0205706,179.16577 l -0.00146,13.12571"
     id="path14359-1-7-5-3-0-73-1-9"
     inkscape:connector-curvature="0"
     sodipodi:nodetypes="cccccc"
     inkscape:transform-center-x="0.03366111"
     inkscape:transform-center-y="-0.1641457" />
  <path
     style="fill:none;stroke:#000000;stroke-width:1;stroke-linecap:butt;stroke-linejoin:miter;stroke-miterlimit:4;stroke-dasharray:none;stroke-opacity:1"
     d="m 8.2793453,192.9165 205.0754347,0.002"
     id="path14359-1-7-5-3-0-73-1-9-9"
     inkscape:connector-curvature="0"
     sodipodi:nodetypes="cc"
     inkscape:transform-center-x="0.16414611"
     inkscape:transform-center-y="0.033664304" />
  <path
     style="fill:none;stroke:#000000;stroke-width:1;stroke-linecap:butt;stroke-linejoin:miter;stroke-miterlimit:4;stroke-dasharray:none;stroke-opacity:1"
     d="m 36.488134,118.54088 138.540236,0.67478"
     id="path14359-1-7-5-3-0-73-1-9-2"
     inkscape:connector-curvature="0"
     sodipodi:nodetypes="cc"
     inkscape:transform-center-x="0.16414611"
     inkscape:transform-center-y="0.033664304" />
  <path
     style="fill:none;stroke:#000000;stroke-width:1;stroke-linecap:butt;stroke-linejoin:miter;stroke-miterlimit:4;stroke-dasharray:none;stroke-opacity:1"
     d="m 65.609217,79.523901 -0.002,113.443989"
     id="path14359-1-7-5-3-0-73-1-9-96"
     inkscape:connector-curvature="0"
     sodipodi:nodetypes="cc"
     inkscape:transform-center-x="0.03366111"
     inkscape:transform-center-y="-0.1641457" />
  <path
     style="fill:none;stroke:#000000;stroke-width:1;stroke-linecap:butt;stroke-linejoin:miter;stroke-miterlimit:4;stroke-dasharray:none;stroke-opacity:1"
     d="m 140.31231,96.302691 -0.002,96.683859"
     id="path14359-1-7-5-3-0-73-1-9-91"
     inkscape:connector-curvature="0"
     sodipodi:nodetypes="cc"
     inkscape:transform-center-x="0.03366111"
     inkscape:transform-center-y="-0.1641457" />
  <path
     style="fill:none;stroke:#000000;stroke-width:0.5;stroke-linecap:butt;stroke-linejoin:miter;stroke-miterlimit:4;stroke-dasharray:none;stroke-opacity:1"
     d="m 200.45969,135.65074 c -0.26577,0.39234 -0.50067,0.77315 -0.7127,1.14498 m -0.85306,1.67868 c -0.12257,0.26781 -0.23903,0.53266 -0.35295,0.7957 m -0.50457,1.16838 c -0.12188,0.27738 -0.24696,0.55464 -0.37955,0.83314 m -0.48516,0.95191 c -0.30455,0.55558 -0.65698,1.12197 -1.09011,1.70958 -0.56368,0.76473 -1.14384,1.55554 -1.77902,2.37877 m -0.64423,0.82087 c -0.20845,0.26084 -0.42334,0.52496 -0.6458,0.79255 m -0.70744,0.83198 c -0.24971,0.28704 -0.50896,0.57807 -0.77902,0.87332 m -1.43898,1.50484 c -1.4035,1.40485 -2.80024,2.33888 -4.16119,3.03401 m -1.5134,0.69306 c -0.30156,0.12439 -0.60072,0.24098 -0.89714,0.35246 m -1.41352,0.5116 c -0.32493,0.11563 -0.64565,0.23031 -0.96166,0.34798 m -2.06026,0.88662 c -1.02578,0.53044 -1.97986,1.20694 -2.84093,2.19966 -0.77382,0.89213 -1.48989,2.02719 -2.18549,3.31726 m -1.31735,2.63841 c -0.16294,0.34559 -0.32606,0.69678 -0.48987,1.05238 m -0.68014,1.48704 c -0.14835,0.32534 -0.29779,0.65288 -0.44868,0.9818 m -0.61711,1.33159 c -0.69159,1.47325 -1.4213,2.95142 -2.22034,4.36085 m -1.34237,2.18529 c -0.22926,0.34191 -0.46434,0.67653 -0.70578,1.00255 m -0.95871,1.20602 c -0.18372,0.21449 -0.371,0.4238 -0.56204,0.62748 m -1.10333,1.07246 c -1.38213,1.2175 -2.86205,2.06691 -4.38043,2.66159 m -1.14143,0.39889 c -0.3138,0.0971 -0.62859,0.18478 -0.94386,0.26392 m -1.82504,0.36979 c -0.30394,0.0481 -0.60742,0.0901 -0.90998,0.12682 m -2.59397,0.20647 c -0.85954,0.0389 -1.69989,0.054 -2.50961,0.0671 -0.96947,0.0156 -2.08306,0.20306 -3.24861,0.54532 m -1.27127,0.42775 c -0.28419,0.10767 -0.56945,0.22382 -0.85454,0.34821 m -1.16894,0.55778 c -0.28673,0.14888 -0.5715,0.30594 -0.85301,0.47094 m -1.54223,1.0116 c -1.63823,1.20071 -3.05686,2.68826 -3.9445,4.40542"
     id="path14359-1-7-5-3-0-73-1-9-60"
     inkscape:connector-curvature="0"
     sodipodi:nodetypes="cccccccsccccccccccccsccccccccccccccccccsccccccc"
     inkscape:transform-center-x="0.03366111"
     inkscape:transform-center-y="-0.1641457" />
  <path
     style="fill:none;stroke:#000000;stroke-width:1;stroke-linecap:round;stroke-linejoin:round;stroke-miterlimit:4;stroke-dasharray:none;stroke-opacity:1"
     d="m 194.47486,51.896272 -0.002,8.159103"
     id="path14359-1-7-5-3-0-73-1-9-8-5-0"
     inkscape:connector-curvature="0"
     sodipodi:nodetypes="cc" />
  <path
     style="fill:none;stroke:#000000;stroke-width:1;stroke-linecap:round;stroke-linejoin:round;stroke-miterlimit:4;stroke-dasharray:none;stroke-opacity:1"
     d="m 174.42732,51.204939 19.03597,0.0013 c 0.62863,4.3e-5 0.64611,0.404269 1.09141,0.404299 l 9.29409,6.35e-4"
     id="path14359-1-7-5-3-0-73-1-9-8-5-0-2"
     inkscape:connector-curvature="0"
     sodipodi:nodetypes="cssc" />
  <path
     style="fill:none;stroke:#000000;stroke-width:1;stroke-linecap:round;stroke-linejoin:round;stroke-miterlimit:4;stroke-dasharray:none;stroke-opacity:1"
     d="m 174.30174,54.557881 0.002,-31.405338 3.7999,-2.179675 c 0.73799,-0.423322 0.49468,-4.269681 1.97972,-5.298527"
     id="path14359-1-7-5-3-0-73-1-9-8-5-0-1"
     inkscape:connector-curvature="0"
     sodipodi:nodetypes="ccsc" />
  <path
     style="fill:none;stroke:#000000;stroke-width:1px;stroke-linecap:round;stroke-linejoin:round;stroke-opacity:1"
     d="m 168.68414,37.340935 c 0.30081,-0.211731 0.70892,-0.282959 1.13184,-0.282959 0.41486,0 2.19622,0.714216 2.46578,0.44465 0.25735,-0.257344 1.51519,-0.687186 2.06156,-0.687186"
     id="path11972"
     inkscape:connector-curvature="0" />
  <path
     style="fill:none;stroke:#000000;stroke-width:1;stroke-linecap:round;stroke-linejoin:round;stroke-miterlimit:4;stroke-dasharray:none;stroke-opacity:1"
     d="m 189.86624,43.768092 h -3.88058 l -4.5e-4,2.061612 h -3.88058 l -10e-4,5.25182"
     id="path14359-1-7-5-3-0-73-1-9-8-5-0-5"
     inkscape:connector-curvature="0"
     sodipodi:nodetypes="ccccc" />
  <path
     style="fill:none;stroke:#000000;stroke-width:1;stroke-linecap:round;stroke-linejoin:round;stroke-miterlimit:4;stroke-dasharray:none;stroke-opacity:1"
     d="m 194.14733,57.149083 -4.23809,-0.002 c 0.0429,1.178158 -2.00694,1.508275 -1.66049,2.547634"
     id="path14359-1-7-5-3-0-73-1-9-8-5-0-0"
     inkscape:connector-curvature="0"
     sodipodi:nodetypes="ccc" />
  <path
     style="fill:none;stroke:#000000;stroke-width:1;stroke-linecap:round;stroke-linejoin:round;stroke-miterlimit:4;stroke-dasharray:none;stroke-opacity:1"
     d="m 193.90645,51.000674 0.002,-7.070861 1.94077,0.0436 c 0.0805,-0.01452 0.16427,-0.0167 0.24154,-0.04357 0.11554,-0.04017 0.0581,-0.46233 0.12127,-0.525496 0.25952,-0.259519 0.72421,-0.319978 1.01057,-0.606341 0.53306,-0.533062 0.74104,1.077984 1.33395,0.485073 0.23499,-0.234985 0.14306,-0.657661 0.5255,-0.848878 0.6383,-0.319152 1.07792,-0.22904 1.57649,-0.727609 0.26244,-0.262447 0.30342,-0.707654 0.52549,-0.929724 0.31788,-0.31788 1.5864,-0.08084 2.10198,-0.08084"
     id="path14359-1-7-5-3-0-73-1-9-8-5-0-4"
     inkscape:connector-curvature="0"
     sodipodi:nodetypes="ccc" />
  <path
     style="fill:none;stroke:#000000;stroke-width:1;stroke-linecap:round;stroke-linejoin:round;stroke-miterlimit:4;stroke-dasharray:none;stroke-opacity:1"
     d="m 200.53827,42.113967 -8.1e-4,3.75616 c -2.4e-4,1.089919 2.1418,2.903524 2.14161,3.79973 l -4e-4,1.856318"
     id="path14359-1-7-5-3-0-73-1-9-8-5-0-7"
     inkscape:connector-curvature="0"
     sodipodi:nodetypes="cssc" />
  <path
     style="fill:none;stroke:#000000;stroke-width:1;stroke-linecap:round;stroke-linejoin:round;stroke-miterlimit:4;stroke-dasharray:none;stroke-opacity:1"
     d="m 190.95808,15.596642 0.64606,23.84625 5.17358,0.04047 -7.7e-4,3.554038"
     id="path14359-1-7-5-3-0-73-1-9-8-5-0-3"
     inkscape:connector-curvature="0"
     sodipodi:nodetypes="cccc" />
  <path
     style="fill:none;stroke:#000000;stroke-width:1;stroke-linecap:round;stroke-linejoin:round;stroke-miterlimit:4;stroke-dasharray:none;stroke-opacity:1"
     d="m 195.52584,15.71791 0.45821,10.10921 c 0.78302,0.04497 1.47099,0.899768 1.47514,1.492907 l 0.0723,10.345239 0.61199,0.60602 0.008,4.402306"
     id="path14359-1-7-5-3-0-73-1-9-8-5-0-58"
     inkscape:connector-curvature="0"
     sodipodi:nodetypes="ccsccc" />
  <path
     style="fill:none;stroke:#000000;stroke-width:1;stroke-linecap:round;stroke-linejoin:round;stroke-miterlimit:4;stroke-dasharray:none;stroke-opacity:1"
     d="m 186.14581,36.003838 6.7e-4,-2.866834 h -1.53606 l 2.9e-4,-1.333977 h -3.75932 l 0.001,-1.169122 c -0.19055,-1.46801 -3.0752,-1.015786 -3.67947,-1.620056 -0.79894,-0.798938 -1.1666,-1.859447 -2.74875,-1.859447"
     id="path14359-1-7-5-3-0-73-1-9-8-5-0-16"
     inkscape:connector-curvature="0"
     sodipodi:nodetypes="cccccccc" />
  <path
     style="fill:none;stroke:#000000;stroke-width:1px;stroke-linecap:round;stroke-linejoin:round;stroke-opacity:1"
     d="m 193.82709,45.587177 -1.94029,1.374373 -2.02056,-3.193458 c -0.43574,-0.517497 -0.58998,-1.114834 -1.01115,-1.536004 -0.20388,-0.203879 -0.50499,-0.181606 -0.68718,-0.363804 -0.28647,-0.286467 -0.66417,-0.883685 -0.84888,-1.253106 -0.26251,-0.525007 -0.30847,-1.642418 -0.68719,-2.021137 -0.27166,-0.271666 -0.77884,-0.37461 -0.8893,-0.485073 -0.18938,-0.189377 -0.28166,-0.402925 -0.44465,-0.565919 -0.17499,-0.174994 0.66524,-1.271582 0.80846,-1.414796 0.15793,-0.157932 0.35363,-0.156606 0.60634,-0.282959 0.20349,-0.101748 1.65653,0.161691 2.10198,0.161691 0.0902,0 0.50852,-0.0574 0.56592,0 1.03375,1.03375 0.74663,0.545311 2.02114,0.970146"
     id="path12016"
     inkscape:connector-curvature="0"
     sodipodi:nodetypes="ccccccccsccssc" />
  <path
     style="fill:none;stroke:#000000;stroke-width:1;stroke-linecap:round;stroke-linejoin:round;stroke-miterlimit:4;stroke-dasharray:none;stroke-opacity:1"
     d="m 174.62943,39.280227 4.16041,9.56e-4 c 0.65609,1.51e-4 0.57554,0.768329 1.89987,0.768329 1.35191,0 1.53243,-0.889032 2.54661,-0.888898 0.8682,1.15e-4 2.34238,-0.08062 3.39237,0.121613"
     id="path14359-1-7-5-3-0-73-1-9-8-5-0-38"
     inkscape:connector-curvature="0"
     sodipodi:nodetypes="csssc" />
  <path
     style="fill:none;stroke:#000000;stroke-width:4;stroke-linecap:round;stroke-linejoin:round;stroke-miterlimit:4;stroke-dasharray:none;stroke-opacity:1"
     d="m 201.17165,57.987382 -0.002,0.01479"
     id="path14359-1-7-5-3-0-73-1-9-8-5-0-6"
     inkscape:connector-curvature="0"
     sodipodi:nodetypes="cc" />
  <path
     style="fill:none;stroke:#000000;stroke-width:0.5;stroke-linecap:round;stroke-linejoin:round;stroke-miterlimit:4;stroke-dasharray:none;stroke-opacity:1"
     d="m 30.265306,177.25671 c -0.515543,0.41427 -1.117133,0.82584 -1.799317,0.86591 -1.429942,0.084 -3.416401,3.88889 -6.242356,3.88107 l -6.437423,-0.0178 c -0.656793,-0.002 -2.063501,0.48369 -3.286267,0.48622 -1.301029,0.003 -4.4357124,0.95038 -6.5459042,1.52608"
     id="path14359-1-7-5-3-0-73-1-9-8-5-0-02"
     inkscape:connector-curvature="0"
     sodipodi:nodetypes="cssssc" />
  <path
     style="fill:none;stroke:#000000;stroke-width:0.5;stroke-linecap:round;stroke-linejoin:round;stroke-miterlimit:4;stroke-dasharray:none;stroke-opacity:1"
     d="m 20.761831,178.98963 -0.002,1.63644 h -2.149623 l 0.002,-1.63644 c 4.73e-4,-0.38661 0.478325,-0.8348 0.821849,-0.8348 h 0.634445 c 0.288257,0 0.693801,0.44883 0.693329,0.8348 z"
     id="path14359-1-7-5-3-0-73-1-9-8-5-0-02-9"
     inkscape:connector-curvature="0"
     sodipodi:nodetypes="sccssss" />
  <path
     style="fill:none;stroke:#000000;stroke-width:1;stroke-linecap:round;stroke-linejoin:round;stroke-miterlimit:4;stroke-dasharray:none;stroke-opacity:1"
     d="m 23.40757,174.42798 c 2.148247,0.009 3.530436,0.81698 3.573167,1.62778 0.04796,0.90997 -1.388055,1.64608 -3.306032,1.72395 -0.570875,0.0232 -0.931975,-0.26352 -0.968364,-0.84007 -0.688512,-0.0485 -1.598381,0.20349 -1.569417,-0.43409 0.02895,-0.63724 1.045477,-0.82129 1.669593,-0.8348 0.01949,-0.47268 0.01077,-1.24524 0.601053,-1.24277 z"
     id="path14359-1-7-5-3-0-73-1-9-8-5-0-02-9-0"
     inkscape:connector-curvature="0"
     sodipodi:nodetypes="ssscscs" />
  <path
     style="fill:none;stroke:#000000;stroke-width:1;stroke-linecap:round;stroke-linejoin:round;stroke-miterlimit:4;stroke-dasharray:none;stroke-opacity:1"
     d="m 91.76876,81.865428 c -0.361809,1.623836 -3.568548,4.600057 -5.253001,5.257701 -3.633263,1.418498 -7.086546,3.70785 -10.038132,6.168703 -2.065364,1.721976 -4.320078,3.735835 -4.707302,5.825527 -0.504906,2.724781 -1.370723,4.351261 -1.534163,6.292441 -0.432665,5.13876 0.931644,10.02219 4.682056,13.08754 4.055657,3.31484 3.900166,8.33024 3.776312,14.05103 -0.101428,4.68491 1.199284,9.51682 3.401507,13.59314 3.564331,6.5976 8.741835,15.23378 9.647773,24.15601 0.50832,5.00624 10.01715,12.40894 10.14015,16.89094 0.0505,1.84033 -0.1963,4.04743 -0.79642,5.61326"
     id="path14359-1-7-5-3-0-73-1-9-8-5-0-02-9-2"
     inkscape:connector-curvature="0"
     sodipodi:nodetypes="csssssssssc" />
  <path
     style="fill:#000000;stroke:#000000;stroke-width:1px;stroke-linecap:butt;stroke-linejoin:miter;stroke-opacity:1;fill-opacity:1"
     d="m 93.998165,85.080992 c -1.319501,-0.355509 -2.523324,-0.09234 -1.485603,0.945384 0.532387,0.532389 1.479696,-0.408118 1.890767,-0.202583 0.04336,0.02168 2.945591,1.324933 1.755713,0.135055 -0.168818,-0.168818 -0.709039,0.03376 -0.877856,-0.135055 -0.287038,-0.287035 -0.780898,-0.607516 -1.283021,-0.742801 z"
     id="path12108"
     inkscape:connector-curvature="0"
     sodipodi:nodetypes="ssssss" />
  <path
     style="fill:#000000;stroke:#000000;stroke-width:1px;stroke-linecap:butt;stroke-linejoin:miter;stroke-opacity:1;fill-opacity:1"
     d="m 91.837288,88.25478 c -0.63345,1.2669 1.417827,0.742554 1.55313,0.877857 0.09099,0.09099 0.911996,1.248881 1.147966,1.012911 0.537027,-0.537027 -0.510201,-0.915366 -0.742801,-1.147966 -0.224137,-0.224137 0.243929,-0.768982 0,-1.012911 -0.137396,-0.137396 -0.472692,-0.379207 -0.472692,0.123985 0,0.503192 -1.232524,-0.360034 -1.485603,0.146124 z"
     id="path12110"
     inkscape:connector-curvature="0"
     sodipodi:nodetypes="sssssss" />
  <text
     xml:space="preserve"
     style="font-style:normal;font-variant:normal;font-weight:normal;font-stretch:normal;font-size:5.33333349px;line-height:6.9333334px;font-family:Arial;-inkscape-font-specification:Arial;text-align:center;letter-spacing:0.17px;word-spacing:0.36999997px;text-anchor:middle;fill:#000000;fill-opacity:1;stroke:none"
     x="9.828825"
     y="131.20952"
     id="text11676-7-3-4-1"><tspan
       sodipodi:role="line"
       x="9.913825"
       y="131.20952"
       id="tspan11746-1">T</tspan><tspan
       sodipodi:role="line"
       x="9.913825"
       y="138.14285"
       id="tspan12135">24</tspan><tspan
       sodipodi:role="line"
       x="9.913825"
       y="145.07619"
       id="tspan12137">S</tspan></text>
  <path
     style="fill:#000000;stroke:#000000;stroke-width:1px;stroke-linecap:round;stroke-linejoin:round;stroke-opacity:1;fill-opacity:1"
     d="m 60.54792,165.36318 c -0.726025,0.34512 -1.045601,-1.40764 -1.722484,-0.73075 -0.611734,0.61173 0.05973,0.84267 0.521965,1.30491 0.51943,0.51943 -0.330062,1.70482 1.618091,0.73075 0.301437,-0.15072 2.277235,-1.6897 1.879074,-2.08786 -0.633992,-0.63399 -1.93896,0.30603 -2.296646,0.78295 z"
     id="path12139"
     inkscape:connector-curvature="0" />
  <path
     style="fill:#000000;stroke:#000000;stroke-width:1px;stroke-linecap:round;stroke-linejoin:round;stroke-opacity:1;fill-opacity:1"
     d="m 87.011537,160.45671 c 0.03196,-0.30765 -0.146027,-0.6158 -0.313179,-0.78295 -0.460028,-0.46003 -1.136328,0.36537 -1.461501,0.36537 -0.253648,0 -0.256104,-0.99417 -0.678554,-0.78294 -0.410709,0.20535 -0.016,0.85114 -0.313179,1.14832 -0.422903,0.4229 -1.31257,0.32084 -1.722484,0.73075 -0.88744,0.88744 2.652211,0.88734 2.975199,0.88734 0.552592,0 0.09013,-0.82087 0.417572,-1.14832 0.176252,-0.17625 0.799325,-0.34337 1.096126,-0.41757 z"
     id="path12141"
     inkscape:connector-curvature="0" />
  <path
     style="fill:#000000;stroke:#000000;stroke-width:1px;stroke-linecap:round;stroke-linejoin:round;stroke-opacity:1;fill-opacity:1"
     d="m 91.813614,190.93945 c -1.831707,0.34302 0.417572,2.20131 0.417572,0.57416 0,-0.38936 -0.07787,-0.40431 -0.417572,-0.57416 z"
     id="path12143"
     inkscape:connector-curvature="0" />
  <path
     style="fill:#000000;stroke:#000000;stroke-width:1px;stroke-linecap:round;stroke-linejoin:round;stroke-opacity:1;fill-opacity:1"
     d="m 94.266848,190.73067 c -0.959205,0.51607 0.521965,1.84375 0.521965,0.41757 0,-0.17435 -0.325973,-0.36858 -0.521965,-0.41757 z"
     id="path12145"
     inkscape:connector-curvature="0" />
  <path
     style="fill:#000000;stroke:#000000;stroke-width:1px;stroke-linecap:butt;stroke-linejoin:miter;stroke-opacity:1;fill-opacity:1"
     d="m 89.986737,122.09229 c -1.409423,-1.35265 -1.11015,1.21455 -0.417572,0.52197 0.154278,-0.15428 0.644518,-0.30417 0.417572,-0.52197 z"
     id="path12147"
     inkscape:connector-curvature="0"
     sodipodi:nodetypes="sss" />
  <path
     style="fill:#000000;stroke:#000000;stroke-width:1px;stroke-linecap:butt;stroke-linejoin:miter;stroke-opacity:1;fill-opacity:1"
     d="m 92.961936,130.28714 c -0.878104,-0.12179 -0.469258,1.25221 0.15659,0.62636 0.187848,-0.18785 0.0522,-0.5974 -0.15659,-0.62636 z"
     id="path12149"
     inkscape:connector-curvature="0"
     sodipodi:nodetypes="sss" />
  <path
     style="fill:#000000;stroke:#000000;stroke-width:1px;stroke-linecap:butt;stroke-linejoin:miter;stroke-opacity:1;fill-opacity:1"
     d="m 95.154189,136.44632 c 0.676646,-0.94493 -2.168566,-0.0403 -1.04393,0.52197 0.103855,0.0519 0.215374,0.25769 0.417572,0.15659 0.293348,-0.14668 0.167302,-0.0375 0.626358,-0.67856 z"
     id="path12151"
     inkscape:connector-curvature="0"
     sodipodi:nodetypes="ssss" />
  <text
     xml:space="preserve"
     style="font-style:normal;font-variant:normal;font-weight:normal;font-stretch:normal;font-size:5.33333349px;line-height:6.9333334px;font-family:Arial;-inkscape-font-specification:Arial;text-align:start;letter-spacing:0.45000004px;word-spacing:0.36999997px;text-anchor:start;fill:#000000;fill-opacity:1;stroke:none;"
     x="99.805618"
     y="223.49582"
     id="text11676-7-3-4-1-7"><tspan
       sodipodi:role="line"
       x="99.805618"
       y="223.49582"
       id="tspan12137-7">R 30 E</tspan></text>
</svg>
