<?xml version="1.0" encoding="UTF-8" standalone="no"?>
<!-- Created with Inkscape (http://www.inkscape.org/) -->

<svg
   xmlns:dc="http://purl.org/dc/elements/1.1/"
   xmlns:cc="http://creativecommons.org/ns#"
   xmlns:rdf="http://www.w3.org/1999/02/22-rdf-syntax-ns#"
   xmlns:svg="http://www.w3.org/2000/svg"
   xmlns="http://www.w3.org/2000/svg"
   xmlns:sodipodi="http://sodipodi.sourceforge.net/DTD/sodipodi-0.dtd"
   xmlns:inkscape="http://www.inkscape.org/namespaces/inkscape"
   version="1.1"
   id="svg9747"
   width="218.24001"
   height="280.32001"
   viewBox="0 0 218.24001 280.32001"
   sodipodi:docname="ec01jn91.000.svg"
   inkscape:version="0.92.2 5c3e80d, 2017-08-06">
  <metadata
     id="metadata9753">
    <rdf:RDF>
      <cc:Work
         rdf:about="">
        <dc:format>image/svg+xml</dc:format>
        <dc:type
           rdf:resource="http://purl.org/dc/dcmitype/StillImage" />
        <dc:title></dc:title>
      </cc:Work>
    </rdf:RDF>
  </metadata>
  <defs
     id="defs9751" />
  <sodipodi:namedview
     pagecolor="#ffffff"
     bordercolor="#666666"
     borderopacity="1"
     objecttolerance="10"
     gridtolerance="10"
     guidetolerance="10"
     inkscape:pageopacity="0"
     inkscape:pageshadow="2"
     inkscape:window-width="1280"
     inkscape:window-height="756"
     id="namedview9749"
     showgrid="false"
     inkscape:snap-global="false"
     inkscape:zoom="2.0200207"
     inkscape:cx="111.66059"
     inkscape:cy="140.29151"
     inkscape:window-x="1"
     inkscape:window-y="0"
     inkscape:window-maximized="0"
     inkscape:current-layer="svg9747" />
  <path
     style="fill:none;stroke:#000000;stroke-width:1;stroke-linecap:butt;stroke-linejoin:miter;stroke-miterlimit:4;stroke-dasharray:none;stroke-opacity:1"
     d="m 214.14722,271.94078 0.002,-265.7901179 H 5.4025139 l -0.002,265.7901179 z"
     id="path14359-1-7-5-3-0-73-1-9-3"
     inkscape:connector-curvature="0"
     sodipodi:nodetypes="ccccc"
     inkscape:transform-center-x="0.03366111"
     inkscape:transform-center-y="-0.1641457" />
  <text
     xml:space="preserve"
     style="font-style:normal;font-variant:normal;font-weight:bold;font-stretch:normal;font-size:6.66666651px;line-height:7.5px;font-family:Arial;-inkscape-font-specification:'Arial Bold';text-align:start;letter-spacing:1.1px;word-spacing:0px;text-anchor:start;fill:#000000;fill-opacity:1;stroke:none;"
     x="186.14162"
     y="141.01036"
     id="text10323-5"><tspan
       sodipodi:role="line"
       id="tspan10321-1"
       x="186.14162"
       y="141.01036">Great</tspan><tspan
       sodipodi:role="line"
       x="186.14162"
       y="148.51036"
       id="tspan10343">Falls</tspan></text>
  <path
     style="fill:none;stroke:#000000;stroke-width:1;stroke-linecap:butt;stroke-linejoin:miter;stroke-miterlimit:4;stroke-dasharray:none;stroke-opacity:1"
     d="m 25.337478,31.706909 2.94127,3.18171 c -0.825048,0.845265 -1.261821,1.389831 -1.261821,2.435738 0,1.503793 0.836572,1.356698 0.825283,3.195462 -0.01102,1.795514 -1.286038,3.464191 -3.14927,3.593308 -0.968923,0.06713 -0.791917,-0.124742 -1.667828,-0.125536 -0.726081,-6.67e-4 -1.284665,0.597159 -1.699504,0.625784 -0.414841,-0.02862 -0.873375,-0.626451 -1.599456,-0.625784 -0.87591,7.94e-4 -0.798953,0.192682 -1.767876,0.125536 -1.863233,-0.129117 -3.13823,-1.797794 -3.14927,-3.593308 -0.01129,-1.838764 0.975357,-1.691669 0.975357,-3.195462 0,-1.053452 -0.436773,-1.590473 -1.111747,-2.435738 l 2.591098,-2.981611 c 1.349878,0.987718 2.837128,1.044747 4.161944,-0.186474 1.374838,1.181196 2.511916,0.974093 3.91182,-0.01363 z"
     id="path14359-1-7-5-3-0-73-1-9-8-2-1-8-1-3"
     inkscape:connector-curvature="0"
     sodipodi:nodetypes="ccsssscsssscccc" />
  <path
     style="fill:none;stroke:#000000;stroke-width:1;stroke-linecap:butt;stroke-linejoin:miter;stroke-miterlimit:4;stroke-dasharray:none;stroke-opacity:1"
     d="m 26.153416,86.153548 2.94127,3.18171 c -0.825048,0.845265 -1.261821,1.389831 -1.261821,2.435738 0,1.503793 0.836572,1.356698 0.825283,3.195462 -0.01102,1.795514 -1.286038,3.464191 -3.14927,3.593308 -0.968922,0.06713 -0.791916,-0.124742 -1.667827,-0.125536 -0.726081,-6.67e-4 -1.284665,0.597159 -1.699504,0.625784 -0.414841,-0.02862 -0.873375,-0.626451 -1.599456,-0.625784 -0.87591,7.94e-4 -0.798953,0.192682 -1.767876,0.125536 -1.863233,-0.129117 -3.13823,-1.797794 -3.14927,-3.593308 -0.01129,-1.838764 0.975357,-1.691669 0.975357,-3.195462 0,-1.053452 -0.436773,-1.590473 -1.111747,-2.435738 l 2.591098,-2.981611 c 1.349878,0.987718 2.837128,1.044747 4.161944,-0.186474 1.374838,1.181196 2.511916,0.974093 3.911819,-0.01363 z"
     id="path14359-1-7-5-3-0-73-1-9-8-2-1-8-1-3-5"
     inkscape:connector-curvature="0"
     sodipodi:nodetypes="ccsssscsssscccc" />
  <path
     style="fill:none;stroke:#000000;stroke-width:1;stroke-linecap:butt;stroke-linejoin:miter;stroke-miterlimit:4;stroke-dasharray:none;stroke-opacity:1"
     d="m 67.249334,128.7833 c -0.825048,0.84526 -1.261821,1.38983 -1.261821,2.43574 0,1.50379 0.836572,1.35669 0.825283,3.19546 -0.01102,1.79551 -1.286038,3.46419 -3.14927,3.59331 -0.968921,0.0671 -0.791915,-0.12475 -1.667826,-0.12554 -0.726081,-6.7e-4 -1.284665,0.59716 -1.699504,0.62578 -0.414841,-0.0286 -0.873375,-0.62645 -1.599456,-0.62578 -0.87591,7.9e-4 -0.798953,0.19268 -1.767876,0.12554 -1.863233,-0.12912 -3.13823,-1.7978 -3.14927,-3.59331 -0.01129,-1.83877 0.975357,-1.69167 0.975357,-3.19546 0,-1.05346 -0.436773,-1.59048 -1.111747,-2.43574 l 2.591098,-2.98161 c 1.349878,0.98771 2.837128,1.04474 4.161944,-0.18648 1.374838,1.1812 2.511916,0.9741 3.911818,-0.0136 z"
     id="path14359-1-7-5-3-0-73-1-9-8-2-1-8-1-3-5-3"
     inkscape:connector-curvature="0"
     sodipodi:nodetypes="csssscssssccccc" />
  <path
     style="fill:none;stroke:#000000;stroke-width:1;stroke-linecap:butt;stroke-linejoin:miter;stroke-miterlimit:4;stroke-dasharray:none;stroke-opacity:1"
     d="m 195.76329,56.846575 c -0.82505,0.84526 -1.26182,1.38983 -1.26182,2.43574 0,1.50379 0.83657,1.35669 0.82528,3.19546 -0.011,1.79551 -1.28603,3.46419 -3.14927,3.59331 -0.96892,0.0671 -0.79191,-0.12475 -1.66782,-0.12554 -0.72608,-6.7e-4 -1.28467,0.59716 -1.69951,0.62578 -0.41484,-0.0286 -0.87337,-0.62645 -1.59945,-0.62578 -0.87591,7.9e-4 -0.79895,0.19268 -1.76788,0.12554 -1.86323,-0.12912 -3.13823,-1.7978 -3.14927,-3.59331 -0.0113,-1.83877 0.97536,-1.69167 0.97536,-3.19546 0,-1.05346 -0.43677,-1.59048 -1.11175,-2.43574 l 2.5911,-2.98161 c 1.34988,0.98771 2.83713,1.04474 4.16194,-0.18648 1.37484,1.1812 2.51192,0.9741 3.91182,-0.0136 z"
     id="path14359-1-7-5-3-0-73-1-9-8-2-1-8-1-3-5-3-5"
     inkscape:connector-curvature="0"
     sodipodi:nodetypes="csssscssssccccc" />
  <path
     style="fill:none;stroke:#000000;stroke-width:1;stroke-linecap:butt;stroke-linejoin:miter;stroke-miterlimit:4;stroke-dasharray:none;stroke-opacity:1"
     d="m 18.046463,155.20545 c -0.0805,-2.32305 1.393712,-4.59842 2.539955,-5.35028 0.726975,0.42423 1.880131,1.22637 4.02944,-0.005 2.149309,1.23122 3.27007,0.49387 3.96465,0.005 1.146243,0.84905 2.604745,3.25318 2.604745,5.35028 0,4.81587 -4.37156,8.0396 -6.569395,8.0396 -2.197835,0 -6.402616,-3.22662 -6.569395,-8.0396 z"
     id="path14359-1-7-5-3-0-73-1-9-8-2-1-8-1-3-5-3-1"
     inkscape:connector-curvature="0"
     sodipodi:nodetypes="scccsss" />
  <path
     style="fill:none;stroke:#000000;stroke-width:1;stroke-linecap:butt;stroke-linejoin:miter;stroke-miterlimit:4;stroke-dasharray:none;stroke-opacity:1"
     d="m 116.41263,198.05091 c -0.0805,-2.32305 1.39371,-4.59842 2.53995,-5.35028 0.72698,0.42423 1.88014,1.22637 4.02944,-0.005 2.14931,1.23122 3.27007,0.49387 3.96465,0.005 1.14625,0.84905 2.60475,3.25318 2.60475,5.35028 0,4.81587 -4.37156,8.0396 -6.5694,8.0396 -2.19783,0 -6.40261,-3.22662 -6.56939,-8.0396 z"
     id="path14359-1-7-5-3-0-73-1-9-8-2-1-8-1-3-5-3-1-9"
     inkscape:connector-curvature="0"
     sodipodi:nodetypes="scccsss" />
  <path
     style="fill:none;stroke:#000000;stroke-width:1;stroke-linecap:butt;stroke-linejoin:miter;stroke-miterlimit:4;stroke-dasharray:none;stroke-opacity:1"
     d="m 153.27132,172.71056 c -0.0805,-2.32305 1.39371,-4.59842 2.53995,-5.35028 0.72698,0.42423 1.88014,1.22637 4.02944,-0.005 2.14931,1.23122 3.27007,0.49387 3.96465,0.005 1.14625,0.84905 2.60475,3.25318 2.60475,5.35028 0,4.81587 -4.37156,8.0396 -6.5694,8.0396 -2.19783,0 -6.40261,-3.22662 -6.56939,-8.0396 z"
     id="path14359-1-7-5-3-0-73-1-9-8-2-1-8-1-3-5-3-1-0"
     inkscape:connector-curvature="0"
     sodipodi:nodetypes="scccsss" />
  <path
     style="fill:none;stroke:#000000;stroke-width:1;stroke-linecap:butt;stroke-linejoin:miter;stroke-miterlimit:4;stroke-dasharray:none;stroke-opacity:1"
     d="m 161.24555,78.791795 c -0.0805,-2.32305 1.39371,-4.59842 2.53995,-5.35028 0.72698,0.42423 1.88014,1.22637 4.02944,-0.005 2.14931,1.23122 3.27007,0.49387 3.96465,0.005 1.14625,0.84905 2.60475,3.25318 2.60475,5.35028 0,4.81587 -4.37156,8.0396 -6.5694,8.0396 -2.19783,0 -6.40261,-3.22662 -6.56939,-8.0396 z"
     id="path14359-1-7-5-3-0-73-1-9-8-2-1-8-1-3-5-3-1-97"
     inkscape:connector-curvature="0"
     sodipodi:nodetypes="scccsss" />
  <path
     style="opacity:1;vector-effect:none;fill:none;fill-opacity:1;fill-rule:evenodd;stroke:#000000;stroke-width:1;stroke-linecap:round;stroke-linejoin:round;stroke-miterlimit:4;stroke-dasharray:none;stroke-dashoffset:0;stroke-opacity:1"
     d="m 94.410082,149.58578 a 6.5663323,6.5663323 0 0 1 -6.566332,6.56634 6.5663323,6.5663323 0 0 1 -6.566332,-6.56634 6.5663323,6.5663323 0 0 1 6.566332,-6.56633 6.5663323,6.5663323 0 0 1 6.566332,6.56633 z"
     id="path11099" />
  <path
     inkscape:connector-curvature="0"
     style="opacity:1;vector-effect:none;fill:none;fill-opacity:1;fill-rule:evenodd;stroke:#000000;stroke-width:1;stroke-linecap:round;stroke-linejoin:round;stroke-miterlimit:4;stroke-dasharray:none;stroke-dashoffset:0;stroke-opacity:1"
     d="m 162.2636,147.44514 a 9.8116953,5.5693512 0 0 1 -9.81169,5.56935 9.8116953,5.5693512 0 0 1 -9.81169,-5.56935 9.8116953,5.5693512 0 0 1 9.81169,-5.56935 9.8116953,5.5693512 0 0 1 9.81169,5.56935 z"
     id="path11099-2" />
  <path
     style="fill:none;stroke:#000000;stroke-width:1;stroke-linecap:butt;stroke-linejoin:miter;stroke-miterlimit:4;stroke-dasharray:none;stroke-opacity:1"
     d="m 193.90743,220.44059 -0.002,40.80741 -61.00307,0 0.002,-40.80741 z"
     id="path14359-1-7-5-3-0-73-1-9-4"
     inkscape:connector-curvature="0"
     sodipodi:nodetypes="ccccc"
     inkscape:transform-center-x="0.03366111"
     inkscape:transform-center-y="-0.1641457" />
  <path
     inkscape:connector-curvature="0"
     style="opacity:1;vector-effect:none;fill:none;fill-opacity:1;fill-rule:evenodd;stroke:#000000;stroke-width:0.5;stroke-linecap:round;stroke-linejoin:round;stroke-miterlimit:4;stroke-dasharray:none;stroke-dashoffset:0;stroke-opacity:1"
     d="m 148.77307,50.035587 c 0,1.005906 -0.81544,1.821359 -1.82135,1.821362 -1.00591,3e-6 -1.82136,-0.815452 -1.82136,-1.821362 0,-1.005909 0.81545,-1.821362 1.82136,-1.821359 1.00591,3e-6 1.82135,0.815454 1.82135,1.821359 z"
     id="path11099-4"
     sodipodi:nodetypes="sssss" />
  <path
     inkscape:connector-curvature="0"
     style="opacity:1;vector-effect:none;fill:none;fill-opacity:1;fill-rule:evenodd;stroke:#000000;stroke-width:0.5;stroke-linecap:round;stroke-linejoin:round;stroke-miterlimit:4;stroke-dasharray:none;stroke-dashoffset:0;stroke-opacity:1"
     d="m 163.43251,194.19827 c 0,1.00591 -0.81544,1.82136 -1.82135,1.82136 -1.00591,1e-5 -1.82136,-0.81545 -1.82136,-1.82136 0,-1.00591 0.81545,-1.82136 1.82136,-1.82136 1.00591,1e-5 1.82135,0.81546 1.82135,1.82136 z"
     id="path11099-4-0"
     sodipodi:nodetypes="sssss" />
  <path
     style="fill:none;stroke:#000000;stroke-width:1;stroke-linecap:butt;stroke-linejoin:miter;stroke-miterlimit:4;stroke-dasharray:none;stroke-opacity:1"
     d="m 73.977786,241.52089 -0.002,2.80175 -42.282207,0 0.002,-2.80175"
     id="path14359-1-7-5-3-0-73-1-9-31"
     inkscape:connector-curvature="0"
     sodipodi:nodetypes="cccc"
     inkscape:transform-center-x="0.03366111"
     inkscape:transform-center-y="-0.1641457" />
  <path
     style="fill:none;stroke:#000000;stroke-width:1;stroke-linecap:butt;stroke-linejoin:miter;stroke-miterlimit:4;stroke-dasharray:none;stroke-opacity:1"
     d="m 52.802529,241.52089 -0.002,2.80175"
     id="path14359-1-7-5-3-0-73-1-9"
     inkscape:connector-curvature="0"
     sodipodi:nodetypes="cc"
     inkscape:transform-center-x="0.03366111"
     inkscape:transform-center-y="-0.1641457" />
  <path
     style="fill:none;stroke:#000000;stroke-width:3;stroke-linecap:butt;stroke-linejoin:miter;stroke-miterlimit:4;stroke-dasharray:1.5, 1.50000000000000000;stroke-dashoffset:0;stroke-opacity:1"
     d="m 15.320793,220.95571 19.662129,0.002"
     id="path14359-1-7-5-3-0-73-1-9-8"
     inkscape:connector-curvature="0"
     sodipodi:nodetypes="cc"
     inkscape:transform-center-x="0.16414611"
     inkscape:transform-center-y="0.033664304" />
  <path
     style="fill:none;stroke:#000000;stroke-width:3;stroke-linecap:butt;stroke-linejoin:miter;stroke-miterlimit:4;stroke-dasharray:9, 3;stroke-dashoffset:0;stroke-opacity:1"
     d="m 15.468225,206.73014 21.136507,0.002"
     id="path14359-1-7-5-3-0-73-1-9-48"
     inkscape:connector-curvature="0"
     sodipodi:nodetypes="cc"
     inkscape:transform-center-x="0.16414611"
     inkscape:transform-center-y="0.033664304" />
  <path
     style="fill:none;stroke:#000000;stroke-width:3;stroke-linecap:butt;stroke-linejoin:miter;stroke-miterlimit:4;stroke-dasharray:1.5, 1.50000000000000000;stroke-dashoffset:0;stroke-opacity:1"
     d="m 22.428832,25.133581 19.662129,0.002"
     id="path14359-1-7-5-3-0-73-1-9-8-7"
     inkscape:connector-curvature="0"
     sodipodi:nodetypes="cc"
     inkscape:transform-center-x="0.16414611"
     inkscape:transform-center-y="0.033664304" />
  <path
     style="fill:none;stroke:#000000;stroke-width:3;stroke-linecap:butt;stroke-linejoin:miter;stroke-miterlimit:4;stroke-dasharray:1.5, 1.50000000000000000;stroke-dashoffset:0;stroke-opacity:1"
     d="m 18.845389,23.150651 0.002,7.765622"
     id="path14359-1-7-5-3-0-73-1-9-8-2"
     inkscape:connector-curvature="0"
     sodipodi:nodetypes="cc"
     inkscape:transform-center-x="-0.033664394"
     inkscape:transform-center-y="-0.16414581" />
  <path
     style="fill:none;stroke:#000000;stroke-width:3;stroke-linecap:butt;stroke-linejoin:miter;stroke-miterlimit:4;stroke-dasharray:1.5, 1.50000000000000000;stroke-dashoffset:0;stroke-opacity:1"
     d="m 29.90103,42.311802 8.364251,8.535503 4.085614,6.750954 4.024501,5.892798 3.891024,-0.231017"
     id="path14359-1-7-5-3-0-73-1-9-8-2-8"
     inkscape:connector-curvature="0"
     sodipodi:nodetypes="ccccc"
     inkscape:transform-center-x="-0.033664394"
     inkscape:transform-center-y="-0.16414581" />
  <path
     style="fill:none;stroke:#000000;stroke-width:3;stroke-linecap:butt;stroke-linejoin:miter;stroke-miterlimit:4;stroke-dasharray:1.5, 1.50000000000000000;stroke-dashoffset:0;stroke-opacity:1"
     d="m 57.445195,49.17105 -3.856327,2.192483"
     id="path14359-1-7-5-3-0-73-1-9-8-2-6"
     inkscape:connector-curvature="0"
     sodipodi:nodetypes="cc"
     inkscape:transform-center-x="-0.033664394"
     inkscape:transform-center-y="-0.16414581" />
  <path
     style="fill:none;stroke:#000000;stroke-width:3;stroke-linecap:butt;stroke-linejoin:miter;stroke-miterlimit:4;stroke-dasharray:1.5, 1.50000000000000000;stroke-dashoffset:0;stroke-opacity:1"
     d="m 42.97647,25.806739 2.574218,4.335998"
     id="path14359-1-7-5-3-0-73-1-9-8-2-5"
     inkscape:connector-curvature="0"
     sodipodi:nodetypes="cc"
     inkscape:transform-center-x="-0.033664394"
     inkscape:transform-center-y="-0.16414581" />
  <path
     style="fill:none;stroke:#000000;stroke-width:3;stroke-linecap:butt;stroke-linejoin:miter;stroke-miterlimit:4;stroke-dasharray:1.5, 1.50000000000000000;stroke-dashoffset:0;stroke-opacity:1"
     d="m 51.657704,62.782367 2.261311,15.968901 2.349246,8.730488"
     id="path14359-1-7-5-3-0-73-1-9-8-2-7"
     inkscape:connector-curvature="0"
     sodipodi:nodetypes="ccc"
     inkscape:transform-center-x="-0.033664394"
     inkscape:transform-center-y="-0.16414581" />
  <path
     style="fill:none;stroke:#000000;stroke-width:3;stroke-linecap:butt;stroke-linejoin:miter;stroke-miterlimit:4;stroke-dasharray:1.5, 1.50000000000000000;stroke-dashoffset:0;stroke-opacity:1"
     d="m 56.05191,53.136551 3.431623,7.33692"
     id="path14359-1-7-5-3-0-73-1-9-8-2-2"
     inkscape:connector-curvature="0"
     sodipodi:nodetypes="cc"
     inkscape:transform-center-x="-0.033664394"
     inkscape:transform-center-y="-0.16414581" />
  <path
     style="fill:none;stroke:#000000;stroke-width:3;stroke-linecap:butt;stroke-linejoin:miter;stroke-miterlimit:4;stroke-dasharray:1.5, 1.50000000000000000;stroke-dashoffset:0;stroke-opacity:1"
     d="m 60.017412,63.103895 8.361707,-1.451491"
     id="path14359-1-7-5-3-0-73-1-9-8-2-79"
     inkscape:connector-curvature="0"
     sodipodi:nodetypes="cc"
     inkscape:transform-center-x="-0.033664394"
     inkscape:transform-center-y="-0.16414581" />
  <path
     style="fill:none;stroke:#000000;stroke-width:3;stroke-linecap:butt;stroke-linejoin:miter;stroke-miterlimit:4;stroke-dasharray:1.5, 1.50000000000000000;stroke-dashoffset:0;stroke-opacity:1"
     d="m 70.627809,61.281908 c 2.480992,2.593303 4.857936,5.989592 8.011037,7.391941 l 2.114758,2.937064 6.59562,12.119692"
     id="path14359-1-7-5-3-0-73-1-9-8-2-0"
     inkscape:connector-curvature="0"
     sodipodi:nodetypes="cccc"
     inkscape:transform-center-x="-0.033664394"
     inkscape:transform-center-y="-0.16414581" />
  <path
     style="fill:none;stroke:#000000;stroke-width:3;stroke-linecap:butt;stroke-linejoin:miter;stroke-miterlimit:4;stroke-dasharray:1.5, 1.50000000000000000;stroke-dashoffset:0;stroke-opacity:1"
     d="m 70.091931,83.467282 0.216351,7.872801 c 1.715144,3.199936 3.701631,4.446412 5.250611,6.781174 1.772001,2.670923 2.311229,14.285613 3.000921,17.576823 1.345218,6.41938 2.484908,10.36007 4.715732,15.54048 0.955595,3.68376 3.787213,8.336 5.573139,10.1817"
     id="path14359-1-7-5-3-0-73-1-9-8-2-01"
     inkscape:connector-curvature="0"
     sodipodi:nodetypes="ccsscc"
     inkscape:transform-center-x="-0.033664394"
     inkscape:transform-center-y="-0.16414581" />
  <path
     style="fill:none;stroke:#000000;stroke-width:3;stroke-linecap:butt;stroke-linejoin:miter;stroke-miterlimit:4;stroke-dasharray:1.5, 1.50000000000000000;stroke-dashoffset:0;stroke-opacity:1"
     d="m 59.374357,85.717972 8.468883,0.04897"
     id="path14359-1-7-5-3-0-73-1-9-8-2-71"
     inkscape:connector-curvature="0"
     sodipodi:nodetypes="cc"
     inkscape:transform-center-x="-0.033664394"
     inkscape:transform-center-y="-0.16414581" />
  <path
     style="fill:none;stroke:#000000;stroke-width:3;stroke-linecap:butt;stroke-linejoin:miter;stroke-miterlimit:4;stroke-dasharray:1.5, 1.50000000000000000;stroke-dashoffset:0;stroke-opacity:1"
     d="m 94.849526,156.56113 2.467041,3.69295 c 0.658857,0.52441 0.213481,1.10099 1.966521,2.02264 1.924522,-0.49307 6.240662,-2.5157 9.611732,-0.99539 2.82808,1.27543 5.11304,3.16814 9.85461,5.80751 4.49754,0.911 8.10371,0.93246 9.6471,0.16077 1.24527,-0.62264 2.8883,-0.42598 4.17985,-1.07176 1.67986,-0.83993 3.17685,-1.89074 4.39421,-3.1081 1.14297,-1.14297 4.01645,-1.1227 5.14444,-2.25069 0.61672,-0.61673 1.5176,-1.42758 1.92916,-2.25069 0.88206,-1.76413 0.5228,-3.16991 1.71481,-4.3942"
     id="path14359-1-7-5-3-0-73-1-9-8-2-9"
     inkscape:connector-curvature="0"
     sodipodi:nodetypes="cccscccsccc"
     inkscape:transform-center-x="-0.033664394"
     inkscape:transform-center-y="-0.16414581" />
  <path
     style="fill:none;stroke:#000000;stroke-width:3;stroke-linecap:butt;stroke-linejoin:miter;stroke-miterlimit:4;stroke-dasharray:1.5, 1.50000000000000000;stroke-dashoffset:0;stroke-opacity:1"
     d="m 156.64425,140.78512 2.03434,-3.15707 c 0.19485,-0.20067 0.40665,-0.38617 0.58455,-0.602 0.15448,-0.18741 0.34215,-1.13362 0.42871,-1.39329 0.22527,-0.67581 3.20759,-6.10133 3.42962,-6.32336 2.61449,-2.82624 11.7471,-4.58691 14.46872,-5.14444"
     id="path14359-1-7-5-3-0-73-1-9-8-2-04"
     inkscape:connector-curvature="0"
     sodipodi:nodetypes="cccccc"
     inkscape:transform-center-x="-0.033664394"
     inkscape:transform-center-y="-0.16414581" />
  <path
     style="fill:none;stroke:#000000;stroke-width:3;stroke-linecap:butt;stroke-linejoin:miter;stroke-miterlimit:4;stroke-dasharray:1.5, 1.50000000000000000;stroke-dashoffset:0;stroke-opacity:1"
     d="m 168.05055,89.254776 1.28812,3.692947 c 0.68733,1.953354 1.4159,2.541388 2.35686,4.423304 0.91359,1.827179 1.86861,3.415703 2.78657,5.251613 0.84491,1.68982 0.75634,3.87056 1.60763,5.57314 0.53761,1.0752 -0.0282,2.73016 0.53588,3.85832 1.00913,3.41153 3.34082,10.30725 5.57314,12.43239"
     id="path14359-1-7-5-3-0-73-1-9-8-2-76"
     inkscape:connector-curvature="0"
     sodipodi:nodetypes="ccscccc"
     inkscape:transform-center-x="-0.033664394"
     inkscape:transform-center-y="-0.16414581" />
  <path
     style="fill:none;stroke:#000000;stroke-width:3;stroke-linecap:butt;stroke-linejoin:miter;stroke-miterlimit:4;stroke-dasharray:1.5, 1.50000000000000000;stroke-dashoffset:0;stroke-opacity:1"
     d="m 147.68716,25.27086 13.93485,0.156145 c 2.27783,4.792261 4.11756,9.474997 5.25361,13.981815 0.43281,1.91907 -0.32453,3.599536 -0.32453,5.338921 0,2.695514 0.32153,5.479429 0.32153,7.931004 0,0.187802 0.11952,1.059416 0,1.178933 -0.26272,0.262715 -0.42995,3.110059 -1.37414,6.005787 m -1.11305,4.796278 c -0.69686,3.469023 -1.04961,5.615599 -0.94243,7.41781"
     id="path14359-1-7-5-3-0-73-1-9-8-2-51"
     inkscape:connector-curvature="0"
     sodipodi:nodetypes="cccsscccc"
     inkscape:transform-center-x="-0.033664394"
     inkscape:transform-center-y="-0.16414581" />
  <path
     style="fill:none;stroke:#000000;stroke-width:3;stroke-linecap:butt;stroke-linejoin:miter;stroke-miterlimit:4;stroke-dasharray:1.5, 1.50000000000000000;stroke-dashoffset:0;stroke-opacity:1"
     d="m 147.62927,27.232565 0.002,8.08715"
     id="path14359-1-7-5-3-0-73-1-9-8-2-55"
     inkscape:connector-curvature="0"
     sodipodi:nodetypes="cc"
     inkscape:transform-center-x="-0.033664394"
     inkscape:transform-center-y="-0.16414581" />
  <path
     style="fill:none;stroke:#000000;stroke-width:3;stroke-linecap:butt;stroke-linejoin:miter;stroke-miterlimit:4;stroke-dasharray:1.5, 1.50000000000000000;stroke-dashoffset:0;stroke-opacity:1"
     d="m 149.83068,49.385401 c 1.87107,4.255513 4.11396,8.511026 5.19809,12.766538 -2.88663,3.72599 -6.3639,9.223887 -9.80465,14.612243"
     id="path14359-1-7-5-3-0-73-1-9-8-2-99"
     inkscape:connector-curvature="0"
     sodipodi:nodetypes="ccc"
     inkscape:transform-center-x="-0.033664394"
     inkscape:transform-center-y="-0.16414581" />
  <path
     style="fill:none;stroke:#000000;stroke-width:3;stroke-linecap:butt;stroke-linejoin:miter;stroke-miterlimit:4;stroke-dasharray:1.5, 1.50000000000000000;stroke-dashoffset:0;stroke-opacity:1"
     d="m 143.98529,73.524305 -7.71465,-1.98737"
     id="path14359-1-7-5-3-0-73-1-9-8-2-992"
     inkscape:connector-curvature="0"
     sodipodi:nodetypes="cc"
     inkscape:transform-center-x="-0.033664394"
     inkscape:transform-center-y="-0.16414581" />
  <path
     style="fill:none;stroke:#000000;stroke-width:3;stroke-linecap:butt;stroke-linejoin:miter;stroke-miterlimit:4;stroke-dasharray:1.5, 1.50000000000000000;stroke-dashoffset:0;stroke-opacity:1"
     d="m 135.25478,73.821468 -0.21235,8.301502"
     id="path14359-1-7-5-3-0-73-1-9-8-2-4"
     inkscape:connector-curvature="0"
     sodipodi:nodetypes="cc"
     inkscape:transform-center-x="-0.033664394"
     inkscape:transform-center-y="-0.16414581" />
  <path
     style="fill:none;stroke:#000000;stroke-width:3;stroke-linecap:butt;stroke-linejoin:miter;stroke-miterlimit:4;stroke-dasharray:1.5, 1.50000000000000000;stroke-dashoffset:0;stroke-opacity:1"
     d="m 131.82516,79.180255 -3.32731,1.131342 -4.28017,2.561601"
     id="path14359-1-7-5-3-0-73-1-9-8-2-06"
     inkscape:connector-curvature="0"
     sodipodi:nodetypes="ccc"
     inkscape:transform-center-x="-0.033664394"
     inkscape:transform-center-y="-0.16414581" />
  <path
     style="fill:none;stroke:#000000;stroke-width:3;stroke-linecap:butt;stroke-linejoin:miter;stroke-miterlimit:4;stroke-dasharray:1.5, 1.50000000000000000;stroke-dashoffset:0;stroke-opacity:1"
     d="m 89.169211,81.32377 3.967502,-2.523247 c 1.366883,-0.445348 2.101991,-1.216482 2.892746,-2.007237 0.704737,-0.704738 2.829233,-1.43595 3.643975,-2.250691 1.406546,-1.513715 3.615656,-5.396443 5.364646,-7.479901 m 1.33677,1.686553 11.19693,9.115796 -0.21435,5.894666"
     id="path14359-1-7-5-3-0-73-1-9-8-2-22"
     inkscape:connector-curvature="0"
     sodipodi:nodetypes="ccsccccc"
     inkscape:transform-center-x="-0.033664394"
     inkscape:transform-center-y="-0.16414581" />
  <path
     style="fill:none;stroke:#000000;stroke-width:3;stroke-linecap:butt;stroke-linejoin:miter;stroke-miterlimit:4;stroke-dasharray:9, 3;stroke-dashoffset:0;stroke-opacity:1"
     d="m 13.158464,20.148011 34.158528,0.340032 1.812162,5.213481 3.376565,6.938186 m 4.300268,7.260495 5.435507,6.569208 0.733158,10.9336 9.434301,0.04646 3.472007,2.523497 8.747223,5.971827 4.694888,9.349603 7.238734,-5.634156 3.481015,-4.648398 -8.75466,-21.581122 -3.019197,-3.625714 -4.720843,-11.107189 -0.436036,-8.000287 82.426536,-0.52563 6.19267,14.62705 1.56832,15.216462 -3.27732,19.225652 m 2.3598,18.148245 c 6.68002,7.614745 9.39644,16.078832 10.99433,24.782602 2.14271,4.53809 4.05691,9.30468 6.88469,13.1577 l -5.49861,3.47791 -15.73644,3.57038 -7.29189,10.4485 m -11.29519,11.11628 -1.4846,8.38067 -13.03333,8.83722 -15.99103,3.26627 -11.01798,-6.06334 -4.72968,-2.19177 m -5.271021,1.76549 -5.33837,9.68042 -8.123972,-0.30336 -4.13411,-1.25668 -7.944518,1.79394 m -11.482392,-3.38815 -6.851647,-3.52831 4.51378,-13.30974 -7.531949,-11.63672 6.424115,-5.6843 m -0.34179,-15.90946 -1.992599,-5.77312 m -10.166944,-9.72315 -0.320993,-4.12395 8.401864,-6.376745 -3.080368,-8.774972 -0.930204,-3.52118 m -2.818344,-9.610133 0.0073,-8.60757 -3.717858,0.06671 -6.149378,-8.050446 -3.847721,-6.379293 -7.750166,-7.128623 m -12.455437,-14.186923 0.02146,-7.877292"
     id="path14359-1-7-5-3-0-73-1-9-48-3"
     inkscape:connector-curvature="0"
     sodipodi:nodetypes="cccccccccccccccccccccccccccccccccccccccccccccccccccccccccc"
     inkscape:transform-center-x="0.16414611"
     inkscape:transform-center-y="0.033664304" />
  <path
     style="fill:none;stroke:#000000;stroke-width:1;stroke-linecap:butt;stroke-linejoin:miter;stroke-miterlimit:4;stroke-dasharray:none;stroke-dashoffset:0;stroke-opacity:1"
     d="m 7.3369879,23.053477 c 3.7763421,0.05582 7.5562951,0.108827 11.3391771,0.15878 m 1.949814,0.02547 c 0.568326,0.0073 1.136716,0.01462 1.705167,0.02182 m 2.030987,0.02543 c 3.732674,0.04618 7.467862,0.08927 11.204912,0.12905 m 1.624102,0.01708 c 0.596559,0.0062 1.193162,0.0123 1.789808,0.01833 m 2.270509,0.0225 c 5.060807,0.04921 10.124414,0.09214 15.189197,0.128213 m 2.355018,0.01628 c 0.784992,0.0053 1.570007,0.01035 2.355037,0.01527 m 2.273848,0.01379 c 4.737368,0.02773 9.475112,0.04923 14.211904,0.06404 m 2.274384,0.0066 c 0.812197,0.0022 1.624361,0.0041 2.436483,0.0059 m 2.111152,0.0041 c 4.522649,0.0079 9.043849,0.0095 13.562442,0.0044 m 2.355151,-0.0033 c 0.86637,-0.0014 1.73263,-0.0031 2.59879,-0.005 m 2.51756,-0.0063 c 4.82262,-0.0135 9.64155,-0.03491 14.45537,-0.06473 m 2.43677,-0.01582 c 0.75768,-0.0051 1.51523,-0.0105 2.27264,-0.01607 m 2.84278,-0.0219 c 10.2375,-0.08252 20.44849,-0.204319 30.61937,-0.370181 m 2.43436,-0.04055 c 0.84065,-0.0143 1.68103,-0.02891 2.52111,-0.04382 m 3.24755,-0.05921 c 4.77374,-0.08934 9.53779,-0.188711 14.29074,-0.298613 m 2.35771,-0.0554 c 0.78358,-0.01871 1.56686,-0.03771 2.34982,-0.057 m 2.27447,-0.05688 c 5.86679,-0.1489 11.71552,-0.314291 17.54351,-0.497115 m 3.41527,-0.109218 c 0.91291,-0.02975 1.8253,-0.05994 2.73715,-0.09056"
     id="path14359-1-7-5-3-0-73-1-9-48-7"
     inkscape:connector-curvature="0"
     sodipodi:nodetypes="cccccccccccccccccccccccccccccccccccc"
     inkscape:transform-center-x="0.16414611"
     inkscape:transform-center-y="0.033664304" />
  <path
     style="fill:none;stroke:#000000;stroke-width:0.5;stroke-linecap:round;stroke-linejoin:round;stroke-miterlimit:4;stroke-dasharray:none;stroke-opacity:1"
     d="m 129.63875,198.97805 c 0.52931,-0.0667 1.18248,0.10557 1.56307,-0.27503 0.53013,-0.53013 0.94906,-1.62546 1.46575,-2.14215 0.36867,-0.36867 1.03209,-1.05603 1.41789,-1.44183 0.51428,-0.51428 1.52129,0.31525 1.70313,0.49709 0.46698,0.46698 1.54147,0.15066 2.15588,0.45786 0.70834,0.35416 1.62941,0.9253 2.21395,1.10521 0.99467,0.30613 1.73972,-0.20448 2.4258,-0.30917 0.52552,-0.0802 1.21542,0.61346 2.66669,0.71916 3.18896,0.23225 5.06275,-2.18636 6.37191,-2.35912 1.30433,-0.17212 1.68315,1.09231 2.86131,1.04205 0.75277,-0.0321 1.72645,0.0343 2.53683,-0.70385 0.8378,-0.76317 2.01013,-1.14529 2.70593,-0.87805"
     id="path11414"
     inkscape:connector-curvature="0"
     sodipodi:nodetypes="csssssssssssc" />
  <path
     style="fill:none;stroke:#000000;stroke-width:0.5;stroke-linecap:round;stroke-linejoin:round;stroke-miterlimit:4;stroke-dasharray:none;stroke-opacity:1"
     d="m 145.12992,23.533748 -0.002,23.574972"
     id="path14359-1-7-5-3-0-73-1-9-5"
     inkscape:connector-curvature="0"
     sodipodi:nodetypes="cc"
     inkscape:transform-center-x="0.03366111"
     inkscape:transform-center-y="-0.1641457" />
  <path
     style="fill:none;stroke:#000000;stroke-width:0.5;stroke-linecap:round;stroke-linejoin:round;stroke-miterlimit:4;stroke-dasharray:none;stroke-opacity:1"
     d="m 86.257619,24.007251 -0.09602,5.048388 5.12579,9.903751 c 0.660708,1.276581 2.155473,0.983599 3.125003,2.778724 0.70592,1.30704 -0.230971,2.199788 0.327868,3.549618 l 7.94979,19.202047 1.43592,0.106651 15.3552,12.195847 -0.001,6.381651 c 0.21739,-0.03818 0.92425,0.507547 1.18439,0.247403 0.79459,-0.794589 1.69094,-1.454193 2.44644,-2.209685 0.36021,-0.360217 1.18057,-0.154649 1.57834,-0.552421 0.56459,-0.564583 1.22434,-1.14543 1.8151,-1.73618 0.7685,-0.768502 2.36871,-1.184944 3.1567,-1.972933 0.6871,-0.687105 2.59009,0.803349 2.7621,0.631338 1.27683,-0.724403 0.0158,-3.567113 0.55242,-4.103699 0.27104,-0.271046 0.6309,-0.985801 0.86809,-1.341594 3.78478,-0.114422 1.18795,-1.819294 2.05185,-2.683189 0.10613,-0.106132 0.43443,-0.118763 0.55242,-0.236752 0.087,-0.08702 2.87737,0.58877 2.91994,0.631338 0.0255,0.0255 3.87464,0.481193 4.02478,0.631339 0.24556,0.24556 0.20095,1.104842 0.63134,1.104842 0.14299,0 1.39236,0.58057 1.73618,0.236752 0.25779,-0.257786 0.71358,-0.555745 1.02593,-0.86809 0.85656,-0.856567 -0.27305,-3.120414 0.55242,-3.945865 0.30591,-0.30591 0.45101,-0.845592 0.71026,-1.104843 0.27049,-0.270491 0.53235,-0.305635 0.86809,-0.473504 0.361,-0.180502 1.91077,-1.752937 2.36751,-2.209684 0.28198,-0.281972 0.4216,-0.974019 0.71026,-1.262677 0.38033,-0.380333 -0.0223,-1.859594 -0.15783,-2.130767 -0.67269,-1.345373 -1.8783,-2.667467 -2.99886,-3.788031 -0.60848,-0.608479 0.62229,-1.666312 0.15783,-2.130767 -0.58669,-0.586688 -1.32131,-1.429547 -1.73618,-2.05185"
     id="path14359-1-7-5-3-0-73-1-9-5-8"
     inkscape:connector-curvature="0"
     sodipodi:nodetypes="ccsssccccccccccccccccscccsccccccc"
     inkscape:transform-center-x="0.03366111"
     inkscape:transform-center-y="-0.1641457" />
  <path
     style="fill:none;stroke:#000000;stroke-width:0.5;stroke-linecap:round;stroke-linejoin:round;stroke-miterlimit:4;stroke-dasharray:none;stroke-opacity:1"
     d="m 99.19805,56.026375 1.73818,-1.162457 c 0.57074,-0.104717 1.96473,1.574897 2.68219,0.857439 0.7039,-0.703901 1.54611,-0.496845 2.44644,-0.947008 2.33347,-1.166737 4.1109,-2.69039 6.07663,-3.709113 0.98345,-0.509664 2.79523,-0.348795 3.6302,-1.18376 0.94693,-0.946931 1.81743,-1.422851 3.15669,-2.288602 0.38983,-0.389832 1.31446,0.421721 1.65726,0.07892 0.68869,-0.688686 2.31341,-0.886128 3.55128,-0.473504 0.39915,-0.02634 2.10008,-0.504192 2.36752,-0.236754 0.55857,0.558569 1.92741,1.443273 3.07777,0.868091 1.65524,-0.235738 3.93251,-1.012558 5.91881,-2.130768 1.08106,-0.212973 2.77281,-0.4394 3.47235,-0.789173 0.26475,-0.132375 1.83926,-0.212593 2.05185,0 0.92337,0.923364 2.7263,0.832277 3.70912,1.815098 0.44209,0.442096 1.00237,1.325894 1.49943,1.657263"
     id="path14359-1-7-5-3-0-73-1-9-5-4"
     inkscape:connector-curvature="0"
     sodipodi:nodetypes="ccccsccccccccccc"
     inkscape:transform-center-x="0.03366111"
     inkscape:transform-center-y="-0.1641457" />
  <path
     style="fill:none;stroke:#000000;stroke-width:0.5;stroke-linecap:round;stroke-linejoin:round;stroke-miterlimit:4;stroke-dasharray:none;stroke-opacity:1"
     d="m 214.10165,73.624934 -0.86609,0.10022 c -1.08554,-0.631861 -1.05086,1.003307 -1.97393,0.54177 -0.54685,-0.273424 -0.53616,-0.693988 -0.94701,-1.104843 -0.26175,-0.261752 -0.95824,0.06768 -1.18376,-0.157834 -0.14565,-0.145653 -0.16547,-0.560059 -0.31567,-0.710256 -0.658,-0.658003 -1.8151,-0.940185 -1.8151,-1.499429"
     id="path14359-1-7-5-3-0-73-1-9-5-4-2"
     inkscape:connector-curvature="0"
     sodipodi:nodetypes="cc"
     inkscape:transform-center-x="0.03366111"
     inkscape:transform-center-y="-0.1641457" />
  <path
     inkscape:connector-curvature="0"
     style="opacity:1;vector-effect:none;fill:none;fill-opacity:1;fill-rule:evenodd;stroke:#000000;stroke-width:0.5;stroke-linecap:round;stroke-linejoin:round;stroke-miterlimit:4;stroke-dasharray:none;stroke-dashoffset:0;stroke-opacity:1"
     d="m 165.83261,63.021208 c 0,0.603501 -0.48923,1.092738 -1.09274,1.09274 -0.6035,2e-6 -1.09273,-0.489237 -1.09273,-1.09274 0,-0.603503 0.48923,-1.092741 1.09273,-1.092739 0.60351,2e-6 1.09274,0.489238 1.09274,1.092739 z"
     id="path11099-4-8"
     sodipodi:nodetypes="sssss" />
  <path
     style="fill:none;stroke:#000000;stroke-width:0.5;stroke-linecap:round;stroke-linejoin:round;stroke-miterlimit:4;stroke-dasharray:none;stroke-opacity:1"
     d="m 181.84856,67.378643 c -0.12753,0.55602 0.24778,0.900193 0.71929,1.104813 0.74775,0.749856 1.85703,-0.613697 2.49323,0.0225 1.66484,1.664839 5.73577,2.787297 7.97065,0.552421 0.39451,-0.394515 1.83335,0.333924 1.97293,0.473504 0.52264,0.522643 2.64951,-0.33251 3.15669,-0.07892 0.37475,0.187371 0.57484,0.49592 0.78918,0.710256 0.37302,0.373028 1.39293,-0.367013 1.49943,-0.473504 0.35974,-0.359741 2.38469,0.411764 2.44643,0.473504 0.29988,0.299881 0.46759,0.78326 0.86809,1.183759 0.51664,0.516638 2.88851,0.299621 3.15669,-0.236752 0.53186,-1.063708 -0.64562,-1.198049 -0.947,-1.499428 -0.15784,-0.157835 -0.55242,-0.07892 -0.71026,-0.236752 -0.47696,-0.476963 -0.26332,-1.289247 -0.71026,-1.736181 -0.42838,-0.428388 -1.18243,-0.630011 -1.65726,-1.104842 -1.08899,-1.088991 -1.83382,-2.070573 -2.91994,-3.156693 -0.50034,-0.500337 -1.63275,-1.107274 -2.32254,-0.417482 -0.67185,0.671852 1.38191,2.755708 2.77191,3.486991 0.95692,0.503435 0.76785,1.056924 0.0241,1.428778 -1.23801,0.619001 -3.05743,-1.598697 -3.78804,-0.86809 -0.56768,0.56768 -2.19313,0.220199 -2.7621,0.789173 -0.22776,0.227755 -1.12084,-0.149839 -1.42051,0 -0.34337,0.171685 -1.2723,0.16745 -1.49943,0.394586 -1.55121,1.551212 -4.15883,1.444299 -5.68205,-0.07892 -0.37515,-0.37515 -1.42706,0.344678 -1.65807,0.113667 -0.45427,0.132553 -0.64497,0.07716 -1.11689,-0.28134 -0.65964,-0.501107 -3.63388,-3.367068 -4.56435,-2.436598 -0.2561,0.256106 -2.81602,2.629274 -3.78803,1.657263 -0.65391,-0.653915 -1.20928,-1.761706 -1.89401,-2.446436 -0.90137,-0.901369 -2.64222,-0.669285 -3.47236,-1.499429 -0.53629,-0.536287 -1.98713,0.09804 -2.9876,0.141057 m -2.0232,-0.897336 c -0.32309,-0.143035 -0.59603,-0.273352 -0.82908,-0.506401 -0.74041,-0.740409 -1.913,1.243697 -2.52536,0.631338 -0.2589,-0.258903 -3.07554,-1.341594 -3.55128,-1.341594 -0.36498,0 -2.08418,0.204421 -2.20968,0.07892 -0.2047,-0.204702 -0.0785,-0.70986 -0.31567,-0.947008 -0.9904,-0.990397 -1.58638,-0.181464 -2.36752,0.07892"
     id="path14359-1-7-5-3-0-73-1-9-5-4-2-5"
     inkscape:connector-curvature="0"
     sodipodi:nodetypes="cccccccccsccccsccscccccscsccscccccsscc"
     inkscape:transform-center-x="0.03366111"
     inkscape:transform-center-y="-0.1641457" />
  <path
     style="fill:none;stroke:#000000;stroke-width:0.5;stroke-linecap:round;stroke-linejoin:round;stroke-opacity:1;stroke-miterlimit:4;stroke-dasharray:none"
     d="m 44.140744,23.81324 c 0.760435,0.197023 0.417061,1.091433 0.796986,1.471358 0.290839,0.29084 0.799796,0.248038 1.103518,0.551759 0.511091,0.511091 0.232839,1.581585 0.674373,2.023118 0.723037,0.723038 1.219848,1.281154 1.777891,1.839198 0.25056,0.25056 -0.104649,1.139448 0.06131,1.471358 0.53191,1.06382 0.57886,2.322544 1.164825,3.494475 0.764255,1.528508 2.338163,3.196455 3.617089,4.475381 0.395784,0.395784 -0.220983,1.618214 0.122613,1.961811 0.223651,0.223651 0.155415,0.678669 0.306533,0.980905 0.33217,0.66434 1.772882,1.958472 2.145731,2.207038 2.196842,1.276512 2.176693,3.709361 3.678391,5.21106 0.257685,0.257684 0.175829,0.727588 0.36784,0.919599 0.346201,0.3462 -1.85333,1.457226 -1.164825,2.14573 0.847659,0.84766 1.432037,1.821863 1.96181,2.88141 0.236193,0.472384 -0.593979,2.961802 -0.06131,3.494475 0.522133,0.522134 0.893326,1.199859 1.471358,1.777891 0.51064,0.510641 2.493761,-0.102804 2.820103,-0.429146 0.373707,-0.373707 1.848499,-0.08484 2.32965,-0.245226"
     id="path11503"
     inkscape:connector-curvature="0" />
  <path
     style="fill:none;stroke:#000000;stroke-width:0.5;stroke-linecap:round;stroke-linejoin:round;stroke-opacity:1;stroke-miterlimit:4;stroke-dasharray:none"
     d="m 66.792737,70.68623 c 0.894371,-0.181725 2.844413,-1.485673 3.291928,-0.143127 0.7402,0.183864 0.202824,1.157005 0.5248,1.478982 0.242045,0.242045 0.6783,0.6783 0.906473,0.906473 0.751384,0.751384 3.514023,1.03315 3.864437,1.383564 0.340261,0.340261 0.289056,1.147819 0.477091,1.335854 0.557201,0.557202 1.293847,1.341556 1.860655,1.908364 0.32482,0.32482 0.0086,1.353036 0.238545,1.812946 0.5492,1.0984 0.646959,4.27285 1.383564,5.009455 0.398666,0.398666 0.501025,0.930407 0.954182,1.383564 0.613164,0.613164 1.280705,0.836441 1.5744,1.717528 1.164875,0.981143 1.476854,2.19249 2.480873,3.196509 0.445698,0.445698 1.387687,1.057845 1.669819,1.62211 0.122259,0.244519 0.88522,0.975434 0.5248,1.335854 -0.10337,0.10337 -0.182885,0.230594 -0.286255,0.333964 -0.166444,0.166445 -1.704002,-1.036075 -1.860654,-1.192727 -0.213313,-0.213313 -1.956073,-0.999304 -1.956073,-1.049601 0,-1.687688 -3.462637,-4.464527 -4.532365,-5.534255 -0.293749,-0.29375 -0.998456,-0.187402 -1.288145,-0.477091 -0.368127,-0.368126 0.472308,-0.806272 0.572509,-0.906473 0.08838,-0.08838 -0.300929,-2.829511 -0.333964,-2.862546 -0.630481,-0.63048 -0.960182,-1.866654 -1.669818,-2.576291 -0.530903,-0.530902 -1.2108,-0.733709 -1.765237,-1.288146 -0.17114,-0.17114 -0.330543,-0.972905 -0.381673,-1.0496 -0.127191,-0.303805 -0.157405,-0.682205 -0.333963,-0.858763 -0.196635,-0.196635 -0.762954,-0.09503 -0.954182,-0.286255 -0.741839,-0.741839 -1.784373,-1.068736 -2.528583,-1.812946 -0.604203,-0.604203 -0.72555,-1.584314 -1.335854,-2.194618 -0.231296,-0.231296 -1.667348,-0.622688 -1.09731,-1.192728 z"
     id="path11505"
     inkscape:connector-curvature="0" />
  <path
     style="fill:none;stroke:#000000;stroke-width:0.5;stroke-linecap:round;stroke-linejoin:round;stroke-opacity:1;stroke-miterlimit:4;stroke-dasharray:none"
     d="m 48.043062,78.701359 4.102982,3.912146"
     id="path11507"
     inkscape:connector-curvature="0" />
  <path
     style="fill:none;stroke:#000000;stroke-width:0.5;stroke-linecap:round;stroke-linejoin:round;stroke-opacity:1;stroke-miterlimit:4;stroke-dasharray:none"
     d="m 46.945753,80.22805 3.435055,3.482764"
     id="path11509"
     inkscape:connector-curvature="0" />
  <path
     style="fill:none;stroke:#000000;stroke-width:0.5;stroke-linecap:round;stroke-linejoin:round;stroke-miterlimit:4;stroke-dasharray:none;stroke-opacity:1"
     d="m 56.964663,89.435906 c 0.603711,-0.06658 1.215477,0.157556 1.6634,0.188457 0.459331,0.03169 0.751289,-0.127517 1.087136,-0.0079 0.612844,0.21826 1.054101,0.570607 1.447865,1.012178 0.417724,0.46844 0.732846,1.912286 0.906473,2.433164 0.62268,0.978024 0.304104,2.039481 0.811054,3.053383 0.215436,0.430872 1.403675,3.168911 1.478982,3.244218 0.191712,0.191712 -0.10434,0.945262 0.09542,1.145022 0.227633,0.22763 -0.190837,1.70364 -0.190837,2.0992 0,0.29927 -1.011909,1.135 -0.620218,1.52669 1.201915,1.20191 0.667927,4.76136 0.667927,6.44073 0.06089,0.94184 -0.769042,1.34724 -1.09731,2.00378 -0.655309,1.31062 0.931345,4.42933 -1.622109,3.57818 -0.211832,-0.0498 -0.396817,-0.10299 -0.57251,-0.19084 -0.847283,-0.42364 -1.455893,-0.84721 -2.242327,-1.24043 -0.46731,-0.23366 -1.26183,-0.16452 -1.622109,-0.5248 -0.129008,-0.12901 -0.572019,-0.81155 -0.238546,-1.14502 0.2171,-0.2171 0.209159,-0.63854 0.381673,-0.81106 0.391945,-0.39194 1.729913,-1.50192 1.288145,-2.38545 -0.145894,-0.29179 -0.643092,-0.26142 -0.906472,-0.5248 -0.232484,-0.23248 -0.557679,-0.22372 -0.763345,-0.42939 -0.341287,-0.34128 -1.119899,-1.38271 -1.860656,-1.86065 -0.51072,0.0575 -1.928003,-0.60058 -2.337746,-0.19083 -0.148397,0.14839 -1.101463,1.18857 -1.478982,0.81105 -0.549558,-0.54956 1.00801,-1.24655 1.288146,-1.52669 0.452383,-0.39252 1.053111,-0.74729 1.526691,-1.28815 0.296379,-0.29637 0.905648,-0.19001 1.145019,-0.42938 0.410033,-0.41003 0.444475,-1.16011 0.858763,-1.5744 0.826549,-0.82655 1.442454,-0.3675 1.908364,-1.76523 0.842869,-1.477582 -0.269988,-6.615303 -1.001891,-7.347205 -0.440861,-0.440861 -0.04809,-1.574784 -0.477091,-2.003783 -0.168636,-0.168635 -0.341871,-0.25436 -0.477091,-0.5248 -0.216679,-0.433359 0.686475,-1.698309 0.954182,-1.765236 z"
     id="path11511"
     inkscape:connector-curvature="0"
     sodipodi:nodetypes="cssscsscsscccccccccccccscccccsssc" />
  <path
     style="fill:none;stroke:#000000;stroke-width:0.5;stroke-linecap:round;stroke-linejoin:round;stroke-miterlimit:4;stroke-dasharray:none;stroke-opacity:1"
     d="m 48.710989,77.413213 c -0.809989,1.403174 -3.895197,4.731675 -1.145018,6.106765 0.363489,0.181744 2.200986,0.279887 2.480873,0 0.01382,-0.01382 0.268378,0.12525 0.333964,0.190835 0.340226,0.340226 1.312882,0.738609 1.717527,0.333964 0.266825,-0.266825 -0.07398,-1.140177 0.09542,-1.478982 0.156055,-0.31211 0.04771,-0.640213 0.04771,-1.001891 0,-2.035968 -1.026028,-2.027919 -2.051491,-3.053383 -0.303934,-0.303934 -0.868765,-1.249863 -1.478982,-1.097309 z"
     id="path11513"
     inkscape:connector-curvature="0"
     sodipodi:nodetypes="ccscscsscc" />
  <path
     style="fill:none;stroke:#000000;stroke-width:0.5;stroke-linecap:round;stroke-linejoin:round;stroke-miterlimit:4;stroke-dasharray:none;stroke-opacity:1"
     d="m 194.33171,129.57935 2.49092,-2.33022"
     id="path11515"
     inkscape:connector-curvature="0"
     sodipodi:nodetypes="cc" />
  <path
     style="fill:none;stroke:#000000;stroke-width:0.5;stroke-linecap:round;stroke-linejoin:round;stroke-opacity:1;stroke-miterlimit:4;stroke-dasharray:none"
     d="m 195.17541,131.98991 4.09796,-4.49972"
     id="path11517"
     inkscape:connector-curvature="0" />
  <path
     style="fill:none;stroke:#000000;stroke-width:0.5;stroke-linecap:round;stroke-linejoin:round;stroke-opacity:1;stroke-miterlimit:4;stroke-dasharray:none"
     d="m 197.46545,132.07026 2.45074,-2.61144"
     id="path11519"
     inkscape:connector-curvature="0" />
  <path
     style="fill:none;stroke:#000000;stroke-width:0.5;stroke-linecap:round;stroke-linejoin:round;stroke-miterlimit:4;stroke-dasharray:none;stroke-opacity:1"
     d="m 194.29154,127.32948 0.0804,4.82113 5.70495,0.0402 2e-5,-4.45957 -1.52671,-0.80352 z"
     id="path11521"
     inkscape:connector-curvature="0"
     sodipodi:nodetypes="cccccc" />
  <path
     style="fill:none;stroke:#000000;stroke-width:0.5;stroke-linecap:round;stroke-linejoin:round;stroke-opacity:1;stroke-miterlimit:4;stroke-dasharray:none"
     d="m 61.288728,178.03923 6.125248,0.0725 v -1.3048 h 1.920936 l -0.03624,-1.34103 -0.761129,0.0362 0.07249,-0.68859 -2.754552,0.0362 0.03624,0.68868 h -2.899522 v 0.68864 l -1.196054,0.0362 v 0.65244 l -0.471173,0.10873 z"
     id="path11523"
     inkscape:connector-curvature="0" />
  <path
     style="fill:none;stroke:#000000;stroke-width:0.5;stroke-linecap:round;stroke-linejoin:round;stroke-opacity:1;stroke-miterlimit:4;stroke-dasharray:none"
     d="m 64.188254,175.68337 v 2.42835"
     id="path11525"
     inkscape:connector-curvature="0" />
  <path
     style="fill:none;stroke:#000000;stroke-width:0.5;stroke-linecap:round;stroke-linejoin:round;stroke-opacity:1;stroke-miterlimit:4;stroke-dasharray:none"
     d="m 65.927969,174.95849 v 3.08074"
     id="path11527"
     inkscape:connector-curvature="0" />
  <path
     style="fill:none;stroke:#000000;stroke-width:0.5;stroke-linecap:round;stroke-linejoin:round;stroke-miterlimit:4;stroke-dasharray:none;stroke-opacity:1"
     d="m 158.77145,255.43569 0.11907,-2.85753 c 10.58241,0.0654 18.51393,-0.53461 28.15856,-1.36923 l -1.1311,-23.57461 c -15.34994,0.64791 -30.68859,0.77982 -46.07765,0.29766 -0.47308,0.0991 -1.10169,3.3632 -0.77392,3.69097 0.78033,0.78033 1.04871,1.88216 1.78596,2.6194 0.38262,0.38263 -0.53772,1.7245 -0.3572,1.90502 1.05623,1.05623 1.87854,2.50691 2.50034,3.75051 0.244,0.48799 -0.0404,1.44789 0.35719,1.84549 0.4136,0.4136 1.89977,0.59006 1.90502,0.59531 0.2298,0.2298 0.50558,0.50558 0.71438,0.71439 0.25036,0.25035 -1.21902,3.72212 -0.83344,4.10769 0.44847,0.44848 1.19614,0.60083 1.66689,1.07158 0.32938,0.32937 0.2341,0.88492 0.41672,1.25017 0.0679,0.13584 1.95193,2.19005 2.14315,2.38127 0.15131,0.15131 0.63253,0.15627 0.77391,0.29766 0.3287,0.32869 0.39707,0.93286 0.71439,1.25017 0.17212,0.17212 1.47329,0.53579 1.78595,0.53579 0.0992,0.0397 0.19844,0.0794 0.29766,0.11906 0.0198,0.0198 0.0344,0.047 0.0595,0.0595 0.67601,0.338 1.78258,0.0562 2.26221,0.53579 0.0571,0.0571 0.48911,0.88012 0.83345,0.53579 0.0963,-0.0963 0.63071,-0.79806 0.83345,-0.59532 0.51638,0.51638 0.81411,0.83345 1.84548,0.83344 z"
     id="path11529"
     inkscape:connector-curvature="0"
     sodipodi:nodetypes="ccccc" />
  <path
     style="fill:#000000;stroke:#000000;stroke-width:1;stroke-linecap:round;stroke-linejoin:round;stroke-miterlimit:4;stroke-dasharray:none;stroke-opacity:1;fill-opacity:1"
     d="m 154.54569,228.58485 -0.24013,7.44545 -9.3465,-0.23813 0.0615,-7.20732 z"
     id="path14359-1-7-5-3-0-73-1-9-5-4-2-8"
     inkscape:connector-curvature="0"
     sodipodi:nodetypes="ccccc"
     inkscape:transform-center-x="0.03366111"
     inkscape:transform-center-y="-0.1641457" />
  <path
     style="fill:none;stroke:#000000;stroke-width:0.5;stroke-linecap:butt;stroke-linejoin:miter;stroke-miterlimit:4;stroke-dasharray:none;stroke-opacity:1"
     d="m 108.29345,214.35079 -5e-4,5.78452 m -6.3e-4,7.26913 -8.7e-4,10.09827"
     id="path14359-1-7-5-3-0-73-1-9-489"
     inkscape:connector-curvature="0"
     sodipodi:nodetypes="cccc"
     inkscape:transform-center-x="0.03366111"
     inkscape:transform-center-y="-0.1641457" />
  <path
     style="fill:#000000;fill-opacity:1;stroke:#000000;stroke-width:0.5;stroke-linecap:butt;stroke-linejoin:miter;stroke-miterlimit:4;stroke-dasharray:none;stroke-opacity:1"
     d="m 107.41239,238.49368 -0.002,14.07681 0.85785,-0.9933 0.002,-14.07681 z"
     id="path14359-1-7-5-3-0-73-1-9-489-2-2"
     inkscape:connector-curvature="0"
     sodipodi:nodetypes="ccccc"
     inkscape:transform-center-x="0.03366111"
     inkscape:transform-center-y="-0.1641457" />
  <path
     style="fill:#000000;stroke:#000000;stroke-width:0.5;stroke-linecap:butt;stroke-linejoin:round;stroke-miterlimit:4;stroke-dasharray:none;stroke-opacity:1;fill-opacity:1"
     d="m 109.26152,214.5995 h -1.98659 l 0.9953,-8.25248 z"
     id="path14359-1-7-5-3-0-73-1-9-489-2-9"
     inkscape:connector-curvature="0"
     sodipodi:nodetypes="cccc"
     inkscape:transform-center-x="0.03366111"
     inkscape:transform-center-y="-0.1641457" />
  <path
     style="fill:none;stroke:#000000;stroke-width:1px;stroke-linecap:round;stroke-linejoin:round;stroke-opacity:1"
     d="m 15.646073,23.288496 c 1.652083,2.467173 -0.182225,6.576685 1.245459,8.718211"
     id="path39987"
     inkscape:connector-curvature="0"
     sodipodi:nodetypes="cc" />
  <path
     style="fill:none;stroke:#000000;stroke-width:1;stroke-linecap:round;stroke-linejoin:round;stroke-miterlimit:4;stroke-dasharray:none;stroke-opacity:1"
     d="m 27.245406,43.015935 c 0.466229,0.704253 0.890851,1.450112 1.554823,1.95662 1.50622,1.349091 1.644181,2.6109 2.958964,3.925683 1.538315,1.538315 3.602074,2.512298 5.215358,4.125582 1.056472,1.056472 1.927912,4.263147 2.802282,5.137516 0.407123,0.407123 0.208805,1.376423 0.622729,1.790347 0.28092,0.28092 0.274884,0.741931 0.622729,1.089776 1.065691,1.065691 2.060257,2.682986 3.425011,4.047741 1.511633,1.511632 4.893249,0.679082 5.526723,1.946029 0.284435,0.568869 -0.161677,1.544835 0.155682,2.179552 1.18433,2.368661 0.07784,6.34896 0.07784,9.029575"
     id="path14359-1-7-5-3-0-73-1-9-489-2"
     inkscape:connector-curvature="0"
     sodipodi:nodetypes="cc"
     inkscape:transform-center-x="0.03366111"
     inkscape:transform-center-y="-0.1641457" />
  <path
     style="fill:none;stroke:#000000;stroke-width:1;stroke-linecap:round;stroke-linejoin:round;stroke-miterlimit:4;stroke-dasharray:none;stroke-opacity:1"
     d="m 7.5515922,88.397331 c 0.8555861,-0.661242 1.633331,-0.799901 2.3332348,-0.378614 2.914754,1.9005 1.429237,4.626253 6.383975,4.626253"
     id="path14359-1-7-5-3-0-73-1-9-489-2-8"
     inkscape:connector-curvature="0"
     sodipodi:nodetypes="cc"
     inkscape:transform-center-x="0.03366111"
     inkscape:transform-center-y="-0.1641457" />
  <path
     style="fill:none;stroke:#000000;stroke-width:1;stroke-linecap:round;stroke-linejoin:round;stroke-miterlimit:4;stroke-dasharray:none;stroke-opacity:1"
     d="m 49.897184,77.460648 c -0.593961,-0.434647 -1.382417,-0.492981 -1.921083,0.106453 -1.601836,1.78254 -1.789923,4.018376 -4.152528,6.75416 -0.399884,0.25488 -0.43842,0.667649 -0.621729,0.850958 -0.391841,0.391841 -0.323667,1.413443 -0.778412,1.868188 -0.43843,0.43843 -1.089278,0.466549 -1.478982,0.856253 -0.691372,0.691372 -4.416225,-1.421862 -5.526722,-0.311365 -1.754646,1.754646 -3.691742,6.16433 -7.472752,4.903993"
     id="path14359-1-7-5-3-0-73-1-9-489-2-8-4"
     inkscape:connector-curvature="0"
     sodipodi:nodetypes="csc"
     inkscape:transform-center-x="0.03366111"
     inkscape:transform-center-y="-0.1641457" />
  <path
     style="fill:none;stroke:#000000;stroke-width:1;stroke-linecap:round;stroke-linejoin:round;stroke-miterlimit:4;stroke-dasharray:none;stroke-opacity:1"
     d="m 60.40474,125.64962 c 0,-0.75574 -0.233523,-1.47681 -0.233523,-2.41307 0,-1.63572 0.893067,-4.32229 -0.233524,-5.44888 -1.342082,-1.34209 -3.389843,-1.91087 -4.748311,-3.26933 -1.030198,-1.0302 -0.587531,-4.47959 -1.712505,-5.60457 -1.216756,-1.21675 -2.668779,1.61249 -4.04774,0.23353 -0.307875,-0.30788 -0.35281,-0.93915 -0.544888,-1.3233 -0.829903,-1.65981 1.590944,-2.36936 2.02387,-2.80229 0.422854,-0.42285 1.741733,0.12646 2.02387,-0.15568 0.948407,-0.9484 1.93126,-2.07217 2.568758,-3.34717 0.2384,-0.4768 1.651311,-2.007221 1.011935,-2.646597 -1.167752,-1.167752 -1.152539,-9.870749 -2.957964,-11.676174 -0.460939,-0.460939 0.0342,-1.639916 -0.70157,-2.018575 -0.658144,-0.566124 -0.07652,-3.639633 0.002,-4.992425 2.244225,-0.550903 4.358105,-1.828627 4.358105,-4.43165 0,-2.785019 -0.916222,-6.400848 0.778411,-8.095481 0.4412,-0.4412 5.249976,0.276747 5.915928,-0.389206 0.713839,-0.713839 -0.121348,-1.936856 0.389206,-2.957964 0.525194,-1.050388 1.22216,-1.377842 2.02387,-2.179552 0.618473,-0.618473 0.552114,-1.797573 1.167618,-2.413076 1.048698,-1.048699 4.892351,-0.167324 5.682404,0.622729 0.50786,0.50786 0.769612,1.625865 1.245459,2.101711 0.994456,0.994456 2.429954,1.651543 3.34717,2.568759 0.72042,0.720419 2.006341,0.449518 2.802282,1.245458 0.470211,0.470212 0.305899,1.629199 0.856252,2.179553 0.686996,0.686995 2.025329,1.558282 2.6466,2.179552 0.246497,0.246497 0.22055,0.765438 0.467047,1.011935 0.728914,0.728915 -0.190772,2.940419 1.089776,3.580694 1.626449,0.813224 1.379875,4.184564 3.425011,3.502852 1.342333,-0.64161 2.614203,-1.135221 3.425011,-1.946029 0.546418,-0.546418 1.075874,-1.46508 1.634665,-2.023871 1.051374,-1.051374 2.262879,-0.861738 2.72444,-1.323299 0.758706,-0.758706 1.670525,-1.203478 2.568758,-2.101711 0.639069,-0.639068 0.639279,-1.57337 1.245459,-2.179553 0.8518,-0.851802 1.52158,-1.910786 2.33523,-2.724441 0.95453,-0.954527 0.44687,-2.951238 2.56876,-3.658534 3.39495,-2.18586 5.91814,-4.611457 8.329,-6.460817 0.71616,-0.591599 2.55544,1.258785 3.81422,0.389206 0.58634,-0.586337 4.9226,-3.269328 5.2932,-3.269328 4.38508,-2.577689 7.90794,-2.596635 8.8739,-2.724441 0.31829,-0.318298 1.58373,0.33683 2.10171,0.07784 0.75262,-0.376311 6.2871,-0.718599 6.92786,-0.07784 0.31585,0.315855 3.93144,-0.674319 4.12558,-0.544888"
     id="path14359-1-7-5-3-0-73-1-9-489-2-8-3"
     inkscape:connector-curvature="0"
     sodipodi:nodetypes="ccccccccccssccssssscscsccssscsssscccccccccc"
     inkscape:transform-center-x="0.03366111"
     inkscape:transform-center-y="-0.1641457" />
  <path
     style="fill:none;stroke:#000000;stroke-width:1;stroke-linecap:round;stroke-linejoin:round;stroke-miterlimit:4;stroke-dasharray:none;stroke-opacity:1"
     d="m 148.98898,50.060561 c 1.03722,0.190784 1.99659,0.935951 3.03381,1.95662 -0.19092,1.001192 0.41242,0.01693 0.54588,0.150386 0.96324,0.963232 2.77462,1.529156 3.34717,2.101711 1.03635,1.036343 9.80677,1.866965 10.04151,2.101712 0.35427,0.354264 3.73396,0.853838 4.04774,1.167617 0.35093,0.350926 1.19265,0.258553 1.47899,0.544888 1.56796,1.567962 8.47223,1.712506 11.44265,1.712506"
     id="path14359-1-7-5-3-0-73-1-9-489-2-8-47"
     inkscape:connector-curvature="0"
     sodipodi:nodetypes="cc"
     inkscape:transform-center-x="0.03366111"
     inkscape:transform-center-y="-0.1641457" />
  <path
     style="fill:none;stroke:#000000;stroke-width:1;stroke-linecap:round;stroke-linejoin:round;stroke-miterlimit:4;stroke-dasharray:none;stroke-opacity:1"
     d="m 194.75758,60.268343 c 0.71043,0.2727 1.99246,0.285154 3.11565,0.145091 1.97499,-0.446728 3.63239,-1.68207 4.74731,-2.796986 0.78589,-0.785887 4.07971,-0.05491 4.59263,-0.311364 1.42567,-0.712838 5.21842,-0.984966 6.77218,-0.467047"
     id="path14359-1-7-5-3-0-73-1-9-489-2-8-9"
     inkscape:connector-curvature="0"
     sodipodi:nodetypes="cc"
     inkscape:transform-center-x="0.03366111"
     inkscape:transform-center-y="-0.1641457" />
  <path
     style="fill:none;stroke:#000000;stroke-width:1;stroke-linecap:round;stroke-linejoin:round;stroke-miterlimit:4;stroke-dasharray:none;stroke-opacity:1"
     d="m 54.617754,88.969943 c 0.257198,-0.331422 0.460736,-0.725732 0.782387,-0.778364 1.518034,-0.248398 0.980898,0.969994 5.603287,0.303803 1.638906,-0.357458 5.363461,-0.787933 6.388674,0.237281 0.52091,0.520909 -0.195629,4.13427 1.286109,5.616008 0.464046,0.464046 0.84809,0.89096 1.286109,1.328979 0.310327,0.310327 0.735266,0.392303 1.028887,0.685925 0.689795,0.689795 0.939284,1.625209 1.586201,2.272126 0.354747,0.354747 0.635602,0.713891 0.900276,1.243238 0.156117,0.312231 0.17673,1.077011 0.385833,1.286111 1.104873,1.10487 0.986017,5.42265 0.986017,7.33082 0.257025,2.39121 -0.128225,6.3027 0.857406,8.27397 0.372265,0.74453 0.258849,1.76093 0.643054,2.52934 0.318349,0.6367 0.189269,1.77547 0.685925,2.27213 0.442376,0.44237 0.313314,2.41396 0.814535,2.91518 0.298665,0.29866 0.762465,3.71131 1.071758,4.3299 0.337977,0.67595 0.833565,1.39088 1.371849,1.92916 0.480046,0.48005 0.616875,1.21706 1.071757,1.67194 0.20023,0.20023 0.696381,3.15045 0.986017,3.72972 0.479388,0.95877 1.150728,1.91901 1.671942,2.70083 1.325758,1.32316 1.873841,2.6206 2.400736,4.20129 m 4.887214,12.21803 c 0.506127,0.50613 0.301587,0.94464 0.814535,1.45759 0.464508,0.4645 0.46387,0.80683 0.943147,1.28611 0.333615,0.33361 0.872148,0.65779 1.200368,0.98601 0.180114,0.18012 0.233142,0.49037 0.385833,0.64306 0.387044,0.38704 -0.196316,1.5185 0.171481,1.88629 0.520171,0.52017 0.636024,1.87927 1.028887,2.27213 0.444714,0.44471 0.736064,1.25414 0.986017,1.62907"
     id="path14359-1-7-5-3-0-73-1-9-489-2-8-0"
     inkscape:connector-curvature="0"
     sodipodi:nodetypes="csccsscscccccccccccccccccccsc"
     inkscape:transform-center-x="0.03366111"
     inkscape:transform-center-y="-0.1641457" />
  <path
     style="fill:none;stroke:#000000;stroke-width:1;stroke-linecap:round;stroke-linejoin:round;stroke-miterlimit:4;stroke-dasharray:none;stroke-opacity:1"
     d="m 69.020173,175.17915 c 0.841547,0.1295 2.111849,0.30458 2.771535,-0.0791 0.685095,-0.39849 1.395007,-0.51559 2.20342,-0.43239 0.425929,-0.26591 1.329768,0.18963 1.670941,-0.15154 0.365007,-0.36501 1.348462,-0.53392 1.629071,-0.81453 0.217786,-0.21779 0.633513,-0.16671 0.986017,-0.34297 1.782119,-0.89106 4.588894,-0.042 6.044712,0.68593 0.543892,0.27194 1.572261,0.15754 2.014903,0.60018 0.01846,0.0185 4.017759,0.24181 4.158419,0.17148 0.233875,-0.11693 0.483984,-0.17561 0.728795,-0.25722 0.23864,-0.18216 0.223156,-0.43751 0.385833,-0.60018 0.33055,-0.33055 0.612492,-0.56962 0.900276,-0.85741 0.512149,-0.51215 0.435021,-1.97835 0.986017,-2.52935 0.189237,-0.18923 0.149248,-0.85581 0.300092,-1.15749 0.247512,-0.49503 0.612372,-0.95534 0.943146,-1.28611 0.464503,-0.46451 0.78057,-1.50937 1.243239,-1.97204 0.341308,-0.3413 0.887498,-0.20157 1.200368,-0.51444 0.833004,-0.833 2.731152,-1.05921 3.515363,-1.84342 0.33699,-0.33699 1.68592,0.97203 1.97203,0.68592 1.57918,-1.57917 4.11207,-0.94662 5.61601,0.55732 0.34111,0.34111 1.59698,-0.24645 2.01491,0.17148 0.78744,0.78744 2.10116,1.20088 2.91518,2.0149 0.52712,0.52713 1.36513,0.63634 1.84342,1.11463 0.54581,0.54581 1.18053,1.7692 1.75768,2.05777 0.26718,0.13359 1.09847,0.46596 1.11463,0.51445 0.79732,0.20233 1.45777,-1.05023 2.10064,-0.7288 0.38884,0.19442 0.62818,0.5853 0.85741,0.81454 0.15808,0.15808 0.47524,0.0233 0.68592,0.12861 0.70153,0.35076 2.15913,-1.18476 2.70083,-0.64306 0.29577,0.29577 1.95919,0.61303 2.35787,0.21436 0.6395,-0.63951 1.29696,-1.09862 2.18638,-1.54334 0.6966,-0.3483 3.69243,0.42313 3.9012,0.21436 0.25462,-0.25462 3.20476,-1.37185 3.38675,-1.37185 0.58639,-0.51925 1.18645,-1.35793 1.62908,-1.80056 0.25119,-0.25119 0.78608,-0.44312 1.07175,-0.72879 0.28078,-0.28078 0.88642,-0.44321 1.20037,-0.60018 0.19726,-0.0986 2.1581,-1.51505 2.22926,-1.58621 0.55447,-0.55447 2.29304,-0.49249 3.21527,-1.41472 0.99139,-0.99138 0.525,-3.95463 0.72879,-4.15841 0.34918,-0.34918 0.16523,-1.32273 0.55732,-1.71482 0.14401,-0.14401 0.18081,-0.4809 0.34296,-0.64305 0.87362,-0.87362 1.32928,-1.8865 2.35787,-2.57222 m 8.87415,-9.90304 c 0.17149,-0.34299 0.57679,-0.7054 0.81453,-0.94314 0.6924,-0.6924 0.94606,-1.54625 1.5862,-2.18639 0.17174,-0.17173 0.16096,-0.50392 0.34297,-0.68592 0.61654,-0.61655 0.86789,-1.51095 1.45759,-2.10065 0.4149,-0.41491 0.36372,-1.00678 0.72879,-1.37185 0.30589,-0.30589 0.36607,-0.7519 0.68592,-1.07175 0.92707,-0.92706 1.29292,-2.83626 2.10065,-3.64398 0.99761,-0.99761 2.15981,-1.32898 4.50138,-1.32898 0.79165,0.30234 1.57334,-0.28723 1.92916,-0.64305 0.30009,-0.30009 1.35892,-0.0578 1.75769,-0.25722 0.93617,-0.46809 2.98134,-1.6095 3.72971,-2.35787 0.1369,-0.1369 3.07602,-0.23047 3.47249,-0.4287 0.55498,-0.27749 2.16399,-0.22459 2.48648,-0.38584 1.44786,-0.72393 6.25812,-0.1575 7.75953,0.34297 0.12187,0.0406 0.51198,0.0404 0.60018,0.12861 0.31649,0.31648 0.97745,0.37727 1.28611,0.68592 0.22915,0.22916 0.37358,0.50628 0.64305,0.68593 m 5.87323,2.4436 c 0.54194,0.0704 0.96662,-0.0663 1.11463,-0.21435 0.19427,-0.19427 4.61503,0.45661 4.7586,0.60019 0.51388,0.51387 1.74877,0.72433 2.35787,1.02888 0.55251,0.27626 1.43726,0.79421 1.84342,1.20037 0.35616,0.35616 3.27783,1.49273 3.81546,1.67194"
     id="path14359-1-7-5-3-0-73-1-9-489-2-8-7"
     inkscape:connector-curvature="0"
     sodipodi:nodetypes="cscccccccccccccccscsscscccccsccscsscsccssccscccscccscscccccccsccsc"
     inkscape:transform-center-x="0.03366111"
     inkscape:transform-center-y="-0.1641457" />
  <path
     style="fill:none;stroke:#000000;stroke-width:1;stroke-linecap:round;stroke-linejoin:round;stroke-miterlimit:4;stroke-dasharray:none;stroke-opacity:1"
     d="m 214.05238,108.21871 c -0.53672,0.29909 -1.10903,0.59819 -1.75969,0.89728 -0.0854,-0.007 -0.17089,-0.0276 -0.25622,-0.0199 -0.10295,0.009 -1.07746,0.64876 -1.20036,0.77167 -0.1575,0.15749 -0.77828,0.22672 -1.07176,0.30009 -0.46342,0.11585 -1.29607,0.73543 -1.67194,0.98602 -0.52689,0.47543 -1.08451,0.99872 -1.41472,1.32894 -0.30642,0.30642 -0.69832,0.48396 -1.11463,0.90027 -0.73507,0.73507 -1.21796,1.81815 -2.0149,2.61509 -0.34452,0.34452 -0.65016,1.64328 -0.90028,2.14351 -0.9399,1.87981 -1.62226,4.40884 -3.08666,5.87323 -0.31135,0.78292 -1.02604,2.22641 -1.02889,2.57222 m -4.45851,4.3299 c -0.3629,0.3629 -1.03257,0.51813 -1.45759,0.94315 -0.75849,0.75849 -3.47892,0.86383 -4.37277,1.75768 -0.22938,0.22939 -1.59364,1.46007 -1.71481,1.50046 -0.31521,0.22129 -0.65755,0.52894 -0.85741,0.7288 -0.39384,0.39384 -0.50936,1.15242 -0.8574,1.50046 -0.8166,0.81659 -1.67536,2.36128 -2.35787,3.04379 -0.7764,0.7764 -1.64249,1.65592 -2.18638,2.7437 -0.24158,0.48314 -0.76128,0.66515 -0.98602,1.11462 -0.54237,1.08474 -1.05118,2.08007 -1.80055,2.82944 -0.20419,0.20419 -0.25902,0.64485 -0.51445,0.90028 -0.57492,0.57492 -1.97433,0.99061 -2.35786,1.75768 -0.46707,0.93413 -1.38896,3.27525 -2.14352,4.02981 -0.42488,0.42489 -1.33035,0.60155 -1.75768,1.02889 -0.26952,0.26952 -0.90636,0.0918 -1.20037,0.38583 -0.77232,0.77232 -1.64362,1.17205 -2.40073,1.92916 -1.12805,1.12805 -1.73647,2.73332 -2.48648,3.85833 -0.27359,0.46718 -0.5866,0.71521 -0.94315,1.07176 -0.39679,0.39679 -0.51293,0.77015 -0.94314,1.20036 -0.4353,0.4353 -1.36773,0.46745 -1.75769,0.85741 -0.30248,0.30248 -0.74747,0.66173 -0.98601,0.90028 -0.38463,0.38462 -0.6151,1.64398 -0.7288,2.48648 m 3.00093,12.47524 c 0.66298,1.36886 -0.1992,3.24559 0.25722,4.15843 0.13824,0.27648 0.94314,2.79326 0.94314,3.00092 0,0.47673 0.13007,1.50338 0.34296,1.92916 0.0656,0.13117 -0.0429,3.97811 -0.0429,4.45851 0,0.58441 0.47461,1.58924 0.81454,1.92916 1.14193,0.9423 1.64249,1.57011 2.18641,2.65796 0.16404,0.32808 -0.0288,0.84259 0.12862,1.1575 0.1438,0.28762 0.0851,1.11586 -0.0429,1.37185 -0.14229,0.28458 0.13374,1.06663 -0.0857,1.28611 -0.57709,0.57709 -0.92821,1.89931 -1.32897,2.70083 -0.35688,0.71375 -0.85456,1.19466 -1.24324,1.97203 -1.13539,2.27078 -1.92263,4.74553 -3.04379,6.98786 -0.49119,0.98237 -0.5871,2.11733 -1.07176,3.08666 -0.17135,0.3427 -0.10909,0.96649 -0.34296,1.20037 -0.007,0.007 -0.0857,0.1332 -0.0857,0.12861 0,-0.0572 0.11432,0 0.17148,0"
     id="path14359-1-7-5-3-0-73-1-9-489-2-8-30"
     inkscape:connector-curvature="0"
     sodipodi:nodetypes="cccccccssccccsccscsccssccccscssscccsscsc"
     inkscape:transform-center-x="0.03366111"
     inkscape:transform-center-y="-0.1641457" />
  <path
     style="fill:none;stroke:#000000;stroke-width:1;stroke-linecap:round;stroke-linejoin:round;stroke-miterlimit:4;stroke-dasharray:none;stroke-opacity:1"
     d="m 7.390001,141.08491 c 1.0529796,0.92964 2.3321139,1.51677 3.197961,2.57536 0.170227,0.15669 0.447409,0.43871 0.582812,0.57411 0.422316,0.42232 0.952505,0.77797 1.338165,1.16363 0.60327,0.60326 0.46325,1.68505 1.04726,2.26906 1.457324,1.45732 4.960198,1.70206 6.167199,2.90906 m 7.912631,11.40349 c 0.68986,0.68986 0.481724,2.30629 1.454528,2.7927 0.279918,0.13995 0.693398,-0.0897 0.989079,0.0582 1.089107,0.54455 1.693691,-0.52363 2.501788,-0.52363 0.09129,0 0.328399,-0.13705 0.407267,-0.0582 0.390866,0.39086 4.145933,2.42853 4.712671,1.86179 0.145553,-0.14555 2.636029,-1.79467 2.850874,-1.68725 0.826127,0.76215 1.613636,1.98726 2.676331,2.32724 2.022837,-0.1214 2.585856,-2.35313 3.898135,-3.66541 0.550596,-0.55059 3.473794,-0.29944 4.18904,0.0582 0.398966,0.19949 0.932749,0.14638 1.338166,0.34909 1.207794,0.6039 2.238383,1.36567 3.083599,2.21088 1.172321,1.17233 1.539056,2.87723 2.676331,4.0145 1.318247,1.31825 3.545278,1.85803 4.887214,3.19996 0.405874,0.40588 1.127963,0.25525 1.512708,0.63999 0.415921,0.41592 1.298732,0.93715 1.803615,1.10545 1.238279,-0.12535 2.325363,0.34718 2.967237,0.98905 0.387888,0.38789 1.635541,-0.0517 2.036339,0.34909 0.490131,0.49013 1.194752,0.96203 1.745433,1.51271 0.575043,0.57504 1.101953,1.39286 1.687252,1.97816 1.03769,1.03769 2.951127,1.26387 3.956316,2.26906 0.345688,0.34569 0.669048,1.39628 0.930898,1.91998 0.374441,0.74888 1.154781,1.21296 1.629071,1.68725 0.593694,0.59369 2.872734,-0.0945 3.199961,0.23272 0.455004,0.45501 1.88948,0.80437 2.443607,0.98908 1.28397,0.33325 2.733476,0.55221 3.839954,1.10544 0.628598,0.3143 2.515773,-0.45146 2.61815,-0.34908 0.244665,0.24466 2.642912,0.6567 3.025418,0.46545 0.621352,-0.31068 2.116697,-1.5889 3.199961,-1.04726 1.175188,0.58759 2.423218,0.68798 3.607228,1.27998 2.11439,0.75617 5.81091,3.31707 7.27264,4.71267 0.69156,0.66028 2.36952,0.39927 3.19996,0.81454 0.82307,0.41153 2.90275,0.8538 3.0836,1.39634 m 10.87987,7.97081 c 0.35145,0.35145 0.8536,2.55913 0.69817,3.02542 -0.27274,0.49369 0.32163,2.0638 -0.0582,2.44361 -0.72724,0.72724 -0.79093,5.13092 -1.45453,6.4581 -0.30735,0.61471 -0.014,1.55465 -0.23272,2.21089"
     id="path14359-1-7-5-3-0-73-1-9-489-2-8-1"
     inkscape:connector-curvature="0"
     sodipodi:nodetypes="cccccccccsccccccsccccccccsccccccccccsccccccc"
     inkscape:transform-center-x="0.03366111"
     inkscape:transform-center-y="-0.1641457" />
  <path
     style="fill:none;stroke:#000000;stroke-width:1;stroke-linecap:round;stroke-linejoin:round;stroke-miterlimit:4;stroke-dasharray:none;stroke-opacity:1"
     d="m 61.14735,177.87076 c 0.04776,-0.66821 0.06244,-1.34744 -0.347086,-2.16808 -0.284418,-0.41478 -0.553483,-0.80637 -0.757355,-1.21412 -0.29178,-0.58356 -0.681398,-1.01371 -0.989079,-1.62907 -0.11446,-0.22892 -0.03221,-0.78857 -0.174543,-0.9309 -0.256232,-0.25623 0.433074,-2.85744 0.174543,-3.3745 -0.118159,-0.23632 -0.0637,-1.68173 0.05818,-1.80362 0.18837,-0.18837 -0.03167,-2.06284 0.465449,-2.55997 0.850034,-0.85003 2.746117,-2.87408 3.258143,-3.89813 0.13999,-0.27998 1.411742,-1.96276 0.872716,-2.50179 -1.099246,-1.09924 -1.515531,-2.33006 -2.61815,-3.43268 -0.563074,-0.56308 -0.44381,-2.36378 -1.04726,-2.96724 -1.214957,-1.21496 -3.199961,-2.76498 -3.199961,-5.00357 1.751122,-2.04185 4.13086,-1.82228 4.13086,-5.06176 0,-0.4067 -0.424255,-3.03108 -0.05818,-2.90906"
     id="path14359-1-7-5-3-0-73-1-9-489-2-8-5"
     inkscape:connector-curvature="0"
     sodipodi:nodetypes="ccccccccsccccsc"
     inkscape:transform-center-x="0.03366111"
     inkscape:transform-center-y="-0.1641457" />
  <path
     style="fill:none;stroke:#000000;stroke-width:1;stroke-linecap:round;stroke-linejoin:round;stroke-miterlimit:4;stroke-dasharray:none;stroke-opacity:1"
     d="m 163.93234,23.620937 c 0.42247,0.733593 0.72276,1.507912 0.76359,2.368716 0.52256,1.528187 1.33822,2.255653 2.01067,3.600561 0.31344,0.626876 -0.003,1.719789 0.47849,2.201064 0.33219,0.332189 1.11911,0.994124 1.33978,1.435475 0.23789,0.475779 0.23753,1.57731 0.57419,1.913968 0.4947,0.494697 0.1914,5.030161 0.1914,5.98115 0,2.30225 -0.19132,4.593669 0.71774,6.411792 0.46424,0.928485 -0.52634,5.821269 -0.52634,7.129531 -0.15905,1.837919 -0.13961,3.628656 -0.86129,5.072015 -0.23928,0.47856 0.0506,1.142803 -0.1914,1.626872 -0.21179,0.423585 0.39554,1.661978 0.0479,2.009667 -1.09658,1.096584 -1.1835,3.946036 -1.91396,5.406959 -0.41347,0.826931 0.0478,4.142935 0.0478,5.024166 m 2.39241,12.967132 c 0.68624,1.444833 1.43979,3.07527 2.05752,4.402126 1.26762,1.235104 2.33562,2.517943 3.15809,4.16288 0.16757,0.335147 0.41481,0.989001 0.66989,1.244079 0.28177,0.28178 0.6853,0.605018 0.90913,1.052683 0.31343,0.626853 0.43186,1.723788 0.86129,2.153214 0.52856,0.528573 -0.008,3.286243 0.14354,3.588693 0.1506,0.30119 0.11138,0.68557 0.33495,0.90913 0.77871,0.77872 1.19176,1.38316 1.91397,2.10537 0.39692,0.39692 0.10221,1.44199 0.47849,1.81827 0.17931,0.17931 0.17548,5.10394 0.90913,5.8376 0.46963,0.46962 1.02216,2.18785 1.43548,3.0145 0.18692,0.37384 0.51827,0.80537 0.76559,1.05268 0.10946,0.10947 2.13869,4.88491 2.20106,5.07201 0.70154,1.56547 1.89859,1.5739 3.34944,2.05752"
     id="path14359-1-7-5-3-0-73-1-9-489-2-8-8"
     inkscape:connector-curvature="0"
     sodipodi:nodetypes="cccccssccscccccc"
     inkscape:transform-center-x="0.03366111"
     inkscape:transform-center-y="-0.1641457" />
  <path
     style="fill:#000000;stroke:#000000;stroke-width:0.5;stroke-linecap:butt;stroke-linejoin:miter;stroke-miterlimit:4;stroke-dasharray:none;stroke-opacity:1;fill-opacity:1"
     d="m 119.25145,88.626727 1.4394,-0.929671 0.20806,-0.684356 0.88494,-0.901344 2.57163,-0.730741 -1.24963,-2.378613 -0.90252,-0.982116 -1.6522,1.439008 -1.04806,-0.376349 -0.15373,2.800184 -0.70533,1.069497 -0.048,1.639358 z"
     id="path14359-1-7-5-3-0-73-1-9-489-2-8-59"
     inkscape:connector-curvature="0"
     sodipodi:nodetypes="ccccccccccccc"
     inkscape:transform-center-x="0.03366111"
     inkscape:transform-center-y="-0.1641457" />
  <text
     xml:space="preserve"
     style="font-style:normal;font-variant:normal;font-weight:normal;font-stretch:normal;font-size:6.66666651px;line-height:6.66666651px;font-family:Arial;-inkscape-font-specification:Arial;text-align:start;letter-spacing:0.25px;word-spacing:1.39999998px;text-anchor:start;fill:#000000;fill-opacity:1;stroke:none"
     x="51.35759"
     y="-19.905247"
     id="text5924-3"
     transform="rotate(59.62124)"><tspan
       sodipodi:role="line"
       id="tspan5922-8"
       x="51.35759"
       y="-19.905247">N.Fk.</tspan></text>
  <g
     id="g1065"
     sodipodi:insensitive="true">
    <text
       id="text10323"
       y="193.75067"
       x="166.0089"
       style="font-style:normal;font-variant:normal;font-weight:bold;font-stretch:normal;font-size:6.66666651px;line-height:6.66666651px;font-family:Arial;-inkscape-font-specification:'Arial Bold';text-align:start;letter-spacing:1.10000002px;word-spacing:0px;text-anchor:start;fill:#000000;fill-opacity:1;stroke:none"
       xml:space="preserve"><tspan
         y="193.75067"
         x="166.0089"
         id="tspan10321"
         sodipodi:role="line">Helena</tspan></text>
    <text
       id="text10323-5-3"
       y="222.84412"
       x="41.219257"
       style="font-style:normal;font-variant:normal;font-weight:bold;font-stretch:normal;font-size:6.66666651px;line-height:7.5px;font-family:Arial;-inkscape-font-specification:'Arial Bold';text-align:start;letter-spacing:1.10000002px;word-spacing:0px;text-anchor:start;fill:#000000;fill-opacity:1;stroke:none"
       xml:space="preserve"><tspan
         id="tspan10343-7"
         y="222.84412"
         x="41.219257"
         sodipodi:role="line">Hunting Area</tspan></text>
    <text
       id="text10323-5-3-0"
       y="209.07039"
       x="41.230408"
       style="font-style:normal;font-variant:normal;font-weight:bold;font-stretch:normal;font-size:6.66666651px;line-height:7.5px;font-family:Arial;-inkscape-font-specification:'Arial Bold';text-align:start;letter-spacing:1.10000002px;word-spacing:0px;text-anchor:start;fill:#000000;fill-opacity:1;stroke:none"
       xml:space="preserve"><tspan
         id="tspan10343-7-6"
         y="209.07039"
         x="41.230408"
         sodipodi:role="line">Quote Area</tspan></text>
    <text
       id="text10323-5-3-9"
       y="185.52151"
       x="36.520634"
       style="font-style:normal;font-variant:normal;font-weight:bold;font-stretch:normal;font-size:6.66666651px;line-height:7.5px;font-family:Arial;-inkscape-font-specification:'Arial Bold';text-align:start;letter-spacing:1.10000002px;word-spacing:0px;text-anchor:start;fill:#000000;fill-opacity:1;stroke:none"
       xml:space="preserve"><tspan
         id="tspan10343-7-1"
         y="185.52151"
         x="36.520634"
         sodipodi:role="line">Missoula</tspan></text>
    <text
       id="text10323-5-3-90"
       y="76.927635"
       x="8.5311298"
       style="font-style:normal;font-variant:normal;font-weight:bold;font-stretch:normal;font-size:6.66666651px;line-height:7.5px;font-family:Arial;-inkscape-font-specification:'Arial Bold';text-align:start;letter-spacing:1.10000002px;word-spacing:0px;text-anchor:start;fill:#000000;fill-opacity:1;stroke:none"
       xml:space="preserve"><tspan
         id="tspan10343-7-4"
         y="76.927635"
         x="8.5311298"
         sodipodi:role="line">Kallspell</tspan></text>
    <text
       id="text10323-5-3-5"
       y="36.423592"
       x="54.283203"
       style="font-style:normal;font-variant:normal;font-weight:bold;font-stretch:normal;font-size:6.66666651px;line-height:7.5px;font-family:Arial;-inkscape-font-specification:'Arial Bold';text-align:start;letter-spacing:1.10000002px;word-spacing:0px;text-anchor:start;fill:#000000;fill-opacity:1;stroke:none"
       xml:space="preserve"><tspan
         id="tspan10343-7-8"
         y="36.423592"
         x="54.283203"
         sodipodi:role="line">Glacier</tspan></text>
    <text
       id="text10323-5-3-5-1"
       y="55.96418"
       x="73.334488"
       style="font-style:normal;font-variant:normal;font-weight:bold;font-stretch:normal;font-size:6.66666651px;line-height:7.5px;font-family:Arial;-inkscape-font-specification:'Arial Bold';text-align:start;letter-spacing:1.10000002px;word-spacing:0px;text-anchor:start;fill:#000000;fill-opacity:1;stroke:none"
       xml:space="preserve"><tspan
         id="tspan10343-7-8-7"
         y="55.96418"
         x="73.334488"
         sodipodi:role="line">N. P.</tspan></text>
    <text
       id="text10323-5-3-5-13"
       y="38.470737"
       x="100.51661"
       style="font-style:normal;font-variant:normal;font-weight:bold;font-stretch:normal;font-size:6.66666651px;line-height:7.5px;font-family:Arial;-inkscape-font-specification:'Arial Bold';text-align:start;letter-spacing:1.10000002px;word-spacing:0px;text-anchor:start;fill:#000000;fill-opacity:1;stroke:none"
       xml:space="preserve"><tspan
         id="tspan10343-7-8-0"
         y="38.470737"
         x="100.51661"
         sodipodi:role="line">Blackfeet</tspan></text>
    <text
       id="text10323-5-3-5-8"
       y="244.48964"
       x="157.57213"
       style="font-style:normal;font-variant:normal;font-weight:bold;font-stretch:normal;font-size:6.66666651px;line-height:7.5px;font-family:Arial;-inkscape-font-specification:'Arial Bold';text-align:start;letter-spacing:1.10000002px;word-spacing:0px;text-anchor:start;fill:#000000;fill-opacity:1;stroke:none"
       xml:space="preserve"><tspan
         id="tspan10343-7-8-5"
         y="244.48964"
         x="157.57213"
         sodipodi:role="line">Mont.</tspan></text>
    <text
       id="text10323-5-3-5-6"
       y="20.573603"
       x="167.2608"
       style="font-style:normal;font-variant:normal;font-weight:bold;font-stretch:normal;font-size:6.66666651px;line-height:7.5px;font-family:Arial;-inkscape-font-specification:'Arial Bold';text-align:start;letter-spacing:0.75px;word-spacing:0px;text-anchor:start;fill:#000000;fill-opacity:1;stroke:none"
       xml:space="preserve"><tspan
         id="tspan10343-7-8-4"
         y="20.573603"
         x="167.2608"
         sodipodi:role="line">CANADA</tspan></text>
    <text
       id="text10323-5-3-5-3"
       y="29.320324"
       x="176.14209"
       style="font-style:normal;font-variant:normal;font-weight:bold;font-stretch:normal;font-size:6.66666651px;line-height:7.5px;font-family:Arial;-inkscape-font-specification:'Arial Bold';text-align:start;letter-spacing:1.10000002px;word-spacing:0px;text-anchor:start;fill:#000000;fill-opacity:1;stroke:none"
       xml:space="preserve"><tspan
         style="letter-spacing:0.75px"
         id="tspan10343-7-8-47"
         y="29.320324"
         x="176.14209"
         sodipodi:role="line">U. S.</tspan></text>
    <text
       id="text40108"
       y="98.007256"
       x="78.285851"
       style="font-style:normal;font-variant:normal;font-weight:normal;font-stretch:normal;font-size:5.33333349px;line-height:6.66666651px;font-family:'.Hiragino Kaku Gothic Interface';-inkscape-font-specification:'.Hiragino Kaku Gothic Interface';text-align:start;letter-spacing:0.95000005px;word-spacing:0px;text-anchor:start;fill:#000000;fill-opacity:1;stroke:none"
       xml:space="preserve"><tspan
         y="98.007256"
         x="78.285851"
         id="tspan40106"
         sodipodi:role="line">Hungry </tspan><tspan
         id="tspan40110"
         y="104.67392"
         x="78.285851"
         sodipodi:role="line">  Horse</tspan><tspan
         id="tspan40112"
         y="111.34059"
         x="78.285851"
         sodipodi:role="line">     Res.</tspan></text>
    <text
       id="text5924"
       y="115.988"
       x="12.362612"
       style="font-style:normal;font-variant:normal;font-weight:normal;font-stretch:normal;font-size:6.66666651px;line-height:6.66666651px;font-family:Arial;-inkscape-font-specification:Arial;text-align:start;letter-spacing:0.25px;word-spacing:1.39999998px;text-anchor:start;fill:#000000;fill-opacity:1;stroke:none"
       xml:space="preserve"><tspan
         y="115.988"
         x="12.362612"
         id="tspan5922"
         sodipodi:role="line">Flathead Lk.</tspan></text>
    <text
       transform="rotate(59.372573)"
       id="text5924-7"
       y="-13.503979"
       x="41.84304"
       style="font-style:normal;font-variant:normal;font-weight:normal;font-stretch:normal;font-size:6.66666651px;line-height:6.66666651px;font-family:Arial;-inkscape-font-specification:Arial;text-align:start;letter-spacing:0.25px;word-spacing:1.39999998px;text-anchor:start;fill:#000000;fill-opacity:1;stroke:none"
       xml:space="preserve"><tspan
         y="-13.503979"
         x="41.84304"
         id="tspan5922-9"
         sodipodi:role="line">Flathead R.</tspan></text>
    <text
       id="text5924-0"
       y="88.528526"
       x="125.40746"
       style="font-style:normal;font-variant:normal;font-weight:normal;font-stretch:normal;font-size:5.33333349px;line-height:6.66666651px;font-family:Arial;-inkscape-font-specification:Arial;text-align:start;letter-spacing:0.89999998px;word-spacing:0px;text-anchor:start;fill:#000000;fill-opacity:1;stroke:none"
       xml:space="preserve"><tspan
         y="88.528526"
         x="125.40746"
         id="tspan5922-2"
         sodipodi:role="line">Swift Dam</tspan></text>
    <text
       id="text5924-0-4"
       y="83.878044"
       x="104.58454"
       style="font-style:normal;font-variant:normal;font-weight:bold;font-stretch:normal;font-size:5.33333349px;line-height:6.66666651px;font-family:Arial;-inkscape-font-specification:'Arial Bold';text-align:center;letter-spacing:0.89999998px;word-spacing:0px;text-anchor:middle;fill:#000000;fill-opacity:1;stroke:none"
       xml:space="preserve"><tspan
         y="83.878044"
         x="105.03454"
         id="tspan5922-2-8"
         sodipodi:role="line">Blrch</tspan><tspan
         id="tspan5988"
         y="90.544708"
         x="105.03454"
         sodipodi:role="line"> Ck. Res.</tspan></text>
    <text
       id="text5924-0-3"
       y="41.011471"
       x="147.0923"
       style="font-style:normal;font-variant:normal;font-weight:bold;font-stretch:normal;font-size:5.33333349px;line-height:6.66666651px;font-family:Arial;-inkscape-font-specification:'Arial Bold';text-align:start;letter-spacing:0.89999998px;word-spacing:0px;text-anchor:start;fill:#000000;fill-opacity:1;stroke:none"
       xml:space="preserve"><tspan
         y="41.011471"
         x="147.0923"
         id="tspan5922-2-9"
         sodipodi:role="line">Cut</tspan><tspan
         id="tspan5998"
         y="47.678139"
         x="147.0923"
         sodipodi:role="line">Bank</tspan></text>
    <text
       transform="rotate(-43.285125)"
       id="text5924-0-0"
       y="130.88054"
       x="37.182625"
       style="font-style:normal;font-variant:normal;font-weight:normal;font-stretch:normal;font-size:5.33333349px;line-height:5.86666679px;font-family:Arial;-inkscape-font-specification:Arial;text-align:start;letter-spacing:0.89999998px;word-spacing:0px;text-anchor:start;fill:#000000;fill-opacity:1;stroke:none"
       xml:space="preserve"><tspan
         y="130.88054"
         x="37.182625"
         id="tspan5922-2-5"
         sodipodi:role="line">N.</tspan><tspan
         id="tspan6008"
         y="136.74721"
         x="37.182625"
         sodipodi:role="line">Fk.</tspan><tspan
         id="tspan6010"
         y="142.61388"
         x="37.182625"
         sodipodi:role="line">Blrch</tspan></text>
    <text
       transform="rotate(-29.022715)"
       id="text5924-0-2"
       y="97.612747"
       x="63.47319"
       style="font-style:normal;font-variant:normal;font-weight:bold;font-stretch:normal;font-size:5.33333349px;line-height:6.66666651px;font-family:Arial;-inkscape-font-specification:'Arial Bold';text-align:start;letter-spacing:0.89999998px;word-spacing:0px;text-anchor:start;fill:#000000;fill-opacity:1;stroke:none"
       xml:space="preserve"><tspan
         y="97.612747"
         x="63.47319"
         id="tspan5922-2-2"
         sodipodi:role="line">Cut</tspan></text>
    <text
       transform="rotate(-10.2916)"
       id="text5924-0-7"
       y="66.820496"
       x="104.21676"
       style="font-style:normal;font-variant:normal;font-weight:bold;font-stretch:normal;font-size:5.33333349px;line-height:6.66666651px;font-family:Arial;-inkscape-font-specification:'Arial Bold';text-align:start;letter-spacing:0.89999998px;word-spacing:0px;text-anchor:start;fill:#000000;fill-opacity:1;stroke:none"
       xml:space="preserve"><tspan
         y="66.820496"
         x="104.21676"
         id="tspan5922-2-3"
         sodipodi:role="line">Bank</tspan></text>
    <text
       transform="rotate(3.0103206)"
       id="text5924-0-79"
       y="36.787922"
       x="135.86188"
       style="font-style:normal;font-variant:normal;font-weight:bold;font-stretch:normal;font-size:5.33333349px;line-height:6.66666651px;font-family:Arial;-inkscape-font-specification:'Arial Bold';text-align:start;letter-spacing:0.89999998px;word-spacing:0px;text-anchor:start;fill:#000000;fill-opacity:1;stroke:none"
       xml:space="preserve"><tspan
         y="36.787922"
         x="135.86188"
         id="tspan5922-2-0"
         sodipodi:role="line">Cr.</tspan></text>
    <text
       transform="rotate(-46.569622)"
       id="text5924-0-23"
       y="151.49586"
       x="50.111462"
       style="font-style:normal;font-variant:normal;font-weight:normal;font-stretch:normal;font-size:5.33333349px;line-height:6.66666651px;font-family:Arial;-inkscape-font-specification:Arial;text-align:start;letter-spacing:0.89999998px;word-spacing:0px;text-anchor:start;fill:#000000;fill-opacity:1;stroke:none"
       xml:space="preserve"><tspan
         y="151.49586"
         x="50.111462"
         id="tspan5922-2-99"
         sodipodi:role="line">Cr.</tspan></text>
    <text
       transform="rotate(81.474162)"
       id="text5924-0-70"
       y="-50.912601"
       x="113.34634"
       style="font-style:normal;font-variant:normal;font-weight:normal;font-stretch:normal;font-size:5.33333349px;line-height:6.66666651px;font-family:Arial;-inkscape-font-specification:Arial;text-align:start;letter-spacing:0.89999998px;word-spacing:-1.11999989px;text-anchor:start;fill:#000000;fill-opacity:1;stroke:none"
       xml:space="preserve"><tspan
         y="-50.912601"
         x="113.34634"
         id="tspan5922-2-39"
         sodipodi:role="line">Mission Rg.</tspan></text>
    <text
       id="text10323-5-3-8"
       y="252.6422"
       x="43.252655"
       style="font-style:normal;font-variant:normal;font-weight:bold;font-stretch:normal;font-size:5.33333349px;line-height:7.5px;font-family:Arial;-inkscape-font-specification:'Arial Bold';text-align:start;letter-spacing:0.76999998px;word-spacing:0px;text-anchor:start;fill:#000000;fill-opacity:1;stroke:none"
       xml:space="preserve"><tspan
         id="tspan10343-7-65"
         y="252.6422"
         x="43.252655"
         sodipodi:role="line">MILES</tspan></text>
    <text
       id="text10323-5-3-8-7"
       y="225.48509"
       x="106.3344"
       style="font-style:normal;font-variant:normal;font-weight:bold;font-stretch:normal;font-size:5.33333349px;line-height:7.5px;font-family:Arial;-inkscape-font-specification:'Arial Bold';text-align:start;letter-spacing:0.76999998px;word-spacing:0px;text-anchor:start;fill:#000000;fill-opacity:1;stroke:none"
       xml:space="preserve"><tspan
         id="tspan10343-7-65-6"
         y="225.48509"
         x="106.3344"
         sodipodi:role="line">N</tspan></text>
    <text
       id="text6895"
       y="201.27702"
       x="118.81226"
       style="font-style:normal;font-variant:normal;font-weight:normal;font-stretch:normal;font-size:6.66666651px;line-height:6.66666651px;font-family:Arial;-inkscape-font-specification:Arial;text-align:start;letter-spacing:0.74999994px;word-spacing:0px;text-anchor:start;fill:#000000;fill-opacity:1;stroke:none"
       xml:space="preserve"><tspan
         y="201.27702"
         x="118.81226"
         id="tspan6893"
         sodipodi:role="line">90</tspan></text>
    <text
       id="text6895-2"
       y="158.16386"
       x="20.343538"
       style="font-style:normal;font-variant:normal;font-weight:normal;font-stretch:normal;font-size:6.66666651px;line-height:6.66666651px;font-family:Arial;-inkscape-font-specification:Arial;text-align:start;letter-spacing:0.74999994px;word-spacing:0px;text-anchor:start;fill:#000000;fill-opacity:1;stroke:none"
       xml:space="preserve"><tspan
         y="158.16386"
         x="20.343538"
         id="tspan6893-7"
         sodipodi:role="line">90</tspan></text>
    <text
       id="text6895-0"
       y="39.723278"
       x="17.494026"
       style="font-style:normal;font-variant:normal;font-weight:normal;font-stretch:normal;font-size:6.66666651px;line-height:6.66666651px;font-family:Arial;-inkscape-font-specification:Arial;text-align:start;letter-spacing:0.74999994px;word-spacing:0px;text-anchor:start;fill:#000000;fill-opacity:1;stroke:none"
       xml:space="preserve"><tspan
         y="39.723278"
         x="17.494026"
         id="tspan6893-3"
         sodipodi:role="line">93</tspan></text>
    <text
       id="text6895-9"
       y="134.25275"
       x="56.272167"
       style="font-style:normal;font-variant:normal;font-weight:normal;font-stretch:normal;font-size:6.66666651px;line-height:6.66666651px;font-family:Arial;-inkscape-font-specification:Arial;text-align:start;letter-spacing:0.74999994px;word-spacing:0px;text-anchor:start;fill:#000000;fill-opacity:1;stroke:none"
       xml:space="preserve"><tspan
         y="134.25275"
         x="56.272167"
         id="tspan6893-9"
         sodipodi:role="line">93</tspan></text>
    <text
       id="text6895-91"
       y="94.483459"
       x="20.343538"
       style="font-style:normal;font-variant:normal;font-weight:normal;font-stretch:normal;font-size:6.66666651px;line-height:6.66666651px;font-family:Arial;-inkscape-font-specification:Arial;text-align:start;letter-spacing:0.74999994px;word-spacing:0px;text-anchor:start;fill:#000000;fill-opacity:1;stroke:none"
       xml:space="preserve"><tspan
         y="94.483459"
         x="20.343538"
         id="tspan6893-72"
         sodipodi:role="line">2</tspan></text>
    <text
       id="text6895-3"
       y="82.46595"
       x="163.19081"
       style="font-style:normal;font-variant:normal;font-weight:normal;font-stretch:normal;font-size:6.66666651px;line-height:6.66666651px;font-family:Arial;-inkscape-font-specification:Arial;text-align:start;letter-spacing:0.74999994px;word-spacing:0px;text-anchor:start;fill:#000000;fill-opacity:1;stroke:none"
       xml:space="preserve"><tspan
         y="82.46595"
         x="163.19081"
         id="tspan6893-6"
         sodipodi:role="line">15</tspan></text>
    <text
       id="text6895-5"
       y="62.147697"
       x="186.85416"
       style="font-style:normal;font-variant:normal;font-weight:normal;font-stretch:normal;font-size:6.66666651px;line-height:6.66666651px;font-family:Arial;-inkscape-font-specification:Arial;text-align:start;letter-spacing:0.74999994px;word-spacing:0px;text-anchor:start;fill:#000000;fill-opacity:1;stroke:none"
       xml:space="preserve"><tspan
         y="62.147697"
         x="186.85416"
         id="tspan6893-5"
         sodipodi:role="line">2</tspan></text>
    <text
       id="text6895-8"
       y="151.47371"
       x="84.023941"
       style="font-style:normal;font-variant:normal;font-weight:normal;font-stretch:normal;font-size:6.66666651px;line-height:6.66666651px;font-family:Arial;-inkscape-font-specification:Arial;text-align:start;letter-spacing:0.74999994px;word-spacing:0px;text-anchor:start;fill:#000000;fill-opacity:1;stroke:none"
       xml:space="preserve"><tspan
         y="151.47371"
         x="84.023941"
         id="tspan6893-1"
         sodipodi:role="line">83</tspan></text>
    <text
       id="text10323-5-3-5-13-4"
       y="62.923603"
       x="121.30368"
       style="font-style:normal;font-variant:normal;font-weight:bold;font-stretch:normal;font-size:6.66666651px;line-height:7.5px;font-family:Arial;-inkscape-font-specification:'Arial Bold';text-align:start;letter-spacing:0.82999998px;word-spacing:0px;text-anchor:start;fill:#000000;fill-opacity:1;stroke:none"
       xml:space="preserve"><tspan
         id="tspan10343-7-8-0-7"
         y="62.923603"
         x="121.30368"
         sodipodi:role="line">I. R.</tspan></text>
    <text
       id="text6895-8-1"
       y="149.987"
       x="146.58931"
       style="font-style:normal;font-variant:normal;font-weight:normal;font-stretch:normal;font-size:6.66666651px;line-height:6.66666651px;font-family:Arial;-inkscape-font-specification:Arial;text-align:start;letter-spacing:0.74999994px;word-spacing:0px;text-anchor:start;fill:#000000;fill-opacity:1;stroke:none"
       xml:space="preserve"><tspan
         y="149.987"
         x="146.58931"
         id="tspan6893-1-3"
         sodipodi:role="line">200</tspan></text>
    <text
       id="text6895-8-8"
       y="176.00429"
       x="154.89008"
       style="font-style:normal;font-variant:normal;font-weight:normal;font-stretch:normal;font-size:6.66666651px;line-height:6.66666651px;font-family:Arial;-inkscape-font-specification:Arial;text-align:start;letter-spacing:0.74999994px;word-spacing:0px;text-anchor:start;fill:#000000;fill-opacity:1;stroke:none"
       xml:space="preserve"><tspan
         y="176.00429"
         x="154.89008"
         id="tspan6893-1-4"
         sodipodi:role="line">15</tspan></text>
    <text
       id="text6895-8-80"
       y="240.42804"
       x="29.511534"
       style="font-style:normal;font-variant:normal;font-weight:normal;font-stretch:normal;font-size:6.66666651px;line-height:6.66666651px;font-family:Arial;-inkscape-font-specification:Arial;text-align:start;letter-spacing:0.74999994px;word-spacing:0px;text-anchor:start;fill:#000000;fill-opacity:1;stroke:none"
       xml:space="preserve"><tspan
         y="240.42804"
         x="29.511534"
         id="tspan6893-1-46"
         sodipodi:role="line">0</tspan></text>
    <text
       id="text6895-8-0"
       y="240.18025"
       x="48.34309"
       style="font-style:normal;font-variant:normal;font-weight:normal;font-stretch:normal;font-size:6.66666651px;line-height:6.66666651px;font-family:Arial;-inkscape-font-specification:Arial;text-align:start;letter-spacing:0.74999994px;word-spacing:0px;text-anchor:start;fill:#000000;fill-opacity:1;stroke:none"
       xml:space="preserve"><tspan
         y="240.18025"
         x="48.34309"
         id="tspan6893-1-32"
         sodipodi:role="line">20</tspan></text>
    <text
       id="text6895-8-6"
       y="240.05637"
       x="69.900269"
       style="font-style:normal;font-variant:normal;font-weight:normal;font-stretch:normal;font-size:6.66666651px;line-height:6.66666651px;font-family:Arial;-inkscape-font-specification:Arial;text-align:start;letter-spacing:0.74999994px;word-spacing:0px;text-anchor:start;fill:#000000;fill-opacity:1;stroke:none"
       xml:space="preserve"><tspan
         y="240.05637"
         x="69.900269"
         id="tspan6893-1-9"
         sodipodi:role="line">40</tspan></text>
  </g>
</svg>
