<?xml version="1.0" encoding="UTF-8" standalone="no"?>
<!-- Created with Inkscape (http://www.inkscape.org/) -->

<svg
   xmlns:dc="http://purl.org/dc/elements/1.1/"
   xmlns:cc="http://creativecommons.org/ns#"
   xmlns:rdf="http://www.w3.org/1999/02/22-rdf-syntax-ns#"
   xmlns:svg="http://www.w3.org/2000/svg"
   xmlns="http://www.w3.org/2000/svg"
   xmlns:sodipodi="http://sodipodi.sourceforge.net/DTD/sodipodi-0.dtd"
   xmlns:inkscape="http://www.inkscape.org/namespaces/inkscape"
   version="1.1"
   id="svg4994"
   width="459.51999"
   height="453.76001"
   viewBox="0 0 459.51999 453.76001"
   sodipodi:docname="ec01jn91.044.svg"
   inkscape:version="0.92.2 5c3e80d, 2017-08-06">
  <metadata
     id="metadata5000">
    <rdf:RDF>
      <cc:Work
         rdf:about="">
        <dc:format>image/svg+xml</dc:format>
        <dc:type
           rdf:resource="http://purl.org/dc/dcmitype/StillImage" />
        <dc:title></dc:title>
      </cc:Work>
    </rdf:RDF>
  </metadata>
  <defs
     id="defs4998" />
  <sodipodi:namedview
     pagecolor="#ffffff"
     bordercolor="#666666"
     borderopacity="1"
     objecttolerance="10"
     gridtolerance="10"
     guidetolerance="10"
     inkscape:pageopacity="0"
     inkscape:pageshadow="2"
     inkscape:window-width="1280"
     inkscape:window-height="756"
     id="namedview4996"
     showgrid="false"
     inkscape:zoom="0.86195"
     inkscape:cx="223.62086"
     inkscape:cy="183.96269"
     inkscape:window-x="0"
     inkscape:window-y="23"
     inkscape:window-maximized="0"
     inkscape:current-layer="svg4994" />
  <path
     style="fill:#c4c4c4;fill-opacity:1;stroke:none;stroke-width:1;stroke-linecap:butt;stroke-linejoin:miter;stroke-miterlimit:4;stroke-dasharray:none;stroke-opacity:1"
     d="m 125.22094,117.70682 25.96215,29.70711 9.28754,-9.44913 -26.57731,-30.16164 z m 65.35446,22.33553 59.64622,0.0622 v -14.34054 l -59.75771,3e-5 z m 133.46406,98.34466 -39.32702,-0.0116 v 14.27356 l 39.27285,0.0116 z m 2.9e-4,-24.4186 -34.66877,7.01868 v 13.17156 l 34.66848,-7.09615 z m -137.08336,66.00246 -0.62562,-86.84838 h 6.7158 l -0.0992,-13.77365 H 173.01194 V 193.1802 H 96.470239 l 0.0015,-90.78008 177.527951,1.81336 1.63049,89.87338 h 93.56937 l 0.18087,86.42802 z"
     id="path14359-1-7-5-3-0-73-1-9-8-4"
     inkscape:connector-curvature="0"
     sodipodi:nodetypes="ccccccccccccccccccccccccccccccccc"
     inkscape:transform-center-x="0.03366111"
     inkscape:transform-center-y="-0.1641457" />
  <path
     style="fill:none;stroke:#000000;stroke-width:2;stroke-linecap:round;stroke-linejoin:round;stroke-miterlimit:4;stroke-dasharray:none;stroke-opacity:1"
     d="m 33.134452,377.20651 c 1.938851,1.0224 2.651021,2.05482 2.677022,3.5222 0.01579,0.89088 0.614916,1.75815 -0.135353,2.16194 -0.816105,0.43922 -2.51471,0.12484 -2.330838,2.05184 0.161947,1.69722 2.226983,3.71982 3.009704,4.87884 1.200685,1.77792 2.936623,2.6902 3.033761,3.54619 0.196219,1.72911 -0.738155,2.82626 0.01322,4.06485 0.446815,0.73656 1.237873,1.50092 1.913055,2.18584 0.821681,0.83353 1.090074,1.76479 1.714343,2.45279 0.758517,0.83595 1.945927,1.86796 2.415372,2.60292 1.102685,1.72633 1.192028,3.15953 1.797459,4.89042 0.494906,1.41491 0.763656,2.55389 1.560612,3.4317 0.793344,0.87384 2.244514,1.04282 2.426991,2.01628 0.294027,1.56854 0.906309,2.41237 1.630534,2.78782 1.296672,0.67222 2.916786,-0.0951 4.16823,-0.0459 2.37755,0.0935 2.566511,1.79284 5.117286,2.91643 0.734273,0.32343 1.624817,1.43378 2.380493,1.49422 1.022196,0.0818 3.230777,-0.33077 4.874751,-0.23087 1.084986,0.0659 1.196583,2.90864 2.468667,3.47044 1.038979,0.45885 3.07273,1.40638 3.689349,1.68014 1.956789,0.86886 1.613912,4.44284 2.090899,4.80957 1.256551,0.96609 2.485832,1.95196 2.759282,2.23018 1.391038,1.41535 2.724576,4.48542 4.581528,4.08599 l 18.794291,-4.04264 c 0.91844,-0.19756 2.98613,-0.49886 2.9229,-2.09797 -0.0556,-1.40473 -2.67429,-2.37762 -2.6981,-4.28655 -0.0155,-1.23879 0.33893,-1.65052 0.82307,-2.43287 0.51263,-0.82841 0.99695,-1.57887 1.02333,-2.41174 0.0265,-0.8379 -0.9416,-1.80519 -0.84441,-2.9277 0.1158,-1.33752 2.82374,-1.16796 2.85275,-2.95911 0.0159,-0.97968 -0.74298,-0.97167 -1.66185,-1.65083 -0.61815,-0.4569 -1.03913,-1.1659 -1.20505,-1.73879 -0.20683,-0.71417 -0.61346,-1.23977 -1.55811,-2.05232 -0.50421,-0.43371 -1.05593,-1.60065 -1.3169,-1.83579 L 55.970466,368.13039 55.768658,335.17684 c -0.0031,-0.50189 -21.695234,-1.62341 -31.479332,-2.13465 -1.176025,-0.0614 -1.972263,-0.32973 -2.400301,0.42658 -0.41929,0.74086 1.143972,1.10925 0.603327,2.39672 -0.522323,1.24384 -0.456107,2.24654 -0.778424,5.03828 -0.187105,1.62061 -2.634361,1.87066 -1.247641,4.04329 0.71608,1.12191 -0.62797,2.00779 -1.200495,3.52595 -0.190137,0.50418 -0.265602,1.5976 -0.01106,2.675 0.194541,0.82343 0.572399,0.89622 0.71383,2.05112 0.144124,1.17688 0.606354,1.61546 0.67524,2.7392 0.04405,0.71857 0.01417,1.58865 0.279974,2.11678 0.308806,0.61358 0.877571,0.88103 1.111871,1.27382 1.271155,2.13099 0.229326,3.57026 0.786409,4.95472 0.661554,1.64409 0.746807,1.37218 1.137632,2.44486 0.312805,0.85861 0.911224,1.3292 1.266211,2.10888 0.425365,0.9343 0.868788,1.72301 1.246267,2.65773 0.359773,0.89084 0.708422,1.96567 1.029906,2.51857 0.394256,0.67806 1.117429,1.35386 1.772977,2.00551 1.018313,1.01227 1.51165,1.45725 2.618316,1.50226 1.942808,0.079 2.036076,-2.61144 3.738723,-2.70275 1.246151,-0.0668 3.432808,-0.28099 4.404644,-0.24044 1.211851,0.0505 2.81854,1.03791 2.851839,2.16332 0.04752,1.60586 -0.933897,2.18858 -3.728259,2.31211 -3.491397,0.15435 -2.484829,1.29162 -3.348767,1.67501"
     id="path14359-1-7-5-3-0-73-1-9"
     inkscape:connector-curvature="0"
     sodipodi:nodetypes="cssssssssssssssssssssssssssssssssscsssssssssssssssssssssssc"
     inkscape:transform-center-x="0.13621389"
     inkscape:transform-center-y="-0.034145365" />
  <path
     style="fill:#000000;fill-opacity:1;stroke:#000000;stroke-width:2;stroke-linecap:round;stroke-linejoin:round;stroke-miterlimit:4;stroke-dasharray:none;stroke-opacity:1"
     d="m 91.450119,425.83407 0.03746,5.26148 -5.207537,0.0653 0.09434,-5.26075 z"
     id="path14359-1-7-5-3-0-73-1-9-3"
     inkscape:connector-curvature="0"
     sodipodi:nodetypes="ccccc"
     inkscape:transform-center-x="0.038134686"
     inkscape:transform-center-y="-0.15824177" />
  <path
     style="fill:none;stroke:#000000;stroke-width:3;stroke-linecap:butt;stroke-linejoin:miter;stroke-miterlimit:4;stroke-dasharray:none;stroke-opacity:1"
     d="M 9.8625634,324.11085 H 115.62832 l 1.33744,123.71025"
     id="path14359-1-7-5-3-0-73-1-9-7"
     inkscape:connector-curvature="0"
     sodipodi:nodetypes="ccc"
     inkscape:transform-center-x="-0.03366111"
     inkscape:transform-center-y="-0.1641457" />
  <path
     style="fill:#000000;fill-opacity:1;stroke:#000000;stroke-width:2;stroke-linecap:round;stroke-linejoin:round;stroke-miterlimit:4;stroke-dasharray:none;stroke-opacity:1"
     d="m 216.39408,310.68474 -0.003,85.37988 -1.7e-4,-40.51503 c -1e-5,-2.34107 1.02723,-3.599 2.43271,-3.53555 2.21769,0.10012 4.88624,3.77134 6.13881,6.35482 z"
     id="path14359-1-7-5-3-0-73-1-9-8-3"
     inkscape:connector-curvature="0"
     sodipodi:nodetypes="ccsscc"
     inkscape:transform-center-x="0.043981831"
     inkscape:transform-center-y="-0.21348681" />
  <path
     style="fill:#000000;fill-opacity:1;stroke:#000000;stroke-width:2;stroke-linecap:butt;stroke-linejoin:miter;stroke-miterlimit:4;stroke-dasharray:none;stroke-opacity:1"
     d="m 216.84487,413.91315 v 0 5.88646 h 90.19605 l -0.001,-5.74077 -10e-4,5.89904 H 128.68063 l 0.001,-5.89904 10e-4,5.74077 h 88.16224 z"
     id="path14359-1-7-5-3-0-73-1-9-10"
     inkscape:connector-curvature="0"
     sodipodi:nodetypes="ccccccccccc"
     inkscape:transform-center-x="0.03366111"
     inkscape:transform-center-y="-0.1641457" />
  <path
     style="fill:none;stroke:#000000;stroke-width:3;stroke-linecap:butt;stroke-linejoin:miter;stroke-miterlimit:4;stroke-dasharray:none;stroke-opacity:1"
     d="M 450.22826,6.3279616 455.43592,447.66083 11.336135,448.44228 6.5626108,6.3279616 Z"
     id="path14359-1-7-5-3-0-73-1-9-36"
     inkscape:connector-curvature="0"
     sodipodi:nodetypes="ccccc"
     inkscape:transform-center-x="0.03366111"
     inkscape:transform-center-y="-0.1641457" />
  <path
     style="fill:none;stroke:#000000;stroke-width:3;stroke-linecap:butt;stroke-linejoin:miter;stroke-miterlimit:4;stroke-dasharray:none;stroke-opacity:1"
     d="m 369.19955,194.08685 0.18087,86.42802 -182.42402,-0.54401 -0.72484,-86.79067 H 96.470248 l 0.0015,-90.78007 177.527942,1.81336 1.63049,89.87337 z"
     id="path14359-1-7-5-3-0-73-1-9-8"
     inkscape:connector-curvature="0"
     sodipodi:nodetypes="ccccccccc"
     inkscape:transform-center-x="0.03366111"
     inkscape:transform-center-y="-0.1641457" />
  <path
     style="fill:none;stroke:#000000;stroke-width:1;stroke-linecap:butt;stroke-linejoin:miter;stroke-miterlimit:4;stroke-dasharray:none;stroke-opacity:1"
     d="m 96.196349,6.3993586 -0.002,308.5252514"
     id="path14359-1-7-5-3-0-73-1-9-1"
     inkscape:connector-curvature="0"
     sodipodi:nodetypes="cc"
     inkscape:transform-center-x="0.03366111"
     inkscape:transform-center-y="-0.1641457" />
  <path
     style="fill:none;stroke:#000000;stroke-width:1;stroke-linecap:butt;stroke-linejoin:miter;stroke-miterlimit:4;stroke-dasharray:none;stroke-opacity:1"
     d="m 272.70489,7.1212752 1.2948,97.0922048 1.63049,89.87337 0.50181,116.68674"
     id="path14359-1-7-5-3-0-73-1-9-4"
     inkscape:connector-curvature="0"
     sodipodi:nodetypes="cccc"
     inkscape:transform-center-x="0.03366111"
     inkscape:transform-center-y="-0.1641457" />
  <path
     style="fill:none;stroke:#000000;stroke-width:1;stroke-linecap:butt;stroke-linejoin:miter;stroke-miterlimit:4;stroke-dasharray:none;stroke-opacity:1"
     d="m 7.6404089,102.21224 88.8313391,0.18788 177.527942,1.81336 177.19005,-1.52773"
     id="path14359-1-7-5-3-0-73-1-9-71"
     inkscape:connector-curvature="0"
     sodipodi:nodetypes="cccc"
     inkscape:transform-center-x="0.16414611"
     inkscape:transform-center-y="0.0336643" />
  <path
     style="fill:none;stroke:#000000;stroke-width:1;stroke-linecap:butt;stroke-linejoin:miter;stroke-miterlimit:4;stroke-dasharray:none;stroke-opacity:1"
     d="M 9.3692698,279.34188 453.54728,279.97256"
     id="path14359-1-7-5-3-0-73-1-9-38"
     inkscape:connector-curvature="0"
     sodipodi:nodetypes="cc"
     inkscape:transform-center-x="0.16414611"
     inkscape:transform-center-y="0.0336643" />
  <path
     style="fill:none;stroke:#000000;stroke-width:2;stroke-linecap:round;stroke-linejoin:round;stroke-miterlimit:4;stroke-dasharray:none;stroke-opacity:1"
     d="m 75.617051,6.7687153 c -0.06181,2.9248735 1.966792,3.7626967 3.402768,5.1986727 0.629377,0.629377 1.068892,1.636019 1.606862,2.17399 0.367204,0.367204 1.250034,0.493864 1.606862,0.850692 l 1.512341,1.512341 c 0.517251,0.517251 1.952524,0.156619 2.457554,0.661649 0.929608,0.929608 1.886054,1.69701 2.83564,2.646597 1.136966,1.136965 1.537713,3.333617 2.646597,4.442501 0.59026,0.590261 1.337866,0.959781 1.984948,1.606863 0.36851,0.368511 1.11409,0.736005 1.51234,1.134255 0.798195,0.798195 0.886531,2.587914 1.606863,3.308246 1.113874,1.113874 3.003208,1.301825 4.064414,2.363033 0.6497,0.649702 1.2067,1.584786 1.89043,2.268512 1.68029,1.680289 2.71675,3.084312 4.4425,4.442502 2.7431,2.158859 3.55957,4.788348 5.7658,6.994577 1.40144,1.401442 2.10609,2.95678 3.40277,4.253459 0.3609,0.360902 0.45771,1.119358 0.75617,1.41782 0.30312,0.303122 1.17324,0.228028 1.51234,0.567128 0.57607,0.576072 1.12001,1.403579 1.70138,1.984947 0.94911,0.949106 0.51399,2.764893 1.13426,3.780853 1.00802,1.651084 1.94779,2.867987 2.74112,4.442502 0.34718,0.689043 0.77774,7.394236 0.85069,7.467183 1.45596,1.455954 2.12957,2.98026 3.40277,4.820587 0.53806,0.77773 0.23017,3.219671 0.66165,3.969896 0.77212,1.342505 1.50403,2.339609 2.36303,3.497288 0.6843,0.922239 0.81335,2.420217 1.60686,3.213725 3.06672,3.06672 3.74757,6.928008 5.67128,10.77543 0.83191,1.663818 0.46936,4.722826 1.70138,5.954846 0.85906,0.85905 2.45639,4.78336 2.93016,5.95484 2.38895,5.90709 3.47583,11.55427 7.55291,18.36451 2.99813,5.00799 7.89545,10.66987 13.24179,12.63848 10.44215,3.84497 20.53942,1.95748 27.18348,8.1847 8.3497,7.82585 5.96539,18.29853 5.99349,28.48957 0.0317,11.48345 14.38926,13.04241 18.33714,17.95905 4.81965,6.00233 2.12407,15.37401 10.96447,19.09331 9.30767,3.91588 29.29745,12.75538 38.37565,10.49186 5.74971,-1.43361 9.2691,-4.92112 12.76038,-8.4124 1.00933,-1.00933 2.85479,-1.24792 3.68633,-2.07946 0.0591,-0.0591 1.13483,-0.283 1.22878,-0.18905 1.52243,1.52243 8.10554,2.07947 10.58639,2.07947 1.49391,0 11.6461,0.46263 12.76038,-0.0945 1.17702,-0.5885 2.62623,-1.09596 3.87537,-1.51234 0.66445,-0.22148 1.71777,-0.9616 2.07947,-1.3233 0.85982,-0.85982 3.3588,-1.27714 4.63154,-1.70138 2.91648,-0.97216 6.39038,-0.96436 9.45213,-1.98495 2.07757,-0.69252 8.31454,-4.63826 14.1782,-4.44251 7.55655,0.25227 11.12601,4.6628 13.87891,10.16112 1.63982,3.27518 2.47524,6.26113 6.03578,8.49789 5.39421,3.3887 15.78831,4.66371 19.38575,6.65378 1.80087,0.99622 2.81579,3.23587 5.39756,5.51297 4.43616,3.91266 9.47144,7.86258 14.37631,11.33249 3.76597,2.66421 8.22828,4.60849 11.17791,8.03749 2.14274,2.49097 2.4635,6.21373 4.3797,8.85701 1.15116,1.58794 2.55512,2.0564 3.64695,3.66529 0.76711,1.1304 1.14133,2.64475 1.87966,3.78361 0.75263,1.16094 2.15347,1.56732 2.87997,2.72814 1.34801,2.15387 0.85539,3.85261 3.02515,5.48446 4.52548,3.40357 7.95725,6.34826 9.69392,10.54038 0.64303,1.55219 0.19778,4.75208 0.48518,7.54123 0.16876,1.63777 1.5562,1.73769 1.52221,2.80159 -0.14448,4.52309 0.35196,6.3863 1.89457,8.35317 2.77751,3.54142 5.51506,2.67417 6.63751,3.86601 2.23153,2.36948 3.2117,3.19791 6.9395,3.62401"
     id="path5730"
     inkscape:connector-curvature="0"
     sodipodi:nodetypes="csssssssssssssssssssssssssssssssssssssssssssssssssssssssssssssc" />
  <g
     id="g910"
     sodipodi:insensitive="true">
    <text
       id="text4907"
       y="409.97226"
       x="125.64242"
       style="font-style:normal;font-variant:normal;font-weight:normal;font-stretch:normal;font-size:10.66666698px;line-height:6.66666651px;font-family:Arial;-inkscape-font-specification:Arial;text-align:start;letter-spacing:0px;word-spacing:0px;text-anchor:start;fill:#000000;fill-opacity:1;stroke:none"
       xml:space="preserve"><tspan
         y="409.97226"
         x="125.64242"
         id="tspan4905"
         sodipodi:role="line">0</tspan></text>
    <text
       id="text4911"
       y="410.61014"
       x="303.23315"
       style="font-style:normal;font-variant:normal;font-weight:normal;font-stretch:normal;font-size:10.66666698px;line-height:6.66666651px;font-family:Arial;-inkscape-font-specification:Arial;text-align:start;letter-spacing:0px;word-spacing:0px;text-anchor:start;fill:#000000;fill-opacity:1;stroke:none"
       xml:space="preserve"><tspan
         y="410.61014"
         x="303.23315"
         id="tspan4909"
         sodipodi:role="line">1</tspan></text>
    <text
       id="text4915"
       y="410.22787"
       x="205.87384"
       style="font-style:normal;font-variant:normal;font-weight:normal;font-stretch:normal;font-size:10.66666698px;line-height:6.66666651px;font-family:Arial;-inkscape-font-specification:Arial;text-align:start;letter-spacing:2.25px;word-spacing:0px;text-anchor:start;fill:#000000;fill-opacity:1;stroke:none"
       xml:space="preserve"><tspan
         y="410.22787"
         x="205.87384"
         id="tspan4913"
         sodipodi:role="line">1/2</tspan></text>
    <text
       id="text4919"
       y="410.62299"
       x="314.70255"
       style="font-style:normal;font-variant:normal;font-weight:normal;font-stretch:normal;font-size:10.66666698px;line-height:6.66666651px;font-family:Arial;-inkscape-font-specification:Arial;text-align:start;letter-spacing:0.69999999px;word-spacing:0px;text-anchor:start;fill:#000000;fill-opacity:1;stroke:none"
       xml:space="preserve"><tspan
         y="410.62299"
         x="314.70255"
         id="tspan4917"
         sodipodi:role="line">MILE</tspan></text>
    <text
       id="text4919-7"
       y="304.73065"
       x="210.97691"
       style="font-style:normal;font-variant:normal;font-weight:normal;font-stretch:normal;font-size:12px;line-height:6.66666651px;font-family:Arial;-inkscape-font-specification:Arial;text-align:start;letter-spacing:0.69999999px;word-spacing:0px;text-anchor:start;fill:#000000;fill-opacity:1;stroke:none"
       xml:space="preserve"><tspan
         y="304.73065"
         x="210.97691"
         id="tspan4917-2"
         sodipodi:role="line">N</tspan></text>
    <text
       id="text5768"
       y="61.684452"
       x="136.62221"
       style="font-style:normal;font-variant:normal;font-weight:normal;font-stretch:normal;font-size:13.33333302px;line-height:6.66666651px;font-family:Arial;-inkscape-font-specification:Arial;text-align:start;letter-spacing:1.35000002px;word-spacing:0px;text-anchor:start;fill:#000000;fill-opacity:1;stroke:none"
       xml:space="preserve"><tspan
         y="61.684452"
         x="136.62221"
         id="tspan5766"
         sodipodi:role="line">ANZA</tspan></text>
    <text
       id="text5768-8"
       y="62.112823"
       x="281.32642"
       style="font-style:normal;font-variant:normal;font-weight:normal;font-stretch:normal;font-size:13.33333302px;line-height:6.66666651px;font-family:Arial;-inkscape-font-specification:Arial;text-align:start;letter-spacing:0px;word-spacing:0px;text-anchor:start;fill:#000000;fill-opacity:1;stroke:none"
       xml:space="preserve"><tspan
         y="62.112823"
         x="281.32642"
         id="tspan5766-0"
         sodipodi:role="line">BORREGO</tspan></text>
    <text
       id="text7832-1"
       y="60.924168"
       x="223.47932"
       style="font-style:normal;font-variant:normal;font-weight:normal;font-stretch:normal;line-height:0%;font-family:Arial;-inkscape-font-specification:Arial;text-align:start;letter-spacing:0.66000003px;word-spacing:0px;text-anchor:start;fill:#000000;fill-opacity:1;stroke:none;stroke-width:1px;stroke-linecap:butt;stroke-linejoin:miter;stroke-opacity:1"
       xml:space="preserve"><tspan
         style="font-size:12.5px;line-height:1.20000005"
         y="60.924168"
         x="223.47932"
         id="tspan7854-5"
         sodipodi:role="line">─</tspan></text>
    <text
       id="text5768-0"
       y="138.08096"
       x="192.76688"
       style="font-style:normal;font-variant:normal;font-weight:normal;font-stretch:normal;font-size:13.33333302px;line-height:6.66666651px;font-family:Arial;-inkscape-font-specification:Arial;text-align:start;letter-spacing:0px;word-spacing:0px;text-anchor:start;fill:#040000;fill-opacity:1;stroke:none"
       xml:space="preserve"><tspan
         y="138.08096"
         x="192.76688"
         id="tspan5766-3"
         sodipodi:role="line">DESERT</tspan></text>
    <text
       id="text5768-0-2"
       y="190.54514"
       x="175.18098"
       style="font-style:normal;font-variant:normal;font-weight:normal;font-stretch:normal;font-size:13.33333302px;line-height:6.66666651px;font-family:Arial;-inkscape-font-specification:Arial;text-align:start;letter-spacing:0px;word-spacing:0px;text-anchor:start;fill:#040000;fill-opacity:1;stroke:none"
       xml:space="preserve"><tspan
         y="190.54514"
         x="175.18098"
         id="tspan5766-3-6"
         sodipodi:role="line">22</tspan></text>
    <text
       id="text5768-0-9"
       y="249.72473"
       x="286.6149"
       style="font-style:normal;font-variant:normal;font-weight:normal;font-stretch:normal;font-size:13.33333302px;line-height:6.66666651px;font-family:Arial;-inkscape-font-specification:Arial;text-align:start;letter-spacing:0px;word-spacing:0px;text-anchor:start;fill:#040000;fill-opacity:1;stroke:none"
       xml:space="preserve"><tspan
         y="249.72473"
         x="286.6149"
         id="tspan5766-3-4"
         sodipodi:role="line">PARK</tspan></text>
    <text
       transform="rotate(-11.930797)"
       id="text5768-0-1"
       y="286.3754"
       x="237.71695"
       style="font-style:italic;font-variant:normal;font-weight:normal;font-stretch:normal;font-size:12px;line-height:6.66666651px;font-family:Arial;-inkscape-font-specification:'Arial Italic';text-align:start;letter-spacing:0px;word-spacing:0px;text-anchor:start;fill:#040000;fill-opacity:1;stroke:none"
       xml:space="preserve"><tspan
         y="286.3754"
         x="237.71695"
         id="tspan5766-3-3"
         sodipodi:role="line">Creek</tspan></text>
    <text
       transform="rotate(49.141298)"
       id="text5768-0-7"
       y="-21.118624"
       x="170.81024"
       style="font-style:italic;font-variant:normal;font-weight:normal;font-stretch:normal;font-size:12px;line-height:6.66666651px;font-family:Arial;-inkscape-font-specification:'Arial Italic';text-align:start;letter-spacing:0px;word-spacing:0px;text-anchor:start;fill:#000000;fill-opacity:1;stroke:none"
       xml:space="preserve"><tspan
         y="-21.118624"
         x="170.81024"
         id="tspan5766-3-8"
         sodipodi:role="line">Coyote</tspan></text>
    <text
       id="text5768-0-8"
       y="249.63618"
       x="116.0059"
       style="font-style:normal;font-variant:normal;font-weight:normal;font-stretch:normal;font-size:13.33333302px;line-height:6.66666651px;font-family:Arial;-inkscape-font-specification:Arial;text-align:start;letter-spacing:1.25px;word-spacing:0px;text-anchor:start;fill:#040000;fill-opacity:1;stroke:none"
       xml:space="preserve"><tspan
         y="249.63618"
         x="116.0059"
         id="tspan5766-3-38"
         sodipodi:role="line">STATE</tspan></text>
    <text
       id="text5768-0-2-1"
       y="21.057028"
       x="7.2247257"
       style="font-style:normal;font-variant:normal;font-weight:normal;font-stretch:normal;font-size:13.33333302px;line-height:6.66666651px;font-family:Arial;-inkscape-font-specification:Arial;text-align:start;letter-spacing:0px;word-spacing:0px;text-anchor:start;fill:#040000;fill-opacity:1;stroke:none"
       xml:space="preserve"><tspan
         y="21.057028"
         x="7.2247257"
         id="tspan5766-3-6-5"
         sodipodi:role="line">16</tspan></text>
    <text
       id="text5768-0-2-3"
       y="20.565735"
       x="177.94836"
       style="font-style:normal;font-variant:normal;font-weight:normal;font-stretch:normal;font-size:13.33333302px;line-height:6.66666651px;font-family:Arial;-inkscape-font-specification:Arial;text-align:start;letter-spacing:0px;word-spacing:0px;text-anchor:start;fill:#040000;fill-opacity:1;stroke:none"
       xml:space="preserve"><tspan
         y="20.565735"
         x="177.94836"
         id="tspan5766-3-6-54"
         sodipodi:role="line">15</tspan></text>
    <text
       id="text5768-0-2-36"
       y="191.78065"
       x="12.38328"
       style="font-style:normal;font-variant:normal;font-weight:normal;font-stretch:normal;font-size:13.33333302px;line-height:6.66666651px;font-family:Arial;-inkscape-font-specification:Arial;text-align:start;letter-spacing:0px;word-spacing:0px;text-anchor:start;fill:#040000;fill-opacity:1;stroke:none"
       xml:space="preserve"><tspan
         y="191.78065"
         x="12.38328"
         id="tspan5766-3-6-59"
         sodipodi:role="line">21</tspan></text>
    <text
       id="text5768-0-2-5"
       y="190.79807"
       x="363.16507"
       style="font-style:normal;font-variant:normal;font-weight:normal;font-stretch:normal;font-size:13.33333302px;line-height:6.66666651px;font-family:Arial;-inkscape-font-specification:Arial;text-align:start;letter-spacing:0px;word-spacing:0px;text-anchor:start;fill:#040000;fill-opacity:1;stroke:none"
       xml:space="preserve"><tspan
         y="190.79807"
         x="363.16507"
         id="tspan5766-3-6-4"
         sodipodi:role="line">23</tspan></text>
    <text
       id="text5768-0-2-9"
       y="20.320091"
       x="355.30441"
       style="font-style:normal;font-variant:normal;font-weight:normal;font-stretch:normal;font-size:13.33333302px;line-height:6.66666651px;font-family:Arial;-inkscape-font-specification:Arial;text-align:start;letter-spacing:0px;word-spacing:0px;text-anchor:start;fill:#040000;fill-opacity:1;stroke:none"
       xml:space="preserve"><tspan
         y="20.320091"
         x="355.30441"
         id="tspan5766-3-6-1"
         sodipodi:role="line">14</tspan></text>
    <text
       xml:space="preserve"
       style="font-style:normal;font-variant:normal;font-weight:normal;font-stretch:normal;font-size:13.33333302px;line-height:6.66666651px;font-family:Arial;-inkscape-font-specification:Arial;text-align:start;letter-spacing:1.35000002px;word-spacing:0px;text-anchor:start;fill:#000000;fill-opacity:1;stroke:none"
       x="176.93777"
       y="438.26303"
       id="text868"><tspan
         style="letter-spacing:3px"
         sodipodi:role="line"
         id="tspan866"
         x="176.93777"
         y="438.26303">T9S, R5E</tspan></text>
  </g>
</svg>
