<?xml version="1.0" encoding="UTF-8" standalone="no"?>
<!-- Created with Inkscape (http://www.inkscape.org/) -->

<svg
   xmlns:dc="http://purl.org/dc/elements/1.1/"
   xmlns:cc="http://creativecommons.org/ns#"
   xmlns:rdf="http://www.w3.org/1999/02/22-rdf-syntax-ns#"
   xmlns:svg="http://www.w3.org/2000/svg"
   xmlns="http://www.w3.org/2000/svg"
   xmlns:sodipodi="http://sodipodi.sourceforge.net/DTD/sodipodi-0.dtd"
   xmlns:inkscape="http://www.inkscape.org/namespaces/inkscape"
   version="1.1"
   id="svg7567"
   width="394.34589"
   height="327.27237"
   viewBox="0 0 394.34589 327.27238"
   sodipodi:docname="ec01jn91.094*.svg"
   inkscape:version="0.92.2 5c3e80d, 2017-08-06">
  <metadata
     id="metadata7573">
    <rdf:RDF>
      <cc:Work
         rdf:about="">
        <dc:format>image/svg+xml</dc:format>
        <dc:type
           rdf:resource="http://purl.org/dc/dcmitype/StillImage" />
        <dc:title></dc:title>
      </cc:Work>
    </rdf:RDF>
  </metadata>
  <defs
     id="defs7571" />
  <sodipodi:namedview
     pagecolor="#ffffff"
     bordercolor="#666666"
     borderopacity="1"
     objecttolerance="10"
     gridtolerance="10"
     guidetolerance="10"
     inkscape:pageopacity="0"
     inkscape:pageshadow="2"
     inkscape:window-width="1280"
     inkscape:window-height="756"
     id="namedview7569"
     showgrid="false"
     fit-margin-top="0"
     fit-margin-left="0"
     fit-margin-right="0"
     fit-margin-bottom="0"
     inkscape:zoom="1.2280677"
     inkscape:cx="137.9049"
     inkscape:cy="177.02055"
     inkscape:window-x="45"
     inkscape:window-y="0"
     inkscape:window-maximized="0"
     inkscape:current-layer="svg7567"
     inkscape:snap-bbox="true" />
  <path
     style="fill:none;stroke:#000000;stroke-width:0.5;stroke-linecap:round;stroke-linejoin:round;stroke-miterlimit:4;stroke-dasharray:none;stroke-opacity:1"
     d="m 106.06196,31.840633 c -0.59374,9.9e-4 -1.09471,-0.292 -1.67902,-0.71026 l -2.12692,2.23127 c 0.58959,0.36112 0.81349,1.00649 0.79896,1.69433 -0.0279,1.31916 -0.82212,1.85144 -0.84362,2.9068 -0.0187,0.91988 0.52556,2.05084 1.33653,2.60638 0.48297,0.33082 1.05197,0.26499 1.6297,0.36485 0.71363,0.12339 1.45988,0.31422 2.30504,1.01178 0.84516,-0.69756 1.59141,-0.88839 2.30504,-1.01178 0.57773,-0.0999 1.14673,-0.0341 1.6297,-0.36485 0.81097,-0.55554 1.35528,-1.6865 1.33653,-2.60638 -0.0215,-1.05536 -0.81574,-1.58764 -0.84362,-2.9068 -0.0145,-0.68784 0.20937,-1.33321 0.79897,-1.69433 l -2.12692,-2.23127 c -0.58432,0.41826 -1.08528,0.71134 -1.67903,0.71026 -0.46489,-8.5e-4 -1.04353,-0.23833 -1.42067,-0.39799 -0.37714,0.15966 -0.95578,0.39714 -1.42067,0.39799 z"
     id="path14359-1-7-5-3-0-73-1-9-8-2-1-8-1-3-8-83-9-9-3-2-8-2-8-9-27"
     inkscape:connector-curvature="0"
     sodipodi:nodetypes="sccsssscssssccscs" />
  <path
     style="fill:none;stroke:#000000;stroke-width:1;stroke-linecap:butt;stroke-linejoin:miter;stroke-miterlimit:4;stroke-dasharray:none;stroke-opacity:1"
     d="M 390.85891,2.8524633 390.85691,321.4594 H 4.1517375 l 0.002,-318.6069367 z"
     id="path14359-1-7-5-3-0-73-1-9-8"
     inkscape:connector-curvature="0"
     sodipodi:nodetypes="ccccc" />
  <path
     style="fill:none;stroke:#000000;stroke-width:0.5;stroke-linecap:round;stroke-linejoin:round;stroke-miterlimit:4;stroke-dasharray:none;stroke-opacity:1"
     d="m 21.692294,168.79417 c -0.59374,9.9e-4 -1.09471,-0.292 -1.67902,-0.71026 l -2.12692,2.23127 c 0.58959,0.36112 0.81349,1.00649 0.79896,1.69433 -0.0279,1.31916 -0.82212,1.85144 -0.84362,2.9068 -0.0187,0.91988 0.52556,2.05084 1.33653,2.60638 0.48297,0.33082 1.05197,0.26499 1.6297,0.36485 0.71363,0.12339 1.45988,0.31422 2.30504,1.01178 0.84516,-0.69756 1.59141,-0.88839 2.30504,-1.01178 0.57773,-0.0999 1.14673,-0.0341 1.6297,-0.36485 0.81097,-0.55554 1.35528,-1.6865 1.33653,-2.60638 -0.0215,-1.05536 -0.81574,-1.58764 -0.84362,-2.9068 -0.0145,-0.68784 0.20937,-1.33321 0.79897,-1.69433 l -2.12692,-2.23127 c -0.58432,0.41826 -1.08528,0.71134 -1.67903,0.71026 -0.46489,-8.5e-4 -1.04353,-0.23833 -1.42067,-0.39799 -0.37714,0.15966 -0.95578,0.39714 -1.42067,0.39799 z"
     id="path14359-1-7-5-3-0-73-1-9-8-2-1-8-1-3-8-83-9-9-3-2-8-2-8-9-27-2"
     inkscape:connector-curvature="0"
     sodipodi:nodetypes="sccsssscssssccscs" />
  <path
     style="fill:none;stroke:#000000;stroke-width:0.5;stroke-linecap:round;stroke-linejoin:round;stroke-miterlimit:4;stroke-dasharray:none;stroke-opacity:1"
     d="m 79.28596,306.17918 c -0.59374,9.9e-4 -1.09471,-0.292 -1.67902,-0.71026 l -2.12692,2.23127 c 0.58959,0.36112 0.81349,1.00649 0.79896,1.69433 -0.0279,1.31916 -0.82212,1.85144 -0.84362,2.9068 -0.0187,0.91988 0.52556,2.05084 1.33653,2.60638 0.48297,0.33082 1.05197,0.26499 1.6297,0.36485 0.71363,0.12339 1.45988,0.31422 2.30504,1.01178 0.84516,-0.69756 1.59141,-0.88839 2.30504,-1.01178 0.57773,-0.0999 1.14673,-0.0341 1.6297,-0.36485 0.81097,-0.55554 1.35528,-1.6865 1.33653,-2.60638 -0.0215,-1.05536 -0.81574,-1.58764 -0.84362,-2.9068 -0.0145,-0.68784 0.20937,-1.33321 0.79897,-1.69433 l -2.12692,-2.23127 c -0.58432,0.41826 -1.08528,0.71134 -1.67903,0.71026 -0.46489,-8.5e-4 -1.04353,-0.23833 -1.42067,-0.39799 -0.37714,0.15966 -0.95578,0.39714 -1.42067,0.39799 z"
     id="path14359-1-7-5-3-0-73-1-9-8-2-1-8-1-3-8-83-9-9-3-2-8-2-8-9-27-26"
     inkscape:connector-curvature="0"
     sodipodi:nodetypes="sccsssscssssccscs" />
  <path
     style="fill:none;stroke:#000000;stroke-width:0.5;stroke-linecap:round;stroke-linejoin:round;stroke-miterlimit:4;stroke-dasharray:none;stroke-opacity:1"
     d="m 219.0738,294.58908 c -0.59374,9.9e-4 -1.09471,-0.292 -1.67902,-0.71026 l -2.12692,2.23127 c 0.58959,0.36112 0.81349,1.00649 0.79896,1.69433 -0.0279,1.31916 -0.82212,1.85144 -0.84362,2.9068 -0.0187,0.91988 0.52556,2.05084 1.33653,2.60638 0.48297,0.33082 1.05197,0.26499 1.6297,0.36485 0.71363,0.12339 1.45988,0.31422 2.30504,1.01178 0.84516,-0.69756 1.59141,-0.88839 2.30504,-1.01178 0.57773,-0.0999 1.14673,-0.0341 1.6297,-0.36485 0.81097,-0.55554 1.35528,-1.6865 1.33653,-2.60638 -0.0215,-1.05536 -0.81574,-1.58764 -0.84362,-2.9068 -0.0145,-0.68784 0.20937,-1.33321 0.79897,-1.69433 l -2.12692,-2.23127 c -0.58432,0.41826 -1.08528,0.71134 -1.67903,0.71026 -0.46489,-8.5e-4 -1.04353,-0.23833 -1.42067,-0.39799 -0.37714,0.15966 -0.95578,0.39714 -1.42067,0.39799 z"
     id="path14359-1-7-5-3-0-73-1-9-8-2-1-8-1-3-8-83-9-9-3-2-8-2-8-9-27-6"
     inkscape:connector-curvature="0"
     sodipodi:nodetypes="sccsssscssssccscs" />
  <path
     style="fill:none;stroke:#000000;stroke-width:0.5;stroke-linecap:round;stroke-linejoin:round;stroke-miterlimit:4;stroke-dasharray:none;stroke-opacity:1"
     d="m 230.09852,232.25699 c -0.59374,9.9e-4 -1.09471,-0.292 -1.67902,-0.71026 l -2.12692,2.23127 c 0.58959,0.36112 0.81349,1.00649 0.79896,1.69433 -0.0279,1.31916 -0.82212,1.85144 -0.84362,2.9068 -0.0187,0.91988 0.52556,2.05084 1.33653,2.60638 0.48297,0.33082 1.05197,0.26499 1.6297,0.36485 0.71363,0.12339 1.45988,0.31422 2.30504,1.01178 0.84516,-0.69756 1.59141,-0.88839 2.30504,-1.01178 0.57773,-0.0999 1.14673,-0.0341 1.6297,-0.36485 0.81097,-0.55554 1.35528,-1.6865 1.33653,-2.60638 -0.0215,-1.05536 -0.81574,-1.58764 -0.84362,-2.9068 -0.0145,-0.68784 0.20937,-1.33321 0.79897,-1.69433 l -2.12692,-2.23127 c -0.58432,0.41826 -1.08528,0.71134 -1.67903,0.71026 -0.46489,-8.5e-4 -1.04353,-0.23833 -1.42067,-0.39799 -0.37714,0.15966 -0.95578,0.39714 -1.42067,0.39799 z"
     id="path14359-1-7-5-3-0-73-1-9-8-2-1-8-1-3-8-83-9-9-3-2-8-2-8-9-27-7"
     inkscape:connector-curvature="0"
     sodipodi:nodetypes="sccsssscssssccscs" />
  <path
     style="fill:none;stroke:#000000;stroke-width:0.5;stroke-linecap:round;stroke-linejoin:round;stroke-miterlimit:4;stroke-dasharray:none;stroke-opacity:1"
     d="m 274.05607,28.864977 c -0.59374,9.9e-4 -1.09471,-0.292 -1.67902,-0.71026 l -2.12692,2.23127 c 0.58959,0.36112 0.81349,1.00649 0.79896,1.69433 -0.0279,1.31916 -0.82212,1.85144 -0.84362,2.9068 -0.0187,0.91988 0.52556,2.05084 1.33653,2.60638 0.48297,0.33082 1.05197,0.26499 1.6297,0.36485 0.71363,0.12339 1.45988,0.31422 2.30504,1.01178 0.84516,-0.69756 1.59141,-0.88839 2.30504,-1.01178 0.57773,-0.0999 1.14673,-0.0341 1.6297,-0.36485 0.81097,-0.55554 1.35528,-1.6865 1.33653,-2.60638 -0.0215,-1.05536 -0.81574,-1.58764 -0.84362,-2.9068 -0.0145,-0.68784 0.20937,-1.33321 0.79897,-1.69433 l -2.12692,-2.23127 c -0.58432,0.41826 -1.08528,0.71134 -1.67903,0.71026 -0.46489,-8.5e-4 -1.04353,-0.23833 -1.42067,-0.39799 -0.37714,0.15966 -0.95578,0.39714 -1.42067,0.39799 z"
     id="path14359-1-7-5-3-0-73-1-9-8-2-1-8-1-3-8-83-9-9-3-2-8-2-8-9-27-8"
     inkscape:connector-curvature="0"
     sodipodi:nodetypes="sccsssscssssccscs" />
  <path
     style="fill:none;stroke:#000000;stroke-width:0.5;stroke-linecap:round;stroke-linejoin:round;stroke-miterlimit:4;stroke-dasharray:none;stroke-opacity:1"
     d="m 376.51385,224.77929 c 0.68748,9.9e-4 1.77304,-0.46524 2.55947,0.18082 1.23214,1.01222 1.27656,3.82616 1.27656,4.59722 0,3.23827 -2.41604,5.85935 -5.48097,6.84623 -3.06493,-0.98688 -5.48097,-3.60796 -5.48097,-6.84623 0,-0.77106 0.0444,-3.585 1.27656,-4.59722 0.78643,-0.64606 1.87199,-0.17983 2.55947,-0.18082 0.53828,-9.6e-4 1.17301,-0.20861 1.64494,-0.20863 0.47193,2e-5 1.10666,0.20767 1.64494,0.20863 z"
     id="path14359-1-7-5-3-0-73-1-9-8-2-1-8-1-3-8-83-9-9-3-2-8-2-8-9-27-4-1-7"
     inkscape:connector-curvature="0"
     sodipodi:nodetypes="ssscssscs" />
  <path
     style="fill:none;stroke:#000000;stroke-width:0.5;stroke-linecap:round;stroke-linejoin:round;stroke-miterlimit:4;stroke-dasharray:none;stroke-opacity:1"
     d="m 79.856657,139.61281 c 0.68748,9.9e-4 1.77304,-0.46524 2.55947,0.18082 1.23214,1.01222 1.27656,3.82616 1.27656,4.59722 0,3.23827 -2.41604,5.85935 -5.48097,6.84623 -3.06493,-0.98688 -5.48097,-3.60796 -5.48097,-6.84623 0,-0.77106 0.0444,-3.585 1.27656,-4.59722 0.78643,-0.64606 1.87199,-0.17983 2.55947,-0.18082 0.53828,-9.6e-4 1.17301,-0.20861 1.64494,-0.20863 0.47193,2e-5 1.10666,0.20767 1.64494,0.20863 z"
     id="path14359-1-7-5-3-0-73-1-9-8-2-1-8-1-3-8-83-9-9-3-2-8-2-8-9-27-4-1-7-8"
     inkscape:connector-curvature="0"
     sodipodi:nodetypes="ssscssscs" />
  <path
     style="fill:none;stroke:#000000;stroke-width:0.5;stroke-linecap:round;stroke-linejoin:round;stroke-miterlimit:4;stroke-dasharray:none;stroke-opacity:1"
     d="m 65.49092,8.0627403 0.611835,2.2204207 m 0.550144,1.996534 1.572555,5.706985 m 0.700874,2.543554 0.550143,1.996534 m 0.719089,2.609655 1.43,5.189637 m 0.633037,2.297365 0.594748,2.158408 m 0.648094,2.352008 1.197112,4.344459 m -1.53301,2.981345 -0.84204,1.637571 m -1.063477,2.068215 -3.315245,6.447375 m -0.683377,1.329009 -0.683377,1.329008 m -0.843683,1.640766 -2.93843,5.714558 m -1.046963,2.036098 -0.9164,1.782184 m -0.946966,1.841627 -0.978239,1.902446 m 8.245962,3.882171 -0.586088,2.099362 -0.784647,0.252641 m -1.903647,0.612939 -2.032525,0.654435 m -1.841402,0.592897 -4.415977,1.421861 -0.933918,-0.500929 M 53.38252,80.5213 52.536974,81.87027 m -0.868869,1.386178 -3.659384,5.838117 m -1.016946,1.622418 -1.15308,1.839604 m -1.269154,2.024786 -2.073294,3.307697 -1.82045,-0.12136 m -1.633234,-0.10888 -2.13359,-0.142235 m -2.412089,-0.160802 -6.839758,-0.455972 m -1.850369,-0.123355 -1.56715,-0.104474 M 22.110738,96.530071 15.209615,96.070009 M 12.868331,95.913927 10.805546,95.776412 M 8.6813973,95.634805 4.1170275,95.330522"
     id="path14359-1-7-5-3-0-73-1-9-8-5"
     inkscape:connector-curvature="0"
     sodipodi:nodetypes="ccccccccccccccccccccccccccccccccccccccccccccccccccccc" />
  <path
     style="fill:none;stroke:#000000;stroke-width:0.5;stroke-linecap:round;stroke-linejoin:round;stroke-miterlimit:4;stroke-dasharray:none;stroke-opacity:1"
     d="m 18.793518,67.720573 4.029539,0.448815 m 1.990422,0.221696 2.146566,0.239087 m 2.060669,0.22952 6.252257,0.696384 m 2.107444,0.23473 2.240288,0.249526 m 2.692903,0.299939 5.698095,0.634661 m 2.404086,0.267771 2.271414,0.252992 m 2.076318,0.231263 4.143825,0.461545 1.023133,0.456806 m 1.938905,0.865678 1.40413,0.626912 m 1.397782,0.624079 6.684409,2.984439"
     id="path14359-1-7-5-3-0-73-1-9-8-5-8"
     inkscape:connector-curvature="0"
     sodipodi:nodetypes="ccccccccccccccccccc" />
  <path
     style="fill:none;stroke:#000000;stroke-width:0.5;stroke-linecap:round;stroke-linejoin:round;stroke-miterlimit:4;stroke-dasharray:none;stroke-opacity:1"
     d="m 171.01458,4.6575773 c 0.0996,3.2363728 -1.01193,1.588477 -1.13112,3.2096099 -0.075,1.0206523 0.0187,2.3767918 0.10778,3.7507698 m 0.001,3.642342 c -0.0278,0.392729 0.0243,0.886043 -0.56499,0.87305 m -1.62434,0.0754 c -1.22854,0.14982 -1.33441,1.096775 -1.33252,2.092555 0.002,1.067407 0.0596,2.076257 -0.36659,3.043736 -0.40656,0.923003 -1.44939,1.664999 -2.22717,2.827235 m -1.01149,1.491404 c -0.31858,0.470966 -0.66,0.981557 -1.00411,1.514393 m -1.13737,1.848557 c -0.62971,1.087157 -1.17566,2.302693 -1.83239,3.24333 -0.77575,1.11111 -1.5644,1.930747 -1.65081,2.978741 m 0.20212,2.966726 c 0.20803,0.69793 0.52824,1.224031 0.88717,1.780747 m 0.86812,1.439935 c 0.85281,1.649432 -1.39443,2.096351 -0.94187,4.828789 0.45141,2.725544 3.19152,2.201325 3.5165,4.897894 m 0.2874,2.039818 c 0.10225,0.660032 0.20585,1.303928 0.29911,1.97261 m 0.24177,2.180838 c 0.10578,1.350699 -2.16076,1.948106 -2.10568,3.463181 0.0792,2.179757 -1.1267,3.170743 -1.09796,4.822914 m 22.98546,18.458106 c -0.2633,0.975737 -0.006,1.638043 0.37446,2.228589 m 1.51659,2.353825 2.98622,4.634761 m 1.57085,2.438043 0.96805,1.502456 m 1.32736,2.060131 3.12119,4.844237 m 1.10439,1.71407 0.68918,1.06965 m 12.80369,-1.88405 0.78171,2.07473 m 0.74955,1.98936 0.54309,1.4414 m 0.80342,2.13236 2.28205,6.05674 m 0.60817,1.61414 0.65422,1.73636 m 1.84419,2.01897 4.86228,5.32311 m 1.18191,1.29393 1.14674,1.25542 m 1.52739,1.67215 4.27964,4.68525 m 1.40051,1.53324 1.17996,1.2918 m 1.24535,1.36338 3.87654,4.24394 m 1.78894,1.95849 1.33658,1.46326 m 1.48107,1.6563 c 2.34623,2.68493 4.5458,5.52217 6.42513,8.64004 m 1.13059,1.98503 c 0.31562,0.58827 0.61949,1.18668 0.91058,1.79598 m 0.77431,1.71984 2.54413,6.01461 m 1.17111,2.76864 0.90867,2.14818 m 0.64308,1.52032 7.52306,17.62398 m 0.80306,1.9225 0.84855,2.03141 m 1.21601,2.9111 2.53638,6.07201"
     id="path14359-1-7-5-3-0-73-1-9-8-5-7"
     inkscape:connector-curvature="0"
     sodipodi:nodetypes="csccccssccccsccccsccccsccccccccccccccccccccccccccccccccccccccccccccc" />
  <path
     style="fill:none;stroke:#000000;stroke-width:0.5;stroke-linecap:round;stroke-linejoin:round;stroke-miterlimit:4;stroke-dasharray:none;stroke-opacity:1"
     d="m 320.08089,5.0940648 c 0.0171,1.1754973 0.0125,2.4610814 0.0449,3.9013803 m 0.48306,2.6984149 c 0.1399,0.495385 0.28729,0.997028 0.40822,1.542137 m 0.26122,2.561889 c -0.0154,1.323795 -1.09536,0.696471 -1.09857,2.119239 -0.002,0.909189 -0.0113,2.224 -0.0176,3.115474 -0.004,0.621618 0.52791,1.084715 1.32494,1.385592 m 1.82805,0.381179 c 0.49354,0.04183 1.00716,0.04565 1.51071,0.01104 m 1.84619,-0.330539 c 1.0255,-0.325056 1.76614,-0.875384 1.80262,-1.656693 0.0755,-1.616188 1.16378,-1.834229 2.31577,-1.292785 m 1.52404,0.716314 1.3246,0.622574 m 1.90814,0.896841 6.57597,3.09077 m 2.0934,0.983918 1.97726,0.92933 m 2.25374,1.059282 6.04228,2.839927 m 1.57899,0.742138 1.37162,0.644675 m 1.95233,0.917616 5.39165,2.534125 m 2.41691,1.31408 c 0.21854,0.163932 0.42277,0.342091 0.61152,0.541083 m 0.90783,1.422838 c 0.23292,0.564545 0.40461,1.245199 0.50764,2.084564 0.24231,1.973961 1.74925,2.954124 2.79926,3.989327 m 0.97184,1.216769 c 0.18507,0.363594 0.3654,0.847852 -0.17076,1.341135 m -0.81731,1.65082 c 0.0336,1.355932 1.69455,2.047752 3.77314,4.268131 m 1.39523,1.987912 c 0.30751,0.539382 0.59421,1.093324 0.88223,1.622193 m 0.88382,1.46297 c 1.13907,1.603996 2.613,2.32132 2.63284,3.873066 0.008,0.660958 -0.24321,1.160114 -0.59031,1.629498 m -1.07023,1.320183 c -0.24499,0.336083 -0.4672,0.709505 -0.62369,1.154694 m -0.23147,1.394191 c -0.0147,2.079569 -0.13086,3.514881 -0.007,5.004232 0.0818,0.983104 0.60211,1.687533 1.37711,2.27154 m 1.57141,0.926348 c 0.38596,0.190339 0.79359,0.376499 1.2126,0.567342 m 1.32344,0.616084 c 3.47423,1.690333 5.58148,3.415073 6.24938,6.352446"
     id="path14359-1-7-5-3-0-73-1-9-8-5-74"
     inkscape:connector-curvature="0"
     sodipodi:nodetypes="cccccssccccsccccccccccccccccsccccccccsccccsccccc" />
  <path
     style="fill:none;stroke:#000000;stroke-width:0.5;stroke-linecap:round;stroke-linejoin:round;stroke-miterlimit:4;stroke-dasharray:none;stroke-opacity:1"
     d="m 8.1742604,294.59363 1.7254962,-0.0625 m 2.6788144,-0.097 6.176672,-0.22375 m 2.698857,-0.0978 2.292197,-0.083 m 2.924527,-0.10594 6.015727,-0.21792 m 3.009296,-0.109 2.060799,-0.0747 m 3.946338,-0.14296 4.838697,-0.17527 m 3.0912,-0.11198 1.973169,-0.0715 m 2.930254,-0.10614 5.617657,-0.2035 m 2.994979,-0.10849 1.94768,-0.0705 m 2.132107,1.03259 1.164983,0.5642 5.4819,3.57167 m 2.112236,1.37621 1.73723,-0.43578 m 3.41614,-0.85692 4.608204,-3.8293 4.540302,0.3181 m 2.247898,-0.74322 1.378002,-0.4556 m 2.277129,-0.75288 1.949155,4.43551 m 0.869671,1.97903 0.556078,1.26542 m 0.883555,2.05425 -0.619312,1.96571 -0.242511,2.80456 2.315353,0.47847 m 2.13672,-0.6099 9.58619,-2.73628 m 1.74572,-0.4983 1.9549,-0.558 m 2.56124,-0.73108 5.91684,-1.6889 m 2.29992,-0.65648 2.258,-0.64453 m 2.34169,-0.66841 6.40823,-1.82916 m 2.65532,-0.75793 2.31029,-0.65945 m 2.95842,-0.84445 5.0179,-1.4323 m 2.33118,-0.66541 1.46351,-0.41774 m 2.45666,-0.70123 6.97279,-1.99031 m 2.01756,-0.57589 1.88172,-0.53712 m 2.6762,-0.76389 1.90016,-0.54238 3.01446,-2.08038 m 2.02664,-1.39865 1.93225,-1.33351 m 1.82503,-1.25952 6.0852,-4.1996 m 2.04702,-1.41272 1.73065,-1.19438 m 2.22447,-1.53518 4.77438,-3.29496 m 2.45552,-1.69464 1.31837,-0.90985 m 2.65336,-1.83117 4.58036,-3.16106 m 2.32762,-0.12241 2.0521,-0.10792 m 2.45918,-0.12932 2.70279,-0.14214"
     id="path14359-1-7-5-3-0-73-1-9-8-5-4"
     inkscape:connector-curvature="0"
     sodipodi:nodetypes="ccccccccccccccccccccccccccccccccccccccccccccccccccccccccccccccccccccccccccc" />
  <path
     style="fill:none;stroke:#000000;stroke-width:0.5;stroke-linecap:round;stroke-linejoin:round;stroke-miterlimit:4;stroke-dasharray:none;stroke-opacity:1"
     d="m 161.92504,290.27864 -0.64458,0.87218 m -1.2457,1.68556 -3.75862,5.0858 m -1.43433,1.9408 -1.06467,1.44061 m -1.67992,2.2731 -4.17005,5.64251 m -1.17355,1.58792 -1.30393,1.76437 m -1.69512,2.29367 -2.78784,3.77222"
     id="path14359-1-7-5-3-0-73-1-9-8-5-9"
     inkscape:connector-curvature="0"
     sodipodi:nodetypes="cccccccccccc" />
  <path
     style="fill:none;stroke:#000000;stroke-width:0.5;stroke-linecap:round;stroke-linejoin:round;stroke-miterlimit:4;stroke-dasharray:none;stroke-opacity:1"
     d="m 387.26115,159.83102 c -0.53396,0.65419 -1.21934,1.30539 -2.04156,1.89392 m -1.74272,1.03722 c -1.65165,0.8062 -3.65725,1.33254 -5.94942,1.30314 m -3.06878,-0.0773 c -0.59927,-0.0204 -1.20851,-0.0432 -1.82566,-0.0667 m -2.72905,-0.10255 c -2.12198,-0.075 -4.29902,-0.13315 -6.45489,-0.11557 m -2.23052,0.17999 c -0.46049,0.0725 -0.90015,0.16468 -1.32055,0.27297 m -2.69318,0.99468 c -2.54747,1.23413 -4.8792,3.21246 -6.32345,3.66078 m -1.70158,0.52284 c -0.53846,0.16386 -1.06998,0.32418 -1.59502,0.48152 m -2.13792,0.63575 c -2.52587,0.74639 -4.90732,1.43744 -7.20114,2.13983 m -2.92488,0.97975 c -0.41394,0.16138 -0.81141,0.33177 -1.19063,0.51626 m -2.54823,1.80485 c -1.51217,1.61544 -2.46045,3.82078 -2.63272,5.38344 -0.14017,1.27149 -0.0141,2.28039 -0.0241,3.46059 -0.005,0.6203 0.0403,0.99328 -0.43782,1.0707 -0.98731,0.15986 -1.86551,0.23709 -2.82436,0.32439 -1.48053,0.13481 -3.06781,0.0366 -4.46759,-0.0184 -0.56523,-0.0222 -1.16818,-0.13454 -1.78848,-0.2425 m -1.69753,-0.2118 c -0.45995,-0.0174 -0.92077,0.0382 -1.37856,0.13781 m -2.31232,0.92859 c -0.66374,0.28502 -1.45231,0.51629 -2.72347,0.52129 -1.05803,0.004 -0.94669,-1.12226 -2.11925,-1.25676 -0.70652,-0.081 -0.71334,-1.11371 -1.11167,-1.0718 -0.48364,0.0509 -0.66102,1.01327 -1.29283,1.05715 -0.6233,0.0433 -0.9554,0.67616 -1.25137,1.35193 m -0.8302,1.47801 c -0.43494,0.37002 -0.93745,0.68105 -1.4547,0.96967 m -2.1423,1.19932 c -0.63876,0.42177 -1.09521,1.01382 -1.31909,1.89012 -0.18873,0.73872 -0.91449,1.41498 -0.90445,2.11466 0.0179,1.24839 1.02085,1.89204 1.12452,3.64775 0.0446,0.75585 -0.36039,1.15457 -1.07674,1.32498 -0.64056,0.15238 -1.53005,0.12219 -2.56959,0.002 m -2.20761,0.14905 c -0.45706,-0.0303 -1.04069,-0.0577 -1.58088,-0.18549 m -1.56556,-1.71379 c 0.01,-1.01838 -0.80297,-2.09522 -1.92536,-2.01283 -0.94706,0.0695 -1.78418,1.20123 -1.83034,2.13189 -0.0383,0.77261 0.12226,1.97291 -0.0354,2.97272 m -0.82216,2.4213 c -0.19154,0.33558 -0.41735,0.65792 -0.68171,0.96261 m -2.06229,1.5708 c -0.33258,0.16645 -0.94468,0.54557 -0.92578,1.38122 0.0176,0.77871 -0.45857,1.34575 -1.32429,1.39914 -1.45195,0.0896 -1.9857,0.92804 -4.38311,1.03672 m -2.48635,0.0917 c -0.61899,0.0703 -0.99276,-0.0673 -1.23997,-0.30109 m -0.66393,-1.3357 c -0.14078,-0.27921 -0.33843,-0.48041 -0.72491,-0.47942 -0.55473,0.001 -0.33577,0.62994 -1.30389,0.66371 -0.49181,0.0172 -0.72999,0.23285 -0.8889,0.55979 m -0.74718,1.72653 c -0.13515,0.19333 -0.3106,0.41783 -0.51459,0.64977 m -1.71917,1.43091 c -1.84888,0.95138 -4.12002,1.36165 -4.91132,1.68385 m -1.45711,0.85014 c -0.40126,0.34506 -0.70302,0.74832 -0.94785,1.23441 m -1.10952,2.10791 c -0.88327,1.61679 -1.89534,3.34934 -2.96556,5.10977 m -1.32964,2.15545 c -0.2592,0.41454 -0.52001,0.82865 -0.78153,1.24119 m -1.43184,2.2339 c -1.63837,2.52962 -3.23921,4.91644 -4.57761,6.88075 m -1.90008,3.11582 c -0.44823,0.76108 -0.82736,1.32889 -1.31497,1.70307 m -2.98285,1.65103 c -1.27232,0.80835 -2.74534,1.87459 -4.23769,3.03467 m -1.40561,1.11525 c -0.36267,0.29344 -0.72311,0.5894 -1.07867,0.8855 m -1.34228,1.13821 c -0.92709,0.80072 -1.7923,1.57951 -2.5416,2.28751 -0.60583,0.57243 0.3131,1.73078 -0.57306,2.39199 -0.19675,0.14681 -0.39186,0.30311 -0.58563,0.46677 m -1.05707,0.96367 c -0.37137,0.35858 -0.7399,0.73017 -1.108,1.09871 m -1.95344,1.83085 c -1.10687,0.91179 -2.24689,1.54943 -3.48219,1.49695 -1.09125,-0.0464 -1.86349,0.75809 -1.77448,2.77125 0.023,0.52034 -0.10243,0.87481 -0.30501,1.13948 m -1.58956,1.1371 c -0.24069,0.23126 -0.40207,0.53829 -0.39338,1.01792 0.006,0.35819 0.29386,1.1862 0.89937,1.1496 0.68311,-0.0413 0.29471,0.89965 1.47166,0.86192 l 2.60369,-0.0834 c 0.38337,-0.0123 0.81992,0.0943 1.26084,0.30896 m 1.59047,1.30519 c 0.22166,0.27818 0.42683,0.5865 0.6234,0.90774 m 1.89106,2.9264 c 2.12387,1.57661 3.36176,2.94371 5.27889,4.06473 m 1.65196,0.88255 c 0.57827,0.27013 1.17445,0.49972 1.8374,0.68504 m 1.52654,0.32584 c 0.46843,0.0723 0.65225,0.92323 1.04119,0.93592 1.1959,0.039 1.71752,0.69929 1.68904,1.59651 -0.0357,1.12461 0.99301,0.8479 0.97238,3.82739 m -0.18661,1.59592 c -0.12299,0.51173 -0.30183,0.96885 -0.5218,1.36957 m -1.41974,1.5543 c -0.54354,0.34551 -1.13362,0.51686 -1.69658,0.50499 -3.3728,-0.0711 -3.31276,1.39966 -3.32346,3.79415 -0.004,0.99998 -0.79925,0.3099 -0.93571,1.46877 m -0.19766,2.11078 c -0.025,0.63934 0.004,1.24298 0.14276,1.74387 m 2.18622,1.93623 c 0.57463,0.0799 0.52489,0.75856 1.46976,0.71168 1.1382,-0.0565 1.16781,1.21102 2.86289,1.19778 1.34738,-0.0105 1.06395,-0.85466 2.15171,-0.88849 m 1.73555,-0.054 1.19778,-0.0373 m 1.44001,-0.0448 1.55135,-0.0482 c 1.51347,-0.0471 2.88654,0.84583 2.89019,2.66535 0.001,0.61969 0.71002,0.75411 0.84411,1.34496 m 0.93332,1.61332 c 0.38721,0.2535 0.84479,0.31641 1.32623,0.34739 m 1.93819,0.12472 4.46917,0.28758 c 0.33457,0.0215 0.52045,0.54443 0.61911,1.32068 m 0.10084,2.15092 c 1.1e-4,0.413 -0.006,0.83597 -0.015,1.25245 m -0.0417,1.7707 c -0.006,0.33698 -0.009,0.64674 -0.006,0.91581 0.015,1.16309 1.23963,-0.26478 1.18142,0.99815 -0.0284,0.61563 0.0813,1.23628 0.0361,1.86013 m -1.56957,1.00912 c -0.59139,0.10537 -1.30302,0.14095 -2.0509,0.11533 m -1.73699,0.0501 c -0.77019,0.11217 -1.44185,0.40212 -1.66835,1.10019"
     id="path14359-1-7-5-3-0-73-1-9-8-5-1"
     inkscape:connector-curvature="0"
     sodipodi:nodetypes="cccccccccccccccccccsssssccccssssccccssssccccssccccssccccssccccccccccccccccccccssccccssccssssccccccccssccccssccccssccccssccccsccccssccccc" />
  <path
     style="fill:none;stroke:#000000;stroke-width:0.5;stroke-linecap:round;stroke-linejoin:round;stroke-miterlimit:4;stroke-dasharray:none;stroke-opacity:1"
     d="m 384.83635,22.825744 c -0.14066,1.302532 -1.54134,1.461568 -1.99517,2.434722 -0.50161,1.075631 0.30249,2.108658 -1.10095,3.062877 -1.4092,0.958133 -2.31237,0.02961 -3.17236,0.825263 -0.89882,0.831575 -1.71512,1.863488 -2.49767,2.779309 -0.5635,0.659458 0.10349,2.251044 -0.46016,2.893484 -0.73988,0.843319 -1.72142,1.577144 -2.43586,2.375412 -1.0539,1.177558 -1.22079,1.85556 -2.00846,2.655212 -1.49119,1.513858 -3.24572,0.988155 -4.41474,3.124431 -1.135,2.074112 0.36839,2.517066 0.49488,4.071108 0.10065,1.236659 -0.93201,1.177162 -0.74995,3.469975 0.0874,1.10096 1.29742,1.652442 -0.0744,2.589216 1.86401,-0.568767 5.24287,-0.02504 6.12782,1.158815 0.94216,1.260395 1.82107,2.236334 2.12649,3.215909 0.87374,2.802424 3.44158,1.290257 3.30426,6.337654"
     id="path14359-1-7-5-3-0-73-1-9-8-5-5"
     inkscape:connector-curvature="0"
     sodipodi:nodetypes="csssssssssscssc" />
  <path
     style="fill:none;stroke:#000000;stroke-width:0.5;stroke-linecap:round;stroke-linejoin:round;stroke-miterlimit:4;stroke-dasharray:none;stroke-opacity:1"
     d="m 28.188124,122.47768 c -4.092147,2.50384 -5.388613,7.22489 -5.510617,12.69364 -0.05557,2.49101 1.436996,2.35627 1.553519,4.61192 0.173928,3.36688 2.741041,4.36332 2.717678,5.51478 -0.03425,1.68813 -2.309715,1.42317 -2.374909,3.92719 -0.07666,2.94438 3.932861,3.47287 3.837153,5.59887 -0.06658,1.47888 -0.87162,1.0506 -0.921699,2.54118 -0.02439,0.72602 0.809866,1.37629 0.742199,2.29751 -0.06712,0.91381 1.1137,1.25242 1.098986,2.1491"
     id="path14359-1-7-5-3-0-73-1-9-8-5-55"
     inkscape:connector-curvature="0"
     sodipodi:nodetypes="csssssssc" />
  <path
     style="fill:none;stroke:#000000;stroke-width:0.5;stroke-linecap:round;stroke-linejoin:round;stroke-miterlimit:4;stroke-dasharray:none;stroke-opacity:1"
     d="m 96.278725,157.58385 c -0.33462,0.7375 -1.343383,0.27609 -2.151789,1.00696 -0.680987,0.61568 -1.209748,2.20805 -1.174133,4.76883 0.04071,2.9273 1.456276,3.09971 1.453682,4.69868 -0.0014,0.88521 -1.363552,1.57485 -1.404697,2.49748 -0.09305,2.08657 -3.099161,0.20633 -3.349905,2.80498 -0.08871,0.91933 -1.112969,1.70174 -1.006456,3.11271 0.09304,1.23246 0.624972,1.62006 0.71522,2.72971 0.120575,1.48254 2.328678,0.95023 2.532125,3.33552 0.07084,0.83049 -0.288138,1.60894 -1.162628,1.76369 -1.349948,0.23888 -0.848362,-1.19487 -2.750099,-1.46355 -2.067425,-0.29209 -2.0727,1.24578 -4.032103,1.06957 -1.002158,-0.0901 -1.849975,1.24179 -1.746768,2.79043 0.06742,1.01164 -0.960332,1.76341 -0.957363,2.85238 0.0049,1.79431 -2.360544,1.05252 -2.477607,3.22163"
     id="path14359-1-7-5-3-0-73-1-9-8-5-82"
     inkscape:connector-curvature="0"
     sodipodi:nodetypes="csssssssssssssc" />
  <path
     style="fill:none;stroke:#000000;stroke-width:0.5;stroke-linecap:round;stroke-linejoin:round;stroke-miterlimit:4;stroke-dasharray:none;stroke-opacity:1"
     d="m 104.55553,273.01024 c -0.52252,0.0528 -1.13284,0.17622 -1.6283,0.43194 -0.65355,0.33731 -0.93851,1.06102 -0.95082,2.05301 -0.007,0.56311 -0.52859,1.0801 -1.13977,1.20791 -0.6876,0.14379 -1.501317,-0.14132 -2.068305,-0.18181 -0.564619,-0.0403 -1.434514,0.77137 -1.403071,1.51836 0.03027,0.71917 0.0053,1.37838 -0.04587,2.01568 -0.101279,1.26269 -0.788848,1.47955 -1.135679,2.08247 -0.468943,0.81518 -1.249669,1.04443 -1.428929,1.93355 -0.239558,1.1882 -1.149712,1.49468 -0.899185,4.27772 0.115416,1.28213 -1.100851,0.88581 -1.079542,1.68301 0.02329,0.87122 -0.500413,1.47381 -1.328854,1.47602 -0.691656,0.002 -1.324074,0.14789 -2.055144,0.14099 -0.689267,-0.007 -1.093042,-0.5895 -1.374193,-1.19509 -0.234151,-0.50435 -0.82237,-1.36555 -1.313592,-1.34127 -1.029817,0.0509 -0.301645,1.11076 -1.705578,1.25274 -1.024968,0.10366 -0.595465,-1.01587 -1.949327,-1.08554 -0.540348,-0.0278 -0.837385,0.42595 -1.208044,0.75502 -0.390867,0.34702 -0.842122,0.58226 -0.892179,1.03634 -0.06703,0.60802 -0.170132,1.19245 -0.691534,1.63305 -0.899934,0.76047 -1.771645,1.57356 -2.658893,2.39283 -0.5009,0.46253 0.34383,3.11563 -0.566564,3.33215 -0.529145,0.12585 -1.375538,0.76246 -1.904495,1.00697 -0.724998,0.33513 -0.996031,0.51736 -1.566395,0.69287 -0.92766,0.28545 -1.362924,1.62253 -2.53139,1.75799 -1.023481,0.11864 -1.384713,1.59765 -3.00572,2.70557"
     id="path14359-1-7-5-3-0-73-1-9-8-5-98"
     inkscape:connector-curvature="0"
     sodipodi:nodetypes="cssssssssssssssssssssssssc" />
  <path
     style="fill:none;stroke:#000000;stroke-width:0.5;stroke-linecap:round;stroke-linejoin:round;stroke-opacity:1;stroke-miterlimit:4;stroke-dasharray:none"
     d="m 94.02873,184.23135 7.53646,-7.38472"
     id="path15044"
     inkscape:connector-curvature="0" />
  <path
     style="fill:none;stroke:#000000;stroke-width:0.5;stroke-linecap:round;stroke-linejoin:round;stroke-opacity:1;stroke-miterlimit:4;stroke-dasharray:none"
     d="m 96.507164,184.78774 5.968476,-5.9179"
     id="path15046"
     inkscape:connector-curvature="0" />
  <path
     style="fill:none;stroke:#000000;stroke-width:0.5;stroke-linecap:round;stroke-linejoin:round;stroke-opacity:1;stroke-miterlimit:4;stroke-dasharray:none"
     d="m 97.316448,186.91211 5.159192,-5.10861"
     id="path15048"
     inkscape:connector-curvature="0" />
  <path
     style="fill:none;stroke:#000000;stroke-width:0.5;stroke-linecap:round;stroke-linejoin:round;stroke-opacity:1;stroke-miterlimit:4;stroke-dasharray:none"
     d="m 98.580955,188.83416 4.602805,-4.85571"
     id="path15050"
     inkscape:connector-curvature="0" />
  <path
     style="fill:none;stroke:#000000;stroke-width:0.5;stroke-linecap:round;stroke-linejoin:round;stroke-opacity:1;stroke-miterlimit:4;stroke-dasharray:none"
     d="m 99.794882,190.09866 6.524858,-6.82833"
     id="path15052"
     inkscape:connector-curvature="0" />
  <path
     style="fill:none;stroke:#000000;stroke-width:0.5;stroke-linecap:round;stroke-linejoin:round;stroke-opacity:1;stroke-miterlimit:4;stroke-dasharray:none"
     d="m 102.02041,190.85737 6.1708,-6.17079"
     id="path15054"
     inkscape:connector-curvature="0" />
  <path
     style="fill:none;stroke:#000000;stroke-width:0.5;stroke-linecap:round;stroke-linejoin:round;stroke-opacity:1;stroke-miterlimit:4;stroke-dasharray:none"
     d="m 103.23434,192.3242 3.54062,-3.3383"
     id="path15056"
     inkscape:connector-curvature="0" />
  <path
     style="fill:none;stroke:#000000;stroke-width:0.5;stroke-linecap:round;stroke-linejoin:round;stroke-opacity:1;stroke-miterlimit:4;stroke-dasharray:none"
     d="M 265.77875,241.4429 275.7981,231.33488"
     id="path15058"
     inkscape:connector-curvature="0" />
  <path
     style="fill:none;stroke:#000000;stroke-width:0.5;stroke-linecap:round;stroke-linejoin:round;stroke-opacity:1;stroke-miterlimit:4;stroke-dasharray:none"
     d="m 260.76908,240.15723 12.72369,-12.32468"
     id="path15060"
     inkscape:connector-curvature="0" />
  <path
     style="fill:none;stroke:#000000;stroke-width:0.5;stroke-linecap:round;stroke-linejoin:round;stroke-opacity:1;stroke-miterlimit:4;stroke-dasharray:none"
     d="m 263.47342,234.61556 8.51201,-8.24602"
     id="path15062"
     inkscape:connector-curvature="0" />
  <path
     style="fill:none;stroke:#000000;stroke-width:0.5;stroke-linecap:round;stroke-linejoin:round;stroke-opacity:1;stroke-miterlimit:4;stroke-dasharray:none"
     d="m 263.91675,230.98022 6.33968,-6.16235"
     id="path15064"
     inkscape:connector-curvature="0" />
  <path
     style="fill:none;stroke:#000000;stroke-width:0.5;stroke-linecap:round;stroke-linejoin:round;stroke-opacity:1;stroke-miterlimit:4;stroke-dasharray:none"
     d="m 264.93642,238.6499 9.35435,-9.04402"
     id="path15066"
     inkscape:connector-curvature="0" />
  <path
     style="fill:none;stroke:#000000;stroke-width:0.5;stroke-linecap:round;stroke-linejoin:round;stroke-opacity:1;stroke-miterlimit:4;stroke-dasharray:none"
     d="m 343.57893,223.21772 2.40728,-2.34709"
     id="path15068"
     inkscape:connector-curvature="0" />
  <path
     style="fill:none;stroke:#000000;stroke-width:0.5;stroke-linecap:round;stroke-linejoin:round;stroke-opacity:1;stroke-miterlimit:4;stroke-dasharray:none"
     d="m 343.45856,227.12955 4.33311,-4.75437"
     id="path15070"
     inkscape:connector-curvature="0" />
  <path
     style="fill:none;stroke:#000000;stroke-width:0.5;stroke-linecap:round;stroke-linejoin:round;stroke-opacity:1;stroke-miterlimit:4;stroke-dasharray:none"
     d="m 344.84275,228.21283 4.3331,-4.87474"
     id="path15072"
     inkscape:connector-curvature="0" />
  <path
     style="fill:none;stroke:#000000;stroke-width:0.5;stroke-linecap:round;stroke-linejoin:round;stroke-opacity:1;stroke-miterlimit:4;stroke-dasharray:none"
     d="m 345.92602,229.95811 2.88874,-3.06928"
     id="path15074"
     inkscape:connector-curvature="0" />
  <path
     style="fill:none;stroke:#000000;stroke-width:0.5;stroke-linecap:round;stroke-linejoin:round;stroke-opacity:1;stroke-miterlimit:4;stroke-dasharray:none"
     d="m 347.0093,231.76357 5.77747,-5.83766"
     id="path15076"
     inkscape:connector-curvature="0" />
  <path
     style="fill:none;stroke:#000000;stroke-width:0.5;stroke-linecap:round;stroke-linejoin:round;stroke-opacity:1;stroke-miterlimit:4;stroke-dasharray:none"
     d="m 348.03239,234.05048 2.10637,-2.04619"
     id="path15078"
     inkscape:connector-curvature="0" />
  <path
     style="fill:none;stroke:#000000;stroke-width:0.5;stroke-linecap:round;stroke-linejoin:round;stroke-opacity:1;stroke-miterlimit:4;stroke-dasharray:none"
     d="m 327.02888,195.71456 11.13367,-10.71239"
     id="path15080"
     inkscape:connector-curvature="0" />
  <path
     style="fill:none;stroke:#000000;stroke-width:0.5;stroke-linecap:round;stroke-linejoin:round;stroke-miterlimit:4;stroke-dasharray:none;stroke-opacity:1"
     d="m 327.93149,198.54361 11.4347,-11.6758"
     id="path15082"
     inkscape:connector-curvature="0"
     sodipodi:nodetypes="cc" />
  <path
     style="fill:none;stroke:#000000;stroke-width:0.5;stroke-linecap:round;stroke-linejoin:round;stroke-opacity:1;stroke-miterlimit:4;stroke-dasharray:none"
     d="m 332.14435,196.43674 4.15256,-3.6711"
     id="path15084"
     inkscape:connector-curvature="0" />
  <path
     style="fill:none;stroke:#000000;stroke-width:0.5;stroke-linecap:round;stroke-linejoin:round;stroke-opacity:1;stroke-miterlimit:4;stroke-dasharray:none"
     d="m 333.22763,198.96439 3.91183,-3.6711"
     id="path15086"
     inkscape:connector-curvature="0" />
  <path
     style="fill:none;stroke:#000000;stroke-width:0.5;stroke-linecap:round;stroke-linejoin:round;stroke-miterlimit:4;stroke-dasharray:none;stroke-opacity:1"
     d="m 112.89257,16.006749 c -0.64362,5.070286 -2.62647,10.241492 -4.3196,15.691245 m -2.33627,9.620555 c -0.39334,2.370338 -0.3347,5.080123 -0.32759,7.538031 0.006,2.177409 -0.13837,4.023771 -0.93759,4.993208 -1.25776,1.525627 -2.13866,2.627704 -2.32843,5.841819 -0.51504,8.7233 -9.430234,19.709776 -14.463133,28.481596 -2.130552,3.713331 -4.163275,7.293074 -4.255143,12.588567 -0.06239,3.59633 1.152956,2.45735 1.138823,4.5148 -0.01329,1.93438 -0.618764,3.34278 -0.558716,5.266 0.109482,3.5065 0.667135,6.04433 0.606808,8.81558 -0.06507,2.98911 4.849676,5.23769 4.679809,11.19199 -0.05788,2.02872 2.343132,3.53471 2.306548,6.07992 -0.08073,5.61661 2.289707,5.52409 2.286543,8.24669 -0.0046,3.95697 -0.24754,7.90604 -0.349902,11.62246 -0.08993,3.26492 2.294093,5.71034 2.33636,8.15094 0.03852,2.22404 0.102036,3.55463 0.192183,5.77017 0.236459,5.81151 2.277998,6.71029 4.16949,10.7639 1.65821,3.55365 2.84699,8.2114 5.42311,11.244 3.10791,3.65861 6.81215,7.48178 10.02244,10.83428 1.58311,1.65324 2.78125,4.13035 3.89072,5.4044 1.69,1.94068 2.56989,2.71447 2.61775,4.31421 0.0496,1.65776 -3.07181,2.75828 -3.04452,4.92371 0.0581,4.60919 -4.79575,3.8519 -4.87193,6.2339 -0.0288,0.89962 -0.96194,1.42951 -0.93387,2.34414 0.0342,1.11442 0.74876,1.85064 0.67803,2.95013 -0.43292,6.72922 -7.60667,18.92623 -7.81949,23.82446 -0.14907,3.43121 -0.6404,7.7039 -0.52139,10.789 0.14781,3.8317 -0.4786,5.6935 -1.12632,8.86032 -1.65757,8.10414 -5.204847,15.66357 -9.011758,19.18875 -2.165171,2.00493 -4.334689,5.01022 -6.243669,7.36017 -0.858985,1.0574 -0.55755,2.559 -1.382061,3.62842 -0.97385,1.26312 -2.334029,2.38543 -3.379326,3.62852 m -7.190251,8.51756 c -1.206196,1.63145 -2.698912,2.94459 -3.660338,4.42635"
     id="path14359-1-7-5-3-0-73-1-9-8-5-2"
     inkscape:connector-curvature="0"
     sodipodi:nodetypes="cccsssssssssssssssssssssssssssssccc" />
  <path
     style="fill:none;stroke:#000000;stroke-width:0.5;stroke-linecap:round;stroke-linejoin:round;stroke-miterlimit:4;stroke-dasharray:none;stroke-opacity:1"
     d="m 274.22562,6.1452912 c -0.23517,2.6252049 -2.61836,4.9635338 -2.53698,9.4598938 0.0967,5.341477 3.3225,7.539243 1.88236,13.286113 m 3.4093,9.3605 c 0.20144,0.550829 0.36227,1.114195 0.46133,1.692852 0.15516,0.90634 1.04333,1.395264 1.01921,2.317923 -0.0428,1.637176 -1.33746,2.027523 -1.38655,3.041931 -0.0617,1.275197 0.31477,2.727276 0.23977,3.996885 -0.11713,1.98249 3.65173,3.325759 3.5479,5.626959 -0.0402,0.890162 0.0492,2.126801 -0.0351,2.998263 -0.14832,1.533637 0.0945,2.47231 1.10362,3.607388 6.89991,7.761173 14.75117,18.064443 20.66235,25.210886 0.80203,0.969635 1.17074,2.141528 1.92854,2.795619 0.97403,0.840729 2.24207,1.116671 2.20898,2.083374 -0.11452,3.345525 1.23479,3.121433 3.16877,3.58578 2.59823,0.623834 7.3086,5.135332 10.60136,7.488972 3.90886,2.79402 6.40164,3.38386 9.00078,4.86555 1.27465,0.72663 2.4883,1.16195 2.99176,2.32045 1.18134,2.71832 5.20276,5.27568 5.61558,8.20843 1.05314,7.48178 5.70975,13.4115 6.20908,21.36797 0.20037,3.19275 -2.42726,6.06151 -2.38356,8.95898 0.0334,2.21554 1.19006,3.20034 1.12797,6.79126 -0.0753,4.35409 -2.84359,9.60121 -8.69366,9.9139 -2.30481,0.12319 -4.11264,0.74452 -5.08074,2.52708 -2.22979,4.10569 -3.96557,6.26687 -3.85371,8.42483 0.14827,2.86045 -0.0394,5.80119 -0.0331,8.64292 0.009,4.02211 0.79219,4.66128 2.7703,5.86778 0.66431,0.40518 1.63345,1.0635 2.53754,0.89284 0.99668,-0.18814 1.93349,-1.2302 2.73205,-1.23855 1.97235,-0.0206 3.30321,0.45253 4.34659,-0.87468"
     id="path14359-1-7-5-3-0-73-1-9-8-5-0"
     inkscape:connector-curvature="0"
     sodipodi:nodetypes="csccsssssssssssssssssssssssssc" />
  <path
     style="fill:none;stroke:#000000;stroke-width:0.5;stroke-linecap:round;stroke-linejoin:round;stroke-miterlimit:4;stroke-dasharray:none;stroke-opacity:1"
     d="m 329.28281,197.8737 c -1.45269,-0.51493 -2.64083,-2.12614 -2.60028,-3.93537 0.0945,-4.21539 -5.82485,-1.3055 -7.27563,-8.06771"
     id="path14359-1-7-5-3-0-73-1-9-8-5-748"
     inkscape:connector-curvature="0"
     sodipodi:nodetypes="csc" />
  <path
     style="fill:none;stroke:#000000;stroke-width:0.5;stroke-linecap:round;stroke-linejoin:round;stroke-miterlimit:4;stroke-dasharray:none;stroke-opacity:1"
     d="m 363.87201,197.06069 c 0.0656,-0.96607 -0.28942,-2.96762 -0.41466,-4.82884 -0.0952,-1.41531 -1.50187,-3.34876 -2.72571,-4.11593 -0.86284,-0.54087 -2.25525,-1.06298 -3.76368,-1.46156 -1.13904,-0.30098 -2.56724,-0.37224 -2.62204,-1.22904 -0.0954,-1.49177 1.31245,-1.60692 1.29575,-2.48244 -0.0199,-1.04352 -1.1082,-1.58043 -1.9057,-1.56001 -1.42706,0.0365 -2.67195,2.07317 -2.80524,3.41872 -0.0978,0.98723 -0.10427,2.23282 -0.0847,3.35435 0.0311,1.78653 -0.58723,2.86812 -2.43636,2.86009 -3.79477,-0.0165 -4.0591,-3.9803 -8.07282,-4.15229 -1.68499,-0.0722 -2.2557,2.47371 -2.26362,3.85227 -0.0108,1.88891 0.78328,5.16487 -1.36474,6.22343 -1.51923,0.74868 -2.08239,1.64786 -3.2336,1.5698 -1.3702,-0.0929 -2.33196,-1.30465 -2.83246,-1.25832 -2.2098,0.20456 -2.43897,4.17086 -3.90364,5.29521 -0.91031,0.6988 -1.92634,0.7722 -2.75392,1.17435 -1.48314,0.72071 -2.68891,1.5137 -3.92718,1.86199 -2.37023,0.66668 -9.54584,6.91283 -14.38076,10.74761 -2.25056,1.78501 -3.9155,2.78345 -6.73053,3.33578 -3.55469,0.69746 -7.06569,1.37569 -10.49699,2.05871 -4.06128,0.80842 -11.43115,5.75233 -17.6524,10.62219 -3.60523,2.82209 -5.60178,6.94936 -8.45056,9.55497 -2.51013,2.29587 -4.89794,9.89449 -6.44769,11.65165 -3.46498,3.92872 -5.45864,8.80938 -7.11294,10.97043 -2.53503,3.31157 -5.92406,5.94243 -8.10469,8.84476 -2.21325,2.94574 -5.62852,6.28064 -8.53384,9.95401 -2.68972,3.40077 -5.59933,7.5232 -7.80357,11.1475 m -7.07746,9.29313 c -1.94025,2.83543 -2.61824,5.22662 -5.3286,7.42155 -3.0887,2.50133 -5.98377,5.01562 -9.04531,7.54411"
     id="path14359-1-7-5-3-0-73-1-9-8-5-58"
     inkscape:connector-curvature="0"
     sodipodi:nodetypes="cssssssssssssssssssssssssssccsc" />
  <path
     style="fill:none;stroke:#000000;stroke-width:0.5;stroke-linecap:round;stroke-linejoin:round;stroke-miterlimit:4;stroke-dasharray:none;stroke-opacity:1"
     d="m 7.2739682,175.87236 c 1.3681963,-2.14556 6.8677438,-1.21744 10.4637728,-1.32921 m 9.842304,-2.66707 c 1.567586,-0.34417 3.074834,-1.01615 4.629383,-0.96164 7.408674,0.25981 13.883232,6.16761 15.999738,6.51608 4.978202,0.81963 14.391018,7.91789 20.695192,7.9864 4.075058,0.0443 6.444495,-4.28279 11.286786,-4.01275 2.148798,0.11983 3.529301,-0.84214 5.051735,-0.85726 2.353976,-0.0234 2.856394,-1.22453 4.099776,-1.26506 1.658741,-0.0541 2.950277,0.20062 4.547714,0.18954 2.10418,-0.0146 3.36826,6.04323 6.375641,5.86221 1.74046,-0.10476 2.6394,1.0015 3.71768,1.07192 1.48381,0.0969 2.37259,-0.0528 3.85168,-0.0387 3.13675,0.0299 4.67776,-3.90913 15.19304,-4.48104 3.58544,-0.195 12.76821,2.90038 16.04978,5.53491 2.69054,2.16004 3.38782,8.01731 6.08184,8.41387 6.64055,0.97749 11.16601,15.60156 18.75741,15.17792 3.4309,-0.19146 1.69462,-1.33293 7.59367,-1.39374 3.81009,-0.0393 7.16627,4.65023 12.02405,4.63985 4.591,-0.01 8.42584,6.93622 12.2741,7.08879 3.92188,0.15549 6.53782,3.41274 9.79479,3.41652 0.83784,9.7e-4 1.77341,-0.91887 2.74322,-1.977 1.42752,-1.55753 2.92923,-3.62241 4.30258,-5.19077 0.65241,-0.74504 1.54222,-2.15082 2.72879,-2.14034 2.07514,0.0183 4.15031,0.0118 6.22552,-0.0208 9.30235,-0.14603 11.24327,5.76331 18.16713,5.71343 4.31538,-0.0311 8.62951,-5.06485 13.83217,-5.19368 4.6098,-0.11416 9.98917,8.0943 12.45953,8.0451 1.46589,-0.0292 0.88748,-0.99368 2.36772,-1.15282 2.88494,-0.31015 4.85657,-2.15795 7.32594,-3.90408 2.50118,-1.76862 4.7287,-2.56544 6.27689,-2.70058 2.89332,-0.25257 3.69794,-1.57339 5.6273,-1.5218 5.73321,0.15328 14.12065,-7.38378 20.4149,-7.74145 3.25097,-0.18473 7.0237,3.16024 12.08409,3.14136 2.28333,-0.009 3.54875,3.60539 6.90901,3.50859 3.81467,-0.10989 3.83322,2.29102 9.97166,2.30885 2.38772,0.007 2.62116,1.41431 3.9195,1.51065 1.65985,0.12317 5.77432,6.46916 9.65347,7.35947 1.84055,0.42243 5.30326,4.90667 6.7681,5.07647 1.89051,0.21914 1.3115,1.6643 4.47053,1.57633 3.81176,-0.10615 5.36484,-1.15873 7.51814,-2.1218 m 10.98646,0.0438 c 1.3189,0.81229 3.62522,2.6715 5.46306,2.82543 1.66752,0.13967 2.01326,0.72506 2.03765,1.67394"
     id="path14359-1-7-5-3-0-73-1-9-8-5-3"
     inkscape:connector-curvature="0"
     sodipodi:nodetypes="cccsssssssssssssssssssssssssssssssssssssccsc" />
  <path
     style="fill:none;stroke:#000000;stroke-width:0.5;stroke-linecap:round;stroke-linejoin:round;stroke-miterlimit:4;stroke-dasharray:none;stroke-opacity:1"
     d="m 6.0505224,102.99562 c 7.5831096,6.69793 15.0018716,13.23151 22.1376016,19.48206 2.606919,2.28353 5.030262,4.6975 7.862076,5.02648 3.939753,0.4577 5.412903,1.41686 8.59207,1.37504 l 7.283496,-0.0958 c 2.385548,-0.0314 4.680812,0.55131 6.578399,1.9151 l 14.583994,10.48144 m 9.65093,6.73767 18.872581,13.62298 c 3.71712,2.06063 7.4038,5.23552 10.61112,7.97457 2.97891,2.54399 5.4635,4.64276 9.21284,6.87042 3.08004,1.82999 6.4181,3.10947 9.88404,3.69917 2.97172,0.50562 7.61001,2.64575 12.38997,6.57888 6.71322,5.52388 10.36796,10.78452 14.18901,15.31056 3.96746,4.69945 7.7396,6.10853 11.75785,7.87444 3.10573,1.36488 3.76868,3.56127 7.38807,4.57455 1.22956,0.34423 2.79891,0.0967 4.095,0.1297 1.62014,0.0412 4.21058,3.60011 7.24946,6.0836 2.54321,2.07842 4.28906,4.43236 6.2106,4.32009 1.52127,-0.0889 2.89013,-0.0839 4.44384,-0.0744 3.26679,0.0199 3.26653,3.5196 4.53692,3.52244 3.1059,0.007 6.76782,0.0242 9.89987,-0.14728 3.12295,-0.17097 8.61093,2.80697 13.10558,5.14279 m 9.99586,6.02666 c 4.39481,2.47403 6.53791,6.19055 8.37514,6.3979 1.36785,0.15438 2.35958,-0.89154 4.25773,-1.91009 1.56114,-0.83772 2.35623,-2.68781 3.6559,-2.75467 2.07687,-0.10684 2.52891,5.28972 5.57758,7.32494"
     id="path14359-1-7-5-3-0-73-1-9-8-5-06"
     inkscape:connector-curvature="0"
     sodipodi:nodetypes="cssssscccsssssssssssssccsssc" />
  <path
     style="fill:none;stroke:#000000;stroke-width:1;stroke-linecap:round;stroke-linejoin:round;stroke-miterlimit:4;stroke-dasharray:none;stroke-opacity:1"
     d="m 319.4069,185.87062 c -0.18296,-0.96176 -0.78782,-2.10879 -0.80189,-3.00727 -0.0641,-4.09015 4.3912,-5.99986 4.30315,-10.65127 -0.0472,-2.49194 -2.45366,-3.19836 -2.43585,-5.41654 0.007,-0.8518 0.48636,-1.47873 1.61084,-1.52918 1.12186,-0.0503 2.65023,-0.0522 3.85019,0.007 0.69091,0.0338 1.66774,0.16235 1.70993,-1.17918 0.0512,-1.62652 -2.68157,-2.86881 -4.21292,-5.61504 -1.50551,-2.69988 -2.96555,-5.66633 -2.92654,-8.6362 0.0157,-1.19494 -0.53682,-2.87898 -1.69997,-3.04145 -1.20209,-0.1679 -1.62506,-1.12707 -1.64446,-1.90718 -0.0262,-1.05308 1.26129,-1.97431 1.24532,-3.00244 -0.0189,-1.21751 -1.83932,-1.92474 -1.87063,-3.37541 -0.0306,-1.41623 -1.15678,-3.00288 -2.51818,-4.11422 -3.54631,-2.89491 -7.03222,-2.59205 -10.42021,-4.15298 -3.70821,-1.70846 -6.56921,-5.13984 -10.29945,-7.12368 -2.66455,-1.41708 -5.55283,-2.21432 -8.09957,-2.0718 -2.28414,0.12782 -2.19842,-2.89964 -4.45913,-2.91483 -1.28097,-0.009 -2.71513,-0.1983 -2.69886,-1.42276 0.0215,-1.61501 1.1038,-2.55374 2.94021,-2.87085 1.71402,-0.29598 3.23559,-2.76586 4.99306,-3.55555 1.94138,-0.87231 3.41722,-1.58895 3.37076,-2.98723 -0.0602,-1.81263 -2.18634,-0.70953 -2.22989,-2.44914 -0.0333,-1.33073 2.05071,-2.32531 3.38737,-3.1673 0.94936,-0.59803 0.55922,-1.812028 2.04737,-2.222826 1.15337,-0.318384 1.5634,0.654916 2.30775,0.582896 0.95421,-0.09232 0.67328,-2.520232 0.71399,-3.468214 0.066,-1.535805 0.84765,-2.636423 2.06851,-2.653874 1.77028,-0.0253 1.37837,1.753766 2.57349,1.761493 1.64087,0.01061 2.59137,-0.686997 2.58356,-2.107976 -0.0178,-3.239745 -1.79416,-1.193818 -2.47383,-3.948802 -0.18963,-0.76863 -1.12402,-0.972144 -1.19729,-2.068903 -0.071,-1.063284 -1.11736,-1.058186 -1.10456,-2.157136 0.008,-0.717194 0.0153,-2.358171 0.85026,-2.285087 0.99885,0.08743 0.76538,-1.116548 1.28026,-1.392791 1.45567,-0.780998 3.10747,1.14211 4.42494,0.145517 0.50431,-0.381479 0.79655,-1.805984 1.52977,-2.183925 0.8847,-0.456022 1.15586,-1.22519 1.17377,-2.200941 0.017,-0.926815 -0.2105,-2.323243 -1.13625,-2.370815 -1.34181,-0.06895 -1.31014,-2.561592 -1.2585,-3.743025 0.0582,-1.332082 -1.79742,-2.163087 -0.95005,-3.188464 0.48955,-0.592383 3.21196,-0.576046 3.25427,0.381566 0.0381,0.862251 1.91048,0.222343 3.34182,0.826128 1.68628,0.711327 2.82698,-0.600836 3.83223,-1.806086 1.15559,-1.3855 1.81285,-0.782337 2.71927,-0.893202 1.11067,-0.135846 2.12871,-0.21194 2.96647,-0.983037 1.3309,-1.224991 2.50309,-1.97005 3.61991,-2.813782 1.53956,-1.163107 2.0494,-0.506632 3.98189,-2.28929 0.66365,-0.612199 1.38924,-1.825639 2.24459,-2.114776 1.18191,-0.399524 1.48003,0.353656 2.22143,0.271208 0.97524,-0.108452 1.02458,-0.863193 1.63907,-0.84537 1.20068,0.03483 0.8684,0.885127 2.12141,0.972311 1.41031,0.09813 1.07431,-1.145161 2.43294,-1.052578 1.04699,0.07135 1.06238,1.085414 1.7418,1.061103 1.12631,-0.0403 0.7221,-2.144201 2.99026,-2.104659 1.10808,0.01932 1.08658,0.791597 1.71886,0.802951 1.55631,0.02795 1.55999,-0.974158 2.429,-0.949707 1.26434,0.03558 0.95944,1.195894 2.80598,1.215921 2.03288,0.02205 1.5534,-0.852105 2.64489,-0.883418 0.94898,-0.02722 1.20144,0.646249 1.88627,0.664327 1.95961,0.05173 1.54095,1.276783 2.79025,1.149376 0.8997,-0.09175 1.03477,-1.47796 3.06981,-1.914493 2.26844,-0.486602 2.70857,-2.693847 6.03572,-3.770497"
     id="path14359-1-7-5-3-0-73-1-9-8-5-22"
     inkscape:connector-curvature="0"
     sodipodi:nodetypes="csssssssssssssssssssssssssssssssssssssssssssssssssssssssssssssc" />
  <path
     style="fill:none;stroke:#000000;stroke-width:1;stroke-linecap:round;stroke-linejoin:round;stroke-miterlimit:4;stroke-dasharray:none;stroke-opacity:1"
     d="m 283.73837,112.24718 c -1.05092,-1.38336 -3.12345,-2.97792 -6.63172,-2.98754 -1.18135,-0.003 -3.10087,0.10044 -3.98769,-0.55495 -1.07887,-0.79732 -1.20265,-2.38943 -2.53345,-2.50069 -0.67106,-0.0561 -0.95101,0.95786 -2.2072,0.92279 -1.07767,-0.0301 -2.68828,-0.93259 -2.66027,-2.28986 0.0445,-2.15842 1.0811,-2.20869 1.09768,-3.50328 0.0189,-1.472533 -0.67992,-2.345519 -1.94285,-2.327055 -1.75578,0.02567 -2.15464,1.049875 -2.98723,2.361965 -0.4796,0.7558 -1.60989,2.03877 -2.97042,2.19884 -0.80801,0.0951 -1.84704,-0.0788 -2.61657,-0.0682 -1.95766,0.0269 -4.05577,0.56897 -4.5016,2.09921 -0.55605,1.90853 -1.10182,1.8402 -2.40173,1.92509 -1.8792,0.12273 -3.40994,3.61482 -5.36321,5.23662 -1.80632,1.49978 -4.7285,1.92827 -6.29469,1.95516 -1.22902,0.0211 -4.23379,0.0235 -4.47174,-1.95289 -0.16785,-1.39407 -1.03792,-1.75791 -2.16815,-1.75886 -0.92418,-7.7e-4 -1.64903,-0.96327 -2.43136,-1.03266 -1.18304,-0.10494 -1.47576,0.6683 -1.4891,1.50669 -0.0496,3.11729 -0.81949,5.41169 -3.08645,6.53537 -0.38453,0.1906 -0.96297,0.0388 -1.43307,0.26174 -0.58503,0.27743 -1.0774,0.93481 -1.69629,1.21638 -0.98586,0.44853 -2.15646,0.67041 -2.99391,1.08753 -1.30249,0.64875 -2.06776,1.4461 -2.05749,1.80521 0.0631,2.20767 -0.0431,4.3406 -0.77402,5.42751 -1.19282,1.7737 -1.62623,3.68444 -3.01784,3.51512 -1.29558,-0.15764 -2.62916,-0.18783 -3.75058,0.36049 -1.33919,0.6548 -2.21844,2.02932 -2.23526,3.6291 -0.0172,1.63419 1.10262,2.7485 1.0499,4.12991 -0.10889,2.85343 -2.10528,3.79622 -4.19347,4.65282 -1.60973,0.66034 -4.77255,2.36441 -4.79867,4.29917 -0.018,1.33368 0.79492,1.33833 0.78527,2.00102 -0.01,0.67495 -0.8423,0.77455 -0.77123,1.96516 0.0791,1.32448 3.78808,3.15979 3.71117,4.46602 -0.0541,0.91908 0.036,2.19165 -0.8065,2.24287 -1.29212,0.0786 -1.1122,-1.08148 -1.96423,-1.10597 -0.5756,-0.0165 -2.85383,-0.30379 -3.80887,0.41421 -1.91912,1.44279 -4.07816,3.16335 -4.11999,3.82913 -0.0691,1.0999 -1.04781,1.48046 -1.91303,1.84542 -1.38406,0.58382 -2.11714,2.10057 -2.11455,3.0939 0.008,3.21767 1.80716,3.28855 1.73998,5.90942 -0.0628,2.44973 -1.1505,3.57305 -1.17347,5.2482 -0.0368,2.68348 2.38602,3.63782 1.38242,4.80704 -0.65807,0.76666 -1.52631,0.37418 -2.45039,-0.36102 -0.61894,-0.49242 -1.54956,-0.7214 -2.3618,-0.71353 -0.65407,0.006 -0.91153,0.26093 -0.83667,1.27305 0.14601,1.97432 0.38301,4.19031 -0.15636,5.12941 -0.55934,0.97388 -2.55162,2.54682 -3.93168,4.37696 -0.9237,1.22496 -1.29251,1.87813 -2.65983,1.83349 -0.73204,-0.0239 -1.59144,0.53095 -1.523,1.69083 0.11968,2.0283 -0.44826,2.21162 -1.03338,2.22071 -2.8785,0.0447 -3.88436,-2.93525 -5.98861,-2.82207 -1.3521,0.0727 -0.98519,1.29985 -1.72781,1.26402 -0.77545,-0.0374 -1.38407,0.0733 -2.1894,-0.0308 -0.77035,-0.0996 -1.05169,-1.00494 -2.34888,-1.0252 -0.94208,-0.0147 -2.67462,0.51531 -2.68502,1.73052 -0.0108,1.25995 0.0231,2.90183 -0.52434,2.98024 -0.65497,0.0938 -0.88253,0.7953 -0.83353,1.68493 0.0752,1.36555 1.16051,1.3042 1.21398,2.23847 0.10238,1.78854 -2.55625,1.1947 -2.5735,2.73913 -0.0118,1.05361 1.16273,0.65886 1.20735,1.58441 0.0885,1.83491 -2.40954,0.65993 -2.38092,3.10722 0.0261,2.22971 3.10683,0.35969 3.06116,1.83569 -0.0319,1.03158 -1.94814,1.65916 -2.31024,1.68052 -2.34177,0.13812 -2.80407,-0.73189 -4.60754,-0.66501 -2.09334,0.0776 -3.3354,2.04938 -4.4656,2.04847 -2.00011,-0.002 -3.03425,0.80756 -3.15145,1.97024 -0.19895,1.97362 3.07908,0.61595 3.01707,2.1113 -0.0396,0.95427 -0.86185,0.71841 -2.08176,0.49371 -1.16092,-0.21384 -2.52245,-0.12628 -3.84312,-0.15065 -1.51374,-0.0279 -2.36139,1.05221 -2.38284,1.72838 -0.0319,1.00478 1.05001,2.07607 1.12766,3.45339 0.12402,2.19994 -2.90406,0.50246 -3.96777,1.987 -1.74967,2.44187 -4.41417,0.64522 -4.39348,1.90095 0.0414,2.51293 1.70841,1.98294 1.76068,3.4536 0.0702,1.97553 0.13838,3.99887 0.13712,6.1059 -8.4e-4,1.42449 -1.51059,0.19553 -2.38102,1.8479 -0.60579,1.14999 -0.93817,2.64949 -1.98439,2.65617 -2.28266,0.0146 -1.95483,-0.91738 -3.61533,-0.89476 -1.80566,0.0246 -2.40937,1.5313 -2.35549,2.92241 0.0295,0.76163 0.16295,1.54472 -0.62823,2.30405 -0.80513,0.77273 -1.44354,1.75462 -1.97749,1.54555 -0.4579,-0.17929 -1.40255,0.0662 -1.94719,-0.38149 -0.40914,-0.33632 -0.91161,-0.43977 -0.90692,0.17839 0.0227,2.98902 -1.18656,2.49117 -1.28196,3.82896 -0.0815,1.14326 -1.8912,1.45955 -2.10648,3.45628 -0.2896,2.68596 -2.58441,4.10987 -2.57613,5.75712 0.003,0.52448 0.48938,0.9713 0.61408,1.58558 0.2812,1.38522 1.36837,1.25609 1.34794,1.95972 -0.0323,1.11411 -1.99143,0.27514 -2.91438,0.82255 -1.62257,0.96237 -1.20014,2.81843 -2.32152,2.81347 -1.27967,-0.006 -1.46531,-1.93498 -1.97486,-1.6016 -1.12888,0.73859 -0.44091,4.08537 -1.68809,4.24135"
     id="path14359-1-7-5-3-0-73-1-9-8-5-52"
     inkscape:connector-curvature="0"
     sodipodi:nodetypes="csssssssssssssssssssssssssssssssssssssssssssssssssssssssssssssssssssssssssssssssssssssssssssc" />
  <path
     style="fill:none;stroke:#000000;stroke-width:1;stroke-linecap:round;stroke-linejoin:round;stroke-miterlimit:4;stroke-dasharray:none;stroke-opacity:1"
     d="m 227.17707,111.47756 c -0.14377,-1.34509 -1.20983,-0.83631 -1.74649,-0.83739 -3.54597,-0.007 -2.18766,-0.9377 -4.423,-0.85031 -1.06981,0.0418 -2.57797,1.78663 -3.64506,1.71614 -0.93037,-0.0615 -0.0252,-4.45928 -0.95123,-4.48561 -0.56021,-0.0159 -1.12015,-0.0403 -1.67932,-0.0266 -2.90239,0.0713 -1.52128,-3.36826 -3.73224,-3.45308 -2.2956,-0.0881 -1.15097,1.74559 -4.66648,1.83033 -1.63052,0.0393 -0.58622,-3.78162 -2.97833,-3.97828 -0.91921,-0.0756 -1.15044,0.49184 -2.06871,0.47865 -1.37426,-0.0197 -2.32897,-0.0546 -2.82402,1.28435 -0.59175,1.60055 -0.80502,2.52151 -1.7077,3.47755 -0.77601,0.82189 -1.79919,1.46381 -2.77013,1.54757 -0.66073,0.057 -1.27641,-1.70566 -2.08122,-1.71293 -0.68952,-0.006 -0.75154,0.95446 -2.37851,0.97807 -1.32678,0.0192 -1.77292,-0.83959 -2.61338,-0.8281 -1.10965,0.0152 -0.76342,2.08842 -3.81658,1.98245 -2.24094,-0.0778 -2.06533,-1.48002 -3.42056,-1.3812 -1.95957,0.14289 -2.03666,2.47354 -4.41608,2.31907 -3.04012,-0.19737 -1.12518,3.43274 -4.67682,3.16626 -0.76739,-0.0576 -1.37983,-0.67138 -2.13405,-0.70393 -0.9826,-0.0424 -1.99553,2.13247 -2.88562,2.11863 -2.13126,-0.0332 -3.16036,0.0377 -3.68224,2.01789 -0.35908,1.36249 -0.61925,2.99469 -2.07246,3.96079 -0.91634,0.60918 -1.83121,0.8035 -2.86474,1.06678 -0.57577,0.14667 -1.137,0.55275 -1.87971,0.50326 -3.03685,-0.20238 -2.72564,-2.98852 -4.92783,-2.9528 -0.78602,0.0128 -1.82653,0.7046 -2.65067,0.6795 -1.62684,-0.0496 -1.94004,-1.67872 -3.17844,-1.52595 -1.76278,0.21744 -2.81767,1.73605 -5.73574,2.21311 -2.30688,0.37715 -4.13475,1.02893 -5.92793,1.96921 -1.66335,0.8722 -2.45937,2.63149 -4.11936,2.80192 -3.12344,0.32067 -4.93565,-2.61076 -7.86281,-1.03284 -0.79214,0.42701 -1.08958,1.71829 -1.09582,3.20323 -0.002,0.5068 -0.7169,1.07754 -0.74386,1.56644 -0.0559,1.01306 1.71308,1.59891 2.08218,3.22538 0.45975,2.02596 -1.16054,1.60054 -0.96419,2.95233 0.24545,1.68973 2.16673,2.35783 0.96931,3.35155 -0.79371,0.65868 -2.36434,2.9125 -3.49629,2.92001 -0.65363,0.004 -0.63503,-0.86848 -2.77241,-0.68996 -2.04951,0.17118 -3.64756,-3.7021 -5.71019,-2.47742 -1.26054,0.74845 0.161,1.70891 0.69177,2.69762 0.51921,0.96716 -0.87463,1.11526 -1.14559,1.68779 -0.82377,1.7406 0.67559,2.81391 -1.16312,4.20309 -2.03164,1.53496 -3.97649,0.0651 -6.36284,1.45727 -2.146479,1.25222 0.11193,3.59194 -2.020622,4.95723 -2.726801,1.74573 -1.549501,3.98508 -2.649213,4.70923"
     id="path14359-1-7-5-3-0-73-1-9-8-5-27"
     inkscape:connector-curvature="0"
     sodipodi:nodetypes="csssssssssssssssssssssssssssssssssssssssssssssc" />
  <path
     style="fill:none;stroke:#000000;stroke-width:1;stroke-linecap:round;stroke-linejoin:round;stroke-miterlimit:4;stroke-dasharray:none;stroke-opacity:1"
     d="m 28.188124,122.47768 c 1.490869,-0.61776 4.294192,-2.19688 6.334125,-3.93379 1.258899,-1.07189 2.069645,-2.02448 2.28928,-3.73804 0.186404,-1.45429 2.273001,-1.59477 3.33071,-3.63998 0.444933,-0.86034 0.02511,-1.945 0.129155,-2.77848 0.102247,-0.81905 1.25289,-0.74756 1.724396,-1.33093 0.441893,-0.54672 0.667052,-1.46041 1.141483,-1.92098 0.540228,-0.52444 0.981895,-1.82474 1.919861,-1.89885 0.729064,-0.0576 1.450833,0.86056 2.213174,0.90343 1.162022,0.0653 0.657026,1.83561 1.65971,2.00557 1.029711,0.17455 2.554837,0.0231 3.473871,0.0671 1.695856,0.0813 1.480099,-1.93035 2.140772,-2.02191 1.501797,-0.20814 1.267598,-1.33802 1.292673,-2.14659 0.02009,-0.64769 -0.19332,-1.77697 0.516293,-1.85335 1.14008,-0.1227 1.451189,0.45141 3.217226,0.31712 1.013809,-0.0771 1.169116,-1.437601 1.380611,-2.306641 0.186995,-0.76837 0.906592,-1.09028 1.673339,-1.187841 0.909254,-0.115692 1.506081,-0.767104 1.722171,-1.70715 0.143234,-0.623108 0.218934,-1.586409 1.086436,-1.663669 1.747234,-0.155609 2.313619,-2.225057 4.070878,-2.450581 0.738207,-0.09474 0.614172,-2.462444 0.609866,-3.552685 -0.0042,-1.053726 0.71136,-2.021382 2.017058,-2.370351 0.775777,-0.207339 0.966689,-1.24702 1.098634,-1.699914 0.41002,-1.407376 -0.376926,-3.733105 0.777217,-4.789473 0.929545,-0.850797 2.902663,0.02247 3.157782,-1.92043 0.189601,-1.443944 1.355351,-2.50143 3.571897,-2.53282 1.475746,-0.0209 2.830301,-0.199396 3.342238,-2.671662 0.46505,-2.245832 2.995206,-3.804849 4.302663,-3.750648 2.286101,0.09477 2.817432,1.380262 4.241842,1.021719 1.240374,-0.312219 0.53676,-1.949021 2.741149,-3.431848 0.655982,-0.44126 0.464769,-1.839755 0.700592,-2.827543 0.279881,-1.17233 0.831085,-2.092054 1.067664,-2.865112 0.172592,-0.56397 1.228026,0.941627 1.805932,0.868257 1.555768,-0.197519 1.772008,-3.592649 2.786908,-3.508143 1.0035,0.08356 1.03925,1.631536 1.68412,2.386109 0.70528,0.825256 2.10958,0.887959 3.03887,1.519733 1.45641,0.990133 1.5406,-0.921666 2.24737,-0.79884 1.54103,0.267809 0.20167,2.998033 3.30847,4.302975 2.06338,0.866675 0.80076,3.117171 2.94088,3.262171 1.09872,0.07444 1.86757,-0.926752 1.93089,-2.904811 0.0509,-1.591412 2.77699,-2.980636 3.85503,-3.029201 1.83529,-0.08268 2.21367,2.292821 4.80881,2.153413 1.42258,-0.07642 1.88347,-1.867846 3.05041,-1.773441 0.84439,0.06831 1.68352,0.105441 2.51546,0.104975 0.75285,-4.23e-4 1.25847,0.639425 1.99697,0.638792 3.08018,-0.0026 3.58508,-3.993363 5.3759,-3.982355 0.79902,0.0049 1.50806,1.253791 2.41197,1.876708 1.08908,0.750522 2.31791,0.98598 2.44233,2.227373 0.25972,2.591394 3.14992,2.312749 3.2664,6.218118 0.0544,1.823632 3.17477,0.990959 4.23711,0.993384 1.86976,0.0043 0.86115,-1.61985 3.75471,-1.740635 2.36269,-0.09862 3.3386,-3.16499 4.84536,-3.028606 0.95752,0.08667 1.50372,1.375547 2.74027,2.363788 1.40641,1.123999 2.62846,2.884269 3.91773,3.308911 1.59512,0.525381 4.05559,-0.140881 5.37426,0.955414 1.2759,1.06074 1.80412,2.305397 3.10748,3.399888 1.82146,1.529551 3.98956,2.424808 5.88111,3.79208 1.75441,1.268144 1.28134,3.830229 2.20121,4.809782 0.97112,1.034136 1.87975,-0.620003 2.50644,0.390624 1.40679,2.26862 3.52724,4.590636 4.91078,4.637017 2.1354,0.07159 3.48075,-4.080879 5.05254,-4.652351 1.96799,-0.715518 3.79073,1.256379 6.1986,1.424569 2.31127,0.161441 1.53817,-1.11033 4.24599,-1.161332 1.48194,-0.02791 1.21827,1.606057 2.06256,1.714544 0.6146,0.07897 1.14913,-0.655428 1.76192,-0.620297 0.73094,0.0419 1.46052,0.05145 2.18852,0.02586 1.80466,-0.06344 2.02012,-1.914864 3.10162,-1.836613 0.68928,0.04987 1.13901,0.949267 1.82436,0.953528 1.77812,0.01105 1.72996,-3.02008 2.7072,-2.996246 0.63698,0.01554 1.27202,0.570242 1.90499,0.553971 1.1496,-0.02955 1.14108,-0.985745 3.40491,-1.131683 1.24738,-0.08041 0.10205,1.659434 1.57571,1.634438 0.74408,-0.01262 1.48236,0.09101 2.22001,0.113265 1.93489,0.05836 0.93169,1.576803 3.6448,1.3814 1.04081,-0.07496 1.80454,-1.123551 1.61408,-2.141617 -0.18212,-0.973489 0.35794,-1.713535 0.86845,-1.642158 1.30347,0.182241 2.10107,0.208798 2.13163,1.965601 0.018,1.031625 -0.11121,2.586463 0.75436,3.375553 0.44082,0.401879 0.9357,1.18015 1.85763,1.339039 1.04866,0.180731 0.95472,1.633696 2.93864,1.665935 2.32559,0.03779 2.2766,-0.874747 2.97699,-0.846406 1.35161,0.05469 1.05827,2.447771 2.91908,4.388181 2.04099,2.128313 3.53009,5.338488 5.49087,6.225168 0.67362,0.304621 0.92061,2.5271 1.6746,2.68595 0.67053,0.14127 1.61884,-0.36236 2.13819,0.17023 0.97574,1.00062 1.71864,2.07478 4.55132,-0.46483"
     id="path14359-1-7-5-3-0-73-1-9-8-5-15"
     inkscape:connector-curvature="0"
     sodipodi:nodetypes="cssssssssssssssssssssssssssssssssssssssssssssssssssssssssssssssssssssssssssssssssssssc" />
  <g
     id="g1062"
     sodipodi:insensitive="true">
    <text
       xml:space="preserve"
       style="font-style:normal;font-variant:normal;font-weight:normal;font-stretch:normal;font-size:8px;line-height:6.66666651px;font-family:Arial;-inkscape-font-specification:Arial;text-align:start;letter-spacing:0.72999996px;word-spacing:0px;text-anchor:start;fill:#000000;fill-opacity:1;stroke:none"
       x="19.680819"
       y="175.5034"
       id="text927"><tspan
         sodipodi:role="line"
         id="tspan925"
         x="19.680819"
         y="175.5034"
         style="font-size:6px">70</tspan></text>
    <g
       id="g999">
      <text
         xml:space="preserve"
         style="font-style:normal;font-variant:normal;font-weight:normal;font-stretch:normal;font-size:10.66666698px;line-height:6.66666651px;font-family:Arial;-inkscape-font-specification:Arial;text-align:start;letter-spacing:0.25px;word-spacing:0px;text-anchor:start;fill:#000000;fill-opacity:1;stroke:none"
         x="36.472916"
         y="201.67662"
         id="text15171"><tspan
           sodipodi:role="line"
           id="tspan15169"
           x="36.472916"
           y="201.67662">CROSSVILLE</tspan></text>
      <text
         xml:space="preserve"
         style="font-style:normal;font-variant:normal;font-weight:normal;font-stretch:normal;font-size:10.66666698px;line-height:6.66666651px;font-family:Arial;-inkscape-font-specification:Arial;text-align:start;letter-spacing:0.25px;word-spacing:0px;text-anchor:start;fill:#000000;fill-opacity:1;stroke:none"
         x="262.71866"
         y="252.13889"
         id="text15171-2"><tspan
           sodipodi:role="line"
           id="tspan15169-1"
           x="262.71866"
           y="252.13889">ROCKWOOD</tspan></text>
      <text
         xml:space="preserve"
         style="font-style:normal;font-variant:normal;font-weight:normal;font-stretch:normal;font-size:10.66666698px;line-height:6.66666651px;font-family:Arial;-inkscape-font-specification:Arial;text-align:start;letter-spacing:0.64999998px;word-spacing:0px;text-anchor:start;fill:#000000;fill-opacity:1;stroke:none"
         x="328.04736"
         y="207.03403"
         id="text15171-2-1"><tspan
           sodipodi:role="line"
           id="tspan15169-1-0"
           x="328.04736"
           y="207.03403">HARRIMAN</tspan></text>
      <text
         xml:space="preserve"
         style="font-style:italic;font-variant:normal;font-weight:normal;font-stretch:normal;font-size:8px;line-height:6.66666651px;font-family:Arial;-inkscape-font-specification:'Arial Italic';text-align:start;letter-spacing:4.11999893px;word-spacing:0px;text-anchor:start;fill:#050000;fill-opacity:1;stroke:none"
         x="134.74025"
         y="153.33337"
         id="text15211"
         transform="rotate(-12.184821)"><tspan
           sodipodi:role="line"
           id="tspan15209"
           x="134.74025"
           y="153.33337">RIVER</tspan></text>
      <text
         xml:space="preserve"
         style="font-style:italic;font-variant:normal;font-weight:normal;font-stretch:normal;font-size:8px;line-height:6.66666651px;font-family:Arial;-inkscape-font-specification:'Arial Italic';text-align:start;letter-spacing:4.11999893px;word-spacing:0px;text-anchor:start;fill:#050000;fill-opacity:1;stroke:none"
         x="289.63257"
         y="145.87082"
         id="text15211-1"
         transform="rotate(-13.515227)"><tspan
           sodipodi:role="line"
           id="tspan15209-8"
           x="289.63257"
           y="145.87082">RIVER</tspan></text>
      <text
         xml:space="preserve"
         style="font-style:italic;font-variant:normal;font-weight:normal;font-stretch:normal;font-size:8px;line-height:6.66666651px;font-family:Arial;-inkscape-font-specification:'Arial Italic';text-align:start;letter-spacing:3.43000007px;word-spacing:0px;text-anchor:start;fill:#050000;fill-opacity:1;stroke:none"
         x="-287.18137"
         y="237.68686"
         id="text15211-1-7"
         transform="rotate(-114.38333)"><tspan
           sodipodi:role="line"
           id="tspan15209-8-6"
           x="-287.18137"
           y="237.68686">EMORY</tspan></text>
      <text
         xml:space="preserve"
         style="font-style:normal;font-variant:normal;font-weight:normal;font-stretch:normal;font-size:8px;line-height:6.66666651px;font-family:Arial;-inkscape-font-specification:Arial;text-align:start;letter-spacing:3.4000001px;word-spacing:0px;text-anchor:start;fill:#000000;fill-opacity:1;stroke:none"
         x="183.63234"
         y="11.569514"
         id="text15251"><tspan
           sodipodi:role="line"
           id="tspan15249"
           x="183.63234"
           y="11.569514">TENNESSEE</tspan></text>
      <text
         xml:space="preserve"
         style="font-style:normal;font-variant:normal;font-weight:normal;font-stretch:normal;font-size:10.66666698px;line-height:6.66666651px;font-family:Arial;-inkscape-font-specification:Arial;text-align:start;letter-spacing:0.80000001px;word-spacing:0px;text-anchor:start;fill:#000000;fill-opacity:1;stroke:none"
         x="297.15869"
         y="232.59653"
         id="text15255"><tspan
           sodipodi:role="line"
           id="tspan15253"
           x="297.15869"
           y="232.59653">Kingston</tspan></text>
      <text
         xml:space="preserve"
         style="font-style:italic;font-variant:normal;font-weight:normal;font-stretch:normal;font-size:8px;line-height:6.66666651px;font-family:Arial;-inkscape-font-specification:'Arial Italic';text-align:start;letter-spacing:3.3900001px;word-spacing:0px;text-anchor:start;fill:#180000;fill-opacity:1;stroke:none"
         x="117.41721"
         y="68.914268"
         id="text15259"
         transform="rotate(3.2799371)"><tspan
           sodipodi:role="line"
           id="tspan15257"
           x="117.41721"
           y="68.914268">Creek</tspan></text>
      <text
         xml:space="preserve"
         style="font-style:italic;font-variant:normal;font-weight:normal;font-stretch:normal;font-size:8px;line-height:6.66666651px;font-family:Arial;-inkscape-font-specification:'Arial Italic';text-align:start;letter-spacing:3.3900001px;word-spacing:0px;text-anchor:start;fill:#180000;fill-opacity:1;stroke:none"
         x="-56.623798"
         y="243.24066"
         id="text15259-0"
         transform="rotate(-62.066085)"><tspan
           sodipodi:role="line"
           id="tspan15257-0"
           x="-56.623798"
           y="243.24066">Creek</tspan></text>
      <text
         xml:space="preserve"
         style="font-style:italic;font-variant:normal;font-weight:normal;font-stretch:normal;font-size:8px;line-height:6.66666651px;font-family:Arial;-inkscape-font-specification:'Arial Italic';text-align:start;letter-spacing:3.3900001px;word-spacing:0px;text-anchor:start;fill:#180000;fill-opacity:1;stroke:none"
         x="-47.22913"
         y="118.40877"
         id="text15259-9"
         transform="rotate(-48.063773)"><tspan
           sodipodi:role="line"
           id="tspan15257-5"
           x="-47.22913"
           y="118.40877">Clear</tspan></text>
      <text
         xml:space="preserve"
         style="font-style:italic;font-variant:normal;font-weight:normal;font-stretch:normal;font-size:8px;line-height:6.66666651px;font-family:Arial;-inkscape-font-specification:'Arial Italic';text-align:start;letter-spacing:3.76999998px;word-spacing:0px;text-anchor:start;fill:#180000;fill-opacity:1;stroke:none"
         x="-144.90547"
         y="237.14966"
         id="text15259-0-3"
         transform="rotate(-55.572212)"><tspan
           sodipodi:role="line"
           id="tspan15257-0-2"
           x="-144.90547"
           y="237.14966">Daddys</tspan></text>
      <text
         xml:space="preserve"
         style="font-style:normal;font-variant:normal;font-weight:normal;font-stretch:normal;font-size:8px;line-height:6.66666651px;font-family:Arial;-inkscape-font-specification:Arial;text-align:start;letter-spacing:0.72999996px;word-spacing:0px;text-anchor:start;fill:#000000;fill-opacity:1;stroke:none"
         x="111.44348"
         y="166.0508"
         id="text10829"><tspan
           sodipodi:role="line"
           id="tspan10827"
           x="111.44348"
           y="166.0508">Cumberland Co.</tspan></text>
      <text
         xml:space="preserve"
         style="font-style:normal;font-variant:normal;font-weight:normal;font-stretch:normal;font-size:8px;line-height:6.66666651px;font-family:Arial;-inkscape-font-specification:Arial;text-align:start;letter-spacing:0.72999996px;word-spacing:0px;text-anchor:start;fill:#000000;fill-opacity:1;stroke:none"
         x="5.2582684"
         y="80.502243"
         id="text10829-5"><tspan
           sodipodi:role="line"
           id="tspan10827-9"
           x="5.2582684"
           y="80.502243">Pulnam Co.</tspan></text>
      <text
         xml:space="preserve"
         style="font-style:normal;font-variant:normal;font-weight:normal;font-stretch:normal;font-size:8px;line-height:6.66666651px;font-family:Arial;-inkscape-font-specification:Arial;text-align:start;letter-spacing:0.72999996px;word-spacing:0px;text-anchor:start;fill:#000000;fill-opacity:1;stroke:none"
         x="244.03305"
         y="81.073502"
         id="text10829-9"><tspan
           sodipodi:role="line"
           id="tspan10827-0"
           x="244.03305"
           y="81.073502">Morgan Co.</tspan></text>
      <text
         xml:space="preserve"
         style="font-style:italic;font-variant:normal;font-weight:normal;font-stretch:normal;font-size:8px;line-height:6.66666651px;font-family:Arial;-inkscape-font-specification:'Arial Italic';text-align:start;letter-spacing:3.37999916px;word-spacing:0px;text-anchor:start;fill:#050000;fill-opacity:1;stroke:none"
         x="-4.3929653"
         y="189.51637"
         id="text15211-2"
         transform="rotate(-33.378188)"><tspan
           sodipodi:role="line"
           id="tspan15209-83"
           x="-4.3929653"
           y="189.51637">OBED</tspan></text>
      <text
         id="text898"
         y="20.091137"
         x="342.62738"
         style="font-style:normal;font-variant:normal;font-weight:normal;font-stretch:normal;font-size:8px;line-height:6.66666651px;font-family:Arial;-inkscape-font-specification:Arial;text-align:start;letter-spacing:0.72999996px;word-spacing:0px;text-anchor:start;fill:#000000;fill-opacity:1;stroke:none"
         xml:space="preserve"><tspan
           y="20.091137"
           x="342.62738"
           id="tspan896"
           sodipodi:role="line">Scott Co.</tspan></text>
      <text
         xml:space="preserve"
         style="font-style:normal;font-variant:normal;font-weight:normal;font-stretch:normal;font-size:8px;line-height:6.66666651px;font-family:Arial;-inkscape-font-specification:Arial;text-align:start;letter-spacing:0.72999996px;word-spacing:0px;text-anchor:start;fill:#000000;fill-opacity:1;stroke:none"
         x="92.814461"
         y="13.671041"
         id="text902"><tspan
           sodipodi:role="line"
           id="tspan900"
           x="92.814461"
           y="13.671041">Fentress Co.</tspan></text>
      <text
         id="text906"
         y="41.363178"
         x="13.021844"
         style="font-style:normal;font-variant:normal;font-weight:normal;font-stretch:normal;font-size:8px;line-height:6.66666651px;font-family:Arial;-inkscape-font-specification:Arial;text-align:start;letter-spacing:0.72999996px;word-spacing:0px;text-anchor:start;fill:#000000;fill-opacity:1;stroke:none"
         xml:space="preserve"><tspan
           y="41.363178"
           x="13.021844"
           id="tspan904"
           sodipodi:role="line">Overton Co.</tspan></text>
      <text
         xml:space="preserve"
         style="font-style:normal;font-variant:normal;font-weight:normal;font-stretch:normal;font-size:8px;line-height:6.66666651px;font-family:Arial;-inkscape-font-specification:Arial;text-align:start;letter-spacing:0.72999996px;word-spacing:0px;text-anchor:start;fill:#000000;fill-opacity:1;stroke:none"
         x="18.524782"
         y="316.87463"
         id="text910"><tspan
           sodipodi:role="line"
           id="tspan908"
           x="18.524782"
           y="316.87463">Bledsoe Co.</tspan></text>
      <text
         id="text914"
         y="304.87463"
         x="166.52478"
         style="font-style:normal;font-variant:normal;font-weight:normal;font-stretch:normal;font-size:8px;line-height:6.66666651px;font-family:Arial;-inkscape-font-specification:Arial;text-align:start;letter-spacing:0.72999996px;word-spacing:0px;text-anchor:start;fill:#000000;fill-opacity:1;stroke:none"
         xml:space="preserve"><tspan
           y="304.87463"
           x="166.52478"
           id="tspan912"
           sodipodi:role="line">Rhea Co.</tspan></text>
      <text
         xml:space="preserve"
         style="font-style:normal;font-variant:normal;font-weight:normal;font-stretch:normal;font-size:8px;line-height:6.66666651px;font-family:Arial;-inkscape-font-specification:Arial;text-align:start;letter-spacing:0.72999996px;word-spacing:0px;text-anchor:start;fill:#000000;fill-opacity:1;stroke:none"
         x="294.52478"
         y="274.87463"
         id="text918"><tspan
           sodipodi:role="line"
           id="tspan916"
           x="294.52478"
           y="274.87463">Roane Co.</tspan></text>
      <text
         xml:space="preserve"
         style="font-style:normal;font-variant:normal;font-weight:normal;font-stretch:normal;font-size:8px;line-height:6.66666651px;font-family:Arial;-inkscape-font-specification:Arial;text-align:start;letter-spacing:0.72999996px;word-spacing:0px;text-anchor:start;fill:#000000;fill-opacity:1;stroke:none"
         x="271.61713"
         y="35.660419"
         id="text911"><tspan
           sodipodi:role="line"
           id="tspan909"
           x="271.61713"
           y="35.660419"
           style="font-size:6px">27</tspan></text>
      <text
         id="text915"
         y="301.80209"
         x="216.92502"
         style="font-style:normal;font-variant:normal;font-weight:normal;font-stretch:normal;font-size:8px;line-height:6.66666651px;font-family:Arial;-inkscape-font-specification:Arial;text-align:start;letter-spacing:0.72999996px;word-spacing:0px;text-anchor:start;fill:#000000;fill-opacity:1;stroke:none"
         xml:space="preserve"><tspan
           style="font-size:6px"
           y="301.80209"
           x="216.92502"
           id="tspan913"
           sodipodi:role="line">27</tspan></text>
      <text
         xml:space="preserve"
         style="font-style:normal;font-variant:normal;font-weight:normal;font-stretch:normal;font-size:8px;line-height:6.66666651px;font-family:Arial;-inkscape-font-specification:Arial;text-align:start;letter-spacing:0.72999996px;word-spacing:0px;text-anchor:start;fill:#000000;fill-opacity:1;stroke:none"
         x="228.00262"
         y="239.33942"
         id="text919"><tspan
           sodipodi:role="line"
           id="tspan917"
           x="228.00262"
           y="239.33942"
           style="font-size:6px">70</tspan></text>
      <text
         id="text923"
         y="313.0885"
         x="75.936867"
         style="font-style:normal;font-variant:normal;font-weight:normal;font-stretch:normal;font-size:8px;line-height:6.66666651px;font-family:Arial;-inkscape-font-specification:Arial;text-align:start;letter-spacing:-0.24000005px;word-spacing:0px;text-anchor:start;fill:#000000;fill-opacity:1;stroke:none"
         xml:space="preserve"><tspan
           style="font-size:5.66666651px;letter-spacing:-0.24000005px"
           y="313.0885"
           x="75.936867"
           id="tspan921"
           sodipodi:role="line"
           dx="0 -0.39000002 0.24000002">127</tspan></text>
      <text
         xml:space="preserve"
         style="font-style:normal;font-variant:normal;font-weight:normal;font-stretch:normal;font-size:8px;line-height:6.66666651px;font-family:Arial;-inkscape-font-specification:Arial;text-align:start;letter-spacing:0.72999996px;word-spacing:0px;text-anchor:start;fill:#000000;fill-opacity:1;stroke:none"
         x="74.384911"
         y="147.04149"
         id="text931"><tspan
           sodipodi:role="line"
           id="tspan929"
           x="74.384911"
           y="147.04149"
           style="font-size:6px">40</tspan></text>
      <text
         id="text935"
         y="232.02065"
         x="370.79547"
         style="font-style:normal;font-variant:normal;font-weight:normal;font-stretch:normal;font-size:8px;line-height:6.66666651px;font-family:Arial;-inkscape-font-specification:Arial;text-align:start;letter-spacing:0.72999996px;word-spacing:0px;text-anchor:start;fill:#000000;fill-opacity:1;stroke:none"
         xml:space="preserve"><tspan
           style="font-size:6px"
           y="232.02065"
           x="370.79547"
           id="tspan933"
           sodipodi:role="line">40</tspan></text>
      <text
         xml:space="preserve"
         style="font-style:normal;font-variant:normal;font-weight:normal;font-stretch:normal;font-size:8px;line-height:6.66666651px;font-family:Arial;-inkscape-font-specification:Arial;text-align:start;letter-spacing:-0.24000005px;word-spacing:0px;text-anchor:start;fill:#000000;fill-opacity:1;stroke:none"
         x="102.82967"
         y="38.559097"
         id="text939"><tspan
           dx="0 -0.39000002 0.24000002"
           sodipodi:role="line"
           id="tspan937"
           x="102.82967"
           y="38.559097"
           style="font-size:5.66666651px;letter-spacing:-0.24000005px">127</tspan></text>
    </g>
  </g>
</svg>
