<?xml version="1.0" encoding="UTF-8" standalone="no"?>
<!-- Created with Inkscape (http://www.inkscape.org/) -->

<svg
   xmlns:dc="http://purl.org/dc/elements/1.1/"
   xmlns:cc="http://creativecommons.org/ns#"
   xmlns:rdf="http://www.w3.org/1999/02/22-rdf-syntax-ns#"
   xmlns:svg="http://www.w3.org/2000/svg"
   xmlns="http://www.w3.org/2000/svg"
   xmlns:xlink="http://www.w3.org/1999/xlink"
   xmlns:sodipodi="http://sodipodi.sourceforge.net/DTD/sodipodi-0.dtd"
   xmlns:inkscape="http://www.inkscape.org/namespaces/inkscape"
   version="1.1"
   id="svg11245"
   width="218.24001"
   height="309.12"
   viewBox="0 0 218.24001 309.12"
   sodipodi:docname="ec01jn91.139.svg"
   inkscape:version="0.92.2 5c3e80d, 2017-08-06">
  <metadata
     id="metadata11251">
    <rdf:RDF>
      <cc:Work
         rdf:about="">
        <dc:format>image/svg+xml</dc:format>
        <dc:type
           rdf:resource="http://purl.org/dc/dcmitype/StillImage" />
        <dc:title></dc:title>
      </cc:Work>
    </rdf:RDF>
  </metadata>
  <defs
     id="defs11249" />
  <sodipodi:namedview
     pagecolor="#ffffff"
     bordercolor="#666666"
     borderopacity="1"
     objecttolerance="10"
     gridtolerance="10"
     guidetolerance="10"
     inkscape:pageopacity="0"
     inkscape:pageshadow="2"
     inkscape:window-width="1280"
     inkscape:window-height="756"
     id="namedview11247"
     showgrid="false"
     inkscape:zoom="2.0152726"
     inkscape:cx="63.946891"
     inkscape:cy="144.86852"
     inkscape:window-x="0"
     inkscape:window-y="0"
     inkscape:window-maximized="0"
     inkscape:current-layer="svg11245" />
  <path
     style="fill:none;stroke:#000000;stroke-width:1;stroke-linecap:butt;stroke-linejoin:miter;stroke-miterlimit:4;stroke-dasharray:none;stroke-opacity:1"
     d="m 3.8887321,307.16205 0.002,-305.3591912 H 214.46381 l -0.002,305.3591912 z"
     id="path14359-1-7-5-3-0-73-1-9-9"
     inkscape:connector-curvature="0"
     sodipodi:nodetypes="ccccc"
     inkscape:transform-center-x="0.03366111"
     inkscape:transform-center-y="-0.1641457" />
  <path
     style="fill:none;stroke:#000000;stroke-width:0.69834983;stroke-linecap:round;stroke-linejoin:round;stroke-miterlimit:4;stroke-dasharray:none;stroke-opacity:1"
     d="m 122.91373,45.410795 c -1.00531,-0.01133 -1.90515,-0.235853 -2.62973,-0.732099 -1.21668,-0.833467 -2.04373,-1.789601 -2.00518,-3.679368 0.0464,-2.275788 1.1315,-1.781505 1.1733,-3.760588 0.0296,-1.402228 -2.14863,-2.486749 -0.73683,-3.835099 l 2.68295,-2.562381 c 0.77963,-0.744595 1.53577,0.467223 2.65753,0.465201 0.69748,-0.0013 1.56559,-0.680853 2.13141,-0.920387 0.56582,0.239534 1.43393,0.919087 2.13141,0.920387 1.12176,0.002 1.8779,-1.209796 2.65753,-0.465201 l 2.68295,2.562381 c 1.4118,1.34835 -0.76643,2.432871 -0.73683,3.835099 0.0418,1.979083 1.1269,1.4848 1.1733,3.760588 0.0385,1.889767 -0.7885,2.845901 -2.00518,3.679368 -0.72458,0.496246 -1.62442,0.720769 -2.62973,0.732099 -1.08646,0.01225 -2.00549,0.05576 -3.27345,1.102297 -1.26796,-1.046533 -2.18699,-1.090052 -3.27345,-1.102297 z"
     id="path14359-1-7-5-3-0-73-1-9-8-2-1-8-1-3-8-83-9-9-3-2-8-2-8-9-2-2-9"
     inkscape:connector-curvature="0"
     sodipodi:nodetypes="ssssssscssssssscs" />
  <path
     style="fill:none;stroke:#000000;stroke-width:0.69834983;stroke-linecap:round;stroke-linejoin:round;stroke-miterlimit:4;stroke-dasharray:none;stroke-opacity:1"
     d="m 190.68334,128.57655 c -1.00531,-0.0113 -1.90515,-0.23585 -2.62973,-0.7321 -1.21668,-0.83347 -2.04373,-1.7896 -2.00518,-3.67937 0.0464,-2.27579 1.1315,-1.7815 1.1733,-3.76059 0.0296,-1.40222 -2.14863,-2.48675 -0.73683,-3.8351 l 2.68295,-2.56238 c 0.77963,-0.74459 1.53577,0.46723 2.65753,0.4652 0.69748,-0.001 1.56559,-0.68085 2.13141,-0.92038 0.56582,0.23953 1.43393,0.91908 2.13141,0.92038 1.12176,0.002 1.8779,-1.20979 2.65753,-0.4652 l 2.68295,2.56238 c 1.4118,1.34835 -0.76643,2.43288 -0.73683,3.8351 0.0418,1.97909 1.1269,1.4848 1.1733,3.76059 0.0385,1.88977 -0.7885,2.8459 -2.00518,3.67937 -0.72458,0.49625 -1.62442,0.72077 -2.62973,0.7321 -1.08646,0.0122 -2.00549,0.0558 -3.27345,1.1023 -1.26796,-1.04654 -2.18699,-1.09006 -3.27345,-1.1023 z"
     id="path14359-1-7-5-3-0-73-1-9-8-2-1-8-1-3-8-83-9-9-3-2-8-2-8-9-2-2-9-3"
     inkscape:connector-curvature="0"
     sodipodi:nodetypes="ssssssscssssssscs" />
  <path
     style="fill:none;stroke:#000000;stroke-width:0.69834983;stroke-linecap:round;stroke-linejoin:round;stroke-miterlimit:4;stroke-dasharray:none;stroke-opacity:1"
     d="m 76.280923,64.420919 c -0.01663,-3.444179 -2.621006,-6.293696 -3.117675,-6.048624 -1.312985,0.64787 -3.10976,0.629354 -4.611441,-0.07811 -1.501681,0.707464 -3.298456,0.72598 -4.611441,0.07811 -0.496669,-0.245072 -3.101047,2.604445 -3.117675,6.048624 -0.02756,5.708166 4.526596,9.120619 7.729116,9.864606 3.20252,-0.743986 7.756676,-4.156439 7.729116,-9.864606 z"
     id="path14359-1-7-5-3-0-73-1-9-8-2-1-8-1-3-8-83-9-9-3-2-8-2-8-9-2-2-9-37"
     inkscape:connector-curvature="0"
     sodipodi:nodetypes="sscsscs" />
  <path
     style="fill:none;stroke:#000000;stroke-width:0.69834983;stroke-linecap:round;stroke-linejoin:round;stroke-miterlimit:4;stroke-dasharray:none;stroke-opacity:1"
     d="m 209.97273,266.74881 c -0.0166,-3.44418 -2.62101,-6.2937 -3.11767,-6.04863 -1.31299,0.64787 -3.10976,0.62936 -4.61145,-0.0781 -1.50168,0.70747 -3.29845,0.72598 -4.61144,0.0781 -0.49667,-0.24507 -3.10104,2.60445 -3.11767,6.04863 -0.0276,5.70816 4.52659,9.12062 7.72911,9.8646 3.20252,-0.74398 7.75668,-4.15644 7.72912,-9.8646 z"
     id="path14359-1-7-5-3-0-73-1-9-8-2-1-8-1-3-8-83-9-9-3-2-8-2-8-9-2-2-9-37-3"
     inkscape:connector-curvature="0"
     sodipodi:nodetypes="sscsscs" />
  <path
     style="fill:#000000;stroke:#000000;stroke-width:1;stroke-linecap:round;stroke-linejoin:round;stroke-miterlimit:4;stroke-dasharray:none;stroke-opacity:1;fill-opacity:1"
     d="m 23.906631,276.84588 -0.002,2.49809 h 2.547321 l 0.002,-2.49809 z"
     id="path14359-1-7-5-3-0-73-1-9-8-5"
     inkscape:connector-curvature="0"
     sodipodi:nodetypes="ccccc" />
  <path
     style="fill:none;stroke:#000000;stroke-width:1;stroke-linecap:round;stroke-linejoin:round;stroke-miterlimit:4;stroke-dasharray:none;stroke-opacity:1"
     d="m 28.282398,273.32686 4.01e-4,-6.34368 H 13.913293 l -0.524527,32.34747 h 25.081318 l -0.65156,-26.00379 z"
     id="path14359-1-7-5-3-0-73-1-9-8-5-5"
     inkscape:connector-curvature="0"
     sodipodi:nodetypes="ccccccc" />
  <path
     style="fill:none;stroke:#000000;stroke-width:1;stroke-linecap:round;stroke-linejoin:round;stroke-miterlimit:4;stroke-dasharray:none;stroke-opacity:1"
     d="M 66.071965,208.59559 H 94.07418 l -4.57e-4,17.29758 h 12.902287 l -0.001,18.00125"
     id="path14359-1-7-5-3-0-73-1-9-8-5-3"
     inkscape:connector-curvature="0"
     sodipodi:nodetypes="ccccc" />
  <path
     style="fill:none;stroke:#000000;stroke-width:1;stroke-linecap:round;stroke-linejoin:round;stroke-miterlimit:4;stroke-dasharray:none;stroke-opacity:1"
     d="m 105.09752,184.46526 -9.6e-4,1.69829 7.8395,0 c 0.49287,0 1.11984,0.24019 1.11968,1.00203 l -7.9e-4,3.64344"
     id="path14359-1-7-5-3-0-73-1-9-8-5-4"
     inkscape:connector-curvature="0"
     sodipodi:nodetypes="ccssc" />
  <path
     style="fill:none;stroke:#000000;stroke-width:1;stroke-linecap:round;stroke-linejoin:round;stroke-miterlimit:4;stroke-dasharray:none;stroke-opacity:1"
     d="m 124.19425,170.30767 -3.77239,0 -9.9e-4,4.58657"
     id="path14359-1-7-5-3-0-73-1-9-8-5-0"
     inkscape:connector-curvature="0"
     sodipodi:nodetypes="ccc" />
  <path
     style="fill:none;stroke:#000000;stroke-width:1;stroke-linecap:round;stroke-linejoin:round;stroke-miterlimit:4;stroke-dasharray:none;stroke-opacity:1"
     d="m 98.083224,177.86358 -0.0014,6.47269 7.544791,0"
     id="path14359-1-7-5-3-0-73-1-9-8-5-6"
     inkscape:connector-curvature="0"
     sodipodi:nodetypes="ccc" />
  <path
     style="fill:none;stroke:#000000;stroke-width:1;stroke-linecap:round;stroke-linejoin:round;stroke-miterlimit:4;stroke-dasharray:none;stroke-opacity:1"
     d="m 100.97147,176.44892 -4.4e-4,2.05199 -2.829299,0"
     id="path14359-1-7-5-3-0-73-1-9-8-5-04"
     inkscape:connector-curvature="0"
     sodipodi:nodetypes="ccc" />
  <path
     style="fill:none;stroke:#000000;stroke-width:1;stroke-linecap:round;stroke-linejoin:round;stroke-miterlimit:4;stroke-dasharray:none;stroke-opacity:1"
     d="m 108.22154,174.26801 -5.6e-4,2.58248 -7.25007,0"
     id="path14359-1-7-5-3-0-73-1-9-8-5-05"
     inkscape:connector-curvature="0"
     sodipodi:nodetypes="ccc" />
  <path
     style="fill:none;stroke:#000000;stroke-width:1;stroke-linecap:round;stroke-linejoin:round;stroke-miterlimit:4;stroke-dasharray:none;stroke-opacity:1"
     d="m 108.3495,175.19903 12.70967,0.002"
     id="path14359-1-7-5-3-0-73-1-9-8-5-68"
     inkscape:connector-curvature="0"
     sodipodi:nodetypes="cc" />
  <path
     style="fill:none;stroke:#000000;stroke-width:1;stroke-linecap:round;stroke-linejoin:round;stroke-miterlimit:4;stroke-dasharray:none;stroke-opacity:1"
     d="m 169.46794,87.587932 -0.4105,41.323628 c -0.009,0.92419 -0.49228,1.09466 -1.16308,1.09464 l -2.80508,-5e-5 v 3.69449 l -2.80509,-6e-5 0,3.76292 -3.14716,-7e-5 c -0.87066,-2e-5 -1.09467,0.64282 -1.09467,1.23079 v 2.80579 l -2.46299,-5e-5 0,5.747 -5.13125,-2.2e-4 0,2.463 -12.24657,-4.9e-4 v 2.94191 l -6.77325,-2.7e-4 v -2.53142 l -16.48154,-6.7e-4"
     id="path14359-1-7-5-3-0-73-1-9-8-5-53"
     inkscape:connector-curvature="0"
     sodipodi:nodetypes="cssccccsscccccccccc" />
  <path
     style="fill:none;stroke:#000000;stroke-width:1;stroke-linecap:round;stroke-linejoin:round;stroke-miterlimit:4;stroke-dasharray:none;stroke-opacity:1"
     d="m 169.57953,256.7157 5.76381,2.5e-4 v 3.27521 l 3.3551,1.5e-4 0,3.03555 1.19826,6e-5 0,2.23672 8.30784,3.7e-4 0,-5.59182 c 0,-0.5748 0.51188,-1.358 1.35801,-1.35795 l 1.83732,9e-5 v -2.3166 l 4.39355,1.9e-4 v -2.47637 l 4.47345,1.9e-4 v -2.47637 l 8.30786,3.9e-4 v -3.43497 l 5.68394,2.4e-4"
     id="path14359-1-7-5-3-0-73-1-9-8-5-7"
     inkscape:connector-curvature="0"
     sodipodi:nodetypes="ccccccccssccccccccc" />
  <path
     style="fill:none;stroke:#000000;stroke-width:1;stroke-linecap:round;stroke-linejoin:round;stroke-miterlimit:4;stroke-dasharray:none;stroke-opacity:1"
     d="m 194.16276,152.04984 -5.30274,0 -3.4e-4,4.41488 m -1.9e-4,2.61342 -3.5e-4,4.61195 m -2.6e-4,3.38209 -3.2e-4,4.22762 m -1.9e-4,2.53657 -3.5e-4,4.5686 h 4.45922 m 3.07463,0 h 5.91865 l 0,-2.38284 h 5.76393 l 4.1e-4,-4.95293 m 2.3e-4,-2.76716 3.5e-4,-4.15075 m 1.9e-4,-2.30598 3.4e-4,-4.07389 m 1.8e-4,-2.15224 3e-4,-3.56934 h -4.07488 m -2.30597,0 h -4.22762"
     id="path14359-1-7-5-3-0-73-1-9-8-5-686"
     inkscape:connector-curvature="0"
     sodipodi:nodetypes="cccccccccccccccccccccccc" />
  <path
     style="fill:none;stroke:#000000;stroke-width:2;stroke-linecap:butt;stroke-linejoin:round;stroke-miterlimit:4;stroke-dasharray:none;stroke-opacity:1"
     d="m 51.441122,1.9171508 c 4.38e-4,0.3717252 0.648188,1.1104647 0.954905,1.3652669 L 71.520496,19.169842 c 2.917176,2.423409 6.096456,5.607323 6.096379,11.807042 l 0.192807,60.486929 c 0.03899,12.229967 5.702741,23.420587 10.168966,28.934537 l 33.703542,41.60997 c 1.60264,1.97861 2.43479,3.77326 2.67365,6.70729 1.00116,12.29744 3.4501,14.05674 7.56154,19.09932 l 37.60313,46.11934 10.19839,16.50091 c 1.7049,2.75851 3.96468,5.18286 5.88266,7.98547 l 9.99107,14.59932 c 2.13626,3.12159 4.27328,7.34303 4.3222,12.11062 l 0.22334,21.76356"
     id="path14359-1-7-5-3-0-73-1-9-8-5-8"
     inkscape:connector-curvature="0"
     sodipodi:nodetypes="csssssssscssssc" />
  <path
     style="fill:none;stroke:#000000;stroke-width:2;stroke-linecap:butt;stroke-linejoin:round;stroke-miterlimit:4;stroke-dasharray:none;stroke-opacity:1"
     d="m 98.547671,2.2412924 8.686669,12.6012316 c 1.08334,1.571533 2.06324,3.166689 2.68897,4.969234 13.25599,38.186585 26.59217,78.621354 38.83431,115.301522 1.33769,4.00803 3.74128,6.88365 5.97447,9.71497 l 12.25178,15.53327 c 1.44322,1.82977 2.80114,3.42653 2.85725,7.77309 l 0.23055,17.85858 m 0.0208,17.10073 0.006,5.28189 30.86255,0.0587 c 1.58659,0.003 3.21736,2.22446 5.10729,5.17058 2.28534,3.56249 4.85324,8.24267 6.92928,12.09293 0.36418,0.67542 0.74736,1.69425 1.36186,1.99943"
     id="path14359-1-7-5-3-0-73-1-9-8-5-49"
     inkscape:connector-curvature="0"
     sodipodi:nodetypes="csssssscccsssc" />
  <path
     style="fill:none;stroke:#000000;stroke-width:2;stroke-linecap:butt;stroke-linejoin:round;stroke-miterlimit:4;stroke-dasharray:none;stroke-opacity:1"
     d="m 188.52498,56.954953 -5.94984,31.405939 2.94989,38.502618 c 0.48573,6.33987 -2.67613,10.49776 -2.70746,16.08874 l -0.23419,41.79298 m -0.106,17.85877 -0.28713,51.2807"
     id="path14359-1-7-5-3-0-73-1-9-8-5-73"
     inkscape:connector-curvature="0"
     sodipodi:nodetypes="ccssccc" />
  <path
     style="fill:none;stroke:#000000;stroke-width:1;stroke-linecap:round;stroke-linejoin:round;stroke-miterlimit:4;stroke-dasharray:none;stroke-opacity:1"
     d="m 11.26317,1.8321667 c 1.976466,2.9949203 5.397161,7.2772309 5.452187,9.0650863 0.07238,2.351824 -2.816869,2.168721 -2.692728,3.565891 0.143158,1.611195 1.275943,2.621403 1.247864,3.881378 -0.03856,1.730128 -1.739531,5.392563 -1.757051,8.916665 -0.0054,1.088079 -0.579685,2.279909 -0.652269,3.62982 -0.06281,1.168077 0.601845,2.246438 0.563205,3.917387 -0.07188,3.108176 2.568382,5.424573 2.607384,8.27628 0.01781,1.302223 -0.264042,2.751903 -0.112991,4.061117 0.132455,1.14804 0.702574,2.15314 0.685707,3.327364 -0.01963,1.3663 -0.766307,2.406879 -0.596977,3.796486 0.420672,3.452258 3.330788,6.838276 3.258574,9.766352 -0.155175,6.291969 0.08245,15.214579 0.954092,21.336076 0.214445,1.506029 0.684922,2.70393 1.183766,4.349741 0.431078,1.422237 0.803118,2.969997 1.203985,4.406536 0.901136,3.229299 3.420116,3.342606 3.524588,8.438544 0.17662,8.61516 4.5918,13.17654 5.909295,16.19534 1.590818,3.64508 4.375621,10.12761 7.780099,13.15112 3.212945,2.85341 4.898085,5.2347 8.076602,7.43921 11.231053,7.78949 21.254755,14.17518 21.172859,20.45213 -0.09515,7.29325 -6.294477,20.90259 -7.434736,24.99148 -0.650004,2.33086 -1.700384,2.41359 -4.703346,1.30059 -2.151431,-0.79739 -4.812844,0.50873 -5.492127,3.29003 -0.377699,1.54648 0.786088,3.49051 1.363249,4.38134 1.12129,1.73066 5.693025,3.55686 7.477932,6.83825 0.949192,1.745 1.945428,3.96341 3.246995,5.5921 1.590747,1.99056 5.338202,5.32207 5.602292,9.9229 0.169427,2.95163 -0.09105,6.04228 0.719865,9.06134 0.94088,3.50293 2.741546,4.8732 2.973368,9.89066 0.210658,4.55936 -1.152883,7.00841 -1.11073,9.72556 0.02301,1.48338 1.056133,4.46429 1.059082,6.28926 0.0043,2.68465 0.881587,4.28083 2.028565,4.3101 5.30487,0.13539 8.125592,-4.16279 12.470727,-5.45495 1.874826,-0.55754 5.812708,-1.34314 8.029622,-1.48166 1.373418,-0.0858 6.031811,-2.11226 9.088511,-3.64266 1.4233,-0.7126 1.60911,-1.62615 3.57772,-0.14902 1.44037,1.08077 -3.17779,8.59623 -0.94347,8.6141 2.00585,0.016 2.41085,-4.55045 3.95931,-4.45331 1.82414,0.11444 0.7815,3.55077 2.84203,3.45717 1.16198,-0.0528 3.29018,-1.48603 4.35829,-3.38538 1.1807,-2.09954 -1.65131,-4.10421 -0.27465,-4.8224 1.62657,-0.84857 1.18089,1.92072 2.73504,3.42384 0.59099,0.57159 1.38247,0.93113 2.50236,0.89693 2.63466,-0.0805 3.14745,-1.88327 4.3001,-2.04595 0.69028,-0.0974 1.60735,0.76773 2.30584,0.74243 4.64606,-0.16826 5.40969,7.10664 8.25225,7.0868 2.23196,-0.0156 4.46511,-3.7755 7.51514,-2.33499 2.7261,1.28753 4.28099,6.03035 6.34491,6.76779 1.28335,0.45855 4.03897,1.23119 5.25969,1.79405 0.93033,0.42897 2.18971,1.44528 3.36793,1.24189 1.03857,-0.17929 1.99785,-1.58972 2.84967,-1.55651 1.0309,0.0402 1.95206,0.28983 2.56381,-0.0358 1.77735,-0.94614 2.06858,-3.42981 3.69115,-3.37623 2.15937,0.0713 3.50864,4.78234 3.65172,9.12238 0.13743,4.16869 2.20274,6.14718 3.68621,7.19267 3.33246,2.34859 5.99749,3.72987 6.14324,7.53965 0.089,2.3267 -0.96037,3.93039 -2.03325,5.49991 -0.924,1.35171 -1.10471,3.21603 -1.10417,4.97026 8.7e-4,2.76801 0.4964,5.72144 -2.2776,7.48547 -1.11256,0.70749 -2.56059,1.43306 -3.67214,2.1521 -0.99546,0.64394 -1.68347,1.51088 -2.51348,2.05183 -0.84668,0.55182 -1.83192,0.77667 -2.49788,1.33834 -1.4949,1.2608 -2.32935,1.77773 -2.16529,3.22813"
     id="path14359-1-7-5-3-0-73-1-9-8-5-1"
     inkscape:connector-curvature="0"
     sodipodi:nodetypes="csssssssssssssssssssssssssssssssssssssssssssssssssssssssssssssc" />
  <path
     style="fill:none;stroke:#000000;stroke-width:1;stroke-linecap:round;stroke-linejoin:round;stroke-miterlimit:4;stroke-dasharray:none;stroke-opacity:1"
     d="m 25.507551,42.95797 c 0.123257,4.380975 -0.762872,10.449775 1.167271,13.062986 1.734485,2.34831 5.013871,2.457706 8.57613,2.2721 4.201525,-0.218913 8.737534,0.0351 9.986509,-3.973378 0.444408,-1.426292 -1.738319,-5.786749 -4.198145,-9.971968 -0.669156,-1.138522 -1.113884,-2.50901 -1.776743,-3.559 -0.836344,-1.324796 -1.874954,-2.284363 -2.530936,-3.242842 -2.764231,-4.038918 -6.990966,-12.627763 -9.787815,-11.970373 -1.856753,0.436424 -2.474607,2.983677 -2.618597,6.033518 -0.183197,3.880278 0.969388,3.78037 1.182326,11.348957 z"
     id="path14359-1-7-5-3-0-73-1-9-8-5-02"
     inkscape:connector-curvature="0"
     sodipodi:nodetypes="ssssssssss" />
  <path
     style="fill:#000000;stroke:#000000;stroke-width:0.5;stroke-linecap:round;stroke-linejoin:round;stroke-miterlimit:4;stroke-dasharray:none;stroke-opacity:1;fill-opacity:1"
     d="m 136.62745,126.01635 c 6.55404,-2.48903 12.49011,-1.5873 16.48191,1.65169 8.76145,7.10913 10.45299,21.58486 10.65534,31.75391 0.025,1.25497 -0.57239,1.8241 -0.63267,2.5584 -0.10631,1.29489 0.48676,2.42393 0.88321,3.45904 0.0735,0.52539 -0.69389,0.62594 -0.73858,1.16101 -0.0407,0.48763 0.76873,1.45613 0.52547,1.89794 -0.85836,1.559 -2.13626,3.76338 -3.31347,5.60422 -0.76876,1.20213 -1.37863,2.20351 -2.24933,2.86034 -3.68529,2.78009 -3.74097,0.82527 -12.49157,5.03372 -2.31886,1.11521 -5.16104,1.91519 -7.3875,3.12876 -1.57929,0.86082 -2.34587,2.27701 -3.95987,2.77222 -1.83306,0.56243 -3.61119,0.59683 -5.76217,0.63396 -2.4628,0.0425 -7.06315,1.775 -9.24141,1.92054 -2.09843,0.14021 -3.84549,-0.0708 -5.23761,0.0385 -2.15173,0.16888 -3.57547,0.62283 -5.06872,0.5982 -4.86201,-0.0802 -6.34768,-3.0521 -9.671701,-2.47911 -1.37371,0.23679 -2.79723,1.11062 -3.682573,2.49672 -0.914331,1.43148 -1.068372,2.69651 -3.405264,2.78088 -1.023019,0.0369 -1.97999,-0.008 -3.282687,-1.18507 -1.078771,-0.97506 -1.14651,-2.52266 -3.079781,-2.44851 -1.640418,0.0629 -1.896144,1.45931 -1.941708,2.96646 -0.03135,1.03715 -1.20976,1.83088 -2.588012,1.87013 -3.913395,0.11145 -5.229957,-3.62358 -10.632413,-3.40018 -1.866534,0.0772 -3.635994,0.12874 -5.750958,-1.59625 -1.535282,-1.2522 -3.388483,-2.62489 -5.447126,-2.58438 -3.363157,0.0662 -6.836882,3.60352 -8.030828,1.49986 l 0.901,4.09077 c 2.05105,-0.897 3.708909,-2.75625 7.031349,-2.66153 2.199704,0.0627 4.20847,1.43508 6.125165,3.04631 1.14854,0.96549 2.577293,0.83536 4.407414,0.82567 5.382332,-0.0285 5.33483,3.0031 11.346963,3.30069 2.462791,0.12191 4.138695,-0.83506 5.735003,-2.9148 1.400148,0.19857 2.042727,1.81724 5.412824,1.53879 1.231827,-0.10178 3.364609,-0.33212 4.588294,-1.62443 1.288316,-1.36056 1.676578,-3.6957 3.185059,-3.66234 3.47648,0.0769 4.27466,2.49289 8.3625,2.55048 2.1273,0.03 2.18593,-0.60658 5.10785,-0.4394 2.31067,0.13222 3.59186,-0.51794 5.37823,-0.57205 3.80789,-0.11534 6.43636,-1.67644 9.50094,-2.14391 2.19249,-0.33445 4.21378,0.29461 6.19596,-0.005 0.98463,-0.1487 1.87297,-1.65028 3.83836,-2.50782 2.45221,-1.06994 4.82846,-3.02143 7.94794,-4.35231 3.09764,-1.32157 5.97922,-1.88756 9.09581,-3.38928 1.56738,-0.75524 3.22943,-0.75044 4.83485,-2.54669 1.93796,-2.1683 2.61131,-3.67102 3.60975,-5.65189 0.54972,-1.09062 1.4329,-2.04374 1.39523,-3.20875 -0.0676,-2.09184 -1.00054,-1.58617 -1.01001,-3.9918 -0.005,-1.15073 0.93325,-2.23467 0.99369,-4.14145 0.1385,-4.36915 -1.34059,-4.27791 -1.23482,-7.24739 0.34355,-9.64566 -2.91732,-22.70759 -9.93193,-28.03945 -2.84075,-2.15928 -8.61244,-4.98244 -15.49361,-2.5326 -1.12542,0.40068 -1.12102,2.2899 -2.27379,3.28692 z"
     id="path14359-1-7-5-3-0-73-1-9-8-5-37"
     inkscape:connector-curvature="0"
     sodipodi:nodetypes="cssscsssssssssssssssssssssccsssscsssssssssssssssssssc" />
  <path
     style="fill:none;stroke:#000000;stroke-width:1;stroke-linecap:round;stroke-linejoin:round;stroke-miterlimit:4;stroke-dasharray:none;stroke-opacity:1"
     d="m 152.20388,142.25149 -0.001,8.70539 c -1.5e-4,1.21123 0.32,2.85329 1.08804,3.7999 2.3532,2.90034 4.50256,5.11735 6.96332,7.48342 1.36645,1.31387 0.75661,2.39081 1.64028,3.44602 1.25042,1.49318 2.46454,2.57351 4.00492,2.57693 l 16.70849,0.0371"
     id="path14359-1-7-5-3-0-73-1-9-8-5-18"
     inkscape:connector-curvature="0"
     sodipodi:nodetypes="csssssc" />
  <path
     style="fill:none;stroke:#000000;stroke-width:0.5;stroke-linecap:round;stroke-linejoin:round;stroke-miterlimit:4;stroke-dasharray:none;stroke-opacity:1"
     d="m 173.71268,49.651326 c -0.0467,2.460296 -1.16492,5.964741 -1.18527,7.780361 -0.0215,1.917858 -0.73283,3.531307 -1.16055,5.519073 -1.57558,7.322467 -4.73135,15.381194 -4.84877,22.869239 -0.0699,4.456388 0.82174,9.070399 2.34616,13.403135 0.8551,2.430366 2.14612,4.594636 3.00203,7.025086 0.61914,1.75813 0.6276,3.68103 1.18783,5.42241 1.40687,4.37303 2.48016,8.69087 2.47742,12.94139 -0.003,5.01474 -0.95863,8.94689 -1.1817,12.59956 -0.15516,2.5408 -1.38499,4.81288 -1.4557,7.43827 l -0.13499,5.0118 c -0.041,1.52124 -0.84182,4.76783 -2.54363,8.10263 -1.77293,3.47413 -3.21531,7.32949 -4.88376,9.06754"
     id="path14359-1-7-5-3-0-73-1-9-8-5-9"
     inkscape:connector-curvature="0"
     sodipodi:nodetypes="csssssssssssc" />
  <path
     style="fill:none;stroke:#000000;stroke-width:1;stroke-linecap:butt;stroke-linejoin:miter;stroke-miterlimit:4;stroke-dasharray:none;stroke-opacity:1"
     d="m 203.51172,19.382482 -0.002,3.970033 -61.9263,0 0.002,-3.970033"
     id="path14359-1-7-5-3-0-73-1-9-3"
     inkscape:connector-curvature="0"
     sodipodi:nodetypes="cccc"
     inkscape:transform-center-x="0.03366111"
     inkscape:transform-center-y="-0.1641457" />
  <path
     style="fill:none;stroke:#000000;stroke-width:1;stroke-linecap:butt;stroke-linejoin:miter;stroke-miterlimit:4;stroke-dasharray:none;stroke-opacity:1"
     d="m 172.74923,19.382482 -0.002,3.970033"
     id="path14359-1-7-5-3-0-73-1-9"
     inkscape:connector-curvature="0"
     sodipodi:nodetypes="cc"
     inkscape:transform-center-x="0.03366111"
     inkscape:transform-center-y="-0.1641457" />
  <path
     style="fill:none;stroke:#000000;stroke-width:1;stroke-linecap:butt;stroke-linejoin:miter;stroke-miterlimit:4;stroke-dasharray:none;stroke-opacity:1"
     d="m 157.02115,20.142575 -0.002,3.20994"
     id="path14359-1-7-5-3-0-73-1-9-7"
     inkscape:connector-curvature="0"
     sodipodi:nodetypes="cc"
     inkscape:transform-center-x="0.03366111"
     inkscape:transform-center-y="-0.1641457" />
  <path
     style="fill:#000000;fill-opacity:1;stroke:#000000;stroke-width:0.5;stroke-linecap:round;stroke-linejoin:round;stroke-miterlimit:4;stroke-dasharray:none;stroke-opacity:1"
     d="m 48.123104,254.45431 c 0.10511,-0.0935 1.013427,-6.29135 1.520141,-9.43702 0.556055,3.16826 1.414973,9.32606 1.50308,9.43876 l -1.51161,-8.7e-4 z"
     id="path14359-1-7-5-3-0-73-1"
     inkscape:connector-curvature="0"
     sodipodi:nodetypes="ccccc" />
  <path
     style="fill:#000000;stroke:#000000;stroke-width:0.5;stroke-linecap:round;stroke-linejoin:round;stroke-miterlimit:4;stroke-dasharray:none;stroke-opacity:1;fill-opacity:1"
     d="m 49.635044,269.29227 -0.0013,29.31813 c -0.649438,0.31792 -1.086225,0.95482 -1.561979,1.53327 l -3.72e-4,-17.27377 c -1.4e-5,-0.67142 1.563682,-1.6646 1.56368,-2.48923 z"
     id="path14359-1-7-5-3-0-73-1-9-4"
     inkscape:connector-curvature="0"
     sodipodi:nodetypes="cccssc"
     inkscape:transform-center-x="0.03366111"
     inkscape:transform-center-y="-0.1641457" />
  <path
     style="fill:none;stroke:#000000;stroke-width:0.5;stroke-linecap:round;stroke-linejoin:round;stroke-miterlimit:4;stroke-dasharray:none;stroke-opacity:1"
     d="m 49.637044,254.52164 -0.002,6.58535"
     id="path14359-1-7-5-3-0-73-1-9-0"
     inkscape:connector-curvature="0"
     sodipodi:nodetypes="cc"
     inkscape:transform-center-x="0.03366111"
     inkscape:transform-center-y="-0.1641457" />
  <path
     style="fill:none;stroke:#000000;stroke-width:0.5;stroke-linecap:butt;stroke-linejoin:miter;stroke-miterlimit:4;stroke-dasharray:none;stroke-opacity:1"
     d="m 138.206,183.56232 c 5.97404,-2.9363 12.05091,-4.28528 17.81928,-8.2831 2.05936,-1.42726 4.64212,-2.49067 6.44903,-5.18787"
     id="path15293"
     inkscape:connector-curvature="0"
     sodipodi:nodetypes="csc" />
  <g
     id="g963"
     sodipodi:insensitive="true">
    <text
       id="text15110"
       y="123.18024"
       x="187.32005"
       style="font-style:normal;font-variant:normal;font-weight:normal;font-stretch:normal;font-size:6.66666651px;line-height:6.66666651px;font-family:Arial;-inkscape-font-specification:Arial;text-align:start;letter-spacing:0.25px;word-spacing:0px;text-anchor:start;fill:#000000;fill-opacity:1;stroke:none"
       xml:space="preserve"><tspan
         y="123.18024"
         x="187.32005"
         id="tspan15108"
         sodipodi:role="line">189</tspan></text>
    <text
       id="text15110-4"
       y="40.13258"
       x="122.36265"
       style="font-style:normal;font-variant:normal;font-weight:normal;font-stretch:normal;font-size:6.66666651px;line-height:6.66666651px;font-family:Arial;-inkscape-font-specification:Arial;text-align:start;letter-spacing:0.25px;word-spacing:0px;text-anchor:start;fill:#000000;fill-opacity:1;stroke:none"
       xml:space="preserve"><tspan
         y="40.13258"
         x="122.36265"
         id="tspan15108-0"
         sodipodi:role="line">89</tspan></text>
    <text
       id="text15110-5"
       y="67.812637"
       x="63.753693"
       style="font-style:normal;font-variant:normal;font-weight:normal;font-stretch:normal;font-size:6.66666651px;line-height:6.66666651px;font-family:Arial;-inkscape-font-specification:Arial;text-align:start;letter-spacing:0.25px;word-spacing:0px;text-anchor:start;fill:#000000;fill-opacity:1;stroke:none"
       xml:space="preserve"><tspan
         y="67.812637"
         x="63.753693"
         id="tspan15108-7"
         sodipodi:role="line">15</tspan></text>
    <text
       id="text15110-5-0"
       y="269.67297"
       x="198.31175"
       style="font-style:normal;font-variant:normal;font-weight:normal;font-stretch:normal;font-size:6.66666651px;line-height:6.66666651px;font-family:Arial;-inkscape-font-specification:Arial;text-align:start;letter-spacing:0.25px;word-spacing:0px;text-anchor:start;fill:#000000;fill-opacity:1;stroke:none"
       xml:space="preserve"><tspan
         y="269.67297"
         x="198.31175"
         id="tspan15108-7-0"
         sodipodi:role="line">15</tspan></text>
    <text
       id="text15158"
       y="119.52764"
       x="103.51547"
       style="font-style:italic;font-variant:normal;font-weight:normal;font-stretch:normal;font-size:6.66666651px;line-height:8px;font-family:Arial;-inkscape-font-specification:'Arial Italic';text-align:start;letter-spacing:0.59999996px;word-spacing:0px;text-anchor:start;fill:#000000;fill-opacity:1;stroke:none"
       xml:space="preserve"><tspan
         y="119.52764"
         x="103.51547"
         id="tspan15156"
         sodipodi:role="line">TANNER</tspan><tspan
         id="tspan15160"
         y="127.52764"
         x="103.51547"
         sodipodi:role="line">   RACE</tspan><tspan
         id="tspan15162"
         y="135.52765"
         x="103.51547"
         sodipodi:role="line">DIVERSION</tspan></text>
    <text
       id="text15158-5"
       y="27.994883"
       x="60.229645"
       style="font-style:italic;font-variant:normal;font-weight:normal;font-stretch:normal;font-size:6.66666651px;line-height:8px;font-family:Arial;-inkscape-font-specification:'Arial Italic';text-align:end;letter-spacing:0.59999996px;word-spacing:0px;text-anchor:end;fill:#000000;fill-opacity:1;stroke:none"
       xml:space="preserve"><tspan
         id="tspan15162-8"
         y="27.994883"
         x="60.829643"
         sodipodi:role="line">Cooling</tspan><tspan
         id="tspan15193"
         y="35.994884"
         x="63.278603"
         sodipodi:role="line">Pond  </tspan></text>
    <text
       id="text15197"
       y="221.77303"
       x="104.04372"
       style="font-style:normal;font-variant:normal;font-weight:normal;font-stretch:normal;font-size:5.33333349px;line-height:10.66666698px;font-family:Arial;-inkscape-font-specification:Arial;text-align:end;letter-spacing:0.90999997px;word-spacing:0px;text-anchor:end;fill:#000000;fill-opacity:1;stroke:none"
       xml:space="preserve"><tspan
         y="221.77303"
         x="107.34288"
         id="tspan15195"
         sodipodi:role="line">Provo      </tspan><tspan
         id="tspan15199"
         y="232.4397"
         x="104.95371"
         sodipodi:role="line">Municipal</tspan><tspan
         id="tspan15201"
         y="243.10635"
         x="104.95372"
         sodipodi:role="line">Airport</tspan></text>
    <text
       id="text15205"
       y="198.28355"
       x="154.43961"
       style="font-style:normal;font-variant:normal;font-weight:bold;font-stretch:normal;font-size:12px;line-height:6.66666651px;font-family:Arial;-inkscape-font-specification:'Arial Bold';text-align:start;letter-spacing:1.78000009px;word-spacing:0px;text-anchor:start;fill:#000000;fill-opacity:1;stroke:none"
       xml:space="preserve"><tspan
         y="198.28355"
         x="154.43961"
         id="tspan15203"
         sodipodi:role="line">PROVO</tspan></text>
    <text
       id="text15209"
       y="161.57251"
       x="198.43282"
       style="font-style:normal;font-variant:normal;font-weight:normal;font-stretch:normal;font-size:9.33333302px;line-height:7.4666667px;font-family:Arial;-inkscape-font-specification:Arial;text-align:center;letter-spacing:0px;word-spacing:0px;text-anchor:middle;fill:#000000;fill-opacity:1;stroke:none"
       xml:space="preserve"><tspan
         y="161.57251"
         x="198.43282"
         id="tspan15207"
         sodipodi:role="line">B</tspan><tspan
         id="tspan15211"
         y="169.03917"
         x="198.43282"
         sodipodi:role="line">Y</tspan><tspan
         id="tspan15213"
         y="176.50584"
         x="198.43282"
         sodipodi:role="line">U</tspan></text>
    <text
       id="text15217"
       y="32.169567"
       x="159.50319"
       style="font-style:normal;font-variant:normal;font-weight:normal;font-stretch:normal;font-size:8px;line-height:6.66666651px;font-family:Arial;-inkscape-font-specification:Arial;text-align:start;letter-spacing:1.35000002px;word-spacing:0px;text-anchor:start;fill:#000000;fill-opacity:1;stroke:none"
       xml:space="preserve"><tspan
         y="32.169567"
         x="159.50319"
         id="tspan15215"
         sodipodi:role="line">MILES</tspan></text>
    <text
       id="text15221"
       y="17.541407"
       x="200.57457"
       style="font-style:normal;font-variant:normal;font-weight:normal;font-stretch:normal;font-size:9.33333302px;line-height:6.66666651px;font-family:Arial;-inkscape-font-specification:Arial;text-align:start;letter-spacing:0px;word-spacing:0px;text-anchor:start;fill:#000000;fill-opacity:1;stroke:none"
       xml:space="preserve"><tspan
         y="17.541407"
         x="200.57457"
         id="tspan15219"
         sodipodi:role="line">2</tspan></text>
    <text
       id="text15221-0"
       y="18.504431"
       x="169.39067"
       style="font-style:normal;font-variant:normal;font-weight:normal;font-stretch:normal;font-size:9.33333302px;line-height:6.66666651px;font-family:Arial;-inkscape-font-specification:Arial;text-align:start;letter-spacing:0px;word-spacing:0px;text-anchor:start;fill:#000000;fill-opacity:1;stroke:none"
       xml:space="preserve"><tspan
         y="18.504431"
         x="169.39067"
         id="tspan15219-6"
         sodipodi:role="line">1</tspan></text>
    <text
       id="text15221-5"
       y="18.363777"
       x="139.00911"
       style="font-style:normal;font-variant:normal;font-weight:normal;font-stretch:normal;font-size:9.33333302px;line-height:6.66666651px;font-family:Arial;-inkscape-font-specification:Arial;text-align:start;letter-spacing:0px;word-spacing:0px;text-anchor:start;fill:#000000;fill-opacity:1;stroke:none"
       xml:space="preserve"><tspan
         y="18.363777"
         x="139.00911"
         id="tspan15219-7"
         sodipodi:role="line">0</tspan></text>
    <text
       id="text15251"
       y="218.99506"
       x="11.399201"
       style="font-style:italic;font-variant:normal;font-weight:normal;font-stretch:normal;font-size:12px;line-height:6.66666651px;font-family:Arial;-inkscape-font-specification:'Arial Italic';text-align:start;letter-spacing:1.8499999px;word-spacing:0px;text-anchor:start;fill:#000000;fill-opacity:1;stroke:none"
       xml:space="preserve"><tspan
         y="218.99506"
         x="11.399201"
         id="tspan15249"
         sodipodi:role="line">LAKE</tspan></text>
    <text
       id="text15251-3"
       y="160.06004"
       x="10.927419"
       style="font-style:italic;font-variant:normal;font-weight:normal;font-stretch:normal;font-size:12px;line-height:6.66666651px;font-family:Arial;-inkscape-font-specification:'Arial Italic';text-align:start;letter-spacing:1.8499999px;word-spacing:0px;text-anchor:start;fill:#000000;fill-opacity:1;stroke:none"
       xml:space="preserve"><tspan
         y="160.06004"
         x="10.927419"
         id="tspan15249-4"
         sodipodi:role="line">UTAH</tspan></text>
    <text
       transform="rotate(-5.7499482)"
       id="text15273"
       y="195.68869"
       x="48.862839"
       style="font-style:italic;font-variant:normal;font-weight:normal;font-stretch:normal;font-size:8px;line-height:6.66666651px;font-family:Arial;-inkscape-font-specification:'Arial Italic';text-align:start;letter-spacing:-0.2px;word-spacing:0px;text-anchor:start;fill:#000000;fill-opacity:1;stroke:none"
       xml:space="preserve"><tspan
         y="195.68869"
         x="48.862839"
         id="tspan15271"
         sodipodi:role="line">PROVO</tspan></text>
    <text
       id="text15273-3"
       style="font-style:italic;font-variant:normal;font-weight:normal;font-stretch:normal;font-size:8px;line-height:6.66666651px;font-family:Arial;-inkscape-font-specification:'Arial Italic';text-align:start;letter-spacing:1.20000005px;word-spacing:0px;text-anchor:start;fill:#000000;fill-opacity:1;stroke:none"
       xml:space="preserve"><textPath
         id="textPath15295"
         xlink:href="#path15293"><tspan
   style="letter-spacing:1.20000005px"
   id="tspan15271-0">RIVER</tspan></textPath></text>
    <text
       id="text15300"
       y="180.43269"
       x="34.058258"
       style="font-style:normal;font-variant:normal;font-weight:normal;font-stretch:normal;font-size:5.33333349px;line-height:6px;font-family:Arial;-inkscape-font-specification:Arial;text-align:center;letter-spacing:0.63px;word-spacing:0px;text-anchor:middle;fill:#000000;fill-opacity:1;stroke:none"
       xml:space="preserve"><tspan
         y="180.43269"
         x="35.427841"
         id="tspan15298"
         sodipodi:role="line">PROVO  </tspan><tspan
         id="tspan15302"
         y="186.43269"
         x="35.427841"
         sodipodi:role="line">BOAT   </tspan><tspan
         id="tspan15304"
         y="192.43269"
         x="34.373257"
         sodipodi:role="line">HARBOR</tspan></text>
    <text
       id="text15308"
       y="288.56137"
       x="85.509293"
       style="font-style:italic;font-variant:normal;font-weight:normal;font-stretch:normal;font-size:10.66666698px;line-height:6.66666651px;font-family:Arial;-inkscape-font-specification:'Arial Italic';text-align:start;letter-spacing:0.63px;word-spacing:0px;text-anchor:start;fill:#000000;fill-opacity:1;stroke:none"
       xml:space="preserve"><tspan
         y="288.56137"
         x="85.509293"
         id="tspan15306"
         sodipodi:role="line">PROVO   BAY</tspan></text>
    <text
       id="text15312"
       y="288.68903"
       x="18.672001"
       style="font-style:normal;font-variant:normal;font-weight:normal;font-stretch:normal;font-size:5.33333349px;line-height:6.66666651px;font-family:Arial;-inkscape-font-specification:Arial;text-align:start;letter-spacing:0.63px;word-spacing:0px;text-anchor:start;fill:#000000;fill-opacity:1;stroke:none"
       xml:space="preserve"><tspan
         y="288.68903"
         x="18.672001"
         id="tspan15310"
         sodipodi:role="line">UTAH</tspan></text>
  </g>
</svg>
