<?xml version="1.0" encoding="UTF-8" standalone="no"?>
<!-- Created with Inkscape (http://www.inkscape.org/) -->

<svg
   xmlns:dc="http://purl.org/dc/elements/1.1/"
   xmlns:cc="http://creativecommons.org/ns#"
   xmlns:rdf="http://www.w3.org/1999/02/22-rdf-syntax-ns#"
   xmlns:svg="http://www.w3.org/2000/svg"
   xmlns="http://www.w3.org/2000/svg"
   xmlns:sodipodi="http://sodipodi.sourceforge.net/DTD/sodipodi-0.dtd"
   xmlns:inkscape="http://www.inkscape.org/namespaces/inkscape"
   version="1.1"
   id="svg5964"
   width="210.56"
   height="248.96001"
   viewBox="0 0 210.56 248.96001"
   sodipodi:docname="ec01jn91.059.svg"
   inkscape:version="0.92.2 5c3e80d, 2017-08-06">
  <metadata
     id="metadata5970">
    <rdf:RDF>
      <cc:Work
         rdf:about="">
        <dc:format>image/svg+xml</dc:format>
        <dc:type
           rdf:resource="http://purl.org/dc/dcmitype/StillImage" />
        <dc:title></dc:title>
      </cc:Work>
    </rdf:RDF>
  </metadata>
  <defs
     id="defs5968" />
  <sodipodi:namedview
     pagecolor="#ffffff"
     bordercolor="#666666"
     borderopacity="1"
     objecttolerance="10"
     gridtolerance="10"
     guidetolerance="10"
     inkscape:pageopacity="0"
     inkscape:pageshadow="2"
     inkscape:window-width="1280"
     inkscape:window-height="756"
     id="namedview5966"
     showgrid="false"
     inkscape:snap-global="false"
     inkscape:zoom="2.1631414"
     inkscape:cx="107.56591"
     inkscape:cy="160.21553"
     inkscape:window-x="0"
     inkscape:window-y="0"
     inkscape:window-maximized="0"
     inkscape:current-layer="svg5964" />
  <path
     style="fill:none;stroke:#000000;stroke-width:1;stroke-linecap:butt;stroke-linejoin:miter;stroke-miterlimit:4;stroke-dasharray:none;stroke-opacity:1"
     d="m 8.6404012,20.576176 -0.002,220.513244 H 200.58819 l 0.002,-220.513244 z"
     id="path14359-1-7-5-3-0-73-1-9-8-1"
     inkscape:connector-curvature="0"
     sodipodi:nodetypes="ccccc" />
  <path
     style="fill:none;stroke:#000000;stroke-width:0.5;stroke-linecap:round;stroke-linejoin:round;stroke-miterlimit:4;stroke-dasharray:none;stroke-opacity:1"
     d="m 184.63488,29.99942 1.3295,1.305225 c -0.35257,0.436154 -0.51277,0.8722 -0.52828,1.308451 -0.0392,1.101386 0.73253,1.434195 0.72415,2.781741 -0.008,1.315852 -0.95482,3.235309 -2.33817,3.329932 -0.71937,0.04919 -0.73652,-0.348044 -1.38683,-0.348626 -0.53908,-4.87e-4 -0.80524,0.327648 -1.11323,0.348626 -0.308,-0.02097 -0.57415,-0.349113 -1.11324,-0.348626 -0.65031,5.82e-4 -0.66746,0.397835 -1.38683,0.348626 -1.38336,-0.09463 -2.32998,-2.01408 -2.33818,-3.329932 -0.008,-1.347546 0.76331,-1.680355 0.72416,-2.781741 -0.0155,-0.436251 -0.17572,-0.872297 -0.52828,-1.308451 l 1.3295,-1.305225 c 1.00221,0.723855 2.25498,0.802309 3.31287,0.156631 1.05787,0.645678 2.31064,0.567224 3.31286,-0.156631 z"
     id="path14359-1-7-5-3-0-73-1-9-8-2-1-8-1-3-8"
     inkscape:connector-curvature="0"
     sodipodi:nodetypes="ccsssscsssscccc" />
  <path
     style="fill:#000000;stroke:#000000;stroke-width:0.5;stroke-linecap:round;stroke-linejoin:round;stroke-miterlimit:4;stroke-dasharray:none;stroke-opacity:1;fill-opacity:1"
     d="m 177.1532,32.218894 c -0.0748,-0.304768 -0.22722,-0.609482 -0.47357,-0.914249 l 1.3295,-1.305225 c 1.00221,0.723855 2.25498,0.802309 3.31287,0.156631 1.05787,0.645678 2.31064,0.567224 3.31286,-0.156631 l 2e-5,0 1.3295,1.305225 c -0.24795,0.306731 -0.40076,0.61341 -0.47501,0.920143 z"
     id="path14359-1-7-5-3-0-73-1-9-8-2-1-8-1-3-8-8"
     inkscape:connector-curvature="0"
     sodipodi:nodetypes="ccccccccc" />
  <path
     style="fill:none;stroke:#000000;stroke-width:0.5;stroke-linecap:round;stroke-linejoin:round;stroke-miterlimit:4;stroke-dasharray:none;stroke-opacity:1"
     d="m 105.42625,130.9975 1.3295,1.30523 c -0.35257,0.43615 -0.51277,0.8722 -0.52828,1.30845 -0.0392,1.10139 0.73253,1.43419 0.72415,2.78174 -0.008,1.31585 -0.95482,3.23531 -2.33817,3.32993 -0.71937,0.0492 -0.73652,-0.34804 -1.38683,-0.34862 -0.53908,-4.9e-4 -0.80524,0.32764 -1.11323,0.34862 -0.308,-0.021 -0.57415,-0.34911 -1.11324,-0.34862 -0.65031,5.8e-4 -0.66746,0.39783 -1.386831,0.34862 -1.38336,-0.0946 -2.32998,-2.01408 -2.33818,-3.32993 -0.008,-1.34755 0.76331,-1.68035 0.72416,-2.78174 -0.0155,-0.43625 -0.17572,-0.8723 -0.52828,-1.30845 l 1.3295,-1.30523 c 1.00221,0.72386 2.254981,0.80231 3.312871,0.15663 1.05787,0.64568 2.31064,0.56723 3.31286,-0.15663 z"
     id="path14359-1-7-5-3-0-73-1-9-8-2-1-8-1-3-8-83"
     inkscape:connector-curvature="0"
     sodipodi:nodetypes="ccsssscsssscccc" />
  <path
     style="fill:#000000;fill-opacity:1;stroke:#000000;stroke-width:0.5;stroke-linecap:round;stroke-linejoin:round;stroke-miterlimit:4;stroke-dasharray:none;stroke-opacity:1"
     d="m 97.944569,133.21698 c -0.0748,-0.30477 -0.22722,-0.60948 -0.47357,-0.91425 l 1.3295,-1.30523 c 1.00221,0.72386 2.254981,0.80231 3.312871,0.15663 1.05787,0.64568 2.31064,0.56723 3.31286,-0.15663 h 2e-5 l 1.3295,1.30523 c -0.24795,0.30673 -0.40076,0.61341 -0.47501,0.92014 z"
     id="path14359-1-7-5-3-0-73-1-9-8-2-1-8-1-3-8-8-5"
     inkscape:connector-curvature="0"
     sodipodi:nodetypes="ccccccccc" />
  <path
     style="fill:none;stroke:#000000;stroke-width:0.5;stroke-linecap:round;stroke-linejoin:round;stroke-miterlimit:4;stroke-dasharray:none;stroke-opacity:1"
     d="m 85.203305,168.11451 1.3295,1.30523 c -0.35257,0.43615 -0.51277,0.8722 -0.52828,1.30845 -0.0392,1.10138 0.73253,1.43419 0.72415,2.78174 -0.008,1.31585 -0.95482,3.23531 -2.33817,3.32993 -0.71937,0.0492 -0.73652,-0.34804 -1.38683,-0.34862 -0.53908,-4.9e-4 -0.80524,0.32764 -1.11323,0.34862 -0.308,-0.021 -0.57415,-0.34911 -1.11324,-0.34862 -0.65031,5.8e-4 -0.66746,0.39783 -1.38683,0.34862 -1.38336,-0.0946 -2.32998,-2.01408 -2.33818,-3.32993 -0.008,-1.34755 0.76331,-1.68036 0.72416,-2.78174 -0.0155,-0.43625 -0.17572,-0.8723 -0.52828,-1.30845 l 1.3295,-1.30523 c 1.00221,0.72386 2.25498,0.80231 3.31287,0.15663 1.05787,0.64568 2.31064,0.56723 3.31286,-0.15663 z"
     id="path14359-1-7-5-3-0-73-1-9-8-2-1-8-1-3-8-2"
     inkscape:connector-curvature="0"
     sodipodi:nodetypes="ccsssscsssscccc" />
  <path
     style="fill:#000000;fill-opacity:1;stroke:#000000;stroke-width:0.5;stroke-linecap:round;stroke-linejoin:round;stroke-miterlimit:4;stroke-dasharray:none;stroke-opacity:1"
     d="m 77.721625,170.33399 c -0.0748,-0.30477 -0.22722,-0.60949 -0.47357,-0.91425 l 1.3295,-1.30523 c 1.00221,0.72386 2.25498,0.80231 3.31287,0.15663 1.05787,0.64568 2.31064,0.56723 3.31286,-0.15663 h 2e-5 l 1.3295,1.30523 c -0.24795,0.30673 -0.40076,0.61341 -0.47501,0.92014 z"
     id="path14359-1-7-5-3-0-73-1-9-8-2-1-8-1-3-8-8-2"
     inkscape:connector-curvature="0"
     sodipodi:nodetypes="ccccccccc" />
  <path
     style="fill:none;stroke:#000000;stroke-width:0.5;stroke-linecap:round;stroke-linejoin:round;stroke-miterlimit:4;stroke-dasharray:none;stroke-opacity:1"
     d="m 44.091642,138.90359 1.3295,1.30523 c -0.35257,0.43615 -0.51277,0.8722 -0.52828,1.30845 -0.0392,1.10139 0.73253,1.43419 0.72415,2.78174 -0.008,1.31585 -0.95482,3.23531 -2.33817,3.32993 -0.71937,0.0492 -0.73652,-0.34804 -1.38683,-0.34862 -0.53908,-4.9e-4 -0.80524,0.32764 -1.11323,0.34862 -0.308,-0.021 -0.57415,-0.34911 -1.11324,-0.34862 -0.65031,5.8e-4 -0.66746,0.39783 -1.38683,0.34862 -1.38336,-0.0946 -2.32998,-2.01408 -2.33818,-3.32993 -0.008,-1.34755 0.76331,-1.68035 0.72416,-2.78174 -0.0155,-0.43625 -0.17572,-0.8723 -0.52828,-1.30845 l 1.3295,-1.30523 c 1.00221,0.72386 2.25498,0.80231 3.31287,0.15663 1.05787,0.64568 2.31064,0.56723 3.31286,-0.15663 z"
     id="path14359-1-7-5-3-0-73-1-9-8-2-1-8-1-3-8-6"
     inkscape:connector-curvature="0"
     sodipodi:nodetypes="ccsssscsssscccc" />
  <path
     style="opacity:1;vector-effect:none;fill:none;fill-opacity:1;fill-rule:evenodd;stroke:#000000;stroke-width:0.5;stroke-linecap:round;stroke-linejoin:round;stroke-miterlimit:4;stroke-dasharray:none;stroke-dashoffset:0;stroke-opacity:1"
     d="m 61.283244,133.08585 c -3e-6,1.19776 -0.97098,2.16874 -2.168742,2.16874 -1.197762,0 -2.168739,-0.97098 -2.168742,-2.16874 -3e-6,-1.19777 0.970976,-2.16875 2.168742,-2.16875 1.197766,0 2.168745,0.97098 2.168742,2.16875 z"
     id="path7137"
     inkscape:connector-curvature="0"
     sodipodi:nodetypes="sssss" />
  <path
     style="fill:none;stroke:#000000;stroke-width:2;stroke-linecap:round;stroke-linejoin:miter;stroke-miterlimit:4;stroke-dasharray:none;stroke-opacity:1"
     d="m 59.154269,133.10158 -0.002,-0.007"
     id="path14359-1-7-5-3-0-73-1-9-8"
     inkscape:connector-curvature="0"
     sodipodi:nodetypes="cc" />
  <path
     style="opacity:1;vector-effect:none;fill:none;fill-opacity:1;fill-rule:evenodd;stroke:#000000;stroke-width:0.5;stroke-linecap:round;stroke-linejoin:round;stroke-miterlimit:4;stroke-dasharray:none;stroke-dashoffset:0;stroke-opacity:1"
     d="m 139.10214,137.29699 c -1e-5,1.19776 -0.97098,2.16874 -2.16874,2.16874 -1.19777,0 -2.16874,-0.97098 -2.16875,-2.16874 0,-1.19777 0.97098,-2.16875 2.16875,-2.16875 1.19776,0 2.16874,0.97098 2.16874,2.16875 z"
     id="path7137-7"
     inkscape:connector-curvature="0"
     sodipodi:nodetypes="sssss" />
  <path
     style="fill:none;stroke:#000000;stroke-width:2;stroke-linecap:round;stroke-linejoin:miter;stroke-miterlimit:4;stroke-dasharray:none;stroke-opacity:1"
     d="m 136.97316,137.31272 -0.002,-0.007"
     id="path14359-1-7-5-3-0-73-1-9-8-8"
     inkscape:connector-curvature="0"
     sodipodi:nodetypes="cc" />
  <path
     style="opacity:1;vector-effect:none;fill:none;fill-opacity:1;fill-rule:evenodd;stroke:#000000;stroke-width:0.5;stroke-linecap:round;stroke-linejoin:round;stroke-miterlimit:4;stroke-dasharray:none;stroke-dashoffset:0;stroke-opacity:1"
     d="m 137.64022,185.61004 c -1e-5,1.19776 -0.97098,2.16874 -2.16874,2.16874 -1.19777,0 -2.16874,-0.97098 -2.16875,-2.16874 0,-1.19777 0.97098,-2.16875 2.16875,-2.16875 1.19776,0 2.16874,0.97098 2.16874,2.16875 z"
     id="path7137-4"
     inkscape:connector-curvature="0"
     sodipodi:nodetypes="sssss" />
  <path
     style="fill:none;stroke:#000000;stroke-width:2;stroke-linecap:round;stroke-linejoin:miter;stroke-miterlimit:4;stroke-dasharray:none;stroke-opacity:1"
     d="m 135.51124,185.62577 -0.002,-0.007"
     id="path14359-1-7-5-3-0-73-1-9-8-17"
     inkscape:connector-curvature="0"
     sodipodi:nodetypes="cc" />
  <path
     style="opacity:1;vector-effect:none;fill:none;fill-opacity:1;fill-rule:evenodd;stroke:#000000;stroke-width:0.5;stroke-linecap:round;stroke-linejoin:round;stroke-miterlimit:4;stroke-dasharray:none;stroke-dashoffset:0;stroke-opacity:1"
     d="m 137.12633,220.86895 c 0,1.19776 -0.97098,2.16874 -2.16874,2.16874 -1.19776,0 -2.16874,-0.97098 -2.16874,-2.16874 0,-1.19777 0.97098,-2.16875 2.16874,-2.16875 1.19777,0 2.16875,0.97098 2.16874,2.16875 z"
     id="path7137-1"
     inkscape:connector-curvature="0"
     sodipodi:nodetypes="sssss" />
  <path
     style="fill:none;stroke:#000000;stroke-width:2;stroke-linecap:round;stroke-linejoin:miter;stroke-miterlimit:4;stroke-dasharray:none;stroke-opacity:1"
     d="m 134.99736,220.88468 -0.002,-0.007"
     id="path14359-1-7-5-3-0-73-1-9-8-87"
     inkscape:connector-curvature="0"
     sodipodi:nodetypes="cc" />
  <path
     style="fill:none;stroke:#000000;stroke-width:0.5;stroke-linecap:butt;stroke-linejoin:miter;stroke-miterlimit:4;stroke-dasharray:none;stroke-opacity:1"
     d="m 165.18016,220.45007 -2.27307,-8.59033 -2.24662,8.55987 2.29031,-2.20843 z"
     id="path14359-1-7-5-3-0-73-1-9-8-4"
     inkscape:connector-curvature="0"
     sodipodi:nodetypes="ccccc" />
  <path
     style="fill:#000000;fill-opacity:1;stroke:#000000;stroke-width:0.5;stroke-linecap:butt;stroke-linejoin:miter;stroke-miterlimit:4;stroke-dasharray:none;stroke-opacity:1"
     d="m 162.95078,218.21118 2.22938,2.23889 -2.27307,-8.59033 z"
     id="path14359-1-7-5-3-0-73-1-9-8-4-4"
     inkscape:connector-curvature="0"
     sodipodi:nodetypes="cccc" />
  <path
     style="fill:none;stroke:#000000;stroke-width:0.5;stroke-linecap:round;stroke-linejoin:round;stroke-miterlimit:4;stroke-dasharray:none;stroke-opacity:1"
     d="m 120.03552,82.232299 0.84206,-0.0026 0.11353,0.848833 0.8364,0.398379 -9e-5,0.478028 -0.59768,0.199202 0.51535,0.651049 0.12165,1.06196 c 0.69185,0.455873 1.37309,1.330222 1.3465,1.991366 -0.10926,-0.597517 -0.37187,-0.939451 -0.79981,-1.005825 l -0.33769,0.432661 -0.20283,0.762286 -0.72593,-1.644697 -1.08307,-0.05866 -0.74709,0.901006 -1.40447,-0.210952 -0.11791,-1.195205 -1.10751,-0.883477 0.89948,-1.279351 0.32101,-0.845185 0.0115,0.634938 1.8357,0.01006 0.001,-0.795937 z"
     id="path14359-1-7-5-3-0-73-1-9-8-15"
     inkscape:connector-curvature="0"
     sodipodi:nodetypes="cccccccccccccccccccccccc" />
  <path
     style="fill:#000000;fill-opacity:1;stroke:#000000;stroke-width:0.5;stroke-linecap:round;stroke-linejoin:round;stroke-miterlimit:4;stroke-dasharray:none;stroke-opacity:1"
     d="m 169.57426,50.166767 c -0.58381,0.24225 -1.10877,0.31419 -1.50995,0.715372 -0.62199,0.621991 -2.06316,0.379617 -2.67045,0.986906 -0.77498,0.774979 -2.00499,1.366409 -2.78656,2.147972 -0.25814,0.258139 -0.38655,0.734875 -0.63858,0.986906 -0.22284,0.222835 -2.39145,0.649845 -2.90267,1.161066 -0.18824,0.188242 -0.193,0.657431 -0.40637,0.8708 -0.51564,0.515642 -1.22303,0.874703 -1.79965,1.451332 -0.26017,0.260165 -0.8466,0.149957 -1.10302,0.406373 -0.91186,0.911865 -2.86665,1.24116 -3.88957,2.264079 -0.63291,0.632916 -1.73893,0.984238 -2.38018,1.625493 -0.2848,0.2848 -0.57412,0.806332 -0.92886,1.161066 -0.36518,0.365186 -1.11083,0.820567 -1.45133,1.161066 -0.20977,0.209775 -0.30817,0.598441 -0.52248,0.812746 -0.6192,0.6192 -0.36281,3.396076 -0.81275,4.295945 0.3559,1.189257 0.27134,2.543602 0,3.134878 -0.28054,-0.14343 -1.56009,-1.865051 -1.74159,-1.683549 -0.0131,0.01314 1.25599,2.511981 1.39328,2.786559 0.46613,0.932263 -1.2973,1.993939 -1.68355,2.380185 -0.0729,0.07288 -0.53589,1.478152 -0.69664,1.799653 -0.30853,0.617057 0.68789,1.549945 0.8708,1.915759 0.19753,0.395053 -0.16799,0.748527 -0.29027,0.870799 -0.46932,0.46932 -0.97861,3.591008 -1.21912,3.831518 -0.50502,0.505021 -3.78764,-0.218036 -4.06373,0.05805 -0.13817,0.138168 -0.65529,0.0167 -0.81274,0.17416 -0.15405,0.154043 0.0864,0.23357 0,0.406373 -0.0864,0.172841 -0.32217,0.08996 -0.40638,0.17416 -0.23168,0.231678 -1.18077,-0.32861 -1.50938,0 -0.21209,0.21209 -0.22138,0.69664 -0.63859,0.69664 -0.14799,0 -0.62052,0.134177 -0.69664,0.05805 -0.0398,-0.03984 -0.16394,-1.229335 -0.46443,-0.928853 -0.55938,0.559385 1.14535,1.161067 -1.33522,1.161067 -0.84829,0 -0.90728,-0.279478 -1.50939,-0.580534 -0.3041,-0.152048 -0.72224,-0.06659 -1.04496,-0.174159 -0.74744,-0.249149 -1.79965,0.305508 -1.79965,0.05805 0,-0.05825 0.97127,0.357248 1.04496,0.406373 0.48502,0.323346 1.04181,0.34203 1.27717,0.812746 0.13894,0.277867 0.33325,0.391298 0.58054,0.638587 0.0721,0.07206 -0.15883,1.481999 0.0581,1.915759 0.21147,0.422937 0.69753,0.05894 0.92885,0.290266 0.5202,0.520201 0.3856,2.80306 0.75469,3.541252 0.36949,0.738963 0.99878,1.579312 1.56744,2.147972 0.29827,0.298265 -0.32639,0.453464 -0.75469,0.754693 -0.34951,0.174758 -0.1161,1.190322 -0.1161,1.567439 v 4.586208 c 0,0.111 -0.36087,0.39379 -0.29027,0.46443 0.12801,0.12801 0.42769,0.13743 0.58053,0.29026 0.31233,0.31233 0.15004,1.58707 0.23221,1.91576 -0.14226,0.44031 1.26471,1.1735 0.63854,1.79967 -0.33531,0.3353 -0.13605,2.68862 0.11611,3.19293 0.18577,0.37154 -0.18577,1.02174 0,1.39328 0.49683,0.99366 -0.18305,2.53658 0.29026,3.4832 0.52262,1.04523 2.82665,6.71206 2.14798,8.0694 -0.21406,0.42811 -0.064,1.0569 -0.29027,1.50939 -0.56901,1.13801 -1.05025,1.34051 -1.7416,2.03187 -0.36373,0.36372 1.06106,1.14496 0.58053,1.62549 -0.48943,0.48943 -1.92932,1.59079 -0.91477,2.60535 0.17632,0.17632 0.25043,0.85856 0.33424,1.11006 0.20791,0.62372 -0.26273,1.94329 0.17416,2.38019 0.60696,0.60695 0.57964,2.78566 1.33523,3.54125 0.69093,0.69093 0.9398,2.04282 1.50938,2.6124 0.67799,0.79747 2.08562,1.65494 2.49629,1.74159 0.48388,0.1021 0.11114,1.33026 0.46443,1.68355 0.17904,0.17904 0.5219,0.28969 0.69664,0.46443 0.56284,0.56284 -0.0928,2.56606 0,2.84461 0.08,0.25032 0.12875,0.36096 0.23221,0.46443 0.15002,0.15001 0.56361,0.0411 0.7547,0.23221 0.23047,0.23048 0.47262,0.82094 0.75469,1.10301 0.86911,0.86911 -0.52215,2.32246 0.0581,2.90267 0.24351,0.2435 0.87075,0.34827 1.10302,0.58053 0.3974,0.39741 0.71732,0.77538 1.04495,1.10301 0.47918,0.47917 1.2206,0.58201 1.68355,1.04496 0.33428,0.33428 1.11217,0.41553 1.45133,0.75469 0.7454,0.7454 1.26951,1.44367 2.03187,2.20603 0.57635,1.22121 0.65889,1.88284 -0.34837,2.55435 -0.35728,0.40935 -0.84195,0.59513 -1.27717,0.81274 -0.33413,0.16706 -0.53405,0.65015 -0.7547,0.8708 -0.6869,0.6869 -1.85366,1.7686 -2.7285,2.20603 -1.04417,0.52208 -2.48906,0.92161 -3.19293,1.62549 -1.29812,1.35998 -0.46293,2.51986 -1.16107,3.07682 -0.038,0.0303 -0.23177,0.0576 -0.29026,0.69664 -0.0425,0.46441 -0.63153,0.41126 -0.46443,0.8708 0.50916,1.40024 -2.25403,0.85694 -2.55435,2.08992 -0.23336,0.95807 0.81275,1.83031 0.40638,2.96072 -0.14214,0.41499 -0.32294,0.72931 -0.58054,0.98691 -0.20335,0.20335 0.34832,0.74391 0.34832,0.92885 0,0.11616 0.21937,0.41922 0.11611,0.52248 -0.0986,0.0986 -0.39573,0.31155 -0.29027,0.52248 0.28348,0.56695 0.40687,1.45183 0.7547,1.79965 0.15332,0.15333 0.10399,1.25295 0.23221,1.50939 0.31515,0.63031 -0.62553,0.96078 -0.81275,1.33522 -0.0422,0.0844 0.23222,1.82542 0.23222,2.20603 0,0.6242 0.009,2.27573 0,2.40921 -0.0295,0.43219 -0.1863,0.74994 -0.40638,1.19009 -0.30264,0.60528 -1.50669,1.15298 -1.7416,1.85771 -0.71493,0.26457 -1.40827,2.27908 -1.68354,2.55435 -0.20595,0.20594 -0.97148,-0.13154 -1.21912,0.1161 -0.20543,0.20543 -0.79608,0.15749 -0.98691,0.34832 -0.24513,0.24514 -0.49717,0.67133 -0.75469,0.92885 -0.10351,0.10352 1.36641,1.94263 0.92885,2.38019 -0.21414,0.21414 -1.24443,1.0524 -0.9869,1.56744 0.24972,0.49944 1.85209,1.05618 1.33522,2.08992 -0.31843,0.63686 0.10175,1.71227 -0.25953,3.06454 -0.36129,1.35226 -0.57553,1.92521 -0.37905,2.39247 0.74426,1.76991 0.22197,2.6506 0.9869,3.30904 0.0716,0.0716 3.80628,0.13251 4.354,0.40637 0.40455,0.20228 0.45616,0.74643 0.69664,0.98691 0.0583,0.0583 -0.25809,0.3805 -0.17416,0.46442 0.37184,0.37184 1.10624,0.52894 1.39328,1.10302 0.10438,0.20876 -0.22761,0.64318 -0.11611,0.75469 0.28092,0.28091 0.94617,2.34555 0.69664,2.84461 -0.52121,1.04241 -1.68354,1.4326 -1.68354,2.6124 -0.0254,0.49271 -0.31197,0.79808 -0.52248,1.21912 -0.22367,0.44733 -0.24054,0.70496 -0.52248,0.9869 -0.99862,0.99862 -4.41919,-1.38614 -5.63117,-0.17416 -0.50107,0.50107 -0.88159,1.93733 -1.33523,2.84462 -0.37716,0.75431 -1.48521,0.96273 -1.97381,1.45133 -0.17376,0.17375 0.24327,0.55841 0.1161,0.81275 -0.52671,1.05342 -0.29665,0.70302 -1.04496,1.45133 -0.071,0.071 0.69664,1.44141 0.69664,2.08992 0,0.21906 0.1054,1.40399 0.23222,1.27717 0.38368,-0.38368 -0.17987,-1.55603 0.0581,-2.03187 0.17106,-0.34212 0.44674,-0.0984 0.63859,-0.29026 0.53402,-0.53403 -0.5194,-2.32522 0.0581,-2.90267 0.16781,-0.16781 0.65988,-0.19545 0.8708,-0.40637 0.38495,-0.38495 0.90003,-1.07419 1.27717,-1.45133 0.60918,-0.60918 0.44406,-1.77929 0.98691,-2.32214 0.35946,-0.35945 3.63127,0.2482 4.06373,0.46443 0.54008,0.27004 1.24598,-0.64898 1.62549,-0.52248 1.27896,0.0458 0.30397,-1.92956 0.98681,-2.6124 1.3667,-1.3667 2.92302,-2.94036 0.92885,-4.93453 -0.14513,-0.14513 0.0871,-0.66761 -0.058,-0.81274 -0.58299,-0.58299 1.20981,-1.17037 0.69664,-1.68355 -0.33424,-0.33424 -1.17588,0.0432 -1.50939,-0.29027 -0.33096,-0.33096 -0.69721,-1.21969 -1.10301,-1.62549 -0.31926,-0.31925 -1.22598,-0.23907 -1.50939,-0.52248 -0.14206,-0.14206 -1.13286,0.4495 -1.45133,0.29027 -0.47341,-0.23671 -0.99495,-0.29832 -1.39328,-0.69664 -0.23419,-0.23419 -0.5205,-0.52051 -0.75469,-0.7547 -0.40177,-0.40177 0.41417,-3.29488 0.52248,-3.36709 0.18023,-0.22795 0.10853,-2.89513 0.17411,-2.96072 0.11354,-0.11354 0.63453,-0.41042 0.34832,-0.69664 -0.52252,-0.52251 -1.42723,-1.34506 -1.7416,-1.97381 -0.37298,-0.74595 1.17616,-0.78256 0.63858,-1.8577 -0.10941,-0.21883 -0.69337,-1.97708 -0.63858,-2.03187 0.50852,-0.50853 2.12704,-0.0371 3.07682,-0.9869 0.69841,-0.69842 0.70649,-2.49958 1.7416,-2.84462 0.66274,-0.5107 1.43194,-1.08362 1.85771,-1.50938 0.0542,-0.0542 -0.23221,-5.13662 -0.23221,-5.68923 0,-0.19292 1.92495,-1.32602 1.68354,-1.56744 -0.50487,-0.50487 -0.64608,-1.1105 -1.04496,-1.50938 -0.24934,-0.24935 0.14864,-1.12854 0,-1.27717 -0.21459,-0.2146 -0.4018,-0.45986 -0.58053,-0.63859 -0.0364,-0.0364 -0.0594,-2.08856 -0.0581,-2.08992 0.18074,-0.18074 0.43556,-0.37751 0.63858,-0.58053 0.21141,-0.21142 0.002,-0.87235 0.23221,-1.10302 0.39051,-0.3905 -1.11574,-1.72886 -0.87079,-1.97381 0.20541,-0.20541 0.84479,-0.33098 1.04495,-0.46442 1.13388,-0.007 0.37548,-0.89791 0.87085,-1.39328 0.26572,-0.26572 0.93777,-0.18308 1.21912,-0.46443 0.50065,-0.50065 -0.11552,-2.38135 0.23226,-3.07682 0.23335,-0.46672 0.59684,-0.88711 0.92885,-1.21912 0.74694,-0.74695 2.49986,-0.93243 2.84461,-1.27718 0.37242,-0.37241 1.06472,-0.60029 1.45133,-0.9869 0.50859,-0.50859 0.95209,-1.01015 1.45134,-1.50939 0.36171,-0.36172 0.92099,-0.39852 1.27717,-0.75469 0.64801,-0.64802 1.59511,-1.18874 2.20602,-1.79965 0.48747,-0.48747 -0.51458,-2.13218 -0.69663,-2.4963 -0.66194,-0.82036 -1.34801,-1.68096 -1.91576,-2.20602 -1.66297,-0.75316 -3.83089,-1.85704 -5.05068,-3.07683 -0.49835,-0.49834 0.22165,-2.21659 -0.23221,-2.67045 -0.47377,-0.47377 -0.79062,-1.31309 -1.21912,-1.7416 -0.26381,-0.26381 0.47845,-0.50845 0.29026,-0.69664 -0.8087,-0.8087 -1.13885,-2.29992 -1.97381,-3.13488 -0.93386,-0.93385 1.3259,-2.26407 -1.10301,-2.26407 -1.90839,-0.15074 -1.67653,-2.08291 -2.6124,-3.01878 -0.26201,-0.26201 0.50444,-0.48246 0.17416,-0.81274 -0.57036,-0.57036 -1.38375,-1.08396 -1.7416,-1.79966 -0.31798,-0.63595 -0.11611,-3.75728 -0.11611,-4.64426 0,-0.29834 -1.23545,-1.08668 -0.9869,-1.33523 0.54843,-0.54843 1.13697,-1.42723 1.7416,-2.03186 0.24984,-0.24985 -0.80007,-0.85812 -0.8708,-0.92885 -0.22975,-0.22976 1.23172,-1.6726 1.33522,-1.7416 -0.004,-0.8179 0.17416,-1.60356 0.17416,-2.38019 0,-0.28364 0.59593,-0.49169 0.40638,-0.8708 -0.58861,-1.17722 -0.52027,-3.24877 -1.39328,-4.12178 -0.21632,-0.21632 -0.49716,-2.56176 -0.7547,-3.07683 -0.44245,-0.8849 -9.4e-4,-2.67234 -0.40637,-3.4832 -0.27037,-0.54074 -0.26491,-3.1856 -0.0581,-3.5993 0.49718,-0.99437 0.20857,-1.96234 -0.52248,-2.20603 -0.65015,-0.40371 0.24393,-0.78941 0.0581,-1.16106 -0.90583,-1.81167 -0.69664,-1.52295 -0.72628,-3.84791 -0.0296,-2.324963 -0.0138,-3.887726 0.0877,-3.989288 0.19908,-0.199073 1.54815,0.03875 0.92886,-0.580533 -1.50672,-1.506714 -2.32214,-3.263448 -2.32214,-5.457011 0,-0.120266 -0.0765,-0.678158 0,-0.754693 0.2168,-0.216795 0.35198,-0.301227 0.46443,-0.638586 -0.16461,-1.238765 0.27158,-1.548763 0.87079,-2.147972 0.13657,-0.136565 0.58441,-0.0039 0.75469,-0.17416 0.0724,-0.07239 0.0181,-0.366422 0.11611,-0.464427 0.30808,-0.308083 0.65332,-0.595262 0.92885,-0.870799 0.25278,-0.252777 0.99873,0.452602 1.33523,0.116106 0.14513,-0.145133 0.20319,-0.377346 0.34832,-0.522479 0.0544,-0.0544 1.87857,-0.269404 2.08992,-0.05805 0.35416,0.354166 0.24679,0.885381 0.63858,1.277173 0.38815,0.388149 1.12983,0.78151 1.50939,1.161066 0.37955,0.379552 0.0148,0.943617 0.23221,1.161066 0.20452,0.204512 0.50341,-0.677563 0.69664,-0.870799 0.42049,-0.420491 1.45134,-0.516357 1.45134,-1.277173 0,-0.232491 0.39174,-1.117645 0.69664,-0.812746 0.58383,0.583834 1.10642,1.164482 1.56743,1.625492 0.23404,0.234033 -0.47392,1.151571 -0.34832,1.277173 0.40213,0.402129 2.58441,2.264079 3.07683,2.264079 0.0224,-0.06762 0.34047,-0.04235 0.40637,-0.174164 0.77689,-1.553772 2.24602,0.07612 2.78656,-0.464427 0.63287,-0.632866 0.69987,-2.731731 1.33523,-3.367091 0.20841,-0.208414 -0.0343,-0.8946 0.17416,-1.103013 0.3559,-0.3559 0.5439,-0.834169 0.81274,-1.103013 0.35754,-0.357531 0.89376,-0.429325 1.21912,-0.754693 0.0828,-0.08276 0.50973,0.02265 0.58054,0.05805 1.88528,0.942643 0.33309,1.66832 1.10301,2.438238 0.0538,0.05384 1.09175,-0.417637 1.45133,-0.05805 0.49925,0.499247 0.44157,1.312372 0.98691,1.857706 0.60113,0.601132 2.04439,0.941384 2.55434,1.451332 0.16146,0.161452 0.42342,0.307308 0.58054,0.464427 0.23924,0.239249 0.16936,0.803152 0.34832,1.161066 0.46972,0.939447 1.52738,1.56337 1.8577,2.554345 0.13915,0.157404 0.19152,0.42373 0.29027,0.522481 0.20711,0.207116 -0.0659,0.804915 0.1161,0.986906 0.50939,0.509388 1.82224,0.509585 2.20603,1.277173 0.34322,0.68644 0.341,1.269854 0.81275,1.741599 0.1973,0.197304 0.35549,-0.642174 0.46442,-0.69664 0.41009,-0.205044 1.22889,0.0098 1.45134,0.232213 0.80824,0.808249 1.5346,1.940976 2.38018,2.786556 0.52941,0.52942 1.52349,0.29732 2.20603,0.63859 0.57165,0.28583 1.40774,-0.0798 1.91576,0.17416 1.84396,0.92198 3.59781,-1.21763 4.35399,-1.973813 0.26927,-0.269268 0.49024,-1.199779 0.58054,-1.335226 0.66633,-1.162011 0.58631,-2.618183 1.33522,-3.367092 0.52185,-0.521844 -0.0483,-1.761174 0.29027,-2.438238 0.40066,-0.801324 0.66451,-0.664514 1.16106,-1.161066 0.25337,-0.253361 2.05224,0.2699 2.78656,-0.464427 0.0143,-0.01432 0.13546,-0.212862 0.0581,-0.290266 -0.17939,-0.179386 -1.10982,0.573725 -1.27718,0.406373 -0.40244,-0.402444 -1.87723,-0.735164 -2.55434,-0.05805 -0.62371,0.623714 -0.59855,3.385104 -0.75469,3.541252 -0.10548,0.10548 -0.0826,0.430932 -0.17416,0.52248 -1.57256,1.572554 -1.32928,5.689223 -3.88958,5.689223 -0.0968,-0.058 -0.18325,-0.13848 -0.2903,-0.17416 -0.20591,-0.0686 -0.75058,0.25918 -0.92886,0.34832 -0.33064,0.16532 -4.67057,-0.44856 -4.81842,-0.52248 -0.53041,-0.26521 -1.34964,-2.104333 -1.91576,-2.670455 -0.33325,-0.333256 -0.83365,-0.543388 -1.16106,-0.8708 -0.46213,-0.462123 -1.11736,0.450081 -1.50939,0.05805 -0.48904,-0.489036 -1.42853,-0.731888 -1.91576,-1.219119 -0.29674,-0.296742 0.1403,-1.369086 -0.17416,-1.683546 -0.46374,-0.46374 -0.83745,-0.953562 -1.27717,-1.393279 -0.34109,-0.341087 -0.97878,-0.572405 -1.27717,-0.8708 -0.0815,-0.08146 0.38456,-1.204687 0.17416,-1.625492 -0.30652,-0.613032 -2.23841,-1.335226 -2.90267,-1.335226 -1.03163,-0.467064 -1.33613,-1.510288 -1.91576,-2.089916 -0.26793,-0.267928 -1.02974,-0.259826 -1.21912,-0.638586 -0.44496,-0.889921 -0.35589,-1.458904 -1.04496,-2.147973 -0.14353,-0.143528 -0.51649,-0.110116 -0.63858,-0.232213 -0.31554,-0.315538 -1.86702,1.28648 -1.97382,1.393279 -0.38404,0.384043 -0.83379,0.564578 -1.10301,1.103013 -0.28147,0.562936 -0.53663,1.407431 -0.92885,1.799653 -0.0585,0.05854 0.68487,1.521152 0.1161,2.089919 -0.63104,0.631048 -2.04013,-0.165896 -2.32213,0.116106 -0.26131,0.26131 -0.47892,1.088512 -1.04496,0.52248 -0.65083,-0.650831 -1.43235,-1.316245 -2.03186,-1.915759 -0.42396,-0.423954 -0.0924,-1.079274 -0.52248,-1.509386 -0.70638,-0.706381 -1.53564,-1.071216 -2.26408,-1.799652 -0.0154,-0.01537 0.38611,-3.442678 0.46443,-3.599305 0.43359,-0.867184 -0.41165,-4.058456 -0.11611,-4.353998 0.57945,-0.579453 1.40113,-1.379166 2.03186,-1.799652 -0.15455,0.01064 0.21083,-0.311655 0.11611,-0.406374 -0.26482,-0.264824 -0.52794,-0.818203 -0.75469,-1.044959 -0.35618,-0.35618 0.17416,-1.864671 0.17416,-2.380185 0,-0.08615 -0.19954,-0.671262 -0.11611,-0.754693 0.31631,-0.31631 0.36674,-1.081807 0.58053,-1.509386 0.2329,-0.465792 -0.0584,-1.102292 0.17416,-1.567439 0.2992,-0.598396 -0.30177,-2.078415 0.17416,-2.554346 0.32584,-0.325838 0.78685,-0.438523 1.10302,-0.754693 0.14555,-0.145557 0.64097,0.113718 0.81274,-0.05805 0.51546,-0.515459 0.19394,-1.664406 0.92886,-2.031866 0.47142,-0.235714 2.08333,-0.980323 2.38018,-1.277172 0.18905,-0.189046 0.58308,-0.581807 0.92885,-0.754693 0.49536,-0.247678 2.38158,-0.523865 2.67046,-0.812747 0.23353,-0.233533 0.84902,-0.627699 1.21912,-0.812746 0.5469,-0.273454 2.02058,-1.440055 2.43823,-1.857706 0.29701,-0.29701 0.25912,-1.129918 0.58054,-1.451332 0.61103,-0.611034 1.77028,0.261581 2.32213,-0.290267 0.56793,-0.567928 -0.11188,-0.91091 0.98691,-1.277172 1.30286,-1.209289 2.54759,-1.88336 3.77346,-2.496295 0.009,-0.0043 0.9286,0.406631 1.33523,0 0.39374,-0.393745 0.99413,-0.645811 1.39328,-1.04496 0.21093,-0.210934 0.27654,-0.508761 0.46442,-0.696639 z m 7.8171,-3.593695 c 0.67004,-0.302972 0.99925,-0.56023 1.06449,-0.625467 0.46325,-0.463241 4.01275,0.181227 4.2379,0.406373 0.55327,0.553272 1.81876,-0.764247 2.03186,-0.8708 0.82626,-0.413128 1.18996,-0.812746 2.38019,-0.812746 0.0845,0 0.55003,0.843246 0.8708,0.52248 0.1239,-0.123906 0.0155,-0.352473 0.058,-0.522479 -0.17142,-0.429814 -0.62759,-0.432494 -1.10297,-0.406374 -0.30983,0.22907 -1.12948,-0.321847 -1.39327,-0.05805 -0.69074,0.690736 -1.43839,0.980435 -2.38019,1.451332 -0.13027,0.06513 -4.57647,-0.474162 -4.93453,-0.116106 -0.23084,0.230839 -0.45907,0.477229 -0.83898,0.753725 z"
     id="path7256"
     inkscape:connector-curvature="0"
     sodipodi:nodetypes="ccscccccccccccccccccscsscccssccsccsccccccccsscccccsccccscccscssscccscccsscccsccsssscssscccssscccsccscscsccscsccccssccsssscccsscscssccccsccscccccccccscccscccscsscccsccscccscsccsscsscccscscsccccccsccccccccsccccscccccccccccccccccccccccccccccccccccsccccscccccssccccscccsccccccccscccscccccccccccccsccccccccccscccccccc" />
  <path
     style="fill:none;stroke:#000000;stroke-width:1;stroke-linecap:butt;stroke-linejoin:miter;stroke-miterlimit:4;stroke-dasharray:none;stroke-opacity:1"
     d="m 195.13473,194.79351 -0.002,2.53129 -26.36639,0 0.002,-2.53129"
     id="path14359-1-7-5-3-0-73-1-9-8-5"
     inkscape:connector-curvature="0"
     sodipodi:nodetypes="cccc" />
  <path
     style="fill:none;stroke:#000000;stroke-width:1;stroke-linecap:butt;stroke-linejoin:miter;stroke-miterlimit:4;stroke-dasharray:none;stroke-opacity:1"
     d="m 184.78985,195.54044 -0.002,1.78436"
     id="path14359-1-7-5-3-0-73-1-9-8-2"
     inkscape:connector-curvature="0"
     sodipodi:nodetypes="cc" />
  <path
     style="fill:none;stroke:#000000;stroke-width:1;stroke-linecap:butt;stroke-linejoin:miter;stroke-miterlimit:4;stroke-dasharray:none;stroke-opacity:1"
     d="m 174.03415,195.54044 -0.002,1.78436"
     id="path14359-1-7-5-3-0-73-1-9-8-9"
     inkscape:connector-curvature="0"
     sodipodi:nodetypes="cc" />
  <path
     style="fill:none;stroke:#000000;stroke-width:1;stroke-linecap:butt;stroke-linejoin:miter;stroke-miterlimit:4;stroke-dasharray:none;stroke-opacity:1"
     d="m 189.86893,195.54044 -0.002,1.78436"
     id="path14359-1-7-5-3-0-73-1-9-8-82"
     inkscape:connector-curvature="0"
     sodipodi:nodetypes="cc" />
  <path
     style="fill:none;stroke:#000000;stroke-width:1;stroke-linecap:butt;stroke-linejoin:miter;stroke-miterlimit:4;stroke-dasharray:none;stroke-opacity:1"
     d="m 179.48669,195.54044 -0.002,1.78436"
     id="path14359-1-7-5-3-0-73-1-9-8-0"
     inkscape:connector-curvature="0"
     sodipodi:nodetypes="cc" />
  <path
     style="fill:none;stroke:#000000;stroke-width:1;stroke-linecap:butt;stroke-linejoin:miter;stroke-miterlimit:4;stroke-dasharray:none;stroke-opacity:1"
     d="m 177.32812,41.949653 -0.002,8.36625 -7.89543,0 0.002,-8.36625 z"
     id="path14359-1-7-5-3-0-73-1-9-8-7"
     inkscape:connector-curvature="0"
     sodipodi:nodetypes="ccccc" />
  <path
     style="fill:none;stroke:#000000;stroke-width:1;stroke-linecap:butt;stroke-linejoin:miter;stroke-miterlimit:4;stroke-dasharray:none;stroke-opacity:1"
     d="m 137.74427,56.99365 -0.002,8.36625 h -7.04187 l 0.002,-8.36625 z"
     id="path14359-1-7-5-3-0-73-1-9-8-7-5"
     inkscape:connector-curvature="0"
     sodipodi:nodetypes="ccccc" />
  <path
     style="fill:none;stroke:#000000;stroke-width:1;stroke-linecap:butt;stroke-linejoin:miter;stroke-miterlimit:4;stroke-dasharray:none;stroke-opacity:1"
     d="m 160.07909,62.826311 -0.002,8.36625 h -7.89543 l 0.002,-8.36625 z"
     id="path14359-1-7-5-3-0-73-1-9-8-7-8"
     inkscape:connector-curvature="0"
     sodipodi:nodetypes="ccccc" />
  <path
     style="fill:none;stroke:#000000;stroke-width:1;stroke-linecap:butt;stroke-linejoin:miter;stroke-miterlimit:4;stroke-dasharray:none;stroke-opacity:1"
     d="m 160.71926,47.462229 -0.002,8.36625 h -7.89543 l 0.002,-8.36625 z"
     id="path14359-1-7-5-3-0-73-1-9-8-7-3"
     inkscape:connector-curvature="0"
     sodipodi:nodetypes="ccccc" />
  <path
     style="fill:none;stroke:#000000;stroke-width:1;stroke-linecap:butt;stroke-linejoin:miter;stroke-miterlimit:4;stroke-dasharray:none;stroke-opacity:1"
     d="m 106.47499,166.96583 -0.002,8.36625 h -7.895428 l 0.002,-8.36625 z"
     id="path14359-1-7-5-3-0-73-1-9-8-7-0"
     inkscape:connector-curvature="0"
     sodipodi:nodetypes="ccccc" />
  <path
     style="fill:none;stroke:#000000;stroke-width:1;stroke-linecap:butt;stroke-linejoin:miter;stroke-miterlimit:4;stroke-dasharray:none;stroke-opacity:1"
     d="m 129.93351,142.35533 -0.002,8.36625 h -7.89543 l 0.002,-8.36625 z"
     id="path14359-1-7-5-3-0-73-1-9-8-7-6"
     inkscape:connector-curvature="0"
     sodipodi:nodetypes="ccccc" />
  <path
     style="fill:none;stroke:#000000;stroke-width:1;stroke-linecap:butt;stroke-linejoin:miter;stroke-miterlimit:4;stroke-dasharray:none;stroke-opacity:1"
     d="m 126.89647,114.39362 -0.002,8.36625 h -7.89543 l 0.002,-8.36625 z"
     id="path14359-1-7-5-3-0-73-1-9-8-7-2"
     inkscape:connector-curvature="0"
     sodipodi:nodetypes="ccccc" />
  <path
     style="fill:none;stroke:#000000;stroke-width:1;stroke-linecap:butt;stroke-linejoin:miter;stroke-miterlimit:4;stroke-dasharray:none;stroke-opacity:1"
     d="m 110.45456,113.55581 -0.002,8.36625 h -7.89543 l 0.002,-8.36625 z"
     id="path14359-1-7-5-3-0-73-1-9-8-7-25"
     inkscape:connector-curvature="0"
     sodipodi:nodetypes="ccccc" />
  <path
     style="fill:none;stroke:#000000;stroke-width:1;stroke-linecap:butt;stroke-linejoin:miter;stroke-miterlimit:4;stroke-dasharray:none;stroke-opacity:1"
     d="m 73.172279,136.38598 -0.002,8.36625 h -7.89543 l 0.002,-8.36625 z"
     id="path14359-1-7-5-3-0-73-1-9-8-7-22"
     inkscape:connector-curvature="0"
     sodipodi:nodetypes="ccccc" />
  <path
     style="fill:none;stroke:#000000;stroke-width:1;stroke-linecap:butt;stroke-linejoin:miter;stroke-miterlimit:4;stroke-dasharray:none;stroke-opacity:1"
     d="m 65.003689,117.53538 -0.002,8.36625 h -7.89543 l 0.002,-8.36625 z"
     id="path14359-1-7-5-3-0-73-1-9-8-7-7"
     inkscape:connector-curvature="0"
     sodipodi:nodetypes="ccccc" />
  <path
     style="fill:none;stroke:#000000;stroke-width:1;stroke-linecap:butt;stroke-linejoin:miter;stroke-miterlimit:4;stroke-dasharray:none;stroke-opacity:1"
     d="m 45.734195,118.16374 -0.002,8.1568 h -7.89543 l 0.002,-8.1568 z"
     id="path14359-1-7-5-3-0-73-1-9-8-7-1"
     inkscape:connector-curvature="0"
     sodipodi:nodetypes="ccccc" />
  <path
     style="fill:none;stroke:#000000;stroke-width:1;stroke-linecap:butt;stroke-linejoin:miter;stroke-miterlimit:4;stroke-dasharray:none;stroke-opacity:1"
     d="m 110.87346,180.78959 -0.002,8.1568 h -7.58125 l 0.002,-8.1568 z"
     id="path14359-1-7-5-3-0-73-1-9-8-7-52"
     inkscape:connector-curvature="0"
     sodipodi:nodetypes="ccccc" />
  <path
     style="fill:none;stroke:#000000;stroke-width:2;stroke-linecap:butt;stroke-linejoin:miter;stroke-miterlimit:4;stroke-dasharray:none;stroke-opacity:1"
     d="m 34.105651,30.06203 85.113519,84.65878 m 7.3763,7.67578 8.49524,8.09134"
     id="path14359-1-7-5-3-0-73-1-9-8-7-11"
     inkscape:connector-curvature="0"
     sodipodi:nodetypes="cccc" />
  <path
     style="fill:none;stroke:#000000;stroke-width:2;stroke-linecap:butt;stroke-linejoin:round;stroke-miterlimit:4;stroke-dasharray:none;stroke-opacity:1"
     d="M 155.82161,84.515523 155.71927,71.37348 m 3.2e-4,-8.576028 2.5e-4,-6.97238 m -0.20886,-8.506304 c 0.0151,-2.579824 0.34742,-4.044068 0.34892,-6.135826 0.003,-3.718458 -0.0892,-7.50664 -0.13911,-11.225099"
     id="path14359-1-7-5-3-0-73-1-9-8-7-01"
     inkscape:connector-curvature="0"
     sodipodi:nodetypes="cccccsc" />
  <path
     style="fill:none;stroke:#000000;stroke-width:2;stroke-linecap:butt;stroke-linejoin:round;stroke-miterlimit:4;stroke-dasharray:none;stroke-opacity:1"
     d="m 188.63693,52.032058 -27.69586,-0.002"
     id="path14359-1-7-5-3-0-73-1-9-8-7-01-8"
     inkscape:connector-curvature="0"
     sodipodi:nodetypes="cc" />
  <path
     style="fill:none;stroke:#000000;stroke-width:1;stroke-linecap:round;stroke-linejoin:round;stroke-miterlimit:4;stroke-dasharray:none;stroke-opacity:1"
     d="m 121.23226,82.690105 c 0.41165,-0.54371 1.04381,-1.344517 1.5659,-1.704586 1.49762,-1.032861 2.84935,-1.771898 4.3489,-2.804759 0.32936,-0.226855 0.25206,-1.375859 0.58419,-1.598762 2.00198,-1.3436 2.87306,-3.660612 4.25243,-4.56629 2.53931,-1.667286 4.79697,-3.257423 6.50419,-6.295359 0.75374,-0.517598 1.27777,-0.720441 1.87344,-0.789446 0.54731,-0.0634 0.32927,-0.785977 1.55378,-1.373768 2.72703,-1.30903 5.08706,-2.126105 9.09586,-2.24671 0.36332,-0.01093 0.9941,-0.213526 1.3039,-0.398203 1.11257,-0.663228 1.87976,-0.883778 2.73576,-1.490799 1.57862,-1.119463 2.85855,-2.374747 4.68174,-3.43797 m 1.42616,-0.731345 c 0.67539,-0.301089 1.58508,-1.515311 2.20823,-2.062987 1.67724,-1.474113 3.90652,-2.012758 5.96801,-3.201925 m 8.03584,-5.664651 c 0.25778,-0.222447 0.46207,-0.668004 0.83487,-0.671481 1.25927,-0.01174 2.26218,-0.294751 3.21229,-1.406736 0.43399,-0.507931 0.95881,-0.870984 1.55879,-1.309569 2.0785,-1.5194 4.23031,-3.383528 4.89795,-4.420118"
     id="path14359-1-7-5-3-0-73-1-9-8-7-01-7"
     inkscape:connector-curvature="0"
     sodipodi:nodetypes="csssscsssssccsccsssc" />
  <path
     style="fill:none;stroke:#000000;stroke-width:1;stroke-linecap:round;stroke-linejoin:round;stroke-miterlimit:4;stroke-dasharray:none;stroke-opacity:1"
     d="m 47.404102,166.10664 c -1.5281,-4.19512 -4.262762,-8.85605 -6.112459,-10.05553 -0.385062,-0.2497 0.02451,-1.44993 0.459435,-1.57299 1.348969,-0.38168 2.416347,-1.53758 3.853704,-3.70377 2.456097,-3.70151 5.042716,-10.95771 9.779314,-16.15149 0.843937,-0.9254 2.049545,-0.69936 3.559277,-0.93281 2.933441,-0.4536 5.510735,-0.22229 8.95671,-1.5115 3.442107,-1.28776 6.484196,-3.02629 9.823947,-5.17492 0.717626,-0.46169 1.329058,-0.57642 2.353352,-0.65441 2.65538,-0.20219 4.233152,-0.8767 5.915246,-3.4694 0.2463,-0.37964 0.985244,-0.46664 1.258064,-0.87708 1.766914,-2.65818 4.326259,-5.37473 7.486196,-6.74752 4.616882,-2.00574 9.797092,-3.26799 12.267592,-3.26091 3.9893,0.0114 4.02838,-2.94728 5.09263,-8.05264 1.8375,-8.814672 6.27047,-7.94978 6.34552,-11.357573 0.0442,-2.007429 0.0912,-3.127596 0.0366,-5.13758"
     id="path14359-1-7-5-3-0-73-1-9-8-7-01-6"
     inkscape:connector-curvature="0"
     sodipodi:nodetypes="cssssssssssssssc" />
  <path
     style="fill:none;stroke:#000000;stroke-width:1;stroke-linecap:round;stroke-linejoin:round;stroke-miterlimit:4;stroke-dasharray:none;stroke-opacity:1"
     d="m 136.6326,136.80939 c -1.55649,-0.56972 -3.51886,-0.88214 -5.61148,-0.8489 -5.81028,0.0923 -13.14049,2.78932 -19.6696,2.92573 -2.72527,0.0569 -1.75162,2.45455 -9.13911,2.68881 -6.175567,0.19583 -7.404752,-0.97045 -8.678888,-0.90481 -1.594069,0.0821 -1.681941,0.5575 -3.327367,0.56302 -3.36231,0.0113 -8.304467,0.42172 -10.386261,-1.35865 -0.864813,-0.73959 -1.61331,-1.45159 -2.786544,-1.3838 -1.319681,0.0762 -2.389978,-0.748 -3.688401,-1.05568 m -6.113451,-1.22488 c -3.153814,-1.0748 -5.403394,-2.00374 -8.012597,-2.60204"
     id="path14359-1-7-5-3-0-73-1-9-8-7-01-6-0"
     inkscape:connector-curvature="0"
     sodipodi:nodetypes="csssssssccc" />
  <path
     style="fill:none;stroke:#000000;stroke-width:1;stroke-linecap:round;stroke-linejoin:round;stroke-miterlimit:4;stroke-dasharray:none;stroke-opacity:1"
     d="m 50.587211,214.54364 c 0.498907,-0.18272 0.468431,-0.96468 0.562734,-2.26673 0.11794,-1.62842 2.094416,-3.25324 1.997577,-6.26884 -0.117807,-3.6686 -2.758179,-7.12711 -3.046716,-11.17483 -0.15531,-2.17875 1.392771,-3.69901 1.376746,-4.55761 -0.03414,-1.82914 -0.632318,-3.57436 -0.760336,-5.34713 -0.175692,-2.43297 -0.524974,-4.04159 -0.59495,-6.24904 -0.0871,-2.74761 -1.845658,-1.46981 -2.159482,-6.02295 -0.144444,-2.09568 -2.537994,-2.70592 -2.446101,-3.7263 0.08088,-0.89814 1.467687,-2.80229 2.343538,-2.79505 2.318817,0.0192 5.460813,1.94413 6.580701,3.25845 2.331353,2.73611 2.867439,2.16916 3.491714,2.21056 1.040099,0.069 1.306465,0.47349 3.97476,0.326 1.587306,-0.0877 1.11594,0.90425 4.737175,0.6736 3.411881,-0.21731 6.683046,0.70794 8.664245,3.22201 1.075438,1.36469 2.732928,2.60396 4.266089,3.65729 1.30156,0.89422 2.001298,0.33228 2.913925,0.9086 2.599896,1.64181 4.288035,2.22379 8.486811,2.75374 2.9876,0.37707 5.964445,0.73163 8.078743,0.7795 1.668666,0.0378 2.995876,-0.19949 4.190176,-0.90805 m 7.64934,-1.01904 c 4.99698,-0.0243 7.96641,4.48588 14.96577,4.39032 1.38607,-0.0189 2.91923,0.11401 4.19065,0.0201 0.60252,-0.0445 0.87757,-0.35494 1.54839,-0.35817 2.15676,-0.0104 4.78957,-0.0858 6.86153,-0.31582"
     id="path14359-1-7-5-3-0-73-1-9-8-7-01-6-09"
     inkscape:connector-curvature="0"
     sodipodi:nodetypes="cssssssssssssssssssccsssc" />
  <path
     style="fill:none;stroke:#000000;stroke-width:1;stroke-linecap:round;stroke-linejoin:round;stroke-miterlimit:4;stroke-dasharray:none;stroke-opacity:1"
     d="m 18.333041,177.09941 c 0.897342,1.17345 1.521927,2.41002 2.872799,3.06925 1.009354,0.49257 0.505161,1.2434 1.083512,1.78217 1.166353,1.08653 3.090734,0.42716 5.0414,1.99629 2.518932,2.02624 1.969856,3.29894 3.106602,4.21076 1.225391,0.98292 3.30633,1.03532 4.52388,1.9888 1.506565,1.17982 0.357052,1.63203 1.430605,2.53308 1.049943,0.88124 2.01423,0.86483 2.523619,1.42908 1.0637,1.17825 0.51159,1.60645 1.177574,2.30433 0.60146,0.63027 1.155285,1.03675 1.65071,1.68597 0.938072,1.22927 1.140907,2.57188 1.623766,3.88846 0.583828,1.59189 1.678632,0.76105 1.621798,1.92913 -0.09745,2.00277 0.421681,4.67784 0.640187,6.88145 0.08817,0.88918 0.531775,1.7804 0.524414,2.69973 -0.006,0.75234 -0.587956,1.49137 -0.559383,2.71436 0.02795,1.19618 -0.663857,2.32904 -0.608057,3.2217 0.03151,0.50408 0.105408,1.75894 0.638972,1.77918 0.902589,0.0342 1.258254,-0.89023 2.186294,-0.87956 0.615877,0.007 1.501242,0.92211 1.572381,2.03766 0.09705,1.52177 0.725748,2.39088 0.816245,3.52753 0.0431,0.5413 0.310071,1.04808 1.3087,0.98371 l 83.637811,-5.39061"
     id="path14359-1-7-5-3-0-73-1-9-8-7-01-6-5"
     inkscape:connector-curvature="0"
     sodipodi:nodetypes="cssssssssssssssssssssc" />
  <g
     id="g163"
     sodipodi:insensitive="true">
    <text
       id="text7477"
       y="46.898621"
       x="91.590759"
       style="font-style:normal;font-variant:normal;font-weight:normal;font-stretch:normal;font-size:9.33333302px;line-height:6.66666651px;font-family:Arial;-inkscape-font-specification:Arial;text-align:start;letter-spacing:0px;word-spacing:0px;text-anchor:start;fill:#000000;fill-opacity:1;stroke:none"
       xml:space="preserve"><tspan
         y="46.898621"
         x="91.590759"
         id="tspan7475"
         sodipodi:role="line">Nevada</tspan></text>
    <text
       id="text7477-8"
       y="39.996792"
       x="159.77682"
       style="font-style:normal;font-variant:normal;font-weight:normal;font-stretch:normal;font-size:6.66666651px;line-height:6.66666651px;font-family:Arial;-inkscape-font-specification:Arial;text-align:start;letter-spacing:0.2px;word-spacing:0px;text-anchor:start;fill:#000000;fill-opacity:1;stroke:none"
       xml:space="preserve"><tspan
         y="39.996792"
         x="159.77682"
         id="tspan7475-5"
         sodipodi:role="line">Utah</tspan></text>
    <text
       id="text7507"
       y="37.550594"
       x="177.46886"
       style="font-style:normal;font-variant:normal;font-weight:normal;font-stretch:normal;font-size:6.66666651px;line-height:6.66666651px;font-family:Arial;-inkscape-font-specification:Arial;text-align:start;letter-spacing:-0.05px;word-spacing:0px;text-anchor:start;fill:#000000;fill-opacity:1;stroke:none"
       xml:space="preserve"><tspan
         y="37.550594"
         x="177.46886"
         id="tspan7505"
         sodipodi:role="line">15</tspan></text>
    <text
       id="text7477-3"
       y="152.79616"
       x="151.87105"
       style="font-style:normal;font-variant:normal;font-weight:normal;font-stretch:normal;font-size:9.33333302px;line-height:6.66666651px;font-family:Arial;-inkscape-font-specification:Arial;text-align:start;letter-spacing:0.28px;word-spacing:0px;text-anchor:start;fill:#000000;fill-opacity:1;stroke:none"
       xml:space="preserve"><tspan
         y="152.79616"
         x="151.87105"
         id="tspan7475-9"
         sodipodi:role="line">Arizona</tspan></text>
    <text
       id="text7477-0"
       y="73.686905"
       x="165.37074"
       style="font-style:normal;font-variant:normal;font-weight:normal;font-stretch:normal;font-size:5.33333349px;line-height:6.66666651px;font-family:Arial;-inkscape-font-specification:Arial;text-align:start;letter-spacing:0.25px;word-spacing:0px;text-anchor:start;fill:#000000;fill-opacity:1;stroke:none"
       xml:space="preserve"><tspan
         y="73.686905"
         x="165.37074"
         id="tspan7475-56"
         sodipodi:role="line">Arizona</tspan></text>
    <text
       id="text7583"
       y="137.24445"
       x="139.38495"
       style="font-style:normal;font-variant:normal;font-weight:normal;font-stretch:normal;font-size:4px;line-height:6.66666651px;font-family:Arial;-inkscape-font-specification:Arial;text-align:start;letter-spacing:0.44999999px;word-spacing:0px;text-anchor:start;fill:#000000;fill-opacity:1;stroke:none"
       xml:space="preserve"><tspan
         y="137.24445"
         x="139.38495"
         id="tspan7581"
         sodipodi:role="line">Needles</tspan></text>
    <text
       transform="rotate(-101.28979)"
       id="text7583-3"
       y="116.59794"
       x="-145.33669"
       style="font-style:normal;font-variant:normal;font-weight:normal;font-stretch:normal;font-size:4px;line-height:6.66666651px;font-family:Arial;-inkscape-font-specification:Arial;text-align:start;letter-spacing:0.70999998px;word-spacing:0px;text-anchor:start;fill:#000000;fill-opacity:1;stroke:none"
       xml:space="preserve"><tspan
         y="116.59794"
         x="-145.33669"
         id="tspan7581-0"
         sodipodi:role="line">River</tspan></text>
    <text
       transform="rotate(0.76445179)"
       id="text7583-8"
       y="103.77332"
       x="172.40254"
       style="font-style:normal;font-variant:normal;font-weight:normal;font-stretch:normal;font-size:4px;line-height:6.66666651px;font-family:Arial;-inkscape-font-specification:Arial;text-align:start;letter-spacing:0.44999999px;word-spacing:0px;text-anchor:start;fill:#000000;fill-opacity:1;stroke:none"
       xml:space="preserve"><tspan
         y="103.77332"
         x="172.40254"
         id="tspan7581-4"
         sodipodi:role="line">River</tspan></text>
    <text
       transform="rotate(45.195594)"
       id="text7583-0"
       y="-46.348969"
       x="173.31642"
       style="font-style:normal;font-variant:normal;font-weight:normal;font-stretch:normal;font-size:4px;line-height:6.66666651px;font-family:Arial;-inkscape-font-specification:Arial;text-align:start;letter-spacing:0.44999999px;word-spacing:0px;text-anchor:start;fill:#000000;fill-opacity:1;stroke:none"
       xml:space="preserve"><tspan
         y="-46.348969"
         x="173.31642"
         id="tspan7581-46"
         sodipodi:role="line">Colorado</tspan></text>
    <text
       id="text7583-4"
       y="83.509705"
       x="101.75238"
       style="font-style:normal;font-variant:normal;font-weight:normal;font-stretch:normal;font-size:5.33333349px;line-height:5.33333349px;font-family:Arial;-inkscape-font-specification:Arial;text-align:start;letter-spacing:0px;word-spacing:0px;text-anchor:start;fill:#000000;fill-opacity:1;stroke:none"
       xml:space="preserve"><tspan
         y="83.509705"
         x="101.75238"
         id="tspan7581-6"
         sodipodi:role="line">Las</tspan><tspan
         id="tspan7647"
         y="88.84304"
         x="101.75238"
         sodipodi:role="line">Vegas</tspan></text>
    <text
       transform="rotate(-77.47795)"
       id="text7583-4-4"
       y="163.58211"
       x="-46.960293"
       style="font-style:normal;font-variant:normal;font-weight:normal;font-stretch:normal;font-size:4px;line-height:5.33333349px;font-family:Arial;-inkscape-font-specification:Arial;text-align:start;letter-spacing:0px;word-spacing:0px;text-anchor:start;fill:#000000;fill-opacity:1;stroke:none"
       xml:space="preserve"><tspan
         id="tspan7647-8"
         y="163.58211"
         x="-46.960293"
         sodipodi:role="line">Vegas</tspan></text>
    <text
       transform="rotate(-41.280936)"
       id="text7583-8-4"
       y="152.75035"
       x="78.430344"
       style="font-style:normal;font-variant:normal;font-weight:normal;font-stretch:normal;font-size:4px;line-height:6.66666651px;font-family:Arial;-inkscape-font-specification:Arial;text-align:start;letter-spacing:0.44999999px;word-spacing:0px;text-anchor:start;fill:#000000;fill-opacity:1;stroke:none"
       xml:space="preserve"><tspan
         y="152.75035"
         x="78.430344"
         id="tspan7581-4-0"
         sodipodi:role="line">River</tspan></text>
    <text
       id="text7752"
       y="54.412224"
       x="154.02228"
       style="font-style:normal;font-variant:normal;font-weight:normal;font-stretch:normal;font-size:8px;line-height:6.66666651px;font-family:Arial;-inkscape-font-specification:Arial;text-align:start;letter-spacing:0px;word-spacing:0px;text-anchor:start;fill:#000000;fill-opacity:1;stroke:none"
       xml:space="preserve"><tspan
         y="54.412224"
         x="154.02228"
         id="tspan7750"
         sodipodi:role="line">K</tspan></text>
    <text
       id="text7752-0"
       y="63.91563"
       x="133.12056"
       style="font-style:normal;font-variant:normal;font-weight:normal;font-stretch:normal;font-size:8px;line-height:6.66666651px;font-family:Arial;-inkscape-font-specification:Arial;text-align:start;letter-spacing:0px;word-spacing:0px;text-anchor:start;fill:#000000;fill-opacity:1;stroke:none"
       xml:space="preserve"><tspan
         y="63.91563"
         x="133.12056"
         id="tspan7750-4"
         sodipodi:role="line">I</tspan></text>
    <text
       id="text7752-8"
       y="69.759285"
       x="154.37021"
       style="font-style:normal;font-variant:normal;font-weight:normal;font-stretch:normal;font-size:8px;line-height:6.66666651px;font-family:Arial;-inkscape-font-specification:Arial;text-align:start;letter-spacing:0px;word-spacing:0px;text-anchor:start;fill:#000000;fill-opacity:1;stroke:none"
       xml:space="preserve"><tspan
         y="69.759285"
         x="154.37021"
         id="tspan7750-5"
         sodipodi:role="line">J</tspan></text>
    <text
       id="text7752-5"
       y="48.964981"
       x="171.29404"
       style="font-style:normal;font-variant:normal;font-weight:normal;font-stretch:normal;font-size:8px;line-height:6.66666651px;font-family:Arial;-inkscape-font-specification:Arial;text-align:start;letter-spacing:0px;word-spacing:0px;text-anchor:start;fill:#000000;fill-opacity:1;stroke:none"
       xml:space="preserve"><tspan
         y="48.964981"
         x="171.29404"
         id="tspan7750-54"
         sodipodi:role="line">L</tspan></text>
  </g>
  <g
     id="g208"
     sodipodi:insensitive="true">
    <path
       sodipodi:nodetypes="ccccccccc"
       inkscape:connector-curvature="0"
       id="path14359-1-7-5-3-0-73-1-9-8-2-1-8-1-3-8-8-6"
       d="m 36.609962,141.12307 c -0.0748,-0.30477 -0.22722,-0.60948 -0.47357,-0.91425 l 1.3295,-1.30523 c 1.00221,0.72386 2.25498,0.80231 3.31287,0.15663 1.05787,0.64568 2.31064,0.56723 3.31286,-0.15663 h 2e-5 l 1.3295,1.30523 c -0.24795,0.30673 -0.40076,0.61341 -0.47501,0.92014 z"
       style="fill:#000000;fill-opacity:1;stroke:#d10000;stroke-width:0.5;stroke-linecap:round;stroke-linejoin:round;stroke-miterlimit:4;stroke-dasharray:none;stroke-opacity:1" />
    <text
       id="text7477-6"
       y="89.85186"
       x="28.763165"
       style="font-style:normal;font-variant:normal;font-weight:normal;font-stretch:normal;font-size:9.33333302px;line-height:6.66666651px;font-family:Arial;-inkscape-font-specification:Arial;text-align:start;letter-spacing:0px;word-spacing:0px;text-anchor:start;fill:#000000;fill-opacity:1;stroke:none"
       xml:space="preserve"><tspan
         y="89.85186"
         x="28.763165"
         id="tspan7475-2"
         sodipodi:role="line">California</tspan></text>
    <text
       id="text7507-9"
       y="146.42569"
       x="37.119701"
       style="font-style:normal;font-variant:normal;font-weight:normal;font-stretch:normal;font-size:6.66666651px;line-height:6.66666651px;font-family:Arial;-inkscape-font-specification:Arial;text-align:start;letter-spacing:-0.05px;word-spacing:0px;text-anchor:start;fill:#000000;fill-opacity:1;stroke:none"
       xml:space="preserve"><tspan
         y="146.42569"
         x="37.119701"
         id="tspan7505-4"
         sodipodi:role="line">15</tspan></text>
    <text
       transform="rotate(-80.57272)"
       id="text7477-0-3"
       y="172.79041"
       x="-168.89255"
       style="font-style:normal;font-variant:normal;font-weight:normal;font-stretch:normal;font-size:5.33333349px;line-height:6.66666651px;font-family:Arial;-inkscape-font-specification:Arial;text-align:start;letter-spacing:0.25px;word-spacing:0px;text-anchor:start;fill:#000000;fill-opacity:1;stroke:none"
       xml:space="preserve"><tspan
         y="172.79041"
         x="-168.89255"
         id="tspan7475-56-6"
         sodipodi:role="line">Colorado</tspan></text>
    <text
       id="text7583-09"
       y="130.25015"
       x="53.432575"
       style="font-style:normal;font-variant:normal;font-weight:normal;font-stretch:normal;font-size:4px;line-height:6.66666651px;font-family:Arial;-inkscape-font-specification:Arial;text-align:start;letter-spacing:0.44999999px;word-spacing:0px;text-anchor:start;fill:#000000;fill-opacity:1;stroke:none"
       xml:space="preserve"><tspan
         y="130.25015"
         x="53.432575"
         id="tspan7581-3"
         sodipodi:role="line">Barstow</tspan></text>
    <text
       id="text7583-7"
       y="191.65898"
       x="121.06154"
       style="font-style:normal;font-variant:normal;font-weight:normal;font-stretch:normal;font-size:4px;line-height:6.66666651px;font-family:Arial;-inkscape-font-specification:Arial;text-align:start;letter-spacing:0.44999999px;word-spacing:0px;text-anchor:start;fill:#000000;fill-opacity:1;stroke:none"
       xml:space="preserve"><tspan
         y="191.65898"
         x="121.06154"
         id="tspan7581-5"
         sodipodi:role="line">Blythe</tspan></text>
    <text
       id="text7583-72"
       y="228.80501"
       x="133.46519"
       style="font-style:normal;font-variant:normal;font-weight:normal;font-stretch:normal;font-size:4px;line-height:6.66666651px;font-family:Arial;-inkscape-font-specification:Arial;text-align:start;letter-spacing:0.44999999px;word-spacing:0px;text-anchor:start;fill:#000000;fill-opacity:1;stroke:none"
       xml:space="preserve"><tspan
         y="228.80501"
         x="133.46519"
         id="tspan7581-9"
         sodipodi:role="line">Yuma</tspan></text>
    <text
       id="text7507-9-7"
       y="175.70575"
       x="78.053978"
       style="font-style:normal;font-variant:normal;font-weight:normal;font-stretch:normal;font-size:6.66666651px;line-height:6.66666651px;font-family:Arial;-inkscape-font-specification:Arial;text-align:start;letter-spacing:-0.05px;word-spacing:0px;text-anchor:start;fill:#000000;fill-opacity:1;stroke:none"
       xml:space="preserve"><tspan
         y="175.70575"
         x="78.053978"
         id="tspan7505-4-5"
         sodipodi:role="line">10</tspan></text>
    <text
       id="text7507-9-6"
       y="138.66129"
       x="98.649597"
       style="font-style:normal;font-variant:normal;font-weight:normal;font-stretch:normal;font-size:6.66666651px;line-height:6.66666651px;font-family:Arial;-inkscape-font-specification:Arial;text-align:start;letter-spacing:-0.05px;word-spacing:0px;text-anchor:start;fill:#000000;fill-opacity:1;stroke:none"
       xml:space="preserve"><tspan
         y="138.66129"
         x="98.649597"
         id="tspan7505-4-53"
         sodipodi:role="line">40</tspan></text>
    <text
       id="text7752-2"
       y="120.53078"
       x="103.29515"
       style="font-style:normal;font-variant:normal;font-weight:normal;font-stretch:normal;font-size:8px;line-height:6.66666651px;font-family:Arial;-inkscape-font-specification:Arial;text-align:start;letter-spacing:0px;word-spacing:0px;text-anchor:start;fill:#000000;fill-opacity:1;stroke:none"
       xml:space="preserve"><tspan
         y="120.53078"
         x="103.29515"
         id="tspan7750-1"
         sodipodi:role="line">G</tspan></text>
    <text
       id="text7752-9"
       y="174.03438"
       x="99.880028"
       style="font-style:normal;font-variant:normal;font-weight:normal;font-stretch:normal;font-size:8px;line-height:6.66666651px;font-family:Arial;-inkscape-font-specification:Arial;text-align:start;letter-spacing:0px;word-spacing:0px;text-anchor:start;fill:#000000;fill-opacity:1;stroke:none"
       xml:space="preserve"><tspan
         y="174.03438"
         x="99.880028"
         id="tspan7750-2"
         sodipodi:role="line">E</tspan></text>
    <text
       id="text7752-4"
       y="149.52138"
       x="123.93767"
       style="font-style:normal;font-variant:normal;font-weight:normal;font-stretch:normal;font-size:8px;line-height:6.66666651px;font-family:Arial;-inkscape-font-specification:Arial;text-align:start;letter-spacing:0px;word-spacing:0px;text-anchor:start;fill:#000000;fill-opacity:1;stroke:none"
       xml:space="preserve"><tspan
         y="149.52138"
         x="123.93767"
         id="tspan7750-58"
         sodipodi:role="line">F</tspan></text>
    <text
       id="text7752-6"
       y="121.51737"
       x="120.52254"
       style="font-style:normal;font-variant:normal;font-weight:normal;font-stretch:normal;font-size:8px;line-height:6.66666651px;font-family:Arial;-inkscape-font-specification:Arial;text-align:start;letter-spacing:0px;word-spacing:0px;text-anchor:start;fill:#000000;fill-opacity:1;stroke:none"
       xml:space="preserve"><tspan
         y="121.51737"
         x="120.52254"
         id="tspan7750-25"
         sodipodi:role="line">H</tspan></text>
    <text
       id="text7752-1"
       y="187.99844"
       x="104.35762"
       style="font-style:normal;font-variant:normal;font-weight:normal;font-stretch:normal;font-size:8px;line-height:6.66666651px;font-family:Arial;-inkscape-font-specification:Arial;text-align:start;letter-spacing:0px;word-spacing:0px;text-anchor:start;fill:#000000;fill-opacity:1;stroke:none"
       xml:space="preserve"><tspan
         y="187.99844"
         x="104.35762"
         id="tspan7750-3"
         sodipodi:role="line">D</tspan></text>
    <text
       id="text7752-97"
       y="124.89299"
       x="39.259094"
       style="font-style:normal;font-variant:normal;font-weight:normal;font-stretch:normal;font-size:8px;line-height:6.66666651px;font-family:Arial;-inkscape-font-specification:Arial;text-align:start;letter-spacing:0px;word-spacing:0px;text-anchor:start;fill:#000000;fill-opacity:1;stroke:none"
       xml:space="preserve"><tspan
         y="124.89299"
         x="39.259094"
         id="tspan7750-37"
         sodipodi:role="line">A</tspan></text>
    <text
       id="text7752-50"
       y="124.59933"
       x="58.493183"
       style="font-style:normal;font-variant:normal;font-weight:normal;font-stretch:normal;font-size:8px;line-height:6.66666651px;font-family:Arial;-inkscape-font-specification:Arial;text-align:start;letter-spacing:0px;word-spacing:0px;text-anchor:start;fill:#000000;fill-opacity:1;stroke:none"
       xml:space="preserve"><tspan
         y="124.59933"
         x="58.493183"
         id="tspan7750-21"
         sodipodi:role="line">B</tspan></text>
    <text
       id="text7752-87"
       y="143.0993"
       x="66.568565"
       style="font-style:normal;font-variant:normal;font-weight:normal;font-stretch:normal;font-size:8px;line-height:6.66666651px;font-family:Arial;-inkscape-font-specification:Arial;text-align:start;letter-spacing:0px;word-spacing:0px;text-anchor:start;fill:#000000;fill-opacity:1;stroke:none"
       xml:space="preserve"><tspan
         y="143.0993"
         x="66.568565"
         id="tspan7750-15"
         sodipodi:role="line">C</tspan></text>
    <text
       id="text7583-7-5"
       y="202.83989"
       x="175.98366"
       style="font-style:normal;font-variant:normal;font-weight:normal;font-stretch:normal;font-size:4px;line-height:6.66666651px;font-family:Arial;-inkscape-font-specification:Arial;text-align:start;letter-spacing:0.75px;word-spacing:0px;text-anchor:start;fill:#000000;fill-opacity:1;stroke:none"
       xml:space="preserve"><tspan
         y="202.83989"
         x="175.98366"
         id="tspan7581-5-8"
         sodipodi:role="line">Mies</tspan></text>
    <text
       id="text7583-7-5-5"
       y="211.05864"
       x="161.46509"
       style="font-style:normal;font-variant:normal;font-weight:normal;font-stretch:normal;font-size:4px;line-height:6.66666651px;font-family:Arial;-inkscape-font-specification:Arial;text-align:start;letter-spacing:0.75px;word-spacing:0px;text-anchor:start;fill:#000000;fill-opacity:1;stroke:none"
       xml:space="preserve"><tspan
         y="211.05864"
         x="161.46509"
         id="tspan7581-5-8-6"
         sodipodi:role="line">N</tspan></text>
    <text
       id="text7583-7-5-7"
       y="193.28299"
       x="193.35968"
       style="font-style:normal;font-variant:normal;font-weight:normal;font-stretch:normal;font-size:4px;line-height:6.66666651px;font-family:Arial;-inkscape-font-specification:Arial;text-align:start;letter-spacing:0.75px;word-spacing:0px;text-anchor:start;fill:#000000;fill-opacity:1;stroke:none"
       xml:space="preserve"><tspan
         style="letter-spacing:0px"
         y="193.28299"
         x="193.35968"
         id="tspan7581-5-8-9"
         sodipodi:role="line">50</tspan><tspan
         id="tspan7896"
         y="199.94966"
         x="193.35968"
         sodipodi:role="line" /></text>
    <text
       id="text7583-7-5-7-4"
       y="193.28787"
       x="167.62073"
       style="font-style:normal;font-variant:normal;font-weight:normal;font-stretch:normal;font-size:4px;line-height:6.66666651px;font-family:Arial;-inkscape-font-specification:Arial;text-align:start;letter-spacing:0.75px;word-spacing:0px;text-anchor:start;fill:#000000;fill-opacity:1;stroke:none"
       xml:space="preserve"><tspan
         style="letter-spacing:0px"
         y="193.28787"
         x="167.62073"
         id="tspan7581-5-8-9-1"
         sodipodi:role="line">0</tspan><tspan
         id="tspan7896-6"
         y="199.95454"
         x="167.62073"
         sodipodi:role="line" /></text>
  </g>
  <text
     xml:space="preserve"
     style="font-style:normal;font-variant:normal;font-weight:normal;font-stretch:normal;font-size:10.66666698px;line-height:6.66666651px;font-family:Arial;-inkscape-font-specification:Arial;text-align:start;letter-spacing:0px;word-spacing:-1.25999998px;text-anchor:start;fill:#000000;fill-opacity:1;stroke:none;"
     x="82.716125"
     y="11.851269"
     id="text7477-1"><tspan
       sodipodi:role="line"
       id="tspan7475-20"
       x="82.716125"
       y="11.851269">MAP 1</tspan></text>
</svg>
