<?xml version="1.0" encoding="UTF-8" standalone="no"?>
<!-- Created with Inkscape (http://www.inkscape.org/) -->

<svg
   xmlns:dc="http://purl.org/dc/elements/1.1/"
   xmlns:cc="http://creativecommons.org/ns#"
   xmlns:rdf="http://www.w3.org/1999/02/22-rdf-syntax-ns#"
   xmlns:svg="http://www.w3.org/2000/svg"
   xmlns="http://www.w3.org/2000/svg"
   xmlns:sodipodi="http://sodipodi.sourceforge.net/DTD/sodipodi-0.dtd"
   xmlns:inkscape="http://www.inkscape.org/namespaces/inkscape"
   version="1.1"
   id="svg16043"
   width="218.24001"
   height="236.8"
   viewBox="0 0 218.24001 236.8"
   sodipodi:docname="ec01jn91.146.svg"
   inkscape:version="0.92.2 5c3e80d, 2017-08-06">
  <metadata
     id="metadata16049">
    <rdf:RDF>
      <cc:Work
         rdf:about="">
        <dc:format>image/svg+xml</dc:format>
        <dc:type
           rdf:resource="http://purl.org/dc/dcmitype/StillImage" />
        <dc:title></dc:title>
      </cc:Work>
    </rdf:RDF>
  </metadata>
  <defs
     id="defs16047" />
  <sodipodi:namedview
     pagecolor="#ffffff"
     bordercolor="#666666"
     borderopacity="1"
     objecttolerance="10"
     gridtolerance="10"
     guidetolerance="10"
     inkscape:pageopacity="0"
     inkscape:pageshadow="2"
     inkscape:window-width="1280"
     inkscape:window-height="756"
     id="namedview16045"
     showgrid="false"
     inkscape:zoom="2.4062063"
     inkscape:cx="91.399839"
     inkscape:cy="117.43829"
     inkscape:window-x="4"
     inkscape:window-y="0"
     inkscape:window-maximized="0"
     inkscape:current-layer="svg16043" />
  <path
     style="fill:none;stroke:#000000;stroke-width:0.5;stroke-linecap:round;stroke-linejoin:round;stroke-miterlimit:4;stroke-dasharray:none;stroke-opacity:1"
     d="m 111.76328,188.78195 c 0.53062,-0.006 1.04194,-0.16245 1.42438,-0.42772 0.64219,-0.44554 0.96955,-1.02939 0.94925,-2.03957 -0.0245,-1.21654 -0.41162,-1.35238 -0.43742,-2.01024 -0.0156,-0.39879 0.79942,-1.53465 0.2798,-2.05006 l -1.23425,-1.22425 c -0.33342,-0.33072 -0.73786,0.14019 -1.47544,0.13956 -0.58637,-5e-4 -0.86271,-0.47307 -1.30685,-0.52837 -0.44414,0.0553 -0.72048,0.52787 -1.30685,0.52837 -0.73758,6.3e-4 -1.14202,-0.47028 -1.47544,-0.13956 l -1.23425,1.22425 c -0.51962,0.51541 0.29543,1.65127 0.2798,2.05006 -0.0258,0.65786 -0.41293,0.7937 -0.43742,2.01024 -0.0203,1.01018 0.30706,1.59403 0.94925,2.03957 0.38244,0.26527 0.89376,0.42166 1.42438,0.42772 0.57346,0.006 1.13128,-0.0793 1.80053,0.48011 0.66925,-0.55941 1.22707,-0.47411 1.80053,-0.48011 z"
     id="path14359-1-7-5-3-0-73-1-9-8-2-1-8-1-3-8-83-9-9-3-2-8-2-8-9-2-2-9"
     inkscape:connector-curvature="0"
     sodipodi:nodetypes="ssssssscssssssscs" />
  <path
     style="fill:none;stroke:#000000;stroke-width:0.5;stroke-linecap:round;stroke-linejoin:round;stroke-miterlimit:4;stroke-dasharray:none;stroke-opacity:1"
     d="m 199.23035,224.74472 c 0.53062,-0.006 1.04194,-0.16245 1.42438,-0.42772 0.64219,-0.44554 0.96955,-1.02939 0.94925,-2.03957 -0.0245,-1.21654 -0.41162,-1.35238 -0.43742,-2.01024 -0.0156,-0.39879 0.79942,-1.53465 0.2798,-2.05006 l -1.23425,-1.22425 c -0.33342,-0.33072 -0.73786,0.14019 -1.47544,0.13956 -0.58637,-5e-4 -0.86271,-0.47307 -1.30685,-0.52837 -0.44414,0.0553 -0.72048,0.52787 -1.30685,0.52837 -0.73758,6.3e-4 -1.14202,-0.47028 -1.47544,-0.13956 l -1.23425,1.22425 c -0.51962,0.51541 0.29543,1.65127 0.2798,2.05006 -0.0258,0.65786 -0.41293,0.7937 -0.43742,2.01024 -0.0203,1.01018 0.30706,1.59403 0.94925,2.03957 0.38244,0.26527 0.89376,0.42166 1.42438,0.42772 0.57346,0.006 1.13128,-0.0793 1.80053,0.48011 0.66925,-0.55941 1.22707,-0.47411 1.80053,-0.48011 z"
     id="path14359-1-7-5-3-0-73-1-9-8-2-1-8-1-3-8-83-9-9-3-2-8-2-8-9-2-2-9-8"
     inkscape:connector-curvature="0"
     sodipodi:nodetypes="ssssssscssssssscs" />
  <path
     style="fill:none;stroke:#000000;stroke-width:0.5;stroke-linecap:round;stroke-linejoin:round;stroke-miterlimit:4;stroke-dasharray:none;stroke-opacity:1"
     d="m 150.39126,205.80742 c 0.45258,-1.20935 0.39144,-3.37816 -0.30707,-4.7325 -0.36264,-0.70309 -1.02977,-0.58428 -2.00062,-0.50448 -0.60477,0.0497 -0.93445,-0.27365 -1.39417,-0.32914 -0.45971,0.0555 -0.78939,0.37881 -1.39416,0.32914 -0.97085,-0.0798 -1.63799,-0.19861 -2.00062,0.50448 -0.69851,1.35434 -0.75965,3.52315 -0.30708,4.7325 0.55798,1.49097 1.93381,2.77184 3.70186,3.12506 1.76806,-0.35322 3.14389,-1.63409 3.70186,-3.12506 z"
     id="path14359-1-7-5-3-0-73-1-9-8-2-1-8-1-3-8-83-9-9-3-2-8-2-8-9-2-2-9-7"
     inkscape:connector-curvature="0"
     sodipodi:nodetypes="ssscssscs" />
  <path
     style="opacity:1;vector-effect:none;fill:none;fill-opacity:1;fill-rule:evenodd;stroke:#000000;stroke-width:0.5;stroke-linecap:round;stroke-linejoin:round;stroke-miterlimit:4;stroke-dasharray:none;stroke-dashoffset:0;stroke-opacity:1"
     d="m 39.52389,96.524193 a 4.2993536,4.2993536 0 0 1 -4.299353,4.299357 4.2993536,4.2993536 0 0 1 -4.299354,-4.299357 4.2993536,4.2993536 0 0 1 4.299354,-4.299354 4.2993536,4.2993536 0 0 1 4.299353,4.299354 z"
     id="path16662" />
  <path
     inkscape:connector-curvature="0"
     style="opacity:1;vector-effect:none;fill:none;fill-opacity:1;fill-rule:evenodd;stroke:#000000;stroke-width:0.5;stroke-linecap:round;stroke-linejoin:round;stroke-miterlimit:4;stroke-dasharray:none;stroke-dashoffset:0;stroke-opacity:1"
     d="m 167.75183,48.038928 a 4.2993536,4.2993536 0 0 1 -4.29935,4.299357 4.2993536,4.2993536 0 0 1 -4.29936,-4.299357 4.2993536,4.2993536 0 0 1 4.29936,-4.299354 4.2993536,4.2993536 0 0 1 4.29935,4.299354 z"
     id="path16662-9" />
  <path
     inkscape:connector-curvature="0"
     style="opacity:1;vector-effect:none;fill:none;fill-opacity:1;fill-rule:evenodd;stroke:#000000;stroke-width:0.5;stroke-linecap:round;stroke-linejoin:round;stroke-miterlimit:4;stroke-dasharray:none;stroke-dashoffset:0;stroke-opacity:1"
     d="m 206.4196,153.2655 a 4.2993536,4.2993536 0 0 1 -4.29936,4.29936 4.2993536,4.2993536 0 0 1 -4.29935,-4.29936 4.2993536,4.2993536 0 0 1 4.29935,-4.29935 4.2993536,4.2993536 0 0 1 4.29936,4.29935 z"
     id="path16662-5" />
  <path
     style="opacity:1;vector-effect:none;fill:none;fill-opacity:1;fill-rule:evenodd;stroke:#000000;stroke-width:0.5;stroke-linecap:round;stroke-linejoin:round;stroke-miterlimit:4;stroke-dasharray:none;stroke-dashoffset:0;stroke-opacity:1"
     d="m 111.77071,28.876417 a 5.4935551,4.3473392 0 0 1 -5.49356,4.347339 5.4935551,4.3473392 0 0 1 -5.49355,-4.347339 5.4935551,4.3473392 0 0 1 5.49355,-4.347339 5.4935551,4.3473392 0 0 1 5.49356,4.347339 z"
     id="path16692" />
  <path
     inkscape:connector-curvature="0"
     style="opacity:1;vector-effect:none;fill:none;fill-opacity:1;fill-rule:evenodd;stroke:#000000;stroke-width:0.5;stroke-linecap:round;stroke-linejoin:round;stroke-miterlimit:4;stroke-dasharray:none;stroke-dashoffset:0;stroke-opacity:1"
     d="m 153.04189,166.04705 a 5.4935551,4.3473392 0 0 1 -5.49356,4.34734 5.4935551,4.3473392 0 0 1 -5.49355,-4.34734 5.4935551,4.3473392 0 0 1 5.49355,-4.34734 5.4935551,4.3473392 0 0 1 5.49356,4.34734 z"
     id="path16692-2" />
  <path
     style="fill:none;stroke:#000000;stroke-width:6;stroke-linecap:round;stroke-linejoin:round;stroke-miterlimit:4;stroke-dasharray:none;stroke-opacity:1"
     d="m 169.6892,124.83929 -0.002,0.0466"
     id="path14359-1-7-5-3-0-73-1-9-8-5"
     inkscape:connector-curvature="0"
     sodipodi:nodetypes="cc" />
  <path
     style="fill:none;stroke:#000000;stroke-width:1;stroke-linecap:butt;stroke-linejoin:miter;stroke-miterlimit:4;stroke-dasharray:none;stroke-opacity:1"
     d="M 216.07773,3.2419717 216.46788,232.74508 3.1190621,234.60779 4.1014361,4.0262709 Z"
     id="path14359-1-7-5-3-0-73-1-9"
     inkscape:connector-curvature="0"
     sodipodi:nodetypes="ccccc"
     inkscape:transform-center-x="0.03366111"
     inkscape:transform-center-y="-0.1641457" />
  <path
     style="fill:none;stroke:#000000;stroke-width:4;stroke-linecap:round;stroke-linejoin:round;stroke-miterlimit:4;stroke-dasharray:none;stroke-opacity:1"
     d="m 37.063222,37.97308 -0.002,0.0693"
     id="path14359-1-7-5-3-0-73-1-9-8-5-3"
     inkscape:connector-curvature="0"
     sodipodi:nodetypes="cc" />
  <path
     style="fill:none;stroke:#000000;stroke-width:1;stroke-linecap:butt;stroke-linejoin:miter;stroke-miterlimit:4;stroke-dasharray:none;stroke-opacity:1"
     d="m 7.1816734,7.124887 -0.002,48.995842 66.4212326,-0.316794 0.002,-49.418235 z"
     id="path14359-1-7-5-3-0-73-1-9-9"
     inkscape:connector-curvature="0"
     sodipodi:nodetypes="ccccc"
     inkscape:transform-center-x="0.03366111"
     inkscape:transform-center-y="-0.1641457" />
  <path
     style="fill:none;stroke:#000000;stroke-width:1;stroke-linecap:butt;stroke-linejoin:miter;stroke-miterlimit:4;stroke-dasharray:8, 2, 1, 2;stroke-dashoffset:0;stroke-opacity:1"
     d="m 5.1997289,58.269342 11.3403821,32.330126 18.450661,45.875902 53.299489,49.7801 c 0.788878,0.73679 8.454638,-0.44585 12.741479,-2.90523 2.90197,-1.66488 3.38625,-5.16803 6.52713,-6.37114 l 9.49981,-3.63889 12.15309,15.48742 53.46015,13.02785 10.94519,-92.74939 -48.71942,-68.191157 -69.432033,4.953959"
     id="path14359-1-7-5-3-0-73-1-9-7"
     inkscape:connector-curvature="0"
     sodipodi:nodetypes="cccssscccccc"
     inkscape:transform-center-x="-0.16414589"
     inkscape:transform-center-y="-0.033660697" />
  <path
     style="fill:none;stroke:#000000;stroke-width:1;stroke-linecap:butt;stroke-linejoin:miter;stroke-miterlimit:4;stroke-dasharray:8, 2, 1, 2;stroke-dashoffset:0;stroke-opacity:1"
     d="M 165.20628,197.9815 153.4573,231.83431"
     id="path14359-1-7-5-3-0-73-1-9-95"
     inkscape:connector-curvature="0"
     sodipodi:nodetypes="cc"
     inkscape:transform-center-x="0.03366111"
     inkscape:transform-center-y="-0.1641457" />
  <path
     style="fill:none;stroke:#000000;stroke-width:1;stroke-linecap:butt;stroke-linejoin:miter;stroke-miterlimit:4;stroke-dasharray:8, 2, 1, 2;stroke-opacity:1;stroke-dashoffset:0"
     d="m 190.51568,136.68362 25.62777,4.59214"
     id="path14359-1-7-5-3-0-73-1-9-3"
     inkscape:connector-curvature="0"
     sodipodi:nodetypes="cc"
     inkscape:transform-center-x="0.03366111"
     inkscape:transform-center-y="-0.1641457" />
  <path
     style="fill:none;stroke:#000000;stroke-width:0.5;stroke-linecap:butt;stroke-linejoin:miter;stroke-miterlimit:4;stroke-dasharray:4, 1, 0.50000000000000000, 1;stroke-opacity:1;stroke-dashoffset:0"
     d="m 103.66261,80.604172 c 1.26555,-0.05354 1.60794,1.494801 2.70688,1.55402 0.71922,0.03876 0.48268,-0.832072 0.53804,-1.578839 0.0435,-0.586638 0.3388,-1.082378 0.9348,-1.097309 0.36468,-0.0091 0.96252,0.284278 0.983,0.705219 0.0316,0.649428 -0.76155,0.816508 0.12598,2.459257 0.27803,0.514612 1.4696,1.439832 2.57971,1.430446 1.13012,-0.0096 0.50778,-1.869661 1.39254,-1.886068 0.49331,-0.0091 0.73805,0.515664 1.11321,0.845963 0.37134,0.326938 0.87425,0.457993 1.13868,0.71933 0.33693,0.332973 0.51566,1.270932 0.0632,1.480226 -0.73789,0.341283 -1.5323,0.580181 -2.42328,0.649576 -0.76433,0.05953 -1.70267,0.0724 -1.95457,0.447437 -0.20321,0.302563 0.2603,0.704536 0.24126,1.177056 -0.0265,0.656752 0.44903,1.078583 0.48755,1.317342 0.0229,0.141638 -1.10176,1.399327 -2.31603,1.503823 -0.68496,0.05895 -1.29793,-0.279418 -1.85375,-0.08268 -0.73747,0.261037 -0.85195,0.636842 -1.24756,1.107716 -0.28203,0.335689 -0.0817,0.651072 -0.0397,1.011817 0.0472,0.404916 -0.0272,0.84752 0.31733,1.059085 0.49493,0.303924 1.02245,0.583426 1.50605,0.563641 0.70436,-0.02882 0.88672,-0.421989 2.04648,-0.883841 0.71961,-0.286574 1.15037,-0.700382 1.67144,-0.970694 0.61214,-0.317557 1.26911,-0.440553 1.63011,-0.158619 0.84497,0.659913 -0.17068,0.905509 -0.11675,1.777739 0.0348,0.562752 0.89261,0.756789 0.89219,1.33836 -8.1e-4,1.115158 -0.3865,2.030438 0.22482,2.164295 0.66827,0.146327 1.47217,-1.578452 3.31684,-1.497328 0.60878,0.02677 1.68201,-0.413368 2.26307,-0.0068 0.80754,0.565049 1.57789,1.141955 2.64038,0.818919 0.7352,-0.223525 1.56924,-0.606367 2.59838,-1.406513 1.00035,-0.777762 1.75419,-2.159339 2.38045,-3.063983 0.46192,-0.667252 -0.6801,-0.937446 0.24382,-1.53353 0.43741,-0.282199 0.67443,0.392073 1.25217,0.49822 0.55031,0.101107 0.68975,0.535612 1.13518,0.588416 2.90611,0.344509 3.29406,-1.18144 5.00837,-1.271883 1.06696,-0.05629 1.96724,-0.20919 3.07233,-0.306533 0.92115,-0.08114 1.40493,-1.018028 2.612,-0.993458 0.69048,0.01405 0.97259,0.833351 0.29682,1.980542 -0.47807,0.811559 0.49945,2.03677 1.40388,1.993687 0.72486,-0.03453 1.29775,-0.558267 1.68766,-1.242398 0.25815,-0.452928 0.3099,-0.997189 0.72598,-1.440747 0.38111,-0.406266 1.07191,-0.402716 1.51774,-0.727837 0.49049,-0.357683 0.72753,-0.76815 1.16298,-1.08114 0.56637,-0.407081 1.313,-0.675169 1.7961,-0.713332 0.62741,-0.04956 0.78612,0.845607 1.2225,1.536296 0.52667,0.833599 1.26973,1.523231 1.26933,1.90749 -1.3e-4,0.121785 -0.55965,0.587242 -1.30718,0.846018 -0.55839,0.193299 -1.23824,0.221621 -1.77866,0.173898 -0.76305,-0.06738 -2.03626,1.331062 -2.0975,1.745484 -0.0302,0.204386 0.56279,0.573273 1.14095,0.956099 0.43773,0.289847 0.78706,0.635625 1.30802,0.649809 0.44391,0.01209 0.8362,-0.262338 1.22931,-0.267523 0.59585,-0.0079 1.00484,-0.458554 1.16478,-0.180274 0.42227,0.73469 1.69462,2.808988 2.77899,2.935031 0.53364,0.06203 1.00677,0.04104 1.62062,0.005 0.27373,-0.01606 0.15861,0.649254 0.62319,0.90158 0.44606,0.242264 0.7298,0.653724 1.46932,0.688607 0.52807,0.02491 1.62608,0.05913 2.03493,-0.617141 0.42588,-0.704433 0.15176,-2.128833 0.14759,-2.534245 -0.009,-0.851623 0.81453,-1.901717 2.24286,-1.846258 0.77247,0.02999 1.49636,-0.871514 1.94731,-0.840497 0.98099,0.06747 0.8743,1.09289 1.70171,1.090263 0.7682,-0.0024 2.08947,3.024707 3.47504,3.139226 1.68925,0.13962 3.50172,-0.1415 5.16917,-0.22048 0.88039,-0.0417 1.14935,1.336816 2.11689,1.375568 1.10993,0.04446 1.96014,0.490882 3.04019,0.286884 1.82913,-0.345482 1.64665,-4.442668 3.79357,-4.602263 1.91107,-0.142063 3.07062,-0.423005 3.7964,-3.425693 0.50942,-2.107568 1.26828,-4.689756 1.73482,-6.658888 0.14963,-0.631517 1.40689,-1.597158 2.60383,-2.299225 1.12492,-0.65983 2.23456,-1.225412 3.66068,-1.573348 0.48426,-0.118148 0.56336,0.880496 1.54098,0.906442 1.72026,0.04565 2.10251,-3.204914 3.43453,-3.16928 1.10696,0.02961 0.76276,2.068265 2.30999,2.210234 0.76505,0.0702 1.18514,-0.791102 1.66735,-0.502181 0.87013,0.521345 0.11854,1.559878 -0.71503,2.666581 -0.65728,0.872633 -1.36757,1.78764 -1.36994,2.524926 -0.002,0.647223 0.63821,0.962885 0.64714,1.321008 0.0329,1.320633 0.64607,2.700997 0.52298,4.121149 -0.27293,3.148824 -2.35849,6.243423 -2.2936,9.430411 0.0724,3.55588 3.32165,6.69321 3.15867,10.04695 -0.059,1.21383 -0.12325,5.43796 -1.57402,5.31567 -0.63146,-0.0532 -1.44108,0.35264 -2.17712,0.90688 -0.9942,0.74862 -1.94677,1.70621 -3.01572,1.58819 -1.08371,-0.11966 -1.88394,0.71611 -2.30106,1.76532 -0.15467,0.38904 -0.33368,1.07008 -0.6604,1.52842 -0.36173,0.50746 -0.87072,0.79268 -0.98828,1.21628 -0.19099,0.68815 0.46916,1.07746 0.45482,1.63794 -0.0136,0.53285 -0.79487,0.41545 -1.08171,1.81882 -0.34045,1.66567 0.42365,1.54571 0.4159,2.11871 -0.0419,3.10018 1.98893,3.05643 2.13565,4.16254 0.15762,1.18824 0.9561,2.50158 1.35793,3.58649 0.44072,1.18989 2.49272,2.01388 2.45709,2.75909 -0.0501,1.04828 2.22968,0.68963 1.908,2.04012 -0.40323,1.69286 -4.28786,-0.64549 -4.97365,0.7294 -0.78502,1.5738 -1.17577,4.23616 -1.41253,6.35375 -0.11316,1.01207 -0.73721,2.2223 -0.92658,3.28228 -0.32667,1.82843 -0.81363,2.72077 -1.88647,3.12469 -1.50797,0.56773 -2.87354,1.65468 -4.30225,2.53077 -1.4628,0.89699 -2.62123,2.47167 -3.36899,3.01883 -0.85632,0.6266 -2.88136,0.72784 -5.12147,0.66316 -2.2002,-0.0635 -4.51363,0.092 -7.07532,0.14924 -2.26596,0.0506 -4.11995,0.69086 -6.4955,0.63408 -1.13529,-0.0271 -1.03299,-1.96208 -0.91212,-3.30154 0.0737,-0.81623 -0.42661,-1.28401 -0.8768,-1.23876 -1.1242,0.11299 -0.65124,-0.62137 -2.30118,-0.65331 -0.58247,-0.0113 -1.09615,0.13698 -1.26067,0.5324 -0.15754,0.37865 -0.67324,0.63442 -0.67625,0.86404 -0.006,0.45842 0.60632,1.23937 0.15436,1.56204 -0.75202,0.53688 -0.70177,0.087 -1.68553,0.9006 -0.49597,0.41016 -1.38906,1.20833 -2.28744,1.14972 -0.48001,-0.0313 -0.31732,-0.62115 -1.23741,-0.56755 -0.8424,0.0491 -1.1714,1.5039 -2.37552,1.44559 -0.67863,-0.0329 -1.48524,-1.26514 -2.07502,-2.23723 -0.42581,-0.7018 -1.33105,-2.45554 -1.35422,-3.21542 -0.0142,-0.46531 1.25047,-0.083 1.43082,-1.39287 0.10585,-0.76877 -0.87117,-2.00219 -1.87758,-2.03628 -1.09306,-0.037 -2.11635,0.79056 -2.29875,2.68464 -0.19183,1.99194 -0.74699,2.83763 -1.62921,2.85193 -0.58669,0.01 -0.90258,-0.76737 -0.89548,-1.23845 0.0227,-1.50634 0.14861,-3.45152 0.0408,-5.54682 -0.032,-0.62117 -0.38426,-1.40541 -0.39119,-2.008 -0.006,-0.50053 0.34849,-1.02079 0.3395,-1.48537 -0.009,-0.46448 -1.11741,-1.00112 -1.16264,-1.63943 -0.0172,-0.24221 0.75734,-0.42877 0.74467,-0.68915 -0.0119,-0.24492 -0.8112,-0.56272 -0.82127,-0.82028 -0.015,-0.38386 0.85827,-0.77991 0.84165,-1.18262 -0.0196,-0.47587 -0.46077,-0.92818 -0.53254,-1.41355 -0.0657,-0.44423 0.17472,-0.85427 0.10341,-1.29607 -0.18259,-1.13121 -1.95932,-0.44062 -2.25305,-1.89478 -0.24461,-1.21096 0.45527,-2.45374 -0.26314,-3.10031 -0.51678,-0.46509 -1.14157,-0.006 -1.8765,-0.0329 -0.83906,-0.0311 -1.09017,-0.65385 -1.65137,-0.60368 -0.27167,0.0243 -0.44911,1.01051 -0.72757,1.04955 -0.30398,0.0426 -0.54625,-0.51033 -0.85548,-0.47699 -0.39415,0.0425 -0.79186,0.35329 -1.18684,0.39942 -0.41904,0.0489 -0.17769,-0.96559 -0.84605,-0.91194 -1.69404,0.13597 -3.60398,0.90489 -4.38195,0.0708 -0.31792,-0.34084 -0.37326,-1.19898 -0.51525,-2.2756 -0.0639,-0.48434 -0.94242,-0.23398 -1.09383,-0.74322 -0.79315,-2.6676 -1.11694,-5.95275 -1.80287,-6.00497 -0.63289,-0.0482 -0.75115,-0.55214 -1.95827,-0.57884 -0.57339,-0.0127 -1.04678,0.29865 -1.6456,0.30926 -0.6253,0.0111 -0.82455,-1.21537 -1.87809,-1.14796 -0.58187,0.0372 -1.16358,0.0526 -1.74397,0.0468 -1.13933,-0.0113 -1.38618,-0.1369 -2.53936,-1.78431 -0.27885,-0.39835 -0.72899,-0.62094 -1.06232,-0.95827 -0.55793,-0.56463 -0.22493,-1.58076 -0.99599,-1.63239 -1.62018,-0.10849 -1.27194,2.30364 -2.3564,2.38454 -0.47765,0.0356 -0.86594,-1.24512 -1.34051,-1.23014 -0.61632,0.0194 -0.89315,1.42383 -1.51793,1.45039 -0.53252,0.0226 -1.09964,-0.0235 -1.66613,-0.12337 -0.30458,-0.0537 -0.44465,-0.45162 -0.74339,-0.53409 -0.72933,-0.20134 -1.58926,-0.15278 -2.17141,-0.47778 -0.73673,-0.41131 -0.0585,-1.37095 -0.72327,-1.99309 -0.77808,-0.72819 -0.88797,-1.55639 -2.10868,-2.35898 -0.72814,-0.47873 -1.546939,-1.15745 -2.269955,-1.87912 -0.369759,-0.36906 0.324487,-1.56981 -0.189297,-1.65049 -0.98197,-0.15421 -1.770257,-1.06773 -2.569783,-2.00316 -1.06068,-1.24098 -1.002682,-2.24419 -0.895037,-3.32137 0.04037,-0.40398 0.420641,-1.10729 1.160677,-1.14304 0.566953,-0.0274 0.5811,-0.80509 0.952775,-0.97603 0.872987,-0.40152 1.697145,-0.32882 2.657758,-0.28452 1.009872,0.0466 1.798682,-1.01854 1.873602,-1.89239 0.1402,-1.63542 1.01999,-2.76321 1.09913,-4.82996 0.0244,-0.638013 0.088,-1.044324 0.0654,-1.677081 -0.0265,-0.74103 -2.51497,2.004031 -3.149561,1.534381 -1.206906,-0.893211 -0.255745,-1.979719 -0.22765,-3.51892 0.01192,-0.65292 0.592331,-1.147547 0.626501,-1.863554 0.0419,-0.878112 0.59226,-2.895783 1.48666,-2.999666 0.89069,-0.103451 1.73867,-1.16943 1.69427,-2.076476 -0.0951,-1.942046 -1.86229,-3.478063 -1.79663,-4.588724 0.0741,-1.253965 0.0828,-2.423289 0.55956,-3.251341 0.36922,-0.641232 1.13762,-1.038339 1.6867,-1.360924 z"
     id="path14359-1-7-5-3-0-73-1-9-33"
     inkscape:connector-curvature="0"
     sodipodi:nodetypes="cssssssssssssssssssssssssssssssssssssssssssssssssssssssssssssssssssssssssssssssssssssssssssssssssssssssssssssssssssssssssssssssssssssssssssssssssssssssssssssssssssssssssssssssc"
     inkscape:transform-center-x="0.03366111"
     inkscape:transform-center-y="-0.1641457" />
  <path
     style="fill:none;stroke:#000000;stroke-width:0.5;stroke-linecap:round;stroke-linejoin:round;stroke-miterlimit:4;stroke-dasharray:none;stroke-opacity:1"
     d="m 9.6147013,39.860564 -7.303e-4,1.929189 c -1.764e-4,0.465754 -0.7037882,0.653505 -0.7039636,1.682705 l -5.528e-4,3.243026 h 9.3007704 c 0.0073,-0.522972 0.02368,-1.200043 0.435023,-1.403004 0.409565,-0.202081 0.613245,-0.57961 1.033226,-0.58562 l 36.346434,-0.520109 c 0.986022,-0.01411 1.432154,-1.003884 3.238766,-1.665781 1.056079,-0.386922 2.320777,-0.715083 3.300463,-1.153196 0.634273,-0.283645 1.054388,-1.18653 1.671527,-1.266252 0.78495,-0.101398 1.485508,-0.748043 1.756078,-1.662711 0.378967,-1.281105 1.490032,-2.873443 3.090434,-3.828827 1.300792,-0.776527 2.75361,-1.973252 2.838208,-2.500705 0.04272,-0.266332 -0.202494,-0.580615 -0.417006,-0.95337 -0.185083,-0.321617 -0.332451,-0.727799 -0.681895,-0.727874 -0.539495,-1.16e-4 -1.19706,-0.40825 -1.593475,-1.040643 -0.576338,-0.919421 -1.253211,-1.60671 -1.357345,-2.877957 -0.09157,-1.117888 -1.152022,-1.610911 -1.226148,-2.334078 -0.101679,-0.991968 -0.09165,-1.994486 -0.157456,-2.761695 -0.05999,-0.699457 -0.359093,-1.171045 -1.165927,-1.169739 -0.517169,8.37e-4 -0.771033,-0.530564 -0.769749,-1.149189 0.0012,-0.562139 -0.129389,-1.198842 -0.464889,-1.217955 -1.191491,-0.06788 -2.077068,1.701265 -3.325384,1.743018 -1.154535,0.03862 -1.306569,-0.687051 -1.822191,-0.680061 -0.7721,0.01047 -1.038642,0.735204 -1.566482,0.690677 -0.348633,-0.02941 -0.68992,0.09065 -1.046184,0.07706 -0.56048,-0.02138 -0.760273,-1.201417 -1.425929,-1.301419 -0.609782,-0.09161 -1.153245,-0.02204 -1.783856,0.0094 -0.78478,0.03916 -0.612203,-0.832161 -0.689915,-1.601592 -0.04484,-0.444012 -0.605976,-0.410428 -0.895968,-0.430353 -0.742609,-0.05102 -0.632387,-1.821459 -1.474766,-1.869028 -0.480801,-0.02715 -0.204047,0.788419 -1.201908,0.720852 -0.313121,-0.0212 -0.685095,-0.01394 -0.996958,0.0014 -0.480632,0.02362 -0.618466,1.296536 -0.5609,2.173171 0.0638,0.97157 -0.499403,0.98077 -0.762538,0.989652 -1.104028,0.03727 -1.075076,1.983965 -1.962786,1.961933 -0.510496,-0.01267 -1.017164,-0.05166 -1.52454,-0.02637 -0.798731,0.03982 -0.373638,1.609776 -1.386435,1.623447 -1.18543,0.016 -1.231347,3.934911 -1.892594,3.874824 -0.263928,-0.02398 -0.466669,-0.442975 -0.7306,-0.46137 -0.875535,-0.06102 -1.599093,2.584664 -2.476774,2.554951 -0.99847,-0.0338 -0.590462,-1.613371 -2.019104,-1.5857 -1.078664,0.02089 -0.691181,2.876145 -2.110831,2.860772 -0.660868,-0.0072 -1.323181,0.03342 -1.987344,0.06212 -1.660456,0.07174 -2.252264,1.708176 -2.846447,1.727894 -0.916346,0.03041 -1.253937,-1.015176 -2.662616,-1.043447 -1.232754,-0.02474 -1.514848,1.002151 -2.139387,0.990145 -0.526054,-0.01011 -0.346684,-0.515692 -1.591078,-0.542212 -0.484183,-0.01032 -0.952228,0.387563 -1.553833,0.525815 -0.824838,0.189552 -1.299144,0.858792 -1.29024,1.607937 0.008,0.674258 0.63756,0.820491 0.612877,1.410591 -0.02361,0.564345 -1.104785,0.711999 -1.657178,0.795169 l -1.263472,1.355271 0.04278,1.617503 c 0.01291,0.488118 -0.451575,0.709667 -0.550429,1.328183 -0.103645,0.648497 -0.773343,1.081553 -1.209105,1.061635 -1.229166,-0.05618 -0.770965,-1.712088 -2.365888,-1.705873 -1.200036,0.0047 -2.3535401,0.786075 -2.3537907,1.447778 z"
     id="path14359-1-7-5-3-0-73-1-9-8-5-8"
     inkscape:connector-curvature="0"
     sodipodi:nodetypes="cssccsssssssssssssssssssssssssssssssssssssssssssssssccsssssc" />
  <path
     style="fill:none;stroke:#000000;stroke-width:1;stroke-linecap:round;stroke-linejoin:round;stroke-miterlimit:4;stroke-dasharray:none;stroke-opacity:1"
     d="m 214.81195,173.17459 c -0.74057,0.53194 -0.747,1.98967 -3.00977,3.77413 -1.49332,1.17765 -3.81594,2.20842 -6.08416,2.23512 -4.61439,0.0543 -5.84213,-2.06122 -7.57583,-2.13393 -1.79923,-0.0755 -6.99407,2.69663 -11.5206,3.11093 -5.4801,0.50158 -7.8301,-0.67956 -11.94446,-0.69273 -1.132,-0.004 -2.31883,0.45664 -3.45076,0.32106 -2.22144,-0.26608 -4.38836,-1.40683 -6.51877,-1.1937 -3.14268,0.3144 -10.78299,2.00088 -18.37301,1.15173 -4.54125,-0.50806 -8.88606,-0.79494 -11.74768,-1.79439 -3.36929,-1.17676 -5.99598,-1.43973 -7.31329,-1.49161 -1.13904,-0.0449 -3.58674,0.83602 -6.34535,2.55589 -1.67396,1.04364 -3.69435,2.11137 -5.84721,3.32178 -0.33067,0.18591 -0.67035,0.31422 -0.67035,0.31422 m -8.70035,5.0243 c -10.442807,5.05719 -22.128861,10.37413 -25.15622,12.05086 -1.451173,0.80375 -3.247398,2.70859 -6.445165,4.737 -3.788099,2.40286 -7.807602,4.5694 -11.663041,7.41118 -1.618185,1.19274 -3.20997,2.74311 -4.926765,3.84807 -4.698023,3.02374 -8.197677,5.84096 -11.806685,8.6765 -6.304455,4.95331 -19.818634,3.17669 -24.704889,9.82531"
     id="path14359-1-7-5-3-0-73-1-9-8-5-5"
     inkscape:connector-curvature="0"
     sodipodi:nodetypes="cssssssssssssccsssssc" />
  <path
     style="fill:none;stroke:#000000;stroke-width:1;stroke-linecap:round;stroke-linejoin:round;stroke-miterlimit:4;stroke-dasharray:none;stroke-opacity:1"
     d="m 214.94362,164.31907 c -2.05069,0.31553 -6.90447,2.01058 -12.60628,4.79169 -3.97694,1.93979 -8.39487,3.79714 -11.26717,6.37836 -2.46022,2.2109 -4.57845,5.27813 -6.93899,8.02065 -2.83302,3.29143 -5.85767,6.17812 -8.13346,7.39872 -5.26717,2.825 -6.74479,6.01901 -10.03378,7.81986 -3.78295,2.07131 -12.70521,3.46616 -15.10577,3.78433 m -8.32774,2.71547 c -4.69362,1.24938 -7.99757,4.08447 -10.56455,4.17029 -4.7984,0.16042 -9.3563,-1.06484 -14.25662,-1.17976 -3.35309,-0.0786 -5.78313,0.90699 -7.06082,2.08142 -1.99591,1.8346 -3.75518,3.73407 -5.14834,5.05521 -2.67666,2.53828 -6.775431,5.91768 -9.389566,6.19197 -6.949727,0.72923 -13.111405,3.96234 -19.626386,5.20633 -6.211156,1.18597 -14.794105,1.91328 -20.097994,2.45731 -5.672123,0.5818 -8.967796,1.05309 -12.577566,4.09132"
     id="path14359-1-7-5-3-0-73-1-9-8-5-89"
     inkscape:connector-curvature="0"
     sodipodi:nodetypes="csssssccsssssssc" />
  <path
     style="fill:none;stroke:#000000;stroke-width:1;stroke-linecap:round;stroke-linejoin:round;stroke-miterlimit:4;stroke-dasharray:none;stroke-opacity:1"
     d="m 63.493733,211.18352 c 2.055618,0.001 1.174139,3.04017 5.050387,3.14279 2.801819,0.0742 5.603963,0.004 8.40363,0.006 1.606572,0.001 3.123973,1.69822 4.745868,1.66674 1.151512,-0.0223 2.271966,-0.92412 3.489931,-0.94761 1.657056,-0.032 3.723932,-0.91364 5.533645,-0.91242 2.127246,0.001 4.253497,0.91462 6.378843,0.91705 4.424623,0.005 8.744073,-0.30298 13.262913,0.0904 2.26702,0.19735 3.21812,-1.65903 5.38447,-1.61759 0.86946,0.0166 1.84113,0.033 2.71246,0.0491 3.73111,0.069 7.47885,0.30714 11.2358,0.1926 2.49718,-0.0761 3.27526,1.77062 4.86514,1.79411 1.21379,0.0179 2.42843,0.0331 3.64384,0.0422 2.63037,0.0197 3.23856,1.03843 6.88621,1.03356 3.40759,-0.005 5.80941,-1.71883 9.83455,-1.75813 8.24193,-0.0805 10.74015,4.96839 14.26172,5.13794 2.58906,0.12465 4.94232,-1.31501 7.55064,-1.45654 2.39745,-0.13008 4.21337,-0.92538 6.45525,-0.8819 3.28373,0.0637 5.95315,2.19323 9.9203,1.67754 m 8.72473,3.34308 c 0.8158,0.25006 2.36887,0.75289 3.67738,0.81819 2.07213,0.1034 1.76864,-0.62957 5.99061,-0.53447 1.0702,0.0241 2.15892,0.81972 3.23373,0.82045"
     id="path14359-1-7-5-3-0-73-1-9-8-5-6"
     inkscape:connector-curvature="0"
     sodipodi:nodetypes="csssssssssssssssssccssc" />
  <path
     style="fill:none;stroke:#000000;stroke-width:1;stroke-linecap:round;stroke-linejoin:round;stroke-miterlimit:4;stroke-dasharray:none;stroke-opacity:1"
     d="m 123.96287,5.2507633 c 0.22273,2.0901613 0.89258,2.7896214 0.90561,4.9192567 0.0107,1.749558 -0.94539,3.329501 0.64874,5.050301 0.76436,0.825103 1.78432,0.759652 2.5891,0.888056 1.10395,0.176139 2.0191,0.356896 3.28579,0.415586 1.63296,0.07566 3.60998,0.785067 5.10665,1.271698 0.72879,0.236959 2.10592,1.970672 4.02829,2.767032 1.45069,0.600963 3.22707,1.65685 4.96267,2.678549 1.91956,1.129995 3.19912,2.199932 4.67407,2.163647 1.3974,-0.03438 2.43951,0.05339 3.22631,0.516583 0.93774,0.552042 1.54644,1.556818 1.89464,2.598597 1.08488,3.245861 4.32319,5.022188 4.65685,7.029755 0.20638,1.241761 -0.79916,4.329917 -0.42981,5.494186 0.13645,0.430127 0.0762,0.845647 0.20882,1.398026 0.17174,0.71523 0.59468,1.385806 0.7843,2.057835 m 5.95323,7.035656 c 1.40806,1.009303 2.56104,1.329528 2.62905,1.333026 1.36529,0.07021 2.6077,-1.765472 3.95519,-1.949738 1.09892,-0.150276 2.29889,1.358897 3.43643,1.288774 0.71029,-0.04378 1.41788,-0.07939 2.12213,-0.08777 0.94314,-0.01122 1.96178,0.6856 2.87515,0.94031 0.89326,0.249107 1.08293,1.109717 1.61701,1.975554 0.78141,1.2668 1.98156,2.650957 4.57522,3.022832 2.77258,0.397529 3.86401,-1.420522 6.12421,-1.189002 2.19911,0.225262 4.59761,2.479948 6.99674,5.10366 0.67518,0.738388 2.00196,1.319849 2.67281,2.079682 3.0395,3.442645 5.33755,6.91169 7.78518,6.592599 0.96038,-0.125203 1.53178,-0.617208 2.82925,-0.648137"
     id="path14359-1-7-5-3-0-73-1-9-8-5-0"
     inkscape:connector-curvature="0"
     sodipodi:nodetypes="csssssssssssssccsssssssssssc" />
  <path
     style="fill:none;stroke:#000000;stroke-width:1;stroke-linecap:round;stroke-linejoin:round;stroke-miterlimit:4;stroke-dasharray:none;stroke-opacity:1"
     d="m 108.71514,4.6739147 c 0.60609,2.8121745 -0.87588,3.722677 -2.71639,5.0016041 -2.43286,1.6905432 -4.62008,3.9933472 -4.61683,5.7685062 0.003,1.541013 1.26064,3.205381 2.46298,4.364669 1.23919,1.194812 1.92875,2.934321 2.10436,4.486481 m 1.00343,9.25698 c 0.0864,0.943279 0.45286,1.713215 0.45934,2.579588 0.0135,1.804814 -2.01085,5.012572 -4.32299,6.561034 -1.8646,1.24874 -4.298354,1.824337 -6.185636,3.043747 -2.213043,1.429892 -2.616575,5.264092 -4.457925,6.813761 -3.247334,2.732937 -5.865611,2.373627 -6.069523,6.085404 -0.106048,1.930387 -0.109949,3.849576 -0.01908,5.758423 0.0655,1.375785 0.769319,3.033251 2.361432,3.678429 1.70098,0.689294 2.417489,2.236461 2.491496,4.043461 0.219165,5.351337 -2.497502,6.789255 -3.661678,9.313944 m 2.492209,6.921033 c 0.07649,0.210181 0.117908,0.413355 0.113206,0.607488 -0.0709,2.927988 -4.776592,5.307099 -7.50135,8.58885 -0.581868,0.700813 -0.685301,1.884131 -0.848399,3.039443 -0.141498,1.0023 -0.378001,1.98352 -0.391281,2.61031 -0.02451,1.15708 0.578966,3.87358 2.263696,4.63533 1.303775,0.58949 2.243371,2.08018 2.355128,3.35223 0.165778,1.88694 2.983946,3.75263 3.734668,5.09265 0.782147,1.39611 1.771347,2.70676 2.590835,4.16127 0.500467,0.88827 1.166233,0.66114 1.59142,1.1416 0.446864,0.50495 0.927354,0.9891 1.365671,1.51797 1.292733,1.5598 3.311819,-1.03022 7.068156,3.31921 1.44166,1.66928 0.51468,3.45444 3.10274,6.11012 0.98182,1.00746 2.12777,1.78721 3.31011,1.83741 0.93223,0.0396 2.05641,0.93388 2.85955,1.81594 3.09634,3.4006 0.66933,6.79109 2.1002,7.93113 1.13121,0.90128 2.85414,-1.08624 5.1793,-0.6681 3.55699,0.63968 3.77038,2.51633 5.50396,3.3377 0.62559,0.2964 1.46095,0.20696 2.07281,0.5796 1.58066,0.96269 2.36248,2.99319 4.43555,4.11161 0.67971,0.3667 1.49227,0.27832 2.23633,0.74855 0.71434,0.45145 1.33477,1.50463 1.99908,1.87905 1.03493,0.58332 1.94419,1.12913 2.96799,1.59784 0.88861,0.40683 1.5787,1.21431 2.38332,1.79917 1.01737,0.7395 2.1269,1.27468 3.04349,1.87556 0.89362,0.58582 1.35833,1.58774 2.06591,2.36741 m 4.15774,8.56867 c 0.66407,2.06287 0.71392,3.7998 0.18869,4.79745 -0.69405,1.31832 -0.74421,2.74654 -0.52795,4.32607 0.25314,1.84893 3.03044,3.74171 3.3407,5.77224 0.45398,2.97117 -0.49169,5.60802 1.42627,8.30597"
     id="path14359-1-7-5-3-0-73-1-9-8-5-4"
     inkscape:connector-curvature="0"
     sodipodi:nodetypes="csssccssssssssccssssssssssssssssssssssssccsssc" />
  <path
     style="fill:none;stroke:#000000;stroke-width:1;stroke-linecap:round;stroke-linejoin:round;stroke-miterlimit:4;stroke-dasharray:none;stroke-opacity:1"
     d="m 5.1567168,94.903924 c 1.6361502,0.808326 3.0927524,0.937419 4.583394,1.1324 1.4150272,0.185092 2.1777902,1.442205 3.6013082,1.425164 1.425904,-0.01707 2.711229,-0.561424 4.078751,-0.526778 2.327631,0.05897 4.517971,2.159714 6.520466,2.371559 0.864961,0.0915 1.890988,0.635381 2.997035,0.578777 1.564573,-0.08007 2.646856,-0.755645 4.215851,-1.251489 m 8.531576,-3.505861 c 3.862363,-1.123767 8.393068,-3.869772 12.472552,-3.694796 2.436387,0.104501 3.92385,3.05731 5.710908,5.770887 0.73764,1.120077 2.126201,1.848495 3.082537,2.945083 0.700467,0.80319 0.967809,1.97999 1.585947,2.77062 1.009663,1.2914 2.683259,1.91484 3.658456,2.93935 1.597674,1.67848 2.508941,3.42814 4.35902,3.50581 1.912317,0.0803 3.77005,-0.92065 5.681552,-0.94647 1.984996,-0.0268 3.100473,2.13687 5.299943,2.14575 2.337683,0.009 3.040922,2.71233 4.067573,2.94715 0.767476,0.17553 1.489379,0.62932 2.259683,0.77813"
     id="path14359-1-7-5-3-0-73-1-9-8-5-2"
     inkscape:connector-curvature="0"
     sodipodi:nodetypes="csssssccsssssssssc" />
  <path
     style="fill:none;stroke:#000000;stroke-width:0.5;stroke-linecap:round;stroke-linejoin:round;stroke-miterlimit:4;stroke-dasharray:none;stroke-opacity:1"
     d="m 215.84363,27.92111 c -0.31821,-0.252829 -0.61847,-0.466861 -1.27254,-0.440584 -0.0871,0.0035 -0.36934,0.496166 -0.90442,0.537619 -0.4961,0.03843 -1.68483,0.0055 -1.75306,0.752586 -0.0519,0.568485 -0.0495,1.226955 0.74186,1.295248 0.55727,0.04809 0.498,0.492735 0.97597,0.739803 0.33374,0.172513 0.12117,0.589051 0.0923,0.887606 -0.0257,0.266178 -0.6557,0.211494 -1.42728,0.247549 -0.90541,0.04231 -0.98923,1.297403 -1.65844,1.418672 -0.98743,0.178934 -1.66654,-0.293302 -1.87337,-1.720992 -0.23019,-1.588958 -1.23173,-2.034131 -1.31663,-2.881179 -0.0818,-0.815826 -0.48976,-1.184382 -1.15932,-1.200069 -0.56557,-0.01325 -0.99425,0.754561 -2.04608,0.724365 -0.50543,-0.01451 -0.96246,-0.349932 -1.53261,-0.298504 -0.62721,0.05658 -0.98951,0.948497 -1.74044,1.003689 -0.49308,0.03624 -0.96717,0.482725 -1.54251,0.476573 -0.68525,-0.0073 -1.52596,-0.434624 -1.58108,-1.282318 -0.0583,-0.896568 0.11137,-2.425464 -0.54698,-2.460742 -0.22573,-0.0121 -0.45636,-0.02223 -0.6917,-0.03044 -0.62169,-0.0217 -2.21589,3.060742 -3.49587,3.002082 -0.88944,-0.04076 -1.07428,-0.757862 -1.704,-0.744291 -0.53782,0.01159 -0.62269,0.981677 -1.58946,1.025487 -0.87871,0.03982 -0.69493,-1.43248 -1.78097,-1.480738 -0.49746,-0.0221 -1.27096,0.09891 -1.79478,0.452593 -0.45221,0.30534 -0.65317,0.849272 -1.10567,0.848361 -0.72861,-0.0015 -1.93877,0.04808 -2.0078,0.574497 -0.0413,0.315167 0.46617,0.852312 1.0608,0.903332 0.72195,0.06194 1.06912,0.502878 1.02402,1.332016 -0.0426,0.782539 -0.48294,1.198717 -1.35432,1.210588 -0.26413,0.0036 -0.49172,-0.461507 -0.76775,-0.457069 -0.30658,0.0049 -0.67818,0.394059 -0.68489,0.997846 -0.0225,2.027136 0.9559,1.967772 0.5631,2.349993 -0.43176,0.420129 -0.72771,0.673018 -1.25719,0.680617 -0.30234,0.0043 -0.49704,-0.366141 -0.84611,-0.70877 -0.40735,-0.399842 -0.94778,-0.80805 -0.9334,-1.247237 0.0483,-1.476142 0.12181,-3.374365 -1.18194,-3.409206 -0.87249,-0.02332 -1.91492,-0.07124 -3.08071,0.02179 -1.31214,0.1047 -1.34894,2.278929 -2.14336,2.240464 -0.44484,-0.02154 -1.19486,-0.636301 -1.3377,-1.692481 -0.1071,-0.791912 -0.76413,-1.345712 -1.12344,-1.323222 -0.50083,0.03135 -1.05503,-0.103698 -1.57568,-0.06433 -0.38433,0.02907 -1.13276,0.375811 -1.4589,1.050484 -0.3838,0.793945 -0.31409,1.976361 -0.30373,2.666744 0.0204,1.36283 -1.20671,1.879507 -1.30152,3.133251 -0.0242,0.320014 0.69914,0.254351 0.66603,0.535381 -0.0806,0.683906 0.18081,2.798848 -0.37125,2.868639 -0.61043,0.07717 -0.89726,-0.64151 -1.76463,-0.692782 -0.74428,-0.044 -1.36138,0.131704 -2.2555,0.02251 0.21782,-0.406267 0.54607,-0.950019 0.56388,-1.433475 0.0206,-0.558939 1.30884,-1.332026 1.35452,-2.674351 0.0644,-1.891975 -0.56137,-1.896362 -0.51253,-2.609769 0.0527,-0.770091 0.55936,-0.297647 0.55506,-1.954172 -0.001,-0.4179 0.36194,-0.878459 0.17953,-1.247092 -0.17833,-0.360406 -0.90248,-0.629178 -0.87731,-1.010561 0.0333,-0.504869 0.84231,-1.176441 0.48958,-1.419806 -0.72291,-0.498773 -0.76502,0.225202 -1.41213,0.190469 -0.43718,-0.02347 -0.43199,1.059294 -0.42149,1.621771 0.0482,2.58214 -0.51987,2.258836 -0.59222,3.058655 -0.0237,0.262497 0.0318,1.198655 -0.0965,1.533105 -0.12984,0.338495 -0.45123,0.05416 -0.69679,0.143136 -0.63073,0.228533 -1.01758,0.802278 -1.06917,1.354799 -0.0612,0.655853 -0.37451,1.191335 -1.55319,1.253091 -1.64031,0.08594 -1.63789,-1.312147 -3.11446,-1.228963 -0.81046,0.04566 -1.65552,0.07202 -2.51647,0.08297 -0.88756,0.01129 -2.43173,-1.48649 -2.47956,-2.228719 -0.0576,-0.893744 0.30449,-2.905915 -0.3594,-2.845621 -0.88103,0.08001 -1.66259,1.879221 -3.0064,1.840676 -0.17412,-0.005 -1.53887,-0.511623 -2.8126,-1.29344 -0.52596,-0.32284 -1.25443,0.420822 -1.78444,-0.11674 -1.57595,-1.598428 -3.49122,-3.919256 -3.40865,-4.772744 0.0832,-0.860663 0.96156,-0.896826 1.67709,-0.957061 0.40958,-0.03448 0.93531,-0.756631 1.71389,-2.716258 0.43269,-1.089054 1.4926,-1.438449 1.46533,-2.250439 -0.0249,-0.741523 -0.003,-1.620904 -0.0617,-2.241573 -0.0798,-0.842346 -1.06683,-0.939697 -2.12797,-2.948883 -0.57638,-1.091331 -0.89033,-2.043565 -1.58234,-2.813168 -0.26689,-0.296819 -0.66868,-0.303955 -1.05599,-0.51516 -0.29988,-0.163524 -0.574,-0.568958 -0.8779,-0.571269 -0.58855,-0.0045 -1.16588,-0.06822 -1.2505,-0.678642 -0.0706,-0.5089226 0.87886,-0.5272748 0.93507,-1.2351912 0.0401,-0.5050082 -0.42194,-0.5862359 -0.62247,-0.5942878 -0.15642,-0.00628 -0.77706,0.4787814 -1.40995,0.9504851 -0.53444,0.3983315 -1.1021,0.7381939 -1.15749,1.2623099 -0.0521,0.492832 0.93279,1.231451 1.72283,2.017973 0.67974,0.676714 0.99611,0.925889 1.80018,0.897368 1.11908,-0.03969 1.66811,0.906018 1.83238,1.818295 0.15562,0.864205 0.82824,1.358775 0.85577,2.472506 0.0272,1.09955 -0.40131,1.364925 -0.38542,1.988451 0.0136,0.535264 0.95267,1.183073 0.075,2.145936 -1.08208,1.187077 -3.04015,1.993963 -2.95549,3.45851 0.0306,0.530011 0.0456,1.054274 0.0317,1.56994 -0.0559,2.073209 1.39293,2.817884 1.33057,4.529005 -0.0247,0.677369 -0.37994,1.161438 -1.19063,1.104279 -0.70082,-0.04941 -1.39698,0.206628 -1.39343,0.516895 0.002,0.198005 1.34997,0.80382 2.66864,1.689749 0.76912,0.516725 0.85334,1.326487 2.81355,1.073429 0.61943,-0.07997 1.45539,0.08732 1.87359,0.496355 0.74728,0.730892 1.00679,1.189459 0.99689,1.701375 -0.006,0.330915 -0.24775,1.210392 -1.78827,0.990302 -1.07507,-0.153594 -1.98106,1.527503 -3.08592,1.220781 -0.62861,-0.174509 -1.10363,-0.539165 -0.95952,-1.053441 0.17962,-0.641007 -0.39395,-1.330328 -0.91905,-1.404416 -1.06291,-0.14997 -1.28248,1.540577 -1.96238,1.450509 -0.70439,-0.09331 -1.54057,-0.148943 -2.22169,-0.544697 -0.56634,-0.329061 -1.20431,-0.646603 -1.38241,-1.072735 -0.19099,-0.456988 -0.95251,-0.544072 -1.32154,-0.549114 -1.04037,-0.01421 -1.49866,0.50629 -1.97324,0.985613 -0.39117,0.395074 -0.003,0.908125 -0.75287,1.284901 -0.44744,0.224719 -0.75486,0.554542 -0.66347,1.074657 0.11006,0.626261 0.45679,1.172503 0.34446,1.680658 -0.10019,0.453288 -0.62666,0.902408 -1.05236,0.939604 -0.55174,0.04821 -0.96821,-0.117516 -0.84096,-1.362206 0.0485,-0.474884 0.20917,-1.150252 -0.2117,-1.364831 -0.42221,-0.215266 -0.81997,-0.917536 -0.83054,-1.063143 -0.021,-0.289018 0.35303,-0.778081 0.35735,-1.406822 0.004,-0.555072 0.86767,-1.589309 0.97541,-1.920197 0.24643,-0.756831 0.64385,-1.965292 0.0834,-1.87293 -0.58729,0.09678 -1.75572,1.797891 -2.21667,1.823398 -0.49208,0.02723 -0.83394,-0.717007 -0.90725,-1.388119 -0.15566,-1.424919 -1.39657,-0.711477 -1.80051,-1.643497 -0.14644,-0.337902 -0.0226,-0.801952 -0.10426,-1.14659 -0.0866,-0.365356 -0.33841,-0.693275 -0.31944,-1.066289 0.048,-0.943141 1.05251,-1.080868 1.06607,-2.304515 0.008,-0.697682 -0.29264,-0.704366 -0.73648,-0.709314 -0.67709,-0.0075 -0.97378,0.504888 -1.14604,0.514234 -0.78713,0.0427 -1.81866,-0.740926 -2.01183,-1.448088 -0.14116,-0.516789 0.01,-0.995904 -0.0528,-1.519875 -0.0802,-0.671946 -1.11162,-1.321133 -1.80805,-1.831654 -0.76321,-0.559471 -0.69661,-1.147842 -0.67055,-1.920775 0.0285,-0.846856 -0.81764,-1.118457 -0.77979,-2.08679 0.0592,-1.513242 0.14229,-3.931248 -0.26027,-3.914946 -0.24051,0.0097 -0.38998,0.467988 -0.53563,0.642521 -0.25483,0.305367 -0.41003,0.445477 -0.39053,0.835696 0.0284,0.567528 -0.6476,1.471013 -0.69239,2.031226 -0.0518,0.648241 -1.41208,0.06964 -1.37113,1.343988 0.048,1.494574 1.39463,1.604138 1.36908,2.620931 -0.0203,0.806529 -0.0536,1.599353 0.33962,1.798576 0.90043,0.456222 1.57661,0.600849 1.56599,1.518933 -0.0206,1.778157 0.47113,2.025232 1.08589,2.045523 0.62073,0.02049 0.93325,0.591128 0.96918,1.043063 0.0272,0.341851 -0.39618,0.801716 -0.96045,0.84277 -0.47304,0.03442 -0.81511,0.45068 -0.81026,0.753663 0.005,0.307303 0.5085,0.470065 0.87278,0.706532 0.37418,0.242892 0.61078,0.5612 0.72934,1.013711 0.0746,0.284565 0.24497,1.120173 0.8046,1.371855 0.44665,0.200868 0.60333,0.486665 0.95259,0.447757 0.79919,-0.08903 1.47982,0.211391 1.53237,0.670935 0.04,0.350208 -0.1432,1.180253 0.29847,1.430409 0.73778,0.417873 1.57337,0.635619 1.61566,1.199129 0.0667,0.888261 0.11714,1.784379 0.16848,2.687374 0.0262,0.460771 -0.66506,0.751317 -1.34992,1.180685 -0.6857,0.429884 -1.28594,0.996423 -1.31142,1.503653 -0.0766,1.525513 0.54148,1.555916 0.49822,2.434089 -0.0291,0.591515 -0.30152,1.181086 -0.8571,1.298697 -0.62505,0.132318 -1.31253,-0.626078 -1.97788,-0.616831 -0.34253,0.0048 -0.80483,-0.225651 -0.8753,-0.905651 -0.0722,-0.696716 0.19726,-1.720441 -0.16891,-1.705098 -0.80944,0.03392 -1.23429,0.18366 -1.53521,0.442991 -0.39935,0.344151 -0.58045,0.816376 -1.15251,0.832784 -0.51059,0.01464 -0.22973,0.693279 0.41122,0.775391 1.25905,0.161296 2.27751,2.421028 2.23046,3.369464 -0.0327,0.659729 -0.47059,1.609768 -0.69624,2.403858 -0.10545,0.371046 -0.31434,1.009993 -0.79527,1.104553 -0.40029,0.0787 -0.5243,-0.996303 -0.89946,-0.844454 -0.45997,0.186179 -1.16944,1.548625 -1.64328,1.579019 -1.60038,0.102654 -1.76707,-1.162011 -2.72358,-1.150484 -0.51129,0.0062 -0.5532,0.523027 -1.40879,0.506878 -0.44898,-0.0085 -1.06934,-0.361637 -1.13989,-1.121697 -0.10901,-1.174468 -0.66232,-1.250928 -1.41659,-1.299157 -0.7311,-0.04675 -1.04944,0.441915 -1.68938,0.44775 -0.79468,0.0072 -1.42782,0.964979 -1.44688,1.581038 -0.0128,0.413604 -0.0173,0.970861 0.53963,0.935138 0.41408,-0.02656 1.01673,-0.543951 1.48447,-0.420518 0.67406,0.177875 1.15981,1.089596 1.17038,1.694537 0.007,0.390775 -0.002,1.304419 0.61652,1.279707 0.62725,-0.02507 1.28953,0.04094 1.25152,0.703301 -0.004,0.06146 0.25068,0.742127 0.66841,0.954501 0.31164,0.158441 0.75213,-0.132871 1.04091,-0.118355 0.48392,0.02432 1.24318,1.035846 2.28244,1.365287 1.17697,0.373092 2.18728,1.032689 2.78537,1.041644 0.95216,0.01426 1.52522,-0.375452 1.94243,-0.341513 1.0712,0.08714 0.85929,1.26693 0.7998,1.673201 -0.20712,1.414447 -1.17692,3.092407 -1.76308,3.080143 -1.3112,-0.02743 -1.25809,-1.939607 -2.36906,-2.038784 -0.76599,-0.06838 -1.02849,0.549757 -1.47631,1.00874 -0.54286,0.556383 -1.2614,1.066873 -2.2091,1.037545 -0.90653,-0.02805 -1.02949,0.807888 -1.00933,1.930688 0.0132,0.738207 -0.45796,1.911262 0.71124,1.99734 1.30388,0.09599 2.50181,1.338483 2.50761,2.520064 0.002,0.337291 -0.0488,0.811575 -0.75308,0.665729 -0.54094,-0.112016 -1.32129,-0.304114 -1.68133,-1.012058 -0.62865,-1.236109 -1.13903,-0.934741 -2.0969,-0.918025 -1.67417,0.02922 -3.29037,1.866318 -3.33956,3.163555 -0.0339,0.894573 0.26038,1.3255 0.93303,1.386547 0.45033,0.04087 1.90816,0.01509 1.94076,-0.54135 0.0262,-0.447281 -0.61297,-0.557634 -0.58153,-1.133268 0.0244,-0.446669 0.38928,-0.88515 1.3712,-0.938365 0.38724,-0.02098 1.20543,0.460517 1.90191,0.364835 0.37533,-0.05156 0.97904,-0.07383 1.3261,0.08685 1.48995,0.689794 1.86162,1.263262 1.86709,1.607146 0.0105,0.65952 0.60445,1.028259 1.12006,1.033822 1.2719,0.01372 1.73917,-1.841888 1.85202,-2.775506 0.0168,-0.13858 -0.45676,-0.780557 -0.49451,-1.545065 -0.0357,-0.722916 -0.31959,-1.416869 -0.96294,-1.674218 -0.94178,-0.376725 -2.6529,-1.225833 -2.66233,-1.945699 -0.009,-0.68169 0.89925,-1.756489 1.38875,-1.66898 0.53741,0.09607 0.93673,0.849595 1.73487,1.562837 0.58671,0.524301 1.06034,0.362257 1.45534,0.372015 1.37955,0.03408 1.37849,1.062352 1.937,1.621747 0.41414,0.414789 1.44064,0.397717 1.60834,0.394896 0.45045,-0.0076 0.80075,0.256918 0.96634,0.655364 0.27056,0.651015 0.65398,0.808454 1.37779,0.730911 0.84456,-0.09048 1.3473,-1.777547 1.88699,-2.314972 0.38139,-0.379785 2.02458,-0.203839 2.97212,-0.142965 0.77752,0.04995 1.60264,-0.918358 2.1214,-1.54848 0.0963,-0.116979 -1.10359,-0.08719 -2.50266,-0.157696 -2.5201,-0.126993 -2.27139,1.395642 -3.02638,1.418342 -0.53936,0.01622 -2.17554,0.366731 -2.22612,-0.62722 -0.0324,-0.636829 -0.96685,-0.953199 -1.33122,-1.011493 -0.46953,-0.07512 -0.97064,0.03507 -1.2012,-0.30775 -0.57632,-0.856927 1.45384,-2.067383 1.39466,-5.675357 -0.006,-0.394213 -0.43877,-0.76013 -0.45123,-1.254985 -0.0258,-1.025545 -0.2809,-1.591465 -0.74834,-1.61333 -0.16237,-0.0076 -0.89171,0.0798 -1.77707,0.411602 -0.72715,0.27251 -1.54566,0.793168 -2.36043,0.849452 -0.69286,0.04786 -1.27187,-0.434617 -1.60058,-0.860453 -0.48013,-0.622001 -1.50967,-0.944871 -1.10551,-1.139991 0.5688,-0.274606 0.84505,0.325293 2.64512,0.187885 0.89148,-0.06805 1.82083,0.246591 2.9488,0.120125 0.6809,-0.07634 1.04306,-0.203691 1.51411,-0.583491 0.8464,-0.682438 0.88185,-1.101529 0.96789,-1.686941 0.0908,-0.617575 -0.0566,-1.391835 -0.0693,-2.026694 -0.006,-0.295193 0.49567,-0.775362 0.48367,-1.031205 -0.0171,-0.36519 -2.09066,-0.741617 -1.75424,-1.314815 0.37915,-0.646016 0.83416,-0.251735 1.43086,-0.279256 0.52728,-0.02432 1.02295,-0.193738 1.32429,-0.521854 0.65243,-0.710395 1.27431,-0.884374 1.15278,-1.691635 -0.2055,-1.365022 -0.34995,-2.559017 0.45626,-2.764289 0.64428,-0.164041 0.83706,1.644087 1.09174,2.554541 0.44642,1.595874 1.77984,1.404955 2.21257,2.790356 0.19456,0.622894 0.66019,0.914972 1.04847,0.914362 1.16523,-0.0018 1.28301,0.156477 1.78626,0.141159 0.62381,-0.01899 0.93373,0.790269 1.60181,0.400815 0.2522,-0.14702 0.23138,-1.467315 -0.9351,-2.005482 -0.61219,-0.282439 -1.17777,-0.759987 -1.82164,-1.365764 -0.45004,-0.423419 -1.1323,-0.958055 -1.05472,-1.362593 0.22839,-1.190896 2.58557,-1.641307 2.98241,-2.218334 0.43307,-0.629691 -0.49255,-0.749783 -0.14473,-1.37899 0.50841,-0.919707 0.26451,-2.426143 0.62264,-2.497722 0.88011,-0.175906 1.77128,2.805721 2.71322,2.71691 0.68139,-0.06425 0.89142,-0.772996 1.50228,-0.861572 0.66516,-0.09645 0.75681,0.894434 2.43289,0.972082 1.43613,0.06653 1.54827,-0.441986 2.25611,-0.780054 0.48765,-0.232906 0.52463,0.919948 1.67479,0.982483 1.24574,0.06773 1.70572,-1.304734 2.72173,-1.306653 1.08662,-0.0021 1.74859,1.452575 2.87207,1.38308 0.50435,-0.0312 1.61007,-0.385293 2.71468,-0.435061 1.77999,-0.0802 2.53787,0.458987 2.90503,1.055465 0.20043,0.325614 -0.89885,0.818073 -0.57981,1.007929 0.55262,0.328854 1.09332,0.457523 1.48874,0.894528 0.38716,0.427872 -0.0846,1.066138 0.18489,1.565361 0.19666,0.364307 1.1916,0.244387 1.26576,0.663709 0.17593,0.994896 -0.0384,2.880058 -0.009,3.595181 0.0289,0.706229 -0.60359,1.905787 -1.53384,1.855614 -1.18669,-0.064 -2.28164,0.720262 -2.31279,1.436109 -0.0269,0.618229 0.21309,0.859038 0.63894,0.945638 0.21594,0.04391 1.06425,-1.147119 1.94294,-1.087494 1.15749,0.07854 2.46795,0.0481 2.47984,-1.114396 0.0115,-1.127382 -0.61419,-1.175923 -0.60684,-1.777895 0.007,-0.610009 0.64536,-0.367196 0.70443,-1.711232 0.0306,-0.695299 0.54619,-2.17925 1.38404,-2.543348 0.75233,-0.326931 1.602,-0.04267 1.77779,-0.766222 0.13905,-0.572348 -0.13059,-1.134375 -0.9521,-1.469812 -0.60502,-0.247041 -1.26961,-0.397449 -1.91569,-1.012199 -0.30855,-0.293588 0.089,-0.943322 -0.5941,-1.518899 -0.53658,-0.452116 -1.2128,0.01408 -1.62699,-0.265441 -0.24168,-0.163102 -0.48759,-0.327955 -0.73682,-0.49391 -0.43672,-0.290805 -1.51213,0.04355 -1.93882,-0.27586 -0.3566,-0.266943 -0.70692,-0.543687 -1.04629,-0.829916 -0.85657,-0.722431 -2.26066,0.145504 -3.17717,-0.717523 -0.25988,-0.244721 -0.14571,-1.192075 0.45431,-1.602208 0.60383,-0.41274 0.57774,-1.069137 -0.0248,-1.455821 -0.44413,-0.285042 -0.77851,-0.181333 -1.19882,-0.176098 -0.47967,0.006 -0.99164,-0.124629 -1.21836,-0.304911 -0.76927,-0.611702 -0.78337,-1.326432 -0.71271,-1.437506 0.10486,-0.16486 1.34022,-0.460355 2.11284,-0.112567 0.56904,0.256144 0.6529,1.153943 1.04756,1.211992 0.48201,0.0709 1.10644,-0.28913 1.66882,-0.252319 0.73759,0.04828 1.51364,0.280647 2.54141,0.539278 0.63744,0.160407 1.52917,0.278431 2.09217,0.527712 0.64789,0.286863 0.93001,0.901225 1.58447,1.076582 0.6099,0.163414 1.08911,0.475302 1.56709,0.504408 0.43137,0.02627 1.77761,0.115137 2.54642,-0.250277 1.06334,-0.505399 0.56529,-1.471775 1.22582,-1.989809 0.47818,-0.37503 0.89419,-0.338804 1.38799,-0.322664 1.51729,0.04959 0.70928,-1.206563 0.93563,-1.180563 0.274,0.03147 0.25887,0.154379 0.32679,0.483802 0.064,0.310377 -0.96821,0.858854 -1.02531,1.342234 -0.0577,0.488444 -0.54583,0.864774 -0.60571,1.423773 -0.0577,0.539079 -0.72523,0.461 -0.81778,1.509527 -0.13589,1.539494 -0.98043,2.958491 0.94577,3.012072 2.32956,0.0648 1.37088,-1.507053 2.56358,-1.489132 0.44589,0.0067 1.40414,0.04746 2.19365,0.0994 0.48504,0.03191 0.55034,0.80328 0.93279,1.159179 0.88299,0.821675 1.83238,1.200355 2.72652,1.213802 1.13048,0.017 2.56524,0.02293 3.6031,0.126792 0.76783,0.07684 1.12703,-0.554711 1.12633,-1.129405 -5.8e-4,-0.471823 -1.24282,-2.282342 -3.14376,-2.574267 -0.0351,-0.0054 -0.92376,0.08854 -1.4916,-0.344294 -0.4341,-0.330899 -0.59207,-1.111448 -0.5662,-1.634125 0.0503,-1.01603 -0.0768,-1.85598 0.0305,-2.89952 0.096,-0.934135 -0.78264,-1.959368 -0.13069,-2.882905 0.2401,-0.340123 1.09181,-0.338199 1.34816,0.09913 0.43696,0.745457 0.74583,1.243896 1.23015,2.158623 0.81295,1.535374 1.98636,0.142885 2.43916,0.496196 0.4383,0.341996 -0.35069,1.585063 -0.34822,1.743434 0.0269,1.723108 1.84338,2.195092 2.23097,2.216893 1.05723,0.05946 1.35652,-0.694758 1.91247,-1.196026 0.53219,-0.479847 0.69251,-1.429543 1.45363,-1.432804 0.83284,-0.0036 1.12064,1.304864 1.93081,1.379728 0.65814,0.06081 1.44249,0.661865 1.43921,1.921174 -0.003,1.341578 -0.36021,2.295725 -0.0344,2.163474 0.3648,-0.148096 0.42456,-0.73283 0.75009,-1.218527 0.31211,-0.465678 0.89609,-0.819656 0.97121,-1.552656 0.0569,-0.555026 -0.35025,-1.254229 -0.36771,-1.909187 -0.0105,-0.392433 0.35448,-0.834936 0.37123,-1.239888 0.0277,-0.669358 -0.40696,-1.14819 -0.34874,-1.842313 0.0344,-0.410767 0.67491,-0.84843 1.41706,-1.086792 1.05786,-0.339763 1.69849,-0.907568 1.6332,-2.107096 -0.0524,-0.962391 -1.15813,-0.844038 -1.06427,-1.908161 0.0912,-1.034125 -0.23993,-1.632535 1.55485,-2.085128"
     id="path16887"
     inkscape:connector-curvature="0"
     sodipodi:nodetypes="csssssssssssssssssssssssssssssssssssssssssssssscssssssssssssssssssssssssssssssssssssssssssssssssssssssssssssssssssssssssssssssssssssssssssssssssssssssssssssssssssssssssssssssssssssssssssssssssssssssssssssssssssssssssssssssssssssssssssssssssssssssssssssssssssssssssssssssssssssssssssssssssssssssssssssssssssssssssssssssssssssssssssc" />
  <path
     style="fill:none;stroke:#000000;stroke-width:0.5;stroke-linecap:butt;stroke-linejoin:round;stroke-miterlimit:4;stroke-dasharray:4, 1, 0.50000000000000000, 1;stroke-opacity:1;stroke-dashoffset:0"
     d="m 203.43542,3.610425 c -0.30054,1.0104593 0.466,1.8310935 1.42088,2.0979251 0.92006,0.2571018 1.52757,1.3208156 1.23413,2.2907974 -0.3014,0.9962734 -1.41315,1.6451684 -2.41031,1.2758532 -0.91604,-0.3392713 -2.48336,-0.7732066 -2.89225,0.3910959 -0.33123,0.9431734 1.37682,1.8769914 0.65468,2.7303814 -0.78794,0.931149 -1.83557,-0.941539 -1.73389,-1.897955 0.10113,-0.9512577 0.15232,-2.5357537 -1.17618,-2.6729681 -0.90898,-0.093885 -2.31246,-0.4457162 -2.4779,0.8130855 -0.13879,1.0559875 1.41845,1.3959256 1.51788,2.4212446 0.0963,0.99259 0.7809,2.248569 -0.19891,3.082283 -0.71962,0.612321 -2.24827,1.091611 -2.52951,-0.180399 -0.23938,-1.082669 0.95906,-1.832689 0.6582,-2.938609 -0.30237,-1.1114731 -1.27801,-1.797051 -2.18479,-2.371818 -0.97444,-0.6176489 -2.12073,-0.076988 -2.70298,0.8041606 -0.54691,0.8276654 0.12707,1.7664254 0.72444,2.2791844 0.91997,0.789659 -0.024,1.707685 -1.00992,1.268105 -1.1466,-0.511211 -2.21122,-1.1753 -3.40046,-1.536888 -0.87664,-0.266541 -2.14792,-0.175087 -2.65647,0.757174 -0.0698,0.127934 0.0181,0.270081 0.0192,0.421244 0.01,1.396597 -0.25923,2.585463 0.61508,3.459775 1.08501,1.085008 1.44372,1.47148 2.80627,2.152756 0.59757,0.298785 1.4356,-0.870926 2.07587,-0.230653 0.25179,0.251786 0.27252,0.957655 -0.0384,1.268588 -0.92703,0.927059 -3.55475,0.210292 -3.95953,0.615073 -0.1969,0.1969 -0.22396,0.493057 -0.42286,0.691958 -1.32303,1.323032 0.33922,2.684191 1.15326,3.498228 0.11306,0.11306 0.12735,0.319562 0.23065,0.422862 0.50993,0.509932 -0.26873,1.595309 -0.34598,1.84522 -0.0986,0.319127 -0.17949,0.551117 -0.30757,0.807283 -1.22127,2.442529 1.02935,4.015145 0.49974,5.074353 -0.36404,0.728089 -1.66856,1.053491 -2.22964,1.614567 -0.6179,0.6179 0.16943,2.175542 -0.42286,2.767829 -1.09438,1.094379 -1.71302,1.977419 -3.11381,0.576631 -0.16075,-0.160749 -0.45877,-0.112794 -0.61507,-0.269095 -0.30358,-0.303583 -1.49316,-0.109248 -1.9221,-0.538189 -0.73251,-0.732508 0.45035,-1.241094 -0.30754,-1.998987 -0.8332,-0.833203 -2.42231,3.305103 -3.19069,1.768335 -0.11262,-0.225245 0.0384,-0.73774 0.0384,-0.999494 0,-0.875026 -1.73109,0.65114 -2.38341,-0.653515 -0.12149,-0.242971 -0.30612,-0.420741 -0.4613,-0.653515 -0.53644,-0.804654 -0.69099,-2.306524 -1.80678,-2.306524 -0.31408,0 -1.0669,-0.134336 -1.23015,0.19221 -0.0962,0.192453 -0.9381,4.174688 -0.80728,4.305512 0.17637,0.17637 1.14653,1.397386 0.88417,1.922103 -0.50503,1.01005 -2.10265,2.16442 -0.9995,3.267576 1.31355,1.313547 4.24021,-0.784124 5.30501,1.345472 0.19944,0.398886 -0.28318,0.807283 -0.61507,0.807283 -0.624,0 -1.37315,0.293699 -2.03743,-0.03844 -0.39002,-0.195008 -0.70535,-0.30257 -0.96105,-0.615073 -0.76463,-0.934498 -1.85095,-1.19457 -2.92156,-1.729895 -0.0927,-0.04635 -0.33711,0.0089 -0.42286,-0.07688 -0.44874,-0.448779 -1.28047,-0.640233 -1.99899,-0.999494 -0.55389,-0.276944 -1.59431,0.250914 -2.03743,-0.19221 -0.54304,-0.54304 0.0423,-1.687626 -0.46131,-2.191198 -0.21717,-0.217159 -0.52105,-0.521033 -0.7304,-0.730399 -0.0776,-0.07762 -0.28495,-0.02715 -0.38442,-0.07688 -0.32645,-0.163224 -3.23109,0.847688 -3.3829,0.999493 -0.1786,0.178597 -2.29183,-0.742272 -2.57562,-0.884167 -0.74549,-0.372745 -1.40321,0.105676 -1.9221,-0.153772 -0.35172,-0.175861 -1.14788,0.0988 -1.49924,-0.07688 -0.4415,-0.220752 -1.7589,-1.638507 -2.34497,-1.345473 -0.44881,0.224406 -1.19163,0.538122 -1.53768,0.884168 -0.1093,0.109297 -0.15234,0.268378 -0.30754,0.345978 -0.29154,0.145773 -0.61705,0.155749 -0.84572,0.384421 -0.39306,0.393062 -0.13055,1.322254 -0.49975,1.691451 -0.15595,0.155953 -0.095,0.479398 -0.26909,0.653515 -0.59112,0.591155 -0.7157,1.527277 -1.69145,1.768335 -0.75361,0.186179 -1.53093,0.09355 -2.17094,0.413557 -0.49379,0.246894 -0.9468,0.470784 -1.29205,0.816033 -0.82256,0.822553 -4.03041,-0.766274 -4.42018,-1.156047 -0.2818,-0.281796 -1.6935,-0.200722 -2.10809,-0.408016 -0.55692,-0.278459 -0.83831,-1.020042 -1.56406,-1.020042 -0.3781,0 -1.26296,-0.369104 -1.70007,0.068 -1.07732,1.077317 -1.20794,4.404072 -1.36005,4.556184 -0.47127,0.471271 -1.00447,0.604235 -1.56407,0.884036 -1.62297,0.811487 -5.02016,-3.177474 -7.00428,-2.516102"
     id="path16908"
     inkscape:connector-curvature="0"
     sodipodi:nodetypes="ccccccccccccccccccccccccccccccccccccscsccscccccsccccccccccccsccccccccccssccsc" />
  <path
     style="fill:none;stroke:#000000;stroke-width:1;stroke-linecap:round;stroke-linejoin:round;stroke-miterlimit:4;stroke-dasharray:none;stroke-opacity:1"
     d="m 214.75333,155.87084 c -3.16996,0.0899 -5.74098,1.55256 -8.8419,-0.0574 m -6.92558,-5.94469 c -2.87974,-3.43375 -4.55797,-4.97295 -8.34151,-5.06883 -2.07514,-0.0526 -3.79022,-0.2603 -5.3578,-1.81237 -1.95671,-1.93736 -2.22012,-3.65038 -2.95283,-4.35584 -2.32354,-2.23714 -4.82885,-3.80315 -6.95286,-5.69864 -1.14539,-1.02216 -1.11616,-3.13417 -2.66394,-3.15758 -0.7965,-0.0121 -1.66583,1.04211 -2.46317,1.03236 -0.45777,-0.006 -1.24049,-0.3647 -2.0902,-0.32681 -0.53321,0.0238 -1.74813,1.63345 -2.35188,2.59503 -1.44597,2.30294 -3.8138,6.06917 -5.12572,6.53983 -1.20596,0.43263 -2.95981,0.85722 -3.98789,0.89903 -1.12052,0.0456 -1.84132,-0.8093 -3.05334,-0.75085 -1.91457,0.0923 -3.08282,2.25404 -6.56552,2.00037 -3.31328,-0.24133 -1.82206,-2.70076 -8.54264,-4.34341 -4.45082,-1.08787 -7.51523,0.51983 -10.13216,-0.25214 -2.11569,-0.62411 -2.94725,-2.98991 -4.63628,-4.4256 -1.42823,-1.21401 -2.87005,-0.73133 -4.63625,-1.50316 -3.96421,-1.73236 -3.69251,-6.07498 -6.59393,-6.76116 -3.18631,-0.75355 -6.51421,3.87397 -11.25621,0.83924"
     id="path14359-1-7-5-3-0-73-1-9-8-5-33"
     inkscape:connector-curvature="0"
     sodipodi:nodetypes="cccsssssssssssssssssc" />
  <path
     style="fill:none;stroke:#000000;stroke-width:0.5;stroke-linecap:round;stroke-linejoin:round;stroke-miterlimit:4;stroke-dasharray:none;stroke-opacity:1"
     d="m 214.71264,93.525181 c -2.79877,-0.284897 -2.06524,-3.614113 -3.70943,-3.63005 -1.10664,-0.01073 -1.62036,1.053815 -1.6446,2.566572 -0.0232,1.450738 -0.13682,2.924979 -1.11842,2.899691 -1.82925,-0.04713 -2.22222,-2.104114 -1.97999,-3.680445 0.23376,-1.521241 -0.36584,-2.059071 -1.31573,-2.058327 -1.6143,0.0013 -3.38512,1.521578 -3.66682,3.469937 -0.17627,1.219186 -0.01,2.113054 -1.03832,2.930897 -0.49089,0.390411 -1.04569,0.759361 -1.65125,1.108692 -0.89346,0.515407 -1.89742,1.20182 -1.90108,2.278862 -0.002,0.452349 0.66812,1.31845 0.61118,2.0341 -0.05,0.62903 -0.80017,1.13427 -1.06772,1.34593 -1.20033,0.94959 -2.51086,1.05498 -2.67292,3.16975 -0.0733,0.95607 0.30774,3.69778 -1.51729,3.60105 -1.17148,-0.0621 -2.56705,-1.10747 -3.93325,-2.84864 -2.1039,-2.68134 -4.53347,-4.45162 -7.26252,-3.96947 -1.56391,0.2763 -1.58312,4.10603 -2.92713,4.50541 -0.89617,0.2663 -2.23906,-1.07975 -3.74155,-2.03032 -1.93115,-1.22176 -4.01804,-0.87802 -5.13372,-0.2417 -2.7462,1.5663 -1.57784,3.43519 -1.54659,6.40402 0.0184,1.74779 -1.80566,1.82731 -1.75748,2.96498 m 2.68217,5.97517 c 0.16176,0.48744 0.24208,0.96528 0.19145,1.4282 -0.15175,1.38753 -1.74037,1.96797 -1.9668,3.16933 -0.60244,3.19621 -1.80867,5.13172 -2.79538,5.17011 -3.17299,0.12346 -2.44963,-6.37587 -9.84869,-6.66335 -1.5844,-0.0615 -7.73979,2.18518 -7.7345,6.53527 0.003,2.31227 2.65376,2.92734 2.51539,4.75557 -0.0952,1.25778 -1.94553,1.75758 -3.38431,1.93214 -1.52059,0.18448 -2.47219,-0.5704 -2.4985,-1.76491 -0.0335,-1.52289 1.6833,-2.08846 1.52254,-4.33723 -0.22231,-3.10997 -2.0971,-4.90266 -3.2719,-4.86804 -1.24077,0.0366 -2.1283,0.59 -3.94327,0.59126 -4.24747,0.003 -5.71392,-1.18296 -7.80623,-4.99423 -1.65878,-3.02156 -1.57071,-6.78339 -3.94317,-6.72195 -1.82315,0.0472 -2.39394,2.2677 -3.98972,2.31369 -2.66566,0.0768 -3.57854,-7.09139 -9.20534,-6.55088 -3.70942,0.35632 -2.2143,7.54525 -6.0864,7.63433 -0.99014,0.0228 -2.02271,-0.57298 -2.0234,-1.75675 -6.7e-4,-1.15875 1.45356,-1.89551 1.46499,-4.06923 0.006,-1.13862 -1.00751,-2.0468 -2.03671,-1.91444 -3.09035,0.39741 -3.5049,-1.23555 -5.370368,-1.1349 -1.234749,0.0666 -2.774826,-0.68017 -3.092209,0.40139 -1.022139,3.48323 4.027325,5.54322 3.262496,7.32381 -0.479687,1.11676 -0.906045,2.11171 -2.055952,2.06148 -0.796989,-0.0348 -1.394188,0.45089 -2.218065,0.45866 -1.725944,0.0163 -3.190688,-0.12177 -4.629768,1.01809 -1.525455,1.20828 -1.671413,3.32786 -2.916477,4.51412 -1.375456,1.3105 -3.739223,3.10335 -3.674507,4.13095 0.03473,0.5514 0.600593,1.19636 2.094048,1.19534 1.203682,-8.2e-4 2.822081,0.97015 2.846361,2.23785 0.02022,1.05565 -1.666626,1.60147 -3.260593,2.38145 -1.729173,0.84615 -3.37424,1.93008 -3.286013,3.22853 0.08961,1.31882 1.789961,3.2399 1.957035,5.9485 0.09119,1.47845 -1.055322,3.14071 -2.32891,3.29211 -0.586158,0.0697 -1.36704,-0.0847 -2.05343,-0.0348 -1.20803,0.0879 -2.279012,-1.9896 -2.406189,-3.52064 -0.168003,-2.02254 -0.126721,-3.18279 -2.243839,-4.18798 -0.844403,-0.40091 -1.97635,-1.22171 -3.113576,-3.07979 -1.007334,-1.64585 -2.440086,-3.19993 -4.626518,-3.35497 -1.234864,-0.0876 -2.58187,0.46613 -3.923192,0.34436 -1.261115,-0.11449 -2.50894,-0.90046 -3.906441,-1.10424 -0.630616,-0.092 -1.278521,0.43864 -1.941675,0.32648 -1.912125,-0.32339 -3.950485,-1.27501 -6.067811,-1.24428 -4.325379,0.0628 -4.064608,2.64729 -7.235184,2.83541 -1.972265,0.11702 -2.447275,-0.94142 -3.98212,-1.05534 -2.32642,-0.17268 -4.588006,2.41725 -6.839909,2.93803 -1.652208,0.3821 -3.711797,2.11068 -4.188332,4.53747 -0.270789,1.37901 1.154296,1.86258 1.37443,2.84583 0.268472,1.19914 0.428078,2.40925 -0.796405,2.80939 -1.170804,0.38259 -2.281574,0.11866 -3.094291,-0.55865 -0.719735,-0.59982 -1.139596,-1.53486 -2.132995,-2.47006 -1.097084,-1.03281 -2.973742,-0.37465 -4.51858,-1.65607 -1.998768,-1.65794 -2.474766,-3.66079 -3.938285,-3.58862 -1.898088,0.0936 -1.567931,2.70571 -1.558312,4.27523 0.01818,2.96598 -1.448342,4.82047 -4.4183874,4.92314 -2.0777444,0.0718 -3.7582279,-0.0274 -4.5955517,-0.12127"
     id="path14359-1-7-5-3-0-73-1-9-8-5-7"
     inkscape:connector-curvature="0"
     sodipodi:nodetypes="csssssssssssssssssssccssssssssssssssssssssssssssssssssssssssssssssssssssssssc" />
  <g
     id="g925"
     sodipodi:insensitive="true">
    <text
       id="text4692"
       y="30.737644"
       x="101.75056"
       style="font-style:normal;font-variant:normal;font-weight:normal;font-stretch:normal;font-size:5.33333349px;line-height:6.66666651px;font-family:Arial;-inkscape-font-specification:Arial;text-align:start;letter-spacing:0.2px;word-spacing:0px;text-anchor:start;fill:#000000;fill-opacity:1;stroke:none"
       xml:space="preserve"><tspan
         y="30.737644"
         x="101.75056"
         id="tspan4690"
         sodipodi:role="line">259</tspan></text>
    <text
       id="text4692-7"
       y="167.97173"
       x="142.96323"
       style="font-style:normal;font-variant:normal;font-weight:normal;font-stretch:normal;font-size:5.33333349px;line-height:6.66666651px;font-family:Arial;-inkscape-font-specification:Arial;text-align:start;letter-spacing:0.2px;word-spacing:0px;text-anchor:start;fill:#000000;fill-opacity:1;stroke:none"
       xml:space="preserve"><tspan
         y="167.97173"
         x="142.96323"
         id="tspan4690-9"
         sodipodi:role="line">259</tspan></text>
    <text
       id="text4692-3"
       y="155.01678"
       x="199.1013"
       style="font-style:normal;font-variant:normal;font-weight:normal;font-stretch:normal;font-size:5.33333349px;line-height:6.66666651px;font-family:Arial;-inkscape-font-specification:Arial;text-align:start;letter-spacing:0.2px;word-spacing:0px;text-anchor:start;fill:#000000;fill-opacity:1;stroke:none"
       xml:space="preserve"><tspan
         y="155.01678"
         x="199.1013"
         id="tspan4690-8"
         sodipodi:role="line">70</tspan></text>
    <text
       id="text4692-3-0"
       y="98.474571"
       x="32.205467"
       style="font-style:normal;font-variant:normal;font-weight:normal;font-stretch:normal;font-size:5.33333349px;line-height:6.66666651px;font-family:Arial;-inkscape-font-specification:Arial;text-align:start;letter-spacing:0.2px;word-spacing:0px;text-anchor:start;fill:#000000;fill-opacity:1;stroke:none"
       xml:space="preserve"><tspan
         y="98.474571"
         x="32.205467"
         id="tspan4690-8-2"
         sodipodi:role="line">70</tspan></text>
    <text
       id="text4692-3-4"
       y="49.465168"
       x="160.17647"
       style="font-style:normal;font-variant:normal;font-weight:normal;font-stretch:normal;font-size:5.33333349px;line-height:6.66666651px;font-family:Arial;-inkscape-font-specification:Arial;text-align:start;letter-spacing:0.2px;word-spacing:0px;text-anchor:start;fill:#000000;fill-opacity:1;stroke:none"
       xml:space="preserve"><tspan
         y="49.465168"
         x="160.17647"
         id="tspan4690-8-8"
         sodipodi:role="line">88</tspan><tspan
         id="tspan4746"
         y="56.131836"
         x="160.17647"
         sodipodi:role="line" /></text>
    <text
       id="text4692-3-3"
       y="206.17772"
       x="143.58203"
       style="font-style:normal;font-variant:normal;font-weight:normal;font-stretch:normal;font-size:5.33333349px;line-height:6.66666651px;font-family:Arial;-inkscape-font-specification:Arial;text-align:start;letter-spacing:0.2px;word-spacing:0px;text-anchor:start;fill:#000000;fill-opacity:1;stroke:none"
       xml:space="preserve"><tspan
         y="206.17772"
         x="143.58203"
         id="tspan4690-8-9"
         sodipodi:role="line">65</tspan></text>
    <text
       id="text4692-3-05"
       y="186.96939"
       x="106.88922"
       style="font-style:normal;font-variant:normal;font-weight:normal;font-stretch:normal;font-size:5.33333349px;line-height:6.66666651px;font-family:Arial;-inkscape-font-specification:Arial;text-align:start;letter-spacing:0.2px;word-spacing:0px;text-anchor:start;fill:#000000;fill-opacity:1;stroke:none"
       xml:space="preserve"><tspan
         y="186.96939"
         x="106.88922"
         id="tspan4690-8-22"
         sodipodi:role="line">31</tspan></text>
    <text
       id="text4692-3-7"
       y="222.92343"
       x="194.43486"
       style="font-style:normal;font-variant:normal;font-weight:normal;font-stretch:normal;font-size:5.33333349px;line-height:6.66666651px;font-family:Arial;-inkscape-font-specification:Arial;text-align:start;letter-spacing:0.2px;word-spacing:0px;text-anchor:start;fill:#000000;fill-opacity:1;stroke:none"
       xml:space="preserve"><tspan
         y="222.92343"
         x="194.43486"
         id="tspan4690-8-3"
         sodipodi:role="line">68</tspan></text>
    <text
       id="text4774"
       y="104.74857"
       x="118.78485"
       style="font-style:normal;font-variant:normal;font-weight:normal;font-stretch:normal;font-size:5.33333349px;line-height:6.66666651px;font-family:Arial;-inkscape-font-specification:Arial;text-align:start;letter-spacing:0.5px;word-spacing:0.25px;text-anchor:start;fill:#150000;fill-opacity:1;stroke:none"
       xml:space="preserve"><tspan
         y="104.74857"
         x="118.78485"
         id="tspan4772"
         sodipodi:role="line">Mammoth Cave</tspan></text>
    <text
       id="text4774-7"
       y="121.27522"
       x="129.78847"
       style="font-style:normal;font-variant:normal;font-weight:normal;font-stretch:normal;font-size:5.33333349px;line-height:6.66666651px;font-family:Arial;-inkscape-font-specification:Arial;text-align:start;letter-spacing:0.64999998px;word-spacing:0.25px;text-anchor:start;fill:#150000;fill-opacity:1;stroke:none"
       xml:space="preserve"><tspan
         y="121.27522"
         x="129.78847"
         id="tspan4772-9"
         sodipodi:role="line">National</tspan></text>
    <text
       id="text4774-7-0"
       y="146.05736"
       x="158.91025"
       style="font-style:normal;font-variant:normal;font-weight:normal;font-stretch:normal;font-size:5.33333349px;line-height:6.66666651px;font-family:Arial;-inkscape-font-specification:Arial;text-align:start;letter-spacing:0.64999998px;word-spacing:0.25px;text-anchor:start;fill:#150000;fill-opacity:1;stroke:none"
       xml:space="preserve"><tspan
         y="146.05736"
         x="158.91025"
         id="tspan4772-9-2"
         sodipodi:role="line">Park</tspan></text>
    <text
       id="text4774-3"
       y="118.6466"
       x="190.9993"
       style="font-style:normal;font-variant:normal;font-weight:normal;font-stretch:normal;font-size:6.66666651px;line-height:8.66666698px;font-family:Arial;-inkscape-font-specification:Arial;text-align:end;letter-spacing:0.5px;word-spacing:0.25px;text-anchor:end;fill:#150000;fill-opacity:1;stroke:none"
       xml:space="preserve"><tspan
         y="118.6466"
         x="191.4993"
         id="tspan4772-99"
         sodipodi:role="line">Mammoth</tspan><tspan
         id="tspan4830"
         y="127.31326"
         x="191.4993"
         sodipodi:role="line">Cave</tspan></text>
    <text
       id="text4834"
       y="73.912033"
       x="182.27225"
       style="font-style:normal;font-variant:normal;font-weight:normal;font-stretch:normal;font-size:5.33333349px;line-height:6.66666651px;font-family:Arial;-inkscape-font-specification:Arial;text-align:start;letter-spacing:0px;word-spacing:1.13999999px;text-anchor:start;fill:#000000;fill-opacity:1;stroke:none"
       xml:space="preserve"><tspan
         y="73.912033"
         x="182.27225"
         id="tspan4832"
         sodipodi:role="line">HART CO.</tspan></text>
    <text
       transform="rotate(-58.182565)"
       id="text4834-7"
       y="218.61328"
       x="9.6366205"
       style="font-style:italic;font-variant:normal;font-weight:normal;font-stretch:normal;font-size:5.33333349px;line-height:6.66666651px;font-family:Arial;-inkscape-font-specification:'Arial Italic';text-align:start;letter-spacing:0.85000002px;word-spacing:1.13999999px;text-anchor:start;fill:#000000;fill-opacity:1;stroke:none"
       xml:space="preserve"><tspan
         y="218.61328"
         x="9.6366205"
         id="tspan4832-0"
         sodipodi:role="line">RIVER</tspan></text>
    <text
       transform="rotate(5.5235053)"
       id="text4834-7-3"
       y="124.95458"
       x="60.767323"
       style="font-style:italic;font-variant:normal;font-weight:normal;font-stretch:normal;font-size:5.33333349px;line-height:6.66666651px;font-family:Arial;-inkscape-font-specification:'Arial Italic';text-align:start;letter-spacing:0.85000002px;word-spacing:1.13999999px;text-anchor:start;fill:#000000;fill-opacity:1;stroke:none"
       xml:space="preserve"><tspan
         y="124.95458"
         x="60.767323"
         id="tspan4832-0-9"
         sodipodi:role="line">GREEN</tspan></text>
    <text
       id="text4884"
       y="57.158142"
       x="120.56733"
       style="font-style:italic;font-variant:normal;font-weight:normal;font-stretch:normal;font-size:5.33333349px;line-height:6.66666651px;font-family:Arial;-inkscape-font-specification:'Arial Italic';text-align:start;letter-spacing:0.89999998px;word-spacing:0px;text-anchor:start;fill:#000000;fill-opacity:1;stroke:none"
       xml:space="preserve"><tspan
         y="57.158142"
         x="120.56733"
         id="tspan4882"
         sodipodi:role="line">NOLIN</tspan><tspan
         id="tspan4886"
         y="63.82481"
         x="120.56733"
         sodipodi:role="line">RIVER RES</tspan></text>
    <text
       id="text4898"
       y="86.522675"
       x="55.965351"
       style="font-style:normal;font-variant:normal;font-weight:normal;font-stretch:normal;font-size:5.33333349px;line-height:6.66666651px;font-family:Arial;-inkscape-font-specification:Arial;text-align:start;letter-spacing:0px;word-spacing:1.12px;text-anchor:start;fill:#000000;fill-opacity:1;stroke:none"
       xml:space="preserve"><tspan
         y="86.522675"
         x="55.965351"
         id="tspan4896"
         sodipodi:role="line">EDMONSON CO.</tspan></text>
    <text
       transform="rotate(68.8684)"
       id="text4898-5"
       y="28.320454"
       x="95.832336"
       style="font-style:normal;font-variant:normal;font-weight:normal;font-stretch:normal;font-size:5.33333349px;line-height:6.66666651px;font-family:Arial;-inkscape-font-specification:Arial;text-align:start;letter-spacing:0px;word-spacing:1.12px;text-anchor:start;fill:#000000;fill-opacity:1;stroke:none"
       xml:space="preserve"><tspan
         y="28.320454"
         x="95.832336"
         id="tspan4896-7"
         sodipodi:role="line">BUTLER CO.</tspan></text>
    <text
       id="text4898-6"
       y="199.87334"
       x="41.788055"
       style="font-style:normal;font-variant:normal;font-weight:normal;font-stretch:normal;font-size:5.33333349px;line-height:6.66666651px;font-family:Arial;-inkscape-font-specification:Arial;text-align:start;letter-spacing:0px;word-spacing:1.12px;text-anchor:start;fill:#000000;fill-opacity:1;stroke:none"
       xml:space="preserve"><tspan
         y="199.87334"
         x="41.788055"
         id="tspan4896-2"
         sodipodi:role="line">WARREN CO.</tspan></text>
    <text
       id="text4898-7"
       y="208.2112"
       x="179.03342"
       style="font-style:normal;font-variant:normal;font-weight:normal;font-stretch:normal;font-size:5.33333349px;line-height:6.66666651px;font-family:Arial;-inkscape-font-specification:Arial;text-align:start;letter-spacing:0px;word-spacing:1.12px;text-anchor:start;fill:#000000;fill-opacity:1;stroke:none"
       xml:space="preserve"><tspan
         y="208.2112"
         x="179.03342"
         id="tspan4896-0"
         sodipodi:role="line">BARREN CO.</tspan></text>
  </g>
</svg>
