<?xml version="1.0" encoding="UTF-8" standalone="no"?>
<!-- Created with Inkscape (http://www.inkscape.org/) -->

<svg
   xmlns:dc="http://purl.org/dc/elements/1.1/"
   xmlns:cc="http://creativecommons.org/ns#"
   xmlns:rdf="http://www.w3.org/1999/02/22-rdf-syntax-ns#"
   xmlns:svg="http://www.w3.org/2000/svg"
   xmlns="http://www.w3.org/2000/svg"
   xmlns:sodipodi="http://sodipodi.sourceforge.net/DTD/sodipodi-0.dtd"
   xmlns:inkscape="http://www.inkscape.org/namespaces/inkscape"
   version="1.1"
   id="svg5228"
   width="256.70792"
   height="252.19107"
   viewBox="0 0 256.70792 252.19107"
   sodipodi:docname="ec01jn91.090.svg"
   inkscape:version="0.92.2 5c3e80d, 2017-08-06">
  <metadata
     id="metadata5234">
    <rdf:RDF>
      <cc:Work
         rdf:about="">
        <dc:format>image/svg+xml</dc:format>
        <dc:type
           rdf:resource="http://purl.org/dc/dcmitype/StillImage" />
        <dc:title></dc:title>
      </cc:Work>
    </rdf:RDF>
  </metadata>
  <defs
     id="defs5232" />
  <sodipodi:namedview
     pagecolor="#ffffff"
     bordercolor="#666666"
     borderopacity="1"
     objecttolerance="10"
     gridtolerance="10"
     guidetolerance="10"
     inkscape:pageopacity="0"
     inkscape:pageshadow="2"
     inkscape:window-width="1280"
     inkscape:window-height="756"
     id="namedview5230"
     showgrid="false"
     inkscape:zoom="2.4786063"
     inkscape:cx="105.27243"
     inkscape:cy="64.846583"
     inkscape:window-x="0"
     inkscape:window-y="1"
     inkscape:window-maximized="1"
     inkscape:current-layer="svg5228"
     fit-margin-top="0"
     fit-margin-left="0"
     fit-margin-right="0"
     fit-margin-bottom="0" />
  <path
     style="fill:#c4c4c4;stroke:none;stroke-width:0.5;stroke-linecap:round;stroke-linejoin:round;stroke-miterlimit:4;stroke-dasharray:none;stroke-opacity:1;fill-opacity:1"
     d="m 43.413327,85.987328 c 0.387267,-0.01726 1.206111,0.862181 1.359988,0.708304 0.109928,-0.109928 0.871772,-0.675948 1.16079,-0.38693 1.667202,1.667203 6.705337,0.287698 7.517494,0.829136 1.123915,0.0928 2.49557,0.10647 3.371818,-0.331654 0.600975,-0.300488 1.377289,0.0023 1.934649,-0.276379 0.35022,-0.17511 1.751168,-0.04645 2.32158,-0.331654 0.42729,-0.213645 0.512311,-0.678139 0.773859,-0.939687 0.257066,-0.257065 0.834623,-0.226589 1.050239,-0.442205 0.0641,-0.0641 3.21054,-0.499757 3.648196,-0.718584 0.264202,-0.132102 1.185701,0.110551 1.547719,0.110551 0.471124,0 1.599052,-0.272435 1.824098,-0.497481 0.162587,-0.162587 6.4286,0.588704 6.909463,0.829135 0.728796,0.364398 0.492441,1.489924 1.271341,1.879374 0.299604,0.149802 0.676108,0.116951 0.994962,0.276378 0.76133,0.380665 1.754211,1.146179 2.266304,1.658271 0.244866,0.244867 0.858465,0.195158 1.271341,0.608033 0.830319,0.830319 -0.251566,2.868687 0.276378,3.924574 0.199813,0.399625 0.236478,1.50782 0.552757,1.824098 0.454416,0.454416 0.671518,1.224275 0.939687,1.492444 0.25138,0.25138 0.546563,0.460553 0.718584,0.718584 0.467576,0.380207 0.409016,1.1276 0.718584,1.437168 0.112225,0.112226 0.475211,-0.02227 0.608033,0.110552 0.868121,0.868121 2.738534,0.41218 3.427093,-0.276379 0.161763,-0.161763 1.375277,-0.159211 1.768822,-0.552757 0.256903,-0.256902 2.339455,-0.644608 2.819061,-0.884411 0.379027,-0.189513 1.000638,0.0248 1.381892,-0.165827 1.613886,-0.806942 3.840868,-0.400352 5.472291,-1.216065 0.9433,-0.471651 4.22824,1.091874 5.52757,0.442205 0.30752,-0.15376 1.16309,-0.333952 1.43717,-0.608032 0.19262,-0.192619 0.26042,-0.481525 0.44221,-0.663309 0.1735,-0.173502 0.45972,-0.128064 0.60803,-0.276378 0.26125,-0.261255 5.13853,-0.384817 5.14064,-0.38693 0.60065,-0.600646 5.58295,-0.994891 6.57781,-0.331654 0.8568,1.035505 2.91293,1.224403 4.14567,0.608032 0.27899,-0.139493 0.46708,-0.45464 1.10552,-0.773859 0.54389,-0.271945 2.21992,-0.03209 2.92961,-0.38693 0.72937,-0.364683 3.4968,0.824325 4.31151,0.552757 0.66641,-0.222139 4.47708,-0.276629 4.91953,0.165827 0.54093,0.540931 2.36485,-0.675317 2.87434,-0.165827 0.6179,0.617904 0.36032,1.244729 0.77386,1.658271 0.49125,0.491251 6.0203,0.552757 7.24111,0.552757 0.16258,0 0.94322,0.05175 1.05024,-0.05528 0.27234,-0.272338 1.80934,-1.693289 2.32158,-1.437168 0.17479,0.0874 0.3924,0.613503 0.49748,0.718584 0.19372,0.193718 2.2412,0.482396 2.65324,0.276378 0.43855,-0.219276 1.07124,-0.186836 1.43717,-0.552757 0.32302,-0.32302 0.44598,-0.692834 0.93968,-0.939686 0.96033,-0.480166 4.93435,-0.381992 5.9145,-0.05528 0.35563,0.246113 1.48793,1.662792 1.76882,1.3819 0.15059,-0.150584 0.43824,-0.858757 0.82914,-0.663308 0.38187,0.190935 0.28501,0.727215 0.55276,0.994962 0.42981,0.429814 2.98867,0.112444 3.64819,0.442206 0.8112,0.405599 1.31518,0.541319 1.98993,1.216065 0.24553,0.245538 1.1967,0.37725 1.54772,0.552757 0.61011,0.305057 1.44813,-0.657824 2.54268,-0.110551 0.24734,0.123672 0.26819,0.382835 0.49748,0.497481 1.77995,0.889974 0.52538,1.907271 1.603,2.98489 0.10241,0.10242 2.66069,1.16824 2.81906,1.32661 0.20848,0.20849 1.13249,-0.0823 1.21606,-0.16582 0.23485,-0.23485 0.35462,-0.57572 0.60803,-0.82914 0.11188,-0.11188 0.56764,-0.0553 0.77386,-0.0553 1.37418,0 1.40697,-1.06031 2.43213,-0.71859 0.34371,0.35562 7.01809,-0.223 7.02002,-0.22107 0.31009,0.31009 0.78233,0.22957 1.16079,0.60803 0.41599,0.416 0.92095,1.14206 1.32661,1.54772 0.28668,0.28668 0.77066,0.439 1.10552,0.77386 0.77751,0.77752 0.79267,2.35862 1.93465,2.92961 0.7192,0.35961 2.10527,-0.16103 2.65323,0.38693 0.36838,0.36838 1.10147,0.65522 1.38189,1.21607 0.20033,0.40066 0.37249,0.92524 0.66331,1.21606 0.23661,0.23661 0.86117,0.14259 1.10552,0.38693 0.80479,0.8048 1.61151,1.72207 2.43213,2.54269 0.30544,0.30544 0.0324,1.20461 0.49748,1.43716 0.28659,0.1433 1.80775,-0.14947 1.93465,-0.27637 0.43675,-0.43676 1.32532,0.38757 1.76882,0.16582 0.74533,-0.37266 3.45428,-0.58085 4.03513,0 0.71247,0.71248 -0.36728,1.69759 0,2.43213 0.24277,0.48555 0.0168,1.67506 0.33165,1.98993 0.22371,0.22371 0.70149,0.31456 0.93969,0.55276 0.10849,0.10849 0.0202,0.40707 0.11055,0.49748 0.0908,0.0908 0.1134,3.87215 0.82913,4.58788 0.18812,0.18811 -0.14724,0.95827 0.0553,1.16079 l 1.05024,1.05024 c 0.18745,0.18745 -0.0523,0.8874 0.16582,1.10551 0.46625,0.46624 1.36644,4.58343 0.88442,5.30647 -0.001,1.32978 -2.0502,1.60797 -2.70853,2.2663 -0.27187,0.27187 -0.56288,0.56287 -0.82914,0.82914 -0.0631,0.0631 -0.85266,2.70029 -1.05024,3.09544 -0.28517,0.57035 -0.13809,8.54019 0.16583,8.84411 0.72829,0.72829 0.90885,-0.25194 1.10551,-0.0553 0.16719,0.16719 0.29643,0.62808 0.49749,0.82914 0.30664,0.30664 0.88945,0.61813 1.10551,1.05024 0.0865,0.17308 0.3018,0.81421 0.4422,0.88441 0.35348,0.17674 0.81534,-0.23491 1.10552,0.0553 0.55413,0.55413 0.49196,1.3211 1.05024,1.87938 1.77403,1.9011 3.41775,3.41774 5.19591,5.1959 0.16652,0.16652 0.43021,0.54076 0.60804,0.71859 0.19072,0.19072 -0.31609,0.72637 0.11055,0.93968 0.28225,0.14113 0.94443,0.06 1.16079,0.27638 0.16969,0.16969 0.52363,0.24725 0.71858,0.44221 0.61615,0.61614 1.54946,1.54946 2.21103,2.21103 0.29275,0.29275 0.4166,0.91408 0.71858,1.21606 0.27113,0.27113 0.7808,0.51136 0.93969,0.82914 0.10128,0.20256 0.0998,1.03952 0.2211,1.16079 0.34538,0.34538 0.7322,1.16759 1.38189,1.49244 0.29445,0.14722 0.48199,0.37143 0.66331,0.55276 0.38708,0.38707 1.24387,0.19363 1.65827,0.60803 0.26042,0.26041 0.90029,0.12642 1.16079,0.38693 0.52996,0.52996 0.97699,1.41919 1.54772,1.98992 0.22494,0.22495 0.84945,0.12071 1.16079,0.27638 1.24822,0.62411 2.55148,1.21607 4.0904,1.21607 0.19908,0 0.38197,0.0957 0.44221,0.27638 1.74208,0.46285 2.91427,0.74317 3.70347,2.32158 0.41069,0.82138 -0.12613,2.14017 0.55276,2.81906 0.26034,0.26033 0.14978,0.92364 0.4422,1.21606 0.15662,0.15662 0.009,0.61725 0.16583,0.77386 0.37166,0.37166 1.603,1.23259 1.603,1.32662 0,0.31512 0.28728,1.59209 0,1.87937 -0.0953,0.0953 -0.50543,-0.45015 -0.55276,-0.49748 -0.34561,-0.34561 -0.97527,-0.31196 -1.32662,-0.66331 -1.52852,-1.52852 -1.66744,-5.81312 -2.2663,-6.41198 -0.40088,-0.40087 -0.98186,-0.85022 -1.49244,-1.10551 -0.86583,-0.43291 -5.72176,-1.13387 -6.02506,-1.43717 -0.4805,-0.48051 -1.31773,-0.54387 -1.87937,-1.10551 -0.61667,-0.61667 -1.11019,-1.22074 -1.71355,-1.8241 -0.4044,-0.40441 -1.0766,-0.4133 -1.38189,-0.71859 -0.13355,-0.13355 -0.47911,0.0368 -0.66331,-0.0553 -0.99845,-0.49923 -1.6048,1.21426 -2.32158,0.49748 -0.84009,-0.84009 -1.75717,-1.64662 -2.65323,-2.54268 -0.42691,-0.42692 -0.49173,-0.87867 -0.88441,-1.27134 -0.39725,-0.39726 -1.41157,-0.58244 -1.8241,-0.99497 -0.27802,-0.27801 -1.1742,-1.88608 -1.27134,-1.93465 -0.86043,-0.43021 -2.56212,-0.0747 -3.26127,-0.77386 -0.23833,-0.23833 -0.3442,-1.64064 -0.49748,-2.10047 -0.11413,-2.41189 -2.70908,-2.15688 -3.53764,-3.814 -0.0811,-0.16214 0.0811,-0.44589 0,-0.60803 -0.39532,-0.79064 -0.22154,-1.49288 -0.77386,-2.0452 -0.71625,-0.71625 -2.74127,0.0942 -3.59292,-0.33165 -1.18489,-0.59245 -2.37064,-2.86812 -3.20599,-3.70348 -0.35351,-0.35351 -1.30669,-0.84454 -1.54772,-1.32661 -0.024,-0.048 0.47723,-3.13047 0.55275,-3.20599 0.23301,-0.23301 0.44772,-0.55827 0.66331,-0.77386 0.45093,-0.45092 -0.2211,-2.58177 -0.2211,-2.87434 0.25872,-0.0548 -0.0962,-0.89873 0,-0.99496 0.6708,-0.6708 -0.26352,-2.99774 0.2211,-3.48237 0.60165,-0.60164 1.17709,-1.23236 1.87938,-1.93465 0.53398,-0.53398 1.33598,-0.78322 1.93465,-1.38189 0.47002,-0.47003 -0.0499,-2.00062 0.27637,-2.65324 0.98614,-1.97226 -0.26196,-7.50308 -1.43716,-8.67828 -0.1496,-0.1496 0.0432,-0.73068 -0.11055,-0.88441 -0.54448,-0.54448 -1.26084,-0.87391 -1.71355,-1.32662 -0.31627,-0.31626 -0.2163,-0.99016 -0.49748,-1.27134 -1.09821,-1.09821 -5.93164,-0.18296 -6.35671,-0.60803 -0.26365,-0.26366 -0.37439,-0.65077 -0.60803,-0.88441 -0.4092,-0.4092 -0.94262,-0.77679 -1.32662,-1.16079 -0.0645,-0.0645 0.009,-0.26717 -0.0553,-0.33166 -0.28362,-0.28361 -0.93759,-0.16373 -1.21607,-0.4422 -0.29398,-0.29398 -0.5061,-1.44579 -1.05024,-1.98993 -0.28225,-0.28225 -1.06775,-0.12807 -1.38189,-0.4422 -0.83473,-0.83474 -1.03357,-2.07094 -1.98992,-2.70851 -1.01339,-0.66169 -1.5067,-1.562 -2.211,-2.26631 -0.43447,-0.43446 -0.81371,-0.97953 -1.27134,-1.43716 -0.17464,-0.17464 -4.38704,-1.58274 -4.53261,-1.43717 -0.70858,0.70858 -3.61428,1.5138 -3.92457,1.8241 -0.31605,0.31604 -1.35821,-0.079 -1.65828,0.2211 -0.19402,0.19403 -1.40127,0.40488 -1.76882,0.2211 -0.59374,-0.29687 -1.21533,-0.44184 -1.76882,-0.71858 -0.36842,-0.18421 -1.06129,-0.0663 -1.32662,-0.33166 -0.28768,-0.28768 -0.77929,-0.50291 -1.10551,-0.82913 -0.22425,-0.22425 -0.2471,-0.57875 -0.49748,-0.82914 -1.13749,-1.13749 -1.81699,-2.25919 -2.81906,-3.26126 -0.72948,-0.729476 -3.62068,-0.290259 -4.69844,-0.829139 -0.42766,-0.213832 -1.08593,0.0927 -1.49244,-0.110551 -0.18482,-0.09241 -0.74274,-0.07943 -0.88441,-0.221103 -1.158,-1.158002 -1.92254,-1.050238 -3.81403,-1.050238 -0.81256,-0.432193 -4.51169,0.535574 -4.91953,0.331654 -0.50821,-0.254103 -2.83155,-0.408324 -3.4271,-0.110551 -0.83388,0.416939 -2.61769,0.286248 -3.15071,0.552757 -1.22774,0.613871 -4.69944,1.546721 -5.85922,0.38693 -0.19938,-0.199373 -1.26979,-0.220325 -1.603,-0.38693 -0.24489,-0.122444 -0.97467,0.186115 -1.16079,0 -0.63873,-0.63873 -2.49638,-0.617009 -3.20599,-1.326617 -0.3363,-0.336297 -1.4051,0.647273 -1.65827,0.77386 -0.1745,0.08725 -1.85475,-0.693957 -1.93465,-0.77386 -0.32723,-0.327235 -1.41571,0.442205 -1.8241,0.442205 -0.2197,0 -1.37704,0.170677 -1.49244,0.05528 -0.11284,-0.112841 -0.58402,-0.221103 -0.77386,-0.221103 -0.0614,0 -0.34785,-0.03909 -0.38693,0 -0.14119,0.141191 -4.42674,0.329315 -4.75371,0.165827 -0.89774,-0.448868 -2.08195,-0.488219 -2.98489,-0.939686 -0.40943,-0.204714 -2.95636,0.80061 -3.15071,0.994962 -0.10093,0.100928 -0.83637,0 -0.99497,0 -0.14614,0 -0.63584,-0.303847 -0.77386,-0.165827 -0.55841,0.558417 -3.23316,0.442206 -4.36678,0.442206 -1.66716,-0.322576 -2.81425,0.191056 -3.97985,0.773855 -0.15303,0.07652 -0.38315,-0.05339 -0.49748,-0.110551 -0.43421,-0.217106 -1.05277,0.494945 -1.38189,0.165827 -0.21721,-0.217209 -2.63096,-0.84027 -2.98489,-0.663308 -1.03928,0.519641 -4.94592,-0.124996 -5.74867,0.276378 -0.90754,0.45377 -2.163279,0.0075 -2.819061,0.663309 -0.236852,0.236852 -1.067278,-0.102032 -1.381892,0.05527 -0.730198,0.365099 -1.342676,0.679368 -1.824098,1.160784 -0.09127,0.0913 -3.886285,0.42306 -4.36678,0.66331 -0.320705,0.16035 -0.627136,0.36884 -0.884412,0.49748 -0.753375,0.37669 -4.609246,0.19974 -5.085364,-0.27638 -0.610473,-0.61047 -0.893404,-1.33561 -1.547719,-1.989918 -0.352699,-0.352699 -0.187682,-1.23792 -0.497482,-1.54772 -0.485692,-0.485692 -0.918762,-0.73201 -1.271341,-1.437168 -0.811213,-1.622426 0.663865,-4.956016 -0.939687,-6.025051 -0.30033,-0.352934 -2.598581,-1.602366 -2.874336,-1.326611 -0.07662,0.07662 -0.203802,0.644321 -0.497481,0.497481 -0.583223,-0.291611 -0.647663,-0.647663 -0.994963,-0.994963 -0.340828,-0.340828 -1.076721,-0.206706 -1.547719,-0.442205 -0.942144,-0.471072 -3.19434,0.282203 -4.090402,-0.165827 -0.329913,-0.164957 -1.985125,-0.281179 -2.266303,0 -0.29259,0.292589 0.174987,0.87983 -0.276379,1.105514 -0.295044,0.147522 -1.441222,-1.103488 -2.211028,-0.718584 -0.448774,0.224387 -0.798884,0.178339 -1.216065,0.386929 -0.428604,0.214302 -0.392847,0.915008 -0.884411,1.16079 -0.220609,0.110304 -0.47475,0.04391 -0.718584,0.165827 -0.783665,0.391833 -2.801401,-0.920879 -3.427094,-0.608033 -0.326792,0.163396 -0.503307,0.334568 -0.829135,0.497482 -0.253186,0.126593 -0.376099,-0.364708 -0.663308,-0.221103 -0.571845,0.285922 -1.094381,0.70745 -1.437169,1.050238 -0.179583,0.179584 -0.565054,-0.122848 -0.608032,-0.165827 -0.40286,-0.40286 -3.954875,-0.552757 -4.864262,-0.552757 -0.701348,0 -0.810603,0.543491 -1.271341,0.77386 -0.494489,0.247244 -1.430321,-0.165827 -1.989925,-0.165827 -0.10167,0 -0.462115,0.145917 -0.552757,0.05528 -0.380205,-0.380206 -1.03734,-0.484584 -1.271341,-0.718585 -0.2736,-0.2736 -0.937638,0.132638 -1.304712,0.01028 0.0095,-0.895548 -0.440854,-0.802403 -0.446064,-1.190344 -0.0042,-0.313361 0.332871,-0.604802 0.332978,-0.915286 1.02e-4,-0.296348 -0.347251,-0.570754 -0.342801,-0.864204 0.005,-0.331825 0.465303,-0.466385 0.455887,-1.01002 z"
     id="path7452"
     inkscape:connector-curvature="0"
     sodipodi:nodetypes="csscscccscsssssccscsccssccsscccccccccccccscccccccccccccccccccscscsccscscsccccccscccsccsccscscsccsscccsssccccccsscccscsssscccscscsccccccccscccsccccsccsccscssccscccsscccccscccccccccccccccscsccscsccccscscccccccsscscssccccscssscccssscscsssc" />
  <path
     style="fill:none;stroke:#000000;stroke-width:2;stroke-linecap:butt;stroke-linejoin:miter;stroke-miterlimit:4;stroke-dasharray:none;stroke-opacity:1"
     d="m 251.94881,4.3260987 -0.002,244.8963213 H 4.9261078 l 0.002,-244.8963213 z"
     id="path14359-1-7-5-3-0-73-1-9-8"
     inkscape:connector-curvature="0"
     sodipodi:nodetypes="ccccc" />
  <path
     style="fill:none;stroke:#000000;stroke-width:0.5;stroke-linecap:round;stroke-linejoin:round;stroke-miterlimit:4;stroke-dasharray:none;stroke-opacity:1"
     d="m 215.67638,9.7697791 3.89616,-0.1369935 c 0.47135,-0.016573 0.90921,-0.5026199 1.56698,-0.5043699 2.02835,-0.0054 6.08506,-0.016188 6.08506,-0.016188 0.54346,-0.030945 0.85357,0.6459093 0.85346,0.8367897 l -0.006,10.9588716 17.77799,14.735543 c 0.24794,0.205508 0.40849,0.736469 0.67512,1.169976 0.19661,0.319655 0.54927,0.524837 0.53145,0.823549 -0.0223,0.373709 -0.61254,0.541957 -0.80852,0.754619 -0.31665,0.343605 -0.0624,0.713596 -0.0539,0.862421 0.0486,0.85698 0.0269,4.070365 0.0269,4.689412 l -6.41421,0.619865 c -0.39033,0.03772 -0.32818,0.328178 -0.51206,0.512062 -0.25667,0.256669 -1.22616,-0.202039 -1.37448,-0.350358 -0.27031,-0.270309 -0.21517,-0.83459 -0.40426,-1.212779 -0.23681,-0.473614 -0.77196,-0.632399 -1.10498,-1.131927 -0.40543,-0.608147 -0.85871,-0.993462 -1.21278,-1.347533 -0.25236,-0.252357 -1.15403,-0.334729 -1.48228,-0.565964 -0.98867,-0.696464 -1.87999,-1.041025 -3.01848,-1.185828 -0.57832,-0.07356 -1.29075,-0.308495 -1.80569,-0.565964 -0.38236,-0.191178 -1.70222,-0.05825 -1.94045,-0.296457 -0.0735,-0.07348 -0.36151,0.04833 -0.45816,0 -0.20765,-0.103826 -0.30491,-0.197109 -0.45816,-0.350358 -0.20318,-0.20318 -0.19469,-1.280519 -0.10781,-1.536187 0.1669,-0.491113 0.0789,-0.877115 -0.21555,-1.185829 l -3.58448,-3.584436 V 29.44396 l -0.88938,-0.0539 c -0.47292,-0.02866 -0.6368,-0.350257 -0.64681,-0.78157 l -0.0269,-1.158878 c -0.0245,-1.056548 -0.43283,-0.886185 -0.32346,-1.104976 0.0348,-0.06967 0.26966,-0.215756 0.32341,-0.269507 0.0988,-0.09882 -0.0717,-0.466953 0.0269,-0.565963 0.004,-0.0042 1.09197,-0.201658 0.80852,-0.485112 -0.21638,-0.216383 -2.88872,-0.005 -3.07238,-0.188655 -0.20565,-0.205651 -0.067,-0.780898 -0.2156,-1.078026 -0.18798,-0.375909 -0.62096,-1.738946 -0.75462,-2.021298 -0.37313,-0.788201 -0.98939,-1.839943 -1.39796,-2.863573 -0.38327,-0.960251 -0.55465,-1.911934 -1.02755,-2.122297 -0.171,-0.07606 -0.80421,-0.709313 -0.70071,-0.916322 0.13755,-0.275094 0.15945,-0.857073 0.4312,-1.078026 0.54496,-0.44309 1.02588,-0.380815 1.18583,-1.185828 0.0992,-0.499343 -0.18572,-1.018265 -0.35035,-1.347533 -0.15222,-0.304438 -0.51098,-2.4284568 0.17899,-2.4527169 z"
     id="path14359-1-7-5-3-0-73-1-9"
     inkscape:connector-curvature="0"
     sodipodi:nodetypes="ssssssssssscssssssssssssscccsssssssssssssssss"
     inkscape:transform-center-x="-0.0076443624"
     inkscape:transform-center-y="-0.12630193" />
  <path
     style="fill:#000000;fill-opacity:1;stroke:#000000;stroke-width:0.5;stroke-linecap:round;stroke-linejoin:round;stroke-miterlimit:4;stroke-dasharray:none;stroke-opacity:1"
     d="m 229.79037,23.485866 0.021,4.497802 -4.13434,0.03655 0.0528,-4.497394 z"
     id="path14359-1-7-5-3-0-73-1-9-3"
     inkscape:connector-curvature="0"
     sodipodi:nodetypes="ccccc"
     inkscape:transform-center-x="0.021350813"
     inkscape:transform-center-y="-0.088586334" />
  <path
     style="fill:#000000;fill-opacity:1;stroke:#000000;stroke-width:1;stroke-linecap:butt;stroke-linejoin:miter;stroke-miterlimit:4;stroke-dasharray:none;stroke-opacity:1"
     d="m 14.984505,237.72319 -0.0015,3.27003 h 40.710138 l 0.0015,-3.27003 v 2.80058 H 14.984505 Z"
     id="path14359-1-7-5-3-0-73-1-9-9"
     inkscape:connector-curvature="0"
     sodipodi:nodetypes="ccccccc"
     inkscape:transform-center-x="0.025982214"
     inkscape:transform-center-y="-0.12681502" />
  <path
     style="fill:none;stroke:#000000;stroke-width:1;stroke-linecap:butt;stroke-linejoin:miter;stroke-miterlimit:4;stroke-dasharray:none;stroke-opacity:1"
     d="m 22.328255,238.62871 -0.0015,2.2301"
     id="path14359-1-7-5-3-0-73-1-9-38"
     inkscape:connector-curvature="0"
     sodipodi:nodetypes="cc"
     inkscape:transform-center-x="0.025982508"
     inkscape:transform-center-y="-0.12681524" />
  <path
     style="fill:none;stroke:#000000;stroke-width:1;stroke-linecap:butt;stroke-linejoin:miter;stroke-miterlimit:4;stroke-dasharray:none;stroke-opacity:1"
     d="m 45.456526,238.62871 -0.0015,2.2301"
     id="path14359-1-7-5-3-0-73-1-9-0"
     inkscape:connector-curvature="0"
     sodipodi:nodetypes="cc"
     inkscape:transform-center-x="0.02598275"
     inkscape:transform-center-y="-0.12681524" />
  <path
     style="fill:#000000;fill-opacity:1;stroke:#000000;stroke-width:1;stroke-linecap:round;stroke-linejoin:round;stroke-miterlimit:4;stroke-dasharray:none;stroke-opacity:1"
     d="m 35.872436,224.86021 v -13.14412 c 0,-0.82561 0.502598,-1.23457 1.256171,-1.26469 1.212437,-0.0485 1.945397,2.09784 2.664201,2.56344 l -3.919271,-15.80161 z"
     id="path14359-1-7-5-3-0-73-1-9-2-4"
     inkscape:connector-curvature="0"
     sodipodi:nodetypes="cssccc"
     inkscape:transform-center-x="0.018528216"
     inkscape:transform-center-y="-0.090352873" />
  <path
     style="fill:none;stroke:#000000;stroke-width:2;stroke-linecap:butt;stroke-linejoin:miter;stroke-miterlimit:4;stroke-dasharray:none;stroke-opacity:1"
     d="m 252.02051,48.051827 -41.27554,0 0.002,-44.0586765"
     id="path14359-1-7-5-3-0-73-1-9-8-5-6"
     inkscape:connector-curvature="0"
     sodipodi:nodetypes="ccc" />
  <path
     style="fill:none;stroke:#000000;stroke-width:1;stroke-linecap:butt;stroke-linejoin:miter;stroke-miterlimit:4;stroke-dasharray:none;stroke-opacity:1"
     d="m 20.455964,4.1592806 -0.002,174.8866494"
     id="path14359-1-7-5-3-0-73-1-9-8-7"
     inkscape:connector-curvature="0"
     sodipodi:nodetypes="cc" />
  <path
     style="fill:none;stroke:#000000;stroke-width:1;stroke-linecap:butt;stroke-linejoin:miter;stroke-miterlimit:4;stroke-dasharray:none;stroke-opacity:1"
     d="M 55.285282,4.2947586 56.568964,179.18141"
     id="path14359-1-7-5-3-0-73-1-9-8-0"
     inkscape:connector-curvature="0"
     sodipodi:nodetypes="cc" />
  <path
     style="fill:none;stroke:#000000;stroke-width:1;stroke-linecap:butt;stroke-linejoin:miter;stroke-miterlimit:4;stroke-dasharray:none;stroke-opacity:1"
     d="M 4.8685688,179.16339 232.211,179.67966"
     id="path14359-1-7-5-3-0-73-1-9-8-3"
     inkscape:connector-curvature="0"
     sodipodi:nodetypes="cc" />
  <path
     style="fill:none;stroke:#000000;stroke-width:1;stroke-linecap:butt;stroke-linejoin:miter;stroke-miterlimit:4;stroke-dasharray:none;stroke-opacity:1"
     d="m 89.741529,4.4233264 0.818103,80.0068696 m 1.376176,18.758664 0.632219,76.24968"
     id="path14359-1-7-5-3-0-73-1-9-8-9"
     inkscape:connector-curvature="0"
     sodipodi:nodetypes="cccc" />
  <path
     style="fill:none;stroke:#000000;stroke-width:1;stroke-linecap:butt;stroke-linejoin:miter;stroke-miterlimit:4;stroke-dasharray:none;stroke-opacity:1"
     d="m 125.48346,4.4233264 0.86065,68.9283926 m 0.95533,28.436941 0.36768,77.52132"
     id="path14359-1-7-5-3-0-73-1-9-8-99"
     inkscape:connector-curvature="0"
     sodipodi:nodetypes="cccc" />
  <path
     style="fill:none;stroke:#000000;stroke-width:1;stroke-linecap:butt;stroke-linejoin:miter;stroke-miterlimit:4;stroke-dasharray:none;stroke-opacity:1"
     d="m 161.22539,4.4233264 0.81332,69.3147206 m 1.05923,29.188483 0.18254,76.64058"
     id="path14359-1-7-5-3-0-73-1-9-8-1"
     inkscape:connector-curvature="0"
     sodipodi:nodetypes="cccc" />
  <path
     style="fill:none;stroke:#000000;stroke-width:1;stroke-linecap:butt;stroke-linejoin:miter;stroke-miterlimit:4;stroke-dasharray:none;stroke-opacity:1"
     d="m 196.83876,4.5518947 1.02655,92.4744993"
     id="path14359-1-7-5-3-0-73-1-9-8-72"
     inkscape:connector-curvature="0"
     sodipodi:nodetypes="cc" />
  <path
     style="fill:none;stroke:#000000;stroke-width:1;stroke-linecap:butt;stroke-linejoin:miter;stroke-miterlimit:4;stroke-dasharray:none;stroke-opacity:1"
     d="m 199.02441,112.03482 -0.002,67.40372"
     id="path14359-1-7-5-3-0-73-1-9-8-36"
     inkscape:connector-curvature="0"
     sodipodi:nodetypes="cc" />
  <path
     style="fill:none;stroke:#000000;stroke-width:1;stroke-linecap:butt;stroke-linejoin:miter;stroke-miterlimit:4;stroke-dasharray:none;stroke-opacity:1"
     d="m 233.3521,51.350687 0.64084,91.574523"
     id="path14359-1-7-5-3-0-73-1-9-8-5"
     inkscape:connector-curvature="0"
     sodipodi:nodetypes="cc" />
  <path
     style="fill:none;stroke:#000000;stroke-width:1;stroke-linecap:butt;stroke-linejoin:miter;stroke-miterlimit:4;stroke-dasharray:none;stroke-opacity:1"
     d="m 134.99294,179.49762 -0.002,69.5104"
     id="path14359-1-7-5-3-0-73-1-9-8-58"
     inkscape:connector-curvature="0"
     sodipodi:nodetypes="cc" />
  <path
     style="fill:none;stroke:#000000;stroke-width:1;stroke-linecap:butt;stroke-linejoin:miter;stroke-miterlimit:4;stroke-dasharray:none;stroke-opacity:1"
     d="m 169.92023,179.59799 -0.002,69.61076"
     id="path14359-1-7-5-3-0-73-1-9-8-14"
     inkscape:connector-curvature="0"
     sodipodi:nodetypes="cc" />
  <path
     style="fill:none;stroke:#000000;stroke-width:1;stroke-linecap:butt;stroke-linejoin:miter;stroke-miterlimit:4;stroke-dasharray:none;stroke-opacity:1"
     d="m 241.68174,215.93038 -0.002,33.07763"
     id="path14359-1-7-5-3-0-73-1-9-8-71"
     inkscape:connector-curvature="0"
     sodipodi:nodetypes="cc" />
  <path
     style="fill:none;stroke:#000000;stroke-width:1;stroke-linecap:butt;stroke-linejoin:miter;stroke-miterlimit:4;stroke-dasharray:none;stroke-opacity:1"
     d="m 206.45336,179.69835 -0.002,69.81149"
     id="path14359-1-7-5-3-0-73-1-9-8-38"
     inkscape:connector-curvature="0"
     sodipodi:nodetypes="cc" />
  <path
     style="fill:none;stroke:#000000;stroke-width:1;stroke-linecap:butt;stroke-linejoin:miter;stroke-miterlimit:4;stroke-dasharray:none;stroke-opacity:1"
     d="m 135.06366,216.15877 117.08376,0.002"
     id="path14359-1-7-5-3-0-73-1-9-8-4"
     inkscape:connector-curvature="0"
     sodipodi:nodetypes="cc" />
  <path
     style="fill:none;stroke:#000000;stroke-width:1;stroke-linecap:butt;stroke-linejoin:miter;stroke-miterlimit:4;stroke-dasharray:none;stroke-opacity:1"
     d="m 4.8220917,37.769821 156.7925683,1.14933 46.25,-0.747292"
     id="path14359-1-7-5-3-0-73-1-9-8-8"
     inkscape:connector-curvature="0"
     sodipodi:nodetypes="ccc" />
  <path
     style="fill:none;stroke:#000000;stroke-width:1;stroke-linecap:butt;stroke-linejoin:miter;stroke-miterlimit:4;stroke-dasharray:none;stroke-opacity:1"
     d="m 4.8220917,73.106491 16.9132273,0.03407 m 32.269584,0.06501 107.877227,0.217315 71.47792,-1.721033 18.50877,-0.06016"
     id="path14359-1-7-5-3-0-73-1-9-8-04"
     inkscape:connector-curvature="0"
     sodipodi:nodetypes="cccccc" />
  <path
     style="fill:none;stroke:#000000;stroke-width:1;stroke-linecap:butt;stroke-linejoin:miter;stroke-miterlimit:4;stroke-dasharray:none;stroke-opacity:1"
     d="m 4.8220917,108.44316 169.3262183,0.64991 m 43.33833,-1.30046 34.24883,0.11917"
     id="path14359-1-7-5-3-0-73-1-9-8-6"
     inkscape:connector-curvature="0"
     sodipodi:nodetypes="cccc" />
  <path
     style="fill:none;stroke:#000000;stroke-width:1;stroke-linecap:butt;stroke-linejoin:miter;stroke-miterlimit:4;stroke-dasharray:none;stroke-opacity:1"
     d="M 4.9347988,144.4692 205.62016,142.67882 m 20.00094,0.2748 26.00166,0.40553"
     id="path14359-1-7-5-3-0-73-1-9-8-03"
     inkscape:connector-curvature="0"
     sodipodi:nodetypes="cccc" />
  <path
     style="fill:none;stroke:#000000;stroke-width:0.5;stroke-linecap:round;stroke-linejoin:round;stroke-miterlimit:4;stroke-dasharray:none;stroke-opacity:1"
     d="m 141.89239,174.37745 c 0.84001,-0.0234 1.76545,-0.11271 2.47858,-0.62317 0.96529,-0.69096 1.72811,-1.63434 1.70572,-3.0854 -0.0233,-1.51342 -1.55547,-1.93243 -1.61879,-3.02287 -0.0395,-0.68022 0.38519,-1.06834 0.96293,-1.42599 l -1.184,-1.88576 c -2.33747,0.89824 -3.16799,0.16525 -4.22556,0.16525 -1.05755,0 -1.88808,0.73299 -4.22556,-0.16525 l -1.18399,1.88576 c 0.57775,0.35765 1.00245,0.74577 0.96294,1.42599 -0.0634,1.09044 -1.5955,1.50945 -1.61881,3.02287 -0.0224,1.45106 0.74044,2.39444 1.70574,3.0854 0.71313,0.51046 1.63857,0.59982 2.47857,0.62317 0.7577,0.0211 1.48404,0.13993 1.88111,0.88425 0.39708,-0.74432 1.12342,-0.86315 1.88112,-0.88425 z"
     id="path14359-1-7-5-3-0-73-1-9-8-2-1-8-1-3-8-83-9-9-3-2-8-2"
     inkscape:connector-curvature="0"
     sodipodi:nodetypes="ssssccsccsssscs" />
  <path
     style="fill:none;stroke:#000000;stroke-width:1;stroke-linecap:butt;stroke-linejoin:miter;stroke-miterlimit:4;stroke-dasharray:none;stroke-opacity:1"
     d="m 35.843407,237.72319 -0.0015,3.27003"
     id="path14359-1-7-5-3-0-73-1-9-0-9"
     inkscape:connector-curvature="0"
     sodipodi:nodetypes="cc"
     inkscape:transform-center-x="0.02598275"
     inkscape:transform-center-y="-0.12681524" />
  <path
     style="fill:#000000;stroke:#000000;stroke-width:0.5;stroke-linecap:round;stroke-linejoin:round;stroke-miterlimit:4;stroke-dasharray:none;stroke-opacity:1;fill-opacity:1"
     d="m 42.514563,84.95721 h -0.842336 l -3.17e-4,1.474082 h -0.661836 l -5.37e-4,2.85792 h 0.661835 l -4.79e-4,1.778994 h 0.842336 c 0.439892,0 0.902593,-0.356566 0.902698,-0.84642 l 1.81e-4,-0.842304 c 6.5e-5,-0.302444 -0.454324,-0.376472 -0.451128,-0.571598 0.0059,-0.359108 0.37359,-0.238712 0.37359,-0.936529 0,-0.627601 -0.392195,-0.594035 -0.373195,-0.898561 0.01275,-0.204393 0.451299,-0.219669 0.451349,-0.451239 l 1.68e-4,-0.782188 c 8.9e-5,-0.412737 -0.375554,-0.782157 -0.902329,-0.782157 z"
     id="path14359-1-7-5-3-0-73-1-9-8-5-8"
     inkscape:connector-curvature="0"
     sodipodi:nodetypes="sccccccsssssssss" />
  <path
     style="fill:none;stroke:#000000;stroke-width:0.5;stroke-linecap:round;stroke-linejoin:round;stroke-miterlimit:4;stroke-dasharray:none;stroke-opacity:1"
     d="m 5.2621207,89.174958 c 0.5886601,0.04103 1.5140867,-0.07551 1.8636677,0.274068 0.1004919,0.100492 0.00914,0.392832 0.1096275,0.493324 0.1072697,0.10727 0.642107,-0.642107 0.7125789,-0.712579 0.4186855,-0.418685 0.9619739,-0.687905 1.3155301,-1.041461 0.3045757,-0.304576 0.2572553,1.298717 0.4933238,1.534785 0.6729813,0.672982 2.7043823,0.155187 3.3436393,-0.164441 0.662677,-0.331339 0.98319,1.044919 1.370344,0.657765 2.152665,-0.07918 1.830563,-0.870946 4.055681,-0.895316 1.111594,-0.0326 2.156106,-0.100249 2.467156,-0.255773 0.87364,-0.43682 1.612237,-1.477961 2.576247,-2.137736 0.839946,-0.574866 0.421659,-0.563182 2.63106,-0.931834 0.767208,-0.357381 2.043946,0.320964 2.795501,-0.05481 0.691911,-0.345956 2.089206,-0.219255 2.90513,-0.219255 0.294467,0 0.957783,-0.522188 0.986647,-0.493324 0.187058,0.187058 0.04296,0.810353 0.274069,1.041461 0.315337,0.315337 1.080129,0.128962 1.479971,0.328883 0.721638,0.360819 1.912575,-0.496277 2.466619,-0.219255 0.09873,0.04937 0.409204,0.08412 0.493324,0 0.126014,-0.126014 0.202869,-0.476938 0.328883,-0.602951 0.027,-0.027 0.730491,0.785305 0.822206,0.87702 0.298859,0.298858 0.808816,-0.87702 0.986648,-0.87702 0.03213,0 1.724294,1.413345 1.2701,0.654787"
     id="path7421"
     inkscape:connector-curvature="0"
     sodipodi:nodetypes="ccccscccccsccsscscsccsc" />
  <path
     style="fill:none;stroke:#000000;stroke-width:0.5;stroke-linecap:round;stroke-linejoin:round;stroke-opacity:1;stroke-miterlimit:4;stroke-dasharray:none"
     d="m 5.4813757,97.780717 c 0.9152465,-0.04435 2.1377365,-0.409477 2.1377365,0.822207 0,0.06972 0.044375,0.394135 0,0.43851 -0.082985,0.08299 -0.3288825,0.58657 -0.3288825,0.712579 0,0.811807 -0.9423027,0.952767 -1.0414614,1.151087 -0.2216094,0.44322 0.6373492,0.86304 0.3836963,1.37035 -0.1970863,0.39417 -0.93074,0.60185 -1.1510889,0.8222 -0.1331571,0.13316 -0.05119,0.4897 -0.1644413,0.60295 -0.2152571,0.21526 0.9613327,2.54675 1.808854,1.69923 0.5424622,-0.54246 0.9059935,-1.7282 1.2607164,-2.08292 0.2485451,-0.24855 0.79626,-0.46738 0.9866476,-0.65777 0.1880382,-0.18804 0.2031841,-0.69651 0.3836963,-0.87702 0.4107533,-0.41075 0.6171673,-1.27493 0.9866473,-1.64441 0.925804,-0.925805 1.274648,-2.042041 2.137737,-2.90513 0.767167,-0.767167 1.887243,-0.285857 2.740688,-0.712579 0.385326,-0.192663 0.686724,-0.43851 1.041461,-0.43851 1.296354,-0.248063 2.339372,-0.923024 3.234012,-1.370344 0.462886,-0.231443 1.587949,0.0016 1.918481,-0.328883 0.259,-0.258999 1.01641,-0.43851 1.370344,-0.43851 0.26237,0 1.058105,-0.531494 1.260717,-0.328882 0.455691,0.455691 -0.369893,1.740236 -0.602952,1.973295 -0.661569,0.66157 -0.967612,1.735005 -1.589599,2.356992 -0.441667,0.441667 -1.744707,1.24205 -2.082922,1.918481 -0.36558,0.73116 -0.935919,1.53887 -1.425158,2.02811 -0.179158,0.17916 -0.05481,2.73971 -0.05481,3.1792 0,0.56894 -0.564544,3.93018 -0.274069,4.22066 0.557695,0.55769 1.189289,2.45 1.754041,3.01475 0.344507,0.34451 1.089203,0.21219 1.534785,0.65777 0.430674,0.43067 -0.01738,1.3904 0.274069,1.97329 0.153286,0.30658 0.343408,0.33615 0.657765,0.49333 0.392658,0.19633 0.43851,1.68308 0.43851,2.19255 0.127662,0.41519 0.207419,0.48149 0.383692,0.65776 0.197926,0.19793 0.716735,-0.10547 0.931834,0.10963 0.27512,0.27512 0.01887,1.16996 0.274069,1.42516 0.486956,0.48695 0.85968,0.84234 1.205902,1.53478 0.285518,0.57104 -0.26286,2.31339 0,2.57625 0.1442,0.1442 0.13756,0.52126 0.274069,0.65776 0.311926,0.31193 0.815201,0.64376 1.041461,1.09628 0.124698,0.24939 0.611986,0.88605 0.822207,1.09627 0.102174,0.10218 0.328489,1.04186 0.43851,0.93184 0.284837,-0.28484 -0.274069,-1.92767 -0.274069,-2.35699 0,-1.65984 -1.020764,-2.71999 -1.863668,-3.5629 -0.08845,-0.0884 0.279379,-0.50394 0.328883,-0.60295 0.08551,-0.17103 0.157772,-1.48664 0,-1.64441 -2.058603,-2.0586 -2.082923,0.35279 -2.082923,-3.89178 -0.507956,-1.80845 -1.086067,-3.44306 -2.137736,-4.49473 -0.368867,-0.36886 -1.418208,-0.2123 -1.808854,-0.60295 -0.418198,-0.41819 0.268899,-1.59477 0,-1.86367 -0.137035,-0.13703 0.02741,-0.57554 -0.109628,-0.71257 -0.155306,-0.15531 0.100492,-0.72172 -0.05481,-0.87702 -0.697179,-0.69718 0.694397,-4.80543 1.041462,-5.1525 0.589018,-0.58902 2.76768,-2.275182 3.562894,-1.47997 0.149044,0.14905 1.240496,1.33575 1.589599,0.98665 0.517923,-0.51792 -1.330633,-1.504581 -0.931834,-2.302179 0.282313,-0.564626 0.794996,-1.507575 1.151089,-1.863667 0.306791,-0.306791 -0.01888,-1.351462 0.274069,-1.644413 0.348633,-0.348634 0.693295,-1.341419 0.931834,-1.699227 -0.0794,-0.729503 1.425153,-0.931009 1.425153,-1.096275 0,-0.755676 0.346092,-2.045318 0.822207,-2.521433 0.235872,-0.235872 0.671708,-0.288012 0.87702,-0.493323 0.17072,-0.170721 1.169504,0.164441 1.425157,0.164441 0.178678,0 1.251171,-0.06436 1.315531,0 0.506154,0.506154 0.452778,1.582464 1.644412,0.986647 0.115602,-0.0578 0.460275,0.08786 0.548138,0 0.127701,-0.127701 0.341148,-0.121893 0.493324,-0.274068 0.202933,-0.202934 0.239584,-0.568467 0.43851,-0.767393 0.288449,-0.288449 1.955097,-0.310684 2.411805,-0.767392 0.09833,-0.09833 1.5328,-0.483125 1.534785,-0.383697 0.0033,0.165977 0.0059,0.331967 0.0088,0.497951"
     id="path7423"
     inkscape:connector-curvature="0" />
  <path
     style="fill:none;stroke:#000000;stroke-width:0.5;stroke-linecap:round;stroke-linejoin:round;stroke-miterlimit:4;stroke-dasharray:none;stroke-opacity:1"
     d="m 43.302868,88.023869 c 1.358775,0.328421 5.510218,-0.369276 6.577651,0.164441 0.30336,0.15168 0.488745,0.324304 0.712579,0.548137 0.05276,0.05276 3.89891,0.215689 4.111031,0.109628 0.406508,-0.203254 3.715024,-0.757329 3.78215,-0.712579 2.355393,-1.090587 4.839125,-1.15626 7.290229,-1.973295 0.706234,-0.235411 1.585741,-0.107698 2.247364,-0.43851 0.513083,-0.256542 2.242579,-0.989041 2.905129,-0.657765 0.544274,0.272136 1.771506,0.346347 2.137737,0.712579 0.651832,0.424791 4.477085,2.304955 5.207307,3.179197 0.437417,0.523688 1.508086,0.302184 1.973295,0.767393 0.60419,0.60419 1.108797,1.218424 1.589599,1.699227 0.588417,0.588417 0.640364,4.258071 0.712579,4.330286 0.39959,0.399591 0.127564,1.789914 0.43851,2.411806 0.447753,0.895506 0.941743,1.841216 1.75404,2.247366 0.285151,0.14257 0.927192,0.1598 1.151089,0.38369 0.232555,0.23256 0.674642,-0.104 0.986648,0 2.770668,-1.35259 6.667741,-1.968407 9.756849,-2.740684 0.547499,-0.136875 1.213384,0.125405 1.75404,-0.05481 2.249366,-0.567077 3.660676,-0.361475 6.029516,-1.151089 0.79129,-0.263764 1.76795,0.04786 2.52143,-0.328882 0.65174,-0.32587 7.09099,-0.129646 7.39986,-0.43851 0.21986,-0.219866 4.63268,0.164441 5.09768,0.164441 0.22798,0 0.77077,-0.138722 1.04146,-0.274069 0.69823,-0.349114 7.18365,-0.108609 7.83836,0.109628 0.35079,0.09776 0.80598,-0.115043 1.15109,-4e-6 0.99791,0.332636 5.3617,0.169469 6.24877,-0.274069 0.61286,-0.306429 2.24351,-0.988577 3.12439,-0.548137 0.41789,0.208948 1.22537,0.183912 1.47997,0.43851 0.41756,0.417565 1.91831,1.644326 2.35699,1.863667 0.2094,0.104703 0.59016,-0.451297 0.82221,-0.219255 0.49106,0.49107 1.42662,0.714049 1.91848,1.205903 0.0115,0.01147 2.63733,0.04854 2.68587,0 0.17629,-0.176292 0.61404,-0.416544 0.87702,-0.328883 1.01205,-0.234487 1.82554,-1.112955 2.46662,-1.75404 0.56652,-0.566521 3.32495,0.262028 4.27547,-0.05481 0.22509,-0.07503 1.3071,-0.04638 1.47997,-0.219255 1.09975,-1.09974 5.29669,-0.558264 6.52284,0.05481 0.39321,0.196605 1.05737,0.008 1.47997,0.219255 0.7673,0.383647 1.37579,0.827648 1.91848,1.370344 0.16667,0.16667 1.89155,0.256113 2.24737,0.493324 1.72722,0.352451 4.22539,0.523098 5.70063,1.260716 1.0324,0.516199 1.56068,1.505869 2.24736,2.192549 0.36387,0.36387 1.07853,0.69483 1.47998,1.09628 0.46229,0.46229 0.91412,1.13337 1.37034,1.5896 0.51906,0.51906 1.29973,0.48542 1.97329,0.8222 0.7384,0.3692 4.23495,-1.98758 4.60436,-2.35699 0.42035,-0.42035 1.26344,-0.44124 1.64441,-0.82221 0.0847,-0.0847 0.48165,-0.049 0.60295,-0.10962 1.71024,-0.85512 3.99021,0.99745 5.20731,1.80885 0.51286,0.63039 1.50635,0.6009 1.86367,1.31553 0.1704,0.3408 0.17066,2.52765 0.27407,2.63106 1.52073,1.52073 5.64851,1.31823 7.01616,2.68588 0.10109,0.10109 0.3594,0.87079 0.21925,1.15108 -0.0852,0.17037 -0.34485,0.29004 -0.43851,0.3837 -0.57488,0.57488 0.77449,1.98039 0.93184,2.13774 0.68066,0.68066 1.25867,-0.24768 2.08292,0.16444 0.67978,0.33989 1.34882,1.01993 1.80885,1.47997 0.87345,0.87345 4.70494,-1.1282 5.09768,-0.93183 0.1915,0.0957 0.40467,0.34985 0.54814,0.49332 1.40982,1.40982 -0.0244,5.10371 0.87702,6.90653 0.36858,0.73716 0.273,1.75191 0.65777,2.52144 0.42915,0.8583 1.21697,2.03918 1.91848,2.74068 0.50117,0.50117 0.51262,1.2445 0.76739,1.75404 0.69874,1.39748 -2.28645,3.6568 -2.95994,4.33029 -0.76356,0.76356 -1.46526,1.68451 -2.19255,2.41181 -0.52766,0.52766 0.71258,2.77566 0.71258,3.78215 0.61082,1.73282 -1.52692,8.01067 -0.93184,8.60575 0.69942,0.69942 0.99511,1.31554 2.41181,1.31554 0.15727,0 0.88656,0.10008 0.98664,0 0.0275,-0.0275 0.3863,-0.54554 0.43851,-0.49333 0.5372,0.5372 0.70609,0.46267 1.53479,0.87702 0.95471,0.47736 1.0708,1.94782 1.75404,2.63106 0.74791,0.74791 1.20183,1.64034 2.02811,2.46662 0.31473,0.31473 0.74485,0.30634 1.09627,0.65777 0.58868,0.58868 0.62636,2.43521 1.15109,2.95994 0.34362,0.34361 0.63978,0.85903 0.87702,1.09627 0.67928,0.67928 2.14248,0.38844 2.7955,1.04147 0.33252,0.33251 0.55949,0.73528 0.7674,1.15108 0.32155,0.64311 1.09216,0.98254 1.47997,1.37035 0.59423,0.59423 0.69863,1.24677 1.2059,1.75404 0.24589,0.24588 0.78106,0.39281 1.09628,0.60295 1.89113,0.96466 3.75185,1.98555 5.70063,2.95994 0.71056,0.35528 0.90378,1.63039 1.47997,1.91848 0.86884,0.43443 1.70282,0.63216 2.52143,1.04147 1.32738,0.66368 4.88711,0.39238 5.86507,1.37034 1.73568,1.73568 1.0437,4.44438 1.9733,6.30358 0.31841,0.63682 1.61601,1.23033 1.75404,1.64441"
     id="path7429"
     inkscape:connector-curvature="0"
     sodipodi:nodetypes="cscccssccssccscccscsccscc" />
  <path
     style="fill:#000000;fill-opacity:1;stroke:#000000;stroke-width:1;stroke-linecap:butt;stroke-linejoin:miter;stroke-miterlimit:4;stroke-dasharray:none;stroke-opacity:1"
     d="m 119.97444,95.586283 2.2252,0.338774 -2.06954,0.898112 z"
     id="path14359-1-7-3-7-3-5"
     inkscape:connector-curvature="0"
     sodipodi:nodetypes="cccc" />
  <path
     style="fill:#000000;fill-opacity:1;stroke:#000000;stroke-width:1;stroke-linecap:butt;stroke-linejoin:miter;stroke-miterlimit:4;stroke-dasharray:none;stroke-opacity:1"
     d="m 212.59472,142.98943 0.12254,2.2475 1.09356,-1.97325 z"
     id="path14359-1-7-3-7-3-5-8"
     inkscape:connector-curvature="0"
     sodipodi:nodetypes="cccc" />
  <path
     style="fill:none;stroke:#000000;stroke-width:1;stroke-linecap:round;stroke-linejoin:round;stroke-miterlimit:4;stroke-dasharray:none;stroke-opacity:1"
     d="m 4.9758127,148.87849 c 2.161722,0.48084 4.2540542,7.08817 4.9066771,9.60281 1.9394562,7.473 5.1354432,7.31668 9.6592892,7.24807 7.08067,-0.10738 15.101862,-1.01352 23.93151,-3.73208 4.734454,-1.4577 8.432654,-3.61946 9.882076,-3.74034 2.727121,-0.22744 6.055312,-1.48809 8.043867,-1.54911 1.488653,-0.0457 8.252404,-1.3436 14.923164,-1.91389 4.640604,-0.39672 9.392757,-1.65605 12.979331,-1.61595 1.092378,0.0122 2.156102,0.3195 3.218111,0.37983 0.986395,0.056 1.97131,-0.13446 2.976331,-0.12728 0.928749,0.007 1.855352,0.40227 2.779652,0.40655 1.107309,0.005 1.481476,-0.47787 2.244189,-0.47354 0.34156,0.002 0.63403,0.44271 0.97495,0.44439 2.38299,0.0118 4.79104,1.42993 8.34195,1.5721 2.54449,0.10188 5.20723,0.0364 7.68605,0.0665 3.28863,0.04 7.6139,1.11165 11.33839,2.77855 2.72789,1.22087 2.25378,3.38005 3.49981,4.38789 0.98548,0.79709 1.87705,1.69163 2.72142,2.29688 m 7.33775,9.73471 c 1.21901,2.34798 1.84525,5.72466 3.10085,8.11817 0.89352,1.7033 2.16091,1.42216 2.94515,2.45006 0.95468,1.25129 0.81337,3.34823 1.83298,4.61687 1.3979,1.73931 4.31097,1.92823 6.30219,4.5309 1.83811,2.40253 1.29595,3.73756 2.17615,5.57978 0.45672,0.95589 1.66457,1.54591 2.10599,2.50136 0.62713,1.35741 0.19688,2.28871 1.38078,4.02312 0.92262,1.35165 0.8184,4.03222 1.73811,5.91253 1.19028,2.4335 3.30551,4.11916 3.37522,6.00342 0.1197,3.23494 0.70478,7.57979 2.77625,10.50812 1.15901,1.63843 2.66935,3.04635 4.35287,4.39037 3.66721,2.92769 6.65337,4.75517 6.94217,9.93272 0.0952,1.70725 -0.73731,3.28878 -0.66193,5.8859"
     id="path14359-1-7-5-3-0-73-1-9-8-5-3"
     inkscape:connector-curvature="0"
     sodipodi:nodetypes="cssssssssssssssssccssssssssssssc" />
  <text
     xml:space="preserve"
     style="font-style:normal;font-variant:normal;font-weight:normal;font-stretch:normal;font-size:5.33333349px;line-height:6.66666651px;font-family:Arial;-inkscape-font-specification:Arial;text-align:start;letter-spacing:2.4000001px;word-spacing:0px;text-anchor:start;fill:#000000;fill-opacity:1;stroke:none"
     x="50.024342"
     y="204.54619"
     id="text4959-8-54"><tspan
       sodipodi:role="line"
       id="tspan4957-1-36"
       x="50.024342"
       y="209.3502" /></text>
  <text
     xml:space="preserve"
     style="font-style:normal;font-variant:normal;font-weight:normal;font-stretch:normal;font-size:5.33333349px;line-height:6.66666651px;font-family:Arial;-inkscape-font-specification:Arial;text-align:start;letter-spacing:0px;word-spacing:0px;text-anchor:start;fill:#000000;fill-opacity:1;stroke:none"
     x="65.478043"
     y="234.33879"
     id="text4925"><tspan
       sodipodi:role="line"
       id="tspan4923"
       x="65.478043"
       y="234.33879">FEET</tspan></text>
  <text
     xml:space="preserve"
     style="font-style:normal;font-variant:normal;font-weight:normal;font-stretch:normal;font-size:5.33333349px;line-height:6.66666651px;font-family:Arial;-inkscape-font-specification:Arial;text-align:start;letter-spacing:0.64999998px;word-spacing:0px;text-anchor:start;fill:#000000;fill-opacity:1;stroke:none"
     x="28.320118"
     y="234.55629"
     id="text4925-7"><tspan
       sodipodi:role="line"
       id="tspan4923-3"
       x="28.320118"
       y="234.55629">3000</tspan></text>
  <text
     xml:space="preserve"
     style="font-style:normal;font-variant:normal;font-weight:normal;font-stretch:normal;font-size:5.33333349px;line-height:6.66666651px;font-family:Arial;-inkscape-font-specification:Arial;text-align:start;letter-spacing:0px;word-spacing:0px;text-anchor:start;fill:#000000;fill-opacity:1;stroke:none"
     x="13.096121"
     y="234.5153"
     id="text4925-79"><tspan
       sodipodi:role="line"
       id="tspan4923-0"
       x="13.096121"
       y="234.5153">0</tspan></text>
  <text
     xml:space="preserve"
     style="font-style:normal;font-variant:normal;font-weight:normal;font-stretch:normal;font-size:5.33333349px;line-height:6.66666651px;font-family:Arial;-inkscape-font-specification:Arial;text-align:start;letter-spacing:0px;word-spacing:0px;text-anchor:start;fill:#000000;fill-opacity:1;stroke:none"
     x="33.0187"
     y="192.83284"
     id="text4955"><tspan
       sodipodi:role="line"
       id="tspan4953"
       x="33.0187"
       y="192.83284">N</tspan></text>
  <text
     xml:space="preserve"
     style="font-style:normal;font-variant:normal;font-weight:normal;font-stretch:normal;font-size:5.33333349px;line-height:6.66666651px;font-family:Arial;-inkscape-font-specification:Arial;text-align:start;letter-spacing:2.4000001px;word-spacing:0px;text-anchor:start;fill:#000000;fill-opacity:1;stroke:none"
     x="97.609261"
     y="185.16853"
     id="text4959"><tspan
       sodipodi:role="line"
       id="tspan4957"
       x="97.609261"
       y="185.16853">T5S</tspan></text>
  <text
     xml:space="preserve"
     style="font-style:normal;font-variant:normal;font-weight:normal;font-stretch:normal;font-size:5.33333349px;line-height:6.5333333px;font-family:Arial;-inkscape-font-specification:Arial;text-align:center;letter-spacing:0.69999999px;word-spacing:0px;text-anchor:middle;fill:#000000;fill-opacity:1;stroke:none"
     x="35.438763"
     y="68.824371"
     id="text5451"><tspan
       sodipodi:role="line"
       id="tspan5449"
       x="35.788761"
       y="68.824371">LONG</tspan><tspan
       sodipodi:role="line"
       x="35.788761"
       y="75.357704"
       id="tspan5453">VALLEY</tspan><tspan
       sodipodi:role="line"
       x="35.788761"
       y="81.891037"
       id="tspan5455">DAM</tspan></text>
  <text
     xml:space="preserve"
     style="font-style:normal;font-variant:normal;font-weight:normal;font-stretch:normal;font-size:4px;line-height:6.66666651px;font-family:Arial;-inkscape-font-specification:Arial;text-align:start;letter-spacing:0.75px;word-spacing:0px;text-anchor:start;fill:#000000;fill-opacity:1;stroke:none"
     x="135.63771"
     y="171.38857"
     id="text7311"><tspan
       sodipodi:role="line"
       id="tspan7309"
       x="135.63771"
       y="171.38857">395</tspan></text>
  <text
     xml:space="preserve"
     style="font-style:italic;font-variant:normal;font-weight:normal;font-stretch:normal;font-size:5.33333349px;line-height:6.66666651px;font-family:Arial;-inkscape-font-specification:'Arial Italic';text-align:start;letter-spacing:0px;word-spacing:0px;text-anchor:start;fill:#000000;fill-opacity:1;stroke:none"
     x="84.603745"
     y="110.73043"
     id="text7315"
     transform="rotate(-4.7008333)"><tspan
       sodipodi:role="line"
       id="tspan7313"
       x="84.603745"
       y="110.73043">Owens</tspan></text>
  <text
     xml:space="preserve"
     style="font-style:italic;font-variant:normal;font-weight:normal;font-stretch:normal;font-size:5.33333349px;line-height:6.66666651px;font-family:Arial;-inkscape-font-specification:'Arial Italic';text-align:start;letter-spacing:0px;word-spacing:0px;text-anchor:start;fill:#000000;fill-opacity:1;stroke:none"
     x="185.84792"
     y="55.539856"
     id="text7325"
     transform="rotate(15.319867)"><tspan
       sodipodi:role="line"
       id="tspan7323"
       x="185.84792"
       y="55.539856">River</tspan></text>
  <text
     xml:space="preserve"
     style="font-style:normal;font-variant:normal;font-weight:normal;font-stretch:normal;font-size:5.33333349px;line-height:6.66666651px;font-family:Arial;-inkscape-font-specification:Arial;text-align:start;letter-spacing:0.64999998px;word-spacing:0px;text-anchor:start;fill:#000000;fill-opacity:1;stroke:none"
     x="48.192184"
     y="234.61684"
     id="text4925-7-4"><tspan
       sodipodi:role="line"
       id="tspan4923-3-1"
       x="48.192184"
       y="234.61684">6000</tspan></text>
  <text
     xml:space="preserve"
     style="font-style:normal;font-variant:normal;font-weight:normal;font-stretch:normal;font-size:5.33333349px;line-height:6.66666651px;font-family:Arial;-inkscape-font-specification:Arial;text-align:start;letter-spacing:2.4000001px;word-spacing:0px;text-anchor:start;fill:#000000;fill-opacity:1;stroke:none"
     x="97.924416"
     y="177.46242"
     id="text4959-8"><tspan
       sodipodi:role="line"
       id="tspan4957-1"
       x="97.924416"
       y="177.46242">T4S</tspan></text>
  <text
     xml:space="preserve"
     style="font-style:normal;font-variant:normal;font-weight:normal;font-stretch:normal;font-size:5.33333349px;line-height:6.66666651px;font-family:Arial;-inkscape-font-specification:Arial;text-align:start;letter-spacing:0.94999999px;word-spacing:0px;text-anchor:start;fill:#000000;fill-opacity:1;stroke:none"
     x="-143.4304"
     y="18.297855"
     id="text4959-8-5"
     transform="rotate(-90)"><tspan
       sodipodi:role="line"
       id="tspan4957-1-3"
       x="-143.4304"
       y="18.297855">R29E</tspan></text>
  <text
     xml:space="preserve"
     style="font-style:normal;font-variant:normal;font-weight:normal;font-stretch:normal;font-size:5.33333349px;line-height:6.66666651px;font-family:Arial;-inkscape-font-specification:Arial;text-align:start;letter-spacing:0.94999999px;word-spacing:0px;text-anchor:start;fill:#000000;fill-opacity:1;stroke:none"
     x="-143.33475"
     y="25.788246"
     id="text4959-8-5-5"
     transform="rotate(-90)"><tspan
       sodipodi:role="line"
       id="tspan4957-1-3-9"
       x="-143.33475"
       y="25.788246">R30E</tspan></text>
  <text
     xml:space="preserve"
     style="font-style:normal;font-variant:normal;font-weight:normal;font-stretch:normal;font-size:5.33333349px;line-height:6.66666651px;font-family:Arial;-inkscape-font-specification:Arial;text-align:start;letter-spacing:0.31px;word-spacing:0px;text-anchor:start;fill:#000000;fill-opacity:1;stroke:none"
     x="-140.80559"
     y="231.62617"
     id="text4959-8-5-5-5"
     transform="rotate(-90)"><tspan
       sodipodi:role="line"
       id="tspan4957-1-3-9-4"
       x="-140.80559"
       y="231.62617">R 30 E</tspan></text>
  <text
     xml:space="preserve"
     style="font-style:normal;font-variant:normal;font-weight:normal;font-stretch:normal;font-size:5.33333349px;line-height:6.66666651px;font-family:Arial;-inkscape-font-specification:Arial;text-align:start;letter-spacing:0.31px;word-spacing:0px;text-anchor:start;fill:#000000;fill-opacity:1;stroke:none"
     x="-140.97667"
     y="239.45003"
     id="text4959-8-5-5-5-1"
     transform="rotate(-90)"><tspan
       sodipodi:role="line"
       id="tspan4957-1-3-9-4-8"
       x="-140.97667"
       y="239.45003">R 31 E</tspan></text>
  <text
     xml:space="preserve"
     style="font-style:normal;font-variant:normal;font-weight:normal;font-stretch:normal;font-size:5.33333349px;line-height:6.66666651px;font-family:Arial;-inkscape-font-specification:Arial;text-align:start;letter-spacing:0px;word-spacing:0px;text-anchor:start;fill:#000000;fill-opacity:1;stroke:none"
     x="71.839615"
     y="162.97269"
     id="text7621"><tspan
       sodipodi:role="line"
       id="tspan7619"
       x="71.839615"
       y="162.97269">32</tspan></text>
  <text
     xml:space="preserve"
     style="font-style:normal;font-variant:normal;font-weight:normal;font-stretch:normal;font-size:5.33333349px;line-height:6.66666651px;font-family:Arial;-inkscape-font-specification:Arial;text-align:start;letter-spacing:0px;word-spacing:0px;text-anchor:start;fill:#000000;fill-opacity:1;stroke:none"
     x="34.642387"
     y="56.705177"
     id="text7625"><tspan
       sodipodi:role="line"
       id="tspan7623"
       x="34.642387"
       y="56.705177">18</tspan></text>
  <text
     xml:space="preserve"
     style="font-style:normal;font-variant:normal;font-weight:normal;font-stretch:normal;font-size:5.33333349px;line-height:6.66666651px;font-family:Arial;-inkscape-font-specification:Arial;text-align:start;letter-spacing:0px;word-spacing:0px;text-anchor:start;fill:#000000;fill-opacity:1;stroke:none"
     x="68.914856"
     y="56.551266"
     id="text7629"><tspan
       sodipodi:role="line"
       id="tspan7627"
       x="68.914856"
       y="56.551266">17</tspan></text>
  <text
     xml:space="preserve"
     style="font-style:normal;font-variant:normal;font-weight:normal;font-stretch:normal;font-size:5.33333349px;line-height:6.66666651px;font-family:Arial;-inkscape-font-specification:Arial;text-align:start;letter-spacing:0px;word-spacing:0px;text-anchor:start;fill:#000000;fill-opacity:1;stroke:none"
     x="105.2803"
     y="56.91885"
     id="text7633"><tspan
       sodipodi:role="line"
       id="tspan7631"
       x="105.2803"
       y="56.91885">16</tspan></text>
  <text
     xml:space="preserve"
     style="font-style:normal;font-variant:normal;font-weight:normal;font-stretch:normal;font-size:5.33333349px;line-height:6.66666651px;font-family:Arial;-inkscape-font-specification:Arial;text-align:start;letter-spacing:0px;word-spacing:0px;text-anchor:start;fill:#000000;fill-opacity:1;stroke:none"
     x="140.40396"
     y="56.821194"
     id="text7637"><tspan
       sodipodi:role="line"
       id="tspan7635"
       x="140.40396"
       y="56.821194">15</tspan></text>
  <text
     xml:space="preserve"
     style="font-style:normal;font-variant:normal;font-weight:normal;font-stretch:normal;font-size:5.33333349px;line-height:6.66666651px;font-family:Arial;-inkscape-font-specification:Arial;text-align:start;letter-spacing:0px;word-spacing:0px;text-anchor:start;fill:#000000;fill-opacity:1;stroke:none"
     x="139.377"
     y="23.107277"
     id="text7641"><tspan
       sodipodi:role="line"
       id="tspan7639"
       x="139.377"
       y="23.107277">10</tspan></text>
  <text
     xml:space="preserve"
     style="font-style:normal;font-variant:normal;font-weight:normal;font-stretch:normal;font-size:5.33333349px;line-height:6.66666651px;font-family:Arial;-inkscape-font-specification:Arial;text-align:start;letter-spacing:0px;word-spacing:0px;text-anchor:start;fill:#000000;fill-opacity:1;stroke:none"
     x="105.84203"
     y="23.283056"
     id="text7645"><tspan
       sodipodi:role="line"
       id="tspan7643"
       x="105.84203"
       y="23.283056">9</tspan></text>
  <text
     xml:space="preserve"
     style="font-style:normal;font-variant:normal;font-weight:normal;font-stretch:normal;font-size:5.33333349px;line-height:6.66666651px;font-family:Arial;-inkscape-font-specification:Arial;text-align:start;letter-spacing:0px;word-spacing:0px;text-anchor:start;fill:#000000;fill-opacity:1;stroke:none"
     x="71.299629"
     y="23.283056"
     id="text7649"><tspan
       sodipodi:role="line"
       id="tspan7647"
       x="71.299629"
       y="23.283056">8</tspan></text>
  <text
     xml:space="preserve"
     style="font-style:normal;font-variant:normal;font-weight:normal;font-stretch:normal;font-size:5.33333349px;line-height:6.66666651px;font-family:Arial;-inkscape-font-specification:Arial;text-align:start;letter-spacing:0px;word-spacing:0px;text-anchor:start;fill:#000000;fill-opacity:1;stroke:none"
     x="35.688881"
     y="23.049854"
     id="text7653"><tspan
       sodipodi:role="line"
       id="tspan7651"
       x="35.688881"
       y="23.049854">7</tspan></text>
  <text
     xml:space="preserve"
     style="font-style:normal;font-variant:normal;font-weight:normal;font-stretch:normal;font-size:5.33333349px;line-height:6.66666651px;font-family:Arial;-inkscape-font-specification:Arial;text-align:start;letter-spacing:0px;word-spacing:0px;text-anchor:start;fill:#000000;fill-opacity:1;stroke:none"
     x="175.53477"
     y="23.385887"
     id="text7657"><tspan
       sodipodi:role="line"
       id="tspan7655"
       x="175.53477"
       y="23.385887">11</tspan></text>
  <text
     xml:space="preserve"
     style="font-style:normal;font-variant:normal;font-weight:normal;font-stretch:normal;font-size:5.33333349px;line-height:6.66666651px;font-family:Arial;-inkscape-font-specification:Arial;text-align:start;letter-spacing:0px;word-spacing:0px;text-anchor:start;fill:#000000;fill-opacity:1;stroke:none"
     x="176.75471"
     y="56.866264"
     id="text7661"><tspan
       sodipodi:role="line"
       id="tspan7659"
       x="176.75471"
       y="56.866264">14</tspan></text>
  <text
     xml:space="preserve"
     style="font-style:normal;font-variant:normal;font-weight:normal;font-stretch:normal;font-size:5.33333349px;line-height:6.66666651px;font-family:Arial;-inkscape-font-specification:Arial;text-align:start;letter-spacing:0px;word-spacing:0px;text-anchor:start;fill:#000000;fill-opacity:1;stroke:none"
     x="213.35271"
     y="56.866268"
     id="text7665"><tspan
       sodipodi:role="line"
       id="tspan7663"
       x="213.35271"
       y="56.866268">13</tspan></text>
  <text
     xml:space="preserve"
     style="font-style:normal;font-variant:normal;font-weight:normal;font-stretch:normal;font-size:5.33333349px;line-height:6.66666651px;font-family:Arial;-inkscape-font-specification:Arial;text-align:start;letter-spacing:0px;word-spacing:0px;text-anchor:start;fill:#000000;fill-opacity:1;stroke:none"
     x="244.39322"
     y="55.646332"
     id="text7669"><tspan
       sodipodi:role="line"
       id="tspan7667"
       x="244.39322"
       y="55.646332">18</tspan></text>
  <text
     xml:space="preserve"
     style="font-style:normal;font-variant:normal;font-weight:normal;font-stretch:normal;font-size:5.33333349px;line-height:6.66666651px;font-family:Arial;-inkscape-font-specification:Arial;text-align:start;letter-spacing:0px;word-spacing:0px;text-anchor:start;fill:#000000;fill-opacity:1;stroke:none"
     x="142.46104"
     y="92.515419"
     id="text7673"><tspan
       sodipodi:role="line"
       id="tspan7671"
       x="142.46104"
       y="92.515419">22</tspan></text>
  <text
     xml:space="preserve"
     style="font-style:normal;font-variant:normal;font-weight:normal;font-stretch:normal;font-size:5.33333349px;line-height:6.66666651px;font-family:Arial;-inkscape-font-specification:Arial;text-align:start;letter-spacing:0px;word-spacing:0px;text-anchor:start;fill:#000000;fill-opacity:1;stroke:none"
     x="177.43245"
     y="92.515411"
     id="text7677"><tspan
       sodipodi:role="line"
       id="tspan7675"
       x="177.43245"
       y="92.515411">23</tspan></text>
  <text
     xml:space="preserve"
     style="font-style:normal;font-variant:normal;font-weight:normal;font-stretch:normal;font-size:5.33333349px;line-height:6.66666651px;font-family:Arial;-inkscape-font-specification:Arial;text-align:start;letter-spacing:0px;word-spacing:0px;text-anchor:start;fill:#000000;fill-opacity:1;stroke:none"
     x="214.57263"
     y="92.650963"
     id="text7681"><tspan
       sodipodi:role="line"
       id="tspan7679"
       x="214.57263"
       y="92.650963">24</tspan></text>
  <text
     xml:space="preserve"
     style="font-style:normal;font-variant:normal;font-weight:normal;font-stretch:normal;font-size:5.33333349px;line-height:6.66666651px;font-family:Arial;-inkscape-font-specification:Arial;text-align:start;letter-spacing:0px;word-spacing:0px;text-anchor:start;fill:#000000;fill-opacity:1;stroke:none"
     x="244.25768"
     y="92.650963"
     id="text7685"><tspan
       sodipodi:role="line"
       id="tspan7683"
       x="244.25768"
       y="92.650963">19</tspan></text>
  <text
     xml:space="preserve"
     style="font-style:normal;font-variant:normal;font-weight:normal;font-stretch:normal;font-size:5.33333349px;line-height:6.66666651px;font-family:Arial;-inkscape-font-specification:Arial;text-align:start;letter-spacing:0px;word-spacing:0px;text-anchor:start;fill:#000000;fill-opacity:1;stroke:none"
     x="244.12213"
     y="125.86024"
     id="text7689"><tspan
       sodipodi:role="line"
       id="tspan7687"
       x="244.12213"
       y="125.86024">30</tspan></text>
  <text
     xml:space="preserve"
     style="font-style:normal;font-variant:normal;font-weight:normal;font-stretch:normal;font-size:5.33333349px;line-height:6.66666651px;font-family:Arial;-inkscape-font-specification:Arial;text-align:start;letter-spacing:0px;word-spacing:0px;text-anchor:start;fill:#000000;fill-opacity:1;stroke:none"
     x="205.49092"
     y="128.8423"
     id="text7693"><tspan
       sodipodi:role="line"
       id="tspan7691"
       x="205.49092"
       y="128.8423">25</tspan></text>
  <text
     xml:space="preserve"
     style="font-style:normal;font-variant:normal;font-weight:normal;font-stretch:normal;font-size:5.33333349px;line-height:6.66666651px;font-family:Arial;-inkscape-font-specification:Arial;text-align:start;letter-spacing:0px;word-spacing:0px;text-anchor:start;fill:#000000;fill-opacity:1;stroke:none"
     x="178.24574"
     y="129.1134"
     id="text7697"><tspan
       sodipodi:role="line"
       id="tspan7695"
       x="178.24574"
       y="129.1134">26</tspan></text>
  <text
     xml:space="preserve"
     style="font-style:normal;font-variant:normal;font-weight:normal;font-stretch:normal;font-size:5.33333349px;line-height:6.66666651px;font-family:Arial;-inkscape-font-specification:Arial;text-align:start;letter-spacing:0px;word-spacing:0px;text-anchor:start;fill:#000000;fill-opacity:1;stroke:none"
     x="143.68098"
     y="129.11339"
     id="text7701"><tspan
       sodipodi:role="line"
       id="tspan7699"
       x="143.68098"
       y="129.11339">27</tspan></text>
  <text
     xml:space="preserve"
     style="font-style:normal;font-variant:normal;font-weight:normal;font-stretch:normal;font-size:5.33333349px;line-height:6.66666651px;font-family:Arial;-inkscape-font-specification:Arial;text-align:start;letter-spacing:0px;word-spacing:0px;text-anchor:start;fill:#000000;fill-opacity:1;stroke:none"
     x="34.022572"
     y="97.530693"
     id="text7705"><tspan
       sodipodi:role="line"
       id="tspan7703"
       x="34.022572"
       y="97.530693">19</tspan></text>
  <text
     xml:space="preserve"
     style="font-style:normal;font-variant:normal;font-weight:normal;font-stretch:normal;font-size:5.33333349px;line-height:6.66666651px;font-family:Arial;-inkscape-font-specification:Arial;text-align:start;letter-spacing:0px;word-spacing:0px;text-anchor:start;fill:#000000;fill-opacity:1;stroke:none"
     x="70.891655"
     y="95.497467"
     id="text7709"><tspan
       sodipodi:role="line"
       id="tspan7707"
       x="70.891655"
       y="95.497467">20</tspan></text>
  <text
     xml:space="preserve"
     style="font-style:normal;font-variant:normal;font-weight:normal;font-stretch:normal;font-size:5.33333349px;line-height:6.66666651px;font-family:Arial;-inkscape-font-specification:Arial;text-align:start;letter-spacing:0px;word-spacing:0px;text-anchor:start;fill:#000000;fill-opacity:1;stroke:none"
     x="105.86307"
     y="92.379868"
     id="text7713"><tspan
       sodipodi:role="line"
       id="tspan7711"
       x="105.86307"
       y="92.379868">21</tspan></text>
  <text
     xml:space="preserve"
     style="font-style:normal;font-variant:normal;font-weight:normal;font-stretch:normal;font-size:5.33333349px;line-height:6.66666651px;font-family:Arial;-inkscape-font-specification:Arial;text-align:start;letter-spacing:0px;word-spacing:0px;text-anchor:start;fill:#000000;fill-opacity:1;stroke:none"
     x="107.76073"
     y="128.8423"
     id="text7717"><tspan
       sodipodi:role="line"
       id="tspan7715"
       x="107.76073"
       y="128.8423">28</tspan></text>
  <text
     xml:space="preserve"
     style="font-style:normal;font-variant:normal;font-weight:normal;font-stretch:normal;font-size:5.33333349px;line-height:6.66666651px;font-family:Arial;-inkscape-font-specification:Arial;text-align:start;letter-spacing:0px;word-spacing:0px;text-anchor:start;fill:#000000;fill-opacity:1;stroke:none"
     x="71.704941"
     y="129.1134"
     id="text7721"><tspan
       sodipodi:role="line"
       id="tspan7719"
       x="71.704941"
       y="129.1134">29</tspan></text>
  <text
     xml:space="preserve"
     style="font-style:normal;font-variant:normal;font-weight:normal;font-stretch:normal;font-size:5.33333349px;line-height:6.66666651px;font-family:Arial;-inkscape-font-specification:Arial;text-align:start;letter-spacing:0px;word-spacing:0px;text-anchor:start;fill:#000000;fill-opacity:1;stroke:none"
     x="34.971409"
     y="128.8423"
     id="text7725"><tspan
       sodipodi:role="line"
       id="tspan7723"
       x="34.971409"
       y="128.8423">30</tspan></text>
  <text
     xml:space="preserve"
     style="font-style:normal;font-variant:normal;font-weight:normal;font-stretch:normal;font-size:5.33333349px;line-height:6.66666651px;font-family:Arial;-inkscape-font-specification:Arial;text-align:start;letter-spacing:0px;word-spacing:0px;text-anchor:start;fill:#000000;fill-opacity:1;stroke:none"
     x="35.242504"
     y="161.37386"
     id="text7729"><tspan
       sodipodi:role="line"
       id="tspan7727"
       x="35.242504"
       y="161.37386">31</tspan></text>
  <text
     xml:space="preserve"
     style="font-style:normal;font-variant:normal;font-weight:normal;font-stretch:normal;font-size:5.33333349px;line-height:6.66666651px;font-family:Arial;-inkscape-font-specification:Arial;text-align:start;letter-spacing:0px;word-spacing:0px;text-anchor:start;fill:#000000;fill-opacity:1;stroke:none"
     x="108.16739"
     y="162.59378"
     id="text7733"><tspan
       sodipodi:role="line"
       id="tspan7731"
       x="108.16739"
       y="162.59378">33</tspan></text>
  <text
     xml:space="preserve"
     style="font-style:normal;font-variant:normal;font-weight:normal;font-stretch:normal;font-size:5.33333349px;line-height:6.66666651px;font-family:Arial;-inkscape-font-specification:Arial;text-align:start;letter-spacing:0px;word-spacing:0px;text-anchor:start;fill:#000000;fill-opacity:1;stroke:none"
     x="144.76537"
     y="162.45824"
     id="text7737"><tspan
       sodipodi:role="line"
       id="tspan7735"
       x="144.76537"
       y="162.45824">34</tspan></text>
  <text
     xml:space="preserve"
     style="font-style:normal;font-variant:normal;font-weight:normal;font-stretch:normal;font-size:5.33333349px;line-height:6.66666651px;font-family:Arial;-inkscape-font-specification:Arial;text-align:start;letter-spacing:0px;word-spacing:0px;text-anchor:start;fill:#000000;fill-opacity:1;stroke:none"
     x="178.65239"
     y="162.59378"
     id="text7741"><tspan
       sodipodi:role="line"
       id="tspan7739"
       x="178.65239"
       y="162.59378">35</tspan></text>
  <text
     xml:space="preserve"
     style="font-style:normal;font-variant:normal;font-weight:normal;font-stretch:normal;font-size:5.33333349px;line-height:6.66666651px;font-family:Arial;-inkscape-font-specification:Arial;text-align:start;letter-spacing:0px;word-spacing:0px;text-anchor:start;fill:#000000;fill-opacity:1;stroke:none"
     x="214.57263"
     y="162.86487"
     id="text7745"><tspan
       sodipodi:role="line"
       id="tspan7743"
       x="214.57263"
       y="162.86487">36</tspan></text>
  <text
     xml:space="preserve"
     style="font-style:normal;font-variant:normal;font-weight:normal;font-stretch:normal;font-size:5.33333349px;line-height:6.66666651px;font-family:Arial;-inkscape-font-specification:Arial;text-align:start;letter-spacing:0px;word-spacing:0px;text-anchor:start;fill:#000000;fill-opacity:1;stroke:none"
     x="244.66432"
     y="162.59378"
     id="text7749"><tspan
       sodipodi:role="line"
       id="tspan7747"
       x="244.66432"
       y="162.59378">31</tspan></text>
  <text
     xml:space="preserve"
     style="font-style:normal;font-variant:normal;font-weight:normal;font-stretch:normal;font-size:5.33333349px;line-height:6.66666651px;font-family:Arial;-inkscape-font-specification:Arial;text-align:start;letter-spacing:0px;word-spacing:0px;text-anchor:start;fill:#000000;fill-opacity:1;stroke:none"
     x="221.62114"
     y="200.4117"
     id="text7753"><tspan
       sodipodi:role="line"
       id="tspan7751"
       x="221.62114"
       y="200.4117">6</tspan></text>
  <text
     xml:space="preserve"
     style="font-style:normal;font-variant:normal;font-weight:normal;font-stretch:normal;font-size:5.33333349px;line-height:6.66666651px;font-family:Arial;-inkscape-font-specification:Arial;text-align:start;letter-spacing:0px;word-spacing:0px;text-anchor:start;fill:#000000;fill-opacity:1;stroke:none"
     x="185.97198"
     y="200.6828"
     id="text7757"><tspan
       sodipodi:role="line"
       id="tspan7755"
       x="185.97198"
       y="200.6828">1</tspan></text>
  <text
     xml:space="preserve"
     style="font-style:normal;font-variant:normal;font-weight:normal;font-stretch:normal;font-size:5.33333349px;line-height:6.66666651px;font-family:Arial;-inkscape-font-specification:Arial;text-align:start;letter-spacing:0px;word-spacing:0px;text-anchor:start;fill:#000000;fill-opacity:1;stroke:none"
     x="149.6451"
     y="200.54724"
     id="text7761"><tspan
       sodipodi:role="line"
       id="tspan7759"
       x="149.6451"
       y="200.54724">2</tspan></text>
  <text
     xml:space="preserve"
     style="font-style:normal;font-variant:normal;font-weight:normal;font-stretch:normal;font-size:5.33333349px;line-height:6.66666651px;font-family:Arial;-inkscape-font-specification:Arial;text-align:start;letter-spacing:0px;word-spacing:0px;text-anchor:start;fill:#000000;fill-opacity:1;stroke:none"
     x="149.37401"
     y="234.29872"
     id="text7765"><tspan
       sodipodi:role="line"
       id="tspan7763"
       x="149.37401"
       y="234.29872">11</tspan></text>
  <text
     xml:space="preserve"
     style="font-style:normal;font-variant:normal;font-weight:normal;font-stretch:normal;font-size:5.33333349px;line-height:6.66666651px;font-family:Arial;-inkscape-font-specification:Arial;text-align:start;letter-spacing:0px;word-spacing:0px;text-anchor:start;fill:#000000;fill-opacity:1;stroke:none"
     x="184.6165"
     y="234.56982"
     id="text7769"><tspan
       sodipodi:role="line"
       id="tspan7767"
       x="184.6165"
       y="234.56982">12</tspan></text>
  <text
     xml:space="preserve"
     style="font-style:normal;font-variant:normal;font-weight:normal;font-stretch:normal;font-size:5.33333349px;line-height:6.66666651px;font-family:Arial;-inkscape-font-specification:Arial;text-align:start;letter-spacing:0px;word-spacing:0px;text-anchor:start;fill:#000000;fill-opacity:1;stroke:none"
     x="222.84108"
     y="233.89207"
     id="text7773"><tspan
       sodipodi:role="line"
       id="tspan7771"
       x="222.84108"
       y="233.89207">7</tspan></text>
  <text
     xml:space="preserve"
     style="font-style:normal;font-variant:normal;font-weight:normal;font-stretch:normal;font-size:5.33333349px;line-height:6.66666651px;font-family:Arial;-inkscape-font-specification:Arial;text-align:start;letter-spacing:0px;word-spacing:0px;text-anchor:start;fill:#000000;fill-opacity:1;stroke:none"
     x="245.07095"
     y="232.12996"
     id="text7777"><tspan
       sodipodi:role="line"
       id="tspan7775"
       x="245.07095"
       y="232.12996">8</tspan></text>
</svg>
