<?xml version="1.0" encoding="UTF-8" standalone="no"?>
<!-- Created with Inkscape (http://www.inkscape.org/) -->

<svg
   xmlns:dc="http://purl.org/dc/elements/1.1/"
   xmlns:cc="http://creativecommons.org/ns#"
   xmlns:rdf="http://www.w3.org/1999/02/22-rdf-syntax-ns#"
   xmlns:svg="http://www.w3.org/2000/svg"
   xmlns="http://www.w3.org/2000/svg"
   xmlns:sodipodi="http://sodipodi.sourceforge.net/DTD/sodipodi-0.dtd"
   xmlns:inkscape="http://www.inkscape.org/namespaces/inkscape"
   version="1.1"
   id="svg5171"
   width="771.84003"
   height="1006.08"
   viewBox="0 0 771.84003 1006.08"
   sodipodi:docname="er01jy04.024.svg"
   inkscape:version="0.92.2 5c3e80d, 2017-08-06">
  <metadata
     id="metadata5177">
    <rdf:RDF>
      <cc:Work
         rdf:about="">
        <dc:format>image/svg+xml</dc:format>
        <dc:type
           rdf:resource="http://purl.org/dc/dcmitype/StillImage" />
        <dc:title></dc:title>
      </cc:Work>
    </rdf:RDF>
  </metadata>
  <defs
     id="defs5175" />
  <sodipodi:namedview
     pagecolor="#ffffff"
     bordercolor="#666666"
     borderopacity="1"
     objecttolerance="10"
     gridtolerance="10"
     guidetolerance="10"
     inkscape:pageopacity="0"
     inkscape:pageshadow="2"
     inkscape:window-width="1280"
     inkscape:window-height="756"
     id="namedview5173"
     showgrid="false"
     inkscape:zoom="0.98962377"
     inkscape:cx="389.76176"
     inkscape:cy="842.41215"
     inkscape:window-x="0"
     inkscape:window-y="0"
     inkscape:window-maximized="0"
     inkscape:current-layer="svg5171" />
  <path
     style="fill:#a8a8a8;fill-opacity:1;stroke:#000000;stroke-width:1px;stroke-linecap:round;stroke-linejoin:round;stroke-opacity:1"
     d="m 561.41698,566.29437 0.10807,-6.80832 -0.97262,-0.75649 c 0.32115,-1.28534 -0.56395,-1.37447 -1.18875,-1.99927 -0.37553,-0.37553 0.16657,-0.96815 -0.27017,-1.40489 -0.34174,-0.34173 -0.91974,-0.43342 -1.18876,-0.70245 -0.12834,-0.12833 -0.44707,0.12769 -0.59438,0.054 -0.31462,-0.15731 -0.3787,-0.27064 -0.59438,-0.48631 -0.29939,-0.29939 -1.52045,-0.22363 -1.99927,-0.70245 -0.072,-0.072 -0.30619,0.018 -0.37824,-0.054 -0.044,-0.0441 2.12604,-2.01797 2.48558,-2.37751 1.35636,-1.35636 2.67508,-2.56701 3.83644,-3.72838 0.0913,-0.0913 -0.57779,0.62756 -0.43227,0.91859 0.0701,0.14014 0.76279,0.75016 0.70244,0.81051 -0.25048,0.25049 -0.7729,0.30303 -0.97261,0.70245 -0.14374,0.28748 -0.57665,3.16947 -0.32421,3.67434 0.27775,0.5555 1.24495,0.75864 1.67506,1.18875 0.24453,0.24453 -0.17969,0.93744 0,1.29683 0.20653,0.41306 0.87162,0.60144 1.13473,0.86455 0.10807,0.10807 0,0.43227 0.10807,0.54034 0.38775,0.38775 1.43108,0.43062 1.83716,1.24279 0.5132,1.0264 -0.77065,2.60783 -1.18875,3.02593 -0.18912,0.18912 0.18912,0.9456 0,1.13472 -0.13219,0.13219 -0.50541,0.12716 -0.64841,0.27017 -0.1323,0.1323 -0.32955,0.43762 -0.48631,0.59438 -0.52593,0.52592 -0.30546,2.01583 -0.64842,2.70171 z"
     id="path7170-3"
     inkscape:connector-curvature="0" />
  <path
     style="opacity:1;vector-effect:none;fill:none;fill-opacity:1;fill-rule:evenodd;stroke:#000000;stroke-width:1;stroke-linecap:round;stroke-linejoin:round;stroke-miterlimit:4;stroke-dasharray:none;stroke-dashoffset:0;stroke-opacity:1"
     d="m 700.06843,897.74026 a 22.956917,22.500824 0 0 1 -22.95691,22.50075 22.956917,22.500824 0 0 1 -22.95695,-22.50075 22.956917,22.500824 0 0 1 22.95695,-22.50076 22.956917,22.500824 0 0 1 22.95691,22.50076 z"
     id="path13407-0"
     inkscape:connector-curvature="0" />
  <path
     style="fill:#0d0000;fill-opacity:1;stroke:#000000;stroke-width:1;stroke-linecap:round;stroke-linejoin:round;stroke-miterlimit:4;stroke-dasharray:none;stroke-opacity:1"
     d="m 667.21499,916.21272 10.48346,-2.87708 10.48349,2.87708 -10.48109,-40.47355 z"
     id="path14359-1-7-5-3-0-73-1-9-8-9-7-9"
     inkscape:connector-curvature="0"
     sodipodi:nodetypes="ccccc" />
  <path
     style="fill:none;stroke:#000000;stroke-width:1;stroke-linecap:butt;stroke-linejoin:miter;stroke-miterlimit:4;stroke-dasharray:none;stroke-opacity:1"
     d="m 71.568497,903.51022 -0.002,15.2643 h -30.72198 l 0.002,-15.2643 z"
     id="path14359-1-7-5-3-0-73-1-9-8-4-1"
     inkscape:connector-curvature="0"
     sodipodi:nodetypes="ccccc" />
  <path
     style="fill:none;stroke:#000000;stroke-width:3;stroke-linecap:butt;stroke-linejoin:miter;stroke-miterlimit:4;stroke-dasharray:none;stroke-opacity:1"
     d="m 74.861727,884.83542 -12.65913,18.2396 -11.62668,-17.0952 -12.56846,17.3328"
     id="path14359-1-7-5-3-0-73-1-9-8-17-9"
     inkscape:connector-curvature="0"
     sodipodi:nodetypes="cccc" />
  <path
     style="fill:none;stroke:#000000;stroke-width:3;stroke-linecap:butt;stroke-linejoin:miter;stroke-miterlimit:4;stroke-dasharray:none;stroke-opacity:1"
     d="m 66.146637,879.10732 -4.38374,6.3509 -6.36578,-7.9657 m -7.34184,-5.9459 -10.11715,14.4499"
     id="path14359-1-7-5-3-0-73-1-9-8-17-1-2"
     inkscape:connector-curvature="0"
     sodipodi:nodetypes="ccccc" />
  <path
     style="fill:none;stroke:#000000;stroke-width:1.13604844;stroke-linecap:butt;stroke-linejoin:miter;stroke-miterlimit:4;stroke-dasharray:none;stroke-opacity:1"
     d="m 74.819957,870.18832 -13.03525,19.421 -11.21449,-17.4751 -9.927,14.1595"
     id="path14359-1-7-5-3-0-73-1-9-8-4-4-4"
     inkscape:connector-curvature="0"
     sodipodi:nodetypes="cccc" />
  <path
     style="fill:none;stroke:#000000;stroke-width:1;stroke-linecap:butt;stroke-linejoin:miter;stroke-miterlimit:4;stroke-dasharray:none;stroke-opacity:1"
     d="m 35.993977,884.44222 14.59511,-20.1121 11.65589,17.0946 9.50091,-14.0133"
     id="path14359-1-7-5-3-0-73-1-9-8-4-8-5"
     inkscape:connector-curvature="0"
     sodipodi:nodetypes="cccc" />
  <path
     style="fill:none;stroke:#000000;stroke-width:5;stroke-linecap:round;stroke-linejoin:round;stroke-miterlimit:4;stroke-dasharray:none;stroke-opacity:1"
     d="m 39.006577,868.19922 11.54601,-17.7874 11.3924,17.8104 12.55664,-17.7556"
     id="path14359-1-7-5-3-0-73-1-9-8-4-8-6-8"
     inkscape:connector-curvature="0"
     sodipodi:nodetypes="cccc" />
  <path
     style="fill:none;stroke:#000000;stroke-width:1;stroke-linecap:butt;stroke-linejoin:miter;stroke-miterlimit:4;stroke-dasharray:none;stroke-opacity:1"
     d="m 353.66293,985.09522 232.35219,-3.7e-4 -0.003,12.94537 -232.35208,3.7e-4 z"
     id="path14359-1-7-5-3-0-73-1-9-8-07-0-8-1"
     inkscape:connector-curvature="0"
     sodipodi:nodetypes="ccccc" />
  <path
     style="fill:#0d0000;fill-opacity:1;stroke:#000000;stroke-width:1;stroke-linecap:butt;stroke-linejoin:miter;stroke-miterlimit:4;stroke-dasharray:none;stroke-opacity:1"
     d="m 353.66293,985.09522 -8.6e-4,6.33936 h 116.21856 l 8.5e-4,-6.33936 z"
     id="path14359-1-7-5-3-0-73-1-9-8-811-01-4-5"
     inkscape:connector-curvature="0"
     sodipodi:nodetypes="ccccc" />
  <path
     style="fill:#0d0000;fill-opacity:1;stroke:#000000;stroke-width:1;stroke-linecap:butt;stroke-linejoin:miter;stroke-miterlimit:4;stroke-dasharray:none;stroke-opacity:1"
     d="m 469.88032,991.43458 -8.6e-4,6.56244 116.13351,0.0436 8.6e-4,-6.56246 z"
     id="path14359-1-7-5-3-0-73-1-9-8-811-5-3-8-8"
     inkscape:connector-curvature="0"
     sodipodi:nodetypes="ccccc" />
  <path
     style="fill:none;stroke:#000000;stroke-width:1;stroke-linecap:butt;stroke-linejoin:miter;stroke-miterlimit:4;stroke-dasharray:none;stroke-opacity:1"
     d="m 348.52554,865.97234 281.63005,-4.5e-4 -0.003,13.53214 -281.62991,3.8e-4 z"
     id="path14359-1-7-5-3-0-73-1-9-8-07-0-8-1-3"
     inkscape:connector-curvature="0"
     sodipodi:nodetypes="ccccc" />
  <path
     style="fill:#0d0000;fill-opacity:1;stroke:#000000;stroke-width:1;stroke-linecap:butt;stroke-linejoin:miter;stroke-miterlimit:4;stroke-dasharray:none;stroke-opacity:1"
     d="m 348.52554,865.97234 -9.8e-4,6.62667 h 140.42172 l 9.7e-4,-6.62667 z"
     id="path14359-1-7-5-3-0-73-1-9-8-811-01-4-5-0"
     inkscape:connector-curvature="0"
     sodipodi:nodetypes="ccccc" />
  <path
     style="fill:#0d0000;fill-opacity:1;stroke:#000000;stroke-width:1;stroke-linecap:butt;stroke-linejoin:miter;stroke-miterlimit:4;stroke-dasharray:none;stroke-opacity:1"
     d="m 488.94584,872.59901 -9.8e-4,6.85987 141.2082,0.046 9.6e-4,-6.85995 z"
     id="path14359-1-7-5-3-0-73-1-9-8-811-5-3-8-8-6"
     inkscape:connector-curvature="0"
     sodipodi:nodetypes="ccccc" />
  <path
     style="fill:none;stroke:#000000;stroke-width:1;stroke-linecap:round;stroke-linejoin:round;stroke-miterlimit:4;stroke-dasharray:none;stroke-opacity:1"
     d="M 551.81669,622.54528 H 680.13712 V 602.09629 H 573.42431 L 562.17322,563.5756 v 38.52069 h -10.36014 z"
     id="path14359-1-7-5-3-0-73-1-9-8-9-66-5-9-1-9-5-0-5-6-2-0-7-6-5-22"
     inkscape:connector-curvature="0"
     sodipodi:nodetypes="cccccccc" />
  <path
     style="fill:none;stroke:#000000;stroke-width:1;stroke-linecap:butt;stroke-linejoin:round;stroke-miterlimit:4;stroke-dasharray:none;stroke-opacity:1"
     d="M 720.61079,812.34311 721.96694,70.259405 652.02499,68.6561 409.63143,68.566713 29.125141,70.936482 l -0.002,744.453478 z"
     id="path14359-1-7-5-3-0-73-1-9-8-5-7"
     inkscape:connector-curvature="0"
     sodipodi:nodetypes="ccccccc" />
  <path
     style="fill:none;stroke:#000000;stroke-width:1;stroke-linecap:round;stroke-linejoin:round;stroke-miterlimit:4;stroke-dasharray:none;stroke-opacity:1"
     d="m 366.46501,217.45324 0.002,10.49098 -55.28872,-11.16162 55.28955,15.63927 0.001,6.47987 h 175.69711 v -21.4485 z"
     id="path14359-1-7-5-3-0-73-1-9-8-9-66-5-9-1-9-5-0-5-6-2-0-7-6-5-22-2"
     inkscape:connector-curvature="0"
     sodipodi:nodetypes="cccccccc" />
  <path
     style="fill:none;stroke:#000000;stroke-width:1;stroke-linecap:round;stroke-linejoin:round;stroke-miterlimit:4;stroke-dasharray:none;stroke-opacity:1"
     d="m 173.74246,346.50612 0.002,10.13323 -42.88659,21.39398 42.88742,-16.91633 10e-4,6.47987 h 127.0519 v -21.09075 z"
     id="path14359-1-7-5-3-0-73-1-9-8-9-66-5-9-1-9-5-0-5-6-2-0-7-6-5-22-2-5"
     inkscape:connector-curvature="0"
     sodipodi:nodetypes="cccccccc" />
  <path
     style="fill:none;stroke:#000000;stroke-width:1;stroke-linecap:round;stroke-linejoin:round;stroke-miterlimit:4;stroke-dasharray:none;stroke-opacity:1"
     d="m 373.09869,349.68044 c 2.13249,0.075 6.35478,-0.35247 6.57763,-4.25458 0.21119,-3.69857 -2.90407,-5.15246 -2.83768,-8.56995 0.0448,-2.29975 1.34901,-4.489 2.59332,-6.47333 -1.02923,-1.23721 -2.44306,-2.61433 -3.3821,-3.88743 -1.44077,1.23047 -2.61583,1.72643 -3.8993,1.80188 -1.8681,0.10975 -3.27415,-0.7891 -5.13765,-2.3383 -1.96973,1.4405 -3.37581,2.44805 -5.2439,2.3383 -1.28348,-0.0755 -2.08666,-0.57141 -3.52742,-1.80188 -0.99217,1.59912 -2.45914,3.24797 -3.54147,4.26782 1.24428,1.98433 2.33613,3.79319 2.38078,6.09294 0.0665,3.41749 -3.04885,4.87138 -2.83765,8.56995 0.22287,3.90211 4.44516,4.32946 6.57764,4.25458 2.22372,-0.078 4.25757,0.37608 6.13891,1.60885 1.88131,-1.23277 3.91516,-1.68693 6.13889,-1.60885 z"
     id="path14359-1-7-5-3-0-73-1-9-8-5-7-6-8-2"
     inkscape:connector-curvature="0"
     sodipodi:nodetypes="sssccscsccssscs" />
  <text
     xml:space="preserve"
     style="font-style:normal;font-variant:normal;font-weight:normal;font-stretch:normal;font-size:12px;line-height:6.66666651px;font-family:Arial;-inkscape-font-specification:Arial;text-align:start;letter-spacing:0.5px;word-spacing:0px;text-anchor:start;fill:#000000;fill-opacity:1;stroke:none"
     x="360.40607"
     y="345.91238"
     id="text13807-0-7-7"
     sodipodi:insensitive="true"><tspan
       sodipodi:role="line"
       id="tspan13805-4-5-0"
       x="360.40607"
       y="345.91238">21</tspan></text>
  <path
     inkscape:connector-curvature="0"
     style="opacity:1;vector-effect:none;fill:none;fill-opacity:1;fill-rule:evenodd;stroke:#000000;stroke-width:1;stroke-linecap:round;stroke-linejoin:round;stroke-miterlimit:4;stroke-dasharray:none;stroke-dashoffset:0;stroke-opacity:1"
     d="m 127.0165,427.43396 a 10.286611,9.6711143 0 0 1 -10.28661,9.67111 10.286611,9.6711143 0 0 1 -10.28662,-9.67111 10.286611,9.6711143 0 0 1 10.28662,-9.67112 10.286611,9.6711143 0 0 1 10.28661,9.67112 z"
     id="path4962" />
  <path
     style="fill:none;stroke:#000000;stroke-width:1;stroke-linecap:round;stroke-linejoin:round;stroke-miterlimit:4;stroke-dasharray:none;stroke-opacity:1"
     d="m 399.88499,488.3205 c 2.13249,0.075 6.35478,-0.35247 6.57763,-4.25458 0.21119,-3.69857 -2.90407,-5.15246 -2.83768,-8.56995 0.0448,-2.29975 1.34901,-4.489 2.59332,-6.47333 -1.02923,-1.23721 -2.44306,-2.61433 -3.3821,-3.88743 -1.44077,1.23047 -2.61583,1.72643 -3.8993,1.80188 -1.8681,0.10975 -3.27415,-0.7891 -5.13765,-2.3383 -1.96973,1.4405 -3.37581,2.44805 -5.2439,2.3383 -1.28348,-0.0755 -2.08666,-0.57141 -3.52742,-1.80188 -0.99217,1.59912 -2.45914,3.24797 -3.54147,4.26782 1.24428,1.98433 2.33613,3.79319 2.38078,6.09294 0.0665,3.41749 -3.04885,4.87138 -2.83765,8.56995 0.22287,3.90211 4.44516,4.32946 6.57764,4.25458 2.22372,-0.078 4.25757,0.37608 6.13891,1.60885 1.88131,-1.23277 3.91516,-1.68693 6.13889,-1.60885 z"
     id="path14359-1-7-5-3-0-73-1-9-8-5-7-6-8-2-1"
     inkscape:connector-curvature="0"
     sodipodi:nodetypes="sssccscsccssscs" />
  <g
     id="g941"
     sodipodi:insensitive="true">
    <text
       id="text13709-3"
       y="977.03912"
       x="622.4386"
       style="font-style:normal;font-variant:normal;font-weight:normal;font-stretch:normal;font-size:18.66666603px;line-height:6.66666651px;font-family:Arial;-inkscape-font-specification:Arial;text-align:start;letter-spacing:0px;word-spacing:0px;text-anchor:start;fill:#000000;fill-opacity:1;stroke:none"
       xml:space="preserve"><tspan
         y="977.03912"
         x="622.4386"
         id="tspan13707-7"
         sodipodi:role="line">Meters</tspan></text>
    <text
       id="text13709-5-5"
       y="858.29095"
       x="649.13464"
       style="font-style:normal;font-variant:normal;font-weight:normal;font-stretch:normal;font-size:18.66666603px;line-height:6.66666651px;font-family:Arial;-inkscape-font-specification:Arial;text-align:start;letter-spacing:0px;word-spacing:0px;text-anchor:start;fill:#000000;fill-opacity:1;stroke:none"
       xml:space="preserve"><tspan
         y="858.29095"
         x="649.13464"
         id="tspan13707-8-7"
         sodipodi:role="line">Miles</tspan></text>
    <text
       id="text13769-2"
       y="977.10822"
       x="565.21881"
       style="font-style:normal;font-variant:normal;font-weight:normal;font-stretch:normal;font-size:18.66666603px;line-height:6.66666651px;font-family:Arial;-inkscape-font-specification:Arial;text-align:start;letter-spacing:0px;word-spacing:0px;text-anchor:start;fill:#000000;fill-opacity:1;stroke:none"
       xml:space="preserve"><tspan
         y="977.10822"
         x="565.21881"
         id="tspan13767-9"
         sodipodi:role="line">8000</tspan></text>
    <text
       id="text13859"
       y="22.794085"
       x="192.06854"
       style="font-style:normal;font-variant:normal;font-weight:normal;font-stretch:normal;font-size:17.33333397px;line-height:23px;font-family:Arial;-inkscape-font-specification:Arial;text-align:start;letter-spacing:1.10000002px;word-spacing:0px;text-anchor:start;fill:#000000;fill-opacity:1;stroke:none"
       xml:space="preserve"><tspan
         id="tspan14459"
         y="22.794085"
         x="192.06854"
         sodipodi:role="line">Triangular Kidneyshell, Coosa Moccasinshell,</tspan><tspan
         id="tspan18994"
         y="45.794083"
         x="192.06854"
         sodipodi:role="line">Southern Pigtoe, Fine-lined Pocketbook</tspan></text>
    <text
       id="text13859-1"
       y="28.90896"
       x="91.677582"
       style="font-style:normal;font-variant:normal;font-weight:normal;font-stretch:normal;font-size:24px;line-height:21.66666603px;font-family:Arial;-inkscape-font-specification:Arial;text-align:start;letter-spacing:0.60000002px;word-spacing:0px;text-anchor:start;fill:#000000;fill-opacity:1;stroke:none"
       xml:space="preserve"><tspan
         id="tspan13861-4"
         y="28.90896"
         x="91.677582"
         sodipodi:role="line">Unit 22:</tspan></text>
    <text
       id="text13753-4"
       y="858.38934"
       x="482.89343"
       style="font-style:normal;font-variant:normal;font-weight:normal;font-stretch:normal;font-size:18.66666603px;line-height:6.66666651px;font-family:Arial;-inkscape-font-specification:Arial;text-align:start;letter-spacing:0px;word-spacing:0px;text-anchor:start;fill:#000000;fill-opacity:1;stroke:none"
       xml:space="preserve"><tspan
         y="858.38934"
         x="482.89343"
         id="tspan13751-8"
         sodipodi:role="line">3</tspan></text>
    <text
       id="text13761-0-55"
       y="858.76709"
       x="342.35086"
       style="font-style:normal;font-variant:normal;font-weight:normal;font-stretch:normal;font-size:18.66666603px;line-height:6.66666651px;font-family:Arial;-inkscape-font-specification:Arial;text-align:start;letter-spacing:0px;word-spacing:0px;text-anchor:start;fill:#000000;fill-opacity:1;stroke:none"
       xml:space="preserve"><tspan
         y="858.76709"
         x="342.35086"
         id="tspan13759-5-5"
         sodipodi:role="line">0</tspan></text>
    <text
       id="text13753-5-2-4"
       y="858.92535"
       x="625.20782"
       style="font-style:normal;font-variant:normal;font-weight:normal;font-stretch:normal;font-size:18.66666603px;line-height:6.66666651px;font-family:Arial;-inkscape-font-specification:Arial;text-align:start;letter-spacing:0px;word-spacing:0px;text-anchor:start;fill:#000000;fill-opacity:1;stroke:none"
       xml:space="preserve"><tspan
         y="858.92535"
         x="625.20782"
         id="tspan13751-2-2-2"
         sodipodi:role="line">6</tspan></text>
    <text
       id="text13667-6"
       y="861.34729"
       x="77.198524"
       style="font-style:normal;font-variant:normal;font-weight:normal;font-stretch:normal;font-size:16px;line-height:6.66666651px;font-family:Arial;-inkscape-font-specification:Arial;text-align:start;letter-spacing:-0.26999998px;word-spacing:0px;text-anchor:start;fill:#090000;fill-opacity:1;stroke:none"
       xml:space="preserve"><tspan
         y="861.34729"
         x="77.198524"
         id="tspan13665-2"
         sodipodi:role="line">Proposed Critical Habitat</tspan></text>
    <text
       id="text13667-4-5"
       y="880.26758"
       x="76.946938"
       style="font-style:normal;font-variant:normal;font-weight:normal;font-stretch:normal;font-size:16px;line-height:6.66666651px;font-family:Arial;-inkscape-font-specification:Arial;text-align:start;letter-spacing:-0.26999998px;word-spacing:0px;text-anchor:start;fill:#090000;fill-opacity:1;stroke:none"
       xml:space="preserve"><tspan
         y="880.26758"
         x="76.946938"
         id="tspan13665-5-1"
         sodipodi:role="line">Roads</tspan></text>
    <text
       id="text13667-7-3"
       y="897.00476"
       x="76.598915"
       style="font-style:normal;font-variant:normal;font-weight:normal;font-stretch:normal;font-size:16px;line-height:6.66666651px;font-family:Arial;-inkscape-font-specification:Arial;text-align:start;letter-spacing:-0.26999998px;word-spacing:0px;text-anchor:start;fill:#090000;fill-opacity:1;stroke:none"
       xml:space="preserve"><tspan
         y="897.00476"
         x="76.598915"
         id="tspan13665-9-9"
         sodipodi:role="line">Rivers</tspan></text>
    <text
       id="text13667-8-7"
       y="914.27112"
       x="77.208534"
       style="font-style:normal;font-variant:normal;font-weight:normal;font-stretch:normal;font-size:16px;line-height:6.66666651px;font-family:Arial;-inkscape-font-specification:Arial;text-align:start;letter-spacing:-0.26999998px;word-spacing:0px;text-anchor:start;fill:#090000;fill-opacity:1;stroke:none"
       xml:space="preserve"><tspan
         y="914.27112"
         x="77.208534"
         id="tspan13665-4-3"
         sodipodi:role="line">County Lines</tspan></text>
    <text
       id="text13761-0-2"
       y="977.82788"
       x="347.65323"
       style="font-style:normal;font-variant:normal;font-weight:normal;font-stretch:normal;font-size:18.66666603px;line-height:6.66666651px;font-family:Arial;-inkscape-font-specification:Arial;text-align:start;letter-spacing:0px;word-spacing:0px;text-anchor:start;fill:#000000;fill-opacity:1;stroke:none"
       xml:space="preserve"><tspan
         y="977.82788"
         x="347.65323"
         id="tspan13759-5-9"
         sodipodi:role="line">0</tspan></text>
    <text
       id="text13769-7"
       y="977.58948"
       x="447.6438"
       style="font-style:normal;font-variant:normal;font-weight:normal;font-stretch:normal;font-size:18.66666603px;line-height:6.66666651px;font-family:Arial;-inkscape-font-specification:Arial;text-align:start;letter-spacing:0px;word-spacing:0px;text-anchor:start;fill:#000000;fill-opacity:1;stroke:none"
       xml:space="preserve"><tspan
         y="977.58948"
         x="447.6438"
         id="tspan13767-1"
         sodipodi:role="line">4000</tspan></text>
    <text
       id="text13859-1-5-7-7"
       y="686.37689"
       x="508.14294"
       style="font-style:normal;font-variant:normal;font-weight:normal;font-stretch:normal;font-size:29.33333397px;line-height:21.66666603px;font-family:Arial;-inkscape-font-specification:Arial;text-align:start;letter-spacing:1.10000002px;word-spacing:0px;text-anchor:start;fill:#000000;fill-opacity:1;stroke:none"
       xml:space="preserve"><tspan
         id="tspan13861-4-9-5-2"
         y="686.37689"
         x="508.14294"
         sodipodi:role="line">Clay</tspan></text>
    <text
       id="text13859-1-5-7"
       y="697.25995"
       x="252.04724"
       style="font-style:normal;font-variant:normal;font-weight:normal;font-stretch:normal;font-size:29.33333397px;line-height:21.66666603px;font-family:Arial;-inkscape-font-specification:Arial;text-align:start;letter-spacing:1.20000005px;word-spacing:0px;text-anchor:start;fill:#000000;fill-opacity:1;stroke:none"
       xml:space="preserve"><tspan
         id="tspan13861-4-9-4"
         y="697.25995"
         x="252.04724"
         sodipodi:role="line">Talladega</tspan></text>
    <text
       id="text4945-7-4-4-4-7"
       y="618.69092"
       x="557.39069"
       style="font-style:normal;font-variant:normal;font-weight:normal;font-stretch:normal;font-size:13.33333302px;line-height:6.66666651px;font-family:Arial;-inkscape-font-specification:Arial;text-align:start;letter-spacing:0.2px;word-spacing:0px;text-anchor:start;fill:#000000;fill-opacity:1;stroke:none"
       xml:space="preserve"><tspan
         y="618.69092"
         x="557.39069"
         id="tspan4943-9-1-4-7-1"
         sodipodi:role="line">CHINNABEE LAKE</tspan></text>
    <text
       id="text4945-7-4-4-4-7-3"
       y="234.12924"
       x="374.70508"
       style="font-style:normal;font-variant:normal;font-weight:normal;font-stretch:normal;font-size:13.33333302px;line-height:6.66666651px;font-family:Arial;-inkscape-font-specification:Arial;text-align:start;letter-spacing:0.2px;word-spacing:0px;text-anchor:start;fill:#000000;fill-opacity:1;stroke:none"
       xml:space="preserve"><tspan
         y="234.12924"
         x="374.70508"
         id="tspan4943-9-1-4-7-1-6"
         sodipodi:role="line">CHOCCOLOCCO  CREEK</tspan></text>
    <text
       id="text4945-7-4-4-4-7-3-5"
       y="362.61481"
       x="180.02518"
       style="font-style:normal;font-variant:normal;font-weight:normal;font-stretch:normal;font-size:13.33333302px;line-height:6.66666651px;font-family:Arial;-inkscape-font-specification:Arial;text-align:start;letter-spacing:0.39999998px;word-spacing:0px;text-anchor:start;fill:#000000;fill-opacity:1;stroke:none"
       xml:space="preserve"><tspan
         y="362.61481"
         x="180.02518"
         id="tspan4943-9-1-4-7-1-6-8"
         sodipodi:role="line">CHEAHA  CREEK</tspan></text>
    <text
       id="text4966"
       y="432.92712"
       x="112.22177"
       style="font-style:normal;font-variant:normal;font-weight:normal;font-stretch:normal;font-size:16px;line-height:6.66666651px;font-family:Arial;-inkscape-font-specification:Arial;text-align:start;letter-spacing:0.60000002px;word-spacing:0px;text-anchor:start;fill:#000000;fill-opacity:1;stroke:none"
       xml:space="preserve"><tspan
         y="432.92712"
         x="112.22177"
         id="tspan4964"
         sodipodi:role="line">5</tspan></text>
    <text
       id="text13807-0-7-7-4"
       y="481.57712"
       x="386.07971"
       style="font-style:normal;font-variant:normal;font-weight:normal;font-stretch:normal;font-size:9.33333302px;line-height:6.66666651px;font-family:Arial;-inkscape-font-specification:Arial;text-align:start;letter-spacing:0.5px;word-spacing:0px;text-anchor:start;fill:#000000;fill-opacity:1;stroke:none"
       xml:space="preserve"><tspan
         y="481.57712"
         x="386.07971"
         id="tspan13805-4-5-0-7"
         sodipodi:role="line">281</tspan></text>
  </g>
  <path
     style="fill:none;stroke:#000000;stroke-width:1;stroke-linecap:butt;stroke-linejoin:round;stroke-miterlimit:4;stroke-dasharray:none;stroke-opacity:1"
     d="M 11.576606,7.7740228 11.574606,1005.99"
     id="path14359-1-7-5-3-0-73-1-9-8-5"
     inkscape:connector-curvature="0"
     sodipodi:nodetypes="cc" />
  <path
     style="fill:none;stroke:#000000;stroke-width:1;stroke-linecap:butt;stroke-linejoin:round;stroke-miterlimit:4;stroke-dasharray:none;stroke-opacity:1"
     d="M 759.65013,7.7740228 759.64813,1005.99"
     id="path14359-1-7-5-3-0-73-1-9-8-5-1"
     inkscape:connector-curvature="0"
     sodipodi:nodetypes="cc" />
  <path
     style="fill:none;stroke:#000000;stroke-width:1px;stroke-linecap:round;stroke-linejoin:round;stroke-opacity:1"
     d="m 561.41698,566.29437 0.10807,-6.80832 -0.97262,-0.75649 c 0.32115,-1.28534 -0.56395,-1.37447 -1.18875,-1.99927 -0.37553,-0.37553 0.16657,-0.96815 -0.27017,-1.40489 -0.34174,-0.34173 -0.91974,-0.43342 -1.18876,-0.70245 -0.12834,-0.12833 -0.44707,0.12769 -0.59438,0.054 -0.31462,-0.15731 -0.3787,-0.27064 -0.59438,-0.48631 -0.29939,-0.29939 -1.52045,-0.22363 -1.99927,-0.70245 -0.072,-0.072 -0.30619,0.018 -0.37824,-0.054 -0.044,-0.0441 2.12604,-2.01797 2.48558,-2.37751 1.35636,-1.35636 2.67508,-2.56701 3.83644,-3.72838 0.0913,-0.0913 -0.57779,0.62756 -0.43227,0.91859 0.0701,0.14014 0.76279,0.75016 0.70244,0.81051 -0.25048,0.25049 -0.7729,0.30303 -0.97261,0.70245 -0.14374,0.28748 -0.57665,3.16947 -0.32421,3.67434 0.27775,0.5555 1.24495,0.75864 1.67506,1.18875 0.24453,0.24453 -0.17969,0.93744 0,1.29683 0.20653,0.41306 0.87162,0.60144 1.13473,0.86455 0.10807,0.10807 0,0.43227 0.10807,0.54034 0.38775,0.38775 1.43108,0.43062 1.83716,1.24279 0.5132,1.0264 -0.77065,2.60783 -1.18875,3.02593 -0.18912,0.18912 0.18912,0.9456 0,1.13472 -0.13219,0.13219 -0.50541,0.12716 -0.64841,0.27017 -0.1323,0.1323 -0.32955,0.43762 -0.48631,0.59438 -0.52593,0.52592 -0.30546,2.01583 -0.64842,2.70171 z"
     id="path7170"
     inkscape:connector-curvature="0" />
  <path
     style="fill:none;stroke:#000000;stroke-width:1;stroke-linecap:round;stroke-linejoin:round;stroke-miterlimit:4;stroke-dasharray:none;stroke-opacity:1"
     d="m 610.60737,428.31978 -141.55476,8.36139 -2.98655,133.63854 -39.85291,-1.66998 1.01669,181.72519 -46.92772,-2.69499 -2.03566,49.78139 -102.12309,-0.38587 -0.001,16.86421"
     id="path14359-1-7-5-3-0-73-1-9-8-5-8"
     inkscape:connector-curvature="0"
     sodipodi:nodetypes="ccccccccc" />
  <path
     style="fill:none;stroke:#000000;stroke-width:1;stroke-linecap:round;stroke-linejoin:round;stroke-miterlimit:4;stroke-dasharray:none;stroke-opacity:1"
     d="m 692.20281,351.24463 -81.59544,77.07515 -19.96733,66.71045 -61.63036,-4.26301 -6.33979,38.50763 169.03374,-5.04207"
     id="path14359-1-7-5-3-0-73-1-9-8-5-4"
     inkscape:connector-curvature="0"
     sodipodi:nodetypes="cccccc" />
  <path
     style="fill:none;stroke:#000000;stroke-width:1;stroke-linecap:round;stroke-linejoin:round;stroke-miterlimit:4;stroke-dasharray:none;stroke-opacity:1"
     d="m 171.71631,70.364088 -4.9922,32.555512 65.13046,-3.334638 3.28404,27.242308 458.67813,-0.0329"
     id="path14359-1-7-5-3-0-73-1-9-8-5-80"
     inkscape:connector-curvature="0"
     sodipodi:nodetypes="ccccc" />
  <path
     style="fill:none;stroke:#000000;stroke-width:2;stroke-linecap:round;stroke-linejoin:round;stroke-miterlimit:4;stroke-dasharray:none;stroke-opacity:1"
     d="m 57.73695,302.80236 1.266922,2.49314 c 1.152201,0.76404 1.405937,2.60563 1.995021,3.7838 0.277397,0.55479 0.908906,1.09018 1.268922,1.45019 1.508387,1.50839 1.808811,4.93777 3.353579,5.71015 1.69441,0.84721 4.155076,1.70787 5.438237,2.99103 0.216345,0.21635 1.13666,0.20578 1.450197,0.36255 0.475767,0.23788 6.808197,-0.64486 6.888434,-0.7251 2.200678,-2.20068 5.499238,-1.96438 7.522894,-3.98804 0.921759,-0.92176 0.524984,-2.88155 1.35956,-3.71613 1.328191,-1.32819 1.711943,-4.43106 3.262942,-5.98206 0.653545,-0.65354 1.190865,-1.19086 1.903383,-1.90338 1.213508,-1.21351 4.697016,-0.79961 6.163334,-2.26593 0.451325,-0.45132 2.073885,-0.86497 2.628485,-0.99702 1.90338,-0.45318 2.08301,-0.63282 2.4472,-0.997 1.17799,-1.17798 3.47712,-1.30183 4.80378,-2.62848 1.27898,-1.27898 3.0816,-2.17523 4.35059,-3.44422 0.49853,-0.49853 1.49441,-0.40677 1.99402,-0.90637 0.80581,-0.80581 1.64808,-1.91999 2.35657,-2.62849 0.36383,-0.36382 -0.55466,-1.89255 -0.18127,-2.26593 0.51162,-0.51162 0.75834,-1.15414 1.08764,-1.81274 0.47452,-0.94904 -0.0574,-2.42302 0.45319,-3.44422 1.67389,-3.34779 -0.76109,-9.33564 4.35059,-9.33564 1.06123,-0.20755 1.87737,-0.62146 2.80975,-1.08765 2.70798,-1.75101 5.8981,-3.6932 9.30473,-4.87276 2.91177,-1.0082 6.00613,-1.41041 8.82273,-1.19994 1.63729,-0.0482 4.36512,0.37705 5.07569,1.08765 0.6141,0.6141 2.59864,-0.30175 3.1723,0.27191 0.33955,0.33955 1.12262,0.39752 1.4502,0.7251 2.1424,2.1424 4.68471,4.42701 7.61353,5.89142 0.58645,0.29323 1.31569,-0.0219 1.90339,0.27192 0.33965,0.16982 6.76113,0.39921 6.97907,0.18127 l 4.16931,-4.16931 c 0.48617,-0.48617 1.22309,-0.67927 1.81275,-1.26893 2.22713,-2.22712 3.28819,-3.74138 5.25696,-5.71014 0.31679,-0.31679 -2.89233,-6.51782 -3.35358,-6.97908 -1.39611,-1.3961 -3.62744,-3.71808 -4.89441,-4.98505 -0.68993,-0.68992 0.97218,-2.33174 1.17828,-2.53784 1.36629,-1.36629 5.77683,-2.03227 7.16035,-2.35657 1.44887,-0.33961 4.10705,-3.11999 4.35059,-3.53485 0.47854,-0.62483 0.77382,-0.86447 1.17828,-1.26893 0.14777,-0.14776 0.96826,0.0288 1.26892,-0.27191 1.01897,-1.01896 2.27007,-2.54198 3.44422,-3.71613 0.99172,-0.99172 7.98103,-0.77289 9.51692,-1.54083 1.4174,-0.7087 6.56025,-1.35182 7.61353,-1.63147 2.34462,-0.62251 13.52215,-3.86069 16.13343,-5.16633 1.56859,-0.78429 7.17,-2.72876 8.06672,-3.62549 0.47932,-0.47931 3.42453,-0.98717 4.16932,-1.35956 1.95308,-0.97654 6.35199,-3.74388 8.61054,-2.99103 2.2799,0.12376 15.30534,-0.37491 16.0428,0.36255 0.30459,0.30459 1.75285,-0.12058 2.17529,0.0906 1.07815,0.53907 5.17104,-0.0891 6.52589,0.36255 0.58115,0.19372 6.14058,0.14733 6.7978,-0.18128 0.92488,-0.46244 12.46314,0.0458 12.87049,0.45319 0.26223,0.26223 6.06664,0.76739 7.06971,1.26892 0.17314,0.0866 1.46008,0.26202 1.63147,0.0906 0.3795,-0.3795 1.08598,-0.54216 1.4502,-0.90637 1.55299,-1.553 2.68231,-3.8606 4.16931,-5.3476 0.69267,-0.69267 3.39657,-0.3149 3.8974,-0.81574 0.47786,-0.47786 3.20864,0.0544 3.53486,0.27191 2.9736,1.57801 12.72111,1.32775 14.68324,-0.63438 1.16263,-1.16263 10.92599,-0.68398 11.51093,-1.26892 1.04081,-1.04081 2.86034,-1.68205 3.89741,-2.71912 1.60925,-1.60925 2.6505,-4.1007 3.98804,-5.43824 0.9582,-0.9582 12.13688,-5.61951 13.1424,-5.61951"
     id="path14359-1-7-5-3-0-73-1-9-8-5-46"
     inkscape:connector-curvature="0"
     sodipodi:nodetypes="ccccccccsccsssccscccscccsccssccssccccsscccscscccc" />
  <path
     style="fill:none;stroke:#000000;stroke-width:2;stroke-linecap:round;stroke-linejoin:round;stroke-miterlimit:4;stroke-dasharray:none;stroke-opacity:1"
     d="m 675.24647,558.30983 -0.90233,0.8606 c -0.9078,0.7506 -2.02306,-0.0399 -2.61814,-0.63492 -0.3001,-0.30011 -1.50054,0.30011 -1.80065,0 -0.10913,-0.10913 -1.22719,-1.39195 -1.80065,-0.81848 -0.45038,0.45037 -1.62134,1.27645 -2.70099,0.73663 -0.52354,-0.26177 -4.04065,-0.29728 -4.33794,0 -0.48655,0.48656 -0.49155,1.06448 -0.98217,1.55511 l -5.72936,5.72936 c -0.55675,0.55675 -1.69411,0.30269 -2.20989,0.81847 -0.59625,0.59625 -1.38488,1.22119 -1.8825,1.71881 -0.17734,0.17734 0.17733,0.88669 0,1.06402 -0.1586,0.1586 0.0318,0.42745 -0.0818,0.65479 -0.84125,1.68249 0.48115,2.02633 0.98217,3.02837 0.38914,0.77827 -0.66413,1.79131 -0.0818,2.37359 0.13595,0.13596 1.19709,1.0128 0.90032,1.30957 -1.88021,1.88021 -2.90428,4.6627 -4.09239,7.03892 -1.43545,2.87089 0.49576,3.0237 -2.37359,5.89305 -0.35195,0.35195 -1.36725,0.54877 -1.71881,0.90033 -2.42768,2.42768 -6.2194,-1.71776 -7.44816,-2.94653 -1.05673,-1.05672 -5.12156,0.82252 -5.72936,1.22772 -0.90753,1.46432 -2.05114,1.88736 -2.94661,2.78283 -0.79369,0.79369 -3.7137,0.83375 -4.82903,1.39142 -2.65347,1.32673 -4.90442,2.69452 -6.79338,4.58348 -0.3434,0.3434 -0.90415,0.41306 -1.22772,0.73663 -0.56161,0.56161 -2.83305,0.68641 -3.43761,0.0819 -0.56775,-0.56774 -1.69375,-3.13528 -0.73663,-4.0924 0.38215,-0.38215 1.88228,0.98239 3.02837,-0.16369 0.0202,-0.0202 0.19098,-0.30011 0.0818,-0.40924 -0.69975,-0.69975 -2.156,-0.92828 -2.61914,-1.39142 -1.29355,-1.29355 -3.83641,-3.83641 -5.23827,-5.23826 -1.57345,-1.57345 -1.64455,1.7264 -2.12804,2.20989 -0.37152,0.37152 -0.9822,0.49111 -1.30957,0.81848 -0.18824,0.18825 -0.0714,0.64433 -0.24554,0.81848 -0.63043,0.63043 -2.04512,0.98325 -2.86468,0.1637 -2.87277,-2.96093 -5.25539,-4.66915 -9.65806,-7.61186 -1.17271,-1.17272 -2.90354,-1.02104 -3.9287,-2.0462 -0.69315,-0.69316 -1.25738,-1.66662 -2.0462,-2.45544 -0.64876,-0.64876 -1.5838,-1.01087 -2.12804,-1.55511 -0.61578,-0.61578 -0.92973,-2.00143 -1.55511,-2.20989 -1.51466,-0.44461 -4.34468,4.3311 -4.99268,3.6831 -0.92657,-0.92657 -1.75642,-2.24751 -2.86467,-3.35576 -0.48032,-0.48032 -0.46122,-1.4434 -0.81848,-1.80066 -0.90901,-0.909 -1.56164,-1.64348 -2.53729,-2.61913 -0.68436,-0.68436 -0.85181,-2.07953 -1.55511,-2.78283 -0.83645,-0.83645 -1.79214,-1.54659 -2.61913,-2.37359 -0.89176,-0.89176 -1.20534,-2.79992 -2.49569,-2.40807"
     id="path14359-1-7-5-3-0-73-1-9-8-5-0"
     inkscape:connector-curvature="0"
     sodipodi:nodetypes="cccsccccsssscccscssccscsscsccscscccccssc" />
  <path
     style="fill:none;stroke:#000000;stroke-width:5;stroke-linecap:round;stroke-linejoin:round;stroke-miterlimit:4;stroke-dasharray:none;stroke-opacity:1"
     d="m 552.47356,553.87017 c -1.68019,0.49282 -2.42245,1.45617 -2.94652,3.02838 -0.64728,0.13264 -0.0143,1.89681 -0.32739,2.20989 -0.80333,0.80333 -2.11648,2.5315 -3.27392,3.11022 -0.47319,0.2366 -1.65294,-0.16369 -2.2099,-0.16369 -0.39736,0 -1.41633,0.13878 -1.63695,-0.0819 -0.46331,-0.46331 -2.21157,0.32573 -2.70099,-0.1637 -0.54728,-0.54728 -5.66077,-3.26064 -6.87522,-2.04619 -0.26644,0.26644 -0.42603,0.58972 -0.65479,0.81848 -0.20857,0.20856 0.24555,1.04195 0.24555,1.30956 0,0.93531 0.67819,5.86964 0,6.54784 -0.27528,0.27527 -11.04536,4.25609 -11.54056,4.25609 -0.43814,0 -2.14411,0.96611 -2.61914,0.49109 -1.25654,0.29857 -1.89445,0.0699 -2.29174,-0.3274 -1.78379,-1.78379 -2.15792,-1.38145 -4.09239,-0.73663 -1.2096,0.72897 -2.3785,1.39638 -3.27392,2.2918 -0.60022,0.60021 0.60022,3.00109 0,3.60131 -1.21507,1.21506 -5.20299,-0.19898 -6.22045,0.81847 -1.377,1.37701 -3.32387,2.58725 -4.58348,3.84686 -3.22492,3.22492 -0.0879,2.77075 0.98218,4.91087 0.73661,1.47323 -2.69009,3.42672 -3.35577,4.0924 -0.81729,0.81729 -1.90701,-1.49777 -2.0462,-1.63696 -0.495,-0.495 0.99416,-2.60715 0.49109,-3.11022 -0.26323,-0.26323 -0.33511,-0.74435 -0.65478,-1.06402 -1.17597,-1.17597 -3.01825,-0.98724 -4.66534,-0.1637 -4.81969,2.40985 -6.34583,8.10295 -12.60458,8.10295 -1.16701,0 -4.35582,0.22766 -4.99272,-0.40924 -0.49043,-0.49043 0.34071,-2.4288 0,-3.11022 -0.2633,-0.5266 -0.19374,-1.50331 -0.57294,-1.88251 -0.92293,-0.92293 -4.59669,-0.84135 -5.89305,-0.40924 -1.08118,-0.85596 -6.50779,0.69483 -6.95707,0.24555 -0.59038,-0.59038 -1.58606,-0.76757 -2.12805,-1.30957 -0.54827,-0.54827 0.0871,-2.28646 -0.57294,-2.94653 -0.31928,-0.31928 -0.75395,-0.5084 -0.98217,-0.73663 -0.65437,-0.65436 -3.4123,0.38393 -3.68316,0.65479 -0.51816,0.51816 -1.89677,0.089 -2.53728,0.40924 -2.07619,1.03809 -6.08198,1.44803 -7.69371,-0.1637 -0.88377,-0.88377 0.0499,-3.53353 -0.40924,-4.91088 -0.45652,-1.36955 -0.66272,-5.90098 -1.39141,-6.62968 -0.66648,-0.66647 -1.35267,-1.18897 -1.96435,-1.80065 -2.41484,-2.41484 -3.51444,4.90584 -4.41979,5.8112 -0.17029,0.17029 -0.88536,0.0818 -1.14587,0.0818 -1.85263,0 -1.63696,-0.96863 -1.63696,-2.78283 0,-1.76986 -0.70699,-1.68916 -1.55511,-2.53729 -0.21261,-0.21261 1.12403,-1.59329 1.22772,-1.80065 0.60589,-1.2118 0.40616,-4.00132 0.65478,-4.74718 0.03,-2.83541 -2.49228,-3.6381 -3.84685,-4.99268 -0.90076,-0.90075 -0.86874,-2.42384 -1.63696,-3.19207 -0.86829,-0.86829 -1.1655,-1.98397 -2.0462,-2.86467 -0.39035,-0.39035 -1.53712,-0.88234 -1.88251,-1.22773 -0.53873,-0.53873 -1.45064,1.85989 -1.63695,2.04621 -3.03217,3.03217 -4.34561,1.62929 -5.32395,-1.45856 0.004,-3.41525 0.87181,-10.41362 -0.5691,-12.21005 -0.50653,-0.63151 -1.65789,-0.91079 -2.45544,-1.30957 -0.57803,-0.28901 -4.85262,1.69522 -4.25609,2.29175 0.69728,0.69728 2.68786,-0.8316 3.43761,-0.0819 0.61512,0.61512 -0.59121,1.97348 -0.90033,2.12804 -0.58804,0.29403 -1.03579,1.03579 -1.47326,1.47327 -1.55005,1.55004 -2.44919,2.20989 -5.07457,2.20989 -1.05796,0 -1.79063,-0.39921 -2.29175,-0.90033 -2.79248,-2.79248 3.60718,-6.46012 1.55512,-8.51218 -0.50124,-0.50124 -1.03584,-0.39514 -1.71881,-0.73663 -0.64768,-0.32384 -1.98022,0.16369 -2.70098,0.16369 -0.34211,0 -2.333,0.0413 -2.53729,0.24555 -0.6765,0.6765 -2.26579,2.45942 -2.61913,3.51946 -0.72837,0.60748 -3.87386,2.10109 -4.74718,1.22777 -0.43976,-0.43976 -1.05879,-0.48586 -1.47327,-0.90033 -2.01428,-2.01429 -4.34722,-3.23763 -6.71153,-4.41979 -1.16259,-0.5813 -4.02513,0.1564 -5.15642,-0.40924 -0.57341,-0.2867 -2.94656,-0.28645 -3.51946,0 -0.74444,0.37222 -2.7688,-0.66881 -3.35576,-0.0818 -0.24832,0.24832 -1.1431,-0.003 -1.39142,0.24555 -2.08864,2.08864 -2.87712,1.22772 -6.22044,1.22772 -0.54453,-0.31709 -1.37589,0.25325 -1.8825,-5e-5 -1.25384,-0.62692 -1.81751,-2.3086 -3.02838,-3.51946 -1.17607,-1.17608 -2.69725,-2.20617 -3.765,-3.27392 -0.85387,-0.85387 -2.98413,1.98315 -3.60131,2.29174 -0.52301,0.2615 -6.26809,0.0342 -6.46599,-0.1637 -0.71946,-0.71946 -1.81023,-1.64653 -2.78283,-2.61913 -2.09139,-2.09139 -3.31153,0.70562 -4.74718,-3.60131 -0.2362,-1.12646 -0.002,-2.37808 -0.49109,-3.35576 -0.73329,-1.46659 -2.52477,-3.29894 -1.55511,-5.23827 0.11197,-0.22394 -0.0171,-0.71951 0.1637,-0.90033 0.51853,-0.51853 1.20804,-1.45358 1.71881,-1.96435 0.85404,-0.85404 2.66713,-0.53909 3.43761,-1.30957 0.67897,-0.67897 0.30583,-2.4123 0.73663,-3.27391 0.24568,-0.49136 1.03993,-0.87624 1.39142,-1.22772 0.63549,-0.6355 -0.27267,-7.80268 -0.73664,-8.26664 -1.65426,-1.65427 -4.47309,-2.34505 -5.9749,-3.84686 -0.20325,-0.20326 -0.68803,-0.19695 -0.90032,-0.40924 -0.75298,-0.75297 0.11189,-2.31764 -0.98218,-2.86467 -1.96052,-0.98026 -3.49734,0.20793 -4.50163,-1.80066 -0.17267,-0.34533 1.09257,-2.97127 0.32739,-4.50164 -0.30794,-0.61587 -1.91739,-2.91164 -1.71881,-3.11022 0.75947,-0.75947 2.22512,-0.8337 2.70098,-1.30956 1.88929,-1.88929 1.44538,-1.58119 2.61914,-3.9287 0.12864,-0.2573 0.32921,-1.06038 0.16369,-1.39142 -0.33369,-0.66739 -0.48985,-1.47079 -0.81848,-2.12805 -0.59263,-1.18525 -2.48483,-2.56668 -3.43761,-3.51946 -0.74202,-0.74202 -2.90974,-0.20876 -3.76501,-1.06402 -0.78917,-0.78917 -2.05944,-2.92548 -2.29174,-3.27392 -1.21042,-0.73703 1.38914,-2.78511 0.57294,-3.60131 -0.63897,-0.63896 -1.63269,-1.30529 -2.37359,-2.0462 -0.65484,-0.65484 -2.08017,-0.6069 -2.61914,-1.14587 -0.34546,-0.34546 -2.53855,-0.16433 -3.02837,-0.40924 -1.22641,-0.6132 -1.39579,-1.43452 -2.94653,-2.20989 -0.43726,-0.21863 -1.64213,0.24037 -1.8825,0 -0.30638,-0.30638 -0.97585,-0.11961 -1.39141,-0.32739 -2.64812,-1.32406 -5.06871,1.22185 -6.46599,2.61913 -0.32168,0.32168 -0.90518,0.32982 -1.39141,0.57294 -1.66922,0.83461 -7.97111,-0.95032 -9.24882,0.32739 -0.27844,0.27844 -0.52223,0.93146 -0.81848,1.22772 -0.233,0.233 -3.75947,3.3613 -4.66533,2.45544 -0.93323,-0.93323 -3.42851,-0.39103 -4.0924,-1.71881 -0.40941,-0.81883 -0.43688,-4.77482 -0.57294,-4.91088 -0.48296,-0.48296 -1.97449,-1.5754 -2.20989,-2.0462 -0.66916,-1.33832 0.68173,-4.22914 -0.32739,-5.23826 -1.79977,-1.79977 -10.9482,4.03413 -11.21317,4.82903 -0.747,0.0204 -1.12823,0.23672 -1.63696,0.49108 -1.05075,0.52538 -3.4102,-0.3548 -4.17424,0.40924 -0.59572,0.59572 -3.2703,2.5764 -4.17425,3.02838 -0.41177,0.20588 -2.00242,-0.11993 -2.20989,-0.3274 -0.81974,-0.81973 -7.83706,0.96184 -8.10295,1.22772 -2.06136,2.06137 -3.59785,4.91088 -7.36631,4.91088 -0.31744,0 -1.0318,0.13888 -1.30957,0 -0.81904,-0.40952 -2.03094,-0.14844 -2.70098,-0.81848 -0.59578,-0.59578 -1.42791,-1.16412 -2.20989,-1.55511 -0.42794,-0.21397 -1.24368,0.15572 -1.71881,-0.0819 -1.51665,-0.75832 -3.30863,-1.09873 -4.58348,-2.37359 -1.91394,-1.91394 -2.70656,-4.34909 -3.76501,-6.46599 -0.49008,-0.98015 -0.19276,-2.73004 -0.90033,-3.43761 -0.28871,-0.28871 0.18994,-1.42077 0,-1.80065 -0.57602,-1.15206 -0.48658,-2.69198 -1.06402,-3.84686 -0.5261,-1.0522 0.0123,-2.75813 -0.49109,-3.765 -0.69373,-1.38746 -0.65532,-2.9476 -1.30956,-4.25609 -0.38177,-0.76353 -1.47327,-1.88319 -1.47327,-2.45544 -1.11851,-1.59637 -2.7721,-3.5704 -4.33794,-4.09235 -1.21771,-0.50268 -2.00877,-2.00877 -2.86468,-2.86468 -1.17454,-1.17454 -2.46698,-1.82375 -3.35576,-3.60131 -0.43337,-0.86674 -0.62511,-1.85282 -1.22772,-2.45543 -0.29742,-0.29743 -0.42454,-5.14112 -0.1637,-5.40197 0.17673,-0.17672 -0.48775,-3.76166 -0.57293,-3.84685 -0.40316,-0.40316 -0.88574,-0.80389 -1.30957,-1.22772 -1.80313,-1.80313 -8.76691,-1.30957 -11.9498,-1.30957 -0.7735,0 -2.19562,0.25268 -2.86467,-0.0818 -0.61435,-0.30717 -1.47471,0.12205 -2.0462,-0.1637 -2.131,-1.0655 -5.20475,-3.83568 -7.20262,-4.50164 -3.89653,-2.12978 -7.35454,-4.24436 -9.9036,-6.79342 -0.51998,-0.51998 -0.31809,-1.7002 -0.65479,-2.37359 -0.15427,-0.30854 -0.35567,-1.41668 -0.16369,-1.80065 0.16897,-0.33795 1.39141,-5.21407 1.39141,-5.40196 0,-0.17253 0.21142,-0.55934 0.0819,-0.81848 -0.33292,-0.66585 -0.5309,-1.10384 -1.06402,-1.63696 -0.70264,-0.70264 -2.85726,-0.24925 -3.51946,0.0818 -1.33463,0.66731 -4.71284,0.0884 -6.46599,1.47326 -1.71055,1.3512 -0.57855,4.27563 -4.2561,5.97489 -0.19536,0.0903 -0.89165,-0.44582 -1.14586,-0.57298 -0.60543,-0.30271 -1.44844,-0.11035 -2.0462,-0.40924 -0.88837,-0.44418 -2.00726,-0.79901 -3.02838,-1.30956 -0.91249,-0.45625 -4.47428,-2.18255 -4.66533,-2.37359 -0.87796,-0.87797 -2.50394,-1.78399 -3.68315,-2.37359 -0.38837,-0.19419 -1.6875,0.195 -1.96436,-0.0818 -0.32556,-0.32557 -0.87081,-0.68095 -1.30956,-0.90033 -1.13658,-0.56829 -1.52394,-3.32459 -2.0462,-3.84685 -0.9589,-0.95891 -1.93242,-2.15301 -3.19207,-2.78283 -0.63271,-0.31635 -1.04497,-1.46056 -1.55511,-1.80066 -1.55696,-2.04353 -2.51427,-3.14588 -3.51951,-5.15637 -1.17337,-2.34672 0.88685,-8.85305 -0.90033,-10.64023 -2.4436,-2.4436 -5.83442,-5.34333 -8.43034,-7.93925 -0.31852,-0.31852 -1.14855,-0.24822 -1.47326,-0.57293 -0.985,-0.985 -3.05687,-2.56578 -4.33794,-3.84686 -0.24332,-0.24332 -0.86497,-0.29203 -1.14587,-0.57293 -1.05911,-1.05911 -1.8792,-1.46665 -2.53729,-2.78283 -1.09397,-2.18795 2.48194,-10.56074 1.22772,-14.32339 -0.1077,-0.32309 0.0688,-0.7627 -0.0818,-1.06402 -1.03256,-2.06513 -5.32011,-4.16787 -5.32011,-6.38414 -1.212991,-3.39508 -3.327678,-7.03636 -4.501688,-10.55839 -0.188116,-0.56434 -0.698071,-1.03019 -0.900327,-1.63696 -0.215415,-0.64624 -0.323975,-1.5909 -0.736632,-2.20989 -0.62595,-0.93892 -0.825225,-2.66343 -1.718806,-3.11022 -0.325424,-0.16271 -1.461793,-0.37813 -1.064023,-0.24554"
     id="path7633"
     inkscape:connector-curvature="0"
     sodipodi:nodetypes="ccccsccscscscsccccscsssscsssscscccscsccscsscccccssccscscccssscsscscccscccccscssccccssccccccccsscccsccccscsssscscscsssccscccscsscccscsccccsscccsscccsccscscsscccccccccccssscsccccccccc" />
  <path
     style="fill:none;stroke:#000000;stroke-width:1;stroke-linecap:round;stroke-linejoin:round;stroke-miterlimit:4;stroke-dasharray:none;stroke-opacity:1"
     d="m 158.78146,70.59563 -0.10295,2.234458 1.13077,1.460121 -0.0151,6.679592 -0.85167,1.074777 -0.17889,4.185593 -2.74657,8.178938 -0.14687,58.833681 0.99939,1.75029 0.0956,7.46685 -1.17453,1.51883 0.17694,4.84646 -6.5656,8.66229 -0.75729,2.24045 -10.1381,5.46453 -1.10161,1.70256 -7.25807,3.45605 -6.35156,17.77078 -3.16471,5.84123 -8.76635,10.70376 -5.38562,12.38602 -0.0864,5.75973 -0.92853,2.07713 -0.69966,50.43291 -0.86166,1.3554 0.1376,32.436 -3.04969,14.4023 -0.16087,7.51403 2.99133,27.01517 0.84714,2.04042 -0.1152,8.24977 -5.65273,11.97546 0.330125,4.29505 1.496435,-0.11644 5.48251,12.45624 3.08763,3.68971 m 2.15773,15.20607 4.736,18.20381 -0.13158,6.50815 1.0858,1.19372 -0.0932,4.61137 -1.14044,1.50855 -0.0483,2.38901 c -1.47405,4.70003 -2.29509,10.70611 -4.71515,13.51412 l -0.18726,1.62434 -7.37205,7.44938 0.23384,1.02235 -9.104892,8.50157 -0.844973,1.44776 -3.619154,11.90826 -0.164731,8.0977 1.23782,1.06382 -0.08264,9.93853 -1.377044,2.34317 -10.460096,22.70607 -3.796062,14.97898 0.157789,15.84834 -18.365401,8.07518"
     id="path14359-1-7-5-3-0-73-1-9-8-5-3"
     inkscape:connector-curvature="0"
     sodipodi:nodetypes="cccccccccccccccccccccccccccccccccccccccccccccccccccccccccc" />
  <path
     style="fill:none;stroke:#000000;stroke-width:1;stroke-linecap:round;stroke-linejoin:round;stroke-miterlimit:4;stroke-dasharray:none;stroke-opacity:1"
     d="m 163.87338,70.439065 0.0443,11.086324 -3.18236,11.698827 0.16343,5.638387 -0.80562,1.590267 -0.0778,25.67909 0.88093,1.5902 0.17948,38.48253 -1.76741,4.55966 -7.24665,10.77819 -4.99938,4.43589 -12.6147,7.56796 -2.4972,3.1702 -0.24285,2.06125 -2.41299,4.60701 -2.12811,7.75369 -2.84561,5.57987 -2.27403,1.87559 -3.1163,3.61394 -0.44493,1.51311 -3.16503,3.17614 c -0.82729,3.77676 -2.52701,7.22635 -5.0505,10.36703 l -2.79486,93.53206 -1.91902,19.86082 0.0129,8.60095 1.01791,1.36438 -0.008,6.52223 1.15925,2.57569 0.24797,5.99428 1.51571,6.44012 -0.0579,3.79616 -4.26902,12.83579 -1.51492,2.45384 7.77771,15.23964 0.7798,2.03162 m 3.36011,18.60629 0.50481,2.8715 2.3493,3.14484 2.62343,17.82339 -0.1899,5.95516 -0.67258,1.76735 c -1.01213,7.80408 -3.76608,18.22888 -6.21074,20.59056 l -14.860806,14.98441 -2.775821,5.17302 -0.08599,2.06473 -2.02482,5.12093 -0.156389,3.95209 0.992011,2.07621 0.668713,6.75214 0.05174,3.83246 -14.316388,33.92906 -1.80445,8.38524 -1.66e-4,12.62849 1.113145,0.39755 3.091105,-2.89957 2.25048,-1.21249 6.767584,-6.96971 1.723839,-0.41092 3.294267,-3.82006 2.455426,-1.75786 0.46903,-1.50678 5.00112,-4.6334 0.40291,-1.90065 6.9633,-6.7716 33.05551,-42.71453 8.1559,-8.5686 0.16235,-1.00473 1.33821,-1.39334 1.29717,-0.13501 2.07221,-2.06625 0.45026,-1.77572 11.63854,-13.76743 12.59058,-18.40564 3.02586,-3.05539 15.02931,-30.04836 11.23332,-13.346 c 1.15412,-1.37118 4.12735,-3.06308 7.32191,-4.90748 1.1413,-0.65893 3.21427,-0.8434 4.44263,-1.05926 l 3.37972,-2.24313 125.73582,-67.42827 m 24.68959,-13.04166 52.09678,-27.31896 32.53461,-9.29643 18.89005,-7.57991 c 3.47988,-1.49422 9.10385,-4.83171 12.85138,-9.40815 l 2.59036,-0.37095 36.98239,-23.48634 1.2394,-1.59616 1.39866,-0.40035 25.70633,-15.80023 5.66848,-3.40451 4.29668,-1.92711 2.04281,-1.53095 26.21576,-12.9305 4.37473,-3.27974 3.94672,-1.86441 2.07502,-0.42766 4.96817,-4.80079 0.66446,-3.25963 4.88097,-7.46777 0.78704,-7.08089 1.29163,-1.52622 3.95208,-20.57602 1.05115,-0.9355 1.45839,-11.70056 2.30296,-9.48951 11.02679,-19.15791 3.53613,-3.63318 1.08711,-0.26516 29.53808,-29.222046 0.27179,-1.158147 0.99646,-1.161108 1.10201,-0.280098 0.24619,-1.566971 3.53864,-8.964127"
     id="path14359-1-7-5-3-0-73-1-9-8-5-2"
     inkscape:connector-curvature="0"
     sodipodi:nodetypes="cccccccccccccccccccccccccccccccccccccccccscccccccccccccccccccccccccccccccccsscccccccccccccccccccccccccccccccccccccc" />
  <path
     style="fill:none;stroke:#000000;stroke-width:1;stroke-linecap:round;stroke-linejoin:round;stroke-miterlimit:4;stroke-dasharray:none;stroke-opacity:1"
     d="m 691.81209,525.36794 -2.00249,1.72859 -3.40351,0.18451 -1.17873,-0.92976 -1.22766,-0.14527 -1.78054,-2.22752 -1.49066,0.13128 -1.67157,0.85326 -0.92975,1.14165 -3.80725,2.9197 0.25113,1.24968 -1.90989,2.21064 -0.37524,1.89727 -3.09146,1.47748 -3.60058,0.0255 -4.10049,1.91564 -4.5467,-0.48383 -10.84869,4.93078 -1.39051,0.62613 -7.68942,8.28323 -0.85324,-0.16355 -1.20795,1.18056 -2.51292,-0.29183 -0.97384,0.22329 -1.59125,-0.0429 -0.363,-1.11366 -2.338,-0.0281 -4.62215,0.10636 -0.71108,-0.7992 -1.59465,-0.10024 -5.32617,-4.29355 -3.91025,-1.17489 -1.54188,-0.91287 -1.59999,-0.23573 0.0387,-0.75202 -1.2069,-1.32496 -0.0851,-5.13641 1.19228,-0.55654 0.0348,-3.92667 c -1.48123,-0.77165 -3.33476,-0.30227 -4.30788,-2.76762 l -0.7469,-0.47985 0.27026,-1.60028 1.25623,-0.84373 -0.3147,-0.8864 c 0.12616,-1.64898 1.26865,-2.68816 2.31407,-3.78559 l -2.99368,-0.75653 -0.79254,-0.73635 -1.50986,-0.37764 c -0.0918,0.78567 -0.29532,1.42238 -0.55812,1.98006 -0.35196,0.74688 -0.88167,0.7805 -1.24883,1.98336 l -2.86611,-0.35689 -2.69943,-1.4797 -3.79016,-0.0374 -2.20416,-1.44375 0.0661,-2.52681 2.12013,-1.92915 -0.35222,-0.95881 c -0.70694,0.13793 -1.40142,0.20103 -1.92129,-0.7835 l -2.7851,-0.14988 -0.92225,1.21897 -0.91956,-0.0936 -0.57271,-1.27407 -0.94064,-0.0918 -1.07394,-0.90456 -2.85493,2.26295 -1.0613,-0.11012 c -1.92957,-1.37556 -5.03308,-2.30367 -5.0034,-4.61748 l 0.081,-6.3159 c 0.01,-0.76476 0.95786,-1.16836 0.72892,-1.77913 -0.55396,-1.47789 -2.44299,0.40779 -3.47474,0.23133 l -2.96753,-0.50752 -3.10631,-2.42569 c -0.80133,-0.62575 -1.0263,-1.15989 -0.91339,-2.3659 l -1.0673,-1.48031 -2.21573,0.34361 -1.20707,-1.34381 -2.71101,0.32725 -1.42915,-1.34415 -2.86123,0.32854 c -1.20814,0.13873 -2.05466,-1.28772 -2.99603,-2.08631 -0.95661,-0.81151 -1.7994,-1.82789 -2.36179,-3.34899 l 0.21586,-2.15951 c 0.0698,-0.69808 -0.6135,-0.79025 -1.52216,-1.21462 -0.65644,-0.30657 -1.4305,-1.05976 -2.12324,-1.03929 -1.4609,0.0432 -2.58624,2.16908 -3.99759,2.16633 l -2.00116,-0.004 c -1.46019,-0.0367 -1.92188,-0.90545 -2.25537,-1.88105 l -4.1066,-0.13352 -1.2112,0.93885 -1.7134,0.63264 -2.2146,-0.50023 -1.64227,-1.21027 -5.07033,0.18706 c -1.23311,0.0455 -2.23155,-1.11542 -3.28626,-1.97848 l -4.14697,0.0662 c -1.31128,0.0209 -2.38997,-0.97024 -3.75535,-1.58827 -1.98675,-0.89929 -4.1016,-1.72691 -4.44602,-3.46275 -0.15677,-0.79009 0.33176,-2.11713 -1.43993,-2.05375 l -6.7847,0.2427 -1.07433,1.0895 -3.703,-0.10252 c -0.91692,-0.0254 -1.36413,1.20047 -2.36971,1.19804 -0.9681,-0.002 -1.80283,-0.73599 -2.70712,-1.23218 l -1.06852,-0.58631 -0.0706,-3.57131 1.7872,-2.04339 0.20683,-1.32801 1.58234,-1.81482 -2.20424,-2.33998 -0.79434,0.46201 -1.42757,-0.91478 -0.19823,-1.01273 -4.49221,-3.80245 0.28892,-1.53862 -3.94967,-2.36596 -2.70881,0.0888 -4.37264,0.98284 -1.15023,-0.33812 -1.42459,0.24816 -1.508,0.95542 -2.12631,0.10008 -0.66309,1.31011 0.71187,1.70015 -0.30488,1.73301 -1.16325,1.63586 0.30952,4.80292 -1.12066,1.11235 -1.5072,0.93349 -0.0761,2.80819 0.94787,1.38704 -0.21395,3.03351 -6.86927,14.36099 -1.65724,0.55563 -4.70254,4.44483 -0.43683,1.24368 -1.68293,0.10862 -1.19684,1.017 -0.51998,1.03189 -0.92212,-0.21494 -2.17418,2.01718 -2.19139,0.67059 -1.5734,1.50103 -3.31098,-0.2978 -1.06937,-1.15895 -3.72792,0.028 -0.24996,1.09234 -1.02603,0.25852 -0.41262,-1.27106 -1.88839,-0.26288 -0.48538,-1.82005 -0.9674,-0.18564 -0.46413,0.78334 c -1.25336,-0.72897 -2.20055,-2.37646 -3.79443,-2.08387 -1.57588,-2.83385 -2.76448,-5.59025 -5.21863,-8.59975 l 0.0731,-1.79397 0.72953,-1.71264 0.0732,-3.38399 -2.78403,-0.26728 -2.00079,-1.33669 m -23.92792,-11.58089 c -0.74982,-0.83279 -2.13722,-1.13426 -4.0297,-1.01483 l -1.35436,-0.8555 -29.49788,-0.0906 -1.39417,0.91698 -9.512,0.13544 -3.35541,6.03586 -1.53115,1.62652 -0.088,2.67273 -1.2968,0.72801 0.12109,1.31846 -3.78305,3.47015 -4.6492,-0.0607 -3.21613,-2.17953 -5.07725,-0.0987 -2.41238,-0.97106 -2.00276,0.0834 -1.99561,1.15473 -4.69431,0.11389 -6.74314,1.55604 -10.09401,-0.0988 -6.01374,-2.88664 -3.69945,-6.42667 -5.77464,-3.81754 -0.92523,0.32012 -2.79091,-3.13624 -5.62628,-0.17181 -2.66519,1.28931 -3.19249,0.54781 -1.88867,1.15907 -2.73454,0.2317 -1.68938,0.80202 -2.19964,0.064 -2.64936,1.06905 -11.97637,-0.0143 -8.35743,-1.75805 -6.95231,-3.73414 -27.77713,0.0118 -2.51167,2.71466 -0.21129,1.15992 -9.34879,11.13763 -9.45791,12.45389 -1.54829,1.23448 -0.80196,1.50675 -4.64508,5.41779 -0.95498,0.34557 -1.67077,2.74128 -3.21767,1.98504 0.15051,1.73383 -2.67831,2.95806 -1.1434,0.66929 -1.17956,2.3547 -24.06002,29.63677 -0.16098,1.19305 -5.17256,5.9421 -0.58737,2.18899 -2.05984,0.10283 -2.29879,2.20981 -0.27557,1.49679 -4.43992,4.37168 -1.36702,0.9818 0.0344,1.59102 -5.47658,4.81184 -0.28466,1.71595 -13.553501,13.58551 -1.158503,0.56763 -0.499106,1.22107 -3.081077,0.30821 -6.292594,4.16978 -21.507612,10.64055"
     id="path14359-1-7-5-3-0-73-1-9-8-5-6"
     inkscape:connector-curvature="0"
     sodipodi:nodetypes="ccccccccccccccccccccccccccccccccccccccccccccccccscccccccccccccccccsssscsccccccsscsssscccccccscssssccssscccccccccccccccccccccccccccccccccccccccccccccccccccccccccccccccccccccccccccccccccccccccccccccccccccccccccccccccccccccccccccccc" />
  <path
     style="fill:none;stroke:#000000;stroke-width:1;stroke-linecap:round;stroke-linejoin:round;stroke-miterlimit:4;stroke-dasharray:none;stroke-opacity:1"
     d="m 688.44798,80.814896 -1.72863,5.245894 -3.28021,5.193914 0.2712,1.245658 -32.87097,31.981788 c -2.17048,2.23068 -4.76261,4.69897 -5.77755,6.69204 l -8.75458,17.19164 -0.24525,5.57497 -1.23099,2.86911 -4.54765,18.18056 -0.0109,7.37564 -1.29461,0.83197 -2.84687,13.58772 -6.34322,11.51666 -12.15987,9.81669 -15.29322,8.19491 -15.45482,6.95646 -2.07793,1.97685 -17.64737,8.44727 -5.85152,4.44486 -14.71981,10.72043 -13.73636,7.8194 -12.50606,8.50607 -13.99239,8.30034 -1.93897,2.00829 -11.7344,6.92762 -3.21099,0.4522 -12.06964,5.52593 -25.81496,6.93568 -11.75415,4.37833 -12.86926,6.28131 -6.91964,4.55304 -16.14381,7.38905 -1.58732,2.43938 -15.27835,7.53184 m -21.26429,10.86219 -22.7204,12.49991 -2.43114,1.91769 -103.39346,53.39337 -2.17538,1.62149 -4.62061,2.98304 -1.14079,0.0467 -2.91852,2.9295 -3.28813,2.75269 -7.30623,9.24548 -13.97122,27.98644 2.73721,0.12032 1.98791,1.23577 20.32044,-0.25517 1.33276,1.02082 2.33227,-0.25899 1.36292,0.72864 0.76745,1.90709 0.82846,-0.64286 1.24235,0.13822 1.46231,0.98957 25.93396,-0.0819 1.85372,-1.06965 5.99123,-2.13434 6.93529,-0.0326 3.43039,2.42747 1.04566,0.12866 6.72853,3.29521 3.17359,6.5625 4.06071,2.42299 2.71862,1.2175 6.60662,0.17681 8.81669,-2.95408 8.42596,-0.004 1.54052,1.09544 4.2364,-0.0549 2.11892,0.83295 4.00447,-1.17874 2.29345,-1.62841 7.44408,-12.38926 26.20712,-0.0788 1.57289,-0.8436 6.91827,-0.0208 2.09603,0.83256 4.64297,-0.014 1.59458,-1.17229 6.57347,3.13244 m 20.52003,7.16109 4.29869,5.12914 4.08642,0.95346 2.53718,2.36218 1.59234,3.09059 -1.16678,1.86823 -0.208,2.9069 3.24863,5.43272 3.12539,1.52747 2.20749,1.90866 3.12569,-0.18417 1.65979,-0.71913 0.4084,1.48755 4.2216,-0.56763 4.4999,-2.31898 3.87065,-4.43674 1.67757,-0.35524 4.9151,-5.03555 2.40331,-6.59233 2.22605,-1.98543 0.84593,-3.08719 -1.56814,-2.53991 0.5462,-3.4685 2.56541,-3.81553 -0.091,-8.35444 3.16936,-3.77483 3.33469,-0.2903 1.55459,-1.20149 6.00236,0.1262 0.84029,-0.81647 2.03713,0.41124 2.32577,-1.67016 0.24949,2.19004 2.58567,0.0342 3.04547,3.20192 2.12526,4.12205 2.65928,0.23244 4.62789,2.61711 1.26297,3.64612 -1.38394,2.16423 0.62027,2.85755 2.48925,0.1044 1.46514,-0.93368 3.67808,-0.24366 1.64962,1.36287 3.25752,-0.13372 1.06823,1.00011 1.28093,0.073 1.08157,0.84151 -0.0913,1.21189 2.64817,2.47931 5.6314,-0.0522 5.38805,2.92995 5.04305,-0.54051 1.15377,1.34523 2.2465,0.12883 0.71275,-1.1701 5.06849,-0.16011 1.3672,1.55208 1.48162,0.36268 2.56764,-1.77575 5.02966,-0.006 c 0.94718,1.12708 1.89436,1.54071 2.84154,1.27023 l 1.82245,1.57012 0.96448,2.43366 0.019,3.37545 10.66702,2.18948 5.34888,3.1867 0.0662,1.69804 1.08683,1.69106 6.35473,0.21127 c 1.97213,0.0656 4.47958,3.21968 4.30751,5.18341 -0.10206,1.16477 -2.1434,3.22268 -1.99815,3.72488 l 0.20872,3.60351 2.10351,0.17736 0.62954,-1.68464 4.08237,-0.065 1.99123,1.56941 3.66772,0.0297 c 2.48904,0.0201 5.51901,2.29197 5.64851,4.51308 l 0.12194,2.09157 2.62507,0.83649 3.15524,-0.69187 1.24396,-1.10141 3.5616,-0.0234 c 1.52167,0.25288 2.60927,0.93985 3.57615,1.74752 l 1.57628,0.10054 0.51433,1.49053 0.1108,3.07301 c 0.0259,0.71957 -1.00494,1.20811 -1.43769,1.73971 -0.68571,0.84235 -0.97811,1.63446 -1.59862,2.42312 1.26032,0.95126 2.21862,2.17371 3.1696,3.19576 0.67883,0.72958 1.55956,1.20282 1.60582,2.10585 l 0.14572,2.84481 -1.67995,1.35629 0.53575,4.56848 2.57263,0.114 c 4.10413,1.64282 7.29393,4.05969 10.36796,6.57459 l 6.46499,0.0332 1.25351,1.4225 1.62915,-0.1931 0.67729,-1.25613 h 1.36263 l 3.56726,-4.08252 0.11376,-1.74544 2.61937,-1.04516 1.29119,-1.75133 2.99339,0.0417 4.3464,-3.80894 3.12769,0.25258 1.07327,-1.07343 5.89662,0.098 5.15348,-3.1319 1.83202,-0.23748 1.36016,1.0101 3.24811,-5.93709 2.87397,-3.03004 2.47779,-0.87163 2.11973,-2.42508 6.29273,-0.22806 2.10923,3.71413 2.49788,-2.26259 2.11218,-0.63108"
     id="path14359-1-7-5-3-0-73-1-9-8-5-9"
     inkscape:connector-curvature="0"
     sodipodi:nodetypes="cccccsccccccccccccccccccccccccccccccccccccccccccccccccccccccccccccccccccccccccccccccccccccccccccccccccccccccccccccccccccccccccccccccccccccccccccccccccccssccccccssccccccccsscsscccccccccccccccccccccccccccccc" />
  <path
     style="fill:none;stroke:#000000;stroke-width:3;stroke-linecap:butt;stroke-linejoin:round;stroke-miterlimit:4;stroke-dasharray:none;stroke-opacity:1"
     d="m 160.44994,71.348262 -1.8e-4,0.828338 1.35831,1.811506 -4.7e-4,8.151841 -1.48814,1.358651 -1.4e-4,2.393802 -0.38825,1.229246 m -2.07062,11.516097 -1.6e-4,20.573687 m -1e-4,13.26292 -10e-5,13.71579 m 1.29392,12.93944 -1e-5,7.76365 -1.48804,3.62304 -0.61338,1.17087 -1.47277,0.32462 -0.0482,1.54511 -0.65084,1.13822 -1.27257,1.76464 -1.52382,0.41692 -1.47045,1.92086 m -2.43549,2.88662 -1.93785,1.93219 -1.45582,0.55876 0.0885,1.25693 -0.63154,0.48442 -0.8296,-0.54768 -2.43699,0.91838 -2.73902,2.06884 -2.62441,1.19005 -2.0305,2.25732 m -5.99888,12.53802 -1.12046,2.00386 -1.12023,0.8655 0.21894,2.54778 -1.67483,4.60593 -1.73802,-0.0501 -3.4844,4.06614 m -7.41795,11.60962 -2.21275,5.10121 0.54783,1.30795 -1.37396,2.30137 -0.12949,3.00209 -0.8422,1.18622 0.0581,2.11154 m -0.56219,12.01557 -0.14509,9.96408 0.43404,1.3584 -0.0546,3.75164 m -0.16956,11.64491 -0.14695,10.0925 -1.33635,3.23612 -0.0415,2.84796 m 0.0796,10.67475 0.10563,14.16789 m -0.0431,3.36286 -0.0369,2.87618 -2.9292,12.85017 0.0499,6.87959 0.39287,1.99938 m 1.24467,12.03097 0.7134,6.89576 1.61928,-0.69263 0.14108,2.32192 -1.32655,2.80656 1.27816,1.41427 -0.0906,2.00091 m -1.05213,12.60589 -0.74727,1.13193 -1.19306,0.62883 -2.0959,4.64221 0.21746,1.40095 -1.41234,1.85012 0.0336,1.36516 1.3242,0.55165 0.62141,1.3188 m 6.32304,12.37792 1.79415,2.30492 m 5.24798,24.40916 0.46362,2.15638 -0.0844,1.24632 0.452,2.23392 1.51714,0.10559 0.20765,1.15893 -1.00961,1.78142 0.38319,1.8663 0.89634,1.75785 -6.3e-4,2.31585 m -0.84617,12.37892 -0.24055,1.04926 0.5427,0.96579 -1.00361,0.76801 -0.48704,1.9323 -0.81668,3.24019 0.21383,1.39781 -0.42282,1.01012 -0.87434,0.18017 -0.39871,0.95254 -0.0701,1.8506 -0.93482,1.26341 m -11.78992,12.67971 -4.636714,4.42527 -0.593922,1.92252 -1.182073,1.40007 -1.953368,6.53364 m -0.04463,11.87908 -0.04035,10.73982 -1.625204,3.2341 m -5.09204,13.14972 -0.481319,1.13154 -1.185394,0.18522 0.564634,1.83239 -0.82358,1.77775 -1.289007,0.12559 -0.0013,2.89341 -1.231322,2.82651 -1.115278,-0.83945 -0.789552,3.83127 m -2.054203,12.81267 0.04781,13.89458"
     id="path14359-1-7-5-3-0-73-1-9-8-5-41"
     inkscape:connector-curvature="0"
     sodipodi:nodetypes="cccccccccccccccccccccccccccccccccccccccccccccccccccccccccccccccccccccccccccccccccccccccccccccccccccccccccccccccccccccccc" />
  <path
     style="fill:none;stroke:#000000;stroke-width:3;stroke-linecap:butt;stroke-linejoin:round;stroke-miterlimit:4;stroke-dasharray:none;stroke-opacity:1"
     d="m 687.06705,79.372642 -1.80569,1.957517 0.50278,1.60332 -2.28231,3.234393 0.45418,2.098066 -2.16231,1.77056 -0.22083,1.389644 -31.78191,30.783788 -1.16888,0.57198 -0.67023,0.69182 m -8.77703,12.94336 -3.55976,6.92059 -0.57798,3.28944 -1.10887,2.01514 -0.19678,1.86091 m -1.11964,4.80026 -1.49043,10.77887 -0.92273,1.18667 m -2.87732,12.54365 -1.40501,7.48749 0.69707,1.21147 -0.43839,2.69268 -1.56867,0.17766 -0.36515,2.84863 m -6.66878,13.1115 -4.53734,4.77516 -2.51028,1.75845 -0.9109,0.0854 -0.34365,1.20513 -1.97243,1.64147 -1.98354,-0.8599 -0.69873,1.35399 -0.92461,0.84969 m -12.70034,5.80499 -1.2592,1.6992 -13.29163,6.21077 m -12.24313,5.56125 -14.66079,8.95514 m -13.01811,8.04148 -1.30542,1.2645 -1.15722,1.45991 -1.60363,0.6975 -8.69132,5.32174 -0.61992,1.16241 -0.81053,0.56444 m -12.57327,6.87696 -10.97459,7.18042 -1.97144,0.48088 -1.12265,1.95727 m -13.16939,7.48595 -2.22135,1.16482 -0.43035,1.31447 -6.33475,2.60972 -0.95933,-1.00891 -4.2459,3.15366 m -12.61396,2.81949 -14.44873,3.90945 m -11.86926,3.81774 -1.75692,1.22679 -1.57636,0.56736 -11.00146,5.7742 m -12.75796,6.7916 -3.57159,1.97884 -0.50796,1.49781 -0.96203,0.81985 -0.76512,-1.15407 -0.90845,0.49163 -4.93573,4.09959 -0.71448,-0.55077 -1.91491,2.09119 m -39.29594,18.84493 -13.05729,7.12913 -0.87277,1.15925 -0.99028,0.58921 m -12.29948,6.20938 -3.2003,1.93424 -11.57719,6.1202 m -11.84431,5.8501 -8.29789,4.82803 -2.55243,0.97642 -1.50873,1.51904 -2.3562,1.39619 m -12.00534,5.55747 -2.99566,1.78867 -0.59928,1.41791 -3.13938,1.71346 -1.19525,-0.59723 -6.37778,3.62952 m -13.31229,6.77529 -1.39091,1.40773 -1.57237,0.20417 -1.6489,0.89693 0.39541,0.78726 -4.67006,2.29125 -0.94252,-0.2406 -1.21256,1.38177 -1.07806,-0.21293 -1.0992,0.79887 -0.47201,0.83194 -0.81908,0.48737 m -11.94615,6.73368 -1.76265,1.07636 -2.3228,2.57473 0.16183,1.74822 -4.49001,4.91328 -1.32878,0.54174 -0.0446,1.73245 -1.40918,0.69188 -0.79343,0.94101 m -5.1605,13.5832 -5.36705,10.27315 -1.50564,0.60368 -1.32398,2.63458 0.43008,1.487 -1.79891,2.0692 m -6.17983,9.21689 -9.14153,11.84486 -0.86541,-0.3419 -1.98438,2.64456 m -10.72951,12.49393 -1.21451,1.17809 0.58623,1.10628 -0.99361,1.31718 -2.11512,1.54234 -9.1806,9.64832 m -8.55702,12.35042 -3.46702,3.62941 0.44927,1.03763 -3.53344,3.05722 -0.01,1.28633 -5.14755,5.10588 m -9.3224,12.1561 -6.95144,5.74425 0.85398,1.36146 -7.03961,6.3973 m -10.296249,11.69262 -3.031072,2.73859 -2.184684,0.57842 -1.770471,3.03827 -5.48429,3.25059 -1.147366,-0.67996 -2.511762,1.45126 m -9.482724,5.24423 -9.776245,4.05714"
     id="path14359-1-7-5-3-0-73-1-9-8-5-37"
     inkscape:connector-curvature="0"
     sodipodi:nodetypes="cccccccccccccccccccccccccccccccccccccccccccccccccccccccccccccccccccccccccccccccccccccccccccccccccccccccccccccccccccccccccccccccccccccccccccccccc" />
  <path
     style="fill:none;stroke:#000000;stroke-width:3;stroke-linecap:butt;stroke-linejoin:round;stroke-miterlimit:4;stroke-dasharray:none;stroke-opacity:1"
     d="m 187.87597,467.63833 6.61811,0.0365 m 12.17585,0.0672 11.02639,0.0609 3.63205,2.71924 m 8.27141,1.06973 1.79835,-0.86765 2.97005,-0.002 1.67406,2.51008 1.14157,-0.025 1.29467,-1.24416 0.99037,1.19416 1.15449,-0.0253 0.87941,-1.05165 1.38795,-0.14533 0.82571,-1.21824 m 12.1101,-1.22907 4.41333,-1.82548 6.54172,0.002 1.75132,1.93946 0.9186,-0.28068 1.07369,0.73409 m 11.47367,10.01539 1.10212,0.71639 -0.74493,1.01433 3.52079,2.39225 1.73908,-0.6848 7.03134,0.16899 1.50929,-0.97573 m 11.5311,-1.65031 3.74883,-0.19671 2.1714,1.01686 3.61748,-0.23162 2.44877,1.09375 2.14463,-0.85829 m 7.58846,-5.14032 2.28355,-2.90866 1.3743,0.0592 2.43129,-4.46285 1.97895,-2.1354 2.05416,-0.005 m 11.79461,-0.0275 15.67501,-0.0365 m 11.33706,-0.0264 3.63949,1.61256 m 23.97593,10.90252 1.52125,1.5211 0.29893,0.90854 0.68514,0.75479 1.96936,0.29824 3.52292,3.85021 -0.90012,0.9361 -0.2358,1.89583 m 8.35516,10.21158 0.93618,0.31624 0.55966,1.87881 2.17101,0.0884 1.0132,-1.03385 1.51407,-0.71034 -0.0169,1.80031 2.38389,-0.39744 1.12137,0.98735 1.25786,0.34261 1.77677,-2.15911 1.03131,-0.65168 m 12.65563,-9.40366 1.9234,-0.97007 -0.0417,-1.12829 1.07888,-2.31198 1.13923,-1.22378 -0.73457,-1.03538 1.11709,-2.78936 1.99436,-1.38559 1.1446,-3.00956 m -1.67651,-3.53963 0.30421,-3.56249 3.12519,-3.73283 -0.24056,-6.8878 m 8.91879,-4.82897 1.89827,-0.0878 1.67015,-0.3126 5.70298,-0.0944 0.77056,0.94055 2.20787,1.90027 -0.0754,1.71198 1.13223,0.42495 m 1.29824,1.15023 1.44349,1.55027 2.43526,-0.0365 -0.38079,1.3581 1.06906,0.51517 1.06036,-0.24384 1.9783,2.19972 -0.45737,2.97315 0.22954,0.997 -2.66363,3.06348 m 9.27812,0.13519 2.8497,-0.21569 1.74039,1.24772 2.17216,-0.31627 1.28895,1.36298 1.23585,-0.0935 0.18347,1.70701 2.794,2.84171 m 12.83991,3.40773 3.79275,-0.68953 1.08758,1.44067 1.83986,0.70106 1.88924,-1.01238 1.13511,-1.29478 3.57623,-0.23728 1.60451,1.21727 m 12.18096,2.81829 1.35661,1.33134 0.48594,2.70013 0.67581,0.6361 1.00115,1.86013 3.38333,-0.2512 1.48315,1.31667 3.31519,-0.0111 m 10.20912,6.77883 0.83383,0.79867 1.80272,-1.3194 1.23703,0.14301 2.87507,2.90466 -1.38848,1.09382 -0.41814,0.98262 -0.0255,4.9494 1.36822,0.15052 -0.1582,2.40599 2.45733,0.9569 2.58622,-1.43388 0.22287,-1.09172 1.22449,-0.0682 0.52844,1.78693 0.91839,0.10525 1.07535,0.52238 0.82366,-0.87017 1.12255,-0.16962 m 5.87054,6.07131 1.44214,0.79242 1.45369,-0.52096 1.53416,0.66177 0.75587,2.32112 1.7691,0.23392 1.7375,-2.94138 1.7577,-0.66849 m 4.03842,7.64895 -0.25079,3.04474 0.81221,0.16193 0.3934,1.66155 1.77303,1.29654 1.36054,0.20854 0.0935,2.559 -1.43747,2.23117 0.0288,2.69657 m 10.84189,7.33473 1.49271,1.29622 0.15719,0.81044 0.84538,0.18366 1.35638,0.60435 1.42996,-0.52137 4.79736,-0.1743 1.37417,1.57605 3.02402,-0.3009 m 12.6219,-9.93291 3.50568,-3.23235 2.16183,-0.15888 1.00735,0.71954 3.8117,-1.95043 3.66273,0.22747 m 10.70475,-6.19501 1.9477,-3.16022 1.35417,-1.65194 1.34723,0.79734 0.9,-0.64561 -0.063,-1.25381 1.6757,-0.54575 0.46944,-0.95303 2.51413,-1.01735 1.73603,-0.024 1.1478,1.46465 -0.8738,0.77722 0.71084,0.6864 2.76375,0.3169 2.49624,-1.16587"
     id="path14359-1-7-5-3-0-73-1-9-8-5-88"
     inkscape:connector-curvature="0"
     sodipodi:nodetypes="cccccccccccccccccccccccccccccccccccccccccccccccccccccccccccccccccccccccccccccccccccccccccccccccccccccccccccccccccccccccccccccccccccccccccccccccccccccccccccccccccccccccccccccccccccccccccc" />
</svg>
