<?xml version="1.0" encoding="UTF-8" standalone="no"?>
<svg
   xmlns:dc="http://purl.org/dc/elements/1.1/"
   xmlns:cc="http://creativecommons.org/ns#"
   xmlns:rdf="http://www.w3.org/1999/02/22-rdf-syntax-ns#"
   xmlns:svg="http://www.w3.org/2000/svg"
   xmlns="http://www.w3.org/2000/svg"
   xmlns:sodipodi="http://sodipodi.sourceforge.net/DTD/sodipodi-0.dtd"
   xmlns:inkscape="http://www.inkscape.org/namespaces/inkscape"
   inkscape:version="1.0 (4035a4f, 2020-05-01)"
   sodipodi:docname="er02jy03.007.svg"
   viewBox="0 0 220.8 611.84003"
   height="6.3733335in"
   width="2.3in"
   id="svg833"
   version="1.1">
  <metadata
     id="metadata839">
    <rdf:RDF>
      <cc:Work
         rdf:about="">
        <dc:format>image/svg+xml</dc:format>
        <dc:type
           rdf:resource="http://purl.org/dc/dcmitype/StillImage" />
        <dc:title></dc:title>
      </cc:Work>
    </rdf:RDF>
  </metadata>
  <defs
     id="defs837">
    <rect
       id="rect1175"
       height="24.264707"
       width="140.08824"
       y="425.11766"
       x="253.64707" />
  </defs>
  <sodipodi:namedview
     inkscape:current-layer="g841"
     inkscape:window-maximized="0"
     inkscape:window-y="23"
     inkscape:window-x="4"
     inkscape:cy="516.85334"
     inkscape:cx="42.017685"
     inkscape:zoom="1.449059"
     units="in"
     inkscape:document-units="in"
     inkscape:guide-bbox="true"
     showguides="true"
     showgrid="false"
     id="namedview835"
     inkscape:window-height="751"
     inkscape:window-width="1280"
     inkscape:pageshadow="2"
     inkscape:pageopacity="0"
     guidetolerance="10"
     gridtolerance="10"
     objecttolerance="10"
     borderopacity="1"
     bordercolor="#666666"
     pagecolor="#ffffff"
     inkscape:document-rotation="0">
    <sodipodi:guide
       id="guide845"
       orientation="1,0"
       position="6.3762611,471.56228" />
  </sodipodi:namedview>
  <g
     id="g841"
     inkscape:label="Image"
     inkscape:groupmode="layer">
    <rect
       y="4.6372809"
       x="5.7966013"
       height="600.52789"
       width="212.15559"
       id="rect847"
       style="fill:none;stroke:#000000;stroke-width:1.88976;stroke-linecap:round;stroke-miterlimit:4;stroke-dasharray:none" />
    <path
       id="path849"
       d="M 6.0465418,48.493265 H 217.31272"
       style="fill:none;stroke:#000000;stroke-width:1.88976;stroke-linecap:butt;stroke-linejoin:miter;stroke-miterlimit:4;stroke-dasharray:none;stroke-opacity:1" />
    <path
       id="path851"
       d="m 37.367628,48.856057 c 2.418617,0.362793 4.837234,3.144203 4.837234,3.144203 0,0 2.055824,2.418617 2.539547,2.781409 0.483723,0.362793 1.813963,1.572101 2.539548,1.572101 0.725585,0 2.902341,-0.362793 3.506995,0.120931 0.604654,0.483723 3.386063,3.144201 3.386063,3.144201 l 5.320957,2.78141 2.781409,1.45117 0.483723,0.967446 2.781409,0.846516 3.627925,0.846516 0.846516,0.483723 1.813963,-0.604654 1.088377,0.725585 1.209308,-0.120931 0.725585,-0.604654 1.572101,0.725585 c 0,0 -0.241861,1.45117 0,2.055824 0.241862,0.604654 3.748856,4.232579 5.079095,4.958164 1.33024,0.725585 3.386064,1.934894 3.990719,1.813963 0.604654,-0.120931 2.90234,-0.241862 4.111648,1.209308 1.209308,1.45117 2.297686,3.627925 2.90234,4.111649 0.604654,0.483723 0.725585,0 1.330239,0.362792 0.604654,0.362793 2.297686,1.934894 2.297686,1.934894 l 3.506994,0.967447 c 0,0 1.451171,0.362792 1.693031,0.725585 0.24186,0.362792 1.33024,1.330239 2.05582,1.45117 0.72559,0.120931 1.9349,-0.120931 2.66048,0.362792 0.72559,0.483724 2.05582,-0.362792 3.1442,0.120931 1.08838,0.483724 1.9349,1.330239 2.41862,1.45117 0.48372,0.120931 0.96745,-0.483723 1.45117,0.120931 0.48372,0.604654 -0.36279,0.967447 0.36279,1.572101 0.72559,0.604654 1.81396,1.209308 2.29769,1.088377 0.48372,-0.12093 1.69303,-0.846515 1.69303,-0.846515 l 0.12093,1.209308 c 0,0 0.84652,0.604654 1.45117,0.967447 0.60465,0.362792 1.81396,0.604654 1.81396,0.604654 0,0 3.26513,1.934893 4.11165,2.297686 0.84652,0.362792 2.41862,1.088377 2.90234,1.088377 0.48372,0 1.20931,0.120931 1.20931,0.120931 0,0 1.5721,1.934893 2.17675,2.055824 0.60466,0.120931 2.66048,1.088376 3.14421,1.209306 0.48372,0.12093 1.69303,0.48372 2.17675,0.48372 0.48372,0 1.33024,0.48373 1.33024,0.48373 0,0 1.81396,0.96744 2.78141,0.96744 0.96744,0 2.29768,0 3.26513,0.24186 0.96745,0.24187 1.20931,1.45117 2.78141,1.69304 1.5721,0.24186 2.90234,0 3.74886,0 0.84651,0 2.17675,0.96744 2.41861,1.5721 0.24186,0.60465 0.84652,1.08837 1.69303,1.20931 0.84652,0.12093 1.9349,0 2.53955,0.72558 0.60466,0.72559 4.59537,3.86979 5.20003,4.23258 0.60465,0.36279 0.96744,-0.36279 1.5721,0.24186 0.60465,0.60466 2.05583,1.69303 2.41862,2.53955 0.3628,0.84651 1.08838,2.17675 2.17676,2.53955 1.08838,0.36279 2.66048,1.08837 3.1442,2.05582 0.48372,0.96745 0.12093,2.17676 0.84652,2.41862 0.72558,0.24186 0.84651,-0.60466 1.69303,-0.12093 0.84651,0.48372 0.48372,1.45117 1.45117,1.69303 0.96745,0.24186 2.78141,0.60465 2.78141,0.60465 0,0 1.5721,0.84652 1.93489,1.33024 0.36279,0.48372 1.93489,1.5721 2.29769,2.17676 0.36279,0.60465 1.69303,0.48372 1.69303,0.48372 l 0.36279,1.5721 c 0,0 1.45117,1.5721 1.5721,2.17676 0.12093,0.60465 0.84652,2.7814 1.9349,3.50699 1.08837,0.72558 3.62792,0.36279 3.62792,0.36279 l 2.90234,1.08838 1.33024,-0.48372 1.5721,-0.24187 c 0,0 0.48372,1.81397 0.12093,2.41862 -0.36279,0.60465 -0.84651,1.20931 -0.24186,2.41862 0.60465,1.20931 0.72558,3.02327 1.20931,3.62792 0.48372,0.60466 2.66048,0.72559 2.66048,0.72559 0,0 1.81396,0.24186 2.05582,0.72558 0.24186,0.48373 1.5721,1.45117 2.05582,1.45117 0.48373,0 1.33024,-0.36279 1.9349,0 0.60465,0.36279 6.40933,4.59537 7.37678,4.83724 0.96745,0.24186 2.66048,0.36279 2.66048,0.36279"
       style="fill:none;stroke:#000000;stroke-width:0.944882;stroke-linecap:butt;stroke-linejoin:miter;stroke-miterlimit:4;stroke-dasharray:none;stroke-opacity:1" />
    <path
       sodipodi:nodetypes="cssssssssssssssssasssasssssssssc"
       id="path853"
       d="m 6.7721269,57.079355 c 0,0 4.9581641,3.265133 5.9256111,3.748856 0.967446,0.483723 16.204732,5.683749 17.172179,6.530265 0.967447,0.846516 10.762844,4.35351 12.093083,5.200026 1.330239,0.846516 2.781409,3.144201 4.35351,3.869786 1.572101,0.725585 12.576808,6.409335 14.269839,7.376782 1.693032,0.967447 6.167473,3.627925 7.25585,3.990718 1.088378,0.362792 15.72101,5.562818 18.62335,6.772126 2.90234,1.209309 22.009411,13.786116 24.065231,14.148906 2.05582,0.3628 5.07909,-1.81396 6.6512,-1.93489 1.5721,-0.12093 3.1442,-0.12093 5.07909,0.96745 1.93489,1.08837 19.46986,7.25585 20.55824,7.49771 1.08838,0.24186 10.15819,-1.81396 11.60936,-1.69303 1.45117,0.12093 3.99072,2.41861 5.80468,3.02327 1.81396,0.60465 6.04655,1.20931 7.25586,1.69303 1.20931,0.48372 2.78141,1.33024 2.66048,2.29768 -0.12093,0.96745 -2.53955,2.41862 -1.81396,3.86979 0.72558,1.45117 2.31513,0.23779 3.38606,-0.12093 0.46657,-0.15628 0.24186,-0.72558 1.20931,-0.84652 0.96745,-0.12093 2.29768,-0.60465 3.86979,1.33024 1.5721,1.9349 11.48842,11.00471 11.85122,13.18146 0.36279,2.17676 0.33799,2.12517 -0.12093,3.02327 -0.32658,0.6391 -1.08838,0.24187 -1.69304,1.33024 -0.60465,1.08838 0.24187,2.41862 1.08838,2.53955 0.84652,0.12093 3.02327,-2.17675 3.507,-2.29768 0.48372,-0.12094 2.05582,0 2.66047,0.84651 0.60466,0.84652 1.81397,2.41862 3.02328,2.29769 1.2093,-0.12093 5.44188,0.84651 6.53026,1.33024 1.08838,0.48372 2.66048,0.24186 4.35351,1.08837 1.69303,0.84652 1.45117,2.78141 3.38606,3.507 1.9349,0.72558 2.53955,0.84651 3.86979,2.41861 1.33024,1.57211 2.78141,2.29769 2.78141,2.29769"
       style="fill:none;stroke:#000000;stroke-width:0.755906;stroke-linecap:butt;stroke-linejoin:miter;stroke-miterlimit:4;stroke-dasharray:none;stroke-opacity:1" />
    <path
       sodipodi:nodetypes="cssssssssssssssssssssssssssssssc"
       style="fill:none;stroke:#000000;stroke-width:0.755906;stroke-linecap:butt;stroke-linejoin:miter;stroke-miterlimit:4;stroke-dasharray:none;stroke-opacity:1"
       d="m 6.2884036,58.409595 c 0,0 4.9581644,3.265133 5.9256114,3.748856 0.967446,0.483723 16.204732,5.683749 17.172179,6.530265 0.967447,0.846516 10.762844,4.35351 12.093083,5.200026 1.330239,0.846516 2.781409,3.144201 4.35351,3.869786 1.572101,0.725585 12.576808,6.409335 14.269839,7.376782 1.693032,0.967447 6.167473,3.627925 7.25585,3.990718 1.088378,0.362792 15.72101,5.562818 18.62335,6.772126 2.90234,1.209309 22.024284,13.710116 24.065234,14.148906 2.87359,0.6178 5.97599,-1.81396 7.5481,-1.93489 1.5721,-0.12093 2.2473,-0.12093 4.18219,0.96745 1.93489,1.08837 19.91754,7.3802 21.00592,7.62206 1.08838,0.24186 9.71051,-1.63986 11.16168,-1.51893 1.45117,0.12093 3.99072,2.12016 5.80468,2.72482 1.81396,0.60465 6.00919,1.31588 7.25586,1.69303 0.61241,0.18527 1.84829,0.76343 1.29258,1.30285 -0.81731,0.79335 -2.26597,2.79168 -1.54038,4.24285 0.72558,1.45117 2.44877,1.62425 4.10732,1.29671 0.74111,-0.14636 1.70924,-1.34735 2.77617,-1.51804 0.96274,-0.15401 0.92978,-0.62952 2.50189,1.30537 1.5721,1.9349 10.64573,9.91503 11.15484,12.06228 0.36279,1.53012 0.20091,1.75981 -0.86705,2.45124 -0.75533,0.48901 -1.26248,1.98283 -1.09615,2.84736 0.23524,1.22264 1.28321,2.38884 2.10809,2.61416 1.99058,0.54373 4.04297,-2.00265 4.5267,-2.12358 0.48372,-0.12094 1.03612,-0.1741 1.64077,0.67241 0.60466,0.84652 1.81397,2.41862 3.02328,2.29769 1.2093,-0.12093 5.44188,0.84651 6.53026,1.33024 1.08838,0.48372 2.66048,0.24186 4.35351,1.08837 1.69303,0.84652 1.45117,2.78141 3.38606,3.507 1.9349,0.72558 2.53955,0.84651 3.86979,2.41861 1.33024,1.57211 2.78141,2.29769 2.78141,2.29769"
       id="path855" />
    <path
       sodipodi:nodetypes="cccccccccccccccccccccccccccassccccsccsccsccccccccccc"
       id="path859"
       d="m 127.33875,119.38008 2.3876,0.19897 1.59174,0.19896 2.18863,0.19897 2.58657,1.59173 3.18347,1.98967 1.98967,2.18864 h 2.18863 l 3.5814,0.19896 2.98451,0.99484 1.7907,1.7907 h 2.78553 l 1.7907,1.1938 -0.39793,1.7907 1.7907,3.5814 1.7907,0.5969 1.7907,2.98451 1.7907,1.7907 3.97935,0.5969 1.59173,0.19896 3.18347,2.98451 4.37727,3.97933 1.39277,0.99484 0.39793,1.7907 -1.98966,1.7907 -1.7907,0.5969 -1.39277,0.39793 c 0,0 -1.41429,0.82245 -1.1938,1.39277 0.19281,0.49873 0.5969,0 1.59173,0.19897 0.99484,0.19896 2.3876,0.39793 3.18347,0.19896 0.79587,-0.19896 2.58657,-0.79586 2.58657,-0.79586 l 2.18863,-0.39794 1.1938,-0.5969 2.58657,1.7907 c 0,0 -0.79586,2.58657 0,1.98967 0.79587,-0.5969 1.98967,-1.1938 1.98967,-1.1938 l 1.1938,0.99483 c 0,0 -0.99483,0.99484 0.19897,0.79587 1.1938,-0.19897 1.7907,-0.5969 1.7907,-0.5969 l 2.58657,2.3876 c 0,0 -0.53242,2.06684 0.19896,2.3876 0.69252,0.30372 1.79071,-1.39276 1.79071,-1.39276 l 2.3876,3.5814 0.99483,-0.39793 4.1783,3.38244 2.58657,2.3876 1.59174,-0.19896 1.7907,2.78553 1.98967,0.5969 1.59173,1.7907 3.38244,3.38244 1.7907,0.79587"
       style="fill:none;stroke:#000000;stroke-width:1.13386;stroke-linecap:butt;stroke-linejoin:miter;stroke-miterlimit:4;stroke-dasharray:1.13386, 1.13386000000000009;stroke-dashoffset:0;stroke-opacity:1" />
    <path
       sodipodi:nodetypes="cccccccccccccccccccacccccccccccccccccccccccccccccccccacccccccccccccccccsccccscccccccccccccc"
       id="path863"
       d="m 217.86865,225.82733 -1.59173,-1.39277 -0.99483,-2.58657 -2.98451,-3.97934 -1.7907,-4.57623 -0.39793,-2.78554 -2.9845,-3.78037 h -1.1938 l -2.18864,-1.7907 -1.98967,0.19897 -1.1938,-1.59174 -1.59173,-2.18863 -1.59174,-1.1938 -1.98966,-1.59174 -0.5969,-0.79586 -2.38761,-1.7907 -1.39276,-1.7907 -1.1938,-1.39277 -1.39277,0.5969 c 0,0 -2.5903,1.32091 -2.9845,0.39793 -0.3336,-0.78108 1.98966,-1.59173 1.98966,-1.59173 l 1.1938,-1.39277 -4.1783,-3.78037 h -1.1938 l -3.5814,-2.58657 -3.5814,-1.59173 -1.39277,-2.18864 -2.3876,-1.39276 -0.5969,-1.79071 -3.78037,-2.18863 -0.99484,-1.98967 -6.16798,-2.78553 -3.78037,-1.1938 -2.9845,-4.37728 -1.98967,-0.99484 -2.3876,0.19897 -2.58657,-3.38244 -3.5814,-0.99483 -1.98967,-1.59174 -3.18347,-0.99483 -0.99483,-1.39277 -2.3876,-1.1938 -1.98967,-1.59173 -2.78553,-0.39794 -2.18864,-2.9845 -8.75454,-4.57623 -1.7907,0.19896 -1.39277,-2.3876 -1.59173,-0.19897 -1.39277,-2.18863 -6.36694,-1.39277 -2.3876,-1.39277 -0.79586,-0.5969 c 0,0 -0.76361,2.17831 -1.59174,1.98967 -0.86275,-0.19653 -0.5969,-2.58657 -0.5969,-2.58657 l -1.392764,-0.99483 -2.387602,-1.1938 -1.989668,-0.5969 -1.989668,-0.19897 -1.790701,0.19897 -1.193801,-1.98967 -5.57107,-2.58657 -1.193801,-1.98967 -5.770038,-1.98966 h -1.193801 l -2.586568,-0.79587 -1.591735,-0.79587 -2.387601,-0.5969 -3.780369,-1.7907 -2.785536,-0.39793 -1.591734,0.19896 c 0,0 -2.387602,-0.5969 -3.183469,-0.79586 -0.795867,-0.19897 -7.361771,-1.98967 -7.361771,-1.98967 l -2.188636,0.19896 -0.795867,-2.3876 -2.984502,-2.3876 c 0,0 -1.989668,0.5969 -2.785535,0.5969 -0.795868,0 -3.581403,-1.1938 -3.581403,-1.1938 l -3.382435,-1.39277 -1.989668,-0.5969 -2.387602,0.19897 -1.392767,-1.39277 -1.790702,-0.99483 -1.989668,-1.98967 -2.188634,-1.39277 -6.167971,-0.5969 -1.193801,-1.7907 -4.974171,-0.5969 -1.7907008,-1.98967 -1.9896681,-0.795861 -2.3876016,-2.984502"
       style="fill:none;stroke:#000000;stroke-width:1.13386;stroke-linecap:butt;stroke-linejoin:miter;stroke-miterlimit:4;stroke-dasharray:1.13386, 1.13386000000000009;stroke-dashoffset:0;stroke-opacity:1" />
    <path
       sodipodi:nodetypes="ccccccccccccccccccccccccccccccccccccccccccccccccccccccccccccccccccccccccccccccccccccccccccccccc"
       id="path865"
       d="m 217.66969,295.46571 -0.99484,-1.59174 -0.39793,-2.58657 -1.1938,-1.59173 0.5969,-2.3876 -0.79587,-2.98451 -1.39277,-1.39276 -1.59173,-1.59174 -1.1938,-1.7907 -1.1938,0.79587 -0.19897,-0.79587 -1.1938,-1.98967 -1.1938,-1.7907 -1.98967,-0.79586 0.19897,-2.78554 v -1.98967 l -0.5969,-1.39277 -1.39277,-4.57623 -2.3876,-3.78037 -0.39793,-1.98967 -1.59174,-3.38243 0.19897,-3.18347 -1.7907,-3.78037 -1.98967,-3.38244 -1.1938,-1.39277 -0.5969,-4.37727 -0.99484,-1.7907 -1.7907,-1.39276 -0.39793,-2.98451 -2.58657,-4.97417 -1.1938,-0.99483 -4.37727,-5.77004 -2.9845,-1.1938 -1.1938,-0.39793 -1.59174,0.39793 -1.59173,-3.38243 -1.59174,-0.99484 -1.59173,-1.39277 -2.3876,-0.79586 -3.18347,-6.36694 -0.59691,-1.1938 -1.59174,-0.5969 -4.97417,-5.3721 -4.7752,-5.57107 -2.3876,-0.79587 -2.3876,-0.39794 -4.7752,-2.78553 h -2.98451 l -1.1938,-1.1938 -1.59173,-1.98967 -1.59174,-0.99483 -2.58656,-0.5969 -6.96384,-7.16281 -1.1938,-0.5969 -2.78554,-0.39793 -1.7907,-0.5969 -2.58657,-2.3876 -3.38243,-0.99484 -1.39277,-2.3876 -2.18864,-0.99483 h -1.7907 l -4.1783,-2.98451 -6.366934,-5.37211 -4.178303,-1.59173 -8.356606,-2.78554 -1.645647,0.10975 -0.542987,-1.10458 -3.18347,-1.7907 -1.989668,-0.5969 -4.576236,-1.98967 -1.591735,0.19896 -2.188635,-1.1938 -1.591734,-0.19896 -1.591734,-2.38761 h -7.361772 l -4.178303,-1.1938 -2.387601,-1.1938 -1.392768,-0.79586 -2.785535,-0.79587 -3.382437,-2.18864 -3.780369,0.19897 -2.586568,0.19897 -1.989668,-1.59174 -1.989668,-0.5969 -0.596901,-0.79586 -2.188634,0.39793 -3.183469,-2.9845 -3.979336,0.39793 -5.770037,-3.18347 -2.387602,-0.39793 -3.78037,-2.3876 -2.586568,-0.79587 -1.790701,0.19897 -1.7907014,0.99483 -2.7855353,1.98967"
       style="fill:none;stroke:#000000;stroke-width:1.13386;stroke-linecap:butt;stroke-linejoin:miter;stroke-miterlimit:4;stroke-dasharray:1.13386, 1.13386000000000009;stroke-dashoffset:0;stroke-opacity:1" />
    <path
       sodipodi:nodetypes="ccccccccccccccccccccccccccccccccccccccaccccccccccc"
       id="path867"
       d="m 176.14486,408.84739 0.84414,-4.22072 v -3.0952 l 1.40691,-3.09519 0.84414,-1.40691 v -2.25105 l 0.84415,-1.68829 -0.84415,-2.53244 0.84415,-2.53243 0.84414,-0.56276 1.40691,-1.68829 -0.56276,-1.68829 -0.28138,-1.40691 2.53243,-4.78349 0.28138,-1.68829 -0.84414,-2.25105 -1.40691,-1.96967 1.68829,-2.25105 -0.28138,-5.34625 3.37658,-5.06487 -0.56277,-1.68829 1.12553,-1.68829 -1.12553,-1.96967 -0.84414,-3.93934 -1.68829,-1.12552 1.12552,-1.96968 0.84415,-1.96967 -0.56276,-3.65796 0.28138,-2.53243 -0.28138,-2.53243 1.12552,-3.93935 0.56277,-5.34625 -1.68829,-1.68828 -0.84415,-0.28139 -0.56276,-3.65796 -1.12553,-3.09519 -0.28138,-1.68829 -0.84414,-1.96967 c 0,0 -1.29962,1.0109 -1.68829,0.56276 -0.41225,-0.47532 0.84414,-1.68829 0.84414,-1.68829 l -1.68829,-7.03454 -0.56276,-1.40691 -0.28138,-3.93934 1.68829,-3.09519 0.28138,-2.53244 -0.56276,-0.84414 -0.84415,-0.84415 v -2.25105 l -0.84414,-1.40691 -2.81382,-0.28138"
       style="fill:none;stroke:#000000;stroke-width:1.13386;stroke-linecap:butt;stroke-linejoin:miter;stroke-miterlimit:4;stroke-dasharray:1.13386, 1.13386000000000009;stroke-dashoffset:0;stroke-opacity:1" />
    <path
       id="path871"
       d="m 174.45657,288.13471 0.56276,-2.25105 0.56276,-2.25105 -1.68829,-1.12553 -0.28138,-2.25105 -2.25105,-2.25105 -0.28138,-3.0952 -3.0952,-1.68829 0.28138,-1.68829 1.68829,-1.68829 -1.12552,-2.25105 -3.0952,-3.0952 1.12553,-2.53243 v -1.96967 l -0.56277,-1.40691 0.56277,-2.81382 -1.12553,-1.68829 -0.84415,-5.62763 -1.96968,-0.84414 -2.25105,1.12553 -1.12552,-2.25106 -0.28139,-2.81381 -1.68829,-0.28138 -2.81381,-3.93935 -1.96967,-2.81381 v -2.53244 l -1.96967,-1.4069 -2.25105,-1.12553 -0.56277,-1.40691 -1.96967,-2.81381 -3.37658,-3.37658 -0.84414,-1.96967 -0.84415,-1.68829 -2.25105,-1.96967 -3.0952,-1.96967 -2.25105,0.28138 -4.5021,-1.40691 -1.96967,-0.84414 -3.65796,-5.62763 -1.96967,-0.84415 -1.40691,-3.0952 -1.40691,-0.56276 h -1.68829 l -2.25105,-3.0952 -1.68829,-0.84414 -3.37658,0.28138 -3.93934,-2.81381 -2.25105,-0.84415 -0.84415,-1.68829 -2.25105,-0.84414 -1.406905,-2.53244 -5.909012,-4.5021 -1.969671,-0.28138 -1.688289,-1.96967 -3.939342,-0.28139 -4.502106,-1.4069 h -1.969671 l -5.62763,-1.68829 -3.376579,-2.25105 -8.722828,-2.81382 -2.532434,-3.37658 -1.406907,0.56276 -1.406908,-1.96967 -1.125526,0.56277 -3.095197,-1.40691 -2.532435,-0.84415 -2.813816,1.40691 -5.064868,-2.25105 h -3.095197 l -1.688289,-1.12553 -1.406907,-0.56276 -2.251053,0.28138 -1.406908,-1.96967 -4.220723,-0.28138 -3.095197,0.28138 -3.939341,0.56276 -6.190395,-3.37658 -1.969671,-2.25106 -2.2510522,-0.28138 -3.3765786,1.40691"
       style="fill:none;stroke:#000000;stroke-width:1.13386;stroke-linecap:butt;stroke-linejoin:miter;stroke-miterlimit:4;stroke-dasharray:1.13386, 1.13386000000000009;stroke-dashoffset:0;stroke-opacity:1" />
    <path
       id="path873"
       d="m 129.43551,408.56601 0.56276,-2.25105 2.53244,-0.84414 1.12552,-1.40691 -0.28138,-2.25105 1.12553,-2.25106 -0.56276,-1.68829 1.96967,-3.65796 0.28138,-2.81381 2.53243,-3.65796 v -4.50211 l 1.40691,-0.84414 v -3.0952 l 1.12553,-2.81381 v -4.78349 l 1.4069,-3.93934 -1.96967,-1.40691 v -4.22072 l 2.53244,-4.50211 0.28138,-3.09519 1.12552,-1.68829 -3.09519,-5.62763 -1.68829,-1.68829 0.28138,-1.96967 -1.12553,-4.78349 -1.12552,-1.68829 -0.56277,-1.68829 1.68829,-1.96967 -0.84414,-1.40691 -1.40691,-1.12552 1.40691,-2.25106 1.68829,-1.68829 -1.12553,-2.25105 -0.84414,-1.96967 0.28138,-3.65796 -0.28138,-4.22072 -0.28138,-2.53244 1.4069,-4.22072 -1.4069,-1.40691 -1.12553,-3.65796 1.40691,-3.65796 -1.68829,-4.78348 -0.56277,-2.81382 -1.12552,-1.68829 -0.28138,-3.93934 0.84414,-2.53243 c 0,0 0.28138,-0.84415 -1.12552,-0.84415 -1.40691,0 -3.37658,-0.84414 -3.37658,-0.84414 l 0.84414,-1.96967 -0.84414,-2.53244 0.84414,-3.09519 v -0.84415 l -1.68829,-1.12553"
       style="fill:none;stroke:#000000;stroke-width:1.13386;stroke-linecap:butt;stroke-linejoin:miter;stroke-miterlimit:4;stroke-dasharray:1.13386, 1.13386000000000009;stroke-dashoffset:0;stroke-opacity:1" />
    <path
       id="path875"
       d="m 129.15413,271.25182 0.28138,-1.68829 -1.68829,-2.53243 -1.68829,-1.68829 0.84415,-1.96967 -3.0952,-2.81382 -1.40691,0.28138 -1.96967,-3.93934 0.84415,-1.96967 -1.68829,-1.40691 -0.56277,-2.81381 -1.68829,-2.25106 -1.4069,-1.12552 -1.68829,-5.34625 -4.50211,-0.28138 -1.68829,-0.84415 -1.68829,-1.68829 -1.68829,-5.34625 -1.4069,-1.4069 -2.53244,-0.28139 -2.81381,-3.93934 -0.844144,-1.12552 -5.064868,-3.37658 -2.813815,-2.53244 -5.34625,-3.65796 -1.969672,-0.84414 -6.753157,-3.0952 -1.688289,-0.84414 -2.251052,-1.68829 H 68.93848 l -3.939341,-1.96967 -3.095197,-1.12553 -2.813816,-0.28138 -3.376578,-2.81382 h -4.502105 l -1.969672,-0.84414 -1.969671,-2.25105 -2.532433,-0.56277 -2.532434,-1.96967 -1.969671,-1.12552 h -1.406908 l -1.406908,-1.96967 -1.125526,-1.40691 -1.406907,-0.84415 -3.376579,1.96967 h -2.251052 l -1.406908,0.28139 -2.813816,-1.12553 -1.406907,0.84414 -1.68829,-1.12552 -1.96967,1.40691 -0.281382,-1.40691 -1.688289,-0.28138 -2.532435,-2.53244 -2.532434,0.56277 -4.783486,-2.81382 H 5.9090126"
       style="fill:none;stroke:#000000;stroke-width:1.13386;stroke-linecap:butt;stroke-linejoin:miter;stroke-miterlimit:4;stroke-dasharray:1.13386, 1.13386000000000009;stroke-dashoffset:0;stroke-opacity:1" />
    <path
       id="path877"
       d="m 87.791045,408.28463 1.125526,-3.0952 1.406908,-1.96967 1.969671,-0.56276 1.688289,-3.93934 v -2.53244 l 1.406908,-0.84414 0.844144,-2.25105 1.125526,-0.84415 0.844145,-2.53243 2.532428,-3.0952 -1.12552,-1.96967 -0.562763,-2.25105 0.844144,-2.25105 1.125519,-1.40691 0.28139,-1.96967 0.56276,-2.81382 c 0,0 2.81381,-0.56276 3.37658,-1.68829 0.56276,-1.12552 0.56276,-3.09519 0.56276,-3.09519 l 1.12553,-2.25106 -0.28138,-3.93934 -2.53244,-3.09519 -1.40691,-3.37658 v -3.0952 -1.96967 l -1.12552,-2.53243 -0.56277,-1.96968 0.84415,-4.5021 -2.25105,-1.40691 -2.251053,-2.53243 1.406908,-1.68829 -0.844145,-2.53244 -0.844144,-2.53243 -0.844145,-2.81381 1.125526,-1.96968 0.562763,-3.09519 -0.281381,-1.96967 -0.562763,-2.81382 v -1.40691 l -0.844145,-1.12552 0.844145,-1.68829 1.406908,-6.1904 -1.969671,-1.12552 -0.844145,-1.40691 0.562763,-3.65796 -5.627631,-9.56697 -1.406907,-2.53244 0.562763,-2.53243 -1.406908,-4.78349 1.688289,-3.93934 0.281382,-1.96967 -2.813816,-1.68829 -1.969671,-3.93934 -0.844144,-3.0952 -5.627632,-5.06486 0.562763,-2.81382 -0.281381,-2.25105 -1.406908,-2.25105 -0.844145,-2.81382 -5.064868,-4.22072 -2.532434,-1.12553 -5.346249,-6.75316 -6.471775,-7.03454 -1.68829,-1.68828 -1.688289,-1.96968 -2.532434,-1.12552 h -1.688289 l -3.657961,-2.25105 -4.220723,0.28138 -4.220724,-1.68829 -1.96967,-1.40691 -4.220723,-0.56276 -1.125527,-1.96967 -2.251052,-1.68829 h -3.376579 l -1.96967,0.28138 -5.064868,-1.96967 h -4.220724 -2.532434 l -2.2510523,-0.28138 -2.532434,1.12552"
       style="fill:none;stroke:#000000;stroke-width:1.13386;stroke-linecap:butt;stroke-linejoin:miter;stroke-miterlimit:4;stroke-dasharray:1.13386, 1.13386000000000009;stroke-dashoffset:0;stroke-opacity:1" />
    <path
       id="path879"
       d="m 43.895522,408.00325 0.844145,-1.68829 1.96967,-0.56276 1.406908,-2.25106 2.813817,-2.25105 1.406907,-1.68829 5.064868,-1.96967 1.969671,-0.28138 1.969671,-0.56276 1.688289,-1.68829 1.406908,-1.40691 0.562763,-2.53243"
       style="fill:none;stroke:#000000;stroke-width:1.13386;stroke-linecap:butt;stroke-linejoin:miter;stroke-miterlimit:4;stroke-dasharray:1.13386, 1.13386000000000009;stroke-dashoffset:0;stroke-opacity:1" />
    <path
       id="path881"
       d="m 67.812954,370.29812 -0.562763,-2.25105 -0.844145,-2.81382 0.844145,-1.96967 0.844145,-1.96967 1.125526,-1.96967 -0.562763,-2.25105 c 0,0 1.125526,-0.84414 1.125526,-1.96967 0,-1.12553 1.406908,-8.16007 1.406908,-8.16007 l -1.406908,-2.53243 -0.562763,-3.37658 1.125526,-0.84414 0.562763,-5.06487 0.281382,-1.68829 -0.562763,-2.81382 0.844144,-1.68828 -1.688289,-2.81382 -1.406908,-0.84414 v -3.0952 l -0.844144,-2.53244 -0.281382,-1.4069 0.844145,-1.68829 -0.844145,-1.68829 -0.844145,-3.37658 1.406908,-3.37658 -0.562763,-2.53243 v -2.25106 c 0,0 -0.844145,-0.84414 -0.844145,-2.25105 0,-1.40691 0,-4.5021 0,-4.5021 l -0.844144,-1.96967 -0.562763,-2.25106 -0.281382,-1.4069 -0.844144,-1.68829 v -2.81382 l -0.281382,-4.78348 -0.562763,-3.0952 -1.969671,-2.81382 -0.844145,-0.56276 -0.281381,-2.53243 -2.251052,-2.81382 -4.220724,-3.0952 -1.125526,-0.56276 -0.562763,-1.96967 -1.406908,-1.68829 -0.281381,-5.62763 -2.813817,-5.34625 -4.502104,-3.0952 -1.969671,-0.28138 -4.502105,-2.81381 -4.502104,-2.53244 -1.125527,-1.4069 -3.095197,-1.12553 -2.251052,-0.28138 h -1.406908 l -3.376578,-1.12553 -4.783488,0.56276 -1.688289,-1.4069 -2.813815,-0.28138 -5.0648678,-1.12553"
       style="fill:none;stroke:#000000;stroke-width:1.13386;stroke-linecap:butt;stroke-linejoin:miter;stroke-miterlimit:4;stroke-dasharray:1.13386, 1.13386000000000009;stroke-dashoffset:0;stroke-opacity:1" />
    <path
       sodipodi:nodetypes="cccccaccccccccccccccccccccccccccc"
       id="path883"
       d="m 10.129736,408.28463 0.844144,-1.12553 0.844145,-2.53243 1.125526,-0.84414 1.406908,1.4069 c 0,0 1.589813,1.64181 2.251053,1.12553 0.681589,-0.53217 -0.562764,-2.53243 -0.562764,-2.53243 l -1.125526,-2.25106 2.251053,-0.28138 1.688289,-1.12552 2.251053,1.4069 1.688289,-2.53243 0.562763,-2.53243 1.969671,-4.22073 0.844145,-3.09519 1.125526,-1.96967 2.251052,-0.56277 0.562763,-2.25105 -0.281381,-1.96967 2.813815,-1.40691 1.125526,-1.40691 1.125527,-2.53243 1.125526,-0.56276 1.96967,-1.40691 -0.281381,-4.50211 1.688289,-1.68829 3.095197,-3.37657 1.406908,-1.68829 1.125526,-2.25106 0.281382,-1.4069 -0.562763,-3.37658 -2.532434,-3.0952 1.125526,-1.40691"
       style="fill:none;stroke:#000000;stroke-width:1.13386;stroke-linecap:butt;stroke-linejoin:miter;stroke-miterlimit:4;stroke-dasharray:1.13386, 1.13386000000000009;stroke-dashoffset:0;stroke-opacity:1" />
    <path
       id="path885"
       d="m 44.176903,337.37648 0.281382,-1.40691 1.125526,-1.4069 0.844145,-1.68829 -0.562763,-2.53244 1.969671,-3.37658 -1.125527,-2.25105 -0.562763,-2.81381 -1.688289,-3.37658 c 0,0 0.281382,-1.96967 0.281382,-3.0952 0,-1.12552 0.562763,-3.93934 0.562763,-3.93934 l 2.813815,-3.65796 0.562763,-2.25105 0.562763,-1.68829 -0.844144,-2.25105 v -5.06487 l -1.406908,-1.68829 0.281381,-2.53244 -1.96967,-3.65796 -1.68829,-2.53243 -3.65796,-3.37658 -0.562763,-2.81381 -1.688289,-0.28138 -1.688289,-5.90902 -1.969671,-4.5021 -2.813816,-3.65796 0.281382,-2.25105 -0.281382,-1.40691 -1.406907,-0.84415 -2.813816,0.84415 -7.597301,-4.50211 -1.969671,-0.28138 -3.939343,-1.40691 -2.813815,-1.4069 H 8.7228282 5.9090126"
       style="fill:none;stroke:#000000;stroke-width:1.13386;stroke-linecap:butt;stroke-linejoin:miter;stroke-miterlimit:4;stroke-dasharray:1.13386, 1.13386000000000009;stroke-dashoffset:0;stroke-opacity:1" />
    <path
       id="path887"
       d="m 8.160065,387.18102 1.4069078,-2.53244 1.4069072,-3.93934 1.406908,-2.53243 0.281381,-1.68829 0.844145,-1.68829 -1.125526,-5.06487 1.688289,-2.53243 0.562763,-1.68829 v -2.25106 l 1.125526,-1.96967 0.844146,-1.4069 2.251052,-4.22073 0.844145,-2.81381"
       style="fill:none;stroke:#000000;stroke-width:1.13386;stroke-linecap:butt;stroke-linejoin:miter;stroke-miterlimit:4;stroke-dasharray:1.13386, 1.13386000000000009;stroke-dashoffset:0;stroke-opacity:1" />
    <path
       id="path889"
       d="m 24.480195,328.09089 0.562763,-1.68829 0.562764,-2.81381 -1.969671,-4.22073 0.844144,-1.68829 -0.562763,-2.53243 0.844145,-2.81382 0.562763,-2.81381 -0.281382,-0.84415 3.657961,-3.37657 1.406907,-0.56277 0.844145,-1.68829 0.281381,-2.25105 -1.96967,-1.40691 -0.562763,-2.25105 1.96967,-0.84414 v -1.96967 l -1.96967,-1.40691 -3.095197,0.84414 -1.68829,-0.28138 -4.220723,-5.62763 -0.844145,-2.25105 -0.844144,-2.25105 -2.251054,-3.37658 -2.532433,-2.25106 -0.844145,-1.4069 -1.406908,-3.65796 -1.9696703,-1.68829 -1.4069078,-1.40691 -1.9696708,-0.84415"
       style="fill:none;stroke:#000000;stroke-width:1.13386;stroke-linecap:butt;stroke-linejoin:miter;stroke-miterlimit:4;stroke-dasharray:1.13386, 1.13386000000000009;stroke-dashoffset:0;stroke-opacity:1" />
    <path
       id="path891"
       d="m 5.9090126,345.25516 1.6882893,-3.65796 v -2.81381 L 7.3159204,337.0951 v -1.68829 l 1.1255262,-4.22072 0.5627631,-5.34625 -0.5627631,-2.25105 1.1255262,-2.53244 0.2813816,-1.96967 -0.8441447,-2.25105 1.1255263,-1.40691 -1.4069078,-2.81381 -0.2813816,-1.96967 -0.2813816,-4.50211 -0.2813816,-3.0952 -0.562763,-1.4069 -1.4069078,-1.96968"
       style="fill:none;stroke:#000000;stroke-width:1.13386;stroke-linecap:butt;stroke-linejoin:miter;stroke-miterlimit:4;stroke-dasharray:1.13386, 1.13386000000000009;stroke-dashoffset:0;stroke-opacity:1" />
    <path
       d="m 128.24609,278.48242 v 31.32812"
       style="fill:none;stroke:#000000;stroke-width:1.88976;stroke-linecap:butt;stroke-linejoin:miter;stroke-miterlimit:4;stroke-dasharray:none;stroke-opacity:1"
       id="path957" />
    <path
       d="m 122.91211,264.26367 v 52.57616"
       style="fill:none;stroke:#000000;stroke-width:1.88976;stroke-linecap:butt;stroke-linejoin:miter;stroke-miterlimit:4;stroke-dasharray:none;stroke-opacity:1"
       id="path953" />
    <path
       d="m 117.57812,265.74804 v 49.61523"
       style="fill:none;stroke:#000000;stroke-width:1.88976;stroke-linecap:butt;stroke-linejoin:miter;stroke-miterlimit:4;stroke-dasharray:none;stroke-opacity:1"
       id="path949" />
    <path
       d="m 112.24609,317.1953 v 9.16211"
       style="fill:none;stroke:#000000;stroke-width:1.88976;stroke-linecap:butt;stroke-linejoin:miter;stroke-miterlimit:4;stroke-dasharray:none;stroke-opacity:1"
       id="path945" />
    <path
       d="m 112.24608,267.23241 10e-6,46.65625"
       style="fill:none;stroke:#000000;stroke-width:1.88976;stroke-linecap:butt;stroke-linejoin:miter;stroke-miterlimit:4;stroke-dasharray:none;stroke-opacity:1"
       id="path941" />
    <path
       d="M 106.91211,268.71679 V 326.1914"
       style="fill:none;stroke:#000000;stroke-width:1.88976;stroke-linecap:butt;stroke-linejoin:miter;stroke-miterlimit:4;stroke-dasharray:none;stroke-opacity:1"
       id="path937" />
    <path
       d="m 101.57812,270.20117 v 49.0664"
       style="fill:none;stroke:#000000;stroke-width:1.88976;stroke-linecap:butt;stroke-linejoin:miter;stroke-miterlimit:4;stroke-dasharray:none;stroke-opacity:1"
       id="path933" />
    <path
       style="fill:none;stroke:#000000;stroke-width:1.88976;stroke-linecap:butt;stroke-linejoin:miter;stroke-miterlimit:4;stroke-dasharray:none;stroke-opacity:1"
       d="m 96.795254,271.5332 27.294006,-7.5973 9.56697,33.4844 -8.72282,19.97809 -13.22494,-3.65796 1.96967,12.66217 -9.00421,-0.28138 -3.93934,-8.72283 -1.969665,-12.38079 v -7.87868 l 0.281382,-4.22072 -1.406908,-10.6925 -0.562763,-5.06487 z"
       id="path931" />
    <path
       id="path960"
       d="m 104.11117,268.71938 c 0,0 -8.16006,-12.38078 -9.285587,-13.78769 -1.125526,-1.40691 -3.65796,-3.65796 -3.65796,-3.65796 l -13.224933,8.16006 3.65796,16.60152 11.255263,-3.65797 0.844144,7.03454 -10.411117,1.68829 -1.125527,8.16007 1.969672,5.62763 2.532434,18.85256 0.281381,12.09941 18.00842,0.28138"
       style="fill:none;stroke:#000000;stroke-width:1.88976;stroke-linecap:butt;stroke-linejoin:miter;stroke-miterlimit:4;stroke-dasharray:none;stroke-opacity:1" />
    <path
       style="fill:none;stroke:#000000;stroke-width:1.88976;stroke-linecap:butt;stroke-linejoin:miter;stroke-miterlimit:4;stroke-dasharray:none;stroke-opacity:1"
       d="M 6.0465418,408.94304 H 217.31272"
       id="path983" />
    <rect
       y="420.10263"
       x="19.696709"
       height="14.069077"
       width="24.761576"
       id="rect985"
       style="fill:none;stroke:#000000;stroke-width:1.88976;stroke-linecap:round;stroke-miterlimit:4;stroke-dasharray:none;stroke-dashoffset:0;stroke-opacity:1" />
    <rect
       style="fill:none;stroke:#000000;stroke-width:1.88976;stroke-linecap:round;stroke-miterlimit:4;stroke-dasharray:none;stroke-dashoffset:0;stroke-opacity:1"
       id="rect987"
       width="24.761576"
       height="14.069077"
       x="19.696709"
       y="440.08072" />
    <path
       id="path989"
       d="m 24.198814,440.08075 v 13.50631"
       style="fill:none;stroke:#000000;stroke-width:1.88976;stroke-linecap:butt;stroke-linejoin:miter;stroke-miterlimit:4;stroke-dasharray:none;stroke-opacity:1" />
    <path
       style="fill:none;stroke:#000000;stroke-width:1.88976;stroke-linecap:butt;stroke-linejoin:miter;stroke-miterlimit:4;stroke-dasharray:none;stroke-opacity:1"
       d="m 29.532148,440.08075 v 13.50631"
       id="path991" />
    <path
       id="path993"
       d="m 34.865482,440.08075 v 13.50631"
       style="fill:none;stroke:#000000;stroke-width:1.88976;stroke-linecap:butt;stroke-linejoin:miter;stroke-miterlimit:4;stroke-dasharray:none;stroke-opacity:1" />
    <path
       style="fill:none;stroke:#000000;stroke-width:1.88976;stroke-linecap:butt;stroke-linejoin:miter;stroke-miterlimit:4;stroke-dasharray:none;stroke-opacity:1"
       d="m 40.198816,440.08075 v 13.50631"
       id="path995" />
    <path
       id="path997"
       d="m 17.164275,483.97627 9.848354,-14.91323 9.566973,14.35046 9.848354,-14.06907"
       style="fill:none;stroke:#000000;stroke-width:1.13386;stroke-linecap:butt;stroke-linejoin:miter;stroke-miterlimit:4;stroke-dasharray:1.13386, 1.13386000000000009;stroke-dashoffset:0;stroke-opacity:1" />
    <path
       style="fill:none;stroke:#000000;stroke-width:1.13386;stroke-linecap:butt;stroke-linejoin:miter;stroke-miterlimit:4;stroke-dasharray:none;stroke-dashoffset:0;stroke-opacity:1"
       d="m 17.164275,503.67298 9.848354,-14.91323 9.566973,14.35046 9.848354,-14.06907"
       id="path999" />
    <path
       id="path1001"
       d="m 17.164275,507.04956 9.848354,-14.91323 9.566973,14.35046 9.848354,-14.06907"
       style="fill:none;stroke:#000000;stroke-width:1.13386;stroke-linecap:butt;stroke-linejoin:miter;stroke-miterlimit:4;stroke-dasharray:none;stroke-dashoffset:0;stroke-opacity:1" />
    <path
       id="path1003"
       d="m 17.164275,525.33936 9.848354,-14.91323 9.566973,14.35046 9.848354,-14.06907"
       style="fill:none;stroke:#000000;stroke-width:1.13386;stroke-linecap:butt;stroke-linejoin:miter;stroke-miterlimit:4;stroke-dasharray:none;stroke-dashoffset:0;stroke-opacity:1" />
    <path
       id="path1005"
       d="M 121.32234,604.88436 V 500.42928 h 96.12307"
       style="fill:none;stroke:#000000;stroke-width:1.88976;stroke-linecap:butt;stroke-linejoin:miter;stroke-miterlimit:4;stroke-dasharray:none;stroke-opacity:1" />
    <path
       id="path1007"
       d="m 152.415,599.39742 1.93059,-0.50805 1.32093,-1.11771 0.60966,-1.21932 1.52415,-0.40644 0.40644,-0.91449 0.10161,-1.32093 1.93059,-2.43864 0.71127,-0.60966 0.10161,-2.13381 0.20322,-0.60966 0.71127,-0.50805 1.0161,-1.52415 0.50805,-0.40644 1.21932,-1.52415 3.04831,-0.30483 1.52415,-1.82898 1.62576,-1.11771 0.71127,-1.32093 -0.50805,-1.0161 1.0161,0.10161 0.20322,1.11771 1.0161,0.40644 1.42254,-0.91449 0.40644,-0.81288 0.30483,-0.91449 1.62576,-0.71127 c 0,0 1.21932,-0.91449 1.82898,-1.21932 0.60966,-0.30483 1.72737,-0.60966 2.43864,-0.30483 0.71127,0.30483 2.13381,1.0161 3.25152,0.91449 1.11771,-0.10161 4.36923,-1.11771 5.0805,-1.52415 0.71127,-0.40644 1.62576,-0.81288 2.23542,-1.21932 0.60966,-0.40644 0.50805,-0.60966 1.52415,-0.91449 1.0161,-0.30483 2.13381,-0.10161 2.54025,-0.71127 0.40644,-0.60966 1.93059,-0.30483 2.64186,-1.11771 0.71127,-0.81288 3.65796,-3.45474 3.65796,-3.45474 0,0 0.40644,-1.21932 1.21932,-1.42254 0.81288,-0.20322 1.82898,-0.50805 2.64186,-1.21932 0.81288,-0.71127 1.62576,-1.42254 2.33703,-2.23542 0.71127,-0.81288 1.21932,-0.60966 1.52415,-1.82898 0.30483,-1.21932 1.0161,-2.74347 0.20322,-2.94669 -0.81288,-0.20322 -3.25152,-1.21932 -3.25152,-1.21932 l -2.84508,-1.62576 -2.0322,-1.72737 -1.0161,-1.72737 -0.30483,-0.40644 c -1.42254,-1.11771 -1.62576,-2.94669 -1.62576,-2.94669 0,0 1.0161,-1.82898 0.30483,-2.74347 -0.71127,-0.91449 0,-1.62576 -1.52415,-2.0322 -1.52415,-0.40644 -3.55635,-0.30483 -4.26762,0.10161 -0.71127,0.40644 -1.21932,0.60966 -1.21932,0.60966 0,0 -0.50805,-0.50805 -0.40644,-1.21932 0.10161,-0.71127 0.10161,-4.97889 0.20322,-5.48694 0.10161,-0.50805 0.60966,-1.32093 0.30483,-2.23542 -0.30483,-0.91449 -1.93059,-1.62576 -2.43864,-2.74347 -0.50805,-1.11771 -4.87728,-4.77567 -5.69016,-5.38533 -0.81288,-0.60966 -2.33703,-1.82898 -2.74347,-2.0322 -0.40644,-0.20322 -11.48193,-6.40143 -12.80286,-6.80787 -1.32093,-0.40644 -5.89338,-2.33703 -7.1127,-2.23542 -1.21932,0.10161 -2.64186,0.50805 -3.25152,0 -0.60966,-0.50805 -1.62576,-0.91449 -2.74347,-1.52415 -1.11771,-0.60966 -1.11771,-1.21932 -2.54025,-2.0322 -1.42254,-0.81288 -3.35313,-1.0161 -3.35313,-1.0161 l -0.10161,1.62576 -0.60966,0.71127 0.20322,-1.32093 0.60966,-2.13381 -0.20322,-1.42254 c 0,0 -1.32093,-1.52415 -2.0322,-1.52415 -0.71127,0 -1.21932,0.50805 -1.93059,0.10161 -0.71127,-0.40644 -0.91449,-1.93059 -4.77567,-1.62576 -3.86118,0.30483 -1.93059,8.84007 -1.72737,9.44973 0.20322,0.60966 4.77567,7.01109 4.77567,7.01109 l -0.50805,1.62576 0.10161,1.62576 -1.0161,0.91449 -2.74347,1.82898 -1.32093,3.14991 -1.42254,1.72737 c 0,0 0.40644,1.0161 0,1.11771 -0.40644,0.10161 -2.64186,-0.10161 -3.35313,0.20322 -0.71127,0.30483 -0.71127,2.0322 -1.42254,2.43864 -0.71127,0.40644 0.10161,-0.20322 -0.71127,0.40644 -0.81288,0.60966 -2.33703,0.60966 -2.64186,1.52415 -0.30483,0.91449 -0.20322,1.93059 -0.20322,1.93059 l -0.81288,1.72737 v 1.93059 l 0.71127,1.0161 c 0,0 2.23542,-0.40644 2.33703,0.10161 0.10161,0.50805 -1.11771,2.33703 -1.11771,2.33703 0,0 0.30483,0.81288 0.91449,0.91449 0.60966,0.10161 1.52415,1.72737 1.52415,1.72737 0,0 1.21932,1.11771 1.42254,1.82898 0.20322,0.71127 -0.40644,2.13381 0.10161,2.74347 0.50805,0.60966 0.81288,2.23542 0.71127,2.94669 -0.10161,0.71127 0.71127,2.23542 1.42254,2.64186 0.71127,0.40644 0.91449,-0.81288 0.81288,0.30483 -0.10161,1.11771 -0.30483,3.0483 0.40644,3.96279 0.71127,0.91449 0.60966,1.82898 1.42254,3.14991 0.81288,1.32093 0.10161,5.79177 -0.10161,6.29982 -0.20322,0.50805 -0.81288,1.93059 -0.81288,2.94669 0,1.0161 -0.71127,3.35313 -0.71127,4.0644 0,0.71127 -0.60966,3.75957 -0.20322,4.77567 0.40644,1.0161 1.52415,2.64186 1.72737,3.25152 0.20322,0.60966 -0.60966,1.42254 0.30483,2.0322 0.91449,0.60966 4.0644,1.32093 4.0644,1.32093 0,0 1.62576,0.10161 2.0322,1.0161 0.40644,0.91449 2.33703,2.13381 3.14991,2.33703 0.81288,0.20322 1.42254,-0.50805 2.23542,0.60966 0.81288,1.11771 2.43864,3.14991 2.43864,3.14991"
       style="fill:none;stroke:#000000;stroke-width:1.13386;stroke-linecap:butt;stroke-linejoin:miter;stroke-miterlimit:4;stroke-dasharray:none;stroke-opacity:1" />
    <path
       id="path1009"
       d="m 141.13629,543.91836 0.50805,-1.0161 -0.10161,-0.81288 -2.43864,-0.40644 -0.60966,0.30483 0.50805,1.42254 h 0.71127 z"
       style="fill:none;stroke:#000000;stroke-width:1px;stroke-linecap:butt;stroke-linejoin:miter;stroke-opacity:1" />
    <path
       id="path1011"
       d="m 141.84756,543.00387 0.20322,-1.72737 h 1.32093 l 0.30483,-1.32093 -0.50805,-0.71127 0.10161,-1.62576 -1.21932,-0.30483 -1.21932,-0.30483 -0.91449,1.52415 -1.11771,0.40644 c 0,0 -0.91449,-0.40644 -0.91449,0.50805 0,0.91449 0.50805,2.54025 0.50805,2.54025"
       style="fill:none;stroke:#000000;stroke-width:1.13386;stroke-linecap:butt;stroke-linejoin:miter;stroke-miterlimit:4;stroke-dasharray:none;stroke-opacity:1" />
    <path
       id="path1013"
       d="m 152.31339,520.34484 -0.40644,-1.32093 -1.42254,-1.32093 0.20322,-1.42254 1.93059,0.30483 1.52415,1.82898 0.60966,0.30483 -0.40644,1.93059 -1.32093,0.20322 -1.0161,0.60966 -1.52415,0.20322 -1.11771,-0.50805 -1.21932,-0.40644 0.71127,-1.0161 -0.30483,-0.60966 -0.91449,-0.40644 0.10161,-0.71127 h 1.21932 l 0.81288,1.52415 2.23542,1.62576 z"
       style="fill:none;stroke:#000000;stroke-width:1.13386;stroke-linecap:butt;stroke-linejoin:miter;stroke-miterlimit:4;stroke-dasharray:none;stroke-opacity:1" />
    <path
       id="path1015"
       d="m 175.7848,539.04159 c 0.20322,-0.50805 0.10161,-1.52415 0.10161,-1.52415 l 2.64186,-0.10161 c 0,0 0.50805,-0.40644 0.60966,-0.81288 0.10161,-0.40644 0.10161,-1.21932 0.10161,-1.21932 h -1.21932 c 0,0 -1.21932,0.81288 -1.52415,0.40644 -0.30483,-0.40644 -0.40644,-0.71127 -0.40644,-1.21932 0,-0.50805 -0.10161,-2.74347 -0.10161,-2.74347 l 0.60966,-0.30483 c 0,0 0,0.50805 0.50805,0.60966 0.50805,0.10161 1.42254,0.30483 1.42254,0.30483 l 0.91449,0.81288 2.0322,-0.10161 -0.71127,0.81288 -1.0161,0.60966 -0.71127,0.50805 0.71127,-2.64186 v -2.0322 h -1.42254 v -1.52415 l -0.71127,-1.11771 0.10161,-1.11771 0.60966,0.10161 1.0161,0.71127 1.32093,0.20322 2.0322,1.62576 -0.10161,3.14991 -0.60966,0.60966 0.40644,1.21932 v 2.43864 l 1.0161,0.91449 c 0,0 0,1.62576 -0.50805,1.72737 -0.50805,0.10161 -2.0322,-0.20322 -2.43864,-0.20322 -0.40644,0 -1.93059,-0.10161 -1.93059,-0.10161 0,0 -0.30483,1.21932 -0.71127,1.11771 -0.40644,-0.10161 -1.42254,-0.30483 -1.42254,-0.30483 z"
       style="fill:none;stroke:#000000;stroke-width:1.13386;stroke-linecap:butt;stroke-linejoin:miter;stroke-miterlimit:4;stroke-dasharray:none;stroke-opacity:1" />
    <path
       id="path1017"
       d="m 176.90302,550.21818 0.60966,0.91449 4.97889,-0.10161 0.20322,-0.91449 -1.21932,-1.11771 -0.91449,-0.81288 v -1.72737 l 0.91449,-0.81288 0.91449,0.40644 2.54025,0.71127 v -0.91449 l -0.81288,-0.50805 -1.32093,-1.0161 -1.62576,-1.11771 -1.32093,0.30483 -1.62576,1.93059 -0.91449,1.52415 -0.40644,1.72737 -0.50805,0.91449 -1.21932,-0.71127 -1.0161,-0.50805 -1.42254,1.0161 v 1.32093 l 0.10161,1.11771 -0.20322,1.52415 1.72737,0.20322 h 0.71127 l 0.20322,2.13381 4.36923,3.96279 -0.10161,0.81288 1.52415,0.30483 0.60966,1.11771 0.30483,0.71127 1.0161,-0.60966 1.42254,-2.0322 0.50805,-3.86118 -0.40644,-0.81288 -1.0161,-0.60966 -1.42254,0.60966 -0.50805,1.21932 -0.71127,1.21932 -1.21932,-0.20322 -1.11771,-1.21932 -0.71127,-0.30483 -0.20322,-1.52415 -0.71127,-1.32093 -0.71127,-0.91449 z"
       style="fill:none;stroke:#000000;stroke-width:1.13386;stroke-linecap:butt;stroke-linejoin:miter;stroke-miterlimit:4;stroke-dasharray:none;stroke-opacity:1" />
    <path
       id="path1019"
       d="m 155.86974,577.44966 1.42254,-2.64186 1.82898,-3.0483 4.0644,-3.96279 0.81288,-1.72737 1.21932,-1.11771 0.71128,-0.50805 h 1.32093 l 0.50805,1.11771 0.10161,0.91449 -0.91449,0.81288 -0.71127,1.0161 -0.71127,0.71127 -1.42255,0.81288 -0.10161,1.32093 0.91449,0.50805 c 0,0 0.20322,0.20322 0.20322,0.71127 0,0.50805 0.60967,0.91449 0.60967,0.91449 l 0.71127,-0.91449 1.0161,-0.30483 0.30483,-1.32093 -0.40644,-1.21932 -0.91449,-0.60966 -1.9306,-0.30483 -1.82898,2.13381 -1.21932,1.32093 0.10161,1.0161 -2.94669,3.25152 z"
       style="fill:none;stroke:#000000;stroke-width:1.13386;stroke-linecap:butt;stroke-linejoin:miter;stroke-miterlimit:4;stroke-dasharray:none;stroke-opacity:1" />
    <path
       id="path1021"
       d="m 174.05794,561.49689 c 0,0 -1.11771,0.60966 -1.82898,0.40644 -0.71127,-0.20322 -1.82898,-0.81288 -1.82898,-0.81288 v -1.21932 -1.32093 l 0.50805,-0.10161 1.62576,0.60966 1.32093,1.0161 z"
       style="fill:none;stroke:#000000;stroke-width:1.13386;stroke-linecap:butt;stroke-linejoin:miter;stroke-miterlimit:4;stroke-dasharray:none;stroke-opacity:1" />
    <path
       id="path1023"
       d="m 175.88692,563.83392 0.50805,-0.71127 1.52415,-0.30483 0.71127,-0.60966 0.10161,0.81288 -1.11771,0.91449 z"
       style="fill:none;stroke:#000000;stroke-width:1.13386;stroke-linecap:butt;stroke-linejoin:miter;stroke-miterlimit:4;stroke-dasharray:none;stroke-opacity:1" />
    <path
       id="path1025"
       d="m 175.58209,567.18705 0.81288,-0.40644 1.72737,-1.0161 1.21932,-1.42254 h 0.81288 l 0.20322,0.91449 v 0.91449 l 1.32093,0.91449 0.20322,0.91449 -0.40644,0.81288 -0.40644,0.91449 -0.91449,0.40644 -1.11771,-0.40644 -1.11771,-0.50805 z"
       style="fill:none;stroke:#000000;stroke-width:1.13386;stroke-linecap:butt;stroke-linejoin:miter;stroke-miterlimit:4;stroke-dasharray:none;stroke-opacity:1" />
    <path
       id="path1027"
       d="m 186.04792,565.25646 0.10161,-1.11771 2.33703,-0.10161 0.91449,-0.81288 1.72737,0.50805 0.40644,0.91449 -0.20322,0.60966 -1.0161,0.40644 -0.40644,0.81288 -2.94669,-0.10161 z"
       style="fill:none;stroke:#000000;stroke-width:1.13386;stroke-linecap:butt;stroke-linejoin:miter;stroke-miterlimit:4;stroke-dasharray:none;stroke-opacity:1" />
    <path
       id="path1029"
       d="m 181.57708,574.8078 0.81288,-1.42254 1.62576,0.20322 0.20322,0.50805 1.32093,-0.50805 1.42254,-0.91449 c 0,0 1.32093,0.50805 1.52415,0.10161 0.20322,-0.40644 0.30483,-0.71127 0.30483,-0.71127 l -1.62576,-1.11771 -2.13381,-0.30483 -2.33703,0.20322 -0.81288,0.50805 -2.84508,0.10161 -4.0644,1.72737 v 1.42254 l 0.50805,0.60966 -0.71127,0.71127 -0.71127,0.81288 -1.0161,-0.91449 v -1.21932 l 0.60966,-0.81288 1.0161,0.40644 1.11771,0.81288 1.21932,-0.50805 0.71127,-0.50805 1.62576,0.40644 0.91449,0.71127 z"
       style="fill:none;stroke:#000000;stroke-width:1.13386;stroke-linecap:butt;stroke-linejoin:miter;stroke-miterlimit:4;stroke-dasharray:none;stroke-opacity:1" />
    <path
       id="path1031"
       d="m 145.20069,568.10154 -0.91449,0.10161 -0.20322,-1.93059 1.21932,0.10161 0.20322,1.21932 z"
       style="fill:none;stroke:#000000;stroke-width:1.13386;stroke-linecap:butt;stroke-linejoin:miter;stroke-miterlimit:4;stroke-dasharray:none;stroke-opacity:1" />
    <path
       id="path1033"
       d="m 137.68155,545.54412 0.20322,1.0161 1.0161,0.40644 0.10161,-0.81288 z"
       style="fill:none;stroke:#000000;stroke-width:1.13386;stroke-linecap:butt;stroke-linejoin:miter;stroke-miterlimit:4;stroke-dasharray:none;stroke-opacity:1" />
    <path
       id="path1035"
       d="m 152.11017,512.31765 h -0.71127 l -0.20322,0.50805 0.60966,0.40644 0.71127,0.30483 0.30483,0.81288"
       style="fill:none;stroke:#000000;stroke-width:1.13386;stroke-linecap:butt;stroke-linejoin:miter;stroke-miterlimit:4;stroke-dasharray:none;stroke-opacity:1" />
    <path
       id="path1037"
       d="m 150.89085,524.30763 c 0,-0.10161 1.52415,0.10161 1.52415,0.10161 l -0.10161,1.11771 h -1.0161 z"
       style="fill:none;stroke:#000000;stroke-width:1.13386;stroke-linecap:butt;stroke-linejoin:miter;stroke-miterlimit:4;stroke-dasharray:none;stroke-opacity:1" />
    <path
       id="path1039"
       d="m 159.83253,526.44144 0.10161,-0.71127 0.10161,-0.71127 0.91449,-0.10161 0.20322,0.81288 -0.50805,0.30483 z"
       style="fill:none;stroke:#000000;stroke-width:1.13386;stroke-linecap:butt;stroke-linejoin:miter;stroke-miterlimit:4;stroke-dasharray:none;stroke-opacity:1" />
    <path
       id="path1041"
       d="m 155.26008,525.83178 c 0,-0.91449 1.11771,-0.91449 1.11771,-0.91449 v 0.91449 z"
       style="fill:none;stroke:#000000;stroke-width:1.13386;stroke-linecap:butt;stroke-linejoin:miter;stroke-miterlimit:4;stroke-dasharray:none;stroke-opacity:1" />
    <path
       id="path1043"
       d="m 154.85364,527.55915 c 0.20322,0.40644 0.71127,0.60966 0.71127,0.60966 l 0.30483,-0.71127 z"
       style="fill:none;stroke:#000000;stroke-width:1.13386;stroke-linecap:butt;stroke-linejoin:miter;stroke-miterlimit:4;stroke-dasharray:none;stroke-opacity:1" />
    <path
       id="path1045"
       d="m 154.14237,529.59135 c 0.50805,0.30483 0.71127,0.20322 0.71127,0.20322 l -0.60966,-0.91449 z"
       style="fill:none;stroke:#000000;stroke-width:1.13386;stroke-linecap:butt;stroke-linejoin:miter;stroke-miterlimit:4;stroke-dasharray:none;stroke-opacity:1" />
    <path
       id="path1047"
       d="m 152.415,529.69296 0.20322,0.60966 0.60966,-0.60966 z"
       style="fill:none;stroke:#000000;stroke-width:1.13386;stroke-linecap:butt;stroke-linejoin:miter;stroke-miterlimit:4;stroke-dasharray:none;stroke-opacity:1" />
    <path
       id="path1049"
       d="m 143.2701,571.04823 1.32093,0.40644 0.10161,1.52415 -0.50805,0.60966 -0.81288,0.91449 -0.30483,-0.71127 -0.60966,-0.40644 v -1.52415 z"
       style="fill:none;stroke:#000000;stroke-width:1.13386;stroke-linecap:butt;stroke-linejoin:miter;stroke-miterlimit:4;stroke-dasharray:none;stroke-opacity:1" />
    <path
       id="path1051"
       d="m 142.35561,576.94161 0.20322,-0.71127 2.33703,-0.20322 0.30483,0.60966 -0.81288,0.50805 z"
       style="fill:none;stroke:#000000;stroke-width:1.13386;stroke-linecap:butt;stroke-linejoin:miter;stroke-miterlimit:4;stroke-dasharray:none;stroke-opacity:1" />
    <path
       id="path1053"
       d="m 140,581.75002 c -0.125,-0.5 -0.25,-0.875 -0.25,-0.875 l 0.625,-0.375 1.25,0.25 v 0.625 z"
       style="fill:none;stroke:#000000;stroke-width:1.13386;stroke-linecap:butt;stroke-linejoin:miter;stroke-miterlimit:4;stroke-dasharray:none;stroke-opacity:1" />
    <path
       id="path1055"
       d="m 139.625,586.37502 0.5,-0.75 3,-2.5 0.75,0.25 1.5,1.25 -0.75,1.125 -1.125,0.75 -1.125,-0.125 -0.625,-0.25 -0.875,0.75 z"
       style="fill:none;stroke:#000000;stroke-width:1.13386;stroke-linecap:butt;stroke-linejoin:miter;stroke-miterlimit:4;stroke-dasharray:none;stroke-opacity:1" />
    <path
       id="path1057"
       d="m 154.375,593.12502 -1.25,-0.75 1,-0.625 0.5,0.625 z"
       style="fill:none;stroke:#000000;stroke-width:1.13386;stroke-linecap:butt;stroke-linejoin:miter;stroke-miterlimit:4;stroke-dasharray:none;stroke-opacity:1" />
    <path
       id="path1059"
       d="m 130.625,546.87502 2,0.125 v 2.875"
       style="fill:none;stroke:#000000;stroke-width:1.13386;stroke-linecap:butt;stroke-linejoin:miter;stroke-miterlimit:4;stroke-dasharray:none;stroke-opacity:1" />
    <rect
       y="524.25"
       x="171.375"
       height="20.125"
       width="17.625"
       id="rect1061"
       style="fill:none;stroke:#000000;stroke-width:1.13386;stroke-linecap:round;stroke-miterlimit:4;stroke-dasharray:none;stroke-dashoffset:0;stroke-opacity:1" />
    <rect
       y="567.00604"
       x="21.61875"
       height="5.2617064"
       width="71.490578"
       id="rect1063"
       style="fill:none;stroke:#000000;stroke-width:1.13386;stroke-linecap:round;stroke-miterlimit:4;stroke-dasharray:none;stroke-dashoffset:0;stroke-opacity:1" />
    <rect
       ry="0"
       rx="0"
       style="fill:none;stroke:#000000;stroke-width:1.13386;stroke-linecap:round;stroke-miterlimit:4;stroke-dasharray:none;stroke-dashoffset:0;stroke-opacity:1"
       id="rect1065"
       width="44.610123"
       height="5.2617188"
       x="21.61875"
       y="585.53638" />
    <path
       id="path1067"
       d="m 57.306847,567.00607 v 5.14732"
       style="fill:none;stroke:#000000;stroke-width:1.13386;stroke-linecap:butt;stroke-linejoin:miter;stroke-miterlimit:4;stroke-dasharray:none;stroke-opacity:1" />
    <path
       style="fill:none;stroke:#000000;stroke-width:1.13386;stroke-linecap:butt;stroke-linejoin:miter;stroke-miterlimit:4;stroke-dasharray:none;stroke-opacity:1"
       d="m 44.038196,585.7652 v 5.14732"
       id="path1069" />
    <path
       id="path1071"
       d="M 21.733136,569.52254 H 57.078077"
       style="fill:none;stroke:#000000;stroke-width:1.13386;stroke-linecap:butt;stroke-linejoin:miter;stroke-miterlimit:4;stroke-dasharray:none;stroke-opacity:1" />
    <path
       sodipodi:nodetypes="cc"
       style="fill:none;stroke:#000000;stroke-width:1.13386;stroke-linecap:butt;stroke-linejoin:miter;stroke-miterlimit:4;stroke-dasharray:none;stroke-opacity:1"
       d="m 21.733136,588.28167 h 22.07629"
       id="path1073" />
    <text
       id="text1158"
       y="373.02942"
       x="287.61765"
       style="font-weight:bold;font-size:21.3333px;line-height:6.52506px;font-family:'Times New Roman';-inkscape-font-specification:'Times New Roman, Bold'"
       xml:space="preserve"><tspan
         y="373.02942"
         x="287.61765"
         id="tspan1156"
         sodipodi:role="line" /></text>
    <text
       style="font-weight:bold;font-size:21.33330000000000126px;line-height:6.52505999999999986px;font-family:'Times New Roman';-inkscape-font-specification:'Times New Roman, Bold';white-space:pre;shape-inside:url(#rect1175);"
       id="text1173"
       xml:space="preserve" />
    <text
       id="text1256"
       y="565.02667"
       x="19.439083"
       style="font-weight:bold;font-size:21.33330000000000126px;line-height:2.44689999999999985px;font-family:'Times New Roman';-inkscape-font-specification:'Times New Roman, Bold';stroke:none;fill:#000000;fill-opacity:1;"
       xml:space="preserve"><tspan
         style="font-style:normal;font-variant:normal;font-weight:bold;font-stretch:normal;font-size:8px;font-family:'Times New Roman';-inkscape-font-specification:'Times New Roman, Bold';font-variant-ligatures:normal;font-variant-caps:normal;font-variant-numeric:normal;font-variant-east-asian:normal;fill:#000000;stroke:none;fill-opacity:1;"
         y="565.02667"
         x="19.439083"
         id="tspan1254"
         sodipodi:role="line">0</tspan></text>
    <g
       id="g1013">
      <path
         style="fill:none;fill-opacity:1;stroke:#000000;stroke-width:1.13386;stroke-linecap:butt;stroke-linejoin:miter;stroke-miterlimit:4;stroke-dasharray:1.13386, 1.13386000000000009;stroke-dashoffset:0;stroke-opacity:1"
         d="m 5.7700373,63.271444 3.9793361,1.591734 2.1886346,0.596901 2.586568,2.387601 1.790701,0.198967 3.382437,1.392768 1.790701,2.586568 3.979336,2.188635 3.183469,1.790701 1.989668,1.591734 1.392768,0.198967 1.1938,0.795867 4.178303,0.397934 2.984502,2.785535 2.387602,0.397934 3.183468,3.183469 2.984502,0.994834 1.989669,0.198967 1.790702,1.591735 4.377269,2.586568 2.586568,1.193801 1.790702,0.795867 5.969004,0.5969 1.591734,1.591735 1.790701,-0.397934 0.596901,0.596901 1.1938,-0.397934 0.994834,-0.198967 1.989668,0.994834 2.785535,-0.198967 1.392768,1.591735 2.387602,0.994834 1.392768,1.790701 1.989668,-0.198967 0.994834,1.193798 1.790701,1.39277 1.591735,0.5969 1.193801,1.1938 1.790701,0.39793 2.188635,0.99484 1.989668,0.79586 1.989667,-0.39793 2.188632,1.39277 1.59173,0.5969 1.98967,0.39793 1.7907,1.1938 2.38761,0.79587 0.79586,1.39277 1.39277,-0.19897 h 3.97934 l 1.7907,-0.39793 2.3876,0.99483 2.18863,1.59173 2.38761,0.79587 0.39793,1.39277 1.98967,0.19897 0.99483,3.78037"
         id="path857" />
      <text
         xml:space="preserve"
         style="font-weight:bold;font-size:21.3333px;line-height:5.99px;font-family:'Times New Roman';-inkscape-font-specification:'Times New Roman, Bold';fill:#000000;fill-opacity:1"
         x="111.77065"
         y="23.941177"
         id="text1077"><tspan
           sodipodi:role="line"
           id="tspan1075"
           x="111.77065"
           y="23.941177"
           style="font-style:normal;font-variant:normal;font-weight:bold;font-stretch:normal;font-size:14.6667px;font-family:'Times New Roman';-inkscape-font-specification:'Times New Roman, Bold';font-variant-ligatures:normal;font-variant-caps:normal;font-variant-numeric:normal;font-variant-east-asian:normal;text-align:center;letter-spacing:-0.37px;text-anchor:middle;fill:#000000;fill-opacity:1"
           dx="-4.3000002">Map 7</tspan><tspan
           sodipodi:role="line"
           x="111.77065"
           y="31.653412"
           id="tspan1079"
           style="font-style:normal;font-variant:normal;font-weight:bold;font-stretch:normal;font-size:14.6667px;font-family:'Times New Roman';-inkscape-font-specification:'Times New Roman, Bold';font-variant-ligatures:normal;font-variant-caps:normal;font-variant-numeric:normal;font-variant-east-asian:normal;text-align:center;letter-spacing:-0.37px;text-anchor:middle;fill:#000000;fill-opacity:1" /><tspan
           sodipodi:role="line"
           x="111.58565"
           y="39.365646"
           id="tspan1085"
           style="font-style:normal;font-variant:normal;font-weight:bold;font-stretch:normal;font-size:14.6667px;font-family:'Times New Roman';-inkscape-font-specification:'Times New Roman, Bold';font-variant-ligatures:normal;font-variant-caps:normal;font-variant-numeric:normal;font-variant-east-asian:normal;text-align:center;letter-spacing:-0.37px;text-anchor:middle;fill:#000000;fill-opacity:1">Unit 2 - <tspan
   style="font-style:italic;font-variant:normal;font-weight:bold;font-stretch:normal;font-size:14.6667px;font-family:'Times New Roman';-inkscape-font-specification:'Times New Roman, Bold Italic';font-variant-ligatures:normal;font-variant-caps:normal;font-variant-numeric:normal;font-variant-east-asian:normal;fill:#000000;fill-opacity:1"
   id="tspan1093">Clermontia lindseyana - b</tspan></tspan></text>
      <text
         xml:space="preserve"
         style="font-weight:bold;font-size:21.3333px;line-height:3.26253px;font-family:'Times New Roman';-inkscape-font-specification:'Times New Roman, Bold';fill:#000000;fill-opacity:1"
         x="116.14705"
         y="71.176468"
         id="text1097"><tspan
           sodipodi:role="line"
           id="tspan1095"
           x="116.14705"
           y="71.176468"
           style="font-style:italic;font-variant:normal;font-weight:bold;font-stretch:normal;font-size:10.6667px;font-family:'Times New Roman';-inkscape-font-specification:'Times New Roman, Bold Italic';font-variant-ligatures:normal;font-variant-caps:normal;font-variant-numeric:normal;font-variant-east-asian:normal;fill:#000000;fill-opacity:1">Pacific Ocean</tspan></text>
      <text
         xml:space="preserve"
         style="font-weight:bold;font-size:21.3333px;line-height:3.26254px;font-family:'Times New Roman';-inkscape-font-specification:'Times New Roman, Bold';letter-spacing:-0.4px;fill:#000000;fill-opacity:1"
         x="136.85295"
         y="96.411758"
         id="text1101"><tspan
           sodipodi:role="line"
           id="tspan1099"
           x="136.85295"
           y="96.411758"
           style="font-style:italic;font-variant:normal;font-weight:bold;font-stretch:normal;font-size:10.6667px;font-family:Arial;-inkscape-font-specification:'Arial, Bold Italic';font-variant-ligatures:normal;font-variant-caps:normal;font-variant-numeric:normal;font-variant-east-asian:normal;fill:#000000;fill-opacity:1">Papaaloa Point</tspan></text>
      <text
         id="text1105"
         y="67.110992"
         x="56.365009"
         style="font-weight:bold;font-size:21.3333px;line-height:3.26254px;font-family:'Times New Roman';-inkscape-font-specification:'Times New Roman, Bold';letter-spacing:-0.4px;fill:#000000;fill-opacity:1"
         xml:space="preserve"
         transform="rotate(25.192881)"><tspan
           style="font-style:italic;font-variant:normal;font-weight:bold;font-stretch:normal;font-size:10.6667px;font-family:Arial;-inkscape-font-specification:'Arial, Bold Italic';font-variant-ligatures:normal;font-variant-caps:normal;font-variant-numeric:normal;font-variant-east-asian:normal;fill:#000000;fill-opacity:1"
           y="67.110992"
           x="56.365009"
           id="tspan1103"
           sodipodi:role="line">Hawaii Belt Rd</tspan></text>
      <text
         id="text1109"
         y="-5.3887367"
         x="258.94653"
         style="font-weight:bold;font-size:21.3333px;line-height:3.26254px;font-family:'Times New Roman';-inkscape-font-specification:'Times New Roman, Bold';letter-spacing:-0.4px;fill:#000000;fill-opacity:1"
         xml:space="preserve"
         transform="rotate(45.934089)"><tspan
           style="font-style:italic;font-variant:normal;font-weight:bold;font-stretch:normal;font-size:10.6667px;font-family:Arial;-inkscape-font-specification:'Arial, Bold Italic';font-variant-ligatures:normal;font-variant-caps:normal;font-variant-numeric:normal;font-variant-east-asian:normal;fill:#000000;fill-opacity:1"
           y="-5.3887367"
           x="258.94653"
           id="tspan1107"
           sodipodi:role="line">2000</tspan></text>
      <text
         xml:space="preserve"
         style="font-weight:bold;font-size:21.3333px;line-height:3.26254px;font-family:'Times New Roman';-inkscape-font-specification:'Times New Roman, Bold';letter-spacing:-0.4px;fill:#000000;fill-opacity:1"
         x="267.61826"
         y="32.005394"
         id="text1113"
         transform="rotate(49.691616)"><tspan
           sodipodi:role="line"
           id="tspan1111"
           x="267.61826"
           y="32.005394"
           style="font-style:italic;font-variant:normal;font-weight:bold;font-stretch:normal;font-size:10.6667px;font-family:Arial;-inkscape-font-specification:'Arial, Bold Italic';font-variant-ligatures:normal;font-variant-caps:normal;font-variant-numeric:normal;font-variant-east-asian:normal;fill:#000000;fill-opacity:1">4000</tspan></text>
      <text
         id="text1117"
         y="111.75108"
         x="210.40004"
         style="font-weight:bold;font-size:21.3333px;line-height:3.26254px;font-family:'Times New Roman';-inkscape-font-specification:'Times New Roman, Bold';letter-spacing:-0.4px;fill:#000000;fill-opacity:1"
         xml:space="preserve"
         transform="rotate(47.378915)"><tspan
           style="font-style:italic;font-variant:normal;font-weight:bold;font-stretch:normal;font-size:10.6667px;font-family:Arial;-inkscape-font-specification:'Arial, Bold Italic';font-variant-ligatures:normal;font-variant-caps:normal;font-variant-numeric:normal;font-variant-east-asian:normal;fill:#000000;fill-opacity:1"
           y="111.75108"
           x="210.40004"
           id="tspan1115"
           sodipodi:role="line">6000</tspan></text>
      <text
         xml:space="preserve"
         style="font-weight:bold;font-size:21.3333px;line-height:3.26254px;font-family:'Times New Roman';-inkscape-font-specification:'Times New Roman, Bold';letter-spacing:-0.4px;fill:#000000;fill-opacity:1"
         x="251.0472"
         y="95.492477"
         id="text1121"
         transform="rotate(61.647148)"><tspan
           sodipodi:role="line"
           id="tspan1119"
           x="251.0472"
           y="95.492477"
           style="font-style:italic;font-variant:normal;font-weight:bold;font-stretch:normal;font-size:10.6667px;font-family:Arial;-inkscape-font-specification:'Arial, Bold Italic';font-variant-ligatures:normal;font-variant-caps:normal;font-variant-numeric:normal;font-variant-east-asian:normal;fill:#000000;fill-opacity:1">8000</tspan></text>
      <text
         id="text1125"
         y="337.76471"
         x="13.588243"
         style="font-weight:bold;font-size:21.3333px;line-height:3.26254px;font-family:'Times New Roman';-inkscape-font-specification:'Times New Roman, Bold';letter-spacing:-0.4px;fill:#000000;fill-opacity:1"
         xml:space="preserve"><tspan
           style="font-style:italic;font-variant:normal;font-weight:bold;font-stretch:normal;font-size:10.6667px;font-family:Arial;-inkscape-font-specification:'Arial, Bold Italic';font-variant-ligatures:normal;font-variant-caps:normal;font-variant-numeric:normal;font-variant-east-asian:normal;fill:#000000;fill-opacity:1"
           y="337.76471"
           x="13.588243"
           id="tspan1123"
           sodipodi:role="line">Puu</tspan><tspan
           style="font-style:italic;font-variant:normal;font-weight:bold;font-stretch:normal;font-size:10.6667px;font-family:Arial;-inkscape-font-specification:'Arial, Bold Italic';font-variant-ligatures:normal;font-variant-caps:normal;font-variant-numeric:normal;font-variant-east-asian:normal;fill:#000000;fill-opacity:1"
           y="343.59705"
           x="13.588243"
           sodipodi:role="line"
           id="tspan1127" /><tspan
           style="font-style:italic;font-variant:normal;font-weight:bold;font-stretch:normal;font-size:10.6667px;font-family:Arial;-inkscape-font-specification:'Arial, Bold Italic';font-variant-ligatures:normal;font-variant-caps:normal;font-variant-numeric:normal;font-variant-east-asian:normal;fill:#000000;fill-opacity:1"
           y="349.42941"
           x="13.588243"
           sodipodi:role="line"
           id="tspan1133">Kahinahina</tspan></text>
      <text
         xml:space="preserve"
         style="font-weight:bold;font-size:21.3333px;line-height:3.26254px;font-family:'Times New Roman';-inkscape-font-specification:'Times New Roman, Bold';letter-spacing:-0.4px;fill:#000000;fill-opacity:1"
         x="83.239655"
         y="382.73529"
         id="text1145"><tspan
           id="tspan1143"
           sodipodi:role="line"
           x="83.239655"
           y="382.73529"
           style="font-style:italic;font-variant:normal;font-weight:bold;font-stretch:normal;font-size:10.6667px;font-family:Arial;-inkscape-font-specification:'Arial, Bold Italic';font-variant-ligatures:normal;font-variant-caps:normal;font-variant-numeric:normal;font-variant-east-asian:normal;text-align:end;text-anchor:end;fill:#000000;fill-opacity:1">Magnetic</tspan><tspan
           sodipodi:role="line"
           x="83.239655"
           y="388.56763"
           style="font-style:italic;font-variant:normal;font-weight:bold;font-stretch:normal;font-size:10.6667px;font-family:Arial;-inkscape-font-specification:'Arial, Bold Italic';font-variant-ligatures:normal;font-variant-caps:normal;font-variant-numeric:normal;font-variant-east-asian:normal;text-align:end;text-anchor:end;fill:#000000;fill-opacity:1"
           id="tspan1152" /><tspan
           sodipodi:role="line"
           x="82.839653"
           y="394.39999"
           style="font-style:italic;font-variant:normal;font-weight:bold;font-stretch:normal;font-size:10.6667px;font-family:Arial;-inkscape-font-specification:'Arial, Bold Italic';font-variant-ligatures:normal;font-variant-caps:normal;font-variant-numeric:normal;font-variant-east-asian:normal;text-align:end;text-anchor:end;fill:#000000;fill-opacity:1"
           id="tspan1154">Hill</tspan></text>
      <text
         id="text1168"
         y="432.88235"
         x="106.91772"
         style="font-weight:bold;font-size:21.3333px;line-height:4.9009px;font-family:'Times New Roman';-inkscape-font-specification:'Times New Roman, Bold';fill:#000000;fill-opacity:1"
         xml:space="preserve"><tspan
           style="font-style:normal;font-variant:normal;font-weight:bold;font-stretch:normal;font-size:12px;font-family:'Times New Roman';-inkscape-font-specification:'Times New Roman, Bold';font-variant-ligatures:normal;font-variant-caps:normal;font-variant-numeric:normal;font-variant-east-asian:normal;text-align:center;letter-spacing:-0.37px;text-anchor:middle;fill:#000000;fill-opacity:1"
           y="432.88235"
           x="106.73272"
           sodipodi:role="line"
           id="tspan1170">Critical Habitat Unit 2</tspan></text>
      <text
         xml:space="preserve"
         style="font-weight:bold;font-size:21.3333px;line-height:9.04px;font-family:'Times New Roman';-inkscape-font-specification:'Times New Roman, Bold';fill:#000000;fill-opacity:1"
         x="99.153015"
         y="451.32352"
         id="text1187"><tspan
           sodipodi:role="line"
           x="99.153015"
           y="451.32352"
           style="font-style:normal;font-variant:normal;font-weight:bold;font-stretch:normal;font-size:12px;font-family:'Times New Roman';-inkscape-font-specification:'Times New Roman, Bold';font-variant-ligatures:normal;font-variant-caps:normal;font-variant-numeric:normal;font-variant-east-asian:normal;text-align:center;letter-spacing:-0.37px;text-anchor:middle;fill:#000000;fill-opacity:1"
           id="tspan1191">Critical Habitat for</tspan><tspan
           sodipodi:role="line"
           x="98.968018"
           y="462.77466"
           style="font-style:normal;font-variant:normal;font-weight:bold;font-stretch:normal;font-size:12px;font-family:'Times New Roman';-inkscape-font-specification:'Times New Roman, Bold';font-variant-ligatures:normal;font-variant-caps:normal;font-variant-numeric:normal;font-variant-east-asian:normal;text-align:center;letter-spacing:-0.37px;text-anchor:middle;fill:#000000;fill-opacity:1"
           id="tspan1199">                   <tspan
   id="tspan3557"
   style="font-style:italic;font-variant:normal;font-weight:bold;font-stretch:normal;font-size:12px;font-family:'Times New Roman';-inkscape-font-specification:'Times New Roman, Bold Italic';font-variant-ligatures:normal;font-variant-caps:normal;font-variant-numeric:normal;font-variant-east-asian:normal;fill:#000000;fill-opacity:1">Clermontia lindseyana</tspan><tspan
   style="font-style:italic;font-variant:normal;font-weight:bold;font-stretch:normal;font-size:12px;font-family:'Times New Roman';-inkscape-font-specification:'Times New Roman, Bold Italic';font-variant-ligatures:normal;font-variant-caps:normal;font-variant-numeric:normal;font-variant-east-asian:normal;fill:#000000;fill-opacity:1"
   id="tspan1201"> - b</tspan></tspan></text>
      <text
         xml:space="preserve"
         style="font-weight:bold;font-size:21.3333px;line-height:4.9009px;font-family:'Times New Roman';-inkscape-font-specification:'Times New Roman, Bold';fill:#000000;fill-opacity:1"
         x="75.596695"
         y="522.82349"
         id="text1205"><tspan
           sodipodi:role="line"
           x="75.411697"
           y="522.82349"
           style="font-style:normal;font-variant:normal;font-weight:bold;font-stretch:normal;font-size:12px;font-family:'Times New Roman';-inkscape-font-specification:'Times New Roman, Bold';font-variant-ligatures:normal;font-variant-caps:normal;font-variant-numeric:normal;font-variant-east-asian:normal;text-align:center;letter-spacing:-0.37px;direction:rtl;text-anchor:middle;fill:#000000;fill-opacity:1"
           id="tspan1215">Coastline</tspan></text>
      <text
         id="text1248"
         y="483.02939"
         x="122.50846"
         style="font-weight:bold;font-size:21.3333px;line-height:4.9009px;font-family:'Times New Roman';-inkscape-font-specification:'Times New Roman, Bold';fill:#000000;fill-opacity:1"
         xml:space="preserve"><tspan
           id="tspan1246"
           style="font-style:normal;font-variant:normal;font-weight:bold;font-stretch:normal;font-size:12px;font-family:'Times New Roman';-inkscape-font-specification:'Times New Roman, Bold';font-variant-ligatures:normal;font-variant-caps:normal;font-variant-numeric:normal;font-variant-east-asian:normal;text-align:center;letter-spacing:-0.37px;direction:rtl;text-anchor:middle;fill:#000000;fill-opacity:1"
           y="483.02939"
           x="122.32346"
           sodipodi:role="line">Elevation (1,000-ft. contours)</tspan></text>
      <text
         id="text1252"
         y="503.41174"
         x="83.361404"
         style="font-weight:bold;font-size:21.3333px;line-height:4.9009px;font-family:'Times New Roman';-inkscape-font-specification:'Times New Roman, Bold';fill:#000000;fill-opacity:1"
         xml:space="preserve"><tspan
           id="tspan1250"
           style="font-style:normal;font-variant:normal;font-weight:bold;font-stretch:normal;font-size:12px;font-family:'Times New Roman';-inkscape-font-specification:'Times New Roman, Bold';font-variant-ligatures:normal;font-variant-caps:normal;font-variant-numeric:normal;font-variant-east-asian:normal;text-align:center;letter-spacing:-0.37px;direction:rtl;text-anchor:middle;fill:#000000;fill-opacity:1"
           y="503.41174"
           x="83.176407"
           sodipodi:role="line">Major Road</tspan></text>
    </g>
    <text
       xml:space="preserve"
       style="font-weight:bold;font-size:21.33330000000000126px;line-height:2.44689999999999985px;font-family:'Times New Roman';-inkscape-font-specification:'Times New Roman, Bold';stroke:none;fill:#000000;fill-opacity:1;"
       x="19.439083"
       y="583.3302"
       id="text1260"><tspan
         sodipodi:role="line"
         id="tspan1258"
         x="19.439083"
         y="583.3302"
         style="font-style:normal;font-variant:normal;font-weight:bold;font-stretch:normal;font-size:8px;font-family:'Times New Roman';-inkscape-font-specification:'Times New Roman, Bold';font-variant-ligatures:normal;font-variant-caps:normal;font-variant-numeric:normal;font-variant-east-asian:normal;fill:#000000;stroke:none;fill-opacity:1;">0</tspan></text>
    <text
       id="text1264"
       y="564.85126"
       x="55.461323"
       style="font-weight:bold;font-size:21.33330000000000126px;line-height:2.44689999999999985px;font-family:'Times New Roman';-inkscape-font-specification:'Times New Roman, Bold';stroke:none;fill:#000000;fill-opacity:1;"
       xml:space="preserve"><tspan
         style="font-style:normal;font-variant:normal;font-weight:bold;font-stretch:normal;font-size:8px;font-family:'Times New Roman';-inkscape-font-specification:'Times New Roman, Bold';font-variant-ligatures:normal;font-variant-caps:normal;font-variant-numeric:normal;font-variant-east-asian:normal;fill:#000000;stroke:none;fill-opacity:1;"
         y="564.85126"
         x="55.461323"
         id="tspan1262"
         sodipodi:role="line">2</tspan></text>
    <text
       xml:space="preserve"
       style="font-weight:bold;font-size:21.33330000000000126px;line-height:2.44689999999999985px;font-family:'Times New Roman';-inkscape-font-specification:'Times New Roman, Bold';stroke:none;fill:#000000;fill-opacity:1;"
       x="42.011459"
       y="583.3302"
       id="text1268"><tspan
         sodipodi:role="line"
         id="tspan1266"
         x="42.011459"
         y="583.3302"
         style="font-style:normal;font-variant:normal;font-weight:bold;font-stretch:normal;font-size:8px;font-family:'Times New Roman';-inkscape-font-specification:'Times New Roman, Bold';font-variant-ligatures:normal;font-variant-caps:normal;font-variant-numeric:normal;font-variant-east-asian:normal;fill:#000000;stroke:none;fill-opacity:1;">2</tspan></text>
    <text
       id="text1272"
       y="583.21326"
       x="63.706673"
       style="font-weight:bold;font-size:21.33330000000000126px;line-height:2.44689999999999985px;font-family:'Times New Roman';-inkscape-font-specification:'Times New Roman, Bold';stroke:none;fill:#000000;fill-opacity:1;"
       xml:space="preserve"><tspan
         style="font-style:normal;font-variant:normal;font-weight:bold;font-stretch:normal;font-size:8px;font-family:'Times New Roman';-inkscape-font-specification:'Times New Roman, Bold';font-variant-ligatures:normal;font-variant-caps:normal;font-variant-numeric:normal;font-variant-east-asian:normal;fill:#000000;stroke:none;fill-opacity:1;"
         y="583.21326"
         x="63.706673"
         id="tspan1270"
         sodipodi:role="line">4  Kilometers</tspan></text>
    <text
       xml:space="preserve"
       style="font-weight:bold;font-size:21.33330000000000126px;line-height:2.44689999999999985px;font-family:'Times New Roman';-inkscape-font-specification:'Times New Roman, Bold';stroke:none;fill:#000000;fill-opacity:1;"
       x="91.015739"
       y="564.67584"
       id="text1276"><tspan
         sodipodi:role="line"
         id="tspan1274"
         x="91.015739"
         y="564.67584"
         style="font-style:normal;font-variant:normal;font-weight:bold;font-stretch:normal;font-size:8px;font-family:'Times New Roman';-inkscape-font-specification:'Times New Roman, Bold';font-variant-ligatures:normal;font-variant-caps:normal;font-variant-numeric:normal;font-variant-east-asian:normal;fill:#000000;stroke:none;fill-opacity:1;">4  Miles</tspan></text>
  </g>
</svg>
