<?xml version="1.0" encoding="UTF-8" standalone="no"?>
<svg
   xmlns:dc="http://purl.org/dc/elements/1.1/"
   xmlns:cc="http://creativecommons.org/ns#"
   xmlns:rdf="http://www.w3.org/1999/02/22-rdf-syntax-ns#"
   xmlns:svg="http://www.w3.org/2000/svg"
   xmlns="http://www.w3.org/2000/svg"
   xmlns:xlink="http://www.w3.org/1999/xlink"
   xmlns:sodipodi="http://sodipodi.sourceforge.net/DTD/sodipodi-0.dtd"
   xmlns:inkscape="http://www.inkscape.org/namespaces/inkscape"
   inkscape:version="0.92.2 5c3e80d, 2017-08-06"
   sodipodi:docname="er02jy03.082.svg"
   viewBox="0 0 220.8 608"
   height="608"
   width="220.8"
   id="svg5472"
   version="1.1">
  <metadata
     id="metadata5478">
    <rdf:RDF>
      <cc:Work
         rdf:about="">
        <dc:format>image/svg+xml</dc:format>
        <dc:type
           rdf:resource="http://purl.org/dc/dcmitype/StillImage" />
        <dc:title></dc:title>
      </cc:Work>
    </rdf:RDF>
  </metadata>
  <defs
     id="defs5476">
    <rect
       id="rect6774"
       height="105.62549"
       width="258.27137"
       y="-9.5403672"
       x="-20.443644" />
  </defs>
  <sodipodi:namedview
     inkscape:current-layer="g5480"
     inkscape:window-maximized="0"
     inkscape:window-y="0"
     inkscape:window-x="-1"
     inkscape:cy="79.283112"
     inkscape:cx="33.950882"
     inkscape:zoom="1.6195635"
     showgrid="false"
     id="namedview5474"
     inkscape:window-height="756"
     inkscape:window-width="1280"
     inkscape:pageshadow="2"
     inkscape:pageopacity="0"
     guidetolerance="10"
     gridtolerance="10"
     objecttolerance="10"
     borderopacity="1"
     bordercolor="#666666"
     pagecolor="#ffffff" />
  <g
     id="g5480"
     inkscape:label="Image"
     inkscape:groupmode="layer">
    <path
       style="fill:none;stroke:#000000;stroke-width:2;stroke-linecap:round;stroke-linejoin:round;stroke-miterlimit:4;stroke-dasharray:none;stroke-opacity:1"
       d="m 18.046556,437.84768 -0.003,13.04064 h 24.62116 l 0.003,-13.04064 z"
       id="path14359-1-7-5-3-0-73-1-9-8-5-3"
       inkscape:connector-curvature="0"
       sodipodi:nodetypes="ccccc" />
    <path
       style="fill:none;stroke:#000000;stroke-width:1;stroke-linecap:butt;stroke-linejoin:round;stroke-miterlimit:4;stroke-dasharray:1, 1;stroke-dashoffset:0;stroke-opacity:1"
       d="m 44.842396,467.08923 -9.38928,14.21141 -10.16745,-14.22795 -9.60569,14.33105"
       id="path14359-1-7-5-3-0-73-1-9-8-5-9"
       inkscape:connector-curvature="0"
       sodipodi:nodetypes="cccc" />
    <path
       style="fill:none;stroke:#000000;stroke-width:1;stroke-linecap:round;stroke-linejoin:round;stroke-miterlimit:4;stroke-dasharray:none;stroke-opacity:1"
       d="m 34.231916,438.02249 -0.003,12.94489"
       id="path14359-1-7-5-3-0-73-1-9-8-5-9-2"
       inkscape:connector-curvature="0"
       sodipodi:nodetypes="cc" />
    <path
       style="fill:none;stroke:#000000;stroke-width:1;stroke-linecap:round;stroke-linejoin:round;stroke-miterlimit:4;stroke-dasharray:none;stroke-opacity:1"
       d="m 29.556986,438.02249 -0.003,12.94489"
       id="path14359-1-7-5-3-0-73-1-9-8-5-9-3"
       inkscape:connector-curvature="0"
       sodipodi:nodetypes="cc" />
    <path
       style="fill:none;stroke:#000000;stroke-width:1;stroke-linecap:round;stroke-linejoin:round;stroke-miterlimit:4;stroke-dasharray:none;stroke-opacity:1"
       d="m 24.937326,438.02249 -0.003,12.94489"
       id="path14359-1-7-5-3-0-73-1-9-8-5-9-9"
       inkscape:connector-curvature="0"
       sodipodi:nodetypes="cc" />
    <path
       style="fill:none;stroke:#000000;stroke-width:1;stroke-linecap:round;stroke-linejoin:round;stroke-miterlimit:4;stroke-dasharray:none;stroke-opacity:1"
       d="m 20.407466,438.02249 -0.003,12.94489"
       id="path14359-1-7-5-3-0-73-1-9-8-5-9-97"
       inkscape:connector-curvature="0"
       sodipodi:nodetypes="cc" />
    <path
       style="fill:none;stroke:#000000;stroke-width:0.5;stroke-linecap:round;stroke-linejoin:round;stroke-miterlimit:4;stroke-dasharray:none;stroke-opacity:1"
       d="m 45.005726,488.9671 -10.11422,14.6372 -9.93137,-14.53905 -8.68769,13.47325"
       id="path14359-1-7-5-3-0-73-1-9-8-5-9-03-9"
       inkscape:connector-curvature="0"
       sodipodi:nodetypes="cccc" />
    <path
       style="fill:none;stroke:#000000;stroke-width:0.5;stroke-linecap:round;stroke-linejoin:round;stroke-miterlimit:4;stroke-dasharray:none;stroke-opacity:1"
       d="m 43.879236,487.98214 -9.05869,13.24917 -9.81177,-14.3188 -9.74268,14.40386"
       id="path14359-1-7-5-3-0-73-1-9-8-5-9-03-8"
       inkscape:connector-curvature="0"
       sodipodi:nodetypes="cccc" />
    <path
       style="fill:none;stroke:#000000;stroke-width:1;stroke-linecap:round;stroke-linejoin:round;stroke-miterlimit:4;stroke-dasharray:none;stroke-opacity:1"
       d="m 214.96669,6.590717 -0.003,595.737423 H 5.1033854 l 0.003,-595.737423 z"
       id="path14359-1-7-5-3-0-73-1-9-8-5-0"
       inkscape:connector-curvature="0"
       sodipodi:nodetypes="ccccc" />
    <path
       sodipodi:nodetypes="cc"
       inkscape:connector-curvature="0"
       id="path14359-1-7-5-3-0-73-1-9-8-5-92-2"
       d="m 5.1684754,406.88273 209.7342146,0.0571"
       style="fill:none;stroke:#000000;stroke-width:1;stroke-linecap:round;stroke-linejoin:round;stroke-miterlimit:4;stroke-dasharray:none;stroke-opacity:1" />
    <path
       sodipodi:nodetypes="cc"
       inkscape:connector-curvature="0"
       id="path14359-1-7-5-3-0-73-1-9-8-5-9-0-6"
       d="m 38.969716,438.02249 -0.003,12.94489"
       style="fill:none;stroke:#000000;stroke-width:1;stroke-linecap:round;stroke-linejoin:round;stroke-miterlimit:4;stroke-dasharray:none;stroke-opacity:1" />
    <path
       sodipodi:nodetypes="cc"
       inkscape:connector-curvature="0"
       id="path14359-1-7-5-3-0-73-1-9-8-5-00"
       d="m 54.225736,564.05419 -0.003,5.21178"
       style="fill:none;stroke:#000000;stroke-width:0.5;stroke-linecap:round;stroke-linejoin:round;stroke-miterlimit:4;stroke-dasharray:none;stroke-opacity:1" />
    <path
       sodipodi:nodetypes="cccc"
       inkscape:connector-curvature="0"
       id="path14359-1-7-5-3-0-73-1-9-8-5-3-7"
       d="m 45.070906,508.04601 -9.81077,13.93801 -9.82026,-14.0561 -9.50204,13.99279"
       style="fill:none;stroke:#000000;stroke-width:1;stroke-linecap:round;stroke-linejoin:round;stroke-miterlimit:4;stroke-dasharray:none;stroke-opacity:1" />
    <path
       sodipodi:nodetypes="ccccc"
       inkscape:connector-curvature="0"
       id="path14359-1-7-5-3-0-73-1-9-8-5-3-4"
       d="m 18.496396,418.92826 -0.003,13.04066 h 24.24435 l 0.003,-13.04066 z"
       style="fill:none;stroke:#000000;stroke-width:2;stroke-linecap:round;stroke-linejoin:round;stroke-miterlimit:4;stroke-dasharray:none;stroke-opacity:1" />
    <path
       style="fill:none;stroke:#000000;stroke-width:0.5;stroke-linecap:round;stroke-linejoin:round;stroke-miterlimit:4;stroke-dasharray:none;stroke-opacity:1"
       d="m 16.127766,563.91204 0.003,5.35718 h 75.95627 l -0.003,-5.35718 z"
       id="path14359-1-7-5-3-0-73-1-9-8-5-00-5"
       inkscape:connector-curvature="0"
       sodipodi:nodetypes="ccccc" />
    <path
       style="fill:none;stroke:#000000;stroke-width:0.5;stroke-linecap:round;stroke-linejoin:round;stroke-miterlimit:4;stroke-dasharray:none;stroke-opacity:1"
       d="m 16.285236,587.86235 -0.003,-5.75272 h 47.2662 l 0.003,5.75272 z"
       id="path14359-1-7-5-3-0-73-1-9-8-5-00-1"
       inkscape:connector-curvature="0"
       sodipodi:nodetypes="ccccc" />
    <path
       style="fill:none;stroke:#000000;stroke-width:0.5;stroke-linecap:round;stroke-linejoin:round;stroke-miterlimit:4;stroke-dasharray:none;stroke-opacity:1"
       d="m 54.127756,566.66197 -37.98706,0.003"
       id="path14359-1-7-5-3-0-73-1-9-8-5-00-50"
       inkscape:connector-curvature="0"
       sodipodi:nodetypes="cc" />
    <path
       style="fill:none;stroke:#000000;stroke-width:0.5;stroke-linecap:round;stroke-linejoin:round;stroke-miterlimit:4;stroke-dasharray:none;stroke-opacity:1"
       d="m 39.707236,587.66748 -0.003,-5.38917"
       id="path14359-1-7-5-3-0-73-1-9-8-5-00-3"
       inkscape:connector-curvature="0"
       sodipodi:nodetypes="cc" />
    <path
       style="fill:none;stroke:#000000;stroke-width:0.5;stroke-linecap:round;stroke-linejoin:round;stroke-miterlimit:4;stroke-dasharray:none;stroke-opacity:1"
       d="m 39.560926,585.00013 -23.19569,7.6e-4"
       id="path14359-1-7-5-3-0-73-1-9-8-5-00-2"
       inkscape:connector-curvature="0"
       sodipodi:nodetypes="cc" />
    <path
       sodipodi:nodetypes="cc"
       inkscape:connector-curvature="0"
       id="path14359-1-7-5-3-0-73-1-9-8-5-00-50-0"
       d="M 214.86109,48.582922 5.1735654,49.335761"
       style="fill:none;stroke:#000000;stroke-width:1;stroke-linecap:round;stroke-linejoin:round;stroke-miterlimit:4;stroke-dasharray:none;stroke-opacity:1" />
    <path
       sodipodi:nodetypes="ccc"
       inkscape:connector-curvature="0"
       id="path14359-1-7-5-3-0-73-1-9-8-5-00-50-7"
       d="m 119.27832,602.3651 -0.002,-104.37855 h 95.59966"
       style="fill:none;stroke:#000000;stroke-width:1;stroke-linecap:round;stroke-linejoin:round;stroke-miterlimit:4;stroke-dasharray:none;stroke-opacity:1" />
    <path
       style="fill:none;stroke:#000000;stroke-width:1;stroke-linecap:round;stroke-linejoin:round;stroke-miterlimit:4;stroke-dasharray:none;stroke-opacity:1"
       d="m 167.62697,553.22075 0.003,19.95833 h 17.52719 l -0.003,-19.95833 z"
       id="path14359-1-7-5-3-0-73-1-9-8-5-00-50-7-86"
       inkscape:connector-curvature="0"
       sodipodi:nodetypes="ccccc" />
    <path
       sodipodi:nodetypes="sssssssssssssscssssscssssssssccssssssssssssssssssssscssssssssssssssssssssssssssssscsssssssssscssssssssscss"
       style="fill:none;stroke:#000000;stroke-width:1.00836;stroke-linecap:round;stroke-linejoin:round;stroke-miterlimit:4;stroke-dasharray:none;stroke-opacity:1"
       d="m 185.38653,526.46675 c 0.98734,1.07981 1.59398,2.42075 2.56053,3.48841 0.5292,0.5846 1.34463,0.93292 1.51737,1.79141 0.22214,1.10423 -0.27811,2.38874 -0.1897,2.8284 0.19421,0.96538 0.37934,1.99495 0.37934,3.01708 0,0.87368 -0.7644,1.35708 -0.18964,2.35703 0.65116,1.13293 4.96454,-0.65766 6.35391,1.41423 0.56358,0.84047 0.79938,1.85903 1.04318,2.82846 0.13807,0.54946 -0.21594,3.26016 0.18967,3.58274 0.28602,0.2275 0.65135,0.19999 0.94833,0.37712 0.78363,0.46744 1.47052,1.44618 2.18121,2.0742 1.09992,0.97203 2.31143,1.97817 3.50887,2.82849 1.11094,0.78885 3.21615,0.92644 3.69854,1.88565 0.51203,1.01808 -0.45105,1.43949 -0.66384,2.07422 -0.1091,0.32502 0.0112,0.72007 -0.0945,1.03708 -0.40168,1.19799 -2.69777,2.482 -3.69857,3.20561 -1.18483,0.85668 -2.11662,1.97188 -3.22437,2.82846 -0.80295,0.62089 -1.79729,1.04667 -2.56055,1.69706 -0.71478,0.60911 -1.32414,1.45963 -2.18116,1.88568 -0.42704,0.21227 -0.97796,0.18768 -1.42253,0.37711 -1.96452,0.83701 -3.7596,1.98322 -5.6901,2.92274 -2.03645,0.57848 -4.1265,2.05994 -6.82813,1.79135 -1.32996,-0.13215 -2.45979,-1.22565 -3.3192,-1.22565 -0.5164,0 -1.16273,0.62512 -1.61213,0.84852 -1.74642,0.86813 -3.3071,1.80976 -4.36244,3.48845 -0.4763,0.7576 -1.8951,1.03789 -2.65537,0.65999 -0.50937,-0.25322 -0.21814,-0.30193 -0.3793,-0.94283 -0.0543,-0.21561 -0.63224,-0.62853 -0.47421,-0.4714 0.11171,0.11106 -0.0644,0.32781 0,0.4714 0.16592,0.37113 0.58355,0.60192 0.47421,1.03709 -0.24147,0.96023 -3.33788,3.17338 -4.07789,3.77133 -0.92996,0.46223 -2.34101,0.4404 -3.22433,0.65993 -0.101,0.0252 -0.82811,1.64284 -1.13804,2.07427 -0.46078,0.64134 -1.44541,1.08261 -1.80185,1.79133 -0.2744,0.54551 0.1346,1.46587 -0.095,2.07421 -0.51357,1.36155 -1.73021,2.36399 -2.46572,3.5827 -0.26588,0.4406 -0.28513,1.69756 -0.66383,1.97994 -0.44887,0.33473 -1.08609,0.37112 -1.51734,0.94286 -0.88959,1.17916 -1.13908,2.1285 -2.56054,2.73413 -1.33878,0.57043 -2.44631,-2.72211 -3.98304,-3.67699 -0.59778,-0.3714 -1.47971,-0.0414 -2.08636,-0.28282 -1.2999,-0.51693 -2.08801,-2.36623 -3.88822,-3.01704 -1.69017,-0.61105 -3.54243,-0.35268 -4.74176,-1.88567 -0.53383,-0.68236 -0.42959,-1.48648 -0.66384,-2.26277 -0.18218,-0.60381 -0.82289,-1.08068 -1.13799,-1.60275 -0.24602,-0.4077 -0.32124,-1.23509 -0.37934,-1.69711 -0.28605,-2.27519 0.77592,-3.50568 0.94834,-5.56267 0.1171,-1.39681 0.55686,-2.74388 0.75867,-4.14839 0.17656,-1.22881 -0.0177,-2.53916 0.0947,-3.77132 0.0637,-0.69392 0.61002,-1.01152 0.75867,-1.60278 0.19262,-0.76583 -0.62655,-0.70035 -0.75867,-1.22567 -0.0851,-0.3382 -0.0692,-0.68087 -0.0947,-1.03712 -0.0181,-0.25268 -0.0634,-0.50276 -0.095,-0.75416 -0.25161,-0.5003 -0.51717,-0.83973 -0.75867,-1.31993 -0.28009,-0.55695 0.28873,-1.12302 0,-1.69708 -0.13667,-0.27179 -0.51243,-0.30272 -0.66381,-0.75429 -0.24651,-0.73511 0.18955,-1.69741 0,-2.4513 -0.22352,-0.88879 -1.06284,-0.39664 -1.6122,-0.94285 -0.19577,-0.19458 -0.48459,-1.45565 -0.56901,-1.79134 -0.0867,-0.34449 0.16771,-0.58056 0.0948,-0.94281 -0.10004,-0.49723 -0.39684,-0.90066 -0.56902,-1.41425 -0.23252,-0.69342 0.25079,-2.14122 0,-2.63987 -0.2418,-0.48089 -0.67953,-0.73054 -0.94838,-1.13143 -0.3571,-0.53252 -0.54822,-1.16665 -0.94831,-1.69705 -0.53898,-0.71442 0.23857,-2.0256 -0.2845,-2.54564 -0.0626,-0.0624 -0.36671,-0.14782 -0.47419,-0.0944 -0.30466,0.15144 0.42851,1.08951 0.47419,1.22565 0.20479,0.6109 -0.61585,0.80203 -0.94834,0.47141 -1.2228,-1.21562 -1.51737,-0.57144 -1.51737,-2.82846 0,-1.0866 0.73642,-0.16643 1.23284,-0.65996 0.21198,-0.21073 -0.49181,-0.28285 -0.56899,-0.28285 -0.20149,0 -0.67635,0.17615 -0.85354,0 -0.65857,-0.65479 -1.76959,-2.10825 -1.42252,-3.48844 0.0608,-0.24105 0.30345,-0.43366 0.37934,-0.65998 0.0827,-0.24655 0.0823,-0.74159 0.28452,-0.94284 0.43818,-0.43564 0.89392,-1.67905 1.51733,-1.88564 0.41803,-0.13853 1.34974,-0.7038 1.61222,-1.22567 0.3734,-0.74249 0.87034,-1.75257 1.707,-2.16851 0.12855,-0.0641 1.11011,-0.53239 1.23285,-0.47138 0.34186,0.16989 1.64165,0.15922 1.8967,-0.0944 1.35016,-1.34228 2.30405,-3.53025 3.41403,-5.18549 0.96294,-1.43601 3.01286,-2.76339 3.50889,-4.24273 0.10371,-0.30946 -0.0798,-0.72076 0,-1.03709 0.67934,-2.70163 -2.26904,-4.7945 -3.41408,-7.07115 -0.26439,-0.52577 -0.61857,-1.14008 -0.75865,-1.69712 -0.10839,-0.43127 -0.65339,-5.04882 -0.569,-5.46837 0.24625,-1.2241 0.77667,-2.84634 1.61215,-3.67698 1.40886,-1.40063 4.69951,0.58311 6.06947,1.03708 0.42871,0.14208 1.03278,0.0863 1.42249,0.37716 0.43087,0.32125 0.79777,0.71266 1.23286,1.03708 1.32358,0.9869 1.51953,2.49526 0.66383,3.77131 -0.0875,0.13082 -0.69851,1.60279 -0.18966,1.60279 0.5547,0 0.45784,-2.20752 1.138,-2.54566 1.36981,-0.68087 2.22541,1.35531 1.99152,2.3571 -0.15445,-1.75873 2.38785,-0.68603 2.93987,0 0.24833,0.30856 -0.34117,1.1693 -0.28447,1.22569 0.29382,0.29208 1.55067,-0.28599 1.99153,-0.18859 1.02677,0.22683 1.4942,1.6706 2.46567,1.79134 1.25806,0.15634 1.55015,-1.04286 3.69851,-0.18854 1.24269,0.49414 2.41545,1.20068 3.60373,1.79137 0.59285,0.29469 1.28675,0.43255 1.89672,0.65997 0.7827,0.29181 1.54733,0.91746 2.27604,1.31993 1.04018,0.57453 2.29295,0.73697 3.31921,1.31996 1.67032,0.94894 3.66942,2.54563 4.97319,2.70575 1.30373,0.16016 7.54943,4.77575 8.20889,5.4969 z"
       id="path10110" />
    <path
       sodipodi:nodetypes="ccc"
       style="fill:none;stroke:#000000;stroke-width:0.5;stroke-linecap:round;stroke-linejoin:round;stroke-miterlimit:4;stroke-dasharray:none;stroke-opacity:1"
       d="m 149.03342,521.96175 c 0.0624,0.1873 0.12444,0.37457 0.18665,0.56187 l 0.0932,0.0937"
       id="path10112" />
    <path
       sodipodi:nodetypes="cc"
       style="fill:none;stroke:#000000;stroke-width:0.5;stroke-linecap:round;stroke-linejoin:round;stroke-miterlimit:4;stroke-dasharray:none;stroke-opacity:1"
       d="m 150.24681,527.8609 c -0.68803,-1.30268 1.30678,-0.74447 1.30678,-1.40454"
       id="path10114" />
    <path
       sodipodi:nodetypes="cc"
       style="fill:none;stroke:#000000;stroke-width:0.5;stroke-linecap:round;stroke-linejoin:round;stroke-miterlimit:4;stroke-dasharray:none;stroke-opacity:1"
       d="m 151.92693,525.42631 c 0.22803,-0.45196 0.51736,-0.54039 0.74674,-0.65544"
       id="path10116" />
    <path
       sodipodi:nodetypes="cc"
       style="fill:none;stroke:#000000;stroke-width:0.5;stroke-linecap:round;stroke-linejoin:round;stroke-miterlimit:4;stroke-dasharray:none;stroke-opacity:1"
       d="m 153.23367,523.27269 c 0.27887,-0.45938 0.28003,-0.54132 0.28003,-0.93637"
       id="path10118" />
    <path
       sodipodi:nodetypes="cc"
       style="fill:none;stroke:#000000;stroke-width:0.5;stroke-linecap:round;stroke-linejoin:round;stroke-miterlimit:4;stroke-dasharray:none;stroke-opacity:1"
       d="m 157.71399,523.45996 c 0.68523,-0.32723 0.47495,-0.57836 0.65337,-0.93634"
       id="path10120" />
    <path
       sodipodi:nodetypes="csssssc"
       style="fill:none;stroke:#000000;stroke-width:0.5;stroke-linecap:round;stroke-linejoin:round;stroke-miterlimit:4;stroke-dasharray:none;stroke-opacity:1"
       d="m 149.14214,513.62811 c 0.84524,0.1696 0.44464,-0.008 1.30673,1.03001 0.33033,0.39764 0.74264,0.46407 1.12006,0.84271 0.69199,0.69421 0.81564,2.89049 -0.6534,2.15366 -0.53131,-0.26652 -0.82078,-0.82343 -1.21336,-1.2173 -0.24397,-0.24466 -0.68509,-0.21902 -0.93343,-0.46818 -0.80874,-0.8113 -0.94707,-2.00974 0.3734,-2.3409 z"
       id="path10122" />
    <path
       sodipodi:nodetypes="ssssssscss"
       style="fill:#000000;fill-opacity:1;stroke:#000000;stroke-width:0.5;stroke-linecap:round;stroke-linejoin:round;stroke-miterlimit:4;stroke-dasharray:none;stroke-opacity:1"
       d="m 145.22187,515.31355 c 0.1122,0 -0.17362,0.15168 -0.28003,0.18723 -1.24009,0.41468 0.58645,0.80219 0.65338,0.93638 0.14051,0.28191 -0.20747,1.01612 0.0932,1.21727 0.76306,0.51038 1.58513,0.6232 2.33349,1.12367 0.50497,0.33775 1.54381,-0.27353 1.40006,-0.56183 -0.29431,-0.5905 -1.3472,-0.49525 -1.86676,-0.84277 -0.42444,-0.28382 -0.57438,-1.48609 -1.02417,-1.79392 -0.4497,-0.30786 -2.03278,-0.26603 -1.30934,-0.26603 z"
       id="path10124" />
    <path
       sodipodi:nodetypes="ssssssssscscssss"
       style="fill:none;stroke:#000000;stroke-width:0.5;stroke-linecap:round;stroke-linejoin:round;stroke-miterlimit:4;stroke-dasharray:none;stroke-opacity:1"
       d="m 139.4499,534.14351 c 0,-1.8233 -2.03003,3.22108 -3.45355,2.62182 -1.08774,-0.45788 0.42818,1.23373 0.74668,1.87272 0.19276,0.3868 -0.28096,0.93539 0,1.21729 0.0578,0.0581 0.37338,0.7373 0.37338,0.74909 0,0.0549 0.24824,0.40642 0.37337,0.28091 0.33521,-0.33629 -0.55129,-2.11949 0.74668,-1.68546 0.35859,0.11983 1.16877,0.99746 0.56007,1.40454 -0.16,0.10702 -1.12012,0.0124 -1.12012,0.28092 0,0.0988 0.18461,0.0697 0.28005,0.0937 2.35497,0.5906 1.49933,-1.93912 2.24015,-2.43458 0.42442,-0.28384 1.21701,-0.005 1.58676,-0.37456 0.45292,-0.45434 -0.71814,-1.12362 -1.02672,-1.12362 -0.99069,0 0.78779,-1.36337 0.56004,-1.59183 -0.63139,-0.63338 -1.86679,-0.4043 -1.86679,-1.31091 z"
       id="path10126" />
    <path
       sodipodi:nodetypes="cc"
       style="fill:none;stroke:#000000;stroke-width:0.5;stroke-linecap:round;stroke-linejoin:round;stroke-miterlimit:4;stroke-dasharray:none;stroke-opacity:1"
       d="m 135.63972,542.73381 c 0.0932,0.31211 0.18666,0.6242 0.28002,0.93636"
       id="path10128" />
    <path
       sodipodi:nodetypes="ccssscsssssssssssssscssssscc"
       style="fill:none;stroke:#000000;stroke-width:0.5;stroke-linecap:round;stroke-linejoin:round;stroke-miterlimit:4;stroke-dasharray:none;stroke-opacity:1"
       d="m 175.54078,530.10817 c 0,0.12487 0.009,0.25006 0,0.37455 -0.12028,1.56833 -1.70171,2.93136 -2.14682,1.59182 -0.14552,-0.43787 -0.0932,-1.03045 -0.0932,-1.49817 0,-2.29094 2.92572,0.0579 3.45355,-2.06003 0.0213,-0.0842 0.0272,-0.47962 0,-0.56181 -0.16785,-0.5051 -1.03039,-0.80144 -1.30675,-1.21725 -0.32445,-0.48819 -0.32828,-0.75555 -0.46672,-1.31096 -0.19605,-0.78677 -0.8535,-1.40451 0.56009,-1.40451 0.48496,0 0.79088,0.60779 1.21338,0.74907 0.50496,0.16884 1.30103,0.18151 1.6801,0.56185 0.50508,0.50664 0.54073,1.15905 0.74674,1.7791 0.38333,1.15363 0.74413,2.68513 -0.74674,3.18367 -0.5216,0.17441 -1.74939,-0.52711 -1.86677,-0.46824 -0.49141,0.24653 0.15345,1.15698 -0.18669,1.49822 -0.41632,0.41763 -2.22352,1.37117 -2.24013,1.40455 -0.40062,0.80373 0.7752,1.39024 1.30674,1.12362 0.45154,-0.22647 0.0287,-1.23162 0.37339,-1.40452 0.42557,-0.21349 0.42982,0.80331 0.37335,1.02998 -0.48625,1.95122 -3.28089,0.13128 -2.7069,2.43457 0.0848,0.34027 0.008,0.66423 0.28007,0.93634 0.59498,0.59689 1.98904,-0.84271 2.52014,-0.84271 0.86021,0 2.22033,0.47814 2.98689,0.0933 1.01826,-0.51072 0.13713,-2.77089 -0.0933,-3.46454 -0.16802,-0.50566 0.16798,-1.17987 0,-1.68547 -0.32657,-0.98284 -2.12469,-0.11587 -2.42684,0.18726 -0.33659,0.33771 -0.22634,-1.03 -1.21337,-1.03 z"
       id="path10130" />
    <path
       sodipodi:nodetypes="cssssssssssc"
       style="fill:none;stroke:#000000;stroke-width:0.5;stroke-linecap:round;stroke-linejoin:round;stroke-miterlimit:4;stroke-dasharray:none;stroke-opacity:1"
       d="m 182.3935,543.01217 c -1.03046,-1.46643 -1.7479,-2.90271 -3.64029,-2.90271 -0.31482,0 -0.44397,-0.15184 -0.74669,0 -1.04645,0.52487 -1.60055,2.36161 -2.14681,3.18364 -0.60124,0.90478 -2.46521,2.03819 -1.96015,3.55822 0.37208,1.11975 4.48349,1.37229 5.50702,1.02999 1.558,-0.52101 -0.61764,-2.29313 -0.93339,-2.71551 -0.18507,-0.24754 -0.44219,-0.11353 -0.55999,-0.46817 -0.0848,-0.25519 0.67594,-1.98899 0.74669,-2.06 0.38382,-0.38502 1.31512,0.74491 1.86679,0.4682 0.246,-0.12338 0.38594,-0.8364 0.56006,-0.7491 0.72023,0.36128 0.1102,0.65544 1.30676,0.65544 z"
       id="path10132" />
    <path
       sodipodi:nodetypes="ssssssssssssscssss"
       style="fill:none;stroke:#000000;stroke-width:0.5;stroke-linecap:round;stroke-linejoin:round;stroke-miterlimit:4;stroke-dasharray:none;stroke-opacity:1"
       d="m 173.03643,546.20998 c 0,-0.74328 -1.16689,-0.60858 -1.8668,-0.37457 -0.87164,0.29148 -0.31954,2.00601 -0.84006,2.52821 -0.52932,0.531 -0.75119,0.8382 0,1.59182 0.35697,0.35811 0.99506,0.1555 1.40009,0.56183 0.51509,0.51668 0.72092,1.36567 1.12007,1.96638 0.76719,1.15444 4.94037,5.24032 6.0671,5.80546 0.31866,0.15984 0.70361,-0.23621 0.93341,-0.37451 0.5902,-0.35524 2.09944,-1.73452 1.86679,-2.43461 -0.17059,-0.51342 -0.71131,-0.89109 -0.56003,-1.49813 0.14817,-0.59454 1.21961,-1.11746 0.1867,-2.15368 -0.3096,-0.31055 -0.57724,-0.30638 -0.93343,-0.18724 -1.62387,0.54297 -1.34127,1.43915 -2.3335,2.4345 -0.17747,0.17808 -1.29525,0.19117 -1.5868,0.0936 -0.90131,-0.30142 -3.1671,-4.38812 -3.64024,-5.33732 -0.094,-0.18891 0.58618,-0.82774 0.6534,-1.03002 0.15707,-0.47265 -0.4667,-1.14533 -0.4667,-1.5918 z"
       id="path10134" />
    <path
       sodipodi:nodetypes="cscssc"
       style="fill:#000000;fill-opacity:1;stroke:#000000;stroke-width:0.5;stroke-linecap:round;stroke-linejoin:round;stroke-miterlimit:4;stroke-dasharray:none;stroke-opacity:1"
       d="m 169.75617,556.41091 c -0.6077,0.0272 -0.80978,-0.73696 -1.30678,-0.93637 -0.20182,-0.0812 -0.48766,0.12077 -0.65336,0.18724 -1.13052,0.45366 0.63734,2.29899 1.12009,2.62186 0.5999,0.40121 2.34201,-0.24657 2.14679,-1.03001 -0.15366,-0.6167 -0.90224,-0.53837 -1.30674,-0.84272 z"
       id="path10136" />
    <path
       sodipodi:nodetypes="cssc"
       style="fill:none;stroke:#000000;stroke-width:0.5;stroke-linecap:round;stroke-linejoin:round;stroke-miterlimit:4;stroke-dasharray:none;stroke-opacity:1"
       d="m 174.91922,559.64985 c -0.13494,1.13928 -1.32497,0.0182 -1.68012,0.37456 -0.30808,0.30904 0.18765,0.74911 0.46671,0.74911 0.44349,0 0.92237,-0.8317 1.21341,-1.12367 z"
       id="path10138" />
    <path
       sodipodi:nodetypes="sssssssss"
       style="fill:none;stroke:#000000;stroke-width:0.5;stroke-linecap:round;stroke-linejoin:round;stroke-miterlimit:4;stroke-dasharray:none;stroke-opacity:1"
       d="m 176.57518,561.17333 c -1.13788,0 -0.9056,0.91776 -1.49342,1.31092 -0.46778,0.31284 -2.08674,0.8827 -2.24015,1.49817 -0.24175,0.97014 4.04811,3.14907 4.76031,2.43457 0.38751,-0.38873 0.93788,-0.6644 1.21343,-1.2173 0.47135,-0.94569 -1.13877,-2.28474 -1.49344,-2.99635 -0.10181,-0.20419 0.26804,-0.57386 0.0933,-0.74908 -0.2305,-0.23126 -0.41791,-0.28093 -0.84004,-0.28093 z"
       id="path10140" />
    <path
       sodipodi:nodetypes="sssscsss"
       style="fill:none;stroke:#000000;stroke-width:0.5;stroke-linecap:round;stroke-linejoin:round;stroke-miterlimit:4;stroke-dasharray:none;stroke-opacity:1"
       d="m 185.71933,560.88252 c 0,1.00449 -1.62912,-0.051 -2.14683,0.46817 -0.31904,0.32006 0.47897,0.97166 0.65342,1.03001 0.85204,0.2849 2.78273,0.57058 3.73355,0.0933 0.1942,-0.0972 0.13381,-0.21528 0.18672,-0.37451 0.28207,-0.84904 -0.28659,-0.89281 -0.93344,-1.21726 -0.81819,-0.4104 -1.49342,-1.38795 -1.49342,0 z"
       id="path10142" />
    <path
       sodipodi:nodetypes="csssssssssssssssssc"
       style="fill:none;stroke:#000000;stroke-width:0.5;stroke-linecap:round;stroke-linejoin:round;stroke-miterlimit:4;stroke-dasharray:none;stroke-opacity:1"
       d="m 178.04555,567.98353 c -1.27527,-0.0971 -2.58545,-0.32541 -3.64025,0.46818 -0.66515,0.50047 -1.18126,1.76296 -1.77345,2.06003 -0.48891,0.24524 -0.98792,-0.35631 -1.49343,-0.18728 -0.86321,0.28862 -0.81145,2.55688 -0.37335,2.99638 0.39016,0.39142 1.2308,-0.12852 1.40012,-0.46819 0.20068,-0.40272 -0.30402,-1.56777 0,-1.87274 0.32808,-0.32913 0.79684,0.70111 1.21336,0.56182 0.61126,-0.20438 1.24844,-0.71981 1.68014,-0.93638 0.88482,-0.4438 2.63869,0.81304 3.64023,0.56183 0.992,-0.24876 0.27128,-1.30649 0.65341,-1.49819 0.44891,-0.22518 0.82573,0.27134 1.12007,0.46819 0.25666,0.17164 1.30478,0.516 1.58678,0.37455 0.20378,-0.1023 0.41498,-0.48907 0.56004,-0.56182 0.82547,-0.41403 3.17855,0.39454 2.70686,-1.49821 -0.25878,-1.03844 -1.69865,0.075 -2.1468,-0.37455 -0.17722,-0.17772 -0.38664,-0.66206 -0.56006,-0.74907 -1.04889,-0.5261 -1.48729,-0.0498 -2.33351,0.37454 -0.64965,0.32587 -1.67867,0.28091 -2.24016,0.28091 z"
       id="path10144" />
    <path
       sodipodi:nodetypes="cssssssc"
       style="fill:none;fill-opacity:1;stroke:#000000;stroke-width:0.5;stroke-linecap:round;stroke-linejoin:round;stroke-miterlimit:4;stroke-dasharray:none;stroke-opacity:1"
       d="m 161.29641,567.68469 c -0.69469,-1.19647 1.95516,-1.69048 2.14679,-1.4982 0.19013,0.1907 0.22917,0.69805 0.37337,0.8427 0.37754,0.37877 1.8716,-0.38418 1.12008,1.12366 -0.21199,0.42533 -1.22776,0.40337 -1.40006,0.7491 -0.18949,0.38012 0.20706,1.68545 -0.46674,1.68545 -0.55628,0 -0.53947,-1.45687 -0.74672,-1.87273 -0.19052,-0.3823 -0.75218,-0.7546 -1.02672,-1.02998 z"
       id="path10146" />
    <path
       sodipodi:nodetypes="sssscssssssssssss"
       style="fill:none;fill-opacity:1;stroke:#000000;stroke-width:0.5;stroke-linecap:round;stroke-linejoin:round;stroke-miterlimit:4;stroke-dasharray:none;stroke-opacity:1"
       d="m 159.43438,568.29057 c 0,-2.09422 -0.86671,1.03983 -1.56231,1.71267 -0.64786,0.62664 -1.39235,2.58748 -2.29141,3.02232 -0.49537,0.23955 -3.02046,1.30125 -3.02046,1.71265 0,0.0748 0.17355,-0.0337 0.20827,-0.10074 0.20286,-0.39236 0.85706,-0.86353 1.04155,-1.30964 0.41001,-0.99142 0.98909,-3.17306 1.77064,-3.92901 0.8985,-0.86907 2.0903,-1.67275 2.81217,-2.72009 0.46205,-0.67036 2.05595,-4.04583 2.49973,-4.332 1.4025,-0.90439 2.88143,-2.25009 4.16618,-1.00747 0.0756,0.0733 0.30721,0.71538 0.20828,0.90672 -0.19201,0.37148 -0.431,0.73307 -0.62489,1.10821 -0.19228,0.37186 -0.86209,0.45873 -1.04154,0.80594 -0.17532,0.33904 -0.0929,0.79497 -0.41665,1.10818 -0.32659,0.31588 -0.66937,0.163 -1.04153,0.40298 -1.13062,0.72908 -2.70803,4.00489 -2.70803,2.61933 z"
       id="path10148" />
    <path
       sodipodi:nodetypes="cssc"
       style="fill:none;stroke:#000000;stroke-width:0.5;stroke-linecap:round;stroke-linejoin:round;stroke-miterlimit:4;stroke-dasharray:none;stroke-opacity:1"
       d="m 142.30362,565.25568 c 1.67046,-0.062 0.14885,-2.54676 -0.7467,-2.24727 -0.27983,0.0936 -0.28003,0.31421 -0.28003,0.56182 0,0.96005 0.23599,1.09049 1.02673,1.68545 z"
       id="path10150" />
    <path
       sodipodi:nodetypes="csc"
       style="fill:none;stroke:#000000;stroke-width:0.5;stroke-linecap:round;stroke-linejoin:round;stroke-miterlimit:4;stroke-dasharray:none;stroke-opacity:1"
       d="m 142.16304,568.15248 c -1.4101,-0.83606 -1.88122,2.14643 -1.12006,2.52819 1.01002,0.50662 1.84545,-1.80053 1.12006,-2.52819 z"
       id="path10152" />
    <path
       sodipodi:nodetypes="cc"
       style="fill:none;stroke:#000000;stroke-width:0.5;stroke-linecap:round;stroke-linejoin:round;stroke-miterlimit:4;stroke-dasharray:none;stroke-opacity:1"
       d="m 142.43072,573.28368 c -0.57869,0.13648 -1.77346,-0.43319 -1.77346,0.28091"
       id="path10154" />
    <path
       sodipodi:nodetypes="cc"
       style="fill:none;stroke:#000000;stroke-width:0.5;stroke-linecap:round;stroke-linejoin:round;stroke-miterlimit:4;stroke-dasharray:none;stroke-opacity:1"
       d="m 138.78142,577.02021 c 0.66624,1.22498 -0.93339,0.85468 -0.93339,1.49821"
       id="path10156" />
    <path
       sodipodi:nodetypes="cssscsssssc"
       style="fill:none;stroke:#000000;stroke-width:0.5;stroke-linecap:round;stroke-linejoin:round;stroke-miterlimit:4;stroke-dasharray:none;stroke-opacity:1"
       d="m 140.08816,580.01659 c -1.11624,0.69121 -3.46883,1.7485 -2.70686,3.27729 0.0339,0.0673 0.21614,0.26613 0.37335,0.18727 0.45069,-0.22605 0.15346,-0.62215 0.3734,-0.84272 0.24047,-0.24127 0.94677,-0.12038 1.21337,-0.1873 1.01968,-0.25567 0.83606,0.94041 1.40012,0.37457 0.16847,-0.169 0.48492,-0.11191 0.65336,-0.2809 0.14167,-0.1421 1.22071,-1.77181 0.93343,-2.06001 -0.12096,-0.12133 -0.4572,-0.21981 -0.56007,-0.37455 -0.19204,-0.28902 -0.0683,-0.59606 -0.37336,-0.7491 -0.42914,-0.21525 -0.92805,0.56048 -1.30674,0.65545 z"
       id="path10158" />
    <path
       sodipodi:nodetypes="cc"
       style="fill:none;stroke:#000000;stroke-width:0.5;stroke-linecap:round;stroke-linejoin:round;stroke-miterlimit:4;stroke-dasharray:none;stroke-opacity:1"
       d="m 151.75561,588.53752 c -0.55729,1.01927 0.0932,0.60292 0.0932,1.2173"
       id="path10160" />
    <g
       id="g212"
       sodipodi:insensitive="true">
      <text
         transform="scale(0.99730847,1.0026988)"
         id="text10278-9-3"
         y="447.19849"
         x="50.622173"
         style="font-style:normal;font-variant:normal;font-weight:normal;font-stretch:normal;font-size:12px;line-height:11.89999962px;font-family:STIXGeneral;-inkscape-font-specification:STIXGeneral;text-align:start;letter-spacing:-0.2px;word-spacing:0px;text-anchor:start;fill:#000000;fill-opacity:1;stroke:none;stroke-width:1.00079"
         xml:space="preserve"><tspan
           id="tspan9066"
           style="font-style:normal;font-variant:normal;font-weight:normal;font-stretch:normal;font-size:12px;font-family:STIXGeneral;-inkscape-font-specification:STIXGeneral;stroke-width:1.00079"
           y="447.19849"
           x="50.622173"
           sodipodi:role="line">Critical Habitat for</tspan><tspan
           style="font-style:italic;font-variant:normal;font-weight:normal;font-stretch:normal;font-size:12px;font-family:STIXGeneral;-inkscape-font-specification:'STIXGeneral Italic';stroke-width:1.00079"
           y="459.09848"
           x="50.622173"
           sodipodi:role="line"
           id="tspan51811">  Melicope zahlbruckneri -- b</tspan></text>
      <text
         transform="scale(0.99730847,1.0026988)"
         id="text10278-9-3-2"
         y="478.86343"
         x="51.525566"
         style="font-style:normal;font-variant:normal;font-weight:normal;font-stretch:normal;font-size:12px;line-height:12.89999962px;font-family:STIXGeneral;-inkscape-font-specification:STIXGeneral;text-align:start;letter-spacing:-0.2px;word-spacing:0px;text-anchor:start;fill:#000000;fill-opacity:1;stroke:none;stroke-width:1.00079"
         xml:space="preserve"><tspan
           style="font-size:12px;fill:#000000;fill-opacity:1;stroke-width:1.00079"
           id="tspan10364-8"
           y="478.86343"
           x="51.525566"
           sodipodi:role="line">Elevation (1,000-ft. contours)</tspan></text>
      <text
         xml:space="preserve"
         style="font-style:normal;font-variant:normal;font-weight:normal;font-stretch:normal;font-size:12px;line-height:12.89999962px;font-family:STIXGeneral;-inkscape-font-specification:STIXGeneral;text-align:start;letter-spacing:-0.2px;word-spacing:0px;text-anchor:start;fill:#000000;fill-opacity:1;stroke:none;stroke-width:1.00079"
         x="51.094906"
         y="499.18399"
         id="text10278-9-3-1"
         transform="scale(0.99730847,1.0026988)"><tspan
           sodipodi:role="line"
           x="51.094906"
           y="499.18399"
           id="tspan10364-5"
           style="font-size:12px;stroke-width:1.00079">Major Road</tspan></text>
      <text
         xml:space="preserve"
         style="font-style:normal;font-variant:normal;font-weight:normal;font-stretch:normal;font-size:12px;line-height:12.89999962px;font-family:STIXGeneral;-inkscape-font-specification:STIXGeneral;text-align:start;letter-spacing:-0.2px;word-spacing:0px;text-anchor:start;fill:#000000;fill-opacity:1;stroke:none;stroke-width:1.00079"
         x="51.393841"
         y="518.73102"
         id="text10278-9-3-8"
         transform="scale(0.99730847,1.0026988)"><tspan
           sodipodi:role="line"
           x="51.393841"
           y="518.73102"
           id="tspan10364-82"
           style="font-size:12px;stroke-width:1.00079">Coastline</tspan></text>
      <text
         xml:space="preserve"
         style="font-style:normal;font-variant:normal;font-weight:normal;font-stretch:normal;font-size:12px;line-height:12.89999962px;font-family:STIXGeneral;-inkscape-font-specification:STIXGeneral;text-align:start;letter-spacing:-0.2px;word-spacing:0px;text-anchor:start;fill:#000000;fill-opacity:1;stroke:none;stroke-width:1.00079"
         x="51.195011"
         y="429.26968"
         id="text10278-9-3-81"
         transform="scale(0.99730847,1.0026988)"><tspan
           sodipodi:role="line"
           x="51.195011"
           y="429.26968"
           style="font-style:normal;font-variant:normal;font-weight:normal;font-stretch:normal;font-size:12px;font-family:STIXGeneral;-inkscape-font-specification:STIXGeneral;fill:#000000;fill-opacity:1;stroke-width:1.00079"
           id="tspan9070-1">Critical Habitat Unit 26</tspan></text>
      <text
         xml:space="preserve"
         style="font-style:normal;font-variant:normal;font-weight:normal;font-stretch:normal;font-size:8px;line-height:6.9200201px;font-family:STIXGeneral;-inkscape-font-specification:STIXGeneral;text-align:start;letter-spacing:-0.38px;word-spacing:0px;text-anchor:start;fill:#000000;fill-opacity:1;stroke:none;stroke-width:1.00079"
         x="99.362411"
         y="559.95477"
         id="text10278-9-3-8-5-1"
         transform="scale(0.99730847,1.0026988)"><tspan
           sodipodi:role="line"
           x="99.362411"
           y="559.95477"
           id="tspan10364-82-5-4"
           style="font-size:8px;stroke-width:1.00079">Miles</tspan></text>
      <text
         transform="scale(0.99730847,1.0026988)"
         id="text10278-9-3-8-5-1-9"
         y="560.19788"
         x="14.257844"
         style="font-style:normal;font-variant:normal;font-weight:normal;font-stretch:normal;font-size:8px;line-height:6.9200201px;font-family:STIXGeneral;-inkscape-font-specification:STIXGeneral;text-align:start;letter-spacing:0px;word-spacing:0px;text-anchor:start;fill:#000000;fill-opacity:1;stroke:none;stroke-width:1.00079"
         xml:space="preserve"><tspan
           style="font-size:8px;stroke-width:1.00079"
           id="tspan10364-82-5-4-4"
           y="560.19788"
           x="14.257844"
           sodipodi:role="line">0</tspan></text>
      <text
         transform="scale(0.99730847,1.0026988)"
         id="text10278-9-3-8-5-1-96"
         y="560.05524"
         x="49.476822"
         style="font-style:normal;font-variant:normal;font-weight:normal;font-stretch:normal;font-size:8px;line-height:6.9200201px;font-family:STIXGeneral;-inkscape-font-specification:STIXGeneral;text-align:start;letter-spacing:0px;word-spacing:0px;text-anchor:start;fill:#000000;fill-opacity:1;stroke:none;stroke-width:1.00079"
         xml:space="preserve"><tspan
           style="font-size:8px;stroke-width:1.00079"
           id="tspan10364-82-5-4-9"
           y="560.05524"
           x="49.476822"
           sodipodi:role="line">2.5</tspan></text>
      <text
         transform="scale(0.99730847,1.0026988)"
         id="text10278-9-3-8-5-1-4"
         y="560.02728"
         x="91.070427"
         style="font-style:normal;font-variant:normal;font-weight:normal;font-stretch:normal;font-size:8px;line-height:6.9200201px;font-family:STIXGeneral;-inkscape-font-specification:STIXGeneral;text-align:start;letter-spacing:0px;word-spacing:0px;text-anchor:start;fill:#000000;fill-opacity:1;stroke:none;stroke-width:1.00079"
         xml:space="preserve"><tspan
           style="font-size:8px;stroke-width:1.00079"
           id="tspan10364-82-5-4-44"
           y="560.02728"
           x="91.070427"
           sodipodi:role="line">5</tspan></text>
      <text
         transform="scale(0.99973647,1.0002636)"
         xml:space="preserve"
         style="font-style:italic;font-variant:normal;font-weight:normal;font-stretch:normal;font-size:6.72054005px;line-height:8.44771004px;font-family:Arial;-inkscape-font-specification:'Arial Italic';text-align:start;letter-spacing:0.30242401px;text-anchor:start;stroke-width:1.00782001"
         x="67.061378"
         y="261.19348"
         id="text9935-6"><tspan
           id="tspan5268"
           style="font-size:6.72054005px;text-align:start;text-anchor:start;stroke-width:1.00782001"
           sodipodi:role="line"
           x="67.061378"
           y="261.19348">Puu</tspan><tspan
           style="font-size:6.72054005px;text-align:start;text-anchor:start;stroke-width:1.00782001"
           sodipodi:role="line"
           x="67.061378"
           y="269.6412"
           id="tspan11486">Koae</tspan></text>
      <text
         xml:space="preserve"
         style="font-style:italic;font-variant:normal;font-weight:normal;font-stretch:normal;font-size:6.72054005px;line-height:7.94289017px;font-family:Arial;-inkscape-font-specification:'Arial Italic';text-align:start;letter-spacing:0.30242401px;text-anchor:start;stroke-width:1.00782001"
         x="21.367477"
         y="347.86713"
         id="text9935-0-0-8"
         transform="matrix(0.94487755,-0.32663213,0.32670908,0.94539903,0,0)"><tspan
           style="font-style:italic;font-variant:normal;font-weight:normal;font-stretch:normal;font-size:6.72054005px;font-family:Arial;-inkscape-font-specification:'Arial Italic';stroke-width:1.00782001"
           sodipodi:role="line"
           x="21.367477"
           y="347.86713"
           id="tspan9937-8-9-2">2000</tspan></text>
      <text
         transform="scale(0.99730847,1.0026988)"
         id="text10278-9-3-8-5-1-2"
         y="578.44354"
         x="70.604179"
         style="font-style:normal;font-variant:normal;font-weight:normal;font-stretch:normal;font-size:8px;line-height:6.9200201px;font-family:STIXGeneral;-inkscape-font-specification:STIXGeneral;text-align:start;letter-spacing:-0.38px;word-spacing:0px;text-anchor:start;fill:#000000;fill-opacity:1;stroke:none;stroke-width:1.00079"
         xml:space="preserve"><tspan
           style="font-size:8px;stroke-width:1.00079"
           id="tspan10364-82-5-4-43"
           y="578.44354"
           x="70.604179"
           sodipodi:role="line">Kilometers</tspan></text>
      <text
         xml:space="preserve"
         style="font-style:normal;font-variant:normal;font-weight:normal;font-stretch:normal;font-size:8px;line-height:6.9200201px;font-family:STIXGeneral;-inkscape-font-specification:STIXGeneral;text-align:start;letter-spacing:0px;word-spacing:0px;text-anchor:start;fill:#000000;fill-opacity:1;stroke:none;stroke-width:1.00079"
         x="14.231674"
         y="578.61322"
         id="text10278-9-3-8-5-1-9-3"
         transform="scale(0.99730847,1.0026988)"><tspan
           sodipodi:role="line"
           x="14.231674"
           y="578.61322"
           id="tspan10364-82-5-4-4-4"
           style="font-size:8px;stroke-width:1.00079">0</tspan></text>
      <text
         xml:space="preserve"
         style="font-style:normal;font-variant:normal;font-weight:normal;font-stretch:normal;font-size:8px;line-height:6.9200201px;font-family:STIXGeneral;-inkscape-font-specification:STIXGeneral;text-align:start;letter-spacing:0px;word-spacing:0px;text-anchor:start;fill:#000000;fill-opacity:1;stroke:none;stroke-width:1.00079"
         x="34.949486"
         y="578.88165"
         id="text10278-9-3-8-5-1-96-0"
         transform="scale(0.99730847,1.0026988)"><tspan
           sodipodi:role="line"
           x="34.949486"
           y="578.88165"
           id="tspan10364-82-5-4-9-9"
           style="font-size:8px;stroke-width:1.00079">2.5</tspan></text>
      <text
         xml:space="preserve"
         style="font-style:normal;font-variant:normal;font-weight:normal;font-stretch:normal;font-size:8px;line-height:6.9200201px;font-family:STIXGeneral;-inkscape-font-specification:STIXGeneral;text-align:start;letter-spacing:0px;word-spacing:0px;text-anchor:start;fill:#000000;fill-opacity:1;stroke:none;stroke-width:1.00079"
         x="61.814804"
         y="578.40424"
         id="text10278-9-3-8-5-1-4-2"
         transform="scale(0.99730847,1.0026988)"><tspan
           sodipodi:role="line"
           x="61.814804"
           y="578.40424"
           id="tspan10364-82-5-4-44-4"
           style="font-size:8px;stroke-width:1.00079">5</tspan></text>
      <text
         id="text9935-2-4"
         style="font-style:italic;font-variant:normal;font-weight:normal;font-stretch:normal;font-size:6.72054005px;line-height:8.44771004px;font-family:Arial;-inkscape-font-specification:'Arial Italic';text-align:start;letter-spacing:0.30242401px;text-anchor:start;stroke-width:1.00782001"
         xml:space="preserve"
         x="78.693573"
         y="102.45338"><tspan
           style="stroke-width:1.00782001"
           sodipodi:role="line"
           id="tspan11489"
           x="78.693573"
           y="102.45338"><tspan
             id="tspan21850"
             style="font-size:6.72054005px;stroke-width:1.00782001">Puu</tspan></tspan><tspan
           style="stroke-width:1.00782001"
           sodipodi:role="line"
           id="tspan11491"
           x="78.693573"
           y="110.90108">Lalaau</tspan></text>
      <text
         y="206.59027"
         x="194.76944"
         xml:space="preserve"
         style="font-style:italic;font-variant:normal;font-weight:normal;font-stretch:normal;font-size:6.66666985px;line-height:7.87922001px;font-family:Arial;-inkscape-font-specification:'Arial Italic';text-align:end;letter-spacing:0.30000001px;text-anchor:end;stroke-width:0.99973702"
         id="text9935-2-2-3"><tspan
           y="206.59027"
           x="195.06944"
           id="tspan4805"
           sodipodi:role="line"><tspan
             style="font-size:6.66666985px;text-align:end;text-anchor:end;stroke-width:0.99973702"
             id="tspan16861-0-7">Kilauea</tspan></tspan><tspan
           y="214.4695"
           x="195.06944"
           id="tspan4807"
           sodipodi:role="line">Crater</tspan></text>
      <text
         transform="matrix(0.91778822,-0.3964176,0.39653335,0.91830248,0,0)"
         id="text9935-0-0-8-3"
         y="374.30508"
         x="-2.0641472"
         style="font-style:italic;font-variant:normal;font-weight:normal;font-stretch:normal;font-size:6.72054005px;line-height:7.94289017px;font-family:Arial;-inkscape-font-specification:'Arial Italic';text-align:start;letter-spacing:0.30242401px;text-anchor:start;stroke-width:1.00782001"
         xml:space="preserve"><tspan
           id="tspan9937-8-9-2-3"
           y="374.30508"
           x="-2.0641472"
           sodipodi:role="line"
           style="font-style:italic;font-variant:normal;font-weight:normal;font-stretch:normal;font-size:6.72054005px;font-family:Arial;-inkscape-font-specification:'Arial Italic';stroke-width:1.00782001">1000</tspan></text>
      <text
         xml:space="preserve"
         style="font-style:normal;font-variant:normal;font-weight:bold;font-stretch:normal;font-size:13.33329964px;line-height:15.68000031px;font-family:STIXGeneral;-inkscape-font-specification:'STIXGeneral Bold';text-align:center;letter-spacing:0.201616px;word-spacing:0.25195399px;text-anchor:middle;fill:#000000;fill-opacity:1;stroke:none;stroke-width:1.01084006;stroke-opacity:1"
         x="111.47651"
         y="23.285353"
         id="text10278-3-3"
         transform="scale(0.9991093,1.0008915)"><tspan
           id="tspan10241"
           sodipodi:role="line"
           x="111.57732"
           y="23.285353"
           style="font-style:italic;font-variant:normal;font-weight:bold;font-stretch:normal;font-size:13.33329964px;font-family:STIXGeneral;-inkscape-font-specification:'STIXGeneral Bold Italic';text-align:center;text-anchor:middle;fill:#000000;fill-opacity:1;stroke:none;stroke-width:1.01084006;stroke-opacity:1"><tspan
             style="font-style:normal;font-variant:normal;font-weight:bold;font-stretch:normal;font-size:13.33329964px;font-family:STIXGeneral;-inkscape-font-specification:'STIXGeneral Bold';text-align:center;text-anchor:middle;fill:#000000;fill-opacity:1;stroke:none;stroke-width:1.01084006;stroke-opacity:1"
             id="tspan360">Map 85   Unit 26</tspan></tspan><tspan
           id="tspan366"
           sodipodi:role="line"
           x="111.57732"
           y="38.965351"
           style="font-style:italic;font-variant:normal;font-weight:bold;font-stretch:normal;font-size:13.33329964px;font-family:STIXGeneral;-inkscape-font-specification:'STIXGeneral Bold Italic';text-align:center;text-anchor:middle;fill:#000000;fill-opacity:1;stroke:none;stroke-width:1.01084006;stroke-opacity:1">Melicope zahlbruckneri -- b</tspan></text>
      <text
         transform="matrix(0.81008332,-0.58587298,0.5860974,0.81056028,0,0)"
         id="text9935-0-0-8-0"
         y="197.313"
         x="-74.723541"
         style="font-style:italic;font-variant:normal;font-weight:normal;font-stretch:normal;font-size:6.72054005px;line-height:7.94289017px;font-family:Arial;-inkscape-font-specification:'Arial Italic';text-align:start;letter-spacing:0.30242401px;text-anchor:start;stroke-width:1.00782001"
         xml:space="preserve"><tspan
           id="tspan9937-8-9-2-36"
           y="197.313"
           x="-74.723541"
           sodipodi:role="line"
           style="font-style:italic;font-variant:normal;font-weight:normal;font-stretch:normal;font-size:6.72054005px;font-family:Arial;-inkscape-font-specification:'Arial Italic';stroke-width:1.00782001">4000</tspan></text>
      <text
         transform="matrix(0.96206953,0.27185354,-0.27208839,0.96254146,0,0)"
         id="text9935-0-0-8-6"
         y="249.69366"
         x="174.33733"
         style="font-style:italic;font-variant:normal;font-weight:normal;font-stretch:normal;font-size:6.72054005px;line-height:7.94289017px;font-family:Arial;-inkscape-font-specification:'Arial Italic';text-align:start;letter-spacing:0.30242401px;text-anchor:start;stroke-width:1.00782001"
         xml:space="preserve"><tspan
           id="tspan9937-8-9-2-1"
           y="249.69366"
           x="174.33733"
           sodipodi:role="line"
           style="font-style:italic;font-variant:normal;font-weight:normal;font-stretch:normal;font-size:6.72054005px;font-family:Arial;-inkscape-font-specification:'Arial Italic';stroke-width:1.00782001">3000</tspan></text>
      <text
         y="-112.39931"
         x="-107.36652"
         id="text9935-0-0-8-8"
         style="font-style:normal;font-variant:normal;font-weight:normal;font-stretch:normal;font-size:6.66666985px;line-height:7.87922001px;font-family:Arial;-inkscape-font-specification:Arial;text-align:start;letter-spacing:0.60000002px;text-anchor:start;stroke-width:0.99973702"
         xml:space="preserve"
         transform="translate(-1.3769652,-1.0782779)"><textPath
           id="textPath16500"
           xlink:href="#path16498"><tspan
   style="font-style:normal;font-variant:normal;font-weight:normal;font-stretch:normal;font-size:6.66666985px;font-family:Arial;-inkscape-font-specification:Arial;stroke-width:0.99973702"
   id="tspan9937-8-9-2-7">Chain of</tspan></textPath></text>
      <path
         sodipodi:nodetypes="csc"
         id="path16498"
         d="m 189.12596,264.95012 c 1.79013,4.58471 3.00493,7.12532 5.79291,10.90494 2.84861,3.86186 10.08621,8.77698 14.07156,10.88406"
         style="fill:none;fill-opacity:1;stroke:none;stroke-width:0.50300002;stroke-linecap:butt;stroke-linejoin:miter;stroke-miterlimit:4;stroke-dasharray:none;stroke-opacity:1"
         inkscape:connector-curvature="0" />
      <text
         transform="translate(-1.772451,-0.27741694)"
         xml:space="preserve"
         style="font-style:normal;font-variant:normal;font-weight:normal;font-stretch:normal;font-size:6.66666985px;line-height:7.87922001px;font-family:Arial;-inkscape-font-specification:Arial;text-align:start;letter-spacing:0.60000002px;text-anchor:start;stroke-width:0.99973702"
         id="text9935-0-0-8-8-3"><textPath
           id="textPath16513"
           xlink:href="#path16511"><tspan
   id="tspan9937-8-9-2-7-4"
   style="font-style:normal;font-variant:normal;font-weight:normal;font-stretch:normal;font-size:6.66666985px;font-family:Arial;-inkscape-font-specification:Arial;stroke-width:0.99973702">Craters Rd</tspan></textPath></text>
      <path
         sodipodi:nodetypes="csc"
         id="path16511"
         d="m 175.16153,267.15856 c 2.23497,6.29622 5.9117,12.27037 10.00111,17.05792 3.72191,4.35733 8.63894,7.93018 13.88147,11.33274"
         style="fill:none;stroke:none;stroke-width:0.50300002;stroke-linecap:butt;stroke-linejoin:miter;stroke-miterlimit:4;stroke-dasharray:none;stroke-opacity:1"
         inkscape:connector-curvature="0" />
      <text
         transform="translate(-2.2875228,-1.3099114)"
         xml:space="preserve"
         style="font-style:normal;font-variant:normal;font-weight:normal;font-stretch:normal;font-size:6.66666985px;line-height:7.87922001px;font-family:Arial;-inkscape-font-specification:Arial;text-align:start;letter-spacing:0.33000001px;text-anchor:start;stroke-width:0.99973702"
         id="text9935-0-0-8-8-5"><textPath
           id="textPath16526"
           xlink:href="#path16524"><tspan
   id="tspan9937-8-9-2-7-7"
   style="font-style:normal;font-variant:normal;font-weight:normal;font-stretch:normal;font-size:6.66666985px;font-family:Arial;-inkscape-font-specification:Arial;stroke-width:0.99973702">Old Volcano Rd</tspan></textPath></text>
      <path
         sodipodi:nodetypes="ccccc"
         id="path16524"
         d="m 170.41415,195.65576 8.85752,-9.36631 11.94731,-8.25255 11.57356,-6.25756 10.53685,-3.31002"
         style="fill:none;stroke:none;stroke-width:0.50300002;stroke-linecap:butt;stroke-linejoin:miter;stroke-miterlimit:4;stroke-dasharray:none;stroke-opacity:1"
         inkscape:connector-curvature="0" />
      <text
         id="text9935-2-2-3-4"
         style="font-style:italic;font-variant:normal;font-weight:normal;font-stretch:normal;font-size:6.66666985px;line-height:7.87922001px;font-family:Arial;-inkscape-font-specification:'Arial Italic';text-align:start;letter-spacing:0.30000001px;text-anchor:start;stroke-width:0.99973702"
         xml:space="preserve"
         x="132.57756"
         y="384.25821"><tspan
           id="tspan16861-0-7-1"
           style="font-size:6.66666985px;stroke-width:0.99973702">Pacific Ocean</tspan></text>
    </g>
    <path
       sodipodi:nodetypes="cccccccccccccccccccccccccccccccccccccccccccccccccccccccccccccccccccc"
       inkscape:connector-curvature="0"
       id="path14359-1-7-5-3-0-73-1-9-8-5-9-03-9-8"
       d="m 214.90898,170.57207 -4.0114,0.65352 -4.86952,1.86493 -7.58076,4.67885 -10.06514,5.20752 -17.70189,15.26647 -6.08445,1.4912 -6.53277,-1.38127 -3.69961,3.65344 -1.69485,-0.13911 -2.77859,-4.55011 -0.77249,-3.78281 -0.79954,-2.17281 -2.50602,-0.14878 -6.81214,-1.78265 -9.03012,-0.0207 -3.81796,1.6007 -5.89401,5.80339 -1.78967,5.36373 -1.64783,-0.26634 -0.18887,1.33573 -1.56874,0.16727 -0.27652,0.67322 -2.46326,1.00181 1.11109,2.29021 -2.62515,5.10238 0.79495,2.23713 0.0935,1.06627 4.2563,7.86412 1.66167,0.26848 7.18268,-3.67723 1.78961,0.029 2.27225,1.3835 3.0004,0.3685 2.566,0.8715 1.91263,-0.88588 0.98247,0.20737 10.6167,-6.68538 4.499,0.77649 1.73218,-0.65796 2.61856,-2.44419 6.00283,-1.27124 1.7021,-0.17509 1.07694,0.50778 1.03793,-0.27791 1.22777,-2.32173 -1.59844,-2.38472 -2.32466,-1.80353 -0.59961,-2.54146 -2.21363,-0.76026 -0.1602,-0.82986 -3.69202,-2.93635 -3.15986,-5.57273 -4.25088,-4.73929 -1.82787,0.52956 -0.62591,-1.09524 -9.7397,-2.69338 -2.52121,-0.44453 -7.74695,4.73549 -43.645494,21.41795 -6.82792,6.58879 -5.74923,3.5721 -8.41682,10.0246 -5.51242,4.64255 -7.16128,8.64168 -12.76808,11.57955 -16.14048,18.31028 -15.8237506,23.85205"
       style="fill:none;stroke:#000000;stroke-width:0.5;stroke-linecap:round;stroke-linejoin:round;stroke-miterlimit:4;stroke-dasharray:none;stroke-opacity:1" />
    <path
       sodipodi:nodetypes="ccccccccccccccccccccccccccccccccccccccccccccccccsccccccccccccccccccccccc"
       inkscape:connector-curvature="0"
       id="path14359-1-7-5-3-0-73-1-9-8-5-9-03-8-5"
       d="m 214.95705,169.51803 -2.68412,0.10639 -4.7491,1.41069 -10.21409,5.27312 -9.7468,5.0015 -17.55276,15.68847 -5.36328,1.2269 -1.67136,-0.23929 -5.50421,-1.42831 -3.13563,3.40178 -1.23556,-0.0796 -2.59814,-3.87804 0.25766,-2.84255 3.32716,-0.32261 m -0.85503,-0.95104 -2.24793,-0.14625 -4.69821,-2.24612 -1.56052,0.1853 -6.5943,-1.57637 -9.02156,0.0404 -1.73501,0.98679 -3.37243,1.73184 -5.01232,5.04789 -1.40809,4.45212 -1.84297,0.94619 -1.84713,-0.26374 0.12636,1.65463 -3.23693,1.848 1.26338,2.87773 -2.71922,4.85235 1.18333,3.02513 0.27666,1.38166 4.75754,8.31987 2.09722,0.20533 7.23546,-3.78046 1.86381,0.53344 1.82166,1.43217 2.76463,0.2396 3.32872,1.03513 2.32521,-1.27356 1.08654,0.10744 10.09019,-6.20788 5.11067,0.20228 1.46089,-0.64516 2.74838,-2.1419 7.25792,-1.36235 1.38518,1.06492 0.89727,-0.0309 c 0.7608,-0.95603 1.68244,-2.64867 1.76929,-4.55115 0.0714,-1.56393 -1.01581,-2.73076 -1.85092,-3.88514 l -2.14649,-1.84475 -0.20512,-1.72915 -0.5866,-0.58888 -2.06849,-0.90256 -4.45653,-4.32177 -2.99541,-5.15126 -4.0093,-4.75188 -0.80312,0.25106 -1.11279,-0.86973 -0.91375,0.19031 -10.40018,-3.10387 -2.31727,-0.0336 -8.01147,4.62496 -44.047034,21.88312 -6.94034,6.31777 -5.68945,4.04362 -9.83971,10.86244 -4.50422,3.64556 -6.72081,8.8903 -12.30038,10.63061 -16.50912,18.51457 -15.1682406,22.40052"
       style="fill:none;stroke:#000000;stroke-width:0.5;stroke-linecap:round;stroke-linejoin:round;stroke-miterlimit:4;stroke-dasharray:none;stroke-opacity:1" />
    <path
       sodipodi:nodetypes="ccccssssccssccccccccccccccc"
       inkscape:connector-curvature="0"
       id="path14359-1-7-5-3-0-73-1-9-8-5-9-03-9-1"
       d="m 154.72744,216.85119 -0.23741,7.3554 1.56507,3.91965 4.27327,5.01337 12.67666,17.16398 c 0.62429,0.84527 1.75816,0.88759 3.02994,0.97457 l 2.44243,0.16706 c 1.06558,0.0729 1.85814,0.74578 2.57107,1.58441 l 3.72446,4.38116 0.11866,2.84911 -1.89526,4.76921 c -0.36647,0.92219 -0.4098,2.06648 0.11662,2.99527 l 1.69812,2.99613 1.44579,1.03086 0.28494,1.37716 1.05943,2.72045 4.97853,1.93048 1.14809,2.08849 1.03407,2.08814 2.74826,2.23948 1.17632,1.84749 3.02492,1.25731 1.08513,0.98933 2.0722,3.31075 4.38495,1.28528 3.79548,4.356 1.83288,-0.12852"
       style="fill:none;stroke:#000000;stroke-width:0.5;stroke-linecap:round;stroke-linejoin:round;stroke-miterlimit:4;stroke-dasharray:none;stroke-opacity:1" />
    <path
       sodipodi:nodetypes="ccccsssscccccccccccccccc"
       inkscape:connector-curvature="0"
       id="path14359-1-7-5-3-0-73-1-9-8-5-9-03-8-52"
       d="m 153.26655,217.49635 -0.14402,7.28231 3.11435,5.74448 2.47041,2.70579 13.51601,18.21436 c 0.80508,1.08494 2.26013,1.12629 3.49667,1.15892 l 2.72029,0.0718 c 0.7834,0.0207 1.44272,0.53816 2.05957,1.32139 l 2.9858,3.79112 -0.10061,2.54427 -2.38136,5.78371 2.67886,5.8731 2.33035,1.60671 0.74013,3.38466 5.28124,2.25963 1.31965,3.46606 1.47107,1.24579 2.02127,1.28109 1.28619,2.32971 3.15252,1.43074 2.92238,4.36824 5.07325,1.59439 3.00017,3.7813 2.59946,-0.10293"
       style="fill:none;stroke:#000000;stroke-width:0.5;stroke-linecap:round;stroke-linejoin:round;stroke-miterlimit:4;stroke-dasharray:none;stroke-opacity:1" />
    <path
       style="fill:none;stroke:#000000;stroke-width:1px;stroke-linecap:round;stroke-linejoin:round;stroke-opacity:1"
       d="m 61.116926,406.90912 c 0.0631,-0.54028 -7.2e-4,-1.26556 0.33403,-1.71189 0.1403,-0.18707 0.35488,-0.31834 0.50104,-0.50104 0.18248,-0.22809 0.30708,-0.49127 0.54279,-0.66805 0.25068,-0.188 0.58566,-0.3498 0.75156,-0.6263 0.18467,-0.30778 -0.0428,-0.66591 0.12526,-1.00207 0.19606,-0.39213 0.8528,-0.39352 1.12734,-0.66806 0.29637,-0.29637 0.0547,-1.00548 0.33402,-1.37786 0.071,-0.0946 0.28929,-0.13956 0.37578,-0.20876 0.20433,-0.16347 0.58878,-0.5095 0.70981,-0.75156 0.19353,-0.38706 -0.58517,-0.876 -0.0835,-1.54487 0.34283,-0.45711 0.99958,-0.69749 1.46136,-1.04383 0.56955,-0.42716 1.10455,-0.93796 1.67013,-1.37786 0.46194,-0.35928 0.67866,-0.84567 1.08559,-1.2526 0.22067,-0.22068 0.53256,-0.28204 0.75156,-0.50104 0.15396,-0.15396 0.25275,-0.35602 0.45928,-0.45928 0.38447,-0.19224 1.42592,-0.16466 1.79539,-0.37578 0.27854,-0.15917 0.20727,-0.50019 0.50104,-0.66806 0.29592,-0.16909 0.61702,-0.3085 0.91857,-0.45928 0.43547,-0.21773 0.83099,-0.69606 1.29436,-0.83507 0.46609,-0.13983 0.96519,-0.12186 1.41961,-0.29227 0.58498,-0.21937 1.89566,-0.76832 2.29643,-1.16909 0.30693,-0.30694 0.55298,-0.79841 0.96032,-1.00208 0.19117,-0.0956 1.47071,0.0835 1.83715,0.0835 0.35036,-0.15015 0.49106,-0.22002 0.91857,-0.33402 1.17977,-0.3146 0.059,0.11268 1.37786,-0.37578 0.63896,-0.23665 1.1983,-0.63725 1.83714,-0.87682 0.82055,-0.3077 1.64652,-0.55095 2.33819,-1.12734 0.53108,-0.44257 0.81973,-1.061 1.25259,-1.58662 0.34715,-0.42154 0.84434,-0.70515 1.1691,-1.12734 0.21504,-0.27956 0.32712,-0.57764 0.58454,-0.83506 0.54361,-0.54361 1.64109,-0.868 2.29643,-1.33611 0.70377,-0.50269 0.84661,-1.45016 1.37786,-2.08766 0.25711,-0.30854 1.00656,-0.50603 1.37786,-0.91857 0.36792,-0.40881 0.14052,-0.93558 0.33402,-1.37786 0.1225,-0.28 0.38497,-0.34322 0.58455,-0.54279 0.4152,-0.4152 0.6279,-1.02823 0.96032,-1.50312 0.17081,-0.24401 0.34077,-0.49094 0.5428,-0.70981 0.21341,-0.23119 0.51825,-0.32914 0.7098,-0.58454 0.323854,-0.43181 0.568244,-1.07521 1.043834,-1.37786 0.25795,-0.16415 0.56744,-0.34811 0.83507,-0.50104 0.34633,-0.19791 0.80792,-0.21085 1.12733,-0.45929 0.41947,-0.32625 0.36166,-1.11181 0.6263,-1.54487 0.43459,-0.71113 0.99563,-0.84683 1.71189,-1.08558 0.13918,-0.0696 0.27835,-0.13918 0.41753,-0.20877 0.13918,-0.0417 0.28475,-0.0662 0.41753,-0.12526 0.43389,-0.19284 0.75474,-0.56052 1.12734,-0.83506 0.44965,-0.33132 0.38591,-0.18929 0.87682,-0.45929 0.68064,-0.37435 1.32141,-0.85578 1.9624,-1.29435 0.41164,-0.28165 0.69387,-0.77755 1.1691,-0.96033 0.62842,-0.2417 1.46796,-0.0487 2.12941,-0.0835 0.42468,-0.0224 0.67965,-0.24857 1.08559,-0.33403 0.70557,-0.14854 1.53678,-0.13478 2.25467,-0.0835 0.41947,0.03 0.97417,0.21807 1.37786,0.0835 0.84934,-0.28311 1.01952,-1.45978 1.83715,-1.83714 0.99263,-0.45814 2.04884,-0.23624 3.08974,-0.45929 0.98635,-0.21136 3.7093,-0.82211 4.67636,-0.37578 0.38068,0.1757 0.61844,0.52363 0.96033,0.75156 0.35726,0.18121 0.77135,0.19169 1.12734,0 0.88305,-0.47549 1.48854,-1.72912 2.42169,-1.9624 1.33362,-0.33341 2.71087,-0.0977 4.05006,-0.33403 0.45083,-0.0796 0.71402,-0.47278 1.1691,-0.54279 0.57356,-0.0882 1.38578,0.0485 1.83714,-0.45929 0.23191,-0.2609 0.14909,-0.56205 0.50104,-0.75156 0.28645,-0.15424 0.68369,-0.0803 0.96032,-0.25052 0.73129,-0.45002 0.50983,-1.05574 1.58663,-1.16909 0.95916,-0.10096 2.0428,-0.26966 2.71396,0.58455 0.47169,0.60032 0.64724,1.30063 1.46137,1.54487 0.58637,0.17591 1.69532,0.0283 2.21292,-0.33403 0.46088,-0.32261 0.53459,-1.14542 1.2526,-1.08558 0.62972,0.0525 0.90738,0.93665 1.50311,1.08558 0.17035,0.0426 0.40773,0 0.58455,0 1.12218,0.0654 1.82808,1.48427 2.83922,1.79539 0.99808,0.3071 3.37578,0.19927 4.42585,0.0418 0.91787,-0.13769 1.72687,-0.8005 2.71396,-0.6263 0.64329,0.11352 1.31126,0.24734 1.83715,0.66805 0.7826,0.62608 1.14136,1.23869 2.25467,1.37786 0.82281,0.10285 1.64266,-0.0746 2.46344,0 0.31289,0.0284 0.47465,0.34809 0.75156,0.37578 0.44011,0.044 0.48827,-0.38266 1.04384,-0.0835 0.43299,0.23315 0.31635,0.5492 0.50103,0.91857 0.27773,0.55546 1.02038,0.30685 1.12734,1.00208 0.0721,0.46895 -0.58873,1.37367 -0.20876,1.75364 0.51498,0.51498 1.44545,0.51606 2.12941,0.66805 0.39287,-0.0988 0.79137,0.11018 1.16909,0.20872 0.6865,0.17908 1.42614,0.18863 2.04592,0.54279 0.99908,0.5709 1.72733,1.5544 2.92272,1.75364 0.81095,0.13515 1.13028,-0.81904 2.33819,-0.66806 0.52654,0.0658 1.99557,0.38036 2.37993,0.70981 0.31625,0.27107 0.34959,0.75004 0.79332,0.87682 0.39359,0.11245 1.16018,0.14426 1.54487,0 0.3178,-0.11918 0.22616,-0.47942 0.7098,-0.37578 0.26781,0.0574 0.87488,0.20721 1.08559,0.37578 0.35012,0.28009 0.27023,0.67462 0.75156,0.83506 0.82408,0.2747 1.71565,-0.0498 2.54695,0.12526 0.49439,0.10409 0.63233,0.68302 1.00207,0.96033 0.29118,0.21838 0.91073,0.4078 1.2526,0.50104 0.27198,0.0742 0.59845,-0.0506 0.87682,0 0.60094,0.10926 0.7493,0.87682 1.37786,0.87682 0.33235,0 0.84698,0.092 1.16909,0 0.18489,-0.0528 0.26602,-0.3756 0.37578,-0.50104 0.0865,-0.0988 0.22646,-0.13347 0.33403,-0.20877 0.67329,-0.4713 1.23168,-0.87682 2.08766,-0.87682 1.05525,-0.15302 2.18244,-0.26468 3.25675,-0.16701 0.62032,0.0564 1.28037,0.40869 1.92065,0.29227 0.38507,-0.07 0.50969,-0.44267 0.83507,-0.54279 0.26918,-0.0828 3.50061,-0.1169 3.75779,0 0.70575,0.32079 1.2531,2.31726 1.8789,2.25468 0.4278,-0.0428 0.57647,-0.49296 0.83507,-0.75156 0.39667,-0.39668 1.23045,-1.21434 1.3361,-1.79539 0.0482,-0.26489 -0.0856,-0.61994 0,-0.87682 0.0533,-0.15979 0.22099,-0.19146 0.29227,-0.33403"
       id="path4835" />
    <path
       sodipodi:nodetypes="ccccccccccccccccccccccccccccccccccccccccccccccccc"
       inkscape:connector-curvature="0"
       id="path14359-1-7-5-3-0-73-1-9-8-5-9-6"
       d="m 5.2409854,402.29294 7.0146706,-2.84754 1.73732,-1.49198 2.53061,-0.0531 1.27668,-1.44933 2.24472,-0.75209 2.95563,-0.55339 3.1663,-2.94402 1.93795,-0.93457 2.31987,-0.27899 3.68767,-3.48896 7.91356,-4.05498 6.36718,-2.70365 1.43743,-3.30197 5.60017,-5.96577 3.06084,-6.27178 9.94383,-5.93636 1.52473,-2.34015 2.27717,-0.77789 6.4254,-4.84551 12.03862,-10.75247 11.439214,-3.51469 5.91167,-1.18891 7.9066,0.8616 8.3243,5.28727 2.37189,0.87671 2.07961,-0.30016 2.31382,2.98526 3.53112,0.0413 2.7005,-0.70156 1.92671,0.35019 1.8321,0.92779 1.84932,-0.80638 1.8435,0.10082 2.87968,-1.03128 m 14.53272,-7.34618 3.39996,-1.91554 1.88802,-2.79321 2.81095,-1.47018 6.90302,-0.2176 6.59171,-2.13166 4.60162,1.49443 1.7443,-0.31534 3.06331,0.99735 1.98398,-1.086 6.64656,2.00096 2.00166,-0.71944 4.47402,0.32139 6.60576,-2.31147"
       style="fill:none;stroke:#000000;stroke-width:1;stroke-linecap:butt;stroke-linejoin:round;stroke-miterlimit:4;stroke-dasharray:1, 1;stroke-dashoffset:0;stroke-opacity:1" />
    <path
       style="fill:none;stroke:#000000;stroke-width:1;stroke-linecap:butt;stroke-linejoin:round;stroke-miterlimit:4;stroke-dasharray:1, 1;stroke-dashoffset:0;stroke-opacity:1"
       d="m 214.9314,307.99147 -3.5844,-1.12537 -7.09517,-0.66965 -8.39425,2.82117 -6.95504,0.65856 -4.28998,1.6938 -4.83959,0.36073 -6.68131,2.04722 -4.1706,-0.14194 -6.82556,0.50392 -4.90327,1.90173 -4.26491,0.29654 -2.92909,-0.34662 m -16.26427,6.60704 -6.79813,2.98998 -2.18436,-0.0677 -7.24842,1.58484 -13.03427,2.84989 -6.690184,3.66071 -4.3897,1.56701 -11.47283,6.75255 -9.75296,-0.2886 -6.19643,2.73507 -2.55496,0.0703 -4.61554,1.89021 -2.07793,0.58812 -3.47744,1.6431 -3.01361,0.0802 -2.25864,-0.62999 -3.87551,-0.18767 -5.32683,0.91176 -3.37391,0.62103 -2.47788,1.11344 -2.49147,-0.53685 -1.63847,1.28283 -2.16915,-1.02034 -3.37043,1.86011 -2.6566,-0.23161 -4.21551,0.74601 -2.10087,-0.64388 -4.8858906,1.10533 -1.89971,-0.0762 -2.44994,-1.27216"
       id="path14359-1-7-5-3-0-73-1-9-8-5-9-6-6"
       inkscape:connector-curvature="0"
       sodipodi:nodetypes="ccccccccccccccccccccccccccccccccccccccccccc" />
    <path
       style="fill:none;stroke:#000000;stroke-width:1;stroke-linecap:butt;stroke-linejoin:round;stroke-miterlimit:4;stroke-dasharray:1, 1;stroke-dashoffset:0;stroke-opacity:1"
       d="m 76.043996,49.878949 -1.58633,2.107652 1.77576,1.230314 0.35516,6.258102 -0.29178,1.834123 1.1082,1.991743 1.55524,4.17013 -0.29558,4.930116 -1.01479,2.98924 -0.46754,3.613175 -2.36359,3.411398 -0.59793,7.407147 -1.71933,1.3845 -1.20164,2.75547 -0.0109,9.160481 -7.34204,4.85042 -1.43605,3.62089 -14.31148,10.90423 1.23484,2.18174 -9.16327,5.84085 0.24733,2.81554 -4.37421,0.66251 -11.49921,12.84869 -5.44149,2.71449 -3.58307,2.8115 -3.46607,2.71971 -0.38462,2.0206 -1.714011,2.85964 -1.4599196,1.32171 -3.34163,4.07235"
       id="path14359-1-7-5-3-0-73-1-9-8-5-9-6-9"
       inkscape:connector-curvature="0"
       sodipodi:nodetypes="cccccccccccccccccccccccccccccc" />
    <path
       style="fill:none;stroke:#000000;stroke-width:1;stroke-linecap:butt;stroke-linejoin:round;stroke-miterlimit:4;stroke-dasharray:1, 1;stroke-dashoffset:0;stroke-opacity:1"
       d="m 113.29157,48.928954 0.99991,1.033507 0.77637,2.665064 1.86226,1.904121 -1.14293,4.461659 0.72336,1.880838 1.08315,2.500719 -0.91386,2.310324 0.36747,2.195926 1.86731,1.08753 0.66243,1.359464 -2.46362,3.803133 -1.85121,2.095754 0.028,1.607806 0.96537,1.854016 -0.65071,11.655114 0.87264,1.8352 0.31566,2.51069 -3.34942,3.50718 -0.66125,1.891581 -1.14728,0.70531 -0.50644,2.9053 -2.6873,2.43839 -4.50238,2.8835 -0.18743,1.81811 -2.34452,0.0402 -4.965944,12.79645 -2.11663,2.48436 -0.57147,2.30452 -5.52664,7.77766 -2.4365,-0.0769 -2.96162,1.27044 -9.23054,11.03994 -2.36075,0.1114 -1.70934,1.9826 -2.32962,0.0923 -7.9795,7.84761 -2.34544,1.39996 -0.86592,2.41866 -2.9394,1.68676 -3.30066,0.22655 -3.17522,3.4652 -4.4622,0.5997 -1.6266,1.38774 -0.76328,1.96796 -2.18477,-0.61032 -1.87408,1.5889 -2.20814,0.50591 -4.37217,5.43877 -3.71878,2.268 -14.925381,10.66104 -0.4858496,3.82062 -4.71663,4.43213"
       id="path14359-1-7-5-3-0-73-1-9-8-5-9-6-7"
       inkscape:connector-curvature="0"
       sodipodi:nodetypes="ccccccccccccccccccccccccccccccccccccccccccccccccccccc" />
    <path
       style="fill:none;stroke:#000000;stroke-width:1;stroke-linecap:butt;stroke-linejoin:round;stroke-miterlimit:4;stroke-dasharray:1, 1;stroke-dashoffset:0;stroke-opacity:1"
       d="m 50.505576,273.27144 -0.71083,2.28934 1.30624,1.11951 2.35507,0.69137 2.74761,-2.76587 -1.46278,-1.93637 -1.55834,-0.47828 z"
       id="path14359-1-7-5-3-0-73-1-9-8-5-9-6-5"
       inkscape:connector-curvature="0"
       sodipodi:nodetypes="cccccccc" />
    <path
       style="fill:none;stroke:#000000;stroke-width:1;stroke-linecap:butt;stroke-linejoin:round;stroke-miterlimit:4;stroke-dasharray:1, 1;stroke-dashoffset:0;stroke-opacity:1"
       d="m 214.74261,269.19706 -5.01097,0.4635 -1.46197,1.66348 -4.98496,1.34181 m -24.19447,6.62274 -1.77201,2.30772 -4.84615,0.17169 -3.37569,2.5555 -2.08451,-0.003 -5.91392,3.17408 -3.03655,-0.23157 -6.23098,4.7223 -3.29401,0.0656 -5.18918,3.43001 -6.11059,0.95311 -3.70228,-0.73795 -6.12074,-4.22588 -2.22289,-0.65228 -2.64999,0.22746 -1.16736,2.02544 -1.86594,0.58182 -2.98192,-0.71992 -3.45748,0.87624 -5.0773,-1.93652 -4.30439,1.12782 -3.48888,-3.134 m -2.324724,-2.14565 -2.06935,-1.22046 -1.973,-1.41795 -1.8151,-0.68901 -0.39703,-1.31781 3.88286,-3.45936 -3.70755,-1.2718 -1.15031,-0.97242 -1.49991,-0.35245 -2.42524,1.21331 -1.77421,-0.73597 -4.67971,-0.45279 -2.05326,0.85522 -2.07677,-1.14245 -2.81529,0.18603 -3.60846,-1.77997 -0.24163,-2.5754 -4.71026,-0.056 -0.97823,-0.97675 -3.06669,-0.89283 -1.00615,-1.88253 -4.79291,-3.72519 -0.0251,-2.28388 -2.55489,-1.24117 -2.03087,0.48594 -1.96947,-0.87713 -1.96605,1.84187 -1.8725,-4.00983 -6.86933,-0.0992 -1.65927,-1.33615 -3.40157,0.0819 -1.15081,-1.65194 0.93911,-3.96399 -1.95285,1.49349 -1.42452,2.42486 -2.02864,3.69106 -4.17074,0.91952 -1.83643,1.59454 -1.24639,3.45123 -1.90435,1.51703 -2.21562,3.85167 -10.1246006,6.88174"
       id="path14359-1-7-5-3-0-73-1-9-8-5-9-6-4"
       inkscape:connector-curvature="0"
       sodipodi:nodetypes="cccccccccccccccccccccccccccccccccccccccccccccccccccccccccccccccccccc" />
    <path
       style="fill:none;stroke:#000000;stroke-width:1;stroke-linecap:butt;stroke-linejoin:round;stroke-miterlimit:4;stroke-dasharray:1, 1;stroke-dashoffset:0;stroke-opacity:1"
       d="m 157.87013,48.701852 1.09587,7.086017 -0.46929,2.511042 1.2858,1.380461 0.38748,2.364259 -0.79804,2.388924 -0.44855,2.47499 1.64754,1.221582 0.44347,2.372896 1.75996,1.18672 1.02384,2.959847 -1.02734,-0.532884 -0.87175,2.039956 0.36738,2.25908 -1.10244,2.426535 -3.59863,3.227694 0.98377,3.143421 -0.46152,3.922387 1.45338,1.74921 -0.4317,2.11207 0.47956,2.8281 0.1248,1.49174 -1.06123,2.255041 2.46309,3.3471 0.52055,2.47398 -0.79448,2.13536 0.98905,1.57608 -0.38677,2.46438 -3.0665,6.23593 -1.73276,1.40621 0.43896,2.26265 0.86314,4.2543 1.9345,1.00383 2.34592,1.53037 -1.4194,0.94296 -2.30285,3.77658 0.11717,1.59295 -2.25786,-0.0641 -2.52167,4.05457 1.62976,1.83769 -2.00998,0.61913 -0.34585,2.79869 -2.71377,0.27538 0.3797,2.43938 -1.77686,2.95335 0.44683,2.14426 -2.35848,3.27746 -0.17042,4.1836 -2.99402,1.26566 -0.28318,2.12555 3.08761,2.66083 -3.68668,1.83586 -0.2952,2.21574 -1.4602,2.21705 1.04087,1.70425 3.95821,2.62975 0.96899,1.69846 0.37616,2.25672 6.35714,3.20009 1.22764,2.05298 0.65176,4.79307 -5.18011,0.67823 -4.47872,-2.54414 1.06891,-3.1679 -5.55128,-0.80943 -4.15265,-0.24293 -7.84942,2.97987 -2.02158,4.38925 -7.2707,7.69862 -5.7609,1.81669 -0.5364,-3.46655 4.67054,-6.25731 -0.79158,-4.41021 8.30564,-4.44797 1.31417,-1.679 -1.64144,-0.9961 0.38806,-2.54791 -1.24803,-1.99533 -2.4729,0.14419 -2.18291,0.74161 -0.17716,1.96083 -1.70769,0.35431 -1.24026,2.42582 -5.6122,-5.37062 -5.33841,2.80813 -4.40304,-0.10247 -2.203154,2.3967 -9.388,0.35173 -4.99319,4.9714 -1.83216,-0.34267 -4.74745,3.93226 -5.35873,3.09074 -0.67679,1.57434 -2.88039,2.29655 -2.4065,0.22892 -9.20893,6.90235 -1.26523,1.90409 -4.70736,2.01077 -5.6086,1.60247 -2.26703,1.75937 -1.03815,2.36669 -1.81133,-0.17584 -1.26852,0.83082 -2.42333,-0.14641 -2.95958,2.71541 0.85139,2.47248 -3.07298,2.14604 -5.52026,3.64975 -0.54406,2.32291 -5.70357,2.57998 -4.54545,5.62897 -1.9105,1.81036 -3.150231,1.6919 -1.7017996,2.37227 -4.65883,2.53132"
       id="path14359-1-7-5-3-0-73-1-9-8-5-9-6-8"
       inkscape:connector-curvature="0"
       sodipodi:nodetypes="ccccccccccccccccccccccccccccccccccccccccccccccccccccccccccccccccccccccccccccccccccccccccccccccccccccccccccccccccccc" />
    <path
       style="fill:none;stroke:#000000;stroke-width:1;stroke-linecap:butt;stroke-linejoin:round;stroke-miterlimit:4;stroke-dasharray:1, 1;stroke-dashoffset:0;stroke-opacity:1"
       d="m 5.2560054,59.31371 4.8085096,4.404436 0.9156,2.616684 -1.0500796,3.957054 1.0580796,2.02303 0.009,6.898458 -5.5785996,11.118657"
       id="path14359-1-7-5-3-0-73-1-9-8-5-9-6-57"
       inkscape:connector-curvature="0"
       sodipodi:nodetypes="ccccccc" />
    <path
       style="fill:none;stroke:#000000;stroke-width:1;stroke-linecap:butt;stroke-linejoin:round;stroke-miterlimit:4;stroke-dasharray:1, 1;stroke-dashoffset:0;stroke-opacity:1"
       d="m 33.047506,49.199717 2.01094,1.85657 4.37563,8.810645 0.57439,2.441194 3.25264,3.669972 -0.26566,2.413404 -1.02302,1.816588 0.43492,2.234399 -1.25955,2.459393 -0.10137,3.686038 -1.45699,2.312447 0.92871,2.822475 -1.65045,4.997037 -2.31411,3.21228 -2.74577,6.64548 -3.83128,4.673181 -1.90574,-0.0654 -3.97842,5.61386 -0.75053,4.16261 -2.15223,1.11195 -2.82704,6.21381 -4.67257,5.37314 -2.04637,4.4419 -1.9706606,0.94234 -4.34218,4.22827"
       id="path14359-1-7-5-3-0-73-1-9-8-5-9-6-88"
       inkscape:connector-curvature="0"
       sodipodi:nodetypes="ccccccccccccccccccccccccc" />
    <path
       style="fill:none;stroke:#000000;stroke-width:0.5;stroke-linecap:round;stroke-linejoin:round;stroke-miterlimit:4;stroke-dasharray:none;stroke-dashoffset:0;stroke-opacity:1"
       d="m 180.19372,49.071253 -2.9037,2.422261 -1.73438,0.564316 -1.44829,1.066428 -2.06106,-0.01498 -3.74314,-1.348141 -4.53713,0.0071 -5.16057,1.145865 -4.9044,0.436697 -6.76863,1.539568 -2.00607,-0.01428 -7.01798,1.361829 -4.20827,0.793704 -4.53941,0.166899 -0.55201,0.954941 -1.69892,1.503874 -1.91052,0.414311 -2.73711,1.47093 -9.69204,0.01592 -2.97609,2.434323 -0.53797,1.947185 -1.06117,0.733864 0.17146,-3.324648 1.33538,-1.488505 2.48509,-1.592718 10.86207,-0.10962 6.37665,-4.492838 5.50322,-0.164939 10.95712,-2.133511 2.16224,0.123599 2.45146,-0.975646 6.11889,-0.692399 7.42885,-1.561951 4.50764,-0.04622 4.58471,1.797728 1.79816,-1.014703 1.37434,-0.234062 2.69011,-1.811279"
       id="path14359-1-7-5-3-0-73-1-9-8-5-9-6-0"
       inkscape:connector-curvature="0"
       sodipodi:nodetypes="cccccccccccccccccccccccccccccccccccccc" />
    <path
       style="fill:none;stroke:#000000;stroke-width:2;stroke-linecap:round;stroke-linejoin:miter;stroke-miterlimit:4;stroke-dasharray:none;stroke-dashoffset:0;stroke-opacity:1"
       d="m 77.752846,185.05912 12.52926,5.05474 1.3411,-0.41292 4.49968,-6.1101 10.786624,-1.46206 9.98924,-11.34312 0.0804,-1.18217 -2.63461,-4.33615 -18.903354,4.64089 z"
       id="path14359-1-7-5-3-0-73-1-9-8-5-9-6-07"
       inkscape:connector-curvature="0"
       sodipodi:nodetypes="cccccccccc" />
    <path
       style="fill:none;stroke:#000000;stroke-width:1;stroke-linecap:butt;stroke-linejoin:round;stroke-miterlimit:4;stroke-dasharray:none;stroke-dashoffset:0;stroke-opacity:1"
       d="m 99.726471,169.09726 0.0748,13.39985"
       id="path14359-1-7-5-3-0-73-1-9-8-5-9-6-55"
       inkscape:connector-curvature="0"
       sodipodi:nodetypes="cc" />
    <path
       style="fill:none;stroke:#000000;stroke-width:1;stroke-linecap:butt;stroke-linejoin:round;stroke-miterlimit:4;stroke-dasharray:none;stroke-dashoffset:0;stroke-opacity:1"
       d="m 90.524646,174.48501 0.0748,15.20626"
       id="path14359-1-7-5-3-0-73-1-9-8-5-9-6-70"
       inkscape:connector-curvature="0"
       sodipodi:nodetypes="cc" />
    <path
       style="fill:none;stroke:#000000;stroke-width:1;stroke-linecap:butt;stroke-linejoin:round;stroke-miterlimit:4;stroke-dasharray:none;stroke-dashoffset:0;stroke-opacity:1"
       d="m 95.261716,169.73912 0.0748,15.37941"
       id="path14359-1-7-5-3-0-73-1-9-8-5-9-6-3"
       inkscape:connector-curvature="0"
       sodipodi:nodetypes="cc" />
    <path
       style="fill:none;stroke:#000000;stroke-width:1;stroke-linecap:butt;stroke-linejoin:round;stroke-miterlimit:4;stroke-dasharray:none;stroke-dashoffset:0;stroke-opacity:1"
       d="m 104.83058,167.74205 0.0748,14.06113"
       id="path14359-1-7-5-3-0-73-1-9-8-5-9-6-39"
       inkscape:connector-curvature="0"
       sodipodi:nodetypes="cc" />
    <path
       style="fill:none;stroke:#000000;stroke-width:1;stroke-linecap:butt;stroke-linejoin:round;stroke-miterlimit:4;stroke-dasharray:none;stroke-dashoffset:0;stroke-opacity:1"
       d="m 109.36875,166.53866 0.0748,12.44111"
       id="path14359-1-7-5-3-0-73-1-9-8-5-9-6-41"
       inkscape:connector-curvature="0"
       sodipodi:nodetypes="cc" />
    <path
       style="fill:none;stroke:#000000;stroke-width:1;stroke-linecap:butt;stroke-linejoin:round;stroke-miterlimit:4;stroke-dasharray:1, 1;stroke-dashoffset:0;stroke-opacity:1"
       d="m 208.6402,48.674369 0.86656,3.415075 -0.10809,6.724081 1.84776,5.063956 3.04146,3.179366 0.52878,1.458872 -3.72148,8.744753 1.4256,4.800222 0.0231,2.190314 2.07866,4.926981 -1.32785,3.29243 -0.21687,2.4033 1.78399,3.02481"
       id="path14359-1-7-5-3-0-73-1-9-8-5-9-6-1"
       inkscape:connector-curvature="0"
       sodipodi:nodetypes="ccccccccccccc" />
    <path
       sodipodi:nodetypes="ccccc"
       inkscape:connector-curvature="0"
       id="path14359-1-7-5-3-0-73-1-9-8-5-9-1"
       d="m 215.08933,144.24294 -1.21158,3.55593 0.0343,6.47843 -2.83511,6.48857 3.87232,7.08565"
       style="fill:none;stroke:#000000;stroke-width:1;stroke-linecap:butt;stroke-linejoin:round;stroke-miterlimit:4;stroke-dasharray:1, 1;stroke-dashoffset:0;stroke-opacity:1" />
    <text
       style="line-height:1.75111113999999990px;font-family:Arial;font-size:8px;-inkscape-font-specification:'Arial, Normal';white-space:pre;shape-inside:url(#rect6774);"
       id="text6772"
       xml:space="preserve" />
    <path
       sodipodi:nodetypes="cc"
       inkscape:connector-curvature="0"
       id="path14359-1-7-5-3-0-73-1-9-8-5-9-6-70-0"
       d="m 81.080455,182.12456 0.0748,4.12138"
       style="fill:none;stroke:#000000;stroke-width:1;stroke-linecap:butt;stroke-linejoin:round;stroke-miterlimit:4;stroke-dasharray:none;stroke-dashoffset:0;stroke-opacity:1" />
    <path
       sodipodi:nodetypes="cc"
       inkscape:connector-curvature="0"
       id="path14359-1-7-5-3-0-73-1-9-8-5-9-6-70-8"
       d="m 85.631864,178.82112 0.0748,8.52597"
       style="fill:none;stroke:#000000;stroke-width:1;stroke-linecap:butt;stroke-linejoin:round;stroke-miterlimit:4;stroke-dasharray:none;stroke-dashoffset:0;stroke-opacity:1" />
    <path
       sodipodi:nodetypes="cc"
       inkscape:connector-curvature="0"
       id="path14359-1-7-5-3-0-73-1-9-8-5-9-6-70-5"
       d="m 113.67442,166.04781 0.0748,7.71846"
       style="fill:none;stroke:#000000;stroke-width:1;stroke-linecap:butt;stroke-linejoin:round;stroke-miterlimit:4;stroke-dasharray:none;stroke-dashoffset:0;stroke-opacity:1" />
  </g>
</svg>
