<?xml version="1.0" encoding="UTF-8" standalone="no"?>
<svg
   xmlns:dc="http://purl.org/dc/elements/1.1/"
   xmlns:cc="http://creativecommons.org/ns#"
   xmlns:rdf="http://www.w3.org/1999/02/22-rdf-syntax-ns#"
   xmlns:svg="http://www.w3.org/2000/svg"
   xmlns="http://www.w3.org/2000/svg"
   xmlns:sodipodi="http://sodipodi.sourceforge.net/DTD/sodipodi-0.dtd"
   xmlns:inkscape="http://www.inkscape.org/namespaces/inkscape"
   version="1.1"
   id="svg3834"
   width="220.8"
   height="611.84003"
   viewBox="0 0 220.8 611.84003"
   sodipodi:docname="er02jy03.063.svg"
   inkscape:version="0.92.2 5c3e80d, 2017-08-06">
  <metadata
     id="metadata3840">
    <rdf:RDF>
      <cc:Work
         rdf:about="">
        <dc:format>image/svg+xml</dc:format>
        <dc:type
           rdf:resource="http://purl.org/dc/dcmitype/StillImage" />
        <dc:title></dc:title>
      </cc:Work>
    </rdf:RDF>
  </metadata>
  <defs
     id="defs3838">
    <rect
       id="rect6098"
       height="172.94127"
       width="222.54992"
       y="520.20182"
       x="-52.364687" />
  </defs>
  <sodipodi:namedview
     inkscape:snap-global="false"
     inkscape:document-rotation="0"
     pagecolor="#ffffff"
     bordercolor="#666666"
     borderopacity="1"
     objecttolerance="10"
     gridtolerance="10"
     guidetolerance="10"
     inkscape:pageopacity="0"
     inkscape:pageshadow="2"
     inkscape:window-width="1280"
     inkscape:window-height="756"
     id="namedview3836"
     showgrid="false"
     inkscape:zoom="2.3801188"
     inkscape:cx="56.059114"
     inkscape:cy="83.098498"
     inkscape:window-x="9"
     inkscape:window-y="0"
     inkscape:window-maximized="0"
     inkscape:current-layer="g3842" />
  <g
     inkscape:groupmode="layer"
     inkscape:label="Image"
     id="g3842">
    <path
       sodipodi:nodetypes="ccccc"
       inkscape:connector-curvature="0"
       id="path14359-1-7-5-3-0-73-1-9-8-5-3"
       d="m 16.918426,441.59869 -0.003,13.22303 h 25.031787 l 0.003,-13.22303 z"
       style="fill:none;stroke:#000000;stroke-width:2;stroke-linecap:round;stroke-linejoin:round;stroke-miterlimit:4;stroke-dasharray:none;stroke-opacity:1" />
    <path
       sodipodi:nodetypes="cccc"
       inkscape:connector-curvature="0"
       id="path14359-1-7-5-3-0-73-1-9-8-5-9"
       d="m 44.05778,470.75372 -9.514342,14.43704 -10.42072,-14.72357 -9.581149,14.51591"
       style="fill:none;stroke:#000000;stroke-width:1.0017;stroke-linecap:butt;stroke-linejoin:round;stroke-miterlimit:4;stroke-dasharray:1.0017, 1.00170000000000003;stroke-dashoffset:0;stroke-opacity:1" />
    <path
       sodipodi:nodetypes="cc"
       inkscape:connector-curvature="0"
       id="path14359-1-7-5-3-0-73-1-9-8-5-9-2"
       d="m 33.299564,441.77597 -0.003,13.12591"
       style="fill:none;stroke:#000000;stroke-width:1;stroke-linecap:round;stroke-linejoin:round;stroke-miterlimit:4;stroke-dasharray:none;stroke-opacity:1" />
    <path
       sodipodi:nodetypes="cc"
       inkscape:connector-curvature="0"
       id="path14359-1-7-5-3-0-73-1-9-8-5-9-3"
       d="m 28.383409,441.77597 -0.003,13.12591"
       style="fill:none;stroke:#000000;stroke-width:1;stroke-linecap:round;stroke-linejoin:round;stroke-miterlimit:4;stroke-dasharray:none;stroke-opacity:1" />
    <path
       sodipodi:nodetypes="cc"
       inkscape:connector-curvature="0"
       id="path14359-1-7-5-3-0-73-1-9-8-5-9-9"
       d="m 23.902817,441.77597 -0.003,13.12591"
       style="fill:none;stroke:#000000;stroke-width:1;stroke-linecap:round;stroke-linejoin:round;stroke-miterlimit:4;stroke-dasharray:none;stroke-opacity:1" />
    <path
       sodipodi:nodetypes="cc"
       inkscape:connector-curvature="0"
       id="path14359-1-7-5-3-0-73-1-9-8-5-9-97"
       d="m 18.971839,441.77597 -0.003,13.12591"
       style="fill:none;stroke:#000000;stroke-width:1;stroke-linecap:round;stroke-linejoin:round;stroke-miterlimit:4;stroke-dasharray:none;stroke-opacity:1" />
    <path
       sodipodi:nodetypes="cccc"
       inkscape:connector-curvature="0"
       id="path14359-1-7-5-3-0-73-1-9-8-5-9-03-9"
       d="m 44.403652,492.87337 -9.972917,14.70968 -10.254121,-14.34873 -8.732093,13.11667"
       style="fill:none;stroke:#000000;stroke-width:0.500854;stroke-linecap:round;stroke-linejoin:round;stroke-miterlimit:4;stroke-dasharray:none;stroke-opacity:1" />
    <path
       sodipodi:nodetypes="cccc"
       inkscape:connector-curvature="0"
       id="path14359-1-7-5-3-0-73-1-9-8-5-9-03-8"
       d="m 43.343715,491.85107 -8.797811,13.58058 -10.290362,-14.6165 -9.846738,14.8266"
       style="fill:none;stroke:#000000;stroke-width:0.500854;stroke-linecap:round;stroke-linejoin:round;stroke-miterlimit:4;stroke-dasharray:none;stroke-opacity:1" />
    <path
       sodipodi:nodetypes="ccccc"
       inkscape:connector-curvature="0"
       id="path14359-1-7-5-3-0-73-1-9-8-5-0"
       d="m 216.78171,4.0443196 -0.003,603.7171404 H 3.4184691 L 3.4214396,4.0443196 Z"
       style="fill:none;stroke:#000000;stroke-width:1;stroke-linecap:round;stroke-linejoin:round;stroke-miterlimit:4;stroke-dasharray:none;stroke-opacity:1" />
    <path
       style="fill:none;stroke:#000000;stroke-width:1;stroke-linecap:round;stroke-linejoin:round;stroke-miterlimit:4;stroke-dasharray:none;stroke-opacity:1"
       d="M 3.6916719,409.69992 216.47371,408.86035"
       id="path14359-1-7-5-3-0-73-1-9-8-5-92-2"
       inkscape:connector-curvature="0"
       sodipodi:nodetypes="cc" />
    <path
       style="fill:none;stroke:#000000;stroke-width:1;stroke-linecap:round;stroke-linejoin:round;stroke-miterlimit:4;stroke-dasharray:none;stroke-opacity:1"
       d="m 37.972083,441.77597 -0.003,13.12591"
       id="path14359-1-7-5-3-0-73-1-9-8-5-9-0-6"
       inkscape:connector-curvature="0"
       sodipodi:nodetypes="cc" />
    <path
       style="fill:none;stroke:#000000;stroke-width:0.5;stroke-linecap:round;stroke-linejoin:round;stroke-miterlimit:4;stroke-dasharray:none;stroke-opacity:1"
       d="m 50.76874,569.15939 -0.003,5.28466"
       id="path14359-1-7-5-3-0-73-1-9-8-5-00"
       inkscape:connector-curvature="0"
       sodipodi:nodetypes="cc" />
    <path
       style="fill:none;stroke:#000000;stroke-width:1;stroke-linecap:round;stroke-linejoin:round;stroke-miterlimit:4;stroke-dasharray:none;stroke-opacity:1"
       d="M 44.050868,512.33301 34.41816,526.3895 24.301922,512.03395 14.791878,526.44658"
       id="path14359-1-7-5-3-0-73-1-9-8-5-3-7"
       inkscape:connector-curvature="0"
       sodipodi:nodetypes="cccc" />
    <path
       style="fill:none;stroke:#000000;stroke-width:2;stroke-linecap:round;stroke-linejoin:round;stroke-miterlimit:4;stroke-dasharray:none;stroke-opacity:1"
       d="m 17.127643,421.91844 -0.003,13.22303 H 41.83958 l 0.003,-13.22303 z"
       id="path14359-1-7-5-3-0-73-1-9-8-5-3-4"
       inkscape:connector-curvature="0"
       sodipodi:nodetypes="ccccc" />
    <path
       sodipodi:nodetypes="ccccc"
       inkscape:connector-curvature="0"
       id="path14359-1-7-5-3-0-73-1-9-8-5-00-5"
       d="m 11.8308,569.01524 0.003,5.43212 h 77.529928 l -0.003,-5.43212 z"
       style="fill:none;stroke:#000000;stroke-width:0.5;stroke-linecap:round;stroke-linejoin:round;stroke-miterlimit:4;stroke-dasharray:none;stroke-opacity:1" />
    <path
       sodipodi:nodetypes="ccccc"
       inkscape:connector-curvature="0"
       id="path14359-1-7-5-3-0-73-1-9-8-5-00-1"
       d="m 11.703621,593.3005 -0.003,-5.83316 h 48.342083 l 0.003,5.83316 z"
       style="fill:none;stroke:#000000;stroke-width:0.5;stroke-linecap:round;stroke-linejoin:round;stroke-miterlimit:4;stroke-dasharray:none;stroke-opacity:1" />
    <path
       sodipodi:nodetypes="cc"
       inkscape:connector-curvature="0"
       id="path14359-1-7-5-3-0-73-1-9-8-5-00-50"
       d="m 50.669107,571.80364 -38.825147,0.003"
       style="fill:none;stroke:#000000;stroke-width:0.5;stroke-linecap:round;stroke-linejoin:round;stroke-miterlimit:4;stroke-dasharray:none;stroke-opacity:1" />
    <path
       sodipodi:nodetypes="cc"
       inkscape:connector-curvature="0"
       id="path14359-1-7-5-3-0-73-1-9-8-5-00-3"
       d="m 35.992638,593.1029 -0.003,-5.46452"
       style="fill:none;stroke:#000000;stroke-width:0.5;stroke-linecap:round;stroke-linejoin:round;stroke-miterlimit:4;stroke-dasharray:none;stroke-opacity:1" />
    <path
       sodipodi:nodetypes="cc"
       inkscape:connector-curvature="0"
       id="path14359-1-7-5-3-0-73-1-9-8-5-00-2"
       d="m 35.843892,590.39829 -24.058937,7.4e-4"
       style="fill:none;stroke:#000000;stroke-width:0.5;stroke-linecap:round;stroke-linejoin:round;stroke-miterlimit:4;stroke-dasharray:none;stroke-opacity:1" />
    <path
       style="fill:none;stroke:#000000;stroke-width:1;stroke-linecap:round;stroke-linejoin:round;stroke-miterlimit:4;stroke-dasharray:none;stroke-opacity:1"
       d="M 216.14449,47.770754 3.6862159,47.773527"
       id="path14359-1-7-5-3-0-73-1-9-8-5-00-50-0"
       inkscape:connector-curvature="0"
       sodipodi:nodetypes="cc" />
    <path
       style="fill:none;stroke:#000000;stroke-width:1;stroke-linecap:round;stroke-linejoin:round;stroke-miterlimit:4;stroke-dasharray:none;stroke-opacity:1"
       d="m 119.88389,607.75377 -0.002,-105.64588 h 96.71468"
       id="path14359-1-7-5-3-0-73-1-9-8-5-00-50-7"
       inkscape:connector-curvature="0"
       sodipodi:nodetypes="ccc" />
    <path
       sodipodi:nodetypes="ccccc"
       inkscape:connector-curvature="0"
       id="path14359-1-7-5-3-0-73-1-9-8-5-00-50-7-86"
       d="m 131.78181,578.00929 0.003,20.23745 h 17.81948 l -0.003,-20.23745 z"
       style="fill:none;stroke:#000000;stroke-width:1;stroke-linecap:round;stroke-linejoin:round;stroke-miterlimit:4;stroke-dasharray:none;stroke-opacity:1" />
    <path
       id="path10110"
       d="m 178.47148,525.11062 c 0.96679,0.32245 7.21654,4.97057 7.87641,5.6968 0.98801,1.08741 1.59504,2.43781 2.5622,3.513 0.52954,0.5887 1.34553,0.93947 1.51834,1.804 0.22229,1.11202 -0.27825,2.40559 -0.1898,2.84836 0.19433,0.97216 0.37959,2.00898 0.37959,3.03831 0,0.87985 -0.76491,1.36667 -0.18979,2.37365 0.6516,1.1409 4.96779,-0.66231 6.35807,1.42419 0.56395,0.8464 0.79991,1.8721 1.04385,2.8484 0.13817,0.55329 -0.21607,3.28312 0.18979,3.60795 0.28623,0.22911 0.65178,0.20138 0.94895,0.37978 0.78414,0.47075 1.4715,1.45639 2.18263,2.08884 1.10065,0.97887 2.31295,1.99208 3.51115,2.84839 1.11166,0.79443 3.21824,0.93295 3.70095,1.89892 0.51237,1.02526 -0.45133,1.44965 -0.66427,2.08883 -0.10916,0.3273 0.011,0.72517 -0.0949,1.0444 -0.40194,1.20644 -2.69953,2.49948 -3.70096,3.22818 -1.18561,0.86272 -2.118,1.98578 -3.22647,2.84839 -0.80346,0.62525 -1.79844,1.05405 -2.5622,1.70902 -0.71527,0.6134 -1.32502,1.46992 -2.18261,1.89895 -0.42731,0.21377 -0.97857,0.18902 -1.42345,0.37978 -1.96578,0.84291 -3.76204,1.99718 -5.69378,2.94334 -2.03778,0.58253 -4.12919,2.07444 -6.83255,1.80397 -1.33086,-0.13308 -2.46141,-1.2343 -3.32138,-1.2343 -0.51677,0 -1.16348,0.62953 -1.61321,0.85453 -1.74754,0.8742 -3.30924,1.8225 -4.36524,3.513 -0.47662,0.76294 -1.89636,1.0452 -2.6571,0.66463 -0.50972,-0.25498 -0.21831,-0.30406 -0.37957,-0.94948 -0.0543,-0.21709 -0.63265,-0.63294 -0.47451,-0.47471 0.11178,0.11184 -0.0643,0.33011 0,0.47471 0.16602,0.37376 0.58392,0.60619 0.47451,1.04443 -0.24164,0.96699 -3.34003,3.19572 -4.08051,3.79786 -0.93058,0.46551 -2.34254,0.44351 -3.22647,0.66461 -0.10102,0.0253 -0.82863,1.65441 -1.13877,2.08884 -0.46108,0.64587 -1.44636,1.09026 -1.80303,1.80397 -0.27457,0.54935 0.1347,1.47619 -0.095,2.08882 -0.5139,1.37112 -1.73131,2.38066 -2.46731,3.60795 -0.26606,0.44371 -0.28531,1.70952 -0.66427,1.99387 -0.44915,0.33708 -1.08679,0.37375 -1.51833,0.94949 -0.89018,1.18749 -1.13982,2.14352 -2.5622,2.75344 -1.33966,0.57442 -2.44789,-2.74131 -3.98564,-3.70293 -0.59817,-0.37402 -1.48068,-0.0419 -2.08772,-0.28482 -1.30073,-0.52056 -2.08938,-2.38288 -3.89076,-3.03829 -1.69125,-0.61534 -3.54472,-0.35514 -4.74482,-1.89895 -0.53418,-0.68717 -0.42987,-1.49695 -0.66427,-2.2787 -0.18231,-0.60807 -0.82343,-1.08829 -1.13875,-1.61405 -0.24619,-0.41056 -0.32147,-1.24378 -0.37958,-1.70905 -0.28625,-2.29123 0.77644,-3.53038 0.94897,-5.60186 0.11715,-1.40666 0.5572,-2.76319 0.75915,-4.17762 0.1767,-1.23747 -0.0178,-2.55705 0.0949,-3.79786 0.0636,-0.69883 0.61039,-1.01867 0.75916,-1.61411 0.19271,-0.77122 -0.62699,-0.70527 -0.75916,-1.23429 -0.0851,-0.34058 -0.0693,-0.68567 -0.0949,-1.04442 -0.0181,-0.25446 -0.0634,-0.5063 -0.095,-0.75946 -0.25176,-0.50384 -0.5175,-0.84567 -0.75915,-1.32925 -0.28028,-0.56085 0.2889,-1.13093 0,-1.70903 -0.13676,-0.27371 -0.51277,-0.30484 -0.66426,-0.75959 -0.24666,-0.74031 0.18968,-1.70938 0,-2.46857 -0.22366,-0.89506 -1.06351,-0.39944 -1.61326,-0.94948 -0.19587,-0.19599 -0.4849,-1.46592 -0.56936,-1.80398 -0.0867,-0.3469 0.16781,-0.58465 0.0949,-0.94947 -0.10007,-0.50071 -0.39708,-0.907 -0.56938,-1.4242 -0.23265,-0.69829 0.25096,-2.1563 0,-2.65848 -0.24197,-0.48423 -0.67997,-0.73567 -0.94898,-1.13938 -0.35733,-0.53628 -0.54858,-1.17489 -0.94895,-1.70902 -0.53932,-0.71945 0.23874,-2.03984 -0.28469,-2.56355 -0.0627,-0.0627 -0.36691,-0.14885 -0.47449,-0.0951 -0.30485,0.15252 0.42881,1.09722 0.47449,1.23431 0.20495,0.61522 -0.61622,0.80766 -0.94895,0.47474 -1.22357,-1.22421 -1.51834,-0.57546 -1.51834,-2.8484 0,-1.09425 0.73688,-0.16761 1.23364,-0.66462 0.2121,-0.21222 -0.49215,-0.28484 -0.56937,-0.28484 -0.2016,0 -0.67678,0.17739 -0.85409,0 -0.65899,-0.65937 -1.77074,-2.1231 -1.42343,-3.51301 0.0608,-0.24276 0.30365,-0.43672 0.37958,-0.66462 0.0827,-0.24829 0.0822,-0.7468 0.2847,-0.94947 0.43847,-0.43872 0.89452,-1.69089 1.51833,-1.89893 0.41829,-0.1395 1.35062,-0.70878 1.61327,-1.2343 0.37364,-0.74773 0.87086,-1.76493 1.7081,-2.18379 0.12863,-0.0645 1.11085,-0.53615 1.23366,-0.47472 0.34209,0.1711 1.64271,0.16036 1.89791,-0.0951 1.35106,-1.35175 2.30558,-3.55512 3.41629,-5.22204 0.96356,-1.44613 3.01483,-2.78284 3.51115,-4.27261 0.10378,-0.31161 -0.0797,-0.72584 0,-1.0444 0.6798,-2.72066 -2.27051,-4.82826 -3.41628,-7.12097 -0.26458,-0.52947 -0.61899,-1.14809 -0.75915,-1.70904 -0.10846,-0.43431 -0.65384,-5.08439 -0.56938,-5.50689 0.24642,-1.23272 0.77718,-2.86641 1.61323,-3.7029 1.40974,-1.41051 4.70254,0.58721 6.07338,1.0444 0.42901,0.14308 1.03349,0.0871 1.42343,0.3798 0.43116,0.32352 0.79828,0.71768 1.23366,1.04439 1.32444,0.99387 1.52051,2.51284 0.66427,3.79787 -0.0877,0.13173 -0.69897,1.61407 -0.18979,1.61407 0.55505,0 0.45815,-2.22305 1.13874,-2.56355 1.37071,-0.68569 2.22686,1.36482 1.99283,2.37367 -0.15454,-1.77112 2.38938,-0.69086 2.94178,0 0.24849,0.31076 -0.34142,1.17754 -0.28467,1.23432 0.294,0.29416 1.55169,-0.28799 1.99282,-0.18991 1.02745,0.22845 1.49519,1.68239 2.4673,1.80397 1.25887,0.15745 1.55115,-1.05024 3.70094,-0.18989 1.24346,0.49766 2.41701,1.20916 3.60607,1.80399 0.59323,0.29677 1.28756,0.43562 1.89792,0.66463 0.78322,0.29387 1.54835,0.92392 2.27753,1.32925 1.04085,0.57856 2.29445,0.74214 3.32136,1.32925 1.67142,0.9556 3.67183,2.56354 5.31425,2.56354 z"
       style="fill:none;stroke:#000000;stroke-width:1;stroke-linecap:round;stroke-linejoin:round;stroke-miterlimit:4;stroke-dasharray:none;stroke-opacity:1"
       sodipodi:nodetypes="csssssssssssssscssssscssssssssccssssssssssssssssssssscssssssssssssssssssssssssssssscsssssssssscssssssssscc" />
    <path
       id="path10112"
       d="m 150.68179,526.15502 c 0.0633,0.18992 0.12653,0.3798 0.18979,0.56971 l 0.0949,0.095"
       style="fill:none;stroke:#000000;stroke-width:0.5;stroke-linecap:round;stroke-linejoin:round;stroke-miterlimit:4;stroke-dasharray:none;stroke-opacity:1"
       sodipodi:nodetypes="ccc" />
    <path
       id="path10114"
       d="m 151.91543,532.13666 c -0.69951,-1.32091 1.32855,-0.75486 1.32855,-1.42419"
       style="fill:none;stroke:#000000;stroke-width:0.5;stroke-linecap:round;stroke-linejoin:round;stroke-miterlimit:4;stroke-dasharray:none;stroke-opacity:1"
       sodipodi:nodetypes="cc" />
    <path
       id="path10116"
       d="m 153.62357,529.66806 c 0.23185,-0.45832 0.52599,-0.54798 0.75918,-0.66463"
       style="fill:none;stroke:#000000;stroke-width:0.5;stroke-linecap:round;stroke-linejoin:round;stroke-miterlimit:4;stroke-dasharray:none;stroke-opacity:1"
       sodipodi:nodetypes="cc" />
    <path
       id="path10118"
       d="m 154.95211,527.48428 c 0.28352,-0.4658 0.2847,-0.5489 0.2847,-0.94946"
       style="fill:none;stroke:#000000;stroke-width:0.5;stroke-linecap:round;stroke-linejoin:round;stroke-miterlimit:4;stroke-dasharray:none;stroke-opacity:1"
       sodipodi:nodetypes="cc" />
    <path
       id="path10120"
       d="m 159.50714,527.67419 c 0.69663,-0.33182 0.48285,-0.58646 0.66427,-0.94946"
       style="fill:none;stroke:#000000;stroke-width:0.5;stroke-linecap:round;stroke-linejoin:round;stroke-miterlimit:4;stroke-dasharray:none;stroke-opacity:1"
       sodipodi:nodetypes="cc" />
    <path
       id="path10122"
       d="m 150.68179,517.70481 c 0.85936,0.17197 0.45207,-0.008 1.32854,1.04441 0.33584,0.40322 0.75502,0.47057 1.13875,0.85452 0.70354,0.7039 0.82925,2.93091 -0.66428,2.18378 -0.54018,-0.27024 -0.83451,-0.83496 -1.23364,-1.23432 -0.248,-0.24811 -0.69648,-0.2221 -0.94897,-0.47473 -0.82224,-0.82266 -0.96285,-2.03787 0.3796,-2.37366 z"
       style="fill:none;stroke:#000000;stroke-width:0.5;stroke-linecap:round;stroke-linejoin:round;stroke-miterlimit:4;stroke-dasharray:none;stroke-opacity:1"
       sodipodi:nodetypes="csssssc" />
    <path
       id="path10124"
       d="m 146.69615,519.41382 c -0.11275,0.0173 -0.1765,0.1538 -0.28468,0.18987 -1.26078,0.42048 0.59624,0.81339 0.66426,0.94948 0.14284,0.28583 -0.21092,1.03031 0.0949,1.23429 0.77581,0.51748 1.61161,0.6319 2.37241,1.13938 0.51342,0.34247 1.56955,-0.27736 1.42344,-0.56969 -0.29923,-0.59878 -1.36966,-0.50218 -1.89792,-0.85454 -0.43151,-0.2878 -0.58395,-1.50692 -1.04121,-1.81904 -0.45726,-0.31216 -0.6043,-0.38161 -1.33123,-0.26975 z"
       style="fill:#000000;fill-opacity:1;stroke:#000000;stroke-width:0.5;stroke-linecap:round;stroke-linejoin:round;stroke-miterlimit:4;stroke-dasharray:none;stroke-opacity:1"
       sodipodi:nodetypes="ssssssscss" />
    <path
       id="path10126"
       d="m 140.33808,538.21323 c -0.11205,2.20419 -2.35752,1.50424 -3.51114,2.6585 -0.84787,0.8483 0.43534,1.25096 0.75915,1.89892 0.196,0.3922 -0.28566,0.94847 0,1.23431 0.0588,0.0589 0.37959,0.74761 0.37959,0.75956 0,0.0555 0.25239,0.4121 0.37959,0.28484 0.34082,-0.341 -0.56045,-2.14913 0.75915,-1.70903 0.36456,0.12151 1.18826,1.01139 0.5694,1.42419 -0.16265,0.10852 -1.13877,0.0125 -1.13877,0.28484 0,0.10006 0.18766,0.0708 0.28471,0.0951 2.39423,0.59888 1.52431,-1.96621 2.27748,-2.46861 0.43151,-0.28781 1.23733,-0.005 1.61326,-0.37978 0.46046,-0.46072 -0.73015,-1.13934 -1.04386,-1.13934 -1.0072,0 0.80091,-1.38246 0.56938,-1.61412 -0.64193,-0.64223 -1.24808,-0.67902 -1.89794,-1.32925 z"
       style="fill:none;stroke:#000000;stroke-width:0.5;stroke-linecap:round;stroke-linejoin:round;stroke-miterlimit:4;stroke-dasharray:none;stroke-opacity:1"
       sodipodi:nodetypes="ssssssssscscssss" />
    <path
       id="path10128"
       d="m 137.3963,547.3281 c 0.0949,0.31647 0.18979,0.63295 0.2847,0.94945"
       style="fill:none;stroke:#000000;stroke-width:0.5;stroke-linecap:round;stroke-linejoin:round;stroke-miterlimit:4;stroke-dasharray:none;stroke-opacity:1"
       sodipodi:nodetypes="cc" />
    <path
       id="path10130"
       d="m 176.96806,534.41537 c 0,0.12662 0.009,0.25357 0,0.3798 -0.12227,1.59024 -1.73009,2.97235 -2.18262,1.61407 -0.14792,-0.44401 -0.0949,-1.04489 -0.0949,-1.51913 0,-2.32299 2.97453,0.0588 3.51117,-2.08883 0.0214,-0.0855 0.0277,-0.48635 0,-0.56968 -0.17064,-0.51215 -1.04759,-0.81266 -1.32856,-1.23429 -0.32984,-0.49504 -0.33375,-0.7661 -0.47447,-1.32925 -0.19937,-0.79782 -0.86778,-1.42419 0.56939,-1.42419 0.49305,0 0.80408,0.6163 1.23364,0.75956 0.51337,0.1712 1.32272,0.18404 1.70811,0.56969 0.51351,0.51376 0.54974,1.17528 0.75918,1.80398 0.38974,1.16977 0.75656,2.72267 -0.75918,3.22818 -0.53031,0.17687 -1.77857,-0.53445 -1.8979,-0.47475 -0.4996,0.24995 0.156,1.17316 -0.18979,1.51916 -0.42329,0.42349 -2.26062,1.39035 -2.27752,1.42419 -0.40729,0.81497 0.78816,1.40968 1.32854,1.13935 0.45907,-0.22964 0.0292,-1.24884 0.37959,-1.42418 0.43269,-0.21649 0.43702,0.81455 0.3796,1.04439 -0.49436,1.97852 -3.3356,0.13312 -2.75201,2.46862 0.0863,0.34504 0.008,0.67351 0.28471,0.94944 0.60489,0.60523 2.02223,-0.85449 2.56218,-0.85449 0.87456,0 2.25735,0.48481 3.03669,0.095 1.03525,-0.51791 0.13942,-2.80967 -0.095,-3.51302 -0.17081,-0.51272 0.17081,-1.19634 0,-1.70904 -0.33201,-0.99657 -2.16011,-0.11749 -2.4673,0.1899 -0.34222,0.34241 -0.23012,-1.04441 -1.23363,-1.04441 z"
       style="fill:none;stroke:#000000;stroke-width:0.5;stroke-linecap:round;stroke-linejoin:round;stroke-miterlimit:4;stroke-dasharray:none;stroke-opacity:1"
       sodipodi:nodetypes="ccssscsssssssssssssscssssscc" />
    <path
       id="path10132"
       d="m 183.6108,547.89774 c -1.04764,-1.48693 -1.77703,-2.94332 -3.70097,-2.94332 -0.32007,0 -0.45137,-0.15396 -0.75916,0 -1.06388,0.53224 -1.62723,2.39466 -2.18261,3.22818 -0.61127,0.91741 -2.50632,2.06668 -1.99283,3.60796 0.37827,1.13544 4.55826,1.39148 5.59887,1.04442 1.58398,-0.52828 -0.62794,-2.32521 -0.94896,-2.75347 -0.18816,-0.25102 -0.44957,-0.11514 -0.56935,-0.47473 -0.0863,-0.25875 0.68722,-2.01681 0.75915,-2.08881 0.39022,-0.39042 1.33706,0.75531 1.89793,0.47473 0.25011,-0.12508 0.39237,-0.84811 0.56939,-0.75956 0.73223,0.36631 0.11204,0.6646 1.32854,0.6646 z"
       style="fill:none;stroke:#000000;stroke-width:0.5;stroke-linecap:round;stroke-linejoin:round;stroke-miterlimit:4;stroke-dasharray:none;stroke-opacity:1"
       sodipodi:nodetypes="cssssssssssc" />
    <path
       id="path10134"
       d="m 174.40585,550.8411 c -0.67394,-0.33738 -1.18635,-0.61709 -1.89792,-0.37978 -0.88618,0.29554 -0.32486,2.03404 -0.85407,2.56354 -0.53815,0.53843 -0.76373,0.84993 0,1.61409 0.36292,0.36309 1.01167,0.15768 1.42345,0.56968 0.52364,0.52392 0.73291,1.38477 1.13873,1.99388 0.78001,1.17059 5.02277,5.3136 6.16828,5.88667 0.32396,0.16206 0.71532,-0.23953 0.94899,-0.37978 0.60002,-0.36022 2.13441,-1.75877 1.89791,-2.46863 -0.17345,-0.52062 -0.72319,-0.90358 -0.56936,-1.5191 0.15061,-0.60287 1.23994,-1.13309 0.18979,-2.1838 -0.31476,-0.31489 -0.58684,-0.31066 -0.94898,-0.18987 -1.65095,0.55059 -1.36363,1.45929 -2.37242,2.46859 -0.18045,0.18055 -1.31685,0.1938 -1.61324,0.0951 -0.91636,-0.30563 -3.21996,-4.44948 -3.70097,-5.41195 -0.0957,-0.19155 0.59597,-0.83933 0.6643,-1.04441 0.15966,-0.47927 -0.2721,-1.20912 -0.47449,-1.61409 z"
       style="fill:none;stroke:#000000;stroke-width:0.5;stroke-linecap:round;stroke-linejoin:round;stroke-miterlimit:4;stroke-dasharray:none;stroke-opacity:1"
       sodipodi:nodetypes="ssssssssssssscssss" />
    <path
       id="path10136"
       d="m 171.17938,560.90542 c -0.61784,0.0276 -0.82326,-0.74726 -1.32855,-0.94946 -0.20517,-0.0822 -0.4958,0.12247 -0.66428,0.18987 -1.14937,0.45999 0.64798,2.33114 1.13877,2.65851 0.60992,0.40682 2.38109,-0.25002 2.18261,-1.0444 -0.15624,-0.62535 -0.91728,-0.54592 -1.32855,-0.85452 z"
       style="fill:none;stroke:#000000;stroke-width:0.5;stroke-linecap:round;stroke-linejoin:round;stroke-miterlimit:4;stroke-dasharray:none;stroke-opacity:1"
       sodipodi:nodetypes="cscssc" />
    <path
       id="path10138"
       d="m 176.77825,564.03863 c -0.13718,1.15519 -1.34706,0.0184 -1.70812,0.3798 -0.31323,0.31338 0.19078,0.75957 0.47448,0.75957 0.45087,0 0.93775,-0.84331 1.23364,-1.13937 z"
       style="fill:none;stroke:#000000;stroke-width:0.5;stroke-linecap:round;stroke-linejoin:round;stroke-miterlimit:4;stroke-dasharray:none;stroke-opacity:1"
       sodipodi:nodetypes="cssc" />
    <path
       id="path10140"
       d="m 178.2017,565.65274 c -1.15513,-0.0633 -0.9207,0.93059 -1.51834,1.32924 -0.47556,0.31722 -2.12155,0.89505 -2.27751,1.51913 -0.24576,0.98368 4.1156,3.19311 4.83971,2.46861 0.39399,-0.39418 0.95352,-0.6737 1.23367,-1.23431 0.4792,-0.95893 -1.15777,-2.31673 -1.51835,-3.03828 -0.10352,-0.20704 0.27249,-0.58188 0.095,-0.75955 -0.23434,-0.23449 -0.42488,-0.28484 -0.85405,-0.28484 z"
       style="fill:none;stroke:#000000;stroke-width:0.5;stroke-linecap:round;stroke-linejoin:round;stroke-miterlimit:4;stroke-dasharray:none;stroke-opacity:1"
       sodipodi:nodetypes="sssssssss" />
    <path
       id="path10142"
       d="m 187.21687,565.178 c -1.01852,-0.011 -1.65628,-0.0519 -2.18263,0.47474 -0.32436,0.32452 0.48696,0.98525 0.66428,1.04439 0.86631,0.28891 2.82917,0.57856 3.79586,0.095 0.19744,-0.0985 0.13605,-0.21831 0.18982,-0.37978 0.28678,-0.86091 -0.29136,-0.90531 -0.94899,-1.2343 -0.83183,-0.41614 -0.39267,-0.8447 -1.51834,0 z"
       style="fill:none;stroke:#000000;stroke-width:0.5;stroke-linecap:round;stroke-linejoin:round;stroke-miterlimit:4;stroke-dasharray:none;stroke-opacity:1"
       sodipodi:nodetypes="sssscsss" />
    <path
       id="path10144"
       d="m 179.62514,572.48887 c -1.29653,-0.0984 -2.62856,-0.32998 -3.70094,0.47473 -0.67626,0.50747 -1.20096,1.7876 -1.80302,2.0888 -0.49709,0.2487 -1.00441,-0.36127 -1.51835,-0.18987 -0.87761,0.29267 -0.82499,2.59264 -0.37958,3.03828 0.39666,0.3969 1.25134,-0.13033 1.42344,-0.47474 0.20405,-0.40834 -0.30907,-1.58969 0,-1.89892 0.33356,-0.33373 0.81016,0.71091 1.23365,0.56966 0.62144,-0.20723 1.26922,-0.72987 1.70812,-0.94945 0.89959,-0.45002 2.68269,0.82439 3.70095,0.56968 1.00854,-0.25226 0.27582,-1.32478 0.6643,-1.51914 0.45641,-0.22833 0.83952,0.27513 1.13876,0.47473 0.26094,0.17404 1.32654,0.52321 1.61323,0.37977 0.20717,-0.10367 0.4219,-0.49588 0.56937,-0.56965 0.83923,-0.41985 3.23157,0.40007 2.752,-1.51915 -0.2631,-1.05298 -1.72697,0.0761 -2.18259,-0.3798 -0.18016,-0.18022 -0.39309,-0.67135 -0.56941,-0.75956 -1.06639,-0.53347 -1.51207,-0.0506 -2.3724,0.37979 -0.66051,0.33043 -1.70667,0.28484 -2.27753,0.28484 z"
       style="fill:none;stroke:#000000;stroke-width:0.5;stroke-linecap:round;stroke-linejoin:round;stroke-miterlimit:4;stroke-dasharray:none;stroke-opacity:1"
       sodipodi:nodetypes="csssssssssssssssssc" />
    <path
       id="path10146"
       d="m 162.82851,572.1091 c -0.70628,-1.21321 1.98777,-1.71411 2.1826,-1.51915 0.19328,0.19337 0.23299,0.70781 0.37958,0.8545 0.38385,0.38404 1.90282,-0.38957 1.13878,1.13935 -0.21554,0.43128 -1.24826,0.40903 -1.42344,0.75959 -0.19263,0.38545 0.21054,1.70901 -0.4745,1.70901 -0.56556,0 -0.54843,-1.47722 -0.75916,-1.8989 -0.19373,-0.38767 -0.76475,-0.76517 -1.04386,-1.0444 z"
       style="fill:none;stroke:#000000;stroke-width:0.5;stroke-linecap:round;stroke-linejoin:round;stroke-miterlimit:4;stroke-dasharray:none;stroke-opacity:1"
       sodipodi:nodetypes="cssssssc" />
    <path
       id="path10148"
       d="m 161.40506,572.5838 c -1.29225,1.49185 -0.78966,0.98 -1.42344,1.6141 -0.59028,0.59059 -1.26856,2.43859 -2.08773,2.8484 -0.45133,0.22578 -2.75197,1.22638 -2.75197,1.61408 0,0.0707 0.15814,-0.0316 0.18977,-0.095 0.18482,-0.36982 0.78087,-0.81385 0.94897,-1.2343 0.37355,-0.93438 0.90116,-2.99044 1.61323,-3.7029 0.81863,-0.81906 1.90451,-1.57649 2.5622,-2.56356 0.421,-0.63179 1.87322,-3.81301 2.27753,-4.0827 1.27785,-0.85235 2.62531,-2.12059 3.79585,-0.94947 0.069,0.069 0.2799,0.67421 0.18978,0.85453 -0.17495,0.3501 -0.39271,0.69088 -0.56936,1.04443 -0.17517,0.35047 -0.78546,0.43232 -0.94896,0.75955 -0.15972,0.31955 -0.0846,0.74924 -0.37959,1.04441 -0.29756,0.2977 -0.6099,0.15363 -0.94897,0.37979 -1.03011,0.68711 -1.68408,1.42376 -2.46731,2.46859 z"
       style="fill:none;stroke:#000000;stroke-width:0.5;stroke-linecap:round;stroke-linejoin:round;stroke-miterlimit:4;stroke-dasharray:none;stroke-opacity:1"
       sodipodi:nodetypes="sssscssssssssssss" />
    <path
       id="path10150"
       d="m 143.75436,569.73541 c 1.69831,-0.0627 0.15135,-2.58237 -0.75917,-2.2787 -0.28447,0.0949 -0.28469,0.31863 -0.28469,0.56967 0,0.97349 0.23992,1.10577 1.04386,1.70903 z"
       style="fill:none;stroke:#000000;stroke-width:0.5;stroke-linecap:round;stroke-linejoin:round;stroke-miterlimit:4;stroke-dasharray:none;stroke-opacity:1"
       sodipodi:nodetypes="cssc" />
    <path
       id="path10152"
       d="m 143.27985,572.86864 c -1.43361,-0.84773 -1.91256,2.17646 -1.13873,2.56357 1.02686,0.5137 1.87623,-1.8257 1.13873,-2.56357 z"
       style="fill:none;stroke:#000000;stroke-width:0.5;stroke-linecap:round;stroke-linejoin:round;stroke-miterlimit:4;stroke-dasharray:none;stroke-opacity:1"
       sodipodi:nodetypes="csc" />
    <path
       id="path10154"
       d="m 143.56456,577.90081 c -0.58832,0.13838 -1.80304,-0.43923 -1.80304,0.28484"
       style="fill:none;stroke:#000000;stroke-width:0.5;stroke-linecap:round;stroke-linejoin:round;stroke-miterlimit:4;stroke-dasharray:none;stroke-opacity:1"
       sodipodi:nodetypes="cc" />
    <path
       id="path10156"
       d="m 140.1483,581.9835 c 0.67734,1.24213 -0.94896,0.86663 -0.94896,1.51915"
       style="fill:none;stroke:#000000;stroke-width:0.5;stroke-linecap:round;stroke-linejoin:round;stroke-miterlimit:4;stroke-dasharray:none;stroke-opacity:1"
       sodipodi:nodetypes="cc" />
    <path
       id="path10158"
       d="m 141.47685,585.02178 c -1.13488,0.70088 -3.5267,1.77295 -2.75201,3.32314 0.0342,0.0684 0.21974,0.26984 0.37958,0.18988 0.45822,-0.2292 0.15604,-0.63084 0.37962,-0.85451 0.24449,-0.24465 0.96255,-0.12205 1.23361,-0.18991 1.03667,-0.25927 0.84999,0.95357 1.42347,0.37981 0.17126,-0.17137 0.49301,-0.1135 0.66426,-0.28485 0.144,-0.14407 1.24105,-1.79659 0.94898,-2.0888 -0.12296,-0.12304 -0.46482,-0.22288 -0.56938,-0.3798 -0.19527,-0.29305 -0.0694,-0.60441 -0.3796,-0.75958 -0.4363,-0.21826 -0.94355,0.56833 -1.32853,0.66462 z"
       style="fill:none;stroke:#000000;stroke-width:0.5;stroke-linecap:round;stroke-linejoin:round;stroke-miterlimit:4;stroke-dasharray:none;stroke-opacity:1"
       sodipodi:nodetypes="cssscsssssc" />
    <path
       id="path10160"
       d="m 153.33887,593.66189 c -0.56659,1.03353 0.0949,0.61135 0.0949,1.23432"
       style="fill:none;stroke:#000000;stroke-width:0.5;stroke-linecap:round;stroke-linejoin:round;stroke-miterlimit:4;stroke-dasharray:none;stroke-opacity:1"
       sodipodi:nodetypes="cc" />
    <text
       xml:space="preserve"
       style="font-style:italic;font-variant:normal;font-weight:normal;font-stretch:normal;font-size:6.66667px;line-height:6.92002px;font-family:Arial;-inkscape-font-specification:'Arial Italic';text-align:start;letter-spacing:0.45px;text-anchor:start;fill:#000000;fill-opacity:1;stroke-width:0.999737;stroke:#000000;"
       x="226.59984"
       y="44.386189"
       id="text9935-0"
       transform="matrix(0.32835263,0.94427621,-0.9447741,0.32852577,0,0)"><tspan
         sodipodi:role="line"
         x="226.59984"
         y="44.386189"
         id="tspan9937-3"
         style="font-size:6.66667px;fill:#000000;fill-opacity:1;stroke-width:0.999737;stroke:#000000;">Hwy</tspan></text>
    <g
       id="g195"
       sodipodi:insensitive="true">
      <text
         xml:space="preserve"
         style="font-style:normal;font-variant:normal;font-weight:normal;font-stretch:normal;font-size:12px;line-height:12.89999962px;font-family:STIXGeneral;-inkscape-font-specification:STIXGeneral;text-align:start;letter-spacing:-0.2px;word-spacing:0px;text-anchor:start;fill:#000000;fill-opacity:1;stroke:none;stroke-width:1.00079"
         x="50.914623"
         y="450.26898"
         id="text10278-9-3"
         transform="scale(0.99730847,1.0026988)"><tspan
           sodipodi:role="line"
           x="50.914623"
           y="450.26898"
           style="font-style:normal;font-variant:normal;font-weight:normal;font-stretch:normal;font-size:12px;font-family:STIXGeneral;-inkscape-font-specification:STIXGeneral;stroke-width:1.00079"
           id="tspan9066">Critical Habitat for</tspan><tspan
           id="tspan51811"
           sodipodi:role="line"
           x="50.914623"
           y="463.16898"
           style="font-style:italic;font-variant:normal;font-weight:normal;font-stretch:normal;font-size:12px;font-family:STIXGeneral;-inkscape-font-specification:'STIXGeneral Italic';stroke-width:1.00079">  Gouania vitifolia -- a</tspan></text>
      <text
         xml:space="preserve"
         style="font-style:normal;font-variant:normal;font-weight:normal;font-stretch:normal;font-size:12px;line-height:29.15909958px;font-family:STIXGeneral;-inkscape-font-specification:STIXGeneral;text-align:start;letter-spacing:-0.2px;word-spacing:0px;text-anchor:start;fill:#000000;fill-opacity:1;stroke:none;stroke-width:1.00079"
         x="51.101635"
         y="482.69937"
         id="text10278-9-3-2"
         transform="scale(0.99730847,1.0026988)"><tspan
           sodipodi:role="line"
           x="51.101635"
           y="482.69937"
           id="tspan10364-8"
           style="font-size:12px;fill:#000000;fill-opacity:1;stroke-width:1.00079">Elevation (1,000-ft. contours)</tspan></text>
      <text
         xml:space="preserve"
         style="font-style:normal;font-variant:normal;font-weight:bold;font-stretch:normal;font-size:13.33329964px;line-height:19.68000031px;font-family:STIXGeneral;-inkscape-font-specification:'STIXGeneral Bold';text-align:center;letter-spacing:0.17px;word-spacing:0.249934px;text-anchor:middle;fill:#000000;fill-opacity:1;stroke:none;stroke-width:1.00274003;stroke-opacity:1"
         x="112.43091"
         y="20.80941"
         id="text10278-3-3"
         transform="scale(0.9991093,1.0008915)"><tspan
           sodipodi:role="line"
           x="114.39254"
           y="20.80941"
           style="font-size:13.33329964px;text-align:center;text-anchor:middle;fill:#000000;fill-opacity:1;stroke:none;stroke-width:1.00274003;stroke-opacity:1"
           id="tspan6356-8">Map 67 </tspan><tspan
           id="tspan51831-6"
           sodipodi:role="line"
           x="114.39254"
           y="40.48941"
           style="font-style:italic;font-variant:normal;font-weight:bold;font-stretch:normal;font-size:13.33329964px;font-family:STIXGeneral;-inkscape-font-specification:'STIXGeneral Bold Italic';text-align:center;text-anchor:middle;fill:#000000;fill-opacity:1;stroke:none;stroke-width:1.00274003;stroke-opacity:1"><tspan
   id="tspan6140"
   style="font-style:normal;font-size:13.33329964px;-inkscape-font-specification:'STIXGeneral Bold';text-align:center;text-anchor:middle;fill:#000000;fill-opacity:1;stroke:none;stroke-width:1.00274003;stroke-opacity:1">Unit 18 - </tspan>Gouania vitifolia -- a  </tspan></text>
      <text
         transform="scale(0.99730847,1.0026988)"
         id="text10278-9-3-1"
         y="503.577"
         x="50.883865"
         style="font-style:normal;font-variant:normal;font-weight:normal;font-stretch:normal;font-size:12px;line-height:32.39899826px;font-family:STIXGeneral;-inkscape-font-specification:STIXGeneral;text-align:start;letter-spacing:-0.2px;word-spacing:0px;text-anchor:start;fill:#000000;fill-opacity:1;stroke:none;stroke-width:1.00079"
         xml:space="preserve"><tspan
           style="font-size:12px;stroke-width:1.00079"
           id="tspan10364-5"
           y="503.577"
           x="50.883865"
           sodipodi:role="line">Major Road</tspan></text>
      <text
         transform="scale(0.99730847,1.0026988)"
         id="text10278-9-3-8"
         y="523.42926"
         x="51.07872"
         style="font-style:normal;font-variant:normal;font-weight:normal;font-stretch:normal;font-size:12px;line-height:32.39899826px;font-family:STIXGeneral;-inkscape-font-specification:STIXGeneral;text-align:start;letter-spacing:-0.2px;word-spacing:0px;text-anchor:start;fill:#000000;fill-opacity:1;stroke:none;stroke-width:1.00079"
         xml:space="preserve"><tspan
           style="font-size:12px;stroke-width:1.00079"
           id="tspan10364-82"
           y="523.42926"
           x="51.07872"
           sodipodi:role="line">Coastline</tspan></text>
      <text
         transform="scale(0.99730847,1.0026988)"
         id="text10278-9-3-81"
         y="432.43341"
         x="50.257401"
         style="font-style:normal;font-variant:normal;font-weight:normal;font-stretch:normal;font-size:12px;line-height:32.39899826px;font-family:STIXGeneral;-inkscape-font-specification:STIXGeneral;text-align:start;letter-spacing:-0.2px;word-spacing:0px;text-anchor:start;fill:#000000;fill-opacity:1;stroke:none;stroke-width:1.00079"
         xml:space="preserve"><tspan
           id="tspan9070-1"
           style="font-style:normal;font-variant:normal;font-weight:normal;font-stretch:normal;font-size:12px;font-family:STIXGeneral;-inkscape-font-specification:STIXGeneral;fill:#000000;fill-opacity:1;stroke-width:1.00079"
           y="432.43341"
           x="50.257401"
           sodipodi:role="line">Critical Habitat Unit 18</tspan></text>
      <text
         xml:space="preserve"
         style="font-style:italic;font-variant:normal;font-weight:normal;font-stretch:normal;font-size:6.66666985px;line-height:6.9200201px;font-family:Arial;-inkscape-font-specification:'Arial Italic';text-align:start;letter-spacing:0.44999999px;text-anchor:start;fill:#000000;fill-opacity:1;stroke-width:0.99973702"
         x="188.789"
         y="-18.708263"
         id="text9935"
         transform="matrix(0.06042542,0.9979087,-0.99843487,0.06045728,0,0)"><tspan
           sodipodi:role="line"
           x="188.789"
           y="-18.708263"
           id="tspan9937"
           style="font-size:6.66666985px;fill:#000000;fill-opacity:1;stroke-width:0.99973702">Mamalahoa</tspan></text>
      <text
         transform="scale(0.99730847,1.0026988)"
         id="text10278-9-3-8-5-1"
         y="564.4046"
         x="96.362221"
         style="font-style:normal;font-variant:normal;font-weight:normal;font-stretch:normal;font-size:8px;line-height:6.9200201px;font-family:STIXGeneral;-inkscape-font-specification:STIXGeneral;text-align:start;letter-spacing:-0.38px;word-spacing:0px;text-anchor:start;fill:#000000;fill-opacity:1;stroke:none;stroke-width:1.00079"
         xml:space="preserve"><tspan
           style="font-size:8px;stroke-width:1.00079"
           id="tspan10364-82-5-4"
           y="564.4046"
           x="96.362221"
           sodipodi:role="line">Miles</tspan></text>
      <text
         xml:space="preserve"
         style="font-style:normal;font-variant:normal;font-weight:normal;font-stretch:normal;font-size:8px;line-height:6.9200201px;font-family:STIXGeneral;-inkscape-font-specification:STIXGeneral;text-align:start;letter-spacing:0px;word-spacing:0px;text-anchor:start;fill:#000000;fill-opacity:1;stroke:none;stroke-width:1.00079"
         x="10.103637"
         y="565.03711"
         id="text10278-9-3-8-5-1-9"
         transform="scale(0.99730847,1.0026988)"><tspan
           sodipodi:role="line"
           x="10.103637"
           y="565.03711"
           id="tspan10364-82-5-4-4"
           style="font-size:8px;stroke-width:1.00079">0</tspan></text>
      <text
         xml:space="preserve"
         style="font-style:normal;font-variant:normal;font-weight:normal;font-stretch:normal;font-size:8px;line-height:6.9200201px;font-family:STIXGeneral;-inkscape-font-specification:STIXGeneral;text-align:start;letter-spacing:0px;word-spacing:0px;text-anchor:start;fill:#000000;fill-opacity:1;stroke:none;stroke-width:1.00079"
         x="45.758461"
         y="564.84576"
         id="text10278-9-3-8-5-1-96"
         transform="scale(0.99730847,1.0026988)"><tspan
           sodipodi:role="line"
           x="45.758461"
           y="564.84576"
           id="tspan10364-82-5-4-9"
           style="font-size:8px;stroke-width:1.00079">2.5</tspan></text>
      <text
         xml:space="preserve"
         style="font-style:normal;font-variant:normal;font-weight:normal;font-stretch:normal;font-size:8px;line-height:6.9200201px;font-family:STIXGeneral;-inkscape-font-specification:STIXGeneral;text-align:start;letter-spacing:0px;word-spacing:0px;text-anchor:start;fill:#000000;fill-opacity:1;stroke:none;stroke-width:1.00079"
         x="87.44651"
         y="565.06958"
         id="text10278-9-3-8-5-1-4"
         transform="scale(0.99730847,1.0026988)"><tspan
           sodipodi:role="line"
           x="87.44651"
           y="565.06958"
           id="tspan10364-82-5-4-44"
           style="font-size:8px;stroke-width:1.00079">5</tspan></text>
      <text
         id="text9935-6"
         y="224.44878"
         x="174.60985"
         style="font-style:italic;font-variant:normal;font-weight:normal;font-stretch:normal;font-size:6.66666985px;line-height:8.38000011px;font-family:Arial;-inkscape-font-specification:'Arial Italic';text-align:start;letter-spacing:0.44999999px;text-anchor:start;stroke-width:0.99973702"
         xml:space="preserve"
         transform="scale(0.99973647,1.0002636)"><tspan
           y="224.44878"
           x="174.60985"
           sodipodi:role="line"
           style="font-size:6.66666985px;text-align:start;text-anchor:start;stroke-width:0.99973702"
           id="tspan21812">Ihuanu</tspan></text>
      <text
         id="text9935-2"
         y="27.461887"
         x="221.222"
         style="font-style:italic;font-variant:normal;font-weight:normal;font-stretch:normal;font-size:6.66666985px;line-height:7.87922001px;font-family:Arial;-inkscape-font-specification:'Arial Italic';text-align:start;letter-spacing:0.44999999px;text-anchor:start;stroke-width:0.99973702"
         xml:space="preserve"
         transform="matrix(0.57467344,0.81806078,-0.81849212,0.57497645,0,0)"><tspan
           id="tspan16861"
           y="27.461887"
           x="221.222"
           sodipodi:role="line"
           style="font-size:6.66666985px;stroke-width:0.99973702">Pohakuloa</tspan></text>
      <text
         transform="matrix(0.75575459,0.65445941,-0.65487234,0.75608225,0,0)"
         id="text9935-0-0-8"
         y="193.36806"
         x="263.88831"
         style="font-style:italic;font-variant:normal;font-weight:normal;font-stretch:normal;font-size:6.66666985px;line-height:7.87922001px;font-family:Arial;-inkscape-font-specification:'Arial Italic';text-align:start;letter-spacing:0.44999999px;text-anchor:start;stroke-width:0.99973702"
         xml:space="preserve"><tspan
           id="tspan9937-8-9-2"
           y="193.36806"
           x="263.88831"
           sodipodi:role="line"
           style="font-style:italic;font-variant:normal;font-weight:normal;font-stretch:normal;font-size:6.66666985px;font-family:Arial;-inkscape-font-specification:'Arial Italic';stroke-width:0.99973702">1000</tspan></text>
      <text
         xml:space="preserve"
         style="font-style:normal;font-variant:normal;font-weight:normal;font-stretch:normal;font-size:8px;line-height:6.9200201px;font-family:STIXGeneral;-inkscape-font-specification:STIXGeneral;text-align:start;letter-spacing:-0.38px;word-spacing:0px;text-anchor:start;fill:#000000;fill-opacity:1;stroke:none;stroke-width:1.00079"
         x="67.251831"
         y="583.52527"
         id="text10278-9-3-8-5-1-2"
         transform="scale(0.99730847,1.0026988)"><tspan
           sodipodi:role="line"
           x="67.251831"
           y="583.52527"
           id="tspan10364-82-5-4-43"
           style="font-size:8px;stroke-width:1.00079">Kilometers</tspan></text>
      <text
         transform="scale(0.99730847,1.0026988)"
         id="text10278-9-3-8-5-1-9-3"
         y="583.55096"
         x="10.205332"
         style="font-style:normal;font-variant:normal;font-weight:normal;font-stretch:normal;font-size:8px;line-height:6.9200201px;font-family:STIXGeneral;-inkscape-font-specification:STIXGeneral;text-align:start;letter-spacing:0px;word-spacing:0px;text-anchor:start;fill:#000000;fill-opacity:1;stroke:none;stroke-width:1.00079"
         xml:space="preserve"><tspan
           style="font-size:8px;stroke-width:1.00079"
           id="tspan10364-82-5-4-4-4"
           y="583.55096"
           x="10.205332"
           sodipodi:role="line">0</tspan></text>
      <text
         transform="scale(0.99730847,1.0026988)"
         id="text10278-9-3-8-5-1-96-0"
         y="583.56519"
         x="30.817024"
         style="font-style:normal;font-variant:normal;font-weight:normal;font-stretch:normal;font-size:8px;line-height:6.9200201px;font-family:STIXGeneral;-inkscape-font-specification:STIXGeneral;text-align:start;letter-spacing:0px;word-spacing:0px;text-anchor:start;fill:#000000;fill-opacity:1;stroke:none;stroke-width:1.00079"
         xml:space="preserve"><tspan
           style="font-size:8px;stroke-width:1.00079"
           id="tspan10364-82-5-4-9-9"
           y="583.56519"
           x="30.817024"
           sodipodi:role="line">2.5</tspan></text>
      <text
         transform="scale(0.99730847,1.0026988)"
         id="text10278-9-3-8-5-1-4-2"
         y="583.4375"
         x="57.906673"
         style="font-style:normal;font-variant:normal;font-weight:normal;font-stretch:normal;font-size:8px;line-height:6.9200201px;font-family:STIXGeneral;-inkscape-font-specification:STIXGeneral;text-align:start;letter-spacing:0px;word-spacing:0px;text-anchor:start;fill:#000000;fill-opacity:1;stroke:none;stroke-width:1.00079"
         xml:space="preserve"><tspan
           style="font-size:8px;stroke-width:1.00079"
           id="tspan10364-82-5-4-44-4"
           y="583.4375"
           x="57.906673"
           sodipodi:role="line">5</tspan></text>
      <text
         transform="scale(0.99973647,1.0002636)"
         xml:space="preserve"
         style="font-style:italic;font-variant:normal;font-weight:normal;font-stretch:normal;font-size:6.66666985px;line-height:7.87922001px;font-family:Arial;-inkscape-font-specification:'Arial Italic';text-align:start;letter-spacing:0.44999999px;text-anchor:start;stroke-width:0.99973702"
         x="148.49779"
         y="303.91464"
         id="text9935-2-2"><tspan
           style="font-size:6.66666985px;stroke-width:0.99973702"
           sodipodi:role="line"
           x="148.49779"
           y="303.91464"
           id="tspan16861-0">Waiahuli</tspan></text>
      <text
         transform="scale(0.99973647,1.0002636)"
         xml:space="preserve"
         style="font-style:italic;font-variant:normal;font-weight:normal;font-stretch:normal;font-size:6.66666985px;line-height:9.77999973px;font-family:Arial;-inkscape-font-specification:'Arial Italic';text-align:start;letter-spacing:0.44999999px;text-anchor:start;stroke-width:0.99973702"
         x="160.80736"
         y="179.89084"
         id="text9935-2-4"><tspan
           style="font-size:6.66666985px;stroke-width:0.99973702"
           sodipodi:role="line"
           x="160.80736"
           y="179.89084"
           id="tspan21850">Keau</tspan></text>
      <text
         xml:space="preserve"
         style="font-style:italic;font-variant:normal;font-weight:normal;font-stretch:normal;font-size:6.66666985px;line-height:7.87922001px;font-family:Arial;-inkscape-font-specification:'Arial Italic';text-align:start;letter-spacing:0.44999999px;text-anchor:start;stroke-width:0.99973702"
         x="230.71564"
         y="217.06824"
         id="text9935-0-0-8-9"
         transform="matrix(0.89191657,0.45162701,-0.45194814,0.8923346,0,0)"><tspan
           style="font-style:italic;font-variant:normal;font-weight:normal;font-stretch:normal;font-size:6.66666985px;font-family:Arial;-inkscape-font-specification:'Arial Italic';stroke-width:0.99973702"
           sodipodi:role="line"
           x="230.71564"
           y="217.06824"
           id="tspan9937-8-9-2-0">2000</tspan></text>
      <text
         transform="matrix(0.89191657,0.45162701,-0.45194814,0.8923346,0,0)"
         id="text9935-0-0-8-9-8"
         y="186.52182"
         x="230.95541"
         style="font-style:italic;font-variant:normal;font-weight:normal;font-stretch:normal;font-size:6.66666985px;line-height:7.87922001px;font-family:Arial;-inkscape-font-specification:'Arial Italic';text-align:start;letter-spacing:0.44999999px;text-anchor:start;stroke-width:0.99973702"
         xml:space="preserve"><tspan
           id="tspan9937-8-9-2-0-5"
           y="186.52182"
           x="230.95541"
           sodipodi:role="line"
           style="font-style:italic;font-variant:normal;font-weight:normal;font-stretch:normal;font-size:6.66666985px;font-family:Arial;-inkscape-font-specification:'Arial Italic';stroke-width:0.99973702">3000</tspan></text>
      <text
         transform="matrix(0.87286606,0.48742893,-0.48776675,0.87327072,0,0)"
         id="text9935-0-0-8-9-3"
         y="151.81599"
         x="238.48322"
         style="font-style:italic;font-variant:normal;font-weight:normal;font-stretch:normal;font-size:6.66666985px;line-height:7.87922001px;font-family:Arial;-inkscape-font-specification:'Arial Italic';text-align:start;letter-spacing:0.44999999px;text-anchor:start;stroke-width:0.99973702"
         xml:space="preserve"><tspan
           id="tspan9937-8-9-2-0-4"
           y="151.81599"
           x="238.48322"
           sodipodi:role="line"
           style="font-style:italic;font-variant:normal;font-weight:normal;font-stretch:normal;font-size:6.66666985px;font-family:Arial;-inkscape-font-specification:'Arial Italic';stroke-width:0.99973702">4000</tspan></text>
      <text
         id="text9935-2-2-7"
         y="320.55838"
         x="8.8860512"
         style="font-style:italic;font-variant:normal;font-weight:normal;font-stretch:normal;font-size:6.66666985px;line-height:7.87922001px;font-family:Arial;-inkscape-font-specification:'Arial Italic';text-align:start;letter-spacing:0.44999999px;text-anchor:start;stroke-width:0.99973702"
         xml:space="preserve"
         transform="scale(0.99973647,1.0002636)"><tspan
           id="tspan16861-0-1"
           y="320.55838"
           x="8.8860512"
           sodipodi:role="line"
           style="font-size:6.66666985px;stroke-width:0.99973702">Kaulanamauna</tspan></text>
      <text
         id="text9935-2-2-8"
         y="373.05685"
         x="52.460281"
         style="font-style:italic;font-variant:normal;font-weight:normal;font-stretch:normal;font-size:6.66666985px;line-height:7.87922001px;font-family:Arial;-inkscape-font-specification:'Arial Italic';text-align:start;letter-spacing:0.44999999px;text-anchor:start;stroke-width:0.99973702"
         xml:space="preserve"
         transform="scale(0.99973647,1.0002636)"><tspan
           id="tspan16861-0-9"
           y="373.05685"
           x="52.460281"
           sodipodi:role="line"
           style="font-size:6.66666985px;stroke-width:0.99973702">Na Puu a Pele</tspan></text>
      <text
         id="text9935-2-2-3"
         y="398.45413"
         x="22.528702"
         style="font-style:italic;font-variant:normal;font-weight:normal;font-stretch:normal;font-size:6.66666985px;line-height:7.87922001px;font-family:Arial;-inkscape-font-specification:'Arial Italic';text-align:start;letter-spacing:0.44999999px;text-anchor:start;stroke-width:0.99973702"
         xml:space="preserve"
         transform="scale(0.99973647,1.0002636)"><tspan
           id="tspan16861-0-7"
           y="398.45413"
           x="22.528702"
           sodipodi:role="line"
           style="font-size:6.66666985px;stroke-width:0.99973702">Pacific Ocean</tspan></text>
    </g>
    <path
       style="fill:none;stroke:#000000;stroke-width:1;stroke-linecap:butt;stroke-linejoin:round;stroke-miterlimit:4;stroke-dasharray:1, 1;stroke-dashoffset:0;stroke-opacity:1"
       d="m 32.770021,47.827393 -0.377212,4.534564 -1.831967,6.476411 0.05446,3.285518 -0.995486,12.889238 -1.850087,9.676883 0.699072,9.12762 -1.760188,4.505119 -0.416988,2.715504 -0.436584,6.33495 -2.503641,6.8359 -0.734967,4.28087 0.933183,0.81331 -0.862028,7.8654 -1.749811,3.54929 -3.261194,25.44293 1.017646,1.87427 -0.592361,4.67795 0.968286,6.39245 -0.318574,2.83795 0.620165,7.12557 -1.476054,4.50271 1.128082,7.03052 -0.814519,8.48883 1.846137,3.57284 -0.298433,3.6381 1.584212,4.02278 -0.241953,9.60792 0.956393,1.99601 0.244201,1.84837 -0.522295,2.5374 1.404156,1.88713 0.921984,2.05495 -1.595936,1.27153 0.349418,2.18732 2.942483,6.39422 0.748582,3.74945 3.247807,7.03563 1.529563,-0.0912 1.451577,3.92807 2.209347,1.18595 0.709103,4.79003 1.842156,1.51487 0.681289,1.82302 -0.77905,2.3113 2.126538,0.24719 0.715341,2.01586 1.9457,0.0753 0.102891,2.8221 0.588488,1.74791 0.07555,5.59528 3.490264,-0.49407 1.344052,10.07106 2.354133,0.27481 1.35932,4.03495 -0.412592,2.27395 1.810322,1.09758 0.922142,2.29903 1.751326,0.86893 1.38565,2.18729 1.069403,1.02921 0.89612,2.50641 2.116656,0.70023 0.260984,2.44729 1.807895,1.01751 0.695082,3.24729 3.745258,0.53776 1.44618,2.11533 1.447952,3.98619 2.186534,0.0303 6.007144,6.11228 2.903034,4.22547 4.055048,1.6963 6.410478,3.94587 3.138391,0.52144 3.915907,2.5614 2.164674,-0.10616 0.77947,1.7679 2.23208,1.40686 2.36867,-0.75077 4.09782,0.96061 1.86375,1.59408 5.63955,-0.18946 1.1526,0.94936 2.214,-0.64622 1.13515,1.6528 2.74126,1.16406 4.28352,0.21583 0.72614,2.25595 4.18977,1.11869 1.1785,1.2786 4.04589,1.80678 4.67768,0.62495 1.24027,1.94254 1.64219,0.54529 1.06755,1.07779 2.29839,-0.86241 0.87359,2.29965 3.62436,2.11383 3.13609,3.31497 2.71946,-0.39354 1.59418,1.75729 2.29084,-0.3532 2.07506,0.74248 0.088,1.90615 3.13142,-0.18011 1.05429,1.56598 0.62196,1.79874 3.92448,1.5971 3.29022,2.32489 4.51623,0.0784 5.72493,1.93309 2.24546,0.10767 6.52062,1.44638 4.77433,-1.38556 1.7962,1.20198 4.16303,-1.94012 4.5299,0.6523 1.57139,1.91023 0.34856,2.77536 1.31785,4.20966 -0.0989,14.94083 -1.02953,0.6109 -0.60047,2.49379 1.75447,1.88852"
       id="path14359-1-7-5-3-0-73-1-9-8-5-9-7"
       inkscape:connector-curvature="0"
       sodipodi:nodetypes="ccccccccccccccccccccccccccccccccccccccccccccccccccccccccccccccccccccccccccccccccccccccccccccccccccccccccccccccccccccccccccccc" />
    <path
       sodipodi:nodetypes="ccccccccccccccccccccccccccccccccccccccccccccccccccccccccccccccccccccccccccccccccccccccccccccccccccc"
       inkscape:connector-curvature="0"
       id="path14359-1-7-5-3-0-73-1-9-8-5-9-7-9"
       d="m 47.715495,47.912133 0.594024,3.663153 0.675773,7.557237 -2.007418,5.977623 0.374212,2.132593 -1.500254,6.966106 0.09753,4.798003 -1.863247,4.242564 0.558159,2.131326 -0.687884,2.074792 -0.160311,12.047449 -1.24837,4.148801 0.167916,2.47655 -2.533089,11.50199 0.727422,4.44647 -0.63482,4.93137 -2.597689,6.06067 0.02772,2.49834 0.636869,2.39825 -0.423374,6.46345 -1.118081,2.04769 1.886734,7.35359 -0.46625,10.8048 2.176077,4.81172 -0.187135,2.31974 2.627612,4.78066 0.04862,8.17148 2.325437,4.16366 0.01416,2.72722 3.014608,8.22406 0.278689,3.46632 1.11107,1.0842 -2.954405,8.3443 1.595797,2.14012 0.984693,4.14328 3.134104,3.33947 -0.69937,1.89444 3.78439,3.97644 0.136616,2.99057 4.517555,5.54427 3.69669,7.07976 0.158974,2.65029 0.842056,1.99678 1.744098,1.38354 0.820707,4.93667 4.60086,3.52474 1.860346,5.6228 3.204961,2.36644 2.37462,8.31728 -0.584874,2.47841 3.80956,2.23238 1.445645,2.58316 3.56645,1.45751 2.917421,3.20871 0.05208,2.06925 3.397999,0.10736 1.037558,2.23893 2.364926,-0.12024 0.479944,2.4794 6.078944,1.39002 2.39495,2.02713 m 10.59342,5.99547 2.50154,2.23385 2.45153,0.20575 2.05267,1.40096 1.64846,0.12861 1.71202,0.53204 2.7291,1.9082 3.05597,0.25563 3.53238,2.09284 1.33254,-0.25662 1.38271,0.65595 2.02601,2.5968 6.50149,-0.11079 6.39433,2.08619 1.61881,1.79434 2.65058,-0.0386 1.38679,0.93403 1.34921,2.02123 2.16971,-0.79693 1.36389,1.22163 2.57425,-1.58152 3.94471,2.00163 2.56083,3.92107 2.45989,-0.63296 4.21782,2.2714 3.55292,-1.45081 1.76628,0.90619 3.37837,4.72635 2.22202,1.45288 2.36796,-1.80789 0.76186,2.72848 2.11065,0.20195 2.45524,1.39692 4.94921,-9.9e-4 7.14224,1.96531 -0.88959,3.79694 1.64469,0.97075 4.87409,-2.11158"
       style="fill:none;stroke:#000000;stroke-width:1;stroke-linecap:butt;stroke-linejoin:round;stroke-miterlimit:4;stroke-dasharray:1, 1;stroke-dashoffset:0;stroke-opacity:1" />
    <path
       sodipodi:nodetypes="ccccccccccccccccccccccccccccccccccccccccccccccccccccccccccccccccccccccccccccc"
       inkscape:connector-curvature="0"
       id="path14359-1-7-5-3-0-73-1-9-8-5-9-7-3"
       d="m 63.341456,47.887211 -0.251251,2.891084 -0.745987,1.546887 0.826312,5.319596 -1.031321,2.545258 0.687527,5.029549 -1.188849,7.668359 0.897744,3.655241 -0.776961,2.298909 -1.743157,2.25702 -0.586489,6.000051 -1.260648,1.407367 -0.470022,3.764617 0.964552,2.280487 -1.345933,11.516304 -0.202048,4.19274 1.204336,3.73381 -1.575775,4.1384 0.881099,3.54744 -0.140072,4.83568 -1.669487,2.12546 1.128804,4.36811 -1.00914,1.9354 0.822698,2.42657 -0.101801,2.04331 1.227665,1.2774 0.553247,2.19343 -0.519997,6.93547 -1.32903,4.31115 1.82355,3.55142 -0.130556,2.92867 3.400424,6.57943 0.209099,4.20016 2.985595,3.47279 0.03188,2.65399 1.91439,1.36844 -0.259578,4.19932 1.947988,1.93376 -0.398937,4.83588 1.965117,6.93742 2.98409,4.19393 0.393838,6.23681 2.810045,6.10963 1.611244,1.75738 3.073316,6.84766 0.385995,4.2025 2.611344,5.00955 1.224675,3.60446 1.89216,2.16235 1.346527,4.10304 2.238667,1.75812 6.243859,5.57101 4.364826,5.19226 2.71831,3.34565 8.82117,8.62204 2.9592,1.27102 0.61211,3.32444 3.30208,0.79078 m 15.75382,7.43682 9.65144,5.29241 3.4497,0.26399 1.73769,3.43908 9.81065,3.5521 4.05588,-0.23584 2.34584,1.25251 3.21555,-1.37973 5.87841,2.81211 4.02271,0.36718 4.85294,-1.97022 1.28572,-1.45881 3.79277,-0.25764 2.16776,-1.31603 6.86377,-0.0981 4.54248,1.38553 2.52155,0.0576 4.40102,-1.19884 6.82916,4.13503"
       style="fill:none;stroke:#000000;stroke-width:1;stroke-linecap:butt;stroke-linejoin:round;stroke-miterlimit:4;stroke-dasharray:1, 1;stroke-dashoffset:0;stroke-opacity:1" />
    <path
       sodipodi:nodetypes="cccccccccccccccccccccccccccccccccccccccccccccccccccccccccccccccccccccccc"
       inkscape:connector-curvature="0"
       id="path14359-1-7-5-3-0-73-1-9-8-5-9-7-96"
       d="m 76.815827,48.003513 -0.780219,2.776299 0.71045,9.573479 0.867554,2.066045 -1.258876,9.432949 0.480251,2.789715 -1.213594,6.804796 0.929559,2.798898 -2.577104,5.51712 -0.375222,2.306932 -1.252518,2.231021 -0.677566,13.387653 3.599611,14.68315 0.232744,9.07796 -0.453685,4.65696 1.627315,1.67484 2.990487,11.25684 -1.250845,2.18008 1.27857,1.58265 0.500154,1.97011 -0.113871,4.99305 1.963473,7.1883 0.998001,1.52838 2.50173,0.22447 0.278788,2.77335 3.089476,8.666 1.941967,2.1988 0.02654,5.67561 1.737433,1.43215 0.542089,4.36784 1.203692,1.86127 0.869742,2.84674 -0.05961,2.57994 0.799736,2.24452 1.482212,1.87355 2.922259,8.60311 1.28736,1.3346 0.49649,1.86037 3.05639,3.00526 1.30522,3.49285 2.39295,3.30572 2.31475,0.37102 0.86586,2.15219 1.76481,0.46451 1.42108,4.6977 3.14906,1.09434 1.28206,3.4276 6.35331,3.92754 3.28658,3.05417 3.43361,2.86311 1.25888,-0.33238 m 15.50181,7.77331 1.49728,2.34233 1.85428,0.10975 1.72348,1.95121 2.55014,-0.1159 4.30679,1.78813 4.65946,0.65136 2.01158,-0.56461 2.28414,0.82637 4.5701,-1.17498 2.46193,0.0244 4.2072,1.28129 6.94289,-1.27594 2.1905,1.70883 10.7866,-1.48705 1.6458,0.93426 3.19796,-0.88264 2.01899,0.96317 4.65195,-0.43517 1.35982,1.08692 2.19828,-1.50589"
       style="fill:none;stroke:#000000;stroke-width:1;stroke-linecap:butt;stroke-linejoin:round;stroke-miterlimit:4;stroke-dasharray:1, 1;stroke-dashoffset:0;stroke-opacity:1" />
    <path
       sodipodi:nodetypes="ccccccccccccccccccccccccccccccccccccccccccccccccccccccccccc"
       inkscape:connector-curvature="0"
       id="path14359-1-7-5-3-0-73-1-9-8-5-9-7-6"
       d="m 95.208096,48.028435 -0.955244,4.114512 1.357528,6.397961 -1.072136,9.504971 1.855068,4.474561 -2.721721,13.620284 -0.41167,9.753541 -1.427119,6.515185 1.130587,2.65376 -0.816222,2.64345 0.961473,3.74822 -0.169322,4.92699 1.008318,1.92082 1.478143,15.06358 4.493305,7.86652 0.337106,2.29056 2.74174,3.48642 0.17288,2.25356 2.47055,3.50776 0.25782,2.64374 1.27589,2.44793 0.74566,4.40694 3.14585,3.57006 -0.0385,3.91084 -0.10685,2.91211 5.6274,4.4552 0.45674,7.44594 2.53587,2.4712 0.53769,3.10961 1.64234,1.90281 0.33963,1.86647 5.76532,6.14136 -0.80397,2.13532 1.21557,1.5284 0.85862,3.66698 0.006,2.21117 2.15913,1.63236 -0.0405,1.76584 2.48861,2.96558 7.699,6.68815 2.43309,-0.19977 3.36518,3.68158 4.6027,0.30118 2.38672,3.83389 8.40027,1.13335 1.71058,1.45912 2.39494,0.17058 1.90621,-0.64834 2.07814,1.19897 2.32908,-0.37158 4.61731,0.96782 4.36855,-2.36095 4.80001,0.24636 4.22415,-1.01385 4.53418,-0.10708 4.12551,-0.74057 3.46186,-1.45369 4.41322,0.38222 9.19702,-4.77933"
       style="fill:none;stroke:#000000;stroke-width:1;stroke-linecap:butt;stroke-linejoin:round;stroke-miterlimit:4;stroke-dasharray:1, 1;stroke-dashoffset:0;stroke-opacity:1" />
    <path
       sodipodi:nodetypes="ccccccccccccccccccccccccccccccccccccccccccccc"
       inkscape:connector-curvature="0"
       id="path14359-1-7-5-3-0-73-1-9-8-5-9-7-37"
       d="m 117.94611,47.865281 0.68221,4.630748 -1.59282,1.801508 1.25447,3.368443 -1.20038,5.466578 -0.11722,25.286454 1.1084,2.74342 -1.00681,4.062441 0.57895,2.737679 -1.8937,1.012347 -0.0852,1.832301 1.26298,1.21093 -0.75591,11.07547 1.60831,1.52235 0.40879,11.37272 -0.53486,3.86208 3.74721,8.8381 3.18005,3.35552 0.14997,2.22468 2.85329,2.98257 4.36085,9.79798 2.42019,2.39476 0.56664,2.18279 3.05955,1.62236 0.76213,3.6646 3.20295,3.23859 0.79814,2.74407 4.42302,10.79932 7.45709,8.89822 9.88281,10.00374 2.07219,-0.45022 7.45312,-3.52988 3.37471,-0.31317 2.70417,0.33668 2.15074,-0.47429 6.17188,-3.29082 2.023,-0.35066 2.16263,-1.53407 1.83658,-0.6438 5.66728,-6.995 5.6425,0.64938 3.58264,-1.05731 2.11202,0.32594 2.60137,-0.52401 2.68228,-2.14423"
       style="fill:none;stroke:#000000;stroke-width:1;stroke-linecap:butt;stroke-linejoin:round;stroke-miterlimit:4;stroke-dasharray:1, 1;stroke-dashoffset:0;stroke-opacity:1" />
    <path
       sodipodi:nodetypes="ccccccccccccccccccccccccccccccccccccccccccccccc"
       inkscape:connector-curvature="0"
       id="path14359-1-7-5-3-0-73-1-9-8-5-9-7-5"
       d="m 142.14241,47.850522 -0.19793,2.687766 -1.38174,4.380001 0.8819,4.463022 -0.0864,2.736647 1.09604,2.035207 0.0945,2.637065 -1.51735,1.523335 -0.0961,2.549072 -1.47232,1.612749 2.86454,8.834759 -1.40749,9.040592 2.4214,4.561333 -0.66121,2.245149 1.11167,1.21386 -0.47636,9.337621 0.97442,1.12259 0.13633,3.44128 -0.5249,2.04338 1.90046,4.56186 1.79311,6.99751 4.20119,2.33599 0.63041,7.86235 4.52432,6.72776 -0.0318,2.50366 1.79434,4.64269 2.01326,1.71105 0.46983,2.60478 2.49284,1.69487 0.38802,1.93593 2.2579,-1.08988 1.61991,0.61321 1.64735,-1.3501 2.252,0.50584 4.86215,-4.25001 4.90484,0.32405 3.36595,-3.10238 4.40081,-0.0998 1.78681,-2.05193 2.02117,0.78077 6.31804,-1.50708 4.742,-0.44755 1.84311,-1.94865 3.78633,-1.44879 2.19448,-0.0827 2.72855,-1.58758 1.95567,-2.1104"
       style="fill:none;stroke:#000000;stroke-width:1;stroke-linecap:butt;stroke-linejoin:round;stroke-miterlimit:4;stroke-dasharray:1, 1;stroke-dashoffset:0;stroke-opacity:1" />
    <path
       sodipodi:nodetypes="cccccccccccccccccccccccccc"
       inkscape:connector-curvature="0"
       id="path14359-1-7-5-3-0-73-1-9-8-5-9-7-31"
       d="m 174.5045,47.966823 -0.18967,2.056707 -1.442,2.186736 1.20039,2.748518 -0.84337,6.128676 1.55866,1.899322 -1.47113,0.875265 0.68365,8.235033 -1.26711,1.84538 1.42106,1.918072 -0.0436,2.635795 4.29817,5.50383 0.36567,3.255942 4.89535,5.922868 0.0731,3.610124 0.83923,2.419136 3.46249,3.465173 3.28428,-1.95246 2.37484,-0.925672 2.14963,-0.298119 1.83894,0.38535 4.93532,-2.688136 3.88844,-0.900777 4.53147,0.379317 2.05895,0.625287 3.65707,-0.700947"
       style="fill:none;stroke:#000000;stroke-width:1;stroke-linecap:butt;stroke-linejoin:round;stroke-miterlimit:4;stroke-dasharray:1, 1;stroke-dashoffset:0;stroke-opacity:1" />
    <path
       style="fill:none;stroke:#000000;stroke-width:1;stroke-linecap:round;stroke-linejoin:round;stroke-miterlimit:4;stroke-dasharray:none;stroke-opacity:1"
       d="m 3.4196771,322.15665 c 1.1771059,-0.0464 1.613769,0.34224 1.9495913,1.34971 0.1051382,0.31542 0.5620406,0.69308 0.7498397,0.9748 0.1555684,0.23334 0.1654505,0.61535 0.3749149,0.82483 0.4351877,0.43517 0.7150247,0.90513 0.9748105,1.42469 0.2776389,0.5553 1.1286759,0.16172 1.3497057,0.82482 0.1921757,0.57655 -0.385708,1.32815 -0.075056,1.94961 0.1276946,0.25537 0.254508,0.58398 0.3749347,0.82482 0.096246,0.19249 0.313345,0.0537 0.3749149,0.29993 0.3320101,1.32803 0.8300552,2.25477 1.7246302,3.14934 0.167896,0.1679 0.07407,0.82208 0.149974,1.04978 0.136695,0.41008 1.968662,1.34082 2.324506,1.87461 0.454437,0.68163 1.164431,1.20409 1.499689,1.87461 0.225278,0.45055 -0.05228,0.94525 0.149964,1.34971 0.482113,0.96422 1.894755,1.16503 2.399503,2.17455 0.412414,0.82481 -0.03396,2.03173 0.374915,2.84939 0.139191,0.27837 0.355805,0.54249 0.449912,0.82483 0.156083,0.46826 0.07357,1.04689 0.299928,1.49968 0.223188,0.44637 0.716114,0.68239 0.824827,0.89981 0.233318,0.46663 -0.402215,1.15206 -0.599866,1.34972 -0.118823,0.11883 0,0.9354 0,1.12476 0,0.36852 0.299938,1.34528 0.299938,1.87461 0,0.46426 -0.326168,0.52857 -0.449912,0.89981 -0.160113,0.48034 0.06179,0.73665 0.299938,0.9748 0.107316,0.10731 0.04198,1.10993 0.07506,1.27472 0.170273,0.85139 -0.450199,1.9487 -0.149964,2.84941 0.142409,0.42725 0.57223,0.2723 0.824827,0.52488 0.422909,0.42292 0.472349,1.44715 0.899813,1.87462 0.109882,0.10988 0.396224,0.0856 0.524879,0.14996 0.303374,0.15169 0.556367,0.33542 0.899814,0.4499 0.513937,0.17132 0.898645,-0.15055 1.349716,0.075 0.18668,0.0934 3.358094,0.0751 3.749208,1.19976 0.92342,0.0696 0.163362,0.64411 0.374925,0.74989 0.652613,0.32631 1.336289,0.56593 1.949582,0.97479 0.597756,0.3985 1.32807,0.0266 1.874614,0.29994 0.549069,0.27454 1.041074,0.78299 1.574666,1.04979 0.846542,0.42326 1.93159,0.61286 2.699431,1.12475 0.728105,0.48541 1.891002,1.29934 2.324516,1.94959 0.264549,0.39683 0.325574,0.98398 0.599866,1.34972 0.260469,0.34728 1.223774,1.54918 1.574677,1.72464 0.536276,0.26813 1.185245,0.29631 1.799617,0.44991 0.426108,0.10652 0.514967,0.54328 0.824827,0.74983 0.355705,0.23715 0.505669,0.0186 0.899804,0.14998 0.43892,0.14631 0.732709,-0.36636 1.049787,-0.52489 0.144756,-0.0724 0.423058,0.399 0.524889,0.44991 0.575121,0.28756 1.3846,0.24239 1.949591,0.52488 0.42492,0.21246 1.083355,0.55846 1.424693,0.89981 0.339377,0.33937 0.61756,2.05546 1.424702,2.32452 0.603352,0.20111 1.611809,-0.0751 2.24953,-0.0751 0.132487,0 1.101188,0.17355 1.124764,0.14996 0.0802,-0.0802 0.289254,-0.36957 0.449912,-0.4499 0.420335,-0.21016 0.952333,-0.0225 1.649653,0.52488 0.656703,0.51548 1.621146,-0.72133 1.799618,-0.8998 0.489192,-0.48919 1.921975,0.79721 2.174542,1.04978 0.05842,0.0584 0.626482,0.0508 0.674853,0.075 2.015498,-0.44529 2.222705,1.22383 3.824205,2.02457 0.389174,0.19459 0.902666,-0.6013 1.49968,-0.89981 0.454486,-0.22724 2.109784,0.18235 2.324516,0.0751 0.660307,-0.33015 1.318465,-0.71027 2.099555,-0.4499 0.771218,0.25707 1.015359,1.69022 1.049778,1.72464 0.511967,0.51196 0.986802,0.23094 1.574666,0.52488 0.446447,0.22322 0.494689,1.03584 0.974801,1.04979 1.293592,0.0375 3.006558,-0.20442 4.124124,0.0751 1.359627,0.3399 1.310068,1.14831 2.174552,1.72463 0.444881,0.29659 0.883168,0.2944 1.349715,0.44991 0.267688,0.0892 0.479123,0.34162 0.74984,0.44991 0.252449,0.10098 0.578181,0.0266 0.824827,0.14996 0.452486,0.22625 0.529711,0.90222 0.9748,1.12477 0.811608,0.40581 1.259946,-0.29994 1.874605,-0.29994 0.502144,0 0.499777,0.71864 0.97479,0.59987 0.42796,-0.10699 0.449001,-0.74954 0.899804,-0.8998 0.876039,-0.29203 2.925412,1.36922 3.599255,1.87461 0.574616,0.43095 1.341368,0.25826 2.024568,0.59987 0.249151,0.12456 0.544,0.22494 0.824827,0.22494 h 0.149964 c -0.452001,0 1.779546,-1.3899 2.099565,-0.74984 0.329772,-0.0729 0.866603,-0.37214 1.199752,-0.15004 0.511125,0.34074 0.693755,1.06855 1.349725,1.19974 0.303404,0.0607 0.41274,-0.0975 0.674853,-0.14996 0.225594,-0.0451 1.044522,0.0802 1.199752,-0.0751 0.50216,-0.50216 1.78577,-0.32214 2.47448,-0.14996 0.14159,0.0353 0.39391,-0.0656 0.52489,0 0.37761,0.18881 -0.25937,0.79041 0.0751,1.12475 0.14895,0.14897 0.44552,0.14343 0.59987,0.37493 0.31848,0.47773 1.60144,2.1799 1.72462,2.54946 0.23466,0.70397 -0.49367,1.7121 -0.14997,2.39949 0.33659,0.6732 0.9623,0.5124 1.27474,0.82482 0.15669,0.1567 0.11588,0.99865 0.29992,1.27474 0.23297,0.34944 0.68915,0.0589 0.89982,0.37492 0.46005,0.69007 1.02026,1.77995 1.72465,2.24954 0.71144,0.47429 1.93947,1.38214 2.62444,1.72463 0.33677,0.16839 0.76915,0.10642 1.12476,0.22496 1.25617,0.41872 3.16937,1.23473 4.04914,2.24952 0.74587,0.86032 0.93575,1.14272 1.72464,2.17454 0.18662,0.24407 0.55686,0.24094 0.82483,0.37496 0.39247,0.19623 0.66871,0.81868 0.9748,1.12477 0.49428,0.49429 1.11185,0.81191 1.57467,1.27473 0.14396,0.14396 0.82482,1.21366 0.82482,1.34971"
       id="path1602"
       sodipodi:nodetypes="csssssssssssssssssssssssssssssscsssssssssssscssssssssscsscssssssssssssssssccssscsssssssssssssssssc" />
    <path
       style="fill:none;stroke:#000000;stroke-width:1;stroke-linecap:round;stroke-linejoin:round;stroke-miterlimit:4;stroke-dasharray:none;stroke-opacity:1"
       d="m 20.355191,47.804166 c 0.06357,1.287642 0.343457,2.182082 -0.657831,3.183366 -0.910409,0.910415 -2.030272,1.372451 -2.894429,2.236609 -0.289502,0.28949 -1.335061,2.151426 -1.052531,2.433959 0.08159,0.08163 0.28059,0.0134 0.197345,0.26313 -0.101871,0.305643 -0.726174,0.860328 -0.920944,1.24987 -0.27255,0.545086 0.643156,0.701838 0.460477,1.24987 -0.101772,0.305295 -0.661961,0.715337 -0.460477,1.118306 0.290491,0.580996 0.998763,1.429517 1.118308,1.907696 0.144152,0.57665 -0.09179,1.92147 0.131557,2.368175 0.436227,0.872457 1.614858,1.160735 1.841918,1.841914 0.126358,0.379054 -0.855523,-0.06441 -0.986743,0.460478 -0.01644,0.06584 -0.166589,0.258862 -0.131566,0.328913 0.254993,0.509994 1.665615,0.989353 1.44722,1.644566 -0.143954,0.431858 -0.124942,0.901094 -0.263133,1.315654 -0.133666,0.401015 -0.495124,0.645758 -0.657822,1.052521 -0.08238,0.20592 -0.04179,0.41245 -0.131576,0.592044 -0.128546,0.257117 0.147152,0.391237 0.197364,0.592044 0.0505,0.201915 -0.04337,2.12605 -0.131566,2.302392 -0.191413,0.382808 -0.274163,0.808682 -0.526265,1.249871 -0.412205,0.721353 -0.947481,1.329426 -1.184097,2.039262 -0.227248,0.681759 0.120754,1.666182 -0.197344,2.302392 -0.263806,0.527618 0.922103,1.057078 1.05252,1.578783 0.202622,0.810461 0.484569,2.708233 0.328921,3.48648 -0.09605,0.480273 -0.157281,1.472929 -0.460477,1.776132 -0.182016,0.182008 -0.647959,0.05098 -0.789398,0.263131 -0.06812,0.102222 -0.02287,3.134723 0,3.157562 0.125417,0.125414 0.400848,0.26929 0.526265,0.394704 0.264044,0.26404 -0.06585,0.74489 -0.06585,1.118294 0.361666,0.553123 -0.28863,0.379908 -0.394699,0.59205 -0.136062,0.272133 0.004,0.583725 -0.131566,0.855168 -0.147459,0.294932 -0.622779,0.425425 -0.855166,0.657831 -0.192562,0.192549 -1.016844,1.274382 -1.118309,1.57878 -0.08526,0.255687 0.281699,1.504496 0.131566,2.10504 -0.08545,0.341854 -0.563783,1.757628 -0.526265,1.907704 0.06605,0.26402 0.532088,0.377193 0.328911,0.986731 -0.146994,0.440992 -0.920954,0.455042 -0.920954,0.789392 0,0.31182 0.347328,0.6552 0.394689,0.98674 0.04456,0.31176 0.102771,1.54999 0.197354,1.64456 0.08011,0.0801 0.146974,0.0309 0.197345,0.13157 0.01852,0.0369 -0.540346,2.46528 -0.592044,2.49974 -0.08842,0.059 -0.340922,0.036 -0.394699,0.19734 -0.249973,0.74993 0.249983,1.74983 0,2.49975 -0.16648,0.49946 -0.875652,0.54239 -1.05252,1.24987 -0.155638,0.62257 0.03426,2.10231 -0.197344,2.56553 -0.94962,1.89923 -2.0542544,3.92613 -2.7628727,6.052 -0.2051373,0.61543 -0.1704411,1.26183 -0.4604771,1.84191 -0.333634,0.66728 -0.8170538,1.13326 -1.2498749,1.71035 -0.5143136,0.68575 -0.8480962,1.52549 -1.3814312,2.23661 -0.3132856,0.41772 0.080601,1.02275 -0.1315663,1.44722 -0.1619552,0.32391 -0.6974588,0.48744 -0.7893879,0.85517 -0.074264,0.29699 0.1766298,0.66146 0.2631326,0.92096 0.063966,0.19215 -0.065847,0.3955 -0.065847,0.59204 -0.079611,0.19929 0.6095697,0.42542 0.4604771,0.72362 -0.1023953,0.20479 -0.5030156,0.23791 -0.5920335,0.46046 -0.1110397,0.27759 -0.2902241,1.12992 -0.1315762,1.44722 0.084364,0.16859 0.2551022,0.22948 0.1973544,0.46049 -0.1232487,0.493 -0.4759735,0.91711 -0.5920533,1.38143 -0.1208227,0.48332 0.3163552,1.14344 0.065848,1.64457 -0.2449923,0.48998 -0.749711,1.0139 -0.5920433,1.64457 0.1969979,0.78796 0.8200441,1.44271 1.1840867,2.17082 0.148558,0.2971 0.1215852,0.63785 0.2631326,0.92096 0.3635674,0.72713 0.8574236,1.51973 1.1183085,2.30239 0.071492,0.21465 -0.01614,0.70753 0.1315663,0.85517 0.2045927,0.20461 0.684824,-0.30191 0.8551661,-0.13156 0.1607174,0.1607 -0.5676452,1.26686 -0.6578216,1.44722 -0.4667252,0.93345 -0.9105868,1.88695 -1.3814411,2.82866 -0.1311999,0.26241 -0.064065,0.5229 -0.1973445,0.78937 -0.1153569,0.23072 -0.4086506,0.42264 -0.5262652,0.65784 -0.268539,0.53707 -0.5056494,1.22927 -0.855166,1.57878"
       id="path1604"
       sodipodi:nodetypes="cssssssssssssssssssssssssssscscsssssssssccsssssssssscssssssssssssssssc" />
    <path
       sodipodi:nodetypes="cccccccccccccccccccccccccccccccccccccccccccccccccccccc"
       inkscape:connector-curvature="0"
       id="path14359-1-7-5-3-0-73-1-9-8-5-9-7-61"
       d="m 34.30615,48.356084 -0.111555,9.75965 -2.777111,12.131769 1.677824,5.266881 -0.243398,5.646051 -1.22315,4.480899 0.921944,4.738924 -0.02337,8.087667 -1.217971,3.497215 -0.139151,2.29699 0.669298,1.16465 -2.15763,3.89716 0.914914,4.07815 -0.69837,9.66088 -2.37253,7.367 -0.656901,5.53686 1.036301,4.21323 0.0089,7.69298 0.712104,0.78553 0.453021,2.76586 -0.02347,3.94691 2.265204,6.51353 1.766852,2.89324 -0.571091,3.4878 0.568527,2.37241 3.034094,5.78201 0.253033,2.89669 -3.76e-4,9.01388 3.115953,8.61948 1.273571,6.05089 -0.01,10.3891 -0.410166,0.86481 -0.154331,5.91726 1.050699,3.29519 0.777882,4.14579 4.417486,9.27491 9.229009,10.73111 5.628121,10.37164 1.78316,3.18479 2.695847,4.62284 1.078275,2.5252 3.612176,7.42366 1.866446,2.34163 1.316366,2.20395 7.38406,5.91634 12.330189,6.85034 1.086068,0.95998 8.657807,3.95144 13.39352,7.09702 79.48054,30.15941 2.56575,0.67461 3.70867,0.36953 6.3776,1.07891 8.14949,0.50155"
       style="fill:none;stroke:#000000;stroke-width:0.5;stroke-linecap:round;stroke-linejoin:round;stroke-miterlimit:4;stroke-dasharray:none;stroke-dashoffset:0;stroke-opacity:1" />
    <path
       style="fill:none;stroke:#000000;stroke-width:0.5;stroke-linecap:round;stroke-linejoin:round;stroke-miterlimit:4;stroke-dasharray:none;stroke-dashoffset:0;stroke-opacity:1"
       d="m 33.056661,48.487146 -0.141023,9.385668 -3.121548,12.641826 1.832363,5.002079 -0.157975,5.121304 -1.402502,4.806591 1.180264,5.328394 0.108287,3.746042 -0.288629,3.950858 -1.276442,3.484962 -0.110545,4.05857 -1.496412,3.18352 1.014161,4.91947 -0.724818,8.35586 -2.455617,8.22099 -0.484251,5.66198 0.942956,2.83062 -0.03258,8.95905 1.413464,2.43224 -0.158708,3.34711 0.6398,3.68543 2.107091,5.46366 1.214703,2.03589 -0.429622,2.89382 0.554842,3.35496 3.170117,5.26244 0.303581,4.4065 -0.01812,7.43359 3.258135,10.46388 0.91022,4.67282 0.01495,9.53512 -0.303225,8.35107 1.586697,6.6349 4.327389,8.87533 9.561178,11.52293 5.647617,10.00004 1.364024,2.03408 0.844591,2.80813 3.94582,6.59776 2.493561,6.39229 1.966949,1.43726 1.584925,3.0369 9.820726,7.45524 8.241088,4.74868 24.429667,12.69716 80.98453,30.98734 7.04377,1.11246 6.11316,0.58695 7.70148,0.88809"
       id="path14359-1-7-5-3-0-73-1-9-8-5-9-7-61-3"
       inkscape:connector-curvature="0"
       sodipodi:nodetypes="ccccccccccccccccccccccccccccccccccccccccccccccccc" />
    <path
       style="fill:none;stroke:#000000;stroke-width:2;stroke-linecap:round;stroke-linejoin:round;stroke-miterlimit:4;stroke-dasharray:none;stroke-dashoffset:0;stroke-opacity:1"
       d="m 93.801923,235.407 -15.414925,10.13729 -24.949265,18.78993 -25.565895,18.26537 1.717273,7.09805 5.56658,8.49179 2.462103,2.78019 27.179931,-20.49656 9.543176,13.81115 8.946083,-6.85513 2.893111,2.58757 3.699512,1.85812 2.698708,1.09562 24.349555,-31.955 z"
       id="path14359-1-7-5-3-0-73-1-9-8-5-9-7-61-7"
       inkscape:connector-curvature="0"
       sodipodi:nodetypes="ccccccccccccccc" />
    <path
       style="fill:none;stroke:#000000;stroke-width:0.990188;stroke-linecap:round;stroke-linejoin:round;stroke-miterlimit:4;stroke-dasharray:none;stroke-dashoffset:0;stroke-opacity:1"
       d="m 114.2237,259.0339 -0.0108,5.42973"
       id="path14359-1-7-5-3-0-73-1-9-8-5-9-7-61-4"
       inkscape:connector-curvature="0"
       sodipodi:nodetypes="cc" />
    <path
       style="fill:none;stroke:#000000;stroke-width:0.990188;stroke-linecap:round;stroke-linejoin:round;stroke-miterlimit:4;stroke-dasharray:none;stroke-dashoffset:0;stroke-opacity:1"
       d="m 109.54114,253.80627 -0.0108,16.81411"
       id="path14359-1-7-5-3-0-73-1-9-8-5-9-7-61-02"
       inkscape:connector-curvature="0"
       sodipodi:nodetypes="cc" />
    <path
       style="fill:none;stroke:#000000;stroke-width:0.990188;stroke-linecap:round;stroke-linejoin:round;stroke-miterlimit:4;stroke-dasharray:none;stroke-dashoffset:0;stroke-opacity:1"
       d="m 104.92855,247.71306 -0.0108,29.517"
       id="path14359-1-7-5-3-0-73-1-9-8-5-9-7-61-2"
       inkscape:connector-curvature="0"
       sodipodi:nodetypes="cc" />
    <path
       style="fill:none;stroke:#000000;stroke-width:0.990188;stroke-linecap:round;stroke-linejoin:round;stroke-miterlimit:4;stroke-dasharray:none;stroke-dashoffset:0;stroke-opacity:1"
       d="m 99.91835,242.59868 -0.01079,40.32863"
       id="path14359-1-7-5-3-0-73-1-9-8-5-9-7-61-6"
       inkscape:connector-curvature="0"
       sodipodi:nodetypes="cc" />
    <path
       style="fill:none;stroke:#000000;stroke-width:0.990188;stroke-linecap:round;stroke-linejoin:round;stroke-miterlimit:4;stroke-dasharray:none;stroke-dashoffset:0;stroke-opacity:1"
       d="m 95.365138,237.35698 -0.01079,51.21797"
       id="path14359-1-7-5-3-0-73-1-9-8-5-9-7-61-1"
       inkscape:connector-curvature="0"
       sodipodi:nodetypes="cc" />
    <path
       style="fill:none;stroke:#000000;stroke-width:0.990188;stroke-linecap:round;stroke-linejoin:round;stroke-miterlimit:4;stroke-dasharray:none;stroke-dashoffset:0;stroke-opacity:1"
       d="m 90.543685,237.52037 -0.01079,53.59014"
       id="path14359-1-7-5-3-0-73-1-9-8-5-9-7-61-9"
       inkscape:connector-curvature="0"
       sodipodi:nodetypes="cc" />
    <path
       style="fill:none;stroke:#000000;stroke-width:0.990188;stroke-linecap:round;stroke-linejoin:round;stroke-miterlimit:4;stroke-dasharray:none;stroke-dashoffset:0;stroke-opacity:1"
       d="m 85.667135,241.39449 -0.01079,45.39822"
       id="path14359-1-7-5-3-0-73-1-9-8-5-9-7-61-88"
       inkscape:connector-curvature="0"
       sodipodi:nodetypes="cc" />
    <path
       style="fill:none;stroke:#000000;stroke-width:0.990188;stroke-linecap:round;stroke-linejoin:round;stroke-miterlimit:4;stroke-dasharray:none;stroke-dashoffset:0;stroke-opacity:1"
       d="m 81.08951,243.83887 -0.01079,39.49411"
       id="path14359-1-7-5-3-0-73-1-9-8-5-9-7-61-28"
       inkscape:connector-curvature="0"
       sodipodi:nodetypes="cc" />
    <path
       style="fill:none;stroke:#000000;stroke-width:0.990188;stroke-linecap:round;stroke-linejoin:round;stroke-miterlimit:4;stroke-dasharray:none;stroke-dashoffset:0;stroke-opacity:1"
       d="m 64.07688,257.21148 9.878769,20.84925 18.624258,14.46406"
       id="path14359-1-7-5-3-0-73-1-9-8-5-9-7-61-020"
       inkscape:connector-curvature="0"
       sodipodi:nodetypes="ccc" />
    <text
       style="line-height:1.75111113999999990px;font-family:Arial;font-size:8px;-inkscape-font-specification:'Arial, Normal';white-space:pre;shape-inside:url(#rect6098);"
       id="text6096"
       xml:space="preserve" />
    <path
       sodipodi:nodetypes="cc"
       inkscape:connector-curvature="0"
       id="path14359-1-7-5-3-0-73-1-9-8-5-9-7-61-28-4"
       d="m 66.408072,254.60085 -0.01079,7.22745"
       style="fill:none;stroke:#000000;stroke-width:0.990188;stroke-linecap:round;stroke-linejoin:round;stroke-miterlimit:4;stroke-dasharray:none;stroke-dashoffset:0;stroke-opacity:1" />
    <path
       sodipodi:nodetypes="cc"
       inkscape:connector-curvature="0"
       id="path14359-1-7-5-3-0-73-1-9-8-5-9-7-61-28-1"
       d="m 71.609751,250.94342 -0.01079,21.53206"
       style="fill:none;stroke:#000000;stroke-width:0.990188;stroke-linecap:round;stroke-linejoin:round;stroke-miterlimit:4;stroke-dasharray:none;stroke-dashoffset:0;stroke-opacity:1" />
    <path
       sodipodi:nodetypes="cc"
       inkscape:connector-curvature="0"
       id="path14359-1-7-5-3-0-73-1-9-8-5-9-7-61-28-2"
       d="m 76.079943,247.52982 -0.01079,32.01669"
       style="fill:none;stroke:#000000;stroke-width:0.990188;stroke-linecap:round;stroke-linejoin:round;stroke-miterlimit:4;stroke-dasharray:none;stroke-dashoffset:0;stroke-opacity:1" />
  </g>
</svg>
