<?xml version="1.0" encoding="UTF-8" standalone="no"?>
<svg
   xmlns:dc="http://purl.org/dc/elements/1.1/"
   xmlns:cc="http://creativecommons.org/ns#"
   xmlns:rdf="http://www.w3.org/1999/02/22-rdf-syntax-ns#"
   xmlns:svg="http://www.w3.org/2000/svg"
   xmlns="http://www.w3.org/2000/svg"
   xmlns:xlink="http://www.w3.org/1999/xlink"
   xmlns:sodipodi="http://sodipodi.sourceforge.net/DTD/sodipodi-0.dtd"
   xmlns:inkscape="http://www.inkscape.org/namespaces/inkscape"
   inkscape:version="0.92.2 5c3e80d, 2017-08-06"
   sodipodi:docname="er02jy03.074.svg"
   viewBox="0 0 220.8 618.23999"
   height="618.23999"
   width="220.8"
   id="svg2683"
   version="1.1">
  <metadata
     id="metadata2689">
    <rdf:RDF>
      <cc:Work
         rdf:about="">
        <dc:format>image/svg+xml</dc:format>
        <dc:type
           rdf:resource="http://purl.org/dc/dcmitype/StillImage" />
        <dc:title></dc:title>
      </cc:Work>
    </rdf:RDF>
  </metadata>
  <defs
     id="defs2687" />
  <sodipodi:namedview
     inkscape:current-layer="g2691"
     inkscape:window-maximized="0"
     inkscape:window-y="0"
     inkscape:window-x="14"
     inkscape:cy="62.026199"
     inkscape:cx="23.880267"
     inkscape:zoom="1.6409169"
     showgrid="false"
     id="namedview2685"
     inkscape:window-height="756"
     inkscape:window-width="1280"
     inkscape:pageshadow="2"
     inkscape:pageopacity="0"
     guidetolerance="10"
     gridtolerance="10"
     objecttolerance="10"
     borderopacity="1"
     bordercolor="#666666"
     pagecolor="#ffffff" />
  <g
     id="g2691"
     inkscape:label="Image"
     inkscape:groupmode="layer">
    <path
       style="fill:none;stroke:#000000;stroke-width:2.08925;stroke-linecap:round;stroke-linejoin:round;stroke-miterlimit:4;stroke-dasharray:none;stroke-opacity:1"
       d="m 16.833968,445.7289 -0.0031,13.31827 h 25.212007 l 0.0031,-13.31827 z"
       id="path14359-1-7-5-3-0-73-1-9-8-5-3"
       inkscape:connector-curvature="0"
       sodipodi:nodetypes="ccccc" />
    <path
       style="fill:none;stroke:#000000;stroke-width:1;stroke-linecap:butt;stroke-linejoin:round;stroke-miterlimit:4;stroke-dasharray:1, 1;stroke-dashoffset:0;stroke-opacity:1"
       d="m 44.649504,475.67626 -9.925902,14.41045 -10.203909,-14.63432 -9.42116,14.42914"
       id="path14359-1-7-5-3-0-73-1-9-8-5-9"
       inkscape:connector-curvature="0"
       sodipodi:nodetypes="cccc" />
    <path
       style="fill:none;stroke:#000000;stroke-width:1;stroke-linecap:round;stroke-linejoin:round;stroke-miterlimit:4;stroke-dasharray:none;stroke-opacity:1"
       d="m 33.848793,445.90745 -0.0031,13.22045"
       id="path14359-1-7-5-3-0-73-1-9-8-5-9-2"
       inkscape:connector-curvature="0"
       sodipodi:nodetypes="cc" />
    <path
       style="fill:none;stroke:#000000;stroke-width:1;stroke-linecap:round;stroke-linejoin:round;stroke-miterlimit:4;stroke-dasharray:none;stroke-opacity:1"
       d="m 29.006533,445.90745 -0.0031,13.22045"
       id="path14359-1-7-5-3-0-73-1-9-8-5-9-3"
       inkscape:connector-curvature="0"
       sodipodi:nodetypes="cc" />
    <path
       style="fill:none;stroke:#000000;stroke-width:1;stroke-linecap:round;stroke-linejoin:round;stroke-miterlimit:4;stroke-dasharray:none;stroke-opacity:1"
       d="m 24.331135,445.90745 -0.0031,13.22045"
       id="path14359-1-7-5-3-0-73-1-9-8-5-9-9"
       inkscape:connector-curvature="0"
       sodipodi:nodetypes="cc" />
    <path
       style="fill:none;stroke:#000000;stroke-width:1;stroke-linecap:round;stroke-linejoin:round;stroke-miterlimit:4;stroke-dasharray:none;stroke-opacity:1"
       d="m 19.527186,445.90745 -0.0031,13.22045"
       id="path14359-1-7-5-3-0-73-1-9-8-5-9-97"
       inkscape:connector-curvature="0"
       sodipodi:nodetypes="cc" />
    <path
       style="fill:none;stroke:#000000;stroke-width:0.5;stroke-linecap:round;stroke-linejoin:round;stroke-miterlimit:4;stroke-dasharray:none;stroke-opacity:1"
       d="M 45.128047,497.68797 34.790552,513.1316 24.700288,498.50943 15.387403,512.17089"
       id="path14359-1-7-5-3-0-73-1-9-8-5-9-03-9"
       inkscape:connector-curvature="0"
       sodipodi:nodetypes="cccc" />
    <path
       style="fill:none;stroke:#000000;stroke-width:0.5;stroke-linecap:round;stroke-linejoin:round;stroke-miterlimit:4;stroke-dasharray:none;stroke-opacity:1"
       d="M 44.060471,496.85346 34.711411,510.76954 24.529586,496.00525 14.246651,511.4062"
       id="path14359-1-7-5-3-0-73-1-9-8-5-9-03-8"
       inkscape:connector-curvature="0"
       sodipodi:nodetypes="cccc" />
    <path
       style="fill:none;stroke:#000000;stroke-width:1;stroke-linecap:round;stroke-linejoin:round;stroke-miterlimit:4;stroke-dasharray:none;stroke-opacity:1"
       d="m 218.56036,5.007325 -0.003,608.419355 H 3.6605978 L 3.6637316,5.007325 Z"
       id="path14359-1-7-5-3-0-73-1-9-8-5-0"
       inkscape:connector-curvature="0"
       sodipodi:nodetypes="ccccc" />
    <path
       sodipodi:nodetypes="cc"
       inkscape:connector-curvature="0"
       id="path14359-1-7-5-3-0-73-1-9-8-5-92-2"
       d="M 3.9357834,413.77516 218.25016,412.92953"
       style="fill:none;stroke:#000000;stroke-width:1;stroke-linecap:round;stroke-linejoin:round;stroke-miterlimit:4;stroke-dasharray:none;stroke-opacity:1" />
    <path
       sodipodi:nodetypes="cc"
       inkscape:connector-curvature="0"
       id="path14359-1-7-5-3-0-73-1-9-8-5-9-0-6"
       d="m 38.259282,445.90745 -0.0031,13.22045"
       style="fill:none;stroke:#000000;stroke-width:1;stroke-linecap:round;stroke-linejoin:round;stroke-miterlimit:4;stroke-dasharray:none;stroke-opacity:1" />
    <path
       sodipodi:nodetypes="cc"
       inkscape:connector-curvature="0"
       id="path14359-1-7-5-3-0-73-1-9-8-5-00"
       d="m 54.384567,575.36445 -0.0031,5.32274"
       style="fill:none;stroke:#000000;stroke-width:0.5;stroke-linecap:round;stroke-linejoin:round;stroke-miterlimit:4;stroke-dasharray:none;stroke-opacity:1" />
    <path
       sodipodi:nodetypes="cccc"
       inkscape:connector-curvature="0"
       id="path14359-1-7-5-3-0-73-1-9-8-5-3-7"
       d="m 44.669156,518.05042 -9.770575,14.56461 -9.945695,-14.85014 -9.730061,14.4006"
       style="fill:none;stroke:#000000;stroke-width:1;stroke-linecap:round;stroke-linejoin:round;stroke-miterlimit:4;stroke-dasharray:none;stroke-opacity:1" />
    <g
       id="g195"
       sodipodi:insensitive="true">
      <text
         transform="scale(0.99730847,1.0026988)"
         id="text10278-9-3"
         y="455.9913"
         x="51.675705"
         style="font-style:normal;font-variant:normal;font-weight:normal;font-stretch:normal;font-size:12px;line-height:12.89999962px;font-family:STIXGeneral;-inkscape-font-specification:STIXGeneral;text-align:start;letter-spacing:-0.15000001px;word-spacing:0px;text-anchor:start;fill:#000000;fill-opacity:1;stroke:none;stroke-width:1.00079"
         xml:space="preserve"><tspan
           id="tspan9066"
           style="font-style:normal;font-variant:normal;font-weight:normal;font-stretch:normal;font-size:12px;font-family:STIXGeneral;-inkscape-font-specification:STIXGeneral;stroke-width:1.00079"
           y="455.9913"
           x="51.675705"
           sodipodi:role="line">Critical Habitat for</tspan><tspan
           style="font-style:italic;font-variant:normal;font-weight:normal;font-stretch:normal;font-size:12px;font-family:STIXGeneral;-inkscape-font-specification:'STIXGeneral Italic';stroke-width:1.00079"
           y="468.8913"
           x="51.675705"
           sodipodi:role="line"
           id="tspan51811">  Cyanea stictophylla -- c</tspan></text>
      <text
         transform="scale(0.99730847,1.0026988)"
         id="text10278-9-3-2"
         y="488.89386"
         x="51.693542"
         style="font-style:normal;font-variant:normal;font-weight:normal;font-stretch:normal;font-size:12px;line-height:29.15909958px;font-family:STIXGeneral;-inkscape-font-specification:STIXGeneral;text-align:start;letter-spacing:-0.15000001px;word-spacing:0px;text-anchor:start;fill:#000000;fill-opacity:1;stroke:none;stroke-width:1.00079"
         xml:space="preserve"><tspan
           style="font-size:12px;fill:#000000;fill-opacity:1;stroke-width:1.00079"
           id="tspan10364-8"
           y="488.89386"
           x="51.693542"
           sodipodi:role="line">Elevation (1,000-ft. contours)</tspan></text>
      <text
         xml:space="preserve"
         style="font-style:normal;font-variant:normal;font-weight:normal;font-stretch:normal;font-size:12px;line-height:32.39899826px;font-family:STIXGeneral;-inkscape-font-specification:STIXGeneral;text-align:start;letter-spacing:-0.15000001px;word-spacing:0px;text-anchor:start;fill:#000000;fill-opacity:1;stroke:none;stroke-width:1.00079"
         x="51.242691"
         y="508.37128"
         id="text10278-9-3-1"
         transform="scale(0.99730847,1.0026988)"><tspan
           sodipodi:role="line"
           x="51.242691"
           y="508.37128"
           id="tspan10364-5"
           style="font-size:12px;stroke-width:1.00079">Major Road</tspan></text>
      <text
         xml:space="preserve"
         style="font-style:normal;font-variant:normal;font-weight:normal;font-stretch:normal;font-size:12px;line-height:32.39899826px;font-family:STIXGeneral;-inkscape-font-specification:STIXGeneral;text-align:start;letter-spacing:-0.15000001px;word-spacing:0px;text-anchor:start;fill:#000000;fill-opacity:1;stroke:none;stroke-width:1.00079"
         x="51.62735"
         y="529.38422"
         id="text10278-9-3-8"
         transform="scale(0.99730847,1.0026988)"><tspan
           sodipodi:role="line"
           x="51.62735"
           y="529.38422"
           id="tspan10364-82"
           style="font-size:12px;stroke-width:1.00079">Coastline</tspan></text>
      <text
         xml:space="preserve"
         style="font-style:normal;font-variant:normal;font-weight:normal;font-stretch:normal;font-size:12px;line-height:32.39899826px;font-family:STIXGeneral;-inkscape-font-specification:STIXGeneral;text-align:start;letter-spacing:-0.15000001px;word-spacing:0px;text-anchor:start;fill:#000000;fill-opacity:1;stroke:none;stroke-width:1.00079"
         x="51.829193"
         y="437.40295"
         id="text10278-9-3-81"
         transform="scale(0.99730847,1.0026988)"><tspan
           sodipodi:role="line"
           x="51.829193"
           y="437.40295"
           style="font-style:normal;font-variant:normal;font-weight:normal;font-stretch:normal;font-size:12px;font-family:STIXGeneral;-inkscape-font-specification:STIXGeneral;fill:#000000;fill-opacity:1;stroke-width:1.00079"
           id="tspan9070-1">Critical Habitat Unit 24</tspan></text>
    </g>
    <path
       sodipodi:nodetypes="ccccc"
       inkscape:connector-curvature="0"
       id="path14359-1-7-5-3-0-73-1-9-8-5-3-4"
       d="m 17.294617,426.40675 -0.0031,13.31827 h 24.826174 l 0.0031,-13.31827 z"
       style="fill:none;stroke:#000000;stroke-width:2.08925;stroke-linecap:round;stroke-linejoin:round;stroke-miterlimit:4;stroke-dasharray:none;stroke-opacity:1" />
    <path
       style="fill:none;stroke:#000000;stroke-width:0.5;stroke-linecap:round;stroke-linejoin:round;stroke-miterlimit:4;stroke-dasharray:none;stroke-opacity:1"
       d="m 15.824122,575.21927 0.0031,5.47123 H 93.1545 l -0.0031,-5.47123 z"
       id="path14359-1-7-5-3-0-73-1-9-8-5-00-5"
       inkscape:connector-curvature="0"
       sodipodi:nodetypes="ccccc" />
    <path
       style="fill:none;stroke:#000000;stroke-width:0.5;stroke-linecap:round;stroke-linejoin:round;stroke-miterlimit:4;stroke-dasharray:none;stroke-opacity:1"
       d="m 15.69603,599.67942 -0.0031,-5.87517 h 47.948679 l 0.0031,5.87517 z"
       id="path14359-1-7-5-3-0-73-1-9-8-5-00-1"
       inkscape:connector-curvature="0"
       sodipodi:nodetypes="ccccc" />
    <path
       style="fill:none;stroke:#000000;stroke-width:0.5;stroke-linecap:round;stroke-linejoin:round;stroke-miterlimit:4;stroke-dasharray:none;stroke-opacity:1"
       d="m 54.28422,578.02775 -38.446842,0.003"
       id="path14359-1-7-5-3-0-73-1-9-8-5-00-50"
       inkscape:connector-curvature="0"
       sodipodi:nodetypes="cc" />
    <path
       style="fill:none;stroke:#000000;stroke-width:0.5;stroke-linecap:round;stroke-linejoin:round;stroke-miterlimit:4;stroke-dasharray:none;stroke-opacity:1"
       d="m 39.830735,599.48041 -0.0031,-5.50389"
       id="path14359-1-7-5-3-0-73-1-9-8-5-00-3"
       inkscape:connector-curvature="0"
       sodipodi:nodetypes="cc" />
    <path
       style="fill:none;stroke:#000000;stroke-width:0.5;stroke-linecap:round;stroke-linejoin:round;stroke-miterlimit:4;stroke-dasharray:none;stroke-opacity:1"
       d="m 39.680915,596.7563 -23.902966,7.6e-4"
       id="path14359-1-7-5-3-0-73-1-9-8-5-00-2"
       inkscape:connector-curvature="0"
       sodipodi:nodetypes="cc" />
    <path
       sodipodi:nodetypes="cc"
       inkscape:connector-curvature="0"
       id="path14359-1-7-5-3-0-73-1-9-8-5-00-50-0"
       d="m 217.91857,48.537984 -213.9882709,0.003"
       style="fill:none;stroke:#000000;stroke-width:1;stroke-linecap:round;stroke-linejoin:round;stroke-miterlimit:4;stroke-dasharray:none;stroke-opacity:1" />
    <path
       sodipodi:nodetypes="ccc"
       inkscape:connector-curvature="0"
       id="path14359-1-7-5-3-0-73-1-9-8-5-00-50-7"
       d="m 120.87039,613.41893 -0.002,-106.44988 h 97.50554"
       style="fill:none;stroke:#000000;stroke-width:1;stroke-linecap:round;stroke-linejoin:round;stroke-miterlimit:4;stroke-dasharray:none;stroke-opacity:1" />
    <path
       style="fill:none;stroke:#000000;stroke-width:1;stroke-linecap:round;stroke-linejoin:round;stroke-miterlimit:4;stroke-dasharray:none;stroke-opacity:1"
       d="m 153.21668,569.22336 0.003,20.38319 h 17.94781 l -0.003,-20.38319 z"
       id="path14359-1-7-5-3-0-73-1-9-8-5-00-50-7-86"
       inkscape:connector-curvature="0"
       sodipodi:nodetypes="ccccc" />
    <path
       sodipodi:nodetypes="sssssssssssssscssssscssssssssccssssssssssssssssssssscssssssssssssssssssssssssssssscsssssssssscssssssssscss"
       style="fill:none;stroke:#000000;stroke-width:1;stroke-linecap:round;stroke-linejoin:round;stroke-miterlimit:4;stroke-dasharray:none;stroke-opacity:1"
       d="m 188.4349,536.55132 c 1.01103,1.10279 1.63223,2.47228 2.62198,3.56267 0.5419,0.59703 1.3769,0.95276 1.55379,1.82954 0.22747,1.12773 -0.28479,2.43959 -0.19425,2.88862 0.19887,0.98592 0.38843,2.03741 0.38843,3.0813 0,0.89228 -0.78273,1.38599 -0.19418,2.40721 0.66678,1.15704 5.08368,-0.67167 6.50639,1.44433 0.57712,0.85838 0.81857,1.89858 1.06821,2.88868 0.1414,0.56114 -0.22111,3.32956 0.19422,3.659 0.29289,0.23234 0.66699,0.20424 0.97109,0.38515 0.80243,0.47739 1.50583,1.47697 2.23357,2.11836 1.12631,0.99272 2.36689,2.02027 3.59307,2.8887 1.13761,0.80565 3.29334,0.94615 3.7873,1.92578 0.52432,1.03977 -0.46187,1.47014 -0.67977,2.11838 -0.11172,0.33193 0.0114,0.73541 -0.0968,1.05917 -0.41133,1.22349 -2.76252,2.53482 -3.78734,3.27384 -1.21327,0.87491 -2.16742,2.01386 -3.30175,2.88868 -0.82221,0.6341 -1.84042,1.06895 -2.622,1.73318 -0.73194,0.62207 -1.35592,1.49071 -2.23351,1.92582 -0.43728,0.21678 -1.0014,0.19168 -1.45667,0.38514 -2.01166,0.85484 -3.84982,2.02543 -5.82665,2.98496 -2.08532,0.59079 -4.22554,2.1038 -6.99201,1.82949 -1.36187,-0.13496 -2.51881,-1.25175 -3.39885,-1.25175 -0.5288,0 -1.19063,0.63843 -1.65083,0.86659 -1.78833,0.88659 -3.38645,1.84828 -4.46711,3.56271 -0.48773,0.77372 -1.94058,1.05998 -2.7191,0.67403 -0.5216,-0.2586 -0.22339,-0.30836 -0.38841,-0.9629 -0.0556,-0.2202 -0.64741,-0.6419 -0.48559,-0.48143 0.11439,0.11342 -0.0659,0.33478 0,0.48143 0.1699,0.37904 0.59755,0.61475 0.48559,1.05917 -0.24727,0.98068 -3.41798,3.24093 -4.17573,3.85161 -0.9523,0.47208 -2.39721,0.44977 -3.30174,0.67398 -0.10342,0.0257 -0.84797,1.67783 -1.16535,2.11841 -0.47183,0.655 -1.48009,1.10568 -1.84508,1.82947 -0.281,0.55712 0.13782,1.49709 -0.0973,2.11838 -0.52589,1.39053 -1.77172,2.41431 -2.52489,3.65897 -0.27226,0.44998 -0.29196,1.73368 -0.67976,2.02206 -0.45964,0.34187 -1.11216,0.37904 -1.55375,0.96294 -0.91095,1.20428 -1.16642,2.17382 -2.62199,2.79236 -1.37091,0.58256 -2.50501,-2.78007 -4.07863,-3.7553 -0.61212,-0.37928 -1.51523,-0.0423 -2.13642,-0.28883 -1.33111,-0.52793 -2.13814,-2.4166 -3.98155,-3.08127 -1.73072,-0.62405 -3.62743,-0.36018 -4.85554,-1.92581 -0.54665,-0.69688 -0.43989,-1.51811 -0.67978,-2.31093 -0.18654,-0.61665 -0.84263,-1.10368 -1.16531,-1.63688 -0.25191,-0.41637 -0.32893,-1.26136 -0.38843,-1.73322 -0.29292,-2.32363 0.79454,-3.58032 0.9711,-5.6811 0.11991,-1.42654 0.57021,-2.80228 0.77687,-4.2367 0.18081,-1.25496 -0.0182,-2.59321 0.097,-3.85159 0.0652,-0.70869 0.62465,-1.03306 0.77687,-1.63691 0.19723,-0.78214 -0.64159,-0.71526 -0.77687,-1.25176 -0.0872,-0.3454 -0.0708,-0.69536 -0.097,-1.0592 -0.0186,-0.25805 -0.0649,-0.51346 -0.0973,-0.7702 -0.25765,-0.51097 -0.52958,-0.85762 -0.77686,-1.34804 -0.28683,-0.5688 0.29565,-1.14693 0,-1.73322 -0.13996,-0.27757 -0.52474,-0.30914 -0.67975,-0.77033 -0.25243,-0.75077 0.19411,-1.73355 0,-2.50348 -0.22888,-0.90772 -1.08834,-0.40509 -1.65089,-0.96292 -0.20047,-0.19875 -0.49622,-1.48665 -0.58267,-1.82947 -0.0888,-0.35183 0.17173,-0.59293 0.0971,-0.9629 -0.10238,-0.50781 -0.40634,-0.91983 -0.58265,-1.44436 -0.2381,-0.70817 0.25679,-2.18679 0,-2.69606 -0.24763,-0.49111 -0.69585,-0.74609 -0.97115,-1.15551 -0.36566,-0.54386 -0.56138,-1.1915 -0.97108,-1.73318 -0.5519,-0.72963 0.2443,-2.0687 -0.29132,-2.59983 -0.0641,-0.0636 -0.3755,-0.15096 -0.48557,-0.0964 -0.31198,0.15468 0.43881,1.11272 0.48557,1.25175 0.20971,0.62391 -0.63062,0.8191 -0.9711,0.48145 -1.25213,-1.2415 -1.55378,-0.5836 -1.55378,-2.88868 0,-1.10972 0.75409,-0.16997 1.26243,-0.67401 0.21705,-0.21521 -0.50362,-0.28887 -0.58265,-0.28887 -0.20631,0 -0.69258,0.1799 -0.87403,0 -0.67436,-0.66871 -1.81205,-2.15312 -1.45664,-3.5627 0.0623,-0.24618 0.31073,-0.4429 0.38844,-0.67402 0.0846,-0.25179 0.0841,-0.75738 0.29135,-0.96292 0.44869,-0.44491 0.91537,-1.71478 1.55374,-1.92577 0.42805,-0.14148 1.38214,-0.71879 1.65091,-1.25176 0.38237,-0.75831 0.89121,-1.7899 1.74796,-2.21467 0.13164,-0.0654 1.13676,-0.54374 1.26244,-0.48143 0.35008,0.17351 1.68104,0.16262 1.94221,-0.0964 1.38256,-1.37085 2.35934,-3.6054 3.49597,-5.29589 0.98605,-1.46657 3.08517,-2.82222 3.59309,-4.33305 0.1062,-0.31603 -0.0817,-0.7361 0,-1.05916 0.69565,-2.75914 -2.32348,-4.89655 -3.49601,-7.22169 -0.27073,-0.53695 -0.63341,-1.16434 -0.77685,-1.73323 -0.11099,-0.44045 -0.66908,-5.1563 -0.58266,-5.58478 0.25216,-1.25016 0.79532,-2.90694 1.65085,-3.75526 1.44266,-1.43045 4.81227,0.59551 6.21512,1.05917 0.439,0.14511 1.05758,0.0882 1.45662,0.38517 0.44123,0.3281 0.81691,0.72784 1.26247,1.05916 1.35532,1.00792 1.55598,2.54838 0.67975,3.85159 -0.0896,0.1336 -0.71528,1.63691 -0.19422,1.63691 0.56802,0 0.46884,-2.25451 1.16532,-2.59983 1.40268,-0.69538 2.27881,1.38415 2.03932,2.40726 -0.15816,-1.79617 2.44513,-0.70063 3.01041,0 0.25428,0.31514 -0.34937,1.1942 -0.2913,1.25179 0.30087,0.2983 1.58789,-0.29208 2.03932,-0.19261 1.05143,0.23166 1.53007,1.70617 2.52485,1.82948 1.28825,0.15966 1.58735,-1.06508 3.78728,-0.19256 1.27251,0.50467 2.47342,1.22625 3.69021,1.8295 0.60707,0.30097 1.31763,0.44177 1.94223,0.67402 0.80148,0.29803 1.58447,0.93699 2.33065,1.34804 1.06517,0.58674 2.348,0.75265 3.39887,1.34806 1.71042,0.96914 3.7575,2.59981 5.09255,2.76335 1.33502,0.16355 7.7306,4.8774 8.4059,5.61391 z"
       id="path10110" />
    <path
       sodipodi:nodetypes="ccc"
       style="fill:none;stroke:#000000;stroke-width:0.516236;stroke-linecap:round;stroke-linejoin:round;stroke-miterlimit:4;stroke-dasharray:none;stroke-opacity:1"
       d="m 151.31649,532.1367 c 0.0638,0.19129 0.12742,0.38253 0.19113,0.57382 l 0.0956,0.0956"
       id="path10112" />
    <path
       sodipodi:nodetypes="cc"
       style="fill:none;stroke:#000000;stroke-width:0.516236;stroke-linecap:round;stroke-linejoin:round;stroke-miterlimit:4;stroke-dasharray:none;stroke-opacity:1"
       d="m 152.559,538.16142 c -0.70454,-1.33041 1.33814,-0.76031 1.33814,-1.43445"
       id="path10114" />
    <path
       sodipodi:nodetypes="cc"
       style="fill:none;stroke:#000000;stroke-width:0.516236;stroke-linecap:round;stroke-linejoin:round;stroke-miterlimit:4;stroke-dasharray:none;stroke-opacity:1"
       d="m 154.27944,535.67502 c 0.23352,-0.4616 0.52978,-0.55191 0.76466,-0.6694"
       id="path10116" />
    <path
       sodipodi:nodetypes="cc"
       style="fill:none;stroke:#000000;stroke-width:0.516236;stroke-linecap:round;stroke-linejoin:round;stroke-miterlimit:4;stroke-dasharray:none;stroke-opacity:1"
       d="m 155.61754,533.47553 c 0.28557,-0.46915 0.28676,-0.55284 0.28676,-0.9563"
       id="path10118" />
    <path
       sodipodi:nodetypes="cc"
       style="fill:none;stroke:#000000;stroke-width:0.516236;stroke-linecap:round;stroke-linejoin:round;stroke-miterlimit:4;stroke-dasharray:none;stroke-opacity:1"
       d="m 160.20539,533.6668 c 0.70166,-0.33419 0.48633,-0.59067 0.66904,-0.95628"
       id="path10120" />
    <path
       sodipodi:nodetypes="csssssc"
       style="fill:none;stroke:#000000;stroke-width:0.516236;stroke-linecap:round;stroke-linejoin:round;stroke-miterlimit:4;stroke-dasharray:none;stroke-opacity:1"
       d="m 151.42782,523.62564 c 0.86553,0.17322 0.45531,-0.008 1.33808,1.05194 0.33827,0.40611 0.76047,0.47395 1.14694,0.86065 0.70861,0.709 0.83522,2.95203 -0.66907,2.19952 -0.54406,-0.2722 -0.84049,-0.84097 -1.24249,-1.24322 -0.24981,-0.24988 -0.70151,-0.22368 -0.95581,-0.47814 -0.82817,-0.82859 -0.96981,-2.05253 0.38235,-2.39075 z"
       id="path10122" />
    <path
       sodipodi:nodetypes="ssssssscss"
       style="fill:#000000;fill-opacity:1;stroke:#000000;stroke-width:0.516236;stroke-linecap:round;stroke-linejoin:round;stroke-miterlimit:4;stroke-dasharray:none;stroke-opacity:1"
       d="m 147.41346,525.34696 c 0.11491,0 -0.17777,0.15491 -0.28674,0.19122 -1.26985,0.42351 0.60053,0.81927 0.66905,0.95632 0.14388,0.28791 -0.21245,1.03775 0.0956,1.24319 0.78139,0.52122 1.62319,0.63645 2.38949,1.14758 0.51711,0.34494 1.58085,-0.27936 1.43368,-0.57379 -0.30138,-0.60307 -1.37954,-0.5058 -1.91158,-0.8607 -0.43462,-0.28987 -0.58815,-1.51774 -1.04873,-1.83212 -0.46052,-0.31441 -2.08158,-0.2717 -1.34077,-0.2717 z"
       id="path10124" />
    <path
       sodipodi:nodetypes="ssssssssscscssss"
       style="fill:none;stroke:#000000;stroke-width:0.516236;stroke-linecap:round;stroke-linejoin:round;stroke-miterlimit:4;stroke-dasharray:none;stroke-opacity:1"
       d="m 141.50298,544.57777 c 0,-1.86212 -2.07875,3.28965 -3.53643,2.67764 -1.11384,-0.46764 0.43846,1.25999 0.7646,1.91259 0.19739,0.39503 -0.2877,0.9553 0,1.24319 0.0592,0.0593 0.38233,0.753 0.38233,0.76503 0,0.0561 0.2542,0.41508 0.38233,0.2869 0.34326,-0.34344 -0.56451,-2.16461 0.76461,-1.72134 0.36719,0.12238 1.19683,1.0187 0.57351,1.43444 -0.16383,0.1093 -1.14699,0.0127 -1.14699,0.2869 0,0.10081 0.18904,0.0711 0.28677,0.0957 2.41147,0.60319 1.5353,-1.98039 2.29389,-2.4864 0.43462,-0.28988 1.24623,-0.005 1.62486,-0.38252 0.46379,-0.46403 -0.73539,-1.14754 -1.05137,-1.14754 -1.01446,0 0.80669,-1.39241 0.57349,-1.62573 -0.64656,-0.64686 -1.9116,-0.41291 -1.9116,-1.33882 z"
       id="path10126" />
    <path
       sodipodi:nodetypes="cc"
       style="fill:none;stroke:#000000;stroke-width:0.516236;stroke-linecap:round;stroke-linejoin:round;stroke-miterlimit:4;stroke-dasharray:none;stroke-opacity:1"
       d="m 137.60136,553.35094 c 0.0955,0.31875 0.19114,0.63749 0.28675,0.95629"
       id="path10128" />
    <path
       sodipodi:nodetypes="ccssscsssssssssssssscssssscc"
       style="fill:none;stroke:#000000;stroke-width:0.516236;stroke-linecap:round;stroke-linejoin:round;stroke-miterlimit:4;stroke-dasharray:none;stroke-opacity:1"
       d="m 178.45998,540.45653 c 0,0.12754 0.009,0.25539 0,0.38253 -0.12316,1.6017 -1.74254,2.99376 -2.19834,1.6257 -0.149,-0.4472 -0.0955,-1.05239 -0.0955,-1.53006 0,-2.33972 2.99594,0.0592 3.53644,-2.10389 0.0217,-0.0861 0.0279,-0.48983 0,-0.57377 -0.17189,-0.51585 -1.05512,-0.81851 -1.33812,-1.24317 -0.33223,-0.49859 -0.33616,-0.77163 -0.47791,-1.33885 -0.20077,-0.80354 -0.874,-1.43443 0.57351,-1.43443 0.49661,0 0.80988,0.62074 1.24252,0.76503 0.51707,0.17243 1.33225,0.18536 1.7204,0.5738 0.51722,0.51743 0.55372,1.18373 0.76467,1.81697 0.39253,1.17819 0.762,2.74228 -0.76467,3.25144 -0.53412,0.17813 -1.79135,-0.53831 -1.91155,-0.4782 -0.50321,0.25178 0.15712,1.18162 -0.19117,1.53012 -0.42632,0.42652 -2.2769,1.40035 -2.2939,1.43444 -0.41023,0.82085 0.79382,1.41984 1.3381,1.14755 0.46238,-0.23129 0.0294,-1.25783 0.38234,-1.43443 0.43579,-0.21804 0.44014,0.82042 0.38232,1.05192 -0.49793,1.99275 -3.35963,0.13407 -2.77185,2.48639 0.0869,0.34751 0.008,0.67837 0.28677,0.95628 0.60926,0.60958 2.03679,-0.86065 2.58064,-0.86065 0.88084,0 2.27361,0.48831 3.05855,0.0955 1.04271,-0.52161 0.14042,-2.82989 -0.0957,-3.53831 -0.17204,-0.51641 0.17201,-1.20497 0,-1.72133 -0.33441,-1.00377 -2.17568,-0.11835 -2.48507,0.19124 -0.34468,0.3449 -0.23178,-1.05193 -1.24251,-1.05193 z"
       id="path10130" />
    <path
       sodipodi:nodetypes="cssssssssssc"
       style="fill:none;stroke:#000000;stroke-width:0.516236;stroke-linecap:round;stroke-linejoin:round;stroke-miterlimit:4;stroke-dasharray:none;stroke-opacity:1"
       d="m 185.47716,553.63523 c -1.05519,-1.49764 -1.78985,-2.9645 -3.72765,-2.9645 -0.32237,0 -0.45461,-0.15507 -0.76462,0 -1.07154,0.53604 -1.63894,2.41189 -2.19832,3.25142 -0.61567,0.92402 -2.52437,2.08157 -2.00719,3.63395 0.381,1.1436 4.59109,1.4015 5.63918,1.05192 1.59539,-0.53209 -0.63246,-2.34194 -0.95579,-2.77331 -0.1895,-0.25281 -0.45279,-0.11595 -0.57344,-0.47815 -0.0869,-0.2606 0.69217,-2.03133 0.76463,-2.10384 0.39302,-0.39323 1.34668,0.76076 1.91159,0.47816 0.25191,-0.126 0.39519,-0.85421 0.57349,-0.76504 0.73753,0.36896 0.11285,0.66939 1.33812,0.66939 z"
       id="path10132" />
    <path
       sodipodi:nodetypes="ssssssssssssscssss"
       style="fill:none;stroke:#000000;stroke-width:0.516236;stroke-linecap:round;stroke-linejoin:round;stroke-miterlimit:4;stroke-dasharray:none;stroke-opacity:1"
       d="m 175.89554,556.90111 c 0,-0.7591 -1.19489,-0.62154 -1.9116,-0.38254 -0.89256,0.29769 -0.32722,2.04871 -0.86022,2.58203 -0.54203,0.5423 -0.76921,0.85604 0,1.62569 0.36554,0.36574 1.01895,0.15883 1.43369,0.57379 0.52744,0.52769 0.73821,1.39474 1.14695,2.00824 0.78561,1.17902 5.05893,5.35187 6.21271,5.92906 0.32629,0.16323 0.72048,-0.24125 0.95581,-0.3825 0.60435,-0.3628 2.14981,-1.77144 1.91158,-2.48642 -0.17469,-0.52437 -0.72838,-0.91008 -0.57347,-1.53003 0.15172,-0.6072 1.24888,-1.14125 0.19118,-2.19953 -0.31703,-0.31716 -0.59108,-0.3129 -0.95583,-0.19124 -1.66284,0.55455 -1.37345,1.4698 -2.3895,2.48635 -0.18174,0.18187 -1.32632,0.19521 -1.62487,0.0957 -0.92295,-0.30783 -3.24312,-4.48153 -3.72761,-5.45093 -0.0963,-0.19292 0.60025,-0.84536 0.66908,-1.05194 0.16082,-0.48272 -0.4779,-1.16972 -0.4779,-1.6257 z"
       id="path10134" />
    <path
       sodipodi:nodetypes="cscssc"
       style="fill:none;stroke:#000000;stroke-width:0.516236;stroke-linecap:round;stroke-linejoin:round;stroke-miterlimit:4;stroke-dasharray:none;stroke-opacity:1"
       d="m 172.65189,566.85903 c -0.62227,0.0278 -0.8292,-0.75265 -1.33813,-0.9563 -0.20666,-0.0828 -0.49936,0.12334 -0.66904,0.19122 -1.15765,0.46331 0.65263,2.34792 1.14697,2.67766 0.6143,0.40976 2.39823,-0.2518 2.19832,-1.05193 -0.15736,-0.62982 -0.9239,-0.54983 -1.33812,-0.86065 z"
       id="path10136" />
    <path
       sodipodi:nodetypes="cssc"
       style="fill:none;stroke:#000000;stroke-width:0.516236;stroke-linecap:round;stroke-linejoin:round;stroke-miterlimit:4;stroke-dasharray:none;stroke-opacity:1"
       d="m 177.82351,570.62709 c -0.13818,1.16352 -1.35676,0.0186 -1.72043,0.38253 -0.31548,0.31563 0.19216,0.76506 0.4779,0.76506 0.45413,0 0.94451,-0.84939 1.24253,-1.14759 z"
       id="path10138" />
    <path
       sodipodi:nodetypes="sssssssss"
       style="fill:none;stroke:#000000;stroke-width:0.516236;stroke-linecap:round;stroke-linejoin:round;stroke-miterlimit:4;stroke-dasharray:none;stroke-opacity:1"
       d="m 179.98062,571.83787 c -1.1652,0 -0.92734,0.9373 -1.52927,1.33881 -0.479,0.31953 -2.13682,0.90151 -2.29391,1.53007 -0.24755,0.99078 4.14525,3.21611 4.87455,2.48639 0.39682,-0.397 0.96039,-0.67854 1.24255,-1.2432 0.48265,-0.96582 -1.16609,-2.33339 -1.52928,-3.06015 -0.10425,-0.20853 0.27447,-0.58608 0.0956,-0.76502 -0.23603,-0.23618 -0.42796,-0.2869 -0.8602,-0.2869 z"
       id="path10140" />
    <path
       sodipodi:nodetypes="sssscsss"
       style="fill:none;stroke:#000000;stroke-width:0.516236;stroke-linecap:round;stroke-linejoin:round;stroke-miterlimit:4;stroke-dasharray:none;stroke-opacity:1"
       d="m 188.88281,571.88599 c 0,1.02589 -1.66821,-0.0521 -2.19835,0.47815 -0.32671,0.32685 0.49046,0.99234 0.66909,1.05192 0.87251,0.29098 2.84953,0.58273 3.82317,0.0955 0.19886,-0.0992 0.13701,-0.21987 0.1912,-0.3825 0.28884,-0.86711 -0.29347,-0.91183 -0.95583,-1.24317 -0.83784,-0.41915 -1.52928,-1.41751 -1.52928,0 z"
       id="path10142" />
    <path
       sodipodi:nodetypes="csssssssssssssssssc"
       style="fill:none;stroke:#000000;stroke-width:0.516236;stroke-linecap:round;stroke-linejoin:round;stroke-miterlimit:4;stroke-dasharray:none;stroke-opacity:1"
       d="m 181.02487,579.13818 c -1.30587,-0.0992 -2.6475,-0.33235 -3.72761,0.47814 -0.68111,0.51112 -1.20961,1.80049 -1.816,2.10388 -0.50066,0.25047 -1.01164,-0.36391 -1.52927,-0.19127 -0.88394,0.29478 -0.83094,2.61131 -0.38232,3.06016 0.39953,0.39977 1.26034,-0.13125 1.43371,-0.47816 0.2055,-0.41128 -0.31131,-1.60115 0,-1.91259 0.33596,-0.33613 0.81598,0.71603 1.2425,0.57377 0.62592,-0.20872 1.27839,-0.73513 1.72045,-0.9563 0.90606,-0.45325 2.70201,0.83034 3.72758,0.57379 1.01581,-0.25407 0.2778,-1.33432 0.6691,-1.53008 0.45968,-0.22997 0.84555,0.27711 1.14695,0.47814 0.26281,0.1753 1.3361,0.52699 1.62486,0.38254 0.20867,-0.10448 0.42494,-0.49948 0.57348,-0.57378 0.84528,-0.42286 3.25483,0.40293 2.77182,-1.5301 -0.26499,-1.06055 -1.73941,0.0767 -2.19832,-0.38253 -0.18147,-0.1815 -0.39593,-0.67617 -0.5735,-0.76503 -1.07406,-0.5373 -1.52298,-0.0509 -2.38951,0.38254 -0.66526,0.33279 -1.71895,0.28688 -2.29392,0.28688 z"
       id="path10144" />
    <path
       sodipodi:nodetypes="cssssssc"
       style="fill:#000000;fill-opacity:1;stroke:#000000;stroke-width:0.516236;stroke-linecap:round;stroke-linejoin:round;stroke-miterlimit:4;stroke-dasharray:none;stroke-opacity:1"
       d="m 163.72271,578.6823 c -0.71137,-1.22195 2.00209,-1.72646 2.19831,-1.53009 0.19469,0.19476 0.23467,0.71289 0.38233,0.86065 0.38661,0.38682 1.91651,-0.39237 1.14697,1.14757 -0.21709,0.43438 -1.25724,0.41196 -1.43368,0.76505 -0.19404,0.38822 0.21204,1.72132 -0.47793,1.72132 -0.56963,0 -0.55239,-1.48787 -0.76464,-1.91258 -0.1951,-0.39046 -0.77024,-0.77067 -1.05136,-1.05192 z"
       id="path10146" />
    <path
       sodipodi:nodetypes="sssscssssssssssss"
       style="fill:#000000;fill-opacity:1;stroke:#000000;stroke-width:0.516236;stroke-linecap:round;stroke-linejoin:round;stroke-miterlimit:4;stroke-dasharray:none;stroke-opacity:1"
       d="m 161.51388,579.75307 c 0,-2.1388 -0.88751,1.06197 -1.59981,1.74911 -0.66342,0.63999 -1.42575,2.64258 -2.3464,3.08667 -0.50726,0.24466 -3.09294,1.32896 -3.09294,1.74912 0,0.0764 0.17771,-0.0344 0.21327,-0.10289 0.20772,-0.40073 0.87762,-0.88191 1.06654,-1.33752 0.41985,-1.01254 1.01283,-3.2406 1.81313,-4.01265 0.92006,-0.88758 2.14047,-1.70836 2.87967,-2.778 0.47314,-0.68463 2.10528,-4.13196 2.55971,-4.42422 1.43616,-0.92364 2.95058,-2.29798 4.26617,-1.02891 0.0775,0.0748 0.31457,0.73062 0.21327,0.92603 -0.19662,0.37938 -0.44134,0.74867 -0.63987,1.13179 -0.1969,0.37978 -0.8828,0.4685 -1.06655,0.8231 -0.17953,0.34626 -0.0952,0.81189 -0.42663,1.13176 -0.33444,0.32261 -0.68545,0.16649 -1.06655,0.41157 -1.15774,0.74459 -2.77301,4.09013 -2.77301,2.67509 z"
       id="path10148" />
    <path
       sodipodi:nodetypes="cssc"
       style="fill:none;stroke:#000000;stroke-width:0.516236;stroke-linecap:round;stroke-linejoin:round;stroke-miterlimit:4;stroke-dasharray:none;stroke-opacity:1"
       d="m 144.42519,576.35226 c 1.71055,-0.0632 0.15241,-2.60099 -0.76463,-2.29512 -0.28653,0.0956 -0.28675,0.32091 -0.28675,0.57377 0,0.9805 0.24166,1.11372 1.05138,1.72135 z"
       id="path10150" />
    <path
       sodipodi:nodetypes="csc"
       style="fill:none;stroke:#000000;stroke-width:0.516236;stroke-linecap:round;stroke-linejoin:round;stroke-miterlimit:4;stroke-dasharray:none;stroke-opacity:1"
       d="m 144.28123,579.31072 c -1.44394,-0.85386 -1.92636,2.19211 -1.14695,2.58201 1.03427,0.5174 1.88974,-1.83886 1.14695,-2.58201 z"
       id="path10152" />
    <path
       sodipodi:nodetypes="cc"
       style="fill:none;stroke:#000000;stroke-width:0.516236;stroke-linecap:round;stroke-linejoin:round;stroke-miterlimit:4;stroke-dasharray:none;stroke-opacity:1"
       d="m 144.55534,584.55116 c -0.59258,0.13937 -1.81603,-0.44241 -1.81603,0.28688"
       id="path10154" />
    <path
       sodipodi:nodetypes="cc"
       style="fill:none;stroke:#000000;stroke-width:0.516236;stroke-linecap:round;stroke-linejoin:round;stroke-miterlimit:4;stroke-dasharray:none;stroke-opacity:1"
       d="m 140.81845,588.36722 c 0.68224,1.25107 -0.95578,0.87288 -0.95578,1.5301"
       id="path10156" />
    <path
       sodipodi:nodetypes="cssscsssssc"
       style="fill:none;stroke:#000000;stroke-width:0.516236;stroke-linecap:round;stroke-linejoin:round;stroke-miterlimit:4;stroke-dasharray:none;stroke-opacity:1"
       d="m 142.15656,591.42738 c -1.14305,0.70593 -3.55208,1.78573 -2.77182,3.34707 0.0346,0.0688 0.22132,0.27179 0.38231,0.19125 0.46152,-0.23086 0.15716,-0.63539 0.38236,-0.86066 0.24625,-0.2464 0.96948,-0.12293 1.24249,-0.19129 1.04414,-0.26111 0.85613,0.96044 1.43371,0.38255 0.17251,-0.17258 0.49657,-0.11429 0.66905,-0.28689 0.14506,-0.14511 1.25,-1.80952 0.95582,-2.10386 -0.12385,-0.12392 -0.46816,-0.22449 -0.57349,-0.38252 -0.19666,-0.29517 -0.07,-0.60876 -0.38233,-0.76504 -0.43944,-0.21984 -0.95033,0.5724 -1.3381,0.66939 z"
       id="path10158" />
    <path
       sodipodi:nodetypes="cc"
       style="fill:none;stroke:#000000;stroke-width:0.516236;stroke-linecap:round;stroke-linejoin:round;stroke-miterlimit:4;stroke-dasharray:none;stroke-opacity:1"
       d="m 154.10402,600.12971 c -0.57068,1.04097 0.0955,0.61575 0.0955,1.24321"
       id="path10160" />
    <path
       sodipodi:nodetypes="ccccccccccccccccccccccccccccc"
       inkscape:connector-curvature="0"
       id="path14359-1-7-5-3-0-73-1-9-8-5-9-6"
       d="m 116.67758,413.35079 1.74943,-2.38765 3.99002,-5.92488 0.42779,-2.75541 -0.23983,-2.50119 2.17018,-0.71314 4.62192,-0.0743 4.58428,-1.43997 1.33832,-2.12311 4.7486,-2.0397 6.22527,-6.80136 1.9469,-5.53147 7.23059,-3.12438 8.27011,-6.10234 1.14572,-1.81377 3.79836,-4.17806 2.23385,-0.90503 3.67588,-3.35267 1.15411,-1.47902 2.33084,-0.60974 4.06889,-0.45747 5.71417,-3.313 3.09453,-0.59301 4.65895,-1.89942 7.08655,2.27275 3.96033,2.6006 5.4461,0.75836 0.86975,1.37642 5.43219,-0.49886"
       style="fill:none;stroke:#000000;stroke-width:1.04463;stroke-linecap:butt;stroke-linejoin:round;stroke-miterlimit:4;stroke-dasharray:1.04463, 1.04462999999999995;stroke-dashoffset:0;stroke-opacity:1" />
    <path
       style="fill:none;stroke:#000000;stroke-width:1.04463;stroke-linecap:butt;stroke-linejoin:round;stroke-miterlimit:4;stroke-dasharray:1.04463, 1.04462999999999995;stroke-dashoffset:0;stroke-opacity:1"
       d="m 41.081817,413.77021 4.32667,-5.48506 2.237796,-2.22089 3.657504,-7.4913 3.028253,-0.36263 3.048311,-6.55156 5.954039,-2.48423 2.381703,1.03225 -0.276721,9.33579 2.460886,-0.72205 3.484912,1.92648 2.209956,2.02777 1.880116,-0.92225 -1.488622,-4.83486 -1.473569,-1.37605 1.477184,-3.66221 -1.790268,-0.91989 0.520672,-2.06643 1.203805,-2.03252 1.167337,-0.54831 1.341351,-6.33061 3.957563,-5.24866 0.82377,-2.96091 1.759128,-0.18359 1.509337,1.5971 4.209975,2.63329 0.436507,-1.13391 -1.93546,-1.84382 -0.681451,-1.87847 1.336378,-2.34517 1.156547,-1.17045 2.179182,-1.20199 -0.06174,-2.01425 1.982678,-1.60238 0.915812,-1.99341 3.879824,-2.3235 1.393456,-2.4856 8.910852,-3.01139 3.27484,4.05575 2.0192,-0.99522 0.0961,-2.33269 2.18635,-1.21079 0.50004,-2.10924 6.22026,-3.92955 3.97849,-5.15328 6.00074,-3.70385 4.16609,-1.46267 2.89896,-0.27917 1.56359,-3.20623 7.1113,-6.44725 -0.075,-2.697 7.34754,-10.19393 1.58895,-6.36676 m 2.40423,-15.99704 3.55826,-11.97043 1.56978,-1.19894 1.49396,0.50693 4.08674,1.95538 2.60065,-0.0387 7.41842,-4.59212 2.93574,0.028 6.05207,-7.13438 2.44537,-0.94958 1.81051,-3.69762 3.34225,-2.01603 4.25168,-5.44681 0.65979,-8.24234 4.38346,-5.60217 2.2391,-0.65661 2.49827,-4.89215 2.72449,-1.22678 4.67559,1.05422"
       id="path14359-1-7-5-3-0-73-1-9-8-5-9-6-5"
       inkscape:connector-curvature="0"
       sodipodi:nodetypes="cccccccccccccccccccccccccccccccccccccccccccccccccccccccccccccccccccccccc" />
    <path
       style="fill:none;stroke:#000000;stroke-width:1.04463;stroke-linecap:butt;stroke-linejoin:round;stroke-miterlimit:4;stroke-dasharray:1.04463, 1.04462999999999995;stroke-dashoffset:0;stroke-opacity:1"
       d="m 63.183703,413.4794 -0.200892,-1.66511 -1.278632,-1.86234 2.07567,-1.34768 -0.722525,-2.30183 2.023554,-0.8268 1.718774,-0.0649 2.327821,1.87657 0.57913,-1.98618 1.986919,-0.38402 1.725501,1.20323 4.362585,0.0861 1.066938,-2.10222 3.690389,0.095 1.923886,-2.41023 2.414745,1.1459 1.809677,-2.6519 2.252703,-0.36958 1.689138,-3.14494 3.027931,-1.53059 2.363997,-0.2621 0.751044,-2.63514 1.572414,-1.22237 2.1391,-0.10859 8.92798,3.10909 2.03158,2.01301 4.19595,1.50816 1.88294,-1.69106 0.15989,-2.08106 -1.52072,-1.89752 -2.47776,-0.83918 -1.30606,-6.53775 1.99812,-1.48638 0.93253,-3.53681 2.02797,-3.01994 2.47575,-6.15204 -2.19608,-7.03837 0.75999,-0.64168 4.29343,1.71704 1.93508,1.51869 5.32131,1.18501 6.95786,-2.25004 0.8112,-1.99529 9.91868,-10.94539 3.02994,-2.1101 3.25751,-3.32686 2.58175,-5.5302 2.62104,-2.82337 3.0247,-8.27344 -0.0241,-1.81221 2.07703,-1.41792 2.57878,-6.45854 1.23099,-1.5219 2.61322,-8.97436 1.26183,-1.89997 6.17613,-2.4518 5.17626,-5.84507 3.88037,-1.75147 3.60124,-3.52982 3.18562,-2.02229 2.94286,0.0488 2.21944,-0.83937 2.25709,1.29014"
       id="path14359-1-7-5-3-0-73-1-9-8-5-9-6-7"
       inkscape:connector-curvature="0"
       sodipodi:nodetypes="ccccccccccccccccccccccccccccccccccccccccccccccccccccccccccccccc" />
    <path
       style="fill:none;stroke:#000000;stroke-width:1.04463;stroke-linecap:butt;stroke-linejoin:round;stroke-miterlimit:4;stroke-dasharray:1.04463, 1.04462999999999995;stroke-dashoffset:0;stroke-opacity:1"
       d="m 3.7606415,386.33673 5.516049,-5.05879 5.0162475,-0.8043 3.548435,-3.17115 9.537219,-2.58716 4.613754,-4.27756 1.230443,-3.70509 4.852283,-4.75048 7.813974,-3.23153 1.267224,-2.31679 5.682218,-3.9333 2.196032,-4.35855 3.538866,-2.38999 6.525929,-8.49932 2.246885,-1.56022 2.417325,-4.9135 6.902789,-3.69594 1.96027,-4.14382 1.668987,-0.61753 0.662501,-4.31108 2.791072,-3.01872 -0.331544,-1.77408 2.879604,-1.56396 0.576768,-1.56253 3.226043,-2.41067 2.927562,-6.08113 0.910725,-2.30656 4.111762,-2.89776 4.531946,-1.68858 3.61426,-1.3674 2.82475,0.20267 2.01719,-1.34433 5.80556,-2.21105 3.12622,-3.8178 3.09329,-1.67352 3.99924,-5.69029 m 8.70361,-10.0945 3.1102,-3.47934 3.95078,-6.03669 1.14924,-8.8407 2.692,-4.67618 1.4427,-6.9769 2.20396,-4.88513 11.42249,-7.47346 1.29252,-2.20298 4.07108,-4.9459 1.44497,-0.39469 2.71409,-5.04667 3.48226,-3.58796 0.94229,-2.54975 6.05932,-3.92764 0.47773,-3.10479 9.32722,-10.74269 5.55738,-2.48077 2.72011,-3.294 4.81415,-2.26147 2.05788,-2.69323 2.17234,-0.25194 5.42755,-3.19994 4.12893,-4.13172"
       id="path14359-1-7-5-3-0-73-1-9-8-5-9-6-9"
       inkscape:connector-curvature="0"
       sodipodi:nodetypes="cccccccccccccccccccccccccccccccccccccccccccccccccccccccccccc" />
    <path
       style="fill:none;stroke:#000000;stroke-width:1.04463;stroke-linecap:butt;stroke-linejoin:round;stroke-miterlimit:4;stroke-dasharray:1.04463, 1.04462999999999995;stroke-dashoffset:0;stroke-opacity:1"
       d="m 24.699275,413.67328 1.825116,-1.99808 0.456387,-2.8119 1.818567,-1.3793 1.71846,-1.86594 0.02852,-4.44052 4.362365,-5.04047 0.433979,-4.02777 2.032465,-2.91032 2.204869,-0.89607 2.447714,-3.66876 2.384586,-1.18873 1.932097,1.73072 3.26413,-0.91637 1.307609,1.12138 2.979856,4.16103 1.632801,-0.78512 -0.03196,-2.26001 -2.124674,-6.36271 -3.047986,-0.96684 -1.962255,-3.59621 2.923634,-2.99114 0.868909,-2.20806 2.050672,-1.95785 0.175884,-2.09004 3.910898,-2.44645 1.615816,-4.49078 3.983375,-3.48218 0.630567,-1.88848 4.323672,-2.85058 3.440839,-3.441 0.581584,-1.55105 2.575691,-0.62313 3.380594,-3.40395 4.300659,-1.51653 3.484065,-4.36414 3.89476,-0.0831 1.49397,1.49168 2.473819,-0.67259 2.881705,-4.2615 4.303416,-0.90548 4.91555,-4.39413 6.25033,-1.72481 3.86841,-3.64027 1.05658,-2.55739 7.55372,-4.86775 5.02717,-6.10285 1.14638,-3.92562 m 11.83348,-6.8591 5.86229,-4.8674 1.34312,-6.57302 1.92747,-1.43705 1.85626,-4.64207 6.25473,-9.14838 2.67976,-7.91279 1.02233,-6.52295 1.6694,-2.58444 3.85315,-3.03065 -0.16712,-3.17272 2.58548,-7.58925 6.28343,-7.18806 1.7094,-1.34949 1.14868,-3.26909 5.73978,-3.19874 10.85524,-10.60112 12.40734,-10.13302 5.34072,-0.91039 2.84481,-2.15271"
       id="path14359-1-7-5-3-0-73-1-9-8-5-9-6-4"
       inkscape:connector-curvature="0"
       sodipodi:nodetypes="cccccccccccccccccccccccccccccccccccccccccccccccccccccccccccccccccccc" />
    <path
       style="fill:none;stroke:#000000;stroke-width:1.04463;stroke-linecap:butt;stroke-linejoin:round;stroke-miterlimit:4;stroke-dasharray:1.04463, 1.04462999999999995;stroke-dashoffset:0;stroke-opacity:1"
       d="m 3.7606415,348.43394 2.336722,-1.65862 4.4523485,-0.20029 3.558798,-2.35597 1.181095,0.11394 8.165145,-3.94643 5.826689,-3.96794 1.181367,-2.37641 2.058486,-0.20927 10.885746,-7.82592 2.908863,-4.62947 4.195841,-0.26641 4.586562,-5.11854 2.54875,-0.53608 1.599812,-1.80833 0.542672,-2.83448 6.559703,-5.59599 6.155171,-5.74283 3.254028,-1.37074 11.067104,-10.562 5.567005,-2.69111 8.051071,-9.0919 9.14322,-6.77601 5.05915,-6.28735 0.44935,-1.59837 1.6535,-1.27862 7.10717,-8.81412 3.0972,-5.08223 6.36937,-6.51761 10.25483,-12.73465 4.91504,-17.59042 3.68897,-6.93672 5.89137,-5.34915 4.4141,-5.38556 0.54371,-2.36314 2.56896,-2.56666 2.81184,-0.87156 1.62116,-1.68179 1.04625,-2.64365 1.00703,-1.59756 2.04287,-0.57371 1.65969,-2.32285 19.54853,-20.86683 15.46185,-14.866 1.84955,-2.71402 5.97287,-4.23278"
       id="path14359-1-7-5-3-0-73-1-9-8-5-9-6-0"
       inkscape:connector-curvature="0"
       sodipodi:nodetypes="cccccccccccccccccccccccccccccccccccccccccccccc" />
    <path
       style="fill:none;stroke:#000000;stroke-width:1.04463;stroke-linecap:butt;stroke-linejoin:round;stroke-miterlimit:4;stroke-dasharray:1.04463, 1.04462999999999995;stroke-dashoffset:0;stroke-opacity:1"
       d="m 3.8575827,228.32763 11.7194923,-1.03998 9.171339,-4.90448 4.611017,0.68721 8.082076,-4.23793 4.76652,-1.34763 6.025649,-4.87406 3.013137,-1.06717 3.365762,-0.42034 2.630136,-1.07056 5.42408,-4.75511 10.088352,-4.55303 4.294454,-4.26496 3.714018,-2.27405 15.255238,-7.27517 13.545557,-8.23585 5.84575,-5.13954 3.27599,-5.79498 5.2794,-4.89627 3.5521,-5.468 2.30921,-1.32458 5.88399,-6.74004 4.42826,-2.82423 7.73383,-11.84705 3.99804,-3.80783 1.29633,-2.29747 2.62149,-1.75178 3.46308,-6.9567 2.26692,-4.38868 5.8353,-7.44645 3.68154,-9.049422 2.94088,-4.07642 3.50664,-11.322587 7.86063,-12.682417 1.10808,-4.159354 2.04216,-1.807434 2.33082,-4.54629 2.406,-2.161412 4.79386,-9.574598"
       id="path14359-1-7-5-3-0-73-1-9-8-5-9-6-55"
       inkscape:connector-curvature="0"
       sodipodi:nodetypes="ccccccccccccccccccccccccccccccccccccccc" />
    <path
       style="fill:none;stroke:#000000;stroke-width:1.04463;stroke-linecap:butt;stroke-linejoin:round;stroke-miterlimit:4;stroke-dasharray:1.04463, 1.04462999999999995;stroke-dashoffset:0;stroke-opacity:1"
       d="m 3.7606415,302.87302 1.6732492,-0.62192 1.1956361,-1.47918 2.8212922,-0.0139 1.39447,-1.23494 1.774359,0.84828 3.222167,-2.7043 1.864875,-0.80358 3.728507,-3.62029 6.359354,-3.46481 5.298642,-2.88691 5.129704,0.21511 8.430418,-3.85687 3.689083,-2.5621 6.527434,-3.10881 2.4954,-0.22693 2.433026,-2.34162 5.68906,-3.87106 4.376363,-0.27965 2.656565,-3.2225 3.383938,-1.68508 0.943693,0.27328 1.925203,-0.66752 1.012659,-1.53865 2.349205,-1.16983 0.655691,-2.25543 8.376681,-8.49149 8.717074,-10.44996 3.50057,-1.54498 2.34292,-2.6552 2.34501,-1.60128 4.67747,-5.68498 2.49984,-1.63759 7.10208,-6.95985 0.50041,-1.60814 2.52641,-3.29605 1.8393,3.25895 -0.34286,-6.74221 1.81823,0.42145 0.42904,-2.18456 3.40574,-2.44556 4.26103,-11.96877 6.62672,-9.92964 2.55421,-2.51846 3.25136,-7.50463 4.5881,-5.93178 3.71641,-3.06978 2.30845,-3.65994 10.033,-8.7896 0.86364,-3.60645 4.02823,-0.67917 0.59605,-2.30241 6.86592,-6.08543 2.57852,-4.85824 2.03168,-0.27348 4.40097,-3.92553 0.74968,-3.89071 9.06761,-8.24165 1.41819,-2.5664 9.2675,-8.48229 0.43821,-2.28083 4.38859,-3.71104"
       id="path14359-1-7-5-3-0-73-1-9-8-5-9-6-8"
       inkscape:connector-curvature="0"
       sodipodi:nodetypes="cccccccccccccccccccccccccccccccccccccccccccccccccccccccccccccc" />
    <path
       style="fill:none;stroke:#000000;stroke-width:1.04463;stroke-linecap:butt;stroke-linejoin:round;stroke-miterlimit:4;stroke-dasharray:1.04463, 1.04462999999999995;stroke-dashoffset:0;stroke-opacity:1"
       d="m 3.7606415,263.32229 4.8234207,0.0898 9.7232448,-3.41308 4.550032,-0.0767 1.771058,-1.70569 6.51446,-2.44636 4.258309,-4.18808 9.67863,-4.24258 1.319664,-1.33802 3.879968,-0.0955 3.545113,-2.58879 4.461207,-0.59728 4.106139,-2.43628 2.000572,-0.91973 2.904978,-4.30035 4.533881,-4.904 2.175787,-0.16495 4.813957,-3.62235 m 3.356224,-1.86382 0.907758,-0.50411 m 4.958533,-2.97409 2.099915,-0.68677 2.861249,-3.92253 6.389682,-2.88114 3.392287,-3.33694 1.6117,-1.93144 3.77443,-1.59032 16.55225,-17.27104 2.37113,-4.02192 9.93336,-12.37237 0.84423,-2.29159 12.55583,-16.93764 4.30069,-6.4845 7.69179,-5.69865 10.80601,-10.66615 1.48122,-3.11294 3.02524,-3.88786 2.37418,-1.22863 3.10715,-3.50489 1.54257,-3.09014 4.79908,-7.17285 0.62973,-4.12307 3.11915,-4.29618 2.51196,-1.599863 4.70389,-7.527568 3.47002,-2.340754 1.39618,-2.795866 2.0967,-0.477948 2.70757,-4.330305 2.55368,-3.047715 -0.138,-1.150393 2.69425,-3.681664 3.34279,-2.208228"
       id="path14359-1-7-5-3-0-73-1-9-8-5-9-6-1"
       inkscape:connector-curvature="0"
       sodipodi:nodetypes="ccccccccccccccccccccccccccccccccccccccccccccccccccccc" />
    <path
       sodipodi:nodetypes="cccccc"
       inkscape:connector-curvature="0"
       id="path14359-1-7-5-3-0-73-1-9-8-5-9-61"
       d="m 60.376346,413.56377 -2.230713,-2.46226 -2.855724,-4.29774 -0.707681,2.66807 1.326799,2.63061 -0.780408,1.20191"
       style="fill:none;stroke:#000000;stroke-width:0.997627;stroke-linecap:butt;stroke-linejoin:round;stroke-miterlimit:4;stroke-dasharray:0.997627, 0.99762700000000004;stroke-dashoffset:0;stroke-opacity:1" />
    <path
       style="fill:none;stroke:#000000;stroke-width:1.03247;stroke-linecap:butt;stroke-linejoin:round;stroke-miterlimit:4;stroke-dasharray:1.03247, 1.03247000000000000;stroke-dashoffset:0;stroke-opacity:1"
       d="m 91.497985,413.4066 -6.566274,-3.37386 -2.641951,0.49955 -1.14869,1.58 -1.454453,-1.52848 -1.27462,2.56339"
       id="path14359-1-7-5-3-0-73-1-9-8-5-9-61-1"
       inkscape:connector-curvature="0"
       sodipodi:nodetypes="cccccc" />
    <path
       style="fill:none;stroke:#000000;stroke-width:1.04463;stroke-linecap:butt;stroke-linejoin:round;stroke-miterlimit:4;stroke-dasharray:1.04463, 1.04462999999999995;stroke-dashoffset:0;stroke-opacity:1"
       d="m 3.8423834,158.84595 2.6591142,6.05882 0.5460464,4.75712 5.531697,4.63807 2.125353,0.5484 3.512771,-0.88956 11.13562,-0.0779 4.077454,-2.01711 6.677108,-2.39589 3.144677,-0.20071 7.924589,-3.58718 9.115493,-2.13468 11.900118,-4.25118 6.53272,-4.6107 5.903104,-2.17158 7.296832,-5.50861 2.504415,-0.74348 11.812155,-11.97729 4.038,-2.59933 3.29205,-4.54571 1.50122,-0.98864 4.18932,-5.07635 0.63557,-2.94857 1.68463,-1.18299 3.73932,-6.75945 1.97211,-6.00241 2.66618,-4.13381 3.3753,-11.539376 1.2073,-1.689493 0.77354,-6.86841 4.4842,-15.808603 1.74542,-2.408775 0.20308,-4.559727 3.17976,-6.164606 0.24109,-2.491334"
       id="path14359-1-7-5-3-0-73-1-9-8-5-9-61-3"
       inkscape:connector-curvature="0"
       sodipodi:nodetypes="ccccccccccccccccccccccccccccccccccc" />
    <path
       style="fill:none;stroke:#000000;stroke-width:1.04463;stroke-linecap:butt;stroke-linejoin:round;stroke-miterlimit:4;stroke-dasharray:1.04463, 1.04462999999999995;stroke-dashoffset:0;stroke-opacity:1"
       d="m 3.5837551,197.12393 8.2829889,2.60265 8.66807,-0.87622 5.642396,0.1205 19.464385,-8.4751 4.054953,-3.44804 3.777719,-1.12813 3.919946,-3.25979 1.892359,-0.77416 5.135899,-0.81745 10.525539,-4.64676 2.323392,-1.99467 4.439459,-0.75724 3.749598,-1.92936 6.497464,-3.8531 4.364331,-2.42516 4.764196,-4.74471 6.16697,-4.26685 1.31122,-1.66994 2.06852,-0.71608 0.71574,-2.38581 2.89941,-3.47386 1.9342,-1.10933 8.14111,-6.13099 9.24817,-13.47816 3.81632,-3.72791 m 7.1456,-13.56521 1.05851,-1.44914 0.0126,-3.4724 3.63637,-5.669929 0.61557,-4.125559 1.97088,-1.086765 1.28965,-3.675858 1.28165,-6.99832 1.43964,-1.851891 0.6348,-2.518873 0.77162,-4.71032 1.19679,-2.302884 1.97639,-2.298348 0.70117,-2.908243 0.99681,-0.822576 -0.22776,-2.151951 4.47878,-5.951717 1.13808,-5.386775 1.78391,-0.427041 0.59175,-3.951567"
       id="path14359-1-7-5-3-0-73-1-9-8-5-9-61-6"
       inkscape:connector-curvature="0"
       sodipodi:nodetypes="cccccccccccccccccccccccccccccccccccccccccccccc" />
    <path
       sodipodi:nodetypes="cc"
       inkscape:connector-curvature="0"
       id="path14359-1-7-5-3-0-73-1-9-8-5"
       d="m 180.35468,260.49409 h -0.9996"
       style="fill:none;stroke:#000000;stroke-width:0.0102769;stroke-linecap:round;stroke-linejoin:round;stroke-miterlimit:4;stroke-dasharray:none;stroke-opacity:1" />
    <path
       style="fill:none;stroke:#000000;stroke-width:2.08925;stroke-linecap:butt;stroke-linejoin:miter;stroke-miterlimit:4;stroke-dasharray:none;stroke-opacity:1"
       d="m 19.012001,326.70453 -2.339218,7.32533 3.885211,4.46932 15.664927,-16.25204 11.08155,-3.12602 12.485067,-8.3074 12.794057,-12.06929 1.398763,-0.53791 12.738347,-14.16832 16.653565,-21.7033 8.32338,-15.43392 17.80918,-21.3773 2.89297,-8.16677 1.96433,-4.20359 22.06405,-16.9713 2.54152,12.1359 -1.63131,1.42296 c -3.29846,3.17124 -6.80835,4.38355 -11.03025,5.54164 l -5.19192,16.66648 -0.35176,0.75467 23.35291,11.12105 -8.09574,24.68816 15.26607,8.98546 8.56662,-25.57957 1.11207,-0.87317 10.09938,-1.29134 3.06193,-3.90699 3.91013,-13.81343 3.40219,-6.14996 -2.59073,-2.71096 -26.91576,-17.72193 -2.87536,-1.82608 -1.85364,-0.32595 2.20489,-1.28135 20.58624,-33.98281 3.59337,-1.17505 4.59046,-3.78647 4.90318,-11.22078 1.3221,-10.4862 -3.59291,-4.44138 4.01398,-3.54408 0.8515,-0.63695 -8.54449,-4.26385 -8.82185,-3.39439 -9.72993,0.2884 -14.34505,14.98887 -9.50569,6.93949 -12.07685,17.06677 -2.07887,2.79364 -0.53135,1.47072 -1.12925,0.67169 -3.18767,4.1495 1.30367,1.19624 -8.95368,12.78824 -31.44423,31.66887 -14.861497,17.85556 -17.67465,22.24373 -18.631725,31.73062 -15.078892,23.17124 z"
       id="path14359-1-7-5-3-0-73-1-9-8-5-3-4-8"
       inkscape:connector-curvature="0"
       sodipodi:nodetypes="cccccccccccccccccccccccccccccccccccccccccccccccccccccccccccc" />
    <path
       sodipodi:nodetypes="cccccccc"
       inkscape:connector-curvature="0"
       id="path14359-1-7-5-3-0-73-1-9-8-5-9-9-040"
       d="m 182.44246,212.84375 -5.63454,4.40127 c -1.57015,0.46761 -2.64247,1.599 -3.54328,2.95907 l -2.16817,0.43685 -1.85121,10.90436 19.04097,14.37956 9.13899,-22.32012 z"
       style="fill:none;stroke:#000000;stroke-width:1;stroke-linecap:round;stroke-linejoin:round;stroke-miterlimit:4;stroke-dasharray:none;stroke-opacity:1" />
    <path
       sodipodi:nodetypes="cc"
       inkscape:connector-curvature="0"
       id="path14359-1-7-5-3-0-73-1-9-8-5-9-9-734"
       d="m 177.26847,217.09524 -0.003,20.51777"
       style="fill:none;stroke:#000000;stroke-width:1;stroke-linecap:round;stroke-linejoin:round;stroke-miterlimit:4;stroke-dasharray:none;stroke-opacity:1" />
    <path
       sodipodi:nodetypes="cc"
       inkscape:connector-curvature="0"
       id="path14359-1-7-5-3-0-73-1-9-8-5-9-9-739"
       d="m 172.43344,220.64903 -0.003,13.10882"
       style="fill:none;stroke:#000000;stroke-width:1;stroke-linecap:round;stroke-linejoin:round;stroke-miterlimit:4;stroke-dasharray:none;stroke-opacity:1" />
    <path
       sodipodi:nodetypes="cc"
       inkscape:connector-curvature="0"
       id="path14359-1-7-5-3-0-73-1-9-8-5-9-9-48"
       d="m 181.78911,213.82632 -0.003,26.90055"
       style="fill:none;stroke:#000000;stroke-width:1;stroke-linecap:round;stroke-linejoin:round;stroke-miterlimit:4;stroke-dasharray:none;stroke-opacity:1" />
    <path
       sodipodi:nodetypes="cc"
       inkscape:connector-curvature="0"
       id="path14359-1-7-5-3-0-73-1-9-8-5-9-9-08"
       d="m 186.82645,215.94261 -0.003,28.79429"
       style="fill:none;stroke:#000000;stroke-width:1;stroke-linecap:round;stroke-linejoin:round;stroke-miterlimit:4;stroke-dasharray:none;stroke-opacity:1" />
    <path
       sodipodi:nodetypes="cc"
       inkscape:connector-curvature="0"
       id="path14359-1-7-5-3-0-73-1-9-8-5-9-9-10"
       d="m 191.42363,218.37198 -0.003,19.53668"
       style="fill:none;stroke:#000000;stroke-width:1;stroke-linecap:round;stroke-linejoin:round;stroke-miterlimit:4;stroke-dasharray:none;stroke-opacity:1" />
    <path
       sodipodi:nodetypes="cc"
       inkscape:connector-curvature="0"
       id="path14359-1-7-5-3-0-73-1-9-8-5-9-9-31"
       d="m 195.72141,221.72557 -0.003,5.8018"
       style="fill:none;stroke:#000000;stroke-width:1;stroke-linecap:round;stroke-linejoin:round;stroke-miterlimit:4;stroke-dasharray:none;stroke-opacity:1" />
    <path
       sodipodi:nodetypes="cc"
       inkscape:connector-curvature="0"
       id="path14359-1-7-5-3-0-73-1-9-8-5-9-9-84"
       d="m 200.88279,225.18982 -0.003,2.04194"
       style="fill:none;stroke:#000000;stroke-width:0.997627;stroke-linecap:round;stroke-linejoin:round;stroke-miterlimit:4;stroke-dasharray:none;stroke-opacity:1" />
    <path
       sodipodi:nodetypes="cccccccccc"
       inkscape:connector-curvature="0"
       id="path14359-1-7-5-3-0-73-1-9-8-5-9-03-9-2"
       d="m 218.45604,300.00067 -0.84486,0.88047 -7.93863,18.00601 -0.34928,1.72494 -5.11002,11.12482 -9.99572,9.82666 -2.56852,4.7297 -13.04693,30.84709 -28.12076,29.3523 -3.97365,6.82558"
       style="fill:none;stroke:#000000;stroke-width:0.522313;stroke-linecap:round;stroke-linejoin:round;stroke-miterlimit:4;stroke-dasharray:none;stroke-opacity:1" />
    <path
       sodipodi:nodetypes="ccccccccccc"
       inkscape:connector-curvature="0"
       id="path14359-1-7-5-3-0-73-1-9-8-5-9-03-8-9"
       d="m 218.41936,296.55859 -1.93695,3.64258 -8.33377,18.54904 -0.2417,1.3419 -5.23886,11.5448 -0.85765,0.3231 -8.98291,9.18285 -3.21868,5.88533 -12.52225,29.75674 -26.63908,27.61362 -5.53499,8.98324"
       style="fill:none;stroke:#000000;stroke-width:0.522313;stroke-linecap:round;stroke-linejoin:round;stroke-miterlimit:4;stroke-dasharray:none;stroke-opacity:1" />
    <path
       sodipodi:nodetypes="cc"
       inkscape:connector-curvature="0"
       id="path14359-1-7-5-3-0-73-1-9-8-5-9-03-9-1"
       d="m 218.53873,408.09874 -9.6224,6.25775"
       style="fill:none;stroke:#000000;stroke-width:1.04463;stroke-linecap:round;stroke-linejoin:round;stroke-miterlimit:4;stroke-dasharray:none;stroke-opacity:1" />
    <path
       sodipodi:nodetypes="ccccccccccccccccccccccccccccccccccccccccc"
       inkscape:connector-curvature="0"
       id="path14359-1-7-5-3-0-73-1-9-8-5-9-1"
       d="m 27.537803,48.394698 -6.341115,11.488309 -3.301402,9.050195 -1.967541,8.38639 0.345113,7.750136 -1.495078,4.867493 1.11239,2.034669 -0.672498,2.090765 0.839335,2.32778 -1.478353,4.481705 -0.168227,9.23759 1.64048,5.76704 0.428223,4.3896 2.803168,6.97024 1.582043,13.09999 2.687893,4.88193 0.08587,4.51839 6.075435,2.37066 2.758489,0.42278 6.74948,-3.12034 4.435729,-1.51035 6.35879,0.0502 5.729152,-1.1905 6.685726,-0.63066 19.305696,-10.79006 1.522405,-1.95292 1.701183,-1.65699 2.402335,-1.40654 3.472271,-3.97514 6.188904,-3.23852 2.44247,-3.94304 5.937251,-7.53906 4.90021,-10.37104 1.64197,-4.326981 2.71205,-22.622859 -0.40248,-8.730374 -1.23776,-4.062722 0.66941,-3.328113 -0.0351,-3.463728 0.80756,-2.765389 -0.83784,-3.155887"
       style="fill:none;stroke:#000000;stroke-width:1.04463;stroke-linecap:butt;stroke-linejoin:round;stroke-miterlimit:4;stroke-dasharray:1.04463, 1.04462999999999995;stroke-dashoffset:0;stroke-opacity:1" />
    <path
       style="fill:none;stroke:#000000;stroke-width:1.04463;stroke-linecap:butt;stroke-linejoin:round;stroke-miterlimit:4;stroke-dasharray:1.04463, 1.04462999999999995;stroke-dashoffset:0;stroke-opacity:1"
       d="m 33.571662,88.792511 3.171566,6.86724 0.146655,6.895029 4.356985,5.98041 0.985614,3.51738 6.652591,-0.36774 2.158582,-1.51704 1.543256,0.37516 2.839886,-1.67432 2.009692,1.04254 2.306626,-0.5446 4.384542,1.49396 1.826099,-1.71712 6.931307,-0.80845 4.887279,-2.18922 0.457995,-3.10848 2.801632,-0.85233 0.866945,-1.98415 0.535767,-7.15794 0.671621,-1.712266 1.411414,-3.313603 1.052199,0.08117 1.048511,-5.013062 0.998421,0.417474 1.657643,-6.780797 -2.540999,-14.39859 -3.284656,-5.408409 -3.003235,-1.519388 -2.562674,-3.039841 -7.979212,-3.233568 -2.402158,0.963167 -8.243554,-1.315662 -1.650623,-0.07816 -2.074573,1.449282 -4.928176,2.64513 -2.354689,3.293461 -3.647905,0.734646 -3.875099,3.169413 -5.780997,10.212043 -0.847808,6.734668 0.495309,5.388887 z"
       id="path14359-1-7-5-3-0-73-1-9-8-5-9-1-4"
       inkscape:connector-curvature="0"
       sodipodi:nodetypes="cccccccccccccccccccccccccccccccccccccccccc" />
    <path
       style="fill:none;stroke:#000000;stroke-width:1.04463;stroke-linecap:butt;stroke-linejoin:round;stroke-miterlimit:4;stroke-dasharray:1.04463, 1.04462999999999995;stroke-dashoffset:0;stroke-opacity:1"
       d="M 7.1124675,48.427044 C 5.9986673,50.783163 4.8575083,52.97506 3.5591751,54.223954"
       id="path14359-1-7-5-3-0-73-1-9-8-5-9-1-8"
       inkscape:connector-curvature="0"
       sodipodi:nodetypes="cc" />
    <path
       style="fill:none;stroke:#000000;stroke-width:1.03247;stroke-linecap:butt;stroke-linejoin:round;stroke-miterlimit:4;stroke-dasharray:1.03247, 1.03247000000000000;stroke-dashoffset:0;stroke-opacity:1"
       d="m 80.012446,59.561624 -2.016387,1.863549 0.81416,2.361574 1.667044,0.100002 0.323687,-2.029653 z"
       id="path14359-1-7-5-3-0-73-1-9-8-5-9-1-7"
       inkscape:connector-curvature="0"
       sodipodi:nodetypes="cccccc" />
    <g
       id="g182"
       sodipodi:insensitive="true">
      <text
         xml:space="preserve"
         style="font-style:normal;font-variant:normal;font-weight:normal;font-stretch:normal;font-size:8px;line-height:6.9200201px;font-family:STIXGeneral;-inkscape-font-specification:STIXGeneral;text-align:start;letter-spacing:-0.38px;word-spacing:0px;text-anchor:start;fill:#000000;fill-opacity:1;stroke:none;stroke-width:1.00079"
         x="100.64233"
         y="571.16772"
         id="text10278-9-3-8-5-1"
         transform="scale(0.99730847,1.0026988)"><tspan
           sodipodi:role="line"
           x="100.64233"
           y="571.16772"
           id="tspan10364-82-5-4"
           style="font-size:8px;stroke-width:1.00079">Miles</tspan></text>
      <text
         transform="scale(0.99730847,1.0026988)"
         id="text10278-9-3-8-5-1-9"
         y="571.50305"
         x="13.488716"
         style="font-style:normal;font-variant:normal;font-weight:normal;font-stretch:normal;font-size:8px;line-height:6.9200201px;font-family:STIXGeneral;-inkscape-font-specification:STIXGeneral;text-align:start;letter-spacing:0px;word-spacing:0px;text-anchor:start;fill:#000000;fill-opacity:1;stroke:none;stroke-width:1.00079"
         xml:space="preserve"><tspan
           style="font-size:8px;stroke-width:1.00079"
           id="tspan10364-82-5-4-4"
           y="571.50305"
           x="13.488716"
           sodipodi:role="line">0</tspan></text>
      <text
         transform="scale(0.99730847,1.0026988)"
         id="text10278-9-3-8-5-1-96"
         y="571.15314"
         x="49.739197"
         style="font-style:normal;font-variant:normal;font-weight:normal;font-stretch:normal;font-size:8px;line-height:6.9200201px;font-family:STIXGeneral;-inkscape-font-specification:STIXGeneral;text-align:start;letter-spacing:0px;word-spacing:0px;text-anchor:start;fill:#000000;fill-opacity:1;stroke:none;stroke-width:1.00079"
         xml:space="preserve"><tspan
           style="font-size:8px;stroke-width:1.00079"
           id="tspan10364-82-5-4-9"
           y="571.15314"
           x="49.739197"
           sodipodi:role="line">2.5</tspan></text>
      <text
         transform="scale(0.99730847,1.0026988)"
         id="text10278-9-3-8-5-1-4"
         y="571.31482"
         x="91.944557"
         style="font-style:normal;font-variant:normal;font-weight:normal;font-stretch:normal;font-size:8px;line-height:6.9200201px;font-family:STIXGeneral;-inkscape-font-specification:STIXGeneral;text-align:start;letter-spacing:0px;word-spacing:0px;text-anchor:start;fill:#000000;fill-opacity:1;stroke:none;stroke-width:1.00079"
         xml:space="preserve"><tspan
           style="font-size:8px;stroke-width:1.00079"
           id="tspan10364-82-5-4-44"
           y="571.31482"
           x="91.944557"
           sodipodi:role="line">5</tspan></text>
      <text
         transform="scale(0.99973647,1.0002636)"
         xml:space="preserve"
         style="font-style:italic;font-variant:normal;font-weight:normal;font-stretch:normal;font-size:6.66666985px;line-height:8.38000011px;font-family:Arial;-inkscape-font-specification:'Arial Italic';text-align:start;letter-spacing:0.30000001px;text-anchor:start;stroke-width:0.99973702"
         x="155.96103"
         y="296.8663"
         id="text9935-6"><tspan
           id="tspan16478"
           style="font-size:6.66666985px;text-align:start;text-anchor:start;stroke-width:0.99973702"
           sodipodi:role="line"
           x="155.96103"
           y="296.8663">Ipuu</tspan><tspan
           id="tspan5268"
           style="font-size:6.66666985px;text-align:start;text-anchor:start;stroke-width:0.99973702"
           sodipodi:role="line"
           x="155.96103"
           y="305.24631"> Ridge</tspan></text>
      <text
         xml:space="preserve"
         style="font-style:italic;font-variant:normal;font-weight:normal;font-stretch:normal;font-size:6.66666985px;line-height:7.87922001px;font-family:Arial;-inkscape-font-specification:'Arial Italic';text-align:start;letter-spacing:0.30000001px;text-anchor:start;stroke-width:0.99973702"
         x="-219.77231"
         y="280.99097"
         id="text9935-0-0-8"
         transform="matrix(0.46554641,-0.88473085,0.88514378,0.46587405,0,0)"><tspan
           style="font-style:italic;font-variant:normal;font-weight:normal;font-stretch:normal;font-size:6.66666985px;font-family:Arial;-inkscape-font-specification:'Arial Italic';stroke-width:0.99973702"
           sodipodi:role="line"
           x="-219.77231"
           y="280.99097"
           id="tspan9937-8-9-2">3000</tspan></text>
      <text
         transform="scale(0.99730847,1.0026988)"
         id="text10278-9-3-8-5-1-2"
         y="590.11914"
         x="71.028244"
         style="font-style:normal;font-variant:normal;font-weight:normal;font-stretch:normal;font-size:8px;line-height:6.9200201px;font-family:STIXGeneral;-inkscape-font-specification:STIXGeneral;text-align:start;letter-spacing:-0.38px;word-spacing:0px;text-anchor:start;fill:#000000;fill-opacity:1;stroke:none;stroke-width:1.00079"
         xml:space="preserve"><tspan
           style="font-size:8px;stroke-width:1.00079"
           id="tspan10364-82-5-4-43"
           y="590.11914"
           x="71.028244"
           sodipodi:role="line">Kilometers</tspan></text>
      <text
         xml:space="preserve"
         style="font-style:normal;font-variant:normal;font-weight:normal;font-stretch:normal;font-size:8px;line-height:6.9200201px;font-family:STIXGeneral;-inkscape-font-specification:STIXGeneral;text-align:start;letter-spacing:0px;word-spacing:0px;text-anchor:start;fill:#000000;fill-opacity:1;stroke:none;stroke-width:1.00079"
         x="13.534859"
         y="589.94696"
         id="text10278-9-3-8-5-1-9-3"
         transform="scale(0.99730847,1.0026988)"><tspan
           sodipodi:role="line"
           x="13.534859"
           y="589.94696"
           id="tspan10364-82-5-4-4-4"
           style="font-size:8px;stroke-width:1.00079">0</tspan></text>
      <text
         xml:space="preserve"
         style="font-style:normal;font-variant:normal;font-weight:normal;font-stretch:normal;font-size:8px;line-height:6.9200201px;font-family:STIXGeneral;-inkscape-font-specification:STIXGeneral;text-align:start;letter-spacing:0px;word-spacing:0px;text-anchor:start;fill:#000000;fill-opacity:1;stroke:none;stroke-width:1.00079"
         x="35.131638"
         y="589.94971"
         id="text10278-9-3-8-5-1-96-0"
         transform="scale(0.99730847,1.0026988)"><tspan
           sodipodi:role="line"
           x="35.131638"
           y="589.94971"
           id="tspan10364-82-5-4-9-9"
           style="font-size:8px;stroke-width:1.00079">2.5</tspan></text>
      <text
         xml:space="preserve"
         style="font-style:normal;font-variant:normal;font-weight:normal;font-stretch:normal;font-size:8px;line-height:6.9200201px;font-family:STIXGeneral;-inkscape-font-specification:STIXGeneral;text-align:start;letter-spacing:0px;word-spacing:0px;text-anchor:start;fill:#000000;fill-opacity:1;stroke:none;stroke-width:1.00079"
         x="62.261688"
         y="590.02686"
         id="text10278-9-3-8-5-1-4-2"
         transform="scale(0.99730847,1.0026988)"><tspan
           sodipodi:role="line"
           x="62.261688"
           y="590.02686"
           id="tspan10364-82-5-4-44-4"
           style="font-size:8px;stroke-width:1.00079">5</tspan></text>
      <text
         id="text9935-2-4"
         style="font-style:italic;font-variant:normal;font-weight:normal;font-stretch:normal;font-size:6.66666985px;line-height:9.77999973px;font-family:Arial;-inkscape-font-specification:'Arial Italic';text-align:start;letter-spacing:0.30000001px;text-anchor:start;stroke-width:0.99973702"
         xml:space="preserve"
         x="46.866627"
         y="329.24283"><tspan
           id="tspan21850"
           style="font-size:6.66666985px;stroke-width:0.99973702">Puu lki</tspan></text>
      <text
         transform="matrix(0.85750602,-0.51397037,0.51415293,0.85800054,0,0)"
         id="text9935-0-0-8-9"
         y="232.9257"
         x="-49.771057"
         style="font-style:italic;font-variant:normal;font-weight:normal;font-stretch:normal;font-size:6.66666985px;line-height:7.87922001px;font-family:Arial;-inkscape-font-specification:'Arial Italic';text-align:start;letter-spacing:0.30000001px;text-anchor:start;stroke-width:0.99973702"
         xml:space="preserve"><tspan
           id="tspan9937-8-9-2-0"
           y="232.9257"
           x="-49.771057"
           sodipodi:role="line"
           style="font-style:italic;font-variant:normal;font-weight:normal;font-stretch:normal;font-size:6.66666985px;font-family:Arial;-inkscape-font-specification:'Arial Italic';stroke-width:0.99973702">8000</tspan></text>
      <text
         transform="translate(-0.1357704,-0.05228965)"
         y="-3.5070307"
         x="457.5043"
         xml:space="preserve"
         style="font-style:italic;font-variant:normal;font-weight:normal;font-stretch:normal;font-size:6.66666985px;line-height:7.87922001px;font-family:Arial;-inkscape-font-specification:'Arial Italic';text-align:start;letter-spacing:0.50999999px;text-anchor:start;stroke-width:0.99973702"
         id="text9935-2-2-3"><textPath
           id="textPath5272"
           xlink:href="#path5270"><tspan
   id="tspan16861-0-7"
   style="font-size:6.66666985px;stroke-width:0.99973702">Hawaii Belt Rd</tspan></textPath></text>
      <text
         id="text9935-6-4"
         y="118.14856"
         x="124.08127"
         style="font-style:italic;font-variant:normal;font-weight:normal;font-stretch:normal;font-size:6.66666985px;line-height:8.38000011px;font-family:Arial;-inkscape-font-specification:'Arial Italic';text-align:start;letter-spacing:0.30000001px;text-anchor:start;stroke-width:0.99973702"
         xml:space="preserve"
         transform="scale(0.99973647,1.0002636)"><tspan
           id="tspan16476"
           y="118.14856"
           x="124.08127"
           sodipodi:role="line"
           style="font-size:6.66666985px;text-align:start;text-anchor:start;stroke-width:0.99973702">Puu Eleele</tspan></text>
      <text
         transform="matrix(0.84439479,-0.53523787,0.53543271,0.84488458,0,0)"
         id="text9935-0-0-8-3"
         y="208.77353"
         x="-19.5156"
         style="font-style:italic;font-variant:normal;font-weight:normal;font-stretch:normal;font-size:6.66666985px;line-height:7.87922001px;font-family:Arial;-inkscape-font-specification:'Arial Italic';text-align:start;letter-spacing:0.30000001px;text-anchor:start;stroke-width:0.99973702"
         xml:space="preserve"><tspan
           id="tspan9937-8-9-2-3"
           y="208.77353"
           x="-19.5156"
           sodipodi:role="line"
           style="font-style:italic;font-variant:normal;font-weight:normal;font-stretch:normal;font-size:6.66666985px;font-family:Arial;-inkscape-font-specification:'Arial Italic';stroke-width:0.99973702">9000</tspan></text>
      <text
         xml:space="preserve"
         style="font-style:italic;font-variant:normal;font-weight:normal;font-stretch:normal;font-size:6.66666985px;line-height:7.87922001px;font-family:Arial;-inkscape-font-specification:'Arial Italic';text-align:start;letter-spacing:0.40000001px;text-anchor:start;stroke-width:0.99973702"
         id="text9935-0-0-8-8-5"
         x="44.325089"
         y="84.7798"><tspan
           style="font-style:italic;font-variant:normal;font-weight:normal;font-stretch:normal;font-size:6.66666985px;font-family:Arial;-inkscape-font-specification:'Arial Italic';stroke-width:0.99973702"
           id="tspan9937-8-9-2-7-7">Mauna Loa</tspan></text>
      <text
         xml:space="preserve"
         style="font-style:normal;font-variant:normal;font-weight:bold;font-stretch:normal;font-size:13.33329964px;line-height:17.68000031px;font-family:STIXGeneral;-inkscape-font-specification:'STIXGeneral Bold';text-align:center;letter-spacing:0.2px;word-spacing:0.249934px;text-anchor:middle;fill:#000000;fill-opacity:1;stroke:none;stroke-width:1.00274003;stroke-opacity:1"
         x="111.23321"
         y="22.520348"
         id="text10278-3-3"
         transform="scale(0.9991093,1.0008915)"><tspan
           id="tspan11525"
           sodipodi:role="line"
           x="111.33321"
           y="22.520348"
           style="font-style:normal;font-variant:normal;font-weight:bold;font-stretch:normal;font-size:13.33329964px;font-family:STIXGeneral;-inkscape-font-specification:'STIXGeneral Bold';text-align:center;text-anchor:middle;fill:#000000;fill-opacity:1;stroke:none;stroke-width:1.00274003;stroke-opacity:1">Map 78</tspan><tspan
           id="tspan18610"
           sodipodi:role="line"
           x="113.22483"
           y="40.200348"
           style="font-style:italic;font-variant:normal;font-weight:bold;font-stretch:normal;font-size:13.33329964px;font-family:STIXGeneral;-inkscape-font-specification:'STIXGeneral Bold Italic';text-align:center;text-anchor:middle;fill:#000000;fill-opacity:1;stroke:none;stroke-width:1.00274003;stroke-opacity:1"><tspan
   id="tspan8124"
   style="font-style:normal;font-variant:normal;font-weight:bold;font-stretch:normal;font-size:13.33329964px;font-family:STIXGeneral;-inkscape-font-specification:'STIXGeneral Bold';text-align:center;text-anchor:middle;fill:#000000;fill-opacity:1;stroke:none;stroke-width:1.00274003;stroke-opacity:1"> Unit 24 - </tspan>Cyanea stictophylla -- c  </tspan></text>
      <text
         transform="matrix(0.81008332,-0.58587298,0.5860974,0.81056028,0,0)"
         id="text9935-0-0-8-0"
         y="323.99863"
         x="-69.804703"
         style="font-style:italic;font-variant:normal;font-weight:normal;font-stretch:normal;font-size:6.66666985px;line-height:7.87922001px;font-family:Arial;-inkscape-font-specification:'Arial Italic';text-align:start;letter-spacing:0.30000001px;text-anchor:start;stroke-width:0.99973702"
         xml:space="preserve"><tspan
           id="tspan9937-8-9-2-36"
           y="323.99863"
           x="-69.804703"
           sodipodi:role="line"
           style="font-style:italic;font-variant:normal;font-weight:normal;font-stretch:normal;font-size:6.66666985px;font-family:Arial;-inkscape-font-specification:'Arial Italic';stroke-width:0.99973702">4000</tspan></text>
      <text
         transform="matrix(0.62755912,-0.77823626,0.77857819,0.62796031,0,0)"
         id="text9935-0-0-8-6"
         y="272.99643"
         x="-136.08713"
         style="font-style:italic;font-variant:normal;font-weight:normal;font-stretch:normal;font-size:6.66666985px;line-height:7.87922001px;font-family:Arial;-inkscape-font-specification:'Arial Italic';text-align:start;letter-spacing:0.30000001px;text-anchor:start;stroke-width:0.99973702"
         xml:space="preserve"><tspan
           id="tspan9937-8-9-2-1"
           y="272.99643"
           x="-136.08713"
           sodipodi:role="line"
           style="font-style:italic;font-variant:normal;font-weight:normal;font-stretch:normal;font-size:6.66666985px;font-family:Arial;-inkscape-font-specification:'Arial Italic';stroke-width:0.99973702">5000</tspan></text>
    </g>
    <path
       style="fill:none;stroke:none;stroke-width:0.498813;stroke-linecap:butt;stroke-linejoin:miter;stroke-miterlimit:4;stroke-dasharray:none;stroke-opacity:1"
       d="m 182.69615,349.37275 3.97122,-11.22388 5.37224,-6.19961 4.59211,-3.15431 6.12461,-8.57014 6.51501,-13.09833"
       id="path5270"
       sodipodi:nodetypes="cccccc"
       sodipodi:insensitive="true"
       inkscape:connector-curvature="0" />
  </g>
</svg>
