<?xml version="1.0" encoding="UTF-8" standalone="no"?>
<svg
   xmlns:dc="http://purl.org/dc/elements/1.1/"
   xmlns:cc="http://creativecommons.org/ns#"
   xmlns:rdf="http://www.w3.org/1999/02/22-rdf-syntax-ns#"
   xmlns:svg="http://www.w3.org/2000/svg"
   xmlns="http://www.w3.org/2000/svg"
   xmlns:xlink="http://www.w3.org/1999/xlink"
   xmlns:sodipodi="http://sodipodi.sourceforge.net/DTD/sodipodi-0.dtd"
   xmlns:inkscape="http://www.inkscape.org/namespaces/inkscape"
   inkscape:version="0.92.2 5c3e80d, 2017-08-06"
   sodipodi:docname="er02se05.067.svg"
   viewBox="0 0 644.47998 853.12"
   height="853.12"
   width="644.47998"
   id="svg19662"
   version="1.1">
  <metadata
     id="metadata19668">
    <rdf:RDF>
      <cc:Work
         rdf:about="">
        <dc:format>image/svg+xml</dc:format>
        <dc:type
           rdf:resource="http://purl.org/dc/dcmitype/StillImage" />
        <dc:title></dc:title>
      </cc:Work>
    </rdf:RDF>
  </metadata>
  <defs
     id="defs19666" />
  <sodipodi:namedview
     inkscape:snap-global="true"
     inkscape:current-layer="g19670"
     inkscape:window-maximized="0"
     inkscape:window-y="0"
     inkscape:window-x="8"
     inkscape:cy="182.69548"
     inkscape:cx="292.07856"
     inkscape:zoom="1.1854575"
     inkscape:document-rotation="0"
     showgrid="false"
     id="namedview19664"
     inkscape:window-height="756"
     inkscape:window-width="1280"
     inkscape:pageshadow="2"
     inkscape:pageopacity="0"
     guidetolerance="10"
     gridtolerance="10"
     objecttolerance="10"
     borderopacity="1"
     bordercolor="#666666"
     pagecolor="#ffffff" />
  <g
     id="g19670"
     inkscape:label="Image"
     inkscape:groupmode="layer">
    <path
       id="path2533"
       d="m 167.90184,86.659014 c 4.83866,4.336853 10.50331,5.083569 16.58017,2.652827 1.68365,-0.67346 3.26757,-2.068356 5.08458,-2.431758 0.68563,-0.137126 1.43527,-0.109973 2.10016,-0.331603 0.91587,-0.30529 1.76922,-0.795982 2.76336,-0.994811 3.40974,-0.681947 6.83054,-1.265497 10.16917,-2.100154 1.8792,-0.469801 3.3117,-1.803952 5.19512,-2.431758 0.47807,-0.159358 1.03926,-0.119425 1.54748,-0.221069 2.05248,-0.410495 6.41536,2.599738 8.29009,3.537102 0.44399,0.221999 0.84121,0.722543 1.32641,0.884276 1.20882,0.402942 3.82044,-0.0794 4.64245,0.331603"
       style="fill:none;stroke:#000000;stroke-width:2;stroke-linecap:round;stroke-linejoin:round;stroke-opacity:1;stroke-miterlimit:4;stroke-dasharray:none" />
    <path
       inkscape:transform-center-y="-0.16407845"
       inkscape:transform-center-x="0.033659926"
       sodipodi:nodetypes="ccccc"
       inkscape:connector-curvature="0"
       id="path14359-1-7-5-3-0-73-1-9-19"
       d="M 1.9159478,3.7694524 0.92514954,852.00982 642.72591,851.77891 643.41817,0.95514028 Z"
       style="fill:none;stroke:#000000;stroke-width:0.999786;stroke-linecap:butt;stroke-linejoin:miter;stroke-miterlimit:4;stroke-dasharray:none;stroke-opacity:1" />
    <path
       inkscape:transform-center-y="-0.17851406"
       inkscape:transform-center-x="0.03001258"
       sodipodi:nodetypes="ccccc"
       inkscape:connector-curvature="0"
       id="path14359-1-7-5-3-0-73-1-9-19-7"
       d="m 616.46546,654.95594 -0.73587,163.97104 -149.95171,0.0423 0.33248,-163.76587 z"
       style="fill:none;stroke:#000000;stroke-width:0.999445;stroke-linecap:butt;stroke-linejoin:miter;stroke-miterlimit:4;stroke-dasharray:none;stroke-opacity:1" />
    <path
       sodipodi:nodetypes="sssss"
       d="m 150.44607,546.7875 c 0,1.55426 -1.27143,2.81419 -2.83982,2.81419 -1.56837,0 -2.8398,-1.25993 -2.8398,-2.81419 0,-1.55426 1.27143,-2.81419 2.8398,-2.81419 1.56839,0 2.83982,1.25993 2.83982,2.81419 z"
       style="fill:none;stroke:#000000;stroke-width:0.499723;stroke-linecap:round;stroke-linejoin:round;stroke-miterlimit:4;stroke-dasharray:none"
       id="path7266" />
    <path
       sodipodi:nodetypes="ccccc"
       id="path7266-2"
       style="fill:#000000;fill-opacity:1;stroke:#000000;stroke-width:0.499723;stroke-linecap:round;stroke-linejoin:round;stroke-miterlimit:4;stroke-dasharray:none"
       d="m 147.57128,549.56866 c 1.56837,0 2.83979,-1.25993 2.83979,-2.81422 h -5.67963 c 0,-1.55422 1.27141,-2.81418 2.83984,-2.81418 z" />
    <path
       sodipodi:nodetypes="cc"
       inkscape:connector-curvature="0"
       id="path14359-1-7-5-3-0-73-1-9-8-5"
       d="m 147.56939,539.59194 -0.001,10.04355"
       style="fill:none;stroke:#000000;stroke-width:0.499723;stroke-linecap:round;stroke-linejoin:round;stroke-miterlimit:4;stroke-dasharray:none;stroke-opacity:1" />
    <path
       style="fill:none;stroke:#000000;stroke-width:0.499723;stroke-linecap:round;stroke-linejoin:round;stroke-miterlimit:4;stroke-dasharray:none;stroke-opacity:1"
       d="m 149.97503,540.57221 -2.40375,-0.97727 -2.40376,0.97727 2.40561,-20.1888 z"
       id="path14359-1-7-5-3-0-73-1-9-8-5-7"
       inkscape:connector-curvature="0"
       sodipodi:nodetypes="ccccc" />
    <path
       sodipodi:nodetypes="cccc"
       inkscape:connector-curvature="0"
       id="path14359-1-7-5-3-0-73-1-9-8-5-7-5"
       d="m 147.57313,520.38341 2.4019,20.1888 -2.40375,-0.97727 z"
       style="fill:#000000;fill-opacity:1;stroke:#000000;stroke-width:0.499723;stroke-linecap:round;stroke-linejoin:round;stroke-miterlimit:4;stroke-dasharray:none;stroke-opacity:1" />
    <path
       sodipodi:nodetypes="ccccc"
       inkscape:connector-curvature="0"
       id="path14359-1-7-5-3-0-73-1-9-8-5-7-0"
       d="m 144.82083,575.29088 2.74856,-0.97732 2.71027,0.97732 -2.71213,-25.65539 z"
       style="fill:none;stroke:#000000;stroke-width:0.499723;stroke-linecap:round;stroke-linejoin:round;stroke-miterlimit:4;stroke-dasharray:none;stroke-opacity:1" />
    <path
       style="fill:#000000;fill-opacity:1;stroke:#000000;stroke-width:0.499723;stroke-linecap:round;stroke-linejoin:round;stroke-miterlimit:4;stroke-dasharray:none;stroke-opacity:1"
       d="m 147.56753,549.63549 -2.7467,25.65539 2.74856,-0.97732 z"
       id="path14359-1-7-5-3-0-73-1-9-8-5-7-5-5"
       inkscape:connector-curvature="0"
       sodipodi:nodetypes="cccc" />
    <path
       sodipodi:nodetypes="ccccc"
       inkscape:connector-curvature="0"
       id="path14359-1-7-5-3-0-73-1-9-8-5-3"
       d="m 66.518059,587.5161 -0.0444,6.21643 147.249671,-0.10572 -0.13134,-6.21633 z"
       style="fill:none;stroke:#000000;stroke-width:1;stroke-linecap:round;stroke-linejoin:round;stroke-miterlimit:4;stroke-dasharray:none;stroke-opacity:1" />
    <path
       sodipodi:nodetypes="ccccc"
       inkscape:connector-curvature="0"
       id="path14359-1-7-5-3-0-73-1-9-8-5-0-0-5"
       d="m 125.94923,587.5161 -8.9e-4,3.27648 29.09958,0.015 8.9e-4,-3.32009 z"
       style="fill:#000000;fill-opacity:1;stroke:#000000;stroke-width:1;stroke-linecap:round;stroke-linejoin:round;stroke-miterlimit:4;stroke-dasharray:none;stroke-opacity:1" />
    <path
       sodipodi:nodetypes="cccccccscssscssssscsssssssssssssscssssssscsssssssssscscssscssscsscsscssssssssssssssssssscssscccsssssssssscssscsssccsssssssscscsssccccsssscccsscssccsscsscssssssssccssscssssccscsssscssssssssssscc"
       inkscape:connector-curvature="0"
       id="path14359-1-7-5-3-0-73-1-9-8-5-0-0-6"
       d="m 597.73582,770.5504 -66.66562,-54.79052 -1.23338,-44.21756 -46.46092,0.0698 c -0.14425,0.65054 -0.003,1.35611 -0.21845,1.99287 -0.0565,0.16919 -0.42661,0.52205 -0.41119,0.65657 0.006,0.0732 0.0426,0.14289 0.0795,0.20661 0.338,0.58175 0.82432,1.11281 1.08275,1.73801 0.76908,1.86078 0.98336,4.0068 0.68372,6.02099 -0.0581,0.38882 -0.20359,1.03978 -0.45731,1.35682 -0.29187,0.36464 -0.49182,0.15425 -0.57596,0.94395 -0.0285,0.26961 0.12082,0.44973 0.15699,0.70162 0.0435,0.30122 -0.0145,0.61194 0.0333,0.90683 0.0285,0.1852 0.17916,0.36523 0.1985,0.57821 0.0432,0.47621 -0.25874,0.91455 -0.21369,1.35843 0.0571,0.5598 0.74203,0.36122 0.52079,0.91008 -0.10252,0.25439 -0.39782,0.0747 -0.56975,0.16101 -0.34977,0.17443 -0.14789,0.1915 -0.40933,0.40939 -0.0333,0.0275 -0.15209,0.0109 -0.12211,0.04 0.10961,0.11281 -0.29682,0.4436 -0.20823,0.65793 0.0493,0.11946 0.45433,0.58657 0.36031,0.66175 -0.38135,0.30513 -0.76972,-0.0478 -1.18049,0.36297 -0.18139,0.1814 -0.29072,0.51766 -0.41189,0.73898 -0.59239,1.08253 -1.0378,2.0876 -0.87916,3.37324 0.0505,0.40806 0.23418,0.79694 0.31546,1.19712 0.0467,0.22983 0.0356,0.47705 0.11621,0.70134 0.26946,0.74692 1.06519,0.9307 1.57233,1.45283 0.51062,0.52586 0.66421,1.2955 1.12234,1.86195 0.33233,0.41074 0.86767,0.22875 1.2539,0.62654 0.38205,0.3933 0.17452,1.07274 0.47567,1.48672 0.0962,0.13179 0.35461,0.22567 0.4847,0.33289 0.11086,0.0913 0.14442,0.23176 0.24103,0.33129 0.10643,0.10948 0.38603,0.17059 0.44444,0.29143 0.12299,0.25446 0.19749,0.70511 0.19525,0.99032 0.10503,0.13392 -0.12233,0.52957 0.0362,0.65959 0.0965,0.0794 0.30757,0.11429 0.36348,0.2496 0.12857,0.31114 0.1442,2.71348 0.0586,2.92626 -0.0987,0.24449 -0.49795,0.15841 -0.57196,0.44944 -0.1391,0.54605 -0.0726,1.57574 0.0643,2.10201 0.17177,0.65959 0.33065,1.43804 0.63352,2.06467 0.12124,0.25099 0.36432,0.29321 0.48312,0.53902 0.12222,0.25298 0.0322,0.5642 0.11532,0.82495 0.0645,0.20101 0.28236,0.2495 0.32129,0.45539 0.14291,0.75625 -0.29863,0.64445 -0.41381,0.98624 -0.11749,0.34855 0.0942,0.96125 0.23362,1.27904 0.34058,0.77627 1.08918,1.23972 1.60967,1.86515 0.16902,0.2032 0.17859,0.46763 0.31965,0.66148 0.0596,0.0806 0.6872,0.15551 1.05125,0.58401 0.27904,0.32845 0.23327,0.86807 0.51845,1.19851 0.26119,0.30266 0.54776,0.56759 0.80537,0.87074 0.25017,0.2946 0.36214,0.74611 0.68252,0.99361 0.54001,0.41716 1.01551,0.37066 1.41379,0.95727 0.51238,0.75486 1.00366,1.61506 1.64702,2.27753 0.012,0.74769 0.67961,1.36795 0.6738,2.10618 -0.004,0.49163 -0.43718,0.97091 -0.49856,1.43894 -0.004,0.0299 -0.13509,1.23902 0.0324,1.07166 0.33037,-0.33044 1.13351,-1.12383 1.62716,-0.36001 0.11521,0.17841 0.22862,0.45748 0.36064,0.62056 0.0603,0.0747 0.44273,0.33741 0.48432,0.37415 0.67665,0.59715 1.42893,1.25564 2.34409,1.41683 0.16465,0.0289 0.57462,0.0996 0.60938,-0.0378 0.24649,-0.96802 -0.46144,-3.80707 0.76287,-4.07459 0.42275,-0.0926 1.4905,0 1.86625,0.21864 0.31606,0.1811 0.32202,0.52458 0.72573,0.66416 0.26936,0.0926 0.28214,0.0856 0.53988,0.20669 0.28068,0.13191 0.3448,0.0737 0.32423,0.0836 -0.5287,0.26373 -1.17471,-0.20719 -1.72033,0.15631 -0.27832,0.18538 -0.27243,0.64604 -0.53437,0.82057 -0.66758,0.44473 -0.82887,-0.0478 -0.93392,0 -0.14405,0.0577 -0.27955,0.34288 -0.20692,0.49312 0.0776,0.16108 0.50926,0.42671 0.64489,0.62244 0.0645,0.0926 0.12338,0.30516 0.19974,0.41338 0.39392,0.55843 1.18667,0.36249 1.5672,0.93168 0.26455,0.39565 0.4354,1.76141 0.64156,2.215 0.28659,0.63061 0.39434,1.28831 0.79754,1.85978 0.11979,0.16975 0.86945,0.94592 0.80372,1.07684 -0.15594,0.31052 -0.67595,-0.16059 -0.81016,-0.25279 -0.59035,-0.4054 -1.25084,-0.8573 -1.89937,-1.16644 -0.2609,-0.12455 -0.89391,-0.19902 -1.05218,-0.46056 -0.40131,-0.66257 0.23935,-2.14263 -0.13951,-2.92666 -0.088,-0.18209 -0.2779,-0.28603 -0.40283,-0.41477 -0.22735,-0.23416 -0.20391,-0.61657 -0.76893,-0.33481 -0.13522,0.0667 -0.22445,0.22102 -0.24647,0.36926 -0.16321,1.09705 -0.0213,2.52713 -0.0269,3.62617 -7.7e-4,0.16646 -0.0695,0.42114 -0.045,0.57655 0.0472,0.30166 0.3487,0.48774 0.48143,0.745 0.17088,0.33124 0.35062,0.74869 0.43795,1.11557 0.0942,0.39714 0.16026,0.83272 0.19335,1.23753 0.0311,0.38042 -0.1648,0.96254 -0.0512,1.31837 0.0651,0.2036 0.96992,0.93158 1.16848,1.16166 0.72332,0.8382 1.17508,1.99249 2.21356,2.52862 0.56559,0.29191 2.04027,0.25726 2.71807,0.34786 0.74945,0.10016 1.28696,1.58649 1.28319,2.06895 -0.21885,0.32208 -0.07,0.7017 -0.0893,1.07097 -0.0167,0.31311 0.1625,1.23792 -0.0529,1.52426 -0.32259,0.4299 -1.51711,-0.16776 -1.75021,0.52398 -0.15903,0.47191 0.28663,1.20418 0.39313,1.6511 0.23167,0.9728 0.19171,2.10957 0.82979,2.93124 0.31165,0.40152 0.81887,0.65331 1.21076,0.95597 0.59534,0.45987 0.97024,1.12951 1.5303,1.61735 0.47038,0.40979 1.05596,0.70568 1.45252,1.20497 0.27767,0.34946 0.62943,0.80395 0.55842,1.28114 -0.0213,0.14386 -0.1078,0.15043 -0.0436,0.32944 0.12567,0.34836 1.58346,1.39214 1.93251,2.11465 0.12348,0.25527 0.14842,1.1303 0.2343,1.19651 0.33287,0.25706 1.03518,-0.0647 1.41988,0.17443 0.15272,0.0946 0.4586,0.65012 0.60268,0.82823 0.14184,0.17523 0.53462,0.32049 0.60487,0.53972 0.0592,0.18408 0.0555,0.48535 0.15726,0.66028 0.17923,0.30863 0.67748,0.11618 1.13245,0.58461 0.28941,0.28345 1.85919,1.67957 1.77015,2.11336 -0.0918,0.44652 -0.8293,0.48017 -0.61747,1.06738 0.15372,0.42601 0.61818,1.0837 1.04574,1.28432 0.35912,0.16865 0.73047,0.0707 1.09507,0.17234 0.47698,0.1354 1.13782,0.71264 1.20842,1.24429 0.0581,0.43687 -0.29644,0.70409 -0.33387,1.15171 -0.0179,0.21435 0.15737,0.76183 0.0335,0.94771 -0.07,0.10504 -0.14734,0.0687 -0.12374,0.24681 0.0432,0.32317 0.51436,0.64992 0.68313,0.91097 0.26833,0.41506 -0.25748,0.74959 -0.21237,1.19362 0.0305,0.30147 0.49099,0.37474 0.3989,0.90928 -0.0667,0.38749 -0.78647,1.53551 -0.58296,1.85052 0.11269,0.17473 1.14066,0.41407 1.45565,0.79279 0.23864,0.28654 0.95244,1.3111 0.96481,1.24251 0,0 0.90366,-0.29082 1.3429,-0.3617 0.28968,-0.0458 0.60694,0.0229 0.89295,0.0448 0.55909,0.0478 1.18284,0.01 1.74611,0.0109 0.16473,0.01 0.32607,-0.11041 0.48788,-0.0816 0.49117,0.0926 1.19717,0.29251 1.66095,0.50547 0.1437,0.0657 0.25476,0.19842 0.4041,0.24999 0.25037,0.0866 0.63237,-0.0159 0.89333,0 0.3073,0.0269 0.42764,0.17453 0.68832,0.25199 0.62434,0.18568 1.72949,-0.64903 2.39739,-0.18996 0.88664,0.18299 1.77341,0.49162 2.46846,1.08789 0.32856,0.28215 0.66277,0.50307 1.00934,0.74849 0.54935,0.38918 1.0392,0.98454 1.53167,1.45267 0.34627,0.32885 0.55841,0.81679 0.92523,1.11886 0.33777,0.27817 0.86815,0.12046 1.25713,0.21445 0.28499,0.0687 0.45222,0.3841 0.72769,0.41715 0.26966,0.0329 0.79906,-0.0647 0.97494,-0.0328 0.38869,0.0687 0.66309,0.57147 1.0925,0.50168 0.2375,-0.0368 0.16102,-0.34249 0.28774,-0.4513 0.13018,-0.11201 0.82627,0.0776 1.01484,0.0478 0.79966,-0.11897 1.72642,-0.24013 2.47559,0.1815 1.90162,1.06997 0.83832,3.54552 2.11858,4.29989 0.92664,0.54556 0.83466,-0.89524 1.59,-0.8137 0.22959,0.0229 0.31997,0.19762 0.52595,0.25069 0.32778,0.0896 0.64788,0.0279 0.97294,0.21296 0.58464,0.32894 0.83803,1.09434 1.45079,1.41044 0.69639,0.35961 0.95331,-0.1812 1.78145,0.67153 0.54222,0.40859 1.42155,1.54387 2.09795,1.74478 0.78572,0.23367 1.0092,0.23009 1.73985,0.79499 0.47282,0.36528 0.76442,0.90111 1.12629,1.36735 0.98721,1.27178 2.0347,2.37669 2.44564,4.01395 0.20857,0.83043 0.4659,1.85659 0.50654,2.72306 0.023,0.49382 -0.1166,1.31628 0.14857,1.77256 0.0855,0.14655 0.52316,0.5437 0.56718,0.16876 0.0755,-0.64356 -0.536,-1.46871 0.32844,-0.45121 0.13919,0.16408 0.28899,0.31053 0.40214,0.4971 0.0693,0.1143 0.19221,0.28893 0.24038,0.41367 0.15452,0.40123 -0.21925,1.02248 0.1924,1.36168 0.52573,0.43259 2.75768,-0.10404 3.49304,-0.10025 l 27.24013,-4.22631 c 1.16648,-0.0906 2.3353,-1.43904 2.4567,-2.5798 0.0478,-0.44991 -0.10099,-0.78025 -0.23426,-1.19621 -0.0503,-0.1576 -0.0876,-0.34876 -0.15856,-0.4962 -0.12005,-0.24821 -1.408,-0.26414 -1.70279,-0.3407 -0.1571,-0.0428 -0.62989,0.0289 -0.72992,-0.12893 -0.55694,-0.86199 -0.12045,-1.8086 -0.26295,-2.72156 -0.0394,-0.25458 -0.1568,-0.66795 -0.31802,-0.86757 -0.062,-0.0767 -0.15971,-0.34736 -0.16051,-0.248 1.3e-4,0.0229 -0.0251,0.0936 -9e-4,0.0826 0.20591,-0.10175 0.52317,-0.57566 0.29034,-0.78095 -0.0623,-0.1823 -0.25815,-0.0876 -0.36414,-0.16746 -0.0536,-0.0428 -0.0366,-0.14934 0.003,-0.20619 0.14938,-0.22351 0.50146,-0.37892 0.69481,-0.57217 0.21836,-0.21843 1.08191,-1.11148 1.18857,-1.39324 0.2078,-0.54885 -0.21368,-1.1025 -0.14965,-1.64929 0.0449,-0.3829 0.37648,-0.55365 0.49439,-0.9031 0.25178,-0.7472 -0.29962,-1.49967 -0.51262,-1.94052 -0.12147,-0.64067 -0.28188,-1.50654 0.17822,-2.01798 0.22414,-0.2489 0.80159,-0.40521 0.85852,-0.73574 0.12621,-0.73266 -0.18637,-1.20348 0.50213,-1.89234 0.77689,-0.77706 2.77951,-1.12861 2.49764,-2.62071 -0.16622,-0.87891 -0.82095,-0.6326 -1.41318,-1.0395 -0.26631,-0.18319 -0.31217,-0.53464 -0.4811,-0.78632 -0.2345,-0.34946 -0.38533,-0.1128 -0.64742,-0.29281 -0.31205,-0.21435 -0.47023,-1.1072 -0.76055,-1.40618 -0.23929,-0.24641 -0.5512,-0.31441 -0.64418,-0.70488 -0.0988,-0.41517 -0.0826,-0.77936 -0.35635,-1.15599 -0.41941,-0.57655 -1.17825,-0.84317 -1.57236,-1.45298 -0.66765,-1.03313 -0.19346,-3.47633 -1.70288,-3.84808 z"
       style="fill:none;stroke:#000000;stroke-width:1;stroke-linecap:round;stroke-linejoin:round;stroke-miterlimit:4;stroke-dasharray:none;stroke-opacity:1" />
    <text
       id="text10939-1-2"
       y="584.8526"
       x="65.312172"
       style="font-size:5.33333px;line-height:1.87086px;font-family:Arial;-inkscape-font-specification:'Arial, Normal';letter-spacing:0px;stroke-width:0.999786"
       xml:space="preserve"
       transform="scale(1.0002185,0.99978155)"><tspan
         y="584.8526"
         x="65.312172"
         id="tspan10937-8-8"
         sodipodi:role="line"
         style="font-size:5.33333px;stroke-width:0.999786">0</tspan></text>
    <text
       xml:space="preserve"
       style="font-size:5.33333px;line-height:1.87086px;font-family:Arial;-inkscape-font-specification:'Arial, Normal';letter-spacing:0px;stroke-width:0.999786"
       x="183.00264"
       y="584.49011"
       id="text10939-1-2-2"
       transform="scale(1.0002185,0.99978155)"><tspan
         sodipodi:role="line"
         id="tspan10937-8-8-8"
         x="183.00264"
         y="584.49011"
         style="font-size:5.33333px;stroke-width:0.999786">8</tspan></text>
    <text
       xml:space="preserve"
       style="font-size:5.33333px;line-height:1.87086px;font-family:Arial;-inkscape-font-specification:'Arial, Normal';letter-spacing:0px;stroke-width:0.999786"
       x="94.841293"
       y="584.75873"
       id="text10939-1-2-4"
       transform="scale(1.0002185,0.99978155)"><tspan
         sodipodi:role="line"
         id="tspan10937-8-8-6"
         x="94.841293"
         y="584.75873"
         style="font-size:5.33333px;stroke-width:0.999786">2</tspan></text>
    <text
       xml:space="preserve"
       style="font-size:5.33333px;line-height:1.87086px;font-family:Arial;-inkscape-font-specification:'Arial, Normal';letter-spacing:0.21px;fill:#000000;fill-opacity:1;stroke-width:0.999786"
       x="215.56319"
       y="593.17963"
       id="text10939-1-2-11"
       transform="scale(1.0002185,0.99978155)"><tspan
         sodipodi:role="line"
         id="tspan10937-8-8-63"
         x="215.56319"
         y="593.17963"
         style="font-size:5.33333px;stroke-width:0.999786">Miles</tspan></text>
    <text
       id="text7987-7-7-3-6-7-9-5-4"
       y="515.88757"
       x="143.31801"
       style="font-size:11.9934px;line-height:11.7835px;font-family:Arial;-inkscape-font-specification:'Arial, Normal';letter-spacing:0.0999786px;fill:#000000;fill-opacity:1;stroke-width:0.999786"
       xml:space="preserve"
       transform="scale(1.0002185,0.99978155)"><tspan
         y="515.88757"
         x="143.31801"
         id="tspan7985-95-3-8-4-0-5-9-2"
         sodipodi:role="line"
         style="font-size:11.9934px;stroke-width:0.999786">N</tspan></text>
    <text
       id="text7987-7-7-3-6-7-9-5-43"
       y="680.33832"
       x="535.39661"
       style="font-style:normal;font-variant:normal;font-weight:bold;font-stretch:normal;font-size:10.6608px;line-height:2.80024px;font-family:Arial;-inkscape-font-specification:'Arial Bold';letter-spacing:0.329816px;fill:#000000;fill-opacity:1;stroke-width:0.945014"
       xml:space="preserve"
       transform="scale(1.0002185,0.99978155)"><tspan
         y="680.33832"
         x="535.39661"
         id="tspan7985-95-3-8-4-0-5-9-9"
         sodipodi:role="line"
         style="font-size:10.6608px;stroke-width:0.945014">Area of Detail</tspan></text>
    <text
       id="text7987-7-3"
       y="33.143742"
       x="367.9567"
       style="font-style:normal;font-variant:normal;font-weight:bold;font-stretch:normal;font-size:13.3276px;line-height:14.5219px;font-family:Arial;-inkscape-font-specification:'Arial Bold';letter-spacing:0.45px;fill:#000000;fill-opacity:1;stroke-width:0.999786"
       xml:space="preserve"
       transform="scale(1.0002185,0.99978155)"><tspan
         y="33.143742"
         x="367.9567"
         id="tspan7985-95-6"
         sodipodi:role="line"
         style="font-style:normal;font-variant:normal;font-weight:bold;font-stretch:normal;font-size:13.3276px;font-family:Arial;-inkscape-font-specification:'Arial Bold';stroke-width:0.999786">North Diablo Range Hydrologic Unit</tspan><tspan
         id="tspan11323"
         y="47.665642"
         x="367.9567"
         sodipodi:role="line"
         style="font-style:normal;font-variant:normal;font-weight:bold;font-stretch:normal;font-size:13.3276px;font-family:Arial;-inkscape-font-specification:'Arial Bold';stroke-width:0.999786">5543</tspan></text>
    <text
       xml:space="preserve"
       style="font-style:normal;font-variant:normal;font-weight:bold;font-stretch:normal;font-size:15.9965px;line-height:17.9761px;font-family:Arial;-inkscape-font-specification:'Arial Bold';letter-spacing:-0.00999445px;fill:#000000;fill-opacity:1;stroke-width:0.999786"
       x="25.174631"
       y="30.045162"
       id="text7987-7-3-3"
       transform="scale(1.0002185,0.99978155)"><tspan
         sodipodi:role="line"
         x="25.174631"
         y="30.045162"
         id="tspan11323-5"
         style="stroke-width:0.999786">Critical Habitat for the</tspan><tspan
         id="tspan11348"
         sodipodi:role="line"
         x="25.174631"
         y="48.021263"
         style="stroke-width:0.999786">California Central Valley Steelhead</tspan></text>
    <path
       sodipodi:nodetypes="ccccc"
       inkscape:connector-curvature="0"
       id="path14359-1-7-5-3-0-73-1-9-8-5-0-1-2"
       d="m 96.535873,593.70316 -0.12686,-2.94857 29.541397,0.0374 0.13044,2.94855 z"
       style="fill:#000000;fill-opacity:1;stroke:#000000;stroke-width:1;stroke-linecap:round;stroke-linejoin:round;stroke-miterlimit:4;stroke-dasharray:none;stroke-opacity:1" />
    <path
       style="fill:none;stroke:#000000;stroke-width:0.999786;stroke-linecap:butt;stroke-linejoin:miter;stroke-miterlimit:4;stroke-dasharray:none;stroke-opacity:1"
       d="m 24.20654,674.80003 -0.39954,135.58162 424.62187,-0.3645 0.50249,-136.045 z"
       id="path14359-1-7-5-3-0-73-1-9-19-0-4"
       inkscape:connector-curvature="0"
       sodipodi:nodetypes="ccccc"
       inkscape:transform-center-x="0.033661407"
       inkscape:transform-center-y="-0.16406786" />
    <path
       style="fill:none;stroke:#000000;stroke-width:2;stroke-linecap:round;stroke-linejoin:round;stroke-miterlimit:4;stroke-dasharray:none;stroke-opacity:1"
       d="m 45.63999,709.50827 40.05373,0.336"
       id="path14359-1-7-5-3-0-73-1-9-8-5-1-5"
       inkscape:connector-curvature="0"
       sodipodi:nodetypes="cc" />
    <path
       style="fill:none;stroke:#7c7c7c;stroke-width:3;stroke-linecap:butt;stroke-linejoin:round;stroke-miterlimit:4;stroke-dasharray:6, 6;stroke-dashoffset:4.2;stroke-opacity:1"
       d="m 43.93947,747.12677 -0.002,-19.5739 h 40.1522 l 0.002,19.5739 z"
       id="path14359-1-7-5-3-0-73-1-9-8-5-1-4-9"
       inkscape:connector-curvature="0"
       sodipodi:nodetypes="ccccc" />
    <text
       id="text7987-7-2"
       y="799.29907"
       x="36.471558"
       style="font-size:13.3259px;line-height:2.91689px;font-family:Arial;-inkscape-font-specification:'Arial, Normal';letter-spacing:0.739589px;fill:#000000;fill-opacity:1;stroke-width:0.999786"
       xml:space="preserve"
       transform="scale(1.0002185,0.99978155)"><tspan
         y="799.29907"
         x="36.471558"
         id="tspan7985-95-9"
         sodipodi:role="line"
         style="font-size:13.3259px;stroke-width:0.999786">110701</tspan></text>
    <path
       sodipodi:nodetypes="ccccc"
       inkscape:connector-curvature="0"
       id="path14359-1-7-5-3-0-73-1-9-8-5-1-4-1-319"
       d="m 44.16553,774.51737 -0.002,-19.6205 h 39.97313 l 0.002,19.6205 z"
       style="fill:none;stroke:#000000;stroke-width:1;stroke-linecap:butt;stroke-linejoin:round;stroke-miterlimit:4;stroke-dasharray:4, 4;stroke-dashoffset:0;stroke-opacity:1" />
    <text
       xml:space="preserve"
       style="font-size:13.3259px;line-height:2.91689px;font-family:Arial;-inkscape-font-specification:'Arial, Normal';letter-spacing:0.3px;fill:#000000;fill-opacity:1;stroke-width:0.999786"
       x="90.694183"
       y="799.37811"
       id="text7987-7-7-2"
       transform="scale(1.0002185,0.99978155)"><tspan
         sodipodi:role="line"
         id="tspan7985-95-3-1"
         x="90.694183"
         y="799.37811"
         style="font-size:13.3259px;stroke-width:0.999786">Fifth Field Calwater Hydrologic Sub-Area Number</tspan></text>
    <text
       id="text7987-7-7-3-9"
       y="769.43488"
       x="90.823692"
       style="font-size:13.3259px;line-height:2.91689px;font-family:Arial;-inkscape-font-specification:'Arial, Normal';letter-spacing:0.3px;fill:#000000;fill-opacity:1;stroke-width:0.999786"
       xml:space="preserve"
       transform="scale(1.0002185,0.99978155)"><tspan
         y="769.43488"
         x="90.823692"
         id="tspan7985-95-3-8-7"
         sodipodi:role="line"
         style="font-size:13.3259px;stroke-width:0.999786">Fifth Field Calwater Hydrologic Sub-Area Boundary</tspan></text>
    <text
       xml:space="preserve"
       style="font-size:13.3259px;line-height:2.91689px;font-family:Arial;-inkscape-font-specification:'Arial, Normal';letter-spacing:0.3px;fill:#000000;fill-opacity:1;stroke-width:0.999786"
       x="91.691612"
       y="742.60284"
       id="text7987-7-7-3-6-2"
       transform="scale(1.0002185,0.99978155)"><tspan
         sodipodi:role="line"
         id="tspan7985-95-3-8-4-5"
         x="91.691612"
         y="742.60284"
         style="font-size:13.3259px;stroke-width:0.999786">Hydrologic Unit Boundary</tspan></text>
    <text
       xml:space="preserve"
       style="font-size:13.3259px;line-height:2.91689px;font-family:Arial;-inkscape-font-specification:'Arial, Normal';letter-spacing:0.3px;fill:#000000;fill-opacity:1;stroke-width:0.999786"
       x="92.68734"
       y="714.92206"
       id="text7987-7-7-3-6-7-9-8"
       transform="scale(1.0002185,0.99978155)"><tspan
         sodipodi:role="line"
         id="tspan7985-95-3-8-4-0-5-91"
         x="92.68734"
         y="714.92206"
         style="font-size:13.3259px;stroke-width:0.999786">Critical Habitat</tspan></text>
    <text
       id="text10939-1-2-2-0"
       y="584.78387"
       x="124.45633"
       style="font-size:5.33333px;line-height:1.87086px;font-family:Arial;-inkscape-font-specification:'Arial, Normal';letter-spacing:0px;stroke-width:0.999786"
       xml:space="preserve"
       transform="scale(1.0002185,0.99978155)"><tspan
         y="584.78387"
         x="124.45633"
         id="tspan10937-8-8-8-8"
         sodipodi:role="line"
         style="font-size:5.33333px;stroke-width:0.999786">4</tspan></text>
    <path
       style="fill:#000000;fill-opacity:1;stroke:#000000;stroke-width:1;stroke-linecap:round;stroke-linejoin:round;stroke-miterlimit:4;stroke-dasharray:none;stroke-opacity:1"
       d="m 66.518059,587.5161 0.0342,3.27648 29.855244,-0.0374 8.9e-4,-3.27649 z"
       id="path14359-1-7-5-3-0-73-1-9-8-5-0-0-5-2"
       inkscape:connector-curvature="0"
       sodipodi:nodetypes="ccccc" />
    <path
       id="path1332"
       d="m 519.10597,712.23537 c 0.3924,-0.15651 1.04315,-0.34468 0.90367,-0.90082 -0.22685,-0.9045 -2.32353,0.37534 -2.86155,0.37534 -0.84523,0 0.73624,-1.16763 0.82836,-1.35122 0.0895,-0.17871 -0.67819,-0.52599 -0.75303,-0.60063 -0.26821,-0.26736 -0.21621,-0.88148 -0.37655,-1.20108 -0.13449,-0.26818 -1.3012,-0.12221 -1.58134,-0.15013 -1.17959,-0.11759 -1.68205,-0.52718 -1.88257,-1.72664 -0.0756,-0.45261 -0.37493,-0.89116 -0.45182,-1.35122 -0.0902,-0.53946 0.17222,-4.60081 0.52713,-4.95458 0.27708,-0.27626 1.05094,-0.0652 1.20484,-0.52549 0.11722,-0.35056 -0.58255,-0.75488 -0.45183,-1.27617 0.18089,-0.72134 1.12502,-0.919 0.82833,-2.10194 -0.2128,-0.84863 -1.18763,-0.56626 -1.50605,-1.20115 -0.31484,-0.62769 -0.0584,-1.52333 -0.45182,-2.17698 -0.32101,-0.53345 -3.02486,-3.49711 -3.53922,-3.75349 -0.33088,-0.1649 -0.76343,0.016 -1.12958,-0.075 -1.38074,-0.3441 -1.49339,0.99153 -2.63561,1.27618 -0.8692,0.21663 -1.12864,-1.08922 -2.18377,-0.30028 -0.58903,0.44039 -0.44275,1.45435 -1.43076,1.12602 -1.6794,-0.55802 -0.0865,-1.15922 -0.30123,-1.80165 -0.11099,-0.33193 -0.553,-0.45268 -0.6777,-0.82576 -0.2258,-0.67524 1.01396,-1.64279 0.0752,-1.87674 l -2.4e-4,-10e-5 c -0.1255,0.47543 -0.23842,0.95436 -0.37654,1.42632 -0.3539,1.20963 -1.26316,1.35861 -1.50603,2.32721 -0.13938,0.55559 0.38148,1.8667 0.22592,2.17698 -0.13296,0.26499 -0.8685,0.51946 -1.12958,0.67562 -0.7905,0.47282 -2.3943,1.81544 -2.63562,2.77756 -0.34894,1.39148 1.28015,1.15407 1.28015,2.32717 0,0.74229 -0.55395,1.72135 -0.3012,2.47726 0.10097,0.30174 0.786,0.46926 0.67773,0.90086 -0.10992,0.43845 -0.67141,0.55059 -0.52714,1.12601 0.0529,0.21147 0.20971,0.47584 0.37654,0.60058 0.34189,0.25562 2.50655,0.35121 3.01211,0.22519 0.37305,-0.0929 0.4835,-0.60054 0.90366,-0.60054 0.32647,0 0.82251,0.19827 1.12952,0.30026 0.41749,0.13876 1.45952,0.30719 1.35545,0.8258 -0.0979,0.48763 -0.64732,0.53998 -0.82829,0.90081 -0.18386,0.36652 -0.44801,0.66612 -0.60246,1.05099 -0.48928,1.21942 0.10989,3.4894 0.30123,4.7294 -0.20583,1.25445 0.18835,2.62897 0.57002,3.77192 0.13338,0.39923 0.74223,0.3844 0.82679,0.72201 0.0644,0.25666 -0.22501,0.91923 0,1.03154 0.34265,0.17094 1.38798,0.13321 1.55016,0.61886 0.16719,0.50069 0.82591,1.289 1.3435,1.54736 0.75144,0.37494 2.46956,0.59746 2.89366,1.44411 0.14628,0.29211 -1.75445,0.20141 -2.17023,1.03154 -0.0692,0.13769 0.26456,0.54051 0.31,0.72201 0.16238,0.64833 -0.15763,1.45466 -0.31,2.06307 -0.0925,0.36947 -0.53278,0.53972 -0.72343,0.82526 -0.28204,0.42223 1.58187,1.37263 1.96357,1.75354 0.26283,0.26234 1.35387,2.25891 0.93009,2.68194 -0.52593,0.52498 -1.27762,0.0329 -1.7569,-0.20629 -0.46793,-0.23356 -0.85181,0.38659 -1.2401,0.51572 -0.1205,0.0398 -1.13681,0.20579 -1.13681,0.30944 0,0.4973 3.55612,-0.69822 3.92708,0.41267 0.35189,1.05354 -0.80284,2.08687 -0.41337,2.47565 0.69687,0.69553 1.7114,0.82934 2.4803,1.34097 0.58185,0.38719 1.11935,2.33767 1.44683,2.99138 0.27046,0.53991 1.23161,0.17223 1.44681,1.03153 0.18912,0.75497 -0.0202,3.96139 0.51673,4.2292 0.63813,0.31859 1.06895,-1.06698 1.34348,-1.34087 0.35046,-0.34985 0.86603,0.23178 1.44686,0 0.20878,-0.0836 0.80984,-0.84217 1.13677,-0.51582 0.74919,0.7478 -1.24723,0.96932 -0.93009,1.44412 0.33632,0.50357 0.96844,0.90181 1.24014,1.44411 0.24199,0.48307 -0.0551,0.96065 0.51671,1.34097 0.69386,0.46176 1.31528,0.25318 1.75686,1.13468 0.312,0.62285 1.96318,5.10632 2.89368,4.64188 0.85801,-0.42821 0.55072,-0.67591 1.24013,-1.13468 0.41765,-0.27788 1.45052,-0.62633 1.65352,-1.03154 0.69645,-1.39026 -2.45452,-3.04275 -1.8602,-4.2292 0.23933,-0.47779 4.66731,-2.0798 5.27058,-2.68194 0.41923,-0.41845 -2.7324,-2.7149 -2.89365,-3.19776 -0.17695,-0.52976 0.41833,-1.17879 0.10334,-1.6504 -0.55805,-0.83561 -1.85881,0 -2.17024,-0.9284 -0.23899,-0.71563 0.80475,-1.11945 0.62007,-1.85669 -0.29309,-1.17022 -1.51146,-1.30234 -2.2736,-2.06308 -0.49724,-0.4963 -0.22288,-1.36526 -0.62008,-1.95993 -0.34744,-0.5202 -1.67358,-0.14317 -1.86019,-0.51572 -0.17872,-0.35672 0.27023,-1.38069 0,-1.6504 -0.70397,-0.70269 -2.21876,0.21256 -2.79032,-0.92839 -0.78197,-1.561 3.07511,0.43786 3.30705,0.20628 0.35167,-0.35104 -0.62009,-0.72181 -0.62009,-0.82515 0,-0.0299 1.62233,-0.87324 2.17025,-1.23782 1.06978,-0.71196 1.57756,-2.0813 2.17025,-2.47576 0.54662,-0.36369 2.59845,-0.58929 2.0669,-1.6504 -0.43059,-0.8596 -2.73515,-2.24527 -3.72045,-1.75355 -0.39217,0.19574 -0.20613,0.67024 -0.5167,0.82516 -0.20829,0.10404 -0.50419,0 -0.7234,0.10324 -0.35577,0.17751 -1.38506,-0.26802 -1.65356,0 -0.23667,0.23616 -0.16682,0.54738 -0.51668,0.72201 -0.23036,0.11499 -0.50473,-0.42463 -0.72343,-0.20629 -0.14391,0.14366 0.0672,0.72649 0,0.92839 -0.17294,0.51791 -0.97516,1.57633 -1.65349,1.23783 -0.45468,-0.227 -0.71442,-0.89235 -0.82676,-1.34097 -0.0836,-0.33432 -0.78111,-0.91645 -0.6201,-1.23783 0.31111,-0.62105 2.49059,-3.58982 2.2736,-4.02301 -0.10625,-0.21206 -0.33772,-0.17054 -0.51672,-0.20628 -2.28614,-0.45639 -2.31328,1.22219 -3.30704,-1.75355 -0.0626,-0.18707 -0.40903,-0.72639 -0.31006,-0.82525 0.66724,-0.66596 2.46678,0.21983 2.99701,-0.30943 0.21987,-0.21943 0.5449,-0.431 0.93655,-0.68597 z"
       style="fill:none;stroke:#000000;stroke-width:1;stroke-linecap:butt;stroke-linejoin:round;stroke-miterlimit:4;stroke-dasharray:none;stroke-opacity:1"
       sodipodi:nodetypes="cssssssssssssssscssssssssssssssssssssssscssssssssssssssssssssssssssssssssssssssssssssssssscsssssssssssscc" />
    <path
       style="fill:#000000;fill-opacity:1;stroke:#000000;stroke-width:1;stroke-linecap:round;stroke-linejoin:round;stroke-miterlimit:4;stroke-dasharray:none;stroke-opacity:1"
       d="m 184.58522,587.59217 -8.9e-4,3.27638 28.96053,0.015 8.9e-4,-3.39707 z"
       id="path14359-1-7-5-3-0-73-1-9-8-5-0-0-5-6"
       inkscape:connector-curvature="0"
       sodipodi:nodetypes="ccccc" />
    <path
       style="fill:#000000;fill-opacity:1;stroke:#000000;stroke-width:1;stroke-linecap:round;stroke-linejoin:round;stroke-miterlimit:4;stroke-dasharray:none;stroke-opacity:1"
       d="m 155.23664,593.58677 -0.13045,-2.75611 29.47665,0.0384 0.13044,2.75612 z"
       id="path14359-1-7-5-3-0-73-1-9-8-5-0-1-2-3"
       inkscape:connector-curvature="0"
       sodipodi:nodetypes="ccccc" />
    <text
       transform="scale(1.0002185,0.99978155)"
       id="text10939-1-2-2-6"
       y="584.72913"
       x="153.63928"
       style="font-size:5.33333px;line-height:1.87086px;font-family:Arial;-inkscape-font-specification:'Arial, Normal';letter-spacing:0px;stroke-width:0.999786"
       xml:space="preserve"><tspan
         style="font-size:5.33333px;stroke-width:0.999786"
         y="584.72913"
         x="153.63928"
         id="tspan10937-8-8-8-2"
         sodipodi:role="line">6</tspan></text>
    <text
       transform="scale(1.0002185,0.99978155)"
       id="text10939-1-2-2-61"
       y="584.69287"
       x="210.48862"
       style="font-size:5.33333px;line-height:1.87086px;font-family:Arial;-inkscape-font-specification:'Arial, Normal';letter-spacing:0px;stroke-width:0.999786"
       xml:space="preserve"><tspan
         style="font-size:5.33333px;stroke-width:0.999786"
         y="584.69287"
         x="210.48862"
         id="tspan10937-8-8-8-4"
         sodipodi:role="line">10</tspan></text>
    <text
       transform="matrix(0.71205762,0.70209598,-0.70243485,0.7117729,0,0)"
       xml:space="preserve"
       style="font-style:normal;font-variant:normal;font-weight:normal;font-stretch:normal;font-size:9.32932px;line-height:2.0421px;font-family:Arial;-inkscape-font-specification:Arial;letter-spacing:0.219905px;fill:#000000;fill-opacity:1;stroke-width:0.999786"
       x="910.5108"
       y="159.88776"
       id="text7987-7-7-3-6-7-9-5-43-5"><tspan
         sodipodi:role="line"
         id="tspan7985-95-3-8-4-0-5-9-9-9"
         x="910.5108"
         y="159.88776"
         style="font-size:9.32932px;stroke-width:0.999786">California</tspan></text>
    <path
       sodipodi:nodetypes="sssss"
       d="m 65.66142,688.16294 c 0,1.9923 -1.61579,3.6075 -3.609,3.6075 -1.99319,0 -3.609,-1.6152 -3.609,-3.6075 0,-1.9923 1.61581,-3.6074 3.609,-3.6074 1.99321,0 3.609,1.6151 3.609,3.6074 z"
       style="fill:none;fill-opacity:1;stroke:#000000;stroke-width:0.499723;stroke-linecap:round;stroke-linejoin:round;stroke-miterlimit:4;stroke-dasharray:none;stroke-dashoffset:0;stroke-opacity:1"
       id="path7933-0-3" />
    <path
       sodipodi:nodetypes="cc"
       inkscape:connector-curvature="0"
       id="path14359-1-7-5-3-0-73-1-9-8-5-49-1-6"
       d="m 62.05984,688.10964 h -0.002"
       style="fill:none;stroke:#000000;stroke-width:1.99889;stroke-linecap:round;stroke-linejoin:round;stroke-miterlimit:4;stroke-dasharray:none;stroke-opacity:1" />
    <text
       id="text7987-7-7-3-6-7-9-5-1"
       y="694.36035"
       x="91.161636"
       style="font-size:13.3259px;line-height:2.91689px;font-family:Arial;-inkscape-font-specification:'Arial, Normal';letter-spacing:0.4px;fill:#000000;fill-opacity:1;stroke-width:0.999786"
       xml:space="preserve"
       transform="scale(1.0002185,0.99978155)"><tspan
         y="694.36035"
         x="91.161636"
         id="tspan7985-95-3-8-4-0-5-9-99"
         sodipodi:role="line"
         style="font-size:13.3259px;stroke-width:0.999786">Cities/Towns</tspan></text>
    <path
       inkscape:transform-center-y="-0.16408029"
       inkscape:transform-center-x="0.033658819"
       sodipodi:nodetypes="ccccc"
       inkscape:connector-curvature="0"
       id="path14359-1-7-5-3-0-73-1-9-19-9-4"
       d="M 616.93332,52.901947 617.42157,634.92595 25.161547,636.39526 24.951537,55.400188 Z"
       style="fill:none;stroke:#000000;stroke-width:1.99957;stroke-linecap:round;stroke-linejoin:round;stroke-miterlimit:4;stroke-dasharray:none;stroke-opacity:1" />
    <text
       transform="scale(1.0002185,0.99978155)"
       id="text10939-6-7-2-2-5-5-6-1"
       y="111.08478"
       x="581.75262"
       style="font-size:6.66523px;line-height:1.45894px;font-family:Arial;-inkscape-font-specification:'Arial, Normal';letter-spacing:0.269941px;stroke-width:0.999786"
       xml:space="preserve"><tspan
         style="stroke-width:0.999786"
         y="111.08478"
         x="581.75262"
         id="tspan10937-2-1-3-3-1-8-3-1"
         sodipodi:role="line">38°0'0&quot;N</tspan></text>
    <text
       transform="scale(1.0002185,0.99978155)"
       id="text10939-6-7-2-3-08-3-9-6"
       y="67.533173"
       x="398.44339"
       style="font-size:6.66523px;line-height:1.45894px;font-family:Arial;-inkscape-font-specification:'Arial, Normal';letter-spacing:0.269941px;stroke-width:0.999786"
       xml:space="preserve"><tspan
         style="stroke-width:0.999786"
         y="67.533173"
         x="398.44339"
         id="tspan10937-2-1-3-1-4-6-3-5"
         sodipodi:role="line">121°30'0&quot;W</tspan></text>
    <path
       style="fill:none;stroke:#000000;stroke-width:1.99957;stroke-linecap:round;stroke-linejoin:round;stroke-miterlimit:4;stroke-dasharray:none;stroke-opacity:1"
       d="m 616.52628,108.64337 -5.01323,-0.002"
       id="path14359-1-7-5-3-0-73-1-9-19-5-3-5-1-1-5-6-3"
       inkscape:connector-curvature="0"
       sodipodi:nodetypes="cc"
       inkscape:transform-center-x="-0.16415274"
       inkscape:transform-center-y="-0.033651104" />
    <path
       style="fill:none;stroke:#000000;stroke-width:1.99957;stroke-linecap:round;stroke-linejoin:round;stroke-miterlimit:4;stroke-dasharray:none;stroke-opacity:1"
       d="m 25.575357,119.3738 5.25696,0.002"
       id="path14359-1-7-5-3-0-73-1-9-19-5-3-5-1-1-1-4-3-3-56"
       inkscape:connector-curvature="0"
       sodipodi:nodetypes="cc"
       inkscape:transform-center-x="0.16414726"
       inkscape:transform-center-y="0.033655766" />
    <text
       transform="scale(1.0002185,0.99978155)"
       id="text10939-6-7-2-2-5-9-6-8"
       y="121.81857"
       x="32.58939"
       style="font-size:6.66523px;line-height:1.45894px;font-family:Arial;-inkscape-font-specification:'Arial, Normal';letter-spacing:0.269941px;stroke-width:0.999786"
       xml:space="preserve"><tspan
         style="stroke-width:0.999786"
         y="121.81857"
         x="32.58939"
         id="tspan10937-2-1-3-3-1-0-9-5"
         sodipodi:role="line">38°0'0&quot;N</tspan></text>
    <path
       style="fill:none;stroke:#000000;stroke-width:1.99957;stroke-linecap:round;stroke-linejoin:round;stroke-miterlimit:4;stroke-dasharray:none;stroke-opacity:1"
       d="m 30.599118,636.0373 0.002,-5.25113"
       id="path14359-1-7-5-3-0-73-1-9-19-5-3-5-1-1-1-4-3-3-7-0-2"
       inkscape:connector-curvature="0"
       sodipodi:nodetypes="cc"
       inkscape:transform-center-x="-0.033692741"
       inkscape:transform-center-y="0.16396675" />
    <text
       transform="scale(1.0002185,0.99978155)"
       id="text10939-6-7-2-2-5-9-6-79-8-3"
       y="626.65466"
       x="407.74484"
       style="font-size:6.66523px;line-height:1.45894px;font-family:Arial;-inkscape-font-specification:'Arial, Normal';letter-spacing:0.269941px;stroke-width:0.999786"
       xml:space="preserve"><tspan
         style="stroke-width:0.999786"
         y="626.65466"
         x="407.74484"
         id="tspan10937-2-1-3-3-1-0-9-53-1-8"
         sodipodi:role="line">121°30'0&quot;W</tspan></text>
    <path
       inkscape:transform-center-y="0.16396782"
       inkscape:transform-center-x="-0.033692741"
       sodipodi:nodetypes="cc"
       inkscape:connector-curvature="0"
       id="path14359-1-7-5-3-0-73-1-9-19-5-3-5-1-1-1-4-3-3-7-0-2-4"
       d="m 426.69486,634.89802 v -5.25113"
       style="fill:none;stroke:#000000;stroke-width:1.99957;stroke-linecap:round;stroke-linejoin:round;stroke-miterlimit:4;stroke-dasharray:none;stroke-opacity:1" />
    <text
       xml:space="preserve"
       style="font-size:6.66523px;line-height:1.45894px;font-family:Arial;-inkscape-font-specification:'Arial, Normal';letter-spacing:0.269941px;stroke-width:0.999786"
       x="577.87494"
       y="608.83783"
       id="text10939-6-7-2-2-5-9-6-79-8-3-5"
       transform="scale(1.0002185,0.99978155)"><tspan
         sodipodi:role="line"
         id="tspan10937-2-1-3-3-1-0-9-53-1-8-3"
         x="577.87494"
         y="608.83783"
         style="stroke-width:0.999786">37°30'0&quot;N</tspan></text>
    <path
       style="fill:none;stroke:#000000;stroke-width:1.99957;stroke-linecap:round;stroke-linejoin:round;stroke-miterlimit:4;stroke-dasharray:none;stroke-opacity:1"
       d="m 616.9185,606.20794 -5.2569,-0.002"
       id="path14359-1-7-5-3-0-73-1-9-19-5-3-5-1-1-1-4-3-3-5-4-0"
       inkscape:connector-curvature="0"
       sodipodi:nodetypes="cc"
       inkscape:transform-center-x="-0.16414874"
       inkscape:transform-center-y="-0.033654521" />
    <path
       inkscape:transform-center-y="-0.1641531"
       inkscape:transform-center-x="0.033647261"
       sodipodi:nodetypes="cc"
       inkscape:connector-curvature="0"
       id="path14359-1-7-5-3-0-73-1-9-19-5-3-5-1-1-5-6-3-4"
       d="m 417.08363,54.23661 -0.002,5.5795"
       style="fill:none;stroke:#000000;stroke-width:1.99957;stroke-linecap:round;stroke-linejoin:round;stroke-miterlimit:4;stroke-dasharray:none;stroke-opacity:1" />
    <text
       transform="matrix(1.0001824,-0.00850824,0.00852339,0.99974513,0,0)"
       xml:space="preserve"
       style="font-size:10.6667px;line-height:11.6225px;font-family:Arial;-inkscape-font-specification:'Arial, Normal';letter-spacing:0.15px;stroke-width:0.999786"
       x="261.15445"
       y="318.33197"
       id="text7987-9-3-5-0-40-1-6-0-9-1-4"><tspan
         style="font-size:10.6667px;stroke-width:0.999786"
         sodipodi:role="line"
         id="tspan7985-5-30-1-8-8-3-9-1-8-1-914"
         x="261.15445"
         y="318.33197">554300</tspan></text>
    <text
       y="120.69501"
       x="170.04523"
       id="text7987-9-3-5-0-8-7-29-8-88-7-09-1-7-60-0-7-9-4-4-8"
       style="font-size:8px;line-height:5.26183px;font-family:Arial;-inkscape-font-specification:'Arial, Normal';letter-spacing:0.35px;stroke-width:0.999786"
       xml:space="preserve"><tspan
         style="font-size:8px;stroke-width:0.999786"
         id="tspan7985-5-30-1-8-0-0-3-3-35-37-71-2-98-15-0-2-1-8-7-7">Antioch</tspan></text>
    <text
       xml:space="preserve"
       style="font-size:6.66523px;line-height:1.45894px;font-family:Arial;-inkscape-font-specification:'Arial, Normal';letter-spacing:0.269941px;stroke-width:0.999786"
       x="32.345829"
       y="618.63074"
       id="text10939-6-7-2-2-5-9-6-79-8-3-2"
       transform="scale(1.0002185,0.99978155)"><tspan
         sodipodi:role="line"
         id="tspan10937-2-1-3-3-1-0-9-53-1-8-6"
         x="32.345829"
         y="618.63074"
         style="stroke-width:0.999786">37°30'0&quot;N</tspan></text>
    <path
       inkscape:transform-center-y="0.033691749"
       inkscape:transform-center-x="0.16396626"
       sodipodi:nodetypes="cc"
       inkscape:connector-curvature="0"
       id="path14359-1-7-5-3-0-73-1-9-19-5-3-5-1-1-1-4-3-3-7-0-2-2"
       d="m 25.856412,616.38838 5.25113,0.002"
       style="fill:none;stroke:#000000;stroke-width:1.99957;stroke-linecap:round;stroke-linejoin:round;stroke-miterlimit:4;stroke-dasharray:none;stroke-opacity:1" />
    <path
       id="path2244"
       d="m 509.75638,729.9592 c 0.55817,0.28144 2.03737,0.35398 1.70534,1.35006 -0.0414,0.12418 -0.15449,0.54368 -0.0711,0.71056 0.19638,0.39276 0.97392,0.29268 1.1369,0.78162 0.39939,1.19817 0.29765,1.5914 1.70534,2.06063 0.25841,0.0861 2.32739,0.8876 2.13168,1.27901 -0.24503,0.49007 -1.04789,0.10646 -1.42112,0.35528 -0.2657,0.17713 -0.11425,0.75376 -0.28422,0.92373 -0.35913,0.35912 -1.51034,-0.40977 -1.63429,-0.78162 -0.29086,-0.87256 -0.36812,-1.80209 -0.78162,-2.62908 -0.47196,-0.94392 -2.23105,-0.66782 -2.84224,-1.27901 -0.24982,-0.24981 0.47929,-0.95859 0.56845,-1.13689 0.27002,-0.54005 -0.0888,-1.13683 -0.21317,-1.63429 z"
       style="fill:#000000;stroke:#000000;stroke-width:1px;stroke-linecap:round;stroke-linejoin:round;stroke-opacity:1;fill-opacity:1" />
    <path
       sodipodi:nodetypes="cssc"
       id="path2381"
       d="m 165.18783,96.637258 c 10.42697,0.461923 22.0284,0.256751 32.84866,-0.34217 3.18592,-0.176347 6.5896,-0.08969 9.87118,-0.782254 5.59267,-1.180302 12.10568,-1.309782 17.02309,0.17312"
       style="fill:none;stroke:none;stroke-width:0.5;stroke-linecap:butt;stroke-linejoin:miter;stroke-miterlimit:4;stroke-dasharray:none;stroke-opacity:1" />
    <path
       style="fill:none;stroke:#000000;stroke-width:1;stroke-linecap:butt;stroke-linejoin:round;stroke-miterlimit:4;stroke-dasharray:4, 4;stroke-dashoffset:0;stroke-opacity:1"
       d="m 166.18695,79.257991 2.9853,4.703986 c 0.40404,2.44635 -1.12088,4.086343 -2.51408,5.943937 -0.25526,0.340346 -0.70432,0.647615 -0.81363,1.084838 -0.30372,1.214886 -0.58156,2.693935 -0.94923,3.796931 -0.21852,0.655579 -1.52683,1.019599 -1.89846,1.762861 -0.22648,0.452948 0.0269,1.139843 -0.13561,1.627257 -0.60822,1.824669 -2.41178,6.901289 -4.06814,7.729469 -1.66477,0.83238 -3.76464,0.72968 -5.55979,1.62725 -0.70377,0.35189 -0.96659,1.37341 -1.49165,1.89847 -0.33891,0.33891 -0.88154,0.61033 -1.22045,0.94923 -0.60931,0.60932 -0.87792,1.48464 -1.22044,2.16968 -0.42368,0.84737 -1.82413,1.13303 -2.16967,2.16967 -0.31883,0.95649 0.0642,2.04126 -0.40682,2.98331 -0.23389,0.46778 -1.05698,0.73006 -1.22044,1.22044 -0.66932,2.00795 -2.40093,4.0082 -3.52572,5.6954 -0.2002,0.30029 -0.75479,0.61918 -0.94924,0.81362 -2.64263,2.64264 -2.13453,0.25364 -3.79693,1.08484 -1.14128,0.57065 -1.10015,1.50697 -1.89846,2.30528 -0.25771,0.25771 -0.63444,0.45525 -0.81363,0.81363 -0.93318,1.86636 1.22036,3.11907 0.27121,5.01737 -0.58247,1.16494 -6.18496,3.69123 -6.78024,4.88177 -0.13539,0.27078 -0.44633,1.00581 -0.27121,1.35605 0.52194,1.04386 0.24911,2.39668 0.54242,2.9833 0.48928,0.97855 0.8094,1.90693 0.27121,2.98331 -0.16272,0.32545 0.16273,0.89499 0,1.22044 -0.62499,1.24999 -3.67579,6.20888 -2.9833,7.59386 0.52132,1.04264 1.40205,0.81605 1.89847,2.30528 0.35659,1.06977 -0.36583,2.52287 0.1356,3.52572 -0.65462,1.56152 -1.53199,3.03374 -2.57649,4.33935 -1.04574,1.30717 -1.64376,2.86834 -2.71209,4.20375 -0.41512,0.51889 -1.16868,0.92954 -1.35605,1.49165 -0.36885,1.10654 1.48836,2.19285 2.03407,2.8477 1.05403,1.26484 1.084,2.98219 1.89847,4.06814 0.87346,1.16461 1.86169,0.5631 2.84769,1.22044 0.84935,0.56623 0.91971,1.92909 1.89847,2.7121 1.45115,1.16092 3.28709,3.29239 2.57649,5.42419 -0.52898,1.58693 -4.09855,0.38462 -5.01737,1.76286 -1.3483,2.02244 3.05828,3.68446 1.62725,5.831 -0.40034,0.60052 -1.46063,1.06157 -2.03407,1.49165 -0.56816,0.42612 -2.13935,1.84316 -2.71209,2.03407 -1.9584,0.6528 -4.27524,0.15944 -6.23782,0.81363 -0.24107,0.0804 -2.93552,3.15119 -2.9833,3.39012 -0.13793,0.68963 0.002,1.14906 -0.40682,1.76286 -0.75979,1.13968 -2.81579,0.83357 -3.79693,2.30528 -0.93927,1.40891 -1.66888,2.88932 -2.9833,4.20374 -0.89962,0.89962 -2.1477,1.01892 -2.57649,2.30528 -0.58721,1.76163 3.04871,3.66611 1.49165,6.78024 -0.4643,0.9286 -3.72157,0.98939 -4.88177,1.76286 -0.48271,0.32181 -0.74527,0.90329 -1.08483,1.35605 -0.50842,0.67789 -1.293867,1.19496 -1.762866,1.89846 -1.255199,1.8828 -1.642413,4.15868 -2.847698,5.96661 -0.58176,0.87264 -1.947916,1.46293 -2.847699,1.76285 -0.712726,0.23758 -1.645408,1.50981 -2.169675,2.03408 -2.148486,2.01894 -4.467234,3.68449 -3.390118,6.91584 0.376608,1.12982 1.501037,1.20167 0.813629,2.57649 -0.892043,1.78408 -2.685115,2.72132 -3.796932,4.20374 -0.840655,1.12088 -1.43405,2.24768 -2.440885,3.25452 -0.678419,0.67842 -1.610479,0.92406 -2.169675,1.76286 -0.167057,0.25058 -0.35792,1.0092 -0.271209,1.35604 0.186205,0.74483 1.081686,1.21625 1.491652,1.76287 0.411786,0.54904 0.936643,1.46647 1.220442,2.03407 0.465995,0.93199 3.164903,0.76882 4.068141,1.22044 0.928946,0.46447 1.579287,1.5363 2.712094,1.76286 1.299694,0.25994 2.706038,-0.30662 4.474955,0.1356 0.815991,0.204 1.796177,2.05073 2.847698,2.57649 0.640809,0.32041 1.486833,-0.092 2.169675,0.13561 0.543543,0.18118 0.74136,0.92514 1.220443,1.08484 0.297968,0.0993 0.633638,0.0304 0.949228,0.1356 1.73843,0.57948 2.96374,-2.3118 5.01738,-1.62726 1.06936,0.35646 1.08883,1.83267 2.03407,2.30528 2.03459,1.0173 4.79773,-1.21089 6.50902,1.35605 1.25265,1.87896 1.79334,3.78678 4.20375,2.9833 0.42391,-0.1413 1.09709,0.0617 1.49165,-0.1356 0.87609,-0.43804 1.90071,-0.61583 2.30528,-1.62726 1.18543,-2.96357 -2.02422,-7.64563 1.76286,-10.17035 0.87584,-0.58389 1.31147,-0.94923 2.03407,-0.94923 2.09957,1.10226 5.00222,-0.1447 7.05145,1.08484 2.06006,1.23603 1.39387,3.60137 2.16967,5.15297 0.87772,1.75544 4.39997,2.19999 5.96661,2.98331 1.75958,0.87979 2.79601,3.63548 4.47495,4.47495 1.77558,0.88779 3.34042,-0.31551 5.15298,-0.67802 2.50635,-0.50127 5.24493,-0.0667 7.32266,1.49165 1.30946,0.9821 1.88055,3.01656 3.25451,3.93254 0.97625,0.65083 2.34559,0.63037 3.25451,1.08483 0.69504,0.34752 0.43993,0.98236 0.81363,1.35605 0.72305,0.72305 2.2955,0.51307 2.71209,1.76286 0.50246,1.50738 -0.30417,3.97562 1.08484,5.01738 1.03892,0.77919 5.07392,-0.21467 6.23782,0.94923 2.80989,2.80989 0.0216,4.24688 1.49165,7.18705 0.64508,1.29017 2.18369,0.96324 2.9833,1.76286 0.59785,0.59785 2.31269,1.90217 3.11891,2.30528 0.28954,1.0946 1.46833,2.34271 2.57649,2.71209 1.34837,0.44946 2.88779,0.37498 4.20375,0.81363 0.95958,0.31986 1.3253,1.20507 2.16967,1.62726 0.5434,0.2717 1.25858,-0.42659 1.89847,0 0.76116,0.50744 2.87703,3.85283 4.06814,4.74616 1.13662,0.85247 2.37541,2.01225 3.66132,2.44089 0.33342,0.11113 0.77441,-0.0196 1.08484,0.1356 0.46641,0.23321 0.19403,1.6085 0.40682,2.03407 0.29931,0.59862 1.6079,0.53758 2.16967,0.67802 0.28464,0.0712 1.98055,3.24828 2.71209,3.79694 1.36427,1.02319 2.94325,1.31599 4.06815,2.44088 0.55075,0.55076 0.0891,1.58077 0.67802,2.16968 1.0243,1.0243 2.76844,1.87554 3.39012,3.1189 0.96009,1.92019 -1.23094,3.91155 -0.54242,5.28859 0.33592,0.67185 1.27232,1.15674 1.49165,2.03407 0.0962,0.3846 -0.2888,1.88088 -0.13561,2.03407 0.38737,0.38736 1.25971,0.3747 1.76287,0.54242 0.8323,0.27743 1.93366,1.1602 2.71209,1.62725 1.82475,1.09486 2.66387,4.65425 4.47495,5.5598 0.78837,0.39418 1.84214,-0.36718 2.8477,0.1356 0.4904,0.2452 0.71758,1.05433 1.22045,1.35605 1.96784,1.1807 3.44477,2.65848 4.74616,4.61056 0.43689,0.65534 0.51267,1.4619 1.08484,2.03407 0.68039,0.68039 1.71788,-1.59705 2.44088,-1.35605 0.39019,0.13007 7.91003,-0.43678 8.27189,-0.67802 0.83833,-0.55889 5.3061,-2.06911 5.01737,-1.49165 0.97479,-0.88591 2.6154,-1.25935 3.52572,-2.16968 1.29651,-1.2965 2.29658,-5.35203 3.52573,-5.96661 0.66857,-0.33428 1.50523,-0.14239 2.03407,-0.40681 0.34724,-0.17362 1.64237,-0.33145 2.03407,-0.1356 2.00893,1.00446 1.04717,4.25271 2.57649,5.01737 1.41193,0.70597 4.74649,-1.89825 6.78023,-0.54242 1.76155,1.17437 1.45976,3.73314 2.16968,5.15298 0.428,0.85601 1.94533,1.37948 2.71209,1.76286 0.86008,0.43004 2.09402,-0.54242 2.8477,-0.54242 0.73266,0 5.33217,0.58843 5.42419,0.54242 0.89726,-0.44863 1.69498,-1.23737 2.71209,-1.49165 1.09408,-0.27352 2.97584,0.0954 3.93254,-0.54242 1.26879,-0.84586 1.96888,-2.71733 2.57649,-3.93254 0.38859,-0.77719 1.28653,-1.21701 1.62725,-1.89846 0.35038,-0.70076 0.15762,-0.68536 0.94924,-0.94924 0.0397,-0.0132 0.16208,-0.24473 0.27121,-0.1356 0.76418,0.76419 1.07287,1.18355 2.30528,1.49165 1.20365,0.30091 2.1696,-0.54247 3.25451,0.27121 0.78835,0.59126 0.65995,1.43745 0.94923,2.30528 0.38804,1.16413 2.30769,1.42746 2.9833,2.44089 0.29269,0.43902 0.26697,5.97084 0,6.23781 -0.19324,0.19325 -1.4282,0.10388 -1.76286,0.27121 -0.50971,0.25486 -0.55208,0.88626 -0.94923,1.08484 -0.77822,0.38911 -3.09978,1.31779 -3.52572,2.16967 -0.0914,0.18269 1.84784,3.91628 2.03407,4.47496 0.56727,1.70182 0.4396,6.54181 1.49165,7.59386 0.78638,0.78639 2.59037,1.17346 3.25451,2.16968 0.53278,0.79916 0.12387,1.59204 0.40682,2.44088 0.21088,0.63265 0.86485,1.10291 1.08483,1.76286 0.21003,0.63008 -0.63766,1.99371 -0.94923,2.30528 -0.18366,0.18366 0.1727,1.49773 -1.08484,2.44089 -1.02058,0.76544 -3.91302,2.53746 -4.47495,3.66132 -0.63927,1.27854 0.44877,2.81547 0.1356,4.06814 -0.24807,0.99229 -2.47909,1.55084 -1.49165,3.52573 0.20814,0.41628 0.76482,0.92935 1.08484,1.35604 0.74196,0.98928 1.27462,3.30901 0.94923,4.61056 -0.31669,1.26676 -3.57426,5.91807 -2.30528,7.18705 1.57677,1.57677 3.03363,-0.88726 4.88177,-0.27121 0.55063,0.18355 3.05644,2.64963 3.39012,2.98331 1.53445,2.27558 2.68333,-0.76021 4.47495,0.1356 0.49907,0.24953 0.50894,0.91575 0.81363,1.22044 0.51379,0.51379 2.5609,-1.51763 4.20375,1.22045 0.78453,1.30755 1.38632,3.30058 1.62725,4.74616 0.19527,1.17157 0.0338,2.40668 0.40682,3.52572 0.26284,0.78852 1.03793,1.35348 1.49165,2.03407 0.23955,0.35932 0.36936,0.91178 0.67802,1.22044 0.84798,0.84798 1.55388,1.82509 2.44089,2.7121 0.27307,0.27307 0.78319,0.25599 1.08484,0.40681 1.37373,0.68687 2.65616,1.10067 3.66132,2.44089 1.26645,1.6886 -0.71317,3.60275 0.13561,5.01737 0.98168,1.63614 2.54394,-0.1356 3.79693,-0.1356 0.22729,0 0.79071,0.24829 0.94923,0.40681 0.64026,0.64026 0.97921,1.52163 1.62726,2.16968 0.7159,0.7159 2.31726,1.53959 2.57649,2.57648 0.40791,1.63165 -1.85555,3.74716 -1.08484,5.28859 0.73767,1.47534 2.23299,0.38887 2.8477,2.8477 0.12083,0.48332 0.40091,1.10845 0.27121,1.62725 -0.36769,1.47074 -1.89811,3.11998 -1.35605,4.74617 0.44799,1.34398 5.57691,-0.18697 4.47496,3.11891 -0.76152,2.28456 -4.56456,4.01974 -4.74617,4.74616 -0.29637,1.1855 1.32452,2.08243 1.89847,2.8477 1.01749,1.35666 1.77464,4.99382 0.94923,6.64463 -0.35479,0.70959 -2.78795,0.90039 -3.52572,1.08484 -0.86928,0.21731 -1.62879,1.28862 -2.44089,1.49165 -2.05542,0.51385 -3.39011,2.45435 -3.39011,4.47495 0.49147,0.93528 -0.17923,2.17443 0.1356,3.11891 0.50893,1.52679 1.75203,2.22384 1.35605,4.20375 -0.0777,0.38861 -1.86502,4.88238 -2.16968,5.28858 -0.42051,0.56068 -1.3457,1.03313 -1.49165,1.76286 -0.0525,0.26253 -0.36034,1.31339 -0.27121,1.49165 0.36026,0.72052 1.89532,3.61403 2.57649,4.06814 0.62631,0.41755 1.52719,0.35678 2.16968,0.67803 1.56145,0.78072 3.37324,2.3734 3.79693,4.06814 0.86391,3.45566 -3.423,3.99829 -4.20375,5.55979 -0.24581,0.49163 2.16968,0.38848 2.16968,1.89847 0,0.47903 -0.47339,2.22145 0,2.57649 1.55201,1.164 3.14876,2.49603 5.01737,3.1189 0.5879,0.19597 1.36155,0.003 1.89847,0.27121 1.22206,0.61103 2.51278,1.5276 3.79693,2.16968 0.75906,0.37953 1.9112,0.27758 2.71209,0.67802 0.55126,0.27563 0.94055,0.80929 1.49165,1.08484 0.51518,0.25759 1.33421,0.38497 1.76286,0.81363 1.27779,1.27778 1.80911,3.84318 2.8477,4.88177 0.92805,0.92804 2.26406,-0.0884 3.25452,0.40681 0.3363,0.16815 0.80005,0.697 1.22044,0.94923 1.19913,0.71948 1.7474,3.02792 2.44088,4.06814 0.40156,0.60234 0.8264,0.76499 1.22045,1.35605 0.26814,0.40221 0.0878,1.1726 0.40681,1.49165 0.45343,0.45344 1.38787,1.04472 1.62726,1.76286 0.29579,0.88739 -0.0329,1.93538 0.27121,2.8477 0.62411,1.71314 0.424,3.2889 1.22044,4.88177 0.0321,0.0642 0.94096,0.58211 1.08483,0.67802 0.81006,0.54004 1.8387,2.05014 2.30528,2.98331 0.37338,0.74675 0.91823,2.01466 1.08484,2.8477 0.15436,0.7718 -0.0718,2.34513 0.40682,2.9833 0.92399,1.23199 2.13327,1.59085 3.1189,2.57649 0.96684,0.96683 0.63884,2.58551 1.35605,3.66133 1.15662,1.73493 1.73813,3.6982 3.11891,5.42418 0.30025,0.37532 0.9866,1.71375 1.35605,1.89847 0.46749,0.23375 1.45335,0.34937 1.76286,0.81363 1.11158,1.66737 2.01344,4.09959 3.79693,5.28858 1.06121,0.70748 2.76906,-0.21424 4.06814,1.08484 0.67334,0.67334 0.57776,1.83354 0.94923,2.57649 0.45813,0.91626 1.69968,0.82286 2.16968,1.76286 0.5226,1.0452 -0.58603,1.85485 0.40681,2.8477 0.38365,0.38365 7.2613,2.54581 8.6787,3.25451 0.27346,0.13673 1.31507,-0.28487 1.76286,-0.1356 1.30804,0.43601 2.11779,2.2584 3.39012,2.57649 1.2687,0.31717 2.23442,-0.83135 3.39012,-0.54242 1.1249,0.28122 1.21012,1.3811 2.44088,1.62725 1.39704,0.27941 2.25035,-0.4337 3.39012,-0.81363 1.41664,-0.47221 3.09175,0.34581 4.47496,0 0.8043,-0.20107 1.67168,-0.42162 2.44088,-0.67802 1.41182,-0.47061 6.00066,0.64459 6.50903,2.16968 1.13481,3.40444 -1.8529,2.39752 -1.08484,6.23781 0.15576,0.77881 1.48551,1.55024 1.89846,2.16968 1.16134,1.74201 2.8477,3.91907 2.8477,6.10221 -0.75448,2.18473 -0.3104,3.33133 0.81363,5.01737 0.50224,0.75337 0.70496,1.6542 1.35605,2.30528 0.73004,0.73004 2.24434,-0.66034 3.11891,-0.1356 0.94572,0.56743 2.9216,2.81074 4.20374,2.16967 1.95313,-0.97656 -0.5039,-5.1915 1.49165,-7.18705 1.11651,-1.11651 5.09928,-2.06228 5.5598,-2.9833 0.59205,-1.1841 -2.9389,-2.66531 -1.35605,-5.831 0.89537,-1.79075 3.67802,-2.27121 5.15298,-3.25451 0.60678,-0.40452 0.95252,-1.35934 1.49165,-1.89847 0.18795,-0.18795 0.54201,-0.2704 0.67802,-0.54242 0.89814,-1.79628 -2.06857,-2.87979 -1.49165,-4.61056 0.26344,-0.79031 1.27458,-1.38303 1.76286,-2.03407 0.33835,-0.45113 1.38787,-2.75224 1.22044,-3.25451 -0.46949,-1.40847 -2.12875,-0.18295 -3.1189,-0.67803 -0.41478,-0.20738 -0.49805,-0.90485 -0.81363,-1.22044 -0.82129,-0.82129 -2.71474,-1.76352 -3.79693,-2.03407 -1.02291,-0.25572 -2.19007,0.28141 -2.98331,0.67803 -1.24622,0.62311 -1.48083,-1.14994 -2.30528,-1.35605 -1.10731,-0.27683 -2.87118,0.21035 -3.79693,-0.40682 -1.24789,-0.83192 -3.14642,-2.21552 -3.93253,-3.52572 -0.47764,-0.79605 -0.70327,-2.52762 -1.49166,-3.11891 -0.50758,-0.38068 -1.45002,-0.5216 -2.03407,-0.81362 -1.68728,-0.84364 -4.13242,-2.67291 -5.15298,-4.20375 -0.65055,-0.97582 -1.32094,-2.87321 -1.49165,-4.06814 -0.13698,-0.95889 0.68401,-2.0221 0.27121,-2.8477 -0.23511,-0.47022 -0.64966,-0.99975 -0.81363,-1.49165 -0.25257,-0.75772 0.61708,-1.79334 -0.40681,-2.30528 -0.48201,-0.241 -0.80942,0.76562 -1.08484,0.94923 -0.55223,0.36816 -2.29318,0.5515 -2.8477,0.13561 -1.38397,-1.03798 -3.32298,-6.35105 -3.79693,-6.50903 -0.63178,-0.21059 -4.02373,0.85804 -4.20374,0.67803 -1.01807,-1.01807 -1.40154,-2.13346 -3.25452,-1.76287 -3.67356,0.73472 -5.16582,2.78537 -7.86507,-0.81362 -2.11532,-2.82043 -1.28615,-5.52903 0.54242,-8.27189 0.28958,-0.43438 0.35674,-1.30598 0.67802,-1.62726 0.57647,-0.57646 1.39835,-0.44911 2.03407,-1.08483 0.53659,-0.53659 0.72643,-1.779 1.49166,-2.03407 1.70689,-0.56897 4.08145,1.01037 5.831,0.1356 0.91083,-0.45542 -0.44731,-4.37678 0.94923,-5.42419 1.7916,-1.3437 4.4802,-0.44203 6.50903,-0.94923 1.36846,-0.34212 1.04162,-2.08325 1.49165,-2.9833 0.31929,-0.6386 2.54079,-2.35524 3.25451,-2.7121 0.38389,-0.19194 1.04195,-0.1356 1.49165,-0.1356 3.02359,0 2.02866,1.2736 3.79693,1.62725 0.62424,0.12485 1.24112,0.13561 1.89847,0.13561 2.24284,0 6.02261,-2.61953 7.59386,-2.30528 0.7654,0.15308 1.55958,0.56506 2.30528,0.81363 1.10196,0.36732 2.21747,0.7705 3.11891,1.49165 0.51101,0.4088 0.96191,1.22678 1.49165,1.49165 0.69934,0.34967 1.4847,0.70671 2.16968,1.22044 0.70312,0.52735 1.37779,1.61105 1.89846,2.30528 0.38162,0.50882 3.90757,2.21072 4.47496,2.30528 2.00516,0.3342 3.86325,-0.99344 5.42419,-2.03407 0.60816,-0.40544 0.92898,-1.27506 1.08483,-1.89846 0.12237,-0.48949 0.84925,-0.73146 1.08484,-1.08484 0.51772,-0.77657 1.83152,-3.45707 1.08484,-4.20375 -2.30742,-2.30742 -3.36345,-0.23064 -5.15298,-0.67802 -0.82211,-0.20553 -1.75726,0.0692 -2.57649,-0.13561 -1.22184,-0.30545 -2.25403,-1.20763 -3.39012,-1.49165 -1.46579,-0.36645 -3.55086,0.44597 -5.42418,-0.67802 -1.46474,-0.87884 -2.81653,-3.67692 -0.67803,-4.74617 1.1183,-0.55914 2.8477,-0.3464 2.8477,-2.16967 0,-1.15146 -2.18912,-2.11135 -1.76286,-3.39012 0.0306,-0.0919 0.23542,-0.62434 0.27121,-0.67802 0.23642,-0.35464 2.63058,-2.11533 3.11891,-2.44089 0.34983,-0.23322 0.58879,-1.04022 0.94923,-1.22044 1.45471,-0.72735 4.63047,0.53246 5.96661,-0.1356 0.39933,-0.19967 2.36963,-0.60677 2.44088,-0.67803 0.65966,-0.65965 1.59998,-1.07119 2.44089,-1.49165 0.48543,-1.00566 0.71794,-2.11391 1.22044,-3.11891 0.32983,-0.65966 1.06821,-2.49075 0.81363,-3.25451 -0.86302,-2.58905 -1.61707,-5.95641 -3.66133,-8.00068 -1.74704,-1.74704 -4.61056,-1.49138 -4.61056,-4.88177 0,-0.28176 -0.1271,-0.96625 0,-1.22044 1.31493,-2.62986 7.51438,-2.97551 9.76354,-4.47495 1.95616,-1.30411 0.91805,-3.32776 1.76286,-5.01738 0.68671,-1.37341 3.50511,-2.74897 4.47495,-4.20374 0.9436,-1.4154 -0.1038,-3.45372 0.54242,-4.74617 0.1341,-0.26819 0.58886,-0.54614 0.67803,-0.81362 0.1783,-0.53492 0.0287,-1.12307 0.40681,-1.62726 0.29871,-0.39828 2.93114,-3.77954 3.39012,-3.93254 0.54521,-0.18174 1.67048,0.10481 2.16967,0.27121 2.02957,0.67652 5.32423,3.5327 5.831,5.55979 0.63037,2.52147 -0.91082,5.90782 0.27121,8.27189 0.46461,0.92922 1.47956,2.42879 2.16968,3.11891 0.42997,0.42997 5.90936,2.3339 6.50902,2.03407 0.95316,-0.47658 1.84267,-0.67802 2.98331,-0.67802 0.6064,0 1.715,-0.19676 2.30528,0 0.57556,0.19185 1.21566,0.54242 1.89846,0.54242 4.02571,0.65721 7.81781,1.47814 11.66201,2.57648 1.33426,0.38122 2.96234,0.31292 4.33935,0.54242 1.5738,0.2623 2.90321,1.32401 4.33935,1.89847 2.32024,0.92809 4.7964,1.72018 7.05144,2.8477 1.28439,0.64219 3.12206,0.0351 4.47496,0.54242 0.42532,0.15949 1.10779,0.25452 1.49165,0.54242 0.61738,0.46303 0.98167,1.16074 1.76286,1.35604 1.64992,0.41248 3.466,0.52749 5.15298,0.94924 3.58037,0.89509 7.95781,-1.0896 11.662,-0.67803 1.93207,0.21468 3.91273,-0.51099 5.831,-0.27121 2.46768,0.30846 5.63268,0.92494 8.00068,0.13561 0.26833,-0.0894 0.13561,-1.13481 0.13561,-1.35605 0,-3.10578 -0.17615,-6.34546 -0.67803,-9.35672 -0.40845,-2.4507 0.40682,-5.9338 0.40682,-8.5431 0,-0.95762 0.98912,-3.64138 -0.13561,-4.20375 -0.59838,-0.29919 -1.04695,-0.96917 -1.62725,-1.35604 -0.58317,-0.38878 -4.49244,-0.72905 -5.5598,-1.08484 -1.17061,-0.39021 -1.74208,-1.45622 -2.8477,-1.89847 -1.28493,-0.51397 -2.74725,-0.24753 -4.06814,-0.81362 -0.68935,-0.29544 -0.7468,-0.65705 -1.08483,-1.22045 -0.45259,-0.7543 -2.61011,-1.13377 -3.39012,-1.22044 -2.90937,-0.32326 -4.91892,1.77693 -7.86507,1.35605 -2.25412,-0.32202 -6.7154,-2.84889 -9.08552,-3.79693 -0.58543,-0.23418 -1.0466,-0.93968 -1.62725,-1.08484 -3.15414,-0.78854 -6.79114,-1.61712 -9.62794,-3.39012 -1.08744,-0.67965 -2.26517,-1.7428 -3.39012,-2.30528 -0.61875,-0.30938 -1.42501,-0.44819 -2.03407,-0.81363 -1.2881,-0.77286 -1.42891,-3.24034 -2.16967,-4.47495 -0.64046,-1.06744 -4.08424,-2.89599 -4.33935,-3.66133 -0.41204,-1.23611 -0.0477,-2.24234 0.1356,-3.52572 0.15346,-1.07423 0.6706,-7.63844 0.54242,-8.40749 -0.38317,-2.29902 -2.1254,-2.78129 -3.25451,-4.47496 -0.67654,-1.01481 -0.59674,-1.92582 -0.94923,-2.9833 0.0701,-0.987 -0.60261,-2.00436 -0.40682,-2.9833 0.35551,-1.77753 -0.0173,-2.72075 -1.89846,-3.66133 -0.65688,-0.32844 -1.54981,0.21305 -2.16968,-0.40681 -1.64413,-1.64414 -3.76884,-4.01358 -5.96661,-4.74617 -2.21099,-0.737 -3.56576,0.87142 -4.88176,0.54242 -1.41075,-0.35269 -1.70709,-1.6774 -3.25452,-1.89847 -1.85004,-0.26429 -4.05091,1.76861 -4.88177,1.49166 -3.17275,-1.05759 -2.83391,-5.37439 -3.79693,-5.6954 -0.98144,-0.32715 -4.85427,0.63725 -6.10221,0.94923 -1.11476,0.27869 -2.4097,-0.1434 -3.52572,0.13561 -1.03046,0.25761 -2.23492,0.77346 -3.39012,0.54242 -1.78108,-0.35622 -3.7701,-1.05397 -5.42419,-1.76287 -1.07468,-0.46057 -1.53256,-1.77649 -2.71209,-2.16967 -0.98792,-0.32931 -2.11857,0.38569 -3.11891,0.1356 -1.23978,-0.30994 -2.58388,-0.40927 -3.79693,-0.81362 -0.99855,-0.33286 -2.08229,-0.81545 -2.9833,-1.35605 -0.48508,-0.29105 -0.63919,-0.8862 -1.08484,-1.22044 -1.40456,-1.05343 -3.16114,-1.4746 -4.61056,-2.44089 -1.07057,-0.71371 -1.41526,-2.09672 -2.44089,-2.71209 -1.00049,-0.6003 -2.08687,-1.24685 -3.1189,-1.76286 -1.32657,-0.66329 -2.80838,-0.78741 -4.06814,-1.62726 -0.57341,-0.38227 -2.29643,-2.43203 -2.98331,-3.11891 -1.17056,-0.64754 -2.18037,-1.52408 -3.25451,-2.30528 -1.66553,-1.21129 -3.5014,-2.00974 -4.88177,-3.39011 -0.47224,-0.47225 -0.61793,-1.29596 -1.08484,-1.76287 -1.65411,-1.65411 -3.07647,-3.5045 -5.28858,-4.61056 -1.93815,-0.96907 -4.21846,-1.23516 -5.831,-2.84769 -2.13691,-2.13691 -3.9882,-5.70932 -7.18705,-6.50903 -0.72249,-0.18062 -1.44574,-0.36143 -2.16968,-0.54242 -0.95988,-0.23997 -2.2893,0.13028 -3.1189,0.40682 -1.61179,0.53726 -8.15024,-0.82759 -9.22112,-1.89847 -0.77875,-0.77875 -0.36306,-2.174 -0.67803,-3.11891 -0.41251,-1.23753 -2.6469,-2.51129 -3.52572,-3.39012 -0.77589,-0.77589 0.78032,-3.32113 0.27121,-4.33935 -0.76794,-1.53588 -2.06923,-0.98439 -3.11891,-2.03407 -0.79047,-0.79047 -0.50808,-1.79545 -0.81363,-2.71209 -0.51429,-1.54288 -2.69619,-3.85678 -4.20374,-4.61056 -1.66833,-0.83417 -6.59149,-2.33185 -8.27189,-1.49165 -1.42037,0.71018 -2.28051,3.39837 -4.33935,2.71209 -0.85388,-0.28462 -1.68318,-1.85862 -2.03407,-2.03407 -1.30784,-1.48757 -2.79511,-2.81172 -4.06814,-4.33935 -1.33896,-1.60676 -1.61959,-3.51806 -3.11891,-5.01737 -1.98408,-1.98408 -4.2488,-4.15843 -6.50902,-5.96661 -0.26798,-0.21438 -0.79599,-0.44816 -0.94924,-0.67802 -0.8628,-1.2942 -1.59978,-2.67089 -2.44088,-3.93254 -0.39754,-0.5963 -1.30637,-0.61179 -1.76286,-1.22044 -1.04584,-1.39445 -1.40525,-4.02494 -3.11891,-4.88177 -0.32285,-0.16142 -6.10438,3.02778 -8.27189,2.30528 -1.49928,-0.49976 -3.92154,-3.51473 -5.15297,-4.74616 -0.85766,-0.85766 -2.36192,-0.73466 -3.25452,-1.62726 -0.63132,-0.63133 -1.42382,-1.18651 -2.03407,-1.89847 -0.70425,-0.82162 -1.14903,-1.73285 -2.03407,-2.44088 -1.10631,-0.88505 -2.62988,-1.30942 -3.39012,-2.57649 -0.42567,-0.70946 -0.29379,-1.51988 -0.81362,-2.16968 -1.56585,-1.9573 -1.91033,-1.3086 -1.22045,-4.06814 0.39393,-1.5757 -1.57498,-3.26437 -1.89846,-4.88177 -0.0924,-0.46216 -0.15777,-2.68993 0.1356,-2.9833 0.26771,-0.26771 1.34367,-0.29597 0.94924,-1.08484 -0.11153,-0.22304 -0.4309,-0.18377 -0.54242,-0.40681 -0.96626,-1.93252 -1.95329,-3.82482 -3.25452,-5.55979 -0.37461,-0.49949 -1.5921,-1.01454 -1.76286,-1.35605 -0.8108,-1.62161 0.54649,-2.51072 1.76286,-3.11891 0.67457,-0.33728 1.35605,-0.49875 1.35605,-1.35605 0,-1.24417 -0.79631,-3.03525 -0.40681,-4.20374 0.29115,-0.87346 1.06975,-1.44641 1.35604,-2.30528 0.30838,-0.92514 0.70282,-1.84938 1.22045,-2.71209 0.40123,-0.66872 0.51558,-2.54919 1.49165,-1.89847 0.83336,-1.07822 8.7226,1.92903 9.22112,1.76286 0.3719,-0.12397 0.98189,-0.53745 1.08483,-0.94923 0.0999,-0.39961 -0.18864,-1.43561 -0.40681,-1.76286 -0.38506,-0.57759 -3.19699,-4.15547 -3.93254,-4.33935 -0.85538,-0.21385 -1.80837,-0.13561 -2.71209,-0.13561 -2.0914,0 -3.46099,-2.37615 -4.74616,-3.66133 -0.35464,-0.35463 -1.05278,-0.5503 -1.49166,-0.81362 -2.06306,-1.23784 -4.8877,-1.27825 -7.05144,-2.57649 -5.79998,-3.47999 -9.9718,-7.28393 -13.96728,-12.61124 -0.67875,-0.90499 -1.83391,-1.60273 -2.7121,-2.30528 -1.55818,-1.24654 -2.74767,-2.89514 -3.93253,-4.47495 -1.13627,-1.51502 -2.67298,-2.76946 -3.52573,-4.47496 -0.48252,-0.96506 -0.40989,-2.22002 -0.94923,-3.11891 -0.57876,-0.96459 -2.13628,-2.57649 -3.11891,-2.57649 -1.20626,-0.43798 -1.3774,-0.10072 -2.44088,0.13561 -2.17512,0.48336 -4.27231,1.64402 -6.50903,1.08484 -1.54164,-0.38541 -2.53352,-1.22045 -4.20374,-1.22045 -4.65898,0 -3.09404,2.523 -6.50903,3.66133 -1.3272,0.4424 -3.43648,-2.25961 -5.01737,-1.62726 -0.75613,0.30246 -0.93323,0.99304 -1.35605,1.62726 -0.87738,1.31608 -3.53588,0.87635 -4.74616,0.27121 -4.10943,-2.05471 0.86263,-6.33582 1.89846,-8.40749 0.23545,-0.47089 0.24536,-1.62092 0.13561,-2.16968 -0.45187,-2.25934 -3.1862,-3.63787 -4.33935,-5.55979 -1.24252,-2.07087 -0.28182,-5.48707 -1.22045,-7.05144 -0.39458,-0.65765 -2.14704,-1.08031 -2.84769,-1.22045 -1.66879,-0.33375 -2.48105,-1.83483 -3.79694,-2.71209 -0.56605,-0.37737 -2.21213,-0.59902 -2.57648,-1.08484 -0.89301,-1.19067 -0.9583,-3.06695 -1.76287,-4.47495 -0.46237,-0.80915 -1.59356,-2.64387 -1.08483,-3.66133 0.79819,-1.59638 3.52653,-1.49246 4.61056,-2.57649 0.69479,-0.69479 0.32199,-1.83038 0.54242,-2.71209 0.40347,-1.61391 -0.0279,-3.90836 -0.40682,-5.42419 -0.24333,-0.97333 -5.67312,-6.62792 -6.78023,-7.45826 -1.09482,-0.82111 -2.53894,0.0125 -3.79694,-0.40681 -0.69755,-0.23252 -0.93217,-0.71185 -1.49165,-1.08484 -0.0531,-0.0354 -0.85255,-4.91943 -0.81362,-5.15298 0.17932,-1.07593 0.40681,-2.30176 0.40681,-3.39012 0,-1.1548 -1.34882,-1.62244 -2.16968,-2.16967 -0.28598,-0.19066 -1.08483,-1.15795 -1.08483,-0.54242 -1.2869,-1.81864 -3.24802,-2.84228 -4.88177,-4.20375 -2.37011,-1.97508 -2.59645,-3.96835 -2.03407,-6.78023 0.12492,-0.62461 -0.0103,-1.34237 0.40681,-1.89847 1.01668,-1.35557 5.67521,-2.19564 7.45826,-1.89846 0.79884,0.13314 1.3876,0.56135 2.03407,0.94923 3.59265,2.15559 1.69256,4.81147 3.93254,7.05145 0.37334,0.37334 1.47441,1.63587 2.03407,1.35604 1.66386,-0.83193 -0.87377,-3.81226 -0.27121,-5.01737 1.17764,-2.3553 5.24797,2.09499 6.91584,-0.40682 2.62358,-3.93537 -5.50168,-7.43404 0.1356,-11.662 0.82412,-0.61809 5.16924,-3.84792 6.10221,-3.66133 1.19849,0.2397 1.04835,2.81122 1.89847,3.66133 0.27414,0.27414 3.32933,-0.7279 3.66133,-0.94923 0.34537,-0.23025 0.69606,-0.87148 1.08483,-0.94924 0.3658,-0.0732 2.83596,-0.68389 2.8477,-0.67802 0.64379,0.3219 1.2499,2.73571 2.16968,1.35605 1.51411,-2.27117 0.49893,-7.50689 1.49165,-9.49233 0.57275,-1.1455 1.72666,0.0724 2.57649,-1.62726 0.17963,-0.35926 0.54242,-0.38943 0.54242,-0.94923 0,-0.96449 -0.58648,-1.6679 -0.81363,-2.57649 -1.40773,-5.63092 -2.67895,-2.98431 -5.42419,-6.64463 -0.65213,-0.8695 -1.21087,-1.85259 -1.89847,-2.71209 -0.38102,-0.47628 -4.4324,-3.9219 -5.01737,-4.06814 -0.66747,-0.16687 -1.6097,0.40974 -2.44088,0.27121 -0.81841,-0.13641 -5.06545,-1.40976 -5.5598,-1.76287 -0.5768,-0.412 -0.96537,-0.8895 -1.62725,-1.220438 -0.65994,-0.329967 -1.42099,-0.176987 -1.89847,-0.813628 -1.03681,-1.382413 -0.86147,-3.653328 -1.62725,-4.61056 -0.94711,-1.183888 -4.63875,-5.022717 -4.88177,-6.237816 -0.24104,-1.205199 0.0666,-2.569275 0.27121,-3.796932 0.28121,-1.687286 -0.40718,-3.117831 0.1356,-4.746164 -0.47298,-0.760685 0.7907,-3.448945 -0.27121,-3.661327 -1.4118,-0.28236 -5.97715,1.86424 -7.32265,2.440885 -1.85281,0.794061 -6.75794,1.333751 -7.86508,2.440884 -0.16107,0.161074 -1.47482,0.02039 -1.76286,0.135605 -2.35652,0.942607 -4.41431,2.232846 -6.91584,2.983303 -1.20678,0.362034 -4.43479,0.774707 -5.831,0.949233 -1.04186,0.130233 -2.10945,-0.116758 -3.11891,0.135605 -1.45128,0.362821 -3.7557,1.204713 -5.28858,0.949233 -0.93823,-0.156372 -2.06725,0.09341 -2.9833,-0.135605 -1.04875,-0.262186 -1.87869,-0.542419 -2.98331,-0.542419 -2.44917,0 -4.69227,-0.370889 -6.78023,-1.762861 -0.91486,-0.609908 -1.6399,-1.607721 -2.57649,-2.169675 -1.84539,-1.107234 -3.66708,-2.308155 -5.55979,-3.254513 -0.9449,-0.472451 -0.94335,0.417256 -0.60683,1.014081 z"
       id="path14359-1-7-5-3-0-73-1-9-8-5-1-4-1-319-0"
       inkscape:connector-curvature="0"
       sodipodi:nodetypes="ccsssscssssssssscssssssssssscsssssssssssssscssssssssscsssssssssssssssssssssscsssssssssssssscssssssssssssssssssssssssscsssssssssssssssssssssssssssssssssssssscssssssssssssssssssssssssscsssssssssssscssssssssssscsssssssssssssssssssssssssscsssssssssssssssssssssssssssssssssssssssssssssssssssssssssssssssssssscssssssssssssssssssscsssssssssssssssssssssssssssssssscssssssssssssssssssssscssssssssssssssssscsssssssssssssssssssssssssscssssssssssssscssssssssssssssssssssssssscsscsssssssssssssssssssssssssssc" />
    <path
       sodipodi:nodetypes="ccsssscssssssssscssssssssssscsssssssssssssscssssssssscsssssssssssssssssssssscsssssssssssssscssssssssssssssssssssssssscsssssssssssssssssssssssssssssssssssssscssssssssssssssssssssssssscsssssssssssscssssssssssscsssssssssssssssssssssssssscsssssssssssssssssssssssssssssssssssssssssssssssssssssssssssssssssssscssssssssssssssssssscsssssssssssssssssssssssssssssssscssssssssssssssssssssscssssssssssssssssscsssssssssssssssssssssssssscssssssssssssscssssssssssssssssssssssssscsscsssssssssssssssssssssssssssc"
       inkscape:connector-curvature="0"
       id="path14359-1-7-5-3-0-73-1-9-8-5-1-4-1-319-0-3"
       d="m 166.18695,79.257991 2.9853,4.70399 c 0.40404,2.44635 -1.12088,4.08634 -2.51408,5.94393 -0.25526,0.34035 -0.70432,0.64762 -0.81363,1.08484 -0.30372,1.21489 -0.58156,2.69394 -0.94923,3.79693 -0.21852,0.65558 -1.52683,1.0196 -1.89846,1.76286 -0.22648,0.45295 0.0269,1.13985 -0.13561,1.62726 -0.60822,1.824659 -2.41178,6.901279 -4.06814,7.729459 -1.66477,0.83238 -3.76464,0.72968 -5.55979,1.62725 -0.70377,0.35189 -0.96659,1.37341 -1.49165,1.89847 -0.33891,0.33891 -0.88154,0.61033 -1.22045,0.94923 -0.60931,0.60932 -0.87792,1.48464 -1.22044,2.16968 -0.42368,0.84737 -1.82413,1.13303 -2.16967,2.16967 -0.31883,0.95649 0.0642,2.04126 -0.40682,2.98331 -0.23389,0.46778 -1.05698,0.73006 -1.22044,1.22044 -0.66932,2.00795 -2.40093,4.0082 -3.52572,5.6954 -0.2002,0.30029 -0.75479,0.61918 -0.94924,0.81362 -2.64263,2.64264 -2.13453,0.25364 -3.79693,1.08484 -1.14128,0.57065 -1.10015,1.50697 -1.89846,2.30528 -0.25771,0.25771 -0.63444,0.45525 -0.81363,0.81363 -0.93318,1.86636 1.22036,3.11907 0.27121,5.01737 -0.58247,1.16494 -6.18496,3.69123 -6.78024,4.88177 -0.13539,0.27078 -0.44633,1.00581 -0.27121,1.35605 0.52194,1.04386 0.24911,2.39668 0.54242,2.9833 0.48928,0.97855 0.8094,1.90693 0.27121,2.98331 -0.16272,0.32545 0.16273,0.89499 0,1.22044 -0.62499,1.24999 -3.67579,6.20888 -2.9833,7.59386 0.52132,1.04264 1.40205,0.81605 1.89847,2.30528 0.35659,1.06977 -0.36583,2.52287 0.1356,3.52572 -0.65462,1.56152 -1.53199,3.03374 -2.57649,4.33935 -1.04574,1.30717 -1.64376,2.86834 -2.71209,4.20376 -0.41512,0.51889 -1.16868,0.92954 -1.35605,1.49165 -0.36885,1.10654 1.48836,2.19285 2.03407,2.8477 1.05403,1.26484 1.084,2.98218 1.89847,4.06813 0.87346,1.16461 1.86169,0.5631 2.84769,1.22044 0.84935,0.56623 0.91971,1.92909 1.89847,2.7121 1.45115,1.16092 3.28709,3.29239 2.57649,5.42419 -0.52898,1.58693 -4.09855,0.38462 -5.01737,1.76286 -1.3483,2.02244 3.05828,3.68446 1.62725,5.831 -0.40034,0.60052 -1.46063,1.06157 -2.03407,1.49165 -0.56816,0.42612 -2.13935,1.84316 -2.71209,2.03407 -1.9584,0.6528 -4.27524,0.15944 -6.23782,0.81363 -0.24107,0.0804 -2.93552,3.15119 -2.9833,3.39012 -0.13793,0.68963 0.002,1.14906 -0.40682,1.76286 -0.75979,1.13968 -2.81579,0.83357 -3.79693,2.30528 -0.93927,1.40891 -1.66888,2.88932 -2.9833,4.20374 -0.89962,0.89962 -2.1477,1.01892 -2.57649,2.30528 -0.58721,1.76163 3.04871,3.66611 1.49165,6.78024 -0.4643,0.9286 -3.72157,0.98939 -4.88177,1.76286 -0.48271,0.32181 -0.74527,0.90329 -1.08483,1.35605 -0.50842,0.67789 -1.29387,1.19496 -1.762869,1.89846 -1.255199,1.8828 -1.642413,4.15868 -2.847698,5.96661 -0.58176,0.87264 -1.947915,1.46293 -2.847698,1.76285 -0.712726,0.23758 -1.645408,1.50981 -2.169675,2.03408 -2.148486,2.01894 -4.467234,3.68449 -3.390118,6.91584 0.376608,1.12982 1.501037,1.20167 0.813629,2.57649 -0.892043,1.78408 -2.685115,2.72132 -3.796932,4.20374 -0.840655,1.12088 -1.43405,2.24768 -2.440885,3.25452 -0.678419,0.67842 -1.610479,0.92406 -2.169675,1.76286 -0.167057,0.25058 -0.35792,1.0092 -0.271209,1.35604 0.186205,0.74483 1.081686,1.21625 1.491652,1.76287 0.411786,0.54904 0.936643,1.46647 1.220442,2.03407 0.465995,0.93199 3.164903,0.76882 4.068141,1.22044 0.928946,0.46447 1.579287,1.5363 2.712094,1.76286 1.299694,0.25994 2.706038,-0.30662 4.474955,0.1356 0.815991,0.204 1.796176,2.05073 2.847697,2.57649 0.640809,0.32041 1.486833,-0.092 2.169675,0.13561 0.543543,0.18118 0.74136,0.92514 1.220443,1.08484 0.297971,0.0993 0.633641,0.0304 0.949231,0.1356 1.73843,0.57948 2.96374,-2.3118 5.01738,-1.62726 1.06936,0.35646 1.08883,1.83267 2.03407,2.30528 2.03459,1.0173 4.79773,-1.21089 6.50902,1.35605 1.25265,1.87896 1.79334,3.78678 4.20375,2.9833 0.42391,-0.1413 1.09709,0.0617 1.49165,-0.1356 0.87609,-0.43804 1.90071,-0.61583 2.30528,-1.62726 1.18543,-2.96357 -2.02422,-7.64563 1.76286,-10.17035 0.87584,-0.58389 1.31147,-0.94923 2.03407,-0.94923 2.09957,1.10226 5.00222,-0.1447 7.05145,1.08484 2.06006,1.23603 1.39387,3.60137 2.16967,5.15297 0.87772,1.75544 4.39997,2.19999 5.96661,2.98331 1.75958,0.87979 2.79601,3.63548 4.47495,4.47495 1.77558,0.88779 3.34042,-0.31551 5.15298,-0.67802 2.50635,-0.50127 5.24493,-0.0667 7.32266,1.49165 1.30946,0.9821 1.88055,3.01656 3.25451,3.93254 0.97625,0.65083 2.34559,0.63037 3.25451,1.08483 0.69504,0.34752 0.43993,0.98236 0.81363,1.35605 0.72305,0.72305 2.2955,0.51307 2.71209,1.76286 0.50246,1.50738 -0.30417,3.97562 1.08484,5.01738 1.03892,0.77919 5.07392,-0.21467 6.23782,0.94923 2.80989,2.80989 0.0216,4.24688 1.49165,7.18705 0.64508,1.29017 2.18369,0.96324 2.9833,1.76286 0.59785,0.59785 2.31269,1.90217 3.11891,2.30528 0.28954,1.0946 1.46833,2.34271 2.57648,2.71209 1.34837,0.44946 2.88779,0.37498 4.20375,0.81363 0.95958,0.31986 1.3253,1.20507 2.16967,1.62726 0.5434,0.2717 1.25858,-0.42659 1.89847,0 0.76116,0.50744 2.87703,3.85283 4.06814,4.74616 1.13662,0.85247 2.37541,2.01225 3.66132,2.44089 0.33342,0.11113 0.77441,-0.0196 1.08484,0.1356 0.46641,0.23321 0.19403,1.6085 0.40682,2.03407 0.29931,0.59862 1.6079,0.53758 2.16967,0.67802 0.28464,0.0712 1.98055,3.24828 2.71209,3.79694 1.36427,1.02319 2.94325,1.31599 4.06815,2.44088 0.55075,0.55076 0.0891,1.58077 0.67802,2.16968 1.0243,1.0243 2.76844,1.87554 3.39012,3.1189 0.96009,1.92019 -1.23094,3.91155 -0.54242,5.28859 0.33592,0.67185 1.27232,1.15674 1.49165,2.03407 0.0962,0.3846 -0.2888,1.88088 -0.13561,2.03407 0.38737,0.38736 1.25971,0.3747 1.76287,0.54242 0.8323,0.27743 1.93366,1.1602 2.71209,1.62725 1.82475,1.09486 2.66387,4.65425 4.47495,5.5598 0.78837,0.39418 1.84214,-0.36718 2.8477,0.1356 0.4904,0.2452 0.71758,1.05433 1.22045,1.35605 1.96784,1.1807 3.44477,2.65848 4.74616,4.61056 0.43689,0.65534 0.51267,1.4619 1.08484,2.03407 0.68039,0.68039 1.71788,-1.59705 2.44088,-1.35605 0.39019,0.13007 7.91003,-0.43678 8.27189,-0.67802 0.83833,-0.55889 5.3061,-2.06911 5.01737,-1.49165 0.97479,-0.88591 2.6154,-1.25935 3.52572,-2.16968 1.29651,-1.2965 2.29658,-5.35203 3.52573,-5.96661 0.66857,-0.33428 1.50523,-0.14239 2.03407,-0.40681 0.34724,-0.17362 1.64237,-0.33145 2.03407,-0.1356 2.00893,1.00446 1.04717,4.25271 2.57649,5.01737 1.41193,0.70597 4.74649,-1.89825 6.78023,-0.54242 1.76155,1.17437 1.45976,3.73314 2.16968,5.15298 0.428,0.85601 1.94533,1.37948 2.71209,1.76286 0.86008,0.43004 2.09402,-0.54242 2.8477,-0.54242 0.73266,0 5.33217,0.58843 5.42419,0.54242 0.89726,-0.44863 1.69498,-1.23737 2.71209,-1.49165 1.09408,-0.27352 2.97584,0.0954 3.93254,-0.54242 1.26879,-0.84586 1.96888,-2.71733 2.57649,-3.93254 0.38859,-0.77719 1.28653,-1.21701 1.62725,-1.89846 0.35038,-0.70076 0.15762,-0.68536 0.94924,-0.94924 0.0397,-0.0132 0.16208,-0.24473 0.27121,-0.1356 0.76418,0.76419 1.07287,1.18355 2.30528,1.49165 1.20365,0.30091 2.1696,-0.54247 3.25451,0.27121 0.78835,0.59126 0.65995,1.43745 0.94923,2.30528 0.38804,1.16413 2.30769,1.42746 2.9833,2.44089 0.29269,0.43902 0.26697,5.97084 0,6.23781 -0.19324,0.19325 -1.4282,0.10388 -1.76286,0.27121 -0.50971,0.25486 -0.55208,0.88626 -0.94923,1.08484 -0.77822,0.38911 -3.09978,1.31779 -3.52572,2.16967 -0.0914,0.18269 1.84784,3.91628 2.03407,4.47496 0.56727,1.70182 0.4396,6.54181 1.49165,7.59386 0.78638,0.78639 2.59037,1.17346 3.25451,2.16968 0.53278,0.79916 0.12387,1.59204 0.40682,2.44088 0.21088,0.63265 0.86485,1.10291 1.08483,1.76286 0.21003,0.63008 -0.63766,1.99371 -0.94923,2.30528 -0.18366,0.18366 0.1727,1.49773 -1.08484,2.44089 -1.02058,0.76544 -3.91302,2.53746 -4.47495,3.66132 -0.63927,1.27854 0.44877,2.81547 0.1356,4.06814 -0.24807,0.99229 -2.47909,1.55084 -1.49165,3.52573 0.20814,0.41628 0.76482,0.92935 1.08484,1.35604 0.74196,0.98928 1.27462,3.30901 0.94923,4.61056 -0.31669,1.26676 -3.57426,5.91807 -2.30528,7.18705 1.57677,1.57677 3.03363,-0.88726 4.88177,-0.27121 0.55063,0.18355 3.05644,2.64963 3.39012,2.98331 1.53445,2.27558 2.68333,-0.76021 4.47495,0.1356 0.49907,0.24953 0.50894,0.91575 0.81363,1.22044 0.51379,0.51379 2.5609,-1.51763 4.20375,1.22045 0.78453,1.30755 1.38632,3.30058 1.62725,4.74616 0.19527,1.17157 0.0338,2.40668 0.40682,3.52572 0.26284,0.78852 1.03793,1.35348 1.49165,2.03407 0.23955,0.35932 0.36936,0.91178 0.67802,1.22044 0.84798,0.84798 1.55388,1.82509 2.44089,2.7121 0.27307,0.27307 0.78319,0.25599 1.08484,0.40681 1.37373,0.68687 2.65616,1.10067 3.66132,2.44089 1.26645,1.6886 -0.71317,3.60275 0.13561,5.01737 0.98168,1.63614 2.54394,-0.1356 3.79693,-0.1356 0.22729,0 0.79071,0.24829 0.94923,0.40681 0.64026,0.64026 0.97921,1.52163 1.62726,2.16968 0.7159,0.7159 2.31726,1.53959 2.57649,2.57648 0.40791,1.63165 -1.85555,3.74716 -1.08484,5.28859 0.73767,1.47534 2.23299,0.38887 2.8477,2.8477 0.12083,0.48332 0.40091,1.10845 0.27121,1.62725 -0.36769,1.47074 -1.89811,3.11998 -1.35605,4.74617 0.44799,1.34398 5.57691,-0.18697 4.47496,3.11891 -0.76152,2.28456 -4.56456,4.01974 -4.74617,4.74616 -0.29637,1.1855 1.32452,2.08243 1.89847,2.8477 1.01749,1.35666 1.77464,4.99382 0.94923,6.64463 -0.35479,0.70959 -2.78795,0.90039 -3.52572,1.08484 -0.86928,0.21731 -1.62879,1.28862 -2.44089,1.49165 -2.05542,0.51385 -3.39011,2.45435 -3.39011,4.47495 0.49147,0.93528 -0.17923,2.17443 0.1356,3.11891 0.50893,1.52679 1.75203,2.22384 1.35605,4.20375 -0.0777,0.38861 -1.86502,4.88238 -2.16968,5.28858 -0.42051,0.56068 -1.3457,1.03313 -1.49165,1.76286 -0.0525,0.26253 -0.36034,1.31339 -0.27121,1.49165 0.36026,0.72052 1.89532,3.61403 2.57649,4.06814 0.62631,0.41755 1.52719,0.35678 2.16968,0.67803 1.56145,0.78072 3.37324,2.3734 3.79693,4.06814 0.86391,3.45566 -3.423,3.99829 -4.20375,5.55979 -0.24581,0.49163 2.16968,0.38848 2.16968,1.89847 0,0.47903 -0.47339,2.22145 0,2.57649 1.55201,1.164 3.14876,2.49603 5.01737,3.1189 0.5879,0.19597 1.36155,0.003 1.89847,0.27121 1.22206,0.61103 2.51278,1.5276 3.79693,2.16968 0.75906,0.37953 1.9112,0.27758 2.71209,0.67802 0.55126,0.27563 0.94055,0.80929 1.49165,1.08484 0.51518,0.25759 1.33421,0.38497 1.76286,0.81363 1.27779,1.27778 1.80911,3.84318 2.8477,4.88177 0.92805,0.92804 2.26406,-0.0884 3.25452,0.40681 0.3363,0.16815 0.80005,0.697 1.22044,0.94923 1.19913,0.71948 1.7474,3.02792 2.44088,4.06814 0.40156,0.60234 0.8264,0.76499 1.22045,1.35605 0.26814,0.40221 0.0878,1.1726 0.40681,1.49165 0.45343,0.45344 1.38787,1.04472 1.62726,1.76286 0.29579,0.88739 -0.0329,1.93538 0.27121,2.8477 0.62411,1.71314 0.424,3.2889 1.22044,4.88177 0.0321,0.0642 0.94096,0.58211 1.08483,0.67802 0.81006,0.54004 1.8387,2.05014 2.30528,2.98331 0.37338,0.74675 0.91823,2.01466 1.08484,2.8477 0.15436,0.7718 -0.0718,2.34513 0.40682,2.9833 0.92399,1.23199 2.13327,1.59085 3.1189,2.57649 0.96684,0.96683 0.63884,2.58551 1.35605,3.66133 1.15662,1.73493 1.73813,3.6982 3.11891,5.42418 0.30025,0.37532 0.9866,1.71375 1.35605,1.89847 0.46749,0.23375 1.45335,0.34937 1.76286,0.81363 1.11158,1.66737 2.01344,4.09959 3.79693,5.28858 1.06121,0.70748 2.76906,-0.21424 4.06814,1.08484 0.67334,0.67334 0.57776,1.83354 0.94923,2.57649 0.45813,0.91626 1.69968,0.82286 2.16968,1.76286 0.5226,1.0452 -0.58603,1.85485 0.40681,2.8477 0.38365,0.38365 7.2613,2.54581 8.6787,3.25451 0.27346,0.13673 1.31507,-0.28487 1.76286,-0.1356 1.30804,0.43601 2.11779,2.2584 3.39012,2.57649 1.2687,0.31717 2.23442,-0.83135 3.39012,-0.54242 1.1249,0.28122 1.21012,1.3811 2.44088,1.62725 1.39704,0.27941 2.25035,-0.4337 3.39012,-0.81363 1.41664,-0.47221 3.09175,0.34581 4.47496,0 0.8043,-0.20107 1.67168,-0.42162 2.44088,-0.67802 1.41182,-0.47061 6.00066,0.64459 6.50903,2.16968 1.13481,3.40444 -1.8529,2.39752 -1.08484,6.23781 0.15576,0.77881 1.48551,1.55024 1.89846,2.16968 1.16134,1.74201 2.8477,3.91907 2.8477,6.10221 -0.75448,2.18473 -0.3104,3.33133 0.81363,5.01737 0.50224,0.75337 0.70496,1.6542 1.35605,2.30528 0.73004,0.73004 2.24434,-0.66034 3.11891,-0.1356 0.94572,0.56743 2.9216,2.81074 4.20374,2.16967 1.95313,-0.97656 -0.5039,-5.1915 1.49165,-7.18705 1.11651,-1.11651 5.09928,-2.06228 5.5598,-2.9833 0.59205,-1.1841 -2.9389,-2.66531 -1.35605,-5.831 0.89537,-1.79075 3.67802,-2.27121 5.15298,-3.25451 0.60678,-0.40452 0.95252,-1.35934 1.49165,-1.89847 0.18795,-0.18795 0.54201,-0.2704 0.67802,-0.54242 0.89814,-1.79628 -2.06857,-2.87979 -1.49165,-4.61056 0.26344,-0.79031 1.27458,-1.38303 1.76286,-2.03407 0.33835,-0.45113 1.38787,-2.75224 1.22044,-3.25451 -0.46949,-1.40847 -2.12875,-0.18295 -3.1189,-0.67803 -0.41478,-0.20738 -0.49805,-0.90485 -0.81363,-1.22044 -0.82129,-0.82129 -2.71474,-1.76352 -3.79693,-2.03407 -1.02291,-0.25572 -2.19007,0.28141 -2.98331,0.67803 -1.24622,0.62311 -1.48083,-1.14994 -2.30528,-1.35605 -1.10731,-0.27683 -2.87118,0.21035 -3.79693,-0.40682 -1.24789,-0.83192 -3.14642,-2.21552 -3.93253,-3.52572 -0.47764,-0.79605 -0.70327,-2.52762 -1.49166,-3.11891 -0.50758,-0.38068 -1.45002,-0.5216 -2.03407,-0.81362 -1.68728,-0.84364 -4.13242,-2.67291 -5.15298,-4.20375 -0.65055,-0.97582 -1.32094,-2.87321 -1.49165,-4.06814 -0.13698,-0.95889 0.68401,-2.0221 0.27121,-2.8477 -0.23511,-0.47022 -0.64966,-0.99975 -0.81363,-1.49165 -0.25257,-0.75772 0.61708,-1.79334 -0.40681,-2.30528 -0.48201,-0.241 -0.80942,0.76562 -1.08484,0.94923 -0.55223,0.36816 -2.29318,0.5515 -2.8477,0.13561 -1.38397,-1.03798 -3.32298,-6.35105 -3.79693,-6.50903 -0.63178,-0.21059 -4.02373,0.85804 -4.20374,0.67803 -1.01807,-1.01807 -1.40154,-2.13346 -3.25452,-1.76287 -3.67356,0.73472 -5.16582,2.78537 -7.86507,-0.81362 -2.11532,-2.82043 -1.28615,-5.52903 0.54242,-8.27189 0.28958,-0.43438 0.35674,-1.30598 0.67802,-1.62726 0.57647,-0.57646 1.39835,-0.44911 2.03407,-1.08483 0.53659,-0.53659 0.72643,-1.779 1.49166,-2.03407 1.70689,-0.56897 4.08145,1.01037 5.831,0.1356 0.91083,-0.45542 -0.44731,-4.37678 0.94923,-5.42419 1.7916,-1.3437 4.4802,-0.44203 6.50903,-0.94923 1.36846,-0.34212 1.04162,-2.08325 1.49165,-2.9833 0.31929,-0.6386 2.54079,-2.35524 3.25451,-2.7121 0.38389,-0.19194 1.04195,-0.1356 1.49165,-0.1356 3.02359,0 2.02866,1.2736 3.79693,1.62725 0.62424,0.12485 1.24112,0.13561 1.89847,0.13561 2.24284,0 6.02261,-2.61953 7.59386,-2.30528 0.7654,0.15308 1.55958,0.56506 2.30528,0.81363 1.10196,0.36732 2.21747,0.7705 3.11891,1.49165 0.51101,0.4088 0.96191,1.22678 1.49165,1.49165 0.69934,0.34967 1.4847,0.70671 2.16968,1.22044 0.70312,0.52735 1.37779,1.61105 1.89846,2.30528 0.38162,0.50882 3.90757,2.21072 4.47496,2.30528 2.00516,0.3342 3.86325,-0.99344 5.42419,-2.03407 0.60816,-0.40544 0.92898,-1.27506 1.08483,-1.89846 0.12237,-0.48949 0.84925,-0.73146 1.08484,-1.08484 0.51772,-0.77657 1.83152,-3.45707 1.08484,-4.20375 -2.30742,-2.30742 -3.36345,-0.23064 -5.15298,-0.67802 -0.82211,-0.20553 -1.75726,0.0692 -2.57649,-0.13561 -1.22184,-0.30545 -2.25403,-1.20763 -3.39012,-1.49165 -1.46579,-0.36645 -3.55086,0.44597 -5.42418,-0.67802 -1.46474,-0.87884 -2.81653,-3.67692 -0.67803,-4.74617 1.1183,-0.55914 2.8477,-0.3464 2.8477,-2.16967 0,-1.15146 -2.18912,-2.11135 -1.76286,-3.39012 0.0306,-0.0919 0.23542,-0.62434 0.27121,-0.67802 0.23642,-0.35464 2.63058,-2.11533 3.11891,-2.44089 0.34983,-0.23322 0.58879,-1.04022 0.94923,-1.22044 1.45471,-0.72735 4.63047,0.53246 5.96661,-0.1356 0.39933,-0.19967 2.36963,-0.60677 2.44088,-0.67803 0.65966,-0.65965 1.59998,-1.07119 2.44089,-1.49165 0.48543,-1.00566 0.71794,-2.11391 1.22044,-3.11891 0.32983,-0.65966 1.06821,-2.49075 0.81363,-3.25451 -0.86302,-2.58905 -1.61707,-5.95641 -3.66133,-8.00068 -1.74704,-1.74704 -4.61056,-1.49138 -4.61056,-4.88177 0,-0.28176 -0.1271,-0.96625 0,-1.22044 1.31493,-2.62986 7.51438,-2.97551 9.76354,-4.47495 1.95616,-1.30411 0.91805,-3.32776 1.76286,-5.01738 0.68671,-1.37341 3.50511,-2.74897 4.47495,-4.20374 0.9436,-1.4154 -0.1038,-3.45372 0.54242,-4.74617 0.1341,-0.26819 0.58886,-0.54614 0.67803,-0.81362 0.1783,-0.53492 0.0287,-1.12307 0.40681,-1.62726 0.29871,-0.39828 2.93114,-3.77954 3.39012,-3.93254 0.54521,-0.18174 1.67048,0.10481 2.16967,0.27121 2.02957,0.67652 5.32423,3.5327 5.831,5.55979 0.63037,2.52147 -0.91082,5.90782 0.27121,8.27189 0.46461,0.92922 1.47956,2.42879 2.16968,3.11891 0.42997,0.42997 5.90936,2.3339 6.50902,2.03407 0.95316,-0.47658 1.84267,-0.67802 2.98331,-0.67802 0.6064,0 1.715,-0.19676 2.30528,0 0.57556,0.19185 1.21566,0.54242 1.89846,0.54242 4.02571,0.65721 7.81781,1.47814 11.66201,2.57648 1.33426,0.38122 2.96234,0.31292 4.33935,0.54242 1.5738,0.2623 2.90321,1.32401 4.33935,1.89847 2.32024,0.92809 4.7964,1.72018 7.05144,2.8477 1.28439,0.64219 3.12206,0.0351 4.47496,0.54242 0.42532,0.15949 1.10779,0.25452 1.49165,0.54242 0.61738,0.46303 0.98167,1.16074 1.76286,1.35604 1.64992,0.41248 3.466,0.52749 5.15298,0.94924 3.58037,0.89509 7.95781,-1.0896 11.662,-0.67803 1.93207,0.21468 3.91273,-0.51099 5.831,-0.27121 2.46768,0.30846 5.63268,0.92494 8.00068,0.13561 0.26833,-0.0894 0.13561,-1.13481 0.13561,-1.35605 0,-3.10578 -0.17615,-6.34546 -0.67803,-9.35672 -0.40845,-2.4507 0.40682,-5.9338 0.40682,-8.5431 0,-0.95762 0.98912,-3.64138 -0.13561,-4.20375 -0.59838,-0.29919 -1.04695,-0.96917 -1.62725,-1.35604 -0.58317,-0.38878 -4.49244,-0.72905 -5.5598,-1.08484 -1.17061,-0.39021 -1.74208,-1.45622 -2.8477,-1.89847 -1.28493,-0.51397 -2.74725,-0.24753 -4.06814,-0.81362 -0.68935,-0.29544 -0.7468,-0.65705 -1.08483,-1.22045 -0.45259,-0.7543 -2.61011,-1.13377 -3.39012,-1.22044 -2.90937,-0.32326 -4.91892,1.77693 -7.86507,1.35605 -2.25412,-0.32202 -6.7154,-2.84889 -9.08552,-3.79693 -0.58543,-0.23418 -1.0466,-0.93968 -1.62725,-1.08484 -3.15414,-0.78854 -6.79114,-1.61712 -9.62794,-3.39012 -1.08744,-0.67965 -2.26517,-1.7428 -3.39012,-2.30528 -0.61875,-0.30938 -1.42501,-0.44819 -2.03407,-0.81363 -1.2881,-0.77286 -1.42891,-3.24034 -2.16967,-4.47495 -0.64046,-1.06744 -4.08424,-2.89599 -4.33935,-3.66133 -0.41204,-1.23611 -0.0477,-2.24234 0.1356,-3.52572 0.15346,-1.07423 0.6706,-7.63844 0.54242,-8.40749 -0.38317,-2.29902 -2.1254,-2.78129 -3.25451,-4.47496 -0.67654,-1.01481 -0.59674,-1.92582 -0.94923,-2.9833 0.0701,-0.987 -0.60261,-2.00436 -0.40682,-2.9833 0.35551,-1.77753 -0.0173,-2.72075 -1.89846,-3.66133 -0.65688,-0.32844 -1.54981,0.21305 -2.16968,-0.40681 -1.64413,-1.64414 -3.76884,-4.01358 -5.96661,-4.74617 -2.21099,-0.737 -3.56576,0.87142 -4.88176,0.54242 -1.41075,-0.35269 -1.70709,-1.6774 -3.25452,-1.89847 -1.85004,-0.26429 -4.05091,1.76861 -4.88177,1.49166 -3.17275,-1.05759 -2.83391,-5.37439 -3.79693,-5.6954 -0.98144,-0.32715 -4.85427,0.63725 -6.10221,0.94923 -1.11476,0.27869 -2.4097,-0.1434 -3.52572,0.13561 -1.03046,0.25761 -2.23492,0.77346 -3.39012,0.54242 -1.78108,-0.35622 -3.7701,-1.05397 -5.42419,-1.76287 -1.07468,-0.46057 -1.53256,-1.77649 -2.71209,-2.16967 -0.98792,-0.32931 -2.11857,0.38569 -3.11891,0.1356 -1.23978,-0.30994 -2.58388,-0.40927 -3.79693,-0.81362 -0.99855,-0.33286 -2.08229,-0.81545 -2.9833,-1.35605 -0.48508,-0.29105 -0.63919,-0.8862 -1.08484,-1.22044 -1.40456,-1.05343 -3.16114,-1.4746 -4.61056,-2.44089 -1.07057,-0.71371 -1.41526,-2.09672 -2.44089,-2.71209 -1.00049,-0.6003 -2.08687,-1.24685 -3.1189,-1.76286 -1.32657,-0.66329 -2.80838,-0.78741 -4.06814,-1.62726 -0.57341,-0.38227 -2.29643,-2.43203 -2.98331,-3.11891 -1.17056,-0.64754 -2.18037,-1.52408 -3.25451,-2.30528 -1.66553,-1.21129 -3.5014,-2.00974 -4.88177,-3.39011 -0.47224,-0.47225 -0.61793,-1.29596 -1.08484,-1.76287 -1.65411,-1.65411 -3.07647,-3.5045 -5.28858,-4.61056 -1.93815,-0.96907 -4.21846,-1.23516 -5.831,-2.84769 -2.13691,-2.13691 -3.9882,-5.70932 -7.18705,-6.50903 -0.72249,-0.18062 -1.44574,-0.36143 -2.16968,-0.54242 -0.95988,-0.23997 -2.2893,0.13028 -3.1189,0.40682 -1.61179,0.53726 -8.15024,-0.82759 -9.22112,-1.89847 -0.77875,-0.77875 -0.36306,-2.174 -0.67803,-3.11891 -0.41251,-1.23753 -2.6469,-2.51129 -3.52572,-3.39012 -0.77589,-0.77589 0.78032,-3.32113 0.27121,-4.33935 -0.76794,-1.53588 -2.06923,-0.98439 -3.11891,-2.03407 -0.79047,-0.79047 -0.50808,-1.79545 -0.81363,-2.71209 -0.51429,-1.54288 -2.69619,-3.85678 -4.20374,-4.61056 -1.66833,-0.83417 -6.59149,-2.33185 -8.27189,-1.49165 -1.42037,0.71018 -2.28051,3.39837 -4.33935,2.71209 -0.85388,-0.28462 -1.68318,-1.85862 -2.03407,-2.03407 -1.30784,-1.48757 -2.79511,-2.81172 -4.06814,-4.33935 -1.33896,-1.60676 -1.61959,-3.51806 -3.11891,-5.01737 -1.98408,-1.98408 -4.2488,-4.15843 -6.50902,-5.96661 -0.26798,-0.21438 -0.79599,-0.44816 -0.94924,-0.67802 -0.8628,-1.2942 -1.59978,-2.67089 -2.44088,-3.93254 -0.39754,-0.5963 -1.30637,-0.61179 -1.76286,-1.22044 -1.04584,-1.39445 -1.40525,-4.02494 -3.11891,-4.88177 -0.32285,-0.16142 -6.10438,3.02778 -8.27189,2.30528 -1.49928,-0.49976 -3.92154,-3.51473 -5.15297,-4.74616 -0.85766,-0.85766 -2.36192,-0.73466 -3.25452,-1.62726 -0.63132,-0.63133 -1.42382,-1.18651 -2.03407,-1.89847 -0.70425,-0.82162 -1.14903,-1.73285 -2.03407,-2.44088 -1.10631,-0.88505 -2.62988,-1.30942 -3.39012,-2.57649 -0.42567,-0.70946 -0.29379,-1.51988 -0.81362,-2.16968 -1.56585,-1.9573 -1.91033,-1.3086 -1.22045,-4.06814 0.39393,-1.5757 -1.57498,-3.26437 -1.89846,-4.88177 -0.0924,-0.46216 -0.15777,-2.68993 0.1356,-2.9833 0.26771,-0.26771 1.34367,-0.29597 0.94924,-1.08484 -0.11153,-0.22304 -0.4309,-0.18377 -0.54242,-0.40681 -0.96626,-1.93252 -1.95329,-3.82482 -3.25452,-5.55979 -0.37461,-0.49949 -1.5921,-1.01454 -1.76286,-1.35605 -0.8108,-1.62161 0.54649,-2.51072 1.76286,-3.11891 0.67457,-0.33728 1.35605,-0.49875 1.35605,-1.35605 0,-1.24417 -0.79631,-3.03525 -0.40681,-4.20374 0.29115,-0.87346 1.06975,-1.44641 1.35604,-2.30528 0.30838,-0.92514 0.70282,-1.84938 1.22045,-2.71209 0.40123,-0.66872 0.51558,-2.54919 1.49165,-1.89847 0.83336,-1.07822 8.7226,1.92903 9.22112,1.76286 0.3719,-0.12397 0.98189,-0.53745 1.08483,-0.94923 0.0999,-0.39961 -0.18864,-1.43561 -0.40681,-1.76286 -0.38506,-0.57759 -3.19699,-4.15547 -3.93254,-4.33935 -0.85538,-0.21385 -1.80837,-0.13561 -2.71209,-0.13561 -2.0914,0 -3.46099,-2.37615 -4.74616,-3.66133 -0.35464,-0.35463 -1.05278,-0.5503 -1.49166,-0.81362 -2.06306,-1.23784 -4.8877,-1.27825 -7.05144,-2.57649 -5.79998,-3.47999 -9.9718,-7.28393 -13.96728,-12.61124 -0.67875,-0.90499 -1.83391,-1.60273 -2.7121,-2.30528 -1.55818,-1.24654 -2.74767,-2.89514 -3.93253,-4.47495 -1.13627,-1.51502 -2.67298,-2.76946 -3.52573,-4.47496 -0.48252,-0.96506 -0.40989,-2.22002 -0.94923,-3.11891 -0.57876,-0.96459 -2.13628,-2.57649 -3.11891,-2.57649 -1.20626,-0.43798 -1.3774,-0.10072 -2.44088,0.13561 -2.17512,0.48336 -4.27231,1.64402 -6.50903,1.08484 -1.54164,-0.38541 -2.53352,-1.22045 -4.20374,-1.22045 -4.65898,0 -3.09404,2.523 -6.50903,3.66133 -1.3272,0.4424 -3.43648,-2.25961 -5.01737,-1.62726 -0.75613,0.30246 -0.93323,0.99304 -1.35605,1.62726 -0.87738,1.31608 -3.53588,0.87635 -4.74616,0.27121 -4.10943,-2.05471 0.86263,-6.33582 1.89846,-8.40749 0.23545,-0.47089 0.24536,-1.62092 0.13561,-2.16968 -0.45187,-2.25934 -3.1862,-3.63787 -4.33935,-5.55979 -1.24252,-2.07087 -0.28182,-5.48707 -1.22045,-7.05144 -0.39458,-0.65765 -2.14704,-1.08031 -2.84769,-1.22045 -1.66879,-0.33375 -2.48105,-1.83483 -3.79694,-2.71209 -0.56605,-0.37737 -2.21213,-0.59902 -2.57648,-1.08484 -0.89301,-1.19067 -0.9583,-3.06695 -1.76287,-4.47495 -0.46237,-0.80915 -1.59356,-2.64387 -1.08483,-3.66133 0.79819,-1.59638 3.52653,-1.49246 4.61056,-2.57649 0.69479,-0.69479 0.32199,-1.83038 0.54242,-2.71209 0.40347,-1.61391 -0.0279,-3.90836 -0.40682,-5.42418 -0.24333,-0.97333 -5.67312,-6.62793 -6.78023,-7.45827 -1.09482,-0.82111 -2.53894,0.0125 -3.79694,-0.40681 -0.69755,-0.23252 -0.93217,-0.71185 -1.49165,-1.08484 -0.0531,-0.0354 -0.85255,-4.91943 -0.81362,-5.15298 0.17932,-1.07593 0.40681,-2.30176 0.40681,-3.39012 0,-1.1548 -1.34882,-1.62244 -2.16968,-2.16967 -0.28598,-0.19066 -1.08483,-1.15795 -1.08483,-0.54242 -1.2869,-1.81864 -3.24802,-2.84228 -4.88177,-4.20375 -2.37011,-1.97508 -2.59645,-3.96835 -2.03407,-6.78023 0.12492,-0.62461 -0.0103,-1.34237 0.40681,-1.89847 1.01668,-1.35557 5.67521,-2.19564 7.45826,-1.89846 0.79884,0.13314 1.3876,0.56135 2.03407,0.94923 3.59265,2.15559 1.69256,4.81147 3.93254,7.05145 0.37334,0.37334 1.47441,1.63587 2.03407,1.35604 1.66386,-0.83193 -0.87377,-3.81226 -0.27121,-5.01737 1.17764,-2.3553 5.24797,2.09499 6.91584,-0.40682 2.62358,-3.93537 -5.50168,-7.43404 0.1356,-11.662 0.82412,-0.61809 5.16924,-3.84792 6.10221,-3.66133 1.19849,0.2397 1.04835,2.81122 1.89847,3.66133 0.27414,0.27414 3.32933,-0.7279 3.66133,-0.94923 0.34537,-0.23025 0.69606,-0.87148 1.08483,-0.94924 0.3658,-0.0732 2.83596,-0.68389 2.8477,-0.67802 0.64379,0.3219 1.2499,2.73571 2.16968,1.35605 1.51411,-2.27117 0.49893,-7.50689 1.49165,-9.49233 0.57275,-1.1455 1.72666,0.0724 2.57649,-1.62726 0.17963,-0.35926 0.54242,-0.38943 0.54242,-0.94923 0,-0.96449 -0.58648,-1.6679 -0.81363,-2.57649 -1.40773,-5.63092 -2.67895,-2.98431 -5.42419,-6.64463 -0.65213,-0.8695 -1.21087,-1.85259 -1.89847,-2.71209 -0.38102,-0.47628 -4.4324,-3.9219 -5.01737,-4.06814 -0.66747,-0.16687 -1.6097,0.40974 -2.44088,0.27121 -0.81841,-0.13641 -5.06545,-1.40976 -5.5598,-1.76287 -0.5768,-0.412 -0.96537,-0.8895 -1.62725,-1.220436 -0.65994,-0.32995 -1.42099,-0.17697 -1.89847,-0.813623 -1.03681,-1.38241 -0.86147,-3.65332 -1.62725,-4.61056 -0.94711,-1.18388 -4.63875,-5.02271 -4.88177,-6.23781 -0.24104,-1.2052 0.0666,-2.56928 0.27121,-3.79693 0.28121,-1.68729 -0.40718,-3.11783 0.1356,-4.74617 -0.47298,-0.76068 0.7907,-3.44894 -0.27121,-3.66132 -1.4118,-0.28236 -5.97715,1.86424 -7.32265,2.44088 -1.85281,0.79406 -6.75794,1.33375 -7.86508,2.44088 -0.16107,0.16108 -1.47482,0.0204 -1.76286,0.13561 -2.35652,0.94261 -4.41431,2.23285 -6.91584,2.9833 -1.20678,0.36204 -4.43479,0.77471 -5.831,0.94924 -1.04186,0.13023 -2.10945,-0.11676 -3.11891,0.1356 -1.45128,0.36282 -3.7557,1.20471 -5.28858,0.94923 -0.93823,-0.15637 -2.06725,0.0934 -2.98329,-0.1356 -1.04875,-0.26219 -1.87869,-0.54242 -2.98331,-0.54242 -2.44917,0 -4.69227,-0.37089 -6.78023,-1.76286 -0.91486,-0.60991 -1.6399,-1.60772 -2.57649,-2.16968 -1.84539,-1.10723 -3.66708,-2.30815 -5.55979,-3.25451 -0.9449,-0.47245 -0.94335,0.41726 -0.60683,1.01408 z"
       style="fill:none;stroke:#7c7c7c;stroke-width:3;stroke-linecap:butt;stroke-linejoin:round;stroke-miterlimit:4;stroke-dasharray:6, 6;stroke-dashoffset:0;stroke-opacity:1"
       sodipodi:insensitive="true" />
    <text
       xml:space="preserve"
       style="font-size:8px;line-height:5.26182999999999979px;font-family:Arial;-inkscape-font-specification:'Arial, Normal';letter-spacing:0.58px;stroke-width:0.999786"
       id="text7987-9-3-5-0-8-7-29-8-88-7-09-1-7-60-0-7-9-4-4"><textPath
         id="textPath2383"
         xlink:href="#path2381"><tspan
   rotate="0 0 0"
   style="font-size:8px;stroke-width:0.999786;"
   id="tspan7985-5-30-1-8-0-0-3-3-35-37-71-2-98-15-0-2-1-8-7">San Joaquin R</tspan></textPath></text>
    <path
       id="path7933-0-3-1"
       style="fill:none;fill-opacity:1;stroke:#000000;stroke-width:0.499723;stroke-linecap:round;stroke-linejoin:round;stroke-miterlimit:4;stroke-dasharray:none;stroke-dashoffset:0;stroke-opacity:1"
       d="m 184.21861,106.28937 c 0,1.9923 -1.61579,3.6075 -3.609,3.6075 -1.99319,0 -3.609,-1.6152 -3.609,-3.6075 0,-1.9923 1.61581,-3.6074 3.609,-3.6074 1.99321,0 3.609,1.6151 3.609,3.6074 z"
       sodipodi:nodetypes="sssss" />
    <path
       style="fill:none;stroke:#000000;stroke-width:1.99889;stroke-linecap:round;stroke-linejoin:round;stroke-miterlimit:4;stroke-dasharray:none;stroke-opacity:1"
       d="m 180.61703,106.23607 h -0.002"
       id="path14359-1-7-5-3-0-73-1-9-8-5-49-1-6-4"
       inkscape:connector-curvature="0"
       sodipodi:nodetypes="cc" />
  </g>
</svg>
