<?xml version="1.0" encoding="UTF-8" standalone="no"?>
<svg
   xmlns:dc="http://purl.org/dc/elements/1.1/"
   xmlns:cc="http://creativecommons.org/ns#"
   xmlns:rdf="http://www.w3.org/1999/02/22-rdf-syntax-ns#"
   xmlns:svg="http://www.w3.org/2000/svg"
   xmlns="http://www.w3.org/2000/svg"
   xmlns:sodipodi="http://sodipodi.sourceforge.net/DTD/sodipodi-0.dtd"
   xmlns:inkscape="http://www.inkscape.org/namespaces/inkscape"
   version="1.1"
   id="svg2167"
   width="220.8"
   height="595.84003"
   viewBox="0 0 220.8 595.84003"
   sodipodi:docname="er02jy03.025.svg"
   inkscape:version="1.0 (4035a4f, 2020-05-01)">
  <metadata
     id="metadata2173">
    <rdf:RDF>
      <cc:Work
         rdf:about="">
        <dc:format>image/svg+xml</dc:format>
        <dc:type
           rdf:resource="http://purl.org/dc/dcmitype/StillImage" />
        <dc:title></dc:title>
      </cc:Work>
    </rdf:RDF>
  </metadata>
  <defs
     id="defs2171" />
  <sodipodi:namedview
     inkscape:document-rotation="0"
     pagecolor="#ffffff"
     bordercolor="#666666"
     borderopacity="1"
     objecttolerance="10"
     gridtolerance="10"
     guidetolerance="10"
     inkscape:pageopacity="0"
     inkscape:pageshadow="2"
     inkscape:window-width="1280"
     inkscape:window-height="751"
     id="namedview2169"
     showgrid="false"
     showguides="true"
     inkscape:guide-bbox="true"
     inkscape:zoom="1.621748"
     inkscape:cx="75.405276"
     inkscape:cy="75.056781"
     inkscape:window-x="-9"
     inkscape:window-y="23"
     inkscape:window-maximized="0"
     inkscape:current-layer="g2175" />
  <g
     inkscape:groupmode="layer"
     inkscape:label="Image"
     id="g2175">
    <path
       id="path3243"
       style="fill:none;stroke:#000000;stroke-width:0.944882;stroke-linecap:butt;stroke-linejoin:miter;stroke-miterlimit:4;stroke-dasharray:none;stroke-opacity:1"
       d="m 139.30078,188.63086 v 7.71289" />
    <rect
       style="fill:none;stroke:#000000;stroke-width:1.88976;stroke-linecap:round;stroke-miterlimit:4;stroke-dasharray:none"
       id="rect2742"
       width="205.99553"
       height="583.57208"
       x="8.3578138"
       y="6.3912697" />
    <path
       style="fill:none;stroke:#000000;stroke-width:1.88976;stroke-linecap:butt;stroke-linejoin:miter;stroke-miterlimit:4;stroke-dasharray:none;stroke-opacity:1"
       d="M 8.3335548,49.360286 H 213.89457"
       id="path2764" />
    <path
       style="fill:none;stroke:#000000;stroke-width:0.755906;stroke-linecap:butt;stroke-linejoin:miter;stroke-miterlimit:4;stroke-dasharray:0.755906, 0.75590599999999997;stroke-dashoffset:0;stroke-opacity:1"
       d="m 8.1198739,144.44828 2.5641711,1.70945 1.068404,2.13681 0.213681,2.35049 -0.427362,1.92313 0.213681,2.77785 -0.213681,1.92313 -0.427362,2.13681 -1.068404,2.99153 -1.4957663,1.28208 0.8547235,4.27362 1.7094468,4.70098 1.495767,4.27362 0.213681,2.56417 -0.427362,2.35049 0.213681,2.35049 -0.427362,1.70945 -1.495766,4.70098 -1.9231284,3.20521"
       id="path2790" />
    <path
       style="fill:none;stroke:#000000;stroke-width:0.755906;stroke-linecap:butt;stroke-linejoin:miter;stroke-miterlimit:4;stroke-dasharray:0.755906, 0.75590599999999997;stroke-dashoffset:0;stroke-opacity:1"
       d="m 19.658642,164.96165 4.059937,-6.19675 0.854724,0.21368 0.427361,2.35049 -3.632575,8.54724 z"
       id="path2792" />
    <path
       style="fill:none;stroke:#000000;stroke-width:0.755906;stroke-linecap:butt;stroke-linejoin:miter;stroke-miterlimit:4;stroke-dasharray:0.755906, 0.75590599999999997;stroke-dashoffset:0;stroke-opacity:1"
       d="m 8.5472357,223.51021 5.9830653,-9.82932 2.136809,-3.63257 -0.213681,-9.40196 -0.427362,-9.18828 0.854723,-1.92313 3.632576,-8.54723 1.068404,-1.92313 0.427362,2.13681 v 2.35049 l 1.282085,2.56417 1.068405,1.28208 -2.136809,4.05994 v 1.92313 l 2.136809,0.64104 0.641042,-3.63258 0.641043,-0.85472 0.641043,-2.13681 0.427361,-1.92313 0.854724,-9.61564 1.068405,-3.84625 1.068404,-2.35049 1.068404,-2.35049 1.068405,0.42736 1.282085,3.63258 2.136809,3.63257 v -2.77785 l 0.427362,-4.05994 0.213681,-2.13681 1.923128,-7.05147 2.777851,-8.33355 1.495767,1.0684 4.273618,0.64105 2.56417,2.56417 2.991533,4.27361 1.923128,-2.35049 2.35049,-2.99153 3.632575,2.35049 v 2.99153 l 2.56417,0.64105 0.854724,-0.42736 -0.641043,1.92312 -0.427361,2.13681 -4.273618,8.11988 -0.641043,8.54723 -0.854724,7.26515 0.854724,2.77785 4.273618,-7.05147 4.487299,-5.34202 5.769384,-6.83779 3.632575,-3.84625 3.632575,-4.91466 2.564171,0.64104 2.991532,2.77785 -1.923128,2.56417 1.923128,2.35049 2.777852,-3.84625 2.35049,2.56417 0.641042,1.92312 -2.136809,6.41043 -1.709447,8.76092 -2.777851,8.76091 -0.213681,5.76939 -1.068405,1.70945 -2.136809,5.12834 0.854724,6.6241 24.573301,-37.82151 2.56417,-0.64105 4.27362,0.21368 2.13681,2.56418 -0.42736,1.92312 2.56417,-1.28208 2.99153,1.0684 2.99153,1.70945 0.85473,12.82085 c 0,0 1.92312,-4.91466 2.13681,-5.76938 0.21368,-0.85472 0.21368,-4.4873 0.21368,-4.4873 l 2.13681,1.28209 -0.85473,4.48729 3.84626,-2.77785 6.62411,2.99154 -0.42737,2.35049 0.21368,1.92312 2.56418,2.99154 2.56417,-3.4189 1.0684,-1.70945 2.35049,0.42737 2.35049,1.70944 -0.42736,2.56417 1.49576,-1.49576 2.77786,-0.21368 0.85472,1.49576 -0.21368,2.13681 1.49576,-0.21368 2.56418,-0.42736 1.70944,1.49577 4.05994,4.27361 5.5557,6.19675 2.13681,2.77785 3.4189,2.13681 2.99153,2.35049 1.49576,0.64104 0.42737,1.92313 h 4.91466 l 4.27361,4.4873 0.21369,1.70945 1.28208,1.28208 4.4873,1.70945 4.05994,2.99153 3.20521,2.77785 1.92313,3.63258 2.35049,4.4873 -4.27362,7.69251 -11.53877,26.49643 -0.85472,3.20521 0.85472,2.99154 1.70945,2.35049 -6.41043,10.47036 0.42736,1.49577 1.70945,1.92312 -6.41043,6.62411 h -3.41889 l 0.64104,1.49577 v 2.56417 l -1.70944,4.70098 -2.35049,3.20521 -2.13681,3.84626 -0.64105,1.92312 2.35049,1.49577 1.70945,-0.64104 1.70945,-1.70945 2.56417,-0.64104 4.05994,-0.85473 h 3.41889 l 2.99153,-2.1368 4.91466,-4.4873 0.85473,1.28208 0.42736,2.13681 v 2.13681 l 0.21368,2.13681 v 2.13681 l 0.64104,2.56417 1.49577,5.12834 0.42736,1.92313 -0.42736,6.41043 -0.85473,4.70097 1.28209,3.4189 2.77785,5.12834 0.85473,1.92313 -0.64105,10.043 -0.21368,4.05994 -0.42736,6.62411 1.49577,5.98306 0.85472,-0.85472 3.63258,-10.68405 3.63257,-11.1114 1.0684,-4.05994 0.42737,-4.70098 0.21368,-2.13681 -0.64105,-12.60717 v -7.26515 l 0.64105,-12.82086 v -3.20521 c 0,0 0.42736,-1.70945 0.21368,-2.56417 -0.21368,-0.85472 -0.21368,-3.20521 -0.21368,-3.20521 l -1.49577,-7.9062 -0.64104,-2.56417 -0.42736,-2.35049 -0.64105,-2.13681 1.70945,-4.70098 1.28209,-3.84625 0.21368,-2.56417 0.85472,-1.70945"
       id="path2794" />
    <path
       style="fill:none;stroke:#000000;stroke-width:0.755906;stroke-linecap:butt;stroke-linejoin:miter;stroke-miterlimit:4;stroke-dasharray:0.755906, 0.75590599999999997;stroke-dashoffset:0;stroke-opacity:1"
       d="m 8.3335548,233.55321 2.9915322,-6.6241 2.991533,-4.05994 3.205213,-5.12834 2.564171,-3.84626 0.641043,-3.20521 1.282085,-6.19675 1.068404,3.84626 1.495767,2.77785 h 0.641042 l 1.495766,-2.13681 v -1.92313 l 0.427362,-4.27361 v -2.35049 l 0.427362,-1.92313 0.854724,-1.92313 1.068404,2.13681 1.709447,8.76092 0.641043,-5.34203 0.641043,-2.56417 1.495766,-2.77785 1.923128,-2.35049 3.632575,1.70945 1.923128,1.70945 0.641043,4.91466 2.136809,-2.56417 1.282085,-0.85473 1.709447,-1.28208 2.136809,0.64104 1.709447,1.28208 2.564171,3.63258 1.068404,1.70945 v 1.92313 l -1.282085,1.92312 -0.641043,1.70945 -1.068404,1.92313 5.983065,-4.91466 0.641042,-2.99153 4.273618,-3.20522 3.418895,2.13681 1.923128,-1.92313 2.136809,0.21368 1.495766,1.70945 -1.282086,1.92313 2.35049,-0.21368 0.427362,2.56417 2.564171,-2.13681 1.068404,2.99153 v 2.35049 l 0.854724,6.83779 -0.854724,2.99153 -1.068404,3.63258 -0.641043,1.92313 v 1.49576 l 4.487299,-5.5557 2.35049,-1.70945 2.777851,-2.99153 2.991533,-4.27362 1.923128,-2.35049 5.342022,0.21368 4.273618,1.70945 v 2.35049 l 3.846256,0.42736 3.84626,0.42736 1.28208,0.42737 v 1.92312 l -2.13681,5.76939 2.77785,-1.28209 2.99154,-2.35049 1.70944,-1.0684 2.13681,0.64104 1.06841,2.77785 -2.56417,2.13681 2.35049,0.21368 1.49576,1.49577 2.13681,1.49576 2.13681,-0.21368 1.49577,-1.0684 h 2.13681 l 1.28208,1.92313 2.13681,0.21368 1.92313,2.35049 1.70944,-0.64104 -0.21368,1.92312 2.13681,-0.64104 1.06841,-2.13681 4.27362,-0.21368 2.1368,3.84626 0.64105,1.92312 1.0684,0.21369 2.56417,-3.20522 1.92313,0.42736 1.28209,2.13681 0.21368,1.92313 -1.92313,4.27362 1.92313,-1.92313 2.35049,-1.28208 1.28208,-0.21369 -0.21368,2.13681 1.28209,0.21368 4.27361,-2.35049 1.70945,1.06841 1.70945,2.77785 -0.21368,1.92313 -1.28209,9.61564 1.49577,-1.92313 1.49576,-1.70945 1.92313,-1.49576 0.21368,0.85472 -0.85472,2.35049 -2.77785,3.84626 -1.28209,1.92312 -0.64104,1.92313 -0.42736,4.4873 1.28208,-2.35049 0.85473,-1.92313 1.0684,-1.92312 1.28209,-2.13681 1.70944,-1.06841 2.13681,-1.49576 2.13681,-1.70945 1.49577,-0.85472 1.92313,0.21368 h 2.99153 l 1.70945,1.0684 2.1368,2.13681 -0.42736,4.4873 4.27362,-0.64104 1.28209,1.0684 0.85472,2.13681 -0.64104,4.91466 -0.64105,7.05147 -1.0684,4.05994 -1.70945,3.63257 -1.70944,2.56417 1.49576,1.06841 v 2.13681 l -2.35049,8.54723 -0.85472,4.91466 -1.06841,1.92313 -1.49576,1.28208 -2.99153,3.63258 -2.13681,7.26515 -2.13681,5.5557 -0.85473,2.99154 3.20522,5.5557 1.92313,0.21368 8.97459,0.21368 4.91466,-1.28208 1.49577,0.64104 0.21368,1.28208 1.92313,1.70945 0.85472,1.92313 0.64104,13.46189 -0.21368,1.28209 3.63258,7.47883 0.64104,2.13681 -0.21368,2.35049 -1.28208,4.27362 0.21368,2.13681 0.85472,1.92312 0.85472,2.13681 -0.64104,4.91466 v 2.35049 l 1.92313,9.61564 -0.21368,2.99154 2.13681,1.92312 2.35049,-0.64104 1.28208,-1.0684 1.70945,-2.77785 1.28208,-1.28209 1.28209,-1.70945 0.85472,-2.13681 0.64105,-2.56417 0.42736,-1.92312 1.0684,-2.13681 0.64104,-2.35049 0.21369,-2.13681 1.70944,-2.56417"
       id="path2796" />
    <path
       style="fill:none;stroke:#000000;stroke-width:0.755906;stroke-linecap:butt;stroke-linejoin:miter;stroke-miterlimit:4;stroke-dasharray:0.755906, 0.75590599999999997;stroke-dashoffset:0;stroke-opacity:1"
       d="m 213.89457,383.5572 -1.0684,2.13681 -0.85473,0.42736 -1.92312,4.05994 -1.06841,2.13681 0.21368,1.92313 2.13681,1.28208 0.64104,1.92313 h -10.89772 l -1.06841,-1.70945 -1.70944,-2.56417 -0.85473,-0.85472 -0.85472,-1.49577 -2.77785,-1.70945 -5.98307,-1.49576 -1.70944,0.85472 -2.77785,0.64104 h -2.13681 l -1.49577,-0.64104 -1.49577,-1.70945 -0.21368,-2.77785 -0.21368,-1.49576 -0.42736,-2.56417 -0.64104,-2.56417 -1.06841,0.42736 -0.42736,2.56417 -0.21368,2.35049 -2.56417,4.05993 -1.92313,-0.42736 -4.70098,-2.13681 -4.91466,-2.77785 -0.64104,-0.42736 -0.85472,-6.83779 -1.28209,-1.0684 -4.05994,2.35049 h 1.92313 l 2.35049,1.0684 -2.99153,8.76092 13.67558,10.68404 -0.21369,1.28209 -8.33355,-0.42736 -6.62411,-4.4873 -3.63257,-2.13681 -2.56417,-3.63258 3.20521,-5.5557 -4.27362,-0.85472 -7.05147,-0.85473 -5.34202,4.4873 -4.70098,-0.21368 -2.13681,1.06841 h -1.92313 l 6.62411,-6.19675 0.21368,-2.77785 1.70945,-0.42736 2.99153,-1.49577 -0.42736,-2.56417 1.49577,-0.85472 h 4.27361 l 8.33356,-7.69252 2.35049,-0.42736 2.13681,0.85473 5.76938,3.41889 1.28209,1.92313 0.64104,2.13681 0.21368,1.70944 1.49577,2.56417 1.49576,1.92313 1.49577,1.49577 1.70945,0.64104 1.49576,-1.0684 1.28209,-1.92313 0.42736,-2.35049 0.21368,-1.92313 2.56417,-0.21368 1.28209,1.28209 1.28208,1.70944 2.56417,3.4189 3.84626,6.19674 7.05147,-1.70944 0.42736,-9.61564 -0.85472,-1.70945 -1.28209,-2.13681 -0.42736,-2.13681 v -2.13681 l -0.42736,-1.70945 -1.28209,-7.47883 -0.42736,-2.35049 -0.42736,-4.27361 -0.85472,-7.05147 -0.21369,-2.13681 -2.99153,-3.20522 -2.35049,0.21368 -2.99153,-2.35049 -6.83779,-2.35048 -2.13681,-0.42737 -0.64104,-1.92312 -1.49577,-1.92313 -0.64104,-2.13681 -1.0684,-4.27362 -0.64105,-2.35049 -3.84625,1.92313 -0.42736,-0.64104 2.1368,-6.62411 v -2.13681 l -6.41042,-2.56417 1.49576,-1.92313 -0.21368,-2.13681 -1.49576,-1.92313 -1.92313,-0.85472 -4.70098,0.21368 1.0684,-1.92313 1.28209,-1.70944 0.42736,-1.28209 -1.28208,-2.13681 -1.49577,-1.49576 -1.92313,0.85472 -1.49577,-0.85472 0.42737,-2.35049 -1.49577,-1.70945 h -3.84626 l -0.21368,-2.13681 -1.0684,-2.77785 -1.49577,-1.06841 -1.0684,-0.21368 -3.4189,3.84626 -0.42736,-1.49577 -0.21368,-2.35049 1.70945,-1.92313 -0.21368,-1.28208 -2.56417,0.21368 -1.92313,-0.85472 -0.64104,-2.56417 -1.06841,-2.13681 -1.92313,-0.85473 -1.70944,-0.21368 -1.70945,-1.0684 -1.49577,0.64104 -0.42736,2.56417 -0.85472,1.49577 -0.21368,-2.77785 -1.06841,-2.35049 -2.13681,-2.56417 -1.49576,-1.49577 -4.4873,-1.92313 -4.70098,-1.49576 -4.27362,0.42736 -0.64104,-1.49577 v -0.85472 l -2.777853,-1.49577 -2.564171,-0.64104 -1.495766,1.0684 v 0.85473 l -1.923128,-0.42737 -1.495767,0.42737 -1.923128,1.49576 -0.21368,-4.27362 -0.854724,-2.1368 -5.769384,-2.56418 -4.273618,0.42737 -1.709447,-1.70945 -1.709447,-1.0684 -2.136809,1.28208 -1.282085,2.13681 -1.495767,-1.28209 -1.923128,3.63258 -1.495766,-2.99153 -1.923128,-0.42737 -1.068404,-1.92312 -1.068405,-1.06841 -2.777852,0.85473 -1.923128,-0.64105 -1.709447,-1.0684 -1.282085,-2.35049 -0.854724,-1.92313 -2.777851,-0.64104 -0.427362,2.13681 -1.495766,4.4873 -1.709447,-1.70945 -2.35049,-0.85472 -1.709447,-0.42737 -2.35049,0.85473 -1.495766,1.28208 -0.427362,2.13681 -4.273618,-2.35049 -1.923128,-0.85472 -4.70098,1.0684 -1.495766,3.63258 -0.854723,1.28208 -2.136809,-4.91466 -1.495767,-1.70944 -3.846256,-1.28209 -1.923128,1.0684 -1.068404,13.67558 -0.427362,1.70945 -1.923128,1.70945 -0.854724,1.92312 0.854724,10.89773 0.427362,5.12834 -0.427362,6.83779 7.692512,13.88926 v 1.92313 l -1.495766,6.6241 5.983065,7.47883 -2.136809,0.85473 -2.136809,-0.42736 -1.709447,2.1368 -1.495766,1.49577 -2.35049,0.42736 -2.136809,0.64105 -2.136809,-1.49577 -1.2820853,-1.06841 -0.2136809,-14.74398 2.1368092,0.64105 -0.641043,2.56417 -0.8547235,1.70944 1.2820855,1.06841 -0.8547238,4.05994 4.0599368,2.56417 -0.641042,-6.19675 0.21368,-2.77785 2.564171,-6.41043 -5.769384,-4.91466 -1.0684044,-8.11987 -0.4273618,-32.05214 1.9231282,-1.92312 v -4.70098 L 8.5472357,239.74996"
       id="path2798" />
    <path
       style="fill:none;stroke:#000000;stroke-width:0.755906;stroke-linecap:butt;stroke-linejoin:miter;stroke-miterlimit:4;stroke-dasharray:0.755906, 0.75590599999999997;stroke-dashoffset:0;stroke-opacity:1"
       d="m 8.5472357,331.20538 4.2736183,0.42736 h 2.56417 l 5.983065,-2.56417 1.495766,0.85473 1.495767,1.92313 1.282085,-1.70945 0.854724,-2.77785 0.854723,-1.28209 2.35049,0.64104 0.427362,-1.49576 -5.555703,-13.4619 3.846256,-1.92313 c 0,0 3.418894,1.49577 4.273617,1.06841 0.854724,-0.42736 1.068405,-1.70945 1.068405,-1.70945 l -1.495766,-3.41889 1.495766,-1.70945 2.136809,-0.42736 10.684044,1.49576 4.273618,-1.49576 4.059937,2.35049 4.273618,-0.21368 1.068405,2.13681 1.495766,0.64104 4.487298,1.0684 2.991533,2.13681 2.564171,2.35049 0.854723,-1.70945 2.136809,-0.42736 2.564171,1.06841 1.709447,1.0684 1.495766,2.13681 0.213681,2.13681 2.564171,-0.21368 0.641043,-0.64104 1.282085,1.92312 2.35049,0.21368 2.350489,0.85473 0.854724,1.28208 1.068405,2.13681 1.923128,-1.0684 1.709447,-0.64105 2.350489,1.28209 1.282086,1.70945 1.282086,1.49576 0.21368,2.35049 0.64104,1.49577 1.92313,-0.42736 1.49577,1.28208 1.70944,4.4873 1.28209,1.06841 1.28208,-1.06841 2.13681,1.28209 1.06841,1.49576 v 1.92313 l 1.0684,2.13681 2.13681,1.06841 -1.0684,1.92312 -1.49577,1.28209 1.28209,0.21368 2.13681,-0.42736 1.28208,0.64104 0.42736,1.70945 -1.49576,0.85472 -0.64105,2.13681 h 2.77785 l 1.92313,0.42736 1.06841,1.06841 0.64104,1.92312 -0.21368,1.70945 0.42736,1.92313 2.13681,3.41889 1.49577,1.92313 -0.64105,1.28209 -2.77785,-0.21368 -3.84625,1.49576 1.92312,4.91466 -2.35049,0.64105 -2.1368,-0.21369 -0.64105,1.70945 -0.64104,5.5557 -0.42736,4.05994 -0.21368,1.92313 2.77785,4.27362 0.64104,1.70944 1.70945,0.42737 1.92313,1.28208 2.77785,0.85473 1.0684,1.28208 0.64105,2.13681"
       id="path2802" />
    <path
       style="fill:none;stroke:#000000;stroke-width:0.755906;stroke-linecap:butt;stroke-linejoin:miter;stroke-miterlimit:4;stroke-dasharray:0.755906, 0.75590599999999997;stroke-dashoffset:0;stroke-opacity:1"
       d="m 10.256683,392.10444 2.35049,1.92312 0.641042,1.28209 0.854724,-0.85472 v -4.91466 l 1.709447,-1.49577 -0.427362,-2.35049 -0.641042,-2.35049 -1.923128,-1.70945 -0.854724,-1.70944 -1.282085,-2.13681 -1.9231284,-2.35049 0.2136809,-1.92313 1.4957665,-0.21368 3.205213,-0.42736 1.495766,-2.13681 2.991533,1.70944 1.495766,-1.70944 1.495766,0.21368 5.983065,6.62411 1.709447,-2.13681 1.068405,-1.70945 2.136809,-0.21368 2.136809,0.64104 1.068404,1.92313 1.068405,1.70945 1.923128,0.85472 h 1.923128 l 2.136809,1.0684 5.555703,5.12835 0.427362,-2.99154 0.427361,-0.85472 9.40196,9.61564 1.923128,4.05994 1.709447,3.20521"
       id="path2804" />
    <path
       id="path2806"
       d="M 8.5472357,397.66014 H 214.10825"
       style="fill:none;stroke:#000000;stroke-width:1.88976;stroke-linecap:butt;stroke-linejoin:miter;stroke-miterlimit:4;stroke-dasharray:none;stroke-opacity:1" />
    <path
       style="fill:none;stroke:#000000;stroke-width:1.13386;stroke-linecap:butt;stroke-linejoin:miter;stroke-miterlimit:4;stroke-dasharray:none;stroke-opacity:1"
       d="m 8.7609166,115.81504 2.1368084,0.42737 1.709448,-0.42737 2.350489,0.64105 1.709448,0.21368 2.56417,3.20521 1.923128,1.0684 2.35049,2.56418 1.923128,1.0684 1.709447,1.28209 1.282086,0.21368 2.136809,1.28208 2.56417,0.42736 1.495766,-0.85472 0.427362,-0.64104 0.427362,1.28208 v 3.20522 l 0.427362,2.77785 -0.641043,3.20521 2.991533,0.42736 0.213681,-4.05993 2.56417,-0.64105 3.632575,1.49577 3.632576,2.13681 2.56417,1.49576 2.35049,2.35049 1.709447,0.85473 1.282086,1.28208 3.418894,1.49577 h 3.205213 c 0,0 2.991533,0.42736 4.059937,1.49577 1.068405,1.0684 4.914661,5.98306 4.914661,5.98306 0,0 1.709447,2.56417 4.91466,2.99153 3.205214,0.42736 5.128342,0.85473 5.128342,0.85473 l 6.410426,6.6241 3.846256,3.63258 1.709448,2.13681 2.777851,2.13681 1.495766,2.56417 c 0,0 2.136811,1.70945 3.846261,0.85472 1.70944,-0.85472 3.41889,-3.63257 5.34202,-3.20521 1.92313,0.42736 4.70098,1.28208 4.70098,1.28208 l 3.41889,0.64105 5.34202,3.84625 4.70098,3.63258 4.91466,1.92313 2.13681,1.0684 1.49577,-0.21368 4.27362,0.42736 2.13681,1.92313 1.70944,0.42736 2.56417,1.92313 4.27362,1.49576 5.5557,3.84626 3.84626,2.56417 2.99153,1.49577 1.49577,0.64104 1.70945,1.49577 1.28208,1.92312 1.28209,1.28209 c 0,0 -0.21368,-0.42736 2.13681,0.85472 2.35049,1.28209 3.41889,2.35049 3.41889,2.35049 0,0 2.35049,-1.0684 4.4873,-0.21368 2.13681,0.85473 3.63257,1.06841 4.70098,1.70945 1.0684,0.64104 6.41043,8.11987 6.41043,8.11987 0,0 2.56417,3.84626 2.99153,5.76939 0.42736,1.92313 0,4.70098 1.0684,5.34202 1.06841,0.64104 3.4189,0.42736 4.4873,1.70945 1.06841,1.28208 2.99153,-0.21368 4.4873,0.64104 1.49577,0.85472 4.4873,3.41889 5.34202,7.69251 0.85473,4.27362 4.05994,14.5303 4.05994,14.5303 l 1.92313,2.35049 1.70944,1.49577"
       id="path2808" />
    <rect
       style="fill:none;stroke:#000000;stroke-width:1.88976;stroke-linecap:round;stroke-miterlimit:4;stroke-dasharray:none;stroke-dashoffset:0;stroke-opacity:1"
       id="rect985"
       width="24.761576"
       height="14.069077"
       x="21.837103"
       y="408.91934" />
    <rect
       y="428.89743"
       x="21.837103"
       height="14.069077"
       width="24.761576"
       id="rect987"
       style="fill:none;stroke:#000000;stroke-width:1.88976;stroke-linecap:round;stroke-miterlimit:4;stroke-dasharray:none;stroke-dashoffset:0;stroke-opacity:1" />
    <path
       style="fill:none;stroke:#000000;stroke-width:1.88976;stroke-linecap:butt;stroke-linejoin:miter;stroke-miterlimit:4;stroke-dasharray:none;stroke-opacity:1"
       d="m 26.339208,428.89746 v 13.50631"
       id="path989" />
    <path
       id="path991"
       d="m 31.672538,428.89746 v 13.50631"
       style="fill:none;stroke:#000000;stroke-width:1.88976;stroke-linecap:butt;stroke-linejoin:miter;stroke-miterlimit:4;stroke-dasharray:none;stroke-opacity:1" />
    <path
       style="fill:none;stroke:#000000;stroke-width:1.88976;stroke-linecap:butt;stroke-linejoin:miter;stroke-miterlimit:4;stroke-dasharray:none;stroke-opacity:1"
       d="m 37.005878,428.89746 v 13.50631"
       id="path993" />
    <path
       id="path995"
       d="m 42.339208,428.89746 v 13.50631"
       style="fill:none;stroke:#000000;stroke-width:1.88976;stroke-linecap:butt;stroke-linejoin:miter;stroke-miterlimit:4;stroke-dasharray:none;stroke-opacity:1" />
    <path
       style="fill:none;stroke:#000000;stroke-width:1.13386;stroke-linecap:butt;stroke-linejoin:miter;stroke-miterlimit:4;stroke-dasharray:1.13386, 1.13386000000000009;stroke-dashoffset:0;stroke-opacity:1"
       d="m 19.304668,472.79298 9.84835,-14.91323 9.56698,14.35046 9.84835,-14.06907"
       id="path997" />
    <path
       id="path999"
       d="m 19.304668,492.48969 9.84835,-14.91323 9.56698,14.35046 9.84835,-14.06907"
       style="fill:none;stroke:#000000;stroke-width:1.13386;stroke-linecap:butt;stroke-linejoin:miter;stroke-miterlimit:4;stroke-dasharray:none;stroke-dashoffset:0;stroke-opacity:1" />
    <path
       style="fill:none;stroke:#000000;stroke-width:1.13386;stroke-linecap:butt;stroke-linejoin:miter;stroke-miterlimit:4;stroke-dasharray:none;stroke-dashoffset:0;stroke-opacity:1"
       d="m 19.304668,495.86627 9.84835,-14.91323 9.56698,14.35046 9.84835,-14.06907"
       id="path1001" />
    <path
       style="fill:none;stroke:#000000;stroke-width:1.13386;stroke-linecap:butt;stroke-linejoin:miter;stroke-miterlimit:4;stroke-dasharray:none;stroke-dashoffset:0;stroke-opacity:1"
       d="m 19.304668,514.15607 9.84835,-14.91323 9.56698,14.35046 9.84835,-14.06907"
       id="path1003" />
    <path
       style="fill:none;stroke:#000000;stroke-width:1.88976;stroke-linecap:butt;stroke-linejoin:miter;stroke-miterlimit:4;stroke-dasharray:none;stroke-opacity:1"
       d="M 119.61648,590.70954 V 486.25446 h 94.6144"
       id="path1005"
       sodipodi:nodetypes="ccc" />
    <path
       style="fill:none;stroke:#000000;stroke-width:1.13386;stroke-linecap:butt;stroke-linejoin:miter;stroke-miterlimit:4;stroke-dasharray:none;stroke-opacity:1"
       d="m 150.70914,585.2226 1.93059,-0.50805 1.32093,-1.11771 0.60966,-1.21932 1.52415,-0.40644 0.40644,-0.91449 0.10161,-1.32093 1.93059,-2.43864 0.71127,-0.60966 0.10161,-2.13381 0.20322,-0.60966 0.71127,-0.50805 1.0161,-1.52415 0.50805,-0.40644 1.21932,-1.52415 3.04831,-0.30483 1.52415,-1.82898 1.62576,-1.11771 0.71127,-1.32093 -0.50805,-1.0161 1.0161,0.10161 0.20322,1.11771 1.0161,0.40644 1.42254,-0.91449 0.40644,-0.81288 0.30483,-0.91449 1.62576,-0.71127 c 0,0 1.21932,-0.91449 1.82898,-1.21932 0.60966,-0.30483 1.72737,-0.60966 2.43864,-0.30483 0.71127,0.30483 2.13381,1.0161 3.25152,0.91449 1.11771,-0.10161 4.36923,-1.11771 5.0805,-1.52415 0.71127,-0.40644 1.62576,-0.81288 2.23542,-1.21932 0.60966,-0.40644 0.50805,-0.60966 1.52415,-0.91449 1.0161,-0.30483 2.13381,-0.10161 2.54025,-0.71127 0.40644,-0.60966 1.93059,-0.30483 2.64186,-1.11771 0.71127,-0.81288 3.65796,-3.45474 3.65796,-3.45474 0,0 0.40644,-1.21932 1.21932,-1.42254 0.81288,-0.20322 1.82898,-0.50805 2.64186,-1.21932 0.81288,-0.71127 1.62576,-1.42254 2.33703,-2.23542 0.71127,-0.81288 1.21932,-0.60966 1.52415,-1.82898 0.30483,-1.21932 1.0161,-2.74347 0.20322,-2.94669 -0.81288,-0.20322 -3.25152,-1.21932 -3.25152,-1.21932 l -2.84508,-1.62576 -2.0322,-1.72737 -1.0161,-1.72737 -0.30483,-0.40644 c -1.42254,-1.11771 -1.62576,-2.94669 -1.62576,-2.94669 0,0 1.0161,-1.82898 0.30483,-2.74347 -0.71127,-0.91449 0,-1.62576 -1.52415,-2.0322 -1.52415,-0.40644 -3.55635,-0.30483 -4.26762,0.10161 -0.71127,0.40644 -1.21932,0.60966 -1.21932,0.60966 0,0 -0.50805,-0.50805 -0.40644,-1.21932 0.10161,-0.71127 0.10161,-4.97889 0.20322,-5.48694 0.10161,-0.50805 0.60966,-1.32093 0.30483,-2.23542 -0.30483,-0.91449 -1.93059,-1.62576 -2.43864,-2.74347 -0.50805,-1.11771 -4.87728,-4.77567 -5.69016,-5.38533 -0.81288,-0.60966 -2.33703,-1.82898 -2.74347,-2.0322 -0.40644,-0.20322 -11.48193,-6.40143 -12.80286,-6.80787 -1.32093,-0.40644 -5.89338,-2.33703 -7.1127,-2.23542 -1.21932,0.10161 -2.64186,0.50805 -3.25152,0 -0.60966,-0.50805 -1.62576,-0.91449 -2.74347,-1.52415 -1.11771,-0.60966 -1.11771,-1.21932 -2.54025,-2.0322 -1.42254,-0.81288 -3.35313,-1.0161 -3.35313,-1.0161 l -0.10161,1.62576 -0.60966,0.71127 0.20322,-1.32093 0.60966,-2.13381 -0.20322,-1.42254 c 0,0 -1.32093,-1.52415 -2.0322,-1.52415 -0.71127,0 -1.21932,0.50805 -1.93059,0.10161 -0.71127,-0.40644 -0.91449,-1.93059 -4.77567,-1.62576 -3.86118,0.30483 -1.93059,8.84007 -1.72737,9.44973 0.20322,0.60966 4.77567,7.01109 4.77567,7.01109 l -0.50805,1.62576 0.10161,1.62576 -1.0161,0.91449 -2.74347,1.82898 -1.32093,3.14991 -1.42254,1.72737 c 0,0 0.40644,1.0161 0,1.11771 -0.40644,0.10161 -2.64186,-0.10161 -3.35313,0.20322 -0.71127,0.30483 -0.71127,2.0322 -1.42254,2.43864 -0.71127,0.40644 0.10161,-0.20322 -0.71127,0.40644 -0.81288,0.60966 -2.33703,0.60966 -2.64186,1.52415 -0.30483,0.91449 -0.20322,1.93059 -0.20322,1.93059 l -0.81288,1.72737 v 1.93059 l 0.71127,1.0161 c 0,0 2.23542,-0.40644 2.33703,0.10161 0.10161,0.50805 -1.11771,2.33703 -1.11771,2.33703 0,0 0.30483,0.81288 0.91449,0.91449 0.60966,0.10161 1.52415,1.72737 1.52415,1.72737 0,0 1.21932,1.11771 1.42254,1.82898 0.20322,0.71127 -0.40644,2.13381 0.10161,2.74347 0.50805,0.60966 0.81288,2.23542 0.71127,2.94669 -0.10161,0.71127 0.71127,2.23542 1.42254,2.64186 0.71127,0.40644 0.91449,-0.81288 0.81288,0.30483 -0.10161,1.11771 -0.30483,3.0483 0.40644,3.96279 0.71127,0.91449 0.60966,1.82898 1.42254,3.14991 0.81288,1.32093 0.10161,5.79177 -0.10161,6.29982 -0.20322,0.50805 -0.81288,1.93059 -0.81288,2.94669 0,1.0161 -0.71127,3.35313 -0.71127,4.0644 0,0.71127 -0.60966,3.75957 -0.20322,4.77567 0.40644,1.0161 1.52415,2.64186 1.72737,3.25152 0.20322,0.60966 -0.60966,1.42254 0.30483,2.0322 0.91449,0.60966 4.0644,1.32093 4.0644,1.32093 0,0 1.62576,0.10161 2.0322,1.0161 0.40644,0.91449 2.33703,2.13381 3.14991,2.33703 0.81288,0.20322 1.42254,-0.50805 2.23542,0.60966 0.81288,1.11771 2.43864,3.14991 2.43864,3.14991"
       id="path1007" />
    <path
       style="fill:none;stroke:#000000;stroke-width:1px;stroke-linecap:butt;stroke-linejoin:miter;stroke-opacity:1"
       d="m 139.43043,529.74354 0.50805,-1.0161 -0.10161,-0.81288 -2.43864,-0.40644 -0.60966,0.30483 0.50805,1.42254 h 0.71127 z"
       id="path1009" />
    <path
       style="fill:none;stroke:#000000;stroke-width:1.13386;stroke-linecap:butt;stroke-linejoin:miter;stroke-miterlimit:4;stroke-dasharray:none;stroke-opacity:1"
       d="m 140.1417,528.82905 0.20322,-1.72737 h 1.32093 l 0.30483,-1.32093 -0.50805,-0.71127 0.10161,-1.62576 -1.21932,-0.30483 -1.21932,-0.30483 -0.91449,1.52415 -1.11771,0.40644 c 0,0 -0.91449,-0.40644 -0.91449,0.50805 0,0.91449 0.50805,2.54025 0.50805,2.54025"
       id="path1011" />
    <path
       style="fill:none;stroke:#000000;stroke-width:1.13386;stroke-linecap:butt;stroke-linejoin:miter;stroke-miterlimit:4;stroke-dasharray:none;stroke-opacity:1"
       d="m 150.60753,506.17002 -0.40644,-1.32093 -1.42254,-1.32093 0.20322,-1.42254 1.93059,0.30483 1.52415,1.82898 0.60966,0.30483 -0.40644,1.93059 -1.32093,0.20322 -1.0161,0.60966 -1.52415,0.20322 -1.11771,-0.50805 -1.21932,-0.40644 0.71127,-1.0161 -0.30483,-0.60966 -0.91449,-0.40644 0.10161,-0.71127 h 1.21932 l 0.81288,1.52415 2.23542,1.62576 z"
       id="path1013" />
    <path
       style="fill:none;stroke:#000000;stroke-width:1.13386;stroke-linecap:butt;stroke-linejoin:miter;stroke-miterlimit:4;stroke-dasharray:none;stroke-opacity:1"
       d="m 174.07894,524.86677 c 0.20322,-0.50805 0.10161,-1.52415 0.10161,-1.52415 l 2.64186,-0.10161 c 0,0 0.50805,-0.40644 0.60966,-0.81288 0.10161,-0.40644 0.10161,-1.21932 0.10161,-1.21932 h -1.21932 c 0,0 -1.21932,0.81288 -1.52415,0.40644 -0.30483,-0.40644 -0.40644,-0.71127 -0.40644,-1.21932 0,-0.50805 -0.10161,-2.74347 -0.10161,-2.74347 l 0.60966,-0.30483 c 0,0 0,0.50805 0.50805,0.60966 0.50805,0.10161 1.42254,0.30483 1.42254,0.30483 l 0.91449,0.81288 2.0322,-0.10161 -0.71127,0.81288 -1.0161,0.60966 -0.71127,0.50805 0.71127,-2.64186 v -2.0322 h -1.42254 v -1.52415 l -0.71127,-1.11771 0.10161,-1.11771 0.60966,0.10161 1.0161,0.71127 1.32093,0.20322 2.0322,1.62576 -0.10161,3.14991 -0.60966,0.60966 0.40644,1.21932 v 2.43864 l 1.0161,0.91449 c 0,0 0,1.62576 -0.50805,1.72737 -0.50805,0.10161 -2.0322,-0.20322 -2.43864,-0.20322 -0.40644,0 -1.93059,-0.10161 -1.93059,-0.10161 0,0 -0.30483,1.21932 -0.71127,1.11771 -0.40644,-0.10161 -1.42254,-0.30483 -1.42254,-0.30483 z"
       id="path1015" />
    <path
       style="fill:none;stroke:#000000;stroke-width:1.13386;stroke-linecap:butt;stroke-linejoin:miter;stroke-miterlimit:4;stroke-dasharray:none;stroke-opacity:1"
       d="m 175.19716,536.04336 0.60966,0.91449 4.97889,-0.10161 0.20322,-0.91449 -1.21932,-1.11771 -0.91449,-0.81288 v -1.72737 l 0.91449,-0.81288 0.91449,0.40644 2.54025,0.71127 v -0.91449 l -0.81288,-0.50805 -1.32093,-1.0161 -1.62576,-1.11771 -1.32093,0.30483 -1.62576,1.93059 -0.91449,1.52415 -0.40644,1.72737 -0.50805,0.91449 -1.21932,-0.71127 -1.0161,-0.50805 -1.42254,1.0161 v 1.32093 l 0.10161,1.11771 -0.20322,1.52415 1.72737,0.20322 h 0.71127 l 0.20322,2.13381 4.36923,3.96279 -0.10161,0.81288 1.52415,0.30483 0.60966,1.11771 0.30483,0.71127 1.0161,-0.60966 1.42254,-2.0322 0.50805,-3.86118 -0.40644,-0.81288 -1.0161,-0.60966 -1.42254,0.60966 -0.50805,1.21932 -0.71127,1.21932 -1.21932,-0.20322 -1.11771,-1.21932 -0.71127,-0.30483 -0.20322,-1.52415 -0.71127,-1.32093 -0.71127,-0.91449 z"
       id="path1017" />
    <path
       style="fill:none;stroke:#000000;stroke-width:1.13386;stroke-linecap:butt;stroke-linejoin:miter;stroke-miterlimit:4;stroke-dasharray:none;stroke-opacity:1"
       d="m 154.16388,563.27484 1.42254,-2.64186 1.82898,-3.0483 4.0644,-3.96279 0.81288,-1.72737 1.21932,-1.11771 0.71128,-0.50805 h 1.32093 l 0.50805,1.11771 0.10161,0.91449 -0.91449,0.81288 -0.71127,1.0161 -0.71127,0.71127 -1.42255,0.81288 -0.10161,1.32093 0.91449,0.50805 c 0,0 0.20322,0.20322 0.20322,0.71127 0,0.50805 0.60967,0.91449 0.60967,0.91449 l 0.71127,-0.91449 1.0161,-0.30483 0.30483,-1.32093 -0.40644,-1.21932 -0.91449,-0.60966 -1.9306,-0.30483 -1.82898,2.13381 -1.21932,1.32093 0.10161,1.0161 -2.94669,3.25152 z"
       id="path1019" />
    <path
       style="fill:none;stroke:#000000;stroke-width:1.13386;stroke-linecap:butt;stroke-linejoin:miter;stroke-miterlimit:4;stroke-dasharray:none;stroke-opacity:1"
       d="m 172.35208,547.32207 c 0,0 -1.11771,0.60966 -1.82898,0.40644 -0.71127,-0.20322 -1.82898,-0.81288 -1.82898,-0.81288 v -1.21932 -1.32093 l 0.50805,-0.10161 1.62576,0.60966 1.32093,1.0161 z"
       id="path1021" />
    <path
       style="fill:none;stroke:#000000;stroke-width:1.13386;stroke-linecap:butt;stroke-linejoin:miter;stroke-miterlimit:4;stroke-dasharray:none;stroke-opacity:1"
       d="m 174.18106,549.6591 0.50805,-0.71127 1.52415,-0.30483 0.71127,-0.60966 0.10161,0.81288 -1.11771,0.91449 z"
       id="path1023" />
    <path
       style="fill:none;stroke:#000000;stroke-width:1.13386;stroke-linecap:butt;stroke-linejoin:miter;stroke-miterlimit:4;stroke-dasharray:none;stroke-opacity:1"
       d="m 173.87623,553.01223 0.81288,-0.40644 1.72737,-1.0161 1.21932,-1.42254 h 0.81288 l 0.20322,0.91449 v 0.91449 l 1.32093,0.91449 0.20322,0.91449 -0.40644,0.81288 -0.40644,0.91449 -0.91449,0.40644 -1.11771,-0.40644 -1.11771,-0.50805 z"
       id="path1025" />
    <path
       style="fill:none;stroke:#000000;stroke-width:1.13386;stroke-linecap:butt;stroke-linejoin:miter;stroke-miterlimit:4;stroke-dasharray:none;stroke-opacity:1"
       d="m 184.34206,551.08164 0.10161,-1.11771 2.33703,-0.10161 0.91449,-0.81288 1.72737,0.50805 0.40644,0.91449 -0.20322,0.60966 -1.0161,0.40644 -0.40644,0.81288 -2.94669,-0.10161 z"
       id="path1027" />
    <path
       style="fill:none;stroke:#000000;stroke-width:1.13386;stroke-linecap:butt;stroke-linejoin:miter;stroke-miterlimit:4;stroke-dasharray:none;stroke-opacity:1"
       d="m 179.87122,560.63298 0.81288,-1.42254 1.62576,0.20322 0.20322,0.50805 1.32093,-0.50805 1.42254,-0.91449 c 0,0 1.32093,0.50805 1.52415,0.10161 0.20322,-0.40644 0.30483,-0.71127 0.30483,-0.71127 l -1.62576,-1.11771 -2.13381,-0.30483 -2.33703,0.20322 -0.81288,0.50805 -2.84508,0.10161 -4.0644,1.72737 v 1.42254 l 0.50805,0.60966 -0.71127,0.71127 -0.71127,0.81288 -1.0161,-0.91449 v -1.21932 l 0.60966,-0.81288 1.0161,0.40644 1.11771,0.81288 1.21932,-0.50805 0.71127,-0.50805 1.62576,0.40644 0.91449,0.71127 z"
       id="path1029" />
    <path
       style="fill:none;stroke:#000000;stroke-width:1.13386;stroke-linecap:butt;stroke-linejoin:miter;stroke-miterlimit:4;stroke-dasharray:none;stroke-opacity:1"
       d="m 143.49483,553.92672 -0.91449,0.10161 -0.20322,-1.93059 1.21932,0.10161 0.20322,1.21932 z"
       id="path1031" />
    <path
       style="fill:none;stroke:#000000;stroke-width:1.13386;stroke-linecap:butt;stroke-linejoin:miter;stroke-miterlimit:4;stroke-dasharray:none;stroke-opacity:1"
       d="m 135.97569,531.3693 0.20322,1.0161 1.0161,0.40644 0.10161,-0.81288 z"
       id="path1033" />
    <path
       style="fill:none;stroke:#000000;stroke-width:1.13386;stroke-linecap:butt;stroke-linejoin:miter;stroke-miterlimit:4;stroke-dasharray:none;stroke-opacity:1"
       d="m 150.40431,498.14283 h -0.71127 l -0.20322,0.50805 0.60966,0.40644 0.71127,0.30483 0.30483,0.81288"
       id="path1035" />
    <path
       style="fill:none;stroke:#000000;stroke-width:1.13386;stroke-linecap:butt;stroke-linejoin:miter;stroke-miterlimit:4;stroke-dasharray:none;stroke-opacity:1"
       d="m 149.18499,510.13281 c 0,-0.10161 1.52415,0.10161 1.52415,0.10161 l -0.10161,1.11771 h -1.0161 z"
       id="path1037" />
    <path
       style="fill:none;stroke:#000000;stroke-width:1.13386;stroke-linecap:butt;stroke-linejoin:miter;stroke-miterlimit:4;stroke-dasharray:none;stroke-opacity:1"
       d="m 158.12667,512.26662 0.10161,-0.71127 0.10161,-0.71127 0.91449,-0.10161 0.20322,0.81288 -0.50805,0.30483 z"
       id="path1039" />
    <path
       style="fill:none;stroke:#000000;stroke-width:1.13386;stroke-linecap:butt;stroke-linejoin:miter;stroke-miterlimit:4;stroke-dasharray:none;stroke-opacity:1"
       d="m 153.55422,511.65696 c 0,-0.91449 1.11771,-0.91449 1.11771,-0.91449 v 0.91449 z"
       id="path1041" />
    <path
       style="fill:none;stroke:#000000;stroke-width:1.13386;stroke-linecap:butt;stroke-linejoin:miter;stroke-miterlimit:4;stroke-dasharray:none;stroke-opacity:1"
       d="m 153.14778,513.38433 c 0.20322,0.40644 0.71127,0.60966 0.71127,0.60966 l 0.30483,-0.71127 z"
       id="path1043" />
    <path
       style="fill:none;stroke:#000000;stroke-width:1.13386;stroke-linecap:butt;stroke-linejoin:miter;stroke-miterlimit:4;stroke-dasharray:none;stroke-opacity:1"
       d="m 152.43651,515.41653 c 0.50805,0.30483 0.71127,0.20322 0.71127,0.20322 l -0.60966,-0.91449 z"
       id="path1045" />
    <path
       style="fill:none;stroke:#000000;stroke-width:1.13386;stroke-linecap:butt;stroke-linejoin:miter;stroke-miterlimit:4;stroke-dasharray:none;stroke-opacity:1"
       d="m 150.70914,515.51814 0.20322,0.60966 0.60966,-0.60966 z"
       id="path1047" />
    <path
       style="fill:none;stroke:#000000;stroke-width:1.13386;stroke-linecap:butt;stroke-linejoin:miter;stroke-miterlimit:4;stroke-dasharray:none;stroke-opacity:1"
       d="m 141.56424,556.87341 1.32093,0.40644 0.10161,1.52415 -0.50805,0.60966 -0.81288,0.91449 -0.30483,-0.71127 -0.60966,-0.40644 v -1.52415 z"
       id="path1049" />
    <path
       style="fill:none;stroke:#000000;stroke-width:1.13386;stroke-linecap:butt;stroke-linejoin:miter;stroke-miterlimit:4;stroke-dasharray:none;stroke-opacity:1"
       d="m 140.64975,562.76679 0.20322,-0.71127 2.33703,-0.20322 0.30483,0.60966 -0.81288,0.50805 z"
       id="path1051" />
    <path
       style="fill:none;stroke:#000000;stroke-width:1.13386;stroke-linecap:butt;stroke-linejoin:miter;stroke-miterlimit:4;stroke-dasharray:none;stroke-opacity:1"
       d="m 138.29414,567.5752 c -0.125,-0.5 -0.25,-0.875 -0.25,-0.875 l 0.625,-0.375 1.25,0.25 v 0.625 z"
       id="path1053" />
    <path
       style="fill:none;stroke:#000000;stroke-width:1.13386;stroke-linecap:butt;stroke-linejoin:miter;stroke-miterlimit:4;stroke-dasharray:none;stroke-opacity:1"
       d="m 137.91914,572.2002 0.5,-0.75 3,-2.5 0.75,0.25 1.5,1.25 -0.75,1.125 -1.125,0.75 -1.125,-0.125 -0.625,-0.25 -0.875,0.75 z"
       id="path1055" />
    <path
       style="fill:none;stroke:#000000;stroke-width:1.13386;stroke-linecap:butt;stroke-linejoin:miter;stroke-miterlimit:4;stroke-dasharray:none;stroke-opacity:1"
       d="m 152.66914,578.9502 -1.25,-0.75 1,-0.625 0.5,0.625 z"
       id="path1057" />
    <path
       style="fill:none;stroke:#000000;stroke-width:1.13386;stroke-linecap:butt;stroke-linejoin:miter;stroke-miterlimit:4;stroke-dasharray:none;stroke-opacity:1"
       d="m 128.91914,532.7002 2,0.125 v 2.875"
       id="path1059" />
    <rect
       style="fill:none;stroke:#000000;stroke-width:1.04493;stroke-linecap:round;stroke-miterlimit:4;stroke-dasharray:none;stroke-dashoffset:0;stroke-opacity:1"
       id="rect1061"
       width="16.205259"
       height="18.589209"
       x="143.513"
       y="489.60556" />
    <rect
       style="fill:none;stroke:#000000;stroke-width:1.13386;stroke-linecap:round;stroke-miterlimit:4;stroke-dasharray:none;stroke-dashoffset:0;stroke-opacity:1"
       id="rect1063"
       width="69.058128"
       height="5.0826898"
       x="23.759146"
       y="551.54913" />
    <rect
       y="570.07947"
       x="23.759146"
       height="5.0814371"
       width="43.081654"
       id="rect1065"
       style="fill:none;stroke:#000000;stroke-width:1.13386;stroke-linecap:round;stroke-miterlimit:4;stroke-dasharray:none;stroke-dashoffset:0;stroke-opacity:1"
       rx="0"
       ry="0" />
    <path
       style="fill:none;stroke:#000000;stroke-width:1.13386;stroke-linecap:butt;stroke-linejoin:miter;stroke-miterlimit:4;stroke-dasharray:none;stroke-opacity:1"
       d="m 58.286719,551.54916 v 5.14732"
       id="path1067"
       sodipodi:nodetypes="cc" />
    <path
       id="path1069"
       d="m 45.134121,570.30829 v 5.14732"
       style="fill:none;stroke:#000000;stroke-width:1.13386;stroke-linecap:butt;stroke-linejoin:miter;stroke-miterlimit:4;stroke-dasharray:none;stroke-opacity:1"
       sodipodi:nodetypes="cc" />
    <path
       style="fill:none;stroke:#000000;stroke-width:1.13386;stroke-linecap:butt;stroke-linejoin:miter;stroke-miterlimit:4;stroke-dasharray:none;stroke-opacity:1"
       d="M 23.873528,554.06563 H 58.057949"
       id="path1071"
       sodipodi:nodetypes="cc" />
    <path
       id="path1073"
       d="M 23.873528,572.82476 H 44.905351"
       style="fill:none;stroke:#000000;stroke-width:1.13386;stroke-linecap:butt;stroke-linejoin:miter;stroke-miterlimit:4;stroke-dasharray:none;stroke-opacity:1"
       sodipodi:nodetypes="cc" />
    <g
       sodipodi:insensitive="true"
       id="g1093">
      <text
         id="text2746"
         y="23.360411"
         x="112.45815"
         style="font-weight:bold;font-size:21.3333px;line-height:4.93px;font-family:'Times New Roman';-inkscape-font-specification:'Times New Roman, Bold';fill:#000000;fill-opacity:1"
         xml:space="preserve"><tspan
           style="font-style:normal;font-variant:normal;font-weight:bold;font-stretch:normal;font-size:13.3333px;font-family:'Times New Roman';-inkscape-font-specification:'Times New Roman, Bold';font-variant-ligatures:normal;font-variant-caps:normal;font-variant-numeric:normal;font-variant-east-asian:normal;text-align:center;text-anchor:middle;fill:#000000;fill-opacity:1"
           y="23.360411"
           x="112.45815"
           id="tspan2744"
           sodipodi:role="line">Map 25  Unit 6</tspan><tspan
           style="font-style:normal;font-variant:normal;font-weight:bold;font-stretch:normal;font-size:13.3333px;font-family:'Times New Roman';-inkscape-font-specification:'Times New Roman, Bold';font-variant-ligatures:normal;font-variant-caps:normal;font-variant-numeric:normal;font-variant-east-asian:normal;text-align:center;text-anchor:middle;fill:#000000;fill-opacity:1"
           id="tspan2754"
           y="30.357113"
           x="112.45815"
           sodipodi:role="line" /><tspan
           id="tspan2762"
           style="font-style:italic;font-variant:normal;font-weight:bold;font-stretch:normal;font-size:13.3333px;font-family:'Times New Roman';-inkscape-font-specification:'Times New Roman, Bold Italic';font-variant-ligatures:normal;font-variant-caps:normal;font-variant-numeric:normal;font-variant-east-asian:normal;text-align:center;text-anchor:middle;fill:#000000;fill-opacity:1"
           y="37.353817"
           x="112.45815"
           sodipodi:role="line">Nothocestrum breviflorum - b</tspan></text>
      <text
         id="text2768"
         y="93.164864"
         x="94.019585"
         style="font-weight:bold;font-size:21.3333px;line-height:4.28204px;font-family:'Times New Roman';-inkscape-font-specification:'Times New Roman, Bold';fill:#000000;fill-opacity:1"
         xml:space="preserve"><tspan
           style="font-style:italic;font-variant:normal;font-weight:bold;font-stretch:normal;font-size:9.33333px;font-family:'Times New Roman';-inkscape-font-specification:'Times New Roman, Bold Italic';font-variant-ligatures:normal;font-variant-caps:normal;font-variant-numeric:normal;font-variant-east-asian:normal;fill:#000000;fill-opacity:1"
           y="93.164864"
           x="94.019585"
           id="tspan2766"
           sodipodi:role="line">Pacific Ocean</tspan></text>
      <text
         xml:space="preserve"
         style="font-weight:bold;font-size:21.3333px;line-height:4.28204px;font-family:'Times New Roman';-inkscape-font-specification:'Times New Roman, Bold';fill:#000000;fill-opacity:1"
         x="103.20786"
         y="166.6711"
         id="text2772"><tspan
           sodipodi:role="line"
           id="tspan2770"
           x="103.20786"
           y="166.6711"
           style="font-style:italic;font-variant:normal;font-weight:bold;font-stretch:normal;font-size:8px;font-family:Arial;-inkscape-font-specification:'Arial, Bold Italic';font-variant-ligatures:normal;font-variant-caps:normal;font-variant-numeric:normal;font-variant-east-asian:normal;fill:#000000;fill-opacity:1">Honopue Valley</tspan></text>
      <text
         id="text2776"
         y="148.08086"
         x="74.14727"
         style="font-weight:bold;font-size:21.3333px;line-height:3.67032px;font-family:'Times New Roman';-inkscape-font-specification:'Times New Roman, Bold';fill:#000000;fill-opacity:1"
         xml:space="preserve"><tspan
           style="font-style:italic;font-variant:normal;font-weight:bold;font-stretch:normal;font-size:8px;font-family:Arial;-inkscape-font-specification:'Arial, Bold Italic';font-variant-ligatures:normal;font-variant-caps:normal;font-variant-numeric:normal;font-variant-east-asian:normal;fill:#000000;fill-opacity:1"
           y="148.08086"
           x="74.14727"
           id="tspan2774"
           sodipodi:role="line">Paalalea</tspan></text>
      <text
         transform="rotate(34.078978)"
         id="text2780"
         y="91.14814"
         x="250.03409"
         style="font-weight:bold;font-size:21.3333px;line-height:4.28204px;font-family:'Times New Roman';-inkscape-font-specification:'Times New Roman, Bold';fill:#000000;fill-opacity:1"
         xml:space="preserve"><tspan
           style="font-style:italic;font-variant:normal;font-weight:bold;font-stretch:normal;font-size:8px;font-family:Arial;-inkscape-font-specification:'Arial, Bold Italic';font-variant-ligatures:normal;font-variant-caps:normal;font-variant-numeric:normal;font-variant-east-asian:normal;fill:#000000;fill-opacity:1"
           y="91.14814"
           x="250.03409"
           id="tspan2778"
           sodipodi:role="line">1000</tspan></text>
      <text
         transform="rotate(15.564295)"
         xml:space="preserve"
         style="font-weight:bold;font-size:21.3333px;line-height:4.28204px;font-family:'Times New Roman';-inkscape-font-specification:'Times New Roman, Bold';fill:#000000;fill-opacity:1"
         x="200.41618"
         y="203.47008"
         id="text2784"><tspan
           sodipodi:role="line"
           id="tspan2782"
           x="200.41618"
           y="203.47008"
           style="font-style:italic;font-variant:normal;font-weight:bold;font-stretch:normal;font-size:8px;font-family:Arial;-inkscape-font-specification:'Arial, Bold Italic';font-variant-ligatures:normal;font-variant-caps:normal;font-variant-numeric:normal;font-variant-east-asian:normal;fill:#000000;fill-opacity:1">2000</tspan></text>
      <text
         transform="rotate(41.34958)"
         id="text2788"
         y="138.22159"
         x="274.20059"
         style="font-weight:bold;font-size:21.3333px;line-height:4.28204px;font-family:'Times New Roman';-inkscape-font-specification:'Times New Roman, Bold';fill:#000000;fill-opacity:1"
         xml:space="preserve"><tspan
           style="font-style:italic;font-variant:normal;font-weight:bold;font-stretch:normal;font-size:8px;font-family:Arial;-inkscape-font-specification:'Arial, Bold Italic';font-variant-ligatures:normal;font-variant-caps:normal;font-variant-numeric:normal;font-variant-east-asian:normal;fill:#000000;fill-opacity:1"
           y="138.22159"
           x="274.20059"
           id="tspan2786"
           sodipodi:role="line">3000</tspan></text>
      <text
         xml:space="preserve"
         style="font-weight:bold;font-size:21.3333px;line-height:4.9009px;font-family:'Times New Roman';-inkscape-font-specification:'Times New Roman, Bold';fill:#000000;fill-opacity:1"
         x="109.0581"
         y="421.69907"
         id="text1168"><tspan
           id="tspan1170"
           sodipodi:role="line"
           x="108.8731"
           y="421.69907"
           style="font-style:normal;font-variant:normal;font-weight:bold;font-stretch:normal;font-size:12px;font-family:'Times New Roman';-inkscape-font-specification:'Times New Roman, Bold';font-variant-ligatures:normal;font-variant-caps:normal;font-variant-numeric:normal;font-variant-east-asian:normal;text-align:center;letter-spacing:-0.37px;text-anchor:middle;fill:#000000;fill-opacity:1">Critical Habitat Unit 6</tspan></text>
      <text
         id="text1187"
         y="439.67603"
         x="101.23136"
         style="font-weight:bold;font-size:21.3333px;line-height:9.04px;font-family:'Times New Roman';-inkscape-font-specification:'Times New Roman, Bold';fill:#000000;fill-opacity:1"
         xml:space="preserve"><tspan
           id="tspan1191"
           style="font-style:normal;font-variant:normal;font-weight:bold;font-stretch:normal;font-size:12px;font-family:'Times New Roman';-inkscape-font-specification:'Times New Roman, Bold';font-variant-ligatures:normal;font-variant-caps:normal;font-variant-numeric:normal;font-variant-east-asian:normal;text-align:center;letter-spacing:-0.37px;text-anchor:middle;fill:#000000;fill-opacity:1"
           y="439.67603"
           x="101.23136"
           sodipodi:role="line">Critical Habitat for</tspan><tspan
           id="tspan1199"
           style="font-style:normal;font-variant:normal;font-weight:bold;font-stretch:normal;font-size:12px;font-family:'Times New Roman';-inkscape-font-specification:'Times New Roman, Bold';font-variant-ligatures:normal;font-variant-caps:normal;font-variant-numeric:normal;font-variant-east-asian:normal;text-align:center;letter-spacing:-0.37px;text-anchor:middle;fill:#000000;fill-opacity:1"
           y="451.12717"
           x="101.04636"
           sodipodi:role="line">                           <tspan
   id="tspan3032"
   style="font-style:italic;font-variant:normal;font-weight:bold;font-stretch:normal;font-size:12px;font-family:'Times New Roman';-inkscape-font-specification:'Times New Roman, Bold Italic';font-variant-ligatures:normal;font-variant-caps:normal;font-variant-numeric:normal;font-variant-east-asian:normal;fill:#000000;fill-opacity:1">Nothocestrum breviflorum - b</tspan></tspan></text>
      <text
         id="text1205"
         y="511.6402"
         x="77.737083"
         style="font-weight:bold;font-size:21.3333px;line-height:4.9009px;font-family:'Times New Roman';-inkscape-font-specification:'Times New Roman, Bold';fill:#000000;fill-opacity:1"
         xml:space="preserve"><tspan
           id="tspan1215"
           style="font-style:normal;font-variant:normal;font-weight:bold;font-stretch:normal;font-size:12px;font-family:'Times New Roman';-inkscape-font-specification:'Times New Roman, Bold';font-variant-ligatures:normal;font-variant-caps:normal;font-variant-numeric:normal;font-variant-east-asian:normal;text-align:center;letter-spacing:-0.37px;direction:rtl;text-anchor:middle;fill:#000000;fill-opacity:1"
           y="511.6402"
           x="77.552086"
           sodipodi:role="line">Coastline</tspan></text>
      <text
         xml:space="preserve"
         style="font-weight:bold;font-size:21.3333px;line-height:4.9009px;font-family:'Times New Roman';-inkscape-font-specification:'Times New Roman, Bold';fill:#000000;fill-opacity:1"
         x="124.64886"
         y="471.8461"
         id="text1248"><tspan
           sodipodi:role="line"
           x="124.46385"
           y="471.8461"
           style="font-style:normal;font-variant:normal;font-weight:bold;font-stretch:normal;font-size:12px;font-family:'Times New Roman';-inkscape-font-specification:'Times New Roman, Bold';font-variant-ligatures:normal;font-variant-caps:normal;font-variant-numeric:normal;font-variant-east-asian:normal;text-align:center;letter-spacing:-0.37px;direction:rtl;text-anchor:middle;fill:#000000;fill-opacity:1"
           id="tspan1246">Elevation (1,000-ft. contours)</tspan></text>
      <text
         xml:space="preserve"
         style="font-weight:bold;font-size:21.3333px;line-height:4.9009px;font-family:'Times New Roman';-inkscape-font-specification:'Times New Roman, Bold';fill:#000000;fill-opacity:1"
         x="85.501793"
         y="492.22845"
         id="text1252"><tspan
           sodipodi:role="line"
           x="85.316795"
           y="492.22845"
           style="font-style:normal;font-variant:normal;font-weight:bold;font-stretch:normal;font-size:12px;font-family:'Times New Roman';-inkscape-font-specification:'Times New Roman, Bold';font-variant-ligatures:normal;font-variant-caps:normal;font-variant-numeric:normal;font-variant-east-asian:normal;text-align:center;letter-spacing:-0.37px;direction:rtl;text-anchor:middle;fill:#000000;fill-opacity:1"
           id="tspan1250">Major Road</tspan></text>
      <text
         id="text1256"
         y="549.56976"
         x="21.579473"
         style="font-weight:bold;font-size:21.3333px;line-height:2.4469px;font-family:'Times New Roman';-inkscape-font-specification:'Times New Roman, Bold';fill:#000000;fill-opacity:1"
         xml:space="preserve"><tspan
           style="font-style:normal;font-variant:normal;font-weight:bold;font-stretch:normal;font-size:8px;font-family:'Times New Roman';-inkscape-font-specification:'Times New Roman, Bold';font-variant-ligatures:normal;font-variant-caps:normal;font-variant-numeric:normal;font-variant-east-asian:normal;fill:#000000;fill-opacity:1"
           y="549.56976"
           x="21.579473"
           id="tspan1254"
           sodipodi:role="line">0</tspan></text>
      <text
         xml:space="preserve"
         style="font-weight:bold;font-size:21.3333px;line-height:2.4469px;font-family:'Times New Roman';-inkscape-font-specification:'Times New Roman, Bold';fill:#000000;fill-opacity:1"
         x="21.579473"
         y="567.87329"
         id="text1260"><tspan
           sodipodi:role="line"
           id="tspan1258"
           x="21.579473"
           y="567.87329"
           style="font-style:normal;font-variant:normal;font-weight:bold;font-stretch:normal;font-size:8px;font-family:'Times New Roman';-inkscape-font-specification:'Times New Roman, Bold';font-variant-ligatures:normal;font-variant-caps:normal;font-variant-numeric:normal;font-variant-east-asian:normal;fill:#000000;fill-opacity:1">0</tspan></text>
      <text
         id="text1264"
         y="549.27832"
         x="56.557255"
         style="font-weight:bold;font-size:21.3333px;line-height:2.4469px;font-family:'Times New Roman';-inkscape-font-specification:'Times New Roman, Bold';fill:#000000;fill-opacity:1"
         xml:space="preserve"><tspan
           style="font-style:normal;font-variant:normal;font-weight:bold;font-stretch:normal;font-size:8px;font-family:'Times New Roman';-inkscape-font-specification:'Times New Roman, Bold';font-variant-ligatures:normal;font-variant-caps:normal;font-variant-numeric:normal;font-variant-east-asian:normal;fill:#000000;fill-opacity:1"
           y="549.27832"
           x="56.557255"
           id="tspan1262"
           sodipodi:role="line">1</tspan></text>
      <text
         xml:space="preserve"
         style="font-weight:bold;font-size:21.3333px;line-height:2.4469px;font-family:'Times New Roman';-inkscape-font-specification:'Times New Roman, Bold';fill:#000000;fill-opacity:1"
         x="43.10738"
         y="567.52515"
         id="text1268"><tspan
           sodipodi:role="line"
           id="tspan1266"
           x="43.10738"
           y="567.52515"
           style="font-style:normal;font-variant:normal;font-weight:bold;font-stretch:normal;font-size:8px;font-family:'Times New Roman';-inkscape-font-specification:'Times New Roman, Bold';font-variant-ligatures:normal;font-variant-caps:normal;font-variant-numeric:normal;font-variant-east-asian:normal;fill:#000000;fill-opacity:1">1</tspan></text>
      <text
         id="text1272"
         y="567.29211"
         x="65.266808"
         style="font-weight:bold;font-size:21.3333px;line-height:2.4469px;font-family:'Times New Roman';-inkscape-font-specification:'Times New Roman, Bold';fill:#000000;fill-opacity:1"
         xml:space="preserve"><tspan
           style="font-style:normal;font-variant:normal;font-weight:bold;font-stretch:normal;font-size:8px;font-family:'Times New Roman';-inkscape-font-specification:'Times New Roman, Bold';font-variant-ligatures:normal;font-variant-caps:normal;font-variant-numeric:normal;font-variant-east-asian:normal;fill:#000000;fill-opacity:1"
           y="567.29211"
           x="65.266808"
           id="tspan1270"
           sodipodi:role="line">2  Kilometers</tspan></text>
      <text
         xml:space="preserve"
         style="font-weight:bold;font-size:21.3333px;line-height:2.4469px;font-family:'Times New Roman';-inkscape-font-specification:'Times New Roman, Bold';fill:#000000;fill-opacity:1"
         x="90.370888"
         y="549.33496"
         id="text1276"><tspan
           sodipodi:role="line"
           id="tspan1274"
           x="90.370888"
           y="549.33496"
           style="font-style:normal;font-variant:normal;font-weight:bold;font-stretch:normal;font-size:8px;font-family:'Times New Roman';-inkscape-font-specification:'Times New Roman, Bold';font-variant-ligatures:normal;font-variant-caps:normal;font-variant-numeric:normal;font-variant-east-asian:normal;fill:#000000;fill-opacity:1">2  Miles</tspan></text>
    </g>
    <path
       id="path3239"
       style="fill:none;stroke:#000000;stroke-width:0.944882;stroke-linecap:butt;stroke-linejoin:miter;stroke-miterlimit:4;stroke-dasharray:none;stroke-opacity:1"
       d="m 133.96875,185.86133 v 30.41016" />
    <path
       id="path3235"
       style="fill:none;stroke:#000000;stroke-width:0.944882;stroke-linecap:butt;stroke-linejoin:miter;stroke-miterlimit:4;stroke-dasharray:none;stroke-opacity:1"
       d="m 128.63477,182.88477 v 50.75" />
    <path
       id="path3231"
       style="fill:none;stroke:#000000;stroke-width:0.944882;stroke-linecap:butt;stroke-linejoin:miter;stroke-miterlimit:4;stroke-dasharray:none;stroke-opacity:1"
       d="m 123.30078,179.89453 v 77.58594" />
    <path
       id="path3227"
       style="fill:none;stroke:#000000;stroke-width:0.944882;stroke-linecap:butt;stroke-linejoin:miter;stroke-miterlimit:4;stroke-dasharray:none;stroke-opacity:1"
       d="m 117.96875,176.77344 v 79.58789" />
    <path
       id="path3223"
       style="fill:none;stroke:#000000;stroke-width:0.944882;stroke-linecap:butt;stroke-linejoin:miter;stroke-miterlimit:4;stroke-dasharray:none;stroke-opacity:1"
       d="m 112.63477,173.36133 v 79.91601" />
    <path
       id="path3219"
       style="fill:none;stroke:#000000;stroke-width:0.944882;stroke-linecap:butt;stroke-linejoin:miter;stroke-miterlimit:4;stroke-dasharray:none;stroke-opacity:1"
       d="m 107.30078,173.76367 v 76.42969" />
    <path
       id="path3215"
       style="fill:none;stroke:#000000;stroke-width:0.944882;stroke-linecap:butt;stroke-linejoin:miter;stroke-miterlimit:4;stroke-dasharray:none;stroke-opacity:1"
       d="m 101.96875,181.39844 v 65.71094" />
    <path
       id="path3211"
       style="fill:none;stroke:#000000;stroke-width:0.944882;stroke-linecap:butt;stroke-linejoin:miter;stroke-miterlimit:4;stroke-dasharray:none;stroke-opacity:1"
       d="m 96.634763,189.61132 2e-6,54.41407" />
    <path
       id="path3207"
       style="fill:none;stroke:#000000;stroke-width:0.944882;stroke-linecap:butt;stroke-linejoin:miter;stroke-miterlimit:4;stroke-dasharray:none;stroke-opacity:1"
       d="m 91.300782,197.82423 -10e-7,43.11718" />
    <path
       id="path3203"
       style="fill:none;stroke:#000000;stroke-width:0.944882;stroke-linecap:butt;stroke-linejoin:miter;stroke-miterlimit:4;stroke-dasharray:none;stroke-opacity:1"
       d="m 91.30078,164.74805 -2e-6,16.09961" />
    <path
       id="path3199"
       style="fill:none;stroke:#000000;stroke-width:0.944882;stroke-linecap:butt;stroke-linejoin:miter;stroke-miterlimit:4;stroke-dasharray:none;stroke-opacity:1"
       d="m 85.968751,206.03516 -10e-7,31.82226" />
    <path
       id="path3195"
       style="fill:none;stroke:#000000;stroke-width:0.944882;stroke-linecap:butt;stroke-linejoin:miter;stroke-miterlimit:4;stroke-dasharray:none;stroke-opacity:1"
       d="m 85.968753,162.56837 -4e-6,36.08983" />
    <path
       id="path3191"
       style="fill:none;stroke:#000000;stroke-width:0.944882;stroke-linecap:butt;stroke-linejoin:miter;stroke-miterlimit:4;stroke-dasharray:none;stroke-opacity:1"
       d="m 80.634764,157.66797 10e-7,77.70703" />
    <path
       id="path3187"
       style="fill:none;stroke:#000000;stroke-width:0.944882;stroke-linecap:butt;stroke-linejoin:miter;stroke-miterlimit:4;stroke-dasharray:none;stroke-opacity:1"
       d="m 75.300781,160.60938 v 72.79883" />
    <path
       id="path3183"
       style="fill:none;stroke:#000000;stroke-width:0.944882;stroke-linecap:butt;stroke-linejoin:miter;stroke-miterlimit:4;stroke-dasharray:none;stroke-opacity:1"
       d="m 69.968749,169.39844 10e-7,62.04492" />
    <path
       id="path3179"
       style="fill:none;stroke:#000000;stroke-width:0.944882;stroke-linecap:butt;stroke-linejoin:miter;stroke-miterlimit:4;stroke-dasharray:none;stroke-opacity:1"
       d="m 64.634768,175.90235 -10e-7,53.57421" />
    <path
       id="path3175"
       style="fill:none;stroke:#000000;stroke-width:0.944882;stroke-linecap:butt;stroke-linejoin:miter;stroke-miterlimit:4;stroke-dasharray:none;stroke-opacity:1"
       d="m 59.300783,184.18165 -1e-6,43.32812" />
    <path
       id="path3171"
       style="fill:none;stroke:#000000;stroke-width:0.944882;stroke-linecap:butt;stroke-linejoin:miter;stroke-miterlimit:4;stroke-dasharray:none;stroke-opacity:1"
       d="m 53.96875,213.74414 -10e-7,11.80078" />
    <path
       id="path3169"
       d="m 50.515029,223.67288 4.092357,-11.76553 2.301951,-3.58081 1.023089,-1.91829 0.255772,-1.02309 -2.557723,-6.90585 -0.127886,-1.79041 0.639431,-2.8135 1.023089,-2.81349 0.767317,-3.19716 1.66252,-4.47601 1.278862,-3.32504 1.918292,-2.17406 4.859673,-5.24334 1.278862,-1.53463 9.463575,-15.60211 7.033738,6.77796 3.197154,1.66252 1.406748,-0.63943 3.836584,4.34813 1.150976,0.76732 -12.021298,40.15625 1.150975,0.25577 22.507963,-34.65714 2.17406,-1.40675 1.66252,-0.12789 2.30195,0.76732 5.11545,3.32504 4.09236,2.42984 11.63764,6.52219 6.65008,3.45293 2.81349,1.40674 -5.62699,8.56838 -0.12788,1.66252 -0.12789,6.65008 -6.77797,18.4156 0.63943,1.91829 -0.25577,1.40675 -3.58081,7.28951 -0.63943,10.10301 -0.25577,2.30195 -2.30195,3.96447 -0.12789,3.83658 -1.66252,2.17407 -37.598529,-21.74065 -2.813495,-1.27886 -30.181131,-11.12609 z"
       style="fill:none;stroke:#000000;stroke-width:0.944882;stroke-linecap:butt;stroke-linejoin:miter;stroke-miterlimit:4;stroke-dasharray:none;stroke-opacity:1" />
  </g>
</svg>
