<?xml version="1.0" encoding="UTF-8" standalone="no"?>
<svg
   xmlns:dc="http://purl.org/dc/elements/1.1/"
   xmlns:cc="http://creativecommons.org/ns#"
   xmlns:rdf="http://www.w3.org/1999/02/22-rdf-syntax-ns#"
   xmlns:svg="http://www.w3.org/2000/svg"
   xmlns="http://www.w3.org/2000/svg"
   xmlns:sodipodi="http://sodipodi.sourceforge.net/DTD/sodipodi-0.dtd"
   xmlns:inkscape="http://www.inkscape.org/namespaces/inkscape"
   inkscape:version="0.92.2 5c3e80d, 2017-08-06"
   sodipodi:docname="er04no13.016.svg"
   viewBox="0 0 622.71997 784"
   height="784"
   width="622.71997"
   id="svg13295"
   version="1.1">
  <metadata
     id="metadata13301">
    <rdf:RDF>
      <cc:Work
         rdf:about="">
        <dc:format>image/svg+xml</dc:format>
        <dc:type
           rdf:resource="http://purl.org/dc/dcmitype/StillImage" />
        <dc:title></dc:title>
      </cc:Work>
    </rdf:RDF>
  </metadata>
  <defs
     id="defs13299" />
  <sodipodi:namedview
     inkscape:snap-global="false"
     inkscape:current-layer="g13303"
     inkscape:window-maximized="0"
     inkscape:window-y="0"
     inkscape:window-x="-1"
     inkscape:cy="0.32051769"
     inkscape:cx="277.54958"
     inkscape:zoom="1.2939802"
     showgrid="false"
     id="namedview13297"
     inkscape:window-height="756"
     inkscape:window-width="1280"
     inkscape:pageshadow="2"
     inkscape:pageopacity="0"
     guidetolerance="10"
     gridtolerance="10"
     objecttolerance="10"
     borderopacity="1"
     bordercolor="#666666"
     pagecolor="#ffffff" />
  <g
     id="g13303"
     inkscape:label="Image"
     inkscape:groupmode="layer">
    <path
       sodipodi:nodetypes="cccssscc"
       inkscape:connector-curvature="0"
       id="path14359-1-7-5-3-0-73-1-9-8-5"
       d="m 546.22677,173.6823 -267.35616,2.83387 -1.9328,-159.969773 c 27.31209,0.08723 57.4257,-0.449881 86.74565,-1.24816 10.77317,-0.293317 22.10886,-0.05459 32.61448,-0.127221 24.04339,-0.166134 48.4637,-0.352652 72.54387,-0.845614 25.06937,-0.513243 64.49924,-0.508611 76.11791,-0.500167 z"
       style="fill:none;stroke:#000000;stroke-width:1;stroke-linecap:round;stroke-linejoin:round;stroke-miterlimit:4;stroke-dasharray:none;stroke-opacity:1" />
    <path
       sodipodi:nodetypes="cccc"
       inkscape:connector-curvature="0"
       id="path14359-1-7-5-3-0-73-1-9-8-5-7"
       d="m 494.64375,14.311671 0.0145,4.467636 m 1.38461,151.086793 0.0143,4.06358"
       style="fill:none;stroke:#000000;stroke-width:1;stroke-linecap:round;stroke-linejoin:round;stroke-miterlimit:4;stroke-dasharray:none;stroke-opacity:1" />
    <path
       sodipodi:nodetypes="cccc"
       inkscape:connector-curvature="0"
       id="path14359-1-7-5-3-0-73-1-9-8-5-8"
       d="m 316.39608,16.182422 0.0149,4.095993 m 1.95528,151.143505 0.0142,4.06362"
       style="fill:none;stroke:#000000;stroke-width:1;stroke-linecap:round;stroke-linejoin:round;stroke-miterlimit:4;stroke-dasharray:none;stroke-opacity:1" />
    <path
       sodipodi:nodetypes="cccc"
       inkscape:connector-curvature="0"
       id="path14359-1-7-5-3-0-73-1-9-8-5-42"
       d="m 450.11756,14.796933 0.0158,4.51365 m 1.50376,150.954337 0.0143,4.06362"
       style="fill:none;stroke:#000000;stroke-width:1;stroke-linecap:round;stroke-linejoin:round;stroke-miterlimit:4;stroke-dasharray:none;stroke-opacity:1" />
    <path
       sodipodi:nodetypes="cccc"
       inkscape:connector-curvature="0"
       id="path14359-1-7-5-3-0-73-1-9-8-5-76"
       d="m 405.26894,15.308275 0.0139,3.672802 m 1.67226,151.532813 0.0142,3.96525"
       style="fill:none;stroke:#000000;stroke-width:1;stroke-linecap:round;stroke-linejoin:round;stroke-miterlimit:4;stroke-dasharray:none;stroke-opacity:1" />
    <path
       sodipodi:nodetypes="cccc"
       inkscape:connector-curvature="0"
       id="path14359-1-7-5-3-0-73-1-9-8-5-5"
       d="m 360.63451,15.540041 0.0148,4.254131 m 1.81609,151.094488 0.0142,4.06359"
       style="fill:none;stroke:#000000;stroke-width:1;stroke-linecap:round;stroke-linejoin:round;stroke-miterlimit:4;stroke-dasharray:none;stroke-opacity:1" />
    <path
       sodipodi:nodetypes="cc"
       inkscape:connector-curvature="0"
       id="path14359-1-7-5-3-0-73-1-9-8-5-3"
       d="m 545.76373,135.60105 -5.05701,0.0137"
       style="fill:none;stroke:#000000;stroke-width:1;stroke-linecap:round;stroke-linejoin:round;stroke-miterlimit:4;stroke-dasharray:none;stroke-opacity:1" />
    <path
       sodipodi:nodetypes="cc"
       inkscape:connector-curvature="0"
       id="path14359-1-7-5-3-0-73-1-9-8-5-2"
       d="m 545.02687,46.755731 -5.07591,0.01293"
       style="fill:none;stroke:#000000;stroke-width:1;stroke-linecap:round;stroke-linejoin:round;stroke-miterlimit:4;stroke-dasharray:none;stroke-opacity:1" />
    <path
       sodipodi:nodetypes="cc"
       inkscape:connector-curvature="0"
       id="path14359-1-7-5-3-0-73-1-9-8-5-41"
       d="m 545.44966,94.567201 -4.79459,0.01277"
       style="fill:none;stroke:#000000;stroke-width:1;stroke-linecap:round;stroke-linejoin:round;stroke-miterlimit:4;stroke-dasharray:none;stroke-opacity:1" />
    <path
       sodipodi:nodetypes="cc"
       inkscape:connector-curvature="0"
       id="path14359-1-7-5-3-0-73-1-9-8-5-6"
       d="m 566.81464,117.46657 -10.93527,-0.002"
       style="fill:none;stroke:#000000;stroke-width:1;stroke-linecap:round;stroke-linejoin:round;stroke-miterlimit:4;stroke-dasharray:none;stroke-opacity:1" />
    <path
       style="fill:none;stroke:#000000;stroke-width:1;stroke-linecap:round;stroke-linejoin:round;stroke-miterlimit:4;stroke-dasharray:none;stroke-opacity:1"
       d="m 145.32107,739.19666 -0.002,10.05815 h -29.68396 l 0.002,-10.05815 z"
       id="path14359-1-7-5-3-0-73-1-9-8-5-46-8"
       inkscape:connector-curvature="0"
       sodipodi:nodetypes="ccccc" />
    <path
       sodipodi:nodetypes="csssssssssssssssssssssssssssssssssssssssssssssssssssssssssssssssssssssssscssssssssssssssssssssscssssssssssscssssssscssssssssssssssssssssscsssssscssssssccsssccccssscscsssssssssssscssssssccssssssssssssscssssssssssssssssssssssssssscssssssssssssssssssssssssscsssssssc"
       id="path9200"
       d="m 533.72533,94.40381 c -0.10489,0.02715 -0.71124,0.238026 -0.93756,0.16224 -0.40621,-0.135995 -0.69613,-0.53593 -1.17476,-0.631435 -2.59263,-0.51735 -4.25727,-0.232549 -6.54817,0.358228 -0.57157,0.147389 -1.15363,-0.559127 -1.64303,-0.391397 -0.56257,0.192803 -1.32828,1.59382 -1.55848,1.594658 -0.091,3.64e-4 0.15092,-1.68839 0.15048,-1.827978 -0.003,-1.093129 -1.71417,-1.255189 -2.35144,-1.898487 -0.57141,-0.576784 0.65724,-2.266799 0.30432,-2.623059 -0.48788,-0.492446 -1.31044,1.26854 -1.63717,1.436034 -0.4636,0.237608 -1.42247,1.520076 -1.93244,1.34932 -0.52627,-0.176197 -0.71105,-1.147635 -1.40979,-0.7895 -0.36501,0.187098 -2.90815,1.826987 -3.19996,1.679966 -0.18871,-0.09505 -0.22831,-0.404092 -0.0798,-0.555889 0.24872,-0.254508 0.64391,-0.220677 0.93713,-0.321165 1.22851,-0.421034 2.62069,-1.489286 1.71076,-2.866452 -0.56944,-0.861851 -1.76643,-0.453533 -2.11289,-0.628066 -0.59618,-0.300334 0.28726,-1.471418 -0.78789,-1.904082 -0.56829,-0.228692 -1.41001,0.295116 -2.0324,0.08673 -0.30467,-0.102011 -2.34898,-0.268288 -2.58041,-0.149676 -0.27066,0.138739 -1.12239,0.735344 -1.40516,0.640651 -0.26502,-0.08878 -0.67151,-0.560491 -0.55003,-0.872011 0.27065,-0.694343 0.53768,-0.365029 0.77745,-1.3535 0.0197,-0.08133 0.15981,-0.238936 0.0773,-0.238642 -0.20581,9.2e-4 -1.97053,1.959338 -2.10369,2.232231 -0.099,0.203324 -0.19564,1.105452 -0.0738,1.350979 0.0525,0.105726 0.51128,0.672587 0.39345,0.793129 -0.34447,0.35247 -1.22578,1.248153 -0.30817,1.431269 0.42808,0.08545 1.05969,1.167394 0.78692,1.586255 -0.2856,0.438503 -1.14024,0.967615 -0.93307,1.592414 0.1426,0.430011 1.1475,0.715401 0.94249,1.347343 -0.0789,0.243355 -0.36971,0.20373 -0.54649,0.240311 -0.28049,0.05827 -0.49859,0.271798 -0.78078,0.320623 -1.01528,0.175685 -2.86546,-0.307618 -3.80925,0.01575 -1.2643,0.433311 -2.54951,1.545507 -3.74568,2.158633 -1.16265,0.595916 -0.45667,1.423823 -0.93205,1.91023 -0.25816,0.264135 -0.79073,0.194672 -1.09326,0.401175 -1.58905,1.0847 -2.20989,1.7454 -4.21476,2.16032 -0.28963,0.0598 -0.92283,0.32837 -1.25035,0.1634 -2.2968,-1.15699 1.76556,-2.898838 2.17706,-3.742121 0.48764,-0.999472 -2.8235,0.208382 -2.35098,-1.739581 0.0881,-0.363289 0.5062,-0.758103 0.62183,-1.114574 0.1963,-0.604986 0.41203,-1.270031 0.61933,-1.909096 0.17094,-0.52683 0.57965,-0.940491 0.69904,-1.432674 0.24495,-1.009729 -0.31476,-2.003032 -0.0874,-2.939471 0.14108,-0.581566 0.84053,-0.600294 1.24808,-0.87846 1.51691,-1.035429 3.00286,-1.751068 4.92092,-1.368311 0.65826,0.131362 1.31508,0.651966 1.95726,0.866987 0.43837,0.14678 1.25367,0.149681 1.4844,-0.323124 0.4157,-0.851975 -3.43146,-2.019588 -2.98176,-3.405836 0.21152,-0.651984 3.28386,-1.796371 1.47674,-2.706716 -0.50616,-0.254973 -0.0111,1.011844 -0.0738,1.271524 -0.1002,0.412743 -0.4545,0.471703 -0.77973,0.638413 -1.01759,0.521564 -3.29897,-0.168557 -4.53361,0.254581 -0.63495,0.21759 -0.84235,0.985176 -1.32473,1.355445 -1.62472,1.247247 -3.72528,2.817867 -4.36271,4.782832 -0.10257,0.315969 -0.45722,0.526827 -0.54475,0.796488 -0.15144,0.466947 0.71651,0.370994 0.47191,0.872291 -0.11231,0.230166 -0.92605,0.01207 -1.17221,0.163108 -0.53845,0.330929 -0.95863,1.167839 -1.48079,1.435462 -0.16255,0.08333 -0.47725,-0.06961 -0.62515,0.08164 -0.31942,0.326794 -0.14477,1.475307 -0.22843,1.907691 -0.0822,0.423657 -0.46166,0.988312 -0.69928,1.353228 -0.20375,0.312868 -1.44551,1.17859 -1.79378,1.357106 -0.18736,0.09597 -0.5163,-0.09347 -0.70362,0.0019 -0.14542,0.07473 -0.0889,0.422248 -0.15458,0.556753 -0.20729,0.424781 -0.61599,0.784964 -0.85615,1.194859 -0.21695,0.370286 -0.6589,0.514756 -0.9356,0.797876 -0.25694,0.26291 -0.25788,0.74213 -0.54393,1.03483 -0.4139,0.42353 -0.81548,0.66839 -1.01226,1.27487 -0.0849,0.26111 0.71422,0.56253 0.86227,0.71205 0.1305,0.1317 0.1775,0.38363 0.31425,0.47555 0.8224,0.55309 3.12741,0.0704 3.13249,1.65736 0.005,1.59035 -4.44236,4.33518 -4.43913,5.33927 -0.23808,0.65908 -0.56148,0.71125 -1.09124,1.03681 -0.58684,0.36067 -0.79043,1.16957 -1.48081,1.43546 -0.85971,0.33117 -1.71925,1.32993 -2.31775,2.11737 -0.3306,0.43503 -1.01322,1.60313 -1.40109,1.91191 -0.81111,0.64566 -1.87135,0.7988 -2.65296,1.59856 -0.38961,0.39866 0.12835,0.87274 -0.15202,1.35126 -0.1603,0.27355 -2.63598,1.98236 -3.60599,2.68001 -1.50615,1.08327 -3.15043,1.78554 -4.64252,2.89634 -0.81718,0.60832 -0.0733,1.58995 -0.46173,2.30583 -0.28634,0.52797 -1.31688,1.04317 -1.79376,1.35713 -0.86794,0.57134 -1.27183,0.69206 -2.14534,1.24256 -0.38326,0.24154 -0.71237,0.68068 -1.17013,0.79872 -1.12293,0.2896 -1.84157,-0.2979 -3.0477,0.4082 -0.45077,0.2639 -1.37511,0.87295 -1.63741,1.35658 -0.38562,0.71093 0.83586,1.61694 -0.14973,2.06629 -0.87629,0.39954 -0.75637,-0.95929 -1.33366,-1.42539 -0.49712,-0.40137 -1.14909,0.25215 -1.71941,0.16503 -0.54744,-0.0837 -0.66197,-0.72423 -1.09728,-0.87004 -0.62587,-0.20957 -0.98176,1.08244 -1.32471,1.35542 -0.3721,0.29624 -0.44838,0.17731 -0.77999,0.559 -0.2012,0.23154 -0.22403,0.61001 -0.46656,0.7962 -0.10605,0.0812 -0.26936,0.0255 -0.39065,0.0806 -0.42619,0.19431 -0.17659,0.28409 -0.62413,0.39948 -0.69939,0.18036 0.14583,-0.35327 -0.85946,0.16199 -0.41718,0.21383 -0.57136,0.82063 -1.0133,0.95708 -0.67932,0.20976 -1.40253,-0.0305 -2.03109,0.48397 -0.21578,0.17665 -0.46998,0.36664 -0.54521,0.63759 -0.0831,0.29922 0.83479,0.72144 0.3937,0.87257 -1.55448,0.53275 -3.11206,0.67092 -4.37215,1.8431 -0.53092,0.49387 -1.39103,1.39209 -2.10906,0.56373 -1.32372,-1.5271 1.18149,-3.78342 2.48795,-4.29944 0.54483,-0.21517 1.50135,-0.51288 2.03192,-0.24564 0.25144,0.1267 0.7837,0.60029 0.78282,0.31504 -1.9e-4,-0.0529 -0.20292,0.0245 -0.15637,4.3e-4 0.39266,-0.20126 1.09561,-0.0524 1.4064,-0.24337 0.92675,-0.56952 0.15865,-1.36648 1.08842,-1.91077 0.38111,-0.22309 0.92702,0.0742 1.24982,-0.32228 0.60718,-0.74559 0.8735,-1.69569 1.47753,-2.46835 0.46245,-0.59155 3.24901,-2.54086 3.97873,-2.6362 0.35351,-0.0464 1.05997,-0.12129 1.4072,-0.005 0.42413,0.14203 0.67987,0.61361 1.01912,0.87036 0.64428,0.48756 2.2455,0.41264 2.26843,0.38914 0.42893,-0.43883 -0.004,-0.89999 -0.006,-1.35068 -0.006,-1.47524 1.37241,-3.44214 2.56639,-4.22022 1.26324,-0.82319 2.08421,-1.37584 3.3934,-2.12107 0.42815,-0.24369 1.15668,-0.14721 1.48386,-0.48202 0.35813,-0.3664 0.38837,-0.792 0.38684,-1.27263 -0.004,-1.28674 1.64029,-1.67837 2.41563,-2.47172 0.45564,-0.46624 0.66442,-0.85224 1.22647,-1.1813 0.25541,-0.14949 0.60328,-0.0741 0.85946,-0.16198 0.20098,-0.0689 -0.5508,-1.59191 -0.39751,-2.06437 0.21535,-0.66387 0.27803,-1.59955 0.61829,-2.22691 0.24311,-0.44826 0.9975,-0.67639 1.16913,-1.11655 0.16122,-0.41355 -0.70656,-0.90252 -0.70974,-1.90435 -0.005,-1.59995 2.05695,-3.62583 2.60469,-4.88955 0.13522,-0.31193 0.80907,-2.04078 0.46423,-1.51128 -0.29427,0.45191 -0.39363,1.01597 -0.85561,1.3538 -0.3479,0.25435 -0.80723,0.34744 -1.1709,0.56035 -0.40255,0.23562 -0.68248,0.66812 -1.09171,0.87785 -0.85524,0.43839 -2.47188,0.84533 -3.43808,0.5685 -0.88273,-0.25293 -0.94204,-1.20945 -0.94451,-1.98295 -4.6e-4,-0.0987 0.57977,-0.95551 0.54421,-0.95543 -0.0522,2.3e-4 0.0526,0.15877 4.2e-4,0.15894 -0.0738,2.5e-4 -0.084,-0.14628 -0.15689,-0.15836 -1.48456,-0.24601 -1.78964,2.64374 -1.78667,3.58181 0.002,0.30316 -0.19902,0.74157 -0.62361,0.55842 -1.4103,-0.60838 -2.12314,-2.63261 -2.74592,-3.00945 -0.2495,-0.15093 -1.23256,0.14971 -1.87633,0.006 -0.8806,-0.19563 -1.01742,-1.17731 -2.01801,-1.00418 -1.60734,0.27817 -1.79513,0.91888 -1.79046,2.38999 2.5e-4,0.13559 0.0594,0.43831 0.004,0.55619 -0.51054,1.04634 -1.22905,-1.13776 -2.03438,-0.54888 -0.67562,0.49397 -1.31283,0.90908 -2.18775,0.40508 -0.74826,-0.4311 -0.15902,-2.99753 -0.40286,-3.73287 -0.1002,-0.30231 -0.34957,-0.5767 -0.47189,-0.87235 -0.15515,-0.37497 -0.25893,-0.86464 -0.16044,-1.27066 0.12716,-0.52417 0.9353,-0.95761 1.08943,-1.59298 0.0577,-0.23724 -2.00559,-5.810203 -2.22938,-6.073777 -0.0789,-0.238069 -0.10352,-0.502717 -0.23683,-0.714211 -0.16066,-0.254676 -0.89861,-0.180372 -0.78407,-0.712286 0.0733,-0.339405 1.30709,-2.244382 1.24347,-2.308598 -0.2353,-0.237528 -0.50941,0.442607 -0.70131,0.717588 -0.12333,0.176739 -1.08821,1.969526 -1.08738,2.228589 5.7e-4,0.228783 0.20087,0.707987 0.0812,0.953154 -0.23847,0.488724 -0.31627,0.362291 -0.77948,0.717856 m 10e-6,0 c -0.3929,0.321672 -4.05152,2.419192 -5.46695,1.767523 -0.63525,-0.292474 -1.59647,-1.366845 -1.96083,-1.979321 -0.21474,-0.361 -0.0655,-0.430044 -0.39319,-0.713678 -0.43594,-0.377175 -0.98001,-0.5141 -1.41025,-0.948392 -0.23524,-0.211038 -0.53508,-0.365446 -0.70567,-0.633092 -0.18852,-0.295876 0.12811,-0.938532 -0.003,-1.271246 -0.21802,-0.548674 -0.69431,-0.449318 -0.55105,-1.189838 0.11849,-0.612667 0.5729,-0.912419 0.85537,-1.433228 0.12368,-0.228049 0.11557,-0.462737 0.46778,-0.398939 1.57429,0.285099 0.48695,1.746236 3.21094,1.736491 0.3603,-0.0013 2.52373,-0.05545 2.42179,-0.564838 -0.13126,-0.655703 -1.29648,-2.617334 -2.04105,-2.61466 -0.53293,0.0016 -0.1544,0.317635 -0.46732,0.557835 -0.36105,0.277162 -1.56415,-0.175669 -1.56358,0.0054 0.002,0.433585 -1.0144,0.599539 -1.48437,0.323126 -0.71793,-0.42225 -0.62901,-1.070604 -1.02166,-1.664879 -0.2497,-0.377932 -0.49067,0.28473 -0.62669,-0.395019 -0.0732,-0.366473 -0.12725,-1.453231 -0.005,-1.827435 0.0158,-0.04918 0.15373,-0.240765 0.077,-0.318083 -0.47662,-0.48111 -0.6429,2.337539 -2.34409,0.405653 -0.66352,-0.753465 -0.94667,-1.356359 -1.53211,-1.947297 -0.11854,-0.119655 -0.50287,0.02847 -0.47009,-0.316144 0.0389,-0.407099 0.46479,-1.47221 0.69778,-1.829931 0.33021,-0.507094 0.94209,-0.383612 1.16934,-1.037084 0.39468,-1.134887 0.53868,-4.344716 1.608,-4.953398 0.56275,-0.320314 2.08779,0.329417 2.11186,0.310246 0.53156,-0.423158 0.43259,-2.60771 0.30229,-3.258671 -0.0851,-0.425313 -0.53906,-0.615161 -0.39446,-1.110946 0.16018,-0.549151 0.68944,-1.417969 1.01022,-1.910501 0.16093,-0.247153 0.55441,-0.759478 0.77873,-0.956235 0.31338,-0.27485 1.89491,-0.35562 2.26691,-0.08765 0.41559,0.299507 0.32599,0.665887 0.78486,0.950645 0.7915,0.491217 1.97488,0.256525 2.73571,-0.168692 0.77508,-0.433193 3.08436,-2.753825 3.19366,-3.666291 0.0707,-0.588177 -1.98118,-1.538475 -1.33493,-1.822668 0.14352,-0.06314 0.32518,-0.0637 0.4691,-0.0013 6e-5,3e-5 0.45123,1.270909 1.49048,1.583738 1.06646,0.321024 2.97498,0.112577 3.98605,-0.332063 0.74893,-0.329336 1.184,-1.163117 1.55774,-1.83301 0.18006,-0.32267 0.5429,-0.667173 0.62214,-1.035115 0.12006,-0.557776 -0.37661,-1.214442 -0.55287,-1.74601 -0.13121,-0.29086 -0.27864,-0.574743 -0.39368,-0.872574 -0.33062,-0.85572 0.0674,-1.995193 -0.32159,-2.779735 -0.26875,-0.541744 -0.9249,-0.42841 -0.86407,-1.268176 0.11402,-1.573056 2.51753,-1.623253 1.39554,-3.65986 -0.0462,-0.08431 -0.21598,-0.47549 -0.31451,-0.555057 -0.44293,-0.35756 -1.42826,0.294342 -1.7966,0.483151 -1.03934,0.532715 -2.24245,0.557038 -3.27995,1.124086 -0.45806,0.250371 -1.281,0.801557 -1.55947,1.276831 -0.21202,0.361803 -0.0757,0.834578 -0.54423,0.95539 -0.35643,0.09187 -0.80084,-0.477427 -1.17444,-0.551968 -0.39347,-0.07852 -0.92523,1.294665 -1.24908,0.560643 -0.48432,-1.097635 0.93326,-1.159139 -1.17701,-1.346508 -2.02616,-0.179898 -2.93328,0.44585 -4.76609,0.89103 -0.59616,0.144802 -0.60306,0.01626 -1.17219,0.163097 -0.28381,0.0732 -0.56345,0.276913 -0.85895,0.320886 -0.72838,0.108406 -3.23148,-0.993853 -4.06938,-1.256699 -0.51975,-0.163046 -2.27273,-0.617623 -2.50576,-1.262299 -0.17318,-0.479045 0.79547,-1.723536 -0.008,-2.860302 -0.19962,-0.282048 -1.60669,-0.785737 -1.33336,-1.345948 0.21568,-0.442065 0.73013,0.109207 1.01657,0.07587 0.4653,-0.05429 1.70283,-0.890304 1.40263,-1.435182 -0.62378,-1.132219 -3.6902,-2.188426 -4.85469,-2.36624 -0.67422,-0.102955 -1.19992,-0.04677 -1.79963,-0.470304 -0.3727,-0.26319 -1.05338,-0.720223 -0.78589,-1.268445 0.55572,-1.139044 2.71718,-1.675964 3.43251,-2.316433 0.70432,-0.630674 1.50414,-2.419388 2.49306,-2.710336 1.06884,-0.31449 2.37481,0.137775 3.43884,-0.330115 0.46194,-0.203147 0.0618,-1.252483 0.38527,-1.749362 0.72259,-1.109525 2.03199,-0.74465 3.04542,-1.12325 0.94338,-0.352431 1.27275,-1.255112 1.87124,-1.595765 0.49113,-0.279577 1.96311,-0.268618 2.5014,-0.08847 1.47534,0.49399 -0.1251,1.896555 -0.38247,2.623337 -0.12637,0.356781 0.30696,1.204904 0.47388,1.507932 0.79821,1.448837 4.87714,0.688046 6.17922,0.931348 0.8672,0.162059 1.80647,0.81869 2.73827,0.62584 0.89693,-0.185645 0.97256,-1.426993 1.9494,-1.596055 0.39538,-0.06846 2.95566,0.258542 2.65601,-0.645114 -0.11724,-0.353631 -0.49282,-0.466742 -0.70589,-0.712558 -0.35818,-0.413208 -0.50551,-1.069584 -1.09833,-1.187876 -0.78211,-0.156076 -1.65695,0.307319 -2.34665,-0.388889 -0.28527,-0.287951 -0.25501,-0.917666 -0.39494,-1.26985 -0.22012,-0.553932 -0.72159,-1.298266 -1.10013,-1.744052 -0.31442,-0.370272 -1.77293,-2.281295 -0.86581,-1.824326 0.57937,0.291847 2.0944,3.804023 2.8287,4.439288 0.40991,0.354633 3.24342,0.08923 3.98788,0.224106 0.70117,0.126979 1.24396,1.05562 2.03494,0.707805 0.65366,-0.287455 0.33484,-1.135372 0.77695,-1.512395 0.43775,-0.373362 2.54025,1.678311 2.42528,0.547494 -0.072,-0.708435 -0.59768,-0.428373 -1.0186,-0.711442 -0.33845,-0.227621 -0.38414,-0.526135 -0.70614,-0.792014 -1.01453,-0.837743 -2.8114,-0.981027 -4.06784,-0.779985 -0.80366,0.128588 -0.68967,0.584172 -1.71865,0.403411 -0.70283,-0.123462 -1.25564,-0.560671 -1.48949,-1.265926 -0.0569,-0.171577 0.008,-1.088055 0.23252,-0.636459 0.32859,-1.299473 0.45877,-2.24144 -0.3214,-2.700287 -1.62794,-0.957473 -3.79351,0.09305 -5.47222,0.09896 -0.83168,0.0027 -2.16344,-0.673411 -2.81827,-1.181728 -0.69209,-0.537241 -1.08497,-1.789619 -1.25926,-2.617471 -0.20371,-0.967771 0.14746,-0.418291 -0.0814,-1.032601 -0.4315,-1.157755 -1.54465,-2.129508 -2.27714,-3.090564 -0.33624,-0.44119 -0.47278,-1.005381 -0.7864,-1.427348 -0.32227,-0.433753 -0.93898,-0.710999 -1.41023,-0.948401"
       style="fill:none;stroke:#000000;stroke-width:0.5;stroke-linecap:butt;stroke-linejoin:miter;stroke-miterlimit:4;stroke-dasharray:none;stroke-opacity:1" />
    <path
       sodipodi:nodetypes="ssssssss"
       id="path9202"
       d="m 424.11296,93.025891 c -1.71599,-0.28805 -1.21251,-0.25394 -2.03212,0.166172 -0.47636,0.244159 -2.51929,1.073862 -2.65403,1.280744 -0.99306,1.52489 3.36909,3.949044 4.62195,2.923253 0.43488,-0.356077 0.9765,-0.763381 1.16836,-1.354883 0.18276,-0.563441 -0.16547,-2.780406 -0.63507,-3.016966 -0.14012,-0.07054 -0.31276,9.03e-4 -0.46912,0.0013 z"
       style="fill:none;stroke:#000000;stroke-width:0.5;stroke-linecap:round;stroke-linejoin:round;stroke-miterlimit:4;stroke-dasharray:none;stroke-opacity:1" />
    <path
       sodipodi:nodetypes="cssssssssssscc"
       id="path9204"
       d="m 410.61929,66.609782 c -0.13022,0.02694 -0.28111,0.0041 -0.39066,0.08085 -0.47313,0.330264 -0.88942,0.737779 -1.32547,1.117096 -0.41242,0.358723 -0.58538,1.193897 -1.24705,1.196267 -0.0232,8.3e-5 -1.47887,-1.893915 -1.88315,-2.138522 -1.2862,-0.778169 -2.82509,-1.566684 -4.30569,-1.812038 -0.27086,-0.04486 -0.92812,-0.159141 -1.17294,-0.07533 -0.5532,0.18958 -0.52954,0.449284 -1.25009,0.242834 -1.26155,-0.361481 -1.61249,-3.618845 0.14615,-3.178676 0.89691,0.224479 1.30658,1.204839 2.3487,1.024499 0.5125,-0.0887 2.56304,-1.417025 2.9667,-1.281868 0.8468,0.283528 1.33574,2.822316 2.43475,3.487256 0.9371,0.566976 4.14361,-0.578879 3.67875,1.337553 z"
       style="fill:none;stroke:#000000;stroke-width:0.5;stroke-linecap:round;stroke-linejoin:round;stroke-miterlimit:4;stroke-dasharray:none;stroke-opacity:1" />
    <path
       sodipodi:nodetypes="cssssssssscsscssscssssssssssscssssssssssscssssssscssssssssssccsscssssssscsscssssssssssssccssccsssssssssccsssssssssssssssssccccsssssssssssssscsssssssssssc"
       id="path9206"
       d="m 378.65031,15.601086 c 0.52625,0.829676 0.78666,1.813024 1.31839,2.634953 0.46777,0.723067 1.46348,1.024413 1.77817,1.833359 0.30534,0.784874 -0.17371,1.893884 0.47046,2.558024 0.49175,0.507036 1.27059,-0.441945 1.54421,0.954296 0.31702,1.617874 -0.0721,3.25856 0.32364,4.87833 0.22987,0.941168 -0.26953,2.067586 0.16347,2.959112 0.0998,0.205451 0.46426,0.398954 0.61826,0.557701 0.31919,0.329106 0.38353,1.012728 0.46691,1.438159 0.10194,0.520916 2.48215,1.106477 2.70038,1.030088 0.11324,-0.03961 0.20309,-0.368931 0.22968,-0.480786 0.25686,-1.081725 -0.56007,-1.241165 -0.854,-1.996697 -0.16978,-0.436451 0.46416,-1.236921 0.53412,-1.681767 0.0472,-0.300097 -0.002,-0.653445 -0.002,-0.959892 -0.002,-0.751917 -0.29049,-1.456945 -0.54627,-2.157806 -0.0234,-0.06429 -0.47558,-0.78142 -0.46489,-0.798234 0.33197,-0.520612 0.86708,-0.492799 1.38583,-0.404992 0.3438,0.05814 0.7414,-0.09017 1.07882,-0.0039 2.32573,0.594628 0.0453,1.533708 1.8563,2.153048 0.26506,0.09068 2.33068,0.113105 2.38884,-0.0091 0.35778,-0.748996 0.97003,-1.131717 2.45944,-0.750906 1.28773,0.329236 2.82552,2.489336 4.51766,3.884317 1.17478,0.968471 0.40284,0.951909 0.69782,1.357325 0.33111,0.455028 1.71523,1.067896 1.85375,1.353145 0.12897,0.265522 -0.0525,0.686088 0.08,0.959605 0.21065,0.433744 0.85807,0.344125 1.23496,0.635456 0.63858,0.493618 1.29543,1.376162 1.54802,2.154155 0.23429,0.721733 -1.70779,1.784799 -2.07381,2.167315 -0.24184,0.252745 -0.52157,1.172343 -0.68874,1.522343 -0.0426,0.08938 -0.0304,0.433036 -0.0756,0.480225 -0.82895,0.866312 -2.5527,-1.187524 -3.00839,-0.948978 -0.52628,0.275519 0.96407,1.147492 1.00583,1.276214 0.14945,0.460308 0.34909,1.23917 -0.22664,1.440685 -0.14702,0.0515 -4.72861,-0.08924 -4.7634,-0.125071 -0.28349,-0.292324 -0.95813,-0.892512 -1.46641,-0.71461 -0.7974,0.279109 1.28472,2.785911 1.01239,3.355981 -0.25071,0.52487 -1.22582,0.385949 -1.38428,0.884937 -0.17952,0.565231 0.75839,0.879176 0.85197,1.356767 0.18754,0.956948 -0.52877,1.825559 0.31604,2.478612 0.15564,0.120295 0.91668,0.57714 0.77342,0.877101 -0.21213,0.444007 -3.10076,-1.046333 -3.3141,-0.14796 -0.0387,0.163337 -0.18516,0.708806 -0.0742,0.880193 0.2,0.309119 2.17828,1.962022 1.9343,2.472714 -0.2239,0.468813 -0.82991,0.154067 -1.15485,0.324168 -0.59647,0.312256 -0.95321,0.899202 -1.6933,0.646084 -0.11319,-0.03872 -0.40048,-0.0082 -0.46285,-0.158308 -0.23052,-0.55325 0.018,-1.823352 -0.46917,-2.158077 -0.57513,-0.395053 -0.21828,1.356157 -0.53464,1.521792 -0.1406,0.07363 -1.44519,0.294579 -1.54045,0.245564 -0.23904,-0.122992 -0.20025,-0.502348 -0.46439,-0.63825 -0.92598,-1.363389 -0.1412,-0.244046 -1.16096,-1.595623 -0.46663,-0.618457 -1.13593,-1.709127 -1.93256,-1.91279 -1.39147,-0.355763 -3.75273,-0.276279 -4.59279,-1.718805 -0.94018,-1.614391 -0.25553,-4.198752 -1.71274,-5.513229 -0.3475,-0.313454 -0.52727,-0.294661 -0.92599,-0.396593 -0.27881,-0.07129 -0.49544,-0.31626 -0.77181,-0.397151 -0.99017,-0.289792 -2.44749,-0.110123 -3.39538,0.331274 -0.33304,0.155067 -0.7092,0.493036 -1.07708,0.563852 -0.67697,0.130295 -1.40811,-0.07489 -2.08087,-0.07249 -0.58225,0.0025 -1.48266,0.464589 -2.00383,-0.07276 -0.0662,-0.06837 -0.45314,-0.987089 -0.4656,-1.038207 -0.17971,-0.735849 -0.0185,-1.517982 -0.1612,-2.23919 -0.15224,-0.77674 -1.01893,-1.246515 -0.93104,-1.996418 0.11264,-0.961244 1.39529,-1.694322 1.14653,-2.963863 -0.0804,-0.410955 -0.96319,0.02161 -1.15588,0.0051 -0.80684,-0.07321 -0.8335,-0.69053 -1.31279,-0.87514 -0.35299,-0.135962 -1.42167,1.244996 -1.69052,1.525987 -0.34133,0.356714 -0.96052,0.02733 -1.1544,0.484141 -1.26566,2.982637 1.27978,3.522169 1.48231,5.754034 0.18029,1.986055 -4.39727,8.191099 -6.05917,9.061083 -2.28336,1.195379 -8.27816,-0.780667 -10.4128,-1.87904 -0.37409,-0.192485 -0.6143,-0.71537 -0.9275,-0.876537 -0.046,-0.02372 -0.0259,0.114352 4.5e-4,0.159991 0.23857,0.409599 0.70961,0.751115 0.77462,1.277055 0.0464,0.37422 -1.26573,0.61186 -2.00199,0.487218 -1.04493,-0.17689 -1.36196,-1.188283 -2.39041,-0.471269 -1.26505,1.071966 -2.01968,2.061243 -3.77086,1.613516 -0.10288,-0.02624 -0.2026,-0.07929 -0.30848,-0.07889 -0.0575,2.12e-4 0.101,0.05746 0.15436,0.07943 0.51927,0.213434 0.62191,0.280696 1.1569,0.315761 0.60906,0.03993 1.31097,-0.205545 1.84793,-0.486648 2.76679,-1.44844 0.96312,1.372635 2.62486,1.510308 0.21062,0.01744 2.05757,0.09336 2.15793,0.07212 0.48029,-0.101574 1.35408,-0.820622 1.84764,-0.566649 0.73798,0.379713 1.48028,2.115594 2.04094,2.790001 1.17575,1.414203 1.94064,0.276365 2.69866,0.470153 0.23243,0.0595 0.41569,0.428648 0.54114,0.557984 0.32224,0.33223 0.45709,0.185116 0.69583,0.717395 0.34719,0.774107 -0.30414,1.301046 -0.30192,2.000891 0.004,0.90166 1.00562,1.218871 1.00859,2.156118 0.002,0.679146 -0.66763,1.137173 -0.6109,1.762028 0.11627,1.280861 1.30098,1.419366 1.9333,2.152774 0.2331,0.27036 1.25982,2.669794 1.31962,3.034898 0.081,0.494867 -0.15082,1.665453 0.0835,2.079484 1.06041,1.872623 -0.0689,-0.623877 0.85018,0.796829 0.47989,0.741827 -0.0171,2.077986 -0.53136,2.561678 -0.22195,0.208816 -0.55791,0.262089 -0.76903,0.482734 -0.54601,0.570593 -0.26221,1.039588 -1.0748,1.283777 -1.00207,0.301108 -0.99048,0.02287 -1.62006,-0.554057 -0.43979,-0.403055 -1.1087,-0.825888 -1.62179,-1.114008 -0.48035,-0.26976 -1.45312,0.04921 -1.77312,-0.233531 -0.71959,-0.635844 -0.62795,-1.639182 -1.7014,-1.91363 -0.14986,-0.0384 -1.32043,-0.343011 -1.46461,-0.154662 -0.30754,0.401832 0.0489,1.659267 -0.0702,2.160029 -0.15874,0.668465 -3.49494,1.856558 -4.10618,2.097018 -0.9207,0.879458 -2.12255,1.31831 -3.15313,2.011236 -0.83496,0.561393 -1.5093,1.305009 -2.46061,1.688766 -0.59117,0.238485 -1.07701,0.167655 -1.61646,0.565812 -0.63551,0.469017 -1.95298,1.849953 -2.76811,1.929858 -0.70779,0.06935 -1.19382,-0.313396 -1.84865,0.246684 -0.90444,0.773488 -1.6671,2.051835 -2.4566,2.968619 -0.96815,1.124236 -2.203,1.794058 -3.22766,2.811431 -1.56328,1.552118 -3.14256,3.425193 -4.99422,4.657669 -0.62592,0.416578 -1.65617,0.549445 -2.15413,1.127704 -0.21769,0.252791 -0.44015,3.056442 -1.3012,2.804442 -0.64003,-0.187318 -1.24155,-1.428273 -1.62433,-1.913903 -0.88274,-1.120083 -2.04908,-2.165728 -3.39895,-2.62739 -1.13569,-0.388422 -5.24343,0.276294 -6.471,0.663426 -0.57419,0.181059 -0.91707,0.888671 -1.53765,1.125479 -0.66585,0.254034 -0.78262,-0.0752 -1.3856,0.484973 -0.9899,0.919695 -1.25778,2.896019 -2.60938,3.369125 -0.21775,0.0762 -0.53828,-0.09381 -0.61751,-0.317712 -0.15152,-0.428174 0.0731,-1.21594 0.0717,-1.680094 -5e-4,-0.372277 -0.18847,-0.482215 -0.15715,-0.959336 0.0274,-0.418729 0.61635,-0.827951 -0.005,-1.039877 -0.8387,-0.286842 -1.30031,0.509943 -2.07862,0.647481 -0.56931,0.338619 -1.36697,0.457309 -1.92396,0.806902 -0.38938,0.244422 -1.35818,1.219865 -1.53588,1.685409 -0.21505,0.563483 0.32275,1.125284 -0.38071,1.441245 -0.5075,0.227931 -1.33223,-1.047684 -1.85326,-1.193157 -0.68622,-0.191601 -0.95521,0.352546 -1.46239,0.565264 -0.43371,0.18189 -2.20654,-0.422616 -2.92724,0.330591 -1.57052,1.641344 -1.00324,4.540052 -1.82896,6.485992 -0.25077,0.59098 -0.13673,-0.19533 -0.6915,0.64246 -0.4001,0.60417 -0.14739,1.64131 -0.45504,2.32141 -0.88393,1.95381 -3.29617,4.25959 -3.44362,6.67488 -0.0487,0.79711 0.32237,3.1578 1.47349,2.95436 0.94373,-0.16681 2.42698,-2.03916 3.15973,0.0685 0.77537,2.23039 -1.29381,3.19646 -1.52528,5.04501 -0.1228,0.98048 -0.0466,2.37858 0.54953,3.19768 0.15134,0.20804 0.5222,0.20649 0.69453,0.31745 0.0735,0.0473 0.46168,1.05077 0.38937,1.27846 -0.13956,0.43939 -2.64171,0.2628 -2.77165,0.80994 -0.14623,0.6158 0.65533,2.38439 1.39367,2.07474 0.65524,-0.27476 -0.12708,-2.01422 0.91684,-2.48307 0.86245,-0.38733 1.73249,2.56273 1.62815,3.11381 -0.28892,1.52551 -3.07113,-0.66187 -3.47048,-0.86733 -1.35658,-0.69802 -3.24978,2.30118 -3.68828,3.37308 -0.19809,0.48424 -0.56122,1.0193 -0.68872,1.5223 -0.39944,1.57566 1.50858,3.59495 1.6352,5.35355 0.057,0.78957 -0.0418,0.76379 -0.45807,1.36153 -0.22886,0.32898 -0.36834,0.81533 -0.61295,1.12208 -0.35658,0.44722 -2.29266,0.97937 -2.9113,0.98165"
       style="fill:none;stroke:#000000;stroke-width:0.5;stroke-linecap:round;stroke-linejoin:round;stroke-miterlimit:4;stroke-dasharray:none;stroke-opacity:1" />
    <path
       sodipodi:nodetypes="ssssscs"
       id="path9208"
       d="m 289.94291,107.04918 c -0.13965,0.57569 -0.0514,1.31643 -0.38506,1.8288 -0.13861,0.21285 -1.04132,1.4831 -0.6977,1.82996 0.47555,0.48007 1.00331,-1.20649 1.09014,-1.35464 0.35207,-0.60089 3.12808,-1.17037 3.66804,-1.99946 0.34428,-0.52864 1.08595,-3.16258 0.13953,-2.68558 -0.94639,0.47702 -3.55891,1.32535 -3.81495,2.38092 z"
       style="fill:none;stroke:#000000;stroke-width:0.5;stroke-linecap:round;stroke-linejoin:round;stroke-miterlimit:4;stroke-dasharray:none;stroke-opacity:1" />
    <path
       sodipodi:nodetypes="cssssssssssssscssssssssssc"
       id="path9210"
       d="m 277.85708,89.316353 c 0.39587,-1.192724 1.10171,-1.017433 1.94941,-1.596054 1.28325,-0.875947 0.82191,-3.611347 2.5669,-4.061318 0.86263,-0.222443 1.93215,-0.727085 2.89109,-0.487064 0.38113,0.09538 0.6113,0.315626 1.01734,0.314177 0.16199,-6.25e-4 0.30483,0.01505 0.39039,-0.160308 0.75092,-1.539077 -0.42842,-3.252913 0.0626,-4.767445 0.66342,-2.044923 0.79746,-4.002613 3.19057,-4.619726 0.86334,-0.222615 1.13152,-0.560226 2.10908,-0.563722 1.08041,-0.0039 1.62638,0.142375 2.58243,0.785313 0.27662,0.186029 0.49146,0.564866 0.78409,0.712275 0.2426,0.122221 0.62366,-0.04273 0.86019,0.07642 0.32959,0.166028 0.27753,0.615742 0.628,0.792295 0.35813,0.180428 1.07,-0.605789 1.48617,0.233046 0.0189,0.03871 0.15207,0.163233 0.0788,0.23808 -0.46063,0.471281 -2.01358,-0.303801 -2.50328,-0.467766 -1.95293,-0.6539 -4.0917,0.898284 -4.68204,2.718163 -0.31862,0.982059 0.4939,2.069375 0.24444,3.097823 -0.20617,0.849982 -1.3899,1.074948 -1.63591,1.833289 -0.35458,1.093117 0.32847,1.451507 0.71078,2.222161 0.25792,0.519997 -1.04617,1.42432 -1.24504,1.831888 -0.28021,0.574352 0.47471,2.048943 -0.0675,2.60381 -1.94478,1.989885 -5.17867,1.871174 -7.17998,3.918912 -0.83172,0.851008 0.31887,2.622361 -0.61497,3.259787 -0.53831,0.367436 -1.13131,0.818599 -1.71638,1.1185 -0.72834,0.373284 -1.95678,-0.01107 -1.95413,0.819915"
       style="fill:none;stroke:#000000;stroke-width:0.5;stroke-linecap:round;stroke-linejoin:round;stroke-miterlimit:4;stroke-dasharray:none;stroke-opacity:1" />
    <path
       sodipodi:nodetypes="ssscssss"
       id="path9212"
       d="m 301.81965,136.15819 c -3.14242,-0.86847 -0.49168,3.46351 0.32649,4.28937 0.30308,0.30594 0.3529,-0.001 0.70358,-0.002 0.0756,-2.5e-4 0.38363,0.0936 0.39115,0.0779 0.23106,-0.47356 -0.86319,-0.79188 -1.09757,-0.94953 -0.4458,-0.29982 -1.72449,-2.14143 -1.18133,-2.6972 0.27759,-0.28405 0.53964,-0.28417 0.85768,-0.71816 z"
       style="fill:none;stroke:#000000;stroke-width:0.5;stroke-linecap:round;stroke-linejoin:round;stroke-miterlimit:4;stroke-dasharray:none;stroke-opacity:1" />
    <path
       sodipodi:nodetypes="ssssssss"
       id="path9214"
       d="m 307.75242,139.27521 c -0.44464,-0.12886 -1.15717,-0.30105 -0.85868,0.40038 0.2822,0.66306 0.5438,0.7874 1.09858,1.26731 0.28627,0.2477 0.42557,0.69035 0.78456,0.87116 1.25358,0.63151 0.47823,-0.68824 -0.0816,-1.11202 -0.14983,-0.11338 -0.31392,-0.2111 -0.47008,-0.31617 -0.18737,-0.12598 -0.17274,-0.8079 -0.47263,-1.11065 z"
       style="fill:none;stroke:#000000;stroke-width:0.5;stroke-linecap:round;stroke-linejoin:round;stroke-miterlimit:4;stroke-dasharray:none;stroke-opacity:1" />
    <path
       sodipodi:nodetypes="csssc"
       id="path9216"
       d="m 331.29838,152.86143 c -0.92384,-0.38866 -2.50143,-0.0704 -1.09247,0.63953 0.6012,0.30286 0.62065,0.97506 1.72426,1.34458 0.31511,0.10549 1.38246,-0.58437 0.93482,-1.03626 -0.47008,-0.47451 -1.02706,-0.67599 -1.56661,-0.94785 z"
       style="fill:none;stroke:#000000;stroke-width:0.5;stroke-linecap:round;stroke-linejoin:round;stroke-miterlimit:4;stroke-dasharray:none;stroke-opacity:1" />
    <path
       sodipodi:nodetypes="cc"
       id="path9218"
       d="m 334.35981,156.74369 c -2.05546,0.0981 1.56301,2.10325 0,0 z"
       style="fill:none;stroke:#000000;stroke-width:0.5;stroke-linecap:round;stroke-linejoin:round;stroke-miterlimit:4;stroke-dasharray:none;stroke-opacity:1" />
    <path
       sodipodi:nodetypes="ccsc"
       id="path9220"
       d="m 352.19424,159.69919 c -1.34381,-0.43885 -1.20798,1.64736 -0.54343,1.19375 0.12203,-0.0834 0.0742,-0.31505 0.1551,-0.39783 0.34295,-0.35092 0.54944,-0.15 0.38833,-0.79592 z"
       style="fill:none;stroke:#000000;stroke-width:0.5;stroke-linecap:round;stroke-linejoin:round;stroke-miterlimit:4;stroke-dasharray:none;stroke-opacity:1" />
    <path
       sodipodi:nodetypes="ccc"
       id="path9222"
       d="m 356.60271,160.07325 c -0.96173,-0.5958 -0.23301,0.87352 -0.0749,1.03315 0.19993,0.20183 0.2558,-0.57776 0.0749,-1.03315 z"
       style="fill:none;stroke:#000000;stroke-width:0.5;stroke-linecap:round;stroke-linejoin:round;stroke-miterlimit:4;stroke-dasharray:none;stroke-opacity:1" />
    <path
       sodipodi:nodetypes="cc"
       id="path9224"
       d="m 361.68485,160.21401 c -2.12115,-0.44942 0.50252,2.01475 0,0 z"
       style="fill:none;stroke:#000000;stroke-width:0.5;stroke-linecap:round;stroke-linejoin:round;stroke-miterlimit:4;stroke-dasharray:none;stroke-opacity:1" />
    <path
       sodipodi:nodetypes="scsscs"
       id="path9226"
       d="m 357.69415,162.77458 c 0.55823,-0.10429 0.56167,0.55418 1.01811,0.55257 0.29758,-0.002 2.0629,0.89246 1.33315,1.26646 -0.2341,0.11998 -2.22942,-1.0625 -2.42763,-1.26258 -0.13073,-0.1319 0.0322,-0.37459 0.0765,-0.55645 z"
       style="fill:none;stroke:#000000;stroke-width:0.5;stroke-linecap:round;stroke-linejoin:round;stroke-miterlimit:4;stroke-dasharray:none;stroke-opacity:1" />
    <path
       sodipodi:nodetypes="cc"
       id="path9228"
       d="m 368.8026,161.10513 c -1.63548,1.44871 1.64698,-0.007 0,0 z"
       style="fill:none;stroke:#000000;stroke-width:0.5;stroke-linecap:round;stroke-linejoin:round;stroke-miterlimit:4;stroke-dasharray:none;stroke-opacity:1" />
    <path
       sodipodi:nodetypes="csc"
       id="path9230"
       d="m 370.79005,161.41409 c 1.2827,-0.0736 0.73327,0.32971 1.3311,0.63094 0.91926,0.46302 0.76032,-2.23641 -1.3311,-0.63094 z"
       style="fill:none;stroke:#000000;stroke-width:0.5;stroke-linecap:round;stroke-linejoin:round;stroke-miterlimit:4;stroke-dasharray:none;stroke-opacity:1" />
    <path
       sodipodi:nodetypes="cssc"
       id="path9232"
       d="m 374.10424,161.95952 c 1.8799,0.56838 2.3421,-1.70415 1.55897,-1.43574 -0.36705,0.12579 -0.46334,0.63355 -0.70079,0.87645 -0.21616,0.22124 -0.54634,0.31988 -0.85818,0.55929 z"
       style="fill:none;stroke:#000000;stroke-width:0.5;stroke-linecap:round;stroke-linejoin:round;stroke-miterlimit:4;stroke-dasharray:none;stroke-opacity:1" />
    <path
       sodipodi:nodetypes="csccsssc"
       id="path9234"
       d="m 377.37083,162.02234 c 0.74895,-0.002 0.47839,0.0229 1.64102,-0.2442 0.42691,-0.0979 1.37641,-1.83238 0.85411,-1.8305 -0.31323,0.002 -0.70822,0.45481 -1.01453,0.5598 -0.17815,0.0609 -0.44257,-0.29044 -0.70414,-0.1564 -0.28435,0.14579 -0.12436,0.68527 -0.30993,0.87512 -0.13793,0.14117 -0.66719,0.16786 -0.7805,0.40007 -0.11601,0.23773 0.17431,0.32576 0.31397,0.39611 z"
       style="fill:none;stroke:#000000;stroke-width:0.5;stroke-linecap:round;stroke-linejoin:round;stroke-miterlimit:4;stroke-dasharray:none;stroke-opacity:1" />
    <path
       sodipodi:nodetypes="csssscssc"
       id="path9236"
       d="m 384.97024,159.68337 c 0.4433,0.0778 0.88426,0.17054 1.32982,0.23362 0.72745,0.10299 1.08393,-0.51582 1.63918,-0.80041 0.66866,-0.34273 1.65854,0.47595 2.11286,0.62804 0.42152,0.14116 2.45113,0.0949 2.65706,-0.32731 0.42717,-0.87552 -2.85732,-0.30761 -3.20635,-0.30632 -0.63454,0.002 -0.54403,-2.07386 -1.09936,-1.50569 -0.4788,0.48991 -0.43094,1.3824 -1.0886,1.83131 -0.4722,0.32233 -1.82569,0.11275 -2.34461,0.24676 z"
       style="fill:none;stroke:#000000;stroke-width:0.5;stroke-linecap:round;stroke-linejoin:round;stroke-miterlimit:4;stroke-dasharray:none;stroke-opacity:1" />
    <path
       sodipodi:nodetypes="sssss"
       id="path9238"
       d="m 396.04851,157.58639 c 1.16209,-0.5868 0.11525,-0.91512 -0.23634,-0.55535 -0.0703,0.072 0.12934,0.10278 0.15687,0.15833 0.0598,0.12059 0.0469,0.26606 0.0792,0.39701 z"
       style="fill:none;stroke:#000000;stroke-width:0.5;stroke-linecap:round;stroke-linejoin:round;stroke-miterlimit:4;stroke-dasharray:none;stroke-opacity:1" />
    <path
       sodipodi:nodetypes="ssccs"
       id="path9240"
       d="m 402.01405,156.14445 c 0.12971,-0.18588 0.31109,-0.34397 0.38911,-0.55755 0.0263,-0.0717 -0.59374,-0.1099 -0.62572,-0.0771 -0.20389,0.20866 0.1404,0.44081 0.23661,0.6348 z"
       style="fill:none;stroke:#000000;stroke-width:0.5;stroke-linecap:round;stroke-linejoin:round;stroke-miterlimit:4;stroke-dasharray:none;stroke-opacity:1" />
    <path
       sodipodi:nodetypes="cc"
       id="path9242"
       d="m 404.27844,155.26236 c 1.58802,-1.09951 -0.65584,-1.1025 0,0 z"
       style="fill:none;stroke:#000000;stroke-width:0.5;stroke-linecap:round;stroke-linejoin:round;stroke-miterlimit:4;stroke-dasharray:none;stroke-opacity:1" />
    <path
       sodipodi:nodetypes="csc"
       id="path9244"
       d="m 407.79341,154.29634 c 0.33817,-0.18662 0.68111,-0.36459 1.01454,-0.55981 0.65404,-0.38289 -1.30134,-0.58996 -1.01454,0.55981 z"
       style="fill:none;stroke:#000000;stroke-width:0.5;stroke-linecap:round;stroke-linejoin:round;stroke-miterlimit:4;stroke-dasharray:none;stroke-opacity:1" />
    <path
       sodipodi:nodetypes="csssssscscc"
       id="path9246"
       d="m 412.24553,153.00916 c 0.65562,-0.0765 0.56357,0.0452 0.93739,-0.24171 0.33355,-0.25607 0.3587,-0.70452 0.46576,-1.03457 0.30196,-0.93085 1.77874,-1.66777 2.57325,-2.075 0.23111,-0.11846 0.78212,-0.63373 0.6224,-0.95566 -0.2538,-0.51162 -0.99042,-0.33484 -1.32931,-0.0745 -0.36847,0.28292 -0.79353,0.73222 -1.09118,1.03682 -0.0602,0.0614 -0.0219,0.3927 -0.0767,0.47696 -0.20471,0.31435 -0.78576,0.50981 -1.09221,0.719 -0.25846,0.17641 -0.9142,1.75607 -1.00946,2.14887 z"
       style="fill:none;stroke:#000000;stroke-width:0.5;stroke-linecap:round;stroke-linejoin:round;stroke-miterlimit:4;stroke-dasharray:none;stroke-opacity:1" />
    <path
       sodipodi:nodetypes="sssssscss"
       id="path9248"
       d="m 421.54692,145.01861 c -1.30976,0.44885 -0.43493,2.03925 -1.31958,2.9445 -0.25069,0.25643 -1.93727,1.60831 -1.71411,1.83354 0.25674,0.25913 1.13451,-0.20425 1.3278,-0.402 0.32016,-0.32763 0.62608,-1.15653 1.01196,-1.35435 0.35445,-0.18167 0.77494,0.23947 1.09474,0.0753 0.89587,-0.45917 1.8709,-1.70295 1.82868,-2.66823 -0.70099,-0.70685 -1.4901,-0.68242 -2.22949,-0.429 z"
       style="fill:none;stroke:#000000;stroke-width:0.5;stroke-linecap:round;stroke-linejoin:round;stroke-miterlimit:4;stroke-dasharray:none;stroke-opacity:1" />
    <path
       sodipodi:nodetypes="ssscccs"
       id="path9250"
       d="m 425.4502,143.23748 c -0.73308,0.75009 1.86151,1.03543 2.19181,0.86617 0.1842,-0.0944 0.36518,-0.17821 0.54649,-0.24034 0.46233,-0.15846 0.94757,0.38556 0.83651,0.0184 -0.11102,-0.367 -0.34912,-0.18555 -0.83651,-0.0184 -0.86094,0.29506 -1.13818,-0.45036 -1.34783,-0.34528 -0.20967,0.10509 -1.10006,-0.57769 -1.39047,-0.28055 z"
       style="fill:none;stroke:#000000;stroke-width:0.5;stroke-linecap:round;stroke-linejoin:round;stroke-miterlimit:4;stroke-dasharray:none;stroke-opacity:1" />
    <path
       sodipodi:nodetypes="cc"
       id="path9252"
       d="m 439.50922,140.9174 c -2.70854,0.58004 2.15533,1.08578 0,0 z"
       style="fill:none;stroke:#000000;stroke-width:0.5;stroke-linecap:round;stroke-linejoin:round;stroke-miterlimit:4;stroke-dasharray:none;stroke-opacity:1" />
    <path
       sodipodi:nodetypes="ssssssssss"
       id="path9254"
       d="m 450.30333,137.20367 c 1.00955,0.78997 1.26266,-0.96301 2.18494,-1.2791 0.93189,-0.31937 1.63064,1.43234 2.73908,0.8642 0.58719,-0.30098 -1.32982,-0.62956 -1.48795,-0.78921 -0.20162,-0.20351 0.39989,-0.65601 0.0753,-0.87425 -0.31202,-0.20981 -0.76914,-0.20263 -1.0166,-0.0755 -0.1784,0.0915 -0.79789,-0.14013 -0.93814,0.003 -0.34201,0.34991 -0.22975,1.11191 -0.54265,1.4321 -0.50993,0.52175 -0.48809,-0.35932 -1.01402,0.71869 z"
       style="fill:none;stroke:#000000;stroke-width:0.5;stroke-linecap:round;stroke-linejoin:round;stroke-miterlimit:4;stroke-dasharray:none;stroke-opacity:1" />
    <path
       sodipodi:nodetypes="cssc"
       id="path9256"
       d="m 477.68711,124.09318 c -0.1826,-0.26418 -3.51016,0.73335 -2.653,1.59857 0.35588,0.35926 0.62677,-0.59979 0.7016,-0.63812 1.02197,-0.52385 1.32026,0.33309 1.9514,-0.96045 z"
       style="fill:none;stroke:#000000;stroke-width:0.5;stroke-linecap:round;stroke-linejoin:round;stroke-miterlimit:4;stroke-dasharray:none;stroke-opacity:1" />
    <path
       sodipodi:nodetypes="csssssssssssssscsccc"
       id="path9258"
       d="m 477.82312,122.25193 c -0.34003,-0.39605 -0.62169,-0.85302 -1.02011,-1.18813 -0.22157,-0.18634 -0.79856,-0.0933 -1.0958,-0.39335 -0.53919,-0.54427 -0.6339,-1.73688 -0.39878,-2.46164 0.0663,-0.20434 0.2603,-0.34862 0.31094,-0.55728 0.11859,-0.48896 0.62404,-1.24791 1.16811,-1.43435 0.75284,-0.25805 0.78809,1.58564 1.72348,1.10619 0.52267,-0.26793 -0.3968,-0.80663 -0.47266,-1.11066 -0.0507,-0.20335 0.34857,-0.77479 0.46603,-0.9551 0.35432,-0.5441 4.9603,-2.10208 5.62325,-1.76813 0.25644,0.12918 0.13604,0.8268 0.23784,1.03205 0.22646,0.45644 0.88485,0.6455 1.02016,1.18818 0.41797,1.67582 -0.16199,1.37369 -1.32369,1.67322 -0.6196,0.1598 -1.06059,0.57528 -1.56053,0.95904 -0.55864,0.42889 -0.41056,1.53609 -0.8536,1.9894 -0.48842,0.49981 -0.97928,0.0246 -1.40642,0.2434 -0.2491,0.12769 -0.44364,0.39063 -0.70209,0.47925 -0.0744,0.0252 -0.17945,-0.0558 -0.23455,6e-4 -0.76385,0.78159 -0.069,1.19205 -1.48158,1.19709 z"
       style="fill:none;stroke:#000000;stroke-width:0.5;stroke-linecap:round;stroke-linejoin:round;stroke-miterlimit:4;stroke-dasharray:none;stroke-opacity:1" />
    <path
       sodipodi:nodetypes="csssssc"
       id="path9260"
       d="m 482.10251,112.30962 c 1.48095,0.16799 1.27898,-0.89431 2.02859,-1.27851 0.53492,-0.27419 1.56481,0.39629 1.56127,-0.72066 -0.002,-0.79234 0.0457,-0.58754 -0.55109,-1.18985 -0.26037,-0.26283 -0.0546,-0.58923 -0.54954,-0.71313 -0.361,-0.0906 -2.48551,2.12543 -2.64966,2.63149 -0.11474,0.35369 0.009,0.9654 0.16043,1.27066 z"
       style="fill:none;stroke:#000000;stroke-width:0.5;stroke-linecap:round;stroke-linejoin:round;stroke-miterlimit:4;stroke-dasharray:none;stroke-opacity:1" />
    <path
       sodipodi:nodetypes="cssssc"
       id="path9262"
       d="m 509.12685,92.400919 c -0.7249,0.371561 0.78912,0.369064 -1.24677,1.275713 -0.39847,0.177463 -0.56215,0.575202 -0.85716,0.877068 -0.16876,0.172649 -1.4155,2.7151 -0.77412,2.386357 0.45039,-0.230851 0.6622,-1.076148 1.0117,-1.433779 0.76245,-0.78009 2.18177,-1.840787 1.86635,-3.105359 z"
       style="fill:none;stroke:#000000;stroke-width:0.5;stroke-linecap:round;stroke-linejoin:round;stroke-miterlimit:4;stroke-dasharray:none;stroke-opacity:1" />
    <path
       sodipodi:nodetypes="cccccccc"
       inkscape:connector-curvature="0"
       id="path14359-1-7-5-3-0-73-1-9-8-5-57"
       d="M 560.20773,755.03984 555.72573,3.6182365 405.00889,4.4111995 70.94541,7.3160975 7.0381788,7.8061238 11.984059,760.737 133.93363,758.63854 Z"
       style="fill:none;stroke:#000000;stroke-width:3;stroke-linecap:round;stroke-linejoin:round;stroke-miterlimit:4;stroke-dasharray:none;stroke-opacity:1" />
    <path
       sodipodi:nodetypes="ccccc"
       inkscape:connector-curvature="0"
       id="path14359-1-7-5-3-0-73-1-9-8-5-46-8-5"
       d="m 51.573356,739.76932 -0.002,10.05815 h -29.68394 l 0.002,-10.05815 z"
       style="fill:#000000;fill-opacity:1;stroke:#000000;stroke-width:1;stroke-linecap:round;stroke-linejoin:round;stroke-miterlimit:4;stroke-dasharray:none;stroke-opacity:1" />
    <path
       id="path16822"
       d="m 115.7116,742.3144 3.48296,6.9659"
       style="fill:none;stroke:#000000;stroke-width:0.5;stroke-linecap:round;stroke-linejoin:round;stroke-miterlimit:4;stroke-dasharray:none;stroke-opacity:1" />
    <path
       id="path16824"
       d="m 117.97247,739.25918 4.82725,9.96002"
       style="fill:none;stroke:#000000;stroke-width:0.5;stroke-linecap:round;stroke-linejoin:round;stroke-miterlimit:4;stroke-dasharray:none;stroke-opacity:1" />
    <path
       id="path16826"
       d="m 121.82205,739.32029 4.58283,9.7767"
       style="fill:none;stroke:#000000;stroke-width:0.5;stroke-linecap:round;stroke-linejoin:round;stroke-miterlimit:4;stroke-dasharray:none;stroke-opacity:1" />
    <path
       id="path16828"
       d="m 125.305,739.32029 4.82724,9.89891"
       style="fill:none;stroke:#000000;stroke-width:0.5;stroke-linecap:round;stroke-linejoin:round;stroke-miterlimit:4;stroke-dasharray:none;stroke-opacity:1" />
    <path
       id="path16830"
       d="m 128.97126,739.25918 4.76614,9.96002"
       style="fill:none;stroke:#000000;stroke-width:0.5;stroke-linecap:round;stroke-linejoin:round;stroke-miterlimit:4;stroke-dasharray:none;stroke-opacity:1" />
    <path
       id="path16832"
       d="m 132.69863,739.32029 4.58283,9.89891"
       style="fill:none;stroke:#000000;stroke-width:0.5;stroke-linecap:round;stroke-linejoin:round;stroke-miterlimit:4;stroke-dasharray:none;stroke-opacity:1" />
    <path
       id="path16834"
       d="m 136.12047,739.32029 4.58283,9.7767"
       style="fill:none;stroke:#000000;stroke-width:0.5;stroke-linecap:round;stroke-linejoin:round;stroke-miterlimit:4;stroke-dasharray:none;stroke-opacity:1" />
    <path
       id="path16836"
       d="m 139.66453,739.25918 4.88835,9.96002"
       style="fill:none;stroke:#000000;stroke-width:0.5;stroke-linecap:round;stroke-linejoin:round;stroke-miterlimit:4;stroke-dasharray:none;stroke-opacity:1" />
    <path
       id="path16838"
       d="m 143.5141,739.19808 1.77203,3.36074"
       style="fill:none;stroke:#000000;stroke-width:0.5;stroke-linecap:round;stroke-linejoin:round;stroke-miterlimit:4;stroke-dasharray:none;stroke-opacity:1" />
    <path
       sodipodi:nodetypes="cccc"
       inkscape:connector-curvature="0"
       id="path14359-1-7-5-3-0-73-1-9-8-5-46-8-3"
       d="m 387.83538,135.92356 c 3.17606,2.68361 5.66289,2.33721 7.40779,-1.27095 l 0.46024,19.40299 z"
       style="fill:#000000;fill-opacity:1;stroke:#000000;stroke-width:1;stroke-linecap:round;stroke-linejoin:round;stroke-miterlimit:4;stroke-dasharray:none;stroke-opacity:1" />
    <path
       style="fill:none;stroke:#000000;stroke-width:1;stroke-linecap:round;stroke-linejoin:round;stroke-miterlimit:4;stroke-dasharray:none;stroke-opacity:1"
       d="m 568.56398,692.20632 -8.99671,-0.002"
       id="path14359-1-7-5-3-0-73-1-9-8-5-0-7"
       inkscape:connector-curvature="0"
       sodipodi:nodetypes="cc" />
    <path
       style="fill:none;stroke:#000000;stroke-width:1;stroke-linecap:round;stroke-linejoin:round;stroke-miterlimit:4;stroke-dasharray:none;stroke-opacity:1"
       d="m 61.566552,759.54139 -0.002,6.34133"
       id="path14359-1-7-5-3-0-73-1-9-8-5-75-5"
       inkscape:connector-curvature="0"
       sodipodi:nodetypes="cc" />
    <path
       sodipodi:nodetypes="cc"
       inkscape:connector-curvature="0"
       id="path14359-1-7-5-3-0-73-1-9-8-5-0-7-7"
       d="m 567.60727,503.05685 -9.13944,-0.002"
       style="fill:none;stroke:#000000;stroke-width:1;stroke-linecap:round;stroke-linejoin:round;stroke-miterlimit:4;stroke-dasharray:none;stroke-opacity:1" />
    <path
       sodipodi:nodetypes="cc"
       inkscape:connector-curvature="0"
       id="path14359-1-7-5-3-0-73-1-9-8-5-75-1-9"
       d="m 411.00384,755.7136 -0.002,7.06607"
       style="fill:none;stroke:#000000;stroke-width:1;stroke-linecap:round;stroke-linejoin:round;stroke-miterlimit:4;stroke-dasharray:none;stroke-opacity:1" />
    <path
       style="fill:none;stroke:#000000;stroke-width:1;stroke-linecap:round;stroke-linejoin:round;stroke-miterlimit:4;stroke-dasharray:none;stroke-opacity:1"
       d="m 567.34391,310.31612 -9.99958,-0.002"
       id="path14359-1-7-5-3-0-73-1-9-8-5-6-4"
       inkscape:connector-curvature="0"
       sodipodi:nodetypes="cc" />
    <g
       id="g177"
       sodipodi:insensitive="true">
      <text
         xml:space="preserve"
         style="font-size:12px;line-height:2.71799994px;font-family:Arial;-inkscape-font-specification:'Arial, Normal';letter-spacing:0.5px"
         x="40.940277"
         y="782.83545"
         id="text9430"><tspan
           sodipodi:role="line"
           id="tspan9428"
           x="40.940277"
           y="782.83545">17100'W</tspan></text>
      <text
         id="text9430-4"
         y="508.03342"
         x="578.18317"
         style="font-size:12px;line-height:2.71799994px;font-family:Arial;-inkscape-font-specification:'Arial, Normal';letter-spacing:0.5px"
         xml:space="preserve"><tspan
           y="508.03342"
           x="578.18317"
           id="tspan9428-3"
           sodipodi:role="line">5240'</tspan></text>
      <text
         xml:space="preserve"
         style="font-size:12px;line-height:2.71799994px;font-family:Arial;-inkscape-font-specification:'Arial, Normal';letter-spacing:0.5px"
         x="575.37836"
         y="122.59186"
         id="text9430-4-3"><tspan
           sodipodi:role="line"
           id="tspan9428-3-4"
           x="575.37836"
           y="122.59186">5300'N</tspan></text>
      <text
         xml:space="preserve"
         style="font-size:10.66670036px;line-height:2.41599989px;font-family:Arial;-inkscape-font-specification:'Arial, Normal';letter-spacing:1.75px"
         x="464.98257"
         y="59.582088"
         id="text9430-4-8"
         transform="rotate(-0.46334057)"><tspan
           sodipodi:role="line"
           id="tspan9428-3-0"
           x="464.98257"
           y="59.582088">ALASKA</tspan></text>
      <text
         id="text9430-4-8-0"
         y="106.93981"
         x="359.81497"
         style="font-style:italic;font-variant:normal;font-weight:normal;font-stretch:normal;font-size:8px;line-height:7px;font-family:Arial;-inkscape-font-specification:'Arial Italic';text-align:center;letter-spacing:0.88px;text-anchor:middle"
         xml:space="preserve"
         transform="rotate(-0.46334057)"><tspan
           y="106.93981"
           x="360.25497"
           id="tspan9428-3-0-0"
           sodipodi:role="line">BERING</tspan><tspan
           y="113.93981"
           x="359.81497"
           sodipodi:role="line"
           id="tspan9520" /><tspan
           y="120.93981"
           x="361.80435"
           sodipodi:role="line"
           id="tspan9522">SEA  </tspan></text>
      <text
         id="text9430-48"
         y="747.98083"
         x="156.19197"
         style="font-size:10.66670036px;line-height:2.41599989px;font-family:Arial;-inkscape-font-specification:'Arial, Normal';letter-spacing:0.17px"
         xml:space="preserve"><tspan
           y="747.98083"
           x="156.19197"
           id="tspan9428-9"
           sodipodi:role="line">3 Mile buffer zone</tspan></text>
      <text
         xml:space="preserve"
         style="font-size:10.66670036px;line-height:2.41599989px;font-family:Arial;-inkscape-font-specification:'Arial, Normal';letter-spacing:0.19px"
         x="61.714752"
         y="749.5932"
         id="text9430-48-4"><tspan
           sodipodi:role="line"
           id="tspan9428-9-9"
           x="61.714752"
           y="749.5932">Rookery</tspan></text>
      <text
         xml:space="preserve"
         style="font-style:normal;font-variant:normal;font-weight:bold;font-stretch:normal;font-size:14.66670036px;line-height:3.21036005px;font-family:Arial;-inkscape-font-specification:'Arial Bold';letter-spacing:0.40000001px;fill:#000000;fill-opacity:1"
         x="465.12143"
         y="745.88977"
         id="text17260"><tspan
           sodipodi:role="line"
           id="tspan17258"
           x="465.12143"
           y="745.88977">Chart 16500</tspan></text>
      <text
         id="text9430-47"
         y="779.98901"
         x="392.09186"
         style="font-size:12px;line-height:2.71799994px;font-family:Arial;-inkscape-font-specification:'Arial, Normal';letter-spacing:0.5px"
         xml:space="preserve"><tspan
           y="779.98901"
           x="392.09186"
           id="tspan9428-0"
           sodipodi:role="line">17030'</tspan></text>
      <text
         transform="rotate(-0.40424534)"
         id="text9352-4"
         y="277.26151"
         x="337.76535"
         style="font-style:normal;font-variant:normal;font-weight:bold;font-stretch:normal;font-size:14.66670036px;line-height:15.67500019px;font-family:Arial;-inkscape-font-specification:'Arial Bold';text-align:center;letter-spacing:0.44999999px;text-anchor:middle;fill:#000000;fill-opacity:1"
         xml:space="preserve"><tspan
           id="tspan12941"
           y="277.26151"
           x="337.76535"
           sodipodi:role="line"
           style="font-size:14.66670036px;text-align:start;text-anchor:start">Yunaska Island Rookery</tspan></text>
      <text
         transform="rotate(0.17562161)"
         id="text9430-4-8-05"
         y="161.11745"
         x="107.33375"
         style="font-style:italic;font-variant:normal;font-weight:normal;font-stretch:normal;font-size:12px;line-height:2.71799994px;font-family:Arial;-inkscape-font-specification:'Arial Italic';letter-spacing:0.55000001px"
         xml:space="preserve"><tspan
           y="161.11745"
           x="107.33375"
           id="tspan9428-3-0-7"
           sodipodi:role="line">Bering Sea</tspan></text>
      <text
         xml:space="preserve"
         style="font-style:normal;font-variant:normal;font-weight:bold;font-stretch:normal;font-size:12px;line-height:2.71799994px;font-family:Arial;-inkscape-font-specification:'Arial Bold';letter-spacing:0.64999998px"
         x="-223.8952"
         y="573.09119"
         id="text9430-4-8-05-8"
         transform="rotate(-43.646305)"><tspan
           sodipodi:role="line"
           id="tspan9428-3-0-7-6"
           x="-223.8952"
           y="573.09119">Yunaska I.</tspan></text>
    </g>
    <path
       sodipodi:nodetypes="csssssssssssssssssssssscssssssssssscssssssssssssssssssscscsssssssssssssc"
       id="path14596"
       d="m 171.99972,626.32283 c -0.5567,-0.95132 -1.97073,0.77839 -2.27101,0.47811 -0.45734,-0.45734 0.1987,-1.67186 0.35858,-2.15149 0.48072,-1.44216 0.21313,-3.29491 0.83669,-4.54203 0.59353,-1.18706 2.42345,-1.89163 2.86866,-3.22724 0.32957,-0.98873 1.02604,-2.41068 1.55385,-3.46629 0.87409,-1.74818 -1.32887,-3.83894 -2.27102,-4.78109 -0.32055,-0.32055 -0.47045,-1.29183 -0.59764,-1.67338 -0.29824,-0.89473 1.38536,-2.36316 1.3148,-4.30299 -0.0219,-0.60146 0.23906,-6.04738 0.23906,-7.0521 0,-0.61938 -0.19557,-1.68433 0,-2.27102 0.16875,-0.50625 0.44032,-0.96239 0.59763,-1.43433 0.42978,-1.28932 -0.13077,-2.72664 0.47811,-3.9444 0.67812,-1.35624 2.77589,-1.7269 3.34677,-2.86865 0.24876,-0.49752 0.35082,-1.06024 0.59763,-1.55386 0.60351,-1.207 -1.33296,-2.90497 -1.79291,-3.82487 -0.6716,-1.3432 -0.34653,-4.81723 0.11953,-6.21542 0.82774,-2.48322 2.41466,-4.08804 4.18346,-5.85683 0.33625,-0.33626 1.08311,-0.85142 1.31479,-1.3148 0.39417,-0.78833 1.03984,-1.48204 1.43433,-2.27102 0.33973,-0.67946 0.47506,-1.66422 0.71717,-2.39054 0.66956,-2.00869 0.10903,-6.46496 -1.43433,-8.00833 -0.71794,-0.71793 -1.71466,-1.35607 -2.39055,-2.03196 -0.71592,-0.71592 2.51471,-8.19457 2.86866,-8.72549 1.17767,-1.88803 1.60888,-3.8799 3.10771,-5.37873 0.67007,-0.67008 1.8882,-1.05959 2.6296,-1.55385 0.52233,-0.34823 0.90184,-1.73495 1.43432,-1.91244 1.85621,-0.61874 4.75943,-0.71716 6.69353,-0.71716 0.51722,0 0.97448,-0.7263 1.43433,-0.95622 0.84887,-0.42444 3.28299,0.15141 4.54203,-0.47811 0.50999,-0.25499 1.40246,0.25499 1.91244,0 1.54974,-0.77487 3.3801,-2.64072 4.78109,-3.10771 1.52591,-0.50864 2.0716,0.51774 2.86865,1.3148 0.13312,0.13312 0.79294,0.18463 0.95622,0.23905 0.23005,0.0767 4.84783,-1.10911 5.2592,-1.3148 0.37891,-0.18945 0.91317,-0.81516 0.95622,-0.83669 0.49166,-0.98796 0.74418,-2.03715 1.3148,-2.98818 0.15785,-0.26309 0.44236,-0.24519 0.59763,-0.47811 0.63878,-0.95816 1.22048,-2.33708 2.39055,-2.6296 1.70187,-0.42547 4.65,0.80071 5.97636,0.35859 0.70014,-0.23338 1.54146,-0.53478 2.27102,-0.71717 0.38284,-0.0957 1.09076,-0.14955 1.3148,-0.59763 0.85996,-1.71993 -1.24748,-3.90732 -0.47811,-6.21542 0.2738,-0.82139 1.26982,-1.60592 1.79291,-2.39055 0.83164,-1.24746 1.66944,-2.74125 2.27102,-3.9444 0.56479,-1.12957 6.56423,-2.46122 7.17163,-5.49825 0.95876,-4.79381 -5.49825,-3.78291 -5.49825,-7.17164 0,-0.26374 -0.2646,-0.66606 -0.11953,-0.95621 0.54948,-1.09897 2.00019,-2.07584 3.10771,-2.6296 0.41406,-0.20703 1.03799,-0.21389 1.43433,-0.47811 1.88065,-1.25377 2.39756,-3.83189 3.9444,-5.37873 1.43769,-1.43769 5.59082,-4.22008 7.64974,-3.70534 2.31721,0.5793 4.13281,3.22723 6.45447,3.22723 0.76184,0 2.6019,-0.0918 3.58582,-1.07574 0.52964,-0.52964 0.41179,-1.60706 0.83669,-2.03197 0.11583,-0.11582 0.68819,-0.0453 0.83669,-0.11952 2.29289,-1.14645 3.54545,1.27442 4.78109,2.51007 0.44823,0.44822 1.27158,0.21744 1.55386,0.35858 1.34534,-0.98366 8.03445,-1.12799 8.60596,-2.27102 0.27528,-0.55055 0.37769,-1.37213 0.59764,-2.03196 0.55441,-1.66323 -1.1481,-3.77452 -0.95622,-4.54204 0.10723,-0.42892 3.23283,-3.87217 3.82487,-4.66156 1.05093,-1.40124 0.96949,-3.49282 1.67338,-4.90062 1.18033,-2.36065 2.86678,-3.45884 5.37873,-3.82487 6.01743,-0.87684 6.77322,2.11166 9.44265,4.78109 0.65479,0.65479 2.61379,-0.23905 3.34677,-0.23905 0.35483,0 1.85774,0.5328 2.15149,0.23905 1.17976,-1.17976 3.47233,-2.14545 4.90061,-0.71716 0.18032,0.18031 0.71217,0.62626 1.07575,0.71716 1.27437,0.31859 4.81781,-0.74477 5.61778,-0.47811 0.67503,0.22501 1.159,0.86444 1.79291,1.07575 0.56857,0.18952 1.54313,0.45665 1.67338,0.71716 2.21902,2.3101 5.10341,3.54687 8.12786,4.30298 1.18243,0.29561 2.28534,-0.23189 3.46629,0.35858 0.60674,0.30337 3.59431,2.55057 3.9444,2.98818 0.4908,0.61351 1.18406,1.97967 1.91243,2.27102 0.72645,0.29058 1.46212,0.009 2.15149,0.23906 0.74112,0.24704 1.2285,1.09236 1.91244,1.43432 1.10459,0.5523 2.3293,1.15008 3.46629,1.43433 1.24252,0.31063 2.15603,-0.35631 3.58582,0.35858 2.89106,1.44553 5.32048,3.90558 7.8888,5.61778 0.83006,0.55338 4.35505,2.4089 4.66156,2.86866 1.38997,2.08496 -3.05654,3.75651 -1.43433,5.37872 1.07046,1.07046 2.47885,1.59801 3.82487,2.27102 0.33362,0.16681 1.37822,2.02467 1.19528,2.39055 -0.88741,1.7748 -3.29597,1.64051 -4.06393,3.9444 -0.16677,0.5003 -0.42589,1.2324 -0.23906,1.79291 0.48571,1.45711 1.16203,2.99807 2.03197,4.30298 1.14604,1.71906 2.43956,2.48857 3.46629,4.54203 0.75674,1.51349 -4.62545,0.86593 -5.37873,2.74913 -0.51379,1.28447 0.63919,2.66603 0.23906,3.46629 -0.40911,0.81822 -1.93176,1.99333 -1.3148,3.22724 1.04118,2.08237 1.64875,2.79839 0.47811,5.13967 -1.19971,0.32591 -1.35383,1.77909 -2.27102,2.39054 -0.84926,0.56618 -1.93468,0.8235 -2.74913,1.43433 -1.70044,1.27533 -4.16676,3.60516 -4.54203,5.85684 -0.15579,0.93473 -0.41931,1.85745 -0.59764,2.74912 -0.25013,1.25067 0.51338,2.64332 0.11953,3.82488 -0.55171,1.65512 -1.88374,-0.16894 -2.74913,0.11952 -2.02045,0.67349 -3.57939,1.30624 -5.02015,3.22724 -0.44624,0.595 -1.24627,1.27976 -1.43432,2.03196 -0.16786,0.67142 -0.22289,1.60237 0,2.27102 0.17438,0.52316 1.75324,2.43021 1.07574,3.10771 -1.30362,1.30363 -1.56919,3.66859 -2.6296,5.2592 -0.82062,1.23094 -1.99129,2.17694 -2.86865,3.34676 -1.2328,1.64374 -2.00753,3.63293 -3.22724,5.2592 -0.19483,0.25978 -0.55172,0.34947 -0.71716,0.59764 -0.64519,0.96778 -1.64792,3.05938 -2.86866,3.46629 -0.7238,0.24127 -1.59063,0.73555 -2.27101,1.07574 -0.3379,0.16895 -0.95816,-0.0588 -1.3148,0.11953 -0.31471,0.15735 -0.48815,0.66242 -0.83669,0.83669 -0.28712,0.14356 -0.89311,0.0188 -1.19528,0.11953 -0.70879,0.23626 -2.08008,-0.43038 -2.74912,-0.59764 -0.21444,-0.0536 -4.96342,0.53889 -5.13968,0.59764 -1.31458,0.43819 -2.34477,1.57229 -3.70534,1.91243 -2.95171,0.73793 -7.14314,1.72273 -10.15982,0.71717 -0.31437,-0.10479 -0.86647,0 -1.19527,0 -2.73446,0 -2.17657,1.40284 -4.06393,2.03196 -0.68175,0.22725 -1.36889,0.0462 -2.03196,-0.11953 -0.61984,-0.15495 -1.29882,0.085 -1.91244,-0.11952 -1.03008,-0.34336 -1.49277,-2.1794 -2.03196,-2.98818 -0.42223,-0.63335 -1.13514,-1.01562 -1.67338,-1.55386 -0.22746,-0.50767 -1.04073,-0.42196 -1.43433,-0.71716 -1.76164,-1.32123 -3.14479,-1.17466 -5.13967,-1.67338 -0.72823,-0.18206 -1.5377,-0.64868 -2.39055,-0.47811 -1.03179,0.20636 -2.02163,0.61947 -3.1077,0.83669 -0.64885,0.12977 -1.37691,-0.0936 -2.03197,0 -1.28815,0.18402 -2.44714,0.52214 -3.70534,0.83669 -2.14758,0.53689 -6.76669,1.74654 -8.36691,3.34676 -0.80997,0.80997 -1.08938,2.16513 -1.91244,2.98818 -0.48439,0.4844 -1.26976,0.60458 -1.55385,1.3148 -0.33964,0.8491 -0.7133,4.18153 -1.43433,4.54204 -1.69149,0.84574 -3.6292,0.91815 -5.37872,1.79291 -1.7098,0.8549 -3.2609,2.27943 -5.13968,2.74912 -1.41868,0.35468 -5.93788,1.43842 -6.45447,2.98819 -0.23407,0.70222 0.31973,1.67042 0.11953,2.27101 -0.45549,1.36648 -1.55734,2.51356 -2.51007,3.46629 -0.33479,0.33479 -0.27144,1.11892 -0.59764,1.55386 -0.49837,0.66449 -0.96964,1.33492 -1.43433,2.03196 -0.19967,0.29952 -0.0194,0.41687 -0.11952,0.71717 -0.17585,0.52752 -0.6676,1.04658 -0.8367,1.55385 -0.29102,0.87308 -0.30804,1.83664 -0.83669,2.6296 -0.63943,0.95916 -2.07737,-0.28847 -2.86865,0.23905 -0.66741,0.44494 -1.12591,0.81357 -1.91244,1.07575 -0.73535,0.24512 -1.63355,1.3945 -2.15149,1.91244 -0.90625,0.90625 -2.1894,1.47223 -3.10771,2.39054 -1.96034,1.96035 -3.5042,4.22137 -5.49825,6.21542 -1.42364,-0.0965 -0.20247,0.5765 -0.35858,0.83669 -0.30664,0.51106 -0.82909,0.94101 -1.07575,1.43433 -0.37918,0.75837 -0.10962,1.65356 -0.47811,2.39054 -0.75948,1.51897 -1.72961,2.86159 -2.51007,4.42251 -0.43918,0.87837 -0.61165,1.80692 -1.3148,2.51007 -0.67585,0.67585 -1.49311,1.25406 -2.15149,1.91244 -0.7312,0.7312 -1.15958,1.87674 -1.91244,2.6296 -0.56693,0.56694 -1.70457,0.71891 -2.15149,1.3148 -1.16265,1.5502 -2.51138,2.77999 -4.06392,3.9444 -0.50012,0.37508 -1.09116,0.24676 -1.55386,0.47811 -0.23659,0.1183 -0.64103,0.38395 -1.07574,0.23905 -1.03452,-0.34484 -5.29633,-3.43959 -5.73731,-4.54203 -0.49218,-1.23044 -0.0625,-2.75279 -0.95622,-3.9444 -0.82872,-1.10496 -2.30576,-1.85082 -2.98818,-2.98819 -0.27336,-0.4556 -0.18447,-0.99905 -0.35858,-1.43432 -0.49493,-1.23732 -1.61461,-2.36116 -2.86866,-2.98818 -1.14182,-0.57092 -2.99337,-0.60023 -3.70534,-0.95622 -1.80935,-0.90468 -3.40045,-0.70374 -5.2592,-0.23906 -0.75016,0.18754 -1.54901,-0.36019 -2.27102,-0.11952 -0.46959,0.15653 -0.89973,0.58351 -1.43433,0.71716 -0.63173,0.15793 -1.12981,-0.42024 -1.67338,-0.23905 -0.79719,0.26572 -1.28075,0.96473 -2.27101,0.71716 -1.09958,-0.27489 -1.23497,-1.45418 -2.1515,-1.91244 z"
       style="fill:none;stroke:#000000;stroke-width:1px;stroke-linecap:round;stroke-linejoin:round;stroke-opacity:1" />
    <path
       style="fill:#000000;stroke:#000000;stroke-width:1px;stroke-linecap:round;stroke-linejoin:round;stroke-opacity:1;fill-opacity:1"
       d="m 364.08003,491.37656 c -0.30651,-0.45976 -3.8315,-2.31528 -4.66156,-2.86866 -2.56832,-1.7122 -4.99774,-4.17225 -7.8888,-5.61778 -1.42979,-0.71489 -2.3433,-0.048 -3.58582,-0.35858 -1.13699,-0.28425 -2.3617,-0.88203 -3.46629,-1.43433 -0.68394,-0.34196 -1.17132,-1.18728 -1.91244,-1.43432 -0.68937,-0.23006 -1.42504,0.0515 -2.15149,-0.23906 -0.72837,-0.29135 -1.42163,-1.65751 -1.91243,-2.27102 -0.35009,-0.43761 -3.33766,-2.68481 -3.9444,-2.98818 -1.18095,-0.59047 -2.28386,-0.063 -3.46629,-0.35858 -3.02445,-0.75611 -5.90884,-1.99288 -8.12786,-4.30298 -0.13025,-0.26051 -1.10481,-0.52764 -1.67338,-0.71716 -0.63391,-0.21131 -1.11788,-0.85074 -1.79291,-1.07575 -0.79997,-0.26666 -4.34341,0.7967 -5.61778,0.47811 -0.36358,-0.0909 -0.89543,-0.53685 -1.07575,-0.71716 -1.42828,-1.42829 -3.72085,-0.4626 -4.90061,0.71716 0.17637,-1.61346 3.58682,-1.7544 4.06392,-2.39054 0.16672,-0.22229 0.18058,-0.59936 0.35859,-0.8367 1.04286,-1.39049 3.23384,-1.43432 4.78109,-1.43432 5.44656,0 6.82756,1.7404 11.47461,4.06392 2.21171,1.10586 4.63402,1.88717 6.93258,2.74913 1.11738,0.41902 2.13162,1.28724 3.22724,1.79291 2.91098,1.34353 6.06025,2.39307 8.84502,4.06393 1.52183,0.9131 2.3961,2.51285 4.06392,3.34676 3.53617,1.76808 6.51564,2.33218 9.44266,5.2592 1.09806,1.09806 1.75962,2.9216 2.39054,4.18345 0.15762,0.31524 -0.23706,1.19726 0,1.43433 0.28513,0.28512 0.43113,0.29018 0.59764,0.95622 z"
       id="path14596-1"
       sodipodi:nodetypes="csssscsssscssssc" />
    <path
       sodipodi:nodetypes="csssssssssssssssssssscsssssssssssscssssssssssssssssssscsssc"
       id="path14613"
       d="m 353.32258,546.71768 c 4.83299,-0.53678 9.70748,-0.63547 14.46279,-1.3148 1.42505,-0.20358 2.87923,-0.75283 4.30298,-0.95622 1.56062,-0.22294 3.16824,-0.19442 4.78109,-0.59764 2.68356,-0.67088 5.46602,-1.5684 8.24739,-2.03196 1.06181,-0.17697 2.06125,-0.74693 3.1077,-0.95622 2.10547,-0.42109 4.09211,-1.00545 6.09589,-1.67338 0.57407,-0.19135 1.05864,-0.0284 1.55386,-0.35858 0.63937,-0.42625 0.63592,-1.21442 1.3148,-1.55385 2.29995,-1.14998 4.42042,-3.78224 5.97636,-5.85684 0.79669,-1.06225 2.02173,-1.73281 2.86866,-2.74913 3.50871,-4.21046 6.17271,-8.85352 8.96454,-13.50658 2.04069,-3.40114 4.13546,-11.18662 4.78109,-15.06043 0.31083,-1.86499 0.3434,-3.74894 0.71716,-5.61778 0.24339,-1.21693 -0.0931,-2.65718 -0.23905,-3.82488 -0.56221,-4.4977 -1.1427,-8.94072 -2.03196,-13.38705 -0.23884,-1.19416 -0.19706,-2.5036 -0.59764,-3.70534 -0.28798,-0.86393 -0.70065,-1.73511 -0.95622,-2.6296 -0.51637,-1.80729 -0.48433,-3.72089 -1.19527,-5.49826 -0.82148,-2.0537 -1.8927,-4.3929 -3.10771,-6.21541 -0.36348,-0.54523 -0.98305,-1.15626 -1.19527,-1.79291 -0.55067,-1.65202 2.63521,-3.81926 0.95622,-5.49826 -0.2789,-0.31874 -0.52189,-0.67289 -0.83669,-0.95621 -1.35373,-1.21835 -6.39946,-3.15244 -8.24739,-3.9444 -2.18797,-0.93771 -7.03624,-3.25475 -8.84501,-4.66157 -0.70891,-0.55137 -1.45872,-1.26723 -2.27102,-1.67338 -1.64077,-0.82038 -3.48013,-0.96314 -5.13967,-1.79291 -2.60668,-1.30334 -5.05432,-2.88574 -7.64975,-4.18345 -0.72459,-0.3623 -1.2918,-0.98584 -2.03196,-1.3148 -3.37257,-1.49892 -7.4618,-3.08569 -10.63793,-4.90062 -0.99497,-0.56856 -1.84812,-1.465 -2.86865,-2.03196 -3.08096,-1.71164 -6.43311,-2.85798 -9.56218,-4.42251 -2.30037,-1.15019 -4.48955,-2.54359 -6.81306,-3.70535 -0.97331,-0.48665 -2.88691,-0.90558 -3.94439,-1.43432 -1.69321,-0.8466 -5.66436,-3.58582 -6.93259,-3.58582 -0.61624,-0.12524 -1.37923,-0.33631 -1.91243,-0.71716 -3.81758,-2.72685 -9.2669,-5.29577 -13.86516,-6.21542 -1.43185,-0.28637 -3.73615,-0.16118 -5.13968,0.11952 -0.94974,0.18995 -2.04982,-0.23458 -2.98818,0 -1.09149,0.27288 -2.2115,0.23245 -3.34676,0.35859 -2.01359,0.22373 -3.95681,0.85135 -5.97636,1.07574 -5.48479,0.60942 -11.41435,1.67901 -16.63782,3.42017 -3.05007,1.01669 -6.49916,2.32278 -9.18007,4.11005 -1.50873,1.00582 -3.21993,3.81756 -4.66156,5.2592 -0.97064,0.97064 -2.2309,1.65311 -3.10771,2.74913 -0.85276,1.06594 -1.54142,2.32781 -2.39055,3.34676 -1.00494,1.20593 -1.65107,2.65226 -2.58347,3.89547 -1.17587,1.56782 -2.14737,3.17567 -3.03431,4.94955 -0.47343,0.94686 -1.25817,1.78029 -1.67338,2.74912 -0.53129,1.23967 -0.96026,2.56069 -1.43433,3.82488 -0.41137,1.09699 -1.38281,2.14941 -1.55386,3.34676 -0.22786,1.59502 -0.79566,3.70178 -1.3148,5.2592 -0.50964,1.52894 -1.11173,3.03705 -1.3148,4.66156 -0.26155,2.0924 -0.48878,3.95573 -0.78776,6.04883 -0.20936,1.46551 -0.79308,6.66121 -0.11952,8.00832 0.13703,0.60957 0.11231,1.45651 0.19012,2.07903 0.17426,1.39406 -0.34146,3.05666 0,4.42251 0.36416,1.45663 1.25282,2.79779 1.55386,4.30298 0.16827,0.84134 0.36129,1.79833 0.71716,2.51007"
       style="fill:none;stroke:#000000;stroke-width:1px;stroke-linecap:round;stroke-linejoin:round;stroke-opacity:1" />
    <path
       id="path14615"
       d="m 253.57093,472.73632 9.01267,13.2329"
       style="fill:none;stroke:#000000;stroke-width:0.5;stroke-linecap:round;stroke-linejoin:round;stroke-opacity:1;stroke-miterlimit:4;stroke-dasharray:none" />
    <path
       id="path14617"
       d="m 253.07022,465.86952 12.80373,18.383"
       style="fill:none;stroke:#000000;stroke-width:0.5;stroke-linecap:round;stroke-linejoin:round;stroke-opacity:1;stroke-miterlimit:4;stroke-dasharray:none" />
    <path
       id="path14619"
       d="m 253.57093,460.64789 14.66348,21.67334"
       style="fill:none;stroke:#000000;stroke-width:0.5;stroke-linecap:round;stroke-linejoin:round;stroke-opacity:1;stroke-miterlimit:4;stroke-dasharray:none" />
    <path
       sodipodi:nodetypes="cc"
       id="path14621"
       d="m 254.35775,455.35473 19.76532,29.9984"
       style="fill:none;stroke:#000000;stroke-width:0.5;stroke-linecap:round;stroke-linejoin:round;stroke-opacity:1;stroke-miterlimit:4;stroke-dasharray:none" />
    <path
       id="path14623"
       d="m 255.57374,451.06298 22.03099,33.47566"
       style="fill:none;stroke:#000000;stroke-width:0.5;stroke-linecap:round;stroke-linejoin:round;stroke-opacity:1;stroke-miterlimit:4;stroke-dasharray:none" />
    <path
       id="path14625"
       d="m 256.71821,446.91429 24.53451,37.12364"
       style="fill:none;stroke:#000000;stroke-width:0.5;stroke-linecap:round;stroke-linejoin:round;stroke-opacity:1;stroke-miterlimit:4;stroke-dasharray:none" />
    <path
       id="path14627"
       d="m 258.07727,443.05171 25.03521,37.40976"
       style="fill:none;stroke:#000000;stroke-width:0.5;stroke-linecap:round;stroke-linejoin:round;stroke-opacity:1;stroke-miterlimit:4;stroke-dasharray:none" />
    <path
       id="path14629"
       d="m 259.65091,439.11761 23.67616,35.90765"
       style="fill:none;stroke:#000000;stroke-width:0.5;stroke-linecap:round;stroke-linejoin:round;stroke-opacity:1;stroke-miterlimit:4;stroke-dasharray:none" />
    <path
       id="path14631"
       d="M 261.43914,436.11338 285.616,472.16409"
       style="fill:none;stroke:#000000;stroke-width:0.5;stroke-linecap:round;stroke-linejoin:round;stroke-opacity:1;stroke-miterlimit:4;stroke-dasharray:none" />
    <path
       id="path14633"
       d="m 263.22737,432.67998 23.81921,35.69306"
       style="fill:none;stroke:#000000;stroke-width:0.5;stroke-linecap:round;stroke-linejoin:round;stroke-opacity:1;stroke-miterlimit:4;stroke-dasharray:none" />
    <path
       id="path14635"
       d="m 265.30171,429.5327 23.5331,35.83612"
       style="fill:none;stroke:#000000;stroke-width:0.5;stroke-linecap:round;stroke-linejoin:round;stroke-opacity:1;stroke-miterlimit:4;stroke-dasharray:none" />
    <path
       id="path14637"
       d="m 267.233,426.6 24.46298,37.05212"
       style="fill:none;stroke:#000000;stroke-width:0.5;stroke-linecap:round;stroke-linejoin:round;stroke-opacity:1;stroke-miterlimit:4;stroke-dasharray:none" />
    <path
       id="path14639"
       d="m 269.30735,423.81037 26.10815,39.41257"
       style="fill:none;stroke:#000000;stroke-width:0.5;stroke-linecap:round;stroke-linejoin:round;stroke-opacity:1;stroke-miterlimit:4;stroke-dasharray:none" />
    <path
       id="path14641"
       d="m 271.8824,421.52143 30.47143,46.42244"
       style="fill:none;stroke:#000000;stroke-width:0.5;stroke-linecap:round;stroke-linejoin:round;stroke-opacity:1;stroke-miterlimit:4;stroke-dasharray:none" />
    <path
       id="path14643"
       d="m 274.24286,418.94638 32.25966,49.06902"
       style="fill:none;stroke:#000000;stroke-width:0.5;stroke-linecap:round;stroke-linejoin:round;stroke-opacity:1;stroke-miterlimit:4;stroke-dasharray:none" />
    <path
       id="path14645"
       d="m 276.17415,416.44286 33.61871,50.28501"
       style="fill:none;stroke:#000000;stroke-width:0.5;stroke-linecap:round;stroke-linejoin:round;stroke-opacity:1;stroke-miterlimit:4;stroke-dasharray:none" />
    <path
       id="path14647"
       d="m 279.10684,414.44004 33.18954,50.42807"
       style="fill:none;stroke:#000000;stroke-width:0.5;stroke-linecap:round;stroke-linejoin:round;stroke-opacity:1;stroke-miterlimit:4;stroke-dasharray:none" />
    <path
       id="path14649"
       d="m 281.96801,413.00946 33.47566,50.4996"
       style="fill:none;stroke:#000000;stroke-width:0.5;stroke-linecap:round;stroke-linejoin:round;stroke-opacity:1;stroke-miterlimit:4;stroke-dasharray:none" />
    <path
       id="path14651"
       d="m 285.32988,411.86499 34.11942,51.7156"
       style="fill:none;stroke:#000000;stroke-width:0.5;stroke-linecap:round;stroke-linejoin:round;stroke-opacity:1;stroke-miterlimit:4;stroke-dasharray:none" />
    <path
       id="path14653"
       d="m 288.62022,410.72053 35.69306,54.4337"
       style="fill:none;stroke:#000000;stroke-width:0.5;stroke-linecap:round;stroke-linejoin:round;stroke-opacity:1;stroke-miterlimit:4;stroke-dasharray:none" />
    <path
       id="path14655"
       d="m 291.9821,410.00524 38.19658,58.22474"
       style="fill:none;stroke:#000000;stroke-width:0.5;stroke-linecap:round;stroke-linejoin:round;stroke-opacity:1;stroke-miterlimit:4;stroke-dasharray:none" />
    <path
       id="path14657"
       d="m 295.48702,409.07536 40.05634,61.37203"
       style="fill:none;stroke:#000000;stroke-width:0.5;stroke-linecap:round;stroke-linejoin:round;stroke-opacity:1;stroke-miterlimit:4;stroke-dasharray:none" />
    <path
       id="path14659"
       d="m 298.92043,408.57465 42.4168,64.66238"
       style="fill:none;stroke:#000000;stroke-width:0.5;stroke-linecap:round;stroke-linejoin:round;stroke-opacity:1;stroke-miterlimit:4;stroke-dasharray:none" />
    <path
       id="path14661"
       d="M 347.20262,475.95514 302.783,407.93089"
       style="fill:none;stroke:#000000;stroke-width:0.5;stroke-linecap:round;stroke-linejoin:round;stroke-opacity:1;stroke-miterlimit:4;stroke-dasharray:none" />
    <path
       id="path14663"
       d="m 306.2164,407.43019 48.49678,73.38893"
       style="fill:none;stroke:#000000;stroke-width:0.5;stroke-linecap:round;stroke-linejoin:round;stroke-opacity:1;stroke-miterlimit:4;stroke-dasharray:none" />
    <path
       id="path14665"
       d="m 310.00745,406.85795 86.26418,131.25604"
       style="fill:none;stroke:#000000;stroke-width:0.5;stroke-linecap:round;stroke-linejoin:round;stroke-opacity:1;stroke-miterlimit:4;stroke-dasharray:none" />
    <path
       sodipodi:nodetypes="cccc"
       id="path14667"
       d="m 393.05282,539.32999 -25.48514,-38.44486 m -1.38071,-2.01252 -3.03334,-4.60601"
       style="fill:none;stroke:#000000;stroke-width:0.5;stroke-linecap:round;stroke-linejoin:round;stroke-opacity:1;stroke-miterlimit:4;stroke-dasharray:none" />
    <path
       id="path14669"
       d="m 365.2995,503.35081 24.24839,37.05211"
       style="fill:none;stroke:#000000;stroke-width:0.5;stroke-linecap:round;stroke-linejoin:round;stroke-opacity:1;stroke-miterlimit:4;stroke-dasharray:none" />
    <path
       id="path14671"
       d="M 386.18602,541.40433 363.22515,506.35504"
       style="fill:none;stroke:#000000;stroke-width:0.5;stroke-linecap:round;stroke-linejoin:round;stroke-opacity:1;stroke-miterlimit:4;stroke-dasharray:none" />
    <path
       id="path14673"
       d="m 366.08632,517.37053 16.6663,24.74909"
       style="fill:none;stroke:#000000;stroke-width:0.5;stroke-linecap:round;stroke-linejoin:round;stroke-opacity:1;stroke-miterlimit:4;stroke-dasharray:none" />
    <path
       id="path14675"
       d="m 363.43974,519.44487 16.02254,23.60463"
       style="fill:none;stroke:#000000;stroke-width:0.5;stroke-linecap:round;stroke-linejoin:round;stroke-opacity:1;stroke-miterlimit:4;stroke-dasharray:none" />
    <path
       id="path14677"
       d="m 362.50986,523.87968 13.37596,19.95664"
       style="fill:none;stroke:#000000;stroke-width:0.5;stroke-linecap:round;stroke-linejoin:round;stroke-opacity:1;stroke-miterlimit:4;stroke-dasharray:none" />
    <path
       id="path14679"
       d="m 362.79598,530.67495 9.58491,13.59055"
       style="fill:none;stroke:#000000;stroke-width:0.5;stroke-linecap:round;stroke-linejoin:round;stroke-opacity:1;stroke-miterlimit:4;stroke-dasharray:none" />
    <path
       id="path14681"
       d="m 360.72163,532.82083 8.22586,12.08843"
       style="fill:none;stroke:#000000;stroke-width:0.5;stroke-linecap:round;stroke-linejoin:round;stroke-opacity:1;stroke-miterlimit:4;stroke-dasharray:none" />
    <path
       id="path14683"
       d="m 357.64588,534.53753 7.51056,11.08702"
       style="fill:none;stroke:#000000;stroke-width:0.5;stroke-linecap:round;stroke-linejoin:round;stroke-opacity:1;stroke-miterlimit:4;stroke-dasharray:none" />
    <path
       id="path14685"
       d="m 355.42847,536.61188 6.22304,9.29879"
       style="fill:none;stroke:#000000;stroke-width:0.5;stroke-linecap:round;stroke-linejoin:round;stroke-opacity:1;stroke-miterlimit:4;stroke-dasharray:none" />
    <path
       id="path14687"
       d="m 353.35413,539.6161 4.50634,6.72374"
       style="fill:none;stroke:#000000;stroke-width:0.5;stroke-linecap:round;stroke-linejoin:round;stroke-opacity:1;stroke-miterlimit:4;stroke-dasharray:none" />
    <path
       sodipodi:nodetypes="cc"
       id="path14689"
       d="M 313.51238,406.50031 398.6321,536.1827"
       style="fill:none;stroke:#000000;stroke-width:0.5;stroke-linecap:round;stroke-linejoin:round;stroke-opacity:1;stroke-miterlimit:4;stroke-dasharray:none" />
    <path
       sodipodi:nodetypes="cc"
       id="path14691"
       d="m 317.51801,406.21419 83.61761,127.60805"
       style="fill:none;stroke:#000000;stroke-width:0.5;stroke-linecap:round;stroke-linejoin:round;stroke-opacity:1;stroke-miterlimit:4;stroke-dasharray:none" />
    <path
       sodipodi:nodetypes="cc"
       id="path14693"
       d="m 321.88129,406.78642 81.47173,124.46077"
       style="fill:none;stroke:#000000;stroke-width:0.5;stroke-linecap:round;stroke-linejoin:round;stroke-opacity:1;stroke-miterlimit:4;stroke-dasharray:none" />
    <path
       sodipodi:nodetypes="cc"
       id="path14695"
       d="m 327.24598,408.71771 78.68209,120.16902"
       style="fill:none;stroke:#000000;stroke-width:0.5;stroke-linecap:round;stroke-linejoin:round;stroke-opacity:1;stroke-miterlimit:4;stroke-dasharray:none" />
    <path
       sodipodi:nodetypes="cc"
       id="path14697"
       d="m 333.32596,411.86499 74.67645,114.30363"
       style="fill:none;stroke:#000000;stroke-width:0.5;stroke-linecap:round;stroke-linejoin:round;stroke-opacity:1;stroke-miterlimit:4;stroke-dasharray:none" />
    <path
       sodipodi:nodetypes="cc"
       id="path14699"
       d="M 339.04829,414.51157 409.9337,523.37898"
       style="fill:none;stroke:#000000;stroke-width:0.5;stroke-linecap:round;stroke-linejoin:round;stroke-opacity:1;stroke-miterlimit:4;stroke-dasharray:none" />
    <path
       sodipodi:nodetypes="cc"
       id="path14701"
       d="M 345.05674,417.58733 411.86499,520.2317"
       style="fill:none;stroke:#000000;stroke-width:0.5;stroke-linecap:round;stroke-linejoin:round;stroke-opacity:1;stroke-miterlimit:4;stroke-dasharray:none" />
    <path
       sodipodi:nodetypes="cc"
       id="path14703"
       d="m 350.92214,420.44849 62.87414,96.42134"
       style="fill:none;stroke:#000000;stroke-width:0.5;stroke-linecap:round;stroke-linejoin:round;stroke-opacity:1;stroke-miterlimit:4;stroke-dasharray:none" />
    <path
       sodipodi:nodetypes="cc"
       id="path14705"
       d="m 356.716,423.30966 59.0831,90.34135"
       style="fill:none;stroke:#000000;stroke-width:0.5;stroke-linecap:round;stroke-linejoin:round;stroke-miterlimit:4;stroke-dasharray:none;stroke-opacity:1" />
    <path
       sodipodi:nodetypes="cc"
       id="path14707"
       d="m 362.22375,425.74165 55.07746,84.11831"
       style="fill:none;stroke:#000000;stroke-width:0.5;stroke-linecap:round;stroke-linejoin:round;stroke-miterlimit:4;stroke-dasharray:none;stroke-opacity:1" />
    <path
       sodipodi:nodetypes="cc"
       id="path14709"
       d="m 368.51831,429.5327 49.92736,76.32163"
       style="fill:none;stroke:#000000;stroke-width:0.5;stroke-linecap:round;stroke-linejoin:round;stroke-miterlimit:4;stroke-dasharray:none;stroke-opacity:1" />
    <path
       sodipodi:nodetypes="cc"
       id="path14711"
       d="m 374.02606,432.10775 45.56408,69.3833"
       style="fill:none;stroke:#000000;stroke-width:0.5;stroke-linecap:round;stroke-linejoin:round;stroke-miterlimit:4;stroke-dasharray:none;stroke-opacity:1" />
    <path
       sodipodi:nodetypes="cc"
       id="path14713"
       d="m 380.53521,435.39809 39.6987,61.01439"
       style="fill:none;stroke:#000000;stroke-width:0.5;stroke-linecap:round;stroke-linejoin:round;stroke-miterlimit:4;stroke-dasharray:none;stroke-opacity:1" />
    <path
       sodipodi:nodetypes="cc"
       id="path14715"
       d="m 386.68672,438.97455 33.54719,51.35795"
       style="fill:none;stroke:#000000;stroke-width:0.5;stroke-linecap:round;stroke-linejoin:round;stroke-miterlimit:4;stroke-dasharray:none;stroke-opacity:1" />
    <path
       sodipodi:nodetypes="cc"
       id="path14717"
       d="m 391.55071,440.69125 27.68179,42.27374"
       style="fill:none;stroke:#000000;stroke-width:0.5;stroke-linecap:round;stroke-linejoin:round;stroke-miterlimit:4;stroke-dasharray:none;stroke-opacity:1" />
    <path
       sodipodi:nodetypes="cc"
       id="path14719"
       d="m 398.27445,444.69689 19.31288,29.47001"
       style="fill:none;stroke:#000000;stroke-width:0.5;stroke-linecap:round;stroke-linejoin:round;stroke-miterlimit:4;stroke-dasharray:none;stroke-opacity:1" />
    <path
       sodipodi:nodetypes="cc"
       id="path14721"
       d="m 403.92526,447.48652 8.79808,12.37455"
       style="fill:none;stroke:#000000;stroke-width:0.5;stroke-linecap:round;stroke-linejoin:round;stroke-miterlimit:4;stroke-dasharray:none;stroke-opacity:1" />
  </g>
</svg>
