<?xml version="1.0" encoding="UTF-8" standalone="no"?>
<svg
   xmlns:dc="http://purl.org/dc/elements/1.1/"
   xmlns:cc="http://creativecommons.org/ns#"
   xmlns:rdf="http://www.w3.org/1999/02/22-rdf-syntax-ns#"
   xmlns:svg="http://www.w3.org/2000/svg"
   xmlns="http://www.w3.org/2000/svg"
   xmlns:sodipodi="http://sodipodi.sourceforge.net/DTD/sodipodi-0.dtd"
   xmlns:inkscape="http://www.inkscape.org/namespaces/inkscape"
   version="1.1"
   id="svg61111"
   width="693.12"
   height="853.12"
   viewBox="0 0 693.12 853.12"
   sodipodi:docname="er06fe01.003.svg"
   inkscape:version="1.0 (4035a4f, 2020-05-01)">
  <metadata
     id="metadata61117">
    <rdf:RDF>
      <cc:Work
         rdf:about="">
        <dc:format>image/svg+xml</dc:format>
        <dc:type
           rdf:resource="http://purl.org/dc/dcmitype/StillImage" />
        <dc:title></dc:title>
      </cc:Work>
    </rdf:RDF>
  </metadata>
  <defs
     id="defs61115" />
  <sodipodi:namedview
     inkscape:document-rotation="0"
     pagecolor="#ffffff"
     bordercolor="#666666"
     borderopacity="1"
     objecttolerance="10"
     gridtolerance="10"
     guidetolerance="10"
     inkscape:pageopacity="0"
     inkscape:pageshadow="2"
     inkscape:window-width="1280"
     inkscape:window-height="751"
     id="namedview61113"
     showgrid="false"
     inkscape:snap-global="true"
     inkscape:zoom="0.60983918"
     inkscape:cx="285.08671"
     inkscape:cy="426.56"
     inkscape:window-x="0"
     inkscape:window-y="23"
     inkscape:window-maximized="0"
     inkscape:current-layer="g61119" />
  <g
     inkscape:groupmode="layer"
     inkscape:label="Image"
     id="g61119">
    <path
       sodipodi:nodetypes="ccsssssssssssssssssssssscsssssscsscsssssssssssssssscssssssssssssssssssscssssscccccc"
       id="path62082-5"
       d="m 262.28317,140.10276 101.80085,29.06381 c 0.44173,0.20215 1.80726,0.13186 2.01768,0.76313 0.16992,0.50975 -0.94644,2.6568 -0.94644,3.52765 0,0.87126 1.20456,0.50515 1.20456,1.97893 0,0.75905 -0.92513,1.63557 -1.11852,2.40913 -0.0229,0.0917 0.14078,5.75684 0.17208,5.85074 0.20109,0.60328 1.39313,1.13139 1.46269,1.54873 0.17406,1.04439 0.48669,4.68789 0.8604,5.24846 0.37798,0.56697 1.19519,0.76311 1.63477,1.29061 0.90881,1.09058 1.78488,2.79174 3.01141,3.52765 0.27713,0.16628 0.56446,0.0241 0.8604,0.17208 0.81039,0.4052 0.68568,1.42721 1.63477,1.80685 0.86067,0.34427 2.05548,-1.16301 2.75329,0 0.64364,1.07274 -0.4923,2.5064 0.17208,3.6137 0.63835,1.06391 1.42413,0.14575 2.32309,0.25812 0.60165,0.0752 1.16725,0.7092 1.72081,0.94644 0.28591,0.12253 0.61484,-0.0121 0.8604,0.17208 0.93815,0.70361 0.29736,2.46709 1.20457,3.01141 0.28815,0.17289 1.80992,0.1137 2.15101,0 0.69467,-0.23156 1.16094,-0.88161 1.80684,-1.20456 0.44257,-0.22129 1.02012,-0.0368 1.46269,-0.25812 0.6626,-0.33131 1.20838,-0.85013 1.97893,-0.94645 0.53637,-0.067 1.19512,-0.18152 1.63476,0.25812 0.0993,0.0993 0.50873,0.78038 0.51625,0.77437 0.68902,-0.55122 0.65762,-1.74848 1.46268,-2.15101 0.65033,-0.32517 2.45894,-0.14038 2.83933,-0.77436 0.46773,-0.77955 -0.82542,-2.98078 0.086,-3.52766 1.04893,-0.62936 2.77275,-0.22483 3.87182,-0.77436 0.42141,-0.21071 0.86124,-0.60215 1.37665,-0.51624 1.1287,0.18811 4.07351,1.23277 5.16242,0.68832 0.4739,-0.23695 0.92012,-1.03249 1.54872,-1.03249 0.51321,-1.1638 2.86572,-1.92178 4.12998,-1.80684 2.13271,0.19388 8.75951,2.18572 10.75504,3.18349 2.33822,1.16911 4.72135,2.83118 6.79719,4.38806 0.63536,0.32371 1.31329,0.51174 1.89289,0.94644 0.47002,0.35252 0.81717,0.91186 1.29061,1.29061 1.33454,1.06763 2.98852,1.74476 4.30201,2.83933 0.76778,0.63981 1.30694,1.57377 2.06497,2.23705 0.71831,0.62852 1.50607,1.1977 2.23705,1.80685 0.72333,0.60277 1.62209,0.76731 2.40913,1.20456 1.11761,0.6209 2.1363,1.39604 3.09745,2.23705 4.53608,3.96906 9.53818,12.85685 11.01317,18.7568 0.60968,2.43871 1.54873,5.76596 1.54873,8.25987 0,0.81441 -2.41189,1.45855 -1.72081,2.49517 0.31982,0.47973 1.86042,-0.42316 2.49517,0 0.74503,0.49669 0.89646,0.91449 1.37664,1.63477 1.57337,2.36004 4.42625,2.37408 6.79719,1.97893 0.37108,-0.0618 2.42373,-1.18998 2.66725,-0.94645 0.53164,0.53164 -0.5988,1.81033 -0.34416,2.06497 0.75254,0.75254 1.792,0.78324 2.49517,1.72081 1.47264,1.96352 0.62579,3.47763 3.26953,5.59262 2.47942,0.8112 3.06539,2.98834 4.56014,4.73222 3.52845,4.11652 5.32894,9.01199 6.62511,14.19666 0.11626,0.46502 0.12377,3.03259 0,3.52765 -0.0965,0.38593 -0.84777,0.81225 -0.68832,1.29061 0.0955,0.28652 0.52155,0.48251 0.68832,0.77436 0.41856,0.73248 0.34416,2.16849 0.34416,3.01141 0,1.00361 -2.85538,3.01899 0,4.73222 0.41241,0.24745 0.88969,0.0577 1.29061,0.25812 0.42464,0.21233 0.75532,0.9944 0.94644,1.37665 0.59326,1.18651 1.87806,1.60114 3.01141,1.97893 0.23832,0.0794 0.50086,0.34929 0.77437,0.25812 1.44998,-0.48333 1.45735,-2.79365 2.75329,-3.44162 1.02978,-0.51489 2.765,-1.17198 3.95785,-0.77436 0.34467,0.11489 1.57292,0.7811 1.80685,0.4302 0.89883,-1.34823 -1.58583,-5.33287 -1.2906,-7.39947 0.14016,-0.98117 0.3767,-2.1626 0.68832,-3.09745 0.107,-0.321 0.40724,-0.44452 0.60228,-0.68832 2.10397,-2.62996 4.58791,-3.79966 7.48551,-5.24846 0.58176,-0.29088 1.07387,-0.0712 1.63477,-0.25813 0.54913,-0.18304 0.88531,-0.52869 1.37665,-0.77436 2.14555,-0.79339 3.3458,-2.69789 5.07638,-4.0439 0.28902,-0.22479 0.91179,-0.37822 1.11852,-0.68832 0.46017,-0.69026 1.03233,-1.31205 1.89289,-1.63476 1.11782,-0.41919 2.28838,-0.32404 3.44161,-0.51625 5.94429,-0.99071 8.94671,-0.0146 14.7129,0.94645 1.33827,0.22304 6.46177,1.05871 6.88323,2.32309 0.19429,0.96935 0,1.8707 0,2.66725 L 471.07093,598.66878 65.906912,488.36505 160.5513,196.43013 Z"
       style="font-variation-settings:normal;opacity:1;vector-effect:none;fill:#9c9c9c;fill-opacity:1;stroke:#000000;stroke-width:2.66667;stroke-linecap:butt;stroke-linejoin:round;stroke-miterlimit:4;stroke-dasharray:none;stroke-dashoffset:0;stroke-opacity:1;stop-color:#000000;stop-opacity:1" />
    <path
       id="path31273"
       d="m 176.7166,710.5969 12.44676,61.19736 c 0.75424,0.1693 1.54813,0.0501 2.29136,-0.0776 0.59605,-0.1025 2.67644,-1.53256 3.19929,-1.26471 1.2611,0.64611 1.22614,2.25162 2.16052,3.10949 0.6678,0.61305 1.65926,0.86873 2.3763,1.41766 1.09956,0.84175 2.94127,3.58569 4.65107,3.03365 0.84053,-0.27138 0.45423,-1.47341 0.71656,-1.98588 0.25888,-0.50557 0.80411,-0.97568 0.91193,-1.58552 0.14152,-0.80164 -0.19628,-1.15046 0.3182,-1.9897 0.22165,-0.36156 2.08009,-1.70199 2.60087,-1.17079 0.29191,0.29777 0.37989,0.44493 0.88938,0.70599 0.75931,0.389 -0.57716,1.22508 -0.71167,1.48779 -0.48824,0.95341 2.55906,6.50096 3.82027,6.51304 0.17416,0.001 0.85998,0.16423 1.0954,0.0104 0.38671,-0.25264 2.2917,-2.19043 1.62154,-2.87399 -1.19425,-1.21821 -2.99891,-1.46153 -4.25758,-2.5317 -0.50557,-0.42989 -1.03711,-0.84 -1.58164,-1.2108 -0.12269,-0.0837 -0.54481,-0.20448 -0.3963,-0.20306 1.72468,0.0164 3.26139,1.91911 4.45285,2.93211 1.05143,0.894 2.56344,0.60232 3.56934,1.62838 0.48249,0.49212 0.72197,1.26256 1.17741,1.80475 0.98511,1.17276 2.11755,2.21808 3.35549,3.12088 1.39385,1.01656 2.40203,3.25762 3.64546,4.02041 2.1053,1.2915 4.80796,1.18831 7.05179,1.96062 0.31847,0.10957 0.79552,-0.043 1.09441,0.11015 0.75398,0.38625 1.82201,4.68706 1.34143,5.3933 -0.17363,0.25515 -0.42225,0.53794 -0.30751,0.89379 0.25438,0.78925 0.85628,2.64124 0.56328,3.49272 -0.2286,0.66444 -1.16892,-0.59841 -1.28674,-0.80942 -0.73638,-1.31898 -2.77924,-7.45401 -4.41481,-6.81763 -0.59019,0.22965 -0.82887,1.95221 -0.62187,2.48502 0.26195,0.67417 2.80373,2.67563 1.65579,3.80208 -0.80662,0.79152 -0.92252,-0.87085 -1.4908,-0.31318 -0.25285,0.24809 1.24921,3.49367 -0.52328,2.58559 -0.33742,-0.17287 -3.02823,-2.84712 -3.36627,-2.025 -0.42401,1.03118 1.79181,3.36039 0.86499,3.1967 -0.97847,-0.17279 -2.97637,-3.04273 -1.75342,-4.00227 0.87501,-0.68657 1.94083,0.39611 2.88787,0.0277 1.15317,-0.44871 -0.79399,-1.96699 -0.87376,-2.30006 -0.27177,-1.13474 1.89063,-1.92188 -0.26556,-3.39024 -0.43583,-0.29681 -1.19792,-0.18303 -1.29849,0.38613 -0.0611,0.34694 0.53164,1.15573 0.38564,1.29898 -0.14537,0.14265 -1.00358,-0.0255 -1.09343,-0.20974 -0.33105,-0.6789 0.0776,-2.88941 -0.36416,-3.49083 -0.23503,-0.31996 -1.48103,-1.31135 -1.48886,-0.51243 -0.0146,1.46715 1.86115,4.19757 0.0499,5.08201 -0.18793,0.0919 -0.4517,0.27771 -0.699,0.1926 -3.23552,-1.11363 -0.34695,-4.8862 -2.74433,-4.50999 -2.08361,0.32698 -0.61441,4.60382 -2.52665,3.76207 -0.60424,-0.26598 -3.42786,-4.06359 -3.24234,-4.51474 0.35571,-0.86507 1.51868,-2.52907 1.52695,-3.37308 0.008,-0.86966 -1.13564,-3.44982 -0.85716,-3.99375 0.0311,-0.0608 0.55491,-0.2936 0.69997,-0.29224 1.62496,0.0155 1.6749,1.8559 1.66366,3.00511 -0.004,0.43185 0.49203,0.59543 0.48806,1.00104 -0.009,0.98052 -1.02395,0.5172 -1.40382,0.98296 -0.19524,0.23931 -0.6751,2.50002 -0.12607,2.68901 0.91557,0.31516 1.03488,-1.93527 1.31799,-2.3787 0.30564,-0.47885 0.90105,-0.58818 1.20368,-0.88522 0.25187,-0.24715 -0.0327,-1.54965 0.70396,-0.69074 1.14036,1.32976 0.69216,3.24612 2.2484,4.30597 0.15637,0.10657 1.38389,1.20604 1.58551,0.81227 0.65287,-1.27517 -1.58971,-3.36932 -2.14878,-4.305 -0.44071,-0.73746 -0.50051,-1.74569 -1.07206,-2.40156 -1.15433,-1.325 -3.08855,-3.00568 -4.95168,-2.83726 -2.66766,0.24111 0.47682,5.17096 -0.55361,5.67407 -0.92463,0.45148 -2.56885,-2.09609 -2.56083,-2.91401 0.004,-0.49562 1.94651,-1.53636 1.7105,-1.77714 -1.58014,-1.61174 -2.5527,1.83342 -2.2191,2.86829 0.26194,0.81261 2.17287,3.57387 1.74948,4.40082 -0.15207,0.29698 -1.59763,-1.4588 -1.67724,-1.61029 -0.3047,-0.57956 -0.51748,-1.24826 -0.87872,-1.80188 -0.57463,-0.88082 -1.93337,-1.90357 -0.66872,-2.89591 0.43152,-0.33861 1.46599,-0.17344 1.9955,-0.37943 1.84144,-0.7165 -0.86019,-1.04648 -1.58541,-0.8123 -0.28446,0.0921 -3.29579,0.93565 -3.2912,0.46669 0.006,-0.6077 1.64847,-1.197 1.81208,-1.97541 0.12069,-0.57456 -0.66429,-0.60687 -0.88646,-1.00486 -0.17438,-0.31226 0.72629,-0.82946 0.40812,-0.99248 -0.89405,-0.458 -1.87755,0.0104 -2.69167,0.27317 -0.0909,0.0291 -0.32209,-0.57202 -0.59462,-0.30462 -1.1391,1.11777 3.48641,2.15978 2.84888,4.01276 -0.088,0.25473 -0.83173,0.28348 -0.89925,0.29035 -2.90714,0.29502 -4.75912,-2.41845 -6.9345,-3.75298 -0.87143,-0.53454 -1.73148,-1.23244 -2.67311,-1.61981 -0.20267,-0.0834 -1.60746,-0.4763 -1.48694,-0.7117 0.30235,-0.59036 2.5881,-1.70512 2.31285,-2.26954 -1.57778,-3.23559 -1.76008,1.16415 -2.7033,1.4687 -0.66399,0.21438 -1.96992,0.51764 -2.69556,0.67168 -0.7627,0.16191 -2.81997,-0.0589 -3.37994,-0.63018 -0.3631,-0.37031 0.0468,-0.92095 -0.0878,-1.19648 -0.22589,-0.46316 -1.93013,1.22224 -2.20348,1.2742 -1.18246,0.22483 -2.31652,-0.0752 -3.48342,-0.23261 -0.83953,-0.11324 -1.98181,0.2768 -2.79322,0.47146 -0.56036,0.13448 -1.25897,-0.10471 -1.79049,-0.21642 -2.95412,-0.62055 -0.5772,-2.59867 -1.76127,-3.20526 -0.6596,-0.33792 -0.95923,2.08323 -1.71334,2.076 -0.70812,-0.006 -2.17441,-1.69299 -2.17908,-1.2165 -0.22954,0.38654 -0.62711,-0.0409 -0.89729,0.091 -0.67039,0.32735 -0.28054,1.44866 -0.61599,1.88723 -0.77798,1.01695 -3.40016,1.43417 -3.41508,2.95647 -0.007,0.84101 0.12851,-0.96647 0.71266,-1.5874 0.42809,-0.45507 2.95056,-2.80186 3.12119,-3.45748 0.21735,-0.83497 -0.68424,-1.31144 -0.68044,-1.70035 0.004,-0.45081 0.51744,-1.12145 0.013,-1.29518 -0.56862,-0.1957 -1.32716,0.84275 -2.09705,0.57774 -1.98348,-0.68269 -2.86855,-0.87251 -4.19128,0.85664 -0.14387,0.18812 -0.6176,0.50428 -0.50567,0.79229 0.21545,0.55471 0.91005,1.07798 1.07977,1.60454 0.38724,1.20123 -0.28844,1.903 -0.62585,2.88352 -0.10534,0.30624 0.1245,0.70869 -0.10947,0.99532 -0.59518,0.7298 -1.71177,0.6189 -2.49835,0.87284 -0.95987,0.30991 -1.7434,1.39662 -2.7072,1.86724 -0.68734,0.33563 -0.86135,1.43677 -1.60994,1.67842 -0.81187,0.26214 -3.2517,2.09818 -3.6035,1.85865 -2.03347,-1.38477 1.75575,-2.27195 1.62262,-2.97361 -0.1362,-0.71801 -1.09005,-1.21897 -1.3766,-1.80665 -0.47921,-0.98271 0.43035,-2.61485 0.63164,-3.48129 0.2874,-1.23639 -0.49223,-2.61522 0.83089,-3.4794 1.5288,-0.99859 4.1551,-0.0924 5.77477,0.15487 0.17685,0.0268 1.65846,0.50336 1.79146,0.11677 0.0347,-0.10064 -2.92669,-1.49163 -3.2696,-1.72511 -1.88359,-1.28276 1.11145,-1.62816 1.12176,-2.67952 0.003,-0.26462 -1.01849,0.42709 -1.99943,0.778 -1.68006,0.60099 -3.39503,-0.77977 -4.30053,1.85195 -0.17844,0.5186 1.96852,0.10199 1.48585,0.81133 -1.06899,1.57094 -3.25455,0.92428 -3.39653,1.06353 -0.69534,0.68234 -0.63015,2.63776 -1.72407,3.17191 -0.40051,0.19556 -2.5434,-0.48833 -2.68972,0.074 -0.26007,0.99896 1.46828,1.01543 1.17545,2.004 -0.51891,1.75203 -4.23329,3.39866 -4.8307,5.13496 -1.07839,3.13417 4.83422,-0.0832 2.25426,3.70817 -1.73147,2.54437 -4.51852,5.24148 -7.04005,7.00697 -0.96161,0.67329 -2.08426,0.96399 -2.90345,1.56643 -0.49669,0.36522 -0.085,1.81248 -2.02296,3.16905 -1.54703,1.08316 -3.77057,1.33194 -5.10496,2.64139 -0.27439,0.26922 -1.08314,0.82478 -1.20673,1.18412 -0.1998,0.58049 0.79104,1.86628 0.0763,2.39204 -0.22032,0.162 -1.39863,-0.0352 -1.59332,-0.0154 -1.39864,0.14196 -3.26008,1.14381 -4.68721,0.65263 -0.97461,-0.33544 -1.61146,-1.70696 -0.86888,-2.79819 1.48271,-2.17892 4.38305,-2.41097 6.31265,-3.92513 0.74096,-0.58135 0.63059,-1.13378 1.01445,-1.8834 0.19978,-0.39034 0.87665,-0.53684 1.20282,-0.78562 0.45693,-0.3486 0.4674,-0.92828 0.90792,-1.18695 0.54631,-0.32084 1.16164,0.18619 1.59715,-0.38326 0.51034,-0.66711 -0.46529,-1.92511 -0.0733,-2.69094 0.33212,-0.64868 1.60258,-0.92573 1.60995,-1.67844 0.006,-0.62382 -1.55617,-1.19277 -0.97726,-1.90247 0.31686,-0.38847 0.77283,-0.60552 1.10515,-0.98582 0.57115,-0.65375 1.22894,-1.47979 1.41761,-2.37774 0.0822,-0.39138 0.11533,-1.5945 0.11137,-1.1946 -0.007,0.86306 -0.51983,1.5117 -1.01738,2.1823 -0.97335,1.31205 -2.87616,-0.51187 -3.37114,-1.52685 -0.0618,-0.12791 -0.11185,-0.6173 -0.19224,-0.69929 -0.19079,-0.19455 -0.94174,-0.15906 -1.19402,-0.11098 -1.97848,0.37623 -0.89985,4.11066 -2.22799,3.76493 -1.1328,-0.2949 -1.00278,-1.81091 -1.46827,-2.60465 -0.56846,-0.96914 -3.39787,-1.02888 -4.37181,-1.03819 -0.86824,-0.008 -3.06462,3.01207 -3.90521,2.15467 -0.86285,-0.88011 1.01577,-1.54138 0.92063,-2.48217 -0.039,-0.3883 -0.62791,-0.54134 -0.78883,-0.80466 -0.35926,-0.58774 0.0319,-0.43761 0.20796,-0.89474 0.36464,-0.94461 -0.68836,-1.96797 -0.37002,-2.89304 0.2156,-0.62664 0.99004,-0.77414 1.40588,-1.18221 1.43115,-1.40437 2.45114,-3.51029 1.44884,-5.56589 -0.38647,-0.79251 -2.31302,0.30488 -2.69461,0.57206 -1.83755,1.28656 0.20617,2.83928 -0.43547,3.78208 -0.0712,0.10515 -3.48911,1.99977 -3.90412,2.05506 -1.11975,0.14909 -4.88995,-5.61821 -5.10996,-7.02362 -0.0373,-0.2372 -0.2854,-1.17951 -0.0871,-1.29612 0.22348,-0.13127 2.50886,-0.5848 2.69168,-0.27315 0.24906,0.42468 0.0279,0.98983 0.18552,1.39672 0.0615,0.15919 1.69646,0.2876 1.88907,0.31697 0.25345,0.0386 2.42035,0.73293 2.09413,-0.27885 -0.57059,-1.77031 -3.97589,-1.08572 -5.06299,-1.64266 -1.17314,-0.60099 0.33538,-3.58613 0.83958,-4.37606 0.0754,-0.11756 0.36135,-0.89065 -0.0948,-0.4991 -0.84407,0.72462 -1.89585,2.68697 -2.79907,1.06925 -0.36444,-0.65292 -0.63857,-1.42484 -0.47637,-2.1966 0.16531,-0.78658 0.95433,-1.00123 1.31021,-1.58168 0.4063,-0.66287 0.34869,-1.35619 0.71654,-1.98589 0.2262,-0.38711 1.55649,-0.96599 1.90287,-1.07782 0.50753,-0.16389 0.83145,0.56544 1.29359,0.11199 0.90993,-0.89294 -0.96772,-2.1067 0.52811,-3.08372 0.64968,-0.42433 1.33331,-0.22297 1.89992,-0.77892 0.14445,-0.14172 0.0171,-0.60454 0.3065,-0.79418 0.71263,-0.46545 1.29946,2.00522 1.87259,2.01069 0.90262,0.009 1.93102,-0.96035 2.79994,-1.16886 2.33895,-0.56124 5.21462,-1.04891 5.91245,-3.72967 -0.29643,-1.18775 -1.30604,-1.9984 -1.66267,-3.1046 -0.47147,-1.46262 0.70988,-0.75364 1.60603,-1.27996 0.38935,-0.22866 0.553,-1.75028 0.21969,-2.09028 -1.60694,-1.63916 -2.72072,0.72467 -3.996,1.25705 -0.63623,0.26562 -1.53578,0.65001 -2.1986,0.77606 -1.3,0.2472 -0.87561,-1.14575 -1.97894,-1.31424 -1.07374,-0.16397 -2.08184,0.48967 -3.19049,0.36804 -0.54542,-0.0599 -0.97754,-0.46087 -1.4879,-0.61209 -1.55084,-0.45942 -3.88241,-0.8031 -3.35354,-3.32016 0.10026,-0.47724 0.33986,-0.35975 0.40616,-0.79321 0.088,-0.57561 -0.80343,-0.96387 -0.5829,-1.50015 0.0168,-0.0419 0.40153,-0.31894 0.40228,-0.39469 0.004,-0.45281 -4.66115,-2.23446 -3.55275,-3.32206 0.77546,-0.76102 2.40163,-0.62601 3.39456,-0.86428 1.08165,-0.25955 2.00678,-1.33186 3.10262,-1.56452 0.2777,-0.0591 0.92072,0.14543 1.19498,0.0126 0.44449,-0.21702 0.53757,-1.11953 0.91087,-1.48584 0.29965,-0.294 2.63159,-1.00485 2.69851,-0.97058 2.32663,1.192 -0.36126,2.00314 0.46181,3.69103 0.1149,0.2358 5.10434,1.84775 5.8568,1.94921 1.61131,0.21718 1.30064,-0.98034 1.60593,-1.27996 0.15492,-0.15194 0.39382,0.20802 0.59952,-0.19356 0.23668,-0.46237 -0.28682,-1.96108 0.51834,-2.08741 0.28163,-0.0442 0.77761,0.0888 0.99286,0.30842 0.40313,0.41113 0.45945,1.391 1.07989,1.60453 0.40415,0.13913 0.52414,-0.59147 0.40705,-0.89284 -0.27161,-0.69911 -1.18486,-1.1077 -1.77877,-1.41197 -2.35971,-1.20888 0.004,3.47738 -2.70143,1.26944 -3.30067,-2.69455 0.43429,-3.27889 -0.45402,-4.48805 -0.2329,-0.31708 -2.29431,0.27576 -3.47462,-1.12924 -0.22264,-0.26515 -1.59015,-2.46955 -1.66647,-2.70622 -0.21476,-0.66629 0.0131,-1.33356 -0.37885,-1.99638 -0.75968,-1.29522 -4.34833,-3.43566 -4.33178,-5.12303 0.007,-0.7431 0.51265,-0.99637 1.01044,-1.48489 0.3543,-0.34766 -0.0786,-0.90969 0.11043,-1.09495 0.24746,-0.24283 0.66264,0.20326 0.99287,0.30843 1.37444,0.43755 4.21313,0.83908 5.18221,-0.34898 0.47924,-0.58764 0.52932,-1.45177 0.91673,-2.08367 0.31409,-0.51236 0.83573,-0.82771 1.20767,-1.2837 0.73214,-0.8976 1.75829,-3.40281 2.53057,-4.1606 1.24582,-1.22255 2.92784,0.99962 4.0789,0.4376 1.26381,-0.6171 1.64881,-2.80066 3.10273,-1.56454 0.89196,-0.16988 0.41941,-1.79179 0.71655,-1.98588 0.71552,-0.46737 2.21537,0.59745 2.88696,0.12724 0.48761,-0.34144 0.87768,-0.96695 1.30725,-1.2828 0.16273,-0.1197 0.62018,-0.0602 0.69996,-0.29223 0.16672,-0.48462 0.14066,-1.50076 0.81323,-1.68605 0.59758,-0.16462 0.51461,0.12238 0.79273,0.40613 1.17671,1.20026 0.17559,1.98177 0.66295,3.49367 0.27765,0.86145 1.49483,-1.80681 1.71139,-1.87673 1.17573,-0.37957 1.29612,1.21469 1.87748,1.51253 1.11047,0.56891 1.57358,-0.44811 2.39291,-0.27602 1.00846,0.21186 1.47513,1.706 2.16735,2.41206 0.62262,0.63509 1.49147,0.71346 2.28061,1.01821 0.41595,0.16065 0.17418,0.60267 0.79174,0.50576 1.36343,-0.21392 2.48102,-1.10821 3.79781,-1.35858 1.2008,-0.22834 1.98868,0.81711 2.97766,1.02487 1.6618,0.34911 3.32476,-0.20004 4.97813,0.14726 0.75516,0.15864 1.55942,0.77001 2.28062,1.01823 1.55316,0.53453 3.02705,-0.93269 4.29774,-1.5531 0.76289,-0.37254 1.66487,0.90624 2.27963,1.11783 1.50571,0.51823 2.87434,-0.33992 3.2735,1.32661 z"
       style="font-variation-settings:normal;opacity:1;vector-effect:none;fill:none;fill-opacity:1;stroke:#000000;stroke-width:1.33333333;stroke-linecap:round;stroke-linejoin:round;stroke-miterlimit:4;stroke-dasharray:none;stroke-dashoffset:0;stroke-opacity:1;stop-color:#000000;stop-opacity:1"
       sodipodi:nodetypes="ccssssssssssssssssssssssscssssssssssssssscscssssssssssssssssssssssssssssssscsssscsscscssssscscscssccssssssssssscsssssssscsssssssssssssssssscsssssssssssssssccsssssscssssssscssssssssssssssscsscsssssssscssssscsscssssscssssssscssscssssscssssscscssssssssssscc" />
    <path
       id="path31275"
       d="m 151.15328,788.66794 c -0.97805,-0.3565 -1.77754,-0.39507 -2.59099,0.17449 -0.915,0.64057 0.005,1.33723 -0.41693,1.88911 -0.728,0.9517 -1.90203,0.99319 -1.91457,2.27337 -0.002,0.18693 -0.24873,2.18965 -0.0214,2.19183 0.19361,0.002 -0.22759,-0.31904 -0.29379,-0.501 -0.0673,-0.1843 -0.13496,-1.44615 -0.58485,-1.30086 -0.38883,0.12549 -2.89688,1.74902 -3.00692,1.96398 -0.37942,0.74098 1.72466,3.38099 2.35285,3.80875 1.58043,1.07631 1.13681,-1.60894 1.61376,-2.07694 0.24243,-0.23787 1.16386,0.0318 1.49571,-0.18499 0.44981,-0.29378 0.72748,-0.95012 1.2067,-1.18411 0.66949,-0.32691 2.07575,-0.51245 2.20543,-1.47348 0.22841,-1.69288 -1.67845,-1.4823 -1.6645,-2.90541 0.009,-0.89422 2.32988,-0.18965 2.5988,-0.9715 0.28818,-0.83746 -0.10439,-1.69486 -0.97921,-1.70324 z"
       style="font-variation-settings:normal;opacity:1;vector-effect:none;fill:none;fill-opacity:1;stroke:#000000;stroke-width:1.33333333;stroke-linecap:butt;stroke-linejoin:miter;stroke-miterlimit:4;stroke-dasharray:none;stroke-dashoffset:0;stroke-opacity:1;stop-color:#000000;stop-opacity:1"
       sodipodi:nodetypes="cssssccssssssssc" />
    <path
       id="path31277"
       d="m 95.18245,748.07774 c 0.593465,0.49416 1.293463,1.0541 1.876399,1.61216 1.919576,1.83771 3.739541,1.68094 3.927421,0.80415 0.19811,-0.92429 -1.719675,-1.45134 -2.576059,-2.57207 -1.371281,-1.79455 -2.162488,-1.39998 -2.733817,0.55906 -0.166515,0.57099 -2.404386,0.56613 -2.888794,0.0718 -0.327782,-0.3343 -0.420066,-3.35375 0.72534,-2.88254 0.381193,0.15676 1.32615,1.93988 1.66951,2.40728 z"
       style="font-variation-settings:normal;opacity:1;vector-effect:none;fill:none;fill-opacity:1;stroke:#000000;stroke-width:1.33333333;stroke-linecap:butt;stroke-linejoin:miter;stroke-miterlimit:4;stroke-dasharray:none;stroke-dashoffset:0;stroke-opacity:1;stop-color:#000000;stop-opacity:1"
       sodipodi:nodetypes="csssssssc" />
    <path
       id="path31279"
       d="m 105.90599,771.695 c -1.20385,-0.904 -1.79456,-0.41272 -2.78921,0.0728 -0.33898,0.16552 -2.68117,-0.7991 -2.69266,0.37278 -0.008,0.87866 0.90888,1.16655 1.5787,1.5097 0.52963,0.27135 0.82619,1.05074 1.28287,1.20794 1.14323,0.39346 1.28262,-0.46117 1.70359,-1.07972 0.23049,-0.33873 0.71039,-0.007 0.7976,-0.0919 0.4001,-0.39264 0.28615,-1.6491 0.11921,-1.99163 z"
       style="font-variation-settings:normal;opacity:1;vector-effect:none;fill:none;fill-opacity:1;stroke:#000000;stroke-width:1.33333333;stroke-linecap:round;stroke-linejoin:round;stroke-miterlimit:4;stroke-dasharray:none;stroke-dashoffset:0;stroke-opacity:1;stop-color:#000000;stop-opacity:1"
       sodipodi:nodetypes="cssssscsc" />
    <path
       id="path31281"
       d="m 82.57257,764.49702 c 0.223865,2.08265 3.686447,3.50592 2.470037,2.01642 -0.391872,-0.47984 -0.910765,-0.48653 -1.386364,-0.81039 -0.397578,-0.27079 -0.655778,-0.76963 -1.083673,-1.20603 z"
       style="font-variation-settings:normal;opacity:1;vector-effect:none;fill:none;fill-opacity:1;stroke:#000000;stroke-width:1.33333333;stroke-linecap:round;stroke-linejoin:round;stroke-miterlimit:4;stroke-dasharray:none;stroke-dashoffset:0;stroke-opacity:1;stop-color:#000000;stop-opacity:1"
       sodipodi:nodetypes="cssc" />
    <path
       id="path31283"
       d="m 120.0203,805.00959 c -1.29308,-0.96558 -2.38534,-2.16747 -3.96673,-1.73179 -0.79304,0.21846 -3.89648,2.0849 -4.2107,2.84921 -0.20426,0.49664 -0.12094,1.00284 -0.71082,1.38814 -0.0984,0.0645 -2.50174,0.57602 -2.79505,0.67072 -0.45173,0.14582 -0.84719,-0.007 -1.29458,-0.0129 -1.49539,-0.0144 -2.39916,0.91362 -3.501,1.5607 -0.22143,0.13009 -1.62559,0.55559 -1.10612,1.08545 1.02712,1.04773 2.17631,-0.27813 3.18952,-0.26842 1.07331,0.0104 3.47153,1.03957 4.0878,-0.45905 0.23929,-0.58214 -0.47189,-1.5651 -0.17966,-1.99451 0.56369,-0.8283 1.85514,0.35461 2.28647,0.42045 2.31409,0.35338 2.41776,-1.06816 3.21002,-2.3606 0.81948,-1.33663 2.94676,0.58503 3.98038,0.33699 0.51917,-0.1245 2.2409,-1.78015 1.01047,-1.48489 z"
       style="font-variation-settings:normal;opacity:1;vector-effect:none;fill:none;fill-opacity:1;stroke:#000000;stroke-width:1.33333333;stroke-linecap:round;stroke-linejoin:miter;stroke-miterlimit:4;stroke-dasharray:none;stroke-dashoffset:0;stroke-opacity:1;stop-color:#000000;stop-opacity:1"
       sodipodi:nodetypes="csssssssssscssc" />
    <path
       id="path31285"
       d="m 96.62928,813.85282 c -1.113926,-1.3071 -2.64886,-2.19548 -3.779253,-0.53429 -0.127585,0.18752 0.460381,1.46083 -1.417608,2.37773 -0.790915,0.38621 -1.594747,-1.07613 -2.58026,-0.92149 -0.24149,0.0384 -3.860729,2.40131 -3.315579,2.95745 0.633693,0.64632 1.886631,-1.45657 2.107903,-1.67369 0.840693,-0.82497 3.449298,0.55733 4.577831,0.3427 1.282232,-0.24383 1.368818,-1.13712 2.104864,-1.3748 0.472234,-0.15242 1.130024,-0.0238 1.497673,-0.38418 0.367539,-0.36071 0.21827,-0.64875 0.804429,-0.78943 z"
       style="font-variation-settings:normal;opacity:1;vector-effect:none;fill:none;fill-opacity:1;stroke:#000000;stroke-width:1.33333333;stroke-linecap:round;stroke-linejoin:round;stroke-miterlimit:4;stroke-dasharray:none;stroke-dashoffset:0;stroke-opacity:1;stop-color:#000000;stop-opacity:1"
       sodipodi:nodetypes="csscsssscc" />
    <path
       sodipodi:nodetypes="ccccc"
       inkscape:connector-curvature="0"
       id="path14359-1-7-5-3-0-73-1-9-8-5-14-5-8"
       d="m 61.680505,689.14617 -0.067,135.34509 188.840995,0.041 0.0729,-135.08915 z"
       style="fill:none;fill-opacity:1;stroke:#000000;stroke-width:2.66666667;stroke-linecap:butt;stroke-linejoin:miter;stroke-miterlimit:4;stroke-dasharray:none;stroke-opacity:1" />
    <text
       xml:space="preserve"
       style="font-size:13.3333px;line-height:5.27774px;font-family:Arial;-inkscape-font-specification:Arial;letter-spacing:0.49px"
       x="538.72711"
       y="785.83942"
       id="text6661-6-1"><tspan
         sodipodi:role="line"
         id="tspan6659-4-9"
         x="538.72711"
         y="785.83942">Kilometers</tspan></text>
    <path
       style="fill:none;fill-opacity:1;stroke:#000000;stroke-width:1.33333;stroke-linecap:butt;stroke-linejoin:miter;stroke-miterlimit:4;stroke-dasharray:none;stroke-opacity:1"
       d="m 346.31121,668.07083 -0.017,58.69175 223.10328,0.029 0.006,-58.70815 z"
       id="path14359-1-7-5-3-0-73-1-9-8-5-14-5-8-0"
       inkscape:connector-curvature="0"
       sodipodi:nodetypes="ccccc" />
    <path
       sodipodi:nodetypes="ccccc"
       inkscape:connector-curvature="0"
       id="path14359-1-7-5-3-0-73-1-9-8-5-14-8-9"
       d="M 46.342237,12.766043 V 839.85676 H 661.31025 V 12.766043 Z"
       style="fill:none;fill-opacity:1;stroke:#000000;stroke-width:2.66667;stroke-linecap:round;stroke-linejoin:miter;stroke-miterlimit:4;stroke-dasharray:none;stroke-opacity:1" />
    <path
       sodipodi:nodetypes="ccccc"
       inkscape:connector-curvature="0"
       id="path14359-1-7-5-3-0-73-1-9-8-5-14-8-1-8"
       d="m 316.2474,754.91217 -0.002,10.34896 h 272.5962 l 0.002,-10.34896 z"
       style="fill:none;fill-opacity:1;stroke:#000000;stroke-width:1.33333333;stroke-linecap:butt;stroke-linejoin:miter;stroke-miterlimit:4;stroke-dasharray:none;stroke-opacity:1" />
    <path
       sodipodi:nodetypes="ccccc"
       inkscape:connector-curvature="0"
       id="path14359-1-7-5-3-0-73-1-9-8-5-14-8-2-5-2-0"
       d="m 316.2474,754.91217 -0.002,5.33821 h 45.53517 l 0.002,-5.33821 z"
       style="fill:#000000;fill-opacity:1;stroke:#000000;stroke-width:1.33333333;stroke-linecap:butt;stroke-linejoin:miter;stroke-miterlimit:4;stroke-dasharray:none;stroke-opacity:1" />
    <path
       sodipodi:nodetypes="ccccc"
       inkscape:connector-curvature="0"
       id="path14359-1-7-5-3-0-73-1-9-8-5-14-8-2-59-1-7"
       d="m 76.69614,741.99122 v 31.01228 h 28.3435 v -31.01228 z"
       style="fill:none;fill-opacity:1;stroke:#000000;stroke-width:2.66667;stroke-linecap:butt;stroke-linejoin:miter;stroke-miterlimit:4;stroke-dasharray:none;stroke-opacity:1" />
    <path
       style="fill:#000000;fill-opacity:1;stroke:#000000;stroke-width:1.33333333;stroke-linecap:butt;stroke-linejoin:miter;stroke-miterlimit:4;stroke-dasharray:none;stroke-opacity:1"
       d="m 361.7809,760.25038 -0.002,4.75914 h 45.74734 l 0.002,-4.75914 z"
       id="path14359-1-7-5-3-0-73-1-9-8-5-14-8-2-5-2-0-8"
       inkscape:connector-curvature="0"
       sodipodi:nodetypes="ccccc" />
    <path
       style="fill:#000000;fill-opacity:1;stroke:#000000;stroke-width:1.33333333;stroke-linecap:butt;stroke-linejoin:miter;stroke-miterlimit:4;stroke-dasharray:none;stroke-opacity:1"
       d="m 407.52995,754.91217 -10e-4,5.33821 h 91.29361 l 0.002,-5.33821 z"
       id="path14359-1-7-5-3-0-73-1-9-8-5-14-8-2-5-2-0-5"
       inkscape:connector-curvature="0"
       sodipodi:nodetypes="ccccc" />
    <path
       sodipodi:nodetypes="cc"
       inkscape:connector-curvature="0"
       id="path14359-1-7-5-3-0-73-1-9-8-5-14-5-6"
       d="M 46.521837,103.27774 H 660.68866"
       style="fill:none;fill-opacity:1;stroke:#000000;stroke-width:2.66667;stroke-linecap:butt;stroke-linejoin:round;stroke-miterlimit:4;stroke-dasharray:none;stroke-opacity:1" />
    <path
       style="fill:#9c9c9c;fill-opacity:1;stroke:#000000;stroke-width:1.33333;stroke-linecap:butt;stroke-linejoin:miter;stroke-miterlimit:4;stroke-dasharray:none;stroke-opacity:1"
       d="m 359.32564,692.15053 -0.017,15.2777 29.38189,0.029 0.01,-15.2942 z"
       id="path14359-1-7-5-3-0-73-1-9-8-5-14-5-8-0-7-6"
       inkscape:connector-curvature="0"
       sodipodi:nodetypes="ccccc" />
    <path
       sodipodi:nodetypes="ccccc"
       inkscape:connector-curvature="0"
       id="path14359-1-7-5-3-0-73-1-9-8-5-14-5-8-0-7"
       d="m 359.33164,707.46973 -0.017,-15.2777 29.38189,-0.029 0.01,15.2942 z"
       style="fill:none;fill-opacity:1;stroke:#000000;stroke-width:2.66667;stroke-linecap:butt;stroke-linejoin:miter;stroke-miterlimit:4;stroke-dasharray:none;stroke-opacity:1" />
    <text
       id="text6661-6-1-4"
       y="750.16559"
       x="606.94855"
       style="font-size:13.3333px;line-height:5.54168px;font-family:Arial;-inkscape-font-specification:Arial;letter-spacing:0.49px"
       xml:space="preserve"><tspan
         y="750.16559"
         x="606.94855"
         id="tspan6659-4-9-8"
         sodipodi:role="line">Miles</tspan></text>
    <text
       xml:space="preserve"
       style="font-size:13.3333px;line-height:7.20418px;font-family:Arial;-inkscape-font-specification:Arial;letter-spacing:0.49px"
       x="581.35065"
       y="750.02606"
       id="text6661-6-1-4-9"><tspan
         sodipodi:role="line"
         id="tspan6659-4-9-8-3"
         x="581.35065"
         y="750.02606">80</tspan></text>
    <text
       id="text6661-6-1-4-9-0"
       y="786.24713"
       x="512.83411"
       style="font-size:13.3333px;line-height:7.20418px;font-family:Arial;-inkscape-font-specification:Arial;letter-spacing:0.49px"
       xml:space="preserve"><tspan
         y="786.24713"
         x="512.83411"
         id="tspan6659-4-9-8-3-4"
         sodipodi:role="line">80</tspan></text>
    <text
       id="text6661-6-1-4-9-9"
       y="786.17181"
       x="403.29672"
       style="font-size:13.3333px;line-height:7.20418px;font-family:Arial;-inkscape-font-specification:Arial;letter-spacing:0.49px"
       xml:space="preserve"><tspan
         y="786.17181"
         x="403.29672"
         id="tspan6659-4-9-8-3-0"
         sodipodi:role="line">0</tspan></text>
    <text
       id="text6661-6-1-4-9-00"
       y="750.06158"
       x="402.89832"
       style="font-size:13.3333px;line-height:7.20418px;font-family:Arial;-inkscape-font-specification:Arial;letter-spacing:0.49px"
       xml:space="preserve"><tspan
         y="750.06158"
         x="402.89832"
         id="tspan6659-4-9-8-3-3"
         sodipodi:role="line">0</tspan></text>
    <text
       id="text6661-6-1-4-9-8"
       y="785.95386"
       x="455.84738"
       style="font-size:13.3333px;line-height:7.20418px;font-family:Arial;-inkscape-font-specification:Arial;letter-spacing:0.49px"
       xml:space="preserve"><tspan
         y="785.95386"
         x="455.84738"
         id="tspan6659-4-9-8-3-35"
         sodipodi:role="line">40</tspan></text>
    <text
       id="text6661-6-1-4-9-006"
       y="750.19928"
       x="490.03983"
       style="font-size:13.3333px;line-height:7.20418px;font-family:Arial;-inkscape-font-specification:Arial;letter-spacing:0.49px"
       xml:space="preserve"><tspan
         y="750.19928"
         x="490.03983"
         id="tspan6659-4-9-8-3-7"
         sodipodi:role="line">40</tspan></text>
    <text
       xml:space="preserve"
       style="font-style:normal;font-variant:normal;font-weight:normal;font-stretch:normal;font-size:24px;line-height:9.49994000000000050px;font-family:Arial;-inkscape-font-specification:Arial;letter-spacing:0.2px;fill:#000000;fill-opacity:1"
       id="text14273-08-9"
       x="397.01132"
       y="704.73206"><tspan
         style="font-style:normal;font-variant:normal;font-weight:normal;font-stretch:normal;font-family:Arial;-inkscape-font-specification:Arial;fill:#000000;fill-opacity:1;font-size:24px;"
         id="tspan14271-0-5">Critical Habitat</tspan></text>
    <text
       y="49.376637"
       x="352.14978"
       id="text14273-08-9-5"
       style="font-style:normal;font-variant:normal;font-weight:normal;font-stretch:normal;font-size:32px;line-height:37.8933px;font-family:Arial;-inkscape-font-specification:Arial;text-align:center;letter-spacing:0.25px;text-anchor:middle;fill:#000000;fill-opacity:1"
       xml:space="preserve"><tspan
         y="49.376637"
         x="352.14978"
         id="tspan58265"
         sodipodi:role="line"><tspan
           id="tspan14271-0-5-9"
           style="font-style:normal;font-variant:normal;font-weight:normal;font-stretch:normal;font-size:32px;font-family:Arial;-inkscape-font-specification:Arial;text-align:center;text-anchor:middle;fill:#000000;fill-opacity:1">Spectacled Eider Critical Habitat</tspan></tspan><tspan
         y="87.269974"
         x="352.27478"
         id="tspan58267"
         sodipodi:role="line">Unit 5: Wintering Area</tspan></text>
    <text
       xml:space="preserve"
       style="font-size:13.3333px;line-height:7.20418px;font-family:Arial;-inkscape-font-specification:Arial;letter-spacing:0.49px"
       x="307.86844"
       y="749.74103"
       id="text6661-6-1-4-9-8-6"><tspan
         sodipodi:role="line"
         id="tspan6659-4-9-8-3-35-8"
         x="307.86844"
         y="749.74103">40</tspan></text>
    <text
       xml:space="preserve"
       style="font-size:13.3333px;line-height:7.20418px;font-family:Arial;-inkscape-font-specification:Arial;letter-spacing:0.49px"
       x="342.34058"
       y="786.60583"
       id="text6661-6-1-4-9-8-8"><tspan
         sodipodi:role="line"
         id="tspan6659-4-9-8-3-35-9"
         x="342.34058"
         y="786.60583">40</tspan></text>
    <path
       sodipodi:nodetypes="ccccc"
       inkscape:connector-curvature="0"
       id="path14359-1-7-5-3-0-73-1-9-8-5-14-8-2-5-2-0-8-2"
       d="m 498.82205,760.25038 -10e-4,4.95068 h 89.95139 l 0.001,-4.95068 z"
       style="fill:#000000;fill-opacity:1;stroke:#000000;stroke-width:1.33333333;stroke-linecap:butt;stroke-linejoin:miter;stroke-miterlimit:4;stroke-dasharray:none;stroke-opacity:1" />
    <path
       style="fill:none;fill-opacity:1;stroke:#000000;stroke-width:1.33333333;stroke-linecap:butt;stroke-linejoin:miter;stroke-miterlimit:4;stroke-dasharray:none;stroke-opacity:1"
       d="m 350.89469,791.41132 -0.001,10.14736 h 169.69546 l 10e-4,-10.14736 z"
       id="path14359-1-7-5-3-0-73-1-9-8-5-14-8-1-8-38"
       inkscape:connector-curvature="0"
       sodipodi:nodetypes="ccccc" />
    <path
       style="fill:#000000;fill-opacity:1;stroke:#000000;stroke-width:1.33333333;stroke-linecap:butt;stroke-linejoin:miter;stroke-miterlimit:4;stroke-dasharray:none;stroke-opacity:1"
       d="m 350.89469,791.41132 -0.001,5.23429 h 28.17246 l 0.001,-5.23429 z"
       id="path14359-1-7-5-3-0-73-1-9-8-5-14-8-2-5-2-0-3"
       inkscape:connector-curvature="0"
       sodipodi:nodetypes="ccccc" />
    <path
       sodipodi:nodetypes="ccccc"
       inkscape:connector-curvature="0"
       id="path14359-1-7-5-3-0-73-1-9-8-5-14-8-2-5-2-0-8-5"
       d="m 379.06614,796.64561 -8.4e-4,4.66629 h 28.28196 l 8.5e-4,-4.66629 z"
       style="fill:#000000;fill-opacity:1;stroke:#000000;stroke-width:1.33333333;stroke-linecap:butt;stroke-linejoin:miter;stroke-miterlimit:4;stroke-dasharray:none;stroke-opacity:1" />
    <path
       sodipodi:nodetypes="ccccc"
       inkscape:connector-curvature="0"
       id="path14359-1-7-5-3-0-73-1-9-8-5-14-8-2-5-2-0-5-1"
       d="m 407.34912,791.41132 -0.001,5.23429 h 56.86685 l 0.001,-5.23429 z"
       style="fill:#000000;fill-opacity:1;stroke:#000000;stroke-width:1.33333333;stroke-linecap:butt;stroke-linejoin:miter;stroke-miterlimit:4;stroke-dasharray:none;stroke-opacity:1" />
    <path
       style="fill:#000000;fill-opacity:1;stroke:#000000;stroke-width:1.33333333;stroke-linecap:butt;stroke-linejoin:miter;stroke-miterlimit:4;stroke-dasharray:none;stroke-opacity:1"
       d="m 464.21496,796.64561 -8.4e-4,4.85414 h 56.3318 l 10e-4,-4.85414 z"
       id="path14359-1-7-5-3-0-73-1-9-8-5-14-8-2-5-2-0-8-2-5"
       inkscape:connector-curvature="0"
       sodipodi:nodetypes="ccccc" />
    <text
       xml:space="preserve"
       style="font-size:18.66669999999999874px;line-height:7.75835000000000008px;font-family:Arial;-inkscape-font-specification:Arial;letter-spacing:0px"
       x="171.72789"
       y="611.13385"
       id="text59770-1-9"><tspan
         sodipodi:role="line"
         id="tspan59768-6-1"
         x="171.72789"
         y="611.13385">St. Michael Island</tspan></text>
    <text
       id="text59770-1-9-8"
       y="240.90276"
       x="81.033424"
       style="font-size:18.6667px;line-height:7.75835px;font-family:Arial;-inkscape-font-specification:Arial;letter-spacing:0px"
       xml:space="preserve"
       transform="rotate(-27.283209)"><tspan
         y="240.90276"
         x="81.033424"
         id="tspan59768-6-1-3"
         sodipodi:role="line">Russia</tspan></text>
    <text
       id="text59770-1-9-9"
       y="266.71838"
       x="54.450329"
       style="font-size:18.6667px;line-height:7.75835px;font-family:Arial;-inkscape-font-specification:Arial;letter-spacing:0px"
       xml:space="preserve"
       transform="rotate(-28.04677)"><tspan
         y="266.71838"
         x="54.450329"
         id="tspan59768-6-1-33"
         sodipodi:role="line">United States</tspan></text>
    <path
       style="font-variation-settings:normal;opacity:1;vector-effect:none;fill:none;fill-opacity:1;stroke:#000000;stroke-width:1.33333333;stroke-linecap:round;stroke-linejoin:round;stroke-miterlimit:4;stroke-dasharray:none;stroke-dashoffset:0;stroke-opacity:1;stop-color:#000000;stop-opacity:1"
       d="m 157.43057,566.53108 c -0.28676,0 -0.57843,-0.0528 -0.86028,0 -0.0246,0.005 -4.58179,3.89132 -4.6142,3.98855 -0.10004,0.3001 -0.0761,1.02519 0,1.32952 0.0573,0.22929 0.33752,0.27167 0.46924,0.46924 0.23465,0.35199 0.11921,0.67047 0.23462,1.01669 0.12066,0.362 0.76041,0.12636 0.86027,0.62566 0.12201,0.61003 -0.1992,1.19379 -0.0782,1.79876 0.0232,0.11584 1.47349,2.84833 1.56414,2.89365 0.24778,0.12389 1.13308,-1.24947 1.25131,-1.48593 0.28799,-0.57598 -0.46924,-1.69908 -0.46924,-2.268 0,-0.56349 1.21639,-2.82382 1.48593,-3.3629 0.23059,-0.46118 -0.63712,-0.9041 -0.46924,-1.40772 0.40125,-1.20377 1.98495,-1.8174 1.1731,-3.44111 -0.16431,-0.32861 -0.24662,-0.30683 -0.54745,-0.15641 z"
       id="path62068" />
    <path
       style="font-variation-settings:normal;opacity:1;vector-effect:none;fill:none;fill-opacity:1;stroke:#000000;stroke-width:1.33333333;stroke-linecap:round;stroke-linejoin:round;stroke-miterlimit:4;stroke-dasharray:none;stroke-dashoffset:0;stroke-opacity:1;stop-color:#000000;stop-opacity:1"
       d="m 150.86119,573.49149 c 0,0.20856 0,0.41711 0,0.62566"
       id="path62070" />
    <path
       style="font-variation-settings:normal;opacity:1;vector-effect:none;fill:none;fill-opacity:1;stroke:#000000;stroke-width:1.33333333;stroke-linecap:round;stroke-linejoin:round;stroke-miterlimit:4;stroke-dasharray:none;stroke-dashoffset:0;stroke-opacity:1;stop-color:#000000;stop-opacity:1"
       d="m 151.56505,575.29025 c 0.13035,0.18249 0.26069,0.36497 0.39104,0.54745"
       id="path62072" />
    <path
       style="font-variation-settings:normal;opacity:1;vector-effect:none;fill:none;fill-opacity:1;stroke:#000000;stroke-width:1.33333;stroke-linecap:round;stroke-linejoin:round;stroke-miterlimit:4;stroke-dasharray:none;stroke-dashoffset:0;stroke-opacity:1;stop-color:#000000;stop-opacity:1"
       d="m 164.07816,583.81481 c -0.43507,-0.31491 -1.96844,-1.45544 -2.81545,-1.1731 -0.64052,0.2135 -0.43856,1.09144 -0.86027,1.40772 -0.4661,0.34957 -0.79332,0.82961 -1.25132,1.17311 -0.81462,0.61097 -2.50971,0.72159 -2.81545,1.48593 -0.0424,0.106 0.051,0.28908 0,0.39103 -0.035,0.0699 -0.15747,0.0129 -0.23462,0 -0.94357,-0.15726 -2.46095,-0.14423 -3.3629,0.15642 -0.7241,0.24137 -0.0365,1.73628 -0.23462,2.03338 -0.35002,0.52503 -1.30154,-0.2626 -1.64234,0.0782 -0.61735,0.61735 0.70037,0.79602 0.54745,1.40773 -0.0906,0.36223 -0.55094,0.48668 -0.62566,0.86028 -0.0816,0.408 -0.0795,0.94057 -0.31283,1.32951 -0.13865,0.2311 -0.62565,0.47689 -0.62565,0.78207 0,0.37531 0.4895,1.13259 0.31283,1.48593 -0.19378,0.38755 -2.35061,0.22582 -1.56414,1.79876 0.5032,1.00641 1.66485,-0.0557 2.268,0.54745 0.80281,0.80281 1.22499,2.67979 2.34621,3.12828 0.50436,0.20175 1.10495,-0.29076 1.64234,-0.15641 0.59085,0.14771 2.25156,1.96762 2.42442,2.65903 0.0804,0.32174 -0.23462,0.67361 -0.23462,0.93849 0,0.12071 0.54508,0.4645 0.62565,0.62565 0.1386,0.27719 0.15654,0.70437 0.23462,1.01669 0.10205,0.4082 -0.51251,0.7654 -0.39103,1.25131 0.12276,0.49103 1.33262,0.39621 1.56414,0.78207 0.27295,0.45492 0.026,1.06873 0.23462,1.48593 0.26623,0.53247 0.98815,0.34822 1.32952,0.86028 0.56992,0.85489 0.42716,2.26324 1.01669,3.20648 0.8094,1.29505 1.78946,2.60599 2.65903,3.91035 0.13957,0.20936 0.62543,0.23418 0.78207,0.54745 0.27889,0.55779 0.15922,1.49717 0.31283,2.11159 0.0723,0.28929 0.3583,0.50472 0.46924,0.78207 0.56078,1.40194 0.62431,2.73589 1.72055,3.83214 0.4803,0.38188 0.94793,0.77078 1.40773,1.1731 1.1776,1.0304 2.51224,2.1289 3.28469,3.51931 0.62597,1.12675 1.8016,4.03662 3.05007,4.53601 0.3198,0.12791 0.69208,-0.13231 1.01669,-0.0782 2.00832,0.33472 3.94816,-0.0681 5.86552,-0.54745 1.02254,-0.25563 4.1181,0.98706 5.23987,1.40773 1.19402,0.44776 2.45729,-0.009 3.67572,0.23462 0.78208,0.15641 5.28424,3.00495 5.78732,3.67572 0.69414,0.92553 -0.29531,1.34576 -0.39104,2.11159 -0.0672,0.53789 0.0782,1.05456 0.0782,1.56414 0,1.34613 2.81953,2.15769 3.83214,1.95517 0.66342,-0.13268 2.65422,-1.04856 3.05007,-1.64234 0.36698,-0.55048 -0.21308,-0.94528 -0.46924,-1.32952 -0.28213,-0.42319 -0.77724,-0.38621 -1.0949,-0.70386 -1.49302,-1.49302 -2.86052,-3.65055 -3.67573,-5.5527 -0.53275,-1.2431 -1.94895,-1.86453 -2.58082,-3.12827 -1.05389,-2.10778 -1.38756,-5.36097 -4.30139,-5.94373 -0.38292,-0.0766 -0.73216,0.51542 -1.1731,0.62565 -0.57504,0.14376 -1.74809,0.11963 -2.34621,0 -3.38583,-0.67716 -6.23872,-2.11653 -9.22842,-3.91034 -1.6523,-0.99139 -0.59089,-2.04858 -1.32952,-2.97187 -0.59509,-0.74386 -1.66011,-1.26908 -2.3462,-1.95517 -0.53407,-0.53407 -0.83757,-1.28663 -1.32952,-1.87697 -1.39015,-1.66817 -3.44645,-3.52466 -4.77063,-4.84883 -1.29586,-0.72116 -0.75919,-3.17791 -1.40771,-3.98856 -0.30987,-0.38734 -0.84857,-0.62725 -1.1731,-1.01669 -1.30876,-1.57051 -3.09664,-3.41942 -3.91035,-5.31807 -0.16131,-0.3764 0.0443,-1.16519 0,-1.56414 -0.0259,-0.23298 -0.34383,-0.57702 -0.39104,-0.86028 -0.13241,-0.79448 0.34014,-1.60761 0.23462,-2.34621 -0.10664,-0.74648 -0.0865,-1.60574 -0.23462,-2.34621 -0.14956,-0.74779 -0.86027,-1.12371 -0.86027,-1.95517 0,-0.46181 0.19067,-2.63267 0.62565,-2.89366 0.45557,-0.27333 1.40486,-0.30137 1.56414,-0.93848 0.31835,-1.27338 0.19055,-2.64909 0.78207,-3.83214 z"
       id="path62074" />
    <path
       style="font-variation-settings:normal;opacity:1;vector-effect:none;fill:none;fill-opacity:1;stroke:#000000;stroke-width:1.33333333;stroke-linecap:round;stroke-linejoin:round;stroke-miterlimit:4;stroke-dasharray:none;stroke-dashoffset:0;stroke-opacity:1;stop-color:#000000;stop-opacity:1"
       d="m 159.69857,646.06754 c -0.8144,0.17229 -0.84672,0.68353 -1.1731,1.1731 -0.10622,0.15932 -1.72698,1.08847 -1.40773,1.40772 0.14673,0.14674 1.16252,-0.82851 1.17311,-0.86027 0.0644,-0.19335 -0.0915,-0.5209 0,-0.70386 0.32568,-0.65137 1.61723,-0.17868 1.40772,-1.01669 z"
       id="path62076" />
    <path
       style="font-variation-settings:normal;opacity:1;vector-effect:none;fill:none;fill-opacity:1;stroke:#000000;stroke-width:1.33333333;stroke-linecap:round;stroke-linejoin:round;stroke-miterlimit:4;stroke-dasharray:none;stroke-dashoffset:0;stroke-opacity:1;stop-color:#000000;stop-opacity:1"
       d="m 155.63181,647.16243 c -0.47601,-0.25649 -0.52741,-0.15835 -0.62565,0.23462"
       id="path62078" />
    <path
       style="font-variation-settings:normal;opacity:1;vector-effect:none;fill:none;fill-opacity:1;stroke:#000000;stroke-width:1.33333;stroke-linecap:round;stroke-linejoin:round;stroke-miterlimit:4;stroke-dasharray:none;stroke-dashoffset:0;stroke-opacity:1;stop-color:#000000;stop-opacity:1"
       d="m 389.308,128.92668 c -1.70606,0.82624 -3.16295,-1.14392 -4.6163,-0.65948 -0.2624,0.0875 -0.10991,1.26699 -0.10991,1.53877 0,0.90156 -0.43965,1.81169 -0.43965,2.7478 0,1.72831 -0.45978,4.48164 -1.42885,5.93524 -0.15887,0.23831 -0.51212,0.24318 -0.65947,0.43965 -0.89452,1.19269 -1.4136,2.70203 -1.86851,4.06674 -0.60095,1.80287 0.39305,3.97177 -0.76938,5.71542 -0.77732,1.16598 -2.53767,1.15892 -3.737,1.75859 -0.10996,0.055 -1.42022,3.72405 -1.86851,4.39648 -0.78336,1.17504 -2.383,0.63767 -3.18744,1.97841 -0.7961,1.32683 -1.98483,4.00171 -2.19824,5.4956 -0.17432,1.22022 -0.0337,2.5527 -0.32974,3.737 -0.27942,1.1177 -2.43576,1.62729 -2.63788,2.63789 -0.15213,0.76062 -0.18133,3.48982 0,4.39648 0.15134,0.75671 1.18119,0.63307 0.87929,1.53876 -0.225,0.675 -0.97396,1.16329 -1.20903,1.86851 -0.55723,1.67168 -0.21753,4.73309 0.32974,6.37489 0.23406,0.70218 0.78699,1.27065 0.9892,1.97841 0.37868,1.32538 0.26484,4.13426 1.09912,5.38568 0.45786,0.68678 1.36251,0.79636 1.86851,1.42886 1.78987,2.23734 -0.10177,1.25788 3.29735,3.29736 1.01673,0.61003 1.22381,2.22941 2.41807,2.52797 0.77203,0.19301 1.42974,-0.73245 2.30815,-0.43965 0.80411,0.26804 0.11986,2.66774 0.32973,3.29736 0.35052,1.05157 1.9733,0.21471 2.41806,0.65947 0.66413,0.66413 1.30137,1.6736 2.08833,2.19824 0.57437,0.38291 1.40483,0.52553 1.8685,0.98921 0.15178,0.15178 -0.16113,0.52395 0.10991,0.65947 0.28492,0.14246 0.78671,-0.0781 1.09912,0 2.43863,0.60966 3.15239,-1.53176 5.38569,-1.97842 0.32499,-0.065 1.90503,-0.51303 2.19824,-0.21982 0.19491,0.19492 0.16261,0.74303 0.76938,0.43965 0.64449,-0.32225 1.01865,-1.54613 1.8685,-1.75859 0.56077,-0.14019 0.98152,-0.36381 1.53877,-0.54956 0.35104,-0.11701 0.81339,0.83528 1.31894,0.32973 0.20101,-0.201 0,-1.82457 0,-2.08832 0,-2.33659 1.68265,-2.41806 3.62709,-2.41806 1.41077,-1.10368 2.66166,0 4.06675,0 1.88778,0 2.92176,-1.08384 4.6163,-1.64868 1.25507,-0.41836 2.66229,-0.32197 3.95683,-0.43965 0.57014,-0.0518 4.69757,0.12208 5.05594,0.21982 1.41553,0.38606 3.04899,1.03061 4.6163,0.76939 1.12242,-0.18707 2.74019,-2.0905 2.7478,-2.08833 0.36252,0.10358 0.48653,0.71766 0.76938,0.8793 1.19031,0.68017 3.34655,-1.64577 3.73701,-1.09912 1.01384,1.41938 -0.33915,1.91564 0,3.18744 0.22018,0.82567 1.04872,1.38757 1.31894,2.19824 0.11644,0.34931 -0.16198,0.73462 -0.10991,1.09912 0.29224,2.0457 3.02241,1.9184 4.39648,2.41806 0.81867,0.2977 3.1672,1.88345 3.737,1.97842 1.42809,0.23801 0.52467,-1.33656 1.09912,-2.19824 0.75773,-1.1366 3.67738,-3.85803 3.95683,-4.83613 0.18063,-0.6322 -0.51811,-1.21432 -0.10991,-1.75859 0.31418,-0.4189 0.39853,-0.15894 0.76938,0 0.81383,0.34879 0.76222,0.68417 1.20903,1.42886 0.24884,0.41473 0.85973,-0.005 1.09912,0.32973 0.79229,1.1092 1.40113,1.93103 2.30815,2.96763 0.11802,0.13487 2.19824,0.99417 2.19824,0.65947 0,-0.0815 -1.04191,0.12633 -1.75859,-0.32974 -0.82409,-0.52442 -0.93815,-2.37207 -1.8685,-2.63789 -0.56146,-0.16041 -1.28811,0.83976 -1.42886,0.76939 -0.72463,-0.36232 -0.77664,-2.44736 -1.09912,-2.52798 -0.72357,-0.18089 -3.59184,4.17916 -3.95683,4.83613 -0.5383,0.96894 -0.39654,2.24566 -0.65947,3.29736 -0.13969,0.55875 -0.73747,0.53894 -0.65947,1.31894 0.0505,0.50531 0.74156,1.75129 1.09912,2.19824 0.75499,0.94373 3.8537,-0.0226 4.17665,-1.09912 0.13251,-0.44168 -0.20399,-6.43761 1.20903,-5.4956 0.63047,0.42031 0.61982,1.28468 0.8793,1.8685 -0.0942,0.44535 0.44465,0.22983 0.54956,0.43965 0.83339,1.66679 -1.74376,2.4599 -1.8685,3.95683 -0.049,0.58768 0.39196,1.12334 0.54956,1.64868 0.15063,0.50212 -0.0456,1.20629 0.21982,1.64868 1.21417,2.02361 3.70226,2.39406 5.16586,4.06674 1.38257,1.58008 1.95272,4.37079 3.73701,6.15507 0.53112,0.53112 1.3143,0.62409 1.8685,1.09912 1.10478,0.94695 -0.0709,3.55618 1.09912,4.72621 0.52456,0.52456 0.8047,0.28361 1.42885,0.43965 0.53361,0.1334 0.75561,0.94993 1.20903,1.20903 0.90877,0.51929 2.22278,0.58636 2.85771,1.53876 0.85201,1.27801 0.97674,3.85185 0.54956,5.27578 -0.1633,0.54435 -0.51304,0.95452 -0.54956,1.53876 -0.0395,0.63211 0.16534,1.64683 0,2.30815 -0.17258,0.69034 -1.5623,1.24036 -1.64868,1.75859 -0.10734,0.64408 0.73585,0.97993 0.54956,1.53877 -0.0756,0.2268 -0.75589,-0.14693 -0.87929,-0.10991 -0.11156,0.0335 -0.9136,0.74698 -0.98921,0.87929 -0.28271,0.49475 0.85917,1.9134 1.20903,2.08833 2.18075,2.49443 5.44782,1.58308 8.35331,1.31894 0.30088,-0.0273 0.58021,-0.26255 0.87929,-0.21982 0.64799,0.0926 -0.21982,1.1566 -0.21982,1.64868 0,1.05633 1.24007,0.84741 1.75859,1.53876 0.97585,1.30114 0.63813,3.68996 1.64868,4.61631 2.57018,2.356 6.10624,2.0517 8.79295,4.06674 0.25451,0.19088 0.54659,0.87334 0.65947,1.09912 1.11472,2.22943 -1.00575,1.84644 -0.32973,2.74779 0.71629,0.95506 2.42615,-0.003 3.62709,1.64868 0.88307,1.21422 0.49935,2.91741 1.64868,4.06674 0.70133,0.70134 3.29021,-0.33688 3.95683,0.32974 0.23884,0.23884 -0.65657,0.16112 -0.98921,0.21982 -0.71583,0.12633 -1.90373,0.39484 -2.52797,0.76939 -0.6407,0.38441 -0.55995,1.92645 -0.43965,2.52797 0.40819,2.04096 2.74571,1.51996 3.07753,4.50639 0.0585,0.52651 0.35092,1.34413 0.21983,1.8685 -0.742,2.96799 -4.12151,1.45211 -4.94604,2.7478 -0.65334,1.02668 0.14997,1.69801 0,2.7478 -0.0416,0.29127 -0.15076,1.49953 -0.32973,1.64868 -0.38788,0.32322 -0.73923,0.0291 -0.8793,0.65947 -0.1371,0.61694 0.29694,0.56817 0.54956,0.9892 0.17882,0.29804 0.13694,0.70001 0.32974,0.98921 0.60713,0.91071 1.78433,0.68522 2.41806,1.31894 1.10156,1.10157 1.62844,3.53213 3.51718,3.84692 1.31216,0.2187 2.08667,-2.72755 2.85771,-3.62709 0.86298,-1.00681 2.63923,-1.97842 3.95683,-1.97842 0.2253,0 2.06435,0.47961 2.08832,0.43965 1.06189,-1.76981 -0.40756,-5.0785 -0.54956,-6.92445 -0.0746,-0.97027 0.40967,-1.70525 0.54956,-2.63789 0.16399,-1.09325 -0.0935,-1.66737 0.65948,-2.52797 1.13378,-1.29575 5.72244,-4.0153 7.36409,-4.83612 0.62599,-0.313 1.23516,0.21236 1.97842,0 1.73328,-0.49523 3.55414,-1.57573 4.83612,-2.85771 0.10044,-1.50662 0.36775,-1.32886 -0.21982,-2.30815 -0.4213,-0.70217 -0.65223,-0.77002 -0.76938,-1.64868 -0.72688,-5.45156 -0.29256,1.37551 2.74779,1.09912 0.92185,-0.0838 0.80285,-0.57124 1.53877,-1.20903 0.77318,-0.6701 2.02107,-0.70213 2.7478,-1.42886 0.3931,-0.3931 0.56418,-1.75859 1.31894,-1.75859 1.01941,0 1.7794,0.59931 2.85771,0.32974 2.75133,-0.68784 1.9089,-1.09912 5.27577,-1.09912 0.40962,0 0.80192,-0.26506 1.20903,-0.21983 1.75665,0.19519 0.81685,2.13288 2.52798,2.41807 2.04306,0.34051 3.8921,-0.96123 5.93524,-0.10992 0.48795,0.20332 7.46427,6.38519 8.46322,7.58393 0.76126,0.91351 0.83183,2.13203 1.8685,2.85771 0.7081,0.49566 2.47424,1.36241 3.40727,0.9892 2.06943,-0.82777 7.91366,-4.62946 7.91366,-7.25418 0,-0.19118 -1.06998,0.81608 -2.41806,1.42885 -1.2286,0.55845 -2.66905,0.78638 -3.84692,1.42886 -0.78118,0.4261 -1.04852,1.46274 -1.75859,1.8685 -1.05128,0.60073 -5.71137,-0.33379 -5.05595,-0.98921 0.13951,-0.13951 0.36351,0.15416 0.54956,0.21982 1.36644,0.48228 3.57986,1.14 5.05595,0.54956 2.29121,-0.91648 4.3601,-3.79016 6.15507,-5.38568 1.74732,-1.55318 3.8718,-1.67357 5.16586,-2.96762 0.77119,-0.7712 0.49122,-2.13991 1.20903,-2.85771 0.41102,-0.41103 0.83334,-0.6955 0.9892,-1.31894 0.10963,-0.43851 -0.24474,-0.73712 -0.10991,-1.20903 0.42983,-1.50439 2.94791,-2.05456 3.29736,-3.6271 0.42101,-1.89456 -5.02787,-2.4391 -6.37489,-3.18744 -1.13254,-0.62919 -2.76758,-1.57296 -3.6271,-2.52798 -0.37326,-0.41473 -2.37138,-3.09861 -2.63788,-3.18744 -0.63979,-0.21327 -2.74039,0.77679 -3.07753,0.43964 -0.43128,-0.43127 -0.51741,-1.53876 -1.31895,-1.53876 -0.51714,0 -0.54842,1.05606 -0.76938,0.87929 -1.48583,-1.18866 -0.42165,-2.11176 -3.07753,-3.07753 -1.36012,-0.49459 -3.17968,0.0414 -4.61631,-0.21982 -2.25199,-0.40946 -4.7421,-0.92124 -6.92445,-1.64868 -0.21029,-0.0701 -6.26826,-3.41467 -5.38568,-1.42886 0.0897,0.20189 0.84647,1.72576 0.98921,1.8685 0.75752,0.75753 2.4145,0.47207 3.29735,0.21983 0.11895,-0.034 0.84338,-0.38362 0.8793,-0.32974 0.16927,0.25391 -0.16186,0.84014 0,1.09912 0.64423,1.03077 2.79726,1.44645 3.73701,2.19824 0.8258,0.66064 2.82288,1.89338 1.31894,2.96762 -1.16813,0.83438 -2.87549,0.40773 -4.06674,0.10991 -1.4062,-0.35155 -3.42363,-0.21074 -4.50639,-1.42885 -2.0345,-2.28881 0.93975,-6.54145 -4.17665,-8.90287 -0.72052,-0.33254 -6.23998,-2.82374 -6.70463,-2.63788 -1.25496,0.50198 0.0593,1.45 -2.7478,1.09912 -0.77968,-0.0975 -1.8254,-0.30819 -2.52797,-0.65947 -0.80565,-0.40283 -1.36616,-0.98576 -2.28548,-0.98576 -0.66049,0 0.97863,0.0523 1.51609,0.4362 0.96806,0.69146 3.05937,1.83544 4.28657,1.09911 1.6906,-1.01436 -2.57401,-2.06925 -3.18745,-2.32737 -0.68239,-0.28713 -0.82726,-1.42976 -1.71841,-1.38696 -0.19448,-0.0247 -0.8581,-0.1658 -1.09654,-0.0141 -0.49471,0.31482 -0.23391,1.06445 -0.46404,1.5247 -0.46524,0.93049 -1.63219,0.72921 -2.45278,0.72921 -0.28593,0 -0.82116,0.2331 -1.06067,-0.0663 -0.55053,-0.68816 1.56084,0.0327 1.78987,0 0.61218,-0.0874 1.66578,-0.41311 1.52471,-1.25954 -0.0887,-0.53211 -0.28815,-0.21654 -0.19888,-0.66291 0.0458,-0.22912 0.39775,-0.0711 0.39775,-0.33146 0,-0.2688 -0.64954,-0.80463 -0.7955,-0.99438 -0.39545,-0.51408 -1.15519,-1.96704 -1.65728,-0.79549 -0.84476,1.9711 1.98063,1.47462 1.65728,2.12133 -0.1356,0.2712 -1.85105,-0.61866 -1.92245,-0.92809 -0.40874,-1.77119 1.61175,-4.14177 0.59662,-5.83365 -0.32866,-0.54777 -0.60067,-1.26358 -1.06066,-1.72358 -1.12511,-1.12511 -0.11051,0.3259 -1.06067,-0.86179 -0.94584,-1.1823 -1.63772,-3.12174 -3.1157,-3.77862 -1.40726,-0.62545 -4.52582,-0.61182 -6.2314,-1.06066 -0.77738,-0.20457 -1.34592,-0.98513 -2.05504,-1.12696 -0.36099,-0.0722 -0.61041,0.52356 -0.79549,0.72921 -0.37836,0.42039 -1.18379,0.80182 -1.45842,1.25954 -0.3816,0.63599 0.10769,2.06344 -0.13258,2.78424 -0.0252,0.0756 -0.11467,-0.12124 -0.13258,-0.19887 -0.20032,-0.86805 0.61582,-2.18762 -0.59663,-2.18762 -0.89939,0 -1.06169,0.70365 -1.65729,1.25954 -0.41348,0.38592 -0.91082,0.55484 -1.39212,0.7955 -0.6971,0.34855 -1.60031,0.88041 -1.45841,0.59662 0.16571,-0.33143 1.749,-1.20033 1.98874,-1.39212 0.42354,-0.33883 1.5563,-1.67478 2.05504,-1.78987 0.63122,-0.14567 0.71961,0.20527 1.32583,-0.19888 0.26467,-0.17644 1.18896,-0.69296 1.12696,-1.12695 -0.17089,-1.1962 -3.63262,-2.83713 -4.57412,-3.77862 -1.04642,-1.04643 -1.32246,-2.64849 -2.45278,-3.71233 -0.94301,-0.88754 -2.27289,-1.15673 -3.38087,-1.78987 -1.11539,-0.63736 -2.17255,-1.53675 -3.24829,-2.25391 -0.55314,0.012 -1.00515,0.26606 -1.32583,0.72926 -0.48213,0.69642 0.005,0.21284 -0.19887,0.92808 -0.0452,0.15809 -0.71049,0.74851 -0.86179,0.99437 -0.1764,0.28665 -0.20212,0.6542 -0.39775,0.92808 -0.27879,0.39031 -0.9694,0.70809 -1.12696,1.25954 -0.24599,0.86099 0.34686,1.72358 0.19888,1.72358 -0.35341,0 -0.54441,-1.72256 -0.33146,-1.98874 0.52475,-0.65594 1.51232,-0.77992 1.78987,-1.72358 0.21139,-0.71874 -0.0656,-1.32685 0.39775,-2.05504 0.21925,-0.34453 0.78156,-0.60344 0.72921,-1.12696 -0.13778,-1.37776 -2.12046,-1.06899 -2.78425,-0.33145 -0.0869,0.0966 -0.44395,2.48827 -0.79549,2.25391 -0.13259,-0.0884 -0.17678,-0.26517 -0.26517,-0.39775 -0.22097,-0.13258 -0.43243,-0.28251 -0.66291,-0.39775 -0.47928,-0.23964 -1.15773,-0.16667 -1.591,-0.39775 -0.088,-0.0469 -1.06961,-0.98543 -0.86179,-1.19325 0.0377,-0.0377 0.89844,0.93666 1.72358,1.25954 1.55393,0.60806 1.67048,-0.79304 2.58537,-1.45841 0.62542,-0.45485 2.02731,0.27361 2.51908,-0.46404 0.1342,-0.20131 -0.21792,-1.85353 0,-2.45279 0.43086,-1.18486 1.87501,-1.06127 1.65728,-2.58537 -0.15002,-1.05015 -1.22986,-2.14174 -0.92808,-3.24828 0.11078,-0.4062 0.75795,-0.88836 0.92808,-1.32583 0.53114,-1.36578 -0.1611,-2.55605 0,-3.84491 0.0807,-0.64558 0.59663,-0.93727 0.59663,-1.65729 0,-0.0539 -0.38284,-4.22135 -0.39775,-4.24266 -0.51743,-0.73918 -1.85146,-0.58581 -2.58537,-0.79549 -0.9069,-0.25912 -2.04329,-1.04631 -2.65166,-1.78988 -0.23911,-0.29224 -0.2415,-0.71691 -0.39775,-1.06066 -0.29794,-0.65547 -0.79576,-1.15043 -0.92808,-1.85616 -0.11293,-0.6023 -0.002,-1.00734 0.0663,-1.591 0.15436,-1.31208 -0.92321,-2.36934 -1.85616,-3.1157 -1.26264,-0.76104 -0.76244,-3.32345 -1.98876,-3.97749 -0.69188,-0.36901 -1.68038,-0.48713 -2.25391,-1.06067 -0.26738,-0.26738 -0.97665,-1.43412 -1.591,-1.12695 -0.79957,0.39978 0.66803,2.0373 -1.78987,0.86179 -1.44868,-0.69285 -2.89701,-1.16044 -4.37524,-1.72358 -0.94006,-0.35812 -1.45828,-1.2462 -2.25391,-1.72358 -0.978,-0.5868 -3.02581,0.001 -3.97749,0.39775 -0.62126,0.25885 -0.45375,1.01768 -0.72921,1.45841 -0.0647,0.10347 -3.25987,1.25954 -3.51345,1.25954 -0.1202,0 -2.67753,-0.3545 -2.85053,-0.39775 -0.73904,-0.18476 -1.03678,-1.25954 -1.78988,-1.25954 -0.77478,0 -0.9308,0.84962 -1.45841,1.06067 -1.00627,0.40251 -2.23906,0.49471 -3.24828,0.66291 -1.05876,0.17646 -2.14509,1.2966 -3.04941,1.78987 -1.09406,0.59676 -2.3567,0.53914 -3.44716,1.06067 -0.74611,0.35683 -0.96884,0.89184 -1.52471,1.39212 -0.39828,0.35846 -0.75203,0.0886 -1.19324,0.19887 -0.79915,0.19979 -1.33624,1.1531 -2.12133,1.45842 -0.67292,0.26169 -0.70306,-0.0795 -1.25954,0 -0.39751,0.0568 -1.80432,0.50959 -2.18762,0.66291 -0.54283,0.21713 -0.88059,0.79144 -1.39212,1.06067 -0.5195,0.27341 -1.03546,0.16837 -1.52471,0.33145 -0.68834,0.22945 -0.97627,0.26739 -1.72358,0.46404 -0.59271,0.15597 1.54689,-0.13714 -0.46403,-1.06066 -1.22711,-0.56355 -1.24132,0.6248 -1.92245,0.39775 -0.38183,-0.12727 -1.06348,-1.52752 -1.45842,-1.92245 -0.26048,-0.55687 -4.09506,-2.66806 -4.83929,-2.58537 -0.72487,0.0805 -1.19996,1.70345 -1.32583,1.32583 -0.30831,-0.92493 0.52124,-1.89977 -0.39775,-2.65166 -0.31157,-0.25493 -2.51908,-0.043 -2.51908,-0.33146 0,-0.0858 1.46476,0.34414 0.92809,-0.72921 -0.16901,-0.33801 -2.32301,-2.07818 -2.78425,-1.5247 -0.79664,0.95597 1.1294,1.25222 0.86179,2.05503 -0.0421,0.12627 -1.24693,-0.13258 -1.25954,-0.13258 -0.38326,0 -1.25481,0.42615 -1.5247,0.0663 -0.17589,-0.23451 2.26867,-1.50241 2.12133,-2.38649 -0.0716,-0.42934 -3.87092,-3.57974 -4.11008,-3.57974 -1.61529,0 1.50423,0.76676 -1.19325,0.19887 -0.75765,-0.15951 -1.4207,-1.39212 -2.18762,-1.39212 -0.92876,0 -2.14399,0.91354 -2.98311,1.19325 -0.48413,0.16137 -2.05807,0.14955 -2.58537,0.0663 -1.27785,-0.20177 -0.18083,-0.17479 -0.99438,-0.66292 -0.4005,-0.2403 -1.12189,0.35046 -1.59099,0.26517 -1.06208,-0.19311 -2.14205,-1.5304 -3.24829,-1.39212 -0.43038,0.0538 -0.87548,0.28142 -1.32583,0.33145 -0.17569,0.0195 -0.38324,-0.0981 -0.53033,0 -0.26461,0.17641 -2.06814,2.10823 -2.58537,1.591 -0.13258,-0.13258 0.26517,-0.26517 0.39775,-0.39775 0.43146,-0.43146 0.88493,-1.00996 0.92808,-1.65729 0.0884,-1.32583 -0.15468,0.24307 -0.33146,-0.99437 -0.0823,-0.5759 0.41118,-0.6688 0.26517,-1.32583 -0.19975,-0.8989 -0.99437,-1.85202 -0.99437,-2.78424 0,-0.25035 0.83452,-0.34122 1.06066,-0.39775 1.04952,-0.26238 2.66904,-2.30282 3.9112,-1.06067 0.16829,0.16829 0.12237,0.47252 0.26517,0.66292 0.28354,0.37806 0.93586,0.23717 1.32583,0.39775 0.20314,0.0836 1.38632,1.0511 1.65729,1.25954 0.45741,0.35185 0.0366,0.97167 0.13258,1.25953 0.17544,0.52633 1.05056,0.5296 1.39212,0.92809 0.30285,0.35332 0.31543,0.93463 0.72921,1.19324 0.1774,0.11088 1.1953,-0.45717 1.98874,-0.13258 1.06959,0.43756 1.87461,1.39348 2.78425,2.05504 0.43787,0.31845 2.21353,1.52401 1.5247,0.7292 -1.22191,-1.4099 -2.75403,-2.63534 -4.30895,-3.64603 -0.63319,-0.41158 -1.29253,-0.0144 -1.85616,-0.33146 -0.70694,-0.39765 -1.89652,-1.94946 -2.65166,-2.58537 -0.76624,-0.64525 -1.64553,-1.02116 -2.45279,-1.59099 -0.54911,-0.38761 -0.8833,-0.96811 -1.39212,-1.39212 -0.83547,-0.69623 -1.68283,-1.35138 -2.45278,-2.12133 -1.8295,-1.42928 -3.45875,-3.1384 -5.03816,-4.8393 -0.30293,-0.32624 -0.37458,-0.83863 -0.66292,-1.12696 -0.27358,-0.27358 -0.92064,-0.15458 -1.12695,-0.46404 -0.32635,-0.48952 0.0352,-1.0267 0.0663,-1.52471 0.0778,-1.24545 -0.2045,0.2439 -0.0663,-0.86179 0.11947,-0.95575 1.03737,-1.84004 1.25954,-2.78424 0.19312,-0.82078 -0.46474,-1.68956 0.19887,-2.51908 0.39905,-0.49881 1.08541,-0.83262 1.45842,-1.39212 0.52512,-0.78769 -0.67863,-1.24881 0,-2.12133 0.26494,-0.34064 0.80237,-0.98285 0.7292,-1.45841 -0.10397,-0.67583 -0.94499,-1.02954 -1.06066,-1.72358 -0.0717,-0.43031 -0.007,-0.98653 -0.33146,-1.39212 -0.11186,-0.13983 -0.39154,-0.0253 -0.48614,-0.0103 z"
       id="path62080"
       sodipodi:nodetypes="csssssssssssssssssssssssssssssssssssscssssscsssssssssssscsssssssssssscsssssssssssssssssscsssssssscssssssssssssssssscssssscssssssssssssssssssssssssssssssssssssssssssssssssssssscssssssssssssssssssssssssssssssssscscsssssssssscsssssssssssscssssccsssssscssssssssssssssssssc" />
    <text
       id="text59770-1-9-7"
       y="188.7751"
       x="444.80096"
       style="font-size:18.6667px;line-height:7.75835px;font-family:Arial;-inkscape-font-specification:Arial;letter-spacing:0px"
       xml:space="preserve"><tspan
         y="188.7751"
         x="444.80096"
         id="tspan59768-6-1-4"
         sodipodi:role="line">St. Lawrence Island</tspan></text>
    <path
       style="font-variation-settings:normal;opacity:1;vector-effect:none;fill:none;fill-opacity:1;stroke:#000000;stroke-width:2.66667;stroke-linecap:butt;stroke-linejoin:round;stroke-miterlimit:4;stroke-dasharray:none;stroke-dashoffset:0;stroke-opacity:1;stop-color:#000000;stop-opacity:1"
       d="m 262.28317,140.10276 101.80085,29.06381 c 0.44173,0.20215 1.80726,0.13186 2.01768,0.76313 0.16992,0.50975 -0.94644,2.6568 -0.94644,3.52765 0,0.87126 1.20456,0.50515 1.20456,1.97893 0,0.75905 -0.92513,1.63557 -1.11852,2.40913 -0.0229,0.0917 0.14078,5.75684 0.17208,5.85074 0.20109,0.60328 1.39313,1.13139 1.46269,1.54873 0.17406,1.04439 0.48669,4.68789 0.8604,5.24846 0.37798,0.56697 1.19519,0.76311 1.63477,1.29061 0.90881,1.09058 1.78488,2.79174 3.01141,3.52765 0.27713,0.16628 0.56446,0.0241 0.8604,0.17208 0.81039,0.4052 0.68568,1.42721 1.63477,1.80685 0.86067,0.34427 2.05548,-1.16301 2.75329,0 0.64364,1.07274 -0.4923,2.5064 0.17208,3.6137 0.63835,1.06391 1.42413,0.14575 2.32309,0.25812 0.60165,0.0752 1.16725,0.7092 1.72081,0.94644 0.28591,0.12253 0.61484,-0.0121 0.8604,0.17208 0.93815,0.70361 0.29736,2.46709 1.20457,3.01141 0.28815,0.17289 1.80992,0.1137 2.15101,0 0.69467,-0.23156 1.16094,-0.88161 1.80684,-1.20456 0.44257,-0.22129 1.02012,-0.0368 1.46269,-0.25812 0.6626,-0.33131 1.20838,-0.85013 1.97893,-0.94645 0.53637,-0.067 1.19512,-0.18152 1.63476,0.25812 0.0993,0.0993 0.50873,0.78038 0.51625,0.77437 0.68902,-0.55122 0.65762,-1.74848 1.46268,-2.15101 0.65033,-0.32517 2.45894,-0.14038 2.83933,-0.77436 0.46773,-0.77955 -0.82542,-2.98078 0.086,-3.52766 1.04893,-0.62936 2.77275,-0.22483 3.87182,-0.77436 0.42141,-0.21071 0.86124,-0.60215 1.37665,-0.51624 1.1287,0.18811 4.07351,1.23277 5.16242,0.68832 0.4739,-0.23695 0.92012,-1.03249 1.54872,-1.03249 0.51321,-1.1638 2.86572,-1.92178 4.12998,-1.80684 2.13271,0.19388 8.75951,2.18572 10.75504,3.18349 2.33822,1.16911 4.72135,2.83118 6.79719,4.38806 0.63536,0.32371 1.31329,0.51174 1.89289,0.94644 0.47002,0.35252 0.81717,0.91186 1.29061,1.29061 1.33454,1.06763 2.98852,1.74476 4.30201,2.83933 0.76778,0.63981 1.30694,1.57377 2.06497,2.23705 0.71831,0.62852 1.50607,1.1977 2.23705,1.80685 0.72333,0.60277 1.62209,0.76731 2.40913,1.20456 1.11761,0.6209 2.1363,1.39604 3.09745,2.23705 4.53608,3.96906 9.53818,12.85685 11.01317,18.7568 0.60968,2.43871 1.54873,5.76596 1.54873,8.25987 0,0.81441 -2.41189,1.45855 -1.72081,2.49517 0.31982,0.47973 1.86042,-0.42316 2.49517,0 0.74503,0.49669 0.89646,0.91449 1.37664,1.63477 1.57337,2.36004 4.42625,2.37408 6.79719,1.97893 0.37108,-0.0618 2.42373,-1.18998 2.66725,-0.94645 0.53164,0.53164 -0.5988,1.81033 -0.34416,2.06497 0.75254,0.75254 1.792,0.78324 2.49517,1.72081 1.47264,1.96352 0.62579,3.47763 3.26953,5.59262 2.47942,0.8112 3.06539,2.98834 4.56014,4.73222 3.52845,4.11652 5.32894,9.01199 6.62511,14.19666 0.11626,0.46502 0.12377,3.03259 0,3.52765 -0.0965,0.38593 -0.84777,0.81225 -0.68832,1.29061 0.0955,0.28652 0.52155,0.48251 0.68832,0.77436 0.41856,0.73248 0.34416,2.16849 0.34416,3.01141 0,1.00361 -2.85538,3.01899 0,4.73222 0.41241,0.24745 0.88969,0.0577 1.29061,0.25812 0.42464,0.21233 0.75532,0.9944 0.94644,1.37665 0.59326,1.18651 1.87806,1.60114 3.01141,1.97893 0.23832,0.0794 0.50086,0.34929 0.77437,0.25812 1.44998,-0.48333 1.45735,-2.79365 2.75329,-3.44162 1.02978,-0.51489 2.765,-1.17198 3.95785,-0.77436 0.34467,0.11489 1.57292,0.7811 1.80685,0.4302 0.89883,-1.34823 -1.58583,-5.33287 -1.2906,-7.39947 0.14016,-0.98117 0.3767,-2.1626 0.68832,-3.09745 0.107,-0.321 0.40724,-0.44452 0.60228,-0.68832 2.10397,-2.62996 4.58791,-3.79966 7.48551,-5.24846 0.58176,-0.29088 1.07387,-0.0712 1.63477,-0.25813 0.54913,-0.18304 0.88531,-0.52869 1.37665,-0.77436 2.14555,-0.79339 3.3458,-2.69789 5.07638,-4.0439 0.28902,-0.22479 0.91179,-0.37822 1.11852,-0.68832 0.46017,-0.69026 1.03233,-1.31205 1.89289,-1.63476 1.11782,-0.41919 2.28838,-0.32404 3.44161,-0.51625 5.94429,-0.99071 8.94671,-0.0146 14.7129,0.94645 1.33827,0.22304 6.46177,1.05871 6.88323,2.32309 0.19429,0.96935 0,1.8707 0,2.66725 L 471.07093,598.66878 65.906911,488.36505 160.5513,196.43013 Z"
       id="path62082"
       sodipodi:nodetypes="ccsssssssssssssssssssssscsssssscsscsssssssssssssssscssssssssssssssssssscssssscccccc" />
    <path
       style="font-variation-settings:normal;opacity:1;vector-effect:none;fill:none;fill-opacity:1;stroke:#000000;stroke-width:2.66666675;stroke-linecap:butt;stroke-linejoin:miter;stroke-miterlimit:4;stroke-dasharray:10.66666698, 5.33333349000000023;stroke-dashoffset:0;stroke-opacity:1;stop-color:#000000;stop-opacity:1"
       d="M 326.09294,103.07634 46.633872,258.29314"
       id="path62084" />
  </g>
</svg>
