<?xml version="1.0" encoding="UTF-8" standalone="no"?>
<svg
   xmlns:dc="http://purl.org/dc/elements/1.1/"
   xmlns:cc="http://creativecommons.org/ns#"
   xmlns:rdf="http://www.w3.org/1999/02/22-rdf-syntax-ns#"
   xmlns:svg="http://www.w3.org/2000/svg"
   xmlns="http://www.w3.org/2000/svg"
   xmlns:sodipodi="http://sodipodi.sourceforge.net/DTD/sodipodi-0.dtd"
   xmlns:inkscape="http://www.inkscape.org/namespaces/inkscape"
   version="1.1"
   id="svg833"
   width="7.5446815in"
   height="8.5287704in"
   viewBox="0 0 724.28943 818.76196"
   sodipodi:docname="er09ap03.001.svg"
   inkscape:version="1.0 (4035a4f, 2020-05-01)">
  <metadata
     id="metadata839">
    <rdf:RDF>
      <cc:Work
         rdf:about="">
        <dc:format>image/svg+xml</dc:format>
        <dc:type
           rdf:resource="http://purl.org/dc/dcmitype/StillImage" />
        <dc:title></dc:title>
      </cc:Work>
    </rdf:RDF>
  </metadata>
  <defs
     id="defs837" />
  <sodipodi:namedview
     fit-margin-bottom="0"
     fit-margin-right="0"
     fit-margin-left="0"
     fit-margin-top="0"
     inkscape:document-rotation="0"
     pagecolor="#ffffff"
     bordercolor="#666666"
     borderopacity="1"
     objecttolerance="10"
     gridtolerance="10"
     guidetolerance="10"
     inkscape:pageopacity="0"
     inkscape:pageshadow="2"
     inkscape:window-width="1280"
     inkscape:window-height="751"
     id="namedview835"
     showgrid="false"
     inkscape:document-units="mm"
     units="in"
     showguides="true"
     inkscape:guide-bbox="true"
     inkscape:zoom="0.44457365"
     inkscape:cx="580.07347"
     inkscape:cy="377.3543"
     inkscape:window-x="0"
     inkscape:window-y="23"
     inkscape:window-maximized="0"
     inkscape:current-layer="g841">
    <sodipodi:guide
       position="364.9688,746.59133"
       orientation="1,0"
       id="guide911" />
  </sodipodi:namedview>
  <g
     transform="translate(-42.737575,-94.472534)"
     inkscape:groupmode="layer"
     inkscape:label="Image"
     id="g841">
    <rect
       style="fill:none;fill-opacity:0.13;stroke:#000000;stroke-width:3.77953;stroke-miterlimit:4;stroke-dasharray:none;stroke-opacity:1"
       id="rect845"
       width="635.742"
       height="736.29303"
       x="89.73909"
       y="139.47401" />
    <rect
       style="fill:none;fill-opacity:0.13;stroke:#000000;stroke-width:1.88976;stroke-miterlimit:4;stroke-dasharray:none;stroke-opacity:1"
       id="rect847"
       width="144.87997"
       height="118.93133"
       x="100.46623"
       y="187.22498" />
    <path
       style="fill:none;stroke:#000000;stroke-width:1.13386;stroke-linecap:butt;stroke-linejoin:miter;stroke-miterlimit:4;stroke-dasharray:none;stroke-opacity:1"
       d="m 191.63278,286.39624 1.84262,-1.84262 h 1.84263 l 1.57939,-1.31616 1.57939,-0.52646 1.31616,-1.84263 2.10585,-0.26323 0.52646,-2.36909 2.36909,0.7897 0.26323,-2.10585 1.31616,-2.89555 3.15878,-1.5794 3.94848,-1.57939 -0.26323,-3.68524 -2.10585,0.52646 -1.31616,0.52646 h -2.63232 l 1.05293,-1.05292 1.57939,0.78969 1.05292,-0.78969 -0.26323,-0.7897 1.84262,-1.57939 2.63232,0.7897 1.57939,0.52646 1.31616,-1.31616 v -1.84262 l -0.52646,-0.7897 -0.52646,-4.21171 0.52646,-0.26323 -1.84262,-0.78969 2.10585,-1.31616 -0.26323,-0.7897 -1.05293,-4.73817 0.26323,-2.36909 0.52647,-0.52646 v -3.15878 l 1.57939,-1.5794 1.57939,-1.05292 0.26323,-3.68525 1.84262,-2.63232 0.7897,-2.10585 0.26323,-1.05293 1.57939,-1.31616 v -4.47494 l 1.05293,-0.52646 v -0.7897 l -1.05293,-0.78969 0.26324,-0.7897 0.78969,-1.57939 -0.78969,-1.05293 -1.84263,0.7897 v -2.89555 l -0.78969,-0.7897 v -1.57939 l -1.05293,-1.05293 0.52646,-1.05292 v -0.7897 l -0.78969,-1.05293 -3.94848,-2.36908 0.26323,-1.57939 -1.57939,-0.7897 -1.57939,-1.31616 -1.31616,-1.05293 -0.52646,1.05293 -1.57939,0.26323 -2.10586,-1.05292 -1.84262,-0.52647 -0.7897,-0.26323 v -1.84262 h -2.10585 l -1.57939,-1.57939 -1.05293,0.52646 -1.05293,0.78969 -2.36908,0.52647 -2.10586,1.57939 -1.84262,-1.57939 -2.63232,-0.52647 -1.31616,-0.26323 -1.84262,0.52647 -1.57939,-0.7897 -0.7897,-0.26323 -2.10585,-0.26323 -3.15879,1.57939 v 3.94848 l -1.05292,0.78969 -2.36909,-0.26323 -1.31616,-2.63232 -2.10585,-0.52646 -2.10586,0.52646 -1.57939,-1.84262 -1.05293,-0.7897 -1.84262,-0.26323 -1.05293,1.31616 -1.31616,-0.26323 -1.31616,-1.05293 -2.36908,1.57939 -1.57939,2.36909 -2.10586,1.05293 -2.10585,1.57939 -2.36909,0.78969 -3.42201,3.15878 -2.89555,0.52647 -2.10586,0.78969 -1.05293,1.31616 -0.78969,1.31616 h -2.36909 l -2.10585,0.52647 -1.57939,0.52646 -1.84263,1.05293 -2.10585,1.31616 -1.31616,0.78969 -2.10585,1.31616 -0.26324,3.15878 -1.31616,1.57939 -0.26323,4.47495 -1.84262,2.10585 -2.36909,1.57939 -2.36908,2.36909 -0.7897,1.31616 -2.63232,0.26323 v 6.84403 l -0.52646,1.31616 -0.26323,2.89555 0.78969,1.84262 2.89555,2.36909 1.84263,3.68524 0.52646,1.57939 8.16019,2.89555 1.57939,0.52647 2.36908,1.84262 4.47495,0.26323 3.68524,1.05293 1.84262,2.63232 2.10586,1.05292 3.68524,6.05434 1.84263,0.52646 2.10585,2.36909 0.52647,-0.26324 1.31615,2.10586 1.84263,0.26323 v -2.10585 l 1.05293,-0.52647 3.42201,1.84263 1.05293,0.26323 4.21171,1.57939 h 4.47494 l 1.05292,1.05293 1.31616,-0.7897 4.73818,-0.26323 4.47494,1.05293 2.63232,1.31616 2.89555,1.31615 z"
       id="path849" />
    <path
       style="fill:none;stroke:#000000;stroke-width:1.13386;stroke-linecap:butt;stroke-linejoin:miter;stroke-miterlimit:4;stroke-dasharray:none;stroke-opacity:1"
       d="m 106.08243,287.18594 7.10726,-21.05855 7.10726,21.05855 -7.10726,-3.15878 z"
       id="path851" />
    <rect
       style="fill:none;fill-opacity:0.13;stroke:#000000;stroke-width:1.13386;stroke-miterlimit:4;stroke-dasharray:none;stroke-opacity:1"
       id="rect853"
       width="17.899765"
       height="13.688056"
       x="183.73582"
       y="275.07727" />
    <path
       style="fill:none;stroke:#000000;stroke-width:1.13386;stroke-linecap:butt;stroke-linejoin:miter;stroke-miterlimit:4;stroke-dasharray:1.13386, 1.13386;stroke-dashoffset:0;stroke-opacity:1"
       d="m 245.33207,217.95596 5.26464,-1.84262 7.10726,-2.63232 5.52787,-2.63232 5.7911,-4.47494 6.31756,-6.05433 1.31616,-1.57939 4.47495,-4.73817 v -3.15879 l 0.52646,-4.21171 -1.31616,-3.15878 -2.36909,-2.36908"
       id="path855" />
    <path
       style="fill:none;stroke:#000000;stroke-width:1.13386;stroke-linecap:butt;stroke-linejoin:miter;stroke-miterlimit:4;stroke-dasharray:1.13386, 1.13386;stroke-dashoffset:0;stroke-opacity:1"
       d="m 178.73442,305.61217 -0.26323,2.63231 -2.10586,10.79251 1.05293,3.15878 1.31616,2.63232 0.26323,3.68525 2.36909,5.26463 1.31616,1.31616 3.42201,0.7897 2.89555,-0.26323 24.21733,-14.21452 h 11.31897 l 1.84262,0.78969 8.42342,8.94988 12.10867,18.9527 16.84683,5.7911 3.15879,1.05293 8.68665,2.89555 6.58079,2.10585 9.21312,0.26323 7.37049,-1.57939 11.31897,-3.94848 6.31756,-5.7911 5.00141,-4.21171 1.05292,-6.84402 0.7897,-5.00141 -1.05293,-5.7911 -0.26323,-3.94848 -0.7897,-6.84403 -0.52646,-6.84402 0.52646,-3.68525 0.7897,-7.10726 5.52787,-12.3719 1.05293,-3.68524 3.15878,-1.57939 4.73817,-1.31616 6.05433,2.36909 5.52787,2.10585 h 6.31757 l 9.47634,4.21171 19.47916,2.89555 3.15878,0.26323 2.10586,2.36909 13.68805,10.00281 7.37049,2.10585 3.15879,5.52787 2.89555,2.89555 1.05292,2.36909 1.05293,6.84403 2.36909,1.57939 5.52787,8.16018 3.68524,3.15879 2.63232,12.89836 2.10585,3.42201 8.42342,7.89696 5.26464,5.7911 3.42201,2.36908 4.47495,1.84263 5.7911,1.31615 6.58079,1.05293 2.36909,2.89555 13.95129,0.26323 2.89555,-2.89555 13.16159,0.26324 1.31616,-2.89555 h 7.37049 l 5.52787,-2.89555 6.31756,-2.63232 5.00141,-5.52787 17.89976,2.63232 6.5808,-2.10586 5.52787,0.26323 8.16018,-0.52646 h 3.15879 l 6.84402,3.15878 10.52928,3.94848 7.89695,3.42201 7.10726,3.68525 3.94848,4.47494 6.31756,2.89555 3.15879,1.84262 4.47494,9.47635 9.21311,5.0014 6.84403,3.15879 3.94848,5.7911 2.10585,0.26323 -0.26323,3.68525 2.89555,1.57939 0.52646,2.89555 11.84544,12.10866 2.89555,3.42201 2.89555,0.7897 3.42201,3.94848 3.68525,1.57939 2.89555,2.10585 2.63231,2.10586 1.5794,1.84262 17.11007,2.36909 10.7925,5.7911 h 22.11148"
       id="path857" />
    <path
       style="fill:none;stroke:#000000;stroke-width:1.13386;stroke-linecap:butt;stroke-linejoin:miter;stroke-miterlimit:4;stroke-dasharray:none;stroke-opacity:1"
       d="m 488.04078,531.96817 -4.4672,-24.56956 v -8.93439 l 10.79572,-20.47463 10.7209,-17.0038 19.92353,-16.46911 7.60955,-7.98183 5.30114,-8.80117 5.584,-12.28478 1.48906,-3.3504 1.86133,-19.35783 -0.74453,-11.16798 -3.72266,-24.56956 -4.4672,-26.80315 -2.60586,-24.56956 -0.37226,-18.24104 2.69528,-16.12605 6.62596,-17.13883 5.0183,-16.08227 3.15696,-21.75566 0.74453,-21.59143 -0.74453,-13.77385"
       id="path859"
       sodipodi:nodetypes="cccccccccccccccccccccc" />
    <path
       id="path861"
       d="m 485.43492,531.96817 -4.4672,-24.56956 v -8.93439 l 10.79572,-20.47463 11.16798,-18.6133 20.10237,-16.3797 7.07305,-7.44533 5.21172,-7.81758 5.584,-12.28478 1.48906,-3.3504 1.86133,-19.35783 -0.74453,-11.16798 -3.72266,-24.56956 -4.4672,-26.80315 -2.60586,-24.56956 -0.37226,-18.24104 2.60586,-16.75197 7.07305,-17.4965 4.83946,-15.63518 2.97813,-21.21916 0.74453,-21.59143 -0.74453,-13.77385"
       style="fill:none;stroke:#000000;stroke-width:1.13386;stroke-linecap:butt;stroke-linejoin:miter;stroke-miterlimit:4;stroke-dasharray:none;stroke-opacity:1" />
    <path
       style="fill:none;stroke:#000000;stroke-width:2.83465;stroke-linecap:butt;stroke-linejoin:miter;stroke-miterlimit:4;stroke-dasharray:none;stroke-opacity:1"
       d="m 485.22704,397.59406 -7.37652,-28.7684 23.45731,-8.2617 -6.93392,-19.0314 -0.59012,-14.6055 -3.09814,-17.40857 -12.09748,-8.70428 -11.50736,-0.59012 -12.98266,6.93392 -14.90056,4.57344 7.37652,28.62087 -2.65555,19.76905 -7.8191,10.91724 -10.76971,32.45666 10.47465,5.60615 4.4259,0.44259 z"
       id="path863" />
    <path
       style="fill:none;stroke:#000000;stroke-width:2.83465;stroke-linecap:butt;stroke-linejoin:miter;stroke-miterlimit:4;stroke-dasharray:none;stroke-opacity:1"
       d="m 615.93885,630.54434 9.2944,-5.45862 4.72097,-2.36048 4.27838,-3.3932 2.50802,-4.13084 0.88518,-3.09814 0.44259,-4.72097 -1.03271,-5.31109 -2.95061,-4.27837 -3.68826,-3.3932 -4.57343,-2.65555 -5.31109,-0.14753 -6.04874,1.32778 -4.13085,1.91789 -2.80308,1.62283 -2.9506,1.47531 -5.90121,0.73765 -3.3932,0.73765 -2.21295,1.4753 -4.72097,0.44259 -4.27838,3.3932 -2.36048,2.21295 -2.06543,3.24567 -0.88518,1.62283 -0.59012,3.83579 v 2.9506 l 0.73765,3.09814 0.73765,3.24566 2.06543,3.24567 2.9506,2.65554 3.83579,2.36049 4.8685,1.18024 5.01603,0.44259 2.9506,-0.88518 2.36049,0.14753 3.39319,-1.77036 h 2.21296 l 2.9506,-0.88518 z"
       id="path865" />
    <path
       style="fill:none;stroke:#000000;stroke-width:2.83465;stroke-linecap:butt;stroke-linejoin:miter;stroke-miterlimit:4;stroke-dasharray:none;stroke-opacity:1"
       d="m 335.77888,609.15246 6.93392,-25.67027 12.83513,0.88518 2.95061,-8.55675 -10.03206,-9.44194 7.08145,-19.32646 -11.94995,-17.26105 -22.4246,-2.80307 -12.98266,18.14622 -16.37586,4.8685 -13.27772,4.57344 -12.68761,0.44259 -1.18024,10.62218 2.80308,8.40922 3.39319,9.737 0.59012,4.13085 0.14753,6.63886 z"
       id="path867" />
    <path
       style="fill:none;stroke:#000000;stroke-width:2.83465;stroke-linecap:butt;stroke-linejoin:miter;stroke-miterlimit:4;stroke-dasharray:none;stroke-opacity:1"
       d="m 194.81516,458.70799 4.13928,-3.17166 0.80636,-1.98901 0.26878,-1.23641 0.86011,-3.01039 0.59133,-2.31155 0.10751,-2.31154 -0.3763,-3.76299 -2.63409,-1.82774 -1.12889,-0.91386 -1.45144,-0.7526 -2.95663,-0.7526 -2.15028,0.0538 -2.84912,1.66646 -8.76238,11.93404 7.63349,8.81614 4.89188,0.0538 z"
       id="path869" />
    <path
       style="fill:none;stroke:#000000;stroke-width:1.88976;stroke-linecap:butt;stroke-linejoin:miter;stroke-miterlimit:4;stroke-dasharray:none;stroke-opacity:1"
       d="m 495.61483,751.38352 v -3.42637 l -1.41086,-1.61241 -3.22482,-2.62017 -2.01552,-1.20931 -1.00775,-2.21706 -0.20156,-2.62017 -0.4031,-2.82172 -3.02327,-5.64344 -6.24809,-5.64344 -4.43413,-3.82947 -2.21707,-3.82948 -0.8062,-3.02327 -1.41086,-1.00776 -2.21707,1.41086 -3.22482,0.20155 -4.43413,-5.24033 -1.61241,-1.81396 -1.20931,-3.62793 -0.60465,-4.03103 -1.00776,-5.03878 -0.60465,-3.22482 -1.41086,-1.20931 -1.00776,0.20155 -1.61241,1.61241 -0.80621,4.23258 -1.00775,3.22482 1.81396,5.24034 1.00776,4.83723 1.61241,4.63568 0.20155,5.03879 -0.4031,2.62016 -1.61242,2.82172 v 1.61241 l 1.20931,4.83724 0.60466,3.42637 -0.60466,1.41086 -1.61241,2.01551 h -3.22482 l -1.61241,0.80621 -2.62017,0.4031 -0.8062,0.40311 -6.04655,0.60465 -1.81396,0.8062 -11.89153,-3.42637 -1.20931,1.41086 -2.21706,0.4031 -2.82172,-0.20155 -4.03103,-1.61241 -3.82948,-0.4031 -6.44964,4.23258 h -5.03878 l -4.83724,-4.43413 -0.8062,-1.41086 -1.81396,-6.85275 -1.61242,-6.04654 0.20156,-6.6512 2.62016,-4.03102 1.61241,-4.03103 0.40311,-1.41086 -4.03103,-4.63568 -4.23258,-3.02327 -7.8605,-2.62017 -3.62793,-1.20931 -8.46515,-3.42637 -2.82172,-1.20931 -5.84499,-2.62017 -7.86051,-7.65895 -3.62792,-3.62792 -4.63568,-4.03103 -2.01552,-1.41086 -2.21706,-3.62793 -3.42638,-6.85274 -0.8062,-1.81397 -2.82172,-2.41861 -1.20931,-0.80621 -12.69774,-2.62017 h -1.41086 l -5.44188,2.41862 -5.84499,14.31015 -11.68998,0.60465 -3.42638,0.40311 h -0.8062 l -3.02327,-2.41862 -5.03879,0.20155 -3.82947,-3.02327 -3.62793,-2.21707 -1.41086,-2.62016 -2.41861,-1.41086 -1.61241,-1.20931 -1.81397,-2.41862 -0.60465,-3.22482 -3.42637,-4.83723 -0.60466,-0.80621 v -1.41086 l 1.20931,-0.60465 -0.4031,-5.03879 -2.21707,-2.62016 -11.08532,-2.41862 -6.6512,-1.00776 -10.07757,-0.60465 -2.01551,1.00776 -9.67447,0.60465 -2.62016,0.4031 -1.00776,0.80621 -2.82172,-0.40311 -1.81396,-1.00775 -3.02327,-2.41862 -5.44189,-1.81396 -1.41086,-0.20155 -2.62017,0.4031 -3.02327,-0.20155 -3.62792,0.4031 -2.21707,1.00776 -1.61241,-0.20155 -1.20931,-0.80621 -1.20931,-1.00776 -5.64343,-12.69773 -2.01552,-1.41086 -3.62792,-1.20931 -3.42638,-0.8062 -4.63568,-0.40311 -11.28687,6.24809 -1.41086,1.61242 -1.00776,1.81396 -1.20931,2.21706 -1.81396,1.81397 -0.80621,1.41086 -1.20931,0.60465 -2.21706,0.20155 -3.82948,1.41086 -3.22482,1.41086 -2.82172,0.80621 h -2.62017 l -4.63568,-1.81397 h -4.43413 l -5.03878,-1.81396 -12.69774,2.01551 -5.643437,-2.01551"
       id="path871" />
    <path
       style="fill:none;stroke:#000000;stroke-width:1.88976;stroke-linecap:butt;stroke-linejoin:miter;stroke-miterlimit:4;stroke-dasharray:none;stroke-opacity:1"
       d="m 98.558622,625.61546 1.209308,-0.4031 1.61241,-1.41086 0.20155,-1.41086 0.20155,-0.8062 -0.8062,-0.20155 -0.80621,-0.80621 -1.81396,-0.20155"
       id="path873" />
    <path
       style="fill:none;stroke:#000000;stroke-width:1.13386;stroke-linecap:butt;stroke-linejoin:miter;stroke-miterlimit:4;stroke-dasharray:1.13386, 1.13386;stroke-dashoffset:0;stroke-opacity:1"
       d="m 107.6577,306.34784 -0.85837,3.07206 -1.62638,2.57511 -2.12334,2.801 -3.659366,2.30404"
       id="path875"
       sodipodi:nodetypes="ccccc" />
    <path
       style="fill:none;stroke:#000000;stroke-width:3.77953;stroke-linecap:butt;stroke-linejoin:miter;stroke-miterlimit:4;stroke-dasharray:none;stroke-opacity:1"
       d="M 90.468903,178.89331 H 724.26235"
       id="path877" />
    <path
       style="fill:none;stroke:#000000;stroke-width:3.77953;stroke-linecap:butt;stroke-linejoin:miter;stroke-miterlimit:4;stroke-dasharray:none;stroke-opacity:1"
       d="M 89.957779,749.81853 H 724.26235"
       id="path879" />
    <rect
       style="fill:none;fill-opacity:0.13;stroke:#000000;stroke-width:2.83465;stroke-miterlimit:4;stroke-dasharray:none;stroke-dashoffset:0;stroke-opacity:1"
       id="rect881"
       width="37.823158"
       height="20.44495"
       x="134.42554"
       y="762.59662" />
    <path
       style="fill:none;stroke:#000000;stroke-width:1.13386;stroke-linecap:butt;stroke-linejoin:miter;stroke-miterlimit:4;stroke-dasharray:1.13386, 1.13386;stroke-dashoffset:0;stroke-opacity:1"
       d="m 131.86993,809.62001 15.33371,-19.4227 14.82259,19.4227 12.77809,-18.40045"
       id="path883" />
    <path
       style="fill:none;stroke:#000000;stroke-width:1.13386;stroke-linecap:round;stroke-linejoin:round;stroke-miterlimit:4;stroke-dasharray:none;stroke-opacity:1"
       d="m 133.91442,838.24294 13.28922,-18.91158 14.31146,20.44495 15.84484,-21.4672"
       id="path885" />
    <path
       id="path887"
       d="m 133.91442,834.59492 13.28922,-18.91158 14.31146,20.44495 15.84484,-21.4672"
       style="fill:none;stroke:#000000;stroke-width:1.13386;stroke-linecap:round;stroke-linejoin:round;stroke-miterlimit:4;stroke-dasharray:none;stroke-opacity:1" />
    <path
       style="fill:none;stroke:#000000;stroke-width:1.88976;stroke-linecap:round;stroke-linejoin:round;stroke-miterlimit:4;stroke-dasharray:none;stroke-opacity:1"
       d="m 133.91442,863.59201 13.28922,-18.91158 14.31146,20.44495 15.84484,-21.4672"
       id="path889" />
    <rect
       style="fill:none;fill-opacity:0.13;stroke:#000000;stroke-width:1.13386;stroke-linecap:round;stroke-linejoin:round;stroke-miterlimit:4;stroke-dasharray:none;stroke-dashoffset:0;stroke-opacity:1"
       id="rect891"
       width="133.76074"
       height="8.979743"
       x="492.20215"
       y="776.56067" />
    <rect
       style="fill:none;fill-opacity:0.13;stroke:#000000;stroke-width:1.13386;stroke-linecap:round;stroke-linejoin:round;stroke-miterlimit:4;stroke-dasharray:none;stroke-dashoffset:0;stroke-opacity:1"
       id="rect893"
       width="83.249695"
       height="9.353899"
       x="492.40509"
       y="803.87402" />
    <rect
       style="fill:none;fill-opacity:0.13;stroke:#000000;stroke-width:1.13386;stroke-linecap:round;stroke-linejoin:round;stroke-miterlimit:4;stroke-dasharray:none;stroke-dashoffset:0;stroke-opacity:1"
       id="rect895"
       width="27.874634"
       height="9.1667986"
       x="519.71851"
       y="804.0611" />
    <rect
       style="fill:none;fill-opacity:0.13;stroke:#000000;stroke-width:1.13386;stroke-linecap:round;stroke-linejoin:round;stroke-miterlimit:4;stroke-dasharray:none;stroke-dashoffset:0;stroke-opacity:1"
       id="rect897"
       width="44.524536"
       height="8.6055803"
       x="537.28796"
       y="776.74774" />
    <path
       style="fill:none;stroke:#000000;stroke-width:1.13386;stroke-linecap:butt;stroke-linejoin:miter;stroke-miterlimit:4;stroke-dasharray:none;stroke-opacity:1"
       d="M 492.20214,780.86345 H 536.7267"
       id="path899" />
    <path
       id="path901"
       d="m 581.99957,780.86345 h 44.52456"
       style="fill:none;stroke:#000000;stroke-width:1.13386;stroke-linecap:butt;stroke-linejoin:miter;stroke-miterlimit:4;stroke-dasharray:none;stroke-opacity:1" />
    <path
       style="fill:none;stroke:#000000;stroke-width:1.13386;stroke-linecap:butt;stroke-linejoin:miter;stroke-miterlimit:4;stroke-dasharray:none;stroke-opacity:1"
       d="m 547.59309,808.55099 h 27.87462"
       id="path903"
       sodipodi:nodetypes="cc" />
    <path
       sodipodi:nodetypes="cc"
       id="path905"
       d="m 492.03093,808.55099 h 27.87462"
       style="fill:none;stroke:#000000;stroke-width:1.13386;stroke-linecap:butt;stroke-linejoin:miter;stroke-miterlimit:4;stroke-dasharray:none;stroke-opacity:1" />
    <text
       sodipodi:insensitive="true"
       xml:space="preserve"
       style="font-weight:bold;font-size:21.3333px;line-height:7.34071px;font-family:'Times New Roman';-inkscape-font-specification:'Times New Roman, Bold';fill:#000000"
       x="403.98386"
       y="220.98439"
       id="text919"
       transform="rotate(9.601791)"><tspan
         sodipodi:role="line"
         id="tspan917"
         x="403.98386"
         y="220.98439"
         style="font-style:italic;font-variant:normal;font-weight:bold;font-stretch:normal;font-size:12px;font-family:Arial;-inkscape-font-specification:'Arial, Bold Italic';font-variant-ligatures:normal;font-variant-caps:normal;font-variant-numeric:normal;font-variant-east-asian:normal;fill:#000000">100</tspan></text>
    <g
       sodipodi:insensitive="true"
       id="g969">
      <text
         id="text909"
         y="164.39775"
         x="285.65106"
         style="font-weight:bold;font-size:21.3333px;line-height:8.15633px;font-family:'Times New Roman';-inkscape-font-specification:'Times New Roman, Bold';fill:#000000"
         xml:space="preserve"><tspan
           y="164.39775"
           x="285.65106"
           id="tspan907"
           sodipodi:role="line">Map 2 - Units 1, 2, 3, and 4</tspan></text>
      <text
         id="text915"
         y="296.55838"
         x="109.71262"
         style="font-weight:bold;font-size:21.3333px;line-height:7.25007px;font-family:'Times New Roman';-inkscape-font-specification:'Times New Roman, Bold';fill:#000000"
         xml:space="preserve"><tspan
           style="font-style:normal;font-variant:normal;font-weight:bold;font-stretch:normal;font-size:10.6667px;font-family:'Times New Roman';-inkscape-font-specification:'Times New Roman, Bold';font-variant-ligatures:normal;font-variant-caps:normal;font-variant-numeric:normal;font-variant-east-asian:normal;fill:#000000"
           y="296.55838"
           x="109.71262"
           id="tspan913"
           sodipodi:role="line">N</tspan></text>
      <text
         id="text923"
         y="460.24597"
         x="213.71167"
         style="font-weight:bold;font-size:21.3333px;line-height:6.79694px;font-family:'Times New Roman';-inkscape-font-specification:'Times New Roman, Bold';fill:#000000"
         xml:space="preserve"><tspan
           style="font-style:normal;font-variant:normal;font-weight:bold;font-stretch:normal;font-size:14.6667px;font-family:Arial;-inkscape-font-specification:'Arial, Bold';font-variant-ligatures:normal;font-variant-caps:normal;font-variant-numeric:normal;font-variant-east-asian:normal;fill:#000000"
           y="460.24597"
           x="213.71167"
           id="tspan921"
           sodipodi:role="line">Unit 1</tspan></text>
      <text
         xml:space="preserve"
         style="font-weight:bold;font-size:21.3333px;line-height:7.47663px;font-family:'Times New Roman';-inkscape-font-specification:'Times New Roman, Bold';fill:#000000"
         x="383.65985"
         y="370.04456"
         id="text927"><tspan
           sodipodi:role="line"
           id="tspan925"
           x="383.65985"
           y="370.04456"
           style="font-style:normal;font-variant:normal;font-weight:bold;font-stretch:normal;font-size:14.6667px;font-family:Arial;-inkscape-font-specification:'Arial, Bold';font-variant-ligatures:normal;font-variant-caps:normal;font-variant-numeric:normal;font-variant-east-asian:normal;fill:#000000">Unit 2</tspan></text>
      <text
         id="text931"
         y="567.22339"
         x="364.93881"
         style="font-weight:bold;font-size:21.3333px;line-height:7.47663px;font-family:'Times New Roman';-inkscape-font-specification:'Times New Roman, Bold';fill:#000000"
         xml:space="preserve"><tspan
           style="font-style:normal;font-variant:normal;font-weight:bold;font-stretch:normal;font-size:14.6667px;font-family:Arial;-inkscape-font-specification:'Arial, Bold';font-variant-ligatures:normal;font-variant-caps:normal;font-variant-numeric:normal;font-variant-east-asian:normal;fill:#000000"
           y="567.22339"
           x="364.93881"
           id="tspan929"
           sodipodi:role="line">Unit 3</tspan></text>
      <text
         xml:space="preserve"
         style="font-weight:bold;font-size:21.3333px;line-height:7.47663px;font-family:'Times New Roman';-inkscape-font-specification:'Times New Roman, Bold';fill:#000000"
         x="581.56805"
         y="582.78375"
         id="text935"><tspan
           sodipodi:role="line"
           id="tspan933"
           x="581.56805"
           y="582.78375"
           style="font-style:normal;font-variant:normal;font-weight:bold;font-stretch:normal;font-size:14.6667px;font-family:Arial;-inkscape-font-specification:'Arial, Bold';font-variant-ligatures:normal;font-variant-caps:normal;font-variant-numeric:normal;font-variant-east-asian:normal;fill:#000000">Unit 4</tspan></text>
      <text
         transform="rotate(-51.221643)"
         id="text939"
         y="675.38965"
         x="-65.827263"
         style="font-weight:bold;font-size:21.3333px;line-height:5.04675px;font-family:'Times New Roman';-inkscape-font-specification:'Times New Roman, Bold';letter-spacing:-0.79px;fill:#000000"
         xml:space="preserve"><tspan
           style="font-style:normal;font-variant:normal;font-weight:bold;font-stretch:normal;font-size:12px;font-family:Arial;-inkscape-font-specification:'Arial, Bold';font-variant-ligatures:normal;font-variant-caps:normal;font-variant-numeric:normal;font-variant-east-asian:normal;fill:#000000"
           y="675.38965"
           x="-65.827263"
           id="tspan937"
           sodipodi:role="line">Poipu Rd.</tspan></text>
      <text
         xml:space="preserve"
         style="font-weight:bold;font-size:21.3333px;line-height:5.04675px;font-family:'Times New Roman';-inkscape-font-specification:'Times New Roman, Bold';letter-spacing:-0.79px;fill:#000000"
         x="268.50711"
         y="634.83685"
         id="text943"
         transform="rotate(0.00598386)"><tspan
           sodipodi:role="line"
           id="tspan941"
           x="268.50711"
           y="634.83685"
           style="font-style:italic;font-variant:normal;font-weight:bold;font-stretch:normal;font-size:12px;font-family:Arial;-inkscape-font-specification:'Arial, Bold Italic';font-variant-ligatures:normal;font-variant-caps:normal;font-variant-numeric:normal;font-variant-east-asian:normal;fill:#000000">Hoai Heiau</tspan></text>
      <text
         transform="rotate(0.00598386)"
         id="text947"
         y="706.53967"
         x="466.42279"
         style="font-weight:bold;font-size:21.3333px;line-height:5.04675px;font-family:'Times New Roman';-inkscape-font-specification:'Times New Roman, Bold';letter-spacing:-0.79px;fill:#000000"
         xml:space="preserve"><tspan
           style="font-style:italic;font-variant:normal;font-weight:bold;font-stretch:normal;font-size:12px;font-family:Arial;-inkscape-font-specification:'Arial, Bold Italic';font-variant-ligatures:normal;font-variant-caps:normal;font-variant-numeric:normal;font-variant-east-asian:normal;fill:#000000"
           y="706.53967"
           x="466.42279"
           id="tspan945"
           sodipodi:role="line">Koloa Landing</tspan></text>
      <text
         xml:space="preserve"
         style="font-weight:bold;font-size:21.3333px;line-height:5.04675px;font-family:'Times New Roman';-inkscape-font-specification:'Times New Roman, Bold';letter-spacing:-0.79px;fill:#000000"
         x="-144.12288"
         y="741.90173"
         id="text951"
         transform="rotate(-33.953579)"><tspan
           sodipodi:role="line"
           id="tspan949"
           x="-144.12288"
           y="741.90173"
           style="font-style:italic;font-variant:normal;font-weight:bold;font-stretch:normal;font-size:12px;font-family:Arial;-inkscape-font-specification:'Arial, Bold Italic';font-variant-ligatures:normal;font-variant-caps:normal;font-variant-numeric:normal;font-variant-east-asian:normal;fill:#000000">Hoai Bay</tspan></text>
      <text
         transform="rotate(-33.953579)"
         id="text955"
         y="693.13702"
         x="-190.42735"
         style="font-weight:bold;font-size:21.3333px;line-height:5.04675px;font-family:'Times New Roman';-inkscape-font-specification:'Times New Roman, Bold';letter-spacing:-0.79px;fill:#000000"
         xml:space="preserve"><tspan
           style="font-style:italic;font-variant:normal;font-weight:bold;font-stretch:normal;font-size:12px;font-family:Arial;-inkscape-font-specification:'Arial, Bold Italic';font-variant-ligatures:normal;font-variant-caps:normal;font-variant-numeric:normal;font-variant-east-asian:normal;fill:#000000"
           y="693.13702"
           x="-190.42735"
           id="tspan953"
           sodipodi:role="line">Kolopa</tspan></text>
      <text
         transform="rotate(0.00598386)"
         id="text959"
         y="723.35107"
         x="127.50069"
         style="font-weight:bold;font-size:21.3333px;line-height:6.16824px;font-family:'Times New Roman';-inkscape-font-specification:'Times New Roman, Bold';letter-spacing:0.16px;fill:#000000"
         xml:space="preserve"><tspan
           style="font-style:italic;font-variant:normal;font-weight:bold;font-stretch:normal;font-size:14.6667px;font-family:'Times New Roman';-inkscape-font-specification:'Times New Roman, Bold Italic';font-variant-ligatures:normal;font-variant-caps:normal;font-variant-numeric:normal;font-variant-east-asian:normal;fill:#000000"
           y="723.35107"
           x="127.50069"
           id="tspan957"
           sodipodi:role="line">Pacific Ocean</tspan></text>
      <text
         xml:space="preserve"
         style="font-weight:bold;font-size:21.3333px;line-height:6.16824px;font-family:'Times New Roman';-inkscape-font-specification:'Times New Roman, Bold';letter-spacing:-0.08px;fill:#000000"
         x="186.61601"
         y="861.2674"
         id="text963"
         transform="rotate(0.00598386)"><tspan
           sodipodi:role="line"
           id="tspan961"
           x="186.61601"
           y="861.2674"
           style="font-style:normal;font-variant:normal;font-weight:bold;font-stretch:normal;font-size:16px;font-family:'Times New Roman';-inkscape-font-specification:'Times New Roman, Bold';font-variant-ligatures:normal;font-variant-caps:normal;font-variant-numeric:normal;font-variant-east-asian:normal;fill:#000000">Coastline</tspan></text>
      <text
         transform="rotate(0.00598386)"
         id="text967"
         y="780.72388"
         x="184.88545"
         style="font-weight:bold;font-size:21.3333px;line-height:6.72899px;font-family:'Times New Roman';-inkscape-font-specification:'Times New Roman, Bold';letter-spacing:0.16px;fill:#000000"
         xml:space="preserve"><tspan
           style="font-style:normal;font-variant:normal;font-weight:bold;font-stretch:normal;font-size:16px;font-family:'Times New Roman';-inkscape-font-specification:'Times New Roman, Bold';font-variant-ligatures:normal;font-variant-caps:normal;font-variant-numeric:normal;font-variant-east-asian:normal;fill:#000000"
           y="780.72388"
           x="184.88545"
           id="tspan965"
           sodipodi:role="line">Critical Habitat Units 1, 2, 3, and 4</tspan></text>
      <text
         transform="rotate(0.00598386)"
         id="text971"
         y="808.9057"
         x="186.61053"
         style="font-weight:bold;font-size:21.3333px;line-height:6.72899px;font-family:'Times New Roman';-inkscape-font-specification:'Times New Roman, Bold';letter-spacing:0.16px;fill:#000000"
         xml:space="preserve"><tspan
           style="font-style:normal;font-variant:normal;font-weight:bold;font-stretch:normal;font-size:16px;font-family:'Times New Roman';-inkscape-font-specification:'Times New Roman, Bold';font-variant-ligatures:normal;font-variant-caps:normal;font-variant-numeric:normal;font-variant-east-asian:normal;fill:#000000"
           y="808.9057"
           x="186.61053"
           id="tspan969"
           sodipodi:role="line">Elevation (100-ft. contours)</tspan></text>
      <text
         transform="rotate(0.00598386)"
         id="text975"
         y="835.3457"
         x="186.95892"
         style="font-weight:bold;font-size:21.3333px;line-height:6.16824px;font-family:'Times New Roman';-inkscape-font-specification:'Times New Roman, Bold';letter-spacing:-0.66px;fill:#000000"
         xml:space="preserve"><tspan
           style="font-style:normal;font-variant:normal;font-weight:bold;font-stretch:normal;font-size:16px;font-family:'Times New Roman';-inkscape-font-specification:'Times New Roman, Bold';font-variant-ligatures:normal;font-variant-caps:normal;font-variant-numeric:normal;font-variant-east-asian:normal;fill:#000000"
           y="835.3457"
           x="186.95892"
           id="tspan973"
           sodipodi:role="line">Major Road</tspan></text>
      <text
         id="text979"
         y="773.15668"
         x="486.11752"
         style="font-style:normal;font-variant:normal;font-weight:bold;font-stretch:normal;font-size:10.6667px;line-height:7.25007px;font-family:'Times New Roman';-inkscape-font-specification:'Times New Roman, Bold';font-variant-ligatures:normal;font-variant-caps:normal;font-variant-numeric:normal;font-variant-east-asian:normal;letter-spacing:-0.28px;fill:#000000"
         xml:space="preserve"><tspan
           y="773.15668"
           x="486.11752"
           id="tspan977"
           sodipodi:role="line">0.1</tspan></text>
      <text
         xml:space="preserve"
         style="font-style:normal;font-variant:normal;font-weight:bold;font-stretch:normal;font-size:10.6667px;line-height:7.25007px;font-family:'Times New Roman';-inkscape-font-specification:'Times New Roman, Bold';font-variant-ligatures:normal;font-variant-caps:normal;font-variant-numeric:normal;font-variant-east-asian:normal;letter-spacing:-0.28px;fill:#000000"
         x="575.46082"
         y="773.15668"
         id="text983"><tspan
           sodipodi:role="line"
           id="tspan981"
           x="575.46082"
           y="773.15668">0.1</tspan></text>
      <text
         id="text987"
         y="800.63361"
         x="541.07141"
         style="font-style:normal;font-variant:normal;font-weight:bold;font-stretch:normal;font-size:10.6667px;line-height:7.25007px;font-family:'Times New Roman';-inkscape-font-specification:'Times New Roman, Bold';font-variant-ligatures:normal;font-variant-caps:normal;font-variant-numeric:normal;font-variant-east-asian:normal;letter-spacing:-0.28px;fill:#000000"
         xml:space="preserve"><tspan
           y="800.63361"
           x="541.07141"
           id="tspan985"
           sodipodi:role="line">0.1</tspan></text>
      <text
         xml:space="preserve"
         style="font-style:normal;font-variant:normal;font-weight:bold;font-stretch:normal;font-size:10.6667px;line-height:7.25007px;font-family:'Times New Roman';-inkscape-font-specification:'Times New Roman, Bold';font-variant-ligatures:normal;font-variant-caps:normal;font-variant-numeric:normal;font-variant-east-asian:normal;letter-spacing:-0.28px;fill:#000000"
         x="486.4631"
         y="800.63361"
         id="text991"><tspan
           sodipodi:role="line"
           id="tspan989"
           x="486.4631"
           y="800.63361">0.1</tspan></text>
      <text
         id="text995"
         y="800.63361"
         x="517.22345"
         style="font-style:normal;font-variant:normal;font-weight:bold;font-stretch:normal;font-size:10.6667px;line-height:7.25007px;font-family:'Times New Roman';-inkscape-font-specification:'Times New Roman, Bold';font-variant-ligatures:normal;font-variant-caps:normal;font-variant-numeric:normal;font-variant-east-asian:normal;letter-spacing:-0.28px;fill:#000000"
         xml:space="preserve"><tspan
           y="800.63361"
           x="517.22345"
           id="tspan993"
           sodipodi:role="line">0</tspan></text>
      <text
         xml:space="preserve"
         style="font-style:normal;font-variant:normal;font-weight:bold;font-stretch:normal;font-size:10.6667px;line-height:7.25007px;font-family:'Times New Roman';-inkscape-font-specification:'Times New Roman, Bold';font-variant-ligatures:normal;font-variant-caps:normal;font-variant-numeric:normal;font-variant-east-asian:normal;letter-spacing:-0.28px;fill:#000000"
         x="535.02295"
         y="772.81104"
         id="text999"><tspan
           sodipodi:role="line"
           id="tspan997"
           x="535.02295"
           y="772.81104">0</tspan></text>
      <text
         id="text1003"
         y="772.81104"
         x="619.70038"
         style="font-style:normal;font-variant:normal;font-weight:bold;font-stretch:normal;font-size:10.6667px;line-height:7.25007px;font-family:'Times New Roman';-inkscape-font-specification:'Times New Roman, Bold';font-variant-ligatures:normal;font-variant-caps:normal;font-variant-numeric:normal;font-variant-east-asian:normal;letter-spacing:-0.28px;fill:#000000"
         xml:space="preserve"><tspan
           y="772.81104"
           x="619.70038"
           id="tspan1001"
           sodipodi:role="line">0.2    Miles</tspan></text>
      <text
         xml:space="preserve"
         style="font-style:normal;font-variant:normal;font-weight:bold;font-stretch:normal;font-size:10.6667px;line-height:7.25007px;font-family:'Times New Roman';-inkscape-font-specification:'Times New Roman, Bold';font-variant-ligatures:normal;font-variant-caps:normal;font-variant-numeric:normal;font-variant-east-asian:normal;letter-spacing:-0.28px;fill:#000000"
         x="569.06671"
         y="800.46082"
         id="text1007"><tspan
           sodipodi:role="line"
           id="tspan1005"
           x="569.06671"
           y="800.46082">0.2    Kilometers</tspan></text>
    </g>
  </g>
</svg>
