<?xml version="1.0" encoding="UTF-8" standalone="no"?>
<svg
   xmlns:dc="http://purl.org/dc/elements/1.1/"
   xmlns:cc="http://creativecommons.org/ns#"
   xmlns:rdf="http://www.w3.org/1999/02/22-rdf-syntax-ns#"
   xmlns:svg="http://www.w3.org/2000/svg"
   xmlns="http://www.w3.org/2000/svg"
   xmlns:sodipodi="http://sodipodi.sourceforge.net/DTD/sodipodi-0.dtd"
   xmlns:inkscape="http://www.inkscape.org/namespaces/inkscape"
   version="1.1"
   id="svg140"
   width="544.64001"
   height="722.56"
   viewBox="0 0 544.64001 722.56"
   sodipodi:docname="er09se14.005.svg"
   inkscape:version="1.0 (4035a4f, 2020-05-01)">
  <metadata
     id="metadata146">
    <rdf:RDF>
      <cc:Work
         rdf:about="">
        <dc:format>image/svg+xml</dc:format>
        <dc:type
           rdf:resource="http://purl.org/dc/dcmitype/StillImage" />
        <dc:title></dc:title>
      </cc:Work>
    </rdf:RDF>
  </metadata>
  <defs
     id="defs144" />
  <sodipodi:namedview
     inkscape:document-rotation="0"
     pagecolor="#ffffff"
     bordercolor="#666666"
     borderopacity="1"
     objecttolerance="10"
     gridtolerance="10"
     guidetolerance="10"
     inkscape:pageopacity="0"
     inkscape:pageshadow="2"
     inkscape:window-width="1280"
     inkscape:window-height="751"
     id="namedview142"
     showgrid="false"
     inkscape:snap-global="true"
     inkscape:zoom="0.88067141"
     inkscape:cx="414.2988"
     inkscape:cy="594.17725"
     inkscape:window-x="0"
     inkscape:window-y="23"
     inkscape:window-maximized="0"
     inkscape:current-layer="g148" />
  <g
     inkscape:groupmode="layer"
     inkscape:label="Image"
     id="g148">
    <path
       id="path18438-1"
       style="opacity:0.999;fill:#868686;fill-opacity:1;stroke:#6f6f6f;stroke-width:0.666667;stroke-linecap:round;stroke-linejoin:round;stroke-miterlimit:4;stroke-dasharray:none;stroke-dashoffset:0;stroke-opacity:1"
       d="m 329.7196,237.98161 35.02902,69.44683 0.79923,12.93774 -9.74836,1.98634 -11.58343,-22.70764 -9.23271,-22.14742 -28.47478,-67.88949 6.11989,-1.77564 z"
       sodipodi:nodetypes="ccccccccc" />
    <path
       sodipodi:nodetypes="ccccccccccccccccccccc"
       inkscape:connector-curvature="0"
       id="path14359-1-7-5-3-0-73-1-9-8-5-14-26"
       d="M 120.6505,278.42056 116.50881,273.696 89.2584,235.80471 76.49876,218.9002 26.477254,187.61609 1.439521,176.90828 v 261.19403 l 2.766174,-0.46206 15.763659,-5.39407 21.116409,-2.7866 34.019357,-4.21549 41.05205,-10.49435 17.599,-15.57442 -7.04909,-29.8496 15.19239,-50.65767 z M 20.102064,325.70908 v -21.74545 h 83.768596 l 0,21.74545 z"
       style="fill:#e4e4e4;fill-opacity:1;stroke:#000000;stroke-width:0.666667;stroke-linecap:round;stroke-linejoin:round;stroke-miterlimit:4;stroke-dasharray:none;stroke-opacity:1" />
    <path
       sodipodi:nodetypes="ccccc"
       inkscape:connector-curvature="0"
       id="path14359-1-7-5-3-0-73-1-9-8-5-14-8-10-30-3"
       d="m 512.10589,599.13529 -7.23759,-8.38036 -7.23758,8.38036 7.23758,-25.15374 z"
       style="fill:none;fill-opacity:1;stroke:#000000;stroke-width:0.666667;stroke-linecap:round;stroke-linejoin:round;stroke-miterlimit:4;stroke-dasharray:none;stroke-opacity:1" />
    <path
       style="fill:#000000;fill-opacity:1;stroke:#000000;stroke-width:0.666667;stroke-linecap:round;stroke-linejoin:round;stroke-miterlimit:4;stroke-dasharray:none;stroke-opacity:1"
       d="m 504.8683,590.75493 -7.23758,8.38036 7.23758,-25.15374 z"
       id="path14359-1-7-5-3-0-73-1-9-8-5-14-8-10-30-3-9"
       inkscape:connector-curvature="0"
       sodipodi:nodetypes="cccc" />
    <text
       id="text41715"
       y="571.15118"
       x="501.20438"
       style="font-size:10.6667px;line-height:10.1332px;font-family:Arial;-inkscape-font-specification:Arial;letter-spacing:-0.04px"
       xml:space="preserve"><tspan
         y="571.15118"
         x="501.20438"
         id="tspan41713"
         sodipodi:role="line">N</tspan></text>
    <path
       style="fill:none;fill-opacity:1;stroke:#000000;stroke-width:1.33333;stroke-linecap:butt;stroke-linejoin:miter;stroke-miterlimit:4;stroke-dasharray:none;stroke-opacity:1"
       d="m 295.50571,698.9768 v -5.58166 h 159.46883 v 5.58166 z"
       id="path14359-1-7-5-3-0-73-1-9-8-5-14-8-10-30-3-2-3"
       inkscape:connector-curvature="0"
       sodipodi:nodetypes="ccccc" />
    <path
       style="fill:none;fill-opacity:1;stroke:#000000;stroke-width:1.33333333;stroke-linecap:round;stroke-linejoin:miter;stroke-miterlimit:4;stroke-dasharray:none;stroke-opacity:1"
       d="M 270.78,562.69482 V 701.85788 H 16.371106 V 562.69482 Z"
       id="path14359-1-7-5-3-0-73-1-9-8-5-14-7"
       inkscape:connector-curvature="0"
       sodipodi:nodetypes="ccccc" />
    <path
       sodipodi:nodetypes="ccccc"
       inkscape:connector-curvature="0"
       id="path14359-1-7-5-3-0-73-1-9-8-5-14-7-5"
       d="m 539.77791,2.6553794 0.0619,717.0960506 H 1.432408 L 1.370518,2.6553794 Z"
       style="fill:none;fill-opacity:1;stroke:#000000;stroke-width:1.33333;stroke-linecap:round;stroke-linejoin:miter;stroke-miterlimit:4;stroke-dasharray:none;stroke-opacity:1" />
    <path
       sodipodi:nodetypes="cc"
       inkscape:connector-curvature="0"
       id="path14359-1-7-5-3-0-73-1-9-8-5-14-7-8"
       d="M 539.63295,543.29755 H 1.5588728"
       style="fill:none;fill-opacity:1;stroke:#000000;stroke-width:1.33333;stroke-linecap:butt;stroke-linejoin:miter;stroke-miterlimit:4;stroke-dasharray:none;stroke-opacity:1" />
    <path
       style="fill:none;fill-opacity:1;stroke:#000000;stroke-width:1.33333;stroke-linecap:butt;stroke-linejoin:miter;stroke-miterlimit:4;stroke-dasharray:none;stroke-opacity:1"
       d="m 1.1358284,75.192148 538.2502316,0.002"
       id="path14359-1-7-5-3-0-73-1-9-19"
       inkscape:connector-curvature="0"
       sodipodi:nodetypes="cc"
       inkscape:transform-center-x="0.16414611"
       inkscape:transform-center-y="0.033661301" />
    <path
       sodipodi:nodetypes="ccccc"
       inkscape:connector-curvature="0"
       id="path14359-1-7-5-3-0-73-1-9-8-5-14-8-10-30-3-2-3-5"
       d="m 295.50571,698.9768 v -5.58166 h 17.43288 v 5.58166 z"
       style="fill:#000000;fill-opacity:1;stroke:#000000;stroke-width:1.33333;stroke-linecap:butt;stroke-linejoin:miter;stroke-miterlimit:4;stroke-dasharray:none;stroke-opacity:1" />
    <path
       style="fill:#000000;fill-opacity:1;stroke:#000000;stroke-width:1.33333;stroke-linecap:butt;stroke-linejoin:miter;stroke-miterlimit:4;stroke-dasharray:none;stroke-opacity:1"
       d="m 331.22937,698.9768 v -5.58166 h 17.26587 v 5.58166 z"
       id="path14359-1-7-5-3-0-73-1-9-8-5-14-8-10-30-3-2-3-5-3"
       inkscape:connector-curvature="0"
       sodipodi:nodetypes="ccccc" />
    <text
       id="text847"
       y="669.92145"
       x="492.2496"
       style="font-size:10.6667px;line-height:4.22221px;font-family:Arial;-inkscape-font-specification:Arial;letter-spacing:0.3px"
       xml:space="preserve"><tspan
         y="669.92145"
         x="492.2496"
         id="tspan845"
         sodipodi:role="line">Miles</tspan></text>
    <text
       id="text847-5-9"
       y="658.72351"
       x="414.35352"
       style="font-size:10.6667px;line-height:2.63888px;font-family:Arial;-inkscape-font-specification:Arial;letter-spacing:0px"
       xml:space="preserve"><tspan
         y="658.72351"
         x="414.35352"
         sodipodi:role="line"
         id="tspan867-8">0.12</tspan></text>
    <text
       id="text847-5-2"
       y="658.89368"
       x="349.94846"
       style="font-size:10.6667px;line-height:2.63888px;font-family:Arial;-inkscape-font-specification:Arial;letter-spacing:0px"
       xml:space="preserve"><tspan
         y="658.89368"
         x="349.94846"
         sodipodi:role="line"
         id="tspan867-0">0.06</tspan></text>
    <text
       id="text847-5-7"
       y="658.94446"
       x="318.27426"
       style="font-size:10.6667px;line-height:2.63888px;font-family:Arial;-inkscape-font-specification:Arial;letter-spacing:0px"
       xml:space="preserve"><tspan
         y="658.94446"
         x="318.27426"
         sodipodi:role="line"
         id="tspan867-4">0.03</tspan></text>
    <text
       id="text847-5-8"
       y="658.888"
       x="293.49365"
       style="font-size:10.6667px;line-height:2.63888px;font-family:Arial;-inkscape-font-specification:Arial;letter-spacing:0px"
       xml:space="preserve"><tspan
         y="658.888"
         x="293.49365"
         sodipodi:role="line"
         id="tspan867-5">0</tspan></text>
    <path
       sodipodi:nodetypes="ccccc"
       inkscape:connector-curvature="0"
       id="path14359-1-7-5-3-0-73-1-9-8-5-14-8-10-30-3-2-3-62"
       d="m 296.45061,669.85282 v -5.42465 h 168.32475 v 5.42465 z"
       style="fill:none;fill-opacity:1;stroke:#000000;stroke-width:1.33333;stroke-linecap:butt;stroke-linejoin:miter;stroke-miterlimit:4;stroke-dasharray:none;stroke-opacity:1" />
    <path
       style="fill:#000000;fill-opacity:1;stroke:#000000;stroke-width:1.33333;stroke-linecap:butt;stroke-linejoin:miter;stroke-miterlimit:4;stroke-dasharray:none;stroke-opacity:1"
       d="m 296.45061,669.85282 v -5.42465 h 21.30869 v 5.42465 z"
       id="path14359-1-7-5-3-0-73-1-9-8-5-14-8-10-30-3-2-3-5-5"
       inkscape:connector-curvature="0"
       sodipodi:nodetypes="ccccc" />
    <path
       sodipodi:nodetypes="ccccc"
       inkscape:connector-curvature="0"
       id="path14359-1-7-5-3-0-73-1-9-8-5-14-8-10-30-3-2-3-5-3-1"
       d="m 339.29242,669.85282 v -5.42465 h 21.26171 v 5.42465 z"
       style="fill:#000000;fill-opacity:1;stroke:#000000;stroke-width:1.33333;stroke-linecap:butt;stroke-linejoin:miter;stroke-miterlimit:4;stroke-dasharray:none;stroke-opacity:1" />
    <text
       id="text11053-2-2"
       y="318.20102"
       x="24.743301"
       style="font-style:italic;font-variant:normal;font-weight:bold;font-stretch:normal;font-size:10.6667px;line-height:4.22221px;font-family:Arial;-inkscape-font-specification:'Arial Bold Italic';letter-spacing:0.25px"
       xml:space="preserve"><tspan
         y="318.20102"
         x="24.743301"
         id="tspan11051-5-3"
         sodipodi:role="line">GREAT POND</tspan></text>
    <text
       xml:space="preserve"
       style="font-size:10.6667px;line-height:4.22221px;font-family:Arial;-inkscape-font-specification:Arial;letter-spacing:0.3px"
       x="458.50296"
       y="698.78918"
       id="text847-19"><tspan
         sodipodi:role="line"
         id="tspan845-3"
         x="458.50296"
         y="698.78918">Kilometers</tspan></text>
    <text
       xml:space="preserve"
       style="font-size:10.6667px;line-height:2.63888px;font-family:Arial;-inkscape-font-specification:Arial;letter-spacing:0px"
       x="478.76038"
       y="658.81049"
       id="text847-5-9-7"><tspan
         id="tspan867-8-8"
         sodipodi:role="line"
         x="478.76038"
         y="658.81049">0.18</tspan></text>
    <path
       style="fill:#000000;fill-opacity:1;stroke:#000000;stroke-width:1.33333;stroke-linecap:butt;stroke-linejoin:miter;stroke-miterlimit:4;stroke-dasharray:none;stroke-opacity:1"
       d="m 425.20457,669.85282 v -5.42465 l 64.23036,0 v 5.42465 z"
       id="path14359-1-7-5-3-0-73-1-9-8-5-14-8-10-30-3-2-3-5-3-1-0"
       inkscape:connector-curvature="0"
       sodipodi:nodetypes="ccccc" />
    <path
       sodipodi:nodetypes="ccccc"
       inkscape:connector-curvature="0"
       id="path14359-1-7-5-3-0-73-1-9-8-5-14-8-10-30-3-2-3-5-3-0"
       d="m 402.15405,698.9768 v -5.58166 h 52.82049 v 5.58166 z"
       style="fill:#000000;fill-opacity:1;stroke:#000000;stroke-width:1.33333;stroke-linecap:butt;stroke-linejoin:miter;stroke-miterlimit:4;stroke-dasharray:none;stroke-opacity:1" />
    <text
       id="text17388"
       y="571.18121"
       x="327.66183"
       style="font-size:10.66670000000000051px;line-height:10.32729999999999926px;font-family:Arial;-inkscape-font-specification:Arial;letter-spacing:0.75px"
       xml:space="preserve"><tspan
         y="571.18121"
         x="327.66183"
         id="tspan17386"
         sodipodi:role="line">Mayor Roads</tspan></text>
    <text
       xml:space="preserve"
       style="font-size:10.66670000000000051px;line-height:10.32729999999999926px;font-family:Arial;-inkscape-font-specification:Arial;letter-spacing:0.75px"
       x="326.89948"
       y="614.70709"
       id="text17388-8"><tspan
         sodipodi:role="line"
         id="tspan17386-0"
         x="326.89948"
         y="614.70709">Coastline</tspan></text>
    <text
       xml:space="preserve"
       style="font-size:10.66670000000000051px;line-height:10.32729999999999926px;font-family:Arial;-inkscape-font-specification:Arial;letter-spacing:0.75px"
       x="326.2561"
       y="636.10217"
       id="text17388-6"><tspan
         sodipodi:role="line"
         id="tspan17386-5"
         x="326.2561"
         y="636.10217">Critical Habitat</tspan></text>
    <text
       xml:space="preserve"
       style="font-size:10.6667px;line-height:10.3273px;font-family:Arial;-inkscape-font-specification:Arial;letter-spacing:0.75px"
       x="326.95383"
       y="593.43323"
       id="text17388-7"><tspan
         sodipodi:role="line"
         id="tspan17386-3"
         x="326.95383"
         y="593.43323">Roads</tspan></text>
    <text
       xml:space="preserve"
       style="font-style:normal;font-variant:normal;font-weight:bold;font-stretch:normal;font-size:10.6667px;line-height:10.3273px;font-family:Arial;-inkscape-font-specification:'Arial Bold';letter-spacing:0.28px"
       x="174.53958"
       y="693.72168"
       id="text17388-4"><tspan
         sodipodi:role="line"
         id="tspan17386-2"
         x="174.53958"
         y="693.72168">St. Croix, USVI</tspan></text>
    <text
       xml:space="preserve"
       style="font-style:normal;font-variant:normal;font-weight:bold;font-stretch:normal;font-size:10.6667px;line-height:4.22221px;font-family:Arial;-inkscape-font-specification:'Arial Bold';letter-spacing:0.25px"
       x="245.82132"
       y="463.06876"
       id="text11053-2-2-0"><tspan
         sodipodi:role="line"
         id="tspan11051-5-3-3"
         x="245.82132"
         y="463.06876">Great Pond Bay</tspan></text>
    <text
       id="text11053-2-2-0-3"
       y="-222.8297"
       x="377.57666"
       style="font-style:normal;font-variant:normal;font-weight:bold;font-stretch:normal;font-size:10.6667px;line-height:12px;font-family:Arial;-inkscape-font-specification:'Arial Bold';text-align:center;letter-spacing:-0.24px;text-anchor:middle"
       xml:space="preserve"
       transform="rotate(65.482103)"><tspan
         y="-222.8297"
         x="377.57666"
         id="tspan11051-5-3-3-2"
         sodipodi:role="line">Entrance to</tspan><tspan
         y="-210.8297"
         x="377.45667"
         sodipodi:role="line"
         id="tspan6148">East End Marine Park</tspan></text>
    <text
       id="text11053-2-2-0-7"
       y="276.32077"
       x="89.77784"
       style="font-style:normal;font-variant:normal;font-weight:bold;font-stretch:normal;font-size:10.6667px;line-height:4.22221px;font-family:Arial;-inkscape-font-specification:'Arial Bold';letter-spacing:0.25px"
       xml:space="preserve"
       transform="rotate(-16.798848)"><tspan
         y="276.32077"
         x="89.77784"
         id="tspan11051-5-3-3-1"
         sodipodi:role="line">Road 62</tspan></text>
    <text
       id="text18153"
       y="44.622444"
       x="34.642071"
       style="font-size:16px;line-height:19.12719999999999843px;font-family:Arial;-inkscape-font-specification:Arial;text-align:start;letter-spacing:0.38px;text-anchor:start;fill:#000000;fill-opacity:1"
       xml:space="preserve"><tspan
         id="tspan18155"
         y="44.622444"
         x="34.642071"
         sodipodi:role="line">Map for Unit 3 Great Pond Critical Habitat for <tspan
   id="tspan18157"
   style="font-style:italic;font-variant:normal;font-weight:normal;font-stretch:normal;font-size:16px;font-family:Arial;-inkscape-font-specification:'Arial Italic';text-align:start;text-anchor:start;fill:#000000;fill-opacity:1;">Agave eggersiana</tspan></tspan></text>
    <path
       sodipodi:nodetypes="cssssssssssssssssssscsssssssssssssssssssssssssscsssssssssssccsssssscssscsscssssssssscsssssssssssssscscsssssssssssssssssssssssssssscsssscsssssssscsssscscssssscssssssssssssssssscsssssssssssssssssscssssssscssssssssssc"
       id="path18159"
       d="m 204.53879,610.65075 c 0.35317,1.29366 1.40713,0.83912 2.15228,1.3359 0.29325,0.1955 0.19889,0.27237 0.59373,0.37108 0.51334,0.12833 1.11308,-0.10397 1.63277,0 0.40908,0.0818 0.63139,0.37718 1.11324,0.29687 0.45416,-0.0757 0.57265,-0.78454 1.03903,-0.66795 0.86958,0.21739 1.91394,1.09374 2.96867,0.74216 0.5633,-0.18777 0.88495,-1.59847 1.55853,-1.26168 0.38735,0.19367 0.55867,0.63288 0.81638,0.8906 0.24106,0.24104 1.90001,0.18304 2.2265,0.0742 0.30276,-0.10094 0.36515,-0.4453 0.74217,-0.4453 0.46009,0 0.52006,0.396 0.89059,0.51951 0.53767,0.17923 2.10723,0.2624 2.6718,0.0742 0.83564,-0.27855 1.03767,-1.11279 1.92963,-1.41011 0.52764,-0.17588 0.88969,1.08881 1.70698,0.81638 0.2629,-0.0876 0.5987,-0.92523 0.96481,-0.74217 0.80579,0.40289 0.46531,2.26457 1.18747,2.74602 0.48054,0.32036 5.11945,2.67328 5.56624,2.22649 0.34072,-0.34072 0.85564,-0.26192 1.18746,-0.59373 0.17085,-0.17085 0.0869,-0.82905 0.22265,-0.96482 0.31355,-0.31354 1.96175,-0.22265 2.52336,-0.22265 2.50445,0.54989 5.07258,-0.60667 7.27321,-1.70698 0.53378,-0.26688 0.49964,-1.41011 1.11325,-1.41011 0.93116,0 1.29874,0.99131 2.15228,1.11325 0.73,0.10429 1.96888,0.30852 2.67179,0.0742 0.32767,-0.10922 0.71613,-0.53254 1.18747,-0.29686 0.98896,0.49448 1.60778,1.65245 2.67179,2.07806 0.61368,0.24547 2.63076,-0.2471 2.89445,0.14843 0.067,0.1004 0.33566,1.29711 0.22265,1.41012 -0.18307,0.18305 -0.71037,0.0954 -0.81638,0.51951 -0.12934,0.51736 0.16381,1.00826 -0.0742,1.48432 -0.38965,0.7793 -1.47481,0.1421 -2.15228,0.59374 -0.24755,0.16504 -0.62261,0.9291 -0.81638,1.18746 -0.22132,0.2951 -1.17515,0.58759 -1.48433,0.74217 -0.54266,0.27133 -0.77843,0.93952 -1.26168,1.26168 -0.23693,0.15796 -0.59591,0.1528 -0.74217,0.4453 -0.11407,0.22814 -0.35646,0.72755 -0.51951,0.89059 -0.0646,0.0646 -0.0636,-0.57881 -0.4453,-1.11324 -0.50158,-0.70222 -1.40945,-0.66795 -2.2265,-0.66795 -0.67191,0 -1.46844,0.78461 -1.70698,1.26168 -0.10483,0.20972 -0.64325,-0.0494 -0.66795,0 -0.14648,0.29298 0.0148,0.65318 -0.22265,0.8906 -0.30792,0.30792 -0.72947,-1.08788 -0.81638,-1.26168 -0.31667,-0.63335 -1.60885,-0.63525 -2.15227,-0.81639 -0.40118,-0.13372 -0.82373,0.51585 -1.26168,0.29687 -0.5753,-0.28765 -2.0578,-0.52964 -2.67179,-0.22265 -0.51447,0.25724 -1.44783,1.3286 -1.85542,1.41011 -0.86412,0.17283 -2.01373,-1.17757 -2.82022,-0.37108 -1.04492,1.53813 -1.92826,3.04105 -3.04288,4.52721 -0.13168,0.17558 -0.0196,0.34771 -0.14844,0.51952 -0.31573,0.42097 -0.68641,0.60279 -0.89059,1.11324 -0.1927,0.48174 -0.38034,1.71623 -0.66795,2.00385 -0.11957,0.11957 0.19378,0.1773 0.0742,0.29687 -0.14326,0.14326 -0.60279,-0.52859 -0.66794,-0.59374 -0.56269,-0.56268 -1.08864,-0.59373 -1.85542,-0.59373 -0.59504,0 -0.88973,0.44444 -1.26168,0.81638 -0.14363,0.14363 -0.37495,-0.48305 -0.59373,-0.51951 -0.57555,-0.096 -1.43316,-0.19961 -1.85541,0.22265 -0.61406,0.61406 -0.59911,1.67121 -1.63277,1.92963 -0.30993,0.0775 -0.9573,-0.0724 -1.26168,-0.14844 -1.12493,-0.28123 -2.06045,0.57612 -2.67179,1.18747 -0.70164,0.1296 -2.28909,-0.0348 -2.59758,0.8906 -0.16601,0.49803 -1.04981,1.31495 -1.41011,1.85541 -0.21465,0.32197 -0.23091,0.67895 -0.44529,0.96482 -1.00371,1.33826 -3.27227,1.70529 -4.74986,1.33589 -0.77831,-0.19457 -1.40862,-0.80124 -2.2265,-0.96481 -1.43379,-0.28676 -2.97933,-0.27989 -4.37877,0 -0.23336,0.0466 -0.55126,0.35692 -0.81639,0.4453 -1.23741,-0.40489 -2.24604,0.73122 -3.41396,0.96481 -0.57026,0.11405 -1.33857,0.26109 -1.85541,0.51952 -0.69558,0.34779 -1.86344,1.34392 -2.37493,1.85541 -0.0753,0.0753 -0.0277,0.35217 -0.0742,0.4453 -0.53175,1.06348 -0.0686,2.18656 -1.18747,2.74601 -0.54877,0.27439 -2.16359,0.34257 -2.74601,0.14843 -0.85699,-0.28566 -0.51677,-1.28825 -1.7812,-0.44529 -1.42084,0.30632 -2.86772,0.52644 -4.0819,1.33589 -0.1452,0.0968 -0.30158,0.40936 -0.44529,0.44529 -0.42076,0.10516 -1.15079,0.11176 -1.41012,0.37108 -0.17924,0.17926 -1.40128,-0.75099 -1.85541,-0.29686 -0.94412,0.94412 -0.98613,2.54467 -1.26168,2.82023 -0.17599,0.17598 -0.82389,-0.0333 -1.03903,0.0742 -0.53225,0.26613 -1.26051,0.61809 -1.85542,0.81638 -0.64868,0.21624 -1.65117,0.29687 -2.30071,0.29687 -0.0456,0 -0.32419,0.19532 -0.4453,0.0742 -0.51807,-0.51806 -1.32012,-1.00981 -2.15228,-0.59374 -1.26859,-0.27447 -1.81552,1.14759 -2.44914,1.7812 -0.20566,0.20565 -1.0078,-0.28125 -1.18747,-0.37108 -1.40174,-0.70087 -0.74994,-1.7786 -2.74601,-1.11325 -0.24619,0.0821 -0.84668,0.0944 -1.03903,0.22265 -0.78262,0.52176 -1.36397,1.79524 -2.2265,2.2265 -0.8094,0.4047 -1.80536,0.0985 -2.52336,0.81638 -0.36957,0.36958 -1.38793,1.78858 -2.07805,1.55855 -0.81744,-0.27249 -0.84736,-0.83703 -1.48433,-1.26169 -0.94783,-0.63187 -2.05479,-0.50787 -2.96866,-0.96481 -0.82464,-0.41231 -1.56328,-1.45559 -2.44915,-1.63276 -0.48374,-0.0967 -1.38168,0.16266 -1.70698,0 -0.43122,-0.21561 -0.92741,-0.37109 -1.41011,-0.37109 -0.94168,0 -2.12796,0.12412 -2.82023,0.81638 -0.17397,0.17397 -0.26531,0.49849 -0.51952,0.66795 -0.1772,0.11813 -0.40881,0.001 -0.51951,0.22265 -0.25237,0.50475 -0.28007,1.08669 -0.37108,1.63277 -0.0697,0.41824 -0.28053,0.64275 -0.14844,1.03903 -0.24952,0.25242 -0.11842,0.65294 -0.4453,0.81638 -0.28528,0.14265 -0.67509,0.0778 -0.96481,0.22265 -1.8508,0.92539 1.80016,4.95354 1.11325,5.64046 -0.37057,0.37056 -1.09168,-1.54172 -1.18747,-1.7812 -0.85846,-2.14617 -1.06456,-4.38115 -1.78119,-6.53106 -0.10776,-0.32336 -0.56539,-1.05319 -1.03904,-0.81638 -0.3571,0.17856 -1.09126,0.49753 -1.33589,0.74217 -0.9648,0.96479 2.10848,5.16473 1.55854,5.71467 -0.39871,0.39871 -2.15441,-6.23312 -3.19131,-5.71467 -0.44085,0.22043 -1.01016,0.12534 -1.41011,0.4453 -0.24211,0.1937 -0.57554,0.26958 -0.74217,0.51951 -0.74604,1.11907 1.88741,3.9757 1.3359,4.52721 -0.22615,0.22616 -0.85271,-1.59332 -0.8906,-1.70698 -0.18764,-0.56292 -1.61912,-2.18256 -2.15228,-2.44914 -0.73122,-0.36561 -2.95089,1.07773 -3.26551,1.70698 -0.14119,0.28236 0.95162,2.51897 0.29686,2.30071 -0.37715,-0.12572 -0.90627,-0.95122 -1.11325,-1.26168 -0.22058,-0.33086 -0.77212,-0.17838 -1.03903,-0.4453 -0.28358,-0.28358 -0.23494,-0.84711 -0.37108,-1.18747 -0.084,-0.2099 -0.41794,-0.31634 -0.51951,-0.51951 -0.71767,-1.43532 -0.74558,-1.71039 -1.70699,-2.6718 -0.11595,-0.11594 0.58333,-0.36067 0.66795,-0.4453 0.0369,-0.0369 -0.35764,-0.56237 -0.37108,-0.59373 -0.24315,-0.56733 -0.0181,-1.22353 -0.22265,-1.63276 -0.46964,-0.93926 -0.61,-0.49412 -1.03903,-1.7812 -0.0494,-0.14827 -0.6254,-0.20137 -0.81638,-0.29686 -0.20053,-0.10029 -0.26635,-0.67663 -0.37108,-0.51952 -0.30458,0.45686 0.0833,1.77208 -0.14844,2.00385 -0.16423,0.16422 -0.0854,0.68284 -0.29686,0.96481 -1.52212,2.0295 1.02466,1.76684 1.63276,2.37493 0.42896,0.42896 0.19988,0.99349 0.4453,1.48433 0.11841,0.23684 1.12574,0.30937 1.41011,0.59373 0.45548,0.45548 0.48211,1.22306 0.59374,1.7812 0.23243,1.16217 1.03903,0.1253 1.03903,2.59758 -0.16914,0.29608 -0.49855,2.57095 -0.8906,2.37493 -1.41296,-0.70649 -3.01312,-1.25792 -4.30456,-2.2265 -0.49499,-0.37124 -0.14657,-1.38475 -0.8906,-1.63276 -0.63883,-0.21295 -1.26549,0.66604 -1.85541,0.37108 -0.31215,-0.15608 -1.70321,-1.33967 -1.92963,-1.11325 -0.19442,0.19443 -0.66357,2.19157 -1.18747,1.92963 -0.69365,-0.34683 0.20895,-2.00841 -0.66794,-2.30071 -0.30258,-0.10083 -2.50156,-0.0851 -2.6718,0 -0.18812,0.094 -0.003,0.29761 -0.29687,0.37108 -0.76211,0.19053 -1.51961,-0.0872 -2.22649,0.14843 -0.64995,0.21666 -0.80427,0.98148 -0.8906,1.03904 -0.23153,0.15436 -0.76597,0.20584 -1.03903,0.29686 -0.98684,0.32895 -2.42878,-0.50933 -3.19132,-0.8906 -0.24813,-0.12407 -0.88926,0 -1.18746,0 -1.77511,-0.49665 -3.05414,0.59937 -4.378775,1.26168 -0.253386,0.1267 -1.313989,-0.0218 -1.410114,0.0742 -0.802848,0.80286 -1.380492,0.54926 -2.003846,0.96482 -0.359096,0.23939 -0.587447,0.66481 -1.039032,0.89059 -0.747672,0.37384 -1.66166,-0.15749 -2.449134,0 -0.479259,0.0959 -3.337797,0.88866 -3.562394,1.11325 -0.191632,0.19163 -0.302686,0.78219 -0.519515,0.8906 -0.801982,0.40099 -2.031748,-0.49162 -2.820228,0.29687 -0.301659,-0.25048 -1.134767,0.97198 -1.335898,1.03903 -0.389442,0.12981 -0.803118,0.12656 -1.187464,0.22265 -0.456497,0.11411 -1.571,0.97103 -2.00385,1.18746 -0.377888,0.18894 -1.089468,0.091 -1.48433,0.22265 -0.657249,0.21908 -0.951963,1.41012 -1.706981,1.41012 -0.66427,0 -1.652691,-0.84182 -1.781196,-1.48433 -0.121625,-0.60811 0.331518,-1.11816 0.07422,-1.63277 -0.116377,-0.23275 -0.547698,-0.15102 -0.742165,-0.29686 -0.855946,-0.64197 -1.233174,-1.27311 -2.374929,-1.55855 -0.250237,-0.0625 -5.587336,-0.16614 -5.863106,-0.0742 -0.802425,0.26747 -1.6195,0.86111 -2.449134,0.96482 -1.291909,0.16149 -3.077942,0.16408 -4.230342,-0.29687 -0.421531,-0.16861 -0.731412,-0.59194 -1.187465,-0.66795 -0.403701,-0.0673 -3.138256,0.38167 -3.562393,0.59373 -0.191135,0.0955 -0.04944,0.54425 -0.296866,0.66795 -0.488585,0.24429 -0.866213,-0.65549 -1.410114,-0.51951 -0.816642,0.20416 -1.029533,1.01112 -1.781197,1.26168 -1.059446,0.35314 -4.703857,-1.53033 -5.269374,-0.96482 -0.298824,-10e-4 -0.63731,0.0538 -0.890598,0.22265 -0.852441,0.5683 -1.32113,1.41228 -2.226496,1.92963 -0.731325,0.41791 -1.505405,0.60427 -2.226496,0.96482 -0.548358,0.27418 -0.848113,0.83224 -1.410114,1.11325 -1.085563,0.54278 -2.101204,1.17815 -3.117094,1.85541 -0.181452,0.12096 -1.521731,1.89223 -1.706969,1.70698 -0.287735,-0.28774 -0.320202,-0.91976 -0.593733,-1.26168 -0.430834,-0.53854 -1.346835,-2.26791 -1.113247,-2.96866 0.172483,-0.51746 0.788556,-0.90299 1.113247,-1.3359 0.591883,-0.7892 2.565664,-3.62065 3.339733,-4.00769 0.447041,-0.22352 0.735307,-0.43843 1.113248,-0.81639 0.527273,-0.52726 0.971555,-1.44044 1.335898,-2.07806 0.22477,-0.39335 0.825653,-0.62152 0.964815,-1.03903 0.238996,-0.71699 -0.188517,-0.68203 0.445299,-1.63276 0.162129,-0.2432 0.501859,-0.38611 0.667949,-0.59374 0.413643,-0.51704 0.599412,-1.34156 1.113248,-1.85541 0.384606,-0.3846 0.674591,-0.60369 0.964814,-1.03903 0.296672,-0.44501 0.918057,-0.426 1.187465,-0.96481 0.234691,-0.46938 0.446197,-1.56214 0.519516,-1.85542 -0.148747,-1.14222 1.100481,-4.40431 0.593732,-5.41779 -0.23375,-0.46751 -0.445299,-0.50404 -0.445299,-1.03904 0,-0.78476 0.400087,-1.48774 0.222649,-2.37492 -0.203273,-1.01641 -0.719554,-1.8618 -1.039031,-2.82023 -0.141488,-0.42446 0.0043,-0.9515 -0.148433,-1.41012 -0.416348,-1.24905 -1.0439,-2.51 -1.558547,-3.71082 -0.330372,-0.77088 -0.338616,-1.60959 -0.593733,-2.37493 -0.399936,-1.19981 -0.901633,-2.63069 -1.26168,-3.71083 -0.324054,-1.66323 -1.881682,-2.97324 -2.374929,-4.45299 -0.211247,-0.63374 0.697765,-3.07268 1.187464,-3.56239 0.255084,-0.25508 1.042472,-0.46589 1.113248,-0.8906 0.111022,-0.66612 -0.08395,-1.33177 0,-2.00384 0.138199,-1.10561 1.704632,-5.20811 2.523362,-5.8631 1.099865,-0.87989 2.550441,-0.90866 3.63661,-1.63277 0.492837,-0.32856 -0.260829,-1.82677 0.371082,-2.30071 0.476782,-0.35759 1.30078,-0.33596 1.706981,-0.74216 0.253937,-0.25394 0.631576,-0.72398 0.964815,-0.8906 0.44677,-0.22339 1.201561,0.4312 1.48433,0.14843 0.876101,-0.8761 2.198162,-1.32645 3.339744,-0.74216 0.392287,0.77096 1.187454,0.4656 1.713623,0.81638 0.708519,0.47234 1.077416,1.1988 1.889243,1.46941 1.485196,0.49506 3.030512,0.66031 4.513198,1.15454 0.647393,0.2158 0.777543,1.01852 1.259496,1.2595 0.749565,0.37478 2.18268,-0.64046 3.883439,0.20991 0.26745,0.13372 1.259128,-1.36482 1.994207,-0.62974 0.996416,0.99642 2.594863,0.45776 2.938823,0.62974 0.351771,0.17589 0.473082,0.683 0.7347,0.94462 0.527565,0.52756 6.590269,0.53031 7.452025,0.31488 0.285376,-0.0714 0.682207,-1.02858 1.259495,-1.2595 0.618161,-0.24726 1.165124,-0.21168 1.78428,-0.31488 0.374815,-0.0624 2.769369,-1.49974 3.148739,-1.78428 1.090237,-0.81768 2.789319,-0.97482 3.988403,-1.57437 0.948403,-0.4742 3.513503,-1.61906 3.88345,-2.72891 1.05024,-3.15072 2.806002,-4.2076 5.667731,-3.25369 2.40763,-0.17105 4.79196,-0.45753 6.96828,-1.39024 0.59444,-0.25475 0.93814,-1.09804 1.52,-1.29199 2.20181,-0.73394 5.71512,-1.68418 8.05598,-1.216 0.69392,0.13878 1.23319,0.86151 1.824,1.216 1.023,0.6138 2.44661,1.47586 3.648,1.596 1.70144,0.17013 3.22173,-1.80913 5.01598,-0.912 0.40695,0.20347 0.61508,0.87753 0.988,1.06399 0.84834,0.42418 1.54161,0.41626 0.456,1.14 -0.67231,0.4482 -0.0761,1.33617 -0.0761,1.216 0,-0.25713 -1.22952,0.49143 -1.064,0.988 0.1372,0.41162 0.7604,0.3808 0.91199,0.684 0.29131,0.5826 0.30401,2.12055 0.30401,2.73599 0,0.33969 0.0759,0.63876 0.0759,0.98799 0,0.076 0,0.30401 0,0.22801 0,-1.74269 0.0673,-4.12642 1.82399,-4.712 1.12476,-0.37491 1.44814,1.37629 1.74801,1.976 0.0529,0.10581 0.51422,1.08177 0.60799,0.988 0.13642,-0.13642 -0.15199,-0.35467 -0.22799,-0.532 -0.19928,-0.46497 -0.39178,-1.42043 -0.15201,-1.9 0.12419,-0.24837 0.29793,-0.12464 0.608,-0.22799 0.48068,-0.16024 0.37611,-0.98412 0.608,-1.216 0.15761,-0.15761 0.34243,-0.1913 0.456,-0.532 0.22765,-0.68298 -0.99073,-0.0815 -1.216,-0.53201 -0.19591,-0.3918 1.44717,-0.45281 0.988,-0.91199 -0.11099,-0.11098 -1.38014,-0.11557 -1.21599,-0.60799 0.0889,-0.26668 0.29756,-0.98157 0.456,-1.14001 0.32231,-0.32231 2.43198,-0.7626 2.43198,-1.06399 0,-0.43067 0.36912,0.78166 0.608,1.13999 0.61548,0.92321 1.61222,1.54432 2.204,2.432 0.52685,0.79028 1.24442,1.86663 1.672,2.50799 0.63797,0.0112 1.14446,-0.18345 1.52009,0.38001 0.28445,0.42667 0.33898,0.99563 0.608,1.44399 0.83696,1.39492 1.76415,3.01377 2.73599,4.17999 0.28246,0.33895 0.29649,0.90449 0.608,1.216 0.74427,0.74427 1.80952,0.90476 2.736,1.368 0.70037,0.35019 1.1451,1.03665 1.82399,1.444 0.26597,0.15957 0.58903,0.13301 0.836,0.37999 0.68411,0.68412 0.8729,1.6329 1.368,2.128 0.35364,0.35364 1.26471,0.45307 1.52,0.83599 0.43798,0.65699 0.88152,1.55035 1.52,1.976 0.81175,0.54118 1.52484,-0.13292 2.35599,0.532 0.34749,0.278 0.53329,0.8154 0.912,1.14 0.29383,0.25185 0.64494,0.2557 0.912,0.456 0.88697,0.66524 1.64342,1.73371 2.58399,2.204 0.0692,0.0346 2.7528,-0.33494 3.11599,-0.456 0.13659,-0.0455 0.61478,-0.0136 0.684,-0.15201 0.32761,-0.6552 -0.43749,-1.431 0.38,-1.976 0.43341,-0.28893 0.29615,2.1123 0.38,2.28 0.15233,0.30464 1.22613,0.71272 1.596,0.83601 0.71203,0.23734 0.99274,-2.06148 1.13999,-2.356 0.13442,-0.26883 0.81901,-0.22234 1.064,-0.30401 0.11544,-0.0385 0.47039,-0.7456 0.68399,-0.53199 0.25182,0.25181 0.16988,0.77787 0.38001,0.98799 0.22046,0.22047 0.60799,-0.47239 0.60799,-0.60799 0,-0.28039 -0.31323,-0.56897 -0.37999,-0.83599 -0.11055,-0.44222 0.10407,-0.92027 0.228,-1.29201 0.11152,-0.33456 -0.23121,-0.75359 -0.076,-1.06399 0.17537,-0.35073 1.449,-0.29901 1.672,-0.0759 0.45206,0.45205 -1.444,1.11492 -1.444,1.67199 0,2.54001 1.09199,1.244 1.748,1.9 0.23836,0.23836 -0.38125,2.95054 0.53199,1.67199 0.37826,-0.52954 0.78784,-2.44479 0.68401,-2.96398 -0.10678,-0.53395 -0.80445,-1.4354 -0.456,-1.9 0.31786,-0.42381 1.43104,0.30399 1.9,0.30399 0.98653,0 -0.3485,1.57003 -0.30401,1.74801 0.13306,0.53221 2.12643,1.21599 2.584,1.21599 0.10505,0 2.15222,0.55954 2.20399,0.456 1.44447,-2.88893 -2.97697,-1.93706 -2.432,-3.57199 0.145,-0.43498 0.72963,-0.59289 0.83601,-0.912 0.0541,-0.16217 -0.076,-0.50445 -0.076,-0.532 0,-0.1107 0.39829,-0.41657 0.456,-0.532 0.45377,-0.90755 -0.31862,-2.04468 0.76,-2.58399 0.39846,-0.19923 2.59487,0.98528 3.496,0.76 0.42799,-0.107 1.12808,-0.30798 1.59599,-0.15201 0.11154,0.0372 0.24523,0.2194 0.37999,0.15201 0.87353,-0.43677 -0.10202,-1.91731 1.52,-0.836 0.26367,0.67705 0.87328,-0.30529 0.9879,-0.0761 0.21549,0.43099 -0.38539,0.97722 -0.22801,1.29199 0.11008,0.22015 0.95059,0.53083 1.14,0.152 0.38503,-0.77006 -1.16818,-1.95123 1.368,-1.44399 0.26598,0.0532 0.44064,0.41031 0.68399,0.532 1.05953,0.52975 3.24903,0.74098 4.332,0.37999 0.72219,-0.24073 -0.0123,-1.19128 0.228,-1.672 0.16204,-0.32407 0.93593,-0.3399 1.216,-0.75999 0.35721,-0.53582 0.43634,-1.57634 0.83599,-1.976 0.13546,-0.13546 -0.18454,1.47297 0.68401,2.052 1.02283,0.68189 3.84068,1.28738 5.1046,1.09073 z"
       style="font-variation-settings:normal;opacity:1;vector-effect:none;fill:none;fill-opacity:1;stroke:#000000;stroke-width:1.33333333;stroke-linecap:round;stroke-linejoin:round;stroke-miterlimit:4;stroke-dasharray:none;stroke-dashoffset:0;stroke-opacity:1;stop-color:#000000;stop-opacity:1" />
    <path
       id="path18163"
       d="m 217.29415,592.15606 c -0.70995,2.40296 1.16977,1.01777 1.74799,1.59599 0.96406,0.96406 1.33901,1.75959 2.888,1.14 0.30854,-0.12342 0.30251,-0.456 0.75999,-0.456 0.42154,0 0.75791,0.20847 1.14,0.304 1.35382,0.33845 2.34645,-0.67444 3.11599,-1.444 0.15024,-0.15024 0.63458,-0.17857 0.76001,-0.304 0.79337,-0.79338 -3.67405,-1.24568 -3.952,-1.29199 -1.42405,-0.23734 -3.59568,-1.18277 -5.09199,-0.68401 -0.50555,0.16852 -0.9497,0.82628 -1.36799,1.14001 z"
       style="font-variation-settings:normal;opacity:1;vector-effect:none;fill:none;fill-opacity:1;stroke:#000000;stroke-width:1.33333333;stroke-linecap:round;stroke-linejoin:round;stroke-miterlimit:4;stroke-dasharray:none;stroke-dashoffset:0;stroke-opacity:1;stop-color:#000000;stop-opacity:1" />
    <path
       style="fill:none;fill-opacity:1;stroke:#000000;stroke-width:1.33357;stroke-linecap:round;stroke-linejoin:round;stroke-miterlimit:4;stroke-dasharray:none;stroke-opacity:1"
       d="m 287.34116,589.35657 h 33.06859"
       id="path14359-1-7-5-3-0-73-1-9-8-5-14"
       inkscape:connector-curvature="0"
       sodipodi:nodetypes="cc" />
    <path
       style="fill:none;fill-opacity:1;stroke:#000000;stroke-width:2.66667;stroke-linecap:butt;stroke-linejoin:round;stroke-miterlimit:4;stroke-dasharray:none;stroke-opacity:1"
       d="m 286.52156,610.72444 h 35.08382"
       id="path14359-1-7-5-3-0-73-1-9-8-5-14-1"
       inkscape:connector-curvature="0"
       sodipodi:nodetypes="cc" />
    <path
       sodipodi:nodetypes="cc"
       inkscape:connector-curvature="0"
       id="path14359-1-7-5-3-0-73-1-9-8-5-14-1-5"
       d="M 320.18387,566.94838 H 287.67931"
       style="fill:none;fill-opacity:1;stroke:#000000;stroke-width:2;stroke-linecap:butt;stroke-linejoin:round;stroke-miterlimit:4;stroke-dasharray:4, 4;stroke-dashoffset:0;stroke-opacity:1" />
    <path
       d="m 320.59632,631.70697 a 16.927375,8.6815644 0 0 1 -16.92737,8.68156 16.927375,8.6815644 0 0 1 -16.92738,-8.68156 16.927375,8.6815644 0 0 1 16.92738,-8.68157 16.927375,8.6815644 0 0 1 16.92737,8.68157 z"
       style="opacity:0.999;fill:#868686;fill-opacity:1;stroke:#6f6f6f;stroke-width:0.66666667;stroke-linecap:round;stroke-linejoin:round;stroke-miterlimit:4;stroke-dasharray:none;stroke-dashoffset:0;stroke-opacity:1"
       id="path18438" />
    <path
       sodipodi:nodetypes="ccccc"
       inkscape:connector-curvature="0"
       id="path14359-1-7-5-3-0-73-1-9-8-5-14-1-3"
       d="m 198.54575,632.28175 8.99274,0 v 9.74933 l -8.99274,0 z"
       style="fill:none;fill-opacity:1;stroke:#000000;stroke-width:2.66667;stroke-linecap:butt;stroke-linejoin:round;stroke-miterlimit:4;stroke-dasharray:none;stroke-opacity:1" />
    <text
       xml:space="preserve"
       style="font-size:10.6667px;line-height:2.63888px;font-family:Arial;-inkscape-font-specification:Arial;letter-spacing:0px"
       x="391.45517"
       y="711.79779"
       id="text847-5-9-0"><tspan
         id="tspan867-8-3"
         sodipodi:role="line"
         x="391.45517"
         y="711.79779">0.16</tspan></text>
    <text
       xml:space="preserve"
       style="font-size:10.6667px;line-height:2.63888px;font-family:Arial;-inkscape-font-specification:Arial;letter-spacing:0px"
       x="338.24893"
       y="711.88086"
       id="text847-5-2-9"><tspan
         id="tspan867-0-4"
         sodipodi:role="line"
         x="338.24893"
         y="711.88086">0.08</tspan></text>
    <text
       xml:space="preserve"
       style="font-size:10.6667px;line-height:2.63888px;font-family:Arial;-inkscape-font-specification:Arial;letter-spacing:0px"
       x="312.18665"
       y="711.73114"
       id="text847-5-7-9"><tspan
         id="tspan867-4-6"
         sodipodi:role="line"
         x="312.18665"
         y="711.73114">0.04</tspan></text>
    <text
       xml:space="preserve"
       style="font-size:10.6667px;line-height:2.63888px;font-family:Arial;-inkscape-font-specification:Arial;letter-spacing:0px"
       x="292.30438"
       y="712.07562"
       id="text847-5-8-5"><tspan
         id="tspan867-5-1"
         sodipodi:role="line"
         x="292.30438"
         y="712.07562">0</tspan></text>
    <text
       id="text847-5-9-7-3"
       y="712.11151"
       x="444.94434"
       style="font-size:10.6667px;line-height:2.63888px;font-family:Arial;-inkscape-font-specification:Arial;letter-spacing:0px"
       xml:space="preserve"><tspan
         y="712.11151"
         x="444.94434"
         sodipodi:role="line"
         id="tspan867-8-8-2">0.24</tspan></text>
    <path
       sodipodi:nodetypes="cccc"
       inkscape:connector-curvature="0"
       id="path14359-1-7-5-3-0-73-1-9-8-5-14-5"
       d="m 311.40715,205.2387 19.35231,30.98573 36.23621,74.33641 2.02062,28.70701"
       style="fill:none;fill-opacity:1;stroke:#000000;stroke-width:1.33357;stroke-linecap:round;stroke-linejoin:round;stroke-miterlimit:4;stroke-dasharray:none;stroke-opacity:1" />
    <path
       sodipodi:nodetypes="cccccccc"
       inkscape:connector-curvature="0"
       id="path14359-1-7-5-3-0-73-1-9-8-5-14-2"
       d="m 367.09533,310.63721 13.07223,1.86727 33.12267,22.6444 46.88447,12.66207 31.22902,13.87728 3.07939,5.7611 0.88302,12.63337 1.38687,2.28843"
       style="fill:none;fill-opacity:1;stroke:#000000;stroke-width:1.33357;stroke-linecap:round;stroke-linejoin:round;stroke-miterlimit:4;stroke-dasharray:none;stroke-opacity:1" />
    <path
       sodipodi:nodetypes="ccccccccccccccccccccccccccccccccccccccc"
       inkscape:connector-curvature="0"
       id="path14359-1-7-5-3-0-73-1-9-8-5-14-18"
       d="m 1.6088133,483.28565 13.3732787,-7.90811 29.522676,-15.25218 30.48685,-12.77779 18.35341,-5.70246 16.747542,-6.62393 13.01143,-3.06787 17.53664,-6.8201 3.81681,-1.88184 12.35672,-3.10145 4.78071,0.80281 5.2374,-1.52602 5.59161,-2.09987 2.57867,-1.59328 12.39624,-3.55092 10.38912,-2.51574 13.0479,-4.32661 13.23224,0.43428 17.6674,-6.04262 8.64683,-1.16958 15.19569,-3.77778 10.82502,-1.12385 40.62162,2.76116 9.66661,1.74432 15.59378,-0.87066 12.93746,1.34871 11.139,-1.40658 8.37523,-0.16944 7.0223,0.45393 2.61595,-0.71159 2.95153,0.25325 10.64985,-2.72782 9.11738,0.52513 11.36525,0.94427 53.0574,-0.4282 15.68745,-0.79265 30.94118,2.44307 8.59036,2.44873 8.84031,3.91596"
       style="fill:none;fill-opacity:1;stroke:#000000;stroke-width:1.33357;stroke-linecap:round;stroke-linejoin:round;stroke-miterlimit:4;stroke-dasharray:none;stroke-opacity:1" />
    <path
       style="fill:none;fill-opacity:1;stroke:#000000;stroke-width:2;stroke-linecap:butt;stroke-linejoin:round;stroke-miterlimit:4;stroke-dasharray:4, 4;stroke-dashoffset:0;stroke-opacity:1"
       d="M 2.0467216,140.66395 106.8533,244.06772 l 9.24914,5.89705 11.12174,3.74368 8.09066,-1.20997 11.30372,-1.62369 109.77334,-28.56307 64.51983,-20.58946 111.62607,-38.87693 104.13458,-30.0129"
       id="path14359-1-7-5-3-0-73-1-9-8-5-14-1-5-7"
       inkscape:connector-curvature="0"
       sodipodi:nodetypes="cccccccccc" />
    <path
       sodipodi:nodetypes="ccccc"
       inkscape:connector-curvature="0"
       id="path14359-1-7-5-3-0-73-1-9-8-5-14-6"
       d="m 20.102069,303.96363 83.768591,0 v 21.74545 l -83.768591,0 z"
       style="fill:none;fill-opacity:1;stroke:#000000;stroke-width:1.33357;stroke-linecap:round;stroke-linejoin:round;stroke-miterlimit:4;stroke-dasharray:none;stroke-opacity:1" />
  </g>
</svg>
