<?xml version="1.0" encoding="UTF-8" standalone="no"?>
<svg
   xmlns:dc="http://purl.org/dc/elements/1.1/"
   xmlns:cc="http://creativecommons.org/ns#"
   xmlns:rdf="http://www.w3.org/1999/02/22-rdf-syntax-ns#"
   xmlns:svg="http://www.w3.org/2000/svg"
   xmlns="http://www.w3.org/2000/svg"
   xmlns:sodipodi="http://sodipodi.sourceforge.net/DTD/sodipodi-0.dtd"
   xmlns:inkscape="http://www.inkscape.org/namespaces/inkscape"
   version="1.1"
   id="svg112583"
   width="580.47998"
   height="928"
   viewBox="0 0 580.47998 928"
   sodipodi:docname="er10fe06.080.svg"
   inkscape:version="1.0 (4035a4f, 2020-05-01)">
  <metadata
     id="metadata112589">
    <rdf:RDF>
      <cc:Work
         rdf:about="">
        <dc:format>image/svg+xml</dc:format>
        <dc:type
           rdf:resource="http://purl.org/dc/dcmitype/StillImage" />
        <dc:title></dc:title>
      </cc:Work>
    </rdf:RDF>
  </metadata>
  <defs
     id="defs112587" />
  <sodipodi:namedview
     inkscape:document-rotation="0"
     pagecolor="#ffffff"
     bordercolor="#666666"
     borderopacity="1"
     objecttolerance="10"
     gridtolerance="10"
     guidetolerance="10"
     inkscape:pageopacity="0"
     inkscape:pageshadow="2"
     inkscape:window-width="1280"
     inkscape:window-height="751"
     id="namedview112585"
     showgrid="false"
     inkscape:snap-global="false"
     inkscape:zoom="0.78803101"
     inkscape:cx="325.04462"
     inkscape:cy="319.47011"
     inkscape:window-x="0"
     inkscape:window-y="23"
     inkscape:window-maximized="0"
     inkscape:current-layer="g112591"
     showguides="false" />
  <g
     inkscape:groupmode="layer"
     inkscape:label="Image"
     id="g112591">
    <path
       style="fill:none;fill-opacity:1;stroke:#000000;stroke-width:2;stroke-linecap:butt;stroke-linejoin:miter;stroke-miterlimit:4;stroke-dasharray:none;stroke-opacity:1"
       d="m 404.1071,739.66819 -0.0818,171.37478 155.249,0.05 0.0889,-171.40329 z"
       id="path14359-1-7-5-3-0-73-1-9-8-5-14-5-8"
       inkscape:connector-curvature="0"
       sodipodi:nodetypes="ccccc" />
    <path
       id="path14242"
       d="m 416.93928,760.70395 c -0.21254,0.89235 -0.71779,1.94156 -0.62389,2.03086 0.3115,0.29515 1.09051,0.92536 1.35901,1.43029 0.20041,0.37699 0.75858,3.8537 0.51654,4.3468 -0.87643,1.7861 -0.8223,5.3199 -0.26997,7.7009 0.28341,1.2217 -0.86865,2.3699 -1.42633,3.50637 -0.14423,0.2938 -1.53401,1.4761 -1.89284,2.2072 -0.59415,1.2096 -0.11926,1.4797 -0.004,2.7554 0.71518,0.6774 0.13817,0.9631 0.62438,1.8773 0.60711,1.1416 2.11403,1.7171 3.00995,2.5658 1.56983,1.4871 2.52963,4.0533 3.50982,5.8967 0.42268,0.7947 -0.44032,2.6969 -0.68931,3.2044 -0.84025,1.7121 0.89699,4.7808 1.58362,6.0721 0.48414,0.9103 -0.86996,1.599 -0.40454,2.4742 0.86948,1.6348 2.20737,2.9483 3.63195,4.2978 0.6029,0.5711 0.92358,1.4464 1.51687,2.0084 0.58748,0.5565 1.43984,0.5068 2.096,1.1284 0.30552,0.2896 0.28142,0.9511 0.46652,1.2992 0.21651,0.4064 0.71678,0.3933 0.89964,0.5664 0.12449,0.118 0.41666,1.9806 0.50796,2.1521 0.15151,0.2849 1.6171,1.317 1.21542,1.723 -0.19048,0.1922 -2.33225,1.3622 -1.74925,1.9145 0.62457,0.5918 1.86052,-1.2377 2.51244,-0.6201 0.4315,0.4088 0.42009,1.1742 1.06471,1.5801 0.66245,0.4172 2.12687,0.6159 2.54341,1.2665 1.13221,1.7684 1.05991,5.9268 1.93774,7.2736 0.38008,0.5831 -0.14163,1.8005 0.0405,2.4673 0.18111,0.6632 0.7587,0.8615 1.20827,1.2873 0.77047,0.7299 1.43975,2.0329 2.71087,2.4254 1.39585,0.4309 2.60487,0.4674 3.73502,1.5381 0.61392,0.5815 0.12386,2.7868 -0.24188,3.3426 -0.33985,0.5164 -0.95671,0.5238 -1.32089,0.8917 -0.16233,0.164 0.10341,0.6155 0.16031,0.7233 0.58243,1.0951 -0.3517,2.1069 0.28598,3.3059 0.65786,1.2371 4.28312,2.1378 4.37372,4.2863 0.11447,0 3.15126,4.2544 3.7946,5.1663 0.30622,0.4342 1.08014,0.6512 1.49782,0.8474 0.49655,0.2333 0.89618,1.2703 1.21543,1.7231 0.42664,0.6046 1.55705,0.7607 2.09839,1.2734 0.85083,0.8061 0.9425,2.3349 1.38759,3.1719 0.16691,0.3138 1.45601,0.3468 1.79691,0.9878 0.67052,1.2609 0.92628,2.1871 0.94388,3.2556 0.0128,0.7765 -0.84782,1.5502 -0.41304,1.962 0.32869,0.3113 -0.18257,1.6258 0.0334,2.0317 0.5798,1.0904 1.61915,3.1056 2.438,3.8813 0.58444,0.5538 2.74873,-0.3492 3.40495,-0.489 1.16857,-0.2478 2.76528,0.2186 3.72072,0.6673 1.27919,0.6007 3.47677,-0.3832 4.75204,0.2157 1.11716,0.5246 2.6572,0.9457 3.59143,1.8308 0.5162,0.4888 0.97517,1.4952 1.36615,1.8656 0.53927,0.5108 1.73718,0.3839 2.38556,0.6884 0.59768,0.2807 1.20348,0.7092 1.79691,0.9879 1.42074,0.6672 3.58065,-0.9106 5.04157,-0.2245 1.38378,0.6499 0.95754,4.1939 2.4547,4.8972 1.07304,0.5043 2.40397,-1.4368 4.00789,0.082 0.76652,0.7262 2.24814,1.4879 3.59619,2.121 1.26574,0.5945 2.56098,1.9479 3.7541,2.6991 1.0259,0.6461 3.02453,5.2941 3.80889,6.0371 0.0105,0.01 0.43823,3.215 0.653,3.6189 0.46929,0.8825 1.65345,1.1197 1.82314,2.5843 l 31.97495,-4.7123 c 0.73224,-0.3728 1.90642,-0.3029 2.50769,-0.9104 0.42171,-0.4263 0.62975,-3.1178 0.0886,-3.6305 -0.55841,-0.5284 -1.9214,-0.2487 -2.38556,-0.6883 -0.65698,-0.6225 0.38519,-2.6355 -0.20075,-3.1906 -0.11794,-0.1117 -0.98098,-1.6647 -0.48081,-2.1698 0.97099,-0.9809 1.44956,-1.9039 2.17048,-3.373 0.43141,-0.879 -0.57259,-5.1755 -0.53089,-5.2176 0.90793,-0.9171 0.62851,-1.6677 1.00513,-2.048 0.57712,-0.5831 3.70589,-2.0055 3.20891,-3.3893 -0.67424,-1.8778 -2.18664,-1.3572 -3.45498,-2.5587 -0.63803,-0.6043 0.17547,-2.4055 -0.49511,-3.0406 -1.66777,-1.58 -3.54531,-2.3183 -3.34717,-5.0284 l -72.48055,-58.2335 -1.04746,-45.71065 m -52.75775,-19.47393 c 0,0.0417 0.30989,1.74287 0.1069,2.35182 -0.50081,1.50245 -1.28953,2.97339 -1.60351,4.54329 -0.15247,0.76235 0.8875,1.40085 1.17591,1.97767 0.22646,0.45293 0.26448,1.01003 0.48105,1.44317 0.30792,0.61583 -0.3436,3.62649 -0.4276,4.38294 -0.0936,0.84271 0.53651,1.50222 0.80176,2.24492 0.13104,0.36692 0.15034,0.80181 0.26725,1.17591 0.5893,1.88578 1.80115,1.38396 3.34872,1.37851 l 52.91422,-0.18625 c 5.4851,-0.056 18.03554,-0.93117 29.9527,-1.83357 l -1.01556,-17.90591"
       style="font-variation-settings:normal;opacity:1;vector-effect:none;fill:none;fill-opacity:1;stroke:#000000;stroke-width:1.33333;stroke-linecap:round;stroke-linejoin:round;stroke-miterlimit:4;stroke-dasharray:none;stroke-dashoffset:0;stroke-opacity:1;stop-color:#000000;stop-opacity:1"
       sodipodi:nodetypes="ccccsssssssssssccscsssssssssssssssssssssscsssssssssssssssssssssssssscssssscccsssssssccc" />
    <text
       y="848.82019"
       x="451.68982"
       id="text14273"
       style="font-style:normal;font-variant:normal;font-weight:normal;font-stretch:normal;font-size:13.3333px;line-height:5.27777px;font-family:Arial;-inkscape-font-specification:Arial;letter-spacing:0.5px;fill:#000000;fill-opacity:1"
       xml:space="preserve"><tspan
         id="tspan14271"
         style="font-style:normal;font-variant:normal;font-weight:normal;font-stretch:normal;font-size:13.3333px;font-family:Arial;-inkscape-font-specification:Arial;fill:#000000;fill-opacity:1">California</tspan></text>
    <path
       sodipodi:nodetypes="ccccc"
       inkscape:connector-curvature="0"
       id="path14359-1-7-5-3-0-73-1-9-8-5-14-8-1"
       d="m 29.996831,866.66311 -0.002,4.2325 H 168.33189 l 0.002,-4.2325 z"
       style="fill:none;fill-opacity:1;stroke:#000000;stroke-width:1.33333;stroke-linecap:butt;stroke-linejoin:miter;stroke-miterlimit:4;stroke-dasharray:none;stroke-opacity:1" />
    <path
       style="fill:#000000;fill-opacity:1;stroke:#000000;stroke-width:1.33333;stroke-linecap:butt;stroke-linejoin:miter;stroke-miterlimit:4;stroke-dasharray:none;stroke-opacity:1"
       d="m 29.996831,866.66311 -0.002,4.2325 h 35.597 l 0.002,-4.2325 z"
       id="path14359-1-7-5-3-0-73-1-9-8-5-14-8-2-59"
       inkscape:connector-curvature="0"
       sodipodi:nodetypes="ccccc" />
    <path
       sodipodi:nodetypes="ccccc"
       inkscape:connector-curvature="0"
       id="path14359-1-7-5-3-0-73-1-9-8-5-14-8-2-5-2"
       d="m 99.236443,866.66311 -0.002,4.2325 h 34.475797 l 0.002,-4.2325 z"
       style="fill:#000000;fill-opacity:1;stroke:#000000;stroke-width:1.33333;stroke-linecap:butt;stroke-linejoin:miter;stroke-miterlimit:4;stroke-dasharray:none;stroke-opacity:1" />
    <text
       id="text6661"
       y="861.97913"
       x="28.046492"
       style="font-size:8px;line-height:3.79999px;font-family:Arial;-inkscape-font-specification:Arial;letter-spacing:0px"
       xml:space="preserve"><tspan
         y="861.97913"
         x="28.046492"
         id="tspan6659"
         sodipodi:role="line">0</tspan></text>
    <text
       xml:space="preserve"
       style="font-size:8px;line-height:3.79999px;font-family:Arial;-inkscape-font-specification:Arial;letter-spacing:0.45px"
       x="97.301132"
       y="862.37805"
       id="text6661-34"><tspan
         style="font-size:8px"
         sodipodi:role="line"
         id="tspan6659-7"
         x="97.301132"
         y="862.37805">2</tspan></text>
    <text
       xml:space="preserve"
       style="font-size:8px;line-height:3.79999px;font-family:Arial;-inkscape-font-specification:Arial;letter-spacing:0.45px"
       x="131.37442"
       y="862.25287"
       id="text6661-5"><tspan
         style="font-size:8px"
         sodipodi:role="line"
         id="tspan6659-9"
         x="131.37442"
         y="862.25287">3</tspan></text>
    <text
       id="text6661-6-1"
       y="907.77283"
       x="119.25835"
       style="font-size:8px;line-height:3.79999px;font-family:Arial;-inkscape-font-specification:Arial;letter-spacing:0.45px"
       xml:space="preserve"><tspan
         y="907.77283"
         x="119.25835"
         id="tspan6659-4-9"
         sodipodi:role="line">Kilometers</tspan></text>
    <text
       xml:space="preserve"
       style="font-size:8px;line-height:3.79999px;font-family:Arial;-inkscape-font-specification:Arial;letter-spacing:0.45px"
       x="171.90965"
       y="871.44391"
       id="text6661-6-1-5"><tspan
         sodipodi:role="line"
         id="tspan6659-4-9-8"
         x="171.90965"
         y="871.44391"
         style="font-size:8px;letter-spacing:0.45px">Miles</tspan></text>
    <path
       id="path1486"
       style="fill:#000000;fill-opacity:1;stroke:#000000;stroke-width:1.33333;stroke-linecap:round;stroke-linejoin:round;stroke-miterlimit:4;stroke-dasharray:none;stroke-dashoffset:3.4"
       d="m 539.04718,766.42835 c 10e-6,5.71453 -4.63257,10.34723 -10.34716,10.34723 -5.71458,0 -10.34715,-4.6327 -10.34714,-10.34723 2e-5,-5.71455 4.61371,-10.32825 10.32828,-10.32825 l -5.35791,19.02448 5.29932,-1.1864 5.43759,1.1379 -5.379,-18.97598 c 5.71456,0 10.366,4.6137 10.36602,10.32825 z"
       sodipodi:nodetypes="ssscccccs" />
    <text
       xml:space="preserve"
       style="font-size:13.3333px;line-height:6.33332px;font-family:Arial;-inkscape-font-specification:Arial;letter-spacing:0.35px;stroke-width:1;stroke-miterlimit:4;stroke-dasharray:none"
       x="413.59052"
       y="904.65088"
       id="text1491"><tspan
         sodipodi:role="line"
         id="tspan1489"
         x="413.59052"
         y="904.65088">Location Index</tspan></text>
    <path
       sodipodi:nodetypes="cc"
       inkscape:connector-curvature="0"
       id="path14359-1-7-5-3-0-73-1-9-8-5-14"
       d="m 451.26156,773.39484 -0.003,10.6155"
       style="fill:none;fill-opacity:1;stroke:#000000;stroke-width:1.33333;stroke-linecap:round;stroke-linejoin:round;stroke-miterlimit:4;stroke-dasharray:none;stroke-opacity:1" />
    <path
       style="fill:none;fill-opacity:1;stroke:#000000;stroke-width:1.33333;stroke-linecap:round;stroke-linejoin:round;stroke-miterlimit:4;stroke-dasharray:none;stroke-opacity:1"
       d="m 455.29575,775.54564 -7.9467,6.819"
       id="path14359-1-7-5-3-0-73-1-9-8-5-14-8"
       inkscape:connector-curvature="0"
       sodipodi:nodetypes="cc" />
    <path
       style="fill:none;fill-opacity:1;stroke:#000000;stroke-width:1.33333;stroke-linecap:round;stroke-linejoin:round;stroke-miterlimit:4;stroke-dasharray:none;stroke-opacity:1"
       d="m 447.4851,775.34144 7.7066,7.3447"
       id="path14359-1-7-5-3-0-73-1-9-8-5-14-6"
       inkscape:connector-curvature="0"
       sodipodi:nodetypes="cc" />
    <path
       style="fill:none;fill-opacity:1;stroke:#000000;stroke-width:1.33333;stroke-linecap:round;stroke-linejoin:round;stroke-miterlimit:4;stroke-dasharray:none;stroke-opacity:1"
       d="m 446.16708,778.86264 h 10.61556"
       id="path14359-1-7-5-3-0-73-1-9-8-5-14-2"
       inkscape:connector-curvature="0"
       sodipodi:nodetypes="cc" />
    <path
       sodipodi:nodetypes="ccccc"
       inkscape:connector-curvature="0"
       id="path14359-1-7-5-3-0-73-1-9-8-5-14-5-8-0"
       d="m 22.741088,733.59631 -0.0181,90.61315 212.108192,0.031 0.006,-90.63075 z"
       style="fill:none;fill-opacity:1;stroke:#000000;stroke-width:1.33333;stroke-linecap:butt;stroke-linejoin:miter;stroke-miterlimit:4;stroke-dasharray:none;stroke-opacity:1" />
    <path
       sodipodi:nodetypes="ccccc"
       inkscape:connector-curvature="0"
       id="path14359-1-7-5-3-0-73-1-9-8-5-14-0"
       d="m 35.181577,811.90554 0.002,-17.6724 h 35.69857 l -0.002,17.3787 z"
       style="fill:none;fill-opacity:1;stroke:#000000;stroke-width:2;stroke-linecap:round;stroke-linejoin:round;stroke-miterlimit:4;stroke-dasharray:none;stroke-opacity:1" />
    <path
       style="fill:none;fill-opacity:1;stroke:#000000;stroke-width:2;stroke-linecap:butt;stroke-linejoin:round;stroke-miterlimit:4;stroke-dasharray:none;stroke-opacity:1"
       d="m 35.032324,755.41494 h 36.14967"
       id="path14359-1-7-5-3-0-73-1-9-8-5-14-0-3"
       inkscape:connector-curvature="0"
       sodipodi:nodetypes="cc" />
    <path
       style="font-variation-settings:normal;opacity:1;vector-effect:none;fill:none;fill-opacity:1;stroke:#000000;stroke-width:0.666667;stroke-linecap:butt;stroke-linejoin:miter;stroke-miterlimit:4;stroke-dasharray:none;stroke-dashoffset:0;stroke-opacity:1;stop-color:#000000;stop-opacity:1"
       d="m 39.789995,811.91534 17.307674,-17.2573"
       id="path5728"
       sodipodi:nodetypes="cc" />
    <text
       id="text7907-9"
       y="760.18622"
       x="77.825218"
       style="font-size:13.3333px;line-height:6.33332px;font-family:Arial;-inkscape-font-specification:Arial;letter-spacing:-0.15px"
       xml:space="preserve"><tspan
         y="760.18622"
         x="77.825218"
         id="tspan7905-3"
         sodipodi:role="line">Highways</tspan></text>
    <text
       xml:space="preserve"
       style="font-style:normal;font-variant:normal;font-weight:normal;font-stretch:normal;font-size:13.3333px;line-height:5.27777px;font-family:Arial;-inkscape-font-specification:Arial;letter-spacing:0px;fill:#000000;fill-opacity:1"
       id="text14273-1"
       x="434.56116"
       y="753.54773"><tspan
         style="font-style:normal;font-variant:normal;font-weight:normal;font-stretch:normal;font-size:13.3333px;font-family:Arial;-inkscape-font-specification:Arial;fill:#000000;fill-opacity:1"
         id="tspan14271-6">Oregon</tspan></text>
    <path
       style="fill:none;fill-opacity:1;stroke:#000000;stroke-width:2.66667;stroke-linecap:butt;stroke-linejoin:miter;stroke-miterlimit:4;stroke-dasharray:none;stroke-opacity:1"
       d="M 3.9079739,1.2419255 3.8898739,925.326 576.80605,926.08782 576.81205,1.2553255 Z"
       id="path14359-1-7-5-3-0-73-1-9-8-5-14-5-8-0-0"
       inkscape:connector-curvature="0"
       sodipodi:nodetypes="ccccc" />
    <path
       style="fill:none;fill-opacity:1;stroke:#000000;stroke-width:2;stroke-linecap:butt;stroke-linejoin:round;stroke-miterlimit:4;stroke-dasharray:8, 8;stroke-dashoffset:3.2;stroke-opacity:1"
       d="m 35.030224,788.05877 0.002,-17.42881 h 35.72631 l -0.002,17.42881 z"
       id="path14359-1-7-5-3-0-73-1-9-8-5-14-0-5"
       inkscape:connector-curvature="0"
       sodipodi:nodetypes="ccccc" />
    <path
       sodipodi:nodetypes="cc"
       id="path5728-9"
       d="M 35.564077,807.34541 48.510135,794.67034"
       style="font-variation-settings:normal;opacity:1;vector-effect:none;fill:none;fill-opacity:1;stroke:#000000;stroke-width:0.666667;stroke-linecap:butt;stroke-linejoin:miter;stroke-miterlimit:4;stroke-dasharray:none;stroke-dashoffset:0;stroke-opacity:1;stop-color:#000000;stop-opacity:1" />
    <path
       sodipodi:nodetypes="cc"
       id="path5728-6"
       d="m 67.067745,811.56174 3.913962,-3.85073"
       style="font-variation-settings:normal;opacity:1;vector-effect:none;fill:none;fill-opacity:1;stroke:#000000;stroke-width:0.666667;stroke-linecap:butt;stroke-linejoin:miter;stroke-miterlimit:4;stroke-dasharray:none;stroke-dashoffset:0;stroke-opacity:1;stop-color:#000000;stop-opacity:1" />
    <path
       sodipodi:nodetypes="cc"
       id="path5728-68"
       d="m 57.784949,811.65494 12.990738,-12.6148"
       style="font-variation-settings:normal;opacity:1;vector-effect:none;fill:none;fill-opacity:1;stroke:#000000;stroke-width:0.666667;stroke-linecap:butt;stroke-linejoin:miter;stroke-miterlimit:4;stroke-dasharray:none;stroke-dashoffset:0;stroke-opacity:1;stop-color:#000000;stop-opacity:1" />
    <path
       sodipodi:nodetypes="cc"
       id="path5728-5"
       d="m 48.737932,811.90004 17.213717,-17.3551"
       style="font-variation-settings:normal;opacity:1;vector-effect:none;fill:none;fill-opacity:1;stroke:#000000;stroke-width:0.666667;stroke-linecap:butt;stroke-linejoin:miter;stroke-miterlimit:4;stroke-dasharray:none;stroke-dashoffset:0;stroke-opacity:1;stop-color:#000000;stop-opacity:1" />
    <text
       id="text6661-34-6"
       y="862.64233"
       x="62.503063"
       style="font-size:8px;line-height:3.79999px;font-family:Arial;-inkscape-font-specification:Arial;letter-spacing:0.45px"
       xml:space="preserve"><tspan
         y="862.64233"
         x="62.503063"
         id="tspan6659-7-7"
         sodipodi:role="line"
         style="font-size:8px">1</tspan></text>
    <text
       xml:space="preserve"
       style="font-size:8px;line-height:3.79999px;font-family:Arial;-inkscape-font-specification:Arial;letter-spacing:0px"
       x="166.33914"
       y="862.36633"
       id="text6661-0"><tspan
         sodipodi:role="line"
         id="tspan6659-08"
         x="166.33914"
         y="862.36633">4</tspan></text>
    <text
       xml:space="preserve"
       style="font-size:8px;line-height:3.79999px;font-family:Arial;-inkscape-font-specification:Arial;letter-spacing:0px"
       x="28.226727"
       y="898.20117"
       id="text6661-7"><tspan
         sodipodi:role="line"
         id="tspan6659-8"
         x="28.226727"
         y="898.20117">0</tspan></text>
    <text
       id="text6661-34-4"
       y="898.44641"
       x="71.23307"
       style="font-size:8px;line-height:3.79999px;font-family:Arial;-inkscape-font-specification:Arial;letter-spacing:0.45px"
       xml:space="preserve"><tspan
         y="898.44641"
         x="71.23307"
         id="tspan6659-7-6"
         sodipodi:role="line"
         style="font-size:8px">2</tspan></text>
    <text
       id="text6661-5-8"
       y="898.56787"
       x="92.24836"
       style="font-size:8px;line-height:3.79999px;font-family:Arial;-inkscape-font-specification:Arial;letter-spacing:0.45px"
       xml:space="preserve"><tspan
         y="898.56787"
         x="92.24836"
         id="tspan6659-9-2"
         sodipodi:role="line"
         style="font-size:8px">3</tspan></text>
    <text
       xml:space="preserve"
       style="font-size:8px;line-height:3.79999px;font-family:Arial;-inkscape-font-specification:Arial;letter-spacing:0.45px"
       x="49.378899"
       y="898.21704"
       id="text6661-34-6-3"><tspan
         style="font-size:8px"
         sodipodi:role="line"
         id="tspan6659-7-7-0"
         x="49.378899"
         y="898.21704">1</tspan></text>
    <text
       id="text6661-0-4"
       y="898.48175"
       x="114.21848"
       style="font-size:8px;line-height:3.79999px;font-family:Arial;-inkscape-font-specification:Arial;letter-spacing:0px"
       xml:space="preserve"><tspan
         y="898.48175"
         x="114.21848"
         id="tspan6659-08-4"
         sodipodi:role="line">4</tspan></text>
    <path
       style="fill:none;fill-opacity:1;stroke:#000000;stroke-width:1.33333004;stroke-linecap:butt;stroke-linejoin:miter;stroke-miterlimit:4;stroke-dasharray:none;stroke-opacity:1"
       d="m 29.869556,903.58284 -0.002,4.11 86.623414,0 0.002,-4.11 z"
       id="path14359-1-7-5-3-0-73-1-9-8-5-14-8-1-1"
       inkscape:connector-curvature="0"
       sodipodi:nodetypes="ccccc" />
    <path
       sodipodi:nodetypes="ccccc"
       inkscape:connector-curvature="0"
       id="path14359-1-7-5-3-0-73-1-9-8-5-14-8-2-59-3"
       d="m 29.869556,903.58284 -0.002,4.11 h 21.63819 l 0.002,-4.11 z"
       style="fill:#000000;fill-opacity:1;stroke:#000000;stroke-width:1.33333004;stroke-linecap:butt;stroke-linejoin:miter;stroke-miterlimit:4;stroke-dasharray:none;stroke-opacity:1" />
    <path
       style="fill:#000000;fill-opacity:1;stroke:#000000;stroke-width:1.33333004;stroke-linecap:butt;stroke-linejoin:miter;stroke-miterlimit:4;stroke-dasharray:none;stroke-opacity:1"
       d="m 73.342486,903.58284 -0.002,4.11 h 21.5556 l 0.002,-4.11 z"
       id="path14359-1-7-5-3-0-73-1-9-8-5-14-8-2-5-2-3"
       inkscape:connector-curvature="0"
       sodipodi:nodetypes="ccccc" />
    <path
       sodipodi:nodetypes="cc"
       inkscape:connector-curvature="0"
       id="path14359-1-7-5-3-0-73-1-9-8-5-14-0-3-9"
       d="m 3.8337566,725.2983 573.0705134,0"
       style="fill:none;fill-opacity:1;stroke:#000000;stroke-width:2.66667;stroke-linecap:butt;stroke-linejoin:round;stroke-miterlimit:4;stroke-dasharray:none;stroke-opacity:1" />
    <path
       sodipodi:nodetypes="cc"
       inkscape:connector-curvature="0"
       id="path14359-1-7-5-3-0-73-1-9-8-5-14-0-3-0"
       d="M 3.2354788,83.553579 H 577.11709"
       style="fill:none;fill-opacity:1;stroke:#000000;stroke-width:2.66667;stroke-linecap:butt;stroke-linejoin:round;stroke-miterlimit:4;stroke-dasharray:none;stroke-opacity:1" />
    <path
       style="fill:#000000;fill-opacity:1;stroke:#000000;stroke-width:0.666667;stroke-linecap:butt;stroke-linejoin:miter;stroke-miterlimit:4;stroke-dasharray:none;stroke-opacity:1"
       d="m 260.84354,495.91603 -14.18086,5.51174 7.95356,-12.93269 3.0861,3.6617 z"
       id="path14359-1-7-5-3-0-73-2-0"
       inkscape:connector-curvature="0"
       sodipodi:nodetypes="ccccc" />
    <path
       style="fill:none;fill-opacity:1;fill-rule:evenodd;stroke:#000000;stroke-width:1.33333;stroke-linecap:butt;stroke-linejoin:miter;stroke-miterlimit:4;stroke-dasharray:none;stroke-opacity:1"
       d="m 257.70815,492.1521 20.40186,-17.1503"
       id="path8331-0-6"
       inkscape:connector-curvature="0"
       sodipodi:nodetypes="cc" />
    <text
       xml:space="preserve"
       style="font-size:13.3333px;line-height:6.33332px;font-family:Arial;-inkscape-font-specification:Arial;letter-spacing:-0.15px"
       x="77.668983"
       y="784.19055"
       id="text7907-9-2"><tspan
         sodipodi:role="line"
         id="tspan7905-3-1"
         x="77.668983"
         y="784.19055">County Boundary</tspan></text>
    <text
       xml:space="preserve"
       style="font-size:13.3333px;line-height:6.33332px;font-family:Arial;-inkscape-font-specification:Arial;letter-spacing:-0.15px"
       x="77.368462"
       y="807.6441"
       id="text7907-9-4"><tspan
         sodipodi:role="line"
         id="tspan7905-3-0"
         x="77.368462"
         y="807.6441">Final Critical Habitat Unit</tspan></text>
    <text
       id="text7907-9-2-7"
       y="133.45824"
       x="229.84242"
       style="font-size:13.3333px;line-height:6.33332px;font-family:Arial;-inkscape-font-specification:Arial;letter-spacing:0.7px"
       xml:space="preserve"
       transform="rotate(0.24553443)"><tspan
         y="133.45824"
         x="229.84242"
         id="tspan7905-3-1-1"
         sodipodi:role="line">Fall River Mills</tspan></text>
    <text
       xml:space="preserve"
       style="font-size:20px;line-height:19.3636px;font-family:Arial;-inkscape-font-specification:Arial;letter-spacing:-0.04px"
       x="438.77588"
       y="323.04068"
       id="text109395"><tspan
         sodipodi:role="line"
         id="tspan109393"
         x="438.77588"
         y="323.04068">LASSEN CO.</tspan></text>
    <text
       xml:space="preserve"
       style="font-style:normal;font-variant:normal;font-weight:bold;font-stretch:normal;font-size:17.3333px;line-height:16.7818px;font-family:Arial;-inkscape-font-specification:'Arial Bold';letter-spacing:-0.04px"
       x="265.50961"
       y="470.19025"
       id="text109399"><tspan
         sodipodi:role="line"
         id="tspan109397"
         x="265.50961"
         y="470.19025">UNIT 1</tspan></text>
    <text
       id="text109399-0"
       y="36.332077"
       x="35.119366"
       style="font-style:normal;font-variant:normal;font-weight:bold;font-stretch:normal;font-size:17.3333px;line-height:16.7818px;font-family:Arial;-inkscape-font-specification:'Arial Bold';letter-spacing:-0.04px"
       xml:space="preserve"><tspan
         y="36.332077"
         x="35.119366"
         id="tspan109397-1"
         sodipodi:role="line">Map 1.</tspan></text>
    <text
       xml:space="preserve"
       style="font-style:normal;font-variant:normal;font-weight:bold;font-stretch:normal;font-size:17.3333px;line-height:21.08px;font-family:Arial;-inkscape-font-specification:'Arial Bold';letter-spacing:0.12px"
       x="116.63927"
       y="36.051563"
       id="text109399-0-6"><tspan
         sodipodi:role="line"
         id="tspan109397-1-9"
         x="116.63927"
         y="36.051563">Vernal Pool Critical Habitat</tspan><tspan
         sodipodi:role="line"
         x="116.63927"
         y="57.131565"
         id="tspan109535">Greene's Tuctoria, Unit 2</tspan></text>
    <path
       style="font-variation-settings:normal;opacity:1;vector-effect:none;fill:none;fill-opacity:1;stroke:#000000;stroke-width:0.666667;stroke-linecap:butt;stroke-linejoin:miter;stroke-miterlimit:4;stroke-dasharray:none;stroke-dashoffset:0;stroke-opacity:1;stop-color:#000000;stop-opacity:1"
       d="m 35.31789,798.9654 4.704268,-4.70893"
       id="path5728-9-8"
       sodipodi:nodetypes="cc" />
    <text
       id="text109395-2"
       y="651.30469"
       x="248.82854"
       style="font-size:20px;line-height:19.3636px;font-family:Arial;-inkscape-font-specification:Arial;letter-spacing:-0.04px"
       xml:space="preserve"><tspan
         y="651.30469"
         x="248.82854"
         id="tspan109393-9"
         sodipodi:role="line">SHASTA CO.</tspan></text>
    <path
       sodipodi:nodetypes="cccccccc"
       inkscape:connector-curvature="0"
       id="path14359-1-7-5-3-0-73-1-9-8-5-14-0-5-0"
       d="m 420.81374,83.87262 0.99566,61.30689 1.85466,62.16249 1.36048,119.74127 -0.87988,46.60091 23.19014,-0.0785 -2.41357,35.86621 5.66615,316.24858"
       style="fill:none;fill-opacity:1;stroke:#000000;stroke-width:2;stroke-linecap:butt;stroke-linejoin:round;stroke-miterlimit:4;stroke-dasharray:8, 8;stroke-dashoffset:3.2;stroke-opacity:1" />
    <path
       sodipodi:nodetypes="ccccsssccsscsc"
       inkscape:connector-curvature="0"
       id="path14359-1-7-5-3-0-73-1-9-8-5-14-0-3-1"
       d="m 127.69201,724.78313 -6.32528,-25.37679 -10.90788,-50.44487 -5.76638,-10.86322 -4.52245,-6.93525 c -1.228775,-1.88435 -2.259337,-3.65778 -2.268317,-5.28435 l -0.35723,-64.70331 c -0.02521,-4.56624 -1.696784,-9.92437 -4.600456,-15.67705 M 75.545961,523.06423 c -2.905986,-3.00521 -6.341238,-5.78252 -9.770927,-8.00493 -2.250439,-1.45827 -4.729237,-3.68107 -6.71765,-6.45536 L 29.377737,467.194 11.737479,449.68699 c -2.8629628,-2.84134 -5.6268331,-3.21863 -7.8253492,-8.08682"
       style="fill:none;fill-opacity:1;stroke:#000000;stroke-width:2;stroke-linecap:round;stroke-linejoin:round;stroke-miterlimit:4;stroke-dasharray:none;stroke-opacity:1" />
    <path
       d="m 97.256457,535.09643 a 14.223374,14.223374 0 0 1 -14.22337,14.22338 14.223374,14.223374 0 0 1 -14.22338,-14.22338 14.223374,14.223374 0 0 1 14.22338,-14.22337 14.223374,14.223374 0 0 1 14.22337,14.22337 z"
       style="opacity:0.999;fill:#ffffed;fill-opacity:1;stroke:#000000;stroke-width:1.33333;stroke-linecap:butt;stroke-linejoin:round;stroke-miterlimit:4;stroke-dasharray:none;stroke-dashoffset:4.26667;stroke-opacity:1"
       id="path108930-6" />
    <text
       xml:space="preserve"
       style="font-style:normal;font-variant:normal;font-weight:bold;font-stretch:normal;font-size:18.6667px;line-height:18.0727px;font-family:Arial;-inkscape-font-specification:'Arial Bold';letter-spacing:0.5px;fill:#000000;fill-opacity:1"
       x="72.100548"
       y="542.04523"
       id="text108934"><tspan
         sodipodi:role="line"
         id="tspan108932"
         x="72.100548"
         y="542.04523">89</tspan></text>
    <path
       id="path108930"
       style="opacity:0.999;fill:none;stroke:#000000;stroke-width:1.33333;stroke-linecap:butt;stroke-linejoin:round;stroke-miterlimit:4;stroke-dasharray:none;stroke-dashoffset:4.26667;stroke-opacity:1"
       d="m 97.256457,535.09643 a 14.223374,14.223374 0 0 1 -14.22337,14.22338 14.223374,14.223374 0 0 1 -14.22338,-14.22338 14.223374,14.223374 0 0 1 14.22338,-14.22337 14.223374,14.223374 0 0 1 14.22337,14.22337 z" />
    <path
       sodipodi:nodetypes="csscssssscssssssssscsssssssssscsssssssssssccssssssssssssssssssssssssssssssscssssssssssssssc"
       inkscape:connector-curvature="0"
       id="path14359-1-7-5-3-0-73-1-9-8-5-14-0-3-8"
       d="m 10.166988,448.52934 4.708585,-6.65528 c 0.986463,-1.3943 1.111731,-2.89599 1.226877,-4.52154 l 1.310142,-18.49558 c 2.409289,-4.58895 7.105155,-12.17543 7.130406,-14.15669 l 0.07523,-5.90334 c 0.01326,-1.04017 0.05724,-2.55934 2.541247,-2.36494 l 4.157171,0.32534 c 1.865736,0.14601 2.31485,-0.89024 2.287589,-2.43167 l -0.783417,-44.29696 c -0.177937,-0.23128 -0.410942,-0.42917 -0.533811,-0.69385 -0.03547,-0.0764 1.137081,0.22742 2.646476,0.52929 2.296886,0.45938 5.355549,0.249 7.621851,-0.31757 1.074891,-0.26873 1.139241,-1.70988 2.11718,-1.90547 3.354358,-0.67087 7.573504,-1.1161 10.162468,-3.70506 0.824018,-0.82402 2.014655,-1.94964 2.434758,-3.06991 0.258022,-0.68806 0.244825,-1.52176 0.741013,-2.11718 0.581321,-0.69759 1.430258,-0.18584 2.117181,-0.5293 0.874328,-0.43716 1.148484,-1.47062 1.905463,-2.01132 1.239846,-0.88561 2.882726,-0.76709 4.34022,-1.05859 0.681142,-0.0326 1.258547,0.42977 1.905463,0.52929 1.369394,0.21068 2.838017,-0.21327 4.234362,-0.10586 2.816377,0.21665 5.832384,1.0082 8.574582,1.69375 0.546871,0.13672 3.33442,0.76207 3.705066,1.05859 1.845716,1.47657 3.382303,3.45576 5.610529,4.44608 2.403542,1.06824 4.933876,0.59313 7.304274,1.48203 1.41991,0.53246 2.088924,2.19056 3.493347,2.75233 1.91065,0.76426 3.20841,-0.57817 5.08124,-0.95273 1.06072,-0.21215 3.42823,0.34362 4.02264,0.10586 0.5564,-0.22256 0.70475,-0.75213 1.16445,-1.05859 1.12742,-0.75162 2.17591,1.12529 3.38749,0.31757 0.87939,-0.63819 2.83341,-0.268 3.38749,-1.37616 0.56003,-1.12007 0.40795,-2.45852 1.27031,-3.49335 0.39302,-0.47163 1.19088,-0.57559 1.69374,-0.95273 2.95876,-2.21907 4.65551,-0.79452 7.83357,0 0.71234,0.17808 1.86692,0.27904 2.43476,0.84687 0.9216,0.92161 0.9127,2.50059 1.7996,3.38749 1.25449,1.25449 3.42591,1.55417 4.97538,2.3289 0.79995,0.39998 4.2402,2.46907 5.08123,2.3289 1.04771,-0.17462 6.01884,-2.90357 6.56326,-3.81093 0.60224,-1.00373 0.65984,-2.16655 1.16445,-3.17577 0.32969,-0.65938 3.6191,-1.17937 4.44608,-1.7996 1.57515,-1.18137 1.6116,-2.23095 3.81092,-2.96406 l 13.23238,-3.5992 c 1.66374,0.97811 2.0257,0.11892 3.59921,-0.10586 0.97403,-0.13915 1.75077,0.54557 2.75234,0.21171 1.02589,-0.34196 1.70822,-1.1753 2.54061,-1.7996 0.80752,-0.60563 1.84403,-0.86661 2.75234,-1.27031 1.84589,-0.82039 2.70063,-2.45199 4.97537,-1.69374 0.35258,0.11753 1.10819,0.36717 1.37617,0.63515 0.48405,0.48405 0.58625,1.14402 0.95273,1.69375 0.61252,0.91878 1.40115,2.23552 2.43476,2.75233 0.33599,0.168 0.63322,0.31629 0.95273,0.5293 0.38085,0.25389 0.91087,0.59675 1.37617,0.31757 0.1221,-0.0733 0.50594,-2.24754 1.74671,-6.19577 0.38508,-1.22538 1.42669,-3.00428 1.83432,-4.45474 0.67504,-2.40199 0.90544,-5.51234 1.72202,-8.04921 0.61829,-1.92083 2.17857,-3.31112 2.74481,-5.1428 0.68163,-2.20496 0.59559,-4.78814 1.18466,-6.52976 0.31328,-0.92626 1.14773,-3.45924 4.07428,-6.39241 1.64553,-1.64927 3.84516,-3.12389 5.99895,-4.89587 3.21011,-2.64104 6.4477,-5.55477 8.63919,-7.56589 0.66032,-0.60597 -0.57667,-3.329 -0.72675,-6.88383 -0.0653,-1.54588 0.84757,-3.16323 0.92177,-4.97547 0.14694,-3.58897 -0.48559,-8.2094 -0.16136,-11.50962 0.14901,-1.51673 0.87366,-5.31787 2.20216,-9.01802 0.41848,-1.16555 0.0262,-2.14903 0.49553,-3.33642 0.66881,-1.69208 2.59055,-3.59464 3.34368,-5.16812 0.48251,-1.0081 0.56281,-1.95697 0.88959,-2.82111 0.42565,-1.12559 3.48972,-2.95229 3.00091,-8.42348 -0.23982,-2.68427 -0.62929,-3.52325 -0.0709,-4.52871 0.61325,-1.10428 1.2185,-2.51138 2.03568,-3.65103 0.53209,-0.74205 1.45892,-1.00485 1.49039,-2.25194 0.0895,-3.54663 0.203,-8.65258 0.2438,-12.80598 0.0148,-1.50681 -0.82755,-3.95103 -1.07989,-6.54747 -0.33847,-3.48271 -0.12303,-7.07009 -0.19723,-7.42182 0.0229,-1.64112 -0.92389,-3.22386 -0.74104,-4.86952 0.0407,-0.36615 0.26156,-0.69448 0.31758,-1.05859 0.14376,-0.93448 -0.12404,-1.93862 0.10586,-2.8582 0.29789,-1.19159 1.2473,-2.60046 1.7996,-3.70506 0.41073,-0.82147 0.44703,-1.72128 1.05859,-2.43476 2.03373,-2.37269 3.91417,-1.66888 4.34022,-5.71639 0.20685,-1.96511 -0.81915,-4.81421 -1.58737,-7.02368 -0.76032,-2.18675 -1.25513,-3.73615 -2.54113,-5.25597 -0.40192,-0.475 -3.82756,-4.52571 -3.91679,-4.76366 -0.52259,-1.39357 0.82288,-3.90583 -0.21172,-5.71638 -0.81534,-1.42685 -2.64201,-3.21801 -4.34022,-3.06991 -1.1447,0.0998 -1.06932,0.49953 -1.69374,0 -0.87394,-0.69915 -0.93485,-1.40227 -1.48203,-2.22304 -0.3199,-0.47985 -0.27404,-0.89469 -0.63515,-1.37617 -0.58459,-0.77946 -1.02744,-2.30394 -1.37617,-3.17578"
       style="fill:none;fill-opacity:1;stroke:#000000;stroke-width:1;stroke-linecap:round;stroke-linejoin:round;stroke-miterlimit:4;stroke-dasharray:none;stroke-opacity:1" />
    <path
       style="fill:none;fill-opacity:1;stroke:#000000;stroke-width:1;stroke-linecap:round;stroke-linejoin:round;stroke-miterlimit:4;stroke-dasharray:none;stroke-opacity:1"
       d="m 227.06764,146.16427 -5.16827,2.60912 c -1.55494,0.78498 -3.44212,1.01786 -5.41504,0.86602 -1.86127,-0.14324 -4.00903,-0.60159 -5.10682,-1.46947 l -16.52456,-13.06387 c -1.79165,-1.41643 -4.10295,-1.93806 -6.42715,-2.23838 l -8.56456,-1.10669 c -2.70992,-0.35016 -5.93487,-1.44421 -5.93919,-4.56243 l -0.006,-4.48074 -11.10792,-22.2731 c -1.5262,-3.060267 -3.06446,-5.525768 -6.35351,-7.999995 -2.79737,-2.104351 -5.25448,-3.392039 -6.70608,-4.982199 l -3.13357,-3.806843"
       id="path14359-1-7-5-3-0-73-1-9-8-5-14-0-3-8-2"
       inkscape:connector-curvature="0"
       sodipodi:nodetypes="cssssssscsscc" />
    <path
       style="fill:none;fill-opacity:1;stroke:#000000;stroke-width:2;stroke-linecap:round;stroke-linejoin:round;stroke-miterlimit:4;stroke-dasharray:none;stroke-opacity:1"
       d="m 4.0226466,210.95001 6.3025554,0.51492 c 4.706755,0.38455 11.491253,-3.01125 13.652643,-5.33615 l 4.284307,-4.00705 11.043674,-6.91591 c 2.559924,-1.6031 5.299387,-1.56195 9.24317,-1.46925 l 19.853364,0.46668 17.824526,-7.96072 5.001646,-6.55034 1.897495,-4.22284 0.145469,-4.03142 1.415014,-4.24287 -0.265427,-4.5832 1.591162,-3.56842 2.0889,-2.60431 1.266081,-2.32839 2.415814,-4.02511 c 1.42793,-2.37915 6.06539,-2.27003 8.68462,0.27856 l 4.93954,4.80632 c 0.96974,0.94358 1.47287,1.47664 2.43735,1.82991 l 1.39256,0.51007 c 0.82071,0.30062 1.47767,0.81224 1.99071,1.55502 l 5.36474,7.76705 c 1.24134,1.79721 4.05979,1.05895 6.33474,1.24639 l 4.08842,0.33686 c 1.38354,0.114 4.5984,1.25449 6.91712,1.40076 3.10518,0.19588 5.02168,-0.5118 8.91824,-0.15414 l 6.85643,0.62935 c 4.12657,0.37877 7.83425,0.0746 10.99415,-1.44273 l 52.09622,-25.01634 c 1.95582,-0.93917 3.61243,-1.41239 4.53607,-3.81702 l 0.8612,-2.24207 m 6.48602,-16.88579 3.37584,-8.78873 2.71624,-3.0554 4.14693,-6.36971 12.21143,-18.700716"
       id="path14359-1-7-5-3-0-73-1-9-8-5-14-0-3-8-7"
       inkscape:connector-curvature="0"
       sodipodi:nodetypes="csscssccccccccccssssssssssssssscccccc" />
    <path
       id="path108930-6-7"
       style="opacity:0.999;fill:#ffffed;fill-opacity:1;stroke:#000000;stroke-width:1.33333;stroke-linecap:butt;stroke-linejoin:round;stroke-miterlimit:4;stroke-dasharray:none;stroke-dashoffset:4.26667;stroke-opacity:1"
       d="M 90.51858,194.92954 A 14.223374,14.223374 0 0 1 76.29521,209.15292 14.223374,14.223374 0 0 1 62.07183,194.92954 14.223374,14.223374 0 0 1 76.29521,180.70617 14.223374,14.223374 0 0 1 90.51858,194.92954 Z" />
    <text
       id="text108934-1"
       y="200.29018"
       x="65.045021"
       style="font-style:normal;font-variant:normal;font-weight:bold;font-stretch:normal;font-size:13.33333333px;line-height:12.90910000000000046px;font-family:Arial;-inkscape-font-specification:'Arial Bold';letter-spacing:0.50000000000000000px;fill:#000000;fill-opacity:1;"
       xml:space="preserve"><tspan
         y="200.29018"
         x="65.045021"
         id="tspan108932-5"
         sodipodi:role="line">299</tspan></text>
    <path
       d="M 90.51858,194.92954 A 14.223374,14.223374 0 0 1 76.29521,209.15292 14.223374,14.223374 0 0 1 62.07183,194.92954 14.223374,14.223374 0 0 1 76.29521,180.70617 14.223374,14.223374 0 0 1 90.51858,194.92954 Z"
       style="opacity:0.999;fill:none;stroke:#000000;stroke-width:1.33333;stroke-linecap:butt;stroke-linejoin:round;stroke-miterlimit:4;stroke-dasharray:none;stroke-dashoffset:4.26667;stroke-opacity:1"
       id="path108930-9" />
    <path
       style="fill:none;fill-opacity:1;stroke:#000000;stroke-width:1;stroke-linecap:round;stroke-linejoin:round;stroke-miterlimit:4;stroke-dasharray:none;stroke-opacity:1"
       d="m 437.1579,83.871746 2.39443,74.347874 c 0.0699,2.17128 0.65572,4.816 0.67752,7.59292 l 0.10646,13.57211 c 0.0169,2.14933 -2.50306,3.72124 -2.58846,5.90767 l -0.22935,5.87329 -1.79587,4.54092 c -1.05729,2.67341 -3.5278,2.14867 -4.84149,4.17746 -3.37954,5.21916 -6.43569,10.56766 -8.79587,16.19456 -0.15241,1.59046 -2.06495,1.84799 -2.65502,4.91993 -0.37077,1.93026 0.84781,4.10914 0.45061,6.00777 -0.36247,1.73257 -1.55196,3.03643 -2.49639,4.68437 -0.97621,1.7034 -0.25221,4.61373 -0.77603,6.33668 -0.5091,1.67453 -2.0709,2.93567 -1.34777,4.44939 l 7.22819,15.1306 0.93865,9.9846 -1.20365,3.23328 2.01842,9.8408 -0.20472,4.81546 c -0.0598,1.40688 1.24521,2.46078 1.00249,3.44722 l -1.30107,5.28766 c -0.42199,1.71501 -2.28467,2.67253 -2.38471,4.05235 -0.0948,1.30755 1.0863,3.52084 1.0833,5.40194 l -0.0107,6.93202 2.51662,11.42661 -0.007,4.75573 c -0.003,1.76714 -1.30792,3.06615 -1.30992,4.60104 l -0.003,1.76438 c -0.006,3.94428 2.91243,6.79722 4.05508,10.27636 l 6.94251,21.13842 3.53611,5.7222 5.78756,10.16996 4.50642,6.38189 0.98573,3.76583 c 0.33575,1.28267 1.16753,1.854 1.86827,2.32529 l 1.80262,1.21237 c 2.03905,1.37141 1.60486,3.91275 2.11535,6.28066 l 1.57171,7.29028 4.22316,10.11627 -1.64843,18.47612 -1.63079,6.81637 -0.71349,8.19169 c -0.0949,1.0896 -0.0165,2.12769 0.55133,2.97221 l 4.04595,6.01767 c 1.10115,0.64113 0.56844,4.16762 1.36713,4.8332 1.09899,0.91583 2.861,0.8748 3.75791,2.07068 0.89585,1.19447 0.43563,4.11685 0.61354,4.29475 0.90029,0.9003 2.58883,0.0623 3.60452,0.84362 0.56624,0.43556 0.16251,1.15951 0.61354,1.61053 0.95044,0.95044 3.38101,0.98732 4.83159,1.84061 1.58752,0.93383 2.75777,2.50187 3.98799,3.8346 0.95464,1.03419 2.11035,1.71828 2.83761,2.99099 0.5994,1.04896 0.56735,3.11408 0.0767,4.21806 -0.33194,0.74687 -1.02378,1.47785 -1.15038,2.30076 -0.21623,1.40545 0.88682,2.83061 1.38045,4.06468 l 8.51281,15.4151 c 2.80958,5.08761 5.17386,13.92955 5.59852,18.78954 l 0.69023,7.89928 5.13836,9.43312 2.83761,4.14137 c 0.60657,0.18198 0.96007,0.15592 1.30376,0.76692 0.11555,0.20542 0.0788,0.46664 0.15339,0.69023 0.17843,0.5353 1.81097,2.7925 2.30076,3.22107 1.38286,1.21001 3.22365,1.92506 3.87295,3.79626 l 1.18872,4.94663 4.14137,5.7519 c 0.39498,1.71454 0.80305,3.3656 1.22707,5.06168 l 3.98799,13.26772 2.37745,26.45875 c 0.0547,0.59815 -0.25327,1.24131 -0.15338,1.84061 0.0777,0.46594 0.66684,0.59667 0.76692,0.99699 0.12366,0.49464 -0.1776,0.95263 -0.0767,1.45715 0.10756,0.53783 0.23922,1.15838 0.38346,1.68723 0.14209,0.52101 0.75845,0.85444 0.9203,1.38045 0.0959,0.31183 -0.0668,0.49979 0,0.76692 0.18658,0.74632 0.27406,2.16949 0.76692,2.76092 0.2452,0.29423 0.57948,0.88434 0.9203,1.07368 0.96066,0.5337 2.0925,1.12471 2.83761,1.994 0.56355,0.65748 0.57417,1.37842 0.9203,2.07068 l 6.8256,21.167 10.5835,21.55046 3.68122,5.13837 6.13536,5.52183 c 0.58096,1.53186 0.67524,3.4645 1.15039,4.98498 0.52169,1.6694 1.09648,2.85359 1.8406,4.44813 0.44594,0.95558 1.26547,2.196 1.53385,3.29776 l 7.28574,29.90989"
       id="path14359-1-7-5-3-0-73-1-9-8-5-14-0-3-8-5"
       inkscape:connector-curvature="0"
       sodipodi:nodetypes="cssccccssssccccssssccsssssccccssssscsscsssscsssssssssscsscccsssccccccssssssssscccccsssc" />
    <path
       style="fill:none;fill-opacity:1;stroke:#000000;stroke-width:1;stroke-linecap:round;stroke-linejoin:round;stroke-miterlimit:4;stroke-dasharray:none;stroke-opacity:1"
       d="m 575.94149,295.65577 c -0.12353,-0.74402 -0.97569,-1.42768 -1.98003,-1.82971 l -1.76437,-0.70626 c -3.28941,-1.3167 -6.49228,-6.32671 -6.69561,-8.89976 l -0.64258,-8.13175 3.2e-4,-4.89851 -1.61241,-8.95936 c -0.2279,-1.26633 -1.0687,-2.29316 -1.29149,-3.28934 l -0.72419,-3.23818 c -0.29739,-1.32975 -1.78631,-2.26329 -3.58674,-2.41907 l -8.80746,-0.76205 c -1.53934,-0.13319 -2.79587,-1.17679 -3.89449,-2.41938 l -3.50979,-3.96975 c -1.13164,-1.27993 -1.80602,-3.05707 -1.80189,-4.95256 l 0.0409,-18.75278 -6.83174,-9.70592 -18.36408,-21.43589 -2.20487,-3.56625 -3.4266,-3.4777 c -0.9266,-0.94041 -1.2892,-2.25982 -1.40078,-3.71306 l -0.39041,-5.08487 -2.4157,-5.80428 -0.81285,-2.22043 -0.057,-3.35399 c -0.0686,-4.03951 -4.21303,-7.21074 -4.22968,-11.03562 l -0.0205,-4.70506 c -0.004,-0.93211 -0.85687,-1.51523 -1.75967,-1.5535 l -8.58771,-0.36401 -12.1684,0.35057 c -1.96028,0.0565 -3.50952,-0.85512 -3.55461,-2.6995 l -1.13579,-46.461078 c -0.0502,-2.052924 -0.5627,-2.260606 -1.7188,-2.260639 l -32.8156,-9.51e-4"
       id="path14359-1-7-5-3-0-73-1-9-8-5-14-0-3-8-79"
       inkscape:connector-curvature="0"
       sodipodi:nodetypes="csssccssssssssccccsscccsssscssssc" />
    <path
       style="fill:none;fill-opacity:1;stroke:#000000;stroke-width:2;stroke-linecap:round;stroke-linejoin:round;stroke-miterlimit:4;stroke-dasharray:none;stroke-opacity:1"
       d="m 188.75708,496.80144 -7.92379,7.68122 -6.88868,15.92563 22.0508,34.0813 4.52578,-0.33878 3.65846,-1.36526 4.01742,-6.77823 5.30244,-0.21937 2.82844,0.008 4.94865,-1.51928 3.06408,1.54548 16.49121,0.0402 8.94792,-27.28683 -12.71411,-13.33777 -17.55606,-13.12615 z"
       id="path14359-1-7-5-3-0-73-1-9-8-5-14-0-3-8-71"
       inkscape:connector-curvature="0"
       sodipodi:nodetypes="cccccccccccccccc" />
    <path
       style="font-variation-settings:normal;opacity:1;vector-effect:none;fill:none;fill-opacity:1;stroke:#000000;stroke-width:0.66666667;stroke-linecap:butt;stroke-linejoin:miter;stroke-miterlimit:4;stroke-dasharray:none;stroke-dashoffset:0;stroke-opacity:1;stop-color:#000000;stop-opacity:1"
       d="m 175.21275,517.55542 22.21186,-21.95728"
       id="path119375" />
    <path
       style="font-variation-settings:normal;opacity:1;vector-effect:none;fill:none;fill-opacity:1;stroke:#000000;stroke-width:0.66666667;stroke-linecap:butt;stroke-linejoin:miter;stroke-miterlimit:4;stroke-dasharray:none;stroke-dashoffset:0;stroke-opacity:1;stop-color:#000000;stop-opacity:1"
       d="m 177.18572,525.38367 30.7402,-31.37664"
       id="path119377" />
    <path
       style="font-variation-settings:normal;opacity:1;vector-effect:none;fill:none;fill-opacity:1;stroke:#000000;stroke-width:0.66666667;stroke-linecap:butt;stroke-linejoin:miter;stroke-miterlimit:4;stroke-dasharray:none;stroke-dashoffset:0;stroke-opacity:1;stop-color:#000000;stop-opacity:1"
       d="m 180.49523,530.47522 38.12293,-38.12294"
       id="path119379" />
    <path
       style="font-variation-settings:normal;opacity:1;vector-effect:none;fill:none;fill-opacity:1;stroke:#000000;stroke-width:0.66666667;stroke-linecap:butt;stroke-linejoin:miter;stroke-miterlimit:4;stroke-dasharray:none;stroke-dashoffset:0;stroke-opacity:1;stop-color:#000000;stop-opacity:1"
       d="M 184.05931,536.07591 224.2825,495.72543"
       id="path119381" />
    <path
       style="font-variation-settings:normal;opacity:1;vector-effect:none;fill:none;fill-opacity:1;stroke:#000000;stroke-width:0.66666667;stroke-linecap:butt;stroke-linejoin:miter;stroke-miterlimit:4;stroke-dasharray:none;stroke-dashoffset:0;stroke-opacity:1;stop-color:#000000;stop-opacity:1"
       d="m 187.4961,541.2311 41.49608,-41.75066"
       id="path119383" />
    <path
       style="font-variation-settings:normal;opacity:1;vector-effect:none;fill:none;fill-opacity:1;stroke:#000000;stroke-width:0.66666667;stroke-linecap:butt;stroke-linejoin:miter;stroke-miterlimit:4;stroke-dasharray:none;stroke-dashoffset:0;stroke-opacity:1;stop-color:#000000;stop-opacity:1"
       d="M 190.93289,546.57722 234.3383,503.23546"
       id="path119385" />
    <path
       style="font-variation-settings:normal;opacity:1;vector-effect:none;fill:none;fill-opacity:1;stroke:#000000;stroke-width:0.66666667;stroke-linecap:butt;stroke-linejoin:miter;stroke-miterlimit:4;stroke-dasharray:none;stroke-dashoffset:0;stroke-opacity:1;stop-color:#000000;stop-opacity:1"
       d="m 239.04798,507.24505 -44.74194,44.80558"
       id="path119387" />
    <path
       style="font-variation-settings:normal;opacity:1;vector-effect:none;fill:none;fill-opacity:1;stroke:#000000;stroke-width:0.66666667;stroke-linecap:butt;stroke-linejoin:miter;stroke-miterlimit:4;stroke-dasharray:none;stroke-dashoffset:0;stroke-opacity:1;stop-color:#000000;stop-opacity:1"
       d="m 210.21711,545.62256 33.09504,-33.79512"
       id="path119389" />
    <path
       style="font-variation-settings:normal;opacity:1;vector-effect:none;fill:none;fill-opacity:1;stroke:#000000;stroke-width:0.66666667;stroke-linecap:butt;stroke-linejoin:miter;stroke-miterlimit:4;stroke-dasharray:none;stroke-dashoffset:0;stroke-opacity:1;stop-color:#000000;stop-opacity:1"
       d="m 219.44554,544.79518 28.19442,-28.51264"
       id="path119391" />
    <path
       style="font-variation-settings:normal;opacity:1;vector-effect:none;fill:none;fill-opacity:1;stroke:#000000;stroke-width:0.66666667;stroke-linecap:butt;stroke-linejoin:miter;stroke-miterlimit:4;stroke-dasharray:none;stroke-dashoffset:0;stroke-opacity:1;stop-color:#000000;stop-opacity:1"
       d="m 227.71929,545.74985 19.09329,-19.09329"
       id="path119393" />
    <path
       style="font-variation-settings:normal;opacity:1;vector-effect:none;fill:none;fill-opacity:1;stroke:#000000;stroke-width:0.66666667;stroke-linecap:butt;stroke-linejoin:miter;stroke-miterlimit:4;stroke-dasharray:none;stroke-dashoffset:0;stroke-opacity:1;stop-color:#000000;stop-opacity:1"
       d="m 236.0567,545.6862 6.74629,-5.85527"
       id="path119395" />
    <text
       transform="rotate(0.24553443)"
       xml:space="preserve"
       style="font-size:13.3333px;line-height:6.33332px;font-family:Arial;-inkscape-font-specification:Arial;letter-spacing:0.31px"
       x="45.236137"
       y="326.32782"
       id="text7907-9-2-7-7"><tspan
         sodipodi:role="line"
         id="tspan7905-3-1-1-5"
         x="45.236137"
         y="326.32782">Cassel Fall River Rd.</tspan></text>
    <text
       transform="rotate(75.811432)"
       xml:space="preserve"
       style="font-size:13.3333px;line-height:6.33332px;font-family:Arial;-inkscape-font-specification:Arial;letter-spacing:0px"
       x="687.43555"
       y="-376.6636"
       id="text7907-9-2-7-0"><tspan
         sodipodi:role="line"
         id="tspan7905-3-1-1-2"
         x="687.43555"
         y="-376.6636">Pittville Rd.</tspan></text>
    <text
       id="text7907-9-2-7-7-4"
       y="647.57318"
       x="117.02126"
       style="font-size:13.33329999999999949px;line-height:6.33331999999999962px;font-family:Arial;-inkscape-font-specification:Arial;letter-spacing:0.68px"
       xml:space="preserve"
       transform="rotate(0.24553443)"><tspan
         y="647.57318"
         x="117.02126"
         id="tspan7905-3-1-1-5-1"
         sodipodi:role="line">Hat Creek</tspan></text>
    <path
       sodipodi:nodetypes="cc"
       inkscape:connector-curvature="0"
       id="path14359-1-7-5-3-0-73-1-9-8-5-14-1"
       d="m 108.06964,653.88787 0,-0.28349"
       style="fill:none;fill-opacity:1;stroke:#000000;stroke-width:6.66667;stroke-linecap:round;stroke-linejoin:round;stroke-miterlimit:4;stroke-dasharray:none;stroke-opacity:1" />
    <path
       style="fill:none;fill-opacity:1;stroke:#000000;stroke-width:6.66667;stroke-linecap:round;stroke-linejoin:round;stroke-miterlimit:4;stroke-dasharray:none;stroke-opacity:1"
       d="m 223.83196,140.74946 v -0.28349"
       id="path14359-1-7-5-3-0-73-1-9-8-5-14-1-5"
       inkscape:connector-curvature="0"
       sodipodi:nodetypes="cc" />
  </g>
</svg>
