<?xml version="1.0" encoding="UTF-8" standalone="no"?>
<svg
   xmlns:dc="http://purl.org/dc/elements/1.1/"
   xmlns:cc="http://creativecommons.org/ns#"
   xmlns:rdf="http://www.w3.org/1999/02/22-rdf-syntax-ns#"
   xmlns:svg="http://www.w3.org/2000/svg"
   xmlns="http://www.w3.org/2000/svg"
   xmlns:sodipodi="http://sodipodi.sourceforge.net/DTD/sodipodi-0.dtd"
   xmlns:inkscape="http://www.inkscape.org/namespaces/inkscape"
   version="1.1"
   id="svg127090"
   width="577.91998"
   height="929.91998"
   viewBox="0 0 577.91998 929.91998"
   sodipodi:docname="er10fe06.046.svg"
   inkscape:version="1.0 (4035a4f, 2020-05-01)">
  <metadata
     id="metadata127096">
    <rdf:RDF>
      <cc:Work
         rdf:about="">
        <dc:format>image/svg+xml</dc:format>
        <dc:type
           rdf:resource="http://purl.org/dc/dcmitype/StillImage" />
        <dc:title></dc:title>
      </cc:Work>
    </rdf:RDF>
  </metadata>
  <defs
     id="defs127094" />
  <sodipodi:namedview
     inkscape:document-rotation="0"
     pagecolor="#ffffff"
     bordercolor="#666666"
     borderopacity="1"
     objecttolerance="10"
     gridtolerance="10"
     guidetolerance="10"
     inkscape:pageopacity="0"
     inkscape:pageshadow="2"
     inkscape:window-width="1280"
     inkscape:window-height="751"
     id="namedview127092"
     showgrid="false"
     inkscape:zoom="0.78624003"
     inkscape:cx="117.61357"
     inkscape:cy="651.38862"
     inkscape:window-x="0"
     inkscape:window-y="23"
     inkscape:window-maximized="0"
     inkscape:current-layer="g127098" />
  <g
     inkscape:groupmode="layer"
     inkscape:label="Image"
     id="g127098">
    <path
       sodipodi:nodetypes="ccccc"
       inkscape:connector-curvature="0"
       id="path14359-1-7-5-3-0-73-1-9-8-5-14-5-8"
       d="m 402.96934,741.76286 0.98797,170.98968 155.58675,0.099 -0.98087,-171.08849 z"
       style="fill:none;fill-opacity:1;stroke:#000000;stroke-width:1.32662;stroke-linecap:butt;stroke-linejoin:miter;stroke-miterlimit:4;stroke-dasharray:none;stroke-opacity:1" />
    <path
       sodipodi:nodetypes="ccccsssssssssssccscsssssssssssssssssssssscsssssssssssssssssssssssssscssssscc"
       style="font-variation-settings:normal;opacity:1;vector-effect:none;fill:none;fill-opacity:1;stroke:#000000;stroke-width:1.33333;stroke-linecap:round;stroke-linejoin:round;stroke-miterlimit:4;stroke-dasharray:none;stroke-dashoffset:0;stroke-opacity:1;stop-color:#000000;stop-opacity:1"
       d="m 413.42611,751.24192 c -0.22547,0.953 -1.13831,2.85983 -1.03869,2.96573 0.33044,0.31767 1.72212,2.46043 2.00697,3.09576 0.2126,0.31768 0.80474,4.02385 0.54797,4.5533 -0.92977,1.90604 -1.53182,4.9527 -0.94588,7.4941 0.30065,1.27065 -0.9215,2.5414 -1.51312,3.70606 -0.15302,0.31763 -1.62734,1.58839 -2.008,2.32964 -0.63031,1.27065 -0.12652,1.58839 -0.003,2.96491 0.75869,0.63538 0.14656,0.95301 0.66236,1.90602 0.64406,1.27075 2.24265,1.90602 3.19309,2.75316 1.66534,1.58838 3.43726,4.43565 4.47708,6.34178 0.44841,0.84703 -0.4671,2.85903 -0.73125,3.38842 -0.89136,1.80015 0.95158,5.0828 1.67999,6.45943 0.51358,0.95301 -0.9229,1.69427 -0.42916,2.64728 0.92239,1.69416 1.68217,2.12854 3.19344,3.50517 0.63958,0.63538 0.97976,1.58839 1.60916,2.22366 0.62323,0.5295 1.52746,0.5295 2.22353,1.16487 0.32411,0.31764 0.29855,0.95301 0.49492,1.37653 0.22968,0.42361 0.76039,0.42361 0.95437,0.63537 0.13206,0.1062 0.442,2.0119 0.53886,2.22376 0.16073,0.31764 1.7155,1.37653 1.28938,1.80015 -0.20208,0.21175 -2.47415,1.48229 -1.85569,2.01179 0.66257,0.63538 1.97374,-1.27064 2.66531,-0.63527 0.45776,0.42362 0.44565,1.27065 1.12949,1.69416 0.70276,0.42362 2.25628,0.63538 2.69817,1.37663 1.20111,1.80014 1.1244,6.24756 2.05565,7.62409 0.40319,0.63537 -0.15026,1.90613 0.0429,2.64728 0.19212,0.74125 0.80485,0.9529 1.28178,1.37652 0.81735,0.74125 1.52734,2.11778 2.8758,2.5414 1.48078,0.42351 2.76338,0.52939 3.96228,1.69426 0.65129,0.52939 0.1314,2.85904 -0.25659,3.49441 -0.36053,0.52939 -1.01492,0.52939 -1.40126,0.95301 -0.17219,0.21176 0.10975,0.63538 0.17008,0.74126 0.61784,1.16476 -0.3731,2.22365 0.30336,3.49441 0.69789,1.37641 4.54372,2.32942 4.63985,4.55319 0.12139,0 3.34299,4.55329 4.02549,5.50631 0.32485,0.42362 1.14585,0.63537 1.58895,0.84713 0.52675,0.21176 0.9507,1.37663 1.28939,1.80014 0.45259,0.63538 1.65177,0.84713 2.22605,1.37663 0.9026,0.84714 0.99986,2.43531 1.47202,3.38843 0.17707,0.31763 1.54461,0.31763 1.90624,1.05889 0.71132,1.27064 0.98264,2.32953 1.00131,3.38853 0.0136,0.84713 -0.8994,1.69426 -0.43816,2.11777 0.34869,0.31764 -0.19369,1.69427 0.0355,2.11778 0.61508,1.16488 1.71767,3.28266 2.58634,4.12979 0.61999,0.63537 2.91596,-0.31764 3.61212,-0.52939 1.23967,-0.21187 2.93353,0.21175 3.94711,0.74114 1.35703,0.63527 3.68831,-0.42351 5.04119,0.21187 1.18512,0.52939 2.81887,0.9529 3.80994,1.90591 0.54761,0.52939 1.0345,1.58839 1.44928,2.0119 0.57207,0.5295 1.84287,0.42362 2.5307,0.74126 0.63405,0.31763 1.27671,0.74125 1.90625,1.05889 1.50718,0.63537 3.79851,-0.95301 5.34833,-0.31764 1.46796,0.74126 1.0158,4.44742 2.60405,5.18868 1.13834,0.52939 2.55023,-1.48251 4.25175,0.10619 0.81317,0.74126 2.38494,1.58839 3.81502,2.22366 1.34275,0.63538 2.7168,2.11788 3.9825,2.85903 1.08833,0.74126 4.02793,5.27195 4.04065,6.45932 0.0111,1.03635 0.4649,3.38853 0.69274,3.81205 0.49785,0.95301 1.75404,1.16476 1.93405,2.75315 l 33.92049,-4.97681 c 0.77681,-0.42362 2.02242,-0.31774 2.66027,-0.95301 0.44737,-0.5295 0.66807,-3.38853 0.0939,-3.91803 -0.59238,-0.52939 -2.0383,-0.21176 -2.5307,-0.74125 -0.69695,-0.63527 0.40861,-2.75305 -0.21296,-3.38843 -0.12512,-0.1062 -1.04066,-1.69416 -0.51008,-2.22366 1.03009,-1.05888 1.53777,-2.0119 2.30256,-3.60028 0.45767,-0.95301 -0.60744,-5.50631 -0.56319,-5.50631 0.96317,-0.95312 0.66674,-1.80025 1.06628,-2.22366 0.61222,-0.5295 3.93136,-2.11778 3.40415,-3.49441 -0.71526,-2.0119 -2.31968,-1.48251 -3.66519,-2.75315 -0.67685,-0.63538 0.18614,-2.5414 -0.52523,-3.17678 -1.76926,-1.69426 -3.76104,-2.54139 -3.55084,-5.40043 l -76.89066,-61.62807 -1.11121,-48.3919 z"
       id="path14242" />
    <text
       xml:space="preserve"
       style="font-style:normal;font-variant:normal;font-weight:bold;font-stretch:normal;font-size:13.2662px;line-height:5.25121px;font-family:Arial;-inkscape-font-specification:'Arial Bold';letter-spacing:0.497485px;fill:#000000;fill-opacity:1;stroke-width:0.99497"
       id="text14273"
       x="473.49249"
       y="771.28149"
       transform="scale(1.0072053,0.99284624)"><tspan
         style="font-style:normal;font-variant:normal;font-weight:bold;font-stretch:normal;font-size:13.2662px;font-family:Arial;-inkscape-font-specification:'Arial Bold';fill:#000000;fill-opacity:1;stroke-width:0.99497"
         id="tspan14271">California</tspan></text>
    <path
       style="fill:none;fill-opacity:1;stroke:#000000;stroke-width:1.33333;stroke-linecap:butt;stroke-linejoin:miter;stroke-miterlimit:4;stroke-dasharray:none;stroke-opacity:1"
       d="m 29.561501,880.19609 -0.002,4.418 H 144.07642 l 0.002,-4.418 z"
       id="path14359-1-7-5-3-0-73-1-9-8-5-14-8-1"
       inkscape:connector-curvature="0"
       sodipodi:nodetypes="ccccc" />
    <path
       sodipodi:nodetypes="ccccc"
       inkscape:connector-curvature="0"
       id="path14359-1-7-5-3-0-73-1-9-8-5-14-8-2-59"
       d="m 29.561501,880.19609 -0.002,4.418 57.414152,0 0.002,-4.418 z"
       style="fill:#000000;fill-opacity:1;stroke:#000000;stroke-width:1.33333;stroke-linecap:butt;stroke-linejoin:miter;stroke-miterlimit:4;stroke-dasharray:none;stroke-opacity:1" />
    <text
       xml:space="preserve"
       style="font-size:7.95977px;line-height:3.78088px;font-family:Arial;-inkscape-font-specification:Arial;letter-spacing:0px;stroke-width:0.99497"
       x="27.078209"
       y="882.16589"
       id="text6661"
       transform="scale(1.0072053,0.99284624)"><tspan
         sodipodi:role="line"
         id="tspan6659"
         x="27.078209"
         y="882.16589"
         style="stroke-width:0.99497">0</tspan></text>
    <text
       xml:space="preserve"
       style="font-size:7.95977px;line-height:3.78088px;font-family:Arial;-inkscape-font-specification:Arial;letter-spacing:0.447736px;stroke-width:0.99497"
       x="173.02153"
       y="916.99701"
       id="text6661-6-1"
       transform="scale(1.0072053,0.99284624)"><tspan
         sodipodi:role="line"
         id="tspan6659-4-9"
         x="173.02153"
         y="916.99701"
         style="stroke-width:0.99497">Kilometers</tspan></text>
    <text
       id="text6661-6-1-5"
       y="891.08539"
       x="146.13913"
       style="font-size:7.95977px;line-height:3.78088px;font-family:Arial;-inkscape-font-specification:Arial;letter-spacing:0.447736px;stroke-width:0.99497"
       xml:space="preserve"
       transform="scale(1.0072053,0.99284624)"><tspan
         style="font-size:7.95977px;letter-spacing:0.447736px;stroke-width:0.99497"
         y="891.08539"
         x="146.13913"
         id="tspan6659-4-9-8"
         sodipodi:role="line">Miles</tspan></text>
    <path
       sodipodi:nodetypes="ssscccccs"
       d="m 518.57582,783.05454 c 0,5.63157 -4.64249,10.17637 -10.36929,10.17637 -5.72679,0 -10.36927,-4.5448 -10.36927,-10.17637 0,-5.63156 4.62358,-10.27512 10.35037,-10.27512 l -5.36938,18.87069 5.31067,-1.1856 5.44921,1.0868 -5.3905,-18.77189 c 5.72678,0 10.38816,4.64356 10.38819,10.27512 z"
       style="fill:#000000;fill-opacity:1;stroke:#000000;stroke-width:1.32663;stroke-linecap:round;stroke-linejoin:round;stroke-miterlimit:4;stroke-dasharray:none;stroke-dashoffset:3.4"
       id="path1486" />
    <text
       id="text1491"
       y="911.68866"
       x="406.0733"
       style="font-size:13.3333px;line-height:5.27778px;font-family:Arial;-inkscape-font-specification:Arial;letter-spacing:0.238793px;stroke-width:0.99497;stroke-miterlimit:4;stroke-dasharray:none"
       xml:space="preserve"
       transform="scale(1.0072053,0.99284624)"><tspan
         y="911.68866"
         x="406.0733"
         id="tspan1489"
         sodipodi:role="line"
         style="font-size:13.3333px;stroke-width:0.99497">Location Index</tspan></text>
    <path
       style="fill:none;fill-opacity:1;stroke:#000000;stroke-width:1.33333;stroke-linecap:round;stroke-linejoin:round;stroke-miterlimit:4;stroke-dasharray:none;stroke-opacity:1"
       d="m 445.24498,784.22444 -0.003,10.5694"
       id="path14359-1-7-5-3-0-73-1-9-8-5-14"
       inkscape:connector-curvature="0"
       sodipodi:nodetypes="cc" />
    <path
       sodipodi:nodetypes="cc"
       inkscape:connector-curvature="0"
       id="path14359-1-7-5-3-0-73-1-9-8-5-14-8"
       d="m 449.2749,786.41804 -7.93829,6.7804"
       style="fill:none;fill-opacity:1;stroke:#000000;stroke-width:1.33333;stroke-linecap:round;stroke-linejoin:round;stroke-miterlimit:4;stroke-dasharray:none;stroke-opacity:1" />
    <path
       sodipodi:nodetypes="cc"
       inkscape:connector-curvature="0"
       id="path14359-1-7-5-3-0-73-1-9-8-5-14-6"
       d="m 441.47252,786.21874 7.69845,7.2789"
       style="fill:none;fill-opacity:1;stroke:#000000;stroke-width:1.33333;stroke-linecap:round;stroke-linejoin:round;stroke-miterlimit:4;stroke-dasharray:none;stroke-opacity:1" />
    <path
       sodipodi:nodetypes="cc"
       inkscape:connector-curvature="0"
       id="path14359-1-7-5-3-0-73-1-9-8-5-14-2"
       d="m 440.15588,789.70854 h 10.60434"
       style="fill:none;fill-opacity:1;stroke:#000000;stroke-width:1.33333;stroke-linecap:round;stroke-linejoin:round;stroke-miterlimit:4;stroke-dasharray:none;stroke-opacity:1" />
    <path
       style="fill:none;fill-opacity:1;stroke:#000000;stroke-width:1.5;stroke-linecap:butt;stroke-linejoin:miter;stroke-miterlimit:4;stroke-dasharray:none;stroke-opacity:1"
       d="m 26.120383,745.73363 -0.0181,113.84588 184.210367,0 0.006,-113.74707 z"
       id="path14359-1-7-5-3-0-73-1-9-8-5-14-5-8-0"
       inkscape:connector-curvature="0"
       sodipodi:nodetypes="ccccc" />
    <path
       style="fill:none;fill-opacity:1;stroke:#000000;stroke-width:2;stroke-linecap:round;stroke-linejoin:round;stroke-miterlimit:4;stroke-dasharray:none;stroke-opacity:1"
       d="m 38.002729,846.66462 0.002,-17.4874 h 35.77491 l -0.002,17.4874 z"
       id="path14359-1-7-5-3-0-73-1-9-8-5-14-0"
       inkscape:connector-curvature="0"
       sodipodi:nodetypes="ccccc" />
    <path
       sodipodi:nodetypes="cc"
       inkscape:connector-curvature="0"
       id="path14359-1-7-5-3-0-73-1-9-8-5-14-0-3"
       d="m 37.637953,790.50871 h 36.22698"
       style="fill:none;fill-opacity:1;stroke:#000000;stroke-width:2;stroke-linecap:butt;stroke-linejoin:round;stroke-miterlimit:4;stroke-dasharray:none;stroke-opacity:1" />
    <path
       sodipodi:nodetypes="cc"
       id="path5728"
       d="M 41.851961,846.37468 58.673734,829.546"
       style="font-variation-settings:normal;opacity:1;vector-effect:none;fill:none;fill-opacity:1;stroke:#000000;stroke-width:1;stroke-linecap:butt;stroke-linejoin:miter;stroke-miterlimit:4;stroke-dasharray:none;stroke-dashoffset:0;stroke-opacity:1;stop-color:#000000;stop-opacity:1" />
    <text
       xml:space="preserve"
       style="font-size:13.2662px;line-height:6.30149px;font-family:Arial;-inkscape-font-specification:Arial;letter-spacing:-0.149246px;stroke-width:0.99497"
       x="80.4739"
       y="801.15479"
       id="text7907-9"
       transform="scale(1.0072053,0.99284624)"><tspan
         sodipodi:role="line"
         id="tspan7905-3"
         x="80.4739"
         y="801.15479"
         style="stroke-width:0.99497">Highways</tspan></text>
    <path
       sodipodi:nodetypes="ccccc"
       inkscape:connector-curvature="0"
       id="path14359-1-7-5-3-0-73-1-9-8-5-14-5-8-0-0"
       d="M 1.9513887,2.8518026 1.9332887,927.81335 H 575.18417 l 0.006,-924.9615474 z"
       style="fill:none;fill-opacity:1;stroke:#000000;stroke-width:2;stroke-linecap:butt;stroke-linejoin:miter;stroke-miterlimit:4;stroke-dasharray:none;stroke-opacity:1" />
    <path
       sodipodi:nodetypes="ccccc"
       inkscape:connector-curvature="0"
       id="path14359-1-7-5-3-0-73-1-9-8-5-14-0-5"
       d="m 38.04961,822.70345 0.002,-17.09234 h 35.8027 l -0.002,17.09234 z"
       style="fill:none;fill-opacity:1;stroke:#000000;stroke-width:2;stroke-linecap:butt;stroke-linejoin:round;stroke-miterlimit:4;stroke-dasharray:8, 8;stroke-dashoffset:3.19998;stroke-opacity:1" />
    <path
       style="font-variation-settings:normal;opacity:1;vector-effect:none;fill:none;fill-opacity:1;stroke:#000000;stroke-width:1;stroke-linecap:butt;stroke-linejoin:miter;stroke-miterlimit:4;stroke-dasharray:none;stroke-dashoffset:0;stroke-opacity:1;stop-color:#000000;stop-opacity:1"
       d="M 38.237921,841.09758 49.958736,829.51467"
       id="path5728-9"
       sodipodi:nodetypes="cc" />
    <path
       style="font-variation-settings:normal;opacity:1;vector-effect:none;fill:none;fill-opacity:1;stroke:#000000;stroke-width:1;stroke-linecap:butt;stroke-linejoin:miter;stroke-miterlimit:4;stroke-dasharray:none;stroke-dashoffset:0;stroke-opacity:1;stop-color:#000000;stop-opacity:1"
       d="m 68.714649,846.56582 4.98221,-5.12088"
       id="path5728-6"
       sodipodi:nodetypes="cc" />
    <path
       style="font-variation-settings:normal;opacity:1;vector-effect:none;fill:none;fill-opacity:1;stroke:#000000;stroke-width:1;stroke-linecap:butt;stroke-linejoin:miter;stroke-miterlimit:4;stroke-dasharray:none;stroke-dashoffset:0;stroke-opacity:1;stop-color:#000000;stop-opacity:1"
       d="M 59.156008,846.73632 73.567103,832.73193"
       id="path5728-68"
       sodipodi:nodetypes="cc" />
    <path
       style="font-variation-settings:normal;opacity:1;vector-effect:none;fill:none;fill-opacity:1;stroke:#000000;stroke-width:1;stroke-linecap:butt;stroke-linejoin:miter;stroke-miterlimit:4;stroke-dasharray:none;stroke-dashoffset:0;stroke-opacity:1;stop-color:#000000;stop-opacity:1"
       d="m 50.917212,846.57872 16.74376,-16.92157"
       id="path5728-5"
       sodipodi:nodetypes="cc" />
    <text
       xml:space="preserve"
       style="font-size:7.95977px;line-height:3.78088px;font-family:Arial;-inkscape-font-specification:Arial;letter-spacing:0.447736px;stroke-width:0.99497"
       x="97.806801"
       y="908.09595"
       id="text6661-34-6"
       transform="scale(1.0072053,0.99284624)"><tspan
         style="font-size:7.95977px;stroke-width:0.99497"
         sodipodi:role="line"
         id="tspan6659-7-7"
         x="97.806801"
         y="908.09595">1</tspan></text>
    <text
       id="text6661-0"
       y="908.3327"
       x="168.49022"
       style="font-size:7.95977px;line-height:3.78088px;font-family:Arial;-inkscape-font-specification:Arial;letter-spacing:0px;stroke-width:0.99497"
       xml:space="preserve"
       transform="scale(1.0072053,0.99284624)"><tspan
         y="908.3327"
         x="168.49022"
         id="tspan6659-08"
         sodipodi:role="line"
         style="stroke-width:0.99497">2</tspan></text>
    <text
       id="text6661-7"
       y="908.56818"
       x="27.809996"
       style="font-size:7.95977px;line-height:3.78088px;font-family:Arial;-inkscape-font-specification:Arial;letter-spacing:0px;stroke-width:0.99497"
       xml:space="preserve"
       transform="scale(1.0072053,0.99284624)"><tspan
         y="908.56818"
         x="27.809996"
         id="tspan6659-8"
         sodipodi:role="line"
         style="stroke-width:0.99497">0</tspan></text>
    <text
       xml:space="preserve"
       style="font-size:7.95977px;line-height:3.78088px;font-family:Arial;-inkscape-font-specification:Arial;letter-spacing:0.447736px;stroke-width:0.99497"
       x="80.145149"
       y="881.93829"
       id="text6661-34-4"
       transform="scale(1.0072053,0.99284624)"><tspan
         style="font-size:7.95977px;stroke-width:0.99497"
         sodipodi:role="line"
         id="tspan6659-7-6"
         x="80.145149"
         y="881.93829">0.5</tspan></text>
    <text
       xml:space="preserve"
       style="font-size:7.95977px;line-height:3.78088px;font-family:Arial;-inkscape-font-specification:Arial;letter-spacing:0px;stroke-width:0.99497"
       x="140.72034"
       y="881.66022"
       id="text6661-0-4"
       transform="scale(1.0072053,0.99284624)"><tspan
         sodipodi:role="line"
         id="tspan6659-08-4"
         x="140.72034"
         y="881.66022"
         style="stroke-width:0.99497">1</tspan></text>
    <path
       sodipodi:nodetypes="ccccc"
       inkscape:connector-curvature="0"
       id="path14359-1-7-5-3-0-73-1-9-8-5-14-8-1-1"
       d="m 29.473678,905.86649 -0.0579,4.8615 142.194252,0 0.0579,-4.8615 z"
       style="fill:none;fill-opacity:1;stroke:#000000;stroke-width:1.33333;stroke-linecap:butt;stroke-linejoin:miter;stroke-miterlimit:4;stroke-dasharray:none;stroke-opacity:1" />
    <path
       style="fill:#000000;fill-opacity:1;stroke:#000000;stroke-width:1.33333;stroke-linecap:butt;stroke-linejoin:miter;stroke-miterlimit:4;stroke-dasharray:none;stroke-opacity:1"
       d="m 29.473678,905.86649 -0.0579,4.8615 71.106252,0 0.0579,-4.8615 z"
       id="path14359-1-7-5-3-0-73-1-9-8-5-14-8-2-59-3"
       inkscape:connector-curvature="0"
       sodipodi:nodetypes="ccccc" />
    <path
       style="fill:none;fill-opacity:1;stroke:#000000;stroke-width:2;stroke-linecap:butt;stroke-linejoin:round;stroke-miterlimit:4;stroke-dasharray:none;stroke-opacity:1"
       d="M 2.1146058,727.46957 H 575.2893"
       id="path14359-1-7-5-3-0-73-1-9-8-5-14-0-3-9"
       inkscape:connector-curvature="0"
       sodipodi:nodetypes="cc" />
    <path
       style="fill:none;fill-opacity:1;stroke:#000000;stroke-width:2;stroke-linecap:butt;stroke-linejoin:round;stroke-miterlimit:4;stroke-dasharray:none;stroke-opacity:1"
       d="M 1.5564744,84.069593 H 575.17447"
       id="path14359-1-7-5-3-0-73-1-9-8-5-14-0-3-0"
       inkscape:connector-curvature="0"
       sodipodi:nodetypes="cc" />
    <path
       style="fill:none;fill-opacity:1;stroke:#000000;stroke-width:2;stroke-linecap:butt;stroke-linejoin:round;stroke-miterlimit:4;stroke-dasharray:none;stroke-opacity:1"
       d="m 2.0656279,108.85707 70.9776481,80.10552 44.391544,41.31893 50.39686,48.55738 34.45799,33.27723 36.88704,40.87522 27.32371,29.94925 42.46627,46.28765 11.14451,12.16062 20.15857,22.39415 5.05511,5.94599 7.47235,8.46408 7.47287,7.86358 21.39342,24.01766 48.85331,53.9463 55.36396,61.70161 5.31373,11.13024 1.37481,8.26638 2.75031,36.30128 4.28767,45.76352"
       id="path14359-1-7-5-3-0-73-1-9-8-5-14-0-3-4"
       inkscape:connector-curvature="0"
       sodipodi:nodetypes="cccccccccccccccccccc" />
    <path
       id="path108930-6"
       style="opacity:0.999;fill:#ffffed;fill-opacity:1;stroke:#000000;stroke-width:1.32662;stroke-linecap:butt;stroke-linejoin:round;stroke-miterlimit:4;stroke-dasharray:none;stroke-dashoffset:4.26667;stroke-opacity:1"
       d="m 87.263496,187.76616 a 14.253789,14.050584 0 0 1 -14.25378,14.02951 14.253789,14.050584 0 0 1 -14.25379,-14.02951 14.253789,14.050584 0 0 1 14.25379,-14.02949 14.253789,14.050584 0 0 1 14.25378,14.02949 z" />
    <text
       id="text108934"
       y="196.08012"
       x="61.92585"
       style="font-style:normal;font-variant:normal;font-weight:bold;font-stretch:normal;font-size:18.57280000000000086px;line-height:17.98179999999999978px;font-family:Arial;-inkscape-font-specification:'Arial Bold';letter-spacing:0.49748500000000001px;fill:#000000;fill-opacity:1;stroke-width:0.99497;stroke:none;stroke-opacity:1;"
       xml:space="preserve"
       transform="scale(1.0072053,0.99284624)"><tspan
         y="196.08012"
         x="61.92585"
         id="tspan108932"
         sodipodi:role="line"
         style="stroke-width:0.99497;stroke:none;stroke-opacity:1;">99</tspan></text>
    <path
       d="m 87.263496,187.76616 a 14.253789,14.050584 0 0 1 -14.25378,14.02951 14.253789,14.050584 0 0 1 -14.25379,-14.02951 14.253789,14.050584 0 0 1 14.25379,-14.02949 14.253789,14.050584 0 0 1 14.25378,14.02949 z"
       style="opacity:0.999;fill:none;stroke:#000000;stroke-width:1.32663;stroke-linecap:butt;stroke-linejoin:round;stroke-miterlimit:4;stroke-dasharray:none;stroke-dashoffset:4.26667;stroke-opacity:1"
       id="path108930" />
    <path
       style="fill:none;fill-opacity:1;stroke:#000000;stroke-width:1.33333;stroke-linecap:round;stroke-linejoin:round;stroke-miterlimit:4;stroke-dasharray:none;stroke-opacity:1"
       d="m 411.91697,84.292921 -15.91123,19.893249 -21.97085,3.12809 -8.70816,4.25424 -14.49532,16.816 -11.87486,7.19162 -3.81386,0.82323 -8.14457,4.40879 -7.90039,8.6176 -6.07482,13.04497 c -0.89431,1.92041 -2.46142,2.92344 -4.15211,3.41193 l -4.02051,1.16165 -7.44835,6.04684 -23.33877,24.17992 -9.12004,27.33375 -8.82279,15.35517 -5.92854,18.12458 -7.74139,7.82135 -13.87565,4.68833 -15.36618,0.44863 -45.44858,7.81972 -64.44215,6.43188"
       id="path14359-1-7-5-3-0-73-1-9-8-5-14-3"
       inkscape:connector-curvature="0"
       sodipodi:nodetypes="cccccccccssccccccccccc" />
    <path
       sodipodi:nodetypes="cccccccccccccccsssssscssssc"
       inkscape:connector-curvature="0"
       id="path14359-1-7-5-3-0-73-1-9-8-5-14-3-6"
       d="m 2.0217934,205.09479 13.8726496,2.25667 4.024965,2.64874 3.529347,5.34464 16.323903,12.69771 2.377254,4.27117 37.78794,28.68528 23.379998,24.29546 -0.075,1.52231 17.83759,20.37351 2.59544,0.009 7.18978,9.39098 5.66979,15.46768 1.71315,3.13151 10.90196,10.74758 30.51441,25.59031 c 1.36114,1.1415 4.61617,2.83848 7.21239,4.34006 l 17.9242,10.36694 c 2.80554,1.62266 9.37088,4.21834 12.30911,5.47352 l 50.9963,21.78504 c 1.68981,0.72187 2.43206,1.51372 3.59145,2.51635 l 10.75339,8.56846 6.48947,4.27263 c 0.66334,0.43674 1.28498,1.01196 1.43582,1.75114 l 1.1258,5.51694 c 0.20412,1.00028 -0.19049,1.68864 -0.80418,2.53978 l -2.12859,2.95214"
       style="fill:none;fill-opacity:1;stroke:#000000;stroke-width:1.33333;stroke-linecap:round;stroke-linejoin:round;stroke-miterlimit:4;stroke-dasharray:none;stroke-opacity:1" />
    <path
       sodipodi:nodetypes="ccccc"
       inkscape:connector-curvature="0"
       id="path14359-1-7-5-3-0-73-1-9-8-5-14-3-3"
       d="m 266.50042,382.9406 0.79555,2.95979 3.31539,9.19346 24.62946,22.40297 13.72587,11.73143"
       style="fill:none;fill-opacity:1;stroke:#000000;stroke-width:2;stroke-linecap:round;stroke-linejoin:round;stroke-miterlimit:4;stroke-dasharray:none;stroke-opacity:1" />
    <path
       sodipodi:nodetypes="cc"
       id="path109201"
       d="m 269.17826,391.77653 2.53992,-2.4827"
       style="font-variation-settings:normal;opacity:1;vector-effect:none;fill:none;fill-opacity:1;stroke:#000000;stroke-width:1.33333333;stroke-linecap:butt;stroke-linejoin:miter;stroke-miterlimit:4;stroke-dasharray:none;stroke-dashoffset:0;stroke-opacity:1;stop-color:#000000;stop-opacity:1" />
    <path
       sodipodi:nodetypes="cc"
       id="path109205"
       d="m 272.82744,396.58463 3.19907,-3.31694"
       style="font-variation-settings:normal;opacity:1;vector-effect:none;fill:none;fill-opacity:1;stroke:#000000;stroke-width:1.33333333;stroke-linecap:butt;stroke-linejoin:miter;stroke-miterlimit:4;stroke-dasharray:none;stroke-dashoffset:0;stroke-opacity:1;stop-color:#000000;stop-opacity:1" />
    <path
       sodipodi:nodetypes="cc"
       id="path109209"
       d="m 277.45871,400.80324 2.79584,-2.70048"
       style="font-variation-settings:normal;opacity:1;vector-effect:none;fill:none;fill-opacity:1;stroke:#000000;stroke-width:1.33333333;stroke-linecap:butt;stroke-linejoin:miter;stroke-miterlimit:4;stroke-dasharray:none;stroke-dashoffset:0;stroke-opacity:1;stop-color:#000000;stop-opacity:1" />
    <path
       sodipodi:nodetypes="cc"
       id="path109213"
       d="m 282.29592,404.94924 2.287,-2.39119"
       style="font-variation-settings:normal;opacity:1;vector-effect:none;fill:none;fill-opacity:1;stroke:#000000;stroke-width:1.33333333;stroke-linecap:butt;stroke-linejoin:miter;stroke-miterlimit:4;stroke-dasharray:none;stroke-dashoffset:0;stroke-opacity:1;stop-color:#000000;stop-opacity:1" />
    <path
       sodipodi:nodetypes="cc"
       id="path109217"
       d="m 286.8038,409.38438 1.87086,-1.98294"
       style="font-variation-settings:normal;opacity:1;vector-effect:none;fill:none;fill-opacity:1;stroke:#000000;stroke-width:1.33333333;stroke-linecap:butt;stroke-linejoin:miter;stroke-miterlimit:4;stroke-dasharray:none;stroke-dashoffset:0;stroke-opacity:1;stop-color:#000000;stop-opacity:1" />
    <path
       sodipodi:nodetypes="cc"
       id="path109219"
       d="m 289.99456,412.65687 1.69291,-1.53015"
       style="font-variation-settings:normal;opacity:1;vector-effect:none;fill:none;fill-opacity:1;stroke:#000000;stroke-width:1.33333333;stroke-linecap:butt;stroke-linejoin:miter;stroke-miterlimit:4;stroke-dasharray:none;stroke-dashoffset:0;stroke-opacity:1;stop-color:#000000;stop-opacity:1" />
    <path
       sodipodi:nodetypes="cccccc"
       inkscape:connector-curvature="0"
       id="path14359-1-7-5-3-0-73-1-9-8-5-14-3-7"
       d="m 320.1112,441.38887 29.39292,11.65223 3.00914,3.16839 1.67993,7.64521 2.30141,16.19039 c 0.10351,1.08806 1.85374,4.04063 3.7755,6.01158"
       style="fill:none;fill-opacity:1;stroke:#000000;stroke-width:1.33333;stroke-linecap:round;stroke-linejoin:round;stroke-miterlimit:4;stroke-dasharray:none;stroke-opacity:1" />
    <path
       sodipodi:nodetypes="cccccccc"
       inkscape:connector-curvature="0"
       id="path14359-1-7-5-3-0-73-1-9-8-5-14-3-76"
       d="m 320.1112,441.38887 3.26269,12.30517 0.18054,13.63621 5.26442,4.76392 3.98545,0.89872 9.92293,-0.12654 3.78675,0.83073 c 1.8735,0.0578 4.19437,2.30139 6.28325,4.49601"
       style="fill:none;fill-opacity:1;stroke:#000000;stroke-width:1.33333;stroke-linecap:round;stroke-linejoin:round;stroke-miterlimit:4;stroke-dasharray:none;stroke-opacity:1" />
    <path
       sodipodi:nodetypes="cssssccccccccssccccccccc"
       inkscape:connector-curvature="0"
       id="path14359-1-7-5-3-0-73-1-9-8-5-14-3-5"
       d="m 574.88202,480.72668 -31.18587,7.62187 c -1.89491,0.46312 -4.76028,-0.11095 -6.34532,-1.12958 l -6.81351,-4.37872 c -1.61444,-1.03753 -3.10562,-0.98121 -4.67422,-0.91362 l -98.30306,4.23618 -34.23044,-0.43087 -5.2726,-2.78212 -9.7441,-10.01943 -9.20333,-6.30784 -5.34786,-1.71092 -9.74235,-1.95244 -5.90261,-0.19612 -7.70897,1.04996 c -1.45039,0.19754 -0.83348,0.61829 -4.24814,0.65431 l -12.11316,0.12779 -12.60769,-4.17886 -7.30579,-3.66867 -6.56904,-5.47399 -8.75645,-9.17776 -2.78588,-2.86922 -5.711,-4.58324 -7.53885,-5.38105 -6.4515,-2.79682"
       style="fill:none;fill-opacity:1;stroke:#000000;stroke-width:1.33333;stroke-linecap:round;stroke-linejoin:round;stroke-miterlimit:4;stroke-dasharray:none;stroke-opacity:1" />
    <path
       sodipodi:nodetypes="ccccssc"
       inkscape:connector-curvature="0"
       id="path14359-1-7-5-3-0-73-1-9-8-5-14-3-65"
       d="m 2.3568425,437.19436 70.6265865,-2.40897 89.827611,-4.75024 94.96933,-3.41985 7.62267,-0.14621 c 2.59934,-0.0499 4.1091,-1.17525 7.5072,-1.18557 l 10.3747,-0.0315"
       style="fill:none;fill-opacity:1;stroke:#000000;stroke-width:1.33333;stroke-linecap:round;stroke-linejoin:round;stroke-miterlimit:4;stroke-dasharray:none;stroke-opacity:1" />
    <text
       id="text7907-9-2"
       y="824.8656"
       x="79.05999"
       style="font-size:13.2662px;line-height:6.30149px;font-family:Arial;-inkscape-font-specification:Arial;letter-spacing:-0.149246px;stroke-width:0.99497"
       xml:space="preserve"
       transform="scale(1.0072053,0.99284624)"><tspan
         y="824.8656"
         x="79.05999"
         id="tspan7905-3-1"
         sodipodi:role="line"
         style="stroke-width:0.99497">County Boundary</tspan></text>
    <text
       id="text7907-9-4"
       y="848.73138"
       x="79.631912"
       style="font-size:13.2662px;line-height:6.30149px;font-family:Arial;-inkscape-font-specification:Arial;letter-spacing:-0.149246px;stroke-width:0.99497"
       xml:space="preserve"
       transform="scale(1.0072053,0.99284624)"><tspan
         y="848.73138"
         x="79.631912"
         id="tspan7905-3-0"
         sodipodi:role="line"
         style="stroke-width:0.99497">Final Critical Habitat</tspan><tspan
         y="855.0329"
         x="79.631912"
         sodipodi:role="line"
         style="stroke-width:0.99497"
         id="tspan128169" /></text>
    <text
       transform="matrix(1.0061358,-0.04619724,0.04627253,0.99177699,0,0)"
       xml:space="preserve"
       style="font-size:13.2662px;line-height:6.30146px;font-family:Arial;-inkscape-font-specification:Arial;letter-spacing:0.248743px;stroke-width:0.99497"
       x="20.822737"
       y="434.70642"
       id="text7907-9-2-7"><tspan
         sodipodi:role="line"
         id="tspan7905-3-1-1"
         x="20.822737"
         y="434.70642"
         style="stroke-width:0.99497">Durham Dayton Rd.</tspan></text>
    <text
       id="text7907-9-2-7-1"
       y="250.51511"
       x="350.81964"
       style="font-size:13.2662px;line-height:6.30146px;font-family:Arial;-inkscape-font-specification:Arial;letter-spacing:0.248743px;stroke-width:0.99497"
       xml:space="preserve"
       transform="matrix(0.91139267,0.42175209,-0.42871144,0.89883327,0,0)"><tspan
         y="250.51511"
         x="350.81964"
         id="tspan7905-3-1-1-5"
         sodipodi:role="line"
         style="stroke-width:0.99497" /><tspan
         id="tspan109350"
         y="256.81656"
         x="350.81964"
         sodipodi:role="line"
         style="stroke-width:0.99497">Hwy.</tspan></text>
    <text
       transform="matrix(0.89560252,0.4511443,-0.46041736,0.88463946,0,0)"
       xml:space="preserve"
       style="font-size:13.2662px;line-height:6.30149px;font-family:Arial;-inkscape-font-specification:Arial;letter-spacing:0.248743px;stroke-width:0.99497"
       x="321.14679"
       y="237.20842"
       id="text7907-9-2-7-1-4"><tspan
         sodipodi:role="line"
         id="tspan7905-3-1-1-5-7"
         x="321.14679"
         y="237.20842"
         style="stroke-width:0.99497" /><tspan
         sodipodi:role="line"
         x="321.14679"
         y="243.5099"
         id="tspan109350-5"
         style="stroke-width:0.99497">Chico</tspan></text>
    <text
       transform="matrix(0.72043259,0.69572453,-0.70369771,0.70849132,0,0)"
       xml:space="preserve"
       style="font-size:13.2662px;line-height:6.30146px;font-family:Arial;-inkscape-font-specification:Arial;letter-spacing:0.248743px;stroke-width:0.99497"
       x="325.04721"
       y="129.28186"
       id="text7907-9-2-7-1-5"><tspan
         sodipodi:role="line"
         id="tspan7905-3-1-1-5-6"
         x="325.04721"
         y="129.28186"
         style="stroke-width:0.99497" /><tspan
         sodipodi:role="line"
         x="325.04721"
         y="135.58331"
         id="tspan109350-4"
         style="stroke-width:0.99497">Oroville</tspan></text>
    <text
       transform="matrix(1.00024,-0.11526736,0.11805836,0.98615502,0,0)"
       xml:space="preserve"
       style="font-size:13.2662px;line-height:6.30146px;font-family:Arial;-inkscape-font-specification:Arial;letter-spacing:0.248743px;stroke-width:0.99497"
       x="145.29404"
       y="276.99829"
       id="text7907-9-2-7-1-0"><tspan
         sodipodi:role="line"
         id="tspan7905-3-1-1-5-2"
         x="145.29404"
         y="276.99829"
         style="stroke-width:0.99497" /><tspan
         sodipodi:role="line"
         x="145.29404"
         y="283.29974"
         id="tspan109350-8"
         style="stroke-width:0.99497">Neal Rd.</tspan></text>
    <text
       id="text109395"
       y="599.89001"
       x="145.8909"
       style="font-size:19.8995px;line-height:19.2662px;font-family:Arial;-inkscape-font-specification:Arial;letter-spacing:-0.0397989px;stroke-width:0.99497"
       xml:space="preserve"
       transform="scale(1.0072053,0.99284624)"><tspan
         y="599.89001"
         x="145.8909"
         id="tspan109393"
         sodipodi:role="line"
         style="stroke-width:0.99497">BUTTE CO.</tspan></text>
    <text
       id="text109399"
       y="398.09567"
       x="332.83746"
       style="font-style:normal;font-variant:normal;font-weight:bold;font-stretch:normal;font-size:17.2462px;line-height:16.6974px;font-family:Arial;-inkscape-font-specification:'Arial Bold';letter-spacing:-0.0397989px;stroke-width:0.99497"
       xml:space="preserve"
       transform="scale(1.0072053,0.99284624)"><tspan
         y="398.09567"
         x="332.83746"
         id="tspan109397"
         sodipodi:role="line"
         style="stroke-width:0.99497">UNIT 2</tspan></text>
    <text
       xml:space="preserve"
       style="font-style:normal;font-variant:normal;font-weight:bold;font-stretch:normal;font-size:17.24620000000000175px;line-height:16.69739999999999824px;font-family:Arial;-inkscape-font-specification:'Arial Bold';letter-spacing:-0.03979890000000000px;stroke-width:0.99497;stroke:none;stroke-opacity:1;fill:#000000;fill-opacity:1;"
       x="33.45343"
       y="36.990654"
       id="text109399-0"
       transform="scale(1.0072053,0.99284624)"><tspan
         sodipodi:role="line"
         id="tspan109397-1"
         x="33.45343"
         y="36.990654"
         style="stroke-width:0.99497;stroke:none;stroke-opacity:1;fill:#000000;fill-opacity:1;">Map 2.</tspan></text>
    <text
       id="text109399-0-6"
       y="36.723244"
       x="114.04429"
       style="font-style:normal;font-variant:normal;font-weight:bold;font-stretch:normal;font-size:17.24620000000000175px;line-height:20.97409999999999997px;font-family:Arial;-inkscape-font-specification:'Arial Bold';letter-spacing:0.11939700000000000px;stroke-width:0.99497;stroke:none;stroke-opacity:1;fill:#000000;fill-opacity:1;"
       xml:space="preserve"
       transform="scale(1.0072053,0.99284624)"><tspan
         y="36.723244"
         x="114.04429"
         id="tspan109397-1-9"
         sodipodi:role="line"
         style="stroke-width:0.99497;stroke:none;stroke-opacity:1;fill:#000000;fill-opacity:1;">Vernal Pool Critical Habitat</tspan><tspan
         id="tspan109535"
         y="57.697342"
         x="114.04429"
         sodipodi:role="line"
         style="stroke-width:0.99497;stroke:none;stroke-opacity:1;fill:#000000;fill-opacity:1;">Hoover's Spurge, Unit 2</tspan></text>
    <path
       style="font-variation-settings:normal;opacity:1;vector-effect:none;fill:none;fill-opacity:1;stroke:#000000;stroke-width:0.666667;stroke-linecap:butt;stroke-linejoin:miter;stroke-miterlimit:4;stroke-dasharray:none;stroke-dashoffset:0;stroke-opacity:1;stop-color:#000000;stop-opacity:1"
       d="m 297.19848,418.87062 1.11821,-0.88088"
       id="path109221-6"
       sodipodi:nodetypes="cc" />
    <path
       style="font-variation-settings:normal;opacity:1;vector-effect:none;fill:none;fill-opacity:1;stroke:#000000;stroke-width:1.33333333;stroke-linecap:butt;stroke-linejoin:miter;stroke-miterlimit:4;stroke-dasharray:none;stroke-dashoffset:0;stroke-opacity:1;stop-color:#000000;stop-opacity:1"
       d="m 293.8133,415.6837 1.41072,-1.37925"
       id="path109221-7"
       sodipodi:nodetypes="cc" />
    <path
       sodipodi:nodetypes="ccccc"
       inkscape:connector-curvature="0"
       id="path14359-1-7-5-3-0-73-2-0"
       d="m 315.7499,404.38816 -13.96303,6.04235 7.46045,-13.22329 3.22192,3.54277 z"
       style="fill:#000000;fill-opacity:1;stroke:#000000;stroke-width:1.33333;stroke-linecap:butt;stroke-linejoin:miter;stroke-miterlimit:4;stroke-dasharray:none;stroke-opacity:1" />
    <path
       sodipodi:nodetypes="cc"
       inkscape:connector-curvature="0"
       id="path8331-0-6"
       d="m 312.47486,400.7451 14.56163,-12.94506"
       style="fill:none;fill-opacity:1;fill-rule:evenodd;stroke:#000000;stroke-width:1.33333;stroke-linecap:butt;stroke-linejoin:miter;stroke-miterlimit:4;stroke-dasharray:none;stroke-opacity:1" />
    <path
       sodipodi:nodetypes="cc"
       id="path5728-6-5"
       d="m 38.075916,832.59184 3.389703,-3.27692"
       style="font-variation-settings:normal;opacity:1;vector-effect:none;fill:none;fill-opacity:1;stroke:#000000;stroke-width:1;stroke-linecap:butt;stroke-linejoin:miter;stroke-miterlimit:4;stroke-dasharray:none;stroke-dashoffset:0;stroke-opacity:1;stop-color:#000000;stop-opacity:1" />
    <path
       style="fill:none;fill-opacity:1;stroke:#000000;stroke-width:1;stroke-linecap:butt;stroke-linejoin:round;stroke-miterlimit:4;stroke-dasharray:none;stroke-opacity:1"
       d="M 37.95952,766.83403 H 74.1865"
       id="path14359-1-7-5-3-0-73-1-9-8-5-14-0-3-2"
       inkscape:connector-curvature="0"
       sodipodi:nodetypes="cc" />
    <text
       transform="scale(1.0072053,0.99284624)"
       id="text7907-9-9"
       y="776.89337"
       x="79.987793"
       style="font-size:13.2662px;line-height:6.30149px;font-family:Arial;-inkscape-font-specification:Arial;letter-spacing:-0.149246px;stroke-width:0.99497"
       xml:space="preserve"><tspan
         style="stroke-width:0.99497"
         y="776.89337"
         x="79.987793"
         id="tspan7905-3-3"
         sodipodi:role="line">Local Roads</tspan></text>
    <path
       d="m 453.35676,574.41511 a 14.253789,14.050584 0 0 1 -14.25378,14.0295 14.253789,14.050584 0 0 1 -14.25379,-14.0295 14.253789,14.050584 0 0 1 14.25379,-14.1283 14.253789,14.050584 0 0 1 14.25378,14.1283 z"
       style="opacity:0.999;fill:#ffffed;fill-opacity:1;stroke:#000000;stroke-width:1.32662;stroke-linecap:butt;stroke-linejoin:round;stroke-miterlimit:4;stroke-dasharray:none;stroke-dashoffset:4.26667;stroke-opacity:1"
       id="path108930-6-7" />
    <text
       xml:space="preserve"
       style="font-style:normal;font-variant:normal;font-weight:bold;font-stretch:normal;font-size:18.5728px;line-height:17.9818px;font-family:Arial;-inkscape-font-specification:'Arial Bold';letter-spacing:0.497485px;fill:#000000;fill-opacity:1;stroke-width:0.99497"
       x="425.40024"
       y="585.39227"
       id="text108934-1"
       transform="scale(1.0072053,0.99284624)"><tspan
         sodipodi:role="line"
         id="tspan108932-5"
         x="425.40024"
         y="585.39227"
         style="stroke-width:0.99497">99</tspan></text>
    <path
       id="path108930-9"
       style="opacity:0.999;fill:none;stroke:#000000;stroke-width:1.32662;stroke-linecap:butt;stroke-linejoin:round;stroke-miterlimit:4;stroke-dasharray:none;stroke-dashoffset:4.26667;stroke-opacity:1"
       d="m 453.35676,574.41511 a 14.253789,14.050584 0 0 1 -14.25378,14.0295 14.253789,14.050584 0 0 1 -14.25379,-14.0295 14.253789,14.050584 0 0 1 14.25379,-14.1283 14.253789,14.050584 0 0 1 14.25378,14.1283 z" />
    <path
       id="path108930-6-7-5"
       style="opacity:0.999;fill:#ffffed;fill-opacity:1;stroke:#000000;stroke-width:1.32662;stroke-linecap:butt;stroke-linejoin:round;stroke-miterlimit:4;stroke-dasharray:none;stroke-dashoffset:4.26667;stroke-opacity:1"
       d="m 506.73118,695.49576 a 14.253789,14.050584 0 0 1 -14.25378,14.0295 14.253789,14.050584 0 0 1 -14.25379,-14.0295 14.253789,14.050584 0 0 1 14.25379,-14.1283 14.253789,14.050584 0 0 1 14.25378,14.1283 z" />
    <text
       transform="scale(1.0072053,0.99284624)"
       id="text108934-1-6"
       y="707.34534"
       x="478.39285"
       style="font-style:normal;font-variant:normal;font-weight:bold;font-stretch:normal;font-size:18.5728px;line-height:17.9818px;font-family:Arial;-inkscape-font-specification:'Arial Bold';letter-spacing:0.497485px;fill:#000000;fill-opacity:1;stroke-width:0.99497"
       xml:space="preserve"><tspan
         style="stroke-width:0.99497"
         y="707.34534"
         x="478.39285"
         id="tspan108932-5-9"
         sodipodi:role="line">99</tspan></text>
    <path
       d="m 506.73118,695.49576 a 14.253789,14.050584 0 0 1 -14.25378,14.0295 14.253789,14.050584 0 0 1 -14.25379,-14.0295 14.253789,14.050584 0 0 1 14.25379,-14.1283 14.253789,14.050584 0 0 1 14.25378,14.1283 z"
       style="opacity:0.999;fill:none;stroke:#000000;stroke-width:1.32662;stroke-linecap:butt;stroke-linejoin:round;stroke-miterlimit:4;stroke-dasharray:none;stroke-dashoffset:4.26667;stroke-opacity:1"
       id="path108930-9-6" />
    <path
       sodipodi:nodetypes="ccc"
       inkscape:connector-curvature="0"
       id="path14359-1-7-5-3-0-73-1-9-8-5-14-38"
       d="m 484.76706,624.12538 9.92156,7.97328 4.31421,8.99887"
       style="fill:none;fill-opacity:1;stroke:#000000;stroke-width:1.33357;stroke-linecap:round;stroke-linejoin:round;stroke-miterlimit:4;stroke-dasharray:none;stroke-opacity:1" />
    <path
       sodipodi:nodetypes="ccc"
       inkscape:connector-curvature="0"
       id="path14359-1-7-5-3-0-73-1-9-8-5-14-5"
       d="m 500.04756,641.90278 -4.05238,-0.26578 -3.32201,1.59141"
       style="fill:none;fill-opacity:1;stroke:#000000;stroke-width:1.33357;stroke-linecap:round;stroke-linejoin:round;stroke-miterlimit:4;stroke-dasharray:none;stroke-opacity:1" />
    <path
       sodipodi:nodetypes="cccc"
       inkscape:connector-curvature="0"
       id="path14359-1-7-5-3-0-73-1-9-8-5-14-89"
       d="m 491.19452,636.85248 10.87742,5.81339 17.46506,5.71706 55.2163,40.82318"
       style="fill:none;fill-opacity:1;stroke:#000000;stroke-width:2;stroke-linecap:round;stroke-linejoin:round;stroke-miterlimit:4;stroke-dasharray:none;stroke-opacity:1" />
    <path
       d="m 550.11195,656.87292 a 14.253789,14.050584 0 0 1 -14.25378,14.0295 14.253789,14.050584 0 0 1 -14.25379,-14.0295 14.253789,14.050584 0 0 1 14.25379,-14.1283 14.253789,14.050584 0 0 1 14.25378,14.1283 z"
       style="opacity:0.999;fill:#ffffed;fill-opacity:1;stroke:#000000;stroke-width:1.32662;stroke-linecap:butt;stroke-linejoin:round;stroke-miterlimit:4;stroke-dasharray:none;stroke-dashoffset:4.26667;stroke-opacity:1"
       id="path108930-6-7-5-4" />
    <text
       xml:space="preserve"
       style="font-style:normal;font-variant:normal;font-weight:bold;font-stretch:normal;font-size:13.3333px;line-height:12.9091px;font-family:Arial;-inkscape-font-specification:'Arial Bold';letter-spacing:0.497485px;fill:#000000;fill-opacity:1;stroke-width:0.99497"
       x="519.74603"
       y="666.5932"
       id="text108934-1-6-6"
       transform="scale(1.0072053,0.99284624)"><tspan
         sodipodi:role="line"
         id="tspan108932-5-9-4"
         x="519.74603"
         y="666.5932"
         style="font-size:13.3333px;stroke-width:0.99497">149</tspan></text>
    <path
       id="path108930-9-6-4"
       style="opacity:0.999;fill:none;stroke:#000000;stroke-width:1.32662;stroke-linecap:butt;stroke-linejoin:round;stroke-miterlimit:4;stroke-dasharray:none;stroke-dashoffset:4.26667;stroke-opacity:1"
       d="m 550.11195,656.87292 a 14.253789,14.050584 0 0 1 -14.25378,14.0295 14.253789,14.050584 0 0 1 -14.25379,-14.0295 14.253789,14.050584 0 0 1 14.25379,-14.1283 14.253789,14.050584 0 0 1 14.25378,14.1283 z" />
    <text
       id="text7907-9-2-7-3"
       y="484.72595"
       x="400.29578"
       style="font-size:13.2662px;line-height:6.30146px;font-family:Arial;-inkscape-font-specification:Arial;letter-spacing:0.248743px;stroke-width:0.99497"
       xml:space="preserve"
       transform="matrix(1.0071612,-0.00834619,0.00896114,0.99281543,0,0)"><tspan
         style="stroke-width:0.99497"
         y="484.72595"
         x="400.29578"
         id="tspan7905-3-1-1-2"
         sodipodi:role="line">Durham Pentz Hwy.</tspan></text>
  </g>
</svg>
