<?xml version="1.0" encoding="UTF-8" standalone="no"?>
<svg
   xmlns:dc="http://purl.org/dc/elements/1.1/"
   xmlns:cc="http://creativecommons.org/ns#"
   xmlns:rdf="http://www.w3.org/1999/02/22-rdf-syntax-ns#"
   xmlns:svg="http://www.w3.org/2000/svg"
   xmlns="http://www.w3.org/2000/svg"
   xmlns:sodipodi="http://sodipodi.sourceforge.net/DTD/sodipodi-0.dtd"
   xmlns:inkscape="http://www.inkscape.org/namespaces/inkscape"
   inkscape:version="1.0 (4035a4f, 2020-05-01)"
   sodipodi:docname="er17jy13.000.svg"
   viewBox="0 0 472.95999 632.96002"
   height="632.96002"
   width="472.95999"
   id="svg7803"
   version="1.1">
  <metadata
     id="metadata7809">
    <rdf:RDF>
      <cc:Work
         rdf:about="">
        <dc:format>image/svg+xml</dc:format>
        <dc:type
           rdf:resource="http://purl.org/dc/dcmitype/StillImage" />
        <dc:title></dc:title>
      </cc:Work>
    </rdf:RDF>
  </metadata>
  <defs
     id="defs7807" />
  <sodipodi:namedview
     inkscape:current-layer="g7811"
     inkscape:window-maximized="0"
     inkscape:window-y="23"
     inkscape:window-x="0"
     inkscape:cy="556.53924"
     inkscape:cx="231.99715"
     inkscape:zoom="2.1949345"
     showgrid="false"
     id="namedview7805"
     inkscape:window-height="751"
     inkscape:window-width="1280"
     inkscape:pageshadow="2"
     inkscape:pageopacity="0"
     guidetolerance="10"
     gridtolerance="10"
     objecttolerance="10"
     borderopacity="1"
     bordercolor="#666666"
     pagecolor="#ffffff"
     inkscape:document-rotation="0" />
  <g
     id="g7811"
     inkscape:label="Image"
     inkscape:groupmode="layer">
    <path
       style="font-variation-settings:normal;opacity:1;vector-effect:none;fill:none;fill-opacity:1;stroke:#000000;stroke-width:3.33333333;stroke-linecap:round;stroke-linejoin:round;stroke-miterlimit:4;stroke-dasharray:none;stroke-dashoffset:0;stroke-opacity:1;stop-color:#000000;stop-opacity:1"
       d="m 369.00992,106.27219 c -2.83528,0.0885 -3.71664,-0.007 -4.99713,2.55409 -0.20729,0.41457 0.20729,1.14008 0,1.55466 -0.17943,0.35887 -0.5867,0.61817 -0.77733,0.99942 -0.41284,0.82569 1.29885,1.58838 0.66628,2.22095 -0.53898,0.53898 -0.82726,3.45365 -0.44419,4.21979 1.2638,2.52759 2.14377,1.32785 3.33142,3.10932 0.30264,0.45397 0.83367,3.3845 0.66628,3.88666 -0.2494,0.7482 -0.91549,0.50099 -0.44418,1.44361 0.33589,0.67178 1.2853,0.84112 1.77675,1.33257 0.53483,0.53483 0.72542,1.3917 1.22152,1.8878 0.2759,0.27589 0.9998,0.0557 1.33257,0.22209 0.38642,0.19322 0.77771,0.6294 1.22152,0.77733 0.58791,0.19598 0.99886,-0.0374 1.55466,0.33315 1.09383,0.72922 0.5307,2.17187 0.99942,3.10932 0.39881,0.79762 1.23967,1.23967 1.77676,1.77675 1.63723,1.63724 2.19402,4.63372 1.55466,6.55179 0.28356,0.85134 1.13073,1.2923 1.55466,1.99885 0.31496,0.52493 -0.0388,1.07166 0.44419,1.55466 1.23245,1.23245 4.56108,0.80263 5.99655,1.99885 0.48483,0.40402 0.81589,1.19248 1.22152,1.66571 0.37848,0.44156 1.02008,0.53543 1.44361,0.88838 0.23539,0.19615 0.16286,0.41457 0.44419,0.55523 0.41991,0.20996 1.43396,-0.11662 1.77676,-0.22209 0.37097,-0.11415 1.59362,-0.24807 1.8878,-0.44419 0.87012,-0.58008 0.97753,-1.9879 1.8878,-2.44304 0.50372,-0.25186 1.45389,0.0272 1.99885,0.11105 0.40904,0.0629 0.92889,-0.0705 1.22152,0.22209 0.0471,0.0471 0.71978,4.22793 0.66629,4.44189 -0.099,0.39595 -0.72076,0.94706 -0.55524,1.44362 0.22595,0.67784 0.96167,0.88726 1.33257,1.44361 0.24117,0.36176 0.30973,0.81238 0.77733,0.99942 1.00888,0.40356 2.26606,-0.44506 2.88722,-1.22151 0.17347,-0.21684 0.0331,-0.36622 0.2221,-0.55524 0.18921,-0.18921 5.06548,0.21784 5.66341,0.66628 0.56505,0.4238 0.0982,1.08479 0.33314,1.55466 0.38753,0.77507 1.58669,0.0128 2.1099,0.2221 1.173,0.4692 1.43265,2.14326 2.66513,2.55408 0.85879,0.28627 2.21528,-1.22435 3.7756,-0.44418 0.65506,0.32752 1.99097,1.87203 2.332,2.55408 0.29244,0.58489 0.41717,1.30555 0.88837,1.77676 0.65803,0.65802 1.57939,0.0765 2.22095,0.33314 0.58416,0.23366 1.01979,0.61585 1.66571,0.77733 0.34291,0.0857 0.90597,-0.15777 1.22152,0 0.49071,0.24536 0.85961,0.8267 1.33256,1.11047 1.97392,1.18435 0.96641,2.28247 2.1099,3.9977 1.17057,1.75586 2.22874,0.25181 2.99828,0.44419 0.31699,0.0793 0.59533,0.40872 0.88837,0.55524 0.89976,3.61377 2.14081,-1.45598 2.66514,-1.66571 0.72673,-0.2907 1.63927,0.10574 1.8878,-0.88838 0.29186,-1.16745 -2.33199,-1.5665 -2.33199,-2.99828 0,-1.77833 0.89603,-1.43595 -0.2221,-2.55408 -0.0413,-0.0413 0.58508,-0.75303 0.66629,-0.88838 0.13635,-0.22725 0.0808,-2.14012 -0.11105,-2.33199 -0.29483,-0.29483 -0.77382,-0.9889 -0.88838,-1.33257 -0.29849,-0.89546 1.11047,-1.55017 1.11047,-2.44304 0,-0.5163 -1.13072,-2.72577 -1.55466,-3.22037 -0.96078,-1.12091 -2.3915,-2.4018 -3.55351,-3.33141 -0.63982,-0.51186 -1.46708,-0.73941 -2.1099,-1.22152 -0.67304,-0.50478 -0.83242,-2.08192 -1.11047,-2.22095 -0.52326,-0.26162 -2.88346,0.44513 -3.7756,0.2221 -1.73051,-0.43263 -0.96575,-1.96267 -1.99885,-2.22095 -0.43449,-0.10862 -0.90911,0.0687 -1.33257,0.11105 -1.17921,0.11792 -1.99723,-0.38785 -2.99828,-0.88838 -0.8368,-0.4184 -0.93166,-1.83736 -1.44361,-2.55408 -0.43626,-0.61077 -1.16105,-1.0753 -1.55466,-1.66571 -0.27562,-0.41343 -0.41986,-1.42739 -0.77733,-1.66571 -1.52876,-1.01917 -3.17134,-0.0207 -4.77503,-0.55524 -1.22105,-0.40701 -4.62452,-3.20165 -5.33027,-4.33084 -0.10003,-0.16005 -0.074,-0.37015 -0.11105,-0.55523 -0.11104,-0.18508 -0.21341,-0.37565 -0.33314,-0.55524 -0.66237,-0.99356 -1.50224,-1.83538 -2.33199,-2.66513 -0.81468,-0.81468 -1.52583,-1.51623 -2.22094,-2.44304 -0.14031,-0.18707 -0.77733,-1.1807 -0.77733,-0.66628 -0.40717,-0.29613 -0.81435,-0.59225 -1.22152,-0.88838 -0.18508,-0.11105 -0.38068,-0.20619 -0.55524,-0.33314 -1.12346,-0.81706 -1.78094,-2.19371 -2.88723,-2.99828 -2.10779,-1.53294 -4.56438,-2.0103 -6.44074,-3.88665 -0.63166,-0.63166 -1.71826,-3.06694 -2.33199,-3.22037 -1.1888,-0.2972 -1.84477,0.66628 -2.99827,0.66628 -1.29575,0 -2.17531,-2.40881 -3.10932,-3.10932 -0.90707,-0.6803 -2.23415,0.20889 -3.10933,-0.66628 -0.69277,-0.69278 -0.51249,-1.69557 -1.11047,-2.44304 -1.01825,-1.27281 -2.22564,-0.2906 -3.44246,-0.77733 -1.01515,-0.40606 -1.17714,-1.33257 -2.33199,-1.33257 z"
       id="path6808" />
    <path
       style="font-variation-settings:normal;opacity:1;vector-effect:none;fill:none;fill-opacity:1;stroke:#000000;stroke-width:1.33333;stroke-linecap:butt;stroke-linejoin:miter;stroke-miterlimit:4;stroke-dasharray:none;stroke-dashoffset:0;stroke-opacity:1;stop-color:#000000;stop-opacity:1"
       d="m 370.92278,107.58791 -7.34986,8.60983"
       id="path6810" />
    <path
       style="font-variation-settings:normal;opacity:1;vector-effect:none;fill:none;fill-opacity:1;stroke:#000000;stroke-width:1.33333;stroke-linecap:butt;stroke-linejoin:miter;stroke-miterlimit:4;stroke-dasharray:none;stroke-dashoffset:0;stroke-opacity:1;stop-color:#000000;stop-opacity:1"
       d="m 375.61269,111.36783 -8.88983,10.1498"
       id="path6812" />
    <path
       style="font-variation-settings:normal;opacity:1;vector-effect:none;fill:none;fill-opacity:1;stroke:#000000;stroke-width:1.33333;stroke-linecap:butt;stroke-linejoin:miter;stroke-miterlimit:4;stroke-dasharray:none;stroke-dashoffset:0;stroke-opacity:1;stop-color:#000000;stop-opacity:1"
       d="m 380.1626,113.53779 -11.75977,13.50974"
       id="path6814"
       sodipodi:nodetypes="cc" />
    <path
       style="font-variation-settings:normal;opacity:1;vector-effect:none;fill:none;fill-opacity:1;stroke:#000000;stroke-width:1.33333;stroke-linecap:butt;stroke-linejoin:miter;stroke-miterlimit:4;stroke-dasharray:none;stroke-dashoffset:0;stroke-opacity:1;stop-color:#000000;stop-opacity:1"
       d="m 385.83249,115.56775 -13.29974,14.83971"
       id="path6816" />
    <path
       style="font-variation-settings:normal;opacity:1;vector-effect:none;fill:none;fill-opacity:1;stroke:#000000;stroke-width:1.33333;stroke-linecap:butt;stroke-linejoin:miter;stroke-miterlimit:4;stroke-dasharray:none;stroke-dashoffset:0;stroke-opacity:1;stop-color:#000000;stop-opacity:1"
       d="m 375.47269,134.18739 13.99973,-15.3997"
       id="path6818" />
    <path
       style="font-variation-settings:normal;opacity:1;vector-effect:none;fill:none;fill-opacity:1;stroke:#000000;stroke-width:1.33333;stroke-linecap:butt;stroke-linejoin:miter;stroke-miterlimit:4;stroke-dasharray:none;stroke-dashoffset:0;stroke-opacity:1;stop-color:#000000;stop-opacity:1"
       d="m 378.41263,138.24731 15.32971,-16.93967"
       id="path6820"
       sodipodi:nodetypes="cc" />
    <path
       style="font-variation-settings:normal;opacity:1;vector-effect:none;fill:none;fill-opacity:1;stroke:#000000;stroke-width:1.33333;stroke-linecap:butt;stroke-linejoin:miter;stroke-miterlimit:4;stroke-dasharray:none;stroke-dashoffset:0;stroke-opacity:1;stop-color:#000000;stop-opacity:1"
       d="m 380.0926,144.47719 18.45588,-19.21592"
       id="path6822" />
    <path
       style="font-variation-settings:normal;opacity:1;vector-effect:none;fill:none;fill-opacity:1;stroke:#000000;stroke-width:1.33333;stroke-linecap:butt;stroke-linejoin:miter;stroke-miterlimit:4;stroke-dasharray:none;stroke-dashoffset:0;stroke-opacity:1;stop-color:#000000;stop-opacity:1"
       d="m 384.43252,146.92714 16.65967,-18.05965"
       id="path6824" />
    <path
       style="font-variation-settings:normal;opacity:1;vector-effect:none;fill:none;fill-opacity:1;stroke:#000000;stroke-width:1.33333;stroke-linecap:butt;stroke-linejoin:miter;stroke-miterlimit:4;stroke-dasharray:none;stroke-dashoffset:0;stroke-opacity:1;stop-color:#000000;stop-opacity:1"
       d="m 388.98243,149.93708 16.44968,-17.07967"
       id="path6826" />
    <path
       style="font-variation-settings:normal;opacity:1;vector-effect:none;fill:none;fill-opacity:1;stroke:#000000;stroke-width:1.33333;stroke-linecap:butt;stroke-linejoin:miter;stroke-miterlimit:4;stroke-dasharray:none;stroke-dashoffset:0;stroke-opacity:1;stop-color:#000000;stop-opacity:1"
       d="m 397.80226,147.76712 10.49979,-11.33978"
       id="path6828" />
    <path
       style="font-variation-settings:normal;opacity:1;vector-effect:none;fill:none;fill-opacity:1;stroke:#000000;stroke-width:1.33333;stroke-linecap:butt;stroke-linejoin:miter;stroke-miterlimit:4;stroke-dasharray:none;stroke-dashoffset:0;stroke-opacity:1;stop-color:#000000;stop-opacity:1"
       d="m 399.27223,154.41699 14.76971,-16.44968"
       id="path6830" />
    <path
       style="font-variation-settings:normal;opacity:1;vector-effect:none;fill:none;fill-opacity:1;stroke:#000000;stroke-width:1.33333;stroke-linecap:butt;stroke-linejoin:miter;stroke-miterlimit:4;stroke-dasharray:none;stroke-dashoffset:0;stroke-opacity:1;stop-color:#000000;stop-opacity:1"
       d="m 406.0621,154.41699 10.98978,-12.31976"
       id="path6832" />
    <path
       style="font-variation-settings:normal;opacity:1;vector-effect:none;fill:none;fill-opacity:1;stroke:#000000;stroke-width:1.33333;stroke-linecap:butt;stroke-linejoin:miter;stroke-miterlimit:4;stroke-dasharray:none;stroke-dashoffset:0;stroke-opacity:1;stop-color:#000000;stop-opacity:1"
       d="m 411.172,156.79695 11.12978,-12.24976"
       id="path6834" />
    <path
       style="font-variation-settings:normal;opacity:1;vector-effect:none;fill:none;fill-opacity:1;stroke:#000000;stroke-width:1.33333;stroke-linecap:butt;stroke-linejoin:miter;stroke-miterlimit:4;stroke-dasharray:none;stroke-dashoffset:0;stroke-opacity:1;stop-color:#000000;stop-opacity:1"
       d="m 416.1419,159.1069 10.91979,-12.87975"
       id="path6836" />
    <path
       style="font-variation-settings:normal;opacity:1;vector-effect:none;fill:none;fill-opacity:1;stroke:#000000;stroke-width:1.33333;stroke-linecap:butt;stroke-linejoin:miter;stroke-miterlimit:4;stroke-dasharray:none;stroke-dashoffset:0;stroke-opacity:1;stop-color:#000000;stop-opacity:1"
       d="m 420.27182,161.41686 10.56979,-11.89977"
       id="path6838" />
    <path
       style="font-variation-settings:normal;opacity:1;vector-effect:none;fill:none;fill-opacity:1;stroke:#000000;stroke-width:1.33333;stroke-linecap:butt;stroke-linejoin:miter;stroke-miterlimit:4;stroke-dasharray:none;stroke-dashoffset:0;stroke-opacity:1;stop-color:#000000;stop-opacity:1"
       d="m 424.82173,164.4968 10.1498,-11.33978"
       id="path6840" />
    <path
       style="font-variation-settings:normal;opacity:1;vector-effect:none;fill:none;fill-opacity:1;stroke:#000000;stroke-width:1.33333;stroke-linecap:butt;stroke-linejoin:miter;stroke-miterlimit:4;stroke-dasharray:none;stroke-dashoffset:0;stroke-opacity:1;stop-color:#000000;stop-opacity:1"
       d="m 429.30164,167.29674 6.29988,-7.62985"
       id="path6842" />
    <path
       style="font-variation-settings:normal;opacity:1;vector-effect:none;fill:none;fill-opacity:1;stroke:#000000;stroke-width:3.33332992;stroke-linecap:round;stroke-linejoin:round;stroke-miterlimit:4;stroke-dasharray:none;stroke-dashoffset:0;stroke-opacity:1;stop-color:#000000;stop-opacity:1"
       d="m 122.27954,83.961525 c -0.45642,0.0652 -0.95733,-0.09028 -1.40875,0 -0.80031,0.160061 -4.32137,0.188432 -4.69584,0.375667 -0.59168,0.29584 -2.0485,1.63751 -2.254,2.254001 -0.33721,1.011644 -1.26894,4.975459 -0.75133,6.010668 0.33136,0.662729 1.00705,2.519921 0.75133,3.287085 -0.45475,1.364256 -0.21118,2.981469 -0.65742,4.320164 -0.16811,0.50435 0.23598,1.31247 0,1.78442 -1.06069,2.12139 -1.37556,4.06315 -2.06616,6.48025 -0.11289,0.39511 -0.46776,0.74403 -0.5635,1.127 -0.13846,0.55384 -0.1679,1.12123 -0.28175,1.6905 -0.12557,0.62785 -0.56516,0.84691 -0.93917,1.22092 -0.34435,0.34435 -0.54321,1.25773 -1.03308,1.50267 -1.04194,0.52096 -3.49318,0.43043 -3.94451,1.78441 -0.68577,2.05732 0.018,6.55619 -1.59658,8.17076 -1.15921,1.15921 -1.55857,-0.11293 -2.34792,0.28175 -0.712023,0.35601 -1.483547,1.05801 -2.253997,1.31483 -0.634365,0.21146 -1.334412,0.0691 -1.972251,0.28175 -1.101973,0.36733 -1.590827,1.403 -2.254,2.06617 -0.386553,0.38655 -1.634896,-0.0556 -1.972251,0.28175 -0.402062,0.40206 -1.299598,0.55842 -1.878334,0.75133 -0.534527,0.17818 -0.995215,1.16437 -1.502667,1.50267 -0.355336,0.23689 -1.032338,0.281 -1.314834,0.5635 -0.855989,0.85599 -0.678161,1.67956 -0.939167,2.72358 -0.172958,0.69184 -0.609568,1.59481 -0.939167,2.254 -0.446928,0.89386 -2.22073,3.7293 -1.6905,4.78976 0.43079,0.86158 1.50031,1.28431 2.535751,0.93916 0.198778,-0.0663 0.380226,0.0894 0.5635,-0.0939 0.256274,-0.25628 0.247482,-1.10987 0.469583,-1.22092 0.208557,-0.10428 0.590868,0.0547 0.657417,0.18783 0.799506,1.59901 2.437093,1.64592 3.850585,0.93917 0.388869,-0.19444 0.489882,-0.51442 0.84525,-0.75133 0.951376,-0.63426 3.844314,-1.25723 5.071501,-1.50267 0.561182,-0.11224 1.113593,-0.60376 1.596584,-0.84525 0.452145,-0.22607 1.146787,-0.15077 1.596587,-0.37567 0.37215,-0.18608 0.74108,-0.43486 1.127,-0.5635 0.10188,-0.034 0.65875,0.0926 0.75133,0 0.33898,-0.33898 1.20759,-0.63597 1.78442,-0.75133 1.44319,-0.28864 1.49525,0.55609 2.16008,1.22091 0.12028,0.12029 0.68747,-0.18783 0.84525,-0.18783 0.27482,0 1.32806,0.0807 1.50267,-0.0939 0.62132,-0.62131 1.14769,-2.26434 2.06617,-2.72358 0.0977,-0.0488 2.00966,0.26304 3.09925,-0.28175 0.5701,-0.28505 0.90914,-2.82134 1.127,-3.47492 0.23783,-0.71348 -0.84562,-0.89166 0,-2.16008 1.17189,-1.75783 1.87678,-0.65586 2.44183,-1.22092 0.56362,-0.56361 -0.31862,-2.1577 0.5635,-2.53575 0.56967,-0.24414 2.51493,-0.44876 2.8175,-0.75133 3.94187,0.79397 4.87528,-4.1642 5.635,-6.94987 0.22274,-0.81671 0.91951,-1.55287 1.03309,-2.34792 0.33027,-2.31188 -0.235,-2.70759 1.127,-4.97758 0.0969,-0.16155 0.0856,-0.37152 0.28175,-0.46958 0.60144,-0.30073 2.09024,-1.16692 2.8175,-0.75134 0.38961,0.22264 0.76439,0.55597 1.22092,0.65742 0.48036,0.10675 1.03083,-0.14065 1.50266,-0.18783 2.01025,-0.20103 3.40342,0.11099 4.50801,1.87833 0.64342,1.02948 -0.31376,2.56566 0.18783,3.56883 0.20036,0.40073 0.35626,0.86154 0.46958,1.31484 0.25032,1.00126 0.71032,1.8069 1.97225,1.59658 1.08833,-0.18139 1.40875,-1.72197 1.40875,-2.53575 0,-1.38585 -1.91085,0.71517 -2.34791,-1.03308 -0.10373,-0.41489 0.0935,-0.40641 0.28175,-0.65742 0.26305,-0.35073 0.0556,-0.82088 0.37566,-1.22092 0.62853,-0.78566 1.60814,-0.83223 1.78442,-2.06616 0.18859,-1.32015 -1.03685,-2.09256 -1.22092,-3.381 -0.0813,-0.56891 -0.16011,-2.07183 0.18784,-2.53576 0.18019,-0.24025 0.51409,-0.37273 0.75133,-0.65741 0.3208,-0.38496 0.22885,-0.96829 0.37567,-1.40875 0.30381,-0.91144 -1.16856,-1.9415 -0.84525,-2.91142 0.12429,-0.372887 0.44317,-2.058833 -0.18783,-3.005335 0,0 -1.40423,-0.983862 -2.16009,-1.596583 -0.95432,-0.773604 -1.71515,-1.621228 -2.06617,-1.972251 -0.94061,-0.940612 -1.57394,-2.490458 -2.16008,-3.662751 -0.19793,-0.395861 -1.85893,-1.651673 -2.06617,-2.066167 -0.67856,-1.357107 -0.97379,-3.012698 -0.37567,-4.508001 0.18978,-0.474441 0.42848,-0.586915 0.46958,-0.751334 0.19967,-1.004789 0.91772,-3.626522 -0.28174,-4.226251 -0.72784,-0.363918 -1.30877,0.42566 -1.97225,0.09392 -0.46931,-0.234655 -0.71488,-0.723991 -1.127,-1.033083 -2.01677,-1.512574 -3.44461,-0.959375 -5.44717,0.375667 -0.62471,0.416469 -0.7764,1.076952 -1.127,1.6905 -0.32667,0.571667 -0.84178,1.120061 -1.127,1.690501 -0.54381,1.087609 -0.15303,2.551949 -0.84525,3.474917 z"
       id="path6792"
       sodipodi:nodetypes="csssssssssssssssscsssssssscsscsssssccsssscssssscssscsssssssssscssssssssssssc" />
    <path
       style="font-variation-settings:normal;opacity:1;vector-effect:none;fill:none;fill-opacity:1;stroke:#000000;stroke-width:3.33333;stroke-linecap:round;stroke-linejoin:round;stroke-miterlimit:4;stroke-dasharray:none;stroke-dashoffset:0;stroke-opacity:1;stop-color:#000000;stop-opacity:1"
       d="m 134.30087,87.342526 -2.8175,2.441834 c -0.3176,0.409891 -1.0215,1.83072 -0.84524,2.535751 0.2731,1.092411 0.53519,1.164316 1.03308,2.160084 0.40004,0.800089 0.18783,1.904104 0.18783,2.723584 0,0.546464 0.41221,1.116767 0.46958,1.690501 0.1443,1.44296 -0.83347,2.9229 -1.03308,4.32017 -0.0724,0.50659 0.23147,1.37174 0.0939,1.78441 -0.26732,0.80195 -0.46959,2.67754 -0.46959,3.56884"
       id="path6794"
       sodipodi:nodetypes="ccssssssc" />
    <path
       style="font-variation-settings:normal;opacity:1;vector-effect:none;fill:none;fill-opacity:1;stroke:#000000;stroke-width:1.33333;stroke-linecap:butt;stroke-linejoin:miter;stroke-miterlimit:4;stroke-dasharray:none;stroke-dashoffset:0;stroke-opacity:1;stop-color:#000000;stop-opacity:1"
       d="M 113.82703,95.795029 131.20162,77.387357"
       id="path6796" />
    <path
       style="font-variation-settings:normal;opacity:1;vector-effect:none;fill:none;fill-opacity:1;stroke:#000000;stroke-width:1.33333;stroke-linecap:butt;stroke-linejoin:miter;stroke-miterlimit:4;stroke-dasharray:none;stroke-dashoffset:0;stroke-opacity:1;stop-color:#000000;stop-opacity:1"
       d="M 111.57303,106.78328 132.79821,83.398025"
       id="path6798" />
    <path
       style="font-variation-settings:normal;opacity:1;vector-effect:none;fill:none;fill-opacity:1;stroke:#000000;stroke-width:1.33333;stroke-linecap:butt;stroke-linejoin:miter;stroke-miterlimit:4;stroke-dasharray:none;stroke-dashoffset:0;stroke-opacity:1;stop-color:#000000;stop-opacity:1"
       d="M 87.342526,140.68721 134.77046,88.281693"
       id="path6800" />
    <path
       style="font-variation-settings:normal;opacity:1;vector-effect:none;fill:none;fill-opacity:1;stroke:#000000;stroke-width:1.33333;stroke-linecap:butt;stroke-linejoin:miter;stroke-miterlimit:4;stroke-dasharray:none;stroke-dashoffset:0;stroke-opacity:1;stop-color:#000000;stop-opacity:1"
       d="M 95.043695,140.02979 138.43321,93.071445"
       id="path6802" />
    <path
       style="font-variation-settings:normal;opacity:1;vector-effect:none;fill:none;fill-opacity:1;stroke:#000000;stroke-width:1.33333;stroke-linecap:butt;stroke-linejoin:miter;stroke-miterlimit:4;stroke-dasharray:none;stroke-dashoffset:0;stroke-opacity:1;stop-color:#000000;stop-opacity:1"
       d="M 104.90495,136.64879 141.62638,96.358529"
       id="path6804" />
    <path
       style="font-variation-settings:normal;opacity:1;vector-effect:none;fill:none;fill-opacity:1;stroke:#000000;stroke-width:1.33333;stroke-linecap:butt;stroke-linejoin:miter;stroke-miterlimit:4;stroke-dasharray:none;stroke-dashoffset:0;stroke-opacity:1;stop-color:#000000;stop-opacity:1"
       d="m 137.30621,109.78862 5.635,-6.19851"
       id="path6806" />
    <path
       sodipodi:nodetypes="ccccc"
       inkscape:connector-curvature="0"
       id="path14359-1-7-5-3-0-73-1-9-8-5-14-5-8"
       d="m 298.84562,468.0439 0.015,164.04004 164.89933,0.099 -0.008,-164.13885 z"
       style="fill:none;fill-opacity:1;stroke:#000000;stroke-width:1.32662;stroke-linecap:butt;stroke-linejoin:miter;stroke-miterlimit:4;stroke-dasharray:none;stroke-opacity:1" />
    <text
       xml:space="preserve"
       style="font-style:normal;font-variant:normal;font-weight:normal;font-stretch:normal;font-size:13.26619999999999955px;line-height:5.25121000000000038px;font-family:Arial;-inkscape-font-specification:Arial;letter-spacing:0.3px;fill:#000000;fill-opacity:1;stroke-width:0.99497"
       id="text14273"
       x="359.62469"
       y="563.30463"
       transform="scale(1.0072053,0.99284624)"><tspan
         style="font-style:normal;font-variant:normal;font-weight:normal;font-stretch:normal;font-size:13.26619999999999955px;font-family:Arial;-inkscape-font-specification:Arial;fill:#000000;fill-opacity:1;stroke-width:0.99497;"
         id="tspan14271">Missouri</tspan></text>
    <path
       style="fill:none;fill-opacity:1;stroke:#000000;stroke-width:1.33333;stroke-linecap:butt;stroke-linejoin:miter;stroke-miterlimit:4;stroke-dasharray:none;stroke-opacity:1"
       d="m 12.777278,546.28678 -0.002,8.15031 H 175.23199 l 0.002,-8.15031 z"
       id="path14359-1-7-5-3-0-73-1-9-8-5-14-8-1"
       inkscape:connector-curvature="0"
       sodipodi:nodetypes="ccccc" />
    <path
       sodipodi:nodetypes="ccccc"
       inkscape:connector-curvature="0"
       id="path14359-1-7-5-3-0-73-1-9-8-5-14-8-2-59"
       d="m 12.777278,546.28678 -0.002,8.15031 19.454075,0 0.002,-8.15031 z"
       style="fill:#000000;fill-opacity:1;stroke:#000000;stroke-width:1.33333;stroke-linecap:butt;stroke-linejoin:miter;stroke-miterlimit:4;stroke-dasharray:none;stroke-opacity:1" />
    <path
       style="fill:#000000;fill-opacity:1;stroke:#000000;stroke-width:1.33333;stroke-linecap:butt;stroke-linejoin:miter;stroke-miterlimit:4;stroke-dasharray:none;stroke-opacity:1"
       d="m 53.208923,546.28678 -0.002,8.15031 h 20.023009 l 0.002,-8.15031 z"
       id="path14359-1-7-5-3-0-73-1-9-8-5-14-8-2-5-2"
       inkscape:connector-curvature="0"
       sodipodi:nodetypes="ccccc" />
    <text
       id="text6661-5"
       y="543.69641"
       x="90.020996"
       style="font-size:10.6667px;line-height:5.06665px;font-family:Arial;-inkscape-font-specification:Arial;letter-spacing:0.447736px;stroke-width:0.99497"
       xml:space="preserve"
       transform="scale(1.0072053,0.99284624)"><tspan
         y="543.69641"
         x="90.020996"
         id="tspan6659-9"
         sodipodi:role="line"
         style="font-size:10.6667px;stroke-width:0.99497">0</tspan></text>
    <text
       xml:space="preserve"
       style="font-size:9.33333px;line-height:4.43332px;font-family:Arial;-inkscape-font-specification:Arial;letter-spacing:0.25px;stroke-width:0.99497"
       x="42.350903"
       y="587.86121"
       id="text6661-6-1"
       transform="scale(1.0072053,0.99284624)"><tspan
         sodipodi:role="line"
         id="tspan6659-4-9"
         x="42.350903"
         y="587.86121"
         style="font-size:9.33333px;stroke-width:0.99497">Kilometers</tspan></text>
    <text
       id="text6661-6-1-5"
       y="530.58722"
       x="81.118912"
       style="font-size:9.33333px;line-height:5.06665px;font-family:Arial;-inkscape-font-specification:Arial;letter-spacing:0.25px;stroke-width:0.99497"
       xml:space="preserve"
       transform="scale(1.0072053,0.99284624)"><tspan
         style="font-size:9.33333px;stroke-width:0.99497"
         y="530.58722"
         x="81.118912"
         id="tspan6659-4-9-8"
         sodipodi:role="line">Miles</tspan></text>
    <path
       sodipodi:nodetypes="ssscccccs"
       d="m 270.35766,505.43462 c 0,9.71619 -8.00975,17.55741 -17.89027,17.55741 -9.8805,0 -17.89024,-7.84122 -17.89024,-17.55741 0,-9.71621 7.97712,-17.7278 17.85763,-17.7278 l -9.26387,32.55783 9.16257,-2.04552 9.4016,1.87506 -9.3003,-32.38737 c 9.88049,0 17.92283,8.01159 17.92288,17.7278 z"
       style="fill:#000000;fill-opacity:1;stroke:#000000;stroke-width:1;stroke-linecap:round;stroke-linejoin:round;stroke-miterlimit:4;stroke-dasharray:none;stroke-dashoffset:3.4"
       id="path1486" />
    <text
       id="text1491"
       y="626.54382"
       x="308.47244"
       style="font-size:13.2662px;line-height:6.30149px;font-family:Arial;-inkscape-font-specification:Arial;letter-spacing:0.238793px;stroke-width:0.99497;stroke-miterlimit:4;stroke-dasharray:none"
       xml:space="preserve"
       transform="scale(1.0072053,0.99284624)"><tspan
         y="626.54382"
         x="308.47244"
         id="tspan1489"
         sodipodi:role="line"
         style="stroke-width:0.99497">Location Index</tspan></text>
    <path
       style="fill:none;fill-opacity:1;stroke:#000000;stroke-width:1.33333;stroke-linecap:butt;stroke-linejoin:miter;stroke-miterlimit:4;stroke-dasharray:none;stroke-opacity:1"
       d="m 5.6285184,456.66033 -0.0181,25.85183 H 136.04206 l 0.006,-25.75302 z"
       id="path14359-1-7-5-3-0-73-1-9-8-5-14-5-8-0"
       inkscape:connector-curvature="0"
       sodipodi:nodetypes="ccccc" />
    <text
       id="text6661-0"
       y="543.33081"
       x="167.24185"
       style="font-size:10.6667px;line-height:5.06665px;font-family:Arial;-inkscape-font-specification:Arial;letter-spacing:0px;stroke-width:0.99497"
       xml:space="preserve"
       transform="scale(1.0072053,0.99284624)"><tspan
         y="543.33081"
         x="167.24185"
         id="tspan6659-08"
         sodipodi:role="line"
         style="font-size:10.6667px;stroke-width:0.99497">20</tspan><tspan
         y="548.39746"
         x="167.24185"
         sodipodi:role="line"
         style="font-size:10.6667px;stroke-width:0.99497"
         id="tspan6009" /></text>
    <path
       sodipodi:nodetypes="ccccc"
       inkscape:connector-curvature="0"
       id="path14359-1-7-5-3-0-73-1-9-8-5-14-5-8-0-8"
       d="m 10.76665,461.33541 -0.0181,15.19964 27.647366,-0.0821 0.006,-15.10083 z"
       style="fill:none;fill-opacity:1;stroke:#959595;stroke-width:2.66667;stroke-linecap:round;stroke-linejoin:round;stroke-miterlimit:4;stroke-dasharray:none;stroke-opacity:1" />
    <path
       style="fill:none;fill-opacity:1;stroke:#000000;stroke-width:1.33333;stroke-linecap:butt;stroke-linejoin:round;stroke-miterlimit:4;stroke-dasharray:3.99999, 1.33332999999999990;stroke-dashoffset:0;stroke-opacity:1"
       d="m 10.76665,461.33541 -0.0181,15.19964 27.635643,-0.0938 0.006,-15.10083 z"
       id="path14359-1-7-5-3-0-73-1-9-8-5-14-5-8-0-8-0"
       inkscape:connector-curvature="0"
       sodipodi:nodetypes="ccccc" />
    <path
       sodipodi:nodetypes="ccccc"
       inkscape:connector-curvature="0"
       id="path14359-1-7-5-3-0-73-1-9-8-5-14-8-2-5-2-5"
       d="m 94.289807,546.28678 -0.002,8.15031 80.944183,0 0.002,-8.15031 z"
       style="fill:#000000;fill-opacity:1;stroke:#000000;stroke-width:1.33333;stroke-linecap:butt;stroke-linejoin:miter;stroke-miterlimit:4;stroke-dasharray:none;stroke-opacity:1" />
    <path
       sodipodi:nodetypes="ccccc"
       inkscape:connector-curvature="0"
       id="path14359-1-7-5-3-0-73-1-9-8-5-14-8-1-4"
       d="m 16.078535,602.00916 -0.0013,5.35723 H 117.16706 l 0.002,-5.35723 z"
       style="fill:none;fill-opacity:1;stroke:#000000;stroke-width:1.33333;stroke-linecap:butt;stroke-linejoin:miter;stroke-miterlimit:4;stroke-dasharray:none;stroke-opacity:1" />
    <path
       style="fill:#000000;fill-opacity:1;stroke:#000000;stroke-width:1.33333;stroke-linecap:butt;stroke-linejoin:miter;stroke-miterlimit:4;stroke-dasharray:none;stroke-opacity:1"
       d="m 16.078535,602.00916 -0.0013,5.35723 5.744135,0 0.0013,-5.35723 z"
       id="path14359-1-7-5-3-0-73-1-9-8-5-14-8-2-59-9"
       inkscape:connector-curvature="0"
       sodipodi:nodetypes="ccccc" />
    <path
       sodipodi:nodetypes="ccccc"
       inkscape:connector-curvature="0"
       id="path14359-1-7-5-3-0-73-1-9-8-5-14-8-2-5-2-1"
       d="m 29.012521,602.00916 -0.0013,5.35723 h 5.619169 l 0.0013,-5.35723 z"
       style="fill:#000000;fill-opacity:1;stroke:#000000;stroke-width:1.33333;stroke-linecap:butt;stroke-linejoin:miter;stroke-miterlimit:4;stroke-dasharray:none;stroke-opacity:1" />
    <path
       style="fill:#000000;fill-opacity:1;stroke:#000000;stroke-width:1.33333;stroke-linecap:butt;stroke-linejoin:miter;stroke-miterlimit:4;stroke-dasharray:none;stroke-opacity:1"
       d="m 41.993237,602.00916 -0.0013,5.35723 24.587787,0 0.002,-5.35723 z"
       id="path14359-1-7-5-3-0-73-1-9-8-5-14-8-2-5-2-5-7"
       inkscape:connector-curvature="0"
       sodipodi:nodetypes="ccccc" />
    <path
       sodipodi:nodetypes="ccccc"
       inkscape:connector-curvature="0"
       id="path14359-1-7-5-3-0-73-1-9-8-5-14-8-2-5-2-5-7-1"
       d="m 91.975462,602.00916 -0.0013,5.35723 h 25.192898 l 0.002,-5.35723 z"
       style="fill:#000000;fill-opacity:1;stroke:#000000;stroke-width:1.33333;stroke-linecap:butt;stroke-linejoin:miter;stroke-miterlimit:4;stroke-dasharray:none;stroke-opacity:1" />
    <path
       sodipodi:nodetypes="ccsssssssssssccsssssssssssssssssssscsssssssssssssssssssscsssssssscsssssssssssssssccsscsssssssssssssssssssssssssssssscsssssssssscsscsssscsssssssssssssscsscscsssssssssssssssssscsssssssssssssssssscc"
       inkscape:connector-curvature="0"
       id="path14359-1-7-5-3-0-73-1-9-8-5-14"
       d="m 330.47608,606.80789 102.87107,-0.7042 c 0.90659,1.28728 1.53292,1.95464 1.73359,3.56002 0.0281,0.22463 0.10995,0.52898 0.051,0.76482 -0.10205,0.4082 -0.33166,0.84251 -0.4079,1.22372 -0.14988,0.74938 -0.32346,2.01164 -0.96877,2.5494 -0.26255,0.21879 -1.1439,0.34456 -1.52964,0.50988 -0.0671,0.0288 -0.0148,0.29304 -0.051,0.50988 -0.0688,0.41287 -0.30656,0.75286 -0.56087,1.07075 -0.52257,0.65321 -1.65258,1.43147 -2.03952,2.03952 -0.14905,0.23421 -0.36126,0.5869 -0.4079,0.86679 -0.0199,0.11929 0.0551,0.34871 0,0.45889 -0.12924,0.25847 -0.43582,0.41275 -0.56087,0.66285 -0.31696,0.63391 0.54965,0.66284 1.07075,0.66284 l 14.12368,-0.71383 c 0.98256,-0.26067 0.9973,-1.19048 1.22371,-2.03952 0.07,-0.26258 -0.021,-0.33595 0.15296,-0.50988 0.27931,-0.27931 0.74402,-0.28513 1.01976,-0.56087 0.3851,-0.38509 0.41209,-1.40676 0.30593,-1.93754 -0.0935,-0.4677 -2.37274,-1.45136 -1.83557,-1.98854 0.4245,-0.42449 2.38838,0.48932 2.80434,-0.20395 0.94159,-1.56931 -1.45625,-2.14533 -1.37667,-2.70236 0.11469,-0.80285 2.00022,0.14462 2.39643,-0.71383 0.43576,-0.94414 -0.97965,-1.34402 -0.71383,-2.1415 0.51951,-1.55853 2.09174,-0.3698 1.83557,-1.22371 -0.33674,-1.12247 -2.08791,-0.95577 -2.29446,-1.98854 -0.0965,-0.48246 0.25302,-1.16311 0.30593,-1.42766 0.012,-0.0601 0.1453,-0.10963 0.10197,-0.15296 -0.0287,-0.0287 0.76745,-0.17255 1.07075,0.50988 0.29576,0.66545 0.52824,1.47531 1.63162,1.27469 0.90364,-0.1643 0.79798,-0.7812 0.71383,-1.58062 -0.0843,-0.80095 -0.3414,-1.18905 0.4079,-1.52964 0.0983,-0.0447 0.58836,-0.26749 0.71384,-0.25494 0.28695,0.0287 1.06171,1.34666 1.42766,1.52964 0.13498,0.0675 0.5603,0.13761 0.71383,0.15296 0.47815,0.0478 0.60172,-0.27551 0.71384,-0.61185 0.94472,-2.07843 -0.30698,0.78814 0.35691,-1.07075 0.33762,-0.94534 0.65386,-1.1532 0.35692,-2.19249 -0.047,-0.16453 -0.55065,-1.39505 -0.50988,-1.42766 0.51609,-0.41288 1.43135,-0.0335 1.22371,-1.01976 -0.0399,-0.18963 -0.0753,-0.38333 -0.15296,-0.56087 -0.15273,-0.34909 -1.19639,-0.98426 -0.8668,-1.47865 0.26234,-0.39351 0.8867,-0.19278 1.12174,-0.66285 0.23279,-0.46558 -0.10409,-1.16215 0,-1.6826 0.0749,-0.3743 0.23316,-0.77172 0.15296,-1.17273 -0.0699,-0.3495 -0.21468,-0.68786 -0.35692,-1.01976 -0.32381,-0.75556 -0.64584,0.66043 -1.07074,0.35692 -0.5688,-0.40628 -0.87536,-1.34281 -1.17273,-1.93755 -0.0108,-0.0215 -0.46453,-0.39086 -0.50988,-0.45889 -0.16212,-0.24318 -0.91156,-0.14011 -1.12174,0 -0.21468,0.14313 0.22342,0.62667 0.25494,0.81581 0.066,0.39609 -0.30592,0.12766 -0.30592,0.50988 0,0.14015 0.034,0.4419 -0.10198,0.40791 -0.26793,-0.067 -0.49644,-0.46328 -0.76482,-0.56087 -0.29299,-0.10655 -0.58704,0.012 -0.81581,-0.25494 -0.33307,-0.38858 -0.0936,-1.03719 -0.20395,-1.47866 -0.0928,-0.37103 -0.23519,-0.11347 -0.45889,-0.56086 -0.0931,-0.51209 -0.059,-0.57528 -0.30593,-1.01976 -0.22782,-0.41008 -0.59854,-0.76233 -0.81581,-1.17273 -0.51876,-0.97988 -0.0117,-1.26172 -0.20395,-1.88656 -0.17069,-0.55473 -1.10555,-0.31213 -1.47865,-0.56086 -0.26271,-0.17514 -0.10989,-0.66064 -0.051,-0.8668 0.17499,-0.61247 0.31802,-1.14972 0.8668,-1.52964 0.37502,-0.25963 1.11252,-0.0559 1.22371,-0.61186 0.0748,-0.37401 -0.37285,-2.50089 -0.66285,-2.85533 -0.22678,-0.27718 -0.65897,-0.55313 -0.8158,-0.86679 -0.18695,-0.16996 -0.41225,-0.30554 -0.56086,-0.50988 -0.12996,-0.17869 -0.15613,-0.41424 -0.25494,-0.61186 -0.14243,-0.28485 -0.66485,-0.77885 -0.71384,-1.12173 -0.0554,-0.38771 0.48229,-0.60683 0.61186,-0.91779 0.119,-0.28561 0.26353,-0.82494 0.30593,-1.12173 0.0616,-0.43098 -0.34825,-0.82254 -0.50988,-1.17273 -0.23993,-0.51985 -0.004,-0.97183 -0.61186,-1.47865 -0.30614,-0.25512 -0.92122,-0.34245 -1.2747,-0.50988 -0.43677,-0.20689 -0.76974,-0.52304 -1.17272,-0.76482 -0.13437,-0.0806 -0.32602,-0.0189 -0.45889,-0.10198 -0.42599,-0.26624 -0.20633,-0.91009 -0.25494,-1.2747 -0.0785,-0.58877 -0.76878,-1.08422 -1.22372,-1.37668 -0.43352,-0.27869 -0.96222,-0.44381 -1.42766,-0.66284 -0.64013,-0.30123 -1.01696,-0.67524 -1.73359,-0.76482 -0.30238,-0.0378 -0.43692,0.36659 -0.71384,0.45889 -0.19348,0.0645 -0.4085,-0.0156 -0.61185,0 -0.0481,0.004 -0.38281,0.0985 -0.45889,0.051 -1.06613,-0.66633 0.30155,-2.60257 0.10197,-2.70236 -0.57683,-0.28842 -0.68496,0.19154 -1.07075,0.15296 -0.84102,-0.0841 -1.45493,-0.94505 -1.98853,-1.47865 -0.22095,-0.18696 -0.46922,-0.34574 -0.66284,-0.56088 -0.21676,-0.24085 -0.43677,-0.93943 -0.61186,-1.07075 -0.38551,-0.28913 -2.62288,-1.0535 -2.70236,-1.17272 -0.34291,-0.51436 -0.34851,-1.60773 -0.8668,-1.93755 -0.37498,-0.23862 -0.86532,-0.38125 -1.22371,-0.66284 -0.97683,-0.76751 -1.17293,-3.54274 -0.91779,-4.6909 0.16737,-0.75314 0.72824,-1.12148 1.12174,-1.73359 0.28644,-0.44558 0.54612,-1.0265 0.71383,-1.52964 0.31184,-0.93551 0.11231,-1.99759 0.50988,-2.90632 0.28214,-0.64489 1.02586,-0.88814 1.22371,-1.58063 0.1898,-0.66428 0.41129,-1.55235 0.20396,-2.24347 -0.2383,-0.79433 -0.70786,-0.7917 -0.50988,-1.68261 0.14863,-0.66884 0.088,-0.82499 0.56086,-1.37667 0.5293,-0.61752 1.1942,-0.47414 1.37668,-1.32569 0.0809,-0.37745 0.0955,-0.52279 -0.15296,-0.8668 -0.54515,-0.75482 -1.45087,-1.08621 -2.19249,-1.58063 -0.42075,-0.28049 -0.74188,-0.6139 -1.12174,-0.91778 -0.41883,-0.33507 -1.32851,-0.39185 -1.83556,-0.56087 -0.86543,-0.28847 -1.85246,-1.02664 -2.75336,-0.30593 -0.55833,0.44667 -0.39873,1.13349 -0.76482,1.68261 -0.23267,0.349 -0.67575,0.57378 -0.96877,0.86679 -0.0769,0.0769 -0.12291,0.33806 -0.25494,0.35692 -0.53512,0.0765 -0.63346,-0.62637 -1.07075,-0.71383 -0.16666,-0.0333 -0.35366,0.067 -0.50988,0 -0.14958,-0.0641 -0.21262,-0.28095 -0.25494,-0.40791 -0.13754,-0.41263 -0.2018,-0.92683 -0.35691,-1.32568 -0.21057,-0.54147 -0.49518,-1.08499 -0.71384,-1.63162 -0.10905,-0.27264 0.0258,-0.66753 -0.15296,-0.91778 -0.10848,-0.15188 -0.40921,-0.34189 -0.25494,-0.61186 0.17583,-0.3077 0.6969,-0.51028 0.76482,-0.91779 0.0451,-0.27043 -0.42245,-0.59001 -0.051,-0.71383 -1.25617,-1.00683 -0.65271,-3.43159 -1.58062,-4.69089 -0.50563,-0.68622 -0.38524,-0.22473 -0.86679,-0.8668 -0.25846,-0.34461 -0.39554,-0.70147 -0.71384,-1.01976 -0.29852,-0.29852 -0.69227,-0.49678 -0.96877,-0.81581 -0.37478,-0.43244 -0.61373,-0.85239 -1.07075,-1.22371 -0.55144,-0.44805 -1.24745,-0.66135 -1.78458,-1.12174 -0.51103,-0.43803 -1.10757,-1.01018 -1.52964,-1.52964 -0.45507,-0.56009 -0.5153,-1.39121 -1.07075,-1.83557 -0.52323,-0.41858 -1.18337,-0.61275 -1.73359,-0.96877 -0.63783,-0.41271 -0.96684,-1.25696 -1.52964,-1.78458 -0.11431,-0.10717 -0.23794,-0.20395 -0.35691,-0.30593 -0.18696,-0.10197 -0.39861,-0.168 -0.56087,-0.30593 -0.36811,-0.31289 -0.65449,-0.71667 -0.91779,-1.12173 -0.0912,-0.14035 -0.0897,-0.33652 -0.20395,-0.4589 -1.3128,-1.40656 0.14765,0.65096 -0.81581,-0.66284 -0.56786,-0.77436 -0.39424,-1.78092 -0.61185,-2.65138 -0.16913,-0.67652 -0.48757,-1.28424 -0.61186,-1.98853 -0.20583,-1.16639 -1.00313,-2.24458 -1.37668,-3.36521 -0.38433,-1.15301 -0.4079,-2.16382 -0.4079,-3.36521 -0.44052,-0.54142 0.0838,-1.1946 -0.051,-1.73359 -0.0353,-0.14118 -0.546,-0.3031 -0.66284,-0.45889 -0.0428,-0.0571 0.70304,-0.79276 0.76482,-1.07075 0.25676,-1.15541 0.13996,-2.35743 0.50988,-3.46719 0.18771,-0.56313 0.13615,0.0758 0.30593,-0.56086 0.10747,-0.40302 -0.0358,-0.57924 0.20395,-0.96878 0.19809,-0.32189 0.33393,0.038 0.25494,-0.35691 -0.11274,-0.56371 -1.41299,-0.29292 -1.73359,-0.66285 -0.51713,-0.59668 -0.63345,-1.48014 -1.12174,-2.0905 -0.42766,-0.53458 -1.25588,-0.79214 -1.58063,-1.37668 -0.24112,-0.43401 0.14456,-0.70804 -0.20395,-1.17273 -0.19345,-0.25793 -0.76863,-0.27495 -1.01976,-0.4079 -0.35125,-0.18596 -0.58464,-0.57974 -0.91779,-0.76482 -0.35437,-0.19688 -1.08565,-0.0399 -1.47865,-0.10198 -1.00657,-0.15893 -2.9382,-0.47057 -3.92608,-0.30592 -4.20874,0.006 -7.89655,0.56334 -12.0885,0.61986 -18.58189,0.25049 -37.28867,0.53655 -56.33137,0.0409 -4.57785,-0.11915 -7.1143,-0.67004 -14.48663,-0.60974 -0.22249,-0.1411 -0.0408,1.92729 0.35692,1.5296 0.0481,-0.0481 0.17354,0.0608 0.20395,0 0.44207,-0.88414 0.34069,0.45857 0.81581,0.25494 0.28505,-0.12216 0.98173,-1.15976 1.2747,-0.86679 0.81306,0.81306 -0.62678,1.27972 -0.50988,2.03952 0.0801,0.52044 0.42976,0.83249 0.61185,1.2747 0.0319,0.0775 0.30998,2.82945 0.30593,2.90632 -0.0239,0.45393 -0.90547,0.9424 -0.71383,1.32568 0.14798,0.29598 1.3668,0.82926 1.6826,1.07075 0.31786,0.24307 0.52235,0.94562 0.91779,1.01976 0.61873,0.11602 0.82301,-0.22762 1.2747,0.35692 0.76851,0.99455 0.39654,1.90913 0.81581,2.9573 0.27405,0.68514 0.7654,1.26578 1.07074,1.93755 0.21458,0.47207 0.25452,0.88758 0.61186,1.2747 0.43628,0.47264 0.95002,0.90173 1.32569,1.42766 0.39665,0.55532 0.7762,1.08214 1.2747,1.58063 0.85858,0.85858 1.67512,1.81979 2.85533,2.19249 1.08403,0.34232 1.83987,-0.96324 2.9573,-0.30593 0.31508,0.18534 0.46086,0.68071 0.76482,0.81581 0.91317,0.40585 -0.49116,-0.49382 0.76482,0.20395 1.18727,0.65959 1.05737,1.77575 -0.15296,2.29446 -0.31866,0.93991 -0.99455,1.83971 -1.78458,2.44742 -0.36608,0.2816 -0.76561,0.45625 -1.01976,0.8668 -0.41699,0.67359 -0.43535,1.46842 -0.71383,2.19249 -0.2018,0.52466 -0.71682,0.80357 -0.76482,1.42766 -0.0586,0.76219 0.59985,1.14632 0.86679,1.73359 0.19453,0.42795 0.12695,0.942 0.30593,1.37668 0.0824,0.20003 0.31916,0.29375 0.45889,0.45889 0.10979,0.12975 0.17689,0.2973 0.30593,0.40791 0.52754,0.45217 1.94275,0.54448 2.24347,1.07074 0.13341,0.23347 -0.37361,0.98729 -0.30592,1.32569 0.13061,0.65309 0.95631,1.28089 1.32568,1.78458 0.34415,0.46929 0.0936,0.39503 0.30593,0.8668 0.11243,0.24984 1.31782,2.14316 1.52964,2.29446 1.00619,0.71871 0.94586,-0.13185 1.73359,-0.35692 0.31442,-0.0898 0.29253,0.38645 0.50989,0.4589 0.11286,0.0376 0.24551,-0.0418 0.35691,0 0.3439,0.12896 0.25106,0.2187 0.50988,0.50988 0.15716,0.1768 0.85787,0.0644 0.66285,0.35691 -0.30303,0.45455 -0.56087,0.0681 -0.4589,0.63279 z"
       style="fill:none;fill-opacity:1;stroke:#000000;stroke-width:0.666667;stroke-linecap:round;stroke-linejoin:round;stroke-miterlimit:4;stroke-dasharray:none;stroke-opacity:1" />
    <path
       style="fill:none;fill-opacity:1;stroke:#000000;stroke-width:0.666667;stroke-linecap:round;stroke-linejoin:round;stroke-miterlimit:4;stroke-dasharray:none;stroke-opacity:1"
       d="m 342.85325,482.58998 c -0.35246,0.7437 -0.93988,0.88299 -1.5839,0.8767 0.1128,0.0733 0.0678,1.93065 0.0609,1.93749 -0.10626,0.10626 -0.36778,-0.015 -0.42644,0.12184 -0.19092,0.4455 0.16553,1.05815 -0.30459,1.34022 -0.34403,0.20642 -1.83075,0.46484 -2.01033,0.91379 -0.44904,1.12258 2.50653,1.19913 2.5586,1.15747 0.53188,-0.4255 0.67334,-1.20517 1.2793,-1.5839 0.0837,-0.0523 0.57214,-0.0146 0.6092,-0.0609 0.15319,-0.1915 -0.042,-0.53987 0.30459,-0.60919 0.16576,-0.0331 0.68789,1.18487 1.21839,0.54827 0.28859,-0.34632 0,-0.89782 0,-1.2793 0,-0.13242 0.21652,-0.5079 0.18275,-0.6092 -0.0321,-0.0963 -0.10634,-0.17681 -0.18275,-0.24367 -0.2347,-0.20536 -0.83942,-0.12895 -0.91379,-0.42644 -0.081,-0.32395 0.11699,-0.43506 0.18276,-0.73103 0.13584,-0.61129 -0.55797,-1.25249 -0.97471,-1.35213 z"
       id="path14359-1-7-5-3-0-73-1-9-8-5-14-4"
       inkscape:connector-curvature="0"
       sodipodi:nodetypes="cc" />
    <path
       style="fill:none;fill-opacity:1;stroke:#000000;stroke-width:0.666667;stroke-linecap:round;stroke-linejoin:round;stroke-miterlimit:4;stroke-dasharray:none;stroke-opacity:1"
       d="m 367.03817,486.36697 c 0.13192,0.71867 0.0709,1.43733 -0.12183,2.156 0.017,0.91544 0.62084,0.94723 0.9747,1.3283 0.3304,0.35582 0.35508,0.97123 0.91379,1.15747 0.52594,0.17532 1.03282,0.0357 1.52298,0.18276 0.55775,0.16732 0.92229,0.61203 1.46206,0.79195 0.25828,0.0861 0.70262,0.065 0.91379,0.24367 0.34695,0.29358 1.07518,1.63493 1.76665,1.46206 0.52256,-0.13063 0.42644,-0.56872 0.42644,-1.03562 0,-1.53181 -0.15407,-1.78098 -1.76666,-2.49769 -0.37232,-0.16547 -0.7749,-0.11332 -1.15746,-0.3046 -0.35046,-0.17522 -0.57679,-0.54347 -0.85287,-0.79194 -0.50455,-0.45409 -0.20854,-0.0738 -0.79195,-0.36552 -0.69915,-0.34957 -0.61671,-1.12039 -1.15747,-1.5839 -0.47763,-0.4094 -0.75814,0.12318 -1.21838,-0.0609 -0.50909,-0.20363 -0.3493,-0.54705 -0.91379,-0.68202 z"
       id="path14359-1-7-5-3-0-73-1-9-8-5-14-49"
       inkscape:connector-curvature="0"
       sodipodi:nodetypes="ccssssssssssssssc" />
    <path
       style="fill:none;fill-opacity:1;stroke:#000000;stroke-width:2;stroke-linecap:round;stroke-linejoin:round;stroke-miterlimit:4;stroke-dasharray:none;stroke-opacity:1"
       d="m 334.20272,475.3406 0,35.29604 44.95837,0 0,-35.29604 z"
       id="path14359-1-7-5-3-0-73-1-9-8-5-14-1"
       inkscape:connector-curvature="0"
       sodipodi:nodetypes="ccccc" />
    <text
       transform="scale(1.0072053,0.99284624)"
       xml:space="preserve"
       style="font-size:10.6667px;line-height:5.06665px;font-family:Arial;-inkscape-font-specification:Arial;letter-spacing:0px;stroke-width:0.99497"
       x="5.7548161"
       y="543.16736"
       id="text6661-0-0"><tspan
         style="font-size:10.6667px;stroke-width:0.99497"
         sodipodi:role="line"
         id="tspan6659-08-0"
         x="5.7548161"
         y="543.16736">20</tspan><tspan
         id="tspan6009-9"
         style="font-size:10.6667px;stroke-width:0.99497"
         sodipodi:role="line"
         x="5.7548161"
         y="548.23401" /></text>
    <text
       transform="scale(1.0072053,0.99284624)"
       xml:space="preserve"
       style="font-size:10.6667px;line-height:5.06665px;font-family:Arial;-inkscape-font-specification:Arial;letter-spacing:0px;stroke-width:0.99497"
       x="45.390556"
       y="543.1673"
       id="text6661-0-5"><tspan
         style="font-size:10.6667px;stroke-width:0.99497"
         sodipodi:role="line"
         id="tspan6659-08-6"
         x="45.390556"
         y="543.1673">10</tspan><tspan
         id="tspan6009-2"
         style="font-size:10.6667px;stroke-width:0.99497"
         sodipodi:role="line"
         x="45.390556"
         y="548.23395" /></text>
    <text
       transform="scale(1.0072053,0.99284624)"
       xml:space="preserve"
       style="font-size:10.6667px;line-height:5.06665px;font-family:Arial;-inkscape-font-specification:Arial;letter-spacing:0.447736px;stroke-width:0.99497"
       x="12.018243"
       y="600.7511"
       id="text6661-5-9"><tspan
         style="font-size:10.6667px;stroke-width:0.99497"
         sodipodi:role="line"
         id="tspan6659-9-0"
         x="12.018243"
         y="600.7511">0</tspan></text>
    <text
       transform="scale(1.0072053,0.99284624)"
       xml:space="preserve"
       style="font-size:10.6667px;line-height:5.06665px;font-family:Arial;-inkscape-font-specification:Arial;letter-spacing:0px;stroke-width:0.99497"
       x="59.933956"
       y="600.59937"
       id="text6661-0-56"><tspan
         id="tspan6009-6"
         style="font-size:10.6667px;stroke-width:0.99497"
         sodipodi:role="line"
         x="59.933956"
         y="600.59937">20</tspan></text>
    <text
       id="text6661-0-0-3"
       y="600.86365"
       x="84.608406"
       style="font-size:10.6667px;line-height:5.06665px;font-family:Arial;-inkscape-font-specification:Arial;letter-spacing:0px;stroke-width:0.99497"
       xml:space="preserve"
       transform="scale(1.0072053,0.99284624)"><tspan
         y="600.86365"
         x="84.608406"
         sodipodi:role="line"
         style="font-size:10.6667px;stroke-width:0.99497"
         id="tspan6009-9-8">30</tspan></text>
    <text
       id="text6661-0-5-4"
       y="600.64972"
       x="34.220417"
       style="font-size:10.6667px;line-height:5.06665px;font-family:Arial;-inkscape-font-specification:Arial;letter-spacing:0px;stroke-width:0.99497"
       xml:space="preserve"
       transform="scale(1.0072053,0.99284624)"><tspan
         y="600.64972"
         x="34.220417"
         sodipodi:role="line"
         style="font-size:10.6667px;stroke-width:0.99497"
         id="tspan6009-2-4">10</tspan></text>
    <text
       transform="scale(1.0072053,0.99284624)"
       xml:space="preserve"
       style="font-size:10.6667px;line-height:5.06665px;font-family:Arial;-inkscape-font-specification:Arial;letter-spacing:0px;stroke-width:0.99497"
       x="24.666454"
       y="600.91168"
       id="text6661-0-0-3-4"><tspan
         style="font-size:10.6667px;stroke-width:0.99497"
         sodipodi:role="line"
         id="tspan6659-08-0-0-6"
         x="24.666454"
         y="600.91168">5</tspan><tspan
         id="tspan6009-9-8-4"
         style="font-size:10.6667px;stroke-width:0.99497"
         sodipodi:role="line"
         x="24.666454"
         y="605.97833" /></text>
    <text
       transform="scale(1.0072053,0.99284624)"
       xml:space="preserve"
       style="font-size:10.6667px;line-height:5.06665px;font-family:Arial;-inkscape-font-specification:Arial;letter-spacing:0px;stroke-width:0.99497"
       x="109.84113"
       y="600.69775"
       id="text6661-0-0-3-3"><tspan
         id="tspan6009-9-8-40"
         style="font-size:10.6667px;stroke-width:0.99497"
         sodipodi:role="line"
         x="109.84113"
         y="600.69775">40</tspan></text>
    <text
       transform="scale(1.0072053,0.99284624)"
       xml:space="preserve"
       style="font-size:10.66670000000000051px;line-height:5.79046000000000038px;font-family:Arial;-inkscape-font-specification:Arial;letter-spacing:-0.24px;stroke-width:0.99497"
       x="42.404694"
       y="476.38287"
       id="text6661-6-1-5-5"><tspan
         sodipodi:role="line"
         id="tspan6659-4-9-8-5"
         x="42.404694"
         y="476.38287"
         style="font-size:10.66670000000000051px;stroke-width:0.99497;">County Boundaries</tspan></text>
    <path
       sodipodi:nodetypes="cccccc"
       inkscape:connector-curvature="0"
       id="path14359-1-7-5-3-0-73-1-9-8-5-14-5-8-0-8-2-8"
       d="m 29.189066,126.45425 -0.837032,28.41284 0.111854,73.41448 0.995879,27.04982 2.314094,108.35242 0.47573,49.89302"
       style="fill:none;fill-opacity:1;stroke:#959595;stroke-width:2.66667;stroke-linecap:butt;stroke-linejoin:round;stroke-miterlimit:4;stroke-dasharray:none;stroke-opacity:1" />
    <path
       sodipodi:nodetypes="cc"
       inkscape:connector-curvature="0"
       id="path14359-1-7-5-3-0-73-1-9-8-5-14-5-8-0-8-2-7"
       d="M 32.429604,387.44738 4.9154619,387.42928"
       style="fill:none;fill-opacity:1;stroke:#959595;stroke-width:2.66667;stroke-linecap:butt;stroke-linejoin:round;stroke-miterlimit:4;stroke-dasharray:none;stroke-opacity:1" />
    <path
       style="fill:none;fill-opacity:1;stroke:#959595;stroke-width:2.66667;stroke-linecap:butt;stroke-linejoin:round;stroke-miterlimit:4;stroke-dasharray:none;stroke-opacity:1"
       d="m 117.66786,409.55288 -85.580182,1.03301"
       id="path14359-1-7-5-3-0-73-1-9-8-5-14-5-8-0-8-2-7-1"
       inkscape:connector-curvature="0"
       sodipodi:nodetypes="cc" />
    <path
       style="fill:none;fill-opacity:1;stroke:#959595;stroke-width:2.66667;stroke-linecap:butt;stroke-linejoin:round;stroke-miterlimit:4;stroke-dasharray:none;stroke-opacity:1"
       d="m 29.055213,233.6038 c 1.614371,-0.76774 3.199059,-1.27275 6.08138,-1.27379 l 80.906287,-0.0291 1.40433,181.34288"
       id="path14359-1-7-5-3-0-73-1-9-8-5-14-5-8-0-8-2-7-5"
       inkscape:connector-curvature="0"
       sodipodi:nodetypes="cscc" />
    <path
       style="fill:none;fill-opacity:1;stroke:#959595;stroke-width:2.66667;stroke-linecap:butt;stroke-linejoin:round;stroke-miterlimit:4;stroke-dasharray:none;stroke-opacity:1"
       d="M 28.547859,206.8793 4.8485355,206.8612"
       id="path14359-1-7-5-3-0-73-1-9-8-5-14-5-8-0-8-2-7-58"
       inkscape:connector-curvature="0"
       sodipodi:nodetypes="cc" />
    <path
       style="fill:none;fill-opacity:1;stroke:#959595;stroke-width:2.66667;stroke-linecap:butt;stroke-linejoin:round;stroke-miterlimit:4;stroke-dasharray:none;stroke-opacity:1"
       d="m 26.846633,116.34832 -0.01256,10.14255 84.570333,-0.56474"
       id="path14359-1-7-5-3-0-73-1-9-8-5-14-5-8-0-8-2-7-56"
       inkscape:connector-curvature="0"
       sodipodi:nodetypes="ccc" />
    <path
       style="fill:none;fill-opacity:1;stroke:#959595;stroke-width:2.66667;stroke-linecap:butt;stroke-linejoin:round;stroke-miterlimit:4;stroke-dasharray:none;stroke-opacity:1"
       d="m 20.890162,70.771278 0.918873,28.451115"
       id="path14359-1-7-5-3-0-73-1-9-8-5-14-5-8-0-8-2-7-7"
       inkscape:connector-curvature="0"
       sodipodi:nodetypes="cc" />
    <path
       style="fill:none;fill-opacity:1;stroke:#959595;stroke-width:2.66667;stroke-linecap:butt;stroke-linejoin:round;stroke-miterlimit:4;stroke-dasharray:none;stroke-opacity:1"
       d="m 4.7146826,70.598557 49.3077944,-0.04761 270.689593,-9.949159 47.26149,-3.434854 59.90845,-2.980366 39.921,-2.175518"
       id="path14359-1-7-5-3-0-73-1-9-8-5-14-5-8-0-8-2-7-9"
       inkscape:connector-curvature="0"
       sodipodi:nodetypes="cccccc" />
    <path
       style="fill:none;fill-opacity:1;stroke:#959595;stroke-width:2.66667;stroke-linecap:butt;stroke-linejoin:round;stroke-miterlimit:4;stroke-dasharray:none;stroke-opacity:1"
       d="m 106.35548,68.830405 0.77527,31.099882 3.76095,-0.0037 1.33523,132.279003"
       id="path14359-1-7-5-3-0-73-1-9-8-5-14-5-8-0-8-2-7-4"
       inkscape:connector-curvature="0"
       sodipodi:nodetypes="cccc" />
    <path
       style="fill:none;fill-opacity:1;stroke:#959595;stroke-width:2.66667;stroke-linecap:butt;stroke-linejoin:round;stroke-miterlimit:4;stroke-dasharray:none;stroke-opacity:1"
       d="M 4.9823886,299.2869 30.31545,299.2381"
       id="path14359-1-7-5-3-0-73-1-9-8-5-14-5-8-0-8-2-7-16"
       inkscape:connector-curvature="0"
       sodipodi:nodetypes="cc" />
    <path
       style="fill:none;fill-opacity:1;stroke:#959595;stroke-width:2.66667;stroke-linecap:butt;stroke-linejoin:round;stroke-miterlimit:4;stroke-dasharray:none;stroke-opacity:1"
       d="m 30.816072,321.77425 86.074958,-1.58814"
       id="path14359-1-7-5-3-0-73-1-9-8-5-14-5-8-0-8-2-7-12"
       inkscape:connector-curvature="0"
       sodipodi:nodetypes="cc" />
    <path
       style="fill:none;fill-opacity:1;stroke:#959595;stroke-width:2.66667;stroke-linecap:butt;stroke-linejoin:round;stroke-miterlimit:4;stroke-dasharray:none;stroke-opacity:1"
       d="m 215.40704,386.10885 -28.28019,-0.005 -17.93627,1.26829 -51.57066,-0.01"
       id="path14359-1-7-5-3-0-73-1-9-8-5-14-5-8-0-8-2-7-0"
       inkscape:connector-curvature="0"
       sodipodi:nodetypes="cccc" />
    <path
       style="fill:none;fill-opacity:1;stroke:#959595;stroke-width:2.66667;stroke-linecap:butt;stroke-linejoin:round;stroke-miterlimit:4;stroke-dasharray:none;stroke-opacity:1"
       d="m 212.6254,306.36479 -67.79626,1.02553 c -1.12307,0.017 -2.07258,0.86966 -3.14548,0.86946 l -2.47626,-4.6e-4 c -1.09619,-2.1e-4 -1.95254,-0.8704 -2.87787,-0.87059 l -19.7135,-0.004"
       id="path14359-1-7-5-3-0-73-1-9-8-5-14-5-8-0-8-2-7-44"
       inkscape:connector-curvature="0"
       sodipodi:nodetypes="cssssc" />
    <path
       style="fill:none;fill-opacity:1;stroke:#959595;stroke-width:2.66667;stroke-linecap:butt;stroke-linejoin:round;stroke-miterlimit:4;stroke-dasharray:none;stroke-opacity:1"
       d="m 204.26916,65.216365 0.1583,10.677563 2.68582,21.018266 8.25211,312.745696 -0.005,3.78509"
       id="path14359-1-7-5-3-0-73-1-9-8-5-14-5-8-0-8-2-7-59"
       inkscape:connector-curvature="0"
       sodipodi:nodetypes="ccccc" />
    <path
       style="fill:none;fill-opacity:1;stroke:#959595;stroke-width:2.66667;stroke-linecap:butt;stroke-linejoin:round;stroke-miterlimit:4;stroke-dasharray:none;stroke-opacity:1"
       d="m 111.79731,202.04248 98.12175,-1.45429"
       id="path14359-1-7-5-3-0-73-1-9-8-5-14-5-8-0-8-2-7-75"
       inkscape:connector-curvature="0"
       sodipodi:nodetypes="cc" />
    <path
       style="fill:none;fill-opacity:1;stroke:#959595;stroke-width:2.66667;stroke-linecap:butt;stroke-linejoin:round;stroke-miterlimit:4;stroke-dasharray:none;stroke-opacity:1"
       d="m 294.41159,157.80553 -85.65243,2.09326"
       id="path14359-1-7-5-3-0-73-1-9-8-5-14-5-8-0-8-2-7-3"
       inkscape:connector-curvature="0"
       sodipodi:nodetypes="cc" />
    <path
       style="fill:none;fill-opacity:1;stroke:#959595;stroke-width:2.66667;stroke-linecap:butt;stroke-linejoin:round;stroke-miterlimit:4;stroke-dasharray:none;stroke-opacity:1"
       d="m 289.48781,62.186231 1.06817,31.366439 1.80749,4.24064 5.079,152.70055 1.50466,78.77539 49.99328,-1.91195 c 1.76221,-0.0674 9.05143,-1.29152 11.22178,-1.42981 2.17035,-0.13828 4.18936,-0.34917 5.43687,-0.10253 1.24752,0.24664 6.49683,1.08885 7.89568,1.06927 l 71.33846,-0.9986 0.65501,26.18948"
       id="path14359-1-7-5-3-0-73-1-9-8-5-14-5-8-0-8-2-7-90"
       inkscape:connector-curvature="0"
       sodipodi:nodetypes="cccccszzscc" />
    <path
       style="fill:none;fill-opacity:1;stroke:#959595;stroke-width:2.66667;stroke-linecap:butt;stroke-linejoin:round;stroke-miterlimit:4;stroke-dasharray:none;stroke-opacity:1"
       d="m 471.50939,352.33174 -27.89701,-0.0678 0.65346,61.27284"
       id="path14359-1-7-5-3-0-73-1-9-8-5-14-5-8-0-8-2-7-55"
       inkscape:connector-curvature="0"
       sodipodi:nodetypes="ccc" />
    <path
       style="fill:none;fill-opacity:1;stroke:#959595;stroke-width:2.66667;stroke-linecap:butt;stroke-linejoin:round;stroke-miterlimit:4;stroke-dasharray:none;stroke-opacity:1"
       d="m 293.04378,121.74885 69.44546,-3.19594 40.23397,-0.42778 -4.4e-4,13.00152 2.77573,91.03883 1.83047,2.60776 0.72303,14.69963 -0.0127,86.72028"
       id="path14359-1-7-5-3-0-73-1-9-8-5-14-5-8-0-8-2-7-6"
       inkscape:connector-curvature="0"
       sodipodi:nodetypes="cccccccc" />
    <path
       style="fill:none;fill-opacity:1;stroke:#959595;stroke-width:2.66667;stroke-linecap:butt;stroke-linejoin:round;stroke-miterlimit:4;stroke-dasharray:none;stroke-opacity:1"
       d="m 439.59862,128.61417 -0.42639,-2.08697 c -0.27136,-0.49329 -1.11385,-0.86496 -0.89805,-1.51238 0.26029,-0.78086 1.81814,-0.53413 2.00024,-1.44461 0.22563,-1.12816 -0.89364,-1.12984 -1.11124,-2.00024 -0.27368,-1.09471 0.47561,-1.90689 0.11112,-3.00036 -0.19885,-0.59656 -0.0677,0.30914 -0.55562,-0.66674 -0.10076,-0.20153 -0.0924,-0.44221 -0.11112,-0.66675 -0.0273,-0.3274 0.17405,-1.31876 0,-1.66686 -0.10244,-0.20488 -0.377,-0.73837 -0.33338,-1.00012 0.24959,-1.4975 2.13878,0 2.77811,0 0.37321,0 0.9781,-0.21491 1.33349,-0.33337 2.96346,-0.98783 -1.1884,-1.35757 -1.33349,-1.44462 -0.24069,-0.14441 -0.47566,-0.97306 -0.4445,-1.22237 0.27854,-2.2283 3.32432,-1.37115 3.00036,-2.66698 -0.212,-0.84798 -1.01362,-0.76258 -1.66687,-1.00012 -0.46295,-0.16835 -0.43315,-0.61322 -0.77787,-0.88899 -1.16456,-0.93166 -3.33372,0.0105 -3.33372,-2.00024 -0.0891,-0.68883 -0.61271,-1.22845 -0.77787,-1.88911 -0.35912,-1.43645 -0.16302,-3.422297 0,-4.889471 0.20623,-1.856148 0.14838,-3.834771 0.55562,-5.667339 0.48855,-2.198486 1.16956,-4.354005 1.66686,-6.556333 0.0143,-0.06311 1.12367,-2.864379 1.00012,-3.11148 -0.27482,-0.549636 -0.55896,-1.225705 -1.00012,-1.666864 -0.2808,-0.280803 -0.81107,-0.510894 -1.00012,-0.888994 -0.54438,-1.088766 0.0285,-2.276593 -0.55562,-3.444853 -0.50323,-1.006464 3.10204,-0.130006 2.33361,-1.666864 -0.51213,-1.024258 -1.47064,-0.916426 -2.44473,-1.111243 -0.82377,-0.164754 -3.88138,-2.087438 -4.1116,-2.778107 -0.60267,-1.807993 1.23425,-1.529876 1.77799,-2.889232 0.23021,-0.575526 -0.45615,-0.877349 0,-1.333491 1.24684,-1.246846 2.61923,1.001834 2.88923,-2.778108 0.029,-0.40642 0.28811,-0.934252 0,-1.222367 -2.71397,-2.713965 -3.42142,3.461594 -7.3342,0.666746 -0.45787,-0.327048 -0.79912,-0.37098 -0.889,-1.000119 -0.2386,-1.67022 2.38164,-0.409653 3.11148,-0.555621 0.52036,-0.104071 0.5735,-0.633021 1.00012,-0.888994 0.92303,-0.553819 1.71892,-0.07109 2.11136,-1.444616 0.47769,-1.671913 -1.97644,0.357168 -2.33361,0 -0.76051,-0.760511 -0.19377,-2.498897 -0.66674,-3.444853 -0.15903,-0.31805 -2.36259,-0.796462 -2.36259,-0.796462 -0.67868,-0.218164 -0.82822,-0.647985 -1.04767,-1.049844"
       id="path14359-1-7-5-3-0-73-1-9-8-5-14-5-8-0-8-2-7-32"
       inkscape:connector-curvature="0"
       sodipodi:nodetypes="ccssssssssssssssscsssssssssssssssssssssscc" />
    <path
       style="fill:none;fill-opacity:1;stroke:#959595;stroke-width:2.66667;stroke-linecap:butt;stroke-linejoin:round;stroke-miterlimit:4;stroke-dasharray:none;stroke-opacity:1"
       d="m 471.73164,127.41619 -68.80403,3.08709"
       id="path14359-1-7-5-3-0-73-1-9-8-5-14-5-8-0-8-2-7-68"
       inkscape:connector-curvature="0"
       sodipodi:nodetypes="cc" />
    <path
       style="fill:none;fill-opacity:1;stroke:#959595;stroke-width:2.66667;stroke-linecap:butt;stroke-linejoin:round;stroke-miterlimit:4;stroke-dasharray:none;stroke-opacity:1"
       d="m 321.20329,328.29697 -0.80978,2.64592 c -0.85954,0.69501 -1.53902,1.64385 -2.36598,2.35268 -0.59637,0.51117 -1.4783,0.0161 -1.92264,0.90477 -0.33989,0.67978 0.64855,2.07279 0.45238,3.05361 -0.10045,0.50228 -0.9424,2.52614 -0.90477,2.71431 0.24592,1.22959 2.12384,1.11909 2.37503,2.37503 0.31705,1.58526 -1.36798,0.91559 -1.80954,1.35716 -0.64223,0.64223 0.81424,2.65995 1.13096,3.1667 1.2322,1.97152 4.03938,2.24665 4.63696,4.63696 0.41107,1.6443 -0.26418,3.29217 -2.14883,2.03574 -0.9505,-0.63366 -2.49847,-2.40544 -2.82742,0.22619 -0.38395,3.07161 3.12464,4.25841 3.3929,6.6727 0.16673,1.50055 -1.60269,0.79459 -1.80955,2.03574 -0.23585,1.41513 1.57656,1.09699 1.80955,2.26193 0.19819,0.99097 -0.91972,1.08613 -0.56548,2.14883 0.31894,0.95683 1.28704,1.53286 1.69644,2.48813 0.16953,0.39557 -1.39483,1.92276 -1.24406,2.82741 0.28172,1.69029 2.345,-0.48944 2.71432,1.35716 0.21536,1.0768 -2.53924,1.59423 -2.03574,2.60122 0.53185,1.06369 2.20395,-0.59591 2.82741,0.33929 1.32635,1.98952 -5.75207,2.06851 -5.88102,2.26193 -0.83044,1.24567 1.67524,1.859 1.92265,2.60122 0.45313,1.3594 -1.30886,1.39781 -1.80955,2.14884 -0.2794,0.41909 0.3368,1.4628 0.45239,1.80954 0.31426,1.04756 0.18604,0.95765 0.67858,1.69645 0.38349,0.57525 3.0536,3.09451 3.0536,3.3929 0,1.55074 -4.47861,0.66729 -3.50599,4.07148 0.19585,0.68547 0.29255,0.32246 0.79168,0.90477 0.0105,0.0122 0.1512,0.52049 0.22619,0.56548 0.48934,0.2936 0.97661,-0.0309 1.47025,0.33929 0.18942,0.14206 2.11795,2.86877 2.03574,3.2798 -0.2128,1.06402 -3.19668,0.47027 -3.95838,0.56548 -0.99947,0.12494 -1.30196,2.62882 -0.22619,3.16671 2.05742,1.02871 3.94291,-1.80002 5.76792,-1.01787 2.08442,0.89332 -0.31363,2.91835 -0.56548,3.50599 -0.1436,0.33508 -0.18515,0.88378 -0.1131,1.24406 0.24568,1.22837 1.66367,1.11621 2.03574,0 0.29936,-0.89806 -0.22919,-1.91063 0,-2.82741 0.22551,-0.90201 0.9989,-1.40209 1.35716,-2.26193 0.44833,-1.07598 0.47747,-2.24679 1.24406,-3.16671 0.38193,-0.45831 1.3556,-1.20844 1.92265,-0.45238 1.18705,1.58274 0.3826,2.77566 -0.2262,4.29767 -0.26109,0.65274 1.66737,1.05017 1.58335,1.47025 -0.23646,1.18231 -1.5074,1.22425 -2.03573,2.14884 -0.71921,1.25861 0.71697,3.0365 1.13096,4.07147 0.17237,0.43093 1.72372,1.6419 2.14884,0.79168 0.44653,-0.89307 -0.25392,-1.64323 -0.1131,-2.48812 0.064,-0.38382 0.64412,-0.73198 1.01787,-0.67858 1.59583,0.22797 -0.0117,2.78354 1.24406,2.94051 1.82871,0.22859 0.26626,-1.44105 0.90477,-1.69645 0.93477,-0.37391 1.74101,0.83623 2.26193,1.35716 0.21227,0.21226 1.97269,0.22619 2.37503,0.22619 1.71446,0 1.29207,-2.32214 3.2798,-1.47025 0.25824,0.11067 0.39904,1.03065 0.45239,1.24406 0.0627,0.25093 0.52031,0.29411 0.67858,0.45238 0.21636,0.21637 0.0796,0.75818 0.22619,0.90478 0.50916,0.50916 2.06284,-0.16287 2.71432,0 0.30307,0.0758 0.58914,0.27616 0.90477,0.33929 0.78548,0.15709 2.64787,-0.48715 2.64406,1.439"
       id="path14359-1-7-5-3-0-73-1-9-8-5-14-5-8-0-8-2-7-91"
       inkscape:connector-curvature="0"
       sodipodi:nodetypes="ccsssssssssssssssssssssscssssssssssssssssssssssssssssssssssc" />
    <path
       style="fill:none;fill-opacity:1;stroke:#959595;stroke-width:2.66667;stroke-linecap:butt;stroke-linejoin:round;stroke-miterlimit:4;stroke-dasharray:none;stroke-opacity:1"
       d="m 317.50307,355.51788 -103.2446,4.10958"
       id="path14359-1-7-5-3-0-73-1-9-8-5-14-5-8-0-8-2-7-8"
       inkscape:connector-curvature="0"
       sodipodi:nodetypes="cc" />
    <path
       sodipodi:nodetypes="cccccc"
       inkscape:connector-curvature="0"
       id="path14359-1-7-5-3-0-73-1-9-8-5-14-5-8-0-8-0-1"
       d="m 29.189066,126.45425 -0.837032,28.41284 0.111854,73.41448 0.995879,27.04982 2.314094,108.35242 0.47573,49.89302"
       style="fill:none;fill-opacity:1;stroke:#000000;stroke-width:1.33333;stroke-linecap:butt;stroke-linejoin:round;stroke-miterlimit:4;stroke-dasharray:3.99999, 1.33332999999999990;stroke-dashoffset:0;stroke-opacity:1" />
    <path
       style="fill:none;fill-opacity:1;stroke:#000000;stroke-width:1.33333;stroke-linecap:butt;stroke-linejoin:round;stroke-miterlimit:4;stroke-dasharray:3.99999, 1.33332999999999990;stroke-dashoffset:0;stroke-opacity:1"
       d="m 20.890162,70.771278 0.918873,28.451115 5.037598,17.125927 -0.01256,10.14255 84.570337,-0.56474"
       id="path14359-1-7-5-3-0-73-1-9-8-5-14-5-8-0-8-0-1-5"
       inkscape:connector-curvature="0"
       sodipodi:nodetypes="ccccc" />
    <path
       style="fill:none;fill-opacity:1;stroke:#000000;stroke-width:1.33333;stroke-linecap:butt;stroke-linejoin:round;stroke-miterlimit:4;stroke-dasharray:3.99999, 1.33332999999999990;stroke-dashoffset:0;stroke-opacity:1"
       d="m 4.8485355,206.8612 23.6993235,0.0181"
       id="path14359-1-7-5-3-0-73-1-9-8-5-14-5-8-0-8-0-1-9"
       inkscape:connector-curvature="0"
       sodipodi:nodetypes="cc" />
    <path
       style="fill:none;fill-opacity:1;stroke:#000000;stroke-width:1.33333;stroke-linecap:butt;stroke-linejoin:round;stroke-miterlimit:4;stroke-dasharray:3.99999, 1.33332999999999990;stroke-dashoffset:0;stroke-opacity:1"
       d="M 30.31545,299.2381 4.9823886,299.2869"
       id="path14359-1-7-5-3-0-73-1-9-8-5-14-5-8-0-8-0-1-0"
       inkscape:connector-curvature="0"
       sodipodi:nodetypes="cc" />
    <path
       style="fill:none;fill-opacity:1;stroke:#000000;stroke-width:1.33333;stroke-linecap:butt;stroke-linejoin:round;stroke-miterlimit:4;stroke-dasharray:3.99999, 1.33332999999999990;stroke-dashoffset:0;stroke-opacity:1"
       d="M 32.429604,387.44738 4.9154619,387.42928"
       id="path14359-1-7-5-3-0-73-1-9-8-5-14-5-8-0-8-0-1-93"
       inkscape:connector-curvature="0"
       sodipodi:nodetypes="cc" />
    <path
       style="fill:none;fill-opacity:1;stroke:#000000;stroke-width:1.33333;stroke-linecap:butt;stroke-linejoin:round;stroke-miterlimit:4;stroke-dasharray:3.99999, 1.33332999999999990;stroke-dashoffset:0;stroke-opacity:1"
       d="m 117.66786,409.55288 -85.580182,1.03301"
       id="path14359-1-7-5-3-0-73-1-9-8-5-14-5-8-0-8-0-1-4"
       inkscape:connector-curvature="0"
       sodipodi:nodetypes="cc" />
    <path
       style="fill:none;fill-opacity:1;stroke:#000000;stroke-width:1.33333;stroke-linecap:butt;stroke-linejoin:round;stroke-miterlimit:4;stroke-dasharray:3.99999, 1.33332999999999990;stroke-dashoffset:0;stroke-opacity:1"
       d="m 29.055213,233.6038 c 2.015941,-0.86839 4.068343,-1.27307 6.08138,-1.27379 l 80.906287,-0.0291 1.40433,181.34288"
       id="path14359-1-7-5-3-0-73-1-9-8-5-14-5-8-0-8-0-1-07"
       inkscape:connector-curvature="0"
       sodipodi:nodetypes="cscc" />
    <path
       style="fill:none;fill-opacity:1;stroke:#000000;stroke-width:1.33333;stroke-linecap:butt;stroke-linejoin:round;stroke-miterlimit:4;stroke-dasharray:3.99999, 1.33332999999999990;stroke-dashoffset:0;stroke-opacity:1"
       d="m 106.35548,68.830405 0.77527,31.099882 3.76095,-0.0037 1.33523,132.279003"
       id="path14359-1-7-5-3-0-73-1-9-8-5-14-5-8-0-8-0-1-57"
       inkscape:connector-curvature="0"
       sodipodi:nodetypes="cccc" />
    <path
       style="fill:none;fill-opacity:1;stroke:#000000;stroke-width:1.33333004;stroke-linecap:butt;stroke-linejoin:round;stroke-miterlimit:4;stroke-dasharray:3.99999011, 1.33333004000000011;stroke-dashoffset:0;stroke-opacity:1"
       d="m 4.7146826,70.598557 49.3077944,-0.04761 270.689593,-9.949159 47.26149,-3.434854 59.90845,-2.980366 39.921,-2.175518"
       id="path14359-1-7-5-3-0-73-1-9-8-5-14-5-8-0-8-0-1-50"
       inkscape:connector-curvature="0"
       sodipodi:nodetypes="cccccc" />
    <path
       sodipodi:nodetypes="ccssssssssssssssscsssssssssssssssssssssscc"
       inkscape:connector-curvature="0"
       id="path14359-1-7-5-3-0-73-1-9-8-5-14-5-8-0-8-2-7-32-6"
       d="m 439.45778,128.45502 -0.42639,-2.08697 c -0.27136,-0.49329 -1.11385,-0.86496 -0.89805,-1.51238 0.26029,-0.78086 1.81814,-0.53413 2.00024,-1.44461 0.22563,-1.12816 -0.89364,-1.12984 -1.11124,-2.00024 -0.27368,-1.09471 0.47561,-1.90689 0.11112,-3.00036 -0.19885,-0.59656 -0.0677,0.30914 -0.55562,-0.66674 -0.10076,-0.20153 -0.0924,-0.44221 -0.11112,-0.66675 -0.0273,-0.3274 0.17405,-1.31876 0,-1.66686 -0.10244,-0.20488 -0.377,-0.73837 -0.33338,-1.00012 0.24959,-1.4975 2.13878,0 2.77811,0 0.37321,0 0.9781,-0.21491 1.33349,-0.33337 2.96346,-0.98783 -1.1884,-1.35757 -1.33349,-1.44462 -0.24069,-0.14441 -0.47566,-0.97306 -0.4445,-1.22237 0.27854,-2.22829 3.32432,-1.37114 3.00036,-2.66697 -0.212,-0.84798 -1.01362,-0.76258 -1.66687,-1.00012 -0.46295,-0.16835 -0.43315,-0.61322 -0.77787,-0.88899 -1.16456,-0.93166 -3.33372,0.0105 -3.33372,-2.00024 -0.0891,-0.68883 -0.61271,-1.22845 -0.77787,-1.88911 -0.35912,-1.43645 -0.16302,-3.422294 0,-4.889464 0.20623,-1.85615 0.14838,-3.83477 0.55562,-5.66734 0.48855,-2.198489 1.16956,-4.354008 1.66686,-6.556336 0.0143,-0.06311 1.12367,-2.864379 1.00012,-3.11148 -0.27482,-0.549636 -0.55896,-1.225705 -1.00012,-1.666864 -0.2808,-0.280803 -0.81107,-0.510894 -1.00012,-0.888994 -0.54438,-1.088766 0.0285,-2.276593 -0.55562,-3.444853 -0.50323,-1.006464 3.10204,-0.130006 2.33361,-1.666864 -0.51213,-1.024258 -1.47064,-0.916426 -2.44473,-1.111243 -0.82377,-0.164754 -3.88138,-2.087438 -4.1116,-2.778107 -0.60267,-1.807993 1.23425,-1.529876 1.77799,-2.889232 0.23021,-0.575526 -0.45615,-0.877349 0,-1.333491 1.24684,-1.246846 2.61923,1.001834 2.88923,-2.778108 0.029,-0.40642 0.28811,-0.934252 0,-1.222367 -2.71397,-2.713965 -3.42142,3.461594 -7.3342,0.666746 -0.45787,-0.327048 -0.79912,-0.37098 -0.889,-1.000119 -0.2386,-1.67022 2.38164,-0.409653 3.11148,-0.555621 0.52036,-0.104071 0.5735,-0.633021 1.00012,-0.888994 0.92303,-0.553819 1.71892,-0.07109 2.11136,-1.444616 0.47769,-1.671913 -1.97644,0.357168 -2.33361,0 -0.76051,-0.760511 -0.19377,-2.498897 -0.66674,-3.444853 -0.15903,-0.31805 -2.36259,-0.796462 -2.36259,-0.796462 -0.67868,-0.218164 -0.82822,-0.647985 -1.04767,-1.049844"
       style="fill:none;fill-opacity:1;stroke:#000000;stroke-width:1.33333;stroke-linecap:butt;stroke-linejoin:round;stroke-miterlimit:4;stroke-dasharray:4, 1.33332999999999990;stroke-dashoffset:0;stroke-opacity:1" />
    <path
       sodipodi:nodetypes="ccccc"
       inkscape:connector-curvature="0"
       id="path14359-1-7-5-3-0-73-1-9-8-5-14-5-8-0-8-0-1-93-8"
       d="m 215.36039,413.44298 0.005,-3.78509 -8.25211,-312.745696 -2.68582,-21.018266 -0.1583,-10.677563"
       style="fill:none;fill-opacity:1;stroke:#000000;stroke-width:1.333;stroke-linecap:butt;stroke-linejoin:round;stroke-miterlimit:4;stroke-dasharray:3.999, 1.33299999999999996;stroke-dashoffset:0;stroke-opacity:1" />
    <path
       sodipodi:nodetypes="cc"
       inkscape:connector-curvature="0"
       id="path14359-1-7-5-3-0-73-1-9-8-5-14-5-8-0-8-2-7-58-9"
       d="m 297.36977,248.86978 -86.04041,4.51396"
       style="fill:none;fill-opacity:1;stroke:#959595;stroke-width:2.66667;stroke-linecap:butt;stroke-linejoin:round;stroke-miterlimit:4;stroke-dasharray:none;stroke-opacity:1" />
    <path
       sodipodi:nodetypes="cc"
       inkscape:connector-curvature="0"
       id="path14359-1-7-5-3-0-73-1-9-8-5-14-5-8-0-8-0-1-9-9"
       d="m 211.32936,253.38374 86.04041,-4.51396"
       style="fill:none;fill-opacity:1;stroke:#000000;stroke-width:1.33333;stroke-linecap:butt;stroke-linejoin:round;stroke-miterlimit:4;stroke-dasharray:3.99999, 1.33332999999999990;stroke-dashoffset:0;stroke-opacity:1" />
    <path
       sodipodi:nodetypes="cc"
       inkscape:connector-curvature="0"
       id="path14359-1-7-5-3-0-73-1-9-8-5-14-5-8-0-8-2-7-58-93"
       d="m 471.7032,221.07312 -174.96958,7.43463"
       style="fill:none;fill-opacity:1;stroke:#959595;stroke-width:2.66667;stroke-linecap:butt;stroke-linejoin:round;stroke-miterlimit:4;stroke-dasharray:none;stroke-opacity:1" />
    <path
       sodipodi:nodetypes="cc"
       inkscape:connector-curvature="0"
       id="path14359-1-7-5-3-0-73-1-9-8-5-14-5-8-0-8-0-1-9-3"
       d="M 296.73362,228.50775 471.7032,221.07312"
       style="fill:none;fill-opacity:1;stroke:#000000;stroke-width:1.33333;stroke-linecap:butt;stroke-linejoin:round;stroke-miterlimit:4;stroke-dasharray:3.99999, 1.33332999999999990;stroke-dashoffset:0;stroke-opacity:1" />
    <path
       sodipodi:nodetypes="cc"
       inkscape:connector-curvature="0"
       id="path14359-1-7-5-3-0-73-1-9-8-5-14-5-8-0-8-0-1-0-7"
       d="m 116.89103,320.18611 -86.074958,1.58814"
       style="fill:none;fill-opacity:1;stroke:#000000;stroke-width:1.33333;stroke-linecap:butt;stroke-linejoin:round;stroke-miterlimit:4;stroke-dasharray:3.99999, 1.33332999999999990;stroke-dashoffset:0;stroke-opacity:1" />
    <path
       sodipodi:nodetypes="cccccc"
       inkscape:connector-curvature="0"
       id="path14359-1-7-5-3-0-73-1-9-8-5-14-5-8-0-8-0-1-0-73"
       d="m 212.6254,306.36479 -67.79626,1.02553 -3.14548,0.86946 -2.47626,-4.6e-4 -2.87787,-0.87059 -19.7135,-0.004"
       style="fill:none;fill-opacity:1;stroke:#000000;stroke-width:1.33333;stroke-linecap:butt;stroke-linejoin:round;stroke-miterlimit:4;stroke-dasharray:3.99999, 1.33332999999999990;stroke-dashoffset:0;stroke-opacity:1" />
    <path
       sodipodi:nodetypes="cc"
       inkscape:connector-curvature="0"
       id="path14359-1-7-5-3-0-73-1-9-8-5-14-5-8-0-8-0-1-0-2"
       d="m 209.91906,200.58819 -98.12175,1.45429"
       style="fill:none;fill-opacity:1;stroke:#000000;stroke-width:1.33333;stroke-linecap:butt;stroke-linejoin:round;stroke-miterlimit:4;stroke-dasharray:3.99999, 1.33332999999999990;stroke-dashoffset:0;stroke-opacity:1" />
    <path
       sodipodi:nodetypes="cc"
       inkscape:connector-curvature="0"
       id="path14359-1-7-5-3-0-73-1-9-8-5-14-5-8-0-8-0-1-0-5"
       d="m 294.41159,157.80553 -85.65243,2.09326"
       style="fill:none;fill-opacity:1;stroke:#000000;stroke-width:1.33333;stroke-linecap:butt;stroke-linejoin:round;stroke-miterlimit:4;stroke-dasharray:3.99999, 1.33332999999999990;stroke-dashoffset:0;stroke-opacity:1" />
    <path
       sodipodi:nodetypes="cccccccccc"
       inkscape:connector-curvature="0"
       id="path14359-1-7-5-3-0-73-1-9-8-5-14-5-8-0-8-0-1-0-6"
       d="m 445.48821,352.08511 -0.65501,-26.18948 -71.33846,0.9986 -7.89568,-1.06927 -5.43687,0.10253 -11.22178,1.42981 -49.99328,1.91195 -6.58366,-231.47594 -1.80749,-4.24064 -1.06817,-31.366439"
       style="fill:none;fill-opacity:1;stroke:#000000;stroke-width:1.33333;stroke-linecap:butt;stroke-linejoin:round;stroke-miterlimit:4;stroke-dasharray:3.99999, 1.33332999999999990;stroke-dashoffset:0;stroke-opacity:1" />
    <path
       sodipodi:nodetypes="cccc"
       inkscape:connector-curvature="0"
       id="path14359-1-7-5-3-0-73-1-9-8-5-14-5-8-0-8-0-1-0-3"
       d="m 215.40704,386.10885 -28.28019,-0.005 -17.93627,1.26829 -51.57066,-0.01"
       style="fill:none;fill-opacity:1;stroke:#000000;stroke-width:1.33333;stroke-linecap:butt;stroke-linejoin:round;stroke-miterlimit:4;stroke-dasharray:3.99999, 1.33332999999999990;stroke-dashoffset:0;stroke-opacity:1" />
    <path
       sodipodi:nodetypes="cc"
       inkscape:connector-curvature="0"
       id="path14359-1-7-5-3-0-73-1-9-8-5-14-5-8-0-8-0-1-0-4"
       d="m 317.50307,355.51788 -103.2446,4.10958"
       style="fill:none;fill-opacity:1;stroke:#000000;stroke-width:1.33333;stroke-linecap:butt;stroke-linejoin:round;stroke-miterlimit:4;stroke-dasharray:3.99999, 1.33332999999999990;stroke-dashoffset:0;stroke-opacity:1" />
    <path
       sodipodi:nodetypes="cccccccc"
       inkscape:connector-curvature="0"
       id="path14359-1-7-5-3-0-73-1-9-8-5-14-5-8-0-8-0-1-0-0"
       d="m 408.0393,326.19315 0.0127,-86.72028 -0.72303,-14.69963 -1.83047,-2.60776 -2.77573,-91.03883 4.4e-4,-13.00152 -40.23397,0.42778 -69.44546,3.19594"
       style="fill:none;fill-opacity:1;stroke:#000000;stroke-width:1.33333;stroke-linecap:butt;stroke-linejoin:round;stroke-miterlimit:4;stroke-dasharray:3.99999, 1.33332999999999990;stroke-dashoffset:0;stroke-opacity:1" />
    <path
       sodipodi:nodetypes="ccc"
       inkscape:connector-curvature="0"
       id="path14359-1-7-5-3-0-73-1-9-8-5-14-5-8-0-8-0-1-0-60"
       d="m 471.50939,352.33174 -27.89701,-0.0678 0.65346,61.27284"
       style="fill:none;fill-opacity:1;stroke:#000000;stroke-width:1.33333;stroke-linecap:butt;stroke-linejoin:round;stroke-miterlimit:4;stroke-dasharray:3.99999, 1.33332999999999990;stroke-dashoffset:0;stroke-opacity:1" />
    <path
       sodipodi:nodetypes="cc"
       inkscape:connector-curvature="0"
       id="path14359-1-7-5-3-0-73-1-9-8-5-14-5-8-0-8-0-1-0-40"
       d="m 471.73164,127.41619 -68.80403,3.08709"
       style="fill:none;fill-opacity:1;stroke:#000000;stroke-width:1.33333;stroke-linecap:butt;stroke-linejoin:round;stroke-miterlimit:4;stroke-dasharray:3.99999, 1.33332999999999990;stroke-dashoffset:0;stroke-opacity:1" />
    <path
       sodipodi:nodetypes="ccsssssssssssssssssssssscssssssssssssssssssssssssssssssssssc"
       inkscape:connector-curvature="0"
       id="path14359-1-7-5-3-0-73-1-9-8-5-14-5-8-0-8-2-7-91-5"
       d="m 321.20329,328.29697 -0.80978,2.64592 c -0.85954,0.69501 -1.53902,1.64385 -2.36598,2.35268 -0.59637,0.51117 -1.4783,0.0161 -1.92264,0.90477 -0.33989,0.67978 0.64855,2.07279 0.45238,3.05361 -0.10045,0.50228 -0.9424,2.52614 -0.90477,2.71431 0.24592,1.22959 2.12384,1.11909 2.37503,2.37503 0.31705,1.58526 -1.36798,0.91559 -1.80954,1.35716 -0.64223,0.64223 0.81424,2.65995 1.13096,3.1667 1.2322,1.97152 4.03938,2.24665 4.63696,4.63696 0.41107,1.6443 -0.26418,3.29217 -2.14883,2.03574 -0.9505,-0.63366 -2.49847,-2.40544 -2.82742,0.22619 -0.38395,3.07161 3.12464,4.25841 3.3929,6.6727 0.16673,1.50055 -1.60269,0.79459 -1.80955,2.03574 -0.23585,1.41513 1.57656,1.09699 1.80955,2.26193 0.19819,0.99097 -0.91972,1.08613 -0.56548,2.14883 0.31894,0.95683 1.28704,1.53286 1.69644,2.48813 0.16953,0.39557 -1.39483,1.92276 -1.24406,2.82741 0.28172,1.69029 2.345,-0.48944 2.71432,1.35716 0.21536,1.0768 -2.53924,1.59423 -2.03574,2.60122 0.53185,1.06369 2.20395,-0.59591 2.82741,0.33929 1.32635,1.98952 -5.75207,2.06851 -5.88102,2.26193 -0.83044,1.24567 1.67524,1.859 1.92265,2.60122 0.45313,1.3594 -1.30886,1.39781 -1.80955,2.14884 -0.2794,0.41909 0.3368,1.4628 0.45239,1.80954 0.31426,1.04756 0.18604,0.95765 0.67858,1.69645 0.38349,0.57525 3.0536,3.09451 3.0536,3.3929 0,1.55074 -4.47861,0.66729 -3.50599,4.07148 0.19585,0.68547 0.29255,0.32246 0.79168,0.90477 0.0105,0.0122 0.1512,0.52049 0.22619,0.56548 0.48934,0.2936 0.97661,-0.0309 1.47025,0.33929 0.18942,0.14206 2.11795,2.86877 2.03574,3.2798 -0.2128,1.06402 -3.19668,0.47027 -3.95838,0.56548 -0.99947,0.12494 -1.30196,2.62882 -0.22619,3.16671 2.05742,1.02871 3.94291,-1.80002 5.76792,-1.01787 2.08442,0.89332 -0.31363,2.91835 -0.56548,3.50599 -0.1436,0.33508 -0.18515,0.88378 -0.1131,1.24406 0.24568,1.22837 1.66367,1.11621 2.03574,0 0.29936,-0.89806 -0.22919,-1.91063 0,-2.82741 0.22551,-0.90201 0.9989,-1.40209 1.35716,-2.26193 0.44833,-1.07598 0.47747,-2.24679 1.24406,-3.16671 0.38193,-0.45831 1.3556,-1.20844 1.92265,-0.45238 1.18705,1.58274 0.3826,2.77566 -0.2262,4.29767 -0.26109,0.65274 1.66737,1.05017 1.58335,1.47025 -0.23646,1.18231 -1.5074,1.22425 -2.03573,2.14884 -0.71921,1.25861 0.71697,3.0365 1.13096,4.07147 0.17237,0.43093 1.72372,1.6419 2.14884,0.79168 0.44653,-0.89307 -0.25392,-1.64323 -0.1131,-2.48812 0.064,-0.38382 0.64412,-0.73198 1.01787,-0.67858 1.59583,0.22797 -0.0117,2.78354 1.24406,2.94051 1.82871,0.22859 0.26626,-1.44105 0.90477,-1.69645 0.93477,-0.37391 1.74101,0.83623 2.26193,1.35716 0.21227,0.21226 1.97269,0.22619 2.37503,0.22619 1.71446,0 1.29207,-2.32214 3.2798,-1.47025 0.25824,0.11067 0.39904,1.03065 0.45239,1.24406 0.0627,0.25093 0.52031,0.29411 0.67858,0.45238 0.21636,0.21637 0.0796,0.75818 0.22619,0.90478 0.50916,0.50916 2.06284,-0.16287 2.71432,0 0.30307,0.0758 0.58914,0.27616 0.90477,0.33929 0.78548,0.15709 2.64787,-0.48715 2.64406,1.439"
       style="fill:none;fill-opacity:1;stroke:#000000;stroke-width:1.33333;stroke-linecap:butt;stroke-linejoin:round;stroke-miterlimit:4;stroke-dasharray:4, 1.33332999999999990;stroke-dashoffset:0;stroke-opacity:1" />
    <path
       style="fill:none;fill-opacity:1;stroke:#000000;stroke-width:1;stroke-linecap:butt;stroke-linejoin:miter;stroke-miterlimit:4;stroke-dasharray:none;stroke-opacity:1"
       d="M 4.8904235,1.2805439 4.8723235,413.64243 H 471.72168 l 0.006,-412.3618861 z"
       id="path14359-1-7-5-3-0-73-1-9-8-5-14-5-8-0-0"
       inkscape:connector-curvature="0"
       sodipodi:nodetypes="ccccc" />
    <path
       style="fill:#fafafa;fill-opacity:1;stroke:none;stroke-width:1.33333;stroke-linecap:round;stroke-linejoin:round;stroke-miterlimit:4;stroke-dasharray:none;stroke-opacity:1"
       d="M 96.203608,119.24444 H 9.3590899 l 0.002,-22.640659 H 96.205358 l -0.001,14.220179 25.084072,-1.55067 -25.084965,7.16714 z"
       id="path14359-1-7-5-3-0-73-1-9-8-5-14-0-0-3"
       inkscape:connector-curvature="0"
       sodipodi:nodetypes="cccccccc" />
    <path
       sodipodi:nodetypes="cccccccc"
       inkscape:connector-curvature="0"
       id="path14359-1-7-5-3-0-73-1-9-8-5-14-0-0"
       d="M 96.203315,119.24444 H 9.3590949 l 0.002,-22.640659 H 96.205358 l -0.0013,14.220179 25.084082,-1.55067 -25.084675,7.16714 z"
       style="fill:none;fill-opacity:1;stroke:#000000;stroke-width:1.33333;stroke-linecap:round;stroke-linejoin:round;stroke-miterlimit:4;stroke-dasharray:none;stroke-opacity:1" />
    <text
       xml:space="preserve"
       style="font-style:normal;font-variant:normal;font-weight:normal;font-stretch:normal;font-size:10.6667px;line-height:10.3273px;font-family:'Arial Narrow';-inkscape-font-specification:'Arial Narrow';letter-spacing:0.55px"
       x="14.445536"
       y="111.11856"
       id="text6879"><tspan
         sodipodi:role="line"
         id="tspan6877"
         x="14.445536"
         y="111.11856">Big Muddy Creek</tspan></text>
    <path
       sodipodi:nodetypes="cccccccc"
       inkscape:connector-curvature="0"
       id="path14359-1-7-5-3-0-73-1-9-8-5-14-0-0-3-0"
       d="m 167.94678,98.202599 h 60.71908 l -0.002,-22.640659 h -60.71883 l 0.001,13.729239 -32.30791,8.969481 32.3088,-2.371131 z"
       style="fill:#fafafa;fill-opacity:1;stroke:none;stroke-width:1.33333;stroke-linecap:round;stroke-linejoin:round;stroke-miterlimit:4;stroke-dasharray:none;stroke-opacity:1" />
    <path
       style="fill:none;fill-opacity:1;stroke:#000000;stroke-width:1.33333;stroke-linecap:round;stroke-linejoin:round;stroke-miterlimit:4;stroke-dasharray:none;stroke-opacity:1"
       d="m 167.94707,98.202599 h 60.71878 l -0.002,-22.640659 h -60.71882 l 0.001,13.729239 -32.30792,8.969481 32.30851,-2.371131 z"
       id="path14359-1-7-5-3-0-73-1-9-8-5-14-0-0-1"
       inkscape:connector-curvature="0"
       sodipodi:nodetypes="cccccccc" />
    <text
       id="text6879-9"
       y="90.076721"
       x="171.94788"
       style="font-style:normal;font-variant:normal;font-weight:normal;font-stretch:normal;font-size:10.6667px;line-height:10.3273px;font-family:'Arial Narrow';-inkscape-font-specification:'Arial Narrow';letter-spacing:0.55px"
       xml:space="preserve"><tspan
         y="90.076721"
         x="171.94788"
         id="tspan6877-8"
         sodipodi:role="line">Little Creek</tspan></text>
    <path
       style="fill:#fafafa;fill-opacity:1;stroke:none;stroke-width:1.33333;stroke-linecap:round;stroke-linejoin:round;stroke-miterlimit:4;stroke-dasharray:none;stroke-opacity:1"
       d="m 380.59534,104.45203 8.74702,0 1.04843,30.85383 15.65158,-30.85383 h 42.17252 l -0.002,-22.640657 h -67.6193 z"
       id="path14359-1-7-5-3-0-73-1-9-8-5-14-0-0-3-0-8"
       inkscape:connector-curvature="0"
       sodipodi:nodetypes="cccccccc" />
    <path
       sodipodi:nodetypes="cccccccc"
       inkscape:connector-curvature="0"
       id="path14359-1-7-5-3-0-73-1-9-8-5-14-0-0-1-1"
       d="m 380.59563,104.45203 8.74673,0 1.04843,30.85383 15.65158,-30.85383 h 42.17251 l -0.002,-22.640657 h -67.61929 z"
       style="fill:none;fill-opacity:1;stroke:#000000;stroke-width:1.33333;stroke-linecap:round;stroke-linejoin:round;stroke-miterlimit:4;stroke-dasharray:none;stroke-opacity:1" />
    <text
       xml:space="preserve"
       style="font-style:normal;font-variant:normal;font-weight:normal;font-stretch:normal;font-size:10.6667px;line-height:10.3273px;font-family:'Arial Narrow';-inkscape-font-specification:'Arial Narrow';letter-spacing:0.55px"
       x="385.30057"
       y="96.748634"
       id="text6879-9-0"><tspan
         sodipodi:role="line"
         id="tspan6877-8-3"
         x="385.30057"
         y="96.748634">Spring Creek</tspan></text>
    <text
       id="text6879-0"
       y="88.925209"
       x="52.495148"
       style="font-style:normal;font-variant:normal;font-weight:normal;font-stretch:normal;font-size:9.33333px;line-height:9.03638px;font-family:'Arial Narrow';-inkscape-font-specification:'Arial Narrow';letter-spacing:0.55px"
       xml:space="preserve"><tspan
         y="88.925209"
         x="52.495148"
         id="tspan6877-5"
         sodipodi:role="line">Worth</tspan></text>
    <text
       xml:space="preserve"
       style="font-style:normal;font-variant:normal;font-weight:normal;font-stretch:normal;font-size:9.33333px;line-height:9.03638px;font-family:'Arial Narrow';-inkscape-font-specification:'Arial Narrow';letter-spacing:0.55px"
       x="51.018681"
       y="182.44463"
       id="text6879-0-7"><tspan
         sodipodi:role="line"
         id="tspan6877-5-1"
         x="51.018681"
         y="182.44463">Gentry</tspan></text>
    <text
       xml:space="preserve"
       style="font-style:normal;font-variant:normal;font-weight:normal;font-stretch:normal;font-size:9.33333px;line-height:9.03638px;font-family:'Arial Narrow';-inkscape-font-specification:'Arial Narrow';letter-spacing:0.55px"
       x="138.05528"
       y="164.13643"
       id="text6879-0-0"><tspan
         sodipodi:role="line"
         id="tspan6877-5-2"
         x="138.05528"
         y="164.13643">Harrison</tspan></text>
    <text
       xml:space="preserve"
       style="font-style:normal;font-variant:normal;font-weight:normal;font-stretch:normal;font-size:9.33333px;line-height:9.03638px;font-family:'Arial Narrow';-inkscape-font-specification:'Arial Narrow';letter-spacing:0.55px"
       x="333.34274"
       y="181.42751"
       id="text6879-0-1"><tspan
         sodipodi:role="line"
         id="tspan6877-5-7"
         x="333.34274"
         y="181.42751">Sullivan</tspan></text>
    <text
       xml:space="preserve"
       style="font-style:normal;font-variant:normal;font-weight:normal;font-stretch:normal;font-size:9.33333px;line-height:9.03638px;font-family:'Arial Narrow';-inkscape-font-specification:'Arial Narrow';letter-spacing:0.55px"
       x="336.83002"
       y="84.655586"
       id="text6879-0-5"><tspan
         sodipodi:role="line"
         id="tspan6877-5-3"
         x="336.83002"
         y="84.655586">Putnam</tspan></text>
    <text
       xml:space="preserve"
       style="font-style:normal;font-variant:normal;font-weight:normal;font-stretch:normal;font-size:9.33333px;line-height:9.03638px;font-family:'Arial Narrow';-inkscape-font-specification:'Arial Narrow';letter-spacing:0.55px"
       x="437.67044"
       y="192.47054"
       id="text6879-0-6"><tspan
         sodipodi:role="line"
         id="tspan6877-5-4"
         x="437.67044"
         y="192.47054">Adair</tspan></text>
  </g>
</svg>
