<?xml version="1.0" encoding="UTF-8" standalone="no"?>
<!-- Created with Inkscape (http://www.inkscape.org/) -->

<svg
   xmlns:dc="http://purl.org/dc/elements/1.1/"
   xmlns:cc="http://creativecommons.org/ns#"
   xmlns:rdf="http://www.w3.org/1999/02/22-rdf-syntax-ns#"
   xmlns:svg="http://www.w3.org/2000/svg"
   xmlns="http://www.w3.org/2000/svg"
   xmlns:sodipodi="http://sodipodi.sourceforge.net/DTD/sodipodi-0.dtd"
   xmlns:inkscape="http://www.inkscape.org/namespaces/inkscape"
   version="1.1"
   id="svg6990"
   width="188.8"
   height="289.28"
   viewBox="0 0 188.8 289.28"
   sodipodi:docname="er22my03.002.svg"
   inkscape:version="0.92.2 5c3e80d, 2017-08-06">
  <metadata
     id="metadata6996">
    <rdf:RDF>
      <cc:Work
         rdf:about="">
        <dc:format>image/svg+xml</dc:format>
        <dc:type
           rdf:resource="http://purl.org/dc/dcmitype/StillImage" />
        <dc:title></dc:title>
      </cc:Work>
    </rdf:RDF>
  </metadata>
  <defs
     id="defs6994" />
  <sodipodi:namedview
     pagecolor="#ffffff"
     bordercolor="#666666"
     borderopacity="1"
     objecttolerance="10"
     gridtolerance="10"
     guidetolerance="10"
     inkscape:pageopacity="0"
     inkscape:pageshadow="2"
     inkscape:window-width="1280"
     inkscape:window-height="756"
     id="namedview6992"
     showgrid="false"
     inkscape:zoom="1.5165423"
     inkscape:cx="88.630297"
     inkscape:cy="144.64"
     inkscape:window-x="0"
     inkscape:window-y="0"
     inkscape:window-maximized="0"
     inkscape:current-layer="svg6990"
     inkscape:snap-global="true" />
  <path
     style="fill:none;stroke:#000000;stroke-width:1;stroke-linecap:butt;stroke-linejoin:miter;stroke-miterlimit:4;stroke-dasharray:none;stroke-opacity:1"
     d="m 2.0483628,2.2196553 -0.002,284.7857247 H 187.3157 l 0.002,-284.7857247 z"
     id="path14359-1-7-5-3-0-73-1-9-8-5-1"
     inkscape:connector-curvature="0"
     sodipodi:nodetypes="ccccc" />
  <path
     style="fill:none;stroke:#000000;stroke-width:1;stroke-linecap:round;stroke-linejoin:round;stroke-miterlimit:4;stroke-dasharray:none;stroke-opacity:1"
     d="m 2.2350254,62.308663 184.9155846,0.002"
     id="path14359-1-7-5-3-0-73-1-9-8-5"
     inkscape:connector-curvature="0"
     sodipodi:nodetypes="cc" />
  <path
     style="fill:none;stroke:#000000;stroke-width:1;stroke-linecap:round;stroke-linejoin:round;stroke-miterlimit:4;stroke-dasharray:none;stroke-opacity:1"
     d="M 187.0646,238.10732 2.2350257,238.10532"
     id="path14359-1-7-5-3-0-73-1-9-8-5-8"
     inkscape:connector-curvature="0"
     sodipodi:nodetypes="cc" />
  <path
     style="fill:none;stroke:#000000;stroke-width:1;stroke-linecap:round;stroke-linejoin:round;stroke-miterlimit:4;stroke-dasharray:none;stroke-opacity:1"
     d="m 2.2350247,187.18965 184.7435653,0.002"
     id="path14359-1-7-5-3-0-73-1-9-8-5-5"
     inkscape:connector-curvature="0"
     sodipodi:nodetypes="cc" />
  <path
     style="fill:none;stroke:#000000;stroke-width:0.5;stroke-linecap:butt;stroke-linejoin:miter;stroke-miterlimit:4;stroke-dasharray:none;stroke-opacity:1"
     d="m 131.86521,254.91866 -0.002,5.8695 H 54.235203 l 0.002,-5.8695 z"
     id="path14359-1-7-5-3-0-73-1-9-8-5-9"
     inkscape:connector-curvature="0"
     sodipodi:nodetypes="ccccc" />
  <path
     style="fill:none;stroke:#000000;stroke-width:0.5;stroke-linecap:butt;stroke-linejoin:miter;stroke-miterlimit:4;stroke-dasharray:none;stroke-opacity:1"
     d="m 93.266994,255.04538 -0.002,5.61606"
     id="path14359-1-7-5-3-0-73-1-9-8-5-9-3"
     inkscape:connector-curvature="0"
     sodipodi:nodetypes="cc" />
  <path
     style="fill:none;stroke:#000000;stroke-width:0.5;stroke-linecap:butt;stroke-linejoin:miter;stroke-miterlimit:4;stroke-dasharray:none;stroke-opacity:1"
     d="m 54.216014,257.85241 39.070168,0.002"
     id="path14359-1-7-5-3-0-73-1-9-8-5-9-37"
     inkscape:connector-curvature="0"
     sodipodi:nodetypes="cc" />
  <path
     style="fill:none;stroke:#000000;stroke-width:0.5;stroke-linecap:butt;stroke-linejoin:miter;stroke-miterlimit:4;stroke-dasharray:none;stroke-opacity:1"
     d="m 102.67241,272.44432 -0.002,5.8695 H 54.147484 l 0.002,-5.8695 z"
     id="path14359-1-7-5-3-0-73-1-9-8-5-9-7"
     inkscape:connector-curvature="0"
     sodipodi:nodetypes="ccccc" />
  <path
     style="fill:none;stroke:#000000;stroke-width:0.5;stroke-linecap:butt;stroke-linejoin:miter;stroke-miterlimit:4;stroke-dasharray:none;stroke-opacity:1"
     d="m 78.409534,272.57104 -0.002,5.61606"
     id="path14359-1-7-5-3-0-73-1-9-8-5-9-3-3"
     inkscape:connector-curvature="0"
     sodipodi:nodetypes="cc" />
  <path
     style="fill:none;stroke:#000000;stroke-width:0.5;stroke-linecap:butt;stroke-linejoin:miter;stroke-miterlimit:4;stroke-dasharray:none;stroke-opacity:1"
     d="m 54.128295,275.37807 24.300427,0.002"
     id="path14359-1-7-5-3-0-73-1-9-8-5-9-37-2"
     inkscape:connector-curvature="0"
     sodipodi:nodetypes="cc" />
  <path
     style="fill:none;stroke:#000000;stroke-width:3;stroke-linecap:round;stroke-linejoin:miter;stroke-miterlimit:4;stroke-dasharray:none;stroke-opacity:1"
     d="m 46.047111,207.22167 -0.002,14.27638 H 18.971382 l 0.002,-14.27638 z"
     id="path14359-1-7-5-3-0-73-1-9-8-5-89-0"
     inkscape:connector-curvature="0"
     sodipodi:nodetypes="ccccc" />
  <path
     style="fill:#000000;stroke:#000000;stroke-width:0.5;stroke-linecap:round;stroke-linejoin:round;stroke-miterlimit:4;stroke-dasharray:none;stroke-opacity:1;fill-opacity:1"
     d="m 67.08364,144.06914 -3.595124,0.75063 c 0.748465,1.57866 1.633548,3.11178 2.091863,4.78716 0.376928,-1.76917 0.521369,-3.88418 1.503261,-5.53779 z"
     id="path14359-1-7-5-3-0-73-1-9-8-5-89-04"
     inkscape:connector-curvature="0"
     sodipodi:nodetypes="cccc" />
  <path
     style="fill:none;stroke:#000000;stroke-width:2;stroke-linecap:round;stroke-linejoin:round;stroke-miterlimit:4;stroke-dasharray:none;stroke-opacity:1"
     d="m 16.82992,79.577614 c 0,1.388965 -0.08363,2.800405 -0.11852,4.26674 0.09235,0.342789 0.0977,0.748508 0.237041,1.027178 0.272081,0.544162 0.762952,1.079008 1.145698,1.461754 0.291222,0.291222 0.06234,0.954321 0.237042,1.303726 0.282645,0.56529 0.295657,1.262931 0.553096,1.777809 0.176594,0.353188 0.568107,0.701639 0.75063,1.066685 0.09263,0.185265 0.129291,0.484853 0.237041,0.592603 0.174932,0.174932 -0.18517,2.027214 -0.158027,2.054356 0.715636,0.715636 1.825264,1.774292 1.817315,2.370411 l -0.03951,2.963015 c -0.0077,0.575768 0.649299,1.981799 0.711123,3.674139 0.365522,2.50885 2.028926,5.72577 1.26422,8.01989 -0.0045,1.05942 -0.564749,2.47274 -1.027176,3.39759 -0.161393,0.32279 0,1.13206 0,1.50126 0,0.0818 -0.05208,0.4615 0,0.51359 0.262487,0.26248 0.404206,0.92693 0.592603,1.30372 0.211111,0.42223 0.819161,0.97719 1.106192,1.26422 0.182635,0.18264 0.14973,0.89207 0.276548,1.1457 0.135272,0.27055 0.45037,0.43852 0.63211,0.71113 0.694449,1.04167 1.273954,1.96504 1.659288,3.12104 0.471051,1.41315 0.659551,3.07278 1.027178,4.54329 0.142061,0.56824 0.02486,1.35344 0.276548,1.85682 0.163649,0.3273 -0.788546,4.54011 -0.987671,4.93836 -0.552121,1.10424 1.402613,4.91896 1.619781,5.57046 0.407859,0.60298 0.817744,1.26803 1.066685,2.01485 0.192164,0.5765 0.651165,1.02578 0.908657,1.54077 0.735949,1.4719 1.214167,3.46606 2.409919,4.66181 0.220288,0.22029 0.245204,0.67978 0.474082,0.90866 0.925143,0.92514 1.882554,1.64551 3.042028,2.80498 0.612382,0.61238 2.230404,0.37358 3.200055,1.34323 0.483459,0.48346 0.02561,1.47348 0.276548,1.97535 0.501477,1.00295 1.007201,0.4541 1.619781,1.06668 0.384522,0.38453 0.245338,1.90463 0.671616,2.33091 0.161956,0.16195 0.212655,0.41019 0.355562,0.55309 0.31289,0.31289 0.837835,0.6403 1.185206,0.98767 0.191083,0.19109 0.187572,0.58264 0.395068,0.79014 0.159177,0.15918 0.353949,0.3096 0.395069,0.47408 0.713592,1.45693 1.02603,2.44828 2.093863,3.51611 0.410009,0.41001 1.144727,0.47311 1.540767,0.86915 0.39792,0.39792 0.598582,1.03914 0.829644,1.50127 0.244004,0.488 -0.249635,1.1331 0.158028,1.54076 0.310191,0.31019 0.989415,0.39856 1.224712,0.86915 0.689857,1.37972 1.0385,2.21805 2.370412,2.884 1.328058,0.66403 1.935836,-2.06528 1.935836,-3.00252 0,-0.25068 0.276274,-0.55255 0.395068,-0.79013 0.197781,-0.39557 0.447751,-1.04036 0.75063,-1.34324 0.711557,-0.71155 2.975976,-2.80561 2.449425,-4.38526 -0.03817,-0.1145 0.03706,-0.55555 -0.03951,-0.63211 -0.160197,-0.1602 -0.748893,-1.61804 -1.106192,-1.97534 -0.635188,-0.63519 -1.616924,-0.94531 -2.212383,-1.54077 -0.493194,-0.49319 -0.0096,-1.44154 -0.316055,-2.05435 -0.337325,-0.67465 -0.576428,-1.35039 -0.908658,-2.01485 -0.137897,-0.2758 -0.443129,-0.56165 -0.63211,-0.75063 -0.336782,-0.33679 -0.626608,-1.21371 -0.86915,-1.6988 -1.188245,-2.37649 -2.884001,-3.84707 -2.884001,-6.55814 0,-0.77518 0.129413,-1.31462 0.553096,-1.7383 0.08388,-0.0839 0.07405,-0.70616 0.513589,-1.1457 0.496,-0.496 -0.567086,-1.94859 0.276548,-2.37041 0.742796,-0.3714 3.08559,0.4751 3.871672,0.67162 3.253644,0.81341 7.236874,0.95528 9.363125,3.08153 0.232958,0.23296 0.721247,0.4052 0.948164,0.63211 0.05235,0.0523 0.234256,0.0395 0.316055,0.0395 0.835969,0 0.180265,-1.83624 1.303726,-1.46175 0.669435,-0.20458 3.006833,-1.58458 3.55562,-2.13336 0.167883,-0.16789 0.61011,-0.057 0.790137,-0.23705 0.212948,-0.21294 1.092437,0.17179 1.303726,-0.0395 0.183053,-0.18306 0.342733,-0.65879 0.592603,-0.90866 0.228051,-0.22805 0.637545,-0.361 0.869151,-0.5926 0.404376,-0.40438 1.259448,-0.42981 1.659288,-0.82965 0.438305,-0.4383 0.172542,-4.51829 0.908658,-5.25441 0.758634,-0.75863 2.925045,1.10312 3.595123,-0.23704 0.151192,-0.30238 -0.06416,-0.70608 -0.158027,-0.98767 -0.205161,-0.61548 0.217037,-1.78756 0.592603,-1.97534 0.379088,-0.18955 0.85015,0.23854 0.948164,0.43457 0.27558,0.55116 -0.224169,1.17144 0.03951,1.6988 0.254071,0.50814 0.500681,0.89575 0.869151,1.26422 0.08094,0.0809 0.397484,1.54559 0.592603,1.93583 0.443538,0.88708 1.805368,1.29178 2.370411,1.85682 0.551035,0.55104 0.01406,1.59434 0.513589,2.09387 0.336348,0.33634 1.120958,0.13328 1.461754,0.47408 0.308256,0.88682 0.876305,3.7796 1.422247,4.0297 0.385282,0.75292 0.660027,1.45017 1.224709,2.01485 0.790816,0.79081 2.29451,0.77194 3.279069,1.26422 0.234343,0.11717 0.632767,-0.0787 0.869151,0.0395 0.351246,0.17563 0.845181,0.071 1.224712,0.19754 2.279143,0.75971 6.321411,0.6122 8.414961,-0.43458 0.12599,-0.063 0.45748,-0.0229 0.5531,-0.11852 0.45715,-0.45716 1.30374,-0.75064 1.93583,-1.06668 0.72494,-0.36247 0.76784,-2.2691 1.02718,-2.52844 0.31432,-0.31432 0.17836,-1.008 0.51359,-1.34323 0.50837,-0.50837 2.44413,-2.96125 2.68646,-3.04203 2.13862,-0.73289 2.64206,3.85695 3.12105,5.29392 0.30056,0.90168 0.0863,2.29869 0.71112,2.9235 0.079,0.079 0.0162,0.33227 0.11852,0.43458 1.16619,1.16619 1.26097,0.43295 2.21238,0.90866 0.46227,0.23113 0.38509,0.81966 0.67162,1.10619 0.24105,0.24105 -0.17012,0.97234 -0.23704,1.10619 -0.22372,0.44744 -0.25422,1.08387 -0.5926,1.42225 -0.59168,0.59167 -1.58852,2.16463 -0.67162,3.08153 0.53392,0.53392 1.92005,0.5531 2.72597,0.5531 1.51519,0 2.18318,0.0936 3.47661,-0.5531 0.14921,-0.0746 0.35027,-0.10793 0.43457,-0.27655 0.2429,-0.4858 0.86919,-0.4346 1.22472,-0.79013 0.31937,-0.31938 0.73432,-0.85285 1.10619,-1.22472 0.39858,-0.39858 0.61123,-1.35254 1.1457,-1.61977 0.34351,-0.17176 1.04007,-1.20454 1.26422,-1.54078 0.31955,-0.47931 0.8275,-0.788 1.22471,-1.1852 0.64642,-0.64642 1.43109,-1.66813 2.25189,-2.48893 0.34836,-0.34836 0.98782,-0.57308 1.26422,-0.98767 0.67354,-1.01032 1.9049,-2.07324 2.884,-2.60746 1.46844,-0.49512 2.20523,-1.84967 3.16055,-2.80498 0.44588,-0.44588 0.6244,-1.41455 1.10619,-1.89633 1.71507,-1.71507 4.10359,-2.52332 5.84701,-4.26674 0.22853,-0.22853 1.00706,-0.22698 1.34323,-0.39507 0.85436,-0.42718 2.14702,-0.0463 3.00253,-0.47408 0.6322,-0.31611 1.35258,-0.005 1.97534,-0.31606 0.94808,-0.47404 2.51368,-0.21419 3.63463,-0.31605 2.89801,-0.26334 5.71983,-0.82098 6.95321,-2.05436 0.41749,-0.41749 -0.57979,-0.80348 -0.71113,-0.86915 -2.21477,-1.10738 -5.28874,0.72149 -6.47912,-1.65929 -0.57403,-1.14806 0.88906,-2.01453 0.47408,-2.84449 -0.34197,-0.68395 -1.22482,-0.90876 -1.7383,-1.42225 -0.23066,-0.23066 0.31605,-1.48183 0.31605,-1.89633 0,-1.82943 -2.098,-5.6807 -1.42224,-7.03222 0.24359,-0.48718 1.91786,-2.5069 1.58027,-2.84449 -0.43462,-0.43462 -0.60087,-1.23298 -1.02718,-1.65929 -0.64331,-0.64332 -1.25938,-2.11885 -1.50126,-2.84449 -1.1709,-1.91533 -1.72129,-5.40394 -3.39759,-6.24208 -0.55885,-0.27943 -1.32349,0.0593 -1.65929,0.39506 -1.8939,1.89391 -5.13469,0.63152 -7.34827,1.73831 -1.23949,0.61974 -8.75749,-0.86916 -10.82488,-0.86916 -4.23887,-0.44551 -8.77127,0.39507 -13.03726,0.39507 -1.23311,0 -3.66921,-0.45679 -4.74082,0.079 -0.78205,0.39102 -3.91235,-0.19637 -4.42477,0.31605 -0.34106,0.34106 -0.70336,0.70337 -1.02718,1.02718 -0.85809,0.85809 -2.30767,-0.97953 -3.16055,-0.5531 -0.47522,0.23762 -2.310984,1.49147 -3.081532,1.1062 -0.65661,-0.32831 -1.966467,-0.78127 -2.528438,-1.34324 -0.40243,-0.40243 -5.120304,0.87695 -6.400111,0.23704 -2.647799,-1.3239 -7.168764,-0.89791 -9.16559,-1.89632 -0.433914,-0.21696 -1.152322,0.13496 -1.580274,-0.079 -2.866518,-1.43326 -6.404691,-2.240247 -9.165591,-3.160547 -2.795242,0.04341 -5.189082,-3.41532 -6.795179,-3.950685 -0.434211,-0.747949 -3.474203,-1.498861 -3.713644,-1.738302 -0.939112,-0.939112 -1.996418,-2.312473 -2.923507,-3.239562 -0.26202,-0.26202 -0.819615,-0.424546 -1.106192,-0.711123 -0.613127,-0.613127 -2.096738,-0.337246 -3.002521,-0.790138 -3.033845,-1.516922 -6.63596,-2.211787 -9.639673,-3.713644 -0.888265,-0.444133 -5.798308,-0.662417 -5.926028,-0.790137 -1.580355,-1.580355 -6.917346,-1.781455 -7.348275,-2.212384 -1.190229,-1.190229 -2.337007,-1.174071 -4.029699,-1.738301 -0.406972,-0.560479 -2.905402,-0.693018 -3.002521,-0.790138 -1.790885,-1.790885 -5.214904,-3.01166 -5.214905,0.948165 z"
     id="path7730"
     inkscape:connector-curvature="0"
     sodipodi:nodetypes="cccscscscsscccscccccscsscccccsccccccsccsccccsccccscccccsccssccsccccccccccccccscccccccccccsscscccsccsscccscccsccccscccssccccssscc" />
  <text
     xml:space="preserve"
     style="font-style:normal;font-variant:normal;font-weight:normal;font-stretch:normal;font-size:13.33333302px;line-height:14px;font-family:Charter;-inkscape-font-specification:Charter;text-align:center;letter-spacing:0.05px;word-spacing:0px;text-anchor:middle;fill:#000000;fill-opacity:1;stroke:none;"
     x="95.080269"
     y="22.077831"
     id="text7752"><tspan
       sodipodi:role="line"
       id="tspan7750"
       x="58.340424"
       y="22.077831">Map 2</tspan><tspan
       sodipodi:role="line"
       x="58.340424"
       y="36.077831"
       id="tspan7754">Nihoa Island</tspan></text>
  <text
     xml:space="preserve"
     style="font-style:italic;font-variant:normal;font-weight:normal;font-stretch:normal;font-size:13.33333302px;line-height:14px;font-family:Charter;-inkscape-font-specification:'Charter Italic';text-align:start;letter-spacing:0px;word-spacing:0px;text-anchor:start;fill:#000000;fill-opacity:1;stroke:none"
     x="36.954399"
     y="50.489449"
     id="text7752-7"><tspan
       sodipodi:role="line"
       x="36.954399"
       y="50.489449"
       id="tspan7754-9">Amaranthus brownii</tspan></text>
  <text
     xml:space="preserve"
     style="font-style:normal;font-variant:normal;font-weight:normal;font-stretch:normal;font-size:12px;line-height:14px;font-family:Charter;-inkscape-font-specification:Charter;text-align:start;letter-spacing:-0.2px;word-spacing:0px;text-anchor:start;fill:#000000;fill-opacity:1;stroke:none;"
     x="52.41375"
     y="218.8932"
     id="text7752-0"><tspan
       sodipodi:role="line"
       x="52.41375"
       y="218.8932"
       id="tspan7754-5">Critical Habitat Unit</tspan></text>
  <text
     xml:space="preserve"
     style="font-style:normal;font-variant:normal;font-weight:normal;font-stretch:normal;font-size:8px;line-height:14px;font-family:Charter;-inkscape-font-specification:Charter;text-align:start;letter-spacing:-0.30000001px;word-spacing:0px;text-anchor:start;fill:#000000;fill-opacity:1;stroke:none"
     x="113.56026"
     y="269.83301"
     id="text7752-0-1"><tspan
       sodipodi:role="line"
       x="113.56026"
       y="269.83301"
       id="tspan7754-5-4">Kilometers</tspan></text>
  <text
     xml:space="preserve"
     style="font-style:normal;font-variant:normal;font-weight:normal;font-stretch:normal;font-size:8px;line-height:14px;font-family:Charter;-inkscape-font-specification:Charter;text-align:start;letter-spacing:-0.30000001px;word-spacing:0px;text-anchor:start;fill:#000000;fill-opacity:1;stroke:none"
     x="143.0575"
     y="252.1559"
     id="text7752-0-1-2"><tspan
       sodipodi:role="line"
       x="143.0575"
       y="252.1559"
       id="tspan7754-5-4-4">Miles</tspan></text>
  <text
     xml:space="preserve"
     style="font-style:normal;font-variant:normal;font-weight:normal;font-stretch:normal;font-size:8px;line-height:14px;font-family:Charter;-inkscape-font-specification:Charter;text-align:start;letter-spacing:-0.30000001px;word-spacing:0px;text-anchor:start;fill:#000000;fill-opacity:1;stroke:none"
     x="127.08213"
     y="252.22964"
     id="text7752-0-1-0"><tspan
       sodipodi:role="line"
       x="127.08213"
       y="252.22964"
       id="tspan7754-5-4-6">0.5</tspan></text>
  <text
     xml:space="preserve"
     style="font-style:normal;font-variant:normal;font-weight:normal;font-stretch:normal;font-size:8px;line-height:14px;font-family:Charter;-inkscape-font-specification:Charter;text-align:start;letter-spacing:-0.30000001px;word-spacing:0px;text-anchor:start;fill:#000000;fill-opacity:1;stroke:none"
     x="97.394669"
     y="269.90347"
     id="text7752-0-1-0-9"><tspan
       sodipodi:role="line"
       x="97.394669"
       y="269.90347"
       id="tspan7754-5-4-6-4">0.5</tspan></text>
  <text
     xml:space="preserve"
     style="font-style:normal;font-variant:normal;font-weight:normal;font-stretch:normal;font-size:8px;line-height:14px;font-family:Charter;-inkscape-font-specification:Charter;text-align:start;letter-spacing:-0.30000001px;word-spacing:0px;text-anchor:start;fill:#000000;fill-opacity:1;stroke:none"
     x="86.215569"
     y="252.46404"
     id="text7752-0-1-0-1"><tspan
       sodipodi:role="line"
       x="86.215569"
       y="252.46404"
       id="tspan7754-5-4-6-42">0.25</tspan></text>
  <text
     xml:space="preserve"
     style="font-style:normal;font-variant:normal;font-weight:normal;font-stretch:normal;font-size:8px;line-height:14px;font-family:Charter;-inkscape-font-specification:Charter;text-align:start;letter-spacing:-0.30000001px;word-spacing:0px;text-anchor:start;fill:#000000;fill-opacity:1;stroke:none"
     x="71.310074"
     y="269.75439"
     id="text7752-0-1-0-7"><tspan
       sodipodi:role="line"
       x="71.310074"
       y="269.75439"
       id="tspan7754-5-4-6-44">0.25</tspan></text>
  <text
     xml:space="preserve"
     style="font-style:normal;font-variant:normal;font-weight:normal;font-stretch:normal;font-size:8px;line-height:14px;font-family:Charter;-inkscape-font-specification:Charter;text-align:start;letter-spacing:-0.30000001px;word-spacing:0px;text-anchor:start;fill:#000000;fill-opacity:1;stroke:none"
     x="52.380104"
     y="252.315"
     id="text7752-0-1-0-6"><tspan
       sodipodi:role="line"
       x="52.380104"
       y="252.315"
       id="tspan7754-5-4-6-47">0</tspan></text>
  <text
     xml:space="preserve"
     style="font-style:normal;font-variant:normal;font-weight:normal;font-stretch:normal;font-size:8px;line-height:14px;font-family:Charter;-inkscape-font-specification:Charter;text-align:start;letter-spacing:-0.30000001px;word-spacing:0px;text-anchor:start;fill:#000000;fill-opacity:1;stroke:none"
     x="52.52916"
     y="269.75443"
     id="text7752-0-1-0-8"><tspan
       sodipodi:role="line"
       x="52.52916"
       y="269.75443"
       id="tspan7754-5-4-6-8">0</tspan></text>
  <text
     xml:space="preserve"
     style="font-style:normal;font-variant:normal;font-weight:normal;font-stretch:normal;font-size:8px;line-height:14px;font-family:Charter;-inkscape-font-specification:Charter;text-align:start;letter-spacing:-0.30000001px;word-spacing:0px;text-anchor:start;fill:#000000;fill-opacity:1;stroke:none"
     x="29.425655"
     y="276.01474"
     id="text7752-0-1-0-4"><tspan
       sodipodi:role="line"
       x="29.425655"
       y="276.01474"
       id="tspan7754-5-4-6-7">N</tspan></text>
  <path
     style="fill:#000000;stroke:#000000;stroke-width:0.5;stroke-linecap:round;stroke-linejoin:round;stroke-miterlimit:4;stroke-dasharray:none;stroke-opacity:1;fill-opacity:1"
     d="m 32.180952,265.96348 5.824089,1.6529 -5.510238,-16.09335 0.217934,-0.6638 6.141497,17.49921 -5.824089,-1.6529 -6.129452,1.85647 0.362405,-1.10384 z"
     id="path14359-1-7-5-3-0-73-1-9-8-5-89-7"
     inkscape:connector-curvature="0"
     sodipodi:nodetypes="ccccccccc" />
  <path
     style="fill:none;stroke:#000000;stroke-width:0.5;stroke-linecap:round;stroke-linejoin:round;stroke-miterlimit:4;stroke-dasharray:none;stroke-opacity:1"
     d="m 38.005041,267.61638 -6.00578,-17.601 -5.947761,17.80457 6.129452,-1.85647 z"
     id="path14359-1-7-5-3-0-73-1-9-8-5-89"
     inkscape:connector-curvature="0"
     sodipodi:nodetypes="ccccc" />
</svg>
