<?xml version="1.0" encoding="UTF-8" standalone="no"?>
<!-- Created with Inkscape (http://www.inkscape.org/) -->

<svg
   xmlns:dc="http://purl.org/dc/elements/1.1/"
   xmlns:cc="http://creativecommons.org/ns#"
   xmlns:rdf="http://www.w3.org/1999/02/22-rdf-syntax-ns#"
   xmlns:svg="http://www.w3.org/2000/svg"
   xmlns="http://www.w3.org/2000/svg"
   xmlns:sodipodi="http://sodipodi.sourceforge.net/DTD/sodipodi-0.dtd"
   xmlns:inkscape="http://www.inkscape.org/namespaces/inkscape"
   version="1.1"
   id="svg12949"
   width="192"
   height="426.23999"
   viewBox="0 0 192 426.23999"
   sodipodi:docname="er22my03.008.svg"
   inkscape:version="0.92.2 5c3e80d, 2017-08-06">
  <metadata
     id="metadata12955">
    <rdf:RDF>
      <cc:Work
         rdf:about="">
        <dc:format>image/svg+xml</dc:format>
        <dc:type
           rdf:resource="http://purl.org/dc/dcmitype/StillImage" />
        <dc:title></dc:title>
      </cc:Work>
    </rdf:RDF>
  </metadata>
  <defs
     id="defs12953" />
  <sodipodi:namedview
     pagecolor="#ffffff"
     bordercolor="#666666"
     borderopacity="1"
     objecttolerance="10"
     gridtolerance="10"
     guidetolerance="10"
     inkscape:pageopacity="0"
     inkscape:pageshadow="2"
     inkscape:window-width="1280"
     inkscape:window-height="756"
     id="namedview12951"
     showgrid="false"
     inkscape:zoom="2.3162071"
     inkscape:cx="72.457788"
     inkscape:cy="399.9501"
     inkscape:window-x="0"
     inkscape:window-y="0"
     inkscape:window-maximized="0"
     inkscape:current-layer="svg12949" />
  <path
     style="fill:none;stroke:#000000;stroke-width:1;stroke-linecap:butt;stroke-linejoin:miter;stroke-miterlimit:4;stroke-dasharray:none;stroke-opacity:1"
     d="m 2.1569995,2.6350119 -0.002,421.6034781 H 187.42436 l 0.002,-421.6034781 z"
     id="path14359-1-7-5-3-0-73-1-9-8-5-1"
     inkscape:connector-curvature="0"
     sodipodi:nodetypes="ccccc" />
  <path
     style="fill:none;stroke:#000000;stroke-width:1;stroke-linecap:round;stroke-linejoin:round;stroke-miterlimit:4;stroke-dasharray:none;stroke-opacity:1"
     d="m 2.1005987,63.861437 184.9155913,0.002"
     id="path14359-1-7-5-3-0-73-1-9-8-5"
     inkscape:connector-curvature="0"
     sodipodi:nodetypes="cc" />
  <path
     style="fill:none;stroke:#000000;stroke-width:1;stroke-linecap:round;stroke-linejoin:round;stroke-miterlimit:4;stroke-dasharray:none;stroke-opacity:1"
     d="M 187.34302,373.4803 2.5134338,373.4783"
     id="path14359-1-7-5-3-0-73-1-9-8-5-8"
     inkscape:connector-curvature="0"
     sodipodi:nodetypes="cc" />
  <path
     style="fill:none;stroke:#000000;stroke-width:1;stroke-linecap:round;stroke-linejoin:round;stroke-miterlimit:4;stroke-dasharray:none;stroke-opacity:1"
     d="m 2.4063378,305.40598 184.7435822,0.002"
     id="path14359-1-7-5-3-0-73-1-9-8-5-5"
     inkscape:connector-curvature="0"
     sodipodi:nodetypes="cc" />
  <path
     style="fill:none;stroke:#000000;stroke-width:0.5;stroke-linecap:butt;stroke-linejoin:miter;stroke-miterlimit:4;stroke-dasharray:none;stroke-opacity:1"
     d="m 112.3265,390.81393 -0.002,5.8695 H 53.722113 l 0.002,-5.8695 z"
     id="path14359-1-7-5-3-0-73-1-9-8-5-9"
     inkscape:connector-curvature="0"
     sodipodi:nodetypes="ccccc" />
  <path
     style="fill:none;stroke:#000000;stroke-width:0.5;stroke-linecap:butt;stroke-linejoin:miter;stroke-miterlimit:4;stroke-dasharray:none;stroke-opacity:1"
     d="m 82.877941,390.94065 -0.002,5.61606"
     id="path14359-1-7-5-3-0-73-1-9-8-5-9-3"
     inkscape:connector-curvature="0"
     sodipodi:nodetypes="cc" />
  <path
     style="fill:none;stroke:#000000;stroke-width:0.5;stroke-linecap:butt;stroke-linejoin:miter;stroke-miterlimit:4;stroke-dasharray:none;stroke-opacity:1"
     d="m 53.702923,393.74768 29.194208,0.002"
     id="path14359-1-7-5-3-0-73-1-9-8-5-9-37"
     inkscape:connector-curvature="0"
     sodipodi:nodetypes="cc" />
  <path
     style="fill:none;stroke:#000000;stroke-width:0.5;stroke-linecap:butt;stroke-linejoin:miter;stroke-miterlimit:4;stroke-dasharray:none;stroke-opacity:1"
     d="m 89.919368,408.08966 -0.002,6.36936 -36.169286,0 0.002,-6.36936 z"
     id="path14359-1-7-5-3-0-73-1-9-8-5-9-7"
     inkscape:connector-curvature="0"
     sodipodi:nodetypes="ccccc" />
  <path
     style="fill:none;stroke:#000000;stroke-width:0.5;stroke-linecap:butt;stroke-linejoin:miter;stroke-miterlimit:4;stroke-dasharray:none;stroke-opacity:1"
     d="m 71.452782,408.21638 -0.002,6.11592"
     id="path14359-1-7-5-3-0-73-1-9-8-5-9-3-3"
     inkscape:connector-curvature="0"
     sodipodi:nodetypes="cc" />
  <path
     style="fill:none;stroke:#000000;stroke-width:0.5;stroke-linecap:butt;stroke-linejoin:miter;stroke-miterlimit:4;stroke-dasharray:none;stroke-opacity:1"
     d="m 53.728902,411.27334 17.74307,0.002"
     id="path14359-1-7-5-3-0-73-1-9-8-5-9-37-2"
     inkscape:connector-curvature="0"
     sodipodi:nodetypes="cc" />
  <path
     style="fill:none;stroke:#000000;stroke-width:3;stroke-linecap:round;stroke-linejoin:miter;stroke-miterlimit:4;stroke-dasharray:none;stroke-opacity:1"
     d="m 45.661054,325.13226 -0.002,14.27638 h -27.07373 l 0.002,-14.27638 z"
     id="path14359-1-7-5-3-0-73-1-9-8-5-89-0"
     inkscape:connector-curvature="0"
     sodipodi:nodetypes="ccccc" />
  <text
     xml:space="preserve"
     style="font-style:normal;font-variant:normal;font-weight:normal;font-stretch:normal;font-size:13.33333302px;line-height:14px;font-family:Charter;-inkscape-font-specification:Charter;text-align:center;letter-spacing:0.05px;word-spacing:0px;text-anchor:middle;fill:#000000;fill-opacity:1;stroke:none"
     x="96.703773"
     y="23.033165"
     id="text7752"><tspan
       sodipodi:role="line"
       id="tspan7750"
       x="96.728775"
       y="23.033165">Map 8</tspan><tspan
       sodipodi:role="line"
       x="96.728775"
       y="37.033165"
       id="tspan7754">Laysan Island</tspan></text>
  <text
     xml:space="preserve"
     style="font-style:italic;font-variant:normal;font-weight:normal;font-stretch:normal;font-size:13.33333302px;line-height:14px;font-family:Charter;-inkscape-font-specification:'Charter Italic';text-align:start;letter-spacing:0px;word-spacing:0px;text-anchor:start;fill:#000000;fill-opacity:1;stroke:none"
     x="43.385818"
     y="52.106136"
     id="text7752-7"><tspan
       sodipodi:role="line"
       x="43.385818"
       y="52.106136"
       id="tspan7754-9">Pritchardia remota</tspan></text>
  <text
     xml:space="preserve"
     style="font-style:normal;font-variant:normal;font-weight:normal;font-stretch:normal;font-size:12px;line-height:14px;font-family:Charter;-inkscape-font-specification:Charter;text-align:start;letter-spacing:-0.2px;word-spacing:0px;text-anchor:start;fill:#000000;fill-opacity:1;stroke:none"
     x="52.280079"
     y="336.98434"
     id="text7752-0"><tspan
       sodipodi:role="line"
       x="52.280079"
       y="336.98434"
       id="tspan7754-5">Critical Habitat Unit</tspan></text>
  <text
     xml:space="preserve"
     style="font-style:normal;font-variant:normal;font-weight:normal;font-stretch:normal;font-size:8px;line-height:14px;font-family:Charter;-inkscape-font-specification:Charter;text-align:start;letter-spacing:-0.30000001px;word-spacing:0px;text-anchor:start;fill:#000000;fill-opacity:1;stroke:none"
     x="100.76118"
     y="405.99158"
     id="text7752-0-1"><tspan
       sodipodi:role="line"
       x="100.76118"
       y="405.99158"
       id="tspan7754-5-4">Kilometers</tspan></text>
  <text
     xml:space="preserve"
     style="font-style:normal;font-variant:normal;font-weight:normal;font-stretch:normal;font-size:8px;line-height:14px;font-family:Charter;-inkscape-font-specification:Charter;text-align:start;letter-spacing:-0.30000001px;word-spacing:0px;text-anchor:start;fill:#000000;fill-opacity:1;stroke:none"
     x="123.37233"
     y="388.32364"
     id="text7752-0-1-2"><tspan
       sodipodi:role="line"
       x="123.37233"
       y="388.32364"
       id="tspan7754-5-4-4">Miles</tspan></text>
  <text
     xml:space="preserve"
     style="font-style:normal;font-variant:normal;font-weight:normal;font-stretch:normal;font-size:8px;line-height:14px;font-family:Charter;-inkscape-font-specification:Charter;text-align:start;letter-spacing:-0.30000001px;word-spacing:0px;text-anchor:start;fill:#000000;fill-opacity:1;stroke:none"
     x="106.95609"
     y="387.87497"
     id="text7752-0-1-0"><tspan
       sodipodi:role="line"
       x="106.95609"
       y="387.87497"
       id="tspan7754-5-4-6">0.5</tspan></text>
  <text
     xml:space="preserve"
     style="font-style:normal;font-variant:normal;font-weight:normal;font-stretch:normal;font-size:8px;line-height:14px;font-family:Charter;-inkscape-font-specification:Charter;text-align:start;letter-spacing:-0.30000001px;word-spacing:0px;text-anchor:start;fill:#000000;fill-opacity:1;stroke:none"
     x="84.982018"
     y="405.79059"
     id="text7752-0-1-0-9"><tspan
       sodipodi:role="line"
       x="84.982018"
       y="405.79059"
       id="tspan7754-5-4-6-4">0.5</tspan></text>
  <text
     xml:space="preserve"
     style="font-style:normal;font-variant:normal;font-weight:normal;font-stretch:normal;font-size:8px;line-height:14px;font-family:Charter;-inkscape-font-specification:Charter;text-align:start;letter-spacing:-0.30000001px;word-spacing:0px;text-anchor:start;fill:#000000;fill-opacity:1;stroke:none"
     x="75.863342"
     y="387.85025"
     id="text7752-0-1-0-1"><tspan
       sodipodi:role="line"
       x="75.863342"
       y="387.85025"
       id="tspan7754-5-4-6-42">0.25</tspan></text>
  <text
     xml:space="preserve"
     style="font-style:normal;font-variant:normal;font-weight:normal;font-stretch:normal;font-size:8px;line-height:14px;font-family:Charter;-inkscape-font-specification:Charter;text-align:start;letter-spacing:-0.30000001px;word-spacing:0px;text-anchor:start;fill:#000000;fill-opacity:1;stroke:none"
     x="64.718178"
     y="405.62878"
     id="text7752-0-1-0-7"><tspan
       sodipodi:role="line"
       x="64.718178"
       y="405.62878"
       id="tspan7754-5-4-6-44">0.25</tspan></text>
  <text
     xml:space="preserve"
     style="font-style:normal;font-variant:normal;font-weight:normal;font-stretch:normal;font-size:8px;line-height:14px;font-family:Charter;-inkscape-font-specification:Charter;text-align:start;letter-spacing:-0.30000001px;word-spacing:0px;text-anchor:start;fill:#000000;fill-opacity:1;stroke:none"
     x="51.745041"
     y="387.93781"
     id="text7752-0-1-0-6"><tspan
       sodipodi:role="line"
       x="51.745041"
       y="387.93781"
       id="tspan7754-5-4-6-47">0</tspan></text>
  <text
     xml:space="preserve"
     style="font-style:normal;font-variant:normal;font-weight:normal;font-stretch:normal;font-size:8px;line-height:14px;font-family:Charter;-inkscape-font-specification:Charter;text-align:start;letter-spacing:-0.30000001px;word-spacing:0px;text-anchor:start;fill:#000000;fill-opacity:1;stroke:none"
     x="51.757858"
     y="405.69608"
     id="text7752-0-1-0-8"><tspan
       sodipodi:role="line"
       x="51.757858"
       y="405.69608"
       id="tspan7754-5-4-6-8">0</tspan></text>
  <text
     xml:space="preserve"
     style="font-style:normal;font-variant:normal;font-weight:normal;font-stretch:normal;font-size:8px;line-height:14px;font-family:Charter;-inkscape-font-specification:Charter;text-align:start;letter-spacing:-0.30000001px;word-spacing:0px;text-anchor:start;fill:#000000;fill-opacity:1;stroke:none"
     x="29.120726"
     y="411.95114"
     id="text7752-0-1-0-4"><tspan
       sodipodi:role="line"
       x="29.120726"
       y="411.95114"
       id="tspan7754-5-4-6-7">N</tspan></text>
  <path
     style="fill:#000000;fill-opacity:1;stroke:#000000;stroke-width:0.5;stroke-linecap:round;stroke-linejoin:round;stroke-miterlimit:4;stroke-dasharray:none;stroke-opacity:1"
     d="m 31.688922,401.56023 5.82409,1.6529 -5.51024,-16.09335 0.21793,-0.6638 6.1415,17.49921 -5.82409,-1.6529 -6.12945,1.85647 0.3624,-1.10384 z"
     id="path14359-1-7-5-3-0-73-1-9-8-5-89-7"
     inkscape:connector-curvature="0"
     sodipodi:nodetypes="ccccccccc" />
  <path
     style="fill:none;stroke:#000000;stroke-width:0.5;stroke-linecap:round;stroke-linejoin:round;stroke-miterlimit:4;stroke-dasharray:none;stroke-opacity:1"
     d="m 37.513012,403.21313 -6.00578,-17.601 -5.94777,17.80457 6.12946,-1.85647 z"
     id="path14359-1-7-5-3-0-73-1-9-8-5-89"
     inkscape:connector-curvature="0"
     sodipodi:nodetypes="ccccc" />
  <path
     style="fill:none;stroke:#000000;stroke-width:1;stroke-linecap:round;stroke-linejoin:round;stroke-miterlimit:4;stroke-dasharray:none;stroke-opacity:1"
     d="M 48.044152,345.71867 37.417224,361.70794 26.909785,345.71867 16.05188,361.70794"
     id="path14359-1-7-5-3-0-73-1-9-8-5-3"
     inkscape:connector-curvature="0"
     sodipodi:nodetypes="cccc" />
  <path
     style="fill:none;stroke:#000000;stroke-width:1;stroke-linecap:round;stroke-linejoin:round;stroke-miterlimit:4;stroke-dasharray:none;stroke-opacity:1"
     d="m 91.160667,166.02033 1.177437,-2.43423 c 1.549205,-1.45387 2.128861,-4.02461 1.174437,-5.93346 -0.125854,-0.2517 -0.09695,-0.74997 -0.261208,-0.91423 -0.261038,-0.26103 -0.02592,-1.16196 -0.195906,-1.50194 -0.435601,-0.8712 -0.565208,-1.97934 -1.044833,-2.9386 -0.592721,-1.18544 -0.179732,-4.01637 -0.783625,-5.22416 -1.005673,-2.01134 -0.722779,-5.67682 0.522417,-6.92202 0.720552,-0.72055 -2.065714,-1.32999 -1.371344,-2.02436 0.472396,-0.4724 1.358185,0.69225 1.697854,0.52242 0.742097,-0.37105 -0.372103,-1.12985 -0.0653,-1.43665 0.268318,-0.26832 1.066864,0.10857 1.306041,-0.1306 0.440096,-0.4401 2.004068,-0.82864 2.612082,-1.43665 0.184756,-0.18475 1.511276,0.59238 1.763155,0.71832 1.067782,0.53389 3.118946,-0.73387 4.048726,0.19591 0.39767,0.39767 1.15629,0.50327 1.50195,0.84893 0.50387,0.50387 1.12026,0.98966 1.50194,1.37134 0.88455,0.88454 1.09131,2.26674 1.89376,3.0692 0.21299,0.21298 0,0.98745 0,1.24074 0,0.1117 -0.11005,1.8079 -0.2612,1.95906 -0.96167,0.96166 -1.0813,4.08519 -1.89376,4.89765 -0.34891,0.34891 -0.62218,0.88339 -0.97953,1.24074 -0.28623,0.28622 -0.0225,2.82828 0.1306,3.1345 0.4757,0.84869 0.4468,2.27272 0.58772,3.72222 0.0917,0.94373 0.83471,3.44679 1.30604,3.91812 0.77838,0.77838 1.00263,4.72485 1.56725,5.28947 0.0999,0.0999 1.5996,3.2645 1.82846,3.72221 0.18998,0.37998 -0.0116,1.29441 0.2612,1.56725 0.67297,0.67297 1.24654,10.60211 1.69786,12.40739 -0.58588,2.52752 3.21391,4.60822 2.08966,6.85672 -0.0588,0.11771 0.0255,0.43161 -0.0653,0.52241 -0.88715,0.88715 -2.02436,1.87063 -2.02436,3.46101 0,2.24685 1.266,4.74179 -0.39182,6.3996 -0.40163,0.40164 -0.32377,1.30331 -0.71832,1.69786 -0.59186,0.59186 -0.78291,0.58736 -1.56725,0.97953 -0.13553,0.0678 -0.0654,0.5225 -0.1959,0.65302 -0.59049,0.59049 -1.22647,0.83465 -1.89376,1.50195 -0.51814,0.51813 -1.46384,0.61491 -1.95906,1.11013 -0.30309,0.30309 -0.24305,2.51046 -0.52242,3.0692 -0.53281,1.06562 -1.05192,2.03145 -1.76316,2.74268 -0.37827,0.37828 -0.35241,1.13604 -0.71832,1.50195 -0.4424,0.4424 0.36864,1.98224 -0.1306,2.48148 -1.482664,1.48266 -1.88709,3.70887 -2.873293,5.68128 -0.646595,1.29319 -2.22027,3.13178 -2.22027,4.50584 -0.706744,0.81592 0.604965,2.92135 0,3.52631 -0.949349,0.94935 -0.754608,2.97488 -1.697853,3.91812 -0.828721,0.82872 -1.150652,2.19549 -2.024364,3.0692 -1.201244,1.20124 -2.435814,2.56642 -3.722217,3.85282 -1.29481,1.29481 -2.913034,1.8029 -4.048727,2.93859 -1.275819,1.27582 5.79023,-0.43546 4.505841,0.84893 -0.349474,0.34947 -1.329795,0.0238 -1.697853,0.39181 -0.371878,0.37188 -0.803645,0.60774 -1.110135,0.91423 -0.926811,0.92681 -2.013746,3.55365 -3.134499,4.11403 -0.588206,0.2941 -1.468289,-0.68668 -2.481478,0.32651 -0.477289,0.47729 -0.734168,0.86477 -1.240739,1.37134 -0.414743,0.41475 0.47145,0.50809 0.130604,0.84893 -0.222647,0.22265 -1.359128,0.0714 -1.632551,-0.0653 -0.548005,-0.274 -1.913034,0.37254 -2.350874,-0.0653 -0.483321,-0.48332 -1.467396,-0.42257 -2.024364,-0.97953 -0.827964,-0.82797 -2.100031,-1.18581 -2.938592,-2.02437 -0.933262,-0.93326 0.08332,-4.01945 0.587718,-5.02826 0.401592,-0.80318 -1.941132,-6.44697 -2.416175,-6.92201 -0.232978,-0.23298 0.0088,-0.84012 -0.195907,-1.04484 -0.08967,-0.0897 0.914229,-4.98223 0.914229,-5.94248 0,-0.66058 -0.119565,-1.54517 -0.391812,-2.08967 -0.298731,-0.59746 0.25783,-4.05548 -0.0653,-4.70175 -0.05202,-0.10403 -0.107584,-0.93725 0,-1.04483 0.757654,-1.97661 1.784921,-3.9371 2.154967,-5.81188 -0.0016,-1.17379 -0.215588,-4.00311 -0.783624,-4.76705 -0.13853,-0.13853 0.130604,-0.88442 0.130604,-1.11014 0,-0.22439 -0.234839,-1.59362 -0.0653,-1.76316 1.231932,-0.86365 1.482044,-2.15741 2.22027,-2.93859 0.531528,-1.87877 0.671282,-4.35755 0.39181,-6.3996 4.939335,4.20557 4.444062,-3.52983 6.268995,-5.35477 0.271448,-0.27144 -0.02673,-1.27931 0.261208,-1.56724 0.137781,-0.13778 -0.0653,-6.59832 -0.0653,-7.44444 0,-0.37535 -0.919363,-1.95393 -0.391812,-2.48148 0.835772,-0.83577 1.571267,-1.44066 2.285572,-2.15496 0.48185,-0.48185 0.57818,-1.29651 0.979531,-1.69786 0.226088,-0.22609 0.965069,0.0145 1.175437,-0.1959 0.430935,-0.43094 -0.32736,-2.02352 0.130604,-2.48148 0.238769,-0.23877 0.627162,-0.69247 0.848927,-0.91423 0.249834,-0.24983 0.765829,-0.17811 1.044832,-0.45712 0.159735,-0.15973 0.561217,-1.85495 0.457115,-1.95906 -0.0299,-0.0299 -0.2836,-0.43472 -0.130604,-0.58772 0.35885,-0.35885 0.74378,-0.61317 1.110135,-0.97953 0.301728,-0.30172 0.14986,-2.10892 0.65302,-2.61208 0.40617,-0.40617 1.341441,-0.36191 1.763156,-0.78362 0.69916,-0.69916 0.879411,-3.16291 1.827457,-3.8438 z"
     id="path14359-1-7-5-3-0-73-1-9-8-5-30"
     inkscape:connector-curvature="0"
     sodipodi:nodetypes="ccccccccccccccssccscsccsssccccsscscccsscscscccsccccscscccccscccscccccscccccsscccccccccsccc" />
  <path
     style="fill:none;stroke:#000000;stroke-width:2;stroke-linecap:round;stroke-linejoin:round;stroke-miterlimit:4;stroke-dasharray:none;stroke-opacity:1"
     d="m 23.680517,199.43276 -0.002,2.58618 c 0.154567,1.29378 -0.134209,2.17007 -0.584337,3.07033 -0.516237,1.03247 0.343419,2.32212 0,3.35238 -0.129512,0.38853 -0.06757,1.71715 -0.319274,1.96886 -0.601495,0.60149 -1.007825,3.24274 -1.915646,4.15056 -0.294992,0.295 -0.296894,0.93545 -0.585337,1.22389 -0.365931,0.36593 -0.617952,1.69078 -0.319274,2.28813 0.505707,1.01142 1.724435,0.76661 2.44777,1.48995 0.366958,0.36696 0.170489,0.92631 0.319275,1.22388 0.437537,0.87508 0.400004,1.99456 -0.21285,2.60741 -0.09933,0.0993 0.106425,0.38372 0.106425,0.4257 0,0.72357 0.159637,1.56713 0.159637,2.39456 0,0.40587 0.520855,2.13976 0.159637,2.50098 -0.212849,0.21285 0.159637,1.01104 -0.05321,1.22389 -0.911321,0.91132 -1.370658,2.80739 -2.181708,3.61844 -0.150887,0.15089 0.0087,1.2588 0.05321,1.43673 -0.02983,0.98565 -0.429049,1.81258 -0.957823,2.34135 -0.80431,0.80431 -1.302781,2.04775 -2.128496,2.87347 -0.651962,1.56925 -2.387543,3.80939 -3.618443,4.25699 -1.050028,0.38184 -1.423873,1.63672 -2.128496,2.34135 -0.199539,0.19954 0.02218,1.8314 0.106425,1.91564 0.605629,0.60563 -0.3562,2.83655 0.319274,3.51202 0.437642,0.43764 0.801689,1.39053 1.170673,2.1285 0.544184,1.08836 2.308523,2.84064 3.192744,3.72486 0.776446,0.77645 0.920125,1.98438 1.702796,2.76705 1.163659,1.16366 2.226989,2.12057 3.192744,3.08632 0.707253,1.11857 1.691726,1.36035 3.724868,1.7028 1.471914,1.47191 -2.910925,1.13321 -1.809221,2.23492 0.974827,0.97482 2.18723,1.86795 3.299168,2.97989 0.496649,0.49665 -0.283799,2.2704 0.21285,2.76704 0.41212,0.41213 1.09725,1.09725 1.489947,1.48995 0.657018,0.65702 1.211036,1.95601 2.022071,2.76705 0.373015,0.37301 1.056357,0.0985 1.383522,0.4257 0.963879,0.96387 1.903964,1.69111 2.87347,2.66062 0.54896,0.54896 -0.286987,2.2672 0.212849,2.76704 1.202587,0.82429 5.253888,2.59142 5.959789,3.19275 0.823041,-0.70776 12.066418,-1.10467 12.238851,-1.2771 0.496649,-0.49665 1.206148,-0.78045 1.702797,-1.2771 0.086,-0.086 0.399449,-0.77122 0.532124,-0.63855 0.436146,0.43615 -0.436146,0.94738 0,1.38352 0.567336,0.56734 12.652875,-0.41402 12.8774,-0.63855 0.62321,-0.62321 1.34921,-1.24278 1.915646,-1.80922 0.401301,-0.4013 1.515725,-0.23863 1.915647,-0.63855 1.090072,-1.09007 4.929285,1.24336 5.959788,0.21285 1.138908,-1.1389 2.310296,-1.56532 3.405594,-2.66062 0.540618,-0.54062 13.051841,-0.068 14.686621,-1.70279 1.201764,-1.20177 2.262172,-2.58145 3.405594,-3.72487 0.869162,-0.86917 2.474522,-1.30385 3.299172,-2.1285 1.25093,-1.25093 2.06481,-2.91621 3.29916,-4.15056 0.29349,-0.29349 0.33718,-1.08215 0.63855,-1.38353 1.79764,-1.03592 4.25514,-4.22318 5.00197,-5.00196 2.42263,-3.01394 2.20888,-9.44576 4.78911,-12.026 0.4093,-0.4093 0.3806,-1.55127 0.8514,-2.02207 0.88794,-0.88795 0.47585,-2.92362 1.38353,-3.8313 1.06161,-1.06161 1.46694,-2.21191 2.66062,-3.40559 0.98657,-0.98658 1.78116,-2.63256 2.97989,-3.83129 1.32345,-1.32345 2.78452,-2.14022 3.29917,-3.61845 0.45473,-1.30613 0.5208,-5.51136 0.95782,-7.76901 0.4671,-0.9342 0.30711,-5.84119 0.74497,-6.27906 1.0538,-1.0538 1.98993,-7.99186 2.44778,-9.36538 1.27441,-4.01862 3.30636,-13.73599 5.42766,-15.8573 0.72805,-0.72804 1.35267,-4.43898 2.87347,-5.95978 1.06533,-1.06534 0.87241,-3.32018 2.02207,-4.46985 0.88324,-0.88323 1.79378,-1.79378 2.44777,-2.44777 0.98809,-0.98808 1.11341,-2.81072 1.48995,-4.15056 0.52368,-1.86342 0.16769,-4.29596 1.2771,-5.21482 1.80703,-1.80704 2.48056,-8.2275 5.21481,-10.96175 0.50793,-0.50794 0.001,-1.81045 0.4257,-2.23492 0.40577,-0.40578 1.48472,-0.9526 1.91564,-1.38353 0.78967,-0.78966 1.28563,-0.85992 2.1285,-1.70279 0.56074,-0.56074 1.24237,-1.45522 1.80922,-2.02207 0.21697,-0.21697 0.12488,-0.86985 0.31928,-1.06425 0.28468,-0.28468 1.28812,-0.011 1.59637,-0.31927 1.10846,-1.10847 2.83924,-1.24288 3.93772,-2.34135 0.70532,-0.70532 0.74497,-7.61197 0.74497,-8.72683 -0.74095,-3.22228 1.05022,-9.45779 2.23492,-11.70673 0.48395,-0.91869 0.76588,-2.46867 1.48995,-3.19274 1.95377,-1.95377 2.40584,-6.15007 1.06425,-8.83326 -0.411,-0.822 -0.007,-2.03663 -0.4257,-2.87347 -0.69728,-1.39455 -0.63855,-3.32881 -0.63855,-5.10839 0,-0.10093 0.0643,-0.57428 0,-0.63855 -1.29632,-1.29631 -2.97399,-1.69689 -4.04414,-2.76705 -1.38799,-1.38798 -1.43967,-3.67458 -2.87347,-5.10839 -0.67286,-0.672852 -1.94532,-0.280891 -2.87347,-0.744969 -1.56411,-0.782055 -3.10576,-1.446454 -4.68269,-2.234921 -0.93279,-0.466391 -2.82096,-0.05391 -3.51202,-0.744973 -0.92059,-0.920587 -2.99754,-0.762621 -3.93772,-1.702797 -0.68403,-1.498877 -2.24991,-2.876664 -4.78912,-4.256992 -1.00055,-1.000557 -3.48006,-1.457992 -4.78911,-2.767045 -0.3749,-0.374903 -2.38342,0.254926 -2.5542,0.4257 -1.05116,1.051161 -10.29126,0.707729 -11.70672,0 -1.58522,-0.792606 -3.44332,-1.101974 -4.46984,-2.128496 -1.34994,-1.349939 -3.97071,-3.132789 -5.42767,-3.618443 -1.40611,-0.567655 -3.71407,-0.414906 -4.57627,-1.277098 -0.46501,-0.465014 -1.46824,0.43655 -1.91564,0.21285 -1.21029,-0.605143 -1.5778,-1.65887 -3.4056,-0.744974 -0.31359,0.156798 -0.96971,0.0119 -1.17067,0.21285 -1.60213,1.602131 -5.580932,2.17534 -7.130459,3.724868 -1.488053,1.488052 -3.048186,4.431708 -4.682691,6.066213 -0.544683,0.544683 -1.098689,0.67299 -1.596372,1.170673 -1.114643,1.114643 -2.046003,3.216675 -2.979894,4.150567 -1.562606,1.562605 -4.680272,1.700377 -6.385488,3.405593 -0.18347,0.18347 -0.961087,-0.103161 -1.170673,0.106425 -0.701141,0.701139 -1.381896,1.488319 -2.022071,2.128499 -0.636331,0.63633 -2.096078,0.60613 -2.873469,1.38352 -1.705815,1.70581 -11.264246,1.71119 -13.622374,0.53212 -1.657421,-0.82871 -5.739957,1.37654 -6.491913,2.1285 -0.964028,0.96403 -2.214061,-1.29796 -2.979894,-0.53212 -1.385913,1.38591 -3.24001,1.75006 -4.576266,3.08631 -0.552607,0.55261 -2.066228,-0.38154 -2.66062,0.21285 -1.622172,1.62218 -4.897696,2.77351 -5.534089,4.68269 -0.601648,0.57128 -3.123267,6.56139 -2.022071,7.66259 1.144756,1.14476 0.764512,3.63798 2.022071,4.89554 1.040461,1.04046 2.207945,1.78225 3.405593,2.97989 0.897216,0.89722 -0.300875,3.22955 0.319275,4.46985 0.226908,0.45381 -0.114488,1.15454 0.106424,1.59637 1.543657,3.08731 -0.3459,9.60486 -2.23492,11.49388 -2.245334,2.24533 -5.024998,3.42862 -7.024037,5.42766 -0.304654,0.30465 -0.270979,1.12238 -0.532124,1.38352 -1.460652,1.46065 -1.76364,3.57286 -3.086319,4.89554 -0.661966,0.66197 -1.05906,1.48476 -1.809221,2.23492 -0.974433,0.97444 -2.776411,1.39289 -4.044142,2.66062 -0.277548,0.27755 0.744973,5.4912 0.744973,6.38549 0,1.08688 1.321378,8.68255 0.744974,9.25896 -0.385582,0.38558 0.04711,1.50214 -0.21285,2.02207 -2.307305,4.61461 -1.304239,13.48703 -0.584336,18.92762 z"
     id="path14359-1-7-5-3-0-73-1-9-8-5-4"
     inkscape:connector-curvature="0"
     sodipodi:nodetypes="ccccccccsccssscccccsccsccccccscccccccccccccccsscssccccscsscccccccsccccssscccssccsccccccccccccc" />
</svg>
