<?xml version="1.0" encoding="UTF-8" standalone="no"?>
<!-- Created with Inkscape (http://www.inkscape.org/) -->

<svg
   xmlns:dc="http://purl.org/dc/elements/1.1/"
   xmlns:cc="http://creativecommons.org/ns#"
   xmlns:rdf="http://www.w3.org/1999/02/22-rdf-syntax-ns#"
   xmlns:svg="http://www.w3.org/2000/svg"
   xmlns="http://www.w3.org/2000/svg"
   xmlns:sodipodi="http://sodipodi.sourceforge.net/DTD/sodipodi-0.dtd"
   xmlns:inkscape="http://www.inkscape.org/namespaces/inkscape"
   version="1.1"
   id="svg9260"
   width="192"
   height="290.56"
   viewBox="0 0 192 290.56"
   sodipodi:docname="er22my03.004.svg"
   inkscape:version="0.92.2 5c3e80d, 2017-08-06">
  <metadata
     id="metadata9266">
    <rdf:RDF>
      <cc:Work
         rdf:about="">
        <dc:format>image/svg+xml</dc:format>
        <dc:type
           rdf:resource="http://purl.org/dc/dcmitype/StillImage" />
        <dc:title></dc:title>
      </cc:Work>
    </rdf:RDF>
  </metadata>
  <defs
     id="defs9264" />
  <sodipodi:namedview
     pagecolor="#ffffff"
     bordercolor="#666666"
     borderopacity="1"
     objecttolerance="10"
     gridtolerance="10"
     guidetolerance="10"
     inkscape:pageopacity="0"
     inkscape:pageshadow="2"
     inkscape:window-width="1280"
     inkscape:window-height="756"
     id="namedview9262"
     showgrid="false"
     inkscape:zoom="1.5166805"
     inkscape:cx="89.534283"
     inkscape:cy="145.97654"
     inkscape:window-x="0"
     inkscape:window-y="0"
     inkscape:window-maximized="0"
     inkscape:current-layer="svg9260" />
  <path
     style="fill:none;stroke:#000000;stroke-width:1;stroke-linecap:butt;stroke-linejoin:miter;stroke-miterlimit:4;stroke-dasharray:none;stroke-opacity:1"
     d="M 2.7921174,3.2091949 2.7901174,287.4542 H 188.05946 l 0.002,-284.2450051 z"
     id="path14359-1-7-5-3-0-73-1-9-8-5-1"
     inkscape:connector-curvature="0"
     sodipodi:nodetypes="ccccc" />
  <path
     style="fill:none;stroke:#000000;stroke-width:1;stroke-linecap:round;stroke-linejoin:round;stroke-miterlimit:4;stroke-dasharray:none;stroke-opacity:1"
     d="m 2.9787874,62.810373 184.9155826,0.002"
     id="path14359-1-7-5-3-0-73-1-9-8-5"
     inkscape:connector-curvature="0"
     sodipodi:nodetypes="cc" />
  <path
     style="fill:none;stroke:#000000;stroke-width:1;stroke-linecap:round;stroke-linejoin:round;stroke-miterlimit:4;stroke-dasharray:none;stroke-opacity:1"
     d="M 187.80836,238.55614 2.9787874,238.55414"
     id="path14359-1-7-5-3-0-73-1-9-8-5-8"
     inkscape:connector-curvature="0"
     sodipodi:nodetypes="cc" />
  <path
     style="fill:none;stroke:#000000;stroke-width:1;stroke-linecap:round;stroke-linejoin:round;stroke-miterlimit:4;stroke-dasharray:none;stroke-opacity:1"
     d="m 2.9787774,187.63847 184.7435726,0.002"
     id="path14359-1-7-5-3-0-73-1-9-8-5-5"
     inkscape:connector-curvature="0"
     sodipodi:nodetypes="cc" />
  <path
     style="fill:none;stroke:#000000;stroke-width:0.5;stroke-linecap:butt;stroke-linejoin:miter;stroke-miterlimit:4;stroke-dasharray:none;stroke-opacity:1"
     d="m 132.3386,255.36748 -0.002,5.8695 H 54.708597 l 0.002,-5.8695 z"
     id="path14359-1-7-5-3-0-73-1-9-8-5-9"
     inkscape:connector-curvature="0"
     sodipodi:nodetypes="ccccc" />
  <path
     style="fill:none;stroke:#000000;stroke-width:0.5;stroke-linecap:butt;stroke-linejoin:miter;stroke-miterlimit:4;stroke-dasharray:none;stroke-opacity:1"
     d="m 93.740387,255.4942 -0.002,5.61606"
     id="path14359-1-7-5-3-0-73-1-9-8-5-9-3"
     inkscape:connector-curvature="0"
     sodipodi:nodetypes="cc" />
  <path
     style="fill:none;stroke:#000000;stroke-width:0.5;stroke-linecap:butt;stroke-linejoin:miter;stroke-miterlimit:4;stroke-dasharray:none;stroke-opacity:1"
     d="m 54.689407,258.30123 39.07017,0.002"
     id="path14359-1-7-5-3-0-73-1-9-8-5-9-37"
     inkscape:connector-curvature="0"
     sodipodi:nodetypes="cc" />
  <path
     style="fill:none;stroke:#000000;stroke-width:0.5;stroke-linecap:butt;stroke-linejoin:miter;stroke-miterlimit:4;stroke-dasharray:none;stroke-opacity:1"
     d="m 103.1458,272.89314 -0.002,5.8695 H 54.620877 l 0.002,-5.8695 z"
     id="path14359-1-7-5-3-0-73-1-9-8-5-9-7"
     inkscape:connector-curvature="0"
     sodipodi:nodetypes="ccccc" />
  <path
     style="fill:none;stroke:#000000;stroke-width:0.5;stroke-linecap:butt;stroke-linejoin:miter;stroke-miterlimit:4;stroke-dasharray:none;stroke-opacity:1"
     d="m 78.882927,273.01986 -0.002,5.61606"
     id="path14359-1-7-5-3-0-73-1-9-8-5-9-3-3"
     inkscape:connector-curvature="0"
     sodipodi:nodetypes="cc" />
  <path
     style="fill:none;stroke:#000000;stroke-width:0.5;stroke-linecap:butt;stroke-linejoin:miter;stroke-miterlimit:4;stroke-dasharray:none;stroke-opacity:1"
     d="m 54.601697,275.82689 24.30042,0.002"
     id="path14359-1-7-5-3-0-73-1-9-8-5-9-37-2"
     inkscape:connector-curvature="0"
     sodipodi:nodetypes="cc" />
  <path
     style="fill:none;stroke:#000000;stroke-width:3;stroke-linecap:round;stroke-linejoin:miter;stroke-miterlimit:4;stroke-dasharray:none;stroke-opacity:1"
     d="m 45.979777,207.80567 -0.002,14.27638 h -27.07373 l 0.002,-14.27638 z"
     id="path14359-1-7-5-3-0-73-1-9-8-5-89-0"
     inkscape:connector-curvature="0"
     sodipodi:nodetypes="ccccc" />
  <path
     style="fill:#000000;fill-opacity:1;stroke:#d10000;stroke-width:0.5;stroke-linecap:round;stroke-linejoin:round;stroke-miterlimit:4;stroke-dasharray:none;stroke-opacity:1"
     d="m 67.222056,143.68956 -3.59512,0.75063 c 0.74846,1.57866 1.63354,3.11178 2.09186,4.78716 0.37693,-1.76917 0.52137,-3.88418 1.50326,-5.53779 z"
     id="path14359-1-7-5-3-0-73-1-9-8-5-89-04"
     inkscape:connector-curvature="0"
     sodipodi:nodetypes="cccc" />
  <path
     style="fill:none;stroke:#000000;stroke-width:2;stroke-linecap:round;stroke-linejoin:round;stroke-miterlimit:4;stroke-dasharray:none;stroke-opacity:1"
     d="m 16.968336,79.198034 c 0,1.388965 -0.0836,2.800405 -0.11852,4.26674 0.0924,0.342789 0.0977,0.748508 0.23704,1.027178 0.27208,0.544162 0.76295,1.079008 1.1457,1.461754 0.29122,0.291222 0.0623,0.954321 0.23704,1.303726 0.28265,0.56529 0.29566,1.262931 0.5531,1.777809 0.17659,0.353188 0.5681,0.701639 0.75063,1.066685 0.0926,0.185265 0.12929,0.484853 0.23704,0.592603 0.17493,0.174932 -0.18517,2.027214 -0.15803,2.054356 0.71564,0.715636 1.82527,1.774292 1.81732,2.370411 l -0.0395,2.963018 c -0.008,0.57576 0.6493,1.981796 0.71112,3.674126 0.36552,2.50886 2.02893,5.72578 1.26422,8.0199 -0.005,1.05942 -0.56475,2.47274 -1.02718,3.39759 -0.16139,0.32279 0,1.13206 0,1.50126 0,0.0818 -0.0521,0.4615 0,0.51359 0.26249,0.26248 0.40421,0.92693 0.59261,1.30372 0.21111,0.42223 0.81916,0.97719 1.10619,1.26422 0.18263,0.18264 0.14973,0.89207 0.27655,1.1457 0.13527,0.27055 0.45037,0.43852 0.63211,0.71113 0.69445,1.04167 1.27395,1.96504 1.65928,3.12104 0.47106,1.41315 0.65956,3.07278 1.02718,4.54329 0.14206,0.56824 0.0249,1.35344 0.27655,1.85682 0.16365,0.3273 -0.78855,4.54011 -0.98767,4.93836 -0.55212,1.10424 1.40261,4.91896 1.61978,5.57046 0.40786,0.60298 0.81774,1.26803 1.06669,2.01485 0.19216,0.5765 0.65116,1.02578 0.90865,1.54077 0.73595,1.4719 1.21417,3.46606 2.40992,4.66181 0.22029,0.22029 0.24521,0.67978 0.47408,0.90866 0.92515,0.92514 1.88256,1.64551 3.04203,2.80498 0.61238,0.61238 2.23041,0.37358 3.20006,1.34323 0.48346,0.48346 0.0256,1.47348 0.27654,1.97535 0.50148,1.00295 1.00721,0.4541 1.61979,1.06668 0.38452,0.38453 0.24533,1.90463 0.67161,2.33091 0.16196,0.16195 0.21266,0.41019 0.35556,0.55309 0.31289,0.31289 0.83784,0.6403 1.18521,0.98767 0.19108,0.19109 0.18757,0.58264 0.39507,0.79014 0.15917,0.15918 0.35395,0.3096 0.39507,0.47408 0.71359,1.45693 1.02603,2.44828 2.09386,3.51611 0.41001,0.41001 1.14473,0.47311 1.54077,0.86915 0.39792,0.39792 0.59858,1.03914 0.82964,1.50127 0.244,0.488 -0.24963,1.1331 0.15803,1.54076 0.31019,0.31019 0.98941,0.39856 1.22471,0.86915 0.68986,1.37972 1.0385,2.21805 2.37041,2.884 1.32806,0.66403 1.93584,-2.06528 1.93584,-3.00252 0,-0.25068 0.27627,-0.55255 0.39507,-0.79013 0.19778,-0.39557 0.44775,-1.04036 0.75063,-1.34324 0.71155,-0.71155 2.97597,-2.80561 2.44942,-4.38526 -0.0382,-0.1145 0.0371,-0.55555 -0.0395,-0.63211 -0.1602,-0.1602 -0.74889,-1.61804 -1.10619,-1.97534 -0.63519,-0.63519 -1.61692,-0.94531 -2.21238,-1.54077 -0.4932,-0.49319 -0.01,-1.44154 -0.31606,-2.05435 -0.33732,-0.67465 -0.57643,-1.35039 -0.90866,-2.01485 -0.13789,-0.2758 -0.44313,-0.56165 -0.63211,-0.75063 -0.33678,-0.33679 -0.6266,-1.21371 -0.86915,-1.6988 -1.18824,-2.37649 -2.884,-3.84707 -2.884,-6.55814 0,-0.77518 0.12942,-1.31462 0.5531,-1.7383 0.0839,-0.0839 0.074,-0.70616 0.51359,-1.1457 0.496,-0.496 -0.56709,-1.94859 0.27655,-2.37041 0.74279,-0.3714 3.08559,0.4751 3.87167,0.67162 3.25364,0.81341 7.23687,0.95528 9.36312,3.08153 0.23296,0.23296 0.72125,0.4052 0.94817,0.63211 0.0523,0.0523 0.23425,0.0395 0.31605,0.0395 0.83597,0 0.18027,-1.83624 1.30373,-1.46175 0.66943,-0.20458 3.00683,-1.58458 3.55562,-2.13336 0.16788,-0.16789 0.61011,-0.057 0.79013,-0.23705 0.21295,-0.21294 1.09244,0.17179 1.30373,-0.0395 0.18305,-0.18306 0.34273,-0.65879 0.5926,-0.90866 0.22805,-0.22805 0.63755,-0.361 0.86915,-0.5926 0.40438,-0.40438 1.25945,-0.42981 1.65929,-0.82965 0.43831,-0.4383 0.17254,-4.51829 0.90866,-5.25441 0.75863,-0.75863 2.92505,1.10312 3.59512,-0.23704 0.1512,-0.30238 -0.0642,-0.70608 -0.15802,-0.98767 -0.20516,-0.61548 0.21703,-1.78756 0.5926,-1.97534 0.37909,-0.18955 0.85015,0.23854 0.94816,0.43457 0.27558,0.55116 -0.22417,1.17144 0.0395,1.6988 0.25407,0.50814 0.50068,0.89575 0.86915,1.26422 0.0809,0.0809 0.39749,1.54559 0.59261,1.93583 0.44354,0.88708 1.80537,1.29178 2.37041,1.85682 0.55103,0.55104 0.0141,1.59434 0.51359,2.09387 0.33635,0.33634 1.12096,0.13328 1.46175,0.47408 0.30826,0.88682 0.87631,3.7796 1.42225,4.0297 0.38528,0.75292 0.66003,1.45017 1.22471,2.01485 0.79081,0.79081 2.29451,0.77194 3.27907,1.26422 0.23434,0.11717 0.63276,-0.0787 0.86915,0.0395 0.35124,0.17563 0.84518,0.071 1.22471,0.19754 2.27914,0.75971 6.321404,0.6122 8.414954,-0.43458 0.12599,-0.063 0.45748,-0.0229 0.5531,-0.11852 0.45715,-0.45716 1.30374,-0.75064 1.93583,-1.06668 0.72494,-0.36247 0.76784,-2.2691 1.02718,-2.52844 0.31432,-0.31432 0.17836,-1.008 0.51359,-1.34323 0.50837,-0.50837 2.44413,-2.96125 2.68646,-3.04203 2.13862,-0.73289 2.64206,3.85695 3.12105,5.29392 0.30056,0.90168 0.0863,2.29869 0.71112,2.9235 0.079,0.079 0.0162,0.33227 0.11852,0.43458 1.16619,1.16619 1.26097,0.43295 2.21238,0.90866 0.46227,0.23113 0.38509,0.81966 0.67162,1.10619 0.24105,0.24105 -0.17012,0.97234 -0.23704,1.10619 -0.22372,0.44744 -0.25422,1.08387 -0.5926,1.42225 -0.59168,0.59167 -1.58852,2.16463 -0.67162,3.08153 0.53392,0.53392 1.92005,0.5531 2.72597,0.5531 1.51519,0 2.18318,0.0936 3.47661,-0.5531 0.14921,-0.0746 0.35027,-0.10793 0.43457,-0.27655 0.2429,-0.4858 0.86919,-0.4346 1.22472,-0.79013 0.31937,-0.31938 0.73432,-0.85285 1.10619,-1.22472 0.39858,-0.39858 0.61123,-1.35254 1.1457,-1.61977 0.34351,-0.17176 1.04007,-1.20454 1.26422,-1.54078 0.31955,-0.47931 0.8275,-0.788 1.22471,-1.1852 0.64642,-0.64642 1.43109,-1.66813 2.25189,-2.48893 0.34836,-0.34836 0.98782,-0.57308 1.26422,-0.98767 0.67354,-1.01032 1.9049,-2.07324 2.884,-2.60746 1.46844,-0.49512 2.20523,-1.84967 3.16055,-2.80498 0.44588,-0.44588 0.6244,-1.41455 1.10619,-1.89633 1.71507,-1.71507 4.10359,-2.52332 5.84701,-4.26674 0.22853,-0.22853 1.00706,-0.22698 1.34323,-0.39507 0.85436,-0.42718 2.14702,-0.0463 3.00253,-0.47408 0.6322,-0.31611 1.35258,-0.005 1.97534,-0.31606 0.94808,-0.47404 2.51368,-0.21419 3.63463,-0.31605 2.89801,-0.26334 5.71983,-0.82098 6.95321,-2.05436 0.41749,-0.41749 -0.57979,-0.80348 -0.71113,-0.86915 -2.21477,-1.10738 -5.28874,0.72149 -6.47912,-1.65929 -0.57403,-1.14806 0.88906,-2.01453 0.47408,-2.84449 -0.34197,-0.68395 -1.22482,-0.90876 -1.7383,-1.42225 -0.23066,-0.23066 0.31605,-1.48183 0.31605,-1.89633 0,-1.82943 -2.098,-5.6807 -1.42224,-7.03222 0.24359,-0.48718 1.91786,-2.5069 1.58027,-2.84449 -0.43462,-0.43462 -0.60087,-1.23298 -1.02718,-1.65929 -0.64331,-0.64332 -1.25938,-2.11885 -1.50126,-2.84449 -1.1709,-1.91533 -1.72129,-5.40395 -3.39759,-6.24208 -0.55885,-0.27943 -1.32349,0.0593 -1.65929,0.39506 -1.8939,1.89391 -5.13469,0.63151 -7.34827,1.73831 -1.23949,0.61974 -8.75749,-0.86917 -10.82488,-0.86917 -4.23887,-0.44551 -8.77127,0.39508 -13.03726,0.39508 -1.23311,0 -3.66921,-0.4568 -4.74082,0.079 -0.78205,0.39102 -3.91235,-0.19637 -4.42477,0.31605 -0.34106,0.34106 -0.70336,0.70337 -1.02718,1.02718 -0.85809,0.85809 -2.30767,-0.97953 -3.16055,-0.5531 -0.47522,0.23762 -2.310979,1.49147 -3.081524,1.1062 -0.65661,-0.32831 -1.96647,-0.78127 -2.52844,-1.34324 -0.40243,-0.40243 -5.1203,0.87695 -6.40011,0.23704 -2.6478,-1.32391 -7.16876,-0.89791 -9.16559,-1.89632 -0.43391,-0.21696 -1.15232,0.13496 -1.58027,-0.079 -2.86652,-1.433256 -6.4047,-2.240246 -9.1656,-3.160546 -2.79524,0.0434 -5.18908,-3.415321 -6.79517,-3.950686 -0.43422,-0.747949 -3.47421,-1.498861 -3.71365,-1.738302 -0.93911,-0.939112 -1.99642,-2.312473 -2.92351,-3.239562 -0.26202,-0.26202 -0.81961,-0.424546 -1.10619,-0.711123 -0.61312,-0.613127 -2.09674,-0.337246 -3.00252,-0.790138 -3.03384,-1.516922 -6.63596,-2.211787 -9.63967,-3.713644 -0.88827,-0.444133 -5.79831,-0.662417 -5.92603,-0.790137 -1.58035,-1.580355 -6.91735,-1.781455 -7.34827,-2.212384 -1.19023,-1.190229 -2.33701,-1.174071 -4.0297,-1.738301 -0.40698,-0.560479 -2.90541,-0.693018 -3.00252,-0.790138 -1.79089,-1.790885 -5.21491,-3.01166 -5.21491,0.948165 z"
     id="path7730"
     inkscape:connector-curvature="0"
     sodipodi:nodetypes="cccscscscsscccscccccscsscccccsccccccsccsccccsccccscccccsccssccsccccccccccccccscccccccccccsscscccsccsscccscccsccccscccssccccssscc" />
  <text
     xml:space="preserve"
     style="font-style:normal;font-variant:normal;font-weight:normal;font-stretch:normal;font-size:13.33333302px;line-height:14px;font-family:Charter;-inkscape-font-specification:Charter;text-align:center;letter-spacing:0.05px;word-spacing:0px;text-anchor:middle;fill:#000000;fill-opacity:1;stroke:none"
     x="94.758476"
     y="23.231197"
     id="text7752"><tspan
       sodipodi:role="line"
       id="tspan7750"
       x="94.783478"
       y="23.231197">Map 4</tspan><tspan
       sodipodi:role="line"
       x="94.783478"
       y="37.231197"
       id="tspan7754">Nihoa Island</tspan></text>
  <text
     xml:space="preserve"
     style="font-style:italic;font-variant:normal;font-weight:normal;font-stretch:normal;font-size:13.33333302px;line-height:14px;font-family:Charter;-inkscape-font-specification:'Charter Italic';text-align:start;letter-spacing:0px;word-spacing:0px;text-anchor:start;fill:#000000;fill-opacity:1;stroke:none"
     x="38.944191"
     y="51.024265"
     id="text7752-7"><tspan
       sodipodi:role="line"
       x="38.944191"
       y="51.024265"
       id="tspan7754-9">Schiedea verticillata</tspan></text>
  <text
     xml:space="preserve"
     style="font-style:normal;font-variant:normal;font-weight:normal;font-stretch:normal;font-size:12px;line-height:14px;font-family:Charter;-inkscape-font-specification:Charter;text-align:start;letter-spacing:-0.2px;word-spacing:0px;text-anchor:start;fill:#000000;fill-opacity:1;stroke:none"
     x="52.887142"
     y="218.93648"
     id="text7752-0"><tspan
       sodipodi:role="line"
       x="52.887142"
       y="218.93648"
       id="tspan7754-5">Critical Habitat Unit</tspan></text>
  <text
     xml:space="preserve"
     style="font-style:normal;font-variant:normal;font-weight:normal;font-stretch:normal;font-size:8px;line-height:14px;font-family:Charter;-inkscape-font-specification:Charter;text-align:start;letter-spacing:-0.30000001px;word-spacing:0px;text-anchor:start;fill:#000000;fill-opacity:1;stroke:none"
     x="114.03365"
     y="270.01144"
     id="text7752-0-1"><tspan
       sodipodi:role="line"
       x="114.03365"
       y="270.01144"
       id="tspan7754-5-4">Kilometers</tspan></text>
  <text
     xml:space="preserve"
     style="font-style:normal;font-variant:normal;font-weight:normal;font-stretch:normal;font-size:8px;line-height:14px;font-family:Charter;-inkscape-font-specification:Charter;text-align:start;letter-spacing:-0.30000001px;word-spacing:0px;text-anchor:start;fill:#000000;fill-opacity:1;stroke:none"
     x="143.39572"
     y="252.60469"
     id="text7752-0-1-2"><tspan
       sodipodi:role="line"
       x="143.39572"
       y="252.60469"
       id="tspan7754-5-4-4">Miles</tspan></text>
  <text
     xml:space="preserve"
     style="font-style:normal;font-variant:normal;font-weight:normal;font-stretch:normal;font-size:8px;line-height:14px;font-family:Charter;-inkscape-font-specification:Charter;text-align:start;letter-spacing:-0.30000001px;word-spacing:0px;text-anchor:start;fill:#000000;fill-opacity:1;stroke:none"
     x="127.42035"
     y="252.67845"
     id="text7752-0-1-0"><tspan
       sodipodi:role="line"
       x="127.42035"
       y="252.67845"
       id="tspan7754-5-4-6">0.5</tspan></text>
  <text
     xml:space="preserve"
     style="font-style:normal;font-variant:normal;font-weight:normal;font-stretch:normal;font-size:8px;line-height:14px;font-family:Charter;-inkscape-font-specification:Charter;text-align:start;letter-spacing:-0.30000001px;word-spacing:0px;text-anchor:start;fill:#000000;fill-opacity:1;stroke:none"
     x="98.003258"
     y="269.94672"
     id="text7752-0-1-0-9"><tspan
       sodipodi:role="line"
       x="98.003258"
       y="269.94672"
       id="tspan7754-5-4-6-4">0.5</tspan></text>
  <text
     xml:space="preserve"
     style="font-style:normal;font-variant:normal;font-weight:normal;font-stretch:normal;font-size:8px;line-height:14px;font-family:Charter;-inkscape-font-specification:Charter;text-align:start;letter-spacing:-0.30000001px;word-spacing:0px;text-anchor:start;fill:#000000;fill-opacity:1;stroke:none"
     x="86.688965"
     y="252.64247"
     id="text7752-0-1-0-1"><tspan
       sodipodi:role="line"
       x="86.688965"
       y="252.64247"
       id="tspan7754-5-4-6-42">0.25</tspan></text>
  <text
     xml:space="preserve"
     style="font-style:normal;font-variant:normal;font-weight:normal;font-stretch:normal;font-size:8px;line-height:14px;font-family:Charter;-inkscape-font-specification:Charter;text-align:start;letter-spacing:-0.30000001px;word-spacing:0px;text-anchor:start;fill:#000000;fill-opacity:1;stroke:none"
     x="72.053825"
     y="270.20319"
     id="text7752-0-1-0-7"><tspan
       sodipodi:role="line"
       x="72.053825"
       y="270.20319"
       id="tspan7754-5-4-6-44">0.25</tspan></text>
  <text
     xml:space="preserve"
     style="font-style:normal;font-variant:normal;font-weight:normal;font-stretch:normal;font-size:8px;line-height:14px;font-family:Charter;-inkscape-font-specification:Charter;text-align:start;letter-spacing:-0.30000001px;word-spacing:0px;text-anchor:start;fill:#000000;fill-opacity:1;stroke:none"
     x="52.853497"
     y="252.76381"
     id="text7752-0-1-0-6"><tspan
       sodipodi:role="line"
       x="52.853497"
       y="252.76381"
       id="tspan7754-5-4-6-47">0</tspan></text>
  <text
     xml:space="preserve"
     style="font-style:normal;font-variant:normal;font-weight:normal;font-stretch:normal;font-size:8px;line-height:14px;font-family:Charter;-inkscape-font-specification:Charter;text-align:start;letter-spacing:-0.30000001px;word-spacing:0px;text-anchor:start;fill:#000000;fill-opacity:1;stroke:none"
     x="53.00256"
     y="270.20322"
     id="text7752-0-1-0-8"><tspan
       sodipodi:role="line"
       x="53.00256"
       y="270.20322"
       id="tspan7754-5-4-6-8">0</tspan></text>
  <text
     xml:space="preserve"
     style="font-style:normal;font-variant:normal;font-weight:normal;font-stretch:normal;font-size:8px;line-height:14px;font-family:Charter;-inkscape-font-specification:Charter;text-align:start;letter-spacing:-0.30000001px;word-spacing:0px;text-anchor:start;fill:#000000;fill-opacity:1;stroke:none"
     x="29.899042"
     y="276.46353"
     id="text7752-0-1-0-4"><tspan
       sodipodi:role="line"
       x="29.899042"
       y="276.46353"
       id="tspan7754-5-4-6-7">N</tspan></text>
  <path
     style="fill:#000000;fill-opacity:1;stroke:#000000;stroke-width:0.5;stroke-linecap:round;stroke-linejoin:round;stroke-miterlimit:4;stroke-dasharray:none;stroke-opacity:1"
     d="m 32.578202,266.06312 5.824089,1.6529 -5.510238,-16.09335 0.217934,-0.6638 6.141497,17.49921 -5.824089,-1.6529 -6.129452,1.85647 0.362405,-1.10384 z"
     id="path14359-1-7-5-3-0-73-1-9-8-5-89-7"
     inkscape:connector-curvature="0"
     sodipodi:nodetypes="ccccccccc" />
  <path
     style="fill:none;stroke:#000000;stroke-width:0.5;stroke-linecap:round;stroke-linejoin:round;stroke-miterlimit:4;stroke-dasharray:none;stroke-opacity:1"
     d="m 38.402291,267.71602 -6.00578,-17.601 -5.947761,17.80457 6.129452,-1.85647 z"
     id="path14359-1-7-5-3-0-73-1-9-8-5-89"
     inkscape:connector-curvature="0"
     sodipodi:nodetypes="ccccc" />
</svg>
