<?xml version="1.0" encoding="UTF-8" standalone="no"?>
<svg
   xmlns:dc="http://purl.org/dc/elements/1.1/"
   xmlns:cc="http://creativecommons.org/ns#"
   xmlns:rdf="http://www.w3.org/1999/02/22-rdf-syntax-ns#"
   xmlns:svg="http://www.w3.org/2000/svg"
   xmlns="http://www.w3.org/2000/svg"
   xmlns:xlink="http://www.w3.org/1999/xlink"
   xmlns:sodipodi="http://sodipodi.sourceforge.net/DTD/sodipodi-0.dtd"
   xmlns:inkscape="http://www.inkscape.org/namespaces/inkscape"
   version="1.1"
   id="svg62682"
   width="579.84003"
   height="803.20001"
   viewBox="0 0 579.84003 803.20001"
   sodipodi:docname="er23ap10.012.svg"
   inkscape:version="1.0 (4035a4f, 2020-05-01)">
  <metadata
     id="metadata62688">
    <rdf:RDF>
      <cc:Work
         rdf:about="">
        <dc:format>image/svg+xml</dc:format>
        <dc:type
           rdf:resource="http://purl.org/dc/dcmitype/StillImage" />
        <dc:title></dc:title>
      </cc:Work>
    </rdf:RDF>
  </metadata>
  <defs
     id="defs62686" />
  <sodipodi:namedview
     inkscape:document-rotation="0"
     pagecolor="#ffffff"
     bordercolor="#666666"
     borderopacity="1"
     objecttolerance="10"
     gridtolerance="10"
     guidetolerance="10"
     inkscape:pageopacity="0"
     inkscape:pageshadow="2"
     inkscape:window-width="1280"
     inkscape:window-height="751"
     id="namedview62684"
     showgrid="false"
     inkscape:zoom="1.0907372"
     inkscape:cx="291.31204"
     inkscape:cy="-27.17989"
     inkscape:window-x="0"
     inkscape:window-y="23"
     inkscape:window-maximized="0"
     inkscape:current-layer="g62690"
     inkscape:lockguides="true" />
  <g
     inkscape:groupmode="layer"
     inkscape:label="Image"
     id="g62690">
    <path
       style="fill:#ffffff;fill-opacity:1;stroke:#000000;stroke-width:1.33333;stroke-linecap:round;stroke-linejoin:round;stroke-miterlimit:4;stroke-dasharray:none;stroke-opacity:1"
       d="m 341.22992,393.53385 v 25.55706 h -46.39848 l 0,-15.88795 -41.22864,-24.28012 41.22864,17.35369 0,-2.74268 z"
       id="path14359-1-7-5-3-0-73-1-9-8-5-14-08-8-6"
       inkscape:connector-curvature="0"
       sodipodi:nodetypes="cccccccc" />
    <path
       sodipodi:nodetypes="ccccc"
       inkscape:connector-curvature="0"
       id="path14359-1-7-5-3-0-73-1-9-8-5-14-5-8"
       d="m 375.67068,654.09574 -0.0505,138.2184 200.56393,0.031 0.0549,-138.02568 z"
       style="fill:none;fill-opacity:1;stroke:#000000;stroke-width:1.33333;stroke-linecap:butt;stroke-linejoin:miter;stroke-miterlimit:4;stroke-dasharray:none;stroke-opacity:1" />
    <text
       xml:space="preserve"
       style="font-style:normal;font-variant:normal;font-weight:bold;font-stretch:normal;font-size:17.3333px;line-height:6.8611px;font-family:Arial;-inkscape-font-specification:'Arial Bold';letter-spacing:-0.46px;fill:#000000;fill-opacity:1"
       id="text14273"
       x="413.16592"
       y="644.51984"><tspan
         style="font-style:normal;font-variant:normal;font-weight:bold;font-stretch:normal;font-size:17.3333px;font-family:Arial;-inkscape-font-specification:'Arial Bold';fill:#000000;fill-opacity:1"
         id="tspan14271">RIPLEY COUNTY</tspan></text>
    <path
       style="fill:none;fill-opacity:1;stroke:#000000;stroke-width:1.33333;stroke-linecap:butt;stroke-linejoin:miter;stroke-miterlimit:4;stroke-dasharray:none;stroke-opacity:1"
       d="m 3.1626089,741.54861 -0.002,5.84304 283.8861711,0 0.002,-5.84304 z"
       id="path14359-1-7-5-3-0-73-1-9-8-5-14-8-1"
       inkscape:connector-curvature="0"
       sodipodi:nodetypes="ccccc" />
    <path
       sodipodi:nodetypes="ccccc"
       inkscape:connector-curvature="0"
       id="path14359-1-7-5-3-0-73-1-9-8-5-14-8-2-59"
       d="m 3.1626089,741.54861 -0.002,5.84304 H 21.317936 l 0.002,-5.84304 z"
       style="fill:#000000;fill-opacity:1;stroke:#000000;stroke-width:1.33333;stroke-linecap:butt;stroke-linejoin:miter;stroke-miterlimit:4;stroke-dasharray:none;stroke-opacity:1" />
    <path
       style="fill:#000000;fill-opacity:1;stroke:#000000;stroke-width:1.33333;stroke-linecap:butt;stroke-linejoin:miter;stroke-miterlimit:4;stroke-dasharray:none;stroke-opacity:1"
       d="m 74.38868,741.54861 -0.002,5.84304 71.38007,0 0.002,-5.84304 z"
       id="path14359-1-7-5-3-0-73-1-9-8-5-14-8-2-5-2"
       inkscape:connector-curvature="0"
       sodipodi:nodetypes="ccccc" />
    <text
       xml:space="preserve"
       style="font-size:9.33333px;line-height:3.87916px;font-family:Arial;-inkscape-font-specification:Arial;letter-spacing:0.45px"
       x="120.15592"
       y="781.0426"
       id="text6661-6-1"><tspan
         sodipodi:role="line"
         id="tspan6659-4-9"
         x="120.15592"
         y="781.0426">Kilometers</tspan></text>
    <text
       id="text6661-6-1-5"
       y="739.3266"
       x="133.37608"
       style="font-size:9.33333px;line-height:3.87916px;font-family:Arial;-inkscape-font-specification:Arial;letter-spacing:0.45px"
       xml:space="preserve"><tspan
         y="739.3266"
         x="133.37608"
         id="tspan6659-4-9-8"
         sodipodi:role="line">Miles</tspan></text>
    <path
       sodipodi:nodetypes="ssscccccs"
       d="m 367.34238,700.78651 c 3e-5,11.09298 -8.99266,20.08584 -20.08572,20.08584 -11.09303,0 -20.08569,-8.99286 -20.08566,-20.08584 3e-5,-11.09298 8.95605,-20.04903 20.04906,-20.04906 l -10.40068,36.92998 10.28694,-2.30297 10.55536,2.20886 -10.44162,-36.83587 c 11.093,0 20.1223,8.95608 20.12232,20.04906 z"
       style="fill:#000000;fill-opacity:1;stroke:#000000;stroke-width:1.33333;stroke-linecap:round;stroke-linejoin:round;stroke-miterlimit:4;stroke-dasharray:none;stroke-dashoffset:3.4"
       id="path1486" />
    <text
       id="text1491"
       y="785.41138"
       x="382.12854"
       style="font-size:9.33333px;line-height:4.43332px;font-family:Arial;-inkscape-font-specification:Arial;letter-spacing:0.46px"
       xml:space="preserve"><tspan
         y="785.41138"
         x="382.12854"
         id="tspan1489"
         sodipodi:role="line">Location Index</tspan></text>
    <path
       style="fill:none;fill-opacity:1;stroke:#000000;stroke-width:1.33333004;stroke-linecap:butt;stroke-linejoin:miter;stroke-miterlimit:4;stroke-dasharray:none;stroke-opacity:1"
       d="m 2.0850715,652.76279 -0.017,71.39549 208.2867985,0.029 0.006,-71.41195 z"
       id="path14359-1-7-5-3-0-73-1-9-8-5-14-5-8-0"
       inkscape:connector-curvature="0"
       sodipodi:nodetypes="ccccc" />
    <text
       id="text7907"
       y="710.24384"
       x="114.91158"
       style="font-size:9.33333000000000013px;line-height:7.74547999999999881px;font-family:Arial;-inkscape-font-specification:Arial;letter-spacing:0.26px;fill:#000000;fill-opacity:1"
       xml:space="preserve"><tspan
         y="710.24384"
         x="114.91158"
         id="tspan7905"
         sodipodi:role="line">Critical Habitat Unit</tspan></text>
    <text
       xml:space="preserve"
       style="font-size:9.33333000000000013px;line-height:7.74547999999999881px;font-family:Arial;-inkscape-font-specification:Arial;letter-spacing:0.26px;fill:#000000;fill-opacity:1"
       x="112.38711"
       y="692.8056"
       id="text7907-9"><tspan
         sodipodi:role="line"
         id="tspan7905-3"
         x="112.38711"
         y="692.8056">Streams</tspan></text>
    <path
       sodipodi:nodetypes="ccccc"
       inkscape:connector-curvature="0"
       id="path14359-1-7-5-3-0-73-1-9-8-5-14-8-9"
       d="M 3.1051852,54.08262 V 623.69985 H 577.84335 V 54.08262 Z"
       style="fill:none;fill-opacity:1;stroke:#000000;stroke-width:1.334;stroke-linecap:round;stroke-linejoin:miter;stroke-miterlimit:4;stroke-dasharray:none;stroke-opacity:1" />
    <path
       style="fill:none;fill-opacity:1;stroke:#000000;stroke-width:2;stroke-linecap:round;stroke-linejoin:round;stroke-miterlimit:4;stroke-dasharray:none;stroke-opacity:1"
       d="M 11.651204,670.3093 H 97.098597"
       id="path14359-1-7-5-3-0-73-1-9-8-5-14-5"
       inkscape:connector-curvature="0"
       sodipodi:nodetypes="cc" />
    <path
       style="fill:none;fill-opacity:1;stroke:#000000;stroke-width:1.33333;stroke-linecap:round;stroke-linejoin:round;stroke-miterlimit:4;stroke-dasharray:none;stroke-opacity:1"
       d="M 11.943176,689.48206 H 97.390569"
       id="path14359-1-7-5-3-0-73-1-9-8-5-14-9"
       inkscape:connector-curvature="0"
       sodipodi:nodetypes="cc" />
    <path
       style="fill:none;fill-opacity:1;stroke:#000000;stroke-width:2;stroke-linecap:round;stroke-linejoin:round;stroke-miterlimit:4;stroke-dasharray:none;stroke-opacity:1"
       d="m 11.922621,701.33694 v 12.85674 h 85.330507 v -12.85674 z"
       id="path14359-1-7-5-3-0-73-1-9-8-5-14-08"
       inkscape:connector-curvature="0"
       sodipodi:nodetypes="ccccc" />
    <path
       sodipodi:nodetypes="cc"
       id="path57224"
       d="m 12.06809,709.18451 7.469515,4.93129"
       style="font-variation-settings:normal;opacity:1;vector-effect:none;fill:none;fill-opacity:1;stroke:#000000;stroke-width:1;stroke-linecap:butt;stroke-linejoin:miter;stroke-miterlimit:4;stroke-dasharray:none;stroke-dashoffset:0;stroke-opacity:1;stop-color:#000000;stop-opacity:1" />
    <path
       sodipodi:nodetypes="cc"
       id="path57226"
       d="m 12.036445,703.12247 17.914172,11.11897"
       style="font-variation-settings:normal;opacity:1;vector-effect:none;fill:none;fill-opacity:1;stroke:#000000;stroke-width:1;stroke-linecap:butt;stroke-linejoin:miter;stroke-miterlimit:4;stroke-dasharray:none;stroke-dashoffset:0;stroke-opacity:1;stop-color:#000000;stop-opacity:1" />
    <path
       sodipodi:nodetypes="cc"
       id="path57228"
       d="m 19.664205,701.39493 20.826026,12.81511"
       style="font-variation-settings:normal;opacity:1;vector-effect:none;fill:none;fill-opacity:1;stroke:#000000;stroke-width:1;stroke-linecap:butt;stroke-linejoin:miter;stroke-miterlimit:4;stroke-dasharray:none;stroke-dashoffset:0;stroke-opacity:1;stop-color:#000000;stop-opacity:1" />
    <path
       sodipodi:nodetypes="cc"
       id="path57230"
       d="m 29.634116,701.45776 20.60448,12.78368"
       style="font-variation-settings:normal;opacity:1;vector-effect:none;fill:none;fill-opacity:1;stroke:#000000;stroke-width:1;stroke-linecap:butt;stroke-linejoin:miter;stroke-miterlimit:4;stroke-dasharray:none;stroke-dashoffset:0;stroke-opacity:1;stop-color:#000000;stop-opacity:1" />
    <path
       sodipodi:nodetypes="cc"
       id="path57232"
       d="m 40.110429,701.42635 19.56001,12.75227"
       style="font-variation-settings:normal;opacity:1;vector-effect:none;fill:none;fill-opacity:1;stroke:#000000;stroke-width:1;stroke-linecap:butt;stroke-linejoin:miter;stroke-miterlimit:4;stroke-dasharray:none;stroke-dashoffset:0;stroke-opacity:1;stop-color:#000000;stop-opacity:1" />
    <path
       sodipodi:nodetypes="cc"
       id="path57234"
       d="m 49.763828,701.48917 20.60448,12.90932"
       style="font-variation-settings:normal;opacity:1;vector-effect:none;fill:none;fill-opacity:1;stroke:#000000;stroke-width:1;stroke-linecap:butt;stroke-linejoin:miter;stroke-miterlimit:4;stroke-dasharray:none;stroke-dashoffset:0;stroke-opacity:1;stop-color:#000000;stop-opacity:1" />
    <path
       sodipodi:nodetypes="cc"
       id="path57236"
       d="M 59.891995,701.39494 79.736861,714.1158"
       style="font-variation-settings:normal;opacity:1;vector-effect:none;fill:none;fill-opacity:1;stroke:#000000;stroke-width:1;stroke-linecap:butt;stroke-linejoin:miter;stroke-miterlimit:4;stroke-dasharray:none;stroke-dashoffset:0;stroke-opacity:1;stop-color:#000000;stop-opacity:1" />
    <path
       sodipodi:nodetypes="cc"
       id="path57238"
       d="m 69.672005,701.45776 19.971457,12.72086"
       style="font-variation-settings:normal;opacity:1;vector-effect:none;fill:none;fill-opacity:1;stroke:#000000;stroke-width:1;stroke-linecap:butt;stroke-linejoin:miter;stroke-miterlimit:4;stroke-dasharray:none;stroke-dashoffset:0;stroke-opacity:1;stop-color:#000000;stop-opacity:1" />
    <path
       sodipodi:nodetypes="cc"
       id="path57240"
       d="m 80.306564,701.52058 16.901367,11.11897"
       style="font-variation-settings:normal;opacity:1;vector-effect:none;fill:none;fill-opacity:1;stroke:#000000;stroke-width:1;stroke-linecap:butt;stroke-linejoin:miter;stroke-miterlimit:4;stroke-dasharray:none;stroke-dashoffset:0;stroke-opacity:1;stop-color:#000000;stop-opacity:1" />
    <path
       sodipodi:nodetypes="cc"
       id="path57242"
       d="m 89.865018,701.39494 7.279613,5.30821"
       style="font-variation-settings:normal;opacity:1;vector-effect:none;fill:none;fill-opacity:1;stroke:#000000;stroke-width:1;stroke-linecap:butt;stroke-linejoin:miter;stroke-miterlimit:4;stroke-dasharray:none;stroke-dashoffset:0;stroke-opacity:1;stop-color:#000000;stop-opacity:1" />
    <text
       id="text7907-9-5"
       y="674.4314"
       x="112.96804"
       style="font-size:9.33333000000000013px;line-height:7.74547999999999881px;font-family:Arial;-inkscape-font-specification:Arial;letter-spacing:0.26px;fill:#000000;fill-opacity:1"
       xml:space="preserve"><tspan
         y="674.4314"
         x="112.96804"
         id="tspan7905-3-8"
         sodipodi:role="line">Roads</tspan></text>
    <text
       xml:space="preserve"
       style="font-size:9.33333px;line-height:4.43333px;font-family:Arial;-inkscape-font-specification:Arial;letter-spacing:0.45px"
       x="26.635429"
       y="759.02673"
       id="text6661-6-1-5-2"><tspan
         id="tspan57534"
         sodipodi:role="line"
         x="26.635429"
         y="759.02673">0.125</tspan></text>
    <text
       id="text6661-6-1-5-2-3"
       y="760.55438"
       x="0.7098676"
       style="font-size:9.33333px;line-height:4.43333px;font-family:Arial;-inkscape-font-specification:Arial;letter-spacing:0.45px"
       xml:space="preserve"><tspan
         y="760.55438"
         x="0.7098676"
         sodipodi:role="line"
         id="tspan57534-3">0</tspan></text>
    <text
       id="text6661-6-1-5-2-2"
       y="759.12518"
       x="64.618874"
       style="font-size:9.33333px;line-height:4.43333px;font-family:Arial;-inkscape-font-specification:Arial;letter-spacing:0.45px"
       xml:space="preserve"><tspan
         y="759.12518"
         x="64.618874"
         sodipodi:role="line"
         id="tspan57534-1">0.25</tspan></text>
    <text
       id="text6661-6-1-5-2-9"
       y="801.20319"
       x="1.0102781"
       style="font-size:9.33333px;line-height:4.43333px;font-family:Arial;-inkscape-font-specification:Arial;letter-spacing:0.45px"
       xml:space="preserve"><tspan
         y="801.20319"
         x="1.0102781"
         sodipodi:role="line"
         id="tspan57534-16">0</tspan></text>
    <text
       id="text6661-6-1-5-2-39"
       y="801.13055"
       x="32.614922"
       style="font-size:9.33333px;line-height:4.43333px;font-family:Arial;-inkscape-font-specification:Arial;letter-spacing:0.45px"
       xml:space="preserve"><tspan
         y="801.13055"
         x="32.614922"
         sodipodi:role="line"
         id="tspan57534-17">0.2</tspan></text>
    <text
       id="text6661-6-1-5-2-96"
       y="800.76074"
       x="66.401939"
       style="font-size:9.33333px;line-height:4.43333px;font-family:Arial;-inkscape-font-specification:Arial;letter-spacing:0.45px"
       xml:space="preserve"><tspan
         y="800.76074"
         x="66.401939"
         sodipodi:role="line"
         id="tspan57534-6">0.4</tspan></text>
    <text
       xml:space="preserve"
       style="font-size:9.33333px;line-height:4.43333px;font-family:Arial;-inkscape-font-specification:Arial;letter-spacing:0.45px"
       x="138.0708"
       y="759.71118"
       id="text6661-6-1-5-2-2-2"><tspan
         id="tspan57534-1-1"
         sodipodi:role="line"
         x="138.0708"
         y="759.71118">0.5</tspan></text>
    <text
       xml:space="preserve"
       style="font-size:9.33333px;line-height:4.43333px;font-family:Arial;-inkscape-font-specification:Arial;letter-spacing:0.45px"
       x="205.97823"
       y="759.5705"
       id="text6661-6-1-5-2-2-1"><tspan
         id="tspan57534-1-4"
         sodipodi:role="line"
         x="205.97823"
         y="759.5705">0.75</tspan></text>
    <text
       xml:space="preserve"
       style="font-size:9.33333px;line-height:4.43333px;font-family:Arial;-inkscape-font-specification:Arial;letter-spacing:0.45px"
       x="284.75031"
       y="759.28784"
       id="text6661-6-1-5-2-2-3"><tspan
         id="tspan57534-1-7"
         sodipodi:role="line"
         x="284.75031"
         y="759.28784">1</tspan></text>
    <text
       xml:space="preserve"
       style="font-size:9.33333px;line-height:4.43333px;font-family:Arial;-inkscape-font-specification:Arial;letter-spacing:0.45px"
       x="137.76701"
       y="801.52972"
       id="text6661-6-1-5-2-2-4"><tspan
         id="tspan57534-1-43"
         sodipodi:role="line"
         x="137.76701"
         y="801.52972">0.8</tspan></text>
    <text
       xml:space="preserve"
       style="font-size:9.33333px;line-height:4.43333px;font-family:Arial;-inkscape-font-specification:Arial;letter-spacing:0.45px"
       x="208.30894"
       y="801.22754"
       id="text6661-6-1-5-2-2-9"><tspan
         id="tspan57534-1-44"
         sodipodi:role="line"
         x="208.30894"
         y="801.22754">1.2</tspan></text>
    <text
       xml:space="preserve"
       style="font-size:9.33333px;line-height:4.43333px;font-family:Arial;-inkscape-font-specification:Arial;letter-spacing:0.45px"
       x="279.0907"
       y="801.09961"
       id="text6661-6-1-5-2-2-12"><tspan
         id="tspan57534-1-9"
         sodipodi:role="line"
         x="279.0907"
         y="801.09961">1.6</tspan></text>
    <path
       style="fill:#000000;fill-opacity:1;stroke:#000000;stroke-width:1.33333;stroke-linecap:butt;stroke-linejoin:miter;stroke-miterlimit:4;stroke-dasharray:none;stroke-opacity:1"
       d="m 39.162288,741.54861 -0.002,5.84304 h 19.005544 l 0.002,-5.84304 z"
       id="path14359-1-7-5-3-0-73-1-9-8-5-14-8-2-59-3"
       inkscape:connector-curvature="0"
       sodipodi:nodetypes="ccccc" />
    <path
       style="fill:#000000;fill-opacity:1;stroke:#000000;stroke-width:1.33333;stroke-linecap:butt;stroke-linejoin:miter;stroke-miterlimit:4;stroke-dasharray:none;stroke-opacity:1"
       d="m 216.31813,741.54861 -0.002,5.84304 h 70.73065 l 0.002,-5.84304 z"
       id="path14359-1-7-5-3-0-73-1-9-8-5-14-8-2-59-1"
       inkscape:connector-curvature="0"
       sodipodi:nodetypes="ccccc" />
    <path
       sodipodi:nodetypes="ccccc"
       inkscape:connector-curvature="0"
       id="path14359-1-7-5-3-0-73-1-9-8-5-14-8-1-8"
       d="m 3.7141077,783.42744 -0.002,5.84304 282.4922423,0 0.002,-5.84304 z"
       style="fill:none;fill-opacity:1;stroke:#000000;stroke-width:1.33333;stroke-linecap:butt;stroke-linejoin:miter;stroke-miterlimit:4;stroke-dasharray:none;stroke-opacity:1" />
    <path
       style="fill:#000000;fill-opacity:1;stroke:#000000;stroke-width:1.33333;stroke-linecap:butt;stroke-linejoin:miter;stroke-miterlimit:4;stroke-dasharray:none;stroke-opacity:1"
       d="m 3.7141077,783.42745 -0.002,5.84304 H 21.179343 l 0.002,-5.84304 z"
       id="path14359-1-7-5-3-0-73-1-9-8-5-14-8-2-59-13"
       inkscape:connector-curvature="0"
       sodipodi:nodetypes="ccccc" />
    <path
       sodipodi:nodetypes="ccccc"
       inkscape:connector-curvature="0"
       id="path14359-1-7-5-3-0-73-1-9-8-5-14-8-2-5-2-0"
       d="m 74.164075,783.42744 -0.002,5.84304 H 145.3443 l 0.002,-5.84304 z"
       style="fill:#000000;fill-opacity:1;stroke:#000000;stroke-width:1.33333;stroke-linecap:butt;stroke-linejoin:miter;stroke-miterlimit:4;stroke-dasharray:none;stroke-opacity:1" />
    <path
       sodipodi:nodetypes="ccccc"
       inkscape:connector-curvature="0"
       id="path14359-1-7-5-3-0-73-1-9-8-5-14-8-2-59-3-8"
       d="m 38.205334,783.42745 -0.002,5.84304 19.519274,0 0.002,-5.84304 z"
       style="fill:#000000;fill-opacity:1;stroke:#000000;stroke-width:1.33333;stroke-linecap:butt;stroke-linejoin:miter;stroke-miterlimit:4;stroke-dasharray:none;stroke-opacity:1" />
    <path
       sodipodi:nodetypes="ccccc"
       inkscape:connector-curvature="0"
       id="path14359-1-7-5-3-0-73-1-9-8-5-14-8-2-59-1-7"
       d="m 214.73002,783.42744 -0.002,5.84304 h 71.47633 l 0.002,-5.84304 z"
       style="fill:#000000;fill-opacity:1;stroke:#000000;stroke-width:1.33333;stroke-linecap:butt;stroke-linejoin:miter;stroke-miterlimit:4;stroke-dasharray:none;stroke-opacity:1" />
    <path
       sodipodi:nodetypes="ccssscsssssssssssssssssssssssssscssssssssssssscssssssssssssssssscsssssscssscc"
       inkscape:connector-curvature="0"
       id="path14359-1-7-5-3-0-73-1-9-8-5-14-9-1"
       d="m 426.81133,700.7162 -0.0168,71.26657 c 7.13723,0.30127 13.90462,0.16776 21.15321,0.27532 5.86445,0.087 8.50589,0.6592 14.42351,0.65372 6.00493,-0.006 11.53463,-0.53613 17.02208,-0.67414 13.50381,-0.33962 26.75191,-0.48235 46.19704,-0.47053 0.53969,1.34384 2.31135,2.19349 2.41967,3.80861 0.1033,1.54014 -4.35597,5.7254 -5.27359,7.11758 -0.25767,0.39094 -1.24079,1.39447 -0.82249,1.92367 0.60378,0.76383 4.17392,0.19235 5.32198,0.19235 1.82455,0 3.64317,0.13948 5.46713,0 2.19154,-0.16756 4.03516,-0.61896 5.41872,-2.45267 0.37177,-0.49272 0.8019,-0.97886 0.72573,-1.63512 -0.0746,-0.64286 -0.60444,-1.39441 -1.11277,-1.77939 -0.22441,-0.16995 -0.72573,-0.1524 -0.72573,-0.43282 0,-0.3516 2.42454,-0.25405 2.80613,-1.2023 0.0718,-0.17854 -1.33455,-0.45961 -1.45145,-0.76946 -0.0485,-0.1286 0.82949,-0.58995 0.87087,-0.6252 0.6404,-0.54563 0.86491,-1.53861 1.016,-2.3084 0.0989,-0.50373 0.17143,-1.25998 0.14516,-1.44275 -0.0789,-0.54876 -1.37207,-1.29595 -1.25793,-2.26031 0.0387,-0.32641 0.6206,-0.53567 0.87088,-0.33665 0.37182,0.29569 0.658,1.77046 1.20953,1.7313 1.46368,-0.10392 -0.42791,-1.3078 -0.24191,-1.53893 0.1746,-0.21693 1.04234,-0.31674 1.25794,-0.43283 0.7905,-0.42562 0.39113,-0.65398 0.82246,-1.1542 0.71558,-0.82982 2.69778,0.68142 3.53186,0.0962 0.80302,-0.56343 0.89768,-2.12346 0.91925,-2.98167 0.0122,-0.48105 -0.20146,-0.98628 -0.0483,-1.44277 0.22071,-0.65815 0.7669,-0.0619 0.58058,-0.91374 -0.0477,-0.21819 -0.12195,-0.43642 -0.2419,-0.62519 -0.0794,-0.12496 -0.31423,-0.14276 -0.33868,-0.28855 -0.0296,-0.17654 0.79227,-0.85606 0.91926,-1.05803 0.45915,-1.13855 0.49854,-2.66236 -0.77416,-3.31832 -0.50733,-0.26148 -1.34131,-0.2635 -1.69334,-0.81756 -0.11995,-0.18878 -0.0981,-0.45366 -0.24191,-0.62519 -0.3478,-0.41487 -0.77627,-0.15074 -1.20953,-0.24047 -0.49959,-0.10346 -1.49435,-0.81917 -1.83851,-1.10611 -0.98759,-0.82334 -1.23497,-1.84862 -1.74174,-2.93359 -0.30233,-0.64727 -0.93981,-1.14697 -1.25792,-1.77939 -0.49616,-0.98636 1.01183,-1.04556 1.25792,-1.77939 0.10253,-0.30569 0.0885,-0.63973 0.0968,-0.96184 0.0436,-1.69163 -1.02723,-2.73932 -1.69335,-4.18398 -0.32712,-0.70947 0.0618,-1.54349 0,-2.26031 -0.0823,-0.95374 -0.32588,-0.56977 -0.82248,-1.29848 -0.32926,-0.48314 -0.49544,-1.26482 -0.87087,-1.7313 -0.43193,-0.53666 -1.37285,-0.68532 -1.93526,-1.05802 -2.14241,-2.43969 -5.34881,-3.08924 -7.74106,-5.14581 -0.92346,-0.79389 -1.6243,-1.77191 -2.6126,-2.50077 -0.46949,-0.34625 -1.09782,-0.5556 -1.54823,-0.91375 -1.75006,-1.39167 1.06084,0.41103 -1.69334,-1.39466 -0.37405,-0.24525 -0.79354,-0.41861 -1.16117,-0.67328 -1.48066,-1.02581 -1.69844,-3.44233 -1.3063,-5.00155 0.13519,-0.53747 0.6219,-0.98468 0.8225,-1.49083 0.41005,-1.03468 0.25159,-2.15794 0.82248,-3.12597 0.45113,-0.76498 1.71202,-1.34778 1.88688,-2.26031 0.20325,-1.06065 -0.82364,-2.36845 -0.7741,-2.88551 0.10002,-1.04482 2.50364,-1.59126 1.88687,-2.88551 -0.12633,-0.26512 -2.25142,-2.19528 -2.56422,-2.35649 -0.74932,-0.3862 -1.51706,-0.0213 -2.27393,-0.19237 -0.74704,-0.16876 -1.07851,-0.98654 -2.17717,-0.91374 -0.73504,0.0487 -1.59043,1.68016 -2.27394,2.01986 -1.06323,0.52842 -1.36493,-0.39048 -2.12878,-0.81757 -0.53627,-0.29985 -0.37495,0.077 -0.72572,-0.48091 -0.29074,-0.4624 -0.45035,-0.99445 -0.67735,-1.49085 0.32769,-0.86113 0.0642,-2.27828 0.0483,-3.17406 -0.0393,-2.23196 -0.66566,-4.35602 -2.46746,-5.86719 -0.76991,-0.64573 -1.63376,-1.17634 -2.3707,-1.87557 -1.60199,-1.52002 -3.00469,-3.23992 -4.59624,-4.76108 -0.69147,-0.66091 -1.39209,-1.36153 -2.12879,-1.97177 -0.69834,-0.57845 -1.52321,-0.99527 -2.12879,-1.68321 -1.36249,-1.54779 -2.46352,-4.23851 -2.90289,-6.20382 -0.36899,-1.97246 -2.07954,-6.25526 -1.59656,-8.17561 0.24185,-0.96155 1.22591,-2.05043 1.0644,-3.07787 -0.14309,-0.91033 -1.28753,-1.69433 -1.83851,-2.3084 -1.48874,-1.6592 -3.18423,-5.42456 -6.04768,-4.713 -27.5829,1.15966 -55.15999,0.8844 -82.24869,0 -0.11289,-0.048 -0.21899,-0.17171 -0.33867,-0.14426 -1.36236,0.3125 1.25309,2.60548 1.40307,2.8374 0.007,0.0102 0.51337,1.27167 0.53219,1.34658 0.22298,0.88656 -0.13844,2.13101 0.33868,2.93359 0.48293,0.81238 1.52516,1.64445 2.22555,2.26032 0.35957,0.31616 0.84689,0.53894 1.11278,0.96183 0.678,1.07829 0.55482,2.56197 0.72572,3.75115 0.14454,1.00573 1.48999,1.17237 2.08041,1.73131 0.16224,0.1536 0.22536,0.38497 0.33867,0.57708 0.57679,0.97805 0.9942,1.49598 1.93527,2.16414 0.56909,0.40406 1.51722,1.17563 2.27392,1.34657 0.5883,0.13291 0.65172,-0.0852 1.20954,-0.24045 1.25418,-0.34907 2.5281,0.0968 2.85452,1.39466 0.20911,0.48398 0.60905,0.48378 0.58057,1.1061 -0.0455,0.995 -1.02829,1.27768 -1.5482,1.92367 -0.71447,0.88773 -2.57377,2.47506 -2.75776,3.46261 -0.14829,0.79605 0.0546,1.26356 0.38705,1.97175 0.8381,1.78515 1.85645,1.99608 2.90291,3.41453 0.89209,1.2092 0.67689,2.70697 1.59658,3.89543 0.77287,0.99869 1.92469,1.62811 2.95128,2.3084 0.6407,0.42458 1.33974,0.4873 1.80559,1.17349 z"
       style="fill:none;fill-opacity:1;stroke:#000000;stroke-width:1.33333333;stroke-linecap:round;stroke-linejoin:round;stroke-miterlimit:4;stroke-dasharray:none;stroke-opacity:1" />
    <path
       sodipodi:nodetypes="cccccccc"
       inkscape:connector-curvature="0"
       id="path14359-1-7-5-3-0-73-1-9-8-5-14-08-8"
       d="m 341.22992,393.53385 v 25.55706 h -46.39848 l 0,-15.88795 -41.22864,-24.28012 41.22864,17.35369 0,-2.74268 z"
       style="fill:none;fill-opacity:1;stroke:#000000;stroke-width:1.33333;stroke-linecap:round;stroke-linejoin:round;stroke-miterlimit:4;stroke-dasharray:none;stroke-opacity:1" />
    <text
       id="text57738"
       y="410.11047"
       x="300.56342"
       style="font-size:9.33333px;line-height:9.03639px;font-family:Arial;-inkscape-font-specification:Arial;letter-spacing:0.65px;fill:#000000;fill-opacity:1"
       xml:space="preserve"><tspan
         y="410.11047"
         x="300.56342"
         id="tspan57736"
         sodipodi:role="line">Unit 21</tspan></text>
    <text
       id="text57751"
       y="17.271353"
       x="291.79376"
       style="font-style:normal;font-variant:normal;font-weight:bold;font-stretch:normal;font-size:21.3333px;line-height:31.6267px;font-family:Arial;-inkscape-font-specification:'Arial Bold';text-align:center;letter-spacing:0.42px;text-anchor:middle;fill:#000000;fill-opacity:1"
       xml:space="preserve"><tspan
         y="17.271353"
         x="291.79376"
         id="tspan57749"
         sodipodi:role="line">Missouri Map 6.  Hine's Emerald Dragonfly</tspan><tspan
         id="tspan57753"
         y="48.898052"
         x="292.00375"
         sodipodi:role="line">Critical Habitat Unit 21</tspan></text>
    <path
       id="path60179"
       style="opacity:0.999;fill:none;fill-opacity:1;stroke:#000000;stroke-width:1.33333;stroke-linecap:round;stroke-linejoin:round;stroke-miterlimit:4;stroke-dasharray:none;stroke-opacity:1"
       d="m 516.55002,769.27897 a 7.6904535,7.7678972 0 0 1 -7.69045,7.7679 7.6904535,7.7678972 0 0 1 -7.69046,-7.7679 7.6904535,7.7678972 0 0 1 7.69046,-7.7679 7.6904535,7.7678972 0 0 1 7.69045,7.7679 z" />
    <text
       xml:space="preserve"
       style="font-size:10.66670000000000051px;line-height:10.32729999999999926px;font-family:Arial;-inkscape-font-specification:Arial;letter-spacing:1.85px;fill:#000000;fill-opacity:1"
       id="text57742-0"><textPath
         xlink:href="#path65002"
         id="textPath65004"><tspan
           id="tspan57740-6"
           style="fill:#000000;fill-opacity:1;">FOURCHE CREEK</tspan></textPath></text>
    <text
       xml:space="preserve"
       style="font-size:10.66670000000000051px;line-height:10.32729999999999926px;font-family:Arial;-inkscape-font-specification:Arial;letter-spacing:0.2px;fill:#000000;fill-opacity:1"
       x="-190.73195"
       y="534.92407"
       id="text57715-3"
       transform="rotate(-63.65195)"><tspan
         sodipodi:role="line"
         id="tspan57713-4"
         x="-190.73195"
         y="534.92407">COUNTY RD 150-W-15</tspan></text>
    <text
       xml:space="preserve"
       style="font-size:10.6667px;line-height:10.3273px;font-family:Arial;-inkscape-font-specification:Arial;letter-spacing:0px"
       x="130.91814"
       y="841.27997"
       id="text64844"><tspan
         sodipodi:role="line"
         id="tspan64842"
         x="130.91814"
         y="841.27997" /></text>
    <text
       transform="rotate(-63.65195)"
       id="text57715-3-4"
       y="352.67276"
       x="-305.84177"
       style="font-size:10.6667px;line-height:10.3273px;font-family:Arial;-inkscape-font-specification:Arial;letter-spacing:0.2px;fill:#000000;fill-opacity:1"
       xml:space="preserve"><tspan
         y="352.67276"
         x="-305.84177"
         id="tspan57713-4-9"
         sodipodi:role="line">COUNTY RD 160-W-17</tspan></text>
    <path
       style="font-variation-settings:normal;opacity:1;vector-effect:none;fill:none;fill-opacity:1;stroke:none;stroke-width:0.666667;stroke-linecap:butt;stroke-linejoin:miter;stroke-miterlimit:4;stroke-dasharray:none;stroke-dashoffset:0;stroke-opacity:1;stop-color:#000000;stop-opacity:1"
       d="m 101.53187,505.69092 c 22.99953,-3.23244 40.57504,1.73355 53.75436,10.3677 15.56243,10.19539 23.85225,26.64754 32.33834,46.51387"
       id="path65002"
       sodipodi:nodetypes="csc" />
    <path
       sodipodi:nodetypes="cssssccsssssssscssssscccccccccccccccccc"
       inkscape:connector-curvature="0"
       id="path14359-1-7-5-3-0-73-1-9-8-5-14-5-5"
       d="M 319.31628,623.73649 V 486.8089 c 0,-4.89652 3.03746,-7.98357 7.08582,-9.87926 l 25.26542,-12.0427 c 3.63002,-1.73024 7.68526,-3.32233 11.38134,-6.06068 l 14.21357,-10.53051 11.67292,-11.77121 15.2574,-29.03492 c 1.91214,-3.63882 5.04865,-6.88753 8.58113,-10.40065 l 10.91373,-10.85392 c 2.44714,-2.43372 3.26597,-5.59933 3.64736,-8.66015 l 1.40934,-11.31047 c 0.3038,-2.43808 1.00837,-4.78232 2.26324,-7.36034 l 8.11699,-16.67566 c 4.76237,-9.78389 10.34202,-9.5407 12.13333,-23.03708 l 6.53757,-49.2563 1.27935,-23.50096 c 0.043,-0.78961 1.22679,-1.12624 1.54393,-1.82642 0.3364,-0.7427 -0.19265,-1.85228 -0.13881,-2.8247 l 1.16516,-21.04408 c 0.25292,-4.56806 2.83877,-8.77928 5.86937,-12.3286 l 22.68727,-26.57043 3.73665,-2.19523 7.52265,-10.52198 3.15815,-7.13679 4.42588,-10.62958 7.34819,-8.03805 11.28481,-3.10963 9.64098,-4.56053 22.97499,-15.30804 12.58971,-16.05549 -1.9889,-14.366758 5.18218,-10.711507 0.72707,-9.302339 -1.26396,-4.884165 -5.9332,-2.978278 -2.24982,-3.037521 0.14034,-1.842423 -1.23316,-3.139629"
       style="fill:none;fill-opacity:1;stroke:#000000;stroke-width:2;stroke-linecap:butt;stroke-linejoin:round;stroke-miterlimit:4;stroke-dasharray:none;stroke-opacity:1" />
    <path
       style="fill:none;fill-opacity:1;stroke:#000000;stroke-width:2;stroke-linecap:round;stroke-linejoin:round;stroke-miterlimit:4;stroke-dasharray:none;stroke-opacity:1"
       d="m 39.889426,54.420544 9.772273,12.882239 10.923762,7.922126 20.025489,11.824147 c 4.019151,2.373127 6.659543,6.113185 8.695235,9.787308 l 4.669378,8.427536 c 1.193524,2.15414 2.601481,4.90871 5.391408,6.86232 l 13.459969,9.4252 40.64271,7.63711 10.84351,6.42599 79.96509,37.0574"
       id="path14359-1-7-5-3-0-73-1-9-8-5-14-5-5-2"
       inkscape:connector-curvature="0"
       sodipodi:nodetypes="cccsssscccc" />
    <path
       style="fill:none;fill-opacity:1;stroke:#000000;stroke-width:2;stroke-linecap:round;stroke-linejoin:round;stroke-miterlimit:4;stroke-dasharray:none;stroke-opacity:1"
       d="m 219.75535,623.21547 -4.27072,-18.33086 -1.21654,-31.84491 -8.88287,-24.88294 -10.22314,-20.65399 -25.57487,-35.13967 c -1.35507,-1.86187 -1.26185,-8.46675 0.9143,-14.2326 l 14.92493,-39.54458 16.43464,-32.83279 c 2.6139,-5.22199 5.91674,-9.14656 10.6971,-13.66781 5.59771,-5.29427 9.60792,-11.85968 12.10456,-20.39326 l 23.86369,-78.26922 0.13825,-34.02297 c 0.0302,-7.42118 -5.45155,-28.33016 -8.98406,-33.66844 l -9.37801,-14.17192 c -6.0191,-9.09599 -4.2245,-22.54229 -0.38706,-25.83876 l 13.05309,-11.21294 c 3.72012,-3.19568 27.22787,-8.31322 42.93855,-8.57233 l 35.37835,-1.22427 46.49752,-7.39044 19.2189,10.89037 c 3.43538,1.94666 7.38815,0.92585 10.88182,-0.70787 l 22.68137,-10.60635 c 3.90686,-1.82694 8.65276,-0.92729 13.88034,1.25752 l 27.68223,11.5695 6.44268,5.01317 19.21964,10.04268"
       id="path14359-1-7-5-3-0-73-1-9-8-5-14-5-5-5"
       inkscape:connector-curvature="0"
       sodipodi:nodetypes="cccccsscssscssssssccssssccc" />
    <path
       d="m 278.11257,166.72264 a 13.89469,13.518404 0 0 1 -13.8947,13.5184 13.89469,13.518404 0 0 1 -13.89468,-13.5184 13.89469,13.518404 0 0 1 13.89468,-13.51841 13.89469,13.518404 0 0 1 13.8947,13.51841 z"
       style="opacity:0.999;fill:#ffffff;fill-opacity:1;stroke:#000000;stroke-width:2.07432;stroke-linecap:round;stroke-linejoin:round;stroke-miterlimit:4;stroke-dasharray:none;stroke-opacity:1"
       id="path60296-6" />
    <path
       id="path60296"
       style="opacity:0.999;fill:none;fill-opacity:1;stroke:#000000;stroke-width:1.5;stroke-linecap:round;stroke-linejoin:round;stroke-miterlimit:4;stroke-dasharray:none;stroke-opacity:1"
       d="m 278.11257,166.72264 a 13.89469,13.518404 0 0 1 -13.8947,13.5184 13.89469,13.518404 0 0 1 -13.89468,-13.5184 13.89469,13.518404 0 0 1 13.89468,-13.51841 13.89469,13.518404 0 0 1 13.8947,13.51841 z" />
    <text
       xml:space="preserve"
       style="font-size:12px;line-height:11.6182px;font-family:Arial;-inkscape-font-specification:Arial;letter-spacing:0px"
       x="253.63843"
       y="170.31876"
       id="text60301"><tspan
         sodipodi:role="line"
         id="tspan60299"
         x="253.63843"
         y="170.31876">160</tspan></text>
    <path
       sodipodi:nodetypes="csssscssssssc"
       inkscape:connector-curvature="0"
       id="path14359-1-7-5-3-0-73-1-9-8-5-14-5-0"
       d="m 454.54597,293.92735 34.11673,3.15902 c 4.8134,0.44569 9.08695,3.12412 9.53396,7.21553 l 1.4069,12.87726 c 0.44831,4.10334 6.12745,6.94391 8.69787,12.08538 l 9.91892,19.84027 11.493,14.53911 c 3.16302,4.00135 5.53629,9.11256 7.16191,13.6906 1.84175,5.18669 4.07734,10.60776 7.98289,14.58702 l 9.43225,9.61025 c 2.36723,2.41191 7.82948,5.12481 12.17365,8.96512 4.58604,4.05413 8.57507,9.83285 10.72946,17.45459 0.10462,0.37012 0.20491,0.76906 0.521,0.78078"
       style="fill:none;fill-opacity:1;stroke:#000000;stroke-width:2;stroke-linecap:butt;stroke-linejoin:round;stroke-miterlimit:4;stroke-dasharray:none;stroke-opacity:1" />
    <path
       sodipodi:nodetypes="ccccsssssssssssssscccsscssc"
       inkscape:connector-curvature="0"
       id="path14359-1-7-5-3-0-73-1-9-8-5-14-9-9"
       d="m 147.02731,174.92396 38.00605,39.0853 9.40497,16.113 27.34411,32.88094 11.78259,17.61292 c 3.3998,5.08211 4.70855,16.0003 3.58404,25.0204 l -0.82613,6.62671 c -0.37421,3.0017 0.13224,5.10596 2.05579,6.50907 l 5.44782,3.97382 c 2.50352,1.82615 3.71892,5.21701 3.17743,8.55451 l -1.6566,10.2105 c -1.07591,6.63139 -0.82179,13.3721 -0.42257,19.8175 l 1.28315,20.71635 c 0.61775,9.9735 -1.1364,24.30717 -4.34853,29.57043 l -19.09774,31.29272 c -3.11585,5.10549 -6.11964,11.88963 -6.40798,17.50041 l -0.21016,4.08945 c -0.12616,2.45492 -1.39605,5.1653 -3.09728,7.41038 l -9.9279,13.10171 -8.23314,29.42383 -3.87081,7.12163 -2.61217,2.71917 c -1.68896,1.75815 -1.52273,4.35498 -0.70728,6.18106 l 10.95245,24.52633 3.66917,32.8211 c 0.5304,4.74453 1.18959,9.47048 2.5159,14.09391 l 6.2075,21.63889"
       style="fill:none;fill-opacity:1;stroke:#000000;stroke-width:1.33333;stroke-linecap:round;stroke-linejoin:round;stroke-miterlimit:4;stroke-dasharray:none;stroke-opacity:1" />
    <path
       style="fill:none;fill-opacity:1;stroke:#000000;stroke-width:1.33333;stroke-linecap:round;stroke-linejoin:round;stroke-miterlimit:4;stroke-dasharray:none;stroke-opacity:1"
       d="m 3.2055475,458.1649 c 6.25677,0.007 7.4690115,-1.90005 10.2605995,-1.53872 5.396795,0.69854 9.869893,4.03618 13.035897,6.8358 3.542063,3.13216 6.21034,5.95104 8.038933,10.25957 l 5.757735,13.56639 c 1.620484,3.81818 3.907974,5.46035 7.058719,6.3522 l 25.636847,7.25676 16.625627,0.52312 1.294076,-3.23746 0.537348,-5.92877 c 0.279005,-3.07837 3.569435,-4.25297 7.527038,-3.4322 l 10.475833,2.17261 32.48331,1.81981 c 3.09677,0.17349 6.11581,0.7116 8.96058,1.99916 l 15.3992,6.96978 8.08325,7.53623 12.81158,16.66258"
       id="path14359-1-7-5-3-0-73-1-9-8-5-14-9-9-0"
       inkscape:connector-curvature="0"
       sodipodi:nodetypes="cssssscccsscssccc" />
    <path
       style="fill:none;fill-opacity:1;stroke:#000000;stroke-width:1.33333;stroke-linecap:round;stroke-linejoin:round;stroke-miterlimit:4;stroke-dasharray:none;stroke-opacity:1"
       d="m 3.2055468,372.26354 8.6030392,27.78557 10.26009,18.9263 c 1.643616,3.0319 3.270002,4.9962 5.338039,6.97383 l 11.572799,11.06692 6.691368,3.50783 c 1.649432,0.86469 3.010684,1.52468 4.571934,1.52448 l 4.665705,-5.9e-4 9.113418,-8.23114 5.120531,-0.23094 2.604571,6.57115 0.397102,16.81963 c 0.06197,2.6249 2.901797,4.19008 5.373296,4.84184 l 12.242245,3.22841 c 2.488324,0.6562 4.384628,3.4183 4.210873,6.37221 l -0.704558,11.97776 c -0.270351,4.59608 1.485008,3.40225 2.482737,5.1763"
       id="path14359-1-7-5-3-0-73-1-9-8-5-14-9-9-3"
       inkscape:connector-curvature="0"
       sodipodi:nodetypes="ccsscssccccsssssc" />
    <path
       style="fill:none;fill-opacity:1;stroke:#000000;stroke-width:1.33333;stroke-linecap:round;stroke-linejoin:round;stroke-miterlimit:4;stroke-dasharray:none;stroke-opacity:1"
       d="m 479.76314,623.54261 14.43999,-18.92399 6.82819,-13.78215 7.409,-22.16363 2.76995,-23.50294 c 0.57529,-4.88136 0.81881,-10.18686 -0.41866,-15.12601 l -8.03395,-32.06606 -4.73884,-15.05712 c -1.33686,-4.24772 -3.17971,-8.1223 -3.40783,-12.29893 l -0.33679,-6.16629 c -0.19193,-3.51391 -4.15475,-14.33241 -4.1665,-17.24237 l -0.11379,-28.18435"
       id="path14359-1-7-5-3-0-73-1-9-8-5-14-9-9-9"
       inkscape:connector-curvature="0"
       sodipodi:nodetypes="ccccsscssssc" />
    <path
       style="fill:none;fill-opacity:1;stroke:#000000;stroke-width:1.33333;stroke-linecap:round;stroke-linejoin:round;stroke-miterlimit:4;stroke-dasharray:none;stroke-opacity:1"
       d="m 277.85967,54.381579 28.78556,27.993504 7.97163,5.187335"
       id="path14359-1-7-5-3-0-73-1-9-8-5-14-9-9-39"
       inkscape:connector-curvature="0"
       sodipodi:nodetypes="ccc" />
    <path
       style="fill:none;fill-opacity:1;stroke:#000000;stroke-width:1.33333;stroke-linecap:round;stroke-linejoin:round;stroke-miterlimit:4;stroke-dasharray:none;stroke-opacity:1"
       d="m 436.15853,54.179667 c 0.93079,3.596958 2.53433,7.675396 5.22245,10.236134 l 9.57391,9.120255 29.47121,13.58814 c 3.22845,1.488523 4.20998,-0.15386 5.91274,-0.208197 l 13.18343,-0.420702 c 2.1192,-0.06763 3.21755,1.799965 4.11089,3.526027 l 1.72306,3.329233"
       id="path14359-1-7-5-3-0-73-1-9-8-5-14-9-9-99"
       inkscape:connector-curvature="0"
       sodipodi:nodetypes="cscssssc" />
    <path
       style="fill:none;fill-opacity:1;stroke:#000000;stroke-width:2.66667;stroke-linecap:round;stroke-linejoin:round;stroke-miterlimit:4;stroke-dasharray:none;stroke-opacity:1"
       d="m 236.77263,350.07564 4.37111,26.14919 9.82874,8.81147 1.59463,-2.43687 c 2.8875,-6.8459 4.92541,-13.45581 11.30575,-21.27194 l -0.96487,-7.49255 -12.17053,-4.47408 -4.60335,0.23562 -6.92426,-1.6068 c -1.55756,-0.36143 -2.62106,0.98616 -2.43722,2.08596 z"
       id="path14359-1-7-5-3-0-73-1-9-8-5-14-9-9-36"
       inkscape:connector-curvature="0"
       sodipodi:nodetypes="scccccccss" />
    <path
       id="path5075"
       d="m 241.89973,348.84811 20.63782,13.34937"
       style="font-variation-settings:normal;opacity:1;vector-effect:none;fill:none;fill-opacity:1;stroke:#000000;stroke-width:1.33333;stroke-linecap:butt;stroke-linejoin:miter;stroke-miterlimit:4;stroke-dasharray:none;stroke-dashoffset:0;stroke-opacity:1;stop-color:#000000;stop-opacity:1" />
    <path
       id="path5077"
       d="m 236.98962,351.45661 23.09287,14.73033"
       style="font-variation-settings:normal;opacity:1;vector-effect:none;fill:none;fill-opacity:1;stroke:#000000;stroke-width:1.33333;stroke-linecap:butt;stroke-linejoin:miter;stroke-miterlimit:4;stroke-dasharray:none;stroke-dashoffset:0;stroke-opacity:1;stop-color:#000000;stop-opacity:1" />
    <path
       id="path5079"
       d="m 238.37059,358.97522 18.7198,12.04512"
       style="font-variation-settings:normal;opacity:1;vector-effect:none;fill:none;fill-opacity:1;stroke:#000000;stroke-width:1.33333;stroke-linecap:butt;stroke-linejoin:miter;stroke-miterlimit:4;stroke-dasharray:none;stroke-dashoffset:0;stroke-opacity:1;stop-color:#000000;stop-opacity:1" />
    <path
       id="path5081"
       d="m 239.5214,365.72662 15.57426,10.05039"
       style="font-variation-settings:normal;opacity:1;vector-effect:none;fill:none;fill-opacity:1;stroke:#000000;stroke-width:1.33333;stroke-linecap:butt;stroke-linejoin:miter;stroke-miterlimit:4;stroke-dasharray:none;stroke-dashoffset:0;stroke-opacity:1;stop-color:#000000;stop-opacity:1" />
    <path
       id="path5083"
       d="m 240.2886,372.4013 12.96577,8.13238"
       style="font-variation-settings:normal;opacity:1;vector-effect:none;fill:none;fill-opacity:1;stroke:#000000;stroke-width:1.33333;stroke-linecap:butt;stroke-linejoin:miter;stroke-miterlimit:4;stroke-dasharray:none;stroke-dashoffset:0;stroke-opacity:1;stop-color:#000000;stop-opacity:1" />
    <path
       style="font-variation-settings:normal;opacity:1;vector-effect:none;fill:#000000;fill-opacity:1;stroke:#000000;stroke-width:2;stroke-linecap:round;stroke-linejoin:round;stroke-miterlimit:4;stroke-dasharray:none;stroke-dashoffset:0;stroke-opacity:1;stop-color:#000000;stop-opacity:1"
       d="m 516.57141,771.418 -0.10041,-4.66918 -1.30536,-3.21319 -10.5433,-0.35145 -2.20907,2.05846 1.90784,2.15886 0.1004,4.0165 z"
       id="path6674"
       sodipodi:nodetypes="cccccccc" />
  </g>
</svg>
