<?xml version="1.0" encoding="UTF-8" standalone="no"?>
<!-- Created with Inkscape (http://www.inkscape.org/) -->

<svg
   xmlns:dc="http://purl.org/dc/elements/1.1/"
   xmlns:cc="http://creativecommons.org/ns#"
   xmlns:rdf="http://www.w3.org/1999/02/22-rdf-syntax-ns#"
   xmlns:svg="http://www.w3.org/2000/svg"
   xmlns="http://www.w3.org/2000/svg"
   xmlns:sodipodi="http://sodipodi.sourceforge.net/DTD/sodipodi-0.dtd"
   xmlns:inkscape="http://www.inkscape.org/namespaces/inkscape"
   version="1.1"
   id="svg10903"
   width="238.08"
   height="616.96002"
   viewBox="0 0 238.08 616.96002"
   sodipodi:docname="er27fe03.024.svg"
   inkscape:version="0.92.2 5c3e80d, 2017-08-06">
  <metadata
     id="metadata10909">
    <rdf:RDF>
      <cc:Work
         rdf:about="">
        <dc:format>image/svg+xml</dc:format>
        <dc:type
           rdf:resource="http://purl.org/dc/dcmitype/StillImage" />
        <dc:title></dc:title>
      </cc:Work>
    </rdf:RDF>
  </metadata>
  <defs
     id="defs10907" />
  <sodipodi:namedview
     pagecolor="#ffffff"
     bordercolor="#666666"
     borderopacity="1"
     objecttolerance="10"
     gridtolerance="10"
     guidetolerance="10"
     inkscape:pageopacity="0"
     inkscape:pageshadow="2"
     inkscape:window-width="1280"
     inkscape:window-height="756"
     id="namedview10905"
     showgrid="false"
     inkscape:snap-global="false"
     inkscape:zoom="2.2968088"
     inkscape:cx="125.2411"
     inkscape:cy="93.742244"
     inkscape:window-x="0"
     inkscape:window-y="0"
     inkscape:window-maximized="0"
     inkscape:current-layer="svg10903" />
  <path
     style="fill:none;stroke:#000000;stroke-width:1;stroke-linecap:round;stroke-linejoin:miter;stroke-miterlimit:4;stroke-dasharray:none;stroke-opacity:1"
     d="m 233.03165,614.74804 0.002,-612.2002256 H 4.7143049 l -0.002,612.2002256 z"
     id="path14359-1-7-5-3-0-73-1-9-8-5"
     inkscape:connector-curvature="0"
     sodipodi:nodetypes="ccccc" />
  <path
     style="fill:none;stroke:#000000;stroke-width:1;stroke-linecap:butt;stroke-linejoin:round;stroke-miterlimit:4;stroke-dasharray:none;stroke-opacity:1"
     d="m 4.4983248,48.045448 228.4323152,0.002"
     id="path14359-1-7-5-3-0-73-1-9-8-5-0"
     inkscape:connector-curvature="0"
     sodipodi:nodetypes="cc" />
  <path
     style="fill:none;stroke:#000000;stroke-width:1;stroke-linecap:butt;stroke-linejoin:round;stroke-miterlimit:4;stroke-dasharray:none;stroke-opacity:1"
     d="M 233.05293,439.75448 4.6206048,439.75248"
     id="path14359-1-7-5-3-0-73-1-9-8-5-5"
     inkscape:connector-curvature="0"
     sodipodi:nodetypes="cc" />
  <path
     style="fill:none;stroke:#000000;stroke-width:2;stroke-linecap:butt;stroke-linejoin:round;stroke-miterlimit:4;stroke-dasharray:none;stroke-opacity:1"
     d="m 50.384645,467.15996 0.002,-14.58935 h -26.78123 l -0.002,14.58935 z"
     id="path14359-1-7-5-3-0-73-1-9-8-5-27"
     inkscape:connector-curvature="0"
     sodipodi:nodetypes="ccccc" />
  <path
     style="fill:none;stroke:#000000;stroke-width:1;stroke-linecap:butt;stroke-linejoin:miter;stroke-miterlimit:4;stroke-dasharray:none;stroke-opacity:1"
     d="m 23.076265,471.1585 -0.002,14.54935 h 27.02581 l 0.002,-14.54935 z"
     id="path14359-1-7-5-3-0-73-1-9-8-5-3"
     inkscape:connector-curvature="0"
     sodipodi:nodetypes="ccccc" />
  <path
     style="fill:none;stroke:#000000;stroke-width:0.5;stroke-linecap:butt;stroke-linejoin:round;stroke-miterlimit:4;stroke-dasharray:0.5, 2;stroke-dashoffset:0;stroke-opacity:1"
     d="m 52.303605,499.56875 -10.4806,15.4595 -10.29065,-15.86459 -10.94454,15.51004"
     id="path14359-1-7-5-3-0-73-1-9-8-5-9"
     inkscape:connector-curvature="0"
     sodipodi:nodetypes="cccc" />
  <path
     style="fill:none;stroke:#000000;stroke-width:1;stroke-linecap:butt;stroke-linejoin:miter;stroke-miterlimit:4;stroke-dasharray:none;stroke-opacity:1"
     d="m 47.178375,471.20981 -0.002,14.3994"
     id="path14359-1-7-5-3-0-73-1-9-8-5-9-0"
     inkscape:connector-curvature="0"
     sodipodi:nodetypes="cc" />
  <path
     style="fill:none;stroke:#000000;stroke-width:1;stroke-linecap:butt;stroke-linejoin:miter;stroke-miterlimit:4;stroke-dasharray:none;stroke-opacity:1"
     d="m 42.069915,471.20981 -0.002,14.3994"
     id="path14359-1-7-5-3-0-73-1-9-8-5-9-2"
     inkscape:connector-curvature="0"
     sodipodi:nodetypes="cc" />
  <path
     style="fill:none;stroke:#000000;stroke-width:1;stroke-linecap:butt;stroke-linejoin:miter;stroke-miterlimit:4;stroke-dasharray:none;stroke-opacity:1"
     d="m 37.016375,471.20981 -0.002,14.3994"
     id="path14359-1-7-5-3-0-73-1-9-8-5-9-3"
     inkscape:connector-curvature="0"
     sodipodi:nodetypes="cc" />
  <path
     style="fill:none;stroke:#000000;stroke-width:1;stroke-linecap:butt;stroke-linejoin:miter;stroke-miterlimit:4;stroke-dasharray:none;stroke-opacity:1"
     d="m 31.743125,471.20981 -0.002,14.3994"
     id="path14359-1-7-5-3-0-73-1-9-8-5-9-9"
     inkscape:connector-curvature="0"
     sodipodi:nodetypes="cc" />
  <path
     style="fill:none;stroke:#000000;stroke-width:1;stroke-linecap:butt;stroke-linejoin:miter;stroke-miterlimit:4;stroke-dasharray:none;stroke-opacity:1"
     d="m 26.744525,471.20981 -0.002,14.3994"
     id="path14359-1-7-5-3-0-73-1-9-8-5-9-97"
     inkscape:connector-curvature="0"
     sodipodi:nodetypes="cc" />
  <path
     style="fill:none;stroke:#000000;stroke-width:1;stroke-linecap:round;stroke-linejoin:round;stroke-miterlimit:4;stroke-dasharray:none;stroke-opacity:1"
     d="m 52.303505,534.32523 -10.59777,15.62322 -10.39021,-15.97771 -10.5295,15.41094"
     id="path14359-1-7-5-3-0-73-1-9-8-5-9-03"
     inkscape:connector-curvature="0"
     sodipodi:nodetypes="cccc" />
  <path
     style="fill:none;stroke:#000000;stroke-width:0.5;stroke-linecap:round;stroke-linejoin:round;stroke-miterlimit:4;stroke-dasharray:none;stroke-opacity:1"
     d="m 52.888485,518.20504 -11.20951,16.12416 -10.42046,-16.09829 -9.64309,14.86847"
     id="path14359-1-7-5-3-0-73-1-9-8-5-9-03-9"
     inkscape:connector-curvature="0"
     sodipodi:nodetypes="cccc" />
  <path
     style="fill:none;stroke:#000000;stroke-width:0.5;stroke-linecap:round;stroke-linejoin:round;stroke-miterlimit:4;stroke-dasharray:none;stroke-opacity:1"
     d="m 51.420115,517.51327 -9.7034,14.61806 -10.57687,-16.02017 -11.15893,16.28398"
     id="path14359-1-7-5-3-0-73-1-9-8-5-9-03-8"
     inkscape:connector-curvature="0"
     sodipodi:nodetypes="cccc" />
  <path
     style="fill:none;stroke:#000000;stroke-width:1;stroke-linecap:round;stroke-linejoin:miter;stroke-miterlimit:4;stroke-dasharray:none;stroke-opacity:1"
     d="M 232.78481,529.24407 H 129.0414 l -0.002,85.43076"
     id="path14359-1-7-5-3-0-73-1-9-8-5-9-03-6"
     inkscape:connector-curvature="0"
     sodipodi:nodetypes="ccc" />
  <path
     style="fill:none;stroke:#000000;stroke-width:1;stroke-linecap:round;stroke-linejoin:round;stroke-miterlimit:4;stroke-dasharray:none;stroke-opacity:1"
     d="m 74.065385,574.17636 -0.002,5.64854 h -46.58345 l 0.002,-5.64854 z"
     id="path14359-1-7-5-3-0-73-1-9-8-5-9-03-62"
     inkscape:connector-curvature="0"
     sodipodi:nodetypes="ccccc" />
  <path
     style="fill:none;stroke:#000000;stroke-width:1;stroke-linecap:round;stroke-linejoin:round;stroke-miterlimit:4;stroke-dasharray:none;stroke-opacity:1"
     d="m 27.453515,577.12972 23.05738,0.002"
     id="path14359-1-7-5-3-0-73-1-9-8-5-9-03-0"
     inkscape:connector-curvature="0"
     sodipodi:nodetypes="cc" />
  <path
     style="fill:none;stroke:#000000;stroke-width:1;stroke-linecap:round;stroke-linejoin:round;stroke-miterlimit:4;stroke-dasharray:none;stroke-opacity:1"
     d="m 50.744645,574.30645 -0.002,5.45341"
     id="path14359-1-7-5-3-0-73-1-9-8-5-9-03-3"
     inkscape:connector-curvature="0"
     sodipodi:nodetypes="cc" />
  <path
     style="fill:none;stroke:#000000;stroke-width:1;stroke-linecap:round;stroke-linejoin:round;stroke-miterlimit:4;stroke-dasharray:none;stroke-opacity:1"
     d="m 56.711955,594.01025 -0.002,5.90871 h -29.02813 l 0.002,-5.90871 z"
     id="path14359-1-7-5-3-0-73-1-9-8-5-9-03-62-9"
     inkscape:connector-curvature="0"
     sodipodi:nodetypes="ccccc" />
  <path
     style="fill:none;stroke:#000000;stroke-width:1;stroke-linecap:round;stroke-linejoin:round;stroke-miterlimit:4;stroke-dasharray:none;stroke-opacity:1"
     d="m 27.655405,596.96361 14.15853,0.002"
     id="path14359-1-7-5-3-0-73-1-9-8-5-9-03-0-9"
     inkscape:connector-curvature="0"
     sodipodi:nodetypes="cc" />
  <path
     style="fill:none;stroke:#000000;stroke-width:1;stroke-linecap:round;stroke-linejoin:round;stroke-miterlimit:4;stroke-dasharray:none;stroke-opacity:1"
     d="m 42.047675,594.14034 -0.002,5.71358"
     id="path14359-1-7-5-3-0-73-1-9-8-5-9-03-3-9"
     inkscape:connector-curvature="0"
     sodipodi:nodetypes="cc" />
  <path
     style="fill:none;stroke:#000000;stroke-width:1px;stroke-linecap:round;stroke-linejoin:round;stroke-opacity:1"
     d="m 189.35458,545.08097 c -0.006,-4.30138 2.25655,-5.68644 5.87691,-3.87626 0.81846,0.40923 2.58431,-0.85432 3.0635,-0.37512 0.85849,0.85849 2.31069,1.18532 3.12602,2.00065 0.26471,0.2647 1.03361,-0.13966 1.31294,0 0.66688,0.33344 1.17444,1.80637 2.56333,2.50082 0.38082,0.1904 1.03556,-0.47288 1.18789,-0.62521 0.0888,-0.0888 0.73579,0 0.87529,0 0.50681,0 3.7957,-0.0806 3.93878,0.0625 0.31099,0.311 0.70885,0.54241 0.9378,1.00033 0.29004,0.58008 -0.1795,2.19627 0.25009,2.62585 0.17943,0.17944 0.48474,0.23466 0.68772,0.43765 0.10212,0.10211 0.0564,0.43153 0.18756,0.56268 0.26916,0.26916 3.52685,-0.53697 4.31391,0.25008 0.94805,0.94805 1.24884,2.24917 2.18821,3.18854 0.31168,0.31168 0.0297,1.09251 0.3126,1.37545 0.26917,0.26917 -0.17328,1.07713 0.18756,1.43797 0.57885,0.57884 1.20222,1.15402 1.62553,2.00065 0.14368,0.28735 0.007,1.13195 0.12504,1.25041 0.52259,0.52258 0.87307,0.68329 1.18789,1.31292 0.094,0.18806 0.2275,1.77316 0.0625,1.93814 -0.45222,0.45222 -1.05357,0.92852 -1.56301,1.43796 -0.45121,0.45121 -0.13482,1.8854 -0.56268,2.31326 -0.5783,0.5783 -1.08186,1.39446 -1.62553,1.93813 -0.37502,0.37502 -1.8569,-0.79405 -2.00065,-0.93781 -0.15161,-0.15161 -0.55829,0 -0.75025,0 -0.13472,0 -0.99864,0.25177 -1.12536,0.12504 -0.19558,-0.19557 -1.35041,-0.71276 -1.75057,-0.3126 -0.40221,0.40221 -0.91209,0.78705 -1.31293,1.18789 -0.33531,0.33531 -0.40104,1.02624 -0.75025,1.37545 -0.24252,0.24252 0.25627,0.80658 -0.0625,1.12536 -0.54672,0.54673 -1.04877,0.63535 -1.50049,1.31293"
     id="path6378"
     inkscape:connector-curvature="0"
     sodipodi:nodetypes="cscsccssccccccsccccccssscscssscc" />
  <path
     style="fill:none;stroke:#000000;stroke-width:1px;stroke-linecap:round;stroke-linejoin:round;stroke-opacity:1"
     d="m 222.05272,563.46196 c 0.25244,-0.75731 0.37513,-1.60513 0.37513,-2.56333 0,-0.0593 -0.0378,-0.33732 0,-0.37512 0.20298,-0.20299 0.2582,-0.50829 0.43764,-0.68773 0.16194,-0.16198 0.42827,-0.11566 0.56268,-0.25008 0.24015,-0.24015 -0.15318,-4.34205 -0.25008,-4.43895 -0.37092,-0.37091 -1.38809,-0.13768 -1.75057,-0.50016 -0.36026,-0.36026 0.45421,-1.48392 0.12504,-1.81309 -0.1678,-0.1678 -0.55971,-0.12206 -0.75024,-0.3126 -0.19157,-0.19157 0.0692,-1.30628 -0.43765,-1.81309 -0.20258,-0.20258 0.67973,-1.07084 0.25008,-1.50049 -0.69008,-0.69008 -1.32889,-1.57897 -2.00065,-2.25073 -0.35401,-0.35405 -1.29183,-0.10395 -1.62553,-0.43765 -0.23399,-0.23401 0.0382,-0.9622 -0.0625,-1.06284 -0.94509,-0.9451 -1.80717,-1.61961 -2.68837,-2.50082 -0.33707,-0.33707 -2.03544,1.40319 -2.62586,0.81277 -0.28018,-0.28018 -0.30654,-0.74419 -0.56268,-1.00033 -0.38906,-0.38906 -1.92392,0.32682 -2.4383,-0.18756 -0.22816,-0.22816 -0.0923,-0.9051 -0.37512,-1.18789 -0.18316,-0.18315 -0.53226,0.40555 -0.75024,0.18756 -0.46015,-0.46014 -1.0652,-0.87763 -1.62553,-1.43797 -0.44619,-0.44618 -0.87301,0.49789 -0.93781,0.56269 -0.47612,0.47612 -2.30992,0.68772 -3.0635,0.68772 -0.81858,0 -0.008,1.75877 -0.62521,2.37578 -0.52325,0.52325 -1.46026,-0.54261 -1.62553,-0.62521 -0.81862,-0.4093 -1.64409,0.79079 -2.18821,1.06285 -0.49584,0.24792 -1.79625,-0.1082 -2.06318,-0.37512 -0.43247,-0.43248 -3.19338,-0.12019 -3.43862,0.12504 -0.19008,0.19008 -0.17139,0.67155 -0.37512,0.87528 -0.20962,0.20962 -0.41131,0.43304 -0.81276,0.56269 -0.80823,-0.78056 -2.69717,0.30381 -3.43862,-0.43765 -0.47112,-0.47111 -0.46291,-1.27566 -0.87529,-1.68805 -0.25279,-0.25279 -1.67356,-0.62788 -2.61719,-0.57989 -0.96009,0.0488 -1.44165,0.52245 -1.50915,0.45485 -0.47496,-0.47495 -0.75962,-1.38481 -1.25041,-1.87561 -0.17174,-0.17174 -1.74676,-0.12885 -1.87561,0 -0.14557,0.14557 -0.33728,0.67537 -1.18789,0.25008 -0.11285,-0.0564 -2.33863,-0.0997 -2.37577,-0.0625 -0.41437,0.41437 -1.00403,0.44133 -1.43798,0.87529 -1.07431,1.07431 -2.44254,2.31537 -4.18887,3.18854 -0.89348,0.44674 -2.00161,0.50112 -2.68837,1.18788 -0.4954,0.49541 -0.82726,1.70254 -1.43797,2.31326 -0.2605,0.2605 -1.23999,-0.19798 -1.50049,0.0625 -0.92407,0.92407 -2.10124,0.97588 -2.87594,1.75057 -0.31681,0.31681 -1.40363,0.34082 -1.75057,0.68772 -0.48683,0.48683 -1.85086,0.41289 -2.37577,0.93781 -0.15691,0.15691 -0.90603,-0.0471 -1.12537,0.0625 -1.17636,0.58818 -3.28343,0.97019 -4.12633,1.81309 -2.00549,2.00549 -2.04211,6.41853 -3.50114,7.87757 -0.32117,0.32116 -0.0587,1.18409 -0.37513,1.50049 -0.55849,0.55848 -2.67717,2.45275 -3.00097,2.93845 -0.87217,1.26742 -2.18065,1.55547 -3.00098,2.3758 -0.61191,0.6119 0.12608,3.12497 -0.3126,3.56366 -0.5592,0.55919 -0.50017,1.53006 -0.50017,2.50081 0,0.24443 -0.36359,0.47711 -0.50016,0.75025 -0.10769,0.21538 0.13707,0.88732 0.25008,1.00032 0.39827,0.39828 -0.028,1.22238 0.37512,1.62553 0.73628,0.73628 2.03047,1.78039 2.68838,2.4383 0.28714,0.28714 0.40343,2.08558 0.56268,2.56333 0.34706,1.04118 1.30637,1.36889 1.93814,2.00065 0.45793,0.45794 1.75285,-0.49788 2.12569,-0.12504 1.2759,1.27591 1.60178,0.51955 2.93846,1.18789 0.28854,0.14427 0.64926,-0.20679 0.9378,-0.0625 0.37306,0.18653 0.70603,0.83107 0.93781,1.06285 0.42528,0.42528 1.60463,0.39594 2.06316,0.6252 0.77597,0.38798 3.84981,-0.27653 4.37642,0.25008 0.27316,0.27316 0.65597,0.53093 0.93781,0.81277 0.61485,0.61485 0.7771,1.7149 1.37545,2.31325 0.39553,0.39553 2.25073,-0.55198 2.25073,1.68805 0.55609,1.09533 0.99189,2.05471 1.75057,2.8134 0.16672,0.16672 0.0208,0.64604 0.18756,0.81276 0.97556,0.97556 2.98753,1.17444 4.12635,2.31326 0.23891,0.23891 0.23889,0.67063 0.50016,0.87528 0.98315,0.77009 2.31532,-1.74183 2.4383,-1.50049 0.11799,0.11799 0.38217,0.19461 0.50016,0.3126 0.0729,0.0729 -0.0729,0.36471 0,0.43765 0.15137,0.15137 2.55827,0.11997 3.06351,0.6252 0.46665,0.46666 2.13933,1.22597 2.81341,1.56301 0.82753,0.41376 1.05066,-0.63739 2.93846,0.0625 0.77687,0.0266 1.58854,0.84976 1.93813,0.50016 0.35059,-0.35058 1.37626,-1.34378 2.31326,-0.87528 0.51897,0.25949 1.70281,0.3274 2.06317,0.68772 0.92676,0.23905 2.55121,-0.0746 3.31358,0.68773 0.16672,0.16672 0.8336,-0.16672 1.00032,0 0.72807,0.72806 2.53598,0.84792 3.25106,1.56301 0.18264,0.18263 1.00261,0.18908 1.18789,0.3126 0.56861,0.0204 0.79805,-0.36039 1.06285,-0.62519 0.13948,-0.13948 0.67639,0.0113 0.81276,-0.12504 0.37233,-0.37233 0.68591,-0.68591 1.00033,-1.00032 0.29734,-0.29734 0.93422,0.0661 1.18789,-0.18756 0.29697,-0.29697 0.22235,-0.63226 0.43765,-1.06285 0.26352,-0.52705 1.49675,-0.62147 2.00065,-1.12537 0.43032,-0.43032 0.71094,-1.08606 1.12537,-1.50049 0.35283,-0.35283 1.43943,-10e-4 1.81309,-0.37512 0.18171,-0.18171 -0.13576,-0.92709 0.0625,-1.12537 0.48066,-0.48066 1.03359,-1.09611 1.43797,-1.50048 0.5943,-0.59431 1.43372,-0.62096 2.00065,-1.18789 0.37833,-0.37833 0.73915,-0.80167 1.06284,-1.12537 0.27251,-0.27251 0.88235,-0.0696 1.12537,-0.3126 0.489,-0.489 0.75658,-1.00666 1.18789,-1.43797 0.39168,-0.39168 -0.68773,-1.27482 -0.68773,-1.50049 0,-0.71749 -2.79377,-2.04353 -3.3761,-2.62585 -0.25957,-0.25958 -0.5264,-1.16474 -0.6252,-1.31293"
     id="path6380"
     inkscape:connector-curvature="0"
     sodipodi:nodetypes="csccccssccsccccssscccssccsccscccsccscscccccccccscccccssccssccscscssscccsscscccccccscccsccccsscccsccsscc" />
  <path
     style="fill:none;stroke:#000000;stroke-width:1px;stroke-linecap:round;stroke-linejoin:round;stroke-opacity:1"
     d="m 204.79712,570.08912 c 1.80639,-0.67298 1.53896,0.10099 2.4383,1.00033 0.31371,0.31371 1.60389,-0.29216 2.06317,-0.0625 0.32916,0.16458 0.22638,0.35142 0.43764,0.56268 0.23716,0.23716 0.88454,-0.11578 1.06285,0.0625 0.22043,0.22044 0.52673,0.7143 0.75024,0.93781 0.89899,0.89899 2.81876,-0.99499 3.75122,-0.0625 0.17007,0.17006 0.53278,-0.24738 0.81277,0.3126 0.32438,0.64877 -0.37731,2.37796 -0.62521,2.62586 -0.057,0.057 0,0.47313 0,0.56268 0,1.51633 0.22113,1.06745 0.81277,2.25073 0.13734,0.27469 0.048,0.65872 0.18756,0.93781 0.19101,0.38202 -0.17228,1.67277 -0.37512,1.87561 -0.21606,0.21606 0.26909,0.85627 0.12504,1.00032 -0.14588,0.14589 -0.4168,0.16673 -0.56268,0.31261 -0.0908,0.0908 0.21819,0.28071 0.25008,0.3126 0.66863,0.66863 1.00032,0.49709 1.00032,1.68805 0,0.26069 0.12906,0.49213 0,0.75024 -0.40341,0.80683 0.4144,3.02423 -0.18756,3.62618 -0.47547,0.47547 -2.14216,-0.48369 -2.50081,-0.12504 -0.31347,0.31347 -0.57578,0.82586 -0.87529,1.12537 -0.38609,0.38609 -2.42652,1.60016 -3.00098,1.31293 -0.11037,-0.0552 -0.62209,-0.31571 -0.68772,-0.25008 -0.0279,0.0279 0.5498,0.13792 0.6252,0.0625 0.008,-0.008 0.33104,-0.43765 0.37513,-0.43765 0.0957,0 0.3997,0.4812 0.56268,0.56269 0.71744,0.35872 1.33985,-1.46489 1.68805,-1.81309 0.0938,-0.0938 -0.0313,-0.40639 0.0625,-0.50017 0.86099,-0.86098 -1.75406,-2.8991 -2.00065,-3.06349"
     id="path6382"
     inkscape:connector-curvature="0"
     sodipodi:nodetypes="cscscsccssccscsssccsscscssscc" />
  <path
     style="fill:none;stroke:#000000;stroke-width:1px;stroke-linecap:round;stroke-linejoin:round;stroke-opacity:1"
     d="m 219.42689,568.15099 c 0.14477,0.77013 -0.005,1.81819 -0.43764,2.25073 -0.0868,0.0867 -0.28376,0.005 -0.37513,0.18757 -0.0837,0.1674 0.20673,0.41848 0.0625,0.56268 -0.4529,0.4529 -1.35101,0.60077 -1.81309,1.06285 -0.33677,0.33677 -0.48528,0.79788 -0.81276,1.12536 -0.57992,0.57992 0.65344,2.5351 0.18756,3.00098 -0.39231,0.39231 -0.23436,1.35972 -0.62521,1.75057 -0.52155,0.52155 -0.43884,1.87682 -1.06284,2.50082 -0.55743,0.55743 -0.87335,1.18595 -1.31293,1.62553 -0.16868,0.16868 -0.48919,0.0883 -0.68772,0.18756 -1.80265,0.90132 -2.39127,-1.70354 -3.50114,-2.81342 -0.28135,-0.28134 -0.0938,-1.03159 -0.37513,-1.31293 -0.13441,-0.13441 -0.33822,-0.15066 -0.50016,-0.3126 -0.8153,-0.8153 0.54085,-1.66622 0.87529,-2.00065 0.15028,-0.15028 0.27532,-0.77549 0.12504,-0.62521 -0.0974,0.0974 -0.27624,0.61499 -0.37513,0.81277 -0.1526,0.30522 -0.57485,0.38729 -0.75024,0.56268 -0.25145,0.25146 1.37752,4.0659 1.62553,4.31391 0.33824,0.33824 0.94451,0.81947 1.31293,1.18789 0.18873,0.18873 -0.0636,0.81068 0.0625,1.06284 0.14077,0.28155 0.39357,1.73212 0.25008,1.87561 -0.60663,0.60663 -2.36969,0.61912 -2.81342,1.06285 -0.30549,0.3055 -2.40109,1.26307 -2.87593,1.50049 -0.4736,0.2368 -4.78808,0.10678 -5.25173,-0.12504 -0.46882,-0.23441 -0.85699,0.25008 -1.18788,0.25008 -0.75176,0 -2.29176,-0.58419 -3.00098,0.12504 -0.48491,0.48491 -0.91334,0.91333 -1.43797,1.43797 -0.10004,0.10004 0.0625,0.46936 0.0625,0.50016 0,0.87106 -0.18756,1.56406 -0.18756,2.4383 0,0.51273 -0.40938,0.34686 -0.68772,0.6252 -0.0808,0.0807 -0.21007,1.72807 -0.0625,1.87561 0.16864,0.16865 0.65332,1.8068 0.81276,2.12569 0.10873,0.21745 -0.053,0.55319 -0.12504,0.62521 -0.47623,0.47623 0.24958,3.00247 0.12504,3.3761"
     id="path6384"
     inkscape:connector-curvature="0"
     sodipodi:nodetypes="ccccsssssscccscsccsscscscsccssccccc" />
  <path
     style="fill:none;stroke:#000000;stroke-width:1px;stroke-linecap:round;stroke-linejoin:round;stroke-opacity:1"
     d="m 211.4868,584.59385 h 2.62586 c 0.0175,0 0.3126,-0.0949 0.3126,-0.0625 0,0.0721 -0.77786,0.0901 -1.06285,0.37512 -0.42034,0.42034 0.0757,1.78345 -0.81276,2.37578"
     id="path6386"
     inkscape:connector-curvature="0"
     sodipodi:nodetypes="csscc" />
  <path
     style="fill:none;stroke:#000000;stroke-width:1px;stroke-linecap:round;stroke-linejoin:round;stroke-opacity:1"
     d="m 161.09536,589.40792 c 0.88424,0.28437 1.78895,0.47602 2.4383,1.12536 0.62379,0.6238 0.79375,1.544 1.37544,2.1257 0.33535,0.33535 1.06107,0.5609 1.37545,0.87528 0.71169,0.7117 1.79037,1.66533 2.62586,2.50082 0.29079,0.29079 0.88189,0.3192 1.18788,0.6252 0.37128,0.37128 2.3266,0.38847 3.12602,1.18789 0.0834,0.0834 0.35428,-0.0208 0.43765,0.0625 0.33778,0.33779 2.01202,-0.18188 2.50082,0.0625 0.31248,0.15624 0.7336,0.0542 1.00033,0.18756 0.26741,0.13371 0.45379,0.45379 0.6252,0.6252 0.14226,0.14226 1.72963,0.29182 1.93813,0.18756 0.95256,-0.47627 2.47594,-4.63479 3.43862,-4.3139"
     id="path6388"
     inkscape:connector-curvature="0"
     sodipodi:nodetypes="ccccscscccscc" />
  <path
     style="fill:none;stroke:#000000;stroke-width:1px;stroke-linecap:round;stroke-linejoin:round;stroke-opacity:1"
     d="m 175.72514,597.66061 c 0.78712,-0.97696 3.31051,-1.87254 4.06382,-2.62586 0.20847,-0.20847 2.12098,-0.0914 2.56334,-0.3126 0.70744,-0.35372 1.92159,0.28961 2.62585,-0.0625 0.5766,-0.2883 3.29232,-0.20883 3.6887,0.18756 0.78101,0.781 2.21808,0.96767 2.25074,1.00033 0.88574,0.88574 1.57203,2.18821 3.25106,2.18821"
     id="path6390"
     inkscape:connector-curvature="0"
     sodipodi:nodetypes="cccccsc" />
  <path
     style="fill:none;stroke:#000000;stroke-width:1px;stroke-linecap:round;stroke-linejoin:round;stroke-opacity:1"
     d="m 189.35458,595.03475 c 2.59246,-0.45889 2.08051,-2.76823 3.43862,-4.12634 0.41711,-0.41711 1.35984,-0.44808 1.81309,-0.75025"
     id="path6392"
     inkscape:connector-curvature="0"
     sodipodi:nodetypes="csc" />
  <path
     style="fill:none;stroke:#000000;stroke-width:1px;stroke-linecap:round;stroke-linejoin:round;stroke-opacity:1"
     d="m 142.52682,574.27799 c 0.76364,0.65364 -0.25134,2.24947 0.3126,2.81341 2.36374,2.36374 5.77739,8.34456 8.50277,9.25302"
     id="path6394"
     inkscape:connector-curvature="0"
     sodipodi:nodetypes="csc" />
  <path
     style="fill:none;stroke:#000000;stroke-width:1px;stroke-linecap:round;stroke-linejoin:round;stroke-opacity:1"
     d="m 166.40959,554.45903 c -1.55092,-0.20805 -1.31349,0.56381 -1.75057,1.43797 -0.11777,0.23555 -0.56511,0.50259 -0.75024,0.68772 -0.18788,0.18788 0.0371,0.71312 -0.12504,0.87529 -0.52852,0.52851 -1.36962,0.74442 -1.81309,1.18789 -0.2488,0.24879 -2.54513,4.39463 -2.1257,4.81406 0.24211,0.24211 0.0819,0.9572 0.31261,1.18789 0.63219,0.6322 0.99115,1.92897 1.62552,2.56334 0.28033,0.28032 0.0536,0.92891 0.31261,1.18788 0.59214,0.59215 -0.68634,2.1896 -0.0625,2.81342 0.081,0.081 1.01446,0.86115 0.6252,1.25041 -0.21154,0.21153 -0.62922,0.44165 -0.87529,0.68772 -0.44254,0.44254 -0.29308,1.54349 -0.75024,2.00065 -0.2152,0.21521 -2.38938,5.30063 -1.75057,5.93944 0.48613,0.48613 0.44797,1.88594 1.00033,2.43829 0.44151,0.44151 0.64669,0.89677 1.00032,1.25041 0.13546,0.13546 0.48974,0.0521 0.62521,0.18756 0.39049,0.3905 0.11251,2.32578 -0.25009,2.68838 -0.31559,0.31559 -0.97353,0.57459 -1.31292,0.68772"
     id="path6396"
     inkscape:connector-curvature="0"
     sodipodi:nodetypes="ccsccscccccscscccsc" />
  <path
     style="fill:#000000;fill-opacity:1;stroke:#000000;stroke-width:0.5;stroke-linecap:round;stroke-linejoin:round;stroke-miterlimit:4;stroke-dasharray:none;stroke-opacity:1"
     d="m 140.30282,602.38031 4.78394,1.3577 -4.52614,-13.21919 0.17901,-0.54524 5.04466,14.37397 -4.78394,-1.35771 -5.03477,1.52492 0.29767,-0.90671 z"
     id="path14359-1-7-5-3-0-73-1-9-8-5-89-7"
     inkscape:connector-curvature="0"
     sodipodi:nodetypes="ccccccccc" />
  <path
     style="fill:none;stroke:#000000;stroke-width:0.5;stroke-linecap:round;stroke-linejoin:round;stroke-miterlimit:4;stroke-dasharray:none;stroke-opacity:1"
     d="m 145.08676,603.73801 -4.93319,-14.45758 -4.88552,14.62479 5.03477,-1.52491 z"
     id="path14359-1-7-5-3-0-73-1-9-8-5-89"
     inkscape:connector-curvature="0"
     sodipodi:nodetypes="ccccc" />
  <path
     style="fill:none;stroke:#000000;stroke-width:2;stroke-linecap:round;stroke-linejoin:round;stroke-miterlimit:4;stroke-dasharray:none;stroke-opacity:1"
     d="m 197.5428,585.42533 -0.002,18.02053 h 19.18782 l 0.002,-18.02053 z"
     id="path14359-1-7-5-3-0-73-1-9-8-5-2"
     inkscape:connector-curvature="0"
     sodipodi:nodetypes="ccccc" />
  <path
     style="fill:#000000;fill-opacity:1;stroke:#000000;stroke-width:1px;stroke-linecap:round;stroke-linejoin:round;stroke-opacity:1"
     d="m 206.60661,594.44147 c 1.15384,0.14783 1.3572,-1.38447 1.70673,-0.0256 0.11833,0.46004 -0.859,0.30784 -1.6298,0.73234 -0.68011,0.37456 -1.14451,1.18397 -1.67225,1.14319 -0.59827,-0.0462 -0.47336,-0.9266 -0.89865,-1.23706 -0.50741,-0.37041 -1.50877,-0.19741 -1.48047,-0.50965 0.0374,-0.41306 0.83478,-0.84516 1.98413,-0.85998 0.96388,-0.0124 1.3916,0.68006 1.99031,0.75676 z"
     id="path9104"
     inkscape:connector-curvature="0"
     sodipodi:nodetypes="ssssssss" />
  <path
     style="fill:none;stroke:#000000;stroke-width:0.5;stroke-linecap:butt;stroke-linejoin:round;stroke-miterlimit:4;stroke-dasharray:0.5, 2;stroke-dashoffset:0;stroke-opacity:1"
     d="m 4.6798249,231.3336 1.7987,-0.11835 c 1.00537,0.88661 1.90491,-0.92641 2.64675,-0.55548 0.3163,0.15814 0.1888,1.13442 0.37826,1.32387 0.6095701,0.60958 2.6102201,0.0375 3.0260101,-0.37825 0.69152,-0.69152 1.57078,1.15315 1.98581,0.94563 0.9228,-0.4614 1.5453,-1.24546 2.45864,-1.70213 1.01573,-0.50787 1.7711,1.7711 2.17494,2.17495 0.50867,0.50866 1.33317,0.4821 1.79669,0.94562 0.41842,0.41842 1.132,-2.03448 1.98582,-1.60756 0.84472,0.42235 0.60261,1.64279 1.13476,2.17494 0.48364,0.48364 2.72557,-0.67869 3.21513,-0.18913 0.2482,0.24821 0.26379,0.8884 0.56738,1.0402 0.28771,0.14385 0.75274,0.27992 0.94563,0.47281 0.0571,0.0571 0.4777,0 0.56737,0 1.81777,0 0.65038,-1.87969 1.60757,-2.83688 0.11604,-0.11604 0.66604,0.37415 0.7565,0.28368 0.15514,-0.15514 0.43338,-0.72894 0.94563,-0.47281 0.1896,0.0948 1.07274,1.48046 1.70213,0.85107 0.10754,-0.10755 1.14863,-1.21544 1.51301,-0.85107 0.51884,0.51885 0.81042,1.75605 1.41844,2.36407 1.02649,1.0265 5.93893,0.97097 7.56502,1.513 1.0153,0.93498 3.65854,-1.06959 4.34989,-0.37825 1.14939,1.14939 8.51931,0.37393 10.02366,-0.37825 0.30224,-0.15112 2.27437,-0.84619 2.64776,-0.47281 0.29891,0.29891 1.0778,0.41586 1.32387,0.66194 0.20489,0.20488 -0.20488,1.02443 0,1.22931 0.52911,0.52911 5.83182,0.88281 6.90309,1.41845 0.51869,0.25934 2.06442,-0.39421 2.45863,0 0.49584,0.49584 8.00316,0.15444 8.98347,1.13475 0.4442,0.44421 4.0662,-0.0946 4.25532,-0.28369 0.23945,-0.23944 1.10677,0.0613 1.41845,-0.0946 1.14702,-0.57351 4.55842,-1.40874 5.86289,-0.7565 0.40726,0.20363 0.81888,0.81888 1.13475,1.13475 0.31157,0.31157 1.04509,0.38315 1.32388,0.66194 0.38391,0.38391 1.80226,0.33932 2.26951,1.04019 2.420695,0.79589 5.552615,2.23556 8.321515,0.85111 0.45721,-0.22861 1.5492,0.43662 1.89126,0.0946 0.52862,-0.52862 2.11186,-1.97008 3.40426,-1.32388 0.82256,0.41128 2.16808,-0.39199 2.5532,0.37825 0.16035,0.32072 2.55238,2.45944 3.49882,1.513 0.35598,-0.35598 5.74766,-1.91192 5.95745,-1.70213 0.40863,0.40863 -4.49164,2.60039 -4.8227,2.93145 -0.80323,0.80323 -1.58466,2.15204 -2.45863,3.02601 -0.6239,0.6239 -4.78998,0.34553 -5.57921,1.13475 -0.80584,0.80585 -2.48589,0.78376 -3.40426,1.70213 -0.93028,0.93028 -1.75268,2.13094 -2.93144,3.3097 -1.82674,1.82674 -0.18913,2.49994 -0.18913,4.16077 0,0.63142 -1.58742,1.17504 -1.513,1.32387 0.46348,0.92697 2.26062,1.42733 0.94562,2.74233 -0.52018,0.52018 -5.907085,2.50898 -4.822695,3.59338 0.48858,0.48858 0.0788,1.8755 0.56738,2.36407 0.7547,0.75471 2.539765,0.64851 3.498815,1.60757 1.30385,1.30385 -1.3226,3.68539 -1.41844,3.87707 -0.34306,0.68612 0.72001,2.11688 0.0946,2.74233 -0.5985,0.5985 -1.723365,0.58861 -2.364065,1.22931 -0.177,0.177 -3.54678,-1.75009 -3.68794,-1.89125 -0.4032,-0.4032 -0.45768,-1.29361 -0.75651,-1.89126 -0.89347,-1.78695 1.73326,-2.99488 0.85107,-3.87707 -0.20489,-0.20489 -0.83531,0.0158 -1.04019,-0.18913 -0.19199,-0.19199 0.0381,-0.81297 -0.18913,-1.04019 -0.81007,-0.81008 -1.41231,1.32694 -2.36407,0.85106 -0.96603,-0.48301 -1.25392,-1.15935 -1.98582,-1.89125 -0.23362,-0.23362 -0.87876,0.21682 -0.94562,0.28369 -3.39588,3.45796 -0.68516,-1.46483 -1.1348,-2.36411 -0.27281,-1.18313 -0.5576,-2.89572 -1.61696,-3.4254 -0.35721,-0.1786 -0.67823,-0.81258 -0.70484,-0.70484 0.0281,-0.12109 -1.30485,-0.81688 -1.78922,-1.30125 -0.0764,-0.20271 -0.30306,-0.19462 -0.37954,-0.2711 -0.93004,-0.93004 -0.68575,-0.64108 -1.89766,-1.24703 -0.59675,-0.29838 -1.84332,0.27121 -2.27719,-0.16266 -1.00184,-1.00184 -0.29347,-3.38394 -1.30125,-4.39173 -0.90049,-0.90049 -2.15228,-0.9677 -3.36157,-1.57234 -0.82545,-0.41273 -0.8834,-1.98694 -1.78922,-2.43985 -0.3809,-0.19045 -1.33477,-0.2504 -1.62657,-0.54219 -0.32161,-0.32161 -0.98204,-0.4368 -1.40969,-0.65062 -1.08972,-0.54486 -1.97543,-1.20514 -3.84953,-1.21993 -0.59399,-0.005 -1.71068,-1.37041 -2.06032,-1.54524 -1.28103,-0.64051 -2.585869,1.58979 -3.946869,0.90929 -0.86174,-0.43087 -1.77194,-1.08438 -2.98204,-1.08438 -0.77678,0 -2.65833,1.57154 -3.19891,1.30125 -0.35085,-0.17542 -1.21785,-0.56723 -1.46391,-0.81328 -0.0183,-0.0183 -1.89561,0.24757 -2.25008,0.21687 0.0521,0.008 -0.51739,0.10844 -0.94883,0.10844 -0.52941,0 -0.96371,0.2291 -1.40969,-0.21687 -0.62532,-0.62532 -1.60146,-1.27615 -2.22297,-1.89766 -0.27488,-0.27488 -1.301321,-0.7624 -1.691891,-0.90929 -1.04193,-0.006 -1.4683,0.3004 -2.16876,0.65063 -0.25815,0.12908 -1.0376,-0.004 -1.24703,-0.10844 -1.10494,-0.55247 -2.45063,0.94328 -2.76516,1.57235 -0.27215,0.54429 -0.0741,1.32118 -0.48797,1.735 -0.51873,0.51873 -1.42404,0.88185 -1.95188,1.40969 -0.51635,0.51635 -0.5031,1.53326 -0.92172,1.95188 -0.11854,0.11854 -0.26337,3.31508 -0.59641,2.98204 -0.77371,-0.77371 -1.49946,-2.45674 -2.0061,-3.47001 -0.11979,-0.23958 -0.12341,-0.66559 -0.32531,-0.8675 -0.28573,-0.28573 -0.87419,0.40999 -1.03016,0.48797 -0.32487,0.16243 -0.86681,0.0539 -1.08438,0.16266 -0.38192,0.19096 -1.12205,0.6883 -1.4639,1.03015 -0.47403,0.47403 -0.48848,1.30176 -0.86751,1.68079 -0.53718,0.53718 -1.33402,-2.13598 -2.00609,-1.46391 -0.25195,0.25195 -0.5147,3.71361 -0.65063,3.84954 -0.36309,0.36309 -1.45063,-1.88439 -1.62657,-2.06032 -0.88619,-0.88619 -0.86968,-0.8957 -2.00609,-1.46391 -0.45322,-0.2266 -1.5542,0.56034 -1.73501,0.37953 -0.4357,-0.4357 -0.16383,-4.82665 -0.32531,-4.98813 -0.51683,-0.51683 -2.1606,-0.74276 -2.54828,-1.51813 -0.36347,-0.72693 0.2917,-1.80222 -0.0542,-2.49406 -0.27238,-0.54474 -0.56665,-0.75377 -0.81329,-1.24704 -0.11622,-0.23244 0.87758,-3.02618 0.21688,-3.68688 -0.20367,-0.20367 -1.57346,-1.60001 -1.84344,-1.735 -0.0643,-0.0321 -1.20372,1.18191 -1.73501,0.65062 -0.49608,-0.49608 -1.24712,-0.7591 -2.0060901,-1.13859 -0.1477,-0.0738 -0.39362,0.0201 -0.54219,-0.0542 -0.98632,-0.49316 -3.25891,-1.19089 -4.22907,-0.8675"
     id="path14359-1-7-5-3-0-73-1-9-8-5-7"
     inkscape:connector-curvature="0"
     sodipodi:nodetypes="ccccccccccccccsccsccccccccccccccccccccscsssscssscscccscscsccccccccccccccccccsccscccscccccccsssccccssssccsscccscsccc" />
  <path
     style="fill:none;stroke:#000000;stroke-width:0.5;stroke-linecap:butt;stroke-linejoin:miter;stroke-miterlimit:4;stroke-dasharray:0.5, 2;stroke-dashoffset:0;stroke-opacity:1"
     d="m 85.479725,246.35164 c -0.2917,-0.71627 -2.50679,0.0957 -1.89766,0.70485 1.21349,1.21349 2.87988,1.58491 3.7411,3.30734 0.86702,1.73405 -0.42456,4.29249 0.97594,5.69298 0.1711,0.17111 0.83867,0.36512 1.08437,0.48797 1.99434,0.99717 3.97617,2.59341 6.34361,1.40969 0.90882,-0.45441 1.06061,0.75239 1.89766,-0.92172 0.0804,-0.16075 0.84729,-2.75137 0.75906,-2.92781 -0.18303,-0.36607 -1.77089,-0.7774 -1.40969,-1.1386 0.18911,-0.18911 0.81707,0.10465 1.03016,-0.10844 0.40439,-0.40438 1.03504,-1.73012 0.32531,-2.43985 -1.30843,-1.30843 -1.0481,1.82549 -1.78922,1.08438 -0.47866,-0.47866 -0.54022,-1.13663 -0.8675,-1.46391 -0.32498,-0.32498 -1.30228,-0.27212 -1.68078,-0.65062 -0.40265,-0.40265 -1.05124,-0.7425 -1.62657,-1.03016 -0.2324,-0.11621 -0.91104,0.0649 -1.08438,-0.10844 -0.24311,-0.24311 -3.04871,-1.04262 -3.79532,-1.78922 -0.547,-0.54701 -1.42156,0.18382 -2.00609,-0.10844 z"
     id="path10585"
     inkscape:connector-curvature="0"
     sodipodi:nodetypes="ccccssccscscsscscc" />
  <path
     style="fill:none;stroke:#000000;stroke-width:0.5;stroke-linecap:butt;stroke-linejoin:miter;stroke-miterlimit:4;stroke-dasharray:0.5, 2;stroke-dashoffset:0;stroke-opacity:1"
     d="m 157.75344,229.43536 c -0.64258,-0.15125 -1.05306,-1.04161 -1.57234,-1.30125 -1.84864,-0.92432 -2.34462,2.72415 -2.98204,3.36157 -0.27367,0.27366 -0.78792,0.0831 -1.08438,0.37953 -0.76392,0.76392 -1.39129,1.23783 -2.38563,1.735 -0.21422,0.10711 -0.41029,0.57295 -0.54219,0.70485 -0.83601,0.83601 -2.3201,-2.71095 -3.19891,-2.71095 -1.05593,0 -2.80292,-0.55041 -3.79532,-0.0542 -0.39454,0.19727 -0.81328,0.45183 -1.24703,0.59641 -0.34498,0.11499 -0.81532,0.32939 -0.97594,0.65063 -0.54981,1.09961 0.088,2.24343 -0.81328,3.14469 -0.43858,0.43858 -1.34305,0.42132 -1.73501,0.81328 -0.0502,0.0502 -0.64981,0.543 -0.70484,0.48797 -0.34505,-0.34504 -1.4805,-1.01356 -2.06032,-0.43375 -0.30098,0.30099 -0.0137,0.84077 -0.21687,1.24704 -0.21402,0.42804 -0.78876,0.24657 -1.08438,0.54218 -0.63964,0.63965 -0.94057,1.55467 -1.84344,2.0061 -1.03315,0.51657 -3.51859,3.36721 -2.22297,4.66282 0.66166,0.66167 2.35842,-0.12204 3.25313,0.32532 0.82884,0.41442 1.57544,1.05881 2.38563,1.46391 0.8161,0.40804 1.71519,0.5865 2.49406,0.97593 0.54123,0.27062 1.2243,-0.44512 1.68079,-0.21687 1.25098,0.62549 2.24841,0.78784 3.30735,-0.2711 0.72056,-0.72056 1.19749,2.3833 1.51813,2.22298 0.12836,-0.0642 0.30361,-0.41205 0.43375,-0.54219 1.33395,-1.33396 -0.47993,-2.61055 0,-3.09048 0.48232,-0.48232 1.52692,-0.44254 2.00609,-0.92172 0.36949,-0.36948 0.92587,-1.00512 1.40969,-1.24703 0.26162,-0.1308 0.60988,-0.0881 0.86751,-0.21687 0.20815,-0.10408 0.45713,-0.47256 0.70484,-0.59641 0.3995,-0.19975 0.81328,1.03074 0.81328,1.24703 0,0.48174 0.34965,0.62074 0.65063,0.92172 0.2586,0.2586 0.53995,0.32419 0.8675,0.48797 0.4432,0.2216 0.79567,1.12098 1.08438,1.40969 0.45026,0.45027 0.0627,1.41816 0.48797,1.84344 0.23542,0.23543 0.37952,0.2711 0.81328,0.2711 0.29436,0 1.45869,-1.13338 1.62657,-1.30126 0.13367,-0.13367 2.76964,0.0497 3.57844,-0.75906 0.64969,-0.64969 0.36965,-2.97215 0.70485,-3.30735 0.53405,-0.53405 2.40592,-1.88751 3.36156,-1.40969 1.45673,0.72836 1.49469,2.03687 2.43985,2.98204 0.22622,0.22622 0.18527,0.78167 0.37953,0.97594 0.14893,0.14892 0.55624,0.0816 0.75907,0.21687 0.7584,-0.0591 5.10831,0.69309 5.42188,0.37951 0.22564,-0.22563 0.37696,-0.32402 0.70485,-0.48797 0.78809,-0.39404 1.31527,0.14864 2.22297,-0.75906 0.51012,-0.51012 2.95567,0.89387 3.7411,0.10844 0.49001,-0.49001 -1.87032,-0.9486 -1.89766,-0.97594 -0.23373,-0.23374 -0.0844,-0.74703 -0.43375,-0.92172 -1.14635,-0.57318 -0.87784,-0.33566 -1.62656,-1.08438 -0.66996,-0.66995 -0.008,-0.2333 -0.37954,-0.97594 -0.46583,-0.93167 -2.28826,-1.49599 -1.46391,-3.14469 0.587,-1.17399 1.70408,0.83657 2.22298,1.35547 0.312,0.312 0.50828,-0.50157 0.37953,-0.75906 -0.82029,-1.64058 -3.5185,-2.77661 -2.33141,-5.15079 0.28252,-0.56506 -0.0948,-1.31493 0.37953,-1.78923 0.36791,-0.36791 0.56408,-0.70484 1.24703,-0.70484 0.37253,0 1.15488,0.84853 1.62657,1.08438 0.64739,0.32369 1.42917,0.22661 2.06032,0.54218 1.04235,0.52118 1.77043,-1.14799 2.76516,-0.65062 0.38591,0.19295 0.5685,0.6594 1.03016,0.81328 0.28139,0.0938 1.45546,0.26687 1.57234,0.32531 0.8689,0.43445 2.42411,1.47966 3.36157,0.54219 0.33676,-0.33675 1.09287,-0.72182 1.40969,-1.35547 0.38615,-0.7723 0.3952,-1.71211 0.75906,-2.43985 0.25172,-0.50343 -0.38179,-1.46165 -0.0542,-1.78922 0.47266,-0.47266 1.52067,0.48542 1.89766,0.10844 0.1929,-0.19291 0.28858,-0.50546 0.43375,-0.65063 0.39315,-0.39316 -1.92431,-1.24795 -1.35547,-2.38563 0.33289,-0.66579 1.12873,0.33518 1.51812,-0.0542 0.4311,-0.43109 1.25026,-1.03177 1.78923,-1.30125 0.20631,-0.10316 0.64046,-0.0983 0.81328,-0.27109 0.61504,-0.61504 0.79731,-1.16087 1.24703,-2.06032 0.16081,-0.32162 -0.10641,-0.87156 0.0542,-1.19281 0.32708,-0.65417 1.75446,-0.63325 2.33141,-0.92172 0.60805,-0.30403 1.33396,-0.79177 1.735,-1.19282 0.45824,-0.45824 2.11603,0.26961 2.22298,0.16266 0.34927,-0.34927 0.81728,-0.21688 1.30125,-0.21688 0.44103,0.16861 0.70065,0.40452 0.97595,0.54217 2.23111,1.11556 -0.32531,-1.51552 -0.32531,-1.57235 0,-0.38228 0.39792,-0.41631 0.54218,-0.70484 0.19064,-0.38127 -0.23971,-2.30003 -0.48797,-2.54829 -1.49551,-1.49551 -2.57485,0.67828 -3.25313,0 -0.24591,-0.24591 -0.6129,-0.39602 -0.8675,-0.65062 -0.46297,-0.46297 -0.58969,-1.94517 -1.03016,-2.38563 -0.27218,-0.27219 -1.07717,-0.24039 -1.46391,-0.43375 -0.80739,-0.4037 -2.49083,1.57557 -3.41578,0.65062 -0.15616,-0.15615 -0.34815,-0.20118 -0.59641,-0.32531 -0.10366,-0.0518 -0.0548,-0.21745 -0.10844,-0.27109 -0.62492,-0.62493 0.34698,-1.21449 0.81328,-1.68079 0.63242,-0.63241 0.67735,-1.01641 1.57235,-1.46391 0.76104,-0.38052 2.00505,-0.16161 2.54829,-0.70484 0.57887,-0.57888 0.72338,-1.66365 1.08437,-2.38563 0.1928,-0.3856 0.84378,-0.0847 1.1386,-0.37953 0.36827,-0.36827 0.80315,-0.56423 1.30125,-0.81329 0.31248,-0.15624 0.92966,0.0542 1.24704,0.0542 1.09844,0 2.73472,-0.35353 3.79532,0 1.14133,0.38045 2.75496,0.81328 3.95797,0.81328 0.36212,0 1.67648,0.17128 1.84344,-0.16265 0.30252,-0.60504 -0.56909,-1.43659 -0.92172,-1.78922 -0.4246,-0.42461 -0.0747,-1.64702 -0.54219,-2.11454 -0.38672,-0.38672 -0.87247,-0.98091 -1.24703,-1.35547 -0.18836,-0.18836 -2.95549,1.42353 -3.25313,1.57235 -1.0484,0.52419 -1.99954,1.18625 -2.65672,1.84344 -0.37749,0.37748 -1.11274,0.0826 -1.46391,0.43375 -0.32417,0.32417 -1.35238,-0.38263 -1.68079,-0.0542 -0.92946,0.92947 -5.64287,0.16471 -7.26532,0.97594 -0.39997,0.19998 -1.81433,2.14365 -2.43985,1.51813 -0.72133,-0.72133 -1.96232,-1.42013 -2.60251,-2.06032 -0.53169,-0.53169 -2.02395,1.06652 -2.65672,0.43375 -0.38733,-0.38733 -2.43536,-0.55567 -2.60251,-0.0542 -0.43776,0.41832 -0.81473,0.32675 -1.19281,0.70483 -0.35389,0.35389 -0.94997,0.82741 -1.46391,1.08437 -0.76794,0.38397 -4.0323,-2.09443 -5.36766,-0.75906 -0.12152,0.12152 -0.0193,0.45307 -0.10844,0.54219 -0.88849,0.88848 0.24751,3.54781 -0.97594,4.77126 -0.12665,0.12664 -0.34556,0.827 -0.21688,1.08437 0.41474,0.82949 2.24121,3.81307 1.68079,4.93392 -0.16249,0.32497 -1.20834,2.78068 -1.24704,2.81938 -1.26305,1.26305 -4.8315,2.28322 -6.07251,3.52422 -0.48993,0.48994 -0.26031,1.56157 -0.81328,2.11454 -0.8298,0.8298 -1.88491,1.99335 -2.65672,2.76516 -0.60521,0.6052 -1.45324,0.96527 -2.06032,1.57235 -0.0908,0.0908 -0.40457,0.0542 -0.54219,0.0542 -0.60557,0 -1.749,0.39964 -2.22297,0.16265 -0.10703,-0.0535 -0.69206,-0.3381 -0.81328,-0.21687 -0.55028,0.55028 -1.00551,0.43375 -1.73501,0.43375 z"
     id="path10587"
     inkscape:connector-curvature="0"
     sodipodi:nodetypes="csccsssccccsccccscccccsccsccccsscccsscsccccccsscccccscccsccccsccccccccccccccsccscsssccccccscsccscscccscccccssscsccccccscscsscccc" />
  <path
     style="fill:none;stroke:#000000;stroke-width:1px;stroke-linecap:round;stroke-linejoin:round;stroke-opacity:1"
     d="m 4.7641949,404.77868 c 1.19734,-0.34728 1.20857,-1.87767 1.8586,-2.52769 0.17346,-0.17347 -0.0248,-0.71866 0.14868,-0.89213 0.6179,-0.61789 1.07343,-1.0317 1.48688,-1.85859 0.33508,-0.67017 -0.16358,-2.28977 0.22303,-2.67638 0.92467,-0.92467 3.0418401,-1.18324 3.8658801,-2.00728 0.45,-0.45 1.96802,-1.56122 2.45335,-1.56122 1.61386,0 3.13112,-0.62623 4.83234,-0.96647 0.61202,-0.12241 1.29794,-0.0743 2.5918,0.0588 1.29387,0.13312 1.41312,0.0155 3.95046,0.0155 0.47085,0 -0.94241,0.0261 -1.41253,0 -0.0553,-0.003 0.0933,-0.0743 0.14869,-0.0743 h 1.33818 c 0.96973,0 2.10519,0.0743 3.12245,0.0743 h -2.30466 c -0.29841,0 0.59372,0.0743 0.89212,0.0743 0.70629,0 1.39345,0.0743 2.08163,0.0743 1.35325,0 2.64433,-0.48116 4.76996,-0.99082 1.33901,-0.32105 3.50246,-0.0256 4.6701,-1.6025 0.60744,-0.52306 0.6262,-1.42348 0.92223,-2.03796 0.24676,-0.51222 0.79962,-0.735 0.98609,-1.22338 0.25843,-0.67688 -0.45968,-1.26571 -0.34306,-1.89039 0.29917,-1.6026 1.11272,-3.02624 1.11272,-3.70385 0,-0.43941 0.45479,-2.742 0.14869,-3.0481 -1.74889,-1.74889 -0.05,-4.11322 1.1895,-5.35275 0.56032,-0.56032 0.97839,-1.49085 1.63557,-1.70991 0.324,-0.91275 2.34068,-0.31865 2.76782,-0.74579 0.43725,-0.43724 0.95991,-0.8237 1.75037,-0.8237 0.50966,0 1.85703,0.45962 2.26517,0.0515 0.5653,-0.56529 1.3039,-0.99501 1.85333,-1.54444 0.0915,-0.0915 0.97469,-0.22994 1.23555,-0.36037 0.33759,-0.16879 2.00338,-0.10515 2.31666,0.0515 0.32725,0.16362 0.59674,0.49377 0.87518,0.77221 0.26077,0.26077 1.15549,-0.56629 1.49295,-0.56629 0.17745,0 0.60572,-0.0197 0.77222,-0.10296 0.19393,-0.097 0.38255,-0.33107 0.51482,-0.46333 0.0488,-0.0488 2.04248,-0.94402 2.31665,-1.08111 0.7956,-0.3978 1.76721,-0.22277 2.4711,-0.92666 0.93735,-0.93735 1.0296,-2.31669 0,-3.34629 -0.23295,-0.23295 -0.35714,-0.76899 -0.56629,-0.97814 -0.29841,-0.29841 -0.41267,-1.59674 -0.61777,-1.80184 -0.20508,-0.20508 -0.19268,-0.90169 -0.0515,-1.18407 0.0711,-0.14225 0.0475,-0.56235 0.15444,-0.66926 0.52459,-0.52459 1.08901,-1.03753 1.69888,-1.6474 0.40979,-0.40979 0.74568,0.54135 0.92666,0.36037 0.22532,-0.22532 1.87332,-1.27704 2.26518,-1.08111 0.27763,0.13881 0.96573,0.55388 1.13259,0.72074 0.22981,0.22981 2.51891,0.35669 3.19184,1.02962 0.067,0.067 1.66886,0 1.85332,0 0.0737,0 0.4164,0.0469 0.46333,0 0.26119,-0.26118 0.90234,-0.13011 1.18407,-0.41185 0.0753,-0.0753 -0.0687,-0.85794 0.51482,-1.44147 0.48946,-0.48947 0.9016,1.26061 1.38999,0.77222 0.24769,-0.24769 0.49028,-0.84006 0.97814,-0.51481 0.64738,0.005 1.2009,-0.22279 1.49296,-0.51485 0.0515,-0.0515 -0.0515,-0.2574 0,-0.30889 0.14586,-0.14586 0.67784,0.0944 0.8237,-0.0515 0.19314,-0.19313 0.30487,-0.61375 0.51481,-0.8237 0.49187,-0.49186 -1.38704,-1.12963 -1.49295,-1.23555 -0.281,-0.281 -0.14047,-0.8612 -0.41185,-1.13259 -0.27764,-0.27764 -0.69728,-0.49135 -0.97815,-0.77221 -0.0515,-0.0515 -0.38204,-0.69907 -0.2574,-0.8237 0.35383,-0.35384 0.85603,-1.04281 1.0811,-1.49296 0.15496,-0.30992 0.0683,-0.65148 0.20593,-0.92666 0.10982,-0.21966 -0.10983,-0.60405 0,-0.8237 0.16339,-0.32679 0.7147,-0.4573 0.97814,-0.72074 0.10296,-0.10297 0.10296,-0.30889 0.20593,-0.41185 0.17983,-0.17983 0.56469,-0.0499 0.72073,-0.20593 0.26121,-0.2612 0.36635,-0.72671 0.66926,-1.02962 0.80814,-0.80814 1.89079,-1.77381 2.41962,-2.83147 0.22493,-0.44985 -0.80819,-1.32301 -0.92666,-1.44148 -7.9e-4,-7.9e-4 -0.31656,-1.53676 -0.30889,-1.54444 0.5192,-0.51919 1.03261,-2.54981 1.49296,-2.77999 0.27001,-0.135 2.13732,0.79712 3.14035,-0.20592 0.55122,-0.55122 1.87267,-2.76392 2.41962,-3.0374 0.4728,-0.23639 0.95831,0.27724 1.44148,-0.20592 0.33101,-0.33101 0.78466,-0.83614 1.13259,-1.18407 0.23749,-0.23749 0.2852,-0.91482 0.61777,-1.08111 0.59681,-0.2984 1.63435,1.24861 2.31666,0.5663 0.43819,-0.43819 0.52114,-1.4478 0.8237,-1.75037 0.26652,-0.26652 1.00081,-0.0227 1.28703,-0.30888 0.17913,-0.17913 1.365975,-1.81558 1.544435,-1.90481 0.70884,-0.35442 0.71972,0.51582 1.75036,-0.51481 0.64664,-0.64664 0.4707,-2.1659 1.39,-2.62555 0.82136,-0.41068 5.2676,1.41266 6.12627,1.69888 0.55746,0.17397 1.84455,-0.0942 2.11073,-0.36035 0.19322,-0.19321 0.81834,0.25473 0.92666,0.30889 0.37606,0.18803 1.0788,-0.10527 1.33852,0.15445 0.25956,0.25956 0.16128,0.82712 0.56629,1.02962 0.94331,0.47166 2.11509,0.31325 2.88295,1.08111 0.39219,0.39218 1.66348,-0.18985 2.05925,0.20592 0.21809,0.21809 0.26261,0.46853 0.46333,0.66926 0.1196,0.11959 2.94374,0.50551 3.08888,0.36037 0.22137,-0.22137 0.55956,-0.50807 0.77222,-0.72074 0.23334,-0.23334 -0.0715,-1.00958 0.15444,-1.23555 0.6306,-0.63059 1.27255,-1.02238 2.11074,-1.44148 0.7847,-0.39235 1.7662,0.85934 1.95628,0.66926 0.60269,-0.60269 2.72219,-0.81737 3.0374,-1.13259 0.59212,-0.59212 1.21905,-1.11609 1.75036,-1.6474 0.30579,-0.30579 0.11641,-0.85059 0.30889,-1.23555 0.72245,-1.4449 -0.87383,-2.72716 -1.59592,-3.44924 -0.1693,-0.16931 -0.12949,-0.54134 -0.30889,-0.72074 -0.26923,-0.26923 -0.99737,-0.34425 -1.33851,-0.51481 -0.57519,-0.2876 -1.05696,-1.00548 -1.38999,-1.33852 -0.55688,-0.55688 -1.18261,-0.82223 -1.75037,-1.38999 -1.27081,-1.27081 -2.05925,-3.40426 -2.05925,-5.61146 0,-2.30582 0.67263,-5.30932 1.59592,-7.1559 0.1852,-0.3704 1.08111,-2.4185 1.08111,-2.52258 0,-0.22534 0.61777,-1.48121 0.61777,-1.13259 0.20007,-1.09293 0.31609,-2.33106 0.8237,-3.34628 0.2005,-0.40099 0.65832,-0.69886 0.87518,-1.13259 0.14406,-0.28811 0.35313,-0.7686 0.66926,-0.92666 0.69788,-0.34894 1.56902,-0.59088 2.11073,-1.13259 0.35808,-0.35807 3.48755,-0.68243 3.75814,-0.41185 0.46777,0.46777 -0.003,1.79533 0.15444,2.11073 0.21102,0.42203 2.54068,0.44524 2.93443,0.0515 0.52773,-0.52773 0.26225,-1.44631 0.77222,-1.95628 0.15498,-0.15498 0.4837,-0.0359 0.72074,-0.15445 0.4893,-0.24465 0.85696,-0.59955 1.13259,-0.87518 0.0673,-0.0673 1.3302,-1.50127 1.18407,-1.6474 -1.36911,-1.36911 -2.77999,1.48267 -2.77999,-2.36814 0,-0.2059 -0.27548,-0.96007 -0.10296,-1.13259 0.19889,-0.19889 0.22728,-0.58765 0.41185,-0.77222 0.65954,-0.65954 2.43629,-0.48 3.03739,-1.0811 0.36174,-0.36174 0.2135,-1.14017 0.56629,-1.49296 0.0383,-0.0383 2.24577,-0.18651 2.83147,-0.77222 0.63854,-0.63853 1.03709,-1.86079 1.49296,-2.31666 0.2543,-0.25429 0.0173,-0.99545 0.25741,-1.23555 0.51596,-0.51596 -0.48693,-1.25914 -0.5663,-1.33851 -0.61968,-0.61969 -1.3508,0.53441 -1.80184,0.30889 -0.67283,-0.33641 -1.8698,-2.16428 -1.6474,-2.83147 -0.5557,-1.38432 0.13435,-2.35811 1.18407,-2.88297 0.13493,-0.0675 0.57305,-0.1612 0.66925,-0.25741 1.06157,-1.06157 2.92706,-1.20612 4.22147,-1.85332 0.37217,-0.18609 1.50966,0.44662 1.85332,0.10296 0.27053,-0.27053 0.83703,-0.54146 1.08111,-1.02963 0.40602,-0.81204 1.06532,-1.83753 1.6474,-2.41962 0.69131,-0.69131 1.78645,-1.35655 2.67703,-1.80184 1.04522,-0.52261 3.66801,0.19308 4.16998,-0.30889 0.25973,-0.25973 0.22764,-1.11771 0.5663,-1.28703 1.46577,-0.73289 2.8839,-1.33899 4.42738,-2.11073 0.95101,-0.47551 2.4968,1.01677 3.29481,0.61777 0.66417,-0.33208 1.54844,-0.31289 2.05925,-0.8237 0.32254,-0.32254 0.45684,-1.30635 0.97814,-1.13259 1.00955,-0.36926 3.88526,1.31435 4.47887,0.72074 0.52386,-0.52385 0.76962,-0.0978 1.23555,-1.02962 0.26977,-0.53953 -0.1787,-2.08647 0.25741,-2.52259 0.36959,-0.36958 0.98297,-0.82852 1.44147,-1.28703 0.38854,-0.38853 0.31029,-0.92806 0.72074,-1.33851 0.13915,-0.13915 1.98161,-0.50173 2.31666,-0.66926 0.46743,-0.23371 1.96372,-0.10296 2.4711,-0.10296 0.0902,0 0.50889,-0.0574 0.56629,0 0.67769,0.67769 1.91788,1.22248 2.72851,0.41185 0.19461,-0.19461 0.53084,-0.13502 0.66926,-0.41185 0.30938,-0.61877 0.43872,-1.13486 0.77222,-1.80185 0.16231,-0.32462 -0.314,-1.17895 -0.0515,-1.44147 0.52772,-0.52773 1.51715,-3.63999 1.80184,-4.06702 0.54581,-1.60083 1.68167,-2.69404 2.36816,-4.06702 0.17758,-0.35517 0.26739,-0.73072 0.51481,-0.97815 0.27837,-0.27836 1.22046,-0.74204 1.49296,-1.28703 0.28614,-0.57228 1.11007,-1.27577 1.6474,-1.54444 0.32523,-0.16261 1.07301,0.16255 1.33851,-0.10296 0.65136,-0.65136 2.07962,-0.83388 2.98592,-1.28703 0.80319,-0.4016 4.04339,-2.77999 4.47887,-2.77999 2.15735,-0.49229 7.03307,-1.03956 9.00922,-0.0515 0.65778,0.32889 2.05894,-0.36068 2.57406,0.15444 0.65313,0.65313 4.90394,1.02302 6.02331,0.46333 0.37733,-0.18866 1.00732,0.13986 1.39,-0.0515 0.53194,-0.26597 0.69756,-0.60618 1.13258,-0.8237 0.26504,-0.13251 0.61016,0.184 0.87519,0.0515 1.70667,-0.85333 1.55131,-0.16818 2.52258,-2.11073 0.37136,-0.74272 0.51544,-2.98528 0,-3.50072 -0.38163,-0.38164 -1.51095,-0.49933 -1.80185,-1.08111 -0.80618,-1.61237 1.68512,-6.47746 2.31666,-6.89849"
     id="path10589"
     inkscape:connector-curvature="0"
     sodipodi:nodetypes="ccccccsccscsscsssscssssccccscsccsscccssssccsscssscccscscccccccccccccscscccccscsccscsccssccscscccscsscsccssssccccccccscssssssscccccccccsccsscccscccccscsssccccccccccccscccccccc" />
  <path
     style="fill:none;stroke:#000000;stroke-width:1px;stroke-linecap:round;stroke-linejoin:round;stroke-opacity:1"
     d="m 232.56404,180.08603 c -1.50303,-0.57036 -3.5721,-0.17024 -4.83924,0.46333 -0.40374,0.20187 -1.16133,0.0844 -1.64741,0.20593 -0.7648,0.1912 -1.48646,0.37536 -2.21369,0.61777 -0.93109,0.31037 -4.11883,0.20561 -4.6848,-0.36036 -0.24806,-0.24807 -2.3649,0.0531 -2.77998,-0.15445 -0.16436,-0.0822 -0.89288,-0.14559 -1.08111,-0.0515 -0.42404,0.21202 -1.44093,0.35983 -1.80185,0.72074 -0.17839,0.17839 -0.51046,0.25306 -0.72073,0.46333 -0.64919,0.64919 -1.40717,1.40717 -2.11074,2.11073 -0.22798,0.22798 -0.67525,0.10896 -0.87518,0.30889 l -0.77222,0.77222 c -0.13647,0.13647 -2.61642,0.76309 -3.24332,1.38999 -0.21656,0.21657 -0.85286,0.11754 -1.13258,0.25741 -0.68946,0.34472 -7.23565,-0.0656 -7.82516,-0.36037 -0.78237,-0.39119 -2.97194,-0.94848 -3.80961,-0.66926 -1.55285,-0.008 -3.06225,0.0391 -4.37591,-0.61775 -0.97426,-0.48713 -1.66361,-0.90903 -2.62554,-1.39 -0.57696,-0.28847 -1.22411,-0.15063 -1.85333,-0.36037 -2.17145,-0.72381 -6.44359,-0.79374 -8.44293,0.20593 -2.26915,1.13458 -3.43753,3.02568 -4.9422,4.53035 -0.56951,0.56951 -4.76803,1.14245 -5.71442,0.66926 -0.43863,-0.21931 -0.80009,-0.68319 -1.28703,-0.92666 -0.94752,-0.47376 -2.69646,0.49538 -3.08888,0.10296 -0.0816,-0.0816 1.33356,-1.17912 1.54444,-1.39 0.29911,-0.29911 0.57046,-0.36453 0.8237,-0.61777 0.0759,-0.0759 5.58008,0.41185 6.22923,0.41185 0.53581,0 1.0193,-0.20076 1.44148,-0.41185 2.09275,-1.04638 -0.0742,-2.65432 0.77222,-3.50073 1.12626,-1.12626 2.57191,-0.66818 4.01554,-1.38999 0.47274,-0.23638 0.54357,-0.95542 0.8237,-1.23555 0.32386,-0.32387 2.69772,-0.53021 3.24332,-0.25741 0.66531,0.33266 1.71534,0.32535 2.21369,0.8237 0.034,0.034 5.48038,-0.47739 6.22923,-0.10296 1.83627,0.91813 3.32936,1.89634 5.19961,2.83147 1.35254,0.67627 7.97072,1.21425 9.47256,0.46333 0.26242,-0.13121 0.84595,0.0269 1.0811,-0.0515 1.89989,0.318 2.72677,-0.1012 3.75814,-1.13257 0.39019,-0.39019 0.42334,-1.41298 0.66925,-1.90481 0.22679,-0.45357 0.54643,-0.78396 0.77222,-1.23555 0.12958,-0.25916 0.15044,-0.56228 0.30889,-0.72073 0.30076,-0.30077 0.94926,-0.17705 1.28703,-0.51482 0.15824,-0.15823 0.1112,-0.68572 0.20593,-0.87518 0.24484,-0.48968 -0.74541,-2.28985 -0.97815,-2.52258 -0.32782,-0.32782 0.0454,-1.19622 -0.15444,-1.59592 -0.0579,-0.11572 -0.15537,-0.82185 -0.10296,-0.92666 0.14691,-0.29384 0.51027,-0.40732 0.66925,-0.5663 0.54578,-0.54578 2.26022,-3.01413 3.0374,-2.62554 0.73099,0.36549 0.0125,5.43057 0.66925,6.74404 0.20738,0.41476 1.73936,0.046 2.16222,0.25741 0.47167,0.23584 0.94989,0.29476 1.38999,0.51481 0.37875,0.18938 1.43739,-0.36445 1.75037,-0.0515 0.4473,0.44731 2.95209,1.06345 3.60368,0.41185 0.13069,-0.13069 0.59872,-0.0324 0.72074,-0.15444 0.35073,-0.35073 0.87891,-1.08235 1.02963,-1.13259"
     id="path10591"
     inkscape:connector-curvature="0"
     sodipodi:nodetypes="csccccccscssccccccccscssssscccccsccscsccccscccscccccccc" />
  <path
     style="fill:none;stroke:#000000;stroke-width:1px;stroke-linecap:round;stroke-linejoin:round;stroke-opacity:1"
     d="m 213.77337,171.95199 c 1.10753,-0.1655 2.71204,0.35214 3.65517,0.8237 0.68765,0.34382 1.61862,0.16579 2.31666,0.51481 0.32453,0.16227 1.22357,-0.2179 1.44147,0 0.0465,0.0465 0.88781,0.79165 0.92667,0.77222 0.22908,-0.11454 0.47361,-1.19434 0.66925,-1.38999 0.51645,-0.51644 -1.25231,-2.48787 -1.49295,-2.72851 -0.73394,-0.73393 -0.53066,-2.46716 -0.87519,-3.50073 -0.21151,-0.63453 -0.23757,-1.57608 -0.61777,-1.95628 -0.22499,-0.225 -0.64682,-0.33794 -0.8237,-0.51482 -0.0815,-0.0815 0.98569,-2.69211 1.08111,-2.88295 0.16001,-0.32002 0.51617,-0.46469 0.72073,-0.66925 0.36789,-0.36789 1.4643,-0.0743 1.80184,-0.41187 1.29728,-0.26765 3.66056,-0.2113 3.96407,-0.51481 0.11553,-0.11553 0.41592,0.12667 0.56629,0.0515 0.36496,-0.18247 1.08417,-0.41338 1.49296,-0.61777 0.73416,-0.14837 3.53954,-0.89674 4.1185,-1.02963"
     id="path10593"
     inkscape:connector-curvature="0"
     sodipodi:nodetypes="cccssccccssscsccc" />
  <path
     style="fill:none;stroke:#000000;stroke-width:0.5;stroke-linecap:round;stroke-linejoin:round;stroke-miterlimit:4;stroke-dasharray:none;stroke-opacity:1"
     d="m 4.7404749,128.50599 c 2.69116,-2.41198 6.8832401,-3.98141 11.3075301,-4.00826 5.18875,-0.0315 10.61151,1.08305 17.09239,2.06762 7.29171,1.10775 15.51607,2.2128 24.26923,3.47523 3.47434,0.50109 7.39862,0.91072 11.4862,0.83666 3.85183,-0.0698 7.83708,-0.59226 12.09611,-1.13522 3.33773,-0.4255 5.98804,-1.804 7.50757,-2.23844 4.87188,-1.39287 10.11417,-4.08293 15.101495,-6.19836 1.13396,-0.48098 2.31844,-1.47869 3.3923,-1.84876 1.49994,-0.51691 3.01318,-0.92347 4.44847,-1.7435 1.64173,-0.93798 3.18146,-2.28926 4.48266,-2.77065 1.29461,-0.47895 2.64111,-0.67023 3.94412,-1.10773 1.95944,-0.6579 3.90247,-1.74652 6.09179,-2.52022 1.94763,-0.68828 4.12255,-1.05176 6.18061,-1.80005 8.51432,-3.09569 17.06122,-6.27594 24.66488,-9.23515 2.141,-0.833245 4.50864,-1.950075 6.48177,-1.708615 3.02528,0.37022 5.17986,1.500435 6.52893,3.577125 1.9127,2.94431 0.51852,8.21737 3.44457,11.3644 2.71527,2.92034 7.07126,6.38907 10.96958,9.61152 1.14612,0.94741 2.3853,2.42979 3.55556,3.43962 0.39119,0.33755 1.09872,0.41692 1.80055,0.98496 1.75618,1.42142 4.14524,2.88618 6.79918,4.85745 2.44094,1.81306 5.03202,3.81469 7.21494,5.72187 2.03512,1.77805 3.70872,3.48078 4.75575,4.69148 1.32539,1.53258 2.63736,3.698 3.86137,5.11217 1.17691,1.35974 1.92011,1.53316 3.83135,1.61231 4.67351,0.19356 4.60551,-2.0051 5.89207,-1.98554 2.4897,0.0379 7.8031,-0.19669 10.78919,-0.21297"
     id="path14359-1-7-5-3-0-73-1-9-8-5-8"
     inkscape:connector-curvature="0"
     sodipodi:nodetypes="cssssssssssssssssssssssssssc" />
  <path
     style="fill:none;stroke:#000000;stroke-width:0.5;stroke-linecap:round;stroke-linejoin:round;stroke-miterlimit:4;stroke-dasharray:none;stroke-opacity:1"
     d="m 4.7404749,130.05097 c 2.45841,-2.75605 5.6464101,-3.67924 10.5513801,-3.80731 4.4719,-0.11677 12.24514,0.79244 17.51899,1.74438 7.4994,1.35367 14.88787,1.99947 24.42026,3.45199 4.04006,0.61562 7.64402,0.55582 11.59458,0.66277 4.05625,0.10982 8.16473,-0.15663 12.21188,-0.67469 2.58538,-0.33094 5.11281,-1.24257 7.57625,-2.10864 1.02811,-0.36145 2.07017,-1.02888 3.07578,-1.44643 0.77462,-0.32163 1.4443,-0.28384 2.21585,-0.61104 3.33753,-1.4154 6.695735,-3.08676 9.955735,-4.59378 1.70513,-0.78824 2.68251,-1.92119 3.53135,-2.10852 0.92082,-0.20321 2.79893,-1.05675 4.33028,-1.73234 1.29992,-0.57348 2.41096,-1.53192 4.06791,-2.24415 0.8013,-0.34443 1.40788,-0.87279 2.02512,-1.07195 0.80057,-0.25833 1.64942,-0.35935 2.44092,-0.61379 2.02029,-0.64943 3.83449,-1.8163 5.78983,-2.29471 2.12015,-0.51873 4.45136,-1.23625 6.43584,-1.95413 9.32963,-3.37498 17.79736,-6.71471 24.69632,-9.24709 1.20471,-0.4422 4.13236,-1.26349 5.95032,-1.32257 1.99063,-0.0647 4.7551,1.23298 5.66184,2.98979 1.06614,2.06566 0.41854,7.42995 2.94223,10.65227 2.61774,3.34242 8.35213,7.57069 11.61235,10.46668 0.91083,0.80907 2.23766,2.25372 3.42168,3.08818 0.66908,0.47155 1.56173,0.92282 2.22157,1.41601 0.8397,0.62763 1.86702,1.22 2.88931,1.99607 1.26013,0.95663 2.5395,2.11175 3.77463,2.98343 2.40092,1.6944 4.78786,3.51044 7.20163,5.52062 1.69515,1.4117 2.91357,2.99635 4.4795,4.65762 1.41618,1.50239 2.46748,3.10426 3.61701,4.81039 1.19159,1.76853 2.12353,2.13826 5.84901,2.14407 4.67518,0.007 5.05455,-2.04849 6.26137,-2.09311 2.157,-0.0798 4.21167,0.21531 6.36803,0.16323 0.60304,-0.0146 1.10253,0.43635 1.70546,0.42125 0.56654,-0.0142 1.13302,-0.0286 1.69945,-0.0433"
     id="path14359-1-7-5-3-0-73-1-9-8-5-83"
     inkscape:connector-curvature="0"
     sodipodi:nodetypes="cssssssssssssssssssssssssssssssssc" />
  <g
     id="g180"
     sodipodi:insensitive="true">
    <text
       id="text10278-9"
       y="465.73911"
       x="60.161297"
       style="font-style:normal;font-variant:normal;font-weight:normal;font-stretch:normal;font-size:12px;line-height:13px;font-family:STIXGeneral;-inkscape-font-specification:STIXGeneral;text-align:start;letter-spacing:0.06px;word-spacing:0px;text-anchor:start;fill:#000000;fill-opacity:1;stroke:none"
       xml:space="preserve"><tspan
         id="tspan10280-8"
         y="465.73911"
         x="60.161297"
         sodipodi:role="line">Critical Habitat Unit 7</tspan></text>
    <text
       id="text10278-9-3"
       y="482.90607"
       x="60.117382"
       style="font-style:normal;font-variant:normal;font-weight:normal;font-stretch:normal;font-size:12px;line-height:13px;font-family:STIXGeneral;-inkscape-font-specification:STIXGeneral;text-align:start;letter-spacing:0.06px;word-spacing:0px;text-anchor:start;fill:#000000;fill-opacity:1;stroke:none"
       xml:space="preserve"><tspan
         id="tspan10364"
         y="482.90607"
         x="60.117382"
         sodipodi:role="line">Critical Habitat for </tspan></text>
    <text
       id="text10278-4"
       y="495.7543"
       x="70.920815"
       style="font-style:italic;font-variant:normal;font-weight:normal;font-stretch:normal;font-size:12px;line-height:14.33333302px;font-family:STIXGeneral;-inkscape-font-specification:'STIXGeneral Italic';text-align:start;letter-spacing:0.13px;word-spacing:0px;text-anchor:start;fill:#000000;fill-opacity:1;stroke:none"
       xml:space="preserve"><tspan
         style="font-style:italic;font-variant:normal;font-weight:normal;font-stretch:normal;line-height:18.33333397px;font-family:STIXGeneral;-inkscape-font-specification:'STIXGeneral Italic';text-align:start;letter-spacing:0.13px;text-anchor:start;fill:#000000;fill-opacity:1"
         id="tspan10280-2"
         y="495.7543"
         x="70.920815"
         sodipodi:role="line">Delissea rhytidosperma - a</tspan></text>
    <text
       id="text10278-9-3-2"
       y="514.77222"
       x="60.274975"
       style="font-style:normal;font-variant:normal;font-weight:normal;font-stretch:normal;font-size:12px;line-height:13px;font-family:STIXGeneral;-inkscape-font-specification:STIXGeneral;text-align:start;letter-spacing:0.06px;word-spacing:0px;text-anchor:start;fill:#000000;fill-opacity:1;stroke:none"
       xml:space="preserve"><tspan
         id="tspan10364-8"
         y="514.77222"
         x="60.274975"
         sodipodi:role="line">Elevation (1,000-ft. contours)</tspan></text>
    <text
       id="text10278-9-3-9"
       y="531.10455"
       x="60.090923"
       style="font-style:normal;font-variant:normal;font-weight:normal;font-stretch:normal;font-size:12px;line-height:13px;font-family:STIXGeneral;-inkscape-font-specification:STIXGeneral;text-align:start;letter-spacing:0.06px;word-spacing:0px;text-anchor:start;fill:#000000;fill-opacity:1;stroke:none"
       xml:space="preserve"><tspan
         id="tspan10364-2"
         y="531.10455"
         x="60.090923"
         sodipodi:role="line">Major Road </tspan></text>
    <text
       id="text10278-9-3-5"
       y="547.85278"
       x="60.05299"
       style="font-style:normal;font-variant:normal;font-weight:normal;font-stretch:normal;font-size:12px;line-height:13px;font-family:STIXGeneral;-inkscape-font-specification:STIXGeneral;text-align:start;letter-spacing:0.06px;word-spacing:0px;text-anchor:start;fill:#000000;fill-opacity:1;stroke:none"
       xml:space="preserve"><tspan
         id="tspan10364-6"
         y="547.85278"
         x="60.05299"
         sodipodi:role="line">Coastline </tspan></text>
    <text
       id="text10278-9-3-5-7"
       y="591.60278"
       x="66.972824"
       style="font-style:normal;font-variant:normal;font-weight:normal;font-stretch:normal;font-size:8px;line-height:13px;font-family:STIXGeneral;-inkscape-font-specification:STIXGeneral;text-align:start;letter-spacing:-0.1px;word-spacing:0px;text-anchor:start;fill:#000000;fill-opacity:1;stroke:none"
       xml:space="preserve"><tspan
         id="tspan10364-6-2"
         y="591.60278"
         x="66.972824"
         sodipodi:role="line">Kilometers</tspan></text>
    <text
       id="text10278-9-3-5-7-8"
       y="571.83777"
       x="84.575684"
       style="font-style:normal;font-variant:normal;font-weight:normal;font-stretch:normal;font-size:8px;line-height:13px;font-family:STIXGeneral;-inkscape-font-specification:STIXGeneral;text-align:start;letter-spacing:-0.1px;word-spacing:0px;text-anchor:start;fill:#000000;fill-opacity:1;stroke:none"
       xml:space="preserve"><tspan
         id="tspan10364-6-2-0"
         y="571.83777"
         x="84.575684"
         sodipodi:role="line">Miles</tspan></text>
    <text
       id="text10278-9-3-5-7-8-0"
       y="571.53802"
       x="23.037947"
       style="font-style:normal;font-variant:normal;font-weight:normal;font-stretch:normal;font-size:8px;line-height:13px;font-family:STIXGeneral;-inkscape-font-specification:STIXGeneral;text-align:start;letter-spacing:-0.1px;word-spacing:0px;text-anchor:start;fill:#000000;fill-opacity:1;stroke:none"
       xml:space="preserve"><tspan
         id="tspan10364-6-2-0-8"
         y="571.53802"
         x="23.037947"
         sodipodi:role="line">0.5</tspan></text>
    <text
       id="text10278-9-3-5-7-8-2"
       y="571.60114"
       x="48.947994"
       style="font-style:normal;font-variant:normal;font-weight:normal;font-stretch:normal;font-size:8px;line-height:13px;font-family:STIXGeneral;-inkscape-font-specification:STIXGeneral;text-align:start;letter-spacing:-0.1px;word-spacing:0px;text-anchor:start;fill:#000000;fill-opacity:1;stroke:none"
       xml:space="preserve"><tspan
         id="tspan10364-6-2-0-5"
         y="571.60114"
         x="48.947994"
         sodipodi:role="line">0</tspan></text>
    <text
       id="text10278-9-3-5-7-8-8"
       y="571.57758"
       x="68.764755"
       style="font-style:normal;font-variant:normal;font-weight:normal;font-stretch:normal;font-size:8px;line-height:13px;font-family:STIXGeneral;-inkscape-font-specification:STIXGeneral;text-align:start;letter-spacing:-0.1px;word-spacing:0px;text-anchor:start;fill:#000000;fill-opacity:1;stroke:none"
       xml:space="preserve"><tspan
         id="tspan10364-6-2-0-0"
         y="571.57758"
         x="68.764755"
         sodipodi:role="line">0.5</tspan></text>
    <text
       id="text10278-9-3-5-7-8-0-3"
       y="591.28455"
       x="23.14189"
       style="font-style:normal;font-variant:normal;font-weight:normal;font-stretch:normal;font-size:8px;line-height:13px;font-family:STIXGeneral;-inkscape-font-specification:STIXGeneral;text-align:start;letter-spacing:-0.1px;word-spacing:0px;text-anchor:start;fill:#000000;fill-opacity:1;stroke:none"
       xml:space="preserve"><tspan
         id="tspan10364-6-2-0-8-2"
         y="591.28455"
         x="23.14189"
         sodipodi:role="line">0.5</tspan></text>
    <text
       id="text10278-9-3-5-7-8-2-3"
       y="591.59338"
       x="40.262524"
       style="font-style:normal;font-variant:normal;font-weight:normal;font-stretch:normal;font-size:8px;line-height:13px;font-family:STIXGeneral;-inkscape-font-specification:STIXGeneral;text-align:start;letter-spacing:-0.1px;word-spacing:0px;text-anchor:start;fill:#000000;fill-opacity:1;stroke:none"
       xml:space="preserve"><tspan
         id="tspan10364-6-2-0-5-3"
         y="591.59338"
         x="40.262524"
         sodipodi:role="line">0</tspan></text>
    <text
       id="text10278-9-3-5-7-8-8-2"
       y="591.58557"
       x="51.975033"
       style="font-style:normal;font-variant:normal;font-weight:normal;font-stretch:normal;font-size:8px;line-height:13px;font-family:STIXGeneral;-inkscape-font-specification:STIXGeneral;text-align:start;letter-spacing:-0.1px;word-spacing:0px;text-anchor:start;fill:#000000;fill-opacity:1;stroke:none"
       xml:space="preserve"><tspan
         id="tspan10364-6-2-0-0-1"
         y="591.58557"
         x="51.975033"
         sodipodi:role="line">0.5</tspan></text>
    <text
       id="text10278-9-3-5-7-8-8-1"
       y="610.51978"
       x="138.38538"
       style="font-style:normal;font-variant:normal;font-weight:normal;font-stretch:normal;font-size:6.66666651px;line-height:13px;font-family:STIXGeneral;-inkscape-font-specification:STIXGeneral;text-align:start;letter-spacing:-0.1px;word-spacing:0px;text-anchor:start;fill:#000000;fill-opacity:1;stroke:none"
       xml:space="preserve"><tspan
         id="tspan10364-6-2-0-0-7"
         y="610.51978"
         x="138.38538"
         sodipodi:role="line">N</tspan></text>
    <text
       transform="rotate(39.680936)"
       id="text6600"
       y="-55.241116"
       x="204.77567"
       style="font-style:normal;font-variant:normal;font-weight:normal;font-stretch:normal;font-size:9.33333302px;line-height:6.66666651px;font-family:Arial;-inkscape-font-specification:Arial;text-align:start;letter-spacing:0.05px;word-spacing:0px;text-anchor:start;fill:#000000;fill-opacity:1;stroke:none"
       xml:space="preserve"><tspan
         y="-55.241116"
         x="204.77567"
         id="tspan6598"
         sodipodi:role="line">Rice St</tspan></text>
    <text
       id="text10278-3"
       y="22.415398"
       x="119.46165"
       style="font-style:normal;font-variant:normal;font-weight:bold;font-stretch:normal;font-size:14.66666698px;line-height:18.33333397px;font-family:STIXGeneral;-inkscape-font-specification:'STIXGeneral Bold';text-align:center;letter-spacing:0.01px;word-spacing:0px;text-anchor:middle;fill:#000000;fill-opacity:1;stroke:none"
       xml:space="preserve"><tspan
         y="22.415398"
         x="121.30498"
         id="tspan10276-9"
         sodipodi:role="line">Map 24    </tspan><tspan
         id="tspan7751-0"
         y="40.74873"
         x="119.46665"
         sodipodi:role="line">Unit 7 - <tspan
   id="tspan11551"
   style="font-style:italic;font-variant:normal;font-weight:bold;font-stretch:normal;font-family:STIXGeneral;-inkscape-font-specification:'STIXGeneral Bold Italic';text-align:center;letter-spacing:0.01px;text-anchor:middle">Delissea rhytidosperma</tspan><tspan
   id="tspan9109"
   style="font-style:italic;font-variant:normal;font-weight:bold;font-stretch:normal;font-family:STIXGeneral;-inkscape-font-specification:'STIXGeneral Bold Italic';text-align:center;letter-spacing:0.01px;text-anchor:middle"> - a</tspan></tspan></text>
    <text
       transform="rotate(-20.066706)"
       id="text6600-9"
       y="145.96327"
       x="45.906631"
       style="font-style:normal;font-variant:normal;font-weight:normal;font-stretch:normal;font-size:9.33333302px;line-height:6.66666651px;font-family:Arial;-inkscape-font-specification:Arial;text-align:start;letter-spacing:0.05px;word-spacing:0px;text-anchor:start;fill:#000000;fill-opacity:1;stroke:none"
       xml:space="preserve"><tspan
         y="145.96327"
         x="45.906631"
         id="tspan6598-8"
         sodipodi:role="line">Kaumualii Hwy</tspan></text>
    <text
       transform="rotate(-0.16505933)"
       id="text6600-9-7"
       y="276.26633"
       x="151.83235"
       style="font-style:italic;font-variant:normal;font-weight:normal;font-stretch:normal;font-size:9.33333302px;line-height:9.66666698px;font-family:Arial;-inkscape-font-specification:'Arial Italic';text-align:start;letter-spacing:0.04px;word-spacing:0px;text-anchor:start;fill:#000000;fill-opacity:1;stroke:none"
       xml:space="preserve"><tspan
         y="276.26633"
         x="151.83235"
         id="tspan6598-8-6"
         sodipodi:role="line">Kuahonu</tspan><tspan
         id="tspan9155"
         y="285.93298"
         x="151.83235"
         sodipodi:role="line">Point</tspan></text>
    <text
       transform="rotate(-0.16505933)"
       id="text6600-9-7-2"
       y="321.82089"
       x="136.92395"
       style="font-style:italic;font-variant:normal;font-weight:normal;font-stretch:normal;font-size:9.33333302px;line-height:9.66666698px;font-family:Arial;-inkscape-font-specification:'Arial Italic';text-align:start;letter-spacing:0px;word-spacing:0px;text-anchor:start;fill:#000000;fill-opacity:1;stroke:none"
       xml:space="preserve"><tspan
         y="321.82089"
         x="136.92395"
         id="tspan6598-8-6-7"
         sodipodi:role="line">Kawelikoa</tspan><tspan
         id="tspan9155-0"
         y="331.48755"
         x="136.92395"
         sodipodi:role="line">Point</tspan></text>
    <text
       transform="rotate(-0.16505933)"
       id="text6600-9-7-4"
       y="400.41904"
       x="123.81474"
       style="font-style:italic;font-variant:normal;font-weight:normal;font-stretch:normal;font-size:10.66666698px;line-height:9.66666698px;font-family:Arial;-inkscape-font-specification:'Arial Italic';text-align:start;letter-spacing:0.16px;word-spacing:0px;text-anchor:start;fill:#000000;fill-opacity:1;stroke:none"
       xml:space="preserve"><tspan
         id="tspan9155-3"
         y="400.41904"
         x="123.81474"
         sodipodi:role="line">Pacific Ocean</tspan></text>
    <text
       transform="rotate(40.242345)"
       id="text6600-9-6"
       y="-30.337296"
       x="195.48338"
       style="font-style:normal;font-variant:normal;font-weight:normal;font-stretch:normal;font-size:9.33333302px;line-height:6.66666651px;font-family:Arial;-inkscape-font-specification:Arial;text-align:start;letter-spacing:0.05px;word-spacing:0px;text-anchor:start;fill:#000000;fill-opacity:1;stroke:none"
       xml:space="preserve"><tspan
         y="-30.337296"
         x="195.48338"
         id="tspan6598-8-5"
         sodipodi:role="line">Nawiliwili Rd</tspan></text>
  </g>
  <path
     style="fill:none;stroke:#000000;stroke-width:0.5;stroke-linecap:round;stroke-linejoin:round;stroke-miterlimit:4;stroke-dasharray:none;stroke-opacity:1"
     d="m 232.79041,124.934 -4.32924,0.11601 c -2.45737,0.0658 -3.82841,-2.49249 -4.0651,-4.76618 -0.22166,-2.12933 -1.89563,-4.56545 -3.74836,-6.28997 -1.79622,-1.67193 -6.70158,-4.26539 -10.26609,-6.54369 -1.9575,-1.25116 -4.14085,-2.83932 -5.9965,-4.53379 -0.66587,-0.60803 -1.8378,-1.178 -2.64234,-2.21674 -0.47318,-0.61092 -1.16382,-1.023545 -1.69582,-1.521835 -0.58642,-0.54925 -1.1491,-1.10193 -1.70779,-1.64705 -0.45753,-0.44642 -1.01588,-0.31853 -1.58238,-0.90404 -0.57834,-0.59774 -1.15314,-1.24048 -1.77301,-1.846 -0.3741,-0.36544 -0.86811,-0.61382 -1.28571,-0.93406 -0.33996,-0.2607 -1.21537,-0.91444 -1.597,-1.12347 -0.86719,-0.47497 -1.51992,-0.15333 -2.72979,-0.6106 -0.42188,-0.15945 -0.84832,-0.31038 -1.27904,-0.45716 -0.53249,-0.18145 -1.05932,-0.005 -1.56478,-0.27482 -1.16029,-0.61972 -2.77848,-1.37203 -4.22755,-1.95306 -0.49059,-0.19672 -0.92464,-0.0686 -1.35992,-0.22401 -0.36735,-0.13114 -0.73558,-0.53868 -1.13941,-0.75969 -3.77421,2.07352 -7.74428,4.34103 -11.61915,6.57511 -2.4155,1.39267 -4.8212,2.64778 -6.91132,3.60208"
     id="path14359-1-7-5-3-0-73-1-9-8-5-81"
     inkscape:connector-curvature="0"
     sodipodi:nodetypes="cssssssssssssssssscsc" />
  <path
     style="fill:none;stroke:#000000;stroke-width:0.5;stroke-linecap:round;stroke-linejoin:round;stroke-miterlimit:4;stroke-dasharray:none;stroke-opacity:1"
     d="m 164.63585,98.748565 c 0.79053,-0.68004 1.56208,-1.29708 2.54438,-1.8083 3.18918,-1.65977 8.82427,-5.24623 10.75601,-5.80091 0.79666,-0.22876 0.99545,-0.8146 1.91485,-0.82919 0.74781,-0.0119 1.70121,0.41711 2.6187,0.8158 1.22017,0.53021 2.45238,0.30284 3.90711,1.07573 0.82767,0.43975 2.1537,0.88764 2.94444,1.34308 0.50896,0.29314 1.16532,-0.0833 1.91772,0.37115 0.92772,0.56039 1.88606,0.69168 2.70235,1.35498 1.31002,1.0645 3.01039,2.99488 4.08066,3.86871 2.27618,1.858405 4.82202,4.165345 7.07569,5.868245 1.86206,1.40699 3.25792,2.84453 5.08434,3.91834 1.42597,0.83837 3.13183,1.87889 5.10968,3.11992 1.39034,0.87239 2.92561,1.98648 4.23593,3.05848 0.84867,0.69431 2.01273,1.50091 2.68212,2.38257 0.53703,0.70732 0.66346,1.48139 0.74574,2.14604 0.5172,4.17788 2.28335,6.7473 5.12562,6.88413 0.87882,0.0423 1.6772,0.14406 2.37728,0.12679 0.81196,-0.02 1.56132,-0.0609 2.38169,-0.0782"
     id="path14359-1-7-5-3-0-73-1-9-8-5-81-5"
     inkscape:connector-curvature="0"
     sodipodi:nodetypes="csssssssssssssssssc" />
  <path
     style="fill:none;stroke:#000000;stroke-width:0.5;stroke-linecap:round;stroke-linejoin:round;stroke-miterlimit:4;stroke-dasharray:none;stroke-opacity:1"
     d="m 232.84216,105.78655 c -0.35423,1.15229 -1.58101,3.25582 -3.02427,5.04187 -0.5299,0.65576 -1.26536,0.59434 -2.21691,1.50279 -0.76394,0.72933 -0.35746,1.1397 -0.76936,1.56496 -1.0671,1.10174 -2.45941,1.99414 -3.87569,2.63032"
     id="path14359-1-7-5-3-0-73-1-9-8-5-81-3"
     inkscape:connector-curvature="0"
     sodipodi:nodetypes="csssc" />
  <path
     style="fill:none;stroke:#000000;stroke-width:0.5;stroke-linecap:round;stroke-linejoin:round;stroke-miterlimit:4;stroke-dasharray:none;stroke-opacity:1"
     d="m 232.84216,102.62981 c -0.68592,3.46379 -4.09581,6.84459 -6.25495,9.65913 -0.27389,0.35704 -0.70456,0.43455 -0.98194,0.7441 -1.19361,1.33198 -2.54247,2.24837 -3.73608,2.04445"
     id="path14359-1-7-5-3-0-73-1-9-8-5-81-54"
     inkscape:connector-curvature="0"
     sodipodi:nodetypes="cssc" />
  <path
     style="fill:none;stroke:#000000;stroke-width:0.5;stroke-linecap:round;stroke-linejoin:round;stroke-miterlimit:4;stroke-dasharray:none;stroke-opacity:1"
     d="m 194.29953,72.446626 c 0.73389,0.39146 1.79351,1.250209 3.38022,1.409619 1.22132,0.12271 2.20164,0.5716 3.23341,0.57549 3.31723,0.0125 5.35478,-1.411301 10.19694,-1.346152 3.35364,0.04512 8.52221,1.795942 12.10677,1.875612 1.28424,0.0285 2.79919,0.30482 4.13903,0.17987 2.01107,-0.18756 3.82216,-0.82518 5.42149,-0.93294"
     id="path14359-1-7-5-3-0-73-1-9-8-5-81-36"
     inkscape:connector-curvature="0"
     sodipodi:nodetypes="csssssc" />
  <path
     style="fill:none;stroke:#000000;stroke-width:0.5;stroke-linecap:round;stroke-linejoin:round;stroke-miterlimit:4;stroke-dasharray:none;stroke-opacity:1"
     d="m 193.31628,74.516615 c 2.42566,0.26077 5.04275,1.35142 7.54282,1.3763 4.12841,0.0411 6.39263,-1.14323 11.74435,-1.15515 4.88554,-0.0109 5.71034,1.62081 10.66341,1.76677 5.35249,0.15773 6.76192,-0.74313 9.56228,-1.20967"
     id="path14359-1-7-5-3-0-73-1-9-8-5-81-59"
     inkscape:connector-curvature="0"
     sodipodi:nodetypes="csssc" />
  <path
     style="fill:none;stroke:#000000;stroke-width:0.5;stroke-linecap:round;stroke-linejoin:round;stroke-miterlimit:4;stroke-dasharray:none;stroke-opacity:1"
     d="m 200.188,48.292461 c -0.38289,0.81594 -0.64011,1.526881 -0.67858,2.420076 -0.0409,0.949833 0.41137,2.321832 -0.007,4.201394 -0.58513,2.6293 -1.22025,5.34242 -1.93059,8.071775 -0.38656,1.485282 -0.45824,3.095427 -1.07431,4.491354 -0.35626,0.807224 -0.0966,1.771832 -0.29841,2.576299 -0.22556,0.899088 -0.82249,1.634754 -1.11546,2.453136 -0.3983,1.11262 -0.49817,2.29032 -0.78402,3.42447 -0.78039,3.09623 -1.52907,5.99896 -2.2868,8.6952 -0.26497,0.94283 -0.71572,2.03434 -1.37301,2.8503 -0.45775,0.56827 -1.46374,0.29739 -2.10464,1.01759 -0.81702,0.91811 -1.70476,1.55246 -2.68397,2.3645"
     id="path14359-1-7-5-3-0-73-1-9-8-5-81-549"
     inkscape:connector-curvature="0"
     sodipodi:nodetypes="cssssssssssc" />
  <path
     style="fill:none;stroke:#000000;stroke-width:0.5;stroke-linecap:round;stroke-linejoin:round;stroke-miterlimit:4;stroke-dasharray:none;stroke-opacity:1"
     d="m 198.8425,47.981962 c -0.54885,1.917845 -0.64633,3.765404 -0.48278,5.559575 0.0809,0.887469 -0.21175,1.737591 -0.40125,2.473984 -1.15395,4.484254 -2.25616,8.957483 -3.4101,13.444464 -0.22421,0.871837 -0.15529,1.899443 -0.39412,2.7725 -0.17353,0.634366 -0.65611,1.11385 -0.81903,1.74903 -0.86418,3.36918 -1.72833,6.75075 -2.59249,10.15508 -0.2168,0.85407 -0.37455,1.57497 -0.9377,2.14767 -0.66109,0.6723 -1.4812,0.62011 -2.31481,1.41346 l -2.77743,2.64333"
     id="path14359-1-7-5-3-0-73-1-9-8-5-81-1"
     inkscape:connector-curvature="0"
     sodipodi:nodetypes="cssssssssc" />
  <path
     style="fill:none;stroke:#000000;stroke-width:2;stroke-linecap:round;stroke-linejoin:round;stroke-miterlimit:4;stroke-dasharray:none;stroke-opacity:1"
     d="m 54.392645,252.46079 5.274,-2.19716 3.55905,0.83336 2.15329,-0.0955 7.25443,5.06244 0.2913,2.18644 2.71332,1.15371 3.34792,4.85235 1.78076,0.0809 1.00942,3.63435 -3.41062,5.26181 0.30138,1.60179 0.10305,2.11584 -0.687,0.64037 1.39254,1.536 -0.32844,0.80733 -0.0384,1.23963 -1.64026,3.39048 0.007,0.77889 1.01918,-0.0326 2.25237,-0.23417 0.50199,-1.02429 c 1.41636,-1.26922 2.90389,-2.39609 4.62345,-3.0589 l 0.53115,-3.38936 3.57146,-5.41866 1.95454,2.20946 3.97188,6.09756 0.1772,4.11863 2.1567,-0.0816 0.92532,-1.66194 6.352215,-10.42477 1.13516,-2.69008 2.10113,-3.15275 1.26923,-4.2341 2.31163,-2.50575 2.74999,-5.39132 1.31539,-0.0358 c 2.4078,-2.05554 6.27872,-3.91797 9.90052,-3.81196 7.82132,0.22893 6.91508,4.09183 10.87507,3.98399 l 4.46243,-0.12152 c 1.69898,-0.0463 4.73042,-0.81807 6.92393,-0.96956 l 0.86067,0.94651 2.02937,-0.0186 0.94884,0.9937 3.36572,-2.22507 -2.21582,-14.38651 -12.94036,-8.62547 -26.64454,7.48275 -26.292585,-7.28404 -41.68793,6.08483 -0.19836,17.21609 2.34708,-0.0692 2.79133,-1.22563 z"
     id="path14359-1-7-5-3-0-73-1-9-8-5-81-7"
     inkscape:connector-curvature="0"
     sodipodi:nodetypes="cccccccccccccccccccccccccccccccccccccssscccccccccccccc" />
  <path
     style="fill:none;stroke:#000000;stroke-width:1;stroke-linecap:round;stroke-linejoin:round;stroke-miterlimit:4;stroke-dasharray:none;stroke-opacity:1"
     d="m 144.38249,232.98774 -0.002,20.90924"
     id="path14359-1-7-5-3-0-73-1-9-8-5-81-55"
     inkscape:connector-curvature="0"
     sodipodi:nodetypes="cc" />
  <path
     style="fill:none;stroke:#000000;stroke-width:1;stroke-linecap:round;stroke-linejoin:round;stroke-miterlimit:4;stroke-dasharray:none;stroke-opacity:1"
     d="m 129.33021,233.67454 -0.002,17.18909"
     id="path14359-1-7-5-3-0-73-1-9-8-5-81-4"
     inkscape:connector-curvature="0"
     sodipodi:nodetypes="cc" />
  <path
     style="fill:none;stroke:#000000;stroke-width:1;stroke-linecap:round;stroke-linejoin:round;stroke-miterlimit:4;stroke-dasharray:none;stroke-opacity:1"
     d="m 114.04899,238.02425 -0.002,17.93312"
     id="path14359-1-7-5-3-0-73-1-9-8-5-81-18"
     inkscape:connector-curvature="0"
     sodipodi:nodetypes="cc" />
  <path
     style="fill:none;stroke:#000000;stroke-width:1;stroke-linecap:round;stroke-linejoin:round;stroke-miterlimit:4;stroke-dasharray:none;stroke-opacity:1"
     d="m 139.28875,230.69842 -0.002,23.54196"
     id="path14359-1-7-5-3-0-73-1-9-8-5-81-8"
     inkscape:connector-curvature="0"
     sodipodi:nodetypes="cc" />
  <path
     style="fill:none;stroke:#000000;stroke-width:1;stroke-linecap:round;stroke-linejoin:round;stroke-miterlimit:4;stroke-dasharray:none;stroke-opacity:1"
     d="m 154.51273,242.54565 -0.002,11.06517"
     id="path14359-1-7-5-3-0-73-1-9-8-5-81-35"
     inkscape:connector-curvature="0"
     sodipodi:nodetypes="cc" />
  <path
     style="fill:none;stroke:#000000;stroke-width:1;stroke-linecap:round;stroke-linejoin:round;stroke-miterlimit:4;stroke-dasharray:none;stroke-opacity:1"
     d="m 119.2572,236.42172 -0.002,15.64381"
     id="path14359-1-7-5-3-0-73-1-9-8-5-81-2"
     inkscape:connector-curvature="0"
     sodipodi:nodetypes="cc" />
  <path
     style="fill:none;stroke:#000000;stroke-width:1;stroke-linecap:round;stroke-linejoin:round;stroke-miterlimit:4;stroke-dasharray:none;stroke-opacity:1"
     d="m 134.42394,232.07201 -0.002,21.19541"
     id="path14359-1-7-5-3-0-73-1-9-8-5-81-26"
     inkscape:connector-curvature="0"
     sodipodi:nodetypes="cc" />
  <path
     style="fill:none;stroke:#000000;stroke-width:1;stroke-linecap:round;stroke-linejoin:round;stroke-miterlimit:4;stroke-dasharray:none;stroke-opacity:1"
     d="m 149.41899,236.13556 -0.002,17.76142"
     id="path14359-1-7-5-3-0-73-1-9-8-5-81-6"
     inkscape:connector-curvature="0"
     sodipodi:nodetypes="cc" />
  <path
     style="fill:none;stroke:#000000;stroke-width:1;stroke-linecap:round;stroke-linejoin:round;stroke-miterlimit:4;stroke-dasharray:none;stroke-opacity:1"
     d="m 124.2937,234.9909 -0.002,15.3004"
     id="path14359-1-7-5-3-0-73-1-9-8-5-81-78"
     inkscape:connector-curvature="0"
     sodipodi:nodetypes="cc" />
  <path
     style="fill:none;stroke:#000000;stroke-width:1;stroke-linecap:round;stroke-linejoin:round;stroke-miterlimit:4;stroke-dasharray:none;stroke-opacity:1"
     d="m 68.548745,233.56006 -0.002,19.82182"
     id="path14359-1-7-5-3-0-73-1-9-8-5-81-41"
     inkscape:connector-curvature="0"
     sodipodi:nodetypes="cc" />
  <path
     style="fill:none;stroke:#000000;stroke-width:1;stroke-linecap:round;stroke-linejoin:round;stroke-miterlimit:4;stroke-dasharray:none;stroke-opacity:1"
     d="m 73.642485,232.70157 -0.002,25.88851"
     id="path14359-1-7-5-3-0-73-1-9-8-5-81-71"
     inkscape:connector-curvature="0"
     sodipodi:nodetypes="cc" />
  <path
     style="fill:none;stroke:#000000;stroke-width:1;stroke-linecap:round;stroke-linejoin:round;stroke-miterlimit:4;stroke-dasharray:none;stroke-opacity:1"
     d="m 93.845735,232.12924 -0.002,45.00434"
     id="path14359-1-7-5-3-0-73-1-9-8-5-81-87"
     inkscape:connector-curvature="0"
     sodipodi:nodetypes="cc" />
  <path
     style="fill:none;stroke:#000000;stroke-width:1;stroke-linecap:round;stroke-linejoin:round;stroke-miterlimit:4;stroke-dasharray:none;stroke-opacity:1"
     d="m 109.06971,236.36448 -0.002,28.2923"
     id="path14359-1-7-5-3-0-73-1-9-8-5-81-877"
     inkscape:connector-curvature="0"
     sodipodi:nodetypes="cc" />
  <path
     style="fill:none;stroke:#000000;stroke-width:1;stroke-linecap:round;stroke-linejoin:round;stroke-miterlimit:4;stroke-dasharray:none;stroke-opacity:1"
     d="m 83.772725,230.98458 -0.002,51.01381"
     id="path14359-1-7-5-3-0-73-1-9-8-5-81-44"
     inkscape:connector-curvature="0"
     sodipodi:nodetypes="cc" />
  <path
     style="fill:none;stroke:#000000;stroke-width:1;stroke-linecap:round;stroke-linejoin:round;stroke-miterlimit:4;stroke-dasharray:none;stroke-opacity:1"
     d="m 88.694765,230.64118 -0.002,43.40182"
     id="path14359-1-7-5-3-0-73-1-9-8-5-81-9"
     inkscape:connector-curvature="0"
     sodipodi:nodetypes="cc" />
  <path
     style="fill:none;stroke:#000000;stroke-width:1;stroke-linecap:round;stroke-linejoin:round;stroke-miterlimit:4;stroke-dasharray:none;stroke-opacity:1"
     d="m 98.825005,233.56006 -0.002,49.52575"
     id="path14359-1-7-5-3-0-73-1-9-8-5-81-15"
     inkscape:connector-curvature="0"
     sodipodi:nodetypes="cc" />
  <path
     style="fill:none;stroke:#000000;stroke-width:1;stroke-linecap:round;stroke-linejoin:round;stroke-miterlimit:4;stroke-dasharray:none;stroke-opacity:1"
     d="m 78.678985,231.90031 -0.002,32.01244"
     id="path14359-1-7-5-3-0-73-1-9-8-5-81-558"
     inkscape:connector-curvature="0"
     sodipodi:nodetypes="cc" />
  <path
     style="fill:none;stroke:#000000;stroke-width:1;stroke-linecap:round;stroke-linejoin:round;stroke-miterlimit:4;stroke-dasharray:none;stroke-opacity:1"
     d="m 103.97597,235.04812 -0.002,40.254"
     id="path14359-1-7-5-3-0-73-1-9-8-5-81-29"
     inkscape:connector-curvature="0"
     sodipodi:nodetypes="cc" />
  <path
     style="fill:none;stroke:#000000;stroke-width:1;stroke-linecap:round;stroke-linejoin:round;stroke-miterlimit:4;stroke-dasharray:none;stroke-opacity:1"
     d="m 48.116555,236.13556 -0.002,17.07463"
     id="path14359-1-7-5-3-0-73-1-9-8-5-81-82"
     inkscape:connector-curvature="0"
     sodipodi:nodetypes="cc" />
  <path
     style="fill:none;stroke:#000000;stroke-width:1;stroke-linecap:round;stroke-linejoin:round;stroke-miterlimit:4;stroke-dasharray:none;stroke-opacity:1"
     d="m 58.532965,234.76196 -0.002,15.70104"
     id="path14359-1-7-5-3-0-73-1-9-8-5-81-0"
     inkscape:connector-curvature="0"
     sodipodi:nodetypes="cc" />
  <path
     style="fill:none;stroke:#000000;stroke-width:1;stroke-linecap:round;stroke-linejoin:round;stroke-miterlimit:4;stroke-dasharray:none;stroke-opacity:1"
     d="m 53.496455,235.50599 -0.002,16.61677"
     id="path14359-1-7-5-3-0-73-1-9-8-5-81-74"
     inkscape:connector-curvature="0"
     sodipodi:nodetypes="cc" />
  <path
     style="fill:none;stroke:#000000;stroke-width:1;stroke-linecap:round;stroke-linejoin:round;stroke-miterlimit:4;stroke-dasharray:none;stroke-opacity:1"
     d="m 63.569475,234.18963 -0.002,16.61677"
     id="path14359-1-7-5-3-0-73-1-9-8-5-81-85"
     inkscape:connector-curvature="0"
     sodipodi:nodetypes="cc" />
  <path
     style="fill:none;stroke:#000000;stroke-width:0.5;stroke-linecap:round;stroke-linejoin:round;stroke-miterlimit:4;stroke-dasharray:none;stroke-opacity:1"
     d="m 106.17874,270.00813 -2.07473,-0.0652 -2.08917,-3.05323 0.38175,-1.84774 3.5585,-9.45814 12.94577,-6.98566 5.00454,-3.76159 8.59478,2.90838 3.8207,3.54009 3.11137,0.0425 1.51999,0.76715 2.01705,-1.03575 1.20561,-1.63506 1.31715,-0.26004 1.53674,-1.19374 2.73096,-0.13293 3.49091,3.49879 1.10018,-0.4998 -0.0628,-4.15738 -1.6649,0.0607 -0.68194,-0.76013 -2.11193,0.0159 -1.56041,-0.67436 -0.80054,-0.53884 -3.73489,3.46915 -14.40717,-4.07102 0.006,-1.01197 4.88159,-5.87126 1.39288,0.28708 7.43294,-5.14654 -2.25685,-1.75939 -2.39612,2.02359 -5.96236,3.45606 -1.59737,0.5331 -1.48568,1.13108 -4.67583,1.88672 -9.56395,-0.30759 -24.26489,-3.62329 -2.236988,0.54323 -14.913493,0.006 -1.355711,-0.54175 -1.46797,6e-4 0.0018,-2.01085 -0.913144,0.14456 -2.240283,1.30486 -7.315209,0.46939 -2.668541,4.04472 -3.766674,7.75971 -5.032443,-0.23171 -2.200761,4.12181 2.433998,-0.9009 2.018158,0.0503 5.608046,-1.73161 1.744192,-0.6532 4.95908,1.54543 2.962506,1.36338 2.176614,0.0635 15.629225,14.28651 -3.290408,9.74618 -0.009,8.81841"
     id="path14359-1-7-5-3-0-73-1-9-8-5-830"
     inkscape:connector-curvature="0"
     sodipodi:nodetypes="cccccccccccccccccccccccccccccccccccccccccccccccccccccccccccc" />
</svg>
