<?xml version="1.0" encoding="UTF-8" standalone="no"?>
<!-- Created with Inkscape (http://www.inkscape.org/) -->

<svg
   xmlns:dc="http://purl.org/dc/elements/1.1/"
   xmlns:cc="http://creativecommons.org/ns#"
   xmlns:rdf="http://www.w3.org/1999/02/22-rdf-syntax-ns#"
   xmlns:svg="http://www.w3.org/2000/svg"
   xmlns="http://www.w3.org/2000/svg"
   xmlns:sodipodi="http://sodipodi.sourceforge.net/DTD/sodipodi-0.dtd"
   xmlns:inkscape="http://www.inkscape.org/namespaces/inkscape"
   version="1.1"
   id="svg5146"
   width="220.8"
   height="571.52002"
   viewBox="0 0 220.8 571.52002"
   sodipodi:docname="er27fe03.217.svg"
   inkscape:version="0.92.2 5c3e80d, 2017-08-06">
  <metadata
     id="metadata5152">
    <rdf:RDF>
      <cc:Work
         rdf:about="">
        <dc:format>image/svg+xml</dc:format>
        <dc:type
           rdf:resource="http://purl.org/dc/dcmitype/StillImage" />
        <dc:title></dc:title>
      </cc:Work>
    </rdf:RDF>
  </metadata>
  <defs
     id="defs5150" />
  <sodipodi:namedview
     pagecolor="#ffffff"
     bordercolor="#666666"
     borderopacity="1"
     objecttolerance="10"
     gridtolerance="10"
     guidetolerance="10"
     inkscape:pageopacity="0"
     inkscape:pageshadow="2"
     inkscape:window-width="1280"
     inkscape:window-height="756"
     id="namedview5148"
     showgrid="false"
     inkscape:snap-global="false"
     inkscape:zoom="1.8101382"
     inkscape:cx="10.725825"
     inkscape:cy="63.89593"
     inkscape:window-x="0"
     inkscape:window-y="0"
     inkscape:window-maximized="0"
     inkscape:current-layer="svg5146" />
  <path
     style="fill:none;stroke:#000000;stroke-width:1;stroke-linecap:round;stroke-linejoin:miter;stroke-miterlimit:4;stroke-dasharray:none;stroke-opacity:1"
     d="M 217.5371,565.63531 218.23577,3.0051811 5.5152524,2.7079511 5.4293078,565.48444 Z"
     id="path14359-1-7-5-3-0-73-1-9-8-5"
     inkscape:connector-curvature="0"
     sodipodi:nodetypes="ccccc" />
  <path
     style="fill:none;stroke:#000000;stroke-width:1;stroke-linecap:butt;stroke-linejoin:round;stroke-miterlimit:4;stroke-dasharray:none;stroke-opacity:1"
     d="M 217.60417,404.7233 5.4444257,404.76459"
     id="path14359-1-7-5-3-0-73-1-9-8-5-5"
     inkscape:connector-curvature="0"
     sodipodi:nodetypes="cc" />
  <path
     style="fill:none;stroke:#000000;stroke-width:1.90499413;stroke-linecap:butt;stroke-linejoin:round;stroke-miterlimit:4;stroke-dasharray:none;stroke-opacity:1"
     d="m 47.561076,430.01596 0.0019,-13.05065 H 22.33682 l -0.0019,13.05065 z"
     id="path14359-1-7-5-3-0-73-1-9-8-5-27"
     inkscape:connector-curvature="0"
     sodipodi:nodetypes="ccccc" />
  <path
     style="fill:none;stroke:#000000;stroke-width:1;stroke-linecap:butt;stroke-linejoin:miter;stroke-miterlimit:4;stroke-dasharray:none;stroke-opacity:1"
     d="m 22.637405,433.83543 -0.0019,13.35598 h 24.690972 l 0.0019,-13.35598 z"
     id="path14359-1-7-5-3-0-73-1-9-8-5-3"
     inkscape:connector-curvature="0"
     sodipodi:nodetypes="ccccc" />
  <path
     style="fill:none;stroke:#000000;stroke-width:0.52019733;stroke-linecap:butt;stroke-linejoin:round;stroke-miterlimit:4;stroke-dasharray:0.52019734, 2.08078934999999987;stroke-dashoffset:0;stroke-opacity:1"
     d="m 48.691951,460.96882 -8.715799,12.90253 -9.806542,-14.14698 -9.759102,14.13209"
     id="path14359-1-7-5-3-0-73-1-9-8-5-9"
     inkscape:connector-curvature="0"
     sodipodi:nodetypes="cccc" />
  <path
     style="fill:none;stroke:#000000;stroke-width:1;stroke-linecap:butt;stroke-linejoin:miter;stroke-miterlimit:4;stroke-dasharray:none;stroke-opacity:1"
     d="m 44.502823,433.88385 -0.0019,13.21452"
     id="path14359-1-7-5-3-0-73-1-9-8-5-9-0"
     inkscape:connector-curvature="0"
     sodipodi:nodetypes="cc" />
  <path
     style="fill:none;stroke:#000000;stroke-width:1;stroke-linecap:butt;stroke-linejoin:miter;stroke-miterlimit:4;stroke-dasharray:none;stroke-opacity:1"
     d="m 39.664519,433.88385 -0.0019,13.21452"
     id="path14359-1-7-5-3-0-73-1-9-8-5-9-2"
     inkscape:connector-curvature="0"
     sodipodi:nodetypes="cc" />
  <path
     style="fill:none;stroke:#000000;stroke-width:1;stroke-linecap:butt;stroke-linejoin:miter;stroke-miterlimit:4;stroke-dasharray:none;stroke-opacity:1"
     d="m 35.041902,433.88385 -0.0019,13.21452"
     id="path14359-1-7-5-3-0-73-1-9-8-5-9-3"
     inkscape:connector-curvature="0"
     sodipodi:nodetypes="cc" />
  <path
     style="fill:none;stroke:#000000;stroke-width:1;stroke-linecap:butt;stroke-linejoin:miter;stroke-miterlimit:4;stroke-dasharray:none;stroke-opacity:1"
     d="m 30.561291,433.88385 -0.0019,13.21452"
     id="path14359-1-7-5-3-0-73-1-9-8-5-9-9"
     inkscape:connector-curvature="0"
     sodipodi:nodetypes="cc" />
  <path
     style="fill:none;stroke:#000000;stroke-width:1;stroke-linecap:butt;stroke-linejoin:miter;stroke-miterlimit:4;stroke-dasharray:none;stroke-opacity:1"
     d="m 25.865366,433.88385 -0.0019,13.21452"
     id="path14359-1-7-5-3-0-73-1-9-8-5-9-97"
     inkscape:connector-curvature="0"
     sodipodi:nodetypes="cc" />
  <path
     style="fill:none;stroke:#000000;stroke-width:1;stroke-linecap:round;stroke-linejoin:round;stroke-miterlimit:4;stroke-dasharray:none;stroke-opacity:1"
     d="m 49.169881,479.69315 -9.43391,14.40858 -9.581306,-14.83534 -9.631787,14.58264"
     id="path14359-1-7-5-3-0-73-1-9-8-5-9-03"
     inkscape:connector-curvature="0"
     sodipodi:nodetypes="cccc" />
  <path
     style="fill:none;stroke:#000000;stroke-width:1;stroke-linecap:round;stroke-linejoin:miter;stroke-miterlimit:4;stroke-dasharray:none;stroke-opacity:1"
     d="m 217.28673,486.35707 -96.01579,0.10092 -0.31289,78.88569"
     id="path14359-1-7-5-3-0-73-1-9-8-5-9-03-6"
     inkscape:connector-curvature="0"
     sodipodi:nodetypes="ccc" />
  <path
     style="fill:none;stroke:#000000;stroke-width:1;stroke-linecap:round;stroke-linejoin:round;stroke-miterlimit:4;stroke-dasharray:none;stroke-opacity:1"
     d="m 56.543816,528.00425 -0.0019,5.3292 H 26.880808 l 0.0019,-5.3292 z"
     id="path14359-1-7-5-3-0-73-1-9-8-5-9-03-62"
     inkscape:connector-curvature="0"
     sodipodi:nodetypes="ccccc" />
  <path
     style="fill:none;stroke:#000000;stroke-width:1;stroke-linecap:round;stroke-linejoin:round;stroke-miterlimit:4;stroke-dasharray:none;stroke-opacity:1"
     d="m 26.855853,530.79065 14.708163,0.002"
     id="path14359-1-7-5-3-0-73-1-9-8-5-9-03-0"
     inkscape:connector-curvature="0"
     sodipodi:nodetypes="cc" />
  <path
     style="fill:none;stroke:#000000;stroke-width:1;stroke-linecap:round;stroke-linejoin:round;stroke-miterlimit:4;stroke-dasharray:none;stroke-opacity:1"
     d="m 41.784204,528.12698 -0.0019,5.14515"
     id="path14359-1-7-5-3-0-73-1-9-8-5-9-03-3"
     inkscape:connector-curvature="0"
     sodipodi:nodetypes="cc" />
  <path
     style="fill:none;stroke:#000000;stroke-width:1;stroke-linecap:round;stroke-linejoin:round;stroke-miterlimit:4;stroke-dasharray:none;stroke-opacity:1"
     d="m 45.383074,546.43537 0.01829,5.57468 H 26.936186 l -0.01838,-5.57468 z"
     id="path14359-1-7-5-3-0-73-1-9-8-5-9-03-62-9"
     inkscape:connector-curvature="0"
     sodipodi:nodetypes="ccccc" />
  <path
     style="fill:none;stroke:#000000;stroke-width:1;stroke-linecap:round;stroke-linejoin:round;stroke-miterlimit:4;stroke-dasharray:none;stroke-opacity:1"
     d="m 26.891085,549.2218 9.044876,0.002"
     id="path14359-1-7-5-3-0-73-1-9-8-5-9-03-0-9"
     inkscape:connector-curvature="0"
     sodipodi:nodetypes="cc" />
  <path
     style="fill:none;stroke:#000000;stroke-width:1;stroke-linecap:round;stroke-linejoin:round;stroke-miterlimit:4;stroke-dasharray:none;stroke-opacity:1"
     d="m 36.156121,546.55811 0.01838,5.39061"
     id="path14359-1-7-5-3-0-73-1-9-8-5-9-03-3-9"
     inkscape:connector-curvature="0"
     sodipodi:nodetypes="cc" />
  <path
     style="fill:#000000;fill-opacity:1;stroke:#000000;stroke-width:0.5;stroke-linecap:round;stroke-linejoin:round;stroke-miterlimit:4;stroke-dasharray:none;stroke-opacity:1"
     d="m 131.7504,554.1332 4.43243,1.26005 -4.1936,-12.26805 0.16584,-0.50605 4.67406,13.33973 -4.43247,-1.25999 -4.66491,1.41521 0.27581,-0.84152 z"
     id="path14359-1-7-5-3-0-73-1-9-8-5-89-7"
     inkscape:connector-curvature="0"
     sodipodi:nodetypes="ccccccccc" />
  <path
     style="fill:none;stroke:#000000;stroke-width:0.5;stroke-linecap:round;stroke-linejoin:round;stroke-miterlimit:4;stroke-dasharray:none;stroke-opacity:1"
     d="m 136.18283,555.39325 -4.57073,-13.41738 -4.52664,13.57254 4.66494,-1.41521 z"
     id="path14359-1-7-5-3-0-73-1-9-8-5-89"
     inkscape:connector-curvature="0"
     sodipodi:nodetypes="ccccc" />
  <path
     style="fill:none;stroke:#000000;stroke-width:1;stroke-linecap:butt;stroke-linejoin:round;stroke-miterlimit:4;stroke-dasharray:none;stroke-opacity:1"
     d="M 218.02107,47.070967 5.5624296,47.063442"
     id="path14359-1-7-5-3-0-73-1-9-8-5-5-3"
     inkscape:connector-curvature="0"
     sodipodi:nodetypes="cc" />
  <g
     id="g123"
     sodipodi:insensitive="true">
    <text
       transform="scale(0.99813229,1.0018712)"
       id="text10278-9"
       y="427.97632"
       x="56.49157"
       style="font-style:normal;font-variant:normal;font-weight:normal;font-stretch:normal;font-size:12px;line-height:13.04281139px;font-family:STIXGeneral;-inkscape-font-specification:STIXGeneral;text-align:start;letter-spacing:-0.23999999px;word-spacing:0px;text-anchor:start;fill:#000000;fill-opacity:1;stroke:none;stroke-width:1.00329316"
       xml:space="preserve"><tspan
         style="letter-spacing:-0.23999999px;fill:#000000;fill-opacity:1;stroke-width:1.00329316"
         id="tspan10280-8"
         y="427.97632"
         x="56.49157"
         sodipodi:role="line">Critical Habitat Unit 1</tspan></text>
    <text
       transform="scale(0.99813229,1.0018712)"
       id="text10278-9-3"
       y="443.89066"
       x="56.243122"
       style="font-style:normal;font-variant:normal;font-weight:normal;font-stretch:normal;font-size:12px;line-height:13.04281139px;font-family:STIXGeneral;-inkscape-font-specification:STIXGeneral;text-align:start;letter-spacing:-0.23999999px;word-spacing:0px;text-anchor:start;fill:#000000;fill-opacity:1;stroke:none;stroke-width:1.00329316"
       xml:space="preserve"><tspan
         style="letter-spacing:-0.23999999px;stroke-width:1.00329316"
         id="tspan10364"
         y="443.89066"
         x="56.243122"
         sodipodi:role="line">Critical Habitat for </tspan></text>
    <text
       transform="scale(0.99813229,1.0018712)"
       id="text10278-4"
       y="455.65784"
       x="67.041161"
       style="font-style:italic;font-variant:normal;font-weight:normal;font-stretch:normal;font-size:12px;line-height:14.38053513px;font-family:STIXGeneral;-inkscape-font-specification:'STIXGeneral Italic';text-align:start;letter-spacing:-0.24999999px;word-spacing:0px;text-anchor:start;fill:#000000;fill-opacity:1;stroke:none;stroke-width:1.00329316"
       xml:space="preserve"><tspan
         style="font-style:italic;font-variant:normal;font-weight:normal;font-stretch:normal;line-height:18.39370918px;font-family:STIXGeneral;-inkscape-font-specification:'STIXGeneral Italic';text-align:start;letter-spacing:-0.24999999px;text-anchor:start;fill:#000000;fill-opacity:1;stroke-width:1.00329316"
         id="tspan10280-2"
         y="455.65784"
         x="67.041161"
         sodipodi:role="line">Brighamia insignis - a</tspan></text>
    <text
       transform="scale(0.99813229,1.0018712)"
       id="text10278-9-3-2"
       y="472.30649"
       x="56.243904"
       style="font-style:normal;font-variant:normal;font-weight:normal;font-stretch:normal;font-size:12px;line-height:13.04281139px;font-family:STIXGeneral;-inkscape-font-specification:STIXGeneral;text-align:start;letter-spacing:-0.23999999px;word-spacing:0px;text-anchor:start;fill:#000000;fill-opacity:1;stroke:none;stroke-width:1.00329316"
       xml:space="preserve"><tspan
         style="letter-spacing:-0.23999999px;stroke-width:1.00329316"
         id="tspan10364-8"
         y="472.30649"
         x="56.243904"
         sodipodi:role="line">Elevation (500-ft. contours)</tspan></text>
    <text
       transform="scale(0.99813229,1.0018712)"
       id="text10278-9-3-5"
       y="491.29166"
       x="56.244591"
       style="font-style:normal;font-variant:normal;font-weight:normal;font-stretch:normal;font-size:12px;line-height:13.04281139px;font-family:STIXGeneral;-inkscape-font-specification:STIXGeneral;text-align:start;letter-spacing:-0.23999999px;word-spacing:0px;text-anchor:start;fill:#000000;fill-opacity:1;stroke:none;stroke-width:1.00329316"
       xml:space="preserve"><tspan
         style="letter-spacing:-0.23999999px;stroke-width:1.00329316"
         id="tspan10364-6"
         y="491.29166"
         x="56.244591"
         sodipodi:role="line">Coastline </tspan></text>
    <text
       transform="scale(0.99813229,1.0018712)"
       id="text10278-9-3-5-7"
       y="542.74237"
       x="55.22744"
       style="font-style:normal;font-variant:normal;font-weight:normal;font-stretch:normal;font-size:6.66666651px;line-height:13.04281139px;font-family:STIXGeneral;-inkscape-font-specification:STIXGeneral;text-align:start;letter-spacing:0.25px;word-spacing:0px;text-anchor:start;fill:#000000;fill-opacity:1;stroke:none;stroke-width:1.00329316"
       xml:space="preserve"><tspan
         style="letter-spacing:0.25px;stroke-width:1.00329316"
         id="tspan10364-6-2"
         y="542.74237"
         x="55.22744"
         sodipodi:role="line">Kilometers</tspan></text>
    <text
       transform="scale(0.99813229,1.0018712)"
       id="text10278-9-3-5-7-8"
       y="524.1463"
       x="66.900795"
       style="font-style:normal;font-variant:normal;font-weight:normal;font-stretch:normal;font-size:6.66666651px;line-height:13.04281139px;font-family:STIXGeneral;-inkscape-font-specification:STIXGeneral;text-align:start;letter-spacing:0.25px;word-spacing:0px;text-anchor:start;fill:#000000;fill-opacity:1;stroke:none;stroke-width:1.00329316"
       xml:space="preserve"><tspan
         style="letter-spacing:0.25px;stroke-width:1.00329316"
         id="tspan10364-6-2-0"
         y="524.1463"
         x="66.900795"
         sodipodi:role="line">Miles</tspan></text>
    <text
       transform="scale(0.99813229,1.0018712)"
       id="text10278-9-3-5-7-8-0"
       y="524.16791"
       x="22.675726"
       style="font-style:normal;font-variant:normal;font-weight:normal;font-stretch:normal;font-size:6.66666651px;line-height:13.04281139px;font-family:STIXGeneral;-inkscape-font-specification:STIXGeneral;text-align:start;letter-spacing:0.25px;word-spacing:0px;text-anchor:start;fill:#000000;fill-opacity:1;stroke:none;stroke-width:1.00329316"
       xml:space="preserve"><tspan
         style="letter-spacing:0.25px;stroke-width:1.00329316"
         id="tspan10364-6-2-0-8"
         y="524.16791"
         x="22.675726"
         sodipodi:role="line">0.5</tspan></text>
    <text
       transform="scale(0.99813229,1.0018712)"
       id="text10278-9-3-5-7-8-2"
       y="524.00226"
       x="40.226986"
       style="font-style:normal;font-variant:normal;font-weight:normal;font-stretch:normal;font-size:6.66666651px;line-height:13.04281139px;font-family:STIXGeneral;-inkscape-font-specification:STIXGeneral;text-align:start;letter-spacing:0.25px;word-spacing:0px;text-anchor:start;fill:#000000;fill-opacity:1;stroke:none;stroke-width:1.00329316"
       xml:space="preserve"><tspan
         style="letter-spacing:0.25px;stroke-width:1.00329316"
         id="tspan10364-6-2-0-5"
         y="524.00226"
         x="40.226986"
         sodipodi:role="line">0</tspan></text>
    <text
       transform="scale(0.99813229,1.0018712)"
       id="text10278-9-3-5-7-8-8"
       y="524.20715"
       x="52.697994"
       style="font-style:normal;font-variant:normal;font-weight:normal;font-stretch:normal;font-size:6.66666651px;line-height:13.04281139px;font-family:STIXGeneral;-inkscape-font-specification:STIXGeneral;text-align:start;letter-spacing:0.25px;word-spacing:0px;text-anchor:start;fill:#000000;fill-opacity:1;stroke:none;stroke-width:1.00329316"
       xml:space="preserve"><tspan
         style="letter-spacing:0.25px;stroke-width:1.00329316"
         id="tspan10364-6-2-0-0"
         y="524.20715"
         x="52.697994"
         sodipodi:role="line">0.5</tspan></text>
    <text
       transform="scale(0.99813229,1.0018712)"
       id="text10278-9-3-5-7-8-0-3"
       y="542.55786"
       x="22.699011"
       style="font-style:normal;font-variant:normal;font-weight:normal;font-stretch:normal;font-size:6.66666651px;line-height:13.04281139px;font-family:STIXGeneral;-inkscape-font-specification:STIXGeneral;text-align:start;letter-spacing:0.25px;word-spacing:0px;text-anchor:start;fill:#000000;fill-opacity:1;stroke:none;stroke-width:1.00329316"
       xml:space="preserve"><tspan
         style="letter-spacing:0.25px;stroke-width:1.00329316"
         id="tspan10364-6-2-0-8-2"
         y="542.55786"
         x="22.699011"
         sodipodi:role="line">0.5</tspan></text>
    <text
       transform="scale(0.99813229,1.0018712)"
       id="text10278-9-3-5-7-8-2-3"
       y="542.53766"
       x="34.728149"
       style="font-style:normal;font-variant:normal;font-weight:normal;font-stretch:normal;font-size:6.66666651px;line-height:13.04281139px;font-family:STIXGeneral;-inkscape-font-specification:STIXGeneral;text-align:start;letter-spacing:0.25px;word-spacing:0px;text-anchor:start;fill:#000000;fill-opacity:1;stroke:none;stroke-width:1.00329316"
       xml:space="preserve"><tspan
         style="letter-spacing:0.25px;stroke-width:1.00329316"
         id="tspan10364-6-2-0-5-3"
         y="542.53766"
         x="34.728149"
         sodipodi:role="line">0</tspan></text>
    <text
       transform="scale(0.99813229,1.0018712)"
       id="text10278-9-3-5-7-8-8-2"
       y="542.75458"
       x="41.212132"
       style="font-style:normal;font-variant:normal;font-weight:normal;font-stretch:normal;font-size:6.66666651px;line-height:13.04281139px;font-family:STIXGeneral;-inkscape-font-specification:STIXGeneral;text-align:start;letter-spacing:0.25px;word-spacing:0px;text-anchor:start;fill:#000000;fill-opacity:1;stroke:none;stroke-width:1.00329316"
       xml:space="preserve"><tspan
         style="letter-spacing:0.25px;stroke-width:1.00329316"
         id="tspan10364-6-2-0-0-1"
         y="542.75458"
         x="41.212132"
         sodipodi:role="line">0.5</tspan></text>
    <text
       transform="scale(0.99813229,1.0018712)"
       id="text10278-9-3-5-7-8-8-1"
       y="560.11011"
       x="130.26453"
       style="font-style:normal;font-variant:normal;font-weight:normal;font-stretch:normal;font-size:5.33333349px;line-height:12.95945358px;font-family:STIXGeneral;-inkscape-font-specification:STIXGeneral;text-align:start;letter-spacing:-0.09968813px;word-spacing:0px;text-anchor:start;fill:#000000;fill-opacity:1;stroke:none;stroke-width:0.99688119"
       xml:space="preserve"><tspan
         style="stroke-width:0.99688119"
         id="tspan10364-6-2-0-0-7"
         y="560.11011"
         x="130.26453"
         sodipodi:role="line">N</tspan></text>
    <text
       transform="scale(0.9999349,1.0000651)"
       id="text10278-3"
       y="19.659935"
       x="112.103"
       style="font-style:normal;font-variant:normal;font-weight:bold;font-stretch:normal;font-size:13.33333302px;line-height:18.42666626px;font-family:STIXGeneral;-inkscape-font-specification:'STIXGeneral Bold';text-align:center;letter-spacing:0.2px;word-spacing:0px;text-anchor:middle;fill:#000000;fill-opacity:1;stroke:none;stroke-width:1.0052551"
       xml:space="preserve"><tspan
         style="text-align:center;letter-spacing:0.2px;text-anchor:middle;stroke-width:1.0052551"
         y="19.659935"
         x="112.203"
         id="tspan10276-9"
         sodipodi:role="line">   Map 218</tspan><tspan
         id="tspan6356"
         style="text-align:center;letter-spacing:0.2px;text-anchor:middle;stroke-width:1.0052551"
         y="38.086601"
         x="112.203"
         sodipodi:role="line">  Unit 1 - <tspan
   id="tspan6697"
   style="font-style:italic;font-variant:normal;font-weight:bold;font-stretch:normal;font-family:STIXGeneral;-inkscape-font-specification:'STIXGeneral Bold Italic';text-align:center;letter-spacing:0.2px;text-anchor:middle">Brighamia insignis - a</tspan></tspan></text>
    <text
       id="text4781-0-8-3-1"
       y="378.19382"
       x="96.636116"
       style="font-style:italic;font-variant:normal;font-weight:normal;font-stretch:normal;font-size:10.66666698px;line-height:10px;font-family:Arial;-inkscape-font-specification:'Arial Italic';text-align:start;letter-spacing:-0.06px;word-spacing:0px;text-anchor:start;fill:#000000;fill-opacity:1;stroke:none"
       xml:space="preserve"><tspan
         id="tspan40637-6"
         y="378.19382"
         x="96.636116"
         sodipodi:role="line">Pacific Ocean</tspan></text>
    <text
       transform="rotate(-56.611672)"
       id="text4781-0-8-3-1-8"
       y="219.30565"
       x="-113.77365"
       style="font-style:normal;font-variant:normal;font-weight:normal;font-stretch:normal;font-size:6.66666651px;line-height:10px;font-family:Arial;-inkscape-font-specification:Arial;text-align:start;letter-spacing:0.30000001px;word-spacing:0px;text-anchor:start;fill:#000000;fill-opacity:1;stroke:none"
       xml:space="preserve"><tspan
         id="tspan40637-6-1"
         y="219.30565"
         x="-113.77365"
         sodipodi:role="line">1000</tspan></text>
    <text
       transform="rotate(-12.715381)"
       id="text4781-0-8-3-1-8-6"
       y="214.59383"
       x="38.48748"
       style="font-style:normal;font-variant:normal;font-weight:normal;font-stretch:normal;font-size:6.66666651px;line-height:10px;font-family:Arial;-inkscape-font-specification:Arial;text-align:start;letter-spacing:0.30000001px;word-spacing:0px;text-anchor:start;fill:#000000;fill-opacity:1;stroke:none"
       xml:space="preserve"><tspan
         id="tspan40637-6-1-5"
         y="214.59383"
         x="38.48748"
         sodipodi:role="line">500</tspan></text>
  </g>
  <path
     style="fill:none;stroke:#000000;stroke-width:1px;stroke-linecap:round;stroke-linejoin:miter;stroke-opacity:1"
     d="m 184.8313,489.01297 c -0.0154,0.32041 -0.93032,1.5954 -0.64762,1.8781 1.17747,1.17747 3.1354,0.55604 4.08002,-0.38857 0.19189,-0.19189 0.14116,-0.72403 0.32381,-0.90667 0.12088,-0.12089 0.43199,-0.0221 0.5181,-0.19429 0.18251,-0.36503 -0.67903,-1.26188 -0.84191,-1.42477 -0.44714,-0.44714 0.0975,1.48953 -1.48953,1.48953 -0.26915,0 -0.90019,-0.12352 -1.0362,-0.25905 -0.29977,-0.29976 -0.46733,-0.35179 -0.71238,-0.84191 -0.21291,-0.42581 0.44786,-1.04166 0.25905,-1.23048 -0.0887,-0.0887 -0.18316,-0.0648 -0.42821,0.25083 -0.24504,0.31562 0.002,1.0723 -0.0251,1.62728 z"
     id="path6535"
     inkscape:connector-curvature="0"
     sodipodi:nodetypes="ssccccsccccs" />
  <path
     style="fill:none;stroke:#000000;stroke-width:1px;stroke-linecap:round;stroke-linejoin:round;stroke-opacity:1"
     d="m 182.04657,499.31016 c 0.003,-1.38488 0.72292,-1.1115 1.36,-1.74858 0.0714,-0.0714 0.47333,-0.75715 0.58286,-0.64762 0.19279,0.19279 1.1472,0.7309 1.42477,0.45333 0.22038,-0.22038 0.73734,-0.30895 0.90667,-0.64762 0.19329,-0.38658 0.26306,-0.58687 0.58286,-0.90667 0.32908,-0.32908 -0.0754,-0.89601 0.19429,-1.16572 0.83327,-0.83327 1.98912,1.3415 2.13715,1.48953 0.63489,0.63489 1.82495,0.0382 2.65525,0.45333 0.57375,0.28688 1.87965,-0.5844 2.13715,-0.8419 0.35699,-0.35698 1.08747,0.63413 1.16572,0.71238 0.15112,0.15111 0.6908,-0.0863 0.84191,0.0648 0.23746,0.23746 0.41016,0.53969 0.64763,0.77715 0.29794,0.29795 1.09024,0.18357 1.36,0.45333 0.64108,0.64109 0.71416,1.94465 1.36001,2.59049 0.0823,0.0823 0.2476,1.5314 0.38857,1.81334 0.0563,0.1127 -0.33508,0.33509 -0.38857,0.38858 -0.29594,0.29593 -0.36867,0.75724 -0.64762,1.03619 -0.45171,0.45171 -1.8149,-0.64606 -2.65525,0.19429 -0.32382,0.32381 -0.32382,0.97143 -0.64763,1.29524 -0.50301,0.50301 -0.82857,1.34668 -1.36,1.87811 -0.21651,0.2165 0.11017,0.99078 -0.12953,1.23048 -0.4625,0.4625 -0.8488,1.04309 -1.29524,1.48953 -0.53864,0.53864 -0.38613,1.55185 -0.90667,2.07239 -0.48666,0.48665 -0.0411,2.24299 -0.5181,2.72001 -0.7252,0.72521 -1.46254,4.6521 -0.77715,6.02289 0.16407,0.32813 -0.16406,0.90235 0,1.23048 0.206,0.41199 1.5543,3.18291 1.5543,3.36764 0,0.29842 0.85826,3.02747 0.84191,3.04382 -0.72653,0.72652 -1.80217,0.63645 -2.13716,0.97143 -0.35122,0.35122 -0.48199,1.21243 -1.03619,1.48953 -0.45991,0.22996 -1.44898,-0.2996 -1.74858,0 -0.52018,0.52018 -1.04055,1.31974 -1.68382,1.74858 -0.39225,0.43113 -1.03321,-0.90969 -1.48953,-0.45337 -0.37241,0.37241 -0.73607,0.93035 -1.10096,1.29524 -0.27603,0.27604 -0.75572,0.30239 -1.03619,0.58286 -0.10166,0.10166 -0.59514,-0.51196 -0.97144,-0.32381 -0.73346,0.36673 -1.43278,0.58687 -2.07239,0.90667 -0.64686,0.32343 -2.10878,-0.61123 -2.72001,0 -0.26081,0.26081 -0.12006,0.83718 -0.5181,1.0362 -1.067,0.5335 -0.73995,-0.36101 -1.8781,0.77714 -0.15265,0.15265 -0.36545,-0.23592 -0.5181,-0.38857 -0.28175,-0.28175 -2.19081,-0.27015 -2.3962,-0.0648 -0.93967,0.93966 -2.59065,1.36016 -3.56192,2.33144 -1.03727,1.03727 -2.08638,2.92828 -3.10859,3.95049 -0.17377,0.17377 0.13852,0.76816 -0.0648,0.97144 -0.42434,0.42433 -0.88072,0.62167 -1.29525,1.03619 -0.13453,0.13453 -0.52418,2.66134 -0.64762,2.78478 -0.35619,0.35619 -0.93905,0.48571 -1.29524,0.8419 -0.32486,0.32486 -0.31978,1.09693 -0.64762,1.42477 -0.60222,0.60222 -0.88695,1.34028 -1.48953,1.94287 -0.36998,0.36997 -0.0597,0.89657 -0.32382,1.42477 -0.17058,0.34116 -0.52475,0.65428 -0.77714,0.90667 -0.48139,0.48139 -0.41886,1.39029 -0.97143,1.94287 -0.80137,0.80136 0.55463,1.54597 0.32381,2.00762 -0.33783,0.67567 -1.47314,1.14933 -1.94287,1.61906 -0.68126,0.68126 -0.36509,1.53081 -1.0362,2.20191 -0.55093,0.55094 0.75459,1.53174 0.97144,1.74858 0.19659,0.1966 -0.997,1.83891 -1.16572,2.00763 -0.33093,0.33093 -1.19048,-0.99619 -1.29525,-1.10096 -0.3485,-0.34849 -0.50164,0.76069 -0.58286,0.84191 -0.14391,0.14392 -0.39574,-0.59003 -0.45333,-0.64762 -0.29373,-0.29373 -0.44586,0.97891 -1.0362,0.38857 -0.43973,-0.43973 -0.62401,-1.27163 -1.10095,-1.74858 -0.29393,-0.29392 -0.86828,-0.22065 -1.16572,-0.51809 -0.48018,-0.48018 -0.18773,-1.0362 -1.10096,-1.0362 -0.13094,0 -1.20945,-0.021 -1.29525,0.0648 -0.09,0.09 -0.0838,0.32382 -0.25904,0.32382 -0.80751,0 -0.6336,-3.09457 -1.23049,-3.69145 -0.55555,-0.55556 -1.62954,-0.52858 -1.8781,-0.77715 -0.60315,-0.60315 0.5239,-1.80753 -0.19429,-2.52572 -0.41113,-0.41113 -1.13359,-0.38908 -1.42477,-0.97144 -0.16859,-0.33719 0.16874,-2.69446 0.25905,-2.78477 0.12953,-0.12953 -0.12952,-0.64762 0,-0.77715 0.15541,-0.15541 0.45546,-0.0669 0.58286,-0.19428 0.28425,-0.28425 -0.21428,-0.88668 0.0648,-1.16572 0.0242,-0.0242 0.43649,-0.14637 0.38857,-0.19429 -0.21183,-0.21183 -0.51841,-0.25967 -0.71239,-0.64762 -0.12107,-0.24215 0.77292,-1.16995 0.32382,-1.61906 -0.07,-0.07 -1.3852,-0.55767 -0.97144,-0.97143 0.19213,-0.19213 0.38858,0.0226 0.38858,-0.45334 0,-0.23065 -0.0622,-0.7797 0.0648,-0.90667 0.29143,-0.29143 0.74476,-0.42095 1.03619,-0.71238 0.96797,-0.96797 1.92117,-2.20176 2.65525,-3.30287 0.53467,-1.22535 -0.47,-4.64624 0.32378,-5.44003 0.31954,-0.31954 0.95585,-0.50251 1.29525,-0.84191 0.24606,-0.24606 -0.46478,-1.08951 -0.12953,-1.42477 0.26085,-0.26085 0.53326,-0.66278 0.84191,-0.97143 0.0927,-0.0927 -0.047,-0.47111 0.0648,-0.58286 0.58179,-0.58179 1.46044,-0.81282 2.07239,-1.42477 0.18557,-0.18557 0.75386,-0.17101 0.97143,-0.38857 0.35001,-0.35001 0.89292,-0.82816 1.23048,-1.16572 0.24519,-0.24519 0.1323,-0.74615 0.45334,-0.90667 0.83669,-0.41835 1.20753,-0.43039 1.74858,-0.97144 0.73658,-0.73658 1.20279,-2.36851 2.00762,-3.17334 0.60308,-0.60308 1.5828,-0.41708 2.07239,-0.90667 0.4587,-0.4587 0.45343,-1.97529 1.29525,-2.39621 0.16485,-0.0824 0.86935,-0.009 1.03619,-0.0648 1.90564,-0.54215 4.14744,-0.71502 5.37524,-1.94283 0.14264,-0.14264 0.0213,-1.44603 0.64762,-2.07239 0.27107,-0.27106 2.81403,-0.0293 3.17335,-0.38857 0.36805,-0.36805 1.24052,-0.33385 1.61905,-0.71238 1.3655,-1.3655 3.94452,-1.7426 5.3105,-3.10859 0.67412,-0.67412 1.02309,-1.60594 1.61906,-2.20191 0.39543,-0.39543 0.32225,-1.48798 0.77715,-1.94287 0.24963,-0.24964 0.007,-1.10845 0.25904,-1.36001 0.37166,-0.37165 1.0362,-0.48836 1.0362,-1.29524 0.31219,-1.07154 0.0225,-1.70629 0.64762,-2.33144 0.21278,-0.21278 -0.34231,-0.62913 -0.12952,-0.84191 0.41426,-0.41427 0.66108,-0.831 0.84191,-1.55429 z"
     id="path6537"
     inkscape:connector-curvature="0"
     sodipodi:nodetypes="cssscscscccccccccscscssccccscccscscsscssssccsccsssccsccsccsccsscssssccscscccsccsscsccscscscscssscccccscscccccc" />
  <path
     style="fill:#000000;stroke:#000000;stroke-width:1;stroke-linecap:round;stroke-linejoin:round;stroke-miterlimit:4;stroke-dasharray:none;stroke-opacity:1;fill-opacity:1"
     d="m 180.6228,506.77522 -0.002,5.59949 h 5.69908 l 0.002,-5.59949 z"
     id="path14359-1-7-5-3-0-73-1-9-8-5-2"
     inkscape:connector-curvature="0"
     sodipodi:nodetypes="ccccc" />
  <path
     style="fill:none;stroke:#000000;stroke-width:1px;stroke-linecap:round;stroke-linejoin:round;stroke-opacity:1"
     d="m 112.70914,47.132565 c -0.14849,0.777368 -1.92348,3.358866 -1.26317,4.019174 0.39844,0.398439 0.95258,0.550658 1.378,0.976085 0.25456,0.254556 1.9471,-0.06249 2.35409,0.344501 0.91696,0.916962 4.09652,2.08575 5.74168,1.263169 0.5663,-0.283151 1.48884,0.174248 2.067,-0.114833 0.64661,-0.323302 2.52225,0.233759 3.04309,-0.287084 0.13919,-0.13919 0.29029,-0.116433 0.51675,-0.229667 0.42888,-0.214438 0.48407,-0.844908 0.86126,-1.033502 0.78871,-0.394356 1.42335,0.126899 2.067,-0.516751 0.52923,-0.529235 1.30927,-0.964765 1.83734,-1.492837 0.26348,-0.263486 0.87845,-0.361707 1.14833,-0.631584 0.73306,-0.733053 1.2007,-1.661719 1.89476,-2.124421"
     id="path6568"
     inkscape:connector-curvature="0" />
  <path
     style="fill:none;stroke:#000000;stroke-width:1px;stroke-linecap:round;stroke-linejoin:round;stroke-opacity:1"
     d="m 5.6175183,207.06919 c 2.9748807,0.0232 6.4042437,-0.50012 8.0823477,-2.17822 0.246518,-0.24652 0.856735,-0.2262 1.089111,-0.45858 0.534086,-0.53408 2.321728,0.60168 2.923402,0 1.165782,-1.16578 3.189299,-0.66714 3.55394,-1.03178 0.386668,-0.38667 1.424007,-0.27758 1.834292,-0.68786 0.995278,-0.99528 3.48242,-1.28264 4.815016,-1.94894 0.609383,-0.30469 2.838108,-1.749 3.21001,-2.1209 0.153426,-0.15342 0.641465,-0.26341 0.917146,-0.40125 1.622757,-0.81138 3.916934,-1.33746 5.101624,-2.52215 0.212993,-0.21299 4.387369,-1.17736 4.700372,-1.49036 0.265828,-0.26583 0.390806,-0.56277 0.630538,-0.80251 0.37475,-0.37475 1.724808,0.22413 2.1209,-0.17196 0.236443,-0.23644 4.672259,-3.1051 4.98698,-3.21001 1.056932,-0.93321 1.974026,-1.17152 2.866081,-2.06358 0.340931,-0.34093 1.484611,-0.10889 2.063578,-0.68786 1.604364,-1.60436 3.519157,-3.23255 5.330911,-5.0443 0.622925,-0.62293 1.389958,-0.87407 2.063578,-1.54768 0.825318,-0.82532 1.43555,-1.49288 2.178221,-2.23555 0.446136,-0.44613 1.326423,-0.7532 1.77697,-1.20375 0.202889,-0.20289 0.671348,-0.21278 0.917146,-0.45857 0.689597,-0.6896 1.293032,-0.94911 1.948935,-1.60501 0.552266,-0.55227 1.238423,-1.5597 1.605005,-2.29286 0.57924,-1.15848 0.549046,-2.38334 1.433041,-3.26734 0.408482,-0.40848 0.732462,-0.96174 1.203753,-1.43304 0.671876,-0.67187 1.314676,-1.02806 1.948935,-1.66232 0.609849,-0.60985 1.312201,-3.08917 2.006257,-3.78323 0.480679,-0.48068 0.379443,-3.20191 0.630538,-3.95519 -0.284674,-1.4366 0.135675,-4.4348 0.859824,-5.15895 0.254989,-0.25499 0.624491,-2.39541 0.917146,-2.98072 0.329178,-0.65836 0.303001,-1.52315 0.630538,-2.17822 0.493005,-0.98601 1.251709,-2.22618 2.006256,-2.98073 0.467337,-0.46733 -0.134965,-1.642 0.286608,-2.06357 1.094705,-1.09471 2.156012,-1.86941 3.267332,-2.98073 0.571154,-0.57115 0.659219,-1.17511 1.146433,-1.66233 1.300371,-1.30037 1.007864,-3.93126 2.235543,-5.15894 0.349682,-0.34968 -0.234253,-5.49791 -0.05732,-5.67484 0.664636,-0.66464 0.309237,-4.11509 0.859824,-5.21627 0.04307,-0.0861 0.395323,-0.98039 0.171965,-1.20375 -0.203793,-0.20379 -0.357907,-0.5872 -0.573216,-0.8025 -0.05809,-0.0581 0,-0.48194 0,-0.57322 0,-0.56974 -0.249262,-1.85166 0,-2.35019 0.39843,-0.79686 0.720936,-1.29415 1.318397,-1.89161 0.284943,-0.28494 0.745072,-0.831 0.917146,-1.08911 0.174242,-0.46817 0.351419,-0.69535 0.573214,-0.91715 0.279158,-0.27915 1.165155,-0.19068 1.490362,-0.51589 0.859013,-0.85901 1.328818,-1.90204 2.063578,-2.6368 0.08268,-0.0827 -0.05439,-0.40711 0,-0.51589 0.719504,-1.43901 0.01471,-2.6794 -0.745181,-3.4393 -0.206593,-0.20659 -0.114972,-0.68818 -0.286608,-0.85982 -0.106343,-0.10634 -0.188545,-5.08504 -0.05732,-5.21627 0.571542,-0.57154 0.412257,-1.959938 1.089111,-2.636792 0.497774,-0.497775 0.841912,-1.013878 1.375719,-1.547684 0.181634,-0.181634 0.7335,-0.160284 0.974467,-0.401251 0.468127,-0.468127 2.283306,0.410805 2.751436,-0.05732 0.37349,-0.37349 0.75161,-0.808935 1.08911,-1.146432 0.0974,-0.203104 0.29924,-0.299241 0.40125,-0.401254 0.31848,-0.318479 0.96747,-0.394247 1.3184,-0.745181 0.42051,-0.420513 0.71297,-1.101668 1.26107,-1.375718 0.61641,-0.308205 1.08455,-0.224722 1.54769,-0.68786 0.43715,-0.437155 -0.59795,-1.535315 0.11464,-1.891613 0.84539,-0.422695 0.70445,0.380884 1.3184,0.687859 0.63142,0.31571 0.77665,-0.646275 1.08911,-0.802502 0.42996,-0.214979 3.3375,1.97463 3.49662,2.292864 0.80407,0.112206 2.92452,1.661207 3.61126,0.974468 0.65505,-0.655053 1.12423,-1.238871 1.77697,-1.891613 0.29046,-0.290463 1.07577,-0.04398 1.43304,-0.401252 0.68067,-0.680674 1.50677,-2.309268 2.29286,-3.095367 0.30333,-0.303327 1.04395,-0.06948 1.37572,-0.401251 0.36633,-0.366326 0.0625,-1.266229 0.40125,-1.605006 0.20828,-0.208275 0.84628,0.07087 1.03179,-0.114643 0.23751,-0.237501 1.12987,-0.963425 1.14644,-0.974467 1.9433,-0.77346 2.28005,-2.222731 3.7259,-3.668584 0.57482,-0.574818 0.70594,-1.125279 1.03179,-1.77697 0.13163,-0.263265 -0.25116,-0.780631 -0.0573,-0.974467 0.0581,-0.05809 1.15889,-0.904691 0.74518,-1.318397 -0.6237,-0.623705 -1.51981,-2.306802 -0.17197,-2.980724 1.78897,-0.894482 1.60278,1.087997 2.6368,1.605005 0.6064,0.303201 0.73592,-1.552315 0.97447,-1.433041 0.73579,0.367898 4.38321,1.918387 4.5284,2.063579 0.26574,0.265738 0.0281,1.117237 0.28661,1.375718 0.44046,0.440461 1.57153,0.105018 1.94894,0.859825 0.0933,0.186678 -1.16408,1.01414 -0.63054,1.547683 0.17451,0.174512 0.50581,0.276522 0.68786,0.458573 0.4495,0.449506 -0.58708,1.93507 -0.0573,2.46483 0.23121,0.231212 0.19227,0.708164 0.45857,0.974467 0.76053,0.760526 1.5599,2.184328 2.46483,2.636794 0.2527,0.126348 1.2714,0.01033 1.43304,0.171965 0.26553,0.265533 1.37547,0.09562 1.66233,0 0.35363,0.440146 2.42402,0.819057 2.69407,1.089111 0.22225,0.222247 7.04906,-0.629036 7.22253,-0.802503 0.25134,-0.251341 0.75118,-0.518897 1.08911,-0.687859 0.62866,-0.314334 1.37298,0.398512 1.605,0.630538 0.45682,0.456813 0.951,-0.704785 1.03179,-0.745181 0.36638,-0.183187 1.03562,0.519722 1.14643,0.630537 0.15585,0.155848 0.61846,-0.184041 0.74518,-0.05732 0.074,0.07404 0.55256,1.224413 1.08912,0.687859 0.11288,-0.112885 0.47439,-0.01582 0.57321,-0.114643 0.83902,-0.839016 3.43894,-1.605005 4.70037,-1.605005 1.73117,-0.22333 1.49917,-2.47363 2.40751,-3.381977 0.56887,-0.568869 1.36306,-1.305741 1.89162,-1.834291 0.35737,-0.357372 2.03982,-0.114643 2.52215,-0.114643 1.03345,0 0.89342,1.008068 1.43304,1.547683 0.23884,0.23884 1.13688,-0.181518 1.37572,0.05732 0.33297,0.332976 0.68095,0.852915 1.03178,1.203754 0.21324,0.213233 0.13149,0.762027 0.40126,1.031789 0.41839,0.418394 0.84473,0.336384 1.43304,0.630538 0.37843,0.189216 0.67981,1.081067 0.91714,1.318397 0.7063,0.706294 2.38699,0.540426 3.03805,0.974467 1.83445,0.365025 2.70539,-0.447296 4.12715,0.97447 0.66877,0.668768 -1.03048,1.206361 -0.63053,2.006256 0.83352,1.667057 0.34069,1.429801 1.66232,2.751438 0.12788,0.127873 2.97808,0.201951 3.26734,0.05732 0.21395,-0.106978 1.74293,-1.352432 2.35018,-0.745181 0.35928,0.35928 0.33336,1.47979 0.40125,1.547684 0.16774,0.167735 0.51814,0.0011 0.74518,0.114643 0.4553,0.227651 0.23787,0.352506 0.5159,0.630538 0.38125,0.381256 2.15276,0.318466 2.63679,0.802503 0.74096,0.740955 0.12837,1.618727 0.63054,2.120899 0.55413,0.55413 1.56601,0.648865 2.1209,1.203754 0.47644,0.476437 0.0585,1.778184 0.45857,2.178224 0.23708,0.23708 0.46687,0.46686 0.68786,0.68786 0.48255,0.48255 -1.0545,1.50226 -0.68786,2.23554 0.0986,0.19721 1.32297,1.26564 1.49036,1.43304 0.1351,0.1351 0.59953,0.0263 0.74519,0.17197 0.55018,0.55018 0.17948,2.01377 0.74518,2.57947 0.97926,0.97927 1.22471,2.82972 2.1209,3.7259 0.24144,0.24145 0.22788,1.25898 0.45857,1.60501 0.86064,1.82149 1.26614,3.73603 2.1209,5.44555 0.31251,0.62502 1.03179,1.50335 1.03179,2.23555 0,0.23707 0.81529,1.24828 0.45857,1.605 -0.69273,0.69273 -1.00042,1.97489 -1.66233,2.6368 -0.17473,0.17473 0.19998,2.15021 -0.34393,2.69411 -0.40012,0.40012 -0.5901,0.76207 -0.91714,1.08911 -0.51602,0.51602 -2.05678,0.45177 -2.69412,1.08911 -1.08837,1.08837 -0.94757,2.03668 -1.89161,2.98073 -0.38341,0.38341 -2.87,0.0306 -3.49662,0.34393 -0.65182,0.32591 -1.37725,0.0294 -2.00626,0.34393 -1.02676,0.51338 -2.07297,0.60657 -3.15268,1.14643 -0.30626,0.15313 -1.08911,-1.45764 -1.08911,-1.66233 0,-0.2481 -1.02619,-0.51309 -1.26108,-0.63054 -1.25157,-0.62578 -3.14899,-1.20745 -4.29912,-0.0573 -0.28128,0.28128 -0.89989,0.21203 -1.14643,0.45857 -0.52194,0.52195 -1.4572,0.94131 -2.06358,1.54769 -0.57336,0.57335 -0.77016,1.57266 -1.3184,2.1209 -0.65344,0.65344 -0.54589,2.15089 -1.26107,2.86608 -0.71493,0.71493 0.11491,2.92313 -0.57322,3.61126 -0.40013,0.40013 -0.99004,0.64611 -1.49036,1.14643 -0.46872,0.46872 -2.355,2.58669 -2.57948,2.92341 -0.56021,0.20414 -0.84792,0.67594 -1.20375,1.03176 -0.37488,0.37488 -0.87845,0.70649 -1.26108,1.08912 -1.06151,1.06151 -1.36458,2.78649 -2.00625,4.06983 -0.37913,0.75825 -0.45508,2.00276 -0.91715,2.46483 -0.36603,0.36603 0.17239,1.60458 -0.0573,1.83429 -0.2858,0.2858 -0.69436,0.18497 -0.91714,0.63054 -0.61345,1.22689 0.90076,2.53853 -0.91715,4.35644 -0.22676,0.22676 1.09913,1.5104 1.14643,1.60501 0.0951,0.19022 -0.11464,0.40678 -0.11464,0.57321 0,0.25575 -0.44966,0.44966 -0.57322,0.57322 -0.58134,0.58134 -0.51801,2.69623 -1.14643,3.32465 -1.06024,1.06024 -3.01928,1.12767 -4.12716,2.23555 -2.15935,2.15935 -7.10788,9.63072 -7.10788,13.012 -0.39493,0.92543 -0.63761,5.39529 -0.97448,5.73216 -0.32138,0.32138 -0.7018,1.05967 -0.91715,1.49037 -0.0811,0.16219 -0.0883,0.54689 -0.22929,0.68786 -0.32166,0.32166 0.34376,3.38214 0.17197,3.55394 -0.30085,0.30084 -0.29656,0.86977 -0.63054,1.20375 -1.46776,1.46776 -2.09843,4.25418 -3.15269,6.3627 -0.54577,1.09155 -0.56694,3.07654 -0.97447,4.29912 -0.88924,2.66775 -0.24992,6.53696 -1.77697,8.82753 -1.10529,1.32474 -0.92028,3.33093 -1.66232,4.81501 -0.37805,0.7561 0.15206,1.87409 -0.22929,2.6368 -0.60818,1.21635 -0.85156,2.6776 -1.49036,3.95519 -0.71117,1.42233 0.11869,2.74739 -1.03179,3.89787 -0.58769,0.58769 0.70788,2.16094 0.85982,2.46483 0.57769,1.15538 -0.83899,2.73577 -0.2866,3.84055 0.42991,0.85982 0.59731,1.88249 0.97446,2.63679 0.23595,0.4719 0.10628,1.12971 0.34393,1.60501 0.25197,0.50392 -0.13817,1.32865 0.11465,1.83429 0.40981,0.81962 0.80172,1.20219 1.26107,2.1209 0.22182,0.44363 0.0171,1.25505 0.17197,1.71965 0.40014,0.50922 0.15691,3.36692 0.45857,3.66858 0.33136,0.33136 0.62776,0.91158 0.85982,1.37572 0.10706,0.21411 0.006,0.52767 0.11465,0.74518 0.15137,0.30274 -0.23936,1.25101 -0.0573,1.43304 0.50606,0.50606 0.11942,1.83907 0.63053,2.35019 0.64252,0.64252 1.57121,1.30812 2.06358,2.29286 0.47029,0.94057 0.0472,2.32993 0.5159,3.26733 0.21596,0.43194 0.22496,1.31407 0.51589,1.60501 0.67377,0.67376 1.34395,1.68788 2.00626,2.35019 0.45712,0.45711 -0.21865,1.56896 0.0573,2.1209 0.32286,0.64572 0.64793,1.23854 0.97447,1.89161 0.12697,0.25395 -0.19301,1.01075 0,1.20375 0.23922,0.23923 0.78669,0.55741 1.03179,0.8025 0.62662,0.62663 0.36253,1.64222 0.74518,2.40751 0.19184,0.38369 0.59261,0.76458 0.85982,1.03179 0.73375,0.73375 1.57412,3.35109 2.35019,4.12716 0.30604,0.30604 -0.12322,1.42447 0.17196,1.71965 0.46788,0.46788 0.5067,1.53848 0.97447,2.00625 0.52118,0.52118 -0.54511,2.15011 -0.74518,2.35019 -0.0827,0.0827 0.45857,2.3018 0.45857,2.9234 0.32846,1.90258 1.23501,7.59252 -0.11464,8.94217 -0.35758,0.35759 -0.74823,1.00465 -1.26108,1.26108 -0.24969,0.12485 -0.76932,0.31075 -0.91714,0.45857 -0.0837,0.0837 -3.96024,0.0523 -4.01252,0 -0.14715,-0.14715 -1.79599,-1.12741 -2.1209,-0.8025 -0.22036,0.22037 -0.24122,0.53976 -0.40125,0.85982 -0.28689,0.5738 -1.53213,0.96669 -2.00625,1.20376 -0.582,0.29099 -1.45234,-0.4966 -1.54769,-0.40125 -0.62694,0.62693 -1.6551,1.05683 -2.52215,1.49036 -1.10208,0.55104 -3.39667,4.37114 -4.41376,5.38823 -0.45207,0.45206 -0.17056,1.43163 -0.57322,1.83429 -0.40267,0.40268 -1.38013,0.17637 -1.83429,0.63054 -0.29963,0.29962 0.13322,0.85053 -0.34393,1.08911 -0.17287,0.0864 -0.37871,-0.0747 -0.45857,-0.11464 -0.55027,-0.27513 -1.72552,-0.40712 -2.1209,-0.80251 -0.0933,-0.0933 -1.36577,0.91715 -2.1209,0.91715 -0.92792,0 -1.51545,-3.52886 -4.01252,-1.03179 -0.24065,0.24066 0.11019,1.61837 0,1.94894 -0.38561,0.91985 -1.55861,1.44396 -2.17822,2.06357 -0.68156,0.68157 -1.38316,1.72709 -2.06358,2.40751 -0.6389,0.63891 -2.18861,1.38092 -2.98072,1.77697 -0.98785,0.49393 -1.96716,1.98671 -3.03805,2.52215 -0.83952,0.41976 -2.18568,1.03926 -2.75143,1.60501 -0.0955,0.0955 -0.42036,-0.0382 -0.5159,0.0573 -0.97844,0.97844 -1.38248,-2.81552 -1.83429,-3.26733 -0.54422,-0.54422 -1.44902,0.24996 -2.06358,-0.0573 -0.11658,-0.0583 -0.68129,-1.09568 -0.91714,-0.85983 -0.93828,0.93828 -0.87741,2.02384 -1.60501,2.75144 -0.43874,0.43874 -1.42746,0.48445 -1.94893,0.74518 -0.28132,0.14066 -0.34996,0.57924 -0.57322,0.8025 -0.99567,0.99568 -1.88743,1.77279 -2.75144,2.6368 -0.0469,0.0469 -1.2765,-0.39354 -1.83429,-0.11465 -0.48656,0.24328 -2.13671,2.78307 -2.46483,3.4393 -0.20303,0.40607 -0.29712,1.09963 -0.57321,1.37572 -0.45613,0.45612 -1.48139,0.22031 -1.89162,0.63054 -0.41565,0.41565 -0.52076,0.69273 -0.97447,1.14643 -1.304252,1.38825 -1.924825,0.47063 -3.210006,-0.17196 -0.803842,-0.40193 -1.454065,-0.13567 -2.1209,-0.80251 -0.546943,-0.54694 -0.368494,-1.9735 -0.974467,-2.57947 -0.370636,-0.37064 -1.269762,-0.63922 -1.662327,-1.03179 -0.37965,-0.37965 -1.226812,0.69939 -1.43304,0.8025 -1.520195,0.7601 -2.019427,3.53187 -3.553941,4.29913 -1.157679,0.57884 -1.92846,-1.91209 -2.522151,-1.3184 -0.298607,0.29861 -0.915395,0.22753 -1.261075,0.57321 -0.490076,0.49008 -0.25663,1.44672 -1.261076,1.94894 -0.707234,0.35362 -2.472513,-0.0496 -2.980724,0.45857 -0.219918,0.21992 -0.52514,0.58246 -0.745181,0.8025 -0.145263,0.14527 0.139738,0.56067 0,0.63054 -0.119344,0.0597 -0.659709,-0.50131 -0.974467,-0.34393 -0.570322,0.28516 -1.399192,0.99794 -1.834292,1.43304 -0.278008,0.27801 -0.918562,-0.11464 -1.146432,-0.11464 -0.173679,0 -1.661242,-0.7441 -1.834292,-0.91715 -0.118233,-0.11823 -1.3277,0.13866 -1.605005,0 -0.210297,-0.10514 -0.332693,-0.95142 -0.745181,-0.74518 -0.618704,0.30936 -0.619082,1.07766 -0.974468,1.43304 -0.182619,0.18262 -0.503213,0.33125 -0.687859,0.5159 -0.634985,0.62111 -1.63537,-0.0995 -2.292865,0.22928 -0.101374,0.0507 -0.629109,0.28804 -0.630537,0.28661 -0.57286,-0.57286 -0.556198,-1.98924 -1.146433,-2.57947 -0.324103,-0.3241 -0.665656,-0.55101 -0.974467,-0.85982 -0.313959,-0.31396 -2.726613,-0.31144 -2.980724,-0.0573 -0.376168,0.37617 -0.452361,0.73897 -0.802503,1.08911 -0.401644,0.40165 0.815212,0.49048 0.630538,0.85983 -0.08144,0.16287 -0.891243,0.20338 -1.031789,0.34393 -0.37398,0.37398 0.05007,2.5294 -0.229287,2.80876 -0.511509,0.51151 -0.571955,1.43178 -1.031789,1.89161 -0.479636,0.47964 -1.470454,0.22929 -2.120899,0.22929 -0.279634,0 -0.424551,0.19526 -0.573217,0.34393 -0.0166,0.0166 0.02789,0.42914 -0.05732,0.34393 -0.06994,-0.0699 -0.63272,-0.80032 -0.917146,-0.5159 -0.230516,0.23052 -1.07785,1.23805 -1.605005,0.97447 -0.317844,-0.15892 -1.321675,-0.17524 -1.547684,-0.40125 -0.14691,-0.14691 -0.616549,-0.8095 -1.089111,-0.57322 -0.974905,0.48745 -2.443813,0.9353 -3.55394,1.49036 -0.72493,0.36247 -1.626491,0.65203 -2.120899,1.14644 -0.205613,0.20561 -0.74348,0.14245 -1.03179,0.2866 -0.772015,0.38601 -3.911083,-0.67464 -4.241799,-0.34393 -0.136079,0.13608 -0.660493,0.30159 -0.859824,0.40126 -0.354916,0.17746 -1.033938,0.28875 -1.261076,0.51589 -0.05083,0.0508 -0.595684,0.55075 -0.745181,0.40125 -0.265266,-0.26526 -0.698713,-0.4121 -0.917146,-0.63054 -0.435351,-0.43535 -0.0038,-1.26234 -0.687859,-1.49036 -0.770558,-0.37622 -3.448247,-0.5643 -4.069836,0.0573 -0.143304,0.14331 -0.659198,-0.086 -0.802502,0.0573 -0.177295,0.17729 -0.384353,0.56476 -0.630538,0.68785 -0.782086,0.39105 -1.749781,-0.77237 -2.46483,-0.0573 -0.630435,0.63044 -0.755972,1.67312 -1.375718,2.29287 -0.609097,0.60909 -1.258314,1.25831 -1.834292,1.83429 -0.316351,0.31635 -0.93437,0.2379 -1.375719,0.45857 -0.447126,0.22357 -1.358299,0.49848 -1.662327,0.80251 -0.166024,0.16602 -0.763815,-0.0387 -0.917146,0.11464 -0.162833,0.16283 -0.553486,0.64933 -0.745181,0.74518 -0.28442,0.14221 -0.745471,-0.0285 -1.031789,0.11464 -0.737832,0.36892 -1.386573,0.43534 -2.120899,0.80251 -1.131676,0.56583 -0.786742,1.64656 -0.917146,1.77697 -0.411976,0.41197 -0.905858,-0.19499 -1.318397,-0.40126 -0.18748,-0.0937 -0.746526,0.45858 -0.974468,0.45858 -0.503309,0 -4.135078,0.92506 -4.4710859,1.26107 -0.2323861,0.23239 0.1027393,0.98637 -0.1146432,1.20376 -0.180853,0.18085 -2.3448326,1.42768 -3.4966185,2.86608"
     id="path6570"
     inkscape:connector-curvature="0"
     sodipodi:nodetypes="cccccccccccccccccccscccccsccccccccccccccsccccccsccccssccccsccsccscsccccccccccccccccccccccccccccccccccscccccccccccsccccccccccccccsssscssccccsccccscssccscsccsssssscscccscccscsscsscsccscccccccccccccssssccccsccccccccccccsccccccscscssccscccscccccccccccccccscccccccscccccccscccccsccccccccccsccccccccccccsccc" />
  <path
     style="fill:#000000;stroke:#000000;stroke-width:0.5;stroke-linecap:round;stroke-linejoin:round;stroke-miterlimit:4;stroke-dasharray:none;stroke-opacity:1;fill-opacity:1"
     d="m 96.898142,180.08341 -0.002,10.61351 -0.622382,-0.2723 0.002,-10.34121 z"
     id="path14359-1-7-5-3-0-73-1-9-8-5-39-9"
     inkscape:connector-curvature="0"
     sodipodi:nodetypes="ccccc" />
  <path
     style="fill:#000000;stroke:#000000;stroke-width:0.5;stroke-linecap:round;stroke-linejoin:round;stroke-miterlimit:4;stroke-dasharray:none;stroke-opacity:1;fill-opacity:1"
     d="m 111.25183,173.15941 -0.002,11.89717 h -0.62238 l 0.002,-11.89717 z"
     id="path14359-1-7-5-3-0-73-1-9-8-5-39-9-9"
     inkscape:connector-curvature="0"
     sodipodi:nodetypes="ccccc" />
  <path
     style="fill:#000000;stroke:#000000;stroke-width:0.5;stroke-linecap:round;stroke-linejoin:round;stroke-miterlimit:4;stroke-dasharray:none;stroke-opacity:1;fill-opacity:1"
     d="m 106.50617,174.94876 -0.002,15.32027 h -0.62238 l 0.002,-14.97018 z"
     id="path14359-1-7-5-3-0-73-1-9-8-5-39-9-1"
     inkscape:connector-curvature="0"
     sodipodi:nodetypes="ccccc" />
  <path
     style="fill:#000000;stroke:#000000;stroke-width:0.5;stroke-linecap:round;stroke-linejoin:round;stroke-miterlimit:4;stroke-dasharray:none;stroke-opacity:1;fill-opacity:1"
     d="m 101.7994,175.45445 -0.002,16.52613 h -0.62238 l 0.002,-16.52613 z"
     id="path14359-1-7-5-3-0-73-1-9-8-5-39-9-7"
     inkscape:connector-curvature="0"
     sodipodi:nodetypes="ccccc" />
  <path
     style="fill:#000000;stroke:#000000;stroke-width:0.5;stroke-linecap:round;stroke-linejoin:round;stroke-miterlimit:4;stroke-dasharray:none;stroke-opacity:1;fill-opacity:1"
     d="m 87.329014,185.45147 -0.002,3.22271 h -0.622382 l 0.002,-3.22271 z"
     id="path14359-1-7-5-3-0-73-1-9-8-5-39-9-2"
     inkscape:connector-curvature="0"
     sodipodi:nodetypes="ccccc" />
  <path
     style="fill:#000000;stroke:#000000;stroke-width:0.5;stroke-linecap:round;stroke-linejoin:round;stroke-miterlimit:4;stroke-dasharray:none;stroke-opacity:1;fill-opacity:1"
     d="m 92.113578,180.47241 -0.002,8.62966 h -0.622382 l 0.002,-8.04618 z"
     id="path14359-1-7-5-3-0-73-1-9-8-5-39-9-3"
     inkscape:connector-curvature="0"
     sodipodi:nodetypes="ccccc" />
  <path
     style="fill:#000000;stroke:#000000;stroke-width:0.5;stroke-linecap:round;stroke-linejoin:round;stroke-miterlimit:4;stroke-dasharray:none;stroke-opacity:1;fill-opacity:1"
     d="m 130.23449,179.57772 -0.002,6.17903 -0.62238,-0.1556 0.002,-6.41242 z"
     id="path14359-1-7-5-3-0-73-1-9-8-5-39-9-6"
     inkscape:connector-curvature="0"
     sodipodi:nodetypes="ccccc" />
  <path
     style="fill:#000000;stroke:#000000;stroke-width:0.5;stroke-linecap:round;stroke-linejoin:round;stroke-miterlimit:4;stroke-dasharray:none;stroke-opacity:1;fill-opacity:1"
     d="m 125.29433,176.11571 -0.002,8.12398 -0.62238,-0.35009 0.002,-8.66856 z"
     id="path14359-1-7-5-3-0-73-1-9-8-5-39-9-5"
     inkscape:connector-curvature="0"
     sodipodi:nodetypes="ccccc" />
  <path
     style="fill:#000000;stroke:#000000;stroke-width:0.5;stroke-linecap:round;stroke-linejoin:round;stroke-miterlimit:4;stroke-dasharray:none;stroke-opacity:1;fill-opacity:1"
     d="m 120.50977,171.60345 -0.002,11.15809 -0.62238,-0.3112 0.002,-10.84689 z"
     id="path14359-1-7-5-3-0-73-1-9-8-5-39-9-58"
     inkscape:connector-curvature="0"
     sodipodi:nodetypes="ccccc" />
  <path
     style="fill:#000000;stroke:#000000;stroke-width:0.5;stroke-linecap:round;stroke-linejoin:round;stroke-miterlimit:4;stroke-dasharray:none;stroke-opacity:1;fill-opacity:1"
     d="m 116.11419,174.48197 -0.002,6.29572 h -0.62238 l 0.002,-6.29572 z"
     id="path14359-1-7-5-3-0-73-1-9-8-5-39-9-14"
     inkscape:connector-curvature="0"
     sodipodi:nodetypes="ccccc" />
  <path
     style="fill:none;stroke:#000000;stroke-width:1;stroke-linecap:butt;stroke-linejoin:miter;stroke-miterlimit:4;stroke-dasharray:none;stroke-opacity:1"
     d="m 101.63228,175.32012 4.34059,-0.18337 1.30305,-1.05451 1.4448,-0.24894 1.88855,-0.93072 3.13189,1.47672 2.17359,-0.011 1.01164,-0.39994 -1.38114,-1.30425 4.33289,-1.13228 3.07101,-0.15017 0.64277,1.73577 1.21416,1.76288 0.3683,1.07706 9.63227,6.46807 -2.778,4.12471 -13.55465,-4.50811 -2.88385,-1.32162 -1.03272,1.73746 -0.29468,0.89699 -2.14773,1.86658 -4.50416,0.24941 0.69525,5.57382 -2.51138,-0.7159 -4.39801,1.90188 -10.167307,-3.15593 -7.147881,-0.36333 c -1.087618,-0.0553 -1.297066,-2.38672 0.301625,-2.76978 l 3.758085,-0.90048 c 0.199081,-0.97979 0.527427,-1.71952 0.939287,-2.30415 0.610412,-0.86648 1.63613,-1.20565 2.350249,-2.1481 0.444826,-0.58705 1.237231,-0.64549 1.706317,-0.73052 l 3.715783,0.0733 2.18641,-1.25901 c 0.681607,-0.34931 0.06313,-0.87746 -1.25197,-0.98298 -0.883262,-0.0709 -1.255963,-0.2622 -1.255983,-1.19423 -1.7e-5,-0.81743 1.295812,-1.57619 3.369625,-1.78319 0.62406,-0.0623 0.8709,0.64419 1.73132,0.60784 z"
     id="path14359-1-7-5-3-0-73-1-9-8-5-0"
     inkscape:connector-curvature="0"
     sodipodi:nodetypes="scccccccccccccccccccccccccsscsscccssss" />
  <path
     style="fill:none;stroke:#000000;stroke-width:0.5;stroke-linecap:butt;stroke-linejoin:round;stroke-opacity:1;stroke-miterlimit:4;stroke-dasharray:0.5, 1.50000000000000000;stroke-dashoffset:0"
     d="m 124.30726,188.64343 c -2.77848,-0.21566 -2.1827,2.09763 -2.89284,2.80777 -0.19801,0.19801 -0.0699,0.83561 -0.25525,1.021 -0.65376,0.65375 -1.89712,1.16127 -2.80776,1.61659 -6.35198,3.17599 2.29441,4.9377 2.80776,4.42435 0.28591,-0.28591 0.86704,-0.44162 1.19117,-0.76575 0.80595,-0.80595 -0.0317,-3.03131 0.68067,-3.74368 0.66762,-0.66763 1.8109,-1.30041 2.46743,-1.95693 1.33404,-1.33404 0.0664,-3.08896 -1.19118,-3.40335 z"
     id="path6687"
     inkscape:connector-curvature="0" />
  <path
     style="fill:none;stroke:#000000;stroke-width:0.5;stroke-linecap:butt;stroke-linejoin:round;stroke-opacity:1;stroke-miterlimit:4;stroke-dasharray:0.5, 1.50000000000000000;stroke-dashoffset:0"
     d="m 140.64333,174.77479 c 1.58379,0.2981 4.05627,-0.652 5.53044,0.0851 1.36716,0.68358 1.51814,1.43305 2.46743,2.38234 1.10266,1.10266 3.16856,0.95638 4.1691,1.95693 0.38111,0.3811 0.23599,1.51224 0.59559,1.87184 0.32033,0.32033 0.0339,1.31016 0.34033,1.61659 1.27838,1.27837 -0.96422,4.53773 -1.70167,5.27518 -0.41274,0.41274 1.12952,3.52665 0.68067,4.42436 -0.36157,0.72312 -0.24902,2.29102 -0.76576,2.80776 -0.75508,0.75508 -1.19637,2.56292 -1.70167,3.57351 -0.34973,0.69947 -0.16626,2.88894 -0.59559,3.31827 -0.75847,0.75847 -1.57081,1.69521 -2.12709,2.80776 -0.10787,0.21574 1.6092,3.92862 1.10609,4.93485 -0.65,1.3 -0.65935,3.46711 -1.70167,4.50944 -0.47381,0.4738 -1.61073,1.34961 -1.95693,2.04201 -0.14968,0.29935 -0.0851,0.92437 -0.0851,1.27625 0,1.86606 -0.7181,2.07944 -1.61659,2.97793 -0.67263,0.67262 0.29131,2.60154 -0.34034,3.23318 -0.55929,0.55929 -0.72972,1.41039 -1.19117,1.87184 -1.11521,1.11522 -4.59452,2.39196 -4.59452,4.59452 -0.15044,0.43486 -0.58293,2.13972 -0.17015,2.5525 0.40067,0.40067 0.5012,1.0117 0.93592,1.44642 1.42794,1.42794 1.58422,1.98931 0.0851,3.48843 -0.43588,0.43589 -1.55389,0.53289 -2.04201,1.02101 -0.58901,0.58901 -0.38466,2.08633 -1.021,2.72268 -0.21891,0.2189 -1.11264,1.43333 -0.93593,1.78675 0.30608,0.61215 1.66717,0.56108 2.1271,1.02101 0.72347,0.72347 -0.2999,2.93328 0.42542,3.6586 0.54522,0.54522 1.52062,1.0581 2.29725,1.44642 1.31277,0.65638 1.22186,2.95422 1.87185,4.25418 0.003,0.005 1.17577,-0.41002 1.27625,-0.5105 0.59093,-0.59092 1.45268,0.77826 1.53151,0.93592 0.204,0.40801 -0.043,0.93503 0.17017,1.36134 0.76434,1.5287 1.39698,4.88542 2.46742,5.95586 0.75343,0.75342 -0.9136,2.34189 -0.5105,3.1481 0.26054,0.52109 0.87642,1.30183 1.19117,1.61659 0.76595,0.76595 -0.84553,3.32356 -0.17017,3.99893 1.32242,1.32241 4.29291,1.82548 5.78569,3.31826 0.43449,0.43448 0.25039,1.69681 0.51051,1.95693 0.58761,0.58761 1.41208,1.24191 1.95692,1.78675 0.30828,0.30828 -0.63852,1.65953 -0.76575,1.78676 -0.58161,0.58161 -0.89663,1.66238 -1.53151,2.29726 -0.15152,0.15152 0.10236,0.6634 -0.0851,0.85084 -0.72493,0.72493 -1.89454,1.68468 -2.21218,2.63759 -1.10812,0.77795 -1.41548,1.41549 -2.21216,2.21218 -0.24107,0.24107 0.15598,1.12027 -0.0851,1.36134 -0.1085,0.1085 -1.01981,0.34153 -1.19117,0.17016 -0.65135,-0.65134 -0.98596,-4.13405 -1.021,-4.1691 -0.54793,-0.54792 -1.05701,-1.39734 -1.61659,-1.95692 -0.1806,-0.1806 0.62234,-4.56776 0,-5.19011 -0.75931,-0.7593 -0.58442,-1.36133 -2.21218,-1.36133 -0.10821,0 -0.61179,-0.0689 -0.68067,0 -0.7797,0.7797 -0.57459,2.6166 -1.36134,3.40334 -0.3611,0.36111 -1.13622,0.28539 -1.5315,0.68067 -0.83025,0.83025 -1.58729,-1.16186 -1.70168,-1.27625 -0.19067,-0.19068 -0.5485,-0.18917 -0.85083,-0.34034 -0.63345,-0.31672 -0.77549,1.19117 -1.53151,1.19117 -1.5097,0 -3.62051,-0.37842 -4.50944,0.51051 -0.18702,0.18702 0.0782,0.85775 -0.0851,1.021 -1.09996,1.09996 0.005,5.61089 -0.34033,5.95586 -1.2533,1.25329 -2.68515,7.88901 -5.19011,6.63653 -0.55661,-0.27831 -0.98209,-0.13126 -1.36134,-0.51051 -0.71793,-0.71793 0.25969,-1.7061 0.76576,-2.21217 0.90643,-0.90644 0.28851,-4.15054 0.68066,-4.93486 0.11661,-0.2332 0.59984,-0.42967 0.76576,-0.59558 0.78948,-0.78948 2.21565,-3.48148 1.44642,-5.01994 -0.20233,-0.40466 -0.82746,-2.12709 -1.53151,-2.12709 -0.56263,0 -1.67141,0.61071 -2.38234,0.25525 -0.14422,-0.0721 -1.029,-0.33234 -1.19117,-0.17017 -0.11345,0.11345 -0.48214,-0.0284 -0.59559,0.0851 -0.17467,0.17467 -0.0228,1.00962 -0.5105,0.76575 -0.37752,-0.18876 -1.55558,-1.6776 -2.04201,-1.19117 -0.7255,0.7255 -2.7176,3.32333 -3.74368,2.29726 -0.31489,-0.31489 -0.34033,-0.89979 -0.34033,-1.53151 0,-2.6656 0.40914,-2.1959 1.78675,-3.57351 0.15055,-0.15056 -0.10877,-1.71352 -0.25525,-1.78676 -0.28161,-0.14081 -0.77857,0.0851 -1.021,0.0851 -0.92168,0 -3.32538,0.26237 -3.74368,0.68067 -0.55808,0.55807 -2.67269,2.00692 -3.74369,0.93592 -0.39,-0.39001 0.16129,-1.18228 0.34034,-1.36134 0.54811,-0.54811 1.744,-0.21249 2.29726,-0.76575 0.92238,-0.92238 0.7581,-2.72268 2.80776,-2.72268 0.39605,0 1.93925,1.29393 2.38234,0.85084 0.29368,-0.29368 1.59743,-1.63575 2.29726,-0.93592 1.01087,1.01087 1.28787,2.1387 2.21218,3.06301 1.04371,1.04371 4.7115,-1.66977 5.27519,-1.10609 0.64624,0.64624 3.8967,0.57844 4.25418,0.93592 0.53023,0.53024 1.68682,0.7509 2.21218,1.27626 0.34251,0.34251 2.84155,-0.71446 2.97793,-0.85084 0.11271,-0.11271 -0.12369,-0.41753 -0.17017,-0.5105 -0.67849,-1.35697 -0.58962,-3.50036 0,-4.6796 1.63701,-3.27402 -2.807,0.93668 -3.40335,0.34033 -0.21333,-0.21333 -0.59909,-0.17367 -0.85084,-0.42542 -0.4701,-0.4701 -0.77376,-1.1141 -1.19117,-1.5315 -0.22768,-0.22768 -0.67243,0.0467 -0.93592,-0.0851 -2.21908,-1.10954 -3.39245,-0.91412 -4.50943,-3.14809 -0.28942,-0.57883 1.33836,-0.99804 1.61659,-1.27626 0.46144,-0.46145 1.56068,0.6515 2.04201,0.17017 0.44322,-0.44323 5.31824,-2.29726 6.29619,-2.29726 0.87787,0 1.76144,-0.59559 2.63759,-0.59559 0.29691,0 2.07574,-0.3066 1.95693,-0.42541 -0.42284,-0.42284 -1.02743,-1.11252 -1.53151,-1.61659 -0.70298,-0.70298 -4.29328,-1.14519 -4.59452,-1.44643 -1.78965,-1.78965 0.30698,-3.94721 -0.42542,-4.6796 -0.60533,-0.60533 -3.02656,1.00278 -3.40334,1.19117 -0.49698,0.24849 -1.07525,0.56474 -1.36134,0.85084 -0.33102,0.33102 -8.87271,0.44943 -10.03988,1.61659 -0.0213,0.0213 -2.95116,-0.19694 -3.74368,0.59558 -0.52537,0.52537 -1.76228,0.27973 -2.21218,-0.17016 -0.1171,-0.11711 0.13685,-0.27369 0.17017,-0.34034 1.03877,-2.07754 1.83245,-0.98161 2.6376,-1.78675 3.08778,-1.65354 8.90046,-4.57056 11.57138,-4.93486 0.92383,-0.11459 0.86872,-1.29413 1.44645,-1.87186 0.27018,-0.27018 0.36097,-0.61622 0.59559,-0.85084 0.59728,-0.59728 2.06523,-0.19339 2.72267,-0.85083 0.55291,-0.55291 -2.78236,-1.89724 -3.6586,-1.02101 -2.75833,2.75834 -3.96003,0.78885 -6.97686,2.29726 -0.38338,0.19169 -0.88755,-0.10927 -1.27625,0.0851 -0.60968,0.30483 -0.72384,0.80891 -1.10609,1.19117 -0.58131,0.5813 -4.95118,1.39572 -6.04094,0.85083 -1.84344,-0.92172 -4.11602,0.27633 -5.10502,-1.70167 -0.0436,-0.0873 -0.34337,-0.42238 -0.17017,-0.59559 1.31242,-1.31242 3.03289,-1.16104 4.1691,-2.29725 0.4141,-0.4141 0.11093,-3.34412 0.85084,-4.08402 0.62261,-0.62261 1.09285,-1.00777 1.61659,-1.53151 0.41214,-0.41215 1.4463,-0.34022 1.78675,-0.68067 0.55302,-0.55301 0.78416,1.22799 0.85084,1.36134 0.50429,1.00858 0.83431,1.52324 1.87184,2.04201 0.54348,0.27174 7.52315,-1.14187 7.74262,-1.36134 0.58161,-0.58162 0.96732,-1.05241 1.5315,-1.61659 0.13952,-0.13951 -0.0159,-0.8588 -0.17016,-0.93592 -0.37155,-0.18577 -1.12601,0.0525 -1.36134,0.17017 -0.79582,0.39791 -4.28633,-0.2874 -4.67961,-0.68067 -0.19532,-0.19533 -0.37417,-0.57818 -0.5105,-0.85084 -0.0436,-0.0873 -0.34337,-0.42238 -0.17016,-0.59558 1.04046,-1.04046 9.12184,-2.61971 6.2111,-5.53044 -0.75602,-0.75603 -3.30599,0.50436 -3.99893,0.85083 -0.95884,0.47943 -1.1464,-1.12847 -1.87184,-0.76575 -2.50937,1.25468 -4.96184,1.75977 -6.89178,-0.17017 -0.75929,-0.75929 5.94548,-3.64822 6.38128,-4.08401 0.10349,-0.1035 -0.0436,-0.68282 -0.0851,-0.76576 -0.30101,-0.60202 -0.13115,-1.06707 -0.59558,-1.5315 -0.85023,-0.85023 -3.14236,0.0908 -3.91385,-0.68067 -0.17558,-0.17558 -1.71262,-2.20123 -2.6376,-1.27626 -0.24786,0.24787 -0.55816,0.48827 -1.10608,0.5105 -2.09683,0.0851 0.30712,-1.49829 1.44642,-1.61658 0.46219,-0.048 1.117,-0.24435 1.61658,0.25525 0.93684,0.42633 1.60816,-0.0851 1.95693,-0.0851 1.16268,0 3.45292,1.90736 3.91385,1.44642 1.61898,-1.61898 -0.56404,-3.92962 -0.0851,-4.1691 1.36021,-0.6801 2.02764,1.29062 3.57351,-0.25525 0.45691,-0.4569 0.85084,-0.20552 0.85084,-1.19117 0,-1.37144 2.11687,-5.33872 3.23318,-4.59452 0.43258,-0.2896 1.46011,-1.84453 1.1912,-2.38234 -0.32077,-0.64155 -1.25126,-0.65568 -1.61659,-1.02101 -0.17257,-0.17257 0.17017,-0.98193 0.17017,-1.27625 0,-0.22706 -0.35541,-0.92084 -0.25525,-1.02101 0.15149,-0.15148 0.30711,-0.22202 0.42542,-0.34033 0.95838,-0.95838 1.86054,2.64889 2.63759,1.87184 0.75397,-0.75397 0.88496,-1.73579 1.53151,-2.38234 0.50014,-0.50014 1.57519,-0.38402 2.04201,-0.85084 0.22699,-0.22699 1.6468,1.5013 2.04201,1.10609 0.10958,-0.10959 -0.72502,-1.15044 -0.85084,-1.27626 -0.34034,-0.34033 0.17017,-1.5315 -0.17017,-1.87184 -0.46846,-0.46846 -1.20472,-0.60914 -1.61659,-1.021 -0.89642,-0.89642 -1.18629,-4.0889 -0.17017,-5.10502 0.83051,-0.83051 1.70002,-1.74339 2.80777,-2.29726 0.6454,-0.3227 2.79978,0.51848 3.23318,0.0851 0.39612,-0.39612 -0.44629,-2.36147 0.0851,-2.89284 1.04948,-1.04948 2.98736,-1.03044 3.31826,-1.36134 0.52671,-0.52671 -0.25225,-2.30026 0.25525,-2.80777 0.25371,-0.2537 0.88744,-0.0608 1.27626,-0.25525 0.63087,-0.31543 0.98355,-1.06863 1.36134,-1.44642 0.24772,-0.24772 1.45123,-0.26006 1.95692,-0.76575 0.0862,-0.0862 0,-0.71535 0,-0.85084 0,-1.90331 -0.79531,-2.2695 -2.21217,-2.97793 -1.49399,-0.74699 -2.46051,1.01408 -3.06302,1.61659 -0.28562,0.28563 -4.35649,-1.4292 -3.40334,-2.38234 0.47254,-0.47254 1.56068,-0.11426 1.95692,-0.5105 0.55802,-0.55802 1.18683,-0.76141 1.70168,-1.27626 0.80187,-0.80188 -2.93532,-1.63787 -0.76576,-2.72268 z"
     id="path6689"
     inkscape:connector-curvature="0"
     sodipodi:nodetypes="ccscscscscsccccsccccsscsccssccccccccccssssccccccscsccsccsscccscccsscsccscsccscccsssssccsscssscccccssscscsccsccccssscccccccscccccccccccccccsccsccsscscccsc" />
  <path
     style="fill:none;stroke:#000000;stroke-width:0.5;stroke-linecap:butt;stroke-linejoin:round;stroke-miterlimit:4;stroke-dasharray:0.5, 1.50000000000000000;stroke-dashoffset:0;stroke-opacity:1"
     d="m 5.4453559,318.22589 c 0.4192264,-1.24254 1.4505006,-1.19525 2.1270921,-1.87184 2.0383426,-2.03835 6.068415,-3.26066 7.827699,-5.01994 0.374402,-0.3744 1.831724,-0.57553 2.212176,-0.76575 1.652672,-0.82634 4.066006,-0.57758 5.360272,-1.87185 1.303847,-1.30384 2.637594,-1.48899 2.637594,-3.74368 0,-0.12187 0.07756,-0.68819 0,-0.76575 -0.259303,-0.2593 -0.282137,-0.70756 -0.510502,-0.93592 -0.912542,-0.91254 -5.035175,0.49526 -7.147029,-1.61659 -0.60038,-0.60038 1.158206,-2.94497 1.361339,-3.1481 0.970946,-0.97094 0.148986,-3.7225 1.106088,-4.6796 0.722112,-0.72211 2.25132,-0.8049 3.063012,-1.61659 0.155987,-0.15599 0.01418,-0.60977 0.170168,-0.76575 0.02824,-0.0283 0.327635,-0.35304 0.170167,-0.51051 -1.000163,-1.00016 -4.824733,1.55655 -5.445356,0.93592 -2.269124,-2.26912 0.340335,-1.52162 0.340335,-4.50943 0,-0.13549 0.08623,-0.76461 0,-0.85084 -0.228398,-0.22839 -4.096291,-1.1789 -3.23318,-2.04201 0.775402,-0.7754 2.460196,-0.50327 3.23318,-1.27625 0.237402,-0.2374 -0.170168,-1.04775 -0.170168,-1.27626 0,-4.62748 -3.277866,-1.23585 -4.084016,-2.042 -0.165163,-0.16517 -0.688461,-0.55694 -0.935921,-0.68067 -0.27347,-0.13674 0.34192,-1.10768 0.425418,-1.19118 0.15942,-0.15942 -0.06899,-0.86693 0,-0.93592 0.08269,-0.0827 0.2294,0.0481 0.340335,0.0851 1.404874,-1.32952 -1.862357,-6.90128 -1.446422,-7.31721 0.268474,-0.26847 0.674497,-0.6745 0.93592,-0.93592 0.885214,-0.88521 2.972799,2.63503 3.488431,2.89285 0.650333,0.32516 5.557542,1.84473 5.955858,1.44642 0.106525,-0.10653 1.493152,-0.5105 1.61659,-0.5105 0.142545,0 1.220451,-1.24698 1.786758,-0.68067 0.997862,0.99786 3.053944,3.1861 4.1691,3.74368 0.560169,0.28008 2.42573,-0.72237 2.977929,-0.17017 0.248871,0.24887 1.941659,3.16336 2.467427,2.6376 0.503859,-0.50386 0.860335,-3.1386 0.170167,-3.82877 -0.60024,-0.60024 -1.909971,-1.65472 -2.467426,-2.21218 -0.05969,-0.0597 -0.805123,-0.55621 -0.765754,-0.59558 0.224231,-0.22423 2.258752,-0.34034 2.467427,-0.34034 1.243657,0.13166 1.869408,-0.50928 2.722678,-0.93592 0.375955,-0.18798 0.975781,0.1077 1.361339,-0.0851 0.875058,-0.43753 2.818184,0.43584 3.148097,0.76575 0.179097,0.1791 4.092653,-1.54014 4.339268,-1.78676 0.18366,-0.18366 2.363838,0.0518 3.148096,-0.34033 1.217287,-0.60864 3.27276,0.83105 4.594519,0.17017 0.253884,-0.12695 0.607082,-2.1156 0.340335,-2.38235 -0.537559,-0.53755 -3.230016,0.12921 -3.998934,-0.25525 -2.810245,-1.40512 -7.403935,0.1268 -10.380209,-1.36134 -0.409001,-0.2045 -1.145876,0.13038 -1.446423,-0.17016 -0.409437,-0.40944 -2.697162,0.18292 -3.403347,-0.17017 -1.169405,-0.5847 -3.024556,0.65736 -4.169101,0.0851 -1.156712,-0.57835 -7.789983,-3.36563 -8.168034,-3.74368 -0.910807,-0.91081 -1.774608,-2.20003 -2.467427,-2.89284 -0.339972,-0.33998 -1.340907,-0.15996 -1.701673,-0.34034 -0.569537,-0.28477 -3.309237,-1.9479 -3.573515,-2.21218 -0.546074,-0.54607 0.129194,-1.99789 -0.340335,-2.46742 -0.272953,-0.27296 0.02763,-1.13592 -0.170167,-1.53151 -1.57029,-3.14058 3.899606,-3.04877 5.019937,-4.1691 0.411989,-0.41199 -0.583672,-1.64042 -0.255251,-2.29726 0.183309,-0.36662 1.946739,-1.54169 2.637594,-0.85084 0.292723,0.29273 0.988423,0.22267 1.276256,0.51051 0.692603,0.6926 0.178903,2.89721 1.191171,3.40334 1.812401,0.9062 4.529392,-0.0751 6.381277,0.85084 1.340701,0.67035 3.497789,1.11545 4.594519,2.21218 0.655727,0.65572 1.889514,2.09338 2.977929,2.63759 0.403635,0.20182 1.077973,0.48239 1.361339,0.76575 0.895258,0.89526 3.845537,-1.0977 5.360272,-0.34033 0.735397,0.3677 1.114924,0.94476 1.531506,1.36134 0.582269,0.58227 2.531538,0.17017 3.488431,0.17017 1.284695,-1.62289 5.239497,-1.00316 6.46636,-1.61659 2.449222,-1.22462 6.869185,-2.26602 9.529373,-0.93592 1.594639,0.79731 3.612138,-1.4078 5.53044,0.5105 0.515515,0.51551 1.924766,-0.96808 2.297259,-0.59559 1.726796,1.7268 7.508547,1.55269 9.614457,3.6586 0.416884,0.41688 2.037724,-0.4297 2.382343,-0.0851 0.371857,0.37185 1.923962,0.52787 2.382343,0.68067 0.712762,-0.0592 2.095537,-0.44118 2.807762,-0.0851 1.335558,0.66778 10.657552,3.21109 11.401212,2.46743 0.80491,-0.80491 -2.09202,-1.6666 -2.29726,-1.87184 -0.28033,-0.28034 -0.59999,-0.68508 -0.85083,-0.93592 -1.077839,-1.07784 -1.691915,-2.62783 -2.722683,-3.6586 -0.86494,-0.86494 -1.748131,-1.32271 -2.722678,-2.29726 -1.070037,-1.07004 -3.645232,0.72989 -5.275188,-0.0851 -1.49151,-0.74576 -3.39988,-0.59386 -4.764686,-1.27626 -1.561292,-0.78065 -2.550156,-1.35898 -3.573515,-2.38234 -0.445562,-0.44556 -0.323704,-1.68505 -0.850837,-2.21218 -0.537127,-0.53713 -0.66077,-1.5116 -1.106088,-1.95692 -1.338328,-1.33833 -6.501587,1.13102 -7.061946,0.85084 -0.979594,-0.4898 -4.285117,-0.45636 -4.84977,-1.02101 -0.517592,-0.51759 -1.741358,-0.55019 -2.212176,-1.021 -0.633035,-0.63304 -1.389996,-1.13475 -1.956925,-1.70168 -0.235913,-0.23591 -1.559318,0.53832 -1.61659,0.59559 -0.146691,0.14669 -0.779698,-0.3264 -0.765753,0.34034 -0.684189,0.68418 -1.621583,0.4304 -2.297259,1.10608 -0.358976,0.35898 -2.612931,-1.00086 -3.063013,-0.85083 -2.094381,-0.0877 -7.458924,0.19865 -8.76362,-1.10604 -0.01373,-0.0137 -2.881066,-0.50462 -3.23318,-0.68067 -1.097745,-0.54888 -2.702773,-2.93812 -3.318263,-4.16911 -0.225866,-0.45173 -0.09246,-0.94329 -0.425419,-1.27625 -0.783516,-0.78352 -2.544101,0.60399 -3.318264,-0.17017 -0.389435,-0.38943 -1.120892,-0.44022 -1.531506,-0.85083 -1.149501,-1.14951 -2.350529,-2.35053 -3.318264,-3.31827 -1.22242,-1.22242 -3.879944,-0.0173 -4.679602,-1.61659 -0.865075,-1.73015 1.925056,-3.20131 2.722678,-3.99893 1.298758,-1.29876 3.625482,-0.90994 4.764686,-0.34034 0.07549,0.0378 2.6976,2.01693 2.722678,2.04201 0.550776,0.55078 5.547081,-0.42542 6.296193,-0.42542 0.799381,0 1.729102,0.87967 2.467427,0.51051 0.53573,-0.26787 2.358724,-2.01128 2.977929,-1.70168 0.240739,0.12037 1.21198,0.0208 1.361339,0.17017 0.543568,0.54357 4.303704,1.70167 5.275188,1.70167 1.025634,-0.33786 4.901499,0.96928 5.445356,0.42542 0.460269,-0.46027 2.06485,-1.021 2.807762,-1.021 0.436044,0 1.854795,-1.03805 1.361339,-1.53151 -0.481313,-0.48131 -5.001224,-0.24589 -6.21111,-0.85084 -2.306645,-1.15332 -4.184139,-2.98544 -6.721611,-4.25418 -2.371159,-1.18558 -10.386326,-1.28237 -11.9968,-2.89284 -0.315315,-0.31532 0.659668,-1.86135 1.021005,-2.04201 2.372294,-1.82428 7.143676,-3.46231 9.103954,-3.91385 0.415204,-0.80478 1.503405,-0.65257 1.956925,-1.10609 0.232914,-0.23292 0.90483,-0.22416 1.191172,-0.5105 1.377875,-1.37788 3.266479,-0.59559 5.275188,-0.59559 0.257695,0 1.452601,-0.16399 1.61659,0 0.287729,0.28773 3.04814,0.78063 3.488431,0.34034 0.106187,-0.10619 0.423969,-0.16727 0.510502,-0.34034 0.166226,-0.33245 -2.926803,-3.02905 -2.382343,-3.57351 1.487831,-1.48783 4.612087,0.8684 5.445356,1.70167 0.283964,0.28396 1.533114,-0.38207 1.956925,-0.17017 0.992782,0.49639 2.256102,0.40484 3.148096,0.85084 1.620558,0.21469 2.574651,-0.0629 3.91385,-10e-6 0.933626,0.0828 1.477144,0.37107 1.871841,0.76576 0.659096,0.6591 2.801087,0.50383 3.743682,1.44643 0.07323,0.0732 1.16923,0.0535 1.276255,0 1.229493,-0.61475 -2.508606,-4.89368 -2.467427,-4.93486 1.074208,-1.07421 5.883687,-0.16156 6.891779,0.5105 2.003761,-0.21825 4.810364,0.41915 5.615523,-1.19117 0.324934,-0.64987 -1.685297,-1.4628 -0.765753,-2.38234 0.167991,-0.16799 1.133698,0.52431 1.276255,0.59558 0.904139,0.45207 2.145783,0.22206 3.063013,0.68067 0.817152,0.40858 2.157531,-0.24003 2.977929,0.17017 0.08839,0.0442 0.569553,0.1962 0.680673,0.0851 0.52796,-0.52796 5.32884,-1.58515 5.61552,-1.87184 0.22699,-0.22699 0.61351,-0.60454 0.93592,-0.76575 0.17872,-0.0894 0.17017,-0.1566 0.17017,-0.42542 0,-1.02341 -4.96329,-1.70167 -6.04094,-1.70167 -1.62154,0 -2.333166,-2.75858 -3.1481,-3.57352 -0.869955,-0.86995 -2.387891,-1.19672 -3.148097,-1.95692 -0.285644,-0.28564 0.789773,-2.16414 0.425419,-2.89285 -0.244905,-0.48981 -1.40151,-1.83167 -0.68067,-2.55251 0.685816,-0.68581 2.426685,-0.55484 3.148096,-1.27625 0.410232,-0.41023 1.393654,-0.54282 1.786758,-0.93592 1.018784,-1.01879 2.760764,-1.90993 3.913854,-3.06302 0.75464,-0.75464 3.18826,0.89576 3.91384,0.17017 0.81103,-0.81102 1.90597,-1.14021 2.89285,-2.12709 0.46386,-0.46386 0.73255,-1.15797 1.27626,-1.70167 0.22829,-0.2283 0.86386,-0.1832 1.10608,-0.42542 0.55305,-0.55305 9.51945,0.60055 9.52938,0.59558 1.0169,-0.50845 -0.35505,-2.62288 0.34033,-3.31826 0.7154,-0.7154 1.36115,-1.78663 2.42488,-2.50998 1.66531,-0.93296 5.0026,0.41281 6.08349,-0.12762 0.60796,-0.30399 2.63598,-1.02181 3.31826,-0.68067 0.45886,0.22942 0.86644,0.76575 1.44643,0.76575 0.95639,0 9.32071,-0.54899 9.52937,-0.34034 0.41988,0.41989 4.23351,1.1705 4.84977,1.78676 3.3914,3.39141 6.46636,3.60466 6.46636,10.4653 0,1.82029 -0.25433,5.01901 -1.36134,6.12602 -0.32192,0.32192 -1.6717,6.26622 -2.80776,7.40228 -0.8286,0.8286 0.86938,2.19364 0.17017,2.89285 -0.85756,0.85756 -0.72784,3.53559 -1.36134,4.1691 -0.15698,0.15697 -0.48882,0.23356 -0.68067,0.42542 -0.49112,0.49111 0.3231,2.4168 0,3.06301 -0.81567,1.63134 -1.02101,3.717 -1.02101,5.87077 0,0.12187 0.0776,0.68819 0,0.76576 -0.11055,0.11055 -0.84992,0.16834 -0.93592,0.34033 -0.31058,0.62118 0.10461,4.13005 -0.42542,5.19011 -1.22131,2.44263 -1.5962,5.93547 -3.23318,7.57244 -0.37229,0.3723 -0.0506,1.24181 -0.42541,1.61659 -0.36143,0.36143 -0.79008,0.53483 -1.19118,0.93592 -0.24021,0.24022 -0.34358,0.85409 -0.59558,1.10609 -0.9736,0.9736 1.70604,2.64633 1.95692,3.1481 0.68981,1.37961 0.18945,3.77091 -0.34033,5.36027 -0.434,-0.002 -0.34263,0.85312 -0.5105,1.02099 -0.40816,0.40816 -1.24963,0.56896 -1.61659,0.93593 -0.61241,0.6124 -0.14216,2.07106 -0.59559,2.97792 -0.0667,0.13346 -0.22628,1.04998 -0.0851,1.19118 0.95175,0.95175 4.24053,-0.35399 5.27519,0.68067 1.08365,1.08365 0.27367,3.3551 0.93592,4.6796 1.16387,2.32775 1.32351,5.11445 2.55251,7.57245 0.67367,1.34735 0.50686,2.97066 1.19117,4.33926 0.48925,0.9785 0.1041,2.48645 0.76575,3.1481 0.2518,0.2518 -0.25503,1.02144 -0.0851,1.36134 0.54594,1.09189 1.16476,2.70947 2.21217,3.23318 0.58623,0.29311 1.27012,0.67453 1.61659,1.021 0.52655,0.52655 0.5991,1.36485 1.10609,1.87184 0.27064,0.27064 1.03005,0.43447 1.36134,0.76576 0.4014,0.4014 0.26302,1.7172 0.5105,2.21217 1.0741,2.14819 1.5575,3.88075 2.55251,5.87078 0.60992,1.21983 -0.24465,3.25438 0.34034,4.42435 0.65179,1.30359 -0.0699,3.67377 1.10609,4.84977 0.17704,0.17704 0,3.03982 0,3.91385 0,0.16268 0.10352,0.91747 0,1.021 -0.38577,0.38576 -1.21035,0.35951 -1.61659,0.76576 -1.89797,1.89796 -1.16896,-5.39171 -1.61659,-5.61553 -0.24401,-0.122 -1.51878,-1.54423 -1.95693,-1.10608 -1.26629,1.26629 -3.69834,1.14582 -4.93485,2.38234 -1.20058,1.20058 -0.7332,3.88129 -1.87184,5.01994 -0.29283,0.29283 -0.82943,0.11692 -1.27626,0.34033 -1.4624,0.7312 -2.73951,2.43285 -3.23318,3.91385 -1.62702,1.76947 -2.01168,4.52458 -4.59448,3.23318 -0.47704,-0.23852 -0.2578,-1.53406 -0.68067,-1.95692 -0.40125,-0.40126 -0.89105,-0.76111 -1.10609,-1.19118 -0.26879,-0.53758 -1.48524,-0.80457 -1.87184,-1.19117 -0.36508,-0.36508 0.17017,-2.1701 0.17017,-2.46742 0,-2.48686 -1.29231,-7.04589 0.0851,-8.42329 0.32273,-0.32272 0.25513,-1.95705 0,-2.21218 -2.09608,-2.09608 -4.25001,1.86768 -5.53044,3.1481 -0.86289,0.8629 -4.41909,10.05038 -3.91385,11.06088 1.03432,2.06863 1.26353,5.04539 0.17017,7.23211 -0.26145,0.5229 -0.0262,1.38759 -0.42542,1.78676 -0.27015,0.27015 0.10443,1.08675 -0.17016,1.36134 -0.43169,0.43168 -1.07735,0.65192 -1.53151,1.10609 -1.161,1.161 -3.34515,-2.91973 -3.74368,-3.31827 -0.76356,-0.76355 -5.11386,-3.08069 -5.27519,-3.40334 -0.11351,-0.22703 0.29961,-0.42179 0.17017,-0.68067 -0.62177,-1.24354 -0.15831,-9.66293 -2.80776,-8.3382 -1.21566,0.60782 -0.57821,2.53513 -1.44643,3.40334 -0.78337,0.78338 -0.91516,2.61684 -1.5315,3.23318 -1.7923,1.7923 -2.32692,4.9091 -3.57352,7.40228 -0.33872,0.67744 0.76172,3.23722 -0.76575,4.76469 -2.35358,2.35358 -3.1481,1.74309 -3.1481,-2.04201 0,-0.30295 -0.34482,-1.69718 -0.0851,-1.95692 0.25217,-0.25217 0.70432,-0.36399 0.93592,-0.59559 0.30289,-0.30289 0.19791,-0.96366 0.5105,-1.27625 1.18031,-1.18031 1.84922,-2.76253 2.63759,-4.33927 0.43646,-0.8729 -0.51652,-2.38536 -1.021,-2.6376 -0.63066,-0.31532 -1.76765,1.28008 -2.21218,1.19118 -1.28115,0.55152 -1.95714,1.61681 -2.97792,2.63759 -0.41146,0.41146 -1.26591,0.15982 -1.70168,0.59559 -1.12098,1.12098 -2.696979,4.31357 -3.828764,5.44535 -0.33913,0.33913 -1.076008,0.48042 -1.446422,0.85084 -0.620481,0.62048 -3.634873,-1.04473 -4.169101,-0.5105 -0.243383,0.24338 -1.194267,0.0882 -1.446423,0.34033 -0.505519,0.50552 -1.854725,0.4083 -2.382343,0.93592 -0.648836,0.64884 -1.974264,1.20851 -2.807761,2.04201 -1.138212,1.13821 -1.582002,3.11351 -2.807762,4.33927 -0.388247,0.38824 -0.113453,1.47479 -0.510502,1.87184 -0.124706,0.1247 -0.866608,1.1754 -1.361339,0.68067 -2.077402,-2.0774 0.575937,-3.70439 1.531506,-5.61552 0.613291,-1.22659 -1.189402,-2.3008 -0.765753,-3.1481 2.350712,-3.01903 3.427047,-7.59753 5.53044,-9.95479 0.639876,-0.63988 -1.497477,-2.07604 -0.765754,-2.80776 0.418203,-0.41821 1.531507,-1.67327 1.531507,-2.38235 0,-0.6966 0.980561,-1.86764 0.510502,-2.80776 -0.09283,-0.18566 -0.419451,-1.53747 -0.170167,-1.78676 0.451442,-0.45144 1.041462,-1.40225 1.446422,-2.21217 0.38257,-0.76514 0,-1.84307 0,-2.80776 0,-0.21979 0.741953,-0.95972 0.425419,-1.27626 -0.224106,-0.2241 -5.836483,0.73146 -6.040942,0.93592 -0.584885,0.58489 -0.935921,1.44983 -0.935921,2.55251 0,0.98716 -0.765753,1.98869 -0.765753,2.80776 -0.0694,0.49476 -0.107205,1.29838 -0.425418,1.61659 -0.878367,0.87837 -1.611499,3.223 -4.932308,7.18448 -2.267406,1.19751 -3.090216,3.05022 -4.767232,4.72724 -0.878581,0.87858 -1.913526,1.35962 -2.382344,2.29726 -0.735122,1.47024 -1.764679,3.04093 -2.637594,3.91385 -1.137914,1.28173 -4.128007,0.38432 -5.190105,1.44642 -0.674313,0.67432 -0.718545,1.90972 -1.361339,2.55251 -0.893725,0.89373 -2.027309,1.33929 -2.722678,2.38235 -1.433287,0.60895 -1.335259,-2.24511 -1.786757,-3.1481 -0.557822,-1.11565 -0.830514,-1.34102 -1.61659,-2.12709 -1.175266,-1.17527 4.494915,-5.26067 5.360272,-6.12603 1.324627,-1.32463 1.66642,-2.87522 3.403348,-3.74368 1.676894,-0.83845 1.871841,-2.53983 1.871841,-4.59452 0,-0.64854 0.988924,-2.29726 -0.170168,-2.29726 -0.05192,0 -0.307182,-0.0331 -0.340334,0 -1.668406,1.66841 -2.253981,4.06959 -4.594519,4.84977 -0.557123,0.29138 -1.498226,0.13689 -1.871841,0.5105 -0.787145,0.78715 -2.172421,1.76688 -3.233181,2.29726 -0.384846,0.19243 -1.200571,0.26465 -1.446422,0.5105 -0.254143,0.25415 -2.601567,-1.39736 -3.403348,-0.59558 -2.032071,2.03207 -2.767982,4.2144 -4.764686,6.21111 -0.354673,0.35467 -1.656724,-0.44549 -1.956925,-0.59559 -0.215366,-0.10768 -0.85732,0.16369 -1.021004,0 -0.136449,-0.13645 -0.977155,-2.08586 -1.61659,-1.44642 -0.178017,0.17802 0.170167,1.49175 0.170167,1.78676 0,0.84123 -0.966581,5.92519 -0.510502,6.38127 0.472727,0.47273 1.605263,0.41409 2.127092,0.93592 0.04148,0.0415 0.388606,1.05782 0.595586,0.85084 0.223898,-0.2239 1.417059,-1.3907 1.871841,-0.93592 0.284879,0.28488 -3.433192,4.13926 -5.019937,2.55251 -0.574606,-0.57461 -1.833269,-1.34848 -2.637594,-1.61659 -0.998541,-0.35167 -2.832473,-0.27996 -3.573515,-1.021 -2.209221,-2.20922 -1.871841,-3.08139 -1.871841,-6.63653 0,-1.0088 -2.278578,1.27625 -2.977929,1.27625 -3.071304,0 -1.745285,4.72322 -2.127092,5.10503 -0.392238,0.39223 -1.858321,0.68066 -2.467427,0.68066 -1.003536,-0.45187 -2.407889,-0.62113 -3.063013,-1.27625 -0.231177,-0.23118 -1.528705,0.0851 -1.701674,0.0851 -0.786194,0 -3.089869,0.62245 -3.573515,1.10609 -0.599411,0.59941 -2.368471,0.12069 -3.148096,0.5105 -0.881531,0.44077 -2.212725,1.19172 -2.9779289,1.95693 -0.6997143,0.69971 -3.2822259,-0.1932 -3.9989332,1.95692"
     id="path6695"
     inkscape:connector-curvature="0"
     sodipodi:nodetypes="cccccsccscsccccscscscccccccccsccccccccsccccccccccccccccccccccscccsccccccccccscsssccccccscccccccccccccccccscccccsccccccccscccscccccccccssccccccssccccccscscscscccsccsssscccsccccccsccscccscccsccsssccccscccsccccsccsscsccscccccsccscsscsscccssccccccccsccccsscssccscccccccccccscsscccccsccccscccccccsscccscccc" />
</svg>
