<?xml version="1.0" encoding="UTF-8" standalone="no"?>
<!-- Created with Inkscape (http://www.inkscape.org/) -->

<svg
   xmlns:dc="http://purl.org/dc/elements/1.1/"
   xmlns:cc="http://creativecommons.org/ns#"
   xmlns:rdf="http://www.w3.org/1999/02/22-rdf-syntax-ns#"
   xmlns:svg="http://www.w3.org/2000/svg"
   xmlns="http://www.w3.org/2000/svg"
   xmlns:sodipodi="http://sodipodi.sourceforge.net/DTD/sodipodi-0.dtd"
   xmlns:inkscape="http://www.inkscape.org/namespaces/inkscape"
   version="1.1"
   id="svg16017"
   width="234.24001"
   height="613.12"
   viewBox="0 0 234.24001 613.12"
   sodipodi:docname="er27fe03.027.svg"
   inkscape:version="0.92.2 5c3e80d, 2017-08-06">
  <metadata
     id="metadata16023">
    <rdf:RDF>
      <cc:Work
         rdf:about="">
        <dc:format>image/svg+xml</dc:format>
        <dc:type
           rdf:resource="http://purl.org/dc/dcmitype/StillImage" />
        <dc:title></dc:title>
      </cc:Work>
    </rdf:RDF>
  </metadata>
  <defs
     id="defs16021" />
  <sodipodi:namedview
     pagecolor="#ffffff"
     bordercolor="#666666"
     borderopacity="1"
     objecttolerance="10"
     gridtolerance="10"
     guidetolerance="10"
     inkscape:pageopacity="0"
     inkscape:pageshadow="2"
     inkscape:window-width="1280"
     inkscape:window-height="756"
     id="namedview16019"
     showgrid="false"
     inkscape:snap-global="false"
     inkscape:zoom="2.3007241"
     inkscape:cx="113.46104"
     inkscape:cy="616.20512"
     inkscape:window-x="0"
     inkscape:window-y="0"
     inkscape:window-maximized="0"
     inkscape:current-layer="svg16017" />
  <path
     style="fill:none;stroke:#000000;stroke-width:1;stroke-linecap:round;stroke-linejoin:miter;stroke-miterlimit:4;stroke-dasharray:none;stroke-opacity:1"
     d="m 229.86355,609.18224 0.002,-606.0107582 H 4.5846115 L 4.5826243,609.18224 Z"
     id="path14359-1-7-5-3-0-73-1-9-8-5"
     inkscape:connector-curvature="0"
     sodipodi:nodetypes="ccccc" />
  <path
     style="fill:none;stroke:#000000;stroke-width:1;stroke-linecap:butt;stroke-linejoin:round;stroke-miterlimit:4;stroke-dasharray:none;stroke-opacity:1"
     d="m 4.3708068,49.289485 225.3927532,0.002"
     id="path14359-1-7-5-3-0-73-1-9-8-5-0"
     inkscape:connector-curvature="0"
     sodipodi:nodetypes="cc" />
  <path
     style="fill:none;stroke:#000000;stroke-width:0.9898898;stroke-linecap:butt;stroke-linejoin:round;stroke-miterlimit:4;stroke-dasharray:none;stroke-opacity:1"
     d="M 229.88461,435.9579 4.4918581,435.95591"
     id="path14359-1-7-5-3-0-73-1-9-8-5-5"
     inkscape:connector-curvature="0"
     sodipodi:nodetypes="cc" />
  <path
     style="fill:none;stroke:#000000;stroke-width:1.99297071;stroke-linecap:butt;stroke-linejoin:round;stroke-miterlimit:4;stroke-dasharray:none;stroke-opacity:1"
     d="m 49.659152,463.28498 0.002,-14.44186 H 23.150677 l -0.002,14.44186 z"
     id="path14359-1-7-5-3-0-73-1-9-8-5-27"
     inkscape:connector-curvature="0"
     sodipodi:nodetypes="ccccc" />
  <path
     style="fill:none;stroke:#000000;stroke-width:0.99648535;stroke-linecap:butt;stroke-linejoin:miter;stroke-miterlimit:4;stroke-dasharray:none;stroke-opacity:1"
     d="m 23.222878,467.44175 -0.002,14.40225 h 26.752575 l 0.002,-14.40225 z"
     id="path14359-1-7-5-3-0-73-1-9-8-5-3"
     inkscape:connector-curvature="0"
     sodipodi:nodetypes="ccccc" />
  <path
     style="fill:none;stroke:#000000;stroke-width:0.49824268;stroke-linecap:butt;stroke-linejoin:round;stroke-miterlimit:4;stroke-dasharray:0.49824267, 1.99297068999999993;stroke-dashoffset:0;stroke-opacity:1"
     d="M 51.771048,494.84893 41.608753,509.93979 31.2098,494.34176 20.588249,509.80116"
     id="path14359-1-7-5-3-0-73-1-9-8-5-9"
     inkscape:connector-curvature="0"
     sodipodi:nodetypes="cccc" />
  <path
     style="fill:none;stroke:#000000;stroke-width:0.99648535;stroke-linecap:butt;stroke-linejoin:miter;stroke-miterlimit:4;stroke-dasharray:none;stroke-opacity:1"
     d="m 47.081309,467.49254 -0.002,14.25383"
     id="path14359-1-7-5-3-0-73-1-9-8-5-9-0"
     inkscape:connector-curvature="0"
     sodipodi:nodetypes="cc" />
  <path
     style="fill:none;stroke:#000000;stroke-width:0.99648535;stroke-linecap:butt;stroke-linejoin:miter;stroke-miterlimit:4;stroke-dasharray:none;stroke-opacity:1"
     d="m 42.024504,467.49254 -0.002,14.25383"
     id="path14359-1-7-5-3-0-73-1-9-8-5-9-2"
     inkscape:connector-curvature="0"
     sodipodi:nodetypes="cc" />
  <path
     style="fill:none;stroke:#000000;stroke-width:0.99648535;stroke-linecap:butt;stroke-linejoin:miter;stroke-miterlimit:4;stroke-dasharray:none;stroke-opacity:1"
     d="m 37.022051,467.49254 -0.002,14.25383"
     id="path14359-1-7-5-3-0-73-1-9-8-5-9-3"
     inkscape:connector-curvature="0"
     sodipodi:nodetypes="cc" />
  <path
     style="fill:none;stroke:#000000;stroke-width:0.99648535;stroke-linecap:butt;stroke-linejoin:miter;stroke-miterlimit:4;stroke-dasharray:none;stroke-opacity:1"
     d="m 31.802116,467.49254 -0.002,14.25383"
     id="path14359-1-7-5-3-0-73-1-9-8-5-9-9"
     inkscape:connector-curvature="0"
     sodipodi:nodetypes="cc" />
  <path
     style="fill:none;stroke:#000000;stroke-width:0.99648535;stroke-linecap:butt;stroke-linejoin:miter;stroke-miterlimit:4;stroke-dasharray:none;stroke-opacity:1"
     d="m 26.854052,467.49254 -0.002,14.25383"
     id="path14359-1-7-5-3-0-73-1-9-8-5-9-97"
     inkscape:connector-curvature="0"
     sodipodi:nodetypes="cc" />
  <path
     style="fill:none;stroke:#000000;stroke-width:0.99360901;stroke-linecap:round;stroke-linejoin:round;stroke-miterlimit:4;stroke-dasharray:none;stroke-opacity:1"
     d="m 51.359944,529.58449 -10.101268,15.07592 -10.285165,-15.6215 -10.22837,15.25514"
     id="path14359-1-7-5-3-0-73-1-9-8-5-9-03"
     inkscape:connector-curvature="0"
     sodipodi:nodetypes="cccc" />
  <path
     style="fill:none;stroke:#000000;stroke-width:0.49824268;stroke-linecap:round;stroke-linejoin:round;stroke-miterlimit:4;stroke-dasharray:none;stroke-opacity:1"
     d="M 52.13768,513.80032 41.46617,529.44294 31.151068,513.50741 21.393132,528.22556"
     id="path14359-1-7-5-3-0-73-1-9-8-5-9-03-9"
     inkscape:connector-curvature="0"
     sodipodi:nodetypes="cccc" />
  <path
     style="fill:none;stroke:#000000;stroke-width:0.49824268;stroke-linecap:round;stroke-linejoin:round;stroke-miterlimit:4;stroke-dasharray:none;stroke-opacity:1"
     d="M 51.095164,513.10187 41.489867,527.46596 31.444609,511.8201 20.504666,527.30244"
     id="path14359-1-7-5-3-0-73-1-9-8-5-9-03-8"
     inkscape:connector-curvature="0"
     sodipodi:nodetypes="cccc" />
  <path
     style="fill:none;stroke:#000000;stroke-width:0.99360901;stroke-linecap:round;stroke-linejoin:miter;stroke-miterlimit:4;stroke-dasharray:none;stroke-opacity:1"
     d="M 229.61921,524.54273 H 126.92465 l -0.002,84.56703"
     id="path14359-1-7-5-3-0-73-1-9-8-5-9-03-6"
     inkscape:connector-curvature="0"
     sodipodi:nodetypes="ccc" />
  <path
     style="fill:none;stroke:#000000;stroke-width:0.99360901;stroke-linecap:round;stroke-linejoin:round;stroke-miterlimit:4;stroke-dasharray:none;stroke-opacity:1"
     d="m 72.504463,568.24204 -0.002,5.59142 H 27.363385 l 0.002,-5.59142 z"
     id="path14359-1-7-5-3-0-73-1-9-8-5-9-03-62"
     inkscape:connector-curvature="0"
     sodipodi:nodetypes="ccccc" />
  <path
     style="fill:none;stroke:#000000;stroke-width:0.99360901;stroke-linecap:round;stroke-linejoin:round;stroke-miterlimit:4;stroke-dasharray:none;stroke-opacity:1"
     d="m 27.337243,571.16553 22.824262,0.002"
     id="path14359-1-7-5-3-0-73-1-9-8-5-9-03-0"
     inkscape:connector-curvature="0"
     sodipodi:nodetypes="cc" />
  <path
     style="fill:none;stroke:#000000;stroke-width:0.99360901;stroke-linecap:round;stroke-linejoin:round;stroke-miterlimit:4;stroke-dasharray:none;stroke-opacity:1"
     d="m 50.392897,568.37081 -0.002,5.39828"
     id="path14359-1-7-5-3-0-73-1-9-8-5-9-03-3"
     inkscape:connector-curvature="0"
     sodipodi:nodetypes="cc" />
  <path
     style="fill:none;stroke:#000000;stroke-width:0.99360901;stroke-linecap:round;stroke-linejoin:round;stroke-miterlimit:4;stroke-dasharray:none;stroke-opacity:1"
     d="m 56.087796,588.20456 -0.002,5.84898 H 27.351163 l 0.002,-5.84898 z"
     id="path14359-1-7-5-3-0-73-1-9-8-5-9-03-62-9"
     inkscape:connector-curvature="0"
     sodipodi:nodetypes="ccccc" />
  <path
     style="fill:none;stroke:#000000;stroke-width:0.99360901;stroke-linecap:round;stroke-linejoin:round;stroke-miterlimit:4;stroke-dasharray:none;stroke-opacity:1"
     d="m 27.325011,591.12807 14.015391,0.002"
     id="path14359-1-7-5-3-0-73-1-9-8-5-9-03-0-9"
     inkscape:connector-curvature="0"
     sodipodi:nodetypes="cc" />
  <path
     style="fill:none;stroke:#000000;stroke-width:0.99360901;stroke-linecap:round;stroke-linejoin:round;stroke-miterlimit:4;stroke-dasharray:none;stroke-opacity:1"
     d="m 41.571774,588.33335 -0.002,5.65581"
     id="path14359-1-7-5-3-0-73-1-9-8-5-9-03-3-9"
     inkscape:connector-curvature="0"
     sodipodi:nodetypes="cc" />
  <path
     style="fill:none;stroke:#000000;stroke-width:0.99360901;stroke-linecap:round;stroke-linejoin:round;stroke-miterlimit:4;stroke-dasharray:none;stroke-opacity:1"
     d="m 186.62808,540.21951 c -0.006,-4.25789 2.23374,-5.62894 5.81749,-3.83706 0.81019,0.40509 2.55819,-0.84569 3.03253,-0.37133 0.84981,0.84981 2.28732,1.17334 3.09441,1.98042 0.26204,0.26203 1.02316,-0.13825 1.29967,0 0.66013,0.33007 1.16256,1.7881 2.5374,2.47554 0.37698,0.18848 1.0251,-0.4681 1.17589,-0.61889 0.0878,-0.0878 0.72835,0 0.86644,0 0.50168,0 3.75731,-0.0798 3.89895,0.0619 0.30785,0.30786 0.70168,0.53693 0.92832,0.99022 0.2871,0.57422 -0.17769,2.17407 0.24756,2.5993 0.17761,0.17763 0.47983,0.2323 0.68076,0.43323 0.1011,0.10108 0.0558,0.42717 0.18566,0.55699 0.26645,0.26644 3.49121,-0.53155 4.27031,0.24755 0.93846,0.93847 1.23621,2.22643 2.16607,3.15631 0.30854,0.30853 0.0294,1.08146 0.30944,1.36154 0.26645,0.26645 -0.17152,1.06624 0.18567,1.42344 0.57299,0.57298 1.19008,1.14234 1.60909,1.98042 0.14224,0.28445 0.007,1.12049 0.12378,1.23777 0.51732,0.51729 0.86425,0.67638 1.17588,1.29964 0.0931,0.18616 0.2252,1.75523 0.0619,1.91854 -0.44765,0.44765 -1.04292,0.91914 -1.5472,1.42342 -0.44665,0.44666 -0.13346,1.86635 -0.55699,2.28987 -0.57246,0.57246 -1.07093,1.38036 -1.6091,1.91855 -0.37124,0.37121 -1.83813,-0.78603 -1.98043,-0.92834 -0.15008,-0.15007 -0.55264,0 -0.74266,0 -0.13336,0 -0.98854,0.24923 -1.11398,0.12379 -0.19361,-0.1936 -1.33676,-0.70556 -1.73288,-0.30945 -0.39814,0.39815 -0.90286,0.7791 -1.29965,1.17587 -0.33192,0.33193 -0.39698,1.01588 -0.74266,1.36156 -0.24008,0.24006 0.25368,0.79842 -0.0619,1.11398 -0.54119,0.5412 -1.03817,0.62892 -1.48533,1.29965"
     id="path6378"
     inkscape:connector-curvature="0"
     sodipodi:nodetypes="cscsccssccccccsccccccssscscssscc" />
  <path
     style="fill:none;stroke:#000000;stroke-width:0.99360901;stroke-linecap:round;stroke-linejoin:round;stroke-miterlimit:4;stroke-dasharray:none;stroke-opacity:1"
     d="m 218.99561,558.41467 c 0.24989,-0.74966 0.37134,-1.5889 0.37134,-2.53741 0,-0.0587 -0.0374,-0.33391 0,-0.37133 0.20093,-0.20093 0.2556,-0.50315 0.43322,-0.68078 0.16031,-0.16033 0.42394,-0.11449 0.55699,-0.24755 0.23773,-0.23772 -0.15163,-4.29815 -0.24755,-4.39407 -0.36717,-0.36717 -1.37406,-0.13629 -1.73287,-0.4951 -0.35662,-0.35663 0.44961,-1.46893 0.12378,-1.79476 -0.16612,-0.16611 -0.55405,-0.12083 -0.74266,-0.30944 -0.18964,-0.18963 0.0685,-1.29307 -0.43323,-1.79477 -0.20053,-0.20053 0.67285,-1.06001 0.24756,-1.48531 -0.68311,-0.68311 -1.31546,-1.56301 -1.98042,-2.22797 -0.35044,-0.35048 -1.27878,-0.1029 -1.6091,-0.43322 -0.23162,-0.23166 0.0377,-0.95249 -0.0619,-1.05211 -0.93553,-0.93554 -1.78889,-1.60324 -2.66118,-2.47553 -0.33366,-0.33367 -2.01486,1.38899 -2.59931,0.80455 -0.27736,-0.27735 -0.30344,-0.73666 -0.557,-0.99022 -0.38512,-0.38512 -1.90446,0.32352 -2.41363,-0.18566 -0.22586,-0.22585 -0.0914,-0.89594 -0.37133,-1.17588 -0.18132,-0.1813 -0.52688,0.40144 -0.74266,0.18566 -0.4555,-0.45549 -1.05443,-0.86875 -1.60909,-1.42343 -0.44168,-0.44166 -0.86418,0.49286 -0.92834,0.55701 -0.47129,0.4713 -2.28656,0.68076 -3.03252,0.68076 -0.8103,0 -0.008,1.74099 -0.61889,2.35176 -0.51796,0.51796 -1.44549,-0.53712 -1.60908,-0.61889 -0.81034,-0.40516 -1.62747,0.7828 -2.16609,1.05211 -0.49083,0.24542 -1.77809,-0.10712 -2.04232,-0.37133 -0.4281,-0.42811 -3.1611,-0.11898 -3.40385,0.12378 -0.18817,0.18815 -0.16967,0.66476 -0.37133,0.86642 -0.2075,0.20751 -0.40716,0.42867 -0.80454,0.557 -0.80006,-0.77266 -2.66991,0.30074 -3.40386,-0.43322 -0.46635,-0.46634 -0.45823,-1.26277 -0.86644,-1.67099 -0.25023,-0.25023 -1.65664,-0.62153 -2.59073,-0.57402 -0.95038,0.0483 -1.42707,0.51716 -1.49389,0.45025 -0.47016,-0.47015 -0.75195,-1.3708 -1.23777,-1.85665 -0.17,-0.17 -1.7291,-0.12755 -1.85665,0 -0.14409,0.1441 -0.33386,0.66855 -1.17588,0.24755 -0.11171,-0.0558 -2.31498,-0.0987 -2.35175,-0.0619 -0.41018,0.41019 -0.99388,0.43687 -1.42344,0.86645 -1.06344,1.06345 -2.41784,2.29196 -4.14652,3.1563 -0.88445,0.44223 -1.98138,0.49605 -2.66119,1.17587 -0.49038,0.4904 -0.8189,1.68532 -1.42343,2.28987 -0.25786,0.25787 -1.22746,-0.19598 -1.48532,0.0619 -0.91474,0.91473 -2.08,0.96601 -2.84688,1.73287 -0.3136,0.31361 -1.38945,0.33738 -1.73287,0.68077 -0.48191,0.48191 -1.83216,0.40872 -2.35176,0.92833 -0.15532,0.15532 -0.89687,-0.0466 -1.114,0.0619 -1.16447,0.58224 -3.25022,0.96038 -4.08462,1.79476 -1.98521,1.98521 -2.02145,6.35364 -3.46573,7.79792 -0.31792,0.31791 -0.0581,1.17212 -0.37134,1.48533 -0.55283,0.55283 -2.65009,2.42794 -2.97063,2.90874 -0.86333,1.2546 -2.15859,1.53973 -2.97063,2.35177 -0.60572,0.60571 0.12481,3.09338 -0.30943,3.52764 -0.55355,0.55353 -0.49512,1.51459 -0.49512,2.47552 0,0.24196 -0.35992,0.47229 -0.4951,0.74267 -0.10661,0.2132 0.13568,0.87834 0.24755,0.9902 0.39424,0.39425 -0.0277,1.21003 0.37133,1.6091 0.72883,0.72883 2.00994,1.76238 2.66119,2.41365 0.28423,0.28424 0.39935,2.0645 0.557,2.5374 0.34354,1.03067 1.29315,1.35506 1.91854,1.98044 0.4533,0.4533 1.73512,-0.49285 2.10418,-0.12378 1.26301,1.263 1.5856,0.51429 2.90875,1.17588 0.28563,0.14281 0.64271,-0.2047 0.92833,-0.0619 0.36929,0.18465 0.69889,0.82267 0.92833,1.05211 0.42097,0.42097 1.58841,0.39193 2.0423,0.61888 0.76813,0.38405 3.81089,-0.27374 4.33218,0.24755 0.2704,0.27039 0.64934,0.52556 0.92834,0.80454 0.60864,0.60864 0.76925,1.69756 1.36155,2.28986 0.39152,0.39153 2.22798,-0.54639 2.22798,1.671 0.55047,1.08425 0.98186,2.03393 1.73287,2.78495 0.16503,0.16503 0.0207,0.63951 0.18566,0.80455 0.9657,0.96569 2.95733,1.16255 4.08464,2.28987 0.2365,0.2365 0.23648,0.66385 0.4951,0.86643 0.9732,0.7623 2.2919,-1.72422 2.41365,-1.48533 0.1168,0.1168 0.37831,0.19265 0.4951,0.30945 0.0721,0.0721 -0.0721,0.36102 0,0.43322 0.14984,0.14984 2.53241,0.11875 3.03254,0.61888 0.46193,0.46194 2.1177,1.21358 2.78497,1.54721 0.81916,0.40958 1.04004,-0.63095 2.90875,0.0619 0.76901,0.0263 1.57247,0.84117 1.91853,0.49511 0.34704,-0.34704 1.36234,-1.33019 2.28987,-0.86644 0.51372,0.25688 1.6856,0.3241 2.04232,0.68077 0.91738,0.23664 2.52541,-0.0738 3.28006,0.68078 0.16504,0.16504 0.82519,-0.16504 0.99021,0 0.72071,0.7207 2.51035,0.83935 3.2182,1.54721 0.1808,0.18079 0.99247,0.18717 1.17588,0.30944 0.56286,0.0203 0.78998,-0.35675 1.0521,-0.61888 0.13808,-0.13806 0.66955,0.0111 0.80454,-0.12377 0.36856,-0.36856 0.67897,-0.67898 0.99022,-0.9902 0.29433,-0.29434 0.92476,0.0655 1.17588,-0.18567 0.29397,-0.29397 0.22009,-0.62586 0.43322,-1.0521 0.26085,-0.52172 1.48161,-0.6152 1.98042,-1.11399 0.42597,-0.42597 0.70376,-1.07508 1.114,-1.48532 0.34925,-0.34927 1.42487,-9.9e-4 1.79475,-0.37133 0.17989,-0.17988 -0.13438,-0.91771 0.0619,-1.11399 0.47581,-0.47581 1.02315,-1.08503 1.42345,-1.48532 0.58827,-0.58829 1.41921,-0.61468 1.9804,-1.17588 0.37451,-0.37449 0.73168,-0.79356 1.0521,-1.11399 0.26976,-0.26975 0.87344,-0.0688 1.11399,-0.30944 0.48405,-0.48405 0.74893,-0.99648 1.17588,-1.42343 0.38773,-0.38772 -0.68078,-1.26192 -0.68078,-1.48532 0,-0.71023 -2.76552,-2.02287 -3.34196,-2.5993 -0.25695,-0.25696 -0.52108,-1.15296 -0.61888,-1.29966"
     id="path6380"
     inkscape:connector-curvature="0"
     sodipodi:nodetypes="csccccssccsccccssscccssccsccscccsccscscccccccccscccccssccssccscscssscccsscscccccccscccsccccsscccsccsscc" />
  <path
     style="fill:none;stroke:#000000;stroke-width:0.99360901;stroke-linecap:round;stroke-linejoin:round;stroke-miterlimit:4;stroke-dasharray:none;stroke-opacity:1"
     d="m 201.91448,564.97483 c 1.78814,-0.66618 1.52341,0.1 2.41364,0.99021 0.31056,0.31055 1.58769,-0.28921 2.04232,-0.0619 0.32582,0.16292 0.22409,0.34787 0.43321,0.557 0.23476,0.23476 0.8756,-0.11461 1.0521,0.0619 0.21821,0.21822 0.52141,0.70709 0.74266,0.92834 0.8899,0.8899 2.79026,-0.98494 3.71329,-0.0619 0.16836,0.16833 0.5274,-0.24488 0.80455,0.30944 0.32111,0.64221 -0.37349,2.35392 -0.61888,2.59931 -0.0564,0.0564 0,0.46835 0,0.557 0,1.50099 0.21889,1.05665 0.80454,2.22796 0.13596,0.27192 0.0475,0.65206 0.18567,0.92833 0.18907,0.37816 -0.17053,1.65586 -0.37133,1.85665 -0.21388,0.21388 0.26638,0.84761 0.12377,0.99021 -0.1444,0.14441 -0.41257,0.16504 -0.55697,0.30945 -0.0899,0.0899 0.21597,0.27786 0.24754,0.30943 0.66188,0.66187 0.9902,0.49207 0.9902,1.67099 0,0.25805 0.12776,0.48715 0,0.74266 -0.39933,0.79867 0.41022,2.99364 -0.18566,3.58951 -0.47065,0.47066 -2.1205,-0.4788 -2.47552,-0.12378 -0.3103,0.31031 -0.56995,0.81752 -0.86645,1.114 -0.38218,0.38218 -2.40198,1.58398 -2.97064,1.29966 -0.10925,-0.0547 -0.61579,-0.31252 -0.68076,-0.24756 -0.0276,0.0276 0.54425,0.13652 0.61888,0.0619 0.008,-0.008 0.3277,-0.43322 0.37133,-0.43322 0.0948,0 0.39567,0.47633 0.557,0.557 0.71018,0.35509 1.3263,-1.45008 1.67099,-1.79477 0.0929,-0.0929 -0.031,-0.40228 0.0619,-0.49511 0.85228,-0.85227 -1.73633,-2.86978 -1.98043,-3.03252"
     id="path6382"
     inkscape:connector-curvature="0"
     sodipodi:nodetypes="cscscsccssccscsssccsscscssscc" />
  <path
     style="fill:none;stroke:#000000;stroke-width:0.99360901;stroke-linecap:round;stroke-linejoin:round;stroke-miterlimit:4;stroke-dasharray:none;stroke-opacity:1"
     d="m 216.39633,563.05629 c 0.14331,0.76235 -0.005,1.79981 -0.43321,2.22798 -0.0858,0.0859 -0.2809,0.005 -0.37133,0.18568 -0.0828,0.1657 0.20463,0.41424 0.0619,0.55697 -0.44834,0.44834 -1.33736,0.59471 -1.79477,1.05212 -0.33336,0.33336 -0.48037,0.78981 -0.80454,1.11398 -0.57406,0.57405 0.64683,2.50947 0.18565,2.97064 -0.38833,0.38834 -0.23198,1.34598 -0.61888,1.73287 -0.51628,0.51628 -0.4344,1.85785 -1.05209,2.47554 -0.55179,0.55179 -0.86452,1.17395 -1.29966,1.6091 -0.16698,0.16696 -0.48424,0.0873 -0.68076,0.18566 -1.78443,0.8922 -2.3671,-1.68632 -3.46574,-2.78497 -0.27851,-0.2785 -0.0929,-1.02117 -0.37133,-1.29967 -0.13306,-0.13305 -0.33481,-0.14913 -0.49511,-0.30943 -0.80706,-0.80706 0.53539,-1.64938 0.86644,-1.98043 0.14876,-0.14876 0.27253,-0.76765 0.12378,-0.61889 -0.0965,0.0965 -0.27346,0.60878 -0.37134,0.80456 -0.15106,0.30213 -0.56904,0.38337 -0.74266,0.55699 -0.2489,0.24892 1.36359,4.02479 1.60909,4.27029 0.33483,0.33482 0.93496,0.81119 1.29965,1.17589 0.18683,0.18681 -0.063,0.80247 0.0619,1.05208 0.13936,0.27871 0.3896,1.71461 0.24756,1.85666 -0.6005,0.60048 -2.34572,0.61285 -2.78497,1.0521 -0.3024,0.3024 -2.37681,1.25031 -2.84686,1.48532 -0.4688,0.23441 -4.73967,0.1057 -5.19863,-0.12378 -0.46407,-0.23205 -0.84832,0.24756 -1.17586,0.24756 -0.74416,0 -2.26859,-0.57829 -2.97064,0.12377 -0.48,0.48001 -0.9041,0.90409 -1.42342,1.42343 -0.0991,0.0991 0.0619,0.46461 0.0619,0.4951 0,0.86227 -0.18567,1.54825 -0.18567,2.41365 0,0.50755 -0.40524,0.34336 -0.68076,0.61888 -0.08,0.0799 -0.20794,1.71061 -0.0619,1.85665 0.16693,0.16694 0.64671,1.78853 0.80455,2.1042 0.10762,0.21525 -0.0525,0.5476 -0.12378,0.61888 -0.47141,0.47142 0.24706,2.97212 0.12378,3.34197"
     id="path6384"
     inkscape:connector-curvature="0"
     sodipodi:nodetypes="ccccsssssscccscsccsscscscsccssccccc" />
  <path
     style="fill:none;stroke:#000000;stroke-width:0.9898898px;stroke-linecap:round;stroke-linejoin:round;stroke-opacity:1"
     d="m 208.53652,579.33291 h 2.59931 c 0.0174,0 0.30944,-0.094 0.30944,-0.0619 0,0.0713 -0.77,0.0892 -1.05211,0.37133 -0.41608,0.41608 0.0749,1.76541 -0.80453,2.35175"
     id="path6386"
     inkscape:connector-curvature="0"
     sodipodi:nodetypes="csscc" />
  <path
     style="fill:none;stroke:#000000;stroke-width:0.9898898px;stroke-linecap:round;stroke-linejoin:round;stroke-opacity:1"
     d="m 158.65456,584.09831 c 0.87529,0.2815 1.77086,0.47121 2.41365,1.11398 0.6175,0.61749 0.78573,1.52839 1.36154,2.10421 0.33195,0.33196 1.05034,0.55523 1.36154,0.86644 0.7045,0.70449 1.77227,1.64849 2.59931,2.47553 0.28785,0.28785 0.87298,0.31597 1.17588,0.61888 0.36753,0.36753 2.30308,0.38454 3.09442,1.17588 0.0825,0.0825 0.35069,-0.0207 0.43322,0.0619 0.33436,0.33438 1.99167,-0.18003 2.47554,0.0619 0.30932,0.15467 0.72618,0.0537 0.99022,0.18567 0.2647,0.13236 0.44919,0.4492 0.61887,0.61888 0.14082,0.14082 1.71214,0.28887 1.91854,0.18566 0.94293,-0.47145 2.4509,-4.58793 3.40385,-4.27029"
     id="path6388"
     inkscape:connector-curvature="0"
     sodipodi:nodetypes="ccccscscccscc" />
  <path
     style="fill:none;stroke:#000000;stroke-width:0.99360901;stroke-linecap:round;stroke-linejoin:round;stroke-miterlimit:4;stroke-dasharray:none;stroke-opacity:1"
     d="m 173.13643,592.26756 c 0.77916,-0.96709 3.27704,-1.8536 4.02275,-2.59931 0.20636,-0.20636 2.09953,-0.0905 2.53742,-0.30944 0.70028,-0.35014 1.90215,0.28669 2.5993,-0.0619 0.57077,-0.28537 3.25904,-0.20672 3.6514,0.18567 0.77312,0.7731 2.19566,0.95788 2.22799,0.99022 0.87679,0.87679 1.55613,2.16607 3.21819,2.16607"
     id="path6390"
     inkscape:connector-curvature="0"
     sodipodi:nodetypes="cccccsc" />
  <path
     style="fill:none;stroke:#000000;stroke-width:0.99360901;stroke-linecap:round;stroke-linejoin:round;stroke-miterlimit:4;stroke-dasharray:none;stroke-opacity:1"
     d="m 186.62808,589.66825 c 2.56625,-0.45425 2.05948,-2.74024 3.40385,-4.08462 0.41289,-0.41289 1.34609,-0.44354 1.79477,-0.74266"
     id="path6392"
     inkscape:connector-curvature="0"
     sodipodi:nodetypes="csc" />
  <path
     style="fill:none;stroke:#000000;stroke-width:0.99360901;stroke-linecap:round;stroke-linejoin:round;stroke-miterlimit:4;stroke-dasharray:none;stroke-opacity:1"
     d="m 140.27374,569.12134 c 0.75592,0.64704 -0.2488,2.22673 0.30944,2.78497 2.33984,2.33985 5.71897,8.2602 8.41679,9.15947"
     id="path6394"
     inkscape:connector-curvature="0"
     sodipodi:nodetypes="csc" />
  <path
     style="fill:none;stroke:#000000;stroke-width:0.99360901;stroke-linecap:round;stroke-linejoin:round;stroke-miterlimit:4;stroke-dasharray:none;stroke-opacity:1"
     d="m 163.91507,549.50276 c -1.53524,-0.20595 -1.3002,0.55811 -1.73287,1.42343 -0.11658,0.23316 -0.5594,0.49751 -0.74267,0.68077 -0.18598,0.18598 0.0368,0.70591 -0.12378,0.86644 -0.52317,0.52317 -1.35576,0.73689 -1.79475,1.17589 -0.24629,0.24627 -2.51941,4.35019 -2.10423,4.76538 0.23967,0.23967 0.0811,0.94752 0.30945,1.17588 0.62582,0.62581 0.98114,1.90946 1.6091,2.53742 0.2775,0.27749 0.0531,0.91953 0.30945,1.17587 0.58616,0.58617 -0.6794,2.16747 -0.0619,2.78498 0.0802,0.0802 1.00419,0.85244 0.61888,1.23777 -0.2094,0.20939 -0.62286,0.43718 -0.86645,0.68077 -0.43806,0.43806 -0.29011,1.52789 -0.74265,1.98042 -0.21303,0.21304 -2.36524,5.24704 -1.73287,5.87939 0.4812,0.48122 0.44343,1.86687 0.99021,2.41364 0.43705,0.43705 0.64015,0.8877 0.99021,1.23777 0.1341,0.13409 0.48479,0.0517 0.6189,0.18566 0.38653,0.38655 0.11136,2.30227 -0.24757,2.6612 -0.3124,0.3124 -0.96369,0.56878 -1.29966,0.68078"
     id="path6396"
     inkscape:connector-curvature="0"
     sodipodi:nodetypes="ccsccscccccscscccsc" />
  <path
     style="fill:#000000;fill-opacity:1;stroke:#000000;stroke-width:0.49680451;stroke-linecap:round;stroke-linejoin:round;stroke-miterlimit:4;stroke-dasharray:none;stroke-opacity:1"
     d="m 138.46957,596.93955 4.73557,1.34397 -4.48038,-13.08554 0.1772,-0.53972 4.99366,14.22864 -4.73558,-1.34399 -4.98386,1.5095 0.29465,-0.89754 z"
     id="path14359-1-7-5-3-0-73-1-9-8-5-89-7"
     inkscape:connector-curvature="0"
     sodipodi:nodetypes="ccccccccc" />
  <path
     style="fill:none;stroke:#000000;stroke-width:0.49680451;stroke-linecap:round;stroke-linejoin:round;stroke-miterlimit:4;stroke-dasharray:none;stroke-opacity:1"
     d="m 143.20514,598.28352 -4.88331,-14.31141 -4.83613,14.47693 4.98387,-1.50949 z"
     id="path14359-1-7-5-3-0-73-1-9-8-5-89"
     inkscape:connector-curvature="0"
     sodipodi:nodetypes="ccccc" />
  <path
     style="fill:none;stroke:#000000;stroke-width:1.98721802;stroke-linecap:round;stroke-linejoin:round;stroke-miterlimit:4;stroke-dasharray:none;stroke-opacity:1"
     d="m 194.73352,580.15599 -0.002,17.83834 h 18.9938 l 0.002,-17.83834 z"
     id="path14359-1-7-5-3-0-73-1-9-8-5-2"
     inkscape:connector-curvature="0"
     sodipodi:nodetypes="ccccc" />
  <path
     style="fill:#000000;fill-opacity:1;stroke:#000000;stroke-width:0.99360901;stroke-linecap:round;stroke-linejoin:round;stroke-miterlimit:4;stroke-dasharray:none;stroke-opacity:1"
     d="m 203.70569,589.08097 c 1.14216,0.14634 1.34347,-1.37047 1.68946,-0.0253 0.11714,0.4554 -0.85032,0.30474 -1.61331,0.72495 -0.67324,0.37077 -1.13294,1.17199 -1.65535,1.13163 -0.59222,-0.0457 -0.46857,-0.91724 -0.88957,-1.22455 -0.50227,-0.36667 -1.49351,-0.19543 -1.4655,-0.50451 0.037,-0.40887 0.82635,-0.83661 1.96407,-0.85128 0.95413,-0.0122 1.37753,0.67319 1.9702,0.74911 z"
     id="path9104"
     inkscape:connector-curvature="0"
     sodipodi:nodetypes="csssssssc" />
  <path
     style="fill:none;stroke:#000000;stroke-width:0.5;stroke-linecap:butt;stroke-linejoin:round;stroke-miterlimit:4;stroke-dasharray:0.5, 2;stroke-dashoffset:0;stroke-opacity:1"
     d="m 5.4220721,229.33503 1.7805275,-0.11715 c 0.9951987,0.87764 1.8856413,-0.91705 2.6199875,-0.54987 0.3131069,0.15655 0.1868879,1.12295 0.3744319,1.31049 0.603409,0.60341 2.58383,0.0372 2.995423,-0.37443 0.684517,-0.68452 1.554889,1.1415 1.965736,0.93607 0.913464,-0.45674 1.529671,-1.23287 2.433776,-1.68492 1.005462,-0.50274 1.753193,1.75319 2.152952,2.15296 0.503521,0.50351 1.319681,0.47723 1.77852,0.93606 0.414186,0.41419 1.120553,-2.01391 1.965746,-1.5913 0.836182,0.41808 0.596513,1.62618 1.123285,2.15295 0.478751,0.47875 2.698016,-0.67183 3.182629,-0.18722 0.24569,0.2457 0.261121,0.87942 0.561638,1.02968 0.284808,0.14239 0.745127,0.27709 0.936079,0.46803 0.05654,0.0565 0.472858,0 0.561627,0 1.799396,0 0.643809,-1.86068 1.591315,-2.8082 0.114871,-0.11486 0.659309,0.37036 0.748853,0.28081 0.153572,-0.15357 0.428991,-0.72156 0.936069,-0.46802 0.187683,0.0939 1.06189,1.46548 1.684922,0.84246 0.106456,-0.10647 1.137017,-1.20315 1.497707,-0.84246 0.513606,0.5136 0.80223,1.7383 1.404099,2.34016 1.016114,1.01613 5.878896,0.96116 7.488543,1.4977 1.005035,0.92553 3.621555,-1.05877 4.305914,-0.37442 1.137761,1.13777 8.433167,0.37015 9.922318,-0.37442 0.299186,-0.1496 2.251369,-0.83764 2.620982,-0.46803 0.295887,0.29588 1.066907,0.41166 1.310491,0.65524 0.202815,0.20281 -0.202806,1.01408 0,1.21689 0.523761,0.52376 5.772858,0.87388 6.833297,1.4041 0.513448,0.25672 2.043556,-0.39023 2.433776,0 0.490823,0.49083 7.922243,0.15288 8.892651,1.12328 0.439702,0.43972 4.025081,-0.0937 4.212287,-0.28082 0.237035,-0.23702 1.095593,0.0607 1.404108,-0.0937 1.135427,-0.56771 4.512336,-1.39449 5.803621,-0.74885 0.403137,0.20157 0.810606,0.8106 1.123285,1.12328 0.308406,0.30843 1.034515,0.37928 1.31048,0.65525 0.380036,0.38003 1.784045,0.33588 2.24657,1.02967 2.396222,0.78784 5.496462,2.21296 8.237372,0.8425 0.45258,-0.2263 1.53354,0.43221 1.87214,0.0937 0.52328,-0.52328 2.09051,-1.95016 3.36985,-1.31049 0.81424,0.40712 2.14615,-0.38803 2.52738,0.37441 0.15873,0.31749 2.52658,2.43459 3.46344,1.49772 0.35239,-0.35239 5.68956,-1.89259 5.89722,-1.68492 0.40451,0.40449 -4.44622,2.57409 -4.77394,2.9018 -0.79511,0.79512 -1.56863,2.13029 -2.43377,2.99542 -0.61758,0.6176 -4.74155,0.34204 -5.5228,1.12328 -0.79769,0.7977 -2.46076,0.77584 -3.36984,1.68492 -0.92088,0.92088 -1.73496,2.10939 -2.9018,3.27624 -1.80828,1.80827 -0.18723,2.47467 -0.18723,4.1187 0,0.62504 -1.57137,1.16316 -1.49771,1.31049 0.4588,0.9176 2.23778,1.4129 0.93606,2.71461 -0.51491,0.51491 -5.847336,2.4836 -4.773911,3.55705 0.48364,0.48363 0.078,1.85653 0.561638,2.34017 0.747074,0.74707 2.514073,0.64195 3.463423,1.59131 1.29067,1.29067 -1.30922,3.64812 -1.40409,3.83787 -0.3396,0.67918 0.71273,2.09548 0.0937,2.71461 -0.59244,0.59244 -1.705919,0.58266 -2.340149,1.21688 -0.175213,0.17521 -3.510918,-1.7324 -3.650649,-1.87213 -0.399123,-0.39912 -0.453056,-1.28054 -0.748863,-1.87215 -0.884441,-1.76887 1.715744,-2.96459 0.842471,-3.83785 -0.202826,-0.20283 -0.826872,0.0156 -1.029677,-0.18723 -0.190048,-0.19005 0.03766,-0.80475 -0.187216,-1.02968 -0.801882,-0.80189 -1.398038,1.31353 -2.340168,0.84246 -0.956269,-0.47812 -1.241246,-1.14763 -1.965746,-1.87212 -0.231262,-0.23127 -0.869875,0.21462 -0.936059,0.28081 -3.361548,3.423 -0.678228,-1.45001 -1.123335,-2.3402 -0.270043,-1.17118 -0.551959,-2.86645 -1.600604,-3.39077 -0.353596,-0.1768 -0.671382,-0.80436 -0.697713,-0.69772 0.02782,-0.11986 -1.291662,-0.80862 -1.771138,-1.28809 -0.07561,-0.20066 -0.29999,-0.19265 -0.375693,-0.26836 -0.920638,-0.92064 -0.678824,-0.63461 -1.878477,-1.23442 -0.590711,-0.29537 -1.824684,0.26846 -2.254171,-0.16102 -0.991712,-0.99171 -0.290502,-3.34973 -1.288095,-4.34733 -0.891387,-0.89139 -2.130517,-0.95791 -3.327577,-1.55644 -0.817114,-0.40855 -0.874465,-1.96685 -1.771138,-2.41518 -0.377045,-0.18852 -1.321271,-0.24787 -1.610123,-0.53671 -0.318353,-0.31837 -0.972108,-0.43238 -1.395435,-0.64404 -1.078701,-0.53935 -1.955462,-1.19296 -3.810609,-1.20759 -0.587988,-0.005 -1.693388,-1.35656 -2.039492,-1.52963 -1.268084,-0.63404 -2.559726,1.57372 -3.90697,0.9001 -0.853024,-0.42651 -1.754018,-1.07342 -2.951883,-1.07342 -0.768925,0 -2.631465,1.55565 -3.166573,1.2881 -0.347306,-0.17365 -1.205536,-0.5615 -1.449109,-0.80507 -0.01808,-0.0181 -1.87644,0.24508 -2.227333,0.21469 0.05157,0.008 -0.512156,0.10734 -0.939239,0.10734 -0.524049,0 -0.953964,0.22678 -1.395435,-0.21468 -0.618998,-0.619 -1.585273,-1.26324 -2.200486,-1.87847 -0.27211,-0.2721 -1.288174,-0.75469 -1.674797,-0.90011 -1.031396,-0.006 -1.453452,0.29738 -2.146832,0.64407 -0.255536,0.12777 -1.027103,-0.004 -1.23442,-0.10736 -1.093765,-0.54688 -2.425856,0.93376 -2.737194,1.55646 -0.269407,0.5388 -0.07333,1.30782 -0.483053,1.71745 -0.513477,0.5135 -1.409633,0.87295 -1.932142,1.39545 -0.511132,0.51113 -0.498017,1.51777 -0.912401,1.93214 -0.117336,0.11735 -0.260704,3.28156 -0.590383,2.9519 -0.765884,-0.76589 -1.484293,-2.4319 -1.985817,-3.43493 -0.118577,-0.23716 -0.122154,-0.65886 -0.322019,-0.85873 -0.282841,-0.28284 -0.865344,0.40584 -1.019741,0.48304 -0.321591,0.16078 -0.858051,0.0534 -1.073415,0.16101 -0.378059,0.18903 -1.110706,0.68134 -1.4491,1.01974 -0.469232,0.46923 -0.483549,1.2886 -0.858746,1.6638 -0.53174,0.53174 -1.320526,-2.11439 -1.985797,-1.44911 -0.249406,0.24939 -0.509503,3.67606 -0.644068,3.81062 -0.359408,0.35941 -1.435953,-1.86534 -1.610113,-2.03949 -0.877228,-0.87723 -0.860883,-0.88665 -1.985807,-1.44911 -0.448645,-0.22432 -1.538485,0.55467 -1.717473,0.37569 -0.431286,-0.4313 -0.162167,-4.77785 -0.322019,-4.9377 -0.511599,-0.5116 -2.138753,-0.73525 -2.522515,-1.50278 -0.359796,-0.71957 0.288743,-1.78401 -0.05366,-2.46884 -0.269636,-0.53923 -0.560922,-0.74615 -0.805072,-1.23443 -0.11505,-0.2301 0.868713,-2.99559 0.21469,-3.64961 -0.201614,-0.20161 -1.557552,-1.58383 -1.824803,-1.71746 -0.06369,-0.0318 -1.191546,1.16996 -1.717473,0.64405 -0.491061,-0.49108 -1.234509,-0.75143 -1.985807,-1.12709 -0.1462,-0.073 -0.3896339,0.02 -0.5367079,-0.0537 -0.9763398,-0.48817 -3.22596,-1.17886 -4.1863129,-0.85874"
     id="path14359-1-7-5-3-0-73-1-9-8-5-7"
     inkscape:connector-curvature="0"
     sodipodi:nodetypes="ccccccccccccccsccsccccccccccccccccccccscsssscssscscccscscsccccccccccccccccccsccscccscccccccsssccccssssccsscccscsccc" />
  <path
     style="fill:none;stroke:#000000;stroke-width:0.5;stroke-linecap:butt;stroke-linejoin:miter;stroke-miterlimit:4;stroke-dasharray:0.5, 2;stroke-dashoffset:0;stroke-opacity:1"
     d="m 84.743654,243.8445 c -0.288753,-0.70903 -2.481449,0.0948 -1.878478,0.69771 1.201214,1.20123 2.850754,1.56889 3.70327,3.27391 0.85826,1.71652 -0.420266,4.2491 0.966067,5.63542 0.16938,0.16939 0.8302,0.36142 1.073415,0.48304 1.974182,0.98709 3.935974,2.5672 6.27948,1.39544 0.899624,-0.44982 1.049887,0.74479 1.878468,-0.9124 0.07959,-0.15913 0.838725,-2.72356 0.751396,-2.89821 -0.181184,-0.36237 -1.752994,-0.76954 -1.395444,-1.12708 0.187196,-0.18721 0.808808,0.10358 1.019741,-0.10735 0.400305,-0.4003 1.02458,-1.71264 0.322019,-2.41519 -1.295199,-1.2952 -1.037497,1.80704 -1.771128,1.07342 -0.473823,-0.47383 -0.534761,-1.12514 -0.858727,-1.44911 -0.321701,-0.32169 -1.289118,-0.26936 -1.663788,-0.64404 -0.398576,-0.39858 -1.040617,-0.735 -1.610124,-1.01975 -0.23005,-0.11503 -0.901829,0.0643 -1.073415,-0.10734 -0.240652,-0.24065 -3.017889,-1.03208 -3.756945,-1.77113 -0.541477,-0.54148 -1.407189,0.18196 -1.985807,-0.10734 z"
     id="path10585"
     inkscape:connector-curvature="0"
     sodipodi:nodetypes="ccccssccscscsscscc" />
  <path
     style="fill:none;stroke:#000000;stroke-width:0.5;stroke-linecap:butt;stroke-linejoin:miter;stroke-miterlimit:4;stroke-dasharray:0.5, 2;stroke-dashoffset:0;stroke-opacity:1"
     d="m 155.84862,227.39127 c -0.63608,-0.14973 -1.0424,-1.03108 -1.55646,-1.28808 -1.82994,-0.91499 -2.32091,2.69659 -2.95188,3.32757 -0.27091,0.27089 -0.77996,0.0822 -1.07342,0.3757 -0.7562,0.75619 -1.37722,1.22531 -2.36151,1.71746 -0.21205,0.10602 -0.40614,0.56715 -0.53671,0.69771 -0.82756,0.82757 -2.29663,-2.68353 -3.16656,-2.68353 -1.04525,0 -2.77458,-0.54485 -3.75694,-0.0537 -0.39056,0.19527 -0.80506,0.44726 -1.23443,0.59038 -0.34149,0.11383 -0.80708,0.32605 -0.96608,0.64405 -0.54425,1.08849 0.0871,2.22074 -0.80505,3.11289 -0.43415,0.43415 -1.32947,0.41706 -1.71746,0.80507 -0.0497,0.0497 -0.64325,0.5375 -0.69773,0.48303 -0.34155,-0.34155 -1.46553,-1.00332 -2.03949,-0.42937 -0.29793,0.29794 -0.0135,0.83227 -0.21467,1.23443 -0.21186,0.42372 -0.78078,0.24408 -1.07342,0.5367 -0.63317,0.63319 -0.93105,1.53895 -1.8248,1.98583 -1.02271,0.51134 -3.48302,3.33316 -2.20049,4.61567 0.65497,0.65497 2.33457,-0.12081 3.22024,0.32203 0.82046,0.41023 1.5595,1.0481 2.36151,1.4491 0.80785,0.40393 1.69785,0.58058 2.46885,0.96607 0.53575,0.26789 1.21192,-0.44061 1.66378,-0.21467 1.23834,0.61916 2.22568,0.77987 3.27392,-0.26836 0.71327,-0.71328 1.18538,2.3592 1.50278,2.2005 0.12706,-0.0636 0.30055,-0.40788 0.42936,-0.5367 1.32048,-1.32048 -0.47508,-2.58416 0,-3.05925 0.47745,-0.47744 1.51149,-0.43806 1.98582,-0.9124 0.36574,-0.36574 0.9165,-0.99495 1.39543,-1.23441 0.25896,-0.12949 0.60371,-0.0872 0.85873,-0.21469 0.20605,-0.10302 0.45251,-0.46778 0.69772,-0.59037 0.39546,-0.19774 0.80506,1.02032 0.80506,1.23442 0,0.47687 0.3461,0.61447 0.64405,0.9124 0.25598,0.25599 0.53449,0.32092 0.85872,0.48304 0.43872,0.21935 0.78763,1.10965 1.07342,1.39544 0.4457,0.44571 0.0621,1.40382 0.48303,1.82479 0.23304,0.23306 0.37569,0.26837 0.80507,0.26837 0.29138,0 1.44394,-1.12193 1.61012,-1.28811 0.13232,-0.13232 2.74164,0.0492 3.54227,-0.75138 0.64313,-0.64312 0.36591,-2.9421 0.69773,-3.27391 0.52865,-0.52866 2.3816,-1.86843 3.32757,-1.39544 1.44202,0.721 1.4796,2.01628 2.4152,2.95189 0.22394,0.22393 0.1834,0.77376 0.37569,0.96607 0.14743,0.14741 0.55062,0.0808 0.7514,0.21468 0.75073,-0.0585 5.05666,0.68608 5.36706,0.37567 0.22336,-0.22334 0.37316,-0.32074 0.69773,-0.48303 0.78012,-0.39006 1.30197,0.14713 2.20049,-0.75139 0.50497,-0.50496 2.92579,0.88483 3.70328,0.10734 0.48506,-0.48505 -1.85142,-0.939 -1.87847,-0.96607 -0.23137,-0.23137 -0.0835,-0.73948 -0.42937,-0.9124 -1.13476,-0.56739 -0.86897,-0.33227 -1.61011,-1.07341 -0.6632,-0.66319 -0.008,-0.23095 -0.37571,-0.96608 -0.46112,-0.92226 -2.26513,-1.48086 -1.44911,-3.1129 0.58107,-1.16212 1.68685,0.82811 2.20051,1.34177 0.30884,0.30884 0.50313,-0.4965 0.37568,-0.75139 -0.81199,-1.62399 -3.48291,-2.74854 -2.30783,-5.09872 0.27966,-0.55934 -0.0939,-1.30163 0.37569,-1.77113 0.3642,-0.36419 0.55838,-0.69772 1.23443,-0.69772 0.36876,0 1.1432,0.83996 1.61012,1.07343 0.64085,0.32041 1.41472,0.22431 2.0395,0.53669 1.03181,0.51592 1.75252,-1.13638 2.73719,-0.64404 0.38201,0.191 0.56276,0.65273 1.01975,0.80506 0.27854,0.0929 1.44074,0.26416 1.55644,0.32202 0.86012,0.43005 2.39961,1.4647 3.32759,0.5367 0.33335,-0.33334 1.08181,-0.71452 1.39544,-1.34176 0.38224,-0.7645 0.3912,-1.6948 0.75138,-2.41518 0.24918,-0.49834 -0.37793,-1.44688 -0.0537,-1.77114 0.46788,-0.46788 1.50531,0.48052 1.87848,0.10734 0.19095,-0.19095 0.28566,-0.50034 0.42937,-0.64405 0.38918,-0.38918 -1.90486,-1.23533 -1.34177,-2.36151 0.32953,-0.65905 1.11731,0.3318 1.50276,-0.0537 0.42675,-0.42674 1.23763,-1.02134 1.77115,-1.28811 0.20423,-0.10211 0.63398,-0.0974 0.80506,-0.26834 0.60883,-0.60881 0.78925,-1.14913 1.23442,-2.03949 0.15919,-0.31837 -0.10533,-0.86275 0.0537,-1.18075 0.32377,-0.64755 1.73672,-0.62685 2.30783,-0.9124 0.6019,-0.30096 1.32047,-0.78377 1.71745,-1.18076 0.45361,-0.45361 2.09464,0.26688 2.20051,0.16102 0.34574,-0.34575 0.80902,-0.2147 1.2881,-0.2147 0.43657,0.16692 0.69356,0.40044 0.96607,0.53669 2.20856,1.10429 -0.32201,-1.5002 -0.32201,-1.55645 0,-0.37842 0.39389,-0.4121 0.53669,-0.69771 0.18872,-0.37741 -0.23728,-2.27678 -0.48303,-2.52254 -1.4804,-1.48038 -2.54883,0.67144 -3.22025,0 -0.24342,-0.24341 -0.60669,-0.392 -0.85872,-0.64403 -0.4583,-0.4583 -0.58372,-1.92551 -1.01974,-2.36151 -0.26943,-0.26944 -1.06628,-0.23796 -1.44911,-0.42936 -0.79922,-0.39962 -2.46564,1.55964 -3.38124,0.64403 -0.15459,-0.15456 -0.34464,-0.19913 -0.59038,-0.32201 -0.10262,-0.0513 -0.0542,-0.21525 -0.10735,-0.26836 -0.6186,-0.6186 0.34347,-1.2022 0.80506,-1.66379 0.62603,-0.62602 0.6705,-1.00613 1.55645,-1.44911 0.75335,-0.37668 1.98478,-0.15998 2.52253,-0.69772 0.57302,-0.57302 0.71606,-1.64682 1.0734,-2.36151 0.19086,-0.3817 0.83525,-0.0838 1.12708,-0.37569 0.36455,-0.36455 0.79503,-0.55852 1.2881,-0.80506 0.30932,-0.15467 0.92026,0.0537 1.23443,0.0537 1.08734,0 2.70708,-0.34996 3.75695,0 1.12979,0.3766 2.72709,0.80505 3.91794,0.80505 0.35846,0 1.65954,0.16955 1.82481,-0.161 0.29946,-0.59892 -0.56334,-1.42206 -0.9124,-1.77114 -0.42031,-0.42032 -0.0739,-1.63036 -0.53671,-2.09316 -0.38281,-0.3828 -0.86366,-0.97099 -1.23443,-1.34176 -0.18645,-0.18646 -2.92558,1.40914 -3.22022,1.55645 -1.03781,0.51889 -1.97933,1.17426 -2.62986,1.82481 -0.37368,0.37365 -1.1015,0.0818 -1.44911,0.42935 -0.3209,0.32091 -1.33871,-0.37876 -1.6638,-0.0536 -0.92006,0.92007 -5.58581,0.16304 -7.19186,0.96608 -0.39593,0.19795 -1.79598,2.12197 -2.41518,1.50277 -0.71405,-0.71403 -1.94248,-1.40577 -2.5762,-2.03948 -0.52632,-0.52632 -2.00349,1.05573 -2.62986,0.42936 -0.38342,-0.38342 -2.41074,-0.55005 -2.57619,-0.0536 -0.43334,0.41409 -0.80649,0.32344 -1.18076,0.69769 -0.35031,0.35032 -0.94036,0.81905 -1.44911,1.07341 -0.76018,0.38009 -3.99153,-2.07325 -5.31339,-0.75138 -0.1203,0.12029 -0.0191,0.44849 -0.10734,0.53671 -0.8795,0.87949 0.245,3.51194 -0.96608,4.72302 -0.12537,0.12535 -0.34207,0.81864 -0.21468,1.07341 0.41054,0.82109 2.21856,3.77451 1.6638,4.88404 -0.16085,0.32167 -1.19613,2.75256 -1.23444,2.79086 -1.25027,1.25029 -4.78264,2.26014 -6.01111,3.4886 -0.48498,0.48499 -0.25768,1.54578 -0.80505,2.09316 -0.82142,0.82141 -1.86586,1.9732 -2.62987,2.7372 -0.59909,0.59908 -1.43855,0.95552 -2.0395,1.55645 -0.0899,0.0899 -0.40048,0.0537 -0.53671,0.0537 -0.59945,0 -1.73132,0.3956 -2.2005,0.16101 -0.10595,-0.0531 -0.68507,-0.33469 -0.80507,-0.21469 -0.54471,0.54473 -0.99533,0.42937 -1.71746,0.42937 z"
     id="path10587"
     inkscape:connector-curvature="0"
     sodipodi:nodetypes="csccsssccccsccccscccccsccsccccsscccsscsccccccsscccccscccsccccsccccccccccccccsccscsssccccccscsccscscccscccccssscsccccccscscsscccc" />
  <path
     style="fill:none;stroke:#000000;stroke-width:1;stroke-linecap:round;stroke-linejoin:round;stroke-miterlimit:4;stroke-dasharray:none;stroke-opacity:1"
     d="m 4.7143173,401.11687 c 1.1852364,-0.34377 1.196345,-1.85869 1.8398061,-2.50214 0.1717056,-0.17171 -0.024542,-0.71139 0.1471833,-0.88311 0.6116558,-0.61164 1.0625755,-1.02127 1.471843,-1.8398 0.3316965,-0.6634 -0.1619285,-2.26661 0.2207799,-2.64931 0.9153126,-0.91532 3.0110824,-1.17129 3.8267854,-1.987 0.445455,-0.44545 1.94813,-1.54543 2.428549,-1.54543 1.597545,0 3.099464,-0.6199 4.783483,-0.9567 0.605833,-0.12117 1.284825,-0.0735 2.565597,0.0582 1.280792,0.13177 1.398833,0.0154 3.910528,0.0154 0.466082,0 -0.93288,0.0258 -1.398257,0 -0.05475,-0.003 0.09241,-0.0735 0.147184,-0.0735 h 1.324659 c 0.959926,0 2.083896,0.0735 3.090879,0.0735 h -2.281366 c -0.29539,0 0.58772,0.0735 0.88311,0.0735 0.699143,0 1.379358,0.0735 2.060576,0.0735 1.339574,0 2.617604,-0.4763 4.72174,-0.9808 1.325474,-0.31781 3.467049,-0.0253 4.622885,-1.58631 0.601302,-0.51776 0.619863,-1.40908 0.912898,-2.01735 0.244269,-0.50705 0.791539,-0.72757 0.976131,-1.21101 0.255815,-0.67004 -0.455033,-1.25291 -0.339595,-1.87128 0.296145,-1.5864 1.101465,-2.99565 1.101465,-3.6664 0,-0.43496 0.450194,-2.71427 0.147193,-3.01728 -1.731215,-1.73121 -0.04948,-4.07163 1.177476,-5.29864 0.554653,-0.55465 0.968491,-1.47577 1.619027,-1.69262 0.320727,-0.90352 2.317016,-0.31543 2.739837,-0.73825 0.432836,-0.43282 0.950208,-0.81537 1.732685,-0.81537 0.504495,0 1.838246,0.45498 2.242258,0.0511 0.55959,-0.55957 1.290717,-0.98496 1.834599,-1.52883 0.09062,-0.0906 0.964824,-0.22761 1.223053,-0.35673 0.334171,-0.16708 1.983125,-0.10408 2.29323,0.0511 0.323956,0.16197 0.590711,0.48879 0.866338,0.7644 0.258139,0.25814 1.143803,-0.56056 1.477854,-0.56056 0.17566,0 0.599603,-0.0196 0.764413,-0.10192 0.191975,-0.0961 0.378684,-0.32772 0.509622,-0.45864 0.04829,-0.0483 2.021826,-0.93448 2.29323,-1.07018 0.787554,-0.39378 1.749338,-0.22051 2.446106,-0.91729 0.927882,-0.92787 1.019195,-2.29327 0,-3.31246 -0.230596,-0.23059 -0.353516,-0.76121 -0.560564,-0.96825 -0.29538,-0.29539 -0.408493,-1.5806 -0.611517,-1.78362 -0.203004,-0.20301 -0.190743,-0.89259 -0.05107,-1.17211 0.07035,-0.14081 0.047,-0.55666 0.152877,-0.66249 0.519279,-0.51928 1.077996,-1.02704 1.681703,-1.63074 0.40565,-0.40565 0.738142,0.53587 0.91729,0.35672 0.223045,-0.22304 1.854382,-1.26413 2.242287,-1.07017 0.274812,0.1374 0.955951,0.54828 1.121129,0.71345 0.227486,0.22749 2.493452,0.35308 3.159567,1.01921 0.06637,0.0664 1.651994,0 1.83459,0 0.07293,0 0.412189,0.0464 0.45864,0 0.258557,-0.25854 0.893224,-0.1288 1.172101,-0.40769 0.07452,-0.0745 -0.06796,-0.84926 0.509622,-1.42689 0.484513,-0.48453 0.892479,1.24785 1.37594,0.76441 0.245182,-0.24518 0.485318,-0.83157 0.968242,-0.50961 0.640838,0.005 1.188754,-0.22053 1.477864,-0.50964 0.05097,-0.0511 -0.05107,-0.25479 0,-0.30577 0.144381,-0.14439 0.670984,0.0935 0.815375,-0.0511 0.191191,-0.19117 0.301789,-0.60754 0.509603,-0.81537 0.486898,-0.48688 -1.373019,-1.1182 -1.477855,-1.22306 -0.278161,-0.27816 -0.139055,-0.85249 -0.407687,-1.12115 -0.274823,-0.27482 -0.690231,-0.48637 -0.968263,-0.76439 -0.05097,-0.051 -0.378177,-0.69201 -0.254791,-0.81537 0.350248,-0.35026 0.84737,-1.03226 1.070167,-1.47787 0.153393,-0.30679 0.06757,-0.64489 0.203849,-0.91729 0.10871,-0.21744 -0.108721,-0.59794 0,-0.81537 0.161739,-0.32348 0.707479,-0.45268 0.968252,-0.71345 0.101914,-0.10193 0.101914,-0.30577 0.203849,-0.40769 0.178005,-0.17802 0.558974,-0.0494 0.713441,-0.20385 0.258567,-0.25856 0.362637,-0.71936 0.662489,-1.01921 0.799974,-0.79997 1.871671,-1.75587 2.395154,-2.80284 0.222667,-0.4453 -0.800015,-1.30963 -0.91728,-1.42691 -7.85e-4,-7.7e-4 -0.313365,-1.52122 -0.305774,-1.52883 0.513955,-0.51393 1.022176,-2.52402 1.477865,-2.75189 0.267281,-0.13362 2.115711,0.78908 3.108605,-0.20382 0.54565,-0.54565 1.853736,-2.73599 2.395154,-3.0067 0.46802,-0.234 0.948628,0.27444 1.426912,-0.20383 0.327662,-0.32768 0.776724,-0.82769 1.121129,-1.1721 0.235098,-0.23509 0.282324,-0.90558 0.611526,-1.07018 0.59078,-0.29539 1.617834,1.23598 2.29324,0.56057 0.43376,-0.43376 0.515872,-1.43316 0.815375,-1.73267 0.263823,-0.26383 0.990688,-0.0225 1.274016,-0.30576 0.177319,-0.17733 1.352156,-1.79723 1.528806,-1.88556 0.70167,-0.35083 0.71245,0.51061 1.73266,-0.5096 0.64011,-0.6401 0.46595,-2.144 1.37596,-2.599 0.81306,-0.40653 5.21435,1.39837 6.06433,1.68171 0.55183,0.1722 1.82591,-0.0933 2.08939,-0.35672 0.19127,-0.19126 0.81008,0.25215 0.9173,0.30578 0.37225,0.18612 1.06789,-0.10422 1.32499,0.15287 0.25692,0.25695 0.15964,0.81877 0.56056,1.01922 0.93377,0.4669 2.0937,0.31008 2.8538,1.07018 0.38823,0.38822 1.64666,-0.18793 2.03843,0.20383 0.21588,0.2159 0.25995,0.4638 0.45864,0.6625 0.11839,0.11838 2.91399,0.50039 3.05766,0.35673 0.21913,-0.21913 0.5539,-0.50294 0.76441,-0.71345 0.23097,-0.23099 -0.0708,-0.99937 0.15289,-1.22307 0.62421,-0.6242 1.25967,-1.01204 2.0894,-1.42691 0.77675,-0.38837 1.74834,0.85066 1.93649,0.66251 0.5966,-0.5966 2.69467,-0.8091 3.00669,-1.12115 0.58613,-0.58613 1.20672,-1.1048 1.73267,-1.63074 0.30269,-0.3027 0.11524,-0.84198 0.30576,-1.22306 0.71515,-1.43028 -0.86499,-2.69959 -1.57978,-3.41437 -0.16759,-0.16759 -0.12818,-0.53585 -0.30577,-0.71345 -0.26651,-0.2665 -0.98729,-0.34077 -1.32498,-0.5096 -0.56937,-0.2847 -1.04627,-0.99531 -1.37593,-1.32499 -0.55125,-0.55125 -1.17066,-0.81392 -1.73267,-1.37594 -1.25796,-1.25796 -2.03843,-3.36985 -2.03843,-5.55472 0,-2.28251 0.66581,-5.25565 1.57978,-7.08355 0.18333,-0.36666 1.07018,-2.39406 1.07018,-2.49709 0,-0.22305 0.61153,-1.46623 0.61153,-1.12113 0.19803,-1.08189 0.31289,-2.3075 0.81536,-3.31245 0.19848,-0.39694 0.65167,-0.6918 0.86633,-1.12114 0.1426,-0.2852 0.34957,-0.76083 0.6625,-0.91729 0.69082,-0.34541 1.55316,-0.58491 2.08938,-1.12114 0.35446,-0.35445 3.4523,-0.67553 3.72015,-0.40769 0.46304,0.46305 -0.003,1.77718 0.15289,2.08939 0.20888,0.41776 2.51498,0.44074 2.90475,0.051 0.5224,-0.5224 0.25961,-1.43169 0.76442,-1.93651 0.15341,-0.15341 0.47881,-0.0356 0.71345,-0.15288 0.48434,-0.24218 0.84829,-0.59349 1.12114,-0.86634 0.0667,-0.0667 1.31675,-1.48608 1.1721,-1.63075 -1.35527,-1.35526 -2.75188,1.46769 -2.75188,-2.34419 0,-0.20382 -0.27271,-0.95037 -0.10192,-1.12113 0.19687,-0.19689 0.22498,-0.58172 0.40767,-0.76442 0.65288,-0.65288 2.41167,-0.47515 3.00669,-1.07017 0.35809,-0.35808 0.21134,-1.12864 0.56057,-1.47787 0.0379,-0.0378 2.22306,-0.18462 2.80284,-0.76442 0.63208,-0.63206 1.0266,-1.84197 1.47785,-2.29323 0.25174,-0.25172 0.0171,-0.98538 0.25482,-1.22305 0.51074,-0.51075 -0.48201,-1.24642 -0.56059,-1.32498 -0.6134,-0.61343 -1.33712,0.52901 -1.78361,0.30576 -0.66602,-0.33301 -1.85088,-2.1424 -1.63074,-2.80284 -0.55008,-1.37033 0.133,-2.33427 1.1721,-2.85382 0.13356,-0.0668 0.56726,-0.15958 0.66248,-0.2548 1.05083,-1.05086 2.89746,-1.19393 4.17878,-1.83459 0.3684,-0.18421 1.4944,0.4421 1.83458,0.10191 0.2678,-0.2678 0.82857,-0.53598 1.07018,-1.01921 0.40193,-0.80383 1.05456,-1.81895 1.63075,-2.39517 0.68433,-0.68431 1.76841,-1.34283 2.64998,-1.78362 1.03464,-0.51732 3.63093,0.19114 4.12783,-0.30577 0.2571,-0.2571 0.22533,-1.1064 0.56057,-1.27401 1.45096,-0.72549 2.85476,-1.32546 4.38263,-2.08939 0.9414,-0.4707 2.47155,1.00649 3.2615,0.61152 0.65746,-0.32872 1.53278,-0.30973 2.03843,-0.81536 0.31928,-0.31929 0.45222,-1.29316 0.96825,-1.12115 0.99935,-0.36552 3.84598,1.30106 4.43359,0.71346 0.51857,-0.51856 0.76184,-0.0968 1.22305,-1.01921 0.26705,-0.53408 -0.17688,-2.06537 0.25481,-2.49709 0.36586,-0.36584 0.97303,-0.82014 1.4269,-1.27402 0.38462,-0.38461 0.30716,-0.91868 0.71345,-1.32498 0.13775,-0.13774 1.96158,-0.49665 2.29324,-0.66249 0.46271,-0.23135 1.94387,-0.10192 2.44612,-0.10192 0.0893,0 0.50374,-0.0568 0.56056,0 0.67085,0.67084 1.89849,1.21013 2.70092,0.40769 0.19264,-0.19265 0.52548,-0.13365 0.6625,-0.40769 0.30626,-0.61251 0.43429,-1.12338 0.76441,-1.78363 0.16068,-0.32133 -0.31082,-1.16703 -0.051,-1.4269 0.52239,-0.52239 1.50181,-3.60318 1.78363,-4.0259 0.54028,-1.58465 1.66467,-2.6668 2.34421,-4.0259 0.17579,-0.35158 0.26469,-0.72334 0.5096,-0.96826 0.27556,-0.27555 1.20813,-0.73454 1.47788,-1.27402 0.28324,-0.56649 1.09885,-1.26287 1.63073,-1.52882 0.32195,-0.16097 1.06217,0.1609 1.32498,-0.10193 0.64478,-0.64477 2.05859,-0.82545 2.95573,-1.27401 0.79507,-0.39754 4.00251,-2.75188 4.43359,-2.75188 2.13552,-0.48732 6.96195,-1.02905 8.91812,-0.051 0.65114,0.32557 2.03812,-0.35703 2.54803,0.15288 0.64654,0.64653 4.85437,1.01268 5.96242,0.45864 0.37351,-0.18675 0.99714,0.13846 1.37595,-0.051 0.52657,-0.26328 0.6905,-0.60005 1.12112,-0.81537 0.26237,-0.13117 0.604,0.18214 0.86635,0.0511 1.68941,-0.84471 1.09758,-0.16648 2.05903,-2.08939 0.3676,-0.73522 0.51024,-2.9551 0,-3.46533 -0.37776,-0.37779 -1.05763,-0.49429 -1.34559,-1.07018 -0.79804,-1.59608 -0.0841,-5.97393 1.56317,-6.53672"
     id="path10589"
     inkscape:connector-curvature="0"
     sodipodi:nodetypes="ccccccsccscsscsssscssssccccscsccsscccssssccsscssscccscscccccccccccccscscccccscsccscsccssccscscccscsscsccssssccccccccscssssssscccccccccsccsscccscccccscsssccccccccccccscccccccc" />
  <path
     style="fill:none;stroke:#000000;stroke-width:1;stroke-linecap:round;stroke-linejoin:round;stroke-miterlimit:4;stroke-dasharray:none;stroke-opacity:1"
     d="m 229.40067,178.98794 c -1.48783,-0.56459 -3.53599,-0.16852 -4.79031,0.45864 -0.39967,0.19983 -1.1496,0.0835 -1.63076,0.20385 -0.75707,0.18926 -1.47144,0.37156 -2.19132,0.61153 -0.92167,0.30722 -4.07717,0.20353 -4.63743,-0.35673 -0.24555,-0.24555 -2.34099,0.0527 -2.75187,-0.15287 -0.1627,-0.0814 -0.88385,-0.14413 -1.07018,-0.051 -0.41976,0.20987 -1.42637,0.35618 -1.78363,0.71346 -0.1766,0.17659 -0.5053,0.25049 -0.71345,0.45864 -0.64262,0.64262 -1.39294,1.39295 -2.08941,2.08939 -0.22566,0.22567 -0.66842,0.10786 -0.86631,0.30576 l -0.76441,0.76441 c -0.1351,0.1351 -2.58997,0.75538 -3.21053,1.37594 -0.21437,0.21438 -0.84424,0.11636 -1.12113,0.25481 -0.6825,0.34124 -7.1625,-0.065 -7.74604,-0.35673 -0.77446,-0.38723 -2.94189,-0.93888 -3.7711,-0.66249 -1.53714,-0.008 -3.03128,0.0386 -4.33166,-0.61151 -0.96441,-0.4822 -1.64679,-0.89983 -2.599,-1.37594 -0.57112,-0.28555 -1.21173,-0.14911 -1.83459,-0.35672 -2.14949,-0.71649 -6.37844,-0.78572 -8.35757,0.20385 -2.2462,1.1231 -3.40277,2.99508 -4.89223,4.48454 -0.56376,0.56376 -4.71982,1.13091 -5.65665,0.66249 -0.43419,-0.21709 -0.79199,-0.67628 -1.27402,-0.91729 -0.93795,-0.46896 -2.66921,0.49037 -3.05766,0.10192 -0.0808,-0.0808 1.32008,-1.16719 1.52883,-1.37595 0.29609,-0.29608 0.56469,-0.36084 0.81537,-0.61152 0.0751,-0.0751 5.52368,0.4077 6.16626,0.4077 0.5304,0 1.009,-0.19875 1.42691,-0.4077 2.07159,-1.0358 -0.0734,-2.62748 0.76441,-3.46533 1.11488,-1.11487 2.54591,-0.66144 3.97494,-1.37594 0.46796,-0.23399 0.53808,-0.94576 0.81538,-1.22306 0.32058,-0.3206 2.67045,-0.52485 3.21052,-0.25482 0.65859,0.32931 1.698,0.32207 2.19131,0.81538 0.0337,0.0337 5.42498,-0.47256 6.16625,-0.10192 1.81771,0.90886 3.29571,1.87717 5.14705,2.80285 1.33886,0.66943 7.89012,1.20198 9.37678,0.45865 0.25976,-0.1299 0.83739,0.0266 1.07017,-0.0511 1.88068,0.31479 2.69921,-0.10017 3.72014,-1.12111 0.38624,-0.38624 0.41906,-1.39871 0.66249,-1.88556 0.22449,-0.44898 0.5409,-0.77602 0.76441,-1.22305 0.12827,-0.25655 0.14891,-0.5566 0.30575,-0.71345 0.29772,-0.29773 0.93967,-0.17526 1.27403,-0.50961 0.15663,-0.15663 0.11007,-0.6788 0.20384,-0.86633 0.24236,-0.48473 -0.73787,-2.26671 -0.96825,-2.49709 -0.32452,-0.3245 0.0449,-1.18412 -0.15289,-1.57978 -0.0573,-0.11455 -0.15379,-0.81353 -0.10191,-0.91729 0.14542,-0.29087 0.5051,-0.40319 0.66247,-0.56057 0.54027,-0.54027 2.23737,-2.98366 3.0067,-2.59899 0.7236,0.36179 0.0123,5.37566 0.66248,6.67585 0.20528,0.41056 1.72177,0.0455 2.14037,0.25481 0.46688,0.23346 0.94028,0.29178 1.37593,0.5096 0.37492,0.18747 1.42285,-0.36076 1.73267,-0.051 0.44277,0.44278 2.92225,1.05269 3.56725,0.40767 0.12936,-0.12936 0.59266,-0.0321 0.71345,-0.15286 0.34718,-0.34719 0.87002,-1.07142 1.01921,-1.12115"
     id="path10591"
     inkscape:connector-curvature="0"
     sodipodi:nodetypes="csccccccscssccccccccscssssscccccsccscsccccscccscccccccc" />
  <path
     style="fill:none;stroke:#000000;stroke-width:1;stroke-linecap:round;stroke-linejoin:round;stroke-miterlimit:4;stroke-dasharray:none;stroke-opacity:1"
     d="m 210.79998,170.93613 c 1.09633,-0.16382 2.68461,0.34858 3.61821,0.81538 0.6807,0.34034 1.60225,0.16411 2.29323,0.50961 0.32126,0.16062 1.2112,-0.2157 1.4269,0 0.046,0.046 0.87884,0.78364 0.91731,0.7644 0.22676,-0.11338 0.46881,-1.18226 0.66247,-1.37594 0.51124,-0.51122 -1.23964,-2.46272 -1.47785,-2.70092 -0.72652,-0.72651 -0.5253,-2.44221 -0.86635,-3.46533 -0.20936,-0.62812 -0.23515,-1.56015 -0.61151,-1.93651 -0.22272,-0.22273 -0.64029,-0.33452 -0.81538,-0.50961 -0.0807,-0.0807 0.97572,-2.66489 1.07019,-2.8538 0.15839,-0.31679 0.51094,-0.46 0.71344,-0.66249 0.36417,-0.36416 1.4495,-0.0735 1.78362,-0.4077 1.28417,-0.26495 3.62355,-0.20916 3.92399,-0.50961 0.11436,-0.11436 0.41172,0.12539 0.56057,0.051 0.36127,-0.18063 1.07321,-0.4092 1.47787,-0.61153 0.72673,-0.14687 3.50375,-0.88767 4.07686,-1.01921"
     id="path10593"
     inkscape:connector-curvature="0"
     sodipodi:nodetypes="cccssccccssscsccc" />
  <path
     style="fill:none;stroke:#000000;stroke-width:0.5;stroke-linecap:round;stroke-linejoin:round;stroke-miterlimit:4;stroke-dasharray:none;stroke-opacity:1"
     d="m 4.4427235,128.8201 c 2.6639552,-2.3876 6.8136435,-3.94116 11.1932035,-3.96774 5.136293,-0.0312 10.504226,1.0721 16.919592,2.04672 7.217973,1.09655 15.359198,2.19042 24.023856,3.44009 3.439218,0.49602 7.323812,0.90151 11.370076,0.82821 3.812876,-0.0691 7.757841,-0.58628 11.973814,-1.12376 3.303978,-0.42119 5.927493,-1.78576 7.431658,-2.2158 4.822631,-1.37879 10.011923,-4.04166 14.948817,-6.13569 1.1225,-0.47612 2.295,-1.46374 3.35801,-1.83008 1.48478,-0.51168 2.98271,-0.91413 4.40349,-1.72587 1.62514,-0.92849 3.14931,-2.26611 4.43734,-2.74264 1.28152,-0.47411 2.61441,-0.66345 3.90425,-1.09652 1.93962,-0.65125 3.86301,-1.72887 6.0302,-2.49475 1.92794,-0.68131 4.08086,-1.04112 6.11812,-1.78184 8.42824,-3.06439 16.88871,-6.2125 24.41552,-9.14177 2.11936,-0.82483 4.46306,-1.930379 6.41625,-1.691347 2.99469,0.366473 5.12749,1.485267 6.46292,3.540957 1.89336,2.91455 0.51328,8.13429 3.40974,11.2495 2.68783,2.89082 6.99977,6.32447 10.85868,9.51434 1.13453,0.93783 2.36118,2.40523 3.51961,3.40484 0.38723,0.33414 1.08762,0.41271 1.78236,0.97501 1.73842,1.40705 4.10333,2.857 6.73043,4.80833 2.41627,1.79473 4.98114,3.77614 7.14199,5.66402 2.01454,1.76008 3.67122,3.44559 4.70766,4.64406 1.31198,1.51708 2.6107,3.66061 3.82232,5.06048 1.16501,1.346 1.90071,1.51767 3.79262,1.59601 4.62625,0.1916 4.55895,-1.98483 5.8325,-1.96547 2.46453,0.0375 7.40291,-0.19469 10.3588,-0.21081"
     id="path14359-1-7-5-3-0-73-1-9-8-5-8"
     inkscape:connector-curvature="0"
     sodipodi:nodetypes="cssssssssssssssssssssssssssc" />
  <path
     style="fill:none;stroke:#000000;stroke-width:0.5;stroke-linecap:round;stroke-linejoin:round;stroke-miterlimit:4;stroke-dasharray:none;stroke-opacity:1"
     d="m 4.4427235,130.34946 c 2.4335571,-2.72819 5.5893185,-3.64205 10.4446985,-3.76882 4.426687,-0.1156 12.121334,0.78442 17.341875,1.72674 7.423571,1.33998 14.737348,1.97926 24.173355,3.41709 3.999216,0.60939 7.566749,0.5502 11.477366,0.65607 4.015234,0.10871 8.082175,-0.15504 12.088406,-0.66787 2.559249,-0.32759 5.061126,-1.23 7.499661,-2.08732 1.017714,-0.35779 2.04924,-1.01847 3.044677,-1.43181 0.766788,-0.31838 1.429704,-0.28097 2.193451,-0.60486 3.30378,-1.40108 6.628028,-3.05555 9.855077,-4.54734 1.68789,-0.78027 2.65539,-1.90176 3.49565,-2.08719 0.91151,-0.20116 2.77063,-1.04607 4.28649,-1.71483 1.28679,-0.56769 2.3866,-1.51643 4.02679,-2.22146 0.79321,-0.34095 1.39365,-0.86397 2.00465,-1.06111 0.79248,-0.25572 1.63275,-0.35573 2.41625,-0.60759 1.99986,-0.64285 3.79571,-1.79794 5.73129,-2.27151 2.0987,-0.51349 4.40635,-1.22375 6.37077,-1.93438 9.2353,-3.34085 17.61741,-6.6468 24.44663,-9.15359 1.19254,-0.43772 4.09059,-1.2507 5.89017,-1.30919 1.97052,-0.0641 4.70704,1.22052 5.60461,2.95956 1.05536,2.04478 0.41431,7.35482 2.91249,10.54456 2.59127,3.30863 8.26768,7.49416 11.49495,10.36087 0.90162,0.80089 2.21503,2.23093 3.38708,3.05696 0.66231,0.46678 1.54594,0.91348 2.19911,1.40168 0.83121,0.62129 1.84815,1.20767 2.8601,1.97589 1.24739,0.94696 2.51382,2.09041 3.73647,2.95328 2.37664,1.67726 4.73944,3.47494 7.1288,5.46481 1.67801,1.39742 2.88412,2.96604 4.43421,4.61052 1.40185,1.48719 2.44253,3.07287 3.58043,4.76175 1.17955,1.75065 2.10207,2.11665 5.78988,2.1224 4.62791,0.007 5.00345,-2.02778 6.19807,-2.07195 2.13519,-0.079 4.16909,0.21314 6.30365,0.16158 0.59693,-0.0144 1.09138,0.43193 1.68821,0.41699 0.56081,-0.014 0.80027,-0.0283 1.36098,-0.0428"
     id="path14359-1-7-5-3-0-73-1-9-8-5-83"
     inkscape:connector-curvature="0"
     sodipodi:nodetypes="cssssssssssssssssssssssssssssssssc" />
  <path
     style="fill:none;stroke:#000000;stroke-width:0.5;stroke-linecap:round;stroke-linejoin:round;stroke-miterlimit:4;stroke-dasharray:none;stroke-opacity:1"
     d="m 229.62474,125.44487 -3.72319,-0.0458 c -2.43321,-0.0299 -3.7897,-2.46729 -4.02399,-4.71799 -0.21942,-2.10781 -1.87647,-4.51931 -3.71047,-6.22639 -1.77806,-1.65502 -6.63382,-4.22226 -10.16229,-6.47752 -1.9377,-1.23852 -4.09898,-2.81061 -5.93587,-4.48796 -0.65913,-0.60187 -1.81922,-1.16608 -2.61563,-2.19432 -0.4684,-0.60474 -1.15205,-1.01319 -1.67867,-1.506453 -0.58049,-0.543703 -1.13748,-1.090794 -1.69051,-1.630403 -0.45292,-0.441908 -1.00562,-0.315302 -1.56638,-0.894904 -0.5725,-0.591695 -1.14149,-1.227932 -1.75509,-1.827327 -0.37032,-0.361753 -0.85934,-0.607622 -1.27272,-0.924623 -0.33652,-0.25806 -1.20308,-0.905187 -1.58085,-1.112106 -0.85843,-0.470166 -1.50455,-0.151784 -2.70219,-0.604433 -0.41762,-0.157834 -0.83974,-0.307233 -1.26611,-0.452529 -0.52711,-0.179624 -1.04861,-0.005 -1.54895,-0.27205 -1.14858,-0.613454 -2.75039,-1.358154 -4.18482,-1.933315 -0.48563,-0.194727 -0.91529,-0.06786 -1.34617,-0.221743 -0.36364,-0.129815 -0.72813,-0.533231 -1.12789,-0.752003 -3.73605,2.052547 -7.66598,4.29714 -11.50168,6.508625 -2.39107,1.378593 -4.77247,2.621012 -6.84145,3.565666"
     id="path14359-1-7-5-3-0-73-1-9-8-5-81"
     inkscape:connector-curvature="0"
     sodipodi:nodetypes="cssssssssssssssssscsc" />
  <path
     style="fill:none;stroke:#000000;stroke-width:0.5;stroke-linecap:round;stroke-linejoin:round;stroke-miterlimit:4;stroke-dasharray:none;stroke-opacity:1"
     d="m 162.72154,99.36353 c 0.78254,-0.67317 1.54629,-1.283972 2.51865,-1.790027 3.15694,-1.642992 8.73506,-5.193187 10.64727,-5.742255 0.78861,-0.226453 0.98539,-0.806363 1.89549,-0.82081 0.74025,-0.01182 1.684,0.412894 2.59222,0.807555 1.20784,0.524844 2.42759,0.299772 3.86762,1.064851 0.8193,0.4353 2.13192,0.878668 2.91466,1.329499 0.50382,0.290183 1.15354,-0.08247 1.89834,0.367396 0.91834,0.554732 1.86699,0.684696 2.67502,1.341283 1.29678,1.053742 2.97996,2.964602 4.0394,3.829598 2.25317,1.83963 4.77327,4.12324 7.00415,5.80893 1.84324,1.39275 3.22499,2.81576 5.03293,3.87871 1.41155,0.82989 3.10017,1.85989 5.05802,3.08838 1.37628,0.86357 2.89604,1.9664 4.1931,3.02756 0.8401,0.68728 1.99238,1.48573 2.655,2.35848 0.53161,0.70017 0.65676,1.46641 0.7382,2.12434 0.51197,4.13565 2.26027,6.67908 5.0738,6.81454 0.86994,0.0418 1.66025,0.14259 2.35325,0.1255 0.80376,-0.0199 0.98326,0.10036 1.79534,0.0832"
     id="path14359-1-7-5-3-0-73-1-9-8-5-81-5"
     inkscape:connector-curvature="0"
     sodipodi:nodetypes="csssssssssssssssssc" />
  <path
     style="fill:none;stroke:#000000;stroke-width:0.5;stroke-linecap:round;stroke-linejoin:round;stroke-miterlimit:4;stroke-dasharray:none;stroke-opacity:1"
     d="m 229.99728,106.73199 c -0.35065,1.14062 -1.32406,2.82127 -2.75273,4.58926 -0.52454,0.64913 -1.25256,0.58833 -2.19449,1.48759 -0.75622,0.72197 -0.35384,1.12818 -0.76158,1.54915 -1.05632,1.09059 -2.43454,1.97398 -3.83651,2.60373"
     id="path14359-1-7-5-3-0-73-1-9-8-5-81-3"
     inkscape:connector-curvature="0"
     sodipodi:nodetypes="csssc" />
  <path
     style="fill:none;stroke:#000000;stroke-width:0.5;stroke-linecap:round;stroke-linejoin:round;stroke-miterlimit:4;stroke-dasharray:none;stroke-opacity:1"
     d="m 229.91695,103.84814 c -0.67898,3.42876 -3.73309,6.13278 -5.87041,8.91886 -0.27112,0.35344 -0.69744,0.43016 -0.97201,0.73658 -1.18154,1.31851 -2.51678,2.22565 -3.69832,2.02378"
     id="path14359-1-7-5-3-0-73-1-9-8-5-81-54"
     inkscape:connector-curvature="0"
     sodipodi:nodetypes="cssc" />
  <path
     style="fill:none;stroke:#000000;stroke-width:0.5;stroke-linecap:round;stroke-linejoin:round;stroke-miterlimit:4;stroke-dasharray:none;stroke-opacity:1"
     d="m 192.08531,73.327506 c 0.72648,0.387498 1.77538,1.23757 3.34605,1.395365 1.20897,0.121469 2.17937,0.56582 3.20071,0.569676 3.28369,0.01242 5.30065,-1.397034 10.09384,-1.332549 3.31972,0.04471 8.43605,1.777785 11.98436,1.856648 1.27126,0.02822 2.7709,0.301739 4.09719,0.178054 1.99073,-0.185665 3.38189,-0.656189 4.96505,-0.762853"
     id="path14359-1-7-5-3-0-73-1-9-8-5-81-36"
     inkscape:connector-curvature="0"
     sodipodi:nodetypes="csssssc" />
  <path
     style="fill:none;stroke:#000000;stroke-width:0.5;stroke-linecap:round;stroke-linejoin:round;stroke-miterlimit:4;stroke-dasharray:none;stroke-opacity:1"
     d="m 191.112,75.376566 c 2.40115,0.25813 4.99176,1.337756 7.46656,1.362387 4.08666,0.04064 6.328,-1.131671 11.62559,-1.143475 4.83615,-0.01083 5.65262,1.60442 10.5556,1.748911 5.29839,0.156136 6.29194,-0.574972 9.06398,-1.036791"
     id="path14359-1-7-5-3-0-73-1-9-8-5-81-59"
     inkscape:connector-curvature="0"
     sodipodi:nodetypes="csssc" />
  <path
     style="fill:none;stroke:#000000;stroke-width:0.5;stroke-linecap:round;stroke-linejoin:round;stroke-miterlimit:4;stroke-dasharray:none;stroke-opacity:1"
     d="m 198.39619,49.453676 c -0.37902,0.80769 -1.11557,2.555668 -1.15366,3.439833 -0.0404,0.940229 0.4072,2.298357 -0.007,4.158917 -0.57921,2.602717 -1.20792,4.208048 -1.91107,6.909809 -0.38265,1.470263 -0.45361,3.064131 -1.06344,4.445943 -0.35267,0.79907 -0.0957,1.753918 -0.2954,2.550256 -0.22329,0.889996 -0.81418,1.618222 -1.10419,2.428331 -0.39426,1.101376 -0.49313,2.267167 -0.77609,3.389846 -0.7725,3.064926 -1.51361,5.938314 -2.26368,8.607297 -0.26229,0.933297 -0.70848,2.013767 -1.35913,2.821482 -0.45311,0.562522 -1.44894,0.294376 -2.08336,1.007301 -0.80876,0.908824 -1.68752,1.536765 -2.65684,2.340595"
     id="path14359-1-7-5-3-0-73-1-9-8-5-81-549"
     inkscape:connector-curvature="0"
     sodipodi:nodetypes="cssssssssssc" />
  <path
     style="fill:none;stroke:#000000;stroke-width:0.5;stroke-linecap:round;stroke-linejoin:round;stroke-miterlimit:4;stroke-dasharray:none;stroke-opacity:1"
     d="m 196.90365,49.467615 c -0.5433,1.898456 -0.9611,4.450261 -0.7992,6.226291 0.0801,0.878497 -0.2096,1.720025 -0.39718,2.448972 -1.1423,4.438918 -2.23336,7.786563 -3.37563,12.228184 -0.22195,0.863019 -0.15372,1.880236 -0.39014,2.744467 -0.17178,0.627951 -0.64948,1.102589 -0.81074,1.731344 -0.85545,3.335118 -1.71085,6.682498 -2.56628,10.052412 -0.21461,0.845432 -0.37078,1.559042 -0.92823,2.125956 -0.6544,0.665499 -1.46622,0.613842 -2.2914,1.39917 l -2.74935,2.6166"
     id="path14359-1-7-5-3-0-73-1-9-8-5-81-1"
     inkscape:connector-curvature="0"
     sodipodi:nodetypes="cssssssssc" />
  <path
     style="fill:none;stroke:#000000;stroke-width:2;stroke-linecap:round;stroke-linejoin:round;stroke-miterlimit:4;stroke-dasharray:none;stroke-opacity:1"
     d="m 53.970857,249.89188 5.22069,-2.17495 3.52306,0.82494 2.13152,-0.0946 7.18109,5.01124 0.288345,2.16434 2.685904,1.14206 3.314064,4.80328 1.762752,0.0801 0.999223,3.59761 -3.376145,5.2086 0.298341,1.58561 0.102004,2.09443 -0.680055,0.63391 1.378463,1.52047 -0.325119,0.79917 -0.03805,1.22708 -1.623676,3.35621 0.007,0.77101 1.008871,-0.0323 2.229599,-0.23179 0.496914,-1.01394 c 1.402032,-1.25639 2.87453,-2.37187 4.576712,-3.02797 l 0.525768,-3.3551 3.53535,-5.36386 1.934785,2.18711 3.931731,6.0359 0.175402,4.077 2.134898,-0.0808 0.915959,-1.64514 6.288003,-10.31936 1.12367,-2.66289 2.07989,-3.12088 1.25639,-4.19128 2.28827,-2.48043 2.72219,-5.3368 1.30209,-0.0355 c 2.38346,-2.03478 6.21524,-3.87837 9.80042,-3.77343 7.74224,0.22661 6.84517,4.05047 10.76512,3.94371 l 4.41732,-0.1203 c 1.6818,-0.0458 4.68259,-0.80979 6.85391,-0.95975 l 0.85197,0.93693 2.00885,-0.0185 0.93925,0.98365 3.3317,-2.20257 -2.19343,-14.24106 -12.80952,-8.53826 -26.37515,7.40709 -26.026763,-7.2104 -41.26646,6.02331 -0.196347,17.04204 2.323346,-0.0685 2.763117,-1.21324 z"
     id="path14359-1-7-5-3-0-73-1-9-8-5-81-7"
     inkscape:connector-curvature="0"
     sodipodi:nodetypes="cccccccccccccccccccccccccccccccccccccssscccccccccccccc" />
  <path
     style="fill:none;stroke:#000000;stroke-width:1;stroke-linecap:round;stroke-linejoin:round;stroke-miterlimit:4;stroke-dasharray:none;stroke-opacity:1"
     d="m 143.05089,230.61571 -0.002,20.69784"
     id="path14359-1-7-5-3-0-73-1-9-8-5-81-55"
     inkscape:connector-curvature="0"
     sodipodi:nodetypes="cc" />
  <path
     style="fill:none;stroke:#000000;stroke-width:1;stroke-linecap:round;stroke-linejoin:round;stroke-miterlimit:4;stroke-dasharray:none;stroke-opacity:1"
     d="m 128.15079,231.29556 -0.002,17.0153"
     id="path14359-1-7-5-3-0-73-1-9-8-5-81-4"
     inkscape:connector-curvature="0"
     sodipodi:nodetypes="cc" />
  <path
     style="fill:none;stroke:#000000;stroke-width:1;stroke-linecap:round;stroke-linejoin:round;stroke-miterlimit:4;stroke-dasharray:none;stroke-opacity:1"
     d="m 113.02407,235.60129 -0.002,17.75182"
     id="path14359-1-7-5-3-0-73-1-9-8-5-81-18"
     inkscape:connector-curvature="0"
     sodipodi:nodetypes="cc" />
  <path
     style="fill:none;stroke:#000000;stroke-width:1;stroke-linecap:round;stroke-linejoin:round;stroke-miterlimit:4;stroke-dasharray:none;stroke-opacity:1"
     d="m 138.00865,228.34953 -0.002,23.30394"
     id="path14359-1-7-5-3-0-73-1-9-8-5-81-8"
     inkscape:connector-curvature="0"
     sodipodi:nodetypes="cc" />
  <path
     style="fill:none;stroke:#000000;stroke-width:1;stroke-linecap:round;stroke-linejoin:round;stroke-miterlimit:4;stroke-dasharray:none;stroke-opacity:1"
     d="m 153.07869,240.07699 -0.002,10.95329"
     id="path14359-1-7-5-3-0-73-1-9-8-5-81-35"
     inkscape:connector-curvature="0"
     sodipodi:nodetypes="cc" />
  <path
     style="fill:none;stroke:#000000;stroke-width:1;stroke-linecap:round;stroke-linejoin:round;stroke-miterlimit:4;stroke-dasharray:none;stroke-opacity:1"
     d="m 118.17962,234.01497 -0.002,15.48565"
     id="path14359-1-7-5-3-0-73-1-9-8-5-81-2"
     inkscape:connector-curvature="0"
     sodipodi:nodetypes="cc" />
  <path
     style="fill:none;stroke:#000000;stroke-width:1;stroke-linecap:round;stroke-linejoin:round;stroke-miterlimit:4;stroke-dasharray:none;stroke-opacity:1"
     d="m 133.19303,229.70923 -0.002,20.98112"
     id="path14359-1-7-5-3-0-73-1-9-8-5-81-26"
     inkscape:connector-curvature="0"
     sodipodi:nodetypes="cc" />
  <path
     style="fill:none;stroke:#000000;stroke-width:1;stroke-linecap:round;stroke-linejoin:round;stroke-miterlimit:4;stroke-dasharray:none;stroke-opacity:1"
     d="m 148.03647,233.73171 -0.002,17.58184"
     id="path14359-1-7-5-3-0-73-1-9-8-5-81-6"
     inkscape:connector-curvature="0"
     sodipodi:nodetypes="cc" />
  <path
     style="fill:none;stroke:#000000;stroke-width:1;stroke-linecap:round;stroke-linejoin:round;stroke-miterlimit:4;stroke-dasharray:none;stroke-opacity:1"
     d="m 123.1652,232.59862 -0.002,15.1457"
     id="path14359-1-7-5-3-0-73-1-9-8-5-81-78"
     inkscape:connector-curvature="0"
     sodipodi:nodetypes="cc" />
  <path
     style="fill:none;stroke:#000000;stroke-width:1;stroke-linecap:round;stroke-linejoin:round;stroke-miterlimit:4;stroke-dasharray:none;stroke-opacity:1"
     d="m 67.983844,231.18224 -0.002,19.62142"
     id="path14359-1-7-5-3-0-73-1-9-8-5-81-41"
     inkscape:connector-curvature="0"
     sodipodi:nodetypes="cc" />
  <path
     style="fill:none;stroke:#000000;stroke-width:1;stroke-linecap:round;stroke-linejoin:round;stroke-miterlimit:4;stroke-dasharray:none;stroke-opacity:1"
     d="m 73.026082,230.33242 -0.002,25.62678"
     id="path14359-1-7-5-3-0-73-1-9-8-5-81-71"
     inkscape:connector-curvature="0"
     sodipodi:nodetypes="cc" />
  <path
     style="fill:none;stroke:#000000;stroke-width:1;stroke-linecap:round;stroke-linejoin:round;stroke-miterlimit:4;stroke-dasharray:none;stroke-opacity:1"
     d="m 93.025067,229.76589 -0.002,44.54933"
     id="path14359-1-7-5-3-0-73-1-9-8-5-81-87"
     inkscape:connector-curvature="0"
     sodipodi:nodetypes="cc" />
  <path
     style="fill:none;stroke:#000000;stroke-width:1;stroke-linecap:round;stroke-linejoin:round;stroke-miterlimit:4;stroke-dasharray:none;stroke-opacity:1"
     d="m 108.09512,233.95831 -0.002,28.00626"
     id="path14359-1-7-5-3-0-73-1-9-8-5-81-877"
     inkscape:connector-curvature="0"
     sodipodi:nodetypes="cc" />
  <path
     style="fill:none;stroke:#000000;stroke-width:1;stroke-linecap:round;stroke-linejoin:round;stroke-miterlimit:4;stroke-dasharray:none;stroke-opacity:1"
     d="m 83.053902,228.6328 -0.002,50.49805"
     id="path14359-1-7-5-3-0-73-1-9-8-5-81-44"
     inkscape:connector-curvature="0"
     sodipodi:nodetypes="cc" />
  <path
     style="fill:none;stroke:#000000;stroke-width:1;stroke-linecap:round;stroke-linejoin:round;stroke-miterlimit:4;stroke-dasharray:none;stroke-opacity:1"
     d="m 87.926183,228.29287 -0.002,42.96302"
     id="path14359-1-7-5-3-0-73-1-9-8-5-81-9"
     inkscape:connector-curvature="0"
     sodipodi:nodetypes="cc" />
  <path
     style="fill:none;stroke:#000000;stroke-width:1;stroke-linecap:round;stroke-linejoin:round;stroke-miterlimit:4;stroke-dasharray:none;stroke-opacity:1"
     d="m 97.954003,231.18224 -0.002,49.02503"
     id="path14359-1-7-5-3-0-73-1-9-8-5-81-15"
     inkscape:connector-curvature="0"
     sodipodi:nodetypes="cc" />
  <path
     style="fill:none;stroke:#000000;stroke-width:1;stroke-linecap:round;stroke-linejoin:round;stroke-miterlimit:4;stroke-dasharray:none;stroke-opacity:1"
     d="m 78.011665,229.53928 -0.002,31.68878"
     id="path14359-1-7-5-3-0-73-1-9-8-5-81-558"
     inkscape:connector-curvature="0"
     sodipodi:nodetypes="cc" />
  <path
     style="fill:none;stroke:#000000;stroke-width:1;stroke-linecap:round;stroke-linejoin:round;stroke-miterlimit:4;stroke-dasharray:none;stroke-opacity:1"
     d="m 103.05289,232.65525 -0.002,39.84703"
     id="path14359-1-7-5-3-0-73-1-9-8-5-81-29"
     inkscape:connector-curvature="0"
     sodipodi:nodetypes="cc" />
  <path
     style="fill:none;stroke:#000000;stroke-width:1;stroke-linecap:round;stroke-linejoin:round;stroke-miterlimit:4;stroke-dasharray:none;stroke-opacity:1"
     d="m 47.758218,233.73171 -0.002,16.90199"
     id="path14359-1-7-5-3-0-73-1-9-8-5-81-82"
     inkscape:connector-curvature="0"
     sodipodi:nodetypes="cc" />
  <path
     style="fill:none;stroke:#000000;stroke-width:1;stroke-linecap:round;stroke-linejoin:round;stroke-miterlimit:4;stroke-dasharray:none;stroke-opacity:1"
     d="m 58.069326,232.372 -0.002,15.54229"
     id="path14359-1-7-5-3-0-73-1-9-8-5-81-0"
     inkscape:connector-curvature="0"
     sodipodi:nodetypes="cc" />
  <path
     style="fill:none;stroke:#000000;stroke-width:1;stroke-linecap:round;stroke-linejoin:round;stroke-miterlimit:4;stroke-dasharray:none;stroke-opacity:1"
     d="m 53.083734,233.1085 -0.002,16.44877"
     id="path14359-1-7-5-3-0-73-1-9-8-5-81-74"
     inkscape:connector-curvature="0"
     sodipodi:nodetypes="cc" />
  <path
     style="fill:none;stroke:#000000;stroke-width:1;stroke-linecap:round;stroke-linejoin:round;stroke-miterlimit:4;stroke-dasharray:none;stroke-opacity:1"
     d="m 63.054908,231.80545 -0.002,16.44877"
     id="path14359-1-7-5-3-0-73-1-9-8-5-81-85"
     inkscape:connector-curvature="0"
     sodipodi:nodetypes="cc" />
  <g
     id="g178"
     sodipodi:insensitive="true">
    <text
       id="text10278-9"
       y="461.8959"
       x="59.385483"
       style="font-style:normal;font-variant:normal;font-weight:normal;font-stretch:normal;font-size:12.03473854px;line-height:12.95133972px;font-family:STIXGeneral;-inkscape-font-specification:STIXGeneral;text-align:start;letter-spacing:0px;word-spacing:0px;text-anchor:start;fill:#000000;fill-opacity:1;stroke:none;stroke-width:0.99625689"
       xml:space="preserve"><tspan
         style="letter-spacing:0px;stroke-width:0.99625689"
         id="tspan10280-8"
         y="461.8959"
         x="59.385483"
         sodipodi:role="line">Critical Habitat Unit 7</tspan></text>
    <text
       id="text10278-9-3"
       y="478.89175"
       x="59.238647"
       style="font-style:normal;font-variant:normal;font-weight:normal;font-stretch:normal;font-size:12.03473854px;line-height:12.95133972px;font-family:STIXGeneral;-inkscape-font-specification:STIXGeneral;text-align:start;letter-spacing:0px;word-spacing:0px;text-anchor:start;fill:#000000;fill-opacity:1;stroke:none;stroke-width:0.99625689"
       xml:space="preserve"><tspan
         style="letter-spacing:0px;stroke-width:0.99625689"
         id="tspan10364"
         y="478.89175"
         x="59.238647"
         sodipodi:role="line">Critical Habitat for </tspan></text>
    <text
       id="text10278-4"
       y="491.79816"
       x="71.215286"
       style="font-style:italic;font-variant:normal;font-weight:normal;font-stretch:normal;font-size:11.95508194px;line-height:14.27968121px;font-family:STIXGeneral;-inkscape-font-specification:'STIXGeneral Italic';text-align:start;letter-spacing:0px;word-spacing:0px;text-anchor:start;fill:#000000;fill-opacity:1;stroke:none;stroke-width:0.99625689"
       xml:space="preserve"><tspan
         style="font-style:italic;font-variant:normal;font-weight:normal;font-stretch:normal;line-height:18.26470947px;font-family:STIXGeneral;-inkscape-font-specification:'STIXGeneral Italic';text-align:start;letter-spacing:0px;text-anchor:start;fill:#000000;fill-opacity:1;stroke-width:0.99625689"
         id="tspan10280-2"
         y="491.79816"
         x="71.215286"
         sodipodi:role="line">Melicope haupuensis - a</tspan></text>
    <text
       id="text10278-9-3-2"
       y="509.48431"
       x="58.918449"
       style="font-style:normal;font-variant:normal;font-weight:normal;font-stretch:normal;font-size:12.03473854px;line-height:12.95133972px;font-family:STIXGeneral;-inkscape-font-specification:STIXGeneral;text-align:start;letter-spacing:0px;word-spacing:0px;text-anchor:start;fill:#000000;fill-opacity:1;stroke:none;stroke-width:0.99625689"
       xml:space="preserve"><tspan
         style="letter-spacing:0px;stroke-width:0.99625689"
         id="tspan10364-8"
         y="509.48431"
         x="58.918449"
         sodipodi:role="line">Elevation (1,000-ft. contours)</tspan></text>
    <text
       id="text10278-9-3-9"
       y="525.89844"
       x="59.319138"
       style="font-style:normal;font-variant:normal;font-weight:normal;font-stretch:normal;font-size:12.03473854px;line-height:12.95133972px;font-family:STIXGeneral;-inkscape-font-specification:STIXGeneral;text-align:start;letter-spacing:0px;word-spacing:0px;text-anchor:start;fill:#000000;fill-opacity:1;stroke:none;stroke-width:0.99625689"
       xml:space="preserve"><tspan
         style="letter-spacing:0px;stroke-width:0.99625689"
         id="tspan10364-2"
         y="525.89844"
         x="59.319138"
         sodipodi:role="line">Major Road </tspan></text>
    <text
       id="text10278-9-3-5"
       y="542.47711"
       x="59.388184"
       style="font-style:normal;font-variant:normal;font-weight:normal;font-stretch:normal;font-size:12.03473854px;line-height:12.95133972px;font-family:STIXGeneral;-inkscape-font-specification:STIXGeneral;text-align:start;letter-spacing:0px;word-spacing:0px;text-anchor:start;fill:#000000;fill-opacity:1;stroke:none;stroke-width:0.99625689"
       xml:space="preserve"><tspan
         style="letter-spacing:0px;stroke-width:0.99625689"
         id="tspan10364-6"
         y="542.47711"
         x="59.388184"
         sodipodi:role="line">Coastline </tspan></text>
    <text
       id="text10278-9-3-5-7"
       y="585.78479"
       x="65.813812"
       style="font-style:normal;font-variant:normal;font-weight:normal;font-stretch:normal;font-size:7.9700551px;line-height:12.95133972px;font-family:STIXGeneral;-inkscape-font-specification:STIXGeneral;text-align:start;letter-spacing:-0.09962569px;word-spacing:0px;text-anchor:start;fill:#000000;fill-opacity:1;stroke:none;stroke-width:0.99625689"
       xml:space="preserve"><tspan
         style="stroke-width:0.99625689"
         id="tspan10364-6-2"
         y="585.78479"
         x="65.813812"
         sodipodi:role="line">Kilometers</tspan></text>
    <text
       id="text10278-9-3-5-7-8"
       y="565.76196"
       x="83.49144"
       style="font-style:normal;font-variant:normal;font-weight:normal;font-stretch:normal;font-size:7.9700551px;line-height:12.95133972px;font-family:STIXGeneral;-inkscape-font-specification:STIXGeneral;text-align:start;letter-spacing:-0.09962569px;word-spacing:0px;text-anchor:start;fill:#000000;fill-opacity:1;stroke:none;stroke-width:0.99625689"
       xml:space="preserve"><tspan
         style="stroke-width:0.99625689"
         id="tspan10364-6-2-0"
         y="565.76196"
         x="83.49144"
         sodipodi:role="line">Miles</tspan></text>
    <text
       id="text10278-9-3-5-7-8-0"
       y="565.75378"
       x="23.166145"
       style="font-style:normal;font-variant:normal;font-weight:normal;font-stretch:normal;font-size:7.9700551px;line-height:12.95133972px;font-family:STIXGeneral;-inkscape-font-specification:STIXGeneral;text-align:start;letter-spacing:-0.09962569px;word-spacing:0px;text-anchor:start;fill:#000000;fill-opacity:1;stroke:none;stroke-width:0.99625689"
       xml:space="preserve"><tspan
         style="stroke-width:0.99625689"
         id="tspan10364-6-2-0-8"
         y="565.75378"
         x="23.166145"
         sodipodi:role="line">0.5</tspan></text>
    <text
       id="text10278-9-3-5-7-8-2"
       y="565.73987"
       x="48.784294"
       style="font-style:normal;font-variant:normal;font-weight:normal;font-stretch:normal;font-size:7.9700551px;line-height:12.95133972px;font-family:STIXGeneral;-inkscape-font-specification:STIXGeneral;text-align:start;letter-spacing:-0.09962569px;word-spacing:0px;text-anchor:start;fill:#000000;fill-opacity:1;stroke:none;stroke-width:0.99625689"
       xml:space="preserve"><tspan
         style="stroke-width:0.99625689"
         id="tspan10364-6-2-0-5"
         y="565.73987"
         x="48.784294"
         sodipodi:role="line">0</tspan></text>
    <text
       id="text10278-9-3-5-7-8-8"
       y="566.29742"
       x="68.541885"
       style="font-style:normal;font-variant:normal;font-weight:normal;font-stretch:normal;font-size:7.9700551px;line-height:12.95133972px;font-family:STIXGeneral;-inkscape-font-specification:STIXGeneral;text-align:start;letter-spacing:-0.09962569px;word-spacing:0px;text-anchor:start;fill:#000000;fill-opacity:1;stroke:none;stroke-width:0.99625689"
       xml:space="preserve"><tspan
         style="stroke-width:0.99625689"
         id="tspan10364-6-2-0-0"
         y="566.29742"
         x="68.541885"
         sodipodi:role="line">0.5</tspan></text>
    <text
       id="text10278-9-3-5-7-8-0-3"
       y="585.55579"
       x="22.956656"
       style="font-style:normal;font-variant:normal;font-weight:normal;font-stretch:normal;font-size:7.9700551px;line-height:12.95133972px;font-family:STIXGeneral;-inkscape-font-specification:STIXGeneral;text-align:start;letter-spacing:-0.09962569px;word-spacing:0px;text-anchor:start;fill:#000000;fill-opacity:1;stroke:none;stroke-width:0.99625689"
       xml:space="preserve"><tspan
         style="stroke-width:0.99625689"
         id="tspan10364-6-2-0-8-2"
         y="585.55579"
         x="22.956656"
         sodipodi:role="line">0.5</tspan></text>
    <text
       id="text10278-9-3-5-7-8-2-3"
       y="585.75287"
       x="39.726479"
       style="font-style:normal;font-variant:normal;font-weight:normal;font-stretch:normal;font-size:7.9700551px;line-height:12.95133972px;font-family:STIXGeneral;-inkscape-font-specification:STIXGeneral;text-align:start;letter-spacing:-0.09962569px;word-spacing:0px;text-anchor:start;fill:#000000;fill-opacity:1;stroke:none;stroke-width:0.99625689"
       xml:space="preserve"><tspan
         style="stroke-width:0.99625689"
         id="tspan10364-6-2-0-5-3"
         y="585.75287"
         x="39.726479"
         sodipodi:role="line">0</tspan></text>
    <text
       id="text10278-9-3-5-7-8-8-2"
       y="585.74884"
       x="51.380119"
       style="font-style:normal;font-variant:normal;font-weight:normal;font-stretch:normal;font-size:7.9700551px;line-height:12.95133972px;font-family:STIXGeneral;-inkscape-font-specification:STIXGeneral;text-align:start;letter-spacing:-0.09962569px;word-spacing:0px;text-anchor:start;fill:#000000;fill-opacity:1;stroke:none;stroke-width:0.99625689"
       xml:space="preserve"><tspan
         style="stroke-width:0.99625689"
         id="tspan10364-6-2-0-0-1"
         y="585.74884"
         x="51.380119"
         sodipodi:role="line">0.5</tspan></text>
    <text
       id="text10278-9-3-5-7-8-8-1"
       y="604.99664"
       x="136.57152"
       style="font-style:normal;font-variant:normal;font-weight:normal;font-stretch:normal;font-size:6.5992651px;line-height:12.86856747px;font-family:STIXGeneral;-inkscape-font-specification:STIXGeneral;text-align:start;letter-spacing:-0.09898899px;word-spacing:0px;text-anchor:start;fill:#000000;fill-opacity:1;stroke:none;stroke-width:0.9898898"
       xml:space="preserve"><tspan
         style="stroke-width:0.9898898"
         id="tspan10364-6-2-0-0-7"
         y="604.99664"
         x="136.57152"
         sodipodi:role="line">N</tspan></text>
    <text
       transform="rotate(39.680936)"
       id="text6600"
       y="-53.95575"
       x="203.29135"
       style="font-style:normal;font-variant:normal;font-weight:normal;font-stretch:normal;font-size:9.29839706px;line-height:6.64171219px;font-family:Arial;-inkscape-font-specification:Arial;text-align:start;letter-spacing:0.04981285px;word-spacing:0px;text-anchor:start;fill:#000000;fill-opacity:1;stroke:none;stroke-width:0.99625689"
       xml:space="preserve"><tspan
         style="stroke-width:0.99625689"
         y="-53.95575"
         x="203.29135"
         id="tspan6598"
         sodipodi:role="line">Rice St</tspan></text>
    <text
       transform="rotate(-20.066706)"
       id="text6600-9"
       y="145.90572"
       x="44.318249"
       style="font-style:normal;font-variant:normal;font-weight:normal;font-stretch:normal;font-size:9.29839706px;line-height:6.64171219px;font-family:Arial;-inkscape-font-specification:Arial;text-align:start;letter-spacing:0.04981285px;word-spacing:0px;text-anchor:start;fill:#000000;fill-opacity:1;stroke:none;stroke-width:0.99625689"
       xml:space="preserve"><tspan
         style="stroke-width:0.99625689"
         y="145.90572"
         x="44.318249"
         id="tspan6598-8"
         sodipodi:role="line">Kaumualii Hwy</tspan></text>
    <text
       transform="rotate(-0.16505933)"
       id="text6600-9-7"
       y="274.07373"
       x="150.20474"
       style="font-style:italic;font-variant:normal;font-weight:normal;font-stretch:normal;font-size:9.33333302px;line-height:9.63048363px;font-family:Arial;-inkscape-font-specification:'Arial Italic';text-align:start;letter-spacing:0.03985028px;word-spacing:0px;text-anchor:start;fill:#000000;fill-opacity:1;stroke:none;stroke-width:0.99625689"
       xml:space="preserve"><tspan
         style="stroke-width:0.99625689"
         y="274.07373"
         x="150.20474"
         id="tspan6598-8-6"
         sodipodi:role="line">Kuahonu</tspan><tspan
         style="stroke-width:0.99625689"
         id="tspan9155"
         y="283.70422"
         x="150.20474"
         sodipodi:role="line">Point</tspan></text>
    <text
       transform="rotate(-0.16505933)"
       id="text6600-9-7-2"
       y="319.38925"
       x="135.28401"
       style="font-style:italic;font-variant:normal;font-weight:normal;font-stretch:normal;font-size:9.29839706px;line-height:9.63048363px;font-family:Arial;-inkscape-font-specification:'Arial Italic';text-align:start;letter-spacing:0px;word-spacing:0px;text-anchor:start;fill:#000000;fill-opacity:1;stroke:none;stroke-width:0.99625689"
       xml:space="preserve"><tspan
         style="stroke-width:0.99625689"
         y="319.38925"
         x="135.28401"
         id="tspan6598-8-6-7"
         sodipodi:role="line">Kawelikoa</tspan><tspan
         style="stroke-width:0.99625689"
         id="tspan9155-0"
         y="329.01974"
         x="135.28401"
         sodipodi:role="line">Point</tspan></text>
    <text
       transform="rotate(-0.16505933)"
       id="text6600-9-7-4"
       y="396.23392"
       x="122.52013"
       style="font-style:italic;font-variant:normal;font-weight:normal;font-stretch:normal;font-size:10.66666698px;line-height:9.63048363px;font-family:Arial;-inkscape-font-specification:'Arial Italic';text-align:start;letter-spacing:0.15940109px;word-spacing:0px;text-anchor:start;fill:#000000;fill-opacity:1;stroke:none;stroke-width:0.99625689"
       xml:space="preserve"><tspan
         style="stroke-width:0.99625689"
         id="tspan9155-3"
         y="396.23392"
         x="122.52013"
         sodipodi:role="line">Pacific Ocean</tspan></text>
    <text
       transform="rotate(40.242345)"
       id="text6600-9-6"
       y="-29.300201"
       x="194.0099"
       style="font-style:normal;font-variant:normal;font-weight:normal;font-stretch:normal;font-size:9.29839706px;line-height:6.64171219px;font-family:Arial;-inkscape-font-specification:Arial;text-align:start;letter-spacing:0.04981285px;word-spacing:0px;text-anchor:start;fill:#000000;fill-opacity:1;stroke:none;stroke-width:0.99625689"
       xml:space="preserve"><tspan
         style="stroke-width:0.99625689"
         y="-29.300201"
         x="194.0099"
         id="tspan6598-8-5"
         sodipodi:role="line">Nawiliwili Rd</tspan></text>
    <text
       id="text10278-3"
       y="23.33581"
       x="117.77076"
       style="font-style:normal;font-variant:normal;font-weight:bold;font-stretch:normal;font-size:14.66666698px;line-height:17px;font-family:STIXGeneral;-inkscape-font-specification:'STIXGeneral Bold';text-align:center;letter-spacing:-0.06px;word-spacing:0px;text-anchor:middle;fill:#000000;fill-opacity:1;stroke:none"
       xml:space="preserve"><tspan
         y="23.33581"
         x="119.54409"
         id="tspan10276-9"
         sodipodi:role="line">   Map 27    </tspan><tspan
         id="tspan7751-0"
         y="40.335808"
         x="117.74076"
         sodipodi:role="line">Unit 7 - <tspan
   id="tspan11551"
   style="font-style:italic;font-variant:normal;font-weight:bold;font-stretch:normal;font-family:STIXGeneral;-inkscape-font-specification:'STIXGeneral Bold Italic';text-align:center;letter-spacing:-0.06px;text-anchor:middle">Melicope haupuensis - a</tspan></tspan></text>
  </g>
  <path
     style="fill:none;stroke:#000000;stroke-width:0.5;stroke-linecap:round;stroke-linejoin:round;stroke-miterlimit:4;stroke-dasharray:none;stroke-opacity:1"
     d="m 89.061814,229.21734 -21.11724,4.49125 -22.13913,2.33817"
     id="path14359-1-7-5-3-0-73-1-9-8-5-81-85-6"
     inkscape:connector-curvature="0"
     sodipodi:nodetypes="ccc" />
</svg>
