<?xml version="1.0" encoding="UTF-8" standalone="no"?>
<svg
   xmlns:dc="http://purl.org/dc/elements/1.1/"
   xmlns:cc="http://creativecommons.org/ns#"
   xmlns:rdf="http://www.w3.org/1999/02/22-rdf-syntax-ns#"
   xmlns:svg="http://www.w3.org/2000/svg"
   xmlns="http://www.w3.org/2000/svg"
   xmlns:sodipodi="http://sodipodi.sourceforge.net/DTD/sodipodi-0.dtd"
   xmlns:inkscape="http://www.inkscape.org/namespaces/inkscape"
   inkscape:version="0.92.2 5c3e80d, 2017-08-06"
   sodipodi:docname="er30mr16.084.svg"
   viewBox="0 0 145.28 501.12"
   height="501.12"
   width="145.28"
   id="svg18336"
   version="1.1">
  <metadata
     id="metadata18342">
    <rdf:RDF>
      <cc:Work
         rdf:about="">
        <dc:format>image/svg+xml</dc:format>
        <dc:type
           rdf:resource="http://purl.org/dc/dcmitype/StillImage" />
        <dc:title></dc:title>
      </cc:Work>
    </rdf:RDF>
  </metadata>
  <defs
     id="defs18340" />
  <sodipodi:namedview
     inkscape:snap-global="false"
     inkscape:current-layer="g18344"
     inkscape:window-maximized="0"
     inkscape:window-y="3"
     inkscape:window-x="1"
     inkscape:cy="371.78853"
     inkscape:cx="10.51499"
     inkscape:zoom="2.6671202"
     showgrid="false"
     id="namedview18338"
     inkscape:window-height="756"
     inkscape:window-width="1280"
     inkscape:pageshadow="2"
     inkscape:pageopacity="0"
     guidetolerance="10"
     gridtolerance="10"
     objecttolerance="10"
     borderopacity="1"
     bordercolor="#666666"
     pagecolor="#ffffff" />
  <g
     id="g18344"
     inkscape:label="Image"
     inkscape:groupmode="layer">
    <path
       sodipodi:nodetypes="ccccc"
       inkscape:connector-curvature="0"
       id="path14359-1-7-5-3-0-73-1-9-8-5-3"
       d="m 7.7224747,344.18568 -0.002,7.60829 H 23.079548 l 0.002,-7.60829 z"
       style="fill:none;stroke:#000000;stroke-width:1;stroke-linecap:round;stroke-linejoin:round;stroke-miterlimit:4;stroke-dasharray:none;stroke-opacity:1" />
    <path
       sodipodi:nodetypes="cccc"
       inkscape:connector-curvature="0"
       id="path14359-1-7-5-3-0-73-1-9-8-5-9"
       d="m 22.947944,356.59738 -4.60868,4.81248 -5.23484,-5.25625 -4.71328,4.90061"
       style="fill:none;stroke:#000000;stroke-width:1;stroke-linecap:round;stroke-linejoin:round;stroke-miterlimit:4;stroke-dasharray:none;stroke-dashoffset:0;stroke-opacity:1" />
    <path
       sodipodi:nodetypes="cc"
       inkscape:connector-curvature="0"
       id="path14359-1-7-5-3-0-73-1-9-8-5-9-0"
       d="m 18.054588,344.36047 -0.002,7.14714"
       style="fill:none;stroke:#000000;stroke-width:0.5;stroke-linecap:round;stroke-linejoin:round;stroke-miterlimit:4;stroke-dasharray:none;stroke-opacity:1" />
    <path
       sodipodi:nodetypes="cc"
       inkscape:connector-curvature="0"
       id="path14359-1-7-5-3-0-73-1-9-8-5-9-2"
       d="m 15.881438,344.36047 -0.002,7.14713"
       style="fill:none;stroke:#000000;stroke-width:0.5;stroke-linecap:round;stroke-linejoin:round;stroke-miterlimit:4;stroke-dasharray:none;stroke-opacity:1" />
    <path
       sodipodi:nodetypes="cc"
       inkscape:connector-curvature="0"
       id="path14359-1-7-5-3-0-73-1-9-8-5-9-3"
       d="m 13.431548,344.36047 -0.002,7.14713"
       style="fill:none;stroke:#000000;stroke-width:0.5;stroke-linecap:round;stroke-linejoin:round;stroke-miterlimit:4;stroke-dasharray:none;stroke-opacity:1" />
    <path
       sodipodi:nodetypes="cc"
       inkscape:connector-curvature="0"
       id="path14359-1-7-5-3-0-73-1-9-8-5-9-9"
       d="m 11.104998,344.36047 -0.002,7.14713"
       style="fill:none;stroke:#000000;stroke-width:0.5;stroke-linecap:round;stroke-linejoin:round;stroke-miterlimit:4;stroke-dasharray:none;stroke-opacity:1" />
    <path
       sodipodi:nodetypes="cc"
       inkscape:connector-curvature="0"
       id="path14359-1-7-5-3-0-73-1-9-8-5-9-97"
       d="m 8.9977577,344.36047 -0.002,7.14713"
       style="fill:none;stroke:#000000;stroke-width:0.5;stroke-linecap:round;stroke-linejoin:round;stroke-miterlimit:4;stroke-dasharray:none;stroke-opacity:1" />
    <path
       sodipodi:nodetypes="cccc"
       inkscape:connector-curvature="0"
       id="path14359-1-7-5-3-0-73-1-9-8-5-9-03-8"
       d="m 22.650847,367.60249 -4.374182,4.40909 -5.341555,-5.1946 -4.997013,5.50575"
       style="fill:none;stroke:#000000;stroke-width:0.5;stroke-linecap:butt;stroke-linejoin:round;stroke-miterlimit:4;stroke-dasharray:2, 2;stroke-dashoffset:0;stroke-opacity:1" />
    <path
       sodipodi:nodetypes="ccccccccc"
       inkscape:connector-curvature="0"
       id="path14359-1-7-5-3-0-73-1-9-8-5-89-7"
       d="m 12.898646,482.89345 4.54968,1.25491 -4.30453,-12.44449 0.17024,-0.52288 4.79767,13.59482 -4.54971,-1.35949 -4.7882605,1.46406 0.28309,-0.8366 z"
       style="fill:#000000;fill-opacity:1;stroke:#000000;stroke-width:0.5;stroke-linecap:round;stroke-linejoin:round;stroke-miterlimit:4;stroke-dasharray:none;stroke-opacity:1" />
    <path
       sodipodi:nodetypes="ccccc"
       inkscape:connector-curvature="0"
       id="path14359-1-7-5-3-0-73-1-9-8-5-89"
       d="m 17.448326,484.14836 -4.69162,-13.6994 -4.6463705,13.90854 4.7883105,-1.46405 z"
       style="fill:none;stroke:#000000;stroke-width:0.5;stroke-linecap:round;stroke-linejoin:round;stroke-miterlimit:4;stroke-dasharray:none;stroke-opacity:1" />
    <path
       sodipodi:nodetypes="ccccc"
       inkscape:connector-curvature="0"
       id="path14359-1-7-5-3-0-73-1-9-8-5-0"
       d="m 144.74926,112.52272 -0.002,386.01928 H 1.1656436 l 0.002,-386.01928 z"
       style="fill:none;stroke:#000000;stroke-width:1;stroke-linecap:round;stroke-linejoin:round;stroke-miterlimit:4;stroke-dasharray:none;stroke-opacity:1" />
    <path
       style="fill:none;stroke:#000000;stroke-width:1;stroke-linecap:round;stroke-linejoin:round;stroke-miterlimit:4;stroke-dasharray:none;stroke-opacity:1"
       d="m 1.4472278,332.72332 143.1793522,0.002"
       id="path14359-1-7-5-3-0-73-1-9-8-5-92-2"
       inkscape:connector-curvature="0"
       sodipodi:nodetypes="cc" />
    <path
       style="fill:none;stroke:#000000;stroke-width:0.5;stroke-linecap:round;stroke-linejoin:round;stroke-miterlimit:4;stroke-dasharray:none;stroke-opacity:1"
       d="m 20.332378,344.36047 -0.002,7.14714"
       id="path14359-1-7-5-3-0-73-1-9-8-5-9-0-6"
       inkscape:connector-curvature="0"
       sodipodi:nodetypes="cc" />
    <path
       sodipodi:nodetypes="cc"
       inkscape:connector-curvature="0"
       id="path14359-1-7-5-3-0-73-1-9-8-5"
       d="m 23.782883,406.4829 -0.002,3.37671"
       style="fill:none;stroke:#000000;stroke-width:0.5;stroke-linecap:round;stroke-linejoin:round;stroke-miterlimit:4;stroke-dasharray:none;stroke-opacity:1" />
    <path
       style="fill:none;stroke:#000000;stroke-width:0.5;stroke-linecap:round;stroke-linejoin:round;stroke-miterlimit:4;stroke-dasharray:none;stroke-opacity:1"
       d="m 38.658208,409.76702 0.002,-3.28412 -29.30164,0 -0.002,3.28412"
       id="path14359-1-7-5-3-0-73-1-9-8-5-04"
       inkscape:connector-curvature="0"
       sodipodi:nodetypes="cccc" />
    <path
       style="fill:none;stroke:#000000;stroke-width:0.5;stroke-linecap:round;stroke-linejoin:round;stroke-miterlimit:4;stroke-dasharray:none;stroke-opacity:1"
       d="m 16.946543,406.4829 -0.002,2.16423"
       id="path14359-1-7-5-3-0-73-1-9-8-5-6"
       inkscape:connector-curvature="0"
       sodipodi:nodetypes="cc" />
    <path
       sodipodi:nodetypes="cc"
       inkscape:connector-curvature="0"
       id="path14359-1-7-5-3-0-73-1-9-8-5-6-4"
       d="m 31.312668,406.4829 -0.002,2.16423"
       style="fill:none;stroke:#000000;stroke-width:0.5;stroke-linecap:round;stroke-linejoin:round;stroke-miterlimit:4;stroke-dasharray:none;stroke-opacity:1" />
    <path
       style="fill:none;stroke:#000000;stroke-width:0.5;stroke-linecap:round;stroke-linejoin:round;stroke-miterlimit:4;stroke-dasharray:none;stroke-opacity:1"
       d="m 32.922248,404.7396 -0.002,-3.37671"
       id="path14359-1-7-5-3-0-73-1-9-8-5-00"
       inkscape:connector-curvature="0"
       sodipodi:nodetypes="cc" />
    <path
       sodipodi:nodetypes="cccc"
       inkscape:connector-curvature="0"
       id="path14359-1-7-5-3-0-73-1-9-8-5-04-6"
       d="m 56.760723,401.45548 0.002,3.28412 -47.449425,0 -0.002,-3.28412"
       style="fill:none;stroke:#000000;stroke-width:0.5;stroke-linecap:round;stroke-linejoin:round;stroke-miterlimit:4;stroke-dasharray:none;stroke-opacity:1" />
    <path
       sodipodi:nodetypes="cc"
       inkscape:connector-curvature="0"
       id="path14359-1-7-5-3-0-73-1-9-8-5-6-2"
       d="m 21.236518,404.7396 -0.002,-2.16423"
       style="fill:none;stroke:#000000;stroke-width:0.5;stroke-linecap:round;stroke-linejoin:round;stroke-miterlimit:4;stroke-dasharray:none;stroke-opacity:1" />
    <path
       style="fill:none;stroke:#000000;stroke-width:0.5;stroke-linecap:round;stroke-linejoin:round;stroke-miterlimit:4;stroke-dasharray:none;stroke-opacity:1"
       d="m 44.749443,404.7396 -0.002,-2.16423"
       id="path14359-1-7-5-3-0-73-1-9-8-5-6-4-4"
       inkscape:connector-curvature="0"
       sodipodi:nodetypes="cc" />
    <path
       style="fill:none;stroke:#000000;stroke-width:1px;stroke-linecap:round;stroke-linejoin:round;stroke-opacity:1"
       d="m 87.51103,439.65806 c 0.34636,-0.11545 0.78706,-0.39736 1.14775,-0.41736 0.29688,-0.0165 0.78041,0.24441 1.09558,0.10434 0.28629,-0.12724 0.1141,-0.55463 0.365192,-0.73039 0.30704,-0.21493 1.28438,-0.55843 1.66945,-0.46953 0.69276,0.15987 -0.0398,0.22853 0.57387,0.41736 0.28451,0.0875 0.61943,-0.13106 0.8869,0.10434 0.37182,0.11441 0.11569,0.21923 0.67821,0.31303 0.71888,0.11981 0.29086,-0.22202 0.73038,-0.41737 0.39392,-0.17504 0.72638,-0.0547 1.14775,-0.10434 0.38184,-0.0449 0.65452,-0.40839 1.04341,-0.36519 0.91996,0.10222 0.7023,1.51294 1.51293,1.51294 0.53074,0 0.70915,-0.45679 1.30426,-0.36519 0.410278,0.0631 0.869268,0.60877 1.252078,0.41736 0.52487,-0.26243 -0.0418,-0.12167 0.31302,-0.41736 0.20545,-0.17118 1.04736,-0.0502 1.25209,0.0522 0.37709,0.18855 0.53968,0.67545 0.93906,0.88689 0.10307,0.0546 0.57418,0.12575 0.67822,0.31302 0.25398,0.45718 -0.0353,1.2807 0.46953,1.61728 0.38604,0.25732 0.85123,0.1126 1.25209,0.31302 0.46266,0.23135 0.10072,1.02721 0.41736,1.30426 0.51763,0.45293 1.93079,1.08166 2.60851,1.51294 0.66684,0.42435 0.99926,1.27937 1.61728,1.77379 0.32048,0.25639 0.66081,0.48692 0.99121,0.73038 0.15554,0 0.28794,0.12238 0.41736,0.20868 1.04876,0.69918 0.008,1.36149 0.62604,1.77379 0.12901,0.086 0.14371,-0.24165 0.15651,-0.26085 0.0907,-0.13601 0.38142,-0.12141 0.52171,-0.15651 0.25685,-0.0643 0.17235,0.29942 0.26085,0.41736 0.16504,0.22006 0.75959,0.20296 0.99123,0.26086 0.87174,0.21793 0.22216,-0.98157 0.67822,-1.09558 0.3844,-0.0961 0.60068,0.70502 0.83472,0.93907 0.36616,0.36612 1.14947,-0.31073 1.61728,0.31302 0.37275,0.49699 0.0684,1.36928 0.20868,1.9303 0.0837,0.33492 0.8859,0.46804 1.09558,0.78255 0.23681,0.35522 0.31028,1.19855 0.73038,1.4086 0.0822,0.041 2.04009,0.13824 2.24332,0.10434 0.50515,-0.0842 0.69059,-0.50226 1.19992,-0.41736 0.77716,0.12952 1.05391,0.89735 1.72162,1.14774 0.17423,0.0653 0.44134,-0.0308 0.62604,0 0.41363,0.0689 1.40716,1.14631 1.72162,1.46077 0.10578,0.10578 0.13638,0.28219 0.26085,0.36519 0.86867,0.57912 2.31944,0.0475 3.28673,0.20869 0.52565,0.0876 1.19603,0.51878 1.61728,0.83472 0.13772,0.10329 -0.0644,0.50743 0.36519,0.36519 0.34949,0.1906 0.92519,-0.21704 1.19992,-0.0522 0.41133,0.24682 0.1981,0.7198 0.46953,0.99124 0.16595,0.16594 0.39757,0.22414 0.57388,0.36519 0.47836,0.38269 1.48357,1.19011 1.82596,1.66945 0.49691,0.69568 0.59194,1.30891 0.15651,2.03464 -0.0522,0.0869 -0.26085,0.0551 -0.26085,0.15651 0,0.70228 0.64778,0.56522 0.73038,0.73038 0.1314,0.26283 -0.0522,0.20874 -0.15651,0.31303 -0.10355,0.10358 0.0781,1.90573 0.0522,2.13898 -0.0702,0.63157 -0.26024,1.24843 -0.36519,1.87813 -0.0773,0.4639 -0.0256,0.95024 -0.15651,1.4086 -0.17604,0.61611 -0.90107,1.09075 -1.25209,1.61728 -0.47464,0.71195 -1.15248,2.31446 -2.03464,2.60851 -0.58825,0.19608 -1.54466,0.18188 -2.03464,0.57387 -0.84894,0.67915 -1.23204,1.60126 -1.77379,2.50418 -0.13763,0.22937 -0.41199,0.31788 -0.52171,0.57387 -0.093,0.21709 -0.16601,0.43003 -0.31302,0.62604 -0.33101,0.44134 -0.80733,0.1751 -1.19991,0.46954 -0.19236,0.1443 -0.0936,0.39627 -0.26086,0.5217 -0.22333,0.16753 -1.59019,0.17008 -1.82596,0.0522 -0.3051,-0.15255 -0.25138,-0.62368 -0.67821,-0.73039 -0.61403,-0.1535 -0.34158,1.08968 -1.19992,1.30426 -0.82819,0.20705 -1.72665,0.1056 -2.55634,0.31302 -0.11747,0.0294 -0.30966,-0.0539 -0.41736,0 -0.36933,0.18467 -0.26247,0.78418 -0.52171,1.04341 -0.1864,0.18641 -0.55348,0.27992 -0.78255,0.41736 -0.8812,0.52872 -1.57565,1.14153 -2.50417,1.51294 -0.58224,0.23289 -1.14831,-0.6784 -1.61728,-0.83472 -0.68924,-0.22975 -1.64966,0.90462 -2.50418,0.78255 -0.57346,-0.0819 -1.01171,-0.58411 -1.51293,-0.83472 -0.65954,-0.32977 -1.56344,-0.0971 -2.24333,0 -0.39276,0.0561 -0.83276,0.32267 -1.19991,0.46953 -1.03594,0.41437 -1.95896,0.91072 -2.92154,1.46077 -0.4036,0.23063 -0.76728,0.69051 -1.19992,0.83472 -0.30892,0.10297 -0.60601,0.19788 -0.93901,0.20868 0.1375,0 -0.55407,0.5085 -0.73039,0.62605 -0.72559,0.48372 -1.62036,0.71402 -2.451988,0.99123 -0.55529,0.1851 -1.2103,0.16274 -1.72162,0.46953 -0.41788,0.25073 -0.60966,0.62159 -0.88689,0.99124 -0.39598,0.52793 -1.2811,0.46953 -1.87813,0.46953 -0.91535,0 -2.02153,-0.44184 -2.92154,-0.10434 -0.27814,0.1043 -0.47269,0.41793 -0.78255,0.46953 -0.67463,0.11244 -1.1564,-0.45215 -1.825962,-0.26085 -0.23128,0.0661 -0.27857,0.25061 -0.46954,0.36519 -0.43659,0.26196 -1.01056,0.19226 -1.46076,0.41737 -0.41608,0.20803 -0.77956,0.58371 -1.25209,0.67821 -0.5086,0.10172 -0.96987,-0.4798 -1.4086,-0.62604 -0.51555,-0.17184 -1.08125,-0.10434 -1.61728,-0.10434 -0.44906,0 -2.60168,-0.5987 -2.71285,-1.04341 -0.15183,-0.60731 0.0707,-1.09117 -0.52171,-1.56511 -0.47983,-0.38387 -1.09557,0.46953 -1.51293,0.46953 -0.61205,0 -1.38757,-0.93886 -1.72162,-1.35642 -0.27624,-0.3453 0.41653,-0.46699 0.46953,-0.62605 0.19727,-0.59181 0.0317,-1.74205 -0.41736,-2.19115 -0.36628,-0.36627 -1.66945,-1.26886 -1.66945,-1.30426 0,-0.11647 0.61657,-0.57863 0.73038,-0.73038 0.19978,-0.26638 0.63004,-1.31624 0.73039,-1.61728 0.0654,-0.19618 -0.0522,-0.42848 -0.0522,-0.62604 0,-0.5187 0.0852,-1.00192 0,-1.51294 -0.0904,-0.5427 -0.458,-0.99195 -0.5217,-1.56511 -0.22602,-2.03444 0.18596,-4.16019 -0.31302,-6.15609 -0.35492,-1.41968 -1.5824,-2.5036 -1.82596,-3.96495 -0.0533,-0.31999 0.0447,-0.74564 0.10434,-1.0434 0.17185,-0.85941 0.15857,-1.71326 -0.0522,-2.55635 -0.10838,-0.43354 -0.19225,-0.92263 -0.5217,-1.25208 -0.28992,-0.28992 -0.82845,-0.51901 -1.19992,-0.67822 -1.36039,-0.58302 -2.55268,-1.24852 -4.06928,-0.9912 -1.88832,0.62944 -1.27122,1.35266 -2.34766,2.60851 -0.10892,0.12707 -1.54116,0.42681 -1.82596,0.52171 -0.24183,0.0806 -0.43007,-0.1836 -0.57388,-0.31303 -0.92693,-0.83423 -1.66238,-1.05511 -2.66068,-1.66944 -0.44285,-0.27253 -0.79662,-0.66552 -1.30426,-0.83473 -0.85258,-0.28422 -1.82341,0.38397 -2.60851,-0.0522 -0.0973,-0.0541 -0.12999,-0.18215 -0.20869,-0.26085 -0.65908,-0.65909 -0.94668,-1.20246 -1.87813,-1.51294 -0.69458,-0.23151 -2.43534,0.14021 -2.76502,-0.15651 -0.69576,-0.62618 -0.46364,-1.71573 -1.14775,-2.39983 -0.21755,-0.21755 -0.43208,-0.44145 -0.67821,-0.62605 -0.47037,-0.35277 -1.21918,-0.28011 -1.61728,-0.67821 -0.19305,-0.19303 -0.15131,-0.59372 -0.26085,-0.83473 -0.17942,-0.39471 -0.58103,-0.84188 -0.8869,-1.14774 -0.68446,-0.68447 -1.64094,-1.34449 -2.13898,-2.19115 -0.18992,-0.32288 -0.21883,-0.72575 -0.41736,-1.04341 -0.29264,-0.46823 -0.90249,-0.62066 -1.09558,-1.19992 -0.28722,-0.86168 0.41311,-1.9311 0.15651,-2.76502 -0.17741,-0.5766 -1.61727,-2.59728 -1.61727,-2.76503 0,-0.68602 0.53215,-3.44953 0.88689,-4.01711 0.15909,-0.25454 0.51057,-0.20971 0.62604,-0.46953 0.18019,-0.40532 0.0598,-0.88254 0.20869,-1.30426 0.39985,-1.13293 1.26513,-2.09121 1.51296,-3.28676 0.33216,-0.49823 0.60403,-2.1243 0.93907,-2.34766 0.72406,-0.48271 1.25123,-0.0518 1.77379,-0.26085 0.0261,-0.0104 0.58024,-0.81895 0.73038,-0.93907 0.24542,-0.19635 0.70367,0.014 0.8869,-0.26085 0.43269,-0.64896 -0.96528,-1.12162 0.36519,-1.56511 0.57112,-0.19037 0.96605,0.3568 1.46077,0.52171 0.30784,0.10261 0.57401,-0.50438 0.78255,-0.57388 0.29487,-0.0983 1.13621,0.35163 1.25209,0.31303 0.72054,-0.24019 0.2754,-0.58842 0.62604,-0.93907 0.30864,-0.30864 1.30134,-0.47736 1.72162,-0.41736 0.65247,0.0932 0.43911,1.63902 0.83473,2.03464 0.41853,0.41853 1.02742,0.12778 1.51293,0.20868 0.32123,0.0535 0.34008,0.24829 0.57388,0.36519 0.41961,0.20968 0.98986,-6.9e-4 1.4086,0.20868 0.49532,0.24767 0.30807,1.35148 0.73038,1.77379 0.25211,0.25215 0.94448,-0.008 1.30426,0.0522 0.18127,0.0302 0.11265,1.10181 0.5217,1.4086 0.42585,0.31939 1.59444,0.0358 1.82596,0.73038 0.0986,0.29594 -0.1099,0.65072 -0.0522,0.93907 0.0359,0.17965 0.27212,0.13812 0.31302,0.26085 0.18641,0.55924 -0.15891,1.4046 0.15651,1.9303 0.30846,0.51409 0.88318,0.82853 1.19992,1.35643 0.26989,0.44983 0.38332,1.32239 0.67821,1.61728 0.41252,0.41252 1.17439,0.39849 1.56511,0.88689 0.49596,0.62 0.27675,1.38375 0.41736,2.08681 0.15637,0.78181 1.07989,0.53556 1.46077,1.04341 0.13368,0.17828 0.11158,0.43192 0.20868,0.62604 0.17254,0.34509 0.90704,0.73856 0.99124,0.99124 0.10699,0.32096 -0.25155,0.70895 0.5217,0.93906 0.79023,0.23516 0.98009,-1.7955 1.82596,-1.0434 0.35152,0.0747 0.66695,-0.0917 0.99124,-0.15651 0.29039,-0.0581 0.59959,0.0197 0.88689,-0.0522 0.6363,-0.15908 0.85467,-1.05816 1.4086,-1.35643 0.54708,-0.29458 1.32719,0.0563 1.87813,0.15651 0.93635,0.17025 0.81905,-0.67612 1.61728,-0.78255 0.46196,-0.0616 1.27792,0.24793 1.66945,0.0522 1.09488,-0.54745 -0.92228,0.045 0.5217,-0.57388 0.42819,-0.18351 0.84182,0.0237 1.30426,-0.26085 0.65629,-0.40387 1.19761,-1.23455 1.66945,-1.77379 0.28702,-0.32802 1.0692,-0.4824 1.46076,-0.67824 z"
       id="path5541"
       sodipodi:nodetypes="cssssssssssssssssssssssssssssscssssssssssssssssssssssc" />
    <path
       style="fill:none;stroke:#000000;stroke-width:1px;stroke-linecap:round;stroke-linejoin:round;stroke-opacity:1"
       d="m 71.75561,445.0838 c 0.59891,-0.18299 0.90963,-0.0669 1.35643,0.15651"
       id="path5543" />
    <path
       style="fill:none;stroke:#000000;stroke-width:1px;stroke-linecap:round;stroke-linejoin:round;stroke-opacity:1"
       d="m 61.84325,431.51952 c 0.1941,0.54548 0.36595,1.95132 1.04341,2.08682 0.32982,0.066 1.1447,-0.10587 1.35643,0 0.17169,0.0858 0.26175,0.20913 0.36519,0.26085"
       id="path5545" />
    <path
       style="fill:none;stroke:#000000;stroke-width:1px;stroke-linecap:round;stroke-linejoin:round;stroke-opacity:1"
       d="m 62.73015,433.55417 c 0.0846,2.2618 1.64769,0.53036 2.19115,1.61727"
       id="path5547" />
    <path
       style="fill:none;stroke:#000000;stroke-width:1px;stroke-linecap:round;stroke-linejoin:round;stroke-opacity:1"
       d="m 63.19968,434.91059 c 0.29467,0.66576 0.56822,1.55946 1.09558,2.08681 0.18283,0.18284 0.51224,0.10198 0.73038,0.15652 0.52056,0.13013 1.08869,0.74613 1.35643,1.14774"
       id="path5549" />
    <path
       style="fill:none;stroke:#000000;stroke-width:0.5;stroke-linecap:round;stroke-linejoin:round;stroke-miterlimit:4;stroke-dasharray:none;stroke-opacity:1"
       d="m 66.69509,439.39724 c 0.43606,0.56042 0.0903,1.40724 0.5217,1.98247 0.32055,0.42739 1.11463,0.62136 1.51294,0.88689 0.66228,0.44153 1.69733,2.55995 2.08681,3.3389 0.13383,0.26765 0.71755,0.27286 0.62605,0.73039 -0.13457,0.67282 -3.43541,0.30518 -3.65192,0.5217 l -0.0522,10.95576 c 0.11667,0.23335 0.56217,0.4259 0.73038,0.67821 0.14905,0.22358 0.33239,0.99124 0.57387,0.99124"
       id="path5551"
       sodipodi:nodetypes="cssssccsc" />
    <path
       sodipodi:nodetypes="cc"
       id="path5551-1"
       d="m 91.393622,454.97007 -0.0522,11.68614"
       style="fill:none;stroke:#000000;stroke-width:0.5;stroke-linecap:round;stroke-linejoin:round;stroke-miterlimit:4;stroke-dasharray:none;stroke-opacity:1" />
    <path
       style="fill:none;stroke:#000000;stroke-width:0.5;stroke-linecap:round;stroke-linejoin:round;stroke-miterlimit:4;stroke-dasharray:none;stroke-opacity:1"
       d="m 67.68633,456.82211 c 0.79913,-0.35222 1.72004,-1.03396 1.87813,-1.98247 0.0633,-0.37956 0.0849,-0.82852 0.20868,-1.19991 0.1671,-0.50131 0.44688,-0.73725 0.67821,-1.19992 0.30977,-0.61954 0.52925,-1.27954 0.93907,-1.82596 0.27714,-0.36953 0.71565,-0.92434 0.99123,-1.19992 0.25078,-0.25077 0.92264,-0.36807 1.04341,-0.73038 0.2278,-0.68342 0.003,-1.24358 -0.20868,-1.87813 -0.0463,-0.13904 -0.48513,-0.50611 -0.3652,-0.62604 0.42278,-0.42278 1.08659,0.36219 1.4086,0.46953 0.12521,0.0417 0.29216,-0.0417 0.41736,0 0.22863,0.0762 0.36392,0.5726 0.52171,0.73038 0.37008,0.37008 1.57854,0.51499 2.08681,0.26085 0.90736,-0.45368 1.66689,-1.82084 2.08681,-2.66068 0.11806,-0.23612 0.17837,-0.6479 0.36519,-0.83473 0.58161,-0.58161 1.5801,-0.64843 2.29549,-0.88689"
       id="path5610" />
    <path
       style="fill:none;stroke:#000000;stroke-width:0.5;stroke-linecap:round;stroke-linejoin:round;stroke-miterlimit:4;stroke-dasharray:none;stroke-opacity:1"
       d="m 72.90335,446.07503 c 0.26086,0.26086 0.55045,0.49583 0.78256,0.78256 0.23015,0.2843 0.66026,1.89776 0.57387,2.24332 -0.15974,0.63896 -0.0784,1.33107 -0.20868,1.98247 -0.12975,0.64878 -0.4974,1.24528 -0.67821,1.87813 -0.16452,0.5758 -0.0733,1.1912 -0.15651,1.77379 -0.0517,0.36183 -0.28648,0.6892 -0.3652,1.04341 -0.12115,0.54517 -0.17474,1.2627 -0.10434,1.82596 0.0915,0.73185 0.50058,1.24946 0.57388,1.98247 0.0361,0.36099 -0.13559,0.81407 -0.0522,1.14775 0.22776,0.91104 1.5335,1.17785 1.77379,2.13898 0.29725,1.18902 0.8809,2.22963 0.99123,3.44324 0.0523,0.57509 -0.48449,1.95256 -0.31302,2.29549 0.0247,0.0494 0.85693,0.70042 0.99124,0.83472 0.3668,0.3668 0.4767,1.18361 0.57387,1.66945 0.0939,0.46969 -0.39944,0.675 -0.46953,1.09558 -0.12716,0.76296 0.1001,1.58628 -0.0522,2.34766 -0.17267,0.86331 -0.50016,1.99494 -0.20869,2.86937"
       id="path5612" />
    <path
       style="fill:none;stroke:#000000;stroke-width:0.5;stroke-linecap:butt;stroke-linejoin:round;stroke-miterlimit:4;stroke-dasharray:none;stroke-opacity:1"
       d="m 78.4334,446.64891 c 0.15652,0.0696 0.31635,0.13208 0.46954,0.20868 0.46499,0.2325 0.84937,0.55511 1.30425,0.78255 0.38939,0.1947 0.85053,0.21659 1.25209,0.41737 0.73586,0.36793 1.28911,0.90077 2.08681,1.19991 0.62056,0.23271 1.41295,0.47877 1.98247,0.83473 0.83757,0.52348 1.65081,1.18394 2.39984,1.82596 0.43797,0.3754 1.00418,0.58394 1.46077,0.93906 0.40542,0.31533 1.566612,1.82672 1.773782,1.9303 0.65665,0.32832 0.96787,-0.54507 2.03465,0.52171 0.1223,0.1223 0.36061,0.29927 0.41736,0.46953 0.22089,0.66269 0.4091,3.44887 0.31302,4.12145 -0.0879,0.61529 -0.23841,1.81867 0.0522,2.39983 0.19309,0.38618 1.18215,0.24901 1.51294,0.46954 0.24642,0.16428 0.29499,0.4166 0.46953,0.62604 0.39161,0.46993 1.05096,0.98291 1.56511,1.30426 2.565488,1.60343 3.969018,-2.9195 5.112678,-2.34767 0.16837,0.0241 0.5997,-0.0254 0.4695,0.3652 -0.0685,0.20546 -1.01863,0.70298 -0.62604,1.09557 0.20362,0.20362 1.64437,0.19108 1.51294,0.78256 -0.0385,0.17321 -0.26863,0.18535 -0.20869,0.36519 0.0448,0.13449 0.41737,0.20967 0.41737,0.36519 0,0.43234 -0.91477,0.36163 -0.57388,1.04341 0.20962,0.41923 1.0709,0.003 0.26086,0.88689 -0.30474,0.33244 -0.49183,0.77254 -0.78256,1.09558 -0.16778,0.18642 -0.48027,0.21327 -0.62604,0.41736 -0.0821,0.11488 -0.44036,1.68095 -0.31302,1.61728 0.0348,-0.0174 -0.0522,-0.0655 -0.0522,-0.10434 0,-0.12297 0.041,-0.24273 0.0522,-0.36519 0.0301,-0.33096 0.002,-0.69244 0.20868,-0.99124 0.15377,-0.22212 0.59493,-0.26373 0.78255,-0.5217 0.31466,-0.43266 0.49205,-1.42343 -0.10434,-1.72162 -0.0946,-0.0473 -0.23822,0.0226 -0.31302,-0.0522 -0.075,-0.075 0.62632,-0.44415 0.67821,-0.57388 0.014,-0.035 0.0249,-0.80353 0,-0.83472 -0.0585,-0.0731 -0.19463,-0.0381 -0.26085,-0.10434 -0.0664,-0.0664 0.21753,-0.57737 0.20868,-0.62604 -0.0956,-0.52591 -1.15043,-0.26623 -1.35643,-0.67822 -0.13388,-0.26777 0.48774,-1.19991 0.20869,-1.19991 -0.96148,0 -1.49246,1.4904 -2.03465,2.08681 -0.17118,0.1883 -0.751568,0.53617 -0.991218,0.62604 -0.17894,0.0671 -0.45354,-0.10035 -0.57387,-0.15651 -0.34623,-0.16157 -0.7155,-0.34279 -0.73039,-0.31302 -0.0174,0.0348 0.13184,0.0797 0.10434,0.0522 -0.27039,-0.27039 -0.56433,-0.51217 -0.83472,-0.78256 -0.54099,-0.54098 -1.07841,-0.83035 -1.87813,-0.73038 -0.68567,0.0857 -1.1715,0.48862 -1.4086,1.19992 -0.0833,0.25 0.16581,0.59182 -0.0522,0.78255 -0.42833,0.37479 -1.11194,0.71049 -1.61728,0.99124 -0.25516,0.14175 -0.65863,0.20214 -0.88689,0.36519 -0.76419,0.54585 -1.20289,2.24089 -1.773792,3.02588 -0.454,0.62424 -1.46077,1.24006 -1.46077,2.08681"
       id="path5614" />
    <path
       style="fill:none;stroke:#000000;stroke-width:0.5;stroke-linecap:round;stroke-linejoin:round;stroke-miterlimit:4;stroke-dasharray:none;stroke-opacity:1"
       d="m 89.96304,439.50158 c 0.400832,0.50104 0.260832,0.38009 1.147742,0.88689 0.39564,0.22608 1.92747,-0.30068 2.50418,-0.15651 0.78484,0.19621 -0.0497,1.70636 1.66945,1.46077 0.37103,-0.053 0.7774,-0.27863 1.09557,-0.46953 0.71621,-0.42973 1.64796,-0.089 2.34767,0.26085 0.29931,0.14966 0.6571,0.32296 0.78255,0.57387 0.0853,0.17068 -0.0443,0.34941 -0.10434,0.46953 -0.72076,1.44153 -2.2527,0.63543 -3.02588,1.4086 -0.27933,0.27934 -0.68062,1.67909 -0.78255,2.08681 -0.10495,0.41982 -0.64979,0.48617 -0.8869,0.78256 -0.20518,0.25648 -0.32324,0.54214 -0.46953,0.83472 -0.25416,0.50834 -0.12182,2.13925 -0.31302,2.71286 -0.16595,0.49785 -0.85319,0.86242 -1.14775,1.30426 -0.29467,0.44201 -0.51902,0.93639 -0.88689,1.30425 -0.36039,0.36039 -1.51294,0.52219 -1.51294,1.04341"
       id="path5616" />
    <path
       style="fill:none;stroke:#000000;stroke-width:0.5;stroke-linecap:round;stroke-linejoin:round;stroke-miterlimit:4;stroke-dasharray:none;stroke-opacity:1"
       d="m 99.562372,442.16226 c 0.797168,0.0744 1.750018,-0.0408 2.504168,0.26085 0.49413,0.19766 3.05365,2.19319 3.44323,2.66069 0.25551,0.30661 0.85843,1.21571 1.14775,1.4086 0.45234,0.30156 1.17709,0.33258 1.61728,0.62604 0.14984,0.0999 0.20748,0.27056 0.36519,0.36519 0.35449,0.2127 0.78354,0.23526 1.14775,0.41736 0.36394,0.18197 0.62757,0.58492 0.99123,0.73039 0.20435,0.0817 0.4812,-0.0139 0.67822,0.10434 0.26643,0.15986 0.51005,0.44041 0.62604,0.73038 0.0692,0.17301 -0.0909,0.49579 0.10434,0.57388 0.23254,0.093 0.58337,0.0522 0.83473,0.0522 1.2249,0 2.45077,-0.0534 3.33889,0.83472 0.41273,0.41273 -0.0499,1.57629 0.0522,2.08681 0.0229,0.11439 0.11963,0.20235 0.15652,0.31302 0.0809,0.24286 -0.0366,0.5787 0,0.83473 0.0972,0.68071 0.60746,1.20993 0.99123,1.72162 0.2424,0.3232 1.10176,0.23056 1.46077,0.36519 1.37636,0.51614 2.80587,0.7406 4.22579,1.09558 0.66052,0.16513 1.18201,0.78826 1.77379,0.88689 0.74414,0.12403 1.54021,0.0136 2.24332,0.36519 0.51425,0.25713 0.93825,0.67781 1.46077,0.93907 0.42945,0.21472 0.93494,0.25879 1.35643,0.46953 0.39228,0.19614 0.69713,0.40516 1.14775,0.46953 0.58271,0.0833 1.26196,-0.20868 1.87813,-0.20868 1.73754,0.0323 1.42697,2.07021 2.55631,2.97368 0.25494,0.20395 0.61838,0.23093 0.8869,0.36519"
       id="path5618" />
    <path
       style="fill:none;fill-opacity:1;stroke:#000000;stroke-width:1;stroke-linecap:round;stroke-linejoin:round;stroke-miterlimit:4;stroke-dasharray:none;stroke-opacity:1"
       d="m 121.20523,476.88605 -0.002,9.52507 -6.25162,0 0.002,-9.52507 z"
       id="path14359-1-7-5-3-0-73-1-9-8-5-61-02"
       inkscape:connector-curvature="0"
       sodipodi:nodetypes="ccccc" />
    <path
       style="fill:none;stroke:#000000;stroke-width:0.5;stroke-linecap:butt;stroke-linejoin:round;stroke-miterlimit:4;stroke-dasharray:2, 2;stroke-dashoffset:0;stroke-opacity:1"
       d="m 1.0244426,181.14689 2.040862,-0.0321 c 0.9502814,0.1129 1.9090824,0.0461 2.8562749,0.15134 1.8559624,0.20622 3.6749659,0.57235 5.5103585,0.16449 1.181783,-0.26262 4.927842,-1.97613 5.92158,-1.64489 1.324383,0.44147 1.984289,1.89553 3.289766,2.38509 0.989639,0.37111 2.254252,0.36402 3.289767,0.49346 1.100566,0.13757 1.844553,0.82916 3.043034,0.65795 1.224395,-0.17491 1.29377,-1.41818 2.220592,-1.72712 0.603581,-0.2012 0.692335,0.46093 1.151418,0.57571 1.036367,0.25909 2.635388,0.34685 3.536499,-0.32898 0.863706,-0.64778 1.641338,-1.36778 2.467325,-2.05611 0.396229,-0.33019 0.9662,-0.45223 1.398151,-0.74019 0.48686,-0.32458 0.495355,-0.96078 0.904685,-1.23367 0.820732,-0.54715 2.017827,-0.14086 2.714058,-1.06917 0.42916,-0.57221 1.472072,-3.61597 1.727127,-3.70099 1.506668,-0.50222 1.220883,3.11139 3.207522,2.71406 0.895739,-0.17915 2.650398,-0.90205 3.207522,-1.64488 0.239919,-0.31989 0.534987,-0.80208 0.904686,-0.98693 1.098069,-0.54904 2.284242,-0.581 3.372011,-1.23366 1.723568,-1.03415 3.287346,-2.87613 4.441184,-4.02997 1.024504,-0.95015 1.347554,-2.44837 1.809372,-3.37201 m 13.24131,-7.89544 c 0.429452,-0.18064 0.968392,-0.46335 1.315906,0 0.309198,0.41227 0.150693,4.66086 0,5.26363 -0.114197,0.45679 -0.49431,0.74231 -0.657953,1.15142 -0.406052,1.01513 -1.069174,2.27368 -1.069174,3.37201 0,0.1497 2.578429,1.54929 2.96079,1.64488 0.580435,0.14511 2.990674,0.34404 3.125278,-0.32898 0.414654,-2.07327 0.384465,-4.31136 0.575709,-6.41504 0.100985,-1.11084 -0.0051,-2.33114 0.411221,-3.37201 0.40299,-1.00748 1.499899,-1.58215 2.220592,-2.30284 1.215657,-1.21566 2.470197,-2.64187 2.96079,-4.35894 0.373185,-1.30615 0.803874,-6.09313 0.411221,-7.40197 -0.472567,-1.57523 -2.021273,-2.00386 -2.878546,-3.28977 -1.628656,-2.44298 0.302637,-3.27001 1.97386,-4.52343 0.359244,-0.26943 0.641819,-0.81437 0.98693,-0.98693 0.108402,-1.32087 -1.166735,-2.31815 -1.891616,-3.04303 -0.185617,-0.18562 1.373043,-2.40456 1.562639,-2.87855 0.38331,-0.95827 0.244375,-2.12891 0.493465,-3.12528 0.238908,-0.95563 0.558872,-1.72324 0.657953,-2.71405 0.01853,-0.1853 0.556995,-5.4786 1.315907,-5.09914 0.799808,0.3999 0.572279,2.1109 0.657953,2.7963 0.08353,0.66826 0.171738,1.26266 0.328977,1.89162 0.100941,0.40376 0.525392,0.69473 0.411221,1.15141 -0.16909,0.67636 -1.132955,0.81909 -1.480395,1.39815 -0.672812,1.12136 0.0069,2.17203 -0.164488,3.37202 -0.08851,0.61954 -1.069175,1.87421 -1.069175,2.13834 0,0.7091 2.398045,1.36128 2.714058,2.46733 0.635533,2.22436 -2.148669,3.81387 -1.809372,5.51036 0.369997,1.84998 4.16591,3.88725 4.441185,5.26362 0.133312,0.66656 -0.308927,3.04713 -0.411221,3.86548 -0.113729,0.90983 -0.04588,1.98168 0.08224,2.87854 0.190088,1.33062 -0.341628,5.72546 -0.657953,6.99076 -0.765995,3.06398 -1.733415,3.38484 -0.98693,6.74402 0.09915,0.4462 0.231407,1.16955 0.493465,1.56264 1.038946,1.55842 4.715404,1.30802 6.086068,0.32897 0.666883,-0.47634 1.087907,-1.0879 1.644883,-1.64488 0.03184,-0.0318 0.639788,-0.67612 0.657953,-0.65795 0.40955,0.40955 0.641298,1.07875 0.98693,1.56264 0.272383,0.38133 0.648702,0.65959 0.904692,1.06917 0.66346,1.06155 2.40862,2.84033 3.78323,1.80937 0.53213,-0.3991 0.89607,-0.99649 1.39815,-1.39815 0.39856,-0.31884 1.02056,-0.44485 1.39815,-0.82244 0.57824,-0.57824 0.76073,-1.5729 1.56264,-1.97386 1.3475,-0.67375 2.57902,3.11055 4.19445,2.30284 1.01418,0.29202 2.37635,0.19772 3.28977,-0.41122 0.46933,-0.31289 0.41063,-1.62447 1.31591,-1.39815 0.63328,0.15832 0.87629,0.97983 1.56263,1.15141 m 14.39273,-1.64488 c 0.74043,-1.23404 3.20841,-3.37113 4.52343,-2.0561 0.28978,0.28977 0.49428,0.70002 0.7402,0.98693 1.0085,1.17658 2.32475,1.91683 3.70099,2.46732 0.46571,0.18629 2.37792,0.64364 2.38508,0.65795 0.1091,0.21822 -0.0384,0.11515 -0.0823,0.24674"
       id="path14359-1-7-5-3-0-73-1-9-8-5-9-03-8-5"
       inkscape:connector-curvature="0"
       sodipodi:nodetypes="ccsssssssssssssssssscccssssssssssssscssssssssssssssssssssscsssssscssccssscc" />
    <path
       sodipodi:nodetypes="ccssssssssssscssccsscssssssscscsssssccsscsssccssssssc"
       inkscape:connector-curvature="0"
       id="path14359-1-7-5-3-0-73-1-9-8-5-9-03-8-5-5"
       d="m 1.1607931,140.459 1.3006646,-0.46137 c 0.991636,0.29718 1.9985662,-2.65631 2.8844127,-1.99193 0.1934231,0.14507 1.5955468,2.43444 1.8916157,2.87855 0.1878008,0.2817 1.1529944,0.33016 1.4803949,0.57571 0.4044785,0.30335 0.2728695,1.40686 0.7401974,1.56263 0.8370196,0.27901 3.0971696,-1.91889 4.1944526,-2.13834 0.671916,-0.13439 1.068483,0.4607 1.727127,0.32897 0.584165,-0.11683 1.764822,-0.88584 2.220592,-0.65795 1.467013,0.73351 1.957782,2.50487 3.94772,2.22059 1.162125,-0.16602 2.628319,-2.27068 4.029964,-2.7963 0.81115,-0.30418 1.800311,-0.35488 2.631813,-0.49346 0.712905,-0.11882 1.409767,-0.51224 2.138348,-0.65796 0.763794,-0.15276 1.610525,0.0146 2.385081,-0.0822 1.638184,-0.20477 3.316097,-0.38052 4.934649,-0.7402 3.484802,-0.7744 1.720207,-1.1468 3.94772,-2.63181 0.177402,-0.11827 5.259622,-0.20761 5.510359,-0.0822 m 13.899263,-7.23757 c 0.118959,-0.90782 0.08161,-1.80586 0.246732,-2.71406 0.179865,-0.98926 0.411221,-2.1349 0.411221,-3.12528 0,-0.78108 1.870746,0.6064 2.138348,0.7402 0.186133,0.0931 0.624436,0.13097 0.740198,0.24673 0.628526,0.62853 0.525591,1.79138 0.904686,2.54957 0.606678,1.21336 4.157855,2.7598 5.181382,1.4804 0.411121,-0.51391 0.255686,-2.65868 0.575709,-3.61875 0.72955,-2.18865 1.442204,-4.53225 0.164488,-6.66177 -0.528016,-0.88003 -1.15622,-1.77546 -1.727127,-2.63182 -0.205744,-0.30861 -0.493465,-0.86513 -0.493465,-1.23366 0,-0.0613 -0.137074,-0.1919 -0.08224,-0.16449 2.513466,1.25674 5.44177,3.55699 6.908509,5.75709 0.548466,0.8227 0.431146,2.98072 1.069174,3.61875 0.980082,0.21171 1.091302,1.57923 1.727124,2.0561 0.626128,0.4696 0.978754,-0.51799 0.822441,-0.98693 -0.53211,-1.59633 -2.091073,-3.10262 -1.480395,-4.93465 0.389116,-1.16735 2.067967,2.20873 2.796302,1.4804 0.47078,-0.47078 -1.405279,-3.8441 -0.822441,-5.59261 0.06065,-0.18196 0.296816,-1.53048 0.411216,-1.64488 m 12.994578,0.32902 c 1.416432,2.12465 3.55517,9.28248 3.043033,11.84317 -0.162953,0.81476 -1.330381,6.6473 -0.98693,6.99075 0.879463,0.87946 2.736927,0.41122 3.865476,0.41122 0.944344,-0.68867 2.047014,-0.66104 3.043034,-0.32903 0.81071,0.27024 1.09015,1.02541 1.72713,1.4804 1.04529,0.74663 2.11753,1.4358 3.37201,1.64488 1.95906,0.32651 4.2412,-1.03367 5.09914,-1.89161 m 15.4619,0.24673 c 0.30626,-0.0122 0.59818,-0.16449 0.90469,-0.16449 0.22998,0 0.87774,0.37563 1.23366,0.41122 0.83195,0.0832 1.80574,0.20652 2.63181,0 1.41814,-0.35453 2.00626,-1.2568 3.12528,-2.0561 1.08598,-0.7757 2.23086,-1.15729 3.37201,-1.80938 1.8153,-1.03731 2.0598,-0.969 3.86548,-0.24673 0.50878,0.20352 0.99734,0.42164 1.3159,0.7402"
       style="fill:none;stroke:#000000;stroke-width:0.5;stroke-linecap:butt;stroke-linejoin:round;stroke-miterlimit:4;stroke-dasharray:2, 2;stroke-dashoffset:0;stroke-opacity:1" />
    <path
       sodipodi:nodetypes="cssssssssssssssssssssssssssscsssssssssssssssssssscssssssssssssssssssssscsssssssssssssc"
       id="path19658"
       d="m 1.3981507,249.03532 c 1.4791402,-0.22273 5.0210199,-0.54692 6.4150445,-0.0823 0.7238842,0.2413 1.7768155,0.77304 2.4673248,0.65796 0.486034,-0.081 3.804828,-0.31818 4.112208,-0.16449 0.243003,0.1215 0.620442,0.12698 0.822442,0.32897 0.436194,0.4362 0.591102,0.83916 1.315906,0.65796 1.636216,-0.40906 4.373301,-2.41902 6.086068,-1.56264 1.183759,0.59188 1.189012,2.37802 1.727127,3.45425 0.468036,0.93608 1.357662,1.57741 1.891616,2.46733 0.323734,0.53956 0.483937,1.55311 0.904686,1.97386 0.173566,0.17356 0.561159,0.52731 0.822441,0.65795 0.233641,0.11682 0.539181,-0.13703 0.740198,0.16449 0.569709,0.85456 1.028532,1.81033 1.480395,2.71406 0.559645,1.11929 2.007035,2.64863 2.796301,3.70098 0.675809,0.90108 0.727571,1.99605 1.315907,2.87855 0.190175,0.28526 0.843803,0.23765 1.069174,0.57571 0.596429,0.89464 0.08845,1.59986 0.246732,2.54957 0.06203,0.37219 1.534465,2.76813 1.809372,3.04303 0.192861,0.19286 0.8867,0.42729 1.151418,0.49347 0.26257,0.0656 0.288918,-0.0633 0.411221,-0.24674 0.16172,-0.24258 0.499467,-0.43523 0.575709,-0.74019 0.185288,-0.74115 -0.829334,-2.53923 -0.493465,-3.04304 0.263796,-0.39569 1.107468,2.1823 1.644883,1.64489 0.597915,-0.59792 -0.346283,-2.5171 -0.904685,-2.7963 -0.586154,-0.29308 -1.628869,0.0651 -2.056104,-0.57571 -0.09298,-0.13947 -0.08225,-0.42383 -0.08225,-0.57571 0,-1.53273 1.578745,-0.60792 2.056104,-1.56264 0.295572,-0.59115 -0.363484,-1.98709 -0.08224,-2.54957 0.462252,-0.9245 2.390679,-1.31591 3.37201,-1.31591 0.533767,0.45022 2.506663,-0.6397 3.043036,-0.49341 0.441024,0.12028 0.586895,0.37569 0.98693,0.57571 0.438526,0.21926 0.76653,0.19082 1.151418,0.57571 0.82259,0.82259 -0.01237,2.55637 0.575709,3.53649 1.017624,1.69604 2.026179,-0.64308 2.549569,1.97386 0.113354,0.56677 -1.513376,1.77314 -0.493465,2.38508 0.389553,0.23374 0.80504,-0.32659 0.904686,-0.5757 0.222831,-0.55708 -0.403184,-1.24974 -0.164488,-1.72713 0.12635,-0.2527 0.425479,-0.71168 0.246732,-1.06918 -0.104476,-0.20895 -0.685181,-0.46679 -0.657953,-0.5757 0.171239,-0.68496 1.111512,-1.44755 1.562639,-1.97386 0.373445,-0.43569 0.872959,-1.14819 1.315906,-1.4804 0.656406,-0.4923 0.899978,0.66973 1.233663,-0.16449 0.09107,-0.22766 -0.189404,-0.45635 -0.328977,-0.65795 -0.709964,-1.02551 -0.991735,-2.14956 -1.480395,-3.28977 -0.179057,-0.4178 -0.589979,-0.75784 -0.657953,-1.23366 -0.184373,-1.29061 0.632295,-2.05203 1.562639,-2.7963 0.254854,-0.20388 0.498043,-0.32898 0.822442,-0.32898 0.137073,0 0.41122,0.13708 0.41122,0 0,-0.58849 -0.117531,0.84578 -0.08224,0.98693 0.0074,0.0295 0.523199,-0.12233 0.98693,-0.16449 0.584694,-0.0531 1.053716,0.15676 1.562639,0.41122 1.052711,0.52636 -0.566591,-2.3869 0.657953,-2.63181 0.835309,-0.16706 1.247719,1.21961 1.480395,0.98693 0.221025,-0.22102 0.476864,-0.44366 0.575709,-0.7402 0.05202,-0.15604 -0.11631,-0.37715 0,-0.49346 0.351636,-0.35164 5.163929,1.89985 6.086068,2.46732 0.374505,0.23047 1.002285,0.59107 1.315907,0.90469 0.344119,0.34412 -0.09698,1.75273 0.657953,1.64488 0.868352,-0.12405 0.47048,-1.50383 1.315907,-1.39815 0.50853,0.0636 0.629975,1.37102 1.233662,1.06918 0.306619,-0.15331 -0.02451,-1.72713 0.328977,-1.72713 0.09461,0 0.60791,0.44937 0.740197,0.49346 0.273237,0.0911 2.585164,0.14076 3.289767,-0.32897 0.705524,-0.47035 1.264515,-1.48452 1.809371,-2.13835 0.05986,-0.0718 0.411221,-0.38238 0.411221,-0.49347 0,-0.44426 -0.53919,-0.68541 -0.740197,-0.98693 -0.316179,-0.47426 -0.554319,-1.89493 -0.411221,-2.46732 0.420155,-1.68062 0.820571,-2.84801 1.727127,-4.35894 0.341725,-0.56954 1.562639,-0.25617 1.562639,-0.32898 0,-0.0548 -0.164488,0.0548 -0.164488,0 0,-0.0988 0.148238,-0.14923 0.164488,-0.24673 0.132124,-0.79274 -0.545932,-1.48784 0.740198,-1.80937 0.164487,-0.0274 0.354712,0.0102 0.493461,-0.0823 0.232874,-0.15525 0.323688,-1.31061 0.657953,-1.64488 0.451472,-0.45147 1.579224,-0.34971 1.891615,-0.7402 1.06256,-1.3282 -0.724292,-1.93138 -0.246732,-3.12528 0.16927,-0.42317 0.48037,-0.31588 0.740197,-0.5757 0.896997,-0.897 1.381975,-2.28666 2.302837,-3.20753 0.692578,-0.69257 5.586181,-3.17044 6.579533,-3.45425 1.097963,-0.31371 2.816695,1.12049 3.700987,1.56264 0.728215,0.36411 2.687857,1.16853 3.125275,1.3159 0,0 0.65909,-0.46068 0.98693,-0.49346 0.36223,-0.0362 0.45228,-0.0329 0.7402,0.0822 0.0918,0.0367 0.17684,0.23438 0.24673,0.16449 0.17345,-0.17345 0.80841,-0.95925 1.15142,-1.23366 0.50672,-0.40537 1.27257,0.10613 1.72713,-0.57571 1.45987,-2.61158 4.34983,-3.92274 6.3328,-6.08598 0.36991,-0.40353 0.73558,-1.19577 1.23366,-1.48039 0.74079,-0.42331 1.7924,-0.15318 2.54957,-0.65796 0.25807,-0.17204 0.40982,-0.47185 0.65795,-0.65795 0.58396,-0.43797 1.27837,-0.62041 1.80938,-1.15142 0.62696,-0.62697 0.78536,-1.50091 1.56263,-2.0561 0.36508,-0.26077 0.83693,-0.37734 1.23367,-0.57571 0.76501,-0.38251 1.6614,-1.23209 2.30283,-1.80937 1.09248,-0.98323 2.17469,-2.93669 2.96079,-4.19445 0.51376,-0.82201 1.22043,-1.54059 1.72713,-2.38508 0.32922,-0.5487 0.60885,-1.22302 0.98693,-1.72713 0.0189,-0.0253 0.58923,-0.65796 0.49347,-0.65796 -0.34511,0 -1.23367,0.39828 -1.23367,0.65796 0,0.3065 -0.27414,-0.5483 -0.41122,-0.82244 -0.35097,-0.70194 -0.8914,-1.21241 -1.3159,-1.89162 -0.33233,-0.53172 -0.43482,-0.72521 -0.32898,-1.06917 0.21887,-0.71133 1.04288,-3.50032 1.64488,-3.70099 0.45594,-0.15198 4.06146,-0.61377 4.44119,-0.32898 0.0299,0.0224 0.15524,2.19063 1.39815,1.4804 0.85791,-0.49024 -0.28689,-2.20915 0,-2.87855 0.46732,-1.09041 1.44391,-0.39663 2.30283,-0.7402 0.88955,-0.35581 0.86277,-1.50055 1.64489,-1.89161 0.7548,-0.3774 3.26921,-0.86356 3.78323,0.16449 0.20721,0.41441 0.0934,1.09144 0.32897,1.56264 0.0171,0.0341 0.49628,0.55578 0.65796,0.98693 0.24534,0.65423 0.001,0.85607 0.49346,1.15141 1.20433,0.7226 0.31757,-1.5952 0.49347,-1.72712 0.42936,-0.32202 1.45197,-0.24674 1.97386,-0.24674"
       style="fill:none;stroke:#000000;stroke-width:1px;stroke-linecap:round;stroke-linejoin:round;stroke-opacity:1" />
    <path
       id="path19660"
       d="m 130.27475,209.47588 c -0.17546,-0.58167 -1.68664,2.94054 -0.90469,2.54957 0.323,-0.1615 0.10878,-0.95776 0.24674,-1.23367 0.33231,-0.66463 0.65795,-0.17732 0.65795,-1.3159 z"
       style="fill:none;stroke:#000000;stroke-width:1px;stroke-linecap:round;stroke-linejoin:round;stroke-opacity:1" />
    <path
       sodipodi:nodetypes="cccc"
       id="path19662"
       d="m 30.512583,260.96072 2.878546,-0.32898 3.40853,4.31284 2.677538,-0.77634"
       style="fill:none;stroke:#000000;stroke-width:1px;stroke-linecap:round;stroke-linejoin:round;stroke-opacity:1" />
    <path
       sodipodi:nodetypes="cccccccc"
       inkscape:connector-curvature="0"
       id="path14359-1-7-5-3-0-73-1-9-8-5-9-03-8-5-7"
       d="m 89.491021,232.07899 -0.973073,-1.33454 -5.074482,3.55593 -3.791459,7.01625 c -1.856139,1.41121 -3.414954,3.11976 -4.833788,4.96828 l -0.776745,4.78577 -1.886437,2.41686 0.542933,2.72109"
       style="fill:none;stroke:#000000;stroke-width:1;stroke-linecap:round;stroke-linejoin:round;stroke-miterlimit:4;stroke-dasharray:none;stroke-dashoffset:0;stroke-opacity:1" />
    <path
       sodipodi:nodetypes="cccc"
       inkscape:connector-curvature="0"
       id="path14359-1-7-5-3-0-73-1-9-8-5-9-03-8-5-0"
       d="m 52.645638,257.16346 c -0.948807,0.11953 -2.464878,-0.27128 -2.473486,-1.62092 3.227207,-4.16758 10.319807,-5.72183 14.90963,-4.82231 l 1.776853,4.58371"
       style="fill:none;stroke:#000000;stroke-width:1;stroke-linecap:round;stroke-linejoin:round;stroke-miterlimit:4;stroke-dasharray:none;stroke-dashoffset:0;stroke-opacity:1" />
    <path
       sodipodi:nodetypes="cc"
       inkscape:connector-curvature="0"
       id="path14359-1-7-5-3-0-73-1-9-8-5-9-03-8-5-3"
       d="m 32.36214,263.19587 0.0321,-2.2876"
       style="fill:none;stroke:#000000;stroke-width:0.5;stroke-linecap:round;stroke-linejoin:round;stroke-miterlimit:4;stroke-dasharray:none;stroke-dashoffset:0;stroke-opacity:1" />
    <path
       style="fill:none;stroke:#000000;stroke-width:0.5;stroke-linecap:round;stroke-linejoin:round;stroke-miterlimit:4;stroke-dasharray:none;stroke-dashoffset:0;stroke-opacity:1"
       d="m 65.260712,254.18293 0.0321,-2.2876"
       id="path14359-1-7-5-3-0-73-1-9-8-5-9-03-8-5-3-8"
       inkscape:connector-curvature="0"
       sodipodi:nodetypes="cc" />
    <path
       style="fill:none;stroke:#000000;stroke-width:0.5;stroke-linecap:round;stroke-linejoin:round;stroke-miterlimit:4;stroke-dasharray:none;stroke-dashoffset:0;stroke-opacity:1"
       d="m 63.007983,253.08276 0.0321,-2.2876"
       id="path14359-1-7-5-3-0-73-1-9-8-5-9-03-8-5-3-7"
       inkscape:connector-curvature="0"
       sodipodi:nodetypes="cc" />
    <path
       style="fill:none;stroke:#000000;stroke-width:0.5;stroke-linecap:round;stroke-linejoin:round;stroke-miterlimit:4;stroke-dasharray:none;stroke-dashoffset:0;stroke-opacity:1"
       d="m 60.493308,253.13515 0.0321,-2.2876"
       id="path14359-1-7-5-3-0-73-1-9-8-5-9-03-8-5-3-87"
       inkscape:connector-curvature="0"
       sodipodi:nodetypes="cc" />
    <path
       style="fill:none;stroke:#000000;stroke-width:0.5;stroke-linecap:round;stroke-linejoin:round;stroke-miterlimit:4;stroke-dasharray:none;stroke-dashoffset:0;stroke-opacity:1"
       d="m 58.397746,253.50188 0.0321,-2.2876"
       id="path14359-1-7-5-3-0-73-1-9-8-5-9-03-8-5-3-9"
       inkscape:connector-curvature="0"
       sodipodi:nodetypes="cc" />
    <path
       style="fill:none;stroke:#000000;stroke-width:0.5;stroke-linecap:round;stroke-linejoin:round;stroke-miterlimit:4;stroke-dasharray:none;stroke-dashoffset:0;stroke-opacity:1"
       d="m 55.778293,254.18293 0.0321,-2.2876"
       id="path14359-1-7-5-3-0-73-1-9-8-5-9-03-8-5-3-72"
       inkscape:connector-curvature="0"
       sodipodi:nodetypes="cc" />
    <path
       style="fill:none;stroke:#000000;stroke-width:0.5;stroke-linecap:round;stroke-linejoin:round;stroke-miterlimit:4;stroke-dasharray:none;stroke-dashoffset:0;stroke-opacity:1"
       d="m 53.73512,255.12594 0.0321,-2.2876"
       id="path14359-1-7-5-3-0-73-1-9-8-5-9-03-8-5-3-6"
       inkscape:connector-curvature="0"
       sodipodi:nodetypes="cc" />
    <path
       style="fill:none;stroke:#000000;stroke-width:0.5;stroke-linecap:round;stroke-linejoin:round;stroke-miterlimit:4;stroke-dasharray:none;stroke-dashoffset:0;stroke-opacity:1"
       d="m 51.377612,257.01194 0.0321,-2.2876"
       id="path14359-1-7-5-3-0-73-1-9-8-5-9-03-8-5-3-83"
       inkscape:connector-curvature="0"
       sodipodi:nodetypes="cc" />
    <path
       style="fill:none;stroke:#000000;stroke-width:0.5;stroke-linecap:round;stroke-linejoin:round;stroke-miterlimit:4;stroke-dasharray:none;stroke-dashoffset:0;stroke-opacity:1"
       d="m 38.961406,273.20016 0.01739,-4.75864 m 0.0082,-2.2527 0.0065,-1.7725"
       id="path14359-1-7-5-3-0-73-1-9-8-5-9-03-8-5-3-85"
       inkscape:connector-curvature="0"
       sodipodi:nodetypes="cccc" />
    <path
       style="fill:none;stroke:#000000;stroke-width:0.5;stroke-linecap:round;stroke-linejoin:round;stroke-miterlimit:4;stroke-dasharray:none;stroke-dashoffset:0;stroke-opacity:1"
       d="m 37.081893,272.10436 0.0321,-7.00261"
       id="path14359-1-7-5-3-0-73-1-9-8-5-9-03-8-5-3-873"
       inkscape:connector-curvature="0"
       sodipodi:nodetypes="cc" />
    <path
       style="fill:none;stroke:#000000;stroke-width:0.5;stroke-linecap:round;stroke-linejoin:round;stroke-miterlimit:4;stroke-dasharray:none;stroke-dashoffset:0;stroke-opacity:1"
       d="m 34.927449,266.96587 0.0321,-4.226"
       id="path14359-1-7-5-3-0-73-1-9-8-5-9-03-8-5-3-4"
       inkscape:connector-curvature="0"
       sodipodi:nodetypes="cc" />
    <path
       style="fill:none;stroke:#000000;stroke-width:0.5;stroke-linecap:round;stroke-linejoin:round;stroke-miterlimit:4;stroke-dasharray:none;stroke-dashoffset:0;stroke-opacity:1"
       d="m 87.316504,233.22731 0.0321,-1.60654"
       id="path14359-1-7-5-3-0-73-1-9-8-5-9-03-8-5-3-5"
       inkscape:connector-curvature="0"
       sodipodi:nodetypes="cc" />
    <path
       style="fill:none;stroke:#000000;stroke-width:0.5;stroke-linecap:round;stroke-linejoin:round;stroke-miterlimit:4;stroke-dasharray:none;stroke-dashoffset:0;stroke-opacity:1"
       d="m 84.068383,237.20887 0.0321,-3.2306"
       id="path14359-1-7-5-3-0-73-1-9-8-5-9-03-8-5-3-3"
       inkscape:connector-curvature="0"
       sodipodi:nodetypes="cc" />
    <text
       transform="scale(1.0010413,0.99895978)"
       id="text10278-9-3"
       y="351.29358"
       x="28.795765"
       style="font-style:normal;font-variant:normal;font-weight:normal;font-stretch:normal;font-size:8px;line-height:19.43919945px;font-family:STIXGeneral;-inkscape-font-specification:STIXGeneral;text-align:start;letter-spacing:0.190219px;word-spacing:0px;text-anchor:start;fill:#000000;fill-opacity:1;stroke:none;stroke-width:1.00444996"
       xml:space="preserve"><tspan
         style="font-size:8px;letter-spacing:0.190219px;stroke-width:1.00444996"
         id="tspan10364"
         y="351.29358"
         x="28.795765"
         sodipodi:role="line">Critical Habitat</tspan></text>
    <text
       transform="scale(1.0010413,0.99895978)"
       id="text10278-9-3-2"
       y="362.01685"
       x="28.838812"
       style="font-style:normal;font-variant:normal;font-weight:normal;font-stretch:normal;font-size:8px;line-height:19.43919945px;font-family:STIXGeneral;-inkscape-font-specification:STIXGeneral;text-align:start;letter-spacing:0.190219px;word-spacing:0px;text-anchor:start;fill:#000000;fill-opacity:1;stroke:none;stroke-width:1.00444996"
       xml:space="preserve"><tspan
         style="font-size:8px;letter-spacing:0.190219px;stroke-width:1.00444996"
         id="tspan10364-8"
         y="362.01685"
         x="28.838812"
         sodipodi:role="line">Coastline</tspan></text>
    <text
       transform="scale(1.0010413,0.99895978)"
       id="text10278-9-3-5-7-8-8-1"
       y="491.06503"
       x="10.756077"
       style="font-style:normal;font-variant:normal;font-weight:normal;font-stretch:normal;font-size:6.66666985px;line-height:16.19930077px;font-family:STIXGeneral;-inkscape-font-specification:STIXGeneral;text-align:start;letter-spacing:-0.0998032px;word-spacing:0px;text-anchor:start;fill:#000000;fill-opacity:1;stroke:none;stroke-width:0.99803197"
       xml:space="preserve"><tspan
         style="font-size:6.66666985px;stroke-width:0.99803197"
         id="tspan10364-6-2-0-0-7"
         y="491.06503"
         x="10.756077"
         sodipodi:role="line">N</tspan></text>
    <text
       transform="scale(1.0028491,0.997159)"
       id="text10278-3"
       y="11.109121"
       x="51.755825"
       style="font-style:normal;font-variant:normal;font-weight:bold;font-stretch:normal;font-size:16px;line-height:18.91200066px;font-family:STIXGeneral;-inkscape-font-specification:'STIXGeneral Bold';text-align:start;letter-spacing:0.1px;word-spacing:0px;text-anchor:start;fill:#000000;fill-opacity:1;stroke:none;stroke-width:1.00641"
       xml:space="preserve"><tspan
         id="tspan6356"
         style="font-size:16px;text-align:start;text-anchor:start;stroke-width:1.00641"
         y="11.109121"
         x="51.755825"
         sodipodi:role="line">Map 6</tspan></text>
    <text
       xml:space="preserve"
       style="font-style:normal;font-variant:normal;font-weight:normal;font-stretch:normal;font-size:8px;line-height:19.43919945px;font-family:STIXGeneral;-inkscape-font-specification:STIXGeneral;text-align:start;letter-spacing:0.190219px;word-spacing:0px;text-anchor:start;fill:#000000;fill-opacity:1;stroke:none;stroke-width:1.00444996"
       x="28.940462"
       y="372.7562"
       id="text10278-9-3-1"
       transform="scale(1.0010413,0.99895978)"><tspan
         sodipodi:role="line"
         x="28.940462"
         y="372.7562"
         id="tspan10364-5"
         style="font-size:8px;letter-spacing:0.190219px;stroke-width:1.00444996">Elevation (1,000-foot contours)</tspan></text>
    <text
       xml:space="preserve"
       style="font-style:normal;font-variant:normal;font-weight:normal;font-stretch:normal;font-size:4px;line-height:2.62666011px;font-family:Arial;-inkscape-font-specification:Arial"
       x="60.836456"
       y="398.17145"
       id="text5011"><tspan
         sodipodi:role="line"
         id="tspan5009"
         x="60.836456"
         y="398.17145">Mi</tspan></text>
    <text
       id="text5011-0"
       y="398.24329"
       x="55.376499"
       style="font-style:normal;font-variant:normal;font-weight:normal;font-stretch:normal;font-size:4px;line-height:2.62666011px;font-family:Arial;-inkscape-font-specification:Arial"
       xml:space="preserve"><tspan
         y="398.24329"
         x="55.376499"
         id="tspan5009-3"
         sodipodi:role="line">1</tspan></text>
    <text
       id="text5011-00"
       y="397.98227"
       x="29.978239"
       style="font-style:normal;font-variant:normal;font-weight:normal;font-stretch:normal;font-size:4px;line-height:2.62666011px;font-family:Arial;-inkscape-font-specification:Arial"
       xml:space="preserve"><tspan
         y="397.98227"
         x="29.978239"
         id="tspan5009-38"
         sodipodi:role="line">0.5</tspan></text>
    <text
       id="text5011-3"
       y="397.89526"
       x="7.8959045"
       style="font-style:normal;font-variant:normal;font-weight:normal;font-stretch:normal;font-size:4px;line-height:2.62666011px;font-family:Arial;-inkscape-font-specification:Arial"
       xml:space="preserve"><tspan
         y="397.89526"
         x="7.8959045"
         id="tspan5009-6"
         sodipodi:role="line">0</tspan></text>
    <text
       id="text5011-5"
       y="416.40048"
       x="43.011539"
       style="font-style:normal;font-variant:normal;font-weight:normal;font-stretch:normal;font-size:4px;line-height:2.62666011px;font-family:Arial;-inkscape-font-specification:Arial"
       xml:space="preserve"><tspan
         y="416.40048"
         x="43.011539"
         id="tspan5009-0"
         sodipodi:role="line">Km</tspan></text>
    <text
       xml:space="preserve"
       style="font-style:normal;font-variant:normal;font-weight:normal;font-stretch:normal;font-size:4px;line-height:2.62666011px;font-family:Arial;-inkscape-font-specification:Arial"
       x="37.6147"
       y="416.21133"
       id="text5011-0-5"><tspan
         sodipodi:role="line"
         id="tspan5009-3-2"
         x="37.6147"
         y="416.21133">1</tspan></text>
    <text
       xml:space="preserve"
       style="font-style:normal;font-variant:normal;font-weight:normal;font-stretch:normal;font-size:4px;line-height:2.62666011px;font-family:Arial;-inkscape-font-specification:Arial"
       x="20.810118"
       y="416.21133"
       id="text5011-00-0"><tspan
         sodipodi:role="line"
         id="tspan5009-38-7"
         x="20.810118"
         y="416.21133">0.5</tspan></text>
    <text
       xml:space="preserve"
       style="font-style:normal;font-variant:normal;font-weight:normal;font-stretch:normal;font-size:4px;line-height:2.62666011px;font-family:Arial;-inkscape-font-specification:Arial"
       x="7.8802643"
       y="416.29831"
       id="text5011-3-7"><tspan
         sodipodi:role="line"
         id="tspan5009-6-9"
         x="7.8802643"
         y="416.29831">0</tspan></text>
    <text
       xml:space="preserve"
       style="font-style:normal;font-variant:normal;font-weight:bold;font-stretch:normal;font-size:16px;line-height:18.91200066px;font-family:STIXGeneral;-inkscape-font-specification:'STIXGeneral Bold';text-align:start;letter-spacing:0.1px;word-spacing:0px;text-anchor:start;fill:#000000;fill-opacity:1;stroke:none;stroke-width:1.00641"
       x="53.184654"
       y="84.780563"
       id="text10278-3-90"
       transform="scale(1.0028491,0.997159)"><tspan
         sodipodi:role="line"
         x="53.184654"
         y="84.780563"
         style="font-size:16px;text-align:start;text-anchor:start;stroke-width:1.00641"
         id="tspan6356-6">Unit 7</tspan></text>
    <text
       xml:space="preserve"
       style="font-style:italic;font-variant:normal;font-weight:normal;font-stretch:normal;font-size:5.33333015px;line-height:2.33481002px;font-family:sans-serif;-inkscape-font-specification:'sans-serif Italic';letter-spacing:-0.22px"
       x="89.499603"
       y="240.52251"
       id="text5123"><tspan
         sodipodi:role="line"
         id="tspan5121"
         x="89.499603"
         y="240.52251">Waiuha Bay</tspan></text>
    <text
       id="text5123-29"
       y="263.24969"
       x="75.890091"
       style="font-style:italic;font-variant:normal;font-weight:normal;font-stretch:normal;font-size:5.33333015px;line-height:6.82999992px;font-family:sans-serif;-inkscape-font-specification:'sans-serif Italic';text-align:start;letter-spacing:-0.22px;text-anchor:start"
       xml:space="preserve"><tspan
         y="263.24969"
         x="75.890091"
         sodipodi:role="line"
         id="tspan17868">Makaakini Point</tspan></text>
    <text
       id="text5123-1"
       y="250.51048"
       x="80.971573"
       style="font-style:italic;font-variant:normal;font-weight:normal;font-stretch:normal;font-size:5.33333015px;line-height:6.82999992px;font-family:sans-serif;-inkscape-font-specification:'sans-serif Italic';letter-spacing:-0.22px"
       xml:space="preserve"><tspan
         y="250.51048"
         x="80.971573"
         sodipodi:role="line"
         id="tspan17866">Pahonu Point</tspan></text>
    <text
       id="text5123-13"
       y="299.48834"
       x="64.968567"
       style="font-style:italic;font-variant:normal;font-weight:normal;font-stretch:normal;font-size:5.33333015px;line-height:2.33481002px;font-family:sans-serif;-inkscape-font-specification:'sans-serif Italic';letter-spacing:-0.08px"
       xml:space="preserve"><tspan
         y="299.48834"
         x="64.968567"
         id="tspan5121-6"
         sodipodi:role="line">Pacific Ocean</tspan></text>
    <text
       xml:space="preserve"
       style="font-style:normal;font-variant:normal;font-weight:bold;font-stretch:normal;font-size:15.94519997px;line-height:18.84729958px;font-family:STIXGeneral;-inkscape-font-specification:'STIXGeneral Bold';text-align:start;letter-spacing:0px;word-spacing:0px;text-anchor:start;fill:#000000;fill-opacity:1;stroke:none;stroke-width:1.00295997"
       x="22.95962"
       y="47.607937"
       id="text10278-3-90-3-1"
       transform="scale(0.99941065,1.0005897)"><tspan
         sodipodi:role="line"
         x="22.95962"
         y="47.607937"
         style="font-size:15.94519997px;text-align:start;text-anchor:start;stroke-width:1.00295997"
         id="tspan6356-6-1-2">MauiCoastal</tspan></text>
    <text
       id="text5123-4"
       y="167.38408"
       x="120.78804"
       style="font-style:normal;font-variant:normal;font-weight:normal;font-stretch:normal;font-size:5.33333015px;line-height:2.33481002px;font-family:sans-serif;-inkscape-font-specification:sans-serif;letter-spacing:-0.22px"
       xml:space="preserve"
       transform="rotate(0.39586963)"><tspan
         y="167.38408"
         x="120.78804"
         id="tspan5121-5"
         sodipodi:role="line">1000</tspan></text>
    <text
       transform="rotate(-22.414809)"
       xml:space="preserve"
       style="font-style:normal;font-variant:normal;font-weight:normal;font-stretch:normal;font-size:5.33333015px;line-height:2.33481002px;font-family:sans-serif;-inkscape-font-specification:sans-serif;letter-spacing:-0.22px"
       x="-6.5607533"
       y="175.89084"
       id="text5123-4-7"><tspan
         sodipodi:role="line"
         id="tspan5121-5-7"
         x="-6.5607533"
         y="175.89084">1000</tspan></text>
    <text
       transform="rotate(0.39586963)"
       xml:space="preserve"
       style="font-style:normal;font-variant:normal;font-weight:normal;font-stretch:normal;font-size:5.33333015px;line-height:2.33481002px;font-family:sans-serif;-inkscape-font-specification:sans-serif;letter-spacing:-0.22px"
       x="113.7289"
       y="133.92357"
       id="text5123-4-8"><tspan
         sodipodi:role="line"
         id="tspan5121-5-74"
         x="113.7289"
         y="133.92357">2000</tspan></text>
    <text
       transform="rotate(-19.796731)"
       xml:space="preserve"
       style="font-style:normal;font-variant:normal;font-weight:normal;font-stretch:normal;font-size:5.33333015px;line-height:2.33481002px;font-family:sans-serif;-inkscape-font-specification:sans-serif;letter-spacing:-0.22px"
       x="-0.35135248"
       y="145.30409"
       id="text5123-4-6"><tspan
         sodipodi:role="line"
         id="tspan5121-5-5"
         x="-0.35135248"
         y="145.30409">2000</tspan></text>
    <text
       xml:space="preserve"
       style="font-style:italic;font-variant:normal;font-weight:normal;font-stretch:normal;font-size:5.33333015px;line-height:6.82999992px;font-family:sans-serif;-inkscape-font-specification:'sans-serif Italic';text-align:start;letter-spacing:-0.22px;text-anchor:start"
       x="33.389584"
       y="280.17654"
       id="text5123-29-2"><tspan
         id="tspan17868-2"
         sodipodi:role="line"
         x="33.389584"
         y="280.17654">Kailio Point</tspan></text>
    <path
       style="fill:none;stroke:#000000;stroke-width:0.5;stroke-linecap:round;stroke-linejoin:round;stroke-miterlimit:4;stroke-dasharray:none;stroke-dashoffset:0;stroke-opacity:1"
       d="m 81.606097,241.8715 0.0321,-4.06883"
       id="path14359-1-7-5-3-0-73-1-9-8-5-9-03-8-5-3-99"
       inkscape:connector-curvature="0"
       sodipodi:nodetypes="cc" />
    <path
       style="fill:none;stroke:#000000;stroke-width:0.5;stroke-linecap:round;stroke-linejoin:round;stroke-miterlimit:4;stroke-dasharray:none;stroke-dashoffset:0;stroke-opacity:1"
       d="m 79.615313,245.01485 0.0321,-3.54494"
       id="path14359-1-7-5-3-0-73-1-9-8-5-9-03-8-5-3-2"
       inkscape:connector-curvature="0"
       sodipodi:nodetypes="cc" />
    <path
       style="fill:none;stroke:#000000;stroke-width:0.5;stroke-linecap:round;stroke-linejoin:round;stroke-miterlimit:4;stroke-dasharray:none;stroke-dashoffset:0;stroke-opacity:1"
       d="m 76.891082,254.39248 0.0321,-10.46029"
       id="path14359-1-7-5-3-0-73-1-9-8-5-9-03-8-5-3-53"
       inkscape:connector-curvature="0"
       sodipodi:nodetypes="cc" />
    <path
       style="fill:none;stroke:#000000;stroke-width:0.5;stroke-linecap:round;stroke-linejoin:round;stroke-miterlimit:4;stroke-dasharray:none;stroke-dashoffset:0;stroke-opacity:1"
       d="m 74.638353,256.17371 0.0321,-7.15978"
       id="path14359-1-7-5-3-0-73-1-9-8-5-9-03-8-5-3-39"
       inkscape:connector-curvature="0"
       sodipodi:nodetypes="cc" />
  </g>
</svg>
