<?xml version="1.0" encoding="UTF-8" standalone="no"?>
<svg
   xmlns:dc="http://purl.org/dc/elements/1.1/"
   xmlns:cc="http://creativecommons.org/ns#"
   xmlns:rdf="http://www.w3.org/1999/02/22-rdf-syntax-ns#"
   xmlns:svg="http://www.w3.org/2000/svg"
   xmlns="http://www.w3.org/2000/svg"
   xmlns:sodipodi="http://sodipodi.sourceforge.net/DTD/sodipodi-0.dtd"
   xmlns:inkscape="http://www.inkscape.org/namespaces/inkscape"
   version="1.1"
   id="svg14398"
   width="526.08002"
   height="659.20001"
   viewBox="0 0 526.08002 659.20001"
   sodipodi:docname="er30ap15.042.svg"
   inkscape:version="1.0 (4035a4f, 2020-05-01)">
  <metadata
     id="metadata14404">
    <rdf:RDF>
      <cc:Work
         rdf:about="">
        <dc:format>image/svg+xml</dc:format>
        <dc:type
           rdf:resource="http://purl.org/dc/dcmitype/StillImage" />
        <dc:title></dc:title>
      </cc:Work>
    </rdf:RDF>
  </metadata>
  <defs
     id="defs14402" />
  <sodipodi:namedview
     inkscape:document-rotation="0"
     pagecolor="#ffffff"
     bordercolor="#666666"
     borderopacity="1"
     objecttolerance="10"
     gridtolerance="10"
     guidetolerance="10"
     inkscape:pageopacity="0"
     inkscape:pageshadow="2"
     inkscape:window-width="1280"
     inkscape:window-height="751"
     id="namedview14400"
     showgrid="false"
     inkscape:zoom="0.79333099"
     inkscape:cx="298.65158"
     inkscape:cy="281.34758"
     inkscape:window-x="0"
     inkscape:window-y="23"
     inkscape:window-maximized="0"
     inkscape:current-layer="g14406" />
  <g
     inkscape:groupmode="layer"
     inkscape:label="Image"
     id="g14406">
    <path
       style="fill:none;fill-opacity:1;stroke:#000000;stroke-width:0.666667;stroke-linecap:round;stroke-linejoin:round;stroke-miterlimit:4;stroke-dasharray:none;stroke-opacity:1"
       d="m 2.0569441,135.98115 6.5789277,6.93555 1.4253452,0.85341 6.160132,7.07343 8.194011,10.85452 8.151299,13.62932 c 1.023823,1.71188 1.130694,4.74989 0.815419,7.59722 l -1.217237,10.99319 c -0.102531,0.92599 -0.302256,2.35776 1.154446,3.02493 l 5.331471,2.44182"
       id="path14359-1-7-5-3-0-73-1-9-8-5-14-1-3"
       inkscape:connector-curvature="0"
       sodipodi:nodetypes="cccccssssc" />
    <path
       style="fill:none;fill-opacity:1;stroke:#000000;stroke-width:0.666667;stroke-linecap:round;stroke-linejoin:round;stroke-miterlimit:4;stroke-dasharray:none;stroke-opacity:1"
       d="m 2.5503708,133.51401 7.3145177,8.02036 1.5125545,0.93626 6.043292,7.01493 8.550016,11.135 8.286251,13.53893 c 1.539304,2.51507 1.300529,5.34595 1.025003,8.39208 l -1.126308,12.45213 5.564152,3.06503"
       id="path14359-1-7-5-3-0-73-1-9-8-5-14-8-5"
       inkscape:connector-curvature="0"
       sodipodi:nodetypes="cccccsscc" />
    <path
       sodipodi:nodetypes="ssscccccccccccccccccccccccsss"
       inkscape:connector-curvature="0"
       id="path14359-1-7-5-3-0-73-1-9-8-5-14-9-6-6"
       d="m 512.27318,626.29954 c 1.43164,-11.5053 -6.68364,-22.16285 -18.15264,-23.58997 -11.46903,-1.42711 -21.92701,6.74283 -23.35864,18.24813 -0.77664,6.24146 1.88907,12.43672 5.74861,16.79411 v 0 l 7.43611,-15.70206 v 0 l -0.69254,-0.47506 0.48726,-3.89972 -7.43108,-0.92467 17.80716,-12.70832 14.21417,16.69281 -6.36151,-0.79157 -0.48726,3.89971 -18.22874,-2.26824 0.69254,0.47506 5.75021,0.71551 4.16609,9.49576 3.64532,-8.52377 6.63426,0.82552 -7.36318,16.18986 -5.57114,-0.69323 -4.41057,-9.4732 -3.93545,8.43469 -6.1621,-0.65435 v 0 c 3.10007,2.8463 7.86368,5.61346 12.21447,6.1811 11.46033,1.49517 21.92705,-6.74286 23.35868,-18.24816 z"
       style="fill:#000000;fill-opacity:1;stroke:#000000;stroke-width:2.06006;stroke-linecap:butt;stroke-linejoin:miter;stroke-miterlimit:4;stroke-dasharray:none;stroke-opacity:1" />
    <path
       sodipodi:nodetypes="sssss"
       id="path31853"
       style="fill:none;stroke:#000000;stroke-width:2.66666667;stroke-linecap:butt;stroke-linejoin:miter;stroke-miterlimit:4;stroke-dasharray:none;stroke-dashoffset:2.93333;stroke-opacity:1"
       d="m 512.29376,626.13421 c -1.43163,11.50528 -11.91562,19.88382 -23.38462,18.4567 -11.46899,-1.42713 -19.57992,-12.11947 -18.14829,-23.62474 1.43163,-11.50527 11.88964,-19.67523 23.35863,-18.24812 11.469,1.42711 19.60591,11.91088 18.17428,23.41616 z" />
    <path
       style="fill:none;fill-opacity:1;stroke:#000000;stroke-width:2.66666667;stroke-linecap:butt;stroke-linejoin:miter;stroke-miterlimit:4;stroke-dasharray:none;stroke-opacity:1"
       d="m 508.33188,620.73483 -6.3615,-0.79158 -0.48726,3.89972 -18.22874,-2.26825 0.48726,-3.89971 -7.43108,-0.92467 17.80715,-12.70833 z"
       id="path14359-1-7-5-3-0-73-1-9-8-5-14-9-6"
       inkscape:connector-curvature="0"
       sodipodi:nodetypes="cccccccc" />
    <path
       style="fill:none;fill-opacity:1;stroke:#000000;stroke-width:2.66666667;stroke-linecap:butt;stroke-linejoin:miter;stroke-miterlimit:4;stroke-dasharray:none;stroke-opacity:1"
       d="m 476.51051,637.75181 7.43611,-15.70206 5.75021,0.71551 4.16609,9.49576 3.64532,-8.52377 6.63426,0.82552 -7.36318,16.18986 -5.57114,-0.69323 -4.41057,-9.4732 -3.93545,8.43469 -6.03405,-0.75083"
       id="path14359-1-7-5-3-0-73-1-9-8-5-14-9-2"
       inkscape:connector-curvature="0"
       sodipodi:nodetypes="ccccccccccc" />
    <text
       xml:space="preserve"
       style="font-size:5.33333px;line-height:2.53333px;font-family:Arial;-inkscape-font-specification:Arial;letter-spacing:0.25px"
       x="478.76395"
       y="657.4245"
       id="text7633"><tspan
         sodipodi:role="line"
         id="tspan7631"
         x="478.76395"
         y="657.4245">1:100,000</tspan></text>
    <path
       style="fill:none;fill-opacity:1;stroke:#000000;stroke-width:0.666667;stroke-linecap:round;stroke-linejoin:round;stroke-miterlimit:4;stroke-dasharray:none;stroke-opacity:1"
       d="m 177.87197,614.04904 -0.002,7.28837 42.60396,0 0.002,-7.28837"
       id="path14359-1-7-5-3-0-73-1-9-8-5-14-9"
       inkscape:connector-curvature="0"
       sodipodi:nodetypes="cccc" />
    <path
       sodipodi:nodetypes="cccc"
       inkscape:connector-curvature="0"
       id="path14359-1-7-5-3-0-73-1-9-8-5-14-9-9"
       d="m 177.87197,633.63546 -0.002,-6.87799 26.69749,0 0.002,6.87799"
       style="fill:none;fill-opacity:1;stroke:#000000;stroke-width:0.667;stroke-linecap:round;stroke-linejoin:round;stroke-miterlimit:4;stroke-dasharray:none;stroke-opacity:1" />
    <path
       sodipodi:nodetypes="csc"
       inkscape:connector-curvature="0"
       id="path14359-1-7-5-3-0-73-1-9-8-5-14-6"
       d="m 328.45511,624.69917 c -4.69718,5.09319 -11.20702,3.75723 -14.08613,-0.49254 -3.13488,-4.6273 -9.64191,-6.86382 -14.62106,-0.53891"
       style="fill:none;fill-opacity:1;stroke:#000000;stroke-width:4;stroke-linecap:round;stroke-linejoin:round;stroke-miterlimit:4;stroke-dasharray:none;stroke-opacity:1" />
    <text
       xml:space="preserve"
       style="font-size:9.33333000000000013px;line-height:4.43334000000000028px;font-family:Arial;-inkscape-font-specification:Arial;letter-spacing:0px;stroke:none;stroke-opacity:1;"
       x="209.78487"
       y="642.79584"
       id="text6394"><tspan
         sodipodi:role="line"
         id="tspan6392"
         x="209.78487"
         y="642.79584">Kilometers</tspan></text>
    <text
       id="text6394-3"
       y="611.36035"
       x="225.91599"
       style="font-size:9.33333px;line-height:12.45px;font-family:Arial;-inkscape-font-specification:Arial;letter-spacing:0px"
       xml:space="preserve"><tspan
         y="611.36035"
         x="225.91599"
         id="tspan6392-4"
         sodipodi:role="line">Miles</tspan></text>
    <text
       xml:space="preserve"
       style="font-size:9.33333px;line-height:5.69999px;font-family:Arial;-inkscape-font-specification:Arial;letter-spacing:0px"
       x="217.81458"
       y="611.44495"
       id="text6394-3-6"><tspan
         sodipodi:role="line"
         id="tspan6392-4-8"
         x="217.81458"
         y="611.44495">1</tspan></text>
    <text
       xml:space="preserve"
       style="font-size:9.33333px;line-height:5.69999px;font-family:Arial;-inkscape-font-specification:Arial;letter-spacing:0px"
       x="175.17661"
       y="611.51031"
       id="text6394-3-60"><tspan
         sodipodi:role="line"
         id="tspan6392-4-2"
         x="175.17661"
         y="611.51031">0</tspan></text>
    <text
       xml:space="preserve"
       style="font-size:9.33333px;line-height:5.69999px;font-family:Arial;-inkscape-font-specification:Arial;letter-spacing:0px"
       x="175.10623"
       y="642.71515"
       id="text6394-3-7"><tspan
         sodipodi:role="line"
         id="tspan6392-4-9"
         x="175.10623"
         y="642.71515">0</tspan></text>
    <text
       xml:space="preserve"
       style="font-size:9.33333px;line-height:5.69999px;font-family:Arial;-inkscape-font-specification:Arial;letter-spacing:0px"
       x="201.50305"
       y="642.52972"
       id="text6394-3-1"><tspan
         sodipodi:role="line"
         id="tspan6392-4-6"
         x="201.50305"
         y="642.52972">1</tspan></text>
    <text
       xml:space="preserve"
       style="font-size:12px;line-height:5.69999px;font-family:Arial;-inkscape-font-specification:Arial;letter-spacing:0px"
       x="343.88132"
       y="628.59882"
       id="text6394-3-8"><tspan
         sodipodi:role="line"
         id="tspan6392-4-4"
         x="343.88132"
         y="628.59882">Critical Habitat</tspan></text>
    <text
       id="text6394-3-4-4-6-6-3-1"
       y="15.9734"
       x="2.7938728"
       style="font-style:normal;font-variant:normal;font-weight:normal;font-stretch:normal;font-size:20px;line-height:21.64620000000000033px;font-family:'Arial Narrow';-inkscape-font-specification:'Arial Narrow';letter-spacing:0.22px"
       xml:space="preserve"><tspan
         id="tspan8406"
         y="15.9734"
         x="2.7938728"
         sodipodi:role="line">Map of Unit RF24 (Muddy Creek) of critical habitat for Rabbitsfoot</tspan></text>
    <path
       sodipodi:nodetypes="cc"
       inkscape:connector-curvature="0"
       id="path14359-1-7-5-3-0-73-1-9-8-5-14-90-3-2-5-4-8-2-1-0-4-3"
       d="m 36.285226,204.94753 -0.002,-0.1583"
       style="fill:none;fill-opacity:1;stroke:#000000;stroke-width:8.66667;stroke-linecap:round;stroke-linejoin:round;stroke-miterlimit:4;stroke-dasharray:none;stroke-opacity:1" />
    <text
       id="text6394-3-4-4-6-6-2-3-9-5-1-6-1-8-3-6-3-3-3-8"
       y="407.1478"
       x="393.99146"
       style="font-style:normal;font-variant:normal;font-weight:bold;font-stretch:normal;font-size:10.6667px;line-height:5.06665px;font-family:'Arial Narrow';-inkscape-font-specification:'Arial Narrow Bold';letter-spacing:0.23px"
       xml:space="preserve"
       transform="rotate(-0.38849083)"><tspan
         y="407.1478"
         x="393.99146"
         id="tspan6392-4-25-4-1-6-4-7-7-2-4-9-0-6-3-7-4-8-7-4"
         sodipodi:role="line">Little Cooley</tspan></text>
    <text
       id="text6394-3-4-4-6-6-2-3-9-5-1-6-1-8-3-6-3-3-3-9"
       y="189.08517"
       x="52.494598"
       style="font-style:normal;font-variant:normal;font-weight:bold;font-stretch:normal;font-size:10.66670000000000051px;line-height:9.46667000000000058px;font-family:'Arial Narrow';-inkscape-font-specification:'Arial Narrow Bold';text-align:start;letter-spacing:0.25px;text-anchor:start"
       xml:space="preserve"
       transform="rotate(-0.38849083)"><tspan
         id="tspan13951"
         y="189.08517"
         x="52.494598"
         sodipodi:role="line">Cambridge Springs</tspan></text>
    <text
       xml:space="preserve"
       style="font-style:italic;font-variant:normal;font-weight:normal;font-stretch:normal;font-size:10.66670000000000051px;line-height:13.59999999999999964px;font-family:Arial;-inkscape-font-specification:'Arial Italic';letter-spacing:0.33px"
       x="19.659019"
       y="627.52094"
       id="text17715-5-3"><tspan
         sodipodi:role="line"
         x="19.659019"
         y="627.52094"
         id="tspan17717-2-1">PENNSYLVANIA</tspan></text>
    <path
       style="fill:none;fill-opacity:1;stroke:#000000;stroke-width:1.33333333;stroke-linecap:round;stroke-linejoin:round;stroke-miterlimit:4;stroke-dasharray:none;stroke-dashoffset:0;stroke-opacity:1"
       d="m 99.155948,651.51721 c -28.841246,0.48255 -57.45648,0.061 -86.002941,-0.63561 l 1.632276,-53.45654 2.771389,-0.96564 3.407393,-1.83477 c 0.424589,-0.35179 0.625044,-1.12907 1.048434,-1.46779 0.09989,-0.0799 0.860192,0.43099 1.310536,0.2621 0.721661,-0.27062 1.595853,-0.68942 2.254126,-1.10084 0.81677,-0.51049 1.658571,-1.20569 2.6735,-1.20569 l 0.15726,6.29057 14.468346,0.31453 h 38.529818 l 24.638105,-0.62906 c 0.39294,0.32868 0.50536,0.76538 0.68149,1.2057 0.10946,0.27366 0.63763,0.20492 0.78632,0.57664 0.14167,0.35418 -1.1e-4,0.95845 0.2621,1.25812 0.4466,0.51038 1.49287,0.0918 1.78234,0.31453 0.5455,0.41961 1.12125,0.93536 1.41538,1.57264 1.04453,2.26314 -0.36534,4.60027 1.78233,6.55269 0.56799,0.51635 2.23667,1.69933 2.98803,1.88718 1.32218,0.33053 1.66408,-0.47913 2.35896,1.25811 0.0108,0.027 0.0129,0.28874 0,0.31453 -0.0949,0.18974 -0.89201,0.35335 -1.10084,0.52422 -0.62118,0.50823 -1.18886,1.34081 -1.57265,2.04443 -0.60089,1.10164 -0.78542,2.50024 -1.62507,3.45982 -0.29698,0.33941 -0.72345,0.48047 -1.04843,0.78632 -0.27907,0.26265 -0.46746,0.62617 -0.78632,0.83874 -0.0436,0.0291 -0.10485,0 -0.15726,0 -0.0874,0.0349 -0.18864,0.046 -0.26212,0.10485 -0.27318,0.21855 -0.77825,0.81453 -0.89116,1.15328 -0.15939,0.47818 1.5378,1.78202 1.10085,3.09287 -0.0699,0.15726 -0.13979,0.31453 -0.20969,0.4718 -0.18269,0.41106 -0.40879,0.88058 -0.73389,1.20569 -0.36601,0.36601 -0.77466,0.39018 -0.99602,0.94358 -0.22765,0.56916 -0.29963,3.56883 0.10485,4.08888 0.40598,0.52197 1.67496,-0.16482 1.99202,0.78632 0.23925,0.71775 -0.11858,1.52644 -0.0525,2.25413 0.092,1.01265 1.75494,0.87747 2.4114,1.20569 0.32733,0.16367 -0.0747,1.12676 0.2621,1.41539 0.5653,0.48453 -0.21975,-0.22654 0.52422,0.31452 0.28672,0.20853 0.42556,0.55886 0.68148,0.78633 0.2928,0.26026 0.59504,0.52309 0.89117,0.78632 0.42125,0.37445 0.95812,0.4561 1.25811,0.94359 0.21284,0.34586 0.28913,0.60688 0.36696,0.99601 0.0208,0.10422 -0.0539,0.31453 0.0524,0.31453 0.035,0 0.0247,-0.12956 0,-0.10485 -0.39193,0.39193 0.23496,0.0464 -0.31453,0.36695 -0.57218,0.33378 -1.2061,0.57105 -1.78233,0.89117 -0.46325,0.25736 -0.78055,0.63991 -1.2057,0.94359 -1.04217,0.74441 -2.38884,1.18315 -3.30255,2.09686 -0.55156,0.55156 -0.0393,1.23609 -0.36696,1.78232 -0.14724,0.24543 -0.49333,0.43918 -0.73388,0.57665 -0.65783,0.37589 -1.19941,0.57211 -1.9396,0.62906 -0.33036,0.0254 -0.67063,-0.0477 -0.99602,0.0525 -0.65305,0.20093 -0.37131,1.25812 -1.10085,1.25812 -0.50211,0 -0.9159,-0.4665 -1.36296,-0.62907 -0.68041,-0.24742 -2.64755,-0.0689 -3.25013,0.31453 -0.15122,0.0962 -1.11021,0.69084 -1.2057,0.78633 -0.34799,0.34799 -0.55737,0.81177 -0.838744,1.20569 -0.105697,0.14798 -0.340007,0.20824 -0.419376,0.36696 -0.160216,0.32043 0.187039,0.11625 -0.335553,0.43456 z"
       id="path14359-1-7-5-3-0-73-1-9-8-5-14-6-1-2-43-27-3-1"
       inkscape:connector-curvature="0"
       sodipodi:nodetypes="ccc" />
    <path
       style="fill:#000000;fill-opacity:1;stroke:#000000;stroke-width:1.33333;stroke-linecap:round;stroke-linejoin:round;stroke-miterlimit:4;stroke-dasharray:none;stroke-opacity:1"
       d="m 22.715359,600.53253 0.02869,4.32731 4.068322,-0.003 0.04462,-4.31804 z"
       id="path14359-1-7-5-3-0-73-1-9-8-5-14-2"
       inkscape:connector-curvature="0"
       sodipodi:nodetypes="ccccc" />
    <path
       sodipodi:nodetypes="csssc"
       inkscape:connector-curvature="0"
       id="path14359-1-7-5-3-0-73-1-9-8-5-14-6-1-2-43-27-1-9-1-0-3"
       d="m 524.96379,60.710028 -443.034975,-0.0122 c -7.650433,-2.1e-4 -15.566114,0.692767 -22.923092,0.707338 -6.189155,0.01226 -11.513914,-0.853483 -16.980065,-0.707623 -10.793751,0.288024 -27.327023,1.811802 -40.6074745,2.546894"
       style="fill:none;fill-opacity:1;stroke:#8d8d8d;stroke-width:2.66667;stroke-linecap:butt;stroke-linejoin:round;stroke-miterlimit:4;stroke-dasharray:none;stroke-opacity:1" />
    <path
       sodipodi:nodetypes="cccccsssssssssssc"
       inkscape:connector-curvature="0"
       id="path14359-1-7-5-3-0-73-1-9-8-5-14-1"
       d="m 114.62005,35.161151 -23.302207,49.154118 -4.479365,14.465517 -5.901759,11.401534 -6.832925,11.88088 -9.733558,20.49269 c -1.039011,2.1875 -4.08691,6.67016 -7.405863,15.25134 -2.260177,5.8437 -4.909173,12.31105 -6.801249,18.39043 -1.314277,4.22287 -1.274427,7.09995 -2.960352,10.13085 -0.833378,1.49823 -3.210389,3.27364 -4.600776,5.50681 -1.389414,2.2316 -1.747915,4.63471 -2.833166,6.22328 l -13.539249,18.98083 c -0.95484,1.3386 -1.866456,2.48168 -2.101189,3.89071 l -9.444788,57.12245 c -0.470346,2.84468 -1.109054,5.45178 -2.457688,7.76105 l -8.1488842,13.95334 c -0.4352837,0.74534 -1.0407669,1.3834 -1.7490756,1.69924"
       style="fill:none;fill-opacity:1;stroke:#000000;stroke-width:0.666667;stroke-linecap:round;stroke-linejoin:round;stroke-miterlimit:4;stroke-dasharray:none;stroke-opacity:1" />
    <path
       sodipodi:nodetypes="cccccsssssssssssc"
       inkscape:connector-curvature="0"
       id="path14359-1-7-5-3-0-73-1-9-8-5-14-8"
       d="m 116.92043,35.161151 -23.569883,49.722352 -4.535732,14.586145 -5.788632,11.160732 -6.814742,11.84249 -9.871178,20.77191 c -1.574955,3.31418 -3.936193,6.15808 -7.663547,15.16741 -2.498576,6.03926 -4.921756,12.25884 -6.725565,18.44765 -1.044238,3.58275 -1.653808,7.51224 -3.376436,10.50851 -1.203537,2.09339 -3.041903,3.21972 -4.016237,5.19354 -1.264009,2.56065 -2.426789,5.13423 -3.787437,7.10611 L 28.03767,217.74168 c -0.903126,1.28189 -1.59063,2.40321 -1.819248,3.76562 l -9.658419,57.34635 c -0.432865,2.57011 -1.338414,5.229 -2.7165,7.6433 l -8.7418395,15.31502 c -0.7245119,1.26928 -1.7919861,1.94415 -2.6879791,2.72619"
       style="fill:none;fill-opacity:1;stroke:#000000;stroke-width:0.666667;stroke-linecap:round;stroke-linejoin:round;stroke-miterlimit:4;stroke-dasharray:none;stroke-opacity:1" />
    <path
       sodipodi:nodetypes="cssc"
       inkscape:connector-curvature="0"
       id="path14359-1-7-5-3-0-73-1-9-8-5-14-1-7"
       d="m 509.89347,35.079297 10.26951,21.78948 c 0.98937,2.099203 1.48678,4.3415 1.92929,6.521098 l 2.27102,11.186073"
       style="fill:none;fill-opacity:1;stroke:#000000;stroke-width:0.666667;stroke-linecap:round;stroke-linejoin:round;stroke-miterlimit:4;stroke-dasharray:none;stroke-opacity:1" />
    <path
       sodipodi:nodetypes="cssc"
       inkscape:connector-curvature="0"
       id="path14359-1-7-5-3-0-73-1-9-8-5-14-8-7"
       d="m 507.56203,35.0165 10.71765,23.085689 c 0.71294,1.535674 1.32616,2.994294 1.62064,4.457811 l 4.48741,22.302186"
       style="fill:none;fill-opacity:1;stroke:#000000;stroke-width:0.666667;stroke-linecap:round;stroke-linejoin:round;stroke-miterlimit:4;stroke-dasharray:none;stroke-opacity:1" />
    <path
       sodipodi:nodetypes="cccsssscssc"
       inkscape:connector-curvature="0"
       id="path14359-1-7-5-3-0-73-1-9-8-5-14-1-7-6"
       d="m 524.33555,165.774 -16.07816,24.70625 -9.93078,19.3243 0.083,8.89074 c 0.0375,4.01356 0.67064,7.01182 0.7126,10.30321 l 0.0837,6.5632 c 0.0177,1.39196 -1.0458,2.74011 -1.04581,3.9894 l -3e-5,2.742 9.1666,3.30687 c 2.98736,1.07769 6.06654,3.3825 8.63763,5.29903 l 8.2862,6.17666"
       style="fill:none;fill-opacity:1;stroke:#000000;stroke-width:0.666667;stroke-linecap:round;stroke-linejoin:round;stroke-miterlimit:4;stroke-dasharray:none;stroke-opacity:1" />
    <path
       sodipodi:nodetypes="cccssssssssc"
       inkscape:connector-curvature="0"
       id="path14359-1-7-5-3-0-73-1-9-8-5-14-8-7-3"
       d="m 524.10761,162.45036 -17.33198,26.62402 -10.17252,20.23164 0.0829,13.6269 c 0.0148,2.42553 0.46749,4.64094 0.48641,6.81403 l 0.0513,5.88765 c 0.0133,1.52785 -0.78715,2.97369 -0.78717,4.49814 l -4e-5,3.07437 c -10e-6,0.62852 0.48925,0.8937 1.3966,1.20534 l 8.47347,2.91027 c 3.00381,1.03168 6.34261,3.36421 8.70626,5.24488 l 9.42517,7.49933"
       style="fill:none;fill-opacity:1;stroke:#000000;stroke-width:0.666667;stroke-linecap:round;stroke-linejoin:round;stroke-miterlimit:4;stroke-dasharray:none;stroke-opacity:1" />
    <path
       sodipodi:nodetypes="cssssccsssscsccccccsssssssccccsc"
       inkscape:connector-curvature="0"
       id="path14359-1-7-5-3-0-73-1-9-8-5-14-1-7-9"
       d="m 524.13078,316.75017 c -2.49391,0.83828 -5.01949,1.59227 -7.17576,2.82081 -2.72299,1.55143 -4.56392,3.73643 -6.93467,4.98555 l -12.26557,6.46256 c -2.06072,1.08576 -4.04181,1.75781 -5.65179,2.60609 l -14.81071,7.80356 -10.48519,5.57319 -38.38157,20.61838 c -8.90632,4.78443 -12.8248,9.57093 -18.2142,13.31291 l -10.8228,7.51452 c -5.78635,4.0176 -9.93328,11.57561 -19.186,16.53306 l -8.81472,4.72279 c -9.48638,3.12435 -26.62755,6.31321 -35.2007,11.8155 l -32.663,20.96325 -8.68413,5.08359 -9.97408,5.1271 -34.43225,18.0931 -23.37122,12.23985 -33.02966,20.50515 -11.93474,6.83826 c -2.64132,1.51339 -5.59576,2.78114 -8.11302,3.03286 l -2.2201,0.222 c -1.52988,0.15299 -3.04878,0.74631 -4.29321,2.04386 -1.09655,1.14335 -1.00921,2.63474 -0.95247,4.11275 l 0.1001,2.60745 c 0.1181,3.07629 -2.60034,5.47559 -4.88844,7.30065 l -16.51173,13.17033 -16.5018,12.19056 -13.88321,8.36685 -4.62561,3.93609 -15.783463,9.82992 c -0.801429,0.49913 -1.949961,1.01281 -2.108896,1.79123"
       style="fill:none;fill-opacity:1;stroke:#000000;stroke-width:0.666667;stroke-linecap:round;stroke-linejoin:round;stroke-miterlimit:4;stroke-dasharray:none;stroke-opacity:1" />
    <path
       sodipodi:nodetypes="cssssccsssscsccccccsssssssccccsc"
       inkscape:connector-curvature="0"
       id="path14359-1-7-5-3-0-73-1-9-8-5-14-8-7-32"
       d="m 523.90614,314.65723 c -2.80385,1.08222 -5.48999,2.12364 -7.99486,3.24667 -2.75832,1.23667 -4.49809,3.69796 -7.02401,5.02693 l -12.2259,6.43244 c -2.32091,1.22111 -4.04363,1.75581 -5.65355,2.60284 l -14.48091,7.61888 -10.90517,5.78758 -38.02594,20.39838 c -9.57149,5.13446 -14.30677,10.25854 -19.3929,13.94009 l -8.78648,6.36003 c -7.46347,5.40238 -11.72358,12.75603 -19.75185,16.98221 l -9.01398,4.74506 c -10.64532,3.642 -25.55298,5.59401 -35.80003,12.12145 l -32.53924,20.72771 -8.4904,4.97036 -9.94786,5.31916 -34.51283,18.29606 -23.24497,11.94669 -33.32439,20.60948 -11.50335,6.66013 c -2.36276,1.36797 -4.82165,2.86807 -7.50547,3.12205 l -2.07841,0.19668 c -1.87288,0.17724 -3.74692,0.91268 -5.31929,2.41845 -1.57463,1.50792 -1.72882,3.59263 -1.59604,5.62578 l 0.15621,2.39187 c 0.16919,2.59067 -2.57793,4.56743 -4.529,6.11308 l -16.43618,13.02079 -16.72738,12.4741 -13.53084,8.2405 -4.57337,3.94445 -17.353696,10.77308 c -1.076172,0.66808 -2.213519,1.2448 -2.837353,2.59159"
       style="fill:none;fill-opacity:1;stroke:#000000;stroke-width:0.666667;stroke-linecap:round;stroke-linejoin:round;stroke-miterlimit:4;stroke-dasharray:none;stroke-opacity:1" />
    <path
       sodipodi:nodetypes="cssssc"
       inkscape:connector-curvature="0"
       id="path14359-1-7-5-3-0-73-1-9-8-5-14-1-7-0"
       d="m 2.2927747,540.13384 15.5441393,5.54301 c 2.521162,0.89904 4.183035,2.27565 5.902041,3.74942 l 24.189303,20.73843 c 1.538629,1.31913 3.380257,2.19848 4.656828,3.6785 1.237739,1.435 2.095289,3.22794 2.822487,5.12401"
       style="fill:none;fill-opacity:1;stroke:#000000;stroke-width:0.666667;stroke-linecap:round;stroke-linejoin:round;stroke-miterlimit:4;stroke-dasharray:none;stroke-opacity:1" />
    <path
       sodipodi:nodetypes="cssssc"
       inkscape:connector-curvature="0"
       id="path14359-1-7-5-3-0-73-1-9-8-5-14-8-7-5"
       d="m 1.842028,542.15995 15.390392,5.17227 c 2.182678,0.73353 3.617816,2.14085 5.136457,3.43839 l 24.465293,20.90351 c 1.564293,1.33656 3.31104,2.17605 4.420398,3.53716 0.952531,1.16869 1.597879,2.49097 1.836242,4.01674"
       style="fill:none;fill-opacity:1;stroke:#000000;stroke-width:0.666667;stroke-linecap:round;stroke-linejoin:round;stroke-miterlimit:4;stroke-dasharray:none;stroke-opacity:1" />
    <path
       sodipodi:nodetypes="cssssc"
       inkscape:connector-curvature="0"
       id="path14359-1-7-5-3-0-73-1-9-8-5-14-1-7-2"
       d="m 278.99595,455.84395 3.93409,101.95811 c 0.0293,0.76043 0.63204,1.7987 2.09578,2.03107 l 9.6877,1.53789 c 3.52362,0.55936 6.9507,1.70124 10.15292,3.3333 l 29.20104,14.88278"
       style="fill:none;fill-opacity:1;stroke:#000000;stroke-width:0.666667;stroke-linecap:round;stroke-linejoin:round;stroke-miterlimit:4;stroke-dasharray:none;stroke-opacity:1" />
    <path
       sodipodi:nodetypes="cssssc"
       inkscape:connector-curvature="0"
       id="path14359-1-7-5-3-0-73-1-9-8-5-14-8-7-38"
       d="m 276.85877,454.70674 3.97942,103.01427 c 0.0719,1.86141 1.26689,3.67469 3.16738,3.98024 l 10.50869,1.68955 c 3.32349,0.53433 6.55482,1.6383 9.60586,3.19238 l 25.21084,12.84146"
       style="fill:none;fill-opacity:1;stroke:#000000;stroke-width:0.666667;stroke-linecap:round;stroke-linejoin:round;stroke-miterlimit:4;stroke-dasharray:none;stroke-opacity:1" />
    <path
       sodipodi:nodetypes="cc"
       inkscape:connector-curvature="0"
       id="path14359-1-7-5-3-0-73-1-9-8-5-14-1-7-4"
       d="m 283.21988,559.00527 0.72906,20.33813"
       style="fill:none;fill-opacity:1;stroke:#000000;stroke-width:0.666667;stroke-linecap:round;stroke-linejoin:round;stroke-miterlimit:4;stroke-dasharray:none;stroke-opacity:1" />
    <path
       sodipodi:nodetypes="cc"
       inkscape:connector-curvature="0"
       id="path14359-1-7-5-3-0-73-1-9-8-5-14-8-7-37"
       d="m 281.16393,559.33019 0.81029,19.85075"
       style="fill:none;fill-opacity:1;stroke:#000000;stroke-width:0.666667;stroke-linecap:round;stroke-linejoin:round;stroke-miterlimit:4;stroke-dasharray:none;stroke-opacity:1" />
    <path
       sodipodi:nodetypes="ccsssssssscsssscsssscssssssc"
       inkscape:connector-curvature="0"
       id="path14359-1-7-5-3-0-73-1-9-8-5-14-1-7-61"
       d="m 2.1661856,225.15248 12.9784894,-8.58499 14.815654,-9.04474 c 2.092614,-1.27751 4.72641,-1.03734 7.013743,-0.44452 l 9.829373,2.54755 c 5.06588,1.31295 9.26362,4.48705 13.499072,7.25342 l 9.994029,6.52759 c 13.404306,8.75499 26.924889,12.0685 30.265144,12.07258 l 2.13282,0.003 c 1.37919,0.002 2.34504,1.3382 2.32944,2.84794 l -0.0992,9.6005 7.42002,-0.13993 c 0.78559,-0.0148 1.4787,-0.0657 2.12399,0.38909 l 50.15732,35.34884 c 3.96366,2.79343 13.93988,4.01649 16.30467,5.63756 l 31.13631,21.34408 10.04743,4.75315 c 1.08669,0.51408 2.27682,0.88579 2.90537,2.01007 l 9.37215,16.76384 c 1.77741,3.17923 3.75064,6.22255 6.1556,8.97696 l 17.8682,20.46461 9.87858,10.00317 c 2.3258,2.35513 6.95229,5.11405 7.94123,6.28356 l 2.56908,3.03821 c 0.85262,1.00831 1.47772,3.30096 1.47371,4.98558 l -0.0344,14.45948 c -0.006,2.56361 2.24986,4.48934 2.34019,6.82617 l 1.68971,43.71317"
       style="fill:none;fill-opacity:1;stroke:#000000;stroke-width:0.666667;stroke-linecap:round;stroke-linejoin:round;stroke-miterlimit:4;stroke-dasharray:none;stroke-opacity:1" />
    <path
       sodipodi:nodetypes="ccsssssscsscsscsssscssssssc"
       inkscape:connector-curvature="0"
       id="path14359-1-7-5-3-0-73-1-9-8-5-14-8-7-8"
       d="m 2.5471173,227.34568 13.4458587,-9.01533 14.631284,-9.13167 c 1.538669,-0.96032 3.49564,-0.88807 5.463878,-0.34665 l 10.276454,2.82685 c 4.701924,1.29341 8.575328,3.88883 12.534608,6.53497 l 10.081757,6.73802 c 13.255505,8.85916 27.52982,12.47262 31.337223,12.47818 l 2.4987,0.004 0.0198,10.75578 c 0.002,1.12017 1.19904,1.62527 2.19302,1.60587 l 8.02698,-0.15672 50.43476,35.55493 c 4.06966,2.86898 14.26454,4.284 16.72428,5.97939 l 29.23996,20.15378 12.36175,5.91394 c 0.62915,0.30098 1.25035,0.47582 1.79669,1.4283 l 9.49378,16.55139 c 1.96433,3.4246 3.88829,6.60697 6.10208,9.13543 l 18.08656,20.65734 10.29632,10.5742 c 2.27709,2.33854 6.54249,4.43909 7.70776,6.01611 l 2.1049,2.84868 c 0.56378,0.76299 0.75263,1.78101 0.75258,2.84961 l -6.7e-4,15.4342 c -1.1e-4,2.70267 2.32906,4.9109 2.43934,7.47816 l 1.78357,41.51794"
       style="fill:none;fill-opacity:1;stroke:#000000;stroke-width:0.666667;stroke-linecap:round;stroke-linejoin:round;stroke-miterlimit:4;stroke-dasharray:none;stroke-opacity:1" />
    <path
       style="fill:none;fill-opacity:1;stroke:#000000;stroke-width:2.66667;stroke-linecap:butt;stroke-linejoin:miter;stroke-miterlimit:4;stroke-dasharray:none;stroke-opacity:1"
       d="m 1.7451766,579.64061 0.002,-545.039636 522.8969234,0.02652 -0.002,545.039636 z"
       id="path14359-1-7-5-3-0-73-1-9-8-5-14"
       inkscape:connector-curvature="0"
       sodipodi:nodetypes="ccccc" />
    <path
       id="path5819-1-1-5-66-4-0-5-1"
       style="fill:#ffffff;fill-opacity:1;stroke:#000000;stroke-width:0.666667;stroke-linecap:round;stroke-linejoin:round;stroke-miterlimit:4;stroke-dasharray:none;stroke-opacity:1"
       d="m 29.560867,155.29676 a 7.8546162,7.8546162 0 0 1 -7.854609,7.85463 7.8546162,7.8546162 0 0 1 -7.85462,-7.85463 7.8546162,7.8546162 0 0 1 7.85462,-7.85462 7.8546162,7.8546162 0 0 1 7.854609,7.85462" />
    <path
       id="path5819-6-5-6-7-6-6-7"
       style="fill:none;stroke:#000000;stroke-width:0.666667;stroke-linecap:round;stroke-linejoin:round;stroke-miterlimit:4;stroke-dasharray:none;stroke-opacity:1"
       d="m 29.560867,155.29676 a 7.8546162,7.8546162 0 0 1 -7.854609,7.85463 7.8546162,7.8546162 0 0 1 -7.85462,-7.85463 7.8546162,7.8546162 0 0 1 7.85462,-7.85462 7.8546162,7.8546162 0 0 1 7.854609,7.85462 z" />
    <text
       xml:space="preserve"
       style="font-style:normal;font-variant:normal;font-weight:bold;font-stretch:condensed;font-size:12px;line-height:5.69999px;font-family:'Arial Narrow';-inkscape-font-specification:'Arial Narrow Bold Condensed';letter-spacing:0px"
       x="16.422972"
       y="159.6591"
       id="text5838-0-1-4-5-8-6-6"><tspan
         sodipodi:role="line"
         id="tspan5836-3-6-4-1-1-9-7"
         x="16.422972"
         y="159.6591">99</tspan></text>
    <path
       id="path5819-1-1-5-66-4-0-5-6"
       style="fill:#ffffff;fill-opacity:1;stroke:#000000;stroke-width:0.666667;stroke-linecap:round;stroke-linejoin:round;stroke-miterlimit:4;stroke-dasharray:none;stroke-opacity:1"
       d="m 28.502026,249.8866 a 7.8546162,7.8546162 0 0 1 -7.85461,7.85463 7.8546162,7.8546162 0 0 1 -7.85462,-7.85463 7.8546162,7.8546162 0 0 1 7.85462,-7.85462 7.8546162,7.8546162 0 0 1 7.85461,7.85462" />
    <path
       id="path5819-6-5-6-7-6-6-9"
       style="fill:none;stroke:#000000;stroke-width:0.666667;stroke-linecap:round;stroke-linejoin:round;stroke-miterlimit:4;stroke-dasharray:none;stroke-opacity:1"
       d="m 28.502026,249.8866 a 7.8546162,7.8546162 0 0 1 -7.85461,7.85463 7.8546162,7.8546162 0 0 1 -7.85462,-7.85463 7.8546162,7.8546162 0 0 1 7.85462,-7.85462 7.8546162,7.8546162 0 0 1 7.85461,7.85462 z" />
    <text
       xml:space="preserve"
       style="font-style:normal;font-variant:normal;font-weight:bold;font-stretch:condensed;font-size:12px;line-height:5.69999px;font-family:'Arial Narrow';-inkscape-font-specification:'Arial Narrow Bold Condensed';letter-spacing:0px"
       x="15.364131"
       y="254.24895"
       id="text5838-0-1-4-5-8-6-4"><tspan
         sodipodi:role="line"
         id="tspan5836-3-6-4-1-1-9-4"
         x="15.364131"
         y="254.24895">86</tspan></text>
    <path
       id="path5819-1-1-5-66-4-0-5-3"
       style="fill:#ffffff;fill-opacity:1;stroke:#000000;stroke-width:0.666667;stroke-linecap:round;stroke-linejoin:round;stroke-miterlimit:4;stroke-dasharray:none;stroke-opacity:1"
       d="m 36.972758,554.83298 a 7.8546162,7.8546162 0 0 1 -7.854609,7.85462 7.8546162,7.8546162 0 0 1 -7.85462,-7.85462 7.8546162,7.8546162 0 0 1 7.85462,-7.85462 7.8546162,7.8546162 0 0 1 7.854609,7.85462" />
    <path
       id="path5819-6-5-6-7-6-6-6"
       style="fill:none;stroke:#000000;stroke-width:0.666667;stroke-linecap:round;stroke-linejoin:round;stroke-miterlimit:4;stroke-dasharray:none;stroke-opacity:1"
       d="m 36.972758,554.83298 a 7.8546162,7.8546162 0 0 1 -7.854609,7.85462 7.8546162,7.8546162 0 0 1 -7.85462,-7.85462 7.8546162,7.8546162 0 0 1 7.85462,-7.85462 7.8546162,7.8546162 0 0 1 7.854609,7.85462 z" />
    <text
       xml:space="preserve"
       style="font-style:normal;font-variant:normal;font-weight:bold;font-stretch:condensed;font-size:9.33333px;line-height:4.43333px;font-family:'Arial Narrow';-inkscape-font-specification:'Arial Narrow Bold Condensed';letter-spacing:0px"
       x="22.246603"
       y="558.48944"
       id="text5838-0-1-4-5-8-6-1"><tspan
         sodipodi:role="line"
         id="tspan5836-3-6-4-1-1-9-9"
         x="22.246603"
         y="558.48944">198</tspan></text>
    <path
       id="path5819-1-1-5-66-4-0-5-7"
       style="fill:#ffffff;fill-opacity:1;stroke:#000000;stroke-width:0.666667;stroke-linecap:round;stroke-linejoin:round;stroke-miterlimit:4;stroke-dasharray:none;stroke-opacity:1"
       d="m 157.68069,537.53856 a 7.8546162,7.8546162 0 0 1 -7.85461,7.85463 7.8546162,7.8546162 0 0 1 -7.85462,-7.85463 7.8546162,7.8546162 0 0 1 7.85462,-7.85462 7.8546162,7.8546162 0 0 1 7.85461,7.85462" />
    <path
       id="path5819-6-5-6-7-6-6-3"
       style="fill:none;stroke:#000000;stroke-width:0.666667;stroke-linecap:round;stroke-linejoin:round;stroke-miterlimit:4;stroke-dasharray:none;stroke-opacity:1"
       d="m 157.68069,537.53856 a 7.8546162,7.8546162 0 0 1 -7.85461,7.85463 7.8546162,7.8546162 0 0 1 -7.85462,-7.85463 7.8546162,7.8546162 0 0 1 7.85462,-7.85462 7.8546162,7.8546162 0 0 1 7.85461,7.85462 z" />
    <text
       xml:space="preserve"
       style="font-style:normal;font-variant:normal;font-weight:bold;font-stretch:condensed;font-size:12px;line-height:5.69999px;font-family:'Arial Narrow';-inkscape-font-specification:'Arial Narrow Bold Condensed';letter-spacing:0px"
       x="144.18985"
       y="542.07739"
       id="text5838-0-1-4-5-8-6-0"><tspan
         sodipodi:role="line"
         id="tspan5836-3-6-4-1-1-9-0"
         x="144.18985"
         y="542.07739">77</tspan></text>
    <path
       id="path5819-1-1-5-66-4-0-5-9"
       style="fill:#ffffff;fill-opacity:1;stroke:none;stroke-width:0.666667;stroke-linecap:round;stroke-linejoin:round;stroke-miterlimit:4;stroke-dasharray:none;stroke-opacity:1"
       d="m 182.03405,287.65196 a 7.8546162,7.8546162 0 0 1 -7.85461,7.85463 7.8546162,7.8546162 0 0 1 -7.85462,-7.85463 7.8546162,7.8546162 0 0 1 7.85462,-7.85462 7.8546162,7.8546162 0 0 1 7.85461,7.85462" />
    <path
       id="path5819-6-5-6-7-6-6-69"
       style="fill:none;stroke:#000000;stroke-width:0.666667;stroke-linecap:round;stroke-linejoin:round;stroke-miterlimit:4;stroke-dasharray:none;stroke-opacity:1"
       d="m 182.03405,287.65196 a 7.8546162,7.8546162 0 0 1 -7.85461,7.85463 7.8546162,7.8546162 0 0 1 -7.85462,-7.85463 7.8546162,7.8546162 0 0 1 7.85462,-7.85462 7.8546162,7.8546162 0 0 1 7.85461,7.85462 z" />
    <text
       xml:space="preserve"
       style="font-style:normal;font-variant:normal;font-weight:bold;font-stretch:condensed;font-size:9.33333px;line-height:4.43333px;font-family:'Arial Narrow';-inkscape-font-specification:'Arial Narrow Bold Condensed';letter-spacing:0px"
       x="167.30789"
       y="291.13193"
       id="text5838-0-1-4-5-8-6-48"><tspan
         sodipodi:role="line"
         id="tspan5836-3-6-4-1-1-9-1"
         x="167.30789"
         y="291.13193">408</tspan></text>
    <path
       d="m 288.44764,504.538 a 7.8546162,7.8546162 0 0 1 -7.85461,7.85463 7.8546162,7.8546162 0 0 1 -7.85462,-7.85463 7.8546162,7.8546162 0 0 1 7.85462,-7.85462 7.8546162,7.8546162 0 0 1 7.85461,7.85462"
       style="fill:#ffffff;fill-opacity:1;stroke:#000000;stroke-width:0.666667;stroke-linecap:round;stroke-linejoin:round;stroke-miterlimit:4;stroke-dasharray:none;stroke-opacity:1"
       id="path5819-1-1-5-66-4-0-5-9-2" />
    <path
       d="m 288.44764,504.538 a 7.8546162,7.8546162 0 0 1 -7.85461,7.85463 7.8546162,7.8546162 0 0 1 -7.85462,-7.85463 7.8546162,7.8546162 0 0 1 7.85462,-7.85462 7.8546162,7.8546162 0 0 1 7.85461,7.85462 z"
       style="fill:none;stroke:#000000;stroke-width:0.666667;stroke-linecap:round;stroke-linejoin:round;stroke-miterlimit:4;stroke-dasharray:none;stroke-opacity:1"
       id="path5819-6-5-6-7-6-6-69-6" />
    <text
       id="text5838-0-1-4-5-8-6-48-0"
       y="508.37088"
       x="273.72147"
       style="font-style:normal;font-variant:normal;font-weight:bold;font-stretch:condensed;font-size:9.33333px;line-height:4.43333px;font-family:'Arial Narrow';-inkscape-font-specification:'Arial Narrow Bold Condensed';letter-spacing:0px"
       xml:space="preserve"><tspan
         y="508.37088"
         x="273.72147"
         id="tspan5836-3-6-4-1-1-9-1-6"
         sodipodi:role="line">408</tspan></text>
    <path
       d="m 479.18185,342.98036 a 7.8546162,7.8546162 0 0 1 -7.85461,7.85463 7.8546162,7.8546162 0 0 1 -7.85462,-7.85463 7.8546162,7.8546162 0 0 1 7.85462,-7.85462 7.8546162,7.8546162 0 0 1 7.85461,7.85462"
       style="fill:#ffffff;fill-opacity:1;stroke:none;stroke-width:0.666667;stroke-linecap:round;stroke-linejoin:round;stroke-miterlimit:4;stroke-dasharray:none;stroke-opacity:1"
       id="path5819-1-1-5-66-4-0-5-6-8" />
    <path
       d="m 479.18185,342.98036 a 7.8546162,7.8546162 0 0 1 -7.85461,7.85463 7.8546162,7.8546162 0 0 1 -7.85462,-7.85463 7.8546162,7.8546162 0 0 1 7.85462,-7.85462 7.8546162,7.8546162 0 0 1 7.85461,7.85462 z"
       style="fill:none;stroke:#000000;stroke-width:0.666667;stroke-linecap:round;stroke-linejoin:round;stroke-miterlimit:4;stroke-dasharray:none;stroke-opacity:1"
       id="path5819-6-5-6-7-6-6-9-1" />
    <text
       id="text5838-0-1-4-5-8-6-4-6"
       y="347.52322"
       x="465.50238"
       style="font-style:normal;font-variant:normal;font-weight:bold;font-stretch:condensed;font-size:12px;line-height:5.69999px;font-family:'Arial Narrow';-inkscape-font-specification:'Arial Narrow Bold Condensed';letter-spacing:0px"
       xml:space="preserve"><tspan
         y="347.52322"
         x="465.50238"
         id="tspan5836-3-6-4-1-1-9-4-6"
         sodipodi:role="line">77</tspan></text>
    <text
       transform="rotate(0.02773937)"
       xml:space="preserve"
       style="font-style:normal;font-variant:normal;font-weight:normal;font-stretch:normal;font-size:8px;line-height:3.79999px;font-family:Arial;-inkscape-font-specification:Arial;letter-spacing:0px"
       x="242.23485"
       y="55.341217"
       id="text6394-3-4-4-6-6-2-6-7-0-3-3-0"><tspan
         sodipodi:role="line"
         id="tspan6392-4-25-4-1-6-4-1-7-0-2-1-4"
         x="242.23485"
         y="55.341217">ERIE CO.</tspan></text>
    <text
       transform="rotate(0.02773937)"
       xml:space="preserve"
       style="font-style:normal;font-variant:normal;font-weight:normal;font-stretch:normal;font-size:8px;line-height:3.79999px;font-family:Arial;-inkscape-font-specification:Arial;letter-spacing:0px"
       x="231.08028"
       y="70.54628"
       id="text6394-3-4-4-6-6-2-6-7-0-3-36-0"><tspan
         sodipodi:role="line"
         id="tspan6392-4-25-4-1-6-4-1-7-0-2-9-1"
         x="231.08028"
         y="70.54628">CRAWFORD CO.</tspan></text>
    <path
       id="path22044-2-9-4-2-3-4-0-2-1-4-2-9-6-0-2-2-6-9-7-8-9"
       style="fill:#ffffff;fill-opacity:1;stroke:none;stroke-width:0.666667;stroke-linecap:round;stroke-linejoin:round;stroke-miterlimit:4;stroke-dasharray:none;stroke-dashoffset:0;stroke-opacity:1"
       d="m 83.57472,122.7771 c 4.30479,0.0859 5.4422,-1.20828 5.50835,-2.74358 0.11967,-2.77758 -2.03965,-3.30755 -2.11058,-5.26583 -0.0445,-1.22977 1.09785,-2.63741 1.95948,-3.78651 l -2.82254,-2.43242 c -2.11641,1.99473 -4.20953,1.03483 -6.87553,-0.0531 -2.66604,1.08732 -4.75914,2.0472 -6.87555,0.0531 l -2.82257,2.43242 c 0.86164,1.1491 2.00404,2.55674 1.95951,3.78651 -0.0712,1.95828 -2.23026,2.48825 -2.11058,5.26583 0.0662,1.5353 1.20353,2.82918 5.50836,2.74358 1.61088,-0.032 2.95726,0.49263 4.34083,1.10032 1.3835,-0.60769 2.72992,-1.13244 4.34082,-1.10032 z"
       sodipodi:nodetypes="ssscccccssscs" />
    <path
       sodipodi:nodetypes="ssscccccssscs"
       d="m 83.57472,122.7771 c 4.30479,0.0859 5.4422,-1.20828 5.50835,-2.74358 0.11967,-2.77758 -2.03965,-3.30755 -2.11058,-5.26583 -0.0445,-1.22977 1.09785,-2.63741 1.95948,-3.78651 l -2.82254,-2.43242 c -2.11641,1.99473 -4.20953,1.03483 -6.87553,-0.0531 -2.66604,1.08732 -4.75914,2.0472 -6.87555,0.0531 l -2.82257,2.43242 c 0.86164,1.1491 2.00404,2.55674 1.95951,3.78651 -0.0712,1.95828 -2.23026,2.48825 -2.11058,5.26583 0.0662,1.5353 1.20353,2.82918 5.50836,2.74358 1.61088,-0.032 2.95726,0.49263 4.34083,1.10032 1.3835,-0.60769 2.72992,-1.13244 4.34082,-1.10032 z"
       style="fill:none;fill-opacity:1;stroke:#000000;stroke-width:0.666667;stroke-linecap:round;stroke-linejoin:round;stroke-miterlimit:4;stroke-dasharray:none;stroke-dashoffset:0;stroke-opacity:1"
       id="path22044-2-9-4-2-3-4-0-2-1-4-4-0-0-3-5-2-6-3-0-7" />
    <text
       xml:space="preserve"
       style="font-style:normal;font-variant:normal;font-weight:bold;font-stretch:normal;font-size:12px;line-height:11.4001px;font-family:'Arial Narrow';-inkscape-font-specification:'Arial Narrow Bold';letter-spacing:0px;stroke-width:0.993963"
       x="72.972908"
       y="119.74925"
       id="text7554-8-3-4-3-1-2-5-7-2-8-4-2-1-0-4-6-8"
       transform="scale(0.99693412,1.0030753)"><tspan
         sodipodi:role="line"
         id="tspan7552-3-3-4-7-8-1-7-6-3-0-7-3-6-6-7-9-7"
         x="72.972908"
         y="119.74925"
         style="font-style:normal;font-variant:normal;font-weight:bold;font-stretch:normal;font-size:12px;font-family:'Arial Narrow';-inkscape-font-specification:'Arial Narrow Bold';stroke-width:0.993963">19</tspan></text>
    <path
       sodipodi:nodetypes="ssscccccssscs"
       d="m 93.923367,99.332175 c 4.30479,0.0859 5.4422,-1.20828 5.50835,-2.74358 0.11967,-2.77758 -2.03965,-3.30755 -2.11058,-5.26583 -0.0445,-1.22977 1.09785,-2.63741 1.95948,-3.78651 l -2.82254,-2.43242 c -2.11641,1.99473 -4.20953,1.03483 -6.87553,-0.0531 -2.66604,1.08732 -4.75914,2.0472 -6.87555,0.0531 l -2.82257,2.43242 c 0.86164,1.1491 2.00404,2.55674 1.95951,3.78651 -0.0712,1.95828 -2.23026,2.48825 -2.11058,5.26583 0.0662,1.5353 1.20353,2.82918 5.50836,2.74358 1.61088,-0.032 2.95726,0.49263 4.34083,1.100325 1.3835,-0.607695 2.72992,-1.132445 4.34082,-1.100325 z"
       style="fill:#ffffff;fill-opacity:1;stroke:none;stroke-width:0.666667;stroke-linecap:round;stroke-linejoin:round;stroke-miterlimit:4;stroke-dasharray:none;stroke-dashoffset:0;stroke-opacity:1"
       id="path22044-2-9-4-2-3-4-0-2-1-4-2-9-6-0-2-2-6-9-7-8-9-9" />
    <path
       id="path22044-2-9-4-2-3-4-0-2-1-4-4-0-0-3-5-2-6-3-0-7-2"
       style="fill:none;fill-opacity:1;stroke:#000000;stroke-width:0.666667;stroke-linecap:round;stroke-linejoin:round;stroke-miterlimit:4;stroke-dasharray:none;stroke-dashoffset:0;stroke-opacity:1"
       d="m 93.923367,99.332175 c 4.30479,0.0859 5.4422,-1.20828 5.50835,-2.74358 0.11967,-2.77758 -2.03965,-3.30755 -2.11058,-5.26583 -0.0445,-1.22977 1.09785,-2.63741 1.95948,-3.78651 l -2.82254,-2.43242 c -2.11641,1.99473 -4.20953,1.03483 -6.87553,-0.0531 -2.66604,1.08732 -4.75914,2.0472 -6.87555,0.0531 l -2.82257,2.43242 c 0.86164,1.1491 2.00404,2.55674 1.95951,3.78651 -0.0712,1.95828 -2.23026,2.48825 -2.11058,5.26583 0.0662,1.5353 1.20353,2.82918 5.50836,2.74358 1.61088,-0.032 2.95726,0.49263 4.34083,1.100325 1.3835,-0.607695 2.72992,-1.132445 4.34082,-1.100325 z"
       sodipodi:nodetypes="ssscccccssscs" />
    <text
       transform="scale(0.99693412,1.0030753)"
       id="text7554-8-3-4-3-1-2-5-7-2-8-4-2-1-0-4-6-8-7"
       y="96.826126"
       x="86.974869"
       style="font-style:normal;font-variant:normal;font-weight:bold;font-stretch:normal;font-size:12px;line-height:11.4001px;font-family:'Arial Narrow';-inkscape-font-specification:'Arial Narrow Bold';letter-spacing:0px;stroke-width:0.993963"
       xml:space="preserve"><tspan
         style="font-style:normal;font-variant:normal;font-weight:bold;font-stretch:normal;font-size:12px;font-family:'Arial Narrow';-inkscape-font-specification:'Arial Narrow Bold';stroke-width:0.993963"
         y="96.826126"
         x="86.974869"
         id="tspan7552-3-3-4-7-8-1-7-6-3-0-7-3-6-6-7-9-7-8"
         sodipodi:role="line">6</tspan></text>
    <path
       style="fill:none;fill-opacity:1;stroke:#000000;stroke-width:8.66667;stroke-linecap:round;stroke-linejoin:round;stroke-miterlimit:4;stroke-dasharray:none;stroke-opacity:1"
       d="m 382.38902,402.41785 -0.002,-0.1583"
       id="path14359-1-7-5-3-0-73-1-9-8-5-14-90-3-2-5-4-8-2-1-0-4-3-0"
       inkscape:connector-curvature="0"
       sodipodi:nodetypes="cc" />
    <text
       transform="rotate(-66.695066)"
       xml:space="preserve"
       style="font-style:italic;font-variant:normal;font-weight:normal;font-stretch:normal;font-size:9.33333000000000013px;line-height:11.14669999999999916px;font-family:Arial;-inkscape-font-specification:'Arial Italic';letter-spacing:0.38px;word-spacing:0px"
       x="-86.157318"
       y="224.03018"
       id="text6394-3-4-4-6-6-2-6-7-6-6-5-6-9-8-0-6"><tspan
         sodipodi:role="line"
         x="-86.157318"
         y="224.03018"
         id="tspan13953-8">French Creek</tspan></text>
    <text
       transform="rotate(49.916847)"
       xml:space="preserve"
       style="font-style:italic;font-variant:normal;font-weight:bold;font-stretch:condensed;font-size:13.33329999999999949px;line-height:11.83329999999999949px;font-family:'Arial Narrow';-inkscape-font-specification:'Arial Narrow Bold Italic Condensed';text-align:start;letter-spacing:0.65px;text-anchor:start"
       x="367.78949"
       y="-15.60986"
       id="text6394-3-4-4-6-6-2-3-9-5-1-6-1-8-3-6-3-3-3-9-1"><tspan
         sodipodi:role="line"
         x="367.78949"
         y="-15.60986"
         id="tspan13951-2">Muddy Creek</tspan></text>
    <path
       style="font-variation-settings:normal;opacity:1;vector-effect:none;fill:none;fill-opacity:1;stroke:#000000;stroke-width:2;stroke-linecap:round;stroke-linejoin:round;stroke-miterlimit:4;stroke-dasharray:none;stroke-dashoffset:0;stroke-opacity:1;stop-color:#000000;stop-opacity:1"
       d="m 280.30161,529.23476 c 1.18599,-1.01936 1.91388,-0.9897 3.26155,-1.43892 1.95214,-0.65071 7.10698,1.53069 9.11316,1.53485 0.73473,0.002 2.67085,-0.93235 3.45341,-0.6715 0.34637,0.11546 1.46635,0.37 1.82263,0.19186 0.89632,-0.44816 1.8521,-1.12899 2.78191,-1.43892 0.40547,-0.13516 0.76513,-0.76628 1.15114,-0.95928 0.32178,-0.16089 1.15241,0 1.53485,0 1.71463,0 1.14459,-1.81936 2.49412,-2.49413 0.12755,-0.0638 0.40232,-0.18256 0.57557,-0.0959 0.75855,0.37928 0.93258,1.7 1.53485,2.30227 0.30272,0.30273 1.00535,-0.0498 1.34299,0.28779 0.58888,0.58888 0.22549,1.47255 0.76742,2.01449 0.86293,0.86292 1.86694,2.22849 2.97377,2.78191 0.38874,0.19437 0.98388,0.0603 1.43892,0.28778 0.62718,0.31359 0.61384,1.1127 1.24707,1.53485 1.32764,0.88509 2.83364,1.01101 3.83712,2.01449 0.17749,0.17749 0.81773,-0.11874 1.0552,0 1.38805,0.69402 1.76151,3.05735 3.16563,3.64526 0.90266,0.37795 2.06882,-0.75469 3.16563,0.28779 0.25581,0.0959 0.51161,0.19183 0.76742,0.28775 0.0639,0 0.12914,-0.0125 0.19185,0 0.62796,0.12559 0.91505,0.503 1.63078,0.38371 0.73395,-0.12232 1.16008,-0.89234 1.82263,-0.67149 1.37232,0.45744 1.96791,2.29132 3.26155,3.26155 0.33763,0.25322 0.85962,0.21029 1.24707,0.28778 0.0723,0.0145 1.2518,0.86809 1.34299,0.95928 0.60168,0.60169 -0.0779,1.91856 0.57557,1.91856 0.19915,0 0.49665,-0.30878 0.67149,-0.38371 0.53214,-0.22806 1.68532,-0.0165 2.20635,0.19186 0.46554,0.18622 1.47446,0.64666 1.7267,1.15113 0.11487,0.22974 -0.11687,0.27732 0.0959,0.38371 0.0179,0.009 0.95928,0.62022 0.95928,0.47964 0,-0.0639 -0.25581,0 -0.19186,0 1.63031,0 5.60244,-0.892 6.61903,-0.38371 0.64269,0.32134 1.83756,2.70091 2.11042,2.97377 0.80031,0.38797 1.77924,0.22806 2.59009,0.57557 0.79334,0.34 2.221,1.67475 2.49412,2.49413 0.1772,0.53159 0.0353,0.69166 0.6715,1.0552 0.43772,0.25013 0.95829,0.19186 1.43892,0.19186 0.32609,0 0.95928,0.51795 0.95928,0.19186 0,-0.064 -0.23708,-0.0452 -0.19186,0 0.0715,0.0715 0.22712,0.015 0.28779,0.0959 0.1343,0.17907 0,0.89533 0,0.6715 0,-0.0639 0,-0.25581 0,-0.19186 0,0.80217 0.83554,1.33993 1.43892,1.82264 2.32813,1.86251 1.70967,1.4041 4.22083,1.82263 0.98055,0.16342 2.08174,1.40883 2.97377,1.91856 1.11819,0.63896 3.27774,2.68598 3.74119,2.68598 0.79684,0 0.90818,-1.3923 1.91856,-0.95928 0.43318,0.18565 0.6953,0.77695 1.15114,0.95928 0.78894,0.31558 1.74548,0.79037 2.59005,0.95928 1.02605,0.20521 1.93923,-0.27745 3.0697,0.28779 0.87177,0.43588 -0.10195,1.41042 0.57556,1.91856 0.79874,0.59905 2.07459,0.62372 2.68599,1.43892 0.88622,1.18162 -0.11111,2.06116 1.15113,3.16562 0.69822,0.61094 1.68931,0.81972 2.30228,1.53485 0.76968,0.89796 1.74824,1.80698 2.3982,2.78191 0.14626,0.21939 -0.014,0.6027 0.19185,0.76742 1.52149,1.21719 3.16563,1.21643 3.16563,2.78192"
       id="path17130"
       sodipodi:nodetypes="csssssssscsssssssssc" />
    <path
       style="font-variation-settings:normal;opacity:1;vector-effect:none;fill:none;fill-opacity:1;stroke:#000000;stroke-width:2;stroke-linecap:round;stroke-linejoin:round;stroke-miterlimit:4;stroke-dasharray:none;stroke-dashoffset:0;stroke-opacity:1;stop-color:#000000;stop-opacity:1"
       d="m 417.86236,579.02139 c -1.31488,-2.34518 -0.6715,-4.963 -0.6715,-7.48238 0,-0.64524 -0.36311,-2.05569 -0.0959,-2.59006 0.33894,-0.67788 1.12295,-2.16678 0.6715,-3.06969 -0.29032,-0.58063 -0.35991,-1.3675 -0.57557,-2.01449 -0.76468,-2.29405 -2.36209,-4.19713 -1.15114,-6.61903 0.68321,-1.07955 1.61073,-2.24223 2.01446,-3.45341 0.39153,-1.1746 -0.19186,-4.029 -0.38371,-5.18011 -0.18402,-1.10415 0.28561,-2.15079 0.57557,-3.16563 0.19529,-0.68353 0.71139,-1.67605 1.43892,-1.91856 2.93252,-0.97751 0.69808,-2.16359 1.15113,-3.06969 0.28945,-0.57889 0.71627,-1.04244 0.86336,-1.63078 0.0939,-0.37554 0.77269,-0.50073 0.86335,-0.86335 0.25532,-1.02128 0.33264,-4.46997 0,-5.4679 -0.29908,-0.89723 -1.44723,-0.49625 -1.72671,-1.05521 -0.34454,-0.68909 0.0256,-1.57952 -0.28778,-2.20634 -0.3306,-0.66119 -0.69298,-0.4868 -1.24706,-0.6715 -0.53711,-0.17903 -0.57416,-0.95645 -0.76743,-1.34299 -0.13488,-0.26975 -0.6401,-0.28951 -0.76742,-0.67149 -0.3792,-1.13758 0.34621,-3.33656 -0.0959,-4.22084 -0.40202,-0.80403 -1.66254,-1.24769 -1.24706,-2.49412 0.1997,-0.59911 0.82761,-0.97246 0.95928,-1.63078 0.25754,-1.2877 0.0971,-3.35406 -0.28779,-4.50861 -0.35579,-1.06739 -1.90765,-1.23071 -2.49413,-2.11042 -0.36414,-0.54622 -0.0959,-1.29389 -0.0959,-1.91856 0,-0.84207 -0.75147,-2.30759 0.38371,-2.68598 0.50425,-0.16809 0.8087,-0.42499 1.15113,-0.76743 0.0939,-0.0939 0.34172,-0.35365 0.38372,-0.47964 0.15683,-0.47049 -0.13165,-0.28778 0,-0.28778 0.23511,0 0.22901,-0.98089 0,-1.43892 -0.1153,-0.23058 0.16187,-0.76743 -0.0959,-0.76743 -0.064,0 0,0.12791 0,0.19186 0.31403,-0.52237 0.0127,-1.28541 0.19177,-1.82263 0.34634,-1.03901 1.60797,-4.3852 1.24707,-5.4679 -0.30305,-0.90913 -2.13687,-1.86566 -1.53485,-3.06969 0.69896,-1.39793 1.42359,-3.0084 1.82263,-4.60455 0.1572,-0.62881 0.41298,-1.30559 0.6715,-1.82263 0.58161,-1.16323 -0.60593,-2.91305 0,-4.1249 0.318,-0.63601 0.36866,-1.40882 0.67149,-2.01449 0.38553,-0.77106 2.32035,-1.21091 1.63078,-2.59006 -0.3722,-0.74439 -0.94795,0.72513 -1.43892,0.47964 -0.82938,-0.41469 -1.11392,-1.59356 -1.7267,-2.20634 -0.29029,-0.29028 -2.3982,2.21102 -2.3982,-1.53485 0,-1.16649 0.48489,-2.12617 0.86335,-3.26155 0.15665,-0.46996 0.072,-1.0556 0.19185,-1.53485 0.38657,-1.54626 1.76076,-3.24092 3.26156,-3.74119 0.52535,-0.17512 0.91979,-0.93954 1.34299,-1.15114 0.74909,-0.37454 0.12141,-1.58582 0.38371,-2.11041 0.27064,-0.54129 0.95928,-0.30413 0.95928,-1.343 0,-0.0908 0,-0.54543 0,-0.0959 0.38145,-2.29638 -1.59337,-3.25343 -2.68598,-4.89235 -0.44683,-0.67025 -0.5276,-1.70272 -1.343,-2.11042 -0.30842,-0.15421 -0.87206,0.29214 -1.0552,0.38371 -0.47095,0.23548 -0.69635,-0.57556 -1.05521,-0.57556 -1.6642,0 -1.64478,2.18301 -3.0697,-0.19186 -0.98721,-1.64535 -0.9537,-3.74677 0.38371,-5.08418 0.42065,-0.42065 1.64384,-0.109 2.11042,-0.57557 0.26474,-0.26474 2.14764,-2.54711 2.20634,-2.78191 0.40052,-1.60206 -1.34299,-1.95923 -1.34299,-3.45341 0,-1.0433 1.95985,-1.06857 1.43892,-2.11042 -0.14362,-0.28725 -0.63478,-0.53885 -0.86335,-0.76742 -0.37932,-0.37932 -0.56888,-0.9526 -0.95928,-1.34299 -0.2509,-0.25091 -0.73644,0.062 -0.95928,-0.38371 -0.0727,-0.1454 -0.16314,-0.59512 -0.19186,-0.76743 -0.0947,-0.56829 -0.26974,-1.66686 0,-2.20634 0.29382,-0.58764 2.40621,-0.75141 1.82264,-1.91856 -0.70638,-1.41275 -2.63532,-2.04165 -4.02898,-2.87784 -0.6899,-0.41394 -1.24089,-1.00416 -1.91856,-1.34299 -0.79754,-0.39877 -0.24712,-3.04207 -1.34299,-2.49413 -0.7659,0.38295 -1.88954,0.93026 -2.30227,1.34299 -0.24707,0.24707 -0.28841,1.29472 -0.76743,1.05521 -0.44087,-0.22044 -0.37158,-0.79132 -0.76742,-1.05521 -0.30124,-0.20083 -0.68436,-0.0544 -0.95928,-0.19186 -0.50849,-0.25424 0.002,-1.43558 -0.38371,-2.01448 -0.13402,-0.20103 -1.49267,-1.80155 -1.53485,-1.82264 -0.32812,-0.16405 -1.04354,-0.16851 -1.24707,-0.57556 -0.16328,-0.32656 -0.25857,-0.80495 -0.38371,-1.05521 -0.44768,-0.57759 -2.97838,-4.88772 -2.3982,-5.4679 0.21541,-0.21541 0.6223,0.40708 0.76743,0.47964 0.36768,0.18384 1.84274,-0.51522 1.7267,-0.86335 -0.14642,-0.43927 -3.55037,-2.39924 -4.1249,-2.97377 -0.17465,-0.17465 -0.18853,-0.56891 -0.28779,-0.76742 -0.21641,-0.43282 0.74515,-0.63809 0.95928,-0.95928 0.34364,-0.51546 0.21177,-2.00122 -0.38371,-2.3982 -0.27736,-0.18491 -0.39522,-0.23407 -0.6715,-0.0959 -0.93596,0.46798 1.33082,2.20634 -0.19185,2.20634 -0.22367,0 -0.53917,-0.3032 -0.6715,-0.47964 -0.26889,-0.35852 -0.64944,-0.55351 -0.95928,-0.86335 -1.46184,-1.46185 1.69252,-4.09403 -0.47964,-5.18011 -0.20971,-0.10485 -1.34743,0.63224 -1.63077,0.57557 -0.80568,-0.16114 -1.54848,-0.50155 -2.3982,-0.6715 -0.67117,-0.13423 -1.26232,-0.069 -1.91856,-0.28778 -0.4535,-0.15117 -0.88927,-0.63649 -1.343,-0.86335 -0.77622,-0.38812 -0.31489,-1.83514 -0.47964,-2.49413 -0.13233,-0.52935 -0.58724,-0.73697 -0.86335,-1.15114 -0.16006,-0.24009 -0.17654,-0.58712 -0.38371,-0.86335 -0.79431,-1.05908 -3.10507,-1.63078 -4.31676,-1.63078"
       id="path17132" />
    <path
       style="font-variation-settings:normal;opacity:1;vector-effect:none;fill:none;fill-opacity:1;stroke:#000000;stroke-width:2;stroke-linecap:round;stroke-linejoin:round;stroke-miterlimit:4;stroke-dasharray:none;stroke-dashoffset:0;stroke-opacity:1;stop-color:#000000;stop-opacity:1"
       d="m 183.03062,34.917791 c -0.25538,0.321647 -0.52732,0.911029 -0.76743,1.151136 -0.41388,0.413889 -2.12508,-0.343084 -2.3982,-0.47964 -0.79265,-0.396328 -4.24173,-0.07503 -4.70047,0.383712 -0.25088,0.250878 -0.50368,0.623648 -0.67149,0.95928 -0.22595,0.451885 -0.25696,1.243631 -0.0959,1.726704 0.13494,0.404813 0.0767,1.131911 0.38371,1.43892 0.74201,0.742013 3.50883,1.54977 3.83712,2.206344 0.9945,1.98899 -1.37761,3.532025 1.53485,4.988256 0.61949,0.309744 0.86436,-0.04847 1.34299,-0.287784 2.09753,-1.048767 1.39825,-3.768823 2.49413,-4.31676 0.48485,-0.242426 0.84843,0.338962 0.95928,0.671496 0.10959,0.328763 0.19238,1.149417 0.0959,1.43892 -0.38533,1.156012 1.00242,1.99689 1.91857,2.302272 0.82417,0.274725 1.79323,-0.686198 2.59005,-0.287784 0.50354,0.25177 3.65073,2.195411 4.02898,1.43892 0.13856,-0.277126 -0.005,-0.567373 0.19185,-0.863352 0.41257,-0.618853 1.48766,-0.478092 1.82264,0.191856 0.34746,0.69492 0.41822,1.507944 0.76742,2.206344 0.25337,0.506737 0.68975,0.918099 0.86335,1.43892 0.37188,1.11564 3.27217,2.664749 2.49413,4.220831 0.79402,1.352287 -0.38372,2.049225 -0.38372,3.35748 0,1.025681 0.44884,1.817072 0.67149,2.781912 0.24708,1.070647 0.42765,2.321997 0.57557,3.35748 0.0986,0.690569 -0.16973,1.527424 0,2.206344 0.14777,0.591075 0.28779,1.728039 0.28779,2.206344 0,1.118326 -3.91296,2.86001 -2.49413,4.988256 0.45317,0.679752 1.28694,0.198921 1.91856,0.47964 0.67776,0.301228 3.84843,2.691824 3.93305,3.453408 0.0666,0.598946 -0.28035,1.062254 -0.38372,1.630776 -0.22523,1.238802 -0.59463,2.97615 -2.11041,3.165624 -0.62062,0.07758 -1.30593,-0.122527 -1.91856,0 -0.94419,0.188837 0.0448,1.195938 0.28778,1.43892 1.48334,1.483336 2.00018,7.858939 -2.20634,5.755679 -2.26552,1.091162 -0.0406,2.540218 1.05521,3.453408 0.5406,0.450503 2.81505,2.870854 2.68598,3.645264 -0.23068,1.384076 -1.54334,2.948283 -1.05521,4.412693 0.72146,2.16437 2.50831,3.87632 1.91856,6.23531 -0.24522,0.98088 -2.09117,2.58998 -2.78191,3.45341 -0.78212,0.97765 0.22591,1.72046 -0.0959,2.68599 -0.16104,0.48313 -0.62234,0.96406 -0.47964,1.53484 0.40003,1.60012 2.53913,2.39227 3.26155,3.83712 0.21273,0.42545 0.26408,2.56635 0.47964,2.78192 0.36477,0.36477 0.70582,0.47342 0.76743,1.15113 0.0798,0.87752 -0.28779,1.58425 -0.28779,2.3982 0,0.62323 0.51028,0.94719 0.57557,1.53485 0.18001,1.62009 0.38347,4.70071 -0.57557,5.65975 -1.16749,1.16749 -3.54648,-1.31481 -4.60454,0.0959 -1.26986,1.69315 -3.10149,5.38786 -4.98826,6.33125 -0.98778,2.03313 -3.16247,-0.25192 -4.31678,0.67153 -0.68281,0.54624 -1.51403,1.02604 -2.0145,1.7267 -0.33866,0.47413 -1.30942,1.68835 -1.43891,2.20634 -0.25331,1.01324 3.42105,6.25576 4.02897,7.67424 0.37345,0.87137 -0.0676,1.69074 0.0959,2.59006 0.32129,1.76712 1.4526,5.13906 0.86335,6.90681 -0.74503,2.23511 -1.92948,4.69439 -3.45341,6.52311 -0.43111,0.51734 -0.92977,1.67506 -1.34299,2.20634 -1.25332,1.61141 -1.85733,2.27037 -3.74119,2.97377 -2.64193,0.98645 -1.77964,-4.16213 -3.93302,-4.70047 -0.55006,-0.13752 -1.07122,0.0864 -1.34299,0.57557 -1.27528,2.29551 0.28891,3.83993 1.05521,5.75567 0.21732,0.54331 0.17371,1.09375 0.38371,1.63078 0.95422,2.44024 1.861,4.11669 3.16562,6.33125 0.42475,0.72101 1.47827,1.26673 2.20635,1.63077 1.73154,0.86578 3.65474,2.04292 4.31676,4.02898 0.35136,3.55135 2.77667,4.35747 0.67149,7.8661 -0.92716,1.54527 -3.41109,2.02578 -4.22083,3.64526 -0.56441,1.12884 -0.43105,2.53897 -0.67149,3.74119 -0.2573,1.2865 -1.82939,4.03573 -2.78192,4.98826 -1.28382,-0.20656 -2.64997,-0.75139 -3.4534,-1.82263 -1.2915,-1.72199 -2.46507,-2.6418 -4.60455,-3.0697 -0.25634,-0.0513 -0.7736,-0.1898 -1.05521,-0.0959 -1.30373,0.43458 -2.56613,3.52518 -2.11041,4.89233 0.23787,0.71362 2.20634,3.96093 2.20634,4.22083 0,1.0124 -1.3445,1.43892 -2.11041,1.43892 -0.49155,0.8819 -1.98868,-0.10886 -2.59006,0.19183 -1.19468,0.59734 -0.78396,2.52862 -1.82263,2.97377 -1.86265,0.79827 -3.83453,-0.87632 -5.65975,-0.19186 -1.54899,0.58087 -0.89796,2.33688 -1.82263,3.26155 -0.40225,0.40224 -3.93073,-0.97661 -4.50862,-1.43892 -1.48307,-1.18646 0.41106,-5.5384 -1.43892,-6.33125 -2.75172,-1.1793 -1.51432,3.81199 -3.74119,3.0697 -0.36324,-0.12108 -0.52821,-0.21734 -0.6715,-0.57557 -0.53502,-1.33756 0.82638,-1.94055 1.34299,-2.97377 0.48168,-0.96335 0.34443,-3.29542 -0.57556,-3.83711 -2.46406,-1.45085 -3.29107,3.25414 -3.35748,4.89232 -0.0208,0.83937 0.0793,1.70372 -0.38372,2.3982 -1.10856,1.66285 -2.91014,0.76446 -3.16562,-1.53485 -0.2201,-1.98087 2.99707,-6.07977 0.19186,-7.48238 -2.18329,-1.09164 -2.2439,-0.049 -3.35748,1.34299 -0.58684,0.73355 -2.27207,1.75691 -3.16563,0.86335 -0.15551,-0.15551 -0.53175,-1.29087 -0.28778,-1.53484 0.37339,-0.3734 1.59482,-1.73276 1.82263,-2.30228 0.72161,-1.80401 -0.19989,-3.40142 -2.20634,-2.3982 -0.60723,0.30362 -1.26167,0.46609 -1.91856,0.57557 -0.8697,0.14495 -1.79731,0.19585 -2.59006,0.6715 -0.35012,0.21007 -1.57918,1.30593 -1.43892,1.7267 0.0703,0.21077 0.36695,0.38775 0.47964,0.57557 0.27614,0.46023 1.85081,4.35633 1.7267,4.60454 -0.15615,0.31231 -0.44948,0.44949 -0.67149,0.6715 -0.1945,0.1945 -0.68421,0.86335 -0.95928,0.86335 -0.94972,0 -1.72671,-1.15113 -1.72671,-1.15113 -0.28804,-0.44899 -0.90095,-0.82751 -1.0552,-1.34299 -0.38176,-1.27579 0.36623,-2.9629 -1.05522,-4.02898 -0.91704,-0.68778 -2.12655,0.6724 -2.20634,1.15113 -0.051,0.30572 0.14033,0.96642 0,1.24707 -0.12216,0.24432 -0.38371,0.25928 -0.38371,0.57557 -1.06235,1.02386 -2.00767,1.18438 -3.16562,0.19185 -0.44791,-0.38392 -1.04403,-0.72387 -1.34299,-1.24706 -0.74909,-1.31091 0.2743,-3.19985 -1.82264,-3.54934 -1.26682,-0.21113 -1.71615,1.77883 -2.97376,1.91856 -1.25879,0.13987 -2.87183,-0.62729 -4.02898,0.0959 -0.6037,0.37731 -1.55821,3.20741 -1.63078,3.93305 -0.0542,0.54213 0.48757,2.3982 -0.47964,2.3982 -0.61176,0 -0.83262,-0.82488 -0.95928,-1.24707 -0.26955,-0.89851 -0.80197,-1.66152 -1.0552,-2.59005 -0.46364,-1.7 0.52363,-3.86511 -2.49413,-3.26155 -1.0732,0.21464 -1.3302,0.85056 -2.01449,1.53484 -0.21932,0.21932 -0.59073,0.28109 -0.76742,0.57557 -0.15501,0.25835 -0.12431,3.01293 0,3.26155 0.36431,0.72864 1.33817,1.42928 1.53485,1.82264 0.15968,0.31936 0.0537,0.51228 0.28778,0.86335 0.28578,1.92771 -0.01,3.77092 -0.47964,5.18014 -0.0506,0.15168 -0.40084,0.27066 -0.28778,0.38371 0.16537,0.16537 -1.14929,0.46541 -1.534853,0.57557 -0.705775,0.20165 -1.069443,0.38193 -1.822632,0.28778 -1.603628,-0.20045 -2.97593,-0.38587 -4.220832,-1.63077 -1.143002,-1.143 0.51292,-1.46372 0.863352,-2.3982 0.675528,-1.80141 0.715783,-2.72623 -1.247064,-3.26155 -0.961642,-0.26227 -0.190919,-0.13999 -1.247064,-0.38372 -0.57138,-0.13185 -1.148821,-0.27864 -1.726704,-0.38371 -0.579738,-0.10541 -1.202865,-0.23147 -1.726704,0.0959 -0.717815,0.44863 -2.06655,1.86096 -2.302272,2.68598 -0.542566,1.89899 4.098888,6.31727 1.151136,6.90682 -1.13919,-0.13036 -2.016243,-0.92158 -3.069695,-1.34296 -1.493672,-0.59747 -5.015035,-1.82636 -5.947536,-3.0697 -0.744002,-0.992 -1.12804,-2.13039 -1.630776,-3.26155 -0.351776,-0.7915 -1.013928,-1.27409 -1.342992,-2.01449 -0.644508,-1.45014 -0.945907,-3.03626 -1.534848,-4.50861 -0.367166,-0.91792 -1.025793,-1.67964 -1.534848,-2.49413 -0.542042,-0.86727 -0.452402,-2.37096 -1.151136,-3.0697 -3.920313,-3.92031 -3.164072,3.20218 -6.331248,2.01449 -2.191453,-0.82179 -0.876349,-3.67126 -1.342992,-4.60454 -0.551084,-1.10217 -2.327505,-0.68412 -3.261552,-1.15114 -0.607169,-0.30358 -1.480921,-1.97854 -2.3982,-2.59006 -1.020775,-0.13355 -1.98474,0.18889 -2.973768,0.28779 -1.148431,0.11484 -5.202314,-0.83361 -5.659751,0.76742 -0.170174,0.59561 0.329358,2.19357 0.575568,2.68599 0.950566,1.90113 0.719981,3.11713 -0.767424,3.54933 -0.287784,-0.0639 -0.570825,-0.22842 -0.863352,-0.19185 -0.496639,0.0621 -0.871647,0.50315 -1.342992,0.67149 -1.887772,0.67421 -3.855458,1.88862 -5.851608,2.11042 -0.779415,0.0866 -1.463289,-0.19795 -2.206344,-0.38371 -3.16152,-0.79038 -5.197468,-1.52944 -8.057952,-3.0697 -2.55164,-1.37396 -5.824122,-2.59679 -7.482384,-5.08418 -2.966417,-1.8869 -2.931569,-4.77808 -4.604544,-7.1946 -0.681694,-0.98467 -1.584162,-1.90526 -2.398199,-2.78192 -0.536259,-0.5775 -1.094432,-1.26667 -1.822632,-1.63077 -0.965655,-0.48283 -6.6750033,-0.81272 -7.6742402,-0.47964 -0.4264682,0.14215 -0.3230562,0.69336 -0.767424,0.76742 -0.3580741,0.0597 -0.7470432,-0.39159 -1.0552079,-0.47964 -0.8672916,-0.24779 -2.2995829,0.65124 -3.069696,0.95928"
       id="path17134"
       sodipodi:nodetypes="cssssssssssscssscssscsscsssscsssscsssssssssssssscssssssssssssssscssscsscsscssssssssssccssssssssssssssssssscssssssssssssssccsssssssssscsssssssssscsssc" />
    <path
       style="font-variation-settings:normal;opacity:1;vector-effect:none;fill:none;fill-opacity:1;stroke:#000000;stroke-width:4.66667;stroke-linecap:round;stroke-linejoin:round;stroke-miterlimit:4;stroke-dasharray:none;stroke-dashoffset:0;stroke-opacity:1;stop-color:#000000;stop-opacity:1"
       d="m 165.85126,218.32633 c 1.26957,1.28934 3.42424,0.091 4.33816,1.9188 0.65212,-0.0222 2.58021,2.03404 3.25362,1.5851 0.56987,-0.37991 -0.0349,-1.90135 0.66741,-2.2525 0.61193,-0.30597 1.05399,1.33482 1.83538,1.33482 1.41825,0 1.2524,-0.16585 1.41825,0 0.11977,0.11978 1.13946,-0.6104 1.41824,2.00222 1.03443,0.33747 1.23072,3.2743 1.08454,3.42048 -0.3893,0.3893 -1.36822,0.65073 -1.9188,0.83426 -0.33499,0.11166 -0.56621,0.4887 -0.83426,0.66741 -0.1972,0.13146 -1.35513,1.06423 -1.00112,1.41824 0.54135,0.54135 2.00069,-0.16762 2.66964,0.16686 0.89862,0.44931 0.61718,1.36887 0.41713,2.16908 -0.1404,0.56161 0,1.33717 0,1.9188 0,0.83251 -1.28224,3.22278 -0.50056,4.00446 0.39229,0.39228 0.87105,0.30118 1.33482,0.41713 1.05832,0.26458 3.00704,1.50906 3.33705,2.16908 0.39374,0.78748 -0.49272,1.65677 -0.83426,2.16908 -0.8112,1.21679 -1.09952,3.90605 0,5.00557 0.19886,0.19886 0.5764,0.99859 0.83426,1.08454 0.18188,0.0606 2.45212,1.66546 2.16908,0.25028 -0.26519,-1.32595 -1.66313,-2.31438 -2.00223,-3.67075 -0.0757,-0.30298 0.29851,-1.63637 0.75084,-1.33482 0.65765,0.43843 0.23159,1.90946 0.91769,2.25251 0.88729,0.44364 2.83369,-0.5293 3.92103,-0.16686 0.21268,0.0709 0.56083,0.44149 0.75083,0.58399 0.41302,0.30976 0.71168,0.40267 0.91769,0.91768 0.16448,0.4112 0.46011,0.99859 0.25028,1.41825 -0.34092,0.87793 -0.20329,1.84017 -0.3337,2.75306 -0.22678,1.58744 -2.91436,1.67677 -3.1702,2.41936 0,0 -0.73561,0.49548 -1.00112,0.58399 -0.25035,0.0834 -0.92947,1.3865 -0.58398,1.50167 0.20821,0.0694 0.52344,0.1289 0.75083,0.0834 0.58558,-0.11711 3.03837,-2.75817 3.25363,-1.25139 0.0236,0.16518 0.0236,0.33538 0,0.50056 -0.005,0.0357 -2.73254,0.73031 -3.42047,1.41824 -1.12958,1.12958 0.0914,1.86186 1.25139,1.66853 0.67432,-0.11239 1.04844,-0.38104 1.50167,-0.83426 0.0819,-0.0819 0.67052,-0.0733 0.83426,-0.16686 0.3966,-0.22662 0.69743,-0.72413 1.08454,-0.91768 0.99947,-0.49974 1.41971,-0.64766 2.33594,-1.33482 0.26298,-0.19724 1.06168,-0.65998 1.33481,-0.25028 0.94295,1.41441 -1.78367,2.04568 -2.00222,2.91991 -0.22509,0.90035 -0.5674,2.05199 -0.25028,3.00335 0.0774,0.23214 0.43353,0.31587 0.50055,0.58398 0.14997,0.59987 0.56012,1.4778 1.00112,1.9188 0.19985,0.19985 1.15732,-0.51063 1.25139,-0.66741 0.23363,-0.38938 -0.0692,-2.73883 -0.41713,-3.08677 -0.43313,-0.43313 1.02576,-0.90947 1.50167,-0.75083 0.66268,0.22089 2.117,1.93616 2.91992,1.66852 1.55773,-0.51924 -0.26148,-3.74858 1.25139,-4.50501 1.0797,-0.53985 1.32429,2.11692 2.83649,2.41936 1.06238,0.21247 0.89256,-1.12341 1.5851,-1.5851 0.28277,-0.18851 2.13572,0.14182 2.91992,-0.25028 0.49511,-0.24755 1.09627,0.29849 0.91768,0.83426 -0.0622,0.18655 -0.3441,0.23456 -0.41713,0.41713 -0.17006,0.42516 -0.06,1.80538 0.33371,2.00223 0.28122,0.14061 0.49103,0.44037 0.91769,0.33371 0.53203,-0.13301 0.70627,-0.88427 1.08454,-1.16797 0.31313,-0.23485 1.47129,-0.31104 1.66852,0.0834 0.33406,0.66811 -0.47941,1.71082 -0.16685,2.33593 0.66706,1.33412 2.83649,-0.0996 2.83649,0.50056 0.98787,0.50972 1.21159,1.63641 1.41824,2.66969 0.0954,0.47693 0.52979,0.63269 0.75084,1.00111 0.66847,1.11412 2.31493,1.04808 3.5039,0.75084 0.7709,-0.19273 0.12088,-1.27864 -0.0834,-1.5851 -0.32741,-0.49112 -1.24401,-0.0507 -1.66852,-0.33371 -0.39169,-0.26113 -1.05731,-3.53113 -0.66741,-3.92103 1.06757,-1.06757 2.65481,0.35224 3.67075,-0.91769 0.94754,-1.18442 0.63809,-2.93537 2.33594,-3.42047 0.15421,-0.0441 0.57581,-0.17093 0.75083,-0.0834 0.28953,0.14477 0.49978,0.58165 0.58398,0.83427 0.40738,1.22212 -0.30029,1.40143 -0.66741,2.50278 -0.2177,0.6531 -0.0106,2.01242 0.33371,2.58621 0.22694,0.37823 0.98826,1.92523 1.50167,1.66853 0.91994,-0.45997 0.88335,-2.2513 1.41825,-2.91992 0.26253,-0.32816 4.3692,-1.80433 4.83872,-1.33482 0.0325,0.0325 0,0.2828 0,0.33371 0,1.80957 -2.25251,1.41524 -2.25251,2.41936 0,0.2302 0.54351,3.38 0.66741,3.5039 0.30801,0.30801 0.78515,0.39257 1.16796,0.58398 0.84473,0.42236 1.9982,2.09775 1.66853,3.08677 -0.0828,0.24852 -0.18392,0.60674 -0.41713,0.91769 -0.18366,0.24487 -0.67127,0.39917 -0.91769,0.58398 -1.14089,0.85567 -2.632,2.35831 -1.5851,3.75418 0.14573,0.1943 0.45009,0.84525 0.66741,0.91769 1.26305,0.42101 1.50809,-0.79576 2.25251,-1.16797 0.10255,-0.0513 0.21904,0.0834 0.3337,0.0834 0.005,0 -0.008,-0.96144 0,-1.00112 0.0888,-0.44371 0.38275,-0.94699 0.50056,-1.41824 0.0455,-0.18184 0.70758,-3.29997 1.16797,-1.91881 0.20342,0.61027 -0.2403,3.05005 0.16685,3.25363 0.63114,0.31556 -0.47168,-0.27033 0.3337,0.3337 0.0508,0.0381 0.54379,0.008 0.58399,0 1.49486,-0.29897 0.21893,-4.59889 2.2525,-3.92103 0.28326,0.0944 0.29926,3.15028 0.50056,3.75418 0.0916,0.27493 3.1337,1.82886 3.58733,2.16908 0.60772,0.45579 0.53122,1.8002 1.08454,2.16908 0.85635,0.5709 1.95897,0.30486 2.75306,0.83426 0.2066,0.13773 0.28259,2.2337 0.50056,2.66964 0.22626,0.45252 0.41611,0.19398 0.75083,0.41713 0.50965,0.33976 1.068,0.88459 1.33482,1.41825 0.11083,0.35321 2.23718,2.16908 2.25248,2.16908 0.0635,0 -0.81305,0.56277 -1.00111,0.75083 -0.63404,0.63403 -0.88959,1.33571 -0.58399,2.25251 0.0361,0.10823 0.40177,0.28431 0.50056,0.3337 0.24176,0.12089 1.11269,-0.31511 1.50167,-0.25027 0.60354,0.10059 1.96365,0.64138 2.08566,1.25139 0.11198,0.55993 -0.16686,1.09402 -0.16686,1.5851 0,0.72817 1.5851,1.11567 1.5851,2.00222 0,0.41926 -1.1619,0.72544 -1.41824,0.91769 -0.21029,0.15772 -0.79897,3.06109 -0.75084,3.25362 0.60076,2.40302 4.24223,2.09402 4.67187,4.67187 0.1022,0.61321 0.1832,1.81902 -0.25028,2.25251 -0.32375,0.32374 -0.84444,0.44764 -1.00112,0.91768 -0.35714,1.07145 0.43117,2.5449 0.75084,3.5039 0.31119,0.93358 1.59397,0.28105 2.25251,0.50056 0.50808,0.16936 -0.72185,2.08655 0.16685,2.75307 1.1167,0.83752 3.56676,-0.15276 4.67187,0.58398 1.08716,0.72477 -0.25125,2.08373 0.16685,2.91992 0.26741,0.53482 0.44176,1.97283 1.00111,2.2525 0.0863,0.0432 1.56333,-0.47129 2.16908,-0.66741 2.18823,-0.70844 1.42932,0.44667 2.16908,2.41936 0.0777,0.20716 0.75084,2.11241 1.83538,2.75307 0.10114,-4.75325 5.59386,-3.02112 6.92437,0.0834 0.0736,0.1718 0.65276,3.81281 0.58399,4.08789 -0.12119,0.48474 -0.75109,1.25063 -0.58399,1.75195 0.20755,0.62263 1.70147,-0.76839 2.33594,0.50055 0.64336,1.28674 -1.48765,2.0443 -1.08454,3.25363 0.15226,0.45678 0.37293,0.8293 0.58398,1.25139 0.0868,0.17352 0.12789,0.44677 0.3337,0.58398 0.52286,0.34857 0.91419,-0.88404 1.08455,-1.16797 0.1968,-0.32801 2.206,-0.28036 2.75306,-0.41713 0.7673,-0.19182 2.66489,-1.86634 3.58733,-1.25139 0.5037,0.3358 1.92639,2.10084 2.16908,2.58621 0.15104,0.3021 -0.44001,1.22852 0.0834,1.75195 0.22316,0.22316 1.12777,-0.12967 0.91769,0.50056 -0.22934,0.68803 -0.94259,1.70214 -0.58398,2.41936 0.38205,0.76411 0.84681,0.42968 1.33482,0.91769 0.14623,0.14623 0.20823,0.41668 0.3337,0.58398 0.43162,0.5755 0.82156,0.35362 1.00112,1.25139 0.18064,0.90324 0.40684,2.04221 0.3337,2.91992 -0.10917,1.31005 -0.65002,4.95691 -0.16685,5.92326 0.57982,1.15964 2.16737,-0.40187 3.17019,1.00111 0.83293,1.1653 -0.66738,3.40073 -0.66738,3.75418 1.71496,0.77416 4.42592,-0.83135 5.92325,0.16687 0.28943,0.19296 1.2405,0.61667 1.08454,1.08454 -0.23808,0.71426 -6.25906,1.66643 -5.17242,2.75307 0.32787,0.32787 0.77074,0.11787 1.16797,0.25028 0.5903,0.19677 0.81825,1.28454 1.9188,0.91769 0.53691,-0.17898 1.3166,-1.02356 1.83537,-1.33482 0.28291,-0.16974 3.12604,-0.795 3.25363,-0.66741 0.24599,0.24599 -1.62014,1.02782 -1.33482,2.16908 0.11173,0.44693 0.47538,0.96754 0.75083,1.33482 0.25774,0.34364 0.3039,0.81191 0.66741,1.08454 0.95841,0.71881 2.00642,-0.0792 3.1702,1.08454 0.40625,0.40626 0.25028,1.40114 0.25028,1.9188 0,0.49544 0.83527,2.2515 0.41713,2.66964 -0.29471,0.2947 -0.72663,0.34711 -0.58399,0.91769 0.16143,0.6457 0.92631,1.27497 1.41825,1.66852 0.76603,0.61282 1.44647,-1.14742 1.9188,-1.50167 0.45437,-0.34078 2.85275,-0.27538 3.5039,-0.16685 0.89304,0.14884 1.89486,1.69826 2.83649,2.16908 0.62984,0.31492 1.39862,0.28218 2.00223,0.58398 0.20776,0.10388 0.81193,0.33929 1.16797,0.25028 1.33174,-0.33294 1.39332,-0.83859 2.00223,-1.75195 0.33647,-0.50471 1.75424,-0.91712 2.41935,-0.75084 3.70834,0.92709 -1.80561,0.77263 0.0834,3.92103 0.14522,0.24203 0.30148,0.46833 0.50056,0.66741 2.40431,2.40431 2.32334,-3.10941 3.33705,-2.08565 1.15084,1.16226 -0.19235,3.19916 2.41936,5.17242 2.1408,-0.49264 -0.16207,-3.92261 1.58512,-4.50501 0.36948,-0.12316 0.60326,0.47064 0.75084,0.66741 0.79794,1.06392 1.81798,2.41501 3.17019,2.75306 0.96375,0.24094 2.7117,-1.11763 3.1702,-0.75083 0.37549,0.30039 0.4552,0.715 0.75083,1.08454 0.57148,0.71434 1.59558,1.67376 2.41936,2.08565 1.47406,0.73703 3.08751,-0.49982 4.42159,0.83426 1.74072,1.74073 0.57213,4.76724 3.67075,6.00669 1.66886,0.66754 3.347,0.0311 5.00557,0.58398 0.34739,0.1158 2.24481,1.17567 2.33594,1.08454 0.28196,-0.28196 -0.14329,-0.96481 0,-1.25139 0.10881,-0.21763 0.89826,0.25028 1.16796,0.25028 0.46477,0 0.71434,-0.72085 1.16797,-0.83426 2.26851,-0.56713 1.50412,1.46362 2.08566,2.33593 0.57858,0.86787 2.07938,0.81545 2.41936,1.83538 0.5503,1.65091 -0.56895,2.09567 1.41824,3.42047 0.52586,0.35057 3.69136,0.0422 3.25362,0.91769 0.37261,-0.0408 3.3726,0.35693 3.42048,0.50055 0.10621,0.31866 -1.19352,1.79906 -0.0834,2.16909 1.29793,0.43264 1.6762,-1.32605 2.66964,-1.16797 1.5811,0.2516 3.03071,-0.58264 2.50279,1.00112 -0.21905,0.65715 -1.68676,-0.28674 -1.08455,0.91768 0.42666,0.85332 1.41825,1.231 1.41825,2.33593"
       id="path17136"
       sodipodi:nodetypes="ccsssscsssssssssssssssssssscsssssscsssssssssssssssssssssssssscsssssssssssssssssssssssssscsssscssssssscssssssssssssssssssssscsssssssssssssssssssscssssssssssssssssssssssssscsssssssssssssssscsssssc" />
  </g>
</svg>
