<?xml version="1.0" encoding="UTF-8" standalone="no"?>
<!-- Created with Inkscape (http://www.inkscape.org/) -->

<svg
   xmlns:dc="http://purl.org/dc/elements/1.1/"
   xmlns:cc="http://creativecommons.org/ns#"
   xmlns:rdf="http://www.w3.org/1999/02/22-rdf-syntax-ns#"
   xmlns:svg="http://www.w3.org/2000/svg"
   xmlns="http://www.w3.org/2000/svg"
   xmlns:xlink="http://www.w3.org/1999/xlink"
   xmlns:sodipodi="http://sodipodi.sourceforge.net/DTD/sodipodi-0.dtd"
   xmlns:inkscape="http://www.inkscape.org/namespaces/inkscape"
   id="svg13085"
   version="1.1"
   inkscape:version="0.92.2 5c3e80d, 2017-08-06"
   width="449.91998"
   height="412.16"
   viewBox="0 0 421.79999 386.39999"
   sodipodi:docname="er30my00.019.svg">
  <metadata
     id="metadata13091">
    <rdf:RDF>
      <cc:Work
         rdf:about="">
        <dc:format>image/svg+xml</dc:format>
        <dc:type
           rdf:resource="http://purl.org/dc/dcmitype/StillImage" />
        <dc:title></dc:title>
      </cc:Work>
    </rdf:RDF>
  </metadata>
  <defs
     id="defs13089" />
  <sodipodi:namedview
     pagecolor="#ffffff"
     bordercolor="#666666"
     borderopacity="1"
     objecttolerance="10"
     gridtolerance="10"
     guidetolerance="10"
     inkscape:pageopacity="0"
     inkscape:pageshadow="2"
     inkscape:window-width="1280"
     inkscape:window-height="756"
     id="namedview13087"
     showgrid="false"
     inkscape:zoom="1.1692766"
     inkscape:cx="211.40118"
     inkscape:cy="197.72563"
     inkscape:window-x="4"
     inkscape:window-y="0"
     inkscape:window-maximized="0"
     inkscape:current-layer="svg13085" />
  <path
     style="fill:#efefef;fill-opacity:1;stroke:none;stroke-width:1;stroke-linecap:round;stroke-linejoin:round;stroke-miterlimit:4;stroke-dasharray:none;stroke-opacity:1"
     d="m 275.30527,221.51158 c -33.37021,-0.47302 -45.56527,9.70107 -54.07229,16.96022 -8.00341,6.82941 -11.10321,14.71385 -12.92753,20.08423 -3.38703,-9.47825 -3.93356,-18.1633 -0.46278,-26.35266 4.34826,-10.2598 13.63029,-18.14209 27.54143,-24.88472 12.94389,-6.27381 41.1034,-9.31883 58.47818,-9.644 16.56148,-0.30995 26.79352,-5.58811 38.88048,-11.28592 9.87279,-4.65404 18.74463,-9.09268 24.7437,-13.00974 3.4872,3.37068 5.73212,11.3128 3.97195,18.87336 -0.42159,1.81087 -6.42961,7.82359 -11.81841,12.36056 -3.2054,2.69871 -15.90609,10.30813 -19.38753,11.32593 -19.71772,5.76449 -32.00758,5.89791 -54.9472,5.57274 z"
     id="path14359-1-7-5-3-0-73-1-9-6-2-7"
     inkscape:connector-curvature="0"
     sodipodi:nodetypes="sscsssscssss"
     inkscape:transform-center-x="0.03366111"
     inkscape:transform-center-y="-0.1641457" />
  <path
     style="fill:#cecece;fill-opacity:1;stroke:none;stroke-width:1;stroke-linecap:round;stroke-linejoin:round;stroke-miterlimit:4;stroke-dasharray:none;stroke-opacity:1"
     d="m 275.80204,244.67335 c -33.37356,0 -45.57416,10.27718 -54.28907,17.28539 -8.76214,7.04619 -12.62067,12.32927 -13.03592,20.4094 -1.97796,-10.23698 -1.89365,-20.66457 1.59663,-28.84563 3.9147,-9.1759 12.438,-17.92531 25.37363,-24.45116 12.84249,-6.47885 29.19665,-7.954 46.88044,-7.36781 41.04005,1.36042 64.69652,-11.24747 78.58201,-28.30609 3.4872,3.37068 5.73212,14.5645 5.70619,23.10057 -0.006,1.85929 0.72414,3.27121 -10.62611,12.14378 -3.30124,2.5806 -5.87564,5.63587 -9.09047,7.3155 -27.6302,14.4357 -48.15771,8.71605 -71.09733,8.71605 z"
     id="path14359-1-7-5-3-0-73-1-9-6-2"
     inkscape:connector-curvature="0"
     sodipodi:nodetypes="sscssscssss"
     inkscape:transform-center-x="0.03366111"
     inkscape:transform-center-y="-0.1641457" />
  <path
     style="color:#000000;display:inline;overflow:visible;visibility:visible;fill:none;fill-rule:evenodd;stroke:#000000;stroke-width:2;stroke-linecap:butt;stroke-linejoin:miter;stroke-miterlimit:4;stroke-dasharray:none;stroke-dashoffset:0;stroke-opacity:1;marker:none;enable-background:accumulate"
     d="M 417.28187,159.50856 A 155.66831,154.43859 0 0 1 261.61357,313.94715 155.66831,154.43859 0 0 1 105.94527,159.50856 155.66831,154.43859 0 0 1 261.61357,5.0699718 155.66831,154.43859 0 0 1 417.28187,159.50856 Z"
     id="path13114"
     inkscape:connector-curvature="0" />
  <path
     style="fill:#000000;fill-opacity:1;stroke:#000000;stroke-width:1;stroke-linecap:round;stroke-linejoin:round;stroke-miterlimit:4;stroke-dasharray:none;stroke-opacity:1"
     d="m 174.2875,103.79649 c -3.39343,1.43547 -5.14249,4.29005 -4.705,6.12297 0.55988,2.34572 3.96834,3.02535 6.54867,2.09923 4.30486,-1.54507 11.42672,-3.47886 16.83226,-2.80847 5.97014,0.7404 15.9439,1.7719 21.805,3.90093 2.07744,0.75462 8.06306,6.87236 11.63812,13.23485 5.45774,9.71306 8.46631,15.04724 18.49365,20.09727 3.98236,2.00562 7.98725,1.24977 6.23868,-0.78963 -0.76283,-0.88971 -0.7697,-3.01937 -2.25832,-4.59156 -5.28419,-5.5809 -7.00942,-11.60582 -6.44516,-15.14895 0.15829,-0.99395 3.17519,-0.5464 4.34934,-0.15463 25.1734,8.39944 43.64861,17.88094 59.09878,29.73433 15.49425,11.88721 27.01919,23.50014 26.85755,31.64843 -0.0579,2.91975 -0.93922,6.13997 -2.50754,7.52581 -1.50897,1.3334 -9.03177,4.89101 -16.2557,9.91079 -8.38432,5.8261 -16.91959,13.26563 -15.62052,19.27756 0.38975,1.80373 2.3249,0.87785 4.2676,0.0102 9.31035,-4.15805 13.48402,-3.29768 16.21024,-3.35056 3.13959,-0.0609 6.84347,-0.51031 9.82676,-0.83433 1.07892,-1.93404 2.82023,-2.49312 3.7916,-2.11433 2.12232,0.82761 0.38083,2.16054 2.24825,3.39345 4.64496,3.06671 8.47211,7.2025 11.49036,11.21315 0.89823,1.19357 1.28436,2.73871 0.74039,3.70142 -27.34602,14.23651 -45.61364,8.75641 -71.05505,8.75641 -33.37356,0 -45.57416,10.27718 -54.28907,17.28539 -8.76214,7.04619 -12.62067,12.32927 -12.93545,20.25565 -0.26171,6.58992 0.10167,14.41111 0.25623,20.79095 0.32461,-8.96711 12.54449,-23.73048 30.6836,-30.79272 10.26543,-3.99672 21.42359,-4.2894 37.62326,-3.79652 11.74554,0.35736 34.64854,2.58663 53.16339,-0.41777 14.35151,-2.32882 35.94245,-15.19676 38.50751,-22.33287 2.45262,-6.82332 2.18474,-18.85834 -3.62525,-25.20718 -3.08905,2.99117 -6.17809,5.74264 -9.26713,8.30689 -0.176,-17.45683 -8.28996,-24.13653 -8.69549,-28.3485 -0.25303,-2.62814 10.81793,-18.49033 10.91686,-34.80171 0.17957,-29.60837 -11.10976,-52.70881 -30.00221,-65.43633 -6.45285,-4.34717 -12.47038,-7.592477 -7.42435,-14.585455 7.73065,-10.713419 25.73035,-1.717983 23.2522,-6.882828 -3.29101,-6.858987 -13.1256,-9.653604 -22.63531,-8.824362 -13.82184,1.205257 -23.8534,6.216747 -30.59421,6.921916 -6.91125,0.722998 -10.52644,-0.791701 -13.05621,-1.442671 -31.16911,-8.020553 -50.06747,-2.359231 -69.04225,5.411772 -10.60301,4.342394 -18.4781,9.299041 -22.82522,16.241682 -2.58229,4.124086 -7.24669,4.978456 -11.60086,6.820326 z"
     id="path14359-1-7-5-3-0-73-1-9"
     inkscape:connector-curvature="0"
     sodipodi:nodetypes="sssssssssssssssssscssscssscssssccsssssssssss"
     inkscape:transform-center-x="0.03366111"
     inkscape:transform-center-y="-0.1641457" />
  <path
     style="fill:none;stroke:#000000;stroke-width:1;stroke-linecap:round;stroke-linejoin:round;stroke-miterlimit:4;stroke-dasharray:none;stroke-opacity:1"
     d="m 361.02514,193.40072 c 3.44724,3.32489 5.69216,14.51871 5.66623,23.05478 -0.006,1.85929 -0.6174,3.02792 -1.55703,3.89909"
     id="path14359-1-7-5-3-0-73-1-9-1"
     inkscape:connector-curvature="0"
     sodipodi:nodetypes="csc"
     inkscape:transform-center-x="0.03366111"
     inkscape:transform-center-y="-0.1641457" />
  <path
     style="fill:none;stroke:#000000;stroke-width:1;stroke-linecap:round;stroke-linejoin:round;stroke-miterlimit:4;stroke-dasharray:none;stroke-opacity:1"
     d="m 357.52301,173.45379 c 4.1877,3.01985 5.98112,16.69416 3.42221,19.85536 -3.30487,4.08275 -7.16872,7.9093 -11.69454,11.35085 m -51.01772,16.8029 c -4.96651,0.30949 -10.23672,0.38352 -15.82979,0.19812 -17.68379,-0.58619 -34.03795,0.88896 -46.88044,7.36781 -12.93563,6.52585 -21.45893,15.27526 -25.37363,24.45116 -3.49028,8.18106 -3.57459,18.60865 -1.6971,28.99938"
     id="path14359-1-7-5-3-0-73-1-9-6"
     inkscape:connector-curvature="0"
     sodipodi:nodetypes="csccsssc"
     inkscape:transform-center-x="0.03366111"
     inkscape:transform-center-y="-0.1641457" />
  <path
     style="fill:none;stroke:#000000;stroke-width:1;stroke-linecap:round;stroke-linejoin:round;stroke-miterlimit:4;stroke-dasharray:none;stroke-opacity:1"
     d="m 332.56523,186.42782 c -7.21755,3.36347 -20.85123,10.63664 -34.40941,11.05446 -17.68511,0.545 -47.13225,2.34388 -62.88459,9.95434 -13.04575,6.30282 -23.23716,14.79029 -27.15186,23.96619 -3.49028,8.18106 -3.89791,16.83041 0.24279,27.05948"
     id="path14359-1-7-5-3-0-73-1-9-6-6"
     inkscape:connector-curvature="0"
     sodipodi:nodetypes="csssc"
     inkscape:transform-center-x="0.03366111"
     inkscape:transform-center-y="-0.1641457" />
  <path
     style="fill:none;fill-rule:evenodd;stroke:#000000;stroke-width:1px;stroke-linecap:butt;stroke-linejoin:miter;stroke-opacity:1"
     d="M 73.225509,203.68326 222.27933,224.85272"
     id="path17532"
     inkscape:connector-curvature="0" />
  <path
     style="fill:none;fill-rule:evenodd;stroke:#000000;stroke-width:1px;stroke-linecap:butt;stroke-linejoin:miter;stroke-opacity:1"
     d="m 52.92365,249.83963 164.15007,6.42024"
     id="path17534"
     inkscape:connector-curvature="0" />
  <path
     style="fill:none;fill-rule:evenodd;stroke:#000000;stroke-width:1px;stroke-linecap:butt;stroke-linejoin:miter;stroke-opacity:1"
     d="M 73.91959,310.57168 216.55316,285.93182"
     id="path17536"
     inkscape:connector-curvature="0" />
  <path
     style="fill:none;fill-rule:evenodd;stroke:#000000;stroke-width:1px;stroke-linecap:butt;stroke-linejoin:miter;stroke-opacity:1"
     d="M 88.828039,77.186222 188.82607,93.675259"
     id="path17540"
     inkscape:connector-curvature="0" />
  <path
     style="fill:none;fill-rule:evenodd;stroke:#000000;stroke-width:1px;stroke-linecap:butt;stroke-linejoin:miter;stroke-opacity:1"
     d="M 52.835839,36.761486 170.74132,41.725927"
     id="path17542"
     inkscape:connector-curvature="0" />
  <text
     xml:space="preserve"
     style="font-style:normal;font-variant:normal;font-weight:normal;font-stretch:normal;line-height:0%;font-family:Courier;-inkscape-font-specification:Courier;text-align:start;letter-spacing:0px;word-spacing:0px;text-anchor:start;fill:#000000;fill-opacity:1;stroke:none;stroke-width:1px;stroke-linecap:butt;stroke-linejoin:miter;stroke-opacity:1"
     x="6.9010472"
     y="199.9969"
     id="text17544"><tspan
       sodipodi:role="line"
       id="tspan17546"
       x="6.9010472"
       y="199.9969"
       style="font-size:13.75px;line-height:1.29999995">Light Blue</tspan></text>
  <text
     xml:space="preserve"
     style="font-style:normal;font-variant:normal;font-weight:normal;font-stretch:normal;line-height:0%;font-family:Courier;-inkscape-font-specification:Courier;text-align:start;letter-spacing:0px;word-spacing:0px;text-anchor:start;fill:#000000;fill-opacity:1;stroke:none;stroke-width:1px;stroke-linecap:butt;stroke-linejoin:miter;stroke-opacity:1"
     x="6.7684178"
     y="139.76909"
     id="text17544-5"><tspan
       sodipodi:role="line"
       id="tspan17546-5"
       x="6.7684178"
       y="139.76909"
       style="font-size:13.75px;line-height:1.29999995">Red</tspan></text>
  <text
     xml:space="preserve"
     style="font-style:normal;font-variant:normal;font-weight:normal;font-stretch:normal;line-height:0%;font-family:Courier;-inkscape-font-specification:Courier;text-align:start;letter-spacing:0px;word-spacing:0px;text-anchor:start;fill:#000000;fill-opacity:1;stroke:none;stroke-width:1px;stroke-linecap:butt;stroke-linejoin:miter;stroke-opacity:1"
     x="6.4933972"
     y="37.016808"
     id="text17544-5-2"><tspan
       sodipodi:role="line"
       id="tspan17546-5-3"
       x="6.4933972"
       y="37.016808"
       style="font-size:13.75px;line-height:1.29999995">Black</tspan></text>
  <text
     xml:space="preserve"
     style="font-style:normal;font-variant:normal;font-weight:normal;font-stretch:normal;line-height:0%;font-family:Courier;-inkscape-font-specification:Courier;text-align:start;letter-spacing:0px;word-spacing:0px;text-anchor:start;fill:#000000;fill-opacity:1;stroke:none;stroke-width:1px;stroke-linecap:butt;stroke-linejoin:miter;stroke-opacity:1"
     x="6.8714776"
     y="72.934364"
     id="text17544-5-5"><tspan
       sodipodi:role="line"
       id="tspan17546-5-0"
       x="6.8714776"
       y="72.934364"
       style="font-size:13.75px;line-height:1.29999995">Dark Blue</tspan></text>
  <text
     xml:space="preserve"
     style="font-style:normal;font-variant:normal;font-weight:normal;font-stretch:normal;line-height:0%;font-family:Courier;-inkscape-font-specification:Courier;text-align:start;letter-spacing:0px;word-spacing:0px;text-anchor:start;fill:#000000;fill-opacity:1;stroke:none;stroke-width:1px;stroke-linecap:butt;stroke-linejoin:miter;stroke-opacity:1"
     x="12.164594"
     y="255.92491"
     id="text17544-5-4"><tspan
       sodipodi:role="line"
       id="tspan17546-5-02"
       x="12.164594"
       y="255.92491"
       style="font-size:13.75px;line-height:1.29999995">Blue</tspan></text>
  <text
     xml:space="preserve"
     style="font-style:normal;font-variant:normal;font-weight:normal;font-stretch:normal;line-height:0%;font-family:Courier;-inkscape-font-specification:Courier;text-align:start;letter-spacing:0px;word-spacing:0px;text-anchor:start;fill:#000000;fill-opacity:1;stroke:none;stroke-width:1px;stroke-linecap:butt;stroke-linejoin:miter;stroke-opacity:1"
     x="1.556806"
     y="317.17383"
     id="text17544-5-4-4"><tspan
       sodipodi:role="line"
       id="tspan17546-5-02-6"
       x="1.556806"
       y="317.17383"
       style="font-size:13.75px;line-height:1.29999995">Dark Blue</tspan></text>
  <text
     xml:space="preserve"
     style="font-style:normal;font-variant:normal;font-weight:normal;font-stretch:normal;line-height:0%;font-family:Courier;-inkscape-font-specification:Courier;text-align:start;letter-spacing:0px;word-spacing:0px;text-anchor:start;fill:#000000;fill-opacity:1;stroke:none;stroke-width:1px;stroke-linecap:butt;stroke-linejoin:miter;stroke-opacity:1"
     x="187.53957"
     y="381.57562"
     id="text17544-5-4-5"><tspan
       sodipodi:role="line"
       id="tspan17546-5-02-67"
       x="187.53957"
       y="381.57562"
       style="font-size:15px;line-height:1.29999995">Figure 1.</tspan></text>
  <text
     xml:space="preserve"
     style="font-style:normal;font-variant:normal;font-weight:bold;font-stretch:normal;line-height:0%;font-family:'.Helvetica Neue Desk UI';-inkscape-font-specification:'.Helvetica Neue Desk UI Bold';text-align:center;letter-spacing:2.42000008px;word-spacing:0px;text-anchor:middle;fill:#000000;fill-opacity:1;stroke:none;stroke-width:1px;stroke-linecap:butt;stroke-linejoin:miter;stroke-opacity:1"
     x="179.64951"
     y="171.02008"
     id="text21394"><tspan
       sodipodi:role="line"
       id="tspan21396"
       x="180.85951"
       y="171.02008"
       style="font-size:30px;line-height:1.11000001;-inkscape-font-specification:'Arial Rounded MT Bold,  Bold';font-family:'Arial Rounded MT Bold';font-weight:bold;font-style:normal;font-stretch:normal;font-variant:normal">Dolphin</tspan><tspan
       sodipodi:role="line"
       x="180.85951"
       y="204.32008"
       id="tspan21398"
       style="font-size:30px;line-height:1.11000001;-inkscape-font-specification:'Arial Rounded MT Bold,  Bold';font-family:'Arial Rounded MT Bold';font-weight:bold;font-style:normal;font-stretch:normal;font-variant:normal">Safe</tspan></text>
  <path
     style="fill:none;fill-rule:evenodd;stroke:#000000;stroke-width:1px;stroke-linecap:butt;stroke-linejoin:miter;stroke-opacity:1"
     d="M 32.091567,138.00063 150.17435,160.16331"
     id="path17538"
     inkscape:connector-curvature="0" />
  <path
     style="color:#000000;display:inline;overflow:visible;visibility:visible;fill:none;fill-rule:evenodd;stroke:#d10000;stroke-width:0;stroke-linecap:butt;stroke-linejoin:miter;stroke-miterlimit:4;stroke-dasharray:none;stroke-dashoffset:0;stroke-opacity:1;marker:none;enable-background:accumulate"
     d="M 138.60962,130.8109 C 152.50808,76.256932 201.08637,35.502467 259.60637,34.435643 319.59862,33.341979 370.65184,74.311463 385.1263,130.4422"
     id="path13114-0"
     inkscape:connector-curvature="0"
     sodipodi:nodetypes="csc" />
  <text
     xml:space="preserve"
     style="font-style:normal;font-variant:normal;font-weight:bold;font-stretch:normal;font-size:22.5px;line-height:0%;font-family:'Century Gothic';-inkscape-font-specification:'Century Gothic Bold';text-align:center;letter-spacing:-0.11px;word-spacing:0px;text-anchor:middle;fill:#000000;fill-opacity:1;stroke:none;stroke-width:1px;stroke-linecap:butt;stroke-linejoin:miter;stroke-opacity:1"
     id="text21394-8"><textPath
       xlink:href="#path13114-0"
       startOffset="50%"
       id="textPath8079"
       style="font-style:normal;font-variant:normal;font-weight:bold;font-stretch:normal;font-size:22.5px;font-family:'Arial Rounded MT Bold';-inkscape-font-specification:'Arial Rounded MT Bold,  Bold';letter-spacing:-0.11px">U.S. Department of Commerce</textPath></text>
</svg>
