<?xml version="1.0" encoding="UTF-8" standalone="no"?>
<!-- Created with Inkscape (http://www.inkscape.org/) -->

<svg
   xmlns:dc="http://purl.org/dc/elements/1.1/"
   xmlns:cc="http://creativecommons.org/ns#"
   xmlns:rdf="http://www.w3.org/1999/02/22-rdf-syntax-ns#"
   xmlns:svg="http://www.w3.org/2000/svg"
   xmlns="http://www.w3.org/2000/svg"
   xmlns:sodipodi="http://sodipodi.sourceforge.net/DTD/sodipodi-0.dtd"
   xmlns:inkscape="http://www.inkscape.org/namespaces/inkscape"
   id="svg32216"
   version="1.1"
   inkscape:version="0.91 r13725"
   width="148.2"
   height="212.39999"
   viewBox="0 0 148.2 212.39999"
   sodipodi:docname="ec25se91.008.svg">
  <metadata
     id="metadata32222">
    <rdf:RDF>
      <cc:Work
         rdf:about="">
        <dc:format>image/svg+xml</dc:format>
        <dc:type
           rdf:resource="http://purl.org/dc/dcmitype/StillImage" />
        <dc:title></dc:title>
      </cc:Work>
    </rdf:RDF>
  </metadata>
  <defs
     id="defs32220" />
  <sodipodi:namedview
     pagecolor="#ffffff"
     bordercolor="#666666"
     borderopacity="1"
     objecttolerance="10"
     gridtolerance="10"
     guidetolerance="10"
     inkscape:pageopacity="0"
     inkscape:pageshadow="2"
     inkscape:window-width="1905"
     inkscape:window-height="1036"
     id="namedview32218"
     showgrid="false"
     inkscape:zoom="2.2598871"
     inkscape:cx="42.793124"
     inkscape:cy="106.2"
     inkscape:window-x="0"
     inkscape:window-y="0"
     inkscape:window-maximized="0"
     inkscape:current-layer="svg32216" />
  <path
     style="fill:#000000;stroke:#000000;stroke-width:1;stroke-linecap:round;stroke-linejoin:round;stroke-miterlimit:4;stroke-dasharray:none;stroke-opacity:1;fill-opacity:1"
     d="m 98.668695,59.558104 c 11.068545,0.83472 18.277075,0.739783 27.561925,-4.500437 l 2.64371,0.102369 c -6.97743,4.861887 -18.69247,7.234291 -30.438395,6.526516 -10.81451,-0.65165 -20.59051,-2.240253 -23.72137,-3.999659 -3.13085,1.759406 -12.906851,3.348009 -23.72136,3.999659 -11.74592,0.707775 -23.46096,-1.664629 -30.438388,-6.526516 l 2.643714,-0.102369 c 9.284848,5.24022 16.488015,5.260808 27.561912,4.500437 16.727582,-1.148571 21.765297,-5.074723 23.954132,-5.074723 2.074029,0 6.348585,3.747024 23.95412,5.074723 z"
     id="path14359-1-7-5-3-0-73-1-9-4-0"
     inkscape:connector-curvature="0"
     sodipodi:nodetypes="sccscsccscs"
     inkscape:transform-center-x="-0.033660458"
     inkscape:transform-center-y="-0.1641457" />
  <path
     style="fill:none;stroke:#000000;stroke-width:3;stroke-linecap:round;stroke-linejoin:round;stroke-miterlimit:4;stroke-dasharray:none;stroke-opacity:1"
     d="m 95.364186,13.461964 45.253844,46.108891 2.7e-4,10.911435 c -3.60068,4.325805 -6.15178,7.389457 -6.08709,11.485718 0.0578,3.660852 2.23212,6.746049 4.0784,8.416913 2.30218,2.08345 4.36597,10.621739 4.36597,23.734659 0,14.70437 -5.28485,24.43855 -13.5536,30.70955 -8.54189,6.47815 -20.12596,7.34417 -33.260979,7.40587 -12.758612,0.0599 -11.726848,-5.42677 -16.139487,-5.39883 -2.474609,0.0157 -3.827259,1.82996 -5.651517,3.75273 -1.824257,-1.92277 -3.176907,-3.73703 -5.651516,-3.75273 -4.412639,-0.0279 -3.380875,5.45873 -16.139487,5.39883 -13.135024,-0.0617 -24.144801,-1.38715 -32.68669,-7.8653 -8.268751,-6.271 -13.7833262,-15.54575 -13.7833262,-30.25012 0,-13.11292 2.063789,-21.651209 4.3659702,-23.734659 1.846279,-1.670864 4.365159,-5.674918 4.422969,-9.33577 C 14.962608,76.95289 13.215506,74.808095 9.6148318,70.48229 L 9.6150978,58.766855 54.294666,14.151107"
     id="path14359-1-7-5-3-0-73-1-9-2"
     inkscape:connector-curvature="0"
     sodipodi:nodetypes="cccsssssscssssssccc"
     inkscape:transform-center-x="-0.033660976"
     inkscape:transform-center-y="-0.1641457" />
  <path
     style="fill:#000000;stroke:#000000;stroke-width:1;stroke-linecap:round;stroke-linejoin:round;stroke-miterlimit:4;stroke-dasharray:none;stroke-opacity:1;fill-opacity:1"
     d="m 44.294018,12.368845 c 2.822451,-0.755545 5.020673,1.184217 9.448259,1.007016 2.340207,-0.09366 4.448915,-1.465742 6.74677,-1.4572 0.980424,0.0036 1.812487,0.667971 2.789502,0.671615 2.236167,0.0083 4.462556,0.01668 6.675277,0.02503 2.998573,-2.6704264 6.273273,-5.5084527 9.232878,-8.3721106 -0.80207,4.0524027 -2.206485,9.8857836 0.904159,11.3382056 l 2.273703,-2.008158 c 0.919449,-0.812067 1.938551,-1.504005 2.716496,-1.496602 0.415969,0.004 0.680138,0.440485 1.247961,0.440504 2.007052,6.9e-5 4.041034,0.293774 6.09294,0.293844 3.027219,1.04e-4 4.376871,-1.553024 7.848417,-2.128548 1.01711,-0.16862 1.18916,2.11299 0,2.038967 -3.130619,-0.194874 -4.766447,0.95321 -7.775002,0.954009 -1.713392,4.55e-4 -3.298215,0.459614 -5.065226,0.513688 -0.940939,0.02879 -1.56733,-1.166696 -2.495902,-1.321451 -0.609124,-0.101516 -1.614513,0.617408 -2.4815,1.347903 l -4.206705,3.544433 c -0.01579,-1.347222 -0.490655,-3.684573 -0.503501,-5.914749 -0.01212,-2.1034695 0.125561,-4.2422054 0.261961,-5.6802898 l -8.140784,7.6719648 c -2.204551,0.09279 -4.470242,-0.206004 -6.653496,-0.155807 -0.61358,0.01411 -1.079027,0.837298 -1.690159,0.854171 -0.587709,0.01623 -1.175715,-0.634538 -1.763922,-0.62987 -0.562939,0.0045 -1.126511,0.582296 -1.689284,0.606162 -6.472,0.274465 -6.713748,-1.223405 -10.644978,-1.118162 -1.198395,0.03208 -2.526692,0.324672 -3.935364,-0.01332 -0.440809,-0.105767 0.249175,-0.861783 0.8075,-1.011241 z"
     id="path14359-1-7-5-3-0-73-1-9-5"
     inkscape:connector-curvature="0"
     sodipodi:nodetypes="sssscccsssssssssscsccsssssss"
     inkscape:transform-center-x="0.16414561"
     inkscape:transform-center-y="0.033661104" />
  <text
     xml:space="preserve"
     style="font-style:normal;font-variant:normal;font-weight:normal;font-stretch:normal;font-size:11.25px;line-height:102.99999714%;font-family:Arial;-inkscape-font-specification:Arial;text-align:center;letter-spacing:0.43999997px;word-spacing:0px;text-anchor:middle;fill:#000000;fill-opacity:1;stroke:none;stroke-width:1px;stroke-linecap:butt;stroke-linejoin:miter;stroke-opacity:1;"
     x="76.149178"
     y="39.161251"
     id="text32914"
     sodipodi:linespacing="103%"><tspan
       sodipodi:role="line"
       id="tspan32916"
       x="76.369179"
       y="39.161251">CARCASS</tspan><tspan
       sodipodi:role="line"
       x="76.369179"
       y="50.748753"
       id="tspan32918"> DATA SERVICE</tspan></text>
  <text
     xml:space="preserve"
     style="font-style:normal;font-variant:normal;font-weight:normal;font-stretch:normal;font-size:11.25px;line-height:102.99999714%;font-family:Arial;-inkscape-font-specification:Arial;text-align:start;letter-spacing:0.75px;word-spacing:0px;text-anchor:start;fill:#000000;fill-opacity:1;stroke:none;stroke-width:1px;stroke-linecap:butt;stroke-linejoin:miter;stroke-opacity:1;"
     x="18.773497"
     y="74.563988"
     id="text32914-3"
     sodipodi:linespacing="103%"><tspan
       sodipodi:role="line"
       x="18.773497"
       y="74.563988"
       id="tspan32918-3">MEAT INSPECTOR!</tspan></text>
  <text
     xml:space="preserve"
     style="font-style:normal;font-variant:normal;font-weight:bold;font-stretch:normal;font-size:7.5px;line-height:93.99999976%;font-family:Arial;-inkscape-font-specification:'Arial Bold';text-align:start;letter-spacing:0px;word-spacing:0px;text-anchor:start;fill:#000000;fill-opacity:1;stroke:none;stroke-width:1px;stroke-linecap:butt;stroke-linejoin:miter;stroke-opacity:1;"
     x="20.133749"
     y="92.482491"
     id="text32943"
     sodipodi:linespacing="94%"><tspan
       sodipodi:role="line"
       x="20.133749"
       y="92.482491"
       id="tspan32947">1.   TRANSFER TAG TO</tspan><tspan
       sodipodi:role="line"
       x="20.133749"
       y="99.532494"
       id="tspan32951">     CARCASS</tspan><tspan
       sodipodi:role="line"
       x="20.133749"
       y="106.58249"
       id="tspan32953" /></text>
  <text
     xml:space="preserve"
     style="font-style:normal;font-variant:normal;font-weight:bold;font-stretch:normal;font-size:7.5px;line-height:122.00000286%;font-family:Arial;-inkscape-font-specification:'Arial Bold';text-align:start;letter-spacing:0px;word-spacing:0px;text-anchor:start;fill:#000000;fill-opacity:1;stroke:none;stroke-width:1px;stroke-linecap:butt;stroke-linejoin:miter;stroke-opacity:1;"
     x="20.64715"
     y="110.10291"
     id="text32943-6"
     sodipodi:linespacing="122%"><tspan
       sodipodi:role="line"
       x="20.64715"
       y="110.10291"
       id="tspan32953-7">2. NOTIFY USDA GRADER</tspan></text>
  <text
     xml:space="preserve"
     style="font-style:normal;font-variant:normal;font-weight:normal;font-stretch:normal;font-size:11.25px;line-height:102.99999714%;font-family:Arial;-inkscape-font-specification:Arial;text-align:start;letter-spacing:0.5px;word-spacing:0px;text-anchor:start;fill:#000000;fill-opacity:1;stroke:none;stroke-width:1px;stroke-linecap:butt;stroke-linejoin:miter;stroke-opacity:1;"
     x="56.248085"
     y="143.41673"
     id="text32914-3-6"
     sodipodi:linespacing="103%"><tspan
       sodipodi:role="line"
       x="56.248085"
       y="143.41673"
       id="tspan32918-3-9">USDA</tspan></text>
  <text
     xml:space="preserve"
     style="font-style:normal;font-variant:normal;font-weight:normal;font-stretch:normal;font-size:11.25px;line-height:102.99999714%;font-family:Arial;-inkscape-font-specification:Arial;text-align:start;letter-spacing:3.05999993px;word-spacing:0px;text-anchor:start;fill:#000000;fill-opacity:1;stroke:none;stroke-width:1px;stroke-linecap:butt;stroke-linejoin:miter;stroke-opacity:1;"
     x="31.42598"
     y="123.94399"
     id="text32914-3-6-6"
     sodipodi:linespacing="103%"><tspan
       sodipodi:role="line"
       x="31.42598"
       y="123.94399"
       id="tspan32918-3-9-8">3 9 9 9 5 0</tspan></text>
  <text
     xml:space="preserve"
     style="font-style:normal;font-variant:normal;font-weight:normal;font-stretch:normal;font-size:13.75px;line-height:129.99999523%;font-family:Arial;-inkscape-font-specification:Arial;text-align:start;letter-spacing:4.5px;word-spacing:0px;text-anchor:start;fill:#000000;fill-opacity:1;stroke:none;stroke-width:1px;stroke-linecap:butt;stroke-linejoin:miter;stroke-opacity:1;"
     x="31.63875"
     y="206.42625"
     id="text33024"
     sodipodi:linespacing="130%"><tspan
       sodipodi:role="line"
       id="tspan33026"
       x="31.63875"
       y="206.42625">Figure 1.</tspan></text>
</svg>
