<?xml version="1.0" encoding="UTF-8" standalone="no"?>
<!-- Created with Inkscape (http://www.inkscape.org/) -->

<svg
   xmlns:dc="http://purl.org/dc/elements/1.1/"
   xmlns:cc="http://creativecommons.org/ns#"
   xmlns:rdf="http://www.w3.org/1999/02/22-rdf-syntax-ns#"
   xmlns:svg="http://www.w3.org/2000/svg"
   xmlns="http://www.w3.org/2000/svg"
   xmlns:sodipodi="http://sodipodi.sourceforge.net/DTD/sodipodi-0.dtd"
   xmlns:inkscape="http://www.inkscape.org/namespaces/inkscape"
   id="svg15812"
   version="1.1"
   inkscape:version="0.91 r13725"
   width="1240"
   height="824"
   viewBox="0 0 1240 824"
   sodipodi:docname="ec01fe91.022.svg">
  <title id="title_ec01fe91.022"></title>
  <desc id="desc_ec01fe91.022"></desc>
  <metadata
     id="metadata15818">
    <rdf:RDF>
      <cc:Work
         rdf:about="">
        <dc:format>image/svg+xml</dc:format>
        <dc:type
           rdf:resource="http://purl.org/dc/dcmitype/StillImage" />
        <dc:title />
      </cc:Work>
    </rdf:RDF>
  </metadata>
  <defs
     id="defs15816" />
  <sodipodi:namedview
     pagecolor="#ffffff"
     bordercolor="#666666"
     borderopacity="1"
     objecttolerance="10"
     gridtolerance="10"
     guidetolerance="10"
     inkscape:pageopacity="0"
     inkscape:pageshadow="2"
     inkscape:window-width="1280"
     inkscape:window-height="756"
     id="namedview15814"
     showgrid="false"
     inkscape:zoom="0.58495145"
     inkscape:cx="509.6361"
     inkscape:cy="412"
     inkscape:window-x="632"
     inkscape:window-y="197"
     inkscape:window-maximized="0"
     inkscape:current-layer="svg15812" />
  <path
     style="fill:none;stroke:#000000;stroke-width:4;stroke-linecap:butt;stroke-linejoin:miter;stroke-miterlimit:4;stroke-dasharray:none;stroke-opacity:1"
     d="m 724.84746,390.2591 -2.8e-4,28.60745 m -9e-5,9.41579 -10e-5,9.67027 m -1.2e-4,12.72404 -6.3e-4,64.38364 m -10e-5,10.43371 -1.1e-4,10.94268 m -1.4e-4,13.74197 -4.3e-4,44.25936"
     id="path14359-1-7-5-3-0-73-1-9"
     inkscape:connector-curvature="0"
     sodipodi:nodetypes="cccccccccc" />
  <path
     style="fill:none;stroke:#000000;stroke-width:4;stroke-linecap:butt;stroke-linejoin:miter;stroke-miterlimit:4;stroke-dasharray:none;stroke-opacity:1"
     d="m 18.860743,151.72099 46.369695,1.1e-4 m 12.007592,3e-5 8.437766,2e-5 m 12.007593,3e-5 66.204021,1.6e-4 m 14.60383,4e-5 8.43777,2e-5 m 14.92836,4e-5 64.58404,2e-4 m 13.99644,5e-5 8.90683,2e-5 m 12.97853,4e-5 58.2761,1.9e-4 m 16.28677,5e-5 7.88891,2e-5 m 13.74196,5e-5 70.49118,2.2e-4 m 10.94268,3e-5 9.41579,3e-5 m 11.19716,3e-5 63.36572,2e-4 m 12.21508,4e-5 10.17923,3e-5 m 11.45163,4e-5 71.25463,2.2e-4 m 8.65235,3e-5 8.14339,2e-5 m 9.67027,3e-5 61.58435,2e-4 m 12.97852,4e-5 8.14339,2e-5 m 15.26885,5e-5 47.56848,1.5e-4"
     id="path14359-1-7-5-3-0-73-1-9-3"
     inkscape:connector-curvature="0"
     sodipodi:nodetypes="cccccccccccccccccccccccccccccccccc" />
  <path
     style="fill:none;stroke:#000000;stroke-width:4;stroke-linecap:butt;stroke-linejoin:miter;stroke-miterlimit:4;stroke-dasharray:none;stroke-opacity:1"
     d="m 840.18489,480.38274 -52.82126,-1.6e-4 m -15.77781,-4e-5 -8.14339,-3e-5 m -12.21508,-3e-5 -63.36572,-1.9e-4 m -9.41579,-3e-5 -6.87098,-2e-5 m -8.14338,-3e-5 -73.03599,-2.1e-4 m -11.19716,-4e-5 -7.63443,-2e-5 m -9.67027,-3e-5 -65.40157,-1.9e-4 m -9.16131,-3e-5 -7.12546,-2e-5 m -11.45163,-4e-5 -72.01807,-2.1e-4 m -9.67027,-3e-5 -9.4158,-3e-5 m -11.96059,-3e-5 -72.52703,-2.2e-4 m -9.67028,-3e-5 -9.92475,-3e-5 m -11.96059,-3e-5 -62.60229,-1.9e-4 m -10.43371,-3e-5 -7.8889,-2e-5 m -12.21508,-4e-5 -74.3084,-1.9e-4 m -10.688192,-2e-5 -8.90683,-2e-5 m -13.233004,-4e-5 -33.921407,-8e-5"
     id="path14359-1-7-5-3-0-73-1-9-3-5"
     inkscape:connector-curvature="0"
     sodipodi:nodetypes="cccccccccccccccccccccccccccccccccc" />
  <path
     style="fill:none;stroke:#000000;stroke-width:4;stroke-linecap:butt;stroke-linejoin:miter;stroke-miterlimit:4;stroke-dasharray:none;stroke-opacity:1"
     d="m 330.79768,40.230048 -4.8e-4,52.137626 m -1.1e-4,11.197146 -9e-5,9.92475 m -8e-5,8.39788 -5.8e-4,62.60227 m -1.4e-4,15.01438 -10e-5,10.94267 m -1.2e-4,12.97852 -3e-4,32.0957"
     id="path14359-1-7-5-3-0-73-1-9-3-6"
     inkscape:connector-curvature="0"
     sodipodi:nodetypes="cccccccccc" />
  <path
     style="fill:none;stroke:#000000;stroke-width:4;stroke-linecap:butt;stroke-linejoin:miter;stroke-miterlimit:4;stroke-dasharray:none;stroke-opacity:1"
     d="m 135.05494,41.939592 -4.6e-4,49.597242 m -1.1e-4,12.007596 -8e-5,8.7623 m -1.1e-4,11.68306 -5.2e-4,55.81908 m -1.4e-4,15.57742 -1.1e-4,11.034 m -9e-5,10.38494 -3.8e-4,40.4253"
     id="path14359-1-7-5-3-0-73-1-9-3-3"
     inkscape:connector-curvature="0"
     sodipodi:nodetypes="cccccccccc" />
  <path
     style="fill:none;stroke:#000000;stroke-width:4;stroke-linecap:butt;stroke-linejoin:miter;stroke-miterlimit:4;stroke-dasharray:none;stroke-opacity:1"
     d="m 530.81428,379.57445 -3.7e-4,39.29209 m -9e-5,10.6882 -10e-5,10.17924 m -1.3e-4,14.5054 -5.1e-4,54.96786 m -1.4e-4,14.5054 -1.3e-4,13.74197 m -1.3e-4,13.99644 -4e-4,43.41434"
     id="path14359-1-7-5-3-0-73-1-9-3-30"
     inkscape:connector-curvature="0"
     sodipodi:nodetypes="cccccccccc" />
  <path
     style="fill:none;stroke:#000000;stroke-width:4;stroke-linecap:butt;stroke-linejoin:miter;stroke-miterlimit:4;stroke-dasharray:none;stroke-opacity:1"
     d="m 330.79768,379.57445 -3.8e-4,41.07347 m -1.1e-4,11.70611 -7e-5,8.14338 m -1e-4,10.17923 -6.3e-4,67.43742 m -10e-5,11.70612 -1.2e-4,12.46956 m -1.1e-4,11.70612 -3.8e-4,40.86953"
     id="path14359-1-7-5-3-0-73-1-9-3-8"
     inkscape:connector-curvature="0"
     sodipodi:nodetypes="cccccccccc" />
  <path
     style="fill:none;stroke:#000000;stroke-width:4;stroke-linecap:butt;stroke-linejoin:miter;stroke-miterlimit:4;stroke-dasharray:none;stroke-opacity:1"
     d="m 532.52382,40.230048 -4.3e-4,46.030079 m -8e-5,9.415793 -1e-4,10.94267 m -1.2e-4,12.21509 -5.9e-4,63.36571 m -1.3e-4,14.50541 -8e-5,8.65235 m -9e-5,9.92475 -3.8e-4,40.23909"
     id="path14359-1-7-5-3-0-73-1-9-3-57"
     inkscape:connector-curvature="0"
     sodipodi:nodetypes="cccccccccc" />
  <path
     style="fill:none;stroke:#000000;stroke-width:4;stroke-linecap:butt;stroke-linejoin:miter;stroke-miterlimit:4;stroke-dasharray:none;stroke-opacity:1"
     d="m 430.80598,201.78192 -4.5e-4,48.61833 m -1.3e-4,13.99645 -9e-5,9.67027 m -1.2e-4,12.97852 -5.3e-4,56.74922 m -1e-4,10.94268 -10e-5,10.68819 m -1.3e-4,13.74197 -3.5e-4,37.90531"
     id="path14359-1-7-5-3-0-73-1-9-3-7"
     inkscape:connector-curvature="0"
     sodipodi:nodetypes="cccccccccc" />
  <path
     style="fill:none;stroke:#000000;stroke-width:4;stroke-linecap:butt;stroke-linejoin:miter;stroke-miterlimit:4;stroke-dasharray:none;stroke-opacity:1"
     d="m 131.63586,379.57445 -3.7e-4,39.2921 m -1.1e-4,11.7061 -8e-5,8.90685 m -9e-5,9.67026 -5.7e-4,61.32988 m -1.2e-4,12.97852 -8e-5,8.65235 m -9e-5,9.41578 -4.9e-4,53.3391"
     id="path14359-1-7-5-3-0-73-1-9-3-66"
     inkscape:connector-curvature="0"
     sodipodi:nodetypes="cccccccccc" />
  <path
     style="fill:none;stroke:#000000;stroke-width:4;stroke-linecap:butt;stroke-linejoin:miter;stroke-miterlimit:4;stroke-dasharray:none;stroke-opacity:1"
     d="m 629.11303,202.63669 -4.1e-4,44.70979 m -10e-5,10.94267 -10e-5,10.6882 m -1.1e-4,11.45164 -6.4e-4,68.9643 m -1.1e-4,11.70611 -1e-4,10.6882 m -1.3e-4,14.25093 -3e-4,31.8891"
     id="path14359-1-7-5-3-0-73-1-9-3-36"
     inkscape:connector-curvature="0"
     sodipodi:nodetypes="cccccccccc" />
  <path
     style="fill:none;stroke:#000000;stroke-width:4;stroke-linecap:butt;stroke-linejoin:miter;stroke-miterlimit:4;stroke-dasharray:none;stroke-opacity:1"
     d="m 728.26656,36.810961 -4.7e-4,51.230535 m -1.1e-4,11.706115 -1.1e-4,11.197149 m -10e-5,10.6882 -5.9e-4,64.38365 m -1.2e-4,12.21507 -10e-5,10.43372 m -1.2e-4,12.97852 -2.8e-4,30.45798"
     id="path14359-1-7-5-3-0-73-1-9-3-53"
     inkscape:connector-curvature="0"
     sodipodi:nodetypes="cccccccccc" />
  <path
     style="fill:none;stroke:#000000;stroke-width:4;stroke-linecap:butt;stroke-linejoin:miter;stroke-miterlimit:4;stroke-dasharray:none;stroke-opacity:1"
     d="m 233.3537,208.62009 -4.1e-4,44.32497 m -1.2e-4,12.72404 -1e-4,10.94267 m -1.3e-4,13.23301 -5.1e-4,55.47682 m -1.5e-4,15.7778 -9e-5,9.67027 m -1.3e-4,13.99645 -3.6e-4,39.14491"
     id="path14359-1-7-5-3-0-73-1-9-3-33"
     inkscape:connector-curvature="0"
     sodipodi:nodetypes="cccccccccc" />
  <path
     style="fill:none;stroke:#000000;stroke-width:4;stroke-linecap:butt;stroke-linejoin:miter;stroke-miterlimit:4;stroke-dasharray:none;stroke-opacity:1"
     d="m 124.3772,315.46121 35.43675,1e-4 m 15.01437,4e-5 9.92475,3e-5 m 14.5054,4e-5 74.05392,2.1e-4 m 10.17923,3e-5 9.41579,2e-5 m 11.9606,4e-5 64.12917,1.8e-4 m 9.92475,3e-5 11.96059,3e-5 m 11.70613,3e-5 72.7815,2.1e-4 m 9.4158,2e-5 7.63442,2e-5 m 10.43371,3e-5 61.0754,1.8e-4 m 8.65235,2e-5 9.1613,3e-5 m 11.70612,3e-5 68.9643,1.9e-4 m 11.19716,3e-5 11.9606,4e-5 m 11.19715,3e-5 38.93557,1.1e-4"
     id="path14359-1-7-5-3-0-73-1-9-3-4"
     inkscape:connector-curvature="0"
     sodipodi:nodetypes="cccccccccccccccccccccccccc" />
  <path
     style="color:#000000;display:inline;overflow:visible;visibility:visible;fill:none;fill-rule:evenodd;stroke:#000000;stroke-width:4;stroke-linecap:butt;stroke-linejoin:miter;stroke-miterlimit:4;stroke-dasharray:none;stroke-dashoffset:0;stroke-opacity:1;marker:none;enable-background:accumulate"
     d="m 514.17367,315.29892 c 0,46.01967 -37.30632,83.32599 -83.32599,83.32599 -46.01967,0 -83.32598,-37.30632 -83.32598,-83.32599 0,-46.01967 37.30631,-83.32598 83.32598,-83.32599 46.01967,0 83.32599,37.30632 83.32599,83.32599 z"
     id="path16473"
     inkscape:connector-curvature="0"
     sodipodi:nodetypes="sssss" />
  <path
     style="color:#000000;display:inline;overflow:visible;visibility:visible;fill:none;fill-rule:evenodd;stroke:#000000;stroke-width:4;stroke-linecap:butt;stroke-linejoin:miter;stroke-miterlimit:4;stroke-dasharray:none;stroke-dashoffset:0;stroke-opacity:1;marker:none;enable-background:accumulate"
     d="m 317.59388,316.18363 c 0,46.01967 -37.30632,83.32599 -83.32599,83.32599 -46.01967,0 -83.32598,-37.30632 -83.32598,-83.32599 0,-46.01967 37.30631,-83.32598 83.32598,-83.32599 46.01967,0 83.32599,37.30632 83.32599,83.32599 z"
     id="path16473-1"
     inkscape:connector-curvature="0"
     sodipodi:nodetypes="sssss" />
  <path
     style="color:#000000;display:inline;overflow:visible;visibility:visible;fill:none;fill-rule:evenodd;stroke:#000000;stroke-width:4;stroke-linecap:butt;stroke-linejoin:miter;stroke-miterlimit:4;stroke-dasharray:none;stroke-dashoffset:0;stroke-opacity:1;marker:none;enable-background:accumulate"
     d="m 712.87674,314.76811 c 0,46.01967 -37.30632,83.32599 -83.32599,83.32599 -46.01967,0 -83.32598,-37.30632 -83.32598,-83.32599 0,-46.01967 37.30631,-83.32598 83.32598,-83.32599 46.01967,0 83.32599,37.30632 83.32599,83.32599 z"
     id="path16473-18"
     inkscape:connector-curvature="0"
     sodipodi:nodetypes="sssss" />
  <path
     style="color:#000000;display:inline;overflow:visible;visibility:visible;fill:none;fill-rule:evenodd;stroke:#000000;stroke-width:4;stroke-linecap:butt;stroke-linejoin:miter;stroke-miterlimit:4;stroke-dasharray:none;stroke-dashoffset:0;stroke-opacity:1;marker:none;enable-background:accumulate"
     d="m 218.50776,154.10704 c 0,46.01967 -37.30632,83.32599 -83.32599,83.32599 -46.019667,0 -83.325977,-37.30632 -83.325977,-83.32599 0,-46.01967 37.30631,-83.325979 83.325977,-83.325989 46.01967,0 83.32599,37.306319 83.32599,83.325989 z"
     id="path16473-14"
     inkscape:connector-curvature="0"
     sodipodi:nodetypes="sssss" />
  <path
     style="color:#000000;display:inline;overflow:visible;visibility:visible;fill:none;fill-rule:evenodd;stroke:#000000;stroke-width:4;stroke-linecap:butt;stroke-linejoin:miter;stroke-miterlimit:4;stroke-dasharray:none;stroke-dashoffset:0;stroke-opacity:1;marker:none;enable-background:accumulate"
     d="m 416.68001,153.39928 c 0,46.01967 -37.30632,83.32599 -83.32599,83.32599 -46.01967,0 -83.32598,-37.30632 -83.32598,-83.32599 0,-46.01967 37.30631,-83.325979 83.32598,-83.325989 46.01967,0 83.32599,37.306319 83.32599,83.325989 z"
     id="path16473-6"
     inkscape:connector-curvature="0"
     sodipodi:nodetypes="sssss" />
  <path
     style="color:#000000;display:inline;overflow:visible;visibility:visible;fill:none;fill-rule:evenodd;stroke:#000000;stroke-width:4;stroke-linecap:butt;stroke-linejoin:miter;stroke-miterlimit:4;stroke-dasharray:none;stroke-dashoffset:0;stroke-opacity:1;marker:none;enable-background:accumulate"
     d="m 615.56002,150.56825 c 0,46.01968 -37.30632,83.326 -83.326,83.326 -46.01967,0 -83.32598,-37.30632 -83.32598,-83.326 0,-46.01967 37.30631,-83.325977 83.32598,-83.325987 46.01968,0 83.326,37.306317 83.326,83.325987 z"
     id="path16473-4"
     inkscape:connector-curvature="0"
     sodipodi:nodetypes="sssss" />
  <path
     style="color:#000000;display:inline;overflow:visible;visibility:visible;fill:none;fill-rule:evenodd;stroke:#000000;stroke-width:4;stroke-linecap:butt;stroke-linejoin:miter;stroke-miterlimit:4;stroke-dasharray:none;stroke-dashoffset:0;stroke-opacity:1;marker:none;enable-background:accumulate"
     d="m 811.2551,149.15273 c 0,46.01968 -37.30632,83.326 -83.32599,83.326 -46.01967,0 -83.32598,-37.30632 -83.32598,-83.326 0,-46.01967 37.30631,-83.325973 83.32598,-83.325983 46.01967,0 83.32599,37.306313 83.32599,83.325983 z"
     id="path16473-69"
     inkscape:connector-curvature="0"
     sodipodi:nodetypes="sssss" />
  <path
     style="color:#000000;display:inline;overflow:visible;visibility:visible;fill:none;fill-rule:evenodd;stroke:#000000;stroke-width:4;stroke-linecap:butt;stroke-linejoin:miter;stroke-miterlimit:4;stroke-dasharray:none;stroke-dashoffset:0;stroke-opacity:1;marker:none;enable-background:accumulate"
     d="m 808.77794,481.44513 c 0,46.01967 -37.30632,83.32599 -83.32599,83.32599 -46.01967,0 -83.32598,-37.30632 -83.32598,-83.32599 0,-46.01967 37.30631,-83.32598 83.32598,-83.32599 46.01967,0 83.32599,37.30632 83.32599,83.32599 z"
     id="path16473-693"
     inkscape:connector-curvature="0"
     sodipodi:nodetypes="sssss" />
  <path
     style="color:#000000;display:inline;overflow:visible;visibility:visible;fill:none;fill-rule:evenodd;stroke:#000000;stroke-width:4;stroke-linecap:butt;stroke-linejoin:miter;stroke-miterlimit:4;stroke-dasharray:none;stroke-dashoffset:0;stroke-opacity:1;marker:none;enable-background:accumulate"
     d="m 614.49837,482.86064 c 0,46.01967 -37.30632,83.32599 -83.32599,83.32599 -46.01967,0 -83.32598,-37.30632 -83.32598,-83.32599 0,-46.01967 37.30631,-83.32598 83.32598,-83.32599 46.01967,0 83.32599,37.30632 83.32599,83.32599 z"
     id="path16473-7"
     inkscape:connector-curvature="0"
     sodipodi:nodetypes="sssss" />
  <path
     style="color:#000000;display:inline;overflow:visible;visibility:visible;fill:none;fill-rule:evenodd;stroke:#000000;stroke-width:4;stroke-linecap:butt;stroke-linejoin:miter;stroke-miterlimit:4;stroke-dasharray:none;stroke-dashoffset:0;stroke-opacity:1;marker:none;enable-background:accumulate"
     d="m 414.20286,483.21452 c 0,46.01967 -37.30632,83.32599 -83.326,83.32599 -46.01967,0 -83.32598,-37.30632 -83.32598,-83.32599 0,-46.01967 37.30631,-83.32598 83.32598,-83.32599 46.01968,0 83.326,37.30632 83.326,83.32599 z"
     id="path16473-79"
     inkscape:connector-curvature="0"
     sodipodi:nodetypes="sssss" />
  <path
     style="color:#000000;display:inline;overflow:visible;visibility:visible;fill:none;fill-rule:evenodd;stroke:#000000;stroke-width:4;stroke-linecap:butt;stroke-linejoin:miter;stroke-miterlimit:4;stroke-dasharray:none;stroke-dashoffset:0;stroke-opacity:1;marker:none;enable-background:accumulate"
     d="m 216.73837,483.21451 c 0,46.01968 -37.30632,83.326 -83.32599,83.326 -46.019673,0 -83.325981,-37.30632 -83.325981,-83.326 0,-46.01967 37.306308,-83.32598 83.325981,-83.32599 46.01967,0 83.32599,37.30632 83.32599,83.32599 z"
     id="path16473-5"
     inkscape:connector-curvature="0"
     sodipodi:nodetypes="sssss" />
  <path
     style="fill:none;stroke:#000000;stroke-width:4;stroke-linecap:butt;stroke-linejoin:miter;stroke-miterlimit:4;stroke-dasharray:none;stroke-opacity:1"
     d="M 107.66946,233.3621 232.85795,317.14654 100.8024,405.88236"
     id="path14359-1-7-5-3-0-73-1-9-3-33-7"
     inkscape:connector-curvature="0"
     sodipodi:nodetypes="ccc" />
  <path
     style="color:#000000;display:inline;overflow:visible;visibility:visible;fill:none;fill-rule:evenodd;stroke:#000000;stroke-width:15;stroke-linecap:butt;stroke-linejoin:miter;stroke-miterlimit:4;stroke-dasharray:none;stroke-dashoffset:0;stroke-opacity:1;marker:none;enable-background:accumulate"
     d="m 155.85428,359.94257 c -8.30661,-13.6875 -13.08931,-28.20616 -13.08931,-45.38655 0,-14.76761 3.53368,-28.70988 9.8016,-41.02739 L 80.349941,225.85636 C 58.061076,209.35408 43.61146,182.86656 43.61146,153.00415 c 0,-50.03021 40.55751,-90.58772 90.58773,-90.58772 47.68689,0 86.76765,36.847198 90.32399,83.62327 l 18.41422,0.6114 c 2.84203,-47.46995 42.23957,-85.089432 90.42361,-85.089442 47.97528,-1e-5 87.24002,37.294212 90.3846,84.472992 l 18.23323,-0.14629 c 1.50125,-48.715185 41.46458,-87.745779 90.544,-87.745789 49.13486,-10e-6 89.13301,39.118827 90.54893,87.910909 l 13.77722,-0.36628 c 1.16211,-49.019212 41.2631,-88.399391 90.56182,-88.399401 50.03022,-1e-5 90.58772,40.55751 90.58772,90.587721 0,28.09619 -12.87511,55.94751 -34.02578,71.17229 l -75.53876,54.37467 c 6.76797,12.6904 10.41099,26.60175 10.41099,41.98831 0,15.64717 -4.5464,31.1401 -11.52974,43.98317 l 75.36027,53.24523 c 20.72642,14.64409 31.90393,40.37282 31.90393,67.74255 0,50.03021 -40.5575,90.58772 -90.58772,90.58772 -47.3715,0 -86.25034,-36.36141 -90.24878,-82.69649 l -12.53638,-0.19825 c -3.08041,47.24086 -42.37348,84.60429 -90.39326,84.60429 -47.96845,0 -87.22886,-37.2836 -90.38327,-84.45286 l -19.16025,0.1721 c -2.39407,47.89398 -41.98463,85.9903 -90.47308,85.9903 -48.54519,0 -88.17168,-38.18554 -90.48134,-86.15849 l -16.56183,-0.40376 c -2.9586,47.35823 -42.3052,84.85271 -90.40912,84.85271 -50.030211,0 -90.587721,-40.55751 -90.587721,-90.58772 0,-29.3173 12.679387,-57.15071 35.525762,-71.93855 z"
     id="path16473-693-8-7-3"
     inkscape:connector-curvature="0"
     sodipodi:nodetypes="csccssccsccsccssscscsssccsccsccsssc" />
  <path
     style="fill:none;stroke:#000000;stroke-width:4;stroke-linecap:butt;stroke-linejoin:miter;stroke-miterlimit:4;stroke-dasharray:none;stroke-opacity:1"
     d="m 759.06598,227.89865 -128.15568,87.2887 122.53708,87.41637"
     id="path14359-1-7-5-3-0-73-1-9-3-33-7-8"
     inkscape:connector-curvature="0"
     sodipodi:nodetypes="ccc" />
  <path
     style="fill:#000000;fill-opacity:1;stroke:#000000;stroke-width:4;stroke-linecap:butt;stroke-linejoin:miter;stroke-miterlimit:4;stroke-dasharray:none;stroke-opacity:1"
     d="m 799.62535,583.01753 -9.91774,-9.72539 13.40523,3.62925 -1.74374,3.04807 z"
     id="path14359-1-7-5-3-0-73-1"
     inkscape:connector-curvature="0"
     sodipodi:nodetypes="ccccc" />
  <path
     style="fill:none;stroke:#000000;stroke-width:4;stroke-linecap:butt;stroke-linejoin:miter;stroke-miterlimit:4;stroke-dasharray:none;stroke-opacity:1"
     d="m 801.38263,579.97604 45.17541,26.29133"
     id="path14359-1-7-5-3-0-73-1-9-2"
     inkscape:connector-curvature="0"
     sodipodi:nodetypes="cc" />
  <path
     style="fill:#000000;fill-opacity:1;stroke:#000000;stroke-width:4;stroke-linecap:butt;stroke-linejoin:miter;stroke-miterlimit:4;stroke-dasharray:none;stroke-opacity:1"
     d="m 690.47585,297.13524 -12.97144,-4.96857 13.74126,-2.01234 -0.38491,3.49045 z"
     id="path14359-1-7-5-3-0-73-1-2"
     inkscape:connector-curvature="0"
     sodipodi:nodetypes="ccccc" />
  <path
     style="fill:none;stroke:#000000;stroke-width:4;stroke-linecap:butt;stroke-linejoin:miter;stroke-miterlimit:4;stroke-dasharray:none;stroke-opacity:1"
     d="m 690.87579,293.64543 141.01055,16.64002 -141.70736,24.60359"
     id="path14359-1-7-5-3-0-73-1-9-2-0"
     inkscape:connector-curvature="0"
     sodipodi:nodetypes="ccc" />
  <path
     style="fill:#000000;fill-opacity:1;stroke:#000000;stroke-width:4;stroke-linecap:butt;stroke-linejoin:miter;stroke-miterlimit:4;stroke-dasharray:none;stroke-opacity:1"
     d="m 689.59853,331.42675 -12.67432,5.6839 13.83208,1.24324 -0.57888,-3.46357 z"
     id="path14359-1-7-5-3-0-73-1-0"
     inkscape:connector-curvature="0"
     sodipodi:nodetypes="ccccc" />
  <path
     style="fill:#000000;fill-opacity:1;stroke:#000000;stroke-width:4;stroke-linecap:butt;stroke-linejoin:miter;stroke-miterlimit:4;stroke-dasharray:none;stroke-opacity:1"
     d="m 691.89218,194.80807 -7.4418,11.72879 12.22619,-6.58727 -2.3922,-2.57076 z"
     id="path14359-1-7-5-3-0-73-1-0-2"
     inkscape:connector-curvature="0"
     sodipodi:nodetypes="ccccc" />
  <path
     style="fill:none;stroke:#000000;stroke-width:4;stroke-linecap:butt;stroke-linejoin:miter;stroke-miterlimit:4;stroke-dasharray:none;stroke-opacity:1"
     d="M 694.28498,197.3769 847.58601,52.562752 525.56738,266.28417"
     id="path14359-1-7-5-3-0-73-1-9-2-8"
     inkscape:connector-curvature="0"
     sodipodi:nodetypes="ccc" />
  <path
     style="fill:#000000;fill-opacity:1;stroke:#000000;stroke-width:4;stroke-linecap:butt;stroke-linejoin:miter;stroke-miterlimit:4;stroke-dasharray:none;stroke-opacity:1"
     d="m 523.57964,263.39051 -9.09036,10.50287 13.06407,-4.7119 -1.98685,-2.89549 z"
     id="path14359-1-7-5-3-0-73-1-0-1"
     inkscape:connector-curvature="0"
     sodipodi:nodetypes="ccccc" />
  <text
     xml:space="preserve"
     style="font-style:normal;font-variant:normal;font-weight:normal;font-stretch:normal;font-size:27.5px;line-height:125%;font-family:Arial;-inkscape-font-specification:Arial;text-align:start;letter-spacing:1px;word-spacing:0px;text-anchor:start;fill:#000000;fill-opacity:1;stroke:none;stroke-width:1px;stroke-linecap:butt;stroke-linejoin:miter;stroke-opacity:1"
     x="213.69295"
     y="702.62244"
     id="text16848"
     sodipodi:linespacing="125%"><tspan
       sodipodi:role="line"
       id="tspan16850"
       x="213.69295"
       y="702.62244">SIDE EXTERNAL SURFACE AREA OF GROUPING</tspan><tspan
       sodipodi:role="line"
       x="213.69295"
       y="736.99744"
       id="tspan16852">OF VERTICAL PRESSURE TANKS</tspan></text>
  <text
     xml:space="preserve"
     style="font-style:normal;font-variant:normal;font-weight:normal;font-stretch:normal;font-size:22.5px;line-height:125%;font-family:Arial;-inkscape-font-specification:Arial;text-align:start;letter-spacing:1px;word-spacing:0px;text-anchor:start;fill:#000000;fill-opacity:1;stroke:none;stroke-width:1px;stroke-linecap:butt;stroke-linejoin:miter;stroke-opacity:1"
     x="859.90039"
     y="39.319508"
     id="text16854"
     sodipodi:linespacing="125%"><tspan
       sodipodi:role="line"
       id="tspan16856"
       x="859.90039"
       y="39.319508">BOUNDARY OF</tspan><tspan
       sodipodi:role="line"
       x="859.90039"
       y="67.444504"
       id="tspan16858">PRESSURE TANKS</tspan></text>
  <text
     xml:space="preserve"
     style="font-style:normal;font-variant:normal;font-weight:normal;font-stretch:normal;font-size:22.5px;line-height:125%;font-family:Arial;-inkscape-font-specification:Arial;text-align:start;letter-spacing:1px;word-spacing:0px;text-anchor:start;fill:#000000;fill-opacity:1;stroke:none;stroke-width:1px;stroke-linecap:butt;stroke-linejoin:miter;stroke-opacity:1"
     x="854.77179"
     y="317.9751"
     id="text16860"
     sodipodi:linespacing="125%"><tspan
       sodipodi:role="line"
       id="tspan16862"
       x="854.77179"
       y="317.9751">TANGENT LINES</tspan></text>
  <text
     xml:space="preserve"
     style="font-style:normal;font-variant:normal;font-weight:normal;font-stretch:normal;font-size:22.5px;line-height:125%;font-family:Arial;-inkscape-font-specification:Arial;text-align:start;letter-spacing:1px;word-spacing:0px;text-anchor:start;fill:#000000;fill-opacity:1;stroke:none;stroke-width:1px;stroke-linecap:butt;stroke-linejoin:miter;stroke-opacity:1"
     x="859.90045"
     y="581.24481"
     id="text16864"
     sodipodi:linespacing="125%"><tspan
       sodipodi:role="line"
       id="tspan16866"
       x="859.90045"
       y="581.24481">SIDE EXTERNAL SURFACE</tspan><tspan
       sodipodi:role="line"
       x="859.90045"
       y="609.36981"
       id="tspan16868">AREA OF GROUPING OF</tspan><tspan
       sodipodi:role="line"
       x="859.90045"
       y="637.49481"
       id="tspan16870">VERTICAL PRESSURE TANKS</tspan></text>
  <text
     xml:space="preserve"
     style="font-style:normal;font-variant:normal;font-weight:normal;font-stretch:normal;font-size:22.5px;line-height:125%;font-family:Arial;-inkscape-font-specification:Arial;text-align:start;letter-spacing:1px;word-spacing:0px;text-anchor:start;fill:#000000;fill-opacity:1;stroke:none;stroke-width:1px;stroke-linecap:butt;stroke-linejoin:miter;stroke-opacity:1"
     x="437.64316"
     y="800.06635"
     id="text16872"
     sodipodi:linespacing="125%"><tspan
       sodipodi:role="line"
       id="tspan16874"
       x="437.64316"
       y="800.06635">Figure 54.15-25 (c)</tspan></text>
</svg>
