<?xml version="1.0" encoding="UTF-8" standalone="no"?>
<!-- Created with Inkscape (http://www.inkscape.org/) -->

<svg
   xmlns:dc="http://purl.org/dc/elements/1.1/"
   xmlns:cc="http://creativecommons.org/ns#"
   xmlns:rdf="http://www.w3.org/1999/02/22-rdf-syntax-ns#"
   xmlns:svg="http://www.w3.org/2000/svg"
   xmlns="http://www.w3.org/2000/svg"
   xmlns:sodipodi="http://sodipodi.sourceforge.net/DTD/sodipodi-0.dtd"
   xmlns:inkscape="http://www.inkscape.org/namespaces/inkscape"
   id="svg18867"
   version="1.1"
   inkscape:version="0.48.2 r9819"
   width="309"
   height="203"
   viewBox="0 0 309 203"
   sodipodi:docname="ec01au91.123.svg">
  <title id="title_ec01au91.123"></title>
  <desc id="desc_ec01au91.123"></desc>
  <metadata
     id="metadata18873">
    <rdf:RDF>
      <cc:Work
         rdf:about="">
        <dc:format>image/svg+xml</dc:format>
        <dc:type
           rdf:resource="http://purl.org/dc/dcmitype/StillImage" />
        <dc:title></dc:title>
      </cc:Work>
    </rdf:RDF>
  </metadata>
  <defs
     id="defs18871" />
  <sodipodi:namedview
     pagecolor="#ffffff"
     bordercolor="#666666"
     borderopacity="1"
     objecttolerance="10"
     gridtolerance="10"
     guidetolerance="10"
     inkscape:pageopacity="0"
     inkscape:pageshadow="2"
     inkscape:window-width="1280"
     inkscape:window-height="756"
     id="namedview18869"
     showgrid="false"
     inkscape:zoom="2.3349754"
     inkscape:cx="154.5"
     inkscape:cy="90.655637"
     inkscape:window-x="0"
     inkscape:window-y="0"
     inkscape:window-maximized="0"
     inkscape:current-layer="svg18867" />
  <path
     style="fill:none;fill-rule:evenodd;stroke:#000000;stroke-width:1px;stroke-linecap:round;stroke-linejoin:round;stroke-opacity:1"
     d="m 162.76701,58.008003 c -0.33674,-0.951348 -0.93218,-1.21137 -1.48901,-1.768195"
     id="path19417"
     inkscape:connector-curvature="0" />
  <path
     style="fill:none;fill-rule:evenodd;stroke:#000000;stroke-width:1px;stroke-linecap:round;stroke-linejoin:round;stroke-opacity:1"
     d="m 164.53521,55.867556 c -0.88957,-1.400881 -4.09477,-1.989658 -4.09477,-3.53639"
     id="path19419"
     inkscape:connector-curvature="0" />
  <path
     style="fill:none;fill-rule:evenodd;stroke:#000000;stroke-width:1px;stroke-linecap:round;stroke-linejoin:round;stroke-opacity:1"
     d="m 166.58259,51.679725 c -1.34688,-1.700672 -3.08137,-3.787989 -4.56008,-4.280893"
     id="path19421"
     inkscape:connector-curvature="0" />
  <path
     style="fill:none;fill-rule:evenodd;stroke:#000000;stroke-width:1px;stroke-linecap:round;stroke-linejoin:round;stroke-opacity:1"
     d="m 168.53691,48.60865 c -1.37441,-0.531418 -2.10274,-1.681017 -3.07107,-2.326573"
     id="path19423"
     inkscape:connector-curvature="0" />
  <path
     style="fill:none;fill-rule:evenodd;stroke:#000000;stroke-width:1px;stroke-linecap:round;stroke-linejoin:round;stroke-opacity:1"
     d="m 168.8161,46.654329 c -0.396,-0.618801 -1.25557,-1.255572 -1.48901,-1.489006"
     id="path19425"
     inkscape:connector-curvature="0" />
  <path
     style="fill:none;fill-rule:evenodd;stroke:#000000;stroke-width:1px;stroke-linecap:round;stroke-linejoin:round;stroke-opacity:1"
     d="m 169.74673,43.862442 c -1.59293,-3.130266 -4.0124,-1.871955 -5.7699,-3.629453"
     id="path19427"
     inkscape:connector-curvature="0" />
  <path
     style="fill:none;fill-rule:evenodd;stroke:#000000;stroke-width:1px;stroke-linecap:round;stroke-linejoin:round;stroke-opacity:1"
     d="m 169.65367,37.627228 c -1.10289,-1.337258 -3.50938,-0.531363 -4.46702,-1.489007 -0.52805,-0.528051 -0.98041,-0.930629 -1.95432,-0.930629"
     id="path19429"
     inkscape:connector-curvature="0" />
  <path
     style="fill:none;fill-rule:evenodd;stroke:#000000;stroke-width:1px;stroke-linecap:round;stroke-linejoin:round;stroke-opacity:1"
     d="m 170.02592,30.833636 c -0.62331,-1.621582 -3.18677,0.34962 -4.09477,-0.558377 -0.33202,-0.33202 -0.45276,-0.73195 -0.7445,-1.023692"
     id="path19431"
     inkscape:connector-curvature="0" />
  <path
     style="fill:none;fill-rule:evenodd;stroke:#000000;stroke-width:1px;stroke-linecap:round;stroke-linejoin:round;stroke-opacity:1"
     d="m 171.42186,24.691485 c -0.39841,-0.91924 -1.20333,-0.924143 -1.67513,-1.395944 -0.0828,-0.08284 -4.16921,0.521156 -4.83927,0.186126 -1.73912,-0.869561 -3.5862,-1.818 -4.93234,-3.164139 -0.83881,-0.838813 -3.05118,-0.923998 -3.90864,-1.209817"
     id="path19433"
     inkscape:connector-curvature="0" />
  <path
     style="fill:none;fill-rule:evenodd;stroke:#000000;stroke-width:1px;stroke-linecap:round;stroke-linejoin:round;stroke-opacity:1"
     d="m 177.28482,23.202478 c -3.92814,-0.225261 -7.40962,-6.013682 -9.30629,-7.910346"
     id="path19435"
     inkscape:connector-curvature="0" />
  <path
     style="fill:none;fill-rule:evenodd;stroke:#000000;stroke-width:1px;stroke-linecap:round;stroke-linejoin:round;stroke-opacity:1"
     d="m 181.65878,21.527346 c -2.00556,0.213095 -2.89979,-1.876098 -3.90864,-2.88495"
     id="path19437"
     inkscape:connector-curvature="0" />
  <path
     style="fill:none;fill-rule:evenodd;stroke:#000000;stroke-width:1px;stroke-linecap:round;stroke-linejoin:round;stroke-opacity:1"
     d="m 184.45067,22.551038 c -1.43017,-0.389868 -1.13214,-2.155829 -1.67514,-2.698824 -0.50886,-0.508862 -1.15073,-1.057675 -1.58206,-1.489007"
     id="path19439"
     inkscape:connector-curvature="0" />
  <path
     style="fill:none;fill-rule:evenodd;stroke:#000000;stroke-width:1px;stroke-linecap:round;stroke-linejoin:round;stroke-opacity:1"
     d="m 187.24255,21.620409 c -1.0993,-1.5338 -1.48013,-3.044464 -2.04738,-4.746208"
     id="path19441"
     inkscape:connector-curvature="0" />
  <path
     style="fill:none;fill-rule:evenodd;stroke:#000000;stroke-width:1px;stroke-linecap:round;stroke-linejoin:round;stroke-opacity:1"
     d="m 191.61651,21.434283 c -1.51643,-0.418016 -0.58037,-1.532988 -1.11675,-2.605761 -0.17791,-0.35582 -1.81659,-2.326573 -0.83757,-2.326573"
     id="path19443"
     inkscape:connector-curvature="0" />
  <path
     style="fill:none;fill-rule:evenodd;stroke:#000000;stroke-width:1px;stroke-linecap:round;stroke-linejoin:round;stroke-opacity:1"
     d="m 193.19858,22.457975 c 1.40481,-1.233671 0.86306,-3.985138 1.30288,-5.304585"
     id="path19445"
     inkscape:connector-curvature="0" />
  <path
     style="fill:none;fill-rule:evenodd;stroke:#000000;stroke-width:1px;stroke-linecap:round;stroke-linejoin:round;stroke-opacity:1"
     d="m 196.17659,22.644101 c -0.17257,-1.772199 0.74451,-3.028466 0.74451,-4.560082"
     id="path19447"
     inkscape:connector-curvature="0" />
  <path
     style="fill:none;fill-rule:evenodd;stroke:#000000;stroke-width:1px;stroke-linecap:round;stroke-linejoin:round;stroke-opacity:1"
     d="m 200.55055,22.737164 c 1.25845,-0.631784 2.88666,-4.46645 3.44333,-4.280894"
     id="path19449"
     inkscape:connector-curvature="0" />
  <path
     style="fill:none;fill-rule:evenodd;stroke:#000000;stroke-width:1px;stroke-linecap:round;stroke-linejoin:round;stroke-opacity:1"
     d="m 203.06325,24.505359 c 0.82154,-1.268937 1.86125,-2.130416 1.86125,-3.53639"
     id="path19451"
     inkscape:connector-curvature="0" />
  <path
     style="fill:none;fill-rule:evenodd;stroke:#000000;stroke-width:1px;stroke-linecap:round;stroke-linejoin:round;stroke-opacity:1"
     d="m 206.04126,23.853919 c 0.2443,-1.185646 -0.007,-1.974417 -0.27919,-2.791887"
     id="path19453"
     inkscape:connector-curvature="0" />
  <path
     style="fill:none;fill-rule:evenodd;stroke:#000000;stroke-width:1px;stroke-linecap:round;stroke-linejoin:round;stroke-opacity:1"
     d="m 206.97189,21.899598 c 0.22783,-1.068934 -0.002,-3.251004 0.0931,-3.536391"
     id="path19455"
     inkscape:connector-curvature="0" />
  <path
     style="fill:none;fill-rule:evenodd;stroke:#000000;stroke-width:1px;stroke-linecap:round;stroke-linejoin:round;stroke-opacity:1"
     d="m 209.11234,24.505359 c 0.8119,-0.825006 1.73221,-1.876147 1.30288,-3.164139"
     id="path19457"
     inkscape:connector-curvature="0" />
  <path
     style="fill:none;fill-rule:evenodd;stroke:#000000;stroke-width:1px;stroke-linecap:round;stroke-linejoin:round;stroke-opacity:1"
     d="m 210.41522,25.435988 c 0.062,-0.124084 0.10288,-0.261268 0.18612,-0.372252 0.14673,-0.19564 1.40386,-0.938543 1.7682,-1.30288 1.0133,-1.013305 -0.57537,-3.096434 1.02369,-3.629453"
     id="path19459"
     inkscape:connector-curvature="0" />
  <path
     style="fill:none;fill-rule:evenodd;stroke:#000000;stroke-width:1px;stroke-linecap:round;stroke-linejoin:round;stroke-opacity:1"
     d="m 211.99728,26.831931 c 1.15619,-0.363952 1.04766,-2.908915 1.39595,-3.257201 0.31692,-0.316924 0.97461,-0.881553 1.11675,-1.023692"
     id="path19461"
     inkscape:connector-curvature="0" />
  <path
     style="fill:none;fill-rule:evenodd;stroke:#000000;stroke-width:1px;stroke-linecap:round;stroke-linejoin:round;stroke-opacity:1"
     d="m 213.76548,58.008003 c -0.10929,-1.66937 -2.32657,-1.225599 -2.32657,-2.326573"
     id="path19463"
     inkscape:connector-curvature="0" />
  <path
     style="fill:none;fill-rule:evenodd;stroke:#000000;stroke-width:1px;stroke-linecap:round;stroke-linejoin:round;stroke-opacity:1"
     d="m 208.46089,55.402241 c -0.48373,-0.660016 -2.3136,0.292157 -2.79188,-0.186125 -1.09919,-1.099187 -4.93638,-0.398597 -6.42134,-0.893585"
     id="path19465"
     inkscape:connector-curvature="0"
     sodipodi:nodetypes="csc" />
  <path
     style="fill:none;fill-rule:evenodd;stroke:#000000;stroke-width:1px;stroke-linecap:round;stroke-linejoin:round;stroke-opacity:1"
     d="m 198.78235,55.309179 c -1.17222,-0.0055 -2.2737,-0.314437 -3.16414,0.279188"
     id="path19467"
     inkscape:connector-curvature="0" />
  <path
     style="fill:none;fill-rule:evenodd;stroke:#000000;stroke-width:1px;stroke-linecap:round;stroke-linejoin:round;stroke-opacity:1"
     d="m 195.71128,56.518996 c -0.50261,-0.104152 -1.3541,-0.134911 -1.67513,0.186126"
     id="path19469"
     inkscape:connector-curvature="0" />
  <path
     style="fill:none;fill-rule:evenodd;stroke:#000000;stroke-width:1px;stroke-linecap:round;stroke-linejoin:round;stroke-opacity:1"
     d="m 193.94308,57.635751 c -0.47975,-0.144666 -0.97206,-0.144695 -1.20982,0.09306"
     id="path19471"
     inkscape:connector-curvature="0" />
  <path
     style="fill:none;fill-rule:evenodd;stroke:#000000;stroke-width:1px;stroke-linecap:round;stroke-linejoin:round;stroke-opacity:1"
     d="m 192.45408,58.659443 c -0.83824,0.09019 -0.17001,0.05667 -0.55838,0.186126"
     id="path19473"
     inkscape:connector-curvature="0" />
  <path
     style="fill:none;fill-rule:evenodd;stroke:#000000;stroke-width:1px;stroke-linecap:round;stroke-linejoin:round;stroke-opacity:1"
     d="m 209.85684,59.403946 c -1.20184,-0.119086 -2.55363,-0.821864 -3.35027,-1.116755 -1.06443,-0.394017 -2.75079,0.416077 -3.62945,0.09306 -2.51786,-0.925628 -6.14077,-0.726914 -7.81728,0.279189"
     id="path19475"
     inkscape:connector-curvature="0"
     sodipodi:nodetypes="cssc" />
  <path
     style="fill:none;fill-rule:evenodd;stroke:#000000;stroke-width:1px;stroke-linecap:round;stroke-linejoin:round;stroke-opacity:1"
     d="m 208.20994,63.294066 c -1.1197,-0.04086 -1.58043,0.797977 -2.1409,1.358447 -0.62709,0.627084 -2.61015,0.649748 -3.00579,0.893584 -1.5289,0.942282 -5.64436,3.815579 -7.44504,3.815579"
     id="path19477"
     inkscape:connector-curvature="0"
     sodipodi:nodetypes="cssc" />
  <path
     style="fill:none;fill-rule:evenodd;stroke:#000000;stroke-width:1px;stroke-linecap:round;stroke-linejoin:round;stroke-opacity:1"
     d="m 208.64702,67.500418 c -2.89006,-0.04219 -5.17031,0.610234 -6.70053,2.140447 -0.68201,0.682008 -2.18825,1.109001 -3.48037,2.401114"
     id="path19479"
     inkscape:connector-curvature="0"
     sodipodi:nodetypes="csc" />
  <path
     style="fill:none;fill-rule:evenodd;stroke:#000000;stroke-width:1px;stroke-linecap:round;stroke-linejoin:round;stroke-opacity:1"
     d="m 206.13432,68.803299 c 0.69296,0.892296 0.27919,2.228989 0.27919,3.257201"
     id="path19481"
     inkscape:connector-curvature="0" />
  <path
     style="fill:none;fill-rule:evenodd;stroke:#000000;stroke-width:1px;stroke-linecap:round;stroke-linejoin:round;stroke-opacity:1"
     d="m 206.50657,69.826991 c -0.72512,0.102523 -0.64921,0.839795 -0.27918,1.209818"
     id="path19483"
     inkscape:connector-curvature="0" />
  <path
     style="fill:none;fill-rule:evenodd;stroke:#000000;stroke-width:1px;stroke-linecap:round;stroke-linejoin:round;stroke-opacity:1"
     d="m 216.65043,86.671376 c -0.83479,-0.670031 -1.62431,-1.599012 -2.79189,-1.209818"
     id="path19485"
     inkscape:connector-curvature="0" />
  <path
     style="fill:none;fill-rule:evenodd;stroke:#000000;stroke-width:1px;stroke-linecap:round;stroke-linejoin:round;stroke-opacity:1"
     d="m 205.29676,90.300829 c -0.0252,1.840599 1.12722,2.795377 2.51269,3.257201"
     id="path19487"
     inkscape:connector-curvature="0" />
  <path
     style="fill:none;fill-rule:evenodd;stroke:#000000;stroke-width:1px;stroke-linecap:round;stroke-linejoin:round;stroke-opacity:1"
     d="m 211.34584,92.90659 c -0.0187,-1.902553 5.21153,-2.504259 5.21153,-0.279189"
     id="path19489"
     inkscape:connector-curvature="0" />
  <path
     style="fill:none;fill-rule:evenodd;stroke:#000000;stroke-width:1px;stroke-linecap:round;stroke-linejoin:round;stroke-opacity:1"
     d="m 196.45578,105.28396 c 0.40322,1.6924 -0.25121,2.7639 -1.02369,3.53639"
     id="path19491"
     inkscape:connector-curvature="0" />
  <path
     style="fill:none;fill-rule:evenodd;stroke:#000000;stroke-width:1px;stroke-linecap:round;stroke-linejoin:round;stroke-opacity:1"
     d="m 161.46413,86.112998 c -2.52775,-0.765719 -4.94232,5.206529 -6.79359,4.280894 -2.41137,-1.205683 -3.38846,-2.25273 -5.27681,-4.141073 -1.06152,-1.061519 -2.73659,-2.907642 -3.71325,-4.039202 -4.4386,-5.142565 -5.84266,-12.834186 -4.411,-19.924721 0.75452,-3.736882 7.96585,-9.32507 11.5398,-7.538095 2.33625,1.168124 3.82213,2.612307 5.30459,4.094768 0.52844,0.528443 2.60576,1.314089 2.60576,1.954321"
     id="path19493"
     inkscape:connector-curvature="0"
     sodipodi:nodetypes="cssssssc" />
  <path
     style="fill:none;fill-rule:evenodd;stroke:#000000;stroke-width:1px;stroke-linecap:round;stroke-linejoin:round;stroke-opacity:1"
     d="m 158.57918,76.52752 c 0.011,7.799263 -1.31407,1.023692 -4.28089,1.023692"
     id="path19495"
     inkscape:connector-curvature="0" />
  <path
     style="fill:none;fill-rule:evenodd;stroke:#000000;stroke-width:1px;stroke-linecap:round;stroke-linejoin:round;stroke-opacity:1"
     d="m 151.13415,71.129871 c 0.41234,-1.464844 1.17598,-3.276942 2.5127,-3.722516"
     id="path19497"
     inkscape:connector-curvature="0" />
  <path
     style="fill:none;fill-rule:evenodd;stroke:#000000;stroke-width:1px;stroke-linecap:round;stroke-linejoin:round;stroke-opacity:1"
     d="m 146.10875,70.199242 c 0.5029,-1.177413 0.0751,-6.124186 0.74451,-6.793591 0.39902,-0.399028 0.93128,-1.350936 1.21908,-1.926537 0.47116,-0.942321 1.18887,-1.823108 1.66587,-1.982105"
     id="path19499"
     inkscape:connector-curvature="0"
     sodipodi:nodetypes="cssc" />
  <path
     style="fill:none;fill-rule:evenodd;stroke:#000000;stroke-width:1px;stroke-linecap:round;stroke-linejoin:round;stroke-opacity:1"
     d="m 144.43362,68.431047 c -0.38531,-1.788873 -0.60839,-3.678406 0.37638,-5.310338 0.89455,-2.308095 2.75629,-4.360376 5.08281,-5.259987 1.79741,-0.612906 2.96334,1.30222 3.90714,2.493154 1.24964,1.645118 1.62431,3.714005 1.54675,5.737592 0.0136,0.76258 0.0685,1.517535 0.53374,2.153451"
     id="path19501"
     inkscape:connector-curvature="0" />
  <path
     style="fill:none;fill-rule:evenodd;stroke:#000000;stroke-width:1px;stroke-linecap:round;stroke-linejoin:round;stroke-opacity:1"
     d="m 145.55037,76.341394 c 1.20008,1.070579 2.22413,2.689438 3.16414,3.629453 0.57388,0.57388 0.1575,1.687069 0.83757,2.140447"
     id="path19503"
     inkscape:connector-curvature="0" />
  <path
     style="fill:none;fill-rule:evenodd;stroke:#000000;stroke-width:1px;stroke-linecap:round;stroke-linejoin:round;stroke-opacity:1"
     d="m 151.41334,103.79495 c -0.441,5.29082 3.02487,9.52742 6.65024,11.99047 5.69336,3.86802 11.83092,5.01627 13.45134,7.92499"
     id="path19505"
     inkscape:connector-curvature="0"
     sodipodi:nodetypes="csc" />
  <path
     style="fill:none;fill-rule:evenodd;stroke:#000000;stroke-width:1px;stroke-linecap:round;stroke-linejoin:round;stroke-opacity:1"
     d="m 145.11284,100.2493 c 4.83091,5.3435 4.33437,24.79398 7.88257,28.11425"
     id="path19507"
     inkscape:connector-curvature="0"
     sodipodi:nodetypes="cc" />
  <path
     style="fill:none;fill-rule:evenodd;stroke:#000000;stroke-width:1px;stroke-linecap:round;stroke-linejoin:round;stroke-opacity:1"
     d="m 212.83485,28.320938 c 1.93119,-1.363471 5.18461,-5.637592 3.62945,-8.747913 -0.21516,-0.430332 -0.091,-1.02163 -0.46531,-1.395943 l -2.41964,-2.419636 c -0.82323,-0.823234 -2.89614,-1.448071 -4.09476,-2.047384 -1.75037,-0.875184 -3.20373,-2.153642 -5.11846,-2.791886 -6.0625,-2.4678595 -12.43722,-3.1840898 -18.79871,-5.3045858 -1.50852,-0.5028405 -3.33948,-0.2737948 -4.65314,-0.930629 -1.12856,-0.5642776 -7.96526,0.2242832 -8.93404,-0.7445032 -0.31764,-0.3176359 -5.53002,0.1664719 -6.60747,-0.3722516 -1.2617,-0.6308518 -8.30656,-0.070031 -10.05079,-0.6514402 l -6.04909,0 c -5.37403,0.2362117 -10.71286,0.7498186 -15.35538,3.0710756 -1.58413,0.7920667 -6.74561,1.6271484 -7.72422,2.6057612 -0.95854,0.9585405 -3.38138,2.06294 -4.83927,2.791887 -1.89384,0.946921 -7.23002,5.64795 -8.46872,6.886655 -3.72453,3.724528 -6.86136,10.279381 -9.49242,15.541504 -2.71678,5.433569 -5.258345,15.487772 -4.746207,21.776718 0.645992,7.932644 0.391224,14.87287 2.326577,22.614285 0.51933,2.077332 3.56383,7.847581 7.58498,12.093997 4.21822,4.454524 3.77886,9.132382 3.94996,13.791761 0.43567,11.86433 -3.73796,20.77405 -7.16099,25.85721 -5.598532,8.31378 -15.454406,15.82584 -16.844383,19.72934"
     id="path19515"
     inkscape:connector-curvature="0"
     sodipodi:nodetypes="csssscssssccssssssssssc" />
  <path
     style="fill:none;fill-rule:evenodd;stroke:#000000;stroke-width:1px;stroke-linecap:round;stroke-linejoin:round;stroke-opacity:1"
     d="m 135.12733,92.627401 c -2.03777,-0.982621 -3.50882,-0.186126 -5.49071,-0.186126"
     id="path19517"
     inkscape:connector-curvature="0" />
  <path
     style="fill:none;fill-rule:evenodd;stroke:#000000;stroke-width:1px;stroke-linecap:round;stroke-linejoin:round;stroke-opacity:1"
     d="m 133.07995,95.326225 c -1.87691,0.662539 -3.40779,-2.827426 -5.0254,-1.209817"
     id="path19519"
     inkscape:connector-curvature="0" />
  <path
     style="fill:none;fill-rule:evenodd;stroke:#000000;stroke-width:1px;stroke-linecap:round;stroke-linejoin:round;stroke-opacity:1"
     d="m 128.79905,97.280546 c -1.63975,0.947554 -1.42602,-1.137751 -2.88495,-0.65144"
     id="path19521"
     inkscape:connector-curvature="0" />
  <path
     style="fill:none;fill-rule:evenodd;stroke:#000000;stroke-width:1px;stroke-linecap:round;stroke-linejoin:round;stroke-opacity:1"
     d="m 127.31005,99.048741 c -0.74135,-0.444568 -1.59712,-0.832551 -2.41964,-0.558377"
     id="path19523"
     inkscape:connector-curvature="0" />
  <path
     style="fill:none;fill-rule:evenodd;stroke:#000000;stroke-width:1px;stroke-linecap:round;stroke-linejoin:round;stroke-opacity:1"
     d="m 124.4251,100.35162 c -0.77122,-0.28426 -1.41521,-0.27919 -2.23351,-0.27919"
     id="path19525"
     inkscape:connector-curvature="0" />
  <path
     style="fill:none;fill-rule:evenodd;stroke:#000000;stroke-width:1px;stroke-linecap:round;stroke-linejoin:round;stroke-opacity:1"
     d="m 122.56384,101.28225 c -0.43682,0.0429 -0.90241,0.0526 -1.30288,0.18613"
     id="path19527"
     inkscape:connector-curvature="0" />
  <path
     style="fill:none;fill-rule:evenodd;stroke:#000000;stroke-width:1px;stroke-linecap:round;stroke-linejoin:round;stroke-opacity:1"
     d="m 214.41692,27.018057 c 0.30252,5.007262 1.66975,9.900192 2.6199,14.781721 0.36828,3.866604 0.65554,7.659168 1.49234,11.459094 1.05295,3.727643 -0.20109,7.248072 -1.17578,10.80414 -0.86761,3.139376 -1.1429,6.355739 -0.44358,9.518825 0.97893,3.421888 2.48556,6.74732 3.54304,10.169004 1.02588,2.973773 3.89303,6.94408 0.38542,9.341875 -7.37673,2.793052 -7.33645,5.192833 -6.85389,10.262264 0.68974,1.51971 -0.75863,3.15626 -3.28996,4.25555 2.15273,2.07633 2.15249,3.45589 -0.75436,5.17194 -1.58942,1.74307 0.90673,3.20309 -0.13138,6.95786 -1.32407,3.64185 -4.61966,9.93693 -8.88587,10.48448 -2.45029,0.0617 -4.86749,0.0903 -7.07278,-0.093 -4.34577,0 -8.64441,0.36181 -11.26061,2.97801 -2.22183,2.22183 -2.33957,9.41235 -2.97801,10.0508 -0.49732,0.49731 -0.83017,1.56727 -1.20982,2.32657 -0.0366,0.0731 -4.20218,4.10911 -4.65315,4.56008 -0.74381,0.74381 -2.2731,4.66634 -2.51269,4.74621"
     id="path19529"
     inkscape:connector-curvature="0"
     sodipodi:nodetypes="cccccccccccccsccsc" />
  <path
     style="fill:none;fill-rule:evenodd;stroke:#000000;stroke-width:1px;stroke-linecap:round;stroke-linejoin:round;stroke-opacity:1"
     d="m 196.45578,107.33134 c 4.78381,0.0739 9.73399,0.13522 14.42475,0.0931"
     id="path19534"
     inkscape:connector-curvature="0"
     sodipodi:nodetypes="cc" />
  <path
     style="fill:none;stroke:#000000;stroke-width:2;stroke-linecap:butt;stroke-linejoin:miter;stroke-miterlimit:4;stroke-dasharray:6, 2;stroke-opacity:1;stroke-dashoffset:1.39999999999999991"
     d="m 100.16314,73.994062 116.92908,0.002"
     id="path14359-1-7-5-3-0-73-1-9-9"
     inkscape:connector-curvature="0"
     sodipodi:nodetypes="cc" />
  <path
     style="fill:#000000;fill-opacity:1;stroke:#000000;stroke-width:1;stroke-linecap:butt;stroke-linejoin:miter;stroke-miterlimit:4;stroke-dasharray:none;stroke-opacity:1"
     d="m 213.71454,67.384258 -4.14222,3.835885 5.52477,-1.14731 -0.69127,-1.344288 z"
     id="path14359-1-7-5-3-0-73-1-0"
     inkscape:connector-curvature="0"
     sodipodi:nodetypes="ccccc" />
  <path
     style="fill:none;stroke:#000000;stroke-width:1;stroke-linecap:butt;stroke-linejoin:miter;stroke-miterlimit:4;stroke-dasharray:none;stroke-opacity:1"
     d="m 288.00882,39.671552 c -11.7896,3.392471 -31.37892,18.315402 -44.18315,22.966469 -3.21377,1.167384 -4.45499,0.477051 -3.05187,-2.719974 1.32844,-3.026891 -1.85134,-2.754703 -4.40173,-1.684803 -6.66389,2.79554 -15.0678,7.113766 -21.96514,10.493608"
     id="path14359-1-7-5-3-0-73-1-9"
     inkscape:connector-curvature="0"
     sodipodi:nodetypes="csssc" />
  <path
     style="fill:#000000;fill-opacity:1;stroke:#000000;stroke-width:1;stroke-linecap:butt;stroke-linejoin:miter;stroke-miterlimit:4;stroke-dasharray:none;stroke-opacity:1"
     d="m 107.78033,72.49286 5.64506,0.07274 -4.79523,-2.974065 -0.42492,1.45066 z"
     id="path14359-1-7-5-3-0-73-1-0-9"
     inkscape:connector-curvature="0"
     sodipodi:nodetypes="ccccc" />
  <path
     style="fill:none;stroke:#000000;stroke-width:1;stroke-linecap:butt;stroke-linejoin:miter;stroke-miterlimit:4;stroke-dasharray:none;stroke-opacity:1"
     d="m 43.684394,32.481782 c 11.83076,5.882481 22.560472,10.730166 33.098966,14.826029 3.82005,1.48469 3.942308,4.80251 -4.564772,3.312325 -10.740762,-1.881459 -3.628047,6.057298 1.03727,8.497753 14.658493,7.667944 28.171432,9.924506 34.947412,11.924774"
     id="path14359-1-7-5-3-0-73-1-9-8"
     inkscape:connector-curvature="0"
     sodipodi:nodetypes="csssc" />
  <path
     style="fill:#000000;fill-opacity:1;stroke:#000000;stroke-width:1;stroke-linecap:butt;stroke-linejoin:miter;stroke-miterlimit:4;stroke-dasharray:none;stroke-opacity:1"
     d="m 144.52349,77.993172 5.62871,-0.435494 -4.59412,3.276181 -0.51729,-1.420344 z"
     id="path14359-1-7-5-3-0-73-1"
     inkscape:connector-curvature="0"
     sodipodi:nodetypes="ccccc" />
  <path
     style="fill:none;stroke:#000000;stroke-width:1;stroke-linecap:butt;stroke-linejoin:miter;stroke-miterlimit:4;stroke-dasharray:none;stroke-opacity:1"
     d="m 145.02702,79.419599 c -13.10904,5.931477 -28.04744,7.555262 -40.69591,9.269773 -4.0368,0.547192 -14.43563,5.325707 -9.986237,9.045264 2.721347,2.274964 -0.702273,5.048764 -3.957737,5.697074 -6.938328,1.38172 -16.940887,4.62162 -23.365691,8.34708"
     id="path14359-1-7-5-3-0-73-1-9-2"
     inkscape:connector-curvature="0"
     sodipodi:nodetypes="csssc" />
  <text
     xml:space="preserve"
     style="font-style:normal;font-variant:normal;font-weight:normal;font-stretch:normal;font-size:7.5px;line-height:125%;font-family:Arial;-inkscape-font-specification:Arial;text-align:center;letter-spacing:0.5px;word-spacing:0px;text-anchor:middle;fill:#000000;fill-opacity:1;stroke:none;stroke-width:1px;stroke-linecap:butt;stroke-linejoin:miter;stroke-opacity:1"
     x="49.830959"
     y="122.48524"
     id="text19611"
     sodipodi:linespacing="125%"><tspan
       sodipodi:role="line"
       id="tspan19613"
       x="50.080959"
       y="122.48524">CENTER OF EXTERNAL</tspan><tspan
       sodipodi:role="line"
       x="50.080959"
       y="131.86024"
       id="tspan19615">EAR OPENING</tspan></text>
  <text
     xml:space="preserve"
     style="font-style:normal;font-variant:normal;font-weight:normal;font-stretch:normal;font-size:7.5px;line-height:125%;font-family:Arial;-inkscape-font-specification:Arial;text-align:center;letter-spacing:0.5px;word-spacing:0px;text-anchor:middle;fill:#000000;fill-opacity:1;stroke:none;stroke-width:1px;stroke-linecap:butt;stroke-linejoin:miter;stroke-opacity:1"
     x="270.8222"
     y="25.836205"
     id="text19611-8"
     sodipodi:linespacing="125%"><tspan
       sodipodi:role="line"
       x="271.0722"
       y="25.836205"
       id="tspan19640">LOWER EDGE OF</tspan><tspan
       sodipodi:role="line"
       x="271.0722"
       y="35.211205"
       id="tspan19644">EYE SOCKET</tspan></text>
  <text
     xml:space="preserve"
     style="font-style:normal;font-variant:normal;font-weight:normal;font-stretch:normal;font-size:7.5px;line-height:125%;font-family:Arial;-inkscape-font-specification:Arial;text-align:center;letter-spacing:0.5px;word-spacing:0px;text-anchor:middle;fill:#000000;fill-opacity:1;stroke:none;stroke-width:1px;stroke-linecap:butt;stroke-linejoin:miter;stroke-opacity:1"
     x="30.562712"
     y="29.476501"
     id="text19611-2"
     sodipodi:linespacing="125%"><tspan
       sodipodi:role="line"
       x="30.812712"
       y="29.476501"
       id="tspan19615-2">BASIC PLANE</tspan></text>
  <text
     xml:space="preserve"
     style="font-style:normal;font-variant:normal;font-weight:bold;font-stretch:normal;font-size:7.5px;line-height:125%;font-family:Arial;-inkscape-font-specification:'Arial Bold';text-align:start;letter-spacing:0.5px;word-spacing:0px;text-anchor:start;fill:#000000;fill-opacity:1;stroke:none;stroke-width:1px;stroke-linecap:butt;stroke-linejoin:miter;stroke-opacity:1"
     x="132.54959"
     y="197.00423"
     id="text19658"
     sodipodi:linespacing="125%"><tspan
       sodipodi:role="line"
       id="tspan19660"
       x="132.54959"
       y="197.00423">Figure 1</tspan></text>
</svg>
