<?xml version="1.0" encoding="UTF-8" standalone="no"?>
<!-- Created with Inkscape (http://www.inkscape.org/) -->

<svg
   xmlns:dc="http://purl.org/dc/elements/1.1/"
   xmlns:cc="http://creativecommons.org/ns#"
   xmlns:rdf="http://www.w3.org/1999/02/22-rdf-syntax-ns#"
   xmlns:svg="http://www.w3.org/2000/svg"
   xmlns="http://www.w3.org/2000/svg"
   xmlns:sodipodi="http://sodipodi.sourceforge.net/DTD/sodipodi-0.dtd"
   xmlns:inkscape="http://www.inkscape.org/namespaces/inkscape"
   id="svg43537"
   version="1.1"
   inkscape:version="0.48.2 r9819"
   width="176.25"
   height="237.5"
   viewBox="0 0 176.25 237.5"
   sodipodi:docname="ec01ap91.037.svg">
  <title id="title_ec01ap91.037">Full grasp</title>
  <desc id="desc_ec01ap91.037">A hand holding a pole</desc>
  <metadata
     id="metadata43543">
    <rdf:RDF>
      <cc:Work
         rdf:about="">
        <dc:format>image/svg+xml</dc:format>
        <dc:type
           rdf:resource="http://purl.org/dc/dcmitype/StillImage" />
        <dc:title />
      </cc:Work>
    </rdf:RDF>
  </metadata>
  <defs
     id="defs43541" />
  <sodipodi:namedview
     pagecolor="#ffffff"
     bordercolor="#666666"
     borderopacity="1"
     objecttolerance="10"
     gridtolerance="10"
     guidetolerance="10"
     inkscape:pageopacity="0"
     inkscape:pageshadow="2"
     inkscape:window-width="1895"
     inkscape:window-height="1148"
     id="namedview43539"
     showgrid="false"
     inkscape:zoom="3.9831579"
     inkscape:cx="43.687896"
     inkscape:cy="123.89604"
     inkscape:window-x="0"
     inkscape:window-y="0"
     inkscape:window-maximized="0"
     inkscape:current-layer="svg43537" />
  <path
     style="fill:none;stroke:#000000;stroke-width:1;stroke-linecap:butt;stroke-linejoin:round;stroke-miterlimit:4;stroke-dasharray:none;stroke-opacity:1"
     d="m 130.57096,96.702094 9.5e-4,-90.0441564 c 2e-5,-1.4290885 -1.59914,-1.5898677 -2.39696,-1.5983688 -1.494,-0.015919 -2.98399,1.3613356 -4.47032,1.6300241 -2.15097,0.3888378 -4.70768,-3.7375499 -6.87882,-3.7391143 -2.79985,-0.00202 -6.0548,-2.34043036 -8.70122,-2.34043036 -2.07285,0 -2.55219,2.29758976 -2.55223,6.04788936 l -0.001,118.1508724 m -2e-4,18.76718 -5e-5,4.66977 m -9e-5,8.9871 -4.1e-4,38.79401 c -10e-6,0.9048 1.57901,0.85557 3.28604,0.64195 1.6205,-0.20279 3.23541,1.62683 4.47732,1.63298 2.53539,0.0126 5.00332,-2.21321 7.51443,-2.2128 1.79149,2.9e-4 3.75965,1.92088 5.52694,1.90907 1.47142,-0.01 2.74644,-1.94984 4.19482,-1.9712 l 1.7e-4,-16.50248"
     id="path14359-1-7-5-3-0-73-1-9"
     inkscape:connector-curvature="0"
     sodipodi:nodetypes="cssssssccccssssscc" />
  <path
     style="fill:none;fill-rule:evenodd;stroke:#000000;stroke-width:1px;stroke-linecap:round;stroke-linejoin:round;stroke-opacity:1"
     d="m 137.7141,98.199943 c -2.197,-0.8524 -4.04992,-2.37188 -6.50541,-1.679638 -2.20652,0.622051 -4.93616,2.142225 -6.83373,3.139135 -3.8116,2.00247 -6.07804,4.04765 -8.50621,7.28002 -1.78271,2.37313 -3.88442,5.61729 -4.12873,8.69773 -0.16476,2.07741 -0.17447,4.08538 0.0856,6.14578 0.0698,0.55323 0.23022,1.09313 0.425,1.6161"
     id="path7858"
     inkscape:connector-curvature="0"
     sodipodi:nodetypes="csssssc" />
  <path
     style="fill:none;fill-rule:evenodd;stroke:#000000;stroke-width:1px;stroke-linecap:round;stroke-linejoin:round;stroke-opacity:1"
     d="m 138.50708,94.323154 c -2.91242,0.173119 -5.36405,0.518066 -7.04871,2.202721"
     id="path7865"
     inkscape:connector-curvature="0" />
  <path
     style="fill:none;fill-rule:evenodd;stroke:#000000;stroke-width:1px;stroke-linecap:round;stroke-linejoin:round;stroke-opacity:1"
     d="m 130.57728,82.516571 c 1.40107,-2.125232 5.80454,-3.711215 7.31304,-2.20272"
     id="path7867"
     inkscape:connector-curvature="0" />
  <path
     style="fill:none;fill-rule:evenodd;stroke:#000000;stroke-width:1px;stroke-linecap:round;stroke-linejoin:round;stroke-opacity:1"
     d="m 131.7227,81.371157 c 0.5951,-0.877313 4.1438,-4.698244 4.75787,-4.493551"
     id="path7869"
     inkscape:connector-curvature="0" />
  <path
     style="fill:none;fill-rule:evenodd;stroke:#000000;stroke-width:1px;stroke-linecap:round;stroke-linejoin:round;stroke-opacity:1"
     d="m 98.241343,130.35967 c 5.438327,-1.65086 11.613367,-1.84654 16.808817,0.39287 4.03226,1.73803 5.93612,8.40343 2.80467,11.66809 -3.691,3.848 -9.58854,1.18587 -14.33253,0.89796 -2.83118,-0.17182 -6.949633,-0.22703 -7.634084,-3.59421 -0.71111,-3.49834 0.573374,-7.62494 2.82578,-10.24481 3.145984,-3.65923 8.284104,-5.13579 12.941534,-6.13078 0.9425,-0.20135 1.80949,-0.0523 2.63669,0.27671 m 17.25805,-1.38688 c 1.23064,-0.33519 2.51987,-0.49085 3.89983,-0.35973 2.95134,0.28042 6.21009,-0.56476 8.87216,1.0796"
     id="path7871"
     inkscape:connector-curvature="0"
     sodipodi:nodetypes="cssssssccsc" />
  <path
     style="fill:none;fill-rule:evenodd;stroke:#000000;stroke-width:1px;stroke-linecap:butt;stroke-linejoin:miter;stroke-opacity:1"
     d="m 130.02167,110.61957 c -1.85964,-1.06509 -4.11393,-0.25587 -6.05443,0.25154 -3.18763,0.83351 -6.34706,2.40078 -8.46603,4.95593 -1.3364,1.61149 -1.28743,3.52831 -1.38178,5.68065 -0.0828,1.88994 0.70701,3.39822 2.40373,4.25638 3.00051,1.5176 5.17485,0.42174 8.19075,-0.72807 1.3062,-0.49799 2.83557,-1.15004 4.13132,-1.67518 2.06364,-0.83635 3.0678,-1.76382 2.91634,-3.94662 -0.073,-1.05153 0.14583,-2.53796 0.0913,-3.98095 -0.0545,-1.443 -0.0734,-3.80689 -1.83122,-4.81368 z"
     id="path7879"
     inkscape:connector-curvature="0"
     sodipodi:nodetypes="ssssssssss" />
  <path
     style="fill:none;fill-rule:evenodd;stroke:#000000;stroke-width:1px;stroke-linecap:round;stroke-linejoin:round;stroke-opacity:1"
     d="m 113.30795,144.45708 c 3.28877,1.48873 7.51874,0.88109 11.54226,0.88109 1.61197,0 3.77866,0.3264 5.28653,-0.17622 1.60535,-0.53512 3.67353,0.3219 5.19842,-0.44055 2.06447,-1.03223 7.10422,-3.7689 14.974,-10.92454 9.23323,-8.39538 10.05338,-10.04983 11.89919,-11.98375 2.08558,-2.18513 3.93645,-4.84736 5.9914,-7.9298 5.26787,-3.90991 -9.00153,-19.134045 -11.27793,-21.410441"
     id="path7885"
     inkscape:connector-curvature="0"
     sodipodi:nodetypes="cssssscc" />
  <path
     style="fill:none;fill-rule:evenodd;stroke:#000000;stroke-width:1px;stroke-linecap:round;stroke-linejoin:round;stroke-opacity:1"
     d="m 147.40607,68.154833 c 3.25291,5.015457 9.86597,7.13236 12.33524,12.070909 0.23667,0.47333 -0.66743,7.275584 -1.05731,7.665468 -0.82283,0.822829 -1.5475,2.302013 -2.56828,4.607896 -1.02077,2.305883 -1.68079,4.575261 -2.54203,6.141381 -0.64888,1.179951 -3.58428,6.463693 -4.31734,7.929803 -1.69191,3.38381 -4.48899,9.86362 -7.48285,12.63721 -2.99387,2.77359 -4.30953,2.69372 -4.94049,2.69372"
     id="path7887"
     inkscape:connector-curvature="0"
     sodipodi:nodetypes="cssssssc" />
  <path
     style="fill:none;fill-rule:evenodd;stroke:#000000;stroke-width:1px;stroke-linecap:butt;stroke-linejoin:miter;stroke-opacity:1"
     d="m 111.13469,146.38772 c -3.16777,-0.0431 -6.1197,1.57621 -7.65371,4.487 -0.67442,1.27971 -0.73142,2.84168 0.0517,4.07005 0.99175,1.55565 2.28587,2.46753 3.89364,3.26111 4.00791,1.97825 7.74715,2.58995 13.08397,2.20438 1.83757,-0.13276 4.07838,-0.85654 4.75428,-2.61069 0.91578,-2.37675 0.68961,-7.66205 -1.29617,-8.88504 -3.19479,-1.96757 -8.71194,-2.47074 -12.83371,-2.52681 z"
     id="path7889"
     inkscape:connector-curvature="0"
     sodipodi:nodetypes="ssssssss" />
  <path
     style="fill:none;fill-rule:evenodd;stroke:#000000;stroke-width:1px;stroke-linecap:round;stroke-linejoin:round;stroke-opacity:1"
     d="m 114.10094,164.28156 c 1.55621,-1.46712 8.37089,-1.64469 13.41058,0.01 5.64467,1.85317 6.36623,13.76678 -1.48797,13.69747 -4.984,-0.044 -8.91931,-0.14201 -11.94009,-4.01749 -0.91362,-1.17213 -1.94942,-7.83556 0.0175,-9.68986 z"
     id="path7897"
     inkscape:connector-curvature="0"
     sodipodi:nodetypes="sssss" />
  <path
     style="fill:none;fill-rule:evenodd;stroke:#000000;stroke-width:1px;stroke-linecap:round;stroke-linejoin:round;stroke-opacity:1"
     d="m 139.56438,121.98933 c 0.93297,0.35335 2.64327,2.23634 2.64327,2.9957"
     id="path7918"
     inkscape:connector-curvature="0" />
  <path
     style="fill:none;fill-rule:evenodd;stroke:#000000;stroke-width:1px;stroke-linecap:round;stroke-linejoin:round;stroke-opacity:1"
     d="m 152.34016,100.49077 c 2.66156,0.38284 3.59834,0.45467 5.11032,-1.057304"
     id="path7920"
     inkscape:connector-curvature="0" />
  <path
     style="fill:none;fill-rule:evenodd;stroke:#000000;stroke-width:1px;stroke-linecap:round;stroke-linejoin:round;stroke-opacity:1"
     d="m 107.66899,158.55449 c 0.52656,2.34332 4.95158,3.12114 7.48925,3.43624 5.38219,0.6683 21.53421,0.54056 24.14181,-0.96919 3.76642,-2.18069 6.63952,-5.95356 10.66117,-8.63466 2.07379,-1.38253 4.83896,-3.68228 9.5888,-6.9896 4.31558,-3.00494 5.63733,-5.62897 6.27079,-6.57917 2.66553,-3.99829 3.9649,-7.98909 3.9649,-13.0401 0,-2.4023 0.40767,-4.90648 -1.58596,-5.9033 -0.60281,-0.3014 -2.51004,-0.65975 -3.96489,-0.35243"
     id="path7922"
     inkscape:connector-curvature="0"
     sodipodi:nodetypes="csssssssc" />
  <path
     style="fill:none;fill-rule:evenodd;stroke:#000000;stroke-width:1px;stroke-linecap:round;stroke-linejoin:round;stroke-opacity:1"
     d="m 119.03503,177.32167 c 2.80619,1.66579 7.46539,2.20272 11.18982,2.20272 5.42939,0 10.02551,0.0944 15.9335,-2.06582 5.908,-2.16024 14.60938,-11.44118 15.52135,-13.26511 0.70513,-1.41027 0.70487,-3.25048 0.70487,-4.9341 0,-4.44637 -0.54154,-7.41402 -3.26003,-10.13251 -0.79893,-0.79893 -1.13005,-1.43399 -2.11461,-1.76218"
     id="path7924"
     inkscape:connector-curvature="0"
     sodipodi:nodetypes="csssssc" />
  <path
     style="fill:none;fill-rule:evenodd;stroke:#000000;stroke-width:1px;stroke-linecap:round;stroke-linejoin:round;stroke-opacity:1"
     d="m 130.48917,52.471461 c 3.9833,-1.000534 22.7258,-2.851008 21.32234,-1.321632 -3.31808,3.615768 -18.11546,6.376387 -21.05801,6.784379"
     id="path7926"
     inkscape:connector-curvature="0"
     sodipodi:nodetypes="csc" />
  <path
     style="fill:none;fill-rule:evenodd;stroke:#000000;stroke-width:1px;stroke-linecap:round;stroke-linejoin:round;stroke-opacity:1"
     d="m 151.63529,51.590373 c 1.64113,0.463425 2.35641,1.634816 2.46705,2.9957 1.04057,12.799448 -18.00259,19.943011 -23.52506,21.146119"
     id="path7928"
     inkscape:connector-curvature="0"
     sodipodi:nodetypes="csc" />
  <path
     style="fill:none;fill-rule:evenodd;stroke:#000000;stroke-width:1px;stroke-linecap:round;stroke-linejoin:round;stroke-opacity:1"
     d="m 105.64248,53.704985 c -2.08805,0.993651 -3.67186,2.453772 -5.0222,5.022203"
     id="path7930"
     inkscape:connector-curvature="0"
     sodipodi:nodetypes="cc" />
  <path
     style="fill:none;fill-rule:evenodd;stroke:#000000;stroke-width:1px;stroke-linecap:round;stroke-linejoin:round;stroke-opacity:1"
     d="m 103.08733,72.560274 c -0.45281,2.436064 1.32108,4.845431 2.37893,5.903291"
     id="path7932"
     inkscape:connector-curvature="0"
     sodipodi:nodetypes="cc" />
  <path
     style="fill:none;fill-rule:evenodd;stroke:#000000;stroke-width:1px;stroke-linecap:round;stroke-linejoin:round;stroke-opacity:1"
     d="m 82.822298,80.666286 c 3.02198,2.462566 17.164463,1.960709 22.820182,-1.585959"
     id="path7934"
     inkscape:connector-curvature="0"
     sodipodi:nodetypes="cc" />
  <path
     style="fill:none;fill-rule:evenodd;stroke:#000000;stroke-width:1px;stroke-linecap:round;stroke-linejoin:round;stroke-opacity:1"
     d="m 98.329452,81.635483 c 2.530658,1.503762 7.224928,7.037203 7.224928,9.427645"
     id="path7936"
     inkscape:connector-curvature="0"
     sodipodi:nodetypes="cc" />
  <path
     style="fill:none;fill-rule:evenodd;stroke:#000000;stroke-width:1px;stroke-linecap:round;stroke-linejoin:round;stroke-opacity:1"
     d="m 90.840202,112.56168 c 5.73943,-4.48432 7.366695,-16.966569 5.638965,-23.877491 -0.570973,-2.28389 -1.99586,-5.370817 -2.378939,-6.520053"
     id="path7938"
     inkscape:connector-curvature="0"
     sodipodi:nodetypes="csc" />
  <path
     style="fill:none;fill-rule:evenodd;stroke:#000000;stroke-width:1px;stroke-linecap:round;stroke-linejoin:round;stroke-opacity:1"
     d="m 89.959113,82.340353 c -5.977249,7.182859 -5.94174,10.642245 -0.528652,16.035807"
     id="path7940"
     inkscape:connector-curvature="0"
     sodipodi:nodetypes="cc" />
  <path
     style="fill:none;fill-rule:evenodd;stroke:#000000;stroke-width:1px;stroke-linecap:round;stroke-linejoin:round;stroke-opacity:1"
     d="m 85.641781,92.472869 c -0.755686,2.527203 -2.71625,7.219882 -5.110312,8.017901"
     id="path7942"
     inkscape:connector-curvature="0"
     sodipodi:nodetypes="cc" />
  <path
     style="fill:none;fill-rule:evenodd;stroke:#000000;stroke-width:1px;stroke-linecap:round;stroke-linejoin:round;stroke-opacity:1"
     d="m 87.22774,86.040924 c -1.725859,2.402965 -6.913822,3.467429 -8.370339,2.026504"
     id="path7944"
     inkscape:connector-curvature="0"
     sodipodi:nodetypes="cc" />
  <path
     style="fill:none;fill-rule:evenodd;stroke:#000000;stroke-width:1px;stroke-linecap:round;stroke-linejoin:round;stroke-opacity:1"
     d="m 105.46627,53.793093 c -4.83475,0.40398 -10.079998,1.265632 -15.162342,2.228807 -4.119374,0.780678 -8.417577,1.080694 -12.435554,2.187425 -6.177442,1.701544 -10.302298,5.775206 -15.342327,8.962192 -5.292806,3.346826 -11.205229,7.232773 -15.956764,10.086534 -5.230334,3.141326 -10.216688,6.98013 -14.326728,10.893412 -4.581994,4.362643 -8.299616,9.172862 -10.894428,14.911877 -1.25361,2.77265 -1.992826,6.03169 -3.285817,8.79347"
     id="path7946"
     inkscape:connector-curvature="0"
     sodipodi:nodetypes="cssssssc" />
  <path
     style="fill:none;fill-rule:evenodd;stroke:#000000;stroke-width:1px;stroke-linecap:round;stroke-linejoin:round;stroke-opacity:1"
     d="m 90.752093,120.13904 c 0.09547,11.28803 -1.977857,16.50327 -9.163318,24.31804"
     id="path7950"
     inkscape:connector-curvature="0"
     sodipodi:nodetypes="cc" />
  <path
     style="fill:none;fill-rule:evenodd;stroke:#000000;stroke-width:1px;stroke-linecap:round;stroke-linejoin:round;stroke-opacity:1"
     d="m 84.760693,112.7379 c -0.233077,1.02673 -1.196587,1.51208 -1.674068,2.46705 -9.133187,14.74699 -23.265157,26.98189 -33.217028,26.25643"
     id="path7952"
     inkscape:connector-curvature="0"
     sodipodi:nodetypes="ccc" />
  <path
     style="fill:none;fill-rule:evenodd;stroke:#000000;stroke-width:1px;stroke-linecap:round;stroke-linejoin:round;stroke-opacity:1"
     d="m 77.623877,123.22285 c -1.58324,5.51869 -8.665732,15.00911 -12.335235,19.03151"
     id="path7954"
     inkscape:connector-curvature="0"
     sodipodi:nodetypes="cc" />
  <path
     style="fill:none;fill-rule:evenodd;stroke:#000000;stroke-width:1px;stroke-linecap:round;stroke-linejoin:round;stroke-opacity:1"
     d="m 18.06231,127.98073 c 1.585676,-0.0117 3.252685,-0.0477 4.581659,0.61676 1.256904,0.62845 4.098978,3.68142 4.934094,4.93409 0.465147,0.69772 0.820675,1.52555 1.409741,2.11461 4.362735,4.36274 5.225835,7.17533 10.925495,9.07521"
     id="path7956"
     inkscape:connector-curvature="0" />
  <path
     style="fill:none;fill-rule:evenodd;stroke:#000000;stroke-width:1px;stroke-linecap:round;stroke-linejoin:round;stroke-opacity:1"
     d="m 26.785084,170.88973 c 2.211329,-3.66942 8.716007,-11.71848 13.040106,-11.71848"
     id="path7958"
     inkscape:connector-curvature="0" />
  <path
     style="fill:none;fill-rule:evenodd;stroke:#000000;stroke-width:1px;stroke-linecap:round;stroke-linejoin:round;stroke-opacity:1"
     d="m 67.403253,176.44058 c 0.683566,0.93627 2.362542,1.40154 3.700571,1.67407 1.078853,0.21975 9.031482,0.12721 10.132515,0.26433 4.079254,0.50803 5.707305,-1.723 8.017904,-4.14112 8.478102,-8.87262 8.528828,-23.84008 9.163319,-31.54296"
     id="path7960"
     inkscape:connector-curvature="0"
     sodipodi:nodetypes="csssc" />
  <path
     style="fill:none;fill-rule:evenodd;stroke:#000000;stroke-width:1px;stroke-linecap:round;stroke-linejoin:round;stroke-opacity:1"
     d="m 85.113128,178.20276 c 1.99815,0.26859 4.422838,0.13525 6.079509,-0.9692 1.182951,-0.78863 1.642491,-2.23098 2.819483,-2.81948 0.212446,-0.10622 1.003931,0.59007 1.233523,0.70487 1.564972,0.78249 4.338164,0.61675 6.079507,0.61675 0.78157,0 2.55515,-0.40393 4.31733,-0.88109"
     id="path7962"
     inkscape:connector-curvature="0"
     sodipodi:nodetypes="csccsc" />
  <path
     style="fill:none;fill-rule:evenodd;stroke:#000000;stroke-width:1px;stroke-linecap:round;stroke-linejoin:round;stroke-opacity:1"
     d="m 77.359551,168.95133 c -4.931377,6.23512 -12.580109,9.22211 -20.498355,9.36 -13.90827,0.24221 -19.159563,-2.32563 -28.615824,-4.036 -7.576428,-1.37036 -15.107284,1.36179 -21.9114815,4.50487 -0.7453296,0.44832 -1.4544576,0.95876 -2.1046668,1.53712 3.0534824,-5.11549 2.6099625,-10.92798 0.8569897,-15.46719 -1.3453199,-3.48362 0.6676564,-9.49703 0.1883171,-14.56982 -0.3543937,-3.7505 -2.8213657,-7.96561 -4.30533339,-10.93354 0.75383379,-4.55966 3.99021009,-8.22253 4.31733259,-12.86389 0.2595564,-3.6827 -2.3118229,-8.44478 -2.227996,-12.32292 0.062834,-2.90692 0.5477384,-6.00011 1.8755607,-7.32535 2.5502134,-2.54527 10.2784466,-7.209783 13.6568686,-8.898993 1.788832,-0.894417 5.011473,-3.028647 7.401141,-2.731374"
     id="path7964"
     inkscape:connector-curvature="0"
     sodipodi:nodetypes="cssccsscssssc" />
  <text
     xml:space="preserve"
     style="font-style:normal;font-variant:normal;font-weight:normal;font-stretch:normal;font-size:12.5px;line-height:125%;font-family:Arial;-inkscape-font-specification:Arial;text-align:center;letter-spacing:0.5px;word-spacing:0px;text-anchor:middle;fill:#000000;fill-opacity:1;stroke:none;stroke-width:1px;stroke-linecap:butt;stroke-linejoin:miter;stroke-opacity:1"
     x="116.72276"
     y="215.40695"
     id="text7970"
     sodipodi:linespacing="125%"><tspan
       sodipodi:role="line"
       id="tspan7972"
       x="116.97276"
       y="215.40695">Illustration II</tspan><tspan
       sodipodi:role="line"
       x="116.97276"
       y="231.03195"
       id="tspan7974">Full Grasp</tspan></text>
</svg>
