<?xml version="1.0" encoding="UTF-8" standalone="no"?>
<!-- Created with Inkscape (http://www.inkscape.org/) -->

<svg
   xmlns:dc="http://purl.org/dc/elements/1.1/"
   xmlns:cc="http://creativecommons.org/ns#"
   xmlns:rdf="http://www.w3.org/1999/02/22-rdf-syntax-ns#"
   xmlns:svg="http://www.w3.org/2000/svg"
   xmlns="http://www.w3.org/2000/svg"
   xmlns:sodipodi="http://sodipodi.sourceforge.net/DTD/sodipodi-0.dtd"
   xmlns:inkscape="http://www.inkscape.org/namespaces/inkscape"
   id="svg28386"
   version="1.1"
   inkscape:version="0.48.2 r9819"
   width="274"
   height="216"
   viewBox="0 0 274 216"
   sodipodi:docname="ec01au91.080.svg">
  <title id="title_ec01au91.080">Moment Computed about the seating reference point</title>
  <desc id="desc_ec01au91.080">Seaating systems</desc>
  <metadata
     id="metadata28392">
    <rdf:RDF>
      <cc:Work
         rdf:about="">
        <dc:format>image/svg+xml</dc:format>
        <dc:type
           rdf:resource="http://purl.org/dc/dcmitype/StillImage" />
        <dc:title></dc:title>
      </cc:Work>
    </rdf:RDF>
  </metadata>
  <defs
     id="defs28390" />
  <sodipodi:namedview
     pagecolor="#ffffff"
     bordercolor="#666666"
     borderopacity="1"
     objecttolerance="10"
     gridtolerance="10"
     guidetolerance="10"
     inkscape:pageopacity="0"
     inkscape:pageshadow="2"
     inkscape:window-width="1280"
     inkscape:window-height="756"
     id="namedview28388"
     showgrid="false"
     inkscape:zoom="2.2361111"
     inkscape:cx="130.28561"
     inkscape:cy="108"
     inkscape:window-x="0"
     inkscape:window-y="0"
     inkscape:window-maximized="0"
     inkscape:current-layer="svg28386" />
  <path
     style="fill:none;stroke:#000000;stroke-width:1;stroke-linecap:butt;stroke-linejoin:round;stroke-miterlimit:4;stroke-dasharray:none;stroke-opacity:1"
     d="M 150.58184,170.67121 186.00729,24.914383 c 0.69011,-2.839431 6.59803,-2.102242 5.42515,2.703669 L 155.2451,175.8966 c -0.28521,1.16865 -1.10026,1.50594 -1.98915,1.51502 l -118.966108,1.21517"
     id="path14359-1-7-5-3-0-73-1-9"
     inkscape:connector-curvature="0"
     sodipodi:nodetypes="cssssc" />
  <path
     style="fill:none;stroke:#000000;stroke-width:1;stroke-linecap:butt;stroke-linejoin:miter;stroke-miterlimit:4;stroke-dasharray:none;stroke-opacity:1"
     d="m 143.73483,158.5645 c -0.79223,-0.50502 -1.50557,-0.93451 -2.17472,-1.31765 m -5.18477,-2.68825 c -2.05136,-1.0381 -4.16326,-2.04793 -6.32622,-3.0288 m -4.813,-2.10076 c -2.56842,-1.07944 -5.19531,-2.1199 -7.86626,-3.12033 m -4.17527,-1.51918 c -2.64015,-0.93316 -5.31499,-1.82788 -8.01122,-2.68323 m -9.628968,-2.8665 c -2.677102,-0.74663 -5.359692,-1.45424 -8.035226,-2.12194 m -4.048419,-0.98139 c -3.55045,-0.83543 -7.077125,-1.59922 -10.550362,-2.28921 m -4.332529,-0.82775 c -3.700781,-0.67872 -7.324594,-1.27015 -10.833962,-1.77159 m -4.444324,-0.59469 c -3.632021,-0.45216 -7.11551,-0.80058 -10.40496,-1.04196 m -3.614623,-0.17012 c -1.734803,-0.0291 -3.310791,0.0316 -4.731221,0.19157 m -3.922692,0.82922 c -2.468406,0.84336 -4.17205,2.23508 -5.147601,4.28202 m -0.923205,3.58976 c -0.149665,1.60882 -0.05311,3.46356 0.282168,5.58605 m 0.926451,4.37626 c 0.435742,1.81933 0.88723,3.61074 1.351673,5.38126 m 1.505117,5.5251 c 0.76313,2.70882 1.550698,5.38472 2.352063,8.05447 m 1.251485,4.13618 c 0.690132,2.26755 1.386249,4.54065 2.081839,6.83567"
     id="path14359-1-7-5-3-0-73-1-9-7"
     inkscape:connector-curvature="0"
     sodipodi:nodetypes="cccccccccccccccccccccccccccc" />
  <path
     style="fill:none;stroke:#000000;stroke-width:1;stroke-linecap:butt;stroke-linejoin:miter;stroke-miterlimit:4;stroke-dasharray:none;stroke-opacity:1"
     d="m 161.57227,25.366701 c -0.89104,0.939431 -1.75683,1.912525 -2.59808,2.91746 m -3.56987,4.656284 c -1.21875,1.732572 -2.3787,3.538121 -3.48266,5.409433 m -2.51922,4.566745 c -1.37781,2.670099 -2.65696,5.450405 -3.84447,8.32298 m -1.56249,3.970783 c -1.30219,3.477492 -2.4817,7.071664 -3.54998,10.753219 m -1.03689,3.729353 c -0.74617,2.802302 -1.43195,5.648225 -2.06217,8.525412 m -1.05731,5.116914 c -0.49109,2.522839 -0.94254,5.063707 -1.35751,7.61455 m -0.77544,5.065297 c -0.4097,2.849509 -0.7768,5.704789 -1.10563,8.554729 m -0.59092,5.51736 c -0.34175,3.45002 -0.63111,6.88156 -0.87588,10.27468 m -0.31942,4.80681 c -0.19484,3.19918 -0.35243,6.35476 -0.47954,9.4494 m -0.10099,2.6189 c -0.11663,3.23216 -0.20137,6.39079 -0.26222,9.45544"
     id="path14359-1-7-5-3-0-73-1-9-0"
     inkscape:connector-curvature="0"
     sodipodi:nodetypes="cccccccccccccccccccc" />
  <path
     style="fill:none;stroke:#000000;stroke-width:1;stroke-linecap:butt;stroke-linejoin:miter;stroke-miterlimit:4;stroke-dasharray:none;stroke-opacity:1"
     d="m 78.350723,23.178555 12.28192,1.85e-4 m 4.823023,7.3e-5 2.91391,4.4e-5 m 2.813434,4.2e-5 10.85179,1.64e-4 m 3.21536,4.8e-5 3.31583,5e-5 m 3.31583,5e-5 11.55515,1.74e-4 m 3.41632,5.2e-5 2.41151,3.6e-5 m 4.01918,6.1e-5 11.55516,1.74e-4 m 3.81823,5.8e-5 2.41151,3.6e-5 m 3.31583,5e-5 10.55036,1.59e-4 m 8.64125,1.3e-4 6.73214,1.02e-4 m 2.81342,4.2e-5 2.71295,4.1e-5 m 2.41152,3.6e-5 12.78432,1.93e-4"
     id="path14359-1-7-5-3-0-73-1-9-5"
     inkscape:connector-curvature="0"
     sodipodi:nodetypes="cccccccccccccccccccccccc" />
  <path
     style="fill:none;stroke:#000000;stroke-width:1;stroke-linecap:butt;stroke-linejoin:round;stroke-miterlimit:4;stroke-dasharray:none;stroke-opacity:1"
     d="m 185.58691,19.538881 -2.01159,9.391419 -4.92351,-1.105276 2.0116,-9.391419 z"
     id="path14359-1-7-5-3-0-73-1-9-74"
     inkscape:connector-curvature="0"
     sodipodi:nodetypes="ccccc" />
  <path
     style="fill:none;stroke:#000000;stroke-width:1;stroke-linecap:butt;stroke-linejoin:round;stroke-miterlimit:4;stroke-dasharray:none;stroke-opacity:1"
     d="m 99.777293,20.644157 67.723277,0 -6.4e-4,-7.110728 8.54044,9.545642 -8.54107,8.741693 -7.3e-4,-6.105812 -65.21129,0"
     id="path14359-1-7-5-3-0-73-1-9-2"
     inkscape:connector-curvature="0"
     sodipodi:nodetypes="ccccccc" />
  <path
     style="fill:#000000;fill-opacity:1;stroke:#000000;stroke-width:1;stroke-linecap:butt;stroke-linejoin:miter;stroke-miterlimit:4;stroke-dasharray:none;stroke-opacity:1"
     d="m 93.589805,30.380037 1.52014,-5.43702 1.50308,5.43876 -1.51161,-8.7e-4 z"
     id="path14359-1-7-5-3-0-73-1"
     inkscape:connector-curvature="0"
     sodipodi:nodetypes="ccccc" />
  <path
     style="fill:#000000;fill-opacity:1;stroke:#000000;stroke-width:1;stroke-linecap:butt;stroke-linejoin:miter;stroke-miterlimit:4;stroke-dasharray:none;stroke-opacity:1"
     d="m 93.589805,135.38024 1.52014,5.43702 1.50308,-5.43876 -1.51161,8.7e-4 z"
     id="path14359-1-7-5-3-0-73-1-0"
     inkscape:connector-curvature="0"
     sodipodi:nodetypes="ccccc" />
  <path
     style="fill:none;stroke:#000000;stroke-width:1;stroke-linecap:butt;stroke-linejoin:miter;stroke-miterlimit:4;stroke-dasharray:none;stroke-opacity:1"
     d="m 95.102415,30.395917 -8.98e-4,47.137203 m -2.33e-4,12.221751 -8.69e-4,45.622739"
     id="path14359-1-7-5-3-0-73-1-9-8"
     inkscape:connector-curvature="0"
     sodipodi:nodetypes="cccc" />
  <path
     style="fill:#000000;fill-opacity:1;stroke:#000000;stroke-width:1;stroke-linecap:butt;stroke-linejoin:miter;stroke-miterlimit:4;stroke-dasharray:none;stroke-opacity:1"
     d="m 79.954638,146.35611 5.642794,0.17572 -4.740183,-3.06105 -0.451306,1.44267 z"
     id="path14359-1-7-5-3-0-73-1-0-4"
     inkscape:connector-curvature="0"
     sodipodi:nodetypes="ccccc" />
  <path
     style="fill:none;stroke:#000000;stroke-width:1;stroke-linecap:butt;stroke-linejoin:miter;stroke-miterlimit:4;stroke-dasharray:none;stroke-opacity:1"
     d="m 50.057161,114.05095 c 17.453243,3.47122 16.643453,25.43641 30.346804,30.86292"
     id="path14359-1-7-5-3-0-73-1-9-50"
     inkscape:connector-curvature="0"
     sodipodi:nodetypes="cc" />
  <path
     style="fill:#000000;fill-opacity:1;stroke:#000000;stroke-width:1;stroke-linecap:butt;stroke-linejoin:miter;stroke-miterlimit:4;stroke-dasharray:none;stroke-opacity:1"
     d="m 191.21088,13.517527 -3.57605,4.368506 5.31479,-1.895324 -0.86937,-1.236591 z"
     id="path14359-1-7-5-3-0-73-1-0-3"
     inkscape:connector-curvature="0"
     sodipodi:nodetypes="ccccc" />
  <path
     style="fill:none;stroke:#000000;stroke-width:1;stroke-linecap:butt;stroke-linejoin:miter;stroke-miterlimit:4;stroke-dasharray:none;stroke-opacity:1"
     d="m 222.78663,9.4147975 c -3.29718,-0.4043321 -3.97016,1.6842705 -6.15114,0.7959785 -1.34585,-0.5481557 -1.0932,-2.4221492 0.67994,-4.052618 2.15308,-1.979838 0.73124,-2.929659 -1.28364,-2.9162116 -4.23589,0.028271 -12.81008,4.4877104 -23.95068,11.5103426"
     id="path14359-1-7-5-3-0-73-1-9-9"
     inkscape:connector-curvature="0"
     sodipodi:nodetypes="csssc" />
  <path
     style="color:#000000;display:inline;overflow:visible;visibility:visible;fill:none;fill-rule:evenodd;stroke:#000000;stroke-width:1;stroke-linecap:butt;stroke-linejoin:miter;stroke-miterlimit:4;stroke-dasharray:none;stroke-dashoffset:0;stroke-opacity:1;marker:none;enable-background:accumulate"
     d="m 101.44023,148.27728 c 0,3.30487 -2.679122,5.984 -5.983992,5.984 -3.304871,0 -5.983998,-2.67913 -5.983996,-5.984 3e-6,-3.30487 2.679129,-5.98399 5.983996,-5.98399 3.304866,0 5.983992,2.67913 5.983992,5.98399 z"
     id="path29034"
     inkscape:connector-curvature="0"
     sodipodi:nodetypes="sssss" />
  <path
     style="color:#000000;display:inline;overflow:visible;visibility:visible;fill:#000000;fill-opacity:1;fill-rule:evenodd;stroke:#000000;stroke-width:1;stroke-linecap:butt;stroke-linejoin:round;stroke-miterlimit:4;stroke-dasharray:none;stroke-dashoffset:0;stroke-opacity:1;marker:none;enable-background:accumulate"
     d="m 95.461327,154.26973 c -3.30487,0 -5.98399,-2.67913 -5.98399,-5.984 l 11.967993,0 c 0,-3.30486 -2.679133,-5.98399 -5.984003,-5.98399 z"
     id="path29034-5"
     inkscape:connector-curvature="0"
     sodipodi:nodetypes="ccccc" />
  <text
     xml:space="preserve"
     style="font-style:normal;font-variant:normal;font-weight:bold;font-stretch:normal;font-size:5px;line-height:125%;font-family:Arial;-inkscape-font-specification:'Arial Bold';text-align:start;letter-spacing:0.40000001px;word-spacing:0px;text-anchor:start;fill:#000000;fill-opacity:1;stroke:none;stroke-width:1px;stroke-linecap:butt;stroke-linejoin:miter;stroke-opacity:1"
     x="225.61491"
     y="10.509316"
     id="text29052"
     sodipodi:linespacing="125%"><tspan
       sodipodi:role="line"
       id="tspan29054"
       x="225.61491"
       y="10.509316">RIGID MEMBER</tspan></text>
  <text
     xml:space="preserve"
     style="font-style:normal;font-variant:normal;font-weight:bold;font-stretch:normal;font-size:7.5px;line-height:125%;font-family:Arial;-inkscape-font-specification:'Arial Bold';text-align:start;letter-spacing:-0.30000001px;word-spacing:0px;text-anchor:start;fill:#000000;fill-opacity:1;stroke:none;stroke-width:1px;stroke-linecap:butt;stroke-linejoin:miter;stroke-opacity:1"
     x="129.5945"
     y="213.76471"
     id="text29052-5"
     sodipodi:linespacing="125%"><tspan
       sodipodi:role="line"
       id="tspan29054-1"
       x="129.5945"
       y="213.76471">FIGURE 4</tspan></text>
  <text
     xml:space="preserve"
     style="font-style:normal;font-variant:normal;font-weight:normal;font-stretch:normal;font-size:5px;line-height:125%;font-family:Arial;-inkscape-font-specification:Arial;text-align:start;letter-spacing:0px;word-spacing:0px;text-anchor:start;fill:#000000;fill-opacity:1;stroke:none;stroke-width:1px;stroke-linecap:butt;stroke-linejoin:miter;stroke-opacity:1"
     x="91.229813"
     y="237.24223"
     id="text29074"
     sodipodi:linespacing="125%"><tspan
       sodipodi:role="line"
       id="tspan29076"
       x="91.229813"
       y="237.24223" /></text>
  <text
     xml:space="preserve"
     style="font-style:normal;font-variant:normal;font-weight:normal;font-stretch:normal;font-size:5px;line-height:125%;font-family:Arial;-inkscape-font-specification:Arial;text-align:start;letter-spacing:0.40000001px;word-spacing:0px;text-anchor:start;fill:#000000;fill-opacity:1;stroke:none;stroke-width:1px;stroke-linecap:butt;stroke-linejoin:miter;stroke-opacity:1"
     x="89.888199"
     y="191.72368"
     id="text29078"
     sodipodi:linespacing="125%"><tspan
       sodipodi:role="line"
       id="tspan29080"
       x="89.888199"
       y="191.72368">MOMENT (P x D) COMPUTED ABOUT THE</tspan><tspan
       sodipodi:role="line"
       x="89.888199"
       y="197.97368"
       id="tspan29082">SEATING REFERENCE POINT</tspan></text>
  <text
     xml:space="preserve"
     style="font-style:normal;font-variant:normal;font-weight:normal;font-stretch:normal;font-size:5px;line-height:125%;font-family:Arial;-inkscape-font-specification:Arial;text-align:start;letter-spacing:0.40000001px;word-spacing:0px;text-anchor:start;fill:#000000;fill-opacity:1;stroke:none;stroke-width:1px;stroke-linecap:butt;stroke-linejoin:miter;stroke-opacity:1"
     x="2.7826326"
     y="109.80165"
     id="text29078-3"
     sodipodi:linespacing="125%"><tspan
       sodipodi:role="line"
       x="2.7826326"
       y="109.80165"
       id="tspan29082-7">SEATING REFERENCE POINT</tspan></text>
  <text
     xml:space="preserve"
     style="font-style:normal;font-variant:normal;font-weight:normal;font-stretch:normal;font-size:5px;line-height:125%;font-family:Arial;-inkscape-font-specification:Arial;text-align:start;letter-spacing:0.40000001px;word-spacing:0px;text-anchor:start;fill:#000000;fill-opacity:1;stroke:none;stroke-width:1px;stroke-linecap:butt;stroke-linejoin:miter;stroke-opacity:1"
     x="13.786485"
     y="17.611103"
     id="text29078-3-0"
     sodipodi:linespacing="125%"><tspan
       sodipodi:role="line"
       x="13.786485"
       y="17.611103"
       id="tspan29082-7-3">HORIZONTAL FORCE (P) TO</tspan><tspan
       sodipodi:role="line"
       x="13.786485"
       y="23.861103"
       id="tspan29125">SEAT BACK AT UPPER</tspan><tspan
       sodipodi:role="line"
       x="13.786485"
       y="30.111103"
       id="tspan29127">CROSSMEMBER</tspan></text>
  <text
     xml:space="preserve"
     style="font-style:normal;font-variant:normal;font-weight:normal;font-stretch:normal;font-size:7.5px;line-height:125%;font-family:Arial;-inkscape-font-specification:Arial;text-align:start;letter-spacing:0px;word-spacing:0px;text-anchor:start;fill:#000000;fill-opacity:1;stroke:none;stroke-width:1px;stroke-linecap:butt;stroke-linejoin:miter;stroke-opacity:1"
     x="91.677017"
     y="86.310555"
     id="text29129"
     sodipodi:linespacing="125%"><tspan
       sodipodi:role="line"
       id="tspan29131"
       x="91.677017"
       y="86.310555">D</tspan></text>
</svg>
