<?xml version="1.0" encoding="UTF-8" standalone="no"?>
<!-- Created with Inkscape (http://www.inkscape.org/) -->

<svg
   xmlns:dc="http://purl.org/dc/elements/1.1/"
   xmlns:cc="http://creativecommons.org/ns#"
   xmlns:rdf="http://www.w3.org/1999/02/22-rdf-syntax-ns#"
   xmlns:svg="http://www.w3.org/2000/svg"
   xmlns="http://www.w3.org/2000/svg"
   xmlns:sodipodi="http://sodipodi.sourceforge.net/DTD/sodipodi-0.dtd"
   xmlns:inkscape="http://www.inkscape.org/namespaces/inkscape"
   id="svg8578"
   version="1.1"
   inkscape:version="0.91 r13725"
   width="1460"
   height="1484"
   viewBox="0 0 1460 1484"
   sodipodi:docname="ec02fe91.084.svg">
  <title id="title_ec02fe91.084"></title>
  <desc id="desc_ec02fe91.084"></desc>
  <metadata
     id="metadata8584">
    <rdf:RDF>
      <cc:Work
         rdf:about="">
        <dc:format>image/svg+xml</dc:format>
        <dc:type
           rdf:resource="http://purl.org/dc/dcmitype/StillImage" />
        <dc:title />
      </cc:Work>
    </rdf:RDF>
  </metadata>
  <defs
     id="defs8582" />
  <sodipodi:namedview
     pagecolor="#ffffff"
     bordercolor="#666666"
     borderopacity="1"
     objecttolerance="10"
     gridtolerance="10"
     guidetolerance="10"
     inkscape:pageopacity="0"
     inkscape:pageshadow="2"
     inkscape:window-width="1280"
     inkscape:window-height="756"
     id="namedview8580"
     showgrid="false"
     inkscape:zoom="0.4733626"
     inkscape:cx="735.42379"
     inkscape:cy="958.35568"
     inkscape:window-x="371"
     inkscape:window-y="0"
     inkscape:window-maximized="0"
     inkscape:current-layer="svg8578" />
  <path
     style="fill:#000000;fill-opacity:1;stroke:#000000;stroke-width:4;stroke-linecap:butt;stroke-linejoin:miter;stroke-miterlimit:4;stroke-dasharray:none;stroke-opacity:1"
     d="m 601.11076,45.375855 -4.89424,-18.405638 -4.79335,18.406158 4.78873,0.01 z"
     id="path14359-1-7-5-3-0-73-2-0"
     inkscape:connector-curvature="0"
     sodipodi:nodetypes="ccccc" />
  <path
     style="fill:none;fill-rule:evenodd;stroke:#000000;stroke-width:4;stroke-linecap:butt;stroke-linejoin:miter;stroke-miterlimit:4;stroke-dasharray:none;stroke-opacity:1"
     d="m 596.21205,45.393825 0,205.643135 m 0,15.38761 0,893.45853"
     id="path8331-0-6"
     inkscape:connector-curvature="0"
     sodipodi:nodetypes="cccc" />
  <path
     style="fill:#000000;fill-opacity:1;stroke:#000000;stroke-width:4;stroke-linecap:butt;stroke-linejoin:miter;stroke-miterlimit:4;stroke-dasharray:none;stroke-opacity:1"
     d="m 1402.2671,1163.021 18.4479,4.7324 -18.3634,4.9548 -0.052,-4.7885 z"
     id="path14359-1-7-5-3-0-73-4-0"
     inkscape:connector-curvature="0"
     sodipodi:nodetypes="ccccc" />
  <path
     style="fill:none;fill-rule:evenodd;stroke:#000000;stroke-width:4;stroke-linecap:butt;stroke-linejoin:miter;stroke-miterlimit:4;stroke-dasharray:none;stroke-opacity:1"
     d="m 165.49545,1168.0681 422.40911,-0.051 m 15.63181,-0 798.75583,-0.096"
     id="path8331-0-6-5"
     inkscape:connector-curvature="0"
     sodipodi:nodetypes="cccc" />
  <path
     style="fill:#000000;fill-opacity:1;stroke:#000000;stroke-width:4;stroke-linecap:butt;stroke-linejoin:miter;stroke-miterlimit:4;stroke-dasharray:none;stroke-opacity:1"
     d="m 468.15445,485.57237 0.2058,-19.04412 -9.54074,16.45409 4.61167,1.29018 z"
     id="path14359-1-7-5-3-0-73-2-0-0"
     inkscape:connector-curvature="0"
     sodipodi:nodetypes="ccccc" />
  <path
     style="fill:none;fill-rule:evenodd;stroke:#000000;stroke-width:4;stroke-linecap:butt;stroke-linejoin:miter;stroke-miterlimit:4;stroke-dasharray:none;stroke-opacity:1"
     d="m 463.42933,484.27974 -61.9671,218.18507"
     id="path8331-0-6-6"
     inkscape:connector-curvature="0"
     sodipodi:nodetypes="cc" />
  <path
     style="fill:#000000;fill-opacity:1;stroke:#000000;stroke-width:4;stroke-linecap:butt;stroke-linejoin:miter;stroke-miterlimit:4;stroke-dasharray:none;stroke-opacity:1"
     d="m 411.07999,572.18406 16.71164,9.13467 -19.0181,0.27436 1.13016,-4.65347 z"
     id="path14359-1-7-5-3-0-73-4-0-3"
     inkscape:connector-curvature="0"
     sodipodi:nodetypes="ccccc" />
  <path
     style="fill:none;fill-rule:evenodd;stroke:#000000;stroke-width:4;stroke-linecap:butt;stroke-linejoin:miter;stroke-miterlimit:4;stroke-dasharray:none;stroke-opacity:1"
     d="m 403.04716,575.41032 6.84932,1.52737"
     id="path8331-0-6-2"
     inkscape:connector-curvature="0"
     sodipodi:nodetypes="cc" />
  <path
     style="fill:#000000;fill-opacity:1;stroke:#000000;stroke-width:4;stroke-linecap:butt;stroke-linejoin:miter;stroke-miterlimit:4;stroke-dasharray:none;stroke-opacity:1"
     d="m 381.01536,742.30572 6.75542,-17.80689 -14.62618,12.15884 3.88465,2.80025 z"
     id="path14359-1-7-5-3-0-73-2-0-7"
     inkscape:connector-curvature="0"
     sodipodi:nodetypes="ccccc" />
  <path
     style="fill:none;fill-rule:evenodd;stroke:#000000;stroke-width:4;stroke-linecap:butt;stroke-linejoin:miter;stroke-miterlimit:4;stroke-dasharray:none;stroke-opacity:1"
     d="m 377.02504,739.46406 -88.8733,118.63842 20.81353,0"
     id="path8331-0-6-69"
     inkscape:connector-curvature="0"
     sodipodi:nodetypes="ccc" />
  <path
     style="fill:#000000;fill-opacity:1;stroke:#000000;stroke-width:4;stroke-linecap:butt;stroke-linejoin:miter;stroke-miterlimit:4;stroke-dasharray:none;stroke-opacity:1"
     d="m 448.3321,694.65955 -2.6078,18.86586 -7.00722,-17.68225 4.7516,-0.59526 z"
     id="path14359-1-7-5-3-0-73-4-0-8"
     inkscape:connector-curvature="0"
     sodipodi:nodetypes="ccccc" />
  <path
     style="fill:none;fill-rule:evenodd;stroke:#000000;stroke-width:4;stroke-linecap:butt;stroke-linejoin:miter;stroke-miterlimit:4;stroke-dasharray:none;stroke-opacity:1"
     d="m 413.5109,661.80689 c 15.70777,6.1692 27.37739,19.89326 29.95702,33.43359"
     id="path8331-0-6-9"
     inkscape:connector-curvature="0"
     sodipodi:nodetypes="cc" />
  <path
     style="fill:#000000;fill-opacity:1;stroke:#000000;stroke-width:4;stroke-linecap:butt;stroke-linejoin:miter;stroke-miterlimit:4;stroke-dasharray:none;stroke-opacity:1"
     d="m 916.20518,822.66794 -9.68987,16.39597 0.36349,-19.01659 4.61296,1.28554 z"
     id="path14359-1-7-5-3-0-73-4-0-2"
     inkscape:connector-curvature="0"
     sodipodi:nodetypes="ccccc" />
  <path
     style="fill:#000000;fill-opacity:1;stroke:#000000;stroke-width:4;stroke-linecap:butt;stroke-linejoin:miter;stroke-miterlimit:4;stroke-dasharray:none;stroke-opacity:1"
     d="m 1054.1701,333.87905 0.2662,-19.04338 -9.5928,16.42376 4.6075,1.3048 z"
     id="path14359-1-7-5-3-0-73-2-0-74"
     inkscape:connector-curvature="0"
     sodipodi:nodetypes="ccccc" />
  <path
     style="fill:none;fill-rule:evenodd;stroke:#000000;stroke-width:4;stroke-linecap:butt;stroke-linejoin:miter;stroke-miterlimit:4;stroke-dasharray:none;stroke-opacity:1"
     d="M 1049.4491,332.57143 911.4939,821.32572"
     id="path8331-0-6-65"
     inkscape:connector-curvature="0"
     sodipodi:nodetypes="cc" />
  <path
     style="fill:#000000;fill-opacity:1;stroke:#000000;stroke-width:4;stroke-linecap:butt;stroke-linejoin:miter;stroke-miterlimit:4;stroke-dasharray:none;stroke-opacity:1"
     d="m 949.90801,833.1336 -3.69595,18.68316 -5.97144,-18.05837 4.7781,-0.31908 z"
     id="path14359-1-7-5-3-0-73-4-0-7"
     inkscape:connector-curvature="0"
     sodipodi:nodetypes="ccccc" />
  <path
     style="fill:none;fill-rule:evenodd;stroke:#000000;stroke-width:4;stroke-linecap:butt;stroke-linejoin:miter;stroke-miterlimit:4;stroke-dasharray:none;stroke-opacity:1"
     d="m 917.89536,799.02051 c 12.97172,9.63578 26.08311,23.8452 27.12303,34.41134"
     id="path8331-0-6-0"
     inkscape:connector-curvature="0"
     sodipodi:nodetypes="cc" />
  <path
     style="fill:none;stroke:#000000;stroke-width:4;stroke-linecap:butt;stroke-linejoin:miter;stroke-miterlimit:4;stroke-dasharray:none;stroke-opacity:1"
     d="M 41.045962,610.05602 390.49724,705.9793 m 14.60307,4.0085 881.86919,242.07034"
     id="path14359-1-7-5-3-0-73-1-9-9"
     inkscape:connector-curvature="0"
     sodipodi:nodetypes="cccc" />
  <path
     style="fill:none;stroke:#000000;stroke-width:4;stroke-linecap:butt;stroke-linejoin:miter;stroke-miterlimit:4;stroke-dasharray:none;stroke-opacity:1"
     d="m 402.01147,387.56931 -6.7e-4,104.44684 m -6e-5,9.97354 -5e-5,6.52117 m -6e-5,9.58994 -0.001,181.9336"
     id="path14359-1-7-5-3-0-73-1-9-9-1"
     inkscape:connector-curvature="0"
     sodipodi:nodetypes="cccccc" />
  <path
     style="fill:none;stroke:#000000;stroke-width:4;stroke-linecap:butt;stroke-linejoin:miter;stroke-miterlimit:4;stroke-dasharray:none;stroke-opacity:1"
     d="m 601.89883,1167.7908 216.58378,-19.5415 m 15.14812,-1.4252 303.57797,-30.0212 m 9.3234,-10.2177 27.437,-111.78562 m 3.4588,-14.0923 32.3372,-131.75025 m 3.4257,-14.46518 21.3681,-93.38733 m 1.202,-15.71974 -4.5026,-150.96385 m -0.5273,-14.90718 -4.4644,-114.30534 m -5.9039,-13.30231 -154.84,-131.42073 m -13.2521,-5.59216 -115.82614,-16.73287 m -14.42709,-2.08421 -101.12521,-14.6091 m -14.63193,-1.45238 -202.96932,-0.87793 m -14.89989,-0.0645 -229.34759,-0.99204 m -10.74515,6.53804 -49.37375,81.94868 m -7.56573,12.55731 -56.65851,94.03963 m -7.86885,13.06041 -64.00831,106.23854 m -4.62283,14.65913 -2.7e-4,113.08674 m -3e-5,15.63187 -3.4e-4,140.68675 m -3e-5,15.8761 -3.1e-4,128.47432 m -5e-5,14.8991 -2.4e-4,69.1221 m -5e-5,14.8992 -2.1e-4,61.5075"
     id="path14359-1-7-5-3-0-73-1-9-9-19"
     inkscape:connector-curvature="0"
     sodipodi:nodetypes="cccccccccccccccccccccccccccccccccccccccc" />
  <path
     style="color:#000000;display:inline;overflow:visible;visibility:visible;fill:none;fill-rule:evenodd;stroke:#000000;stroke-width:4;stroke-linecap:butt;stroke-linejoin:miter;stroke-miterlimit:4;stroke-dasharray:none;stroke-dashoffset:0;stroke-opacity:1;marker:none;enable-background:accumulate"
     d="m 603.78064,1167.4548 c 1e-5,4.1817 -3.38995,7.5717 -7.57168,7.5717 -4.18173,0 -7.57169,-3.39 -7.57168,-7.5717 -1e-5,-4.1817 3.38995,-7.5717 7.57168,-7.5717 4.18173,0 7.57169,3.39 7.57168,7.5717 z"
     id="path9261"
     inkscape:connector-curvature="0"
     sodipodi:nodetypes="sssss" />
  <path
     style="color:#000000;display:inline;overflow:visible;visibility:visible;fill:none;fill-rule:evenodd;stroke:#000000;stroke-width:4;stroke-linecap:butt;stroke-linejoin:miter;stroke-miterlimit:4;stroke-dasharray:none;stroke-dashoffset:0;stroke-opacity:1;marker:none;enable-background:accumulate"
     d="m 166.57702,1167.6991 c 1e-5,4.1817 -3.38995,7.5717 -7.57168,7.5717 -4.18173,0 -7.57169,-3.39 -7.57168,-7.5717 -1e-5,-4.1817 3.38995,-7.5717 7.57168,-7.5717 4.18173,0 7.57169,3.39 7.57168,7.5717 z"
     id="path9261-2"
     inkscape:connector-curvature="0"
     sodipodi:nodetypes="sssss" />
  <path
     style="color:#000000;display:inline;overflow:visible;visibility:visible;fill:none;fill-rule:evenodd;stroke:#000000;stroke-width:4;stroke-linecap:butt;stroke-linejoin:miter;stroke-miterlimit:4;stroke-dasharray:none;stroke-dashoffset:0;stroke-opacity:1;marker:none;enable-background:accumulate"
     d="m 165.11153,1007.961 c 1e-5,4.1817 -3.38995,7.5717 -7.57168,7.5717 -4.18173,0 -7.57169,-3.39 -7.57168,-7.5717 -10e-6,-4.1817 3.38995,-7.5717 7.57168,-7.5717 4.18173,0 7.57169,3.39 7.57168,7.5717 z"
     id="path9261-1"
     inkscape:connector-curvature="0"
     sodipodi:nodetypes="sssss" />
  <path
     style="color:#000000;display:inline;overflow:visible;visibility:visible;fill:none;fill-rule:evenodd;stroke:#000000;stroke-width:4;stroke-linecap:butt;stroke-linejoin:miter;stroke-miterlimit:4;stroke-dasharray:none;stroke-dashoffset:0;stroke-opacity:1;marker:none;enable-background:accumulate"
     d="m 165.35578,1092.2265 c 1e-5,4.1817 -3.38995,7.5717 -7.57168,7.5717 -4.18173,0 -7.57169,-3.39 -7.57168,-7.5717 -1e-5,-4.1817 3.38995,-7.5717 7.57168,-7.5717 4.18173,0 7.57169,3.39 7.57168,7.5717 z"
     id="path9261-0"
     inkscape:connector-curvature="0"
     sodipodi:nodetypes="sssss" />
  <path
     style="color:#000000;display:inline;overflow:visible;visibility:visible;fill:none;fill-rule:evenodd;stroke:#000000;stroke-width:4;stroke-linecap:butt;stroke-linejoin:miter;stroke-miterlimit:4;stroke-dasharray:none;stroke-dashoffset:0;stroke-opacity:1;marker:none;enable-background:accumulate"
     d="m 165.84427,864.34325 c 1e-5,4.1817 -3.38995,7.5717 -7.57168,7.5717 -4.18173,0 -7.57169,-3.39 -7.57168,-7.5717 -1e-5,-4.1817 3.38995,-7.5717 7.57168,-7.5717 4.18173,0 7.57169,3.39 7.57168,7.5717 z"
     id="path9261-9"
     inkscape:connector-curvature="0"
     sodipodi:nodetypes="sssss" />
  <path
     style="color:#000000;display:inline;overflow:visible;visibility:visible;fill:none;fill-rule:evenodd;stroke:#000000;stroke-width:4;stroke-linecap:butt;stroke-linejoin:miter;stroke-miterlimit:4;stroke-dasharray:none;stroke-dashoffset:0;stroke-opacity:1;marker:none;enable-background:accumulate"
     d="m 165.60002,708.26889 c 1e-5,4.1817 -3.38995,7.5717 -7.57168,7.5717 -4.18173,0 -7.57169,-3.39 -7.57168,-7.5717 -1e-5,-4.1817 3.38995,-7.5717 7.57168,-7.5717 4.18173,0 7.57169,3.39 7.57168,7.5717 z"
     id="path9261-91"
     inkscape:connector-curvature="0"
     sodipodi:nodetypes="sssss" />
  <path
     style="color:#000000;display:inline;overflow:visible;visibility:visible;fill:none;fill-rule:evenodd;stroke:#000000;stroke-width:4;stroke-linecap:butt;stroke-linejoin:miter;stroke-miterlimit:4;stroke-dasharray:none;stroke-dashoffset:0;stroke-opacity:1;marker:none;enable-background:accumulate"
     d="m 166.33277,579.30604 c 1e-5,4.1817 -3.38995,7.5717 -7.57168,7.5717 -4.18173,0 -7.57169,-3.39 -7.57168,-7.5717 -1e-5,-4.1817 3.38995,-7.5717 7.57168,-7.5717 4.18173,0 7.57169,3.39 7.57168,7.5717 z"
     id="path9261-4"
     inkscape:connector-curvature="0"
     sodipodi:nodetypes="sssss" />
  <path
     style="color:#000000;display:inline;overflow:visible;visibility:visible;fill:none;fill-rule:evenodd;stroke:#000000;stroke-width:4;stroke-linecap:butt;stroke-linejoin:miter;stroke-miterlimit:4;stroke-dasharray:none;stroke-dashoffset:0;stroke-opacity:1;marker:none;enable-background:accumulate"
     d="m 238.63012,459.86884 c 1e-5,4.1817 -3.38995,7.5717 -7.57168,7.5717 -4.18173,0 -7.57169,-3.39 -7.57168,-7.5717 -1e-5,-4.1817 3.38995,-7.5717 7.57168,-7.5717 4.18173,0 7.57169,3.39 7.57168,7.5717 z"
     id="path9261-09"
     inkscape:connector-curvature="0"
     sodipodi:nodetypes="sssss" />
  <path
     style="color:#000000;display:inline;overflow:visible;visibility:visible;fill:none;fill-rule:evenodd;stroke:#000000;stroke-width:4;stroke-linecap:butt;stroke-linejoin:miter;stroke-miterlimit:4;stroke-dasharray:none;stroke-dashoffset:0;stroke-opacity:1;marker:none;enable-background:accumulate"
     d="m 359.5328,257.87589 c 10e-6,4.1817 -3.38995,7.5717 -7.57168,7.5717 -4.18173,0 -7.57169,-3.39 -7.57168,-7.5717 -10e-6,-4.1817 3.38995,-7.5717 7.57168,-7.5717 4.18173,0 7.57169,3.39 7.57168,7.5717 z"
     id="path9261-8"
     inkscape:connector-curvature="0"
     sodipodi:nodetypes="sssss" />
  <path
     style="color:#000000;display:inline;overflow:visible;visibility:visible;fill:none;fill-rule:evenodd;stroke:#000000;stroke-width:4;stroke-linecap:butt;stroke-linejoin:miter;stroke-miterlimit:4;stroke-dasharray:none;stroke-dashoffset:0;stroke-opacity:1;marker:none;enable-background:accumulate"
     d="m 302.62306,352.8883 c 10e-6,4.1817 -3.38995,7.5717 -7.57168,7.5717 -4.18173,0 -7.57169,-3.39 -7.57168,-7.5717 -10e-6,-4.1817 3.38995,-7.5717 7.57168,-7.5717 4.18173,0 7.57169,3.39 7.57168,7.5717 z"
     id="path9261-26"
     inkscape:connector-curvature="0"
     sodipodi:nodetypes="sssss" />
  <path
     style="color:#000000;display:inline;overflow:visible;visibility:visible;fill:none;fill-rule:evenodd;stroke:#000000;stroke-width:4;stroke-linecap:butt;stroke-linejoin:miter;stroke-miterlimit:4;stroke-dasharray:none;stroke-dashoffset:0;stroke-opacity:1;marker:none;enable-background:accumulate"
     d="m 603.53638,258.60864 c 10e-6,4.1817 -3.38995,7.5717 -7.57168,7.5717 -4.18173,0 -7.57169,-3.39 -7.57168,-7.5717 -10e-6,-4.1817 3.38995,-7.5717 7.57168,-7.5717 4.18173,0 7.57169,3.39 7.57168,7.5717 z"
     id="path9261-14"
     inkscape:connector-curvature="0"
     sodipodi:nodetypes="sssss" />
  <path
     style="color:#000000;display:inline;overflow:visible;visibility:visible;fill:none;fill-rule:evenodd;stroke:#000000;stroke-width:4;stroke-linecap:butt;stroke-linejoin:miter;stroke-miterlimit:4;stroke-dasharray:none;stroke-dashoffset:0;stroke-opacity:1;marker:none;enable-background:accumulate"
     d="m 1066.8745,296.46705 c 0,4.1817 -3.3899,7.5717 -7.5717,7.5717 -4.1817,0 -7.5716,-3.39 -7.5716,-7.5717 0,-4.1817 3.3899,-7.5717 7.5716,-7.5717 4.1818,0 7.5717,3.39 7.5717,7.5717 z"
     id="path9261-5"
     inkscape:connector-curvature="0"
     sodipodi:nodetypes="sssss" />
  <path
     style="color:#000000;display:inline;overflow:visible;visibility:visible;fill:none;fill-rule:evenodd;stroke:#000000;stroke-width:4;stroke-linecap:butt;stroke-linejoin:miter;stroke-miterlimit:4;stroke-dasharray:none;stroke-dashoffset:0;stroke-opacity:1;marker:none;enable-background:accumulate"
     d="m 936.93468,276.68298 c 1e-5,4.1817 -3.38995,7.5717 -7.57168,7.5717 -4.18173,0 -7.57169,-3.39 -7.57168,-7.5717 -1e-5,-4.1817 3.38995,-7.5717 7.57168,-7.5717 4.18173,0 7.57169,3.39 7.57168,7.5717 z"
     id="path9261-56"
     inkscape:connector-curvature="0"
     sodipodi:nodetypes="sssss" />
  <path
     style="color:#000000;display:inline;overflow:visible;visibility:visible;fill:none;fill-rule:evenodd;stroke:#000000;stroke-width:4;stroke-linecap:butt;stroke-linejoin:miter;stroke-miterlimit:4;stroke-dasharray:none;stroke-dashoffset:0;stroke-opacity:1;marker:none;enable-background:accumulate"
     d="m 821.16121,261.05112 c 10e-6,4.1817 -3.38995,7.5717 -7.57168,7.5717 -4.18173,0 -7.57169,-3.39 -7.57168,-7.5717 -10e-6,-4.1817 3.38995,-7.5717 7.57168,-7.5717 4.18173,0 7.57169,3.39 7.57168,7.5717 z"
     id="path9261-3"
     inkscape:connector-curvature="0"
     sodipodi:nodetypes="sssss" />
  <path
     style="color:#000000;display:inline;overflow:visible;visibility:visible;fill:none;fill-rule:evenodd;stroke:#000000;stroke-width:4;stroke-linecap:butt;stroke-linejoin:miter;stroke-miterlimit:4;stroke-dasharray:none;stroke-dashoffset:0;stroke-opacity:1;marker:none;enable-background:accumulate"
     d="m 1238.0922,567.09365 c 10e-5,4.1817 -3.3899,7.5717 -7.5716,7.5717 -4.1818,0 -7.5717,-3.39 -7.5717,-7.5717 0,-4.1817 3.3899,-7.5717 7.5717,-7.5717 4.1817,0 7.5717,3.39 7.5716,7.5717 z"
     id="path9261-6"
     inkscape:connector-curvature="0"
     sodipodi:nodetypes="sssss" />
  <path
     style="color:#000000;display:inline;overflow:visible;visibility:visible;fill:none;fill-rule:evenodd;stroke:#000000;stroke-width:4;stroke-linecap:butt;stroke-linejoin:miter;stroke-miterlimit:4;stroke-dasharray:none;stroke-dashoffset:0;stroke-opacity:1;marker:none;enable-background:accumulate"
     d="m 1231.986,438.37504 c 10e-5,4.1817 -3.3899,7.5717 -7.5716,7.5717 -4.1818,0 -7.5717,-3.39 -7.5717,-7.5717 0,-4.1817 3.3899,-7.5717 7.5717,-7.5717 4.1817,0 7.5717,3.39 7.5716,7.5717 z"
     id="path9261-25"
     inkscape:connector-curvature="0"
     sodipodi:nodetypes="sssss" />
  <path
     style="color:#000000;display:inline;overflow:visible;visibility:visible;fill:none;fill-rule:evenodd;stroke:#000000;stroke-width:4;stroke-linecap:butt;stroke-linejoin:miter;stroke-miterlimit:4;stroke-dasharray:none;stroke-dashoffset:0;stroke-opacity:1;marker:none;enable-background:accumulate"
     d="m 1219.2852,841.87246 c 0,4.1817 -3.39,7.5717 -7.5717,7.5717 -4.1817,0 -7.5717,-3.39 -7.5717,-7.5717 0,-4.1817 3.39,-7.5717 7.5717,-7.5717 4.1817,0 7.5717,3.39 7.5717,7.5717 z"
     id="path9261-7"
     inkscape:connector-curvature="0"
     sodipodi:nodetypes="sssss" />
  <path
     style="color:#000000;display:inline;overflow:visible;visibility:visible;fill:none;fill-rule:evenodd;stroke:#000000;stroke-width:4;stroke-linecap:butt;stroke-linejoin:miter;stroke-miterlimit:4;stroke-dasharray:none;stroke-dashoffset:0;stroke-opacity:1;marker:none;enable-background:accumulate"
     d="m 1243.4657,733.42642 c 0,4.1817 -3.39,7.5717 -7.5717,7.5717 -4.1817,0 -7.5717,-3.39 -7.5717,-7.5717 0,-4.1817 3.39,-7.5717 7.5717,-7.5717 4.1817,0 7.5717,3.39 7.5717,7.5717 z"
     id="path9261-83"
     inkscape:connector-curvature="0"
     sodipodi:nodetypes="sssss" />
  <path
     style="color:#000000;display:inline;overflow:visible;visibility:visible;fill:none;fill-rule:evenodd;stroke:#000000;stroke-width:4;stroke-linecap:butt;stroke-linejoin:miter;stroke-miterlimit:4;stroke-dasharray:none;stroke-dashoffset:0;stroke-opacity:1;marker:none;enable-background:accumulate"
     d="m 1150.8958,1113.4761 c 0,4.1817 -3.39,7.5717 -7.5717,7.5717 -4.1817,0 -7.5717,-3.39 -7.5717,-7.5717 0,-4.1817 3.39,-7.5717 7.5717,-7.5717 4.1817,0 7.5717,3.39 7.5717,7.5717 z"
     id="path9261-919"
     inkscape:connector-curvature="0"
     sodipodi:nodetypes="sssss" />
  <path
     style="color:#000000;display:inline;overflow:visible;visibility:visible;fill:none;fill-rule:evenodd;stroke:#000000;stroke-width:4;stroke-linecap:butt;stroke-linejoin:miter;stroke-miterlimit:4;stroke-dasharray:none;stroke-dashoffset:0;stroke-opacity:1;marker:none;enable-background:accumulate"
     d="m 1184.1135,987.9327 c 0,4.1817 -3.39,7.5717 -7.5717,7.5717 -4.1817,0 -7.5717,-3.39 -7.5717,-7.5717 0,-4.1817 3.39,-7.5717 7.5717,-7.5717 4.1817,0 7.5717,3.39 7.5717,7.5717 z"
     id="path9261-149"
     inkscape:connector-curvature="0"
     sodipodi:nodetypes="sssss" />
  <path
     style="color:#000000;display:inline;overflow:visible;visibility:visible;fill:none;fill-rule:evenodd;stroke:#000000;stroke-width:4;stroke-linecap:butt;stroke-linejoin:miter;stroke-miterlimit:4;stroke-dasharray:none;stroke-dashoffset:0;stroke-opacity:1;marker:none;enable-background:accumulate"
     d="m 833.86209,1147.6708 c 1e-5,4.1817 -3.38995,7.5717 -7.57168,7.5717 -4.18173,0 -7.57169,-3.39 -7.57168,-7.5717 -1e-5,-4.1817 3.38995,-7.5717 7.57168,-7.5717 4.18173,0 7.57169,3.39 7.57168,7.5717 z"
     id="path9261-43"
     inkscape:connector-curvature="0"
     sodipodi:nodetypes="sssss" />
  <path
     style="color:#000000;display:inline;overflow:visible;visibility:visible;fill:none;fill-rule:evenodd;stroke:#000000;stroke-width:4;stroke-linecap:butt;stroke-linejoin:miter;stroke-miterlimit:4;stroke-dasharray:none;stroke-dashoffset:0;stroke-opacity:1;marker:none;enable-background:accumulate"
     d="m 405.75992,707.87039 c 10e-6,4.1817 -3.38995,7.5717 -7.57168,7.5717 -4.18173,0 -7.57169,-3.39 -7.57168,-7.5717 -10e-6,-4.1817 3.38995,-7.5717 7.57168,-7.5717 4.18173,0 7.57169,3.39 7.57168,7.5717 z"
     id="path9261-68"
     inkscape:connector-curvature="0"
     sodipodi:nodetypes="sssss" />
  <text
     xml:space="preserve"
     style="font-style:italic;font-variant:normal;font-weight:normal;font-stretch:normal;font-size:27.5px;line-height:125%;font-family:Arial;-inkscape-font-specification:'Arial Italic';text-align:start;letter-spacing:1.30999994px;word-spacing:0px;text-anchor:start;fill:#000000;fill-opacity:1;stroke:none"
     x="407.87827"
     y="560.1123"
     id="text18388"
     sodipodi:linespacing="125%"><tspan
       sodipodi:role="line"
       id="tspan18394"
       x="407.87827"
       y="560.1123">β</tspan></text>
  <text
     xml:space="preserve"
     style="font-style:normal;font-variant:normal;font-weight:normal;font-stretch:normal;font-size:27.5px;line-height:125%;font-family:Arial;-inkscape-font-specification:Sans;text-align:start;letter-spacing:1.30999994px;word-spacing:0px;text-anchor:start;fill:#000000;fill-opacity:1;stroke:none"
     x="478.76169"
     y="514.18372"
     id="text18388-2"
     sodipodi:linespacing="125%"><tspan
       sodipodi:role="line"
       id="tspan18394-0"
       x="478.76169"
       y="514.18372">a<tspan
   style="font-size:27.5px;baseline-shift:sub"
   id="tspan9435">β</tspan></tspan></text>
  <text
     xml:space="preserve"
     style="font-style:normal;font-variant:normal;font-weight:normal;font-stretch:normal;font-size:27.5px;line-height:125%;font-family:Arial;-inkscape-font-specification:Arial;text-align:start;letter-spacing:1px;word-spacing:0px;text-anchor:start;fill:#000000;fill-opacity:1;stroke:none;stroke-width:1px;stroke-linecap:butt;stroke-linejoin:miter;stroke-opacity:1;"
     x="441.86041"
     y="678.19427"
     id="text9437"
     sodipodi:linespacing="125%"><tspan
       sodipodi:role="line"
       id="tspan9441"
       x="441.86041"
       y="678.19427">90º</tspan></text>
  <text
     xml:space="preserve"
     style="font-style:normal;font-variant:normal;font-weight:normal;font-stretch:normal;font-size:27.5px;line-height:125%;font-family:Arial;-inkscape-font-specification:Arial;text-align:start;letter-spacing:1px;word-spacing:0px;text-anchor:start;fill:#000000;fill-opacity:1;stroke:none;stroke-width:1px;stroke-linecap:butt;stroke-linejoin:miter;stroke-opacity:1;"
     x="940.23016"
     y="814.00574"
     id="text9437-8"
     sodipodi:linespacing="125%"><tspan
       sodipodi:role="line"
       id="tspan9441-4"
       x="940.23016"
       y="814.00574">90º</tspan></text>
  <text
     xml:space="preserve"
     style="font-style:normal;font-variant:normal;font-weight:normal;font-stretch:normal;font-size:64.99999762%;line-height:125%;font-family:Arial;-inkscape-font-specification:Sans;text-align:start;letter-spacing:1.30999994px;word-spacing:0px;baseline-shift:sub;text-anchor:start;fill:#000000;fill-opacity:1;stroke:none"
     x="725.15491"
     y="534.42487"
     id="text18388-2-1"
     sodipodi:linespacing="125%"><tspan
       sodipodi:role="line"
       id="tspan18394-0-5"
       x="0"
       y="0"><tspan
         style="font-size:64.99999762%;baseline-shift:sub"
         id="tspan9435-7" /></tspan></text>
  <text
     xml:space="preserve"
     style="font-style:normal;font-variant:normal;font-weight:normal;font-stretch:normal;font-size:30px;line-height:125%;font-family:Arial;-inkscape-font-specification:Arial;text-align:start;letter-spacing:1px;word-spacing:0px;text-anchor:start;fill:#000000;fill-opacity:1;stroke:none;stroke-width:1px;stroke-linecap:butt;stroke-linejoin:miter;stroke-opacity:1"
     x="1007.7698"
     y="552.09485"
     id="text9482"
     sodipodi:linespacing="125%"><tspan
       sodipodi:role="line"
       id="tspan9484"
       x="1007.7698"
       y="552.09485">z<tspan
   style="font-size:27.5px;baseline-shift:sub"
   id="tspan9486">β</tspan></tspan></text>
  <text
     xml:space="preserve"
     style="font-style:normal;font-variant:normal;font-weight:normal;font-stretch:normal;font-size:30px;line-height:125%;font-family:Arial;-inkscape-font-specification:Arial;text-align:start;letter-spacing:1px;word-spacing:0px;text-anchor:start;fill:#000000;fill-opacity:1;stroke:none;stroke-width:1px;stroke-linecap:butt;stroke-linejoin:miter;stroke-opacity:1"
     x="606.9173"
     y="82.554169"
     id="text9488"
     sodipodi:linespacing="125%"><tspan
       sodipodi:role="line"
       id="tspan9490"
       x="606.9173"
       y="82.554169">zv</tspan></text>
  <text
     xml:space="preserve"
     style="font-style:normal;font-variant:normal;font-weight:normal;font-stretch:normal;font-size:30px;line-height:125%;font-family:Arial;-inkscape-font-specification:Arial;text-align:start;letter-spacing:1px;word-spacing:0px;text-anchor:start;fill:#000000;fill-opacity:1;stroke:none;stroke-width:1px;stroke-linecap:butt;stroke-linejoin:miter;stroke-opacity:1"
     x="1352.741"
     y="1148.9032"
     id="text9492"
     sodipodi:linespacing="125%"><tspan
       sodipodi:role="line"
       id="tspan9494"
       x="1352.741"
       y="1148.9032">yv</tspan></text>
  <text
     xml:space="preserve"
     style="font-style:normal;font-variant:normal;font-weight:normal;font-stretch:normal;font-size:27.5px;line-height:125%;font-family:Arial;-inkscape-font-specification:Arial;text-align:start;letter-spacing:1px;word-spacing:0px;text-anchor:start;fill:#000000;fill-opacity:1;stroke:none;stroke-width:1px;stroke-linecap:butt;stroke-linejoin:miter;stroke-opacity:1"
     x="316.45361"
     y="829.38208"
     id="text9496"
     sodipodi:linespacing="125%"><tspan
       sodipodi:role="line"
       id="tspan9498"
       x="316.45361"
       y="829.38208">     (Yp. Zp)</tspan><tspan
       sodipodi:role="line"
       x="316.45361"
       y="863.75708"
       id="tspan9500">PRESSURE POINT</tspan></text>
  <text
     xml:space="preserve"
     style="font-style:normal;font-variant:normal;font-weight:normal;font-stretch:normal;font-size:30px;line-height:125%;font-family:Arial;-inkscape-font-specification:Arial;text-align:start;letter-spacing:1px;word-spacing:0px;text-anchor:start;fill:#000000;fill-opacity:1;stroke:none"
     x="324.2872"
     y="1331.1218"
     id="text9502"
     sodipodi:linespacing="125%"><tspan
       sodipodi:role="line"
       id="tspan9504"
       x="324.2872"
       y="1331.1218">NOTE:  LARGEST LIQUID HEIGHT ABOVE THE POINT</tspan><tspan
       sodipodi:role="line"
       x="324.2872"
       y="1368.6218"
       id="tspan9506">            WHERE THE PRESSURE IS DETERMINED = Z<tspan
   style="font-style:italic;font-variant:normal;font-weight:normal;font-stretch:normal;font-size:30px;font-family:Arial;-inkscape-font-specification:'Arial Italic';baseline-shift:sub"
   id="tspan9508">β</tspan></tspan></text>
  <text
     xml:space="preserve"
     style="font-style:normal;font-variant:normal;font-weight:normal;font-stretch:normal;font-size:27.5px;line-height:125%;font-family:Arial;-inkscape-font-specification:Arial;text-align:start;letter-spacing:1px;word-spacing:0px;text-anchor:start;fill:#000000;fill-opacity:1;stroke:none;stroke-width:1px;stroke-linecap:butt;stroke-linejoin:miter;stroke-opacity:1"
     x="387.33548"
     y="1447.9153"
     id="text9510"
     sodipodi:linespacing="125%"><tspan
       sodipodi:role="line"
       id="tspan9512"
       x="387.33548"
       y="1447.9153">Figure 2.  Determination of Internal Pressure Heads</tspan></text>
</svg>
