<?xml version="1.0" encoding="UTF-8" standalone="no"?>
<!-- Created with Inkscape (http://www.inkscape.org/) -->

<svg
   xmlns:dc="http://purl.org/dc/elements/1.1/"
   xmlns:cc="http://creativecommons.org/ns#"
   xmlns:rdf="http://www.w3.org/1999/02/22-rdf-syntax-ns#"
   xmlns:svg="http://www.w3.org/2000/svg"
   xmlns="http://www.w3.org/2000/svg"
   xmlns:sodipodi="http://sodipodi.sourceforge.net/DTD/sodipodi-0.dtd"
   xmlns:inkscape="http://www.inkscape.org/namespaces/inkscape"
   id="svg4777"
   version="1.1"
   inkscape:version="0.48.2 r9819"
   width="664"
   height="672"
   sodipodi:docname="ec10oc91.000.svg">
  <title id="title_ec10oc91.000">International accessibility symbol</title>
  <desc id="desc_ec10oc91.000">Man in a wheel chair symbol</desc>
  <metadata
     id="metadata4783">
    <rdf:RDF>
      <cc:Work
         rdf:about="">
        <dc:format>image/svg+xml</dc:format>
        <dc:type
           rdf:resource="http://purl.org/dc/dcmitype/StillImage" />
        <dc:title></dc:title>
      </cc:Work>
    </rdf:RDF>
  </metadata>
  <defs
     id="defs4781" />
  <sodipodi:namedview
     pagecolor="#ffffff"
     bordercolor="#666666"
     borderopacity="1"
     objecttolerance="10"
     gridtolerance="10"
     guidetolerance="10"
     inkscape:pageopacity="0"
     inkscape:pageshadow="2"
     inkscape:window-width="1103"
     inkscape:window-height="744"
     id="namedview4779"
     showgrid="false"
     inkscape:zoom="0.35119048"
     inkscape:cx="332"
     inkscape:cy="336"
     inkscape:window-x="186"
     inkscape:window-y="20"
     inkscape:window-maximized="0"
     inkscape:current-layer="svg4777" />
  <path
     style="font-size:medium;font-style:normal;font-variant:normal;font-weight:normal;font-stretch:normal;text-indent:0;text-align:start;text-decoration:none;line-height:normal;letter-spacing:normal;word-spacing:normal;text-transform:none;direction:ltr;block-progression:tb;writing-mode:lr-tb;text-anchor:start;baseline-shift:baseline;color:#000000;fill:none;stroke:#000000;stroke-width:2.99384022000000005;stroke-miterlimit:4;stroke-opacity:1;stroke-dasharray:none;marker:none;visibility:visible;display:inline;overflow:visible;enable-background:accumulate;font-family:Sans;-inkscape-font-specification:Sans"
     d="m 110.99861,28.947731 c -53.454377,0 -96.723286,45.557552 -96.723286,100.968849 l 0,427.7149 c 0,55.41457 43.268909,100.26963 96.723286,100.26963 l 434.241,0 c 53.45391,0 97.39951,-44.85506 97.39951,-100.26963 l 0,-427.7149 c 0,-55.411297 -43.94546,-100.968849 -97.39951,-100.968849 z"
     id="path27524-8"
     inkscape:connector-curvature="0"
     sodipodi:nodetypes="sssssssss" />
  <path
     style="font-size:medium;font-style:normal;font-variant:normal;font-weight:normal;font-stretch:normal;text-indent:0;text-align:start;text-decoration:none;line-height:normal;letter-spacing:normal;word-spacing:normal;text-transform:none;direction:ltr;block-progression:tb;writing-mode:lr-tb;text-anchor:start;baseline-shift:baseline;color:#000000;fill:#000000;fill-opacity:1;stroke:none;stroke-width:1.02278793000000001;marker:none;visibility:visible;display:inline;overflow:visible;enable-background:accumulate;font-family:Sans;-inkscape-font-specification:Sans"
     d="m 278.87688,97.57422 c -21.57154,0 -39.06538,17.56796 -38.81422,38.95772 l 16.35792,242.21228 c 0.0477,0.57276 0.57331,1.0653 1.14794,1.07617 l 160.13568,-1.5784 57.82666,169.4625 c 0.22503,0.63033 1.05715,0.95593 1.65011,0.6457 l 75.90655,-34.366 c 0.55869,-0.2318 0.86319,-0.94228 0.64584,-1.50666 l -11.76629,-31.42447 c -0.22986,-0.59321 -0.99858,-0.90769 -1.57845,-0.64571 l -43.04711,21.30837 -55.88964,-159.13117 c -0.16285,-0.46969 -0.65107,-0.80545 -1.14803,-0.7892 l -152.0283,2.00888 -1.79365,-30.0613 100.44354,-0.64571 c 0.59729,-0.0145 1.13466,-0.5506 1.14787,-1.14794 l -0.21512,-33.72031 c -0.0161,-0.62145 -0.59851,-1.17213 -1.21969,-1.14792 l -102.23722,1.36317 -5.16566,-99.58254 c 21.41214,-0.56014 41.46881,-20.2007 41.46881,-41.46881 0,-21.67458 -20.23017,-39.81865 -41.82754,-39.81865 z m -44.98433,180.15254 -1.07617,0.43047 c -61.97951,23.57629 -106.11134,84.47718 -106.11134,155.8309 0,91.79863 73.04397,166.23394 163.14888,166.23394 69.40325,0 128.66976,-44.14938 152.24363,-106.39834 l 0.14264,-0.35871 -0.14264,-0.287 -20.87787,-58.47243 -0.0722,-0.28699 -1.72191,0.28699 c 0,0.0969 3.1e-4,0.19009 0,0.28697 -0.15392,72.21683 -57.62407,130.64826 -128.49591,130.64826 -70.96691,0 -128.49585,-58.58463 -128.49585,-130.93523 0,-52.92537 30.74086,-98.51117 75.04559,-119.16903 l 0.57396,-0.28698 -0.0717,-0.64571 -4.01774,-35.72919 z"
     id="path7226"
     inkscape:connector-curvature="0"
     sodipodi:nodetypes="scccccccccccccccccccccssccssccccccsssccccc" />
</svg>
