<?xml version="1.0" encoding="UTF-8" standalone="no"?>
<!-- Created with Inkscape (http://www.inkscape.org/) -->

<svg
   xmlns:dc="http://purl.org/dc/elements/1.1/"
   xmlns:cc="http://creativecommons.org/ns#"
   xmlns:rdf="http://www.w3.org/1999/02/22-rdf-syntax-ns#"
   xmlns:svg="http://www.w3.org/2000/svg"
   xmlns="http://www.w3.org/2000/svg"
   xmlns:sodipodi="http://sodipodi.sourceforge.net/DTD/sodipodi-0.dtd"
   xmlns:inkscape="http://www.inkscape.org/namespaces/inkscape"
   id="svg17979"
   version="1.1"
   inkscape:version="0.48.2 r9819"
   width="45.599873"
   height="45.65625"
   viewBox="0 0 45.599873 45.65625"
   sodipodi:docname="ec21oc91.059_o.svg">
  <title id="title_ec21oc91.059_o">Ranger Station or administrative Office</title>
  <desc id="desc_ec21oc91.059_o">General symbolic signs</desc>
  <metadata
     id="metadata17985">
    <rdf:RDF>
      <cc:Work
         rdf:about="">
        <dc:format>image/svg+xml</dc:format>
        <dc:type
           rdf:resource="http://purl.org/dc/dcmitype/StillImage" />
        <dc:title></dc:title>
      </cc:Work>
    </rdf:RDF>
  </metadata>
  <defs
     id="defs17983" />
  <sodipodi:namedview
     pagecolor="#ffffff"
     bordercolor="#666666"
     borderopacity="1"
     objecttolerance="10"
     gridtolerance="10"
     guidetolerance="10"
     inkscape:pageopacity="0"
     inkscape:pageshadow="2"
     inkscape:window-width="1280"
     inkscape:window-height="676"
     id="namedview17981"
     showgrid="false"
     inkscape:zoom="4.9845892"
     inkscape:cx="-28.494644"
     inkscape:cy="35.647971"
     inkscape:window-x="0"
     inkscape:window-y="0"
     inkscape:window-maximized="0"
     inkscape:current-layer="svg17979"
     showguides="false"
     fit-margin-top="0"
     fit-margin-left="0"
     fit-margin-right="0"
     fit-margin-bottom="0" />
  <path
     style="fill:none;stroke:#000000;stroke-width:1;stroke-linecap:butt;stroke-linejoin:round;stroke-miterlimit:4;stroke-opacity:1;stroke-dasharray:none"
     d="m 29.838922,32.73975 -0.10547,-7.30274 c -0.0127,-0.8812 -3.8828,-0.9607 -3.86892,0 l 0.10547,7.30274"
     id="path14359-1-7-5-3-0-73-1-9-8"
     inkscape:connector-curvature="0"
     sodipodi:nodetypes="cssc" />
  <path
     style="fill:none;stroke:#000000;stroke-width:1;stroke-linecap:butt;stroke-linejoin:round;stroke-miterlimit:4;stroke-opacity:1;stroke-dasharray:none"
     d="M 9.1072419,9.00308 C 12.495662,8.21655 15.114682,8.27783 18.118402,8.83022"
     id="path14359-1-7-5-3-0-73-1-9-6"
     inkscape:connector-curvature="0"
     sodipodi:nodetypes="cc" />
  <path
     style="fill:#000000;fill-opacity:1;stroke:#000000;stroke-width:1;stroke-linecap:butt;stroke-linejoin:round;stroke-miterlimit:4;stroke-opacity:1;stroke-dasharray:none"
     d="m 9.8697919,17.39158 -1.32892,1.61456 1.32897,1.44843 z M 10.500292,10.05325 8.8091519,9.80281 c -0.0421,-1.26633 1.2660701,-0.93849 1.6703901,-2.0877 0.49723,-1.41324 1.76733,-2.41808 3.25568,-2.41808 1.46544,0 2.71929,0.97415 3.23216,2.35312 0.36583,0.98363 1.52809,0.99261 1.52809,2.05421 l -1.45538,0.27895 c 0,1.99667 -1.29098,2.84465 -3.16092,2.93761 0.50716,-4.4e-4 1.07282,-0.11925 1.62215,-0.30839 l 1.5048,0 4.33561,4.47354 c 0.76095,0.78516 1.02743,1.64315 0.27931,2.4466 l -3.218,-0.45659 -1.18908,-1.6845 5e-5,3.01053 1.1785,-1.32911 3.22104,0.48534 -4.35604,4.66014 c -0.20075,0.21476 -0.21831,0.44169 -0.21831,0.663 l 0,0.80437 c -2.43874,0.34276 -4.82379,0.3097 -7.1693201,-10e-6 l 0,-1.01419 c 0,-0.20804 -0.0963,-0.24371 -0.18858,-0.33473 l -4.34791,-4.29122 -4.83160001,0.60413 0,15.72295 c 0,4.84267 3.92575001,8.76843 8.76842001,8.76843 l 27.0665901,0 c 4.84268,0 8.76843,-3.92576 8.76843,-8.76843 l 0,-23.80153 -4.14161,0.035 -2.4e-4,3.55886 c -5.94824,1.27294 -3.09599,-2.14884 -8.00703,-0.75235 l -0.0304,3.64011 3.4169,2.67645 -0.002,11.01047 -16.38923,0 0.001,-6.56431 -2.94669,0.0349 -0.002,13.0738 c -3.3e-4,2.25298 -2.71153,2.29237 -2.83176,0 l -0.55955,-9.8272 -0.66448,9.8272 c -0.15603,2.30765 -3.0439401,2.37626 -3.0435801,0 l 0.002,-13.06794 c 2.4139201,-0.33534 4.7787001,-0.31747 7.0993701,0 l 2.94691,-0.0408 7.8e-4,-4.17749 7.89807,-6.82437 5.06236,3.86721 -1.83922,-1.50806 0.002,-6.81913 c 4.4e-4,-1.48153 1.88109,-1.46209 1.88074,0 4.58525,-1.00186 3.04469,2.68083 8.00608,1.90492 l 4.14158,-0.0822 0,-3.27891 c 0,-4.84266 -3.92575,-8.76842 -8.76843,-8.76842 l -27.0665901,0 c -4.84267,0 -8.76842001,3.92576 -8.76842001,8.76842 l 0,11.39246 4.82218001,-0.61055 c -0.76845,-0.75792 -0.66578,-1.85162 0.17534,-2.67392 l 4.8620901,-4.75331 1.60772,0 c 0.59758,0.24944 1.35802,0.33515 1.91643,0.32722 -1.88683,-0.0378 -3.38526,-0.81939 -3.38526,-2.88606 z"
     id="path14359-1-7-5-3-0-73-1-9-0"
     inkscape:connector-curvature="0"
     sodipodi:nodetypes="ccccccssscccccsccccccssccssccssssccccccccccsscsscccccccscccssssccscccc" />
</svg>
