<?xml version="1.0" encoding="UTF-8" standalone="no"?>
<!-- Created with Inkscape (http://www.inkscape.org/) -->

<svg
   xmlns:dc="http://purl.org/dc/elements/1.1/"
   xmlns:cc="http://creativecommons.org/ns#"
   xmlns:rdf="http://www.w3.org/1999/02/22-rdf-syntax-ns#"
   xmlns:svg="http://www.w3.org/2000/svg"
   xmlns="http://www.w3.org/2000/svg"
   xmlns:sodipodi="http://sodipodi.sourceforge.net/DTD/sodipodi-0.dtd"
   xmlns:inkscape="http://www.inkscape.org/namespaces/inkscape"
   id="svg17979"
   version="1.1"
   inkscape:version="0.48.2 r9819"
   width="45.602093"
   height="45.656494"
   viewBox="0 0 45.602093 45.656494"
   sodipodi:docname="ec21oc91.059_p.svg">
  <metadata
     id="metadata17985">
    <rdf:RDF>
      <cc:Work
         rdf:about="">
        <dc:format>image/svg+xml</dc:format>
        <dc:type
           rdf:resource="http://purl.org/dc/dcmitype/StillImage" />
        <dc:title></dc:title>
      </cc:Work>
    </rdf:RDF>
  </metadata>
  <defs
     id="defs17983" />
  <sodipodi:namedview
     pagecolor="#ffffff"
     bordercolor="#666666"
     borderopacity="1"
     objecttolerance="10"
     gridtolerance="10"
     guidetolerance="10"
     inkscape:pageopacity="0"
     inkscape:pageshadow="2"
     inkscape:window-width="1280"
     inkscape:window-height="676"
     id="namedview17981"
     showgrid="false"
     inkscape:zoom="4.3466767"
     inkscape:cx="-31.065443"
     inkscape:cy="47.783318"
     inkscape:window-x="0"
     inkscape:window-y="0"
     inkscape:window-maximized="0"
     inkscape:current-layer="svg17979"
     showguides="false"
     fit-margin-top="0"
     fit-margin-left="0"
     fit-margin-right="0"
     fit-margin-bottom="0" />
  <path
     style="fill:#000000;fill-opacity:1;stroke:#000000;stroke-width:1;stroke-linecap:butt;stroke-linejoin:round;stroke-miterlimit:4;stroke-opacity:1;stroke-dasharray:none"
     d="m 4.6589319,33.617714 9.8569201,0 0.28171,-3.15277 -10.1366301,0 -0.002,3.1497 -4.16120001,-0.0919 0,-24.2581498 c 0,-4.84266 3.92575001,-8.76842002 8.76842001,-8.76842002 l 17.9031401,0 0.1216,4.06028002 c -1.65466,0 -2.99602,1.34137 -2.99602,2.99603 0,1.59685 1.22975,2.9214498 3.00921,2.9911498 l -0.12814,0.19382 c -0.70576,-0.20482 -1.61615,-0.62701 -2.12088,-1.0746998 -0.50305,-0.44621 -1.96729,-0.0378 -2.76585,0.3537298 l -5.26798,2.58257 c -0.79596,0.39021 -1.34683,1.28239 -1.35383,2.08152 l -0.0467,5.44977 c -0.0147,1.71474 2.51766,1.59337 2.63065,-0.10661 l 0.17959,-2.70189 1.07988,-2.4421 0.005,1.04983 -0.90769,1.48374 -0.19431,5.15872 c -1.19178,4.014 -2.585,7.73627 -4.03647,11.37418 -0.72316,1.81248 2.38421,4.2767 3.14423,2.72998 0.51565,-1.0494 1.18636,-2.39177 1.69118,-3.43034 l 0.18588,0.37186 5.16478,0 -0.46952,-3.15277 -3.54492,0 -1.02737,2.81575 -0.3301,-0.0235 c 1.09645,-2.25787 2.16938,-4.49224 3.22666,-6.71094 1.61191,2.81775 2.75582,6.28151 3.10133,9.68375 0.18184,1.79051 4.5693,0.86035 4.24568,-0.84 -0.89578,-4.70667 -2.06591,-9.26908 -4.40303,-14.02101 -0.98299,-1.99864 0.74537,-2.99234 1.04712,-3.90392 0.28666,1.0178 0.66655,1.72796 1.41039,2.41578 1.55282,0.55063 2.96296,0.96417 4.20581,1.6265 1.21259,0.64616 3.38513,-1.55909 1.21359,-2.89655 l -3.90071,-2.40246 c -0.092,-1.37683 -1.6021,-5.33444 -2.16254,-5.46768 l 0.11505,-0.19206 c 1.65466,0 2.99603,-1.3413598 2.99603,-2.9960198 0,-1.59331 -1.31417,-2.99003 -3.00112,-3.01403 l -0.093,-4.04236002 9.13997,0 c 4.84268,0 8.76843,3.92576002 8.76843,8.76842002 l 0,23.3134498 -5.07398,-0.094 10e-4,-2.01932 -10.65214,0 0.16433,3.15277 7.86456,0 -0.0704,3.64307 -32.6373601,0 -0.002,3.22584 35.3675601,0 0.002,-3.22584 -2.75368,0 0.0939,-3.64307 2.62125,0 7.2e-4,-1.1335 5.07424,0.094 0,3.80192 c 0,4.84267 -3.92575,8.76843 -8.76843,8.76843 l -27.0665901,0 c -4.84267,0 -8.76842001,-3.92576 -8.76842001,-8.76843 l 0,-2.83424 z"
     id="path14359-1-7-5-3-0-73-1-9-48-4"
     inkscape:connector-curvature="0"
     sodipodi:nodetypes="ccccccssccsccsssssscccccssccccccccsssccsscccsccssccccccccccccccccsssscc" />
  <path
     style="fill:none;stroke:#000000;stroke-width:1;stroke-linecap:butt;stroke-linejoin:miter;stroke-miterlimit:4;stroke-opacity:1;stroke-dasharray:none"
     d="m 34.847332,37.299744 -0.002,3.14015"
     id="path14359-1-7-5-3-0-73-1-9-4"
     inkscape:connector-curvature="0"
     sodipodi:nodetypes="cc" />
  <path
     style="fill:none;stroke:#000000;stroke-width:1;stroke-linecap:butt;stroke-linejoin:miter;stroke-miterlimit:4;stroke-opacity:1;stroke-dasharray:none"
     d="m 29.518212,37.323224 -0.002,3.14015"
     id="path14359-1-7-5-3-0-73-1-9-60"
     inkscape:connector-curvature="0"
     sodipodi:nodetypes="cc" />
  <path
     style="fill:none;stroke:#000000;stroke-width:1;stroke-linecap:butt;stroke-linejoin:miter;stroke-miterlimit:4;stroke-opacity:1;stroke-dasharray:none"
     d="m 24.400372,37.323224 -0.002,3.14015"
     id="path14359-1-7-5-3-0-73-1-9-47"
     inkscape:connector-curvature="0"
     sodipodi:nodetypes="cc" />
  <path
     style="fill:none;stroke:#000000;stroke-width:1;stroke-linecap:butt;stroke-linejoin:miter;stroke-miterlimit:4;stroke-opacity:1;stroke-dasharray:none"
     d="m 19.376442,37.346694 -0.002,3.14015"
     id="path14359-1-7-5-3-0-73-1-9-3"
     inkscape:connector-curvature="0"
     sodipodi:nodetypes="cc" />
  <path
     style="fill:none;stroke:#000000;stroke-width:1;stroke-linecap:butt;stroke-linejoin:miter;stroke-miterlimit:4;stroke-opacity:1;stroke-dasharray:none"
     d="m 9.3520619,30.397714 -0.002,3.14014"
     id="path14359-1-7-5-3-0-73-1-9-45"
     inkscape:connector-curvature="0"
     sodipodi:nodetypes="cc" />
  <path
     style="fill:none;stroke:#000000;stroke-width:1;stroke-linecap:butt;stroke-linejoin:miter;stroke-miterlimit:4;stroke-opacity:1;stroke-dasharray:none"
     d="m 9.3285819,37.393654 -0.002,3.14014"
     id="path14359-1-7-5-3-0-73-1-9-38"
     inkscape:connector-curvature="0"
     sodipodi:nodetypes="cc" />
  <path
     style="fill:none;stroke:#000000;stroke-width:1;stroke-linecap:butt;stroke-linejoin:miter;stroke-miterlimit:4;stroke-opacity:1;stroke-dasharray:none"
     d="m 14.352512,37.299744 -0.002,3.14015"
     id="path14359-1-7-5-3-0-73-1-9-05"
     inkscape:connector-curvature="0"
     sodipodi:nodetypes="cc" />
  <path
     style="fill:none;stroke:#000000;stroke-width:1;stroke-linecap:butt;stroke-linejoin:miter;stroke-miterlimit:4;stroke-opacity:1;stroke-dasharray:none"
     d="m 34.988192,30.468144 -0.002,3.14014"
     id="path14359-1-7-5-3-0-73-1-9-5"
     inkscape:connector-curvature="0"
     sodipodi:nodetypes="cc" />
</svg>
