<?xml version="1.0" encoding="UTF-8" standalone="no"?>
<!-- Created with Inkscape (http://www.inkscape.org/) -->

<svg
   xmlns:dc="http://purl.org/dc/elements/1.1/"
   xmlns:cc="http://creativecommons.org/ns#"
   xmlns:rdf="http://www.w3.org/1999/02/22-rdf-syntax-ns#"
   xmlns:svg="http://www.w3.org/2000/svg"
   xmlns="http://www.w3.org/2000/svg"
   xmlns:sodipodi="http://sodipodi.sourceforge.net/DTD/sodipodi-0.dtd"
   xmlns:inkscape="http://www.inkscape.org/namespaces/inkscape"
   id="svg26490"
   version="1.1"
   inkscape:version="0.48.2 r9819"
   width="106.25"
   height="106.25"
   viewBox="0 0 106.25 106.25"
   sodipodi:docname="ec21oc91.061.svg">
  <metadata
     id="metadata26496">
    <rdf:RDF>
      <cc:Work
         rdf:about="">
        <dc:format>image/svg+xml</dc:format>
        <dc:type
           rdf:resource="http://purl.org/dc/dcmitype/StillImage" />
        <dc:title />
      </cc:Work>
    </rdf:RDF>
  </metadata>
  <defs
     id="defs26494" />
  <sodipodi:namedview
     pagecolor="#ffffff"
     bordercolor="#666666"
     borderopacity="1"
     objecttolerance="10"
     gridtolerance="10"
     guidetolerance="10"
     inkscape:pageopacity="0"
     inkscape:pageshadow="2"
     inkscape:window-width="1905"
     inkscape:window-height="1156"
     id="namedview26492"
     showgrid="false"
     inkscape:zoom="9.0352941"
     inkscape:cx="33.535156"
     inkscape:cy="53.125"
     inkscape:window-x="0"
     inkscape:window-y="0"
     inkscape:window-maximized="0"
     inkscape:current-layer="svg26490" />
  <path
     style="fill:#000000;fill-opacity:1;stroke:#000000;stroke-width:1;stroke-linecap:butt;stroke-linejoin:round;stroke-miterlimit:4;stroke-dasharray:none;stroke-opacity:1"
     d="M 19.716911,101.73731 C 11.442024,101.73643 4.7486647,95.029175 4.7339029,86.7543 l -0.015331,-8.594039 52.6624641,-0.0034 c 15.266153,0 23.065336,6.374373 23.065336,11.571726 0,6.128164 -12.026758,12.013873 -23.026475,12.012713 z M 86.754445,4.4018717 c 8.274887,0 14.983495,6.7081203 14.983015,14.9830063 l -0.001,24.849194 C 95.582178,44.89771 91.169113,41.399195 88.262342,34.437565 86.989371,31.38884 80.828397,37.523356 71.169308,37.545198 59.705911,37.571119 55.37267,31.279408 53.303327,34.42397 47.006028,43.993313 39.94171,49.917431 33.169664,54.440294 27.512871,58.21831 18.906967,61.673413 12.513033,62.288298 8.7266145,62.652426 4.7160774,63.569357 4.7175713,59.866425 l 0.016332,-40.481547 c 0,-8.274886 6.7081207,-14.9830063 14.9830077,-14.9830063 z M 18.593749,1.6888687 c -9.2751821,0 -16.7942035,7.5190206 -16.7942035,16.7942033 l 0,69.0625 c 0,9.275183 7.5190209,16.794208 16.7942035,16.794208 l 69.062502,0 c 9.275183,0 16.794209,-7.519025 16.794209,-16.794208 l 0,-69.0625 c 0,-9.2751825 -7.519027,-16.7942033 -16.794209,-16.7942033 z"
     id="path14359-1-7-5-3-0-73-1-9"
     inkscape:connector-curvature="0"
     sodipodi:nodetypes="sscsssssscssssssssssssssssss" />
  <path
     style="fill:none;fill-rule:evenodd;stroke:#000000;stroke-width:1px;stroke-linecap:butt;stroke-linejoin:miter;stroke-opacity:1"
     d="m 70.94401,9.9609375 c -3.105213,0 -6.062916,0.4145245 -9.06228,0.3301105 -2.985795,-0.08403 -5.73472,0.773885 -8.708133,0.887302 -4.401349,0.167883 -5.993672,2.28419 -9.430203,4.356006 -1.678492,1.011928 -7.832661,0.511889 -6.959,3.891064 0.809606,3.131419 5.971823,1.380479 8.94619,2.03819 2.588115,0.5723 5.45758,-1.025163 7.622643,1.34138 1.960219,2.142637 4.696095,1.770964 7.726787,1.565302 3.239335,-0.219821 6.712894,0.342454 7.911645,3.629584 0.836368,2.293429 -1.100084,7.149246 2.600905,6.532621 2.805536,-0.467432 4.047726,-3.327016 5.74189,-5.342588 1.818247,-2.163195 3.61593,-4.988438 6.644646,-4.982547 3.667804,0.0071 7.387855,-0.57597 10.466784,-2.838424 2.283226,-1.677757 3.17897,-5.131692 -0.0028,-6.160274 C 92.380446,14.541868 90.095198,14.924276 88.28594,13.358922 86.844969,12.112206 85.187821,11.134953 83.279177,10.552185 80.43917,9.6850428 77.574015,10.359211 74.723973,10.264844 73.46113,10.22303 72.229202,9.9609375 70.944035,9.9609375 Z"
     id="path27128"
     inkscape:connector-curvature="0"
     sodipodi:nodetypes="sssssssssssssssssss" />
</svg>
