<?xml version="1.0" encoding="UTF-8" standalone="no"?>
<!-- Created with Inkscape (http://www.inkscape.org/) -->

<svg
   xmlns:dc="http://purl.org/dc/elements/1.1/"
   xmlns:cc="http://creativecommons.org/ns#"
   xmlns:rdf="http://www.w3.org/1999/02/22-rdf-syntax-ns#"
   xmlns:svg="http://www.w3.org/2000/svg"
   xmlns="http://www.w3.org/2000/svg"
   xmlns:sodipodi="http://sodipodi.sourceforge.net/DTD/sodipodi-0.dtd"
   xmlns:inkscape="http://www.inkscape.org/namespaces/inkscape"
   id="svg10973"
   version="1.1"
   inkscape:version="0.48.2 r9819"
   width="40.875"
   height="40.5625"
   viewBox="0 0 40.875 40.5625"
   sodipodi:docname="ec26oc91.000_g.svg">
  <title id="title_ec26oc91.000_g">Area where public camping permitted</title>
  <desc id="desc_ec26oc91.000_g">Accommodations or services symbols</desc>
  <metadata
     id="metadata10979">
    <rdf:RDF>
      <cc:Work
         rdf:about="">
        <dc:format>image/svg+xml</dc:format>
        <dc:type
           rdf:resource="http://purl.org/dc/dcmitype/StillImage" />
        <dc:title></dc:title>
      </cc:Work>
    </rdf:RDF>
  </metadata>
  <defs
     id="defs10977" />
  <sodipodi:namedview
     pagecolor="#ffffff"
     bordercolor="#666666"
     borderopacity="1"
     objecttolerance="10"
     gridtolerance="10"
     guidetolerance="10"
     inkscape:pageopacity="0"
     inkscape:pageshadow="2"
     inkscape:window-width="1280"
     inkscape:window-height="676"
     id="namedview10975"
     showgrid="false"
     inkscape:zoom="9.5717092"
     inkscape:cx="17.225581"
     inkscape:cy="17.90103"
     inkscape:window-x="0"
     inkscape:window-y="0"
     inkscape:window-maximized="0"
     inkscape:current-layer="svg10973"
     fit-margin-top="0"
     fit-margin-left="0"
     fit-margin-right="0"
     fit-margin-bottom="0" />
  <path
     style="fill:#000000;fill-opacity:1;stroke:#000000;stroke-width:1;stroke-linecap:butt;stroke-linejoin:round;stroke-miterlimit:4;stroke-opacity:1;stroke-dasharray:none"
     d="m 32.101838,30.97957 -26.6697513,0 c -1.3309741,0 -1.362274,-3.30709 0.002,-3.30709 l 3.7666073,0 11.228948,-19.20741 11.598322,19.20741 3.399234,0 c 1.397674,0 1.535572,3.30709 -0.002,3.30709 l -3.397234,0 0.07783,9.07675 c 4.562742,0 8.261575,-3.69883 8.261575,-8.26157 l 0,-23.03674 c 0,-4.56274 -3.698833,-8.26157 -8.261575,-8.26157 l -23.352302,0 c -4.5627414,0 -8.2615734,3.69883 -8.2615734,8.26157 l 0,23.03674 c 0,4.56274 3.698832,8.26157 8.2615734,8.26157 l 23.348348,0 z m -15.292054,-3.30709 7.165842,0 -3.545984,-6.20547 z"
     id="path14359-1-7-5-3-0-73-1-9-5"
     inkscape:connector-curvature="0"
     sodipodi:nodetypes="csscccssccssssssscccccc" />
</svg>
