<?xml version="1.0" encoding="UTF-8" standalone="no"?>
<!-- Created with Inkscape (http://www.inkscape.org/) -->

<svg
   xmlns:dc="http://purl.org/dc/elements/1.1/"
   xmlns:cc="http://creativecommons.org/ns#"
   xmlns:rdf="http://www.w3.org/1999/02/22-rdf-syntax-ns#"
   xmlns:svg="http://www.w3.org/2000/svg"
   xmlns="http://www.w3.org/2000/svg"
   xmlns:sodipodi="http://sodipodi.sourceforge.net/DTD/sodipodi-0.dtd"
   xmlns:inkscape="http://www.inkscape.org/namespaces/inkscape"
   id="svg10973"
   version="1.1"
   inkscape:version="0.48.2 r9819"
   width="38.09375"
   height="38.5625"
   viewBox="0 0 38.09375 38.5625"
   sodipodi:docname="ec26oc91.000_n.svg">
  <title id="title_ec26oc91.000_n">Area where picnicking permitted</title>
  <desc id="desc_ec26oc91.000_n">accommodations or services symbols</desc>
  <metadata
     id="metadata10979">
    <rdf:RDF>
      <cc:Work
         rdf:about="">
        <dc:format>image/svg+xml</dc:format>
        <dc:type
           rdf:resource="http://purl.org/dc/dcmitype/StillImage" />
        <dc:title></dc:title>
      </cc:Work>
    </rdf:RDF>
  </metadata>
  <defs
     id="defs10977" />
  <sodipodi:namedview
     pagecolor="#ffffff"
     bordercolor="#666666"
     borderopacity="1"
     objecttolerance="10"
     gridtolerance="10"
     guidetolerance="10"
     inkscape:pageopacity="0"
     inkscape:pageshadow="2"
     inkscape:window-width="1280"
     inkscape:window-height="676"
     id="namedview10975"
     showgrid="false"
     inkscape:zoom="7.6784215"
     inkscape:cx="34.727617"
     inkscape:cy="12.34375"
     inkscape:window-x="7"
     inkscape:window-y="0"
     inkscape:window-maximized="0"
     inkscape:current-layer="svg10973"
     fit-margin-top="0"
     fit-margin-left="0"
     fit-margin-right="0"
     fit-margin-bottom="0" />
  <path
     style="fill:#000000;fill-opacity:1;stroke:#000000;stroke-width:1;stroke-linecap:butt;stroke-linejoin:round;stroke-miterlimit:4;stroke-opacity:1;stroke-dasharray:none"
     d="m 7.41786,15.31103 c -1.32658,0 -1.69931,2.81106 -0.34767,2.81068 l 3.89238,-0.001 -4.06213,-10e-4 c -1.32658,-3.4e-4 -1.35364,2.11934 -0.002,2.11934 l 5.10187,0 -2.59235,7.56248 c -0.45752,1.33299 3.70883,1.32379 4.14788,-9.2e-4 l 2.50611,-7.56156 6.43812,0 1.9444,7.56156 c 0.36754,1.42929 4.7806,1.45163 4.40732,0 l -2.20365,-7.56156 5.26093,0 c 1.38264,0 1.27875,-2.11934 0.002,-2.11934 l -0.13063,0 -10e-4,-0.0412 c 1.38264,0 0.97629,-2.81068 -0.30046,-2.81068 l -3.23336,0 c -1.32658,0 -1.69931,2.81068 -0.34767,2.81068 l 3.87943,0 8e-5,0.0412 -5.69109,0 -1.77156,-5.96282 -3.80238,0 1.51232,5.96282 -5.48754,0 1.59873,-5.96282 -3.76146,0 0.0324,-0.11261 12.55894,0 c 1.38264,0 1.27875,-2.81068 0.002,-2.81068 l -15.33184,0 c -1.32658,0 -1.35364,2.81068 -0.002,2.81068 l 2.75672,0 -0.0139,0.11261 -1.94439,5.96282 -1.4672,10e-4 c 1.36911,0.001 1.22661,-2.80964 -0.31399,-2.80966 z M 0.51219,8.77122 c 0,-4.56274 3.69883,-8.26157 8.26158,-8.26157 l 20.55164,0 c 4.56274,0 8.26157,3.69883 8.26157,8.26157 l 0,21.04277 c 0,4.56274 -3.69883,8.26157 -8.26157,8.26157 l -20.54764,0 c -4.56675,0 -8.26558,-3.69883 -8.26558,-8.26157 z"
     id="path14359-1-7-5-3-0-73-1-9-7-3"
     inkscape:connector-curvature="0"
     sodipodi:nodetypes="sscssccsccsscssccsssccccccccccssssccccsssssssssss" />
</svg>
