<?xml version="1.0" encoding="UTF-8" standalone="no"?>
<!-- Created with Inkscape (http://www.inkscape.org/) -->

<svg
   xmlns:dc="http://purl.org/dc/elements/1.1/"
   xmlns:cc="http://creativecommons.org/ns#"
   xmlns:rdf="http://www.w3.org/1999/02/22-rdf-syntax-ns#"
   xmlns:svg="http://www.w3.org/2000/svg"
   xmlns="http://www.w3.org/2000/svg"
   xmlns:sodipodi="http://sodipodi.sourceforge.net/DTD/sodipodi-0.dtd"
   xmlns:inkscape="http://www.inkscape.org/namespaces/inkscape"
   id="svg10973"
   version="1.1"
   inkscape:version="0.48.2 r9819"
   width="40.875"
   height="41"
   viewBox="0 0 40.875 41"
   sodipodi:docname="ec26oc91.000_c.svg">
  <title id="title_ec26oc91.000_c"></title>
  <desc id="desc_ec26oc91.000_c"></desc>
  <metadata
     id="metadata10979">
    <rdf:RDF>
      <cc:Work
         rdf:about="">
        <dc:format>image/svg+xml</dc:format>
        <dc:type
           rdf:resource="http://purl.org/dc/dcmitype/StillImage" />
        <dc:title></dc:title>
      </cc:Work>
    </rdf:RDF>
  </metadata>
  <defs
     id="defs10977" />
  <sodipodi:namedview
     pagecolor="#ffffff"
     bordercolor="#666666"
     borderopacity="1"
     objecttolerance="10"
     gridtolerance="10"
     guidetolerance="10"
     inkscape:pageopacity="0"
     inkscape:pageshadow="2"
     inkscape:window-width="1280"
     inkscape:window-height="676"
     id="namedview10975"
     showgrid="false"
     inkscape:zoom="4.9901173"
     inkscape:cx="10.7061"
     inkscape:cy="22.71573"
     inkscape:window-x="0"
     inkscape:window-y="0"
     inkscape:window-maximized="0"
     inkscape:current-layer="svg10973"
     fit-margin-top="0"
     fit-margin-left="0"
     fit-margin-right="0"
     fit-margin-bottom="0" />
  <path
     style="fill:#000000;fill-opacity:1;stroke:#000000;stroke-width:1;stroke-linecap:butt;stroke-linejoin:round;stroke-miterlimit:4;stroke-opacity:1;stroke-dasharray:none"
     d="m 26.219245,13.01005 c 0,2.13111 -1.265031,3.46472 -2.413988,3.46472 l -4.335306,0 c -0.624863,0 -0.789559,-0.23837 -0.78942,-0.61947 l 0.002,-5.46148 c 1.79e-4,-0.48704 0.256685,-0.90105 0.78742,-0.90105 l 4.336806,0 c 1.243793,0 2.412488,1.0871 2.412488,3.51728 z m 5.90546,-12.50234 c 4.562742,0 8.261576,3.69883 8.261576,8.26157 l 0,23.48205 c 0,4.56274 -3.698834,8.26157 -8.261576,8.26157 l -23.352302,0 c -4.5627405,0 -8.2615725,-3.69883 -8.2615725,-8.26157 l 0,-23.48205 c 0,-4.56274 3.698832,-8.26157 8.2615725,-8.26157 z m -25.7199893,3.80402 0,4.92705 3.3226243,0 c 0.801168,0 1.238945,0.86173 1.238945,1.57684 l 0,17.99343 c 0,0.72854 -0.716369,1.32669 -1.576839,1.40789 l -2.9837296,0.28158 -0.002,4.44779 17.1199626,0 0.002,-4.33516 -3.492572,-0.39421 c -0.594691,-0.0671 -1.351576,-0.47356 -1.351576,-1.40789 l 0,-6.11083 c -0.119946,-0.86022 0.405625,-1.1825 1.182629,-1.29526 l 6.36367,0 c 4.381039,0 8.4627,-3.53797 8.48103,-8.16989 0.02036,-5.1452 -4.00387,-8.92134 -8.649977,-8.92134 z"
     id="path14359-1-7-5-3-0-73-1-9"
     inkscape:connector-curvature="0"
     sodipodi:nodetypes="sssssssssssssssssccssssccccssccsssc" />
</svg>
