<?xml version="1.0" encoding="UTF-8" standalone="no"?>
<!-- Created with Inkscape (http://www.inkscape.org/) -->

<svg
   xmlns:dc="http://purl.org/dc/elements/1.1/"
   xmlns:cc="http://creativecommons.org/ns#"
   xmlns:rdf="http://www.w3.org/1999/02/22-rdf-syntax-ns#"
   xmlns:svg="http://www.w3.org/2000/svg"
   xmlns="http://www.w3.org/2000/svg"
   xmlns:sodipodi="http://sodipodi.sourceforge.net/DTD/sodipodi-0.dtd"
   xmlns:inkscape="http://www.inkscape.org/namespaces/inkscape"
   id="svg10973"
   version="1.1"
   inkscape:version="0.48.2 r9819"
   width="38.969727"
   height="39.90625"
   viewBox="0 0 38.969727 39.90625"
   sodipodi:docname="ec26oc91.000_l.svg">
  <title id="title_ec26oc91.000_l"></title>
  <desc id="desc_ec26oc91.000_l"></desc>
  <metadata
     id="metadata10979">
    <rdf:RDF>
      <cc:Work
         rdf:about="">
        <dc:format>image/svg+xml</dc:format>
        <dc:type
           rdf:resource="http://purl.org/dc/dcmitype/StillImage" />
        <dc:title></dc:title>
      </cc:Work>
    </rdf:RDF>
  </metadata>
  <defs
     id="defs10977" />
  <sodipodi:namedview
     pagecolor="#ffffff"
     bordercolor="#666666"
     borderopacity="1"
     objecttolerance="10"
     gridtolerance="10"
     guidetolerance="10"
     inkscape:pageopacity="0"
     inkscape:pageshadow="2"
     inkscape:window-width="1280"
     inkscape:window-height="676"
     id="namedview10975"
     showgrid="false"
     inkscape:zoom="6.7740741"
     inkscape:cx="28.739885"
     inkscape:cy="14.31351"
     inkscape:window-x="7"
     inkscape:window-y="0"
     inkscape:window-maximized="0"
     inkscape:current-layer="svg10973"
     fit-margin-top="0"
     fit-margin-left="0"
     fit-margin-right="0"
     fit-margin-bottom="0" />
  <path
     style="fill:none;stroke:#000000;stroke-width:1;stroke-linecap:round;stroke-linejoin:miter;stroke-miterlimit:4;stroke-opacity:1;stroke-dasharray:none"
     d="m 25.286047,27.48339 c -1.26705,0.18723 -1.38402,2.22392 -0.53001,2.75448"
     id="path14359-1-7-5-3-0-73-1-9"
     inkscape:connector-curvature="0"
     sodipodi:nodetypes="cc" />
  <path
     style="fill:#000000;fill-opacity:1;stroke:#000000;stroke-width:1;stroke-linecap:butt;stroke-linejoin:round;stroke-miterlimit:4;stroke-opacity:1;stroke-dasharray:none"
     d="m 20.319717,29.45595 -5.9237,2.36596 c -1.63414,0.65268 -3.11524,-2.56157 -1.493,-3.1863 l 1.32348,-0.50413 z m -7.81966,-8.7047 c -0.004,-1.4151 1.06526,-3.45792 1.90169,-4.16725 0.77956,-0.66109 1.37139,0.0255 1.26171,0.48902 -0.0974,0.41159 -0.14431,1.27769 -0.14231,1.67782 0.10824,-4.46296 3.20648,-5.45404 3.40677,-7.93964 0.11963,-1.48458 0.70903,-3.15742 2.17202,-2.94168 0.61229,0.0903 -0.88829,0.4716 1.01925,3.01871 1.3075,1.74589 1.39426,3.57839 1.3453,4.80524 -0.0588,1.47239 -0.39105,2.6322 -0.75112,3.43643 l 0.0635,0.0358 c 0.30326,-0.44386 0.59058,-1.15522 0.81521,-1.70159 0.37184,-0.90445 0.43179,-1.13439 0.27665,-2.67262 -0.10727,-1.06368 -0.29763,-2.22465 0.58026,-1.52248 l 5e-5,0 c 1.83445,1.46727 2.10617,4.68421 2.15203,5.84161 0.1171,2.9555 -1.85887,4.4145 -3.79569,5.31173 l 0.18927,0.30436 1.83622,-0.68453 c 1.63168,-0.60827 2.8989,2.53343 1.14706,3.22271 l -0.43313,0.17042 -6.17029,-1.35905 3.34677,-1.24764 -0.13117,-0.30589 c -0.82105,0.38505 -1.57346,0.7567 -2.24404,0.90787 -0.64923,0.14635 -0.52954,-1.61226 0.56027,-3.29605 0.74811,-1.15586 1.35269,-2.07542 1.85391,-2.96827 l -0.0424,-0.0426 c -0.53816,1.11929 -1.29034,1.90642 -2.01461,3.25625 -0.84137,1.56808 -0.48795,2.78738 -2.03171,2.81148 -1.34198,0.021 -3.13949,-4.28008 -3.15389,-6.44799 0.0278,1.06323 0.26384,2.02898 0.46891,2.6891 0.4601,1.48108 2.04903,3.68944 1.48888,3.69054 -0.96062,0.002 -1.81011,-0.21925 -2.52303,-0.59038 l 0.0294,0.57415 c 3.44278,0.91094 7.02035,1.64216 10.59557,2.37651 1.7194,0.35317 1.49332,3.37596 -0.43898,2.95477 -3.88425,-0.84667 -7.76849,-1.69498 -11.65274,-2.49442 -1.51186,-0.31117 -0.39571,-3.34262 1.25831,-2.90014 l 0.0304,-0.60824 c -1.35602,-0.77864 -2.17576,-2.11326 -2.26599,-3.44849 l -12.02298958,-0.21939 0,10.36593 c 0,4.56274 3.69882998,8.26157 8.26557998,8.26157 l 21.4513096,0 c 4.56274,0 8.26157,-3.69883 8.26157,-8.26157 l 0,-22.38494 c 0,-4.56274 -3.69883,-8.26157 -8.26157,-8.26157 l -21.4553096,0 c -4.56275,0 -8.26157998,3.69883 -8.26157998,8.26157 l 0,11.81873 z"
     id="path14359-1-7-5-3-0-73-1-9-23"
     inkscape:connector-curvature="0"
     sodipodi:nodetypes="csscccsscssssccssscsccssccccssccsscssccsssccccsssssssscc" />
</svg>
