<?xml version="1.0" encoding="UTF-8" standalone="no"?>
<!-- Created with Inkscape (http://www.inkscape.org/) -->

<svg
   xmlns:dc="http://purl.org/dc/elements/1.1/"
   xmlns:cc="http://creativecommons.org/ns#"
   xmlns:rdf="http://www.w3.org/1999/02/22-rdf-syntax-ns#"
   xmlns:svg="http://www.w3.org/2000/svg"
   xmlns="http://www.w3.org/2000/svg"
   xmlns:sodipodi="http://sodipodi.sourceforge.net/DTD/sodipodi-0.dtd"
   xmlns:inkscape="http://www.inkscape.org/namespaces/inkscape"
   id="svg10973"
   version="1.1"
   inkscape:version="0.48.2 r9819"
   width="40.875"
   height="41"
   viewBox="0 0 40.875 41"
   sodipodi:docname="ec26oc91.000_f.svg">
  <metadata
     id="metadata10979">
    <rdf:RDF>
      <cc:Work
         rdf:about="">
        <dc:format>image/svg+xml</dc:format>
        <dc:type
           rdf:resource="http://purl.org/dc/dcmitype/StillImage" />
        <dc:title></dc:title>
      </cc:Work>
    </rdf:RDF>
  </metadata>
  <defs
     id="defs10977" />
  <sodipodi:namedview
     pagecolor="#ffffff"
     bordercolor="#666666"
     borderopacity="1"
     objecttolerance="10"
     gridtolerance="10"
     guidetolerance="10"
     inkscape:pageopacity="0"
     inkscape:pageshadow="2"
     inkscape:window-width="1280"
     inkscape:window-height="676"
     id="namedview10975"
     showgrid="false"
     inkscape:zoom="2.0666667"
     inkscape:cx="64.66734"
     inkscape:cy="88.90625"
     inkscape:window-x="7"
     inkscape:window-y="0"
     inkscape:window-maximized="0"
     inkscape:current-layer="svg10973"
     fit-margin-top="0"
     fit-margin-left="0"
     fit-margin-right="0"
     fit-margin-bottom="0" />
  <path
     style="fill:#000000;fill-opacity:1;stroke:#000000;stroke-width:1;stroke-linecap:butt;stroke-linejoin:round;stroke-miterlimit:4;stroke-opacity:1;stroke-dasharray:none"
     d="m 14.123284,33.29988 -7.067594,0 0.04898,-15.07937 -2.7507547,1.18566 C 3.129226,19.93405 2.859265,16.06329 4.3069403,15.51954 L 34.61167,4.13711 c 0.689875,-0.25912 1.659938,0.15449 1.659938,1.13588 l 0,1.37538 c 0,0.66129 -0.409952,1.05175 -0.798194,1.19441 L 12.00711,16.46563 c -0.565462,0.20778 -0.635854,0.51126 -0.634581,0.85377 l 0.04743,12.76017 3.27245,0 c -1.362294,-0.11633 -2.367905,-0.75282 -2.405768,-1.93525 -0.04484,-1.40019 0.922049,-2.3289 2.723567,-2.31667 2.083327,0.0141 2.637399,1.17464 2.223163,2.44924 0.210362,-1.46865 4.774133,-1.5409 7.371241,-1.5172 3.54369,0.0324 8.404896,0.36781 8.555221,2.22954 0.04613,0.57135 -0.405398,0.90288 -0.872079,1.09034 l 0.807256,0 c 0.612803,0 1.20857,0.85014 1.232038,1.70504 0.02302,0.83854 -0.712569,1.51527 -1.281465,1.51527 l -14.321895,0 c 1.597888,2.84338 4.548001,7.20244 7.87285,7.20244 l 5.504465,0 c 4.562742,0 8.261576,-3.69883 8.261576,-8.26157 l 0,-23.48205 c 0,-4.56274 -3.698834,-8.26157 -8.261576,-8.26157 l -23.352302,0 c -4.5627416,0 -8.2615736,3.69883 -8.2615736,8.26157 l 0,23.48205 c 0,4.56274 3.698832,8.26157 8.2615736,8.26157 l 6.038562,0 c 1.379833,0 2.167017,-0.80358 1.482594,-2.35057 z"
     id="path14359-1-7-5-3-0-73-1-9"
     inkscape:connector-curvature="0"
     sodipodi:nodetypes="cccssssssssccsscsscssscsssssssssssc" />
  <path
     style="fill:none;stroke:#000000;stroke-width:1;stroke-linecap:round;stroke-linejoin:round;stroke-miterlimit:4;stroke-opacity:1;stroke-dasharray:none"
     d="m 15.92786,30.17107 c 0.386028,-0.14225 0.811066,-0.37935 0.946167,-0.5216 l 0.426854,0.52179 z m 3.317513,4.5e-4 11.522363,0.002"
     id="path14359-1-7-5-3-0-73-1-9-1"
     inkscape:connector-curvature="0"
     sodipodi:nodetypes="cccccc" />
</svg>
