<?xml version="1.0" encoding="UTF-8" standalone="no"?>
<!-- Created with Inkscape (http://www.inkscape.org/) -->

<svg
   xmlns:dc="http://purl.org/dc/elements/1.1/"
   xmlns:cc="http://creativecommons.org/ns#"
   xmlns:rdf="http://www.w3.org/1999/02/22-rdf-syntax-ns#"
   xmlns:svg="http://www.w3.org/2000/svg"
   xmlns="http://www.w3.org/2000/svg"
   xmlns:xlink="http://www.w3.org/1999/xlink"
   xmlns:sodipodi="http://sodipodi.sourceforge.net/DTD/sodipodi-0.dtd"
   xmlns:inkscape="http://www.inkscape.org/namespaces/inkscape"
   id="svg12340"
   version="1.1"
   inkscape:version="0.48.2 r9819"
   width="184"
   height="606"
   viewBox="0 0 184 606"
   sodipodi:docname="er01ja93.366.svg">
  <title id="title_er01ja93.366"></title>
  <desc id="desc_er01ja93.366"></desc>
  <metadata
     id="metadata12346">
    <rdf:RDF>
      <cc:Work
         rdf:about="">
        <dc:format>image/svg+xml</dc:format>
        <dc:type
           rdf:resource="http://purl.org/dc/dcmitype/StillImage" />
        <dc:title></dc:title>
      </cc:Work>
    </rdf:RDF>
  </metadata>
  <defs
     id="defs12344">
    <linearGradient
       gradientTransform="matrix(1.8110217,0,0,0.8640601,-4392.5519,-482.14427)"
       y2="874.07281"
       x2="2449.8774"
       y1="840.14343"
       x1="2461.5833"
       gradientUnits="userSpaceOnUse"
       id="linearGradient5467"
       xlink:href="#linearGradient5444"
       inkscape:collect="always" />
    <linearGradient
       inkscape:collect="always"
       id="linearGradient5444">
      <stop
         style="stop-color:#666666;stop-opacity:1;"
         offset="0"
         id="stop5446" />
      <stop
         style="stop-color:#666666;stop-opacity:0;"
         offset="1"
         id="stop5448" />
    </linearGradient>
    <linearGradient
       gradientTransform="matrix(-0.77644161,1.6361351,-0.78061961,-0.37044957,2634.6971,-3273.8591)"
       y2="874.07281"
       x2="2449.8774"
       y1="840.14343"
       x1="2461.5833"
       gradientUnits="userSpaceOnUse"
       id="linearGradient5467-2"
       xlink:href="#linearGradient5444"
       inkscape:collect="always" />
  </defs>
  <sodipodi:namedview
     pagecolor="#ffffff"
     bordercolor="#666666"
     borderopacity="1"
     objecttolerance="10"
     gridtolerance="10"
     guidetolerance="10"
     inkscape:pageopacity="0"
     inkscape:pageshadow="2"
     inkscape:window-width="1280"
     inkscape:window-height="756"
     id="namedview12342"
     showgrid="false"
     fit-margin-top="0"
     fit-margin-left="0"
     fit-margin-right="0"
     fit-margin-bottom="0"
     inkscape:zoom="1.1995123"
     inkscape:cx="-147.55997"
     inkscape:cy="293.76253"
     inkscape:window-x="0"
     inkscape:window-y="0"
     inkscape:window-maximized="0"
     inkscape:current-layer="svg12340" />
  <path
     style="fill:url(#linearGradient5467-2);fill-opacity:1;stroke:none"
     d="M 87.65816,405.59459 68.993707,444.8613 29.179917,425.96733 c 14.140491,-2.15042 28.452495,-34.03488 41.802764,-27.52985 z"
     id="path6035-1-8-8"
     inkscape:connector-curvature="0"
     sodipodi:nodetypes="ccccc" />
  <path
     style="fill:url(#linearGradient5467);fill-opacity:1;stroke:none"
     d="m 23.579771,241.43565 43.476837,0.0272 0,44.06949 C 59.051377,273.67932 24.109932,274.41926 24.263105,259.56929 Z"
     id="path6035-1-8"
     inkscape:connector-curvature="0"
     sodipodi:nodetypes="ccccc" />
  <path
     style="fill:#000000;fill-opacity:1;stroke:#000000;stroke-width:1;stroke-linecap:butt;stroke-linejoin:round;stroke-miterlimit:4;stroke-dasharray:none;stroke-opacity:1"
     d="m 66.594929,140.78344 c -2.244738,-2.11632 -0.690846,-3.62732 0.05026,-5.77349 1.619825,0.48958 3.26354,0.95727 3.316843,2.88283 -1.300714,2.00065 -0.719538,1.96027 -3.036907,2.7754 z m 6.456673,-1.35262 c 1.459222,-4.29932 7.382705,-5.49786 8.08687,-8.0737 1.347412,1.34522 1.711875,3.23652 1.865783,5.24479 -0.276472,2.59574 -7.936669,4.66514 -9.630357,3.36483 z m 12.39238,-1.53371 c -0.200038,-2.55067 3.820021,-2.08892 3.973119,-3.42221 1.255553,0.64686 1.044744,2.14833 1.24121,3.32473 -0.297888,1.29203 -1.538364,2.67594 -2.937654,2.7409 -1.278464,-0.0788 -2.222908,-1.37684 -2.276675,-2.64342 z m 7.789721,0.46917 c 0.341909,-1.69262 1.362088,-2.05968 2.706663,-2.91168 1.071631,0.94854 0.750846,2.11966 0.643541,3.83538 -0.03353,0.53609 -0.650589,0.87745 -1.580489,0.94358 -1.146947,-0.0749 -2.017738,-0.63945 -1.769715,-1.86728 z m 6.619648,0.84276 c -0.0046,-3.21681 4.617449,-5.1833 5.059919,-8.43599 2.96975,1.47339 3.28956,5.65515 3.36389,8.0212 0.0283,0.90051 -1.82252,1.64706 -4.10586,1.93685 -2.34464,0.18842 -4.316065,-0.20847 -4.317949,-1.52206 z m 10.279639,0.15186 c -0.10348,-4.14648 3.94525,-5.21921 3.9603,-8.21722 3.59241,2.16798 2.73724,5.77811 2.72196,8.27499 -0.004,0.71029 -1.48658,1.14204 -3.36358,1.21167 -1.85131,-0.0275 -3.29759,-0.42415 -3.31868,-1.26944 z m 9.70436,-0.0232 c 0.75362,-3.59553 2.39816,-3.61139 3.26581,-5.13923 1.58708,1.3775 1.22375,3.08266 1.27846,4.71296 0.0243,0.7252 -1.19462,1.43375 -2.6387,1.71386 -1.28129,0.12338 -2.13089,-0.21257 -1.90557,-1.28759 z m 12.84183,-0.71902 c 0.68002,-1.46723 1.2598,-3.11491 2.58228,-3.42571 0.91029,0.86881 1.47865,1.94277 1.05695,3.61077 -0.45805,0.94244 -1.07899,1.37529 -1.95082,1.46882 -1.08294,-0.14046 -1.7333,-0.85746 -1.68841,-1.65388 z m 6.14266,1.31835 c 0.87763,0.12699 1.81381,-0.20228 2.30494,-0.96427 1.07877,0.31702 0.82964,1.62997 0.90291,2.70111 l -0.93238,-0.50482 z m 3.36094,3.21163 c -0.11809,-1.7262 0.2834,-3.84209 -1.45509,-4.353 -0.79149,1.228 -2.16976,1.10636 -3.5841,0.90172 0.84466,-3.18329 -0.23636,-4.41883 -1.70334,-5.81896 -2.13126,0.50087 -3.0656,3.1562 -4.1615,5.52073 -0.50388,-2.41382 -0.11884,-5.49434 -2.18635,-6.73543 -0.46483,2.70622 -3.78246,2.73719 -3.99496,7.59858 -0.12119,-2.62601 0.49736,-5.3753 -2.06031,-7.59522 -0.746,2.59266 -3.99455,2.49935 -5.26304,8.28218 -0.0381,-4.02376 0.48959,-8.1459 -4.38661,-11.1179 0.1062,5.22284 -4.62879,5.25778 -4.29496,10.76389 -0.13271,-3.81261 0.14755,-8.59535 -4.63837,-10.96981 -0.71307,5.24191 -5.773699,5.15056 -5.675709,10.3337 -0.296872,-2.75445 -0.223295,-5.82642 -1.950292,-7.35505 -0.21003,2.80807 -3.621686,2.00975 -4.361945,4.69234 -0.316616,-1.89584 -0.890073,-3.66326 -2.91347,-4.70571 -0.246727,2.14866 -4.246638,2.31771 -5.489728,4.8628 -0.248031,-3.23645 -0.835385,-6.28438 -3.006818,-8.45228 -1.134804,4.15112 -6.89764,4.64762 -8.98835,9.09758 -0.0859,-3.10315 -2.734845,-3.85685 -5.345288,-4.64585 -1.194332,3.45869 -4.481252,2.241 -7.125583,9.69569 z m -15.8359,-3.02298 c 0.21176,-2.52758 2.19051,-3.03579 2.47894,-4.71505 1.28293,0.77012 1.08558,2.67355 1.35667,4.17945 0.10962,0.60896 -0.86078,1.00545 -2.07866,1.13676 -1.0615,0.04 -1.79464,-0.15131 -1.75695,-0.60116 z"
     id="path14359-1-7-5-3-0-73-1-9-04-6"
     inkscape:connector-curvature="0"
     sodipodi:nodetypes="cccccccccccccccscscsscscsscscsscscsccccccccccccccccccccccccccccccccscscs" />
  <path
     style="fill:#000000;fill-opacity:1;stroke:#000000;stroke-width:1;stroke-linecap:butt;stroke-linejoin:round;stroke-miterlimit:4;stroke-dasharray:none;stroke-opacity:1"
     d="m 108.04826,207.51218 c 1.88907,2.92629 3.8397,6.07765 3.66339,11.81698 -0.28957,9.4261 -2.65758,10.45916 -2.88669,23.30755 -0.10423,5.84517 3.41268,10.66054 3.72654,14.33858 0.35848,4.20082 2.22895,4.39462 3.76114,4.18987 2.48051,-0.33148 4.01088,-4.14514 4.1395,-6.80863 0.26899,-5.57055 -3.23957,-5.44079 -3.32027,-11.79786 -0.15851,-12.48719 11.50016,-19.17448 -6.57565,-39.20951 -1.44794,-1.60488 -4.76839,0.66147 -2.50796,4.16302 z m 0.0551,-13.54063 c -1.11252,5.67511 14.68654,12.95194 15.08593,28.96543 0.16042,6.43216 -2.10413,7.88524 -2.39318,19.48284 -0.17302,6.94176 2.24653,7.7517 2.01145,11.56675 -0.13717,2.22603 -1.27532,4.17376 -1.70774,6.35544 -0.69681,3.51564 0.88143,4.68343 1.63731,4.44434 2.11895,-0.67022 2.01285,-3.68125 5.02439,-4.37153 1.61407,-0.36997 0.67869,0.92823 1.05801,1.83161 0.53032,1.26299 1.45218,2.56602 3.43324,2.68438 3.07509,0.18372 4.53471,-1.90993 7.19402,-4.51599 1.54211,1.34646 2.9078,0.75226 4.25912,0 l -1.09408,9.07253 c 0.19735,-1.50084 -1.12465,-5.70822 -3.89509,-4.87797 -3.82888,1.45662 -6.57404,2.87509 -10.95722,-0.29122 -2.56176,0.35129 -5.90041,3.71421 -8.19061,1.16489 -3.0723,-1.92286 -5.41166,-0.47218 -7.91759,0.43683 -3.03245,-1.95809 -8.56642,-2.16066 -11.19383,1.3105 l 0.002,-6.81556 c 2.80088,1.51851 6.19732,3.03747 10.53858,0 0.10262,-2.80143 -4.88596,-7.48931 -5.0634,-16.34998 -0.31369,-15.66438 4.04922,-16.59313 3.74903,-24.59003 -0.23837,-6.3503 -0.25986,-11.32031 -5.00207,-10.19681 z"
     id="path14359-1-7-5-3-0-73-1-9-5"
     inkscape:connector-curvature="0"
     sodipodi:nodetypes="ssssssssscssssssssccccccccccsscc" />
  <path
     style="fill:#000000;fill-opacity:1;stroke:#000000;stroke-width:1;stroke-linecap:butt;stroke-linejoin:round;stroke-miterlimit:4;stroke-dasharray:none;stroke-opacity:1"
     d="m 103.35972,451.31213 c -12.999363,9.94205 -4.735432,28.51201 -10.6156,37.3791 1.57218,-6.95844 2.092328,-14.76804 0.517769,-20.09493 -2.994175,-10.12959 -10.57231,-15.64328 -11.221337,-12.46198 -0.484765,2.37615 7.315302,13.55947 6.427592,30.74051 -0.162215,3.13957 3.677369,4.28423 4.262702,1.74989 -0.547366,1.79538 2.229847,3.45548 3.764233,2.28469 7.238751,-5.52343 4.000271,-17.02804 4.760881,-28.20814 0.20439,-3.00428 1.09207,-5.72986 2.51233,-8.32589 2.17615,-3.97767 0.17244,-3.50761 -0.40857,-3.06325 z m 0.0796,27.29496 c -0.75843,6.99787 -3.979454,10.82073 -1.15115,13.74297 l -17.340975,0.56145 c 4.759854,-15.17791 -5.770238,-38.21748 -9.454325,-43.59414 -1.454436,-2.12264 -3.381098,-2.36803 -5.27438,-2.74111 l 4.745225,-11.47 c -1.854323,8.79745 8.540918,16.95609 14.734805,21.53249 2.061463,1.52313 0.817995,4.5028 3.613104,4.51078 3.458672,0.01 2.507933,-3.99912 5.651146,-7.95253 3.88094,-4.8813 9.94395,-9.48026 13.95808,-13.6938 4.20413,4.45241 7.92674,4.66509 11.00218,-0.82068 3.73643,5.14344 7.38583,5.76083 10.89693,-0.81283 3.23631,6.57626 9.55344,5.18322 11.7522,-0.2655 4.00773,5.78781 7.46988,6.53379 10.57782,-1.40016 1.83812,3.615 3.84545,2.78428 5.51437,0.54451 l -0.83251,4.26993 c -1.46611,0.79074 -2.73511,0.84968 -3.90532,-0.0929 -2.92949,3.24413 -7.73459,3.98079 -11.16837,0.36944 -2.8127,3.74396 -8.8741,3.68822 -12.26868,0.97828 -3.24081,3.075 -7.49682,2.78448 -10.48383,0.14273 -2.39429,1.84534 -6.98594,2.74208 -9.47465,0.77322 -3.50474,2.23655 -5.48984,8.52547 -8.24086,12.79375 -5.3958,4.30603 -1.87215,13.59424 -2.85081,22.6241 z"
     id="path14359-1-7-5-3-0-73-1-9-70-05-9"
     inkscape:connector-curvature="0"
     sodipodi:nodetypes="scssscsssssccsccssscccccccccccccs" />
  <path
     style="color:#000000;display:inline;overflow:visible;visibility:visible;fill:#000000;fill-opacity:1;fill-rule:evenodd;stroke:#000000;stroke-width:2;stroke-linecap:butt;stroke-linejoin:miter;stroke-miterlimit:4;stroke-dasharray:none;stroke-dashoffset:0;stroke-opacity:1;marker:none;enable-background:accumulate"
     d="m 153.51487,251.72596 c 3.48722,0.18568 8.22962,3.81268 8.04077,12.20945 -0.15533,6.90622 -5.26118,15.16691 -12.69241,21.98239 l -3e-5,0 c -1.65989,1.52235 -3.3435,2.2558 -3.92463,-0.74558 -0.9238,-4.77121 2.00779,-4.9544 5.0055,-7.98632 2.09009,-2.11394 3.68796,-4.72034 4.58226,-7.53502 1.72944,-5.44315 0.63389,-10.78658 -2.16164,-11.90758 -1.02362,-0.41047 -2.35568,-0.78932 -3.7225,-0.76242 -1.32101,0.026 -2.03585,-0.64091 -1.9065,-1.49152 0.3433,-2.25762 3.17147,-3.9555 6.77918,-3.7634 z m -12.01572,39.54123 c -0.0835,1.06286 -0.25275,1.92235 -0.57929,2.68335 1.24484,-2.81416 5.69028,-4.387 7.53191,-6.07604 8.24489,-7.56172 14.36753,-16.8119 14.58528,-24.47314 0.29339,-10.32245 -4.21354,-13.67571 -9.42432,-13.79786 -2.27439,-0.0533 -4.34677,0.71486 -6.0323,-0.27842 -1.21382,-0.7153 -2.52705,-1.97768 -2.3788,-4.73132 z m 10.14287,-31.71491 c 2.24328,0.89955 2.86925,5.14746 1.39815,9.48798 -1.4711,4.34053 -4.48221,7.13 -6.72549,6.23045 -2.24328,-0.89955 -2.92066,-5.14898 -1.32966,-9.67804 1.48726,-4.23375 4.44692,-6.92663 6.657,-6.04039 z"
     id="path13197-3"
     inkscape:connector-curvature="0"
     sodipodi:nodetypes="sscssssssssccssssccsssss" />
  <text
     xml:space="preserve"
     style="font-size:10px;font-style:normal;font-variant:normal;font-weight:bold;font-stretch:normal;text-align:start;line-height:164.99999762%;letter-spacing:1px;word-spacing:0px;text-anchor:start;fill:#000000;fill-opacity:1;stroke:none;font-family:Arial;-inkscape-font-specification:Arial Bold"
     x="8.833683"
     y="13.54364"
     id="text12894"
     sodipodi:linespacing="165%"><tspan
       sodipodi:role="line"
       id="tspan12896"
       x="8.833683"
       y="13.54364">Sterilization is recommended.</tspan><tspan
       sodipodi:role="line"
       x="8.833683"
       y="30.04364"
       id="tspan12898">Your physicion will decide if it</tspan><tspan
       sodipodi:role="line"
       x="8.833683"
       y="46.54364"
       id="tspan12900">is not required.</tspan></text>
  <path
     style="fill:none;stroke:#000000;stroke-width:2;stroke-linecap:butt;stroke-linejoin:miter;stroke-miterlimit:4;stroke-dasharray:none;stroke-opacity:1"
     d="m 8.95383,597.46524 0.002,-537.784386 167.9026,0 -0.002,537.784386 z"
     id="path14359-1-7-5-3-0-73-1-9-8"
     inkscape:connector-curvature="0"
     sodipodi:nodetypes="ccccc" />
  <path
     style="fill:none;stroke:#000000;stroke-width:2;stroke-linecap:butt;stroke-linejoin:miter;stroke-miterlimit:4;stroke-dasharray:none;stroke-opacity:1"
     d="m 14.703322,308.45038 152.141408,0.002"
     id="path14359-1-7-5-3-0-73-1-9"
     inkscape:connector-curvature="0"
     sodipodi:nodetypes="cc" />
  <path
     style="fill:none;stroke:#000000;stroke-width:2;stroke-linecap:butt;stroke-linejoin:miter;stroke-miterlimit:4;stroke-dasharray:none;stroke-opacity:1"
     d="m 16.035885,159.73665 152.940945,0.002"
     id="path14359-1-7-5-3-0-73-1-9-6"
     inkscape:connector-curvature="0"
     sodipodi:nodetypes="cc" />
  <path
     style="color:#000000;display:inline;overflow:visible;visibility:visible;fill:none;fill-rule:evenodd;stroke:#000000;stroke-width:5;stroke-linecap:butt;stroke-linejoin:miter;stroke-miterlimit:4;stroke-dasharray:none;stroke-dashoffset:0;stroke-opacity:1;marker:none;enable-background:accumulate"
     d="m 66.7019,135.80029 -0.0047,-7.44305 c -0.01185,-18.87041 15.297494,-34.167908 34.16791,-34.167908 18.87042,0 34.22399,15.297578 34.16791,34.167908 l -0.0218,7.35053"
     id="path12968"
     inkscape:connector-curvature="0"
     sodipodi:nodetypes="csssc" />
  <path
     style="color:#000000;display:inline;overflow:visible;visibility:visible;fill:none;fill-rule:evenodd;stroke:#000000;stroke-width:7;stroke-linecap:round;stroke-linejoin:miter;stroke-miterlimit:4;stroke-dasharray:none;stroke-dashoffset:0;stroke-opacity:1;marker:none;enable-background:accumulate"
     d="m 84.391313,81.809012 c 5.037741,-1.88681 10.492917,-2.918572 16.188277,-2.918572 19.3043,0 35.88353,11.853552 42.75754,28.67912"
     id="path12968-2"
     inkscape:connector-curvature="0"
     sodipodi:nodetypes="csc" />
  <path
     style="fill:none;stroke:#000000;stroke-width:5;stroke-linecap:butt;stroke-linejoin:miter;stroke-miterlimit:4;stroke-dasharray:none;stroke-opacity:1"
     d="m 88.027448,82.153389 1.935819,13.408805"
     id="path14359-1-7-5-3-0-73-1-9-63"
     inkscape:connector-curvature="0"
     sodipodi:nodetypes="cc" />
  <path
     style="fill:none;stroke:#000000;stroke-width:5;stroke-linecap:butt;stroke-linejoin:miter;stroke-miterlimit:4;stroke-dasharray:none;stroke-opacity:1"
     d="m 141.07524,105.83111 -9.69109,6.62644"
     id="path14359-1-7-5-3-0-73-1-9-63-4"
     inkscape:connector-curvature="0"
     sodipodi:nodetypes="cc" />
  <path
     style="fill:none;stroke:#000000;stroke-width:5;stroke-linecap:butt;stroke-linejoin:round;stroke-miterlimit:4;stroke-dasharray:none;stroke-opacity:1"
     d="m 68.405032,117.78655 -9.323754,-6.14198 c -2.864866,-1.88722 -2.907382,-6.4863 -0.453552,-10.02166 2.293916,-3.304961 6.8355,-4.845218 9.537078,-2.937504 l 8.354844,5.899754"
     id="path14359-1-7-5-3-0-73-1-9-63-2"
     inkscape:connector-curvature="0"
     sodipodi:nodetypes="csssc" />
  <path
     style="fill:none;stroke:#000000;stroke-width:5;stroke-linecap:butt;stroke-linejoin:miter;stroke-miterlimit:4;stroke-dasharray:none;stroke-opacity:1"
     d="m 67.438122,98.564292 c -4.239364,1.072853 -9.449163,7.750448 -9.327754,12.318788"
     id="path14359-1-7-5-3-0-73-1-9-63-8"
     inkscape:connector-curvature="0"
     sodipodi:nodetypes="cc" />
  <path
     style="fill:none;stroke:#000000;stroke-width:4;stroke-linecap:butt;stroke-linejoin:miter;stroke-miterlimit:4;stroke-dasharray:none;stroke-opacity:1"
     d="m 169.15521,144.20774 -124.124121,0.11921 -15.121808,15.018"
     id="path14359-1-7-5-3-0-73-1-9-63-9"
     inkscape:connector-curvature="0"
     sodipodi:nodetypes="ccc" />
  <path
     style="fill:none;stroke:#000000;stroke-width:5;stroke-linecap:butt;stroke-linejoin:miter;stroke-miterlimit:4;stroke-dasharray:none;stroke-opacity:1"
     d="m 33.343157,158.72284 -5.967986,-5.47382 9.034155,-9.23821 4.151279,4.26268"
     id="path14359-1-7-5-3-0-73-1-9-63-5"
     inkscape:connector-curvature="0"
     sodipodi:nodetypes="cccc" />
  <path
     style="fill:none;stroke:#000000;stroke-width:2;stroke-linecap:butt;stroke-linejoin:miter;stroke-miterlimit:4;stroke-dasharray:none;stroke-opacity:1"
     d="m 30.284422,153.87938 6.767021,6.03422"
     id="path14359-1-7-5-3-0-73-1-9-63-46"
     inkscape:connector-curvature="0"
     sodipodi:nodetypes="cc" />
  <path
     style="fill:none;stroke:#000000;stroke-width:2;stroke-linecap:butt;stroke-linejoin:miter;stroke-miterlimit:4;stroke-dasharray:none;stroke-opacity:1"
     d="M 38.531735,149.3667 28.181692,159.64128"
     id="path14359-1-7-5-3-0-73-1-9-63-51"
     inkscape:connector-curvature="0"
     sodipodi:nodetypes="cc" />
  <path
     style="fill:none;stroke:#000000;stroke-width:2;stroke-linecap:butt;stroke-linejoin:miter;stroke-miterlimit:4;stroke-dasharray:none;stroke-opacity:1"
     d="m 32.81308,158.04194 1.748609,1.56044"
     id="path14359-1-7-5-3-0-73-1-9-63-6"
     inkscape:connector-curvature="0"
     sodipodi:nodetypes="cc" />
  <path
     style="color:#000000;display:inline;overflow:visible;visibility:visible;fill:none;fill-rule:evenodd;stroke:#000000;stroke-width:5;stroke-linecap:butt;stroke-linejoin:miter;stroke-miterlimit:4;stroke-dasharray:none;stroke-dashoffset:0;stroke-opacity:1;marker:none;enable-background:accumulate"
     d="m 37.048642,161.60981 -8.475746,7.26456 46.537019,52.35291 9.590415,-8.18618 c 14.7178,-12.56281 15.71753,-35.02312 2.842084,-49.46821 -0.613237,-0.688 -1.246947,-1.34547 -1.899377,-1.97241"
     id="path12968-8"
     inkscape:connector-curvature="0"
     sodipodi:nodetypes="cccssc" />
  <path
     style="color:#000000;display:inline;overflow:visible;visibility:visible;fill:none;fill-rule:evenodd;stroke:#000000;stroke-width:7;stroke-linecap:round;stroke-linejoin:miter;stroke-miterlimit:4;stroke-dasharray:none;stroke-dashoffset:0;stroke-opacity:1;marker:none;enable-background:accumulate"
     d="m 108.25942,167.73597 c -0.73887,-1.90699 -1.49573,-3.44433 -2.49356,-5.26573"
     id="path12968-2-3"
     inkscape:connector-curvature="0"
     sodipodi:nodetypes="cc" />
  <path
     style="fill:none;stroke:#000000;stroke-width:5;stroke-linecap:butt;stroke-linejoin:miter;stroke-miterlimit:4;stroke-dasharray:none;stroke-opacity:1"
     d="m 106.29272,166.40991 -10.918352,8.77836"
     id="path14359-1-7-5-3-0-73-1-9-63-0"
     inkscape:connector-curvature="0"
     sodipodi:nodetypes="cc" />
  <path
     style="fill:none;stroke:#000000;stroke-width:5;stroke-linecap:butt;stroke-linejoin:round;stroke-miterlimit:4;stroke-dasharray:none;stroke-opacity:1"
     d="m 91.626596,204.52107 11.952314,3.61326 3.72232,-15.79549 -11.105791,-3.03684"
     id="path14359-1-7-5-3-0-73-1-9-63-2-9"
     inkscape:connector-curvature="0"
     sodipodi:nodetypes="cccc" />
  <path
     style="fill:#000000;fill-opacity:1;stroke:#000000;stroke-width:1;stroke-linecap:butt;stroke-linejoin:miter;stroke-miterlimit:4;stroke-dasharray:none;stroke-opacity:1"
     d="m 87.001111,160.1597 -7.030132,-0.0691 c 1.809727,0.91837 3.255431,1.8836 4.881309,3.50894 z"
     id="path14359-1-7-5-3-0-73-1-9-3"
     inkscape:connector-curvature="0"
     sodipodi:nodetypes="cccc" />
  <path
     style="fill:#000000;fill-opacity:1;stroke:#000000;stroke-width:1;stroke-linecap:butt;stroke-linejoin:miter;stroke-miterlimit:4;stroke-dasharray:none;stroke-opacity:1"
     d="m 37.874748,163.5153 c 1.706724,-1.4685 3.401509,-2.94496 5.811051,-3.77655 l -7.787496,-0.0421 z"
     id="path14359-1-7-5-3-0-73-1-9-9"
     inkscape:connector-curvature="0"
     sodipodi:nodetypes="cccc" />
  <path
     style="fill:#000000;fill-opacity:1;stroke:#000000;stroke-width:1;stroke-linecap:butt;stroke-linejoin:miter;stroke-miterlimit:4;stroke-dasharray:none;stroke-opacity:1"
     d="m 106.41911,160.31539 -2.55769,4.8638 c -1.03654,-1.89057 -2.14583,-3.81878 -3.60391,-5.18187 z"
     id="path14359-1-7-5-3-0-73-1-9-38"
     inkscape:connector-curvature="0"
     sodipodi:nodetypes="cccc" />
  <path
     style="fill:#000000;fill-opacity:1;stroke:#000000;stroke-width:2;stroke-linecap:butt;stroke-linejoin:round;stroke-miterlimit:4;stroke-dasharray:none;stroke-opacity:1"
     d="m 109.18644,191.00764 17.44259,0.79665 c -1.29369,-2.41693 -3.00397,-5.02435 -7.75492,-5.43344 -4.71442,-0.40594 -8.29452,2.26089 -9.68767,4.63679 z"
     id="path14359-1-7-5-3-0-73-1-9-7"
     inkscape:connector-curvature="0"
     sodipodi:nodetypes="ccsc" />
  <path
     style="fill:none;stroke:#000000;stroke-width:4;stroke-linecap:butt;stroke-linejoin:miter;stroke-miterlimit:4;stroke-dasharray:none;stroke-opacity:1"
     d="m 142.68995,242.72382 c 2.51719,0.005 2.65321,0.5679 2.48062,2.70157 l -3.77144,46.62576 c -0.23085,2.85392 -1.34643,3.73779 -3.74269,3.73779 l -32.36942,0 c -2.43301,0 -3.60618,-1.38407 -3.74905,-3.73465 l -2.782192,-45.77574 -3.278212,-3.63859 z"
     id="path14359-1-7-5-3-0-73-1-9-0"
     inkscape:connector-curvature="0"
     sodipodi:nodetypes="ssssssccs" />
  <path
     style="color:#000000;display:inline;overflow:visible;visibility:visible;fill:#000000;fill-opacity:1;fill-rule:evenodd;stroke:#000000;stroke-width:1.91614127000000001;stroke-linecap:butt;stroke-linejoin:miter;stroke-miterlimit:4;stroke-dasharray:none;stroke-dashoffset:0;stroke-opacity:1;marker:none;enable-background:accumulate"
     d="m 141.61084,388.56904 c -7.7216,-1.79895 -13.10514,0.44756 -14.03975,5.29074 -0.87994,4.55987 0.73908,7.89167 3.5621,8.83273 0.77232,0.25745 1.98971,-0.27286 1.73347,-1.53262 -0.39329,-1.93348 -1.38047,-5.57997 0.77528,-7.59252 1.87889,-1.7541 7.32094,-0.86563 11.93761,2.45813 2.27686,1.63921 4.54305,5.11637 6.19508,7.78646 2.16316,3.49621 2.12766,6.91819 6.20422,7.1335 1.7038,0.09 2.26562,-3.38223 1.6606,-4.41836 -4.9099,-8.40846 -11.67771,-16.47843 -18.02861,-17.95806 z m 0.1798,-2.30304 c -9.39894,-2.58891 -14.34683,0.90911 -15.48446,6.31337 -0.55783,2.64992 0.5609,5.96576 -0.96921,7.59977 -1.28588,1.3732 -3.32717,1.89404 -5.13858,1.35897 l 42.42567,12.53208 c 0.96629,0.28462 2.88759,1.20241 3.52968,1.66089 -3.11076,-2.80991 -4.01707,-6.14585 -4.78348,-8.43396 -3.11027,-9.28564 -10.40358,-18.5036 -19.57962,-21.03112 z m -5.989,12.52566 c 1.24943,-1.96826 5.29035,-1.74701 9.02567,0.4942 3.73533,2.24119 5.75053,5.65363 4.5011,7.62189 -1.24942,1.96826 -5.30135,1.79579 -9.18846,-0.59622 -3.63367,-2.23605 -5.56925,-5.58074 -4.33831,-7.51987 z"
     id="path13197-3-5"
     inkscape:connector-curvature="0"
     sodipodi:nodetypes="ssssssssssssssccssscsss" />
  <path
     style="fill:none;stroke:#000000;stroke-width:4;stroke-linecap:butt;stroke-linejoin:miter;stroke-miterlimit:4;stroke-dasharray:none;stroke-opacity:1"
     d="m 118.40101,404.01956 c 0.48803,-2.41445 1.02347,-2.43832 2.96984,-1.85872 l 42.53291,12.66549 c 2.60339,0.77525 3.19586,2.01471 2.76547,4.31988 l -5.74626,30.77663 c -0.437,2.34052 -1.9588,3.19538 -4.16539,2.87672 l -42.02692,-4.3159 -6.19293,4.33294 z"
     id="path14359-1-7-5-3-0-73-1-9-0-4"
     inkscape:connector-curvature="0"
     sodipodi:nodetypes="ssssssccs" />
  <path
     style="fill:none;fill-rule:evenodd;stroke:#000000;stroke-width:2;stroke-linecap:round;stroke-linejoin:miter;stroke-miterlimit:4;stroke-dasharray:none;stroke-opacity:1"
     d="m 129.43268,419.62293 -2.00964,9.20547"
     id="path13248"
     inkscape:connector-curvature="0" />
  <path
     style="fill:none;fill-rule:evenodd;stroke:#000000;stroke-width:2;stroke-linecap:round;stroke-linejoin:miter;stroke-miterlimit:4;stroke-dasharray:none;stroke-opacity:1"
     d="m 139.86987,421.89189 -1.75033,8.23306"
     id="path13250"
     inkscape:connector-curvature="0" />
  <path
     style="fill:none;fill-rule:evenodd;stroke:#000000;stroke-width:2;stroke-linecap:round;stroke-linejoin:miter;stroke-miterlimit:4;stroke-dasharray:none;stroke-opacity:1"
     d="m 151.66844,424.35532 -1.49103,7.45514"
     id="path13252"
     inkscape:connector-curvature="0" />
  <path
     style="fill:none;stroke:#000000;stroke-width:2;stroke-linecap:round;stroke-linejoin:miter;stroke-miterlimit:4;stroke-dasharray:none;stroke-opacity:1"
     d="m 127.14164,282.19014 -8.57784,-0.002"
     id="path14359-1-7-5-3-0-73-1-9-03"
     inkscape:connector-curvature="0"
     sodipodi:nodetypes="cc" />
  <path
     style="fill:none;stroke:#000000;stroke-width:2;stroke-linecap:round;stroke-linejoin:miter;stroke-miterlimit:4;stroke-dasharray:none;stroke-opacity:1"
     d="m 127.14164,259.63025 -8.57784,-0.002"
     id="path14359-1-7-5-3-0-73-1-9-4"
     inkscape:connector-curvature="0"
     sodipodi:nodetypes="cc" />
  <path
     style="fill:none;stroke:#000000;stroke-width:2;stroke-linecap:round;stroke-linejoin:miter;stroke-miterlimit:4;stroke-dasharray:none;stroke-opacity:1"
     d="m 127.14164,270.13227 -8.57784,-0.002"
     id="path14359-1-7-5-3-0-73-1-9-2"
     inkscape:connector-curvature="0"
     sodipodi:nodetypes="cc" />
  <path
     style="fill:none;stroke:#000000;stroke-width:5;stroke-linecap:butt;stroke-linejoin:miter;stroke-miterlimit:4;stroke-dasharray:none;stroke-opacity:1"
     d="m 24.543776,242.51934 -0.002,52.20539 42.914448,0 0.002,-52.20539 z"
     id="path14359-1-7-5-3-0-73-1-9-70"
     inkscape:connector-curvature="0"
     sodipodi:nodetypes="ccccc" />
  <path
     style="fill:none;stroke:#000000;stroke-width:5;stroke-linecap:butt;stroke-linejoin:miter;stroke-miterlimit:4;stroke-dasharray:none;stroke-opacity:1"
     d="M 18.068519,420.27149 69.741608,444.5444 87.00896,405.94679 37.113392,381.41995 Z"
     id="path14359-1-7-5-3-0-73-1-9-70-4"
     inkscape:connector-curvature="0"
     sodipodi:nodetypes="ccccc" />
  <path
     style="fill:none;stroke:#000000;stroke-width:4;stroke-linecap:butt;stroke-linejoin:round;stroke-miterlimit:4;stroke-dasharray:none;stroke-opacity:1"
     d="m 75.330105,514.35316 -0.002,73.66262 c -2.6e-5,0.95605 0.746908,1.52359 2.286385,1.52359 l 32.75718,0 c 0.76657,0 1.64952,-0.5408 1.64956,-1.52359 l 0.002,-74.04351 -8.25378,-10.0303 -18.537011,0 z"
     id="path14359-1-7-5-3-0-73-1-9-70-9"
     inkscape:connector-curvature="0"
     sodipodi:nodetypes="csssscccc" />
  <path
     style="fill:none;stroke:#000000;stroke-width:4;stroke-linecap:butt;stroke-linejoin:round;stroke-miterlimit:4;stroke-dasharray:none;stroke-opacity:1"
     d="m 105.16507,505.488 0.002,-7.76735 c 7.2e-4,-2.79277 -3.1563,-4.95167 -5.968391,-4.95167 l -11.046026,0 c -2.686752,0 -5.203946,2.41434 -5.204599,4.95167 l -0.002,7.76735"
     id="path14359-1-7-5-3-0-73-1-9-70-44"
     inkscape:connector-curvature="0"
     sodipodi:nodetypes="cssssc" />
  <path
     style="fill:none;stroke:#000000;stroke-width:2;stroke-linecap:round;stroke-linejoin:miter;stroke-miterlimit:4;stroke-dasharray:none;stroke-opacity:1"
     d="m 81.170533,517.14642 c 5.309548,2.20517 5.966475,6.54756 5.966393,10.99376 l -0.001,54.54304 m 12.823548,0 0.001,-54.54304 c 8.6e-5,-4.68436 1.041966,-9.00228 5.841426,-10.99376"
     id="path14359-1-7-5-3-0-73-1-9-70-93"
     inkscape:connector-curvature="0"
     sodipodi:nodetypes="csccsc" />
  <path
     style="fill:#000000;fill-opacity:1;stroke:#000000;stroke-width:4;stroke-linecap:butt;stroke-linejoin:round;stroke-miterlimit:4;stroke-dasharray:none;stroke-opacity:1"
     d="m 38.002153,583.54954 -0.002,6.62466 26.027994,0 0.002,-6.62466 z"
     id="path14359-1-7-5-3-0-73-1-9-70-2"
     inkscape:connector-curvature="0"
     sodipodi:nodetypes="ccccc" />
  <path
     style="fill:none;stroke:#000000;stroke-width:4;stroke-linecap:butt;stroke-linejoin:round;stroke-miterlimit:4;stroke-dasharray:none;stroke-opacity:1"
     d="m 63.266352,583.31805 -1.777021,-4.19548 c -1.103065,-2.6043 -5.333245,-3.58445 -5.332065,-5.84604 l 10e-4,-1.91571 c 0.0018,-3.54124 -2.615477,-6.68569 -5.208895,-6.58929 -2.548336,0.0947 -5.073658,3.37111 -5.075337,6.58929 l -0.001,1.91571 c -0.0012,2.22242 -3.062689,3.56377 -4.444304,5.84604 l -2.539817,4.19548 z"
     id="path14359-1-7-5-3-0-73-1-9-70-0"
     inkscape:connector-curvature="0"
     sodipodi:nodetypes="cssssssscc" />
  <path
     style="fill:none;stroke:#000000;stroke-width:2;stroke-linecap:round;stroke-linejoin:miter;stroke-miterlimit:4;stroke-dasharray:none;stroke-opacity:1"
     d="m 27.911961,63.99663 2.988001,2.90758 m 4.045765,3.936876 4.99313,4.858743 m 2.975421,2.895339 4.86325,4.732359 m 4.80952,4.680075 4.99313,4.858743 m 3.098402,3.01501 2.037186,1.982357"
     id="path14359-1-7-5-3-0-73-1-9-71"
     inkscape:connector-curvature="0"
     sodipodi:nodetypes="cccccccccc" />
  <path
     style="fill:none;stroke:#000000;stroke-width:2;stroke-linecap:round;stroke-linejoin:miter;stroke-miterlimit:4;stroke-dasharray:none;stroke-opacity:1"
     d="m 14.189243,87.699508 3.773961,1.508247 m 5.076669,2.02887 3.377313,1.349729 m 4.797137,1.917155 5.937238,2.372793 m 5.18424,2.071859 4.04414,1.616229 m 4.560404,1.82254 4.914062,1.96389"
     id="path14359-1-7-5-3-0-73-1-9-1"
     inkscape:connector-curvature="0"
     sodipodi:nodetypes="cccccccccc" />
  <path
     style="fill:none;stroke:#000000;stroke-width:2;stroke-linecap:round;stroke-linejoin:miter;stroke-miterlimit:4;stroke-dasharray:none;stroke-opacity:1"
     d="m 14.937755,70.483733 4.676507,3.053993 m 3.823002,2.496611 4.956342,3.236739 m 5.359702,3.500152 6.459125,4.218131 m 6.489469,4.237947 3.507098,2.29031 m 4.488726,2.931362 4.649736,3.036509"
     id="path14359-1-7-5-3-0-73-1-9-31"
     inkscape:connector-curvature="0"
     sodipodi:nodetypes="cccccccccc" />
  <text
     xml:space="preserve"
     style="font-style:normal;font-variant:normal;font-weight:bold;font-stretch:normal;font-size:10px;line-height:164.99999762%;font-family:Arial;-inkscape-font-specification:'Arial Bold';text-align:start;letter-spacing:1px;word-spacing:0px;text-anchor:start;fill:#000000;fill-opacity:1;stroke:none;stroke-width:1px;stroke-linecap:butt;stroke-linejoin:miter;stroke-opacity:1"
     x="-268.6806"
     y="248.20787"
     id="text12894-5"
     sodipodi:linespacing="165%"><tspan
       sodipodi:role="line"
       x="-268.6806"
       y="248.20787"
       id="tspan12900-1">.</tspan></text>
  <text
     xml:space="preserve"
     style="font-style:normal;font-variant:normal;font-weight:bold;font-stretch:normal;font-size:27.5px;line-height:150%;font-family:Arial;-inkscape-font-specification:'Arial Bold';text-align:start;letter-spacing:-0.95999998px;word-spacing:0px;text-anchor:start;fill:#000000;fill-opacity:1;stroke:none;stroke-width:1px;stroke-linecap:butt;stroke-linejoin:miter;stroke-opacity:1"
     x="61.733891"
     y="388.67151"
     id="text13544"
     sodipodi:linespacing="150%"><tspan
       sodipodi:role="line"
       id="tspan13546"
       x="61.733891"
       y="388.67151">1 <tspan
   style="font-style:italic;font-variant:normal;font-weight:normal;font-stretch:normal;font-family:Arial;-inkscape-font-specification:'Arial Italic';letter-spacing:-0.95999998px"
   id="tspan13548">+</tspan> 1</tspan></text>
  <text
     sodipodi:linespacing="165%"
     id="text12742"
     y="323.54364"
     x="18.833683"
     style="font-size:10px;font-style:normal;font-variant:normal;font-weight:bold;font-stretch:normal;text-align:start;line-height:164.99999762%;letter-spacing:1px;word-spacing:0px;text-anchor:start;fill:#000000;fill-opacity:1;stroke:none;font-family:Arial;-inkscape-font-specification:Arial Bold"
     xml:space="preserve"><tspan
       id="tspan12748"
       y="323.54364"
       x="18.833683"
       sodipodi:role="line">Standard division is equal</tspan><tspan
       y="340.04364"
       x="18.833683"
       sodipodi:role="line"
       id="tspan12755">amounts of Concentrated</tspan><tspan
       y="356.54364"
       x="18.833683"
       sodipodi:role="line"
       id="tspan12757">Liquid and water.</tspan></text>
</svg>
