<?xml version="1.0" encoding="UTF-8" standalone="no"?>
<!-- Created with Inkscape (http://www.inkscape.org/) -->

<svg
   xmlns:dc="http://purl.org/dc/elements/1.1/"
   xmlns:cc="http://creativecommons.org/ns#"
   xmlns:rdf="http://www.w3.org/1999/02/22-rdf-syntax-ns#"
   xmlns:svg="http://www.w3.org/2000/svg"
   xmlns="http://www.w3.org/2000/svg"
   xmlns:sodipodi="http://sodipodi.sourceforge.net/DTD/sodipodi-0.dtd"
   xmlns:inkscape="http://www.inkscape.org/namespaces/inkscape"
   id="svg25374"
   version="1.1"
   inkscape:version="0.91 r13725"
   width="422"
   height="148"
   viewBox="0 0 422 148"
   sodipodi:docname="er03my96.051.svg">
  <metadata
     id="metadata25380">
    <rdf:RDF>
      <cc:Work
         rdf:about="">
        <dc:format>image/svg+xml</dc:format>
        <dc:type
           rdf:resource="http://purl.org/dc/dcmitype/StillImage" />
        <dc:title></dc:title>
      </cc:Work>
    </rdf:RDF>
  </metadata>
  <defs
     id="defs25378" />
  <sodipodi:namedview
     pagecolor="#ffffff"
     bordercolor="#666666"
     borderopacity="1"
     objecttolerance="10"
     gridtolerance="10"
     guidetolerance="10"
     inkscape:pageopacity="0"
     inkscape:pageshadow="2"
     inkscape:window-width="1899"
     inkscape:window-height="1160"
     id="namedview25376"
     showgrid="false"
     inkscape:zoom="2.4648201"
     inkscape:cx="152.17218"
     inkscape:cy="116.27086"
     inkscape:window-x="100"
     inkscape:window-y="211"
     inkscape:window-maximized="0"
     inkscape:current-layer="svg25374" />
  <path
     style="fill:none;stroke:#000000;stroke-width:2;stroke-linecap:butt;stroke-linejoin:miter;stroke-miterlimit:4;stroke-dasharray:none;stroke-opacity:1"
     d="m 3.4435602,3.9310089 -0.002,140.9687111 415.6886498,0 0.002,-140.9687111 z"
     id="path14359-1-7-5-3-0-73-1-9-0"
     inkscape:connector-curvature="0"
     sodipodi:nodetypes="ccccc" />
  <path
     style="fill:none;stroke:#000000;stroke-width:2;stroke-linecap:butt;stroke-linejoin:miter;stroke-miterlimit:4;stroke-dasharray:none;stroke-opacity:1"
     d="M 157.26546,32.962251 3.3871649,32.960251"
     id="path14359-1-7-5-3-0-73-1-9"
     inkscape:connector-curvature="0"
     sodipodi:nodetypes="cc" />
  <path
     style="fill:none;stroke:#000000;stroke-width:2;stroke-linecap:butt;stroke-linejoin:miter;stroke-miterlimit:4;stroke-dasharray:none;stroke-opacity:1"
     d="m 157.21106,4.5047682 -0.002,140.3949518"
     id="path14359-1-7-5-3-0-73-1-9-9"
     inkscape:connector-curvature="0"
     sodipodi:nodetypes="cc" />
  <text
     xml:space="preserve"
     style="font-style:normal;font-variant:normal;font-weight:bold;font-stretch:normal;font-size:25px;line-height:160.00000238%;font-family:Arial;-inkscape-font-specification:'Arial Bold';text-align:start;letter-spacing:1.29999995px;word-spacing:0px;text-anchor:start;fill:#000000;fill-opacity:1;stroke:none;stroke-width:1px;stroke-linecap:butt;stroke-linejoin:miter;stroke-opacity:1"
     x="24.958532"
     y="26.936779"
     id="text7902"
     sodipodi:linespacing="160%"><tspan
       sodipodi:role="line"
       id="tspan7904"
       x="24.958532"
       y="26.936779">WARNING</tspan></text>
  <text
     xml:space="preserve"
     style="font-style:normal;font-variant:normal;font-weight:normal;font-stretch:normal;font-size:17.5px;line-height:160.00000238%;font-family:Arial;-inkscape-font-specification:Arial;text-align:start;letter-spacing:0.30000001px;word-spacing:0px;text-anchor:start;fill:#000000;fill-opacity:1;stroke:none;stroke-width:1px;stroke-linecap:butt;stroke-linejoin:miter;stroke-opacity:1"
     x="158.93134"
     y="25.50238"
     id="text7906"
     sodipodi:linespacing="160%"><tspan
       sodipodi:role="line"
       id="tspan7908"
       x="158.93134"
       y="25.50238">CARBON MONOXIDE HAZARD</tspan></text>
  <text
     xml:space="preserve"
     style="font-style:normal;font-variant:normal;font-weight:normal;font-stretch:normal;font-size:17.5px;line-height:93%;font-family:Arial;-inkscape-font-specification:Arial;text-align:start;letter-spacing:0.1px;word-spacing:0px;text-anchor:start;fill:#000000;fill-opacity:1;stroke:none;stroke-width:1px;stroke-linecap:butt;stroke-linejoin:miter;stroke-opacity:1;"
     x="162.66077"
     y="56.485382"
     id="text7910"
     sodipodi:linespacing="93%"><tspan
       sodipodi:role="line"
       id="tspan7912"
       x="162.66077"
       y="56.485382">Burning charcoal inside can</tspan><tspan
       sodipodi:role="line"
       x="162.66077"
       y="73.110382"
       id="tspan7914">kill you.  It gives off carbon</tspan><tspan
       sodipodi:role="line"
       x="162.66077"
       y="89.735382"
       id="tspan7916">monoxide, which has no odor.</tspan><tspan
       sodipodi:role="line"
       x="162.66077"
       y="106.36038"
       id="tspan7918" /><tspan
       sodipodi:role="line"
       x="162.66077"
       y="122.98538"
       id="tspan7920">NEVER burn charcoal inside</tspan><tspan
       sodipodi:role="line"
       x="162.66077"
       y="139.61038"
       id="tspan7922">homes, vehicles or tents.</tspan></text>
  <path
     style="color:#000000;display:inline;overflow:visible;visibility:visible;fill:none;fill-rule:evenodd;stroke:#000000;stroke-width:7;stroke-linecap:butt;stroke-linejoin:round;stroke-miterlimit:4;stroke-dasharray:none;stroke-dashoffset:0;stroke-opacity:1;marker:none;enable-background:accumulate"
     d="M 128.70901,89.496831 A 49.122633,47.908416 0 0 1 79.586389,137.40524 49.122633,47.908416 0 0 1 30.463757,89.496831 49.122633,47.908416 0 0 1 79.586389,41.588415 49.122633,47.908416 0 0 1 128.70901,89.496831 Z"
     id="path7924"
     inkscape:connector-curvature="0" />
  <path
     style="color:#000000;display:inline;overflow:visible;visibility:visible;fill:none;fill-rule:evenodd;stroke:#000000;stroke-width:1;stroke-linecap:butt;stroke-linejoin:miter;stroke-miterlimit:4;stroke-dasharray:none;stroke-dashoffset:0;stroke-opacity:1;marker:none;enable-background:accumulate"
     d="m 88.423702,64.503771 c -2e-6,1.193651 -4.210822,2.161296 -9.405133,2.161296 -5.19431,0 -9.405132,-0.967645 -9.405134,-2.161296 0,-1.193651 4.210822,-2.161297 9.405134,-2.161297 5.194312,0 9.405134,0.967646 9.405133,2.161297 z"
     id="path7951"
     inkscape:connector-curvature="0"
     sodipodi:nodetypes="sssss" />
  <path
     style="color:#000000;display:inline;overflow:visible;visibility:visible;fill:#000000;fill-rule:evenodd;stroke:#000000;stroke-width:1;stroke-linecap:butt;stroke-linejoin:round;stroke-miterlimit:4;stroke-dasharray:none;stroke-dashoffset:0;stroke-opacity:1;marker:none;enable-background:accumulate;fill-opacity:1"
     d="m 88.423897,64.494533 c -2e-6,1.193651 -4.210822,2.161296 -9.405133,2.161296 -5.19431,0 -9.405132,-0.967645 -9.405134,-2.161296 l 0.980213,3.349804 c 0.344843,1.178473 3.857029,2.223293 8.614914,2.223293 4.757885,0 8.398345,-1.014652 8.614913,-2.223293 z"
     id="path7951-0"
     inkscape:connector-curvature="0"
     sodipodi:nodetypes="cscsssc" />
  <path
     style="fill:none;fill-rule:evenodd;stroke:#000000;stroke-width:1px;stroke-linecap:round;stroke-linejoin:round;stroke-opacity:1"
     d="m 77.112317,65.960856 c 0.275557,-0.70204 0.360527,-0.414808 0.821138,-0.261272"
     id="path7984"
     inkscape:connector-curvature="0" />
  <path
     style="fill:none;fill-rule:evenodd;stroke:#000000;stroke-width:1px;stroke-linecap:round;stroke-linejoin:round;stroke-opacity:1"
     d="m 78.717268,64.505202 c 0.409359,0.09443 0.927748,0.341284 1.269032,0"
     id="path7986"
     inkscape:connector-curvature="0" />
  <path
     style="fill:none;fill-rule:evenodd;stroke:#000000;stroke-width:1px;stroke-linecap:round;stroke-linejoin:round;stroke-opacity:1"
     d="m 77.373588,63.684064 c -0.09218,-0.217456 -0.97842,-0.43991 -1.194382,-0.223947 -0.148948,0.148947 -0.152459,0.373245 -0.410569,0.373245"
     id="path7988"
     inkscape:connector-curvature="0" />
  <path
     style="fill:none;fill-rule:evenodd;stroke:#000000;stroke-width:1px;stroke-linecap:round;stroke-linejoin:round;stroke-opacity:1"
     d="m 74.723552,65.587611 c 1.098839,-0.079 0.212175,-0.630592 0.783813,-0.821138"
     id="path7990"
     inkscape:connector-curvature="0" />
  <path
     style="fill:none;fill-rule:evenodd;stroke:#000000;stroke-width:1px;stroke-linecap:round;stroke-linejoin:round;stroke-opacity:1"
     d="m 73.379872,64.467878 c 0.377725,0.140731 0.236892,-0.12492 0.373244,-0.261272 0.03182,-0.03182 0.303351,-0.02647 0.33592,-0.03732"
     id="path7992"
     inkscape:connector-curvature="0" />
  <path
     style="fill:none;fill-rule:evenodd;stroke:#000000;stroke-width:1px;stroke-linecap:round;stroke-linejoin:round;stroke-opacity:1"
     d="m 73.155925,63.833362 c -0.231882,0.108913 -0.458681,0.231138 -0.67184,0.373244"
     id="path7994"
     inkscape:connector-curvature="0" />
  <path
     style="fill:none;fill-rule:evenodd;stroke:#000000;stroke-width:1px;stroke-linecap:round;stroke-linejoin:round;stroke-opacity:1"
     d="m 71.961542,65.027744 c 0.152524,0.03456 0.857622,0.374086 1.007761,0.223947 0.127943,-0.127943 0.126741,-0.186622 0.373244,-0.186622"
     id="path7996"
     inkscape:connector-curvature="0" />
  <path
     style="fill:none;fill-rule:evenodd;stroke:#000000;stroke-width:1px;stroke-linecap:round;stroke-linejoin:round;stroke-opacity:1"
     d="m 81.143358,63.721389 c 0.906693,-0.369641 1.084624,-0.333705 1.642275,0.223946"
     id="path7998"
     inkscape:connector-curvature="0" />
  <path
     style="fill:none;fill-rule:evenodd;stroke:#000000;stroke-width:1px;stroke-linecap:round;stroke-linejoin:round;stroke-opacity:1"
     d="m 81.516602,65.736909 c 0.636156,-0.01402 1.560052,0.268846 2.052845,-0.223947 0.221865,-0.221865 -0.223947,-0.557745 -0.223947,-0.634515 0,-0.242676 1.36969,-0.421885 1.567627,-0.223947"
     id="path8000"
     inkscape:connector-curvature="0" />
  <path
     style="fill:none;fill-rule:evenodd;stroke:#000000;stroke-width:1px;stroke-linecap:round;stroke-linejoin:round;stroke-opacity:1"
     d="m 84.987776,65.251691 c 0.177283,-0.08077 0.399936,-0.138665 0.522542,-0.261271"
     id="path8002"
     inkscape:connector-curvature="0" />
  <path
     style="fill:none;fill-rule:evenodd;stroke:#000000;stroke-width:1px;stroke-linecap:round;stroke-linejoin:round;stroke-opacity:1"
     d="m 85.77159,64.243931 c 0.203431,0.08526 0.295839,0.173262 0.447893,0.223947"
     id="path8004"
     inkscape:connector-curvature="0" />
  <path
     style="fill:none;fill-rule:evenodd;stroke:#000000;stroke-width:1px;stroke-linecap:round;stroke-linejoin:round;stroke-opacity:1"
     d="m 80.359544,65.512962 c 0.117404,-0.298452 0.39643,-0.452987 0.33592,-0.634515"
     id="path8006"
     inkscape:connector-curvature="0" />
  <path
     style="fill:none;fill-rule:evenodd;stroke:#000000;stroke-width:1px;stroke-linecap:round;stroke-linejoin:round;stroke-opacity:1"
     d="m 80.508842,64.206606 c 0.03789,-0.184718 0.06691,-0.253537 0.186622,-0.373244"
     id="path8008"
     inkscape:connector-curvature="0" />
  <path
     style="fill:none;fill-rule:evenodd;stroke:#000000;stroke-width:1px;stroke-linecap:round;stroke-linejoin:round;stroke-opacity:1"
     d="m 75.395392,62.415033 c -0.09771,-0.258161 -0.418278,-0.917693 -0.261271,-1.231707 0.381212,-0.762424 1.361445,-1.173029 1.642276,-2.015521 0.234131,-0.702392 -0.675473,-1.677783 0.07465,-2.052844 0.134258,-0.06713 0.01976,-0.21736 0.223946,-0.149298"
     id="path8010"
     inkscape:connector-curvature="0" />
  <path
     style="fill:none;fill-rule:evenodd;stroke:#000000;stroke-width:1px;stroke-linecap:round;stroke-linejoin:round;stroke-opacity:1"
     d="m 79.351784,62.265735 c 0.261596,0.01994 0.587561,-0.327485 0.485218,-0.634516 -0.24088,-0.722638 -1.005513,-1.115238 -1.306356,-1.716925 -0.267227,-0.534453 0.289055,-1.744708 0.597191,-2.052844 0.06181,-0.06181 0.186083,-0.07357 0.223947,-0.149298 0.117472,-0.234944 -0.112151,-0.448427 -0.149298,-0.559867"
     id="path8012"
     inkscape:connector-curvature="0" />
  <path
     style="fill:none;fill-rule:evenodd;stroke:#000000;stroke-width:1px;stroke-linecap:round;stroke-linejoin:round;stroke-opacity:1"
     d="m 82.33774,63.721389 c -0.12933,-1.218889 0.804758,-1.348245 1.194382,-2.127494 0.0037,-0.0073 -0.273839,-1.218758 -0.149297,-1.716925 0.06598,-0.263924 0.33539,-0.408979 0.410569,-0.634516 0.07101,-0.213032 0.275329,-0.326713 0.373244,-0.522542 0.338698,-0.677396 -0.278543,-1.137005 -0.597191,-1.455654"
     id="path8014"
     inkscape:connector-curvature="0" />
  <path
     style="fill:none;fill-rule:evenodd;stroke:#000000;stroke-width:1px;stroke-linecap:butt;stroke-linejoin:miter;stroke-opacity:1"
     d="m 83.3455,69.842599 3.209903,7.46489"
     id="path8016"
     inkscape:connector-curvature="0" />
  <path
     style="fill:none;fill-rule:evenodd;stroke:#000000;stroke-width:1px;stroke-linecap:butt;stroke-linejoin:miter;stroke-opacity:1"
     d="m 80.434193,70.141194 1.754249,7.352917"
     id="path8020"
     inkscape:connector-curvature="0" />
  <path
     style="fill:none;fill-rule:evenodd;stroke:#000000;stroke-width:1px;stroke-linecap:butt;stroke-linejoin:miter;stroke-opacity:1"
     d="m 78.194726,70.10387 -1.082409,7.502214"
     id="path8022"
     inkscape:connector-curvature="0" />
  <path
     style="fill:none;fill-rule:evenodd;stroke:#000000;stroke-width:1px;stroke-linecap:butt;stroke-linejoin:miter;stroke-opacity:1"
     d="m 75.134121,69.917247 -3.348715,7.552399"
     id="path8024"
     inkscape:connector-curvature="0"
     sodipodi:nodetypes="cc" />
  <path
     style="color:#000000;display:inline;overflow:visible;visibility:visible;fill:none;fill-rule:evenodd;stroke:#000000;stroke-width:1;stroke-linecap:butt;stroke-linejoin:miter;stroke-miterlimit:4;stroke-dasharray:none;stroke-dashoffset:0;stroke-opacity:1;marker:none;enable-background:accumulate"
     d="m 110.66627,104.237 c 0,1.19365 -4.21082,2.16129 -9.40513,2.16129 -5.19431,0 -9.405132,-0.96764 -9.405134,-2.16129 0,-1.19365 4.210822,-2.1613 9.405134,-2.1613 5.19431,0 9.40513,0.96765 9.40513,2.1613 z"
     id="path7951-7"
     inkscape:connector-curvature="0"
     sodipodi:nodetypes="sssss" />
  <path
     style="color:#000000;display:inline;overflow:visible;visibility:visible;fill:#000000;fill-opacity:1;fill-rule:evenodd;stroke:#000000;stroke-width:1;stroke-linecap:butt;stroke-linejoin:round;stroke-miterlimit:4;stroke-dasharray:none;stroke-dashoffset:0;stroke-opacity:1;marker:none;enable-background:accumulate"
     d="m 110.66646,104.22776 c 0,1.19365 -4.21082,2.1613 -9.40513,2.1613 -5.194305,0 -9.405127,-0.96765 -9.405129,-2.1613 l 0.980213,3.3498 c 0.344843,1.17848 3.857029,2.2233 8.614906,2.2233 4.75789,0 8.39835,-1.01466 8.61492,-2.2233 z"
     id="path7951-0-5"
     inkscape:connector-curvature="0"
     sodipodi:nodetypes="cscsssc" />
  <path
     style="fill:none;fill-rule:evenodd;stroke:#000000;stroke-width:1px;stroke-linecap:round;stroke-linejoin:round;stroke-opacity:1"
     d="m 99.354883,105.69408 c 0.27556,-0.70204 0.36053,-0.41481 0.821137,-0.26127"
     id="path7984-8"
     inkscape:connector-curvature="0"
     sodipodi:nodetypes="cc" />
  <path
     style="fill:none;fill-rule:evenodd;stroke:#000000;stroke-width:1px;stroke-linecap:round;stroke-linejoin:round;stroke-opacity:1"
     d="m 100.95984,104.23843 c 0.40935,0.0944 0.92774,0.34128 1.26903,0"
     id="path7986-4"
     inkscape:connector-curvature="0"
     sodipodi:nodetypes="cc" />
  <path
     style="fill:none;fill-rule:evenodd;stroke:#000000;stroke-width:1px;stroke-linecap:round;stroke-linejoin:round;stroke-opacity:1"
     d="m 99.616163,103.41729 c -0.0922,-0.21746 -0.97842,-0.43991 -1.194386,-0.22395 -0.148948,0.14895 -0.152459,0.37325 -0.410569,0.37325"
     id="path7988-6"
     inkscape:connector-curvature="0"
     sodipodi:nodetypes="ccc" />
  <path
     style="fill:none;fill-rule:evenodd;stroke:#000000;stroke-width:1px;stroke-linecap:round;stroke-linejoin:round;stroke-opacity:1"
     d="m 96.966123,105.32084 c 1.098839,-0.079 0.212175,-0.6306 0.783813,-0.82114"
     id="path7990-7"
     inkscape:connector-curvature="0"
     sodipodi:nodetypes="cc" />
  <path
     style="fill:none;fill-rule:evenodd;stroke:#000000;stroke-width:1px;stroke-linecap:round;stroke-linejoin:round;stroke-opacity:1"
     d="m 95.622443,104.2011 c 0.377725,0.14073 0.236892,-0.12492 0.373244,-0.26127 0.03182,-0.0318 0.303351,-0.0265 0.33592,-0.0373"
     id="path7992-6"
     inkscape:connector-curvature="0"
     sodipodi:nodetypes="ccc" />
  <path
     style="fill:none;fill-rule:evenodd;stroke:#000000;stroke-width:1px;stroke-linecap:round;stroke-linejoin:round;stroke-opacity:1"
     d="m 95.398496,103.56659 c -0.231882,0.10891 -0.458681,0.23114 -0.67184,0.37324"
     id="path7994-8"
     inkscape:connector-curvature="0"
     sodipodi:nodetypes="cc" />
  <path
     style="fill:none;fill-rule:evenodd;stroke:#000000;stroke-width:1px;stroke-linecap:round;stroke-linejoin:round;stroke-opacity:1"
     d="m 94.204113,104.76097 c 0.152524,0.0346 0.857622,0.37409 1.007761,0.22395 0.127943,-0.12795 0.126741,-0.18663 0.373244,-0.18663"
     id="path7996-5"
     inkscape:connector-curvature="0"
     sodipodi:nodetypes="ccc" />
  <path
     style="fill:none;fill-rule:evenodd;stroke:#000000;stroke-width:1px;stroke-linecap:round;stroke-linejoin:round;stroke-opacity:1"
     d="m 103.38593,103.45461 c 0.90669,-0.36964 1.08462,-0.3337 1.64227,0.22395"
     id="path7998-1"
     inkscape:connector-curvature="0"
     sodipodi:nodetypes="cc" />
  <path
     style="fill:none;fill-rule:evenodd;stroke:#000000;stroke-width:1px;stroke-linecap:round;stroke-linejoin:round;stroke-opacity:1"
     d="m 103.75917,105.47013 c 0.63616,-0.014 1.56005,0.26885 2.05284,-0.22394 0.22187,-0.22187 -0.22394,-0.55775 -0.22394,-0.63452 0,-0.24267 1.36969,-0.42188 1.56762,-0.22394"
     id="path8000-3"
     inkscape:connector-curvature="0"
     sodipodi:nodetypes="cssc" />
  <path
     style="fill:none;fill-rule:evenodd;stroke:#000000;stroke-width:1px;stroke-linecap:round;stroke-linejoin:round;stroke-opacity:1"
     d="m 107.23034,104.98492 c 0.17729,-0.0808 0.39994,-0.13867 0.52255,-0.26127"
     id="path8002-3"
     inkscape:connector-curvature="0"
     sodipodi:nodetypes="cc" />
  <path
     style="fill:none;fill-rule:evenodd;stroke:#000000;stroke-width:1px;stroke-linecap:round;stroke-linejoin:round;stroke-opacity:1"
     d="m 108.01416,103.97716 c 0.20343,0.0853 0.29584,0.17326 0.44789,0.22394"
     id="path8004-3"
     inkscape:connector-curvature="0"
     sodipodi:nodetypes="cc" />
  <path
     style="fill:none;fill-rule:evenodd;stroke:#000000;stroke-width:1px;stroke-linecap:round;stroke-linejoin:round;stroke-opacity:1"
     d="m 102.60211,105.24619 c 0.11741,-0.29845 0.39643,-0.45299 0.33592,-0.63452"
     id="path8006-2"
     inkscape:connector-curvature="0"
     sodipodi:nodetypes="cc" />
  <path
     style="fill:none;fill-rule:evenodd;stroke:#000000;stroke-width:1px;stroke-linecap:round;stroke-linejoin:round;stroke-opacity:1"
     d="m 102.75141,103.93983 c 0.0379,-0.18472 0.0669,-0.25354 0.18662,-0.37324"
     id="path8008-4"
     inkscape:connector-curvature="0"
     sodipodi:nodetypes="cc" />
  <path
     style="fill:none;fill-rule:evenodd;stroke:#000000;stroke-width:1px;stroke-linecap:round;stroke-linejoin:round;stroke-opacity:1"
     d="m 97.637963,102.14826 c -0.09771,-0.25816 -0.418278,-0.91769 -0.261271,-1.23171 0.381212,-0.76242 1.361441,-1.173034 1.642271,-2.015524 0.23414,-0.70239 -0.675468,-1.67778 0.0747,-2.05284 0.13426,-0.0671 -0.204147,-1.523716 -1.604948,-1.716927"
     id="path8010-1"
     inkscape:connector-curvature="0"
     sodipodi:nodetypes="csccc" />
  <path
     style="fill:none;fill-rule:evenodd;stroke:#000000;stroke-width:1px;stroke-linecap:round;stroke-linejoin:round;stroke-opacity:1"
     d="m 101.59435,101.99896 c 0.2616,0.0199 0.58756,-0.32748 0.48522,-0.63452 -0.24088,-0.72263 -1.00551,-1.11523 -1.30636,-1.716924 -0.26722,-0.53445 0.28906,-1.74471 0.59719,-2.05284 0.0618,-0.0618 -0.2618,-1.156009 0.22395,-0.970438 1.12523,-0.160301 1.00758,-1.904084 0.97043,-2.015524"
     id="path8012-1"
     inkscape:connector-curvature="0"
     sodipodi:nodetypes="cccscc" />
  <path
     style="fill:none;fill-rule:evenodd;stroke:#000000;stroke-width:1px;stroke-linecap:round;stroke-linejoin:round;stroke-opacity:1"
     d="m 104.58031,103.45461 c -0.12933,-1.21888 0.80476,-1.34824 1.19438,-2.12749 0.004,-0.007 -0.27384,-1.21876 -0.1493,-1.716924 0.066,-0.26393 0.33539,-0.40898 0.41057,-0.63452 0.071,-0.21303 0.27533,-0.32671 0.37325,-0.52254 0.33869,-0.6774 -0.80109,-1.510255 -1.11974,-1.828905"
     id="path8014-3"
     inkscape:connector-curvature="0"
     sodipodi:nodetypes="cccccc" />
  <path
     style="fill:none;fill-rule:evenodd;stroke:#000000;stroke-width:1px;stroke-linecap:butt;stroke-linejoin:miter;stroke-opacity:1"
     d="m 105.58807,109.57583 3.95639,9.03252"
     id="path8016-9"
     inkscape:connector-curvature="0"
     sodipodi:nodetypes="cc" />
  <path
     style="fill:none;fill-rule:evenodd;stroke:#000000;stroke-width:1px;stroke-linecap:butt;stroke-linejoin:miter;stroke-opacity:1"
     d="m 102.67676,109.87442 2.01552,8.9952"
     id="path8020-1"
     inkscape:connector-curvature="0"
     sodipodi:nodetypes="cc" />
  <path
     style="fill:none;fill-rule:evenodd;stroke:#000000;stroke-width:1px;stroke-linecap:butt;stroke-linejoin:miter;stroke-opacity:1"
     d="m 100.43729,109.8371 -1.716923,8.84589"
     id="path8022-3"
     inkscape:connector-curvature="0"
     sodipodi:nodetypes="cc" />
  <path
     style="fill:none;fill-rule:evenodd;stroke:#000000;stroke-width:1px;stroke-linecap:butt;stroke-linejoin:miter;stroke-opacity:1"
     d="m 97.376692,109.65047 -4.44161,9.10717"
     id="path8024-0"
     inkscape:connector-curvature="0"
     sodipodi:nodetypes="cc" />
  <path
     style="color:#000000;display:inline;overflow:visible;visibility:visible;fill:none;fill-rule:evenodd;stroke:#000000;stroke-width:1;stroke-linecap:butt;stroke-linejoin:miter;stroke-miterlimit:4;stroke-dasharray:none;stroke-dashoffset:0;stroke-opacity:1;marker:none;enable-background:accumulate"
     d="m 69.236132,108.75325 c -2e-6,1.19366 -4.210822,2.1613 -9.405133,2.1613 -5.19431,0 -9.405132,-0.96764 -9.405134,-2.1613 0,-1.19365 4.210822,-2.16129 9.405134,-2.16129 5.194312,0 9.405134,0.96764 9.405133,2.16129 z"
     id="path7951-2"
     inkscape:connector-curvature="0"
     sodipodi:nodetypes="sssss" />
  <path
     style="color:#000000;display:inline;overflow:visible;visibility:visible;fill:#000000;fill-opacity:1;fill-rule:evenodd;stroke:#000000;stroke-width:1;stroke-linecap:butt;stroke-linejoin:round;stroke-miterlimit:4;stroke-dasharray:none;stroke-dashoffset:0;stroke-opacity:1;marker:none;enable-background:accumulate"
     d="m 69.236327,108.74402 c -2e-6,1.19365 -4.210822,2.16129 -9.405133,2.16129 -5.19431,0 -9.405132,-0.96764 -9.405134,-2.16129 l 0.980213,3.3498 c 0.344842,1.17847 3.857029,2.22329 8.614914,2.22329 4.757885,0 8.398345,-1.01465 8.614913,-2.22329 z"
     id="path7951-0-2"
     inkscape:connector-curvature="0"
     sodipodi:nodetypes="cscsssc" />
  <path
     style="fill:none;fill-rule:evenodd;stroke:#000000;stroke-width:1px;stroke-linecap:round;stroke-linejoin:round;stroke-opacity:1"
     d="m 57.924747,110.21034 c 0.275557,-0.70204 0.360527,-0.41481 0.821138,-0.26127"
     id="path7984-5"
     inkscape:connector-curvature="0"
     sodipodi:nodetypes="cc" />
  <path
     style="fill:none;fill-rule:evenodd;stroke:#000000;stroke-width:1px;stroke-linecap:round;stroke-linejoin:round;stroke-opacity:1"
     d="m 59.529698,108.75469 c 0.409359,0.0944 0.927748,0.34128 1.269032,0"
     id="path7986-6"
     inkscape:connector-curvature="0"
     sodipodi:nodetypes="cc" />
  <path
     style="fill:none;fill-rule:evenodd;stroke:#000000;stroke-width:1px;stroke-linecap:round;stroke-linejoin:round;stroke-opacity:1"
     d="m 58.186018,107.93355 c -0.09218,-0.21746 -0.97842,-0.43991 -1.194382,-0.22395 -0.148948,0.14895 -0.152459,0.37325 -0.410569,0.37325"
     id="path7988-4"
     inkscape:connector-curvature="0"
     sodipodi:nodetypes="csc" />
  <path
     style="fill:none;fill-rule:evenodd;stroke:#000000;stroke-width:1px;stroke-linecap:round;stroke-linejoin:round;stroke-opacity:1"
     d="m 55.535982,109.83709 c 1.098839,-0.079 0.212175,-0.63059 0.783813,-0.82113"
     id="path7990-4"
     inkscape:connector-curvature="0"
     sodipodi:nodetypes="cc" />
  <path
     style="fill:none;fill-rule:evenodd;stroke:#000000;stroke-width:1px;stroke-linecap:round;stroke-linejoin:round;stroke-opacity:1"
     d="m 54.192302,108.71736 c 0.377725,0.14073 0.236892,-0.12492 0.373244,-0.26127 0.03182,-0.0318 0.303351,-0.0265 0.33592,-0.0373"
     id="path7992-1"
     inkscape:connector-curvature="0"
     sodipodi:nodetypes="ccc" />
  <path
     style="fill:none;fill-rule:evenodd;stroke:#000000;stroke-width:1px;stroke-linecap:round;stroke-linejoin:round;stroke-opacity:1"
     d="m 53.968355,108.08285 c -0.231882,0.10891 -0.458681,0.23113 -0.67184,0.37324"
     id="path7994-7"
     inkscape:connector-curvature="0"
     sodipodi:nodetypes="cc" />
  <path
     style="fill:none;fill-rule:evenodd;stroke:#000000;stroke-width:1px;stroke-linecap:round;stroke-linejoin:round;stroke-opacity:1"
     d="m 52.773972,109.27723 c 0.152524,0.0346 0.857622,0.37408 1.007761,0.22394 0.127943,-0.12794 0.126741,-0.18662 0.373244,-0.18662"
     id="path7996-3"
     inkscape:connector-curvature="0"
     sodipodi:nodetypes="ccc" />
  <path
     style="fill:none;fill-rule:evenodd;stroke:#000000;stroke-width:1px;stroke-linecap:round;stroke-linejoin:round;stroke-opacity:1"
     d="m 61.955788,107.97087 c 0.906693,-0.36964 1.084624,-0.3337 1.642275,0.22395"
     id="path7998-6"
     inkscape:connector-curvature="0"
     sodipodi:nodetypes="cc" />
  <path
     style="fill:none;fill-rule:evenodd;stroke:#000000;stroke-width:1px;stroke-linecap:round;stroke-linejoin:round;stroke-opacity:1"
     d="m 62.329032,109.98639 c 0.636156,-0.014 1.560052,0.26885 2.052845,-0.22394 0.221865,-0.22187 -0.223947,-0.55775 -0.223947,-0.63452 0,-0.24268 1.36969,-0.42188 1.567627,-0.22395"
     id="path8000-1"
     inkscape:connector-curvature="0"
     sodipodi:nodetypes="ccsc" />
  <path
     style="fill:none;fill-rule:evenodd;stroke:#000000;stroke-width:1px;stroke-linecap:round;stroke-linejoin:round;stroke-opacity:1"
     d="m 65.800206,109.50117 c 0.177283,-0.0808 0.399936,-0.13866 0.522542,-0.26127"
     id="path8002-1"
     inkscape:connector-curvature="0"
     sodipodi:nodetypes="cc" />
  <path
     style="fill:none;fill-rule:evenodd;stroke:#000000;stroke-width:1px;stroke-linecap:round;stroke-linejoin:round;stroke-opacity:1"
     d="m 66.58402,108.49341 c 0.203431,0.0853 0.295839,0.17327 0.447893,0.22395"
     id="path8004-6"
     inkscape:connector-curvature="0"
     sodipodi:nodetypes="cc" />
  <path
     style="fill:none;fill-rule:evenodd;stroke:#000000;stroke-width:1px;stroke-linecap:round;stroke-linejoin:round;stroke-opacity:1"
     d="m 61.171974,109.76245 c 0.117404,-0.29846 0.39643,-0.45299 0.33592,-0.63452"
     id="path8006-0"
     inkscape:connector-curvature="0"
     sodipodi:nodetypes="cc" />
  <path
     style="fill:none;fill-rule:evenodd;stroke:#000000;stroke-width:1px;stroke-linecap:round;stroke-linejoin:round;stroke-opacity:1"
     d="m 61.321272,108.45609 c 0.03789,-0.18472 0.06691,-0.25354 0.186622,-0.37324"
     id="path8008-5"
     inkscape:connector-curvature="0"
     sodipodi:nodetypes="cc" />
  <path
     style="fill:none;fill-rule:evenodd;stroke:#000000;stroke-width:1px;stroke-linecap:round;stroke-linejoin:round;stroke-opacity:1"
     d="m 56.207822,106.66452 c -0.09771,-0.25816 -0.418278,-0.9177 -0.261271,-1.23171 0.381212,-0.76242 0.838903,-1.21036 1.119734,-2.05285 0.234131,-0.70239 -0.152931,-1.64045 0.597192,-2.01552 0.134258,-0.0671 0.01976,-0.21736 0.223946,-0.14929"
     id="path8010-5"
     inkscape:connector-curvature="0"
     sodipodi:nodetypes="csscc" />
  <path
     style="fill:none;fill-rule:evenodd;stroke:#000000;stroke-width:1px;stroke-linecap:round;stroke-linejoin:round;stroke-opacity:1"
     d="m 60.164214,106.51522 c 0.261596,0.0199 0.587561,-0.32749 0.485218,-0.63452 -0.24088,-0.72264 -1.005513,-1.11524 -1.306356,-1.71692 -0.267227,-0.53446 0.289055,-1.74471 0.597191,-2.05285 0.06181,-0.0618 0.186083,-0.0736 0.223947,-0.14929 0.751988,-0.7575 1.007582,-2.874523 2.35144,-3.844425"
     id="path8012-0"
     inkscape:connector-curvature="0"
     sodipodi:nodetypes="cssccc" />
  <path
     style="fill:none;fill-rule:evenodd;stroke:#000000;stroke-width:1px;stroke-linecap:round;stroke-linejoin:round;stroke-opacity:1"
     d="m 63.15017,107.97087 c -0.12933,-1.21889 0.804758,-1.34824 1.194382,-2.12749 0.0037,-0.007 -0.273839,-1.21876 -0.149297,-1.71693 0.06598,-0.26392 0.33539,-0.40898 0.410569,-0.63451 0.07101,-0.21303 0.275329,-0.32672 0.373244,-0.52254 0.338698,-0.6774 -0.278543,-1.13701 -0.597191,-1.45566"
     id="path8014-2"
     inkscape:connector-curvature="0"
     sodipodi:nodetypes="ccsscc" />
  <path
     style="fill:none;fill-rule:evenodd;stroke:#000000;stroke-width:1px;stroke-linecap:butt;stroke-linejoin:miter;stroke-opacity:1"
     d="m 64.15793,114.09208 2.161468,5.02667"
     id="path8016-1"
     inkscape:connector-curvature="0"
     sodipodi:nodetypes="cc" />
  <path
     style="fill:none;fill-rule:evenodd;stroke:#000000;stroke-width:1px;stroke-linecap:butt;stroke-linejoin:miter;stroke-opacity:1"
     d="m 61.246623,114.39068 1.15323,4.83375"
     id="path8020-6"
     inkscape:connector-curvature="0"
     sodipodi:nodetypes="cc" />
  <path
     style="fill:none;fill-rule:evenodd;stroke:#000000;stroke-width:1px;stroke-linecap:butt;stroke-linejoin:miter;stroke-opacity:1"
     d="m 59.007156,114.35335 -0.712431,4.93789"
     id="path8022-4"
     inkscape:connector-curvature="0"
     sodipodi:nodetypes="cc" />
  <path
     style="fill:none;fill-rule:evenodd;stroke:#000000;stroke-width:1px;stroke-linecap:butt;stroke-linejoin:miter;stroke-opacity:1"
     d="m 55.946551,114.16673 -2.299304,5.17343"
     id="path8024-2"
     inkscape:connector-curvature="0"
     sodipodi:nodetypes="cc" />
  <path
     style="fill:#000000;fill-opacity:1;stroke:#000000;stroke-width:1;stroke-linecap:butt;stroke-linejoin:round;stroke-miterlimit:4;stroke-dasharray:none;stroke-opacity:1"
     d="m 114.98459,117.85125 0,-22.199995 -13.51923,-9.249998 -13.163462,9.249997 0,22.199996 z m -27.180769,2.41923 -3.060611,0 0.002,-24.517861 -3.558694,0 19.851914,-13.874995 6.07896,3.925153 -0.0339,-1.978853 6.12371,0.03211 0.1273,5.96111 9.19239,5.935479 -4.05477,-3e-6 -0.002,24.51786 -3.05861,0 0,-0.85385 -2.41923,0 0,0.85385 -3.62885,0 0,-0.85385 -5.05192,0 0,0.85385 -2.49038,0 0,-0.85385 -7.328849,0 0,0.85385 -4.126922,0 0,-0.85385 -2.561538,0 z"
     id="path14359-1-7-5-3-0-73-1-9-6"
     inkscape:connector-curvature="0"
     sodipodi:nodetypes="cccccccccccccccccccccccccccccccccc" />
  <path
     style="fill:none;stroke:#000000;stroke-width:4;stroke-linecap:butt;stroke-linejoin:round;stroke-miterlimit:4;stroke-dasharray:none;stroke-opacity:1"
     d="m 102.83775,77.629866 -0.15203,-9.824245 -5.292275,-3.590635 c -2.061729,-1.398816 -3.219856,-3.98382 -4.36119,-6.097282 -0.842772,-1.560601 -2.10732,-2.972751 -4.516907,-2.972867 l -27.18076,-0.0013 -2.490387,11.953688 0,10.957689"
     id="path14359-1-7-5-3-0-73-1-9-6-0"
     inkscape:connector-curvature="0"
     sodipodi:nodetypes="ccsssccc" />
  <path
     style="fill:none;stroke:#000000;stroke-width:2;stroke-linecap:round;stroke-linejoin:round;stroke-miterlimit:4;stroke-dasharray:none;stroke-opacity:1"
     d="m 56.831436,78.197096 48.140934,0.002"
     id="path14359-1-7-5-3-0-73-1-9-6-4"
     inkscape:connector-curvature="0"
     sodipodi:nodetypes="cc" />
  <path
     style="fill:none;stroke:#000000;stroke-width:10;stroke-linecap:round;stroke-linejoin:round;stroke-miterlimit:4;stroke-dasharray:none;stroke-opacity:1"
     d="m 92.927897,78.462241 -0.002,-0.03021"
     id="path14359-1-7-5-3-0-73-1-9-6-5"
     inkscape:connector-curvature="0"
     sodipodi:nodetypes="cc" />
  <path
     style="fill:none;stroke:#000000;stroke-width:10;stroke-linecap:round;stroke-linejoin:round;stroke-miterlimit:4;stroke-dasharray:none;stroke-opacity:1"
     d="m 67.383673,78.142048 -0.002,-0.03021"
     id="path14359-1-7-5-3-0-73-1-9-6-5-0"
     inkscape:connector-curvature="0"
     sodipodi:nodetypes="cc" />
  <path
     style="fill:none;stroke:#000000;stroke-width:3;stroke-linecap:butt;stroke-linejoin:round;stroke-miterlimit:4;stroke-dasharray:none;stroke-opacity:1"
     d="m 42.458363,119.39517 40.314008,0.002"
     id="path14359-1-7-5-3-0-73-1-9-5"
     inkscape:connector-curvature="0"
     sodipodi:nodetypes="cc" />
  <path
     style="fill:none;stroke:#000000;stroke-width:4;stroke-linecap:butt;stroke-linejoin:miter;stroke-miterlimit:4;stroke-dasharray:none;stroke-opacity:1"
     d="M 77.627824,119.20317 59.663483,89.348772 43.545142,118.42048"
     id="path14359-1-7-5-3-0-73-1-9-8"
     inkscape:connector-curvature="0"
     sodipodi:nodetypes="ccc" />
  <path
     style="fill:none;stroke:#000000;stroke-width:2;stroke-linecap:butt;stroke-linejoin:miter;stroke-miterlimit:4;stroke-dasharray:none;stroke-opacity:1"
     d="m 56.781754,82.73147 5.903767,9.789017"
     id="path14359-1-7-5-3-0-73-1-9-4"
     inkscape:connector-curvature="0"
     sodipodi:nodetypes="cc" />
  <path
     style="fill:none;stroke:#000000;stroke-width:2;stroke-linecap:butt;stroke-linejoin:miter;stroke-miterlimit:4;stroke-dasharray:none;stroke-opacity:1"
     d="M 62.260598,82.589162 54.929754,95.793563"
     id="path14359-1-7-5-3-0-73-1-9-2"
     inkscape:connector-curvature="0"
     sodipodi:nodetypes="cc" />
  <path
     style="fill:none;stroke:#000000;stroke-width:4;stroke-linecap:butt;stroke-linejoin:miter;stroke-miterlimit:4;stroke-dasharray:none;stroke-opacity:1"
     d="M 25.118301,37.406483 134.40858,140.97624"
     id="path14359-1-7-5-3-0-73-1-9-03"
     inkscape:connector-curvature="0"
     sodipodi:nodetypes="cc" />
  <path
     style="fill:none;stroke:#000000;stroke-width:4;stroke-linecap:butt;stroke-linejoin:miter;stroke-miterlimit:4;stroke-dasharray:none;stroke-opacity:1"
     d="M 133.16538,35.947829 27.78457,140.86951"
     id="path14359-1-7-5-3-0-73-1-9-03-8"
     inkscape:connector-curvature="0"
     sodipodi:nodetypes="cc" />
  <path
     style="fill:none;stroke:#000000;stroke-width:2;stroke-linecap:butt;stroke-linejoin:round;stroke-miterlimit:4;stroke-dasharray:none;stroke-opacity:1"
     d="m 24.247796,25.05222 -17.2240755,0 8.6478105,-14.627027 z"
     id="path14359-1-7-5-3-0-73-1-9-50"
     inkscape:connector-curvature="0"
     sodipodi:nodetypes="cccc" />
  <text
     xml:space="preserve"
     style="font-style:normal;font-variant:normal;font-weight:normal;font-stretch:normal;font-size:12.5px;line-height:160.00000238%;font-family:Arial;-inkscape-font-specification:Arial;text-align:start;letter-spacing:0.40000001px;word-spacing:0px;text-anchor:start;fill:#000000;fill-opacity:1;stroke:none;stroke-width:1px;stroke-linecap:butt;stroke-linejoin:miter;stroke-opacity:1"
     x="13.914351"
     y="23.243656"
     id="text8323"
     sodipodi:linespacing="160%"><tspan
       sodipodi:role="line"
       id="tspan8325"
       x="13.914351"
       y="23.243656">!</tspan></text>
</svg>
