<?xml version="1.0" encoding="UTF-8" standalone="no"?>
<!-- Created with Inkscape (http://www.inkscape.org/) -->

<svg
   xmlns:dc="http://purl.org/dc/elements/1.1/"
   xmlns:cc="http://creativecommons.org/ns#"
   xmlns:rdf="http://www.w3.org/1999/02/22-rdf-syntax-ns#"
   xmlns:svg="http://www.w3.org/2000/svg"
   xmlns="http://www.w3.org/2000/svg"
   xmlns:sodipodi="http://sodipodi.sourceforge.net/DTD/sodipodi-0.dtd"
   xmlns:inkscape="http://www.inkscape.org/namespaces/inkscape"
   id="svg27281"
   version="1.1"
   inkscape:version="0.48.2 r9819"
   width="405"
   height="107"
   viewBox="0 0 405 107"
   sodipodi:docname="er06ap10.003.svg">
  <title id="title_er06ap10.003">Power Source 480 or 995 volts to a step-up transformer to 2300 volts for tramming</title>
  <desc id="desc_er06ap10.003">Diagram of portable transformer, low or medium voltage trailing cable, step up transformer, and HV Mining Machine</desc>
  <metadata
     id="metadata27287">
    <rdf:RDF>
      <cc:Work
         rdf:about="">
        <dc:format>image/svg+xml</dc:format>
        <dc:type
           rdf:resource="http://purl.org/dc/dcmitype/StillImage" />
        <dc:title></dc:title>
      </cc:Work>
    </rdf:RDF>
  </metadata>
  <defs
     id="defs27285" />
  <sodipodi:namedview
     pagecolor="#ffffff"
     bordercolor="#666666"
     borderopacity="1"
     objecttolerance="10"
     gridtolerance="10"
     guidetolerance="10"
     inkscape:pageopacity="0"
     inkscape:pageshadow="2"
     inkscape:window-width="1909"
     inkscape:window-height="1152"
     id="namedview27283"
     showgrid="false"
     inkscape:zoom="2.5428171"
     inkscape:cx="158.68497"
     inkscape:cy="49.496961"
     inkscape:window-x="0"
     inkscape:window-y="0"
     inkscape:window-maximized="0"
     inkscape:current-layer="svg27281" />
  <path
     style="fill:#666666;fill-opacity:1;stroke:none"
     d="m 252.3247,21.303881 -1.4e-4,7.28295 -4.38867,0 -0.002,9.7016 -60.13351,-7.43755 -1.60241,0.55091 -0.57235,-0.86028 -1.06108,-0.0908 3.2226,-3.51983 2.5831,6e-5 0.38857,0.66615 59.12061,0.002 0,-6.27019 -0.67465,-0.025 0,-2.30039 23.53447,8e-5 c 1.38247,0 1.43585,2.30031 -4e-5,2.30031 l -1.54575,0 4.62262,7.29624 -3.07341,0 -4.32278,-7.29624 z"
     id="path6035-1-1-5"
     inkscape:connector-curvature="0"
     sodipodi:nodetypes="cccccccccccccccssccccc" />
  <path
     style="fill:#666666;fill-opacity:1;stroke:none"
     d="m 3.9827303,33.083741 72.7313317,0.002 -0.002,20.165842 -72.7318467,-0.0108 z"
     id="path6035-1-1"
     inkscape:connector-curvature="0"
     sodipodi:nodetypes="ccccc" />
  <path
     style="fill:#666666;fill-opacity:1;stroke:none"
     d="m 368.81232,36.758121 18.05514,7.08316 c 0.89339,0.35049 0.82573,1.17568 0.0921,1.18718 l -35.16817,0.55171 -1.66518,0.67263 -4.42974,-0.004 0.002,-17.58977 2.47473,0.002 6.64966,2.60871 c 5.45332,-1.05297 10.91603,-1.9746 16.35996,-2.97503 6.88498,-1.26524 13.76249,-1.02241 13.96042,-1.49672 1.44657,-4.02682 5.29874,-6.90671 9.82355,-6.90671 5.76319,0 10.43517,4.67199 10.43517,10.43517 0,5.76319 -4.67198,10.43517 -10.43517,10.43517 -3.77982,0 -7.0883,-2.0691 -8.92113,-5.01872 -0.6661,-1.07196 -1.76842,-1.29652 -2.84638,-1.04265 -5.25991,0.16372 -16.24162,1.33007 -14.38746,2.05747 z"
     id="path6035-1-1-5-5"
     inkscape:connector-curvature="0"
     sodipodi:nodetypes="cssccccccscsssscsc" />
  <text
     xml:space="preserve"
     style="font-style:normal;font-variant:normal;font-weight:normal;font-stretch:normal;font-size:7.5px;line-height:125%;font-family:Arial;-inkscape-font-specification:Arial;text-align:start;letter-spacing:1.39999998px;word-spacing:0px;text-anchor:start;fill:#000000;fill-opacity:1;stroke:none;stroke-width:1px;stroke-linecap:butt;stroke-linejoin:miter;stroke-opacity:1"
     x="-0.42522693"
     y="14.075989"
     id="text27062"
     sodipodi:linespacing="125%"><tspan
       sodipodi:role="line"
       id="tspan27064"
       x="-0.42522693"
       y="14.075989">Portable Transformer or low- to</tspan><tspan
       sodipodi:role="line"
       x="-0.42522693"
       y="23.450989"
       id="tspan27911">medium-voltage diesel generator</tspan></text>
  <text
     xml:space="preserve"
     style="font-style:normal;font-variant:normal;font-weight:normal;font-stretch:normal;font-size:7.5px;line-height:125%;font-family:Arial;-inkscape-font-specification:Arial;text-align:start;letter-spacing:1.26999998px;word-spacing:0px;text-anchor:start;fill:#000000;fill-opacity:1;stroke:none;stroke-width:1px;stroke-linecap:butt;stroke-linejoin:miter;stroke-opacity:1"
     x="90.039932"
     y="55.110729"
     id="text27062-7"
     sodipodi:linespacing="125%"><tspan
       sodipodi:role="line"
       x="90.039932"
       y="55.110729"
       id="tspan27084">Low or Medium Voltage</tspan><tspan
       sodipodi:role="line"
       x="90.039932"
       y="64.485725"
       id="tspan27907">Trailing Cable</tspan></text>
  <text
     xml:space="preserve"
     style="font-style:normal;font-variant:normal;font-weight:normal;font-stretch:normal;font-size:7.5px;line-height:125%;font-family:Arial;-inkscape-font-specification:Arial;text-align:start;letter-spacing:2.20000005px;word-spacing:0px;text-anchor:start;fill:#000000;fill-opacity:1;stroke:none;stroke-width:1px;stroke-linecap:butt;stroke-linejoin:miter;stroke-opacity:1"
     x="274.87106"
     y="7.6988835"
     id="text27062-72"
     sodipodi:linespacing="125%"><tspan
       sodipodi:role="line"
       id="tspan27064-8"
       x="274.87106"
       y="7.6988835">HV Mining Machine</tspan></text>
  <text
     xml:space="preserve"
     style="font-size:7.5px;font-style:normal;font-variant:normal;font-weight:normal;font-stretch:normal;text-align:start;line-height:125%;letter-spacing:2.4000001px;word-spacing:0px;text-anchor:start;fill:#000000;fill-opacity:1;stroke:none;font-family:Arial;-inkscape-font-specification:Arial"
     x="14.949944"
     y="93.298897"
     id="text27062-72-4"
     sodipodi:linespacing="125%"><tspan
       sodipodi:role="line"
       id="tspan27064-8-3"
       x="14.949944"
       y="93.298897">Figure 2 - Power Source - 75.829(c)(2) 480 or 995 volts to a</tspan><tspan
       sodipodi:role="line"
       x="14.949944"
       y="102.6739"
       id="tspan27909">step-up transformer to 2300 volts for tramming</tspan></text>
  <path
     style="fill:#afafaf;fill-opacity:1;stroke:none"
     d="m 248.01853,46.271601 -0.0766,-17.69428 97.74937,0.0812 0.0535,17.59331 z"
     id="path7965-0-6-7-8"
     inkscape:connector-curvature="0"
     sodipodi:nodetypes="ccccc" />
  <path
     style="color:#000000;display:inline;overflow:visible;visibility:visible;fill:#666666;fill-opacity:1;fill-rule:evenodd;stroke:none;stroke-width:1.04465795;stroke-linecap:butt;stroke-linejoin:miter;stroke-miterlimit:4;stroke-dasharray:none;stroke-dashoffset:0;stroke-opacity:1;marker:none;enable-background:accumulate"
     d="m 269.30163,52.360691 c -1.84654,0 -3.34345,-1.49691 -3.34345,-3.34345 0,-1.84653 1.49691,-3.34345 3.34345,-3.34345 l 59.70466,0 c 1.84653,0 3.34345,1.49692 3.34345,3.34345 0,1.84654 -1.49692,3.34345 -3.34345,3.34345 z"
     id="path27041"
     inkscape:connector-curvature="0"
     sodipodi:nodetypes="sssssss" />
  <path
     style="fill:none;stroke:#000000;stroke-width:2;stroke-linecap:butt;stroke-linejoin:miter;stroke-miterlimit:4;stroke-dasharray:none;stroke-opacity:1"
     d="m 75.864298,42.927077 92.253642,-0.987802 c 4.93633,-0.05286 4.81331,-2.634442 6.08137,-5.904927 2.0235,-5.218901 3.7873,-12.180021 11.11051,-12.180903 l 46.47663,-0.0056 c 5.02067,-6.05e-4 6.63594,4.344044 7.25864,8.525159 0.65128,4.372914 8.81791,8.712401 11.22351,8.686645 l 5.05375,-0.05411"
     id="path14359-1-7-5-3-0-73-1-9"
     inkscape:connector-curvature="0"
     sodipodi:nodetypes="cssssssc" />
  <path
     style="fill:none;stroke:#000000;stroke-width:6;stroke-linecap:butt;stroke-linejoin:miter;stroke-miterlimit:4;stroke-dasharray:none;stroke-opacity:1"
     d="m 200.41444,23.850059 15.16321,-0.003"
     id="path14359-1-7-5-3-0-73-1-9-8-9"
     inkscape:connector-curvature="0"
     sodipodi:nodetypes="cc" />
  <path
     style="fill:none;fill-rule:evenodd;stroke:#000000;stroke-width:1px;stroke-linecap:butt;stroke-linejoin:miter;stroke-opacity:1"
     d="M 188.50009,9.1678667 204.94246,19.503074"
     id="path27903"
     inkscape:connector-curvature="0" />
  <text
     xml:space="preserve"
     style="font-size:7.5px;font-style:normal;font-variant:normal;font-weight:normal;font-stretch:normal;text-align:start;line-height:125%;letter-spacing:1.26999998px;word-spacing:0px;text-anchor:start;fill:#000000;fill-opacity:1;stroke:none;font-family:Arial;-inkscape-font-specification:Arial"
     x="167.24072"
     y="5.4982224"
     id="text27062-7-5"
     sodipodi:linespacing="125%"><tspan
       sodipodi:role="line"
       x="167.24072"
       y="5.4982224"
       id="tspan27907-2">Step-up transformer</tspan></text>
</svg>
