<?xml version="1.0" encoding="UTF-8" standalone="no"?>
<!-- Created with Inkscape (http://www.inkscape.org/) -->

<svg
   xmlns:dc="http://purl.org/dc/elements/1.1/"
   xmlns:cc="http://creativecommons.org/ns#"
   xmlns:rdf="http://www.w3.org/1999/02/22-rdf-syntax-ns#"
   xmlns:svg="http://www.w3.org/2000/svg"
   xmlns="http://www.w3.org/2000/svg"
   xmlns:sodipodi="http://sodipodi.sourceforge.net/DTD/sodipodi-0.dtd"
   xmlns:inkscape="http://www.inkscape.org/namespaces/inkscape"
   id="svg17773"
   version="1.1"
   inkscape:version="0.48.2 r9819"
   width="112"
   height="99"
   viewBox="0 0 112 99"
   sodipodi:docname="er09ap12.000.svg">
  <title id="title_er09ap12.000"></title>
  <desc id="desc_er09ap12.000"></desc>
  <metadata
     id="metadata17779">
    <rdf:RDF>
      <cc:Work
         rdf:about="">
        <dc:format>image/svg+xml</dc:format>
        <dc:type
           rdf:resource="http://purl.org/dc/dcmitype/StillImage" />
        <dc:title></dc:title>
      </cc:Work>
    </rdf:RDF>
  </metadata>
  <defs
     id="defs17777" />
  <sodipodi:namedview
     pagecolor="#ffffff"
     bordercolor="#666666"
     borderopacity="1"
     objecttolerance="10"
     gridtolerance="10"
     guidetolerance="10"
     inkscape:pageopacity="0"
     inkscape:pageshadow="2"
     inkscape:window-width="1911"
     inkscape:window-height="1156"
     id="namedview17775"
     showgrid="false"
     inkscape:zoom="6.9067905"
     inkscape:cx="30.373046"
     inkscape:cy="49.5"
     inkscape:window-x="0"
     inkscape:window-y="0"
     inkscape:window-maximized="0"
     inkscape:current-layer="svg17773" />
  <path
     style="color:#000000;display:inline;overflow:visible;visibility:visible;fill:none;fill-rule:evenodd;stroke:#000000;stroke-width:1;stroke-linecap:butt;stroke-linejoin:miter;stroke-miterlimit:4;stroke-dasharray:none;stroke-dashoffset:0;stroke-opacity:1;marker:none;enable-background:accumulate"
     d="m 103.02937,27.294824 a 6.918523,6.918523 0 0 1 -6.918519,6.918524 6.918523,6.918523 0 0 1 -6.918524,-6.918524 6.918523,6.918523 0 0 1 6.918524,-6.918523 6.918523,6.918523 0 0 1 6.918519,6.918523 z"
     id="path82106"
     inkscape:connector-curvature="0" />
  <path
     style="color:#000000;display:inline;overflow:visible;visibility:visible;fill:none;fill-rule:evenodd;stroke:#000000;stroke-width:1;stroke-linecap:butt;stroke-linejoin:miter;stroke-miterlimit:4;stroke-dasharray:none;stroke-dashoffset:0;stroke-opacity:1;marker:none;enable-background:accumulate"
     d="m 103.56932,70.058754 c 0,3.820994 -3.09752,6.918522 -6.918517,6.918524 -3.820996,10e-7 -6.918525,-3.097528 -6.918524,-6.918524 0,-3.820995 3.097529,-6.918523 6.918524,-6.918523 3.820997,3e-6 6.918517,3.09753 6.918517,6.918523 z"
     id="path82106-5"
     inkscape:connector-curvature="0"
     sodipodi:nodetypes="sssss" />
  <path
     style="fill:none;stroke:#000000;stroke-width:1;stroke-linecap:butt;stroke-linejoin:round;stroke-miterlimit:4;stroke-dasharray:none;stroke-opacity:1"
     d="m 8.8541565,63.149325 43.7358365,0 0.0019,-48.273322 m 20.410173,3.237784 -10.583991,-3.347681 -18.358253,0 c -1.816013,0 -3.67165,1.768763 -3.67165,3.67165 l 0,11.77088 c 0,2.314852 -1.228635,3.239691 -3.455672,3.239691 l -28.0763275,0"
     id="path14359-1-7-5-3-0-73-1-9"
     inkscape:connector-curvature="0"
     sodipodi:nodetypes="cccccssssc" />
  <path
     style="fill:none;stroke:#000000;stroke-width:1;stroke-linecap:butt;stroke-linejoin:miter;stroke-miterlimit:4;stroke-dasharray:none;stroke-opacity:1"
     d="m 8.7481674,30.208636 -7.734e-4,13.824596 7.127225,3.995632 -13.8228898,0.323957 6.6952117,3.77964 -7.735e-4,13.824597"
     id="path14359-1-7-5-3-0-73-1-9-1"
     inkscape:connector-curvature="0"
     sodipodi:nodetypes="cccccc" />
  <path
     style="fill:none;stroke:#000000;stroke-width:1;stroke-linecap:butt;stroke-linejoin:round;stroke-miterlimit:4;stroke-dasharray:none;stroke-opacity:1"
     d="m 99.539735,25.793454 0.004,3.753317 -7.316434,-0.01047 0,-2.806839 c 0,-0.578661 0.386626,-0.943578 0.970959,-0.943578 l 6.313546,0 c 1.39928,0 2.17658,-0.885652 2.1573,-2.484686 l -0.0508,-4.212708 c -0.0149,-1.23716 -1.39746,-2.0519 -2.807746,-2.051996 L 77.3206,17.034992 c -4.137197,-2.83e-4 -7.352148,3.37212 -10.203757,6.184245 -5.141923,5.070728 -11.174497,11.444184 -14.5278,15.413477"
     id="path14359-1-7-5-3-0-73-1-9-9"
     inkscape:connector-curvature="0"
     sodipodi:nodetypes="cccssssssssc" />
  <path
     style="fill:none;stroke:#000000;stroke-width:1;stroke-linecap:butt;stroke-linejoin:round;stroke-miterlimit:4;stroke-dasharray:none;stroke-opacity:1"
     d="m 52.579821,63.083967 -3.19e-4,1.482827 3.834696,0 c 4.153883,5.222149 9.408844,9.635579 14.925964,13.605878 3.47557,2.501134 7.878085,4.037236 11.161915,4.030453 4.20179,-0.0087 9.423817,-1.901763 12.534112,-5.360995"
     id="path14359-1-7-5-3-0-73-1-9-5"
     inkscape:connector-curvature="0"
     sodipodi:nodetypes="cccssc" />
  <path
     style="fill:none;stroke:#000000;stroke-width:1;stroke-linecap:butt;stroke-linejoin:round;stroke-miterlimit:4;stroke-dasharray:none;stroke-opacity:1"
     d="m 52.558707,33.334773 42.963649,5e-4 0,31.151963 -42.963649,-5e-4 m 45.487795,-31.150963 12.112408,10e-4"
     id="path14359-1-7-5-3-0-73-1-9-0"
     inkscape:connector-curvature="0"
     sodipodi:nodetypes="cccccc" />
  <path
     style="fill:none;stroke:#000000;stroke-width:1;stroke-linecap:butt;stroke-linejoin:round;stroke-miterlimit:4;stroke-dasharray:none;stroke-opacity:1"
     d="m 98.046502,64.487736 12.112408,0.001"
     id="path14359-1-7-5-3-0-73-1-9-4"
     inkscape:connector-curvature="0"
     sodipodi:nodetypes="cc" />
  <path
     style="fill:none;stroke:#000000;stroke-width:1;stroke-linecap:butt;stroke-linejoin:round;stroke-miterlimit:4;stroke-dasharray:none;stroke-opacity:1"
     d="m 52.481728,62.347501 1.062222,4.05e-4 0,3.480869 c 10.325585,1.901053 22.736276,2.65543 31.980527,-3.06976"
     id="path14359-1-7-5-3-0-73-1-9-16"
     inkscape:connector-curvature="0"
     sodipodi:nodetypes="cccc" />
  <path
     style="fill:none;stroke:#000000;stroke-width:1;stroke-linecap:butt;stroke-linejoin:round;stroke-miterlimit:4;stroke-dasharray:none;stroke-opacity:1"
     d="m 52.584106,36.752878 c 10.062347,-4.113322 22.633763,-3.843497 33.349885,1.128164"
     id="path14359-1-7-5-3-0-73-1-9-8"
     inkscape:connector-curvature="0"
     sodipodi:nodetypes="cc" />
  <path
     style="fill:none;stroke:#000000;stroke-width:1;stroke-linecap:butt;stroke-linejoin:round;stroke-miterlimit:4;stroke-dasharray:none;stroke-opacity:1"
     d="m 83.746605,39.991552 -0.002,20.552574 3.685626,3.788004 0.002,-27.61669 z"
     id="path14359-1-7-5-3-0-73-1-9-82"
     inkscape:connector-curvature="0"
     sodipodi:nodetypes="ccccc" />
  <path
     style="fill:none;stroke:#000000;stroke-width:1;stroke-linecap:butt;stroke-linejoin:round;stroke-miterlimit:4;stroke-dasharray:none;stroke-opacity:1"
     d="m 92.039262,33.33695 -3.686341,11.095328 -6.08e-4,9.418808 3.684949,10.481044"
     id="path14359-1-7-5-3-0-73-1-9-88"
     inkscape:connector-curvature="0"
     sodipodi:nodetypes="cccc" />
  <path
     style="fill:none;stroke:#000000;stroke-width:1;stroke-linecap:butt;stroke-linejoin:round;stroke-miterlimit:4;stroke-dasharray:none;stroke-opacity:1"
     d="m 79.612028,49.140675 10.890557,7.32e-4 m 3.480876,2.34e-4 15.395209,0.001"
     id="path14359-1-7-5-3-0-73-1-9-7"
     inkscape:connector-curvature="0"
     sodipodi:nodetypes="cccc" />
  <path
     style="fill:none;stroke:#000000;stroke-width:1;stroke-linecap:butt;stroke-linejoin:round;stroke-miterlimit:4;stroke-dasharray:none;stroke-opacity:1"
     d="m 52.623543,2.3162677 -0.002,11.0313743"
     id="path14359-1-7-5-3-0-73-1-9-80"
     inkscape:connector-curvature="0"
     sodipodi:nodetypes="cc" />
  <path
     style="fill:none;stroke:#000000;stroke-width:1;stroke-linecap:butt;stroke-linejoin:round;stroke-miterlimit:4;stroke-dasharray:none;stroke-opacity:1"
     d="m 40.542881,2.3162677 -0.002,12.2599163"
     id="path14359-1-7-5-3-0-73-1-9-79"
     inkscape:connector-curvature="0"
     sodipodi:nodetypes="cc" />
  <path
     style="fill:none;stroke:#000000;stroke-width:1;stroke-linecap:butt;stroke-linejoin:round;stroke-miterlimit:4;stroke-dasharray:none;stroke-opacity:1"
     d="m 45.559428,63.231469 -7.88e-4,10.276279 c -1.37e-4,1.785341 -1.945153,1.057882 -1.945305,2.968969 l -5.92e-4,7.473653 c -1.28e-4,1.620563 1.220157,2.559438 2.76396,2.559438 l 6.348219,0 c 1.320806,0 1.637326,-0.71123 1.637303,-1.740434 l -5.4e-5,-2.457062 c -3.7e-5,-1.665164 0.892604,-4.300597 3.387487,-4.25821 l 2.963366,0.05035 c 1.768018,0.03004 1.490163,1.457375 2.76074,1.54602 m -9.103517,5.117114 c -0.0081,-2.455274 1.756479,-5.093996 4.085948,-5.07579 l 4.927391,0.03851 4.492453,0.227303 c 2.937523,0.148629 10.273068,5.831775 18.56546,5.725142 5.419665,-0.06969 13.967851,-3.488948 14.098241,-6.330357 l 0.0973,-2.12057"
     id="path14359-1-7-5-3-0-73-1-9-41"
     inkscape:connector-curvature="0"
     sodipodi:nodetypes="csssssssssccscsssc" />
  <path
     style="fill:none;stroke:#000000;stroke-width:1;stroke-linecap:butt;stroke-linejoin:round;stroke-miterlimit:4;stroke-dasharray:none;stroke-opacity:1"
     d="m 99.237703,72.285763 0.004,-3.753317 -6.702163,0.01047 0,2.806839 c 0,0.578661 0.386626,0.943578 0.970959,0.943578 l 8.258741,0 0.0154,2.913814 c 0.007,1.374358 -0.82135,1.842397 -2.375138,1.84301 l -4.577077,0.0018"
     id="path14359-1-7-5-3-0-73-1-9-9-7"
     inkscape:connector-curvature="0"
     sodipodi:nodetypes="cccsscssc" />
  <path
     style="fill:none;stroke:#000000;stroke-width:1;stroke-linecap:round;stroke-linejoin:round;stroke-miterlimit:4;stroke-dasharray:none;stroke-opacity:1"
     d="m 95.62251,77.052565 c 1.512984,0 2.219293,1.04845 2.682395,2.000354 0.817023,1.679386 -0.16726,3.236914 -1.865367,4.014474"
     id="path14359-1-7-5-3-0-73-1-9-41-5"
     inkscape:connector-curvature="0"
     sodipodi:nodetypes="csc" />
  <path
     style="color:#000000;display:inline;overflow:visible;visibility:visible;fill:none;fill-rule:evenodd;stroke:#000000;stroke-width:1;stroke-linecap:butt;stroke-linejoin:miter;stroke-miterlimit:4;stroke-dasharray:none;stroke-dashoffset:0;stroke-opacity:1;marker:none;enable-background:accumulate"
     d="m 51.573138,83.556831 a 2.2701132,2.2701132 0 0 1 -2.270114,2.270114 2.2701132,2.2701132 0 0 1 -2.270113,-2.270114 2.2701132,2.2701132 0 0 1 2.270113,-2.270113 2.2701132,2.2701132 0 0 1 2.270114,2.270113 z"
     id="path82278" />
  <path
     style="fill:none;stroke:#000000;stroke-width:1;stroke-linecap:butt;stroke-linejoin:round;stroke-miterlimit:4;stroke-dasharray:none;stroke-opacity:1"
     d="m 60.056901,68.570132 -14.576084,-0.002"
     id="path14359-1-7-5-3-0-73-1-9-41-6"
     inkscape:connector-curvature="0"
     sodipodi:nodetypes="cc" />
  <path
     style="fill:none;fill-rule:evenodd;stroke:#000000;stroke-width:1px;stroke-linecap:butt;stroke-linejoin:miter;stroke-opacity:1"
     d="M 52.510002,55.303442 72.525579,34.299441"
     id="path82287"
     inkscape:connector-curvature="0" />
  <path
     style="fill:none;fill-rule:evenodd;stroke:#000000;stroke-width:1px;stroke-linecap:butt;stroke-linejoin:miter;stroke-opacity:1"
     d="M 52.59237,57.733316 74.914269,34.422994"
     id="path82289"
     inkscape:connector-curvature="0" />
  <path
     style="fill:none;fill-rule:evenodd;stroke:#000000;stroke-width:1px;stroke-linecap:butt;stroke-linejoin:miter;stroke-opacity:1"
     d="M 52.510002,60.163191 76.726379,34.876021"
     id="path82291"
     inkscape:connector-curvature="0" />
  <path
     style="fill:none;fill-rule:evenodd;stroke:#000000;stroke-width:1px;stroke-linecap:butt;stroke-linejoin:miter;stroke-opacity:1"
     d="M 52.633555,62.016485 78.538489,35.164312"
     id="path82293"
     inkscape:connector-curvature="0" />
  <path
     style="fill:none;fill-rule:evenodd;stroke:#000000;stroke-width:1px;stroke-linecap:butt;stroke-linejoin:miter;stroke-opacity:1"
     d="M 53.374872,63.457936 80.680073,35.782076"
     id="path82295"
     inkscape:connector-curvature="0" />
  <path
     style="fill:none;fill-rule:evenodd;stroke:#000000;stroke-width:1px;stroke-linecap:butt;stroke-linejoin:miter;stroke-opacity:1"
     d="M 54.40448,64.487544 82.162709,36.317472"
     id="path82297"
     inkscape:connector-curvature="0" />
  <path
     style="fill:none;fill-rule:evenodd;stroke:#000000;stroke-width:1px;stroke-linecap:butt;stroke-linejoin:miter;stroke-opacity:1"
     d="M 56.916723,64.405175 83.727713,36.894053"
     id="path82299"
     inkscape:connector-curvature="0" />
  <path
     style="fill:none;fill-rule:evenodd;stroke:#000000;stroke-width:1px;stroke-linecap:butt;stroke-linejoin:miter;stroke-opacity:1"
     d="M 59.55252,64.487544 85.581007,37.717739"
     id="path82301"
     inkscape:connector-curvature="0" />
  <path
     style="fill:none;fill-rule:evenodd;stroke:#000000;stroke-width:1px;stroke-linecap:butt;stroke-linejoin:miter;stroke-opacity:1"
     d="M 83.686528,42.20683 61.570551,64.487544"
     id="path82303"
     inkscape:connector-curvature="0" />
  <path
     style="fill:none;fill-rule:evenodd;stroke:#000000;stroke-width:1px;stroke-linecap:butt;stroke-linejoin:miter;stroke-opacity:1"
     d="M 63.588582,64.405175 83.727713,44.142492"
     id="path82305"
     inkscape:connector-curvature="0" />
  <path
     style="fill:none;fill-rule:evenodd;stroke:#000000;stroke-width:1px;stroke-linecap:butt;stroke-linejoin:miter;stroke-opacity:1"
     d="m 65.730167,64.487544 18.03873,-18.03873"
     id="path82307"
     inkscape:connector-curvature="0" />
  <path
     style="fill:none;fill-rule:evenodd;stroke:#000000;stroke-width:1px;stroke-linecap:butt;stroke-linejoin:miter;stroke-opacity:1"
     d="M 68.118857,64.569913 83.645344,49.290532"
     id="path82309"
     inkscape:connector-curvature="0" />
  <path
     style="fill:none;fill-rule:evenodd;stroke:#000000;stroke-width:1px;stroke-linecap:butt;stroke-linejoin:miter;stroke-opacity:1"
     d="M 70.589916,64.487544 83.686528,51.349747"
     id="path82311"
     inkscape:connector-curvature="0" />
  <path
     style="fill:none;fill-rule:evenodd;stroke:#000000;stroke-width:1px;stroke-linecap:butt;stroke-linejoin:miter;stroke-opacity:1"
     d="M 73.102159,64.487544 83.768897,53.903175"
     id="path82313"
     inkscape:connector-curvature="0" />
  <path
     style="fill:none;fill-rule:evenodd;stroke:#000000;stroke-width:1px;stroke-linecap:butt;stroke-linejoin:miter;stroke-opacity:1"
     d="m 75.655587,64.44636 8.072126,-8.401601"
     id="path82315"
     inkscape:connector-curvature="0" />
  <path
     style="fill:none;fill-rule:evenodd;stroke:#000000;stroke-width:1px;stroke-linecap:butt;stroke-linejoin:miter;stroke-opacity:1"
     d="m 77.961908,64.528728 5.683436,-5.848172"
     id="path82317"
     inkscape:connector-curvature="0" />
  <path
     style="fill:none;fill-rule:evenodd;stroke:#000000;stroke-width:1px;stroke-linecap:butt;stroke-linejoin:miter;stroke-opacity:1"
     d="m 80.309414,64.44636 3.62422,-3.665404"
     id="path82319"
     inkscape:connector-curvature="0" />
  <path
     style="fill:none;fill-rule:evenodd;stroke:#000000;stroke-width:1px;stroke-linecap:butt;stroke-linejoin:miter;stroke-opacity:1"
     d="m 82.286262,64.44636 2.594611,-2.759349"
     id="path82321"
     inkscape:connector-curvature="0" />
  <path
     style="fill:none;fill-rule:evenodd;stroke:#000000;stroke-width:1px;stroke-linecap:butt;stroke-linejoin:miter;stroke-opacity:1"
     d="M 52.551186,52.585277 70.837022,33.805229"
     id="path82323"
     inkscape:connector-curvature="0" />
  <path
     style="fill:none;fill-rule:evenodd;stroke:#000000;stroke-width:1px;stroke-linecap:butt;stroke-linejoin:miter;stroke-opacity:1"
     d="M 52.468817,50.402508 68.613069,33.764045"
     id="path82325"
     inkscape:connector-curvature="0" />
  <path
     style="fill:none;fill-rule:evenodd;stroke:#000000;stroke-width:1px;stroke-linecap:butt;stroke-linejoin:miter;stroke-opacity:1"
     d="M 52.468817,48.096187 66.265563,33.722861"
     id="path82327"
     inkscape:connector-curvature="0" />
  <path
     style="fill:none;fill-rule:evenodd;stroke:#000000;stroke-width:1px;stroke-linecap:butt;stroke-linejoin:miter;stroke-opacity:1"
     d="M 52.510002,45.542759 63.629767,34.011151"
     id="path82329"
     inkscape:connector-curvature="0" />
  <path
     style="fill:none;fill-rule:evenodd;stroke:#000000;stroke-width:1px;stroke-linecap:butt;stroke-linejoin:miter;stroke-opacity:1"
     d="m 52.59237,43.112884 8.195679,-8.648706"
     id="path82331"
     inkscape:connector-curvature="0" />
  <path
     style="fill:none;fill-rule:evenodd;stroke:#000000;stroke-width:1px;stroke-linecap:butt;stroke-linejoin:miter;stroke-opacity:1"
     d="M 52.551186,40.806563 57.74041,35.040759"
     id="path82333"
     inkscape:connector-curvature="0" />
  <text
     xml:space="preserve"
     style="font-style:normal;font-variant:normal;font-weight:normal;font-stretch:normal;font-size:7.5px;line-height:125%;font-family:Arial;-inkscape-font-specification:Arial;text-align:start;letter-spacing:0.63000004px;word-spacing:0px;text-anchor:start;fill:#000000;fill-opacity:1;stroke:none;stroke-width:1px;stroke-linecap:butt;stroke-linejoin:miter;stroke-opacity:1;"
     x="38.289558"
     y="97.464325"
     id="text82335"
     sodipodi:linespacing="125%"><tspan
       sodipodi:role="line"
       id="tspan82337"
       x="38.289558"
       y="97.464325">Figure 1</tspan></text>
  <path
     style="fill:#000000;fill-opacity:1;stroke:#000000;stroke-width:1;stroke-linecap:butt;stroke-linejoin:miter;stroke-miterlimit:4;stroke-dasharray:none;stroke-opacity:1"
     d="m 107.81369,46.682957 0.6271,0.957 0.61952,-0.96456 z"
     id="path14359-1-7-3-7-3-9-9"
     inkscape:connector-curvature="0"
     sodipodi:nodetypes="cccc" />
  <path
     style="fill:none;stroke:#000000;stroke-width:1;stroke-linecap:butt;stroke-linejoin:miter;stroke-miterlimit:4;stroke-dasharray:none;stroke-opacity:1"
     d="m 108.41948,35.755267 6e-5,1.817643 m 2.7e-4,7.371251 7e-5,1.770176"
     id="path14359-1-7-5-3-0-73-1-9-7-8"
     inkscape:connector-curvature="0"
     sodipodi:nodetypes="cccc" />
  <path
     style="fill:#000000;fill-opacity:1;stroke:#000000;stroke-width:1;stroke-linecap:butt;stroke-linejoin:miter;stroke-miterlimit:4;stroke-dasharray:none;stroke-opacity:1"
     d="m 107.78014,35.731727 0.6271,-0.957 0.61952,0.96456 z"
     id="path14359-1-7-3-7-3-9-3-3"
     inkscape:connector-curvature="0"
     sodipodi:nodetypes="cccc" />
  <path
     style="fill:#000000;fill-opacity:1;stroke:#000000;stroke-width:1;stroke-linecap:butt;stroke-linejoin:miter;stroke-miterlimit:4;stroke-dasharray:none;stroke-opacity:1"
     d="m 107.81368,61.834974 0.6271,0.957 0.61952,-0.96456 z"
     id="path14359-1-7-3-7-3-9-9-8"
     inkscape:connector-curvature="0"
     sodipodi:nodetypes="cccc" />
  <path
     style="fill:none;stroke:#000000;stroke-width:1;stroke-linecap:butt;stroke-linejoin:miter;stroke-miterlimit:4;stroke-dasharray:none;stroke-opacity:1"
     d="m 108.41947,51.82869 6e-5,1.510503 m 2.9e-4,7.268877 5e-5,1.258284"
     id="path14359-1-7-5-3-0-73-1-9-7-8-3"
     inkscape:connector-curvature="0"
     sodipodi:nodetypes="cccc" />
  <path
     style="fill:#000000;fill-opacity:1;stroke:#000000;stroke-width:1;stroke-linecap:butt;stroke-linejoin:miter;stroke-miterlimit:4;stroke-dasharray:none;stroke-opacity:1"
     d="m 107.78013,51.80515 0.6271,-0.957 0.61952,0.96456 z"
     id="path14359-1-7-3-7-3-9-3-3-6"
     inkscape:connector-curvature="0"
     sodipodi:nodetypes="cccc" />
  <path
     style="fill:#000000;fill-opacity:1;stroke:#000000;stroke-width:1;stroke-linecap:butt;stroke-linejoin:miter;stroke-miterlimit:4;stroke-dasharray:none;stroke-opacity:1"
     d="m 43.227341,2.981234 -0.95599,0.62866 0.96557,0.61796 z"
     id="path14359-1-7-3-7-3-9-1"
     inkscape:connector-curvature="0"
     sodipodi:nodetypes="cccc" />
  <path
     style="fill:none;stroke:#000000;stroke-width:1;stroke-linecap:butt;stroke-linejoin:miter;stroke-miterlimit:4;stroke-dasharray:none;stroke-opacity:1"
     d="m 50.117315,3.580834 -1.385051,0.0014 m -4.402374,0.00445 -1.132949,0.00115"
     id="path14359-1-7-5-3-0-73-1-9-7-8-1"
     inkscape:connector-curvature="0"
     sodipodi:nodetypes="cccc" />
  <path
     style="fill:#000000;fill-opacity:1;stroke:#000000;stroke-width:1;stroke-linecap:butt;stroke-linejoin:miter;stroke-miterlimit:4;stroke-dasharray:none;stroke-opacity:1"
     d="m 50.139815,2.941454 0.95801,0.62555 -0.96355,0.62109 z"
     id="path14359-1-7-3-7-3-9-3-7"
     inkscape:connector-curvature="0"
     sodipodi:nodetypes="cccc" />
  <text
     xml:space="preserve"
     style="font-style:normal;font-variant:normal;font-weight:normal;font-stretch:normal;font-size:5px;line-height:125%;font-family:Arial;-inkscape-font-specification:Arial;text-align:start;letter-spacing:0px;word-spacing:0px;text-anchor:start;fill:#000000;fill-opacity:1;stroke:none;stroke-width:1px;stroke-linecap:butt;stroke-linejoin:miter;stroke-opacity:1"
     x="44.329887"
     y="5.1189241"
     id="text82422"
     sodipodi:linespacing="125%"><tspan
       sodipodi:role="line"
       id="tspan82424"
       x="44.329887"
       y="5.1189241">3&quot;</tspan></text>
  <text
     xml:space="preserve"
     style="font-style:normal;font-variant:normal;font-weight:normal;font-stretch:normal;font-size:5px;line-height:125%;font-family:Arial;-inkscape-font-specification:Arial;text-align:start;letter-spacing:0px;word-spacing:0px;text-anchor:start;fill:#000000;fill-opacity:1;stroke:none;stroke-width:1px;stroke-linecap:butt;stroke-linejoin:miter;stroke-opacity:1"
     x="-58.98925"
     y="110.23751"
     id="text82422-9"
     sodipodi:linespacing="125%"
     transform="matrix(0,-1,1,0,0,0)"><tspan
       sodipodi:role="line"
       id="tspan82424-5"
       x="-58.98925"
       y="110.23751">4&quot;</tspan></text>
  <text
     xml:space="preserve"
     style="font-style:normal;font-variant:normal;font-weight:normal;font-stretch:normal;font-size:5px;line-height:125%;font-family:Arial;-inkscape-font-specification:Arial;text-align:start;letter-spacing:0px;word-spacing:0px;text-anchor:start;fill:#000000;fill-opacity:1;stroke:none;stroke-width:1px;stroke-linecap:butt;stroke-linejoin:miter;stroke-opacity:1"
     x="-42.711071"
     y="110.33988"
     id="text82422-1"
     sodipodi:linespacing="125%"
     transform="matrix(0,-1,1,0,0,0)"><tspan
       sodipodi:role="line"
       id="tspan82424-7"
       x="-42.711071"
       y="110.33988">4&quot;</tspan></text>
</svg>
