<?xml version="1.0" encoding="UTF-8" standalone="no"?>
<!-- Created with Inkscape (http://www.inkscape.org/) -->

<svg
   xmlns:dc="http://purl.org/dc/elements/1.1/"
   xmlns:cc="http://creativecommons.org/ns#"
   xmlns:rdf="http://www.w3.org/1999/02/22-rdf-syntax-ns#"
   xmlns:svg="http://www.w3.org/2000/svg"
   xmlns="http://www.w3.org/2000/svg"
   xmlns:sodipodi="http://sodipodi.sourceforge.net/DTD/sodipodi-0.dtd"
   xmlns:inkscape="http://www.inkscape.org/namespaces/inkscape"
   id="svg3387"
   version="1.1"
   inkscape:version="0.48.2 r9819"
   width="429"
   height="592"
   viewBox="0 0 429 592"
   sodipodi:docname="er11ap14.037.svg">
  <title id="title_er11ap14.037">Maintaining the minimum approach distance</title>
  <desc id="desc_er11ap14.037">diagram of employee and the minimum approach distance from energized part</desc>
  <metadata
     id="metadata3393">
    <rdf:RDF>
      <cc:Work
         rdf:about="">
        <dc:format>image/svg+xml</dc:format>
        <dc:type
           rdf:resource="http://purl.org/dc/dcmitype/StillImage" />
        <dc:title></dc:title>
      </cc:Work>
    </rdf:RDF>
  </metadata>
  <defs
     id="defs3391" />
  <sodipodi:namedview
     pagecolor="#ffffff"
     bordercolor="#666666"
     borderopacity="1"
     objecttolerance="10"
     gridtolerance="10"
     guidetolerance="10"
     inkscape:pageopacity="0"
     inkscape:pageshadow="2"
     inkscape:window-width="1280"
     inkscape:window-height="756"
     id="namedview3389"
     showgrid="false"
     inkscape:zoom="0.80743245"
     inkscape:cx="-4.7133842"
     inkscape:cy="296"
     inkscape:window-x="0"
     inkscape:window-y="0"
     inkscape:window-maximized="0"
     inkscape:current-layer="svg3387" />
  <path
     style="fill:#000000;fill-opacity:1;stroke:#000000;stroke-width:1;stroke-linecap:butt;stroke-linejoin:miter;stroke-miterlimit:4;stroke-dasharray:none;stroke-opacity:1"
     d="m 234.23742,181.51789 -6.40757,-2.88724 6.40427,-2.80035 0.0112,2.78873 z"
     id="path14359-1-7-5-3-0-73-4-0-68"
     inkscape:connector-curvature="0"
     sodipodi:nodetypes="ccccc" />
  <path
     style="fill:#000000;fill-opacity:1;stroke:#000000;stroke-width:1;stroke-linecap:butt;stroke-linejoin:miter;stroke-miterlimit:4;stroke-dasharray:none;stroke-opacity:1"
     d="m 329.37683,181.5065 6.4037,-2.90123 -6.40803,-2.78636 -0.008,2.78874 z"
     id="path14359-1-7-5-3-0-73-2-0-8"
     inkscape:connector-curvature="0"
     sodipodi:nodetypes="ccccc" />
  <path
     style="fill:none;fill-rule:evenodd;stroke:#000000;stroke-width:1px;stroke-linecap:butt;stroke-linejoin:miter;stroke-opacity:1"
     d="m 329.35692,178.60781 -95.10347,0.0114"
     id="path8331-0-6-2"
     inkscape:connector-curvature="0"
     sodipodi:nodetypes="cc" />
  <path
     style="fill:none;stroke:#000000;stroke-width:13;stroke-linecap:round;stroke-linejoin:miter;stroke-miterlimit:4;stroke-dasharray:none;stroke-opacity:1"
     d="m 218.62014,178.32358 -0.002,0.0328"
     id="path14359-1-7-5-3-0-73-1-9"
     inkscape:connector-curvature="0"
     sodipodi:nodetypes="cc" />
  <path
     style="fill:none;stroke:#000000;stroke-width:1;stroke-linecap:butt;stroke-linejoin:miter;stroke-miterlimit:4;stroke-dasharray:none;stroke-opacity:1"
     d="m 282.96754,15.439486 -32.58607,0 -31.82424,157.556974"
     id="path14359-1-7-5-3-0-73-1-9-2"
     inkscape:connector-curvature="0"
     sodipodi:nodetypes="ccc" />
  <path
     style="fill:none;stroke:#000000;stroke-width:1;stroke-linecap:butt;stroke-linejoin:miter;stroke-miterlimit:4;stroke-dasharray:none;stroke-opacity:1"
     d="m 281.12179,178.5303 49.12294,139.78358"
     id="path14359-1-7-5-3-0-73-1-9-5"
     inkscape:connector-curvature="0"
     sodipodi:nodetypes="cc" />
  <path
     style="fill:none;stroke:#000000;stroke-width:1;stroke-linecap:butt;stroke-linejoin:miter;stroke-miterlimit:4;stroke-dasharray:none;stroke-opacity:1"
     d="m 159.52313,397.13125 151.92254,96.26426"
     id="path14359-1-7-5-3-0-73-1-9-7"
     inkscape:connector-curvature="0"
     sodipodi:nodetypes="cc" />
  <path
     inkscape:connector-curvature="0"
     style="color:#000000;display:inline;overflow:visible;visibility:visible;fill:none;fill-rule:evenodd;stroke:#000000;stroke-width:1;stroke-linecap:butt;stroke-linejoin:miter;stroke-miterlimit:4;stroke-dasharray:none;stroke-dashoffset:0;stroke-opacity:1;marker:none;enable-background:accumulate"
     d="M 337.1338,178.47493 A 118.47558,118.47558 0 0 1 218.65822,296.9505 118.47558,118.47558 0 0 1 100.18264,178.47493 118.47558,118.47558 0 0 1 218.65822,59.999345 118.47558,118.47558 0 0 1 337.1338,178.47493 Z"
     id="path9675" />
  <path
     style="color:#000000;display:inline;overflow:visible;visibility:visible;fill:none;fill-rule:evenodd;stroke:#000000;stroke-width:1;stroke-linecap:butt;stroke-linejoin:miter;stroke-miterlimit:4;stroke-dasharray:4, 4;stroke-dashoffset:0;stroke-opacity:1;marker:none;enable-background:accumulate"
     d="M 17.0773,503.3417 C 6.5507163,473.73599 0.27752634,436.47098 0.27752634,395.98578 c 0,-96.37265 35.54704866,-174.49813 79.39656066,-174.49813 43.849503,0 79.396553,78.12548 79.396553,174.49813 0,37.54009 -5.3937,72.31147 -14.5708,100.77501"
     id="path9678"
     inkscape:connector-curvature="0"
     sodipodi:nodetypes="csssc" />
  <path
     style="fill:none;stroke:#000000;stroke-width:2;stroke-linecap:butt;stroke-linejoin:round;stroke-miterlimit:4;stroke-dasharray:none;stroke-opacity:1"
     d="m 36.688332,440.94765 1.368174,7.56685 -6.493134,30.23466 5.365808,17.99494"
     id="path14359-1-7-5-3-0-73-1-9-0"
     inkscape:connector-curvature="0"
     sodipodi:nodetypes="cccc" />
  <path
     style="fill:none;stroke:#000000;stroke-width:2;stroke-linecap:butt;stroke-linejoin:round;stroke-miterlimit:4;stroke-dasharray:none;stroke-opacity:1"
     d="m 82.343875,443.49757 5.286407,13.99837 0.37628,6.43643 0.67122,6.95085 -1.98642,5.03497 3.17829,10.10908 -0.60659,6.22414"
     id="path14359-1-7-5-3-0-73-1-9-0-0"
     inkscape:connector-curvature="0"
     sodipodi:nodetypes="ccccccc" />
  <path
     style="fill:none;stroke:#000000;stroke-width:2;stroke-linecap:butt;stroke-linejoin:round;stroke-miterlimit:4;stroke-dasharray:none;stroke-opacity:1"
     d="m 86.836572,437.06207 -4.29571,6.748 -12.751722,3.39791 -16.467698,0.054 -14.795073,-4.63941 -6.58046,-5.03578 -1.003601,-9.71769 3.566836,-9.80353 -1.937174,-23.82613 -0.436283,-12.99923 0.832166,-17.37515 1.117249,-11.03313 14.102591,-26.55944 24.139562,10.749 13.163457,22.12298 3.45201,23.82267 -2.95787,17.69884 -0.60737,8.04548"
     id="path14359-1-7-5-3-0-73-1-9-0-9"
     inkscape:connector-curvature="0"
     sodipodi:nodetypes="cccccccccccccccccc" />
  <path
     style="fill:none;stroke:#000000;stroke-width:2;stroke-linecap:butt;stroke-linejoin:round;stroke-miterlimit:4;stroke-dasharray:none;stroke-opacity:1"
     d="m 127.75656,438.03347 -20.72495,2.85878 -20.219238,-3.84641 -18.846512,-2.23967 -11.404775,-4.23725 -1.327436,-6.6043 -8.825296,-13.07013 -8.318469,-33.12031 3.8415,-20.78389 13.394756,-8.2743 16.465264,9.58991 3.979378,25.72505 -0.04898,15.904 5.834128,8.40336 3.800432,0.47957 39.969718,11.42891 4.85131,5.45025 -0.74216,7.9687 z"
     id="path14359-1-7-5-3-0-73-1-9-0-3"
     inkscape:connector-curvature="0"
     sodipodi:nodetypes="ccccccccccccccccccc" />
  <path
     style="fill:none;stroke:#000000;stroke-width:2;stroke-linecap:butt;stroke-linejoin:round;stroke-miterlimit:4;stroke-dasharray:none;stroke-opacity:1"
     d="m 128.36368,437.42635 3.32313,-0.2626 12.7311,4.66865 7.70941,-0.98436 4.07066,-4.71831 1.40661,-4.14551 -3.14333,-10.81882 -9.79016,-0.74911 -4.5169,-4.03937 -4.26533,2.63805 -8.13431,3.78173"
     id="path14359-1-7-5-3-0-73-1-9-0-08"
     inkscape:connector-curvature="0"
     sodipodi:nodetypes="ccccccccccc" />
  <path
     style="fill:none;stroke:#000000;stroke-width:2;stroke-linecap:butt;stroke-linejoin:round;stroke-miterlimit:4;stroke-dasharray:none;stroke-opacity:1"
     d="m 89.147432,292.55955 -2.07884,3.77397 1.37887,5.42019 3.42211,3.90358 -0.35931,2.94605 -4.70358,2.35686 c -0.31061,2.04621 -0.5714,4.08246 -0.005,5.95328 l -1.09257,2.3025 0.0742,2.52664 c -1.06171,1.25902 -1.25859,2.95045 -1.25778,4.74072 l -8.988148,0.74389 -3.352159,9.75031"
     id="path14359-1-7-5-3-0-73-1-9-0-7"
     inkscape:connector-curvature="0"
     sodipodi:nodetypes="cccccccccccc" />
  <path
     style="fill:none;stroke:#000000;stroke-width:2;stroke-linecap:butt;stroke-linejoin:round;stroke-miterlimit:4;stroke-dasharray:none;stroke-opacity:1"
     d="m 70.578364,287.39775 -0.15206,5.40087 -4.177459,10.26568 -2.639877,-1.35935 0.422209,-6.10086 -4.52993,-0.72975 -3.004628,4.86557 -1.953142,6.30403 4.701648,3.95993 -2.930273,5.57264 -8.747817,5.46426 -4.950793,-1.03089 -5.122629,-14.96787 -1.172819,-17.60433"
     id="path14359-1-7-5-3-0-73-1-9-0-8"
     inkscape:connector-curvature="0"
     sodipodi:nodetypes="cccccccccccccc" />
  <path
     style="fill:none;stroke:#000000;stroke-width:2;stroke-linecap:butt;stroke-linejoin:round;stroke-miterlimit:4;stroke-dasharray:none;stroke-opacity:1"
     d="m 47.249717,321.05 0.668364,5.60394"
     id="path14359-1-7-5-3-0-73-1-9-0-2"
     inkscape:connector-curvature="0"
     sodipodi:nodetypes="cc" />
  <path
     style="fill:none;stroke:#000000;stroke-width:2;stroke-linecap:butt;stroke-linejoin:round;stroke-miterlimit:4;stroke-dasharray:none;stroke-opacity:1"
     d="m 30.153598,282.82567 -2.478766,4.07444 c 8.272932,0.38789 16.907039,0.46457 25.508637,-0.21602 24.497572,-1.93836 37.325833,10.53708 51.069111,5.47863 l -8.058828,-6.76805 c -0.60637,-5.20365 -1.52075,-11.35437 -2.27154,-15.34426 -1.29042,-6.85767 -14.838681,-17.42233 -33.500853,-17.52511 -18.631707,-0.10262 -31.121743,8.72219 -30.267761,30.30037 z"
     id="path14359-1-7-5-3-0-73-1-9-0-25"
     inkscape:connector-curvature="0"
     sodipodi:nodetypes="ccsccssc" />
  <text
     xml:space="preserve"
     style="font-style:normal;font-variant:normal;font-weight:normal;font-stretch:normal;font-size:20px;line-height:125%;font-family:Arial;-inkscape-font-specification:Arial;text-align:start;letter-spacing:1px;word-spacing:0px;text-anchor:start;fill:#000000;fill-opacity:1;stroke:none;stroke-width:1px;stroke-linecap:butt;stroke-linejoin:miter;stroke-opacity:1"
     x="283.93631"
     y="14.830843"
     id="text9744"
     sodipodi:linespacing="125%"><tspan
       sodipodi:role="line"
       id="tspan9746"
       x="283.93631"
       y="14.830843">Energized Part</tspan></text>
  <text
     xml:space="preserve"
     style="font-style:normal;font-variant:normal;font-weight:normal;font-stretch:normal;font-size:20px;line-height:125%;font-family:Arial;-inkscape-font-specification:Arial;text-align:center;letter-spacing:1px;word-spacing:0px;text-anchor:middle;fill:#000000;fill-opacity:1;stroke:none;stroke-width:1px;stroke-linecap:butt;stroke-linejoin:miter;stroke-opacity:1"
     x="323.5387"
     y="338.08456"
     id="text9744-0"
     sodipodi:linespacing="125%"><tspan
       sodipodi:role="line"
       id="tspan9746-3"
       x="324.0387"
       y="338.08456">Minimum</tspan><tspan
       sodipodi:role="line"
       x="324.0387"
       y="363.08456"
       id="tspan9766">Approach</tspan><tspan
       sodipodi:role="line"
       x="324.0387"
       y="388.08456"
       id="tspan9768">Distance</tspan></text>
  <text
     xml:space="preserve"
     style="font-style:normal;font-variant:normal;font-weight:normal;font-stretch:normal;font-size:20px;line-height:125%;font-family:Arial;-inkscape-font-specification:Arial;text-align:start;letter-spacing:1px;word-spacing:0px;text-anchor:start;fill:#000000;fill-opacity:1;stroke:none;stroke-width:1px;stroke-linecap:butt;stroke-linejoin:miter;stroke-opacity:1"
     x="227.82571"
     y="511.78854"
     id="text9744-0-0"
     sodipodi:linespacing="125%"><tspan
       sodipodi:role="line"
       x="227.82571"
       y="511.78854"
       id="tspan9768-7">Reasonably Likely</tspan><tspan
       sodipodi:role="line"
       x="227.82571"
       y="536.78857"
       id="tspan9799">Movements of</tspan><tspan
       sodipodi:role="line"
       x="227.82571"
       y="561.78857"
       id="tspan9801">Employee</tspan></text>
  <text
     xml:space="preserve"
     style="font-style:normal;font-variant:normal;font-weight:bold;font-stretch:normal;font-size:10px;line-height:125%;font-family:Arial;-inkscape-font-specification:'Arial Bold';text-align:start;letter-spacing:0.60000002px;word-spacing:0px;text-anchor:start;fill:#000000;fill-opacity:1;stroke:none;stroke-width:1px;stroke-linecap:butt;stroke-linejoin:miter;stroke-opacity:1"
     x="36.864803"
     y="588.96429"
     id="text9803"
     sodipodi:linespacing="125%"><tspan
       sodipodi:role="line"
       id="tspan9805"
       x="36.864803"
       y="588.96429">Figure 1—Maintaining the Minimum Approach Distance</tspan></text>
</svg>
