<?xml version="1.0" encoding="UTF-8" standalone="no"?>
<!-- Created with Inkscape (http://www.inkscape.org/) -->

<svg
   xmlns:dc="http://purl.org/dc/elements/1.1/"
   xmlns:cc="http://creativecommons.org/ns#"
   xmlns:rdf="http://www.w3.org/1999/02/22-rdf-syntax-ns#"
   xmlns:svg="http://www.w3.org/2000/svg"
   xmlns="http://www.w3.org/2000/svg"
   xmlns:sodipodi="http://sodipodi.sourceforge.net/DTD/sodipodi-0.dtd"
   xmlns:inkscape="http://www.inkscape.org/namespaces/inkscape"
   id="svg11602"
   version="1.1"
   inkscape:version="0.48.2 r9819"
   width="419"
   height="477"
   viewBox="0 0 419 477"
   sodipodi:docname="er11ap14.045.svg">
  <title id="title_er11ap14.045"></title>
  <desc id="desc_er11ap14.045"></desc>
  <metadata
     id="metadata11608">
    <rdf:RDF>
      <cc:Work
         rdf:about="">
        <dc:format>image/svg+xml</dc:format>
        <dc:type
           rdf:resource="http://purl.org/dc/dcmitype/StillImage" />
        <dc:title></dc:title>
      </cc:Work>
    </rdf:RDF>
  </metadata>
  <defs
     id="defs11606" />
  <sodipodi:namedview
     pagecolor="#ffffff"
     bordercolor="#666666"
     borderopacity="1"
     objecttolerance="10"
     gridtolerance="10"
     guidetolerance="10"
     inkscape:pageopacity="0"
     inkscape:pageshadow="2"
     inkscape:window-width="1905"
     inkscape:window-height="1156"
     id="namedview11604"
     showgrid="false"
     inkscape:zoom="2.0125786"
     inkscape:cx="121.55312"
     inkscape:cy="318.9153"
     inkscape:window-x="0"
     inkscape:window-y="0"
     inkscape:window-maximized="0"
     inkscape:current-layer="svg11602" />
  <path
     style="fill:none;stroke:#000000;stroke-width:1;stroke-linecap:butt;stroke-linejoin:miter;stroke-miterlimit:4;stroke-dasharray:1, 1;stroke-dashoffset:0;stroke-opacity:1"
     d="M 300.43901,51.842962 213.45956,30.04872 124.0243,52.853357"
     id="path14359-1-7-5-3-0-73-1-9-8"
     inkscape:connector-curvature="0"
     sodipodi:nodetypes="ccc" />
  <path
     style="fill:#000000;fill-opacity:1;stroke:#000000;stroke-width:1;stroke-linecap:butt;stroke-linejoin:miter;stroke-miterlimit:4;stroke-dasharray:none;stroke-opacity:1"
     d="m 289.42955,213.55953 10.70958,-5.33871 -5.86714,10.42561 -2.42122,-2.54345 z"
     id="path14359-1-7-5-3-0-73-1"
     inkscape:connector-curvature="0"
     sodipodi:nodetypes="ccccc" />
  <path
     style="fill:#000000;fill-opacity:1;stroke:#000000;stroke-width:1;stroke-linecap:butt;stroke-linejoin:miter;stroke-miterlimit:4;stroke-dasharray:none;stroke-opacity:1"
     d="m 230.37469,218.56699 6.59004,-9.98842 0.15012,11.9622 -3.37008,-0.98689 z"
     id="path14359-1-7-5-3-0-73-1-7"
     inkscape:connector-curvature="0"
     sodipodi:nodetypes="ccccc" />
  <path
     style="fill:none;stroke:#000000;stroke-width:1;stroke-linecap:butt;stroke-linejoin:miter;stroke-miterlimit:4;stroke-dasharray:none;stroke-opacity:1"
     d="M 233.74152,219.56856 213.0572,288.0214"
     id="path14359-1-7-5-3-0-73-1-9-3"
     inkscape:connector-curvature="0"
     sodipodi:nodetypes="cc" />
  <path
     style="fill:#000000;fill-opacity:1;stroke:#000000;stroke-width:1;stroke-linecap:butt;stroke-linejoin:miter;stroke-miterlimit:4;stroke-dasharray:none;stroke-opacity:1"
     d="m 132.29594,225.29823 -6.60367,-9.97939 11.06273,4.5533 -2.22954,2.71306 z"
     id="path14359-1-7-5-3-0-73-1-6"
     inkscape:connector-curvature="0"
     sodipodi:nodetypes="ccccc" />
  <path
     style="fill:none;stroke:#000000;stroke-width:1;stroke-linecap:butt;stroke-linejoin:miter;stroke-miterlimit:4;stroke-dasharray:none;stroke-opacity:1"
     d="m 134.5377,222.59394 78.49629,65.48632 78.80659,-71.96619"
     id="path14359-1-7-5-3-0-73-1-9-2"
     inkscape:connector-curvature="0"
     sodipodi:nodetypes="ccc" />
  <path
     style="fill:#000000;fill-opacity:1;stroke:#000000;stroke-width:1;stroke-linecap:butt;stroke-linejoin:miter;stroke-miterlimit:4;stroke-dasharray:none;stroke-opacity:1"
     d="m 75.139856,213.29298 7.651523,-9.2006 -1.170193,11.90577 -3.240665,-1.35258 z"
     id="path14359-1-7-5-3-0-73-1-3"
     inkscape:connector-curvature="0"
     sodipodi:nodetypes="ccccc" />
  <path
     style="fill:none;stroke:#000000;stroke-width:1;stroke-linecap:butt;stroke-linejoin:miter;stroke-miterlimit:4;stroke-dasharray:1, 1;stroke-dashoffset:0;stroke-opacity:1"
     d="M 78.375665,214.6598 56.061641,266.81039 196.73956,196.07598"
     id="path14359-1-7-5-3-0-73-1-9"
     inkscape:connector-curvature="0"
     sodipodi:nodetypes="ccc" />
  <path
     style="fill:#000000;fill-opacity:1;stroke:#000000;stroke-width:1;stroke-linecap:butt;stroke-linejoin:miter;stroke-miterlimit:4;stroke-dasharray:none;stroke-opacity:1"
     d="m 195.1262,192.95575 11.76636,-2.17933 -8.51399,8.4041 -1.62619,-3.11239 z"
     id="path14359-1-7-5-3-0-73-1-05"
     inkscape:connector-curvature="0"
     sodipodi:nodetypes="ccccc" />
  <path
     style="fill:none;stroke:#000000;stroke-width:1;stroke-linecap:butt;stroke-linejoin:round;stroke-miterlimit:4;stroke-dasharray:none;stroke-opacity:1"
     d="m 271.20233,285.51163 -9.50191,-35.89013 12.02224,-59.65868 36.63002,-138.040978 4.35051,0 c 2.17959,0 2.02992,-3.636727 0,-3.636727 l -6.5741,0 c -0.7413,0 -1.22424,0.140554 -1.91645,1.147712 l -38.00689,55.299963 3.68054,85.64041 -60.98412,56.92878 -60.70637,-58.88701 0.42152,-82.83511 -33.92377,-56.129671 -2.34062,-1.980705 -6.01459,0 c -2.22417,0 -2.2633,3.636727 0,3.636727 l 3.63673,0 38.29727,145.651709 12.49539,52.47689 -12.29018,36.89292"
     id="path14359-1-7-5-3-0-73-1-9-6"
     inkscape:connector-curvature="0"
     sodipodi:nodetypes="ccccsssscccccccsscccc" />
  <path
     style="fill:#000000;fill-opacity:1;stroke:#000000;stroke-width:1;stroke-linecap:butt;stroke-linejoin:miter;stroke-miterlimit:4;stroke-dasharray:none;stroke-opacity:1"
     d="m 123.21916,49.436319 -10.32938,6.041581 11.93668,0.795246 -0.80365,-3.418413 z"
     id="path14359-1-7-5-3-0-73-1-0"
     inkscape:connector-curvature="0"
     sodipodi:nodetypes="ccccc" />
  <path
     style="fill:#000000;fill-opacity:1;stroke:#000000;stroke-width:1;stroke-linecap:butt;stroke-linejoin:miter;stroke-miterlimit:4;stroke-dasharray:none;stroke-opacity:1"
     d="m 299.60005,55.251851 11.94738,-0.675972 -10.26555,-6.142904 -0.84092,3.409438 z"
     id="path14359-1-7-5-3-0-73-1-0-3"
     inkscape:connector-curvature="0"
     sodipodi:nodetypes="ccccc" />
  <path
     style="fill:none;stroke:#000000;stroke-width:1;stroke-linecap:butt;stroke-linejoin:round;stroke-miterlimit:4;stroke-dasharray:none;stroke-opacity:1"
     d="m 162.33623,249.36946 99.23,0.002"
     id="path14359-1-7-5-3-0-73-1-9-1"
     inkscape:connector-curvature="0"
     sodipodi:nodetypes="cc" />
  <path
     style="fill:none;stroke:#000000;stroke-width:1;stroke-linecap:butt;stroke-linejoin:round;stroke-miterlimit:4;stroke-dasharray:none;stroke-opacity:1"
     d="m 84.175215,124.49249 39.446505,-21.8796 177.78,0 37.62414,22.9986 -78.88783,-0.34945 -46.85939,-7.61723 -49.79424,7.19592 z"
     id="path14359-1-7-5-3-0-73-1-9-1-6"
     inkscape:connector-curvature="0"
     sodipodi:nodetypes="cccccccc" />
  <path
     inkscape:connector-curvature="0"
     style="color:#000000;display:inline;overflow:visible;visibility:visible;fill:none;fill-rule:evenodd;stroke:#000000;stroke-width:1;stroke-linecap:butt;stroke-linejoin:miter;stroke-miterlimit:4;stroke-dasharray:none;stroke-dashoffset:0;stroke-opacity:1;marker:none;enable-background:accumulate"
     d="m 155.99423,197.54712 a 4.7108326,4.7108326 0 0 1 -4.71082,4.71083 4.7108326,4.7108326 0 0 1 -4.71084,-4.71083 4.7108326,4.7108326 0 0 1 4.71084,-4.71083 4.7108326,4.7108326 0 0 1 4.71082,4.71083 z"
     id="path8876" />
  <path
     inkscape:connector-curvature="0"
     style="color:#000000;display:inline;overflow:visible;visibility:visible;fill:none;fill-rule:evenodd;stroke:#000000;stroke-width:1;stroke-linecap:butt;stroke-linejoin:miter;stroke-miterlimit:4;stroke-dasharray:none;stroke-dashoffset:0;stroke-opacity:1;marker:none;enable-background:accumulate"
     d="m 91.253943,192.56709 a 4.7108326,4.7108326 0 0 1 -4.71083,4.71083 4.7108326,4.7108326 0 0 1 -4.71084,-4.71083 4.7108326,4.7108326 0 0 1 4.71084,-4.71083 4.7108326,4.7108326 0 0 1 4.71083,4.71083 z"
     id="path8876-0" />
  <path
     inkscape:connector-curvature="0"
     style="color:#000000;display:inline;overflow:visible;visibility:visible;fill:none;fill-rule:evenodd;stroke:#000000;stroke-width:1;stroke-linecap:butt;stroke-linejoin:miter;stroke-miterlimit:4;stroke-dasharray:none;stroke-dashoffset:0;stroke-opacity:1;marker:none;enable-background:accumulate"
     d="m 218.04263,185.29895 a 4.7108326,4.7108326 0 0 1 -4.71083,4.71083 4.7108326,4.7108326 0 0 1 -4.71084,-4.71083 4.7108326,4.7108326 0 0 1 4.71084,-4.71083 4.7108326,4.7108326 0 0 1 4.71083,4.71083 z"
     id="path8876-2" />
  <path
     inkscape:connector-curvature="0"
     style="color:#000000;display:inline;overflow:visible;visibility:visible;fill:none;fill-rule:evenodd;stroke:#000000;stroke-width:1;stroke-linecap:butt;stroke-linejoin:miter;stroke-miterlimit:4;stroke-dasharray:none;stroke-dashoffset:0;stroke-opacity:1;marker:none;enable-background:accumulate"
     d="m 281.97536,185.16435 a 4.7108326,4.7108326 0 0 1 -4.71083,4.71083 4.7108326,4.7108326 0 0 1 -4.71084,-4.71083 4.7108326,4.7108326 0 0 1 4.71084,-4.71082 4.7108326,4.7108326 0 0 1 4.71083,4.71082 z"
     id="path8876-8" />
  <path
     inkscape:connector-curvature="0"
     style="color:#000000;display:inline;overflow:visible;visibility:visible;fill:none;fill-rule:evenodd;stroke:#000000;stroke-width:1;stroke-linecap:butt;stroke-linejoin:miter;stroke-miterlimit:4;stroke-dasharray:none;stroke-dashoffset:0;stroke-opacity:1;marker:none;enable-background:accumulate"
     d="m 343.21618,190.00978 a 4.7108326,4.7108326 0 0 1 -4.71083,4.71083 4.7108326,4.7108326 0 0 1 -4.71084,-4.71083 4.7108326,4.7108326 0 0 1 4.71084,-4.71083 4.7108326,4.7108326 0 0 1 4.71083,4.71083 z"
     id="path8876-6" />
  <path
     inkscape:connector-curvature="0"
     style="color:#000000;display:inline;overflow:visible;visibility:visible;fill:none;fill-rule:evenodd;stroke:#000000;stroke-width:1;stroke-linecap:butt;stroke-linejoin:miter;stroke-miterlimit:4;stroke-dasharray:none;stroke-dashoffset:0;stroke-opacity:1;marker:none;enable-background:accumulate"
     d="m 276.05317,189.60599 a 4.7108326,4.7108326 0 0 1 -4.71083,4.71083 4.7108326,4.7108326 0 0 1 -4.71084,-4.71083 4.7108326,4.7108326 0 0 1 4.71084,-4.71083 4.7108326,4.7108326 0 0 1 4.71083,4.71083 z"
     id="path8876-00" />
  <path
     style="fill:#000000;fill-opacity:1;stroke:#000000;stroke-width:1;stroke-linecap:butt;stroke-linejoin:miter;stroke-miterlimit:4;stroke-dasharray:none;stroke-opacity:1"
     d="m 338.41174,213.10577 2.01402,-11.79579 4.95065,10.89072 -3.48234,0.45254 z"
     id="path14359-1-7-5-3-0-73-1-06"
     inkscape:connector-curvature="0"
     sodipodi:nodetypes="ccccc" />
  <path
     style="fill:none;stroke:#000000;stroke-width:1;stroke-linecap:butt;stroke-linejoin:miter;stroke-miterlimit:4;stroke-dasharray:1, 1;stroke-dashoffset:0;stroke-opacity:1"
     d="m 341.87123,212.68714 7.53533,53.70736"
     id="path14359-1-7-5-3-0-73-1-9-39"
     inkscape:connector-curvature="0"
     sodipodi:nodetypes="cc" />
  <path
     inkscape:connector-curvature="0"
     style="color:#000000;display:inline;overflow:visible;visibility:visible;fill:none;fill-rule:evenodd;stroke:#000000;stroke-width:0.96823627000000001;stroke-linecap:butt;stroke-linejoin:miter;stroke-miterlimit:4;stroke-dasharray:none;stroke-dashoffset:0;stroke-opacity:1;marker:none;enable-background:accumulate"
     d="m 90.296383,128.63437 a 3.6186766,3.6186766 0 0 1 -3.618666,3.61867 3.6186766,3.6186766 0 0 1 -3.618687,-3.61867 3.6186766,3.6186766 0 0 1 3.618687,-3.61868 3.6186766,3.6186766 0 0 1 3.618666,3.61868 z"
     id="path8876-6-8-51" />
  <path
     inkscape:connector-curvature="0"
     style="color:#000000;display:inline;overflow:visible;visibility:visible;fill:none;fill-rule:evenodd;stroke:#000000;stroke-width:0.96823627000000001;stroke-linecap:butt;stroke-linejoin:miter;stroke-miterlimit:4;stroke-dasharray:none;stroke-dashoffset:0;stroke-opacity:1;marker:none;enable-background:accumulate"
     d="m 216.95047,121.36623 a 3.6186766,3.6186766 0 0 1 -3.61867,3.61867 3.6186766,3.6186766 0 0 1 -3.61868,-3.61867 3.6186766,3.6186766 0 0 1 3.61868,-3.61868 3.6186766,3.6186766 0 0 1 3.61867,3.61868 z"
     id="path8876-6-8-51-6" />
  <path
     inkscape:connector-curvature="0"
     style="color:#000000;display:inline;overflow:visible;visibility:visible;fill:none;fill-rule:evenodd;stroke:#000000;stroke-width:0.96823627000000001;stroke-linecap:butt;stroke-linejoin:miter;stroke-miterlimit:4;stroke-dasharray:none;stroke-dashoffset:0;stroke-opacity:1;marker:none;enable-background:accumulate"
     d="m 341.45105,129.57654 a 3.6186766,3.6186766 0 0 1 -3.61867,3.61867 3.6186766,3.6186766 0 0 1 -3.6187,-3.61867 3.6186766,3.6186766 0 0 1 3.6187,-3.61868 3.6186766,3.6186766 0 0 1 3.61867,3.61868 z"
     id="path8876-6-8-51-8" />
  <path
     style="fill:none;stroke:#000000;stroke-width:1;stroke-linecap:butt;stroke-linejoin:round;stroke-miterlimit:4;stroke-dasharray:none;stroke-opacity:1"
     d="m 89.247631,131.37401 c 0.179011,2.3831 2.333541,4.65304 4.182064,4.64528 1.213793,-0.005 1.136846,1.78229 0,1.781 l -13.499841,-0.0152 c -1.136846,-0.001 -1.213793,-1.786 0,-1.781 1.848523,0.008 4.003053,-2.26218 4.182064,-4.64528"
     id="path14359-1-7-5-3-0-73-1-9-9"
     inkscape:connector-curvature="0"
     sodipodi:nodetypes="cssssc" />
  <path
     style="fill:none;stroke:#000000;stroke-width:1;stroke-linecap:butt;stroke-linejoin:round;stroke-miterlimit:4;stroke-dasharray:none;stroke-opacity:1"
     d="m 86.702625,176.94183 -0.002,15.50542"
     id="path14359-1-7-5-3-0-73-1-9-9-9"
     inkscape:connector-curvature="0"
     sodipodi:nodetypes="cc" />
  <path
     style="fill:none;stroke:#000000;stroke-width:1;stroke-linecap:butt;stroke-linejoin:round;stroke-miterlimit:4;stroke-dasharray:none;stroke-opacity:1"
     d="m 89.227361,138.10583 c 0.17901,2.3831 2.33354,4.65304 4.18206,4.64528 1.2138,-0.005 1.13685,1.78228 0,1.781 l -13.499838,-0.0152 c -1.136846,-0.001 -1.213793,-1.786 0,-1.781 1.848528,0.008 4.003058,-2.26218 4.182068,-4.64528"
     id="path14359-1-7-5-3-0-73-1-9-9-91"
     inkscape:connector-curvature="0"
     sodipodi:nodetypes="cssssc" />
  <path
     style="fill:none;stroke:#000000;stroke-width:1;stroke-linecap:butt;stroke-linejoin:round;stroke-miterlimit:4;stroke-dasharray:none;stroke-opacity:1"
     d="m 89.227361,170.31968 c 0.17901,2.3831 2.33354,4.65304 4.18206,4.64528 1.2138,-0.005 1.13685,1.78229 0,1.781 l -13.499838,-0.0152 c -1.136846,-0.001 -1.213793,-1.786 0,-1.781 1.848528,0.008 4.003058,-2.26218 4.182068,-4.64529"
     id="path14359-1-7-5-3-0-73-1-9-9-5"
     inkscape:connector-curvature="0"
     sodipodi:nodetypes="cssssc" />
  <path
     style="fill:none;stroke:#000000;stroke-width:1;stroke-linecap:butt;stroke-linejoin:round;stroke-miterlimit:4;stroke-dasharray:none;stroke-opacity:1"
     d="m 89.227361,163.85154 c 0.17901,2.3831 2.33354,4.65304 4.18206,4.64528 1.2138,-0.005 1.13685,1.78229 0,1.781 l -13.499838,-0.0152 c -1.136846,-0.001 -1.213793,-1.786 0,-1.78101 1.848528,0.008 4.003058,-2.26218 4.182068,-4.64528"
     id="path14359-1-7-5-3-0-73-1-9-9-52"
     inkscape:connector-curvature="0"
     sodipodi:nodetypes="cssssc" />
  <path
     style="fill:none;stroke:#000000;stroke-width:1;stroke-linecap:butt;stroke-linejoin:round;stroke-miterlimit:4;stroke-dasharray:none;stroke-opacity:1"
     d="m 89.227361,157.12976 c 0.17901,2.3831 2.33354,4.65304 4.18206,4.64528 1.2138,-0.005 1.13685,1.78228 0,1.781 l -13.499838,-0.0152 c -1.136846,-0.001 -1.213793,-1.786 0,-1.781 1.848528,0.008 4.003058,-2.26218 4.182068,-4.64528"
     id="path14359-1-7-5-3-0-73-1-9-9-6"
     inkscape:connector-curvature="0"
     sodipodi:nodetypes="cssssc" />
  <path
     style="fill:none;stroke:#000000;stroke-width:1;stroke-linecap:butt;stroke-linejoin:round;stroke-miterlimit:4;stroke-dasharray:none;stroke-opacity:1"
     d="m 89.227361,150.78845 c 0.17901,2.3831 2.33354,4.65304 4.18206,4.64529 1.2138,-0.005 1.13685,1.78228 0,1.781 l -13.499838,-0.0152 c -1.136846,-0.001 -1.213793,-1.786 0,-1.781 1.848528,0.008 4.003058,-2.26218 4.182068,-4.64529"
     id="path14359-1-7-5-3-0-73-1-9-9-97"
     inkscape:connector-curvature="0"
     sodipodi:nodetypes="cssssc" />
  <path
     style="fill:none;stroke:#000000;stroke-width:1;stroke-linecap:butt;stroke-linejoin:round;stroke-miterlimit:4;stroke-dasharray:none;stroke-opacity:1"
     d="m 89.227361,144.57396 c 0.17901,2.3831 2.33354,4.65304 4.18206,4.64528 1.2138,-0.005 1.13685,1.78229 0,1.781 l -13.499838,-0.0152 c -1.136846,-0.001 -1.213793,-1.78601 0,-1.78101 1.848528,0.008 4.003058,-2.26218 4.182068,-4.64528"
     id="path14359-1-7-5-3-0-73-1-9-9-1"
     inkscape:connector-curvature="0"
     sodipodi:nodetypes="cssssc" />
  <path
     style="fill:none;stroke:#000000;stroke-width:3;stroke-linecap:round;stroke-linejoin:round;stroke-miterlimit:4;stroke-dasharray:none;stroke-opacity:1"
     d="m 86.660499,177.92543 -0.002,0.0326"
     id="path14359-1-7-5-3-0-73-1-9-9-9-3"
     inkscape:connector-curvature="0"
     sodipodi:nodetypes="cc" />
  <path
     style="fill:none;stroke:#000000;stroke-width:5;stroke-linecap:round;stroke-linejoin:round;stroke-miterlimit:4;stroke-dasharray:none;stroke-opacity:1"
     d="m 86.660498,192.38362 -0.002,-0.0942"
     id="path14359-1-7-5-3-0-73-1-9-9-9-1"
     inkscape:connector-curvature="0"
     sodipodi:nodetypes="cc" />
  <path
     style="fill:none;stroke:#000000;stroke-width:1;stroke-linecap:butt;stroke-linejoin:round;stroke-miterlimit:4;stroke-dasharray:none;stroke-opacity:1"
     d="m 215.81001,123.97149 c 0.17901,2.3831 2.33354,4.65303 4.18207,4.64527 1.21379,-0.005 1.13684,1.78228 0,1.781 l -13.49985,-0.0152 c -1.13685,-0.001 -1.21379,-1.786 0,-1.781 1.84853,0.008 4.00306,-2.26218 4.18207,-4.64528"
     id="path14359-1-7-5-3-0-73-1-9-9-17"
     inkscape:connector-curvature="0"
     sodipodi:nodetypes="cssssc" />
  <path
     style="fill:none;stroke:#000000;stroke-width:1;stroke-linecap:butt;stroke-linejoin:round;stroke-miterlimit:4;stroke-dasharray:none;stroke-opacity:1"
     d="m 213.265,169.5393 -0.002,15.50542"
     id="path14359-1-7-5-3-0-73-1-9-9-9-0"
     inkscape:connector-curvature="0"
     sodipodi:nodetypes="cc" />
  <path
     style="fill:none;stroke:#000000;stroke-width:1;stroke-linecap:butt;stroke-linejoin:round;stroke-miterlimit:4;stroke-dasharray:none;stroke-opacity:1"
     d="m 215.78973,130.7033 c 0.17902,2.38311 2.33354,4.65304 4.18207,4.64529 1.21379,-0.005 1.13685,1.78228 0,1.781 l -13.49985,-0.0152 c -1.13684,-10e-4 -1.21378,-1.786 0,-1.781 1.84854,0.008 4.00307,-2.26218 4.18208,-4.64529"
     id="path14359-1-7-5-3-0-73-1-9-9-91-4"
     inkscape:connector-curvature="0"
     sodipodi:nodetypes="cssssc" />
  <path
     style="fill:none;stroke:#000000;stroke-width:1;stroke-linecap:butt;stroke-linejoin:round;stroke-miterlimit:4;stroke-dasharray:none;stroke-opacity:1"
     d="m 215.78973,162.91715 c 0.17902,2.3831 2.33354,4.65304 4.18207,4.64528 1.21379,-0.005 1.13685,1.78228 0,1.781 l -13.49985,-0.0152 c -1.13684,-0.001 -1.21378,-1.786 0,-1.781 1.84854,0.008 4.00307,-2.26218 4.18208,-4.64528"
     id="path14359-1-7-5-3-0-73-1-9-9-5-0"
     inkscape:connector-curvature="0"
     sodipodi:nodetypes="cssssc" />
  <path
     style="fill:none;stroke:#000000;stroke-width:1;stroke-linecap:butt;stroke-linejoin:round;stroke-miterlimit:4;stroke-dasharray:none;stroke-opacity:1"
     d="m 215.78973,156.44901 c 0.17902,2.38311 2.33354,4.65304 4.18207,4.64528 1.21379,-0.005 1.13685,1.78228 0,1.781 l -13.49985,-0.0152 c -1.13684,-0.001 -1.21378,-1.786 0,-1.781 1.84854,0.008 4.00307,-2.26218 4.18208,-4.64528"
     id="path14359-1-7-5-3-0-73-1-9-9-52-1"
     inkscape:connector-curvature="0"
     sodipodi:nodetypes="cssssc" />
  <path
     style="fill:none;stroke:#000000;stroke-width:1;stroke-linecap:butt;stroke-linejoin:round;stroke-miterlimit:4;stroke-dasharray:none;stroke-opacity:1"
     d="m 215.78973,149.72723 c 0.17902,2.3831 2.33354,4.65304 4.18207,4.64528 1.21379,-0.005 1.13685,1.78228 0,1.781 l -13.49985,-0.0152 c -1.13684,-10e-4 -1.21378,-1.786 0,-1.781 1.84854,0.008 4.00307,-2.26218 4.18208,-4.64528"
     id="path14359-1-7-5-3-0-73-1-9-9-6-8"
     inkscape:connector-curvature="0"
     sodipodi:nodetypes="cssssc" />
  <path
     style="fill:none;stroke:#000000;stroke-width:1;stroke-linecap:butt;stroke-linejoin:round;stroke-miterlimit:4;stroke-dasharray:none;stroke-opacity:1"
     d="m 215.78973,143.38592 c 0.17902,2.3831 2.33354,4.65304 4.18207,4.64528 1.21379,-0.005 1.13685,1.78229 0,1.781 l -13.49985,-0.0152 c -1.13684,-0.001 -1.21378,-1.78601 0,-1.78101 1.84854,0.008 4.00307,-2.26218 4.18208,-4.64528"
     id="path14359-1-7-5-3-0-73-1-9-9-97-0"
     inkscape:connector-curvature="0"
     sodipodi:nodetypes="cssssc" />
  <path
     style="fill:none;stroke:#000000;stroke-width:1;stroke-linecap:butt;stroke-linejoin:round;stroke-miterlimit:4;stroke-dasharray:none;stroke-opacity:1"
     d="m 215.78973,137.17143 c 0.17902,2.38311 2.33354,4.65304 4.18207,4.64528 1.21379,-0.005 1.13685,1.78228 0,1.781 l -13.49985,-0.0152 c -1.13684,-0.001 -1.21378,-1.786 0,-1.781 1.84854,0.008 4.00307,-2.26218 4.18208,-4.64528"
     id="path14359-1-7-5-3-0-73-1-9-9-1-1"
     inkscape:connector-curvature="0"
     sodipodi:nodetypes="cssssc" />
  <path
     style="fill:none;stroke:#000000;stroke-width:3;stroke-linecap:round;stroke-linejoin:round;stroke-miterlimit:4;stroke-dasharray:none;stroke-opacity:1"
     d="m 213.22288,170.5229 -0.002,0.0326"
     id="path14359-1-7-5-3-0-73-1-9-9-9-3-2"
     inkscape:connector-curvature="0"
     sodipodi:nodetypes="cc" />
  <path
     style="fill:none;stroke:#000000;stroke-width:5;stroke-linecap:round;stroke-linejoin:round;stroke-miterlimit:4;stroke-dasharray:none;stroke-opacity:1"
     d="m 213.22288,184.98109 -0.002,-0.0942"
     id="path14359-1-7-5-3-0-73-1-9-9-9-1-7"
     inkscape:connector-curvature="0"
     sodipodi:nodetypes="cc" />
  <path
     style="fill:none;stroke:#000000;stroke-width:1;stroke-linecap:butt;stroke-linejoin:round;stroke-miterlimit:4;stroke-dasharray:none;stroke-opacity:1"
     d="m 340.35331,132.11777 c 0.17901,2.3831 2.33354,4.65304 4.18207,4.64528 1.21379,-0.005 1.13684,1.78229 0,1.78101 l -13.49985,-0.0152 c -1.13684,-0.001 -1.21379,-1.786 0,-1.781 1.84853,0.008 4.00306,-2.26218 4.18207,-4.64529"
     id="path14359-1-7-5-3-0-73-1-9-9-17-1"
     inkscape:connector-curvature="0"
     sodipodi:nodetypes="cssssc" />
  <path
     style="fill:none;stroke:#000000;stroke-width:1;stroke-linecap:butt;stroke-linejoin:round;stroke-miterlimit:4;stroke-dasharray:none;stroke-opacity:1"
     d="m 337.80831,177.68559 -0.002,12.20794"
     id="path14359-1-7-5-3-0-73-1-9-9-9-0-4"
     inkscape:connector-curvature="0"
     sodipodi:nodetypes="cc" />
  <path
     style="fill:none;stroke:#000000;stroke-width:1;stroke-linecap:butt;stroke-linejoin:round;stroke-miterlimit:4;stroke-dasharray:none;stroke-opacity:1"
     d="m 340.33303,138.84959 c 0.17901,2.3831 2.33355,4.65304 4.18206,4.64528 1.2138,-0.005 1.13685,1.78228 0,1.781 l -13.49984,-0.0152 c -1.13684,-0.001 -1.21379,-1.786 0,-1.781 1.84853,0.008 4.00306,-2.26218 4.18207,-4.64528"
     id="path14359-1-7-5-3-0-73-1-9-9-91-4-7"
     inkscape:connector-curvature="0"
     sodipodi:nodetypes="cssssc" />
  <path
     style="fill:none;stroke:#000000;stroke-width:1;stroke-linecap:butt;stroke-linejoin:round;stroke-miterlimit:4;stroke-dasharray:none;stroke-opacity:1"
     d="m 340.33303,171.06344 c 0.17901,2.38311 2.33355,4.65304 4.18206,4.64529 1.2138,-0.005 1.13685,1.78228 0,1.781 l -13.49984,-0.0152 c -1.13684,-10e-4 -1.21379,-1.786 0,-1.781 1.84853,0.008 4.00306,-2.26218 4.18207,-4.64529"
     id="path14359-1-7-5-3-0-73-1-9-9-5-0-9"
     inkscape:connector-curvature="0"
     sodipodi:nodetypes="cssssc" />
  <path
     style="fill:none;stroke:#000000;stroke-width:1;stroke-linecap:butt;stroke-linejoin:round;stroke-miterlimit:4;stroke-dasharray:none;stroke-opacity:1"
     d="m 340.33303,164.5953 c 0.17901,2.3831 2.33355,4.65304 4.18206,4.64528 1.2138,-0.005 1.13685,1.78229 0,1.78101 l -13.49984,-0.0152 c -1.13684,-0.001 -1.21379,-1.786 0,-1.781 1.84853,0.008 4.00306,-2.26218 4.18207,-4.64529"
     id="path14359-1-7-5-3-0-73-1-9-9-52-1-1"
     inkscape:connector-curvature="0"
     sodipodi:nodetypes="cssssc" />
  <path
     style="fill:none;stroke:#000000;stroke-width:1;stroke-linecap:butt;stroke-linejoin:round;stroke-miterlimit:4;stroke-dasharray:none;stroke-opacity:1"
     d="m 340.33303,157.87352 c 0.17901,2.38311 2.33355,4.65304 4.18206,4.64528 1.2138,-0.005 1.13685,1.78228 0,1.781 l -13.49984,-0.0152 c -1.13684,-0.001 -1.21379,-1.786 0,-1.781 1.84853,0.008 4.00306,-2.26218 4.18207,-4.64528"
     id="path14359-1-7-5-3-0-73-1-9-9-6-8-2"
     inkscape:connector-curvature="0"
     sodipodi:nodetypes="cssssc" />
  <path
     style="fill:none;stroke:#000000;stroke-width:1;stroke-linecap:butt;stroke-linejoin:round;stroke-miterlimit:4;stroke-dasharray:none;stroke-opacity:1"
     d="m 340.33303,151.53221 c 0.17901,2.3831 2.33355,4.65304 4.18206,4.64528 1.2138,-0.005 1.13685,1.78228 0,1.781 l -13.49984,-0.0152 c -1.13684,-10e-4 -1.21379,-1.786 0,-1.781 1.84853,0.008 4.00306,-2.26218 4.18207,-4.64528"
     id="path14359-1-7-5-3-0-73-1-9-9-97-0-7"
     inkscape:connector-curvature="0"
     sodipodi:nodetypes="cssssc" />
  <path
     style="fill:none;stroke:#000000;stroke-width:1;stroke-linecap:butt;stroke-linejoin:round;stroke-miterlimit:4;stroke-dasharray:none;stroke-opacity:1"
     d="m 340.33303,145.31772 c 0.17901,2.3831 2.33355,4.65304 4.18206,4.64528 1.2138,-0.005 1.13685,1.78229 0,1.78101 l -13.49984,-0.0152 c -1.13684,-0.001 -1.21379,-1.786 0,-1.781 1.84853,0.008 4.00306,-2.26218 4.18207,-4.64529"
     id="path14359-1-7-5-3-0-73-1-9-9-1-1-2"
     inkscape:connector-curvature="0"
     sodipodi:nodetypes="cssssc" />
  <path
     style="fill:none;stroke:#000000;stroke-width:3;stroke-linecap:round;stroke-linejoin:round;stroke-miterlimit:4;stroke-dasharray:none;stroke-opacity:1"
     d="m 337.76618,178.66919 -0.002,0.0326"
     id="path14359-1-7-5-3-0-73-1-9-9-9-3-2-1"
     inkscape:connector-curvature="0"
     sodipodi:nodetypes="cc" />
  <path
     style="fill:none;stroke:#000000;stroke-width:5;stroke-linecap:round;stroke-linejoin:round;stroke-miterlimit:4;stroke-dasharray:none;stroke-opacity:1"
     d="m 337.76618,189.8299 -0.002,-0.0942"
     id="path14359-1-7-5-3-0-73-1-9-9-9-1-7-6"
     inkscape:connector-curvature="0"
     sodipodi:nodetypes="cc" />
  <path
     style="fill:none;stroke:#000000;stroke-width:1;stroke-linecap:butt;stroke-linejoin:round;stroke-miterlimit:4;stroke-dasharray:none;stroke-opacity:1"
     d="m 280.19722,188.70567 c 6.85494,10.57605 17.34945,18.04138 28.28092,17.91257 10.64411,-0.12543 22.22774,-6.41189 28.53521,-15.59708"
     id="path14359-1-7-5-3-0-73-1-9-9-9-0-4-4"
     inkscape:connector-curvature="0"
     sodipodi:nodetypes="csc" />
  <path
     style="fill:none;stroke:#000000;stroke-width:1;stroke-linecap:butt;stroke-linejoin:round;stroke-miterlimit:4;stroke-dasharray:none;stroke-opacity:1"
     d="m 268.40239,193.39824 c -8.89051,8.98016 -17.60994,13.22089 -26.12893,13.1579 -8.94258,-0.0661 -17.40677,-5.31699 -26.12545,-17.31054"
     id="path14359-1-7-5-3-0-73-1-9-9-9-0-4-42"
     inkscape:connector-curvature="0"
     sodipodi:nodetypes="csc" />
  <path
     style="fill:none;stroke:#000000;stroke-width:1;stroke-linecap:butt;stroke-linejoin:round;stroke-miterlimit:4;stroke-dasharray:none;stroke-opacity:1"
     d="m 147.91754,201.0078 c -7.51447,7.48247 -18.12473,13.32068 -29.04163,13.08661 -10.5038,-0.22521 -21.300878,-6.14719 -29.427229,-17.87338"
     id="path14359-1-7-5-3-0-73-1-9-9-9-0-4-1"
     inkscape:connector-curvature="0"
     sodipodi:nodetypes="csc" />
  <path
     style="fill:none;stroke:#000000;stroke-width:1;stroke-linecap:butt;stroke-linejoin:round;stroke-miterlimit:4;stroke-dasharray:none;stroke-opacity:1"
     d="m 107.73765,56.851337 -0.002,-5.657327"
     id="path14359-1-7-5-3-0-73-1-9-9-9-6"
     inkscape:connector-curvature="0"
     sodipodi:nodetypes="cc" />
  <path
     style="fill:none;stroke:#000000;stroke-width:6;stroke-linecap:round;stroke-linejoin:round;stroke-miterlimit:4;stroke-dasharray:none;stroke-opacity:1"
     d="m 106.82743,56.510003 -0.002,0.03158"
     id="path14359-1-7-5-3-0-73-1-9-9-9-6-3"
     inkscape:connector-curvature="0"
     sodipodi:nodetypes="cc" />
  <path
     style="fill:none;stroke:#000000;stroke-width:1;stroke-linecap:butt;stroke-linejoin:round;stroke-miterlimit:4;stroke-dasharray:none;stroke-opacity:1"
     d="m 314.70022,57.589879 -0.002,-5.657327"
     id="path14359-1-7-5-3-0-73-1-9-9-9-6-5"
     inkscape:connector-curvature="0"
     sodipodi:nodetypes="cc" />
  <path
     style="fill:none;stroke:#000000;stroke-width:6;stroke-linecap:round;stroke-linejoin:round;stroke-miterlimit:4;stroke-dasharray:none;stroke-opacity:1"
     d="m 315.61045,56.679653 -0.002,0.03158"
     id="path14359-1-7-5-3-0-73-1-9-9-9-6-3-7"
     inkscape:connector-curvature="0"
     sodipodi:nodetypes="cc" />
  <text
     xml:space="preserve"
     style="font-style:normal;font-variant:normal;font-weight:normal;font-stretch:normal;font-size:12.5px;line-height:125%;font-family:Arial;-inkscape-font-specification:Arial;text-align:start;letter-spacing:0px;word-spacing:0px;text-anchor:start;fill:#000000;fill-opacity:1;stroke:none;stroke-width:1px;stroke-linecap:butt;stroke-linejoin:miter;stroke-opacity:1"
     x="177.80002"
     y="10.484241"
     id="text9344"
     sodipodi:linespacing="125%"><tspan
       sodipodi:role="line"
       id="tspan9346"
       x="177.80002"
       y="10.484241">Overhead</tspan><tspan
       sodipodi:role="line"
       x="177.80002"
       y="26.109241"
       id="tspan9348">Ground Wire</tspan></text>
  <text
     xml:space="preserve"
     style="font-style:normal;font-variant:normal;font-weight:normal;font-stretch:normal;font-size:12.5px;line-height:125%;font-family:Arial;-inkscape-font-specification:Arial;text-align:start;letter-spacing:0.85000002px;word-spacing:0px;text-anchor:start;fill:#000000;fill-opacity:1;stroke:none;stroke-width:1px;stroke-linecap:butt;stroke-linejoin:miter;stroke-opacity:1"
     x="178.79793"
     y="304.86713"
     id="text9350"
     sodipodi:linespacing="125%"><tspan
       sodipodi:role="line"
       id="tspan9352"
       x="178.79793"
       y="304.86713">Grounding</tspan><tspan
       sodipodi:role="line"
       x="178.79793"
       y="320.49213"
       id="tspan9354">Cables</tspan></text>
  <text
     xml:space="preserve"
     style="font-style:normal;font-variant:normal;font-weight:normal;font-stretch:normal;font-size:12.5px;line-height:125%;font-family:Arial;-inkscape-font-specification:Arial;text-align:start;letter-spacing:0px;word-spacing:0px;text-anchor:start;fill:#000000;fill-opacity:1;stroke:none;stroke-width:1px;stroke-linecap:butt;stroke-linejoin:miter;stroke-opacity:1"
     x="27.614876"
     y="281.41629"
     id="text9379"
     sodipodi:linespacing="125%"><tspan
       sodipodi:role="line"
       id="tspan9381"
       x="27.614876"
       y="281.41629">Phase</tspan><tspan
       sodipodi:role="line"
       x="27.614876"
       y="297.04129"
       id="tspan9383">Conductor</tspan></text>
  <text
     xml:space="preserve"
     style="font-style:normal;font-variant:normal;font-weight:normal;font-stretch:normal;font-size:12.5px;line-height:125%;font-family:Arial;-inkscape-font-specification:Arial;text-align:start;letter-spacing:0px;word-spacing:0px;text-anchor:start;fill:#000000;fill-opacity:1;stroke:none;stroke-width:1px;stroke-linecap:butt;stroke-linejoin:miter;stroke-opacity:1"
     x="329.19769"
     y="280.99509"
     id="text9379-9"
     sodipodi:linespacing="125%"><tspan
       sodipodi:role="line"
       id="tspan9381-1"
       x="329.19769"
       y="280.99509">Phase</tspan><tspan
       sodipodi:role="line"
       x="329.19769"
       y="296.62009"
       id="tspan9383-0">Conductor</tspan></text>
  <text
     xml:space="preserve"
     style="font-style:normal;font-variant:normal;font-weight:normal;font-stretch:normal;font-size:10px;line-height:125%;font-family:Arial;-inkscape-font-specification:Arial;text-align:start;letter-spacing:0.40000001px;word-spacing:0px;text-anchor:start;fill:#000000;fill-opacity:1;stroke:none;stroke-width:1px;stroke-linecap:butt;stroke-linejoin:miter;stroke-opacity:1"
     x="1.1703155"
     y="370.23007"
     id="text9406"
     sodipodi:linespacing="125%"><tspan
       sodipodi:role="line"
       id="tspan9408"
       x="1.1703155"
       y="370.23007">Notes:</tspan><tspan
       sodipodi:role="line"
       x="1.1703155"
       y="382.73007"
       id="tspan9410" /><tspan
       sodipodi:role="line"
       x="1.1703155"
       y="395.23007"
       id="tspan9412">1. Employers must ground overhead ground wires that are within reach of the</tspan><tspan
       sodipodi:role="line"
       x="1.1703155"
       y="407.73007"
       id="tspan9414">employee.</tspan><tspan
       sodipodi:role="line"
       x="1.1703155"
       y="420.23007"
       id="tspan9416" /><tspan
       sodipodi:role="line"
       x="1.1703155"
       y="432.73007"
       id="tspan9418">2. The grounding cable must be as short as praticable; therefore, the attachment points</tspan><tspan
       sodipodi:role="line"
       x="1.1703155"
       y="445.23007"
       id="tspan9420">between the grounding cable and the tower may be different from that shown in the</tspan><tspan
       sodipodi:role="line"
       x="1.1703155"
       y="457.73007"
       id="tspan9422">figure.</tspan></text>
  <text
     xml:space="preserve"
     style="font-style:normal;font-variant:normal;font-weight:bold;font-stretch:normal;font-size:10px;line-height:125%;font-family:Arial;-inkscape-font-specification:'Arial Bold';text-align:start;letter-spacing:0.60000002px;word-spacing:0px;text-anchor:start;fill:#000000;fill-opacity:1;stroke:none;stroke-width:1px;stroke-linecap:butt;stroke-linejoin:miter;stroke-opacity:1"
     x="73.019684"
     y="474.51147"
     id="text9424"
     sodipodi:linespacing="125%"><tspan
       sodipodi:role="line"
       id="tspan9426"
       x="73.019684"
       y="474.51147">Figure 4—Equipotential Zone for Metal Lattice Tower</tspan></text>
</svg>
