<?xml version="1.0" encoding="UTF-8" standalone="no"?>
<!-- Created with Inkscape (http://www.inkscape.org/) -->

<svg
   xmlns:dc="http://purl.org/dc/elements/1.1/"
   xmlns:cc="http://creativecommons.org/ns#"
   xmlns:rdf="http://www.w3.org/1999/02/22-rdf-syntax-ns#"
   xmlns:svg="http://www.w3.org/2000/svg"
   xmlns="http://www.w3.org/2000/svg"
   xmlns:sodipodi="http://sodipodi.sourceforge.net/DTD/sodipodi-0.dtd"
   xmlns:inkscape="http://www.inkscape.org/namespaces/inkscape"
   id="svg4238"
   version="1.1"
   inkscape:version="0.91 r13725"
   width="1288"
   height="1576"
   sodipodi:docname="er14au02.005.svg">
  <title id="title_er14au02.005">Biohazard symbol</title>
  <desc id="desc_er14au02.005">Infectious Symbols</desc>
  <metadata
     id="metadata4244">
    <rdf:RDF>
      <cc:Work
         rdf:about="">
        <dc:format>image/svg+xml</dc:format>
        <dc:type
           rdf:resource="http://purl.org/dc/dcmitype/StillImage" />
        <dc:title />
      </cc:Work>
    </rdf:RDF>
  </metadata>
  <defs
     id="defs4242" />
  <sodipodi:namedview
     pagecolor="#ffffff"
     bordercolor="#666666"
     borderopacity="1"
     objecttolerance="10"
     gridtolerance="10"
     guidetolerance="10"
     inkscape:pageopacity="0"
     inkscape:pageshadow="2"
     inkscape:window-width="1280"
     inkscape:window-height="756"
     id="namedview4240"
     showgrid="false"
     inkscape:zoom="0.60025381"
     inkscape:cx="862.60137"
     inkscape:cy="709.95825"
     inkscape:window-x="0"
     inkscape:window-y="0"
     inkscape:window-maximized="0"
     inkscape:current-layer="svg4238" />
  <path
     id="path7214"
     style="fill:#000000;fill-opacity:1;fill-rule:nonzero;stroke:none;display:inline"
     d="m 632.33472,188.68358 c -0.002,0.002 0.002,0.0699 0,0.0711 0.025,-0.006 0.0483,-0.0627 0.0711,-0.0711 -0.008,0 -0.0628,-0.002 -0.0711,0 z m -5.35469,0.21434 c -0.0493,0.006 -0.0928,0.0638 -0.14212,0.0711 0.19015,-0.0125 0.37931,-0.0601 0.57074,-0.0711 -0.047,0 -0.0963,-0.002 -0.14336,0 -0.10359,0.005 -0.18415,-0.0125 -0.28544,0 z m 25.98608,0.14201 c 0.38054,0.0278 0.76346,0.0411 1.14247,0.0711 -0.37329,-0.023 -0.76826,-0.0495 -1.14247,-0.0711 z m 1.14247,0.0711 c 96.13782,7.64173 171.83825,88.23836 171.83825,186.33052 0,99.87675 -78.56762,181.33804 -177.1932,186.40279 l 0,38.26514 c 26.92656,4.25636 47.54692,27.63937 47.54692,55.75576 0,6.8822 -1.23927,13.46266 -3.49791,19.56183 l 34.98256,20.20367 c 54.05996,-81.66246 163.12934,-108.30844 249.08224,-58.68315 85.74846,49.50603 117.40966,156.90769 74.17436,244.44165 59.336,-115.48889 18.0744,-258.63165 -95.59205,-324.25801 -28.43864,-16.41899 -58.74045,-26.42204 -89.38205,-30.55483 11.7298,-28.5944 18.20589,-59.90653 18.20589,-92.73714 0,-130.29543 -101.81072,-236.9601 -230.16497,-244.72823 z m -31.34108,0.14329 c -127.71244,8.43493 -228.87885,114.75072 -228.87885,244.58495 0,31.89624 6.0953,62.3799 17.20524,90.30957 -29.72867,4.35314 -59.19842,14.25625 -86.81143,30.1995 -112.90596,65.1857 -154.26588,206.82321 -96.66278,321.90145 -41.58985,-87.11489 -9.6963,-193.07631 75.31761,-242.1585 86.49593,-49.93831 196.31196,-22.62526 250.01095,60.25452 l 33.7675,-19.48952 c -2.12187,-5.93329 -3.2128,-12.33082 -3.2128,-18.99104 0,-26.9217 18.8754,-49.43987 44.11982,-55.04167 l 0,-39.05136 c -97.75138,-5.98697 -175.33645,-87.08005 -175.33645,-186.33059 0,-97.64303 74.97076,-177.91935 170.48116,-186.18722 z m 10.92313,234.73358 c -49.33752,1.13511 -94.82155,17.93136 -132.14379,45.26261 2.98031,4.41211 6.18468,8.68216 9.56582,12.77876 3.38112,4.09543 6.95581,8.0257 10.70873,11.77924 3.75247,3.75247 7.68274,7.32717 11.77924,10.70871 3.01186,2.4859 6.23835,4.7235 9.4238,6.99582 27.54912,-18.08914 60.54111,-28.69908 96.09198,-28.69908 35.55082,0 68.4718,10.60994 96.02095,28.69908 3.18335,-2.27232 6.41086,-4.511 9.42275,-6.99582 4.09753,-3.38112 8.02674,-6.95686 11.78049,-10.70871 3.75249,-3.75354 7.32719,-7.68381 10.70873,-11.77924 3.38006,-4.09648 6.58445,-8.36655 9.56584,-12.77876 -38.6709,-28.31856 -86.09861,-45.26261 -137.49881,-45.26261 -1.20562,0 -2.44066,-0.0175 -3.64098,0 -0.58523,0.008 -1.19928,-0.0125 -1.78419,0 z m -224.881,205.89117 c -5.18846,47.64925 3.85558,97.1974 29.5553,141.71099 25.70075,44.51357 64.08381,77.19004 107.9435,96.52063 2.33018,-4.78765 4.42579,-9.72992 6.28254,-14.70665 1.85678,-4.9759 3.48107,-10.00763 4.85501,-15.13405 1.37285,-5.12642 2.54579,-10.32534 3.42635,-15.56402 0.64666,-3.85134 0.98141,-7.74266 1.35709,-11.6371 -29.44086,-14.81372 -55.11511,-38.10374 -72.89002,-68.89093 -17.77606,-30.78837 -25.09262,-64.61729 -23.20323,-97.52143 -3.55994,-1.62217 -7.11993,-3.27383 -10.77972,-4.6393 -4.97596,-1.85679 -10.00768,-3.48108 -15.13408,-4.85393 -5.12639,-1.37391 -10.32537,-2.47534 -15.56402,-3.35587 -5.2379,-0.88028 -10.53651,-1.55173 -15.84815,-1.92832 z m 462.18553,2.78357 c -5.31261,0.37691 -10.61153,1.04764 -15.84942,1.92831 -5.23897,0.88028 -10.43586,1.98199 -15.56434,3.3559 -5.12325,1.37391 -10.22546,2.99715 -15.20667,4.8539 -3.65778,1.3655 -7.14831,3.08972 -10.7087,4.71194 1.89043,32.90286 -5.42623,66.73179 -23.20209,97.52014 -17.77478,30.78718 -43.45031,54.00609 -72.88872,68.82106 0.37446,3.89451 0.70804,7.78485 1.35602,11.63596 0.87905,5.23793 1.98091,10.43692 3.3559,15.56403 1.37285,5.12642 2.99712,10.22966 4.85392,15.20639 1.85676,4.97696 3.95237,9.84665 6.28251,14.63543 43.85968,-19.3318 82.24283,-51.93599 107.94361,-96.44959 25.70035,-44.51474 34.81486,-94.13282 29.62743,-141.78325 z m -273.57066,60.25458 -33.98308,19.70395 c 43.69111,87.64832 12.2778,195.38953 -73.67512,245.0136 -85.52892,49.38083 -194.03844,23.39471 -248.36845,-57.32719 70.49965,108.63102 214.66718,144.24212 328.1126,78.74465 27.48051,-15.86629 50.66209,-36.32039 69.24977,-59.75358 18.95007,24.63261 42.93608,46.02719 71.5328,62.53769 113.57307,65.57136 257.91392,29.81586 328.32688,-79.10069 -54.22881,81.07112 -162.89716,107.29685 -248.58271,57.82693 -86.49594,-49.93837 -117.74552,-158.71157 -72.81893,-246.6561 l -35.33898,-20.41797 c -10.32747,11.49866 -25.31658,18.77547 -41.9775,18.77547 -16.93436,0 -32.13701,-7.51758 -42.47733,-19.34629 z"
     inkscape:connector-curvature="0" />
  <text
     xml:space="preserve"
     style="font-size:120.09906006px;font-style:normal;font-variant:normal;font-weight:bold;font-stretch:condensed;text-align:start;line-height:125%;letter-spacing:0px;word-spacing:0px;writing-mode:lr-tb;text-anchor:start;fill:#000000;fill-opacity:1;stroke:none;font-family:'Arial Narrow';-inkscape-font-specification:'Arial Narrow Bold Condensed';"
     x="112.2832"
     y="1318.1105"
     id="text3204"
     sodipodi:linespacing="125%"><tspan
       sodipodi:role="line"
       id="tspan3206"
       x="112.2832"
       y="1318.1105"
       style="font-size:220px;font-style:normal;font-variant:normal;font-weight:bold;font-stretch:condensed;font-family:'Arial Narrow';-inkscape-font-specification:'Arial Narrow Bold Condensed';">BIOHAZARD</tspan></text>
  <path
     style="fill:none;stroke:#000000;stroke-width:3.94970344999999989;stroke-linecap:butt;stroke-linejoin:miter;stroke-miterlimit:4;stroke-opacity:1;stroke-dasharray:31.59762740000000036, 15.79881370000000018;stroke-dashoffset:0"
     d="m 32.622502,72.300211 1219.871198,0"
     id="path4312"
     inkscape:connector-curvature="0" />
  <path
     inkscape:connector-curvature="0"
     id="path4822"
     d="m 32.622502,1511.0317 1219.871198,0"
     style="fill:none;stroke:#000000;stroke-width:3.94970344999999989;stroke-linecap:butt;stroke-linejoin:miter;stroke-miterlimit:4;stroke-opacity:1;stroke-dasharray:31.59762740000000036, 15.79881370000000018;stroke-dashoffset:0" />
  <path
     style="fill:none;stroke:#000000;stroke-width:4.44146871999999959;stroke-linecap:butt;stroke-linejoin:miter;stroke-miterlimit:4;stroke-opacity:1;stroke-dasharray:35.53174907999999732, 17.76587453999999866;stroke-dashoffset:0"
     d="m 74.465077,1559.0166 0,-1542.546293"
     id="path4824"
     inkscape:connector-curvature="0" />
  <path
     inkscape:connector-curvature="0"
     id="path4826"
     d="m 1225.6575,1559.0166 0,-1542.546293"
     style="fill:none;stroke:#000000;stroke-width:4.44146871999999959;stroke-linecap:butt;stroke-linejoin:miter;stroke-miterlimit:4;stroke-opacity:1;stroke-dasharray:35.53174907999999732, 17.76587453999999866;stroke-dashoffset:0" />
</svg>
