<?xml version="1.0" encoding="UTF-8" standalone="no"?>
<!-- Created with Inkscape (http://www.inkscape.org/) -->

<svg
   xmlns:dc="http://purl.org/dc/elements/1.1/"
   xmlns:cc="http://creativecommons.org/ns#"
   xmlns:rdf="http://www.w3.org/1999/02/22-rdf-syntax-ns#"
   xmlns:svg="http://www.w3.org/2000/svg"
   xmlns="http://www.w3.org/2000/svg"
   xmlns:sodipodi="http://sodipodi.sourceforge.net/DTD/sodipodi-0.dtd"
   xmlns:inkscape="http://www.inkscape.org/namespaces/inkscape"
   id="svg8912"
   version="1.1"
   inkscape:version="0.48.2 r9819"
   width="447"
   height="281"
   viewBox="0 0 447 281"
   sodipodi:docname="er14ja10.127.svg">
  <metadata
     id="metadata8918">
    <rdf:RDF>
      <cc:Work
         rdf:about="">
        <dc:format>image/svg+xml</dc:format>
        <dc:type
           rdf:resource="http://purl.org/dc/dcmitype/StillImage" />
        <dc:title></dc:title>
      </cc:Work>
    </rdf:RDF>
  </metadata>
  <defs
     id="defs8916" />
  <sodipodi:namedview
     pagecolor="#ffffff"
     bordercolor="#666666"
     borderopacity="1"
     objecttolerance="10"
     gridtolerance="10"
     guidetolerance="10"
     inkscape:pageopacity="0"
     inkscape:pageshadow="2"
     inkscape:window-width="1280"
     inkscape:window-height="756"
     id="namedview8914"
     showgrid="false"
     inkscape:zoom="1.6644296"
     inkscape:cx="268.64815"
     inkscape:cy="140.5"
     inkscape:window-x="0"
     inkscape:window-y="0"
     inkscape:window-maximized="0"
     inkscape:current-layer="svg8912" />
  <path
     style="fill:none;stroke:#000000;stroke-width:2;stroke-linecap:butt;stroke-linejoin:miter;stroke-miterlimit:4;stroke-dasharray:none;stroke-opacity:1"
     d="m 444.45147,71.179127 -0.002,156.788923 -378.662162,0 0.002,-156.788923"
     id="path14359-1-7-5-3-0-73-1-9"
     inkscape:connector-curvature="0"
     sodipodi:nodetypes="cccc" />
  <path
     style="fill:none;stroke:#000000;stroke-width:1;stroke-linecap:butt;stroke-linejoin:miter;stroke-miterlimit:4;stroke-dasharray:none;stroke-opacity:1"
     d="m 66.08971,242.10856 -0.002,36.02683"
     id="path14359-1-7-5-3-0-73-1-9-4"
     inkscape:connector-curvature="0"
     sodipodi:nodetypes="cc" />
  <path
     style="fill:none;stroke:#000000;stroke-width:1;stroke-linecap:butt;stroke-linejoin:miter;stroke-miterlimit:4;stroke-dasharray:none;stroke-opacity:1"
     d="m 444.29737,242.10856 -0.002,36.02683"
     id="path14359-1-7-5-3-0-73-1-9-8"
     inkscape:connector-curvature="0"
     sodipodi:nodetypes="cc" />
  <path
     style="fill:#000000;fill-opacity:1;stroke:#000000;stroke-width:1;stroke-linecap:butt;stroke-linejoin:round;stroke-miterlimit:4;stroke-dasharray:none;stroke-opacity:1"
     d="m 182.37457,155.48376 4.69251,0 0,6.9799 -4.69251,0 z m 16.894,0 4.99386,0 0,6.9799 -4.99386,0 z m 17.02888,0 4.50404,0 0,6.9799 -4.50404,0 z m 17.49957,0 3.94917,0 0,6.97993 -3.94917,-2e-5 z m 65.91135,-18.0009 c -0.0927,-1.85316 2.57155,-1.69937 2.57155,0 l 0,1.22455 c 0,1.43556 -2.44651,1.2763 -2.51032,0 z m 108.06649,36.46919 0,-25.10154 13.99758,-5.81661 0,30.85864 -13.99758,0 -1.83687,-3e-5 -14.50321,0 0,5.56757 -9.31717,0 0,-7.49918 -8.63016,0 0,-6.67379 -3.48997,0 0,6.67379 -3.24505,0 -1.7756,-1.65314 -11.57199,0 0,-1.71437 -8.57184,0 0,1.71437 -4.4696,0 0,-9.18412 -4.53084,0 0,9.98008 -2.38787,0 0,-9.98008 -3.55119,0 0,10.34744 -3.55119,0 0,-14.08231 c 0,-0.98229 -0.77978,-1.17527 -1.46946,-1.16332 l 0,-5.39498 c 0,-0.62075 0.40361,-1.27389 1.04087,-1.70741 -0.8205,-0.11178 -1.24454,-1.18714 -1.88363,-1.23657 -0.11858,1.62784 -1.42266,2.19876 -1.42266,3.13462 l 0,6.36766 -1.77559,0 0,-1.1021 -1.04087,0 0,4.10224 c 0,1.97172 -4.4696,2.26814 -4.4696,0 l 0,-7.22484 c 0,-2.79472 -2.76641,-6.19443 -4.83697,-6.18397 -0.64734,0.003 -0.79596,-0.56858 -0.79596,-1.35396 l 0,-0.48982 c 0,-1.42398 2.27228,-1.43479 2.75524,-0.0612 l 0.73654,0.0264 -3.00196,-7.67284 -1.46946,0 0,9.49025 c -1.08168,0.0612 -1.73477,0.79596 -2.32664,1.40823 -1.10209,0 -0.61227,-1.95927 -2.02051,-1.95927 l 0,-3.85733 -1.04086,0 0,-4.35411 c 0.0612,-0.6581 0.51252,-0.99229 1.16332,-0.85719 l -1.16332,-2.25845 -1.07496,-0.0341 -0.0271,-1.068 -0.85718,0 0,-2.51032 c 0,-1.12483 -0.81269,-1.23558 -1.59191,-1.10209 l 0,3.18382 -1.16337,0 0,3.73488 -6.97992,0 0,-6.97993 -14.87828,0 0,3.42874 -3.55119,9.61271 c -0.35836,0.75618 -1.36239,2.40206 -1.71437,1.46945 -0.41537,-1.10057 -1.36262,-1.97326 -3.19676,-1.99367 -2.23329,-0.0249 -3.93121,1.87815 -3.84329,3.947 0.13746,3.23467 1.42365,2.63906 1.44945,4.46578 0.0186,1.31745 -0.99514,1.60169 -2.18528,1.60169 l -8.57185,0 -4.71451,-21.36838 -4.22469,0 0,-17.93964 -9.12289,0 -4.36508,-47.811479 2.45873,-0.05407 0.002,-1.334544 -3.24637,0 0,-5.496194 1.70993,-0.200655 -1.70993,-0.292258 0,-1.774268 1.70993,-0.238822 -1.70993,-0.238823 0,-1.393133 1.70993,-0.225464 -1.70993,-0.304662 0,-0.618731 -1.39586,0 0,0.618731 -1.64013,0.304662 1.64013,0.225464 0,1.393133 -1.64013,0.238823 1.64013,0.238822 0,1.774268 -1.64013,0.292258 1.64013,0.200654 0,5.496194 -0.0349,1.388613 1.36905,0 2.64087,47.811481 -13.22513,0 4.29037,-47.811481 5.02953,0 -0.0698,-1.388613 -9.31636,0 -0.002,1.334544 3.38025,0.07152 -4.96514,47.79403 -11.02094,0 0,9.98007 -4.22469,0 c -0.19126,-3.17505 -1.86976,-3.49411 -2.14296,0 l -6.79625,0 0,-30.368812 -5.02065,0 0,30.368812 -7.83711,0 0,15.4849 0.98729,0 0,-3.06278 3.80376,0 0,3.18374 12.0159,0 0,-3.18374 4.9288,0 0,3.18374 11.38831,0 0,-3.18374 5.08188,0 0,3.18374 12.73531,0 0,-3.18374 4.16347,0 0,6.6738 -4.16347,0 0,-3.53242 -12.73531,0 0,3.53242 -5.08188,0 0,-3.53242 -11.38831,0 0,3.53242 -4.9288,0 0,-3.53242 -12.0159,0 0,3.53242 -3.80376,0 0,-3.61102 -0.98728,0 0,13.04709 -3.00015,0 0,-7.95957 -1.83682,0 0,7.95957 -2.87769,0 0,14.3272 -0.97964,0 0,3.61242 -0.97964,0 c 0,3.55534 -8.32693,3.70238 -8.44939,0 l -20.44997,0 c -1.71632,0 -2.17329,-0.80342 -2.22812,-2.30618 -0.056,-1.53459 1.56155,-2.12667 1.61585,-3.94604 0.0378,-1.26589 0.16575,-2.39237 0,-3.48295 -0.27026,-1.77817 -5.29054,-1.15564 -7.22484,-0.91841 -0.98233,0.12048 -2.35362,3.41484 -2.33613,4.29315 0.028,1.40496 -0.12047,3.48274 -1.39875,3.48274 l -21.00101,0 0,-44.20622 -3.7961,0 0,44.20622 -1.7756,0 -1.53068,-2.69401 -0.61228,0 -0.18368,0.73473 -12.306719,0 -0.73473,-0.91841 -1.653141,0 -1.040866,0.61227 -3.676283,-0.40875 -1.71996,-1.35125 -1.461237,-3.2e-4 -0.489846,-0.67361 -0.612261,0.67337 -1.250697,-2.7e-4 -1.686123,0.69175 -5.328868,-0.52283 -18.58203,-3.23931 -0.303491,0.9772 c 3.107068,-0.18074 2.112142,2.37944 1.051892,2.43182 l -1.861979,0.092 c -1.62833,0.0805 -2.42947,-2.48473 0.765613,-2.45279 l 0.349469,-1.05681 -7.748613,-1.3677 c 1.898763,0.42462 3.445782,1.53453 3.154956,2.66069 -0.364582,1.41177 -4.866391,-0.23651 -4.923378,-1.39368 -0.03509,-0.71251 0.93047,-1.41241 1.774235,-1.23519 l -16.82496,-2.92978 4.639419,2.84803 11.631757,3.00244 16.750481,6.62614 c -1.037316,-0.68978 -1.148815,-1.76354 -2.475602,-1.9963 -0.740672,-0.12994 -2.098918,-0.88417 -2.479332,-1.3001 -0.587457,-0.64229 -0.632179,-1.46823 0.180803,-1.95051 1.230302,-0.72983 3.482348,-1.09202 5.387744,-1.17668 1.624568,0.88985 4.358379,1.09709 3.928038,3.25149 0.653902,-0.31166 1.217964,-0.84793 2.200362,-0.33836 0.804159,0.41712 1.718551,1.11788 1.274684,2.19221 l -0.784827,1.89956 -2.372048,-0.18442 -0.978857,-3.77271 -0.297073,0.85342 -1.241538,-0.22311 -0.23271,-2.77336 -1.438979,-0.83195 c 1.101388,0.26205 1.197102,1.55236 1.395912,2.34498 l -0.265339,1.05601 -3.843579,0.0195 -0.476687,0.94562 3.076224,1.95034 c -1.20105,-1.50984 0.120015,-2.41706 1.312581,-2.23552 0.727838,0.11079 1.198622,0.5565 1.350711,0.68567 0.666008,0.56567 0.534127,1.8249 -0.335012,1.75732 l -2.852603,-0.22178 4.710107,1.9249 5.274901,3.46114 -2.509981,-2.10348 c -1.121242,-0.93965 -0.669586,-1.77203 0.453338,-2.17257 0.744858,-0.26569 1.316671,-0.59533 2.407316,-0.34234 0.79808,0.18512 1.228885,0.27742 1.408527,1.00289 0.342932,1.38491 1.820469,3.29298 1.51434,3.79114 -0.534767,0.87021 -2.144095,0.21874 -3.326755,-0.22496 l 3.95225,2.60768 3.496896,-0.0841 c 3.087264,3.79362 6.338061,7.52273 10.195589,11.1941 2.19469,2.08878 3.392417,4.81087 4.297757,7.6246 1.682087,5.22781 2.028021,7.26269 4.059385,12.05025 1.298451,3.06023 3.522237,5.51876 5.694577,8.0218 l 275.7131,7e-4 c 2.39657,10e-6 3.36211,-1.14928 5.02642,-2.89324 1.99333,-2.08872 4.51239,-3.9754 7.30012,-5.65114 1.61779,-0.97249 5.57237,-0.57665 7.46069,-0.55668 0.45081,0.005 2.12289,1.79629 3.42513,1.85706 1.32184,0.0617 14.82282,0.0885 15.78422,0.0971 3.09181,0.0276 0.79062,4.05314 3.74233,3.93388 l -0.0112,-12.69591 c -2.02686,-0.0837 -1.49986,4.60705 -4.4552,4.61775 -3.99846,0.0145 -12.11379,0.60195 -12.29536,0.5826 -3.14428,-0.3351 -2.53175,-2.52464 -1.15622,-3.01007 3.25668,-1.14927 6.97949,-1.92832 9.82912,-1.75806 1.71427,0.10242 1.36835,3.62233 2.05057,3.54562 1.48116,-0.16656 -0.0276,-6.04419 4.55082,-6.10124 l 6.63696,-0.0827 0.22032,5.84983 c 0.0559,1.48331 0.94396,1.46703 0.95429,2.85917 l 0.0226,3.04319 7.72643,2e-5 0,-10.56704 c 2.10357,-1.22441 3.06785,-3.68364 3.06785,-6.59019 l 0,-8.97629 3.10006,-7.35499 0.99974,-0.01 0.9526,-7.02616 -2.09817,5.90845 -18.29347,0 0,-32.75668 -17.42514,7.65343 0,25.11391 z"
     id="path14359-1-7-5-3-0-73-1-9-2"
     inkscape:connector-curvature="0"
     sodipodi:nodetypes="ccccccccccccccccccccssssscccccccccccccccccccccccccccccscsccsccccsssssscccccccccccccccscccccccccssssscccccccccccccccccccccccccccccccccccccccccccccccccccccccccccccccccccccccccccccccccccccccccccccsssssssccccccccccccccccccccccsscccsscccccsssccssccccccccccccssscccssssscccssscssssssccsssssscsscccscccccccccc" />
  <path
     style="fill:none;stroke:#000000;stroke-width:1;stroke-linecap:butt;stroke-linejoin:miter;stroke-miterlimit:4;stroke-dasharray:none;stroke-opacity:1"
     d="m 234.16559,106.19356 -12.06498,-0.002"
     id="path14359-1-7-5-3-0-73-1-9-6"
     inkscape:connector-curvature="0"
     sodipodi:nodetypes="cc" />
  <path
     style="fill:none;stroke:#000000;stroke-width:1;stroke-linecap:round;stroke-linejoin:miter;stroke-miterlimit:4;stroke-dasharray:none;stroke-opacity:1"
     d="m 236.53419,84.043888 -15.90596,-0.002"
     id="path14359-1-7-5-3-0-73-1-9-6-2"
     inkscape:connector-curvature="0"
     sodipodi:nodetypes="cc" />
  <path
     style="fill:none;stroke:#000000;stroke-width:1;stroke-linecap:butt;stroke-linejoin:miter;stroke-miterlimit:4;stroke-dasharray:none;stroke-opacity:1"
     d="m 233.16266,90.872304 -9.71771,-0.002"
     id="path14359-1-7-5-3-0-73-1-9-6-1"
     inkscape:connector-curvature="0"
     sodipodi:nodetypes="cc" />
  <path
     style="fill:none;stroke:#000000;stroke-width:1;stroke-linecap:butt;stroke-linejoin:miter;stroke-miterlimit:4;stroke-dasharray:none;stroke-opacity:1"
     d="m 233.54676,98.298206 -10.74198,-0.002"
     id="path14359-1-7-5-3-0-73-1-9-6-3"
     inkscape:connector-curvature="0"
     sodipodi:nodetypes="cc" />
  <path
     style="fill:none;stroke:#000000;stroke-width:1;stroke-linecap:butt;stroke-linejoin:miter;stroke-miterlimit:4;stroke-dasharray:none;stroke-opacity:1"
     d="m 232.18108,71.368642 -7.19973,-0.002"
     id="path14359-1-7-5-3-0-73-1-9-6-9"
     inkscape:connector-curvature="0"
     sodipodi:nodetypes="cc" />
  <path
     style="fill:none;stroke:#000000;stroke-width:1;stroke-linecap:butt;stroke-linejoin:miter;stroke-miterlimit:4;stroke-dasharray:none;stroke-opacity:1"
     d="m 232.43715,77.428861 -7.92526,-0.002"
     id="path14359-1-7-5-3-0-73-1-9-6-91"
     inkscape:connector-curvature="0"
     sodipodi:nodetypes="cc" />
  <path
     style="fill:none;fill-rule:evenodd;stroke:#000000;stroke-width:1px;stroke-linecap:butt;stroke-linejoin:miter;stroke-opacity:1"
     d="m 225.5511,66.118297 6.65771,5.377378"
     id="path9577"
     inkscape:connector-curvature="0" />
  <path
     style="fill:none;fill-rule:evenodd;stroke:#000000;stroke-width:1px;stroke-linecap:butt;stroke-linejoin:miter;stroke-opacity:1"
     d="m 225.12433,71.666385 7.38322,5.932186"
     id="path9579"
     inkscape:connector-curvature="0" />
  <path
     style="fill:none;fill-rule:evenodd;stroke:#000000;stroke-width:1px;stroke-linecap:butt;stroke-linejoin:miter;stroke-opacity:1"
     d="m 224.44148,77.555894 8.32214,6.657705"
     id="path9581"
     inkscape:connector-curvature="0" />
  <path
     style="fill:none;fill-rule:evenodd;stroke:#000000;stroke-width:1px;stroke-linecap:butt;stroke-linejoin:miter;stroke-opacity:1"
     d="m 224.05739,83.786823 9.17568,7.084481"
     id="path9583"
     inkscape:connector-curvature="0" />
  <path
     style="fill:none;fill-rule:evenodd;stroke:#000000;stroke-width:1px;stroke-linecap:butt;stroke-linejoin:miter;stroke-opacity:1"
     d="m 223.37454,91.170047 10.28531,6.999126"
     id="path9585"
     inkscape:connector-curvature="0" />
  <path
     style="fill:none;fill-rule:evenodd;stroke:#000000;stroke-width:1px;stroke-linecap:butt;stroke-linejoin:miter;stroke-opacity:1"
     d="m 222.6917,98.894692 11.4376,7.127158"
     id="path9587"
     inkscape:connector-curvature="0" />
  <path
     style="fill:none;fill-rule:evenodd;stroke:#000000;stroke-width:1px;stroke-linecap:butt;stroke-linejoin:miter;stroke-opacity:1"
     d="m 222.00886,106.32059 12.41918,6.91377"
     id="path9589"
     inkscape:connector-curvature="0" />
  <path
     style="fill:#000000;fill-opacity:1;stroke:#000000;stroke-width:1;stroke-linecap:butt;stroke-linejoin:miter;stroke-miterlimit:4;stroke-dasharray:none;stroke-opacity:1"
     d="m 80.647603,264.20594 -10.40757,-2.88724 10.40427,-2.80035 0.0112,2.78873 z"
     id="path14359-1-7-5-3-0-73-4-0-68"
     inkscape:connector-curvature="0"
     sodipodi:nodetypes="ccccc" />
  <path
     style="fill:#000000;fill-opacity:1;stroke:#000000;stroke-width:1;stroke-linecap:butt;stroke-linejoin:miter;stroke-miterlimit:4;stroke-dasharray:none;stroke-opacity:1"
     d="m 430.56505,264.19455 10.4037,-2.90123 -10.40803,-2.78636 -0.008,2.78874 z"
     id="path14359-1-7-5-3-0-73-2-0-8"
     inkscape:connector-curvature="0"
     sodipodi:nodetypes="ccccc" />
  <path
     style="fill:none;fill-rule:evenodd;stroke:#000000;stroke-width:1px;stroke-linecap:butt;stroke-linejoin:miter;stroke-opacity:1"
     d="m 430.54514,261.29586 -349.881507,0.0114"
     id="path8331-0-6-2"
     inkscape:connector-curvature="0"
     sodipodi:nodetypes="cc" />
  <path
     style="fill:#000000;fill-opacity:1;stroke:#000000;stroke-width:1;stroke-linecap:butt;stroke-linejoin:miter;stroke-miterlimit:4;stroke-dasharray:none;stroke-opacity:1"
     d="m 434.92255,161.68681 6.85392,8.34733 -1.65204,-10.64714 -2.55468,1.11838 z"
     id="path14359-1-7-5-3-0-73-2-0-8-3"
     inkscape:connector-curvature="0"
     sodipodi:nodetypes="ccccc" />
  <path
     style="fill:none;fill-rule:evenodd;stroke:#000000;stroke-width:1px;stroke-linecap:butt;stroke-linejoin:miter;stroke-opacity:1"
     d="m 437.56655,160.4985 c -2.93531,-7.12749 -5.62016,-13.90854 -9.43815,-20.02896 -5.0403,-8.07982 -10.4329,-13.32044 -17.16607,-23.08958"
     id="path8331-0-6-2-7"
     inkscape:connector-curvature="0"
     sodipodi:nodetypes="csc" />
  <path
     style="fill:#000000;fill-opacity:1;stroke:#000000;stroke-width:1;stroke-linecap:butt;stroke-linejoin:miter;stroke-miterlimit:4;stroke-dasharray:none;stroke-opacity:1"
     d="m 76.875615,153.74706 -8.525882,6.63046 3.959199,-10.02076 2.244845,1.65464 z"
     id="path14359-1-7-5-3-0-73-4-0-68-7"
     inkscape:connector-curvature="0"
     sodipodi:nodetypes="ccccc" />
  <path
     style="fill:none;fill-rule:evenodd;stroke:#000000;stroke-width:1px;stroke-linecap:butt;stroke-linejoin:miter;stroke-opacity:1"
     d="m 90.236101,130.99969 -15.67733,21.00529"
     id="path8331-0-6-2-8"
     inkscape:connector-curvature="0"
     sodipodi:nodetypes="cc" />
  <path
     style="fill:#000000;fill-opacity:1;stroke:#000000;stroke-width:1;stroke-linecap:butt;stroke-linejoin:miter;stroke-miterlimit:4;stroke-dasharray:none;stroke-opacity:1"
     d="m 23.23387,167.50927 2.921094,-10.39812 2.766477,10.41333 -2.788752,0.002 z"
     id="path14359-1-7-5-3-0-73-4-0-68-6"
     inkscape:connector-curvature="0"
     sodipodi:nodetypes="ccccc" />
  <path
     style="fill:none;fill-rule:evenodd;stroke:#000000;stroke-width:1px;stroke-linecap:butt;stroke-linejoin:miter;stroke-opacity:1"
     d="m 26.088854,181.81612 0.04363,-14.28139"
     id="path8331-0-6-2-2"
     inkscape:connector-curvature="0"
     sodipodi:nodetypes="cc" />
  <text
     xml:space="preserve"
     style="font-style:normal;font-variant:normal;font-weight:bold;font-stretch:normal;font-size:5px;line-height:125%;font-family:Arial;-inkscape-font-specification:'Arial Bold';text-align:start;letter-spacing:1px;word-spacing:0px;text-anchor:start;fill:#000000;fill-opacity:1;stroke:none;stroke-width:1px;stroke-linecap:butt;stroke-linejoin:miter;stroke-opacity:1;"
     x="76.602829"
     y="126.29234"
     id="text9642"
     sodipodi:linespacing="125%"><tspan
       sodipodi:role="line"
       id="tspan9644"
       x="76.602829"
       y="126.29234">STEM</tspan></text>
  <text
     xml:space="preserve"
     style="font-style:normal;font-variant:normal;font-weight:bold;font-stretch:normal;font-size:5px;line-height:125%;font-family:Arial;-inkscape-font-specification:'Arial Bold';text-align:start;letter-spacing:1px;word-spacing:0px;text-anchor:start;fill:#000000;fill-opacity:1;stroke:none;stroke-width:1px;stroke-linecap:butt;stroke-linejoin:miter;stroke-opacity:1;"
     x="397.65155"
     y="114.55731"
     id="text9642-1"
     sodipodi:linespacing="125%"><tspan
       sodipodi:role="line"
       id="tspan9644-4"
       x="397.65155"
       y="114.55731">STERN</tspan></text>
  <text
     xml:space="preserve"
     style="font-style:normal;font-variant:normal;font-weight:bold;font-stretch:normal;font-size:10px;line-height:125%;font-family:Arial;-inkscape-font-specification:'Arial Bold';text-align:start;letter-spacing:-0.25px;word-spacing:0px;text-anchor:start;fill:#000000;fill-opacity:1;stroke:none;stroke-width:1px;stroke-linecap:butt;stroke-linejoin:miter;stroke-opacity:1"
     x="1.8024194"
     y="191.47984"
     id="text9664"
     sodipodi:linespacing="125%"><tspan
       sodipodi:role="line"
       id="tspan9666"
       x="1.8024194"
       y="191.47984">BOWSPRIT</tspan></text>
  <text
     xml:space="preserve"
     style="font-style:normal;font-variant:normal;font-weight:bold;font-stretch:normal;font-size:12.5px;line-height:125%;font-family:Arial;-inkscape-font-specification:'Arial Bold';text-align:start;letter-spacing:-0.34999999px;word-spacing:0px;text-anchor:start;fill:#000000;fill-opacity:1;stroke:none;stroke-width:1px;stroke-linecap:butt;stroke-linejoin:miter;stroke-opacity:1"
     x="179.94153"
     y="247.95564"
     id="text9668"
     sodipodi:linespacing="125%"><tspan
       sodipodi:role="line"
       id="tspan9670"
       x="179.94153"
       y="247.95564">LENGTH OVERALL</tspan></text>
  <text
     xml:space="preserve"
     style="font-style:normal;font-variant:normal;font-weight:normal;font-stretch:normal;font-size:10px;line-height:125%;font-family:Arial;-inkscape-font-specification:Arial;text-align:start;letter-spacing:0.75px;word-spacing:0px;text-anchor:start;fill:#000000;fill-opacity:1;stroke:none;stroke-width:1px;stroke-linecap:butt;stroke-linejoin:miter;stroke-opacity:1"
     x="1.8024193"
     y="8.5342731"
     id="text9672"
     sodipodi:linespacing="125%"><tspan
       sodipodi:role="line"
       id="tspan9674"
       x="1.8024193"
       y="8.5342731">FIGURE  2  TO PART  665.   LENGTH OF  FISHING  VESSELS</tspan></text>
</svg>
