<?xml version="1.0" encoding="UTF-8" standalone="no"?>
<!-- Created with Inkscape (http://www.inkscape.org/) -->

<svg
   xmlns:dc="http://purl.org/dc/elements/1.1/"
   xmlns:cc="http://creativecommons.org/ns#"
   xmlns:rdf="http://www.w3.org/1999/02/22-rdf-syntax-ns#"
   xmlns:svg="http://www.w3.org/2000/svg"
   xmlns="http://www.w3.org/2000/svg"
   xmlns:sodipodi="http://sodipodi.sourceforge.net/DTD/sodipodi-0.dtd"
   xmlns:inkscape="http://www.inkscape.org/namespaces/inkscape"
   id="svg4192"
   version="1.1"
   inkscape:version="0.48.2 r9819"
   width="1020"
   height="248"
   sodipodi:docname="er17no08.099.svg">
  <metadata
     id="metadata4198">
    <rdf:RDF>
      <cc:Work
         rdf:about="">
        <dc:format>image/svg+xml</dc:format>
        <dc:type
           rdf:resource="http://purl.org/dc/dcmitype/StillImage" />
        <dc:title></dc:title>
      </cc:Work>
    </rdf:RDF>
  </metadata>
  <defs
     id="defs4196" />
  <sodipodi:namedview
     pagecolor="#ffffff"
     bordercolor="#666666"
     borderopacity="1"
     objecttolerance="10"
     gridtolerance="10"
     guidetolerance="10"
     inkscape:pageopacity="0"
     inkscape:pageshadow="2"
     inkscape:window-width="1273"
     inkscape:window-height="695"
     id="namedview4194"
     showgrid="false"
     inkscape:zoom="0.50740909"
     inkscape:cx="614.71673"
     inkscape:cy="89.829545"
     inkscape:window-x="0"
     inkscape:window-y="0"
     inkscape:window-maximized="0"
     inkscape:current-layer="svg4192" />
  <path
     style="fill:#000000"
     inkscape:connector-curvature="0"
     id="path2231"
     d="M 175.04737,233.83484 92.166153,90.27885 c -1.29929,-2.250911 -3.69911,-3.637403 -6.297681,-3.637403 -2.59857,0 -4.998378,1.386492 -6.297663,3.636206 L -3.3133979,233.83364 c -1.2977918,2.24854 -1.2977918,5.02215 8.878e-4,7.27364 1.2989886,2.24851 3.6996976,3.63382 6.2976756,3.63382 H 168.75061 c 2.59855,0 5.00135,-1.38531 6.29766,-3.63382 1.2993,-2.25149 1.2993,-5.0251 0,-7.27364 z" />
  <path
     inkscape:connector-curvature="0"
     id="path2235"
     d="m 79.32163,185.90372 c 0.358932,3.4084 0.952218,5.94468 1.785765,7.61179 0.833561,1.67008 2.31973,2.50068 4.461468,2.50068 h 0.596246 c 2.141754,0 3.630874,-0.8306 4.461464,-2.50068 0.83356,-1.66711 1.42981,-4.20339 1.78578,-7.61179 l 1.90442,-26.32679 c 0.35895,-5.13188 0.53693,-8.81318 0.53693,-11.04985 0,-3.04057 -0.86322,-5.41369 -2.58967,-7.1164 -1.64042,-1.61966 -3.96904,-2.54814 -6.395561,-2.54814 -2.426509,0 -4.758104,0.92848 -6.398523,2.54814 -1.723484,1.70271 -2.586706,4.07583 -2.586706,7.1164 0,2.23667 0.177993,5.91797 0.533951,11.04985 l 1.904436,26.32679 z"
     style="fill:#ffffff;fill-opacity:1" />
  <circle
     sodipodi:ry="30.747"
     sodipodi:rx="30.747"
     sodipodi:cy="430.79001"
     sodipodi:cx="313.94"
     transform="matrix(0.29664006,0,0,0.29664006,-7.2587103,84.049401)"
     id="circle2237"
     cy="430.79001"
     cx="313.94"
     r="30.747"
     style="fill:#ffffff;fill-opacity:1" />
  <text
     xml:space="preserve"
     style="font-size:40px;font-style:normal;font-variant:normal;font-weight:normal;font-stretch:normal;text-align:start;line-height:125%;letter-spacing:0px;word-spacing:0px;writing-mode:lr-tb;text-anchor:start;fill:#000000;fill-opacity:1;stroke:none;font-family:Arial;-inkscape-font-specification:Arial"
     x="840.31879"
     y="31.997652"
     id="text5824"
     sodipodi:linespacing="125%"><tspan
       sodipodi:role="line"
       id="tspan5826"
       x="840.31879"
       y="31.997652"
       style="font-weight:bold;-inkscape-font-specification:Arial Bold">FIGURE 7</tspan></text>
</svg>
