<?xml version="1.0" encoding="UTF-8" standalone="no"?>
<!-- Created with Inkscape (http://www.inkscape.org/) -->

<svg
   xmlns:dc="http://purl.org/dc/elements/1.1/"
   xmlns:cc="http://creativecommons.org/ns#"
   xmlns:rdf="http://www.w3.org/1999/02/22-rdf-syntax-ns#"
   xmlns:svg="http://www.w3.org/2000/svg"
   xmlns="http://www.w3.org/2000/svg"
   xmlns:sodipodi="http://sodipodi.sourceforge.net/DTD/sodipodi-0.dtd"
   xmlns:inkscape="http://www.inkscape.org/namespaces/inkscape"
   id="svg4212"
   version="1.1"
   inkscape:version="0.48.2 r9819"
   width="1192"
   height="368"
   sodipodi:docname="er17no08.097.svg">
  <metadata
     id="metadata4218">
    <rdf:RDF>
      <cc:Work
         rdf:about="">
        <dc:format>image/svg+xml</dc:format>
        <dc:type
           rdf:resource="http://purl.org/dc/dcmitype/StillImage" />
        <dc:title></dc:title>
      </cc:Work>
    </rdf:RDF>
  </metadata>
  <defs
     id="defs4216" />
  <sodipodi:namedview
     pagecolor="#ffffff"
     bordercolor="#666666"
     borderopacity="1"
     objecttolerance="10"
     gridtolerance="10"
     guidetolerance="10"
     inkscape:pageopacity="0"
     inkscape:pageshadow="2"
     inkscape:window-width="848"
     inkscape:window-height="626"
     id="namedview4214"
     showgrid="false"
     inkscape:zoom="1.6318947"
     inkscape:cx="85.005486"
     inkscape:cy="228.34807"
     inkscape:window-x="0"
     inkscape:window-y="0"
     inkscape:window-maximized="0"
     inkscape:current-layer="svg4212" />
  <path
     style="fill:#000000;fill-opacity:1"
     inkscape:connector-curvature="0"
     id="path2231"
     d="M 145.9118,170.95847 77.20585,51.95499 c -1.077067,-1.865936 -3.066445,-3.015295 -5.220579,-3.015295 -2.154134,0 -4.1435,1.149359 -5.220567,3.014302 L -1.9437399,170.95748 c -1.0758292,1.86397 -1.0758292,4.1632 7.36e-4,6.02962 1.0768217,1.86395 3.0669351,3.01233 5.2205796,3.01233 H 140.69198 c 2.15412,0 4.14596,-1.14838 5.22057,-3.01233 1.07708,-1.86642 1.07708,-4.16565 0,-6.02962 z" />
  <polygon
     style="fill:#ffffff"
     transform="matrix(0.24590543,0,0,0.24590543,-5.2142817,46.790969)"
     id="polygon2233"
     points="93.977,482.88 533.9,482.88 313.94,101.89 " />
  <path
     inkscape:connector-curvature="0"
     id="path2235"
     d="m 66.558142,131.22506 c 0.297543,2.82546 0.789359,4.92794 1.480344,6.30993 0.690996,1.38445 1.922984,2.07299 3.698418,2.07299 h 0.49427 c 1.775445,0 3.009886,-0.68854 3.698418,-2.07299 0.690996,-1.38199 1.185265,-3.48447 1.480355,-6.30993 l 1.578707,-21.8241 c 0.297554,-4.25417 0.445094,-7.30586 0.445094,-9.15998 0,-2.520539 -0.715584,-4.487782 -2.146752,-5.89928 -1.359858,-1.342651 -3.290213,-2.112328 -5.301725,-2.112328 -2.011501,0 -3.944321,0.769677 -5.304178,2.112328 -1.428715,1.411498 -2.144299,3.378741 -2.144299,5.89928 0,1.85412 0.147551,4.90581 0.44263,9.15998 l 1.578718,21.8241 z"
     style="fill:#000000;fill-opacity:1" />
  <circle
     sodipodi:ry="30.747"
     sodipodi:rx="30.747"
     sodipodi:cy="430.79001"
     sodipodi:cx="313.94"
     transform="matrix(0.24590543,0,0,0.24590543,-5.2142817,46.790969)"
     id="circle2237"
     cy="430.79001"
     cx="313.94"
     r="30.747"
     style="fill:#000000;fill-opacity:1" />
  <text
     xml:space="preserve"
     style="font-size:44.60412598px;font-style:normal;font-variant:normal;font-weight:normal;font-stretch:normal;text-align:start;line-height:125%;letter-spacing:0px;word-spacing:0px;writing-mode:lr-tb;text-anchor:start;fill:#000000;fill-opacity:1;stroke:none;font-family:Arial;-inkscape-font-specification:Arial"
     x="244.76337"
     y="177.70326"
     id="text3075"
     sodipodi:linespacing="125%"><tspan
       sodipodi:role="line"
       id="tspan3077"
       x="244.76337"
       y="177.70326"
       style="font-style:normal;font-variant:normal;font-weight:bold;font-stretch:normal;font-family:Courier;-inkscape-font-specification:Courier Bold"><tspan
         style="font-size:80.28742981px;font-style:normal;font-variant:normal;font-weight:bold;font-stretch:normal;font-family:Courier;-inkscape-font-specification:Courier Bold"
         id="tspan3079">WARNING:</tspan></tspan></text>
  <text
     xml:space="preserve"
     style="font-size:44.60412598px;font-style:normal;font-variant:normal;font-weight:normal;font-stretch:normal;text-align:start;line-height:125%;letter-spacing:0px;word-spacing:0px;writing-mode:lr-tb;text-anchor:start;fill:#000000;fill-opacity:1;stroke:none;font-family:Arial;-inkscape-font-specification:Arial"
     x="1.8123679"
     y="294.3316"
     id="text3075-9"
     sodipodi:linespacing="125%"><tspan
       sodipodi:role="line"
       id="tspan3077-3"
       x="1.8123679"
       y="294.3316"
       style="font-size:53.52495193px;font-style:normal;font-variant:normal;font-weight:bold;font-stretch:normal;font-family:Courier;-inkscape-font-specification:Courier Bold">CHOKING HAZARD--This toy is a marble.</tspan><tspan
       sodipodi:role="line"
       x="1.8123679"
       y="361.23779"
       style="font-size:53.52495193px;font-style:normal;font-variant:normal;font-weight:bold;font-stretch:normal;font-family:Courier;-inkscape-font-specification:Courier Bold"
       id="tspan4372">Not for children under 3 yrs.</tspan></text>
  <text
     xml:space="preserve"
     style="font-size:40px;font-style:normal;font-variant:normal;font-weight:normal;font-stretch:normal;text-align:start;line-height:125%;letter-spacing:0px;word-spacing:0px;writing-mode:lr-tb;text-anchor:start;fill:#000000;fill-opacity:1;stroke:none;font-family:Arial;-inkscape-font-specification:Arial"
     x="826.12335"
     y="33.148403"
     id="text4715"
     sodipodi:linespacing="125%"><tspan
       sodipodi:role="line"
       id="tspan4717"
       x="826.12335"
       y="33.148403"
       style="font-weight:bold;-inkscape-font-specification:Arial Bold">FIGURE 5</tspan></text>
</svg>
