<?xml version="1.0" encoding="UTF-8" standalone="no"?>
<!-- Created with Inkscape (http://www.inkscape.org/) -->

<svg
   xmlns:dc="http://purl.org/dc/elements/1.1/"
   xmlns:cc="http://creativecommons.org/ns#"
   xmlns:rdf="http://www.w3.org/1999/02/22-rdf-syntax-ns#"
   xmlns:svg="http://www.w3.org/2000/svg"
   xmlns="http://www.w3.org/2000/svg"
   xmlns:sodipodi="http://sodipodi.sourceforge.net/DTD/sodipodi-0.dtd"
   xmlns:inkscape="http://www.inkscape.org/namespaces/inkscape"
   id="svg10930"
   version="1.1"
   inkscape:version="0.48.2 r9819"
   width="469"
   height="362"
   viewBox="0 0 469 362"
   sodipodi:docname="er18ja01.024.svg">
  <title id="title_er18ja01.024">Double Connections: Illustration of a Clipped End Connection and a Staggered Connection: Non-Mandatory Guidelines for Complying With ยง 1926.756(C)(1)</title>
  <desc id="desc_er18ja01.024"></desc>
  <metadata
     id="metadata10936">
    <rdf:RDF>
      <cc:Work
         rdf:about="">
        <dc:format>image/svg+xml</dc:format>
        <dc:type
           rdf:resource="http://purl.org/dc/dcmitype/StillImage" />
        <dc:title></dc:title>
      </cc:Work>
    </rdf:RDF>
  </metadata>
  <defs
     id="defs10934" />
  <sodipodi:namedview
     pagecolor="#ffffff"
     bordercolor="#666666"
     borderopacity="1"
     objecttolerance="10"
     gridtolerance="10"
     guidetolerance="10"
     inkscape:pageopacity="0"
     inkscape:pageshadow="2"
     inkscape:window-width="1280"
     inkscape:window-height="756"
     id="namedview10932"
     showgrid="false"
     inkscape:zoom="1.332873"
     inkscape:cx="101.70415"
     inkscape:cy="181"
     inkscape:window-x="0"
     inkscape:window-y="0"
     inkscape:window-maximized="0"
     inkscape:current-layer="svg10930" />
  <path
     style="fill:none;stroke:#000000;stroke-width:1;stroke-linecap:butt;stroke-linejoin:round;stroke-miterlimit:4;stroke-dasharray:none;stroke-opacity:1"
     d="m 239.76441,182.42526 54.65767,-13.11417 0.006,-6.00265 -76.39207,0.17374 -61.45696,13.03923 -0.0254,5.54952 z"
     id="path14359-1-7-5-3-0-73-1-9"
     inkscape:connector-curvature="0"
     sodipodi:nodetypes="ccccccc" />
  <path
     style="fill:none;stroke:#000000;stroke-width:1;stroke-linecap:butt;stroke-linejoin:miter;stroke-miterlimit:4;stroke-dasharray:none;stroke-opacity:1"
     d="m 182.29709,184.05887 -1.05698,32.44849 m -0.74328,22.81792 -1.13533,34.85344 7.49037,-0.79621 -13.60416,13.97535 5.67153,0.3979 -0.93802,28.79652 m -0.54551,16.74643 -0.16296,4.84425"
     id="path14359-1-7-5-3-0-73-1-9-1"
     inkscape:connector-curvature="0"
     sodipodi:nodetypes="cccccccccc" />
  <path
     style="fill:none;stroke:#000000;stroke-width:1;stroke-linecap:butt;stroke-linejoin:miter;stroke-miterlimit:4;stroke-dasharray:none;stroke-opacity:1"
     d="m 156.58866,176.5005 83.3401,0.24981 54.49881,-13.4351"
     id="path14359-1-7-5-3-0-73-1-9-3"
     inkscape:connector-curvature="0"
     sodipodi:nodetypes="ccc" />
  <path
     style="fill:none;stroke:#000000;stroke-width:1;stroke-linecap:butt;stroke-linejoin:miter;stroke-miterlimit:4;stroke-dasharray:none;stroke-opacity:1"
     d="m 239.9297,176.84858 -0.002,5.51176"
     id="path14359-1-7-5-3-0-73-1-9-2"
     inkscape:connector-curvature="0"
     sodipodi:nodetypes="cc" />
  <path
     style="fill:none;stroke:#000000;stroke-width:1;stroke-linecap:butt;stroke-linejoin:round;stroke-miterlimit:4;stroke-dasharray:none;stroke-opacity:1"
     d="m 178.43049,337.60834 -21.80876,12.89284 -7.7e-4,5.63048 78.50885,0.70222 54.22531,-31.0268 0.0115,-4.40951 -24.73656,-0.43004"
     id="path14359-1-7-5-3-0-73-1-9-1-3"
     inkscape:connector-curvature="0"
     sodipodi:nodetypes="ccccccc" />
  <path
     style="fill:none;stroke:#000000;stroke-width:1;stroke-linecap:butt;stroke-linejoin:round;stroke-miterlimit:4;stroke-dasharray:none;stroke-opacity:1"
     d="m 177.24096,337.44973 81.91855,0.8624 -23.98786,13.53101 -78.63051,-1.29597"
     id="path14359-1-7-5-3-0-73-1-9-1-0"
     inkscape:connector-curvature="0"
     sodipodi:nodetypes="cccc" />
  <path
     style="fill:none;stroke:#000000;stroke-width:1;stroke-linecap:butt;stroke-linejoin:round;stroke-miterlimit:4;stroke-dasharray:none;stroke-opacity:1"
     d="m 235.21071,351.962 -0.002,4.85002"
     id="path14359-1-7-5-3-0-73-1-9-1-9"
     inkscape:connector-curvature="0"
     sodipodi:nodetypes="cc" />
  <path
     style="fill:none;stroke:#000000;stroke-width:1;stroke-linecap:butt;stroke-linejoin:round;stroke-miterlimit:4;stroke-dasharray:none;stroke-opacity:1"
     d="m 289.29467,321.74793 -23.07888,12.93884"
     id="path14359-1-7-5-3-0-73-1-9-1-03"
     inkscape:connector-curvature="0"
     sodipodi:nodetypes="cc" />
  <path
     style="fill:none;stroke:#000000;stroke-width:1;stroke-linecap:butt;stroke-linejoin:round;stroke-miterlimit:4;stroke-dasharray:none;stroke-opacity:1"
     d="m 266.77291,176.07017 -5.07733,160.59914"
     id="path14359-1-7-5-3-0-73-1-9-1-8"
     inkscape:connector-curvature="0"
     sodipodi:nodetypes="cc" />
  <path
     style="fill:none;stroke:#000000;stroke-width:1;stroke-linecap:butt;stroke-linejoin:round;stroke-miterlimit:4;stroke-dasharray:none;stroke-opacity:1"
     d="m 269.23127,177.18039 -4.83942,157.90288"
     id="path14359-1-7-5-3-0-73-1-9-1-96"
     inkscape:connector-curvature="0"
     sodipodi:nodetypes="cc" />
  <path
     style="fill:none;stroke:#000000;stroke-width:1;stroke-linecap:butt;stroke-linejoin:round;stroke-miterlimit:4;stroke-dasharray:none;stroke-opacity:1"
     d="m 269.36478,208.49565 61.10839,-19.44557 -0.0189,-2.90794 -34.63769,-0.45587 -27.13635,7.98989 m -162.86592,47.95342 -1e-5,4.33715 45.04115,-0.10811 93.17228,-29.53801 0.0203,-2.85345 -45.91033,0.97327 z"
     id="path14359-1-7-5-3-0-73-1-9-1-5"
     inkscape:connector-curvature="0"
     sodipodi:nodetypes="cccccccccccc" />
  <path
     style="fill:none;stroke:#000000;stroke-width:1;stroke-linecap:butt;stroke-linejoin:round;stroke-miterlimit:4;stroke-dasharray:none;stroke-opacity:1"
     d="m 105.9341,241.85596 46.63816,0.0969 91.42349,-28.47943 m 26.33235,-8.4432 60.12512,-18.70273"
     id="path14359-1-7-5-3-0-73-1-9-1-09"
     inkscape:connector-curvature="0"
     sodipodi:nodetypes="ccccc" />
  <path
     style="fill:none;stroke:#000000;stroke-width:1;stroke-linecap:butt;stroke-linejoin:round;stroke-miterlimit:4;stroke-dasharray:none;stroke-opacity:1"
     d="m 268.72528,195.51394 28.75382,1.03256"
     id="path14359-1-7-5-3-0-73-1-9-1-52"
     inkscape:connector-curvature="0"
     sodipodi:nodetypes="cc" />
  <path
     style="fill:none;stroke:#000000;stroke-width:1;stroke-linecap:butt;stroke-linejoin:round;stroke-miterlimit:4;stroke-dasharray:none;stroke-opacity:1"
     d="m 152.69201,242.0342 -0.002,3.29025"
     id="path14359-1-7-5-3-0-73-1-9-1-7"
     inkscape:connector-curvature="0"
     sodipodi:nodetypes="cc" />
  <path
     style="fill:none;stroke:#000000;stroke-width:1;stroke-linecap:butt;stroke-linejoin:round;stroke-miterlimit:4;stroke-dasharray:none;stroke-opacity:1"
     d="m 222.32386,296.87225 -91.43837,41.19564"
     id="path14359-1-7-5-3-0-73-1-9-1-06"
     inkscape:connector-curvature="0"
     sodipodi:nodetypes="cc" />
  <path
     style="fill:none;stroke:#000000;stroke-width:1;stroke-linecap:butt;stroke-linejoin:round;stroke-miterlimit:4;stroke-dasharray:none;stroke-opacity:1"
     d="m 224.81919,222.5468 -2.39875,74.86695 20.12618,-0.17681 0.0215,2.55694 -93.37171,44.56508 -45.46351,-0.92919 c -1.12687,-0.023 -1.54315,-3.37201 -0.13731,-4.06135 l 17.07094,-8.37065"
     id="path14359-1-7-5-3-0-73-1-9-1-1"
     inkscape:connector-curvature="0"
     sodipodi:nodetypes="cccccssc" />
  <path
     style="fill:none;stroke:#000000;stroke-width:1;stroke-linecap:butt;stroke-linejoin:round;stroke-miterlimit:4;stroke-dasharray:none;stroke-opacity:1"
     d="m 126.3127,331.50994 -0.002,8.21024 -22.57727,-0.40462"
     id="path14359-1-7-5-3-0-73-1-9-1-033"
     inkscape:connector-curvature="0"
     sodipodi:nodetypes="ccc" />
  <path
     style="fill:none;stroke:#000000;stroke-width:1;stroke-linecap:butt;stroke-linejoin:round;stroke-miterlimit:4;stroke-dasharray:none;stroke-opacity:1"
     d="m 129.34275,331.45053 -0.001,5.35839 c -4.3e-4,2.01059 0.96621,2.71748 2.60783,2.73642 l 19.79172,0.22841 90.42459,-42.52248"
     id="path14359-1-7-5-3-0-73-1-9-1-11"
     inkscape:connector-curvature="0"
     sodipodi:nodetypes="csscc" />
  <path
     style="fill:none;stroke:#000000;stroke-width:1;stroke-linecap:butt;stroke-linejoin:round;stroke-miterlimit:4;stroke-dasharray:none;stroke-opacity:1"
     d="m 151.44433,339.76833 c -0.5261,1.52031 -1.90881,2.8881 -2.3191,4.65674"
     id="path14359-1-7-5-3-0-73-1-9-1-80"
     inkscape:connector-curvature="0"
     sodipodi:nodetypes="cc" />
  <path
     style="fill:none;stroke:#000000;stroke-width:1;stroke-linecap:butt;stroke-linejoin:round;stroke-miterlimit:4;stroke-dasharray:none;stroke-opacity:1"
     d="m 179.13072,316.30025 20.19836,1.03256"
     id="path14359-1-7-5-3-0-73-1-9-1-90"
     inkscape:connector-curvature="0"
     sodipodi:nodetypes="cc" />
  <path
     style="fill:none;stroke:#000000;stroke-width:1;stroke-linecap:butt;stroke-linejoin:round;stroke-miterlimit:4;stroke-dasharray:none;stroke-opacity:1"
     d="m 148.11721,328.71754 -27.31254,-0.45086 c -1.43048,-0.0236 -1.99096,-1.44335 -1.94173,-2.68751 l 0.3761,-9.50555 c 0.21009,-5.30993 -3.07592,-8.30389 -7.485,-8.42492 l -11.50097,-0.31571 0.14114,-3.03179 -0.884622,-0.11022 2.504442,-53.79548 26.25157,0.60883 0.0616,-5.08279 m 3.32943,0.19934 -0.006,4.90678 18.84403,0.44508 4.09366,-0.16044 -1.89787,76.89306"
     id="path14359-1-7-5-3-0-73-1-9-1-01"
     inkscape:connector-curvature="0"
     sodipodi:nodetypes="cssssccccccccccc" />
  <path
     style="fill:none;stroke:#000000;stroke-width:1;stroke-linecap:butt;stroke-linejoin:round;stroke-miterlimit:4;stroke-dasharray:none;stroke-opacity:1"
     d="m 150.49373,251.54025 -2.02203,78.56632"
     id="path14359-1-7-5-3-0-73-1-9-1-16"
     inkscape:connector-curvature="0"
     sodipodi:nodetypes="cc" />
  <path
     style="fill:none;stroke:#000000;stroke-width:1;stroke-linecap:butt;stroke-linejoin:round;stroke-miterlimit:4;stroke-dasharray:none;stroke-opacity:1"
     d="m 224.73197,223.55263 22.13872,0.16491 -2.08964,45.86075 -9.24415,-0.15515 c -4.26348,-0.0716 -8.04406,4.96765 -8.00534,10.16239 l 0.074,9.92679 -4.98409,0.0851"
     id="path14359-1-7-5-3-0-73-1-9-1-84"
     inkscape:connector-curvature="0"
     sodipodi:nodetypes="cccsscc" />
  <path
     style="fill:none;stroke:#000000;stroke-width:1;stroke-linecap:butt;stroke-linejoin:round;stroke-miterlimit:4;stroke-dasharray:none;stroke-opacity:1"
     d="m 266.19914,276.44084 45.22522,-20.42255 17.77694,1.08379 0.007,2.41308 -63.363,29.46723"
     id="path14359-1-7-5-3-0-73-1-9-1-2"
     inkscape:connector-curvature="0"
     sodipodi:nodetypes="ccccc" />
  <path
     style="fill:none;stroke:#000000;stroke-width:1;stroke-linecap:butt;stroke-linejoin:round;stroke-miterlimit:4;stroke-dasharray:none;stroke-opacity:1"
     d="m 327.87276,257.11293 -61.85133,28.61885"
     id="path14359-1-7-5-3-0-73-1-9-1-32"
     inkscape:connector-curvature="0"
     sodipodi:nodetypes="cc" />
  <path
     style="fill:none;stroke:#000000;stroke-width:1;stroke-linecap:butt;stroke-linejoin:miter;stroke-miterlimit:4;stroke-dasharray:none;stroke-opacity:1"
     d="m 280.51937,206.50892 -1.18973,30.29361 4.67867,0.26099 -8.83258,10.19613 3.73652,0.17064 -1.0301,23.81637 16.0769,1.39485"
     id="path14359-1-7-5-3-0-73-1-9-1-37"
     inkscape:connector-curvature="0"
     sodipodi:nodetypes="ccccccc" />
  <path
     style="fill:none;stroke:#000000;stroke-width:1;stroke-linecap:butt;stroke-linejoin:round;stroke-miterlimit:4;stroke-dasharray:none;stroke-opacity:1"
     d="m 312.76185,249.20605 5.88602,0.1649 0.17491,-13.88216 c 0.0164,-1.29851 0.93288,-2.21152 1.93268,-2.21036 l 9.57934,0.0111 1.84227,-37.87341 -14.87514,-0.0978 c -1.59274,-0.0105 -2.53537,0.53617 -2.60484,2.3067 l -2.28866,58.32424"
     id="path14359-1-7-5-3-0-73-1-9-1-59"
     inkscape:connector-curvature="0"
     sodipodi:nodetypes="ccssccssc" />
  <path
     style="color:#000000;display:inline;overflow:visible;visibility:visible;fill:none;fill-rule:evenodd;stroke:#000000;stroke-width:1;stroke-linecap:butt;stroke-linejoin:miter;stroke-miterlimit:4;stroke-dasharray:none;stroke-dashoffset:0;stroke-opacity:1;marker:none;enable-background:accumulate"
     d="m 144.41667,267.99292 a 3.5505528,3.3441253 0 0 1 -3.55055,3.34413 3.5505528,3.3441253 0 0 1 -3.55055,-3.34413 3.5505528,3.3441253 0 0 1 3.55055,-3.34413 3.5505528,3.3441253 0 0 1 3.55055,3.34413 z"
     id="path11687" />
  <path
     style="color:#000000;display:inline;overflow:visible;visibility:visible;fill:none;fill-rule:evenodd;stroke:#000000;stroke-width:1;stroke-linecap:butt;stroke-linejoin:miter;stroke-miterlimit:4;stroke-dasharray:none;stroke-dashoffset:0;stroke-opacity:1;marker:none;enable-background:accumulate"
     d="m 114.85626,268.28192 a 3.3441253,3.220269 0 0 1 -3.34413,3.22027 3.3441253,3.220269 0 0 1 -3.34412,-3.22027 3.3441253,3.220269 0 0 1 3.34412,-3.22027 3.3441253,3.220269 0 0 1 3.34413,3.22027 z"
     id="path11689" />
  <path
     style="color:#000000;display:inline;overflow:visible;visibility:visible;fill:none;fill-rule:evenodd;stroke:#000000;stroke-width:1;stroke-linecap:butt;stroke-linejoin:miter;stroke-miterlimit:4;stroke-dasharray:none;stroke-dashoffset:0;stroke-opacity:1;marker:none;enable-background:accumulate"
     d="m 113.20483,292.47522 a 3.4266963,3.3854108 0 0 1 -3.42669,3.38541 3.4266963,3.3854108 0 0 1 -3.4267,-3.38541 3.4266963,3.3854108 0 0 1 3.4267,-3.38541 3.4266963,3.3854108 0 0 1 3.42669,3.38541 z"
     id="path11691" />
  <path
     style="color:#000000;display:inline;overflow:visible;visibility:visible;fill:none;fill-rule:evenodd;stroke:#000000;stroke-width:1;stroke-linecap:butt;stroke-linejoin:miter;stroke-miterlimit:4;stroke-dasharray:none;stroke-dashoffset:0;stroke-opacity:1;marker:none;enable-background:accumulate"
     d="m 144.49925,294.25049 a 3.220269,3.2615542 0 0 1 -3.22027,3.26155 3.220269,3.2615542 0 0 1 -3.22027,-3.26155 3.220269,3.2615542 0 0 1 3.22027,-3.26156 3.220269,3.2615542 0 0 1 3.22027,3.26156 z"
     id="path11693" />
  <path
     style="color:#000000;display:inline;overflow:visible;visibility:visible;fill:none;fill-rule:evenodd;stroke:#000000;stroke-width:1;stroke-linecap:butt;stroke-linejoin:miter;stroke-miterlimit:4;stroke-dasharray:none;stroke-dashoffset:0;stroke-opacity:1;marker:none;enable-background:accumulate"
     d="m 144.25153,318.9805 a 3.5505528,3.9634078 0 0 1 -3.55056,3.96341 3.5505528,3.9634078 0 0 1 -3.55055,-3.96341 3.5505528,3.9634078 0 0 1 3.55055,-3.96341 3.5505528,3.9634078 0 0 1 3.55056,3.96341 z"
     id="path11695" />
  <path
     style="color:#000000;display:inline;overflow:visible;visibility:visible;fill:none;fill-rule:evenodd;stroke:#000000;stroke-width:1;stroke-linecap:butt;stroke-linejoin:miter;stroke-miterlimit:4;stroke-dasharray:none;stroke-dashoffset:0;stroke-opacity:1;marker:none;enable-background:accumulate"
     d="m 240.52931,234.59296 a 4.3349771,3.220269 0 0 1 -4.33497,3.22027 4.3349771,3.220269 0 0 1 -4.33498,-3.22027 4.3349771,3.220269 0 0 1 4.33498,-3.22027 4.3349771,3.220269 0 0 1 4.33497,3.22027 z"
     id="path11702" />
  <path
     style="color:#000000;display:inline;overflow:visible;visibility:visible;fill:none;fill-rule:evenodd;stroke:#000000;stroke-width:1;stroke-linecap:butt;stroke-linejoin:miter;stroke-miterlimit:4;stroke-dasharray:none;stroke-dashoffset:0;stroke-opacity:1;marker:none;enable-background:accumulate"
     d="m 238.92381,256.39169 a 3.802901,3.1010475 0 0 1 -3.8029,3.10105 3.802901,3.1010475 0 0 1 -3.8029,-3.10105 3.802901,3.1010475 0 0 1 3.8029,-3.10104 3.802901,3.1010475 0 0 1 3.8029,3.10104 z"
     id="path11704" />
  <path
     style="color:#000000;display:inline;overflow:visible;visibility:visible;fill:none;fill-rule:evenodd;stroke:#000000;stroke-width:1;stroke-linecap:butt;stroke-linejoin:miter;stroke-miterlimit:4;stroke-dasharray:none;stroke-dashoffset:0;stroke-opacity:1;marker:none;enable-background:accumulate"
     d="m 242.75873,277.28217 a 4.2936916,3.5505528 0 0 1 -4.29369,3.55055 4.2936916,3.5505528 0 0 1 -4.29369,-3.55055 4.2936916,3.5505528 0 0 1 4.29369,-3.55056 4.2936916,3.5505528 0 0 1 4.29369,3.55056 z"
     id="path11706" />
  <path
     style="color:#000000;display:inline;overflow:visible;visibility:visible;fill:none;fill-rule:evenodd;stroke:#000000;stroke-width:1;stroke-linecap:butt;stroke-linejoin:miter;stroke-miterlimit:4;stroke-dasharray:none;stroke-dashoffset:0;stroke-opacity:1;marker:none;enable-background:accumulate"
     d="m 328.79772,204.2894 a 3.5092673,3.3028398 0 0 1 -3.50927,3.30284 3.5092673,3.3028398 0 0 1 -3.50927,-3.30284 3.5092673,3.3028398 0 0 1 3.50927,-3.30284 3.5092673,3.3028398 0 0 1 3.50927,3.30284 z"
     id="path11711" />
  <path
     style="color:#000000;display:inline;overflow:visible;visibility:visible;fill:none;fill-rule:evenodd;stroke:#000000;stroke-width:1;stroke-linecap:butt;stroke-linejoin:miter;stroke-miterlimit:4;stroke-dasharray:none;stroke-dashoffset:0;stroke-opacity:1;marker:none;enable-background:accumulate"
     d="m 328.38487,223.03302 a 3.7982659,3.1376979 0 0 1 -3.79826,3.1377 3.7982659,3.1376979 0 0 1 -3.79827,-3.1377 3.7982659,3.1376979 0 0 1 3.79827,-3.1377 3.7982659,3.1376979 0 0 1 3.79826,3.1377 z"
     id="path11713" />
  <text
     xml:space="preserve"
     style="font-style:normal;font-variant:normal;font-weight:bold;font-stretch:normal;font-size:10px;line-height:125%;font-family:Arial;-inkscape-font-specification:'Arial Bold';text-align:start;letter-spacing:0.44999999px;word-spacing:0px;text-anchor:start;fill:#000000;fill-opacity:1;stroke:none;stroke-width:1px;stroke-linecap:butt;stroke-linejoin:miter;stroke-opacity:1"
     x="2.6259067"
     y="12.754404"
     id="text11717"
     sodipodi:linespacing="125%"><tspan
       sodipodi:role="line"
       id="tspan11719"
       x="2.6259067"
       y="12.754404">Appendix H to Subpart R--- Double Connections: Illustration of a Clipped End Connection</tspan><tspan
       sodipodi:role="line"
       x="2.6259067"
       y="25.254406"
       id="tspan11721" /><tspan
       sodipodi:role="line"
       x="2.6259067"
       y="37.754406"
       id="tspan11723">and a Staggered Connection: Non-Mandatory Guidelines for Complying with</tspan><tspan
       sodipodi:role="line"
       x="2.6259067"
       y="50.254406"
       id="tspan11725" /><tspan
       sodipodi:role="line"
       x="2.6259067"
       y="62.754406"
       id="tspan11727">ยง1926.756(c)(1).</tspan></text>
</svg>
