<?xml version="1.0" encoding="UTF-8" standalone="no"?>
<!-- Created with Inkscape (http://www.inkscape.org/) -->

<svg
   xmlns:dc="http://purl.org/dc/elements/1.1/"
   xmlns:cc="http://creativecommons.org/ns#"
   xmlns:rdf="http://www.w3.org/1999/02/22-rdf-syntax-ns#"
   xmlns:svg="http://www.w3.org/2000/svg"
   xmlns="http://www.w3.org/2000/svg"
   xmlns:sodipodi="http://sodipodi.sourceforge.net/DTD/sodipodi-0.dtd"
   xmlns:inkscape="http://www.inkscape.org/namespaces/inkscape"
   id="svg28662"
   version="1.1"
   inkscape:version="0.48.2 r9819"
   width="465"
   height="282"
   viewBox="0 0 465 282"
   sodipodi:docname="er19oc07.022.svg">
  <title id="title_er19oc07.022"></title>
  <desc id="desc_er19oc07.022"></desc>
  <metadata
     id="metadata28668">
    <rdf:RDF>
      <cc:Work
         rdf:about="">
        <dc:format>image/svg+xml</dc:format>
        <dc:type
           rdf:resource="http://purl.org/dc/dcmitype/StillImage" />
        <dc:title></dc:title>
      </cc:Work>
    </rdf:RDF>
  </metadata>
  <defs
     id="defs28666" />
  <sodipodi:namedview
     pagecolor="#ffffff"
     bordercolor="#666666"
     borderopacity="1"
     objecttolerance="10"
     gridtolerance="10"
     guidetolerance="10"
     inkscape:pageopacity="0"
     inkscape:pageshadow="2"
     inkscape:window-width="1280"
     inkscape:window-height="756"
     id="namedview28664"
     showgrid="false"
     inkscape:zoom="1.5913979"
     inkscape:cx="197.76096"
     inkscape:cy="141"
     inkscape:window-x="0"
     inkscape:window-y="0"
     inkscape:window-maximized="0"
     inkscape:current-layer="svg28662" />
  <path
     style="color:#000000;display:inline;overflow:visible;visibility:visible;fill:none;fill-rule:evenodd;stroke:#000000;stroke-width:1;stroke-linecap:butt;stroke-linejoin:miter;stroke-miterlimit:4;stroke-dasharray:none;stroke-dashoffset:0;stroke-opacity:1;marker:none;enable-background:accumulate"
     d="m 435.14743,170.77702 a 80.427827,67.546069 0 0 1 -80.42783,67.54608 80.427827,67.546069 0 0 1 -80.42783,-67.54608 80.427827,67.546069 0 0 1 80.42783,-67.54607 80.427827,67.546069 0 0 1 80.42783,67.54607 z"
     id="path29212"
     inkscape:connector-curvature="0" />
  <path
     style="color:#000000;display:inline;overflow:visible;visibility:visible;fill:none;fill-rule:evenodd;stroke:#000000;stroke-width:1;stroke-linecap:butt;stroke-linejoin:miter;stroke-miterlimit:4;stroke-dasharray:none;stroke-dashoffset:0;stroke-opacity:1;marker:none;enable-background:accumulate"
     d="m 410.47072,168.00703 c 0.0598,0.89435 0.09,1.79532 0.09,2.70223 0,26.22256 -25.31163,47.48015 -56.53511,47.48015 -31.22349,1e-5 -56.53513,-21.25758 -56.53513,-47.48015 0,-26.22256 25.31164,-47.48014 56.53513,-47.48014 24.93243,0 46.09531,13.55441 53.61114,32.36777"
     id="path29212-5"
     inkscape:connector-curvature="0"
     sodipodi:nodetypes="cssssc" />
  <path
     style="color:#000000;display:inline;overflow:visible;visibility:visible;fill:none;fill-rule:evenodd;stroke:#000000;stroke-width:1;stroke-linecap:butt;stroke-linejoin:miter;stroke-miterlimit:4;stroke-dasharray:none;stroke-dashoffset:0;stroke-opacity:1;marker:none;enable-background:accumulate"
     d="m 357.66969,113.34357 a 4.5802894,4.5802894 0 0 1 -4.58029,4.58029 4.5802894,4.5802894 0 0 1 -4.58029,-4.58029 4.5802894,4.5802894 0 0 1 4.58029,-4.58029 4.5802894,4.5802894 0 0 1 4.58029,4.58029 z"
     id="path29230"
     inkscape:connector-curvature="0" />
  <path
     style="color:#000000;display:inline;overflow:visible;visibility:visible;fill:none;fill-rule:evenodd;stroke:#000000;stroke-width:1;stroke-linecap:butt;stroke-linejoin:miter;stroke-miterlimit:4;stroke-dasharray:none;stroke-dashoffset:0;stroke-opacity:1;marker:none;enable-background:accumulate"
     d="m 360.01073,228.66508 a 4.5802894,4.5802894 0 0 1 -4.58029,4.58029 4.5802894,4.5802894 0 0 1 -4.58029,-4.58029 4.5802894,4.5802894 0 0 1 4.58029,-4.58029 4.5802894,4.5802894 0 0 1 4.58029,4.58029 z"
     id="path29230-9"
     inkscape:connector-curvature="0" />
  <path
     style="color:#000000;display:inline;overflow:visible;visibility:visible;fill:none;fill-rule:evenodd;stroke:#000000;stroke-width:1;stroke-linecap:butt;stroke-linejoin:miter;stroke-miterlimit:4;stroke-dasharray:none;stroke-dashoffset:0;stroke-opacity:1;marker:none;enable-background:accumulate"
     d="m 289.9832,171.66592 a 4.5802894,4.5802894 0 0 1 -4.58029,4.58029 4.5802894,4.5802894 0 0 1 -4.58029,-4.58029 4.5802894,4.5802894 0 0 1 4.58029,-4.58029 4.5802894,4.5802894 0 0 1 4.58029,4.58029 z"
     id="path29230-7"
     inkscape:connector-curvature="0" />
  <path
     style="color:#000000;display:inline;overflow:visible;visibility:visible;fill:none;fill-rule:evenodd;stroke:#000000;stroke-width:1;stroke-linecap:butt;stroke-linejoin:miter;stroke-miterlimit:4;stroke-dasharray:none;stroke-dashoffset:0;stroke-opacity:1;marker:none;enable-background:accumulate"
     d="m 429.63113,169.42667 a 4.5802894,4.5802894 0 0 1 -4.58029,4.58029 4.5802894,4.5802894 0 0 1 -4.58029,-4.58029 4.5802894,4.5802894 0 0 1 4.58029,-4.58029 4.5802894,4.5802894 0 0 1 4.58029,4.58029 z"
     id="path29230-8"
     inkscape:connector-curvature="0" />
  <path
     style="fill:none;stroke:#000000;stroke-width:1;stroke-linecap:butt;stroke-linejoin:round;stroke-miterlimit:4;stroke-dasharray:none;stroke-opacity:1"
     d="m 238.58118,236.00655 0.002,-126.18332 c 1e-5,-0.90826 -0.63847,-1.45 -1.89843,-1.45 l -9.70385,0 c -0.84411,0 -1.54016,0.40223 -1.54018,1.45 l -0.002,126.18332 c -2e-5,1.16906 0.59825,2.11923 1.76526,2.11923 l 9.36923,0 c 0.95796,0 2.00795,-1.02865 2.00797,-2.11923 z"
     id="path14359-1-7-5-3-0-73-1-9"
     inkscape:connector-curvature="0"
     sodipodi:nodetypes="sssssssss" />
  <path
     style="fill:none;stroke:#000000;stroke-width:1;stroke-linecap:butt;stroke-linejoin:round;stroke-miterlimit:4;stroke-dasharray:none;stroke-opacity:1"
     d="m 225.29701,123.65444 -10.15001,0 c -0.84411,0 -1.54016,0.40223 -1.54018,1.45 l -0.002,96.17946 c -2e-5,1.16906 0.59825,2.11923 1.76526,2.11923 l 9.81539,0"
     id="path14359-1-7-5-3-0-73-1-9-6"
     inkscape:connector-curvature="0"
     sodipodi:nodetypes="cssssc" />
  <path
     style="fill:none;stroke:#000000;stroke-width:1;stroke-linecap:butt;stroke-linejoin:round;stroke-miterlimit:4;stroke-dasharray:none;stroke-opacity:1"
     d="m 213.55775,129.1756 -8.25385,0 c -1.58424,0 -3.10168,1.5176 -3.10172,3.34615 l -0.002,81.79099 c -5e-5,1.84167 1.60209,3.12308 3.3268,3.12308 l 7.80769,0"
     id="path14359-1-7-5-3-0-73-1-9-6-2"
     inkscape:connector-curvature="0"
     sodipodi:nodetypes="cssssc" />
  <path
     style="fill:none;stroke:#000000;stroke-width:1;stroke-linecap:butt;stroke-linejoin:round;stroke-miterlimit:4;stroke-dasharray:none;stroke-opacity:1"
     d="m 202.01351,161.01985 -8.25385,0 c -1.58424,0 -3.10152,1.5176 -3.10172,3.34615 l -0.002,18.54864 c -1.9e-4,1.84167 1.60209,3.12308 3.3268,3.12308 l 8.25385,0"
     id="path14359-1-7-5-3-0-73-1-9-6-2-0"
     inkscape:connector-curvature="0"
     sodipodi:nodetypes="cssssc" />
  <path
     style="fill:none;stroke:#000000;stroke-width:1;stroke-linecap:butt;stroke-linejoin:round;stroke-miterlimit:4;stroke-dasharray:none;stroke-opacity:1"
     d="m 292.55501,127.25692 0.002,-25.01788 c 7e-5,-0.90826 -0.63847,-1.45 -1.89843,-1.45 l -10.15001,0 c -0.84411,0 -1.54009,0.40223 -1.54018,1.45 l -0.002,25.01788 c -9e-5,1.16906 0.59825,2.11923 1.76526,2.11923 l 9.81539,0 c 0.95796,0 2.00788,-1.02865 2.00797,-2.11923 z"
     id="path14359-1-7-5-3-0-73-1-9-5"
     inkscape:connector-curvature="0"
     sodipodi:nodetypes="sssssssss" />
  <path
     style="fill:none;stroke:#000000;stroke-width:1;stroke-linecap:butt;stroke-linejoin:round;stroke-miterlimit:4;stroke-dasharray:none;stroke-opacity:1"
     d="m 385.15368,193.42797 -22.68974,-16.16063 c -0.7398,-0.52692 -1.51839,-0.31364 -2.28908,0.68313 l -5.74453,7.42962 c -0.51632,0.66777 -0.58605,1.49052 0.26738,2.09837 l 22.68975,16.16064 c 0.95222,0.67821 2.03727,0.74049 2.75212,-0.18195 l 5.54778,-7.15894 c 0.5868,-0.75721 0.35462,-2.23756 -0.53368,-2.87024 z"
     id="path14359-1-7-5-3-0-73-1-9-5-1"
     inkscape:connector-curvature="0"
     sodipodi:nodetypes="sssssssss" />
  <path
     style="fill:none;stroke:#000000;stroke-width:1;stroke-linecap:butt;stroke-linejoin:round;stroke-miterlimit:4;stroke-dasharray:none;stroke-opacity:1"
     d="m 417.64269,157.5084 -29.95748,-5.64922 c -0.89253,-0.16831 -2.72183,0.57749 -2.99683,2.27359 l -1.05785,6.5244 c -0.25226,1.5558 0.8966,2.70704 1.92778,2.89274 l 29.51134,5.3146 c 1.15054,0.2072 2.35493,-0.69616 2.73855,-1.79832 l 2.00108,-5.74915 c 0.51231,-1.47189 -0.28001,-3.45288 -2.16659,-3.80864 z"
     id="path14359-1-7-5-3-0-73-1-9-5-4"
     inkscape:connector-curvature="0"
     sodipodi:nodetypes="sssssssss" />
  <path
     style="fill:none;stroke:#000000;stroke-width:1;stroke-linecap:butt;stroke-linejoin:round;stroke-miterlimit:4;stroke-dasharray:none;stroke-opacity:1"
     d="m 330.98941,127.4302 11.51572,14.4635 c 0.72819,0.91458 2.83304,1.17984 3.79905,0.52506 l 8.52234,-5.77663 c 0.79297,-0.53749 0.98939,-2.25059 -0.007,-3.57919 l -6.66706,-9.45163"
     id="path14359-1-7-5-3-0-73-1-9-5-3"
     inkscape:connector-curvature="0"
     sodipodi:nodetypes="cssscc" />
  <path
     style="fill:none;stroke:#000000;stroke-width:1;stroke-linecap:butt;stroke-linejoin:round;stroke-miterlimit:4;stroke-dasharray:none;stroke-opacity:1"
     d="m 252.16524,242.53439 0.002,-142.33155 c 2e-5,-0.908256 -0.63847,-1.449996 -1.89843,-1.449996 l -2.91384,0 c -0.84411,0 -1.54016,0.40223 -1.54018,1.449996 l -0.002,142.33155 c -1e-5,1.16906 0.59825,2.11923 1.76526,2.11923 l 2.57922,0 c 0.95796,0 2.00796,-1.02865 2.00797,-2.11923 z"
     id="path14359-1-7-5-3-0-73-1-9-5-43"
     inkscape:connector-curvature="0"
     sodipodi:nodetypes="sssssssss" />
  <path
     style="fill:none;stroke:#000000;stroke-width:1;stroke-linecap:butt;stroke-linejoin:round;stroke-miterlimit:4;stroke-dasharray:none;stroke-opacity:1"
     d="m 130.66011,183.84713 0.002,-21.32159 c 9e-5,-0.90826 -0.63847,-1.45 -1.89843,-1.45 l -3.14163,0 c -0.84411,0 -1.54008,0.40223 -1.54018,1.45 l -0.002,21.32159 c -1.1e-4,1.16906 0.59825,2.11923 1.76526,2.11923 l 2.80701,0 c 0.95796,0 2.00787,-1.02865 2.00797,-2.11923 z"
     id="path14359-1-7-5-3-0-73-1-9-5-43-8"
     inkscape:connector-curvature="0"
     sodipodi:nodetypes="sssssssss" />
  <path
     style="fill:none;stroke:#000000;stroke-width:1;stroke-linecap:butt;stroke-linejoin:miter;stroke-miterlimit:4;stroke-dasharray:none;stroke-opacity:1"
     d="m 130.58417,163.70153 60.16341,0.002"
     id="path14359-1-7-5-3-0-73-1-9-1"
     inkscape:connector-curvature="0"
     sodipodi:nodetypes="cc" />
  <path
     style="fill:none;stroke:#000000;stroke-width:1;stroke-linecap:butt;stroke-linejoin:miter;stroke-miterlimit:4;stroke-dasharray:none;stroke-opacity:1"
     d="m 130.58417,182.75972 60.16341,0.002"
     id="path14359-1-7-5-3-0-73-1-9-1-1"
     inkscape:connector-curvature="0"
     sodipodi:nodetypes="cc" />
  <path
     style="color:#000000;display:inline;overflow:visible;visibility:visible;fill:none;fill-rule:evenodd;stroke:#000000;stroke-width:1;stroke-linecap:butt;stroke-linejoin:miter;stroke-miterlimit:4;stroke-dasharray:none;stroke-dashoffset:0;stroke-opacity:1;marker:none;enable-background:accumulate"
     d="m 50.039211,152.0989 c -0.250437,-1.24937 0.56961,-1.50703 1.649708,-2.43569 l 20.641753,-17.74772 c 1.603652,-1.37882 0.537992,-2.45961 0.342453,-3.01899 -0.201176,-0.5755 -0.310542,-1.1941 -0.310542,-1.83824 -10e-7,-3.07555 2.493226,-5.56877 5.568773,-5.56877 3.075548,0 5.568775,2.49322 5.568774,5.56877 0,0.6456 -0.109861,1.26554 -0.311907,1.84214 -0.18418,0.52562 -1.663279,1.40919 0.307916,3.11792 l 18.984951,16.45708 c 0.7521,0.65196 1.69546,1.224 1.58819,2.30783"
     id="path29230-7-2"
     inkscape:connector-curvature="0"
     sodipodi:nodetypes="csssssssssc" />
  <path
     style="fill:none;stroke:#000000;stroke-width:1;stroke-linecap:butt;stroke-linejoin:round;stroke-miterlimit:4;stroke-dasharray:none;stroke-opacity:1"
     d="m 123.40859,188.84753 0.002,-28.14883 c 3.2e-4,-4.58389 -18.10689,-12.37813 -44.908831,-12.34128 -26.801944,0.0369 -41.310907,8.074 -41.311232,12.34128 l -0.002,26.3069"
     id="path14359-1-7-5-3-0-73-1-9-0"
     inkscape:connector-curvature="0"
     sodipodi:nodetypes="cszsc" />
  <path
     style="fill:none;stroke:#000000;stroke-width:2;stroke-linecap:round;stroke-linejoin:miter;stroke-miterlimit:4;stroke-dasharray:none;stroke-opacity:1"
     d="m 47.189598,159.11991 -0.002,17.97434"
     id="path14359-1-7-5-3-0-73-1-9-2"
     inkscape:connector-curvature="0"
     sodipodi:nodetypes="cc" />
  <path
     style="fill:none;stroke:#000000;stroke-width:2;stroke-linecap:round;stroke-linejoin:miter;stroke-miterlimit:4;stroke-dasharray:none;stroke-opacity:1"
     d="m 119.02503,162.71607 -0.002,19.29001"
     id="path14359-1-7-5-3-0-73-1-9-8"
     inkscape:connector-curvature="0"
     sodipodi:nodetypes="cc" />
  <path
     style="fill:none;stroke:#000000;stroke-width:2;stroke-linecap:round;stroke-linejoin:miter;stroke-miterlimit:4;stroke-dasharray:none;stroke-opacity:1"
     d="m 113.06067,158.15509 -0.002,18.76374"
     id="path14359-1-7-5-3-0-73-1-9-59"
     inkscape:connector-curvature="0"
     sodipodi:nodetypes="cc" />
  <path
     style="fill:none;stroke:#000000;stroke-width:2;stroke-linecap:round;stroke-linejoin:miter;stroke-miterlimit:4;stroke-dasharray:none;stroke-opacity:1"
     d="m 108.23656,156.31315 -0.002,17.97434"
     id="path14359-1-7-5-3-0-73-1-9-89"
     inkscape:connector-curvature="0"
     sodipodi:nodetypes="cc" />
  <path
     style="fill:none;stroke:#000000;stroke-width:2;stroke-linecap:round;stroke-linejoin:miter;stroke-miterlimit:4;stroke-dasharray:none;stroke-opacity:1"
     d="m 43.242597,160.78642 -0.002,18.93916"
     id="path14359-1-7-5-3-0-73-1-9-09"
     inkscape:connector-curvature="0"
     sodipodi:nodetypes="cc" />
  <path
     style="fill:none;stroke:#000000;stroke-width:2;stroke-linecap:round;stroke-linejoin:miter;stroke-miterlimit:4;stroke-dasharray:none;stroke-opacity:1"
     d="m 53.855645,156.92713 -0.002,17.97434"
     id="path14359-1-7-5-3-0-73-1-9-55"
     inkscape:connector-curvature="0"
     sodipodi:nodetypes="cc" />
  <path
     style="fill:none;stroke:#000000;stroke-width:1;stroke-linecap:butt;stroke-linejoin:round;stroke-miterlimit:4;stroke-dasharray:none;stroke-opacity:1"
     d="m 11.048463,245.66497 7.816665,-45.38725 58.320683,-7.30131 61.816079,6.92918 11.03776,47.12384 c -4.65533,0.62389 -7.94611,-5.3764 -24.63338,-4.97027 -14.01308,0.34105 -28.910619,5.5545 -42.919108,5.04855 -13.978206,-0.50486 -21.878176,-7.28887 -44.166941,-7.45809 -20.009142,-0.15191 -25.37566,6.2703 -27.271758,6.01535 z"
     id="path14359-1-7-5-3-0-73-1-9-22"
     inkscape:connector-curvature="0"
     sodipodi:nodetypes="cccccsssc" />
  <path
     style="fill:none;stroke:#000000;stroke-width:1;stroke-linecap:butt;stroke-linejoin:miter;stroke-miterlimit:4;stroke-dasharray:none;stroke-opacity:1"
     d="m 77.155308,192.88173 0.866296,53.82212"
     id="path14359-1-7-5-3-0-73-1-9-68"
     inkscape:connector-curvature="0"
     sodipodi:nodetypes="cc" />
  <path
     style="fill:none;stroke:#000000;stroke-width:1;stroke-linecap:butt;stroke-linejoin:round;stroke-miterlimit:4;stroke-dasharray:none;stroke-opacity:1"
     d="m 66.609713,244.09896 -0.122042,-35.83599 -41.430127,1.61255 -4.219438,31.99068"
     id="path14359-1-7-5-3-0-73-1-9-7"
     inkscape:connector-curvature="0"
     sodipodi:nodetypes="cccc" />
  <path
     style="fill:none;stroke:#000000;stroke-width:1;stroke-linecap:butt;stroke-linejoin:round;stroke-miterlimit:4;stroke-dasharray:none;stroke-opacity:1"
     d="m 89.061369,247.07598 0.870296,-39.43322 42.546505,1.73659 4.83565,33.72728"
     id="path14359-1-7-5-3-0-73-1-9-62"
     inkscape:connector-curvature="0"
     sodipodi:nodetypes="cccc" />
  <path
     style="fill:none;stroke:#000000;stroke-width:1;stroke-linecap:butt;stroke-linejoin:miter;stroke-miterlimit:4;stroke-dasharray:none;stroke-opacity:1"
     d="m 19.599683,200.07618 c 15.581305,-14.89484 27.20684,-19.01647 58.055277,-19.07711 30.84844,-0.0606 47.51752,5.51054 59.03865,18.81679"
     id="path14359-1-7-5-3-0-73-1-9-15"
     inkscape:connector-curvature="0"
     sodipodi:nodetypes="czc" />
  <path
     style="fill:none;stroke:#000000;stroke-width:4;stroke-linecap:butt;stroke-linejoin:miter;stroke-miterlimit:4;stroke-dasharray:none;stroke-opacity:1"
     d="m 238.38437,176.49148 c 2.48417,-0.055 4.96955,-0.10596 7.44908,-0.15202 m 6.28625,-0.10601 c 17.29802,-0.26068 34.01229,-0.24427 47.69835,0.34483 24.60732,1.05919 51.36285,5.86035 55.08252,8.16012"
     id="path14359-1-7-5-3-0-73-1-9-54"
     inkscape:connector-curvature="0"
     sodipodi:nodetypes="cccsc" />
  <path
     style="fill:none;stroke:#000000;stroke-width:4;stroke-linecap:butt;stroke-linejoin:miter;stroke-miterlimit:4;stroke-dasharray:none;stroke-opacity:1"
     d="m 383.83136,160.92241 c -18.63021,-0.54605 -54.44732,5.58662 -83.70451,6.13431 -16.05081,0.30047 -32.29132,1.03197 -47.91614,0.83739 m -6.49477,-0.139 c -2.41763,-0.075 -4.8174,-0.17741 -7.19623,-0.31235"
     id="path14359-1-7-5-3-0-73-1-9-3"
     inkscape:connector-curvature="0"
     sodipodi:nodetypes="csccc" />
  <path
     style="fill:none;stroke:#000000;stroke-width:4;stroke-linecap:butt;stroke-linejoin:miter;stroke-miterlimit:4;stroke-dasharray:none;stroke-opacity:1"
     d="m 348.63445,140.8728 c 7.55612,11.11331 4.32705,29.50055 11.18001,37.55231"
     id="path14359-1-7-5-3-0-73-1-9-66"
     inkscape:connector-curvature="0"
     sodipodi:nodetypes="cc" />
  <path
     style="fill:none;stroke:#000000;stroke-width:4;stroke-linecap:butt;stroke-linejoin:miter;stroke-miterlimit:4;stroke-dasharray:none;stroke-opacity:1"
     d="m 352.00437,138.65172 c 8.38481,8.30489 27.22492,14.96597 32.70153,16.5669"
     id="path14359-1-7-5-3-0-73-1-9-13"
     inkscape:connector-curvature="0"
     sodipodi:nodetypes="cc" />
  <path
     style="fill:none;stroke:#666666;stroke-width:4;stroke-linecap:butt;stroke-linejoin:miter;stroke-miterlimit:4;stroke-dasharray:none;stroke-opacity:1"
     d="m 283.60452,129.43983 c -0.34741,3.1714 -3.81833,8.83929 -8.78606,13.96739 -8.02282,8.28181 -20.27959,16.01077 -22.65591,16.4802 m -6.45318,3.06732 c -1.17357,0.14287 -4.3423,1.23024 -7.21296,1.43186"
     id="path14359-1-7-5-3-0-73-1-9-08"
     inkscape:connector-curvature="0"
     sodipodi:nodetypes="csccc" />
  <path
     style="fill:none;stroke:#666666;stroke-width:4;stroke-linecap:butt;stroke-linejoin:miter;stroke-miterlimit:4;stroke-dasharray:none;stroke-opacity:1"
     d="m 287.212,129.41314 c 0.15027,6.26818 7.2932,12.94516 16.94496,19.12335 12.02553,7.69766 27.55109,12.74578 34.41637,11.06307 10.8392,-2.65672 9.80964,-7.95588 7.16731,-17.12312"
     id="path14359-1-7-5-3-0-73-1-9-08-6"
     inkscape:connector-curvature="0"
     sodipodi:nodetypes="cssc" />
  <path
     style="fill:#000000;fill-opacity:1;stroke:#000000;stroke-width:1;stroke-linecap:butt;stroke-linejoin:miter;stroke-miterlimit:4;stroke-dasharray:none;stroke-opacity:1"
     d="m 259.02085,242.25265 -4.34876,-3.60004 5.57993,0.83886 -0.61558,1.38059 z"
     id="path14359-1-7-5-3-0-73-1"
     inkscape:connector-curvature="0"
     sodipodi:nodetypes="ccccc" />
  <path
     style="fill:none;stroke:#000000;stroke-width:1;stroke-linecap:butt;stroke-linejoin:miter;stroke-miterlimit:4;stroke-dasharray:none;stroke-opacity:1"
     d="m 259.65056,240.87726 c 9.12579,3.77951 18.08496,9.11285 24.76198,9.59308"
     id="path14359-1-7-5-3-0-73-1-9-72"
     inkscape:connector-curvature="0"
     sodipodi:nodetypes="cc" />
  <path
     style="fill:#000000;fill-opacity:1;stroke:#000000;stroke-width:1;stroke-linecap:butt;stroke-linejoin:miter;stroke-miterlimit:4;stroke-dasharray:none;stroke-opacity:1"
     d="m 272.14941,97.524479 5.0582,2.507321 -3.03703,-4.755601 -1.01059,1.124139 z"
     id="path14359-1-7-5-3-0-73-1-0"
     inkscape:connector-curvature="0"
     sodipodi:nodetypes="ccccc" />
  <path
     style="fill:none;stroke:#000000;stroke-width:1;stroke-linecap:butt;stroke-linejoin:miter;stroke-miterlimit:4;stroke-dasharray:none;stroke-opacity:1"
     d="m 229.63477,80.204897 c 17.8065,-0.510416 32.10162,6.363137 43.52325,16.195007"
     id="path14359-1-7-5-3-0-73-1-9-86"
     inkscape:connector-curvature="0"
     sodipodi:nodetypes="cc" />
  <path
     style="fill:#000000;fill-opacity:1;stroke:#000000;stroke-width:1;stroke-linecap:butt;stroke-linejoin:miter;stroke-miterlimit:4;stroke-dasharray:none;stroke-opacity:1"
     d="m 299.52677,134.88472 0.50114,5.62325 2.4715,-5.07258 -1.48632,-0.27533 z"
     id="path14359-1-7-5-3-0-73-1-0-7"
     inkscape:connector-curvature="0"
     sodipodi:nodetypes="ccccc" />
  <path
     style="fill:none;stroke:#000000;stroke-width:1;stroke-linecap:butt;stroke-linejoin:miter;stroke-miterlimit:4;stroke-dasharray:none;stroke-opacity:1"
     d="m 245.94321,50.170845 c 54.91293,9.519943 62.76773,45.308356 55.06922,84.987295"
     id="path14359-1-7-5-3-0-73-1-9-132"
     inkscape:connector-curvature="0"
     sodipodi:nodetypes="cc" />
  <path
     style="fill:#000000;fill-opacity:1;stroke:#000000;stroke-width:1;stroke-linecap:butt;stroke-linejoin:miter;stroke-miterlimit:4;stroke-dasharray:none;stroke-opacity:1"
     d="m 314.41875,103.10336 2.70413,4.95578 0.24123,-5.63748 -1.47268,0.34085 z"
     id="path14359-1-7-5-3-0-73-1-0-8"
     inkscape:connector-curvature="0"
     sodipodi:nodetypes="ccccc" />
  <path
     style="fill:none;stroke:#000000;stroke-width:1;stroke-linecap:butt;stroke-linejoin:miter;stroke-miterlimit:4;stroke-dasharray:none;stroke-opacity:1"
     d="m 319.22719,56.217096 c -8.09304,13.107972 -6.26294,32.29376 -3.33715,46.543934"
     id="path14359-1-7-5-3-0-73-1-9-681"
     inkscape:connector-curvature="0"
     sodipodi:nodetypes="cc" />
  <path
     style="fill:#000000;fill-opacity:1;stroke:#000000;stroke-width:1;stroke-linecap:butt;stroke-linejoin:miter;stroke-miterlimit:4;stroke-dasharray:none;stroke-opacity:1"
     d="m 373.99142,140.39891 -3.96506,4.01874 5.46742,-1.39523 -0.75118,-1.31175 z"
     id="path14359-1-7-5-3-0-73-1-0-9"
     inkscape:connector-curvature="0"
     sodipodi:nodetypes="ccccc" />
  <path
     style="fill:none;stroke:#000000;stroke-width:1;stroke-linecap:butt;stroke-linejoin:miter;stroke-miterlimit:4;stroke-dasharray:none;stroke-opacity:1"
     d="m 374.61996,101.08695 c 14.58565,18.22721 14.3208,33.04332 0.12367,40.62197"
     id="path14359-1-7-5-3-0-73-1-9-53"
     inkscape:connector-curvature="0"
     sodipodi:nodetypes="cc" />
  <text
     xml:space="preserve"
     style="font-style:normal;font-variant:normal;font-weight:bold;font-stretch:normal;font-size:10px;line-height:125%;font-family:Arial;-inkscape-font-specification:'Arial Bold';text-align:start;letter-spacing:0.55000001px;word-spacing:0px;text-anchor:start;fill:#000000;fill-opacity:1;stroke:none;stroke-width:1px;stroke-linecap:butt;stroke-linejoin:miter;stroke-opacity:1"
     x="-0.78904957"
     y="8.4155903"
     id="text28402"
     sodipodi:linespacing="125%"><tspan
       sodipodi:role="line"
       id="tspan28404"
       x="-0.78904957"
       y="8.4155903">Figure B to ยง 3285.702 Typical Installation of Surface-Mounted Exterior Lighting Fixture.</tspan></text>
  <text
     xml:space="preserve"
     style="font-style:normal;font-variant:normal;font-weight:normal;font-stretch:normal;font-size:12.5px;line-height:125%;font-family:Arial;-inkscape-font-specification:Arial;text-align:start;letter-spacing:1px;word-spacing:0px;text-anchor:start;fill:#000000;fill-opacity:1;stroke:none;stroke-width:1px;stroke-linecap:butt;stroke-linejoin:miter;stroke-opacity:1;"
     x="87.658783"
     y="37.56081"
     id="text30065"
     sodipodi:linespacing="125%"><tspan
       sodipodi:role="line"
       id="tspan30067"
       x="87.658783"
       y="37.56081">Equipment grounding</tspan><tspan
       sodipodi:role="line"
       x="87.658783"
       y="53.18581"
       id="tspan30069">conductor</tspan></text>
  <text
     xml:space="preserve"
     style="font-style:normal;font-variant:normal;font-weight:normal;font-stretch:normal;font-size:12.5px;line-height:125%;font-family:Arial;-inkscape-font-specification:Arial;text-align:start;letter-spacing:1px;word-spacing:0px;text-anchor:start;fill:#000000;fill-opacity:1;stroke:none;stroke-width:1px;stroke-linecap:butt;stroke-linejoin:miter;stroke-opacity:1"
     x="130.30853"
     y="82.534081"
     id="text30065-6"
     sodipodi:linespacing="125%"><tspan
       sodipodi:role="line"
       x="130.30853"
       y="82.534081"
       id="tspan30069-3">Wire connector</tspan></text>
  <text
     xml:space="preserve"
     style="font-style:normal;font-variant:normal;font-weight:normal;font-stretch:normal;font-size:12.5px;line-height:125%;font-family:Arial;-inkscape-font-specification:Arial;text-align:start;letter-spacing:1px;word-spacing:0px;text-anchor:start;fill:#000000;fill-opacity:1;stroke:none;stroke-width:1px;stroke-linecap:butt;stroke-linejoin:miter;stroke-opacity:1"
     x="298.79657"
     y="48.245228"
     id="text30065-6-6"
     sodipodi:linespacing="125%"><tspan
       sodipodi:role="line"
       x="298.79657"
       y="48.245228"
       id="tspan30069-3-0">Outlet box</tspan></text>
  <text
     xml:space="preserve"
     style="font-style:normal;font-variant:normal;font-weight:normal;font-stretch:normal;font-size:12.5px;line-height:125%;font-family:Arial;-inkscape-font-specification:Arial;text-align:start;letter-spacing:1px;word-spacing:0px;text-anchor:start;fill:#000000;fill-opacity:1;stroke:none;stroke-width:1px;stroke-linecap:butt;stroke-linejoin:miter;stroke-opacity:1"
     x="333.98578"
     y="77.464821"
     id="text30065-6-3"
     sodipodi:linespacing="125%"><tspan
       sodipodi:role="line"
       x="333.98578"
       y="77.464821"
       id="tspan30069-3-2">Color-coded</tspan><tspan
       sodipodi:role="line"
       x="333.98578"
       y="93.089821"
       id="tspan30120">conductors</tspan></text>
  <text
     xml:space="preserve"
     style="font-style:normal;font-variant:normal;font-weight:normal;font-stretch:normal;font-size:12.5px;line-height:125%;font-family:Arial;-inkscape-font-specification:Arial;text-align:start;letter-spacing:1px;word-spacing:0px;text-anchor:start;fill:#000000;fill-opacity:1;stroke:none;stroke-width:1px;stroke-linecap:butt;stroke-linejoin:miter;stroke-opacity:1"
     x="52.840275"
     y="263.85529"
     id="text30065-6-6-9"
     sodipodi:linespacing="125%"><tspan
       sodipodi:role="line"
       x="52.840275"
       y="263.85529"
       id="tspan30069-3-0-2">Globe</tspan></text>
  <text
     xml:space="preserve"
     style="font-style:normal;font-variant:normal;font-weight:normal;font-stretch:normal;font-size:12.5px;line-height:125%;font-family:Arial;-inkscape-font-specification:Arial;text-align:start;letter-spacing:1px;word-spacing:0px;text-anchor:start;fill:#000000;fill-opacity:1;stroke:none;stroke-width:1px;stroke-linecap:butt;stroke-linejoin:miter;stroke-opacity:1"
     x="245.12407"
     y="263.22693"
     id="text30065-6-6-5"
     sodipodi:linespacing="125%"><tspan
       sodipodi:role="line"
       x="245.12407"
       y="263.22693"
       id="tspan30069-3-0-1">Limited combustible or</tspan><tspan
       sodipodi:role="line"
       x="245.12407"
       y="278.85193"
       id="tspan30148">noncombustible ring (if required)</tspan></text>
</svg>
