<?xml version="1.0" encoding="UTF-8" standalone="no"?>
<!-- Created with Inkscape (http://www.inkscape.org/) -->

<svg
   xmlns:dc="http://purl.org/dc/elements/1.1/"
   xmlns:cc="http://creativecommons.org/ns#"
   xmlns:rdf="http://www.w3.org/1999/02/22-rdf-syntax-ns#"
   xmlns:svg="http://www.w3.org/2000/svg"
   xmlns="http://www.w3.org/2000/svg"
   xmlns:sodipodi="http://sodipodi.sourceforge.net/DTD/sodipodi-0.dtd"
   xmlns:inkscape="http://www.inkscape.org/namespaces/inkscape"
   id="svg54292"
   version="1.1"
   inkscape:version="0.91 r13725"
   width="599.43011"
   height="326.0719"
   viewBox="0 0 599.43011 326.0719"
   sodipodi:docname="er20jy06.022.svg">
  <title id="title_er20jy06.022">Method of load application for crush test</title>
  <desc id="desc_er20jy06.022">Side and front view of tractor</desc>
  <metadata
     id="metadata54298">
    <rdf:RDF>
      <cc:Work
         rdf:about="">
        <dc:format>image/svg+xml</dc:format>
        <dc:type
           rdf:resource="http://purl.org/dc/dcmitype/StillImage" />
        <dc:title></dc:title>
      </cc:Work>
    </rdf:RDF>
  </metadata>
  <defs
     id="defs54296" />
  <sodipodi:namedview
     pagecolor="#ffffff"
     bordercolor="#666666"
     borderopacity="1"
     objecttolerance="10"
     gridtolerance="10"
     guidetolerance="10"
     inkscape:pageopacity="0"
     inkscape:pageshadow="2"
     inkscape:window-width="1280"
     inkscape:window-height="756"
     id="namedview54294"
     showgrid="false"
     fit-margin-top="0"
     fit-margin-left="0"
     fit-margin-right="0"
     fit-margin-bottom="0"
     inkscape:zoom="1.327928"
     inkscape:cx="252.39628"
     inkscape:cy="173.10991"
     inkscape:window-x="23"
     inkscape:window-y="0"
     inkscape:window-maximized="0"
     inkscape:current-layer="svg54292" />
  <path
     style="color:#000000;display:inline;overflow:visible;visibility:visible;fill:none;fill-rule:evenodd;stroke:#000000;stroke-width:1;stroke-linecap:butt;stroke-linejoin:round;stroke-miterlimit:4;stroke-dasharray:none;stroke-dashoffset:0;stroke-opacity:1;marker:none;enable-background:accumulate"
     d="m 70.095703,216.26024 c 0,3.06776 -2.499506,5.55466 -5.582805,5.55466 l -13.70057,0 c -3.083306,0 -5.582822,-2.4869 -5.582822,-5.55466 l 0,-79.50672 c 0,-3.06777 2.499516,-5.55467 5.582822,-5.55467 l 13.70057,0 c 3.083299,0 5.582805,2.4869 5.582805,5.55467 z"
     id="path11587"
     inkscape:connector-curvature="0"
     sodipodi:nodetypes="sssssssss" />
  <path
     style="color:#000000;display:inline;overflow:visible;visibility:visible;fill:none;fill-rule:evenodd;stroke:#000000;stroke-width:1;stroke-linecap:butt;stroke-linejoin:round;stroke-miterlimit:4;stroke-dasharray:none;stroke-dashoffset:0;stroke-opacity:1;marker:none;enable-background:accumulate"
     d="m 168.11197,216.29026 c 0,3.06776 -2.49952,5.55466 -5.58284,5.55466 l -13.70054,0 c -3.08331,0 -5.58282,-2.4869 -5.58282,-5.55466 l 0,-79.50673 c 0,-3.06777 2.49951,-5.55466 5.58282,-5.55466 l 13.70054,0 c 3.08332,0 5.58284,2.48689 5.58284,5.55466 z"
     id="path11587-0"
     inkscape:connector-curvature="0"
     sodipodi:nodetypes="sssssssss" />
  <path
     style="color:#000000;display:inline;overflow:visible;visibility:visible;fill:none;fill-rule:evenodd;stroke:#000000;stroke-width:1;stroke-linecap:butt;stroke-linejoin:round;stroke-miterlimit:4;stroke-dasharray:none;stroke-dashoffset:0;stroke-opacity:1;marker:none;enable-background:accumulate"
     d="m 118.54571,120.9002 0.64866,0 c 3.0833,0 5.58282,2.48691 5.58282,5.55466 l 0,74.82282 -37.057875,0 0,-74.82282 c 0,-3.06775 2.499516,-5.55466 5.582836,-5.55466 l 1.179106,0 m 30.295933,30.89593 -37.057875,0"
     id="path11587-7"
     inkscape:connector-curvature="0"
     sodipodi:nodetypes="cssccssccc" />
  <path
     style="color:#000000;display:inline;overflow:visible;visibility:visible;fill:none;fill-rule:evenodd;stroke:#000000;stroke-width:1;stroke-linecap:butt;stroke-linejoin:round;stroke-miterlimit:4;stroke-dasharray:none;stroke-dashoffset:0;stroke-opacity:1;marker:none;enable-background:accumulate"
     d="m 118.3653,142.5555 c 2.82923,-6.76544 4.09709,-17.81481 -2.8224,-26.68453 l -18.227164,0 c -6.787691,9.31762 -5.319092,19.91487 -2.87299,26.66714"
     id="path11587-7-0"
     inkscape:connector-curvature="0"
     sodipodi:nodetypes="cccc" />
  <path
     style="color:#000000;display:inline;overflow:visible;visibility:visible;fill:none;fill-rule:evenodd;stroke:#000000;stroke-width:1;stroke-linecap:butt;stroke-linejoin:round;stroke-miterlimit:4;stroke-dasharray:none;stroke-dashoffset:0;stroke-opacity:1;marker:none;enable-background:accumulate"
     d="m 387.07932,162.87142 c 6.48184,1.77089 11.25086,7.75739 11.25086,14.86993 0,8.50636 -6.82132,15.40213 -15.23584,15.40213 -8.41453,0 -15.23585,-6.89577 -15.23585,-15.40213 0,-5.33189 2.68007,-10.03098 6.75265,-12.79571"
     id="path11664-0"
     inkscape:connector-curvature="0"
     sodipodi:nodetypes="csssc" />
  <path
     style="color:#000000;display:inline;overflow:visible;visibility:visible;fill:none;fill-rule:evenodd;stroke:#000000;stroke-width:1;stroke-linecap:butt;stroke-linejoin:round;stroke-miterlimit:4;stroke-dasharray:none;stroke-dashoffset:0;stroke-opacity:1;marker:none;enable-background:accumulate"
     d="m 389.4373,177.9166 c 0,3.57361 -2.86572,6.4706 -6.40075,6.4706 -3.53504,0 -6.40073,-2.89699 -6.40073,-6.4706 0,-3.57362 2.86569,-6.47058 6.40073,-6.47058 3.53503,0 6.40075,2.89696 6.40075,6.47058 z"
     id="path11664-0-0"
     inkscape:connector-curvature="0"
     sodipodi:nodetypes="sssss" />
  <path
     style="color:#000000;display:inline;overflow:visible;visibility:visible;fill:none;fill-rule:evenodd;stroke:#000000;stroke-width:1;stroke-linecap:butt;stroke-linejoin:round;stroke-miterlimit:4;stroke-dasharray:none;stroke-dashoffset:0;stroke-opacity:1;marker:none;enable-background:accumulate"
     d="m 528.11906,189.65833 c 0,18.25053 -14.63528,33.0455 -32.68878,33.0455 -18.05353,0 -32.68877,-14.79497 -32.68877,-33.0455 0,-18.25053 14.63524,-33.0455 32.68877,-33.0455 18.0535,0 32.68878,14.79497 32.68878,33.0455 z"
     id="path11664-0-4"
     inkscape:connector-curvature="0"
     sodipodi:nodetypes="sssss" />
  <path
     style="color:#000000;display:inline;overflow:visible;visibility:visible;fill:none;fill-rule:evenodd;stroke:#000000;stroke-width:1;stroke-linecap:butt;stroke-linejoin:round;stroke-miterlimit:4;stroke-dasharray:none;stroke-dashoffset:0;stroke-opacity:1;marker:none;enable-background:accumulate"
     d="m 384.78597,152.63275 47.45274,0 c 0.93054,0 2.00549,-0.63198 2.00549,-1.68577 l 0,-16.26827 17.96217,-13.08606 68.64973,0 c 2.46307,0 4.45979,2.0185 4.45979,4.50846 l 0,50.47191"
     id="path11664-0-07"
     inkscape:connector-curvature="0"
     sodipodi:nodetypes="cssccssc" />
  <path
     style="fill:none;stroke:#000000;stroke-width:1;stroke-linecap:butt;stroke-linejoin:round;stroke-miterlimit:4;stroke-dasharray:none;stroke-opacity:1"
     d="m 396.98911,183.85076 66.07705,0.002"
     id="path14359-1-7-5-3-0-73-1-9"
     inkscape:connector-curvature="0"
     sodipodi:nodetypes="cc" />
  <path
     style="fill:none;stroke:#000000;stroke-width:1;stroke-linecap:butt;stroke-linejoin:round;stroke-miterlimit:4;stroke-dasharray:none;stroke-opacity:1"
     d="m 382.55657,155.8179 -0.002,44.19486"
     id="path14359-1-7-5-3-0-73-1-9-5"
     inkscape:connector-curvature="0"
     sodipodi:nodetypes="cc" />
  <path
     style="fill:none;stroke:#000000;stroke-width:1;stroke-linecap:butt;stroke-linejoin:round;stroke-miterlimit:4;stroke-dasharray:none;stroke-opacity:1"
     d="m 400.8525,177.36763 -38.16098,-0.002"
     id="path14359-1-7-5-3-0-73-1-9-6"
     inkscape:connector-curvature="0"
     sodipodi:nodetypes="cc" />
  <path
     style="fill:none;stroke:#000000;stroke-width:1;stroke-linecap:butt;stroke-linejoin:round;stroke-miterlimit:4;stroke-dasharray:none;stroke-opacity:1"
     d="m 389.52338,177.55227 c 0.90725,-0.15579 1.0665,-0.80734 0.92482,-1.37561 l -23.89975,-95.863683 72.17873,0 30.64328,89.301793 M 359.45663,76.277651 376.69387,177.386"
     id="path14359-1-7-5-3-0-73-1-9-2"
     inkscape:connector-curvature="0"
     sodipodi:nodetypes="csccccc" />
  <path
     style="fill:none;stroke:#000000;stroke-width:1;stroke-linecap:butt;stroke-linejoin:round;stroke-miterlimit:4;stroke-dasharray:none;stroke-opacity:1"
     d="m 395.52695,147.62262 -3.78144,-19.99148 c -0.71366,-0.4757 -1.31492,-0.38337 -1.80927,0.24943 l 4.43933,23.64954"
     id="path14359-1-7-5-3-0-73-1-9-9"
     inkscape:connector-curvature="0"
     sodipodi:nodetypes="cccc" />
  <path
     style="fill:none;stroke:#000000;stroke-width:1;stroke-linecap:butt;stroke-linejoin:round;stroke-miterlimit:4;stroke-dasharray:none;stroke-opacity:1"
     d="m 394.29334,151.9458 1.23523,-4.36156 26.3992,0 -0.002,4.36156 z"
     id="path14359-1-7-5-3-0-73-1-9-90"
     inkscape:connector-curvature="0"
     sodipodi:nodetypes="ccccc" />
  <path
     style="fill:#000000;fill-opacity:1;stroke:#000000;stroke-width:1;stroke-linecap:butt;stroke-linejoin:round;stroke-miterlimit:4;stroke-dasharray:none;stroke-opacity:1"
     d="m 422.01001,147.66739 -0.002,4.19525 -2.13825,0 0.002,-4.19525 z"
     id="path14359-1-7-5-3-0-73-1-9-8"
     inkscape:connector-curvature="0"
     sodipodi:nodetypes="ccccc" />
  <path
     style="fill:none;stroke:#000000;stroke-width:1;stroke-linecap:butt;stroke-linejoin:round;stroke-miterlimit:4;stroke-dasharray:none;stroke-opacity:1"
     d="m 421.59881,141.43203 c 2.494,-0.0175 2.10322,6.02433 0.16284,6.02433 l -25.82349,0 c -0.23285,-1.45161 -0.72105,-3.7871 1.23523,-4.02901 7.98251,-0.98716 17.37713,-1.946 24.42542,-1.99532 z"
     id="path14359-1-7-5-3-0-73-1-9-63"
     inkscape:connector-curvature="0"
     sodipodi:nodetypes="sscss" />
  <path
     style="fill:none;stroke:#000000;stroke-width:1;stroke-linecap:butt;stroke-linejoin:round;stroke-miterlimit:4;stroke-dasharray:none;stroke-opacity:1"
     d="m 394.95125,143.632 -3.94589,-24.89661 c -0.26521,-1.67329 2.67862,-2.12862 3.20738,-0.74824 2.81447,7.34757 6.50633,14.29233 5.09728,25.06289 z"
     id="path14359-1-7-5-3-0-73-1-9-62"
     inkscape:connector-curvature="0"
     sodipodi:nodetypes="csscc" />
  <path
     style="fill:none;stroke:#000000;stroke-width:1;stroke-linecap:butt;stroke-linejoin:round;stroke-miterlimit:4;stroke-dasharray:none;stroke-opacity:1"
     d="m 428.75373,130.45784 c -1.27118,0.9011 -0.48333,2.29301 0.82077,1.36858 l 13.48744,-9.56087 c 1.10667,-0.78447 0.34833,-2.19732 -0.82077,-1.36856 z"
     id="path14359-1-7-5-3-0-73-1-9-99"
     inkscape:connector-curvature="0"
     sodipodi:nodetypes="sssss" />
  <path
     style="fill:#000000;fill-opacity:1;stroke:#000000;stroke-width:1;stroke-linecap:butt;stroke-linejoin:round;stroke-miterlimit:4;stroke-dasharray:none;stroke-opacity:1"
     d="m 441.74608,129.24914 -1.56093,-1.20231 -3.70081,2.74356 0.16283,2.11683 z"
     id="path14359-1-7-5-3-0-73-1-9-0"
     inkscape:connector-curvature="0"
     sodipodi:nodetypes="ccccc" />
  <path
     style="fill:none;stroke:#000000;stroke-width:1;stroke-linecap:butt;stroke-linejoin:round;stroke-miterlimit:4;stroke-dasharray:none;stroke-opacity:1"
     d="m 430.97423,130.87351 5.50846,0.0384"
     id="path14359-1-7-5-3-0-73-1-9-3"
     inkscape:connector-curvature="0"
     sodipodi:nodetypes="cc" />
  <path
     style="fill:none;stroke:#000000;stroke-width:1;stroke-linecap:butt;stroke-linejoin:round;stroke-miterlimit:4;stroke-dasharray:none;stroke-opacity:1"
     d="m 440.34964,124.2225 -0.002,4.02898"
     id="path14359-1-7-5-3-0-73-1-9-7"
     inkscape:connector-curvature="0"
     sodipodi:nodetypes="cc" />
  <path
     style="fill:none;stroke:#000000;stroke-width:1;stroke-linecap:butt;stroke-linejoin:round;stroke-miterlimit:4;stroke-dasharray:none;stroke-opacity:1"
     d="m 495.61387,149.11429 -2.8e-4,79.48467"
     id="path14359-1-7-5-3-0-73-1-9-66"
     inkscape:connector-curvature="0"
     sodipodi:nodetypes="cc" />
  <path
     style="fill:none;stroke:#000000;stroke-width:1;stroke-linecap:butt;stroke-linejoin:round;stroke-miterlimit:4;stroke-dasharray:none;stroke-opacity:1"
     d="m 456.46927,189.7546 77.40593,2.7e-4"
     id="path14359-1-7-5-3-0-73-1-9-64"
     inkscape:connector-curvature="0"
     sodipodi:nodetypes="cc" />
  <path
     style="fill:none;stroke:#000000;stroke-width:1;stroke-linecap:butt;stroke-linejoin:round;stroke-miterlimit:4;stroke-dasharray:none;stroke-opacity:1"
     d="m 140.37923,75.665475 -0.002,100.811755 m -3.15871,0 0.002,-97.629084 -61.012593,0 -0.002,97.629084 m -3.075575,0 0.002,-100.854544 m -6.276188,1.736447 c 1.045322,-1.031506 2.230561,-1.736447 3.588657,-1.736447 l 72.699239,0 c 1.19337,0 2.31526,0.733656 3.47289,1.967973"
     id="path14359-1-7-5-3-0-73-1-9-79"
     inkscape:connector-curvature="0"
     sodipodi:nodetypes="cccccccccssc" />
  <path
     style="fill:none;stroke:#000000;stroke-width:1;stroke-linecap:butt;stroke-linejoin:round;stroke-miterlimit:4;stroke-dasharray:none;stroke-opacity:1"
     d="m 73.029217,78.039374 67.368343,0.0015"
     id="path14359-1-7-5-3-0-73-1-9-640"
     inkscape:connector-curvature="0"
     sodipodi:nodetypes="cc" />
  <path
     style="fill:none;stroke:#000000;stroke-width:1;stroke-linecap:butt;stroke-linejoin:round;stroke-miterlimit:4;stroke-dasharray:none;stroke-opacity:1"
     d="m 99.065205,150.75626 0.002,-24.60133 14.297215,0 -0.002,24.60133"
     id="path14359-1-7-5-3-0-73-1-9-36"
     inkscape:connector-curvature="0"
     sodipodi:nodetypes="cccc" />
  <path
     style="fill:none;stroke:#000000;stroke-width:1;stroke-linecap:butt;stroke-linejoin:round;stroke-miterlimit:4;stroke-dasharray:none;stroke-opacity:1"
     d="m 116.60589,146.58286 -0.002,4.3388 -20.614613,0 0.002,-4.3388"
     id="path14359-1-7-5-3-0-73-1-9-50"
     inkscape:connector-curvature="0"
     sodipodi:nodetypes="cccc" />
  <path
     style="fill:none;stroke:#000000;stroke-width:1;stroke-linecap:butt;stroke-linejoin:round;stroke-miterlimit:4;stroke-dasharray:none;stroke-opacity:1"
     d="m 99.124013,142.53037 -5.210817,0 -0.002,4.33879 5.146072,0 m 14.339392,0 5.2022,0 0.002,-4.33879 -5.23703,0"
     id="path14359-1-7-5-3-0-73-1-9-28"
     inkscape:connector-curvature="0"
     sodipodi:nodetypes="cccccccc" />
  <path
     style="fill:none;stroke:#000000;stroke-width:1;stroke-linecap:butt;stroke-linejoin:round;stroke-miterlimit:4;stroke-dasharray:none;stroke-opacity:1"
     d="m 119.12382,140.54849 c 2.17893,0.74924 2.16527,6.15526 -0.52462,6.15526 l -5.13581,0 m -14.405758,0 -5.146082,0 c -2.676958,0 -2.686187,-5.86944 -0.234724,-6.22422"
     id="path14359-1-7-5-3-0-73-1-9-07"
     inkscape:connector-curvature="0"
     sodipodi:nodetypes="csccsc" />
  <path
     style="fill:none;stroke:#000000;stroke-width:1;stroke-linecap:butt;stroke-linejoin:round;stroke-miterlimit:4;stroke-dasharray:none;stroke-opacity:1"
     d="m 70.145686,183.75968 1.016281,0 m 4.429423,0 2.71978,0 0.002,-13.26131 -2.191566,0 m -2.987373,0 -2.986546,0"
     id="path14359-1-7-5-3-0-73-1-9-71"
     inkscape:connector-curvature="0"
     sodipodi:nodetypes="cccccccc" />
  <path
     style="fill:none;stroke:#000000;stroke-width:1;stroke-linecap:butt;stroke-linejoin:round;stroke-miterlimit:4;stroke-dasharray:none;stroke-opacity:1"
     d="m 78.312826,183.57651 9.425149,8.50562"
     id="path14359-1-7-5-3-0-73-1-9-51"
     inkscape:connector-curvature="0"
     sodipodi:nodetypes="cc" />
  <path
     style="fill:none;stroke:#000000;stroke-width:1;stroke-linecap:butt;stroke-linejoin:round;stroke-miterlimit:4;stroke-dasharray:none;stroke-opacity:1"
     d="m 78.246436,170.36628 9.358778,-8.46952"
     id="path14359-1-7-5-3-0-73-1-9-825"
     inkscape:connector-curvature="0"
     sodipodi:nodetypes="cc" />
  <path
     style="fill:none;stroke:#000000;stroke-width:1;stroke-linecap:butt;stroke-linejoin:round;stroke-miterlimit:4;stroke-dasharray:none;stroke-opacity:1"
     d="m 143.33793,170.53142 -3.08777,0 m -3.05375,0 -2.02395,0 -0.002,13.2613 1.99858,0 m 4.08202,0 2.08487,0"
     id="path14359-1-7-5-3-0-73-1-9-71-5"
     inkscape:connector-curvature="0"
     sodipodi:nodetypes="cccccccc" />
  <path
     style="fill:none;stroke:#000000;stroke-width:1;stroke-linecap:butt;stroke-linejoin:round;stroke-miterlimit:4;stroke-dasharray:none;stroke-opacity:1"
     d="m 135.20567,183.5765 -10.35788,9.10009"
     id="path14359-1-7-5-3-0-73-1-9-51-1"
     inkscape:connector-curvature="0"
     sodipodi:nodetypes="cc" />
  <path
     style="fill:none;stroke:#000000;stroke-width:1;stroke-linecap:butt;stroke-linejoin:round;stroke-miterlimit:4;stroke-dasharray:none;stroke-opacity:1"
     d="m 124.78305,161.18516 10.48733,9.36428"
     id="path14359-1-7-5-3-0-73-1-9-51-7"
     inkscape:connector-curvature="0"
     sodipodi:nodetypes="cc" />
  <path
     style="fill:none;stroke:#000000;stroke-width:1;stroke-linecap:butt;stroke-linejoin:round;stroke-miterlimit:4;stroke-dasharray:none;stroke-opacity:1"
     d="m 137.07877,134.32246 3.31571,0.002"
     id="path14359-1-7-5-3-0-73-1-9-4"
     inkscape:connector-curvature="0"
     sodipodi:nodetypes="cc" />
  <path
     style="fill:none;stroke:#000000;stroke-width:1;stroke-linecap:butt;stroke-linejoin:round;stroke-miterlimit:4;stroke-dasharray:none;stroke-opacity:1"
     d="m 72.921407,134.32246 3.315722,0.002"
     id="path14359-1-7-5-3-0-73-1-9-92"
     inkscape:connector-curvature="0"
     sodipodi:nodetypes="cc" />
  <path
     style="fill:none;stroke:#000000;stroke-width:1;stroke-linecap:butt;stroke-linejoin:round;stroke-miterlimit:4;stroke-dasharray:none;stroke-opacity:1"
     d="m 441.5771,76.534534 30.73828,89.842676"
     id="path14359-1-7-5-3-0-73-1-9-66-6"
     inkscape:connector-curvature="0"
     sodipodi:nodetypes="cc" />
  <path
     style="fill:none;stroke:#000000;stroke-width:1;stroke-linecap:butt;stroke-linejoin:round;stroke-miterlimit:4;stroke-dasharray:none;stroke-opacity:1"
     d="m 353.5373,78.872836 c 1.6447,-1.41808 3.85579,-2.489334 6.1074,-2.292742 l 82.04611,0.106318 c 2.73386,0.0038 4.95934,0.32154 6.9809,2.416883"
     id="path14359-1-7-5-3-0-73-1-9-66-68"
     inkscape:connector-curvature="0"
     sodipodi:nodetypes="ccsc" />
  <path
     style="fill:none;stroke:#000000;stroke-width:1;stroke-linecap:butt;stroke-linejoin:round;stroke-miterlimit:4;stroke-dasharray:none;stroke-opacity:1"
     d="m 391.31624,144.86692 11.93498,2.9e-4"
     id="path14359-1-7-5-3-0-73-1-9-66-3-06"
     inkscape:connector-curvature="0"
     sodipodi:nodetypes="cc" />
  <path
     style="color:#000000;display:inline;overflow:visible;visibility:visible;fill:none;fill-rule:evenodd;stroke:#000000;stroke-width:1;stroke-linecap:butt;stroke-linejoin:round;stroke-miterlimit:4;stroke-dasharray:none;stroke-dashoffset:0;stroke-opacity:1;marker:none;enable-background:accumulate"
     d="m 379.79859,133.39801 c 0.7991,-0.0436 1.60386,-0.0657 2.41372,-0.0657 3.04709,0 6.02192,0.31274 8.8948,0.90819 m 8.39074,2.65079 c 3.15344,1.36122 6.11785,3.08359 8.84239,5.11568 m 10.06587,10.46437 c 4.95506,7.20347 7.85978,15.95646 7.85978,25.39528 0,24.59563 -19.72349,44.53433 -44.05358,44.53433 -24.33014,0 -44.05356,-19.9387 -44.05356,-44.53433 0,-20.10795 13.18262,-37.10331 31.28775,-42.63579"
     id="path11664-0-4-9"
     inkscape:connector-curvature="0"
     sodipodi:nodetypes="csccccsssc" />
  <path
     style="fill:none;stroke:#000000;stroke-width:1;stroke-linecap:butt;stroke-linejoin:round;stroke-miterlimit:4;stroke-dasharray:none;stroke-opacity:1"
     d="m 499.21029,194.21207 -0.002,35.24672 -7.65301,0 0.002,-35.24672 z"
     id="path14359-1-7-5-3-0-73-1-9-5-5"
     inkscape:connector-curvature="0"
     sodipodi:nodetypes="ccccc" />
  <path
     style="fill:none;stroke:#000000;stroke-width:1;stroke-linecap:butt;stroke-linejoin:round;stroke-miterlimit:4;stroke-dasharray:none;stroke-opacity:1"
     d="m 391.3617,117.63108 4e-5,-2.42162 9.18361,0 -9.7e-4,55.04707 m -2.8e-4,15.5578 -7.5e-4,42.58481 -9.18361,0 5.9e-4,-33.21476 m 2.7e-4,-15.38102 7.8e-4,-44.43402 m 1.4e-4,-7.9557 1.2e-4,-6.71814"
     id="path14359-1-7-5-3-0-73-1-9-5-6"
     inkscape:connector-curvature="0"
     sodipodi:nodetypes="cccccccccccc" />
  <path
     style="fill:none;stroke:#000000;stroke-width:1;stroke-linecap:butt;stroke-linejoin:round;stroke-miterlimit:4;stroke-dasharray:none;stroke-opacity:1"
     d="m 384.16433,224.23567 -4.12517,0 m 0,3.88945 0.002,-47.495 4.12517,0 -0.002,47.495 z"
     id="path14359-1-7-5-3-0-73-1-9-5-56"
     inkscape:connector-curvature="0"
     sodipodi:nodetypes="ccccccc" />
  <path
     style="fill:none;stroke:#000000;stroke-width:1;stroke-linecap:butt;stroke-linejoin:round;stroke-miterlimit:4;stroke-dasharray:none;stroke-opacity:1"
     d="m 394.24354,83.747438 -0.002,31.347892"
     id="path14359-1-7-5-3-0-73-1-9-5-9"
     inkscape:connector-curvature="0"
     sodipodi:nodetypes="cc" />
  <path
     style="fill:none;stroke:#000000;stroke-width:1;stroke-linecap:butt;stroke-linejoin:round;stroke-miterlimit:4;stroke-dasharray:none;stroke-opacity:1"
     d="m 398.25085,83.776902 -0.002,31.347888"
     id="path14359-1-7-5-3-0-73-1-9-5-9-9"
     inkscape:connector-curvature="0"
     sodipodi:nodetypes="cc" />
  <path
     style="fill:none;stroke:#000000;stroke-width:1;stroke-linecap:butt;stroke-linejoin:round;stroke-miterlimit:4;stroke-dasharray:none;stroke-opacity:1"
     d="m 393.24172,76.587311 -0.002,7.186152 5.77524,0 0.002,-7.186152"
     id="path14359-1-7-5-3-0-73-1-9-5-9-4"
     inkscape:connector-curvature="0"
     sodipodi:nodetypes="cccc" />
  <path
     style="fill:none;stroke:#000000;stroke-width:1;stroke-linecap:butt;stroke-linejoin:round;stroke-miterlimit:4;stroke-dasharray:none;stroke-opacity:1"
     d="m 390.1753,76.46601 0.002,-8.659429 12.49338,0 -0.002,8.659429"
     id="path14359-1-7-5-3-0-73-1-9-5-9-0"
     inkscape:connector-curvature="0"
     sodipodi:nodetypes="cccc" />
  <path
     style="fill:none;stroke:#000000;stroke-width:1;stroke-linecap:butt;stroke-linejoin:round;stroke-miterlimit:4;stroke-dasharray:none;stroke-opacity:1"
     d="m 402.55282,13.88465 -0.002,50.087973"
     id="path14359-1-7-5-3-0-73-1-9-5-9-7"
     inkscape:connector-curvature="0"
     sodipodi:nodetypes="cc" />
  <path
     style="fill:none;stroke:#000000;stroke-width:1;stroke-linecap:butt;stroke-linejoin:round;stroke-miterlimit:4;stroke-dasharray:none;stroke-opacity:1"
     d="m 390.23623,13.88465 -0.002,50.087973"
     id="path14359-1-7-5-3-0-73-1-9-5-9-1"
     inkscape:connector-curvature="0"
     sodipodi:nodetypes="cc" />
  <path
     style="fill:none;stroke:#000000;stroke-width:1;stroke-linecap:butt;stroke-linejoin:round;stroke-miterlimit:4;stroke-dasharray:none;stroke-opacity:1"
     d="m 359.86256,79.463181 33.41217,8.09e-4 m 5.80499,1.41e-4 43.35537,0.0011"
     id="path14359-1-7-5-3-0-73-1-9-5-9-8"
     inkscape:connector-curvature="0"
     sodipodi:nodetypes="cccc" />
  <path
     style="fill:none;stroke:#000000;stroke-width:1;stroke-linecap:butt;stroke-linejoin:round;stroke-miterlimit:4;stroke-dasharray:none;stroke-opacity:1"
     d="m 394.19022,117.85054 c 0.52677,0.95284 0.13015,3.9112 0.64302,8.62433 0.62667,5.75902 1.31995,12.89659 1.30478,16.8405"
     id="path14359-1-7-5-3-0-73-1-9-5-9-5"
     inkscape:connector-curvature="0"
     sodipodi:nodetypes="csc" />
  <path
     style="fill:none;stroke:#000000;stroke-width:1;stroke-linecap:butt;stroke-linejoin:round;stroke-miterlimit:4;stroke-dasharray:none;stroke-opacity:1"
     d="m 141.25103,178.86853 0.34741,44.81533 9.24333,7.9e-4 0,4.12517 -23.524,-0.002 0,-4.12517 9.9381,8.4e-4 0,-44.81533"
     id="path14359-1-7-5-3-0-73-1-9-5-56-4"
     inkscape:connector-curvature="0"
     sodipodi:nodetypes="cccccccc" />
  <path
     style="fill:none;stroke:#000000;stroke-width:1;stroke-linecap:butt;stroke-linejoin:round;stroke-miterlimit:4;stroke-dasharray:none;stroke-opacity:1"
     d="m 75.591368,179.31292 0,44.38108 9.938142,7.9e-4 0,4.12517 -24.218812,-0.002 0,-4.12517 9.9381,8.4e-4 0,-44.38108"
     id="path14359-1-7-5-3-0-73-1-9-5-56-4-7"
     inkscape:connector-curvature="0"
     sodipodi:nodetypes="cccccccc" />
  <path
     style="fill:#000000;fill-opacity:1;stroke:#000000;stroke-width:1;stroke-linecap:butt;stroke-linejoin:miter;stroke-miterlimit:4;stroke-dasharray:none;stroke-opacity:1"
     d="m 415.20421,30.199242 -10.40757,-2.88724 10.40427,-2.80035 0.0112,2.78873 z"
     id="path14359-1-7-5-3-0-73-4-0-68"
     inkscape:connector-curvature="0"
     sodipodi:nodetypes="ccccc" />
  <path
     style="fill:#000000;fill-opacity:1;stroke:#000000;stroke-width:1;stroke-linecap:butt;stroke-linejoin:miter;stroke-miterlimit:4;stroke-dasharray:none;stroke-opacity:1"
     d="m 377.21133,30.187852 10.4037,-2.90123 -10.40803,-2.78636 -0.008,2.78874 z"
     id="path14359-1-7-5-3-0-73-2-0-8"
     inkscape:connector-curvature="0"
     sodipodi:nodetypes="ccccc" />
  <path
     style="fill:none;fill-rule:evenodd;stroke:#000000;stroke-width:1px;stroke-linecap:butt;stroke-linejoin:miter;stroke-opacity:1"
     d="m 377.19142,27.289162 -11.42733,0.0043 m 69.5814,0.0027 -20.12525,0.0044"
     id="path8331-0-6-2"
     inkscape:connector-curvature="0"
     sodipodi:nodetypes="cccc" />
  <path
     style="fill:none;stroke:#000000;stroke-width:1;stroke-linecap:butt;stroke-linejoin:round;stroke-miterlimit:4;stroke-dasharray:none;stroke-opacity:1"
     d="m 189.02129,65.606853 -0.22475,9.407911 -3.60275,0 -3.56397,7.239321 -4.12084,0 -3.4526,-7.239321 -134.205883,0 -3.898096,7.239321 -3.675348,0 -3.229851,-7.239321 -5.052629,0 0.224748,-9.407911 z"
     id="path14359-1-7-5-3-0-73-1-9-5-5-2"
     inkscape:connector-curvature="0"
     sodipodi:nodetypes="ccccccccccccc" />
  <path
     style="fill:none;stroke:#000000;stroke-width:1;stroke-linecap:butt;stroke-linejoin:round;stroke-miterlimit:4;stroke-dasharray:none;stroke-opacity:1"
     d="m 38.032543,113.18736 -0.002,115.0087 -8.629687,0 0.002,-115.0087 z"
     id="path14359-1-7-5-3-0-73-1-9-5-5-7"
     inkscape:connector-curvature="0"
     sodipodi:nodetypes="ccccc" />
  <path
     style="fill:none;stroke:#000000;stroke-width:1;stroke-linecap:butt;stroke-linejoin:round;stroke-miterlimit:4;stroke-dasharray:none;stroke-opacity:1"
     d="m 35.753629,82.096476 -0.002,31.177224 m -3.257963,0 0.002,-31.177224"
     id="path14359-1-7-5-3-0-73-1-9-5-5-8"
     inkscape:connector-curvature="0"
     sodipodi:nodetypes="cccc" />
  <path
     style="fill:none;stroke:#000000;stroke-width:1;stroke-linecap:butt;stroke-linejoin:round;stroke-miterlimit:4;stroke-dasharray:none;stroke-opacity:1"
     d="m 183.39466,114.321 -0.002,113.86924 -8.62968,0 0.002,-113.86924 z"
     id="path14359-1-7-5-3-0-73-1-9-5-5-7-5"
     inkscape:connector-curvature="0"
     sodipodi:nodetypes="ccccc" />
  <path
     style="fill:none;stroke:#000000;stroke-width:1;stroke-linecap:butt;stroke-linejoin:round;stroke-miterlimit:4;stroke-dasharray:none;stroke-opacity:1"
     d="m 181.11575,82.09066 -0.002,32.31668 m -3.25796,0 0.002,-32.31668"
     id="path14359-1-7-5-3-0-73-1-9-5-5-8-1"
     inkscape:connector-curvature="0"
     sodipodi:nodetypes="cccc" />
  <text
     xml:space="preserve"
     style="font-style:normal;font-variant:normal;font-weight:normal;font-stretch:normal;font-size:15px;line-height:125%;font-family:Arial;-inkscape-font-specification:Arial;text-align:center;letter-spacing:1px;word-spacing:0px;text-anchor:middle;fill:#000000;fill-opacity:1;stroke:none;stroke-width:1px;stroke-linecap:butt;stroke-linejoin:miter;stroke-opacity:1"
     x="471.30582"
     y="24.097677"
     id="text55487"
     sodipodi:linespacing="125%"><tspan
       sodipodi:role="line"
       id="tspan55489"
       x="471.80582"
       y="24.097677">6 IN.</tspan><tspan
       sodipodi:role="line"
       x="471.80582"
       y="42.847675"
       id="tspan55491">152 MM</tspan></text>
  <text
     xml:space="preserve"
     style="font-style:normal;font-variant:normal;font-weight:bold;font-stretch:normal;font-size:17.5px;line-height:125%;font-family:Arial;-inkscape-font-specification:'Arial Bold';text-align:start;letter-spacing:-0.25px;word-spacing:0px;text-anchor:start;fill:#000000;fill-opacity:1;stroke:none;stroke-width:1px;stroke-linecap:butt;stroke-linejoin:miter;stroke-opacity:1"
     x="4.1417909"
     y="295.19675"
     id="text55493"
     sodipodi:linespacing="125%"><tspan
       sodipodi:role="line"
       id="tspan55495"
       x="4.1417909"
       y="295.19675">FIGURE W-27 - METHOD OF LOAD APPLICATION FOR CRUSH TEST.</tspan></text>
</svg>
