<?xml version="1.0" encoding="UTF-8" standalone="no"?>
<!-- Created with Inkscape (http://www.inkscape.org/) -->

<svg
   xmlns:dc="http://purl.org/dc/elements/1.1/"
   xmlns:cc="http://creativecommons.org/ns#"
   xmlns:rdf="http://www.w3.org/1999/02/22-rdf-syntax-ns#"
   xmlns:svg="http://www.w3.org/2000/svg"
   xmlns="http://www.w3.org/2000/svg"
   xmlns:sodipodi="http://sodipodi.sourceforge.net/DTD/sodipodi-0.dtd"
   xmlns:inkscape="http://www.inkscape.org/namespaces/inkscape"
   id="svg41578"
   version="1.1"
   inkscape:version="0.48.2 r9819"
   width="483"
   height="325"
   viewBox="0 0 483 325"
   sodipodi:docname="er20jy06.011.svg">
  <title id="title_er20jy06.011">Side load Application</title>
  <desc id="desc_er20jy06.011">Side load of a tractor with load application labeled</desc>
  <metadata
     id="metadata41584">
    <rdf:RDF>
      <cc:Work
         rdf:about="">
        <dc:format>image/svg+xml</dc:format>
        <dc:type
           rdf:resource="http://purl.org/dc/dcmitype/StillImage" />
        <dc:title></dc:title>
      </cc:Work>
    </rdf:RDF>
  </metadata>
  <defs
     id="defs41582" />
  <sodipodi:namedview
     pagecolor="#ffffff"
     bordercolor="#666666"
     borderopacity="1"
     objecttolerance="10"
     gridtolerance="10"
     guidetolerance="10"
     inkscape:pageopacity="0"
     inkscape:pageshadow="2"
     inkscape:window-width="1280"
     inkscape:window-height="756"
     id="namedview41580"
     showgrid="false"
     fit-margin-top="0"
     fit-margin-left="0"
     fit-margin-right="0"
     fit-margin-bottom="0"
     inkscape:zoom="1.4723077"
     inkscape:cx="121.28056"
     inkscape:cy="162.5"
     inkscape:window-x="0"
     inkscape:window-y="0"
     inkscape:window-maximized="0"
     inkscape:current-layer="svg41578" />
  <path
     style="color:#000000;display:inline;overflow:visible;visibility:visible;fill:none;fill-rule:evenodd;stroke:#000000;stroke-width:1;stroke-linecap:butt;stroke-linejoin:round;stroke-miterlimit:4;stroke-dasharray:none;stroke-dashoffset:0;stroke-opacity:1;marker:none;enable-background:accumulate"
     d="m 188.65997,239.46072 c 0,4.38876 -3.59008,7.94655 -8.01872,7.94655 l -19.67838,0 c -4.42861,0 -8.01871,-3.55779 -8.01871,-7.94655 l 0,-113.74322 c 0,-4.38874 3.5901,-7.94653 8.01871,-7.94653 l 19.67838,0 c 4.42864,0 8.01872,3.55779 8.01872,7.94653 z"
     id="path11587"
     inkscape:connector-curvature="0"
     sodipodi:nodetypes="sssssssss" />
  <path
     style="color:#000000;display:inline;overflow:visible;visibility:visible;fill:none;fill-rule:evenodd;stroke:#000000;stroke-width:1;stroke-linecap:butt;stroke-linejoin:round;stroke-miterlimit:4;stroke-dasharray:none;stroke-dashoffset:0;stroke-opacity:1;marker:none;enable-background:accumulate"
     d="m 329.44275,239.50366 c 0,4.38877 -3.59012,7.94657 -8.01872,7.94657 l -19.6784,0 c -4.42861,0 -8.01871,-3.5578 -8.01871,-7.94657 l 0,-113.74318 c 0,-4.38877 3.5901,-7.94657 8.01871,-7.94657 l 19.6784,0 c 4.4286,0 8.01872,3.5578 8.01872,7.94657 z"
     id="path11587-0"
     inkscape:connector-curvature="0"
     sodipodi:nodetypes="sssssssss" />
  <path
     style="color:#000000;display:inline;overflow:visible;visibility:visible;fill:none;fill-rule:evenodd;stroke:#000000;stroke-width:1;stroke-linecap:butt;stroke-linejoin:round;stroke-miterlimit:4;stroke-dasharray:none;stroke-dashoffset:0;stroke-opacity:1;marker:none;enable-background:accumulate"
     d="m 258.2497,103.0376 0.9317,0 c 4.4286,0 8.0187,3.5578 8.0187,7.94656 l 0,107.04231 -53.22697,0 0,-107.04231 c 0,-4.38876 3.5901,-7.94656 8.01873,-7.94656 l 1.69356,0 m 43.51468,44.20006 -53.22697,0"
     id="path11587-7"
     inkscape:connector-curvature="0"
     sodipodi:nodetypes="cssccssccc" />
  <path
     style="color:#000000;display:inline;overflow:visible;visibility:visible;fill:none;fill-rule:evenodd;stroke:#000000;stroke-width:1;stroke-linecap:butt;stroke-linejoin:round;stroke-miterlimit:4;stroke-dasharray:none;stroke-dashoffset:0;stroke-opacity:1;marker:none;enable-background:accumulate"
     d="m 257.99056,134.01793 c 4.0637,-9.67875 5.88475,-25.48608 -4.05385,-38.175192 l -26.18005,0 c -9.7493,13.329872 -7.63992,28.490422 -4.12654,38.150272"
     id="path11587-7-0"
     inkscape:connector-curvature="0"
     sodipodi:nodetypes="cccc" />
  <path
     style="fill:none;stroke:#000000;stroke-width:1;stroke-linecap:butt;stroke-linejoin:round;stroke-miterlimit:4;stroke-dasharray:none;stroke-opacity:1"
     d="m 241.86454,30.454183 -0.12794,24.00539 m -0.0257,4.817416 -0.0225,4.214517 m -0.0257,4.819341 -0.11557,21.683186 m -0.0205,3.853804 -0.0289,5.421599 m -0.0225,4.215154 -0.11877,22.28352 m -0.027,5.05896 -0.0302,5.66122 m -0.018,3.37264 -0.11363,21.31926 m -0.0244,4.57844 -0.025,4.69825 m -0.0225,4.21773 -0.11491,21.5608 m -0.0295,5.53884 -0.0193,3.61483 m -0.0295,5.53948 -0.12253,22.98927"
     id="path14359-1-7-5-3-0-73-1-9-88"
     inkscape:connector-curvature="0"
     sodipodi:nodetypes="cccccccccccccccccccccc" />
  <path
     style="fill:none;stroke:#000000;stroke-width:1;stroke-linecap:butt;stroke-linejoin:round;stroke-miterlimit:4;stroke-dasharray:none;stroke-opacity:1"
     d="m 329.26557,182.52059 -10.97547,-1.5e-4 m -5.12748,-5e-5 -4.16489,-7e-5 m -4.2896,-5e-5 -22.64726,-2.7e-4 m -4.04763,-4e-5 -3.7961,-8e-5 m -5.13065,-5e-5 -21.44165,-2.8e-4 m -4.16912,-5e-5 -4.99322,-8e-5 m -4.29068,-7e-5 -21.68146,-3.5e-4 m -4.64675,-9e-5 -3.92717,-5e-5 m -3.93355,-7e-5 -22.45242,-1e-4 m -4.8182,-2e-5 -4.57728,-2e-5 m -4.21592,-1e-5 -13.21099,-6e-5"
     id="path14359-1-7-5-3-0-73-1-9-35"
     inkscape:connector-curvature="0"
     sodipodi:nodetypes="cccccccccccccccccccccc" />
  <path
     style="fill:none;stroke:#000000;stroke-width:1;stroke-linecap:butt;stroke-linejoin:round;stroke-miterlimit:4;stroke-dasharray:none;stroke-opacity:1"
     d="m 193.01919,182.54673 6.02474,-141.530731 6e-5,-3.35513 96.58803,0 -5e-5,3.434353 -6.02474,141.451508 -4.5369,0 6.02474,-140.588388 -87.63366,0 -6.02474,140.588388 z"
     id="path14359-1-7-5-3-0-73-1-9-79"
     inkscape:connector-curvature="0"
     sodipodi:nodetypes="ccccccccccc" />
  <path
     style="fill:none;stroke:#000000;stroke-width:1;stroke-linecap:butt;stroke-linejoin:round;stroke-miterlimit:4;stroke-dasharray:none;stroke-opacity:1"
     d="m 198.89617,41.118203 96.76254,0.0022"
     id="path14359-1-7-5-3-0-73-1-9-640"
     inkscape:connector-curvature="0"
     sodipodi:nodetypes="cc" />
  <path
     style="fill:none;stroke:#000000;stroke-width:1;stroke-linecap:butt;stroke-linejoin:round;stroke-miterlimit:4;stroke-dasharray:none;stroke-opacity:1"
     d="m 230.26945,145.74999 0.002,-35.19489 20.53539,0 -0.002,35.19489"
     id="path14359-1-7-5-3-0-73-1-9-36"
     inkscape:connector-curvature="0"
     sodipodi:nodetypes="cccc" />
  <path
     style="fill:none;stroke:#000000;stroke-width:1;stroke-linecap:butt;stroke-linejoin:round;stroke-miterlimit:4;stroke-dasharray:none;stroke-opacity:1"
     d="m 255.46351,139.7795 -0.002,6.20714 -29.60919,0 0.002,-6.20714"
     id="path14359-1-7-5-3-0-73-1-9-50"
     inkscape:connector-curvature="0"
     sodipodi:nodetypes="cccc" />
  <path
     style="fill:none;stroke:#000000;stroke-width:1;stroke-linecap:butt;stroke-linejoin:round;stroke-miterlimit:4;stroke-dasharray:none;stroke-opacity:1"
     d="m 230.35393,133.98195 -7.4844,0 -0.002,6.20712 7.39142,0 m 20.59596,0 7.472,0 0.002,-6.20712 -7.52208,0"
     id="path14359-1-7-5-3-0-73-1-9-28"
     inkscape:connector-curvature="0"
     sodipodi:nodetypes="cccccccc" />
  <path
     style="fill:none;stroke:#000000;stroke-width:1;stroke-linecap:butt;stroke-linejoin:round;stroke-miterlimit:4;stroke-dasharray:none;stroke-opacity:1"
     d="m 259.08007,131.1467 c 3.12962,1.07186 3.11,8.80572 -0.75354,8.80572 l -7.37666,0 m -20.69129,0 -7.3914,0 c -3.84499,0 -3.85827,-8.39687 -0.33716,-8.90443"
     id="path14359-1-7-5-3-0-73-1-9-07"
     inkscape:connector-curvature="0"
     sodipodi:nodetypes="csccsc" />
  <path
     style="fill:none;stroke:#000000;stroke-width:1;stroke-linecap:butt;stroke-linejoin:round;stroke-miterlimit:4;stroke-dasharray:none;stroke-opacity:1"
     d="m 210.10254,135.52254 22.20611,8.5e-4 m 5.48272,2.1e-4 5.72109,2.3e-4 m 5.33966,2e-4 22.40928,2e-4 m 5.55337,4e-5 74.95287,6.3e-4"
     id="path14359-1-7-5-3-0-73-1-9-54"
     inkscape:connector-curvature="0"
     sodipodi:nodetypes="cccccccc" />
  <path
     style="fill:none;stroke:#000000;stroke-width:1;stroke-linecap:butt;stroke-linejoin:round;stroke-miterlimit:4;stroke-dasharray:none;stroke-opacity:1"
     d="m 188.73176,192.96506 11.72827,0 0.002,-18.97177 -3.14779,0 m -4.29082,0 -4.28963,0"
     id="path14359-1-7-5-3-0-73-1-9-71"
     inkscape:connector-curvature="0"
     sodipodi:nodetypes="cccccc" />
  <path
     style="fill:none;stroke:#000000;stroke-width:1;stroke-linecap:butt;stroke-linejoin:round;stroke-miterlimit:4;stroke-dasharray:none;stroke-opacity:1"
     d="m 200.46238,192.70302 13.53756,12.16823"
     id="path14359-1-7-5-3-0-73-1-9-51"
     inkscape:connector-curvature="0"
     sodipodi:nodetypes="cc" />
  <path
     style="fill:none;stroke:#000000;stroke-width:1;stroke-linecap:butt;stroke-linejoin:round;stroke-miterlimit:4;stroke-dasharray:none;stroke-opacity:1"
     d="m 200.36703,173.80431 13.4422,-12.11658"
     id="path14359-1-7-5-3-0-73-1-9-825"
     inkscape:connector-curvature="0"
     sodipodi:nodetypes="cc" />
  <path
     style="fill:none;stroke:#000000;stroke-width:1;stroke-linecap:butt;stroke-linejoin:round;stroke-miterlimit:4;stroke-dasharray:none;stroke-opacity:1"
     d="m 293.8593,174.04056 -4.43504,0 m -4.38615,0 -2.90705,0 -0.002,18.97175 11.72825,0"
     id="path14359-1-7-5-3-0-73-1-9-71-5"
     inkscape:connector-curvature="0"
     sodipodi:nodetypes="cccccc" />
  <path
     style="fill:none;stroke:#000000;stroke-width:1;stroke-linecap:butt;stroke-linejoin:round;stroke-miterlimit:4;stroke-dasharray:none;stroke-opacity:1"
     d="m 282.17874,192.703 -14.87725,13.0187"
     id="path14359-1-7-5-3-0-73-1-9-51-1"
     inkscape:connector-curvature="0"
     sodipodi:nodetypes="cc" />
  <path
     style="fill:none;stroke:#000000;stroke-width:1;stroke-linecap:butt;stroke-linejoin:round;stroke-miterlimit:4;stroke-dasharray:none;stroke-opacity:1"
     d="m 267.20853,160.66972 15.06318,13.39664"
     id="path14359-1-7-5-3-0-73-1-9-51-7"
     inkscape:connector-curvature="0"
     sodipodi:nodetypes="cc" />
  <path
     style="fill:none;stroke:#000000;stroke-width:1;stroke-linecap:butt;stroke-linejoin:round;stroke-miterlimit:4;stroke-dasharray:none;stroke-opacity:1"
     d="m 285.02269,123.10874 4.59453,0.002"
     id="path14359-1-7-5-3-0-73-1-9-92"
     inkscape:connector-curvature="0"
     sodipodi:nodetypes="cc" />
  <path
     style="fill:none;stroke:#000000;stroke-width:1;stroke-linecap:butt;stroke-linejoin:round;stroke-miterlimit:4;stroke-dasharray:none;stroke-opacity:1"
     d="m 192.8363,123.10874 4.59453,0.002"
     id="path14359-1-7-5-3-0-73-1-9-92-5"
     inkscape:connector-curvature="0"
     sodipodi:nodetypes="cc" />
  <path
     style="fill:none;stroke:#000000;stroke-width:1;stroke-linecap:butt;stroke-linejoin:round;stroke-miterlimit:4;stroke-dasharray:none;stroke-opacity:1"
     d="m 241.86183,26.870473 0.002,-24.1128999"
     id="path14359-1-7-5-3-0-73-1-9-92-2"
     inkscape:connector-curvature="0"
     sodipodi:nodetypes="cc" />
  <path
     style="fill:none;stroke:#000000;stroke-width:1;stroke-linecap:butt;stroke-linejoin:round;stroke-miterlimit:4;stroke-dasharray:none;stroke-opacity:1"
     d="m 203.47402,34.694355 0.002,-31.9367819"
     id="path14359-1-7-5-3-0-73-1-9-92-2-8"
     inkscape:connector-curvature="0"
     sodipodi:nodetypes="cc" />
  <path
     style="fill:none;stroke:#000000;stroke-width:1;stroke-linecap:butt;stroke-linejoin:round;stroke-miterlimit:4;stroke-dasharray:none;stroke-opacity:1"
     d="m 299.92103,37.819973 51.46953,0.0022"
     id="path14359-1-7-5-3-0-73-1-9-92-2-4"
     inkscape:connector-curvature="0"
     sodipodi:nodetypes="cc" />
  <path
     style="fill:#000000;fill-opacity:1;stroke:#000000;stroke-width:1;stroke-linecap:butt;stroke-linejoin:miter;stroke-miterlimit:4;stroke-dasharray:none;stroke-opacity:1"
     d="m 350.83596,121.12572 -3.19004,11.36589 -3.07883,-11.36646 3.07373,-0.011 z"
     id="path14359-1-7-5-3-0-73-4-0"
     inkscape:connector-curvature="0"
     sodipodi:nodetypes="ccccc" />
  <path
     style="fill:#000000;fill-opacity:1;stroke:#000000;stroke-width:1;stroke-linecap:butt;stroke-linejoin:miter;stroke-miterlimit:4;stroke-dasharray:none;stroke-opacity:1"
     d="m 350.83596,52.163869 -3.19004,-11.365888 -3.07883,11.366455 3.07373,0.01093 z"
     id="path14359-1-7-5-3-0-73-2-0"
     inkscape:connector-curvature="0"
     sodipodi:nodetypes="ccccc" />
  <path
     style="fill:none;fill-rule:evenodd;stroke:#000000;stroke-width:1;stroke-linecap:butt;stroke-linejoin:miter;stroke-miterlimit:4;stroke-dasharray:none;stroke-opacity:1"
     d="m 347.64099,52.183497 0,24.935967 m 0,20.87958 0,23.107036"
     id="path8331-0-6"
     inkscape:connector-curvature="0"
     sodipodi:nodetypes="cccc" />
  <path
     style="fill:#000000;fill-opacity:1;stroke:#000000;stroke-width:1;stroke-linecap:butt;stroke-linejoin:miter;stroke-miterlimit:4;stroke-dasharray:none;stroke-opacity:1"
     d="m 216.8647,76.051015 -11.47125,-3.153679 11.4676,-3.058772 0.0123,3.04608 z"
     id="path14359-1-7-5-3-0-73-4-0-68"
     inkscape:connector-curvature="0"
     sodipodi:nodetypes="ccccc" />
  <path
     style="fill:#000000;fill-opacity:1;stroke:#000000;stroke-width:1;stroke-linecap:butt;stroke-linejoin:miter;stroke-miterlimit:4;stroke-dasharray:none;stroke-opacity:1"
     d="m 275.51576,76.038573 11.46697,-3.16896 -11.47173,-3.04349 -0.009,3.04609 z"
     id="path14359-1-7-5-3-0-73-2-0-8"
     inkscape:connector-curvature="0"
     sodipodi:nodetypes="ccccc" />
  <path
     style="fill:none;fill-rule:evenodd;stroke:#000000;stroke-width:1;stroke-linecap:butt;stroke-linejoin:miter;stroke-miterlimit:4;stroke-dasharray:none;stroke-opacity:1"
     d="m 275.49382,72.872387 -10.21631,0.0022 m -17.66937,0.0033 -30.72578,0.0065"
     id="path8331-0-6-2"
     inkscape:connector-curvature="0"
     sodipodi:nodetypes="cccc" />
  <path
     style="fill:#000000;fill-opacity:1;stroke:#000000;stroke-width:1;stroke-linecap:butt;stroke-linejoin:miter;stroke-miterlimit:4;stroke-dasharray:none;stroke-opacity:1"
     d="m 183.85868,44.236453 11.46697,-3.16896 -11.47173,-3.043491 -0.009,3.04609 z"
     id="path14359-1-7-5-3-0-73-2-0-8-8"
     inkscape:connector-curvature="0"
     sodipodi:nodetypes="ccccc" />
  <path
     style="fill:none;fill-rule:evenodd;stroke:#000000;stroke-width:1;stroke-linecap:butt;stroke-linejoin:miter;stroke-miterlimit:4;stroke-dasharray:none;stroke-opacity:1"
     d="m 183.83674,41.070267 -31.98103,0.01244"
     id="path8331-0-6-2-3"
     inkscape:connector-curvature="0"
     sodipodi:nodetypes="cc" />
  <path
     style="fill:#000000;fill-opacity:1;stroke:#000000;stroke-width:1;stroke-linecap:butt;stroke-linejoin:miter;stroke-miterlimit:4;stroke-dasharray:none;stroke-opacity:1"
     d="m 256.13813,10.439283 -11.47121,-3.1536788 11.46759,-3.0587814 0.0123,3.046089 z"
     id="path14359-1-7-5-3-0-73-4-0-68-6"
     inkscape:connector-curvature="0"
     sodipodi:nodetypes="ccccc" />
  <path
     style="fill:#000000;fill-opacity:1;stroke:#000000;stroke-width:1;stroke-linecap:butt;stroke-linejoin:miter;stroke-miterlimit:4;stroke-dasharray:none;stroke-opacity:1"
     d="m 189.19009,10.426842 11.46696,-3.1689599 -11.47173,-3.0435003 -0.009,3.0460999 z"
     id="path14359-1-7-5-3-0-73-2-0-8-3"
     inkscape:connector-curvature="0"
     sodipodi:nodetypes="ccccc" />
  <path
     style="fill:none;fill-rule:evenodd;stroke:#000000;stroke-width:1;stroke-linecap:butt;stroke-linejoin:miter;stroke-miterlimit:4;stroke-dasharray:none;stroke-opacity:1"
     d="m 189.16815,7.2606565 -20.4307,0.00436 m 108.25583,0.00328 -20.83748,0.00436"
     id="path8331-0-6-2-6"
     inkscape:connector-curvature="0"
     sodipodi:nodetypes="cccc" />
  <text
     xml:space="preserve"
     style="font-style:normal;font-variant:normal;font-weight:normal;font-stretch:normal;font-size:15px;line-height:125%;font-family:Arial;-inkscape-font-specification:Arial;text-align:end;letter-spacing:0.5px;word-spacing:0px;text-anchor:end;fill:#000000;fill-opacity:1;stroke:none;stroke-width:1px;stroke-linecap:butt;stroke-linejoin:miter;stroke-opacity:1"
     x="147.19653"
     y="36.162834"
     id="text9948"
     sodipodi:linespacing="125%"><tspan
       sodipodi:role="line"
       id="tspan9950"
       x="147.69653"
       y="36.162834"
       style="font-size:17.5px;text-align:end;text-anchor:end">LOAD</tspan><tspan
       sodipodi:role="line"
       x="147.69653"
       y="58.037834"
       style="font-size:17.5px;text-align:end;text-anchor:end"
       id="tspan43241">APPLIED</tspan></text>
  <text
     xml:space="preserve"
     style="font-style:normal;font-variant:normal;font-weight:normal;font-stretch:normal;font-size:17.5px;line-height:125%;font-family:Arial;-inkscape-font-specification:Arial;text-align:start;letter-spacing:0.5px;word-spacing:0px;text-anchor:start;fill:#000000;fill-opacity:1;stroke:none;stroke-width:1px;stroke-linecap:butt;stroke-linejoin:miter;stroke-opacity:1"
     x="216.17744"
     y="12.809495"
     id="text9952"
     sodipodi:linespacing="125%"><tspan
       sodipodi:role="line"
       id="tspan9954"
       x="216.17744"
       y="12.809495">D</tspan></text>
  <text
     xml:space="preserve"
     style="font-style:normal;font-variant:normal;font-weight:normal;font-stretch:normal;font-size:17.5px;line-height:125%;font-family:Arial;-inkscape-font-specification:Arial;text-align:start;letter-spacing:0.5px;word-spacing:0px;text-anchor:start;fill:#000000;fill-opacity:1;stroke:none;stroke-width:1px;stroke-linecap:butt;stroke-linejoin:miter;stroke-opacity:1"
     x="249.5786"
     y="78.950424"
     id="text9956"
     sodipodi:linespacing="125%"><tspan
       sodipodi:role="line"
       id="tspan9958"
       x="249.5786"
       y="78.950424">G</tspan></text>
  <text
     xml:space="preserve"
     style="font-style:normal;font-variant:normal;font-weight:normal;font-stretch:normal;font-size:17.5px;line-height:125%;font-family:Arial;-inkscape-font-specification:Arial;text-align:start;letter-spacing:0.5px;word-spacing:0px;text-anchor:start;fill:#000000;fill-opacity:1;stroke:none;stroke-width:1px;stroke-linecap:butt;stroke-linejoin:miter;stroke-opacity:1"
     x="340.1875"
     y="92.85244"
     id="text9960"
     sodipodi:linespacing="125%"><tspan
       sodipodi:role="line"
       id="tspan9962"
       x="340.1875"
       y="92.85244">E</tspan></text>
  <text
     xml:space="preserve"
     style="font-style:normal;font-variant:normal;font-weight:normal;font-stretch:normal;font-size:25px;line-height:125%;font-family:Arial;-inkscape-font-specification:Arial;text-align:start;letter-spacing:-0.15000001px;word-spacing:0px;text-anchor:start;fill:#000000;fill-opacity:1;stroke:none;stroke-width:1px;stroke-linecap:butt;stroke-linejoin:miter;stroke-opacity:1"
     x="-3.4662166"
     y="321.03302"
     id="text9964"
     sodipodi:linespacing="125%"><tspan
       sodipodi:role="line"
       id="tspan9966"
       x="-3.4662166"
       y="321.03302">FIGURE W-16 - SIDE LOAD APPLICATION.</tspan></text>
</svg>
