<?xml version="1.0" encoding="UTF-8" standalone="no"?>
<!-- Created with Inkscape (http://www.inkscape.org/) -->

<svg
   xmlns:dc="http://purl.org/dc/elements/1.1/"
   xmlns:cc="http://creativecommons.org/ns#"
   xmlns:rdf="http://www.w3.org/1999/02/22-rdf-syntax-ns#"
   xmlns:svg="http://www.w3.org/2000/svg"
   xmlns="http://www.w3.org/2000/svg"
   xmlns:sodipodi="http://sodipodi.sourceforge.net/DTD/sodipodi-0.dtd"
   xmlns:inkscape="http://www.inkscape.org/namespaces/inkscape"
   id="svg14009"
   version="1.1"
   inkscape:version="0.91 r13725"
   width="463"
   height="629"
   viewBox="0 0 463 629"
   sodipodi:docname="er21ap14.001.svg">
  <metadata
     id="metadata14015">
    <rdf:RDF>
      <cc:Work
         rdf:about="">
        <dc:format>image/svg+xml</dc:format>
        <dc:type
           rdf:resource="http://purl.org/dc/dcmitype/StillImage" />
        <dc:title />
      </cc:Work>
    </rdf:RDF>
  </metadata>
  <defs
     id="defs14013" />
  <sodipodi:namedview
     pagecolor="#ffffff"
     bordercolor="#666666"
     borderopacity="1"
     objecttolerance="10"
     gridtolerance="10"
     guidetolerance="10"
     inkscape:pageopacity="0"
     inkscape:pageshadow="2"
     inkscape:window-width="1698"
     inkscape:window-height="886"
     id="namedview14011"
     showgrid="false"
     inkscape:zoom="2.9337006"
     inkscape:cx="210.99631"
     inkscape:cy="123.88627"
     inkscape:window-x="289"
     inkscape:window-y="0"
     inkscape:window-maximized="0"
     inkscape:current-layer="svg14009" />
  <path
     style="fill:#dcdcdc;fill-opacity:1;stroke:none"
     d="m 223.63883,159.7722 0.0115,-97.440014 c 13.62814,11.843678 42.27814,14.673779 63.46765,14.668147 21.07464,-0.0056 50.38622,-2.441831 63.32559,-15.309504 l -0.0123,98.082521 c -10.79991,11.52984 -41.42634,15.99446 -62.70654,15.89851 -20.99727,-0.0947 -55.22297,-5.21571 -64.0859,-15.89966 z"
     id="path7965-0-7-2"
     inkscape:connector-curvature="0"
     sodipodi:nodetypes="ccsccsc" />
  <path
     style="fill:#afafaf;fill-opacity:1;stroke:none"
     d="m 350.45937,190.55622 -0.0187,-187.6197562 2.68728,0.0807 0.0131,181.5619262 c 2.2e-4,3.06983 -1.19794,4.72191 -2.68168,5.97713 z"
     id="path7965-0-6-7-8-83"
     inkscape:connector-curvature="0"
     sodipodi:nodetypes="cccsc" />
  <path
     style="fill:#afafaf;fill-opacity:1;stroke:none"
     d="m 219.79895,184.59871 -0.12559,-181.3643712 3.7742,0.08086 0.11769,187.7177912 c -2.03749,-1.35656 -3.76446,-3.784 -3.7663,-6.43428 z"
     id="path7965-0-6-7-8-9"
     inkscape:connector-curvature="0"
     sodipodi:nodetypes="scccs" />
  <path
     style="fill:#666666;fill-opacity:1;stroke:none;stroke-width:1;stroke-linecap:butt;stroke-linejoin:round;stroke-miterlimit:4;stroke-dasharray:none;stroke-opacity:1"
     d="m 223.51481,190.56023 0.002,-33.6373 0.94347,0 0,4.19765 c 10.53947,8.71101 37.13056,14.47935 63.69985,14.62155 24.66206,0.13199 49.30533,-4.65606 61.07526,-14.62155 l 0,-4.19765 1.26029,0 -0.002,33.00765 c -13.94121,12.5067 -41.27011,15.20637 -62.12378,15.10333 -21.4845,-0.10615 -48.25556,-1.84043 -64.85509,-14.47368 z"
     id="path14359-1-7-5-3-0-73-1-9-4-3"
     inkscape:connector-curvature="0"
     sodipodi:nodetypes="ccccsccccsc" />
  <path
     style="fill:#666666;stroke:none;stroke-width:1;stroke-linecap:butt;stroke-linejoin:round;stroke-miterlimit:4;stroke-dasharray:none;stroke-opacity:1;fill-opacity:1"
     d="m 350.28836,3.5502165 -0.002,58.2984815 c -13.94121,12.5067 -41.27011,15.20637 -62.12378,15.10333 -21.4845,-0.10615 -48.25556,-1.84043 -64.85509,-14.47368 l 0.002,-58.9281315 z"
     id="path14359-1-7-5-3-0-73-1-9-4-4-9"
     inkscape:connector-curvature="0"
     sodipodi:nodetypes="ccsccc" />
  <path
     style="fill:#dcdcdc;fill-opacity:1;stroke:none"
     d="m 140.12935,180.58925 0.0115,-122.455225 36.04981,-0.0337 -0.0123,122.490075 z"
     id="path7965-0-7"
     inkscape:connector-curvature="0"
     sodipodi:nodetypes="ccccc" />
  <path
     style="fill:none;stroke:#666666;stroke-width:1;stroke-linecap:butt;stroke-linejoin:miter;stroke-miterlimit:4;stroke-dasharray:none;stroke-opacity:1"
     d="m 140.09565,58.239332 -0.002,122.513978"
     id="path14359-1-7-5-3-0-73-1-9"
     inkscape:connector-curvature="0"
     sodipodi:nodetypes="cc" />
  <path
     style="fill:#afafaf;fill-opacity:1;stroke:none"
     d="m 153.37402,414.52973 0,24.84239 -16.44593,0 0,-24.84239 z m 123.35221,0.19858 0,24.64538 -15.98598,0 0,-24.64538 z m -123.35221,-37.25266 0,20.17447 -16.44593,0 0,-20.06707 z m 123.35221,0 0,20.37306 -15.98598,0 0,-20.37306 z m -15.98598,-52.62465 0,-3.83313 c 0,-1.70357 -1.13769,-3.97167 -3.57451,-3.97167 l -100.87976,0 c -1.78869,0 -2.91196,1.48501 -2.91196,2.87887 l 0,4.81853 -16.44593,-0.10739 0,-4.71109 c 0,-1.52973 -1.39475,-2.87887 -3.14359,-2.87887 l -100.954238,0 c -2.160929,0 -3.189986,1.27153 -3.189986,2.96846 l 0,77.6671 -11.55916,0.0442 -0.0072,-86.7943 c -1.08e-4,-1.29104 1.088778,-2.71454 2.566134,-2.7143 l 372.34752,0.0615 c 1.718,2.9e-4 2.91654,1.23542 2.91849,2.9882 l 0.0264,86.66257 -11.89929,-0.0993 -0.0279,-78.25898 c -5.4e-4,-1.52987 -1.11086,-2.5252 -2.708,-2.5252 l -100.69866,0 c -2.30657,0 -3.87238,2.01323 -3.87238,3.97167 l 0,3.83313 z M 153.37402,490.86677 c 0,2.48062 1.84504,3.54067 3.67304,3.54067 l 100.89264,-1e-5 c 1.59385,0 3.11049,-1.52423 3.11049,-3.34213 l 0,-17.20701 15.81722,0 0,17.20701 c 0,1.80331 1.20584,3.34213 3.50758,3.34213 l 101.562,-10e-6 c 1.06388,0 2.12841,-0.44265 2.12792,-1.75919 l -0.0293,-78.04092 11.89886,-0.0331 0.0251,85.10249 c 4e-4,1.37047 -1.13899,2.73546 -2.60442,2.73546 l 3e-5,-10e-6 -372.505071,0 c -1.58058,0 -2.768365,-1.54976 -2.768376,-2.94781 l -6.56e-4,-84.99087 11.52558,0.0385 0.03038,76.80393 c 6.79e-4,1.71535 1.843201,3.09155 3.523798,3.09155 l 100.292765,-10e-6 c 2.17812,0 3.47449,-1.42087 3.47449,-3.54067 l 0,-17.10774 16.44593,0 z"
     id="path7965-0-6-7-8"
     inkscape:connector-curvature="0"
     sodipodi:nodetypes="cccccccccccccccccccccssssccssssccssssccssssccsssccssssccsscssccssssccss" />
  <path
     style="fill:#666666;fill-opacity:1;stroke:none"
     d="m 395.85728,499.93701 0.0528,-85.23959 1.27396,-0.10693 0.006,-16.62233 -1.33325,-0.01 -4.7e-4,-86.96916 c -1e-5,-1.38322 -1.21778,-2.62582 -2.72138,-2.62582 l -372.128372,0 c -1.559786,0 -2.816789,0.90676 -2.816789,2.57808 l 0,86.69705 -2.025746,0.0533 0.05331,16.68575 1.972437,0.0533 0,84.99679 c 0,2.4629 1.818416,3.29421 3.389696,3.29421 l 371.386624,0 c 1.42129,0 2.89123,-0.93787 2.89122,-2.78487 z M 1.075856,517.47422 1.075626,292.028 l 411.208714,0.0295 0.008,225.43418 z"
     id="path6035-1-1"
     inkscape:connector-curvature="0"
     sodipodi:nodetypes="cccccssssccccsssscccccc" />
  <path
     style="color:#000000;font-style:normal;font-variant:normal;font-weight:normal;font-stretch:normal;font-size:medium;line-height:normal;font-family:sans-serif;text-indent:0;text-align:start;text-decoration:none;text-decoration-line:none;text-decoration-style:solid;text-decoration-color:#000000;letter-spacing:normal;word-spacing:normal;text-transform:none;direction:ltr;block-progression:tb;writing-mode:lr-tb;baseline-shift:baseline;text-anchor:start;white-space:normal;clip-rule:nonzero;display:inline;overflow:visible;visibility:visible;opacity:1;isolation:auto;mix-blend-mode:normal;color-interpolation:sRGB;color-interpolation-filters:linearRGB;solid-color:#000000;solid-opacity:1;fill:#666666;fill-opacity:1;fill-rule:evenodd;stroke:none;stroke-width:3;stroke-linecap:butt;stroke-linejoin:miter;stroke-miterlimit:4;stroke-dasharray:none;stroke-dashoffset:0;stroke-opacity:1;marker:none;color-rendering:auto;image-rendering:auto;shape-rendering:auto;text-rendering:auto;enable-background:accumulate"
     d="m 280.38477,315.54492 c -2.72768,0 -4.97071,2.24303 -4.97071,4.9707 l 0,4.13282 3,0 0,-4.13282 c 0,-1.10636 0.86436,-1.9707 1.97071,-1.9707 l 100.38476,0 c 1.10636,0 1.9707,0.86434 1.9707,1.9707 l 0,77.41016 3,0 0,-77.41016 c 0,-2.72767 -2.24302,-4.9707 -4.9707,-4.9707 l -100.38476,0 z m -4.97071,62.10547 0,20.27539 3,0 0,-20.27539 -3,0 z m 0,36.91602 0,24.79297 3,0 0,-24.79297 -3,0 z m 107.32617,0.21875 0,76.30859 c 0,1.10636 -0.86435,1.9707 -1.9707,1.9707 l -100.38476,0 c -1.10636,0 -1.97071,-0.86434 -1.97071,-1.9707 l 0,-17.35547 -3,0 0,17.35547 c 0,2.72768 2.24304,4.9707 4.97071,4.9707 l 100.38476,0 c 2.72767,0 4.9707,-2.24302 4.9707,-4.9707 l 0,-76.30859 -3,0 z"
     id="path14901"
     inkscape:connector-curvature="0" />
  <path
     style="color:#000000;font-style:normal;font-variant:normal;font-weight:normal;font-stretch:normal;font-size:medium;line-height:normal;font-family:sans-serif;text-indent:0;text-align:start;text-decoration:none;text-decoration-line:none;text-decoration-style:solid;text-decoration-color:#000000;letter-spacing:normal;word-spacing:normal;text-transform:none;direction:ltr;block-progression:tb;writing-mode:lr-tb;baseline-shift:baseline;text-anchor:start;white-space:normal;clip-rule:nonzero;display:inline;overflow:visible;visibility:visible;opacity:1;isolation:auto;mix-blend-mode:normal;color-interpolation:sRGB;color-interpolation-filters:linearRGB;solid-color:#000000;solid-opacity:1;fill:#666666;fill-opacity:1;fill-rule:evenodd;stroke:none;stroke-width:3;stroke-linecap:butt;stroke-linejoin:miter;stroke-miterlimit:4;stroke-dasharray:none;stroke-dashoffset:0;stroke-opacity:1;marker:none;color-rendering:auto;image-rendering:auto;shape-rendering:auto;text-rendering:auto;enable-background:accumulate"
     d="m 156.85938,315.38086 c -2.72768,0 -4.97071,2.24302 -4.97071,4.9707 l 0,4.40625 3,0 0,-4.40625 c 0,-1.10636 0.86436,-1.9707 1.97071,-1.9707 l 100.38476,0 c 1.10636,0 1.9707,0.86434 1.9707,1.9707 l 0,4.40625 3,0 0,-4.40625 c 0,-2.72767 -2.24302,-4.9707 -4.9707,-4.9707 l -100.38476,0 z m -4.97071,62.26953 0,19.94531 3,0 0,-19.94531 -3,0 z m 107.32617,0 0,20.16602 3,0 0,-20.16602 -3,0 z m -107.32617,36.91602 0,24.90234 3,0 0,-24.90234 -3,0 z m 107.32617,0.10937 0,24.6836 3,0 0,-24.6836 -3,0 z m 0,59.0625 0,17.19141 c 0,1.10636 -0.86435,1.9707 -1.9707,1.9707 l -100.38476,0 c -1.10636,0 -1.97071,-0.86434 -1.97071,-1.9707 l 0,-17.08008 -3,0 0,17.08008 c 0,2.72768 2.24304,4.9707 4.97071,4.9707 l 100.38476,0 c 2.72767,0 4.9707,-2.24302 4.9707,-4.9707 l 0,-17.19141 -3,0 z"
     id="path14901-9"
     inkscape:connector-curvature="0" />
  <path
     style="color:#000000;display:inline;overflow:visible;visibility:visible;fill:none;fill-rule:evenodd;stroke:#666666;stroke-width:3;stroke-linecap:butt;stroke-linejoin:miter;stroke-miterlimit:4;stroke-dasharray:none;stroke-dashoffset:0;stroke-opacity:1;marker:none;enable-background:accumulate"
     d="m 136.96921,377.76123 0,20.05502 m 0,16.85945 0,24.57291 m 0,34.49024 0,17.19002 c 0,1.91702 -1.55405,3.47106 -3.47106,3.47106 l -100.385322,0 c -1.91701,0 -3.47106,-1.55404 -3.47106,-3.47106 l 0,-76.36337 m 0,-16.96963 0,-77.2449 c 0,-1.91702 1.55405,-3.47107 3.47106,-3.47107 l 100.385322,0 c 1.91702,0 3.47106,1.55405 3.47106,3.47107 l 0,4.40769"
     id="path14901-4"
     inkscape:connector-curvature="0"
     sodipodi:nodetypes="cccccssssccssssc" />
  <path
     style="fill:none;stroke:#000000;stroke-width:1.14846241;stroke-linecap:butt;stroke-linejoin:miter;stroke-miterlimit:4;stroke-dasharray:none;stroke-opacity:1"
     d="m 16.244594,397.67908 -0.0027,16.64473 21.344048,0 0.0027,-16.64473 z"
     id="path14359-1-7-5-3-0-73-1-9-8-6-5"
     inkscape:connector-curvature="0"
     sodipodi:nodetypes="ccccc" />
  <path
     style="fill:none;stroke:#000000;stroke-width:1;stroke-linecap:butt;stroke-linejoin:miter;stroke-miterlimit:4;stroke-dasharray:none;stroke-opacity:1"
     d="m 135.04189,397.73419 -0.002,16.79321 20.43722,0 0.002,-16.79321 z"
     id="path14359-1-7-5-3-0-73-1-9-8-6"
     inkscape:connector-curvature="0"
     sodipodi:nodetypes="ccccc" />
  <path
     style="fill:none;stroke:#000000;stroke-width:1;stroke-linecap:butt;stroke-linejoin:miter;stroke-miterlimit:4;stroke-dasharray:none;stroke-opacity:1"
     d="m 116.67426,324.78106 -0.002,52.75238 184.9698,0 0.002,-52.75238 z"
     id="path14359-1-7-5-3-0-73-1-9-8"
     inkscape:connector-curvature="0"
     sodipodi:nodetypes="ccccc" />
  <path
     style="fill:none;stroke:#000000;stroke-width:1;stroke-linecap:butt;stroke-linejoin:miter;stroke-miterlimit:4;stroke-dasharray:none;stroke-opacity:1"
     d="m 104.51541,439.38473 -0.002,34.38475 220.92896,0 0.002,-34.38475 z"
     id="path14359-1-7-5-3-0-73-1-9-8-4"
     inkscape:connector-curvature="0"
     sodipodi:nodetypes="ccccc" />
  <path
     style="fill:none;stroke:#000000;stroke-width:1;stroke-linecap:butt;stroke-linejoin:miter;stroke-miterlimit:4;stroke-dasharray:none;stroke-opacity:1"
     d="m 258.31198,397.86353 -0.002,16.79321 20.43722,0 0.002,-16.79321 z"
     id="path14359-1-7-5-3-0-73-1-9-8-6-6"
     inkscape:connector-curvature="0"
     sodipodi:nodetypes="ccccc" />
  <path
     style="fill:none;stroke:#000000;stroke-width:1.14186835;stroke-linecap:butt;stroke-linejoin:miter;stroke-miterlimit:4;stroke-dasharray:none;stroke-opacity:1"
     d="m 376.4113,397.93447 -0.003,16.65133 20.7511,0 0.003,-16.65133 z"
     id="path14359-1-7-5-3-0-73-1-9-8-6-1"
     inkscape:connector-curvature="0"
     sodipodi:nodetypes="ccccc" />
  <path
     style="color:#000000;display:inline;overflow:visible;visibility:visible;fill:none;fill-rule:evenodd;stroke:#000000;stroke-width:2;stroke-linecap:butt;stroke-linejoin:miter;stroke-miterlimit:4;stroke-dasharray:none;stroke-dashoffset:0;stroke-opacity:1;marker:none;enable-background:accumulate"
     d="m 17.98148,397.58406 0,-86.21125 c 0,-1.65846 1.344442,-3.0029 3.002897,-3.0029 l 371.995793,0 c 1.65846,0 3.0029,1.34444 3.0029,3.0029 l 0,86.52292 m 0,16.83025 0,84.71137 c 0,1.65845 -1.34445,3.00289 -3.0029,3.00289 l -371.995793,0 c -1.658452,0 -3.002897,-1.34444 -3.002897,-3.00289 l 0,-84.94512"
     id="path14862"
     inkscape:connector-curvature="0"
     sodipodi:nodetypes="cssssccssssc" />
  <path
     style="fill:none;stroke:#000000;stroke-width:2;stroke-linecap:butt;stroke-linejoin:miter;stroke-miterlimit:4;stroke-dasharray:none;stroke-opacity:1"
     d="m 1.2284183,292.16608 -0.002,225.20624 410.8738317,0 0.002,-225.20624 z"
     id="path14359-1-7-5-3-0-73-1-9-8-6-66"
     inkscape:connector-curvature="0"
     sodipodi:nodetypes="ccccc" />
  <path
     style="fill:#666666;fill-opacity:1;stroke:none"
     d="m 140.33344,180.59513 -5e-4,25.10092 -27.25221,-0.003 -3.5e-4,-25.10754 z m -27.25341,-122.306944 -6.9e-4,-55.3107168 27.2556,0.0295 -10e-4,55.2974668 z"
     id="path6035-1-1-8"
     inkscape:connector-curvature="0"
     sodipodi:nodetypes="cccccccccc" />
  <path
     style="fill:#afafaf;fill-opacity:1;stroke:none"
     d="m 140.30307,58.335726 0.0338,-55.3374116 53.46647,0.0011 0.007,202.6879156 -53.48362,0.0105 0.006,-25.10927 35.77099,0.002 0,-122.525301 z"
     id="path7965-0-6-7-8-8"
     inkscape:connector-curvature="0"
     sodipodi:nodetypes="ccccccccc" />
  <path
     style="fill:none;stroke:#000000;stroke-width:2;stroke-linecap:butt;stroke-linejoin:miter;stroke-miterlimit:4;stroke-dasharray:none;stroke-opacity:1"
     d="m 120.55045,57.989602 -0.002,122.471468 55.56295,0 0.002,-122.471468 z"
     id="path14359-1-7-5-3-0-73-1-9-8-6-8"
     inkscape:connector-curvature="0"
     sodipodi:nodetypes="ccccc" />
  <text
     xml:space="preserve"
     style="font-style:normal;font-variant:normal;font-weight:bold;font-stretch:normal;font-size:15px;line-height:114.99999762%;font-family:Arial;-inkscape-font-specification:'Arial Bold';text-align:start;letter-spacing:0.75px;word-spacing:0px;text-anchor:start;fill:#000000;fill-opacity:1;stroke:none;stroke-width:1px;stroke-linecap:butt;stroke-linejoin:miter;stroke-opacity:1"
     x="144.7242"
     y="120.855"
     id="text14993"
     sodipodi:linespacing="115%"><tspan
       sodipodi:role="line"
       id="tspan14995"
       x="144.7242"
       y="120.855">A<tspan
   style="font-size:65%;baseline-shift:sub"
   id="tspan14997">e</tspan></tspan></text>
  <path
     style="fill:none;stroke:#000000;stroke-width:1;stroke-linecap:butt;stroke-linejoin:round;stroke-miterlimit:4;stroke-dasharray:none;stroke-opacity:1"
     d="m 350.50265,162.98413 c -11.3061,10.62779 -36.34463,15.08276 -61.28365,15.24271 -27.96358,0.17933 -56.27582,-5.2782 -65.69522,-14.61306 m 0,26.96989 0.002,-33.6373 0.94347,0 0,4.19765 c 10.53947,8.71101 37.13056,14.47935 63.69985,14.62155 24.66206,0.13199 49.30533,-4.65606 61.07526,-14.62155 l 0,-4.19765 1.26029,0 -0.002,33.00765 c -13.94121,12.5067 -41.27011,15.20637 -62.12378,15.10333 -21.4845,-0.10615 -48.25556,-1.84043 -64.85509,-14.47368 z"
     id="path14359-1-7-5-3-0-73-1-9-4"
     inkscape:connector-curvature="0"
     sodipodi:nodetypes="cscccccsccccsc" />
  <path
     style="fill:none;stroke:#000000;stroke-width:1;stroke-linecap:butt;stroke-linejoin:round;stroke-miterlimit:4;stroke-dasharray:none;stroke-opacity:1"
     d="M 350.39772,9.2479189 C 339.09162,19.875709 314.05309,24.645503 289.11407,24.805453 261.15049,24.984783 232.83825,19.212429 223.41885,9.8775689 m 126.98087,-6.3525863 -0.002,58.2984824 c -13.94121,12.5067 -41.27011,15.20637 -62.12378,15.10333 -21.4845,-0.10615 -48.25556,-1.84043 -64.85509,-14.47368 l 0.002,-58.9281324 z"
     id="path14359-1-7-5-3-0-73-1-9-4-4"
     inkscape:connector-curvature="0"
     sodipodi:nodetypes="cscccsccc" />
  <path
     style="fill:#6d6d6d;fill-opacity:1;stroke:#666666;stroke-width:1;stroke-linecap:butt;stroke-linejoin:miter;stroke-miterlimit:4;stroke-dasharray:none;stroke-opacity:1"
     d="m 276.55207,84.232731 3.52014,-5.43702 3.50308,5.43876 -3.51161,-8.7e-4 z"
     id="path14359-1-7-5-3-0-73-1"
     inkscape:connector-curvature="0"
     sodipodi:nodetypes="ccccc" />
  <path
     style="fill:#6d6d6d;fill-opacity:1;stroke:#666666;stroke-width:1;stroke-linecap:butt;stroke-linejoin:miter;stroke-miterlimit:4;stroke-dasharray:none;stroke-opacity:1"
     d="m 276.55207,167.75704 3.52014,5.43702 3.50308,-5.43876 -3.51161,8.7e-4 z"
     id="path14359-1-7-5-3-0-73-1-0"
     inkscape:connector-curvature="0"
     sodipodi:nodetypes="ccccc" />
  <path
     style="fill:none;fill-opacity:1;stroke:#666666;stroke-width:4;stroke-linecap:butt;stroke-linejoin:miter;stroke-miterlimit:4;stroke-dasharray:none;stroke-opacity:1"
     d="m 280.06468,84.248611 -0.002,83.505799"
     id="path14359-1-7-5-3-0-73-1-9-3"
     inkscape:connector-curvature="0"
     sodipodi:nodetypes="cc" />
  <path
     style="fill:#6d6d6d;fill-opacity:1;stroke:#666666;stroke-width:1;stroke-linecap:butt;stroke-linejoin:miter;stroke-miterlimit:4;stroke-dasharray:none;stroke-opacity:1"
     d="m 229.89732,148.02267 -5.43201,-3.52786 5.44373,-3.49535 -0.006,3.5116 z"
     id="path14359-1-7-5-3-0-73-1-2"
     inkscape:connector-curvature="0"
     sodipodi:nodetypes="ccccc" />
  <path
     style="fill:#6d6d6d;fill-opacity:1;stroke:#666666;stroke-width:1;stroke-linecap:butt;stroke-linejoin:miter;stroke-miterlimit:4;stroke-dasharray:none;stroke-opacity:1"
     d="m 343.32198,148.0359 5.44202,-3.51241 -5.43378,-3.51081 -0.004,3.51161 z"
     id="path14359-1-7-5-3-0-73-1-0-5"
     inkscape:connector-curvature="0"
     sodipodi:nodetypes="ccccc" />
  <path
     style="fill:none;fill-opacity:1;stroke:#666666;stroke-width:4;stroke-linecap:butt;stroke-linejoin:miter;stroke-miterlimit:4;stroke-dasharray:none;stroke-opacity:1"
     d="m 229.9182,144.51009 113.40614,0.0152"
     id="path14359-1-7-5-3-0-73-1-9-3-4"
     inkscape:connector-curvature="0"
     sodipodi:nodetypes="cc" />
  <path
     style="fill:#6d6d6d;fill-opacity:1;stroke:#666666;stroke-width:1;stroke-linecap:butt;stroke-linejoin:miter;stroke-miterlimit:4;stroke-dasharray:none;stroke-opacity:1"
     d="m 45.433594,409.11758 -5.43201,-3.52786 5.44373,-3.49535 -0.006,3.5116 z"
     id="path14359-1-7-5-3-0-73-1-2-5"
     inkscape:connector-curvature="0"
     sodipodi:nodetypes="ccccc" />
  <path
     style="fill:#6d6d6d;fill-opacity:1;stroke:#666666;stroke-width:1;stroke-linecap:butt;stroke-linejoin:miter;stroke-miterlimit:4;stroke-dasharray:none;stroke-opacity:1"
     d="m 127.04238,409.13081 5.44202,-3.51241 -5.43378,-3.51081 -0.004,3.51161 z"
     id="path14359-1-7-5-3-0-73-1-0-5-2"
     inkscape:connector-curvature="0"
     sodipodi:nodetypes="ccccc" />
  <path
     style="fill:none;fill-opacity:1;stroke:#666666;stroke-width:3.89018655;stroke-linecap:butt;stroke-linejoin:miter;stroke-miterlimit:4;stroke-dasharray:none;stroke-opacity:1"
     d="m 44.227297,405.605 82.816753,0.0152"
     id="path14359-1-7-5-3-0-73-1-9-3-4-2"
     inkscape:connector-curvature="0"
     sodipodi:nodetypes="cc" />
  <path
     style="fill:#6d6d6d;fill-opacity:1;stroke:#666666;stroke-width:1;stroke-linecap:butt;stroke-linejoin:miter;stroke-miterlimit:4;stroke-dasharray:none;stroke-opacity:1"
     d="m 162.71753,409.11758 -5.43201,-3.52786 5.44373,-3.49535 -0.006,3.5116 z"
     id="path14359-1-7-5-3-0-73-1-2-1"
     inkscape:connector-curvature="0"
     sodipodi:nodetypes="ccccc" />
  <path
     style="fill:#6d6d6d;fill-opacity:1;stroke:#666666;stroke-width:1;stroke-linecap:butt;stroke-linejoin:miter;stroke-miterlimit:4;stroke-dasharray:none;stroke-opacity:1"
     d="m 250.0629,409.13081 5.44202,-3.51241 -5.43378,-3.51081 -0.004,3.51161 z"
     id="path14359-1-7-5-3-0-73-1-0-5-0"
     inkscape:connector-curvature="0"
     sodipodi:nodetypes="ccccc" />
  <path
     style="fill:none;fill-opacity:1;stroke:#666666;stroke-width:4;stroke-linecap:butt;stroke-linejoin:miter;stroke-miterlimit:4;stroke-dasharray:none;stroke-opacity:1"
     d="m 162.73841,405.605 87.32685,0.0152"
     id="path14359-1-7-5-3-0-73-1-9-3-4-4"
     inkscape:connector-curvature="0"
     sodipodi:nodetypes="cc" />
  <path
     style="fill:#6d6d6d;fill-opacity:1;stroke:#666666;stroke-width:1;stroke-linecap:butt;stroke-linejoin:miter;stroke-miterlimit:4;stroke-dasharray:none;stroke-opacity:1"
     d="m 286.66003,409.38101 -5.43201,-3.52786 5.44373,-3.49535 -0.006,3.5116 z"
     id="path14359-1-7-5-3-0-73-1-2-1-8"
     inkscape:connector-curvature="0"
     sodipodi:nodetypes="ccccc" />
  <path
     style="fill:#6d6d6d;fill-opacity:1;stroke:#666666;stroke-width:1;stroke-linecap:butt;stroke-linejoin:miter;stroke-miterlimit:4;stroke-dasharray:none;stroke-opacity:1"
     d="m 368.0054,409.39424 5.44202,-3.51241 -5.43378,-3.51081 -0.004,3.51161 z"
     id="path14359-1-7-5-3-0-73-1-0-5-0-7"
     inkscape:connector-curvature="0"
     sodipodi:nodetypes="ccccc" />
  <path
     style="fill:none;fill-opacity:1;stroke:#666666;stroke-width:3.9295516;stroke-linecap:butt;stroke-linejoin:miter;stroke-miterlimit:4;stroke-dasharray:none;stroke-opacity:1"
     d="m 286.68136,405.86843 84.25815,0.0152"
     id="path14359-1-7-5-3-0-73-1-9-3-4-4-5"
     inkscape:connector-curvature="0"
     sodipodi:nodetypes="cc" />
  <text
     xml:space="preserve"
     style="font-style:normal;font-variant:normal;font-weight:bold;font-stretch:normal;font-size:15px;line-height:114.99999762%;font-family:Arial;-inkscape-font-specification:'Arial Bold';text-align:start;letter-spacing:0.75px;word-spacing:0px;text-anchor:start;fill:#000000;fill-opacity:1;stroke:none;stroke-width:1px;stroke-linecap:butt;stroke-linejoin:miter;stroke-opacity:1"
     x="258.27676"
     y="99.371429"
     id="text14993-2"
     sodipodi:linespacing="115%"><tspan
       sodipodi:role="line"
       id="tspan14995-1"
       x="258.27676"
       y="99.371429">D<tspan
   style="font-size:64.99999762%;baseline-shift:sub"
   id="tspan15283">h</tspan></tspan></text>
  <text
     xml:space="preserve"
     style="font-style:normal;font-variant:normal;font-weight:bold;font-stretch:normal;font-size:15px;line-height:114.99999762%;font-family:Arial;-inkscape-font-specification:'Arial Bold';text-align:start;letter-spacing:0.75px;word-spacing:0px;text-anchor:start;fill:#000000;fill-opacity:1;stroke:none;stroke-width:1px;stroke-linecap:butt;stroke-linejoin:miter;stroke-opacity:1"
     x="308.59753"
     y="139.65237"
     id="text14993-2-5"
     sodipodi:linespacing="115%"><tspan
       sodipodi:role="line"
       id="tspan14995-1-1"
       x="308.59753"
       y="139.65237">L</tspan></text>
  <text
     xml:space="preserve"
     style="font-style:normal;font-variant:normal;font-weight:bold;font-stretch:normal;font-size:17.5px;line-height:114.99999762%;font-family:Arial;-inkscape-font-specification:'Arial Bold';text-align:start;letter-spacing:0px;word-spacing:0px;text-anchor:start;fill:#000000;fill-opacity:1;stroke:none;stroke-width:1px;stroke-linecap:butt;stroke-linejoin:miter;stroke-opacity:1;"
     x="196.99419"
     y="354.77402"
     id="text14993-2-5-7"
     sodipodi:linespacing="115%"><tspan
       sodipodi:role="line"
       id="tspan14995-1-1-8"
       x="196.99419"
       y="354.77402">L =</tspan></text>
  <text
     xml:space="preserve"
     style="font-style:normal;font-variant:normal;font-weight:bold;font-stretch:normal;font-size:10px;line-height:114.99999762%;font-family:Arial;-inkscape-font-specification:'Arial Bold';text-align:start;letter-spacing:0px;word-spacing:0px;text-anchor:start;fill:#000000;fill-opacity:1;stroke:none;stroke-width:1px;stroke-linecap:butt;stroke-linejoin:miter;stroke-opacity:1"
     x="130.44247"
     y="369.20804"
     id="text14993-2-5-8"
     sodipodi:linespacing="115%"><tspan
       sodipodi:role="line"
       id="tspan14995-1-1-2"
       x="130.44247"
       y="369.20804">L<tspan
   style="font-size:64.99999762%;letter-spacing:0px;baseline-shift:sub"
   id="tspan15346">NT,1</tspan>+L<tspan
   style="font-size:64.99999762%;letter-spacing:0px;baseline-shift:sub"
   id="tspan15344">T,1</tspan>+L<tspan
   style="font-size:64.99999762%;letter-spacing:0px;baseline-shift:sub"
   id="tspan15342">NT,2</tspan>+L<tspan
   style="font-size:64.99999762%;letter-spacing:0px;baseline-shift:sub"
   id="tspan15340">T,2</tspan>+L<tspan
   style="font-size:64.99999762%;letter-spacing:0px;baseline-shift:sub"
   id="tspan15338">NT,3</tspan>+L<tspan
   style="font-size:64.99999762%;letter-spacing:0px;baseline-shift:sub"
   id="tspan15336">T,3</tspan>+L<tspan
   style="font-size:64.99999762%;letter-spacing:0px;baseline-shift:sub"
   id="tspan15334">NT,4</tspan></tspan></text>
  <text
     xml:space="preserve"
     style="font-style:normal;font-variant:normal;font-weight:bold;font-stretch:normal;font-size:10px;line-height:141%;font-family:Arial;-inkscape-font-specification:'Arial Bold';text-align:center;letter-spacing:0px;word-spacing:0px;text-anchor:middle;fill:#000000;fill-opacity:1;stroke:none;stroke-width:1px;stroke-linecap:butt;stroke-linejoin:miter;stroke-opacity:1;"
     x="215.25139"
     y="452.96255"
     id="text14993-2-5-8-7"
     sodipodi:linespacing="141%"><tspan
       sodipodi:role="line"
       id="tspan14995-1-1-2-6"
       x="215.25139"
       y="452.96255">If L<tspan
   style="font-size:64.99999762%;text-align:center;letter-spacing:0px;baseline-shift:sub;text-anchor:middle;line-height:141%;"
   id="tspan15346-1">NT,1</tspan>+L<tspan
   style="font-size:64.99999762%;baseline-shift:sub;line-height:141%;"
   id="tspan15407">NT,2</tspan>+L<tspan
   style="font-size:64.99999762%;baseline-shift:sub;line-height:141%;"
   id="tspan15409">NT,3</tspan>+L<tspan
   style="font-size:64.99999762%;baseline-shift:sub;line-height:141%;"
   id="tspan15411">NT,4</tspan>≤</tspan><tspan
       sodipodi:role="line"
       x="215.25139"
       y="464.46255"
       id="tspan15405">0.10*(L<tspan
   style="font-size:64.99999762%;baseline-shift:sub;line-height:141%;"
   id="tspan15425">NT,1</tspan>+L<tspan
   style="font-size:64.99999762%;baseline-shift:sub;line-height:141%;"
   id="tspan15423">T,1</tspan>+L<tspan
   style="font-size:64.99999762%;baseline-shift:sub;line-height:141%;"
   id="tspan15421">NT,2</tspan>+L<tspan
   style="font-size:64.99999762%;baseline-shift:sub;line-height:141%;"
   id="tspan15419">T,2</tspan>+L<tspan
   style="font-size:64.99999762%;baseline-shift:sub;line-height:141%;"
   id="tspan15417">NT,3</tspan>+L<tspan
   style="font-size:64.99999762%;baseline-shift:sub;line-height:141%;"
   id="tspan15415">T,3</tspan>+L<tspan
   style="font-size:64.99999762%;baseline-shift:sub;line-height:141%;"
   id="tspan15413">NT,4</tspan>)</tspan></text>
  <text
     xml:space="preserve"
     style="font-style:normal;font-variant:normal;font-weight:normal;font-stretch:normal;font-size:18px;line-height:125%;font-family:Arial;-inkscape-font-specification:Sans;text-align:start;letter-spacing:1.30999994px;word-spacing:0px;text-anchor:start;fill:#000000;fill-opacity:1;stroke:none"
     x="-64.52063"
     y="569.48907"
     id="text10634"
     sodipodi:linespacing="125%"><tspan
       sodipodi:role="line"
       id="tspan10638"
       x="-64.52063"
       y="569.48907" /></text>
  <text
     xml:space="preserve"
     style="font-style:normal;font-variant:normal;font-weight:bold;font-stretch:normal;font-size:10px;line-height:138%;font-family:Arial;-inkscape-font-specification:'Arial Bold';text-align:start;letter-spacing:0.38px;word-spacing:0px;text-anchor:start;fill:#000000;fill-opacity:1;stroke:none;stroke-width:1px;stroke-linecap:butt;stroke-linejoin:miter;stroke-opacity:1;"
     x="-0.95654446"
     y="219.23636"
     id="text15427"
     sodipodi:linespacing="138%"><tspan
       sodipodi:role="line"
       id="tspan15429"
       x="-0.95654446"
       y="219.23636">Figure A3.3 Radius case, where the distance &quot;D<tspan
   style="font-style:normal;font-variant:normal;font-weight:bold;font-stretch:normal;font-size:64.99999762%;font-family:Arial;-inkscape-font-specification:'Arial Bold';letter-spacing:0.38px;baseline-shift:sub;line-height:138%;"
   id="tspan15431">h</tspan>&quot; and &quot;L,&quot; and the area &quot;A<tspan
   style="font-style:normal;font-variant:normal;font-weight:bold;font-stretch:normal;font-size:64.99999762%;font-family:Arial;-inkscape-font-specification:'Arial Bold';letter-spacing:0.38px;baseline-shift:sub;line-height:138%;"
   id="tspan15433">e</tspan>,&quot; are</tspan><tspan
       sodipodi:role="line"
       x="-0.95654446"
       y="230.73636"
       id="tspan15435" /><tspan
       sodipodi:role="line"
       x="-0.95654446"
       y="242.23636"
       id="tspan15437">representative of the planar projections of visible product when viewed at an angle normal</tspan><tspan
       sodipodi:role="line"
       x="-0.95654446"
       y="253.73634"
       id="tspan15443" /><tspan
       sodipodi:role="line"
       x="-0.95654446"
       y="265.23633"
       id="tspan15449">to the transparent surface or opening.</tspan></text>
  <text
     xml:space="preserve"
     style="font-size:10px;font-style:normal;font-variant:normal;font-weight:bold;font-stretch:normal;text-align:start;line-height:137.99999952%;letter-spacing:0.38px;word-spacing:0px;text-anchor:start;fill:#000000;fill-opacity:1;stroke:none;font-family:Arial;-inkscape-font-specification:Arial Bold"
     x="0.60392427"
     y="542.81036"
     id="text15427-3"
     sodipodi:linespacing="138%"><tspan
       sodipodi:role="line"
       x="0.60392427"
       y="542.81036"
       id="tspan15449-8">Figure A3.4 Three-door vertical closed transparent display case, where the distance &quot;L&quot; is</tspan><tspan
       sodipodi:role="line"
       x="0.60392427"
       y="556.61035"
       id="tspan15509" /><tspan
       sodipodi:role="line"
       x="0.60392427"
       y="570.41034"
       id="tspan15511">the collective length of portions of the merchandiser through which product can be seen,</tspan><tspan
       sodipodi:role="line"
       x="0.60392427"
       y="584.21039"
       id="tspan15513" /><tspan
       sodipodi:role="line"
       x="0.60392427"
       y="598.01038"
       id="tspan15515">including the linear dimension of transparent (L<tspan
   style="font-size:65.00091553%;baseline-shift:sub"
   id="tspan15521">T,i</tspan>) and non-transparent (L<tspan
   style="font-size:65.00091553%;baseline-shift:sub"
   id="tspan15523">NT,i</tspan>) areas,</tspan><tspan
       sodipodi:role="line"
       x="0.60392427"
       y="611.81036"
       id="tspan15517" /><tspan
       sodipodi:role="line"
       x="0.60392427"
       y="625.61035"
       id="tspan15519">provided the total linear dimension of non-transparent areas are less than 5 inches.</tspan></text>
  <text
     xml:space="preserve"
     style="font-style:normal;font-variant:normal;font-weight:normal;font-stretch:normal;font-size:7.5px;line-height:114.99999762%;font-family:Arial;-inkscape-font-specification:Arial;text-align:start;letter-spacing:0px;word-spacing:0px;text-anchor:start;fill:#000000;fill-opacity:1;stroke:none;stroke-width:1px;stroke-linecap:butt;stroke-linejoin:miter;stroke-opacity:1"
     x="137.83479"
     y="407.38284"
     id="text15525-1"
     sodipodi:linespacing="115%"><tspan
       sodipodi:role="line"
       id="tspan15527-4"
       x="137.83479"
       y="407.38284">L<tspan
   style="font-size:64.99999762%;letter-spacing:0px;baseline-shift:sub"
   id="tspan15531-3">NT,2</tspan></tspan></text>
  <text
     xml:space="preserve"
     style="font-style:normal;font-variant:normal;font-weight:normal;font-stretch:normal;font-size:7.5px;line-height:114.99999762%;font-family:Arial;-inkscape-font-specification:Arial;text-align:start;letter-spacing:0px;word-spacing:0px;text-anchor:start;fill:#000000;fill-opacity:1;stroke:none;stroke-width:1px;stroke-linecap:butt;stroke-linejoin:miter;stroke-opacity:1"
     x="261.34271"
     y="407.36887"
     id="text15525-1-1"
     sodipodi:linespacing="115%"><tspan
       sodipodi:role="line"
       id="tspan15527-4-7"
       x="261.34271"
       y="407.36887">L<tspan
   style="font-size:64.99999762%;letter-spacing:0px;baseline-shift:sub"
   id="tspan15531-3-3">NT,3</tspan></tspan></text>
  <text
     xml:space="preserve"
     style="font-style:normal;font-variant:normal;font-weight:normal;font-stretch:normal;font-size:7.5px;line-height:114.99999762%;font-family:Arial;-inkscape-font-specification:Arial;text-align:start;letter-spacing:0px;word-spacing:0px;text-anchor:start;fill:#000000;fill-opacity:1;stroke:none;stroke-width:1px;stroke-linecap:butt;stroke-linejoin:miter;stroke-opacity:1"
     x="75.54657"
     y="396.77084"
     id="text15525-1-6"
     sodipodi:linespacing="115%"><tspan
       sodipodi:role="line"
       id="tspan15527-4-0"
       x="75.54657"
       y="396.77084">L<tspan
   style="font-size:64.99999762%;letter-spacing:0px;baseline-shift:sub"
   id="tspan15531-3-8">T,1</tspan></tspan></text>
  <text
     xml:space="preserve"
     style="font-style:normal;font-variant:normal;font-weight:normal;font-stretch:normal;font-size:7.5px;line-height:114.99999762%;font-family:Arial;-inkscape-font-specification:Arial;text-align:start;letter-spacing:0px;word-spacing:0px;text-anchor:start;fill:#000000;fill-opacity:1;stroke:none;stroke-width:1px;stroke-linecap:butt;stroke-linejoin:miter;stroke-opacity:1"
     x="200.84094"
     y="396.77087"
     id="text15525-1-6-7"
     sodipodi:linespacing="115%"><tspan
       sodipodi:role="line"
       id="tspan15527-4-0-3"
       x="200.84094"
       y="396.77087">L<tspan
   style="font-size:64.99999762%;letter-spacing:0px;baseline-shift:sub"
   id="tspan15531-3-8-8">T,2</tspan></tspan></text>
  <text
     xml:space="preserve"
     style="font-style:normal;font-variant:normal;font-weight:normal;font-stretch:normal;font-size:7.5px;line-height:114.99999762%;font-family:Arial;-inkscape-font-specification:Arial;text-align:start;letter-spacing:0px;word-spacing:0px;text-anchor:start;fill:#000000;fill-opacity:1;stroke:none;stroke-width:1px;stroke-linecap:butt;stroke-linejoin:miter;stroke-opacity:1"
     x="325.69861"
     y="397.43323"
     id="text15525-1-6-4"
     sodipodi:linespacing="115%"><tspan
       sodipodi:role="line"
       id="tspan15527-4-0-33"
       x="325.69861"
       y="397.43323">L<tspan
   style="font-size:64.99999762%;letter-spacing:0px;baseline-shift:sub"
   id="tspan15531-3-8-9">T,3</tspan></tspan></text>
  <text
     sodipodi:linespacing="115%"
     id="text4246"
     y="407.38284"
     x="19.834793"
     style="font-style:normal;font-variant:normal;font-weight:normal;font-stretch:normal;font-size:7.5px;line-height:114.99999762%;font-family:Arial;-inkscape-font-specification:Arial;text-align:start;letter-spacing:0px;word-spacing:0px;text-anchor:start;fill:#000000;fill-opacity:1;stroke:none;stroke-width:1px;stroke-linecap:butt;stroke-linejoin:miter;stroke-opacity:1"
     xml:space="preserve"><tspan
       y="407.38284"
       x="19.834793"
       id="tspan4248"
       sodipodi:role="line">L<tspan
   id="tspan4250"
   style="font-size:64.99999762%;letter-spacing:0px;baseline-shift:sub">NT,1</tspan></tspan></text>
  <text
     sodipodi:linespacing="115%"
     id="text4252"
     y="407.36887"
     x="379.34271"
     style="font-style:normal;font-variant:normal;font-weight:normal;font-stretch:normal;font-size:7.5px;line-height:114.99999762%;font-family:Arial;-inkscape-font-specification:Arial;text-align:start;letter-spacing:0px;word-spacing:0px;text-anchor:start;fill:#000000;fill-opacity:1;stroke:none;stroke-width:1px;stroke-linecap:butt;stroke-linejoin:miter;stroke-opacity:1"
     xml:space="preserve"><tspan
       y="407.36887"
       x="379.34271"
       id="tspan4254"
       sodipodi:role="line">L<tspan
   id="tspan4256"
   style="font-size:64.99999762%;letter-spacing:0px;baseline-shift:sub">NT,4</tspan></tspan></text>
</svg>
