<?xml version="1.0" encoding="UTF-8" standalone="no"?>
<!-- Created with Inkscape (http://www.inkscape.org/) -->

<svg
   xmlns:dc="http://purl.org/dc/elements/1.1/"
   xmlns:cc="http://creativecommons.org/ns#"
   xmlns:rdf="http://www.w3.org/1999/02/22-rdf-syntax-ns#"
   xmlns:svg="http://www.w3.org/2000/svg"
   xmlns="http://www.w3.org/2000/svg"
   xmlns:sodipodi="http://sodipodi.sourceforge.net/DTD/sodipodi-0.dtd"
   xmlns:inkscape="http://www.inkscape.org/namespaces/inkscape"
   id="svg13133"
   version="1.1"
   inkscape:version="0.48.2 r9819"
   width="434"
   height="540"
   viewBox="0 0 434 540"
   sodipodi:docname="er21de99.001.svg">
  <title id="title_er21de99.001"></title>
  <desc id="desc_er21de99.001"></desc>
  <metadata
     id="metadata13139">
    <rdf:RDF>
      <cc:Work
         rdf:about="">
        <dc:format>image/svg+xml</dc:format>
        <dc:type
           rdf:resource="http://purl.org/dc/dcmitype/StillImage" />
        <dc:title></dc:title>
      </cc:Work>
    </rdf:RDF>
  </metadata>
  <defs
     id="defs13137" />
  <sodipodi:namedview
     pagecolor="#ffffff"
     bordercolor="#666666"
     borderopacity="1"
     objecttolerance="10"
     gridtolerance="10"
     guidetolerance="10"
     inkscape:pageopacity="0"
     inkscape:pageshadow="2"
     inkscape:window-width="1280"
     inkscape:window-height="676"
     id="namedview13135"
     showgrid="false"
     inkscape:zoom="1.2557692"
     inkscape:cx="216.10765"
     inkscape:cy="428.37346"
     inkscape:window-x="0"
     inkscape:window-y="0"
     inkscape:window-maximized="0"
     inkscape:current-layer="svg13133" />
  <path
     style="fill:none;stroke:#000000;stroke-width:1;stroke-linecap:butt;stroke-linejoin:miter;stroke-miterlimit:4;stroke-dasharray:none;stroke-opacity:1"
     d="m 366.40834,124.49406 44.1361,0.002"
     id="path14359-1-7-5-3-0-73-1-9"
     inkscape:connector-curvature="0"
     sodipodi:nodetypes="cc" />
  <path
     style="fill:none;stroke:#000000;stroke-width:1;stroke-linecap:butt;stroke-linejoin:miter;stroke-miterlimit:4;stroke-dasharray:none;stroke-opacity:1"
     d="m 186.90871,47.458018 65.04319,0.002"
     id="path14359-1-7-5-3-0-73-1-9-0"
     inkscape:connector-curvature="0"
     sodipodi:nodetypes="cc" />
  <path
     style="fill:none;stroke:#000000;stroke-width:1;stroke-linecap:butt;stroke-linejoin:miter;stroke-miterlimit:4;stroke-dasharray:none;stroke-opacity:1"
     d="m 221.65543,230.25854 100.55852,0.002"
     id="path14359-1-7-5-3-0-73-1-9-4"
     inkscape:connector-curvature="0"
     sodipodi:nodetypes="cc" />
  <path
     style="fill:none;stroke:#000000;stroke-width:1;stroke-linecap:butt;stroke-linejoin:miter;stroke-miterlimit:4;stroke-dasharray:none;stroke-opacity:1"
     d="m 380.35072,306.58172 42.56002,0.002"
     id="path14359-1-7-5-3-0-73-1-9-46"
     inkscape:connector-curvature="0"
     sodipodi:nodetypes="cc" />
  <path
     style="fill:none;stroke:#000000;stroke-width:1;stroke-linecap:butt;stroke-linejoin:miter;stroke-miterlimit:4;stroke-dasharray:none;stroke-opacity:1"
     d="m 230.19509,429.33928 93.26423,0.002"
     id="path14359-1-7-5-3-0-73-1-9-49"
     inkscape:connector-curvature="0"
     sodipodi:nodetypes="cc" />
  <path
     style="fill:none;stroke:#000000;stroke-width:1;stroke-linecap:butt;stroke-linejoin:miter;stroke-miterlimit:4;stroke-dasharray:none;stroke-opacity:1"
     d="m 373.76807,518.64986 43.27166,0.002"
     id="path14359-1-7-5-3-0-73-1-9-6"
     inkscape:connector-curvature="0"
     sodipodi:nodetypes="cc" />
  <path
     style="fill:none;stroke:#000000;stroke-width:5;stroke-linecap:butt;stroke-linejoin:miter;stroke-miterlimit:4;stroke-dasharray:none;stroke-opacity:1"
     d="m 16.559428,39.411946 85.780032,0.002"
     id="path14359-1-7-5-3-0-73-1-9-3"
     inkscape:connector-curvature="0"
     sodipodi:nodetypes="cc" />
  <path
     style="fill:none;stroke:#000000;stroke-width:5;stroke-linecap:butt;stroke-linejoin:miter;stroke-miterlimit:4;stroke-dasharray:none;stroke-opacity:1"
     d="m 16.559428,189.61331 85.780032,0.002"
     id="path14359-1-7-5-3-0-73-1-9-32"
     inkscape:connector-curvature="0"
     sodipodi:nodetypes="cc" />
  <path
     style="fill:none;stroke:#000000;stroke-width:1;stroke-linecap:butt;stroke-linejoin:miter;stroke-miterlimit:4;stroke-dasharray:none;stroke-opacity:1"
     d="m 62.858376,79.701669 1.512635,78.206861 -21.204897,0 -1.512636,-78.206861 z"
     id="path14359-1-7-5-3-0-73-1-9-2-6"
     inkscape:connector-curvature="0"
     sodipodi:nodetypes="ccccc" />
  <path
     style="fill:none;stroke:#000000;stroke-width:2;stroke-linecap:butt;stroke-linejoin:round;stroke-miterlimit:4;stroke-dasharray:none;stroke-opacity:1"
     d="m 62.856375,73.088938 0.002,-4.494594 -22.140419,0 -0.002,4.494594"
     id="path14359-1-7-5-3-0-73-1-9-2-64"
     inkscape:connector-curvature="0"
     sodipodi:nodetypes="cccc" />
  <path
     style="fill:none;stroke:#000000;stroke-width:2;stroke-linecap:butt;stroke-linejoin:round;stroke-miterlimit:4;stroke-dasharray:none;stroke-opacity:1"
     d="m 76.238147,158.49579 4.494594,0.002 0,-78.12455 -4.494594,-0.002"
     id="path14359-1-7-5-3-0-73-1-9-2-64-9"
     inkscape:connector-curvature="0"
     sodipodi:nodetypes="cccc" />
  <path
     style="fill:none;stroke:#000000;stroke-width:1;stroke-linecap:butt;stroke-linejoin:miter;stroke-miterlimit:4;stroke-dasharray:none;stroke-opacity:1"
     d="m 162.17932,238.41533 -0.002,114.97271 -155.6978343,0 0.002,-114.97271 z"
     id="path14359-1-7-5-3-0-73-1-9-2-2"
     inkscape:connector-curvature="0"
     sodipodi:nodetypes="ccccc" />
  <path
     style="fill:none;stroke:#000000;stroke-width:2;stroke-linecap:butt;stroke-linejoin:round;stroke-miterlimit:4;stroke-dasharray:none;stroke-opacity:1"
     d="m 124.26426,276.54768 0.002,-7.15325 -34.10439,0 -0.002,7.15325"
     id="path14359-1-7-5-3-0-73-1-9-2-64-98"
     inkscape:connector-curvature="0"
     sodipodi:nodetypes="cccc" />
  <path
     style="fill:none;stroke:#000000;stroke-width:2;stroke-linecap:butt;stroke-linejoin:round;stroke-miterlimit:4;stroke-dasharray:none;stroke-opacity:1"
     d="m 136.98137,324.06861 4.4946,0.002 0,-37.74613 -4.4946,-0.002"
     id="path14359-1-7-5-3-0-73-1-9-2-64-9-5"
     inkscape:connector-curvature="0"
     sodipodi:nodetypes="cccc" />
  <path
     style="fill:none;stroke:#000000;stroke-width:1;stroke-linecap:butt;stroke-linejoin:miter;stroke-miterlimit:4;stroke-dasharray:none;stroke-opacity:1"
     d="m 12.909961,327.25489 8.803337,1.2e-4 m 5.890307,8e-5 6.236799,8e-5 m 8.084737,1.1e-4 3.2339,5e-5 m 11.43413,1.5e-4 5.428324,8e-5 m 8.315727,1.1e-4 5.428325,7e-5 m 6.467792,9e-5 2.540919,3e-5 m 25.524672,3.5e-4 5.89031,8e-5 m 8.43123,1.1e-4 23.21474,3.2e-4 m 2.19443,3e-5 1.03947,10e-6 m 2.19443,3e-5 7.18638,10e-5"
     id="path14359-1-7-5-3-0-73-1-9-2-4"
     inkscape:connector-curvature="0"
     sodipodi:nodetypes="cccccccccccccccccccc" />
  <path
     style="fill:none;stroke:#000000;stroke-width:1;stroke-linecap:butt;stroke-linejoin:miter;stroke-miterlimit:4;stroke-dasharray:none;stroke-opacity:1"
     d="m 12.909961,326.33092 147.539959,0.002"
     id="path14359-1-7-5-3-0-73-1-9-2-66"
     inkscape:connector-curvature="0"
     sodipodi:nodetypes="cc" />
  <path
     style="fill:none;stroke:#000000;stroke-width:1;stroke-linecap:butt;stroke-linejoin:round;stroke-miterlimit:4;stroke-dasharray:none;stroke-opacity:1"
     d="m 95.860896,326.24204 26.797134,-41.3989 -66.179359,0 27.024125,41.3989 z"
     id="path14359-1-7-5-3-0-73-1-9-2-7"
     inkscape:connector-curvature="0"
     sodipodi:nodetypes="ccccc" />
  <path
     style="fill:none;fill-rule:evenodd;stroke:#000000;stroke-width:1px;stroke-linecap:round;stroke-linejoin:round;stroke-opacity:1"
     d="m 88.645246,326.31048 c 0.293878,-0.51053 -0.257559,-1.21817 0,-1.73329 0.710437,-1.42087 1.189265,-3.70108 0,-4.89034 -0.08799,-0.088 -0.05386,-0.60295 -0.123806,-0.74284 -0.334574,-0.66915 0.644393,-1.70792 0.309516,-2.0428 -1.458674,-1.45867 -1.361869,-5.07623 -1.361869,-7.73789 0,-1.3798 0.618926,-6.43803 -0.123806,-7.18076 -0.207862,-0.20786 -1.423771,-1.23888 -1.423771,-1.42377 0,-0.0928 -1.4593,-0.84027 -1.857093,-1.23806 -0.665775,-0.66578 -3.052212,-0.57609 -3.528477,-1.05236 -1.091172,-1.09117 -4.138625,-1.85265 -5.633183,-2.59993 -0.446308,-0.22315 -1.827939,0.46248 -2.228512,0.0619 -0.2643,-0.2643 -0.762353,-0.25737 -1.114256,-0.43332 -1.552225,-0.77612 -3.963194,-1.17756 -5.19986,-2.41423 -0.357311,-0.35731 -0.866771,-0.30989 -0.99045,-0.68093"
     id="path13907"
     inkscape:connector-curvature="0" />
  <path
     style="fill:none;fill-rule:evenodd;stroke:#000000;stroke-width:1px;stroke-linecap:round;stroke-linejoin:round;stroke-opacity:1"
     d="m 87.778603,305.82055 c 0.953853,-0.60278 0.176528,-1.77682 0.557128,-2.53802 0.213781,-0.42757 0.764584,-0.45507 1.052353,-0.74284 0.388718,-0.38872 0.5868,-0.83441 0.990449,-1.23806 0.230755,-0.23076 0.240055,-0.90588 0.371419,-1.29997 0.50273,-1.50819 1.690126,-3.42341 2.661833,-4.39512"
     id="path13909"
     inkscape:connector-curvature="0" />
  <path
     style="fill:none;fill-rule:evenodd;stroke:#000000;stroke-width:1px;stroke-linecap:round;stroke-linejoin:round;stroke-opacity:1"
     d="m 91.059467,299.75405 c 1.645135,0.4674 3.41589,-0.63025 4.457024,-1.67138 0.394605,-0.39461 0.521162,-1.18913 1.114256,-1.48568 2.249836,-1.12492 3.900673,-4.02526 5.014153,-6.25221 0.30799,-0.61598 0.95741,-1.20084 1.17616,-1.8571 0.47893,-1.43679 2.40435,-1.04248 2.59993,-1.23806 0.28854,-0.28854 0.28537,-1.22599 0.68093,-1.42377 0.4059,-0.20295 1.39041,-0.33805 1.48568,-0.43332"
     id="path13911"
     inkscape:connector-curvature="0" />
  <path
     style="fill:none;fill-rule:evenodd;stroke:#000000;stroke-width:1px;stroke-linecap:round;stroke-linejoin:round;stroke-opacity:1"
     d="m 86.354832,300.8064 c 0.412128,-0.1129 0.91191,-0.58576 1.114255,-0.99045 0.170311,-0.34062 0.06527,-0.75293 0.18571,-1.11425 0.771244,-2.31374 0.877169,-4.54307 3.218961,-5.32367"
     id="path13913"
     inkscape:connector-curvature="0" />
  <path
     style="fill:none;fill-rule:evenodd;stroke:#000000;stroke-width:1px;stroke-linecap:round;stroke-linejoin:round;stroke-opacity:1"
     d="m 84.745351,299.56834 c -0.360758,-0.60387 -0.896643,-1.08235 -1.361869,-1.54758 -0.223097,-0.2231 -0.09028,-0.83311 -0.371418,-1.11425 -0.221859,-0.22186 -0.685967,-0.56216 -0.866644,-0.74284 -0.275979,-0.27598 0.804741,-0.76507 0.804741,-0.92855 0,-0.30388 -0.433458,-1.17602 -0.247613,-1.36187 1.229758,-1.22975 0.337327,-1.35558 0.804741,-2.29041 0.246262,-0.49253 0.705458,-0.89117 1.052352,-1.23806 0.254435,-0.25444 0.174565,-0.8555 0.371419,-1.05236 0.773068,-0.77306 1.497133,-1.55903 2.166609,-2.22851 0.474971,-0.47497 0.969654,-1.78826 1.361868,-1.91899"
     id="path13915"
     inkscape:connector-curvature="0" />
  <path
     style="fill:none;fill-rule:evenodd;stroke:#000000;stroke-width:1px;stroke-linecap:round;stroke-linejoin:round;stroke-opacity:1"
     d="m 82.516839,296.7827 c -0.17229,-0.27764 -0.468113,-0.63643 -0.80474,-0.80474 -0.568164,-0.28408 -2.106727,-0.62307 -2.352318,-1.11426 -0.469513,-0.93902 -2.945595,-2.92752 -4.147508,-3.52847 -0.593977,-0.29699 -1.966425,-0.88512 -2.104706,-1.29997"
     id="path13917"
     inkscape:connector-curvature="0" />
  <path
     style="fill:none;fill-rule:evenodd;stroke:#000000;stroke-width:1px;stroke-linecap:round;stroke-linejoin:round;stroke-opacity:1"
     d="m 82.578742,295.35893 c 0.326445,-0.36087 0.397896,-0.84912 0.247613,-1.29997 -0.190442,-0.57132 -0.897461,-0.71175 -1.176159,-0.99045 -0.09065,-0.0906 -0.116464,-0.54244 -0.18571,-0.68093 -0.510306,-1.02061 0.349443,-3.16108 0.0619,-4.0237"
     id="path13919"
     inkscape:connector-curvature="0" />
  <path
     style="fill:none;fill-rule:evenodd;stroke:#000000;stroke-width:1px;stroke-linecap:round;stroke-linejoin:round;stroke-opacity:1"
     d="m 81.34068,290.84 c 0.295676,-2.66648 -3.952327,-0.52364 -3.157058,-2.90944"
     id="path13921"
     inkscape:connector-curvature="0" />
  <path
     style="fill:none;fill-rule:evenodd;stroke:#000000;stroke-width:1px;stroke-linecap:round;stroke-linejoin:round;stroke-opacity:1"
     d="m 76.140819,295.91606 c -0.790899,-0.53807 -1.775266,-1.09434 -2.290415,-1.60948 -0.19498,-0.19498 -0.743258,-0.12423 -0.990449,-0.37142 -1.089282,-1.08928 -0.396713,-1.919 -2.971349,-1.919 -0.366031,0 -0.948388,-1.03251 -0.680935,-1.29996"
     id="path13923"
     inkscape:connector-curvature="0" />
  <path
     style="fill:none;fill-rule:evenodd;stroke:#000000;stroke-width:1px;stroke-linecap:round;stroke-linejoin:round;stroke-opacity:1"
     d="m 71.37428,294.98751 c -0.827835,-0.0967 -0.857567,-1.89231 -1.176159,-2.10471"
     id="path13925"
     inkscape:connector-curvature="0" />
  <path
     style="fill:none;fill-rule:evenodd;stroke:#000000;stroke-width:1px;stroke-linecap:round;stroke-linejoin:round;stroke-opacity:1"
     d="m 76.264625,296.28748 c -0.609764,0.0202 -1.505955,-0.36128 -2.104705,-0.0619 -0.442992,0.2215 -1.571175,0.0236 -1.918996,0.37142 -0.117599,0.1176 -0.562705,0.83848 -0.742838,0.92855 -0.621887,0.31094 -2.076774,-0.0619 -2.785639,-0.0619 -1.187592,0 -2.290415,1.2506 -2.290415,0.99045"
     id="path13927"
     inkscape:connector-curvature="0" />
  <path
     style="fill:none;fill-rule:evenodd;stroke:#000000;stroke-width:1px;stroke-linecap:round;stroke-linejoin:round;stroke-opacity:1"
     d="m 71.498086,295.29703 c -2.023677,0.66972 -1.048568,0.4371 -2.042802,-0.55713"
     id="path13929"
     inkscape:connector-curvature="0" />
  <path
     style="fill:none;fill-rule:evenodd;stroke:#000000;stroke-width:1px;stroke-linecap:round;stroke-linejoin:round;stroke-opacity:1"
     d="m 66.917257,293.37803 c -0.52241,-0.0968 -0.612632,0.18358 -0.99045,0.30952"
     id="path13931"
     inkscape:connector-curvature="0" />
  <path
     style="fill:none;fill-rule:evenodd;stroke:#000000;stroke-width:1px;stroke-linecap:round;stroke-linejoin:round;stroke-opacity:1"
     d="m 86.973863,326.06287 c -0.839983,-0.46174 -1.045065,-1.6641 -1.547578,-2.16661 -0.465248,-0.46525 0.891317,-0.69349 0.619031,-1.23806 -0.339591,-0.67918 -2.289667,-4.02445 -2.971349,-3.34277 -0.308194,0.30819 -0.512361,0.69807 -0.866644,1.05235"
     id="path13933"
     inkscape:connector-curvature="0" />
  <path
     style="fill:none;fill-rule:evenodd;stroke:#000000;stroke-width:1px;stroke-linecap:round;stroke-linejoin:round;stroke-opacity:1"
     d="m 83.383482,319.25353 c -0.861618,-0.53338 -0.877609,-1.64592 -1.671383,-2.0428 -0.865965,-0.43299 -2.476125,0.48438 -2.476125,-0.86665"
     id="path13935"
     inkscape:connector-curvature="0" />
  <path
     style="fill:none;fill-rule:evenodd;stroke:#000000;stroke-width:1px;stroke-linecap:round;stroke-linejoin:round;stroke-opacity:1"
     d="m 83.13587,318.13927 c -0.46653,-0.70033 -0.860002,-2.87039 -1.671384,-2.59993"
     id="path13937"
     inkscape:connector-curvature="0" />
  <path
     style="fill:none;fill-rule:evenodd;stroke:#000000;stroke-width:1px;stroke-linecap:round;stroke-linejoin:round;stroke-opacity:1"
     d="m 87.654797,325.87716 c -0.463838,-0.68129 -0.696514,-1.51683 -1.052353,-2.22851 -0.300938,-0.60188 0.178983,-1.4305 -0.309516,-1.919 -0.696087,-0.69609 -2.289089,-2.72771 -2.042802,-3.46657"
     id="path13939"
     inkscape:connector-curvature="0" />
  <path
     style="fill:none;fill-rule:evenodd;stroke:#000000;stroke-width:1px;stroke-linecap:round;stroke-linejoin:round;stroke-opacity:1"
     d="m 88.211925,325.81526 c -0.150315,-0.26578 -0.06144,-0.6181 -0.18571,-0.86665 -0.829255,-1.65851 1.247105,-1.89186 0.866644,-3.03325"
     id="path13941"
     inkscape:connector-curvature="0" />
  <path
     style="fill:none;fill-rule:evenodd;stroke:#000000;stroke-width:1px;stroke-linecap:round;stroke-linejoin:round;stroke-opacity:1"
     d="m 88.273828,323.33913 c -0.994788,-0.81321 -1.551189,-1.97729 -0.619031,-2.90944 0.279212,-0.27922 0.708237,-0.0819 0.866643,-0.55713"
     id="path13943"
     inkscape:connector-curvature="0" />
  <path
     style="fill:none;fill-rule:evenodd;stroke:#000000;stroke-width:1px;stroke-linecap:round;stroke-linejoin:round;stroke-opacity:1"
     d="m 87.097669,320.92491 c -0.446804,-0.15548 -0.441801,-0.5037 -0.680934,-0.74284 -0.315835,-0.31583 0.230505,-1.25516 -0.0619,-1.54757 -0.483129,-0.48313 -1.675402,0.10049 -2.290415,-0.30952"
     id="path13945"
     inkscape:connector-curvature="0" />
  <path
     style="fill:none;fill-rule:evenodd;stroke:#000000;stroke-width:1px;stroke-linecap:round;stroke-linejoin:round;stroke-opacity:1"
     d="m 88.459537,317.64405 c -0.321372,-0.38389 -0.612076,-0.67398 -0.866643,-0.92855 -0.186696,-0.1867 0.445881,-0.96533 0.247612,-1.36187 -0.294021,-0.58804 -0.553234,-1.54368 -0.928547,-1.91899 -0.567013,-0.56702 -1.934757,-0.54137 -2.414221,-0.0619 -0.632984,0.63299 0.467534,2.94366 0.742838,3.21896"
     id="path13947"
     inkscape:connector-curvature="0" />
  <path
     style="fill:none;fill-rule:evenodd;stroke:#000000;stroke-width:1px;stroke-linecap:round;stroke-linejoin:round;stroke-opacity:1"
     d="m 86.72625,313.24893 c -1.092622,-0.63526 -2.437039,0.66952 -3.528477,0.1238 -0.334646,-0.16732 -0.843732,-0.10089 -1.114256,-0.37142 -0.232372,-0.23237 -0.361447,-0.61404 -0.619031,-0.74283 -0.561291,-0.28065 -1.747735,0.23316 -2.166608,-0.18571 -1.801045,-1.80105 -5.030671,-3.4831 -6.933148,-5.38557"
     id="path13949"
     inkscape:connector-curvature="0" />
  <path
     style="fill:none;fill-rule:evenodd;stroke:#000000;stroke-width:1px;stroke-linecap:round;stroke-linejoin:round;stroke-opacity:1"
     d="m 80.102618,312.25848 c -1.273908,-0.0455 -3.00998,-1.94227 -4.147508,-0.80474"
     id="path13951"
     inkscape:connector-curvature="0" />
  <path
     style="fill:none;fill-rule:evenodd;stroke:#000000;stroke-width:1px;stroke-linecap:round;stroke-linejoin:round;stroke-opacity:1"
     d="m 78.121719,311.08232 c -0.529509,-0.34244 -0.801812,-0.92562 -1.176159,-1.29997 -0.596441,-0.59644 1.074071,-1.64966 0.557127,-2.16661 -0.37364,-0.37364 -0.722605,-0.90831 -1.114255,-1.29996 -0.710588,-0.71059 0.538133,-1.21661 -1.114256,-2.0428 -0.373732,-0.18687 -0.603155,-0.13969 -0.804741,0.0619"
     id="path13953"
     inkscape:connector-curvature="0" />
  <path
     style="fill:none;fill-rule:evenodd;stroke:#000000;stroke-width:1px;stroke-linecap:round;stroke-linejoin:round;stroke-opacity:1"
     d="m 87.53099,313.74415 c -0.489131,-0.65656 -0.66142,-1.21855 -1.176158,-1.73329 -0.989924,-0.98992 -2.368696,-0.94492 -3.157059,-1.73328 -0.02263,-0.0226 0.22493,-2.2512 -0.309515,-2.78564 -0.312311,-0.31231 -1.812823,0.0443 -2.599931,-0.74284 -0.105937,-0.10594 0.264888,-1.0178 0.123806,-1.29996 -0.25748,-0.51497 -0.639616,-0.72211 -0.928546,-1.29997 -0.218949,-0.4379 -0.09172,-1.07989 -0.247613,-1.54758 -0.123396,-0.37019 -0.495007,-0.7424 -0.680934,-1.11425 -0.355421,-0.71085 0.640585,-1.6642 -0.680934,-2.10471"
     id="path13955"
     inkscape:connector-curvature="0" />
  <path
     style="fill:none;fill-rule:evenodd;stroke:#000000;stroke-width:1px;stroke-linecap:round;stroke-linejoin:round;stroke-opacity:1"
     d="m 79.916909,305.38723 c -0.478948,-0.57132 -0.80269,-1.35982 -1.299966,-1.85709 -0.175392,-0.17539 0.113489,-0.81506 -0.0619,-0.99045 -1.053379,-1.05338 -3.650659,-2.35232 -5.076054,-2.35232"
     id="path13957"
     inkscape:connector-curvature="0" />
  <path
     style="fill:none;fill-rule:evenodd;stroke:#000000;stroke-width:1px;stroke-linecap:round;stroke-linejoin:round;stroke-opacity:1"
     d="m 78.059815,302.41588 c -0.46255,-0.38614 -1.491028,-0.79938 -1.918996,-0.37142"
     id="path13959"
     inkscape:connector-curvature="0" />
  <path
     style="fill:none;fill-rule:evenodd;stroke:#000000;stroke-width:1px;stroke-linecap:round;stroke-linejoin:round;stroke-opacity:1"
     d="m 90.749952,326.18668 c 0.167169,-2.13057 0.906345,-2.51583 2.042802,-3.65229 0.239951,-0.23995 -1.557033,-0.98099 -0.557128,-1.9809 0.312036,-0.31203 2.769126,1.29034 3.77609,0.61903"
     id="path13961"
     inkscape:connector-curvature="0" />
  <path
     style="fill:none;fill-rule:evenodd;stroke:#000000;stroke-width:1px;stroke-linecap:round;stroke-linejoin:round;stroke-opacity:1"
     d="m 89.326181,326.00097 c -0.636262,-0.92688 1.023668,-2.5335 0.80474,-2.97135 -0.103293,-0.20659 -0.801518,-1.4889 -0.371419,-1.919 0.429741,-0.42974 1.791116,-1.43192 1.176159,-2.66183 -0.480257,-0.96052 -2.489571,-1.90555 -1.114256,-3.28087"
     id="path13963"
     inkscape:connector-curvature="0" />
  <path
     style="fill:none;fill-rule:evenodd;stroke:#000000;stroke-width:1px;stroke-linecap:round;stroke-linejoin:round;stroke-opacity:1"
     d="m 89.388084,320.92491 c -0.0067,-1.0445 0.942061,-0.90719 1.176159,-1.60948"
     id="path13965"
     inkscape:connector-curvature="0" />
  <path
     style="fill:none;fill-rule:evenodd;stroke:#000000;stroke-width:1px;stroke-linecap:round;stroke-linejoin:round;stroke-opacity:1"
     d="m 89.821405,326.12477 c -0.255059,-1.87789 1.12297,-2.43165 1.671384,-3.52847 0.396027,-0.79206 -0.01959,-1.46608 0.680934,-2.16661 0.399762,-0.39977 1.35996,0.37332 1.79519,-0.0619 0.279806,-0.2798 0.335278,-1.01621 0.619031,-1.29996 0.09958,-0.0996 2.530297,-0.61903 2.661834,-0.61903"
     id="path13967"
     inkscape:connector-curvature="0" />
  <path
     style="fill:none;fill-rule:evenodd;stroke:#000000;stroke-width:1px;stroke-linecap:round;stroke-linejoin:round;stroke-opacity:1"
     d="m 93.040367,320.12017 c 1.260459,-0.32182 -0.0066,-1.54096 0.433322,-1.9809 0.251915,-0.25191 0.926487,0.064 1.114255,-0.1238 0.925107,-0.92511 1.231969,-1.75157 0.866644,-2.84755"
     id="path13969"
     inkscape:connector-curvature="0" />
  <path
     style="fill:none;fill-rule:evenodd;stroke:#000000;stroke-width:1px;stroke-linecap:round;stroke-linejoin:round;stroke-opacity:1"
     d="m 94.959363,317.82976 c 0.515331,-0.32857 1.028824,-0.96692 1.485675,-1.42378 0.300236,-0.30023 1.172333,-0.12125 1.547577,-0.37141 0.520271,-0.34685 1.147866,-0.96216 1.485675,-1.29997 0.72187,-0.72187 -0.621043,-2.35232 0.495225,-2.35232"
     id="path13971"
     inkscape:connector-curvature="0" />
  <path
     style="fill:none;fill-rule:evenodd;stroke:#000000;stroke-width:1px;stroke-linecap:round;stroke-linejoin:round;stroke-opacity:1"
     d="m 99.787805,314.36318 c 0.472695,-0.13278 0.658685,-0.0487 0.990445,0.0619"
     id="path13973"
     inkscape:connector-curvature="0" />
  <path
     style="fill:none;fill-rule:evenodd;stroke:#000000;stroke-width:1px;stroke-linecap:round;stroke-linejoin:round;stroke-opacity:1"
     d="m 99.849708,312.7537 c 1.792082,-0.13921 1.019062,-1.23806 2.538032,-1.23806"
     id="path13975"
     inkscape:connector-curvature="0" />
  <path
     style="fill:none;fill-rule:evenodd;stroke:#000000;stroke-width:1px;stroke-linecap:round;stroke-linejoin:round;stroke-opacity:1"
     d="m 91.121371,319.19162 c -0.22231,-2.15171 0.937765,-1.49489 1.671383,-2.22851 0.377416,-0.37741 -0.501442,-0.98423 -0.185709,-1.29996 0.480048,-0.48005 1.174384,-0.98868 1.671384,-1.48568 0.539558,-0.53956 -0.192688,-2.03582 0.247612,-2.47612 0.720622,-0.72062 0.631749,-2.05552 1.299966,-2.72374 0.686773,-0.68677 1.577909,-2.25925 2.228511,-2.47612 0.450453,-0.15015 2.621342,0.78333 2.847542,0.55713 1.21243,-1.21243 3.32311,-1.8571 5.32367,-1.8571 0.52349,0 0.67475,-1.1019 0.92854,-1.60948 0.19255,-0.38509 0.89079,-0.27175 1.17616,-0.55713 0.40317,-0.40316 0.83871,-1.01839 1.29997,-0.55712"
     id="path13977"
     inkscape:connector-curvature="0" />
  <path
     style="fill:none;fill-rule:evenodd;stroke:#000000;stroke-width:1px;stroke-linecap:round;stroke-linejoin:round;stroke-opacity:1"
     d="m 93.968913,314.48699 c 1.03952,-0.59212 1.310032,-1.37194 1.918997,-1.9809 0.539875,-0.53988 1.306195,-0.43955 1.733287,-0.86664 0.46709,-0.46709 0.878666,-1.18819 1.423771,-1.73329 0.169647,-0.16965 0.511287,-0.26368 0.680934,-0.43332 0.162344,-0.16235 1.422258,-5.1e-4 1.609478,0.0619"
     id="path13979"
     inkscape:connector-curvature="0" />
  <path
     style="fill:none;fill-rule:evenodd;stroke:#000000;stroke-width:1px;stroke-linecap:round;stroke-linejoin:round;stroke-opacity:1"
     d="m 100.15922,307.05862 c 1.61373,0.32172 1.9016,2.17821 3.59038,1.05235"
     id="path13981"
     inkscape:connector-curvature="0" />
  <path
     style="fill:none;fill-rule:evenodd;stroke:#000000;stroke-width:1px;stroke-linecap:round;stroke-linejoin:round;stroke-opacity:1"
     d="m 101.7687,306.19197 c 1.11504,-0.34961 1.43699,-1.88352 1.9809,-2.97135 0.22379,-0.44756 0.89722,-0.55637 1.11426,-0.99045 0.50602,-1.01203 0.64862,-2.55418 2.0428,-1.85709 0.25034,0.12517 0.49333,-0.002 0.68094,0.18571"
     id="path13983"
     inkscape:connector-curvature="0" />
  <path
     style="fill:none;fill-rule:evenodd;stroke:#000000;stroke-width:1px;stroke-linecap:round;stroke-linejoin:round;stroke-opacity:1"
     d="m 88.830956,316.52979 c -0.249805,-1.9457 0.796644,-3.07896 1.547577,-4.58083 0.172768,-0.34553 -0.187867,-1.60732 0,-1.79519 0.375948,-0.37595 0.989304,-0.61846 1.485675,-0.86664 0.299937,-0.14997 0.329047,-0.54952 0.619031,-0.74284 0.516362,-0.34424 4.090902,-3.11105 4.147508,-3.28086 0.223778,-0.67134 1.063836,-1.37336 1.299965,-1.60948 0.282222,-0.28223 0.806214,-0.31099 1.114256,-0.61904"
     id="path13985"
     inkscape:connector-curvature="0" />
  <path
     style="fill:none;fill-rule:evenodd;stroke:#000000;stroke-width:1px;stroke-linecap:round;stroke-linejoin:round;stroke-opacity:1"
     d="m 97.992615,306.43958 c 2.183765,-0.53758 0.194951,-1.98398 2.414225,-2.72373"
     id="path13987"
     inkscape:connector-curvature="0" />
  <path
     style="fill:none;fill-rule:evenodd;stroke:#000000;stroke-width:1px;stroke-linecap:round;stroke-linejoin:round;stroke-opacity:1"
     d="m 87.7167,312.01086 c 0.08254,-0.0206 0.171516,-0.0238 0.247612,-0.0619 0.310599,-0.1553 0.715178,-0.96279 0.928547,-1.17616 0.400024,-0.40002 1.312088,-0.56925 1.671384,-0.92854 0.430113,-0.43012 -0.669952,-1.95544 0.123806,-2.35232 0.936707,-0.46836 2.151396,-0.70428 2.971349,-1.11426 0.164006,-0.082 0.754085,-0.0113 0.866643,-0.1238 0.172849,-0.17285 0.137928,-0.70918 0.247613,-0.92855 0.246317,-0.49264 0.633558,-0.70999 0.866643,-1.17616 0.28838,-0.57676 0.284009,-3.605 0.123806,-4.08561"
     id="path13989"
     inkscape:connector-curvature="0" />
  <path
     style="fill:none;fill-rule:evenodd;stroke:#000000;stroke-width:1px;stroke-linecap:round;stroke-linejoin:round;stroke-opacity:1"
     d="m 94.773654,305.38723 c 0.153132,-0.43589 -0.205331,-1.13691 0,-1.54758 0.09636,-0.19272 0.363057,-0.0535 0.495225,-0.1857 0.183911,-0.18392 0.291019,-0.53864 0.495224,-0.74284 0.42334,-0.42334 0.537172,-1.52762 0.866644,-1.8571 0.218542,-0.21854 1.113289,-0.39173 1.423771,-0.49522 0.800875,-0.26696 2.739382,-1.81083 3.342772,-2.41422 0.42053,-0.42053 1.2621,-0.33356 1.67138,-0.74284 0.18263,-0.18263 1.07449,0.0619 1.29997,0.0619 1.74244,0 3.64419,0.0243 4.20941,-1.67138"
     id="path13991"
     inkscape:connector-curvature="0" />
  <path
     style="fill:none;fill-rule:evenodd;stroke:#000000;stroke-width:1px;stroke-linecap:round;stroke-linejoin:round;stroke-opacity:1"
     d="m 107.27808,297.27793 c 0.5804,-0.15835 1.60552,-0.25158 2.0428,0.1857 0.1661,0.1661 0.0533,0.54854 0.24762,0.74284 0.13452,0.13452 0.24308,-0.37142 0.43332,-0.37142 0.10363,0 0.73807,-0.36665 0.86664,-0.49522 0.16595,-0.16595 0.77338,0.0466 0.99045,-0.0619 0.59088,-0.29544 0.92563,-0.55421 1.36187,-0.99045 0.22698,-0.22698 1.07299,0.16507 1.29996,-0.0619 0.34114,-0.34113 0.93405,-0.50072 1.29997,-0.86664"
     id="path13993"
     inkscape:connector-curvature="0" />
  <path
     style="fill:none;fill-rule:evenodd;stroke:#000000;stroke-width:1px;stroke-linecap:round;stroke-linejoin:round;stroke-opacity:1"
     d="m 97.311681,300.49689 c 2.681995,-0.65901 -1.163897,-2.11697 1.114256,-4.39512 0.306456,-0.30646 0.872468,-1.17907 1.238062,-1.36187 1.233661,-0.61683 2.541791,-0.80662 3.776091,-1.42377 0.31428,-0.15714 0.78278,-0.0819 1.11425,-0.24762 0.49997,-0.24998 1.05062,-0.55654 1.60949,-0.74283 0.45074,-0.15025 1.07673,-0.16695 1.48567,-0.37142 0.16307,-0.0815 0.30232,-0.30232 0.43332,-0.43332 0.3433,-0.3433 2.32858,-0.44124 2.72374,-0.30952"
     id="path13995"
     inkscape:connector-curvature="0" />
  <path
     style="fill:none;fill-rule:evenodd;stroke:#000000;stroke-width:1px;stroke-linecap:round;stroke-linejoin:round;stroke-opacity:1"
     d="m 87.654797,298.7017 c 0.186551,-0.81423 0.121828,-1.29997 -0.680934,-1.29997"
     id="path13997"
     inkscape:connector-curvature="0" />
  <path
     style="fill:none;fill-rule:evenodd;stroke:#000000;stroke-width:1px;stroke-linecap:round;stroke-linejoin:round;stroke-opacity:1"
     d="m 82.393033,295.85415 c 0.878302,-1.62191 -0.410209,-1.02924 -0.804741,-1.42377 -0.174811,-0.17481 0.18571,-1.06976 0.18571,-1.23806"
     id="path13999"
     inkscape:connector-curvature="0" />
  <path
     style="fill:none;fill-rule:evenodd;stroke:#000000;stroke-width:1px;stroke-linecap:round;stroke-linejoin:round;stroke-opacity:1"
     d="m 81.526389,295.79225 c -1.634864,-0.6822 -1.866286,-0.96675 -0.309515,-1.48567"
     id="path14001"
     inkscape:connector-curvature="0" />
  <path
     style="fill:none;stroke:#000000;stroke-width:1;stroke-linecap:butt;stroke-linejoin:miter;stroke-miterlimit:4;stroke-dasharray:none;stroke-opacity:1"
     d="m 125.64968,489.39402 -68.444427,-0.002 m -10.313735,-2.5e-4 -4.048124,-10e-5"
     id="path14359-1-7-5-3-0-73-1-9-2"
     inkscape:connector-curvature="0"
     sodipodi:nodetypes="cccc" />
  <path
     style="fill:none;stroke:#000000;stroke-width:2;stroke-linecap:butt;stroke-linejoin:round;stroke-miterlimit:4;stroke-dasharray:none;stroke-opacity:1"
     d="m 105.22756,497.75064 0.002,4.75471 -25.229786,0 -0.002,-4.75471"
     id="path14359-1-7-5-3-0-73-1-9-2-64-98-0"
     inkscape:connector-curvature="0"
     sodipodi:nodetypes="cccc" />
  <path
     style="fill:none;stroke:#000000;stroke-width:2;stroke-linecap:butt;stroke-linejoin:round;stroke-miterlimit:4;stroke-dasharray:none;stroke-opacity:1"
     d="m 109.07006,486.74504 7.49278,0.002 0,-31.98962 -19.00579,-0.002"
     id="path14359-1-7-5-3-0-73-1-9-2-64-9-5-2"
     inkscape:connector-curvature="0"
     sodipodi:nodetypes="cccc" />
  <path
     style="fill:none;stroke:#000000;stroke-width:1;stroke-linecap:butt;stroke-linejoin:miter;stroke-miterlimit:4;stroke-dasharray:none;stroke-opacity:1"
     d="m 32.7718,490.34916 45.748795,0.002"
     id="path14359-1-7-5-3-0-73-1-9-2-1"
     inkscape:connector-curvature="0"
     sodipodi:nodetypes="cc" />
  <path
     style="fill:none;stroke:#000000;stroke-width:1;stroke-linecap:butt;stroke-linejoin:miter;stroke-miterlimit:4;stroke-dasharray:none;stroke-opacity:1"
     d="m 144.39329,418.1857 -0.002,115.06669 -135.9973891,0 0.002,-115.06669 z"
     id="path14359-1-7-5-3-0-73-1-9-2-76"
     inkscape:connector-curvature="0"
     sodipodi:nodetypes="ccccc" />
  <path
     style="fill:none;stroke:#000000;stroke-width:1;stroke-linecap:butt;stroke-linejoin:miter;stroke-miterlimit:4;stroke-dasharray:none;stroke-opacity:1"
     d="m 54.403711,490.27337 c -0.245357,-16.82372 10.127984,-34.51589 24.274042,-34.51245 19.571114,0.005 25.746107,23.25561 25.746107,33.61481"
     id="path14359-1-7-5-3-0-73-1-9-2-0"
     inkscape:connector-curvature="0"
     sodipodi:nodetypes="csc" />
  <path
     style="fill:none;fill-rule:evenodd;stroke:#000000;stroke-width:1px;stroke-linecap:round;stroke-linejoin:round;stroke-opacity:1"
     d="m 72.794017,489.50794 c 0.07039,-0.48772 -0.343033,-0.79028 -0.521074,-1.14636 -1.138713,-2.27742 -5.085506,-3.77946 -7.503464,-4.58545 -0.644834,-0.21494 -1.391295,-0.099 -2.032188,-0.31264 -1.164519,-0.38818 -2.294548,-0.6774 -3.491195,-0.6774"
     id="path14069"
     inkscape:connector-curvature="0" />
  <path
     style="fill:none;fill-rule:evenodd;stroke:#000000;stroke-width:1px;stroke-linecap:round;stroke-linejoin:round;stroke-opacity:1"
     d="m 73.627735,489.24741 c -0.533351,-1.5802 -1.943976,-3.97719 -3.751732,-4.42913 -0.548559,-0.13714 -1.084371,-0.18777 -1.615329,-0.36475 -0.895226,-0.29841 -1.593828,-0.96551 -2.449047,-1.25058 -1.183565,-0.39452 -3.248961,-0.50417 -4.116483,-0.93793 -0.510231,-0.25512 -0.917873,-0.51105 -1.459007,-0.78161 -0.271877,-0.13594 -0.729187,1.6e-4 -1.042148,-0.15633 -0.658759,-0.32937 -2.774308,0.43112 -3.126443,-0.62528"
     id="path14071"
     inkscape:connector-curvature="0" />
  <path
     style="fill:none;fill-rule:evenodd;stroke:#000000;stroke-width:1px;stroke-linecap:round;stroke-linejoin:round;stroke-opacity:1"
     d="m 74.253023,489.1953 c -0.69514,-1.04561 -1.975396,-3.17699 -3.230658,-3.59541 -0.551266,-0.18376 -1.048029,-0.42078 -1.511114,-0.7295 -0.700686,-0.46713 -1.002266,-1.36091 -1.615329,-1.66744 -1.329741,-0.66487 -2.317316,-1.28893 -3.595409,-1.92797 -0.553286,-0.27665 -2.982065,-0.11616 -3.38698,-0.52108 -0.851005,-0.851 -2.991002,-1.90364 -4.481235,-1.4069"
     id="path14073"
     inkscape:connector-curvature="0" />
  <path
     style="fill:none;fill-rule:evenodd;stroke:#000000;stroke-width:1px;stroke-linecap:round;stroke-linejoin:round;stroke-opacity:1"
     d="m 74.982527,489.29951 c -0.978788,-1.94238 -2.782037,-3.83477 -4.689665,-5.10652 -1.037759,-0.69184 -2.334041,-1.13557 -3.074336,-1.87586 -0.312111,-0.31212 -0.172115,-0.95373 -0.416859,-1.19847 -0.860808,-0.86081 -0.973646,-1.65924 -2.449047,-2.39694 -1.801807,-0.90091 -2.789334,0.77239 -3.855946,0.41685"
     id="path14075"
     inkscape:connector-curvature="0" />
  <path
     style="fill:none;fill-rule:evenodd;stroke:#000000;stroke-width:1px;stroke-linecap:round;stroke-linejoin:round;stroke-opacity:1"
     d="m 65.082124,481.84816 c -1.148026,-0.0232 -1.636959,-1.77165 -2.188511,-1.77165"
     id="path14077"
     inkscape:connector-curvature="0" />
  <path
     style="fill:none;fill-rule:evenodd;stroke:#000000;stroke-width:1px;stroke-linecap:round;stroke-linejoin:round;stroke-opacity:1"
     d="m 64.196298,478.77382 c -0.350401,-0.44349 -0.94455,-0.42347 -1.302685,-0.78161 -0.693846,-0.69384 -0.717465,-1.6554 -1.406899,-2.34483 -1.088255,-1.08825 -3.348881,0.37483 -3.908054,-1.30268"
     id="path14079"
     inkscape:connector-curvature="0" />
  <path
     style="fill:none;fill-rule:evenodd;stroke:#000000;stroke-width:1px;stroke-linecap:round;stroke-linejoin:round;stroke-opacity:1"
     d="m 58.98556,475.12631 c -0.35378,0.0396 -0.632259,0.0816 -0.885826,0.20843 -0.244034,0.12201 -0.508503,0.19585 -0.677396,0.36475 -0.422995,0.42299 0.728305,1.71954 -0.833718,1.71954"
     id="path14081"
     inkscape:connector-curvature="0" />
  <path
     style="fill:none;fill-rule:evenodd;stroke:#000000;stroke-width:1px;stroke-linecap:round;stroke-linejoin:round;stroke-opacity:1"
     d="m 75.659923,489.14319 c -0.254209,-0.19092 -0.486045,-0.39891 -0.625289,-0.67739 -0.86142,-1.72284 -3.080616,-2.93058 -3.751732,-4.27281 -0.480703,-0.96141 -3.319993,-2.06941 -4.16859,-2.91801 -1.486764,-1.48677 -0.192984,-2.78291 -0.468967,-3.33488 -0.219916,-0.43983 -0.38183,-1.02419 -0.573181,-1.40689 -0.46734,-0.93468 -0.897347,-1.36632 -1.563222,-2.03219 -0.186118,-0.18612 -0.09959,-0.56856 -0.312644,-0.78161 -0.149392,-0.1494 -0.569628,-0.35765 -0.677396,-0.57318 -0.193579,-0.38716 -1.009957,-0.86974 -1.354792,-1.04215 -0.169807,-0.0849 -0.659221,-0.86765 -0.468966,-0.6774"
     id="path14083"
     inkscape:connector-curvature="0" />
  <path
     style="fill:none;fill-rule:evenodd;stroke:#000000;stroke-width:1px;stroke-linecap:round;stroke-linejoin:round;stroke-opacity:1"
     d="m 76.024674,489.24741 c -1.10216,-1.32998 -2.772106,-3.96711 -4.16859,-4.8981 -0.999382,-0.66625 -1.735596,-1.73559 -2.292725,-2.29272 -0.315758,-0.31576 -0.115604,-1.26197 -0.416859,-1.56322 -0.193465,-0.19347 -0.493208,-0.49321 -0.677396,-0.6774 -0.412963,-0.41296 -1.179509,-0.0142 -1.511115,-0.6774 -0.355987,-0.71197 0.0163,-2.0517 -0.364751,-2.81379 -0.24402,-0.48804 -1.250578,-2.03375 -1.250578,-2.34484 0,-0.37471 -0.814712,-1.20316 -0.573181,-1.04214"
     id="path14085"
     inkscape:connector-curvature="0" />
  <path
     style="fill:none;fill-rule:evenodd;stroke:#000000;stroke-width:1px;stroke-linecap:round;stroke-linejoin:round;stroke-opacity:1"
     d="m 76.70207,489.29951 c -0.72333,-2.51031 -3.124463,-4.03535 -4.533342,-6.14867 -0.668225,-1.00233 -1.155287,-1.62425 -1.771651,-2.24061 -0.390338,-0.39034 -0.419907,-1.0452 -0.833718,-1.45901 -0.156323,-0.15632 0,-0.62529 -0.156323,-0.78161 -0.298285,-0.29829 -0.850222,-0.27704 -1.094255,-0.52108 -0.575663,-0.57566 -1.299849,-1.40122 -1.719543,-2.24061 -0.374147,-0.7483 0.0177,-1.96239 -0.416859,-2.39694"
     id="path14087"
     inkscape:connector-curvature="0" />
  <path
     style="fill:none;fill-rule:evenodd;stroke:#000000;stroke-width:1px;stroke-linecap:round;stroke-linejoin:round;stroke-opacity:1"
     d="m 60.340352,468.76921 c 1.14545,-0.12855 1.809036,0.29792 2.344832,0.83371 0.04342,0.0434 0.217114,-0.0434 0.260537,0 0.598896,0.5989 1.590703,0.8091 2.344832,1.56322 0.442662,0.44267 0.685744,1.15472 1.094255,1.56323 0.351127,0.35112 1.007591,0.74705 1.4069,1.14636 0.53853,0.53853 0.810534,1.12318 1.354792,1.66744 0.62698,0.62698 1.140184,1.92179 1.563221,2.34483 0.158406,0.1584 1.964705,2.00143 1.980081,2.03219 0.485474,0.97094 1.67878,2.92935 2.344832,3.5954 0.317903,0.31791 0.152565,1.14261 0.416859,1.4069 0.329427,0.32943 0.319771,1.2056 0.573181,1.45901 0.714832,0.71483 0.811427,1.86848 1.302685,2.60537"
     id="path14089"
     inkscape:connector-curvature="0" />
  <path
     style="fill:none;fill-rule:evenodd;stroke:#000000;stroke-width:1px;stroke-linecap:round;stroke-linejoin:round;stroke-opacity:1"
     d="m 61.017748,467.3102 c 0.607631,2.46748 3.795763,2.21639 4.481235,4.2728"
     id="path14091"
     inkscape:connector-curvature="0" />
  <path
     style="fill:none;fill-rule:evenodd;stroke:#000000;stroke-width:1px;stroke-linecap:round;stroke-linejoin:round;stroke-opacity:1"
     d="m 66.332701,471.00982 c 0.07026,0.32276 -0.04151,0.75071 0.104215,1.04215 0.257373,0.51475 1.11479,0.85425 1.406899,1.14636 0.15417,0.15417 0.142529,0.50728 0.260537,0.62529 0.763232,0.76323 1.19764,2.08347 1.927973,2.8138 0.169342,0.16934 0.470226,0.3139 0.625289,0.46897 0.546193,0.54619 0.925368,1.85073 1.250577,2.50115 0.118662,0.23733 -0.02553,0.80819 0.156322,0.99004 0.538275,0.53828 0.805482,1.55886 1.146363,2.24062 0.127503,0.25501 0.509511,0.34163 0.625288,0.57318 0.259452,0.5189 0.459548,1.18905 0.781611,1.51111 0.910463,0.91047 2.18851,2.21851 2.18851,3.75174"
     id="path14093"
     inkscape:connector-curvature="0" />
  <path
     style="fill:none;fill-rule:evenodd;stroke:#000000;stroke-width:1px;stroke-linecap:round;stroke-linejoin:round;stroke-opacity:1"
     d="m 70.084432,480.0244 c 0.232557,0.89602 1.667437,0.65953 1.667437,1.35479"
     id="path14095"
     inkscape:connector-curvature="0" />
  <path
     style="fill:none;fill-rule:evenodd;stroke:#000000;stroke-width:1px;stroke-linecap:round;stroke-linejoin:round;stroke-opacity:1"
     d="m 67.010097,477.73168 c 0.180003,0.35966 0.324598,0.63724 0.573181,0.88582 0.175657,0.17566 0.66156,0.0884 0.885826,0.31265 0.749808,0.7498 0.821089,1.38164 1.302684,2.34483 0.06623,0.13247 0.381653,0.32954 0.468967,0.41686 0.815482,0.81548 1.425883,1.56806 1.823758,2.76169"
     id="path14097"
     inkscape:connector-curvature="0" />
  <path
     style="fill:none;fill-rule:evenodd;stroke:#000000;stroke-width:1px;stroke-linecap:round;stroke-linejoin:round;stroke-opacity:1"
     d="m 70.501292,485.75621 c 0.372778,0.35473 1.440763,1.09688 1.302684,1.51112"
     id="path14099"
     inkscape:connector-curvature="0" />
  <path
     style="fill:none;fill-rule:evenodd;stroke:#000000;stroke-width:1px;stroke-linecap:round;stroke-linejoin:round;stroke-opacity:1"
     d="m 65.707412,482.62977 c -1.539754,-0.40026 -3.48069,-0.9518 -4.689664,-1.35479"
     id="path14101"
     inkscape:connector-curvature="0" />
  <path
     style="fill:none;fill-rule:evenodd;stroke:#000000;stroke-width:1px;stroke-linecap:round;stroke-linejoin:round;stroke-opacity:1"
     d="m 62.580969,464.60061 c 0.848657,-0.13149 2.19675,1.33565 2.39694,2.13641 0.139438,0.55775 0.11725,0.85979 0.364751,1.35479 0.184442,0.36888 0.771091,0.72249 1.094256,0.93793 0.519003,0.346 0.568059,1.16986 1.042147,1.4069 0.217185,0.10859 0.521092,0.0261 0.677396,0.10422 0.472711,0.23635 1.103262,0.90384 1.354792,1.4069 0.60079,1.20158 0.791969,2.79276 1.250577,4.16859 0.322061,0.96618 1.711732,1.6961 2.084296,2.8138 0.688318,2.06495 1.806188,4.22009 2.501154,6.30499 0.545495,1.63648 2.292725,2.60312 2.292725,4.16859"
     id="path14105"
     inkscape:connector-curvature="0" />
  <path
     style="fill:none;fill-rule:evenodd;stroke:#000000;stroke-width:1px;stroke-linecap:round;stroke-linejoin:round;stroke-opacity:1"
     d="m 63.831546,463.35004 c 0.603633,1.34733 0.779586,3.28074 1.823759,4.32491 0.229225,0.22923 0.624359,0.46711 0.781611,0.78161 0.257852,0.51571 0.700468,1.27365 1.042147,1.61533 0.431323,0.43132 2.01469,1.14598 2.240618,1.82376 0.333867,1.0016 0.49124,2.09901 0.833718,3.12644 0.236769,0.71031 0.822459,1.17595 1.146362,1.82376 0.536738,1.07347 1.224827,2.18033 1.980081,3.43909 0.682662,1.13777 2.352646,3.2098 2.657477,4.42912 0.309159,1.23664 0.865182,2.12659 1.250577,3.28277 0.135827,0.40748 0.234156,1.27565 0.260537,1.35479"
     id="path14109"
     inkscape:connector-curvature="0" />
  <path
     style="fill:none;fill-rule:evenodd;stroke:#000000;stroke-width:1px;stroke-linecap:round;stroke-linejoin:round;stroke-opacity:1"
     d="m 65.186338,461.89103 c 0.287202,-0.33685 0.619361,-0.31264 1.042148,-0.31264 1.235174,0 1.579147,1.55889 1.927973,2.60537 0.11312,0.33935 -3.47e-4,0.72881 0.156322,1.04214 0.140223,0.28045 -0.289234,0.6487 -0.05211,0.88583 0.366112,0.36611 0.654838,1.30968 0.885826,1.77165 0.35007,0.70014 1.041664,1.53644 1.511114,2.24062 0.263076,0.39461 0.223543,0.91605 0.416859,1.30268 0.272512,0.54503 -0.401014,0.69782 -0.521074,0.93793 -0.12262,0.24524 0.433023,2.54965 0.573181,2.97013 0.189143,0.56742 0.897175,1.05349 1.302685,1.459 0.618452,0.61845 1.033341,1.75404 1.511114,2.70959 0.373932,0.74786 1.297059,1.44213 1.563222,2.24061 0.436749,1.31025 0.966147,2.5858 1.406899,3.90806 0.128152,0.38446 0.421697,0.74885 0.521074,1.14636 0.221574,0.8863 0.295877,1.77346 0.573181,2.60537"
     id="path14111"
     inkscape:connector-curvature="0" />
  <path
     style="fill:none;fill-rule:evenodd;stroke:#000000;stroke-width:1px;stroke-linecap:round;stroke-linejoin:round;stroke-opacity:1"
     d="m 67.218526,460.06727 c -0.0882,0.41081 0.184888,0.71601 0.260537,1.09426 0.08491,0.42454 -0.05263,0.88375 0.05211,1.30268 0.25872,1.03488 0.874879,1.94724 1.198469,2.91802 0.109426,0.32827 -0.109425,0.76597 0,1.09425 0.242293,0.72688 0.452253,1.47769 0.781611,2.1364 0.47843,0.95686 1.511797,1.77302 2.032188,2.8138 0.08894,0.17789 -0.09763,0.52766 0.05211,0.6774 0.449857,0.44985 1.102787,1.64092 1.354792,2.39694 0.04329,0.12987 0.07934,0.91306 0.156322,0.99004 0.141828,0.14183 1.142675,0.75371 1.406899,0.88582 0.07335,0.0367 1.121069,2.34636 1.302685,2.70959 0.261801,0.5236 -0.135186,1.26188 0.05211,1.82376 0.18361,0.55082 2.184514,5.93624 2.292725,6.04445 0.211133,0.21113 0.350153,2.14472 0.416859,2.34483"
     id="path14113"
     inkscape:connector-curvature="0" />
  <path
     style="fill:none;fill-rule:evenodd;stroke:#000000;stroke-width:1px;stroke-linecap:round;stroke-linejoin:round;stroke-opacity:1"
     d="m 67.166419,465.12169 c 2.141784,1.47944 2.582457,4.80016 3.543302,6.72185 0.407261,0.81452 -0.883638,1.98227 0.416859,3.28277 0.316309,0.3163 1.052528,0.0625 1.302685,0.31264 0.333947,0.33395 1.323051,0.71813 1.615329,1.30268 0.194532,0.38907 -1.129983,1.26696 -0.625289,1.77166 0.264433,0.26443 0.692826,0.64071 0.937933,0.88582 0.284598,0.2846 0.784875,0.2117 1.042148,0.46897 0.182427,0.18243 1.938921,4.52502 2.084295,5.10652 0.219942,0.87977 1.055695,1.99155 0.729504,2.97012"
     id="path14115"
     inkscape:connector-curvature="0" />
  <path
     style="fill:none;fill-rule:evenodd;stroke:#000000;stroke-width:1px;stroke-linecap:round;stroke-linejoin:round;stroke-opacity:1"
     d="m 71.178688,462.56843 c 0.343043,1.40184 0.952116,5.2724 0.521073,6.56553 -0.108796,0.32639 -0.445599,1.2452 -0.260537,1.61533 0.190355,0.38071 1.083482,0.6576 0.937933,1.09425"
     id="path14119"
     inkscape:connector-curvature="0" />
  <path
     style="fill:none;fill-rule:evenodd;stroke:#000000;stroke-width:1px;stroke-linecap:round;stroke-linejoin:round;stroke-opacity:1"
     d="m 71.699761,466.00751 c 0.770989,0.97006 1.570741,1.22103 1.980081,2.44905 0.09547,0.28642 0.04392,1.45082 0.156322,1.56322 0.526008,0.52601 1.27662,0.8337 1.667437,1.61533 0.12946,0.25892 0.06098,1.51999 0.104214,1.56322 0.756065,0.75607 1.81168,1.56702 2.136403,2.86591 0.227259,0.90904 -0.68228,2.02242 -0.468966,2.44905 0.264972,0.52994 0.185894,1.13086 0.364751,1.66743 0.490814,1.47244 0.768479,2.89175 1.4069,4.16859 0.0805,0.16101 -0.04683,0.40631 -0.104215,0.52108 -0.258623,0.51724 0.388652,3.41088 0.625289,3.64751"
     id="path14121"
     inkscape:connector-curvature="0" />
  <path
     style="fill:none;fill-rule:evenodd;stroke:#000000;stroke-width:1px;stroke-linecap:round;stroke-linejoin:round;stroke-opacity:1"
     d="m 74.774097,473.71941 c 0.03794,0.61194 -0.628464,1.60898 -0.312644,2.24061 0.396823,0.79365 1.061555,1.17548 1.563221,1.92798 0.492571,0.73885 0.808308,1.40818 1.19847,2.18851 0.617529,1.23506 0.358923,2.84842 0.781611,4.11648 0.20498,0.61494 0.135682,1.46983 0.416859,2.03219 0.438578,0.87716 0.620242,1.75651 0.885826,2.55326"
     id="path14123"
     inkscape:connector-curvature="0" />
  <path
     style="fill:none;fill-rule:evenodd;stroke:#000000;stroke-width:1px;stroke-linecap:round;stroke-linejoin:round;stroke-opacity:1"
     d="m 71.647654,481.22287 c 0.779081,1.37555 2.218049,3.31927 2.605369,4.48124"
     id="path14125"
     inkscape:connector-curvature="0" />
  <path
     style="fill:none;fill-rule:evenodd;stroke:#000000;stroke-width:1px;stroke-linecap:round;stroke-linejoin:round;stroke-opacity:1"
     d="m 73.31509,481.53551 c 0.423296,1.0395 1.250578,1.97515 1.250578,3.12645"
     id="path14127"
     inkscape:connector-curvature="0" />
  <path
     style="fill:none;fill-rule:evenodd;stroke:#000000;stroke-width:1px;stroke-linecap:round;stroke-linejoin:round;stroke-opacity:1"
     d="m 76.441533,479.39911 c 0.189307,1.88714 1.231306,2.87162 0.625289,4.68967"
     id="path14129"
     inkscape:connector-curvature="0" />
  <path
     style="fill:none;fill-rule:evenodd;stroke:#000000;stroke-width:1px;stroke-linecap:round;stroke-linejoin:round;stroke-opacity:1"
     d="m 73.158768,465.38223 c 0.03615,0.40695 -0.396528,1.08281 -0.156322,1.56322 0.295787,0.59157 0.615545,1.24083 1.042148,1.66743 0.279712,0.27972 0.133776,0.86328 0.416859,1.14637 0.204252,0.20425 0.705711,0.54938 0.937933,0.78161 0.171452,0.17145 0.08592,0.72674 0.208429,1.09425"
     id="path14131"
     inkscape:connector-curvature="0" />
  <path
     style="fill:none;fill-rule:evenodd;stroke:#000000;stroke-width:1px;stroke-linecap:round;stroke-linejoin:round;stroke-opacity:1"
     d="m 75.659923,467.46652 c 0.175321,0.56697 -0.45269,2.16896 -0.260537,2.55326 0.15066,0.30132 0.79652,0.37966 0.937933,0.52108 0.249402,0.2494 0.647817,0.93088 0.885825,1.4069 0.295454,0.5909 -0.452797,1.28291 -0.260537,1.66743 0.221127,0.44226 0.708945,0.65684 0.990041,0.93793 0.07643,0.0764 0.08716,0.3477 0.156322,0.41686 0.414676,0.41468 -0.376978,2.94567 -0.05211,3.59541 0.269984,0.53997 0.463833,1.38637 0.625289,2.03219"
     id="path14133"
     inkscape:connector-curvature="0" />
  <path
     style="fill:none;fill-rule:evenodd;stroke:#000000;stroke-width:1px;stroke-linecap:round;stroke-linejoin:round;stroke-opacity:1"
     d="m 70.970258,457.87876 c 0.944343,2.01762 2.622874,2.52741 3.960161,4.53334 0.317187,0.47578 0.350298,1.13191 0.729504,1.51112 0.291149,0.29115 -0.01166,1.89918 -0.156322,2.18851 -0.213876,0.42775 0.156322,1.59038 0.156322,2.18851"
     id="path14135"
     inkscape:connector-curvature="0" />
  <path
     style="fill:none;fill-rule:evenodd;stroke:#000000;stroke-width:1px;stroke-linecap:round;stroke-linejoin:round;stroke-opacity:1"
     d="m 77.796325,456.15922 c 0.860127,1.40561 0.970577,3.15219 0.573182,4.74177 -0.110688,0.44275 -0.01118,1.01239 -0.20843,1.4069 -0.126069,0.25214 -0.354857,0.25064 -0.521074,0.41686 -0.319072,0.31907 -0.104214,1.10355 -0.104214,1.56322"
     id="path14137"
     inkscape:connector-curvature="0" />
  <path
     style="fill:none;fill-rule:evenodd;stroke:#000000;stroke-width:1px;stroke-linecap:round;stroke-linejoin:round;stroke-opacity:1"
     d="m 76.337319,460.11938 c 0.485809,0.51103 0.309474,1.26266 0.677396,1.87587 0.520882,0.86813 1.08888,1.54709 1.406899,2.50115 0.237566,0.7127 -0.343712,1.81373 0,2.50115 0.408969,0.81794 0.104215,3.4115 0.104215,4.53335"
     id="path14139"
     inkscape:connector-curvature="0" />
  <path
     style="fill:none;fill-rule:evenodd;stroke:#000000;stroke-width:1px;stroke-linecap:round;stroke-linejoin:round;stroke-opacity:1"
     d="m 79.567977,465.12169 c -0.154691,0.59491 -1.680187,2.12365 -0.729504,3.07433"
     id="path14141"
     inkscape:connector-curvature="0" />
  <path
     style="fill:none;fill-rule:evenodd;stroke:#000000;stroke-width:1px;stroke-linecap:round;stroke-linejoin:round;stroke-opacity:1"
     d="m 79.567977,467.04966 c 2.375937,1.42268 0.885825,2.77427 0.885825,4.58545"
     id="path14143"
     inkscape:connector-curvature="0" />
  <path
     style="fill:none;fill-rule:evenodd;stroke:#000000;stroke-width:1px;stroke-linecap:round;stroke-linejoin:round;stroke-opacity:1"
     d="m 78.890581,470.80139 c 0.417919,0.75353 1.529767,2.30753 1.094255,3.17855 -0.444334,0.88867 -1.931322,0.98 -1.354792,2.70959"
     id="path14145"
     inkscape:connector-curvature="0" />
  <path
     style="fill:none;fill-rule:evenodd;stroke:#000000;stroke-width:1px;stroke-linecap:round;stroke-linejoin:round;stroke-opacity:1"
     d="m 78.421614,471.06193 c -1.47951,0.9296 -0.891036,2.90759 -0.208429,4.27281 0.253056,0.50611 0.120933,1.26534 0.260536,1.82375"
     id="path14147"
     inkscape:connector-curvature="0" />
  <path
     style="fill:none;fill-rule:evenodd;stroke:#000000;stroke-width:1px;stroke-linecap:round;stroke-linejoin:round;stroke-opacity:1"
     d="m 83.528138,456.47186 c 0.389763,0.41455 0.317795,1.05131 -0.156322,1.4069 -1.287387,0.96554 -1.629862,0.91489 -2.39694,2.44905 -0.120812,0.24162 -0.0181,0.57539 -0.104215,0.83372 -0.06652,0.19957 -0.233536,0.44575 -0.156322,0.67739 0.185808,0.55743 1.262979,1.55082 0.781611,2.03219"
     id="path14149"
     inkscape:connector-curvature="0" />
  <path
     style="fill:none;fill-rule:evenodd;stroke:#000000;stroke-width:1px;stroke-linecap:round;stroke-linejoin:round;stroke-opacity:1"
     d="m 85.247681,457.14926 c -0.345556,0.12823 -0.589458,0.3509 -0.885825,0.57318 -0.198944,0.14921 -0.511817,0.30802 -0.729503,0.41686 -0.294647,0.14732 -0.432658,0.41002 -0.677396,0.57318 -1.651611,1.10107 0.695761,1.29969 0.312644,2.44905 -0.188904,0.56671 -0.584981,0.68919 -0.937933,1.04214 -0.341873,0.34188 0.04308,1.44301 -0.05211,1.82376"
     id="path14151"
     inkscape:connector-curvature="0" />
  <path
     style="fill:none;fill-rule:evenodd;stroke:#000000;stroke-width:1px;stroke-linecap:round;stroke-linejoin:round;stroke-opacity:1"
     d="m 81.756487,459.96306 c 0.117806,0.5208 0.501047,0.94998 0.729503,1.4069 0.102455,0.20491 -0.04936,0.61703 -0.104215,0.78161 -0.217017,0.65105 -0.423309,1.67388 -0.833718,2.08429 -0.192989,0.19299 -0.07364,1.73205 -0.260537,2.29273"
     id="path14153"
     inkscape:connector-curvature="0" />
  <path
     style="fill:none;fill-rule:evenodd;stroke:#000000;stroke-width:1px;stroke-linecap:round;stroke-linejoin:round;stroke-opacity:1"
     d="m 87.592514,457.87876 c -0.234724,1.40823 0.757138,4.66203 -0.104215,5.52338 -0.224945,0.22495 -0.640046,0.43162 -0.833718,0.62529 -0.208489,0.20849 -0.200664,0.56542 -0.364752,0.72951 -0.181393,0.18139 0.155999,2.34547 -0.05211,2.76169 -0.14781,0.29562 -0.06135,0.69587 -0.20843,0.99004 -0.238448,0.47689 -0.581163,0.61121 -0.833718,0.99004"
     id="path14155"
     inkscape:connector-curvature="0" />
  <path
     style="fill:none;fill-rule:evenodd;stroke:#000000;stroke-width:1px;stroke-linecap:round;stroke-linejoin:round;stroke-opacity:1"
     d="m 89.46838,462.25578 c -0.324206,0.50675 -0.750116,1.23483 -1.302685,1.51112 -0.354293,0.17714 -1.189295,-0.11339 -1.511114,0.20843 -0.646757,0.64675 -0.648773,1.74302 -0.833718,1.92797 -0.419584,0.41958 -1.529396,0.1746 -2.084296,0.7295 -0.809639,0.80964 -0.582993,1.9476 -1.094255,2.97012 -0.372848,0.7457 -1.016006,0.93776 -1.406899,1.71955 -0.387402,0.7748 -0.024,2.31672 -0.573181,2.8659 -1.602311,1.60231 -2.032188,2.53812 -2.032188,5.00231"
     id="path14157"
     inkscape:connector-curvature="0" />
  <path
     style="fill:none;fill-rule:evenodd;stroke:#000000;stroke-width:1px;stroke-linecap:round;stroke-linejoin:round;stroke-opacity:1"
     d="m 85.87297,462.67264 c -1.198517,0.0792 -1.317961,0.20215 -1.667436,1.25058 -0.0651,0.1953 -0.212881,0.66849 -0.104215,0.88582 0.08887,0.17774 0.281676,0.53091 0.156322,0.78161 -0.177494,0.35499 -0.833718,0.91881 -0.833718,1.25058"
     id="path14159"
     inkscape:connector-curvature="0" />
  <path
     style="fill:none;fill-rule:evenodd;stroke:#000000;stroke-width:1px;stroke-linecap:round;stroke-linejoin:round;stroke-opacity:1"
     d="m 91.604782,460.58835 c 0.247985,0.54302 1.107727,1.79681 0.781611,2.44904 -0.51451,1.02902 -1.902398,1.74704 -2.18851,2.60537 -0.217052,0.65116 -1.55148,4.11061 -2.084295,4.37702 -0.316063,0.15803 -0.744846,0.5548 -1.19847,0.78161 -0.35159,0.1758 -0.415011,0.72858 -0.729504,0.88583 -0.759839,0.37992 -0.660904,-0.85021 -1.719543,0.20843 -0.475061,0.47506 -0.3233,1.26123 -0.781611,1.71954 -0.392714,0.39272 -1.245598,1.18353 -1.406899,1.66744 -0.122229,0.36668 0.120084,0.85408 -0.05211,1.19847 -0.258137,0.51627 -1.04437,0.15854 -1.354792,0.46896 -0.269271,0.26928 -0.760021,0.65581 -1.042148,0.93794 -0.127151,0.12715 0.0166,0.38366 -0.05211,0.52107 -0.134497,0.269 -0.287433,0.47065 -0.416859,0.7295 -0.248663,0.49733 0.496881,1.29897 0.20843,1.87587 -0.153461,0.30692 -0.30375,0.55539 -0.468967,0.88583 -0.0554,0.1108 0.03201,0.31637 0.05211,0.41686 0.146521,0.7326 -0.04474,1.94271 0.260537,2.55326 0.134194,0.26838 0.277542,0.50297 0.416859,0.78161 0.161773,0.32354 -0.491885,1.96343 -0.260536,2.65747 0.15217,0.45652 0.469521,0.47064 0.573181,0.78162"
     id="path14161"
     inkscape:connector-curvature="0" />
  <path
     style="fill:none;fill-rule:evenodd;stroke:#000000;stroke-width:1px;stroke-linecap:round;stroke-linejoin:round;stroke-opacity:1"
     d="m 80.036943,485.70411 c 0.402837,0.40818 0.929493,0.59501 1.406899,0.83371 1.27315,0.63658 -0.573181,1.9949 -0.573181,2.60537"
     id="path14163"
     inkscape:connector-curvature="0" />
  <path
     style="fill:none;fill-rule:evenodd;stroke:#000000;stroke-width:1px;stroke-linecap:round;stroke-linejoin:round;stroke-opacity:1"
     d="m 81.131198,481.27498 c -1.219735,-0.16683 -2.50145,2.501 -1.250577,3.12644 0.619508,0.30975 1.395056,0.23685 1.771651,0.99004 0.280605,0.56121 0.544736,2.52482 0.729503,2.70958 0.186535,0.18654 0.471877,0.4777 0.573182,0.78162"
     id="path14165"
     inkscape:connector-curvature="0" />
  <path
     style="fill:none;fill-rule:evenodd;stroke:#000000;stroke-width:1px;stroke-linecap:round;stroke-linejoin:round;stroke-opacity:1"
     d="m 92.64693,461.73471 c 0.507909,0.93275 1.672991,2.18295 0.781611,3.07433 -0.185946,0.18595 -0.532108,0.28261 -0.677396,0.57319 -0.383591,0.76718 -0.205661,1.61256 -0.833718,2.24061 -0.609701,0.6097 -2.381239,0.62779 -2.970121,1.51112"
     id="path14167"
     inkscape:connector-curvature="0" />
  <path
     style="fill:none;fill-rule:evenodd;stroke:#000000;stroke-width:1px;stroke-linecap:round;stroke-linejoin:round;stroke-opacity:1"
     d="m 95.512836,464.96537 c -0.0059,-0.70777 -0.376857,-1.45901 -1.146362,-1.45901 -1.270864,0 -0.853224,2.56626 -1.927973,3.28276"
     id="path14169"
     inkscape:connector-curvature="0" />
  <path
     style="fill:none;fill-rule:evenodd;stroke:#000000;stroke-width:1px;stroke-linecap:round;stroke-linejoin:round;stroke-opacity:1"
     d="m 94.574903,466.21594 c -1.482315,0.36343 -1.326246,0.74808 -1.719543,1.92798 -0.06945,0.20835 0.09724,0.53502 0,0.7295 -0.117259,0.23452 -0.611265,0.66337 -0.833719,0.88583 -0.173183,0.17318 -1.510887,1.30223 -1.563221,1.40689 -0.158345,0.31669 -0.568362,1.09185 -0.885826,1.25058 -0.530606,0.26531 -1.507759,0.87576 -1.719543,1.51112 -0.343501,1.0305 -0.895655,2.19834 -1.563222,2.8659 -0.308376,0.30838 -0.0294,1.12366 -0.364752,1.45901 -0.210628,0.21063 -1.025511,0.0876 -1.719543,0.78161 -0.426073,0.42607 0.470462,4.1656 0.05211,5.00231 -0.641694,1.28339 -0.775958,0.56753 -1.615329,1.4069 -0.567468,0.56747 0.104215,2.21801 0.104215,2.91801"
     id="path14171"
     inkscape:connector-curvature="0" />
  <path
     style="fill:none;fill-rule:evenodd;stroke:#000000;stroke-width:1px;stroke-linecap:round;stroke-linejoin:round;stroke-opacity:1"
     d="m 92.594823,467.83127 c 0.184718,0.28564 -0.02936,0.42347 -0.156322,0.6774 -0.505827,1.01165 -2.344275,0.31097 -2.657477,1.25058"
     id="path14173"
     inkscape:connector-curvature="0" />
  <path
     style="fill:none;fill-rule:evenodd;stroke:#000000;stroke-width:1px;stroke-linecap:round;stroke-linejoin:round;stroke-opacity:1"
     d="m 97.440809,467.04966 c 0.194162,2.48698 -3.352334,1.78911 -3.595409,2.03219 -0.128565,0.12856 -0.242362,0.32961 -0.416859,0.41686 -0.616613,0.3083 -1.159537,-0.13656 -1.563222,0.46896"
     id="path14175"
     inkscape:connector-curvature="0" />
  <path
     style="fill:none;fill-rule:evenodd;stroke:#000000;stroke-width:1px;stroke-linecap:round;stroke-linejoin:round;stroke-opacity:1"
     d="m 98.691387,469.29028 c -0.570171,-0.14953 -1.30909,-0.7279 -1.927974,-0.57318 -1.350041,0.33751 -3.133267,2.71982 -3.960161,3.96016 -0.437445,0.65617 -1.324046,1.33429 -1.98008,1.77165 -0.864179,0.57612 -1.28612,1.94574 -2.084296,2.34483 -0.632745,0.31638 -1.646821,1.22996 -2.032188,1.61533 -0.415093,0.41509 0.732936,1.45558 0.20843,1.98008 -0.384742,0.38474 -0.891054,0.89106 -1.302685,1.30269 -0.560764,0.56076 -0.557872,1.91266 -1.042148,2.39694 -0.442268,0.44226 -0.822588,0.56205 -1.250577,0.99004 -0.527164,0.52716 -0.982664,3.707 -0.364751,4.32491"
     id="path14177"
     inkscape:connector-curvature="0" />
  <path
     style="fill:none;fill-rule:evenodd;stroke:#000000;stroke-width:1px;stroke-linecap:round;stroke-linejoin:round;stroke-opacity:1"
     d="m 88.999413,476.95006 c -0.16093,0.31321 -0.258401,0.61889 -0.364752,0.93794 -0.140319,0.42095 -0.711628,0.6268 -0.521073,1.19847 0.142775,0.42832 1.351963,1.51677 1.146362,1.92797 -0.403357,0.80671 -1.373994,0.87212 -1.771651,1.66744 -0.294679,0.58936 0.138434,1.32057 -0.416859,1.87586"
     id="path14179"
     inkscape:connector-curvature="0" />
  <path
     style="fill:none;fill-rule:evenodd;stroke:#000000;stroke-width:1px;stroke-linecap:round;stroke-linejoin:round;stroke-opacity:1"
     d="m 85.977185,471.68722 c -0.396963,0.85856 -1.420386,1.01701 -1.875866,1.92797 -0.569079,1.13816 0.963725,3.15276 -0.312644,4.42913 -0.336548,0.33655 -3.267353,2.74041 -3.022229,3.23066 0.731035,1.46207 2.773385,0.33603 3.38698,1.56322 0.688523,1.37704 -1.771651,1.94008 -1.771651,3.02223 0,0.42464 -0.09305,0.85604 0.104215,1.25057 0.324187,0.64838 1.430385,1.69606 1.094256,2.03219"
     id="path14181"
     inkscape:connector-curvature="0"
     sodipodi:nodetypes="cssssssc" />
  <path
     style="fill:none;fill-rule:evenodd;stroke:#000000;stroke-width:1px;stroke-linecap:round;stroke-linejoin:round;stroke-opacity:1"
     d="m 82.433883,475.85581 c 0.111499,0.15556 0.104214,0.21048 0.104214,0.36475 0,0.19031 -0.06662,0.8192 0.05211,0.93793 0.03688,0.0369 1.79839,0.85909 1.250577,1.4069 -0.111405,0.11141 -0.596358,0.89158 -0.416859,1.25058 0.324628,0.64926 0.99682,1.10104 1.354792,1.45901 0.216382,0.21638 0.17304,0.60661 0.312644,0.88582 0.378747,0.7575 -0.577215,1.76359 -0.208429,2.50116 0.265177,0.53035 0.305716,1.1325 0.573181,1.66743 0.499439,0.99888 -0.810889,1.89225 -0.468966,2.91802"
     id="path14183"
     inkscape:connector-curvature="0" />
  <path
     style="fill:none;fill-rule:evenodd;stroke:#000000;stroke-width:1px;stroke-linecap:round;stroke-linejoin:round;stroke-opacity:1"
     d="m 80.974876,477.31482 c 1.037262,0.23234 2.853671,1.4436 2.39694,2.81379 -0.05471,0.16412 -0.479656,1.292 -0.312645,1.45901 0.669913,0.66991 1.19847,1.34309 1.19847,2.55326 0,0.0663 0.04218,0.37468 0,0.41686 -0.28078,0.28078 -1.714251,1.99067 -1.354792,2.70959 0.387182,0.77436 1.817299,0.59256 1.354792,1.98008"
     id="path14185"
     inkscape:connector-curvature="0"
     sodipodi:nodetypes="ccssssc" />
  <path
     style="fill:none;fill-rule:evenodd;stroke:#000000;stroke-width:1px;stroke-linecap:round;stroke-linejoin:round;stroke-opacity:1"
     d="m 99.42089,470.1761 c -0.668362,-0.22071 -1.211325,0.16918 -1.667436,0.62529 -0.533617,0.53362 -0.52501,1.93585 -0.885826,2.65748 -0.204643,0.40929 -0.678329,0.73137 -0.885825,1.14636 -0.155422,0.31085 -3.170812,2.75396 -3.543302,3.12645 -0.257815,0.25781 -1.672831,0.37014 -2.136403,0.83371 -0.251584,0.25159 1.086565,0.59539 1.250577,0.6774 0.643998,0.322 0.541742,1.26135 0.312644,1.71954 -0.308175,0.61635 -1.110068,0.70903 -1.459006,1.4069 -0.247141,0.49428 -0.265045,0.94244 -0.573182,1.25058 -0.302991,0.30299 -1.197213,-0.10547 -1.459006,0.15632 -0.279521,0.27952 -0.654858,0.49854 -1.042148,0.88583 -0.307157,0.30715 -1.017451,0.28794 -1.4069,0.67739 -0.68466,0.68466 0.09504,1.21682 -0.156322,1.71955 -0.350655,0.70131 -0.354757,1.42902 -0.573181,2.08429"
     id="path14187"
     inkscape:connector-curvature="0" />
  <path
     style="fill:none;fill-rule:evenodd;stroke:#000000;stroke-width:1px;stroke-linecap:round;stroke-linejoin:round;stroke-opacity:1"
     d="m 88.895198,489.35162 c -0.898231,-1.97512 2.863232,-4.8707 4.481235,-5.6797 0.693951,-0.34698 1.459392,0.0519 2.084296,-0.26054 0.764855,-0.38243 1.761811,-1.06328 2.657476,-1.51111 0.366653,-0.18333 0.556243,0.37322 0.885826,0.20843 0.489096,-0.24455 0.802311,-0.50537 1.250579,-0.72951 0.5562,-0.2781 2.56843,-0.21502 2.70958,0.20843"
     id="path14189"
     inkscape:connector-curvature="0" />
  <path
     style="fill:none;fill-rule:evenodd;stroke:#000000;stroke-width:1px;stroke-linecap:round;stroke-linejoin:round;stroke-opacity:1"
     d="m 87.488299,489.24741 c 0.229423,-0.40719 0.273945,-0.80843 0.416859,-1.09426 0.180263,-0.36052 0.713995,-0.69848 0.885826,-1.04215 0.545383,-1.09076 1.383488,-2.5155 2.501154,-3.07433 0.288529,-0.14427 2.07909,-0.82331 2.136403,-0.93793 0.112556,-0.22512 0.0951,-0.7725 0.260537,-0.93794 0.371573,-0.37157 0.784152,-1.04596 1.19847,-1.66743 0.17239,-0.25859 0.533706,-0.27317 0.729503,-0.46897 0.237559,-0.23756 0.354004,-0.86433 0.521074,-1.19847 0.119609,-0.23922 0.671885,-0.56767 0.833718,-0.7295 0.204802,-0.20481 0.575127,-0.0521 0.885826,-0.0521 1.063959,0 1.585911,-0.89717 2.292721,-1.25058 0.32603,-0.16301 1.44814,-0.68102 1.14637,-0.78161"
     id="path14191"
     inkscape:connector-curvature="0" />
  <path
     style="fill:none;fill-rule:evenodd;stroke:#000000;stroke-width:1px;stroke-linecap:round;stroke-linejoin:round;stroke-opacity:1"
     d="m 100.51515,472.83358 c -0.28367,0.5861 -0.995699,0.97644 -1.563226,1.35479 -0.499247,0.33283 -1.014216,0.75368 -1.354792,1.09426 -0.276041,0.27604 -2.687985,0.65579 -2.970121,0.93793 -0.196216,0.19622 -0.953752,0.7295 -1.250578,0.7295"
     id="path14193"
     inkscape:connector-curvature="0" />
  <path
     style="fill:none;fill-rule:evenodd;stroke:#000000;stroke-width:1px;stroke-linecap:round;stroke-linejoin:round;stroke-opacity:1"
     d="m 96.711306,478.14853 c 1.328165,-0.47863 0.235223,-2.52745 1.406899,-2.91801"
     id="path14195"
     inkscape:connector-curvature="0" />
  <path
     style="fill:none;fill-rule:evenodd;stroke:#000000;stroke-width:1px;stroke-linecap:round;stroke-linejoin:round;stroke-opacity:1"
     d="m 97.440809,482.05659 c 1.087247,-0.51277 1.487911,-2.65748 -0.208429,-2.65748"
     id="path14197"
     inkscape:connector-curvature="0" />
  <path
     style="fill:none;fill-rule:evenodd;stroke:#000000;stroke-width:1px;stroke-linecap:round;stroke-linejoin:round;stroke-opacity:1"
     d="m 97.909776,479.65965 c 0.593422,-0.12815 0.73758,-1.22635 0.573181,-1.71955"
     id="path14199"
     inkscape:connector-curvature="0" />
  <path
     style="fill:none;fill-rule:evenodd;stroke:#000000;stroke-width:1px;stroke-linecap:round;stroke-linejoin:round;stroke-opacity:1"
     d="m 97.857669,481.95237 c 1.098627,-0.89709 1.111323,-1.459 2.605371,-1.459 0.26831,0 0.64191,0.0166 0.78161,0.15632"
     id="path14201"
     inkscape:connector-curvature="0" />
  <path
     style="fill:none;fill-rule:evenodd;stroke:#000000;stroke-width:1px;stroke-linecap:round;stroke-linejoin:round;stroke-opacity:1"
     d="m 85.716648,489.09109 c 0.25871,-0.29248 0.152147,-0.77744 0.416859,-1.04215 0.457229,-0.45723 1.338484,-0.76531 1.927973,-1.35479 0.553079,-0.55308 0.11139,-1.67462 0.573181,-2.13641 0.274347,-0.27434 1.08104,-0.091 1.4069,-0.41686 0.28639,-0.28639 0.66654,-0.90645 0.937933,-1.04214 0.393281,-0.19664 0.77272,-0.0462 1.094255,-0.26054"
     id="path14203"
     inkscape:connector-curvature="0" />
  <path
     style="fill:none;fill-rule:evenodd;stroke:#000000;stroke-width:1px;stroke-linecap:round;stroke-linejoin:round;stroke-opacity:1"
     d="m 94.418581,480.7018 c 0.47474,-1.32023 0.961477,-1.98793 2.032188,-2.34484"
     id="path14205"
     inkscape:connector-curvature="0" />
  <path
     style="fill:none;fill-rule:evenodd;stroke:#000000;stroke-width:1px;stroke-linecap:round;stroke-linejoin:round;stroke-opacity:1"
     d="m 85.508218,485.07882 c 1.449167,-0.37048 0.877582,-2.49291 1.459007,-3.07434 0.348108,-0.34811 1.302685,-0.77739 1.302685,-1.30268 0,-0.23945 -1.531824,-2.65748 -0.364752,-2.65748"
     id="path14207"
     inkscape:connector-curvature="0" />
  <path
     style="fill:none;fill-rule:evenodd;stroke:#000000;stroke-width:1px;stroke-linecap:round;stroke-linejoin:round;stroke-opacity:1"
     d="m 85.195574,484.55774 c 0.17923,-0.33924 0.458414,-0.54152 0.573181,-0.88582 0.222069,-0.66621 0.128361,-1.40309 0.416859,-1.98008 0.359887,-0.71978 1.590845,-1.27193 1.302685,-2.13641"
     id="path14209"
     inkscape:connector-curvature="0" />
  <path
     style="fill:none;fill-rule:evenodd;stroke:#000000;stroke-width:1px;stroke-linecap:round;stroke-linejoin:round;stroke-opacity:1"
     d="m 83.840782,481.95237 c -0.01732,-0.45774 -0.354573,-0.91636 -0.208429,-1.35479"
     id="path14211"
     inkscape:connector-curvature="0" />
  <path
     style="fill:none;fill-rule:evenodd;stroke:#000000;stroke-width:1px;stroke-linecap:round;stroke-linejoin:round;stroke-opacity:1"
     d="m 82.225453,485.80832 c 0.03677,-0.39619 0.07224,-1.00188 -0.104215,-1.35479 -1.148236,-2.29648 1.344265,-3.6791 0.677396,-5.67971"
     id="path14213"
     inkscape:connector-curvature="0" />
  <path
     style="fill:none;fill-rule:evenodd;stroke:#000000;stroke-width:1px;stroke-linecap:round;stroke-linejoin:round;stroke-opacity:1"
     d="m 81.912809,482.05659 c 0.351881,-0.61631 -0.04974,-1.30978 0.104215,-1.77165"
     id="path14215"
     inkscape:connector-curvature="0" />
  <path
     style="fill:none;fill-rule:evenodd;stroke:#000000;stroke-width:1px;stroke-linecap:round;stroke-linejoin:round;stroke-opacity:1"
     d="m 83.267601,484.34931 c -0.02805,0.0519 -0.304893,0.37251 -0.416859,0.26054 -0.286509,-0.28651 -0.634128,-0.63413 -0.885826,-0.88583 -0.03754,-0.0375 -0.387837,0.49206 -0.468966,0.57319 -0.192571,0.19257 -0.689313,0.25656 -0.990041,0.15632"
     id="path14217"
     inkscape:connector-curvature="0" />
  <path
     style="fill:none;fill-rule:evenodd;stroke:#000000;stroke-width:1px;stroke-linecap:round;stroke-linejoin:round;stroke-opacity:1"
     d="m 78.682151,482.21291 c -0.110885,-0.59591 0.0043,-1.28975 -0.156322,-1.77165"
     id="path14219"
     inkscape:connector-curvature="0" />
  <path
     style="fill:none;fill-rule:evenodd;stroke:#000000;stroke-width:1px;stroke-linecap:round;stroke-linejoin:round;stroke-opacity:1"
     d="m 81.026983,480.18072 c 1.35023,-1.34223 -0.738192,-2.55036 0.20843,-2.8659"
     id="path14221"
     inkscape:connector-curvature="0" />
  <path
     style="fill:none;fill-rule:evenodd;stroke:#000000;stroke-width:1px;stroke-linecap:round;stroke-linejoin:round;stroke-opacity:1"
     d="m 81.964916,479.2949 c 0.206892,-0.44533 0.259358,-0.78279 -0.104215,-1.14637"
     id="path14223"
     inkscape:connector-curvature="0" />
  <path
     style="fill:none;fill-rule:evenodd;stroke:#000000;stroke-width:1px;stroke-linecap:round;stroke-linejoin:round;stroke-opacity:1"
     d="m 79.932728,478.6175 c -0.584425,0.93744 0.909,2.26955 0.468967,2.70958"
     id="path14225"
     inkscape:connector-curvature="0" />
  <path
     style="fill:none;fill-rule:evenodd;stroke:#000000;stroke-width:1px;stroke-linecap:round;stroke-linejoin:round;stroke-opacity:1"
     d="m 98.691387,481.4313 c 0.383739,-0.30431 0.84336,-0.33323 1.250577,-0.46897"
     id="path14227"
     inkscape:connector-curvature="0" />
  <path
     style="fill:none;fill-rule:evenodd;stroke:#000000;stroke-width:1px;stroke-linecap:round;stroke-linejoin:round;stroke-opacity:1"
     d="m 88.113588,489.35162 c 0.08304,-0.46096 -0.03673,-1.58571 0.364751,-1.71954"
     id="path14229"
     inkscape:connector-curvature="0" />
  <path
     style="fill:none;fill-rule:evenodd;stroke:#000000;stroke-width:1px;stroke-linecap:round;stroke-linejoin:round;stroke-opacity:1"
     d="m 86.289829,488.93476 c 0.754486,-0.41664 1.266436,-1.0059 1.719544,-1.459"
     id="path14231"
     inkscape:connector-curvature="0" />
  <path
     style="fill:none;fill-rule:evenodd;stroke:#000000;stroke-width:1px;stroke-linecap:round;stroke-linejoin:round;stroke-opacity:1"
     d="m 88.738876,485.96464 c 0.314296,-0.62015 0.267761,-1.459 1.042148,-1.459"
     id="path14233"
     inkscape:connector-curvature="0" />
  <path
     style="fill:none;fill-rule:evenodd;stroke:#000000;stroke-width:1px;stroke-linecap:round;stroke-linejoin:round;stroke-opacity:1"
     d="m 81.28752,486.06886 c -0.231611,-0.53816 -1.065393,-0.95343 -1.511114,-1.25058"
     id="path14235"
     inkscape:connector-curvature="0" />
  <path
     style="fill:none;fill-rule:evenodd;stroke:#000000;stroke-width:1px;stroke-linecap:round;stroke-linejoin:round;stroke-opacity:1"
     d="m 81.49595,489.09109 c 0.367688,-0.38884 0.652288,-0.7044 0.937933,-0.99005"
     id="path14237"
     inkscape:connector-curvature="0" />
  <path
     style="fill:none;fill-rule:evenodd;stroke:#000000;stroke-width:1px;stroke-linecap:round;stroke-linejoin:round;stroke-opacity:1"
     d="m 86.967225,481.27498 c 0.48645,-0.13283 0.692624,-0.37998 0.937933,-0.62529"
     id="path14239"
     inkscape:connector-curvature="0" />
  <text
     xml:space="preserve"
     style="font-size:10px;font-style:normal;font-variant:normal;font-weight:normal;font-stretch:normal;text-align:start;line-height:127.99999714%;letter-spacing:2.5px;word-spacing:0px;text-anchor:start;fill:#000000;fill-opacity:1;stroke:none;font-family:Arial;-inkscape-font-specification:Arial"
     x="187.80258"
     y="72.254227"
     id="text14241"
     sodipodi:linespacing="128%"><tspan
       sodipodi:role="line"
       id="tspan14243"
       x="187.80258"
       y="72.254227">Frontal Silhouette Area =</tspan><tspan
       sodipodi:role="line"
       x="187.80258"
       y="85.05423"
       id="tspan14245" /><tspan
       sodipodi:role="line"
       x="187.80258"
       y="97.854225"
       id="tspan14247">maximum (max.) height X max. width</tspan></text>
  <text
     xml:space="preserve"
     style="font-style:normal;font-variant:normal;font-weight:normal;font-stretch:normal;font-size:10px;line-height:127.99999714%;font-family:Arial;-inkscape-font-specification:Arial;text-align:start;letter-spacing:2.5px;word-spacing:0px;text-anchor:start;fill:#000000;fill-opacity:1;stroke:none;stroke-width:1px;stroke-linecap:butt;stroke-linejoin:miter;stroke-opacity:1"
     x="221.52284"
     y="253.65945"
     id="text14241-5"
     sodipodi:linespacing="128%"><tspan
       sodipodi:role="line"
       id="tspan14243-8"
       x="221.52284"
       y="253.65945">Frontal Silhouette Area =</tspan><tspan
       sodipodi:role="line"
       x="221.52284"
       y="266.45944"
       id="tspan14247-4" /><tspan
       sodipodi:role="line"
       x="221.52284"
       y="279.25946"
       id="tspan14275">max. height X <tspan
   style="font-size:64.99999762%;baseline-shift:super"
   id="tspan14279">1</tspan>/<tspan
   style="font-size:64.99999762%;baseline-shift:sub"
   id="tspan14277">2</tspan> max. width</tspan></text>
  <text
     xml:space="preserve"
     style="font-style:normal;font-variant:normal;font-weight:normal;font-stretch:normal;font-size:10px;line-height:127.99999714%;font-family:Arial;-inkscape-font-specification:Arial;text-align:start;letter-spacing:2.5px;word-spacing:0px;text-anchor:start;fill:#000000;fill-opacity:1;stroke:none;stroke-width:1px;stroke-linecap:butt;stroke-linejoin:miter;stroke-opacity:1"
     x="228.87051"
     y="453.49307"
     id="text14241-5-0"
     sodipodi:linespacing="128%"><tspan
       sodipodi:role="line"
       id="tspan14243-8-6"
       x="228.87051"
       y="453.49307">Frontal Silhouette Area =</tspan><tspan
       sodipodi:role="line"
       x="228.87051"
       y="466.29306"
       id="tspan14247-4-0" /><tspan
       sodipodi:role="line"
       x="228.87051"
       y="479.09308"
       id="tspan14275-1">(3.14 X max. height X <tspan
   style="font-size:64.99999762%;baseline-shift:super"
   id="tspan14279-3">1</tspan>/<tspan
   style="font-size:64.99999762%;baseline-shift:sub"
   id="tspan14277-5">2</tspan> max.</tspan><tspan
       sodipodi:role="line"
       x="228.87051"
       y="491.89307"
       id="tspan14323">width) /2</tspan></text>
  <text
     xml:space="preserve"
     style="font-style:normal;font-variant:normal;font-weight:normal;font-stretch:normal;font-size:10px;line-height:127.99999714%;font-family:Arial;-inkscape-font-specification:Arial;text-align:start;letter-spacing:2.5px;word-spacing:0px;text-anchor:start;fill:#000000;fill-opacity:1;stroke:none;stroke-width:1px;stroke-linecap:butt;stroke-linejoin:miter;stroke-opacity:1"
     x="374.12408"
     y="516.58301"
     id="text14241-5-8"
     sodipodi:linespacing="128%"><tspan
       sodipodi:role="line"
       x="374.12408"
       y="516.58301"
       id="tspan14275-6">Eq. 16</tspan></text>
  <text
     xml:space="preserve"
     style="font-style:normal;font-variant:normal;font-weight:normal;font-stretch:normal;font-size:10px;line-height:127.99999714%;font-family:Arial;-inkscape-font-specification:Arial;text-align:start;letter-spacing:2.5px;word-spacing:0px;text-anchor:start;fill:#000000;fill-opacity:1;stroke:none;stroke-width:1px;stroke-linecap:butt;stroke-linejoin:miter;stroke-opacity:1"
     x="380.8645"
     y="305.14731"
     id="text14241-5-8-9"
     sodipodi:linespacing="128%"><tspan
       sodipodi:role="line"
       x="380.8645"
       y="305.14731"
       id="tspan14275-6-1">Eq. 15</tspan></text>
  <text
     xml:space="preserve"
     style="font-style:normal;font-variant:normal;font-weight:normal;font-stretch:normal;font-size:10px;line-height:127.99999714%;font-family:Arial;-inkscape-font-specification:Arial;text-align:start;letter-spacing:2.5px;word-spacing:0px;text-anchor:start;fill:#000000;fill-opacity:1;stroke:none;stroke-width:1px;stroke-linecap:butt;stroke-linejoin:miter;stroke-opacity:1"
     x="367.63034"
     y="123.21358"
     id="text14241-5-8-9-5"
     sodipodi:linespacing="128%"><tspan
       sodipodi:role="line"
       x="367.63034"
       y="123.21358"
       id="tspan14275-6-1-4">Eq. 14</tspan></text>
  <text
     xml:space="preserve"
     style="font-style:normal;font-variant:normal;font-weight:normal;font-stretch:normal;font-size:10px;line-height:127.99999714%;font-family:Arial;-inkscape-font-specification:Arial;text-align:start;letter-spacing:2.5px;word-spacing:0px;text-anchor:start;fill:#000000;fill-opacity:1;stroke:none;stroke-width:1px;stroke-linecap:butt;stroke-linejoin:miter;stroke-opacity:1"
     x="188.66275"
     y="46.683937"
     id="text14241-5-8-9-5-9"
     sodipodi:linespacing="128%"><tspan
       sodipodi:role="line"
       x="188.66275"
       y="46.683937"
       id="tspan14275-6-1-4-1">Cylinder;</tspan></text>
  <text
     xml:space="preserve"
     style="font-style:normal;font-variant:normal;font-weight:normal;font-stretch:normal;font-size:10px;line-height:127.99999714%;font-family:Arial;-inkscape-font-specification:Arial;text-align:start;letter-spacing:2.5px;word-spacing:0px;text-anchor:start;fill:#000000;fill-opacity:1;stroke:none;stroke-width:1px;stroke-linecap:butt;stroke-linejoin:miter;stroke-opacity:1"
     x="222.54234"
     y="228.60547"
     id="text14241-5-8-9-5-9-8"
     sodipodi:linespacing="128%"><tspan
       sodipodi:role="line"
       x="222.54234"
       y="228.60547"
       id="tspan14275-6-1-4-1-8">Inverted Cone;</tspan></text>
  <text
     xml:space="preserve"
     style="font-style:normal;font-variant:normal;font-weight:normal;font-stretch:normal;font-size:10px;line-height:127.99999714%;font-family:Arial;-inkscape-font-specification:Arial;text-align:start;letter-spacing:2.5px;word-spacing:0px;text-anchor:start;fill:#000000;fill-opacity:1;stroke:none;stroke-width:1px;stroke-linecap:butt;stroke-linejoin:miter;stroke-opacity:1"
     x="229.9955"
     y="427.90308"
     id="text14241-5-8-9-5-9-8-8"
     sodipodi:linespacing="128%"><tspan
       sodipodi:role="line"
       x="229.9955"
       y="427.90308"
       id="tspan14275-6-1-4-1-8-6">Upper Sphere;</tspan></text>
  <text
     xml:space="preserve"
     style="font-style:normal;font-variant:normal;font-weight:normal;font-stretch:normal;font-size:10px;line-height:127.99999714%;font-family:Arial;-inkscape-font-specification:Arial;text-align:start;letter-spacing:2.5px;word-spacing:0px;text-anchor:start;fill:#000000;fill-opacity:1;stroke:none;stroke-width:1px;stroke-linecap:butt;stroke-linejoin:miter;stroke-opacity:1"
     x="7.9702091"
     y="20.907473"
     id="text14241-5-8-9-5-9-8-8-7"
     sodipodi:linespacing="128%"><tspan
       sodipodi:role="line"
       x="7.9702091"
       y="20.907473"
       id="tspan14275-6-1-4-1-8-6-0">Figure B</tspan></text>
  <text
     xml:space="preserve"
     style="font-style:normal;font-variant:normal;font-weight:normal;font-stretch:normal;font-size:10px;line-height:127.99999714%;font-family:Arial;-inkscape-font-specification:Arial;text-align:start;letter-spacing:2.5px;word-spacing:0px;text-anchor:start;fill:#000000;fill-opacity:1;stroke:none;stroke-width:1px;stroke-linecap:butt;stroke-linejoin:miter;stroke-opacity:1"
     x="6.5470104"
     y="215.92645"
     id="text14241-5-8-9-5-9-8-8-7-2"
     sodipodi:linespacing="128%"><tspan
       sodipodi:role="line"
       x="6.5470104"
       y="215.92645"
       id="tspan14275-6-1-4-1-8-6-0-9">Figure C</tspan></text>
  <text
     xml:space="preserve"
     style="font-style:normal;font-variant:normal;font-weight:normal;font-stretch:normal;font-size:10px;line-height:127.99999714%;font-family:Arial;-inkscape-font-specification:Arial;text-align:start;letter-spacing:2.5px;word-spacing:0px;text-anchor:start;fill:#000000;fill-opacity:1;stroke:none;stroke-width:1px;stroke-linecap:butt;stroke-linejoin:miter;stroke-opacity:1"
     x="9.7748737"
     y="403.14215"
     id="text14241-5-8-9-5-9-8-8-7-1"
     sodipodi:linespacing="128%"><tspan
       sodipodi:role="line"
       x="9.7748737"
       y="403.14215"
       id="tspan14275-6-1-4-1-8-6-0-97">Figure D</tspan></text>
  <text
     xml:space="preserve"
     style="font-style:normal;font-variant:normal;font-weight:normal;font-stretch:normal;font-size:7.5px;line-height:114.99999762%;font-family:Arial;-inkscape-font-specification:Arial;text-align:start;letter-spacing:2.5px;word-spacing:0px;text-anchor:start;fill:#000000;fill-opacity:1;stroke:none;stroke-width:1px;stroke-linecap:butt;stroke-linejoin:miter;stroke-opacity:1"
     x="39.321159"
     y="56.408386"
     id="text14480"
     sodipodi:linespacing="115%"><tspan
       sodipodi:role="line"
       id="tspan14482"
       x="39.321159"
       y="56.408386">width</tspan></text>
  <text
     xml:space="preserve"
     style="font-style:normal;font-variant:normal;font-weight:normal;font-stretch:normal;font-size:7.5px;line-height:114.99999762%;font-family:Arial;-inkscape-font-specification:Arial;text-align:start;letter-spacing:2.5px;word-spacing:0px;text-anchor:start;fill:#000000;fill-opacity:1;stroke:none;stroke-width:1px;stroke-linecap:butt;stroke-linejoin:miter;stroke-opacity:1"
     x="71.590958"
     y="262.69717"
     id="text14480-4"
     sodipodi:linespacing="115%"><tspan
       sodipodi:role="line"
       id="tspan14482-4"
       x="71.590958"
       y="262.69717"><tspan
   style="font-size:64.99999762%;letter-spacing:0.75px;baseline-shift:super"
   id="tspan14504">1</tspan><tspan
   style="letter-spacing:0.75px"
   id="tspan14506">/</tspan><tspan
   style="font-size:64.99999762%;letter-spacing:0.75px;baseline-shift:sub"
   id="tspan14502">2</tspan> width</tspan></text>
  <text
     xml:space="preserve"
     style="font-style:normal;font-variant:normal;font-weight:normal;font-stretch:normal;font-size:7.5px;line-height:114.99999762%;font-family:Arial;-inkscape-font-specification:Arial;text-align:start;letter-spacing:2.5px;word-spacing:0px;text-anchor:start;fill:#000000;fill-opacity:1;stroke:none;stroke-width:1px;stroke-linecap:butt;stroke-linejoin:miter;stroke-opacity:1"
     x="65.635033"
     y="515.79877"
     id="text14480-4-2"
     sodipodi:linespacing="115%"><tspan
       sodipodi:role="line"
       id="tspan14482-4-7"
       x="65.635033"
       y="515.79877"><tspan
   style="font-size:64.99999762%;letter-spacing:0.75px;baseline-shift:super"
   id="tspan14504-2">1</tspan><tspan
   style="letter-spacing:0.75px"
   id="tspan14506-3">/</tspan><tspan
   style="font-size:64.99999762%;letter-spacing:0.75px;baseline-shift:sub"
   id="tspan14502-6">2</tspan> width</tspan></text>
  <text
     xml:space="preserve"
     style="font-style:normal;font-variant:normal;font-weight:normal;font-stretch:normal;font-size:7.5px;line-height:114.99999762%;font-family:Arial;-inkscape-font-specification:Arial;text-align:start;letter-spacing:2.5px;word-spacing:0px;text-anchor:start;fill:#000000;fill-opacity:1;stroke:none;stroke-width:1px;stroke-linecap:butt;stroke-linejoin:miter;stroke-opacity:1"
     x="97.707253"
     y="120.96493"
     id="text14480-9"
     sodipodi:linespacing="115%"><tspan
       sodipodi:role="line"
       id="tspan14482-6"
       x="97.707253"
       y="120.96493">height</tspan></text>
  <text
     xml:space="preserve"
     style="font-style:normal;font-variant:normal;font-weight:normal;font-stretch:normal;font-size:7.5px;line-height:114.99999762%;font-family:Arial;-inkscape-font-specification:Arial;text-align:start;letter-spacing:2.5px;word-spacing:0px;text-anchor:start;fill:#000000;fill-opacity:1;stroke:none;stroke-width:1px;stroke-linecap:butt;stroke-linejoin:miter;stroke-opacity:1"
     x="134.43353"
     y="474.11014"
     id="text14480-9-7"
     sodipodi:linespacing="115%"><tspan
       sodipodi:role="line"
       id="tspan14482-6-1"
       x="134.43353"
       y="474.11014">height</tspan></text>
  <text
     xml:space="preserve"
     style="font-style:normal;font-variant:normal;font-weight:normal;font-stretch:normal;font-size:7.5px;line-height:114.99999762%;font-family:Arial;-inkscape-font-specification:Arial;text-align:start;letter-spacing:2.5px;word-spacing:0px;text-anchor:start;fill:#000000;fill-opacity:1;stroke:none;stroke-width:1px;stroke-linecap:butt;stroke-linejoin:miter;stroke-opacity:1"
     x="152.33347"
     y="310.36978"
     id="text14480-9-8"
     sodipodi:linespacing="115%"><tspan
       sodipodi:role="line"
       id="tspan14482-6-4"
       x="152.33347"
       y="310.36978">height</tspan></text>
</svg>
