<?xml version="1.0" encoding="UTF-8" standalone="no"?>
<!-- Created with Inkscape (http://www.inkscape.org/) -->

<svg
   xmlns:dc="http://purl.org/dc/elements/1.1/"
   xmlns:cc="http://creativecommons.org/ns#"
   xmlns:rdf="http://www.w3.org/1999/02/22-rdf-syntax-ns#"
   xmlns:svg="http://www.w3.org/2000/svg"
   xmlns="http://www.w3.org/2000/svg"
   xmlns:sodipodi="http://sodipodi.sourceforge.net/DTD/sodipodi-0.dtd"
   xmlns:inkscape="http://www.inkscape.org/namespaces/inkscape"
   id="svg6311"
   version="1.1"
   inkscape:version="0.91 r13725"
   width="1360"
   height="1348"
   sodipodi:docname="er22jy97.023.svg">
  <title id="title_er22jy97.023"></title>
  <desc id="desc_er22jy97.023"></desc>
  <metadata
     id="metadata6317">
    <rdf:RDF>
      <cc:Work
         rdf:about="">
        <dc:format>image/svg+xml</dc:format>
        <dc:type
           rdf:resource="http://purl.org/dc/dcmitype/StillImage" />
        <dc:title />
      </cc:Work>
    </rdf:RDF>
  </metadata>
  <defs
     id="defs6315" />
  <sodipodi:namedview
     pagecolor="#ffffff"
     bordercolor="#666666"
     borderopacity="1"
     objecttolerance="10"
     gridtolerance="10"
     guidetolerance="10"
     inkscape:pageopacity="0"
     inkscape:pageshadow="2"
     inkscape:window-width="1280"
     inkscape:window-height="756"
     id="namedview6313"
     showgrid="false"
     inkscape:zoom="0.34447158"
     inkscape:cx="345.39011"
     inkscape:cy="674.22824"
     inkscape:window-x="382"
     inkscape:window-y="18"
     inkscape:window-maximized="0"
     inkscape:current-layer="svg6311" />
  <path
     inkscape:connector-curvature="0"
     d="M 678.50855,3.7279171 1348.5529,673.77125 678.50855,1343.8156 8.4651853,673.77125 678.50855,3.7279171 z"
     style="fill:none;fill-opacity:1;fill-rule:evenodd;stroke:#000000;stroke-opacity:1;stroke-width:4;stroke-miterlimit:4;stroke-dasharray:16, 8;stroke-dashoffset:0"
     id="path4653" />
  <path
     inkscape:connector-curvature="0"
     d="M 678.50957,80.313754 908.90724,310.71144 678.50957,541.10945 448.1109,310.71144 678.50957,80.313754 z"
     style="fill:#000000;fill-opacity:1;fill-rule:evenodd;stroke:none"
     id="path4655" />
  <path
     inkscape:connector-curvature="0"
     d="m 630.01858,316.33081 c -15.56475,-6.05996 -33.71022,-17.15794 -50.12038,-28.20581 -10.95893,-7.37705 -15.95954,-14.72166 -19.6835,-18.4667 -5.12627,-5.15203 -12.57053,-3.35824 -14.20418,4.26217 -1.10884,5.16174 3.29006,14.77282 7.60905,7.30586 0.87749,-1.51967 2.14145,3.21918 1.31808,4.76827 -2.39149,4.50116 -7.03674,7.27475 -9.94304,11.46404 -5.64375,8.13789 -2.75752,16.55154 9.03043,16.33528 6.97158,-0.12784 14.44423,-6.40664 21.30648,-5.17477 17.01882,3.05806 32.81328,12.57554 49.20908,18.06118 9.11133,3.04736 10.51361,-8.38825 5.47798,-10.34952 z m 4.26244,31.45306 c 13.26524,-4.26986 15.44471,6.6861 10.04536,10.04533 -9.38584,5.83634 -20.25382,9.40016 -29.32301,15.52229 -9.47505,6.39825 -12.13089,7.90121 -15.72621,13.90135 -3.95792,6.6028 -6.58684,14.24496 -15.11881,17.04494 -6.41328,2.10568 -12.59727,0.44928 -10.04431,-7.20354 2.22568,-6.67105 2.10467,-11.88827 -0.40484,-17.24889 -1.32074,-2.81804 -3.69052,-2.97248 -2.84073,1.52301 1.01286,5.36432 -1.33416,7.66488 -6.59517,2.83979 -5.19851,-4.76627 -4.05459,-12.4238 1.52101,-15.62458 5.09988,-2.92737 9.34399,0.30887 11.7699,0.10134 6.6794,-0.57062 11.60411,0.024 17.75667,-2.63819 9.85214,-4.26216 25.71197,-13.99759 38.96014,-18.26277 z m 84.71975,-36.83175 c -0.1923,7.2945 0.67853,14.43386 2.02973,22.83016 0.74019,4.59978 -2.66653,9.42021 -6.08837,12.58021 -5.84468,5.40207 -14.16237,7.3921 -20.59575,12.07413 -9.832,7.15909 -19.75803,6.17059 -28.50995,0.10247 -5.28948,-3.66713 -10.58061,-7.33226 -15.8295,-11.05924 -5.72598,-4.06793 -5.87686,-9.7458 -7.10195,-18.05917 -1.15027,-7.81265 0.57493,-9.74215 1.92819,-12.48129 1.08203,5.10624 1.28799,11.76122 3.2466,15.32037 2.32891,4.23576 20.87253,13.79871 32.5692,13.19132 12.53778,-0.65186 32.52315,-10.3268 33.78648,-16.64148 1.18069,-5.90052 2.88349,-15.9241 4.56532,-17.8573 z m 0.0987,45.71745 c -8.87031,-3.46823 -0.23803,-13.21035 9.52048,-9.51782 10.06705,3.8102 23.34831,11.57401 33.70919,14.49902 7.26238,2.05052 11.9682,1.61563 19.25895,-0.33161 7.86681,-2.10266 16.42417,-2.39082 23.20422,1.19876 4.13911,2.19193 8.55304,9.42087 2.74814,13.58444 -5.24961,3.76572 -9.60836,10.25859 -10.40364,8.49522 -1.68286,-3.72963 -0.4035,-7.03675 1.54072,-9.25976 1.86025,-2.12941 0.16023,-3.91918 -1.6694,-1.97296 -4.46984,4.74856 -6.14622,6.36415 -4.93511,17.01588 1.16168,10.21015 -8.46383,15.37454 -15.4665,14.16543 -8.19106,-1.41104 -11.1464,-7.48705 -10.70785,-14.56256 0.24358,-3.95997 1.8546,-15.22576 -1.12561,-12.60763 -0.23124,0.20298 -3.10919,2.86083 -6.61314,-1.06035 -5.06112,-5.66349 -12.11023,-8.21277 -19.23058,-12.50702 -6.46134,-3.89645 -12.31075,-4.19699 -19.82987,-7.13904 z m 11.89862,-45.21032 c 11.09635,-5.43551 23.08418,-10.91549 33.3134,-17.84793 5.95928,-4.03651 10.24721,-8.5992 14.67451,-14.27639 4.40222,-5.64544 6.9522,-13.2652 13.08702,-13.88195 3.91043,-0.39045 7.7702,-0.51748 8.72622,7.9333 0.75921,6.72019 -1.30937,14.11427 1.58615,20.22504 2.93005,-2.71206 9.53857,-6.99963 9.12078,2.38047 -0.28726,6.44439 -7.17255,14.02232 -13.48415,12.68986 -7.71172,-1.62696 -11.46408,-7.26205 -20.62258,-3.96465 -7.59928,2.7358 -15.31562,5.24799 -22.60544,8.72458 -7.16382,3.41708 -13.682,7.68392 -21.0193,10.70855 -3.99779,1.64701 -7.85643,1.01021 -8.72622,-2.77627 -0.56198,-2.44765 -0.53722,-4.61281 0,-6.74222 1.50557,-0.97879 4.07261,-2.25411 5.94961,-3.17239 z m -31.32985,-57.90221 c -4.09471,-0.84543 -9.30249,6.73254 -7.13936,10.31074 3.1764,5.257 10.32316,9.47204 15.4665,14.27808 2.55759,2.38782 8.99159,1.25759 10.31175,-1.98332 1.66508,-4.09166 5.43348,-8.04863 7.53515,-11.50083 3.13756,-5.15503 -0.42724,-11.92167 -6.34582,-11.50282 -6.13677,0.43591 -13.68436,1.66676 -19.82822,0.39815 z m -22.20966,29.74353 c 6.23811,-0.58367 13.77593,14.42818 12.69123,24.19101 -0.65797,5.91122 -9.36343,1.54743 -11.89903,-1.18837 -4.08392,2.33801 -11.35976,6.08737 -11.50077,1.98332 -0.28716,-8.33111 5.32916,-24.48084 10.70857,-24.98596 z m -47.19539,-23.39844 c 4.89903,-8.16263 25.29119,-9.26376 33.3134,-5.15604 2.35378,1.20645 2.15953,6.4056 0,7.93129 -5.27171,3.72596 -8.69611,8.72358 -11.89626,12.29511 -2.9173,3.25662 -9.52017,3.31645 -13.08867,0.79391 -7.66053,-5.42112 -11.40149,-10.74465 -8.32837,-15.86427 z m 59.88662,-94.78608 c 19.53233,8.97057 36.05815,20.32564 54.33167,34.90055 10.95586,8.73862 5.33389,30.4696 0,41.24434 -0.74112,1.49929 -3.40107,0.077 -3.5689,-1.58519 -0.82036,-8.16896 0.8625,-21.34623 -8.72417,-32.91725 2.72604,8.62696 4.95104,17.756 3.5685,27.36542 -1.49797,10.42542 -0.92396,21.03435 0.39712,31.32906 2.69295,20.99457 0.83568,17.99266 -8.7256,28.15834 -4.78527,5.08954 -12.12792,8.18235 -18.6388,10.70957 -5.57088,2.15981 -5.55752,7.47097 -5.949,13.08733 -0.22837,3.25597 -1.54174,7.77686 -4.75957,8.32809 -12.61733,2.16051 -27.3644,1.58085 -40.05563,-0.39679 -2.59243,-0.40484 -2.54988,-3.73933 -3.96562,-5.94897 -1.91514,-2.98586 -2.15018,-7.11564 -4.7606,-9.51849 -5.96031,-5.48867 -13.87922,-8.46281 -20.6232,-12.69021 -6.83216,-4.28288 -8.50762,-11.10202 -10.3097,-17.4508 -1.91616,-6.73923 0,-14.01264 0,-21.01931 0,-5.55285 0.95233,-11.18625 0,-16.65653 -0.92097,-5.29142 -5.7862,-20.2558 1.18902,-34.90056 -12.87006,15.29697 -5.7233,26.00919 -7.53515,40.84953 -1.1663,9.5516 -9.07895,-17.74931 -10.31144,-26.96827 -1.30773,-9.79261 4.12585,-21.41176 12.29379,-26.96828 16.51071,-11.23102 34.76985,-19.31677 53.54143,-28.15665 5.98302,-2.82005 16.59426,-3.55548 22.60585,-0.79493"
     style="fill:#ffffff;fill-opacity:1;fill-rule:evenodd;stroke:none"
     id="path4691" />
  <path
     inkscape:connector-curvature="0"
     d="M 82.005346,673.77125 678.50855,77.268077 1275.0118,673.77125 678.50855,1270.2745 82.005346,673.77125 z m 9.05883,0 L 678.50855,86.32691 1265.9529,673.77125 678.50855,1261.2157 91.064176,673.77125 z"
     style="fill:#000000;fill-opacity:1;fill-rule:evenodd;stroke:none"
     id="path4693" />
  <text
     xml:space="preserve"
     style="font-size:135px;font-style:normal;font-variant:normal;font-weight:bold;font-stretch:normal;text-align:start;line-height:110%;letter-spacing:0px;word-spacing:0px;writing-mode:lr-tb;text-anchor:start;fill:#000000;fill-opacity:1;stroke:none;font-family:Arial;-inkscape-font-specification:Helvetica CY Bold"
     x="686.90863"
     y="751.10724"
     id="text6910"
     sodipodi:linespacing="110%"><tspan
       sodipodi:role="line"
       id="tspan6912"
       x="686.90863"
       y="751.10724"
       style="font-size:135px;font-style:normal;font-variant:normal;font-weight:bold;font-stretch:condensed;text-align:center;line-height:110%;text-anchor:middle;font-family:'Arial Narrow';-inkscape-font-specification:'Arial Narrow Bold Condensed';fill:#000000;fill-opacity:1">INHALATION</tspan><tspan
       sodipodi:role="line"
       x="686.90863"
       y="875.30725"
       id="tspan6914"
       style="font-size:135px;font-style:normal;font-variant:normal;font-weight:bold;font-stretch:condensed;text-align:center;line-height:110%;text-anchor:middle;font-family:'Arial Narrow';-inkscape-font-specification:'Arial Narrow Bold Condensed';fill:#000000;fill-opacity:1">HAZARD</tspan></text>
  <text
     sodipodi:linespacing="110%"
     id="text6926"
     y="1191.8907"
     x="682.62781"
     style="font-size:135px;font-style:normal;font-variant:normal;font-weight:bold;font-stretch:normal;text-align:start;line-height:110.00000238000001218%;letter-spacing:0px;word-spacing:0px;writing-mode:lr-tb;text-anchor:start;fill:#000000;fill-opacity:1;stroke:none;font-family:Arial;-inkscape-font-specification:Helvetica CY Bold"
     xml:space="preserve"><tspan
       style="font-size:135px;font-style:normal;font-variant:normal;font-weight:bold;font-stretch:normal;text-align:center;line-height:110.00000238%;text-anchor:middle;font-family:Arial;-inkscape-font-specification:'Arial Bold';fill:#000000;fill-opacity:1"
       id="tspan6930"
       y="1191.8907"
       x="682.62781"
       sodipodi:role="line">6</tspan></text>
</svg>
