<?xml version="1.0" encoding="UTF-8" standalone="no"?>
<!-- Created with Inkscape (http://www.inkscape.org/) -->

<svg
   xmlns:dc="http://purl.org/dc/elements/1.1/"
   xmlns:cc="http://creativecommons.org/ns#"
   xmlns:rdf="http://www.w3.org/1999/02/22-rdf-syntax-ns#"
   xmlns:svg="http://www.w3.org/2000/svg"
   xmlns="http://www.w3.org/2000/svg"
   xmlns:sodipodi="http://sodipodi.sourceforge.net/DTD/sodipodi-0.dtd"
   xmlns:inkscape="http://www.inkscape.org/namespaces/inkscape"
   id="svg29562"
   version="1.1"
   inkscape:version="0.48.2 r9819"
   width="1260"
   height="1236"
   viewBox="0 0 1260 1236"
   sodipodi:docname="er22de99.010.svg">
  <metadata
     id="metadata29568">
    <rdf:RDF>
      <cc:Work
         rdf:about="">
        <dc:format>image/svg+xml</dc:format>
        <dc:type
           rdf:resource="http://purl.org/dc/dcmitype/StillImage" />
        <dc:title></dc:title>
      </cc:Work>
    </rdf:RDF>
  </metadata>
  <defs
     id="defs29566" />
  <sodipodi:namedview
     pagecolor="#ffffff"
     bordercolor="#666666"
     borderopacity="1"
     objecttolerance="10"
     gridtolerance="10"
     guidetolerance="10"
     inkscape:pageopacity="0"
     inkscape:pageshadow="2"
     inkscape:window-width="960"
     inkscape:window-height="556"
     id="namedview29564"
     showgrid="false"
     inkscape:zoom="0.38956311"
     inkscape:cx="630"
     inkscape:cy="266.01347"
     inkscape:window-x="0"
     inkscape:window-y="0"
     inkscape:window-maximized="0"
     inkscape:current-layer="svg29562" />
  <path
     style="color:#000000;display:inline;overflow:visible;visibility:visible;fill:none;fill-rule:evenodd;stroke:#000000;stroke-width:4;stroke-linecap:butt;stroke-linejoin:round;stroke-miterlimit:4;stroke-dasharray:none;stroke-dashoffset:0;stroke-opacity:1;marker:none;enable-background:accumulate"
     d="m 125.40381,42.391782 c -3.0084,2.90109 -16.998,-0.31906 -27.440098,-5.77129 -7.1173,-3.71622 -11.034,-7.94645 -12.134,-11.29341 m 42.077598,159.770478 6.1257,406.62828 m 0.6057,40.20641 1.7371,115.30919 c 0.1818,12.07086 -42.374498,-3.18827 -42.721798,-33.73826 l -7.8494,-690.370648 c -0.01,-0.8528 0.2387,-1.63516 0.6022,-2.32788 1.9569,-3.72963 15.409398,-2.09591 26.412098,3.64902 8.9768,4.68716 12.8398,10.66279 12.8903,14.72999 l 1.2381,99.655148"
     id="path22446"
     inkscape:connector-curvature="0"
     sodipodi:nodetypes="csccccssssssc" />
  <path
     style="color:#000000;display:inline;overflow:visible;visibility:visible;fill:none;fill-rule:evenodd;stroke:#000000;stroke-width:4;stroke-linecap:butt;stroke-linejoin:round;stroke-miterlimit:4;stroke-dasharray:none;stroke-dashoffset:0;stroke-opacity:1;marker:none;enable-background:accumulate"
     d="m 1000.6539,520.48646 c -3.00829,2.90109 -15.77439,0.41504 -27.43999,-4.30311 -7.4433,-3.01046 -11.0341,-7.94645 -12.134,-11.29341 m 2.7687,344.29154 -2.7939,-346.48609 c -0.01,-0.85283 0.2388,-1.63516 0.6023,-2.32788 1.9569,-3.72964 15.4094,-1.60652 26.4121,3.64902 9.1379,4.36479 12.87609,9.19433 12.89029,13.26182 l 1.2066,345.57641 c 0.042,12.07209 -38.20709,-2.2e-4 -38.31739,-13.67328 z"
     id="path22446-6"
     inkscape:connector-curvature="0"
     sodipodi:nodetypes="cscsssssss" />
  <path
     style="fill:none;stroke:#000000;stroke-width:4;stroke-linecap:butt;stroke-linejoin:miter;stroke-miterlimit:4;stroke-dasharray:none;stroke-opacity:1"
     d="m 962.29701,615.56895 -829.0257,-473.8416 c -9.9555,-5.69023 -19.2232,-0.49424 -19.1773,14.25608 0.044,14.24634 5.3517,23.33241 14.0387,28.32091 l 833.6749,478.73549"
     id="path14359-1-7-5-3-0-73-1-9-9"
     inkscape:connector-curvature="0"
     sodipodi:nodetypes="csssc" />
  <path
     style="fill:none;stroke:#000000;stroke-width:4;stroke-linecap:butt;stroke-linejoin:miter;stroke-miterlimit:4;stroke-dasharray:none;stroke-opacity:1"
     d="M 563.00721,836.16298 144.43901,592.90835 c -9.9143,-5.76179 -19.2232,-0.49424 -19.1773,14.25608 0.044,14.24634 5.4023,23.24519 14.0387,28.32091 l 397.2487,233.46901"
     id="path14359-1-7-5-3-0-73-1-9-9-6"
     inkscape:connector-curvature="0"
     sodipodi:nodetypes="csssc" />
  <path
     style="fill:none;stroke:#000000;stroke-width:4;stroke-linecap:butt;stroke-linejoin:round;stroke-miterlimit:4;stroke-dasharray:none;stroke-opacity:1"
     d="m 913.93431,748.8775 -0.014,-34.19179 m 15.7573,-56.78022 -15.7701,-9.68527 m 15.887,107.29436 -0.011,-51.23454 -62.8384,39.45522 -81.9744,95.18543 -26.9126,20.25341 -88.8683,-3.34231 -15.0553,-9.16156 -0.2224,-44.10336 91.2684,-108.09801 15.3833,-10.91537 94.9121,0.16371 58.3772,-35.49663 -0.011,-13.1035 m -259.9972,167.48403 16.2276,6.85109 87.3627,-103.60194 15.2231,-12.2115 96.1184,0.5375 60.9957,-36.27114 0,-13.29306 m -0.01,-47.85511 0,-19.37018 m -15.9518,10.06478 -0.014,-17.27725 17.3604,-13.35447 14.6873,8.98315 -4e-4,40.44901 m 0,-40.449 -16.3183,11.46913 -15.7755,-7.10141 m 32.0933,83.74653 -10e-4,106.90497"
     id="path14359-1-7-5-3-0-73-1-9-9-3"
     inkscape:connector-curvature="0"
     sodipodi:nodetypes="cccccccccccccccccccccccccccccccccccc" />
  <path
     style="fill:none;stroke:#000000;stroke-width:4;stroke-linecap:butt;stroke-linejoin:miter;stroke-miterlimit:4;stroke-dasharray:none;stroke-opacity:1"
     d="m 669.88821,808.91002 0,46.87875"
     id="path14359-1-7-5-3-0-73-1-9-9-38"
     inkscape:connector-curvature="0"
     sodipodi:nodetypes="cc" />
  <path
     style="fill:none;stroke:#000000;stroke-width:4;stroke-linecap:butt;stroke-linejoin:miter;stroke-miterlimit:4;stroke-dasharray:none;stroke-opacity:1"
     d="m 745.91691,694.28564 11.8557,10.60816"
     id="path14359-1-7-5-3-0-73-1-9-9-2"
     inkscape:connector-curvature="0"
     sodipodi:nodetypes="cc" />
  <path
     style="fill:none;stroke:#000000;stroke-width:4;stroke-linecap:butt;stroke-linejoin:miter;stroke-miterlimit:4;stroke-dasharray:none;stroke-opacity:1"
     d="m 760.33221,683.59046 12.5532,9.67815"
     id="path14359-1-7-5-3-0-73-1-9-9-5"
     inkscape:connector-curvature="0"
     sodipodi:nodetypes="cc" />
  <path
     style="fill:none;stroke:#000000;stroke-width:4;stroke-linecap:butt;stroke-linejoin:miter;stroke-miterlimit:4;stroke-dasharray:none;stroke-opacity:1"
     d="m 774.04991,694.28564 0.7322,31.33824 m 0.3753,16.06116 0.4616,19.75746 m 0.4077,17.44999 0.4234,18.11997 m 0.4018,17.1959 0.2828,12.10532 m 0.2715,11.61884 0.1293,5.53355"
     id="path14359-1-7-5-3-0-73-1-9-9-1"
     inkscape:connector-curvature="0"
     sodipodi:nodetypes="cccccccccc" />
  <path
     style="fill:none;stroke:#000000;stroke-width:4;stroke-linecap:butt;stroke-linejoin:miter;stroke-miterlimit:4;stroke-dasharray:none;stroke-opacity:1"
     d="m 855.19371,684.05548 13.2508,10.37565"
     id="path14359-1-7-5-3-0-73-1-9-9-0"
     inkscape:connector-curvature="0"
     sodipodi:nodetypes="cc" />
  <path
     style="fill:none;stroke:#000000;stroke-width:4;stroke-linecap:butt;stroke-linejoin:miter;stroke-miterlimit:4;stroke-dasharray:none;stroke-opacity:1"
     d="m 962.83731,771.48528 c -27.4879,-16.2395 -55.7405,-27.842 -84.1248,-35.20356 m -173.7285,5.73948 c -88.7819,29.23386 -163.8781,97.74369 -200.5914,190.075 -8.6526,21.7605 33.7589,37.7135 44.3528,14.1804 24.9709,-55.4706 61.9608,-97.40235 105.3196,-125.86357 m 183.6432,-43.48551 c 43.4949,4.74566 86.4121,19.44677 125.1271,44.05952"
     id="path14359-1-7-5-3-0-73-1-9-9-4"
     inkscape:connector-curvature="0"
     sodipodi:nodetypes="cccssccc" />
  <path
     style="fill:#000000;fill-opacity:1;stroke:#000000;stroke-width:4;stroke-linecap:butt;stroke-linejoin:miter;stroke-miterlimit:4;stroke-dasharray:none;stroke-opacity:1"
     d="m 828.82961,495.47682 -24.5438,24.88134 -24.3265,-24.88134 16.0729,0 0,-23.79533 16.5073,0 0,23.79533 z"
     id="path14359-1-7-5-3-0-73-1-9-9-9-3"
     inkscape:connector-curvature="0"
     sodipodi:nodetypes="cccccccc" />
  <text
     xml:space="preserve"
     style="font-style:normal;font-variant:normal;font-weight:normal;font-stretch:normal;font-size:22.5px;line-height:125%;font-family:Arial;-inkscape-font-specification:Arial;text-align:start;letter-spacing:1px;word-spacing:0px;text-anchor:start;fill:#000000;fill-opacity:1;stroke:none;stroke-width:1px;stroke-linecap:butt;stroke-linejoin:miter;stroke-opacity:1"
     x="787.21655"
     y="381.33701"
     id="text23248"
     sodipodi:linespacing="125%"><tspan
       sodipodi:role="line"
       id="tspan23250"
       x="787.21655"
       y="381.33701">POINT AT WHICH SIDE OF 'A' SECTION</tspan><tspan
       sodipodi:role="line"
       x="787.21655"
       y="409.46201"
       id="tspan23252">OF PROBE CONTACTED BOUNDARY</tspan><tspan
       sodipodi:role="line"
       x="787.21655"
       y="437.58701"
       id="tspan23254">OF OPENING</tspan></text>
  <text
     xml:space="preserve"
     style="font-style:normal;font-variant:normal;font-weight:normal;font-stretch:normal;font-size:50px;line-height:125%;font-family:Arial;-inkscape-font-specification:Arial;text-align:start;letter-spacing:1px;word-spacing:0px;text-anchor:start;fill:#000000;fill-opacity:1;stroke:none;stroke-width:1px;stroke-linecap:butt;stroke-linejoin:miter;stroke-opacity:1"
     x="13.183"
     y="1156.6521"
     id="text23256"
     sodipodi:linespacing="125%"><tspan
       sodipodi:role="line"
       id="tspan23258"
       x="13.183"
       y="1156.6521">Fig 4 - Neck Portion of &quot;B&quot; Section of Probe Enters</tspan><tspan
       sodipodi:role="line"
       x="13.183"
       y="1219.1521"
       id="tspan23260">           Completely into Opening</tspan></text>
  <text
     xml:space="preserve"
     style="font-style:normal;font-variant:normal;font-weight:normal;font-stretch:normal;font-size:30px;line-height:125%;font-family:Arial;-inkscape-font-specification:Arial;text-align:start;letter-spacing:1px;word-spacing:0px;text-anchor:start;fill:#000000;fill-opacity:1;stroke:#000000;stroke-width:1px;stroke-linecap:butt;stroke-linejoin:miter;stroke-opacity:1"
     x="728.26709"
     y="805.5177"
     id="text23262"
     sodipodi:linespacing="125%"><tspan
       sodipodi:role="line"
       id="tspan23264"
       x="728.26709"
       y="805.5177">A</tspan></text>
  <text
     xml:space="preserve"
     style="font-style:normal;font-variant:normal;font-weight:normal;font-stretch:normal;font-size:30px;line-height:125%;font-family:Arial;-inkscape-font-specification:Arial;text-align:start;letter-spacing:1px;word-spacing:0px;text-anchor:start;fill:#000000;fill-opacity:1;stroke:#000000;stroke-width:1px;stroke-linecap:butt;stroke-linejoin:miter;stroke-opacity:1"
     x="796.18726"
     y="764.50934"
     id="text23266"
     sodipodi:linespacing="125%"><tspan
       sodipodi:role="line"
       id="tspan23268"
       x="796.18726"
       y="764.50934">B</tspan></text>
</svg>
