<?xml version="1.0" encoding="UTF-8" standalone="no"?>
<!-- Created with Inkscape (http://www.inkscape.org/) -->

<svg
   xmlns:dc="http://purl.org/dc/elements/1.1/"
   xmlns:cc="http://creativecommons.org/ns#"
   xmlns:rdf="http://www.w3.org/1999/02/22-rdf-syntax-ns#"
   xmlns:svg="http://www.w3.org/2000/svg"
   xmlns="http://www.w3.org/2000/svg"
   xmlns:sodipodi="http://sodipodi.sourceforge.net/DTD/sodipodi-0.dtd"
   xmlns:inkscape="http://www.inkscape.org/namespaces/inkscape"
   id="svg11945"
   version="1.1"
   inkscape:version="0.48.2 r9819"
   width="246"
   height="100"
   viewBox="0 0 246 100"
   sodipodi:docname="er22jn98.007.svg">
  <metadata
     id="metadata11951">
    <rdf:RDF>
      <cc:Work
         rdf:about="">
        <dc:format>image/svg+xml</dc:format>
        <dc:type
           rdf:resource="http://purl.org/dc/dcmitype/StillImage" />
        <dc:title></dc:title>
      </cc:Work>
    </rdf:RDF>
  </metadata>
  <defs
     id="defs11949" />
  <sodipodi:namedview
     pagecolor="#ffffff"
     bordercolor="#666666"
     borderopacity="1"
     objecttolerance="10"
     gridtolerance="10"
     guidetolerance="10"
     inkscape:pageopacity="0"
     inkscape:pageshadow="2"
     inkscape:window-width="960"
     inkscape:window-height="556"
     id="namedview11947"
     showgrid="false"
     inkscape:zoom="2.1184459"
     inkscape:cx="39.448186"
     inkscape:cy="54.504232"
     inkscape:window-x="0"
     inkscape:window-y="0"
     inkscape:window-maximized="0"
     inkscape:current-layer="svg11945" />
  <path
     style="fill:none;stroke:#000000;stroke-width:1;stroke-linecap:butt;stroke-linejoin:round;stroke-miterlimit:4;stroke-dasharray:none;stroke-opacity:1"
     d="m 228.27822,97.288372 -41.71335,0 0,-3.396151 16.8658,-3.609142 c 0.67784,-0.145051 1.0411,-0.643379 1.0411,-1.388131 l 0,-23.5336 -7.01107,-3.747955 0.002,-9.226343 c 1.4e-4,-0.710004 0.16715,-1.313915 1.11076,-1.313915 l 16.24014,0 3.81836,3.400922 -0.002,7.000523 -5.69034,0 c -1.0598,0 -1.24932,0.524351 -1.24932,1.249318 l 0,23.95004 3.95617,3.956174 12.632,2.915077 c 0.51887,0.119739 1.17991,0.177487 1.17991,0.971692 l 0,2.01279 c 0,0.722295 -0.59235,0.758701 -1.17991,0.758701 z"
     id="path14359-1-7-5-3-0-73-1-9"
     inkscape:connector-curvature="0"
     sodipodi:nodetypes="sccssccsscccssccssss" />
  <path
     style="fill:none;stroke:#000000;stroke-width:1;stroke-linecap:butt;stroke-linejoin:round;stroke-miterlimit:4;stroke-dasharray:none;stroke-opacity:1"
     d="m 168.31094,62.932118 c 0,-0.778066 -0.58469,-1.526944 -1.38813,-1.526944 l -5.55352,0 0.002,-10.332039 20.96079,0 -0.002,10.332039 -5.48213,0 c -0.92497,0 -1.38813,0.550822 -1.38813,1.388131 l 0,24.019446 3.81736,3.678548 0,5.621933 c 0,0.802398 -0.4485,1.452767 -1.31872,1.452767 l -27.62382,0 0,-3.743184 14.15894,-3.609142 3.10152,-2.864098 c 0.52372,-0.483628 0.71584,-0.905367 0.71584,-1.647329 z"
     id="path14359-1-7-5-3-0-73-1-9-92"
     inkscape:connector-curvature="0"
     sodipodi:nodetypes="ssccccssccsscccsss" />
  <path
     style="fill:none;stroke:#000000;stroke-width:1;stroke-linecap:butt;stroke-linejoin:round;stroke-miterlimit:4;stroke-dasharray:none;stroke-opacity:1"
     d="m 35.327947,51.142541 -21.724258,0 0,10.406216 6.871251,0 0,22.145468 -3.609142,3.400922 -13.1862496,2.915076 -1.3207249,4.293667 95.7116675,0 c 0.8617,0 1.318796,-0.317462 1.318992,-1.244563 l 0.0017,-2.285631 c 5.55e-4,-0.746112 -0.43148,-0.967042 -1.037088,-1.16137 l -9.791305,-3.141838 -3.400922,-3.817362 0,-20.618523 7.565317,-3.956174 -3.400922,-6.935888 -17.837491,0 0,12.701404 c 0,1.166976 -0.82886,1.665757 -1.873977,1.665757 l -11.382678,0 c -0.764724,0 -1.318725,-0.650675 -1.318725,-1.665757 l 0,-12.701404 -7.218284,0 0,14.297755 -10.480393,0 -3.886768,-3.262109 z"
     id="path14359-1-7-5-3-0-73-1-9-6"
     inkscape:connector-curvature="0"
     sodipodi:nodetypes="ccccccccssssccccccsssscccccc" />
  <path
     style="fill:none;stroke:#000000;stroke-width:2;stroke-linecap:butt;stroke-linejoin:round;stroke-miterlimit:4;stroke-dasharray:none;stroke-opacity:1"
     d="m 182.8718,6.2230144 -0.002,41.1133386"
     id="path14359-1-7-5-3-0-73-1-9-2"
     inkscape:connector-curvature="0"
     sodipodi:nodetypes="cc" />
  <path
     style="fill:none;stroke:#000000;stroke-width:2;stroke-linecap:butt;stroke-linejoin:round;stroke-miterlimit:4;stroke-dasharray:none;stroke-opacity:1"
     d="m 70.989429,30.125812 -0.002,17.210541"
     id="path14359-1-7-5-3-0-73-1-9-2-6"
     inkscape:connector-curvature="0"
     sodipodi:nodetypes="cc" />
  <path
     style="fill:none;stroke:#000000;stroke-width:2;stroke-linecap:butt;stroke-linejoin:round;stroke-miterlimit:4;stroke-dasharray:none;stroke-opacity:1"
     d="m 56.806142,6.2230144 -0.002,41.1133386"
     id="path14359-1-7-5-3-0-73-1-9-2-0"
     inkscape:connector-curvature="0"
     sodipodi:nodetypes="cc" />
  <path
     style="fill:#000000;fill-opacity:1;stroke:#000000;stroke-width:2;stroke-linecap:butt;stroke-linejoin:miter;stroke-miterlimit:4;stroke-dasharray:none;stroke-opacity:1"
     d="m 70.293227,17.890698 -8.40757,-2.88724 8.40427,-2.80035 0.0112,2.78873 z"
     id="path14359-1-7-5-3-0-73-4-0-68"
     inkscape:connector-curvature="0"
     sodipodi:nodetypes="ccccc" />
  <path
     style="fill:#000000;fill-opacity:1;stroke:#000000;stroke-width:2;stroke-linecap:butt;stroke-linejoin:miter;stroke-miterlimit:4;stroke-dasharray:none;stroke-opacity:1"
     d="m 168.88262,17.879308 8.4037,-2.90123 -8.40803,-2.78636 -0.008,2.78874 z"
     id="path14359-1-7-5-3-0-73-2-0-8"
     inkscape:connector-curvature="0"
     sodipodi:nodetypes="ccccc" />
  <path
     style="fill:none;fill-rule:evenodd;stroke:#000000;stroke-width:2;stroke-linecap:butt;stroke-linejoin:miter;stroke-miterlimit:4;stroke-dasharray:none;stroke-opacity:1"
     d="m 168.86271,14.980618 -98.553455,0.0114"
     id="path8331-0-6-2"
     inkscape:connector-curvature="0"
     sodipodi:nodetypes="cc" />
  <path
     style="fill:#000000;fill-opacity:1;stroke:#000000;stroke-width:2;stroke-linecap:butt;stroke-linejoin:miter;stroke-miterlimit:4;stroke-dasharray:none;stroke-opacity:1"
     d="m 84.764499,39.772731 -8.40757,-2.88724 8.40427,-2.80035 0.0112,2.78873 z"
     id="path14359-1-7-5-3-0-73-4-0-68-0"
     inkscape:connector-curvature="0"
     sodipodi:nodetypes="ccccc" />
  <path
     style="fill:#000000;fill-opacity:1;stroke:#000000;stroke-width:2;stroke-linecap:butt;stroke-linejoin:miter;stroke-miterlimit:4;stroke-dasharray:none;stroke-opacity:1"
     d="m 168.88262,39.761341 8.4037,-2.90123 -8.40803,-2.78636 -0.008,2.78874 z"
     id="path14359-1-7-5-3-0-73-2-0-8-2"
     inkscape:connector-curvature="0"
     sodipodi:nodetypes="ccccc" />
  <path
     style="fill:none;fill-rule:evenodd;stroke:#000000;stroke-width:2;stroke-linecap:butt;stroke-linejoin:miter;stroke-miterlimit:4;stroke-dasharray:none;stroke-opacity:1"
     d="m 168.86271,36.862651 -84.082181,0.0114"
     id="path8331-0-6-2-1"
     inkscape:connector-curvature="0"
     sodipodi:nodetypes="cc" />
  <text
     xml:space="preserve"
     style="font-style:italic;font-variant:normal;font-weight:normal;font-stretch:normal;font-size:7.5px;line-height:125%;font-family:Arial;-inkscape-font-specification:'Arial Italic';text-align:start;letter-spacing:0.5px;word-spacing:0px;text-anchor:start;fill:#000000;fill-opacity:1;stroke:none;stroke-width:1px;stroke-linecap:butt;stroke-linejoin:miter;stroke-opacity:1"
     x="43.892811"
     y="81.808685"
     id="text12624"
     sodipodi:linespacing="125%"><tspan
       sodipodi:role="line"
       id="tspan12626"
       x="43.892811"
       y="81.808685">Frog</tspan></text>
  <text
     xml:space="preserve"
     style="font-style:italic;font-variant:normal;font-weight:normal;font-stretch:normal;font-size:7.5px;line-height:125%;font-family:Arial;-inkscape-font-specification:'Arial Italic';text-align:start;letter-spacing:0.5px;word-spacing:0px;text-anchor:start;fill:#000000;fill-opacity:1;stroke:none;stroke-width:1px;stroke-linecap:butt;stroke-linejoin:miter;stroke-opacity:1"
     x="133.84804"
     y="74.2985"
     id="text12628"
     sodipodi:linespacing="125%"><tspan
       sodipodi:role="line"
       id="tspan12630"
       x="133.84804"
       y="74.2985">Guard</tspan><tspan
       sodipodi:role="line"
       x="133.84804"
       y="83.6735"
       id="tspan12632">Rail</tspan></text>
  <text
     xml:space="preserve"
     style="font-style:italic;font-variant:normal;font-weight:normal;font-stretch:normal;font-size:7.5px;line-height:125%;font-family:Arial;-inkscape-font-specification:'Arial Italic';text-align:start;letter-spacing:0.5px;word-spacing:0px;text-anchor:start;fill:#000000;fill-opacity:1;stroke:none;stroke-width:1px;stroke-linecap:butt;stroke-linejoin:miter;stroke-opacity:1"
     x="213.54419"
     y="73.799202"
     id="text12628-8"
     sodipodi:linespacing="125%"><tspan
       sodipodi:role="line"
       id="tspan12630-0"
       x="213.54419"
       y="73.799202">Gunning</tspan><tspan
       sodipodi:role="line"
       x="213.54419"
       y="83.174202"
       id="tspan12632-2">Rail</tspan></text>
  <text
     xml:space="preserve"
     style="font-style:italic;font-variant:normal;font-weight:normal;font-stretch:normal;font-size:7.5px;line-height:125%;font-family:Arial;-inkscape-font-specification:'Arial Italic';text-align:start;letter-spacing:0.5px;word-spacing:0px;text-anchor:start;fill:#000000;fill-opacity:1;stroke:none;stroke-width:1px;stroke-linecap:butt;stroke-linejoin:miter;stroke-opacity:1"
     x="89.78833"
     y="45.759838"
     id="text12655"
     sodipodi:linespacing="125%"><tspan
       sodipodi:role="line"
       id="tspan12657"
       x="89.78833"
       y="45.759838">Guard Face Gage</tspan></text>
  <text
     xml:space="preserve"
     style="font-style:italic;font-variant:normal;font-weight:normal;font-stretch:normal;font-size:7.5px;line-height:125%;font-family:Arial;-inkscape-font-specification:'Arial Italic';text-align:start;letter-spacing:0.5px;word-spacing:0px;text-anchor:start;fill:#000000;fill-opacity:1;stroke:none;stroke-width:1px;stroke-linecap:butt;stroke-linejoin:miter;stroke-opacity:1"
     x="82.190208"
     y="6.4892178"
     id="text12655-0"
     sodipodi:linespacing="125%"><tspan
       sodipodi:role="line"
       id="tspan12657-2"
       x="82.190208"
       y="6.4892178">Guard Check Gage</tspan></text>
</svg>
