<?xml version="1.0" encoding="UTF-8" standalone="no"?>
<!-- Created with Inkscape (http://www.inkscape.org/) -->

<svg
   xmlns:dc="http://purl.org/dc/elements/1.1/"
   xmlns:cc="http://creativecommons.org/ns#"
   xmlns:rdf="http://www.w3.org/1999/02/22-rdf-syntax-ns#"
   xmlns:svg="http://www.w3.org/2000/svg"
   xmlns="http://www.w3.org/2000/svg"
   xmlns:sodipodi="http://sodipodi.sourceforge.net/DTD/sodipodi-0.dtd"
   xmlns:inkscape="http://www.inkscape.org/namespaces/inkscape"
   id="svg8663"
   version="1.1"
   inkscape:version="0.48.2 r9819"
   width="600"
   height="266.25"
   viewBox="0 0 600 266.25"
   sodipodi:docname="er23oc13.001.svg">
  <title id="title_er23oc13.001"></title>
  <desc id="desc_er23oc13.001"></desc>
  <metadata
     id="metadata8669">
    <rdf:RDF>
      <cc:Work
         rdf:about="">
        <dc:format>image/svg+xml</dc:format>
        <dc:type
           rdf:resource="http://purl.org/dc/dcmitype/StillImage" />
        <dc:title />
      </cc:Work>
    </rdf:RDF>
  </metadata>
  <defs
     id="defs8667" />
  <sodipodi:namedview
     pagecolor="#ffffff"
     bordercolor="#666666"
     borderopacity="1"
     objecttolerance="10"
     gridtolerance="10"
     guidetolerance="10"
     inkscape:pageopacity="0"
     inkscape:pageshadow="2"
     inkscape:window-width="1344"
     inkscape:window-height="796"
     id="namedview8665"
     showgrid="false"
     inkscape:zoom="1.235"
     inkscape:cx="156.68016"
     inkscape:cy="133.125"
     inkscape:window-x="0"
     inkscape:window-y="0"
     inkscape:window-maximized="0"
     inkscape:current-layer="svg8663" />
  <path
     style="fill:none;stroke:#000000;stroke-width:5;stroke-linecap:butt;stroke-linejoin:miter;stroke-miterlimit:4;stroke-dasharray:none;stroke-opacity:1"
     d="m 393.81503,76.185984 -0.002,53.908956 -128.51056,0 0.002,-53.908956 z"
     id="path14359-1-7-5-3-0-73-1-9"
     inkscape:connector-curvature="0"
     sodipodi:nodetypes="ccccc" />
  <path
     style="fill:none;stroke:#000000;stroke-width:5;stroke-linecap:butt;stroke-linejoin:miter;stroke-miterlimit:4;stroke-dasharray:none;stroke-opacity:1"
     d="m 362.28853,130.68942 -63.32217,95.85522"
     id="path14359-1-7-5-3-0-73-1-9-0"
     inkscape:connector-curvature="0"
     sodipodi:nodetypes="cc" />
  <path
     style="fill:none;stroke:#000000;stroke-width:5;stroke-linecap:butt;stroke-linejoin:miter;stroke-miterlimit:4;stroke-dasharray:none;stroke-opacity:1"
     d="m 298.16684,130.68942 63.58534,95.85522"
     id="path14359-1-7-5-3-0-73-1-9-8"
     inkscape:connector-curvature="0"
     sodipodi:nodetypes="cc" />
  <path
     style="fill:none;stroke:#000000;stroke-width:5;stroke-linecap:butt;stroke-linejoin:miter;stroke-miterlimit:4;stroke-dasharray:none;stroke-opacity:1"
     d="m 322.47765,67.576289 -55.57213,0 C 266.54501,30.740728 293.97183,5.785715 322.47965,5.785715 Z"
     id="path14359-1-7-5-3-0-73-1-9-85"
     inkscape:connector-curvature="0"
     sodipodi:nodetypes="cccc" />
  <path
     style="fill:none;stroke:#000000;stroke-width:5;stroke-linecap:butt;stroke-linejoin:miter;stroke-miterlimit:4;stroke-dasharray:10, 5;stroke-opacity:1;stroke-dashoffset:8.50000000000000000"
     d="m 265.70324,130.42891 -51.56452,0 0.002,-53.908963 51.56452,0"
     id="path14359-1-7-5-3-0-73-1-9-5"
     inkscape:connector-curvature="0"
     sodipodi:nodetypes="cccc" />
  <path
     style="fill:none;stroke:#000000;stroke-width:5;stroke-linecap:butt;stroke-linejoin:miter;stroke-miterlimit:4;stroke-dasharray:10, 5;stroke-opacity:1;stroke-dashoffset:8.50000000000000000"
     d="m 267.84064,69.246115 -55.57213,0 C 211.908,32.410558 239.33482,7.4555454 267.84264,7.4555454 Z"
     id="path14359-1-7-5-3-0-73-1-9-85-2"
     inkscape:connector-curvature="0"
     sodipodi:nodetypes="cccc" />
  <path
     style="fill:none;stroke:#000000;stroke-width:5;stroke-linecap:butt;stroke-linejoin:miter;stroke-miterlimit:4;stroke-dasharray:none;stroke-opacity:1"
     d="m 424.93933,121.17461 -5.2e-4,-10.44976 -18.70217,0 0.002,-13.29856 18.70213,0 -10e-4,-10.4499 17.63324,17.23269 z"
     id="path14359-1-7-5-3-0-73-1-9-6"
     inkscape:connector-curvature="0"
     sodipodi:nodetypes="cccccccc" />
  <path
     style="fill:none;stroke:#000000;stroke-width:5;stroke-linecap:butt;stroke-linejoin:miter;stroke-miterlimit:4;stroke-dasharray:none;stroke-opacity:1"
     d="m 175.27686,119.60422 5.2e-4,-10.44976 18.70217,0 -0.002,-13.298551 -18.70213,0 0.001,-10.4499 -17.63324,17.232681 z"
     id="path14359-1-7-5-3-0-73-1-9-6-0"
     inkscape:connector-curvature="0"
     sodipodi:nodetypes="cccccccc" />
  <path
     style="fill:none;fill-rule:evenodd;stroke:#000000;stroke-width:2;stroke-linecap:butt;stroke-linejoin:miter;stroke-opacity:1;stroke-miterlimit:4;stroke-dasharray:none"
     d="m 273.21116,40.280918 48.06798,27.089861"
     id="path9327"
     inkscape:connector-curvature="0" />
  <path
     style="fill:none;fill-rule:evenodd;stroke:#000000;stroke-width:2;stroke-linecap:butt;stroke-linejoin:miter;stroke-opacity:1;stroke-miterlimit:4;stroke-dasharray:none"
     d="m 298.31883,11.869601 23.62104,55.170814"
     id="path9329"
     inkscape:connector-curvature="0" />
  <path
     style="fill:none;fill-rule:evenodd;stroke:#000000;stroke-width:1px;stroke-linecap:round;stroke-linejoin:round;stroke-opacity:1"
     d="m 286.1439,102.31829 c 4.88758,-1.49031 10.31183,-0.001 14.40221,2.78238 2.95828,2.01303 1.53149,6.30654 0.14075,9.23237 -2.15512,4.53394 -5.62922,5.78139 -10.7252,5.5522 -4.27366,-0.1922 -7.43595,-3.03025 -8.48493,-6.8466 -1.04898,-3.81636 0.42832,-9.42785 4.66717,-10.72035 z"
     id="path9331"
     inkscape:connector-curvature="0"
     sodipodi:nodetypes="ssssss" />
  <path
     style="fill:none;fill-rule:evenodd;stroke:#000000;stroke-width:1px;stroke-linecap:round;stroke-linejoin:round;stroke-opacity:1"
     d="m 302.03041,110.47773 c 1.19467,-3.44203 5.41836,-3.07336 8.42155,-2.24352 3.83353,1.05928 8.17613,4.52242 11.53927,5.32014 3.59062,0.85168 7.33388,-0.006 10.88905,-0.75754 3.33101,-0.70439 7.53899,-2.18702 10.20768,0.0632 2.79845,2.35963 -3.52223,3.23287 -5.46129,3.84864 -3.45205,1.09624 -6.7221,2.86785 -10.47448,2.84359 -3.60478,-0.0233 -7.14283,-0.32387 -10.72916,-0.68005 -3.22725,-0.32052 -6.45985,-0.76506 -9.58505,-1.70781 -2.1325,-0.64329 -3.85307,-1.89499 -5.67249,-3.39996 z"
     id="path9338"
     inkscape:connector-curvature="0"
     sodipodi:nodetypes="csssssssscc" />
  <path
     style="fill:none;fill-rule:evenodd;stroke:#000000;stroke-width:1px;stroke-linecap:butt;stroke-linejoin:round;stroke-opacity:1"
     d="m 302.11691,107.01804 c 1.98498,0.53232 3.82028,0.0412 5.83131,-0.11907 2.67505,-0.21312 5.34661,-0.98876 8.03284,-1.15147 5.72541,-0.3468 10.57813,0.49109 15.72716,2.20638 1.95124,0.65002 3.72538,1.7664 5.69746,2.3509 2.26247,0.67056 4.61299,0.7365 7.01007,0.49032 0.89062,-0.0915 1.80869,0.38397 2.41757,1.06654"
     id="path9344"
     inkscape:connector-curvature="0"
     sodipodi:nodetypes="csssssc" />
  <path
     style="fill:none;fill-rule:evenodd;stroke:#000000;stroke-width:1px;stroke-linecap:butt;stroke-linejoin:miter;stroke-opacity:1"
     d="m 332.02741,118.80408 c 1.79148,1.46511 4.17641,0.73685 6.26818,0.90091 1.67618,0.13146 3.31844,-0.0411 4.99764,-0.0557 1.59766,-0.0139 3.26592,-0.0746 4.7657,-0.60979 1.741,-0.62128 3.4403,-0.21047 5.20054,-0.18087 2.06707,0.0348 4.02498,-0.32991 6.08853,0.0919 2.95182,0.60339 6.00781,0.35717 8.98606,-0.0887 2.03891,-0.30525 3.8699,-0.50056 5.92622,-0.84837 1.99318,-0.33712 1.1379,-4.29835 1.13504,-5.93167 -0.002,-1.42065 -1.81281,-2.35306 -2.45466,-1.00198 -0.77559,1.63259 -1.41677,1.89441 -4.43934,1.98847 -2.88373,0.0897 -5.72312,-0.13213 -8.61416,-0.2052 -2.17513,-0.055 -4.36964,-0.35972 -6.49501,-0.47749 -1.99628,-0.11062 -3.86972,-0.23472 -5.77078,-0.61057 -1.65298,-0.3268 -2.5868,1.29334 -3.74594,2.14824"
     id="path9348"
     inkscape:connector-curvature="0"
     sodipodi:nodetypes="csssssssssssssc" />
  <text
     xml:space="preserve"
     style="font-style:normal;font-variant:normal;font-weight:normal;font-stretch:normal;font-size:12.5px;line-height:125%;font-family:Arial;-inkscape-font-specification:Arial;text-align:center;letter-spacing:0.5px;word-spacing:0px;text-anchor:middle;fill:#000000;fill-opacity:1;stroke:none;stroke-width:1px;stroke-linecap:butt;stroke-linejoin:miter;stroke-opacity:1"
     x="299.9368"
     y="243.1731"
     id="text9352"
     sodipodi:linespacing="125%"><tspan
       sodipodi:role="line"
       id="tspan9354"
       x="300.1868"
       y="243.1731">Figure 24: Bassinet Bed Resting on Stand,</tspan><tspan
       sodipodi:role="line"
       x="300.1868"
       y="258.7981"
       id="tspan9356">Showing Possible Alternate Lateral Positions</tspan></text>
</svg>
