<?xml version="1.0" encoding="UTF-8" standalone="no"?>
<!-- Created with Inkscape (http://www.inkscape.org/) -->

<svg
   xmlns:dc="http://purl.org/dc/elements/1.1/"
   xmlns:cc="http://creativecommons.org/ns#"
   xmlns:rdf="http://www.w3.org/1999/02/22-rdf-syntax-ns#"
   xmlns:svg="http://www.w3.org/2000/svg"
   xmlns="http://www.w3.org/2000/svg"
   xmlns:sodipodi="http://sodipodi.sourceforge.net/DTD/sodipodi-0.dtd"
   xmlns:inkscape="http://www.inkscape.org/namespaces/inkscape"
   id="svg10358"
   version="1.1"
   inkscape:version="0.48.2 r9819"
   width="521.25"
   height="370"
   viewBox="0 0 521.25 370"
   sodipodi:docname="er25oc13.010.svg">
  <metadata
     id="metadata10364">
    <rdf:RDF>
      <cc:Work
         rdf:about="">
        <dc:format>image/svg+xml</dc:format>
        <dc:type
           rdf:resource="http://purl.org/dc/dcmitype/StillImage" />
        <dc:title />
      </cc:Work>
    </rdf:RDF>
  </metadata>
  <defs
     id="defs10362" />
  <sodipodi:namedview
     pagecolor="#ffffff"
     bordercolor="#666666"
     borderopacity="1"
     objecttolerance="10"
     gridtolerance="10"
     guidetolerance="10"
     inkscape:pageopacity="0"
     inkscape:pageshadow="2"
     inkscape:window-width="1344"
     inkscape:window-height="796"
     id="namedview10360"
     showgrid="false"
     inkscape:zoom="1.3108108"
     inkscape:cx="236.19645"
     inkscape:cy="185"
     inkscape:window-x="0"
     inkscape:window-y="0"
     inkscape:window-maximized="0"
     inkscape:current-layer="svg10358" />
  <text
     xml:space="preserve"
     style="font-style:normal;font-variant:normal;font-weight:normal;font-stretch:normal;font-size:15px;line-height:125%;font-family:Arial;-inkscape-font-specification:Arial;text-align:start;letter-spacing:0.5px;word-spacing:0px;text-anchor:start;fill:#000000;fill-opacity:1;stroke:none;stroke-width:1px;stroke-linecap:butt;stroke-linejoin:miter;stroke-opacity:1"
     x="29.371136"
     y="271.96906"
     id="text10996"
     sodipodi:linespacing="125%"><tspan
       sodipodi:role="line"
       id="tspan10998"
       x="29.371136"
       y="271.96906">HDMI/DVI</tspan></text>
  <path
     style="color:#000000;display:inline;overflow:visible;visibility:visible;fill:none;fill-rule:evenodd;stroke:#000000;stroke-width:2;stroke-linecap:butt;stroke-linejoin:miter;stroke-miterlimit:4;stroke-dasharray:none;stroke-dashoffset:0;stroke-opacity:1;marker:none;enable-background:accumulate"
     d="m 59.493089,105.89614 c -2.868355,0.0684 -4.782908,-2.32592 -4.782908,-5.19509 l 0,-15.800704 c 0,-2.869171 2.32593,-5.195093 5.1951,-5.195093 l 93.979839,0 c 2.86917,0 5.19508,2.325926 5.19508,5.195093 l 0,15.800704 c 0,2.86917 -1.50164,5.16939 -4.3707,5.19509 -3.49612,0.0313 -9.57243,10.5796 -15.38851,10.5796 l -64.714188,0 c -6.180763,0 -11.454431,-10.66685 -15.113713,-10.5796 z"
     id="path10908"
     inkscape:connector-curvature="0"
     sodipodi:nodetypes="sssssssssss" />
  <path
     style="color:#000000;display:inline;overflow:visible;visibility:visible;fill:none;fill-rule:evenodd;stroke:#000000;stroke-width:1;stroke-linecap:butt;stroke-linejoin:miter;stroke-miterlimit:4;stroke-dasharray:none;stroke-dashoffset:0;stroke-opacity:1;marker:none;enable-background:accumulate"
     d="M 165.7013,93.62508 A 59.012196,59.012196 0 0 1 106.6891,152.63728 59.012196,59.012196 0 0 1 47.676907,93.62508 59.012196,59.012196 0 0 1 106.6891,34.612884 59.012196,59.012196 0 0 1 165.7013,93.62508 Z"
     id="path10911"
     inkscape:connector-curvature="0" />
  <path
     style="color:#000000;display:inline;overflow:visible;visibility:visible;fill:none;fill-rule:evenodd;stroke:#000000;stroke-width:2;stroke-linecap:butt;stroke-linejoin:miter;stroke-miterlimit:4;stroke-dasharray:none;stroke-dashoffset:0;stroke-opacity:1;marker:none;enable-background:accumulate"
     d="m 188.99016,105.82744 c -2.86836,0.0684 -4.78291,-2.32592 -4.78291,-5.19509 l 0,-15.800707 c 0,-2.869171 2.32593,-5.195093 5.1951,-5.195093 l 93.97984,0 c 2.86917,0 5.19508,2.325926 5.19508,5.195093 l 0,15.800707 c 0,2.86917 -1.50164,5.16939 -4.3707,5.19509 -3.49612,0.0313 -9.57243,10.5796 -15.38851,10.5796 l -64.71419,0 c -6.18076,0 -11.45443,-10.66685 -15.11371,-10.5796 z"
     id="path10908-4"
     inkscape:connector-curvature="0"
     sodipodi:nodetypes="sssssssssss" />
  <path
     style="color:#000000;display:inline;overflow:visible;visibility:visible;fill:none;fill-rule:evenodd;stroke:#000000;stroke-width:1;stroke-linecap:butt;stroke-linejoin:miter;stroke-miterlimit:4;stroke-dasharray:none;stroke-dashoffset:0;stroke-opacity:1;marker:none;enable-background:accumulate"
     d="M 299.85909,93.831171 A 61.886749,58.726609 0 0 1 237.97234,152.55779 61.886749,58.726609 0 0 1 176.0856,93.831171 61.886749,58.726609 0 0 1 237.97234,35.104563 61.886749,58.726609 0 0 1 299.85909,93.831171 Z"
     id="path10911-8"
     inkscape:connector-curvature="0" />
  <path
     style="color:#000000;display:inline;overflow:visible;visibility:visible;fill:none;fill-rule:evenodd;stroke:#000000;stroke-width:2;stroke-linecap:butt;stroke-linejoin:miter;stroke-miterlimit:4;stroke-dasharray:none;stroke-dashoffset:0;stroke-opacity:1;marker:none;enable-background:accumulate"
     d="m 316.08278,106.37703 c -2.86835,0.0684 -4.78291,-2.32592 -4.78291,-5.19509 l 0,-15.800708 c 0,-2.869171 2.32593,-5.195093 5.1951,-5.195093 l 93.97984,0 c 2.86917,0 5.19508,2.325926 5.19508,5.195093 l 0,15.800708 c 0,2.86917 -1.50164,5.16939 -4.3707,5.19509 -3.49612,0.0313 -9.57243,10.5796 -15.38851,10.5796 l -64.71419,0 c -6.18076,0 -11.45443,-10.66685 -15.11371,-10.5796 z"
     id="path10908-1"
     inkscape:connector-curvature="0"
     sodipodi:nodetypes="sssssssssss" />
  <path
     style="color:#000000;display:inline;overflow:visible;visibility:visible;fill:none;fill-rule:evenodd;stroke:#000000;stroke-width:1;stroke-linecap:butt;stroke-linejoin:miter;stroke-miterlimit:4;stroke-dasharray:none;stroke-dashoffset:0;stroke-opacity:1;marker:none;enable-background:accumulate"
     d="m 427.92572,92.113703 a 60.868499,56.883974 0 0 1 -60.8685,56.883987 60.868499,56.883974 0 0 1 -60.8685,-56.883987 60.868499,56.883974 0 0 1 60.8685,-56.883974 60.868499,56.883974 0 0 1 60.8685,56.883974 z"
     id="path10911-4"
     inkscape:connector-curvature="0" />
  <path
     style="color:#000000;display:inline;overflow:visible;visibility:visible;fill:none;fill-rule:evenodd;stroke:#000000;stroke-width:2;stroke-linecap:butt;stroke-linejoin:miter;stroke-miterlimit:4;stroke-dasharray:none;stroke-dashoffset:0;stroke-opacity:1;marker:none;enable-background:accumulate"
     d="m 19.895538,308.80429 c -2.868355,0.0684 -4.782908,-2.32592 -4.782908,-5.19509 l 0,-15.8007 c 0,-2.86917 2.32593,-5.1951 5.1951,-5.1951 l 93.97984,0 c 2.86917,0 5.19508,2.32593 5.19508,5.1951 l 0,15.8007 c 0,2.86917 -1.50164,5.16939 -4.3707,5.19509 -3.49612,0.0313 -9.57243,10.5796 -15.388511,10.5796 l -64.714188,0 c -6.180763,0 -11.454431,-10.66685 -15.113713,-10.5796 z"
     id="path10908-2"
     inkscape:connector-curvature="0"
     sodipodi:nodetypes="sssssssssss" />
  <path
     style="color:#000000;display:inline;overflow:visible;visibility:visible;fill:none;fill-rule:evenodd;stroke:#afafaf;stroke-width:2;stroke-linecap:butt;stroke-linejoin:miter;stroke-miterlimit:4;stroke-dasharray:none;stroke-dashoffset:0;stroke-opacity:1;marker:none;enable-background:accumulate"
     d="M 129.26204,294.40816 A 62.018695,62.92944 0 0 1 67.24334,357.3376 62.018695,62.92944 0 0 1 5.2246475,294.40816 62.018695,62.92944 0 0 1 67.24334,231.47871 a 62.018695,62.92944 0 0 1 62.0187,62.92945 z"
     id="path10911-9"
     inkscape:connector-curvature="0" />
  <path
     style="color:#000000;display:inline;overflow:visible;visibility:visible;fill:none;fill-rule:evenodd;stroke:#000000;stroke-width:2;stroke-linecap:butt;stroke-linejoin:miter;stroke-miterlimit:4;stroke-dasharray:none;stroke-dashoffset:0;stroke-opacity:1;marker:none;enable-background:accumulate"
     d="m 150.28387,308.95608 c -2.86836,0.0684 -4.78291,-2.32592 -4.78291,-5.19509 l 0,-15.80071 c 0,-2.86917 2.32593,-5.19509 5.1951,-5.19509 l 93.97984,0 c 2.86917,0 5.19508,2.32593 5.19508,5.19509 l 0,15.80071 c 0,2.86917 -1.50164,5.16939 -4.3707,5.19509 -3.49612,0.0313 -9.57243,10.5796 -15.38851,10.5796 l -64.71419,0 c -6.18076,0 -11.45443,-10.66685 -15.11371,-10.5796 z"
     id="path10908-9"
     inkscape:connector-curvature="0"
     sodipodi:nodetypes="sssssssssss" />
  <path
     style="color:#000000;display:inline;overflow:visible;visibility:visible;fill:none;fill-rule:evenodd;stroke:#000000;stroke-width:1;stroke-linecap:butt;stroke-linejoin:miter;stroke-miterlimit:4;stroke-dasharray:none;stroke-dashoffset:0;stroke-opacity:1;marker:none;enable-background:accumulate"
     d="m 258.61787,294.71174 a 62.200528,55.825312 0 0 1 -62.20052,55.82531 62.200528,55.825312 0 0 1 -62.20053,-55.82531 62.200528,55.825312 0 0 1 62.20053,-55.82532 62.200528,55.825312 0 0 1 62.20052,55.82532 z"
     id="path10911-1"
     inkscape:connector-curvature="0" />
  <path
     style="color:#000000;display:inline;overflow:visible;visibility:visible;fill:none;fill-rule:evenodd;stroke:#000000;stroke-width:2;stroke-linecap:butt;stroke-linejoin:miter;stroke-miterlimit:4;stroke-dasharray:none;stroke-dashoffset:0;stroke-opacity:1;marker:none;enable-background:accumulate"
     d="m 405.44427,308.95609 c -2.86836,0.0684 -4.78291,-2.32592 -4.78291,-5.19509 l 0,-15.80071 c 0,-2.86917 2.32593,-5.19509 5.1951,-5.19509 l 93.97984,0 c 2.86917,0 5.19508,2.32593 5.19508,5.19509 l 0,15.80071 c 0,2.86917 -1.50164,5.16939 -4.3707,5.19509 -3.49612,0.0313 -9.57243,10.5796 -15.38851,10.5796 l -64.71419,0 c -6.18076,0 -11.45443,-10.66685 -15.11371,-10.5796 z"
     id="path10908-9-2"
     inkscape:connector-curvature="0"
     sodipodi:nodetypes="sssssssssss" />
  <path
     style="color:#000000;display:inline;overflow:visible;visibility:visible;fill:none;fill-rule:evenodd;stroke:#000000;stroke-width:1;stroke-linecap:butt;stroke-linejoin:miter;stroke-miterlimit:4;stroke-dasharray:none;stroke-dashoffset:0;stroke-opacity:1;marker:none;enable-background:accumulate"
     d="m 518.3063,295.31891 a 64.90706,59.139007 0 0 1 -64.90706,59.13901 64.90706,59.139007 0 0 1 -64.90706,-59.13901 64.90706,59.139007 0 0 1 64.90706,-59.13901 64.90706,59.139007 0 0 1 64.90706,59.13901 z"
     id="path10911-1-4"
     inkscape:connector-curvature="0" />
  <path
     style="color:#000000;display:inline;overflow:visible;visibility:visible;fill:none;fill-rule:evenodd;stroke:#000000;stroke-width:2;stroke-linecap:butt;stroke-linejoin:miter;stroke-miterlimit:4;stroke-dasharray:none;stroke-dashoffset:0;stroke-opacity:1;marker:none;enable-background:accumulate"
     d="m 278.69892,309.56325 c -2.86836,0.0684 -4.78291,-2.32592 -4.78291,-5.19509 l 0,-15.8007 c 0,-2.86917 2.32593,-5.1951 5.1951,-5.1951 l 93.97984,0 c 2.86917,0 5.19508,2.32593 5.19508,5.1951 l 0,15.8007 c 0,2.86917 -1.50164,5.16939 -4.3707,5.19509 -3.49612,0.0313 -9.57243,10.5796 -15.38851,10.5796 l -64.71419,0 c -6.18076,0 -11.45443,-10.66685 -15.11371,-10.5796 z"
     id="path10908-2-8"
     inkscape:connector-curvature="0"
     sodipodi:nodetypes="sssssssssss" />
  <path
     style="color:#000000;display:inline;overflow:visible;visibility:visible;fill:none;fill-rule:evenodd;stroke:#afafaf;stroke-width:2;stroke-linecap:butt;stroke-linejoin:miter;stroke-miterlimit:4;stroke-dasharray:none;stroke-dashoffset:0;stroke-opacity:1;marker:none;enable-background:accumulate"
     d="m 384.88578,301.16286 a 59.977488,63.013305 0 0 1 -59.97749,63.0133 59.977488,63.013305 0 0 1 -59.97749,-63.0133 59.977488,63.013305 0 0 1 59.97749,-63.01332 59.977488,63.013305 0 0 1 59.97749,63.01332 z"
     id="path10911-9-9"
     inkscape:connector-curvature="0" />
  <path
     style="fill:none;fill-rule:evenodd;stroke:#afafaf;stroke-width:2;stroke-linecap:butt;stroke-linejoin:miter;stroke-opacity:1;stroke-miterlimit:4;stroke-dasharray:none"
     d="m 282.33096,256.76403 87.27973,86.2172"
     id="path10992"
     inkscape:connector-curvature="0"
     sodipodi:nodetypes="cc" />
  <path
     style="fill:none;fill-rule:evenodd;stroke:#afafaf;stroke-width:2;stroke-linecap:butt;stroke-linejoin:miter;stroke-opacity:1;stroke-miterlimit:4;stroke-dasharray:none"
     d="m 26.108024,247.04942 84.547496,92.28883"
     id="path10994"
     inkscape:connector-curvature="0" />
  <text
     xml:space="preserve"
     style="font-style:normal;font-variant:normal;font-weight:normal;font-stretch:normal;font-size:15px;line-height:125%;font-family:Arial;-inkscape-font-specification:Arial;text-align:start;letter-spacing:0.50000000000000000px;word-spacing:0px;text-anchor:start;fill:#000000;fill-opacity:1;stroke:none;stroke-width:1px;stroke-linecap:butt;stroke-linejoin:miter;stroke-opacity:1"
     x="82.391754"
     y="69.422684"
     id="text11000"
     sodipodi:linespacing="125%"><tspan
       sodipodi:role="line"
       id="tspan11002"
       x="82.391754"
       y="69.422684">HDMI 1</tspan></text>
  <text
     xml:space="preserve"
     style="font-style:normal;font-variant:normal;font-weight:normal;font-stretch:normal;font-size:15px;line-height:125%;font-family:Arial;-inkscape-font-specification:Arial;text-align:start;letter-spacing:0.50000000000000000px;word-spacing:0px;text-anchor:start;fill:#000000;fill-opacity:1;stroke:none;stroke-width:1px;stroke-linecap:butt;stroke-linejoin:miter;stroke-opacity:1"
     x="206.79541"
     y="69.854538"
     id="text11000-5"
     sodipodi:linespacing="125%"><tspan
       sodipodi:role="line"
       id="tspan11002-5"
       x="206.79541"
       y="69.854538">HDMI 2</tspan></text>
  <text
     xml:space="preserve"
     style="font-style:normal;font-variant:normal;font-weight:normal;font-stretch:normal;font-size:15px;line-height:125%;font-family:Arial;-inkscape-font-specification:Arial;text-align:start;letter-spacing:0.50000000000000000px;word-spacing:0px;text-anchor:start;fill:#000000;fill-opacity:1;stroke:none;stroke-width:1px;stroke-linecap:butt;stroke-linejoin:miter;stroke-opacity:1"
     x="337.63046"
     y="71.761765"
     id="text11000-56"
     sodipodi:linespacing="125%"><tspan
       sodipodi:role="line"
       id="tspan11002-7"
       x="337.63046"
       y="71.761765">HDMI 3</tspan></text>
  <text
     xml:space="preserve"
     style="font-style:normal;font-variant:normal;font-weight:normal;font-stretch:normal;font-size:15px;line-height:125%;font-family:Arial;-inkscape-font-specification:Arial;text-align:start;letter-spacing:0.5px;word-spacing:0px;text-anchor:start;fill:#000000;fill-opacity:1;stroke:none;stroke-width:1px;stroke-linecap:butt;stroke-linejoin:miter;stroke-opacity:1"
     x="166.74385"
     y="272.0195"
     id="text11000-7"
     sodipodi:linespacing="125%"><tspan
       sodipodi:role="line"
       id="tspan11002-2"
       x="166.74385"
       y="272.0195">TV/STB</tspan></text>
  <text
     xml:space="preserve"
     style="font-style:normal;font-variant:normal;font-weight:normal;font-stretch:normal;font-size:15px;line-height:125%;font-family:Arial;-inkscape-font-specification:Arial;text-align:start;letter-spacing:0.5px;word-spacing:0px;text-anchor:start;fill:#000000;fill-opacity:1;stroke:none;stroke-width:1px;stroke-linecap:butt;stroke-linejoin:miter;stroke-opacity:1"
     x="301.77478"
     y="273.54526"
     id="text11000-57"
     sodipodi:linespacing="125%"><tspan
       sodipodi:role="line"
       id="tspan11002-9"
       x="301.77478"
       y="273.54526">Game</tspan></text>
  <text
     xml:space="preserve"
     style="font-style:normal;font-variant:normal;font-weight:normal;font-stretch:normal;font-size:15px;line-height:125%;font-family:Arial;-inkscape-font-specification:Arial;text-align:start;letter-spacing:0.5px;word-spacing:0px;text-anchor:start;fill:#000000;fill-opacity:1;stroke:none;stroke-width:1px;stroke-linecap:butt;stroke-linejoin:miter;stroke-opacity:1"
     x="429.17685"
     y="270.49371"
     id="text11000-1"
     sodipodi:linespacing="125%"><tspan
       sodipodi:role="line"
       id="tspan11002-1"
       x="429.17685"
       y="270.49371">HDMI</tspan></text>
  <text
     xml:space="preserve"
     style="font-style:normal;font-variant:normal;font-weight:normal;font-stretch:normal;font-size:12.5px;line-height:125%;font-family:Arial;-inkscape-font-specification:Arial;text-align:start;letter-spacing:0.5px;word-spacing:0px;text-anchor:start;fill:#000000;fill-opacity:1;stroke:none;stroke-width:1px;stroke-linecap:butt;stroke-linejoin:miter;stroke-opacity:1;"
     x="45.391754"
     y="201.78351"
     id="text11054"
     sodipodi:linespacing="125%"><tspan
       sodipodi:role="line"
       id="tspan11056"
       x="45.391754"
       y="201.78351"><tspan
   style="font-style:italic;font-variant:normal;font-weight:normal;font-stretch:normal;font-family:Arial;-inkscape-font-specification:'Arial Italic';letter-spacing:0.5px;"
   id="tspan11058">Example</tspan><tspan
   style="-inkscape-font-specification:'Arial Italic';font-family:Arial;font-weight:normal;font-style:italic;font-stretch:normal;font-variant:normal"
   id="tspan11083"> 2</tspan>: Only TV/STB and HDMI are acceptable input terminals for testing</tspan></text>
  <text
     xml:space="preserve"
     style="font-style:normal;font-variant:normal;font-weight:normal;font-stretch:normal;font-size:12.5px;line-height:125%;font-family:Arial;-inkscape-font-specification:Arial;text-align:start;letter-spacing:0.5px;word-spacing:0px;text-anchor:start;fill:#000000;fill-opacity:1;stroke:none;stroke-width:1px;stroke-linecap:butt;stroke-linejoin:miter;stroke-opacity:1"
     x="45.686474"
     y="10.485335"
     id="text11054-2"
     sodipodi:linespacing="125%"><tspan
       sodipodi:role="line"
       id="tspan11056-9"
       x="45.686474"
       y="10.485335"><tspan
   style="font-style:italic;font-variant:normal;font-weight:normal;font-stretch:normal;font-family:Arial;-inkscape-font-specification:'Arial Italic';letter-spacing:0.5px"
   id="tspan11058-4">Example</tspan><tspan
   style="-inkscape-font-specification:'Arial Italic';font-family:Arial;font-weight:normal;font-style:italic;font-stretch:normal;font-variant:normal"
   id="tspan11081"> 1</tspan>: All input terminals present are acceptable for testing</tspan></text>
</svg>
